<?xml version="1.0" encoding="utf-8" standalone="no"?>
<!DOCTYPE svg PUBLIC "-//W3C//DTD SVG 1.1//EN"
  "http://www.w3.org/Graphics/SVG/1.1/DTD/svg11.dtd">
<svg height="325.986375pt" version="1.1" viewBox="0 0 559.4325 325.986375" width="559.4325pt" xmlns="http://www.w3.org/2000/svg" xmlns:xlink="http://www.w3.org/1999/xlink">
 <metadata>
  <rdf:RDF xmlns:cc="http://creativecommons.org/ns#" xmlns:dc="http://purl.org/dc/elements/1.1/" xmlns:rdf="http://www.w3.org/1999/02/22-rdf-syntax-ns#">
   <cc:Work>
    <dc:type rdf:resource="http://purl.org/dc/dcmitype/StillImage"/>
    <dc:date>2022-08-18T10:24:08.839021</dc:date>
    <dc:format>image/svg+xml</dc:format>
    <dc:creator>
     <cc:Agent>
      <dc:title>Matplotlib v3.4.3, https://matplotlib.org/</dc:title>
     </cc:Agent>
    </dc:creator>
   </cc:Work>
  </rdf:RDF>
 </metadata>
 <defs>
  <style type="text/css">*{stroke-linecap:butt;stroke-linejoin:round;}</style>
 </defs>
 <g id="figure_1">
  <g id="patch_1">
   <path d="M 0 325.986375 
L 559.4325 325.986375 
L 559.4325 0 
L 0 0 
z
" style="fill:#ffffff;"/>
  </g>
  <g id="axes_1">
   <g id="patch_2">
    <path d="M 53.328125 288.430125 
L 410.448125 288.430125 
L 410.448125 22.318125 
L 53.328125 22.318125 
z
" style="fill:#ffffff;"/>
   </g>
   <g id="PolyCollection_1">
    <defs>
     <path d="M 69.560852 -114.694571 
L 69.560852 -52.225867 
L 73.128485 -74.686525 
L 76.696117 -126.626795 
L 80.263749 -160.317782 
L 83.831382 -187.925674 
L 87.399014 -195.178594 
L 90.966646 -204.069271 
L 94.534279 -204.771167 
L 98.101911 -210.386331 
L 101.669544 -214.83167 
L 105.237176 -221.850625 
L 108.804808 -228.40165 
L 112.372441 -230.507337 
L 115.940073 -238.228188 
L 119.507705 -241.503701 
L 123.075338 -246.650935 
L 126.64297 -250.394378 
L 130.210603 -255.073681 
L 133.778235 -259.51902 
L 137.345867 -259.752985 
L 140.9135 -260.220915 
L 144.481132 -259.969403 
L 148.048764 -260.688846 
L 151.616397 -260.922811 
L 155.184029 -261.349797 
L 158.751661 -261.624706 
L 162.319294 -261.624706 
L 165.886926 -261.858672 
L 169.454559 -262.057542 
L 173.022191 -262.075089 
L 176.589823 -264.666254 
L 180.157456 -264.666254 
L 183.725088 -265.83608 
L 187.29272 -265.83608 
L 190.860353 -266.070045 
L 194.427985 -266.070045 
L 197.995618 -265.83608 
L 201.56325 -266.30401 
L 205.130882 -266.771941 
L 208.698515 -267.707801 
L 212.266147 -267.707801 
L 215.833779 -267.707801 
L 219.401412 -266.771941 
L 222.969044 -267.941766 
L 226.536676 -269.339708 
L 230.104309 -269.111592 
L 233.671941 -269.813488 
L 237.239574 -269.813488 
L 240.807206 -270.515383 
L 244.374838 -270.515383 
L 247.942471 -270.515383 
L 251.510103 -270.515383 
L 255.077735 -270.749349 
L 258.645368 -271.685209 
L 262.213 -271.919175 
L 265.780632 -272.62107 
L 269.348265 -272.62107 
L 272.915897 -272.62107 
L 276.48353 -272.15314 
L 280.051162 -271.919175 
L 283.618794 -271.919175 
L 287.186427 -271.919175 
L 290.754059 -272.387105 
L 294.321691 -272.387105 
L 297.889324 -272.387105 
L 301.456956 -272.387105 
L 305.024589 -272.387105 
L 308.592221 -272.387105 
L 312.159853 -272.387105 
L 315.727486 -272.387105 
L 319.295118 -272.387105 
L 322.86275 -272.387105 
L 326.430383 -272.387105 
L 329.998015 -272.387105 
L 333.565647 -272.387105 
L 337.13328 -272.387105 
L 340.700912 -272.387105 
L 344.268545 -272.387105 
L 347.836177 -272.387105 
L 351.403809 -272.387105 
L 354.971442 -272.387105 
L 358.539074 -272.387105 
L 362.106706 -272.387105 
L 365.674339 -272.387105 
L 369.241971 -272.387105 
L 372.809604 -272.387105 
L 376.377236 -272.387105 
L 379.944868 -274.258826 
L 383.512501 -274.258826 
L 387.080133 -274.726757 
L 390.647765 -275.662618 
L 394.215398 -275.662618 
L 394.215398 -291.57225 
L 394.215398 -291.57225 
L 390.647765 -291.57225 
L 387.080133 -291.57225 
L 383.512501 -291.57225 
L 379.944868 -291.57225 
L 376.377236 -291.57225 
L 372.809604 -291.57225 
L 369.241971 -291.57225 
L 365.674339 -291.57225 
L 362.106706 -291.57225 
L 358.539074 -291.57225 
L 354.971442 -291.57225 
L 351.403809 -291.57225 
L 347.836177 -291.57225 
L 344.268545 -291.57225 
L 340.700912 -291.57225 
L 337.13328 -291.57225 
L 333.565647 -291.57225 
L 329.998015 -291.57225 
L 326.430383 -291.57225 
L 322.86275 -291.57225 
L 319.295118 -291.57225 
L 315.727486 -291.57225 
L 312.159853 -291.57225 
L 308.592221 -291.10432 
L 305.024589 -290.636389 
L 301.456956 -290.636389 
L 297.889324 -290.168459 
L 294.321691 -290.168459 
L 290.754059 -290.168459 
L 287.186427 -287.828807 
L 283.618794 -287.828807 
L 280.051162 -287.126912 
L 276.48353 -287.126912 
L 272.915897 -287.126912 
L 269.348265 -287.126912 
L 265.780632 -287.126912 
L 262.213 -286.1969 
L 258.645368 -285.72312 
L 255.077735 -285.72312 
L 251.510103 -285.72312 
L 247.942471 -285.72312 
L 244.374838 -283.851399 
L 240.807206 -283.617434 
L 237.239574 -283.617434 
L 233.671941 -284.108761 
L 230.104309 -283.617434 
L 226.536676 -281.043817 
L 222.969044 -281.277782 
L 219.401412 -281.043817 
L 215.833779 -279.40606 
L 212.266147 -279.40606 
L 208.698515 -279.40606 
L 205.130882 -279.172095 
L 201.56325 -278.93813 
L 197.995618 -278.704165 
L 194.427985 -277.534339 
L 190.860353 -277.534339 
L 187.29272 -277.534339 
L 183.725088 -276.832443 
L 180.157456 -275.662618 
L 176.589823 -274.726757 
L 173.022191 -274.492792 
L 169.454559 -274.492792 
L 165.886926 -274.024861 
L 162.319294 -273.328815 
L 158.751661 -272.15314 
L 155.184029 -271.451244 
L 151.616397 -270.515383 
L 148.048764 -270.281418 
L 144.481132 -270.047453 
L 140.9135 -270.047453 
L 137.345867 -268.409697 
L 133.778235 -268.649511 
L 130.210603 -267.473836 
L 126.64297 -266.30401 
L 123.075338 -264.900219 
L 119.507705 -261.887917 
L 115.940073 -254.137821 
L 112.372441 -251.798169 
L 108.804808 -248.756621 
L 105.237176 -248.522656 
L 101.669544 -244.545248 
L 98.101911 -239.175747 
L 94.534279 -234.71871 
L 90.966646 -225.594068 
L 87.399014 -218.12473 
L 83.831382 -204.069271 
L 80.263749 -195.178594 
L 76.696117 -169.676389 
L 73.128485 -156.574339 
L 69.560852 -114.694571 
z
" id="m442eaf3645" style="stroke:#1f77b4;stroke-opacity:0.2;"/>
    </defs>
    <g clip-path="url(#pbb4ba1a646)">
     <use style="fill:#1f77b4;fill-opacity:0.2;stroke:#1f77b4;stroke-opacity:0.2;" x="0" xlink:href="#m442eaf3645" y="325.986375"/>
    </g>
   </g>
   <g id="PolyCollection_2">
    <defs>
     <path d="M 69.560852 -97.147182 
L 69.560852 -49.65225 
L 73.128485 -85.448923 
L 76.696117 -114.928536 
L 80.263749 -169.208459 
L 83.831382 -181.842579 
L 87.399014 -195.646525 
L 90.966646 -203.835306 
L 94.534279 -209.216505 
L 98.101911 -210.152366 
L 101.669544 -218.575113 
L 105.237176 -223.956312 
L 108.804808 -223.956312 
L 112.372441 -225.126138 
L 115.940073 -231.653766 
L 119.507705 -236.590432 
L 123.075338 -243.141457 
L 126.64297 -247.586795 
L 130.210603 -248.522656 
L 133.778235 -249.692482 
L 137.345867 -250.160412 
L 140.9135 -251.096273 
L 144.481132 -251.330238 
L 148.048764 -252.032134 
L 151.616397 -253.435925 
L 155.184029 -255.073681 
L 158.751661 -254.605751 
L 162.319294 -255.073681 
L 165.886926 -255.307647 
L 169.454559 -255.775577 
L 173.022191 -256.711438 
L 176.589823 -256.711438 
L 180.157456 -256.945403 
L 183.725088 -256.945403 
L 187.29272 -258.583159 
L 190.860353 -258.349194 
L 194.427985 -258.817124 
L 197.995618 -258.817124 
L 201.56325 -258.817124 
L 205.130882 -259.051089 
L 208.698515 -259.261658 
L 212.266147 -259.285055 
L 215.833779 -259.98695 
L 219.401412 -260.454881 
L 222.969044 -260.688846 
L 226.536676 -260.922811 
L 230.104309 -260.916962 
L 233.671941 -260.922811 
L 237.239574 -260.922811 
L 240.807206 -261.156776 
L 244.374838 -261.624706 
L 247.942471 -261.624706 
L 251.510103 -261.624706 
L 255.077735 -261.624706 
L 258.645368 -262.092637 
L 262.213 -262.092637 
L 265.780632 -262.560567 
L 269.348265 -262.794532 
L 272.915897 -262.794532 
L 276.48353 -262.560567 
L 280.051162 -262.560567 
L 283.618794 -262.092637 
L 287.186427 -262.092637 
L 290.754059 -262.092637 
L 294.321691 -262.092637 
L 297.889324 -262.092637 
L 301.456956 -262.560567 
L 305.024589 -263.028498 
L 308.592221 -263.964358 
L 312.159853 -263.964358 
L 315.727486 -263.964358 
L 319.295118 -263.964358 
L 322.86275 -264.432289 
L 326.430383 -264.900219 
L 329.998015 -264.900219 
L 333.565647 -265.83608 
L 337.13328 -266.30401 
L 340.700912 -266.30401 
L 344.268545 -266.30401 
L 347.836177 -266.30401 
L 351.403809 -266.30401 
L 354.971442 -266.30401 
L 358.539074 -266.771941 
L 362.106706 -266.771941 
L 365.674339 -266.537975 
L 369.241971 -266.537975 
L 372.809604 -267.005906 
L 376.377236 -267.005906 
L 379.944868 -267.005906 
L 383.512501 -267.707801 
L 387.080133 -267.707801 
L 390.647765 -267.239871 
L 394.215398 -267.239871 
L 394.215398 -283.149503 
L 394.215398 -283.149503 
L 390.647765 -284.319329 
L 387.080133 -284.319329 
L 383.512501 -284.331028 
L 379.944868 -284.085364 
L 376.377236 -284.085364 
L 372.809604 -284.553294 
L 369.241971 -284.085364 
L 365.674339 -284.553294 
L 362.106706 -284.553294 
L 358.539074 -284.085364 
L 354.971442 -282.213643 
L 351.403809 -282.213643 
L 347.836177 -282.213643 
L 344.268545 -282.213643 
L 340.700912 -282.213643 
L 337.13328 -282.213643 
L 333.565647 -282.213643 
L 329.998015 -280.809852 
L 326.430383 -280.809852 
L 322.86275 -279.40606 
L 319.295118 -279.40606 
L 315.727486 -279.40606 
L 312.159853 -279.40606 
L 308.592221 -279.40606 
L 305.024589 -278.93813 
L 301.456956 -278.93813 
L 297.889324 -277.534339 
L 294.321691 -277.534339 
L 290.754059 -275.194687 
L 287.186427 -274.726757 
L 283.618794 -274.726757 
L 280.051162 -275.896583 
L 276.48353 -275.662618 
L 272.915897 -276.598478 
L 269.348265 -275.662618 
L 265.780632 -275.428652 
L 262.213 -275.428652 
L 258.645368 -274.738455 
L 255.077735 -275.194687 
L 251.510103 -274.960722 
L 247.942471 -273.322966 
L 244.374838 -273.322966 
L 240.807206 -273.089 
L 237.239574 -273.089 
L 233.671941 -273.089 
L 230.104309 -272.855035 
L 226.536676 -272.62107 
L 222.969044 -272.62107 
L 219.401412 -272.387105 
L 215.833779 -273.790896 
L 212.266147 -272.15314 
L 208.698515 -272.387105 
L 205.130882 -272.387105 
L 201.56325 -272.15314 
L 197.995618 -271.451244 
L 194.427985 -270.749349 
L 190.860353 -268.877627 
L 187.29272 -268.877627 
L 183.725088 -268.877627 
L 180.157456 -267.239871 
L 176.589823 -267.239871 
L 173.022191 -267.239871 
L 169.454559 -267.473836 
L 165.886926 -265.602115 
L 162.319294 -265.368149 
L 158.751661 -265.368149 
L 155.184029 -265.134184 
L 151.616397 -263.496428 
L 148.048764 -263.262463 
L 144.481132 -263.262463 
L 140.9135 -263.028498 
L 137.345867 -262.794532 
L 133.778235 -262.092637 
L 130.210603 -261.624706 
L 126.64297 -258.817124 
L 123.075338 -257.179368 
L 119.507705 -256.711438 
L 115.940073 -255.073681 
L 112.372441 -251.330238 
L 108.804808 -241.503701 
L 105.237176 -236.824397 
L 101.669544 -232.145093 
L 98.101911 -226.529929 
L 94.534279 -222.318556 
L 90.966646 -219.744939 
L 87.399014 -211.790122 
L 83.831382 -201.729619 
L 80.263749 -182.076544 
L 76.696117 -168.974494 
L 73.128485 -126.626795 
L 69.560852 -97.147182 
z
" id="m8dd5410d74" style="stroke:#98df8a;stroke-opacity:0.2;"/>
    </defs>
    <g clip-path="url(#pbb4ba1a646)">
     <use style="fill:#98df8a;fill-opacity:0.2;stroke:#98df8a;stroke-opacity:0.2;" x="0" xlink:href="#m8dd5410d74" y="325.986375"/>
    </g>
   </g>
   <g id="matplotlib.axis_1">
    <g id="xtick_1">
     <g id="line2d_1">
      <defs>
       <path d="M 0 0 
L 0 3.5 
" id="mc6f9ecb373" style="stroke:#000000;stroke-width:0.8;"/>
      </defs>
      <g>
       <use style="stroke:#000000;stroke-width:0.8;" x="69.560852" xlink:href="#mc6f9ecb373" y="288.430125"/>
      </g>
     </g>
     <g id="text_1">
      <!-- 15m -->
      <g transform="translate(58.32804 303.028562)scale(0.1 -0.1)">
       <defs>
        <path d="M 794 531 
L 1825 531 
L 1825 4091 
L 703 3866 
L 703 4441 
L 1819 4666 
L 2450 4666 
L 2450 531 
L 3481 531 
L 3481 0 
L 794 0 
L 794 531 
z
" id="DejaVuSans-31" transform="scale(0.015625)"/>
        <path d="M 691 4666 
L 3169 4666 
L 3169 4134 
L 1269 4134 
L 1269 2991 
Q 1406 3038 1543 3061 
Q 1681 3084 1819 3084 
Q 2600 3084 3056 2656 
Q 3513 2228 3513 1497 
Q 3513 744 3044 326 
Q 2575 -91 1722 -91 
Q 1428 -91 1123 -41 
Q 819 9 494 109 
L 494 744 
Q 775 591 1075 516 
Q 1375 441 1709 441 
Q 2250 441 2565 725 
Q 2881 1009 2881 1497 
Q 2881 1984 2565 2268 
Q 2250 2553 1709 2553 
Q 1456 2553 1204 2497 
Q 953 2441 691 2322 
L 691 4666 
z
" id="DejaVuSans-35" transform="scale(0.015625)"/>
        <path d="M 3328 2828 
Q 3544 3216 3844 3400 
Q 4144 3584 4550 3584 
Q 5097 3584 5394 3201 
Q 5691 2819 5691 2113 
L 5691 0 
L 5113 0 
L 5113 2094 
Q 5113 2597 4934 2840 
Q 4756 3084 4391 3084 
Q 3944 3084 3684 2787 
Q 3425 2491 3425 1978 
L 3425 0 
L 2847 0 
L 2847 2094 
Q 2847 2600 2669 2842 
Q 2491 3084 2119 3084 
Q 1678 3084 1418 2786 
Q 1159 2488 1159 1978 
L 1159 0 
L 581 0 
L 581 3500 
L 1159 3500 
L 1159 2956 
Q 1356 3278 1631 3431 
Q 1906 3584 2284 3584 
Q 2666 3584 2933 3390 
Q 3200 3197 3328 2828 
z
" id="DejaVuSans-6d" transform="scale(0.015625)"/>
       </defs>
       <use xlink:href="#DejaVuSans-31"/>
       <use x="63.623047" xlink:href="#DejaVuSans-35"/>
       <use x="127.246094" xlink:href="#DejaVuSans-6d"/>
      </g>
     </g>
    </g>
    <g id="xtick_2">
     <g id="line2d_2">
      <g>
       <use style="stroke:#000000;stroke-width:0.8;" x="124.264549" xlink:href="#mc6f9ecb373" y="288.430125"/>
      </g>
     </g>
     <g id="text_2">
      <!-- 4h:5m -->
      <g transform="translate(108.178611 303.028562)scale(0.1 -0.1)">
       <defs>
        <path d="M 2419 4116 
L 825 1625 
L 2419 1625 
L 2419 4116 
z
M 2253 4666 
L 3047 4666 
L 3047 1625 
L 3713 1625 
L 3713 1100 
L 3047 1100 
L 3047 0 
L 2419 0 
L 2419 1100 
L 313 1100 
L 313 1709 
L 2253 4666 
z
" id="DejaVuSans-34" transform="scale(0.015625)"/>
        <path d="M 3513 2113 
L 3513 0 
L 2938 0 
L 2938 2094 
Q 2938 2591 2744 2837 
Q 2550 3084 2163 3084 
Q 1697 3084 1428 2787 
Q 1159 2491 1159 1978 
L 1159 0 
L 581 0 
L 581 4863 
L 1159 4863 
L 1159 2956 
Q 1366 3272 1645 3428 
Q 1925 3584 2291 3584 
Q 2894 3584 3203 3211 
Q 3513 2838 3513 2113 
z
" id="DejaVuSans-68" transform="scale(0.015625)"/>
        <path d="M 750 794 
L 1409 794 
L 1409 0 
L 750 0 
L 750 794 
z
M 750 3309 
L 1409 3309 
L 1409 2516 
L 750 2516 
L 750 3309 
z
" id="DejaVuSans-3a" transform="scale(0.015625)"/>
       </defs>
       <use xlink:href="#DejaVuSans-34"/>
       <use x="63.623047" xlink:href="#DejaVuSans-68"/>
       <use x="127.001953" xlink:href="#DejaVuSans-3a"/>
       <use x="160.693359" xlink:href="#DejaVuSans-35"/>
       <use x="224.316406" xlink:href="#DejaVuSans-6d"/>
      </g>
     </g>
    </g>
    <g id="xtick_3">
     <g id="line2d_3">
      <g>
       <use style="stroke:#000000;stroke-width:0.8;" x="178.968245" xlink:href="#mc6f9ecb373" y="288.430125"/>
      </g>
     </g>
     <g id="text_3">
      <!-- 7h:55m -->
      <g transform="translate(159.701057 303.028562)scale(0.1 -0.1)">
       <defs>
        <path d="M 525 4666 
L 3525 4666 
L 3525 4397 
L 1831 0 
L 1172 0 
L 2766 4134 
L 525 4134 
L 525 4666 
z
" id="DejaVuSans-37" transform="scale(0.015625)"/>
       </defs>
       <use xlink:href="#DejaVuSans-37"/>
       <use x="63.623047" xlink:href="#DejaVuSans-68"/>
       <use x="127.001953" xlink:href="#DejaVuSans-3a"/>
       <use x="160.693359" xlink:href="#DejaVuSans-35"/>
       <use x="224.316406" xlink:href="#DejaVuSans-35"/>
       <use x="287.939453" xlink:href="#DejaVuSans-6d"/>
      </g>
     </g>
    </g>
    <g id="xtick_4">
     <g id="line2d_4">
      <g>
       <use style="stroke:#000000;stroke-width:0.8;" x="233.671941" xlink:href="#mc6f9ecb373" y="288.430125"/>
      </g>
     </g>
     <g id="text_4">
      <!-- 11h:45m -->
      <g transform="translate(211.223504 303.028562)scale(0.1 -0.1)">
       <use xlink:href="#DejaVuSans-31"/>
       <use x="63.623047" xlink:href="#DejaVuSans-31"/>
       <use x="127.246094" xlink:href="#DejaVuSans-68"/>
       <use x="190.625" xlink:href="#DejaVuSans-3a"/>
       <use x="224.316406" xlink:href="#DejaVuSans-34"/>
       <use x="287.939453" xlink:href="#DejaVuSans-35"/>
       <use x="351.5625" xlink:href="#DejaVuSans-6d"/>
      </g>
     </g>
    </g>
    <g id="xtick_5">
     <g id="line2d_5">
      <g>
       <use style="stroke:#000000;stroke-width:0.8;" x="288.375637" xlink:href="#mc6f9ecb373" y="288.430125"/>
      </g>
     </g>
     <g id="text_5">
      <!-- 15h:35m -->
      <g transform="translate(265.9272 303.028562)scale(0.1 -0.1)">
       <defs>
        <path d="M 2597 2516 
Q 3050 2419 3304 2112 
Q 3559 1806 3559 1356 
Q 3559 666 3084 287 
Q 2609 -91 1734 -91 
Q 1441 -91 1130 -33 
Q 819 25 488 141 
L 488 750 
Q 750 597 1062 519 
Q 1375 441 1716 441 
Q 2309 441 2620 675 
Q 2931 909 2931 1356 
Q 2931 1769 2642 2001 
Q 2353 2234 1838 2234 
L 1294 2234 
L 1294 2753 
L 1863 2753 
Q 2328 2753 2575 2939 
Q 2822 3125 2822 3475 
Q 2822 3834 2567 4026 
Q 2313 4219 1838 4219 
Q 1578 4219 1281 4162 
Q 984 4106 628 3988 
L 628 4550 
Q 988 4650 1302 4700 
Q 1616 4750 1894 4750 
Q 2613 4750 3031 4423 
Q 3450 4097 3450 3541 
Q 3450 3153 3228 2886 
Q 3006 2619 2597 2516 
z
" id="DejaVuSans-33" transform="scale(0.015625)"/>
       </defs>
       <use xlink:href="#DejaVuSans-31"/>
       <use x="63.623047" xlink:href="#DejaVuSans-35"/>
       <use x="127.246094" xlink:href="#DejaVuSans-68"/>
       <use x="190.625" xlink:href="#DejaVuSans-3a"/>
       <use x="224.316406" xlink:href="#DejaVuSans-33"/>
       <use x="287.939453" xlink:href="#DejaVuSans-35"/>
       <use x="351.5625" xlink:href="#DejaVuSans-6d"/>
      </g>
     </g>
    </g>
    <g id="xtick_6">
     <g id="line2d_6">
      <g>
       <use style="stroke:#000000;stroke-width:0.8;" x="343.079334" xlink:href="#mc6f9ecb373" y="288.430125"/>
      </g>
     </g>
     <g id="text_6">
      <!-- 19h:25m -->
      <g transform="translate(320.630896 303.028562)scale(0.1 -0.1)">
       <defs>
        <path d="M 703 97 
L 703 672 
Q 941 559 1184 500 
Q 1428 441 1663 441 
Q 2288 441 2617 861 
Q 2947 1281 2994 2138 
Q 2813 1869 2534 1725 
Q 2256 1581 1919 1581 
Q 1219 1581 811 2004 
Q 403 2428 403 3163 
Q 403 3881 828 4315 
Q 1253 4750 1959 4750 
Q 2769 4750 3195 4129 
Q 3622 3509 3622 2328 
Q 3622 1225 3098 567 
Q 2575 -91 1691 -91 
Q 1453 -91 1209 -44 
Q 966 3 703 97 
z
M 1959 2075 
Q 2384 2075 2632 2365 
Q 2881 2656 2881 3163 
Q 2881 3666 2632 3958 
Q 2384 4250 1959 4250 
Q 1534 4250 1286 3958 
Q 1038 3666 1038 3163 
Q 1038 2656 1286 2365 
Q 1534 2075 1959 2075 
z
" id="DejaVuSans-39" transform="scale(0.015625)"/>
        <path d="M 1228 531 
L 3431 531 
L 3431 0 
L 469 0 
L 469 531 
Q 828 903 1448 1529 
Q 2069 2156 2228 2338 
Q 2531 2678 2651 2914 
Q 2772 3150 2772 3378 
Q 2772 3750 2511 3984 
Q 2250 4219 1831 4219 
Q 1534 4219 1204 4116 
Q 875 4013 500 3803 
L 500 4441 
Q 881 4594 1212 4672 
Q 1544 4750 1819 4750 
Q 2544 4750 2975 4387 
Q 3406 4025 3406 3419 
Q 3406 3131 3298 2873 
Q 3191 2616 2906 2266 
Q 2828 2175 2409 1742 
Q 1991 1309 1228 531 
z
" id="DejaVuSans-32" transform="scale(0.015625)"/>
       </defs>
       <use xlink:href="#DejaVuSans-31"/>
       <use x="63.623047" xlink:href="#DejaVuSans-39"/>
       <use x="127.246094" xlink:href="#DejaVuSans-68"/>
       <use x="190.625" xlink:href="#DejaVuSans-3a"/>
       <use x="224.316406" xlink:href="#DejaVuSans-32"/>
       <use x="287.939453" xlink:href="#DejaVuSans-35"/>
       <use x="351.5625" xlink:href="#DejaVuSans-6d"/>
      </g>
     </g>
    </g>
    <g id="text_7">
     <!-- Time (hour:minute) -->
     <g transform="translate(183.481094 316.706687)scale(0.1 -0.1)">
      <defs>
       <path d="M -19 4666 
L 3928 4666 
L 3928 4134 
L 2272 4134 
L 2272 0 
L 1638 0 
L 1638 4134 
L -19 4134 
L -19 4666 
z
" id="DejaVuSans-54" transform="scale(0.015625)"/>
       <path d="M 603 3500 
L 1178 3500 
L 1178 0 
L 603 0 
L 603 3500 
z
M 603 4863 
L 1178 4863 
L 1178 4134 
L 603 4134 
L 603 4863 
z
" id="DejaVuSans-69" transform="scale(0.015625)"/>
       <path d="M 3597 1894 
L 3597 1613 
L 953 1613 
Q 991 1019 1311 708 
Q 1631 397 2203 397 
Q 2534 397 2845 478 
Q 3156 559 3463 722 
L 3463 178 
Q 3153 47 2828 -22 
Q 2503 -91 2169 -91 
Q 1331 -91 842 396 
Q 353 884 353 1716 
Q 353 2575 817 3079 
Q 1281 3584 2069 3584 
Q 2775 3584 3186 3129 
Q 3597 2675 3597 1894 
z
M 3022 2063 
Q 3016 2534 2758 2815 
Q 2500 3097 2075 3097 
Q 1594 3097 1305 2825 
Q 1016 2553 972 2059 
L 3022 2063 
z
" id="DejaVuSans-65" transform="scale(0.015625)"/>
       <path id="DejaVuSans-20" transform="scale(0.015625)"/>
       <path d="M 1984 4856 
Q 1566 4138 1362 3434 
Q 1159 2731 1159 2009 
Q 1159 1288 1364 580 
Q 1569 -128 1984 -844 
L 1484 -844 
Q 1016 -109 783 600 
Q 550 1309 550 2009 
Q 550 2706 781 3412 
Q 1013 4119 1484 4856 
L 1984 4856 
z
" id="DejaVuSans-28" transform="scale(0.015625)"/>
       <path d="M 1959 3097 
Q 1497 3097 1228 2736 
Q 959 2375 959 1747 
Q 959 1119 1226 758 
Q 1494 397 1959 397 
Q 2419 397 2687 759 
Q 2956 1122 2956 1747 
Q 2956 2369 2687 2733 
Q 2419 3097 1959 3097 
z
M 1959 3584 
Q 2709 3584 3137 3096 
Q 3566 2609 3566 1747 
Q 3566 888 3137 398 
Q 2709 -91 1959 -91 
Q 1206 -91 779 398 
Q 353 888 353 1747 
Q 353 2609 779 3096 
Q 1206 3584 1959 3584 
z
" id="DejaVuSans-6f" transform="scale(0.015625)"/>
       <path d="M 544 1381 
L 544 3500 
L 1119 3500 
L 1119 1403 
Q 1119 906 1312 657 
Q 1506 409 1894 409 
Q 2359 409 2629 706 
Q 2900 1003 2900 1516 
L 2900 3500 
L 3475 3500 
L 3475 0 
L 2900 0 
L 2900 538 
Q 2691 219 2414 64 
Q 2138 -91 1772 -91 
Q 1169 -91 856 284 
Q 544 659 544 1381 
z
M 1991 3584 
L 1991 3584 
z
" id="DejaVuSans-75" transform="scale(0.015625)"/>
       <path d="M 2631 2963 
Q 2534 3019 2420 3045 
Q 2306 3072 2169 3072 
Q 1681 3072 1420 2755 
Q 1159 2438 1159 1844 
L 1159 0 
L 581 0 
L 581 3500 
L 1159 3500 
L 1159 2956 
Q 1341 3275 1631 3429 
Q 1922 3584 2338 3584 
Q 2397 3584 2469 3576 
Q 2541 3569 2628 3553 
L 2631 2963 
z
" id="DejaVuSans-72" transform="scale(0.015625)"/>
       <path d="M 3513 2113 
L 3513 0 
L 2938 0 
L 2938 2094 
Q 2938 2591 2744 2837 
Q 2550 3084 2163 3084 
Q 1697 3084 1428 2787 
Q 1159 2491 1159 1978 
L 1159 0 
L 581 0 
L 581 3500 
L 1159 3500 
L 1159 2956 
Q 1366 3272 1645 3428 
Q 1925 3584 2291 3584 
Q 2894 3584 3203 3211 
Q 3513 2838 3513 2113 
z
" id="DejaVuSans-6e" transform="scale(0.015625)"/>
       <path d="M 1172 4494 
L 1172 3500 
L 2356 3500 
L 2356 3053 
L 1172 3053 
L 1172 1153 
Q 1172 725 1289 603 
Q 1406 481 1766 481 
L 2356 481 
L 2356 0 
L 1766 0 
Q 1100 0 847 248 
Q 594 497 594 1153 
L 594 3053 
L 172 3053 
L 172 3500 
L 594 3500 
L 594 4494 
L 1172 4494 
z
" id="DejaVuSans-74" transform="scale(0.015625)"/>
       <path d="M 513 4856 
L 1013 4856 
Q 1481 4119 1714 3412 
Q 1947 2706 1947 2009 
Q 1947 1309 1714 600 
Q 1481 -109 1013 -844 
L 513 -844 
Q 928 -128 1133 580 
Q 1338 1288 1338 2009 
Q 1338 2731 1133 3434 
Q 928 4138 513 4856 
z
" id="DejaVuSans-29" transform="scale(0.015625)"/>
      </defs>
      <use xlink:href="#DejaVuSans-54"/>
      <use x="57.958984" xlink:href="#DejaVuSans-69"/>
      <use x="85.742188" xlink:href="#DejaVuSans-6d"/>
      <use x="183.154297" xlink:href="#DejaVuSans-65"/>
      <use x="244.677734" xlink:href="#DejaVuSans-20"/>
      <use x="276.464844" xlink:href="#DejaVuSans-28"/>
      <use x="315.478516" xlink:href="#DejaVuSans-68"/>
      <use x="378.857422" xlink:href="#DejaVuSans-6f"/>
      <use x="440.039062" xlink:href="#DejaVuSans-75"/>
      <use x="503.417969" xlink:href="#DejaVuSans-72"/>
      <use x="542.78125" xlink:href="#DejaVuSans-3a"/>
      <use x="576.472656" xlink:href="#DejaVuSans-6d"/>
      <use x="673.884766" xlink:href="#DejaVuSans-69"/>
      <use x="701.667969" xlink:href="#DejaVuSans-6e"/>
      <use x="765.046875" xlink:href="#DejaVuSans-75"/>
      <use x="828.425781" xlink:href="#DejaVuSans-74"/>
      <use x="867.634766" xlink:href="#DejaVuSans-65"/>
      <use x="929.158203" xlink:href="#DejaVuSans-29"/>
     </g>
    </g>
   </g>
   <g id="matplotlib.axis_2">
    <g id="ytick_1">
     <g id="line2d_7">
      <defs>
       <path d="M 0 0 
L -3.5 0 
" id="m08c64f2893" style="stroke:#000000;stroke-width:0.8;"/>
      </defs>
      <g>
       <use style="stroke:#000000;stroke-width:0.8;" x="53.328125" xlink:href="#m08c64f2893" y="256.213119"/>
      </g>
     </g>
     <g id="text_8">
      <!-- 5100 -->
      <g transform="translate(20.878125 260.012338)scale(0.1 -0.1)">
       <defs>
        <path d="M 2034 4250 
Q 1547 4250 1301 3770 
Q 1056 3291 1056 2328 
Q 1056 1369 1301 889 
Q 1547 409 2034 409 
Q 2525 409 2770 889 
Q 3016 1369 3016 2328 
Q 3016 3291 2770 3770 
Q 2525 4250 2034 4250 
z
M 2034 4750 
Q 2819 4750 3233 4129 
Q 3647 3509 3647 2328 
Q 3647 1150 3233 529 
Q 2819 -91 2034 -91 
Q 1250 -91 836 529 
Q 422 1150 422 2328 
Q 422 3509 836 4129 
Q 1250 4750 2034 4750 
z
" id="DejaVuSans-30" transform="scale(0.015625)"/>
       </defs>
       <use xlink:href="#DejaVuSans-35"/>
       <use x="63.623047" xlink:href="#DejaVuSans-31"/>
       <use x="127.246094" xlink:href="#DejaVuSans-30"/>
       <use x="190.869141" xlink:href="#DejaVuSans-30"/>
      </g>
     </g>
    </g>
    <g id="ytick_2">
     <g id="line2d_8">
      <g>
       <use style="stroke:#000000;stroke-width:0.8;" x="53.328125" xlink:href="#m08c64f2893" y="209.420082"/>
      </g>
     </g>
     <g id="text_9">
      <!-- 5200 -->
      <g transform="translate(20.878125 213.219301)scale(0.1 -0.1)">
       <use xlink:href="#DejaVuSans-35"/>
       <use x="63.623047" xlink:href="#DejaVuSans-32"/>
       <use x="127.246094" xlink:href="#DejaVuSans-30"/>
       <use x="190.869141" xlink:href="#DejaVuSans-30"/>
      </g>
     </g>
    </g>
    <g id="ytick_3">
     <g id="line2d_9">
      <g>
       <use style="stroke:#000000;stroke-width:0.8;" x="53.328125" xlink:href="#m08c64f2893" y="162.627046"/>
      </g>
     </g>
     <g id="text_10">
      <!-- 5300 -->
      <g transform="translate(20.878125 166.426264)scale(0.1 -0.1)">
       <use xlink:href="#DejaVuSans-35"/>
       <use x="63.623047" xlink:href="#DejaVuSans-33"/>
       <use x="127.246094" xlink:href="#DejaVuSans-30"/>
       <use x="190.869141" xlink:href="#DejaVuSans-30"/>
      </g>
     </g>
    </g>
    <g id="ytick_4">
     <g id="line2d_10">
      <g>
       <use style="stroke:#000000;stroke-width:0.8;" x="53.328125" xlink:href="#m08c64f2893" y="115.834009"/>
      </g>
     </g>
     <g id="text_11">
      <!-- 5400 -->
      <g transform="translate(20.878125 119.633228)scale(0.1 -0.1)">
       <use xlink:href="#DejaVuSans-35"/>
       <use x="63.623047" xlink:href="#DejaVuSans-34"/>
       <use x="127.246094" xlink:href="#DejaVuSans-30"/>
       <use x="190.869141" xlink:href="#DejaVuSans-30"/>
      </g>
     </g>
    </g>
    <g id="ytick_5">
     <g id="line2d_11">
      <g>
       <use style="stroke:#000000;stroke-width:0.8;" x="53.328125" xlink:href="#m08c64f2893" y="69.040972"/>
      </g>
     </g>
     <g id="text_12">
      <!-- 5500 -->
      <g transform="translate(20.878125 72.840191)scale(0.1 -0.1)">
       <use xlink:href="#DejaVuSans-35"/>
       <use x="63.623047" xlink:href="#DejaVuSans-35"/>
       <use x="127.246094" xlink:href="#DejaVuSans-30"/>
       <use x="190.869141" xlink:href="#DejaVuSans-30"/>
      </g>
     </g>
    </g>
    <g id="text_13">
     <!-- Code region coverage -->
     <g transform="translate(14.798438 210.379594)rotate(-90)scale(0.1 -0.1)">
      <defs>
       <path d="M 4122 4306 
L 4122 3641 
Q 3803 3938 3442 4084 
Q 3081 4231 2675 4231 
Q 1875 4231 1450 3742 
Q 1025 3253 1025 2328 
Q 1025 1406 1450 917 
Q 1875 428 2675 428 
Q 3081 428 3442 575 
Q 3803 722 4122 1019 
L 4122 359 
Q 3791 134 3420 21 
Q 3050 -91 2638 -91 
Q 1578 -91 968 557 
Q 359 1206 359 2328 
Q 359 3453 968 4101 
Q 1578 4750 2638 4750 
Q 3056 4750 3426 4639 
Q 3797 4528 4122 4306 
z
" id="DejaVuSans-43" transform="scale(0.015625)"/>
       <path d="M 2906 2969 
L 2906 4863 
L 3481 4863 
L 3481 0 
L 2906 0 
L 2906 525 
Q 2725 213 2448 61 
Q 2172 -91 1784 -91 
Q 1150 -91 751 415 
Q 353 922 353 1747 
Q 353 2572 751 3078 
Q 1150 3584 1784 3584 
Q 2172 3584 2448 3432 
Q 2725 3281 2906 2969 
z
M 947 1747 
Q 947 1113 1208 752 
Q 1469 391 1925 391 
Q 2381 391 2643 752 
Q 2906 1113 2906 1747 
Q 2906 2381 2643 2742 
Q 2381 3103 1925 3103 
Q 1469 3103 1208 2742 
Q 947 2381 947 1747 
z
" id="DejaVuSans-64" transform="scale(0.015625)"/>
       <path d="M 2906 1791 
Q 2906 2416 2648 2759 
Q 2391 3103 1925 3103 
Q 1463 3103 1205 2759 
Q 947 2416 947 1791 
Q 947 1169 1205 825 
Q 1463 481 1925 481 
Q 2391 481 2648 825 
Q 2906 1169 2906 1791 
z
M 3481 434 
Q 3481 -459 3084 -895 
Q 2688 -1331 1869 -1331 
Q 1566 -1331 1297 -1286 
Q 1028 -1241 775 -1147 
L 775 -588 
Q 1028 -725 1275 -790 
Q 1522 -856 1778 -856 
Q 2344 -856 2625 -561 
Q 2906 -266 2906 331 
L 2906 616 
Q 2728 306 2450 153 
Q 2172 0 1784 0 
Q 1141 0 747 490 
Q 353 981 353 1791 
Q 353 2603 747 3093 
Q 1141 3584 1784 3584 
Q 2172 3584 2450 3431 
Q 2728 3278 2906 2969 
L 2906 3500 
L 3481 3500 
L 3481 434 
z
" id="DejaVuSans-67" transform="scale(0.015625)"/>
       <path d="M 3122 3366 
L 3122 2828 
Q 2878 2963 2633 3030 
Q 2388 3097 2138 3097 
Q 1578 3097 1268 2742 
Q 959 2388 959 1747 
Q 959 1106 1268 751 
Q 1578 397 2138 397 
Q 2388 397 2633 464 
Q 2878 531 3122 666 
L 3122 134 
Q 2881 22 2623 -34 
Q 2366 -91 2075 -91 
Q 1284 -91 818 406 
Q 353 903 353 1747 
Q 353 2603 823 3093 
Q 1294 3584 2113 3584 
Q 2378 3584 2631 3529 
Q 2884 3475 3122 3366 
z
" id="DejaVuSans-63" transform="scale(0.015625)"/>
       <path d="M 191 3500 
L 800 3500 
L 1894 563 
L 2988 3500 
L 3597 3500 
L 2284 0 
L 1503 0 
L 191 3500 
z
" id="DejaVuSans-76" transform="scale(0.015625)"/>
       <path d="M 2194 1759 
Q 1497 1759 1228 1600 
Q 959 1441 959 1056 
Q 959 750 1161 570 
Q 1363 391 1709 391 
Q 2188 391 2477 730 
Q 2766 1069 2766 1631 
L 2766 1759 
L 2194 1759 
z
M 3341 1997 
L 3341 0 
L 2766 0 
L 2766 531 
Q 2569 213 2275 61 
Q 1981 -91 1556 -91 
Q 1019 -91 701 211 
Q 384 513 384 1019 
Q 384 1609 779 1909 
Q 1175 2209 1959 2209 
L 2766 2209 
L 2766 2266 
Q 2766 2663 2505 2880 
Q 2244 3097 1772 3097 
Q 1472 3097 1187 3025 
Q 903 2953 641 2809 
L 641 3341 
Q 956 3463 1253 3523 
Q 1550 3584 1831 3584 
Q 2591 3584 2966 3190 
Q 3341 2797 3341 1997 
z
" id="DejaVuSans-61" transform="scale(0.015625)"/>
      </defs>
      <use xlink:href="#DejaVuSans-43"/>
      <use x="69.824219" xlink:href="#DejaVuSans-6f"/>
      <use x="131.005859" xlink:href="#DejaVuSans-64"/>
      <use x="194.482422" xlink:href="#DejaVuSans-65"/>
      <use x="256.005859" xlink:href="#DejaVuSans-20"/>
      <use x="287.792969" xlink:href="#DejaVuSans-72"/>
      <use x="326.65625" xlink:href="#DejaVuSans-65"/>
      <use x="388.179688" xlink:href="#DejaVuSans-67"/>
      <use x="451.65625" xlink:href="#DejaVuSans-69"/>
      <use x="479.439453" xlink:href="#DejaVuSans-6f"/>
      <use x="540.621094" xlink:href="#DejaVuSans-6e"/>
      <use x="604" xlink:href="#DejaVuSans-20"/>
      <use x="635.787109" xlink:href="#DejaVuSans-63"/>
      <use x="690.767578" xlink:href="#DejaVuSans-6f"/>
      <use x="751.949219" xlink:href="#DejaVuSans-76"/>
      <use x="811.128906" xlink:href="#DejaVuSans-65"/>
      <use x="872.652344" xlink:href="#DejaVuSans-72"/>
      <use x="913.765625" xlink:href="#DejaVuSans-61"/>
      <use x="975.044922" xlink:href="#DejaVuSans-67"/>
      <use x="1038.521484" xlink:href="#DejaVuSans-65"/>
     </g>
    </g>
   </g>
   <g id="line2d_12">
    <path clip-path="url(#pbb4ba1a646)" d="M 69.560852 236.560044 
L 73.128485 210.823874 
L 76.696117 185.087703 
L 80.263749 152.566543 
L 83.831382 125.426581 
L 87.399014 120.513313 
L 90.966646 110.218845 
L 94.534279 109.282984 
L 98.101911 106.241436 
L 101.669544 98.28662 
L 105.237176 98.28662 
L 108.804808 94.075247 
L 112.372441 88.226117 
L 115.940073 83.546814 
L 119.507705 76.995788 
L 123.075338 70.912694 
L 126.64297 63.425808 
L 130.210603 62.255982 
L 133.778235 60.38426 
L 137.345867 60.150295 
L 140.9135 59.91633 
L 144.481132 60.150295 
L 148.048764 60.150295 
L 151.616397 60.150295 
L 155.184029 59.4484 
L 158.751661 59.214434 
L 162.319294 58.044609 
L 165.886926 57.810643 
L 169.454559 57.810643 
L 173.022191 56.640817 
L 176.589823 56.640817 
L 180.157456 56.406852 
L 183.725088 56.406852 
L 187.29272 56.172887 
L 190.860353 56.172887 
L 194.427985 55.470992 
L 197.995618 55.237026 
L 201.56325 55.003061 
L 205.130882 54.535131 
L 208.698515 54.535131 
L 212.266147 53.59927 
L 215.833779 52.429444 
L 219.401412 52.429444 
L 222.969044 51.727549 
L 226.536676 51.727549 
L 230.104309 51.727549 
L 233.671941 51.727549 
L 237.239574 51.493583 
L 240.807206 51.025653 
L 244.374838 51.025653 
L 247.942471 49.621862 
L 251.510103 49.387897 
L 255.077735 49.387897 
L 258.645368 49.387897 
L 262.213 49.387897 
L 265.780632 49.387897 
L 269.348265 49.153932 
L 272.915897 48.452036 
L 276.48353 47.984106 
L 280.051162 47.75014 
L 283.618794 46.112384 
L 287.186427 46.112384 
L 290.754059 46.112384 
L 294.321691 46.112384 
L 297.889324 46.112384 
L 301.456956 46.112384 
L 305.024589 46.112384 
L 308.592221 46.112384 
L 312.159853 46.112384 
L 315.727486 46.112384 
L 319.295118 46.112384 
L 322.86275 46.112384 
L 326.430383 46.112384 
L 329.998015 46.112384 
L 333.565647 46.112384 
L 337.13328 46.112384 
L 340.700912 46.112384 
L 344.268545 45.644454 
L 347.836177 45.644454 
L 351.403809 44.240663 
L 354.971442 44.240663 
L 358.539074 44.240663 
L 362.106706 44.240663 
L 365.674339 44.240663 
L 369.241971 44.240663 
L 372.809604 44.240663 
L 376.377236 44.240663 
L 379.944868 44.240663 
L 383.512501 44.240663 
L 387.080133 44.240663 
L 390.647765 44.240663 
L 394.215398 44.240663 
" style="fill:none;stroke:#1f77b4;stroke-linecap:square;stroke-width:1.5;"/>
    <defs>
     <path d="M 0 3 
C 0.795609 3 1.55874 2.683901 2.12132 2.12132 
C 2.683901 1.55874 3 0.795609 3 0 
C 3 -0.795609 2.683901 -1.55874 2.12132 -2.12132 
C 1.55874 -2.683901 0.795609 -3 0 -3 
C -0.795609 -3 -1.55874 -2.683901 -2.12132 -2.12132 
C -2.683901 -1.55874 -3 -0.795609 -3 0 
C -3 0.795609 -2.683901 1.55874 -2.12132 2.12132 
C -1.55874 2.683901 -0.795609 3 0 3 
z
" id="mf4bebfedef" style="stroke:#ffffff;stroke-width:0.75;"/>
    </defs>
    <g clip-path="url(#pbb4ba1a646)">
     <use style="fill:#1f77b4;stroke:#ffffff;stroke-width:0.75;" x="69.560852" xlink:href="#mf4bebfedef" y="236.560044"/>
     <use style="fill:#1f77b4;stroke:#ffffff;stroke-width:0.75;" x="73.128485" xlink:href="#mf4bebfedef" y="210.823874"/>
     <use style="fill:#1f77b4;stroke:#ffffff;stroke-width:0.75;" x="76.696117" xlink:href="#mf4bebfedef" y="185.087703"/>
     <use style="fill:#1f77b4;stroke:#ffffff;stroke-width:0.75;" x="80.263749" xlink:href="#mf4bebfedef" y="152.566543"/>
     <use style="fill:#1f77b4;stroke:#ffffff;stroke-width:0.75;" x="83.831382" xlink:href="#mf4bebfedef" y="125.426581"/>
     <use style="fill:#1f77b4;stroke:#ffffff;stroke-width:0.75;" x="87.399014" xlink:href="#mf4bebfedef" y="120.513313"/>
     <use style="fill:#1f77b4;stroke:#ffffff;stroke-width:0.75;" x="90.966646" xlink:href="#mf4bebfedef" y="110.218845"/>
     <use style="fill:#1f77b4;stroke:#ffffff;stroke-width:0.75;" x="94.534279" xlink:href="#mf4bebfedef" y="109.282984"/>
     <use style="fill:#1f77b4;stroke:#ffffff;stroke-width:0.75;" x="98.101911" xlink:href="#mf4bebfedef" y="106.241436"/>
     <use style="fill:#1f77b4;stroke:#ffffff;stroke-width:0.75;" x="101.669544" xlink:href="#mf4bebfedef" y="98.28662"/>
     <use style="fill:#1f77b4;stroke:#ffffff;stroke-width:0.75;" x="105.237176" xlink:href="#mf4bebfedef" y="98.28662"/>
     <use style="fill:#1f77b4;stroke:#ffffff;stroke-width:0.75;" x="108.804808" xlink:href="#mf4bebfedef" y="94.075247"/>
     <use style="fill:#1f77b4;stroke:#ffffff;stroke-width:0.75;" x="112.372441" xlink:href="#mf4bebfedef" y="88.226117"/>
     <use style="fill:#1f77b4;stroke:#ffffff;stroke-width:0.75;" x="115.940073" xlink:href="#mf4bebfedef" y="83.546814"/>
     <use style="fill:#1f77b4;stroke:#ffffff;stroke-width:0.75;" x="119.507705" xlink:href="#mf4bebfedef" y="76.995788"/>
     <use style="fill:#1f77b4;stroke:#ffffff;stroke-width:0.75;" x="123.075338" xlink:href="#mf4bebfedef" y="70.912694"/>
     <use style="fill:#1f77b4;stroke:#ffffff;stroke-width:0.75;" x="126.64297" xlink:href="#mf4bebfedef" y="63.425808"/>
     <use style="fill:#1f77b4;stroke:#ffffff;stroke-width:0.75;" x="130.210603" xlink:href="#mf4bebfedef" y="62.255982"/>
     <use style="fill:#1f77b4;stroke:#ffffff;stroke-width:0.75;" x="133.778235" xlink:href="#mf4bebfedef" y="60.38426"/>
     <use style="fill:#1f77b4;stroke:#ffffff;stroke-width:0.75;" x="137.345867" xlink:href="#mf4bebfedef" y="60.150295"/>
     <use style="fill:#1f77b4;stroke:#ffffff;stroke-width:0.75;" x="140.9135" xlink:href="#mf4bebfedef" y="59.91633"/>
     <use style="fill:#1f77b4;stroke:#ffffff;stroke-width:0.75;" x="144.481132" xlink:href="#mf4bebfedef" y="60.150295"/>
     <use style="fill:#1f77b4;stroke:#ffffff;stroke-width:0.75;" x="148.048764" xlink:href="#mf4bebfedef" y="60.150295"/>
     <use style="fill:#1f77b4;stroke:#ffffff;stroke-width:0.75;" x="151.616397" xlink:href="#mf4bebfedef" y="60.150295"/>
     <use style="fill:#1f77b4;stroke:#ffffff;stroke-width:0.75;" x="155.184029" xlink:href="#mf4bebfedef" y="59.4484"/>
     <use style="fill:#1f77b4;stroke:#ffffff;stroke-width:0.75;" x="158.751661" xlink:href="#mf4bebfedef" y="59.214434"/>
     <use style="fill:#1f77b4;stroke:#ffffff;stroke-width:0.75;" x="162.319294" xlink:href="#mf4bebfedef" y="58.044609"/>
     <use style="fill:#1f77b4;stroke:#ffffff;stroke-width:0.75;" x="165.886926" xlink:href="#mf4bebfedef" y="57.810643"/>
     <use style="fill:#1f77b4;stroke:#ffffff;stroke-width:0.75;" x="169.454559" xlink:href="#mf4bebfedef" y="57.810643"/>
     <use style="fill:#1f77b4;stroke:#ffffff;stroke-width:0.75;" x="173.022191" xlink:href="#mf4bebfedef" y="56.640817"/>
     <use style="fill:#1f77b4;stroke:#ffffff;stroke-width:0.75;" x="176.589823" xlink:href="#mf4bebfedef" y="56.640817"/>
     <use style="fill:#1f77b4;stroke:#ffffff;stroke-width:0.75;" x="180.157456" xlink:href="#mf4bebfedef" y="56.406852"/>
     <use style="fill:#1f77b4;stroke:#ffffff;stroke-width:0.75;" x="183.725088" xlink:href="#mf4bebfedef" y="56.406852"/>
     <use style="fill:#1f77b4;stroke:#ffffff;stroke-width:0.75;" x="187.29272" xlink:href="#mf4bebfedef" y="56.172887"/>
     <use style="fill:#1f77b4;stroke:#ffffff;stroke-width:0.75;" x="190.860353" xlink:href="#mf4bebfedef" y="56.172887"/>
     <use style="fill:#1f77b4;stroke:#ffffff;stroke-width:0.75;" x="194.427985" xlink:href="#mf4bebfedef" y="55.470992"/>
     <use style="fill:#1f77b4;stroke:#ffffff;stroke-width:0.75;" x="197.995618" xlink:href="#mf4bebfedef" y="55.237026"/>
     <use style="fill:#1f77b4;stroke:#ffffff;stroke-width:0.75;" x="201.56325" xlink:href="#mf4bebfedef" y="55.003061"/>
     <use style="fill:#1f77b4;stroke:#ffffff;stroke-width:0.75;" x="205.130882" xlink:href="#mf4bebfedef" y="54.535131"/>
     <use style="fill:#1f77b4;stroke:#ffffff;stroke-width:0.75;" x="208.698515" xlink:href="#mf4bebfedef" y="54.535131"/>
     <use style="fill:#1f77b4;stroke:#ffffff;stroke-width:0.75;" x="212.266147" xlink:href="#mf4bebfedef" y="53.59927"/>
     <use style="fill:#1f77b4;stroke:#ffffff;stroke-width:0.75;" x="215.833779" xlink:href="#mf4bebfedef" y="52.429444"/>
     <use style="fill:#1f77b4;stroke:#ffffff;stroke-width:0.75;" x="219.401412" xlink:href="#mf4bebfedef" y="52.429444"/>
     <use style="fill:#1f77b4;stroke:#ffffff;stroke-width:0.75;" x="222.969044" xlink:href="#mf4bebfedef" y="51.727549"/>
     <use style="fill:#1f77b4;stroke:#ffffff;stroke-width:0.75;" x="226.536676" xlink:href="#mf4bebfedef" y="51.727549"/>
     <use style="fill:#1f77b4;stroke:#ffffff;stroke-width:0.75;" x="230.104309" xlink:href="#mf4bebfedef" y="51.727549"/>
     <use style="fill:#1f77b4;stroke:#ffffff;stroke-width:0.75;" x="233.671941" xlink:href="#mf4bebfedef" y="51.727549"/>
     <use style="fill:#1f77b4;stroke:#ffffff;stroke-width:0.75;" x="237.239574" xlink:href="#mf4bebfedef" y="51.493583"/>
     <use style="fill:#1f77b4;stroke:#ffffff;stroke-width:0.75;" x="240.807206" xlink:href="#mf4bebfedef" y="51.025653"/>
     <use style="fill:#1f77b4;stroke:#ffffff;stroke-width:0.75;" x="244.374838" xlink:href="#mf4bebfedef" y="51.025653"/>
     <use style="fill:#1f77b4;stroke:#ffffff;stroke-width:0.75;" x="247.942471" xlink:href="#mf4bebfedef" y="49.621862"/>
     <use style="fill:#1f77b4;stroke:#ffffff;stroke-width:0.75;" x="251.510103" xlink:href="#mf4bebfedef" y="49.387897"/>
     <use style="fill:#1f77b4;stroke:#ffffff;stroke-width:0.75;" x="255.077735" xlink:href="#mf4bebfedef" y="49.387897"/>
     <use style="fill:#1f77b4;stroke:#ffffff;stroke-width:0.75;" x="258.645368" xlink:href="#mf4bebfedef" y="49.387897"/>
     <use style="fill:#1f77b4;stroke:#ffffff;stroke-width:0.75;" x="262.213" xlink:href="#mf4bebfedef" y="49.387897"/>
     <use style="fill:#1f77b4;stroke:#ffffff;stroke-width:0.75;" x="265.780632" xlink:href="#mf4bebfedef" y="49.387897"/>
     <use style="fill:#1f77b4;stroke:#ffffff;stroke-width:0.75;" x="269.348265" xlink:href="#mf4bebfedef" y="49.153932"/>
     <use style="fill:#1f77b4;stroke:#ffffff;stroke-width:0.75;" x="272.915897" xlink:href="#mf4bebfedef" y="48.452036"/>
     <use style="fill:#1f77b4;stroke:#ffffff;stroke-width:0.75;" x="276.48353" xlink:href="#mf4bebfedef" y="47.984106"/>
     <use style="fill:#1f77b4;stroke:#ffffff;stroke-width:0.75;" x="280.051162" xlink:href="#mf4bebfedef" y="47.75014"/>
     <use style="fill:#1f77b4;stroke:#ffffff;stroke-width:0.75;" x="283.618794" xlink:href="#mf4bebfedef" y="46.112384"/>
     <use style="fill:#1f77b4;stroke:#ffffff;stroke-width:0.75;" x="287.186427" xlink:href="#mf4bebfedef" y="46.112384"/>
     <use style="fill:#1f77b4;stroke:#ffffff;stroke-width:0.75;" x="290.754059" xlink:href="#mf4bebfedef" y="46.112384"/>
     <use style="fill:#1f77b4;stroke:#ffffff;stroke-width:0.75;" x="294.321691" xlink:href="#mf4bebfedef" y="46.112384"/>
     <use style="fill:#1f77b4;stroke:#ffffff;stroke-width:0.75;" x="297.889324" xlink:href="#mf4bebfedef" y="46.112384"/>
     <use style="fill:#1f77b4;stroke:#ffffff;stroke-width:0.75;" x="301.456956" xlink:href="#mf4bebfedef" y="46.112384"/>
     <use style="fill:#1f77b4;stroke:#ffffff;stroke-width:0.75;" x="305.024589" xlink:href="#mf4bebfedef" y="46.112384"/>
     <use style="fill:#1f77b4;stroke:#ffffff;stroke-width:0.75;" x="308.592221" xlink:href="#mf4bebfedef" y="46.112384"/>
     <use style="fill:#1f77b4;stroke:#ffffff;stroke-width:0.75;" x="312.159853" xlink:href="#mf4bebfedef" y="46.112384"/>
     <use style="fill:#1f77b4;stroke:#ffffff;stroke-width:0.75;" x="315.727486" xlink:href="#mf4bebfedef" y="46.112384"/>
     <use style="fill:#1f77b4;stroke:#ffffff;stroke-width:0.75;" x="319.295118" xlink:href="#mf4bebfedef" y="46.112384"/>
     <use style="fill:#1f77b4;stroke:#ffffff;stroke-width:0.75;" x="322.86275" xlink:href="#mf4bebfedef" y="46.112384"/>
     <use style="fill:#1f77b4;stroke:#ffffff;stroke-width:0.75;" x="326.430383" xlink:href="#mf4bebfedef" y="46.112384"/>
     <use style="fill:#1f77b4;stroke:#ffffff;stroke-width:0.75;" x="329.998015" xlink:href="#mf4bebfedef" y="46.112384"/>
     <use style="fill:#1f77b4;stroke:#ffffff;stroke-width:0.75;" x="333.565647" xlink:href="#mf4bebfedef" y="46.112384"/>
     <use style="fill:#1f77b4;stroke:#ffffff;stroke-width:0.75;" x="337.13328" xlink:href="#mf4bebfedef" y="46.112384"/>
     <use style="fill:#1f77b4;stroke:#ffffff;stroke-width:0.75;" x="340.700912" xlink:href="#mf4bebfedef" y="46.112384"/>
     <use style="fill:#1f77b4;stroke:#ffffff;stroke-width:0.75;" x="344.268545" xlink:href="#mf4bebfedef" y="45.644454"/>
     <use style="fill:#1f77b4;stroke:#ffffff;stroke-width:0.75;" x="347.836177" xlink:href="#mf4bebfedef" y="45.644454"/>
     <use style="fill:#1f77b4;stroke:#ffffff;stroke-width:0.75;" x="351.403809" xlink:href="#mf4bebfedef" y="44.240663"/>
     <use style="fill:#1f77b4;stroke:#ffffff;stroke-width:0.75;" x="354.971442" xlink:href="#mf4bebfedef" y="44.240663"/>
     <use style="fill:#1f77b4;stroke:#ffffff;stroke-width:0.75;" x="358.539074" xlink:href="#mf4bebfedef" y="44.240663"/>
     <use style="fill:#1f77b4;stroke:#ffffff;stroke-width:0.75;" x="362.106706" xlink:href="#mf4bebfedef" y="44.240663"/>
     <use style="fill:#1f77b4;stroke:#ffffff;stroke-width:0.75;" x="365.674339" xlink:href="#mf4bebfedef" y="44.240663"/>
     <use style="fill:#1f77b4;stroke:#ffffff;stroke-width:0.75;" x="369.241971" xlink:href="#mf4bebfedef" y="44.240663"/>
     <use style="fill:#1f77b4;stroke:#ffffff;stroke-width:0.75;" x="372.809604" xlink:href="#mf4bebfedef" y="44.240663"/>
     <use style="fill:#1f77b4;stroke:#ffffff;stroke-width:0.75;" x="376.377236" xlink:href="#mf4bebfedef" y="44.240663"/>
     <use style="fill:#1f77b4;stroke:#ffffff;stroke-width:0.75;" x="379.944868" xlink:href="#mf4bebfedef" y="44.240663"/>
     <use style="fill:#1f77b4;stroke:#ffffff;stroke-width:0.75;" x="383.512501" xlink:href="#mf4bebfedef" y="44.240663"/>
     <use style="fill:#1f77b4;stroke:#ffffff;stroke-width:0.75;" x="387.080133" xlink:href="#mf4bebfedef" y="44.240663"/>
     <use style="fill:#1f77b4;stroke:#ffffff;stroke-width:0.75;" x="390.647765" xlink:href="#mf4bebfedef" y="44.240663"/>
     <use style="fill:#1f77b4;stroke:#ffffff;stroke-width:0.75;" x="394.215398" xlink:href="#mf4bebfedef" y="44.240663"/>
    </g>
   </g>
   <g id="line2d_13">
    <path clip-path="url(#pbb4ba1a646)" d="M 69.560852 254.341398 
L 73.128485 211.057839 
L 76.696117 176.197026 
L 80.263749 152.332578 
L 83.831382 137.358806 
L 87.399014 122.385034 
L 90.966646 113.962287 
L 94.534279 111.38867 
L 98.101911 104.369715 
L 101.669544 102.264028 
L 105.237176 95.713003 
L 108.804808 91.50163 
L 112.372441 87.056291 
L 115.940073 85.418535 
L 119.507705 81.909057 
L 123.075338 74.890102 
L 126.64297 73.720276 
L 130.210603 73.486311 
L 133.778235 72.316485 
L 137.345867 72.08252 
L 140.9135 71.614589 
L 144.481132 70.678728 
L 148.048764 70.444763 
L 151.616397 69.742868 
L 155.184029 68.807007 
L 158.751661 68.807007 
L 162.319294 68.573042 
L 165.886926 68.105111 
L 169.454559 67.871146 
L 173.022191 66.467355 
L 176.589823 66.70132 
L 180.157456 65.76546 
L 183.725088 65.297529 
L 187.29272 65.063564 
L 190.860353 65.063564 
L 194.427985 63.659773 
L 197.995618 62.957877 
L 201.56325 62.957877 
L 205.130882 62.957877 
L 208.698515 62.489947 
L 212.266147 62.489947 
L 215.833779 61.320121 
L 219.401412 61.320121 
L 222.969044 61.320121 
L 226.536676 61.320121 
L 230.104309 60.852191 
L 233.671941 60.852191 
L 237.239574 60.618226 
L 240.807206 59.91633 
L 244.374838 59.91633 
L 247.942471 59.91633 
L 251.510103 59.91633 
L 255.077735 59.91633 
L 258.645368 58.980469 
L 262.213 58.512539 
L 265.780632 58.044609 
L 269.348265 58.044609 
L 272.915897 58.044609 
L 276.48353 57.576678 
L 280.051162 57.108748 
L 283.618794 58.746504 
L 287.186427 58.746504 
L 290.754059 58.746504 
L 294.321691 58.746504 
L 297.889324 58.278574 
L 301.456956 58.278574 
L 305.024589 57.810643 
L 308.592221 56.874783 
L 312.159853 56.874783 
L 315.727486 56.874783 
L 319.295118 56.874783 
L 322.86275 55.470992 
L 326.430383 55.938922 
L 329.998015 55.470992 
L 333.565647 55.470992 
L 337.13328 55.470992 
L 340.700912 55.470992 
L 344.268545 54.535131 
L 347.836177 54.0672 
L 351.403809 54.0672 
L 354.971442 54.0672 
L 358.539074 53.833235 
L 362.106706 53.833235 
L 365.674339 53.833235 
L 369.241971 53.833235 
L 372.809604 53.833235 
L 376.377236 53.833235 
L 379.944868 53.833235 
L 383.512501 53.59927 
L 387.080133 53.59927 
L 390.647765 53.59927 
L 394.215398 53.365305 
" style="fill:none;stroke:#98df8a;stroke-linecap:square;stroke-width:1.5;"/>
    <defs>
     <path d="M -0 3 
L 3 -3 
L -3 -3 
z
" id="m36f706573c" style="stroke:#ffffff;stroke-linejoin:miter;stroke-width:0.75;"/>
    </defs>
    <g clip-path="url(#pbb4ba1a646)">
     <use style="fill:#98df8a;stroke:#ffffff;stroke-linejoin:miter;stroke-width:0.75;" x="69.560852" xlink:href="#m36f706573c" y="254.341398"/>
     <use style="fill:#98df8a;stroke:#ffffff;stroke-linejoin:miter;stroke-width:0.75;" x="73.128485" xlink:href="#m36f706573c" y="211.057839"/>
     <use style="fill:#98df8a;stroke:#ffffff;stroke-linejoin:miter;stroke-width:0.75;" x="76.696117" xlink:href="#m36f706573c" y="176.197026"/>
     <use style="fill:#98df8a;stroke:#ffffff;stroke-linejoin:miter;stroke-width:0.75;" x="80.263749" xlink:href="#m36f706573c" y="152.332578"/>
     <use style="fill:#98df8a;stroke:#ffffff;stroke-linejoin:miter;stroke-width:0.75;" x="83.831382" xlink:href="#m36f706573c" y="137.358806"/>
     <use style="fill:#98df8a;stroke:#ffffff;stroke-linejoin:miter;stroke-width:0.75;" x="87.399014" xlink:href="#m36f706573c" y="122.385034"/>
     <use style="fill:#98df8a;stroke:#ffffff;stroke-linejoin:miter;stroke-width:0.75;" x="90.966646" xlink:href="#m36f706573c" y="113.962287"/>
     <use style="fill:#98df8a;stroke:#ffffff;stroke-linejoin:miter;stroke-width:0.75;" x="94.534279" xlink:href="#m36f706573c" y="111.38867"/>
     <use style="fill:#98df8a;stroke:#ffffff;stroke-linejoin:miter;stroke-width:0.75;" x="98.101911" xlink:href="#m36f706573c" y="104.369715"/>
     <use style="fill:#98df8a;stroke:#ffffff;stroke-linejoin:miter;stroke-width:0.75;" x="101.669544" xlink:href="#m36f706573c" y="102.264028"/>
     <use style="fill:#98df8a;stroke:#ffffff;stroke-linejoin:miter;stroke-width:0.75;" x="105.237176" xlink:href="#m36f706573c" y="95.713003"/>
     <use style="fill:#98df8a;stroke:#ffffff;stroke-linejoin:miter;stroke-width:0.75;" x="108.804808" xlink:href="#m36f706573c" y="91.50163"/>
     <use style="fill:#98df8a;stroke:#ffffff;stroke-linejoin:miter;stroke-width:0.75;" x="112.372441" xlink:href="#m36f706573c" y="87.056291"/>
     <use style="fill:#98df8a;stroke:#ffffff;stroke-linejoin:miter;stroke-width:0.75;" x="115.940073" xlink:href="#m36f706573c" y="85.418535"/>
     <use style="fill:#98df8a;stroke:#ffffff;stroke-linejoin:miter;stroke-width:0.75;" x="119.507705" xlink:href="#m36f706573c" y="81.909057"/>
     <use style="fill:#98df8a;stroke:#ffffff;stroke-linejoin:miter;stroke-width:0.75;" x="123.075338" xlink:href="#m36f706573c" y="74.890102"/>
     <use style="fill:#98df8a;stroke:#ffffff;stroke-linejoin:miter;stroke-width:0.75;" x="126.64297" xlink:href="#m36f706573c" y="73.720276"/>
     <use style="fill:#98df8a;stroke:#ffffff;stroke-linejoin:miter;stroke-width:0.75;" x="130.210603" xlink:href="#m36f706573c" y="73.486311"/>
     <use style="fill:#98df8a;stroke:#ffffff;stroke-linejoin:miter;stroke-width:0.75;" x="133.778235" xlink:href="#m36f706573c" y="72.316485"/>
     <use style="fill:#98df8a;stroke:#ffffff;stroke-linejoin:miter;stroke-width:0.75;" x="137.345867" xlink:href="#m36f706573c" y="72.08252"/>
     <use style="fill:#98df8a;stroke:#ffffff;stroke-linejoin:miter;stroke-width:0.75;" x="140.9135" xlink:href="#m36f706573c" y="71.614589"/>
     <use style="fill:#98df8a;stroke:#ffffff;stroke-linejoin:miter;stroke-width:0.75;" x="144.481132" xlink:href="#m36f706573c" y="70.678728"/>
     <use style="fill:#98df8a;stroke:#ffffff;stroke-linejoin:miter;stroke-width:0.75;" x="148.048764" xlink:href="#m36f706573c" y="70.444763"/>
     <use style="fill:#98df8a;stroke:#ffffff;stroke-linejoin:miter;stroke-width:0.75;" x="151.616397" xlink:href="#m36f706573c" y="69.742868"/>
     <use style="fill:#98df8a;stroke:#ffffff;stroke-linejoin:miter;stroke-width:0.75;" x="155.184029" xlink:href="#m36f706573c" y="68.807007"/>
     <use style="fill:#98df8a;stroke:#ffffff;stroke-linejoin:miter;stroke-width:0.75;" x="158.751661" xlink:href="#m36f706573c" y="68.807007"/>
     <use style="fill:#98df8a;stroke:#ffffff;stroke-linejoin:miter;stroke-width:0.75;" x="162.319294" xlink:href="#m36f706573c" y="68.573042"/>
     <use style="fill:#98df8a;stroke:#ffffff;stroke-linejoin:miter;stroke-width:0.75;" x="165.886926" xlink:href="#m36f706573c" y="68.105111"/>
     <use style="fill:#98df8a;stroke:#ffffff;stroke-linejoin:miter;stroke-width:0.75;" x="169.454559" xlink:href="#m36f706573c" y="67.871146"/>
     <use style="fill:#98df8a;stroke:#ffffff;stroke-linejoin:miter;stroke-width:0.75;" x="173.022191" xlink:href="#m36f706573c" y="66.467355"/>
     <use style="fill:#98df8a;stroke:#ffffff;stroke-linejoin:miter;stroke-width:0.75;" x="176.589823" xlink:href="#m36f706573c" y="66.70132"/>
     <use style="fill:#98df8a;stroke:#ffffff;stroke-linejoin:miter;stroke-width:0.75;" x="180.157456" xlink:href="#m36f706573c" y="65.76546"/>
     <use style="fill:#98df8a;stroke:#ffffff;stroke-linejoin:miter;stroke-width:0.75;" x="183.725088" xlink:href="#m36f706573c" y="65.297529"/>
     <use style="fill:#98df8a;stroke:#ffffff;stroke-linejoin:miter;stroke-width:0.75;" x="187.29272" xlink:href="#m36f706573c" y="65.063564"/>
     <use style="fill:#98df8a;stroke:#ffffff;stroke-linejoin:miter;stroke-width:0.75;" x="190.860353" xlink:href="#m36f706573c" y="65.063564"/>
     <use style="fill:#98df8a;stroke:#ffffff;stroke-linejoin:miter;stroke-width:0.75;" x="194.427985" xlink:href="#m36f706573c" y="63.659773"/>
     <use style="fill:#98df8a;stroke:#ffffff;stroke-linejoin:miter;stroke-width:0.75;" x="197.995618" xlink:href="#m36f706573c" y="62.957877"/>
     <use style="fill:#98df8a;stroke:#ffffff;stroke-linejoin:miter;stroke-width:0.75;" x="201.56325" xlink:href="#m36f706573c" y="62.957877"/>
     <use style="fill:#98df8a;stroke:#ffffff;stroke-linejoin:miter;stroke-width:0.75;" x="205.130882" xlink:href="#m36f706573c" y="62.957877"/>
     <use style="fill:#98df8a;stroke:#ffffff;stroke-linejoin:miter;stroke-width:0.75;" x="208.698515" xlink:href="#m36f706573c" y="62.489947"/>
     <use style="fill:#98df8a;stroke:#ffffff;stroke-linejoin:miter;stroke-width:0.75;" x="212.266147" xlink:href="#m36f706573c" y="62.489947"/>
     <use style="fill:#98df8a;stroke:#ffffff;stroke-linejoin:miter;stroke-width:0.75;" x="215.833779" xlink:href="#m36f706573c" y="61.320121"/>
     <use style="fill:#98df8a;stroke:#ffffff;stroke-linejoin:miter;stroke-width:0.75;" x="219.401412" xlink:href="#m36f706573c" y="61.320121"/>
     <use style="fill:#98df8a;stroke:#ffffff;stroke-linejoin:miter;stroke-width:0.75;" x="222.969044" xlink:href="#m36f706573c" y="61.320121"/>
     <use style="fill:#98df8a;stroke:#ffffff;stroke-linejoin:miter;stroke-width:0.75;" x="226.536676" xlink:href="#m36f706573c" y="61.320121"/>
     <use style="fill:#98df8a;stroke:#ffffff;stroke-linejoin:miter;stroke-width:0.75;" x="230.104309" xlink:href="#m36f706573c" y="60.852191"/>
     <use style="fill:#98df8a;stroke:#ffffff;stroke-linejoin:miter;stroke-width:0.75;" x="233.671941" xlink:href="#m36f706573c" y="60.852191"/>
     <use style="fill:#98df8a;stroke:#ffffff;stroke-linejoin:miter;stroke-width:0.75;" x="237.239574" xlink:href="#m36f706573c" y="60.618226"/>
     <use style="fill:#98df8a;stroke:#ffffff;stroke-linejoin:miter;stroke-width:0.75;" x="240.807206" xlink:href="#m36f706573c" y="59.91633"/>
     <use style="fill:#98df8a;stroke:#ffffff;stroke-linejoin:miter;stroke-width:0.75;" x="244.374838" xlink:href="#m36f706573c" y="59.91633"/>
     <use style="fill:#98df8a;stroke:#ffffff;stroke-linejoin:miter;stroke-width:0.75;" x="247.942471" xlink:href="#m36f706573c" y="59.91633"/>
     <use style="fill:#98df8a;stroke:#ffffff;stroke-linejoin:miter;stroke-width:0.75;" x="251.510103" xlink:href="#m36f706573c" y="59.91633"/>
     <use style="fill:#98df8a;stroke:#ffffff;stroke-linejoin:miter;stroke-width:0.75;" x="255.077735" xlink:href="#m36f706573c" y="59.91633"/>
     <use style="fill:#98df8a;stroke:#ffffff;stroke-linejoin:miter;stroke-width:0.75;" x="258.645368" xlink:href="#m36f706573c" y="58.980469"/>
     <use style="fill:#98df8a;stroke:#ffffff;stroke-linejoin:miter;stroke-width:0.75;" x="262.213" xlink:href="#m36f706573c" y="58.512539"/>
     <use style="fill:#98df8a;stroke:#ffffff;stroke-linejoin:miter;stroke-width:0.75;" x="265.780632" xlink:href="#m36f706573c" y="58.044609"/>
     <use style="fill:#98df8a;stroke:#ffffff;stroke-linejoin:miter;stroke-width:0.75;" x="269.348265" xlink:href="#m36f706573c" y="58.044609"/>
     <use style="fill:#98df8a;stroke:#ffffff;stroke-linejoin:miter;stroke-width:0.75;" x="272.915897" xlink:href="#m36f706573c" y="58.044609"/>
     <use style="fill:#98df8a;stroke:#ffffff;stroke-linejoin:miter;stroke-width:0.75;" x="276.48353" xlink:href="#m36f706573c" y="57.576678"/>
     <use style="fill:#98df8a;stroke:#ffffff;stroke-linejoin:miter;stroke-width:0.75;" x="280.051162" xlink:href="#m36f706573c" y="57.108748"/>
     <use style="fill:#98df8a;stroke:#ffffff;stroke-linejoin:miter;stroke-width:0.75;" x="283.618794" xlink:href="#m36f706573c" y="58.746504"/>
     <use style="fill:#98df8a;stroke:#ffffff;stroke-linejoin:miter;stroke-width:0.75;" x="287.186427" xlink:href="#m36f706573c" y="58.746504"/>
     <use style="fill:#98df8a;stroke:#ffffff;stroke-linejoin:miter;stroke-width:0.75;" x="290.754059" xlink:href="#m36f706573c" y="58.746504"/>
     <use style="fill:#98df8a;stroke:#ffffff;stroke-linejoin:miter;stroke-width:0.75;" x="294.321691" xlink:href="#m36f706573c" y="58.746504"/>
     <use style="fill:#98df8a;stroke:#ffffff;stroke-linejoin:miter;stroke-width:0.75;" x="297.889324" xlink:href="#m36f706573c" y="58.278574"/>
     <use style="fill:#98df8a;stroke:#ffffff;stroke-linejoin:miter;stroke-width:0.75;" x="301.456956" xlink:href="#m36f706573c" y="58.278574"/>
     <use style="fill:#98df8a;stroke:#ffffff;stroke-linejoin:miter;stroke-width:0.75;" x="305.024589" xlink:href="#m36f706573c" y="57.810643"/>
     <use style="fill:#98df8a;stroke:#ffffff;stroke-linejoin:miter;stroke-width:0.75;" x="308.592221" xlink:href="#m36f706573c" y="56.874783"/>
     <use style="fill:#98df8a;stroke:#ffffff;stroke-linejoin:miter;stroke-width:0.75;" x="312.159853" xlink:href="#m36f706573c" y="56.874783"/>
     <use style="fill:#98df8a;stroke:#ffffff;stroke-linejoin:miter;stroke-width:0.75;" x="315.727486" xlink:href="#m36f706573c" y="56.874783"/>
     <use style="fill:#98df8a;stroke:#ffffff;stroke-linejoin:miter;stroke-width:0.75;" x="319.295118" xlink:href="#m36f706573c" y="56.874783"/>
     <use style="fill:#98df8a;stroke:#ffffff;stroke-linejoin:miter;stroke-width:0.75;" x="322.86275" xlink:href="#m36f706573c" y="55.470992"/>
     <use style="fill:#98df8a;stroke:#ffffff;stroke-linejoin:miter;stroke-width:0.75;" x="326.430383" xlink:href="#m36f706573c" y="55.938922"/>
     <use style="fill:#98df8a;stroke:#ffffff;stroke-linejoin:miter;stroke-width:0.75;" x="329.998015" xlink:href="#m36f706573c" y="55.470992"/>
     <use style="fill:#98df8a;stroke:#ffffff;stroke-linejoin:miter;stroke-width:0.75;" x="333.565647" xlink:href="#m36f706573c" y="55.470992"/>
     <use style="fill:#98df8a;stroke:#ffffff;stroke-linejoin:miter;stroke-width:0.75;" x="337.13328" xlink:href="#m36f706573c" y="55.470992"/>
     <use style="fill:#98df8a;stroke:#ffffff;stroke-linejoin:miter;stroke-width:0.75;" x="340.700912" xlink:href="#m36f706573c" y="55.470992"/>
     <use style="fill:#98df8a;stroke:#ffffff;stroke-linejoin:miter;stroke-width:0.75;" x="344.268545" xlink:href="#m36f706573c" y="54.535131"/>
     <use style="fill:#98df8a;stroke:#ffffff;stroke-linejoin:miter;stroke-width:0.75;" x="347.836177" xlink:href="#m36f706573c" y="54.0672"/>
     <use style="fill:#98df8a;stroke:#ffffff;stroke-linejoin:miter;stroke-width:0.75;" x="351.403809" xlink:href="#m36f706573c" y="54.0672"/>
     <use style="fill:#98df8a;stroke:#ffffff;stroke-linejoin:miter;stroke-width:0.75;" x="354.971442" xlink:href="#m36f706573c" y="54.0672"/>
     <use style="fill:#98df8a;stroke:#ffffff;stroke-linejoin:miter;stroke-width:0.75;" x="358.539074" xlink:href="#m36f706573c" y="53.833235"/>
     <use style="fill:#98df8a;stroke:#ffffff;stroke-linejoin:miter;stroke-width:0.75;" x="362.106706" xlink:href="#m36f706573c" y="53.833235"/>
     <use style="fill:#98df8a;stroke:#ffffff;stroke-linejoin:miter;stroke-width:0.75;" x="365.674339" xlink:href="#m36f706573c" y="53.833235"/>
     <use style="fill:#98df8a;stroke:#ffffff;stroke-linejoin:miter;stroke-width:0.75;" x="369.241971" xlink:href="#m36f706573c" y="53.833235"/>
     <use style="fill:#98df8a;stroke:#ffffff;stroke-linejoin:miter;stroke-width:0.75;" x="372.809604" xlink:href="#m36f706573c" y="53.833235"/>
     <use style="fill:#98df8a;stroke:#ffffff;stroke-linejoin:miter;stroke-width:0.75;" x="376.377236" xlink:href="#m36f706573c" y="53.833235"/>
     <use style="fill:#98df8a;stroke:#ffffff;stroke-linejoin:miter;stroke-width:0.75;" x="379.944868" xlink:href="#m36f706573c" y="53.833235"/>
     <use style="fill:#98df8a;stroke:#ffffff;stroke-linejoin:miter;stroke-width:0.75;" x="383.512501" xlink:href="#m36f706573c" y="53.59927"/>
     <use style="fill:#98df8a;stroke:#ffffff;stroke-linejoin:miter;stroke-width:0.75;" x="387.080133" xlink:href="#m36f706573c" y="53.59927"/>
     <use style="fill:#98df8a;stroke:#ffffff;stroke-linejoin:miter;stroke-width:0.75;" x="390.647765" xlink:href="#m36f706573c" y="53.59927"/>
     <use style="fill:#98df8a;stroke:#ffffff;stroke-linejoin:miter;stroke-width:0.75;" x="394.215398" xlink:href="#m36f706573c" y="53.365305"/>
    </g>
   </g>
   <g id="line2d_14"/>
   <g id="line2d_15"/>
   <g id="patch_3">
    <path d="M 53.328125 256.213119 
L 53.328125 69.040972 
" style="fill:none;stroke:#000000;stroke-linecap:square;stroke-linejoin:miter;stroke-width:0.8;"/>
   </g>
   <g id="patch_4">
    <path d="M 69.560852 288.430125 
L 343.079334 288.430125 
" style="fill:none;stroke:#000000;stroke-linecap:square;stroke-linejoin:miter;stroke-width:0.8;"/>
   </g>
   <g id="text_14">
    <!-- grok_grk_decompress_fuzzer (23h, 18 trials/fuzzer) -->
    <g transform="translate(78.351875 16.318125)scale(0.12 -0.12)">
     <defs>
      <path d="M 581 4863 
L 1159 4863 
L 1159 1991 
L 2875 3500 
L 3609 3500 
L 1753 1863 
L 3688 0 
L 2938 0 
L 1159 1709 
L 1159 0 
L 581 0 
L 581 4863 
z
" id="DejaVuSans-6b" transform="scale(0.015625)"/>
      <path d="M 3263 -1063 
L 3263 -1509 
L -63 -1509 
L -63 -1063 
L 3263 -1063 
z
" id="DejaVuSans-5f" transform="scale(0.015625)"/>
      <path d="M 1159 525 
L 1159 -1331 
L 581 -1331 
L 581 3500 
L 1159 3500 
L 1159 2969 
Q 1341 3281 1617 3432 
Q 1894 3584 2278 3584 
Q 2916 3584 3314 3078 
Q 3713 2572 3713 1747 
Q 3713 922 3314 415 
Q 2916 -91 2278 -91 
Q 1894 -91 1617 61 
Q 1341 213 1159 525 
z
M 3116 1747 
Q 3116 2381 2855 2742 
Q 2594 3103 2138 3103 
Q 1681 3103 1420 2742 
Q 1159 2381 1159 1747 
Q 1159 1113 1420 752 
Q 1681 391 2138 391 
Q 2594 391 2855 752 
Q 3116 1113 3116 1747 
z
" id="DejaVuSans-70" transform="scale(0.015625)"/>
      <path d="M 2834 3397 
L 2834 2853 
Q 2591 2978 2328 3040 
Q 2066 3103 1784 3103 
Q 1356 3103 1142 2972 
Q 928 2841 928 2578 
Q 928 2378 1081 2264 
Q 1234 2150 1697 2047 
L 1894 2003 
Q 2506 1872 2764 1633 
Q 3022 1394 3022 966 
Q 3022 478 2636 193 
Q 2250 -91 1575 -91 
Q 1294 -91 989 -36 
Q 684 19 347 128 
L 347 722 
Q 666 556 975 473 
Q 1284 391 1588 391 
Q 1994 391 2212 530 
Q 2431 669 2431 922 
Q 2431 1156 2273 1281 
Q 2116 1406 1581 1522 
L 1381 1569 
Q 847 1681 609 1914 
Q 372 2147 372 2553 
Q 372 3047 722 3315 
Q 1072 3584 1716 3584 
Q 2034 3584 2315 3537 
Q 2597 3491 2834 3397 
z
" id="DejaVuSans-73" transform="scale(0.015625)"/>
      <path d="M 2375 4863 
L 2375 4384 
L 1825 4384 
Q 1516 4384 1395 4259 
Q 1275 4134 1275 3809 
L 1275 3500 
L 2222 3500 
L 2222 3053 
L 1275 3053 
L 1275 0 
L 697 0 
L 697 3053 
L 147 3053 
L 147 3500 
L 697 3500 
L 697 3744 
Q 697 4328 969 4595 
Q 1241 4863 1831 4863 
L 2375 4863 
z
" id="DejaVuSans-66" transform="scale(0.015625)"/>
      <path d="M 353 3500 
L 3084 3500 
L 3084 2975 
L 922 459 
L 3084 459 
L 3084 0 
L 275 0 
L 275 525 
L 2438 3041 
L 353 3041 
L 353 3500 
z
" id="DejaVuSans-7a" transform="scale(0.015625)"/>
      <path d="M 750 794 
L 1409 794 
L 1409 256 
L 897 -744 
L 494 -744 
L 750 256 
L 750 794 
z
" id="DejaVuSans-2c" transform="scale(0.015625)"/>
      <path d="M 2034 2216 
Q 1584 2216 1326 1975 
Q 1069 1734 1069 1313 
Q 1069 891 1326 650 
Q 1584 409 2034 409 
Q 2484 409 2743 651 
Q 3003 894 3003 1313 
Q 3003 1734 2745 1975 
Q 2488 2216 2034 2216 
z
M 1403 2484 
Q 997 2584 770 2862 
Q 544 3141 544 3541 
Q 544 4100 942 4425 
Q 1341 4750 2034 4750 
Q 2731 4750 3128 4425 
Q 3525 4100 3525 3541 
Q 3525 3141 3298 2862 
Q 3072 2584 2669 2484 
Q 3125 2378 3379 2068 
Q 3634 1759 3634 1313 
Q 3634 634 3220 271 
Q 2806 -91 2034 -91 
Q 1263 -91 848 271 
Q 434 634 434 1313 
Q 434 1759 690 2068 
Q 947 2378 1403 2484 
z
M 1172 3481 
Q 1172 3119 1398 2916 
Q 1625 2713 2034 2713 
Q 2441 2713 2670 2916 
Q 2900 3119 2900 3481 
Q 2900 3844 2670 4047 
Q 2441 4250 2034 4250 
Q 1625 4250 1398 4047 
Q 1172 3844 1172 3481 
z
" id="DejaVuSans-38" transform="scale(0.015625)"/>
      <path d="M 603 4863 
L 1178 4863 
L 1178 0 
L 603 0 
L 603 4863 
z
" id="DejaVuSans-6c" transform="scale(0.015625)"/>
      <path d="M 1625 4666 
L 2156 4666 
L 531 -594 
L 0 -594 
L 1625 4666 
z
" id="DejaVuSans-2f" transform="scale(0.015625)"/>
     </defs>
     <use xlink:href="#DejaVuSans-67"/>
     <use x="63.476562" xlink:href="#DejaVuSans-72"/>
     <use x="102.339844" xlink:href="#DejaVuSans-6f"/>
     <use x="163.521484" xlink:href="#DejaVuSans-6b"/>
     <use x="221.431641" xlink:href="#DejaVuSans-5f"/>
     <use x="271.431641" xlink:href="#DejaVuSans-67"/>
     <use x="334.908203" xlink:href="#DejaVuSans-72"/>
     <use x="376.021484" xlink:href="#DejaVuSans-6b"/>
     <use x="433.931641" xlink:href="#DejaVuSans-5f"/>
     <use x="483.931641" xlink:href="#DejaVuSans-64"/>
     <use x="547.408203" xlink:href="#DejaVuSans-65"/>
     <use x="608.931641" xlink:href="#DejaVuSans-63"/>
     <use x="663.912109" xlink:href="#DejaVuSans-6f"/>
     <use x="725.09375" xlink:href="#DejaVuSans-6d"/>
     <use x="822.505859" xlink:href="#DejaVuSans-70"/>
     <use x="885.982422" xlink:href="#DejaVuSans-72"/>
     <use x="924.845703" xlink:href="#DejaVuSans-65"/>
     <use x="986.369141" xlink:href="#DejaVuSans-73"/>
     <use x="1038.46875" xlink:href="#DejaVuSans-73"/>
     <use x="1090.568359" xlink:href="#DejaVuSans-5f"/>
     <use x="1140.568359" xlink:href="#DejaVuSans-66"/>
     <use x="1175.773438" xlink:href="#DejaVuSans-75"/>
     <use x="1239.152344" xlink:href="#DejaVuSans-7a"/>
     <use x="1291.642578" xlink:href="#DejaVuSans-7a"/>
     <use x="1344.132812" xlink:href="#DejaVuSans-65"/>
     <use x="1405.65625" xlink:href="#DejaVuSans-72"/>
     <use x="1446.769531" xlink:href="#DejaVuSans-20"/>
     <use x="1478.556641" xlink:href="#DejaVuSans-28"/>
     <use x="1517.570312" xlink:href="#DejaVuSans-32"/>
     <use x="1581.193359" xlink:href="#DejaVuSans-33"/>
     <use x="1644.816406" xlink:href="#DejaVuSans-68"/>
     <use x="1708.195312" xlink:href="#DejaVuSans-2c"/>
     <use x="1739.982422" xlink:href="#DejaVuSans-20"/>
     <use x="1771.769531" xlink:href="#DejaVuSans-31"/>
     <use x="1835.392578" xlink:href="#DejaVuSans-38"/>
     <use x="1899.015625" xlink:href="#DejaVuSans-20"/>
     <use x="1930.802734" xlink:href="#DejaVuSans-74"/>
     <use x="1970.011719" xlink:href="#DejaVuSans-72"/>
     <use x="2011.125" xlink:href="#DejaVuSans-69"/>
     <use x="2038.908203" xlink:href="#DejaVuSans-61"/>
     <use x="2100.1875" xlink:href="#DejaVuSans-6c"/>
     <use x="2127.970703" xlink:href="#DejaVuSans-73"/>
     <use x="2180.070312" xlink:href="#DejaVuSans-2f"/>
     <use x="2213.761719" xlink:href="#DejaVuSans-66"/>
     <use x="2248.966797" xlink:href="#DejaVuSans-75"/>
     <use x="2312.345703" xlink:href="#DejaVuSans-7a"/>
     <use x="2364.835938" xlink:href="#DejaVuSans-7a"/>
     <use x="2417.326172" xlink:href="#DejaVuSans-65"/>
     <use x="2478.849609" xlink:href="#DejaVuSans-72"/>
     <use x="2519.962891" xlink:href="#DejaVuSans-29"/>
    </g>
   </g>
   <g id="legend_1">
    <g id="line2d_16">
     <path d="M 414.448125 30.416562 
L 434.448125 30.416562 
" style="fill:none;stroke:#1f77b4;stroke-linecap:square;stroke-width:1.5;"/>
    </g>
    <g id="line2d_17">
     <defs>
      <path d="M 0 3 
C 0.795609 3 1.55874 2.683901 2.12132 2.12132 
C 2.683901 1.55874 3 0.795609 3 0 
C 3 -0.795609 2.683901 -1.55874 2.12132 -2.12132 
C 1.55874 -2.683901 0.795609 -3 0 -3 
C -0.795609 -3 -1.55874 -2.683901 -2.12132 -2.12132 
C -2.683901 -1.55874 -3 -0.795609 -3 0 
C -3 0.795609 -2.683901 1.55874 -2.12132 2.12132 
C -1.55874 2.683901 -0.795609 3 0 3 
z
" id="m62793a3abe" style="stroke:#1f77b4;"/>
     </defs>
     <g>
      <use style="fill:#1f77b4;stroke:#1f77b4;" x="424.448125" xlink:href="#m62793a3abe" y="30.416562"/>
     </g>
    </g>
    <g id="text_15">
     <!-- afl -->
     <g transform="translate(442.448125 33.916562)scale(0.1 -0.1)">
      <use xlink:href="#DejaVuSans-61"/>
      <use x="61.279297" xlink:href="#DejaVuSans-66"/>
      <use x="96.484375" xlink:href="#DejaVuSans-6c"/>
     </g>
    </g>
    <g id="line2d_18">
     <path d="M 414.448125 45.094688 
L 434.448125 45.094688 
" style="fill:none;stroke:#98df8a;stroke-linecap:square;stroke-width:1.5;"/>
    </g>
    <g id="line2d_19">
     <defs>
      <path d="M -0 3 
L 3 -3 
L -3 -3 
z
" id="m9b006b3097" style="stroke:#98df8a;stroke-linejoin:miter;"/>
     </defs>
     <g>
      <use style="fill:#98df8a;stroke:#98df8a;stroke-linejoin:miter;" x="424.448125" xlink:href="#m9b006b3097" y="45.094688"/>
     </g>
    </g>
    <g id="text_16">
     <!-- afl_splicing_mutation -->
     <g transform="translate(442.448125 48.594688)scale(0.1 -0.1)">
      <use xlink:href="#DejaVuSans-61"/>
      <use x="61.279297" xlink:href="#DejaVuSans-66"/>
      <use x="96.484375" xlink:href="#DejaVuSans-6c"/>
      <use x="124.267578" xlink:href="#DejaVuSans-5f"/>
      <use x="174.267578" xlink:href="#DejaVuSans-73"/>
      <use x="226.367188" xlink:href="#DejaVuSans-70"/>
      <use x="289.84375" xlink:href="#DejaVuSans-6c"/>
      <use x="317.626953" xlink:href="#DejaVuSans-69"/>
      <use x="345.410156" xlink:href="#DejaVuSans-63"/>
      <use x="400.390625" xlink:href="#DejaVuSans-69"/>
      <use x="428.173828" xlink:href="#DejaVuSans-6e"/>
      <use x="491.552734" xlink:href="#DejaVuSans-67"/>
      <use x="555.029297" xlink:href="#DejaVuSans-5f"/>
      <use x="605.029297" xlink:href="#DejaVuSans-6d"/>
      <use x="702.441406" xlink:href="#DejaVuSans-75"/>
      <use x="765.820312" xlink:href="#DejaVuSans-74"/>
      <use x="805.029297" xlink:href="#DejaVuSans-61"/>
      <use x="866.308594" xlink:href="#DejaVuSans-74"/>
      <use x="905.517578" xlink:href="#DejaVuSans-69"/>
      <use x="933.300781" xlink:href="#DejaVuSans-6f"/>
      <use x="994.482422" xlink:href="#DejaVuSans-6e"/>
     </g>
    </g>
   </g>
  </g>
 </g>
 <defs>
  <clipPath id="pbb4ba1a646">
   <rect height="266.112" width="357.12" x="53.328125" y="22.318125"/>
  </clipPath>
 </defs>
</svg>
