<?xml version="1.0" encoding="utf-8" standalone="no"?>
<!DOCTYPE svg PUBLIC "-//W3C//DTD SVG 1.1//EN"
  "http://www.w3.org/Graphics/SVG/1.1/DTD/svg11.dtd">
<svg height="325.986375pt" version="1.1" viewBox="0 0 565.795 325.986375" width="565.795pt" xmlns="http://www.w3.org/2000/svg" xmlns:xlink="http://www.w3.org/1999/xlink">
 <metadata>
  <rdf:RDF xmlns:cc="http://creativecommons.org/ns#" xmlns:dc="http://purl.org/dc/elements/1.1/" xmlns:rdf="http://www.w3.org/1999/02/22-rdf-syntax-ns#">
   <cc:Work>
    <dc:type rdf:resource="http://purl.org/dc/dcmitype/StillImage"/>
    <dc:date>2022-08-18T10:28:01.978398</dc:date>
    <dc:format>image/svg+xml</dc:format>
    <dc:creator>
     <cc:Agent>
      <dc:title>Matplotlib v3.4.3, https://matplotlib.org/</dc:title>
     </cc:Agent>
    </dc:creator>
   </cc:Work>
  </rdf:RDF>
 </metadata>
 <defs>
  <style type="text/css">*{stroke-linecap:butt;stroke-linejoin:round;}</style>
 </defs>
 <g id="figure_1">
  <g id="patch_1">
   <path d="M 0 325.986375 
L 565.795 325.986375 
L 565.795 0 
L 0 0 
z
" style="fill:#ffffff;"/>
  </g>
  <g id="axes_1">
   <g id="patch_2">
    <path d="M 59.690625 288.430125 
L 416.810625 288.430125 
L 416.810625 22.318125 
L 59.690625 22.318125 
z
" style="fill:#ffffff;"/>
   </g>
   <g id="PolyCollection_1">
    <defs>
     <path d="M 75.923352 -72.039874 
L 75.923352 -49.65225 
L 125.689806 -74.572331 
L 154.801316 -95.113372 
L 175.45626 -123.322131 
L 191.47748 -139.23792 
L 204.567769 -150.739496 
L 215.635452 -157.598234 
L 225.222714 -166.321142 
L 233.679279 -168.730494 
L 241.243934 -183.186603 
L 248.086996 -192.878527 
L 254.334223 -200.280688 
L 260.081115 -212.345033 
L 265.401906 -213.206772 
L 270.355443 -214.912663 
L 274.989168 -215.616123 
L 279.341883 -217.234082 
L 283.445733 -221.331738 
L 287.327641 -221.560363 
L 291.010388 -223.107976 
L 294.513415 -224.048414 
L 297.85345 -224.532483 
L 301.04499 -223.934541 
L 304.100677 -225.763538 
L 307.031607 -226.642864 
L 309.847569 -241.41553 
L 312.557242 -242.57624 
L 315.168359 -242.646586 
L 317.68784 -243.139008 
L 320.121897 -243.174181 
L 322.476135 -243.420392 
L 324.755622 -244.229371 
L 326.96496 -245.530773 
L 329.108337 -245.671465 
L 331.189579 -247.254251 
L 333.212187 -247.254251 
L 335.179373 -247.254251 
L 337.094095 -247.746673 
L 338.959078 -248.028057 
L 340.776842 -248.098403 
L 342.549717 -252.49503 
L 344.279869 -255.133006 
L 345.969307 -255.801293 
L 347.619904 -256.012331 
L 349.233406 -256.082677 
L 350.811444 -256.082677 
L 352.355542 -256.153023 
L 353.867131 -256.153023 
L 355.347551 -256.293716 
L 356.798061 -256.293716 
L 358.219847 -256.469581 
L 359.614023 -256.5751 
L 360.981642 -256.786138 
L 362.323696 -257.067522 
L 363.641124 -257.308897 
L 364.934813 -257.806155 
L 366.205604 -257.876501 
L 367.454294 -257.964434 
L 368.681636 -258.017193 
L 369.888351 -258.544789 
L 371.075119 -258.579962 
L 372.242589 -259.305845 
L 373.391378 -259.037211 
L 374.522076 -258.298577 
L 375.635243 -258.368923 
L 376.731414 -258.368923 
L 377.8111 -262.519339 
L 378.874791 -262.660031 
L 379.922953 -262.800723 
L 380.956033 -262.835896 
L 381.974459 -262.871069 
L 382.978641 -262.941415 
L 383.968971 -262.941415 
L 384.945827 -262.941415 
L 385.909571 -262.976588 
L 386.860549 -263.363492 
L 387.799096 -263.363492 
L 388.725532 -263.398665 
L 389.640166 -263.398665 
L 390.543295 -263.398665 
L 391.435205 -264.805585 
L 392.316171 -265.280421 
L 393.186458 -265.79043 
L 394.046323 -266.388371 
L 394.896011 -266.156229 
L 395.735761 -265.509046 
L 396.565803 -267.302869 
L 397.386358 -267.830465 
L 398.197642 -268.498752 
L 398.99986 -267.513907 
L 399.793214 -267.689773 
L 400.577898 -269.096693 
L 400.577898 -291.57225 
L 400.577898 -291.57225 
L 399.793214 -289.074966 
L 398.99986 -291.57225 
L 398.197642 -284.92455 
L 397.386358 -291.57225 
L 396.565803 -291.501904 
L 395.735761 -291.501904 
L 394.896011 -282.216228 
L 394.046323 -280.685762 
L 393.186458 -273.352628 
L 392.316171 -273.352628 
L 391.435205 -281.292497 
L 390.543295 -272.156745 
L 389.640166 -273.317455 
L 388.725532 -272.965725 
L 387.799096 -272.895379 
L 386.860549 -272.78986 
L 385.909571 -271.840188 
L 384.945827 -271.805015 
L 383.968971 -271.066382 
L 382.978641 -271.066382 
L 381.974459 -270.996036 
L 380.956033 -270.081538 
L 379.922953 -270.081538 
L 378.874791 -270.081538 
L 377.8111 -270.046365 
L 376.731414 -267.478734 
L 375.635243 -267.302869 
L 374.522076 -266.951139 
L 373.391378 -266.810447 
L 372.242589 -266.775274 
L 371.075119 -266.44113 
L 369.888351 -266.106987 
L 368.681636 -265.913535 
L 367.454294 -265.368354 
L 366.205604 -264.98145 
L 364.934813 -264.911544 
L 363.641124 -264.636755 
L 362.323696 -264.62972 
L 360.981642 -264.594547 
L 359.614023 -264.489028 
L 358.219847 -264.031779 
L 356.798061 -263.715222 
L 355.347551 -263.328319 
L 353.867131 -263.152454 
L 352.355542 -262.589685 
L 350.811444 -261.288284 
L 349.233406 -261.253111 
L 347.619904 -259.775844 
L 345.969307 -259.775844 
L 344.279869 -259.740671 
L 342.549717 -258.509616 
L 340.776842 -258.474442 
L 338.959078 -257.032349 
L 337.094095 -256.610273 
L 335.179373 -256.504754 
L 333.212187 -256.328889 
L 331.189579 -256.153023 
L 329.108337 -255.238525 
L 326.96496 -255.168179 
L 324.755622 -255.168179 
L 322.476135 -255.133006 
L 320.121897 -255.133006 
L 317.68784 -251.967435 
L 315.168359 -251.510185 
L 312.557242 -251.475012 
L 309.847569 -250.314303 
L 307.031607 -247.605981 
L 304.100677 -246.39471 
L 301.04499 -245.731699 
L 297.85345 -244.493169 
L 294.513415 -241.749674 
L 291.010388 -240.729656 
L 287.327641 -239.991023 
L 283.445733 -239.094111 
L 279.341883 -237.880642 
L 274.989168 -235.17232 
L 270.355443 -231.989162 
L 265.401906 -227.41667 
L 260.081115 -220.452413 
L 254.334223 -214.015751 
L 248.086996 -213.312291 
L 241.243934 -212.573657 
L 233.679279 -208.036338 
L 225.222714 -191.153291 
L 215.635452 -182.324864 
L 204.567769 -177.066498 
L 191.47748 -166.672872 
L 175.45626 -143.405923 
L 154.801316 -134.823707 
L 125.689806 -102.921782 
L 75.923352 -72.039874 
z
" id="m2561fdb532" style="stroke:#98df8a;stroke-opacity:0.2;"/>
    </defs>
    <g clip-path="url(#pe25c1cb655)">
     <use style="fill:#98df8a;fill-opacity:0.2;stroke:#98df8a;stroke-opacity:0.2;" x="0" xlink:href="#m2561fdb532" y="325.986375"/>
    </g>
   </g>
   <g id="PolyCollection_2">
    <defs>
     <path d="M 75.923352 -97.574165 
L 75.923352 -61.945219 
L 125.689806 -101.313056 
L 154.801316 -130.268801 
L 175.45626 -149.314989 
L 191.47748 -161.818996 
L 204.567769 -171.192605 
L 215.635452 -176.996152 
L 225.222714 -181.111395 
L 233.679279 -185.701474 
L 241.243934 -190.397071 
L 248.086996 -196.499589 
L 254.334223 -205.398362 
L 260.081115 -205.25767 
L 265.401906 -207.508743 
L 270.355443 -212.292273 
L 274.989168 -212.362619 
L 279.341883 -213.41781 
L 283.445733 -215.141288 
L 287.327641 -215.98544 
L 291.010388 -219.819299 
L 294.513415 -222.211064 
L 297.85345 -222.246237 
L 301.04499 -222.351756 
L 304.100677 -222.562794 
L 307.031607 -222.879351 
L 309.847569 -223.090389 
L 312.557242 -225.306289 
L 315.168359 -225.306289 
L 317.68784 -225.5525 
L 320.121897 -225.622846 
L 322.476135 -228.190476 
L 324.755622 -229.9843 
L 326.96496 -231.461567 
L 329.108337 -232.165027 
L 331.189579 -232.2002 
L 333.212187 -233.114698 
L 335.179373 -233.25539 
L 337.094095 -233.325736 
L 338.959078 -233.325736 
L 340.776842 -233.923678 
L 342.549717 -234.486446 
L 344.279869 -234.697484 
L 345.969307 -235.260252 
L 347.619904 -235.295425 
L 349.233406 -235.506463 
L 350.811444 -235.506463 
L 352.355542 -235.92854 
L 353.867131 -235.664742 
L 355.347551 -236.062197 
L 356.798061 -236.438548 
L 358.219847 -237.581671 
L 359.614023 -235.647155 
L 360.981642 -237.229941 
L 362.323696 -237.33546 
L 363.641124 -237.33546 
L 364.934813 -237.616844 
L 366.205604 -237.616844 
L 367.454294 -237.863055 
L 368.681636 -239.305149 
L 369.888351 -239.410668 
L 371.075119 -239.692052 
L 372.242589 -239.692052 
L 373.391378 -239.762398 
L 374.522076 -238.619275 
L 375.635243 -239.797571 
L 376.731414 -239.867917 
L 377.8111 -240.184474 
L 378.874791 -240.184474 
L 379.922953 -240.395513 
L 380.956033 -240.395513 
L 381.974459 -240.501032 
L 382.978641 -240.501032 
L 383.968971 -240.501032 
L 384.945827 -243.002712 
L 385.909571 -242.189336 
L 386.860549 -242.224509 
L 387.799096 -242.224509 
L 388.725532 -242.224509 
L 389.640166 -244.264544 
L 390.543295 -244.264544 
L 391.435205 -244.264544 
L 392.316171 -244.33489 
L 393.186458 -244.33489 
L 394.046323 -246.656309 
L 394.896011 -246.656309 
L 395.735761 -246.656309 
L 396.565803 -245.038351 
L 397.386358 -246.691482 
L 398.197642 -246.924504 
L 398.99986 -246.972866 
L 399.793214 -245.108697 
L 400.577898 -246.972866 
L 400.577898 -259.951709 
L 400.577898 -259.951709 
L 399.793214 -259.213076 
L 398.99986 -259.231542 
L 398.197642 -259.213076 
L 397.386358 -259.951709 
L 396.565803 -259.213076 
L 395.735761 -259.184937 
L 394.896011 -258.579962 
L 394.046323 -258.488512 
L 393.186458 -258.474442 
L 392.316171 -258.474442 
L 391.435205 -258.474442 
L 390.543295 -256.710516 
L 389.640166 -256.698205 
L 388.725532 -255.695774 
L 387.799096 -256.52234 
L 386.860549 -254.992314 
L 385.909571 -255.882191 
L 384.945827 -256.082677 
L 383.968971 -253.831604 
L 382.978641 -253.831604 
L 381.974459 -253.831604 
L 380.956033 -253.532634 
L 379.922953 -253.163317 
L 378.874791 -252.354338 
L 377.8111 -252.178473 
L 376.731414 -252.178473 
L 375.635243 -251.615704 
L 374.522076 -251.545358 
L 373.391378 -250.314303 
L 372.242589 -249.892227 
L 371.075119 -249.646016 
L 369.888351 -249.470151 
L 368.681636 -249.470151 
L 367.454294 -249.434978 
L 366.205604 -249.329458 
L 364.934813 -249.329458 
L 363.641124 -248.907382 
L 362.323696 -248.907382 
L 360.981642 -248.801863 
L 359.614023 -248.731517 
L 358.219847 -246.621136 
L 356.798061 -246.19906 
L 355.347551 -245.829743 
L 353.867131 -245.706638 
L 352.355542 -245.636732 
L 350.811444 -245.249389 
L 349.233406 -244.510755 
L 347.619904 -244.510755 
L 345.969307 -244.088679 
L 344.279869 -244.018333 
L 342.549717 -244.018333 
L 340.776842 -242.892797 
L 338.959078 -241.960712 
L 337.094095 -241.907952 
L 335.179373 -240.289994 
L 333.212187 -239.621706 
L 331.189579 -239.586533 
L 329.108337 -239.410668 
L 326.96496 -239.234803 
L 324.755622 -239.234803 
L 322.476135 -238.953419 
L 320.121897 -238.8479 
L 317.68784 -238.777554 
L 315.168359 -238.355478 
L 312.557242 -238.320305 
L 309.847569 -238.214786 
L 307.031607 -237.827882 
L 304.100677 -233.923678 
L 301.04499 -233.25539 
L 297.85345 -232.657449 
L 294.513415 -232.411238 
L 291.010388 -232.059508 
L 287.327641 -231.567086 
L 283.445733 -229.667743 
L 279.341883 -228.964283 
L 274.989168 -228.507033 
L 270.355443 -226.291133 
L 265.401906 -225.235943 
L 260.081115 -226.080095 
L 254.334223 -224.620415 
L 248.086996 -222.63314 
L 241.243934 -218.711349 
L 233.679279 -211.623986 
L 225.222714 -204.360758 
L 215.635452 -198.047202 
L 204.567769 -189.236362 
L 191.47748 -183.081084 
L 175.45626 -174.059206 
L 154.801316 -153.781962 
L 125.689806 -126.434943 
L 75.923352 -97.574165 
z
" id="md5cb828867" style="stroke:#1f77b4;stroke-opacity:0.2;"/>
    </defs>
    <g clip-path="url(#pe25c1cb655)">
     <use style="fill:#1f77b4;fill-opacity:0.2;stroke:#1f77b4;stroke-opacity:0.2;" x="0" xlink:href="#md5cb828867" y="325.986375"/>
    </g>
   </g>
   <g id="matplotlib.axis_1">
    <g id="xtick_1">
     <g id="line2d_1">
      <defs>
       <path d="M 0 0 
L 0 3.5 
" id="m41bf8e14b5" style="stroke:#000000;stroke-width:0.8;"/>
      </defs>
      <g>
       <use style="stroke:#000000;stroke-width:0.8;" x="75.923352" xlink:href="#m41bf8e14b5" y="288.430125"/>
      </g>
     </g>
     <g id="text_1">
      <!-- 14m -->
      <g transform="translate(64.69054 303.028562)scale(0.1 -0.1)">
       <defs>
        <path d="M 794 531 
L 1825 531 
L 1825 4091 
L 703 3866 
L 703 4441 
L 1819 4666 
L 2450 4666 
L 2450 531 
L 3481 531 
L 3481 0 
L 794 0 
L 794 531 
z
" id="DejaVuSans-31" transform="scale(0.015625)"/>
        <path d="M 2419 4116 
L 825 1625 
L 2419 1625 
L 2419 4116 
z
M 2253 4666 
L 3047 4666 
L 3047 1625 
L 3713 1625 
L 3713 1100 
L 3047 1100 
L 3047 0 
L 2419 0 
L 2419 1100 
L 313 1100 
L 313 1709 
L 2253 4666 
z
" id="DejaVuSans-34" transform="scale(0.015625)"/>
        <path d="M 3328 2828 
Q 3544 3216 3844 3400 
Q 4144 3584 4550 3584 
Q 5097 3584 5394 3201 
Q 5691 2819 5691 2113 
L 5691 0 
L 5113 0 
L 5113 2094 
Q 5113 2597 4934 2840 
Q 4756 3084 4391 3084 
Q 3944 3084 3684 2787 
Q 3425 2491 3425 1978 
L 3425 0 
L 2847 0 
L 2847 2094 
Q 2847 2600 2669 2842 
Q 2491 3084 2119 3084 
Q 1678 3084 1418 2786 
Q 1159 2488 1159 1978 
L 1159 0 
L 581 0 
L 581 3500 
L 1159 3500 
L 1159 2956 
Q 1356 3278 1631 3431 
Q 1906 3584 2284 3584 
Q 2666 3584 2933 3390 
Q 3200 3197 3328 2828 
z
" id="DejaVuSans-6d" transform="scale(0.015625)"/>
       </defs>
       <use xlink:href="#DejaVuSans-31"/>
       <use x="63.623047" xlink:href="#DejaVuSans-34"/>
       <use x="127.246094" xlink:href="#DejaVuSans-6d"/>
      </g>
     </g>
    </g>
    <g id="xtick_2">
     <g id="line2d_2">
      <g>
       <use style="stroke:#000000;stroke-width:0.8;" x="140.854435" xlink:href="#m41bf8e14b5" y="288.430125"/>
      </g>
     </g>
     <g id="text_2">
      <!-- 37m -->
      <g transform="translate(129.621622 303.028562)scale(0.1 -0.1)">
       <defs>
        <path d="M 2597 2516 
Q 3050 2419 3304 2112 
Q 3559 1806 3559 1356 
Q 3559 666 3084 287 
Q 2609 -91 1734 -91 
Q 1441 -91 1130 -33 
Q 819 25 488 141 
L 488 750 
Q 750 597 1062 519 
Q 1375 441 1716 441 
Q 2309 441 2620 675 
Q 2931 909 2931 1356 
Q 2931 1769 2642 2001 
Q 2353 2234 1838 2234 
L 1294 2234 
L 1294 2753 
L 1863 2753 
Q 2328 2753 2575 2939 
Q 2822 3125 2822 3475 
Q 2822 3834 2567 4026 
Q 2313 4219 1838 4219 
Q 1578 4219 1281 4162 
Q 984 4106 628 3988 
L 628 4550 
Q 988 4650 1302 4700 
Q 1616 4750 1894 4750 
Q 2613 4750 3031 4423 
Q 3450 4097 3450 3541 
Q 3450 3153 3228 2886 
Q 3006 2619 2597 2516 
z
" id="DejaVuSans-33" transform="scale(0.015625)"/>
        <path d="M 525 4666 
L 3525 4666 
L 3525 4397 
L 1831 0 
L 1172 0 
L 2766 4134 
L 525 4134 
L 525 4666 
z
" id="DejaVuSans-37" transform="scale(0.015625)"/>
       </defs>
       <use xlink:href="#DejaVuSans-33"/>
       <use x="63.623047" xlink:href="#DejaVuSans-37"/>
       <use x="127.246094" xlink:href="#DejaVuSans-6d"/>
      </g>
     </g>
    </g>
    <g id="xtick_3">
     <g id="line2d_3">
      <g>
       <use style="stroke:#000000;stroke-width:0.8;" x="205.785517" xlink:href="#m41bf8e14b5" y="288.430125"/>
      </g>
     </g>
     <g id="text_3">
      <!-- 1h:31m -->
      <g transform="translate(186.51833 303.028562)scale(0.1 -0.1)">
       <defs>
        <path d="M 3513 2113 
L 3513 0 
L 2938 0 
L 2938 2094 
Q 2938 2591 2744 2837 
Q 2550 3084 2163 3084 
Q 1697 3084 1428 2787 
Q 1159 2491 1159 1978 
L 1159 0 
L 581 0 
L 581 4863 
L 1159 4863 
L 1159 2956 
Q 1366 3272 1645 3428 
Q 1925 3584 2291 3584 
Q 2894 3584 3203 3211 
Q 3513 2838 3513 2113 
z
" id="DejaVuSans-68" transform="scale(0.015625)"/>
        <path d="M 750 794 
L 1409 794 
L 1409 0 
L 750 0 
L 750 794 
z
M 750 3309 
L 1409 3309 
L 1409 2516 
L 750 2516 
L 750 3309 
z
" id="DejaVuSans-3a" transform="scale(0.015625)"/>
       </defs>
       <use xlink:href="#DejaVuSans-31"/>
       <use x="63.623047" xlink:href="#DejaVuSans-68"/>
       <use x="127.001953" xlink:href="#DejaVuSans-3a"/>
       <use x="160.693359" xlink:href="#DejaVuSans-33"/>
       <use x="224.316406" xlink:href="#DejaVuSans-31"/>
       <use x="287.939453" xlink:href="#DejaVuSans-6d"/>
      </g>
     </g>
    </g>
    <g id="xtick_4">
     <g id="line2d_4">
      <g>
       <use style="stroke:#000000;stroke-width:0.8;" x="270.7166" xlink:href="#m41bf8e14b5" y="288.430125"/>
      </g>
     </g>
     <g id="text_4">
      <!-- 3h:46m -->
      <g transform="translate(251.449412 303.028562)scale(0.1 -0.1)">
       <defs>
        <path d="M 2113 2584 
Q 1688 2584 1439 2293 
Q 1191 2003 1191 1497 
Q 1191 994 1439 701 
Q 1688 409 2113 409 
Q 2538 409 2786 701 
Q 3034 994 3034 1497 
Q 3034 2003 2786 2293 
Q 2538 2584 2113 2584 
z
M 3366 4563 
L 3366 3988 
Q 3128 4100 2886 4159 
Q 2644 4219 2406 4219 
Q 1781 4219 1451 3797 
Q 1122 3375 1075 2522 
Q 1259 2794 1537 2939 
Q 1816 3084 2150 3084 
Q 2853 3084 3261 2657 
Q 3669 2231 3669 1497 
Q 3669 778 3244 343 
Q 2819 -91 2113 -91 
Q 1303 -91 875 529 
Q 447 1150 447 2328 
Q 447 3434 972 4092 
Q 1497 4750 2381 4750 
Q 2619 4750 2861 4703 
Q 3103 4656 3366 4563 
z
" id="DejaVuSans-36" transform="scale(0.015625)"/>
       </defs>
       <use xlink:href="#DejaVuSans-33"/>
       <use x="63.623047" xlink:href="#DejaVuSans-68"/>
       <use x="127.001953" xlink:href="#DejaVuSans-3a"/>
       <use x="160.693359" xlink:href="#DejaVuSans-34"/>
       <use x="224.316406" xlink:href="#DejaVuSans-36"/>
       <use x="287.939453" xlink:href="#DejaVuSans-6d"/>
      </g>
     </g>
    </g>
    <g id="xtick_5">
     <g id="line2d_5">
      <g>
       <use style="stroke:#000000;stroke-width:0.8;" x="335.647682" xlink:href="#m41bf8e14b5" y="288.430125"/>
      </g>
     </g>
     <g id="text_5">
      <!-- 9h:18m -->
      <g transform="translate(316.380495 303.028562)scale(0.1 -0.1)">
       <defs>
        <path d="M 703 97 
L 703 672 
Q 941 559 1184 500 
Q 1428 441 1663 441 
Q 2288 441 2617 861 
Q 2947 1281 2994 2138 
Q 2813 1869 2534 1725 
Q 2256 1581 1919 1581 
Q 1219 1581 811 2004 
Q 403 2428 403 3163 
Q 403 3881 828 4315 
Q 1253 4750 1959 4750 
Q 2769 4750 3195 4129 
Q 3622 3509 3622 2328 
Q 3622 1225 3098 567 
Q 2575 -91 1691 -91 
Q 1453 -91 1209 -44 
Q 966 3 703 97 
z
M 1959 2075 
Q 2384 2075 2632 2365 
Q 2881 2656 2881 3163 
Q 2881 3666 2632 3958 
Q 2384 4250 1959 4250 
Q 1534 4250 1286 3958 
Q 1038 3666 1038 3163 
Q 1038 2656 1286 2365 
Q 1534 2075 1959 2075 
z
" id="DejaVuSans-39" transform="scale(0.015625)"/>
        <path d="M 2034 2216 
Q 1584 2216 1326 1975 
Q 1069 1734 1069 1313 
Q 1069 891 1326 650 
Q 1584 409 2034 409 
Q 2484 409 2743 651 
Q 3003 894 3003 1313 
Q 3003 1734 2745 1975 
Q 2488 2216 2034 2216 
z
M 1403 2484 
Q 997 2584 770 2862 
Q 544 3141 544 3541 
Q 544 4100 942 4425 
Q 1341 4750 2034 4750 
Q 2731 4750 3128 4425 
Q 3525 4100 3525 3541 
Q 3525 3141 3298 2862 
Q 3072 2584 2669 2484 
Q 3125 2378 3379 2068 
Q 3634 1759 3634 1313 
Q 3634 634 3220 271 
Q 2806 -91 2034 -91 
Q 1263 -91 848 271 
Q 434 634 434 1313 
Q 434 1759 690 2068 
Q 947 2378 1403 2484 
z
M 1172 3481 
Q 1172 3119 1398 2916 
Q 1625 2713 2034 2713 
Q 2441 2713 2670 2916 
Q 2900 3119 2900 3481 
Q 2900 3844 2670 4047 
Q 2441 4250 2034 4250 
Q 1625 4250 1398 4047 
Q 1172 3844 1172 3481 
z
" id="DejaVuSans-38" transform="scale(0.015625)"/>
       </defs>
       <use xlink:href="#DejaVuSans-39"/>
       <use x="63.623047" xlink:href="#DejaVuSans-68"/>
       <use x="127.001953" xlink:href="#DejaVuSans-3a"/>
       <use x="160.693359" xlink:href="#DejaVuSans-31"/>
       <use x="224.316406" xlink:href="#DejaVuSans-38"/>
       <use x="287.939453" xlink:href="#DejaVuSans-6d"/>
      </g>
     </g>
    </g>
    <g id="xtick_6">
     <g id="line2d_6">
      <g>
       <use style="stroke:#000000;stroke-width:0.8;" x="400.578765" xlink:href="#m41bf8e14b5" y="288.430125"/>
      </g>
     </g>
     <g id="text_6">
      <!-- 23h -->
      <g transform="translate(391.047515 303.028562)scale(0.1 -0.1)">
       <defs>
        <path d="M 1228 531 
L 3431 531 
L 3431 0 
L 469 0 
L 469 531 
Q 828 903 1448 1529 
Q 2069 2156 2228 2338 
Q 2531 2678 2651 2914 
Q 2772 3150 2772 3378 
Q 2772 3750 2511 3984 
Q 2250 4219 1831 4219 
Q 1534 4219 1204 4116 
Q 875 4013 500 3803 
L 500 4441 
Q 881 4594 1212 4672 
Q 1544 4750 1819 4750 
Q 2544 4750 2975 4387 
Q 3406 4025 3406 3419 
Q 3406 3131 3298 2873 
Q 3191 2616 2906 2266 
Q 2828 2175 2409 1742 
Q 1991 1309 1228 531 
z
" id="DejaVuSans-32" transform="scale(0.015625)"/>
       </defs>
       <use xlink:href="#DejaVuSans-32"/>
       <use x="63.623047" xlink:href="#DejaVuSans-33"/>
       <use x="127.246094" xlink:href="#DejaVuSans-68"/>
      </g>
     </g>
    </g>
    <g id="xtick_7">
     <g id="line2d_7">
      <defs>
       <path d="M 0 0 
L 0 2 
" id="m9dd2ffae8e" style="stroke:#000000;stroke-width:0.6;"/>
      </defs>
      <g>
       <use style="stroke:#000000;stroke-width:0.6;" x="67.466788" xlink:href="#m9dd2ffae8e" y="288.430125"/>
      </g>
     </g>
    </g>
    <g id="xtick_8">
     <g id="line2d_8">
      <g>
       <use style="stroke:#000000;stroke-width:0.6;" x="133.254461" xlink:href="#m9dd2ffae8e" y="288.430125"/>
      </g>
     </g>
    </g>
    <g id="xtick_9">
     <g id="line2d_9">
      <g>
       <use style="stroke:#000000;stroke-width:0.6;" x="162.36597" xlink:href="#m9dd2ffae8e" y="288.430125"/>
      </g>
     </g>
    </g>
    <g id="xtick_10">
     <g id="line2d_10">
      <g>
       <use style="stroke:#000000;stroke-width:0.6;" x="183.020915" xlink:href="#m9dd2ffae8e" y="288.430125"/>
      </g>
     </g>
    </g>
    <g id="xtick_11">
     <g id="line2d_11">
      <g>
       <use style="stroke:#000000;stroke-width:0.6;" x="199.042135" xlink:href="#m9dd2ffae8e" y="288.430125"/>
      </g>
     </g>
    </g>
    <g id="xtick_12">
     <g id="line2d_12">
      <g>
       <use style="stroke:#000000;stroke-width:0.6;" x="212.132424" xlink:href="#m9dd2ffae8e" y="288.430125"/>
      </g>
     </g>
    </g>
    <g id="xtick_13">
     <g id="line2d_13">
      <g>
       <use style="stroke:#000000;stroke-width:0.6;" x="223.200107" xlink:href="#m9dd2ffae8e" y="288.430125"/>
      </g>
     </g>
    </g>
    <g id="xtick_14">
     <g id="line2d_14">
      <g>
       <use style="stroke:#000000;stroke-width:0.6;" x="232.787369" xlink:href="#m9dd2ffae8e" y="288.430125"/>
      </g>
     </g>
    </g>
    <g id="xtick_15">
     <g id="line2d_15">
      <g>
       <use style="stroke:#000000;stroke-width:0.6;" x="241.243934" xlink:href="#m9dd2ffae8e" y="288.430125"/>
      </g>
     </g>
    </g>
    <g id="xtick_16">
     <g id="line2d_16">
      <g>
       <use style="stroke:#000000;stroke-width:0.6;" x="298.575043" xlink:href="#m9dd2ffae8e" y="288.430125"/>
      </g>
     </g>
    </g>
    <g id="xtick_17">
     <g id="line2d_17">
      <g>
       <use style="stroke:#000000;stroke-width:0.6;" x="327.686552" xlink:href="#m9dd2ffae8e" y="288.430125"/>
      </g>
     </g>
    </g>
    <g id="xtick_18">
     <g id="line2d_18">
      <g>
       <use style="stroke:#000000;stroke-width:0.6;" x="348.341496" xlink:href="#m9dd2ffae8e" y="288.430125"/>
      </g>
     </g>
    </g>
    <g id="xtick_19">
     <g id="line2d_19">
      <g>
       <use style="stroke:#000000;stroke-width:0.6;" x="364.362716" xlink:href="#m9dd2ffae8e" y="288.430125"/>
      </g>
     </g>
    </g>
    <g id="xtick_20">
     <g id="line2d_20">
      <g>
       <use style="stroke:#000000;stroke-width:0.6;" x="377.453006" xlink:href="#m9dd2ffae8e" y="288.430125"/>
      </g>
     </g>
    </g>
    <g id="xtick_21">
     <g id="line2d_21">
      <g>
       <use style="stroke:#000000;stroke-width:0.6;" x="388.520688" xlink:href="#m9dd2ffae8e" y="288.430125"/>
      </g>
     </g>
    </g>
    <g id="xtick_22">
     <g id="line2d_22">
      <g>
       <use style="stroke:#000000;stroke-width:0.6;" x="398.10795" xlink:href="#m9dd2ffae8e" y="288.430125"/>
      </g>
     </g>
    </g>
    <g id="xtick_23">
     <g id="line2d_23">
      <g>
       <use style="stroke:#000000;stroke-width:0.6;" x="406.564515" xlink:href="#m9dd2ffae8e" y="288.430125"/>
      </g>
     </g>
    </g>
    <g id="text_7">
     <!-- Time (hour:minute) -->
     <g transform="translate(189.843594 316.706687)scale(0.1 -0.1)">
      <defs>
       <path d="M -19 4666 
L 3928 4666 
L 3928 4134 
L 2272 4134 
L 2272 0 
L 1638 0 
L 1638 4134 
L -19 4134 
L -19 4666 
z
" id="DejaVuSans-54" transform="scale(0.015625)"/>
       <path d="M 603 3500 
L 1178 3500 
L 1178 0 
L 603 0 
L 603 3500 
z
M 603 4863 
L 1178 4863 
L 1178 4134 
L 603 4134 
L 603 4863 
z
" id="DejaVuSans-69" transform="scale(0.015625)"/>
       <path d="M 3597 1894 
L 3597 1613 
L 953 1613 
Q 991 1019 1311 708 
Q 1631 397 2203 397 
Q 2534 397 2845 478 
Q 3156 559 3463 722 
L 3463 178 
Q 3153 47 2828 -22 
Q 2503 -91 2169 -91 
Q 1331 -91 842 396 
Q 353 884 353 1716 
Q 353 2575 817 3079 
Q 1281 3584 2069 3584 
Q 2775 3584 3186 3129 
Q 3597 2675 3597 1894 
z
M 3022 2063 
Q 3016 2534 2758 2815 
Q 2500 3097 2075 3097 
Q 1594 3097 1305 2825 
Q 1016 2553 972 2059 
L 3022 2063 
z
" id="DejaVuSans-65" transform="scale(0.015625)"/>
       <path id="DejaVuSans-20" transform="scale(0.015625)"/>
       <path d="M 1984 4856 
Q 1566 4138 1362 3434 
Q 1159 2731 1159 2009 
Q 1159 1288 1364 580 
Q 1569 -128 1984 -844 
L 1484 -844 
Q 1016 -109 783 600 
Q 550 1309 550 2009 
Q 550 2706 781 3412 
Q 1013 4119 1484 4856 
L 1984 4856 
z
" id="DejaVuSans-28" transform="scale(0.015625)"/>
       <path d="M 1959 3097 
Q 1497 3097 1228 2736 
Q 959 2375 959 1747 
Q 959 1119 1226 758 
Q 1494 397 1959 397 
Q 2419 397 2687 759 
Q 2956 1122 2956 1747 
Q 2956 2369 2687 2733 
Q 2419 3097 1959 3097 
z
M 1959 3584 
Q 2709 3584 3137 3096 
Q 3566 2609 3566 1747 
Q 3566 888 3137 398 
Q 2709 -91 1959 -91 
Q 1206 -91 779 398 
Q 353 888 353 1747 
Q 353 2609 779 3096 
Q 1206 3584 1959 3584 
z
" id="DejaVuSans-6f" transform="scale(0.015625)"/>
       <path d="M 544 1381 
L 544 3500 
L 1119 3500 
L 1119 1403 
Q 1119 906 1312 657 
Q 1506 409 1894 409 
Q 2359 409 2629 706 
Q 2900 1003 2900 1516 
L 2900 3500 
L 3475 3500 
L 3475 0 
L 2900 0 
L 2900 538 
Q 2691 219 2414 64 
Q 2138 -91 1772 -91 
Q 1169 -91 856 284 
Q 544 659 544 1381 
z
M 1991 3584 
L 1991 3584 
z
" id="DejaVuSans-75" transform="scale(0.015625)"/>
       <path d="M 2631 2963 
Q 2534 3019 2420 3045 
Q 2306 3072 2169 3072 
Q 1681 3072 1420 2755 
Q 1159 2438 1159 1844 
L 1159 0 
L 581 0 
L 581 3500 
L 1159 3500 
L 1159 2956 
Q 1341 3275 1631 3429 
Q 1922 3584 2338 3584 
Q 2397 3584 2469 3576 
Q 2541 3569 2628 3553 
L 2631 2963 
z
" id="DejaVuSans-72" transform="scale(0.015625)"/>
       <path d="M 3513 2113 
L 3513 0 
L 2938 0 
L 2938 2094 
Q 2938 2591 2744 2837 
Q 2550 3084 2163 3084 
Q 1697 3084 1428 2787 
Q 1159 2491 1159 1978 
L 1159 0 
L 581 0 
L 581 3500 
L 1159 3500 
L 1159 2956 
Q 1366 3272 1645 3428 
Q 1925 3584 2291 3584 
Q 2894 3584 3203 3211 
Q 3513 2838 3513 2113 
z
" id="DejaVuSans-6e" transform="scale(0.015625)"/>
       <path d="M 1172 4494 
L 1172 3500 
L 2356 3500 
L 2356 3053 
L 1172 3053 
L 1172 1153 
Q 1172 725 1289 603 
Q 1406 481 1766 481 
L 2356 481 
L 2356 0 
L 1766 0 
Q 1100 0 847 248 
Q 594 497 594 1153 
L 594 3053 
L 172 3053 
L 172 3500 
L 594 3500 
L 594 4494 
L 1172 4494 
z
" id="DejaVuSans-74" transform="scale(0.015625)"/>
       <path d="M 513 4856 
L 1013 4856 
Q 1481 4119 1714 3412 
Q 1947 2706 1947 2009 
Q 1947 1309 1714 600 
Q 1481 -109 1013 -844 
L 513 -844 
Q 928 -128 1133 580 
Q 1338 1288 1338 2009 
Q 1338 2731 1133 3434 
Q 928 4138 513 4856 
z
" id="DejaVuSans-29" transform="scale(0.015625)"/>
      </defs>
      <use xlink:href="#DejaVuSans-54"/>
      <use x="57.958984" xlink:href="#DejaVuSans-69"/>
      <use x="85.742188" xlink:href="#DejaVuSans-6d"/>
      <use x="183.154297" xlink:href="#DejaVuSans-65"/>
      <use x="244.677734" xlink:href="#DejaVuSans-20"/>
      <use x="276.464844" xlink:href="#DejaVuSans-28"/>
      <use x="315.478516" xlink:href="#DejaVuSans-68"/>
      <use x="378.857422" xlink:href="#DejaVuSans-6f"/>
      <use x="440.039062" xlink:href="#DejaVuSans-75"/>
      <use x="503.417969" xlink:href="#DejaVuSans-72"/>
      <use x="542.78125" xlink:href="#DejaVuSans-3a"/>
      <use x="576.472656" xlink:href="#DejaVuSans-6d"/>
      <use x="673.884766" xlink:href="#DejaVuSans-69"/>
      <use x="701.667969" xlink:href="#DejaVuSans-6e"/>
      <use x="765.046875" xlink:href="#DejaVuSans-75"/>
      <use x="828.425781" xlink:href="#DejaVuSans-74"/>
      <use x="867.634766" xlink:href="#DejaVuSans-65"/>
      <use x="929.158203" xlink:href="#DejaVuSans-29"/>
     </g>
    </g>
   </g>
   <g id="matplotlib.axis_2">
    <g id="ytick_1">
     <g id="line2d_24">
      <defs>
       <path d="M 0 0 
L -3.5 0 
" id="m8798bfeccb" style="stroke:#000000;stroke-width:0.8;"/>
      </defs>
      <g>
       <use style="stroke:#000000;stroke-width:0.8;" x="59.690625" xlink:href="#m8798bfeccb" y="269.932636"/>
      </g>
     </g>
     <g id="text_8">
      <!-- 8000 -->
      <g transform="translate(27.240625 273.731855)scale(0.1 -0.1)">
       <defs>
        <path d="M 2034 4250 
Q 1547 4250 1301 3770 
Q 1056 3291 1056 2328 
Q 1056 1369 1301 889 
Q 1547 409 2034 409 
Q 2525 409 2770 889 
Q 3016 1369 3016 2328 
Q 3016 3291 2770 3770 
Q 2525 4250 2034 4250 
z
M 2034 4750 
Q 2819 4750 3233 4129 
Q 3647 3509 3647 2328 
Q 3647 1150 3233 529 
Q 2819 -91 2034 -91 
Q 1250 -91 836 529 
Q 422 1150 422 2328 
Q 422 3509 836 4129 
Q 1250 4750 2034 4750 
z
" id="DejaVuSans-30" transform="scale(0.015625)"/>
       </defs>
       <use xlink:href="#DejaVuSans-38"/>
       <use x="63.623047" xlink:href="#DejaVuSans-30"/>
       <use x="127.246094" xlink:href="#DejaVuSans-30"/>
       <use x="190.869141" xlink:href="#DejaVuSans-30"/>
      </g>
     </g>
    </g>
    <g id="ytick_2">
     <g id="line2d_25">
      <g>
       <use style="stroke:#000000;stroke-width:0.8;" x="59.690625" xlink:href="#m8798bfeccb" y="234.759621"/>
      </g>
     </g>
     <g id="text_9">
      <!-- 9000 -->
      <g transform="translate(27.240625 238.55884)scale(0.1 -0.1)">
       <use xlink:href="#DejaVuSans-39"/>
       <use x="63.623047" xlink:href="#DejaVuSans-30"/>
       <use x="127.246094" xlink:href="#DejaVuSans-30"/>
       <use x="190.869141" xlink:href="#DejaVuSans-30"/>
      </g>
     </g>
    </g>
    <g id="ytick_3">
     <g id="line2d_26">
      <g>
       <use style="stroke:#000000;stroke-width:0.8;" x="59.690625" xlink:href="#m8798bfeccb" y="199.586605"/>
      </g>
     </g>
     <g id="text_10">
      <!-- 10000 -->
      <g transform="translate(20.878125 203.385824)scale(0.1 -0.1)">
       <use xlink:href="#DejaVuSans-31"/>
       <use x="63.623047" xlink:href="#DejaVuSans-30"/>
       <use x="127.246094" xlink:href="#DejaVuSans-30"/>
       <use x="190.869141" xlink:href="#DejaVuSans-30"/>
       <use x="254.492188" xlink:href="#DejaVuSans-30"/>
      </g>
     </g>
    </g>
    <g id="ytick_4">
     <g id="line2d_27">
      <g>
       <use style="stroke:#000000;stroke-width:0.8;" x="59.690625" xlink:href="#m8798bfeccb" y="164.41359"/>
      </g>
     </g>
     <g id="text_11">
      <!-- 11000 -->
      <g transform="translate(20.878125 168.212809)scale(0.1 -0.1)">
       <use xlink:href="#DejaVuSans-31"/>
       <use x="63.623047" xlink:href="#DejaVuSans-31"/>
       <use x="127.246094" xlink:href="#DejaVuSans-30"/>
       <use x="190.869141" xlink:href="#DejaVuSans-30"/>
       <use x="254.492188" xlink:href="#DejaVuSans-30"/>
      </g>
     </g>
    </g>
    <g id="ytick_5">
     <g id="line2d_28">
      <g>
       <use style="stroke:#000000;stroke-width:0.8;" x="59.690625" xlink:href="#m8798bfeccb" y="129.240575"/>
      </g>
     </g>
     <g id="text_12">
      <!-- 12000 -->
      <g transform="translate(20.878125 133.039793)scale(0.1 -0.1)">
       <use xlink:href="#DejaVuSans-31"/>
       <use x="63.623047" xlink:href="#DejaVuSans-32"/>
       <use x="127.246094" xlink:href="#DejaVuSans-30"/>
       <use x="190.869141" xlink:href="#DejaVuSans-30"/>
       <use x="254.492188" xlink:href="#DejaVuSans-30"/>
      </g>
     </g>
    </g>
    <g id="ytick_6">
     <g id="line2d_29">
      <g>
       <use style="stroke:#000000;stroke-width:0.8;" x="59.690625" xlink:href="#m8798bfeccb" y="94.067559"/>
      </g>
     </g>
     <g id="text_13">
      <!-- 13000 -->
      <g transform="translate(20.878125 97.866778)scale(0.1 -0.1)">
       <use xlink:href="#DejaVuSans-31"/>
       <use x="63.623047" xlink:href="#DejaVuSans-33"/>
       <use x="127.246094" xlink:href="#DejaVuSans-30"/>
       <use x="190.869141" xlink:href="#DejaVuSans-30"/>
       <use x="254.492188" xlink:href="#DejaVuSans-30"/>
      </g>
     </g>
    </g>
    <g id="ytick_7">
     <g id="line2d_30">
      <g>
       <use style="stroke:#000000;stroke-width:0.8;" x="59.690625" xlink:href="#m8798bfeccb" y="58.894544"/>
      </g>
     </g>
     <g id="text_14">
      <!-- 14000 -->
      <g transform="translate(20.878125 62.693762)scale(0.1 -0.1)">
       <use xlink:href="#DejaVuSans-31"/>
       <use x="63.623047" xlink:href="#DejaVuSans-34"/>
       <use x="127.246094" xlink:href="#DejaVuSans-30"/>
       <use x="190.869141" xlink:href="#DejaVuSans-30"/>
       <use x="254.492188" xlink:href="#DejaVuSans-30"/>
      </g>
     </g>
    </g>
    <g id="ytick_8">
     <g id="line2d_31">
      <g>
       <use style="stroke:#000000;stroke-width:0.8;" x="59.690625" xlink:href="#m8798bfeccb" y="23.721528"/>
      </g>
     </g>
     <g id="text_15">
      <!-- 15000 -->
      <g transform="translate(20.878125 27.520747)scale(0.1 -0.1)">
       <defs>
        <path d="M 691 4666 
L 3169 4666 
L 3169 4134 
L 1269 4134 
L 1269 2991 
Q 1406 3038 1543 3061 
Q 1681 3084 1819 3084 
Q 2600 3084 3056 2656 
Q 3513 2228 3513 1497 
Q 3513 744 3044 326 
Q 2575 -91 1722 -91 
Q 1428 -91 1123 -41 
Q 819 9 494 109 
L 494 744 
Q 775 591 1075 516 
Q 1375 441 1709 441 
Q 2250 441 2565 725 
Q 2881 1009 2881 1497 
Q 2881 1984 2565 2268 
Q 2250 2553 1709 2553 
Q 1456 2553 1204 2497 
Q 953 2441 691 2322 
L 691 4666 
z
" id="DejaVuSans-35" transform="scale(0.015625)"/>
       </defs>
       <use xlink:href="#DejaVuSans-31"/>
       <use x="63.623047" xlink:href="#DejaVuSans-35"/>
       <use x="127.246094" xlink:href="#DejaVuSans-30"/>
       <use x="190.869141" xlink:href="#DejaVuSans-30"/>
       <use x="254.492188" xlink:href="#DejaVuSans-30"/>
      </g>
     </g>
    </g>
    <g id="text_16">
     <!-- Code region coverage -->
     <g transform="translate(14.798438 210.379594)rotate(-90)scale(0.1 -0.1)">
      <defs>
       <path d="M 4122 4306 
L 4122 3641 
Q 3803 3938 3442 4084 
Q 3081 4231 2675 4231 
Q 1875 4231 1450 3742 
Q 1025 3253 1025 2328 
Q 1025 1406 1450 917 
Q 1875 428 2675 428 
Q 3081 428 3442 575 
Q 3803 722 4122 1019 
L 4122 359 
Q 3791 134 3420 21 
Q 3050 -91 2638 -91 
Q 1578 -91 968 557 
Q 359 1206 359 2328 
Q 359 3453 968 4101 
Q 1578 4750 2638 4750 
Q 3056 4750 3426 4639 
Q 3797 4528 4122 4306 
z
" id="DejaVuSans-43" transform="scale(0.015625)"/>
       <path d="M 2906 2969 
L 2906 4863 
L 3481 4863 
L 3481 0 
L 2906 0 
L 2906 525 
Q 2725 213 2448 61 
Q 2172 -91 1784 -91 
Q 1150 -91 751 415 
Q 353 922 353 1747 
Q 353 2572 751 3078 
Q 1150 3584 1784 3584 
Q 2172 3584 2448 3432 
Q 2725 3281 2906 2969 
z
M 947 1747 
Q 947 1113 1208 752 
Q 1469 391 1925 391 
Q 2381 391 2643 752 
Q 2906 1113 2906 1747 
Q 2906 2381 2643 2742 
Q 2381 3103 1925 3103 
Q 1469 3103 1208 2742 
Q 947 2381 947 1747 
z
" id="DejaVuSans-64" transform="scale(0.015625)"/>
       <path d="M 2906 1791 
Q 2906 2416 2648 2759 
Q 2391 3103 1925 3103 
Q 1463 3103 1205 2759 
Q 947 2416 947 1791 
Q 947 1169 1205 825 
Q 1463 481 1925 481 
Q 2391 481 2648 825 
Q 2906 1169 2906 1791 
z
M 3481 434 
Q 3481 -459 3084 -895 
Q 2688 -1331 1869 -1331 
Q 1566 -1331 1297 -1286 
Q 1028 -1241 775 -1147 
L 775 -588 
Q 1028 -725 1275 -790 
Q 1522 -856 1778 -856 
Q 2344 -856 2625 -561 
Q 2906 -266 2906 331 
L 2906 616 
Q 2728 306 2450 153 
Q 2172 0 1784 0 
Q 1141 0 747 490 
Q 353 981 353 1791 
Q 353 2603 747 3093 
Q 1141 3584 1784 3584 
Q 2172 3584 2450 3431 
Q 2728 3278 2906 2969 
L 2906 3500 
L 3481 3500 
L 3481 434 
z
" id="DejaVuSans-67" transform="scale(0.015625)"/>
       <path d="M 3122 3366 
L 3122 2828 
Q 2878 2963 2633 3030 
Q 2388 3097 2138 3097 
Q 1578 3097 1268 2742 
Q 959 2388 959 1747 
Q 959 1106 1268 751 
Q 1578 397 2138 397 
Q 2388 397 2633 464 
Q 2878 531 3122 666 
L 3122 134 
Q 2881 22 2623 -34 
Q 2366 -91 2075 -91 
Q 1284 -91 818 406 
Q 353 903 353 1747 
Q 353 2603 823 3093 
Q 1294 3584 2113 3584 
Q 2378 3584 2631 3529 
Q 2884 3475 3122 3366 
z
" id="DejaVuSans-63" transform="scale(0.015625)"/>
       <path d="M 191 3500 
L 800 3500 
L 1894 563 
L 2988 3500 
L 3597 3500 
L 2284 0 
L 1503 0 
L 191 3500 
z
" id="DejaVuSans-76" transform="scale(0.015625)"/>
       <path d="M 2194 1759 
Q 1497 1759 1228 1600 
Q 959 1441 959 1056 
Q 959 750 1161 570 
Q 1363 391 1709 391 
Q 2188 391 2477 730 
Q 2766 1069 2766 1631 
L 2766 1759 
L 2194 1759 
z
M 3341 1997 
L 3341 0 
L 2766 0 
L 2766 531 
Q 2569 213 2275 61 
Q 1981 -91 1556 -91 
Q 1019 -91 701 211 
Q 384 513 384 1019 
Q 384 1609 779 1909 
Q 1175 2209 1959 2209 
L 2766 2209 
L 2766 2266 
Q 2766 2663 2505 2880 
Q 2244 3097 1772 3097 
Q 1472 3097 1187 3025 
Q 903 2953 641 2809 
L 641 3341 
Q 956 3463 1253 3523 
Q 1550 3584 1831 3584 
Q 2591 3584 2966 3190 
Q 3341 2797 3341 1997 
z
" id="DejaVuSans-61" transform="scale(0.015625)"/>
      </defs>
      <use xlink:href="#DejaVuSans-43"/>
      <use x="69.824219" xlink:href="#DejaVuSans-6f"/>
      <use x="131.005859" xlink:href="#DejaVuSans-64"/>
      <use x="194.482422" xlink:href="#DejaVuSans-65"/>
      <use x="256.005859" xlink:href="#DejaVuSans-20"/>
      <use x="287.792969" xlink:href="#DejaVuSans-72"/>
      <use x="326.65625" xlink:href="#DejaVuSans-65"/>
      <use x="388.179688" xlink:href="#DejaVuSans-67"/>
      <use x="451.65625" xlink:href="#DejaVuSans-69"/>
      <use x="479.439453" xlink:href="#DejaVuSans-6f"/>
      <use x="540.621094" xlink:href="#DejaVuSans-6e"/>
      <use x="604" xlink:href="#DejaVuSans-20"/>
      <use x="635.787109" xlink:href="#DejaVuSans-63"/>
      <use x="690.767578" xlink:href="#DejaVuSans-6f"/>
      <use x="751.949219" xlink:href="#DejaVuSans-76"/>
      <use x="811.128906" xlink:href="#DejaVuSans-65"/>
      <use x="872.652344" xlink:href="#DejaVuSans-72"/>
      <use x="913.765625" xlink:href="#DejaVuSans-61"/>
      <use x="975.044922" xlink:href="#DejaVuSans-67"/>
      <use x="1038.521484" xlink:href="#DejaVuSans-65"/>
     </g>
    </g>
   </g>
   <g id="line2d_32">
    <path clip-path="url(#pe25c1cb655)" d="M 75.923352 267.101208 
L 125.689806 230.327821 
L 154.801316 206.849833 
L 175.45626 187.838818 
L 191.47748 176.90001 
L 204.567769 163.112188 
L 215.635452 159.542127 
L 225.222714 143.081156 
L 233.679279 138.790048 
L 241.243934 130.840947 
L 248.086996 128.589874 
L 254.334223 115.611031 
L 260.081115 111.759586 
L 265.401906 109.244715 
L 270.355443 105.586722 
L 274.989168 101.71769 
L 279.341883 96.775881 
L 283.445733 94.630327 
L 287.327641 93.838935 
L 291.010388 92.90685 
L 294.513415 89.758865 
L 297.85345 86.118458 
L 301.04499 85.168786 
L 304.100677 84.693951 
L 307.031607 83.744279 
L 309.847569 81.440447 
L 312.557242 80.736986 
L 315.168359 79.083855 
L 317.68784 77.817626 
L 320.121897 77.817626 
L 322.476135 77.325204 
L 324.755622 76.938301 
L 326.96496 76.58657 
L 329.108337 75.672072 
L 331.189579 73.491345 
L 333.212187 72.119598 
L 335.179373 71.767867 
L 337.094095 71.627175 
L 338.959078 70.431293 
L 340.776842 70.04439 
L 342.549717 69.516794 
L 344.279869 69.200237 
L 345.969307 68.918853 
L 347.619904 68.672642 
L 349.233406 68.567123 
L 350.811444 68.567123 
L 352.355542 68.53195 
L 353.867131 68.53195 
L 355.347551 68.53195 
L 356.798061 67.82849 
L 358.219847 65.96432 
L 359.614023 65.96432 
L 360.981642 65.96432 
L 362.323696 64.909129 
L 363.641124 64.680505 
L 364.934813 64.539813 
L 366.205604 64.45188 
L 367.454294 64.170496 
L 368.681636 64.10015 
L 369.888351 63.994631 
L 371.075119 63.273584 
L 372.242589 63.238411 
L 373.391378 63.115306 
L 374.522076 63.185652 
L 375.635243 62.93944 
L 376.731414 62.833921 
L 377.8111 60.336637 
L 378.874791 60.336637 
L 379.922953 60.231118 
L 380.956033 60.231118 
L 381.974459 58.859371 
L 382.978641 58.789025 
L 383.968971 58.402122 
L 384.945827 58.331775 
L 385.909571 58.331775 
L 386.860549 58.296602 
L 387.799096 58.261429 
L 388.725532 58.261429 
L 389.640166 58.261429 
L 390.543295 58.261429 
L 391.435205 57.276585 
L 392.316171 57.258999 
L 393.186458 57.04796 
L 394.046323 56.977614 
L 394.896011 56.977614 
L 395.735761 55.306896 
L 396.565803 55.306896 
L 397.386358 55.131031 
L 398.197642 52.844785 
L 398.99986 52.739266 
L 399.793214 52.704093 
L 400.577898 52.457882 
" style="fill:none;stroke:#98df8a;stroke-linecap:square;stroke-width:1.5;"/>
    <defs>
     <path d="M -0 3 
L 3 -3 
L -3 -3 
z
" id="m6276d17bee" style="stroke:#ffffff;stroke-linejoin:miter;stroke-width:0.75;"/>
    </defs>
    <g clip-path="url(#pe25c1cb655)">
     <use style="fill:#98df8a;stroke:#ffffff;stroke-linejoin:miter;stroke-width:0.75;" x="75.923352" xlink:href="#m6276d17bee" y="267.101208"/>
     <use style="fill:#98df8a;stroke:#ffffff;stroke-linejoin:miter;stroke-width:0.75;" x="125.689806" xlink:href="#m6276d17bee" y="230.327821"/>
     <use style="fill:#98df8a;stroke:#ffffff;stroke-linejoin:miter;stroke-width:0.75;" x="154.801316" xlink:href="#m6276d17bee" y="206.849833"/>
     <use style="fill:#98df8a;stroke:#ffffff;stroke-linejoin:miter;stroke-width:0.75;" x="175.45626" xlink:href="#m6276d17bee" y="187.838818"/>
     <use style="fill:#98df8a;stroke:#ffffff;stroke-linejoin:miter;stroke-width:0.75;" x="191.47748" xlink:href="#m6276d17bee" y="176.90001"/>
     <use style="fill:#98df8a;stroke:#ffffff;stroke-linejoin:miter;stroke-width:0.75;" x="204.567769" xlink:href="#m6276d17bee" y="163.112188"/>
     <use style="fill:#98df8a;stroke:#ffffff;stroke-linejoin:miter;stroke-width:0.75;" x="215.635452" xlink:href="#m6276d17bee" y="159.542127"/>
     <use style="fill:#98df8a;stroke:#ffffff;stroke-linejoin:miter;stroke-width:0.75;" x="225.222714" xlink:href="#m6276d17bee" y="143.081156"/>
     <use style="fill:#98df8a;stroke:#ffffff;stroke-linejoin:miter;stroke-width:0.75;" x="233.679279" xlink:href="#m6276d17bee" y="138.790048"/>
     <use style="fill:#98df8a;stroke:#ffffff;stroke-linejoin:miter;stroke-width:0.75;" x="241.243934" xlink:href="#m6276d17bee" y="130.840947"/>
     <use style="fill:#98df8a;stroke:#ffffff;stroke-linejoin:miter;stroke-width:0.75;" x="248.086996" xlink:href="#m6276d17bee" y="128.589874"/>
     <use style="fill:#98df8a;stroke:#ffffff;stroke-linejoin:miter;stroke-width:0.75;" x="254.334223" xlink:href="#m6276d17bee" y="115.611031"/>
     <use style="fill:#98df8a;stroke:#ffffff;stroke-linejoin:miter;stroke-width:0.75;" x="260.081115" xlink:href="#m6276d17bee" y="111.759586"/>
     <use style="fill:#98df8a;stroke:#ffffff;stroke-linejoin:miter;stroke-width:0.75;" x="265.401906" xlink:href="#m6276d17bee" y="109.244715"/>
     <use style="fill:#98df8a;stroke:#ffffff;stroke-linejoin:miter;stroke-width:0.75;" x="270.355443" xlink:href="#m6276d17bee" y="105.586722"/>
     <use style="fill:#98df8a;stroke:#ffffff;stroke-linejoin:miter;stroke-width:0.75;" x="274.989168" xlink:href="#m6276d17bee" y="101.71769"/>
     <use style="fill:#98df8a;stroke:#ffffff;stroke-linejoin:miter;stroke-width:0.75;" x="279.341883" xlink:href="#m6276d17bee" y="96.775881"/>
     <use style="fill:#98df8a;stroke:#ffffff;stroke-linejoin:miter;stroke-width:0.75;" x="283.445733" xlink:href="#m6276d17bee" y="94.630327"/>
     <use style="fill:#98df8a;stroke:#ffffff;stroke-linejoin:miter;stroke-width:0.75;" x="287.327641" xlink:href="#m6276d17bee" y="93.838935"/>
     <use style="fill:#98df8a;stroke:#ffffff;stroke-linejoin:miter;stroke-width:0.75;" x="291.010388" xlink:href="#m6276d17bee" y="92.90685"/>
     <use style="fill:#98df8a;stroke:#ffffff;stroke-linejoin:miter;stroke-width:0.75;" x="294.513415" xlink:href="#m6276d17bee" y="89.758865"/>
     <use style="fill:#98df8a;stroke:#ffffff;stroke-linejoin:miter;stroke-width:0.75;" x="297.85345" xlink:href="#m6276d17bee" y="86.118458"/>
     <use style="fill:#98df8a;stroke:#ffffff;stroke-linejoin:miter;stroke-width:0.75;" x="301.04499" xlink:href="#m6276d17bee" y="85.168786"/>
     <use style="fill:#98df8a;stroke:#ffffff;stroke-linejoin:miter;stroke-width:0.75;" x="304.100677" xlink:href="#m6276d17bee" y="84.693951"/>
     <use style="fill:#98df8a;stroke:#ffffff;stroke-linejoin:miter;stroke-width:0.75;" x="307.031607" xlink:href="#m6276d17bee" y="83.744279"/>
     <use style="fill:#98df8a;stroke:#ffffff;stroke-linejoin:miter;stroke-width:0.75;" x="309.847569" xlink:href="#m6276d17bee" y="81.440447"/>
     <use style="fill:#98df8a;stroke:#ffffff;stroke-linejoin:miter;stroke-width:0.75;" x="312.557242" xlink:href="#m6276d17bee" y="80.736986"/>
     <use style="fill:#98df8a;stroke:#ffffff;stroke-linejoin:miter;stroke-width:0.75;" x="315.168359" xlink:href="#m6276d17bee" y="79.083855"/>
     <use style="fill:#98df8a;stroke:#ffffff;stroke-linejoin:miter;stroke-width:0.75;" x="317.68784" xlink:href="#m6276d17bee" y="77.817626"/>
     <use style="fill:#98df8a;stroke:#ffffff;stroke-linejoin:miter;stroke-width:0.75;" x="320.121897" xlink:href="#m6276d17bee" y="77.817626"/>
     <use style="fill:#98df8a;stroke:#ffffff;stroke-linejoin:miter;stroke-width:0.75;" x="322.476135" xlink:href="#m6276d17bee" y="77.325204"/>
     <use style="fill:#98df8a;stroke:#ffffff;stroke-linejoin:miter;stroke-width:0.75;" x="324.755622" xlink:href="#m6276d17bee" y="76.938301"/>
     <use style="fill:#98df8a;stroke:#ffffff;stroke-linejoin:miter;stroke-width:0.75;" x="326.96496" xlink:href="#m6276d17bee" y="76.58657"/>
     <use style="fill:#98df8a;stroke:#ffffff;stroke-linejoin:miter;stroke-width:0.75;" x="329.108337" xlink:href="#m6276d17bee" y="75.672072"/>
     <use style="fill:#98df8a;stroke:#ffffff;stroke-linejoin:miter;stroke-width:0.75;" x="331.189579" xlink:href="#m6276d17bee" y="73.491345"/>
     <use style="fill:#98df8a;stroke:#ffffff;stroke-linejoin:miter;stroke-width:0.75;" x="333.212187" xlink:href="#m6276d17bee" y="72.119598"/>
     <use style="fill:#98df8a;stroke:#ffffff;stroke-linejoin:miter;stroke-width:0.75;" x="335.179373" xlink:href="#m6276d17bee" y="71.767867"/>
     <use style="fill:#98df8a;stroke:#ffffff;stroke-linejoin:miter;stroke-width:0.75;" x="337.094095" xlink:href="#m6276d17bee" y="71.627175"/>
     <use style="fill:#98df8a;stroke:#ffffff;stroke-linejoin:miter;stroke-width:0.75;" x="338.959078" xlink:href="#m6276d17bee" y="70.431293"/>
     <use style="fill:#98df8a;stroke:#ffffff;stroke-linejoin:miter;stroke-width:0.75;" x="340.776842" xlink:href="#m6276d17bee" y="70.04439"/>
     <use style="fill:#98df8a;stroke:#ffffff;stroke-linejoin:miter;stroke-width:0.75;" x="342.549717" xlink:href="#m6276d17bee" y="69.516794"/>
     <use style="fill:#98df8a;stroke:#ffffff;stroke-linejoin:miter;stroke-width:0.75;" x="344.279869" xlink:href="#m6276d17bee" y="69.200237"/>
     <use style="fill:#98df8a;stroke:#ffffff;stroke-linejoin:miter;stroke-width:0.75;" x="345.969307" xlink:href="#m6276d17bee" y="68.918853"/>
     <use style="fill:#98df8a;stroke:#ffffff;stroke-linejoin:miter;stroke-width:0.75;" x="347.619904" xlink:href="#m6276d17bee" y="68.672642"/>
     <use style="fill:#98df8a;stroke:#ffffff;stroke-linejoin:miter;stroke-width:0.75;" x="349.233406" xlink:href="#m6276d17bee" y="68.567123"/>
     <use style="fill:#98df8a;stroke:#ffffff;stroke-linejoin:miter;stroke-width:0.75;" x="350.811444" xlink:href="#m6276d17bee" y="68.567123"/>
     <use style="fill:#98df8a;stroke:#ffffff;stroke-linejoin:miter;stroke-width:0.75;" x="352.355542" xlink:href="#m6276d17bee" y="68.53195"/>
     <use style="fill:#98df8a;stroke:#ffffff;stroke-linejoin:miter;stroke-width:0.75;" x="353.867131" xlink:href="#m6276d17bee" y="68.53195"/>
     <use style="fill:#98df8a;stroke:#ffffff;stroke-linejoin:miter;stroke-width:0.75;" x="355.347551" xlink:href="#m6276d17bee" y="68.53195"/>
     <use style="fill:#98df8a;stroke:#ffffff;stroke-linejoin:miter;stroke-width:0.75;" x="356.798061" xlink:href="#m6276d17bee" y="67.82849"/>
     <use style="fill:#98df8a;stroke:#ffffff;stroke-linejoin:miter;stroke-width:0.75;" x="358.219847" xlink:href="#m6276d17bee" y="65.96432"/>
     <use style="fill:#98df8a;stroke:#ffffff;stroke-linejoin:miter;stroke-width:0.75;" x="359.614023" xlink:href="#m6276d17bee" y="65.96432"/>
     <use style="fill:#98df8a;stroke:#ffffff;stroke-linejoin:miter;stroke-width:0.75;" x="360.981642" xlink:href="#m6276d17bee" y="65.96432"/>
     <use style="fill:#98df8a;stroke:#ffffff;stroke-linejoin:miter;stroke-width:0.75;" x="362.323696" xlink:href="#m6276d17bee" y="64.909129"/>
     <use style="fill:#98df8a;stroke:#ffffff;stroke-linejoin:miter;stroke-width:0.75;" x="363.641124" xlink:href="#m6276d17bee" y="64.680505"/>
     <use style="fill:#98df8a;stroke:#ffffff;stroke-linejoin:miter;stroke-width:0.75;" x="364.934813" xlink:href="#m6276d17bee" y="64.539813"/>
     <use style="fill:#98df8a;stroke:#ffffff;stroke-linejoin:miter;stroke-width:0.75;" x="366.205604" xlink:href="#m6276d17bee" y="64.45188"/>
     <use style="fill:#98df8a;stroke:#ffffff;stroke-linejoin:miter;stroke-width:0.75;" x="367.454294" xlink:href="#m6276d17bee" y="64.170496"/>
     <use style="fill:#98df8a;stroke:#ffffff;stroke-linejoin:miter;stroke-width:0.75;" x="368.681636" xlink:href="#m6276d17bee" y="64.10015"/>
     <use style="fill:#98df8a;stroke:#ffffff;stroke-linejoin:miter;stroke-width:0.75;" x="369.888351" xlink:href="#m6276d17bee" y="63.994631"/>
     <use style="fill:#98df8a;stroke:#ffffff;stroke-linejoin:miter;stroke-width:0.75;" x="371.075119" xlink:href="#m6276d17bee" y="63.273584"/>
     <use style="fill:#98df8a;stroke:#ffffff;stroke-linejoin:miter;stroke-width:0.75;" x="372.242589" xlink:href="#m6276d17bee" y="63.238411"/>
     <use style="fill:#98df8a;stroke:#ffffff;stroke-linejoin:miter;stroke-width:0.75;" x="373.391378" xlink:href="#m6276d17bee" y="63.115306"/>
     <use style="fill:#98df8a;stroke:#ffffff;stroke-linejoin:miter;stroke-width:0.75;" x="374.522076" xlink:href="#m6276d17bee" y="63.185652"/>
     <use style="fill:#98df8a;stroke:#ffffff;stroke-linejoin:miter;stroke-width:0.75;" x="375.635243" xlink:href="#m6276d17bee" y="62.93944"/>
     <use style="fill:#98df8a;stroke:#ffffff;stroke-linejoin:miter;stroke-width:0.75;" x="376.731414" xlink:href="#m6276d17bee" y="62.833921"/>
     <use style="fill:#98df8a;stroke:#ffffff;stroke-linejoin:miter;stroke-width:0.75;" x="377.8111" xlink:href="#m6276d17bee" y="60.336637"/>
     <use style="fill:#98df8a;stroke:#ffffff;stroke-linejoin:miter;stroke-width:0.75;" x="378.874791" xlink:href="#m6276d17bee" y="60.336637"/>
     <use style="fill:#98df8a;stroke:#ffffff;stroke-linejoin:miter;stroke-width:0.75;" x="379.922953" xlink:href="#m6276d17bee" y="60.231118"/>
     <use style="fill:#98df8a;stroke:#ffffff;stroke-linejoin:miter;stroke-width:0.75;" x="380.956033" xlink:href="#m6276d17bee" y="60.231118"/>
     <use style="fill:#98df8a;stroke:#ffffff;stroke-linejoin:miter;stroke-width:0.75;" x="381.974459" xlink:href="#m6276d17bee" y="58.859371"/>
     <use style="fill:#98df8a;stroke:#ffffff;stroke-linejoin:miter;stroke-width:0.75;" x="382.978641" xlink:href="#m6276d17bee" y="58.789025"/>
     <use style="fill:#98df8a;stroke:#ffffff;stroke-linejoin:miter;stroke-width:0.75;" x="383.968971" xlink:href="#m6276d17bee" y="58.402122"/>
     <use style="fill:#98df8a;stroke:#ffffff;stroke-linejoin:miter;stroke-width:0.75;" x="384.945827" xlink:href="#m6276d17bee" y="58.331775"/>
     <use style="fill:#98df8a;stroke:#ffffff;stroke-linejoin:miter;stroke-width:0.75;" x="385.909571" xlink:href="#m6276d17bee" y="58.331775"/>
     <use style="fill:#98df8a;stroke:#ffffff;stroke-linejoin:miter;stroke-width:0.75;" x="386.860549" xlink:href="#m6276d17bee" y="58.296602"/>
     <use style="fill:#98df8a;stroke:#ffffff;stroke-linejoin:miter;stroke-width:0.75;" x="387.799096" xlink:href="#m6276d17bee" y="58.261429"/>
     <use style="fill:#98df8a;stroke:#ffffff;stroke-linejoin:miter;stroke-width:0.75;" x="388.725532" xlink:href="#m6276d17bee" y="58.261429"/>
     <use style="fill:#98df8a;stroke:#ffffff;stroke-linejoin:miter;stroke-width:0.75;" x="389.640166" xlink:href="#m6276d17bee" y="58.261429"/>
     <use style="fill:#98df8a;stroke:#ffffff;stroke-linejoin:miter;stroke-width:0.75;" x="390.543295" xlink:href="#m6276d17bee" y="58.261429"/>
     <use style="fill:#98df8a;stroke:#ffffff;stroke-linejoin:miter;stroke-width:0.75;" x="391.435205" xlink:href="#m6276d17bee" y="57.276585"/>
     <use style="fill:#98df8a;stroke:#ffffff;stroke-linejoin:miter;stroke-width:0.75;" x="392.316171" xlink:href="#m6276d17bee" y="57.258999"/>
     <use style="fill:#98df8a;stroke:#ffffff;stroke-linejoin:miter;stroke-width:0.75;" x="393.186458" xlink:href="#m6276d17bee" y="57.04796"/>
     <use style="fill:#98df8a;stroke:#ffffff;stroke-linejoin:miter;stroke-width:0.75;" x="394.046323" xlink:href="#m6276d17bee" y="56.977614"/>
     <use style="fill:#98df8a;stroke:#ffffff;stroke-linejoin:miter;stroke-width:0.75;" x="394.896011" xlink:href="#m6276d17bee" y="56.977614"/>
     <use style="fill:#98df8a;stroke:#ffffff;stroke-linejoin:miter;stroke-width:0.75;" x="395.735761" xlink:href="#m6276d17bee" y="55.306896"/>
     <use style="fill:#98df8a;stroke:#ffffff;stroke-linejoin:miter;stroke-width:0.75;" x="396.565803" xlink:href="#m6276d17bee" y="55.306896"/>
     <use style="fill:#98df8a;stroke:#ffffff;stroke-linejoin:miter;stroke-width:0.75;" x="397.386358" xlink:href="#m6276d17bee" y="55.131031"/>
     <use style="fill:#98df8a;stroke:#ffffff;stroke-linejoin:miter;stroke-width:0.75;" x="398.197642" xlink:href="#m6276d17bee" y="52.844785"/>
     <use style="fill:#98df8a;stroke:#ffffff;stroke-linejoin:miter;stroke-width:0.75;" x="398.99986" xlink:href="#m6276d17bee" y="52.739266"/>
     <use style="fill:#98df8a;stroke:#ffffff;stroke-linejoin:miter;stroke-width:0.75;" x="399.793214" xlink:href="#m6276d17bee" y="52.704093"/>
     <use style="fill:#98df8a;stroke:#ffffff;stroke-linejoin:miter;stroke-width:0.75;" x="400.577898" xlink:href="#m6276d17bee" y="52.457882"/>
    </g>
   </g>
   <g id="line2d_33">
    <path clip-path="url(#pe25c1cb655)" d="M 75.923352 247.40432 
L 125.689806 209.646088 
L 154.801316 177.269327 
L 175.45626 162.514247 
L 191.47748 150.133346 
L 204.567769 143.257021 
L 215.635452 142.008379 
L 225.222714 134.586873 
L 233.679279 129.557132 
L 241.243934 127.745721 
L 248.086996 118.565564 
L 254.334223 111.196818 
L 260.081115 107.398132 
L 265.401906 106.167076 
L 270.355443 103.247716 
L 274.989168 103.17737 
L 279.341883 102.614602 
L 283.445733 102.614602 
L 287.327641 101.875969 
L 291.010388 101.066989 
L 294.513415 100.046972 
L 297.85345 99.308338 
L 301.04499 99.062127 
L 304.100677 97.760726 
L 307.031607 97.092438 
L 309.847569 97.092438 
L 312.557242 95.861383 
L 315.168359 94.982058 
L 317.68784 94.137905 
L 320.121897 93.539964 
L 322.476135 93.539964 
L 324.755622 93.082715 
L 326.96496 90.444739 
L 329.108337 90.304046 
L 331.189579 88.932299 
L 333.212187 88.721261 
L 335.179373 88.580569 
L 337.094095 88.299185 
L 338.959078 87.947454 
L 340.776842 87.806762 
L 342.549717 86.118458 
L 344.279869 86.118458 
L 345.969307 85.872247 
L 347.619904 85.801901 
L 349.233406 85.590862 
L 350.811444 85.520516 
L 352.355542 85.555689 
L 353.867131 85.028094 
L 355.347551 84.957748 
L 356.798061 84.535672 
L 358.219847 83.902558 
L 359.614023 83.445308 
L 360.981642 83.445308 
L 362.323696 83.199097 
L 363.641124 83.058405 
L 364.934813 83.058405 
L 366.205604 82.53081 
L 367.454294 82.003215 
L 368.681636 81.159062 
L 369.888351 80.807332 
L 371.075119 80.807332 
L 372.242589 80.772159 
L 373.391378 80.772159 
L 374.522076 79.365239 
L 375.635243 79.242133 
L 376.731414 79.242133 
L 377.8111 78.978336 
L 378.874791 78.978336 
L 379.922953 78.837643 
L 380.956033 78.732124 
L 381.974459 78.521086 
L 382.978641 78.292462 
L 383.968971 78.15177 
L 384.945827 75.214823 
L 385.909571 75.091717 
L 386.860549 75.056544 
L 387.799096 75.056544 
L 388.725532 74.739987 
L 389.640166 74.599295 
L 390.543295 74.564122 
L 391.435205 74.493776 
L 392.316171 74.47619 
L 393.186458 74.47619 
L 394.046323 71.416137 
L 394.896011 71.416137 
L 395.735761 71.416137 
L 396.565803 71.416137 
L 397.386358 71.345791 
L 398.197642 71.310618 
L 398.99986 71.310618 
L 399.793214 70.994061 
L 400.577898 70.994061 
" style="fill:none;stroke:#1f77b4;stroke-linecap:square;stroke-width:1.5;"/>
    <defs>
     <path d="M 0 3 
C 0.795609 3 1.55874 2.683901 2.12132 2.12132 
C 2.683901 1.55874 3 0.795609 3 0 
C 3 -0.795609 2.683901 -1.55874 2.12132 -2.12132 
C 1.55874 -2.683901 0.795609 -3 0 -3 
C -0.795609 -3 -1.55874 -2.683901 -2.12132 -2.12132 
C -2.683901 -1.55874 -3 -0.795609 -3 0 
C -3 0.795609 -2.683901 1.55874 -2.12132 2.12132 
C -1.55874 2.683901 -0.795609 3 0 3 
z
" id="m3e73076596" style="stroke:#ffffff;stroke-width:0.75;"/>
    </defs>
    <g clip-path="url(#pe25c1cb655)">
     <use style="fill:#1f77b4;stroke:#ffffff;stroke-width:0.75;" x="75.923352" xlink:href="#m3e73076596" y="247.40432"/>
     <use style="fill:#1f77b4;stroke:#ffffff;stroke-width:0.75;" x="125.689806" xlink:href="#m3e73076596" y="209.646088"/>
     <use style="fill:#1f77b4;stroke:#ffffff;stroke-width:0.75;" x="154.801316" xlink:href="#m3e73076596" y="177.269327"/>
     <use style="fill:#1f77b4;stroke:#ffffff;stroke-width:0.75;" x="175.45626" xlink:href="#m3e73076596" y="162.514247"/>
     <use style="fill:#1f77b4;stroke:#ffffff;stroke-width:0.75;" x="191.47748" xlink:href="#m3e73076596" y="150.133346"/>
     <use style="fill:#1f77b4;stroke:#ffffff;stroke-width:0.75;" x="204.567769" xlink:href="#m3e73076596" y="143.257021"/>
     <use style="fill:#1f77b4;stroke:#ffffff;stroke-width:0.75;" x="215.635452" xlink:href="#m3e73076596" y="142.008379"/>
     <use style="fill:#1f77b4;stroke:#ffffff;stroke-width:0.75;" x="225.222714" xlink:href="#m3e73076596" y="134.586873"/>
     <use style="fill:#1f77b4;stroke:#ffffff;stroke-width:0.75;" x="233.679279" xlink:href="#m3e73076596" y="129.557132"/>
     <use style="fill:#1f77b4;stroke:#ffffff;stroke-width:0.75;" x="241.243934" xlink:href="#m3e73076596" y="127.745721"/>
     <use style="fill:#1f77b4;stroke:#ffffff;stroke-width:0.75;" x="248.086996" xlink:href="#m3e73076596" y="118.565564"/>
     <use style="fill:#1f77b4;stroke:#ffffff;stroke-width:0.75;" x="254.334223" xlink:href="#m3e73076596" y="111.196818"/>
     <use style="fill:#1f77b4;stroke:#ffffff;stroke-width:0.75;" x="260.081115" xlink:href="#m3e73076596" y="107.398132"/>
     <use style="fill:#1f77b4;stroke:#ffffff;stroke-width:0.75;" x="265.401906" xlink:href="#m3e73076596" y="106.167076"/>
     <use style="fill:#1f77b4;stroke:#ffffff;stroke-width:0.75;" x="270.355443" xlink:href="#m3e73076596" y="103.247716"/>
     <use style="fill:#1f77b4;stroke:#ffffff;stroke-width:0.75;" x="274.989168" xlink:href="#m3e73076596" y="103.17737"/>
     <use style="fill:#1f77b4;stroke:#ffffff;stroke-width:0.75;" x="279.341883" xlink:href="#m3e73076596" y="102.614602"/>
     <use style="fill:#1f77b4;stroke:#ffffff;stroke-width:0.75;" x="283.445733" xlink:href="#m3e73076596" y="102.614602"/>
     <use style="fill:#1f77b4;stroke:#ffffff;stroke-width:0.75;" x="287.327641" xlink:href="#m3e73076596" y="101.875969"/>
     <use style="fill:#1f77b4;stroke:#ffffff;stroke-width:0.75;" x="291.010388" xlink:href="#m3e73076596" y="101.066989"/>
     <use style="fill:#1f77b4;stroke:#ffffff;stroke-width:0.75;" x="294.513415" xlink:href="#m3e73076596" y="100.046972"/>
     <use style="fill:#1f77b4;stroke:#ffffff;stroke-width:0.75;" x="297.85345" xlink:href="#m3e73076596" y="99.308338"/>
     <use style="fill:#1f77b4;stroke:#ffffff;stroke-width:0.75;" x="301.04499" xlink:href="#m3e73076596" y="99.062127"/>
     <use style="fill:#1f77b4;stroke:#ffffff;stroke-width:0.75;" x="304.100677" xlink:href="#m3e73076596" y="97.760726"/>
     <use style="fill:#1f77b4;stroke:#ffffff;stroke-width:0.75;" x="307.031607" xlink:href="#m3e73076596" y="97.092438"/>
     <use style="fill:#1f77b4;stroke:#ffffff;stroke-width:0.75;" x="309.847569" xlink:href="#m3e73076596" y="97.092438"/>
     <use style="fill:#1f77b4;stroke:#ffffff;stroke-width:0.75;" x="312.557242" xlink:href="#m3e73076596" y="95.861383"/>
     <use style="fill:#1f77b4;stroke:#ffffff;stroke-width:0.75;" x="315.168359" xlink:href="#m3e73076596" y="94.982058"/>
     <use style="fill:#1f77b4;stroke:#ffffff;stroke-width:0.75;" x="317.68784" xlink:href="#m3e73076596" y="94.137905"/>
     <use style="fill:#1f77b4;stroke:#ffffff;stroke-width:0.75;" x="320.121897" xlink:href="#m3e73076596" y="93.539964"/>
     <use style="fill:#1f77b4;stroke:#ffffff;stroke-width:0.75;" x="322.476135" xlink:href="#m3e73076596" y="93.539964"/>
     <use style="fill:#1f77b4;stroke:#ffffff;stroke-width:0.75;" x="324.755622" xlink:href="#m3e73076596" y="93.082715"/>
     <use style="fill:#1f77b4;stroke:#ffffff;stroke-width:0.75;" x="326.96496" xlink:href="#m3e73076596" y="90.444739"/>
     <use style="fill:#1f77b4;stroke:#ffffff;stroke-width:0.75;" x="329.108337" xlink:href="#m3e73076596" y="90.304046"/>
     <use style="fill:#1f77b4;stroke:#ffffff;stroke-width:0.75;" x="331.189579" xlink:href="#m3e73076596" y="88.932299"/>
     <use style="fill:#1f77b4;stroke:#ffffff;stroke-width:0.75;" x="333.212187" xlink:href="#m3e73076596" y="88.721261"/>
     <use style="fill:#1f77b4;stroke:#ffffff;stroke-width:0.75;" x="335.179373" xlink:href="#m3e73076596" y="88.580569"/>
     <use style="fill:#1f77b4;stroke:#ffffff;stroke-width:0.75;" x="337.094095" xlink:href="#m3e73076596" y="88.299185"/>
     <use style="fill:#1f77b4;stroke:#ffffff;stroke-width:0.75;" x="338.959078" xlink:href="#m3e73076596" y="87.947454"/>
     <use style="fill:#1f77b4;stroke:#ffffff;stroke-width:0.75;" x="340.776842" xlink:href="#m3e73076596" y="87.806762"/>
     <use style="fill:#1f77b4;stroke:#ffffff;stroke-width:0.75;" x="342.549717" xlink:href="#m3e73076596" y="86.118458"/>
     <use style="fill:#1f77b4;stroke:#ffffff;stroke-width:0.75;" x="344.279869" xlink:href="#m3e73076596" y="86.118458"/>
     <use style="fill:#1f77b4;stroke:#ffffff;stroke-width:0.75;" x="345.969307" xlink:href="#m3e73076596" y="85.872247"/>
     <use style="fill:#1f77b4;stroke:#ffffff;stroke-width:0.75;" x="347.619904" xlink:href="#m3e73076596" y="85.801901"/>
     <use style="fill:#1f77b4;stroke:#ffffff;stroke-width:0.75;" x="349.233406" xlink:href="#m3e73076596" y="85.590862"/>
     <use style="fill:#1f77b4;stroke:#ffffff;stroke-width:0.75;" x="350.811444" xlink:href="#m3e73076596" y="85.520516"/>
     <use style="fill:#1f77b4;stroke:#ffffff;stroke-width:0.75;" x="352.355542" xlink:href="#m3e73076596" y="85.555689"/>
     <use style="fill:#1f77b4;stroke:#ffffff;stroke-width:0.75;" x="353.867131" xlink:href="#m3e73076596" y="85.028094"/>
     <use style="fill:#1f77b4;stroke:#ffffff;stroke-width:0.75;" x="355.347551" xlink:href="#m3e73076596" y="84.957748"/>
     <use style="fill:#1f77b4;stroke:#ffffff;stroke-width:0.75;" x="356.798061" xlink:href="#m3e73076596" y="84.535672"/>
     <use style="fill:#1f77b4;stroke:#ffffff;stroke-width:0.75;" x="358.219847" xlink:href="#m3e73076596" y="83.902558"/>
     <use style="fill:#1f77b4;stroke:#ffffff;stroke-width:0.75;" x="359.614023" xlink:href="#m3e73076596" y="83.445308"/>
     <use style="fill:#1f77b4;stroke:#ffffff;stroke-width:0.75;" x="360.981642" xlink:href="#m3e73076596" y="83.445308"/>
     <use style="fill:#1f77b4;stroke:#ffffff;stroke-width:0.75;" x="362.323696" xlink:href="#m3e73076596" y="83.199097"/>
     <use style="fill:#1f77b4;stroke:#ffffff;stroke-width:0.75;" x="363.641124" xlink:href="#m3e73076596" y="83.058405"/>
     <use style="fill:#1f77b4;stroke:#ffffff;stroke-width:0.75;" x="364.934813" xlink:href="#m3e73076596" y="83.058405"/>
     <use style="fill:#1f77b4;stroke:#ffffff;stroke-width:0.75;" x="366.205604" xlink:href="#m3e73076596" y="82.53081"/>
     <use style="fill:#1f77b4;stroke:#ffffff;stroke-width:0.75;" x="367.454294" xlink:href="#m3e73076596" y="82.003215"/>
     <use style="fill:#1f77b4;stroke:#ffffff;stroke-width:0.75;" x="368.681636" xlink:href="#m3e73076596" y="81.159062"/>
     <use style="fill:#1f77b4;stroke:#ffffff;stroke-width:0.75;" x="369.888351" xlink:href="#m3e73076596" y="80.807332"/>
     <use style="fill:#1f77b4;stroke:#ffffff;stroke-width:0.75;" x="371.075119" xlink:href="#m3e73076596" y="80.807332"/>
     <use style="fill:#1f77b4;stroke:#ffffff;stroke-width:0.75;" x="372.242589" xlink:href="#m3e73076596" y="80.772159"/>
     <use style="fill:#1f77b4;stroke:#ffffff;stroke-width:0.75;" x="373.391378" xlink:href="#m3e73076596" y="80.772159"/>
     <use style="fill:#1f77b4;stroke:#ffffff;stroke-width:0.75;" x="374.522076" xlink:href="#m3e73076596" y="79.365239"/>
     <use style="fill:#1f77b4;stroke:#ffffff;stroke-width:0.75;" x="375.635243" xlink:href="#m3e73076596" y="79.242133"/>
     <use style="fill:#1f77b4;stroke:#ffffff;stroke-width:0.75;" x="376.731414" xlink:href="#m3e73076596" y="79.242133"/>
     <use style="fill:#1f77b4;stroke:#ffffff;stroke-width:0.75;" x="377.8111" xlink:href="#m3e73076596" y="78.978336"/>
     <use style="fill:#1f77b4;stroke:#ffffff;stroke-width:0.75;" x="378.874791" xlink:href="#m3e73076596" y="78.978336"/>
     <use style="fill:#1f77b4;stroke:#ffffff;stroke-width:0.75;" x="379.922953" xlink:href="#m3e73076596" y="78.837643"/>
     <use style="fill:#1f77b4;stroke:#ffffff;stroke-width:0.75;" x="380.956033" xlink:href="#m3e73076596" y="78.732124"/>
     <use style="fill:#1f77b4;stroke:#ffffff;stroke-width:0.75;" x="381.974459" xlink:href="#m3e73076596" y="78.521086"/>
     <use style="fill:#1f77b4;stroke:#ffffff;stroke-width:0.75;" x="382.978641" xlink:href="#m3e73076596" y="78.292462"/>
     <use style="fill:#1f77b4;stroke:#ffffff;stroke-width:0.75;" x="383.968971" xlink:href="#m3e73076596" y="78.15177"/>
     <use style="fill:#1f77b4;stroke:#ffffff;stroke-width:0.75;" x="384.945827" xlink:href="#m3e73076596" y="75.214823"/>
     <use style="fill:#1f77b4;stroke:#ffffff;stroke-width:0.75;" x="385.909571" xlink:href="#m3e73076596" y="75.091717"/>
     <use style="fill:#1f77b4;stroke:#ffffff;stroke-width:0.75;" x="386.860549" xlink:href="#m3e73076596" y="75.056544"/>
     <use style="fill:#1f77b4;stroke:#ffffff;stroke-width:0.75;" x="387.799096" xlink:href="#m3e73076596" y="75.056544"/>
     <use style="fill:#1f77b4;stroke:#ffffff;stroke-width:0.75;" x="388.725532" xlink:href="#m3e73076596" y="74.739987"/>
     <use style="fill:#1f77b4;stroke:#ffffff;stroke-width:0.75;" x="389.640166" xlink:href="#m3e73076596" y="74.599295"/>
     <use style="fill:#1f77b4;stroke:#ffffff;stroke-width:0.75;" x="390.543295" xlink:href="#m3e73076596" y="74.564122"/>
     <use style="fill:#1f77b4;stroke:#ffffff;stroke-width:0.75;" x="391.435205" xlink:href="#m3e73076596" y="74.493776"/>
     <use style="fill:#1f77b4;stroke:#ffffff;stroke-width:0.75;" x="392.316171" xlink:href="#m3e73076596" y="74.47619"/>
     <use style="fill:#1f77b4;stroke:#ffffff;stroke-width:0.75;" x="393.186458" xlink:href="#m3e73076596" y="74.47619"/>
     <use style="fill:#1f77b4;stroke:#ffffff;stroke-width:0.75;" x="394.046323" xlink:href="#m3e73076596" y="71.416137"/>
     <use style="fill:#1f77b4;stroke:#ffffff;stroke-width:0.75;" x="394.896011" xlink:href="#m3e73076596" y="71.416137"/>
     <use style="fill:#1f77b4;stroke:#ffffff;stroke-width:0.75;" x="395.735761" xlink:href="#m3e73076596" y="71.416137"/>
     <use style="fill:#1f77b4;stroke:#ffffff;stroke-width:0.75;" x="396.565803" xlink:href="#m3e73076596" y="71.416137"/>
     <use style="fill:#1f77b4;stroke:#ffffff;stroke-width:0.75;" x="397.386358" xlink:href="#m3e73076596" y="71.345791"/>
     <use style="fill:#1f77b4;stroke:#ffffff;stroke-width:0.75;" x="398.197642" xlink:href="#m3e73076596" y="71.310618"/>
     <use style="fill:#1f77b4;stroke:#ffffff;stroke-width:0.75;" x="398.99986" xlink:href="#m3e73076596" y="71.310618"/>
     <use style="fill:#1f77b4;stroke:#ffffff;stroke-width:0.75;" x="399.793214" xlink:href="#m3e73076596" y="70.994061"/>
     <use style="fill:#1f77b4;stroke:#ffffff;stroke-width:0.75;" x="400.577898" xlink:href="#m3e73076596" y="70.994061"/>
    </g>
   </g>
   <g id="line2d_34"/>
   <g id="line2d_35"/>
   <g id="patch_3">
    <path d="M 59.690625 269.932636 
L 59.690625 23.721528 
" style="fill:none;stroke:#000000;stroke-linecap:square;stroke-linejoin:miter;stroke-width:0.8;"/>
   </g>
   <g id="patch_4">
    <path d="M 75.923352 288.430125 
L 400.578765 288.430125 
" style="fill:none;stroke:#000000;stroke-linecap:square;stroke-linejoin:miter;stroke-width:0.8;"/>
   </g>
   <g id="text_17">
    <!-- libxml2_libxml2_xml_reader_for_file_fuzzer (23h, 15 trials/fuzzer) -->
    <g transform="translate(42.98625 16.318125)scale(0.12 -0.12)">
     <defs>
      <path d="M 603 4863 
L 1178 4863 
L 1178 0 
L 603 0 
L 603 4863 
z
" id="DejaVuSans-6c" transform="scale(0.015625)"/>
      <path d="M 3116 1747 
Q 3116 2381 2855 2742 
Q 2594 3103 2138 3103 
Q 1681 3103 1420 2742 
Q 1159 2381 1159 1747 
Q 1159 1113 1420 752 
Q 1681 391 2138 391 
Q 2594 391 2855 752 
Q 3116 1113 3116 1747 
z
M 1159 2969 
Q 1341 3281 1617 3432 
Q 1894 3584 2278 3584 
Q 2916 3584 3314 3078 
Q 3713 2572 3713 1747 
Q 3713 922 3314 415 
Q 2916 -91 2278 -91 
Q 1894 -91 1617 61 
Q 1341 213 1159 525 
L 1159 0 
L 581 0 
L 581 4863 
L 1159 4863 
L 1159 2969 
z
" id="DejaVuSans-62" transform="scale(0.015625)"/>
      <path d="M 3513 3500 
L 2247 1797 
L 3578 0 
L 2900 0 
L 1881 1375 
L 863 0 
L 184 0 
L 1544 1831 
L 300 3500 
L 978 3500 
L 1906 2253 
L 2834 3500 
L 3513 3500 
z
" id="DejaVuSans-78" transform="scale(0.015625)"/>
      <path d="M 3263 -1063 
L 3263 -1509 
L -63 -1509 
L -63 -1063 
L 3263 -1063 
z
" id="DejaVuSans-5f" transform="scale(0.015625)"/>
      <path d="M 2375 4863 
L 2375 4384 
L 1825 4384 
Q 1516 4384 1395 4259 
Q 1275 4134 1275 3809 
L 1275 3500 
L 2222 3500 
L 2222 3053 
L 1275 3053 
L 1275 0 
L 697 0 
L 697 3053 
L 147 3053 
L 147 3500 
L 697 3500 
L 697 3744 
Q 697 4328 969 4595 
Q 1241 4863 1831 4863 
L 2375 4863 
z
" id="DejaVuSans-66" transform="scale(0.015625)"/>
      <path d="M 353 3500 
L 3084 3500 
L 3084 2975 
L 922 459 
L 3084 459 
L 3084 0 
L 275 0 
L 275 525 
L 2438 3041 
L 353 3041 
L 353 3500 
z
" id="DejaVuSans-7a" transform="scale(0.015625)"/>
      <path d="M 750 794 
L 1409 794 
L 1409 256 
L 897 -744 
L 494 -744 
L 750 256 
L 750 794 
z
" id="DejaVuSans-2c" transform="scale(0.015625)"/>
      <path d="M 2834 3397 
L 2834 2853 
Q 2591 2978 2328 3040 
Q 2066 3103 1784 3103 
Q 1356 3103 1142 2972 
Q 928 2841 928 2578 
Q 928 2378 1081 2264 
Q 1234 2150 1697 2047 
L 1894 2003 
Q 2506 1872 2764 1633 
Q 3022 1394 3022 966 
Q 3022 478 2636 193 
Q 2250 -91 1575 -91 
Q 1294 -91 989 -36 
Q 684 19 347 128 
L 347 722 
Q 666 556 975 473 
Q 1284 391 1588 391 
Q 1994 391 2212 530 
Q 2431 669 2431 922 
Q 2431 1156 2273 1281 
Q 2116 1406 1581 1522 
L 1381 1569 
Q 847 1681 609 1914 
Q 372 2147 372 2553 
Q 372 3047 722 3315 
Q 1072 3584 1716 3584 
Q 2034 3584 2315 3537 
Q 2597 3491 2834 3397 
z
" id="DejaVuSans-73" transform="scale(0.015625)"/>
      <path d="M 1625 4666 
L 2156 4666 
L 531 -594 
L 0 -594 
L 1625 4666 
z
" id="DejaVuSans-2f" transform="scale(0.015625)"/>
     </defs>
     <use xlink:href="#DejaVuSans-6c"/>
     <use x="27.783203" xlink:href="#DejaVuSans-69"/>
     <use x="55.566406" xlink:href="#DejaVuSans-62"/>
     <use x="119.042969" xlink:href="#DejaVuSans-78"/>
     <use x="178.222656" xlink:href="#DejaVuSans-6d"/>
     <use x="275.634766" xlink:href="#DejaVuSans-6c"/>
     <use x="303.417969" xlink:href="#DejaVuSans-32"/>
     <use x="367.041016" xlink:href="#DejaVuSans-5f"/>
     <use x="417.041016" xlink:href="#DejaVuSans-6c"/>
     <use x="444.824219" xlink:href="#DejaVuSans-69"/>
     <use x="472.607422" xlink:href="#DejaVuSans-62"/>
     <use x="536.083984" xlink:href="#DejaVuSans-78"/>
     <use x="595.263672" xlink:href="#DejaVuSans-6d"/>
     <use x="692.675781" xlink:href="#DejaVuSans-6c"/>
     <use x="720.458984" xlink:href="#DejaVuSans-32"/>
     <use x="784.082031" xlink:href="#DejaVuSans-5f"/>
     <use x="834.082031" xlink:href="#DejaVuSans-78"/>
     <use x="893.261719" xlink:href="#DejaVuSans-6d"/>
     <use x="990.673828" xlink:href="#DejaVuSans-6c"/>
     <use x="1018.457031" xlink:href="#DejaVuSans-5f"/>
     <use x="1068.457031" xlink:href="#DejaVuSans-72"/>
     <use x="1107.320312" xlink:href="#DejaVuSans-65"/>
     <use x="1168.84375" xlink:href="#DejaVuSans-61"/>
     <use x="1230.123047" xlink:href="#DejaVuSans-64"/>
     <use x="1293.599609" xlink:href="#DejaVuSans-65"/>
     <use x="1355.123047" xlink:href="#DejaVuSans-72"/>
     <use x="1396.236328" xlink:href="#DejaVuSans-5f"/>
     <use x="1446.236328" xlink:href="#DejaVuSans-66"/>
     <use x="1481.441406" xlink:href="#DejaVuSans-6f"/>
     <use x="1542.623047" xlink:href="#DejaVuSans-72"/>
     <use x="1583.736328" xlink:href="#DejaVuSans-5f"/>
     <use x="1633.736328" xlink:href="#DejaVuSans-66"/>
     <use x="1668.941406" xlink:href="#DejaVuSans-69"/>
     <use x="1696.724609" xlink:href="#DejaVuSans-6c"/>
     <use x="1724.507812" xlink:href="#DejaVuSans-65"/>
     <use x="1786.03125" xlink:href="#DejaVuSans-5f"/>
     <use x="1836.03125" xlink:href="#DejaVuSans-66"/>
     <use x="1871.236328" xlink:href="#DejaVuSans-75"/>
     <use x="1934.615234" xlink:href="#DejaVuSans-7a"/>
     <use x="1987.105469" xlink:href="#DejaVuSans-7a"/>
     <use x="2039.595703" xlink:href="#DejaVuSans-65"/>
     <use x="2101.119141" xlink:href="#DejaVuSans-72"/>
     <use x="2142.232422" xlink:href="#DejaVuSans-20"/>
     <use x="2174.019531" xlink:href="#DejaVuSans-28"/>
     <use x="2213.033203" xlink:href="#DejaVuSans-32"/>
     <use x="2276.65625" xlink:href="#DejaVuSans-33"/>
     <use x="2340.279297" xlink:href="#DejaVuSans-68"/>
     <use x="2403.658203" xlink:href="#DejaVuSans-2c"/>
     <use x="2435.445312" xlink:href="#DejaVuSans-20"/>
     <use x="2467.232422" xlink:href="#DejaVuSans-31"/>
     <use x="2530.855469" xlink:href="#DejaVuSans-35"/>
     <use x="2594.478516" xlink:href="#DejaVuSans-20"/>
     <use x="2626.265625" xlink:href="#DejaVuSans-74"/>
     <use x="2665.474609" xlink:href="#DejaVuSans-72"/>
     <use x="2706.587891" xlink:href="#DejaVuSans-69"/>
     <use x="2734.371094" xlink:href="#DejaVuSans-61"/>
     <use x="2795.650391" xlink:href="#DejaVuSans-6c"/>
     <use x="2823.433594" xlink:href="#DejaVuSans-73"/>
     <use x="2875.533203" xlink:href="#DejaVuSans-2f"/>
     <use x="2909.224609" xlink:href="#DejaVuSans-66"/>
     <use x="2944.429688" xlink:href="#DejaVuSans-75"/>
     <use x="3007.808594" xlink:href="#DejaVuSans-7a"/>
     <use x="3060.298828" xlink:href="#DejaVuSans-7a"/>
     <use x="3112.789062" xlink:href="#DejaVuSans-65"/>
     <use x="3174.3125" xlink:href="#DejaVuSans-72"/>
     <use x="3215.425781" xlink:href="#DejaVuSans-29"/>
    </g>
   </g>
   <g id="legend_1">
    <g id="line2d_36">
     <path d="M 420.810625 30.416562 
L 440.810625 30.416562 
" style="fill:none;stroke:#98df8a;stroke-linecap:square;stroke-width:1.5;"/>
    </g>
    <g id="line2d_37">
     <defs>
      <path d="M -0 3 
L 3 -3 
L -3 -3 
z
" id="m12cdc05d93" style="stroke:#98df8a;stroke-linejoin:miter;"/>
     </defs>
     <g>
      <use style="fill:#98df8a;stroke:#98df8a;stroke-linejoin:miter;" x="430.810625" xlink:href="#m12cdc05d93" y="30.416562"/>
     </g>
    </g>
    <g id="text_18">
     <!-- afl_splicing_mutation -->
     <g transform="translate(448.810625 33.916562)scale(0.1 -0.1)">
      <defs>
       <path d="M 1159 525 
L 1159 -1331 
L 581 -1331 
L 581 3500 
L 1159 3500 
L 1159 2969 
Q 1341 3281 1617 3432 
Q 1894 3584 2278 3584 
Q 2916 3584 3314 3078 
Q 3713 2572 3713 1747 
Q 3713 922 3314 415 
Q 2916 -91 2278 -91 
Q 1894 -91 1617 61 
Q 1341 213 1159 525 
z
M 3116 1747 
Q 3116 2381 2855 2742 
Q 2594 3103 2138 3103 
Q 1681 3103 1420 2742 
Q 1159 2381 1159 1747 
Q 1159 1113 1420 752 
Q 1681 391 2138 391 
Q 2594 391 2855 752 
Q 3116 1113 3116 1747 
z
" id="DejaVuSans-70" transform="scale(0.015625)"/>
      </defs>
      <use xlink:href="#DejaVuSans-61"/>
      <use x="61.279297" xlink:href="#DejaVuSans-66"/>
      <use x="96.484375" xlink:href="#DejaVuSans-6c"/>
      <use x="124.267578" xlink:href="#DejaVuSans-5f"/>
      <use x="174.267578" xlink:href="#DejaVuSans-73"/>
      <use x="226.367188" xlink:href="#DejaVuSans-70"/>
      <use x="289.84375" xlink:href="#DejaVuSans-6c"/>
      <use x="317.626953" xlink:href="#DejaVuSans-69"/>
      <use x="345.410156" xlink:href="#DejaVuSans-63"/>
      <use x="400.390625" xlink:href="#DejaVuSans-69"/>
      <use x="428.173828" xlink:href="#DejaVuSans-6e"/>
      <use x="491.552734" xlink:href="#DejaVuSans-67"/>
      <use x="555.029297" xlink:href="#DejaVuSans-5f"/>
      <use x="605.029297" xlink:href="#DejaVuSans-6d"/>
      <use x="702.441406" xlink:href="#DejaVuSans-75"/>
      <use x="765.820312" xlink:href="#DejaVuSans-74"/>
      <use x="805.029297" xlink:href="#DejaVuSans-61"/>
      <use x="866.308594" xlink:href="#DejaVuSans-74"/>
      <use x="905.517578" xlink:href="#DejaVuSans-69"/>
      <use x="933.300781" xlink:href="#DejaVuSans-6f"/>
      <use x="994.482422" xlink:href="#DejaVuSans-6e"/>
     </g>
    </g>
    <g id="line2d_38">
     <path d="M 420.810625 45.372813 
L 440.810625 45.372813 
" style="fill:none;stroke:#1f77b4;stroke-linecap:square;stroke-width:1.5;"/>
    </g>
    <g id="line2d_39">
     <defs>
      <path d="M 0 3 
C 0.795609 3 1.55874 2.683901 2.12132 2.12132 
C 2.683901 1.55874 3 0.795609 3 0 
C 3 -0.795609 2.683901 -1.55874 2.12132 -2.12132 
C 1.55874 -2.683901 0.795609 -3 0 -3 
C -0.795609 -3 -1.55874 -2.683901 -2.12132 -2.12132 
C -2.683901 -1.55874 -3 -0.795609 -3 0 
C -3 0.795609 -2.683901 1.55874 -2.12132 2.12132 
C -1.55874 2.683901 -0.795609 3 0 3 
z
" id="mcb244b4946" style="stroke:#1f77b4;"/>
     </defs>
     <g>
      <use style="fill:#1f77b4;stroke:#1f77b4;" x="430.810625" xlink:href="#mcb244b4946" y="45.372813"/>
     </g>
    </g>
    <g id="text_19">
     <!-- afl -->
     <g transform="translate(448.810625 48.872813)scale(0.1 -0.1)">
      <use xlink:href="#DejaVuSans-61"/>
      <use x="61.279297" xlink:href="#DejaVuSans-66"/>
      <use x="96.484375" xlink:href="#DejaVuSans-6c"/>
     </g>
    </g>
   </g>
  </g>
 </g>
 <defs>
  <clipPath id="pe25c1cb655">
   <rect height="266.112" width="357.12" x="59.690625" y="22.318125"/>
  </clipPath>
 </defs>
</svg>
