<?xml version="1.0" encoding="utf-8" standalone="no"?>
<!DOCTYPE svg PUBLIC "-//W3C//DTD SVG 1.1//EN"
  "http://www.w3.org/Graphics/SVG/1.1/DTD/svg11.dtd">
<svg height="325.986375pt" version="1.1" viewBox="0 0 559.4325 325.986375" width="559.4325pt" xmlns="http://www.w3.org/2000/svg" xmlns:xlink="http://www.w3.org/1999/xlink">
 <metadata>
  <rdf:RDF xmlns:cc="http://creativecommons.org/ns#" xmlns:dc="http://purl.org/dc/elements/1.1/" xmlns:rdf="http://www.w3.org/1999/02/22-rdf-syntax-ns#">
   <cc:Work>
    <dc:type rdf:resource="http://purl.org/dc/dcmitype/StillImage"/>
    <dc:date>2022-08-18T10:29:18.961261</dc:date>
    <dc:format>image/svg+xml</dc:format>
    <dc:creator>
     <cc:Agent>
      <dc:title>Matplotlib v3.4.3, https://matplotlib.org/</dc:title>
     </cc:Agent>
    </dc:creator>
   </cc:Work>
  </rdf:RDF>
 </metadata>
 <defs>
  <style type="text/css">*{stroke-linecap:butt;stroke-linejoin:round;}</style>
 </defs>
 <g id="figure_1">
  <g id="patch_1">
   <path d="M 0 325.986375 
L 559.4325 325.986375 
L 559.4325 0 
L 0 0 
z
" style="fill:#ffffff;"/>
  </g>
  <g id="axes_1">
   <g id="patch_2">
    <path d="M 53.328125 288.430125 
L 410.448125 288.430125 
L 410.448125 22.318125 
L 53.328125 22.318125 
z
" style="fill:#ffffff;"/>
   </g>
   <g id="PolyCollection_1">
    <defs>
     <path d="M 69.560852 -54.866043 
L 69.560852 -49.65225 
L 73.832623 -62.066043 
L 78.104393 -72.890871 
L 82.376163 -81.580526 
L 86.647934 -92.703284 
L 90.919704 -97.221905 
L 95.191474 -98.066043 
L 99.463245 -99.605353 
L 103.735015 -101.095009 
L 108.006785 -101.839836 
L 112.278556 -104.47156 
L 116.550326 -109.933629 
L 120.822096 -113.856388 
L 125.093867 -116.190181 
L 129.365637 -117.37694 
L 133.637407 -119.666043 
L 137.909178 -121.006733 
L 142.180948 -123.886733 
L 146.452718 -128.603974 
L 150.724489 -132.621078 
L 154.996259 -136.598457 
L 159.268029 -139.925353 
L 163.5398 -142.358457 
L 167.81157 -144.394319 
L 172.08334 -149.310181 
L 176.355111 -153.779147 
L 180.626881 -155.169491 
L 184.898651 -158.347422 
L 189.170422 -161.97225 
L 193.442192 -165.497767 
L 197.713962 -172.975836 
L 201.985733 -178.010871 
L 206.257503 -181.933629 
L 210.529273 -186.402595 
L 214.801044 -188.537767 
L 219.072814 -191.467422 
L 223.344584 -194.99294 
L 227.616355 -197.227422 
L 231.888125 -199.759836 
L 236.159895 -203.483974 
L 240.431666 -204.874319 
L 244.703436 -205.519836 
L 248.975206 -210.286733 
L 253.246977 -208.648112 
L 257.518747 -211.627422 
L 261.790517 -213.117078 
L 266.062288 -223.544664 
L 270.334058 -223.544664 
L 274.605828 -229.056388 
L 278.877599 -238.341905 
L 283.149369 -242.314319 
L 287.421139 -243.059147 
L 291.69291 -248.364802 
L 295.96468 -249.961216 
L 300.23645 -250.060526 
L 304.508221 -253.238457 
L 308.779991 -254.03294 
L 313.051761 -258.700526 
L 317.323532 -260.587422 
L 321.595302 -261.381905 
L 325.867072 -263.566733 
L 330.138843 -264.410871 
L 334.410613 -266.744664 
L 338.682383 -267.141905 
L 342.954154 -267.141905 
L 347.225924 -267.290871 
L 351.497694 -266.508802 
L 355.769465 -268.333629 
L 360.041235 -271.19625 
L 364.313005 -271.213629 
L 368.584776 -271.213629 
L 372.856546 -270.419147 
L 377.128316 -271.710181 
L 381.400087 -275.483974 
L 385.671857 -274.39156 
L 389.943627 -276.55156 
L 394.215398 -279.754319 
L 394.215398 -291.57225 
L 394.215398 -291.57225 
L 389.943627 -291.47294 
L 385.671857 -291.075698 
L 381.400087 -290.281216 
L 377.128316 -288.493629 
L 372.856546 -290.181905 
L 368.584776 -290.181905 
L 364.313005 -289.387422 
L 360.041235 -288.295009 
L 355.769465 -285.613629 
L 351.497694 -287.401216 
L 347.225924 -283.975009 
L 342.954154 -282.733629 
L 338.682383 -282.634319 
L 334.410613 -282.038457 
L 330.138843 -278.661905 
L 325.867072 -277.569491 
L 321.595302 -275.086733 
L 317.323532 -274.39156 
L 313.051761 -274.093629 
L 308.779991 -273.299147 
L 304.508221 -270.717078 
L 300.23645 -271.610871 
L 295.96468 -268.929491 
L 291.69291 -265.503284 
L 287.421139 -263.368112 
L 283.149369 -261.630181 
L 278.877599 -257.409491 
L 274.605828 -256.217767 
L 270.334058 -252.146043 
L 266.062288 -249.861905 
L 261.790517 -247.875698 
L 257.518747 -246.286733 
L 253.246977 -238.639836 
L 248.975206 -235.073353 
L 244.703436 -231.886733 
L 240.431666 -228.510181 
L 236.159895 -225.393078 
L 231.888125 -219.89625 
L 227.616355 -215.35156 
L 223.344584 -210.286733 
L 219.072814 -204.477078 
L 214.801044 -199.463147 
L 210.529273 -195.390181 
L 206.257503 -191.864664 
L 201.985733 -188.835698 
L 197.713962 -184.366733 
L 193.442192 -180.841216 
L 189.170422 -178.557078 
L 184.898651 -166.441216 
L 180.626881 -162.573078 
L 176.355111 -159.241216 
L 172.08334 -156.31156 
L 167.81157 -153.530871 
L 163.5398 -150.750181 
L 159.268029 -147.125353 
L 154.996259 -144.149767 
L 150.724489 -138.93225 
L 146.452718 -137.343284 
L 142.180948 -133.718457 
L 137.909178 -130.739147 
L 133.637407 -128.653629 
L 129.365637 -126.369491 
L 125.093867 -125.136802 
L 120.822096 -121.900526 
L 116.550326 -116.537767 
L 112.278556 -113.657767 
L 108.006785 -112.966319 
L 103.735015 -110.185629 
L 99.463245 -107.848112 
L 95.191474 -106.209491 
L 90.919704 -103.478457 
L 86.647934 -99.108802 
L 82.376163 -94.451147 
L 78.104393 -89.823284 
L 73.832623 -72.59294 
L 69.560852 -54.866043 
z
" id="mba23de8e0a" style="stroke:#98df8a;stroke-opacity:0.2;"/>
    </defs>
    <g clip-path="url(#pe14db973a1)">
     <use style="fill:#98df8a;fill-opacity:0.2;stroke:#98df8a;stroke-opacity:0.2;" x="0" xlink:href="#mba23de8e0a" y="325.986375"/>
    </g>
   </g>
   <g id="PolyCollection_2">
    <defs>
     <path d="M 69.560852 -57.348802 
L 69.560852 -50.943284 
L 73.832623 -62.215009 
L 78.104393 -67.627422 
L 82.376163 -74.976388 
L 86.647934 -91.908802 
L 90.919704 -97.221905 
L 95.191474 -98.706595 
L 99.463245 -99.903284 
L 103.735015 -101.740526 
L 108.006785 -101.889491 
L 112.278556 -105.117078 
L 116.550326 -107.450871 
L 120.822096 -107.550181 
L 125.093867 -112.515698 
L 129.365637 -114.650871 
L 133.637407 -116.190181 
L 137.909178 -117.630181 
L 142.180948 -122.347422 
L 146.452718 -125.028802 
L 150.724489 -129.100526 
L 154.996259 -133.07294 
L 159.268029 -135.307422 
L 163.5398 -138.783284 
L 167.81157 -144.493629 
L 172.08334 -146.827422 
L 176.355111 -148.068802 
L 180.626881 -148.962595 
L 184.898651 -155.020526 
L 189.170422 -159.09225 
L 193.442192 -160.879836 
L 197.713962 -165.746043 
L 201.985733 -168.824664 
L 206.257503 -171.506043 
L 210.529273 -173.889491 
L 214.801044 -176.47156 
L 219.072814 -180.443974 
L 223.344584 -182.728112 
L 227.616355 -185.906043 
L 231.888125 -186.998457 
L 236.159895 -189.481216 
L 240.431666 -189.481216 
L 244.703436 -193.850871 
L 248.975206 -199.114319 
L 253.246977 -202.093629 
L 257.518747 -204.973629 
L 261.790517 -205.27156 
L 266.062288 -205.27156 
L 270.334058 -207.555698 
L 274.605828 -208.946043 
L 278.877599 -211.428802 
L 283.149369 -211.009216 
L 287.421139 -211.826043 
L 291.69291 -212.968112 
L 295.96468 -215.848112 
L 300.23645 -217.685353 
L 304.508221 -217.685353 
L 308.779991 -219.373629 
L 313.051761 -219.47294 
L 317.323532 -221.061905 
L 321.595302 -221.260526 
L 325.867072 -221.260526 
L 330.138843 -222.253629 
L 334.410613 -221.359836 
L 338.682383 -213.117078 
L 342.954154 -213.71294 
L 347.225924 -222.55156 
L 351.497694 -222.750181 
L 355.769465 -222.750181 
L 360.041235 -222.750181 
L 364.313005 -222.750181 
L 368.584776 -223.048112 
L 372.856546 -223.941905 
L 377.128316 -224.239836 
L 381.400087 -217.834319 
L 385.671857 -211.230181 
L 389.943627 -211.230181 
L 394.215398 -211.826043 
L 394.215398 -250.656388 
L 394.215398 -250.656388 
L 389.943627 -249.663284 
L 385.671857 -248.868802 
L 381.400087 -241.917078 
L 377.128316 -247.379147 
L 372.856546 -247.180526 
L 368.584776 -245.095009 
L 364.313005 -241.321216 
L 360.041235 -239.73225 
L 355.769465 -234.270181 
L 351.497694 -233.575009 
L 347.225924 -232.780526 
L 342.954154 -232.085353 
L 338.682383 -240.030181 
L 334.410613 -239.533629 
L 330.138843 -241.122595 
L 325.867072 -240.675698 
L 321.595302 -238.441216 
L 317.323532 -237.050871 
L 313.051761 -235.759836 
L 308.779991 -234.667422 
L 304.508221 -230.99294 
L 300.23645 -233.87294 
L 295.96468 -233.674319 
L 291.69291 -234.915698 
L 287.421139 -233.575009 
L 283.149369 -232.085353 
L 278.877599 -232.283974 
L 274.605828 -230.198457 
L 270.334058 -229.205353 
L 266.062288 -227.914319 
L 261.790517 -226.623284 
L 257.518747 -225.729491 
L 253.246977 -224.637078 
L 248.975206 -221.061905 
L 244.703436 -219.870181 
L 240.431666 -219.373629 
L 236.159895 -211.726733 
L 231.888125 -211.230181 
L 227.616355 -208.449491 
L 223.344584 -206.562595 
L 219.072814 -199.51156 
L 214.801044 -198.717078 
L 210.529273 -192.857767 
L 206.257503 -189.083974 
L 201.985733 -186.601216 
L 197.713962 -180.046733 
L 193.442192 -175.875698 
L 189.170422 -172.797078 
L 184.898651 -169.221905 
L 180.626881 -166.143284 
L 176.355111 -162.270181 
L 172.08334 -157.006733 
L 167.81157 -153.729491 
L 163.5398 -151.346043 
L 159.268029 -148.539284 
L 154.996259 -145.784664 
L 150.724489 -137.154595 
L 146.452718 -135.059147 
L 142.180948 -130.39156 
L 137.909178 -129.100526 
L 133.637407 -124.482595 
L 129.365637 -122.248112 
L 125.093867 -120.162595 
L 120.822096 -118.424664 
L 116.550326 -114.501905 
L 112.278556 -111.870181 
L 108.006785 -108.245353 
L 103.735015 -107.366457 
L 99.463245 -106.358457 
L 95.191474 -105.266043 
L 90.919704 -105.067422 
L 86.647934 -100.300526 
L 82.376163 -93.646733 
L 78.104393 -79.941905 
L 73.832623 -67.925353 
L 69.560852 -57.348802 
z
" id="m21c527f1b9" style="stroke:#1f77b4;stroke-opacity:0.2;"/>
    </defs>
    <g clip-path="url(#pe14db973a1)">
     <use style="fill:#1f77b4;fill-opacity:0.2;stroke:#1f77b4;stroke-opacity:0.2;" x="0" xlink:href="#m21c527f1b9" y="325.986375"/>
    </g>
   </g>
   <g id="matplotlib.axis_1">
    <g id="xtick_1">
     <g id="line2d_1">
      <defs>
       <path d="M 0 0 
L 0 3.5 
" id="m1eb193a64a" style="stroke:#000000;stroke-width:0.8;"/>
      </defs>
      <g>
       <use style="stroke:#000000;stroke-width:0.8;" x="69.560852" xlink:href="#m1eb193a64a" y="288.430125"/>
      </g>
     </g>
     <g id="text_1">
      <!-- 15m -->
      <g transform="translate(58.32804 303.028562)scale(0.1 -0.1)">
       <defs>
        <path d="M 794 531 
L 1825 531 
L 1825 4091 
L 703 3866 
L 703 4441 
L 1819 4666 
L 2450 4666 
L 2450 531 
L 3481 531 
L 3481 0 
L 794 0 
L 794 531 
z
" id="DejaVuSans-31" transform="scale(0.015625)"/>
        <path d="M 691 4666 
L 3169 4666 
L 3169 4134 
L 1269 4134 
L 1269 2991 
Q 1406 3038 1543 3061 
Q 1681 3084 1819 3084 
Q 2600 3084 3056 2656 
Q 3513 2228 3513 1497 
Q 3513 744 3044 326 
Q 2575 -91 1722 -91 
Q 1428 -91 1123 -41 
Q 819 9 494 109 
L 494 744 
Q 775 591 1075 516 
Q 1375 441 1709 441 
Q 2250 441 2565 725 
Q 2881 1009 2881 1497 
Q 2881 1984 2565 2268 
Q 2250 2553 1709 2553 
Q 1456 2553 1204 2497 
Q 953 2441 691 2322 
L 691 4666 
z
" id="DejaVuSans-35" transform="scale(0.015625)"/>
        <path d="M 3328 2828 
Q 3544 3216 3844 3400 
Q 4144 3584 4550 3584 
Q 5097 3584 5394 3201 
Q 5691 2819 5691 2113 
L 5691 0 
L 5113 0 
L 5113 2094 
Q 5113 2597 4934 2840 
Q 4756 3084 4391 3084 
Q 3944 3084 3684 2787 
Q 3425 2491 3425 1978 
L 3425 0 
L 2847 0 
L 2847 2094 
Q 2847 2600 2669 2842 
Q 2491 3084 2119 3084 
Q 1678 3084 1418 2786 
Q 1159 2488 1159 1978 
L 1159 0 
L 581 0 
L 581 3500 
L 1159 3500 
L 1159 2956 
Q 1356 3278 1631 3431 
Q 1906 3584 2284 3584 
Q 2666 3584 2933 3390 
Q 3200 3197 3328 2828 
z
" id="DejaVuSans-6d" transform="scale(0.015625)"/>
       </defs>
       <use xlink:href="#DejaVuSans-31"/>
       <use x="63.623047" xlink:href="#DejaVuSans-35"/>
       <use x="127.246094" xlink:href="#DejaVuSans-6d"/>
      </g>
     </g>
    </g>
    <g id="xtick_2">
     <g id="line2d_2">
      <g>
       <use style="stroke:#000000;stroke-width:0.8;" x="124.381905" xlink:href="#m1eb193a64a" y="288.430125"/>
      </g>
     </g>
     <g id="text_2">
      <!-- 3h:27m -->
      <g transform="translate(105.114717 303.028562)scale(0.1 -0.1)">
       <defs>
        <path d="M 2597 2516 
Q 3050 2419 3304 2112 
Q 3559 1806 3559 1356 
Q 3559 666 3084 287 
Q 2609 -91 1734 -91 
Q 1441 -91 1130 -33 
Q 819 25 488 141 
L 488 750 
Q 750 597 1062 519 
Q 1375 441 1716 441 
Q 2309 441 2620 675 
Q 2931 909 2931 1356 
Q 2931 1769 2642 2001 
Q 2353 2234 1838 2234 
L 1294 2234 
L 1294 2753 
L 1863 2753 
Q 2328 2753 2575 2939 
Q 2822 3125 2822 3475 
Q 2822 3834 2567 4026 
Q 2313 4219 1838 4219 
Q 1578 4219 1281 4162 
Q 984 4106 628 3988 
L 628 4550 
Q 988 4650 1302 4700 
Q 1616 4750 1894 4750 
Q 2613 4750 3031 4423 
Q 3450 4097 3450 3541 
Q 3450 3153 3228 2886 
Q 3006 2619 2597 2516 
z
" id="DejaVuSans-33" transform="scale(0.015625)"/>
        <path d="M 3513 2113 
L 3513 0 
L 2938 0 
L 2938 2094 
Q 2938 2591 2744 2837 
Q 2550 3084 2163 3084 
Q 1697 3084 1428 2787 
Q 1159 2491 1159 1978 
L 1159 0 
L 581 0 
L 581 4863 
L 1159 4863 
L 1159 2956 
Q 1366 3272 1645 3428 
Q 1925 3584 2291 3584 
Q 2894 3584 3203 3211 
Q 3513 2838 3513 2113 
z
" id="DejaVuSans-68" transform="scale(0.015625)"/>
        <path d="M 750 794 
L 1409 794 
L 1409 0 
L 750 0 
L 750 794 
z
M 750 3309 
L 1409 3309 
L 1409 2516 
L 750 2516 
L 750 3309 
z
" id="DejaVuSans-3a" transform="scale(0.015625)"/>
        <path d="M 1228 531 
L 3431 531 
L 3431 0 
L 469 0 
L 469 531 
Q 828 903 1448 1529 
Q 2069 2156 2228 2338 
Q 2531 2678 2651 2914 
Q 2772 3150 2772 3378 
Q 2772 3750 2511 3984 
Q 2250 4219 1831 4219 
Q 1534 4219 1204 4116 
Q 875 4013 500 3803 
L 500 4441 
Q 881 4594 1212 4672 
Q 1544 4750 1819 4750 
Q 2544 4750 2975 4387 
Q 3406 4025 3406 3419 
Q 3406 3131 3298 2873 
Q 3191 2616 2906 2266 
Q 2828 2175 2409 1742 
Q 1991 1309 1228 531 
z
" id="DejaVuSans-32" transform="scale(0.015625)"/>
        <path d="M 525 4666 
L 3525 4666 
L 3525 4397 
L 1831 0 
L 1172 0 
L 2766 4134 
L 525 4134 
L 525 4666 
z
" id="DejaVuSans-37" transform="scale(0.015625)"/>
       </defs>
       <use xlink:href="#DejaVuSans-33"/>
       <use x="63.623047" xlink:href="#DejaVuSans-68"/>
       <use x="127.001953" xlink:href="#DejaVuSans-3a"/>
       <use x="160.693359" xlink:href="#DejaVuSans-32"/>
       <use x="224.316406" xlink:href="#DejaVuSans-37"/>
       <use x="287.939453" xlink:href="#DejaVuSans-6d"/>
      </g>
     </g>
    </g>
    <g id="xtick_3">
     <g id="line2d_3">
      <g>
       <use style="stroke:#000000;stroke-width:0.8;" x="179.202958" xlink:href="#m1eb193a64a" y="288.430125"/>
      </g>
     </g>
     <g id="text_3">
      <!-- 6h:40m -->
      <g transform="translate(159.93577 303.028562)scale(0.1 -0.1)">
       <defs>
        <path d="M 2113 2584 
Q 1688 2584 1439 2293 
Q 1191 2003 1191 1497 
Q 1191 994 1439 701 
Q 1688 409 2113 409 
Q 2538 409 2786 701 
Q 3034 994 3034 1497 
Q 3034 2003 2786 2293 
Q 2538 2584 2113 2584 
z
M 3366 4563 
L 3366 3988 
Q 3128 4100 2886 4159 
Q 2644 4219 2406 4219 
Q 1781 4219 1451 3797 
Q 1122 3375 1075 2522 
Q 1259 2794 1537 2939 
Q 1816 3084 2150 3084 
Q 2853 3084 3261 2657 
Q 3669 2231 3669 1497 
Q 3669 778 3244 343 
Q 2819 -91 2113 -91 
Q 1303 -91 875 529 
Q 447 1150 447 2328 
Q 447 3434 972 4092 
Q 1497 4750 2381 4750 
Q 2619 4750 2861 4703 
Q 3103 4656 3366 4563 
z
" id="DejaVuSans-36" transform="scale(0.015625)"/>
        <path d="M 2419 4116 
L 825 1625 
L 2419 1625 
L 2419 4116 
z
M 2253 4666 
L 3047 4666 
L 3047 1625 
L 3713 1625 
L 3713 1100 
L 3047 1100 
L 3047 0 
L 2419 0 
L 2419 1100 
L 313 1100 
L 313 1709 
L 2253 4666 
z
" id="DejaVuSans-34" transform="scale(0.015625)"/>
        <path d="M 2034 4250 
Q 1547 4250 1301 3770 
Q 1056 3291 1056 2328 
Q 1056 1369 1301 889 
Q 1547 409 2034 409 
Q 2525 409 2770 889 
Q 3016 1369 3016 2328 
Q 3016 3291 2770 3770 
Q 2525 4250 2034 4250 
z
M 2034 4750 
Q 2819 4750 3233 4129 
Q 3647 3509 3647 2328 
Q 3647 1150 3233 529 
Q 2819 -91 2034 -91 
Q 1250 -91 836 529 
Q 422 1150 422 2328 
Q 422 3509 836 4129 
Q 1250 4750 2034 4750 
z
" id="DejaVuSans-30" transform="scale(0.015625)"/>
       </defs>
       <use xlink:href="#DejaVuSans-36"/>
       <use x="63.623047" xlink:href="#DejaVuSans-68"/>
       <use x="127.001953" xlink:href="#DejaVuSans-3a"/>
       <use x="160.693359" xlink:href="#DejaVuSans-34"/>
       <use x="224.316406" xlink:href="#DejaVuSans-30"/>
       <use x="287.939453" xlink:href="#DejaVuSans-6d"/>
      </g>
     </g>
    </g>
    <g id="xtick_4">
     <g id="line2d_4">
      <g>
       <use style="stroke:#000000;stroke-width:0.8;" x="234.02401" xlink:href="#m1eb193a64a" y="288.430125"/>
      </g>
     </g>
     <g id="text_4">
      <!-- 9h:52m -->
      <g transform="translate(214.756823 303.028562)scale(0.1 -0.1)">
       <defs>
        <path d="M 703 97 
L 703 672 
Q 941 559 1184 500 
Q 1428 441 1663 441 
Q 2288 441 2617 861 
Q 2947 1281 2994 2138 
Q 2813 1869 2534 1725 
Q 2256 1581 1919 1581 
Q 1219 1581 811 2004 
Q 403 2428 403 3163 
Q 403 3881 828 4315 
Q 1253 4750 1959 4750 
Q 2769 4750 3195 4129 
Q 3622 3509 3622 2328 
Q 3622 1225 3098 567 
Q 2575 -91 1691 -91 
Q 1453 -91 1209 -44 
Q 966 3 703 97 
z
M 1959 2075 
Q 2384 2075 2632 2365 
Q 2881 2656 2881 3163 
Q 2881 3666 2632 3958 
Q 2384 4250 1959 4250 
Q 1534 4250 1286 3958 
Q 1038 3666 1038 3163 
Q 1038 2656 1286 2365 
Q 1534 2075 1959 2075 
z
" id="DejaVuSans-39" transform="scale(0.015625)"/>
       </defs>
       <use xlink:href="#DejaVuSans-39"/>
       <use x="63.623047" xlink:href="#DejaVuSans-68"/>
       <use x="127.001953" xlink:href="#DejaVuSans-3a"/>
       <use x="160.693359" xlink:href="#DejaVuSans-35"/>
       <use x="224.316406" xlink:href="#DejaVuSans-32"/>
       <use x="287.939453" xlink:href="#DejaVuSans-6d"/>
      </g>
     </g>
    </g>
    <g id="xtick_5">
     <g id="line2d_5">
      <g>
       <use style="stroke:#000000;stroke-width:0.8;" x="288.845063" xlink:href="#m1eb193a64a" y="288.430125"/>
      </g>
     </g>
     <g id="text_5">
      <!-- 13h:5m -->
      <g transform="translate(269.577875 303.028562)scale(0.1 -0.1)">
       <use xlink:href="#DejaVuSans-31"/>
       <use x="63.623047" xlink:href="#DejaVuSans-33"/>
       <use x="127.246094" xlink:href="#DejaVuSans-68"/>
       <use x="190.625" xlink:href="#DejaVuSans-3a"/>
       <use x="224.316406" xlink:href="#DejaVuSans-35"/>
       <use x="287.939453" xlink:href="#DejaVuSans-6d"/>
      </g>
     </g>
    </g>
    <g id="xtick_6">
     <g id="line2d_6">
      <g>
       <use style="stroke:#000000;stroke-width:0.8;" x="343.666115" xlink:href="#m1eb193a64a" y="288.430125"/>
      </g>
     </g>
     <g id="text_6">
      <!-- 16h:17m -->
      <g transform="translate(321.217678 303.028562)scale(0.1 -0.1)">
       <use xlink:href="#DejaVuSans-31"/>
       <use x="63.623047" xlink:href="#DejaVuSans-36"/>
       <use x="127.246094" xlink:href="#DejaVuSans-68"/>
       <use x="190.625" xlink:href="#DejaVuSans-3a"/>
       <use x="224.316406" xlink:href="#DejaVuSans-31"/>
       <use x="287.939453" xlink:href="#DejaVuSans-37"/>
       <use x="351.5625" xlink:href="#DejaVuSans-6d"/>
      </g>
     </g>
    </g>
    <g id="text_7">
     <!-- Time (hour:minute) -->
     <g transform="translate(183.481094 316.706687)scale(0.1 -0.1)">
      <defs>
       <path d="M -19 4666 
L 3928 4666 
L 3928 4134 
L 2272 4134 
L 2272 0 
L 1638 0 
L 1638 4134 
L -19 4134 
L -19 4666 
z
" id="DejaVuSans-54" transform="scale(0.015625)"/>
       <path d="M 603 3500 
L 1178 3500 
L 1178 0 
L 603 0 
L 603 3500 
z
M 603 4863 
L 1178 4863 
L 1178 4134 
L 603 4134 
L 603 4863 
z
" id="DejaVuSans-69" transform="scale(0.015625)"/>
       <path d="M 3597 1894 
L 3597 1613 
L 953 1613 
Q 991 1019 1311 708 
Q 1631 397 2203 397 
Q 2534 397 2845 478 
Q 3156 559 3463 722 
L 3463 178 
Q 3153 47 2828 -22 
Q 2503 -91 2169 -91 
Q 1331 -91 842 396 
Q 353 884 353 1716 
Q 353 2575 817 3079 
Q 1281 3584 2069 3584 
Q 2775 3584 3186 3129 
Q 3597 2675 3597 1894 
z
M 3022 2063 
Q 3016 2534 2758 2815 
Q 2500 3097 2075 3097 
Q 1594 3097 1305 2825 
Q 1016 2553 972 2059 
L 3022 2063 
z
" id="DejaVuSans-65" transform="scale(0.015625)"/>
       <path id="DejaVuSans-20" transform="scale(0.015625)"/>
       <path d="M 1984 4856 
Q 1566 4138 1362 3434 
Q 1159 2731 1159 2009 
Q 1159 1288 1364 580 
Q 1569 -128 1984 -844 
L 1484 -844 
Q 1016 -109 783 600 
Q 550 1309 550 2009 
Q 550 2706 781 3412 
Q 1013 4119 1484 4856 
L 1984 4856 
z
" id="DejaVuSans-28" transform="scale(0.015625)"/>
       <path d="M 1959 3097 
Q 1497 3097 1228 2736 
Q 959 2375 959 1747 
Q 959 1119 1226 758 
Q 1494 397 1959 397 
Q 2419 397 2687 759 
Q 2956 1122 2956 1747 
Q 2956 2369 2687 2733 
Q 2419 3097 1959 3097 
z
M 1959 3584 
Q 2709 3584 3137 3096 
Q 3566 2609 3566 1747 
Q 3566 888 3137 398 
Q 2709 -91 1959 -91 
Q 1206 -91 779 398 
Q 353 888 353 1747 
Q 353 2609 779 3096 
Q 1206 3584 1959 3584 
z
" id="DejaVuSans-6f" transform="scale(0.015625)"/>
       <path d="M 544 1381 
L 544 3500 
L 1119 3500 
L 1119 1403 
Q 1119 906 1312 657 
Q 1506 409 1894 409 
Q 2359 409 2629 706 
Q 2900 1003 2900 1516 
L 2900 3500 
L 3475 3500 
L 3475 0 
L 2900 0 
L 2900 538 
Q 2691 219 2414 64 
Q 2138 -91 1772 -91 
Q 1169 -91 856 284 
Q 544 659 544 1381 
z
M 1991 3584 
L 1991 3584 
z
" id="DejaVuSans-75" transform="scale(0.015625)"/>
       <path d="M 2631 2963 
Q 2534 3019 2420 3045 
Q 2306 3072 2169 3072 
Q 1681 3072 1420 2755 
Q 1159 2438 1159 1844 
L 1159 0 
L 581 0 
L 581 3500 
L 1159 3500 
L 1159 2956 
Q 1341 3275 1631 3429 
Q 1922 3584 2338 3584 
Q 2397 3584 2469 3576 
Q 2541 3569 2628 3553 
L 2631 2963 
z
" id="DejaVuSans-72" transform="scale(0.015625)"/>
       <path d="M 3513 2113 
L 3513 0 
L 2938 0 
L 2938 2094 
Q 2938 2591 2744 2837 
Q 2550 3084 2163 3084 
Q 1697 3084 1428 2787 
Q 1159 2491 1159 1978 
L 1159 0 
L 581 0 
L 581 3500 
L 1159 3500 
L 1159 2956 
Q 1366 3272 1645 3428 
Q 1925 3584 2291 3584 
Q 2894 3584 3203 3211 
Q 3513 2838 3513 2113 
z
" id="DejaVuSans-6e" transform="scale(0.015625)"/>
       <path d="M 1172 4494 
L 1172 3500 
L 2356 3500 
L 2356 3053 
L 1172 3053 
L 1172 1153 
Q 1172 725 1289 603 
Q 1406 481 1766 481 
L 2356 481 
L 2356 0 
L 1766 0 
Q 1100 0 847 248 
Q 594 497 594 1153 
L 594 3053 
L 172 3053 
L 172 3500 
L 594 3500 
L 594 4494 
L 1172 4494 
z
" id="DejaVuSans-74" transform="scale(0.015625)"/>
       <path d="M 513 4856 
L 1013 4856 
Q 1481 4119 1714 3412 
Q 1947 2706 1947 2009 
Q 1947 1309 1714 600 
Q 1481 -109 1013 -844 
L 513 -844 
Q 928 -128 1133 580 
Q 1338 1288 1338 2009 
Q 1338 2731 1133 3434 
Q 928 4138 513 4856 
z
" id="DejaVuSans-29" transform="scale(0.015625)"/>
      </defs>
      <use xlink:href="#DejaVuSans-54"/>
      <use x="57.958984" xlink:href="#DejaVuSans-69"/>
      <use x="85.742188" xlink:href="#DejaVuSans-6d"/>
      <use x="183.154297" xlink:href="#DejaVuSans-65"/>
      <use x="244.677734" xlink:href="#DejaVuSans-20"/>
      <use x="276.464844" xlink:href="#DejaVuSans-28"/>
      <use x="315.478516" xlink:href="#DejaVuSans-68"/>
      <use x="378.857422" xlink:href="#DejaVuSans-6f"/>
      <use x="440.039062" xlink:href="#DejaVuSans-75"/>
      <use x="503.417969" xlink:href="#DejaVuSans-72"/>
      <use x="542.78125" xlink:href="#DejaVuSans-3a"/>
      <use x="576.472656" xlink:href="#DejaVuSans-6d"/>
      <use x="673.884766" xlink:href="#DejaVuSans-69"/>
      <use x="701.667969" xlink:href="#DejaVuSans-6e"/>
      <use x="765.046875" xlink:href="#DejaVuSans-75"/>
      <use x="828.425781" xlink:href="#DejaVuSans-74"/>
      <use x="867.634766" xlink:href="#DejaVuSans-65"/>
      <use x="929.158203" xlink:href="#DejaVuSans-29"/>
     </g>
    </g>
   </g>
   <g id="matplotlib.axis_2">
    <g id="ytick_1">
     <g id="line2d_7">
      <defs>
       <path d="M 0 0 
L -3.5 0 
" id="m7a9a23cab9" style="stroke:#000000;stroke-width:0.8;"/>
      </defs>
      <g>
       <use style="stroke:#000000;stroke-width:0.8;" x="53.328125" xlink:href="#m7a9a23cab9" y="257.266539"/>
      </g>
     </g>
     <g id="text_8">
      <!-- 6000 -->
      <g transform="translate(20.878125 261.065758)scale(0.1 -0.1)">
       <use xlink:href="#DejaVuSans-36"/>
       <use x="63.623047" xlink:href="#DejaVuSans-30"/>
       <use x="127.246094" xlink:href="#DejaVuSans-30"/>
       <use x="190.869141" xlink:href="#DejaVuSans-30"/>
      </g>
     </g>
    </g>
    <g id="ytick_2">
     <g id="line2d_8">
      <g>
       <use style="stroke:#000000;stroke-width:0.8;" x="53.328125" xlink:href="#m7a9a23cab9" y="207.611366"/>
      </g>
     </g>
     <g id="text_9">
      <!-- 6500 -->
      <g transform="translate(20.878125 211.410585)scale(0.1 -0.1)">
       <use xlink:href="#DejaVuSans-36"/>
       <use x="63.623047" xlink:href="#DejaVuSans-35"/>
       <use x="127.246094" xlink:href="#DejaVuSans-30"/>
       <use x="190.869141" xlink:href="#DejaVuSans-30"/>
      </g>
     </g>
    </g>
    <g id="ytick_3">
     <g id="line2d_9">
      <g>
       <use style="stroke:#000000;stroke-width:0.8;" x="53.328125" xlink:href="#m7a9a23cab9" y="157.956194"/>
      </g>
     </g>
     <g id="text_10">
      <!-- 7000 -->
      <g transform="translate(20.878125 161.755413)scale(0.1 -0.1)">
       <use xlink:href="#DejaVuSans-37"/>
       <use x="63.623047" xlink:href="#DejaVuSans-30"/>
       <use x="127.246094" xlink:href="#DejaVuSans-30"/>
       <use x="190.869141" xlink:href="#DejaVuSans-30"/>
      </g>
     </g>
    </g>
    <g id="ytick_4">
     <g id="line2d_10">
      <g>
       <use style="stroke:#000000;stroke-width:0.8;" x="53.328125" xlink:href="#m7a9a23cab9" y="108.301022"/>
      </g>
     </g>
     <g id="text_11">
      <!-- 7500 -->
      <g transform="translate(20.878125 112.10024)scale(0.1 -0.1)">
       <use xlink:href="#DejaVuSans-37"/>
       <use x="63.623047" xlink:href="#DejaVuSans-35"/>
       <use x="127.246094" xlink:href="#DejaVuSans-30"/>
       <use x="190.869141" xlink:href="#DejaVuSans-30"/>
      </g>
     </g>
    </g>
    <g id="ytick_5">
     <g id="line2d_11">
      <g>
       <use style="stroke:#000000;stroke-width:0.8;" x="53.328125" xlink:href="#m7a9a23cab9" y="58.645849"/>
      </g>
     </g>
     <g id="text_12">
      <!-- 8000 -->
      <g transform="translate(20.878125 62.445068)scale(0.1 -0.1)">
       <defs>
        <path d="M 2034 2216 
Q 1584 2216 1326 1975 
Q 1069 1734 1069 1313 
Q 1069 891 1326 650 
Q 1584 409 2034 409 
Q 2484 409 2743 651 
Q 3003 894 3003 1313 
Q 3003 1734 2745 1975 
Q 2488 2216 2034 2216 
z
M 1403 2484 
Q 997 2584 770 2862 
Q 544 3141 544 3541 
Q 544 4100 942 4425 
Q 1341 4750 2034 4750 
Q 2731 4750 3128 4425 
Q 3525 4100 3525 3541 
Q 3525 3141 3298 2862 
Q 3072 2584 2669 2484 
Q 3125 2378 3379 2068 
Q 3634 1759 3634 1313 
Q 3634 634 3220 271 
Q 2806 -91 2034 -91 
Q 1263 -91 848 271 
Q 434 634 434 1313 
Q 434 1759 690 2068 
Q 947 2378 1403 2484 
z
M 1172 3481 
Q 1172 3119 1398 2916 
Q 1625 2713 2034 2713 
Q 2441 2713 2670 2916 
Q 2900 3119 2900 3481 
Q 2900 3844 2670 4047 
Q 2441 4250 2034 4250 
Q 1625 4250 1398 4047 
Q 1172 3844 1172 3481 
z
" id="DejaVuSans-38" transform="scale(0.015625)"/>
       </defs>
       <use xlink:href="#DejaVuSans-38"/>
       <use x="63.623047" xlink:href="#DejaVuSans-30"/>
       <use x="127.246094" xlink:href="#DejaVuSans-30"/>
       <use x="190.869141" xlink:href="#DejaVuSans-30"/>
      </g>
     </g>
    </g>
    <g id="text_13">
     <!-- Code region coverage -->
     <g transform="translate(14.798438 210.379594)rotate(-90)scale(0.1 -0.1)">
      <defs>
       <path d="M 4122 4306 
L 4122 3641 
Q 3803 3938 3442 4084 
Q 3081 4231 2675 4231 
Q 1875 4231 1450 3742 
Q 1025 3253 1025 2328 
Q 1025 1406 1450 917 
Q 1875 428 2675 428 
Q 3081 428 3442 575 
Q 3803 722 4122 1019 
L 4122 359 
Q 3791 134 3420 21 
Q 3050 -91 2638 -91 
Q 1578 -91 968 557 
Q 359 1206 359 2328 
Q 359 3453 968 4101 
Q 1578 4750 2638 4750 
Q 3056 4750 3426 4639 
Q 3797 4528 4122 4306 
z
" id="DejaVuSans-43" transform="scale(0.015625)"/>
       <path d="M 2906 2969 
L 2906 4863 
L 3481 4863 
L 3481 0 
L 2906 0 
L 2906 525 
Q 2725 213 2448 61 
Q 2172 -91 1784 -91 
Q 1150 -91 751 415 
Q 353 922 353 1747 
Q 353 2572 751 3078 
Q 1150 3584 1784 3584 
Q 2172 3584 2448 3432 
Q 2725 3281 2906 2969 
z
M 947 1747 
Q 947 1113 1208 752 
Q 1469 391 1925 391 
Q 2381 391 2643 752 
Q 2906 1113 2906 1747 
Q 2906 2381 2643 2742 
Q 2381 3103 1925 3103 
Q 1469 3103 1208 2742 
Q 947 2381 947 1747 
z
" id="DejaVuSans-64" transform="scale(0.015625)"/>
       <path d="M 2906 1791 
Q 2906 2416 2648 2759 
Q 2391 3103 1925 3103 
Q 1463 3103 1205 2759 
Q 947 2416 947 1791 
Q 947 1169 1205 825 
Q 1463 481 1925 481 
Q 2391 481 2648 825 
Q 2906 1169 2906 1791 
z
M 3481 434 
Q 3481 -459 3084 -895 
Q 2688 -1331 1869 -1331 
Q 1566 -1331 1297 -1286 
Q 1028 -1241 775 -1147 
L 775 -588 
Q 1028 -725 1275 -790 
Q 1522 -856 1778 -856 
Q 2344 -856 2625 -561 
Q 2906 -266 2906 331 
L 2906 616 
Q 2728 306 2450 153 
Q 2172 0 1784 0 
Q 1141 0 747 490 
Q 353 981 353 1791 
Q 353 2603 747 3093 
Q 1141 3584 1784 3584 
Q 2172 3584 2450 3431 
Q 2728 3278 2906 2969 
L 2906 3500 
L 3481 3500 
L 3481 434 
z
" id="DejaVuSans-67" transform="scale(0.015625)"/>
       <path d="M 3122 3366 
L 3122 2828 
Q 2878 2963 2633 3030 
Q 2388 3097 2138 3097 
Q 1578 3097 1268 2742 
Q 959 2388 959 1747 
Q 959 1106 1268 751 
Q 1578 397 2138 397 
Q 2388 397 2633 464 
Q 2878 531 3122 666 
L 3122 134 
Q 2881 22 2623 -34 
Q 2366 -91 2075 -91 
Q 1284 -91 818 406 
Q 353 903 353 1747 
Q 353 2603 823 3093 
Q 1294 3584 2113 3584 
Q 2378 3584 2631 3529 
Q 2884 3475 3122 3366 
z
" id="DejaVuSans-63" transform="scale(0.015625)"/>
       <path d="M 191 3500 
L 800 3500 
L 1894 563 
L 2988 3500 
L 3597 3500 
L 2284 0 
L 1503 0 
L 191 3500 
z
" id="DejaVuSans-76" transform="scale(0.015625)"/>
       <path d="M 2194 1759 
Q 1497 1759 1228 1600 
Q 959 1441 959 1056 
Q 959 750 1161 570 
Q 1363 391 1709 391 
Q 2188 391 2477 730 
Q 2766 1069 2766 1631 
L 2766 1759 
L 2194 1759 
z
M 3341 1997 
L 3341 0 
L 2766 0 
L 2766 531 
Q 2569 213 2275 61 
Q 1981 -91 1556 -91 
Q 1019 -91 701 211 
Q 384 513 384 1019 
Q 384 1609 779 1909 
Q 1175 2209 1959 2209 
L 2766 2209 
L 2766 2266 
Q 2766 2663 2505 2880 
Q 2244 3097 1772 3097 
Q 1472 3097 1187 3025 
Q 903 2953 641 2809 
L 641 3341 
Q 956 3463 1253 3523 
Q 1550 3584 1831 3584 
Q 2591 3584 2966 3190 
Q 3341 2797 3341 1997 
z
" id="DejaVuSans-61" transform="scale(0.015625)"/>
      </defs>
      <use xlink:href="#DejaVuSans-43"/>
      <use x="69.824219" xlink:href="#DejaVuSans-6f"/>
      <use x="131.005859" xlink:href="#DejaVuSans-64"/>
      <use x="194.482422" xlink:href="#DejaVuSans-65"/>
      <use x="256.005859" xlink:href="#DejaVuSans-20"/>
      <use x="287.792969" xlink:href="#DejaVuSans-72"/>
      <use x="326.65625" xlink:href="#DejaVuSans-65"/>
      <use x="388.179688" xlink:href="#DejaVuSans-67"/>
      <use x="451.65625" xlink:href="#DejaVuSans-69"/>
      <use x="479.439453" xlink:href="#DejaVuSans-6f"/>
      <use x="540.621094" xlink:href="#DejaVuSans-6e"/>
      <use x="604" xlink:href="#DejaVuSans-20"/>
      <use x="635.787109" xlink:href="#DejaVuSans-63"/>
      <use x="690.767578" xlink:href="#DejaVuSans-6f"/>
      <use x="751.949219" xlink:href="#DejaVuSans-76"/>
      <use x="811.128906" xlink:href="#DejaVuSans-65"/>
      <use x="872.652344" xlink:href="#DejaVuSans-72"/>
      <use x="913.765625" xlink:href="#DejaVuSans-61"/>
      <use x="975.044922" xlink:href="#DejaVuSans-67"/>
      <use x="1038.521484" xlink:href="#DejaVuSans-65"/>
     </g>
    </g>
   </g>
   <g id="line2d_12">
    <path clip-path="url(#pe14db973a1)" d="M 69.560852 274.645849 
L 73.832623 257.216884 
L 78.104393 245.696884 
L 82.376163 236.113435 
L 86.647934 229.112056 
L 90.919704 226.529987 
L 95.191474 225.288608 
L 99.463245 224.146539 
L 103.735015 219.876194 
L 108.006785 218.138263 
L 112.278556 215.854125 
L 116.550326 213.222401 
L 120.822096 209.696884 
L 125.093867 207.16447 
L 129.365637 205.327228 
L 133.637407 202.298263 
L 137.909178 201.901022 
L 142.180948 197.829297 
L 146.452718 192.615504 
L 150.724489 189.387918 
L 154.996259 185.415504 
L 159.268029 182.982401 
L 163.5398 179.754815 
L 167.81157 175.037573 
L 172.08334 172.405849 
L 176.355111 170.320332 
L 180.626881 166.894125 
L 184.898651 161.233435 
L 189.170422 158.20447 
L 193.442192 154.281711 
L 197.713962 148.968608 
L 201.985733 145.492746 
L 206.257503 139.732746 
L 210.529273 136.306539 
L 214.801044 133.128608 
L 219.072814 128.957573 
L 223.344584 125.729987 
L 227.616355 121.211366 
L 231.888125 115.451366 
L 236.159895 112.521711 
L 240.431666 104.92447 
L 244.703436 100.356194 
L 248.975206 95.738263 
L 253.246977 90.62378 
L 257.518747 87.346539 
L 261.790517 84.069297 
L 266.062288 82.281711 
L 270.334058 81.089987 
L 274.605828 81.685849 
L 278.877599 79.947918 
L 283.149369 75.230677 
L 287.421139 68.527228 
L 291.69291 63.859642 
L 295.96468 62.618263 
L 300.23645 60.036194 
L 304.508221 58.447228 
L 308.779991 56.262401 
L 313.051761 55.567228 
L 317.323532 54.474815 
L 321.595302 53.878953 
L 325.867072 53.779642 
L 330.138843 53.829297 
L 334.410613 52.041711 
L 338.682383 50.20447 
L 342.954154 48.615504 
L 347.225924 48.218263 
L 351.497694 47.969987 
L 355.769465 47.672056 
L 360.041235 46.381022 
L 364.313005 45.338263 
L 368.584776 45.139642 
L 372.856546 44.345159 
L 377.128316 43.550677 
L 381.400087 41.266539 
L 385.671857 40.074815 
L 389.943627 40.074815 
L 394.215398 39.975504 
" style="fill:none;stroke:#98df8a;stroke-linecap:square;stroke-width:1.5;"/>
    <defs>
     <path d="M -0 3 
L 3 -3 
L -3 -3 
z
" id="m356e46df77" style="stroke:#ffffff;stroke-linejoin:miter;stroke-width:0.75;"/>
    </defs>
    <g clip-path="url(#pe14db973a1)">
     <use style="fill:#98df8a;stroke:#ffffff;stroke-linejoin:miter;stroke-width:0.75;" x="69.560852" xlink:href="#m356e46df77" y="274.645849"/>
     <use style="fill:#98df8a;stroke:#ffffff;stroke-linejoin:miter;stroke-width:0.75;" x="73.832623" xlink:href="#m356e46df77" y="257.216884"/>
     <use style="fill:#98df8a;stroke:#ffffff;stroke-linejoin:miter;stroke-width:0.75;" x="78.104393" xlink:href="#m356e46df77" y="245.696884"/>
     <use style="fill:#98df8a;stroke:#ffffff;stroke-linejoin:miter;stroke-width:0.75;" x="82.376163" xlink:href="#m356e46df77" y="236.113435"/>
     <use style="fill:#98df8a;stroke:#ffffff;stroke-linejoin:miter;stroke-width:0.75;" x="86.647934" xlink:href="#m356e46df77" y="229.112056"/>
     <use style="fill:#98df8a;stroke:#ffffff;stroke-linejoin:miter;stroke-width:0.75;" x="90.919704" xlink:href="#m356e46df77" y="226.529987"/>
     <use style="fill:#98df8a;stroke:#ffffff;stroke-linejoin:miter;stroke-width:0.75;" x="95.191474" xlink:href="#m356e46df77" y="225.288608"/>
     <use style="fill:#98df8a;stroke:#ffffff;stroke-linejoin:miter;stroke-width:0.75;" x="99.463245" xlink:href="#m356e46df77" y="224.146539"/>
     <use style="fill:#98df8a;stroke:#ffffff;stroke-linejoin:miter;stroke-width:0.75;" x="103.735015" xlink:href="#m356e46df77" y="219.876194"/>
     <use style="fill:#98df8a;stroke:#ffffff;stroke-linejoin:miter;stroke-width:0.75;" x="108.006785" xlink:href="#m356e46df77" y="218.138263"/>
     <use style="fill:#98df8a;stroke:#ffffff;stroke-linejoin:miter;stroke-width:0.75;" x="112.278556" xlink:href="#m356e46df77" y="215.854125"/>
     <use style="fill:#98df8a;stroke:#ffffff;stroke-linejoin:miter;stroke-width:0.75;" x="116.550326" xlink:href="#m356e46df77" y="213.222401"/>
     <use style="fill:#98df8a;stroke:#ffffff;stroke-linejoin:miter;stroke-width:0.75;" x="120.822096" xlink:href="#m356e46df77" y="209.696884"/>
     <use style="fill:#98df8a;stroke:#ffffff;stroke-linejoin:miter;stroke-width:0.75;" x="125.093867" xlink:href="#m356e46df77" y="207.16447"/>
     <use style="fill:#98df8a;stroke:#ffffff;stroke-linejoin:miter;stroke-width:0.75;" x="129.365637" xlink:href="#m356e46df77" y="205.327228"/>
     <use style="fill:#98df8a;stroke:#ffffff;stroke-linejoin:miter;stroke-width:0.75;" x="133.637407" xlink:href="#m356e46df77" y="202.298263"/>
     <use style="fill:#98df8a;stroke:#ffffff;stroke-linejoin:miter;stroke-width:0.75;" x="137.909178" xlink:href="#m356e46df77" y="201.901022"/>
     <use style="fill:#98df8a;stroke:#ffffff;stroke-linejoin:miter;stroke-width:0.75;" x="142.180948" xlink:href="#m356e46df77" y="197.829297"/>
     <use style="fill:#98df8a;stroke:#ffffff;stroke-linejoin:miter;stroke-width:0.75;" x="146.452718" xlink:href="#m356e46df77" y="192.615504"/>
     <use style="fill:#98df8a;stroke:#ffffff;stroke-linejoin:miter;stroke-width:0.75;" x="150.724489" xlink:href="#m356e46df77" y="189.387918"/>
     <use style="fill:#98df8a;stroke:#ffffff;stroke-linejoin:miter;stroke-width:0.75;" x="154.996259" xlink:href="#m356e46df77" y="185.415504"/>
     <use style="fill:#98df8a;stroke:#ffffff;stroke-linejoin:miter;stroke-width:0.75;" x="159.268029" xlink:href="#m356e46df77" y="182.982401"/>
     <use style="fill:#98df8a;stroke:#ffffff;stroke-linejoin:miter;stroke-width:0.75;" x="163.5398" xlink:href="#m356e46df77" y="179.754815"/>
     <use style="fill:#98df8a;stroke:#ffffff;stroke-linejoin:miter;stroke-width:0.75;" x="167.81157" xlink:href="#m356e46df77" y="175.037573"/>
     <use style="fill:#98df8a;stroke:#ffffff;stroke-linejoin:miter;stroke-width:0.75;" x="172.08334" xlink:href="#m356e46df77" y="172.405849"/>
     <use style="fill:#98df8a;stroke:#ffffff;stroke-linejoin:miter;stroke-width:0.75;" x="176.355111" xlink:href="#m356e46df77" y="170.320332"/>
     <use style="fill:#98df8a;stroke:#ffffff;stroke-linejoin:miter;stroke-width:0.75;" x="180.626881" xlink:href="#m356e46df77" y="166.894125"/>
     <use style="fill:#98df8a;stroke:#ffffff;stroke-linejoin:miter;stroke-width:0.75;" x="184.898651" xlink:href="#m356e46df77" y="161.233435"/>
     <use style="fill:#98df8a;stroke:#ffffff;stroke-linejoin:miter;stroke-width:0.75;" x="189.170422" xlink:href="#m356e46df77" y="158.20447"/>
     <use style="fill:#98df8a;stroke:#ffffff;stroke-linejoin:miter;stroke-width:0.75;" x="193.442192" xlink:href="#m356e46df77" y="154.281711"/>
     <use style="fill:#98df8a;stroke:#ffffff;stroke-linejoin:miter;stroke-width:0.75;" x="197.713962" xlink:href="#m356e46df77" y="148.968608"/>
     <use style="fill:#98df8a;stroke:#ffffff;stroke-linejoin:miter;stroke-width:0.75;" x="201.985733" xlink:href="#m356e46df77" y="145.492746"/>
     <use style="fill:#98df8a;stroke:#ffffff;stroke-linejoin:miter;stroke-width:0.75;" x="206.257503" xlink:href="#m356e46df77" y="139.732746"/>
     <use style="fill:#98df8a;stroke:#ffffff;stroke-linejoin:miter;stroke-width:0.75;" x="210.529273" xlink:href="#m356e46df77" y="136.306539"/>
     <use style="fill:#98df8a;stroke:#ffffff;stroke-linejoin:miter;stroke-width:0.75;" x="214.801044" xlink:href="#m356e46df77" y="133.128608"/>
     <use style="fill:#98df8a;stroke:#ffffff;stroke-linejoin:miter;stroke-width:0.75;" x="219.072814" xlink:href="#m356e46df77" y="128.957573"/>
     <use style="fill:#98df8a;stroke:#ffffff;stroke-linejoin:miter;stroke-width:0.75;" x="223.344584" xlink:href="#m356e46df77" y="125.729987"/>
     <use style="fill:#98df8a;stroke:#ffffff;stroke-linejoin:miter;stroke-width:0.75;" x="227.616355" xlink:href="#m356e46df77" y="121.211366"/>
     <use style="fill:#98df8a;stroke:#ffffff;stroke-linejoin:miter;stroke-width:0.75;" x="231.888125" xlink:href="#m356e46df77" y="115.451366"/>
     <use style="fill:#98df8a;stroke:#ffffff;stroke-linejoin:miter;stroke-width:0.75;" x="236.159895" xlink:href="#m356e46df77" y="112.521711"/>
     <use style="fill:#98df8a;stroke:#ffffff;stroke-linejoin:miter;stroke-width:0.75;" x="240.431666" xlink:href="#m356e46df77" y="104.92447"/>
     <use style="fill:#98df8a;stroke:#ffffff;stroke-linejoin:miter;stroke-width:0.75;" x="244.703436" xlink:href="#m356e46df77" y="100.356194"/>
     <use style="fill:#98df8a;stroke:#ffffff;stroke-linejoin:miter;stroke-width:0.75;" x="248.975206" xlink:href="#m356e46df77" y="95.738263"/>
     <use style="fill:#98df8a;stroke:#ffffff;stroke-linejoin:miter;stroke-width:0.75;" x="253.246977" xlink:href="#m356e46df77" y="90.62378"/>
     <use style="fill:#98df8a;stroke:#ffffff;stroke-linejoin:miter;stroke-width:0.75;" x="257.518747" xlink:href="#m356e46df77" y="87.346539"/>
     <use style="fill:#98df8a;stroke:#ffffff;stroke-linejoin:miter;stroke-width:0.75;" x="261.790517" xlink:href="#m356e46df77" y="84.069297"/>
     <use style="fill:#98df8a;stroke:#ffffff;stroke-linejoin:miter;stroke-width:0.75;" x="266.062288" xlink:href="#m356e46df77" y="82.281711"/>
     <use style="fill:#98df8a;stroke:#ffffff;stroke-linejoin:miter;stroke-width:0.75;" x="270.334058" xlink:href="#m356e46df77" y="81.089987"/>
     <use style="fill:#98df8a;stroke:#ffffff;stroke-linejoin:miter;stroke-width:0.75;" x="274.605828" xlink:href="#m356e46df77" y="81.685849"/>
     <use style="fill:#98df8a;stroke:#ffffff;stroke-linejoin:miter;stroke-width:0.75;" x="278.877599" xlink:href="#m356e46df77" y="79.947918"/>
     <use style="fill:#98df8a;stroke:#ffffff;stroke-linejoin:miter;stroke-width:0.75;" x="283.149369" xlink:href="#m356e46df77" y="75.230677"/>
     <use style="fill:#98df8a;stroke:#ffffff;stroke-linejoin:miter;stroke-width:0.75;" x="287.421139" xlink:href="#m356e46df77" y="68.527228"/>
     <use style="fill:#98df8a;stroke:#ffffff;stroke-linejoin:miter;stroke-width:0.75;" x="291.69291" xlink:href="#m356e46df77" y="63.859642"/>
     <use style="fill:#98df8a;stroke:#ffffff;stroke-linejoin:miter;stroke-width:0.75;" x="295.96468" xlink:href="#m356e46df77" y="62.618263"/>
     <use style="fill:#98df8a;stroke:#ffffff;stroke-linejoin:miter;stroke-width:0.75;" x="300.23645" xlink:href="#m356e46df77" y="60.036194"/>
     <use style="fill:#98df8a;stroke:#ffffff;stroke-linejoin:miter;stroke-width:0.75;" x="304.508221" xlink:href="#m356e46df77" y="58.447228"/>
     <use style="fill:#98df8a;stroke:#ffffff;stroke-linejoin:miter;stroke-width:0.75;" x="308.779991" xlink:href="#m356e46df77" y="56.262401"/>
     <use style="fill:#98df8a;stroke:#ffffff;stroke-linejoin:miter;stroke-width:0.75;" x="313.051761" xlink:href="#m356e46df77" y="55.567228"/>
     <use style="fill:#98df8a;stroke:#ffffff;stroke-linejoin:miter;stroke-width:0.75;" x="317.323532" xlink:href="#m356e46df77" y="54.474815"/>
     <use style="fill:#98df8a;stroke:#ffffff;stroke-linejoin:miter;stroke-width:0.75;" x="321.595302" xlink:href="#m356e46df77" y="53.878953"/>
     <use style="fill:#98df8a;stroke:#ffffff;stroke-linejoin:miter;stroke-width:0.75;" x="325.867072" xlink:href="#m356e46df77" y="53.779642"/>
     <use style="fill:#98df8a;stroke:#ffffff;stroke-linejoin:miter;stroke-width:0.75;" x="330.138843" xlink:href="#m356e46df77" y="53.829297"/>
     <use style="fill:#98df8a;stroke:#ffffff;stroke-linejoin:miter;stroke-width:0.75;" x="334.410613" xlink:href="#m356e46df77" y="52.041711"/>
     <use style="fill:#98df8a;stroke:#ffffff;stroke-linejoin:miter;stroke-width:0.75;" x="338.682383" xlink:href="#m356e46df77" y="50.20447"/>
     <use style="fill:#98df8a;stroke:#ffffff;stroke-linejoin:miter;stroke-width:0.75;" x="342.954154" xlink:href="#m356e46df77" y="48.615504"/>
     <use style="fill:#98df8a;stroke:#ffffff;stroke-linejoin:miter;stroke-width:0.75;" x="347.225924" xlink:href="#m356e46df77" y="48.218263"/>
     <use style="fill:#98df8a;stroke:#ffffff;stroke-linejoin:miter;stroke-width:0.75;" x="351.497694" xlink:href="#m356e46df77" y="47.969987"/>
     <use style="fill:#98df8a;stroke:#ffffff;stroke-linejoin:miter;stroke-width:0.75;" x="355.769465" xlink:href="#m356e46df77" y="47.672056"/>
     <use style="fill:#98df8a;stroke:#ffffff;stroke-linejoin:miter;stroke-width:0.75;" x="360.041235" xlink:href="#m356e46df77" y="46.381022"/>
     <use style="fill:#98df8a;stroke:#ffffff;stroke-linejoin:miter;stroke-width:0.75;" x="364.313005" xlink:href="#m356e46df77" y="45.338263"/>
     <use style="fill:#98df8a;stroke:#ffffff;stroke-linejoin:miter;stroke-width:0.75;" x="368.584776" xlink:href="#m356e46df77" y="45.139642"/>
     <use style="fill:#98df8a;stroke:#ffffff;stroke-linejoin:miter;stroke-width:0.75;" x="372.856546" xlink:href="#m356e46df77" y="44.345159"/>
     <use style="fill:#98df8a;stroke:#ffffff;stroke-linejoin:miter;stroke-width:0.75;" x="377.128316" xlink:href="#m356e46df77" y="43.550677"/>
     <use style="fill:#98df8a;stroke:#ffffff;stroke-linejoin:miter;stroke-width:0.75;" x="381.400087" xlink:href="#m356e46df77" y="41.266539"/>
     <use style="fill:#98df8a;stroke:#ffffff;stroke-linejoin:miter;stroke-width:0.75;" x="385.671857" xlink:href="#m356e46df77" y="40.074815"/>
     <use style="fill:#98df8a;stroke:#ffffff;stroke-linejoin:miter;stroke-width:0.75;" x="389.943627" xlink:href="#m356e46df77" y="40.074815"/>
     <use style="fill:#98df8a;stroke:#ffffff;stroke-linejoin:miter;stroke-width:0.75;" x="394.215398" xlink:href="#m356e46df77" y="39.975504"/>
    </g>
   </g>
   <g id="line2d_13">
    <path clip-path="url(#pe14db973a1)" d="M 69.560852 273.553435 
L 73.832623 260.394815 
L 78.104393 254.187918 
L 82.376163 239.936884 
L 86.647934 229.956194 
L 90.919704 226.281711 
L 95.191474 224.394815 
L 99.463245 223.153435 
L 103.735015 220.323091 
L 108.006785 219.230677 
L 112.278556 218.78378 
L 116.550326 216.747918 
L 120.822096 211.931366 
L 125.093867 208.60447 
L 129.365637 205.674815 
L 133.637407 204.234815 
L 137.909178 201.950677 
L 142.180948 198.62378 
L 146.452718 195.594815 
L 150.724489 193.161711 
L 154.996259 188.841711 
L 159.268029 182.436194 
L 163.5398 181.939642 
L 167.81157 178.066539 
L 172.08334 175.335504 
L 176.355111 174.243091 
L 180.626881 170.072056 
L 184.898651 166.794815 
L 189.170422 164.312056 
L 193.442192 159.346539 
L 197.713962 154.381022 
L 201.985733 150.507918 
L 206.257503 145.840332 
L 210.529273 143.258263 
L 214.801044 137.796194 
L 219.072814 134.518953 
L 223.344584 130.645849 
L 227.616355 125.680332 
L 231.888125 120.814125 
L 236.159895 117.934125 
L 240.431666 117.139642 
L 244.703436 117.040332 
L 248.975206 116.841711 
L 253.246977 116.643091 
L 257.518747 116.047228 
L 261.790517 113.365849 
L 266.062288 113.266539 
L 270.334058 113.067918 
L 274.605828 109.095504 
L 278.877599 108.847228 
L 283.149369 107.90378 
L 287.421139 106.116194 
L 291.69291 103.48447 
L 295.96468 103.285849 
L 300.23645 102.441711 
L 304.508221 103.832056 
L 308.779991 102.14378 
L 313.051761 102.04447 
L 317.323532 101.150677 
L 321.595302 100.356194 
L 325.867072 99.760332 
L 330.138843 99.561711 
L 334.410613 99.26378 
L 338.682383 98.667918 
L 342.954154 99.363091 
L 347.225924 98.171366 
L 351.497694 95.688608 
L 355.769465 95.688608 
L 360.041235 94.000332 
L 364.313005 93.106539 
L 368.584776 92.709297 
L 372.856546 92.709297 
L 377.128316 92.609987 
L 381.400087 93.156194 
L 385.671857 93.702401 
L 389.943627 93.106539 
L 394.215398 93.106539 
" style="fill:none;stroke:#1f77b4;stroke-linecap:square;stroke-width:1.5;"/>
    <defs>
     <path d="M 0 3 
C 0.795609 3 1.55874 2.683901 2.12132 2.12132 
C 2.683901 1.55874 3 0.795609 3 0 
C 3 -0.795609 2.683901 -1.55874 2.12132 -2.12132 
C 1.55874 -2.683901 0.795609 -3 0 -3 
C -0.795609 -3 -1.55874 -2.683901 -2.12132 -2.12132 
C -2.683901 -1.55874 -3 -0.795609 -3 0 
C -3 0.795609 -2.683901 1.55874 -2.12132 2.12132 
C -1.55874 2.683901 -0.795609 3 0 3 
z
" id="m0e3aea89f6" style="stroke:#ffffff;stroke-width:0.75;"/>
    </defs>
    <g clip-path="url(#pe14db973a1)">
     <use style="fill:#1f77b4;stroke:#ffffff;stroke-width:0.75;" x="69.560852" xlink:href="#m0e3aea89f6" y="273.553435"/>
     <use style="fill:#1f77b4;stroke:#ffffff;stroke-width:0.75;" x="73.832623" xlink:href="#m0e3aea89f6" y="260.394815"/>
     <use style="fill:#1f77b4;stroke:#ffffff;stroke-width:0.75;" x="78.104393" xlink:href="#m0e3aea89f6" y="254.187918"/>
     <use style="fill:#1f77b4;stroke:#ffffff;stroke-width:0.75;" x="82.376163" xlink:href="#m0e3aea89f6" y="239.936884"/>
     <use style="fill:#1f77b4;stroke:#ffffff;stroke-width:0.75;" x="86.647934" xlink:href="#m0e3aea89f6" y="229.956194"/>
     <use style="fill:#1f77b4;stroke:#ffffff;stroke-width:0.75;" x="90.919704" xlink:href="#m0e3aea89f6" y="226.281711"/>
     <use style="fill:#1f77b4;stroke:#ffffff;stroke-width:0.75;" x="95.191474" xlink:href="#m0e3aea89f6" y="224.394815"/>
     <use style="fill:#1f77b4;stroke:#ffffff;stroke-width:0.75;" x="99.463245" xlink:href="#m0e3aea89f6" y="223.153435"/>
     <use style="fill:#1f77b4;stroke:#ffffff;stroke-width:0.75;" x="103.735015" xlink:href="#m0e3aea89f6" y="220.323091"/>
     <use style="fill:#1f77b4;stroke:#ffffff;stroke-width:0.75;" x="108.006785" xlink:href="#m0e3aea89f6" y="219.230677"/>
     <use style="fill:#1f77b4;stroke:#ffffff;stroke-width:0.75;" x="112.278556" xlink:href="#m0e3aea89f6" y="218.78378"/>
     <use style="fill:#1f77b4;stroke:#ffffff;stroke-width:0.75;" x="116.550326" xlink:href="#m0e3aea89f6" y="216.747918"/>
     <use style="fill:#1f77b4;stroke:#ffffff;stroke-width:0.75;" x="120.822096" xlink:href="#m0e3aea89f6" y="211.931366"/>
     <use style="fill:#1f77b4;stroke:#ffffff;stroke-width:0.75;" x="125.093867" xlink:href="#m0e3aea89f6" y="208.60447"/>
     <use style="fill:#1f77b4;stroke:#ffffff;stroke-width:0.75;" x="129.365637" xlink:href="#m0e3aea89f6" y="205.674815"/>
     <use style="fill:#1f77b4;stroke:#ffffff;stroke-width:0.75;" x="133.637407" xlink:href="#m0e3aea89f6" y="204.234815"/>
     <use style="fill:#1f77b4;stroke:#ffffff;stroke-width:0.75;" x="137.909178" xlink:href="#m0e3aea89f6" y="201.950677"/>
     <use style="fill:#1f77b4;stroke:#ffffff;stroke-width:0.75;" x="142.180948" xlink:href="#m0e3aea89f6" y="198.62378"/>
     <use style="fill:#1f77b4;stroke:#ffffff;stroke-width:0.75;" x="146.452718" xlink:href="#m0e3aea89f6" y="195.594815"/>
     <use style="fill:#1f77b4;stroke:#ffffff;stroke-width:0.75;" x="150.724489" xlink:href="#m0e3aea89f6" y="193.161711"/>
     <use style="fill:#1f77b4;stroke:#ffffff;stroke-width:0.75;" x="154.996259" xlink:href="#m0e3aea89f6" y="188.841711"/>
     <use style="fill:#1f77b4;stroke:#ffffff;stroke-width:0.75;" x="159.268029" xlink:href="#m0e3aea89f6" y="182.436194"/>
     <use style="fill:#1f77b4;stroke:#ffffff;stroke-width:0.75;" x="163.5398" xlink:href="#m0e3aea89f6" y="181.939642"/>
     <use style="fill:#1f77b4;stroke:#ffffff;stroke-width:0.75;" x="167.81157" xlink:href="#m0e3aea89f6" y="178.066539"/>
     <use style="fill:#1f77b4;stroke:#ffffff;stroke-width:0.75;" x="172.08334" xlink:href="#m0e3aea89f6" y="175.335504"/>
     <use style="fill:#1f77b4;stroke:#ffffff;stroke-width:0.75;" x="176.355111" xlink:href="#m0e3aea89f6" y="174.243091"/>
     <use style="fill:#1f77b4;stroke:#ffffff;stroke-width:0.75;" x="180.626881" xlink:href="#m0e3aea89f6" y="170.072056"/>
     <use style="fill:#1f77b4;stroke:#ffffff;stroke-width:0.75;" x="184.898651" xlink:href="#m0e3aea89f6" y="166.794815"/>
     <use style="fill:#1f77b4;stroke:#ffffff;stroke-width:0.75;" x="189.170422" xlink:href="#m0e3aea89f6" y="164.312056"/>
     <use style="fill:#1f77b4;stroke:#ffffff;stroke-width:0.75;" x="193.442192" xlink:href="#m0e3aea89f6" y="159.346539"/>
     <use style="fill:#1f77b4;stroke:#ffffff;stroke-width:0.75;" x="197.713962" xlink:href="#m0e3aea89f6" y="154.381022"/>
     <use style="fill:#1f77b4;stroke:#ffffff;stroke-width:0.75;" x="201.985733" xlink:href="#m0e3aea89f6" y="150.507918"/>
     <use style="fill:#1f77b4;stroke:#ffffff;stroke-width:0.75;" x="206.257503" xlink:href="#m0e3aea89f6" y="145.840332"/>
     <use style="fill:#1f77b4;stroke:#ffffff;stroke-width:0.75;" x="210.529273" xlink:href="#m0e3aea89f6" y="143.258263"/>
     <use style="fill:#1f77b4;stroke:#ffffff;stroke-width:0.75;" x="214.801044" xlink:href="#m0e3aea89f6" y="137.796194"/>
     <use style="fill:#1f77b4;stroke:#ffffff;stroke-width:0.75;" x="219.072814" xlink:href="#m0e3aea89f6" y="134.518953"/>
     <use style="fill:#1f77b4;stroke:#ffffff;stroke-width:0.75;" x="223.344584" xlink:href="#m0e3aea89f6" y="130.645849"/>
     <use style="fill:#1f77b4;stroke:#ffffff;stroke-width:0.75;" x="227.616355" xlink:href="#m0e3aea89f6" y="125.680332"/>
     <use style="fill:#1f77b4;stroke:#ffffff;stroke-width:0.75;" x="231.888125" xlink:href="#m0e3aea89f6" y="120.814125"/>
     <use style="fill:#1f77b4;stroke:#ffffff;stroke-width:0.75;" x="236.159895" xlink:href="#m0e3aea89f6" y="117.934125"/>
     <use style="fill:#1f77b4;stroke:#ffffff;stroke-width:0.75;" x="240.431666" xlink:href="#m0e3aea89f6" y="117.139642"/>
     <use style="fill:#1f77b4;stroke:#ffffff;stroke-width:0.75;" x="244.703436" xlink:href="#m0e3aea89f6" y="117.040332"/>
     <use style="fill:#1f77b4;stroke:#ffffff;stroke-width:0.75;" x="248.975206" xlink:href="#m0e3aea89f6" y="116.841711"/>
     <use style="fill:#1f77b4;stroke:#ffffff;stroke-width:0.75;" x="253.246977" xlink:href="#m0e3aea89f6" y="116.643091"/>
     <use style="fill:#1f77b4;stroke:#ffffff;stroke-width:0.75;" x="257.518747" xlink:href="#m0e3aea89f6" y="116.047228"/>
     <use style="fill:#1f77b4;stroke:#ffffff;stroke-width:0.75;" x="261.790517" xlink:href="#m0e3aea89f6" y="113.365849"/>
     <use style="fill:#1f77b4;stroke:#ffffff;stroke-width:0.75;" x="266.062288" xlink:href="#m0e3aea89f6" y="113.266539"/>
     <use style="fill:#1f77b4;stroke:#ffffff;stroke-width:0.75;" x="270.334058" xlink:href="#m0e3aea89f6" y="113.067918"/>
     <use style="fill:#1f77b4;stroke:#ffffff;stroke-width:0.75;" x="274.605828" xlink:href="#m0e3aea89f6" y="109.095504"/>
     <use style="fill:#1f77b4;stroke:#ffffff;stroke-width:0.75;" x="278.877599" xlink:href="#m0e3aea89f6" y="108.847228"/>
     <use style="fill:#1f77b4;stroke:#ffffff;stroke-width:0.75;" x="283.149369" xlink:href="#m0e3aea89f6" y="107.90378"/>
     <use style="fill:#1f77b4;stroke:#ffffff;stroke-width:0.75;" x="287.421139" xlink:href="#m0e3aea89f6" y="106.116194"/>
     <use style="fill:#1f77b4;stroke:#ffffff;stroke-width:0.75;" x="291.69291" xlink:href="#m0e3aea89f6" y="103.48447"/>
     <use style="fill:#1f77b4;stroke:#ffffff;stroke-width:0.75;" x="295.96468" xlink:href="#m0e3aea89f6" y="103.285849"/>
     <use style="fill:#1f77b4;stroke:#ffffff;stroke-width:0.75;" x="300.23645" xlink:href="#m0e3aea89f6" y="102.441711"/>
     <use style="fill:#1f77b4;stroke:#ffffff;stroke-width:0.75;" x="304.508221" xlink:href="#m0e3aea89f6" y="103.832056"/>
     <use style="fill:#1f77b4;stroke:#ffffff;stroke-width:0.75;" x="308.779991" xlink:href="#m0e3aea89f6" y="102.14378"/>
     <use style="fill:#1f77b4;stroke:#ffffff;stroke-width:0.75;" x="313.051761" xlink:href="#m0e3aea89f6" y="102.04447"/>
     <use style="fill:#1f77b4;stroke:#ffffff;stroke-width:0.75;" x="317.323532" xlink:href="#m0e3aea89f6" y="101.150677"/>
     <use style="fill:#1f77b4;stroke:#ffffff;stroke-width:0.75;" x="321.595302" xlink:href="#m0e3aea89f6" y="100.356194"/>
     <use style="fill:#1f77b4;stroke:#ffffff;stroke-width:0.75;" x="325.867072" xlink:href="#m0e3aea89f6" y="99.760332"/>
     <use style="fill:#1f77b4;stroke:#ffffff;stroke-width:0.75;" x="330.138843" xlink:href="#m0e3aea89f6" y="99.561711"/>
     <use style="fill:#1f77b4;stroke:#ffffff;stroke-width:0.75;" x="334.410613" xlink:href="#m0e3aea89f6" y="99.26378"/>
     <use style="fill:#1f77b4;stroke:#ffffff;stroke-width:0.75;" x="338.682383" xlink:href="#m0e3aea89f6" y="98.667918"/>
     <use style="fill:#1f77b4;stroke:#ffffff;stroke-width:0.75;" x="342.954154" xlink:href="#m0e3aea89f6" y="99.363091"/>
     <use style="fill:#1f77b4;stroke:#ffffff;stroke-width:0.75;" x="347.225924" xlink:href="#m0e3aea89f6" y="98.171366"/>
     <use style="fill:#1f77b4;stroke:#ffffff;stroke-width:0.75;" x="351.497694" xlink:href="#m0e3aea89f6" y="95.688608"/>
     <use style="fill:#1f77b4;stroke:#ffffff;stroke-width:0.75;" x="355.769465" xlink:href="#m0e3aea89f6" y="95.688608"/>
     <use style="fill:#1f77b4;stroke:#ffffff;stroke-width:0.75;" x="360.041235" xlink:href="#m0e3aea89f6" y="94.000332"/>
     <use style="fill:#1f77b4;stroke:#ffffff;stroke-width:0.75;" x="364.313005" xlink:href="#m0e3aea89f6" y="93.106539"/>
     <use style="fill:#1f77b4;stroke:#ffffff;stroke-width:0.75;" x="368.584776" xlink:href="#m0e3aea89f6" y="92.709297"/>
     <use style="fill:#1f77b4;stroke:#ffffff;stroke-width:0.75;" x="372.856546" xlink:href="#m0e3aea89f6" y="92.709297"/>
     <use style="fill:#1f77b4;stroke:#ffffff;stroke-width:0.75;" x="377.128316" xlink:href="#m0e3aea89f6" y="92.609987"/>
     <use style="fill:#1f77b4;stroke:#ffffff;stroke-width:0.75;" x="381.400087" xlink:href="#m0e3aea89f6" y="93.156194"/>
     <use style="fill:#1f77b4;stroke:#ffffff;stroke-width:0.75;" x="385.671857" xlink:href="#m0e3aea89f6" y="93.702401"/>
     <use style="fill:#1f77b4;stroke:#ffffff;stroke-width:0.75;" x="389.943627" xlink:href="#m0e3aea89f6" y="93.106539"/>
     <use style="fill:#1f77b4;stroke:#ffffff;stroke-width:0.75;" x="394.215398" xlink:href="#m0e3aea89f6" y="93.106539"/>
    </g>
   </g>
   <g id="line2d_14"/>
   <g id="line2d_15"/>
   <g id="patch_3">
    <path d="M 53.328125 257.266539 
L 53.328125 58.645849 
" style="fill:none;stroke:#000000;stroke-linecap:square;stroke-linejoin:miter;stroke-width:0.8;"/>
   </g>
   <g id="patch_4">
    <path d="M 69.560852 288.430125 
L 343.666115 288.430125 
" style="fill:none;stroke:#000000;stroke-linecap:square;stroke-linejoin:miter;stroke-width:0.8;"/>
   </g>
   <g id="text_14">
    <!-- mruby-2018-05-23 (19h:15m, 5 trials/fuzzer) -->
    <g transform="translate(97.072813 16.318125)scale(0.12 -0.12)">
     <defs>
      <path d="M 3116 1747 
Q 3116 2381 2855 2742 
Q 2594 3103 2138 3103 
Q 1681 3103 1420 2742 
Q 1159 2381 1159 1747 
Q 1159 1113 1420 752 
Q 1681 391 2138 391 
Q 2594 391 2855 752 
Q 3116 1113 3116 1747 
z
M 1159 2969 
Q 1341 3281 1617 3432 
Q 1894 3584 2278 3584 
Q 2916 3584 3314 3078 
Q 3713 2572 3713 1747 
Q 3713 922 3314 415 
Q 2916 -91 2278 -91 
Q 1894 -91 1617 61 
Q 1341 213 1159 525 
L 1159 0 
L 581 0 
L 581 4863 
L 1159 4863 
L 1159 2969 
z
" id="DejaVuSans-62" transform="scale(0.015625)"/>
      <path d="M 2059 -325 
Q 1816 -950 1584 -1140 
Q 1353 -1331 966 -1331 
L 506 -1331 
L 506 -850 
L 844 -850 
Q 1081 -850 1212 -737 
Q 1344 -625 1503 -206 
L 1606 56 
L 191 3500 
L 800 3500 
L 1894 763 
L 2988 3500 
L 3597 3500 
L 2059 -325 
z
" id="DejaVuSans-79" transform="scale(0.015625)"/>
      <path d="M 313 2009 
L 1997 2009 
L 1997 1497 
L 313 1497 
L 313 2009 
z
" id="DejaVuSans-2d" transform="scale(0.015625)"/>
      <path d="M 750 794 
L 1409 794 
L 1409 256 
L 897 -744 
L 494 -744 
L 750 256 
L 750 794 
z
" id="DejaVuSans-2c" transform="scale(0.015625)"/>
      <path d="M 603 4863 
L 1178 4863 
L 1178 0 
L 603 0 
L 603 4863 
z
" id="DejaVuSans-6c" transform="scale(0.015625)"/>
      <path d="M 2834 3397 
L 2834 2853 
Q 2591 2978 2328 3040 
Q 2066 3103 1784 3103 
Q 1356 3103 1142 2972 
Q 928 2841 928 2578 
Q 928 2378 1081 2264 
Q 1234 2150 1697 2047 
L 1894 2003 
Q 2506 1872 2764 1633 
Q 3022 1394 3022 966 
Q 3022 478 2636 193 
Q 2250 -91 1575 -91 
Q 1294 -91 989 -36 
Q 684 19 347 128 
L 347 722 
Q 666 556 975 473 
Q 1284 391 1588 391 
Q 1994 391 2212 530 
Q 2431 669 2431 922 
Q 2431 1156 2273 1281 
Q 2116 1406 1581 1522 
L 1381 1569 
Q 847 1681 609 1914 
Q 372 2147 372 2553 
Q 372 3047 722 3315 
Q 1072 3584 1716 3584 
Q 2034 3584 2315 3537 
Q 2597 3491 2834 3397 
z
" id="DejaVuSans-73" transform="scale(0.015625)"/>
      <path d="M 1625 4666 
L 2156 4666 
L 531 -594 
L 0 -594 
L 1625 4666 
z
" id="DejaVuSans-2f" transform="scale(0.015625)"/>
      <path d="M 2375 4863 
L 2375 4384 
L 1825 4384 
Q 1516 4384 1395 4259 
Q 1275 4134 1275 3809 
L 1275 3500 
L 2222 3500 
L 2222 3053 
L 1275 3053 
L 1275 0 
L 697 0 
L 697 3053 
L 147 3053 
L 147 3500 
L 697 3500 
L 697 3744 
Q 697 4328 969 4595 
Q 1241 4863 1831 4863 
L 2375 4863 
z
" id="DejaVuSans-66" transform="scale(0.015625)"/>
      <path d="M 353 3500 
L 3084 3500 
L 3084 2975 
L 922 459 
L 3084 459 
L 3084 0 
L 275 0 
L 275 525 
L 2438 3041 
L 353 3041 
L 353 3500 
z
" id="DejaVuSans-7a" transform="scale(0.015625)"/>
     </defs>
     <use xlink:href="#DejaVuSans-6d"/>
     <use x="97.412109" xlink:href="#DejaVuSans-72"/>
     <use x="138.525391" xlink:href="#DejaVuSans-75"/>
     <use x="201.904297" xlink:href="#DejaVuSans-62"/>
     <use x="265.380859" xlink:href="#DejaVuSans-79"/>
     <use x="322.810547" xlink:href="#DejaVuSans-2d"/>
     <use x="358.894531" xlink:href="#DejaVuSans-32"/>
     <use x="422.517578" xlink:href="#DejaVuSans-30"/>
     <use x="486.140625" xlink:href="#DejaVuSans-31"/>
     <use x="549.763672" xlink:href="#DejaVuSans-38"/>
     <use x="613.386719" xlink:href="#DejaVuSans-2d"/>
     <use x="649.470703" xlink:href="#DejaVuSans-30"/>
     <use x="713.09375" xlink:href="#DejaVuSans-35"/>
     <use x="776.716797" xlink:href="#DejaVuSans-2d"/>
     <use x="812.800781" xlink:href="#DejaVuSans-32"/>
     <use x="876.423828" xlink:href="#DejaVuSans-33"/>
     <use x="940.046875" xlink:href="#DejaVuSans-20"/>
     <use x="971.833984" xlink:href="#DejaVuSans-28"/>
     <use x="1010.847656" xlink:href="#DejaVuSans-31"/>
     <use x="1074.470703" xlink:href="#DejaVuSans-39"/>
     <use x="1138.09375" xlink:href="#DejaVuSans-68"/>
     <use x="1201.472656" xlink:href="#DejaVuSans-3a"/>
     <use x="1235.164062" xlink:href="#DejaVuSans-31"/>
     <use x="1298.787109" xlink:href="#DejaVuSans-35"/>
     <use x="1362.410156" xlink:href="#DejaVuSans-6d"/>
     <use x="1459.822266" xlink:href="#DejaVuSans-2c"/>
     <use x="1491.609375" xlink:href="#DejaVuSans-20"/>
     <use x="1523.396484" xlink:href="#DejaVuSans-35"/>
     <use x="1587.019531" xlink:href="#DejaVuSans-20"/>
     <use x="1618.806641" xlink:href="#DejaVuSans-74"/>
     <use x="1658.015625" xlink:href="#DejaVuSans-72"/>
     <use x="1699.128906" xlink:href="#DejaVuSans-69"/>
     <use x="1726.912109" xlink:href="#DejaVuSans-61"/>
     <use x="1788.191406" xlink:href="#DejaVuSans-6c"/>
     <use x="1815.974609" xlink:href="#DejaVuSans-73"/>
     <use x="1868.074219" xlink:href="#DejaVuSans-2f"/>
     <use x="1901.765625" xlink:href="#DejaVuSans-66"/>
     <use x="1936.970703" xlink:href="#DejaVuSans-75"/>
     <use x="2000.349609" xlink:href="#DejaVuSans-7a"/>
     <use x="2052.839844" xlink:href="#DejaVuSans-7a"/>
     <use x="2105.330078" xlink:href="#DejaVuSans-65"/>
     <use x="2166.853516" xlink:href="#DejaVuSans-72"/>
     <use x="2207.966797" xlink:href="#DejaVuSans-29"/>
    </g>
   </g>
   <g id="legend_1">
    <g id="line2d_16">
     <path d="M 414.448125 30.416562 
L 434.448125 30.416562 
" style="fill:none;stroke:#98df8a;stroke-linecap:square;stroke-width:1.5;"/>
    </g>
    <g id="line2d_17">
     <defs>
      <path d="M -0 3 
L 3 -3 
L -3 -3 
z
" id="m954711de9b" style="stroke:#98df8a;stroke-linejoin:miter;"/>
     </defs>
     <g>
      <use style="fill:#98df8a;stroke:#98df8a;stroke-linejoin:miter;" x="424.448125" xlink:href="#m954711de9b" y="30.416562"/>
     </g>
    </g>
    <g id="text_15">
     <!-- afl_splicing_mutation -->
     <g transform="translate(442.448125 33.916562)scale(0.1 -0.1)">
      <defs>
       <path d="M 3263 -1063 
L 3263 -1509 
L -63 -1509 
L -63 -1063 
L 3263 -1063 
z
" id="DejaVuSans-5f" transform="scale(0.015625)"/>
       <path d="M 1159 525 
L 1159 -1331 
L 581 -1331 
L 581 3500 
L 1159 3500 
L 1159 2969 
Q 1341 3281 1617 3432 
Q 1894 3584 2278 3584 
Q 2916 3584 3314 3078 
Q 3713 2572 3713 1747 
Q 3713 922 3314 415 
Q 2916 -91 2278 -91 
Q 1894 -91 1617 61 
Q 1341 213 1159 525 
z
M 3116 1747 
Q 3116 2381 2855 2742 
Q 2594 3103 2138 3103 
Q 1681 3103 1420 2742 
Q 1159 2381 1159 1747 
Q 1159 1113 1420 752 
Q 1681 391 2138 391 
Q 2594 391 2855 752 
Q 3116 1113 3116 1747 
z
" id="DejaVuSans-70" transform="scale(0.015625)"/>
      </defs>
      <use xlink:href="#DejaVuSans-61"/>
      <use x="61.279297" xlink:href="#DejaVuSans-66"/>
      <use x="96.484375" xlink:href="#DejaVuSans-6c"/>
      <use x="124.267578" xlink:href="#DejaVuSans-5f"/>
      <use x="174.267578" xlink:href="#DejaVuSans-73"/>
      <use x="226.367188" xlink:href="#DejaVuSans-70"/>
      <use x="289.84375" xlink:href="#DejaVuSans-6c"/>
      <use x="317.626953" xlink:href="#DejaVuSans-69"/>
      <use x="345.410156" xlink:href="#DejaVuSans-63"/>
      <use x="400.390625" xlink:href="#DejaVuSans-69"/>
      <use x="428.173828" xlink:href="#DejaVuSans-6e"/>
      <use x="491.552734" xlink:href="#DejaVuSans-67"/>
      <use x="555.029297" xlink:href="#DejaVuSans-5f"/>
      <use x="605.029297" xlink:href="#DejaVuSans-6d"/>
      <use x="702.441406" xlink:href="#DejaVuSans-75"/>
      <use x="765.820312" xlink:href="#DejaVuSans-74"/>
      <use x="805.029297" xlink:href="#DejaVuSans-61"/>
      <use x="866.308594" xlink:href="#DejaVuSans-74"/>
      <use x="905.517578" xlink:href="#DejaVuSans-69"/>
      <use x="933.300781" xlink:href="#DejaVuSans-6f"/>
      <use x="994.482422" xlink:href="#DejaVuSans-6e"/>
     </g>
    </g>
    <g id="line2d_18">
     <path d="M 414.448125 45.372813 
L 434.448125 45.372813 
" style="fill:none;stroke:#1f77b4;stroke-linecap:square;stroke-width:1.5;"/>
    </g>
    <g id="line2d_19">
     <defs>
      <path d="M 0 3 
C 0.795609 3 1.55874 2.683901 2.12132 2.12132 
C 2.683901 1.55874 3 0.795609 3 0 
C 3 -0.795609 2.683901 -1.55874 2.12132 -2.12132 
C 1.55874 -2.683901 0.795609 -3 0 -3 
C -0.795609 -3 -1.55874 -2.683901 -2.12132 -2.12132 
C -2.683901 -1.55874 -3 -0.795609 -3 0 
C -3 0.795609 -2.683901 1.55874 -2.12132 2.12132 
C -1.55874 2.683901 -0.795609 3 0 3 
z
" id="mfa5f51f694" style="stroke:#1f77b4;"/>
     </defs>
     <g>
      <use style="fill:#1f77b4;stroke:#1f77b4;" x="424.448125" xlink:href="#mfa5f51f694" y="45.372813"/>
     </g>
    </g>
    <g id="text_16">
     <!-- afl -->
     <g transform="translate(442.448125 48.872813)scale(0.1 -0.1)">
      <use xlink:href="#DejaVuSans-61"/>
      <use x="61.279297" xlink:href="#DejaVuSans-66"/>
      <use x="96.484375" xlink:href="#DejaVuSans-6c"/>
     </g>
    </g>
   </g>
  </g>
 </g>
 <defs>
  <clipPath id="pe14db973a1">
   <rect height="266.112" width="357.12" x="53.328125" y="22.318125"/>
  </clipPath>
 </defs>
</svg>
