<?xml version="1.0" encoding="utf-8" standalone="no"?>
<!DOCTYPE svg PUBLIC "-//W3C//DTD SVG 1.1//EN"
  "http://www.w3.org/Graphics/SVG/1.1/DTD/svg11.dtd">
<svg height="325.986375pt" version="1.1" viewBox="0 0 565.795 325.986375" width="565.795pt" xmlns="http://www.w3.org/2000/svg" xmlns:xlink="http://www.w3.org/1999/xlink">
 <metadata>
  <rdf:RDF xmlns:cc="http://creativecommons.org/ns#" xmlns:dc="http://purl.org/dc/elements/1.1/" xmlns:rdf="http://www.w3.org/1999/02/22-rdf-syntax-ns#">
   <cc:Work>
    <dc:type rdf:resource="http://purl.org/dc/dcmitype/StillImage"/>
    <dc:date>2022-08-18T10:33:04.689085</dc:date>
    <dc:format>image/svg+xml</dc:format>
    <dc:creator>
     <cc:Agent>
      <dc:title>Matplotlib v3.4.3, https://matplotlib.org/</dc:title>
     </cc:Agent>
    </dc:creator>
   </cc:Work>
  </rdf:RDF>
 </metadata>
 <defs>
  <style type="text/css">*{stroke-linecap:butt;stroke-linejoin:round;}</style>
 </defs>
 <g id="figure_1">
  <g id="patch_1">
   <path d="M 0 325.986375 
L 565.795 325.986375 
L 565.795 0 
L 0 0 
z
" style="fill:#ffffff;"/>
  </g>
  <g id="axes_1">
   <g id="patch_2">
    <path d="M 59.690625 288.430125 
L 416.810625 288.430125 
L 416.810625 22.318125 
L 59.690625 22.318125 
z
" style="fill:#ffffff;"/>
   </g>
   <g id="PolyCollection_1">
    <defs>
     <path d="M 75.923352 -63.668472 
L 75.923352 -49.65225 
L 125.689806 -104.035193 
L 154.801316 -125.199689 
L 175.45626 -136.132343 
L 191.47748 -154.493594 
L 204.567769 -163.884463 
L 215.635452 -170.472088 
L 225.222714 -171.313061 
L 233.679279 -176.218739 
L 241.243934 -183.367012 
L 248.086996 -182.806364 
L 254.334223 -185.189121 
L 260.081115 -186.310419 
L 265.401906 -188.693177 
L 270.355443 -191.216097 
L 274.989168 -195.140639 
L 279.341883 -195.140639 
L 283.445733 -196.822586 
L 287.327641 -199.065182 
L 291.010388 -200.466804 
L 294.513415 -199.065182 
L 297.85345 -202.148751 
L 301.04499 -203.550373 
L 304.100677 -204.391346 
L 307.031607 -210.27816 
L 309.847569 -220.790326 
L 312.557242 -220.930489 
L 315.168359 -221.771462 
L 317.68784 -221.771462 
L 320.121897 -224.294382 
L 322.476135 -224.269854 
L 324.755622 -231.302493 
L 326.96496 -231.302493 
L 329.108337 -231.302493 
L 331.189579 -231.302493 
L 333.212187 -233.965576 
L 335.179373 -231.302493 
L 337.094095 -234.526225 
L 338.959078 -234.526225 
L 340.776842 -234.498192 
L 342.549717 -234.526225 
L 344.279869 -231.302493 
L 345.969307 -235.675555 
L 347.619904 -235.787685 
L 349.233406 -240.5532 
L 350.811444 -242.375309 
L 352.355542 -244.33758 
L 353.867131 -246.580176 
L 355.347551 -250.084231 
L 356.798061 -248.647569 
L 358.219847 -248.822771 
L 359.614023 -249.243258 
L 360.981642 -249.38342 
L 362.323696 -249.523583 
L 363.641124 -248.12196 
L 364.934813 -248.962934 
L 366.205604 -249.243258 
L 367.454294 -249.243258 
L 368.681636 -249.243258 
L 369.888351 -249.243258 
L 371.075119 -249.243258 
L 372.242589 -249.523583 
L 373.391378 -249.523583 
L 374.522076 -249.523583 
L 375.635243 -250.364556 
L 376.731414 -250.64488 
L 377.8111 -254.289098 
L 378.874791 -254.289098 
L 379.922953 -255.971045 
L 380.956033 -255.971045 
L 381.974459 -255.971045 
L 382.978641 -258.774289 
L 383.968971 -256.531694 
L 384.945827 -258.21364 
L 385.909571 -259.334938 
L 386.860549 -259.334938 
L 387.799096 -259.334938 
L 388.725532 -259.334938 
L 389.640166 -261.577534 
L 390.543295 -261.577534 
L 391.435205 -261.577534 
L 392.316171 -264.380778 
L 393.186458 -267.744672 
L 394.046323 -267.744672 
L 394.896011 -268.024996 
L 395.735761 -268.305321 
L 396.565803 -269.426618 
L 397.386358 -270.267592 
L 398.197642 -270.267592 
L 398.99986 -270.267592 
L 399.793214 -270.267592 
L 400.577898 -270.828241 
L 400.577898 -291.57225 
L 400.577898 -291.57225 
L 399.793214 -291.57225 
L 398.99986 -291.57225 
L 398.197642 -291.011601 
L 397.386358 -291.011601 
L 396.565803 -289.04933 
L 395.735761 -288.488681 
L 394.896011 -288.488681 
L 394.046323 -287.928032 
L 393.186458 -287.928032 
L 392.316171 -286.52641 
L 391.435205 -286.52641 
L 390.543295 -286.52641 
L 389.640166 -285.685437 
L 388.725532 -285.685437 
L 387.799096 -285.124788 
L 386.860549 -281.760894 
L 385.909571 -281.48057 
L 384.945827 -280.919921 
L 383.968971 -281.200245 
L 382.978641 -281.200245 
L 381.974459 -280.359272 
L 380.956033 -280.359272 
L 379.922953 -280.359272 
L 378.874791 -280.078948 
L 377.8111 -279.237974 
L 376.731414 -279.237974 
L 375.635243 -278.397001 
L 374.522076 -278.116676 
L 373.391378 -275.874081 
L 372.242589 -275.874081 
L 371.075119 -274.752783 
L 369.888351 -274.472459 
L 368.681636 -274.192134 
L 367.454294 -273.91181 
L 366.205604 -273.351161 
L 364.934813 -273.351161 
L 363.641124 -269.706943 
L 362.323696 -271.669214 
L 360.981642 -269.006132 
L 359.614023 -269.023652 
L 358.219847 -268.305321 
L 356.798061 -268.305321 
L 355.347551 -267.884834 
L 353.867131 -267.902354 
L 352.355542 -266.623374 
L 350.811444 -266.623374 
L 349.233406 -265.922563 
L 347.619904 -265.922563 
L 345.969307 -265.922563 
L 344.279869 -265.940083 
L 342.549717 -265.502076 
L 340.776842 -263.820129 
L 338.959078 -263.820129 
L 337.094095 -263.259481 
L 335.179373 -260.736561 
L 333.212187 -263.820129 
L 331.189579 -261.300713 
L 329.108337 -259.475101 
L 326.96496 -256.95218 
L 324.755622 -256.251369 
L 322.476135 -252.747314 
L 320.121897 -251.065367 
L 317.68784 -249.38342 
L 315.168359 -247.421149 
L 312.557242 -247.280987 
L 309.847569 -246.440014 
L 307.031607 -245.318716 
L 304.100677 -244.33758 
L 301.04499 -242.515471 
L 297.85345 -242.094985 
L 294.513415 -241.113849 
L 291.010388 -241.113849 
L 287.327641 -238.871253 
L 283.445733 -238.310605 
L 279.341883 -235.514368 
L 274.989168 -232.704116 
L 270.355443 -232.563953 
L 265.401906 -226.116491 
L 260.081115 -227.402479 
L 254.334223 -224.855031 
L 248.086996 -220.229678 
L 241.243934 -220.36984 
L 233.679279 -218.547731 
L 225.222714 -216.725622 
L 215.635452 -216.024811 
L 204.567769 -206.633942 
L 191.47748 -196.542262 
L 175.45626 -181.145441 
L 154.801316 -163.183652 
L 125.689806 -141.038021 
L 75.923352 -63.668472 
z
" id="m52a21eff32" style="stroke:#98df8a;stroke-opacity:0.2;"/>
    </defs>
    <g clip-path="url(#p0898b3c0fc)">
     <use style="fill:#98df8a;fill-opacity:0.2;stroke:#98df8a;stroke-opacity:0.2;" x="0" xlink:href="#m52a21eff32" y="325.986375"/>
    </g>
   </g>
   <g id="PolyCollection_2">
    <defs>
     <path d="M 75.923352 -92.822215 
L 75.923352 -60.865228 
L 125.689806 -125.47651 
L 154.801316 -141.878994 
L 175.45626 -173.13517 
L 191.47748 -174.256468 
L 204.567769 -181.685066 
L 215.635452 -181.264579 
L 225.222714 -188.132528 
L 233.679279 -192.617719 
L 241.243934 -196.261937 
L 248.086996 -199.065182 
L 254.334223 -200.046317 
L 260.081115 -207.194591 
L 265.401906 -216.445298 
L 270.355443 -216.445298 
L 274.989168 -218.687893 
L 279.341883 -219.388704 
L 283.445733 -219.388704 
L 287.327641 -217.84692 
L 291.010388 -219.528866 
L 294.513415 -223.453409 
L 297.85345 -223.453409 
L 301.04499 -224.855031 
L 304.100677 -225.976329 
L 307.031607 -230.46152 
L 309.847569 -231.302493 
L 312.557242 -231.582818 
L 315.168359 -234.946711 
L 317.68784 -234.946711 
L 320.121897 -235.227036 
L 322.476135 -235.227036 
L 324.755622 -235.227036 
L 326.96496 -235.227036 
L 329.108337 -235.50736 
L 331.189579 -235.50736 
L 333.212187 -236.348333 
L 335.179373 -236.348333 
L 337.094095 -237.469631 
L 338.959078 -237.469631 
L 340.776842 -237.469631 
L 342.549717 -237.469631 
L 344.279869 -237.469631 
L 345.969307 -238.590929 
L 347.619904 -240.272876 
L 349.233406 -240.272876 
L 350.811444 -240.272876 
L 352.355542 -241.674498 
L 353.867131 -241.954822 
L 355.347551 -243.07612 
L 356.798061 -245.318716 
L 358.219847 -245.318716 
L 359.614023 -243.871541 
L 360.981642 -243.636769 
L 362.323696 -243.356445 
L 363.641124 -250.785043 
L 364.934813 -252.046503 
L 366.205604 -252.046503 
L 367.454294 -249.38342 
L 368.681636 -249.38342 
L 369.888351 -252.046503 
L 371.075119 -252.326827 
L 372.242589 -250.084231 
L 373.391378 -250.785043 
L 374.522076 -251.345691 
L 375.635243 -255.130072 
L 376.731414 -255.50851 
L 377.8111 -253.307963 
L 378.874791 -255.69072 
L 379.922953 -253.307963 
L 380.956033 -256.251369 
L 381.974459 -257.232505 
L 382.978641 -258.746257 
L 383.968971 -265.351402 
L 384.945827 -258.353803 
L 385.909571 -265.645742 
L 386.860549 -259.054614 
L 387.799096 -258.914452 
L 388.725532 -260.007717 
L 389.640166 -258.914452 
L 390.543295 -262.278345 
L 391.435205 -264.230104 
L 392.316171 -268.024996 
L 393.186458 -267.884834 
L 394.046323 -268.024996 
L 394.896011 -268.725807 
L 395.735761 -268.585645 
L 396.565803 -269.146294 
L 397.386358 -268.585645 
L 398.197642 -269.146294 
L 398.99986 -268.585645 
L 399.793214 -268.585645 
L 400.577898 -269.146294 
L 400.577898 -286.386248 
L 400.577898 -286.386248 
L 399.793214 -285.685437 
L 398.99986 -285.405112 
L 398.197642 -285.545274 
L 397.386358 -284.564139 
L 396.565803 -284.423977 
L 395.735761 -284.00349 
L 394.896011 -284.00349 
L 394.046323 -284.00349 
L 393.186458 -283.723165 
L 392.316171 -283.162517 
L 391.435205 -280.944449 
L 390.543295 -281.760894 
L 389.640166 -278.95765 
L 388.725532 -280.639596 
L 387.799096 -278.95765 
L 386.860549 -278.99269 
L 385.909571 -276.995379 
L 384.945827 -277.012899 
L 383.968971 -275.874081 
L 382.978641 -275.593756 
L 381.974459 -275.593756 
L 380.956033 -274.892945 
L 379.922953 -271.119077 
L 378.874791 -272.229863 
L 377.8111 -272.229863 
L 376.731414 -270.968403 
L 375.635243 -270.968403 
L 374.522076 -270.828241 
L 373.391378 -270.688079 
L 372.242589 -270.267592 
L 371.075119 -270.12743 
L 369.888351 -269.987267 
L 368.681636 -269.847105 
L 367.454294 -268.305321 
L 366.205604 -269.01314 
L 364.934813 -269.006132 
L 363.641124 -266.34305 
L 362.323696 -266.34305 
L 360.981642 -266.34305 
L 359.614023 -265.922563 
L 358.219847 -266.34305 
L 356.798061 -266.34305 
L 355.347551 -266.34305 
L 353.867131 -266.34305 
L 352.355542 -266.34305 
L 350.811444 -266.34305 
L 349.233406 -266.34305 
L 347.619904 -266.062725 
L 345.969307 -265.221752 
L 344.279869 -265.221752 
L 342.549717 -264.380778 
L 340.776842 -259.054614 
L 338.959078 -259.054614 
L 337.094095 -257.652992 
L 335.179373 -256.531694 
L 333.212187 -256.531694 
L 331.189579 -256.531694 
L 329.108337 -255.130072 
L 326.96496 -255.130072 
L 324.755622 -255.130072 
L 322.476135 -254.569423 
L 320.121897 -254.289098 
L 317.68784 -249.243258 
L 315.168359 -248.402285 
L 312.557242 -248.12196 
L 309.847569 -247.280987 
L 307.031607 -247.280987 
L 304.100677 -247.280987 
L 301.04499 -245.038391 
L 297.85345 -242.515471 
L 294.513415 -240.833525 
L 291.010388 -240.833525 
L 287.327641 -237.469631 
L 283.445733 -235.787685 
L 279.341883 -235.367198 
L 274.989168 -234.946711 
L 270.355443 -234.2459 
L 265.401906 -232.563953 
L 260.081115 -229.340222 
L 254.334223 -225.836167 
L 248.086996 -224.574707 
L 241.243934 -223.593571 
L 233.679279 -222.191949 
L 225.222714 -218.267406 
L 215.635452 -212.240431 
L 204.567769 -210.978971 
L 191.47748 -204.951995 
L 175.45626 -201.588102 
L 154.801316 -177.760523 
L 125.689806 -163.604139 
L 75.923352 -92.822215 
z
" id="mf87e52e103" style="stroke:#1f77b4;stroke-opacity:0.2;"/>
    </defs>
    <g clip-path="url(#p0898b3c0fc)">
     <use style="fill:#1f77b4;fill-opacity:0.2;stroke:#1f77b4;stroke-opacity:0.2;" x="0" xlink:href="#mf87e52e103" y="325.986375"/>
    </g>
   </g>
   <g id="matplotlib.axis_1">
    <g id="xtick_1">
     <g id="line2d_1">
      <defs>
       <path d="M 0 0 
L 0 3.5 
" id="m2cecfc1f69" style="stroke:#000000;stroke-width:0.8;"/>
      </defs>
      <g>
       <use style="stroke:#000000;stroke-width:0.8;" x="75.923352" xlink:href="#m2cecfc1f69" y="288.430125"/>
      </g>
     </g>
     <g id="text_1">
      <!-- 14m -->
      <g transform="translate(64.69054 303.028562)scale(0.1 -0.1)">
       <defs>
        <path d="M 794 531 
L 1825 531 
L 1825 4091 
L 703 3866 
L 703 4441 
L 1819 4666 
L 2450 4666 
L 2450 531 
L 3481 531 
L 3481 0 
L 794 0 
L 794 531 
z
" id="DejaVuSans-31" transform="scale(0.015625)"/>
        <path d="M 2419 4116 
L 825 1625 
L 2419 1625 
L 2419 4116 
z
M 2253 4666 
L 3047 4666 
L 3047 1625 
L 3713 1625 
L 3713 1100 
L 3047 1100 
L 3047 0 
L 2419 0 
L 2419 1100 
L 313 1100 
L 313 1709 
L 2253 4666 
z
" id="DejaVuSans-34" transform="scale(0.015625)"/>
        <path d="M 3328 2828 
Q 3544 3216 3844 3400 
Q 4144 3584 4550 3584 
Q 5097 3584 5394 3201 
Q 5691 2819 5691 2113 
L 5691 0 
L 5113 0 
L 5113 2094 
Q 5113 2597 4934 2840 
Q 4756 3084 4391 3084 
Q 3944 3084 3684 2787 
Q 3425 2491 3425 1978 
L 3425 0 
L 2847 0 
L 2847 2094 
Q 2847 2600 2669 2842 
Q 2491 3084 2119 3084 
Q 1678 3084 1418 2786 
Q 1159 2488 1159 1978 
L 1159 0 
L 581 0 
L 581 3500 
L 1159 3500 
L 1159 2956 
Q 1356 3278 1631 3431 
Q 1906 3584 2284 3584 
Q 2666 3584 2933 3390 
Q 3200 3197 3328 2828 
z
" id="DejaVuSans-6d" transform="scale(0.015625)"/>
       </defs>
       <use xlink:href="#DejaVuSans-31"/>
       <use x="63.623047" xlink:href="#DejaVuSans-34"/>
       <use x="127.246094" xlink:href="#DejaVuSans-6d"/>
      </g>
     </g>
    </g>
    <g id="xtick_2">
     <g id="line2d_2">
      <g>
       <use style="stroke:#000000;stroke-width:0.8;" x="140.854435" xlink:href="#m2cecfc1f69" y="288.430125"/>
      </g>
     </g>
     <g id="text_2">
      <!-- 37m -->
      <g transform="translate(129.621622 303.028562)scale(0.1 -0.1)">
       <defs>
        <path d="M 2597 2516 
Q 3050 2419 3304 2112 
Q 3559 1806 3559 1356 
Q 3559 666 3084 287 
Q 2609 -91 1734 -91 
Q 1441 -91 1130 -33 
Q 819 25 488 141 
L 488 750 
Q 750 597 1062 519 
Q 1375 441 1716 441 
Q 2309 441 2620 675 
Q 2931 909 2931 1356 
Q 2931 1769 2642 2001 
Q 2353 2234 1838 2234 
L 1294 2234 
L 1294 2753 
L 1863 2753 
Q 2328 2753 2575 2939 
Q 2822 3125 2822 3475 
Q 2822 3834 2567 4026 
Q 2313 4219 1838 4219 
Q 1578 4219 1281 4162 
Q 984 4106 628 3988 
L 628 4550 
Q 988 4650 1302 4700 
Q 1616 4750 1894 4750 
Q 2613 4750 3031 4423 
Q 3450 4097 3450 3541 
Q 3450 3153 3228 2886 
Q 3006 2619 2597 2516 
z
" id="DejaVuSans-33" transform="scale(0.015625)"/>
        <path d="M 525 4666 
L 3525 4666 
L 3525 4397 
L 1831 0 
L 1172 0 
L 2766 4134 
L 525 4134 
L 525 4666 
z
" id="DejaVuSans-37" transform="scale(0.015625)"/>
       </defs>
       <use xlink:href="#DejaVuSans-33"/>
       <use x="63.623047" xlink:href="#DejaVuSans-37"/>
       <use x="127.246094" xlink:href="#DejaVuSans-6d"/>
      </g>
     </g>
    </g>
    <g id="xtick_3">
     <g id="line2d_3">
      <g>
       <use style="stroke:#000000;stroke-width:0.8;" x="205.785517" xlink:href="#m2cecfc1f69" y="288.430125"/>
      </g>
     </g>
     <g id="text_3">
      <!-- 1h:31m -->
      <g transform="translate(186.51833 303.028562)scale(0.1 -0.1)">
       <defs>
        <path d="M 3513 2113 
L 3513 0 
L 2938 0 
L 2938 2094 
Q 2938 2591 2744 2837 
Q 2550 3084 2163 3084 
Q 1697 3084 1428 2787 
Q 1159 2491 1159 1978 
L 1159 0 
L 581 0 
L 581 4863 
L 1159 4863 
L 1159 2956 
Q 1366 3272 1645 3428 
Q 1925 3584 2291 3584 
Q 2894 3584 3203 3211 
Q 3513 2838 3513 2113 
z
" id="DejaVuSans-68" transform="scale(0.015625)"/>
        <path d="M 750 794 
L 1409 794 
L 1409 0 
L 750 0 
L 750 794 
z
M 750 3309 
L 1409 3309 
L 1409 2516 
L 750 2516 
L 750 3309 
z
" id="DejaVuSans-3a" transform="scale(0.015625)"/>
       </defs>
       <use xlink:href="#DejaVuSans-31"/>
       <use x="63.623047" xlink:href="#DejaVuSans-68"/>
       <use x="127.001953" xlink:href="#DejaVuSans-3a"/>
       <use x="160.693359" xlink:href="#DejaVuSans-33"/>
       <use x="224.316406" xlink:href="#DejaVuSans-31"/>
       <use x="287.939453" xlink:href="#DejaVuSans-6d"/>
      </g>
     </g>
    </g>
    <g id="xtick_4">
     <g id="line2d_4">
      <g>
       <use style="stroke:#000000;stroke-width:0.8;" x="270.7166" xlink:href="#m2cecfc1f69" y="288.430125"/>
      </g>
     </g>
     <g id="text_4">
      <!-- 3h:46m -->
      <g transform="translate(251.449412 303.028562)scale(0.1 -0.1)">
       <defs>
        <path d="M 2113 2584 
Q 1688 2584 1439 2293 
Q 1191 2003 1191 1497 
Q 1191 994 1439 701 
Q 1688 409 2113 409 
Q 2538 409 2786 701 
Q 3034 994 3034 1497 
Q 3034 2003 2786 2293 
Q 2538 2584 2113 2584 
z
M 3366 4563 
L 3366 3988 
Q 3128 4100 2886 4159 
Q 2644 4219 2406 4219 
Q 1781 4219 1451 3797 
Q 1122 3375 1075 2522 
Q 1259 2794 1537 2939 
Q 1816 3084 2150 3084 
Q 2853 3084 3261 2657 
Q 3669 2231 3669 1497 
Q 3669 778 3244 343 
Q 2819 -91 2113 -91 
Q 1303 -91 875 529 
Q 447 1150 447 2328 
Q 447 3434 972 4092 
Q 1497 4750 2381 4750 
Q 2619 4750 2861 4703 
Q 3103 4656 3366 4563 
z
" id="DejaVuSans-36" transform="scale(0.015625)"/>
       </defs>
       <use xlink:href="#DejaVuSans-33"/>
       <use x="63.623047" xlink:href="#DejaVuSans-68"/>
       <use x="127.001953" xlink:href="#DejaVuSans-3a"/>
       <use x="160.693359" xlink:href="#DejaVuSans-34"/>
       <use x="224.316406" xlink:href="#DejaVuSans-36"/>
       <use x="287.939453" xlink:href="#DejaVuSans-6d"/>
      </g>
     </g>
    </g>
    <g id="xtick_5">
     <g id="line2d_5">
      <g>
       <use style="stroke:#000000;stroke-width:0.8;" x="335.647682" xlink:href="#m2cecfc1f69" y="288.430125"/>
      </g>
     </g>
     <g id="text_5">
      <!-- 9h:18m -->
      <g transform="translate(316.380495 303.028562)scale(0.1 -0.1)">
       <defs>
        <path d="M 703 97 
L 703 672 
Q 941 559 1184 500 
Q 1428 441 1663 441 
Q 2288 441 2617 861 
Q 2947 1281 2994 2138 
Q 2813 1869 2534 1725 
Q 2256 1581 1919 1581 
Q 1219 1581 811 2004 
Q 403 2428 403 3163 
Q 403 3881 828 4315 
Q 1253 4750 1959 4750 
Q 2769 4750 3195 4129 
Q 3622 3509 3622 2328 
Q 3622 1225 3098 567 
Q 2575 -91 1691 -91 
Q 1453 -91 1209 -44 
Q 966 3 703 97 
z
M 1959 2075 
Q 2384 2075 2632 2365 
Q 2881 2656 2881 3163 
Q 2881 3666 2632 3958 
Q 2384 4250 1959 4250 
Q 1534 4250 1286 3958 
Q 1038 3666 1038 3163 
Q 1038 2656 1286 2365 
Q 1534 2075 1959 2075 
z
" id="DejaVuSans-39" transform="scale(0.015625)"/>
        <path d="M 2034 2216 
Q 1584 2216 1326 1975 
Q 1069 1734 1069 1313 
Q 1069 891 1326 650 
Q 1584 409 2034 409 
Q 2484 409 2743 651 
Q 3003 894 3003 1313 
Q 3003 1734 2745 1975 
Q 2488 2216 2034 2216 
z
M 1403 2484 
Q 997 2584 770 2862 
Q 544 3141 544 3541 
Q 544 4100 942 4425 
Q 1341 4750 2034 4750 
Q 2731 4750 3128 4425 
Q 3525 4100 3525 3541 
Q 3525 3141 3298 2862 
Q 3072 2584 2669 2484 
Q 3125 2378 3379 2068 
Q 3634 1759 3634 1313 
Q 3634 634 3220 271 
Q 2806 -91 2034 -91 
Q 1263 -91 848 271 
Q 434 634 434 1313 
Q 434 1759 690 2068 
Q 947 2378 1403 2484 
z
M 1172 3481 
Q 1172 3119 1398 2916 
Q 1625 2713 2034 2713 
Q 2441 2713 2670 2916 
Q 2900 3119 2900 3481 
Q 2900 3844 2670 4047 
Q 2441 4250 2034 4250 
Q 1625 4250 1398 4047 
Q 1172 3844 1172 3481 
z
" id="DejaVuSans-38" transform="scale(0.015625)"/>
       </defs>
       <use xlink:href="#DejaVuSans-39"/>
       <use x="63.623047" xlink:href="#DejaVuSans-68"/>
       <use x="127.001953" xlink:href="#DejaVuSans-3a"/>
       <use x="160.693359" xlink:href="#DejaVuSans-31"/>
       <use x="224.316406" xlink:href="#DejaVuSans-38"/>
       <use x="287.939453" xlink:href="#DejaVuSans-6d"/>
      </g>
     </g>
    </g>
    <g id="xtick_6">
     <g id="line2d_6">
      <g>
       <use style="stroke:#000000;stroke-width:0.8;" x="400.578765" xlink:href="#m2cecfc1f69" y="288.430125"/>
      </g>
     </g>
     <g id="text_6">
      <!-- 23h -->
      <g transform="translate(391.047515 303.028562)scale(0.1 -0.1)">
       <defs>
        <path d="M 1228 531 
L 3431 531 
L 3431 0 
L 469 0 
L 469 531 
Q 828 903 1448 1529 
Q 2069 2156 2228 2338 
Q 2531 2678 2651 2914 
Q 2772 3150 2772 3378 
Q 2772 3750 2511 3984 
Q 2250 4219 1831 4219 
Q 1534 4219 1204 4116 
Q 875 4013 500 3803 
L 500 4441 
Q 881 4594 1212 4672 
Q 1544 4750 1819 4750 
Q 2544 4750 2975 4387 
Q 3406 4025 3406 3419 
Q 3406 3131 3298 2873 
Q 3191 2616 2906 2266 
Q 2828 2175 2409 1742 
Q 1991 1309 1228 531 
z
" id="DejaVuSans-32" transform="scale(0.015625)"/>
       </defs>
       <use xlink:href="#DejaVuSans-32"/>
       <use x="63.623047" xlink:href="#DejaVuSans-33"/>
       <use x="127.246094" xlink:href="#DejaVuSans-68"/>
      </g>
     </g>
    </g>
    <g id="xtick_7">
     <g id="line2d_7">
      <defs>
       <path d="M 0 0 
L 0 2 
" id="m7534bc62e7" style="stroke:#000000;stroke-width:0.6;"/>
      </defs>
      <g>
       <use style="stroke:#000000;stroke-width:0.6;" x="67.466788" xlink:href="#m7534bc62e7" y="288.430125"/>
      </g>
     </g>
    </g>
    <g id="xtick_8">
     <g id="line2d_8">
      <g>
       <use style="stroke:#000000;stroke-width:0.6;" x="133.254461" xlink:href="#m7534bc62e7" y="288.430125"/>
      </g>
     </g>
    </g>
    <g id="xtick_9">
     <g id="line2d_9">
      <g>
       <use style="stroke:#000000;stroke-width:0.6;" x="162.36597" xlink:href="#m7534bc62e7" y="288.430125"/>
      </g>
     </g>
    </g>
    <g id="xtick_10">
     <g id="line2d_10">
      <g>
       <use style="stroke:#000000;stroke-width:0.6;" x="183.020915" xlink:href="#m7534bc62e7" y="288.430125"/>
      </g>
     </g>
    </g>
    <g id="xtick_11">
     <g id="line2d_11">
      <g>
       <use style="stroke:#000000;stroke-width:0.6;" x="199.042135" xlink:href="#m7534bc62e7" y="288.430125"/>
      </g>
     </g>
    </g>
    <g id="xtick_12">
     <g id="line2d_12">
      <g>
       <use style="stroke:#000000;stroke-width:0.6;" x="212.132424" xlink:href="#m7534bc62e7" y="288.430125"/>
      </g>
     </g>
    </g>
    <g id="xtick_13">
     <g id="line2d_13">
      <g>
       <use style="stroke:#000000;stroke-width:0.6;" x="223.200107" xlink:href="#m7534bc62e7" y="288.430125"/>
      </g>
     </g>
    </g>
    <g id="xtick_14">
     <g id="line2d_14">
      <g>
       <use style="stroke:#000000;stroke-width:0.6;" x="232.787369" xlink:href="#m7534bc62e7" y="288.430125"/>
      </g>
     </g>
    </g>
    <g id="xtick_15">
     <g id="line2d_15">
      <g>
       <use style="stroke:#000000;stroke-width:0.6;" x="241.243934" xlink:href="#m7534bc62e7" y="288.430125"/>
      </g>
     </g>
    </g>
    <g id="xtick_16">
     <g id="line2d_16">
      <g>
       <use style="stroke:#000000;stroke-width:0.6;" x="298.575043" xlink:href="#m7534bc62e7" y="288.430125"/>
      </g>
     </g>
    </g>
    <g id="xtick_17">
     <g id="line2d_17">
      <g>
       <use style="stroke:#000000;stroke-width:0.6;" x="327.686552" xlink:href="#m7534bc62e7" y="288.430125"/>
      </g>
     </g>
    </g>
    <g id="xtick_18">
     <g id="line2d_18">
      <g>
       <use style="stroke:#000000;stroke-width:0.6;" x="348.341496" xlink:href="#m7534bc62e7" y="288.430125"/>
      </g>
     </g>
    </g>
    <g id="xtick_19">
     <g id="line2d_19">
      <g>
       <use style="stroke:#000000;stroke-width:0.6;" x="364.362716" xlink:href="#m7534bc62e7" y="288.430125"/>
      </g>
     </g>
    </g>
    <g id="xtick_20">
     <g id="line2d_20">
      <g>
       <use style="stroke:#000000;stroke-width:0.6;" x="377.453006" xlink:href="#m7534bc62e7" y="288.430125"/>
      </g>
     </g>
    </g>
    <g id="xtick_21">
     <g id="line2d_21">
      <g>
       <use style="stroke:#000000;stroke-width:0.6;" x="388.520688" xlink:href="#m7534bc62e7" y="288.430125"/>
      </g>
     </g>
    </g>
    <g id="xtick_22">
     <g id="line2d_22">
      <g>
       <use style="stroke:#000000;stroke-width:0.6;" x="398.10795" xlink:href="#m7534bc62e7" y="288.430125"/>
      </g>
     </g>
    </g>
    <g id="xtick_23">
     <g id="line2d_23">
      <g>
       <use style="stroke:#000000;stroke-width:0.6;" x="406.564515" xlink:href="#m7534bc62e7" y="288.430125"/>
      </g>
     </g>
    </g>
    <g id="text_7">
     <!-- Time (hour:minute) -->
     <g transform="translate(189.843594 316.706687)scale(0.1 -0.1)">
      <defs>
       <path d="M -19 4666 
L 3928 4666 
L 3928 4134 
L 2272 4134 
L 2272 0 
L 1638 0 
L 1638 4134 
L -19 4134 
L -19 4666 
z
" id="DejaVuSans-54" transform="scale(0.015625)"/>
       <path d="M 603 3500 
L 1178 3500 
L 1178 0 
L 603 0 
L 603 3500 
z
M 603 4863 
L 1178 4863 
L 1178 4134 
L 603 4134 
L 603 4863 
z
" id="DejaVuSans-69" transform="scale(0.015625)"/>
       <path d="M 3597 1894 
L 3597 1613 
L 953 1613 
Q 991 1019 1311 708 
Q 1631 397 2203 397 
Q 2534 397 2845 478 
Q 3156 559 3463 722 
L 3463 178 
Q 3153 47 2828 -22 
Q 2503 -91 2169 -91 
Q 1331 -91 842 396 
Q 353 884 353 1716 
Q 353 2575 817 3079 
Q 1281 3584 2069 3584 
Q 2775 3584 3186 3129 
Q 3597 2675 3597 1894 
z
M 3022 2063 
Q 3016 2534 2758 2815 
Q 2500 3097 2075 3097 
Q 1594 3097 1305 2825 
Q 1016 2553 972 2059 
L 3022 2063 
z
" id="DejaVuSans-65" transform="scale(0.015625)"/>
       <path id="DejaVuSans-20" transform="scale(0.015625)"/>
       <path d="M 1984 4856 
Q 1566 4138 1362 3434 
Q 1159 2731 1159 2009 
Q 1159 1288 1364 580 
Q 1569 -128 1984 -844 
L 1484 -844 
Q 1016 -109 783 600 
Q 550 1309 550 2009 
Q 550 2706 781 3412 
Q 1013 4119 1484 4856 
L 1984 4856 
z
" id="DejaVuSans-28" transform="scale(0.015625)"/>
       <path d="M 1959 3097 
Q 1497 3097 1228 2736 
Q 959 2375 959 1747 
Q 959 1119 1226 758 
Q 1494 397 1959 397 
Q 2419 397 2687 759 
Q 2956 1122 2956 1747 
Q 2956 2369 2687 2733 
Q 2419 3097 1959 3097 
z
M 1959 3584 
Q 2709 3584 3137 3096 
Q 3566 2609 3566 1747 
Q 3566 888 3137 398 
Q 2709 -91 1959 -91 
Q 1206 -91 779 398 
Q 353 888 353 1747 
Q 353 2609 779 3096 
Q 1206 3584 1959 3584 
z
" id="DejaVuSans-6f" transform="scale(0.015625)"/>
       <path d="M 544 1381 
L 544 3500 
L 1119 3500 
L 1119 1403 
Q 1119 906 1312 657 
Q 1506 409 1894 409 
Q 2359 409 2629 706 
Q 2900 1003 2900 1516 
L 2900 3500 
L 3475 3500 
L 3475 0 
L 2900 0 
L 2900 538 
Q 2691 219 2414 64 
Q 2138 -91 1772 -91 
Q 1169 -91 856 284 
Q 544 659 544 1381 
z
M 1991 3584 
L 1991 3584 
z
" id="DejaVuSans-75" transform="scale(0.015625)"/>
       <path d="M 2631 2963 
Q 2534 3019 2420 3045 
Q 2306 3072 2169 3072 
Q 1681 3072 1420 2755 
Q 1159 2438 1159 1844 
L 1159 0 
L 581 0 
L 581 3500 
L 1159 3500 
L 1159 2956 
Q 1341 3275 1631 3429 
Q 1922 3584 2338 3584 
Q 2397 3584 2469 3576 
Q 2541 3569 2628 3553 
L 2631 2963 
z
" id="DejaVuSans-72" transform="scale(0.015625)"/>
       <path d="M 3513 2113 
L 3513 0 
L 2938 0 
L 2938 2094 
Q 2938 2591 2744 2837 
Q 2550 3084 2163 3084 
Q 1697 3084 1428 2787 
Q 1159 2491 1159 1978 
L 1159 0 
L 581 0 
L 581 3500 
L 1159 3500 
L 1159 2956 
Q 1366 3272 1645 3428 
Q 1925 3584 2291 3584 
Q 2894 3584 3203 3211 
Q 3513 2838 3513 2113 
z
" id="DejaVuSans-6e" transform="scale(0.015625)"/>
       <path d="M 1172 4494 
L 1172 3500 
L 2356 3500 
L 2356 3053 
L 1172 3053 
L 1172 1153 
Q 1172 725 1289 603 
Q 1406 481 1766 481 
L 2356 481 
L 2356 0 
L 1766 0 
Q 1100 0 847 248 
Q 594 497 594 1153 
L 594 3053 
L 172 3053 
L 172 3500 
L 594 3500 
L 594 4494 
L 1172 4494 
z
" id="DejaVuSans-74" transform="scale(0.015625)"/>
       <path d="M 513 4856 
L 1013 4856 
Q 1481 4119 1714 3412 
Q 1947 2706 1947 2009 
Q 1947 1309 1714 600 
Q 1481 -109 1013 -844 
L 513 -844 
Q 928 -128 1133 580 
Q 1338 1288 1338 2009 
Q 1338 2731 1133 3434 
Q 928 4138 513 4856 
z
" id="DejaVuSans-29" transform="scale(0.015625)"/>
      </defs>
      <use xlink:href="#DejaVuSans-54"/>
      <use x="57.958984" xlink:href="#DejaVuSans-69"/>
      <use x="85.742188" xlink:href="#DejaVuSans-6d"/>
      <use x="183.154297" xlink:href="#DejaVuSans-65"/>
      <use x="244.677734" xlink:href="#DejaVuSans-20"/>
      <use x="276.464844" xlink:href="#DejaVuSans-28"/>
      <use x="315.478516" xlink:href="#DejaVuSans-68"/>
      <use x="378.857422" xlink:href="#DejaVuSans-6f"/>
      <use x="440.039062" xlink:href="#DejaVuSans-75"/>
      <use x="503.417969" xlink:href="#DejaVuSans-72"/>
      <use x="542.78125" xlink:href="#DejaVuSans-3a"/>
      <use x="576.472656" xlink:href="#DejaVuSans-6d"/>
      <use x="673.884766" xlink:href="#DejaVuSans-69"/>
      <use x="701.667969" xlink:href="#DejaVuSans-6e"/>
      <use x="765.046875" xlink:href="#DejaVuSans-75"/>
      <use x="828.425781" xlink:href="#DejaVuSans-74"/>
      <use x="867.634766" xlink:href="#DejaVuSans-65"/>
      <use x="929.158203" xlink:href="#DejaVuSans-29"/>
     </g>
    </g>
   </g>
   <g id="matplotlib.axis_2">
    <g id="ytick_1">
     <g id="line2d_24">
      <defs>
       <path d="M 0 0 
L -3.5 0 
" id="m70904ab8f6" style="stroke:#000000;stroke-width:0.8;"/>
      </defs>
      <g>
       <use style="stroke:#000000;stroke-width:0.8;" x="59.690625" xlink:href="#m70904ab8f6" y="285.865156"/>
      </g>
     </g>
     <g id="text_8">
      <!-- 16200 -->
      <g transform="translate(20.878125 289.664375)scale(0.1 -0.1)">
       <defs>
        <path d="M 2034 4250 
Q 1547 4250 1301 3770 
Q 1056 3291 1056 2328 
Q 1056 1369 1301 889 
Q 1547 409 2034 409 
Q 2525 409 2770 889 
Q 3016 1369 3016 2328 
Q 3016 3291 2770 3770 
Q 2525 4250 2034 4250 
z
M 2034 4750 
Q 2819 4750 3233 4129 
Q 3647 3509 3647 2328 
Q 3647 1150 3233 529 
Q 2819 -91 2034 -91 
Q 1250 -91 836 529 
Q 422 1150 422 2328 
Q 422 3509 836 4129 
Q 1250 4750 2034 4750 
z
" id="DejaVuSans-30" transform="scale(0.015625)"/>
       </defs>
       <use xlink:href="#DejaVuSans-31"/>
       <use x="63.623047" xlink:href="#DejaVuSans-36"/>
       <use x="127.246094" xlink:href="#DejaVuSans-32"/>
       <use x="190.869141" xlink:href="#DejaVuSans-30"/>
       <use x="254.492188" xlink:href="#DejaVuSans-30"/>
      </g>
     </g>
    </g>
    <g id="ytick_2">
     <g id="line2d_25">
      <g>
       <use style="stroke:#000000;stroke-width:0.8;" x="59.690625" xlink:href="#m70904ab8f6" y="229.800266"/>
      </g>
     </g>
     <g id="text_9">
      <!-- 16400 -->
      <g transform="translate(20.878125 233.599485)scale(0.1 -0.1)">
       <use xlink:href="#DejaVuSans-31"/>
       <use x="63.623047" xlink:href="#DejaVuSans-36"/>
       <use x="127.246094" xlink:href="#DejaVuSans-34"/>
       <use x="190.869141" xlink:href="#DejaVuSans-30"/>
       <use x="254.492188" xlink:href="#DejaVuSans-30"/>
      </g>
     </g>
    </g>
    <g id="ytick_3">
     <g id="line2d_26">
      <g>
       <use style="stroke:#000000;stroke-width:0.8;" x="59.690625" xlink:href="#m70904ab8f6" y="173.735376"/>
      </g>
     </g>
     <g id="text_10">
      <!-- 16600 -->
      <g transform="translate(20.878125 177.534595)scale(0.1 -0.1)">
       <use xlink:href="#DejaVuSans-31"/>
       <use x="63.623047" xlink:href="#DejaVuSans-36"/>
       <use x="127.246094" xlink:href="#DejaVuSans-36"/>
       <use x="190.869141" xlink:href="#DejaVuSans-30"/>
       <use x="254.492188" xlink:href="#DejaVuSans-30"/>
      </g>
     </g>
    </g>
    <g id="ytick_4">
     <g id="line2d_27">
      <g>
       <use style="stroke:#000000;stroke-width:0.8;" x="59.690625" xlink:href="#m70904ab8f6" y="117.670487"/>
      </g>
     </g>
     <g id="text_11">
      <!-- 16800 -->
      <g transform="translate(20.878125 121.469705)scale(0.1 -0.1)">
       <use xlink:href="#DejaVuSans-31"/>
       <use x="63.623047" xlink:href="#DejaVuSans-36"/>
       <use x="127.246094" xlink:href="#DejaVuSans-38"/>
       <use x="190.869141" xlink:href="#DejaVuSans-30"/>
       <use x="254.492188" xlink:href="#DejaVuSans-30"/>
      </g>
     </g>
    </g>
    <g id="ytick_5">
     <g id="line2d_28">
      <g>
       <use style="stroke:#000000;stroke-width:0.8;" x="59.690625" xlink:href="#m70904ab8f6" y="61.605597"/>
      </g>
     </g>
     <g id="text_12">
      <!-- 17000 -->
      <g transform="translate(20.878125 65.404815)scale(0.1 -0.1)">
       <use xlink:href="#DejaVuSans-31"/>
       <use x="63.623047" xlink:href="#DejaVuSans-37"/>
       <use x="127.246094" xlink:href="#DejaVuSans-30"/>
       <use x="190.869141" xlink:href="#DejaVuSans-30"/>
       <use x="254.492188" xlink:href="#DejaVuSans-30"/>
      </g>
     </g>
    </g>
    <g id="text_13">
     <!-- Code region coverage -->
     <g transform="translate(14.798438 210.379594)rotate(-90)scale(0.1 -0.1)">
      <defs>
       <path d="M 4122 4306 
L 4122 3641 
Q 3803 3938 3442 4084 
Q 3081 4231 2675 4231 
Q 1875 4231 1450 3742 
Q 1025 3253 1025 2328 
Q 1025 1406 1450 917 
Q 1875 428 2675 428 
Q 3081 428 3442 575 
Q 3803 722 4122 1019 
L 4122 359 
Q 3791 134 3420 21 
Q 3050 -91 2638 -91 
Q 1578 -91 968 557 
Q 359 1206 359 2328 
Q 359 3453 968 4101 
Q 1578 4750 2638 4750 
Q 3056 4750 3426 4639 
Q 3797 4528 4122 4306 
z
" id="DejaVuSans-43" transform="scale(0.015625)"/>
       <path d="M 2906 2969 
L 2906 4863 
L 3481 4863 
L 3481 0 
L 2906 0 
L 2906 525 
Q 2725 213 2448 61 
Q 2172 -91 1784 -91 
Q 1150 -91 751 415 
Q 353 922 353 1747 
Q 353 2572 751 3078 
Q 1150 3584 1784 3584 
Q 2172 3584 2448 3432 
Q 2725 3281 2906 2969 
z
M 947 1747 
Q 947 1113 1208 752 
Q 1469 391 1925 391 
Q 2381 391 2643 752 
Q 2906 1113 2906 1747 
Q 2906 2381 2643 2742 
Q 2381 3103 1925 3103 
Q 1469 3103 1208 2742 
Q 947 2381 947 1747 
z
" id="DejaVuSans-64" transform="scale(0.015625)"/>
       <path d="M 2906 1791 
Q 2906 2416 2648 2759 
Q 2391 3103 1925 3103 
Q 1463 3103 1205 2759 
Q 947 2416 947 1791 
Q 947 1169 1205 825 
Q 1463 481 1925 481 
Q 2391 481 2648 825 
Q 2906 1169 2906 1791 
z
M 3481 434 
Q 3481 -459 3084 -895 
Q 2688 -1331 1869 -1331 
Q 1566 -1331 1297 -1286 
Q 1028 -1241 775 -1147 
L 775 -588 
Q 1028 -725 1275 -790 
Q 1522 -856 1778 -856 
Q 2344 -856 2625 -561 
Q 2906 -266 2906 331 
L 2906 616 
Q 2728 306 2450 153 
Q 2172 0 1784 0 
Q 1141 0 747 490 
Q 353 981 353 1791 
Q 353 2603 747 3093 
Q 1141 3584 1784 3584 
Q 2172 3584 2450 3431 
Q 2728 3278 2906 2969 
L 2906 3500 
L 3481 3500 
L 3481 434 
z
" id="DejaVuSans-67" transform="scale(0.015625)"/>
       <path d="M 3122 3366 
L 3122 2828 
Q 2878 2963 2633 3030 
Q 2388 3097 2138 3097 
Q 1578 3097 1268 2742 
Q 959 2388 959 1747 
Q 959 1106 1268 751 
Q 1578 397 2138 397 
Q 2388 397 2633 464 
Q 2878 531 3122 666 
L 3122 134 
Q 2881 22 2623 -34 
Q 2366 -91 2075 -91 
Q 1284 -91 818 406 
Q 353 903 353 1747 
Q 353 2603 823 3093 
Q 1294 3584 2113 3584 
Q 2378 3584 2631 3529 
Q 2884 3475 3122 3366 
z
" id="DejaVuSans-63" transform="scale(0.015625)"/>
       <path d="M 191 3500 
L 800 3500 
L 1894 563 
L 2988 3500 
L 3597 3500 
L 2284 0 
L 1503 0 
L 191 3500 
z
" id="DejaVuSans-76" transform="scale(0.015625)"/>
       <path d="M 2194 1759 
Q 1497 1759 1228 1600 
Q 959 1441 959 1056 
Q 959 750 1161 570 
Q 1363 391 1709 391 
Q 2188 391 2477 730 
Q 2766 1069 2766 1631 
L 2766 1759 
L 2194 1759 
z
M 3341 1997 
L 3341 0 
L 2766 0 
L 2766 531 
Q 2569 213 2275 61 
Q 1981 -91 1556 -91 
Q 1019 -91 701 211 
Q 384 513 384 1019 
Q 384 1609 779 1909 
Q 1175 2209 1959 2209 
L 2766 2209 
L 2766 2266 
Q 2766 2663 2505 2880 
Q 2244 3097 1772 3097 
Q 1472 3097 1187 3025 
Q 903 2953 641 2809 
L 641 3341 
Q 956 3463 1253 3523 
Q 1550 3584 1831 3584 
Q 2591 3584 2966 3190 
Q 3341 2797 3341 1997 
z
" id="DejaVuSans-61" transform="scale(0.015625)"/>
      </defs>
      <use xlink:href="#DejaVuSans-43"/>
      <use x="69.824219" xlink:href="#DejaVuSans-6f"/>
      <use x="131.005859" xlink:href="#DejaVuSans-64"/>
      <use x="194.482422" xlink:href="#DejaVuSans-65"/>
      <use x="256.005859" xlink:href="#DejaVuSans-20"/>
      <use x="287.792969" xlink:href="#DejaVuSans-72"/>
      <use x="326.65625" xlink:href="#DejaVuSans-65"/>
      <use x="388.179688" xlink:href="#DejaVuSans-67"/>
      <use x="451.65625" xlink:href="#DejaVuSans-69"/>
      <use x="479.439453" xlink:href="#DejaVuSans-6f"/>
      <use x="540.621094" xlink:href="#DejaVuSans-6e"/>
      <use x="604" xlink:href="#DejaVuSans-20"/>
      <use x="635.787109" xlink:href="#DejaVuSans-63"/>
      <use x="690.767578" xlink:href="#DejaVuSans-6f"/>
      <use x="751.949219" xlink:href="#DejaVuSans-76"/>
      <use x="811.128906" xlink:href="#DejaVuSans-65"/>
      <use x="872.652344" xlink:href="#DejaVuSans-72"/>
      <use x="913.765625" xlink:href="#DejaVuSans-61"/>
      <use x="975.044922" xlink:href="#DejaVuSans-67"/>
      <use x="1038.521484" xlink:href="#DejaVuSans-65"/>
     </g>
    </g>
   </g>
   <g id="line2d_29">
    <path clip-path="url(#p0898b3c0fc)" d="M 75.923352 275.633314 
L 125.689806 201.207173 
L 154.801316 184.948354 
L 175.45626 156.215098 
L 191.47748 151.169258 
L 204.567769 141.077578 
L 215.635452 136.592387 
L 225.222714 129.724438 
L 233.679279 122.856489 
L 241.243934 119.492595 
L 248.086996 119.352433 
L 254.334223 113.886106 
L 260.081115 113.605782 
L 265.401906 112.20416 
L 270.355443 106.037022 
L 274.989168 105.756697 
L 279.341883 103.654264 
L 283.445733 103.233777 
L 287.327641 96.926477 
L 291.010388 96.225666 
L 294.513415 95.244531 
L 297.85345 94.403557 
L 301.04499 92.861773 
L 304.100677 91.46015 
L 307.031607 90.479015 
L 309.847569 90.338853 
L 312.557242 90.338853 
L 315.168359 88.096257 
L 317.68784 88.096257 
L 320.121897 85.293013 
L 322.476135 84.171715 
L 324.755622 77.724252 
L 326.96496 77.163604 
L 329.108337 77.023441 
L 331.189579 75.341495 
L 333.212187 74.780846 
L 335.179373 72.958737 
L 337.094095 72.53825 
L 338.959078 70.856303 
L 340.776842 70.575979 
L 342.549717 70.295655 
L 344.279869 69.735006 
L 345.969307 68.894032 
L 347.619904 68.75387 
L 349.233406 68.613708 
L 350.811444 67.912897 
L 352.355542 66.23095 
L 353.867131 65.530139 
L 355.347551 65.530139 
L 356.798061 63.427706 
L 358.219847 63.287543 
L 359.614023 62.44657 
L 360.981642 62.166246 
L 362.323696 59.643325 
L 363.641124 60.203974 
L 364.934813 60.203974 
L 366.205604 59.92365 
L 367.454294 59.92365 
L 368.681636 59.643325 
L 369.888351 59.643325 
L 371.075119 59.082677 
L 372.242589 57.961379 
L 373.391378 57.961379 
L 374.522076 57.961379 
L 375.635243 57.961379 
L 376.731414 56.840081 
L 377.8111 55.999108 
L 378.874791 55.718783 
L 379.922953 55.438459 
L 380.956033 55.438459 
L 381.974459 55.438459 
L 382.978641 55.158134 
L 383.968971 55.158134 
L 384.945827 55.158134 
L 385.909571 55.158134 
L 386.860549 52.635214 
L 387.799096 52.35489 
L 388.725532 50.112294 
L 389.640166 50.112294 
L 390.543295 48.430347 
L 391.435205 48.150023 
L 392.316171 48.150023 
L 393.186458 47.30905 
L 394.046323 47.30905 
L 394.896011 44.78613 
L 395.735761 44.78613 
L 396.565803 40.020614 
L 397.386358 40.020614 
L 398.197642 39.74029 
L 398.99986 38.899316 
L 399.793214 38.899316 
L 400.577898 38.618992 
" style="fill:none;stroke:#98df8a;stroke-linecap:square;stroke-width:1.5;"/>
    <defs>
     <path d="M -0 3 
L 3 -3 
L -3 -3 
z
" id="m99a564659a" style="stroke:#ffffff;stroke-linejoin:miter;stroke-width:0.75;"/>
    </defs>
    <g clip-path="url(#p0898b3c0fc)">
     <use style="fill:#98df8a;stroke:#ffffff;stroke-linejoin:miter;stroke-width:0.75;" x="75.923352" xlink:href="#m99a564659a" y="275.633314"/>
     <use style="fill:#98df8a;stroke:#ffffff;stroke-linejoin:miter;stroke-width:0.75;" x="125.689806" xlink:href="#m99a564659a" y="201.207173"/>
     <use style="fill:#98df8a;stroke:#ffffff;stroke-linejoin:miter;stroke-width:0.75;" x="154.801316" xlink:href="#m99a564659a" y="184.948354"/>
     <use style="fill:#98df8a;stroke:#ffffff;stroke-linejoin:miter;stroke-width:0.75;" x="175.45626" xlink:href="#m99a564659a" y="156.215098"/>
     <use style="fill:#98df8a;stroke:#ffffff;stroke-linejoin:miter;stroke-width:0.75;" x="191.47748" xlink:href="#m99a564659a" y="151.169258"/>
     <use style="fill:#98df8a;stroke:#ffffff;stroke-linejoin:miter;stroke-width:0.75;" x="204.567769" xlink:href="#m99a564659a" y="141.077578"/>
     <use style="fill:#98df8a;stroke:#ffffff;stroke-linejoin:miter;stroke-width:0.75;" x="215.635452" xlink:href="#m99a564659a" y="136.592387"/>
     <use style="fill:#98df8a;stroke:#ffffff;stroke-linejoin:miter;stroke-width:0.75;" x="225.222714" xlink:href="#m99a564659a" y="129.724438"/>
     <use style="fill:#98df8a;stroke:#ffffff;stroke-linejoin:miter;stroke-width:0.75;" x="233.679279" xlink:href="#m99a564659a" y="122.856489"/>
     <use style="fill:#98df8a;stroke:#ffffff;stroke-linejoin:miter;stroke-width:0.75;" x="241.243934" xlink:href="#m99a564659a" y="119.492595"/>
     <use style="fill:#98df8a;stroke:#ffffff;stroke-linejoin:miter;stroke-width:0.75;" x="248.086996" xlink:href="#m99a564659a" y="119.352433"/>
     <use style="fill:#98df8a;stroke:#ffffff;stroke-linejoin:miter;stroke-width:0.75;" x="254.334223" xlink:href="#m99a564659a" y="113.886106"/>
     <use style="fill:#98df8a;stroke:#ffffff;stroke-linejoin:miter;stroke-width:0.75;" x="260.081115" xlink:href="#m99a564659a" y="113.605782"/>
     <use style="fill:#98df8a;stroke:#ffffff;stroke-linejoin:miter;stroke-width:0.75;" x="265.401906" xlink:href="#m99a564659a" y="112.20416"/>
     <use style="fill:#98df8a;stroke:#ffffff;stroke-linejoin:miter;stroke-width:0.75;" x="270.355443" xlink:href="#m99a564659a" y="106.037022"/>
     <use style="fill:#98df8a;stroke:#ffffff;stroke-linejoin:miter;stroke-width:0.75;" x="274.989168" xlink:href="#m99a564659a" y="105.756697"/>
     <use style="fill:#98df8a;stroke:#ffffff;stroke-linejoin:miter;stroke-width:0.75;" x="279.341883" xlink:href="#m99a564659a" y="103.654264"/>
     <use style="fill:#98df8a;stroke:#ffffff;stroke-linejoin:miter;stroke-width:0.75;" x="283.445733" xlink:href="#m99a564659a" y="103.233777"/>
     <use style="fill:#98df8a;stroke:#ffffff;stroke-linejoin:miter;stroke-width:0.75;" x="287.327641" xlink:href="#m99a564659a" y="96.926477"/>
     <use style="fill:#98df8a;stroke:#ffffff;stroke-linejoin:miter;stroke-width:0.75;" x="291.010388" xlink:href="#m99a564659a" y="96.225666"/>
     <use style="fill:#98df8a;stroke:#ffffff;stroke-linejoin:miter;stroke-width:0.75;" x="294.513415" xlink:href="#m99a564659a" y="95.244531"/>
     <use style="fill:#98df8a;stroke:#ffffff;stroke-linejoin:miter;stroke-width:0.75;" x="297.85345" xlink:href="#m99a564659a" y="94.403557"/>
     <use style="fill:#98df8a;stroke:#ffffff;stroke-linejoin:miter;stroke-width:0.75;" x="301.04499" xlink:href="#m99a564659a" y="92.861773"/>
     <use style="fill:#98df8a;stroke:#ffffff;stroke-linejoin:miter;stroke-width:0.75;" x="304.100677" xlink:href="#m99a564659a" y="91.46015"/>
     <use style="fill:#98df8a;stroke:#ffffff;stroke-linejoin:miter;stroke-width:0.75;" x="307.031607" xlink:href="#m99a564659a" y="90.479015"/>
     <use style="fill:#98df8a;stroke:#ffffff;stroke-linejoin:miter;stroke-width:0.75;" x="309.847569" xlink:href="#m99a564659a" y="90.338853"/>
     <use style="fill:#98df8a;stroke:#ffffff;stroke-linejoin:miter;stroke-width:0.75;" x="312.557242" xlink:href="#m99a564659a" y="90.338853"/>
     <use style="fill:#98df8a;stroke:#ffffff;stroke-linejoin:miter;stroke-width:0.75;" x="315.168359" xlink:href="#m99a564659a" y="88.096257"/>
     <use style="fill:#98df8a;stroke:#ffffff;stroke-linejoin:miter;stroke-width:0.75;" x="317.68784" xlink:href="#m99a564659a" y="88.096257"/>
     <use style="fill:#98df8a;stroke:#ffffff;stroke-linejoin:miter;stroke-width:0.75;" x="320.121897" xlink:href="#m99a564659a" y="85.293013"/>
     <use style="fill:#98df8a;stroke:#ffffff;stroke-linejoin:miter;stroke-width:0.75;" x="322.476135" xlink:href="#m99a564659a" y="84.171715"/>
     <use style="fill:#98df8a;stroke:#ffffff;stroke-linejoin:miter;stroke-width:0.75;" x="324.755622" xlink:href="#m99a564659a" y="77.724252"/>
     <use style="fill:#98df8a;stroke:#ffffff;stroke-linejoin:miter;stroke-width:0.75;" x="326.96496" xlink:href="#m99a564659a" y="77.163604"/>
     <use style="fill:#98df8a;stroke:#ffffff;stroke-linejoin:miter;stroke-width:0.75;" x="329.108337" xlink:href="#m99a564659a" y="77.023441"/>
     <use style="fill:#98df8a;stroke:#ffffff;stroke-linejoin:miter;stroke-width:0.75;" x="331.189579" xlink:href="#m99a564659a" y="75.341495"/>
     <use style="fill:#98df8a;stroke:#ffffff;stroke-linejoin:miter;stroke-width:0.75;" x="333.212187" xlink:href="#m99a564659a" y="74.780846"/>
     <use style="fill:#98df8a;stroke:#ffffff;stroke-linejoin:miter;stroke-width:0.75;" x="335.179373" xlink:href="#m99a564659a" y="72.958737"/>
     <use style="fill:#98df8a;stroke:#ffffff;stroke-linejoin:miter;stroke-width:0.75;" x="337.094095" xlink:href="#m99a564659a" y="72.53825"/>
     <use style="fill:#98df8a;stroke:#ffffff;stroke-linejoin:miter;stroke-width:0.75;" x="338.959078" xlink:href="#m99a564659a" y="70.856303"/>
     <use style="fill:#98df8a;stroke:#ffffff;stroke-linejoin:miter;stroke-width:0.75;" x="340.776842" xlink:href="#m99a564659a" y="70.575979"/>
     <use style="fill:#98df8a;stroke:#ffffff;stroke-linejoin:miter;stroke-width:0.75;" x="342.549717" xlink:href="#m99a564659a" y="70.295655"/>
     <use style="fill:#98df8a;stroke:#ffffff;stroke-linejoin:miter;stroke-width:0.75;" x="344.279869" xlink:href="#m99a564659a" y="69.735006"/>
     <use style="fill:#98df8a;stroke:#ffffff;stroke-linejoin:miter;stroke-width:0.75;" x="345.969307" xlink:href="#m99a564659a" y="68.894032"/>
     <use style="fill:#98df8a;stroke:#ffffff;stroke-linejoin:miter;stroke-width:0.75;" x="347.619904" xlink:href="#m99a564659a" y="68.75387"/>
     <use style="fill:#98df8a;stroke:#ffffff;stroke-linejoin:miter;stroke-width:0.75;" x="349.233406" xlink:href="#m99a564659a" y="68.613708"/>
     <use style="fill:#98df8a;stroke:#ffffff;stroke-linejoin:miter;stroke-width:0.75;" x="350.811444" xlink:href="#m99a564659a" y="67.912897"/>
     <use style="fill:#98df8a;stroke:#ffffff;stroke-linejoin:miter;stroke-width:0.75;" x="352.355542" xlink:href="#m99a564659a" y="66.23095"/>
     <use style="fill:#98df8a;stroke:#ffffff;stroke-linejoin:miter;stroke-width:0.75;" x="353.867131" xlink:href="#m99a564659a" y="65.530139"/>
     <use style="fill:#98df8a;stroke:#ffffff;stroke-linejoin:miter;stroke-width:0.75;" x="355.347551" xlink:href="#m99a564659a" y="65.530139"/>
     <use style="fill:#98df8a;stroke:#ffffff;stroke-linejoin:miter;stroke-width:0.75;" x="356.798061" xlink:href="#m99a564659a" y="63.427706"/>
     <use style="fill:#98df8a;stroke:#ffffff;stroke-linejoin:miter;stroke-width:0.75;" x="358.219847" xlink:href="#m99a564659a" y="63.287543"/>
     <use style="fill:#98df8a;stroke:#ffffff;stroke-linejoin:miter;stroke-width:0.75;" x="359.614023" xlink:href="#m99a564659a" y="62.44657"/>
     <use style="fill:#98df8a;stroke:#ffffff;stroke-linejoin:miter;stroke-width:0.75;" x="360.981642" xlink:href="#m99a564659a" y="62.166246"/>
     <use style="fill:#98df8a;stroke:#ffffff;stroke-linejoin:miter;stroke-width:0.75;" x="362.323696" xlink:href="#m99a564659a" y="59.643325"/>
     <use style="fill:#98df8a;stroke:#ffffff;stroke-linejoin:miter;stroke-width:0.75;" x="363.641124" xlink:href="#m99a564659a" y="60.203974"/>
     <use style="fill:#98df8a;stroke:#ffffff;stroke-linejoin:miter;stroke-width:0.75;" x="364.934813" xlink:href="#m99a564659a" y="60.203974"/>
     <use style="fill:#98df8a;stroke:#ffffff;stroke-linejoin:miter;stroke-width:0.75;" x="366.205604" xlink:href="#m99a564659a" y="59.92365"/>
     <use style="fill:#98df8a;stroke:#ffffff;stroke-linejoin:miter;stroke-width:0.75;" x="367.454294" xlink:href="#m99a564659a" y="59.92365"/>
     <use style="fill:#98df8a;stroke:#ffffff;stroke-linejoin:miter;stroke-width:0.75;" x="368.681636" xlink:href="#m99a564659a" y="59.643325"/>
     <use style="fill:#98df8a;stroke:#ffffff;stroke-linejoin:miter;stroke-width:0.75;" x="369.888351" xlink:href="#m99a564659a" y="59.643325"/>
     <use style="fill:#98df8a;stroke:#ffffff;stroke-linejoin:miter;stroke-width:0.75;" x="371.075119" xlink:href="#m99a564659a" y="59.082677"/>
     <use style="fill:#98df8a;stroke:#ffffff;stroke-linejoin:miter;stroke-width:0.75;" x="372.242589" xlink:href="#m99a564659a" y="57.961379"/>
     <use style="fill:#98df8a;stroke:#ffffff;stroke-linejoin:miter;stroke-width:0.75;" x="373.391378" xlink:href="#m99a564659a" y="57.961379"/>
     <use style="fill:#98df8a;stroke:#ffffff;stroke-linejoin:miter;stroke-width:0.75;" x="374.522076" xlink:href="#m99a564659a" y="57.961379"/>
     <use style="fill:#98df8a;stroke:#ffffff;stroke-linejoin:miter;stroke-width:0.75;" x="375.635243" xlink:href="#m99a564659a" y="57.961379"/>
     <use style="fill:#98df8a;stroke:#ffffff;stroke-linejoin:miter;stroke-width:0.75;" x="376.731414" xlink:href="#m99a564659a" y="56.840081"/>
     <use style="fill:#98df8a;stroke:#ffffff;stroke-linejoin:miter;stroke-width:0.75;" x="377.8111" xlink:href="#m99a564659a" y="55.999108"/>
     <use style="fill:#98df8a;stroke:#ffffff;stroke-linejoin:miter;stroke-width:0.75;" x="378.874791" xlink:href="#m99a564659a" y="55.718783"/>
     <use style="fill:#98df8a;stroke:#ffffff;stroke-linejoin:miter;stroke-width:0.75;" x="379.922953" xlink:href="#m99a564659a" y="55.438459"/>
     <use style="fill:#98df8a;stroke:#ffffff;stroke-linejoin:miter;stroke-width:0.75;" x="380.956033" xlink:href="#m99a564659a" y="55.438459"/>
     <use style="fill:#98df8a;stroke:#ffffff;stroke-linejoin:miter;stroke-width:0.75;" x="381.974459" xlink:href="#m99a564659a" y="55.438459"/>
     <use style="fill:#98df8a;stroke:#ffffff;stroke-linejoin:miter;stroke-width:0.75;" x="382.978641" xlink:href="#m99a564659a" y="55.158134"/>
     <use style="fill:#98df8a;stroke:#ffffff;stroke-linejoin:miter;stroke-width:0.75;" x="383.968971" xlink:href="#m99a564659a" y="55.158134"/>
     <use style="fill:#98df8a;stroke:#ffffff;stroke-linejoin:miter;stroke-width:0.75;" x="384.945827" xlink:href="#m99a564659a" y="55.158134"/>
     <use style="fill:#98df8a;stroke:#ffffff;stroke-linejoin:miter;stroke-width:0.75;" x="385.909571" xlink:href="#m99a564659a" y="55.158134"/>
     <use style="fill:#98df8a;stroke:#ffffff;stroke-linejoin:miter;stroke-width:0.75;" x="386.860549" xlink:href="#m99a564659a" y="52.635214"/>
     <use style="fill:#98df8a;stroke:#ffffff;stroke-linejoin:miter;stroke-width:0.75;" x="387.799096" xlink:href="#m99a564659a" y="52.35489"/>
     <use style="fill:#98df8a;stroke:#ffffff;stroke-linejoin:miter;stroke-width:0.75;" x="388.725532" xlink:href="#m99a564659a" y="50.112294"/>
     <use style="fill:#98df8a;stroke:#ffffff;stroke-linejoin:miter;stroke-width:0.75;" x="389.640166" xlink:href="#m99a564659a" y="50.112294"/>
     <use style="fill:#98df8a;stroke:#ffffff;stroke-linejoin:miter;stroke-width:0.75;" x="390.543295" xlink:href="#m99a564659a" y="48.430347"/>
     <use style="fill:#98df8a;stroke:#ffffff;stroke-linejoin:miter;stroke-width:0.75;" x="391.435205" xlink:href="#m99a564659a" y="48.150023"/>
     <use style="fill:#98df8a;stroke:#ffffff;stroke-linejoin:miter;stroke-width:0.75;" x="392.316171" xlink:href="#m99a564659a" y="48.150023"/>
     <use style="fill:#98df8a;stroke:#ffffff;stroke-linejoin:miter;stroke-width:0.75;" x="393.186458" xlink:href="#m99a564659a" y="47.30905"/>
     <use style="fill:#98df8a;stroke:#ffffff;stroke-linejoin:miter;stroke-width:0.75;" x="394.046323" xlink:href="#m99a564659a" y="47.30905"/>
     <use style="fill:#98df8a;stroke:#ffffff;stroke-linejoin:miter;stroke-width:0.75;" x="394.896011" xlink:href="#m99a564659a" y="44.78613"/>
     <use style="fill:#98df8a;stroke:#ffffff;stroke-linejoin:miter;stroke-width:0.75;" x="395.735761" xlink:href="#m99a564659a" y="44.78613"/>
     <use style="fill:#98df8a;stroke:#ffffff;stroke-linejoin:miter;stroke-width:0.75;" x="396.565803" xlink:href="#m99a564659a" y="40.020614"/>
     <use style="fill:#98df8a;stroke:#ffffff;stroke-linejoin:miter;stroke-width:0.75;" x="397.386358" xlink:href="#m99a564659a" y="40.020614"/>
     <use style="fill:#98df8a;stroke:#ffffff;stroke-linejoin:miter;stroke-width:0.75;" x="398.197642" xlink:href="#m99a564659a" y="39.74029"/>
     <use style="fill:#98df8a;stroke:#ffffff;stroke-linejoin:miter;stroke-width:0.75;" x="398.99986" xlink:href="#m99a564659a" y="38.899316"/>
     <use style="fill:#98df8a;stroke:#ffffff;stroke-linejoin:miter;stroke-width:0.75;" x="399.793214" xlink:href="#m99a564659a" y="38.899316"/>
     <use style="fill:#98df8a;stroke:#ffffff;stroke-linejoin:miter;stroke-width:0.75;" x="400.577898" xlink:href="#m99a564659a" y="38.618992"/>
    </g>
   </g>
   <g id="line2d_30">
    <path clip-path="url(#p0898b3c0fc)" d="M 75.923352 248.862329 
L 125.689806 186.209814 
L 154.801316 168.128887 
L 175.45626 139.535794 
L 191.47748 136.1719 
L 204.567769 127.201518 
L 215.635452 126.781031 
L 225.222714 121.875353 
L 233.679279 116.549189 
L 241.243934 111.643511 
L 248.086996 107.718969 
L 254.334223 106.317346 
L 260.081115 102.673128 
L 265.401906 101.972317 
L 270.355443 100.010046 
L 274.989168 97.627288 
L 279.341883 96.085504 
L 283.445733 95.945342 
L 287.327641 92.160962 
L 291.010388 92.160962 
L 294.513415 92.160962 
L 297.85345 91.319988 
L 301.04499 88.797068 
L 304.100677 88.797068 
L 307.031607 87.395446 
L 309.847569 87.395446 
L 312.557242 87.395446 
L 315.168359 87.395446 
L 317.68784 84.031553 
L 320.121897 84.031553 
L 322.476135 84.031553 
L 324.755622 79.826686 
L 326.96496 76.182468 
L 329.108337 75.621819 
L 331.189579 75.06117 
L 333.212187 75.06117 
L 335.179373 75.06117 
L 337.094095 74.780846 
L 338.959078 73.098899 
L 340.776842 73.098899 
L 342.549717 73.098899 
L 344.279869 72.257926 
L 345.969307 72.257926 
L 347.619904 71.977601 
L 349.233406 71.977601 
L 350.811444 70.295655 
L 352.355542 68.053059 
L 353.867131 68.053059 
L 355.347551 66.931761 
L 356.798061 66.931761 
L 358.219847 66.931761 
L 359.614023 67.632572 
L 360.981642 67.071923 
L 362.323696 66.651437 
L 363.641124 65.249814 
L 364.934813 63.988354 
L 366.205604 63.427706 
L 367.454294 62.867057 
L 368.681636 62.166246 
L 369.888351 61.885921 
L 371.075119 61.18511 
L 372.242589 60.624461 
L 373.391378 60.484299 
L 374.522076 60.203974 
L 375.635243 60.063812 
L 376.731414 59.92365 
L 377.8111 59.222839 
L 378.874791 59.222839 
L 379.922953 59.222839 
L 380.956033 58.381865 
L 381.974459 57.821217 
L 382.978641 57.821217 
L 383.968971 57.540892 
L 384.945827 57.540892 
L 385.909571 57.540892 
L 386.860549 56.980243 
L 387.799096 56.840081 
L 388.725532 56.699919 
L 389.640166 56.699919 
L 390.543295 56.419594 
L 391.435205 56.13927 
L 392.316171 56.13927 
L 393.186458 55.298296 
L 394.046323 55.017972 
L 394.896011 54.457323 
L 395.735761 54.176999 
L 396.565803 54.176999 
L 397.386358 51.934403 
L 398.197642 50.953268 
L 398.99986 50.953268 
L 399.793214 50.953268 
L 400.577898 50.532781 
" style="fill:none;stroke:#1f77b4;stroke-linecap:square;stroke-width:1.5;"/>
    <defs>
     <path d="M 0 3 
C 0.795609 3 1.55874 2.683901 2.12132 2.12132 
C 2.683901 1.55874 3 0.795609 3 0 
C 3 -0.795609 2.683901 -1.55874 2.12132 -2.12132 
C 1.55874 -2.683901 0.795609 -3 0 -3 
C -0.795609 -3 -1.55874 -2.683901 -2.12132 -2.12132 
C -2.683901 -1.55874 -3 -0.795609 -3 0 
C -3 0.795609 -2.683901 1.55874 -2.12132 2.12132 
C -1.55874 2.683901 -0.795609 3 0 3 
z
" id="mf262545e4e" style="stroke:#ffffff;stroke-width:0.75;"/>
    </defs>
    <g clip-path="url(#p0898b3c0fc)">
     <use style="fill:#1f77b4;stroke:#ffffff;stroke-width:0.75;" x="75.923352" xlink:href="#mf262545e4e" y="248.862329"/>
     <use style="fill:#1f77b4;stroke:#ffffff;stroke-width:0.75;" x="125.689806" xlink:href="#mf262545e4e" y="186.209814"/>
     <use style="fill:#1f77b4;stroke:#ffffff;stroke-width:0.75;" x="154.801316" xlink:href="#mf262545e4e" y="168.128887"/>
     <use style="fill:#1f77b4;stroke:#ffffff;stroke-width:0.75;" x="175.45626" xlink:href="#mf262545e4e" y="139.535794"/>
     <use style="fill:#1f77b4;stroke:#ffffff;stroke-width:0.75;" x="191.47748" xlink:href="#mf262545e4e" y="136.1719"/>
     <use style="fill:#1f77b4;stroke:#ffffff;stroke-width:0.75;" x="204.567769" xlink:href="#mf262545e4e" y="127.201518"/>
     <use style="fill:#1f77b4;stroke:#ffffff;stroke-width:0.75;" x="215.635452" xlink:href="#mf262545e4e" y="126.781031"/>
     <use style="fill:#1f77b4;stroke:#ffffff;stroke-width:0.75;" x="225.222714" xlink:href="#mf262545e4e" y="121.875353"/>
     <use style="fill:#1f77b4;stroke:#ffffff;stroke-width:0.75;" x="233.679279" xlink:href="#mf262545e4e" y="116.549189"/>
     <use style="fill:#1f77b4;stroke:#ffffff;stroke-width:0.75;" x="241.243934" xlink:href="#mf262545e4e" y="111.643511"/>
     <use style="fill:#1f77b4;stroke:#ffffff;stroke-width:0.75;" x="248.086996" xlink:href="#mf262545e4e" y="107.718969"/>
     <use style="fill:#1f77b4;stroke:#ffffff;stroke-width:0.75;" x="254.334223" xlink:href="#mf262545e4e" y="106.317346"/>
     <use style="fill:#1f77b4;stroke:#ffffff;stroke-width:0.75;" x="260.081115" xlink:href="#mf262545e4e" y="102.673128"/>
     <use style="fill:#1f77b4;stroke:#ffffff;stroke-width:0.75;" x="265.401906" xlink:href="#mf262545e4e" y="101.972317"/>
     <use style="fill:#1f77b4;stroke:#ffffff;stroke-width:0.75;" x="270.355443" xlink:href="#mf262545e4e" y="100.010046"/>
     <use style="fill:#1f77b4;stroke:#ffffff;stroke-width:0.75;" x="274.989168" xlink:href="#mf262545e4e" y="97.627288"/>
     <use style="fill:#1f77b4;stroke:#ffffff;stroke-width:0.75;" x="279.341883" xlink:href="#mf262545e4e" y="96.085504"/>
     <use style="fill:#1f77b4;stroke:#ffffff;stroke-width:0.75;" x="283.445733" xlink:href="#mf262545e4e" y="95.945342"/>
     <use style="fill:#1f77b4;stroke:#ffffff;stroke-width:0.75;" x="287.327641" xlink:href="#mf262545e4e" y="92.160962"/>
     <use style="fill:#1f77b4;stroke:#ffffff;stroke-width:0.75;" x="291.010388" xlink:href="#mf262545e4e" y="92.160962"/>
     <use style="fill:#1f77b4;stroke:#ffffff;stroke-width:0.75;" x="294.513415" xlink:href="#mf262545e4e" y="92.160962"/>
     <use style="fill:#1f77b4;stroke:#ffffff;stroke-width:0.75;" x="297.85345" xlink:href="#mf262545e4e" y="91.319988"/>
     <use style="fill:#1f77b4;stroke:#ffffff;stroke-width:0.75;" x="301.04499" xlink:href="#mf262545e4e" y="88.797068"/>
     <use style="fill:#1f77b4;stroke:#ffffff;stroke-width:0.75;" x="304.100677" xlink:href="#mf262545e4e" y="88.797068"/>
     <use style="fill:#1f77b4;stroke:#ffffff;stroke-width:0.75;" x="307.031607" xlink:href="#mf262545e4e" y="87.395446"/>
     <use style="fill:#1f77b4;stroke:#ffffff;stroke-width:0.75;" x="309.847569" xlink:href="#mf262545e4e" y="87.395446"/>
     <use style="fill:#1f77b4;stroke:#ffffff;stroke-width:0.75;" x="312.557242" xlink:href="#mf262545e4e" y="87.395446"/>
     <use style="fill:#1f77b4;stroke:#ffffff;stroke-width:0.75;" x="315.168359" xlink:href="#mf262545e4e" y="87.395446"/>
     <use style="fill:#1f77b4;stroke:#ffffff;stroke-width:0.75;" x="317.68784" xlink:href="#mf262545e4e" y="84.031553"/>
     <use style="fill:#1f77b4;stroke:#ffffff;stroke-width:0.75;" x="320.121897" xlink:href="#mf262545e4e" y="84.031553"/>
     <use style="fill:#1f77b4;stroke:#ffffff;stroke-width:0.75;" x="322.476135" xlink:href="#mf262545e4e" y="84.031553"/>
     <use style="fill:#1f77b4;stroke:#ffffff;stroke-width:0.75;" x="324.755622" xlink:href="#mf262545e4e" y="79.826686"/>
     <use style="fill:#1f77b4;stroke:#ffffff;stroke-width:0.75;" x="326.96496" xlink:href="#mf262545e4e" y="76.182468"/>
     <use style="fill:#1f77b4;stroke:#ffffff;stroke-width:0.75;" x="329.108337" xlink:href="#mf262545e4e" y="75.621819"/>
     <use style="fill:#1f77b4;stroke:#ffffff;stroke-width:0.75;" x="331.189579" xlink:href="#mf262545e4e" y="75.06117"/>
     <use style="fill:#1f77b4;stroke:#ffffff;stroke-width:0.75;" x="333.212187" xlink:href="#mf262545e4e" y="75.06117"/>
     <use style="fill:#1f77b4;stroke:#ffffff;stroke-width:0.75;" x="335.179373" xlink:href="#mf262545e4e" y="75.06117"/>
     <use style="fill:#1f77b4;stroke:#ffffff;stroke-width:0.75;" x="337.094095" xlink:href="#mf262545e4e" y="74.780846"/>
     <use style="fill:#1f77b4;stroke:#ffffff;stroke-width:0.75;" x="338.959078" xlink:href="#mf262545e4e" y="73.098899"/>
     <use style="fill:#1f77b4;stroke:#ffffff;stroke-width:0.75;" x="340.776842" xlink:href="#mf262545e4e" y="73.098899"/>
     <use style="fill:#1f77b4;stroke:#ffffff;stroke-width:0.75;" x="342.549717" xlink:href="#mf262545e4e" y="73.098899"/>
     <use style="fill:#1f77b4;stroke:#ffffff;stroke-width:0.75;" x="344.279869" xlink:href="#mf262545e4e" y="72.257926"/>
     <use style="fill:#1f77b4;stroke:#ffffff;stroke-width:0.75;" x="345.969307" xlink:href="#mf262545e4e" y="72.257926"/>
     <use style="fill:#1f77b4;stroke:#ffffff;stroke-width:0.75;" x="347.619904" xlink:href="#mf262545e4e" y="71.977601"/>
     <use style="fill:#1f77b4;stroke:#ffffff;stroke-width:0.75;" x="349.233406" xlink:href="#mf262545e4e" y="71.977601"/>
     <use style="fill:#1f77b4;stroke:#ffffff;stroke-width:0.75;" x="350.811444" xlink:href="#mf262545e4e" y="70.295655"/>
     <use style="fill:#1f77b4;stroke:#ffffff;stroke-width:0.75;" x="352.355542" xlink:href="#mf262545e4e" y="68.053059"/>
     <use style="fill:#1f77b4;stroke:#ffffff;stroke-width:0.75;" x="353.867131" xlink:href="#mf262545e4e" y="68.053059"/>
     <use style="fill:#1f77b4;stroke:#ffffff;stroke-width:0.75;" x="355.347551" xlink:href="#mf262545e4e" y="66.931761"/>
     <use style="fill:#1f77b4;stroke:#ffffff;stroke-width:0.75;" x="356.798061" xlink:href="#mf262545e4e" y="66.931761"/>
     <use style="fill:#1f77b4;stroke:#ffffff;stroke-width:0.75;" x="358.219847" xlink:href="#mf262545e4e" y="66.931761"/>
     <use style="fill:#1f77b4;stroke:#ffffff;stroke-width:0.75;" x="359.614023" xlink:href="#mf262545e4e" y="67.632572"/>
     <use style="fill:#1f77b4;stroke:#ffffff;stroke-width:0.75;" x="360.981642" xlink:href="#mf262545e4e" y="67.071923"/>
     <use style="fill:#1f77b4;stroke:#ffffff;stroke-width:0.75;" x="362.323696" xlink:href="#mf262545e4e" y="66.651437"/>
     <use style="fill:#1f77b4;stroke:#ffffff;stroke-width:0.75;" x="363.641124" xlink:href="#mf262545e4e" y="65.249814"/>
     <use style="fill:#1f77b4;stroke:#ffffff;stroke-width:0.75;" x="364.934813" xlink:href="#mf262545e4e" y="63.988354"/>
     <use style="fill:#1f77b4;stroke:#ffffff;stroke-width:0.75;" x="366.205604" xlink:href="#mf262545e4e" y="63.427706"/>
     <use style="fill:#1f77b4;stroke:#ffffff;stroke-width:0.75;" x="367.454294" xlink:href="#mf262545e4e" y="62.867057"/>
     <use style="fill:#1f77b4;stroke:#ffffff;stroke-width:0.75;" x="368.681636" xlink:href="#mf262545e4e" y="62.166246"/>
     <use style="fill:#1f77b4;stroke:#ffffff;stroke-width:0.75;" x="369.888351" xlink:href="#mf262545e4e" y="61.885921"/>
     <use style="fill:#1f77b4;stroke:#ffffff;stroke-width:0.75;" x="371.075119" xlink:href="#mf262545e4e" y="61.18511"/>
     <use style="fill:#1f77b4;stroke:#ffffff;stroke-width:0.75;" x="372.242589" xlink:href="#mf262545e4e" y="60.624461"/>
     <use style="fill:#1f77b4;stroke:#ffffff;stroke-width:0.75;" x="373.391378" xlink:href="#mf262545e4e" y="60.484299"/>
     <use style="fill:#1f77b4;stroke:#ffffff;stroke-width:0.75;" x="374.522076" xlink:href="#mf262545e4e" y="60.203974"/>
     <use style="fill:#1f77b4;stroke:#ffffff;stroke-width:0.75;" x="375.635243" xlink:href="#mf262545e4e" y="60.063812"/>
     <use style="fill:#1f77b4;stroke:#ffffff;stroke-width:0.75;" x="376.731414" xlink:href="#mf262545e4e" y="59.92365"/>
     <use style="fill:#1f77b4;stroke:#ffffff;stroke-width:0.75;" x="377.8111" xlink:href="#mf262545e4e" y="59.222839"/>
     <use style="fill:#1f77b4;stroke:#ffffff;stroke-width:0.75;" x="378.874791" xlink:href="#mf262545e4e" y="59.222839"/>
     <use style="fill:#1f77b4;stroke:#ffffff;stroke-width:0.75;" x="379.922953" xlink:href="#mf262545e4e" y="59.222839"/>
     <use style="fill:#1f77b4;stroke:#ffffff;stroke-width:0.75;" x="380.956033" xlink:href="#mf262545e4e" y="58.381865"/>
     <use style="fill:#1f77b4;stroke:#ffffff;stroke-width:0.75;" x="381.974459" xlink:href="#mf262545e4e" y="57.821217"/>
     <use style="fill:#1f77b4;stroke:#ffffff;stroke-width:0.75;" x="382.978641" xlink:href="#mf262545e4e" y="57.821217"/>
     <use style="fill:#1f77b4;stroke:#ffffff;stroke-width:0.75;" x="383.968971" xlink:href="#mf262545e4e" y="57.540892"/>
     <use style="fill:#1f77b4;stroke:#ffffff;stroke-width:0.75;" x="384.945827" xlink:href="#mf262545e4e" y="57.540892"/>
     <use style="fill:#1f77b4;stroke:#ffffff;stroke-width:0.75;" x="385.909571" xlink:href="#mf262545e4e" y="57.540892"/>
     <use style="fill:#1f77b4;stroke:#ffffff;stroke-width:0.75;" x="386.860549" xlink:href="#mf262545e4e" y="56.980243"/>
     <use style="fill:#1f77b4;stroke:#ffffff;stroke-width:0.75;" x="387.799096" xlink:href="#mf262545e4e" y="56.840081"/>
     <use style="fill:#1f77b4;stroke:#ffffff;stroke-width:0.75;" x="388.725532" xlink:href="#mf262545e4e" y="56.699919"/>
     <use style="fill:#1f77b4;stroke:#ffffff;stroke-width:0.75;" x="389.640166" xlink:href="#mf262545e4e" y="56.699919"/>
     <use style="fill:#1f77b4;stroke:#ffffff;stroke-width:0.75;" x="390.543295" xlink:href="#mf262545e4e" y="56.419594"/>
     <use style="fill:#1f77b4;stroke:#ffffff;stroke-width:0.75;" x="391.435205" xlink:href="#mf262545e4e" y="56.13927"/>
     <use style="fill:#1f77b4;stroke:#ffffff;stroke-width:0.75;" x="392.316171" xlink:href="#mf262545e4e" y="56.13927"/>
     <use style="fill:#1f77b4;stroke:#ffffff;stroke-width:0.75;" x="393.186458" xlink:href="#mf262545e4e" y="55.298296"/>
     <use style="fill:#1f77b4;stroke:#ffffff;stroke-width:0.75;" x="394.046323" xlink:href="#mf262545e4e" y="55.017972"/>
     <use style="fill:#1f77b4;stroke:#ffffff;stroke-width:0.75;" x="394.896011" xlink:href="#mf262545e4e" y="54.457323"/>
     <use style="fill:#1f77b4;stroke:#ffffff;stroke-width:0.75;" x="395.735761" xlink:href="#mf262545e4e" y="54.176999"/>
     <use style="fill:#1f77b4;stroke:#ffffff;stroke-width:0.75;" x="396.565803" xlink:href="#mf262545e4e" y="54.176999"/>
     <use style="fill:#1f77b4;stroke:#ffffff;stroke-width:0.75;" x="397.386358" xlink:href="#mf262545e4e" y="51.934403"/>
     <use style="fill:#1f77b4;stroke:#ffffff;stroke-width:0.75;" x="398.197642" xlink:href="#mf262545e4e" y="50.953268"/>
     <use style="fill:#1f77b4;stroke:#ffffff;stroke-width:0.75;" x="398.99986" xlink:href="#mf262545e4e" y="50.953268"/>
     <use style="fill:#1f77b4;stroke:#ffffff;stroke-width:0.75;" x="399.793214" xlink:href="#mf262545e4e" y="50.953268"/>
     <use style="fill:#1f77b4;stroke:#ffffff;stroke-width:0.75;" x="400.577898" xlink:href="#mf262545e4e" y="50.532781"/>
    </g>
   </g>
   <g id="line2d_31"/>
   <g id="line2d_32"/>
   <g id="patch_3">
    <path d="M 59.690625 285.865156 
L 59.690625 61.605597 
" style="fill:none;stroke:#000000;stroke-linecap:square;stroke-linejoin:miter;stroke-width:0.8;"/>
   </g>
   <g id="patch_4">
    <path d="M 75.923352 288.430125 
L 400.578765 288.430125 
" style="fill:none;stroke:#000000;stroke-linecap:square;stroke-linejoin:miter;stroke-width:0.8;"/>
   </g>
   <g id="text_14">
    <!-- php_php-fuzz-parser-2020-07-25 (23h, 17 trials/fuzzer) -->
    <g transform="translate(73.249688 16.318125)scale(0.12 -0.12)">
     <defs>
      <path d="M 1159 525 
L 1159 -1331 
L 581 -1331 
L 581 3500 
L 1159 3500 
L 1159 2969 
Q 1341 3281 1617 3432 
Q 1894 3584 2278 3584 
Q 2916 3584 3314 3078 
Q 3713 2572 3713 1747 
Q 3713 922 3314 415 
Q 2916 -91 2278 -91 
Q 1894 -91 1617 61 
Q 1341 213 1159 525 
z
M 3116 1747 
Q 3116 2381 2855 2742 
Q 2594 3103 2138 3103 
Q 1681 3103 1420 2742 
Q 1159 2381 1159 1747 
Q 1159 1113 1420 752 
Q 1681 391 2138 391 
Q 2594 391 2855 752 
Q 3116 1113 3116 1747 
z
" id="DejaVuSans-70" transform="scale(0.015625)"/>
      <path d="M 3263 -1063 
L 3263 -1509 
L -63 -1509 
L -63 -1063 
L 3263 -1063 
z
" id="DejaVuSans-5f" transform="scale(0.015625)"/>
      <path d="M 313 2009 
L 1997 2009 
L 1997 1497 
L 313 1497 
L 313 2009 
z
" id="DejaVuSans-2d" transform="scale(0.015625)"/>
      <path d="M 2375 4863 
L 2375 4384 
L 1825 4384 
Q 1516 4384 1395 4259 
Q 1275 4134 1275 3809 
L 1275 3500 
L 2222 3500 
L 2222 3053 
L 1275 3053 
L 1275 0 
L 697 0 
L 697 3053 
L 147 3053 
L 147 3500 
L 697 3500 
L 697 3744 
Q 697 4328 969 4595 
Q 1241 4863 1831 4863 
L 2375 4863 
z
" id="DejaVuSans-66" transform="scale(0.015625)"/>
      <path d="M 353 3500 
L 3084 3500 
L 3084 2975 
L 922 459 
L 3084 459 
L 3084 0 
L 275 0 
L 275 525 
L 2438 3041 
L 353 3041 
L 353 3500 
z
" id="DejaVuSans-7a" transform="scale(0.015625)"/>
      <path d="M 2834 3397 
L 2834 2853 
Q 2591 2978 2328 3040 
Q 2066 3103 1784 3103 
Q 1356 3103 1142 2972 
Q 928 2841 928 2578 
Q 928 2378 1081 2264 
Q 1234 2150 1697 2047 
L 1894 2003 
Q 2506 1872 2764 1633 
Q 3022 1394 3022 966 
Q 3022 478 2636 193 
Q 2250 -91 1575 -91 
Q 1294 -91 989 -36 
Q 684 19 347 128 
L 347 722 
Q 666 556 975 473 
Q 1284 391 1588 391 
Q 1994 391 2212 530 
Q 2431 669 2431 922 
Q 2431 1156 2273 1281 
Q 2116 1406 1581 1522 
L 1381 1569 
Q 847 1681 609 1914 
Q 372 2147 372 2553 
Q 372 3047 722 3315 
Q 1072 3584 1716 3584 
Q 2034 3584 2315 3537 
Q 2597 3491 2834 3397 
z
" id="DejaVuSans-73" transform="scale(0.015625)"/>
      <path d="M 691 4666 
L 3169 4666 
L 3169 4134 
L 1269 4134 
L 1269 2991 
Q 1406 3038 1543 3061 
Q 1681 3084 1819 3084 
Q 2600 3084 3056 2656 
Q 3513 2228 3513 1497 
Q 3513 744 3044 326 
Q 2575 -91 1722 -91 
Q 1428 -91 1123 -41 
Q 819 9 494 109 
L 494 744 
Q 775 591 1075 516 
Q 1375 441 1709 441 
Q 2250 441 2565 725 
Q 2881 1009 2881 1497 
Q 2881 1984 2565 2268 
Q 2250 2553 1709 2553 
Q 1456 2553 1204 2497 
Q 953 2441 691 2322 
L 691 4666 
z
" id="DejaVuSans-35" transform="scale(0.015625)"/>
      <path d="M 750 794 
L 1409 794 
L 1409 256 
L 897 -744 
L 494 -744 
L 750 256 
L 750 794 
z
" id="DejaVuSans-2c" transform="scale(0.015625)"/>
      <path d="M 603 4863 
L 1178 4863 
L 1178 0 
L 603 0 
L 603 4863 
z
" id="DejaVuSans-6c" transform="scale(0.015625)"/>
      <path d="M 1625 4666 
L 2156 4666 
L 531 -594 
L 0 -594 
L 1625 4666 
z
" id="DejaVuSans-2f" transform="scale(0.015625)"/>
     </defs>
     <use xlink:href="#DejaVuSans-70"/>
     <use x="63.476562" xlink:href="#DejaVuSans-68"/>
     <use x="126.855469" xlink:href="#DejaVuSans-70"/>
     <use x="190.332031" xlink:href="#DejaVuSans-5f"/>
     <use x="240.332031" xlink:href="#DejaVuSans-70"/>
     <use x="303.808594" xlink:href="#DejaVuSans-68"/>
     <use x="367.1875" xlink:href="#DejaVuSans-70"/>
     <use x="430.664062" xlink:href="#DejaVuSans-2d"/>
     <use x="466.748047" xlink:href="#DejaVuSans-66"/>
     <use x="501.953125" xlink:href="#DejaVuSans-75"/>
     <use x="565.332031" xlink:href="#DejaVuSans-7a"/>
     <use x="617.822266" xlink:href="#DejaVuSans-7a"/>
     <use x="670.3125" xlink:href="#DejaVuSans-2d"/>
     <use x="706.396484" xlink:href="#DejaVuSans-70"/>
     <use x="769.873047" xlink:href="#DejaVuSans-61"/>
     <use x="831.152344" xlink:href="#DejaVuSans-72"/>
     <use x="872.265625" xlink:href="#DejaVuSans-73"/>
     <use x="924.365234" xlink:href="#DejaVuSans-65"/>
     <use x="985.888672" xlink:href="#DejaVuSans-72"/>
     <use x="1020.626953" xlink:href="#DejaVuSans-2d"/>
     <use x="1056.710938" xlink:href="#DejaVuSans-32"/>
     <use x="1120.333984" xlink:href="#DejaVuSans-30"/>
     <use x="1183.957031" xlink:href="#DejaVuSans-32"/>
     <use x="1247.580078" xlink:href="#DejaVuSans-30"/>
     <use x="1311.203125" xlink:href="#DejaVuSans-2d"/>
     <use x="1347.287109" xlink:href="#DejaVuSans-30"/>
     <use x="1410.910156" xlink:href="#DejaVuSans-37"/>
     <use x="1474.533203" xlink:href="#DejaVuSans-2d"/>
     <use x="1510.617188" xlink:href="#DejaVuSans-32"/>
     <use x="1574.240234" xlink:href="#DejaVuSans-35"/>
     <use x="1637.863281" xlink:href="#DejaVuSans-20"/>
     <use x="1669.650391" xlink:href="#DejaVuSans-28"/>
     <use x="1708.664062" xlink:href="#DejaVuSans-32"/>
     <use x="1772.287109" xlink:href="#DejaVuSans-33"/>
     <use x="1835.910156" xlink:href="#DejaVuSans-68"/>
     <use x="1899.289062" xlink:href="#DejaVuSans-2c"/>
     <use x="1931.076172" xlink:href="#DejaVuSans-20"/>
     <use x="1962.863281" xlink:href="#DejaVuSans-31"/>
     <use x="2026.486328" xlink:href="#DejaVuSans-37"/>
     <use x="2090.109375" xlink:href="#DejaVuSans-20"/>
     <use x="2121.896484" xlink:href="#DejaVuSans-74"/>
     <use x="2161.105469" xlink:href="#DejaVuSans-72"/>
     <use x="2202.21875" xlink:href="#DejaVuSans-69"/>
     <use x="2230.001953" xlink:href="#DejaVuSans-61"/>
     <use x="2291.28125" xlink:href="#DejaVuSans-6c"/>
     <use x="2319.064453" xlink:href="#DejaVuSans-73"/>
     <use x="2371.164062" xlink:href="#DejaVuSans-2f"/>
     <use x="2404.855469" xlink:href="#DejaVuSans-66"/>
     <use x="2440.060547" xlink:href="#DejaVuSans-75"/>
     <use x="2503.439453" xlink:href="#DejaVuSans-7a"/>
     <use x="2555.929688" xlink:href="#DejaVuSans-7a"/>
     <use x="2608.419922" xlink:href="#DejaVuSans-65"/>
     <use x="2669.943359" xlink:href="#DejaVuSans-72"/>
     <use x="2711.056641" xlink:href="#DejaVuSans-29"/>
    </g>
   </g>
   <g id="legend_1">
    <g id="line2d_33">
     <path d="M 420.810625 30.416562 
L 440.810625 30.416562 
" style="fill:none;stroke:#98df8a;stroke-linecap:square;stroke-width:1.5;"/>
    </g>
    <g id="line2d_34">
     <defs>
      <path d="M -0 3 
L 3 -3 
L -3 -3 
z
" id="m8a8ae63526" style="stroke:#98df8a;stroke-linejoin:miter;"/>
     </defs>
     <g>
      <use style="fill:#98df8a;stroke:#98df8a;stroke-linejoin:miter;" x="430.810625" xlink:href="#m8a8ae63526" y="30.416562"/>
     </g>
    </g>
    <g id="text_15">
     <!-- afl_splicing_mutation -->
     <g transform="translate(448.810625 33.916562)scale(0.1 -0.1)">
      <use xlink:href="#DejaVuSans-61"/>
      <use x="61.279297" xlink:href="#DejaVuSans-66"/>
      <use x="96.484375" xlink:href="#DejaVuSans-6c"/>
      <use x="124.267578" xlink:href="#DejaVuSans-5f"/>
      <use x="174.267578" xlink:href="#DejaVuSans-73"/>
      <use x="226.367188" xlink:href="#DejaVuSans-70"/>
      <use x="289.84375" xlink:href="#DejaVuSans-6c"/>
      <use x="317.626953" xlink:href="#DejaVuSans-69"/>
      <use x="345.410156" xlink:href="#DejaVuSans-63"/>
      <use x="400.390625" xlink:href="#DejaVuSans-69"/>
      <use x="428.173828" xlink:href="#DejaVuSans-6e"/>
      <use x="491.552734" xlink:href="#DejaVuSans-67"/>
      <use x="555.029297" xlink:href="#DejaVuSans-5f"/>
      <use x="605.029297" xlink:href="#DejaVuSans-6d"/>
      <use x="702.441406" xlink:href="#DejaVuSans-75"/>
      <use x="765.820312" xlink:href="#DejaVuSans-74"/>
      <use x="805.029297" xlink:href="#DejaVuSans-61"/>
      <use x="866.308594" xlink:href="#DejaVuSans-74"/>
      <use x="905.517578" xlink:href="#DejaVuSans-69"/>
      <use x="933.300781" xlink:href="#DejaVuSans-6f"/>
      <use x="994.482422" xlink:href="#DejaVuSans-6e"/>
     </g>
    </g>
    <g id="line2d_35">
     <path d="M 420.810625 45.372813 
L 440.810625 45.372813 
" style="fill:none;stroke:#1f77b4;stroke-linecap:square;stroke-width:1.5;"/>
    </g>
    <g id="line2d_36">
     <defs>
      <path d="M 0 3 
C 0.795609 3 1.55874 2.683901 2.12132 2.12132 
C 2.683901 1.55874 3 0.795609 3 0 
C 3 -0.795609 2.683901 -1.55874 2.12132 -2.12132 
C 1.55874 -2.683901 0.795609 -3 0 -3 
C -0.795609 -3 -1.55874 -2.683901 -2.12132 -2.12132 
C -2.683901 -1.55874 -3 -0.795609 -3 0 
C -3 0.795609 -2.683901 1.55874 -2.12132 2.12132 
C -1.55874 2.683901 -0.795609 3 0 3 
z
" id="m801781287c" style="stroke:#1f77b4;"/>
     </defs>
     <g>
      <use style="fill:#1f77b4;stroke:#1f77b4;" x="430.810625" xlink:href="#m801781287c" y="45.372813"/>
     </g>
    </g>
    <g id="text_16">
     <!-- afl -->
     <g transform="translate(448.810625 48.872813)scale(0.1 -0.1)">
      <use xlink:href="#DejaVuSans-61"/>
      <use x="61.279297" xlink:href="#DejaVuSans-66"/>
      <use x="96.484375" xlink:href="#DejaVuSans-6c"/>
     </g>
    </g>
   </g>
  </g>
 </g>
 <defs>
  <clipPath id="p0898b3c0fc">
   <rect height="266.112" width="357.12" x="59.690625" y="22.318125"/>
  </clipPath>
 </defs>
</svg>
