<?xml version="1.0" encoding="utf-8" standalone="no"?>
<!DOCTYPE svg PUBLIC "-//W3C//DTD SVG 1.1//EN"
  "http://www.w3.org/Graphics/SVG/1.1/DTD/svg11.dtd">
<svg height="325.986375pt" version="1.1" viewBox="0 0 565.795 325.986375" width="565.795pt" xmlns="http://www.w3.org/2000/svg" xmlns:xlink="http://www.w3.org/1999/xlink">
 <metadata>
  <rdf:RDF xmlns:cc="http://creativecommons.org/ns#" xmlns:dc="http://purl.org/dc/elements/1.1/" xmlns:rdf="http://www.w3.org/1999/02/22-rdf-syntax-ns#">
   <cc:Work>
    <dc:type rdf:resource="http://purl.org/dc/dcmitype/StillImage"/>
    <dc:date>2022-08-18T10:33:37.917639</dc:date>
    <dc:format>image/svg+xml</dc:format>
    <dc:creator>
     <cc:Agent>
      <dc:title>Matplotlib v3.4.3, https://matplotlib.org/</dc:title>
     </cc:Agent>
    </dc:creator>
   </cc:Work>
  </rdf:RDF>
 </metadata>
 <defs>
  <style type="text/css">*{stroke-linecap:butt;stroke-linejoin:round;}</style>
 </defs>
 <g id="figure_1">
  <g id="patch_1">
   <path d="M 0 325.986375 
L 565.795 325.986375 
L 565.795 0 
L 0 0 
z
" style="fill:#ffffff;"/>
  </g>
  <g id="axes_1">
   <g id="patch_2">
    <path d="M 59.690625 288.430125 
L 416.810625 288.430125 
L 416.810625 22.318125 
L 59.690625 22.318125 
z
" style="fill:#ffffff;"/>
   </g>
   <g id="PolyCollection_1">
    <defs>
     <path d="M 75.923352 -70.38825 
L 75.923352 -55.991573 
L 79.490985 -73.445481 
L 83.058617 -99.099635 
L 86.626249 -111.417173 
L 90.193882 -116.867019 
L 93.761514 -122.671327 
L 97.329146 -122.405481 
L 100.896779 -123.823327 
L 104.464411 -126.393173 
L 108.032044 -139.153788 
L 111.599676 -149.521788 
L 115.167308 -151.205481 
L 118.734941 -159.269481 
L 122.302573 -162.54825 
L 125.870205 -167.687942 
L 129.437838 -173.625173 
L 133.00547 -184.081788 
L 136.573103 -186.297173 
L 140.140735 -192.234404 
L 143.708367 -198.880558 
L 147.276 -203.134096 
L 150.843632 -208.451019 
L 154.411264 -211.729788 
L 157.978897 -215.274404 
L 161.546529 -215.54025 
L 165.114161 -217.489788 
L 168.681794 -224.490404 
L 172.249426 -227.237481 
L 175.817059 -228.21225 
L 179.384691 -232.643019 
L 182.952323 -236.010404 
L 186.519956 -237.694096 
L 190.087588 -237.782712 
L 193.65522 -240.529788 
L 197.222853 -245.758096 
L 200.790485 -246.289788 
L 204.358118 -246.467019 
L 207.92575 -250.631942 
L 211.493382 -253.379019 
L 215.061015 -255.594404 
L 218.628647 -255.86025 
L 222.196279 -257.632558 
L 225.763912 -258.695942 
L 229.331544 -262.683635 
L 232.899176 -263.658404 
L 236.466809 -266.316865 
L 240.034441 -266.937173 
L 243.602074 -268.53225 
L 247.169706 -269.950096 
L 250.737338 -271.279327 
L 254.304971 -271.545173 
L 257.872603 -272.608558 
L 261.440235 -272.697173 
L 265.007868 -273.317481 
L 268.5755 -275.887327 
L 272.143132 -276.419019 
L 275.710765 -276.59625 
L 279.278397 -276.773481 
L 282.84603 -279.254712 
L 286.413662 -279.609173 
L 289.981294 -280.406712 
L 293.548927 -280.849788 
L 297.116559 -282.267635 
L 300.684191 -282.267635 
L 304.251824 -282.444865 
L 307.819456 -282.622096 
L 311.387089 -282.622096 
L 314.954721 -282.622096 
L 318.522353 -283.331019 
L 322.089986 -283.596865 
L 325.657618 -283.596865 
L 329.22525 -283.596865 
L 332.792883 -283.774096 
L 336.360515 -283.862712 
L 339.928147 -284.394404 
L 343.49578 -284.394404 
L 347.063412 -284.394404 
L 350.631045 -284.483019 
L 354.198677 -284.483019 
L 357.766309 -284.571635 
L 361.333942 -284.571635 
L 364.901574 -284.571635 
L 368.469206 -284.571635 
L 372.036839 -285.191942 
L 375.604471 -285.280558 
L 379.172104 -285.546404 
L 382.739736 -285.635019 
L 386.307368 -285.635019 
L 389.875001 -285.989481 
L 393.442633 -285.989481 
L 397.010265 -286.078096 
L 400.577898 -286.078096 
L 400.577898 -291.57225 
L 400.577898 -291.57225 
L 397.010265 -291.306404 
L 393.442633 -291.217788 
L 389.875001 -291.217788 
L 386.307368 -291.129173 
L 382.739736 -291.129173 
L 379.172104 -290.243019 
L 375.604471 -290.243019 
L 372.036839 -289.888558 
L 368.469206 -289.445481 
L 364.901574 -289.091019 
L 361.333942 -289.091019 
L 357.766309 -289.091019 
L 354.198677 -289.002404 
L 350.631045 -289.002404 
L 347.063412 -288.825173 
L 343.49578 -288.825173 
L 339.928147 -288.825173 
L 336.360515 -288.825173 
L 332.792883 -288.825173 
L 329.22525 -288.825173 
L 325.657618 -288.736558 
L 322.089986 -288.736558 
L 318.522353 -288.647942 
L 314.954721 -288.293481 
L 311.387089 -288.293481 
L 307.819456 -288.204865 
L 304.251824 -288.027635 
L 300.684191 -287.318712 
L 297.116559 -285.989481 
L 293.548927 -285.989481 
L 289.981294 -284.950465 
L 286.413662 -285.635019 
L 282.84603 -284.926096 
L 279.278397 -284.837481 
L 275.710765 -284.394404 
L 272.143132 -284.394404 
L 268.5755 -283.774096 
L 265.007868 -283.419635 
L 261.440235 -281.913173 
L 257.872603 -281.381481 
L 254.304971 -280.406712 
L 250.737338 -279.875019 
L 247.169706 -279.077481 
L 243.602074 -278.634404 
L 240.034441 -276.59625 
L 236.466809 -276.064558 
L 232.899176 -273.228865 
L 229.331544 -272.608558 
L 225.763912 -271.545173 
L 222.196279 -268.177788 
L 218.628647 -267.203019 
L 215.061015 -265.342096 
L 211.493382 -264.721788 
L 207.92575 -263.392558 
L 204.358118 -261.531635 
L 200.790485 -260.734096 
L 197.222853 -258.695942 
L 193.65522 -257.721173 
L 190.087588 -255.151327 
L 186.519956 -253.55625 
L 182.952323 -250.011635 
L 179.384691 -248.150712 
L 175.817059 -246.64425 
L 172.249426 -246.201173 
L 168.681794 -239.023327 
L 165.114161 -237.073788 
L 161.546529 -235.567327 
L 157.978897 -232.997481 
L 154.411264 -230.959327 
L 150.843632 -225.110712 
L 147.276 -224.844865 
L 143.708367 -220.325481 
L 140.140735 -216.780865 
L 136.573103 -214.565481 
L 133.00547 -210.046096 
L 129.437838 -207.653481 
L 125.870205 -203.754404 
L 122.302573 -200.387019 
L 118.734941 -191.082404 
L 115.167308 -186.474404 
L 111.599676 -183.28425 
L 108.032044 -173.270712 
L 104.464411 -168.839942 
L 100.896779 -161.662096 
L 97.329146 -157.497173 
L 93.761514 -150.540865 
L 90.193882 -132.640558 
L 86.626249 -129.539019 
L 83.058617 -116.734096 
L 79.490985 -108.049788 
L 75.923352 -70.38825 
z
" id="m073f58e5da" style="stroke:#1f77b4;stroke-opacity:0.2;"/>
    </defs>
    <g clip-path="url(#p0181c92444)">
     <use style="fill:#1f77b4;fill-opacity:0.2;stroke:#1f77b4;stroke-opacity:0.2;" x="0" xlink:href="#m073f58e5da" y="325.986375"/>
    </g>
   </g>
   <g id="PolyCollection_2">
    <defs>
     <path d="M 75.923352 -64.62825 
L 75.923352 -49.65225 
L 79.490985 -80.336435 
L 83.058617 -95.289173 
L 86.626249 -105.701481 
L 90.193882 -109.822096 
L 93.761514 -114.518712 
L 97.329146 -130.513788 
L 100.896779 -140.748865 
L 104.464411 -146.863327 
L 108.032044 -152.916865 
L 111.599676 -159.402404 
L 115.167308 -166.713173 
L 118.734941 -174.64425 
L 122.302573 -178.942096 
L 125.870205 -186.385788 
L 129.437838 -191.126712 
L 133.00547 -198.304558 
L 136.573103 -197.817173 
L 140.140735 -204.241788 
L 143.708367 -205.925481 
L 147.276 -208.007942 
L 150.843632 -209.159942 
L 154.411264 -212.615942 
L 157.978897 -214.875635 
L 161.546529 -221.255942 
L 165.114161 -225.95145 
L 168.681794 -227.63625 
L 172.249426 -228.832558 
L 175.817059 -230.915019 
L 179.384691 -233.39625 
L 182.952323 -235.12425 
L 186.519956 -237.330773 
L 190.087588 -240.263942 
L 193.65522 -242.080558 
L 197.222853 -244.163019 
L 200.790485 -245.580865 
L 204.358118 -246.688558 
L 207.92575 -247.619019 
L 211.493382 -248.638096 
L 215.061015 -251.030712 
L 218.628647 -253.423327 
L 222.196279 -258.16425 
L 225.763912 -258.16425 
L 229.331544 -260.689788 
L 232.899176 -259.980865 
L 236.466809 -262.373481 
L 240.034441 -262.816558 
L 243.602074 -262.506404 
L 247.169706 -264.057173 
L 250.737338 -267.911942 
L 254.304971 -270.300127 
L 257.872603 -270.747635 
L 261.440235 -271.633788 
L 265.007868 -272.121173 
L 268.5755 -272.608558 
L 272.143132 -272.918712 
L 275.710765 -274.820619 
L 279.278397 -275.532865 
L 282.84603 -275.577173 
L 286.413662 -276.153173 
L 289.981294 -277.216558 
L 293.548927 -277.393788 
L 297.116559 -277.393788 
L 300.684191 -277.74825 
L 304.251824 -279.963635 
L 307.819456 -279.963635 
L 311.387089 -280.140865 
L 314.954721 -280.495327 
L 318.522353 -280.495327 
L 322.089986 -280.495327 
L 325.657618 -280.761173 
L 329.22525 -280.938404 
L 332.792883 -281.292865 
L 336.360515 -281.292865 
L 339.928147 -281.241912 
L 343.49578 -281.381481 
L 347.063412 -282.533481 
L 350.631045 -282.533481 
L 354.198677 -282.622096 
L 357.766309 -282.710712 
L 361.333942 -282.710712 
L 364.901574 -282.710712 
L 368.469206 -282.799327 
L 372.036839 -282.887942 
L 375.604471 -282.976558 
L 379.172104 -283.153788 
L 382.739736 -283.153788 
L 386.307368 -283.596865 
L 389.875001 -283.862712 
L 393.442633 -285.014712 
L 397.010265 -285.457788 
L 400.577898 -285.502096 
L 400.577898 -289.135327 
L 400.577898 -289.135327 
L 397.010265 -288.736558 
L 393.442633 -288.382096 
L 389.875001 -288.382096 
L 386.307368 -287.939019 
L 382.739736 -287.850404 
L 379.172104 -287.673173 
L 375.604471 -287.318712 
L 372.036839 -287.141481 
L 368.469206 -287.141481 
L 364.901574 -286.96425 
L 361.333942 -286.521173 
L 357.766309 -286.521173 
L 354.198677 -286.343942 
L 350.631045 -286.255327 
L 347.063412 -286.166712 
L 343.49578 -285.989481 
L 339.928147 -285.81225 
L 336.360515 -285.81225 
L 332.792883 -285.81225 
L 329.22525 -285.280558 
L 325.657618 -285.280558 
L 322.089986 -285.280558 
L 318.522353 -285.014712 
L 314.954721 -285.014712 
L 311.387089 -284.926096 
L 307.819456 -284.837481 
L 304.251824 -283.50825 
L 300.684191 -283.331019 
L 297.116559 -283.065173 
L 293.548927 -282.267635 
L 289.981294 -281.913173 
L 286.413662 -281.470096 
L 282.84603 -281.248558 
L 279.278397 -281.248558 
L 275.710765 -281.20425 
L 272.143132 -280.982712 
L 268.5755 -280.318096 
L 265.007868 -279.387635 
L 261.440235 -279.254712 
L 257.872603 -279.166096 
L 254.304971 -278.90025 
L 250.737338 -278.77065 
L 247.169706 -278.501481 
L 243.602074 -277.305173 
L 240.034441 -276.153173 
L 236.466809 -276.02025 
L 232.899176 -272.165481 
L 229.331544 -270.083019 
L 225.763912 -268.620865 
L 222.196279 -266.139635 
L 218.628647 -263.835635 
L 215.061015 -261.62025 
L 211.493382 -261.132865 
L 207.92575 -260.025173 
L 204.358118 -258.031327 
L 200.790485 -255.683019 
L 197.222853 -253.644865 
L 193.65522 -253.644865 
L 190.087588 -252.537173 
L 186.519956 -249.92745 
L 182.952323 -249.169788 
L 179.384691 -247.353173 
L 175.817059 -246.555635 
L 172.249426 -244.783327 
L 168.681794 -242.656558 
L 165.114161 -238.94025 
L 161.546529 -235.788865 
L 157.978897 -233.927942 
L 154.411264 -230.339019 
L 150.843632 -229.630096 
L 147.276 -228.300865 
L 143.708367 -223.02825 
L 140.140735 -218.398096 
L 136.573103 -213.732496 
L 133.00547 -209.603019 
L 129.437838 -210.046096 
L 125.870205 -203.44425 
L 122.302573 -194.051019 
L 118.734941 -191.702712 
L 115.167308 -188.246712 
L 111.599676 -184.259019 
L 108.032044 -176.327942 
L 104.464411 -171.808558 
L 100.896779 -159.623942 
L 97.329146 -150.939635 
L 93.761514 -140.881788 
L 90.193882 -135.254712 
L 86.626249 -130.646712 
L 83.058617 -121.253481 
L 79.490985 -96.441173 
L 75.923352 -64.62825 
z
" id="m85c78986a9" style="stroke:#98df8a;stroke-opacity:0.2;"/>
    </defs>
    <g clip-path="url(#p0181c92444)">
     <use style="fill:#98df8a;fill-opacity:0.2;stroke:#98df8a;stroke-opacity:0.2;" x="0" xlink:href="#m85c78986a9" y="325.986375"/>
    </g>
   </g>
   <g id="matplotlib.axis_1">
    <g id="xtick_1">
     <g id="line2d_1">
      <defs>
       <path d="M 0 0 
L 0 3.5 
" id="m98e34fcc72" style="stroke:#000000;stroke-width:0.8;"/>
      </defs>
      <g>
       <use style="stroke:#000000;stroke-width:0.8;" x="75.923352" xlink:href="#m98e34fcc72" y="288.430125"/>
      </g>
     </g>
     <g id="text_1">
      <!-- 15m -->
      <g transform="translate(64.69054 303.028562)scale(0.1 -0.1)">
       <defs>
        <path d="M 794 531 
L 1825 531 
L 1825 4091 
L 703 3866 
L 703 4441 
L 1819 4666 
L 2450 4666 
L 2450 531 
L 3481 531 
L 3481 0 
L 794 0 
L 794 531 
z
" id="DejaVuSans-31" transform="scale(0.015625)"/>
        <path d="M 691 4666 
L 3169 4666 
L 3169 4134 
L 1269 4134 
L 1269 2991 
Q 1406 3038 1543 3061 
Q 1681 3084 1819 3084 
Q 2600 3084 3056 2656 
Q 3513 2228 3513 1497 
Q 3513 744 3044 326 
Q 2575 -91 1722 -91 
Q 1428 -91 1123 -41 
Q 819 9 494 109 
L 494 744 
Q 775 591 1075 516 
Q 1375 441 1709 441 
Q 2250 441 2565 725 
Q 2881 1009 2881 1497 
Q 2881 1984 2565 2268 
Q 2250 2553 1709 2553 
Q 1456 2553 1204 2497 
Q 953 2441 691 2322 
L 691 4666 
z
" id="DejaVuSans-35" transform="scale(0.015625)"/>
        <path d="M 3328 2828 
Q 3544 3216 3844 3400 
Q 4144 3584 4550 3584 
Q 5097 3584 5394 3201 
Q 5691 2819 5691 2113 
L 5691 0 
L 5113 0 
L 5113 2094 
Q 5113 2597 4934 2840 
Q 4756 3084 4391 3084 
Q 3944 3084 3684 2787 
Q 3425 2491 3425 1978 
L 3425 0 
L 2847 0 
L 2847 2094 
Q 2847 2600 2669 2842 
Q 2491 3084 2119 3084 
Q 1678 3084 1418 2786 
Q 1159 2488 1159 1978 
L 1159 0 
L 581 0 
L 581 3500 
L 1159 3500 
L 1159 2956 
Q 1356 3278 1631 3431 
Q 1906 3584 2284 3584 
Q 2666 3584 2933 3390 
Q 3200 3197 3328 2828 
z
" id="DejaVuSans-6d" transform="scale(0.015625)"/>
       </defs>
       <use xlink:href="#DejaVuSans-31"/>
       <use x="63.623047" xlink:href="#DejaVuSans-35"/>
       <use x="127.246094" xlink:href="#DejaVuSans-6d"/>
      </g>
     </g>
    </g>
    <g id="xtick_2">
     <g id="line2d_2">
      <g>
       <use style="stroke:#000000;stroke-width:0.8;" x="130.627049" xlink:href="#m98e34fcc72" y="288.430125"/>
      </g>
     </g>
     <g id="text_2">
      <!-- 4h:5m -->
      <g transform="translate(114.541111 303.028562)scale(0.1 -0.1)">
       <defs>
        <path d="M 2419 4116 
L 825 1625 
L 2419 1625 
L 2419 4116 
z
M 2253 4666 
L 3047 4666 
L 3047 1625 
L 3713 1625 
L 3713 1100 
L 3047 1100 
L 3047 0 
L 2419 0 
L 2419 1100 
L 313 1100 
L 313 1709 
L 2253 4666 
z
" id="DejaVuSans-34" transform="scale(0.015625)"/>
        <path d="M 3513 2113 
L 3513 0 
L 2938 0 
L 2938 2094 
Q 2938 2591 2744 2837 
Q 2550 3084 2163 3084 
Q 1697 3084 1428 2787 
Q 1159 2491 1159 1978 
L 1159 0 
L 581 0 
L 581 4863 
L 1159 4863 
L 1159 2956 
Q 1366 3272 1645 3428 
Q 1925 3584 2291 3584 
Q 2894 3584 3203 3211 
Q 3513 2838 3513 2113 
z
" id="DejaVuSans-68" transform="scale(0.015625)"/>
        <path d="M 750 794 
L 1409 794 
L 1409 0 
L 750 0 
L 750 794 
z
M 750 3309 
L 1409 3309 
L 1409 2516 
L 750 2516 
L 750 3309 
z
" id="DejaVuSans-3a" transform="scale(0.015625)"/>
       </defs>
       <use xlink:href="#DejaVuSans-34"/>
       <use x="63.623047" xlink:href="#DejaVuSans-68"/>
       <use x="127.001953" xlink:href="#DejaVuSans-3a"/>
       <use x="160.693359" xlink:href="#DejaVuSans-35"/>
       <use x="224.316406" xlink:href="#DejaVuSans-6d"/>
      </g>
     </g>
    </g>
    <g id="xtick_3">
     <g id="line2d_3">
      <g>
       <use style="stroke:#000000;stroke-width:0.8;" x="185.330745" xlink:href="#m98e34fcc72" y="288.430125"/>
      </g>
     </g>
     <g id="text_3">
      <!-- 7h:55m -->
      <g transform="translate(166.063557 303.028562)scale(0.1 -0.1)">
       <defs>
        <path d="M 525 4666 
L 3525 4666 
L 3525 4397 
L 1831 0 
L 1172 0 
L 2766 4134 
L 525 4134 
L 525 4666 
z
" id="DejaVuSans-37" transform="scale(0.015625)"/>
       </defs>
       <use xlink:href="#DejaVuSans-37"/>
       <use x="63.623047" xlink:href="#DejaVuSans-68"/>
       <use x="127.001953" xlink:href="#DejaVuSans-3a"/>
       <use x="160.693359" xlink:href="#DejaVuSans-35"/>
       <use x="224.316406" xlink:href="#DejaVuSans-35"/>
       <use x="287.939453" xlink:href="#DejaVuSans-6d"/>
      </g>
     </g>
    </g>
    <g id="xtick_4">
     <g id="line2d_4">
      <g>
       <use style="stroke:#000000;stroke-width:0.8;" x="240.034441" xlink:href="#m98e34fcc72" y="288.430125"/>
      </g>
     </g>
     <g id="text_4">
      <!-- 11h:45m -->
      <g transform="translate(217.586004 303.028562)scale(0.1 -0.1)">
       <use xlink:href="#DejaVuSans-31"/>
       <use x="63.623047" xlink:href="#DejaVuSans-31"/>
       <use x="127.246094" xlink:href="#DejaVuSans-68"/>
       <use x="190.625" xlink:href="#DejaVuSans-3a"/>
       <use x="224.316406" xlink:href="#DejaVuSans-34"/>
       <use x="287.939453" xlink:href="#DejaVuSans-35"/>
       <use x="351.5625" xlink:href="#DejaVuSans-6d"/>
      </g>
     </g>
    </g>
    <g id="xtick_5">
     <g id="line2d_5">
      <g>
       <use style="stroke:#000000;stroke-width:0.8;" x="294.738137" xlink:href="#m98e34fcc72" y="288.430125"/>
      </g>
     </g>
     <g id="text_5">
      <!-- 15h:35m -->
      <g transform="translate(272.2897 303.028562)scale(0.1 -0.1)">
       <defs>
        <path d="M 2597 2516 
Q 3050 2419 3304 2112 
Q 3559 1806 3559 1356 
Q 3559 666 3084 287 
Q 2609 -91 1734 -91 
Q 1441 -91 1130 -33 
Q 819 25 488 141 
L 488 750 
Q 750 597 1062 519 
Q 1375 441 1716 441 
Q 2309 441 2620 675 
Q 2931 909 2931 1356 
Q 2931 1769 2642 2001 
Q 2353 2234 1838 2234 
L 1294 2234 
L 1294 2753 
L 1863 2753 
Q 2328 2753 2575 2939 
Q 2822 3125 2822 3475 
Q 2822 3834 2567 4026 
Q 2313 4219 1838 4219 
Q 1578 4219 1281 4162 
Q 984 4106 628 3988 
L 628 4550 
Q 988 4650 1302 4700 
Q 1616 4750 1894 4750 
Q 2613 4750 3031 4423 
Q 3450 4097 3450 3541 
Q 3450 3153 3228 2886 
Q 3006 2619 2597 2516 
z
" id="DejaVuSans-33" transform="scale(0.015625)"/>
       </defs>
       <use xlink:href="#DejaVuSans-31"/>
       <use x="63.623047" xlink:href="#DejaVuSans-35"/>
       <use x="127.246094" xlink:href="#DejaVuSans-68"/>
       <use x="190.625" xlink:href="#DejaVuSans-3a"/>
       <use x="224.316406" xlink:href="#DejaVuSans-33"/>
       <use x="287.939453" xlink:href="#DejaVuSans-35"/>
       <use x="351.5625" xlink:href="#DejaVuSans-6d"/>
      </g>
     </g>
    </g>
    <g id="xtick_6">
     <g id="line2d_6">
      <g>
       <use style="stroke:#000000;stroke-width:0.8;" x="349.441834" xlink:href="#m98e34fcc72" y="288.430125"/>
      </g>
     </g>
     <g id="text_6">
      <!-- 19h:25m -->
      <g transform="translate(326.993396 303.028562)scale(0.1 -0.1)">
       <defs>
        <path d="M 703 97 
L 703 672 
Q 941 559 1184 500 
Q 1428 441 1663 441 
Q 2288 441 2617 861 
Q 2947 1281 2994 2138 
Q 2813 1869 2534 1725 
Q 2256 1581 1919 1581 
Q 1219 1581 811 2004 
Q 403 2428 403 3163 
Q 403 3881 828 4315 
Q 1253 4750 1959 4750 
Q 2769 4750 3195 4129 
Q 3622 3509 3622 2328 
Q 3622 1225 3098 567 
Q 2575 -91 1691 -91 
Q 1453 -91 1209 -44 
Q 966 3 703 97 
z
M 1959 2075 
Q 2384 2075 2632 2365 
Q 2881 2656 2881 3163 
Q 2881 3666 2632 3958 
Q 2384 4250 1959 4250 
Q 1534 4250 1286 3958 
Q 1038 3666 1038 3163 
Q 1038 2656 1286 2365 
Q 1534 2075 1959 2075 
z
" id="DejaVuSans-39" transform="scale(0.015625)"/>
        <path d="M 1228 531 
L 3431 531 
L 3431 0 
L 469 0 
L 469 531 
Q 828 903 1448 1529 
Q 2069 2156 2228 2338 
Q 2531 2678 2651 2914 
Q 2772 3150 2772 3378 
Q 2772 3750 2511 3984 
Q 2250 4219 1831 4219 
Q 1534 4219 1204 4116 
Q 875 4013 500 3803 
L 500 4441 
Q 881 4594 1212 4672 
Q 1544 4750 1819 4750 
Q 2544 4750 2975 4387 
Q 3406 4025 3406 3419 
Q 3406 3131 3298 2873 
Q 3191 2616 2906 2266 
Q 2828 2175 2409 1742 
Q 1991 1309 1228 531 
z
" id="DejaVuSans-32" transform="scale(0.015625)"/>
       </defs>
       <use xlink:href="#DejaVuSans-31"/>
       <use x="63.623047" xlink:href="#DejaVuSans-39"/>
       <use x="127.246094" xlink:href="#DejaVuSans-68"/>
       <use x="190.625" xlink:href="#DejaVuSans-3a"/>
       <use x="224.316406" xlink:href="#DejaVuSans-32"/>
       <use x="287.939453" xlink:href="#DejaVuSans-35"/>
       <use x="351.5625" xlink:href="#DejaVuSans-6d"/>
      </g>
     </g>
    </g>
    <g id="text_7">
     <!-- Time (hour:minute) -->
     <g transform="translate(189.843594 316.706687)scale(0.1 -0.1)">
      <defs>
       <path d="M -19 4666 
L 3928 4666 
L 3928 4134 
L 2272 4134 
L 2272 0 
L 1638 0 
L 1638 4134 
L -19 4134 
L -19 4666 
z
" id="DejaVuSans-54" transform="scale(0.015625)"/>
       <path d="M 603 3500 
L 1178 3500 
L 1178 0 
L 603 0 
L 603 3500 
z
M 603 4863 
L 1178 4863 
L 1178 4134 
L 603 4134 
L 603 4863 
z
" id="DejaVuSans-69" transform="scale(0.015625)"/>
       <path d="M 3597 1894 
L 3597 1613 
L 953 1613 
Q 991 1019 1311 708 
Q 1631 397 2203 397 
Q 2534 397 2845 478 
Q 3156 559 3463 722 
L 3463 178 
Q 3153 47 2828 -22 
Q 2503 -91 2169 -91 
Q 1331 -91 842 396 
Q 353 884 353 1716 
Q 353 2575 817 3079 
Q 1281 3584 2069 3584 
Q 2775 3584 3186 3129 
Q 3597 2675 3597 1894 
z
M 3022 2063 
Q 3016 2534 2758 2815 
Q 2500 3097 2075 3097 
Q 1594 3097 1305 2825 
Q 1016 2553 972 2059 
L 3022 2063 
z
" id="DejaVuSans-65" transform="scale(0.015625)"/>
       <path id="DejaVuSans-20" transform="scale(0.015625)"/>
       <path d="M 1984 4856 
Q 1566 4138 1362 3434 
Q 1159 2731 1159 2009 
Q 1159 1288 1364 580 
Q 1569 -128 1984 -844 
L 1484 -844 
Q 1016 -109 783 600 
Q 550 1309 550 2009 
Q 550 2706 781 3412 
Q 1013 4119 1484 4856 
L 1984 4856 
z
" id="DejaVuSans-28" transform="scale(0.015625)"/>
       <path d="M 1959 3097 
Q 1497 3097 1228 2736 
Q 959 2375 959 1747 
Q 959 1119 1226 758 
Q 1494 397 1959 397 
Q 2419 397 2687 759 
Q 2956 1122 2956 1747 
Q 2956 2369 2687 2733 
Q 2419 3097 1959 3097 
z
M 1959 3584 
Q 2709 3584 3137 3096 
Q 3566 2609 3566 1747 
Q 3566 888 3137 398 
Q 2709 -91 1959 -91 
Q 1206 -91 779 398 
Q 353 888 353 1747 
Q 353 2609 779 3096 
Q 1206 3584 1959 3584 
z
" id="DejaVuSans-6f" transform="scale(0.015625)"/>
       <path d="M 544 1381 
L 544 3500 
L 1119 3500 
L 1119 1403 
Q 1119 906 1312 657 
Q 1506 409 1894 409 
Q 2359 409 2629 706 
Q 2900 1003 2900 1516 
L 2900 3500 
L 3475 3500 
L 3475 0 
L 2900 0 
L 2900 538 
Q 2691 219 2414 64 
Q 2138 -91 1772 -91 
Q 1169 -91 856 284 
Q 544 659 544 1381 
z
M 1991 3584 
L 1991 3584 
z
" id="DejaVuSans-75" transform="scale(0.015625)"/>
       <path d="M 2631 2963 
Q 2534 3019 2420 3045 
Q 2306 3072 2169 3072 
Q 1681 3072 1420 2755 
Q 1159 2438 1159 1844 
L 1159 0 
L 581 0 
L 581 3500 
L 1159 3500 
L 1159 2956 
Q 1341 3275 1631 3429 
Q 1922 3584 2338 3584 
Q 2397 3584 2469 3576 
Q 2541 3569 2628 3553 
L 2631 2963 
z
" id="DejaVuSans-72" transform="scale(0.015625)"/>
       <path d="M 3513 2113 
L 3513 0 
L 2938 0 
L 2938 2094 
Q 2938 2591 2744 2837 
Q 2550 3084 2163 3084 
Q 1697 3084 1428 2787 
Q 1159 2491 1159 1978 
L 1159 0 
L 581 0 
L 581 3500 
L 1159 3500 
L 1159 2956 
Q 1366 3272 1645 3428 
Q 1925 3584 2291 3584 
Q 2894 3584 3203 3211 
Q 3513 2838 3513 2113 
z
" id="DejaVuSans-6e" transform="scale(0.015625)"/>
       <path d="M 1172 4494 
L 1172 3500 
L 2356 3500 
L 2356 3053 
L 1172 3053 
L 1172 1153 
Q 1172 725 1289 603 
Q 1406 481 1766 481 
L 2356 481 
L 2356 0 
L 1766 0 
Q 1100 0 847 248 
Q 594 497 594 1153 
L 594 3053 
L 172 3053 
L 172 3500 
L 594 3500 
L 594 4494 
L 1172 4494 
z
" id="DejaVuSans-74" transform="scale(0.015625)"/>
       <path d="M 513 4856 
L 1013 4856 
Q 1481 4119 1714 3412 
Q 1947 2706 1947 2009 
Q 1947 1309 1714 600 
Q 1481 -109 1013 -844 
L 513 -844 
Q 928 -128 1133 580 
Q 1338 1288 1338 2009 
Q 1338 2731 1133 3434 
Q 928 4138 513 4856 
z
" id="DejaVuSans-29" transform="scale(0.015625)"/>
      </defs>
      <use xlink:href="#DejaVuSans-54"/>
      <use x="57.958984" xlink:href="#DejaVuSans-69"/>
      <use x="85.742188" xlink:href="#DejaVuSans-6d"/>
      <use x="183.154297" xlink:href="#DejaVuSans-65"/>
      <use x="244.677734" xlink:href="#DejaVuSans-20"/>
      <use x="276.464844" xlink:href="#DejaVuSans-28"/>
      <use x="315.478516" xlink:href="#DejaVuSans-68"/>
      <use x="378.857422" xlink:href="#DejaVuSans-6f"/>
      <use x="440.039062" xlink:href="#DejaVuSans-75"/>
      <use x="503.417969" xlink:href="#DejaVuSans-72"/>
      <use x="542.78125" xlink:href="#DejaVuSans-3a"/>
      <use x="576.472656" xlink:href="#DejaVuSans-6d"/>
      <use x="673.884766" xlink:href="#DejaVuSans-69"/>
      <use x="701.667969" xlink:href="#DejaVuSans-6e"/>
      <use x="765.046875" xlink:href="#DejaVuSans-75"/>
      <use x="828.425781" xlink:href="#DejaVuSans-74"/>
      <use x="867.634766" xlink:href="#DejaVuSans-65"/>
      <use x="929.158203" xlink:href="#DejaVuSans-29"/>
     </g>
    </g>
   </g>
   <g id="matplotlib.axis_2">
    <g id="ytick_1">
     <g id="line2d_7">
      <defs>
       <path d="M 0 0 
L -3.5 0 
" id="m8ae672c6e8" style="stroke:#000000;stroke-width:0.8;"/>
      </defs>
      <g>
       <use style="stroke:#000000;stroke-width:0.8;" x="59.690625" xlink:href="#m8ae672c6e8" y="249.838125"/>
      </g>
     </g>
     <g id="text_8">
      <!-- 17000 -->
      <g transform="translate(20.878125 253.637344)scale(0.1 -0.1)">
       <defs>
        <path d="M 2034 4250 
Q 1547 4250 1301 3770 
Q 1056 3291 1056 2328 
Q 1056 1369 1301 889 
Q 1547 409 2034 409 
Q 2525 409 2770 889 
Q 3016 1369 3016 2328 
Q 3016 3291 2770 3770 
Q 2525 4250 2034 4250 
z
M 2034 4750 
Q 2819 4750 3233 4129 
Q 3647 3509 3647 2328 
Q 3647 1150 3233 529 
Q 2819 -91 2034 -91 
Q 1250 -91 836 529 
Q 422 1150 422 2328 
Q 422 3509 836 4129 
Q 1250 4750 2034 4750 
z
" id="DejaVuSans-30" transform="scale(0.015625)"/>
       </defs>
       <use xlink:href="#DejaVuSans-31"/>
       <use x="63.623047" xlink:href="#DejaVuSans-37"/>
       <use x="127.246094" xlink:href="#DejaVuSans-30"/>
       <use x="190.869141" xlink:href="#DejaVuSans-30"/>
       <use x="254.492188" xlink:href="#DejaVuSans-30"/>
      </g>
     </g>
    </g>
    <g id="ytick_2">
     <g id="line2d_8">
      <g>
       <use style="stroke:#000000;stroke-width:0.8;" x="59.690625" xlink:href="#m8ae672c6e8" y="205.530433"/>
      </g>
     </g>
     <g id="text_9">
      <!-- 17500 -->
      <g transform="translate(20.878125 209.329651)scale(0.1 -0.1)">
       <use xlink:href="#DejaVuSans-31"/>
       <use x="63.623047" xlink:href="#DejaVuSans-37"/>
       <use x="127.246094" xlink:href="#DejaVuSans-35"/>
       <use x="190.869141" xlink:href="#DejaVuSans-30"/>
       <use x="254.492188" xlink:href="#DejaVuSans-30"/>
      </g>
     </g>
    </g>
    <g id="ytick_3">
     <g id="line2d_9">
      <g>
       <use style="stroke:#000000;stroke-width:0.8;" x="59.690625" xlink:href="#m8ae672c6e8" y="161.22274"/>
      </g>
     </g>
     <g id="text_10">
      <!-- 18000 -->
      <g transform="translate(20.878125 165.021959)scale(0.1 -0.1)">
       <defs>
        <path d="M 2034 2216 
Q 1584 2216 1326 1975 
Q 1069 1734 1069 1313 
Q 1069 891 1326 650 
Q 1584 409 2034 409 
Q 2484 409 2743 651 
Q 3003 894 3003 1313 
Q 3003 1734 2745 1975 
Q 2488 2216 2034 2216 
z
M 1403 2484 
Q 997 2584 770 2862 
Q 544 3141 544 3541 
Q 544 4100 942 4425 
Q 1341 4750 2034 4750 
Q 2731 4750 3128 4425 
Q 3525 4100 3525 3541 
Q 3525 3141 3298 2862 
Q 3072 2584 2669 2484 
Q 3125 2378 3379 2068 
Q 3634 1759 3634 1313 
Q 3634 634 3220 271 
Q 2806 -91 2034 -91 
Q 1263 -91 848 271 
Q 434 634 434 1313 
Q 434 1759 690 2068 
Q 947 2378 1403 2484 
z
M 1172 3481 
Q 1172 3119 1398 2916 
Q 1625 2713 2034 2713 
Q 2441 2713 2670 2916 
Q 2900 3119 2900 3481 
Q 2900 3844 2670 4047 
Q 2441 4250 2034 4250 
Q 1625 4250 1398 4047 
Q 1172 3844 1172 3481 
z
" id="DejaVuSans-38" transform="scale(0.015625)"/>
       </defs>
       <use xlink:href="#DejaVuSans-31"/>
       <use x="63.623047" xlink:href="#DejaVuSans-38"/>
       <use x="127.246094" xlink:href="#DejaVuSans-30"/>
       <use x="190.869141" xlink:href="#DejaVuSans-30"/>
       <use x="254.492188" xlink:href="#DejaVuSans-30"/>
      </g>
     </g>
    </g>
    <g id="ytick_4">
     <g id="line2d_10">
      <g>
       <use style="stroke:#000000;stroke-width:0.8;" x="59.690625" xlink:href="#m8ae672c6e8" y="116.915048"/>
      </g>
     </g>
     <g id="text_11">
      <!-- 18500 -->
      <g transform="translate(20.878125 120.714267)scale(0.1 -0.1)">
       <use xlink:href="#DejaVuSans-31"/>
       <use x="63.623047" xlink:href="#DejaVuSans-38"/>
       <use x="127.246094" xlink:href="#DejaVuSans-35"/>
       <use x="190.869141" xlink:href="#DejaVuSans-30"/>
       <use x="254.492188" xlink:href="#DejaVuSans-30"/>
      </g>
     </g>
    </g>
    <g id="ytick_5">
     <g id="line2d_11">
      <g>
       <use style="stroke:#000000;stroke-width:0.8;" x="59.690625" xlink:href="#m8ae672c6e8" y="72.607356"/>
      </g>
     </g>
     <g id="text_12">
      <!-- 19000 -->
      <g transform="translate(20.878125 76.406575)scale(0.1 -0.1)">
       <use xlink:href="#DejaVuSans-31"/>
       <use x="63.623047" xlink:href="#DejaVuSans-39"/>
       <use x="127.246094" xlink:href="#DejaVuSans-30"/>
       <use x="190.869141" xlink:href="#DejaVuSans-30"/>
       <use x="254.492188" xlink:href="#DejaVuSans-30"/>
      </g>
     </g>
    </g>
    <g id="ytick_6">
     <g id="line2d_12">
      <g>
       <use style="stroke:#000000;stroke-width:0.8;" x="59.690625" xlink:href="#m8ae672c6e8" y="28.299663"/>
      </g>
     </g>
     <g id="text_13">
      <!-- 19500 -->
      <g transform="translate(20.878125 32.098882)scale(0.1 -0.1)">
       <use xlink:href="#DejaVuSans-31"/>
       <use x="63.623047" xlink:href="#DejaVuSans-39"/>
       <use x="127.246094" xlink:href="#DejaVuSans-35"/>
       <use x="190.869141" xlink:href="#DejaVuSans-30"/>
       <use x="254.492188" xlink:href="#DejaVuSans-30"/>
      </g>
     </g>
    </g>
    <g id="text_14">
     <!-- Code region coverage -->
     <g transform="translate(14.798438 210.379594)rotate(-90)scale(0.1 -0.1)">
      <defs>
       <path d="M 4122 4306 
L 4122 3641 
Q 3803 3938 3442 4084 
Q 3081 4231 2675 4231 
Q 1875 4231 1450 3742 
Q 1025 3253 1025 2328 
Q 1025 1406 1450 917 
Q 1875 428 2675 428 
Q 3081 428 3442 575 
Q 3803 722 4122 1019 
L 4122 359 
Q 3791 134 3420 21 
Q 3050 -91 2638 -91 
Q 1578 -91 968 557 
Q 359 1206 359 2328 
Q 359 3453 968 4101 
Q 1578 4750 2638 4750 
Q 3056 4750 3426 4639 
Q 3797 4528 4122 4306 
z
" id="DejaVuSans-43" transform="scale(0.015625)"/>
       <path d="M 2906 2969 
L 2906 4863 
L 3481 4863 
L 3481 0 
L 2906 0 
L 2906 525 
Q 2725 213 2448 61 
Q 2172 -91 1784 -91 
Q 1150 -91 751 415 
Q 353 922 353 1747 
Q 353 2572 751 3078 
Q 1150 3584 1784 3584 
Q 2172 3584 2448 3432 
Q 2725 3281 2906 2969 
z
M 947 1747 
Q 947 1113 1208 752 
Q 1469 391 1925 391 
Q 2381 391 2643 752 
Q 2906 1113 2906 1747 
Q 2906 2381 2643 2742 
Q 2381 3103 1925 3103 
Q 1469 3103 1208 2742 
Q 947 2381 947 1747 
z
" id="DejaVuSans-64" transform="scale(0.015625)"/>
       <path d="M 2906 1791 
Q 2906 2416 2648 2759 
Q 2391 3103 1925 3103 
Q 1463 3103 1205 2759 
Q 947 2416 947 1791 
Q 947 1169 1205 825 
Q 1463 481 1925 481 
Q 2391 481 2648 825 
Q 2906 1169 2906 1791 
z
M 3481 434 
Q 3481 -459 3084 -895 
Q 2688 -1331 1869 -1331 
Q 1566 -1331 1297 -1286 
Q 1028 -1241 775 -1147 
L 775 -588 
Q 1028 -725 1275 -790 
Q 1522 -856 1778 -856 
Q 2344 -856 2625 -561 
Q 2906 -266 2906 331 
L 2906 616 
Q 2728 306 2450 153 
Q 2172 0 1784 0 
Q 1141 0 747 490 
Q 353 981 353 1791 
Q 353 2603 747 3093 
Q 1141 3584 1784 3584 
Q 2172 3584 2450 3431 
Q 2728 3278 2906 2969 
L 2906 3500 
L 3481 3500 
L 3481 434 
z
" id="DejaVuSans-67" transform="scale(0.015625)"/>
       <path d="M 3122 3366 
L 3122 2828 
Q 2878 2963 2633 3030 
Q 2388 3097 2138 3097 
Q 1578 3097 1268 2742 
Q 959 2388 959 1747 
Q 959 1106 1268 751 
Q 1578 397 2138 397 
Q 2388 397 2633 464 
Q 2878 531 3122 666 
L 3122 134 
Q 2881 22 2623 -34 
Q 2366 -91 2075 -91 
Q 1284 -91 818 406 
Q 353 903 353 1747 
Q 353 2603 823 3093 
Q 1294 3584 2113 3584 
Q 2378 3584 2631 3529 
Q 2884 3475 3122 3366 
z
" id="DejaVuSans-63" transform="scale(0.015625)"/>
       <path d="M 191 3500 
L 800 3500 
L 1894 563 
L 2988 3500 
L 3597 3500 
L 2284 0 
L 1503 0 
L 191 3500 
z
" id="DejaVuSans-76" transform="scale(0.015625)"/>
       <path d="M 2194 1759 
Q 1497 1759 1228 1600 
Q 959 1441 959 1056 
Q 959 750 1161 570 
Q 1363 391 1709 391 
Q 2188 391 2477 730 
Q 2766 1069 2766 1631 
L 2766 1759 
L 2194 1759 
z
M 3341 1997 
L 3341 0 
L 2766 0 
L 2766 531 
Q 2569 213 2275 61 
Q 1981 -91 1556 -91 
Q 1019 -91 701 211 
Q 384 513 384 1019 
Q 384 1609 779 1909 
Q 1175 2209 1959 2209 
L 2766 2209 
L 2766 2266 
Q 2766 2663 2505 2880 
Q 2244 3097 1772 3097 
Q 1472 3097 1187 3025 
Q 903 2953 641 2809 
L 641 3341 
Q 956 3463 1253 3523 
Q 1550 3584 1831 3584 
Q 2591 3584 2966 3190 
Q 3341 2797 3341 1997 
z
" id="DejaVuSans-61" transform="scale(0.015625)"/>
      </defs>
      <use xlink:href="#DejaVuSans-43"/>
      <use x="69.824219" xlink:href="#DejaVuSans-6f"/>
      <use x="131.005859" xlink:href="#DejaVuSans-64"/>
      <use x="194.482422" xlink:href="#DejaVuSans-65"/>
      <use x="256.005859" xlink:href="#DejaVuSans-20"/>
      <use x="287.792969" xlink:href="#DejaVuSans-72"/>
      <use x="326.65625" xlink:href="#DejaVuSans-65"/>
      <use x="388.179688" xlink:href="#DejaVuSans-67"/>
      <use x="451.65625" xlink:href="#DejaVuSans-69"/>
      <use x="479.439453" xlink:href="#DejaVuSans-6f"/>
      <use x="540.621094" xlink:href="#DejaVuSans-6e"/>
      <use x="604" xlink:href="#DejaVuSans-20"/>
      <use x="635.787109" xlink:href="#DejaVuSans-63"/>
      <use x="690.767578" xlink:href="#DejaVuSans-6f"/>
      <use x="751.949219" xlink:href="#DejaVuSans-76"/>
      <use x="811.128906" xlink:href="#DejaVuSans-65"/>
      <use x="872.652344" xlink:href="#DejaVuSans-72"/>
      <use x="913.765625" xlink:href="#DejaVuSans-61"/>
      <use x="975.044922" xlink:href="#DejaVuSans-67"/>
      <use x="1038.521484" xlink:href="#DejaVuSans-65"/>
     </g>
    </g>
   </g>
   <g id="line2d_13">
    <path clip-path="url(#p0181c92444)" d="M 75.923352 261.491048 
L 79.490985 235.571048 
L 83.058617 218.113817 
L 86.626249 206.460894 
L 90.193882 199.859048 
L 93.761514 195.118125 
L 97.329146 190.554433 
L 100.896779 181.95874 
L 104.464411 169.28674 
L 108.032044 168.400587 
L 111.599676 160.07074 
L 115.167308 152.095356 
L 118.734941 143.499663 
L 122.302573 137.207971 
L 125.870205 132.42274 
L 129.437838 127.726125 
L 133.00547 127.371663 
L 136.573103 123.295356 
L 140.140735 121.966125 
L 143.708367 117.978433 
L 147.276 112.129817 
L 150.843632 107.964894 
L 154.411264 105.660894 
L 157.978897 99.280587 
L 161.546529 97.242433 
L 165.114161 94.495356 
L 168.681794 90.241817 
L 172.249426 87.671971 
L 175.817059 85.19074 
L 179.384691 80.937202 
L 182.952323 79.696587 
L 186.519956 76.506433 
L 190.087588 74.556894 
L 193.65522 72.607356 
L 197.222853 71.36674 
L 200.790485 70.480587 
L 204.358118 69.151356 
L 207.92575 67.73351 
L 211.493382 64.631971 
L 215.061015 63.30274 
L 218.628647 61.884894 
L 222.196279 61.087356 
L 225.763912 60.023971 
L 229.331544 59.580894 
L 232.899176 58.251663 
L 236.466809 57.276894 
L 240.034441 56.036279 
L 243.602074 53.643663 
L 247.169706 52.048587 
L 250.737338 51.428279 
L 254.304971 50.542125 
L 257.872603 49.833202 
L 261.440235 48.681202 
L 265.007868 46.908894 
L 268.5755 45.668279 
L 272.143132 45.402433 
L 275.710765 45.047971 
L 279.278397 44.427663 
L 282.84603 43.895971 
L 286.413662 43.71874 
L 289.981294 43.71874 
L 293.548927 43.452894 
L 297.116559 43.009817 
L 300.684191 42.56674 
L 304.251824 41.680587 
L 307.819456 41.060279 
L 311.387089 41.060279 
L 314.954721 40.883048 
L 318.522353 40.883048 
L 322.089986 40.883048 
L 325.657618 40.794433 
L 329.22525 40.794433 
L 332.792883 40.794433 
L 336.360515 40.528587 
L 339.928147 40.439971 
L 343.49578 40.439971 
L 347.063412 40.439971 
L 350.631045 40.26274 
L 354.198677 40.26274 
L 357.766309 40.26274 
L 361.333942 40.26274 
L 364.901574 40.08551 
L 368.469206 39.996894 
L 372.036839 39.819663 
L 375.604471 39.465202 
L 379.172104 39.465202 
L 382.739736 39.287971 
L 386.307368 39.022125 
L 389.875001 38.224587 
L 393.442633 37.78151 
L 397.010265 37.78151 
L 400.577898 37.78151 
" style="fill:none;stroke:#1f77b4;stroke-linecap:square;stroke-width:1.5;"/>
    <defs>
     <path d="M 0 3 
C 0.795609 3 1.55874 2.683901 2.12132 2.12132 
C 2.683901 1.55874 3 0.795609 3 0 
C 3 -0.795609 2.683901 -1.55874 2.12132 -2.12132 
C 1.55874 -2.683901 0.795609 -3 0 -3 
C -0.795609 -3 -1.55874 -2.683901 -2.12132 -2.12132 
C -2.683901 -1.55874 -3 -0.795609 -3 0 
C -3 0.795609 -2.683901 1.55874 -2.12132 2.12132 
C -1.55874 2.683901 -0.795609 3 0 3 
z
" id="mabc29cbf00" style="stroke:#ffffff;stroke-width:0.75;"/>
    </defs>
    <g clip-path="url(#p0181c92444)">
     <use style="fill:#1f77b4;stroke:#ffffff;stroke-width:0.75;" x="75.923352" xlink:href="#mabc29cbf00" y="261.491048"/>
     <use style="fill:#1f77b4;stroke:#ffffff;stroke-width:0.75;" x="79.490985" xlink:href="#mabc29cbf00" y="235.571048"/>
     <use style="fill:#1f77b4;stroke:#ffffff;stroke-width:0.75;" x="83.058617" xlink:href="#mabc29cbf00" y="218.113817"/>
     <use style="fill:#1f77b4;stroke:#ffffff;stroke-width:0.75;" x="86.626249" xlink:href="#mabc29cbf00" y="206.460894"/>
     <use style="fill:#1f77b4;stroke:#ffffff;stroke-width:0.75;" x="90.193882" xlink:href="#mabc29cbf00" y="199.859048"/>
     <use style="fill:#1f77b4;stroke:#ffffff;stroke-width:0.75;" x="93.761514" xlink:href="#mabc29cbf00" y="195.118125"/>
     <use style="fill:#1f77b4;stroke:#ffffff;stroke-width:0.75;" x="97.329146" xlink:href="#mabc29cbf00" y="190.554433"/>
     <use style="fill:#1f77b4;stroke:#ffffff;stroke-width:0.75;" x="100.896779" xlink:href="#mabc29cbf00" y="181.95874"/>
     <use style="fill:#1f77b4;stroke:#ffffff;stroke-width:0.75;" x="104.464411" xlink:href="#mabc29cbf00" y="169.28674"/>
     <use style="fill:#1f77b4;stroke:#ffffff;stroke-width:0.75;" x="108.032044" xlink:href="#mabc29cbf00" y="168.400587"/>
     <use style="fill:#1f77b4;stroke:#ffffff;stroke-width:0.75;" x="111.599676" xlink:href="#mabc29cbf00" y="160.07074"/>
     <use style="fill:#1f77b4;stroke:#ffffff;stroke-width:0.75;" x="115.167308" xlink:href="#mabc29cbf00" y="152.095356"/>
     <use style="fill:#1f77b4;stroke:#ffffff;stroke-width:0.75;" x="118.734941" xlink:href="#mabc29cbf00" y="143.499663"/>
     <use style="fill:#1f77b4;stroke:#ffffff;stroke-width:0.75;" x="122.302573" xlink:href="#mabc29cbf00" y="137.207971"/>
     <use style="fill:#1f77b4;stroke:#ffffff;stroke-width:0.75;" x="125.870205" xlink:href="#mabc29cbf00" y="132.42274"/>
     <use style="fill:#1f77b4;stroke:#ffffff;stroke-width:0.75;" x="129.437838" xlink:href="#mabc29cbf00" y="127.726125"/>
     <use style="fill:#1f77b4;stroke:#ffffff;stroke-width:0.75;" x="133.00547" xlink:href="#mabc29cbf00" y="127.371663"/>
     <use style="fill:#1f77b4;stroke:#ffffff;stroke-width:0.75;" x="136.573103" xlink:href="#mabc29cbf00" y="123.295356"/>
     <use style="fill:#1f77b4;stroke:#ffffff;stroke-width:0.75;" x="140.140735" xlink:href="#mabc29cbf00" y="121.966125"/>
     <use style="fill:#1f77b4;stroke:#ffffff;stroke-width:0.75;" x="143.708367" xlink:href="#mabc29cbf00" y="117.978433"/>
     <use style="fill:#1f77b4;stroke:#ffffff;stroke-width:0.75;" x="147.276" xlink:href="#mabc29cbf00" y="112.129817"/>
     <use style="fill:#1f77b4;stroke:#ffffff;stroke-width:0.75;" x="150.843632" xlink:href="#mabc29cbf00" y="107.964894"/>
     <use style="fill:#1f77b4;stroke:#ffffff;stroke-width:0.75;" x="154.411264" xlink:href="#mabc29cbf00" y="105.660894"/>
     <use style="fill:#1f77b4;stroke:#ffffff;stroke-width:0.75;" x="157.978897" xlink:href="#mabc29cbf00" y="99.280587"/>
     <use style="fill:#1f77b4;stroke:#ffffff;stroke-width:0.75;" x="161.546529" xlink:href="#mabc29cbf00" y="97.242433"/>
     <use style="fill:#1f77b4;stroke:#ffffff;stroke-width:0.75;" x="165.114161" xlink:href="#mabc29cbf00" y="94.495356"/>
     <use style="fill:#1f77b4;stroke:#ffffff;stroke-width:0.75;" x="168.681794" xlink:href="#mabc29cbf00" y="90.241817"/>
     <use style="fill:#1f77b4;stroke:#ffffff;stroke-width:0.75;" x="172.249426" xlink:href="#mabc29cbf00" y="87.671971"/>
     <use style="fill:#1f77b4;stroke:#ffffff;stroke-width:0.75;" x="175.817059" xlink:href="#mabc29cbf00" y="85.19074"/>
     <use style="fill:#1f77b4;stroke:#ffffff;stroke-width:0.75;" x="179.384691" xlink:href="#mabc29cbf00" y="80.937202"/>
     <use style="fill:#1f77b4;stroke:#ffffff;stroke-width:0.75;" x="182.952323" xlink:href="#mabc29cbf00" y="79.696587"/>
     <use style="fill:#1f77b4;stroke:#ffffff;stroke-width:0.75;" x="186.519956" xlink:href="#mabc29cbf00" y="76.506433"/>
     <use style="fill:#1f77b4;stroke:#ffffff;stroke-width:0.75;" x="190.087588" xlink:href="#mabc29cbf00" y="74.556894"/>
     <use style="fill:#1f77b4;stroke:#ffffff;stroke-width:0.75;" x="193.65522" xlink:href="#mabc29cbf00" y="72.607356"/>
     <use style="fill:#1f77b4;stroke:#ffffff;stroke-width:0.75;" x="197.222853" xlink:href="#mabc29cbf00" y="71.36674"/>
     <use style="fill:#1f77b4;stroke:#ffffff;stroke-width:0.75;" x="200.790485" xlink:href="#mabc29cbf00" y="70.480587"/>
     <use style="fill:#1f77b4;stroke:#ffffff;stroke-width:0.75;" x="204.358118" xlink:href="#mabc29cbf00" y="69.151356"/>
     <use style="fill:#1f77b4;stroke:#ffffff;stroke-width:0.75;" x="207.92575" xlink:href="#mabc29cbf00" y="67.73351"/>
     <use style="fill:#1f77b4;stroke:#ffffff;stroke-width:0.75;" x="211.493382" xlink:href="#mabc29cbf00" y="64.631971"/>
     <use style="fill:#1f77b4;stroke:#ffffff;stroke-width:0.75;" x="215.061015" xlink:href="#mabc29cbf00" y="63.30274"/>
     <use style="fill:#1f77b4;stroke:#ffffff;stroke-width:0.75;" x="218.628647" xlink:href="#mabc29cbf00" y="61.884894"/>
     <use style="fill:#1f77b4;stroke:#ffffff;stroke-width:0.75;" x="222.196279" xlink:href="#mabc29cbf00" y="61.087356"/>
     <use style="fill:#1f77b4;stroke:#ffffff;stroke-width:0.75;" x="225.763912" xlink:href="#mabc29cbf00" y="60.023971"/>
     <use style="fill:#1f77b4;stroke:#ffffff;stroke-width:0.75;" x="229.331544" xlink:href="#mabc29cbf00" y="59.580894"/>
     <use style="fill:#1f77b4;stroke:#ffffff;stroke-width:0.75;" x="232.899176" xlink:href="#mabc29cbf00" y="58.251663"/>
     <use style="fill:#1f77b4;stroke:#ffffff;stroke-width:0.75;" x="236.466809" xlink:href="#mabc29cbf00" y="57.276894"/>
     <use style="fill:#1f77b4;stroke:#ffffff;stroke-width:0.75;" x="240.034441" xlink:href="#mabc29cbf00" y="56.036279"/>
     <use style="fill:#1f77b4;stroke:#ffffff;stroke-width:0.75;" x="243.602074" xlink:href="#mabc29cbf00" y="53.643663"/>
     <use style="fill:#1f77b4;stroke:#ffffff;stroke-width:0.75;" x="247.169706" xlink:href="#mabc29cbf00" y="52.048587"/>
     <use style="fill:#1f77b4;stroke:#ffffff;stroke-width:0.75;" x="250.737338" xlink:href="#mabc29cbf00" y="51.428279"/>
     <use style="fill:#1f77b4;stroke:#ffffff;stroke-width:0.75;" x="254.304971" xlink:href="#mabc29cbf00" y="50.542125"/>
     <use style="fill:#1f77b4;stroke:#ffffff;stroke-width:0.75;" x="257.872603" xlink:href="#mabc29cbf00" y="49.833202"/>
     <use style="fill:#1f77b4;stroke:#ffffff;stroke-width:0.75;" x="261.440235" xlink:href="#mabc29cbf00" y="48.681202"/>
     <use style="fill:#1f77b4;stroke:#ffffff;stroke-width:0.75;" x="265.007868" xlink:href="#mabc29cbf00" y="46.908894"/>
     <use style="fill:#1f77b4;stroke:#ffffff;stroke-width:0.75;" x="268.5755" xlink:href="#mabc29cbf00" y="45.668279"/>
     <use style="fill:#1f77b4;stroke:#ffffff;stroke-width:0.75;" x="272.143132" xlink:href="#mabc29cbf00" y="45.402433"/>
     <use style="fill:#1f77b4;stroke:#ffffff;stroke-width:0.75;" x="275.710765" xlink:href="#mabc29cbf00" y="45.047971"/>
     <use style="fill:#1f77b4;stroke:#ffffff;stroke-width:0.75;" x="279.278397" xlink:href="#mabc29cbf00" y="44.427663"/>
     <use style="fill:#1f77b4;stroke:#ffffff;stroke-width:0.75;" x="282.84603" xlink:href="#mabc29cbf00" y="43.895971"/>
     <use style="fill:#1f77b4;stroke:#ffffff;stroke-width:0.75;" x="286.413662" xlink:href="#mabc29cbf00" y="43.71874"/>
     <use style="fill:#1f77b4;stroke:#ffffff;stroke-width:0.75;" x="289.981294" xlink:href="#mabc29cbf00" y="43.71874"/>
     <use style="fill:#1f77b4;stroke:#ffffff;stroke-width:0.75;" x="293.548927" xlink:href="#mabc29cbf00" y="43.452894"/>
     <use style="fill:#1f77b4;stroke:#ffffff;stroke-width:0.75;" x="297.116559" xlink:href="#mabc29cbf00" y="43.009817"/>
     <use style="fill:#1f77b4;stroke:#ffffff;stroke-width:0.75;" x="300.684191" xlink:href="#mabc29cbf00" y="42.56674"/>
     <use style="fill:#1f77b4;stroke:#ffffff;stroke-width:0.75;" x="304.251824" xlink:href="#mabc29cbf00" y="41.680587"/>
     <use style="fill:#1f77b4;stroke:#ffffff;stroke-width:0.75;" x="307.819456" xlink:href="#mabc29cbf00" y="41.060279"/>
     <use style="fill:#1f77b4;stroke:#ffffff;stroke-width:0.75;" x="311.387089" xlink:href="#mabc29cbf00" y="41.060279"/>
     <use style="fill:#1f77b4;stroke:#ffffff;stroke-width:0.75;" x="314.954721" xlink:href="#mabc29cbf00" y="40.883048"/>
     <use style="fill:#1f77b4;stroke:#ffffff;stroke-width:0.75;" x="318.522353" xlink:href="#mabc29cbf00" y="40.883048"/>
     <use style="fill:#1f77b4;stroke:#ffffff;stroke-width:0.75;" x="322.089986" xlink:href="#mabc29cbf00" y="40.883048"/>
     <use style="fill:#1f77b4;stroke:#ffffff;stroke-width:0.75;" x="325.657618" xlink:href="#mabc29cbf00" y="40.794433"/>
     <use style="fill:#1f77b4;stroke:#ffffff;stroke-width:0.75;" x="329.22525" xlink:href="#mabc29cbf00" y="40.794433"/>
     <use style="fill:#1f77b4;stroke:#ffffff;stroke-width:0.75;" x="332.792883" xlink:href="#mabc29cbf00" y="40.794433"/>
     <use style="fill:#1f77b4;stroke:#ffffff;stroke-width:0.75;" x="336.360515" xlink:href="#mabc29cbf00" y="40.528587"/>
     <use style="fill:#1f77b4;stroke:#ffffff;stroke-width:0.75;" x="339.928147" xlink:href="#mabc29cbf00" y="40.439971"/>
     <use style="fill:#1f77b4;stroke:#ffffff;stroke-width:0.75;" x="343.49578" xlink:href="#mabc29cbf00" y="40.439971"/>
     <use style="fill:#1f77b4;stroke:#ffffff;stroke-width:0.75;" x="347.063412" xlink:href="#mabc29cbf00" y="40.439971"/>
     <use style="fill:#1f77b4;stroke:#ffffff;stroke-width:0.75;" x="350.631045" xlink:href="#mabc29cbf00" y="40.26274"/>
     <use style="fill:#1f77b4;stroke:#ffffff;stroke-width:0.75;" x="354.198677" xlink:href="#mabc29cbf00" y="40.26274"/>
     <use style="fill:#1f77b4;stroke:#ffffff;stroke-width:0.75;" x="357.766309" xlink:href="#mabc29cbf00" y="40.26274"/>
     <use style="fill:#1f77b4;stroke:#ffffff;stroke-width:0.75;" x="361.333942" xlink:href="#mabc29cbf00" y="40.26274"/>
     <use style="fill:#1f77b4;stroke:#ffffff;stroke-width:0.75;" x="364.901574" xlink:href="#mabc29cbf00" y="40.08551"/>
     <use style="fill:#1f77b4;stroke:#ffffff;stroke-width:0.75;" x="368.469206" xlink:href="#mabc29cbf00" y="39.996894"/>
     <use style="fill:#1f77b4;stroke:#ffffff;stroke-width:0.75;" x="372.036839" xlink:href="#mabc29cbf00" y="39.819663"/>
     <use style="fill:#1f77b4;stroke:#ffffff;stroke-width:0.75;" x="375.604471" xlink:href="#mabc29cbf00" y="39.465202"/>
     <use style="fill:#1f77b4;stroke:#ffffff;stroke-width:0.75;" x="379.172104" xlink:href="#mabc29cbf00" y="39.465202"/>
     <use style="fill:#1f77b4;stroke:#ffffff;stroke-width:0.75;" x="382.739736" xlink:href="#mabc29cbf00" y="39.287971"/>
     <use style="fill:#1f77b4;stroke:#ffffff;stroke-width:0.75;" x="386.307368" xlink:href="#mabc29cbf00" y="39.022125"/>
     <use style="fill:#1f77b4;stroke:#ffffff;stroke-width:0.75;" x="389.875001" xlink:href="#mabc29cbf00" y="38.224587"/>
     <use style="fill:#1f77b4;stroke:#ffffff;stroke-width:0.75;" x="393.442633" xlink:href="#mabc29cbf00" y="37.78151"/>
     <use style="fill:#1f77b4;stroke:#ffffff;stroke-width:0.75;" x="397.010265" xlink:href="#mabc29cbf00" y="37.78151"/>
     <use style="fill:#1f77b4;stroke:#ffffff;stroke-width:0.75;" x="400.577898" xlink:href="#mabc29cbf00" y="37.78151"/>
    </g>
   </g>
   <g id="line2d_14">
    <path clip-path="url(#p0181c92444)" d="M 75.923352 266.276279 
L 79.490985 239.55874 
L 83.058617 226.842433 
L 86.626249 210.891663 
L 90.193882 198.352587 
L 93.761514 191.396279 
L 97.329146 184.883048 
L 100.896779 178.059663 
L 104.464411 172.609817 
L 108.032044 166.583971 
L 111.599676 157.456587 
L 115.167308 147.575971 
L 118.734941 140.974125 
L 122.302573 137.340894 
L 125.870205 132.511356 
L 129.437838 128.612279 
L 133.00547 124.668894 
L 136.573103 119.396279 
L 140.140735 115.187048 
L 143.708367 113.23751 
L 147.276 109.78151 
L 150.843632 108.275048 
L 154.411264 106.059663 
L 157.978897 103.268279 
L 161.546529 96.267663 
L 165.114161 94.98274 
L 168.681794 92.944587 
L 172.249426 90.906433 
L 175.817059 90.108894 
L 179.384691 86.963048 
L 182.952323 84.43751 
L 186.519956 81.025817 
L 190.087588 79.120587 
L 193.65522 76.506433 
L 197.222853 75.708894 
L 200.790485 74.556894 
L 204.358118 71.94274 
L 207.92575 69.993202 
L 211.493382 69.06274 
L 215.061015 67.290433 
L 218.628647 66.227048 
L 222.196279 64.27751 
L 225.763912 63.391356 
L 229.331544 62.239356 
L 232.899176 60.954433 
L 236.466809 57.232587 
L 240.034441 55.593202 
L 243.602074 55.105817 
L 247.169706 54.795663 
L 250.737338 53.776587 
L 254.304971 52.004279 
L 257.872603 51.295356 
L 261.440235 50.586433 
L 265.007868 49.921817 
L 268.5755 48.947048 
L 272.143132 48.769817 
L 275.710765 47.75074 
L 279.278397 47.307663 
L 282.84603 46.59874 
L 286.413662 45.934125 
L 289.981294 45.668279 
L 293.548927 45.047971 
L 297.116559 44.87074 
L 300.684191 44.69351 
L 304.251824 44.516279 
L 307.819456 44.073202 
L 311.387089 43.984587 
L 314.954721 43.630125 
L 318.522353 43.54151 
L 322.089986 43.452894 
L 325.657618 43.364279 
L 329.22525 43.364279 
L 332.792883 43.364279 
L 336.360515 43.098433 
L 339.928147 42.478125 
L 343.49578 42.478125 
L 347.063412 42.38951 
L 350.631045 42.38951 
L 354.198677 41.857817 
L 357.766309 41.857817 
L 361.333942 41.680587 
L 364.901574 41.680587 
L 368.469206 41.148894 
L 372.036839 41.148894 
L 375.604471 40.883048 
L 379.172104 40.617202 
L 382.739736 40.439971 
L 386.307368 39.819663 
L 389.875001 39.642433 
L 393.442633 39.553817 
L 397.010265 39.199356 
L 400.577898 39.022125 
" style="fill:none;stroke:#98df8a;stroke-linecap:square;stroke-width:1.5;"/>
    <defs>
     <path d="M -0 3 
L 3 -3 
L -3 -3 
z
" id="maa39a8fe37" style="stroke:#ffffff;stroke-linejoin:miter;stroke-width:0.75;"/>
    </defs>
    <g clip-path="url(#p0181c92444)">
     <use style="fill:#98df8a;stroke:#ffffff;stroke-linejoin:miter;stroke-width:0.75;" x="75.923352" xlink:href="#maa39a8fe37" y="266.276279"/>
     <use style="fill:#98df8a;stroke:#ffffff;stroke-linejoin:miter;stroke-width:0.75;" x="79.490985" xlink:href="#maa39a8fe37" y="239.55874"/>
     <use style="fill:#98df8a;stroke:#ffffff;stroke-linejoin:miter;stroke-width:0.75;" x="83.058617" xlink:href="#maa39a8fe37" y="226.842433"/>
     <use style="fill:#98df8a;stroke:#ffffff;stroke-linejoin:miter;stroke-width:0.75;" x="86.626249" xlink:href="#maa39a8fe37" y="210.891663"/>
     <use style="fill:#98df8a;stroke:#ffffff;stroke-linejoin:miter;stroke-width:0.75;" x="90.193882" xlink:href="#maa39a8fe37" y="198.352587"/>
     <use style="fill:#98df8a;stroke:#ffffff;stroke-linejoin:miter;stroke-width:0.75;" x="93.761514" xlink:href="#maa39a8fe37" y="191.396279"/>
     <use style="fill:#98df8a;stroke:#ffffff;stroke-linejoin:miter;stroke-width:0.75;" x="97.329146" xlink:href="#maa39a8fe37" y="184.883048"/>
     <use style="fill:#98df8a;stroke:#ffffff;stroke-linejoin:miter;stroke-width:0.75;" x="100.896779" xlink:href="#maa39a8fe37" y="178.059663"/>
     <use style="fill:#98df8a;stroke:#ffffff;stroke-linejoin:miter;stroke-width:0.75;" x="104.464411" xlink:href="#maa39a8fe37" y="172.609817"/>
     <use style="fill:#98df8a;stroke:#ffffff;stroke-linejoin:miter;stroke-width:0.75;" x="108.032044" xlink:href="#maa39a8fe37" y="166.583971"/>
     <use style="fill:#98df8a;stroke:#ffffff;stroke-linejoin:miter;stroke-width:0.75;" x="111.599676" xlink:href="#maa39a8fe37" y="157.456587"/>
     <use style="fill:#98df8a;stroke:#ffffff;stroke-linejoin:miter;stroke-width:0.75;" x="115.167308" xlink:href="#maa39a8fe37" y="147.575971"/>
     <use style="fill:#98df8a;stroke:#ffffff;stroke-linejoin:miter;stroke-width:0.75;" x="118.734941" xlink:href="#maa39a8fe37" y="140.974125"/>
     <use style="fill:#98df8a;stroke:#ffffff;stroke-linejoin:miter;stroke-width:0.75;" x="122.302573" xlink:href="#maa39a8fe37" y="137.340894"/>
     <use style="fill:#98df8a;stroke:#ffffff;stroke-linejoin:miter;stroke-width:0.75;" x="125.870205" xlink:href="#maa39a8fe37" y="132.511356"/>
     <use style="fill:#98df8a;stroke:#ffffff;stroke-linejoin:miter;stroke-width:0.75;" x="129.437838" xlink:href="#maa39a8fe37" y="128.612279"/>
     <use style="fill:#98df8a;stroke:#ffffff;stroke-linejoin:miter;stroke-width:0.75;" x="133.00547" xlink:href="#maa39a8fe37" y="124.668894"/>
     <use style="fill:#98df8a;stroke:#ffffff;stroke-linejoin:miter;stroke-width:0.75;" x="136.573103" xlink:href="#maa39a8fe37" y="119.396279"/>
     <use style="fill:#98df8a;stroke:#ffffff;stroke-linejoin:miter;stroke-width:0.75;" x="140.140735" xlink:href="#maa39a8fe37" y="115.187048"/>
     <use style="fill:#98df8a;stroke:#ffffff;stroke-linejoin:miter;stroke-width:0.75;" x="143.708367" xlink:href="#maa39a8fe37" y="113.23751"/>
     <use style="fill:#98df8a;stroke:#ffffff;stroke-linejoin:miter;stroke-width:0.75;" x="147.276" xlink:href="#maa39a8fe37" y="109.78151"/>
     <use style="fill:#98df8a;stroke:#ffffff;stroke-linejoin:miter;stroke-width:0.75;" x="150.843632" xlink:href="#maa39a8fe37" y="108.275048"/>
     <use style="fill:#98df8a;stroke:#ffffff;stroke-linejoin:miter;stroke-width:0.75;" x="154.411264" xlink:href="#maa39a8fe37" y="106.059663"/>
     <use style="fill:#98df8a;stroke:#ffffff;stroke-linejoin:miter;stroke-width:0.75;" x="157.978897" xlink:href="#maa39a8fe37" y="103.268279"/>
     <use style="fill:#98df8a;stroke:#ffffff;stroke-linejoin:miter;stroke-width:0.75;" x="161.546529" xlink:href="#maa39a8fe37" y="96.267663"/>
     <use style="fill:#98df8a;stroke:#ffffff;stroke-linejoin:miter;stroke-width:0.75;" x="165.114161" xlink:href="#maa39a8fe37" y="94.98274"/>
     <use style="fill:#98df8a;stroke:#ffffff;stroke-linejoin:miter;stroke-width:0.75;" x="168.681794" xlink:href="#maa39a8fe37" y="92.944587"/>
     <use style="fill:#98df8a;stroke:#ffffff;stroke-linejoin:miter;stroke-width:0.75;" x="172.249426" xlink:href="#maa39a8fe37" y="90.906433"/>
     <use style="fill:#98df8a;stroke:#ffffff;stroke-linejoin:miter;stroke-width:0.75;" x="175.817059" xlink:href="#maa39a8fe37" y="90.108894"/>
     <use style="fill:#98df8a;stroke:#ffffff;stroke-linejoin:miter;stroke-width:0.75;" x="179.384691" xlink:href="#maa39a8fe37" y="86.963048"/>
     <use style="fill:#98df8a;stroke:#ffffff;stroke-linejoin:miter;stroke-width:0.75;" x="182.952323" xlink:href="#maa39a8fe37" y="84.43751"/>
     <use style="fill:#98df8a;stroke:#ffffff;stroke-linejoin:miter;stroke-width:0.75;" x="186.519956" xlink:href="#maa39a8fe37" y="81.025817"/>
     <use style="fill:#98df8a;stroke:#ffffff;stroke-linejoin:miter;stroke-width:0.75;" x="190.087588" xlink:href="#maa39a8fe37" y="79.120587"/>
     <use style="fill:#98df8a;stroke:#ffffff;stroke-linejoin:miter;stroke-width:0.75;" x="193.65522" xlink:href="#maa39a8fe37" y="76.506433"/>
     <use style="fill:#98df8a;stroke:#ffffff;stroke-linejoin:miter;stroke-width:0.75;" x="197.222853" xlink:href="#maa39a8fe37" y="75.708894"/>
     <use style="fill:#98df8a;stroke:#ffffff;stroke-linejoin:miter;stroke-width:0.75;" x="200.790485" xlink:href="#maa39a8fe37" y="74.556894"/>
     <use style="fill:#98df8a;stroke:#ffffff;stroke-linejoin:miter;stroke-width:0.75;" x="204.358118" xlink:href="#maa39a8fe37" y="71.94274"/>
     <use style="fill:#98df8a;stroke:#ffffff;stroke-linejoin:miter;stroke-width:0.75;" x="207.92575" xlink:href="#maa39a8fe37" y="69.993202"/>
     <use style="fill:#98df8a;stroke:#ffffff;stroke-linejoin:miter;stroke-width:0.75;" x="211.493382" xlink:href="#maa39a8fe37" y="69.06274"/>
     <use style="fill:#98df8a;stroke:#ffffff;stroke-linejoin:miter;stroke-width:0.75;" x="215.061015" xlink:href="#maa39a8fe37" y="67.290433"/>
     <use style="fill:#98df8a;stroke:#ffffff;stroke-linejoin:miter;stroke-width:0.75;" x="218.628647" xlink:href="#maa39a8fe37" y="66.227048"/>
     <use style="fill:#98df8a;stroke:#ffffff;stroke-linejoin:miter;stroke-width:0.75;" x="222.196279" xlink:href="#maa39a8fe37" y="64.27751"/>
     <use style="fill:#98df8a;stroke:#ffffff;stroke-linejoin:miter;stroke-width:0.75;" x="225.763912" xlink:href="#maa39a8fe37" y="63.391356"/>
     <use style="fill:#98df8a;stroke:#ffffff;stroke-linejoin:miter;stroke-width:0.75;" x="229.331544" xlink:href="#maa39a8fe37" y="62.239356"/>
     <use style="fill:#98df8a;stroke:#ffffff;stroke-linejoin:miter;stroke-width:0.75;" x="232.899176" xlink:href="#maa39a8fe37" y="60.954433"/>
     <use style="fill:#98df8a;stroke:#ffffff;stroke-linejoin:miter;stroke-width:0.75;" x="236.466809" xlink:href="#maa39a8fe37" y="57.232587"/>
     <use style="fill:#98df8a;stroke:#ffffff;stroke-linejoin:miter;stroke-width:0.75;" x="240.034441" xlink:href="#maa39a8fe37" y="55.593202"/>
     <use style="fill:#98df8a;stroke:#ffffff;stroke-linejoin:miter;stroke-width:0.75;" x="243.602074" xlink:href="#maa39a8fe37" y="55.105817"/>
     <use style="fill:#98df8a;stroke:#ffffff;stroke-linejoin:miter;stroke-width:0.75;" x="247.169706" xlink:href="#maa39a8fe37" y="54.795663"/>
     <use style="fill:#98df8a;stroke:#ffffff;stroke-linejoin:miter;stroke-width:0.75;" x="250.737338" xlink:href="#maa39a8fe37" y="53.776587"/>
     <use style="fill:#98df8a;stroke:#ffffff;stroke-linejoin:miter;stroke-width:0.75;" x="254.304971" xlink:href="#maa39a8fe37" y="52.004279"/>
     <use style="fill:#98df8a;stroke:#ffffff;stroke-linejoin:miter;stroke-width:0.75;" x="257.872603" xlink:href="#maa39a8fe37" y="51.295356"/>
     <use style="fill:#98df8a;stroke:#ffffff;stroke-linejoin:miter;stroke-width:0.75;" x="261.440235" xlink:href="#maa39a8fe37" y="50.586433"/>
     <use style="fill:#98df8a;stroke:#ffffff;stroke-linejoin:miter;stroke-width:0.75;" x="265.007868" xlink:href="#maa39a8fe37" y="49.921817"/>
     <use style="fill:#98df8a;stroke:#ffffff;stroke-linejoin:miter;stroke-width:0.75;" x="268.5755" xlink:href="#maa39a8fe37" y="48.947048"/>
     <use style="fill:#98df8a;stroke:#ffffff;stroke-linejoin:miter;stroke-width:0.75;" x="272.143132" xlink:href="#maa39a8fe37" y="48.769817"/>
     <use style="fill:#98df8a;stroke:#ffffff;stroke-linejoin:miter;stroke-width:0.75;" x="275.710765" xlink:href="#maa39a8fe37" y="47.75074"/>
     <use style="fill:#98df8a;stroke:#ffffff;stroke-linejoin:miter;stroke-width:0.75;" x="279.278397" xlink:href="#maa39a8fe37" y="47.307663"/>
     <use style="fill:#98df8a;stroke:#ffffff;stroke-linejoin:miter;stroke-width:0.75;" x="282.84603" xlink:href="#maa39a8fe37" y="46.59874"/>
     <use style="fill:#98df8a;stroke:#ffffff;stroke-linejoin:miter;stroke-width:0.75;" x="286.413662" xlink:href="#maa39a8fe37" y="45.934125"/>
     <use style="fill:#98df8a;stroke:#ffffff;stroke-linejoin:miter;stroke-width:0.75;" x="289.981294" xlink:href="#maa39a8fe37" y="45.668279"/>
     <use style="fill:#98df8a;stroke:#ffffff;stroke-linejoin:miter;stroke-width:0.75;" x="293.548927" xlink:href="#maa39a8fe37" y="45.047971"/>
     <use style="fill:#98df8a;stroke:#ffffff;stroke-linejoin:miter;stroke-width:0.75;" x="297.116559" xlink:href="#maa39a8fe37" y="44.87074"/>
     <use style="fill:#98df8a;stroke:#ffffff;stroke-linejoin:miter;stroke-width:0.75;" x="300.684191" xlink:href="#maa39a8fe37" y="44.69351"/>
     <use style="fill:#98df8a;stroke:#ffffff;stroke-linejoin:miter;stroke-width:0.75;" x="304.251824" xlink:href="#maa39a8fe37" y="44.516279"/>
     <use style="fill:#98df8a;stroke:#ffffff;stroke-linejoin:miter;stroke-width:0.75;" x="307.819456" xlink:href="#maa39a8fe37" y="44.073202"/>
     <use style="fill:#98df8a;stroke:#ffffff;stroke-linejoin:miter;stroke-width:0.75;" x="311.387089" xlink:href="#maa39a8fe37" y="43.984587"/>
     <use style="fill:#98df8a;stroke:#ffffff;stroke-linejoin:miter;stroke-width:0.75;" x="314.954721" xlink:href="#maa39a8fe37" y="43.630125"/>
     <use style="fill:#98df8a;stroke:#ffffff;stroke-linejoin:miter;stroke-width:0.75;" x="318.522353" xlink:href="#maa39a8fe37" y="43.54151"/>
     <use style="fill:#98df8a;stroke:#ffffff;stroke-linejoin:miter;stroke-width:0.75;" x="322.089986" xlink:href="#maa39a8fe37" y="43.452894"/>
     <use style="fill:#98df8a;stroke:#ffffff;stroke-linejoin:miter;stroke-width:0.75;" x="325.657618" xlink:href="#maa39a8fe37" y="43.364279"/>
     <use style="fill:#98df8a;stroke:#ffffff;stroke-linejoin:miter;stroke-width:0.75;" x="329.22525" xlink:href="#maa39a8fe37" y="43.364279"/>
     <use style="fill:#98df8a;stroke:#ffffff;stroke-linejoin:miter;stroke-width:0.75;" x="332.792883" xlink:href="#maa39a8fe37" y="43.364279"/>
     <use style="fill:#98df8a;stroke:#ffffff;stroke-linejoin:miter;stroke-width:0.75;" x="336.360515" xlink:href="#maa39a8fe37" y="43.098433"/>
     <use style="fill:#98df8a;stroke:#ffffff;stroke-linejoin:miter;stroke-width:0.75;" x="339.928147" xlink:href="#maa39a8fe37" y="42.478125"/>
     <use style="fill:#98df8a;stroke:#ffffff;stroke-linejoin:miter;stroke-width:0.75;" x="343.49578" xlink:href="#maa39a8fe37" y="42.478125"/>
     <use style="fill:#98df8a;stroke:#ffffff;stroke-linejoin:miter;stroke-width:0.75;" x="347.063412" xlink:href="#maa39a8fe37" y="42.38951"/>
     <use style="fill:#98df8a;stroke:#ffffff;stroke-linejoin:miter;stroke-width:0.75;" x="350.631045" xlink:href="#maa39a8fe37" y="42.38951"/>
     <use style="fill:#98df8a;stroke:#ffffff;stroke-linejoin:miter;stroke-width:0.75;" x="354.198677" xlink:href="#maa39a8fe37" y="41.857817"/>
     <use style="fill:#98df8a;stroke:#ffffff;stroke-linejoin:miter;stroke-width:0.75;" x="357.766309" xlink:href="#maa39a8fe37" y="41.857817"/>
     <use style="fill:#98df8a;stroke:#ffffff;stroke-linejoin:miter;stroke-width:0.75;" x="361.333942" xlink:href="#maa39a8fe37" y="41.680587"/>
     <use style="fill:#98df8a;stroke:#ffffff;stroke-linejoin:miter;stroke-width:0.75;" x="364.901574" xlink:href="#maa39a8fe37" y="41.680587"/>
     <use style="fill:#98df8a;stroke:#ffffff;stroke-linejoin:miter;stroke-width:0.75;" x="368.469206" xlink:href="#maa39a8fe37" y="41.148894"/>
     <use style="fill:#98df8a;stroke:#ffffff;stroke-linejoin:miter;stroke-width:0.75;" x="372.036839" xlink:href="#maa39a8fe37" y="41.148894"/>
     <use style="fill:#98df8a;stroke:#ffffff;stroke-linejoin:miter;stroke-width:0.75;" x="375.604471" xlink:href="#maa39a8fe37" y="40.883048"/>
     <use style="fill:#98df8a;stroke:#ffffff;stroke-linejoin:miter;stroke-width:0.75;" x="379.172104" xlink:href="#maa39a8fe37" y="40.617202"/>
     <use style="fill:#98df8a;stroke:#ffffff;stroke-linejoin:miter;stroke-width:0.75;" x="382.739736" xlink:href="#maa39a8fe37" y="40.439971"/>
     <use style="fill:#98df8a;stroke:#ffffff;stroke-linejoin:miter;stroke-width:0.75;" x="386.307368" xlink:href="#maa39a8fe37" y="39.819663"/>
     <use style="fill:#98df8a;stroke:#ffffff;stroke-linejoin:miter;stroke-width:0.75;" x="389.875001" xlink:href="#maa39a8fe37" y="39.642433"/>
     <use style="fill:#98df8a;stroke:#ffffff;stroke-linejoin:miter;stroke-width:0.75;" x="393.442633" xlink:href="#maa39a8fe37" y="39.553817"/>
     <use style="fill:#98df8a;stroke:#ffffff;stroke-linejoin:miter;stroke-width:0.75;" x="397.010265" xlink:href="#maa39a8fe37" y="39.199356"/>
     <use style="fill:#98df8a;stroke:#ffffff;stroke-linejoin:miter;stroke-width:0.75;" x="400.577898" xlink:href="#maa39a8fe37" y="39.022125"/>
    </g>
   </g>
   <g id="line2d_15"/>
   <g id="line2d_16"/>
   <g id="patch_3">
    <path d="M 59.690625 249.838125 
L 59.690625 28.299663 
" style="fill:none;stroke:#000000;stroke-linecap:square;stroke-linejoin:miter;stroke-width:0.8;"/>
   </g>
   <g id="patch_4">
    <path d="M 75.923352 288.430125 
L 349.441834 288.430125 
" style="fill:none;stroke:#000000;stroke-linecap:square;stroke-linejoin:miter;stroke-width:0.8;"/>
   </g>
   <g id="text_15">
    <!-- poppler_pdf_fuzzer (23h, 17 trials/fuzzer) -->
    <g transform="translate(114.495938 16.318125)scale(0.12 -0.12)">
     <defs>
      <path d="M 1159 525 
L 1159 -1331 
L 581 -1331 
L 581 3500 
L 1159 3500 
L 1159 2969 
Q 1341 3281 1617 3432 
Q 1894 3584 2278 3584 
Q 2916 3584 3314 3078 
Q 3713 2572 3713 1747 
Q 3713 922 3314 415 
Q 2916 -91 2278 -91 
Q 1894 -91 1617 61 
Q 1341 213 1159 525 
z
M 3116 1747 
Q 3116 2381 2855 2742 
Q 2594 3103 2138 3103 
Q 1681 3103 1420 2742 
Q 1159 2381 1159 1747 
Q 1159 1113 1420 752 
Q 1681 391 2138 391 
Q 2594 391 2855 752 
Q 3116 1113 3116 1747 
z
" id="DejaVuSans-70" transform="scale(0.015625)"/>
      <path d="M 603 4863 
L 1178 4863 
L 1178 0 
L 603 0 
L 603 4863 
z
" id="DejaVuSans-6c" transform="scale(0.015625)"/>
      <path d="M 3263 -1063 
L 3263 -1509 
L -63 -1509 
L -63 -1063 
L 3263 -1063 
z
" id="DejaVuSans-5f" transform="scale(0.015625)"/>
      <path d="M 2375 4863 
L 2375 4384 
L 1825 4384 
Q 1516 4384 1395 4259 
Q 1275 4134 1275 3809 
L 1275 3500 
L 2222 3500 
L 2222 3053 
L 1275 3053 
L 1275 0 
L 697 0 
L 697 3053 
L 147 3053 
L 147 3500 
L 697 3500 
L 697 3744 
Q 697 4328 969 4595 
Q 1241 4863 1831 4863 
L 2375 4863 
z
" id="DejaVuSans-66" transform="scale(0.015625)"/>
      <path d="M 353 3500 
L 3084 3500 
L 3084 2975 
L 922 459 
L 3084 459 
L 3084 0 
L 275 0 
L 275 525 
L 2438 3041 
L 353 3041 
L 353 3500 
z
" id="DejaVuSans-7a" transform="scale(0.015625)"/>
      <path d="M 750 794 
L 1409 794 
L 1409 256 
L 897 -744 
L 494 -744 
L 750 256 
L 750 794 
z
" id="DejaVuSans-2c" transform="scale(0.015625)"/>
      <path d="M 2834 3397 
L 2834 2853 
Q 2591 2978 2328 3040 
Q 2066 3103 1784 3103 
Q 1356 3103 1142 2972 
Q 928 2841 928 2578 
Q 928 2378 1081 2264 
Q 1234 2150 1697 2047 
L 1894 2003 
Q 2506 1872 2764 1633 
Q 3022 1394 3022 966 
Q 3022 478 2636 193 
Q 2250 -91 1575 -91 
Q 1294 -91 989 -36 
Q 684 19 347 128 
L 347 722 
Q 666 556 975 473 
Q 1284 391 1588 391 
Q 1994 391 2212 530 
Q 2431 669 2431 922 
Q 2431 1156 2273 1281 
Q 2116 1406 1581 1522 
L 1381 1569 
Q 847 1681 609 1914 
Q 372 2147 372 2553 
Q 372 3047 722 3315 
Q 1072 3584 1716 3584 
Q 2034 3584 2315 3537 
Q 2597 3491 2834 3397 
z
" id="DejaVuSans-73" transform="scale(0.015625)"/>
      <path d="M 1625 4666 
L 2156 4666 
L 531 -594 
L 0 -594 
L 1625 4666 
z
" id="DejaVuSans-2f" transform="scale(0.015625)"/>
     </defs>
     <use xlink:href="#DejaVuSans-70"/>
     <use x="63.476562" xlink:href="#DejaVuSans-6f"/>
     <use x="124.658203" xlink:href="#DejaVuSans-70"/>
     <use x="188.134766" xlink:href="#DejaVuSans-70"/>
     <use x="251.611328" xlink:href="#DejaVuSans-6c"/>
     <use x="279.394531" xlink:href="#DejaVuSans-65"/>
     <use x="340.917969" xlink:href="#DejaVuSans-72"/>
     <use x="382.03125" xlink:href="#DejaVuSans-5f"/>
     <use x="432.03125" xlink:href="#DejaVuSans-70"/>
     <use x="495.507812" xlink:href="#DejaVuSans-64"/>
     <use x="558.984375" xlink:href="#DejaVuSans-66"/>
     <use x="594.189453" xlink:href="#DejaVuSans-5f"/>
     <use x="644.189453" xlink:href="#DejaVuSans-66"/>
     <use x="679.394531" xlink:href="#DejaVuSans-75"/>
     <use x="742.773438" xlink:href="#DejaVuSans-7a"/>
     <use x="795.263672" xlink:href="#DejaVuSans-7a"/>
     <use x="847.753906" xlink:href="#DejaVuSans-65"/>
     <use x="909.277344" xlink:href="#DejaVuSans-72"/>
     <use x="950.390625" xlink:href="#DejaVuSans-20"/>
     <use x="982.177734" xlink:href="#DejaVuSans-28"/>
     <use x="1021.191406" xlink:href="#DejaVuSans-32"/>
     <use x="1084.814453" xlink:href="#DejaVuSans-33"/>
     <use x="1148.4375" xlink:href="#DejaVuSans-68"/>
     <use x="1211.816406" xlink:href="#DejaVuSans-2c"/>
     <use x="1243.603516" xlink:href="#DejaVuSans-20"/>
     <use x="1275.390625" xlink:href="#DejaVuSans-31"/>
     <use x="1339.013672" xlink:href="#DejaVuSans-37"/>
     <use x="1402.636719" xlink:href="#DejaVuSans-20"/>
     <use x="1434.423828" xlink:href="#DejaVuSans-74"/>
     <use x="1473.632812" xlink:href="#DejaVuSans-72"/>
     <use x="1514.746094" xlink:href="#DejaVuSans-69"/>
     <use x="1542.529297" xlink:href="#DejaVuSans-61"/>
     <use x="1603.808594" xlink:href="#DejaVuSans-6c"/>
     <use x="1631.591797" xlink:href="#DejaVuSans-73"/>
     <use x="1683.691406" xlink:href="#DejaVuSans-2f"/>
     <use x="1717.382812" xlink:href="#DejaVuSans-66"/>
     <use x="1752.587891" xlink:href="#DejaVuSans-75"/>
     <use x="1815.966797" xlink:href="#DejaVuSans-7a"/>
     <use x="1868.457031" xlink:href="#DejaVuSans-7a"/>
     <use x="1920.947266" xlink:href="#DejaVuSans-65"/>
     <use x="1982.470703" xlink:href="#DejaVuSans-72"/>
     <use x="2023.583984" xlink:href="#DejaVuSans-29"/>
    </g>
   </g>
   <g id="legend_1">
    <g id="line2d_17">
     <path d="M 420.810625 30.416562 
L 440.810625 30.416562 
" style="fill:none;stroke:#1f77b4;stroke-linecap:square;stroke-width:1.5;"/>
    </g>
    <g id="line2d_18">
     <defs>
      <path d="M 0 3 
C 0.795609 3 1.55874 2.683901 2.12132 2.12132 
C 2.683901 1.55874 3 0.795609 3 0 
C 3 -0.795609 2.683901 -1.55874 2.12132 -2.12132 
C 1.55874 -2.683901 0.795609 -3 0 -3 
C -0.795609 -3 -1.55874 -2.683901 -2.12132 -2.12132 
C -2.683901 -1.55874 -3 -0.795609 -3 0 
C -3 0.795609 -2.683901 1.55874 -2.12132 2.12132 
C -1.55874 2.683901 -0.795609 3 0 3 
z
" id="mdd8d95ea3c" style="stroke:#1f77b4;"/>
     </defs>
     <g>
      <use style="fill:#1f77b4;stroke:#1f77b4;" x="430.810625" xlink:href="#mdd8d95ea3c" y="30.416562"/>
     </g>
    </g>
    <g id="text_16">
     <!-- afl -->
     <g transform="translate(448.810625 33.916562)scale(0.1 -0.1)">
      <use xlink:href="#DejaVuSans-61"/>
      <use x="61.279297" xlink:href="#DejaVuSans-66"/>
      <use x="96.484375" xlink:href="#DejaVuSans-6c"/>
     </g>
    </g>
    <g id="line2d_19">
     <path d="M 420.810625 45.094688 
L 440.810625 45.094688 
" style="fill:none;stroke:#98df8a;stroke-linecap:square;stroke-width:1.5;"/>
    </g>
    <g id="line2d_20">
     <defs>
      <path d="M -0 3 
L 3 -3 
L -3 -3 
z
" id="m2be2a3ea5b" style="stroke:#98df8a;stroke-linejoin:miter;"/>
     </defs>
     <g>
      <use style="fill:#98df8a;stroke:#98df8a;stroke-linejoin:miter;" x="430.810625" xlink:href="#m2be2a3ea5b" y="45.094688"/>
     </g>
    </g>
    <g id="text_17">
     <!-- afl_splicing_mutation -->
     <g transform="translate(448.810625 48.594688)scale(0.1 -0.1)">
      <use xlink:href="#DejaVuSans-61"/>
      <use x="61.279297" xlink:href="#DejaVuSans-66"/>
      <use x="96.484375" xlink:href="#DejaVuSans-6c"/>
      <use x="124.267578" xlink:href="#DejaVuSans-5f"/>
      <use x="174.267578" xlink:href="#DejaVuSans-73"/>
      <use x="226.367188" xlink:href="#DejaVuSans-70"/>
      <use x="289.84375" xlink:href="#DejaVuSans-6c"/>
      <use x="317.626953" xlink:href="#DejaVuSans-69"/>
      <use x="345.410156" xlink:href="#DejaVuSans-63"/>
      <use x="400.390625" xlink:href="#DejaVuSans-69"/>
      <use x="428.173828" xlink:href="#DejaVuSans-6e"/>
      <use x="491.552734" xlink:href="#DejaVuSans-67"/>
      <use x="555.029297" xlink:href="#DejaVuSans-5f"/>
      <use x="605.029297" xlink:href="#DejaVuSans-6d"/>
      <use x="702.441406" xlink:href="#DejaVuSans-75"/>
      <use x="765.820312" xlink:href="#DejaVuSans-74"/>
      <use x="805.029297" xlink:href="#DejaVuSans-61"/>
      <use x="866.308594" xlink:href="#DejaVuSans-74"/>
      <use x="905.517578" xlink:href="#DejaVuSans-69"/>
      <use x="933.300781" xlink:href="#DejaVuSans-6f"/>
      <use x="994.482422" xlink:href="#DejaVuSans-6e"/>
     </g>
    </g>
   </g>
  </g>
 </g>
 <defs>
  <clipPath id="p0181c92444">
   <rect height="266.112" width="357.12" x="59.690625" y="22.318125"/>
  </clipPath>
 </defs>
</svg>
