<?xml version="1.0" encoding="utf-8" standalone="no"?>
<!DOCTYPE svg PUBLIC "-//W3C//DTD SVG 1.1//EN"
  "http://www.w3.org/Graphics/SVG/1.1/DTD/svg11.dtd">
<svg height="325.986375pt" version="1.1" viewBox="0 0 496.355937 325.986375" width="496.355937pt" xmlns="http://www.w3.org/2000/svg" xmlns:xlink="http://www.w3.org/1999/xlink">
 <metadata>
  <rdf:RDF xmlns:cc="http://creativecommons.org/ns#" xmlns:dc="http://purl.org/dc/elements/1.1/" xmlns:rdf="http://www.w3.org/1999/02/22-rdf-syntax-ns#">
   <cc:Work>
    <dc:type rdf:resource="http://purl.org/dc/dcmitype/StillImage"/>
    <dc:date>2022-05-31T16:59:24.726473</dc:date>
    <dc:format>image/svg+xml</dc:format>
    <dc:creator>
     <cc:Agent>
      <dc:title>Matplotlib v3.4.3, https://matplotlib.org/</dc:title>
     </cc:Agent>
    </dc:creator>
   </cc:Work>
  </rdf:RDF>
 </metadata>
 <defs>
  <style type="text/css">*{stroke-linecap:butt;stroke-linejoin:round;}</style>
 </defs>
 <g id="figure_1">
  <g id="patch_1">
   <path d="M 0 325.986375 
L 496.355937 325.986375 
L 496.355937 0 
L 0 0 
z
" style="fill:#ffffff;"/>
  </g>
  <g id="axes_1">
   <g id="patch_2">
    <path d="M 40.603125 288.430125 
L 397.723125 288.430125 
L 397.723125 22.318125 
L 40.603125 22.318125 
z
" style="fill:#ffffff;"/>
   </g>
   <g id="PolyCollection_1">
    <defs>
     <path d="M 56.835852 -107.71305 
L 56.835852 -78.68265 
L 60.403485 -98.03625 
L 63.971117 -127.06665 
L 67.538749 -122.22825 
L 71.106382 -136.74345 
L 74.674014 -107.71305 
L 78.241646 -146.42025 
L 81.809279 -156.09705 
L 85.376911 -146.42025 
L 88.944544 -165.77385 
L 92.512176 -160.93545 
L 96.079808 -175.45065 
L 99.647441 -165.77385 
L 103.215073 -180.28905 
L 106.782705 -185.12745 
L 110.350338 -185.12745 
L 113.91797 -175.45065 
L 117.485603 -185.12745 
L 121.053235 -185.12745 
L 124.620867 -180.28905 
L 128.1885 -180.28905 
L 131.756132 -175.45065 
L 135.323764 -175.45065 
L 138.891397 -185.12745 
L 142.459029 -185.12745 
L 146.026661 -194.80425 
L 149.594294 -194.80425 
L 153.161926 -194.80425 
L 156.729559 -204.48105 
L 160.297191 -204.48105 
L 163.864823 -204.48105 
L 167.432456 -204.48105 
L 171.000088 -204.48105 
L 174.56772 -204.48105 
L 178.135353 -204.48105 
L 181.702985 -204.48105 
L 185.270618 -214.15785 
L 188.83825 -214.15785 
L 192.405882 -214.15785 
L 195.973515 -204.48105 
L 199.541147 -213.91593 
L 203.108779 -146.42025 
L 206.676412 -214.15785 
L 210.244044 -214.15785 
L 213.811676 -223.83465 
L 217.379309 -204.48105 
L 220.946941 -223.83465 
L 224.514574 -223.83465 
L 228.082206 -223.83465 
L 231.649838 -223.83465 
L 235.217471 -204.48105 
L 238.785103 -204.48105 
L 242.352735 -233.51145 
L 245.920368 -214.15785 
L 249.488 -218.99625 
L 253.055632 -233.51145 
L 256.623265 -223.83465 
L 260.190897 -233.51145 
L 263.75853 -233.51145 
L 267.326162 -233.51145 
L 270.893794 -233.51145 
L 274.461427 -223.83465 
L 278.029059 -233.51145 
L 281.596691 -214.15785 
L 285.164324 -233.51145 
L 288.731956 -223.83465 
L 292.299589 -214.15785 
L 295.867221 -223.83465 
L 299.434853 -214.15785 
L 303.002486 -214.15785 
L 306.570118 -223.59273 
L 310.13775 -233.51145 
L 313.705383 -223.83465 
L 317.273015 -233.51145 
L 320.840647 -233.51145 
L 324.40828 -223.83465 
L 327.975912 -223.83465 
L 331.543545 -214.15785 
L 335.111177 -214.15785 
L 338.678809 -233.51145 
L 342.246442 -233.51145 
L 345.814074 -243.18825 
L 349.381706 -233.51145 
L 352.949339 -228.67305 
L 356.516971 -243.18825 
L 360.084604 -223.83465 
L 363.652236 -214.15785 
L 367.219868 -233.51145 
L 370.787501 -223.83465 
L 374.355133 -233.51145 
L 377.922765 -228.67305 
L 381.490398 -262.54185 
L 381.490398 -291.57225 
L 381.490398 -291.57225 
L 377.922765 -286.73385 
L 374.355133 -291.57225 
L 370.787501 -291.57225 
L 367.219868 -291.57225 
L 363.652236 -286.73385 
L 360.084604 -286.73385 
L 356.516971 -291.57225 
L 352.949339 -291.57225 
L 349.381706 -291.57225 
L 345.814074 -291.57225 
L 342.246442 -291.57225 
L 338.678809 -291.57225 
L 335.111177 -291.57225 
L 331.543545 -291.57225 
L 327.975912 -286.73385 
L 324.40828 -291.57225 
L 320.840647 -291.57225 
L 317.273015 -291.57225 
L 313.705383 -282.13737 
L 310.13775 -291.57225 
L 306.570118 -282.13737 
L 303.002486 -291.57225 
L 299.434853 -291.57225 
L 295.867221 -277.05705 
L 292.299589 -272.21865 
L 288.731956 -281.89545 
L 285.164324 -281.89545 
L 281.596691 -281.89545 
L 278.029059 -281.89545 
L 274.461427 -281.89545 
L 270.893794 -281.89545 
L 267.326162 -281.89545 
L 263.75853 -281.89545 
L 260.190897 -281.89545 
L 256.623265 -281.89545 
L 253.055632 -281.89545 
L 249.488 -272.21865 
L 245.920368 -272.21865 
L 242.352735 -281.89545 
L 238.785103 -281.89545 
L 235.217471 -281.89545 
L 231.649838 -272.21865 
L 228.082206 -272.21865 
L 224.514574 -262.54185 
L 220.946941 -262.54185 
L 217.379309 -262.54185 
L 213.811676 -262.54185 
L 210.244044 -262.54185 
L 206.676412 -262.54185 
L 203.108779 -262.54185 
L 199.541147 -262.54185 
L 195.973515 -262.54185 
L 192.405882 -262.54185 
L 188.83825 -262.54185 
L 185.270618 -262.54185 
L 181.702985 -262.54185 
L 178.135353 -252.86505 
L 174.56772 -252.86505 
L 171.000088 -252.86505 
L 167.432456 -252.86505 
L 163.864823 -252.86505 
L 160.297191 -252.86505 
L 156.729559 -252.86505 
L 153.161926 -252.86505 
L 149.594294 -248.02665 
L 146.026661 -243.18825 
L 142.459029 -243.18825 
L 138.891397 -238.34985 
L 135.323764 -238.34985 
L 131.756132 -243.18825 
L 128.1885 -233.51145 
L 124.620867 -233.51145 
L 121.053235 -233.51145 
L 117.485603 -223.83465 
L 113.91797 -223.83465 
L 110.350338 -214.15785 
L 106.782705 -214.15785 
L 103.215073 -218.99625 
L 99.647441 -218.99625 
L 96.079808 -214.15785 
L 92.512176 -209.31945 
L 88.944544 -204.48105 
L 85.376911 -199.64265 
L 81.809279 -194.80425 
L 78.241646 -185.12745 
L 74.674014 -185.12745 
L 71.106382 -175.45065 
L 67.538749 -165.77385 
L 63.971117 -151.25865 
L 60.403485 -146.42025 
L 56.835852 -107.71305 
z
" id="me3c5d577de" style="stroke:#98df8a;stroke-opacity:0.2;"/>
    </defs>
    <g clip-path="url(#pda1402ee60)">
     <use style="fill:#98df8a;fill-opacity:0.2;stroke:#98df8a;stroke-opacity:0.2;" x="0" xlink:href="#me3c5d577de" y="325.986375"/>
    </g>
   </g>
   <g id="PolyCollection_2">
    <defs>
     <path d="M 56.835852 -93.19785 
L 56.835852 -49.65225 
L 60.403485 -88.35945 
L 63.971117 -98.03625 
L 67.538749 -98.03625 
L 71.106382 -107.71305 
L 74.674014 -112.55145 
L 78.241646 -127.06665 
L 81.809279 -131.90505 
L 85.376911 -136.74345 
L 88.944544 -146.42025 
L 92.512176 -156.09705 
L 96.079808 -165.77385 
L 99.647441 -165.77385 
L 103.215073 -165.77385 
L 106.782705 -165.77385 
L 110.350338 -146.42025 
L 113.91797 -146.42025 
L 117.485603 -165.77385 
L 121.053235 -156.09705 
L 124.620867 -165.77385 
L 128.1885 -165.77385 
L 131.756132 -175.45065 
L 135.323764 -165.77385 
L 138.891397 -165.77385 
L 142.459029 -185.12745 
L 146.026661 -185.12745 
L 149.594294 -165.77385 
L 153.161926 -199.64265 
L 156.729559 -185.12745 
L 160.297191 -194.80425 
L 163.864823 -194.80425 
L 167.432456 -185.12745 
L 171.000088 -185.12745 
L 174.56772 -185.12745 
L 178.135353 -204.48105 
L 181.702985 -204.48105 
L 185.270618 -214.15785 
L 188.83825 -204.48105 
L 192.405882 -194.80425 
L 195.973515 -199.64265 
L 199.541147 -214.15785 
L 203.108779 -214.15785 
L 206.676412 -223.83465 
L 210.244044 -214.15785 
L 213.811676 -214.15785 
L 217.379309 -209.31945 
L 220.946941 -218.87529 
L 224.514574 -214.15785 
L 228.082206 -223.83465 
L 231.649838 -223.83465 
L 235.217471 -223.83465 
L 238.785103 -214.15785 
L 242.352735 -223.83465 
L 245.920368 -228.55209 
L 249.488 -218.99625 
L 253.055632 -223.83465 
L 256.623265 -223.83465 
L 260.190897 -223.83465 
L 263.75853 -223.83465 
L 267.326162 -223.83465 
L 270.893794 -228.67305 
L 274.461427 -223.83465 
L 278.029059 -223.83465 
L 281.596691 -228.67305 
L 285.164324 -218.99625 
L 288.731956 -223.83465 
L 292.299589 -223.83465 
L 295.867221 -233.51145 
L 299.434853 -233.51145 
L 303.002486 -233.51145 
L 306.570118 -233.51145 
L 310.13775 -233.51145 
L 313.705383 -223.83465 
L 317.273015 -243.18825 
L 320.840647 -243.18825 
L 324.40828 -233.51145 
L 327.975912 -243.18825 
L 331.543545 -243.18825 
L 335.111177 -243.18825 
L 338.678809 -243.18825 
L 342.246442 -243.18825 
L 345.814074 -243.18825 
L 349.381706 -233.51145 
L 352.949339 -243.18825 
L 356.516971 -243.18825 
L 360.084604 -243.18825 
L 363.652236 -252.86505 
L 367.219868 -243.18825 
L 370.787501 -252.86505 
L 374.355133 -252.86505 
L 377.922765 -252.86505 
L 381.490398 -233.51145 
L 381.490398 -272.21865 
L 381.490398 -272.21865 
L 377.922765 -272.21865 
L 374.355133 -272.21865 
L 370.787501 -272.21865 
L 367.219868 -272.21865 
L 363.652236 -272.21865 
L 360.084604 -272.21865 
L 356.516971 -267.38025 
L 352.949339 -272.21865 
L 349.381706 -262.54185 
L 345.814074 -272.21865 
L 342.246442 -267.38025 
L 338.678809 -272.21865 
L 335.111177 -272.21865 
L 331.543545 -272.21865 
L 327.975912 -267.38025 
L 324.40828 -262.54185 
L 320.840647 -272.21865 
L 317.273015 -267.38025 
L 313.705383 -262.54185 
L 310.13775 -262.78377 
L 306.570118 -262.66281 
L 303.002486 -272.21865 
L 299.434853 -272.21865 
L 295.867221 -272.21865 
L 292.299589 -262.54185 
L 288.731956 -267.38025 
L 285.164324 -262.54185 
L 281.596691 -267.38025 
L 278.029059 -262.54185 
L 274.461427 -262.54185 
L 270.893794 -267.38025 
L 267.326162 -272.21865 
L 263.75853 -262.54185 
L 260.190897 -262.54185 
L 256.623265 -272.21865 
L 253.055632 -272.21865 
L 249.488 -272.21865 
L 245.920368 -262.54185 
L 242.352735 -262.54185 
L 238.785103 -252.86505 
L 235.217471 -262.54185 
L 231.649838 -262.54185 
L 228.082206 -262.54185 
L 224.514574 -252.86505 
L 220.946941 -257.70345 
L 217.379309 -262.54185 
L 213.811676 -262.54185 
L 210.244044 -262.54185 
L 206.676412 -252.86505 
L 203.108779 -252.86505 
L 199.541147 -252.86505 
L 195.973515 -252.86505 
L 192.405882 -243.18825 
L 188.83825 -243.18825 
L 185.270618 -233.51145 
L 181.702985 -233.51145 
L 178.135353 -233.51145 
L 174.56772 -233.51145 
L 171.000088 -233.51145 
L 167.432456 -233.51145 
L 163.864823 -228.67305 
L 160.297191 -223.83465 
L 156.729559 -223.83465 
L 153.161926 -218.99625 
L 149.594294 -214.15785 
L 146.026661 -214.15785 
L 142.459029 -214.15785 
L 138.891397 -214.15785 
L 135.323764 -214.15785 
L 131.756132 -214.15785 
L 128.1885 -209.31945 
L 124.620867 -204.48105 
L 121.053235 -204.48105 
L 117.485603 -204.48105 
L 113.91797 -204.48105 
L 110.350338 -204.48105 
L 106.782705 -194.80425 
L 103.215073 -194.80425 
L 99.647441 -194.80425 
L 96.079808 -194.80425 
L 92.512176 -194.80425 
L 88.944544 -194.80425 
L 85.376911 -180.28905 
L 81.809279 -185.12745 
L 78.241646 -185.12745 
L 74.674014 -165.77385 
L 71.106382 -156.09705 
L 67.538749 -146.42025 
L 63.971117 -146.42025 
L 60.403485 -127.06665 
L 56.835852 -93.19785 
z
" id="m792b5e577b" style="stroke:#1f77b4;stroke-opacity:0.2;"/>
    </defs>
    <g clip-path="url(#pda1402ee60)">
     <use style="fill:#1f77b4;fill-opacity:0.2;stroke:#1f77b4;stroke-opacity:0.2;" x="0" xlink:href="#m792b5e577b" y="325.986375"/>
    </g>
   </g>
   <g id="matplotlib.axis_1">
    <g id="xtick_1">
     <g id="line2d_1">
      <defs>
       <path d="M 0 0 
L 0 3.5 
" id="m7f0c05baa8" style="stroke:#000000;stroke-width:0.8;"/>
      </defs>
      <g>
       <use style="stroke:#000000;stroke-width:0.8;" x="56.835852" xlink:href="#m7f0c05baa8" y="288.430125"/>
      </g>
     </g>
     <g id="text_1">
      <!-- 15m -->
      <g transform="translate(45.60304 303.028562)scale(0.1 -0.1)">
       <defs>
        <path d="M 794 531 
L 1825 531 
L 1825 4091 
L 703 3866 
L 703 4441 
L 1819 4666 
L 2450 4666 
L 2450 531 
L 3481 531 
L 3481 0 
L 794 0 
L 794 531 
z
" id="DejaVuSans-31" transform="scale(0.015625)"/>
        <path d="M 691 4666 
L 3169 4666 
L 3169 4134 
L 1269 4134 
L 1269 2991 
Q 1406 3038 1543 3061 
Q 1681 3084 1819 3084 
Q 2600 3084 3056 2656 
Q 3513 2228 3513 1497 
Q 3513 744 3044 326 
Q 2575 -91 1722 -91 
Q 1428 -91 1123 -41 
Q 819 9 494 109 
L 494 744 
Q 775 591 1075 516 
Q 1375 441 1709 441 
Q 2250 441 2565 725 
Q 2881 1009 2881 1497 
Q 2881 1984 2565 2268 
Q 2250 2553 1709 2553 
Q 1456 2553 1204 2497 
Q 953 2441 691 2322 
L 691 4666 
z
" id="DejaVuSans-35" transform="scale(0.015625)"/>
        <path d="M 3328 2828 
Q 3544 3216 3844 3400 
Q 4144 3584 4550 3584 
Q 5097 3584 5394 3201 
Q 5691 2819 5691 2113 
L 5691 0 
L 5113 0 
L 5113 2094 
Q 5113 2597 4934 2840 
Q 4756 3084 4391 3084 
Q 3944 3084 3684 2787 
Q 3425 2491 3425 1978 
L 3425 0 
L 2847 0 
L 2847 2094 
Q 2847 2600 2669 2842 
Q 2491 3084 2119 3084 
Q 1678 3084 1418 2786 
Q 1159 2488 1159 1978 
L 1159 0 
L 581 0 
L 581 3500 
L 1159 3500 
L 1159 2956 
Q 1356 3278 1631 3431 
Q 1906 3584 2284 3584 
Q 2666 3584 2933 3390 
Q 3200 3197 3328 2828 
z
" id="DejaVuSans-6d" transform="scale(0.015625)"/>
       </defs>
       <use xlink:href="#DejaVuSans-31"/>
       <use x="63.623047" xlink:href="#DejaVuSans-35"/>
       <use x="127.246094" xlink:href="#DejaVuSans-6d"/>
      </g>
     </g>
    </g>
    <g id="xtick_2">
     <g id="line2d_2">
      <g>
       <use style="stroke:#000000;stroke-width:0.8;" x="111.539549" xlink:href="#m7f0c05baa8" y="288.430125"/>
      </g>
     </g>
     <g id="text_2">
      <!-- 4h:5m -->
      <g transform="translate(95.453611 303.028562)scale(0.1 -0.1)">
       <defs>
        <path d="M 2419 4116 
L 825 1625 
L 2419 1625 
L 2419 4116 
z
M 2253 4666 
L 3047 4666 
L 3047 1625 
L 3713 1625 
L 3713 1100 
L 3047 1100 
L 3047 0 
L 2419 0 
L 2419 1100 
L 313 1100 
L 313 1709 
L 2253 4666 
z
" id="DejaVuSans-34" transform="scale(0.015625)"/>
        <path d="M 3513 2113 
L 3513 0 
L 2938 0 
L 2938 2094 
Q 2938 2591 2744 2837 
Q 2550 3084 2163 3084 
Q 1697 3084 1428 2787 
Q 1159 2491 1159 1978 
L 1159 0 
L 581 0 
L 581 4863 
L 1159 4863 
L 1159 2956 
Q 1366 3272 1645 3428 
Q 1925 3584 2291 3584 
Q 2894 3584 3203 3211 
Q 3513 2838 3513 2113 
z
" id="DejaVuSans-68" transform="scale(0.015625)"/>
        <path d="M 750 794 
L 1409 794 
L 1409 0 
L 750 0 
L 750 794 
z
M 750 3309 
L 1409 3309 
L 1409 2516 
L 750 2516 
L 750 3309 
z
" id="DejaVuSans-3a" transform="scale(0.015625)"/>
       </defs>
       <use xlink:href="#DejaVuSans-34"/>
       <use x="63.623047" xlink:href="#DejaVuSans-68"/>
       <use x="127.001953" xlink:href="#DejaVuSans-3a"/>
       <use x="160.693359" xlink:href="#DejaVuSans-35"/>
       <use x="224.316406" xlink:href="#DejaVuSans-6d"/>
      </g>
     </g>
    </g>
    <g id="xtick_3">
     <g id="line2d_3">
      <g>
       <use style="stroke:#000000;stroke-width:0.8;" x="166.243245" xlink:href="#m7f0c05baa8" y="288.430125"/>
      </g>
     </g>
     <g id="text_3">
      <!-- 7h:55m -->
      <g transform="translate(146.976057 303.028562)scale(0.1 -0.1)">
       <defs>
        <path d="M 525 4666 
L 3525 4666 
L 3525 4397 
L 1831 0 
L 1172 0 
L 2766 4134 
L 525 4134 
L 525 4666 
z
" id="DejaVuSans-37" transform="scale(0.015625)"/>
       </defs>
       <use xlink:href="#DejaVuSans-37"/>
       <use x="63.623047" xlink:href="#DejaVuSans-68"/>
       <use x="127.001953" xlink:href="#DejaVuSans-3a"/>
       <use x="160.693359" xlink:href="#DejaVuSans-35"/>
       <use x="224.316406" xlink:href="#DejaVuSans-35"/>
       <use x="287.939453" xlink:href="#DejaVuSans-6d"/>
      </g>
     </g>
    </g>
    <g id="xtick_4">
     <g id="line2d_4">
      <g>
       <use style="stroke:#000000;stroke-width:0.8;" x="220.946941" xlink:href="#m7f0c05baa8" y="288.430125"/>
      </g>
     </g>
     <g id="text_4">
      <!-- 11h:45m -->
      <g transform="translate(198.498504 303.028562)scale(0.1 -0.1)">
       <use xlink:href="#DejaVuSans-31"/>
       <use x="63.623047" xlink:href="#DejaVuSans-31"/>
       <use x="127.246094" xlink:href="#DejaVuSans-68"/>
       <use x="190.625" xlink:href="#DejaVuSans-3a"/>
       <use x="224.316406" xlink:href="#DejaVuSans-34"/>
       <use x="287.939453" xlink:href="#DejaVuSans-35"/>
       <use x="351.5625" xlink:href="#DejaVuSans-6d"/>
      </g>
     </g>
    </g>
    <g id="xtick_5">
     <g id="line2d_5">
      <g>
       <use style="stroke:#000000;stroke-width:0.8;" x="275.650637" xlink:href="#m7f0c05baa8" y="288.430125"/>
      </g>
     </g>
     <g id="text_5">
      <!-- 15h:35m -->
      <g transform="translate(253.2022 303.028562)scale(0.1 -0.1)">
       <defs>
        <path d="M 2597 2516 
Q 3050 2419 3304 2112 
Q 3559 1806 3559 1356 
Q 3559 666 3084 287 
Q 2609 -91 1734 -91 
Q 1441 -91 1130 -33 
Q 819 25 488 141 
L 488 750 
Q 750 597 1062 519 
Q 1375 441 1716 441 
Q 2309 441 2620 675 
Q 2931 909 2931 1356 
Q 2931 1769 2642 2001 
Q 2353 2234 1838 2234 
L 1294 2234 
L 1294 2753 
L 1863 2753 
Q 2328 2753 2575 2939 
Q 2822 3125 2822 3475 
Q 2822 3834 2567 4026 
Q 2313 4219 1838 4219 
Q 1578 4219 1281 4162 
Q 984 4106 628 3988 
L 628 4550 
Q 988 4650 1302 4700 
Q 1616 4750 1894 4750 
Q 2613 4750 3031 4423 
Q 3450 4097 3450 3541 
Q 3450 3153 3228 2886 
Q 3006 2619 2597 2516 
z
" id="DejaVuSans-33" transform="scale(0.015625)"/>
       </defs>
       <use xlink:href="#DejaVuSans-31"/>
       <use x="63.623047" xlink:href="#DejaVuSans-35"/>
       <use x="127.246094" xlink:href="#DejaVuSans-68"/>
       <use x="190.625" xlink:href="#DejaVuSans-3a"/>
       <use x="224.316406" xlink:href="#DejaVuSans-33"/>
       <use x="287.939453" xlink:href="#DejaVuSans-35"/>
       <use x="351.5625" xlink:href="#DejaVuSans-6d"/>
      </g>
     </g>
    </g>
    <g id="xtick_6">
     <g id="line2d_6">
      <g>
       <use style="stroke:#000000;stroke-width:0.8;" x="330.354334" xlink:href="#m7f0c05baa8" y="288.430125"/>
      </g>
     </g>
     <g id="text_6">
      <!-- 19h:25m -->
      <g transform="translate(307.905896 303.028562)scale(0.1 -0.1)">
       <defs>
        <path d="M 703 97 
L 703 672 
Q 941 559 1184 500 
Q 1428 441 1663 441 
Q 2288 441 2617 861 
Q 2947 1281 2994 2138 
Q 2813 1869 2534 1725 
Q 2256 1581 1919 1581 
Q 1219 1581 811 2004 
Q 403 2428 403 3163 
Q 403 3881 828 4315 
Q 1253 4750 1959 4750 
Q 2769 4750 3195 4129 
Q 3622 3509 3622 2328 
Q 3622 1225 3098 567 
Q 2575 -91 1691 -91 
Q 1453 -91 1209 -44 
Q 966 3 703 97 
z
M 1959 2075 
Q 2384 2075 2632 2365 
Q 2881 2656 2881 3163 
Q 2881 3666 2632 3958 
Q 2384 4250 1959 4250 
Q 1534 4250 1286 3958 
Q 1038 3666 1038 3163 
Q 1038 2656 1286 2365 
Q 1534 2075 1959 2075 
z
" id="DejaVuSans-39" transform="scale(0.015625)"/>
        <path d="M 1228 531 
L 3431 531 
L 3431 0 
L 469 0 
L 469 531 
Q 828 903 1448 1529 
Q 2069 2156 2228 2338 
Q 2531 2678 2651 2914 
Q 2772 3150 2772 3378 
Q 2772 3750 2511 3984 
Q 2250 4219 1831 4219 
Q 1534 4219 1204 4116 
Q 875 4013 500 3803 
L 500 4441 
Q 881 4594 1212 4672 
Q 1544 4750 1819 4750 
Q 2544 4750 2975 4387 
Q 3406 4025 3406 3419 
Q 3406 3131 3298 2873 
Q 3191 2616 2906 2266 
Q 2828 2175 2409 1742 
Q 1991 1309 1228 531 
z
" id="DejaVuSans-32" transform="scale(0.015625)"/>
       </defs>
       <use xlink:href="#DejaVuSans-31"/>
       <use x="63.623047" xlink:href="#DejaVuSans-39"/>
       <use x="127.246094" xlink:href="#DejaVuSans-68"/>
       <use x="190.625" xlink:href="#DejaVuSans-3a"/>
       <use x="224.316406" xlink:href="#DejaVuSans-32"/>
       <use x="287.939453" xlink:href="#DejaVuSans-35"/>
       <use x="351.5625" xlink:href="#DejaVuSans-6d"/>
      </g>
     </g>
    </g>
    <g id="text_7">
     <!-- Time (hour:minute) -->
     <g transform="translate(170.756094 316.706687)scale(0.1 -0.1)">
      <defs>
       <path d="M -19 4666 
L 3928 4666 
L 3928 4134 
L 2272 4134 
L 2272 0 
L 1638 0 
L 1638 4134 
L -19 4134 
L -19 4666 
z
" id="DejaVuSans-54" transform="scale(0.015625)"/>
       <path d="M 603 3500 
L 1178 3500 
L 1178 0 
L 603 0 
L 603 3500 
z
M 603 4863 
L 1178 4863 
L 1178 4134 
L 603 4134 
L 603 4863 
z
" id="DejaVuSans-69" transform="scale(0.015625)"/>
       <path d="M 3597 1894 
L 3597 1613 
L 953 1613 
Q 991 1019 1311 708 
Q 1631 397 2203 397 
Q 2534 397 2845 478 
Q 3156 559 3463 722 
L 3463 178 
Q 3153 47 2828 -22 
Q 2503 -91 2169 -91 
Q 1331 -91 842 396 
Q 353 884 353 1716 
Q 353 2575 817 3079 
Q 1281 3584 2069 3584 
Q 2775 3584 3186 3129 
Q 3597 2675 3597 1894 
z
M 3022 2063 
Q 3016 2534 2758 2815 
Q 2500 3097 2075 3097 
Q 1594 3097 1305 2825 
Q 1016 2553 972 2059 
L 3022 2063 
z
" id="DejaVuSans-65" transform="scale(0.015625)"/>
       <path id="DejaVuSans-20" transform="scale(0.015625)"/>
       <path d="M 1984 4856 
Q 1566 4138 1362 3434 
Q 1159 2731 1159 2009 
Q 1159 1288 1364 580 
Q 1569 -128 1984 -844 
L 1484 -844 
Q 1016 -109 783 600 
Q 550 1309 550 2009 
Q 550 2706 781 3412 
Q 1013 4119 1484 4856 
L 1984 4856 
z
" id="DejaVuSans-28" transform="scale(0.015625)"/>
       <path d="M 1959 3097 
Q 1497 3097 1228 2736 
Q 959 2375 959 1747 
Q 959 1119 1226 758 
Q 1494 397 1959 397 
Q 2419 397 2687 759 
Q 2956 1122 2956 1747 
Q 2956 2369 2687 2733 
Q 2419 3097 1959 3097 
z
M 1959 3584 
Q 2709 3584 3137 3096 
Q 3566 2609 3566 1747 
Q 3566 888 3137 398 
Q 2709 -91 1959 -91 
Q 1206 -91 779 398 
Q 353 888 353 1747 
Q 353 2609 779 3096 
Q 1206 3584 1959 3584 
z
" id="DejaVuSans-6f" transform="scale(0.015625)"/>
       <path d="M 544 1381 
L 544 3500 
L 1119 3500 
L 1119 1403 
Q 1119 906 1312 657 
Q 1506 409 1894 409 
Q 2359 409 2629 706 
Q 2900 1003 2900 1516 
L 2900 3500 
L 3475 3500 
L 3475 0 
L 2900 0 
L 2900 538 
Q 2691 219 2414 64 
Q 2138 -91 1772 -91 
Q 1169 -91 856 284 
Q 544 659 544 1381 
z
M 1991 3584 
L 1991 3584 
z
" id="DejaVuSans-75" transform="scale(0.015625)"/>
       <path d="M 2631 2963 
Q 2534 3019 2420 3045 
Q 2306 3072 2169 3072 
Q 1681 3072 1420 2755 
Q 1159 2438 1159 1844 
L 1159 0 
L 581 0 
L 581 3500 
L 1159 3500 
L 1159 2956 
Q 1341 3275 1631 3429 
Q 1922 3584 2338 3584 
Q 2397 3584 2469 3576 
Q 2541 3569 2628 3553 
L 2631 2963 
z
" id="DejaVuSans-72" transform="scale(0.015625)"/>
       <path d="M 3513 2113 
L 3513 0 
L 2938 0 
L 2938 2094 
Q 2938 2591 2744 2837 
Q 2550 3084 2163 3084 
Q 1697 3084 1428 2787 
Q 1159 2491 1159 1978 
L 1159 0 
L 581 0 
L 581 3500 
L 1159 3500 
L 1159 2956 
Q 1366 3272 1645 3428 
Q 1925 3584 2291 3584 
Q 2894 3584 3203 3211 
Q 3513 2838 3513 2113 
z
" id="DejaVuSans-6e" transform="scale(0.015625)"/>
       <path d="M 1172 4494 
L 1172 3500 
L 2356 3500 
L 2356 3053 
L 1172 3053 
L 1172 1153 
Q 1172 725 1289 603 
Q 1406 481 1766 481 
L 2356 481 
L 2356 0 
L 1766 0 
Q 1100 0 847 248 
Q 594 497 594 1153 
L 594 3053 
L 172 3053 
L 172 3500 
L 594 3500 
L 594 4494 
L 1172 4494 
z
" id="DejaVuSans-74" transform="scale(0.015625)"/>
       <path d="M 513 4856 
L 1013 4856 
Q 1481 4119 1714 3412 
Q 1947 2706 1947 2009 
Q 1947 1309 1714 600 
Q 1481 -109 1013 -844 
L 513 -844 
Q 928 -128 1133 580 
Q 1338 1288 1338 2009 
Q 1338 2731 1133 3434 
Q 928 4138 513 4856 
z
" id="DejaVuSans-29" transform="scale(0.015625)"/>
      </defs>
      <use xlink:href="#DejaVuSans-54"/>
      <use x="57.958984" xlink:href="#DejaVuSans-69"/>
      <use x="85.742188" xlink:href="#DejaVuSans-6d"/>
      <use x="183.154297" xlink:href="#DejaVuSans-65"/>
      <use x="244.677734" xlink:href="#DejaVuSans-20"/>
      <use x="276.464844" xlink:href="#DejaVuSans-28"/>
      <use x="315.478516" xlink:href="#DejaVuSans-68"/>
      <use x="378.857422" xlink:href="#DejaVuSans-6f"/>
      <use x="440.039062" xlink:href="#DejaVuSans-75"/>
      <use x="503.417969" xlink:href="#DejaVuSans-72"/>
      <use x="542.78125" xlink:href="#DejaVuSans-3a"/>
      <use x="576.472656" xlink:href="#DejaVuSans-6d"/>
      <use x="673.884766" xlink:href="#DejaVuSans-69"/>
      <use x="701.667969" xlink:href="#DejaVuSans-6e"/>
      <use x="765.046875" xlink:href="#DejaVuSans-75"/>
      <use x="828.425781" xlink:href="#DejaVuSans-74"/>
      <use x="867.634766" xlink:href="#DejaVuSans-65"/>
      <use x="929.158203" xlink:href="#DejaVuSans-29"/>
     </g>
    </g>
   </g>
   <g id="matplotlib.axis_2">
    <g id="ytick_1">
     <g id="line2d_7">
      <defs>
       <path d="M 0 0 
L -3.5 0 
" id="m836c22e961" style="stroke:#000000;stroke-width:0.8;"/>
      </defs>
      <g>
       <use style="stroke:#000000;stroke-width:0.8;" x="40.603125" xlink:href="#m836c22e961" y="276.334125"/>
      </g>
     </g>
     <g id="text_8">
      <!-- 20 -->
      <g transform="translate(20.878125 280.133344)scale(0.1 -0.1)">
       <defs>
        <path d="M 2034 4250 
Q 1547 4250 1301 3770 
Q 1056 3291 1056 2328 
Q 1056 1369 1301 889 
Q 1547 409 2034 409 
Q 2525 409 2770 889 
Q 3016 1369 3016 2328 
Q 3016 3291 2770 3770 
Q 2525 4250 2034 4250 
z
M 2034 4750 
Q 2819 4750 3233 4129 
Q 3647 3509 3647 2328 
Q 3647 1150 3233 529 
Q 2819 -91 2034 -91 
Q 1250 -91 836 529 
Q 422 1150 422 2328 
Q 422 3509 836 4129 
Q 1250 4750 2034 4750 
z
" id="DejaVuSans-30" transform="scale(0.015625)"/>
       </defs>
       <use xlink:href="#DejaVuSans-32"/>
       <use x="63.623047" xlink:href="#DejaVuSans-30"/>
      </g>
     </g>
    </g>
    <g id="ytick_2">
     <g id="line2d_8">
      <g>
       <use style="stroke:#000000;stroke-width:0.8;" x="40.603125" xlink:href="#m836c22e961" y="227.950125"/>
      </g>
     </g>
     <g id="text_9">
      <!-- 25 -->
      <g transform="translate(20.878125 231.749344)scale(0.1 -0.1)">
       <use xlink:href="#DejaVuSans-32"/>
       <use x="63.623047" xlink:href="#DejaVuSans-35"/>
      </g>
     </g>
    </g>
    <g id="ytick_3">
     <g id="line2d_9">
      <g>
       <use style="stroke:#000000;stroke-width:0.8;" x="40.603125" xlink:href="#m836c22e961" y="179.566125"/>
      </g>
     </g>
     <g id="text_10">
      <!-- 30 -->
      <g transform="translate(20.878125 183.365344)scale(0.1 -0.1)">
       <use xlink:href="#DejaVuSans-33"/>
       <use x="63.623047" xlink:href="#DejaVuSans-30"/>
      </g>
     </g>
    </g>
    <g id="ytick_4">
     <g id="line2d_10">
      <g>
       <use style="stroke:#000000;stroke-width:0.8;" x="40.603125" xlink:href="#m836c22e961" y="131.182125"/>
      </g>
     </g>
     <g id="text_11">
      <!-- 35 -->
      <g transform="translate(20.878125 134.981344)scale(0.1 -0.1)">
       <use xlink:href="#DejaVuSans-33"/>
       <use x="63.623047" xlink:href="#DejaVuSans-35"/>
      </g>
     </g>
    </g>
    <g id="ytick_5">
     <g id="line2d_11">
      <g>
       <use style="stroke:#000000;stroke-width:0.8;" x="40.603125" xlink:href="#m836c22e961" y="82.798125"/>
      </g>
     </g>
     <g id="text_12">
      <!-- 40 -->
      <g transform="translate(20.878125 86.597344)scale(0.1 -0.1)">
       <use xlink:href="#DejaVuSans-34"/>
       <use x="63.623047" xlink:href="#DejaVuSans-30"/>
      </g>
     </g>
    </g>
    <g id="ytick_6">
     <g id="line2d_12">
      <g>
       <use style="stroke:#000000;stroke-width:0.8;" x="40.603125" xlink:href="#m836c22e961" y="34.414125"/>
      </g>
     </g>
     <g id="text_13">
      <!-- 45 -->
      <g transform="translate(20.878125 38.213344)scale(0.1 -0.1)">
       <use xlink:href="#DejaVuSans-34"/>
       <use x="63.623047" xlink:href="#DejaVuSans-35"/>
      </g>
     </g>
    </g>
    <g id="text_14">
     <!-- Bug coverage -->
     <g transform="translate(14.798438 189.951469)rotate(-90)scale(0.1 -0.1)">
      <defs>
       <path d="M 1259 2228 
L 1259 519 
L 2272 519 
Q 2781 519 3026 730 
Q 3272 941 3272 1375 
Q 3272 1813 3026 2020 
Q 2781 2228 2272 2228 
L 1259 2228 
z
M 1259 4147 
L 1259 2741 
L 2194 2741 
Q 2656 2741 2882 2914 
Q 3109 3088 3109 3444 
Q 3109 3797 2882 3972 
Q 2656 4147 2194 4147 
L 1259 4147 
z
M 628 4666 
L 2241 4666 
Q 2963 4666 3353 4366 
Q 3744 4066 3744 3513 
Q 3744 3084 3544 2831 
Q 3344 2578 2956 2516 
Q 3422 2416 3680 2098 
Q 3938 1781 3938 1306 
Q 3938 681 3513 340 
Q 3088 0 2303 0 
L 628 0 
L 628 4666 
z
" id="DejaVuSans-42" transform="scale(0.015625)"/>
       <path d="M 2906 1791 
Q 2906 2416 2648 2759 
Q 2391 3103 1925 3103 
Q 1463 3103 1205 2759 
Q 947 2416 947 1791 
Q 947 1169 1205 825 
Q 1463 481 1925 481 
Q 2391 481 2648 825 
Q 2906 1169 2906 1791 
z
M 3481 434 
Q 3481 -459 3084 -895 
Q 2688 -1331 1869 -1331 
Q 1566 -1331 1297 -1286 
Q 1028 -1241 775 -1147 
L 775 -588 
Q 1028 -725 1275 -790 
Q 1522 -856 1778 -856 
Q 2344 -856 2625 -561 
Q 2906 -266 2906 331 
L 2906 616 
Q 2728 306 2450 153 
Q 2172 0 1784 0 
Q 1141 0 747 490 
Q 353 981 353 1791 
Q 353 2603 747 3093 
Q 1141 3584 1784 3584 
Q 2172 3584 2450 3431 
Q 2728 3278 2906 2969 
L 2906 3500 
L 3481 3500 
L 3481 434 
z
" id="DejaVuSans-67" transform="scale(0.015625)"/>
       <path d="M 3122 3366 
L 3122 2828 
Q 2878 2963 2633 3030 
Q 2388 3097 2138 3097 
Q 1578 3097 1268 2742 
Q 959 2388 959 1747 
Q 959 1106 1268 751 
Q 1578 397 2138 397 
Q 2388 397 2633 464 
Q 2878 531 3122 666 
L 3122 134 
Q 2881 22 2623 -34 
Q 2366 -91 2075 -91 
Q 1284 -91 818 406 
Q 353 903 353 1747 
Q 353 2603 823 3093 
Q 1294 3584 2113 3584 
Q 2378 3584 2631 3529 
Q 2884 3475 3122 3366 
z
" id="DejaVuSans-63" transform="scale(0.015625)"/>
       <path d="M 191 3500 
L 800 3500 
L 1894 563 
L 2988 3500 
L 3597 3500 
L 2284 0 
L 1503 0 
L 191 3500 
z
" id="DejaVuSans-76" transform="scale(0.015625)"/>
       <path d="M 2194 1759 
Q 1497 1759 1228 1600 
Q 959 1441 959 1056 
Q 959 750 1161 570 
Q 1363 391 1709 391 
Q 2188 391 2477 730 
Q 2766 1069 2766 1631 
L 2766 1759 
L 2194 1759 
z
M 3341 1997 
L 3341 0 
L 2766 0 
L 2766 531 
Q 2569 213 2275 61 
Q 1981 -91 1556 -91 
Q 1019 -91 701 211 
Q 384 513 384 1019 
Q 384 1609 779 1909 
Q 1175 2209 1959 2209 
L 2766 2209 
L 2766 2266 
Q 2766 2663 2505 2880 
Q 2244 3097 1772 3097 
Q 1472 3097 1187 3025 
Q 903 2953 641 2809 
L 641 3341 
Q 956 3463 1253 3523 
Q 1550 3584 1831 3584 
Q 2591 3584 2966 3190 
Q 3341 2797 3341 1997 
z
" id="DejaVuSans-61" transform="scale(0.015625)"/>
      </defs>
      <use xlink:href="#DejaVuSans-42"/>
      <use x="68.603516" xlink:href="#DejaVuSans-75"/>
      <use x="131.982422" xlink:href="#DejaVuSans-67"/>
      <use x="195.458984" xlink:href="#DejaVuSans-20"/>
      <use x="227.246094" xlink:href="#DejaVuSans-63"/>
      <use x="282.226562" xlink:href="#DejaVuSans-6f"/>
      <use x="343.408203" xlink:href="#DejaVuSans-76"/>
      <use x="402.587891" xlink:href="#DejaVuSans-65"/>
      <use x="464.111328" xlink:href="#DejaVuSans-72"/>
      <use x="505.224609" xlink:href="#DejaVuSans-61"/>
      <use x="566.503906" xlink:href="#DejaVuSans-67"/>
      <use x="629.980469" xlink:href="#DejaVuSans-65"/>
     </g>
    </g>
   </g>
   <g id="line2d_13">
    <path clip-path="url(#pda1402ee60)" d="M 56.835852 227.950125 
L 60.403485 198.919725 
L 63.971117 189.242925 
L 67.538749 184.404525 
L 71.106382 169.889325 
L 74.674014 160.212525 
L 78.241646 150.535725 
L 81.809279 140.858925 
L 85.376911 145.697325 
L 88.944544 136.020525 
L 92.512176 131.182125 
L 96.079808 131.182125 
L 99.647441 121.505325 
L 103.215073 121.505325 
L 106.782705 121.505325 
L 110.350338 111.828525 
L 113.91797 116.666925 
L 117.485603 111.828525 
L 121.053235 111.828525 
L 124.620867 106.990125 
L 128.1885 102.151725 
L 131.756132 102.151725 
L 135.323764 102.151725 
L 138.891397 102.151725 
L 142.459029 92.474925 
L 146.026661 82.798125 
L 149.594294 82.798125 
L 153.161926 82.798125 
L 156.729559 82.798125 
L 160.297191 82.798125 
L 163.864823 82.798125 
L 167.432456 82.798125 
L 171.000088 82.798125 
L 174.56772 82.798125 
L 178.135353 82.798125 
L 181.702985 82.798125 
L 185.270618 82.798125 
L 188.83825 77.959725 
L 192.405882 77.959725 
L 195.973515 82.798125 
L 199.541147 82.798125 
L 203.108779 87.636525 
L 206.676412 77.959725 
L 210.244044 77.959725 
L 213.811676 73.121325 
L 217.379309 82.798125 
L 220.946941 73.121325 
L 224.514574 73.121325 
L 228.082206 73.121325 
L 231.649838 73.121325 
L 235.217471 77.959725 
L 238.785103 73.121325 
L 242.352735 68.282925 
L 245.920368 73.121325 
L 249.488 73.121325 
L 253.055632 68.282925 
L 256.623265 73.121325 
L 260.190897 63.444525 
L 263.75853 63.444525 
L 267.326162 63.444525 
L 270.893794 63.444525 
L 274.461427 68.282925 
L 278.029059 63.444525 
L 281.596691 68.282925 
L 285.164324 63.444525 
L 288.731956 68.282925 
L 292.299589 73.121325 
L 295.867221 68.282925 
L 299.434853 73.121325 
L 303.002486 73.121325 
L 306.570118 68.282925 
L 310.13775 63.444525 
L 313.705383 68.282925 
L 317.273015 63.444525 
L 320.840647 63.444525 
L 324.40828 63.444525 
L 327.975912 63.444525 
L 331.543545 63.444525 
L 335.111177 63.444525 
L 338.678809 63.444525 
L 342.246442 63.444525 
L 345.814074 58.606125 
L 349.381706 63.444525 
L 352.949339 63.444525 
L 356.516971 58.606125 
L 360.084604 63.444525 
L 363.652236 63.444525 
L 367.219868 63.444525 
L 370.787501 63.444525 
L 374.355133 63.444525 
L 377.922765 63.444525 
L 381.490398 53.767725 
" style="fill:none;stroke:#98df8a;stroke-linecap:square;stroke-width:1.5;"/>
    <defs>
     <path d="M -0 3 
L 3 -3 
L -3 -3 
z
" id="ma13065d70b" style="stroke:#ffffff;stroke-linejoin:miter;stroke-width:0.75;"/>
    </defs>
    <g clip-path="url(#pda1402ee60)">
     <use style="fill:#98df8a;stroke:#ffffff;stroke-linejoin:miter;stroke-width:0.75;" x="56.835852" xlink:href="#ma13065d70b" y="227.950125"/>
     <use style="fill:#98df8a;stroke:#ffffff;stroke-linejoin:miter;stroke-width:0.75;" x="60.403485" xlink:href="#ma13065d70b" y="198.919725"/>
     <use style="fill:#98df8a;stroke:#ffffff;stroke-linejoin:miter;stroke-width:0.75;" x="63.971117" xlink:href="#ma13065d70b" y="189.242925"/>
     <use style="fill:#98df8a;stroke:#ffffff;stroke-linejoin:miter;stroke-width:0.75;" x="67.538749" xlink:href="#ma13065d70b" y="184.404525"/>
     <use style="fill:#98df8a;stroke:#ffffff;stroke-linejoin:miter;stroke-width:0.75;" x="71.106382" xlink:href="#ma13065d70b" y="169.889325"/>
     <use style="fill:#98df8a;stroke:#ffffff;stroke-linejoin:miter;stroke-width:0.75;" x="74.674014" xlink:href="#ma13065d70b" y="160.212525"/>
     <use style="fill:#98df8a;stroke:#ffffff;stroke-linejoin:miter;stroke-width:0.75;" x="78.241646" xlink:href="#ma13065d70b" y="150.535725"/>
     <use style="fill:#98df8a;stroke:#ffffff;stroke-linejoin:miter;stroke-width:0.75;" x="81.809279" xlink:href="#ma13065d70b" y="140.858925"/>
     <use style="fill:#98df8a;stroke:#ffffff;stroke-linejoin:miter;stroke-width:0.75;" x="85.376911" xlink:href="#ma13065d70b" y="145.697325"/>
     <use style="fill:#98df8a;stroke:#ffffff;stroke-linejoin:miter;stroke-width:0.75;" x="88.944544" xlink:href="#ma13065d70b" y="136.020525"/>
     <use style="fill:#98df8a;stroke:#ffffff;stroke-linejoin:miter;stroke-width:0.75;" x="92.512176" xlink:href="#ma13065d70b" y="131.182125"/>
     <use style="fill:#98df8a;stroke:#ffffff;stroke-linejoin:miter;stroke-width:0.75;" x="96.079808" xlink:href="#ma13065d70b" y="131.182125"/>
     <use style="fill:#98df8a;stroke:#ffffff;stroke-linejoin:miter;stroke-width:0.75;" x="99.647441" xlink:href="#ma13065d70b" y="121.505325"/>
     <use style="fill:#98df8a;stroke:#ffffff;stroke-linejoin:miter;stroke-width:0.75;" x="103.215073" xlink:href="#ma13065d70b" y="121.505325"/>
     <use style="fill:#98df8a;stroke:#ffffff;stroke-linejoin:miter;stroke-width:0.75;" x="106.782705" xlink:href="#ma13065d70b" y="121.505325"/>
     <use style="fill:#98df8a;stroke:#ffffff;stroke-linejoin:miter;stroke-width:0.75;" x="110.350338" xlink:href="#ma13065d70b" y="111.828525"/>
     <use style="fill:#98df8a;stroke:#ffffff;stroke-linejoin:miter;stroke-width:0.75;" x="113.91797" xlink:href="#ma13065d70b" y="116.666925"/>
     <use style="fill:#98df8a;stroke:#ffffff;stroke-linejoin:miter;stroke-width:0.75;" x="117.485603" xlink:href="#ma13065d70b" y="111.828525"/>
     <use style="fill:#98df8a;stroke:#ffffff;stroke-linejoin:miter;stroke-width:0.75;" x="121.053235" xlink:href="#ma13065d70b" y="111.828525"/>
     <use style="fill:#98df8a;stroke:#ffffff;stroke-linejoin:miter;stroke-width:0.75;" x="124.620867" xlink:href="#ma13065d70b" y="106.990125"/>
     <use style="fill:#98df8a;stroke:#ffffff;stroke-linejoin:miter;stroke-width:0.75;" x="128.1885" xlink:href="#ma13065d70b" y="102.151725"/>
     <use style="fill:#98df8a;stroke:#ffffff;stroke-linejoin:miter;stroke-width:0.75;" x="131.756132" xlink:href="#ma13065d70b" y="102.151725"/>
     <use style="fill:#98df8a;stroke:#ffffff;stroke-linejoin:miter;stroke-width:0.75;" x="135.323764" xlink:href="#ma13065d70b" y="102.151725"/>
     <use style="fill:#98df8a;stroke:#ffffff;stroke-linejoin:miter;stroke-width:0.75;" x="138.891397" xlink:href="#ma13065d70b" y="102.151725"/>
     <use style="fill:#98df8a;stroke:#ffffff;stroke-linejoin:miter;stroke-width:0.75;" x="142.459029" xlink:href="#ma13065d70b" y="92.474925"/>
     <use style="fill:#98df8a;stroke:#ffffff;stroke-linejoin:miter;stroke-width:0.75;" x="146.026661" xlink:href="#ma13065d70b" y="82.798125"/>
     <use style="fill:#98df8a;stroke:#ffffff;stroke-linejoin:miter;stroke-width:0.75;" x="149.594294" xlink:href="#ma13065d70b" y="82.798125"/>
     <use style="fill:#98df8a;stroke:#ffffff;stroke-linejoin:miter;stroke-width:0.75;" x="153.161926" xlink:href="#ma13065d70b" y="82.798125"/>
     <use style="fill:#98df8a;stroke:#ffffff;stroke-linejoin:miter;stroke-width:0.75;" x="156.729559" xlink:href="#ma13065d70b" y="82.798125"/>
     <use style="fill:#98df8a;stroke:#ffffff;stroke-linejoin:miter;stroke-width:0.75;" x="160.297191" xlink:href="#ma13065d70b" y="82.798125"/>
     <use style="fill:#98df8a;stroke:#ffffff;stroke-linejoin:miter;stroke-width:0.75;" x="163.864823" xlink:href="#ma13065d70b" y="82.798125"/>
     <use style="fill:#98df8a;stroke:#ffffff;stroke-linejoin:miter;stroke-width:0.75;" x="167.432456" xlink:href="#ma13065d70b" y="82.798125"/>
     <use style="fill:#98df8a;stroke:#ffffff;stroke-linejoin:miter;stroke-width:0.75;" x="171.000088" xlink:href="#ma13065d70b" y="82.798125"/>
     <use style="fill:#98df8a;stroke:#ffffff;stroke-linejoin:miter;stroke-width:0.75;" x="174.56772" xlink:href="#ma13065d70b" y="82.798125"/>
     <use style="fill:#98df8a;stroke:#ffffff;stroke-linejoin:miter;stroke-width:0.75;" x="178.135353" xlink:href="#ma13065d70b" y="82.798125"/>
     <use style="fill:#98df8a;stroke:#ffffff;stroke-linejoin:miter;stroke-width:0.75;" x="181.702985" xlink:href="#ma13065d70b" y="82.798125"/>
     <use style="fill:#98df8a;stroke:#ffffff;stroke-linejoin:miter;stroke-width:0.75;" x="185.270618" xlink:href="#ma13065d70b" y="82.798125"/>
     <use style="fill:#98df8a;stroke:#ffffff;stroke-linejoin:miter;stroke-width:0.75;" x="188.83825" xlink:href="#ma13065d70b" y="77.959725"/>
     <use style="fill:#98df8a;stroke:#ffffff;stroke-linejoin:miter;stroke-width:0.75;" x="192.405882" xlink:href="#ma13065d70b" y="77.959725"/>
     <use style="fill:#98df8a;stroke:#ffffff;stroke-linejoin:miter;stroke-width:0.75;" x="195.973515" xlink:href="#ma13065d70b" y="82.798125"/>
     <use style="fill:#98df8a;stroke:#ffffff;stroke-linejoin:miter;stroke-width:0.75;" x="199.541147" xlink:href="#ma13065d70b" y="82.798125"/>
     <use style="fill:#98df8a;stroke:#ffffff;stroke-linejoin:miter;stroke-width:0.75;" x="203.108779" xlink:href="#ma13065d70b" y="87.636525"/>
     <use style="fill:#98df8a;stroke:#ffffff;stroke-linejoin:miter;stroke-width:0.75;" x="206.676412" xlink:href="#ma13065d70b" y="77.959725"/>
     <use style="fill:#98df8a;stroke:#ffffff;stroke-linejoin:miter;stroke-width:0.75;" x="210.244044" xlink:href="#ma13065d70b" y="77.959725"/>
     <use style="fill:#98df8a;stroke:#ffffff;stroke-linejoin:miter;stroke-width:0.75;" x="213.811676" xlink:href="#ma13065d70b" y="73.121325"/>
     <use style="fill:#98df8a;stroke:#ffffff;stroke-linejoin:miter;stroke-width:0.75;" x="217.379309" xlink:href="#ma13065d70b" y="82.798125"/>
     <use style="fill:#98df8a;stroke:#ffffff;stroke-linejoin:miter;stroke-width:0.75;" x="220.946941" xlink:href="#ma13065d70b" y="73.121325"/>
     <use style="fill:#98df8a;stroke:#ffffff;stroke-linejoin:miter;stroke-width:0.75;" x="224.514574" xlink:href="#ma13065d70b" y="73.121325"/>
     <use style="fill:#98df8a;stroke:#ffffff;stroke-linejoin:miter;stroke-width:0.75;" x="228.082206" xlink:href="#ma13065d70b" y="73.121325"/>
     <use style="fill:#98df8a;stroke:#ffffff;stroke-linejoin:miter;stroke-width:0.75;" x="231.649838" xlink:href="#ma13065d70b" y="73.121325"/>
     <use style="fill:#98df8a;stroke:#ffffff;stroke-linejoin:miter;stroke-width:0.75;" x="235.217471" xlink:href="#ma13065d70b" y="77.959725"/>
     <use style="fill:#98df8a;stroke:#ffffff;stroke-linejoin:miter;stroke-width:0.75;" x="238.785103" xlink:href="#ma13065d70b" y="73.121325"/>
     <use style="fill:#98df8a;stroke:#ffffff;stroke-linejoin:miter;stroke-width:0.75;" x="242.352735" xlink:href="#ma13065d70b" y="68.282925"/>
     <use style="fill:#98df8a;stroke:#ffffff;stroke-linejoin:miter;stroke-width:0.75;" x="245.920368" xlink:href="#ma13065d70b" y="73.121325"/>
     <use style="fill:#98df8a;stroke:#ffffff;stroke-linejoin:miter;stroke-width:0.75;" x="249.488" xlink:href="#ma13065d70b" y="73.121325"/>
     <use style="fill:#98df8a;stroke:#ffffff;stroke-linejoin:miter;stroke-width:0.75;" x="253.055632" xlink:href="#ma13065d70b" y="68.282925"/>
     <use style="fill:#98df8a;stroke:#ffffff;stroke-linejoin:miter;stroke-width:0.75;" x="256.623265" xlink:href="#ma13065d70b" y="73.121325"/>
     <use style="fill:#98df8a;stroke:#ffffff;stroke-linejoin:miter;stroke-width:0.75;" x="260.190897" xlink:href="#ma13065d70b" y="63.444525"/>
     <use style="fill:#98df8a;stroke:#ffffff;stroke-linejoin:miter;stroke-width:0.75;" x="263.75853" xlink:href="#ma13065d70b" y="63.444525"/>
     <use style="fill:#98df8a;stroke:#ffffff;stroke-linejoin:miter;stroke-width:0.75;" x="267.326162" xlink:href="#ma13065d70b" y="63.444525"/>
     <use style="fill:#98df8a;stroke:#ffffff;stroke-linejoin:miter;stroke-width:0.75;" x="270.893794" xlink:href="#ma13065d70b" y="63.444525"/>
     <use style="fill:#98df8a;stroke:#ffffff;stroke-linejoin:miter;stroke-width:0.75;" x="274.461427" xlink:href="#ma13065d70b" y="68.282925"/>
     <use style="fill:#98df8a;stroke:#ffffff;stroke-linejoin:miter;stroke-width:0.75;" x="278.029059" xlink:href="#ma13065d70b" y="63.444525"/>
     <use style="fill:#98df8a;stroke:#ffffff;stroke-linejoin:miter;stroke-width:0.75;" x="281.596691" xlink:href="#ma13065d70b" y="68.282925"/>
     <use style="fill:#98df8a;stroke:#ffffff;stroke-linejoin:miter;stroke-width:0.75;" x="285.164324" xlink:href="#ma13065d70b" y="63.444525"/>
     <use style="fill:#98df8a;stroke:#ffffff;stroke-linejoin:miter;stroke-width:0.75;" x="288.731956" xlink:href="#ma13065d70b" y="68.282925"/>
     <use style="fill:#98df8a;stroke:#ffffff;stroke-linejoin:miter;stroke-width:0.75;" x="292.299589" xlink:href="#ma13065d70b" y="73.121325"/>
     <use style="fill:#98df8a;stroke:#ffffff;stroke-linejoin:miter;stroke-width:0.75;" x="295.867221" xlink:href="#ma13065d70b" y="68.282925"/>
     <use style="fill:#98df8a;stroke:#ffffff;stroke-linejoin:miter;stroke-width:0.75;" x="299.434853" xlink:href="#ma13065d70b" y="73.121325"/>
     <use style="fill:#98df8a;stroke:#ffffff;stroke-linejoin:miter;stroke-width:0.75;" x="303.002486" xlink:href="#ma13065d70b" y="73.121325"/>
     <use style="fill:#98df8a;stroke:#ffffff;stroke-linejoin:miter;stroke-width:0.75;" x="306.570118" xlink:href="#ma13065d70b" y="68.282925"/>
     <use style="fill:#98df8a;stroke:#ffffff;stroke-linejoin:miter;stroke-width:0.75;" x="310.13775" xlink:href="#ma13065d70b" y="63.444525"/>
     <use style="fill:#98df8a;stroke:#ffffff;stroke-linejoin:miter;stroke-width:0.75;" x="313.705383" xlink:href="#ma13065d70b" y="68.282925"/>
     <use style="fill:#98df8a;stroke:#ffffff;stroke-linejoin:miter;stroke-width:0.75;" x="317.273015" xlink:href="#ma13065d70b" y="63.444525"/>
     <use style="fill:#98df8a;stroke:#ffffff;stroke-linejoin:miter;stroke-width:0.75;" x="320.840647" xlink:href="#ma13065d70b" y="63.444525"/>
     <use style="fill:#98df8a;stroke:#ffffff;stroke-linejoin:miter;stroke-width:0.75;" x="324.40828" xlink:href="#ma13065d70b" y="63.444525"/>
     <use style="fill:#98df8a;stroke:#ffffff;stroke-linejoin:miter;stroke-width:0.75;" x="327.975912" xlink:href="#ma13065d70b" y="63.444525"/>
     <use style="fill:#98df8a;stroke:#ffffff;stroke-linejoin:miter;stroke-width:0.75;" x="331.543545" xlink:href="#ma13065d70b" y="63.444525"/>
     <use style="fill:#98df8a;stroke:#ffffff;stroke-linejoin:miter;stroke-width:0.75;" x="335.111177" xlink:href="#ma13065d70b" y="63.444525"/>
     <use style="fill:#98df8a;stroke:#ffffff;stroke-linejoin:miter;stroke-width:0.75;" x="338.678809" xlink:href="#ma13065d70b" y="63.444525"/>
     <use style="fill:#98df8a;stroke:#ffffff;stroke-linejoin:miter;stroke-width:0.75;" x="342.246442" xlink:href="#ma13065d70b" y="63.444525"/>
     <use style="fill:#98df8a;stroke:#ffffff;stroke-linejoin:miter;stroke-width:0.75;" x="345.814074" xlink:href="#ma13065d70b" y="58.606125"/>
     <use style="fill:#98df8a;stroke:#ffffff;stroke-linejoin:miter;stroke-width:0.75;" x="349.381706" xlink:href="#ma13065d70b" y="63.444525"/>
     <use style="fill:#98df8a;stroke:#ffffff;stroke-linejoin:miter;stroke-width:0.75;" x="352.949339" xlink:href="#ma13065d70b" y="63.444525"/>
     <use style="fill:#98df8a;stroke:#ffffff;stroke-linejoin:miter;stroke-width:0.75;" x="356.516971" xlink:href="#ma13065d70b" y="58.606125"/>
     <use style="fill:#98df8a;stroke:#ffffff;stroke-linejoin:miter;stroke-width:0.75;" x="360.084604" xlink:href="#ma13065d70b" y="63.444525"/>
     <use style="fill:#98df8a;stroke:#ffffff;stroke-linejoin:miter;stroke-width:0.75;" x="363.652236" xlink:href="#ma13065d70b" y="63.444525"/>
     <use style="fill:#98df8a;stroke:#ffffff;stroke-linejoin:miter;stroke-width:0.75;" x="367.219868" xlink:href="#ma13065d70b" y="63.444525"/>
     <use style="fill:#98df8a;stroke:#ffffff;stroke-linejoin:miter;stroke-width:0.75;" x="370.787501" xlink:href="#ma13065d70b" y="63.444525"/>
     <use style="fill:#98df8a;stroke:#ffffff;stroke-linejoin:miter;stroke-width:0.75;" x="374.355133" xlink:href="#ma13065d70b" y="63.444525"/>
     <use style="fill:#98df8a;stroke:#ffffff;stroke-linejoin:miter;stroke-width:0.75;" x="377.922765" xlink:href="#ma13065d70b" y="63.444525"/>
     <use style="fill:#98df8a;stroke:#ffffff;stroke-linejoin:miter;stroke-width:0.75;" x="381.490398" xlink:href="#ma13065d70b" y="53.767725"/>
    </g>
   </g>
   <g id="line2d_14">
    <path clip-path="url(#pda1402ee60)" d="M 56.835852 247.303725 
L 60.403485 218.273325 
L 63.971117 198.919725 
L 67.538749 208.596525 
L 71.106382 184.404525 
L 74.674014 179.566125 
L 78.241646 169.889325 
L 81.809279 160.212525 
L 85.376911 160.212525 
L 88.944544 160.212525 
L 92.512176 160.212525 
L 96.079808 160.212525 
L 99.647441 150.535725 
L 103.215073 140.858925 
L 106.782705 140.858925 
L 110.350338 136.020525 
L 113.91797 131.182125 
L 117.485603 121.505325 
L 121.053235 126.343725 
L 124.620867 121.505325 
L 128.1885 126.343725 
L 131.756132 121.505325 
L 135.323764 126.343725 
L 138.891397 126.343725 
L 142.459029 111.828525 
L 146.026661 131.182125 
L 149.594294 111.828525 
L 153.161926 111.828525 
L 156.729559 111.828525 
L 160.297191 111.828525 
L 163.864823 111.828525 
L 167.432456 111.828525 
L 171.000088 121.505325 
L 174.56772 111.828525 
L 178.135353 111.828525 
L 181.702985 102.151725 
L 185.270618 102.151725 
L 188.83825 102.151725 
L 192.405882 97.313325 
L 195.973515 87.636525 
L 199.541147 97.313325 
L 203.108779 102.151725 
L 206.676412 92.474925 
L 210.244044 92.474925 
L 213.811676 92.474925 
L 217.379309 87.636525 
L 220.946941 87.636525 
L 224.514574 92.474925 
L 228.082206 87.636525 
L 231.649838 92.474925 
L 235.217471 92.474925 
L 238.785103 92.474925 
L 242.352735 92.474925 
L 245.920368 82.798125 
L 249.488 82.798125 
L 253.055632 82.798125 
L 256.623265 82.798125 
L 260.190897 92.474925 
L 263.75853 92.474925 
L 267.326162 92.474925 
L 270.893794 82.798125 
L 274.461427 92.474925 
L 278.029059 82.798125 
L 281.596691 77.959725 
L 285.164324 77.959725 
L 288.731956 77.959725 
L 292.299589 77.959725 
L 295.867221 73.121325 
L 299.434853 73.121325 
L 303.002486 73.121325 
L 306.570118 73.121325 
L 310.13775 73.121325 
L 313.705383 73.121325 
L 317.273015 68.282925 
L 320.840647 68.282925 
L 324.40828 73.121325 
L 327.975912 68.282925 
L 331.543545 68.282925 
L 335.111177 73.121325 
L 338.678809 73.121325 
L 342.246442 73.121325 
L 345.814074 73.121325 
L 349.381706 73.121325 
L 352.949339 73.121325 
L 356.516971 73.121325 
L 360.084604 73.121325 
L 363.652236 73.121325 
L 367.219868 73.121325 
L 370.787501 73.121325 
L 374.355133 73.121325 
L 377.922765 63.444525 
L 381.490398 73.121325 
" style="fill:none;stroke:#1f77b4;stroke-linecap:square;stroke-width:1.5;"/>
    <defs>
     <path d="M 0 3 
C 0.795609 3 1.55874 2.683901 2.12132 2.12132 
C 2.683901 1.55874 3 0.795609 3 0 
C 3 -0.795609 2.683901 -1.55874 2.12132 -2.12132 
C 1.55874 -2.683901 0.795609 -3 0 -3 
C -0.795609 -3 -1.55874 -2.683901 -2.12132 -2.12132 
C -2.683901 -1.55874 -3 -0.795609 -3 0 
C -3 0.795609 -2.683901 1.55874 -2.12132 2.12132 
C -1.55874 2.683901 -0.795609 3 0 3 
z
" id="m252569affd" style="stroke:#ffffff;stroke-width:0.75;"/>
    </defs>
    <g clip-path="url(#pda1402ee60)">
     <use style="fill:#1f77b4;stroke:#ffffff;stroke-width:0.75;" x="56.835852" xlink:href="#m252569affd" y="247.303725"/>
     <use style="fill:#1f77b4;stroke:#ffffff;stroke-width:0.75;" x="60.403485" xlink:href="#m252569affd" y="218.273325"/>
     <use style="fill:#1f77b4;stroke:#ffffff;stroke-width:0.75;" x="63.971117" xlink:href="#m252569affd" y="198.919725"/>
     <use style="fill:#1f77b4;stroke:#ffffff;stroke-width:0.75;" x="67.538749" xlink:href="#m252569affd" y="208.596525"/>
     <use style="fill:#1f77b4;stroke:#ffffff;stroke-width:0.75;" x="71.106382" xlink:href="#m252569affd" y="184.404525"/>
     <use style="fill:#1f77b4;stroke:#ffffff;stroke-width:0.75;" x="74.674014" xlink:href="#m252569affd" y="179.566125"/>
     <use style="fill:#1f77b4;stroke:#ffffff;stroke-width:0.75;" x="78.241646" xlink:href="#m252569affd" y="169.889325"/>
     <use style="fill:#1f77b4;stroke:#ffffff;stroke-width:0.75;" x="81.809279" xlink:href="#m252569affd" y="160.212525"/>
     <use style="fill:#1f77b4;stroke:#ffffff;stroke-width:0.75;" x="85.376911" xlink:href="#m252569affd" y="160.212525"/>
     <use style="fill:#1f77b4;stroke:#ffffff;stroke-width:0.75;" x="88.944544" xlink:href="#m252569affd" y="160.212525"/>
     <use style="fill:#1f77b4;stroke:#ffffff;stroke-width:0.75;" x="92.512176" xlink:href="#m252569affd" y="160.212525"/>
     <use style="fill:#1f77b4;stroke:#ffffff;stroke-width:0.75;" x="96.079808" xlink:href="#m252569affd" y="160.212525"/>
     <use style="fill:#1f77b4;stroke:#ffffff;stroke-width:0.75;" x="99.647441" xlink:href="#m252569affd" y="150.535725"/>
     <use style="fill:#1f77b4;stroke:#ffffff;stroke-width:0.75;" x="103.215073" xlink:href="#m252569affd" y="140.858925"/>
     <use style="fill:#1f77b4;stroke:#ffffff;stroke-width:0.75;" x="106.782705" xlink:href="#m252569affd" y="140.858925"/>
     <use style="fill:#1f77b4;stroke:#ffffff;stroke-width:0.75;" x="110.350338" xlink:href="#m252569affd" y="136.020525"/>
     <use style="fill:#1f77b4;stroke:#ffffff;stroke-width:0.75;" x="113.91797" xlink:href="#m252569affd" y="131.182125"/>
     <use style="fill:#1f77b4;stroke:#ffffff;stroke-width:0.75;" x="117.485603" xlink:href="#m252569affd" y="121.505325"/>
     <use style="fill:#1f77b4;stroke:#ffffff;stroke-width:0.75;" x="121.053235" xlink:href="#m252569affd" y="126.343725"/>
     <use style="fill:#1f77b4;stroke:#ffffff;stroke-width:0.75;" x="124.620867" xlink:href="#m252569affd" y="121.505325"/>
     <use style="fill:#1f77b4;stroke:#ffffff;stroke-width:0.75;" x="128.1885" xlink:href="#m252569affd" y="126.343725"/>
     <use style="fill:#1f77b4;stroke:#ffffff;stroke-width:0.75;" x="131.756132" xlink:href="#m252569affd" y="121.505325"/>
     <use style="fill:#1f77b4;stroke:#ffffff;stroke-width:0.75;" x="135.323764" xlink:href="#m252569affd" y="126.343725"/>
     <use style="fill:#1f77b4;stroke:#ffffff;stroke-width:0.75;" x="138.891397" xlink:href="#m252569affd" y="126.343725"/>
     <use style="fill:#1f77b4;stroke:#ffffff;stroke-width:0.75;" x="142.459029" xlink:href="#m252569affd" y="111.828525"/>
     <use style="fill:#1f77b4;stroke:#ffffff;stroke-width:0.75;" x="146.026661" xlink:href="#m252569affd" y="131.182125"/>
     <use style="fill:#1f77b4;stroke:#ffffff;stroke-width:0.75;" x="149.594294" xlink:href="#m252569affd" y="111.828525"/>
     <use style="fill:#1f77b4;stroke:#ffffff;stroke-width:0.75;" x="153.161926" xlink:href="#m252569affd" y="111.828525"/>
     <use style="fill:#1f77b4;stroke:#ffffff;stroke-width:0.75;" x="156.729559" xlink:href="#m252569affd" y="111.828525"/>
     <use style="fill:#1f77b4;stroke:#ffffff;stroke-width:0.75;" x="160.297191" xlink:href="#m252569affd" y="111.828525"/>
     <use style="fill:#1f77b4;stroke:#ffffff;stroke-width:0.75;" x="163.864823" xlink:href="#m252569affd" y="111.828525"/>
     <use style="fill:#1f77b4;stroke:#ffffff;stroke-width:0.75;" x="167.432456" xlink:href="#m252569affd" y="111.828525"/>
     <use style="fill:#1f77b4;stroke:#ffffff;stroke-width:0.75;" x="171.000088" xlink:href="#m252569affd" y="121.505325"/>
     <use style="fill:#1f77b4;stroke:#ffffff;stroke-width:0.75;" x="174.56772" xlink:href="#m252569affd" y="111.828525"/>
     <use style="fill:#1f77b4;stroke:#ffffff;stroke-width:0.75;" x="178.135353" xlink:href="#m252569affd" y="111.828525"/>
     <use style="fill:#1f77b4;stroke:#ffffff;stroke-width:0.75;" x="181.702985" xlink:href="#m252569affd" y="102.151725"/>
     <use style="fill:#1f77b4;stroke:#ffffff;stroke-width:0.75;" x="185.270618" xlink:href="#m252569affd" y="102.151725"/>
     <use style="fill:#1f77b4;stroke:#ffffff;stroke-width:0.75;" x="188.83825" xlink:href="#m252569affd" y="102.151725"/>
     <use style="fill:#1f77b4;stroke:#ffffff;stroke-width:0.75;" x="192.405882" xlink:href="#m252569affd" y="97.313325"/>
     <use style="fill:#1f77b4;stroke:#ffffff;stroke-width:0.75;" x="195.973515" xlink:href="#m252569affd" y="87.636525"/>
     <use style="fill:#1f77b4;stroke:#ffffff;stroke-width:0.75;" x="199.541147" xlink:href="#m252569affd" y="97.313325"/>
     <use style="fill:#1f77b4;stroke:#ffffff;stroke-width:0.75;" x="203.108779" xlink:href="#m252569affd" y="102.151725"/>
     <use style="fill:#1f77b4;stroke:#ffffff;stroke-width:0.75;" x="206.676412" xlink:href="#m252569affd" y="92.474925"/>
     <use style="fill:#1f77b4;stroke:#ffffff;stroke-width:0.75;" x="210.244044" xlink:href="#m252569affd" y="92.474925"/>
     <use style="fill:#1f77b4;stroke:#ffffff;stroke-width:0.75;" x="213.811676" xlink:href="#m252569affd" y="92.474925"/>
     <use style="fill:#1f77b4;stroke:#ffffff;stroke-width:0.75;" x="217.379309" xlink:href="#m252569affd" y="87.636525"/>
     <use style="fill:#1f77b4;stroke:#ffffff;stroke-width:0.75;" x="220.946941" xlink:href="#m252569affd" y="87.636525"/>
     <use style="fill:#1f77b4;stroke:#ffffff;stroke-width:0.75;" x="224.514574" xlink:href="#m252569affd" y="92.474925"/>
     <use style="fill:#1f77b4;stroke:#ffffff;stroke-width:0.75;" x="228.082206" xlink:href="#m252569affd" y="87.636525"/>
     <use style="fill:#1f77b4;stroke:#ffffff;stroke-width:0.75;" x="231.649838" xlink:href="#m252569affd" y="92.474925"/>
     <use style="fill:#1f77b4;stroke:#ffffff;stroke-width:0.75;" x="235.217471" xlink:href="#m252569affd" y="92.474925"/>
     <use style="fill:#1f77b4;stroke:#ffffff;stroke-width:0.75;" x="238.785103" xlink:href="#m252569affd" y="92.474925"/>
     <use style="fill:#1f77b4;stroke:#ffffff;stroke-width:0.75;" x="242.352735" xlink:href="#m252569affd" y="92.474925"/>
     <use style="fill:#1f77b4;stroke:#ffffff;stroke-width:0.75;" x="245.920368" xlink:href="#m252569affd" y="82.798125"/>
     <use style="fill:#1f77b4;stroke:#ffffff;stroke-width:0.75;" x="249.488" xlink:href="#m252569affd" y="82.798125"/>
     <use style="fill:#1f77b4;stroke:#ffffff;stroke-width:0.75;" x="253.055632" xlink:href="#m252569affd" y="82.798125"/>
     <use style="fill:#1f77b4;stroke:#ffffff;stroke-width:0.75;" x="256.623265" xlink:href="#m252569affd" y="82.798125"/>
     <use style="fill:#1f77b4;stroke:#ffffff;stroke-width:0.75;" x="260.190897" xlink:href="#m252569affd" y="92.474925"/>
     <use style="fill:#1f77b4;stroke:#ffffff;stroke-width:0.75;" x="263.75853" xlink:href="#m252569affd" y="92.474925"/>
     <use style="fill:#1f77b4;stroke:#ffffff;stroke-width:0.75;" x="267.326162" xlink:href="#m252569affd" y="92.474925"/>
     <use style="fill:#1f77b4;stroke:#ffffff;stroke-width:0.75;" x="270.893794" xlink:href="#m252569affd" y="82.798125"/>
     <use style="fill:#1f77b4;stroke:#ffffff;stroke-width:0.75;" x="274.461427" xlink:href="#m252569affd" y="92.474925"/>
     <use style="fill:#1f77b4;stroke:#ffffff;stroke-width:0.75;" x="278.029059" xlink:href="#m252569affd" y="82.798125"/>
     <use style="fill:#1f77b4;stroke:#ffffff;stroke-width:0.75;" x="281.596691" xlink:href="#m252569affd" y="77.959725"/>
     <use style="fill:#1f77b4;stroke:#ffffff;stroke-width:0.75;" x="285.164324" xlink:href="#m252569affd" y="77.959725"/>
     <use style="fill:#1f77b4;stroke:#ffffff;stroke-width:0.75;" x="288.731956" xlink:href="#m252569affd" y="77.959725"/>
     <use style="fill:#1f77b4;stroke:#ffffff;stroke-width:0.75;" x="292.299589" xlink:href="#m252569affd" y="77.959725"/>
     <use style="fill:#1f77b4;stroke:#ffffff;stroke-width:0.75;" x="295.867221" xlink:href="#m252569affd" y="73.121325"/>
     <use style="fill:#1f77b4;stroke:#ffffff;stroke-width:0.75;" x="299.434853" xlink:href="#m252569affd" y="73.121325"/>
     <use style="fill:#1f77b4;stroke:#ffffff;stroke-width:0.75;" x="303.002486" xlink:href="#m252569affd" y="73.121325"/>
     <use style="fill:#1f77b4;stroke:#ffffff;stroke-width:0.75;" x="306.570118" xlink:href="#m252569affd" y="73.121325"/>
     <use style="fill:#1f77b4;stroke:#ffffff;stroke-width:0.75;" x="310.13775" xlink:href="#m252569affd" y="73.121325"/>
     <use style="fill:#1f77b4;stroke:#ffffff;stroke-width:0.75;" x="313.705383" xlink:href="#m252569affd" y="73.121325"/>
     <use style="fill:#1f77b4;stroke:#ffffff;stroke-width:0.75;" x="317.273015" xlink:href="#m252569affd" y="68.282925"/>
     <use style="fill:#1f77b4;stroke:#ffffff;stroke-width:0.75;" x="320.840647" xlink:href="#m252569affd" y="68.282925"/>
     <use style="fill:#1f77b4;stroke:#ffffff;stroke-width:0.75;" x="324.40828" xlink:href="#m252569affd" y="73.121325"/>
     <use style="fill:#1f77b4;stroke:#ffffff;stroke-width:0.75;" x="327.975912" xlink:href="#m252569affd" y="68.282925"/>
     <use style="fill:#1f77b4;stroke:#ffffff;stroke-width:0.75;" x="331.543545" xlink:href="#m252569affd" y="68.282925"/>
     <use style="fill:#1f77b4;stroke:#ffffff;stroke-width:0.75;" x="335.111177" xlink:href="#m252569affd" y="73.121325"/>
     <use style="fill:#1f77b4;stroke:#ffffff;stroke-width:0.75;" x="338.678809" xlink:href="#m252569affd" y="73.121325"/>
     <use style="fill:#1f77b4;stroke:#ffffff;stroke-width:0.75;" x="342.246442" xlink:href="#m252569affd" y="73.121325"/>
     <use style="fill:#1f77b4;stroke:#ffffff;stroke-width:0.75;" x="345.814074" xlink:href="#m252569affd" y="73.121325"/>
     <use style="fill:#1f77b4;stroke:#ffffff;stroke-width:0.75;" x="349.381706" xlink:href="#m252569affd" y="73.121325"/>
     <use style="fill:#1f77b4;stroke:#ffffff;stroke-width:0.75;" x="352.949339" xlink:href="#m252569affd" y="73.121325"/>
     <use style="fill:#1f77b4;stroke:#ffffff;stroke-width:0.75;" x="356.516971" xlink:href="#m252569affd" y="73.121325"/>
     <use style="fill:#1f77b4;stroke:#ffffff;stroke-width:0.75;" x="360.084604" xlink:href="#m252569affd" y="73.121325"/>
     <use style="fill:#1f77b4;stroke:#ffffff;stroke-width:0.75;" x="363.652236" xlink:href="#m252569affd" y="73.121325"/>
     <use style="fill:#1f77b4;stroke:#ffffff;stroke-width:0.75;" x="367.219868" xlink:href="#m252569affd" y="73.121325"/>
     <use style="fill:#1f77b4;stroke:#ffffff;stroke-width:0.75;" x="370.787501" xlink:href="#m252569affd" y="73.121325"/>
     <use style="fill:#1f77b4;stroke:#ffffff;stroke-width:0.75;" x="374.355133" xlink:href="#m252569affd" y="73.121325"/>
     <use style="fill:#1f77b4;stroke:#ffffff;stroke-width:0.75;" x="377.922765" xlink:href="#m252569affd" y="63.444525"/>
     <use style="fill:#1f77b4;stroke:#ffffff;stroke-width:0.75;" x="381.490398" xlink:href="#m252569affd" y="73.121325"/>
    </g>
   </g>
   <g id="line2d_15"/>
   <g id="line2d_16"/>
   <g id="patch_3">
    <path d="M 40.603125 276.334125 
L 40.603125 34.414125 
" style="fill:none;stroke:#000000;stroke-linecap:square;stroke-linejoin:miter;stroke-width:0.8;"/>
   </g>
   <g id="patch_4">
    <path d="M 56.835852 288.430125 
L 330.354334 288.430125 
" style="fill:none;stroke:#000000;stroke-linecap:square;stroke-linejoin:miter;stroke-width:0.8;"/>
   </g>
   <g id="text_15">
    <!-- arrow_parquet-arrow-fuzz (23h, 11 trials/fuzzer) -->
    <g transform="translate(75.492188 16.318125)scale(0.12 -0.12)">
     <defs>
      <path d="M 269 3500 
L 844 3500 
L 1563 769 
L 2278 3500 
L 2956 3500 
L 3675 769 
L 4391 3500 
L 4966 3500 
L 4050 0 
L 3372 0 
L 2619 2869 
L 1863 0 
L 1184 0 
L 269 3500 
z
" id="DejaVuSans-77" transform="scale(0.015625)"/>
      <path d="M 3263 -1063 
L 3263 -1509 
L -63 -1509 
L -63 -1063 
L 3263 -1063 
z
" id="DejaVuSans-5f" transform="scale(0.015625)"/>
      <path d="M 1159 525 
L 1159 -1331 
L 581 -1331 
L 581 3500 
L 1159 3500 
L 1159 2969 
Q 1341 3281 1617 3432 
Q 1894 3584 2278 3584 
Q 2916 3584 3314 3078 
Q 3713 2572 3713 1747 
Q 3713 922 3314 415 
Q 2916 -91 2278 -91 
Q 1894 -91 1617 61 
Q 1341 213 1159 525 
z
M 3116 1747 
Q 3116 2381 2855 2742 
Q 2594 3103 2138 3103 
Q 1681 3103 1420 2742 
Q 1159 2381 1159 1747 
Q 1159 1113 1420 752 
Q 1681 391 2138 391 
Q 2594 391 2855 752 
Q 3116 1113 3116 1747 
z
" id="DejaVuSans-70" transform="scale(0.015625)"/>
      <path d="M 947 1747 
Q 947 1113 1208 752 
Q 1469 391 1925 391 
Q 2381 391 2643 752 
Q 2906 1113 2906 1747 
Q 2906 2381 2643 2742 
Q 2381 3103 1925 3103 
Q 1469 3103 1208 2742 
Q 947 2381 947 1747 
z
M 2906 525 
Q 2725 213 2448 61 
Q 2172 -91 1784 -91 
Q 1150 -91 751 415 
Q 353 922 353 1747 
Q 353 2572 751 3078 
Q 1150 3584 1784 3584 
Q 2172 3584 2448 3432 
Q 2725 3281 2906 2969 
L 2906 3500 
L 3481 3500 
L 3481 -1331 
L 2906 -1331 
L 2906 525 
z
" id="DejaVuSans-71" transform="scale(0.015625)"/>
      <path d="M 313 2009 
L 1997 2009 
L 1997 1497 
L 313 1497 
L 313 2009 
z
" id="DejaVuSans-2d" transform="scale(0.015625)"/>
      <path d="M 2375 4863 
L 2375 4384 
L 1825 4384 
Q 1516 4384 1395 4259 
Q 1275 4134 1275 3809 
L 1275 3500 
L 2222 3500 
L 2222 3053 
L 1275 3053 
L 1275 0 
L 697 0 
L 697 3053 
L 147 3053 
L 147 3500 
L 697 3500 
L 697 3744 
Q 697 4328 969 4595 
Q 1241 4863 1831 4863 
L 2375 4863 
z
" id="DejaVuSans-66" transform="scale(0.015625)"/>
      <path d="M 353 3500 
L 3084 3500 
L 3084 2975 
L 922 459 
L 3084 459 
L 3084 0 
L 275 0 
L 275 525 
L 2438 3041 
L 353 3041 
L 353 3500 
z
" id="DejaVuSans-7a" transform="scale(0.015625)"/>
      <path d="M 750 794 
L 1409 794 
L 1409 256 
L 897 -744 
L 494 -744 
L 750 256 
L 750 794 
z
" id="DejaVuSans-2c" transform="scale(0.015625)"/>
      <path d="M 603 4863 
L 1178 4863 
L 1178 0 
L 603 0 
L 603 4863 
z
" id="DejaVuSans-6c" transform="scale(0.015625)"/>
      <path d="M 2834 3397 
L 2834 2853 
Q 2591 2978 2328 3040 
Q 2066 3103 1784 3103 
Q 1356 3103 1142 2972 
Q 928 2841 928 2578 
Q 928 2378 1081 2264 
Q 1234 2150 1697 2047 
L 1894 2003 
Q 2506 1872 2764 1633 
Q 3022 1394 3022 966 
Q 3022 478 2636 193 
Q 2250 -91 1575 -91 
Q 1294 -91 989 -36 
Q 684 19 347 128 
L 347 722 
Q 666 556 975 473 
Q 1284 391 1588 391 
Q 1994 391 2212 530 
Q 2431 669 2431 922 
Q 2431 1156 2273 1281 
Q 2116 1406 1581 1522 
L 1381 1569 
Q 847 1681 609 1914 
Q 372 2147 372 2553 
Q 372 3047 722 3315 
Q 1072 3584 1716 3584 
Q 2034 3584 2315 3537 
Q 2597 3491 2834 3397 
z
" id="DejaVuSans-73" transform="scale(0.015625)"/>
      <path d="M 1625 4666 
L 2156 4666 
L 531 -594 
L 0 -594 
L 1625 4666 
z
" id="DejaVuSans-2f" transform="scale(0.015625)"/>
     </defs>
     <use xlink:href="#DejaVuSans-61"/>
     <use x="61.279297" xlink:href="#DejaVuSans-72"/>
     <use x="100.642578" xlink:href="#DejaVuSans-72"/>
     <use x="139.505859" xlink:href="#DejaVuSans-6f"/>
     <use x="200.6875" xlink:href="#DejaVuSans-77"/>
     <use x="282.474609" xlink:href="#DejaVuSans-5f"/>
     <use x="332.474609" xlink:href="#DejaVuSans-70"/>
     <use x="395.951172" xlink:href="#DejaVuSans-61"/>
     <use x="457.230469" xlink:href="#DejaVuSans-72"/>
     <use x="496.59375" xlink:href="#DejaVuSans-71"/>
     <use x="560.070312" xlink:href="#DejaVuSans-75"/>
     <use x="623.449219" xlink:href="#DejaVuSans-65"/>
     <use x="684.972656" xlink:href="#DejaVuSans-74"/>
     <use x="724.181641" xlink:href="#DejaVuSans-2d"/>
     <use x="760.265625" xlink:href="#DejaVuSans-61"/>
     <use x="821.544922" xlink:href="#DejaVuSans-72"/>
     <use x="860.908203" xlink:href="#DejaVuSans-72"/>
     <use x="899.771484" xlink:href="#DejaVuSans-6f"/>
     <use x="960.953125" xlink:href="#DejaVuSans-77"/>
     <use x="1042.740234" xlink:href="#DejaVuSans-2d"/>
     <use x="1078.824219" xlink:href="#DejaVuSans-66"/>
     <use x="1114.029297" xlink:href="#DejaVuSans-75"/>
     <use x="1177.408203" xlink:href="#DejaVuSans-7a"/>
     <use x="1229.898438" xlink:href="#DejaVuSans-7a"/>
     <use x="1282.388672" xlink:href="#DejaVuSans-20"/>
     <use x="1314.175781" xlink:href="#DejaVuSans-28"/>
     <use x="1353.189453" xlink:href="#DejaVuSans-32"/>
     <use x="1416.8125" xlink:href="#DejaVuSans-33"/>
     <use x="1480.435547" xlink:href="#DejaVuSans-68"/>
     <use x="1543.814453" xlink:href="#DejaVuSans-2c"/>
     <use x="1575.601562" xlink:href="#DejaVuSans-20"/>
     <use x="1607.388672" xlink:href="#DejaVuSans-31"/>
     <use x="1671.011719" xlink:href="#DejaVuSans-31"/>
     <use x="1734.634766" xlink:href="#DejaVuSans-20"/>
     <use x="1766.421875" xlink:href="#DejaVuSans-74"/>
     <use x="1805.630859" xlink:href="#DejaVuSans-72"/>
     <use x="1846.744141" xlink:href="#DejaVuSans-69"/>
     <use x="1874.527344" xlink:href="#DejaVuSans-61"/>
     <use x="1935.806641" xlink:href="#DejaVuSans-6c"/>
     <use x="1963.589844" xlink:href="#DejaVuSans-73"/>
     <use x="2015.689453" xlink:href="#DejaVuSans-2f"/>
     <use x="2049.380859" xlink:href="#DejaVuSans-66"/>
     <use x="2084.585938" xlink:href="#DejaVuSans-75"/>
     <use x="2147.964844" xlink:href="#DejaVuSans-7a"/>
     <use x="2200.455078" xlink:href="#DejaVuSans-7a"/>
     <use x="2252.945312" xlink:href="#DejaVuSans-65"/>
     <use x="2314.46875" xlink:href="#DejaVuSans-72"/>
     <use x="2355.582031" xlink:href="#DejaVuSans-29"/>
    </g>
   </g>
   <g id="legend_1">
    <g id="line2d_17">
     <path d="M 401.723125 30.416562 
L 421.723125 30.416562 
" style="fill:none;stroke:#98df8a;stroke-linecap:square;stroke-width:1.5;"/>
    </g>
    <g id="line2d_18">
     <defs>
      <path d="M -0 3 
L 3 -3 
L -3 -3 
z
" id="mdf692b6abb" style="stroke:#98df8a;stroke-linejoin:miter;"/>
     </defs>
     <g>
      <use style="fill:#98df8a;stroke:#98df8a;stroke-linejoin:miter;" x="411.723125" xlink:href="#mdf692b6abb" y="30.416562"/>
     </g>
    </g>
    <g id="text_16">
     <!-- afl_no_trim -->
     <g transform="translate(429.723125 33.916562)scale(0.1 -0.1)">
      <use xlink:href="#DejaVuSans-61"/>
      <use x="61.279297" xlink:href="#DejaVuSans-66"/>
      <use x="96.484375" xlink:href="#DejaVuSans-6c"/>
      <use x="124.267578" xlink:href="#DejaVuSans-5f"/>
      <use x="174.267578" xlink:href="#DejaVuSans-6e"/>
      <use x="237.646484" xlink:href="#DejaVuSans-6f"/>
      <use x="298.828125" xlink:href="#DejaVuSans-5f"/>
      <use x="348.828125" xlink:href="#DejaVuSans-74"/>
      <use x="388.037109" xlink:href="#DejaVuSans-72"/>
      <use x="429.150391" xlink:href="#DejaVuSans-69"/>
      <use x="456.933594" xlink:href="#DejaVuSans-6d"/>
     </g>
    </g>
    <g id="line2d_19">
     <path d="M 401.723125 45.372813 
L 421.723125 45.372813 
" style="fill:none;stroke:#1f77b4;stroke-linecap:square;stroke-width:1.5;"/>
    </g>
    <g id="line2d_20">
     <defs>
      <path d="M 0 3 
C 0.795609 3 1.55874 2.683901 2.12132 2.12132 
C 2.683901 1.55874 3 0.795609 3 0 
C 3 -0.795609 2.683901 -1.55874 2.12132 -2.12132 
C 1.55874 -2.683901 0.795609 -3 0 -3 
C -0.795609 -3 -1.55874 -2.683901 -2.12132 -2.12132 
C -2.683901 -1.55874 -3 -0.795609 -3 0 
C -3 0.795609 -2.683901 1.55874 -2.12132 2.12132 
C -1.55874 2.683901 -0.795609 3 0 3 
z
" id="mf0a9879d29" style="stroke:#1f77b4;"/>
     </defs>
     <g>
      <use style="fill:#1f77b4;stroke:#1f77b4;" x="411.723125" xlink:href="#mf0a9879d29" y="45.372813"/>
     </g>
    </g>
    <g id="text_17">
     <!-- afl -->
     <g transform="translate(429.723125 48.872813)scale(0.1 -0.1)">
      <use xlink:href="#DejaVuSans-61"/>
      <use x="61.279297" xlink:href="#DejaVuSans-66"/>
      <use x="96.484375" xlink:href="#DejaVuSans-6c"/>
     </g>
    </g>
   </g>
  </g>
 </g>
 <defs>
  <clipPath id="pda1402ee60">
   <rect height="266.112" width="357.12" x="40.603125" y="22.318125"/>
  </clipPath>
 </defs>
</svg>
