<?xml version="1.0" encoding="utf-8" standalone="no"?>
<!DOCTYPE svg PUBLIC "-//W3C//DTD SVG 1.1//EN"
  "http://www.w3.org/Graphics/SVG/1.1/DTD/svg11.dtd">
<svg height="325.986375pt" version="1.1" viewBox="0 0 509.080937 325.986375" width="509.080937pt" xmlns="http://www.w3.org/2000/svg" xmlns:xlink="http://www.w3.org/1999/xlink">
 <metadata>
  <rdf:RDF xmlns:cc="http://creativecommons.org/ns#" xmlns:dc="http://purl.org/dc/elements/1.1/" xmlns:rdf="http://www.w3.org/1999/02/22-rdf-syntax-ns#">
   <cc:Work>
    <dc:type rdf:resource="http://purl.org/dc/dcmitype/StillImage"/>
    <dc:date>2022-05-31T17:02:52.269494</dc:date>
    <dc:format>image/svg+xml</dc:format>
    <dc:creator>
     <cc:Agent>
      <dc:title>Matplotlib v3.4.3, https://matplotlib.org/</dc:title>
     </cc:Agent>
    </dc:creator>
   </cc:Work>
  </rdf:RDF>
 </metadata>
 <defs>
  <style type="text/css">*{stroke-linecap:butt;stroke-linejoin:round;}</style>
 </defs>
 <g id="figure_1">
  <g id="patch_1">
   <path d="M 0 325.986375 
L 509.080937 325.986375 
L 509.080937 0 
L 0 0 
z
" style="fill:#ffffff;"/>
  </g>
  <g id="axes_1">
   <g id="patch_2">
    <path d="M 53.328125 288.430125 
L 410.448125 288.430125 
L 410.448125 22.318125 
L 53.328125 22.318125 
z
" style="fill:#ffffff;"/>
   </g>
   <g id="PolyCollection_1">
    <defs>
     <path d="M 69.560852 -136.048705 
L 69.560852 -49.65225 
L 73.128485 -145.77513 
L 76.696117 -159.273025 
L 80.263749 -172.473173 
L 83.831382 -173.465665 
L 87.399014 -177.038638 
L 90.966646 -177.038638 
L 94.534279 -176.889764 
L 98.101911 -179.519868 
L 101.669544 -183.390588 
L 105.237176 -183.390588 
L 108.804808 -184.333456 
L 112.372441 -186.715438 
L 115.940073 -190.735032 
L 119.507705 -191.181653 
L 123.075338 -191.132028 
L 126.64297 -191.727524 
L 130.210603 -191.72008 
L 133.778235 -191.727524 
L 137.345867 -191.727524 
L 140.9135 -193.216262 
L 144.481132 -193.216262 
L 148.048764 -193.216262 
L 151.616397 -193.216262 
L 155.184029 -193.613259 
L 158.751661 -194.010256 
L 162.319294 -194.000331 
L 165.886926 -196.09449 
L 169.454559 -196.09449 
L 173.022191 -196.09449 
L 176.589823 -195.945616 
L 180.157456 -198.724595 
L 183.725088 -198.724595 
L 187.29272 -198.724595 
L 190.860353 -201.354699 
L 194.427985 -200.461456 
L 197.995618 -200.759204 
L 201.56325 -204.828422 
L 205.130882 -221.006047 
L 208.698515 -221.006047 
L 212.266147 -221.502293 
L 215.833779 -221.502293 
L 219.401412 -221.502293 
L 222.969044 -220.926648 
L 226.536676 -221.502293 
L 230.104309 -221.502293 
L 233.671941 -222.296287 
L 237.239574 -214.405973 
L 240.807206 -214.604472 
L 244.374838 -214.604472 
L 247.942471 -214.604472 
L 251.510103 -221.378232 
L 255.077735 -222.693284 
L 258.645368 -214.604472 
L 262.213 -222.693284 
L 265.780632 -222.693284 
L 269.348265 -222.693284 
L 272.915897 -222.693284 
L 276.48353 -225.968508 
L 280.051162 -225.968508 
L 283.618794 -216.639081 
L 287.186427 -225.968508 
L 290.754059 -225.735273 
L 294.321691 -225.968508 
L 297.889324 -216.787955 
L 301.456956 -226.167007 
L 305.024589 -217.532324 
L 308.592221 -226.167007 
L 312.159853 -217.581948 
L 315.727486 -217.581948 
L 319.295118 -226.266256 
L 322.86275 -217.581948 
L 326.430383 -226.266256 
L 329.998015 -226.266256 
L 333.565647 -226.266256 
L 337.13328 -226.266256 
L 340.700912 -226.861752 
L 344.268545 -226.861752 
L 347.836177 -227.70537 
L 351.403809 -227.70537 
L 354.971442 -230.682847 
L 358.539074 -231.650527 
L 362.106706 -227.70537 
L 365.674339 -251.922182 
L 369.241971 -252.368804 
L 372.809604 -259.415499 
L 376.377236 -259.415499 
L 379.944868 -259.613998 
L 383.512501 -259.611516 
L 387.080133 -259.514748 
L 390.647765 -259.514748 
L 394.215398 -259.514748 
L 394.215398 -275.047253 
L 394.215398 -275.047253 
L 390.647765 -277.975105 
L 387.080133 -277.975105 
L 383.512501 -277.975105 
L 379.944868 -274.203635 
L 376.377236 -274.104385 
L 372.809604 -274.104385 
L 369.241971 -270.134416 
L 365.674339 -269.141924 
L 362.106706 -268.844176 
L 358.539074 -269.141924 
L 354.971442 -269.141924 
L 351.403809 -269.141924 
L 347.836177 -269.141924 
L 344.268545 -268.794552 
L 340.700912 -268.794552 
L 337.13328 -270.035167 
L 333.565647 -270.035167 
L 329.998015 -268.248681 
L 326.430383 -268.248681 
L 322.86275 -267.656907 
L 319.295118 -267.752435 
L 315.727486 -267.603561 
L 312.159853 -267.752435 
L 308.592221 -267.603561 
L 305.024589 -267.553936 
L 301.456956 -267.555177 
L 297.889324 -266.959681 
L 294.321691 -266.958441 
L 290.754059 -266.958441 
L 287.186427 -266.958441 
L 283.618794 -265.023081 
L 280.051162 -265.271204 
L 276.48353 -265.271204 
L 272.915897 -265.271204 
L 269.348265 -265.271204 
L 265.780632 -265.271204 
L 262.213 -264.377961 
L 258.645368 -264.377961 
L 255.077735 -264.328336 
L 251.510103 -263.484718 
L 247.942471 -264.328336 
L 244.374838 -263.484718 
L 240.807206 -263.385468 
L 237.239574 -264.278712 
L 233.671941 -263.236595 
L 230.104309 -263.236595 
L 226.536676 -263.087721 
L 222.969044 -263.087721 
L 219.401412 -261.598982 
L 215.833779 -261.598982 
L 212.266147 -261.598982 
L 208.698515 -261.598982 
L 205.130882 -261.598982 
L 201.56325 -261.598982 
L 197.995618 -258.522256 
L 194.427985 -260.209493 
L 190.860353 -255.495155 
L 187.29272 -255.495155 
L 183.725088 -253.262047 
L 180.157456 -253.262047 
L 176.589823 -253.262047 
L 173.022191 -253.262047 
L 169.454559 -253.262047 
L 165.886926 -253.262047 
L 162.319294 -253.262047 
L 158.751661 -252.170305 
L 155.184029 -250.780816 
L 151.616397 -248.299585 
L 148.048764 -248.299585 
L 144.481132 -248.299585 
L 140.9135 -247.70409 
L 137.345867 -243.039376 
L 133.778235 -239.168656 
L 130.210603 -239.565653 
L 126.64297 -238.67241 
L 123.075338 -238.578123 
L 119.507705 -238.771659 
L 115.940073 -237.977665 
L 112.372441 -234.404693 
L 108.804808 -232.370084 
L 105.237176 -231.030219 
L 101.669544 -214.852595 
L 98.101911 -197.186232 
L 94.534279 -193.861382 
L 90.966646 -192.323019 
L 87.399014 -189.544041 
L 83.831382 -187.658305 
L 80.263749 -185.474822 
L 76.696117 -172.770921 
L 73.128485 -164.688312 
L 69.560852 -136.048705 
z
" id="m0ccd6dcd74" style="stroke:#98df8a;stroke-opacity:0.2;"/>
    </defs>
    <g clip-path="url(#p4c15790220)">
     <use style="fill:#98df8a;fill-opacity:0.2;stroke:#98df8a;stroke-opacity:0.2;" x="0" xlink:href="#m0ccd6dcd74" y="325.986375"/>
    </g>
   </g>
   <g id="PolyCollection_2">
    <defs>
     <path d="M 69.560852 -155.054933 
L 69.560852 -64.688508 
L 73.128485 -136.842699 
L 76.696117 -148.157112 
L 80.263749 -154.955684 
L 83.831382 -160.166268 
L 87.399014 -176.046145 
L 90.966646 -180.115364 
L 94.534279 -181.207105 
L 98.101911 -181.504853 
L 101.669544 -182.001099 
L 105.237176 -181.703352 
L 108.804808 -181.703352 
L 112.372441 -185.524447 
L 115.940073 -185.673321 
L 119.507705 -187.757555 
L 123.075338 -187.757555 
L 126.64297 -187.757555 
L 130.210603 -187.757555 
L 133.778235 -190.139536 
L 137.345867 -190.139536 
L 140.9135 -188.650798 
L 144.481132 -190.139536 
L 148.048764 -189.841788 
L 151.616397 -191.380152 
L 155.184029 -191.380152 
L 158.751661 -192.174145 
L 162.319294 -194.109505 
L 165.886926 -197.919435 
L 169.454559 -197.483979 
L 173.022191 -190.735032 
L 176.589823 -190.834281 
L 180.157456 -198.178724 
L 183.725088 -205.523167 
L 187.29272 -205.523167 
L 190.860353 -196.73961 
L 194.427985 -196.938108 
L 197.995618 -197.434355 
L 201.56325 -199.717087 
L 205.130882 -207.210404 
L 208.698515 -209.145764 
L 212.266147 -209.145764 
L 215.833779 -207.408902 
L 219.401412 -198.277973 
L 222.969044 -202.54569 
L 226.536676 -206.813407 
L 230.104309 -206.813407 
L 233.671941 -204.034428 
L 237.239574 -207.508152 
L 240.807206 -207.607401 
L 244.374838 -207.607401 
L 247.942471 -200.560705 
L 251.510103 -200.560705 
L 255.077735 -200.560705 
L 258.645368 -207.607401 
L 262.213 -207.607401 
L 265.780632 -211.378872 
L 269.348265 -207.607401 
L 272.915897 -207.905148 
L 276.48353 -200.560705 
L 280.051162 -200.560705 
L 283.618794 -204.332176 
L 287.186427 -204.332176 
L 290.754059 -204.332176 
L 294.321691 -204.332176 
L 297.889324 -208.103647 
L 301.456956 -208.103647 
L 305.024589 -211.533948 
L 308.592221 -209.840508 
L 312.159853 -208.103647 
L 315.727486 -200.560705 
L 319.295118 -201.553198 
L 322.86275 -204.814776 
L 326.430383 -201.553198 
L 329.998015 -208.103647 
L 333.565647 -208.103647 
L 337.13328 -205.026921 
L 340.700912 -208.103647 
L 344.268545 -205.026921 
L 347.836177 -208.103647 
L 351.403809 -205.820915 
L 354.971442 -201.950195 
L 358.539074 -201.950195 
L 362.106706 -205.820915 
L 365.674339 -209.691635 
L 369.241971 -209.691635 
L 372.809604 -216.63784 
L 376.377236 -210.584878 
L 379.944868 -210.584878 
L 383.512501 -203.240435 
L 387.080133 -206.912656 
L 390.647765 -220.212053 
L 394.215398 -211.726244 
L 394.215398 -289.984262 
L 394.215398 -289.984262 
L 390.647765 -288.594773 
L 387.080133 -288.594773 
L 383.512501 -288.594773 
L 379.944868 -288.594773 
L 376.377236 -288.594773 
L 372.809604 -288.594773 
L 369.241971 -288.594773 
L 365.674339 -288.495524 
L 362.106706 -278.471352 
L 358.539074 -288.297025 
L 354.971442 -288.297025 
L 351.403809 -277.677358 
L 347.836177 -286.907536 
L 344.268545 -288.34665 
L 340.700912 -288.495524 
L 337.13328 -287.70153 
L 333.565647 -286.907536 
L 329.998015 -286.907536 
L 326.430383 -286.907536 
L 322.86275 -287.05641 
L 319.295118 -284.525555 
L 315.727486 -284.525555 
L 312.159853 -284.525555 
L 308.592221 -284.525555 
L 305.024589 -285.964668 
L 301.456956 -285.993203 
L 297.889324 -286.808287 
L 294.321691 -285.071425 
L 290.754059 -266.958441 
L 287.186427 -266.958441 
L 283.618794 -271.722404 
L 280.051162 -282.342072 
L 276.48353 -281.746576 
L 272.915897 -281.349579 
L 269.348265 -283.681936 
L 265.780632 -286.41129 
L 262.213 -286.41129 
L 258.645368 -279.463844 
L 255.077735 -262.690724 
L 251.510103 -261.797481 
L 247.942471 -261.797481 
L 244.374838 -261.797481 
L 240.807206 -261.797481 
L 237.239574 -278.967598 
L 233.671941 -265.299738 
L 230.104309 -261.797481 
L 226.536676 -262.221771 
L 222.969044 -252.765801 
L 219.401412 -261.797481 
L 215.833779 -278.074355 
L 212.266147 -291.57225 
L 208.698515 -291.57225 
L 205.130882 -276.982613 
L 201.56325 -275.990121 
L 197.995618 -264.229087 
L 194.427985 -264.229087 
L 190.860353 -264.030588 
L 187.29272 -276.486367 
L 183.725088 -275.196127 
L 180.157456 -274.898379 
L 176.589823 -274.699881 
L 173.022191 -272.417148 
L 169.454559 -272.417148 
L 165.886926 -261.847105 
L 162.319294 -251.277062 
L 158.751661 -261.698232 
L 155.184029 -261.698232 
L 151.616397 -255.892152 
L 148.048764 -255.544779 
L 144.481132 -249.490576 
L 140.9135 -249.490576 
L 137.345867 -244.925112 
L 133.778235 -242.642379 
L 130.210603 -233.015204 
L 126.64297 -233.015204 
L 123.075338 -232.915955 
L 119.507705 -232.915955 
L 115.940073 -237.282921 
L 112.372441 -237.282921 
L 108.804808 -232.618207 
L 105.237176 -232.618207 
L 101.669544 -199.468964 
L 98.101911 -231.427216 
L 94.534279 -228.945985 
L 90.966646 -204.993424 
L 87.399014 -196.193739 
L 83.831382 -195.895992 
L 80.263749 -189.941038 
L 76.696117 -178.328878 
L 73.128485 -172.820545 
L 69.560852 -155.054933 
z
" id="m430b395646" style="stroke:#1f77b4;stroke-opacity:0.2;"/>
    </defs>
    <g clip-path="url(#p4c15790220)">
     <use style="fill:#1f77b4;fill-opacity:0.2;stroke:#1f77b4;stroke-opacity:0.2;" x="0" xlink:href="#m430b395646" y="325.986375"/>
    </g>
   </g>
   <g id="matplotlib.axis_1">
    <g id="xtick_1">
     <g id="line2d_1">
      <defs>
       <path d="M 0 0 
L 0 3.5 
" id="m72e0460c3d" style="stroke:#000000;stroke-width:0.8;"/>
      </defs>
      <g>
       <use style="stroke:#000000;stroke-width:0.8;" x="69.560852" xlink:href="#m72e0460c3d" y="288.430125"/>
      </g>
     </g>
     <g id="text_1">
      <!-- 15m -->
      <g transform="translate(58.32804 303.028562)scale(0.1 -0.1)">
       <defs>
        <path d="M 794 531 
L 1825 531 
L 1825 4091 
L 703 3866 
L 703 4441 
L 1819 4666 
L 2450 4666 
L 2450 531 
L 3481 531 
L 3481 0 
L 794 0 
L 794 531 
z
" id="DejaVuSans-31" transform="scale(0.015625)"/>
        <path d="M 691 4666 
L 3169 4666 
L 3169 4134 
L 1269 4134 
L 1269 2991 
Q 1406 3038 1543 3061 
Q 1681 3084 1819 3084 
Q 2600 3084 3056 2656 
Q 3513 2228 3513 1497 
Q 3513 744 3044 326 
Q 2575 -91 1722 -91 
Q 1428 -91 1123 -41 
Q 819 9 494 109 
L 494 744 
Q 775 591 1075 516 
Q 1375 441 1709 441 
Q 2250 441 2565 725 
Q 2881 1009 2881 1497 
Q 2881 1984 2565 2268 
Q 2250 2553 1709 2553 
Q 1456 2553 1204 2497 
Q 953 2441 691 2322 
L 691 4666 
z
" id="DejaVuSans-35" transform="scale(0.015625)"/>
        <path d="M 3328 2828 
Q 3544 3216 3844 3400 
Q 4144 3584 4550 3584 
Q 5097 3584 5394 3201 
Q 5691 2819 5691 2113 
L 5691 0 
L 5113 0 
L 5113 2094 
Q 5113 2597 4934 2840 
Q 4756 3084 4391 3084 
Q 3944 3084 3684 2787 
Q 3425 2491 3425 1978 
L 3425 0 
L 2847 0 
L 2847 2094 
Q 2847 2600 2669 2842 
Q 2491 3084 2119 3084 
Q 1678 3084 1418 2786 
Q 1159 2488 1159 1978 
L 1159 0 
L 581 0 
L 581 3500 
L 1159 3500 
L 1159 2956 
Q 1356 3278 1631 3431 
Q 1906 3584 2284 3584 
Q 2666 3584 2933 3390 
Q 3200 3197 3328 2828 
z
" id="DejaVuSans-6d" transform="scale(0.015625)"/>
       </defs>
       <use xlink:href="#DejaVuSans-31"/>
       <use x="63.623047" xlink:href="#DejaVuSans-35"/>
       <use x="127.246094" xlink:href="#DejaVuSans-6d"/>
      </g>
     </g>
    </g>
    <g id="xtick_2">
     <g id="line2d_2">
      <g>
       <use style="stroke:#000000;stroke-width:0.8;" x="124.264549" xlink:href="#m72e0460c3d" y="288.430125"/>
      </g>
     </g>
     <g id="text_2">
      <!-- 4h:5m -->
      <g transform="translate(108.178611 303.028562)scale(0.1 -0.1)">
       <defs>
        <path d="M 2419 4116 
L 825 1625 
L 2419 1625 
L 2419 4116 
z
M 2253 4666 
L 3047 4666 
L 3047 1625 
L 3713 1625 
L 3713 1100 
L 3047 1100 
L 3047 0 
L 2419 0 
L 2419 1100 
L 313 1100 
L 313 1709 
L 2253 4666 
z
" id="DejaVuSans-34" transform="scale(0.015625)"/>
        <path d="M 3513 2113 
L 3513 0 
L 2938 0 
L 2938 2094 
Q 2938 2591 2744 2837 
Q 2550 3084 2163 3084 
Q 1697 3084 1428 2787 
Q 1159 2491 1159 1978 
L 1159 0 
L 581 0 
L 581 4863 
L 1159 4863 
L 1159 2956 
Q 1366 3272 1645 3428 
Q 1925 3584 2291 3584 
Q 2894 3584 3203 3211 
Q 3513 2838 3513 2113 
z
" id="DejaVuSans-68" transform="scale(0.015625)"/>
        <path d="M 750 794 
L 1409 794 
L 1409 0 
L 750 0 
L 750 794 
z
M 750 3309 
L 1409 3309 
L 1409 2516 
L 750 2516 
L 750 3309 
z
" id="DejaVuSans-3a" transform="scale(0.015625)"/>
       </defs>
       <use xlink:href="#DejaVuSans-34"/>
       <use x="63.623047" xlink:href="#DejaVuSans-68"/>
       <use x="127.001953" xlink:href="#DejaVuSans-3a"/>
       <use x="160.693359" xlink:href="#DejaVuSans-35"/>
       <use x="224.316406" xlink:href="#DejaVuSans-6d"/>
      </g>
     </g>
    </g>
    <g id="xtick_3">
     <g id="line2d_3">
      <g>
       <use style="stroke:#000000;stroke-width:0.8;" x="178.968245" xlink:href="#m72e0460c3d" y="288.430125"/>
      </g>
     </g>
     <g id="text_3">
      <!-- 7h:55m -->
      <g transform="translate(159.701057 303.028562)scale(0.1 -0.1)">
       <defs>
        <path d="M 525 4666 
L 3525 4666 
L 3525 4397 
L 1831 0 
L 1172 0 
L 2766 4134 
L 525 4134 
L 525 4666 
z
" id="DejaVuSans-37" transform="scale(0.015625)"/>
       </defs>
       <use xlink:href="#DejaVuSans-37"/>
       <use x="63.623047" xlink:href="#DejaVuSans-68"/>
       <use x="127.001953" xlink:href="#DejaVuSans-3a"/>
       <use x="160.693359" xlink:href="#DejaVuSans-35"/>
       <use x="224.316406" xlink:href="#DejaVuSans-35"/>
       <use x="287.939453" xlink:href="#DejaVuSans-6d"/>
      </g>
     </g>
    </g>
    <g id="xtick_4">
     <g id="line2d_4">
      <g>
       <use style="stroke:#000000;stroke-width:0.8;" x="233.671941" xlink:href="#m72e0460c3d" y="288.430125"/>
      </g>
     </g>
     <g id="text_4">
      <!-- 11h:45m -->
      <g transform="translate(211.223504 303.028562)scale(0.1 -0.1)">
       <use xlink:href="#DejaVuSans-31"/>
       <use x="63.623047" xlink:href="#DejaVuSans-31"/>
       <use x="127.246094" xlink:href="#DejaVuSans-68"/>
       <use x="190.625" xlink:href="#DejaVuSans-3a"/>
       <use x="224.316406" xlink:href="#DejaVuSans-34"/>
       <use x="287.939453" xlink:href="#DejaVuSans-35"/>
       <use x="351.5625" xlink:href="#DejaVuSans-6d"/>
      </g>
     </g>
    </g>
    <g id="xtick_5">
     <g id="line2d_5">
      <g>
       <use style="stroke:#000000;stroke-width:0.8;" x="288.375637" xlink:href="#m72e0460c3d" y="288.430125"/>
      </g>
     </g>
     <g id="text_5">
      <!-- 15h:35m -->
      <g transform="translate(265.9272 303.028562)scale(0.1 -0.1)">
       <defs>
        <path d="M 2597 2516 
Q 3050 2419 3304 2112 
Q 3559 1806 3559 1356 
Q 3559 666 3084 287 
Q 2609 -91 1734 -91 
Q 1441 -91 1130 -33 
Q 819 25 488 141 
L 488 750 
Q 750 597 1062 519 
Q 1375 441 1716 441 
Q 2309 441 2620 675 
Q 2931 909 2931 1356 
Q 2931 1769 2642 2001 
Q 2353 2234 1838 2234 
L 1294 2234 
L 1294 2753 
L 1863 2753 
Q 2328 2753 2575 2939 
Q 2822 3125 2822 3475 
Q 2822 3834 2567 4026 
Q 2313 4219 1838 4219 
Q 1578 4219 1281 4162 
Q 984 4106 628 3988 
L 628 4550 
Q 988 4650 1302 4700 
Q 1616 4750 1894 4750 
Q 2613 4750 3031 4423 
Q 3450 4097 3450 3541 
Q 3450 3153 3228 2886 
Q 3006 2619 2597 2516 
z
" id="DejaVuSans-33" transform="scale(0.015625)"/>
       </defs>
       <use xlink:href="#DejaVuSans-31"/>
       <use x="63.623047" xlink:href="#DejaVuSans-35"/>
       <use x="127.246094" xlink:href="#DejaVuSans-68"/>
       <use x="190.625" xlink:href="#DejaVuSans-3a"/>
       <use x="224.316406" xlink:href="#DejaVuSans-33"/>
       <use x="287.939453" xlink:href="#DejaVuSans-35"/>
       <use x="351.5625" xlink:href="#DejaVuSans-6d"/>
      </g>
     </g>
    </g>
    <g id="xtick_6">
     <g id="line2d_6">
      <g>
       <use style="stroke:#000000;stroke-width:0.8;" x="343.079334" xlink:href="#m72e0460c3d" y="288.430125"/>
      </g>
     </g>
     <g id="text_6">
      <!-- 19h:25m -->
      <g transform="translate(320.630896 303.028562)scale(0.1 -0.1)">
       <defs>
        <path d="M 703 97 
L 703 672 
Q 941 559 1184 500 
Q 1428 441 1663 441 
Q 2288 441 2617 861 
Q 2947 1281 2994 2138 
Q 2813 1869 2534 1725 
Q 2256 1581 1919 1581 
Q 1219 1581 811 2004 
Q 403 2428 403 3163 
Q 403 3881 828 4315 
Q 1253 4750 1959 4750 
Q 2769 4750 3195 4129 
Q 3622 3509 3622 2328 
Q 3622 1225 3098 567 
Q 2575 -91 1691 -91 
Q 1453 -91 1209 -44 
Q 966 3 703 97 
z
M 1959 2075 
Q 2384 2075 2632 2365 
Q 2881 2656 2881 3163 
Q 2881 3666 2632 3958 
Q 2384 4250 1959 4250 
Q 1534 4250 1286 3958 
Q 1038 3666 1038 3163 
Q 1038 2656 1286 2365 
Q 1534 2075 1959 2075 
z
" id="DejaVuSans-39" transform="scale(0.015625)"/>
        <path d="M 1228 531 
L 3431 531 
L 3431 0 
L 469 0 
L 469 531 
Q 828 903 1448 1529 
Q 2069 2156 2228 2338 
Q 2531 2678 2651 2914 
Q 2772 3150 2772 3378 
Q 2772 3750 2511 3984 
Q 2250 4219 1831 4219 
Q 1534 4219 1204 4116 
Q 875 4013 500 3803 
L 500 4441 
Q 881 4594 1212 4672 
Q 1544 4750 1819 4750 
Q 2544 4750 2975 4387 
Q 3406 4025 3406 3419 
Q 3406 3131 3298 2873 
Q 3191 2616 2906 2266 
Q 2828 2175 2409 1742 
Q 1991 1309 1228 531 
z
" id="DejaVuSans-32" transform="scale(0.015625)"/>
       </defs>
       <use xlink:href="#DejaVuSans-31"/>
       <use x="63.623047" xlink:href="#DejaVuSans-39"/>
       <use x="127.246094" xlink:href="#DejaVuSans-68"/>
       <use x="190.625" xlink:href="#DejaVuSans-3a"/>
       <use x="224.316406" xlink:href="#DejaVuSans-32"/>
       <use x="287.939453" xlink:href="#DejaVuSans-35"/>
       <use x="351.5625" xlink:href="#DejaVuSans-6d"/>
      </g>
     </g>
    </g>
    <g id="text_7">
     <!-- Time (hour:minute) -->
     <g transform="translate(183.481094 316.706687)scale(0.1 -0.1)">
      <defs>
       <path d="M -19 4666 
L 3928 4666 
L 3928 4134 
L 2272 4134 
L 2272 0 
L 1638 0 
L 1638 4134 
L -19 4134 
L -19 4666 
z
" id="DejaVuSans-54" transform="scale(0.015625)"/>
       <path d="M 603 3500 
L 1178 3500 
L 1178 0 
L 603 0 
L 603 3500 
z
M 603 4863 
L 1178 4863 
L 1178 4134 
L 603 4134 
L 603 4863 
z
" id="DejaVuSans-69" transform="scale(0.015625)"/>
       <path d="M 3597 1894 
L 3597 1613 
L 953 1613 
Q 991 1019 1311 708 
Q 1631 397 2203 397 
Q 2534 397 2845 478 
Q 3156 559 3463 722 
L 3463 178 
Q 3153 47 2828 -22 
Q 2503 -91 2169 -91 
Q 1331 -91 842 396 
Q 353 884 353 1716 
Q 353 2575 817 3079 
Q 1281 3584 2069 3584 
Q 2775 3584 3186 3129 
Q 3597 2675 3597 1894 
z
M 3022 2063 
Q 3016 2534 2758 2815 
Q 2500 3097 2075 3097 
Q 1594 3097 1305 2825 
Q 1016 2553 972 2059 
L 3022 2063 
z
" id="DejaVuSans-65" transform="scale(0.015625)"/>
       <path id="DejaVuSans-20" transform="scale(0.015625)"/>
       <path d="M 1984 4856 
Q 1566 4138 1362 3434 
Q 1159 2731 1159 2009 
Q 1159 1288 1364 580 
Q 1569 -128 1984 -844 
L 1484 -844 
Q 1016 -109 783 600 
Q 550 1309 550 2009 
Q 550 2706 781 3412 
Q 1013 4119 1484 4856 
L 1984 4856 
z
" id="DejaVuSans-28" transform="scale(0.015625)"/>
       <path d="M 1959 3097 
Q 1497 3097 1228 2736 
Q 959 2375 959 1747 
Q 959 1119 1226 758 
Q 1494 397 1959 397 
Q 2419 397 2687 759 
Q 2956 1122 2956 1747 
Q 2956 2369 2687 2733 
Q 2419 3097 1959 3097 
z
M 1959 3584 
Q 2709 3584 3137 3096 
Q 3566 2609 3566 1747 
Q 3566 888 3137 398 
Q 2709 -91 1959 -91 
Q 1206 -91 779 398 
Q 353 888 353 1747 
Q 353 2609 779 3096 
Q 1206 3584 1959 3584 
z
" id="DejaVuSans-6f" transform="scale(0.015625)"/>
       <path d="M 544 1381 
L 544 3500 
L 1119 3500 
L 1119 1403 
Q 1119 906 1312 657 
Q 1506 409 1894 409 
Q 2359 409 2629 706 
Q 2900 1003 2900 1516 
L 2900 3500 
L 3475 3500 
L 3475 0 
L 2900 0 
L 2900 538 
Q 2691 219 2414 64 
Q 2138 -91 1772 -91 
Q 1169 -91 856 284 
Q 544 659 544 1381 
z
M 1991 3584 
L 1991 3584 
z
" id="DejaVuSans-75" transform="scale(0.015625)"/>
       <path d="M 2631 2963 
Q 2534 3019 2420 3045 
Q 2306 3072 2169 3072 
Q 1681 3072 1420 2755 
Q 1159 2438 1159 1844 
L 1159 0 
L 581 0 
L 581 3500 
L 1159 3500 
L 1159 2956 
Q 1341 3275 1631 3429 
Q 1922 3584 2338 3584 
Q 2397 3584 2469 3576 
Q 2541 3569 2628 3553 
L 2631 2963 
z
" id="DejaVuSans-72" transform="scale(0.015625)"/>
       <path d="M 3513 2113 
L 3513 0 
L 2938 0 
L 2938 2094 
Q 2938 2591 2744 2837 
Q 2550 3084 2163 3084 
Q 1697 3084 1428 2787 
Q 1159 2491 1159 1978 
L 1159 0 
L 581 0 
L 581 3500 
L 1159 3500 
L 1159 2956 
Q 1366 3272 1645 3428 
Q 1925 3584 2291 3584 
Q 2894 3584 3203 3211 
Q 3513 2838 3513 2113 
z
" id="DejaVuSans-6e" transform="scale(0.015625)"/>
       <path d="M 1172 4494 
L 1172 3500 
L 2356 3500 
L 2356 3053 
L 1172 3053 
L 1172 1153 
Q 1172 725 1289 603 
Q 1406 481 1766 481 
L 2356 481 
L 2356 0 
L 1766 0 
Q 1100 0 847 248 
Q 594 497 594 1153 
L 594 3053 
L 172 3053 
L 172 3500 
L 594 3500 
L 594 4494 
L 1172 4494 
z
" id="DejaVuSans-74" transform="scale(0.015625)"/>
       <path d="M 513 4856 
L 1013 4856 
Q 1481 4119 1714 3412 
Q 1947 2706 1947 2009 
Q 1947 1309 1714 600 
Q 1481 -109 1013 -844 
L 513 -844 
Q 928 -128 1133 580 
Q 1338 1288 1338 2009 
Q 1338 2731 1133 3434 
Q 928 4138 513 4856 
z
" id="DejaVuSans-29" transform="scale(0.015625)"/>
      </defs>
      <use xlink:href="#DejaVuSans-54"/>
      <use x="57.958984" xlink:href="#DejaVuSans-69"/>
      <use x="85.742188" xlink:href="#DejaVuSans-6d"/>
      <use x="183.154297" xlink:href="#DejaVuSans-65"/>
      <use x="244.677734" xlink:href="#DejaVuSans-20"/>
      <use x="276.464844" xlink:href="#DejaVuSans-28"/>
      <use x="315.478516" xlink:href="#DejaVuSans-68"/>
      <use x="378.857422" xlink:href="#DejaVuSans-6f"/>
      <use x="440.039062" xlink:href="#DejaVuSans-75"/>
      <use x="503.417969" xlink:href="#DejaVuSans-72"/>
      <use x="542.78125" xlink:href="#DejaVuSans-3a"/>
      <use x="576.472656" xlink:href="#DejaVuSans-6d"/>
      <use x="673.884766" xlink:href="#DejaVuSans-69"/>
      <use x="701.667969" xlink:href="#DejaVuSans-6e"/>
      <use x="765.046875" xlink:href="#DejaVuSans-75"/>
      <use x="828.425781" xlink:href="#DejaVuSans-74"/>
      <use x="867.634766" xlink:href="#DejaVuSans-65"/>
      <use x="929.158203" xlink:href="#DejaVuSans-29"/>
     </g>
    </g>
   </g>
   <g id="matplotlib.axis_2">
    <g id="ytick_1">
     <g id="line2d_7">
      <defs>
       <path d="M 0 0 
L -3.5 0 
" id="m766ab916a3" style="stroke:#000000;stroke-width:0.8;"/>
      </defs>
      <g>
       <use style="stroke:#000000;stroke-width:0.8;" x="53.328125" xlink:href="#m766ab916a3" y="246.906728"/>
      </g>
     </g>
     <g id="text_8">
      <!-- 4000 -->
      <g transform="translate(20.878125 250.705947)scale(0.1 -0.1)">
       <defs>
        <path d="M 2034 4250 
Q 1547 4250 1301 3770 
Q 1056 3291 1056 2328 
Q 1056 1369 1301 889 
Q 1547 409 2034 409 
Q 2525 409 2770 889 
Q 3016 1369 3016 2328 
Q 3016 3291 2770 3770 
Q 2525 4250 2034 4250 
z
M 2034 4750 
Q 2819 4750 3233 4129 
Q 3647 3509 3647 2328 
Q 3647 1150 3233 529 
Q 2819 -91 2034 -91 
Q 1250 -91 836 529 
Q 422 1150 422 2328 
Q 422 3509 836 4129 
Q 1250 4750 2034 4750 
z
" id="DejaVuSans-30" transform="scale(0.015625)"/>
       </defs>
       <use xlink:href="#DejaVuSans-34"/>
       <use x="63.623047" xlink:href="#DejaVuSans-30"/>
       <use x="127.246094" xlink:href="#DejaVuSans-30"/>
       <use x="190.869141" xlink:href="#DejaVuSans-30"/>
      </g>
     </g>
    </g>
    <g id="ytick_2">
     <g id="line2d_8">
      <g>
       <use style="stroke:#000000;stroke-width:0.8;" x="53.328125" xlink:href="#m766ab916a3" y="197.282113"/>
      </g>
     </g>
     <g id="text_9">
      <!-- 4500 -->
      <g transform="translate(20.878125 201.081331)scale(0.1 -0.1)">
       <use xlink:href="#DejaVuSans-34"/>
       <use x="63.623047" xlink:href="#DejaVuSans-35"/>
       <use x="127.246094" xlink:href="#DejaVuSans-30"/>
       <use x="190.869141" xlink:href="#DejaVuSans-30"/>
      </g>
     </g>
    </g>
    <g id="ytick_3">
     <g id="line2d_9">
      <g>
       <use style="stroke:#000000;stroke-width:0.8;" x="53.328125" xlink:href="#m766ab916a3" y="147.657497"/>
      </g>
     </g>
     <g id="text_10">
      <!-- 5000 -->
      <g transform="translate(20.878125 151.456716)scale(0.1 -0.1)">
       <use xlink:href="#DejaVuSans-35"/>
       <use x="63.623047" xlink:href="#DejaVuSans-30"/>
       <use x="127.246094" xlink:href="#DejaVuSans-30"/>
       <use x="190.869141" xlink:href="#DejaVuSans-30"/>
      </g>
     </g>
    </g>
    <g id="ytick_4">
     <g id="line2d_10">
      <g>
       <use style="stroke:#000000;stroke-width:0.8;" x="53.328125" xlink:href="#m766ab916a3" y="98.032882"/>
      </g>
     </g>
     <g id="text_11">
      <!-- 5500 -->
      <g transform="translate(20.878125 101.832101)scale(0.1 -0.1)">
       <use xlink:href="#DejaVuSans-35"/>
       <use x="63.623047" xlink:href="#DejaVuSans-35"/>
       <use x="127.246094" xlink:href="#DejaVuSans-30"/>
       <use x="190.869141" xlink:href="#DejaVuSans-30"/>
      </g>
     </g>
    </g>
    <g id="ytick_5">
     <g id="line2d_11">
      <g>
       <use style="stroke:#000000;stroke-width:0.8;" x="53.328125" xlink:href="#m766ab916a3" y="48.408267"/>
      </g>
     </g>
     <g id="text_12">
      <!-- 6000 -->
      <g transform="translate(20.878125 52.207485)scale(0.1 -0.1)">
       <defs>
        <path d="M 2113 2584 
Q 1688 2584 1439 2293 
Q 1191 2003 1191 1497 
Q 1191 994 1439 701 
Q 1688 409 2113 409 
Q 2538 409 2786 701 
Q 3034 994 3034 1497 
Q 3034 2003 2786 2293 
Q 2538 2584 2113 2584 
z
M 3366 4563 
L 3366 3988 
Q 3128 4100 2886 4159 
Q 2644 4219 2406 4219 
Q 1781 4219 1451 3797 
Q 1122 3375 1075 2522 
Q 1259 2794 1537 2939 
Q 1816 3084 2150 3084 
Q 2853 3084 3261 2657 
Q 3669 2231 3669 1497 
Q 3669 778 3244 343 
Q 2819 -91 2113 -91 
Q 1303 -91 875 529 
Q 447 1150 447 2328 
Q 447 3434 972 4092 
Q 1497 4750 2381 4750 
Q 2619 4750 2861 4703 
Q 3103 4656 3366 4563 
z
" id="DejaVuSans-36" transform="scale(0.015625)"/>
       </defs>
       <use xlink:href="#DejaVuSans-36"/>
       <use x="63.623047" xlink:href="#DejaVuSans-30"/>
       <use x="127.246094" xlink:href="#DejaVuSans-30"/>
       <use x="190.869141" xlink:href="#DejaVuSans-30"/>
      </g>
     </g>
    </g>
    <g id="text_13">
     <!-- Code region coverage -->
     <g transform="translate(14.798438 210.379594)rotate(-90)scale(0.1 -0.1)">
      <defs>
       <path d="M 4122 4306 
L 4122 3641 
Q 3803 3938 3442 4084 
Q 3081 4231 2675 4231 
Q 1875 4231 1450 3742 
Q 1025 3253 1025 2328 
Q 1025 1406 1450 917 
Q 1875 428 2675 428 
Q 3081 428 3442 575 
Q 3803 722 4122 1019 
L 4122 359 
Q 3791 134 3420 21 
Q 3050 -91 2638 -91 
Q 1578 -91 968 557 
Q 359 1206 359 2328 
Q 359 3453 968 4101 
Q 1578 4750 2638 4750 
Q 3056 4750 3426 4639 
Q 3797 4528 4122 4306 
z
" id="DejaVuSans-43" transform="scale(0.015625)"/>
       <path d="M 2906 2969 
L 2906 4863 
L 3481 4863 
L 3481 0 
L 2906 0 
L 2906 525 
Q 2725 213 2448 61 
Q 2172 -91 1784 -91 
Q 1150 -91 751 415 
Q 353 922 353 1747 
Q 353 2572 751 3078 
Q 1150 3584 1784 3584 
Q 2172 3584 2448 3432 
Q 2725 3281 2906 2969 
z
M 947 1747 
Q 947 1113 1208 752 
Q 1469 391 1925 391 
Q 2381 391 2643 752 
Q 2906 1113 2906 1747 
Q 2906 2381 2643 2742 
Q 2381 3103 1925 3103 
Q 1469 3103 1208 2742 
Q 947 2381 947 1747 
z
" id="DejaVuSans-64" transform="scale(0.015625)"/>
       <path d="M 2906 1791 
Q 2906 2416 2648 2759 
Q 2391 3103 1925 3103 
Q 1463 3103 1205 2759 
Q 947 2416 947 1791 
Q 947 1169 1205 825 
Q 1463 481 1925 481 
Q 2391 481 2648 825 
Q 2906 1169 2906 1791 
z
M 3481 434 
Q 3481 -459 3084 -895 
Q 2688 -1331 1869 -1331 
Q 1566 -1331 1297 -1286 
Q 1028 -1241 775 -1147 
L 775 -588 
Q 1028 -725 1275 -790 
Q 1522 -856 1778 -856 
Q 2344 -856 2625 -561 
Q 2906 -266 2906 331 
L 2906 616 
Q 2728 306 2450 153 
Q 2172 0 1784 0 
Q 1141 0 747 490 
Q 353 981 353 1791 
Q 353 2603 747 3093 
Q 1141 3584 1784 3584 
Q 2172 3584 2450 3431 
Q 2728 3278 2906 2969 
L 2906 3500 
L 3481 3500 
L 3481 434 
z
" id="DejaVuSans-67" transform="scale(0.015625)"/>
       <path d="M 3122 3366 
L 3122 2828 
Q 2878 2963 2633 3030 
Q 2388 3097 2138 3097 
Q 1578 3097 1268 2742 
Q 959 2388 959 1747 
Q 959 1106 1268 751 
Q 1578 397 2138 397 
Q 2388 397 2633 464 
Q 2878 531 3122 666 
L 3122 134 
Q 2881 22 2623 -34 
Q 2366 -91 2075 -91 
Q 1284 -91 818 406 
Q 353 903 353 1747 
Q 353 2603 823 3093 
Q 1294 3584 2113 3584 
Q 2378 3584 2631 3529 
Q 2884 3475 3122 3366 
z
" id="DejaVuSans-63" transform="scale(0.015625)"/>
       <path d="M 191 3500 
L 800 3500 
L 1894 563 
L 2988 3500 
L 3597 3500 
L 2284 0 
L 1503 0 
L 191 3500 
z
" id="DejaVuSans-76" transform="scale(0.015625)"/>
       <path d="M 2194 1759 
Q 1497 1759 1228 1600 
Q 959 1441 959 1056 
Q 959 750 1161 570 
Q 1363 391 1709 391 
Q 2188 391 2477 730 
Q 2766 1069 2766 1631 
L 2766 1759 
L 2194 1759 
z
M 3341 1997 
L 3341 0 
L 2766 0 
L 2766 531 
Q 2569 213 2275 61 
Q 1981 -91 1556 -91 
Q 1019 -91 701 211 
Q 384 513 384 1019 
Q 384 1609 779 1909 
Q 1175 2209 1959 2209 
L 2766 2209 
L 2766 2266 
Q 2766 2663 2505 2880 
Q 2244 3097 1772 3097 
Q 1472 3097 1187 3025 
Q 903 2953 641 2809 
L 641 3341 
Q 956 3463 1253 3523 
Q 1550 3584 1831 3584 
Q 2591 3584 2966 3190 
Q 3341 2797 3341 1997 
z
" id="DejaVuSans-61" transform="scale(0.015625)"/>
      </defs>
      <use xlink:href="#DejaVuSans-43"/>
      <use x="69.824219" xlink:href="#DejaVuSans-6f"/>
      <use x="131.005859" xlink:href="#DejaVuSans-64"/>
      <use x="194.482422" xlink:href="#DejaVuSans-65"/>
      <use x="256.005859" xlink:href="#DejaVuSans-20"/>
      <use x="287.792969" xlink:href="#DejaVuSans-72"/>
      <use x="326.65625" xlink:href="#DejaVuSans-65"/>
      <use x="388.179688" xlink:href="#DejaVuSans-67"/>
      <use x="451.65625" xlink:href="#DejaVuSans-69"/>
      <use x="479.439453" xlink:href="#DejaVuSans-6f"/>
      <use x="540.621094" xlink:href="#DejaVuSans-6e"/>
      <use x="604" xlink:href="#DejaVuSans-20"/>
      <use x="635.787109" xlink:href="#DejaVuSans-63"/>
      <use x="690.767578" xlink:href="#DejaVuSans-6f"/>
      <use x="751.949219" xlink:href="#DejaVuSans-76"/>
      <use x="811.128906" xlink:href="#DejaVuSans-65"/>
      <use x="872.652344" xlink:href="#DejaVuSans-72"/>
      <use x="913.765625" xlink:href="#DejaVuSans-61"/>
      <use x="975.044922" xlink:href="#DejaVuSans-67"/>
      <use x="1038.521484" xlink:href="#DejaVuSans-65"/>
     </g>
    </g>
   </g>
   <g id="line2d_12">
    <path clip-path="url(#p4c15790220)" d="M 69.560852 200.656587 
L 73.128485 165.472734 
L 76.696117 158.773411 
L 80.263749 151.23047 
L 83.831382 141.007799 
L 87.399014 138.725067 
L 90.966646 137.03783 
L 94.534279 137.03783 
L 98.101911 136.839331 
L 101.669544 134.556599 
L 105.237176 133.613731 
L 108.804808 133.315983 
L 112.372441 133.117485 
L 115.940073 125.276796 
L 119.507705 110.935282 
L 123.075338 109.049547 
L 126.64297 108.751799 
L 130.210603 108.751799 
L 133.778235 108.5533 
L 137.345867 108.5533 
L 140.9135 107.560808 
L 144.481132 87.214716 
L 148.048764 86.61922 
L 151.616397 86.61922 
L 155.184029 85.874851 
L 158.751661 85.775602 
L 162.319294 85.527479 
L 165.886926 86.023725 
L 169.454559 85.825227 
L 173.022191 84.634236 
L 176.589823 84.286863 
L 180.157456 84.13799 
L 183.725088 83.840242 
L 187.29272 78.728907 
L 190.860353 78.580033 
L 194.427985 78.580033 
L 197.995618 78.431159 
L 201.56325 79.969522 
L 205.130882 79.374027 
L 208.698515 78.381534 
L 212.266147 78.381534 
L 215.833779 78.381534 
L 219.401412 76.644673 
L 222.969044 74.709313 
L 226.536676 74.709313 
L 230.104309 74.659688 
L 233.671941 74.659688 
L 237.239574 71.831085 
L 240.807206 71.831085 
L 244.374838 71.285214 
L 247.942471 70.838593 
L 251.510103 70.441596 
L 255.077735 70.441596 
L 258.645368 70.441596 
L 262.213 70.441596 
L 265.780632 68.853608 
L 269.348265 68.853608 
L 272.915897 68.853608 
L 276.48353 68.059614 
L 280.051162 68.059614 
L 283.618794 69.250605 
L 287.186427 69.20098 
L 290.754059 69.20098 
L 294.321691 69.20098 
L 297.889324 69.002482 
L 301.456956 69.002482 
L 305.024589 69.002482 
L 308.592221 69.002482 
L 312.159853 69.002482 
L 315.727486 69.002482 
L 319.295118 68.00999 
L 322.86275 68.00999 
L 326.430383 67.960365 
L 329.998015 67.960365 
L 333.565647 66.769374 
L 337.13328 66.769374 
L 340.700912 66.967873 
L 344.268545 66.07463 
L 347.836177 66.025005 
L 351.403809 66.025005 
L 354.971442 65.231011 
L 358.539074 65.231011 
L 362.106706 63.692648 
L 365.674339 62.20391 
L 369.241971 61.012919 
L 372.809604 61.012919 
L 376.377236 61.012919 
L 379.944868 60.020427 
L 383.512501 59.226433 
L 387.080133 59.226433 
L 390.647765 59.176808 
L 394.215398 59.077559 
" style="fill:none;stroke:#98df8a;stroke-linecap:square;stroke-width:1.5;"/>
    <defs>
     <path d="M -0 3 
L 3 -3 
L -3 -3 
z
" id="ma6c1c0c680" style="stroke:#ffffff;stroke-linejoin:miter;stroke-width:0.75;"/>
    </defs>
    <g clip-path="url(#p4c15790220)">
     <use style="fill:#98df8a;stroke:#ffffff;stroke-linejoin:miter;stroke-width:0.75;" x="69.560852" xlink:href="#ma6c1c0c680" y="200.656587"/>
     <use style="fill:#98df8a;stroke:#ffffff;stroke-linejoin:miter;stroke-width:0.75;" x="73.128485" xlink:href="#ma6c1c0c680" y="165.472734"/>
     <use style="fill:#98df8a;stroke:#ffffff;stroke-linejoin:miter;stroke-width:0.75;" x="76.696117" xlink:href="#ma6c1c0c680" y="158.773411"/>
     <use style="fill:#98df8a;stroke:#ffffff;stroke-linejoin:miter;stroke-width:0.75;" x="80.263749" xlink:href="#ma6c1c0c680" y="151.23047"/>
     <use style="fill:#98df8a;stroke:#ffffff;stroke-linejoin:miter;stroke-width:0.75;" x="83.831382" xlink:href="#ma6c1c0c680" y="141.007799"/>
     <use style="fill:#98df8a;stroke:#ffffff;stroke-linejoin:miter;stroke-width:0.75;" x="87.399014" xlink:href="#ma6c1c0c680" y="138.725067"/>
     <use style="fill:#98df8a;stroke:#ffffff;stroke-linejoin:miter;stroke-width:0.75;" x="90.966646" xlink:href="#ma6c1c0c680" y="137.03783"/>
     <use style="fill:#98df8a;stroke:#ffffff;stroke-linejoin:miter;stroke-width:0.75;" x="94.534279" xlink:href="#ma6c1c0c680" y="137.03783"/>
     <use style="fill:#98df8a;stroke:#ffffff;stroke-linejoin:miter;stroke-width:0.75;" x="98.101911" xlink:href="#ma6c1c0c680" y="136.839331"/>
     <use style="fill:#98df8a;stroke:#ffffff;stroke-linejoin:miter;stroke-width:0.75;" x="101.669544" xlink:href="#ma6c1c0c680" y="134.556599"/>
     <use style="fill:#98df8a;stroke:#ffffff;stroke-linejoin:miter;stroke-width:0.75;" x="105.237176" xlink:href="#ma6c1c0c680" y="133.613731"/>
     <use style="fill:#98df8a;stroke:#ffffff;stroke-linejoin:miter;stroke-width:0.75;" x="108.804808" xlink:href="#ma6c1c0c680" y="133.315983"/>
     <use style="fill:#98df8a;stroke:#ffffff;stroke-linejoin:miter;stroke-width:0.75;" x="112.372441" xlink:href="#ma6c1c0c680" y="133.117485"/>
     <use style="fill:#98df8a;stroke:#ffffff;stroke-linejoin:miter;stroke-width:0.75;" x="115.940073" xlink:href="#ma6c1c0c680" y="125.276796"/>
     <use style="fill:#98df8a;stroke:#ffffff;stroke-linejoin:miter;stroke-width:0.75;" x="119.507705" xlink:href="#ma6c1c0c680" y="110.935282"/>
     <use style="fill:#98df8a;stroke:#ffffff;stroke-linejoin:miter;stroke-width:0.75;" x="123.075338" xlink:href="#ma6c1c0c680" y="109.049547"/>
     <use style="fill:#98df8a;stroke:#ffffff;stroke-linejoin:miter;stroke-width:0.75;" x="126.64297" xlink:href="#ma6c1c0c680" y="108.751799"/>
     <use style="fill:#98df8a;stroke:#ffffff;stroke-linejoin:miter;stroke-width:0.75;" x="130.210603" xlink:href="#ma6c1c0c680" y="108.751799"/>
     <use style="fill:#98df8a;stroke:#ffffff;stroke-linejoin:miter;stroke-width:0.75;" x="133.778235" xlink:href="#ma6c1c0c680" y="108.5533"/>
     <use style="fill:#98df8a;stroke:#ffffff;stroke-linejoin:miter;stroke-width:0.75;" x="137.345867" xlink:href="#ma6c1c0c680" y="108.5533"/>
     <use style="fill:#98df8a;stroke:#ffffff;stroke-linejoin:miter;stroke-width:0.75;" x="140.9135" xlink:href="#ma6c1c0c680" y="107.560808"/>
     <use style="fill:#98df8a;stroke:#ffffff;stroke-linejoin:miter;stroke-width:0.75;" x="144.481132" xlink:href="#ma6c1c0c680" y="87.214716"/>
     <use style="fill:#98df8a;stroke:#ffffff;stroke-linejoin:miter;stroke-width:0.75;" x="148.048764" xlink:href="#ma6c1c0c680" y="86.61922"/>
     <use style="fill:#98df8a;stroke:#ffffff;stroke-linejoin:miter;stroke-width:0.75;" x="151.616397" xlink:href="#ma6c1c0c680" y="86.61922"/>
     <use style="fill:#98df8a;stroke:#ffffff;stroke-linejoin:miter;stroke-width:0.75;" x="155.184029" xlink:href="#ma6c1c0c680" y="85.874851"/>
     <use style="fill:#98df8a;stroke:#ffffff;stroke-linejoin:miter;stroke-width:0.75;" x="158.751661" xlink:href="#ma6c1c0c680" y="85.775602"/>
     <use style="fill:#98df8a;stroke:#ffffff;stroke-linejoin:miter;stroke-width:0.75;" x="162.319294" xlink:href="#ma6c1c0c680" y="85.527479"/>
     <use style="fill:#98df8a;stroke:#ffffff;stroke-linejoin:miter;stroke-width:0.75;" x="165.886926" xlink:href="#ma6c1c0c680" y="86.023725"/>
     <use style="fill:#98df8a;stroke:#ffffff;stroke-linejoin:miter;stroke-width:0.75;" x="169.454559" xlink:href="#ma6c1c0c680" y="85.825227"/>
     <use style="fill:#98df8a;stroke:#ffffff;stroke-linejoin:miter;stroke-width:0.75;" x="173.022191" xlink:href="#ma6c1c0c680" y="84.634236"/>
     <use style="fill:#98df8a;stroke:#ffffff;stroke-linejoin:miter;stroke-width:0.75;" x="176.589823" xlink:href="#ma6c1c0c680" y="84.286863"/>
     <use style="fill:#98df8a;stroke:#ffffff;stroke-linejoin:miter;stroke-width:0.75;" x="180.157456" xlink:href="#ma6c1c0c680" y="84.13799"/>
     <use style="fill:#98df8a;stroke:#ffffff;stroke-linejoin:miter;stroke-width:0.75;" x="183.725088" xlink:href="#ma6c1c0c680" y="83.840242"/>
     <use style="fill:#98df8a;stroke:#ffffff;stroke-linejoin:miter;stroke-width:0.75;" x="187.29272" xlink:href="#ma6c1c0c680" y="78.728907"/>
     <use style="fill:#98df8a;stroke:#ffffff;stroke-linejoin:miter;stroke-width:0.75;" x="190.860353" xlink:href="#ma6c1c0c680" y="78.580033"/>
     <use style="fill:#98df8a;stroke:#ffffff;stroke-linejoin:miter;stroke-width:0.75;" x="194.427985" xlink:href="#ma6c1c0c680" y="78.580033"/>
     <use style="fill:#98df8a;stroke:#ffffff;stroke-linejoin:miter;stroke-width:0.75;" x="197.995618" xlink:href="#ma6c1c0c680" y="78.431159"/>
     <use style="fill:#98df8a;stroke:#ffffff;stroke-linejoin:miter;stroke-width:0.75;" x="201.56325" xlink:href="#ma6c1c0c680" y="79.969522"/>
     <use style="fill:#98df8a;stroke:#ffffff;stroke-linejoin:miter;stroke-width:0.75;" x="205.130882" xlink:href="#ma6c1c0c680" y="79.374027"/>
     <use style="fill:#98df8a;stroke:#ffffff;stroke-linejoin:miter;stroke-width:0.75;" x="208.698515" xlink:href="#ma6c1c0c680" y="78.381534"/>
     <use style="fill:#98df8a;stroke:#ffffff;stroke-linejoin:miter;stroke-width:0.75;" x="212.266147" xlink:href="#ma6c1c0c680" y="78.381534"/>
     <use style="fill:#98df8a;stroke:#ffffff;stroke-linejoin:miter;stroke-width:0.75;" x="215.833779" xlink:href="#ma6c1c0c680" y="78.381534"/>
     <use style="fill:#98df8a;stroke:#ffffff;stroke-linejoin:miter;stroke-width:0.75;" x="219.401412" xlink:href="#ma6c1c0c680" y="76.644673"/>
     <use style="fill:#98df8a;stroke:#ffffff;stroke-linejoin:miter;stroke-width:0.75;" x="222.969044" xlink:href="#ma6c1c0c680" y="74.709313"/>
     <use style="fill:#98df8a;stroke:#ffffff;stroke-linejoin:miter;stroke-width:0.75;" x="226.536676" xlink:href="#ma6c1c0c680" y="74.709313"/>
     <use style="fill:#98df8a;stroke:#ffffff;stroke-linejoin:miter;stroke-width:0.75;" x="230.104309" xlink:href="#ma6c1c0c680" y="74.659688"/>
     <use style="fill:#98df8a;stroke:#ffffff;stroke-linejoin:miter;stroke-width:0.75;" x="233.671941" xlink:href="#ma6c1c0c680" y="74.659688"/>
     <use style="fill:#98df8a;stroke:#ffffff;stroke-linejoin:miter;stroke-width:0.75;" x="237.239574" xlink:href="#ma6c1c0c680" y="71.831085"/>
     <use style="fill:#98df8a;stroke:#ffffff;stroke-linejoin:miter;stroke-width:0.75;" x="240.807206" xlink:href="#ma6c1c0c680" y="71.831085"/>
     <use style="fill:#98df8a;stroke:#ffffff;stroke-linejoin:miter;stroke-width:0.75;" x="244.374838" xlink:href="#ma6c1c0c680" y="71.285214"/>
     <use style="fill:#98df8a;stroke:#ffffff;stroke-linejoin:miter;stroke-width:0.75;" x="247.942471" xlink:href="#ma6c1c0c680" y="70.838593"/>
     <use style="fill:#98df8a;stroke:#ffffff;stroke-linejoin:miter;stroke-width:0.75;" x="251.510103" xlink:href="#ma6c1c0c680" y="70.441596"/>
     <use style="fill:#98df8a;stroke:#ffffff;stroke-linejoin:miter;stroke-width:0.75;" x="255.077735" xlink:href="#ma6c1c0c680" y="70.441596"/>
     <use style="fill:#98df8a;stroke:#ffffff;stroke-linejoin:miter;stroke-width:0.75;" x="258.645368" xlink:href="#ma6c1c0c680" y="70.441596"/>
     <use style="fill:#98df8a;stroke:#ffffff;stroke-linejoin:miter;stroke-width:0.75;" x="262.213" xlink:href="#ma6c1c0c680" y="70.441596"/>
     <use style="fill:#98df8a;stroke:#ffffff;stroke-linejoin:miter;stroke-width:0.75;" x="265.780632" xlink:href="#ma6c1c0c680" y="68.853608"/>
     <use style="fill:#98df8a;stroke:#ffffff;stroke-linejoin:miter;stroke-width:0.75;" x="269.348265" xlink:href="#ma6c1c0c680" y="68.853608"/>
     <use style="fill:#98df8a;stroke:#ffffff;stroke-linejoin:miter;stroke-width:0.75;" x="272.915897" xlink:href="#ma6c1c0c680" y="68.853608"/>
     <use style="fill:#98df8a;stroke:#ffffff;stroke-linejoin:miter;stroke-width:0.75;" x="276.48353" xlink:href="#ma6c1c0c680" y="68.059614"/>
     <use style="fill:#98df8a;stroke:#ffffff;stroke-linejoin:miter;stroke-width:0.75;" x="280.051162" xlink:href="#ma6c1c0c680" y="68.059614"/>
     <use style="fill:#98df8a;stroke:#ffffff;stroke-linejoin:miter;stroke-width:0.75;" x="283.618794" xlink:href="#ma6c1c0c680" y="69.250605"/>
     <use style="fill:#98df8a;stroke:#ffffff;stroke-linejoin:miter;stroke-width:0.75;" x="287.186427" xlink:href="#ma6c1c0c680" y="69.20098"/>
     <use style="fill:#98df8a;stroke:#ffffff;stroke-linejoin:miter;stroke-width:0.75;" x="290.754059" xlink:href="#ma6c1c0c680" y="69.20098"/>
     <use style="fill:#98df8a;stroke:#ffffff;stroke-linejoin:miter;stroke-width:0.75;" x="294.321691" xlink:href="#ma6c1c0c680" y="69.20098"/>
     <use style="fill:#98df8a;stroke:#ffffff;stroke-linejoin:miter;stroke-width:0.75;" x="297.889324" xlink:href="#ma6c1c0c680" y="69.002482"/>
     <use style="fill:#98df8a;stroke:#ffffff;stroke-linejoin:miter;stroke-width:0.75;" x="301.456956" xlink:href="#ma6c1c0c680" y="69.002482"/>
     <use style="fill:#98df8a;stroke:#ffffff;stroke-linejoin:miter;stroke-width:0.75;" x="305.024589" xlink:href="#ma6c1c0c680" y="69.002482"/>
     <use style="fill:#98df8a;stroke:#ffffff;stroke-linejoin:miter;stroke-width:0.75;" x="308.592221" xlink:href="#ma6c1c0c680" y="69.002482"/>
     <use style="fill:#98df8a;stroke:#ffffff;stroke-linejoin:miter;stroke-width:0.75;" x="312.159853" xlink:href="#ma6c1c0c680" y="69.002482"/>
     <use style="fill:#98df8a;stroke:#ffffff;stroke-linejoin:miter;stroke-width:0.75;" x="315.727486" xlink:href="#ma6c1c0c680" y="69.002482"/>
     <use style="fill:#98df8a;stroke:#ffffff;stroke-linejoin:miter;stroke-width:0.75;" x="319.295118" xlink:href="#ma6c1c0c680" y="68.00999"/>
     <use style="fill:#98df8a;stroke:#ffffff;stroke-linejoin:miter;stroke-width:0.75;" x="322.86275" xlink:href="#ma6c1c0c680" y="68.00999"/>
     <use style="fill:#98df8a;stroke:#ffffff;stroke-linejoin:miter;stroke-width:0.75;" x="326.430383" xlink:href="#ma6c1c0c680" y="67.960365"/>
     <use style="fill:#98df8a;stroke:#ffffff;stroke-linejoin:miter;stroke-width:0.75;" x="329.998015" xlink:href="#ma6c1c0c680" y="67.960365"/>
     <use style="fill:#98df8a;stroke:#ffffff;stroke-linejoin:miter;stroke-width:0.75;" x="333.565647" xlink:href="#ma6c1c0c680" y="66.769374"/>
     <use style="fill:#98df8a;stroke:#ffffff;stroke-linejoin:miter;stroke-width:0.75;" x="337.13328" xlink:href="#ma6c1c0c680" y="66.769374"/>
     <use style="fill:#98df8a;stroke:#ffffff;stroke-linejoin:miter;stroke-width:0.75;" x="340.700912" xlink:href="#ma6c1c0c680" y="66.967873"/>
     <use style="fill:#98df8a;stroke:#ffffff;stroke-linejoin:miter;stroke-width:0.75;" x="344.268545" xlink:href="#ma6c1c0c680" y="66.07463"/>
     <use style="fill:#98df8a;stroke:#ffffff;stroke-linejoin:miter;stroke-width:0.75;" x="347.836177" xlink:href="#ma6c1c0c680" y="66.025005"/>
     <use style="fill:#98df8a;stroke:#ffffff;stroke-linejoin:miter;stroke-width:0.75;" x="351.403809" xlink:href="#ma6c1c0c680" y="66.025005"/>
     <use style="fill:#98df8a;stroke:#ffffff;stroke-linejoin:miter;stroke-width:0.75;" x="354.971442" xlink:href="#ma6c1c0c680" y="65.231011"/>
     <use style="fill:#98df8a;stroke:#ffffff;stroke-linejoin:miter;stroke-width:0.75;" x="358.539074" xlink:href="#ma6c1c0c680" y="65.231011"/>
     <use style="fill:#98df8a;stroke:#ffffff;stroke-linejoin:miter;stroke-width:0.75;" x="362.106706" xlink:href="#ma6c1c0c680" y="63.692648"/>
     <use style="fill:#98df8a;stroke:#ffffff;stroke-linejoin:miter;stroke-width:0.75;" x="365.674339" xlink:href="#ma6c1c0c680" y="62.20391"/>
     <use style="fill:#98df8a;stroke:#ffffff;stroke-linejoin:miter;stroke-width:0.75;" x="369.241971" xlink:href="#ma6c1c0c680" y="61.012919"/>
     <use style="fill:#98df8a;stroke:#ffffff;stroke-linejoin:miter;stroke-width:0.75;" x="372.809604" xlink:href="#ma6c1c0c680" y="61.012919"/>
     <use style="fill:#98df8a;stroke:#ffffff;stroke-linejoin:miter;stroke-width:0.75;" x="376.377236" xlink:href="#ma6c1c0c680" y="61.012919"/>
     <use style="fill:#98df8a;stroke:#ffffff;stroke-linejoin:miter;stroke-width:0.75;" x="379.944868" xlink:href="#ma6c1c0c680" y="60.020427"/>
     <use style="fill:#98df8a;stroke:#ffffff;stroke-linejoin:miter;stroke-width:0.75;" x="383.512501" xlink:href="#ma6c1c0c680" y="59.226433"/>
     <use style="fill:#98df8a;stroke:#ffffff;stroke-linejoin:miter;stroke-width:0.75;" x="387.080133" xlink:href="#ma6c1c0c680" y="59.226433"/>
     <use style="fill:#98df8a;stroke:#ffffff;stroke-linejoin:miter;stroke-width:0.75;" x="390.647765" xlink:href="#ma6c1c0c680" y="59.176808"/>
     <use style="fill:#98df8a;stroke:#ffffff;stroke-linejoin:miter;stroke-width:0.75;" x="394.215398" xlink:href="#ma6c1c0c680" y="59.077559"/>
    </g>
   </g>
   <g id="line2d_13">
    <path clip-path="url(#p4c15790220)" d="M 69.560852 192.716648 
L 73.128485 170.187073 
L 76.696117 161.155393 
L 80.263749 155.795934 
L 83.831382 146.962753 
L 87.399014 145.126642 
L 90.966646 136.442334 
L 94.534279 136.144587 
L 98.101911 133.564107 
L 101.669544 133.564107 
L 105.237176 132.174617 
L 108.804808 126.517411 
L 112.372441 128.998642 
L 115.940073 127.956525 
L 119.507705 130.785128 
L 123.075338 130.785128 
L 126.64297 130.785128 
L 130.210603 123.341436 
L 133.778235 121.703823 
L 137.345867 119.917337 
L 140.9135 120.363959 
L 144.481132 120.363959 
L 148.048764 120.661707 
L 151.616397 120.413583 
L 155.184029 120.413583 
L 158.751661 120.413583 
L 162.319294 120.562457 
L 165.886926 120.16546 
L 169.454559 119.768463 
L 173.022191 119.768463 
L 176.589823 117.088734 
L 180.157456 111.630027 
L 183.725088 107.660057 
L 187.29272 105.97282 
L 190.860353 116.096242 
L 194.427985 113.515762 
L 197.995618 113.515762 
L 201.56325 108.950297 
L 205.130882 105.774322 
L 208.698515 97.884008 
L 212.266147 95.551651 
L 215.833779 105.278076 
L 219.401412 108.950297 
L 222.969044 111.679651 
L 226.536676 108.454051 
L 230.104309 106.965313 
L 233.671941 105.923196 
L 237.239574 104.980328 
L 240.807206 104.980328 
L 244.374838 104.980328 
L 247.942471 105.873571 
L 251.510103 105.873571 
L 255.077735 105.873571 
L 258.645368 104.484082 
L 262.213 104.484082 
L 265.780632 80.962014 
L 269.348265 91.482433 
L 272.915897 102.896094 
L 276.48353 102.896094 
L 280.051162 102.896094 
L 283.618794 102.548722 
L 287.186427 102.499097 
L 290.754059 102.499097 
L 294.321691 102.151725 
L 297.889324 102.002851 
L 301.456956 87.562088 
L 305.024589 87.313965 
L 308.592221 87.313965 
L 312.159853 101.407356 
L 315.727486 102.300599 
L 319.295118 102.300599 
L 322.86275 91.829805 
L 326.430383 84.336488 
L 329.998015 84.336488 
L 333.565647 84.237239 
L 337.13328 91.78018 
L 340.700912 84.237239 
L 344.268545 91.78018 
L 347.836177 70.640094 
L 351.403809 83.095873 
L 354.971442 99.323122 
L 358.539074 99.323122 
L 362.106706 82.500377 
L 365.674339 65.677633 
L 369.241971 65.677633 
L 372.809604 80.465768 
L 376.377236 95.253903 
L 379.944868 95.154654 
L 383.512501 99.124623 
L 387.080133 82.401128 
L 390.647765 65.677633 
L 394.215398 82.153005 
" style="fill:none;stroke:#1f77b4;stroke-linecap:square;stroke-width:1.5;"/>
    <defs>
     <path d="M 0 3 
C 0.795609 3 1.55874 2.683901 2.12132 2.12132 
C 2.683901 1.55874 3 0.795609 3 0 
C 3 -0.795609 2.683901 -1.55874 2.12132 -2.12132 
C 1.55874 -2.683901 0.795609 -3 0 -3 
C -0.795609 -3 -1.55874 -2.683901 -2.12132 -2.12132 
C -2.683901 -1.55874 -3 -0.795609 -3 0 
C -3 0.795609 -2.683901 1.55874 -2.12132 2.12132 
C -1.55874 2.683901 -0.795609 3 0 3 
z
" id="mcfbe6da3b1" style="stroke:#ffffff;stroke-width:0.75;"/>
    </defs>
    <g clip-path="url(#p4c15790220)">
     <use style="fill:#1f77b4;stroke:#ffffff;stroke-width:0.75;" x="69.560852" xlink:href="#mcfbe6da3b1" y="192.716648"/>
     <use style="fill:#1f77b4;stroke:#ffffff;stroke-width:0.75;" x="73.128485" xlink:href="#mcfbe6da3b1" y="170.187073"/>
     <use style="fill:#1f77b4;stroke:#ffffff;stroke-width:0.75;" x="76.696117" xlink:href="#mcfbe6da3b1" y="161.155393"/>
     <use style="fill:#1f77b4;stroke:#ffffff;stroke-width:0.75;" x="80.263749" xlink:href="#mcfbe6da3b1" y="155.795934"/>
     <use style="fill:#1f77b4;stroke:#ffffff;stroke-width:0.75;" x="83.831382" xlink:href="#mcfbe6da3b1" y="146.962753"/>
     <use style="fill:#1f77b4;stroke:#ffffff;stroke-width:0.75;" x="87.399014" xlink:href="#mcfbe6da3b1" y="145.126642"/>
     <use style="fill:#1f77b4;stroke:#ffffff;stroke-width:0.75;" x="90.966646" xlink:href="#mcfbe6da3b1" y="136.442334"/>
     <use style="fill:#1f77b4;stroke:#ffffff;stroke-width:0.75;" x="94.534279" xlink:href="#mcfbe6da3b1" y="136.144587"/>
     <use style="fill:#1f77b4;stroke:#ffffff;stroke-width:0.75;" x="98.101911" xlink:href="#mcfbe6da3b1" y="133.564107"/>
     <use style="fill:#1f77b4;stroke:#ffffff;stroke-width:0.75;" x="101.669544" xlink:href="#mcfbe6da3b1" y="133.564107"/>
     <use style="fill:#1f77b4;stroke:#ffffff;stroke-width:0.75;" x="105.237176" xlink:href="#mcfbe6da3b1" y="132.174617"/>
     <use style="fill:#1f77b4;stroke:#ffffff;stroke-width:0.75;" x="108.804808" xlink:href="#mcfbe6da3b1" y="126.517411"/>
     <use style="fill:#1f77b4;stroke:#ffffff;stroke-width:0.75;" x="112.372441" xlink:href="#mcfbe6da3b1" y="128.998642"/>
     <use style="fill:#1f77b4;stroke:#ffffff;stroke-width:0.75;" x="115.940073" xlink:href="#mcfbe6da3b1" y="127.956525"/>
     <use style="fill:#1f77b4;stroke:#ffffff;stroke-width:0.75;" x="119.507705" xlink:href="#mcfbe6da3b1" y="130.785128"/>
     <use style="fill:#1f77b4;stroke:#ffffff;stroke-width:0.75;" x="123.075338" xlink:href="#mcfbe6da3b1" y="130.785128"/>
     <use style="fill:#1f77b4;stroke:#ffffff;stroke-width:0.75;" x="126.64297" xlink:href="#mcfbe6da3b1" y="130.785128"/>
     <use style="fill:#1f77b4;stroke:#ffffff;stroke-width:0.75;" x="130.210603" xlink:href="#mcfbe6da3b1" y="123.341436"/>
     <use style="fill:#1f77b4;stroke:#ffffff;stroke-width:0.75;" x="133.778235" xlink:href="#mcfbe6da3b1" y="121.703823"/>
     <use style="fill:#1f77b4;stroke:#ffffff;stroke-width:0.75;" x="137.345867" xlink:href="#mcfbe6da3b1" y="119.917337"/>
     <use style="fill:#1f77b4;stroke:#ffffff;stroke-width:0.75;" x="140.9135" xlink:href="#mcfbe6da3b1" y="120.363959"/>
     <use style="fill:#1f77b4;stroke:#ffffff;stroke-width:0.75;" x="144.481132" xlink:href="#mcfbe6da3b1" y="120.363959"/>
     <use style="fill:#1f77b4;stroke:#ffffff;stroke-width:0.75;" x="148.048764" xlink:href="#mcfbe6da3b1" y="120.661707"/>
     <use style="fill:#1f77b4;stroke:#ffffff;stroke-width:0.75;" x="151.616397" xlink:href="#mcfbe6da3b1" y="120.413583"/>
     <use style="fill:#1f77b4;stroke:#ffffff;stroke-width:0.75;" x="155.184029" xlink:href="#mcfbe6da3b1" y="120.413583"/>
     <use style="fill:#1f77b4;stroke:#ffffff;stroke-width:0.75;" x="158.751661" xlink:href="#mcfbe6da3b1" y="120.413583"/>
     <use style="fill:#1f77b4;stroke:#ffffff;stroke-width:0.75;" x="162.319294" xlink:href="#mcfbe6da3b1" y="120.562457"/>
     <use style="fill:#1f77b4;stroke:#ffffff;stroke-width:0.75;" x="165.886926" xlink:href="#mcfbe6da3b1" y="120.16546"/>
     <use style="fill:#1f77b4;stroke:#ffffff;stroke-width:0.75;" x="169.454559" xlink:href="#mcfbe6da3b1" y="119.768463"/>
     <use style="fill:#1f77b4;stroke:#ffffff;stroke-width:0.75;" x="173.022191" xlink:href="#mcfbe6da3b1" y="119.768463"/>
     <use style="fill:#1f77b4;stroke:#ffffff;stroke-width:0.75;" x="176.589823" xlink:href="#mcfbe6da3b1" y="117.088734"/>
     <use style="fill:#1f77b4;stroke:#ffffff;stroke-width:0.75;" x="180.157456" xlink:href="#mcfbe6da3b1" y="111.630027"/>
     <use style="fill:#1f77b4;stroke:#ffffff;stroke-width:0.75;" x="183.725088" xlink:href="#mcfbe6da3b1" y="107.660057"/>
     <use style="fill:#1f77b4;stroke:#ffffff;stroke-width:0.75;" x="187.29272" xlink:href="#mcfbe6da3b1" y="105.97282"/>
     <use style="fill:#1f77b4;stroke:#ffffff;stroke-width:0.75;" x="190.860353" xlink:href="#mcfbe6da3b1" y="116.096242"/>
     <use style="fill:#1f77b4;stroke:#ffffff;stroke-width:0.75;" x="194.427985" xlink:href="#mcfbe6da3b1" y="113.515762"/>
     <use style="fill:#1f77b4;stroke:#ffffff;stroke-width:0.75;" x="197.995618" xlink:href="#mcfbe6da3b1" y="113.515762"/>
     <use style="fill:#1f77b4;stroke:#ffffff;stroke-width:0.75;" x="201.56325" xlink:href="#mcfbe6da3b1" y="108.950297"/>
     <use style="fill:#1f77b4;stroke:#ffffff;stroke-width:0.75;" x="205.130882" xlink:href="#mcfbe6da3b1" y="105.774322"/>
     <use style="fill:#1f77b4;stroke:#ffffff;stroke-width:0.75;" x="208.698515" xlink:href="#mcfbe6da3b1" y="97.884008"/>
     <use style="fill:#1f77b4;stroke:#ffffff;stroke-width:0.75;" x="212.266147" xlink:href="#mcfbe6da3b1" y="95.551651"/>
     <use style="fill:#1f77b4;stroke:#ffffff;stroke-width:0.75;" x="215.833779" xlink:href="#mcfbe6da3b1" y="105.278076"/>
     <use style="fill:#1f77b4;stroke:#ffffff;stroke-width:0.75;" x="219.401412" xlink:href="#mcfbe6da3b1" y="108.950297"/>
     <use style="fill:#1f77b4;stroke:#ffffff;stroke-width:0.75;" x="222.969044" xlink:href="#mcfbe6da3b1" y="111.679651"/>
     <use style="fill:#1f77b4;stroke:#ffffff;stroke-width:0.75;" x="226.536676" xlink:href="#mcfbe6da3b1" y="108.454051"/>
     <use style="fill:#1f77b4;stroke:#ffffff;stroke-width:0.75;" x="230.104309" xlink:href="#mcfbe6da3b1" y="106.965313"/>
     <use style="fill:#1f77b4;stroke:#ffffff;stroke-width:0.75;" x="233.671941" xlink:href="#mcfbe6da3b1" y="105.923196"/>
     <use style="fill:#1f77b4;stroke:#ffffff;stroke-width:0.75;" x="237.239574" xlink:href="#mcfbe6da3b1" y="104.980328"/>
     <use style="fill:#1f77b4;stroke:#ffffff;stroke-width:0.75;" x="240.807206" xlink:href="#mcfbe6da3b1" y="104.980328"/>
     <use style="fill:#1f77b4;stroke:#ffffff;stroke-width:0.75;" x="244.374838" xlink:href="#mcfbe6da3b1" y="104.980328"/>
     <use style="fill:#1f77b4;stroke:#ffffff;stroke-width:0.75;" x="247.942471" xlink:href="#mcfbe6da3b1" y="105.873571"/>
     <use style="fill:#1f77b4;stroke:#ffffff;stroke-width:0.75;" x="251.510103" xlink:href="#mcfbe6da3b1" y="105.873571"/>
     <use style="fill:#1f77b4;stroke:#ffffff;stroke-width:0.75;" x="255.077735" xlink:href="#mcfbe6da3b1" y="105.873571"/>
     <use style="fill:#1f77b4;stroke:#ffffff;stroke-width:0.75;" x="258.645368" xlink:href="#mcfbe6da3b1" y="104.484082"/>
     <use style="fill:#1f77b4;stroke:#ffffff;stroke-width:0.75;" x="262.213" xlink:href="#mcfbe6da3b1" y="104.484082"/>
     <use style="fill:#1f77b4;stroke:#ffffff;stroke-width:0.75;" x="265.780632" xlink:href="#mcfbe6da3b1" y="80.962014"/>
     <use style="fill:#1f77b4;stroke:#ffffff;stroke-width:0.75;" x="269.348265" xlink:href="#mcfbe6da3b1" y="91.482433"/>
     <use style="fill:#1f77b4;stroke:#ffffff;stroke-width:0.75;" x="272.915897" xlink:href="#mcfbe6da3b1" y="102.896094"/>
     <use style="fill:#1f77b4;stroke:#ffffff;stroke-width:0.75;" x="276.48353" xlink:href="#mcfbe6da3b1" y="102.896094"/>
     <use style="fill:#1f77b4;stroke:#ffffff;stroke-width:0.75;" x="280.051162" xlink:href="#mcfbe6da3b1" y="102.896094"/>
     <use style="fill:#1f77b4;stroke:#ffffff;stroke-width:0.75;" x="283.618794" xlink:href="#mcfbe6da3b1" y="102.548722"/>
     <use style="fill:#1f77b4;stroke:#ffffff;stroke-width:0.75;" x="287.186427" xlink:href="#mcfbe6da3b1" y="102.499097"/>
     <use style="fill:#1f77b4;stroke:#ffffff;stroke-width:0.75;" x="290.754059" xlink:href="#mcfbe6da3b1" y="102.499097"/>
     <use style="fill:#1f77b4;stroke:#ffffff;stroke-width:0.75;" x="294.321691" xlink:href="#mcfbe6da3b1" y="102.151725"/>
     <use style="fill:#1f77b4;stroke:#ffffff;stroke-width:0.75;" x="297.889324" xlink:href="#mcfbe6da3b1" y="102.002851"/>
     <use style="fill:#1f77b4;stroke:#ffffff;stroke-width:0.75;" x="301.456956" xlink:href="#mcfbe6da3b1" y="87.562088"/>
     <use style="fill:#1f77b4;stroke:#ffffff;stroke-width:0.75;" x="305.024589" xlink:href="#mcfbe6da3b1" y="87.313965"/>
     <use style="fill:#1f77b4;stroke:#ffffff;stroke-width:0.75;" x="308.592221" xlink:href="#mcfbe6da3b1" y="87.313965"/>
     <use style="fill:#1f77b4;stroke:#ffffff;stroke-width:0.75;" x="312.159853" xlink:href="#mcfbe6da3b1" y="101.407356"/>
     <use style="fill:#1f77b4;stroke:#ffffff;stroke-width:0.75;" x="315.727486" xlink:href="#mcfbe6da3b1" y="102.300599"/>
     <use style="fill:#1f77b4;stroke:#ffffff;stroke-width:0.75;" x="319.295118" xlink:href="#mcfbe6da3b1" y="102.300599"/>
     <use style="fill:#1f77b4;stroke:#ffffff;stroke-width:0.75;" x="322.86275" xlink:href="#mcfbe6da3b1" y="91.829805"/>
     <use style="fill:#1f77b4;stroke:#ffffff;stroke-width:0.75;" x="326.430383" xlink:href="#mcfbe6da3b1" y="84.336488"/>
     <use style="fill:#1f77b4;stroke:#ffffff;stroke-width:0.75;" x="329.998015" xlink:href="#mcfbe6da3b1" y="84.336488"/>
     <use style="fill:#1f77b4;stroke:#ffffff;stroke-width:0.75;" x="333.565647" xlink:href="#mcfbe6da3b1" y="84.237239"/>
     <use style="fill:#1f77b4;stroke:#ffffff;stroke-width:0.75;" x="337.13328" xlink:href="#mcfbe6da3b1" y="91.78018"/>
     <use style="fill:#1f77b4;stroke:#ffffff;stroke-width:0.75;" x="340.700912" xlink:href="#mcfbe6da3b1" y="84.237239"/>
     <use style="fill:#1f77b4;stroke:#ffffff;stroke-width:0.75;" x="344.268545" xlink:href="#mcfbe6da3b1" y="91.78018"/>
     <use style="fill:#1f77b4;stroke:#ffffff;stroke-width:0.75;" x="347.836177" xlink:href="#mcfbe6da3b1" y="70.640094"/>
     <use style="fill:#1f77b4;stroke:#ffffff;stroke-width:0.75;" x="351.403809" xlink:href="#mcfbe6da3b1" y="83.095873"/>
     <use style="fill:#1f77b4;stroke:#ffffff;stroke-width:0.75;" x="354.971442" xlink:href="#mcfbe6da3b1" y="99.323122"/>
     <use style="fill:#1f77b4;stroke:#ffffff;stroke-width:0.75;" x="358.539074" xlink:href="#mcfbe6da3b1" y="99.323122"/>
     <use style="fill:#1f77b4;stroke:#ffffff;stroke-width:0.75;" x="362.106706" xlink:href="#mcfbe6da3b1" y="82.500377"/>
     <use style="fill:#1f77b4;stroke:#ffffff;stroke-width:0.75;" x="365.674339" xlink:href="#mcfbe6da3b1" y="65.677633"/>
     <use style="fill:#1f77b4;stroke:#ffffff;stroke-width:0.75;" x="369.241971" xlink:href="#mcfbe6da3b1" y="65.677633"/>
     <use style="fill:#1f77b4;stroke:#ffffff;stroke-width:0.75;" x="372.809604" xlink:href="#mcfbe6da3b1" y="80.465768"/>
     <use style="fill:#1f77b4;stroke:#ffffff;stroke-width:0.75;" x="376.377236" xlink:href="#mcfbe6da3b1" y="95.253903"/>
     <use style="fill:#1f77b4;stroke:#ffffff;stroke-width:0.75;" x="379.944868" xlink:href="#mcfbe6da3b1" y="95.154654"/>
     <use style="fill:#1f77b4;stroke:#ffffff;stroke-width:0.75;" x="383.512501" xlink:href="#mcfbe6da3b1" y="99.124623"/>
     <use style="fill:#1f77b4;stroke:#ffffff;stroke-width:0.75;" x="387.080133" xlink:href="#mcfbe6da3b1" y="82.401128"/>
     <use style="fill:#1f77b4;stroke:#ffffff;stroke-width:0.75;" x="390.647765" xlink:href="#mcfbe6da3b1" y="65.677633"/>
     <use style="fill:#1f77b4;stroke:#ffffff;stroke-width:0.75;" x="394.215398" xlink:href="#mcfbe6da3b1" y="82.153005"/>
    </g>
   </g>
   <g id="line2d_14"/>
   <g id="line2d_15"/>
   <g id="patch_3">
    <path d="M 53.328125 246.906728 
L 53.328125 48.408267 
" style="fill:none;stroke:#000000;stroke-linecap:square;stroke-linejoin:miter;stroke-width:0.8;"/>
   </g>
   <g id="patch_4">
    <path d="M 69.560852 288.430125 
L 343.079334 288.430125 
" style="fill:none;stroke:#000000;stroke-linecap:square;stroke-linejoin:miter;stroke-width:0.8;"/>
   </g>
   <g id="text_14">
    <!-- libarchive_libarchive_fuzzer (23h, 12 trials/fuzzer) -->
    <g transform="translate(82.461875 16.318125)scale(0.12 -0.12)">
     <defs>
      <path d="M 603 4863 
L 1178 4863 
L 1178 0 
L 603 0 
L 603 4863 
z
" id="DejaVuSans-6c" transform="scale(0.015625)"/>
      <path d="M 3116 1747 
Q 3116 2381 2855 2742 
Q 2594 3103 2138 3103 
Q 1681 3103 1420 2742 
Q 1159 2381 1159 1747 
Q 1159 1113 1420 752 
Q 1681 391 2138 391 
Q 2594 391 2855 752 
Q 3116 1113 3116 1747 
z
M 1159 2969 
Q 1341 3281 1617 3432 
Q 1894 3584 2278 3584 
Q 2916 3584 3314 3078 
Q 3713 2572 3713 1747 
Q 3713 922 3314 415 
Q 2916 -91 2278 -91 
Q 1894 -91 1617 61 
Q 1341 213 1159 525 
L 1159 0 
L 581 0 
L 581 4863 
L 1159 4863 
L 1159 2969 
z
" id="DejaVuSans-62" transform="scale(0.015625)"/>
      <path d="M 3263 -1063 
L 3263 -1509 
L -63 -1509 
L -63 -1063 
L 3263 -1063 
z
" id="DejaVuSans-5f" transform="scale(0.015625)"/>
      <path d="M 2375 4863 
L 2375 4384 
L 1825 4384 
Q 1516 4384 1395 4259 
Q 1275 4134 1275 3809 
L 1275 3500 
L 2222 3500 
L 2222 3053 
L 1275 3053 
L 1275 0 
L 697 0 
L 697 3053 
L 147 3053 
L 147 3500 
L 697 3500 
L 697 3744 
Q 697 4328 969 4595 
Q 1241 4863 1831 4863 
L 2375 4863 
z
" id="DejaVuSans-66" transform="scale(0.015625)"/>
      <path d="M 353 3500 
L 3084 3500 
L 3084 2975 
L 922 459 
L 3084 459 
L 3084 0 
L 275 0 
L 275 525 
L 2438 3041 
L 353 3041 
L 353 3500 
z
" id="DejaVuSans-7a" transform="scale(0.015625)"/>
      <path d="M 750 794 
L 1409 794 
L 1409 256 
L 897 -744 
L 494 -744 
L 750 256 
L 750 794 
z
" id="DejaVuSans-2c" transform="scale(0.015625)"/>
      <path d="M 2834 3397 
L 2834 2853 
Q 2591 2978 2328 3040 
Q 2066 3103 1784 3103 
Q 1356 3103 1142 2972 
Q 928 2841 928 2578 
Q 928 2378 1081 2264 
Q 1234 2150 1697 2047 
L 1894 2003 
Q 2506 1872 2764 1633 
Q 3022 1394 3022 966 
Q 3022 478 2636 193 
Q 2250 -91 1575 -91 
Q 1294 -91 989 -36 
Q 684 19 347 128 
L 347 722 
Q 666 556 975 473 
Q 1284 391 1588 391 
Q 1994 391 2212 530 
Q 2431 669 2431 922 
Q 2431 1156 2273 1281 
Q 2116 1406 1581 1522 
L 1381 1569 
Q 847 1681 609 1914 
Q 372 2147 372 2553 
Q 372 3047 722 3315 
Q 1072 3584 1716 3584 
Q 2034 3584 2315 3537 
Q 2597 3491 2834 3397 
z
" id="DejaVuSans-73" transform="scale(0.015625)"/>
      <path d="M 1625 4666 
L 2156 4666 
L 531 -594 
L 0 -594 
L 1625 4666 
z
" id="DejaVuSans-2f" transform="scale(0.015625)"/>
     </defs>
     <use xlink:href="#DejaVuSans-6c"/>
     <use x="27.783203" xlink:href="#DejaVuSans-69"/>
     <use x="55.566406" xlink:href="#DejaVuSans-62"/>
     <use x="119.042969" xlink:href="#DejaVuSans-61"/>
     <use x="180.322266" xlink:href="#DejaVuSans-72"/>
     <use x="219.185547" xlink:href="#DejaVuSans-63"/>
     <use x="274.166016" xlink:href="#DejaVuSans-68"/>
     <use x="337.544922" xlink:href="#DejaVuSans-69"/>
     <use x="365.328125" xlink:href="#DejaVuSans-76"/>
     <use x="424.507812" xlink:href="#DejaVuSans-65"/>
     <use x="486.03125" xlink:href="#DejaVuSans-5f"/>
     <use x="536.03125" xlink:href="#DejaVuSans-6c"/>
     <use x="563.814453" xlink:href="#DejaVuSans-69"/>
     <use x="591.597656" xlink:href="#DejaVuSans-62"/>
     <use x="655.074219" xlink:href="#DejaVuSans-61"/>
     <use x="716.353516" xlink:href="#DejaVuSans-72"/>
     <use x="755.216797" xlink:href="#DejaVuSans-63"/>
     <use x="810.197266" xlink:href="#DejaVuSans-68"/>
     <use x="873.576172" xlink:href="#DejaVuSans-69"/>
     <use x="901.359375" xlink:href="#DejaVuSans-76"/>
     <use x="960.539062" xlink:href="#DejaVuSans-65"/>
     <use x="1022.0625" xlink:href="#DejaVuSans-5f"/>
     <use x="1072.0625" xlink:href="#DejaVuSans-66"/>
     <use x="1107.267578" xlink:href="#DejaVuSans-75"/>
     <use x="1170.646484" xlink:href="#DejaVuSans-7a"/>
     <use x="1223.136719" xlink:href="#DejaVuSans-7a"/>
     <use x="1275.626953" xlink:href="#DejaVuSans-65"/>
     <use x="1337.150391" xlink:href="#DejaVuSans-72"/>
     <use x="1378.263672" xlink:href="#DejaVuSans-20"/>
     <use x="1410.050781" xlink:href="#DejaVuSans-28"/>
     <use x="1449.064453" xlink:href="#DejaVuSans-32"/>
     <use x="1512.6875" xlink:href="#DejaVuSans-33"/>
     <use x="1576.310547" xlink:href="#DejaVuSans-68"/>
     <use x="1639.689453" xlink:href="#DejaVuSans-2c"/>
     <use x="1671.476562" xlink:href="#DejaVuSans-20"/>
     <use x="1703.263672" xlink:href="#DejaVuSans-31"/>
     <use x="1766.886719" xlink:href="#DejaVuSans-32"/>
     <use x="1830.509766" xlink:href="#DejaVuSans-20"/>
     <use x="1862.296875" xlink:href="#DejaVuSans-74"/>
     <use x="1901.505859" xlink:href="#DejaVuSans-72"/>
     <use x="1942.619141" xlink:href="#DejaVuSans-69"/>
     <use x="1970.402344" xlink:href="#DejaVuSans-61"/>
     <use x="2031.681641" xlink:href="#DejaVuSans-6c"/>
     <use x="2059.464844" xlink:href="#DejaVuSans-73"/>
     <use x="2111.564453" xlink:href="#DejaVuSans-2f"/>
     <use x="2145.255859" xlink:href="#DejaVuSans-66"/>
     <use x="2180.460938" xlink:href="#DejaVuSans-75"/>
     <use x="2243.839844" xlink:href="#DejaVuSans-7a"/>
     <use x="2296.330078" xlink:href="#DejaVuSans-7a"/>
     <use x="2348.820312" xlink:href="#DejaVuSans-65"/>
     <use x="2410.34375" xlink:href="#DejaVuSans-72"/>
     <use x="2451.457031" xlink:href="#DejaVuSans-29"/>
    </g>
   </g>
   <g id="legend_1">
    <g id="line2d_16">
     <path d="M 414.448125 30.416562 
L 434.448125 30.416562 
" style="fill:none;stroke:#98df8a;stroke-linecap:square;stroke-width:1.5;"/>
    </g>
    <g id="line2d_17">
     <defs>
      <path d="M -0 3 
L 3 -3 
L -3 -3 
z
" id="m18d22b7230" style="stroke:#98df8a;stroke-linejoin:miter;"/>
     </defs>
     <g>
      <use style="fill:#98df8a;stroke:#98df8a;stroke-linejoin:miter;" x="424.448125" xlink:href="#m18d22b7230" y="30.416562"/>
     </g>
    </g>
    <g id="text_15">
     <!-- afl_no_trim -->
     <g transform="translate(442.448125 33.916562)scale(0.1 -0.1)">
      <use xlink:href="#DejaVuSans-61"/>
      <use x="61.279297" xlink:href="#DejaVuSans-66"/>
      <use x="96.484375" xlink:href="#DejaVuSans-6c"/>
      <use x="124.267578" xlink:href="#DejaVuSans-5f"/>
      <use x="174.267578" xlink:href="#DejaVuSans-6e"/>
      <use x="237.646484" xlink:href="#DejaVuSans-6f"/>
      <use x="298.828125" xlink:href="#DejaVuSans-5f"/>
      <use x="348.828125" xlink:href="#DejaVuSans-74"/>
      <use x="388.037109" xlink:href="#DejaVuSans-72"/>
      <use x="429.150391" xlink:href="#DejaVuSans-69"/>
      <use x="456.933594" xlink:href="#DejaVuSans-6d"/>
     </g>
    </g>
    <g id="line2d_18">
     <path d="M 414.448125 45.372813 
L 434.448125 45.372813 
" style="fill:none;stroke:#1f77b4;stroke-linecap:square;stroke-width:1.5;"/>
    </g>
    <g id="line2d_19">
     <defs>
      <path d="M 0 3 
C 0.795609 3 1.55874 2.683901 2.12132 2.12132 
C 2.683901 1.55874 3 0.795609 3 0 
C 3 -0.795609 2.683901 -1.55874 2.12132 -2.12132 
C 1.55874 -2.683901 0.795609 -3 0 -3 
C -0.795609 -3 -1.55874 -2.683901 -2.12132 -2.12132 
C -2.683901 -1.55874 -3 -0.795609 -3 0 
C -3 0.795609 -2.683901 1.55874 -2.12132 2.12132 
C -1.55874 2.683901 -0.795609 3 0 3 
z
" id="m7464a87ccb" style="stroke:#1f77b4;"/>
     </defs>
     <g>
      <use style="fill:#1f77b4;stroke:#1f77b4;" x="424.448125" xlink:href="#m7464a87ccb" y="45.372813"/>
     </g>
    </g>
    <g id="text_16">
     <!-- afl -->
     <g transform="translate(442.448125 48.872813)scale(0.1 -0.1)">
      <use xlink:href="#DejaVuSans-61"/>
      <use x="61.279297" xlink:href="#DejaVuSans-66"/>
      <use x="96.484375" xlink:href="#DejaVuSans-6c"/>
     </g>
    </g>
   </g>
  </g>
 </g>
 <defs>
  <clipPath id="p4c15790220">
   <rect height="266.112" width="357.12" x="53.328125" y="22.318125"/>
  </clipPath>
 </defs>
</svg>
