<?xml version="1.0" encoding="utf-8" standalone="no"?>
<!DOCTYPE svg PUBLIC "-//W3C//DTD SVG 1.1//EN"
  "http://www.w3.org/Graphics/SVG/1.1/DTD/svg11.dtd">
<svg height="325.986375pt" version="1.1" viewBox="0 0 515.443437 325.986375" width="515.443437pt" xmlns="http://www.w3.org/2000/svg" xmlns:xlink="http://www.w3.org/1999/xlink">
 <metadata>
  <rdf:RDF xmlns:cc="http://creativecommons.org/ns#" xmlns:dc="http://purl.org/dc/elements/1.1/" xmlns:rdf="http://www.w3.org/1999/02/22-rdf-syntax-ns#">
   <cc:Work>
    <dc:type rdf:resource="http://purl.org/dc/dcmitype/StillImage"/>
    <dc:date>2022-05-31T17:06:07.700432</dc:date>
    <dc:format>image/svg+xml</dc:format>
    <dc:creator>
     <cc:Agent>
      <dc:title>Matplotlib v3.4.3, https://matplotlib.org/</dc:title>
     </cc:Agent>
    </dc:creator>
   </cc:Work>
  </rdf:RDF>
 </metadata>
 <defs>
  <style type="text/css">*{stroke-linecap:butt;stroke-linejoin:round;}</style>
 </defs>
 <g id="figure_1">
  <g id="patch_1">
   <path d="M 0 325.986375 
L 515.443437 325.986375 
L 515.443437 0 
L 0 0 
z
" style="fill:#ffffff;"/>
  </g>
  <g id="axes_1">
   <g id="patch_2">
    <path d="M 59.690625 288.430125 
L 416.810625 288.430125 
L 416.810625 22.318125 
L 59.690625 22.318125 
z
" style="fill:#ffffff;"/>
   </g>
   <g id="PolyCollection_1">
    <defs>
     <path d="M 75.923352 -96.088906 
L 75.923352 -62.518628 
L 125.689806 -104.902776 
L 154.801316 -135.731259 
L 175.45626 -146.163457 
L 191.47748 -184.09386 
L 204.567769 -190.032188 
L 215.635452 -191.556894 
L 225.222714 -193.001352 
L 233.679279 -202.470578 
L 241.243934 -206.750454 
L 248.086996 -212.180547 
L 254.334223 -214.293736 
L 260.081115 -220.499557 
L 265.401906 -222.773241 
L 270.355443 -224.85968 
L 274.989168 -225.421414 
L 279.341883 -226.277389 
L 283.445733 -227.079866 
L 287.327641 -228.631321 
L 291.010388 -231.225996 
L 294.513415 -231.332993 
L 297.85345 -231.520238 
L 301.04499 -232.242467 
L 304.100677 -233.122851 
L 307.031607 -234.810392 
L 309.847569 -235.051135 
L 312.557242 -236.401971 
L 315.168359 -237.565563 
L 317.68784 -237.619061 
L 320.121897 -238.047049 
L 322.476135 -237.525439 
L 324.755622 -238.421538 
L 326.96496 -236.174603 
L 329.108337 -236.656089 
L 331.189579 -245.510083 
L 333.212187 -246.205563 
L 335.179373 -244.841352 
L 337.094095 -245.082095 
L 338.959078 -246.218937 
L 340.776842 -245.724077 
L 342.549717 -247.32903 
L 344.279869 -247.436027 
L 345.969307 -247.462776 
L 347.619904 -247.32903 
L 349.233406 -248.02451 
L 350.811444 -247.944262 
L 352.355542 -248.104758 
L 353.867131 -248.104758 
L 355.347551 -248.612993 
L 356.798061 -249.950454 
L 358.219847 -249.287408 
L 359.614023 -250.030702 
L 360.981642 -250.672683 
L 362.323696 -250.271445 
L 363.641124 -250.913426 
L 364.934813 -250.405191 
L 366.205604 -250.405191 
L 367.454294 -251.12742 
L 368.681636 -251.12742 
L 369.888351 -251.12742 
L 371.075119 -251.125748 
L 372.242589 -251.234417 
L 373.391378 -250.672683 
L 374.522076 -251.207668 
L 375.635243 -251.047173 
L 376.731414 -251.047173 
L 377.8111 -251.234417 
L 378.874791 -251.100671 
L 379.922953 -251.100671 
L 380.956033 -251.180919 
L 381.974459 -251.234417 
L 382.978641 -251.234417 
L 383.968971 -251.180919 
L 384.945827 -251.261166 
L 385.909571 -251.314665 
L 386.860549 -251.501909 
L 387.799096 -250.833179 
L 388.725532 -251.635656 
L 389.640166 -251.769402 
L 390.543295 -251.983396 
L 391.435205 -251.983396 
L 392.316171 -252.464882 
L 393.186458 -252.197389 
L 394.046323 -252.197389 
L 394.896011 -252.571878 
L 395.735761 -252.331135 
L 396.565803 -252.571878 
L 397.386358 -252.571878 
L 398.197642 -252.652126 
L 398.99986 -252.652126 
L 399.793214 -255.345104 
L 400.577898 -255.407296 
L 400.577898 -291.57225 
L 400.577898 -291.57225 
L 399.793214 -291.57225 
L 398.99986 -290.020795 
L 398.197642 -291.385005 
L 397.386358 -289.780052 
L 396.565803 -289.967296 
L 395.735761 -289.753303 
L 394.896011 -290.18129 
L 394.046323 -290.18129 
L 393.186458 -289.753303 
L 392.316171 -289.699804 
L 391.435205 -289.699804 
L 390.543295 -288.924077 
L 389.640166 -289.646306 
L 388.725532 -286.582182 
L 387.799096 -289.646306 
L 386.860549 -289.646306 
L 385.909571 -277.970269 
L 384.945827 -289.646306 
L 383.968971 -285.312931 
L 382.978641 -266.053488 
L 381.974459 -265.542244 
L 380.956033 -285.312931 
L 379.922953 -285.312931 
L 378.874791 -269.39547 
L 377.8111 -272.23256 
L 376.731414 -264.368287 
L 375.635243 -284.002219 
L 374.522076 -263.753055 
L 373.391378 -272.219185 
L 372.242589 -271.389959 
L 371.075119 -268.085426 
L 369.888351 -263.855371 
L 368.681636 -263.512312 
L 367.454294 -267.591569 
L 366.205604 -263.24482 
L 364.934813 -263.137823 
L 363.641124 -265.99999 
L 362.323696 -265.037018 
L 360.981642 -265.037018 
L 359.614023 -264.95677 
L 358.219847 -262.509216 
L 356.798061 -262.2016 
L 355.347551 -259.76742 
L 353.867131 -261.345625 
L 352.355542 -259.499928 
L 350.811444 -260.141909 
L 349.233406 -258.536956 
L 347.619904 -257.01225 
L 345.969307 -258.416584 
L 344.279869 -260.11516 
L 342.549717 -260.11516 
L 340.776842 -260.11516 
L 338.959078 -258.496832 
L 337.094095 -260.11516 
L 335.179373 -260.11516 
L 333.212187 -256.512708 
L 331.189579 -257.927408 
L 329.108337 -256.31677 
L 326.96496 -259.927916 
L 324.755622 -255.835284 
L 322.476135 -255.781786 
L 320.121897 -255.487544 
L 317.68784 -252.625711 
L 315.168359 -252.545129 
L 312.557242 -251.849649 
L 309.847569 -250.11095 
L 307.031607 -247.837265 
L 304.100677 -247.757018 
L 301.04499 -245.670578 
L 297.85345 -244.065625 
L 294.513415 -242.781662 
L 291.010388 -241.203457 
L 287.327641 -239.73225 
L 283.445733 -238.207544 
L 279.341883 -238.100547 
L 274.989168 -237.752807 
L 270.355443 -236.2816 
L 265.401906 -235.666368 
L 260.081115 -234.676646 
L 254.334223 -232.590207 
L 248.086996 -231.225996 
L 241.243934 -228.497575 
L 233.679279 -227.347358 
L 225.222714 -220.258813 
L 215.635452 -214.882219 
L 204.567769 -210.201104 
L 191.47748 -205.198999 
L 175.45626 -196.264758 
L 154.801316 -193.215346 
L 125.689806 -147.532015 
L 75.923352 -96.088906 
z
" id="mb0159312bc" style="stroke:#98df8a;stroke-opacity:0.2;"/>
    </defs>
    <g clip-path="url(#p6da9cd65fa)">
     <use style="fill:#98df8a;fill-opacity:0.2;stroke:#98df8a;stroke-opacity:0.2;" x="0" xlink:href="#mb0159312bc" y="325.986375"/>
    </g>
   </g>
   <g id="PolyCollection_2">
    <defs>
     <path d="M 75.923352 -98.282343 
L 75.923352 -49.65225 
L 125.689806 -71.720361 
L 154.801316 -114.083111 
L 175.45626 -127.091259 
L 191.47748 -145.788968 
L 204.567769 -149.721104 
L 215.635452 -148.437142 
L 225.222714 -157.719123 
L 233.679279 -162.854974 
L 241.243934 -168.606058 
L 248.086996 -177.86129 
L 254.334223 -183.799618 
L 260.081115 -184.120609 
L 265.401906 -189.6042 
L 270.355443 -197.628968 
L 274.989168 -200.277142 
L 279.341883 -203.487049 
L 283.445733 -205.065253 
L 287.327641 -205.038504 
L 291.010388 -214.587978 
L 294.513415 -225.662157 
L 297.85345 -226.116894 
L 301.04499 -224.966677 
L 304.100677 -219.115284 
L 307.031607 -225.71833 
L 309.847569 -221.40903 
L 312.557242 -225.849402 
L 315.168359 -221.905563 
L 317.68784 -226.25064 
L 320.121897 -220.285563 
L 322.476135 -226.411135 
L 324.755622 -220.446058 
L 326.96496 -212.635284 
L 329.108337 -228.631321 
L 331.189579 -228.872064 
L 333.212187 -223.294851 
L 335.179373 -230.084473 
L 337.094095 -233.098442 
L 338.959078 -233.098442 
L 340.776842 -236.121104 
L 342.549717 -233.098442 
L 344.279869 -233.093426 
L 345.969307 -236.776461 
L 347.619904 -239.135074 
L 349.233406 -233.232188 
L 350.811444 -239.250764 
L 352.355542 -233.419433 
L 353.867131 -234.302157 
L 355.347551 -234.730145 
L 356.798061 -239.250764 
L 358.219847 -237.833055 
L 359.614023 -237.779557 
L 360.981642 -238.154046 
L 362.323696 -240.42773 
L 363.641124 -238.421538 
L 364.934813 -238.033674 
L 366.205604 -239.170516 
L 367.454294 -240.053241 
L 368.681636 -241.925687 
L 369.888351 -241.12321 
L 371.075119 -241.12321 
L 372.242589 -241.149959 
L 373.391378 -241.149959 
L 374.522076 -237.217823 
L 375.635243 -237.639123 
L 376.731414 -237.726058 
L 377.8111 -241.925687 
L 378.874791 -242.251693 
L 379.922953 -241.925687 
L 380.956033 -240.735346 
L 381.974459 -242.788349 
L 382.978641 -242.032683 
L 383.968971 -238.582033 
L 384.945827 -242.474046 
L 385.909571 -242.16643 
L 386.860549 -242.326925 
L 387.799096 -242.380423 
L 388.725532 -238.956522 
L 389.640166 -242.968906 
L 390.543295 -242.647916 
L 391.435205 -242.915408 
L 392.316171 -242.968906 
L 393.186458 -241.404077 
L 394.046323 -242.879296 
L 394.896011 -242.968906 
L 395.735761 -242.968906 
L 396.565803 -239.38451 
L 397.386358 -242.968906 
L 398.197642 -242.968906 
L 398.99986 -244.440114 
L 399.793214 -243.129402 
L 400.577898 -243.1829 
L 400.577898 -254.658318 
L 400.577898 -254.658318 
L 399.793214 -254.116646 
L 398.99986 -254.658318 
L 398.197642 -254.658318 
L 397.386358 -253.815717 
L 396.565803 -251.341414 
L 395.735761 -253.160361 
L 394.896011 -253.160361 
L 394.046323 -250.550306 
L 393.186458 -252.973117 
L 392.316171 -252.973117 
L 391.435205 -251.622281 
L 390.543295 -254.176832 
L 389.640166 -252.892869 
L 388.725532 -252.491631 
L 387.799096 -252.304386 
L 386.860549 -252.250888 
L 385.909571 -251.170888 
L 384.945827 -251.114046 
L 383.968971 -249.880238 
L 382.978641 -250.217947 
L 381.974459 -248.746739 
L 380.956033 -248.693241 
L 379.922953 -249.843457 
L 378.874791 -249.843457 
L 377.8111 -248.693241 
L 376.731414 -249.843457 
L 375.635243 -248.586244 
L 374.522076 -249.41547 
L 373.391378 -248.452498 
L 372.242589 -248.71999 
L 371.075119 -247.810516 
L 369.888351 -248.238504 
L 368.681636 -247.810516 
L 367.454294 -248.211755 
L 366.205604 -248.211755 
L 364.934813 -247.409278 
L 363.641124 -247.31064 
L 362.323696 -247.248783 
L 360.981642 -247.864015 
L 359.614023 -247.248783 
L 358.219847 -247.837265 
L 356.798061 -246.794046 
L 355.347551 -246.63355 
L 353.867131 -244.868101 
L 352.355542 -244.734355 
L 350.811444 -245.420473 
L 349.233406 -244.654108 
L 347.619904 -243.209649 
L 345.969307 -242.808411 
L 344.279869 -243.129402 
L 342.549717 -242.16643 
L 340.776842 -244.440448 
L 338.959078 -241.711693 
L 337.094095 -244.012126 
L 335.179373 -241.417451 
L 333.212187 -241.81869 
L 331.189579 -241.390702 
L 329.108337 -242.701414 
L 326.96496 -241.310454 
L 324.755622 -241.310454 
L 322.476135 -241.417451 
L 320.121897 -241.016213 
L 317.68784 -240.721971 
L 315.168359 -239.063519 
L 312.557242 -238.475036 
L 309.847569 -238.234293 
L 307.031607 -237.137575 
L 304.100677 -236.816584 
L 301.04499 -236.589216 
L 297.85345 -235.158132 
L 294.513415 -235.75999 
L 291.010388 -235.532622 
L 287.327641 -234.5429 
L 283.445733 -233.365934 
L 279.341883 -232.081971 
L 274.989168 -230.931755 
L 270.355443 -230.343272 
L 265.401906 -228.631321 
L 260.081115 -224.88643 
L 254.334223 -222.532498 
L 248.086996 -218.948101 
L 241.243934 -218.814355 
L 233.679279 -213.411012 
L 225.222714 -211.458318 
L 215.635452 -201.427358 
L 204.567769 -198.59194 
L 191.47748 -191.289402 
L 175.45626 -170.300956 
L 154.801316 -164.085439 
L 125.689806 -131.424634 
L 75.923352 -98.282343 
z
" id="m85b9f1cd99" style="stroke:#1f77b4;stroke-opacity:0.2;"/>
    </defs>
    <g clip-path="url(#p6da9cd65fa)">
     <use style="fill:#1f77b4;fill-opacity:0.2;stroke:#1f77b4;stroke-opacity:0.2;" x="0" xlink:href="#m85b9f1cd99" y="325.986375"/>
    </g>
   </g>
   <g id="matplotlib.axis_1">
    <g id="xtick_1">
     <g id="line2d_1">
      <defs>
       <path d="M 0 0 
L 0 3.5 
" id="m57a8b80be5" style="stroke:#000000;stroke-width:0.8;"/>
      </defs>
      <g>
       <use style="stroke:#000000;stroke-width:0.8;" x="75.923352" xlink:href="#m57a8b80be5" y="288.430125"/>
      </g>
     </g>
     <g id="text_1">
      <!-- 14m -->
      <g transform="translate(64.69054 303.028562)scale(0.1 -0.1)">
       <defs>
        <path d="M 794 531 
L 1825 531 
L 1825 4091 
L 703 3866 
L 703 4441 
L 1819 4666 
L 2450 4666 
L 2450 531 
L 3481 531 
L 3481 0 
L 794 0 
L 794 531 
z
" id="DejaVuSans-31" transform="scale(0.015625)"/>
        <path d="M 2419 4116 
L 825 1625 
L 2419 1625 
L 2419 4116 
z
M 2253 4666 
L 3047 4666 
L 3047 1625 
L 3713 1625 
L 3713 1100 
L 3047 1100 
L 3047 0 
L 2419 0 
L 2419 1100 
L 313 1100 
L 313 1709 
L 2253 4666 
z
" id="DejaVuSans-34" transform="scale(0.015625)"/>
        <path d="M 3328 2828 
Q 3544 3216 3844 3400 
Q 4144 3584 4550 3584 
Q 5097 3584 5394 3201 
Q 5691 2819 5691 2113 
L 5691 0 
L 5113 0 
L 5113 2094 
Q 5113 2597 4934 2840 
Q 4756 3084 4391 3084 
Q 3944 3084 3684 2787 
Q 3425 2491 3425 1978 
L 3425 0 
L 2847 0 
L 2847 2094 
Q 2847 2600 2669 2842 
Q 2491 3084 2119 3084 
Q 1678 3084 1418 2786 
Q 1159 2488 1159 1978 
L 1159 0 
L 581 0 
L 581 3500 
L 1159 3500 
L 1159 2956 
Q 1356 3278 1631 3431 
Q 1906 3584 2284 3584 
Q 2666 3584 2933 3390 
Q 3200 3197 3328 2828 
z
" id="DejaVuSans-6d" transform="scale(0.015625)"/>
       </defs>
       <use xlink:href="#DejaVuSans-31"/>
       <use x="63.623047" xlink:href="#DejaVuSans-34"/>
       <use x="127.246094" xlink:href="#DejaVuSans-6d"/>
      </g>
     </g>
    </g>
    <g id="xtick_2">
     <g id="line2d_2">
      <g>
       <use style="stroke:#000000;stroke-width:0.8;" x="140.854435" xlink:href="#m57a8b80be5" y="288.430125"/>
      </g>
     </g>
     <g id="text_2">
      <!-- 37m -->
      <g transform="translate(129.621622 303.028562)scale(0.1 -0.1)">
       <defs>
        <path d="M 2597 2516 
Q 3050 2419 3304 2112 
Q 3559 1806 3559 1356 
Q 3559 666 3084 287 
Q 2609 -91 1734 -91 
Q 1441 -91 1130 -33 
Q 819 25 488 141 
L 488 750 
Q 750 597 1062 519 
Q 1375 441 1716 441 
Q 2309 441 2620 675 
Q 2931 909 2931 1356 
Q 2931 1769 2642 2001 
Q 2353 2234 1838 2234 
L 1294 2234 
L 1294 2753 
L 1863 2753 
Q 2328 2753 2575 2939 
Q 2822 3125 2822 3475 
Q 2822 3834 2567 4026 
Q 2313 4219 1838 4219 
Q 1578 4219 1281 4162 
Q 984 4106 628 3988 
L 628 4550 
Q 988 4650 1302 4700 
Q 1616 4750 1894 4750 
Q 2613 4750 3031 4423 
Q 3450 4097 3450 3541 
Q 3450 3153 3228 2886 
Q 3006 2619 2597 2516 
z
" id="DejaVuSans-33" transform="scale(0.015625)"/>
        <path d="M 525 4666 
L 3525 4666 
L 3525 4397 
L 1831 0 
L 1172 0 
L 2766 4134 
L 525 4134 
L 525 4666 
z
" id="DejaVuSans-37" transform="scale(0.015625)"/>
       </defs>
       <use xlink:href="#DejaVuSans-33"/>
       <use x="63.623047" xlink:href="#DejaVuSans-37"/>
       <use x="127.246094" xlink:href="#DejaVuSans-6d"/>
      </g>
     </g>
    </g>
    <g id="xtick_3">
     <g id="line2d_3">
      <g>
       <use style="stroke:#000000;stroke-width:0.8;" x="205.785517" xlink:href="#m57a8b80be5" y="288.430125"/>
      </g>
     </g>
     <g id="text_3">
      <!-- 1h:31m -->
      <g transform="translate(186.51833 303.028562)scale(0.1 -0.1)">
       <defs>
        <path d="M 3513 2113 
L 3513 0 
L 2938 0 
L 2938 2094 
Q 2938 2591 2744 2837 
Q 2550 3084 2163 3084 
Q 1697 3084 1428 2787 
Q 1159 2491 1159 1978 
L 1159 0 
L 581 0 
L 581 4863 
L 1159 4863 
L 1159 2956 
Q 1366 3272 1645 3428 
Q 1925 3584 2291 3584 
Q 2894 3584 3203 3211 
Q 3513 2838 3513 2113 
z
" id="DejaVuSans-68" transform="scale(0.015625)"/>
        <path d="M 750 794 
L 1409 794 
L 1409 0 
L 750 0 
L 750 794 
z
M 750 3309 
L 1409 3309 
L 1409 2516 
L 750 2516 
L 750 3309 
z
" id="DejaVuSans-3a" transform="scale(0.015625)"/>
       </defs>
       <use xlink:href="#DejaVuSans-31"/>
       <use x="63.623047" xlink:href="#DejaVuSans-68"/>
       <use x="127.001953" xlink:href="#DejaVuSans-3a"/>
       <use x="160.693359" xlink:href="#DejaVuSans-33"/>
       <use x="224.316406" xlink:href="#DejaVuSans-31"/>
       <use x="287.939453" xlink:href="#DejaVuSans-6d"/>
      </g>
     </g>
    </g>
    <g id="xtick_4">
     <g id="line2d_4">
      <g>
       <use style="stroke:#000000;stroke-width:0.8;" x="270.7166" xlink:href="#m57a8b80be5" y="288.430125"/>
      </g>
     </g>
     <g id="text_4">
      <!-- 3h:46m -->
      <g transform="translate(251.449412 303.028562)scale(0.1 -0.1)">
       <defs>
        <path d="M 2113 2584 
Q 1688 2584 1439 2293 
Q 1191 2003 1191 1497 
Q 1191 994 1439 701 
Q 1688 409 2113 409 
Q 2538 409 2786 701 
Q 3034 994 3034 1497 
Q 3034 2003 2786 2293 
Q 2538 2584 2113 2584 
z
M 3366 4563 
L 3366 3988 
Q 3128 4100 2886 4159 
Q 2644 4219 2406 4219 
Q 1781 4219 1451 3797 
Q 1122 3375 1075 2522 
Q 1259 2794 1537 2939 
Q 1816 3084 2150 3084 
Q 2853 3084 3261 2657 
Q 3669 2231 3669 1497 
Q 3669 778 3244 343 
Q 2819 -91 2113 -91 
Q 1303 -91 875 529 
Q 447 1150 447 2328 
Q 447 3434 972 4092 
Q 1497 4750 2381 4750 
Q 2619 4750 2861 4703 
Q 3103 4656 3366 4563 
z
" id="DejaVuSans-36" transform="scale(0.015625)"/>
       </defs>
       <use xlink:href="#DejaVuSans-33"/>
       <use x="63.623047" xlink:href="#DejaVuSans-68"/>
       <use x="127.001953" xlink:href="#DejaVuSans-3a"/>
       <use x="160.693359" xlink:href="#DejaVuSans-34"/>
       <use x="224.316406" xlink:href="#DejaVuSans-36"/>
       <use x="287.939453" xlink:href="#DejaVuSans-6d"/>
      </g>
     </g>
    </g>
    <g id="xtick_5">
     <g id="line2d_5">
      <g>
       <use style="stroke:#000000;stroke-width:0.8;" x="335.647682" xlink:href="#m57a8b80be5" y="288.430125"/>
      </g>
     </g>
     <g id="text_5">
      <!-- 9h:18m -->
      <g transform="translate(316.380495 303.028562)scale(0.1 -0.1)">
       <defs>
        <path d="M 703 97 
L 703 672 
Q 941 559 1184 500 
Q 1428 441 1663 441 
Q 2288 441 2617 861 
Q 2947 1281 2994 2138 
Q 2813 1869 2534 1725 
Q 2256 1581 1919 1581 
Q 1219 1581 811 2004 
Q 403 2428 403 3163 
Q 403 3881 828 4315 
Q 1253 4750 1959 4750 
Q 2769 4750 3195 4129 
Q 3622 3509 3622 2328 
Q 3622 1225 3098 567 
Q 2575 -91 1691 -91 
Q 1453 -91 1209 -44 
Q 966 3 703 97 
z
M 1959 2075 
Q 2384 2075 2632 2365 
Q 2881 2656 2881 3163 
Q 2881 3666 2632 3958 
Q 2384 4250 1959 4250 
Q 1534 4250 1286 3958 
Q 1038 3666 1038 3163 
Q 1038 2656 1286 2365 
Q 1534 2075 1959 2075 
z
" id="DejaVuSans-39" transform="scale(0.015625)"/>
        <path d="M 2034 2216 
Q 1584 2216 1326 1975 
Q 1069 1734 1069 1313 
Q 1069 891 1326 650 
Q 1584 409 2034 409 
Q 2484 409 2743 651 
Q 3003 894 3003 1313 
Q 3003 1734 2745 1975 
Q 2488 2216 2034 2216 
z
M 1403 2484 
Q 997 2584 770 2862 
Q 544 3141 544 3541 
Q 544 4100 942 4425 
Q 1341 4750 2034 4750 
Q 2731 4750 3128 4425 
Q 3525 4100 3525 3541 
Q 3525 3141 3298 2862 
Q 3072 2584 2669 2484 
Q 3125 2378 3379 2068 
Q 3634 1759 3634 1313 
Q 3634 634 3220 271 
Q 2806 -91 2034 -91 
Q 1263 -91 848 271 
Q 434 634 434 1313 
Q 434 1759 690 2068 
Q 947 2378 1403 2484 
z
M 1172 3481 
Q 1172 3119 1398 2916 
Q 1625 2713 2034 2713 
Q 2441 2713 2670 2916 
Q 2900 3119 2900 3481 
Q 2900 3844 2670 4047 
Q 2441 4250 2034 4250 
Q 1625 4250 1398 4047 
Q 1172 3844 1172 3481 
z
" id="DejaVuSans-38" transform="scale(0.015625)"/>
       </defs>
       <use xlink:href="#DejaVuSans-39"/>
       <use x="63.623047" xlink:href="#DejaVuSans-68"/>
       <use x="127.001953" xlink:href="#DejaVuSans-3a"/>
       <use x="160.693359" xlink:href="#DejaVuSans-31"/>
       <use x="224.316406" xlink:href="#DejaVuSans-38"/>
       <use x="287.939453" xlink:href="#DejaVuSans-6d"/>
      </g>
     </g>
    </g>
    <g id="xtick_6">
     <g id="line2d_6">
      <g>
       <use style="stroke:#000000;stroke-width:0.8;" x="400.578765" xlink:href="#m57a8b80be5" y="288.430125"/>
      </g>
     </g>
     <g id="text_6">
      <!-- 23h -->
      <g transform="translate(391.047515 303.028562)scale(0.1 -0.1)">
       <defs>
        <path d="M 1228 531 
L 3431 531 
L 3431 0 
L 469 0 
L 469 531 
Q 828 903 1448 1529 
Q 2069 2156 2228 2338 
Q 2531 2678 2651 2914 
Q 2772 3150 2772 3378 
Q 2772 3750 2511 3984 
Q 2250 4219 1831 4219 
Q 1534 4219 1204 4116 
Q 875 4013 500 3803 
L 500 4441 
Q 881 4594 1212 4672 
Q 1544 4750 1819 4750 
Q 2544 4750 2975 4387 
Q 3406 4025 3406 3419 
Q 3406 3131 3298 2873 
Q 3191 2616 2906 2266 
Q 2828 2175 2409 1742 
Q 1991 1309 1228 531 
z
" id="DejaVuSans-32" transform="scale(0.015625)"/>
       </defs>
       <use xlink:href="#DejaVuSans-32"/>
       <use x="63.623047" xlink:href="#DejaVuSans-33"/>
       <use x="127.246094" xlink:href="#DejaVuSans-68"/>
      </g>
     </g>
    </g>
    <g id="xtick_7">
     <g id="line2d_7">
      <defs>
       <path d="M 0 0 
L 0 2 
" id="mf5c7a0371e" style="stroke:#000000;stroke-width:0.6;"/>
      </defs>
      <g>
       <use style="stroke:#000000;stroke-width:0.6;" x="67.466788" xlink:href="#mf5c7a0371e" y="288.430125"/>
      </g>
     </g>
    </g>
    <g id="xtick_8">
     <g id="line2d_8">
      <g>
       <use style="stroke:#000000;stroke-width:0.6;" x="133.254461" xlink:href="#mf5c7a0371e" y="288.430125"/>
      </g>
     </g>
    </g>
    <g id="xtick_9">
     <g id="line2d_9">
      <g>
       <use style="stroke:#000000;stroke-width:0.6;" x="162.36597" xlink:href="#mf5c7a0371e" y="288.430125"/>
      </g>
     </g>
    </g>
    <g id="xtick_10">
     <g id="line2d_10">
      <g>
       <use style="stroke:#000000;stroke-width:0.6;" x="183.020915" xlink:href="#mf5c7a0371e" y="288.430125"/>
      </g>
     </g>
    </g>
    <g id="xtick_11">
     <g id="line2d_11">
      <g>
       <use style="stroke:#000000;stroke-width:0.6;" x="199.042135" xlink:href="#mf5c7a0371e" y="288.430125"/>
      </g>
     </g>
    </g>
    <g id="xtick_12">
     <g id="line2d_12">
      <g>
       <use style="stroke:#000000;stroke-width:0.6;" x="212.132424" xlink:href="#mf5c7a0371e" y="288.430125"/>
      </g>
     </g>
    </g>
    <g id="xtick_13">
     <g id="line2d_13">
      <g>
       <use style="stroke:#000000;stroke-width:0.6;" x="223.200107" xlink:href="#mf5c7a0371e" y="288.430125"/>
      </g>
     </g>
    </g>
    <g id="xtick_14">
     <g id="line2d_14">
      <g>
       <use style="stroke:#000000;stroke-width:0.6;" x="232.787369" xlink:href="#mf5c7a0371e" y="288.430125"/>
      </g>
     </g>
    </g>
    <g id="xtick_15">
     <g id="line2d_15">
      <g>
       <use style="stroke:#000000;stroke-width:0.6;" x="241.243934" xlink:href="#mf5c7a0371e" y="288.430125"/>
      </g>
     </g>
    </g>
    <g id="xtick_16">
     <g id="line2d_16">
      <g>
       <use style="stroke:#000000;stroke-width:0.6;" x="298.575043" xlink:href="#mf5c7a0371e" y="288.430125"/>
      </g>
     </g>
    </g>
    <g id="xtick_17">
     <g id="line2d_17">
      <g>
       <use style="stroke:#000000;stroke-width:0.6;" x="327.686552" xlink:href="#mf5c7a0371e" y="288.430125"/>
      </g>
     </g>
    </g>
    <g id="xtick_18">
     <g id="line2d_18">
      <g>
       <use style="stroke:#000000;stroke-width:0.6;" x="348.341496" xlink:href="#mf5c7a0371e" y="288.430125"/>
      </g>
     </g>
    </g>
    <g id="xtick_19">
     <g id="line2d_19">
      <g>
       <use style="stroke:#000000;stroke-width:0.6;" x="364.362716" xlink:href="#mf5c7a0371e" y="288.430125"/>
      </g>
     </g>
    </g>
    <g id="xtick_20">
     <g id="line2d_20">
      <g>
       <use style="stroke:#000000;stroke-width:0.6;" x="377.453006" xlink:href="#mf5c7a0371e" y="288.430125"/>
      </g>
     </g>
    </g>
    <g id="xtick_21">
     <g id="line2d_21">
      <g>
       <use style="stroke:#000000;stroke-width:0.6;" x="388.520688" xlink:href="#mf5c7a0371e" y="288.430125"/>
      </g>
     </g>
    </g>
    <g id="xtick_22">
     <g id="line2d_22">
      <g>
       <use style="stroke:#000000;stroke-width:0.6;" x="398.10795" xlink:href="#mf5c7a0371e" y="288.430125"/>
      </g>
     </g>
    </g>
    <g id="xtick_23">
     <g id="line2d_23">
      <g>
       <use style="stroke:#000000;stroke-width:0.6;" x="406.564515" xlink:href="#mf5c7a0371e" y="288.430125"/>
      </g>
     </g>
    </g>
    <g id="text_7">
     <!-- Time (hour:minute) -->
     <g transform="translate(189.843594 316.706687)scale(0.1 -0.1)">
      <defs>
       <path d="M -19 4666 
L 3928 4666 
L 3928 4134 
L 2272 4134 
L 2272 0 
L 1638 0 
L 1638 4134 
L -19 4134 
L -19 4666 
z
" id="DejaVuSans-54" transform="scale(0.015625)"/>
       <path d="M 603 3500 
L 1178 3500 
L 1178 0 
L 603 0 
L 603 3500 
z
M 603 4863 
L 1178 4863 
L 1178 4134 
L 603 4134 
L 603 4863 
z
" id="DejaVuSans-69" transform="scale(0.015625)"/>
       <path d="M 3597 1894 
L 3597 1613 
L 953 1613 
Q 991 1019 1311 708 
Q 1631 397 2203 397 
Q 2534 397 2845 478 
Q 3156 559 3463 722 
L 3463 178 
Q 3153 47 2828 -22 
Q 2503 -91 2169 -91 
Q 1331 -91 842 396 
Q 353 884 353 1716 
Q 353 2575 817 3079 
Q 1281 3584 2069 3584 
Q 2775 3584 3186 3129 
Q 3597 2675 3597 1894 
z
M 3022 2063 
Q 3016 2534 2758 2815 
Q 2500 3097 2075 3097 
Q 1594 3097 1305 2825 
Q 1016 2553 972 2059 
L 3022 2063 
z
" id="DejaVuSans-65" transform="scale(0.015625)"/>
       <path id="DejaVuSans-20" transform="scale(0.015625)"/>
       <path d="M 1984 4856 
Q 1566 4138 1362 3434 
Q 1159 2731 1159 2009 
Q 1159 1288 1364 580 
Q 1569 -128 1984 -844 
L 1484 -844 
Q 1016 -109 783 600 
Q 550 1309 550 2009 
Q 550 2706 781 3412 
Q 1013 4119 1484 4856 
L 1984 4856 
z
" id="DejaVuSans-28" transform="scale(0.015625)"/>
       <path d="M 1959 3097 
Q 1497 3097 1228 2736 
Q 959 2375 959 1747 
Q 959 1119 1226 758 
Q 1494 397 1959 397 
Q 2419 397 2687 759 
Q 2956 1122 2956 1747 
Q 2956 2369 2687 2733 
Q 2419 3097 1959 3097 
z
M 1959 3584 
Q 2709 3584 3137 3096 
Q 3566 2609 3566 1747 
Q 3566 888 3137 398 
Q 2709 -91 1959 -91 
Q 1206 -91 779 398 
Q 353 888 353 1747 
Q 353 2609 779 3096 
Q 1206 3584 1959 3584 
z
" id="DejaVuSans-6f" transform="scale(0.015625)"/>
       <path d="M 544 1381 
L 544 3500 
L 1119 3500 
L 1119 1403 
Q 1119 906 1312 657 
Q 1506 409 1894 409 
Q 2359 409 2629 706 
Q 2900 1003 2900 1516 
L 2900 3500 
L 3475 3500 
L 3475 0 
L 2900 0 
L 2900 538 
Q 2691 219 2414 64 
Q 2138 -91 1772 -91 
Q 1169 -91 856 284 
Q 544 659 544 1381 
z
M 1991 3584 
L 1991 3584 
z
" id="DejaVuSans-75" transform="scale(0.015625)"/>
       <path d="M 2631 2963 
Q 2534 3019 2420 3045 
Q 2306 3072 2169 3072 
Q 1681 3072 1420 2755 
Q 1159 2438 1159 1844 
L 1159 0 
L 581 0 
L 581 3500 
L 1159 3500 
L 1159 2956 
Q 1341 3275 1631 3429 
Q 1922 3584 2338 3584 
Q 2397 3584 2469 3576 
Q 2541 3569 2628 3553 
L 2631 2963 
z
" id="DejaVuSans-72" transform="scale(0.015625)"/>
       <path d="M 3513 2113 
L 3513 0 
L 2938 0 
L 2938 2094 
Q 2938 2591 2744 2837 
Q 2550 3084 2163 3084 
Q 1697 3084 1428 2787 
Q 1159 2491 1159 1978 
L 1159 0 
L 581 0 
L 581 3500 
L 1159 3500 
L 1159 2956 
Q 1366 3272 1645 3428 
Q 1925 3584 2291 3584 
Q 2894 3584 3203 3211 
Q 3513 2838 3513 2113 
z
" id="DejaVuSans-6e" transform="scale(0.015625)"/>
       <path d="M 1172 4494 
L 1172 3500 
L 2356 3500 
L 2356 3053 
L 1172 3053 
L 1172 1153 
Q 1172 725 1289 603 
Q 1406 481 1766 481 
L 2356 481 
L 2356 0 
L 1766 0 
Q 1100 0 847 248 
Q 594 497 594 1153 
L 594 3053 
L 172 3053 
L 172 3500 
L 594 3500 
L 594 4494 
L 1172 4494 
z
" id="DejaVuSans-74" transform="scale(0.015625)"/>
       <path d="M 513 4856 
L 1013 4856 
Q 1481 4119 1714 3412 
Q 1947 2706 1947 2009 
Q 1947 1309 1714 600 
Q 1481 -109 1013 -844 
L 513 -844 
Q 928 -128 1133 580 
Q 1338 1288 1338 2009 
Q 1338 2731 1133 3434 
Q 928 4138 513 4856 
z
" id="DejaVuSans-29" transform="scale(0.015625)"/>
      </defs>
      <use xlink:href="#DejaVuSans-54"/>
      <use x="57.958984" xlink:href="#DejaVuSans-69"/>
      <use x="85.742188" xlink:href="#DejaVuSans-6d"/>
      <use x="183.154297" xlink:href="#DejaVuSans-65"/>
      <use x="244.677734" xlink:href="#DejaVuSans-20"/>
      <use x="276.464844" xlink:href="#DejaVuSans-28"/>
      <use x="315.478516" xlink:href="#DejaVuSans-68"/>
      <use x="378.857422" xlink:href="#DejaVuSans-6f"/>
      <use x="440.039062" xlink:href="#DejaVuSans-75"/>
      <use x="503.417969" xlink:href="#DejaVuSans-72"/>
      <use x="542.78125" xlink:href="#DejaVuSans-3a"/>
      <use x="576.472656" xlink:href="#DejaVuSans-6d"/>
      <use x="673.884766" xlink:href="#DejaVuSans-69"/>
      <use x="701.667969" xlink:href="#DejaVuSans-6e"/>
      <use x="765.046875" xlink:href="#DejaVuSans-75"/>
      <use x="828.425781" xlink:href="#DejaVuSans-74"/>
      <use x="867.634766" xlink:href="#DejaVuSans-65"/>
      <use x="929.158203" xlink:href="#DejaVuSans-29"/>
     </g>
    </g>
   </g>
   <g id="matplotlib.axis_2">
    <g id="ytick_1">
     <g id="line2d_24">
      <defs>
       <path d="M 0 0 
L -3.5 0 
" id="me3b133d864" style="stroke:#000000;stroke-width:0.8;"/>
      </defs>
      <g>
       <use style="stroke:#000000;stroke-width:0.8;" x="59.690625" xlink:href="#me3b133d864" y="250.22688"/>
      </g>
     </g>
     <g id="text_8">
      <!-- 14000 -->
      <g transform="translate(20.878125 254.026099)scale(0.1 -0.1)">
       <defs>
        <path d="M 2034 4250 
Q 1547 4250 1301 3770 
Q 1056 3291 1056 2328 
Q 1056 1369 1301 889 
Q 1547 409 2034 409 
Q 2525 409 2770 889 
Q 3016 1369 3016 2328 
Q 3016 3291 2770 3770 
Q 2525 4250 2034 4250 
z
M 2034 4750 
Q 2819 4750 3233 4129 
Q 3647 3509 3647 2328 
Q 3647 1150 3233 529 
Q 2819 -91 2034 -91 
Q 1250 -91 836 529 
Q 422 1150 422 2328 
Q 422 3509 836 4129 
Q 1250 4750 2034 4750 
z
" id="DejaVuSans-30" transform="scale(0.015625)"/>
       </defs>
       <use xlink:href="#DejaVuSans-31"/>
       <use x="63.623047" xlink:href="#DejaVuSans-34"/>
       <use x="127.246094" xlink:href="#DejaVuSans-30"/>
       <use x="190.869141" xlink:href="#DejaVuSans-30"/>
       <use x="254.492188" xlink:href="#DejaVuSans-30"/>
      </g>
     </g>
    </g>
    <g id="ytick_2">
     <g id="line2d_25">
      <g>
       <use style="stroke:#000000;stroke-width:0.8;" x="59.690625" xlink:href="#me3b133d864" y="196.728428"/>
      </g>
     </g>
     <g id="text_9">
      <!-- 16000 -->
      <g transform="translate(20.878125 200.527647)scale(0.1 -0.1)">
       <use xlink:href="#DejaVuSans-31"/>
       <use x="63.623047" xlink:href="#DejaVuSans-36"/>
       <use x="127.246094" xlink:href="#DejaVuSans-30"/>
       <use x="190.869141" xlink:href="#DejaVuSans-30"/>
       <use x="254.492188" xlink:href="#DejaVuSans-30"/>
      </g>
     </g>
    </g>
    <g id="ytick_3">
     <g id="line2d_26">
      <g>
       <use style="stroke:#000000;stroke-width:0.8;" x="59.690625" xlink:href="#me3b133d864" y="143.229976"/>
      </g>
     </g>
     <g id="text_10">
      <!-- 18000 -->
      <g transform="translate(20.878125 147.029195)scale(0.1 -0.1)">
       <use xlink:href="#DejaVuSans-31"/>
       <use x="63.623047" xlink:href="#DejaVuSans-38"/>
       <use x="127.246094" xlink:href="#DejaVuSans-30"/>
       <use x="190.869141" xlink:href="#DejaVuSans-30"/>
       <use x="254.492188" xlink:href="#DejaVuSans-30"/>
      </g>
     </g>
    </g>
    <g id="ytick_4">
     <g id="line2d_27">
      <g>
       <use style="stroke:#000000;stroke-width:0.8;" x="59.690625" xlink:href="#me3b133d864" y="89.731524"/>
      </g>
     </g>
     <g id="text_11">
      <!-- 20000 -->
      <g transform="translate(20.878125 93.530743)scale(0.1 -0.1)">
       <use xlink:href="#DejaVuSans-32"/>
       <use x="63.623047" xlink:href="#DejaVuSans-30"/>
       <use x="127.246094" xlink:href="#DejaVuSans-30"/>
       <use x="190.869141" xlink:href="#DejaVuSans-30"/>
       <use x="254.492188" xlink:href="#DejaVuSans-30"/>
      </g>
     </g>
    </g>
    <g id="ytick_5">
     <g id="line2d_28">
      <g>
       <use style="stroke:#000000;stroke-width:0.8;" x="59.690625" xlink:href="#me3b133d864" y="36.233072"/>
      </g>
     </g>
     <g id="text_12">
      <!-- 22000 -->
      <g transform="translate(20.878125 40.032291)scale(0.1 -0.1)">
       <use xlink:href="#DejaVuSans-32"/>
       <use x="63.623047" xlink:href="#DejaVuSans-32"/>
       <use x="127.246094" xlink:href="#DejaVuSans-30"/>
       <use x="190.869141" xlink:href="#DejaVuSans-30"/>
       <use x="254.492188" xlink:href="#DejaVuSans-30"/>
      </g>
     </g>
    </g>
    <g id="text_13">
     <!-- Code region coverage -->
     <g transform="translate(14.798438 210.379594)rotate(-90)scale(0.1 -0.1)">
      <defs>
       <path d="M 4122 4306 
L 4122 3641 
Q 3803 3938 3442 4084 
Q 3081 4231 2675 4231 
Q 1875 4231 1450 3742 
Q 1025 3253 1025 2328 
Q 1025 1406 1450 917 
Q 1875 428 2675 428 
Q 3081 428 3442 575 
Q 3803 722 4122 1019 
L 4122 359 
Q 3791 134 3420 21 
Q 3050 -91 2638 -91 
Q 1578 -91 968 557 
Q 359 1206 359 2328 
Q 359 3453 968 4101 
Q 1578 4750 2638 4750 
Q 3056 4750 3426 4639 
Q 3797 4528 4122 4306 
z
" id="DejaVuSans-43" transform="scale(0.015625)"/>
       <path d="M 2906 2969 
L 2906 4863 
L 3481 4863 
L 3481 0 
L 2906 0 
L 2906 525 
Q 2725 213 2448 61 
Q 2172 -91 1784 -91 
Q 1150 -91 751 415 
Q 353 922 353 1747 
Q 353 2572 751 3078 
Q 1150 3584 1784 3584 
Q 2172 3584 2448 3432 
Q 2725 3281 2906 2969 
z
M 947 1747 
Q 947 1113 1208 752 
Q 1469 391 1925 391 
Q 2381 391 2643 752 
Q 2906 1113 2906 1747 
Q 2906 2381 2643 2742 
Q 2381 3103 1925 3103 
Q 1469 3103 1208 2742 
Q 947 2381 947 1747 
z
" id="DejaVuSans-64" transform="scale(0.015625)"/>
       <path d="M 2906 1791 
Q 2906 2416 2648 2759 
Q 2391 3103 1925 3103 
Q 1463 3103 1205 2759 
Q 947 2416 947 1791 
Q 947 1169 1205 825 
Q 1463 481 1925 481 
Q 2391 481 2648 825 
Q 2906 1169 2906 1791 
z
M 3481 434 
Q 3481 -459 3084 -895 
Q 2688 -1331 1869 -1331 
Q 1566 -1331 1297 -1286 
Q 1028 -1241 775 -1147 
L 775 -588 
Q 1028 -725 1275 -790 
Q 1522 -856 1778 -856 
Q 2344 -856 2625 -561 
Q 2906 -266 2906 331 
L 2906 616 
Q 2728 306 2450 153 
Q 2172 0 1784 0 
Q 1141 0 747 490 
Q 353 981 353 1791 
Q 353 2603 747 3093 
Q 1141 3584 1784 3584 
Q 2172 3584 2450 3431 
Q 2728 3278 2906 2969 
L 2906 3500 
L 3481 3500 
L 3481 434 
z
" id="DejaVuSans-67" transform="scale(0.015625)"/>
       <path d="M 3122 3366 
L 3122 2828 
Q 2878 2963 2633 3030 
Q 2388 3097 2138 3097 
Q 1578 3097 1268 2742 
Q 959 2388 959 1747 
Q 959 1106 1268 751 
Q 1578 397 2138 397 
Q 2388 397 2633 464 
Q 2878 531 3122 666 
L 3122 134 
Q 2881 22 2623 -34 
Q 2366 -91 2075 -91 
Q 1284 -91 818 406 
Q 353 903 353 1747 
Q 353 2603 823 3093 
Q 1294 3584 2113 3584 
Q 2378 3584 2631 3529 
Q 2884 3475 3122 3366 
z
" id="DejaVuSans-63" transform="scale(0.015625)"/>
       <path d="M 191 3500 
L 800 3500 
L 1894 563 
L 2988 3500 
L 3597 3500 
L 2284 0 
L 1503 0 
L 191 3500 
z
" id="DejaVuSans-76" transform="scale(0.015625)"/>
       <path d="M 2194 1759 
Q 1497 1759 1228 1600 
Q 959 1441 959 1056 
Q 959 750 1161 570 
Q 1363 391 1709 391 
Q 2188 391 2477 730 
Q 2766 1069 2766 1631 
L 2766 1759 
L 2194 1759 
z
M 3341 1997 
L 3341 0 
L 2766 0 
L 2766 531 
Q 2569 213 2275 61 
Q 1981 -91 1556 -91 
Q 1019 -91 701 211 
Q 384 513 384 1019 
Q 384 1609 779 1909 
Q 1175 2209 1959 2209 
L 2766 2209 
L 2766 2266 
Q 2766 2663 2505 2880 
Q 2244 3097 1772 3097 
Q 1472 3097 1187 3025 
Q 903 2953 641 2809 
L 641 3341 
Q 956 3463 1253 3523 
Q 1550 3584 1831 3584 
Q 2591 3584 2966 3190 
Q 3341 2797 3341 1997 
z
" id="DejaVuSans-61" transform="scale(0.015625)"/>
      </defs>
      <use xlink:href="#DejaVuSans-43"/>
      <use x="69.824219" xlink:href="#DejaVuSans-6f"/>
      <use x="131.005859" xlink:href="#DejaVuSans-64"/>
      <use x="194.482422" xlink:href="#DejaVuSans-65"/>
      <use x="256.005859" xlink:href="#DejaVuSans-20"/>
      <use x="287.792969" xlink:href="#DejaVuSans-72"/>
      <use x="326.65625" xlink:href="#DejaVuSans-65"/>
      <use x="388.179688" xlink:href="#DejaVuSans-67"/>
      <use x="451.65625" xlink:href="#DejaVuSans-69"/>
      <use x="479.439453" xlink:href="#DejaVuSans-6f"/>
      <use x="540.621094" xlink:href="#DejaVuSans-6e"/>
      <use x="604" xlink:href="#DejaVuSans-20"/>
      <use x="635.787109" xlink:href="#DejaVuSans-63"/>
      <use x="690.767578" xlink:href="#DejaVuSans-6f"/>
      <use x="751.949219" xlink:href="#DejaVuSans-76"/>
      <use x="811.128906" xlink:href="#DejaVuSans-65"/>
      <use x="872.652344" xlink:href="#DejaVuSans-72"/>
      <use x="913.765625" xlink:href="#DejaVuSans-61"/>
      <use x="975.044922" xlink:href="#DejaVuSans-67"/>
      <use x="1038.521484" xlink:href="#DejaVuSans-65"/>
     </g>
    </g>
   </g>
   <g id="line2d_29">
    <path clip-path="url(#p6da9cd65fa)" d="M 75.923352 244.02106 
L 125.689806 205.689419 
L 154.801316 173.68397 
L 175.45626 146.934744 
L 191.47748 128.223661 
L 204.567769 125.174249 
L 215.635452 119.904651 
L 225.222714 114.501308 
L 233.679279 113.779079 
L 241.243934 113.444713 
L 248.086996 102.276911 
L 254.334223 100.457964 
L 260.081115 99.254249 
L 265.401906 94.974373 
L 270.355443 93.382794 
L 274.989168 92.112205 
L 279.341883 92.272701 
L 283.445733 91.924961 
L 287.327641 89.477407 
L 291.010388 89.169791 
L 294.513415 89.169791 
L 297.85345 87.604961 
L 301.04499 85.879636 
L 304.100677 84.475301 
L 307.031607 85.424899 
L 309.847569 83.766447 
L 312.557242 83.766447 
L 315.168359 83.672825 
L 317.68784 83.579202 
L 320.121897 82.134744 
L 322.476135 81.024651 
L 324.755622 79.794187 
L 326.96496 78.81784 
L 329.108337 78.81784 
L 331.189579 79.259202 
L 333.212187 78.496849 
L 335.179373 76.985518 
L 337.094095 76.477283 
L 338.959078 76.303413 
L 340.776842 77.828119 
L 342.549717 75.648057 
L 344.279869 77.293134 
L 345.969307 74.350719 
L 347.619904 73.601741 
L 349.233406 73.040007 
L 350.811444 71.91654 
L 352.355542 72.692267 
L 353.867131 72.26428 
L 355.347551 72.157283 
L 356.798061 72.184032 
L 358.219847 71.501927 
L 359.614023 70.766323 
L 360.981642 70.712825 
L 362.323696 70.712825 
L 363.641124 71.100688 
L 364.934813 70.686075 
L 366.205604 70.632577 
L 367.454294 69.856849 
L 368.681636 69.963846 
L 369.888351 69.963846 
L 371.075119 68.506014 
L 372.242589 68.506014 
L 373.391378 71.207685 
L 374.522076 69.428862 
L 375.635243 69.428862 
L 376.731414 66.03171 
L 377.8111 66.285828 
L 378.874791 67.864032 
L 379.922953 66.513196 
L 380.956033 66.513196 
L 381.974459 66.152082 
L 382.978641 66.085209 
L 383.968971 67.757035 
L 384.945827 66.459698 
L 385.909571 66.004961 
L 386.860549 66.459698 
L 387.799096 68.011153 
L 388.725532 67.168552 
L 389.640166 66.058459 
L 390.543295 66.419574 
L 391.435205 65.657221 
L 392.316171 65.657221 
L 393.186458 66.352701 
L 394.046323 65.603723 
L 394.896011 65.603723 
L 395.735761 65.496726 
L 396.565803 65.33623 
L 397.386358 65.33623 
L 398.197642 65.068738 
L 398.99986 65.33623 
L 399.793214 65.041989 
L 400.577898 65.041989 
" style="fill:none;stroke:#98df8a;stroke-linecap:square;stroke-width:1.5;"/>
    <defs>
     <path d="M -0 3 
L 3 -3 
L -3 -3 
z
" id="m36b3fdf33f" style="stroke:#ffffff;stroke-linejoin:miter;stroke-width:0.75;"/>
    </defs>
    <g clip-path="url(#p6da9cd65fa)">
     <use style="fill:#98df8a;stroke:#ffffff;stroke-linejoin:miter;stroke-width:0.75;" x="75.923352" xlink:href="#m36b3fdf33f" y="244.02106"/>
     <use style="fill:#98df8a;stroke:#ffffff;stroke-linejoin:miter;stroke-width:0.75;" x="125.689806" xlink:href="#m36b3fdf33f" y="205.689419"/>
     <use style="fill:#98df8a;stroke:#ffffff;stroke-linejoin:miter;stroke-width:0.75;" x="154.801316" xlink:href="#m36b3fdf33f" y="173.68397"/>
     <use style="fill:#98df8a;stroke:#ffffff;stroke-linejoin:miter;stroke-width:0.75;" x="175.45626" xlink:href="#m36b3fdf33f" y="146.934744"/>
     <use style="fill:#98df8a;stroke:#ffffff;stroke-linejoin:miter;stroke-width:0.75;" x="191.47748" xlink:href="#m36b3fdf33f" y="128.223661"/>
     <use style="fill:#98df8a;stroke:#ffffff;stroke-linejoin:miter;stroke-width:0.75;" x="204.567769" xlink:href="#m36b3fdf33f" y="125.174249"/>
     <use style="fill:#98df8a;stroke:#ffffff;stroke-linejoin:miter;stroke-width:0.75;" x="215.635452" xlink:href="#m36b3fdf33f" y="119.904651"/>
     <use style="fill:#98df8a;stroke:#ffffff;stroke-linejoin:miter;stroke-width:0.75;" x="225.222714" xlink:href="#m36b3fdf33f" y="114.501308"/>
     <use style="fill:#98df8a;stroke:#ffffff;stroke-linejoin:miter;stroke-width:0.75;" x="233.679279" xlink:href="#m36b3fdf33f" y="113.779079"/>
     <use style="fill:#98df8a;stroke:#ffffff;stroke-linejoin:miter;stroke-width:0.75;" x="241.243934" xlink:href="#m36b3fdf33f" y="113.444713"/>
     <use style="fill:#98df8a;stroke:#ffffff;stroke-linejoin:miter;stroke-width:0.75;" x="248.086996" xlink:href="#m36b3fdf33f" y="102.276911"/>
     <use style="fill:#98df8a;stroke:#ffffff;stroke-linejoin:miter;stroke-width:0.75;" x="254.334223" xlink:href="#m36b3fdf33f" y="100.457964"/>
     <use style="fill:#98df8a;stroke:#ffffff;stroke-linejoin:miter;stroke-width:0.75;" x="260.081115" xlink:href="#m36b3fdf33f" y="99.254249"/>
     <use style="fill:#98df8a;stroke:#ffffff;stroke-linejoin:miter;stroke-width:0.75;" x="265.401906" xlink:href="#m36b3fdf33f" y="94.974373"/>
     <use style="fill:#98df8a;stroke:#ffffff;stroke-linejoin:miter;stroke-width:0.75;" x="270.355443" xlink:href="#m36b3fdf33f" y="93.382794"/>
     <use style="fill:#98df8a;stroke:#ffffff;stroke-linejoin:miter;stroke-width:0.75;" x="274.989168" xlink:href="#m36b3fdf33f" y="92.112205"/>
     <use style="fill:#98df8a;stroke:#ffffff;stroke-linejoin:miter;stroke-width:0.75;" x="279.341883" xlink:href="#m36b3fdf33f" y="92.272701"/>
     <use style="fill:#98df8a;stroke:#ffffff;stroke-linejoin:miter;stroke-width:0.75;" x="283.445733" xlink:href="#m36b3fdf33f" y="91.924961"/>
     <use style="fill:#98df8a;stroke:#ffffff;stroke-linejoin:miter;stroke-width:0.75;" x="287.327641" xlink:href="#m36b3fdf33f" y="89.477407"/>
     <use style="fill:#98df8a;stroke:#ffffff;stroke-linejoin:miter;stroke-width:0.75;" x="291.010388" xlink:href="#m36b3fdf33f" y="89.169791"/>
     <use style="fill:#98df8a;stroke:#ffffff;stroke-linejoin:miter;stroke-width:0.75;" x="294.513415" xlink:href="#m36b3fdf33f" y="89.169791"/>
     <use style="fill:#98df8a;stroke:#ffffff;stroke-linejoin:miter;stroke-width:0.75;" x="297.85345" xlink:href="#m36b3fdf33f" y="87.604961"/>
     <use style="fill:#98df8a;stroke:#ffffff;stroke-linejoin:miter;stroke-width:0.75;" x="301.04499" xlink:href="#m36b3fdf33f" y="85.879636"/>
     <use style="fill:#98df8a;stroke:#ffffff;stroke-linejoin:miter;stroke-width:0.75;" x="304.100677" xlink:href="#m36b3fdf33f" y="84.475301"/>
     <use style="fill:#98df8a;stroke:#ffffff;stroke-linejoin:miter;stroke-width:0.75;" x="307.031607" xlink:href="#m36b3fdf33f" y="85.424899"/>
     <use style="fill:#98df8a;stroke:#ffffff;stroke-linejoin:miter;stroke-width:0.75;" x="309.847569" xlink:href="#m36b3fdf33f" y="83.766447"/>
     <use style="fill:#98df8a;stroke:#ffffff;stroke-linejoin:miter;stroke-width:0.75;" x="312.557242" xlink:href="#m36b3fdf33f" y="83.766447"/>
     <use style="fill:#98df8a;stroke:#ffffff;stroke-linejoin:miter;stroke-width:0.75;" x="315.168359" xlink:href="#m36b3fdf33f" y="83.672825"/>
     <use style="fill:#98df8a;stroke:#ffffff;stroke-linejoin:miter;stroke-width:0.75;" x="317.68784" xlink:href="#m36b3fdf33f" y="83.579202"/>
     <use style="fill:#98df8a;stroke:#ffffff;stroke-linejoin:miter;stroke-width:0.75;" x="320.121897" xlink:href="#m36b3fdf33f" y="82.134744"/>
     <use style="fill:#98df8a;stroke:#ffffff;stroke-linejoin:miter;stroke-width:0.75;" x="322.476135" xlink:href="#m36b3fdf33f" y="81.024651"/>
     <use style="fill:#98df8a;stroke:#ffffff;stroke-linejoin:miter;stroke-width:0.75;" x="324.755622" xlink:href="#m36b3fdf33f" y="79.794187"/>
     <use style="fill:#98df8a;stroke:#ffffff;stroke-linejoin:miter;stroke-width:0.75;" x="326.96496" xlink:href="#m36b3fdf33f" y="78.81784"/>
     <use style="fill:#98df8a;stroke:#ffffff;stroke-linejoin:miter;stroke-width:0.75;" x="329.108337" xlink:href="#m36b3fdf33f" y="78.81784"/>
     <use style="fill:#98df8a;stroke:#ffffff;stroke-linejoin:miter;stroke-width:0.75;" x="331.189579" xlink:href="#m36b3fdf33f" y="79.259202"/>
     <use style="fill:#98df8a;stroke:#ffffff;stroke-linejoin:miter;stroke-width:0.75;" x="333.212187" xlink:href="#m36b3fdf33f" y="78.496849"/>
     <use style="fill:#98df8a;stroke:#ffffff;stroke-linejoin:miter;stroke-width:0.75;" x="335.179373" xlink:href="#m36b3fdf33f" y="76.985518"/>
     <use style="fill:#98df8a;stroke:#ffffff;stroke-linejoin:miter;stroke-width:0.75;" x="337.094095" xlink:href="#m36b3fdf33f" y="76.477283"/>
     <use style="fill:#98df8a;stroke:#ffffff;stroke-linejoin:miter;stroke-width:0.75;" x="338.959078" xlink:href="#m36b3fdf33f" y="76.303413"/>
     <use style="fill:#98df8a;stroke:#ffffff;stroke-linejoin:miter;stroke-width:0.75;" x="340.776842" xlink:href="#m36b3fdf33f" y="77.828119"/>
     <use style="fill:#98df8a;stroke:#ffffff;stroke-linejoin:miter;stroke-width:0.75;" x="342.549717" xlink:href="#m36b3fdf33f" y="75.648057"/>
     <use style="fill:#98df8a;stroke:#ffffff;stroke-linejoin:miter;stroke-width:0.75;" x="344.279869" xlink:href="#m36b3fdf33f" y="77.293134"/>
     <use style="fill:#98df8a;stroke:#ffffff;stroke-linejoin:miter;stroke-width:0.75;" x="345.969307" xlink:href="#m36b3fdf33f" y="74.350719"/>
     <use style="fill:#98df8a;stroke:#ffffff;stroke-linejoin:miter;stroke-width:0.75;" x="347.619904" xlink:href="#m36b3fdf33f" y="73.601741"/>
     <use style="fill:#98df8a;stroke:#ffffff;stroke-linejoin:miter;stroke-width:0.75;" x="349.233406" xlink:href="#m36b3fdf33f" y="73.040007"/>
     <use style="fill:#98df8a;stroke:#ffffff;stroke-linejoin:miter;stroke-width:0.75;" x="350.811444" xlink:href="#m36b3fdf33f" y="71.91654"/>
     <use style="fill:#98df8a;stroke:#ffffff;stroke-linejoin:miter;stroke-width:0.75;" x="352.355542" xlink:href="#m36b3fdf33f" y="72.692267"/>
     <use style="fill:#98df8a;stroke:#ffffff;stroke-linejoin:miter;stroke-width:0.75;" x="353.867131" xlink:href="#m36b3fdf33f" y="72.26428"/>
     <use style="fill:#98df8a;stroke:#ffffff;stroke-linejoin:miter;stroke-width:0.75;" x="355.347551" xlink:href="#m36b3fdf33f" y="72.157283"/>
     <use style="fill:#98df8a;stroke:#ffffff;stroke-linejoin:miter;stroke-width:0.75;" x="356.798061" xlink:href="#m36b3fdf33f" y="72.184032"/>
     <use style="fill:#98df8a;stroke:#ffffff;stroke-linejoin:miter;stroke-width:0.75;" x="358.219847" xlink:href="#m36b3fdf33f" y="71.501927"/>
     <use style="fill:#98df8a;stroke:#ffffff;stroke-linejoin:miter;stroke-width:0.75;" x="359.614023" xlink:href="#m36b3fdf33f" y="70.766323"/>
     <use style="fill:#98df8a;stroke:#ffffff;stroke-linejoin:miter;stroke-width:0.75;" x="360.981642" xlink:href="#m36b3fdf33f" y="70.712825"/>
     <use style="fill:#98df8a;stroke:#ffffff;stroke-linejoin:miter;stroke-width:0.75;" x="362.323696" xlink:href="#m36b3fdf33f" y="70.712825"/>
     <use style="fill:#98df8a;stroke:#ffffff;stroke-linejoin:miter;stroke-width:0.75;" x="363.641124" xlink:href="#m36b3fdf33f" y="71.100688"/>
     <use style="fill:#98df8a;stroke:#ffffff;stroke-linejoin:miter;stroke-width:0.75;" x="364.934813" xlink:href="#m36b3fdf33f" y="70.686075"/>
     <use style="fill:#98df8a;stroke:#ffffff;stroke-linejoin:miter;stroke-width:0.75;" x="366.205604" xlink:href="#m36b3fdf33f" y="70.632577"/>
     <use style="fill:#98df8a;stroke:#ffffff;stroke-linejoin:miter;stroke-width:0.75;" x="367.454294" xlink:href="#m36b3fdf33f" y="69.856849"/>
     <use style="fill:#98df8a;stroke:#ffffff;stroke-linejoin:miter;stroke-width:0.75;" x="368.681636" xlink:href="#m36b3fdf33f" y="69.963846"/>
     <use style="fill:#98df8a;stroke:#ffffff;stroke-linejoin:miter;stroke-width:0.75;" x="369.888351" xlink:href="#m36b3fdf33f" y="69.963846"/>
     <use style="fill:#98df8a;stroke:#ffffff;stroke-linejoin:miter;stroke-width:0.75;" x="371.075119" xlink:href="#m36b3fdf33f" y="68.506014"/>
     <use style="fill:#98df8a;stroke:#ffffff;stroke-linejoin:miter;stroke-width:0.75;" x="372.242589" xlink:href="#m36b3fdf33f" y="68.506014"/>
     <use style="fill:#98df8a;stroke:#ffffff;stroke-linejoin:miter;stroke-width:0.75;" x="373.391378" xlink:href="#m36b3fdf33f" y="71.207685"/>
     <use style="fill:#98df8a;stroke:#ffffff;stroke-linejoin:miter;stroke-width:0.75;" x="374.522076" xlink:href="#m36b3fdf33f" y="69.428862"/>
     <use style="fill:#98df8a;stroke:#ffffff;stroke-linejoin:miter;stroke-width:0.75;" x="375.635243" xlink:href="#m36b3fdf33f" y="69.428862"/>
     <use style="fill:#98df8a;stroke:#ffffff;stroke-linejoin:miter;stroke-width:0.75;" x="376.731414" xlink:href="#m36b3fdf33f" y="66.03171"/>
     <use style="fill:#98df8a;stroke:#ffffff;stroke-linejoin:miter;stroke-width:0.75;" x="377.8111" xlink:href="#m36b3fdf33f" y="66.285828"/>
     <use style="fill:#98df8a;stroke:#ffffff;stroke-linejoin:miter;stroke-width:0.75;" x="378.874791" xlink:href="#m36b3fdf33f" y="67.864032"/>
     <use style="fill:#98df8a;stroke:#ffffff;stroke-linejoin:miter;stroke-width:0.75;" x="379.922953" xlink:href="#m36b3fdf33f" y="66.513196"/>
     <use style="fill:#98df8a;stroke:#ffffff;stroke-linejoin:miter;stroke-width:0.75;" x="380.956033" xlink:href="#m36b3fdf33f" y="66.513196"/>
     <use style="fill:#98df8a;stroke:#ffffff;stroke-linejoin:miter;stroke-width:0.75;" x="381.974459" xlink:href="#m36b3fdf33f" y="66.152082"/>
     <use style="fill:#98df8a;stroke:#ffffff;stroke-linejoin:miter;stroke-width:0.75;" x="382.978641" xlink:href="#m36b3fdf33f" y="66.085209"/>
     <use style="fill:#98df8a;stroke:#ffffff;stroke-linejoin:miter;stroke-width:0.75;" x="383.968971" xlink:href="#m36b3fdf33f" y="67.757035"/>
     <use style="fill:#98df8a;stroke:#ffffff;stroke-linejoin:miter;stroke-width:0.75;" x="384.945827" xlink:href="#m36b3fdf33f" y="66.459698"/>
     <use style="fill:#98df8a;stroke:#ffffff;stroke-linejoin:miter;stroke-width:0.75;" x="385.909571" xlink:href="#m36b3fdf33f" y="66.004961"/>
     <use style="fill:#98df8a;stroke:#ffffff;stroke-linejoin:miter;stroke-width:0.75;" x="386.860549" xlink:href="#m36b3fdf33f" y="66.459698"/>
     <use style="fill:#98df8a;stroke:#ffffff;stroke-linejoin:miter;stroke-width:0.75;" x="387.799096" xlink:href="#m36b3fdf33f" y="68.011153"/>
     <use style="fill:#98df8a;stroke:#ffffff;stroke-linejoin:miter;stroke-width:0.75;" x="388.725532" xlink:href="#m36b3fdf33f" y="67.168552"/>
     <use style="fill:#98df8a;stroke:#ffffff;stroke-linejoin:miter;stroke-width:0.75;" x="389.640166" xlink:href="#m36b3fdf33f" y="66.058459"/>
     <use style="fill:#98df8a;stroke:#ffffff;stroke-linejoin:miter;stroke-width:0.75;" x="390.543295" xlink:href="#m36b3fdf33f" y="66.419574"/>
     <use style="fill:#98df8a;stroke:#ffffff;stroke-linejoin:miter;stroke-width:0.75;" x="391.435205" xlink:href="#m36b3fdf33f" y="65.657221"/>
     <use style="fill:#98df8a;stroke:#ffffff;stroke-linejoin:miter;stroke-width:0.75;" x="392.316171" xlink:href="#m36b3fdf33f" y="65.657221"/>
     <use style="fill:#98df8a;stroke:#ffffff;stroke-linejoin:miter;stroke-width:0.75;" x="393.186458" xlink:href="#m36b3fdf33f" y="66.352701"/>
     <use style="fill:#98df8a;stroke:#ffffff;stroke-linejoin:miter;stroke-width:0.75;" x="394.046323" xlink:href="#m36b3fdf33f" y="65.603723"/>
     <use style="fill:#98df8a;stroke:#ffffff;stroke-linejoin:miter;stroke-width:0.75;" x="394.896011" xlink:href="#m36b3fdf33f" y="65.603723"/>
     <use style="fill:#98df8a;stroke:#ffffff;stroke-linejoin:miter;stroke-width:0.75;" x="395.735761" xlink:href="#m36b3fdf33f" y="65.496726"/>
     <use style="fill:#98df8a;stroke:#ffffff;stroke-linejoin:miter;stroke-width:0.75;" x="396.565803" xlink:href="#m36b3fdf33f" y="65.33623"/>
     <use style="fill:#98df8a;stroke:#ffffff;stroke-linejoin:miter;stroke-width:0.75;" x="397.386358" xlink:href="#m36b3fdf33f" y="65.33623"/>
     <use style="fill:#98df8a;stroke:#ffffff;stroke-linejoin:miter;stroke-width:0.75;" x="398.197642" xlink:href="#m36b3fdf33f" y="65.068738"/>
     <use style="fill:#98df8a;stroke:#ffffff;stroke-linejoin:miter;stroke-width:0.75;" x="398.99986" xlink:href="#m36b3fdf33f" y="65.33623"/>
     <use style="fill:#98df8a;stroke:#ffffff;stroke-linejoin:miter;stroke-width:0.75;" x="399.793214" xlink:href="#m36b3fdf33f" y="65.041989"/>
     <use style="fill:#98df8a;stroke:#ffffff;stroke-linejoin:miter;stroke-width:0.75;" x="400.577898" xlink:href="#m36b3fdf33f" y="65.041989"/>
    </g>
   </g>
   <g id="line2d_30">
    <path clip-path="url(#p6da9cd65fa)" d="M 75.923352 245.987128 
L 125.689806 207.922979 
L 154.801316 186.523599 
L 175.45626 175.061555 
L 191.47748 152.819574 
L 204.567769 140.702175 
L 215.635452 135.820441 
L 225.222714 126.297716 
L 233.679279 123.529171 
L 241.243934 120.45301 
L 248.086996 124.45202 
L 254.334223 116.13301 
L 260.081115 110.114435 
L 265.401906 106.088676 
L 270.355443 108.081493 
L 274.989168 103.761493 
L 279.341883 102.918893 
L 283.445733 97.729543 
L 287.327641 95.215116 
L 291.010388 95.134868 
L 294.513415 93.570038 
L 297.85345 93.984651 
L 301.04499 92.513444 
L 304.100677 90.988738 
L 307.031607 90.681122 
L 309.847569 90.41363 
L 312.557242 89.704775 
L 315.168359 89.223289 
L 317.68784 87.217097 
L 320.121897 88.15332 
L 322.476135 87.738707 
L 324.755622 87.925952 
L 326.96496 87.992825 
L 329.108337 86.869357 
L 331.189579 87.203723 
L 333.212187 86.628614 
L 335.179373 86.521617 
L 337.094095 86.147128 
L 338.959078 86.013382 
L 340.776842 85.679017 
L 342.549717 85.558645 
L 344.279869 85.478397 
L 345.969307 85.144032 
L 347.619904 84.930038 
L 349.233406 84.488676 
L 350.811444 83.325085 
L 352.355542 83.338459 
L 353.867131 83.458831 
L 355.347551 83.124466 
L 356.798061 83.164589 
L 358.219847 82.535983 
L 359.614023 82.763351 
L 360.981642 82.107995 
L 362.323696 82.589481 
L 363.641124 82.656354 
L 364.934813 82.388862 
L 366.205604 81.680007 
L 367.454294 81.680007 
L 368.681636 81.626509 
L 369.888351 81.626509 
L 371.075119 82.29524 
L 372.242589 81.626509 
L 373.391378 82.228366 
L 374.522076 82.937221 
L 375.635243 83.164589 
L 376.731414 82.937221 
L 377.8111 82.937221 
L 378.874791 82.228366 
L 379.922953 81.492763 
L 380.956033 81.011277 
L 381.974459 80.931029 
L 382.978641 80.890905 
L 383.968971 80.90428 
L 384.945827 79.874435 
L 385.909571 79.713939 
L 386.860549 79.713939 
L 387.799096 79.68719 
L 388.725532 80.797283 
L 389.640166 77.333258 
L 390.543295 78.496849 
L 391.435205 79.433072 
L 392.316171 79.326075 
L 393.186458 79.299326 
L 394.046323 80.075054 
L 394.896011 78.389853 
L 395.735761 79.178955 
L 396.565803 80.048305 
L 397.386358 79.138831 
L 398.197642 79.138831 
L 398.99986 76.437159 
L 399.793214 79.138831 
L 400.577898 79.138831 
" style="fill:none;stroke:#1f77b4;stroke-linecap:square;stroke-width:1.5;"/>
    <defs>
     <path d="M 0 3 
C 0.795609 3 1.55874 2.683901 2.12132 2.12132 
C 2.683901 1.55874 3 0.795609 3 0 
C 3 -0.795609 2.683901 -1.55874 2.12132 -2.12132 
C 1.55874 -2.683901 0.795609 -3 0 -3 
C -0.795609 -3 -1.55874 -2.683901 -2.12132 -2.12132 
C -2.683901 -1.55874 -3 -0.795609 -3 0 
C -3 0.795609 -2.683901 1.55874 -2.12132 2.12132 
C -1.55874 2.683901 -0.795609 3 0 3 
z
" id="mb696c529a0" style="stroke:#ffffff;stroke-width:0.75;"/>
    </defs>
    <g clip-path="url(#p6da9cd65fa)">
     <use style="fill:#1f77b4;stroke:#ffffff;stroke-width:0.75;" x="75.923352" xlink:href="#mb696c529a0" y="245.987128"/>
     <use style="fill:#1f77b4;stroke:#ffffff;stroke-width:0.75;" x="125.689806" xlink:href="#mb696c529a0" y="207.922979"/>
     <use style="fill:#1f77b4;stroke:#ffffff;stroke-width:0.75;" x="154.801316" xlink:href="#mb696c529a0" y="186.523599"/>
     <use style="fill:#1f77b4;stroke:#ffffff;stroke-width:0.75;" x="175.45626" xlink:href="#mb696c529a0" y="175.061555"/>
     <use style="fill:#1f77b4;stroke:#ffffff;stroke-width:0.75;" x="191.47748" xlink:href="#mb696c529a0" y="152.819574"/>
     <use style="fill:#1f77b4;stroke:#ffffff;stroke-width:0.75;" x="204.567769" xlink:href="#mb696c529a0" y="140.702175"/>
     <use style="fill:#1f77b4;stroke:#ffffff;stroke-width:0.75;" x="215.635452" xlink:href="#mb696c529a0" y="135.820441"/>
     <use style="fill:#1f77b4;stroke:#ffffff;stroke-width:0.75;" x="225.222714" xlink:href="#mb696c529a0" y="126.297716"/>
     <use style="fill:#1f77b4;stroke:#ffffff;stroke-width:0.75;" x="233.679279" xlink:href="#mb696c529a0" y="123.529171"/>
     <use style="fill:#1f77b4;stroke:#ffffff;stroke-width:0.75;" x="241.243934" xlink:href="#mb696c529a0" y="120.45301"/>
     <use style="fill:#1f77b4;stroke:#ffffff;stroke-width:0.75;" x="248.086996" xlink:href="#mb696c529a0" y="124.45202"/>
     <use style="fill:#1f77b4;stroke:#ffffff;stroke-width:0.75;" x="254.334223" xlink:href="#mb696c529a0" y="116.13301"/>
     <use style="fill:#1f77b4;stroke:#ffffff;stroke-width:0.75;" x="260.081115" xlink:href="#mb696c529a0" y="110.114435"/>
     <use style="fill:#1f77b4;stroke:#ffffff;stroke-width:0.75;" x="265.401906" xlink:href="#mb696c529a0" y="106.088676"/>
     <use style="fill:#1f77b4;stroke:#ffffff;stroke-width:0.75;" x="270.355443" xlink:href="#mb696c529a0" y="108.081493"/>
     <use style="fill:#1f77b4;stroke:#ffffff;stroke-width:0.75;" x="274.989168" xlink:href="#mb696c529a0" y="103.761493"/>
     <use style="fill:#1f77b4;stroke:#ffffff;stroke-width:0.75;" x="279.341883" xlink:href="#mb696c529a0" y="102.918893"/>
     <use style="fill:#1f77b4;stroke:#ffffff;stroke-width:0.75;" x="283.445733" xlink:href="#mb696c529a0" y="97.729543"/>
     <use style="fill:#1f77b4;stroke:#ffffff;stroke-width:0.75;" x="287.327641" xlink:href="#mb696c529a0" y="95.215116"/>
     <use style="fill:#1f77b4;stroke:#ffffff;stroke-width:0.75;" x="291.010388" xlink:href="#mb696c529a0" y="95.134868"/>
     <use style="fill:#1f77b4;stroke:#ffffff;stroke-width:0.75;" x="294.513415" xlink:href="#mb696c529a0" y="93.570038"/>
     <use style="fill:#1f77b4;stroke:#ffffff;stroke-width:0.75;" x="297.85345" xlink:href="#mb696c529a0" y="93.984651"/>
     <use style="fill:#1f77b4;stroke:#ffffff;stroke-width:0.75;" x="301.04499" xlink:href="#mb696c529a0" y="92.513444"/>
     <use style="fill:#1f77b4;stroke:#ffffff;stroke-width:0.75;" x="304.100677" xlink:href="#mb696c529a0" y="90.988738"/>
     <use style="fill:#1f77b4;stroke:#ffffff;stroke-width:0.75;" x="307.031607" xlink:href="#mb696c529a0" y="90.681122"/>
     <use style="fill:#1f77b4;stroke:#ffffff;stroke-width:0.75;" x="309.847569" xlink:href="#mb696c529a0" y="90.41363"/>
     <use style="fill:#1f77b4;stroke:#ffffff;stroke-width:0.75;" x="312.557242" xlink:href="#mb696c529a0" y="89.704775"/>
     <use style="fill:#1f77b4;stroke:#ffffff;stroke-width:0.75;" x="315.168359" xlink:href="#mb696c529a0" y="89.223289"/>
     <use style="fill:#1f77b4;stroke:#ffffff;stroke-width:0.75;" x="317.68784" xlink:href="#mb696c529a0" y="87.217097"/>
     <use style="fill:#1f77b4;stroke:#ffffff;stroke-width:0.75;" x="320.121897" xlink:href="#mb696c529a0" y="88.15332"/>
     <use style="fill:#1f77b4;stroke:#ffffff;stroke-width:0.75;" x="322.476135" xlink:href="#mb696c529a0" y="87.738707"/>
     <use style="fill:#1f77b4;stroke:#ffffff;stroke-width:0.75;" x="324.755622" xlink:href="#mb696c529a0" y="87.925952"/>
     <use style="fill:#1f77b4;stroke:#ffffff;stroke-width:0.75;" x="326.96496" xlink:href="#mb696c529a0" y="87.992825"/>
     <use style="fill:#1f77b4;stroke:#ffffff;stroke-width:0.75;" x="329.108337" xlink:href="#mb696c529a0" y="86.869357"/>
     <use style="fill:#1f77b4;stroke:#ffffff;stroke-width:0.75;" x="331.189579" xlink:href="#mb696c529a0" y="87.203723"/>
     <use style="fill:#1f77b4;stroke:#ffffff;stroke-width:0.75;" x="333.212187" xlink:href="#mb696c529a0" y="86.628614"/>
     <use style="fill:#1f77b4;stroke:#ffffff;stroke-width:0.75;" x="335.179373" xlink:href="#mb696c529a0" y="86.521617"/>
     <use style="fill:#1f77b4;stroke:#ffffff;stroke-width:0.75;" x="337.094095" xlink:href="#mb696c529a0" y="86.147128"/>
     <use style="fill:#1f77b4;stroke:#ffffff;stroke-width:0.75;" x="338.959078" xlink:href="#mb696c529a0" y="86.013382"/>
     <use style="fill:#1f77b4;stroke:#ffffff;stroke-width:0.75;" x="340.776842" xlink:href="#mb696c529a0" y="85.679017"/>
     <use style="fill:#1f77b4;stroke:#ffffff;stroke-width:0.75;" x="342.549717" xlink:href="#mb696c529a0" y="85.558645"/>
     <use style="fill:#1f77b4;stroke:#ffffff;stroke-width:0.75;" x="344.279869" xlink:href="#mb696c529a0" y="85.478397"/>
     <use style="fill:#1f77b4;stroke:#ffffff;stroke-width:0.75;" x="345.969307" xlink:href="#mb696c529a0" y="85.144032"/>
     <use style="fill:#1f77b4;stroke:#ffffff;stroke-width:0.75;" x="347.619904" xlink:href="#mb696c529a0" y="84.930038"/>
     <use style="fill:#1f77b4;stroke:#ffffff;stroke-width:0.75;" x="349.233406" xlink:href="#mb696c529a0" y="84.488676"/>
     <use style="fill:#1f77b4;stroke:#ffffff;stroke-width:0.75;" x="350.811444" xlink:href="#mb696c529a0" y="83.325085"/>
     <use style="fill:#1f77b4;stroke:#ffffff;stroke-width:0.75;" x="352.355542" xlink:href="#mb696c529a0" y="83.338459"/>
     <use style="fill:#1f77b4;stroke:#ffffff;stroke-width:0.75;" x="353.867131" xlink:href="#mb696c529a0" y="83.458831"/>
     <use style="fill:#1f77b4;stroke:#ffffff;stroke-width:0.75;" x="355.347551" xlink:href="#mb696c529a0" y="83.124466"/>
     <use style="fill:#1f77b4;stroke:#ffffff;stroke-width:0.75;" x="356.798061" xlink:href="#mb696c529a0" y="83.164589"/>
     <use style="fill:#1f77b4;stroke:#ffffff;stroke-width:0.75;" x="358.219847" xlink:href="#mb696c529a0" y="82.535983"/>
     <use style="fill:#1f77b4;stroke:#ffffff;stroke-width:0.75;" x="359.614023" xlink:href="#mb696c529a0" y="82.763351"/>
     <use style="fill:#1f77b4;stroke:#ffffff;stroke-width:0.75;" x="360.981642" xlink:href="#mb696c529a0" y="82.107995"/>
     <use style="fill:#1f77b4;stroke:#ffffff;stroke-width:0.75;" x="362.323696" xlink:href="#mb696c529a0" y="82.589481"/>
     <use style="fill:#1f77b4;stroke:#ffffff;stroke-width:0.75;" x="363.641124" xlink:href="#mb696c529a0" y="82.656354"/>
     <use style="fill:#1f77b4;stroke:#ffffff;stroke-width:0.75;" x="364.934813" xlink:href="#mb696c529a0" y="82.388862"/>
     <use style="fill:#1f77b4;stroke:#ffffff;stroke-width:0.75;" x="366.205604" xlink:href="#mb696c529a0" y="81.680007"/>
     <use style="fill:#1f77b4;stroke:#ffffff;stroke-width:0.75;" x="367.454294" xlink:href="#mb696c529a0" y="81.680007"/>
     <use style="fill:#1f77b4;stroke:#ffffff;stroke-width:0.75;" x="368.681636" xlink:href="#mb696c529a0" y="81.626509"/>
     <use style="fill:#1f77b4;stroke:#ffffff;stroke-width:0.75;" x="369.888351" xlink:href="#mb696c529a0" y="81.626509"/>
     <use style="fill:#1f77b4;stroke:#ffffff;stroke-width:0.75;" x="371.075119" xlink:href="#mb696c529a0" y="82.29524"/>
     <use style="fill:#1f77b4;stroke:#ffffff;stroke-width:0.75;" x="372.242589" xlink:href="#mb696c529a0" y="81.626509"/>
     <use style="fill:#1f77b4;stroke:#ffffff;stroke-width:0.75;" x="373.391378" xlink:href="#mb696c529a0" y="82.228366"/>
     <use style="fill:#1f77b4;stroke:#ffffff;stroke-width:0.75;" x="374.522076" xlink:href="#mb696c529a0" y="82.937221"/>
     <use style="fill:#1f77b4;stroke:#ffffff;stroke-width:0.75;" x="375.635243" xlink:href="#mb696c529a0" y="83.164589"/>
     <use style="fill:#1f77b4;stroke:#ffffff;stroke-width:0.75;" x="376.731414" xlink:href="#mb696c529a0" y="82.937221"/>
     <use style="fill:#1f77b4;stroke:#ffffff;stroke-width:0.75;" x="377.8111" xlink:href="#mb696c529a0" y="82.937221"/>
     <use style="fill:#1f77b4;stroke:#ffffff;stroke-width:0.75;" x="378.874791" xlink:href="#mb696c529a0" y="82.228366"/>
     <use style="fill:#1f77b4;stroke:#ffffff;stroke-width:0.75;" x="379.922953" xlink:href="#mb696c529a0" y="81.492763"/>
     <use style="fill:#1f77b4;stroke:#ffffff;stroke-width:0.75;" x="380.956033" xlink:href="#mb696c529a0" y="81.011277"/>
     <use style="fill:#1f77b4;stroke:#ffffff;stroke-width:0.75;" x="381.974459" xlink:href="#mb696c529a0" y="80.931029"/>
     <use style="fill:#1f77b4;stroke:#ffffff;stroke-width:0.75;" x="382.978641" xlink:href="#mb696c529a0" y="80.890905"/>
     <use style="fill:#1f77b4;stroke:#ffffff;stroke-width:0.75;" x="383.968971" xlink:href="#mb696c529a0" y="80.90428"/>
     <use style="fill:#1f77b4;stroke:#ffffff;stroke-width:0.75;" x="384.945827" xlink:href="#mb696c529a0" y="79.874435"/>
     <use style="fill:#1f77b4;stroke:#ffffff;stroke-width:0.75;" x="385.909571" xlink:href="#mb696c529a0" y="79.713939"/>
     <use style="fill:#1f77b4;stroke:#ffffff;stroke-width:0.75;" x="386.860549" xlink:href="#mb696c529a0" y="79.713939"/>
     <use style="fill:#1f77b4;stroke:#ffffff;stroke-width:0.75;" x="387.799096" xlink:href="#mb696c529a0" y="79.68719"/>
     <use style="fill:#1f77b4;stroke:#ffffff;stroke-width:0.75;" x="388.725532" xlink:href="#mb696c529a0" y="80.797283"/>
     <use style="fill:#1f77b4;stroke:#ffffff;stroke-width:0.75;" x="389.640166" xlink:href="#mb696c529a0" y="77.333258"/>
     <use style="fill:#1f77b4;stroke:#ffffff;stroke-width:0.75;" x="390.543295" xlink:href="#mb696c529a0" y="78.496849"/>
     <use style="fill:#1f77b4;stroke:#ffffff;stroke-width:0.75;" x="391.435205" xlink:href="#mb696c529a0" y="79.433072"/>
     <use style="fill:#1f77b4;stroke:#ffffff;stroke-width:0.75;" x="392.316171" xlink:href="#mb696c529a0" y="79.326075"/>
     <use style="fill:#1f77b4;stroke:#ffffff;stroke-width:0.75;" x="393.186458" xlink:href="#mb696c529a0" y="79.299326"/>
     <use style="fill:#1f77b4;stroke:#ffffff;stroke-width:0.75;" x="394.046323" xlink:href="#mb696c529a0" y="80.075054"/>
     <use style="fill:#1f77b4;stroke:#ffffff;stroke-width:0.75;" x="394.896011" xlink:href="#mb696c529a0" y="78.389853"/>
     <use style="fill:#1f77b4;stroke:#ffffff;stroke-width:0.75;" x="395.735761" xlink:href="#mb696c529a0" y="79.178955"/>
     <use style="fill:#1f77b4;stroke:#ffffff;stroke-width:0.75;" x="396.565803" xlink:href="#mb696c529a0" y="80.048305"/>
     <use style="fill:#1f77b4;stroke:#ffffff;stroke-width:0.75;" x="397.386358" xlink:href="#mb696c529a0" y="79.138831"/>
     <use style="fill:#1f77b4;stroke:#ffffff;stroke-width:0.75;" x="398.197642" xlink:href="#mb696c529a0" y="79.138831"/>
     <use style="fill:#1f77b4;stroke:#ffffff;stroke-width:0.75;" x="398.99986" xlink:href="#mb696c529a0" y="76.437159"/>
     <use style="fill:#1f77b4;stroke:#ffffff;stroke-width:0.75;" x="399.793214" xlink:href="#mb696c529a0" y="79.138831"/>
     <use style="fill:#1f77b4;stroke:#ffffff;stroke-width:0.75;" x="400.577898" xlink:href="#mb696c529a0" y="79.138831"/>
    </g>
   </g>
   <g id="line2d_31"/>
   <g id="line2d_32"/>
   <g id="patch_3">
    <path d="M 59.690625 250.22688 
L 59.690625 36.233072 
" style="fill:none;stroke:#000000;stroke-linecap:square;stroke-linejoin:miter;stroke-width:0.8;"/>
   </g>
   <g id="patch_4">
    <path d="M 75.923352 288.430125 
L 400.578765 288.430125 
" style="fill:none;stroke:#000000;stroke-linecap:square;stroke-linejoin:miter;stroke-width:0.8;"/>
   </g>
   <g id="text_14">
    <!-- libxml2_libxml2_xml_reader_for_file_fuzzer (23h, 14 trials/fuzzer) -->
    <g transform="translate(42.98625 16.318125)scale(0.12 -0.12)">
     <defs>
      <path d="M 603 4863 
L 1178 4863 
L 1178 0 
L 603 0 
L 603 4863 
z
" id="DejaVuSans-6c" transform="scale(0.015625)"/>
      <path d="M 3116 1747 
Q 3116 2381 2855 2742 
Q 2594 3103 2138 3103 
Q 1681 3103 1420 2742 
Q 1159 2381 1159 1747 
Q 1159 1113 1420 752 
Q 1681 391 2138 391 
Q 2594 391 2855 752 
Q 3116 1113 3116 1747 
z
M 1159 2969 
Q 1341 3281 1617 3432 
Q 1894 3584 2278 3584 
Q 2916 3584 3314 3078 
Q 3713 2572 3713 1747 
Q 3713 922 3314 415 
Q 2916 -91 2278 -91 
Q 1894 -91 1617 61 
Q 1341 213 1159 525 
L 1159 0 
L 581 0 
L 581 4863 
L 1159 4863 
L 1159 2969 
z
" id="DejaVuSans-62" transform="scale(0.015625)"/>
      <path d="M 3513 3500 
L 2247 1797 
L 3578 0 
L 2900 0 
L 1881 1375 
L 863 0 
L 184 0 
L 1544 1831 
L 300 3500 
L 978 3500 
L 1906 2253 
L 2834 3500 
L 3513 3500 
z
" id="DejaVuSans-78" transform="scale(0.015625)"/>
      <path d="M 3263 -1063 
L 3263 -1509 
L -63 -1509 
L -63 -1063 
L 3263 -1063 
z
" id="DejaVuSans-5f" transform="scale(0.015625)"/>
      <path d="M 2375 4863 
L 2375 4384 
L 1825 4384 
Q 1516 4384 1395 4259 
Q 1275 4134 1275 3809 
L 1275 3500 
L 2222 3500 
L 2222 3053 
L 1275 3053 
L 1275 0 
L 697 0 
L 697 3053 
L 147 3053 
L 147 3500 
L 697 3500 
L 697 3744 
Q 697 4328 969 4595 
Q 1241 4863 1831 4863 
L 2375 4863 
z
" id="DejaVuSans-66" transform="scale(0.015625)"/>
      <path d="M 353 3500 
L 3084 3500 
L 3084 2975 
L 922 459 
L 3084 459 
L 3084 0 
L 275 0 
L 275 525 
L 2438 3041 
L 353 3041 
L 353 3500 
z
" id="DejaVuSans-7a" transform="scale(0.015625)"/>
      <path d="M 750 794 
L 1409 794 
L 1409 256 
L 897 -744 
L 494 -744 
L 750 256 
L 750 794 
z
" id="DejaVuSans-2c" transform="scale(0.015625)"/>
      <path d="M 2834 3397 
L 2834 2853 
Q 2591 2978 2328 3040 
Q 2066 3103 1784 3103 
Q 1356 3103 1142 2972 
Q 928 2841 928 2578 
Q 928 2378 1081 2264 
Q 1234 2150 1697 2047 
L 1894 2003 
Q 2506 1872 2764 1633 
Q 3022 1394 3022 966 
Q 3022 478 2636 193 
Q 2250 -91 1575 -91 
Q 1294 -91 989 -36 
Q 684 19 347 128 
L 347 722 
Q 666 556 975 473 
Q 1284 391 1588 391 
Q 1994 391 2212 530 
Q 2431 669 2431 922 
Q 2431 1156 2273 1281 
Q 2116 1406 1581 1522 
L 1381 1569 
Q 847 1681 609 1914 
Q 372 2147 372 2553 
Q 372 3047 722 3315 
Q 1072 3584 1716 3584 
Q 2034 3584 2315 3537 
Q 2597 3491 2834 3397 
z
" id="DejaVuSans-73" transform="scale(0.015625)"/>
      <path d="M 1625 4666 
L 2156 4666 
L 531 -594 
L 0 -594 
L 1625 4666 
z
" id="DejaVuSans-2f" transform="scale(0.015625)"/>
     </defs>
     <use xlink:href="#DejaVuSans-6c"/>
     <use x="27.783203" xlink:href="#DejaVuSans-69"/>
     <use x="55.566406" xlink:href="#DejaVuSans-62"/>
     <use x="119.042969" xlink:href="#DejaVuSans-78"/>
     <use x="178.222656" xlink:href="#DejaVuSans-6d"/>
     <use x="275.634766" xlink:href="#DejaVuSans-6c"/>
     <use x="303.417969" xlink:href="#DejaVuSans-32"/>
     <use x="367.041016" xlink:href="#DejaVuSans-5f"/>
     <use x="417.041016" xlink:href="#DejaVuSans-6c"/>
     <use x="444.824219" xlink:href="#DejaVuSans-69"/>
     <use x="472.607422" xlink:href="#DejaVuSans-62"/>
     <use x="536.083984" xlink:href="#DejaVuSans-78"/>
     <use x="595.263672" xlink:href="#DejaVuSans-6d"/>
     <use x="692.675781" xlink:href="#DejaVuSans-6c"/>
     <use x="720.458984" xlink:href="#DejaVuSans-32"/>
     <use x="784.082031" xlink:href="#DejaVuSans-5f"/>
     <use x="834.082031" xlink:href="#DejaVuSans-78"/>
     <use x="893.261719" xlink:href="#DejaVuSans-6d"/>
     <use x="990.673828" xlink:href="#DejaVuSans-6c"/>
     <use x="1018.457031" xlink:href="#DejaVuSans-5f"/>
     <use x="1068.457031" xlink:href="#DejaVuSans-72"/>
     <use x="1107.320312" xlink:href="#DejaVuSans-65"/>
     <use x="1168.84375" xlink:href="#DejaVuSans-61"/>
     <use x="1230.123047" xlink:href="#DejaVuSans-64"/>
     <use x="1293.599609" xlink:href="#DejaVuSans-65"/>
     <use x="1355.123047" xlink:href="#DejaVuSans-72"/>
     <use x="1396.236328" xlink:href="#DejaVuSans-5f"/>
     <use x="1446.236328" xlink:href="#DejaVuSans-66"/>
     <use x="1481.441406" xlink:href="#DejaVuSans-6f"/>
     <use x="1542.623047" xlink:href="#DejaVuSans-72"/>
     <use x="1583.736328" xlink:href="#DejaVuSans-5f"/>
     <use x="1633.736328" xlink:href="#DejaVuSans-66"/>
     <use x="1668.941406" xlink:href="#DejaVuSans-69"/>
     <use x="1696.724609" xlink:href="#DejaVuSans-6c"/>
     <use x="1724.507812" xlink:href="#DejaVuSans-65"/>
     <use x="1786.03125" xlink:href="#DejaVuSans-5f"/>
     <use x="1836.03125" xlink:href="#DejaVuSans-66"/>
     <use x="1871.236328" xlink:href="#DejaVuSans-75"/>
     <use x="1934.615234" xlink:href="#DejaVuSans-7a"/>
     <use x="1987.105469" xlink:href="#DejaVuSans-7a"/>
     <use x="2039.595703" xlink:href="#DejaVuSans-65"/>
     <use x="2101.119141" xlink:href="#DejaVuSans-72"/>
     <use x="2142.232422" xlink:href="#DejaVuSans-20"/>
     <use x="2174.019531" xlink:href="#DejaVuSans-28"/>
     <use x="2213.033203" xlink:href="#DejaVuSans-32"/>
     <use x="2276.65625" xlink:href="#DejaVuSans-33"/>
     <use x="2340.279297" xlink:href="#DejaVuSans-68"/>
     <use x="2403.658203" xlink:href="#DejaVuSans-2c"/>
     <use x="2435.445312" xlink:href="#DejaVuSans-20"/>
     <use x="2467.232422" xlink:href="#DejaVuSans-31"/>
     <use x="2530.855469" xlink:href="#DejaVuSans-34"/>
     <use x="2594.478516" xlink:href="#DejaVuSans-20"/>
     <use x="2626.265625" xlink:href="#DejaVuSans-74"/>
     <use x="2665.474609" xlink:href="#DejaVuSans-72"/>
     <use x="2706.587891" xlink:href="#DejaVuSans-69"/>
     <use x="2734.371094" xlink:href="#DejaVuSans-61"/>
     <use x="2795.650391" xlink:href="#DejaVuSans-6c"/>
     <use x="2823.433594" xlink:href="#DejaVuSans-73"/>
     <use x="2875.533203" xlink:href="#DejaVuSans-2f"/>
     <use x="2909.224609" xlink:href="#DejaVuSans-66"/>
     <use x="2944.429688" xlink:href="#DejaVuSans-75"/>
     <use x="3007.808594" xlink:href="#DejaVuSans-7a"/>
     <use x="3060.298828" xlink:href="#DejaVuSans-7a"/>
     <use x="3112.789062" xlink:href="#DejaVuSans-65"/>
     <use x="3174.3125" xlink:href="#DejaVuSans-72"/>
     <use x="3215.425781" xlink:href="#DejaVuSans-29"/>
    </g>
   </g>
   <g id="legend_1">
    <g id="line2d_33">
     <path d="M 420.810625 30.416562 
L 440.810625 30.416562 
" style="fill:none;stroke:#98df8a;stroke-linecap:square;stroke-width:1.5;"/>
    </g>
    <g id="line2d_34">
     <defs>
      <path d="M -0 3 
L 3 -3 
L -3 -3 
z
" id="medf0704b72" style="stroke:#98df8a;stroke-linejoin:miter;"/>
     </defs>
     <g>
      <use style="fill:#98df8a;stroke:#98df8a;stroke-linejoin:miter;" x="430.810625" xlink:href="#medf0704b72" y="30.416562"/>
     </g>
    </g>
    <g id="text_15">
     <!-- afl_no_trim -->
     <g transform="translate(448.810625 33.916562)scale(0.1 -0.1)">
      <use xlink:href="#DejaVuSans-61"/>
      <use x="61.279297" xlink:href="#DejaVuSans-66"/>
      <use x="96.484375" xlink:href="#DejaVuSans-6c"/>
      <use x="124.267578" xlink:href="#DejaVuSans-5f"/>
      <use x="174.267578" xlink:href="#DejaVuSans-6e"/>
      <use x="237.646484" xlink:href="#DejaVuSans-6f"/>
      <use x="298.828125" xlink:href="#DejaVuSans-5f"/>
      <use x="348.828125" xlink:href="#DejaVuSans-74"/>
      <use x="388.037109" xlink:href="#DejaVuSans-72"/>
      <use x="429.150391" xlink:href="#DejaVuSans-69"/>
      <use x="456.933594" xlink:href="#DejaVuSans-6d"/>
     </g>
    </g>
    <g id="line2d_35">
     <path d="M 420.810625 45.372813 
L 440.810625 45.372813 
" style="fill:none;stroke:#1f77b4;stroke-linecap:square;stroke-width:1.5;"/>
    </g>
    <g id="line2d_36">
     <defs>
      <path d="M 0 3 
C 0.795609 3 1.55874 2.683901 2.12132 2.12132 
C 2.683901 1.55874 3 0.795609 3 0 
C 3 -0.795609 2.683901 -1.55874 2.12132 -2.12132 
C 1.55874 -2.683901 0.795609 -3 0 -3 
C -0.795609 -3 -1.55874 -2.683901 -2.12132 -2.12132 
C -2.683901 -1.55874 -3 -0.795609 -3 0 
C -3 0.795609 -2.683901 1.55874 -2.12132 2.12132 
C -1.55874 2.683901 -0.795609 3 0 3 
z
" id="m8540131ae9" style="stroke:#1f77b4;"/>
     </defs>
     <g>
      <use style="fill:#1f77b4;stroke:#1f77b4;" x="430.810625" xlink:href="#m8540131ae9" y="45.372813"/>
     </g>
    </g>
    <g id="text_16">
     <!-- afl -->
     <g transform="translate(448.810625 48.872813)scale(0.1 -0.1)">
      <use xlink:href="#DejaVuSans-61"/>
      <use x="61.279297" xlink:href="#DejaVuSans-66"/>
      <use x="96.484375" xlink:href="#DejaVuSans-6c"/>
     </g>
    </g>
   </g>
  </g>
 </g>
 <defs>
  <clipPath id="p6da9cd65fa">
   <rect height="266.112" width="357.12" x="59.690625" y="22.318125"/>
  </clipPath>
 </defs>
</svg>
