<?xml version="1.0" encoding="utf-8" standalone="no"?>
<!DOCTYPE svg PUBLIC "-//W3C//DTD SVG 1.1//EN"
  "http://www.w3.org/Graphics/SVG/1.1/DTD/svg11.dtd">
<svg height="325.986375pt" version="1.1" viewBox="0 0 515.443437 325.986375" width="515.443437pt" xmlns="http://www.w3.org/2000/svg" xmlns:xlink="http://www.w3.org/1999/xlink">
 <metadata>
  <rdf:RDF xmlns:cc="http://creativecommons.org/ns#" xmlns:dc="http://purl.org/dc/elements/1.1/" xmlns:rdf="http://www.w3.org/1999/02/22-rdf-syntax-ns#">
   <cc:Work>
    <dc:type rdf:resource="http://purl.org/dc/dcmitype/StillImage"/>
    <dc:date>2022-05-31T17:11:05.738011</dc:date>
    <dc:format>image/svg+xml</dc:format>
    <dc:creator>
     <cc:Agent>
      <dc:title>Matplotlib v3.4.3, https://matplotlib.org/</dc:title>
     </cc:Agent>
    </dc:creator>
   </cc:Work>
  </rdf:RDF>
 </metadata>
 <defs>
  <style type="text/css">*{stroke-linecap:butt;stroke-linejoin:round;}</style>
 </defs>
 <g id="figure_1">
  <g id="patch_1">
   <path d="M 0 325.986375 
L 515.443437 325.986375 
L 515.443437 0 
L 0 0 
z
" style="fill:#ffffff;"/>
  </g>
  <g id="axes_1">
   <g id="patch_2">
    <path d="M 59.690625 288.430125 
L 416.810625 288.430125 
L 416.810625 22.318125 
L 59.690625 22.318125 
z
" style="fill:#ffffff;"/>
   </g>
   <g id="PolyCollection_1">
    <defs>
     <path d="M 75.923352 -111.1113 
L 75.923352 -50.599717 
L 79.490985 -95.383341 
L 83.058617 -96.267644 
L 86.626249 -88.308918 
L 90.193882 -93.046255 
L 93.761514 -102.331435 
L 97.329146 -114.459018 
L 100.896779 -140.356459 
L 104.464411 -141.619749 
L 108.032044 -176.991864 
L 111.599676 -182.297681 
L 115.167308 -185.961221 
L 118.734941 -192.782986 
L 122.302573 -192.909315 
L 125.870205 -193.161973 
L 129.437838 -193.161973 
L 133.00547 -193.288302 
L 136.573103 -193.288302 
L 140.140735 -193.288302 
L 143.708367 -193.288302 
L 147.276 -193.667289 
L 150.843632 -193.667289 
L 154.411264 -194.930579 
L 157.978897 -195.183237 
L 161.546529 -196.572856 
L 165.114161 -201.878673 
L 168.681794 -202.636647 
L 172.249426 -202.636647 
L 175.817059 -202.889305 
L 179.384691 -203.015634 
L 182.952323 -203.773608 
L 186.519956 -213.248281 
L 190.087588 -213.627268 
L 193.65522 -214.890558 
L 197.222853 -215.774861 
L 200.790485 -215.774861 
L 204.358118 -223.607258 
L 207.92575 -225.375864 
L 211.493382 -220.973299 
L 215.061015 -225.754851 
L 218.628647 -226.260166 
L 222.196279 -226.260166 
L 225.763912 -222.596626 
L 229.331544 -223.165106 
L 232.899176 -227.649785 
L 236.466809 -227.649785 
L 240.034441 -229.039404 
L 243.602074 -229.165733 
L 247.169706 -229.165733 
L 250.737338 -229.165733 
L 254.304971 -230.555352 
L 257.872603 -231.944971 
L 261.440235 -232.576616 
L 265.007868 -232.576616 
L 268.5755 -232.576616 
L 272.143132 -234.092563 
L 275.710765 -234.092563 
L 279.278397 -234.597879 
L 282.84603 -235.861169 
L 286.413662 -235.861169 
L 289.981294 -235.861169 
L 293.548927 -236.492814 
L 297.116559 -236.492814 
L 300.684191 -236.619143 
L 304.251824 -241.92496 
L 307.819456 -241.92496 
L 311.387089 -242.682934 
L 314.954721 -244.45154 
L 318.522353 -242.61977 
L 322.089986 -244.45154 
L 325.657618 -244.45154 
L 329.22525 -244.45154 
L 332.792883 -244.609451 
L 336.360515 -244.704198 
L 339.928147 -249.125712 
L 343.49578 -266.685441 
L 347.063412 -266.938099 
L 350.631045 -267.443414 
L 354.198677 -267.569743 
L 357.766309 -267.696072 
L 361.333942 -268.075059 
L 364.901574 -268.075059 
L 368.469206 -268.075059 
L 372.036839 -268.327717 
L 375.604471 -268.327717 
L 379.172104 -268.580375 
L 382.739736 -281.844918 
L 386.307368 -281.971247 
L 389.875001 -281.971247 
L 393.442633 -281.971247 
L 397.010265 -281.971247 
L 400.577898 -282.223905 
L 400.577898 -291.57225 
L 400.577898 -291.57225 
L 397.010265 -291.57225 
L 393.442633 -291.57225 
L 389.875001 -291.57225 
L 386.307368 -291.57225 
L 382.739736 -291.57225 
L 379.172104 -291.57225 
L 375.604471 -289.677315 
L 372.036839 -287.90871 
L 368.469206 -287.90871 
L 364.901574 -287.90871 
L 361.333942 -287.90871 
L 357.766309 -287.90871 
L 354.198677 -287.90871 
L 350.631045 -284.11884 
L 347.063412 -284.11884 
L 343.49578 -284.11884 
L 339.928147 -281.59226 
L 336.360515 -280.328971 
L 332.792883 -280.328971 
L 329.22525 -278.307707 
L 325.657618 -278.181378 
L 322.089986 -278.181378 
L 318.522353 -277.92872 
L 314.954721 -277.802391 
L 311.387089 -277.676062 
L 307.819456 -275.528469 
L 304.251824 -275.40214 
L 300.684191 -273.759864 
L 297.116559 -273.507206 
L 293.548927 -273.507206 
L 289.981294 -273.507206 
L 286.413662 -273.507206 
L 282.84603 -273.507206 
L 279.278397 -273.605111 
L 275.710765 -273.507206 
L 272.143132 -273.507206 
L 268.5755 -273.507206 
L 265.007868 -272.749232 
L 261.440235 -272.749232 
L 257.872603 -271.359613 
L 254.304971 -272.875561 
L 250.737338 -271.233284 
L 247.169706 -271.233284 
L 243.602074 -271.233284 
L 240.034441 -270.47531 
L 236.466809 -270.096323 
L 232.899176 -266.685441 
L 229.331544 -266.306454 
L 225.763912 -265.169493 
L 222.196279 -264.433627 
L 218.628647 -264.411519 
L 215.061015 -262.263926 
L 211.493382 -261.569117 
L 207.92575 -260.874307 
L 204.358118 -260.49532 
L 200.790485 -259.484689 
L 197.222853 -259.484689 
L 193.65522 -259.484689 
L 190.087588 -259.042537 
L 186.519956 -259.105702 
L 182.952323 -253.863049 
L 179.384691 -255.442161 
L 175.817059 -250.64166 
L 172.249426 -250.010015 
L 168.681794 -249.504699 
L 165.114161 -249.504699 
L 161.546529 -249.37837 
L 157.978897 -248.999383 
L 154.411264 -244.325211 
L 150.843632 -241.419644 
L 147.276 -241.166986 
L 143.708367 -240.535341 
L 140.140735 -240.535341 
L 136.573103 -226.512824 
L 133.00547 -225.249535 
L 129.437838 -234.218892 
L 125.870205 -221.080678 
L 122.302573 -221.080678 
L 118.734941 -220.954349 
L 115.167308 -220.954349 
L 111.599676 -213.879926 
L 108.032044 -198.341461 
L 104.464411 -195.688553 
L 100.896779 -194.298934 
L 97.329146 -192.530328 
L 93.761514 -178.381482 
L 90.193882 -176.676041 
L 86.626249 -168.843644 
L 83.058617 -164.611623 
L 79.490985 -157.031884 
L 75.923352 -111.1113 
z
" id="m8cdd4b53c9" style="stroke:#98df8a;stroke-opacity:0.2;"/>
    </defs>
    <g clip-path="url(#pbd05b95154)">
     <use style="fill:#98df8a;fill-opacity:0.2;stroke:#98df8a;stroke-opacity:0.2;" x="0" xlink:href="#m8cdd4b53c9" y="325.986375"/>
    </g>
   </g>
   <g id="PolyCollection_2">
    <defs>
     <path d="M 75.923352 -114.20636 
L 75.923352 -49.65225 
L 79.490985 -84.771707 
L 83.058617 -90.58284 
L 86.626249 -124.817994 
L 90.193882 -137.766715 
L 93.761514 -137.908835 
L 97.329146 -145.373299 
L 100.896779 -140.23013 
L 104.464411 -152.357712 
L 108.032044 -158.547832 
L 111.599676 -158.547832 
L 115.167308 -154.631634 
L 118.734941 -157.410871 
L 122.302573 -159.179477 
L 125.870205 -164.927446 
L 129.437838 -162.464031 
L 133.00547 -164.927446 
L 136.573103 -162.464031 
L 140.140735 -162.464031 
L 143.708367 -159.179477 
L 147.276 -164.927446 
L 150.843632 -162.527195 
L 154.411264 -164.99061 
L 157.978897 -167.390861 
L 161.546529 -159.432135 
L 165.114161 -159.432135 
L 168.681794 -173.075665 
L 172.249426 -183.876793 
L 175.817059 -184.318945 
L 179.384691 -186.08755 
L 182.952323 -186.08755 
L 186.519956 -196.572856 
L 190.087588 -191.519696 
L 193.65522 -197.393994 
L 197.222853 -192.909315 
L 200.790485 -192.909315 
L 204.358118 -196.699185 
L 207.92575 -196.699185 
L 211.493382 -197.204501 
L 215.061015 -197.204501 
L 218.628647 -199.604751 
L 222.196279 -199.604751 
L 225.763912 -194.046276 
L 229.331544 -201.752344 
L 232.899176 -201.878673 
L 236.466809 -209.71107 
L 240.034441 -201.878673 
L 243.602074 -201.90236 
L 247.169706 -211.037524 
L 250.737338 -197.89931 
L 254.304971 -202.510318 
L 257.872603 -202.510318 
L 261.440235 -210.216386 
L 265.007868 -217.922454 
L 268.5755 -220.701691 
L 272.143132 -220.701691 
L 275.710765 -220.891185 
L 279.278397 -219.817388 
L 282.84603 -224.112574 
L 286.413662 -224.933712 
L 289.981294 -223.480929 
L 293.548927 -224.996877 
L 297.116559 -224.996877 
L 300.684191 -228.633572 
L 304.251824 -229.671049 
L 307.819456 -229.671049 
L 311.387089 -233.612513 
L 314.954721 -233.081931 
L 318.522353 -233.018767 
L 322.089986 -233.081931 
L 325.657618 -233.081931 
L 329.22525 -233.081931 
L 332.792883 -236.240156 
L 336.360515 -236.240156 
L 339.928147 -237.31869 
L 343.49578 -237.377117 
L 347.063412 -237.377117 
L 350.631045 -237.377117 
L 354.198677 -237.377117 
L 357.766309 -233.966234 
L 361.333942 -237.377117 
L 364.901574 -237.377117 
L 368.469206 -237.377117 
L 372.036839 -237.377117 
L 375.604471 -237.377117 
L 379.172104 -237.377117 
L 382.739736 -237.377117 
L 386.307368 -237.377117 
L 389.875001 -237.377117 
L 393.442633 -237.377117 
L 397.010265 -237.377117 
L 400.577898 -237.377117 
L 400.577898 -277.297075 
L 400.577898 -277.297075 
L 397.010265 -277.297075 
L 393.442633 -277.676062 
L 389.875001 -273.89093 
L 386.307368 -273.886193 
L 382.739736 -270.980626 
L 379.172104 -272.433409 
L 375.604471 -270.980626 
L 372.036839 -270.980626 
L 368.469206 -272.622903 
L 364.901574 -270.980626 
L 361.333942 -270.980626 
L 357.766309 -270.980626 
L 354.198677 -270.980626 
L 350.631045 -270.47531 
L 347.063412 -270.854297 
L 343.49578 -269.464678 
L 339.928147 -269.338349 
L 336.360515 -269.21202 
L 332.792883 -263.906203 
L 329.22525 -263.863567 
L 325.657618 -264.28519 
L 322.089986 -262.769242 
L 318.522353 -263.400887 
L 314.954721 -262.467632 
L 311.387089 -261.884939 
L 307.819456 -256.45911 
L 304.251824 -261.632281 
L 300.684191 -261.821775 
L 297.116559 -260.116334 
L 293.548927 -257.716083 
L 289.981294 -257.716083 
L 286.413662 -248.178245 
L 282.84603 -249.125712 
L 279.278397 -246.725461 
L 275.710765 -239.903696 
L 272.143132 -247.925587 
L 268.5755 -239.840532 
L 265.007868 -246.472804 
L 261.440235 -237.061294 
L 257.872603 -246.472804 
L 254.304971 -227.523456 
L 250.737338 -236.050663 
L 247.169706 -235.16636 
L 243.602074 -234.47155 
L 240.034441 -245.083185 
L 236.466809 -234.597879 
L 232.899176 -224.491561 
L 229.331544 -244.577869 
L 225.763912 -223.608837 
L 222.196279 -221.964981 
L 218.628647 -235.73484 
L 215.061015 -234.976866 
L 211.493382 -221.964981 
L 207.92575 -234.597879 
L 204.358118 -221.964981 
L 200.790485 -221.585994 
L 197.222853 -226.828647 
L 193.65522 -223.607258 
L 190.087588 -220.82802 
L 186.519956 -219.589996 
L 182.952323 -217.73296 
L 179.384691 -219.312072 
L 175.817059 -219.312072 
L 172.249426 -217.480302 
L 168.681794 -213.879926 
L 165.114161 -213.753597 
L 161.546529 -210.848031 
L 157.978897 -208.953096 
L 154.411264 -204.026266 
L 150.843632 -204.594746 
L 147.276 -201.878673 
L 143.708367 -203.773608 
L 140.140735 -202.82614 
L 136.573103 -205.542213 
L 133.00547 -201.878673 
L 129.437838 -201.247028 
L 125.870205 -202.742447 
L 122.302573 -201.752344 
L 118.734941 -197.393994 
L 115.167308 -201.752344 
L 111.599676 -203.899937 
L 108.032044 -198.404626 
L 104.464411 -201.752344 
L 100.896779 -201.752344 
L 97.329146 -193.919947 
L 93.761514 -184.571602 
L 90.193882 -182.42401 
L 86.626249 -176.23389 
L 83.058617 -149.073159 
L 79.490985 -139.724814 
L 75.923352 -114.20636 
z
" id="m58335203ad" style="stroke:#1f77b4;stroke-opacity:0.2;"/>
    </defs>
    <g clip-path="url(#pbd05b95154)">
     <use style="fill:#1f77b4;fill-opacity:0.2;stroke:#1f77b4;stroke-opacity:0.2;" x="0" xlink:href="#m58335203ad" y="325.986375"/>
    </g>
   </g>
   <g id="matplotlib.axis_1">
    <g id="xtick_1">
     <g id="line2d_1">
      <defs>
       <path d="M 0 0 
L 0 3.5 
" id="m270133d5a7" style="stroke:#000000;stroke-width:0.8;"/>
      </defs>
      <g>
       <use style="stroke:#000000;stroke-width:0.8;" x="75.923352" xlink:href="#m270133d5a7" y="288.430125"/>
      </g>
     </g>
     <g id="text_1">
      <!-- 15m -->
      <g transform="translate(64.69054 303.028562)scale(0.1 -0.1)">
       <defs>
        <path d="M 794 531 
L 1825 531 
L 1825 4091 
L 703 3866 
L 703 4441 
L 1819 4666 
L 2450 4666 
L 2450 531 
L 3481 531 
L 3481 0 
L 794 0 
L 794 531 
z
" id="DejaVuSans-31" transform="scale(0.015625)"/>
        <path d="M 691 4666 
L 3169 4666 
L 3169 4134 
L 1269 4134 
L 1269 2991 
Q 1406 3038 1543 3061 
Q 1681 3084 1819 3084 
Q 2600 3084 3056 2656 
Q 3513 2228 3513 1497 
Q 3513 744 3044 326 
Q 2575 -91 1722 -91 
Q 1428 -91 1123 -41 
Q 819 9 494 109 
L 494 744 
Q 775 591 1075 516 
Q 1375 441 1709 441 
Q 2250 441 2565 725 
Q 2881 1009 2881 1497 
Q 2881 1984 2565 2268 
Q 2250 2553 1709 2553 
Q 1456 2553 1204 2497 
Q 953 2441 691 2322 
L 691 4666 
z
" id="DejaVuSans-35" transform="scale(0.015625)"/>
        <path d="M 3328 2828 
Q 3544 3216 3844 3400 
Q 4144 3584 4550 3584 
Q 5097 3584 5394 3201 
Q 5691 2819 5691 2113 
L 5691 0 
L 5113 0 
L 5113 2094 
Q 5113 2597 4934 2840 
Q 4756 3084 4391 3084 
Q 3944 3084 3684 2787 
Q 3425 2491 3425 1978 
L 3425 0 
L 2847 0 
L 2847 2094 
Q 2847 2600 2669 2842 
Q 2491 3084 2119 3084 
Q 1678 3084 1418 2786 
Q 1159 2488 1159 1978 
L 1159 0 
L 581 0 
L 581 3500 
L 1159 3500 
L 1159 2956 
Q 1356 3278 1631 3431 
Q 1906 3584 2284 3584 
Q 2666 3584 2933 3390 
Q 3200 3197 3328 2828 
z
" id="DejaVuSans-6d" transform="scale(0.015625)"/>
       </defs>
       <use xlink:href="#DejaVuSans-31"/>
       <use x="63.623047" xlink:href="#DejaVuSans-35"/>
       <use x="127.246094" xlink:href="#DejaVuSans-6d"/>
      </g>
     </g>
    </g>
    <g id="xtick_2">
     <g id="line2d_2">
      <g>
       <use style="stroke:#000000;stroke-width:0.8;" x="130.627049" xlink:href="#m270133d5a7" y="288.430125"/>
      </g>
     </g>
     <g id="text_2">
      <!-- 4h:5m -->
      <g transform="translate(114.541111 303.028562)scale(0.1 -0.1)">
       <defs>
        <path d="M 2419 4116 
L 825 1625 
L 2419 1625 
L 2419 4116 
z
M 2253 4666 
L 3047 4666 
L 3047 1625 
L 3713 1625 
L 3713 1100 
L 3047 1100 
L 3047 0 
L 2419 0 
L 2419 1100 
L 313 1100 
L 313 1709 
L 2253 4666 
z
" id="DejaVuSans-34" transform="scale(0.015625)"/>
        <path d="M 3513 2113 
L 3513 0 
L 2938 0 
L 2938 2094 
Q 2938 2591 2744 2837 
Q 2550 3084 2163 3084 
Q 1697 3084 1428 2787 
Q 1159 2491 1159 1978 
L 1159 0 
L 581 0 
L 581 4863 
L 1159 4863 
L 1159 2956 
Q 1366 3272 1645 3428 
Q 1925 3584 2291 3584 
Q 2894 3584 3203 3211 
Q 3513 2838 3513 2113 
z
" id="DejaVuSans-68" transform="scale(0.015625)"/>
        <path d="M 750 794 
L 1409 794 
L 1409 0 
L 750 0 
L 750 794 
z
M 750 3309 
L 1409 3309 
L 1409 2516 
L 750 2516 
L 750 3309 
z
" id="DejaVuSans-3a" transform="scale(0.015625)"/>
       </defs>
       <use xlink:href="#DejaVuSans-34"/>
       <use x="63.623047" xlink:href="#DejaVuSans-68"/>
       <use x="127.001953" xlink:href="#DejaVuSans-3a"/>
       <use x="160.693359" xlink:href="#DejaVuSans-35"/>
       <use x="224.316406" xlink:href="#DejaVuSans-6d"/>
      </g>
     </g>
    </g>
    <g id="xtick_3">
     <g id="line2d_3">
      <g>
       <use style="stroke:#000000;stroke-width:0.8;" x="185.330745" xlink:href="#m270133d5a7" y="288.430125"/>
      </g>
     </g>
     <g id="text_3">
      <!-- 7h:55m -->
      <g transform="translate(166.063557 303.028562)scale(0.1 -0.1)">
       <defs>
        <path d="M 525 4666 
L 3525 4666 
L 3525 4397 
L 1831 0 
L 1172 0 
L 2766 4134 
L 525 4134 
L 525 4666 
z
" id="DejaVuSans-37" transform="scale(0.015625)"/>
       </defs>
       <use xlink:href="#DejaVuSans-37"/>
       <use x="63.623047" xlink:href="#DejaVuSans-68"/>
       <use x="127.001953" xlink:href="#DejaVuSans-3a"/>
       <use x="160.693359" xlink:href="#DejaVuSans-35"/>
       <use x="224.316406" xlink:href="#DejaVuSans-35"/>
       <use x="287.939453" xlink:href="#DejaVuSans-6d"/>
      </g>
     </g>
    </g>
    <g id="xtick_4">
     <g id="line2d_4">
      <g>
       <use style="stroke:#000000;stroke-width:0.8;" x="240.034441" xlink:href="#m270133d5a7" y="288.430125"/>
      </g>
     </g>
     <g id="text_4">
      <!-- 11h:45m -->
      <g transform="translate(217.586004 303.028562)scale(0.1 -0.1)">
       <use xlink:href="#DejaVuSans-31"/>
       <use x="63.623047" xlink:href="#DejaVuSans-31"/>
       <use x="127.246094" xlink:href="#DejaVuSans-68"/>
       <use x="190.625" xlink:href="#DejaVuSans-3a"/>
       <use x="224.316406" xlink:href="#DejaVuSans-34"/>
       <use x="287.939453" xlink:href="#DejaVuSans-35"/>
       <use x="351.5625" xlink:href="#DejaVuSans-6d"/>
      </g>
     </g>
    </g>
    <g id="xtick_5">
     <g id="line2d_5">
      <g>
       <use style="stroke:#000000;stroke-width:0.8;" x="294.738137" xlink:href="#m270133d5a7" y="288.430125"/>
      </g>
     </g>
     <g id="text_5">
      <!-- 15h:35m -->
      <g transform="translate(272.2897 303.028562)scale(0.1 -0.1)">
       <defs>
        <path d="M 2597 2516 
Q 3050 2419 3304 2112 
Q 3559 1806 3559 1356 
Q 3559 666 3084 287 
Q 2609 -91 1734 -91 
Q 1441 -91 1130 -33 
Q 819 25 488 141 
L 488 750 
Q 750 597 1062 519 
Q 1375 441 1716 441 
Q 2309 441 2620 675 
Q 2931 909 2931 1356 
Q 2931 1769 2642 2001 
Q 2353 2234 1838 2234 
L 1294 2234 
L 1294 2753 
L 1863 2753 
Q 2328 2753 2575 2939 
Q 2822 3125 2822 3475 
Q 2822 3834 2567 4026 
Q 2313 4219 1838 4219 
Q 1578 4219 1281 4162 
Q 984 4106 628 3988 
L 628 4550 
Q 988 4650 1302 4700 
Q 1616 4750 1894 4750 
Q 2613 4750 3031 4423 
Q 3450 4097 3450 3541 
Q 3450 3153 3228 2886 
Q 3006 2619 2597 2516 
z
" id="DejaVuSans-33" transform="scale(0.015625)"/>
       </defs>
       <use xlink:href="#DejaVuSans-31"/>
       <use x="63.623047" xlink:href="#DejaVuSans-35"/>
       <use x="127.246094" xlink:href="#DejaVuSans-68"/>
       <use x="190.625" xlink:href="#DejaVuSans-3a"/>
       <use x="224.316406" xlink:href="#DejaVuSans-33"/>
       <use x="287.939453" xlink:href="#DejaVuSans-35"/>
       <use x="351.5625" xlink:href="#DejaVuSans-6d"/>
      </g>
     </g>
    </g>
    <g id="xtick_6">
     <g id="line2d_6">
      <g>
       <use style="stroke:#000000;stroke-width:0.8;" x="349.441834" xlink:href="#m270133d5a7" y="288.430125"/>
      </g>
     </g>
     <g id="text_6">
      <!-- 19h:25m -->
      <g transform="translate(326.993396 303.028562)scale(0.1 -0.1)">
       <defs>
        <path d="M 703 97 
L 703 672 
Q 941 559 1184 500 
Q 1428 441 1663 441 
Q 2288 441 2617 861 
Q 2947 1281 2994 2138 
Q 2813 1869 2534 1725 
Q 2256 1581 1919 1581 
Q 1219 1581 811 2004 
Q 403 2428 403 3163 
Q 403 3881 828 4315 
Q 1253 4750 1959 4750 
Q 2769 4750 3195 4129 
Q 3622 3509 3622 2328 
Q 3622 1225 3098 567 
Q 2575 -91 1691 -91 
Q 1453 -91 1209 -44 
Q 966 3 703 97 
z
M 1959 2075 
Q 2384 2075 2632 2365 
Q 2881 2656 2881 3163 
Q 2881 3666 2632 3958 
Q 2384 4250 1959 4250 
Q 1534 4250 1286 3958 
Q 1038 3666 1038 3163 
Q 1038 2656 1286 2365 
Q 1534 2075 1959 2075 
z
" id="DejaVuSans-39" transform="scale(0.015625)"/>
        <path d="M 1228 531 
L 3431 531 
L 3431 0 
L 469 0 
L 469 531 
Q 828 903 1448 1529 
Q 2069 2156 2228 2338 
Q 2531 2678 2651 2914 
Q 2772 3150 2772 3378 
Q 2772 3750 2511 3984 
Q 2250 4219 1831 4219 
Q 1534 4219 1204 4116 
Q 875 4013 500 3803 
L 500 4441 
Q 881 4594 1212 4672 
Q 1544 4750 1819 4750 
Q 2544 4750 2975 4387 
Q 3406 4025 3406 3419 
Q 3406 3131 3298 2873 
Q 3191 2616 2906 2266 
Q 2828 2175 2409 1742 
Q 1991 1309 1228 531 
z
" id="DejaVuSans-32" transform="scale(0.015625)"/>
       </defs>
       <use xlink:href="#DejaVuSans-31"/>
       <use x="63.623047" xlink:href="#DejaVuSans-39"/>
       <use x="127.246094" xlink:href="#DejaVuSans-68"/>
       <use x="190.625" xlink:href="#DejaVuSans-3a"/>
       <use x="224.316406" xlink:href="#DejaVuSans-32"/>
       <use x="287.939453" xlink:href="#DejaVuSans-35"/>
       <use x="351.5625" xlink:href="#DejaVuSans-6d"/>
      </g>
     </g>
    </g>
    <g id="text_7">
     <!-- Time (hour:minute) -->
     <g transform="translate(189.843594 316.706687)scale(0.1 -0.1)">
      <defs>
       <path d="M -19 4666 
L 3928 4666 
L 3928 4134 
L 2272 4134 
L 2272 0 
L 1638 0 
L 1638 4134 
L -19 4134 
L -19 4666 
z
" id="DejaVuSans-54" transform="scale(0.015625)"/>
       <path d="M 603 3500 
L 1178 3500 
L 1178 0 
L 603 0 
L 603 3500 
z
M 603 4863 
L 1178 4863 
L 1178 4134 
L 603 4134 
L 603 4863 
z
" id="DejaVuSans-69" transform="scale(0.015625)"/>
       <path d="M 3597 1894 
L 3597 1613 
L 953 1613 
Q 991 1019 1311 708 
Q 1631 397 2203 397 
Q 2534 397 2845 478 
Q 3156 559 3463 722 
L 3463 178 
Q 3153 47 2828 -22 
Q 2503 -91 2169 -91 
Q 1331 -91 842 396 
Q 353 884 353 1716 
Q 353 2575 817 3079 
Q 1281 3584 2069 3584 
Q 2775 3584 3186 3129 
Q 3597 2675 3597 1894 
z
M 3022 2063 
Q 3016 2534 2758 2815 
Q 2500 3097 2075 3097 
Q 1594 3097 1305 2825 
Q 1016 2553 972 2059 
L 3022 2063 
z
" id="DejaVuSans-65" transform="scale(0.015625)"/>
       <path id="DejaVuSans-20" transform="scale(0.015625)"/>
       <path d="M 1984 4856 
Q 1566 4138 1362 3434 
Q 1159 2731 1159 2009 
Q 1159 1288 1364 580 
Q 1569 -128 1984 -844 
L 1484 -844 
Q 1016 -109 783 600 
Q 550 1309 550 2009 
Q 550 2706 781 3412 
Q 1013 4119 1484 4856 
L 1984 4856 
z
" id="DejaVuSans-28" transform="scale(0.015625)"/>
       <path d="M 1959 3097 
Q 1497 3097 1228 2736 
Q 959 2375 959 1747 
Q 959 1119 1226 758 
Q 1494 397 1959 397 
Q 2419 397 2687 759 
Q 2956 1122 2956 1747 
Q 2956 2369 2687 2733 
Q 2419 3097 1959 3097 
z
M 1959 3584 
Q 2709 3584 3137 3096 
Q 3566 2609 3566 1747 
Q 3566 888 3137 398 
Q 2709 -91 1959 -91 
Q 1206 -91 779 398 
Q 353 888 353 1747 
Q 353 2609 779 3096 
Q 1206 3584 1959 3584 
z
" id="DejaVuSans-6f" transform="scale(0.015625)"/>
       <path d="M 544 1381 
L 544 3500 
L 1119 3500 
L 1119 1403 
Q 1119 906 1312 657 
Q 1506 409 1894 409 
Q 2359 409 2629 706 
Q 2900 1003 2900 1516 
L 2900 3500 
L 3475 3500 
L 3475 0 
L 2900 0 
L 2900 538 
Q 2691 219 2414 64 
Q 2138 -91 1772 -91 
Q 1169 -91 856 284 
Q 544 659 544 1381 
z
M 1991 3584 
L 1991 3584 
z
" id="DejaVuSans-75" transform="scale(0.015625)"/>
       <path d="M 2631 2963 
Q 2534 3019 2420 3045 
Q 2306 3072 2169 3072 
Q 1681 3072 1420 2755 
Q 1159 2438 1159 1844 
L 1159 0 
L 581 0 
L 581 3500 
L 1159 3500 
L 1159 2956 
Q 1341 3275 1631 3429 
Q 1922 3584 2338 3584 
Q 2397 3584 2469 3576 
Q 2541 3569 2628 3553 
L 2631 2963 
z
" id="DejaVuSans-72" transform="scale(0.015625)"/>
       <path d="M 3513 2113 
L 3513 0 
L 2938 0 
L 2938 2094 
Q 2938 2591 2744 2837 
Q 2550 3084 2163 3084 
Q 1697 3084 1428 2787 
Q 1159 2491 1159 1978 
L 1159 0 
L 581 0 
L 581 3500 
L 1159 3500 
L 1159 2956 
Q 1366 3272 1645 3428 
Q 1925 3584 2291 3584 
Q 2894 3584 3203 3211 
Q 3513 2838 3513 2113 
z
" id="DejaVuSans-6e" transform="scale(0.015625)"/>
       <path d="M 1172 4494 
L 1172 3500 
L 2356 3500 
L 2356 3053 
L 1172 3053 
L 1172 1153 
Q 1172 725 1289 603 
Q 1406 481 1766 481 
L 2356 481 
L 2356 0 
L 1766 0 
Q 1100 0 847 248 
Q 594 497 594 1153 
L 594 3053 
L 172 3053 
L 172 3500 
L 594 3500 
L 594 4494 
L 1172 4494 
z
" id="DejaVuSans-74" transform="scale(0.015625)"/>
       <path d="M 513 4856 
L 1013 4856 
Q 1481 4119 1714 3412 
Q 1947 2706 1947 2009 
Q 1947 1309 1714 600 
Q 1481 -109 1013 -844 
L 513 -844 
Q 928 -128 1133 580 
Q 1338 1288 1338 2009 
Q 1338 2731 1133 3434 
Q 928 4138 513 4856 
z
" id="DejaVuSans-29" transform="scale(0.015625)"/>
      </defs>
      <use xlink:href="#DejaVuSans-54"/>
      <use x="57.958984" xlink:href="#DejaVuSans-69"/>
      <use x="85.742188" xlink:href="#DejaVuSans-6d"/>
      <use x="183.154297" xlink:href="#DejaVuSans-65"/>
      <use x="244.677734" xlink:href="#DejaVuSans-20"/>
      <use x="276.464844" xlink:href="#DejaVuSans-28"/>
      <use x="315.478516" xlink:href="#DejaVuSans-68"/>
      <use x="378.857422" xlink:href="#DejaVuSans-6f"/>
      <use x="440.039062" xlink:href="#DejaVuSans-75"/>
      <use x="503.417969" xlink:href="#DejaVuSans-72"/>
      <use x="542.78125" xlink:href="#DejaVuSans-3a"/>
      <use x="576.472656" xlink:href="#DejaVuSans-6d"/>
      <use x="673.884766" xlink:href="#DejaVuSans-69"/>
      <use x="701.667969" xlink:href="#DejaVuSans-6e"/>
      <use x="765.046875" xlink:href="#DejaVuSans-75"/>
      <use x="828.425781" xlink:href="#DejaVuSans-74"/>
      <use x="867.634766" xlink:href="#DejaVuSans-65"/>
      <use x="929.158203" xlink:href="#DejaVuSans-29"/>
     </g>
    </g>
   </g>
   <g id="matplotlib.axis_2">
    <g id="ytick_1">
     <g id="line2d_7">
      <defs>
       <path d="M 0 0 
L -3.5 0 
" id="m75a91823ec" style="stroke:#000000;stroke-width:0.8;"/>
      </defs>
      <g>
       <use style="stroke:#000000;stroke-width:0.8;" x="59.690625" xlink:href="#m75a91823ec" y="278.608047"/>
      </g>
     </g>
     <g id="text_8">
      <!-- 43250 -->
      <g transform="translate(20.878125 282.407265)scale(0.1 -0.1)">
       <defs>
        <path d="M 2034 4250 
Q 1547 4250 1301 3770 
Q 1056 3291 1056 2328 
Q 1056 1369 1301 889 
Q 1547 409 2034 409 
Q 2525 409 2770 889 
Q 3016 1369 3016 2328 
Q 3016 3291 2770 3770 
Q 2525 4250 2034 4250 
z
M 2034 4750 
Q 2819 4750 3233 4129 
Q 3647 3509 3647 2328 
Q 3647 1150 3233 529 
Q 2819 -91 2034 -91 
Q 1250 -91 836 529 
Q 422 1150 422 2328 
Q 422 3509 836 4129 
Q 1250 4750 2034 4750 
z
" id="DejaVuSans-30" transform="scale(0.015625)"/>
       </defs>
       <use xlink:href="#DejaVuSans-34"/>
       <use x="63.623047" xlink:href="#DejaVuSans-33"/>
       <use x="127.246094" xlink:href="#DejaVuSans-32"/>
       <use x="190.869141" xlink:href="#DejaVuSans-35"/>
       <use x="254.492188" xlink:href="#DejaVuSans-30"/>
      </g>
     </g>
    </g>
    <g id="ytick_2">
     <g id="line2d_8">
      <g>
       <use style="stroke:#000000;stroke-width:0.8;" x="59.690625" xlink:href="#m75a91823ec" y="247.025801"/>
      </g>
     </g>
     <g id="text_9">
      <!-- 43500 -->
      <g transform="translate(20.878125 250.82502)scale(0.1 -0.1)">
       <use xlink:href="#DejaVuSans-34"/>
       <use x="63.623047" xlink:href="#DejaVuSans-33"/>
       <use x="127.246094" xlink:href="#DejaVuSans-35"/>
       <use x="190.869141" xlink:href="#DejaVuSans-30"/>
       <use x="254.492188" xlink:href="#DejaVuSans-30"/>
      </g>
     </g>
    </g>
    <g id="ytick_3">
     <g id="line2d_9">
      <g>
       <use style="stroke:#000000;stroke-width:0.8;" x="59.690625" xlink:href="#m75a91823ec" y="215.443556"/>
      </g>
     </g>
     <g id="text_10">
      <!-- 43750 -->
      <g transform="translate(20.878125 219.242775)scale(0.1 -0.1)">
       <use xlink:href="#DejaVuSans-34"/>
       <use x="63.623047" xlink:href="#DejaVuSans-33"/>
       <use x="127.246094" xlink:href="#DejaVuSans-37"/>
       <use x="190.869141" xlink:href="#DejaVuSans-35"/>
       <use x="254.492188" xlink:href="#DejaVuSans-30"/>
      </g>
     </g>
    </g>
    <g id="ytick_4">
     <g id="line2d_10">
      <g>
       <use style="stroke:#000000;stroke-width:0.8;" x="59.690625" xlink:href="#m75a91823ec" y="183.86131"/>
      </g>
     </g>
     <g id="text_11">
      <!-- 44000 -->
      <g transform="translate(20.878125 187.660529)scale(0.1 -0.1)">
       <use xlink:href="#DejaVuSans-34"/>
       <use x="63.623047" xlink:href="#DejaVuSans-34"/>
       <use x="127.246094" xlink:href="#DejaVuSans-30"/>
       <use x="190.869141" xlink:href="#DejaVuSans-30"/>
       <use x="254.492188" xlink:href="#DejaVuSans-30"/>
      </g>
     </g>
    </g>
    <g id="ytick_5">
     <g id="line2d_11">
      <g>
       <use style="stroke:#000000;stroke-width:0.8;" x="59.690625" xlink:href="#m75a91823ec" y="152.279065"/>
      </g>
     </g>
     <g id="text_12">
      <!-- 44250 -->
      <g transform="translate(20.878125 156.078284)scale(0.1 -0.1)">
       <use xlink:href="#DejaVuSans-34"/>
       <use x="63.623047" xlink:href="#DejaVuSans-34"/>
       <use x="127.246094" xlink:href="#DejaVuSans-32"/>
       <use x="190.869141" xlink:href="#DejaVuSans-35"/>
       <use x="254.492188" xlink:href="#DejaVuSans-30"/>
      </g>
     </g>
    </g>
    <g id="ytick_6">
     <g id="line2d_12">
      <g>
       <use style="stroke:#000000;stroke-width:0.8;" x="59.690625" xlink:href="#m75a91823ec" y="120.69682"/>
      </g>
     </g>
     <g id="text_13">
      <!-- 44500 -->
      <g transform="translate(20.878125 124.496038)scale(0.1 -0.1)">
       <use xlink:href="#DejaVuSans-34"/>
       <use x="63.623047" xlink:href="#DejaVuSans-34"/>
       <use x="127.246094" xlink:href="#DejaVuSans-35"/>
       <use x="190.869141" xlink:href="#DejaVuSans-30"/>
       <use x="254.492188" xlink:href="#DejaVuSans-30"/>
      </g>
     </g>
    </g>
    <g id="ytick_7">
     <g id="line2d_13">
      <g>
       <use style="stroke:#000000;stroke-width:0.8;" x="59.690625" xlink:href="#m75a91823ec" y="89.114574"/>
      </g>
     </g>
     <g id="text_14">
      <!-- 44750 -->
      <g transform="translate(20.878125 92.913793)scale(0.1 -0.1)">
       <use xlink:href="#DejaVuSans-34"/>
       <use x="63.623047" xlink:href="#DejaVuSans-34"/>
       <use x="127.246094" xlink:href="#DejaVuSans-37"/>
       <use x="190.869141" xlink:href="#DejaVuSans-35"/>
       <use x="254.492188" xlink:href="#DejaVuSans-30"/>
      </g>
     </g>
    </g>
    <g id="ytick_8">
     <g id="line2d_14">
      <g>
       <use style="stroke:#000000;stroke-width:0.8;" x="59.690625" xlink:href="#m75a91823ec" y="57.532329"/>
      </g>
     </g>
     <g id="text_15">
      <!-- 45000 -->
      <g transform="translate(20.878125 61.331547)scale(0.1 -0.1)">
       <use xlink:href="#DejaVuSans-34"/>
       <use x="63.623047" xlink:href="#DejaVuSans-35"/>
       <use x="127.246094" xlink:href="#DejaVuSans-30"/>
       <use x="190.869141" xlink:href="#DejaVuSans-30"/>
       <use x="254.492188" xlink:href="#DejaVuSans-30"/>
      </g>
     </g>
    </g>
    <g id="ytick_9">
     <g id="line2d_15">
      <g>
       <use style="stroke:#000000;stroke-width:0.8;" x="59.690625" xlink:href="#m75a91823ec" y="25.950083"/>
      </g>
     </g>
     <g id="text_16">
      <!-- 45250 -->
      <g transform="translate(20.878125 29.749302)scale(0.1 -0.1)">
       <use xlink:href="#DejaVuSans-34"/>
       <use x="63.623047" xlink:href="#DejaVuSans-35"/>
       <use x="127.246094" xlink:href="#DejaVuSans-32"/>
       <use x="190.869141" xlink:href="#DejaVuSans-35"/>
       <use x="254.492188" xlink:href="#DejaVuSans-30"/>
      </g>
     </g>
    </g>
    <g id="text_17">
     <!-- Code region coverage -->
     <g transform="translate(14.798438 210.379594)rotate(-90)scale(0.1 -0.1)">
      <defs>
       <path d="M 4122 4306 
L 4122 3641 
Q 3803 3938 3442 4084 
Q 3081 4231 2675 4231 
Q 1875 4231 1450 3742 
Q 1025 3253 1025 2328 
Q 1025 1406 1450 917 
Q 1875 428 2675 428 
Q 3081 428 3442 575 
Q 3803 722 4122 1019 
L 4122 359 
Q 3791 134 3420 21 
Q 3050 -91 2638 -91 
Q 1578 -91 968 557 
Q 359 1206 359 2328 
Q 359 3453 968 4101 
Q 1578 4750 2638 4750 
Q 3056 4750 3426 4639 
Q 3797 4528 4122 4306 
z
" id="DejaVuSans-43" transform="scale(0.015625)"/>
       <path d="M 2906 2969 
L 2906 4863 
L 3481 4863 
L 3481 0 
L 2906 0 
L 2906 525 
Q 2725 213 2448 61 
Q 2172 -91 1784 -91 
Q 1150 -91 751 415 
Q 353 922 353 1747 
Q 353 2572 751 3078 
Q 1150 3584 1784 3584 
Q 2172 3584 2448 3432 
Q 2725 3281 2906 2969 
z
M 947 1747 
Q 947 1113 1208 752 
Q 1469 391 1925 391 
Q 2381 391 2643 752 
Q 2906 1113 2906 1747 
Q 2906 2381 2643 2742 
Q 2381 3103 1925 3103 
Q 1469 3103 1208 2742 
Q 947 2381 947 1747 
z
" id="DejaVuSans-64" transform="scale(0.015625)"/>
       <path d="M 2906 1791 
Q 2906 2416 2648 2759 
Q 2391 3103 1925 3103 
Q 1463 3103 1205 2759 
Q 947 2416 947 1791 
Q 947 1169 1205 825 
Q 1463 481 1925 481 
Q 2391 481 2648 825 
Q 2906 1169 2906 1791 
z
M 3481 434 
Q 3481 -459 3084 -895 
Q 2688 -1331 1869 -1331 
Q 1566 -1331 1297 -1286 
Q 1028 -1241 775 -1147 
L 775 -588 
Q 1028 -725 1275 -790 
Q 1522 -856 1778 -856 
Q 2344 -856 2625 -561 
Q 2906 -266 2906 331 
L 2906 616 
Q 2728 306 2450 153 
Q 2172 0 1784 0 
Q 1141 0 747 490 
Q 353 981 353 1791 
Q 353 2603 747 3093 
Q 1141 3584 1784 3584 
Q 2172 3584 2450 3431 
Q 2728 3278 2906 2969 
L 2906 3500 
L 3481 3500 
L 3481 434 
z
" id="DejaVuSans-67" transform="scale(0.015625)"/>
       <path d="M 3122 3366 
L 3122 2828 
Q 2878 2963 2633 3030 
Q 2388 3097 2138 3097 
Q 1578 3097 1268 2742 
Q 959 2388 959 1747 
Q 959 1106 1268 751 
Q 1578 397 2138 397 
Q 2388 397 2633 464 
Q 2878 531 3122 666 
L 3122 134 
Q 2881 22 2623 -34 
Q 2366 -91 2075 -91 
Q 1284 -91 818 406 
Q 353 903 353 1747 
Q 353 2603 823 3093 
Q 1294 3584 2113 3584 
Q 2378 3584 2631 3529 
Q 2884 3475 3122 3366 
z
" id="DejaVuSans-63" transform="scale(0.015625)"/>
       <path d="M 191 3500 
L 800 3500 
L 1894 563 
L 2988 3500 
L 3597 3500 
L 2284 0 
L 1503 0 
L 191 3500 
z
" id="DejaVuSans-76" transform="scale(0.015625)"/>
       <path d="M 2194 1759 
Q 1497 1759 1228 1600 
Q 959 1441 959 1056 
Q 959 750 1161 570 
Q 1363 391 1709 391 
Q 2188 391 2477 730 
Q 2766 1069 2766 1631 
L 2766 1759 
L 2194 1759 
z
M 3341 1997 
L 3341 0 
L 2766 0 
L 2766 531 
Q 2569 213 2275 61 
Q 1981 -91 1556 -91 
Q 1019 -91 701 211 
Q 384 513 384 1019 
Q 384 1609 779 1909 
Q 1175 2209 1959 2209 
L 2766 2209 
L 2766 2266 
Q 2766 2663 2505 2880 
Q 2244 3097 1772 3097 
Q 1472 3097 1187 3025 
Q 903 2953 641 2809 
L 641 3341 
Q 956 3463 1253 3523 
Q 1550 3584 1831 3584 
Q 2591 3584 2966 3190 
Q 3341 2797 3341 1997 
z
" id="DejaVuSans-61" transform="scale(0.015625)"/>
      </defs>
      <use xlink:href="#DejaVuSans-43"/>
      <use x="69.824219" xlink:href="#DejaVuSans-6f"/>
      <use x="131.005859" xlink:href="#DejaVuSans-64"/>
      <use x="194.482422" xlink:href="#DejaVuSans-65"/>
      <use x="256.005859" xlink:href="#DejaVuSans-20"/>
      <use x="287.792969" xlink:href="#DejaVuSans-72"/>
      <use x="326.65625" xlink:href="#DejaVuSans-65"/>
      <use x="388.179688" xlink:href="#DejaVuSans-67"/>
      <use x="451.65625" xlink:href="#DejaVuSans-69"/>
      <use x="479.439453" xlink:href="#DejaVuSans-6f"/>
      <use x="540.621094" xlink:href="#DejaVuSans-6e"/>
      <use x="604" xlink:href="#DejaVuSans-20"/>
      <use x="635.787109" xlink:href="#DejaVuSans-63"/>
      <use x="690.767578" xlink:href="#DejaVuSans-6f"/>
      <use x="751.949219" xlink:href="#DejaVuSans-76"/>
      <use x="811.128906" xlink:href="#DejaVuSans-65"/>
      <use x="872.652344" xlink:href="#DejaVuSans-72"/>
      <use x="913.765625" xlink:href="#DejaVuSans-61"/>
      <use x="975.044922" xlink:href="#DejaVuSans-67"/>
      <use x="1038.521484" xlink:href="#DejaVuSans-65"/>
     </g>
    </g>
   </g>
   <g id="line2d_16">
    <path clip-path="url(#pbd05b95154)" d="M 75.923352 252.015796 
L 79.490985 191.567378 
L 83.058617 178.429164 
L 86.626249 186.135232 
L 90.193882 183.924475 
L 93.761514 153.668684 
L 97.329146 149.752485 
L 100.896779 141.920088 
L 104.464411 141.66743 
L 108.032044 137.624903 
L 111.599676 131.182125 
L 115.167308 124.613018 
L 118.734941 124.36036 
L 122.302573 123.476057 
L 125.870205 121.707451 
L 129.437838 121.707451 
L 133.00547 120.444162 
L 136.573103 120.191504 
L 140.140735 118.296569 
L 143.708367 114.38037 
L 147.276 113.496068 
L 150.843632 112.990752 
L 154.411264 112.990752 
L 157.978897 106.674303 
L 161.546529 106.295316 
L 165.114161 105.537342 
L 168.681794 104.779368 
L 172.249426 104.653039 
L 175.817059 102.126459 
L 179.384691 101.873801 
L 182.952323 92.525457 
L 186.519956 75.597373 
L 190.087588 78.881927 
L 193.65522 73.44978 
L 197.222853 73.323451 
L 200.790485 72.186491 
L 204.358118 72.186491 
L 207.92575 72.060162 
L 211.493382 74.965728 
L 215.061015 71.681175 
L 218.628647 71.681175 
L 222.196279 71.681175 
L 225.763912 73.639274 
L 229.331544 73.512945 
L 232.899176 71.175859 
L 236.466809 71.04953 
L 240.034441 70.291556 
L 243.602074 70.165227 
L 247.169706 70.165227 
L 250.737338 66.628015 
L 254.304971 69.596746 
L 257.872603 65.870041 
L 261.440235 65.491055 
L 265.007868 65.491055 
L 268.5755 64.480423 
L 272.143132 64.480423 
L 275.710765 64.480423 
L 279.278397 64.101436 
L 282.84603 63.59612 
L 286.413662 63.59612 
L 289.981294 63.59612 
L 293.548927 63.343462 
L 297.116559 63.343462 
L 300.684191 57.532329 
L 304.251824 57.532329 
L 307.819456 57.532329 
L 311.387089 57.406 
L 314.954721 56.521697 
L 318.522353 53.363472 
L 322.089986 50.331577 
L 325.657618 50.205248 
L 329.22525 49.826261 
L 332.792883 49.826261 
L 336.360515 49.826261 
L 339.928147 47.804997 
L 343.49578 47.552339 
L 347.063412 47.552339 
L 350.631045 45.910062 
L 354.198677 45.025759 
L 357.766309 44.89943 
L 361.333942 44.267786 
L 364.901574 43.636141 
L 368.469206 42.372851 
L 372.036839 42.372851 
L 375.604471 42.372851 
L 379.172104 42.372851 
L 382.739736 40.477916 
L 386.307368 39.467284 
L 389.875001 39.467284 
L 393.442633 38.961968 
L 397.010265 38.961968 
L 400.577898 38.961968 
" style="fill:none;stroke:#98df8a;stroke-linecap:square;stroke-width:1.5;"/>
    <defs>
     <path d="M -0 3 
L 3 -3 
L -3 -3 
z
" id="m169e90837c" style="stroke:#ffffff;stroke-linejoin:miter;stroke-width:0.75;"/>
    </defs>
    <g clip-path="url(#pbd05b95154)">
     <use style="fill:#98df8a;stroke:#ffffff;stroke-linejoin:miter;stroke-width:0.75;" x="75.923352" xlink:href="#m169e90837c" y="252.015796"/>
     <use style="fill:#98df8a;stroke:#ffffff;stroke-linejoin:miter;stroke-width:0.75;" x="79.490985" xlink:href="#m169e90837c" y="191.567378"/>
     <use style="fill:#98df8a;stroke:#ffffff;stroke-linejoin:miter;stroke-width:0.75;" x="83.058617" xlink:href="#m169e90837c" y="178.429164"/>
     <use style="fill:#98df8a;stroke:#ffffff;stroke-linejoin:miter;stroke-width:0.75;" x="86.626249" xlink:href="#m169e90837c" y="186.135232"/>
     <use style="fill:#98df8a;stroke:#ffffff;stroke-linejoin:miter;stroke-width:0.75;" x="90.193882" xlink:href="#m169e90837c" y="183.924475"/>
     <use style="fill:#98df8a;stroke:#ffffff;stroke-linejoin:miter;stroke-width:0.75;" x="93.761514" xlink:href="#m169e90837c" y="153.668684"/>
     <use style="fill:#98df8a;stroke:#ffffff;stroke-linejoin:miter;stroke-width:0.75;" x="97.329146" xlink:href="#m169e90837c" y="149.752485"/>
     <use style="fill:#98df8a;stroke:#ffffff;stroke-linejoin:miter;stroke-width:0.75;" x="100.896779" xlink:href="#m169e90837c" y="141.920088"/>
     <use style="fill:#98df8a;stroke:#ffffff;stroke-linejoin:miter;stroke-width:0.75;" x="104.464411" xlink:href="#m169e90837c" y="141.66743"/>
     <use style="fill:#98df8a;stroke:#ffffff;stroke-linejoin:miter;stroke-width:0.75;" x="108.032044" xlink:href="#m169e90837c" y="137.624903"/>
     <use style="fill:#98df8a;stroke:#ffffff;stroke-linejoin:miter;stroke-width:0.75;" x="111.599676" xlink:href="#m169e90837c" y="131.182125"/>
     <use style="fill:#98df8a;stroke:#ffffff;stroke-linejoin:miter;stroke-width:0.75;" x="115.167308" xlink:href="#m169e90837c" y="124.613018"/>
     <use style="fill:#98df8a;stroke:#ffffff;stroke-linejoin:miter;stroke-width:0.75;" x="118.734941" xlink:href="#m169e90837c" y="124.36036"/>
     <use style="fill:#98df8a;stroke:#ffffff;stroke-linejoin:miter;stroke-width:0.75;" x="122.302573" xlink:href="#m169e90837c" y="123.476057"/>
     <use style="fill:#98df8a;stroke:#ffffff;stroke-linejoin:miter;stroke-width:0.75;" x="125.870205" xlink:href="#m169e90837c" y="121.707451"/>
     <use style="fill:#98df8a;stroke:#ffffff;stroke-linejoin:miter;stroke-width:0.75;" x="129.437838" xlink:href="#m169e90837c" y="121.707451"/>
     <use style="fill:#98df8a;stroke:#ffffff;stroke-linejoin:miter;stroke-width:0.75;" x="133.00547" xlink:href="#m169e90837c" y="120.444162"/>
     <use style="fill:#98df8a;stroke:#ffffff;stroke-linejoin:miter;stroke-width:0.75;" x="136.573103" xlink:href="#m169e90837c" y="120.191504"/>
     <use style="fill:#98df8a;stroke:#ffffff;stroke-linejoin:miter;stroke-width:0.75;" x="140.140735" xlink:href="#m169e90837c" y="118.296569"/>
     <use style="fill:#98df8a;stroke:#ffffff;stroke-linejoin:miter;stroke-width:0.75;" x="143.708367" xlink:href="#m169e90837c" y="114.38037"/>
     <use style="fill:#98df8a;stroke:#ffffff;stroke-linejoin:miter;stroke-width:0.75;" x="147.276" xlink:href="#m169e90837c" y="113.496068"/>
     <use style="fill:#98df8a;stroke:#ffffff;stroke-linejoin:miter;stroke-width:0.75;" x="150.843632" xlink:href="#m169e90837c" y="112.990752"/>
     <use style="fill:#98df8a;stroke:#ffffff;stroke-linejoin:miter;stroke-width:0.75;" x="154.411264" xlink:href="#m169e90837c" y="112.990752"/>
     <use style="fill:#98df8a;stroke:#ffffff;stroke-linejoin:miter;stroke-width:0.75;" x="157.978897" xlink:href="#m169e90837c" y="106.674303"/>
     <use style="fill:#98df8a;stroke:#ffffff;stroke-linejoin:miter;stroke-width:0.75;" x="161.546529" xlink:href="#m169e90837c" y="106.295316"/>
     <use style="fill:#98df8a;stroke:#ffffff;stroke-linejoin:miter;stroke-width:0.75;" x="165.114161" xlink:href="#m169e90837c" y="105.537342"/>
     <use style="fill:#98df8a;stroke:#ffffff;stroke-linejoin:miter;stroke-width:0.75;" x="168.681794" xlink:href="#m169e90837c" y="104.779368"/>
     <use style="fill:#98df8a;stroke:#ffffff;stroke-linejoin:miter;stroke-width:0.75;" x="172.249426" xlink:href="#m169e90837c" y="104.653039"/>
     <use style="fill:#98df8a;stroke:#ffffff;stroke-linejoin:miter;stroke-width:0.75;" x="175.817059" xlink:href="#m169e90837c" y="102.126459"/>
     <use style="fill:#98df8a;stroke:#ffffff;stroke-linejoin:miter;stroke-width:0.75;" x="179.384691" xlink:href="#m169e90837c" y="101.873801"/>
     <use style="fill:#98df8a;stroke:#ffffff;stroke-linejoin:miter;stroke-width:0.75;" x="182.952323" xlink:href="#m169e90837c" y="92.525457"/>
     <use style="fill:#98df8a;stroke:#ffffff;stroke-linejoin:miter;stroke-width:0.75;" x="186.519956" xlink:href="#m169e90837c" y="75.597373"/>
     <use style="fill:#98df8a;stroke:#ffffff;stroke-linejoin:miter;stroke-width:0.75;" x="190.087588" xlink:href="#m169e90837c" y="78.881927"/>
     <use style="fill:#98df8a;stroke:#ffffff;stroke-linejoin:miter;stroke-width:0.75;" x="193.65522" xlink:href="#m169e90837c" y="73.44978"/>
     <use style="fill:#98df8a;stroke:#ffffff;stroke-linejoin:miter;stroke-width:0.75;" x="197.222853" xlink:href="#m169e90837c" y="73.323451"/>
     <use style="fill:#98df8a;stroke:#ffffff;stroke-linejoin:miter;stroke-width:0.75;" x="200.790485" xlink:href="#m169e90837c" y="72.186491"/>
     <use style="fill:#98df8a;stroke:#ffffff;stroke-linejoin:miter;stroke-width:0.75;" x="204.358118" xlink:href="#m169e90837c" y="72.186491"/>
     <use style="fill:#98df8a;stroke:#ffffff;stroke-linejoin:miter;stroke-width:0.75;" x="207.92575" xlink:href="#m169e90837c" y="72.060162"/>
     <use style="fill:#98df8a;stroke:#ffffff;stroke-linejoin:miter;stroke-width:0.75;" x="211.493382" xlink:href="#m169e90837c" y="74.965728"/>
     <use style="fill:#98df8a;stroke:#ffffff;stroke-linejoin:miter;stroke-width:0.75;" x="215.061015" xlink:href="#m169e90837c" y="71.681175"/>
     <use style="fill:#98df8a;stroke:#ffffff;stroke-linejoin:miter;stroke-width:0.75;" x="218.628647" xlink:href="#m169e90837c" y="71.681175"/>
     <use style="fill:#98df8a;stroke:#ffffff;stroke-linejoin:miter;stroke-width:0.75;" x="222.196279" xlink:href="#m169e90837c" y="71.681175"/>
     <use style="fill:#98df8a;stroke:#ffffff;stroke-linejoin:miter;stroke-width:0.75;" x="225.763912" xlink:href="#m169e90837c" y="73.639274"/>
     <use style="fill:#98df8a;stroke:#ffffff;stroke-linejoin:miter;stroke-width:0.75;" x="229.331544" xlink:href="#m169e90837c" y="73.512945"/>
     <use style="fill:#98df8a;stroke:#ffffff;stroke-linejoin:miter;stroke-width:0.75;" x="232.899176" xlink:href="#m169e90837c" y="71.175859"/>
     <use style="fill:#98df8a;stroke:#ffffff;stroke-linejoin:miter;stroke-width:0.75;" x="236.466809" xlink:href="#m169e90837c" y="71.04953"/>
     <use style="fill:#98df8a;stroke:#ffffff;stroke-linejoin:miter;stroke-width:0.75;" x="240.034441" xlink:href="#m169e90837c" y="70.291556"/>
     <use style="fill:#98df8a;stroke:#ffffff;stroke-linejoin:miter;stroke-width:0.75;" x="243.602074" xlink:href="#m169e90837c" y="70.165227"/>
     <use style="fill:#98df8a;stroke:#ffffff;stroke-linejoin:miter;stroke-width:0.75;" x="247.169706" xlink:href="#m169e90837c" y="70.165227"/>
     <use style="fill:#98df8a;stroke:#ffffff;stroke-linejoin:miter;stroke-width:0.75;" x="250.737338" xlink:href="#m169e90837c" y="66.628015"/>
     <use style="fill:#98df8a;stroke:#ffffff;stroke-linejoin:miter;stroke-width:0.75;" x="254.304971" xlink:href="#m169e90837c" y="69.596746"/>
     <use style="fill:#98df8a;stroke:#ffffff;stroke-linejoin:miter;stroke-width:0.75;" x="257.872603" xlink:href="#m169e90837c" y="65.870041"/>
     <use style="fill:#98df8a;stroke:#ffffff;stroke-linejoin:miter;stroke-width:0.75;" x="261.440235" xlink:href="#m169e90837c" y="65.491055"/>
     <use style="fill:#98df8a;stroke:#ffffff;stroke-linejoin:miter;stroke-width:0.75;" x="265.007868" xlink:href="#m169e90837c" y="65.491055"/>
     <use style="fill:#98df8a;stroke:#ffffff;stroke-linejoin:miter;stroke-width:0.75;" x="268.5755" xlink:href="#m169e90837c" y="64.480423"/>
     <use style="fill:#98df8a;stroke:#ffffff;stroke-linejoin:miter;stroke-width:0.75;" x="272.143132" xlink:href="#m169e90837c" y="64.480423"/>
     <use style="fill:#98df8a;stroke:#ffffff;stroke-linejoin:miter;stroke-width:0.75;" x="275.710765" xlink:href="#m169e90837c" y="64.480423"/>
     <use style="fill:#98df8a;stroke:#ffffff;stroke-linejoin:miter;stroke-width:0.75;" x="279.278397" xlink:href="#m169e90837c" y="64.101436"/>
     <use style="fill:#98df8a;stroke:#ffffff;stroke-linejoin:miter;stroke-width:0.75;" x="282.84603" xlink:href="#m169e90837c" y="63.59612"/>
     <use style="fill:#98df8a;stroke:#ffffff;stroke-linejoin:miter;stroke-width:0.75;" x="286.413662" xlink:href="#m169e90837c" y="63.59612"/>
     <use style="fill:#98df8a;stroke:#ffffff;stroke-linejoin:miter;stroke-width:0.75;" x="289.981294" xlink:href="#m169e90837c" y="63.59612"/>
     <use style="fill:#98df8a;stroke:#ffffff;stroke-linejoin:miter;stroke-width:0.75;" x="293.548927" xlink:href="#m169e90837c" y="63.343462"/>
     <use style="fill:#98df8a;stroke:#ffffff;stroke-linejoin:miter;stroke-width:0.75;" x="297.116559" xlink:href="#m169e90837c" y="63.343462"/>
     <use style="fill:#98df8a;stroke:#ffffff;stroke-linejoin:miter;stroke-width:0.75;" x="300.684191" xlink:href="#m169e90837c" y="57.532329"/>
     <use style="fill:#98df8a;stroke:#ffffff;stroke-linejoin:miter;stroke-width:0.75;" x="304.251824" xlink:href="#m169e90837c" y="57.532329"/>
     <use style="fill:#98df8a;stroke:#ffffff;stroke-linejoin:miter;stroke-width:0.75;" x="307.819456" xlink:href="#m169e90837c" y="57.532329"/>
     <use style="fill:#98df8a;stroke:#ffffff;stroke-linejoin:miter;stroke-width:0.75;" x="311.387089" xlink:href="#m169e90837c" y="57.406"/>
     <use style="fill:#98df8a;stroke:#ffffff;stroke-linejoin:miter;stroke-width:0.75;" x="314.954721" xlink:href="#m169e90837c" y="56.521697"/>
     <use style="fill:#98df8a;stroke:#ffffff;stroke-linejoin:miter;stroke-width:0.75;" x="318.522353" xlink:href="#m169e90837c" y="53.363472"/>
     <use style="fill:#98df8a;stroke:#ffffff;stroke-linejoin:miter;stroke-width:0.75;" x="322.089986" xlink:href="#m169e90837c" y="50.331577"/>
     <use style="fill:#98df8a;stroke:#ffffff;stroke-linejoin:miter;stroke-width:0.75;" x="325.657618" xlink:href="#m169e90837c" y="50.205248"/>
     <use style="fill:#98df8a;stroke:#ffffff;stroke-linejoin:miter;stroke-width:0.75;" x="329.22525" xlink:href="#m169e90837c" y="49.826261"/>
     <use style="fill:#98df8a;stroke:#ffffff;stroke-linejoin:miter;stroke-width:0.75;" x="332.792883" xlink:href="#m169e90837c" y="49.826261"/>
     <use style="fill:#98df8a;stroke:#ffffff;stroke-linejoin:miter;stroke-width:0.75;" x="336.360515" xlink:href="#m169e90837c" y="49.826261"/>
     <use style="fill:#98df8a;stroke:#ffffff;stroke-linejoin:miter;stroke-width:0.75;" x="339.928147" xlink:href="#m169e90837c" y="47.804997"/>
     <use style="fill:#98df8a;stroke:#ffffff;stroke-linejoin:miter;stroke-width:0.75;" x="343.49578" xlink:href="#m169e90837c" y="47.552339"/>
     <use style="fill:#98df8a;stroke:#ffffff;stroke-linejoin:miter;stroke-width:0.75;" x="347.063412" xlink:href="#m169e90837c" y="47.552339"/>
     <use style="fill:#98df8a;stroke:#ffffff;stroke-linejoin:miter;stroke-width:0.75;" x="350.631045" xlink:href="#m169e90837c" y="45.910062"/>
     <use style="fill:#98df8a;stroke:#ffffff;stroke-linejoin:miter;stroke-width:0.75;" x="354.198677" xlink:href="#m169e90837c" y="45.025759"/>
     <use style="fill:#98df8a;stroke:#ffffff;stroke-linejoin:miter;stroke-width:0.75;" x="357.766309" xlink:href="#m169e90837c" y="44.89943"/>
     <use style="fill:#98df8a;stroke:#ffffff;stroke-linejoin:miter;stroke-width:0.75;" x="361.333942" xlink:href="#m169e90837c" y="44.267786"/>
     <use style="fill:#98df8a;stroke:#ffffff;stroke-linejoin:miter;stroke-width:0.75;" x="364.901574" xlink:href="#m169e90837c" y="43.636141"/>
     <use style="fill:#98df8a;stroke:#ffffff;stroke-linejoin:miter;stroke-width:0.75;" x="368.469206" xlink:href="#m169e90837c" y="42.372851"/>
     <use style="fill:#98df8a;stroke:#ffffff;stroke-linejoin:miter;stroke-width:0.75;" x="372.036839" xlink:href="#m169e90837c" y="42.372851"/>
     <use style="fill:#98df8a;stroke:#ffffff;stroke-linejoin:miter;stroke-width:0.75;" x="375.604471" xlink:href="#m169e90837c" y="42.372851"/>
     <use style="fill:#98df8a;stroke:#ffffff;stroke-linejoin:miter;stroke-width:0.75;" x="379.172104" xlink:href="#m169e90837c" y="42.372851"/>
     <use style="fill:#98df8a;stroke:#ffffff;stroke-linejoin:miter;stroke-width:0.75;" x="382.739736" xlink:href="#m169e90837c" y="40.477916"/>
     <use style="fill:#98df8a;stroke:#ffffff;stroke-linejoin:miter;stroke-width:0.75;" x="386.307368" xlink:href="#m169e90837c" y="39.467284"/>
     <use style="fill:#98df8a;stroke:#ffffff;stroke-linejoin:miter;stroke-width:0.75;" x="389.875001" xlink:href="#m169e90837c" y="39.467284"/>
     <use style="fill:#98df8a;stroke:#ffffff;stroke-linejoin:miter;stroke-width:0.75;" x="393.442633" xlink:href="#m169e90837c" y="38.961968"/>
     <use style="fill:#98df8a;stroke:#ffffff;stroke-linejoin:miter;stroke-width:0.75;" x="397.010265" xlink:href="#m169e90837c" y="38.961968"/>
     <use style="fill:#98df8a;stroke:#ffffff;stroke-linejoin:miter;stroke-width:0.75;" x="400.577898" xlink:href="#m169e90837c" y="38.961968"/>
    </g>
   </g>
   <g id="line2d_17">
    <path clip-path="url(#pbd05b95154)" d="M 75.923352 241.340997 
L 79.490985 200.915723 
L 83.058617 182.598021 
L 86.626249 176.028914 
L 90.193882 171.165248 
L 93.761514 169.901958 
L 97.329146 163.396015 
L 100.896779 162.006397 
L 104.464411 156.447921 
L 108.032044 157.458553 
L 111.599676 148.110209 
L 115.167308 155.058303 
L 118.734941 154.868809 
L 122.302573 141.035786 
L 125.870205 136.424778 
L 129.437838 146.404767 
L 133.00547 146.341603 
L 136.573103 136.424778 
L 140.140735 143.436036 
L 143.708367 140.909457 
L 147.276 143.057049 
L 150.843632 135.287817 
L 154.411264 142.741227 
L 157.978897 132.508579 
L 161.546529 140.909457 
L 165.114161 135.982626 
L 168.681794 121.391629 
L 172.249426 116.022647 
L 175.817059 116.654292 
L 179.384691 114.38037 
L 182.952323 113.117081 
L 186.519956 111.158981 
L 190.087588 110.590501 
L 193.65522 110.401008 
L 197.222853 110.401008 
L 200.790485 108.569237 
L 204.358118 109.074553 
L 207.92575 108.569237 
L 211.493382 108.316579 
L 215.061015 108.316579 
L 218.628647 106.168987 
L 222.196279 106.674303 
L 225.763912 105.347848 
L 229.331544 104.400381 
L 232.899176 106.295316 
L 236.466809 104.905697 
L 240.034441 104.400381 
L 243.602074 104.589874 
L 247.169706 104.147723 
L 250.737338 103.452914 
L 254.304971 102.758104 
L 257.872603 99.852538 
L 261.440235 100.989498 
L 265.007868 99.726209 
L 268.5755 99.663044 
L 272.143132 98.90507 
L 275.710765 98.020767 
L 279.278397 98.841906 
L 282.84603 93.788746 
L 286.413662 94.609885 
L 289.981294 93.915075 
L 293.548927 93.030773 
L 297.116559 92.778115 
L 300.684191 88.861916 
L 304.251824 83.42977 
L 307.819456 83.42977 
L 311.387089 77.492308 
L 314.954721 73.891932 
L 318.522353 73.702438 
L 322.089986 76.355347 
L 325.657618 70.038898 
L 329.22525 73.070793 
L 332.792883 73.070793 
L 336.360515 69.154595 
L 339.928147 65.743712 
L 343.49578 65.491055 
L 347.063412 65.491055 
L 350.631045 65.554219 
L 354.198677 63.217133 
L 357.766309 64.354094 
L 361.333942 64.227765 
L 364.901574 64.227765 
L 368.469206 63.722449 
L 372.036839 63.722449 
L 375.604471 63.722449 
L 379.172104 63.722449 
L 382.739736 62.774981 
L 386.307368 62.143336 
L 389.875001 61.448527 
L 393.442633 59.111441 
L 397.010265 61.574856 
L 400.577898 59.048276 
" style="fill:none;stroke:#1f77b4;stroke-linecap:square;stroke-width:1.5;"/>
    <defs>
     <path d="M 0 3 
C 0.795609 3 1.55874 2.683901 2.12132 2.12132 
C 2.683901 1.55874 3 0.795609 3 0 
C 3 -0.795609 2.683901 -1.55874 2.12132 -2.12132 
C 1.55874 -2.683901 0.795609 -3 0 -3 
C -0.795609 -3 -1.55874 -2.683901 -2.12132 -2.12132 
C -2.683901 -1.55874 -3 -0.795609 -3 0 
C -3 0.795609 -2.683901 1.55874 -2.12132 2.12132 
C -1.55874 2.683901 -0.795609 3 0 3 
z
" id="mfc91b8e765" style="stroke:#ffffff;stroke-width:0.75;"/>
    </defs>
    <g clip-path="url(#pbd05b95154)">
     <use style="fill:#1f77b4;stroke:#ffffff;stroke-width:0.75;" x="75.923352" xlink:href="#mfc91b8e765" y="241.340997"/>
     <use style="fill:#1f77b4;stroke:#ffffff;stroke-width:0.75;" x="79.490985" xlink:href="#mfc91b8e765" y="200.915723"/>
     <use style="fill:#1f77b4;stroke:#ffffff;stroke-width:0.75;" x="83.058617" xlink:href="#mfc91b8e765" y="182.598021"/>
     <use style="fill:#1f77b4;stroke:#ffffff;stroke-width:0.75;" x="86.626249" xlink:href="#mfc91b8e765" y="176.028914"/>
     <use style="fill:#1f77b4;stroke:#ffffff;stroke-width:0.75;" x="90.193882" xlink:href="#mfc91b8e765" y="171.165248"/>
     <use style="fill:#1f77b4;stroke:#ffffff;stroke-width:0.75;" x="93.761514" xlink:href="#mfc91b8e765" y="169.901958"/>
     <use style="fill:#1f77b4;stroke:#ffffff;stroke-width:0.75;" x="97.329146" xlink:href="#mfc91b8e765" y="163.396015"/>
     <use style="fill:#1f77b4;stroke:#ffffff;stroke-width:0.75;" x="100.896779" xlink:href="#mfc91b8e765" y="162.006397"/>
     <use style="fill:#1f77b4;stroke:#ffffff;stroke-width:0.75;" x="104.464411" xlink:href="#mfc91b8e765" y="156.447921"/>
     <use style="fill:#1f77b4;stroke:#ffffff;stroke-width:0.75;" x="108.032044" xlink:href="#mfc91b8e765" y="157.458553"/>
     <use style="fill:#1f77b4;stroke:#ffffff;stroke-width:0.75;" x="111.599676" xlink:href="#mfc91b8e765" y="148.110209"/>
     <use style="fill:#1f77b4;stroke:#ffffff;stroke-width:0.75;" x="115.167308" xlink:href="#mfc91b8e765" y="155.058303"/>
     <use style="fill:#1f77b4;stroke:#ffffff;stroke-width:0.75;" x="118.734941" xlink:href="#mfc91b8e765" y="154.868809"/>
     <use style="fill:#1f77b4;stroke:#ffffff;stroke-width:0.75;" x="122.302573" xlink:href="#mfc91b8e765" y="141.035786"/>
     <use style="fill:#1f77b4;stroke:#ffffff;stroke-width:0.75;" x="125.870205" xlink:href="#mfc91b8e765" y="136.424778"/>
     <use style="fill:#1f77b4;stroke:#ffffff;stroke-width:0.75;" x="129.437838" xlink:href="#mfc91b8e765" y="146.404767"/>
     <use style="fill:#1f77b4;stroke:#ffffff;stroke-width:0.75;" x="133.00547" xlink:href="#mfc91b8e765" y="146.341603"/>
     <use style="fill:#1f77b4;stroke:#ffffff;stroke-width:0.75;" x="136.573103" xlink:href="#mfc91b8e765" y="136.424778"/>
     <use style="fill:#1f77b4;stroke:#ffffff;stroke-width:0.75;" x="140.140735" xlink:href="#mfc91b8e765" y="143.436036"/>
     <use style="fill:#1f77b4;stroke:#ffffff;stroke-width:0.75;" x="143.708367" xlink:href="#mfc91b8e765" y="140.909457"/>
     <use style="fill:#1f77b4;stroke:#ffffff;stroke-width:0.75;" x="147.276" xlink:href="#mfc91b8e765" y="143.057049"/>
     <use style="fill:#1f77b4;stroke:#ffffff;stroke-width:0.75;" x="150.843632" xlink:href="#mfc91b8e765" y="135.287817"/>
     <use style="fill:#1f77b4;stroke:#ffffff;stroke-width:0.75;" x="154.411264" xlink:href="#mfc91b8e765" y="142.741227"/>
     <use style="fill:#1f77b4;stroke:#ffffff;stroke-width:0.75;" x="157.978897" xlink:href="#mfc91b8e765" y="132.508579"/>
     <use style="fill:#1f77b4;stroke:#ffffff;stroke-width:0.75;" x="161.546529" xlink:href="#mfc91b8e765" y="140.909457"/>
     <use style="fill:#1f77b4;stroke:#ffffff;stroke-width:0.75;" x="165.114161" xlink:href="#mfc91b8e765" y="135.982626"/>
     <use style="fill:#1f77b4;stroke:#ffffff;stroke-width:0.75;" x="168.681794" xlink:href="#mfc91b8e765" y="121.391629"/>
     <use style="fill:#1f77b4;stroke:#ffffff;stroke-width:0.75;" x="172.249426" xlink:href="#mfc91b8e765" y="116.022647"/>
     <use style="fill:#1f77b4;stroke:#ffffff;stroke-width:0.75;" x="175.817059" xlink:href="#mfc91b8e765" y="116.654292"/>
     <use style="fill:#1f77b4;stroke:#ffffff;stroke-width:0.75;" x="179.384691" xlink:href="#mfc91b8e765" y="114.38037"/>
     <use style="fill:#1f77b4;stroke:#ffffff;stroke-width:0.75;" x="182.952323" xlink:href="#mfc91b8e765" y="113.117081"/>
     <use style="fill:#1f77b4;stroke:#ffffff;stroke-width:0.75;" x="186.519956" xlink:href="#mfc91b8e765" y="111.158981"/>
     <use style="fill:#1f77b4;stroke:#ffffff;stroke-width:0.75;" x="190.087588" xlink:href="#mfc91b8e765" y="110.590501"/>
     <use style="fill:#1f77b4;stroke:#ffffff;stroke-width:0.75;" x="193.65522" xlink:href="#mfc91b8e765" y="110.401008"/>
     <use style="fill:#1f77b4;stroke:#ffffff;stroke-width:0.75;" x="197.222853" xlink:href="#mfc91b8e765" y="110.401008"/>
     <use style="fill:#1f77b4;stroke:#ffffff;stroke-width:0.75;" x="200.790485" xlink:href="#mfc91b8e765" y="108.569237"/>
     <use style="fill:#1f77b4;stroke:#ffffff;stroke-width:0.75;" x="204.358118" xlink:href="#mfc91b8e765" y="109.074553"/>
     <use style="fill:#1f77b4;stroke:#ffffff;stroke-width:0.75;" x="207.92575" xlink:href="#mfc91b8e765" y="108.569237"/>
     <use style="fill:#1f77b4;stroke:#ffffff;stroke-width:0.75;" x="211.493382" xlink:href="#mfc91b8e765" y="108.316579"/>
     <use style="fill:#1f77b4;stroke:#ffffff;stroke-width:0.75;" x="215.061015" xlink:href="#mfc91b8e765" y="108.316579"/>
     <use style="fill:#1f77b4;stroke:#ffffff;stroke-width:0.75;" x="218.628647" xlink:href="#mfc91b8e765" y="106.168987"/>
     <use style="fill:#1f77b4;stroke:#ffffff;stroke-width:0.75;" x="222.196279" xlink:href="#mfc91b8e765" y="106.674303"/>
     <use style="fill:#1f77b4;stroke:#ffffff;stroke-width:0.75;" x="225.763912" xlink:href="#mfc91b8e765" y="105.347848"/>
     <use style="fill:#1f77b4;stroke:#ffffff;stroke-width:0.75;" x="229.331544" xlink:href="#mfc91b8e765" y="104.400381"/>
     <use style="fill:#1f77b4;stroke:#ffffff;stroke-width:0.75;" x="232.899176" xlink:href="#mfc91b8e765" y="106.295316"/>
     <use style="fill:#1f77b4;stroke:#ffffff;stroke-width:0.75;" x="236.466809" xlink:href="#mfc91b8e765" y="104.905697"/>
     <use style="fill:#1f77b4;stroke:#ffffff;stroke-width:0.75;" x="240.034441" xlink:href="#mfc91b8e765" y="104.400381"/>
     <use style="fill:#1f77b4;stroke:#ffffff;stroke-width:0.75;" x="243.602074" xlink:href="#mfc91b8e765" y="104.589874"/>
     <use style="fill:#1f77b4;stroke:#ffffff;stroke-width:0.75;" x="247.169706" xlink:href="#mfc91b8e765" y="104.147723"/>
     <use style="fill:#1f77b4;stroke:#ffffff;stroke-width:0.75;" x="250.737338" xlink:href="#mfc91b8e765" y="103.452914"/>
     <use style="fill:#1f77b4;stroke:#ffffff;stroke-width:0.75;" x="254.304971" xlink:href="#mfc91b8e765" y="102.758104"/>
     <use style="fill:#1f77b4;stroke:#ffffff;stroke-width:0.75;" x="257.872603" xlink:href="#mfc91b8e765" y="99.852538"/>
     <use style="fill:#1f77b4;stroke:#ffffff;stroke-width:0.75;" x="261.440235" xlink:href="#mfc91b8e765" y="100.989498"/>
     <use style="fill:#1f77b4;stroke:#ffffff;stroke-width:0.75;" x="265.007868" xlink:href="#mfc91b8e765" y="99.726209"/>
     <use style="fill:#1f77b4;stroke:#ffffff;stroke-width:0.75;" x="268.5755" xlink:href="#mfc91b8e765" y="99.663044"/>
     <use style="fill:#1f77b4;stroke:#ffffff;stroke-width:0.75;" x="272.143132" xlink:href="#mfc91b8e765" y="98.90507"/>
     <use style="fill:#1f77b4;stroke:#ffffff;stroke-width:0.75;" x="275.710765" xlink:href="#mfc91b8e765" y="98.020767"/>
     <use style="fill:#1f77b4;stroke:#ffffff;stroke-width:0.75;" x="279.278397" xlink:href="#mfc91b8e765" y="98.841906"/>
     <use style="fill:#1f77b4;stroke:#ffffff;stroke-width:0.75;" x="282.84603" xlink:href="#mfc91b8e765" y="93.788746"/>
     <use style="fill:#1f77b4;stroke:#ffffff;stroke-width:0.75;" x="286.413662" xlink:href="#mfc91b8e765" y="94.609885"/>
     <use style="fill:#1f77b4;stroke:#ffffff;stroke-width:0.75;" x="289.981294" xlink:href="#mfc91b8e765" y="93.915075"/>
     <use style="fill:#1f77b4;stroke:#ffffff;stroke-width:0.75;" x="293.548927" xlink:href="#mfc91b8e765" y="93.030773"/>
     <use style="fill:#1f77b4;stroke:#ffffff;stroke-width:0.75;" x="297.116559" xlink:href="#mfc91b8e765" y="92.778115"/>
     <use style="fill:#1f77b4;stroke:#ffffff;stroke-width:0.75;" x="300.684191" xlink:href="#mfc91b8e765" y="88.861916"/>
     <use style="fill:#1f77b4;stroke:#ffffff;stroke-width:0.75;" x="304.251824" xlink:href="#mfc91b8e765" y="83.42977"/>
     <use style="fill:#1f77b4;stroke:#ffffff;stroke-width:0.75;" x="307.819456" xlink:href="#mfc91b8e765" y="83.42977"/>
     <use style="fill:#1f77b4;stroke:#ffffff;stroke-width:0.75;" x="311.387089" xlink:href="#mfc91b8e765" y="77.492308"/>
     <use style="fill:#1f77b4;stroke:#ffffff;stroke-width:0.75;" x="314.954721" xlink:href="#mfc91b8e765" y="73.891932"/>
     <use style="fill:#1f77b4;stroke:#ffffff;stroke-width:0.75;" x="318.522353" xlink:href="#mfc91b8e765" y="73.702438"/>
     <use style="fill:#1f77b4;stroke:#ffffff;stroke-width:0.75;" x="322.089986" xlink:href="#mfc91b8e765" y="76.355347"/>
     <use style="fill:#1f77b4;stroke:#ffffff;stroke-width:0.75;" x="325.657618" xlink:href="#mfc91b8e765" y="70.038898"/>
     <use style="fill:#1f77b4;stroke:#ffffff;stroke-width:0.75;" x="329.22525" xlink:href="#mfc91b8e765" y="73.070793"/>
     <use style="fill:#1f77b4;stroke:#ffffff;stroke-width:0.75;" x="332.792883" xlink:href="#mfc91b8e765" y="73.070793"/>
     <use style="fill:#1f77b4;stroke:#ffffff;stroke-width:0.75;" x="336.360515" xlink:href="#mfc91b8e765" y="69.154595"/>
     <use style="fill:#1f77b4;stroke:#ffffff;stroke-width:0.75;" x="339.928147" xlink:href="#mfc91b8e765" y="65.743712"/>
     <use style="fill:#1f77b4;stroke:#ffffff;stroke-width:0.75;" x="343.49578" xlink:href="#mfc91b8e765" y="65.491055"/>
     <use style="fill:#1f77b4;stroke:#ffffff;stroke-width:0.75;" x="347.063412" xlink:href="#mfc91b8e765" y="65.491055"/>
     <use style="fill:#1f77b4;stroke:#ffffff;stroke-width:0.75;" x="350.631045" xlink:href="#mfc91b8e765" y="65.554219"/>
     <use style="fill:#1f77b4;stroke:#ffffff;stroke-width:0.75;" x="354.198677" xlink:href="#mfc91b8e765" y="63.217133"/>
     <use style="fill:#1f77b4;stroke:#ffffff;stroke-width:0.75;" x="357.766309" xlink:href="#mfc91b8e765" y="64.354094"/>
     <use style="fill:#1f77b4;stroke:#ffffff;stroke-width:0.75;" x="361.333942" xlink:href="#mfc91b8e765" y="64.227765"/>
     <use style="fill:#1f77b4;stroke:#ffffff;stroke-width:0.75;" x="364.901574" xlink:href="#mfc91b8e765" y="64.227765"/>
     <use style="fill:#1f77b4;stroke:#ffffff;stroke-width:0.75;" x="368.469206" xlink:href="#mfc91b8e765" y="63.722449"/>
     <use style="fill:#1f77b4;stroke:#ffffff;stroke-width:0.75;" x="372.036839" xlink:href="#mfc91b8e765" y="63.722449"/>
     <use style="fill:#1f77b4;stroke:#ffffff;stroke-width:0.75;" x="375.604471" xlink:href="#mfc91b8e765" y="63.722449"/>
     <use style="fill:#1f77b4;stroke:#ffffff;stroke-width:0.75;" x="379.172104" xlink:href="#mfc91b8e765" y="63.722449"/>
     <use style="fill:#1f77b4;stroke:#ffffff;stroke-width:0.75;" x="382.739736" xlink:href="#mfc91b8e765" y="62.774981"/>
     <use style="fill:#1f77b4;stroke:#ffffff;stroke-width:0.75;" x="386.307368" xlink:href="#mfc91b8e765" y="62.143336"/>
     <use style="fill:#1f77b4;stroke:#ffffff;stroke-width:0.75;" x="389.875001" xlink:href="#mfc91b8e765" y="61.448527"/>
     <use style="fill:#1f77b4;stroke:#ffffff;stroke-width:0.75;" x="393.442633" xlink:href="#mfc91b8e765" y="59.111441"/>
     <use style="fill:#1f77b4;stroke:#ffffff;stroke-width:0.75;" x="397.010265" xlink:href="#mfc91b8e765" y="61.574856"/>
     <use style="fill:#1f77b4;stroke:#ffffff;stroke-width:0.75;" x="400.577898" xlink:href="#mfc91b8e765" y="59.048276"/>
    </g>
   </g>
   <g id="line2d_18"/>
   <g id="line2d_19"/>
   <g id="patch_3">
    <path d="M 59.690625 278.608047 
L 59.690625 25.950083 
" style="fill:none;stroke:#000000;stroke-linecap:square;stroke-linejoin:miter;stroke-width:0.8;"/>
   </g>
   <g id="patch_4">
    <path d="M 75.923352 288.430125 
L 349.441834 288.430125 
" style="fill:none;stroke:#000000;stroke-linecap:square;stroke-linejoin:miter;stroke-width:0.8;"/>
   </g>
   <g id="text_18">
    <!-- php_php-fuzz-parser-2020-07-25 (23h, 13 trials/fuzzer) -->
    <g transform="translate(73.249688 16.318125)scale(0.12 -0.12)">
     <defs>
      <path d="M 1159 525 
L 1159 -1331 
L 581 -1331 
L 581 3500 
L 1159 3500 
L 1159 2969 
Q 1341 3281 1617 3432 
Q 1894 3584 2278 3584 
Q 2916 3584 3314 3078 
Q 3713 2572 3713 1747 
Q 3713 922 3314 415 
Q 2916 -91 2278 -91 
Q 1894 -91 1617 61 
Q 1341 213 1159 525 
z
M 3116 1747 
Q 3116 2381 2855 2742 
Q 2594 3103 2138 3103 
Q 1681 3103 1420 2742 
Q 1159 2381 1159 1747 
Q 1159 1113 1420 752 
Q 1681 391 2138 391 
Q 2594 391 2855 752 
Q 3116 1113 3116 1747 
z
" id="DejaVuSans-70" transform="scale(0.015625)"/>
      <path d="M 3263 -1063 
L 3263 -1509 
L -63 -1509 
L -63 -1063 
L 3263 -1063 
z
" id="DejaVuSans-5f" transform="scale(0.015625)"/>
      <path d="M 313 2009 
L 1997 2009 
L 1997 1497 
L 313 1497 
L 313 2009 
z
" id="DejaVuSans-2d" transform="scale(0.015625)"/>
      <path d="M 2375 4863 
L 2375 4384 
L 1825 4384 
Q 1516 4384 1395 4259 
Q 1275 4134 1275 3809 
L 1275 3500 
L 2222 3500 
L 2222 3053 
L 1275 3053 
L 1275 0 
L 697 0 
L 697 3053 
L 147 3053 
L 147 3500 
L 697 3500 
L 697 3744 
Q 697 4328 969 4595 
Q 1241 4863 1831 4863 
L 2375 4863 
z
" id="DejaVuSans-66" transform="scale(0.015625)"/>
      <path d="M 353 3500 
L 3084 3500 
L 3084 2975 
L 922 459 
L 3084 459 
L 3084 0 
L 275 0 
L 275 525 
L 2438 3041 
L 353 3041 
L 353 3500 
z
" id="DejaVuSans-7a" transform="scale(0.015625)"/>
      <path d="M 2834 3397 
L 2834 2853 
Q 2591 2978 2328 3040 
Q 2066 3103 1784 3103 
Q 1356 3103 1142 2972 
Q 928 2841 928 2578 
Q 928 2378 1081 2264 
Q 1234 2150 1697 2047 
L 1894 2003 
Q 2506 1872 2764 1633 
Q 3022 1394 3022 966 
Q 3022 478 2636 193 
Q 2250 -91 1575 -91 
Q 1294 -91 989 -36 
Q 684 19 347 128 
L 347 722 
Q 666 556 975 473 
Q 1284 391 1588 391 
Q 1994 391 2212 530 
Q 2431 669 2431 922 
Q 2431 1156 2273 1281 
Q 2116 1406 1581 1522 
L 1381 1569 
Q 847 1681 609 1914 
Q 372 2147 372 2553 
Q 372 3047 722 3315 
Q 1072 3584 1716 3584 
Q 2034 3584 2315 3537 
Q 2597 3491 2834 3397 
z
" id="DejaVuSans-73" transform="scale(0.015625)"/>
      <path d="M 750 794 
L 1409 794 
L 1409 256 
L 897 -744 
L 494 -744 
L 750 256 
L 750 794 
z
" id="DejaVuSans-2c" transform="scale(0.015625)"/>
      <path d="M 603 4863 
L 1178 4863 
L 1178 0 
L 603 0 
L 603 4863 
z
" id="DejaVuSans-6c" transform="scale(0.015625)"/>
      <path d="M 1625 4666 
L 2156 4666 
L 531 -594 
L 0 -594 
L 1625 4666 
z
" id="DejaVuSans-2f" transform="scale(0.015625)"/>
     </defs>
     <use xlink:href="#DejaVuSans-70"/>
     <use x="63.476562" xlink:href="#DejaVuSans-68"/>
     <use x="126.855469" xlink:href="#DejaVuSans-70"/>
     <use x="190.332031" xlink:href="#DejaVuSans-5f"/>
     <use x="240.332031" xlink:href="#DejaVuSans-70"/>
     <use x="303.808594" xlink:href="#DejaVuSans-68"/>
     <use x="367.1875" xlink:href="#DejaVuSans-70"/>
     <use x="430.664062" xlink:href="#DejaVuSans-2d"/>
     <use x="466.748047" xlink:href="#DejaVuSans-66"/>
     <use x="501.953125" xlink:href="#DejaVuSans-75"/>
     <use x="565.332031" xlink:href="#DejaVuSans-7a"/>
     <use x="617.822266" xlink:href="#DejaVuSans-7a"/>
     <use x="670.3125" xlink:href="#DejaVuSans-2d"/>
     <use x="706.396484" xlink:href="#DejaVuSans-70"/>
     <use x="769.873047" xlink:href="#DejaVuSans-61"/>
     <use x="831.152344" xlink:href="#DejaVuSans-72"/>
     <use x="872.265625" xlink:href="#DejaVuSans-73"/>
     <use x="924.365234" xlink:href="#DejaVuSans-65"/>
     <use x="985.888672" xlink:href="#DejaVuSans-72"/>
     <use x="1020.626953" xlink:href="#DejaVuSans-2d"/>
     <use x="1056.710938" xlink:href="#DejaVuSans-32"/>
     <use x="1120.333984" xlink:href="#DejaVuSans-30"/>
     <use x="1183.957031" xlink:href="#DejaVuSans-32"/>
     <use x="1247.580078" xlink:href="#DejaVuSans-30"/>
     <use x="1311.203125" xlink:href="#DejaVuSans-2d"/>
     <use x="1347.287109" xlink:href="#DejaVuSans-30"/>
     <use x="1410.910156" xlink:href="#DejaVuSans-37"/>
     <use x="1474.533203" xlink:href="#DejaVuSans-2d"/>
     <use x="1510.617188" xlink:href="#DejaVuSans-32"/>
     <use x="1574.240234" xlink:href="#DejaVuSans-35"/>
     <use x="1637.863281" xlink:href="#DejaVuSans-20"/>
     <use x="1669.650391" xlink:href="#DejaVuSans-28"/>
     <use x="1708.664062" xlink:href="#DejaVuSans-32"/>
     <use x="1772.287109" xlink:href="#DejaVuSans-33"/>
     <use x="1835.910156" xlink:href="#DejaVuSans-68"/>
     <use x="1899.289062" xlink:href="#DejaVuSans-2c"/>
     <use x="1931.076172" xlink:href="#DejaVuSans-20"/>
     <use x="1962.863281" xlink:href="#DejaVuSans-31"/>
     <use x="2026.486328" xlink:href="#DejaVuSans-33"/>
     <use x="2090.109375" xlink:href="#DejaVuSans-20"/>
     <use x="2121.896484" xlink:href="#DejaVuSans-74"/>
     <use x="2161.105469" xlink:href="#DejaVuSans-72"/>
     <use x="2202.21875" xlink:href="#DejaVuSans-69"/>
     <use x="2230.001953" xlink:href="#DejaVuSans-61"/>
     <use x="2291.28125" xlink:href="#DejaVuSans-6c"/>
     <use x="2319.064453" xlink:href="#DejaVuSans-73"/>
     <use x="2371.164062" xlink:href="#DejaVuSans-2f"/>
     <use x="2404.855469" xlink:href="#DejaVuSans-66"/>
     <use x="2440.060547" xlink:href="#DejaVuSans-75"/>
     <use x="2503.439453" xlink:href="#DejaVuSans-7a"/>
     <use x="2555.929688" xlink:href="#DejaVuSans-7a"/>
     <use x="2608.419922" xlink:href="#DejaVuSans-65"/>
     <use x="2669.943359" xlink:href="#DejaVuSans-72"/>
     <use x="2711.056641" xlink:href="#DejaVuSans-29"/>
    </g>
   </g>
   <g id="legend_1">
    <g id="line2d_20">
     <path d="M 420.810625 30.416562 
L 440.810625 30.416562 
" style="fill:none;stroke:#98df8a;stroke-linecap:square;stroke-width:1.5;"/>
    </g>
    <g id="line2d_21">
     <defs>
      <path d="M -0 3 
L 3 -3 
L -3 -3 
z
" id="m53823707b5" style="stroke:#98df8a;stroke-linejoin:miter;"/>
     </defs>
     <g>
      <use style="fill:#98df8a;stroke:#98df8a;stroke-linejoin:miter;" x="430.810625" xlink:href="#m53823707b5" y="30.416562"/>
     </g>
    </g>
    <g id="text_19">
     <!-- afl_no_trim -->
     <g transform="translate(448.810625 33.916562)scale(0.1 -0.1)">
      <use xlink:href="#DejaVuSans-61"/>
      <use x="61.279297" xlink:href="#DejaVuSans-66"/>
      <use x="96.484375" xlink:href="#DejaVuSans-6c"/>
      <use x="124.267578" xlink:href="#DejaVuSans-5f"/>
      <use x="174.267578" xlink:href="#DejaVuSans-6e"/>
      <use x="237.646484" xlink:href="#DejaVuSans-6f"/>
      <use x="298.828125" xlink:href="#DejaVuSans-5f"/>
      <use x="348.828125" xlink:href="#DejaVuSans-74"/>
      <use x="388.037109" xlink:href="#DejaVuSans-72"/>
      <use x="429.150391" xlink:href="#DejaVuSans-69"/>
      <use x="456.933594" xlink:href="#DejaVuSans-6d"/>
     </g>
    </g>
    <g id="line2d_22">
     <path d="M 420.810625 45.372813 
L 440.810625 45.372813 
" style="fill:none;stroke:#1f77b4;stroke-linecap:square;stroke-width:1.5;"/>
    </g>
    <g id="line2d_23">
     <defs>
      <path d="M 0 3 
C 0.795609 3 1.55874 2.683901 2.12132 2.12132 
C 2.683901 1.55874 3 0.795609 3 0 
C 3 -0.795609 2.683901 -1.55874 2.12132 -2.12132 
C 1.55874 -2.683901 0.795609 -3 0 -3 
C -0.795609 -3 -1.55874 -2.683901 -2.12132 -2.12132 
C -2.683901 -1.55874 -3 -0.795609 -3 0 
C -3 0.795609 -2.683901 1.55874 -2.12132 2.12132 
C -1.55874 2.683901 -0.795609 3 0 3 
z
" id="m09ab498793" style="stroke:#1f77b4;"/>
     </defs>
     <g>
      <use style="fill:#1f77b4;stroke:#1f77b4;" x="430.810625" xlink:href="#m09ab498793" y="45.372813"/>
     </g>
    </g>
    <g id="text_20">
     <!-- afl -->
     <g transform="translate(448.810625 48.872813)scale(0.1 -0.1)">
      <use xlink:href="#DejaVuSans-61"/>
      <use x="61.279297" xlink:href="#DejaVuSans-66"/>
      <use x="96.484375" xlink:href="#DejaVuSans-6c"/>
     </g>
    </g>
   </g>
  </g>
 </g>
 <defs>
  <clipPath id="pbd05b95154">
   <rect height="266.112" width="357.12" x="59.690625" y="22.318125"/>
  </clipPath>
 </defs>
</svg>
