<?xml version="1.0" encoding="utf-8" standalone="no"?>
<!DOCTYPE svg PUBLIC "-//W3C//DTD SVG 1.1//EN"
  "http://www.w3.org/Graphics/SVG/1.1/DTD/svg11.dtd">
<svg height="325.986375pt" version="1.1" viewBox="0 0 509.080937 325.986375" width="509.080937pt" xmlns="http://www.w3.org/2000/svg" xmlns:xlink="http://www.w3.org/1999/xlink">
 <metadata>
  <rdf:RDF xmlns:cc="http://creativecommons.org/ns#" xmlns:dc="http://purl.org/dc/elements/1.1/" xmlns:rdf="http://www.w3.org/1999/02/22-rdf-syntax-ns#">
   <cc:Work>
    <dc:type rdf:resource="http://purl.org/dc/dcmitype/StillImage"/>
    <dc:date>2022-05-31T17:14:21.872541</dc:date>
    <dc:format>image/svg+xml</dc:format>
    <dc:creator>
     <cc:Agent>
      <dc:title>Matplotlib v3.4.3, https://matplotlib.org/</dc:title>
     </cc:Agent>
    </dc:creator>
   </cc:Work>
  </rdf:RDF>
 </metadata>
 <defs>
  <style type="text/css">*{stroke-linecap:butt;stroke-linejoin:round;}</style>
 </defs>
 <g id="figure_1">
  <g id="patch_1">
   <path d="M 0 325.986375 
L 509.080937 325.986375 
L 509.080937 0 
L 0 0 
z
" style="fill:#ffffff;"/>
  </g>
  <g id="axes_1">
   <g id="patch_2">
    <path d="M 53.328125 288.430125 
L 410.448125 288.430125 
L 410.448125 22.318125 
L 53.328125 22.318125 
z
" style="fill:#ffffff;"/>
   </g>
   <g id="PolyCollection_1">
    <defs>
     <path d="M 69.560852 -184.071672 
L 69.560852 -166.766701 
L 119.327306 -177.953753 
L 148.438816 -184.770863 
L 169.09376 -193.685545 
L 185.11498 -196.831903 
L 198.205269 -196.831903 
L 209.272952 -198.57988 
L 218.860214 -200.502655 
L 227.316779 -201.551441 
L 234.881434 -201.726238 
L 241.724496 -201.726238 
L 247.971723 -202.425429 
L 253.718615 -202.949822 
L 259.039406 -204.173406 
L 263.992943 -204.173406 
L 268.626668 -205.571788 
L 272.979383 -206.93521 
L 277.083233 -205.571788 
L 280.965141 -205.571788 
L 284.647888 -206.970169 
L 288.150915 -208.018955 
L 291.49095 -208.018955 
L 294.68249 -208.018955 
L 297.738177 -208.018955 
L 300.669107 -208.189383 
L 303.485069 -207.319764 
L 306.194742 -207.319764 
L 308.805859 -207.319764 
L 311.32534 -207.319764 
L 313.759397 -209.067741 
L 316.113635 -209.067741 
L 318.393122 -209.417337 
L 320.60246 -209.067741 
L 322.745837 -209.067741 
L 324.827079 -209.067741 
L 326.849687 -209.067741 
L 328.816873 -209.067741 
L 330.731595 -209.067741 
L 332.596578 -209.766932 
L 334.414342 -209.766932 
L 336.187217 -210.116527 
L 337.917369 -210.116527 
L 339.606807 -210.116527 
L 341.257404 -210.116527 
L 342.870906 -210.116527 
L 344.448944 -210.466123 
L 345.993042 -210.466123 
L 347.504631 -210.466123 
L 348.985051 -210.466123 
L 350.435561 -210.466123 
L 351.857347 -210.291325 
L 353.251523 -210.466123 
L 354.619142 -210.291325 
L 355.961196 -210.461753 
L 357.278624 -210.466123 
L 358.572313 -210.466123 
L 359.843104 -210.466123 
L 361.091794 -210.291325 
L 362.319136 -210.466123 
L 363.525851 -210.466123 
L 364.712619 -210.466123 
L 365.880089 -210.291325 
L 367.028878 -210.291325 
L 368.159576 -210.466123 
L 369.272743 -210.466123 
L 370.368914 -210.466123 
L 371.4486 -210.466123 
L 372.512291 -210.291325 
L 373.560453 -210.291325 
L 374.593533 -213.088088 
L 375.611959 -215.710053 
L 376.616141 -215.710053 
L 377.606471 -215.710053 
L 378.583327 -218.856412 
L 379.547071 -213.262886 
L 380.498049 -213.262886 
L 381.436596 -213.262886 
L 382.363032 -213.262886 
L 383.277666 -218.856412 
L 384.180795 -221.653175 
L 385.072705 -220.953984 
L 385.953671 -221.653175 
L 386.823958 -221.653175 
L 387.683823 -221.653175 
L 388.533511 -221.653175 
L 389.373261 -221.653175 
L 390.203303 -221.653175 
L 391.023858 -221.653175 
L 391.835142 -221.653175 
L 392.63736 -221.653175 
L 393.430714 -221.653175 
L 394.215398 -221.653175 
L 394.215398 -287.726701 
L 394.215398 -287.726701 
L 393.430714 -286.328319 
L 392.63736 -286.328319 
L 391.835142 -286.358909 
L 391.023858 -286.328319 
L 390.203303 -286.328319 
L 389.373261 -286.328319 
L 388.533511 -287.551903 
L 387.683823 -287.75729 
L 386.823958 -286.328319 
L 385.953671 -286.328319 
L 385.072705 -286.328319 
L 384.180795 -286.852712 
L 383.277666 -286.328319 
L 382.363032 -286.328319 
L 381.436596 -286.328319 
L 380.498049 -286.328319 
L 379.547071 -286.328319 
L 378.583327 -286.328319 
L 377.606471 -286.328319 
L 376.616141 -286.328319 
L 375.611959 -286.328319 
L 374.593533 -283.881152 
L 373.560453 -283.889892 
L 372.512291 -285.104736 
L 371.4486 -286.328319 
L 370.368914 -286.328319 
L 369.272743 -286.328319 
L 368.159576 -286.328319 
L 367.028878 -284.230747 
L 365.880089 -285.104736 
L 364.712619 -283.881152 
L 363.525851 -283.881152 
L 362.319136 -283.881152 
L 361.091794 -283.706354 
L 359.843104 -283.881152 
L 358.572313 -283.881152 
L 357.278624 -283.531556 
L 355.961196 -280.385198 
L 354.619142 -281.958377 
L 353.251523 -277.93803 
L 351.857347 -277.93803 
L 350.435561 -280.2104 
L 348.985051 -280.385198 
L 347.504631 -279.686007 
L 345.993042 -273.39329 
L 344.448944 -270.246932 
L 342.870906 -270.246932 
L 341.257404 -270.246932 
L 339.606807 -270.246932 
L 337.917369 -260.108666 
L 336.187217 -260.108666 
L 334.414342 -243.18825 
L 332.596578 -244.551672 
L 330.731595 -270.246932 
L 328.816873 -270.246932 
L 326.849687 -270.246932 
L 324.827079 -270.246932 
L 322.745837 -270.246932 
L 320.60246 -270.246932 
L 318.393122 -242.4541 
L 316.113635 -266.051788 
L 313.759397 -266.051788 
L 311.32534 -265.702192 
L 308.805859 -265.702192 
L 306.194742 -251.718377 
L 303.485069 -251.718377 
L 300.669107 -216.234447 
L 297.738177 -217.45803 
L 294.68249 -217.45803 
L 291.49095 -216.064019 
L 288.150915 -217.283233 
L 284.647888 -222.00277 
L 280.965141 -220.254793 
L 277.083233 -220.254793 
L 272.979383 -219.905198 
L 268.626668 -219.905198 
L 263.992943 -211.340111 
L 259.039406 -211.165314 
L 253.718615 -209.766932 
L 247.971723 -208.543348 
L 241.724496 -211.165314 
L 234.881434 -211.165314 
L 227.316779 -208.892944 
L 218.860214 -205.746585 
L 209.272952 -204.523001 
L 198.205269 -203.474215 
L 185.11498 -202.775025 
L 169.09376 -199.279071 
L 148.438816 -198.405082 
L 119.327306 -196.482308 
L 69.560852 -184.071672 
z
" id="m20f5663f59" style="stroke:#98df8a;stroke-opacity:0.2;"/>
    </defs>
    <g clip-path="url(#p5a4d881cd4)">
     <use style="fill:#98df8a;fill-opacity:0.2;stroke:#98df8a;stroke-opacity:0.2;" x="0" xlink:href="#m20f5663f59" y="325.986375"/>
    </g>
   </g>
   <g id="PolyCollection_2">
    <defs>
     <path d="M 69.560852 -175.506585 
L 69.560852 -49.65225 
L 119.327306 -152.083695 
L 148.438816 -166.941499 
L 169.09376 -180.051325 
L 185.11498 -184.24647 
L 198.205269 -186.693637 
L 209.272952 -188.441614 
L 218.860214 -188.441614 
L 227.316779 -191.063579 
L 234.881434 -193.161152 
L 241.724496 -193.510747 
L 247.971723 -197.181499 
L 253.718615 -197.181499 
L 259.039406 -195.957915 
L 263.992943 -196.132712 
L 268.626668 -197.531094 
L 272.979383 -199.453868 
L 277.083233 -199.628666 
L 280.965141 -199.978262 
L 284.647888 -200.327857 
L 288.150915 -202.775025 
L 291.49095 -202.250632 
L 294.68249 -203.474215 
L 297.738177 -203.474215 
L 300.669107 -204.173406 
L 303.485069 -204.872597 
L 306.194742 -204.872597 
L 308.805859 -204.348204 
L 311.32534 -203.823811 
L 313.759397 -203.823811 
L 316.113635 -203.823811 
L 318.393122 -203.823811 
L 320.60246 -205.563048 
L 322.745837 -205.571788 
L 324.827079 -205.571788 
L 326.849687 -206.270978 
L 328.816873 -206.270978 
L 330.731595 -206.270978 
L 332.596578 -205.571788 
L 334.414342 -206.270978 
L 336.187217 -206.270978 
L 337.917369 -206.270978 
L 339.606807 -206.270978 
L 341.257404 -206.270978 
L 342.870906 -206.620574 
L 344.448944 -207.319764 
L 345.993042 -207.319764 
L 347.504631 -206.970169 
L 348.985051 -207.319764 
L 350.435561 -207.319764 
L 351.857347 -207.311025 
L 353.251523 -207.319764 
L 354.619142 -207.494562 
L 355.961196 -208.018955 
L 357.278624 -207.66936 
L 358.572313 -208.368551 
L 359.843104 -208.543348 
L 361.091794 -208.543348 
L 362.319136 -208.368551 
L 363.525851 -208.368551 
L 364.712619 -210.116527 
L 365.880089 -209.592134 
L 367.028878 -210.116527 
L 368.159576 -209.592134 
L 369.272743 -209.592134 
L 370.368914 -209.94173 
L 371.4486 -210.116527 
L 372.512291 -210.116527 
L 373.560453 -210.116527 
L 374.593533 -210.116527 
L 375.611959 -210.116527 
L 376.616141 -210.116527 
L 377.606471 -211.514909 
L 378.583327 -210.990516 
L 379.547071 -210.990516 
L 380.498049 -211.501799 
L 381.436596 -211.864504 
L 382.363032 -211.864504 
L 383.277666 -211.864504 
L 384.180795 -211.864504 
L 385.072705 -212.887071 
L 385.953671 -212.91329 
L 386.823958 -211.864504 
L 387.683823 -211.864504 
L 388.533511 -210.990516 
L 389.373261 -211.514909 
L 390.203303 -210.990516 
L 391.023858 -210.990516 
L 391.835142 -211.864504 
L 392.63736 -211.864504 
L 393.430714 -212.91329 
L 394.215398 -212.91329 
L 394.215398 -291.57225 
L 394.215398 -291.57225 
L 393.430714 -291.57225 
L 392.63736 -291.57225 
L 391.835142 -291.57225 
L 391.023858 -291.222655 
L 390.203303 -290.873059 
L 389.373261 -291.222655 
L 388.533511 -290.873059 
L 387.683823 -291.57225 
L 386.823958 -291.57225 
L 385.953671 -291.57225 
L 385.072705 -291.57225 
L 384.180795 -291.57225 
L 383.277666 -291.57225 
L 382.363032 -291.57225 
L 381.436596 -291.57225 
L 380.498049 -291.222655 
L 379.547071 -290.873059 
L 378.583327 -290.873059 
L 377.606471 -291.222655 
L 376.616141 -291.57225 
L 375.611959 -291.57225 
L 374.593533 -291.57225 
L 373.560453 -291.57225 
L 372.512291 -291.57225 
L 371.4486 -291.57225 
L 370.368914 -290.698262 
L 369.272743 -290.698262 
L 368.159576 -289.846123 
L 367.028878 -290.698262 
L 365.880089 -289.824273 
L 364.712619 -291.57225 
L 363.525851 -289.824273 
L 362.319136 -289.824273 
L 361.091794 -286.153522 
L 359.843104 -281.608782 
L 358.572313 -280.918331 
L 357.278624 -283.181961 
L 355.961196 -283.181961 
L 354.619142 -281.259186 
L 353.251523 -281.259186 
L 351.857347 -281.259186 
L 350.435561 -281.259186 
L 348.985051 -280.913961 
L 347.504631 -280.044342 
L 345.993042 -278.833868 
L 344.448944 -278.641591 
L 342.870906 -279.336412 
L 341.257404 -279.336412 
L 339.606807 -279.336412 
L 337.917369 -279.336412 
L 336.187217 -279.336412 
L 334.414342 -279.336412 
L 332.596578 -279.336412 
L 330.731595 -278.462423 
L 328.816873 -271.295718 
L 326.849687 -271.295718 
L 324.827079 -271.645314 
L 322.745837 -271.120921 
L 320.60246 -271.295718 
L 318.393122 -271.295718 
L 316.113635 -270.946123 
L 313.759397 -270.946123 
L 311.32534 -270.246932 
L 308.805859 -263.954215 
L 306.194742 -251.019186 
L 303.485069 -250.319996 
L 300.669107 -246.474447 
L 297.738177 -227.596296 
L 294.68249 -223.051556 
L 291.49095 -212.563695 
L 288.150915 -212.563695 
L 284.647888 -212.388897 
L 280.965141 -211.340111 
L 277.083233 -209.592134 
L 272.979383 -208.368551 
L 268.626668 -209.592134 
L 263.992943 -210.815718 
L 259.039406 -208.368551 
L 253.718615 -208.368551 
L 247.971723 -207.319764 
L 241.724496 -202.080204 
L 234.881434 -201.551441 
L 227.316779 -203.299418 
L 218.860214 -200.677452 
L 209.272952 -203.12462 
L 198.205269 -201.027048 
L 185.11498 -199.628666 
L 169.09376 -198.929475 
L 148.438816 -196.512897 
L 119.327306 -190.539186 
L 69.560852 -175.506585 
z
" id="mf897299c0e" style="stroke:#1f77b4;stroke-opacity:0.2;"/>
    </defs>
    <g clip-path="url(#p5a4d881cd4)">
     <use style="fill:#1f77b4;fill-opacity:0.2;stroke:#1f77b4;stroke-opacity:0.2;" x="0" xlink:href="#mf897299c0e" y="325.986375"/>
    </g>
   </g>
   <g id="matplotlib.axis_1">
    <g id="xtick_1">
     <g id="line2d_1">
      <defs>
       <path d="M 0 0 
L 0 3.5 
" id="mf79c615036" style="stroke:#000000;stroke-width:0.8;"/>
      </defs>
      <g>
       <use style="stroke:#000000;stroke-width:0.8;" x="69.560852" xlink:href="#mf79c615036" y="288.430125"/>
      </g>
     </g>
     <g id="text_1">
      <!-- 14m -->
      <g transform="translate(58.32804 303.028562)scale(0.1 -0.1)">
       <defs>
        <path d="M 794 531 
L 1825 531 
L 1825 4091 
L 703 3866 
L 703 4441 
L 1819 4666 
L 2450 4666 
L 2450 531 
L 3481 531 
L 3481 0 
L 794 0 
L 794 531 
z
" id="DejaVuSans-31" transform="scale(0.015625)"/>
        <path d="M 2419 4116 
L 825 1625 
L 2419 1625 
L 2419 4116 
z
M 2253 4666 
L 3047 4666 
L 3047 1625 
L 3713 1625 
L 3713 1100 
L 3047 1100 
L 3047 0 
L 2419 0 
L 2419 1100 
L 313 1100 
L 313 1709 
L 2253 4666 
z
" id="DejaVuSans-34" transform="scale(0.015625)"/>
        <path d="M 3328 2828 
Q 3544 3216 3844 3400 
Q 4144 3584 4550 3584 
Q 5097 3584 5394 3201 
Q 5691 2819 5691 2113 
L 5691 0 
L 5113 0 
L 5113 2094 
Q 5113 2597 4934 2840 
Q 4756 3084 4391 3084 
Q 3944 3084 3684 2787 
Q 3425 2491 3425 1978 
L 3425 0 
L 2847 0 
L 2847 2094 
Q 2847 2600 2669 2842 
Q 2491 3084 2119 3084 
Q 1678 3084 1418 2786 
Q 1159 2488 1159 1978 
L 1159 0 
L 581 0 
L 581 3500 
L 1159 3500 
L 1159 2956 
Q 1356 3278 1631 3431 
Q 1906 3584 2284 3584 
Q 2666 3584 2933 3390 
Q 3200 3197 3328 2828 
z
" id="DejaVuSans-6d" transform="scale(0.015625)"/>
       </defs>
       <use xlink:href="#DejaVuSans-31"/>
       <use x="63.623047" xlink:href="#DejaVuSans-34"/>
       <use x="127.246094" xlink:href="#DejaVuSans-6d"/>
      </g>
     </g>
    </g>
    <g id="xtick_2">
     <g id="line2d_2">
      <g>
       <use style="stroke:#000000;stroke-width:0.8;" x="134.491935" xlink:href="#mf79c615036" y="288.430125"/>
      </g>
     </g>
     <g id="text_2">
      <!-- 37m -->
      <g transform="translate(123.259122 303.028562)scale(0.1 -0.1)">
       <defs>
        <path d="M 2597 2516 
Q 3050 2419 3304 2112 
Q 3559 1806 3559 1356 
Q 3559 666 3084 287 
Q 2609 -91 1734 -91 
Q 1441 -91 1130 -33 
Q 819 25 488 141 
L 488 750 
Q 750 597 1062 519 
Q 1375 441 1716 441 
Q 2309 441 2620 675 
Q 2931 909 2931 1356 
Q 2931 1769 2642 2001 
Q 2353 2234 1838 2234 
L 1294 2234 
L 1294 2753 
L 1863 2753 
Q 2328 2753 2575 2939 
Q 2822 3125 2822 3475 
Q 2822 3834 2567 4026 
Q 2313 4219 1838 4219 
Q 1578 4219 1281 4162 
Q 984 4106 628 3988 
L 628 4550 
Q 988 4650 1302 4700 
Q 1616 4750 1894 4750 
Q 2613 4750 3031 4423 
Q 3450 4097 3450 3541 
Q 3450 3153 3228 2886 
Q 3006 2619 2597 2516 
z
" id="DejaVuSans-33" transform="scale(0.015625)"/>
        <path d="M 525 4666 
L 3525 4666 
L 3525 4397 
L 1831 0 
L 1172 0 
L 2766 4134 
L 525 4134 
L 525 4666 
z
" id="DejaVuSans-37" transform="scale(0.015625)"/>
       </defs>
       <use xlink:href="#DejaVuSans-33"/>
       <use x="63.623047" xlink:href="#DejaVuSans-37"/>
       <use x="127.246094" xlink:href="#DejaVuSans-6d"/>
      </g>
     </g>
    </g>
    <g id="xtick_3">
     <g id="line2d_3">
      <g>
       <use style="stroke:#000000;stroke-width:0.8;" x="199.423017" xlink:href="#mf79c615036" y="288.430125"/>
      </g>
     </g>
     <g id="text_3">
      <!-- 1h:31m -->
      <g transform="translate(180.15583 303.028562)scale(0.1 -0.1)">
       <defs>
        <path d="M 3513 2113 
L 3513 0 
L 2938 0 
L 2938 2094 
Q 2938 2591 2744 2837 
Q 2550 3084 2163 3084 
Q 1697 3084 1428 2787 
Q 1159 2491 1159 1978 
L 1159 0 
L 581 0 
L 581 4863 
L 1159 4863 
L 1159 2956 
Q 1366 3272 1645 3428 
Q 1925 3584 2291 3584 
Q 2894 3584 3203 3211 
Q 3513 2838 3513 2113 
z
" id="DejaVuSans-68" transform="scale(0.015625)"/>
        <path d="M 750 794 
L 1409 794 
L 1409 0 
L 750 0 
L 750 794 
z
M 750 3309 
L 1409 3309 
L 1409 2516 
L 750 2516 
L 750 3309 
z
" id="DejaVuSans-3a" transform="scale(0.015625)"/>
       </defs>
       <use xlink:href="#DejaVuSans-31"/>
       <use x="63.623047" xlink:href="#DejaVuSans-68"/>
       <use x="127.001953" xlink:href="#DejaVuSans-3a"/>
       <use x="160.693359" xlink:href="#DejaVuSans-33"/>
       <use x="224.316406" xlink:href="#DejaVuSans-31"/>
       <use x="287.939453" xlink:href="#DejaVuSans-6d"/>
      </g>
     </g>
    </g>
    <g id="xtick_4">
     <g id="line2d_4">
      <g>
       <use style="stroke:#000000;stroke-width:0.8;" x="264.3541" xlink:href="#mf79c615036" y="288.430125"/>
      </g>
     </g>
     <g id="text_4">
      <!-- 3h:46m -->
      <g transform="translate(245.086912 303.028562)scale(0.1 -0.1)">
       <defs>
        <path d="M 2113 2584 
Q 1688 2584 1439 2293 
Q 1191 2003 1191 1497 
Q 1191 994 1439 701 
Q 1688 409 2113 409 
Q 2538 409 2786 701 
Q 3034 994 3034 1497 
Q 3034 2003 2786 2293 
Q 2538 2584 2113 2584 
z
M 3366 4563 
L 3366 3988 
Q 3128 4100 2886 4159 
Q 2644 4219 2406 4219 
Q 1781 4219 1451 3797 
Q 1122 3375 1075 2522 
Q 1259 2794 1537 2939 
Q 1816 3084 2150 3084 
Q 2853 3084 3261 2657 
Q 3669 2231 3669 1497 
Q 3669 778 3244 343 
Q 2819 -91 2113 -91 
Q 1303 -91 875 529 
Q 447 1150 447 2328 
Q 447 3434 972 4092 
Q 1497 4750 2381 4750 
Q 2619 4750 2861 4703 
Q 3103 4656 3366 4563 
z
" id="DejaVuSans-36" transform="scale(0.015625)"/>
       </defs>
       <use xlink:href="#DejaVuSans-33"/>
       <use x="63.623047" xlink:href="#DejaVuSans-68"/>
       <use x="127.001953" xlink:href="#DejaVuSans-3a"/>
       <use x="160.693359" xlink:href="#DejaVuSans-34"/>
       <use x="224.316406" xlink:href="#DejaVuSans-36"/>
       <use x="287.939453" xlink:href="#DejaVuSans-6d"/>
      </g>
     </g>
    </g>
    <g id="xtick_5">
     <g id="line2d_5">
      <g>
       <use style="stroke:#000000;stroke-width:0.8;" x="329.285182" xlink:href="#mf79c615036" y="288.430125"/>
      </g>
     </g>
     <g id="text_5">
      <!-- 9h:18m -->
      <g transform="translate(310.017995 303.028562)scale(0.1 -0.1)">
       <defs>
        <path d="M 703 97 
L 703 672 
Q 941 559 1184 500 
Q 1428 441 1663 441 
Q 2288 441 2617 861 
Q 2947 1281 2994 2138 
Q 2813 1869 2534 1725 
Q 2256 1581 1919 1581 
Q 1219 1581 811 2004 
Q 403 2428 403 3163 
Q 403 3881 828 4315 
Q 1253 4750 1959 4750 
Q 2769 4750 3195 4129 
Q 3622 3509 3622 2328 
Q 3622 1225 3098 567 
Q 2575 -91 1691 -91 
Q 1453 -91 1209 -44 
Q 966 3 703 97 
z
M 1959 2075 
Q 2384 2075 2632 2365 
Q 2881 2656 2881 3163 
Q 2881 3666 2632 3958 
Q 2384 4250 1959 4250 
Q 1534 4250 1286 3958 
Q 1038 3666 1038 3163 
Q 1038 2656 1286 2365 
Q 1534 2075 1959 2075 
z
" id="DejaVuSans-39" transform="scale(0.015625)"/>
        <path d="M 2034 2216 
Q 1584 2216 1326 1975 
Q 1069 1734 1069 1313 
Q 1069 891 1326 650 
Q 1584 409 2034 409 
Q 2484 409 2743 651 
Q 3003 894 3003 1313 
Q 3003 1734 2745 1975 
Q 2488 2216 2034 2216 
z
M 1403 2484 
Q 997 2584 770 2862 
Q 544 3141 544 3541 
Q 544 4100 942 4425 
Q 1341 4750 2034 4750 
Q 2731 4750 3128 4425 
Q 3525 4100 3525 3541 
Q 3525 3141 3298 2862 
Q 3072 2584 2669 2484 
Q 3125 2378 3379 2068 
Q 3634 1759 3634 1313 
Q 3634 634 3220 271 
Q 2806 -91 2034 -91 
Q 1263 -91 848 271 
Q 434 634 434 1313 
Q 434 1759 690 2068 
Q 947 2378 1403 2484 
z
M 1172 3481 
Q 1172 3119 1398 2916 
Q 1625 2713 2034 2713 
Q 2441 2713 2670 2916 
Q 2900 3119 2900 3481 
Q 2900 3844 2670 4047 
Q 2441 4250 2034 4250 
Q 1625 4250 1398 4047 
Q 1172 3844 1172 3481 
z
" id="DejaVuSans-38" transform="scale(0.015625)"/>
       </defs>
       <use xlink:href="#DejaVuSans-39"/>
       <use x="63.623047" xlink:href="#DejaVuSans-68"/>
       <use x="127.001953" xlink:href="#DejaVuSans-3a"/>
       <use x="160.693359" xlink:href="#DejaVuSans-31"/>
       <use x="224.316406" xlink:href="#DejaVuSans-38"/>
       <use x="287.939453" xlink:href="#DejaVuSans-6d"/>
      </g>
     </g>
    </g>
    <g id="xtick_6">
     <g id="line2d_6">
      <g>
       <use style="stroke:#000000;stroke-width:0.8;" x="394.216265" xlink:href="#mf79c615036" y="288.430125"/>
      </g>
     </g>
     <g id="text_6">
      <!-- 23h -->
      <g transform="translate(384.685015 303.028562)scale(0.1 -0.1)">
       <defs>
        <path d="M 1228 531 
L 3431 531 
L 3431 0 
L 469 0 
L 469 531 
Q 828 903 1448 1529 
Q 2069 2156 2228 2338 
Q 2531 2678 2651 2914 
Q 2772 3150 2772 3378 
Q 2772 3750 2511 3984 
Q 2250 4219 1831 4219 
Q 1534 4219 1204 4116 
Q 875 4013 500 3803 
L 500 4441 
Q 881 4594 1212 4672 
Q 1544 4750 1819 4750 
Q 2544 4750 2975 4387 
Q 3406 4025 3406 3419 
Q 3406 3131 3298 2873 
Q 3191 2616 2906 2266 
Q 2828 2175 2409 1742 
Q 1991 1309 1228 531 
z
" id="DejaVuSans-32" transform="scale(0.015625)"/>
       </defs>
       <use xlink:href="#DejaVuSans-32"/>
       <use x="63.623047" xlink:href="#DejaVuSans-33"/>
       <use x="127.246094" xlink:href="#DejaVuSans-68"/>
      </g>
     </g>
    </g>
    <g id="xtick_7">
     <g id="line2d_7">
      <defs>
       <path d="M 0 0 
L 0 2 
" id="m970448376c" style="stroke:#000000;stroke-width:0.6;"/>
      </defs>
      <g>
       <use style="stroke:#000000;stroke-width:0.6;" x="61.104288" xlink:href="#m970448376c" y="288.430125"/>
      </g>
     </g>
    </g>
    <g id="xtick_8">
     <g id="line2d_8">
      <g>
       <use style="stroke:#000000;stroke-width:0.6;" x="126.891961" xlink:href="#m970448376c" y="288.430125"/>
      </g>
     </g>
    </g>
    <g id="xtick_9">
     <g id="line2d_9">
      <g>
       <use style="stroke:#000000;stroke-width:0.6;" x="156.00347" xlink:href="#m970448376c" y="288.430125"/>
      </g>
     </g>
    </g>
    <g id="xtick_10">
     <g id="line2d_10">
      <g>
       <use style="stroke:#000000;stroke-width:0.6;" x="176.658415" xlink:href="#m970448376c" y="288.430125"/>
      </g>
     </g>
    </g>
    <g id="xtick_11">
     <g id="line2d_11">
      <g>
       <use style="stroke:#000000;stroke-width:0.6;" x="192.679635" xlink:href="#m970448376c" y="288.430125"/>
      </g>
     </g>
    </g>
    <g id="xtick_12">
     <g id="line2d_12">
      <g>
       <use style="stroke:#000000;stroke-width:0.6;" x="205.769924" xlink:href="#m970448376c" y="288.430125"/>
      </g>
     </g>
    </g>
    <g id="xtick_13">
     <g id="line2d_13">
      <g>
       <use style="stroke:#000000;stroke-width:0.6;" x="216.837607" xlink:href="#m970448376c" y="288.430125"/>
      </g>
     </g>
    </g>
    <g id="xtick_14">
     <g id="line2d_14">
      <g>
       <use style="stroke:#000000;stroke-width:0.6;" x="226.424869" xlink:href="#m970448376c" y="288.430125"/>
      </g>
     </g>
    </g>
    <g id="xtick_15">
     <g id="line2d_15">
      <g>
       <use style="stroke:#000000;stroke-width:0.6;" x="234.881434" xlink:href="#m970448376c" y="288.430125"/>
      </g>
     </g>
    </g>
    <g id="xtick_16">
     <g id="line2d_16">
      <g>
       <use style="stroke:#000000;stroke-width:0.6;" x="292.212543" xlink:href="#m970448376c" y="288.430125"/>
      </g>
     </g>
    </g>
    <g id="xtick_17">
     <g id="line2d_17">
      <g>
       <use style="stroke:#000000;stroke-width:0.6;" x="321.324052" xlink:href="#m970448376c" y="288.430125"/>
      </g>
     </g>
    </g>
    <g id="xtick_18">
     <g id="line2d_18">
      <g>
       <use style="stroke:#000000;stroke-width:0.6;" x="341.978996" xlink:href="#m970448376c" y="288.430125"/>
      </g>
     </g>
    </g>
    <g id="xtick_19">
     <g id="line2d_19">
      <g>
       <use style="stroke:#000000;stroke-width:0.6;" x="358.000216" xlink:href="#m970448376c" y="288.430125"/>
      </g>
     </g>
    </g>
    <g id="xtick_20">
     <g id="line2d_20">
      <g>
       <use style="stroke:#000000;stroke-width:0.6;" x="371.090506" xlink:href="#m970448376c" y="288.430125"/>
      </g>
     </g>
    </g>
    <g id="xtick_21">
     <g id="line2d_21">
      <g>
       <use style="stroke:#000000;stroke-width:0.6;" x="382.158188" xlink:href="#m970448376c" y="288.430125"/>
      </g>
     </g>
    </g>
    <g id="xtick_22">
     <g id="line2d_22">
      <g>
       <use style="stroke:#000000;stroke-width:0.6;" x="391.74545" xlink:href="#m970448376c" y="288.430125"/>
      </g>
     </g>
    </g>
    <g id="xtick_23">
     <g id="line2d_23">
      <g>
       <use style="stroke:#000000;stroke-width:0.6;" x="400.202015" xlink:href="#m970448376c" y="288.430125"/>
      </g>
     </g>
    </g>
    <g id="text_7">
     <!-- Time (hour:minute) -->
     <g transform="translate(183.481094 316.706687)scale(0.1 -0.1)">
      <defs>
       <path d="M -19 4666 
L 3928 4666 
L 3928 4134 
L 2272 4134 
L 2272 0 
L 1638 0 
L 1638 4134 
L -19 4134 
L -19 4666 
z
" id="DejaVuSans-54" transform="scale(0.015625)"/>
       <path d="M 603 3500 
L 1178 3500 
L 1178 0 
L 603 0 
L 603 3500 
z
M 603 4863 
L 1178 4863 
L 1178 4134 
L 603 4134 
L 603 4863 
z
" id="DejaVuSans-69" transform="scale(0.015625)"/>
       <path d="M 3597 1894 
L 3597 1613 
L 953 1613 
Q 991 1019 1311 708 
Q 1631 397 2203 397 
Q 2534 397 2845 478 
Q 3156 559 3463 722 
L 3463 178 
Q 3153 47 2828 -22 
Q 2503 -91 2169 -91 
Q 1331 -91 842 396 
Q 353 884 353 1716 
Q 353 2575 817 3079 
Q 1281 3584 2069 3584 
Q 2775 3584 3186 3129 
Q 3597 2675 3597 1894 
z
M 3022 2063 
Q 3016 2534 2758 2815 
Q 2500 3097 2075 3097 
Q 1594 3097 1305 2825 
Q 1016 2553 972 2059 
L 3022 2063 
z
" id="DejaVuSans-65" transform="scale(0.015625)"/>
       <path id="DejaVuSans-20" transform="scale(0.015625)"/>
       <path d="M 1984 4856 
Q 1566 4138 1362 3434 
Q 1159 2731 1159 2009 
Q 1159 1288 1364 580 
Q 1569 -128 1984 -844 
L 1484 -844 
Q 1016 -109 783 600 
Q 550 1309 550 2009 
Q 550 2706 781 3412 
Q 1013 4119 1484 4856 
L 1984 4856 
z
" id="DejaVuSans-28" transform="scale(0.015625)"/>
       <path d="M 1959 3097 
Q 1497 3097 1228 2736 
Q 959 2375 959 1747 
Q 959 1119 1226 758 
Q 1494 397 1959 397 
Q 2419 397 2687 759 
Q 2956 1122 2956 1747 
Q 2956 2369 2687 2733 
Q 2419 3097 1959 3097 
z
M 1959 3584 
Q 2709 3584 3137 3096 
Q 3566 2609 3566 1747 
Q 3566 888 3137 398 
Q 2709 -91 1959 -91 
Q 1206 -91 779 398 
Q 353 888 353 1747 
Q 353 2609 779 3096 
Q 1206 3584 1959 3584 
z
" id="DejaVuSans-6f" transform="scale(0.015625)"/>
       <path d="M 544 1381 
L 544 3500 
L 1119 3500 
L 1119 1403 
Q 1119 906 1312 657 
Q 1506 409 1894 409 
Q 2359 409 2629 706 
Q 2900 1003 2900 1516 
L 2900 3500 
L 3475 3500 
L 3475 0 
L 2900 0 
L 2900 538 
Q 2691 219 2414 64 
Q 2138 -91 1772 -91 
Q 1169 -91 856 284 
Q 544 659 544 1381 
z
M 1991 3584 
L 1991 3584 
z
" id="DejaVuSans-75" transform="scale(0.015625)"/>
       <path d="M 2631 2963 
Q 2534 3019 2420 3045 
Q 2306 3072 2169 3072 
Q 1681 3072 1420 2755 
Q 1159 2438 1159 1844 
L 1159 0 
L 581 0 
L 581 3500 
L 1159 3500 
L 1159 2956 
Q 1341 3275 1631 3429 
Q 1922 3584 2338 3584 
Q 2397 3584 2469 3576 
Q 2541 3569 2628 3553 
L 2631 2963 
z
" id="DejaVuSans-72" transform="scale(0.015625)"/>
       <path d="M 3513 2113 
L 3513 0 
L 2938 0 
L 2938 2094 
Q 2938 2591 2744 2837 
Q 2550 3084 2163 3084 
Q 1697 3084 1428 2787 
Q 1159 2491 1159 1978 
L 1159 0 
L 581 0 
L 581 3500 
L 1159 3500 
L 1159 2956 
Q 1366 3272 1645 3428 
Q 1925 3584 2291 3584 
Q 2894 3584 3203 3211 
Q 3513 2838 3513 2113 
z
" id="DejaVuSans-6e" transform="scale(0.015625)"/>
       <path d="M 1172 4494 
L 1172 3500 
L 2356 3500 
L 2356 3053 
L 1172 3053 
L 1172 1153 
Q 1172 725 1289 603 
Q 1406 481 1766 481 
L 2356 481 
L 2356 0 
L 1766 0 
Q 1100 0 847 248 
Q 594 497 594 1153 
L 594 3053 
L 172 3053 
L 172 3500 
L 594 3500 
L 594 4494 
L 1172 4494 
z
" id="DejaVuSans-74" transform="scale(0.015625)"/>
       <path d="M 513 4856 
L 1013 4856 
Q 1481 4119 1714 3412 
Q 1947 2706 1947 2009 
Q 1947 1309 1714 600 
Q 1481 -109 1013 -844 
L 513 -844 
Q 928 -128 1133 580 
Q 1338 1288 1338 2009 
Q 1338 2731 1133 3434 
Q 928 4138 513 4856 
z
" id="DejaVuSans-29" transform="scale(0.015625)"/>
      </defs>
      <use xlink:href="#DejaVuSans-54"/>
      <use x="57.958984" xlink:href="#DejaVuSans-69"/>
      <use x="85.742188" xlink:href="#DejaVuSans-6d"/>
      <use x="183.154297" xlink:href="#DejaVuSans-65"/>
      <use x="244.677734" xlink:href="#DejaVuSans-20"/>
      <use x="276.464844" xlink:href="#DejaVuSans-28"/>
      <use x="315.478516" xlink:href="#DejaVuSans-68"/>
      <use x="378.857422" xlink:href="#DejaVuSans-6f"/>
      <use x="440.039062" xlink:href="#DejaVuSans-75"/>
      <use x="503.417969" xlink:href="#DejaVuSans-72"/>
      <use x="542.78125" xlink:href="#DejaVuSans-3a"/>
      <use x="576.472656" xlink:href="#DejaVuSans-6d"/>
      <use x="673.884766" xlink:href="#DejaVuSans-69"/>
      <use x="701.667969" xlink:href="#DejaVuSans-6e"/>
      <use x="765.046875" xlink:href="#DejaVuSans-75"/>
      <use x="828.425781" xlink:href="#DejaVuSans-74"/>
      <use x="867.634766" xlink:href="#DejaVuSans-65"/>
      <use x="929.158203" xlink:href="#DejaVuSans-29"/>
     </g>
    </g>
   </g>
   <g id="matplotlib.axis_2">
    <g id="ytick_1">
     <g id="line2d_24">
      <defs>
       <path d="M 0 0 
L -3.5 0 
" id="mf9f3faaace" style="stroke:#000000;stroke-width:0.8;"/>
      </defs>
      <g>
       <use style="stroke:#000000;stroke-width:0.8;" x="53.328125" xlink:href="#mf9f3faaace" y="260.951928"/>
      </g>
     </g>
     <g id="text_8">
      <!-- 2000 -->
      <g transform="translate(20.878125 264.751147)scale(0.1 -0.1)">
       <defs>
        <path d="M 2034 4250 
Q 1547 4250 1301 3770 
Q 1056 3291 1056 2328 
Q 1056 1369 1301 889 
Q 1547 409 2034 409 
Q 2525 409 2770 889 
Q 3016 1369 3016 2328 
Q 3016 3291 2770 3770 
Q 2525 4250 2034 4250 
z
M 2034 4750 
Q 2819 4750 3233 4129 
Q 3647 3509 3647 2328 
Q 3647 1150 3233 529 
Q 2819 -91 2034 -91 
Q 1250 -91 836 529 
Q 422 1150 422 2328 
Q 422 3509 836 4129 
Q 1250 4750 2034 4750 
z
" id="DejaVuSans-30" transform="scale(0.015625)"/>
       </defs>
       <use xlink:href="#DejaVuSans-32"/>
       <use x="63.623047" xlink:href="#DejaVuSans-30"/>
       <use x="127.246094" xlink:href="#DejaVuSans-30"/>
       <use x="190.869141" xlink:href="#DejaVuSans-30"/>
      </g>
     </g>
    </g>
    <g id="ytick_2">
     <g id="line2d_25">
      <g>
       <use style="stroke:#000000;stroke-width:0.8;" x="53.328125" xlink:href="#mf9f3faaace" y="225.992391"/>
      </g>
     </g>
     <g id="text_9">
      <!-- 2100 -->
      <g transform="translate(20.878125 229.79161)scale(0.1 -0.1)">
       <use xlink:href="#DejaVuSans-32"/>
       <use x="63.623047" xlink:href="#DejaVuSans-31"/>
       <use x="127.246094" xlink:href="#DejaVuSans-30"/>
       <use x="190.869141" xlink:href="#DejaVuSans-30"/>
      </g>
     </g>
    </g>
    <g id="ytick_3">
     <g id="line2d_26">
      <g>
       <use style="stroke:#000000;stroke-width:0.8;" x="53.328125" xlink:href="#mf9f3faaace" y="191.032853"/>
      </g>
     </g>
     <g id="text_10">
      <!-- 2200 -->
      <g transform="translate(20.878125 194.832072)scale(0.1 -0.1)">
       <use xlink:href="#DejaVuSans-32"/>
       <use x="63.623047" xlink:href="#DejaVuSans-32"/>
       <use x="127.246094" xlink:href="#DejaVuSans-30"/>
       <use x="190.869141" xlink:href="#DejaVuSans-30"/>
      </g>
     </g>
    </g>
    <g id="ytick_4">
     <g id="line2d_27">
      <g>
       <use style="stroke:#000000;stroke-width:0.8;" x="53.328125" xlink:href="#mf9f3faaace" y="156.073316"/>
      </g>
     </g>
     <g id="text_11">
      <!-- 2300 -->
      <g transform="translate(20.878125 159.872535)scale(0.1 -0.1)">
       <use xlink:href="#DejaVuSans-32"/>
       <use x="63.623047" xlink:href="#DejaVuSans-33"/>
       <use x="127.246094" xlink:href="#DejaVuSans-30"/>
       <use x="190.869141" xlink:href="#DejaVuSans-30"/>
      </g>
     </g>
    </g>
    <g id="ytick_5">
     <g id="line2d_28">
      <g>
       <use style="stroke:#000000;stroke-width:0.8;" x="53.328125" xlink:href="#mf9f3faaace" y="121.113778"/>
      </g>
     </g>
     <g id="text_12">
      <!-- 2400 -->
      <g transform="translate(20.878125 124.912997)scale(0.1 -0.1)">
       <use xlink:href="#DejaVuSans-32"/>
       <use x="63.623047" xlink:href="#DejaVuSans-34"/>
       <use x="127.246094" xlink:href="#DejaVuSans-30"/>
       <use x="190.869141" xlink:href="#DejaVuSans-30"/>
      </g>
     </g>
    </g>
    <g id="ytick_6">
     <g id="line2d_29">
      <g>
       <use style="stroke:#000000;stroke-width:0.8;" x="53.328125" xlink:href="#mf9f3faaace" y="86.154241"/>
      </g>
     </g>
     <g id="text_13">
      <!-- 2500 -->
      <g transform="translate(20.878125 89.953459)scale(0.1 -0.1)">
       <defs>
        <path d="M 691 4666 
L 3169 4666 
L 3169 4134 
L 1269 4134 
L 1269 2991 
Q 1406 3038 1543 3061 
Q 1681 3084 1819 3084 
Q 2600 3084 3056 2656 
Q 3513 2228 3513 1497 
Q 3513 744 3044 326 
Q 2575 -91 1722 -91 
Q 1428 -91 1123 -41 
Q 819 9 494 109 
L 494 744 
Q 775 591 1075 516 
Q 1375 441 1709 441 
Q 2250 441 2565 725 
Q 2881 1009 2881 1497 
Q 2881 1984 2565 2268 
Q 2250 2553 1709 2553 
Q 1456 2553 1204 2497 
Q 953 2441 691 2322 
L 691 4666 
z
" id="DejaVuSans-35" transform="scale(0.015625)"/>
       </defs>
       <use xlink:href="#DejaVuSans-32"/>
       <use x="63.623047" xlink:href="#DejaVuSans-35"/>
       <use x="127.246094" xlink:href="#DejaVuSans-30"/>
       <use x="190.869141" xlink:href="#DejaVuSans-30"/>
      </g>
     </g>
    </g>
    <g id="ytick_7">
     <g id="line2d_30">
      <g>
       <use style="stroke:#000000;stroke-width:0.8;" x="53.328125" xlink:href="#mf9f3faaace" y="51.194703"/>
      </g>
     </g>
     <g id="text_14">
      <!-- 2600 -->
      <g transform="translate(20.878125 54.993922)scale(0.1 -0.1)">
       <use xlink:href="#DejaVuSans-32"/>
       <use x="63.623047" xlink:href="#DejaVuSans-36"/>
       <use x="127.246094" xlink:href="#DejaVuSans-30"/>
       <use x="190.869141" xlink:href="#DejaVuSans-30"/>
      </g>
     </g>
    </g>
    <g id="text_15">
     <!-- Code region coverage -->
     <g transform="translate(14.798438 210.379594)rotate(-90)scale(0.1 -0.1)">
      <defs>
       <path d="M 4122 4306 
L 4122 3641 
Q 3803 3938 3442 4084 
Q 3081 4231 2675 4231 
Q 1875 4231 1450 3742 
Q 1025 3253 1025 2328 
Q 1025 1406 1450 917 
Q 1875 428 2675 428 
Q 3081 428 3442 575 
Q 3803 722 4122 1019 
L 4122 359 
Q 3791 134 3420 21 
Q 3050 -91 2638 -91 
Q 1578 -91 968 557 
Q 359 1206 359 2328 
Q 359 3453 968 4101 
Q 1578 4750 2638 4750 
Q 3056 4750 3426 4639 
Q 3797 4528 4122 4306 
z
" id="DejaVuSans-43" transform="scale(0.015625)"/>
       <path d="M 2906 2969 
L 2906 4863 
L 3481 4863 
L 3481 0 
L 2906 0 
L 2906 525 
Q 2725 213 2448 61 
Q 2172 -91 1784 -91 
Q 1150 -91 751 415 
Q 353 922 353 1747 
Q 353 2572 751 3078 
Q 1150 3584 1784 3584 
Q 2172 3584 2448 3432 
Q 2725 3281 2906 2969 
z
M 947 1747 
Q 947 1113 1208 752 
Q 1469 391 1925 391 
Q 2381 391 2643 752 
Q 2906 1113 2906 1747 
Q 2906 2381 2643 2742 
Q 2381 3103 1925 3103 
Q 1469 3103 1208 2742 
Q 947 2381 947 1747 
z
" id="DejaVuSans-64" transform="scale(0.015625)"/>
       <path d="M 2906 1791 
Q 2906 2416 2648 2759 
Q 2391 3103 1925 3103 
Q 1463 3103 1205 2759 
Q 947 2416 947 1791 
Q 947 1169 1205 825 
Q 1463 481 1925 481 
Q 2391 481 2648 825 
Q 2906 1169 2906 1791 
z
M 3481 434 
Q 3481 -459 3084 -895 
Q 2688 -1331 1869 -1331 
Q 1566 -1331 1297 -1286 
Q 1028 -1241 775 -1147 
L 775 -588 
Q 1028 -725 1275 -790 
Q 1522 -856 1778 -856 
Q 2344 -856 2625 -561 
Q 2906 -266 2906 331 
L 2906 616 
Q 2728 306 2450 153 
Q 2172 0 1784 0 
Q 1141 0 747 490 
Q 353 981 353 1791 
Q 353 2603 747 3093 
Q 1141 3584 1784 3584 
Q 2172 3584 2450 3431 
Q 2728 3278 2906 2969 
L 2906 3500 
L 3481 3500 
L 3481 434 
z
" id="DejaVuSans-67" transform="scale(0.015625)"/>
       <path d="M 3122 3366 
L 3122 2828 
Q 2878 2963 2633 3030 
Q 2388 3097 2138 3097 
Q 1578 3097 1268 2742 
Q 959 2388 959 1747 
Q 959 1106 1268 751 
Q 1578 397 2138 397 
Q 2388 397 2633 464 
Q 2878 531 3122 666 
L 3122 134 
Q 2881 22 2623 -34 
Q 2366 -91 2075 -91 
Q 1284 -91 818 406 
Q 353 903 353 1747 
Q 353 2603 823 3093 
Q 1294 3584 2113 3584 
Q 2378 3584 2631 3529 
Q 2884 3475 3122 3366 
z
" id="DejaVuSans-63" transform="scale(0.015625)"/>
       <path d="M 191 3500 
L 800 3500 
L 1894 563 
L 2988 3500 
L 3597 3500 
L 2284 0 
L 1503 0 
L 191 3500 
z
" id="DejaVuSans-76" transform="scale(0.015625)"/>
       <path d="M 2194 1759 
Q 1497 1759 1228 1600 
Q 959 1441 959 1056 
Q 959 750 1161 570 
Q 1363 391 1709 391 
Q 2188 391 2477 730 
Q 2766 1069 2766 1631 
L 2766 1759 
L 2194 1759 
z
M 3341 1997 
L 3341 0 
L 2766 0 
L 2766 531 
Q 2569 213 2275 61 
Q 1981 -91 1556 -91 
Q 1019 -91 701 211 
Q 384 513 384 1019 
Q 384 1609 779 1909 
Q 1175 2209 1959 2209 
L 2766 2209 
L 2766 2266 
Q 2766 2663 2505 2880 
Q 2244 3097 1772 3097 
Q 1472 3097 1187 3025 
Q 903 2953 641 2809 
L 641 3341 
Q 956 3463 1253 3523 
Q 1550 3584 1831 3584 
Q 2591 3584 2966 3190 
Q 3341 2797 3341 1997 
z
" id="DejaVuSans-61" transform="scale(0.015625)"/>
      </defs>
      <use xlink:href="#DejaVuSans-43"/>
      <use x="69.824219" xlink:href="#DejaVuSans-6f"/>
      <use x="131.005859" xlink:href="#DejaVuSans-64"/>
      <use x="194.482422" xlink:href="#DejaVuSans-65"/>
      <use x="256.005859" xlink:href="#DejaVuSans-20"/>
      <use x="287.792969" xlink:href="#DejaVuSans-72"/>
      <use x="326.65625" xlink:href="#DejaVuSans-65"/>
      <use x="388.179688" xlink:href="#DejaVuSans-67"/>
      <use x="451.65625" xlink:href="#DejaVuSans-69"/>
      <use x="479.439453" xlink:href="#DejaVuSans-6f"/>
      <use x="540.621094" xlink:href="#DejaVuSans-6e"/>
      <use x="604" xlink:href="#DejaVuSans-20"/>
      <use x="635.787109" xlink:href="#DejaVuSans-63"/>
      <use x="690.767578" xlink:href="#DejaVuSans-6f"/>
      <use x="751.949219" xlink:href="#DejaVuSans-76"/>
      <use x="811.128906" xlink:href="#DejaVuSans-65"/>
      <use x="872.652344" xlink:href="#DejaVuSans-72"/>
      <use x="913.765625" xlink:href="#DejaVuSans-61"/>
      <use x="975.044922" xlink:href="#DejaVuSans-67"/>
      <use x="1038.521484" xlink:href="#DejaVuSans-65"/>
     </g>
    </g>
   </g>
   <g id="line2d_31">
    <path clip-path="url(#p5a4d881cd4)" d="M 69.560852 146.983836 
L 119.327306 132.650426 
L 148.438816 128.455281 
L 169.09376 128.105686 
L 185.11498 127.406495 
L 198.205269 126.707304 
L 209.272952 124.959327 
L 218.860214 123.386148 
L 227.316779 122.162564 
L 234.881434 121.812969 
L 241.724496 121.812969 
L 247.971723 120.589385 
L 253.718615 120.414587 
L 259.039406 120.064992 
L 263.992943 118.666611 
L 268.626668 117.268229 
L 272.979383 116.918634 
L 277.083233 116.918634 
L 280.965141 116.918634 
L 284.647888 116.569038 
L 288.150915 116.569038 
L 291.49095 116.569038 
L 294.68249 116.569038 
L 297.738177 116.569038 
L 300.669107 116.569038 
L 303.485069 115.869848 
L 306.194742 115.520252 
L 308.805859 115.520252 
L 311.32534 115.520252 
L 313.759397 115.170657 
L 316.113635 115.170657 
L 318.393122 114.995859 
L 320.60246 114.471466 
L 322.745837 114.471466 
L 324.827079 114.471466 
L 326.849687 114.471466 
L 328.816873 114.471466 
L 330.731595 114.471466 
L 332.596578 114.121871 
L 334.414342 114.121871 
L 336.187217 112.024298 
L 337.917369 112.024298 
L 339.606807 110.276322 
L 341.257404 110.276322 
L 342.870906 110.276322 
L 344.448944 107.129963 
L 345.993042 107.129963 
L 347.504631 102.585223 
L 348.985051 102.585223 
L 350.435561 88.251813 
L 351.857347 86.503836 
L 353.251523 86.329038 
L 354.619142 82.133894 
L 355.961196 82.133894 
L 357.278624 61.682564 
L 358.572313 61.682564 
L 359.843104 61.682564 
L 361.091794 82.133894 
L 362.319136 82.133894 
L 363.525851 82.133894 
L 364.712619 82.133894 
L 365.880089 82.133894 
L 367.028878 82.133894 
L 368.159576 61.682564 
L 369.272743 61.682564 
L 370.368914 61.682564 
L 371.4486 61.682564 
L 372.512291 82.133894 
L 373.560453 82.133894 
L 374.593533 82.133894 
L 375.611959 61.682564 
L 376.616141 61.682564 
L 377.606471 61.682564 
L 378.583327 61.682564 
L 379.547071 102.585223 
L 380.498049 102.585223 
L 381.436596 102.585223 
L 382.363032 102.585223 
L 383.277666 69.898056 
L 384.180795 69.723258 
L 385.072705 61.682564 
L 385.953671 61.682564 
L 386.823958 61.682564 
L 387.683823 56.963027 
L 388.533511 56.788229 
L 389.373261 55.564645 
L 390.203303 55.564645 
L 391.023858 55.564645 
L 391.835142 55.564645 
L 392.63736 53.467073 
L 393.430714 53.467073 
L 394.215398 53.467073 
" style="fill:none;stroke:#98df8a;stroke-linecap:square;stroke-width:1.5;"/>
    <defs>
     <path d="M -0 3 
L 3 -3 
L -3 -3 
z
" id="me33f7dc03c" style="stroke:#ffffff;stroke-linejoin:miter;stroke-width:0.75;"/>
    </defs>
    <g clip-path="url(#p5a4d881cd4)">
     <use style="fill:#98df8a;stroke:#ffffff;stroke-linejoin:miter;stroke-width:0.75;" x="69.560852" xlink:href="#me33f7dc03c" y="146.983836"/>
     <use style="fill:#98df8a;stroke:#ffffff;stroke-linejoin:miter;stroke-width:0.75;" x="119.327306" xlink:href="#me33f7dc03c" y="132.650426"/>
     <use style="fill:#98df8a;stroke:#ffffff;stroke-linejoin:miter;stroke-width:0.75;" x="148.438816" xlink:href="#me33f7dc03c" y="128.455281"/>
     <use style="fill:#98df8a;stroke:#ffffff;stroke-linejoin:miter;stroke-width:0.75;" x="169.09376" xlink:href="#me33f7dc03c" y="128.105686"/>
     <use style="fill:#98df8a;stroke:#ffffff;stroke-linejoin:miter;stroke-width:0.75;" x="185.11498" xlink:href="#me33f7dc03c" y="127.406495"/>
     <use style="fill:#98df8a;stroke:#ffffff;stroke-linejoin:miter;stroke-width:0.75;" x="198.205269" xlink:href="#me33f7dc03c" y="126.707304"/>
     <use style="fill:#98df8a;stroke:#ffffff;stroke-linejoin:miter;stroke-width:0.75;" x="209.272952" xlink:href="#me33f7dc03c" y="124.959327"/>
     <use style="fill:#98df8a;stroke:#ffffff;stroke-linejoin:miter;stroke-width:0.75;" x="218.860214" xlink:href="#me33f7dc03c" y="123.386148"/>
     <use style="fill:#98df8a;stroke:#ffffff;stroke-linejoin:miter;stroke-width:0.75;" x="227.316779" xlink:href="#me33f7dc03c" y="122.162564"/>
     <use style="fill:#98df8a;stroke:#ffffff;stroke-linejoin:miter;stroke-width:0.75;" x="234.881434" xlink:href="#me33f7dc03c" y="121.812969"/>
     <use style="fill:#98df8a;stroke:#ffffff;stroke-linejoin:miter;stroke-width:0.75;" x="241.724496" xlink:href="#me33f7dc03c" y="121.812969"/>
     <use style="fill:#98df8a;stroke:#ffffff;stroke-linejoin:miter;stroke-width:0.75;" x="247.971723" xlink:href="#me33f7dc03c" y="120.589385"/>
     <use style="fill:#98df8a;stroke:#ffffff;stroke-linejoin:miter;stroke-width:0.75;" x="253.718615" xlink:href="#me33f7dc03c" y="120.414587"/>
     <use style="fill:#98df8a;stroke:#ffffff;stroke-linejoin:miter;stroke-width:0.75;" x="259.039406" xlink:href="#me33f7dc03c" y="120.064992"/>
     <use style="fill:#98df8a;stroke:#ffffff;stroke-linejoin:miter;stroke-width:0.75;" x="263.992943" xlink:href="#me33f7dc03c" y="118.666611"/>
     <use style="fill:#98df8a;stroke:#ffffff;stroke-linejoin:miter;stroke-width:0.75;" x="268.626668" xlink:href="#me33f7dc03c" y="117.268229"/>
     <use style="fill:#98df8a;stroke:#ffffff;stroke-linejoin:miter;stroke-width:0.75;" x="272.979383" xlink:href="#me33f7dc03c" y="116.918634"/>
     <use style="fill:#98df8a;stroke:#ffffff;stroke-linejoin:miter;stroke-width:0.75;" x="277.083233" xlink:href="#me33f7dc03c" y="116.918634"/>
     <use style="fill:#98df8a;stroke:#ffffff;stroke-linejoin:miter;stroke-width:0.75;" x="280.965141" xlink:href="#me33f7dc03c" y="116.918634"/>
     <use style="fill:#98df8a;stroke:#ffffff;stroke-linejoin:miter;stroke-width:0.75;" x="284.647888" xlink:href="#me33f7dc03c" y="116.569038"/>
     <use style="fill:#98df8a;stroke:#ffffff;stroke-linejoin:miter;stroke-width:0.75;" x="288.150915" xlink:href="#me33f7dc03c" y="116.569038"/>
     <use style="fill:#98df8a;stroke:#ffffff;stroke-linejoin:miter;stroke-width:0.75;" x="291.49095" xlink:href="#me33f7dc03c" y="116.569038"/>
     <use style="fill:#98df8a;stroke:#ffffff;stroke-linejoin:miter;stroke-width:0.75;" x="294.68249" xlink:href="#me33f7dc03c" y="116.569038"/>
     <use style="fill:#98df8a;stroke:#ffffff;stroke-linejoin:miter;stroke-width:0.75;" x="297.738177" xlink:href="#me33f7dc03c" y="116.569038"/>
     <use style="fill:#98df8a;stroke:#ffffff;stroke-linejoin:miter;stroke-width:0.75;" x="300.669107" xlink:href="#me33f7dc03c" y="116.569038"/>
     <use style="fill:#98df8a;stroke:#ffffff;stroke-linejoin:miter;stroke-width:0.75;" x="303.485069" xlink:href="#me33f7dc03c" y="115.869848"/>
     <use style="fill:#98df8a;stroke:#ffffff;stroke-linejoin:miter;stroke-width:0.75;" x="306.194742" xlink:href="#me33f7dc03c" y="115.520252"/>
     <use style="fill:#98df8a;stroke:#ffffff;stroke-linejoin:miter;stroke-width:0.75;" x="308.805859" xlink:href="#me33f7dc03c" y="115.520252"/>
     <use style="fill:#98df8a;stroke:#ffffff;stroke-linejoin:miter;stroke-width:0.75;" x="311.32534" xlink:href="#me33f7dc03c" y="115.520252"/>
     <use style="fill:#98df8a;stroke:#ffffff;stroke-linejoin:miter;stroke-width:0.75;" x="313.759397" xlink:href="#me33f7dc03c" y="115.170657"/>
     <use style="fill:#98df8a;stroke:#ffffff;stroke-linejoin:miter;stroke-width:0.75;" x="316.113635" xlink:href="#me33f7dc03c" y="115.170657"/>
     <use style="fill:#98df8a;stroke:#ffffff;stroke-linejoin:miter;stroke-width:0.75;" x="318.393122" xlink:href="#me33f7dc03c" y="114.995859"/>
     <use style="fill:#98df8a;stroke:#ffffff;stroke-linejoin:miter;stroke-width:0.75;" x="320.60246" xlink:href="#me33f7dc03c" y="114.471466"/>
     <use style="fill:#98df8a;stroke:#ffffff;stroke-linejoin:miter;stroke-width:0.75;" x="322.745837" xlink:href="#me33f7dc03c" y="114.471466"/>
     <use style="fill:#98df8a;stroke:#ffffff;stroke-linejoin:miter;stroke-width:0.75;" x="324.827079" xlink:href="#me33f7dc03c" y="114.471466"/>
     <use style="fill:#98df8a;stroke:#ffffff;stroke-linejoin:miter;stroke-width:0.75;" x="326.849687" xlink:href="#me33f7dc03c" y="114.471466"/>
     <use style="fill:#98df8a;stroke:#ffffff;stroke-linejoin:miter;stroke-width:0.75;" x="328.816873" xlink:href="#me33f7dc03c" y="114.471466"/>
     <use style="fill:#98df8a;stroke:#ffffff;stroke-linejoin:miter;stroke-width:0.75;" x="330.731595" xlink:href="#me33f7dc03c" y="114.471466"/>
     <use style="fill:#98df8a;stroke:#ffffff;stroke-linejoin:miter;stroke-width:0.75;" x="332.596578" xlink:href="#me33f7dc03c" y="114.121871"/>
     <use style="fill:#98df8a;stroke:#ffffff;stroke-linejoin:miter;stroke-width:0.75;" x="334.414342" xlink:href="#me33f7dc03c" y="114.121871"/>
     <use style="fill:#98df8a;stroke:#ffffff;stroke-linejoin:miter;stroke-width:0.75;" x="336.187217" xlink:href="#me33f7dc03c" y="112.024298"/>
     <use style="fill:#98df8a;stroke:#ffffff;stroke-linejoin:miter;stroke-width:0.75;" x="337.917369" xlink:href="#me33f7dc03c" y="112.024298"/>
     <use style="fill:#98df8a;stroke:#ffffff;stroke-linejoin:miter;stroke-width:0.75;" x="339.606807" xlink:href="#me33f7dc03c" y="110.276322"/>
     <use style="fill:#98df8a;stroke:#ffffff;stroke-linejoin:miter;stroke-width:0.75;" x="341.257404" xlink:href="#me33f7dc03c" y="110.276322"/>
     <use style="fill:#98df8a;stroke:#ffffff;stroke-linejoin:miter;stroke-width:0.75;" x="342.870906" xlink:href="#me33f7dc03c" y="110.276322"/>
     <use style="fill:#98df8a;stroke:#ffffff;stroke-linejoin:miter;stroke-width:0.75;" x="344.448944" xlink:href="#me33f7dc03c" y="107.129963"/>
     <use style="fill:#98df8a;stroke:#ffffff;stroke-linejoin:miter;stroke-width:0.75;" x="345.993042" xlink:href="#me33f7dc03c" y="107.129963"/>
     <use style="fill:#98df8a;stroke:#ffffff;stroke-linejoin:miter;stroke-width:0.75;" x="347.504631" xlink:href="#me33f7dc03c" y="102.585223"/>
     <use style="fill:#98df8a;stroke:#ffffff;stroke-linejoin:miter;stroke-width:0.75;" x="348.985051" xlink:href="#me33f7dc03c" y="102.585223"/>
     <use style="fill:#98df8a;stroke:#ffffff;stroke-linejoin:miter;stroke-width:0.75;" x="350.435561" xlink:href="#me33f7dc03c" y="88.251813"/>
     <use style="fill:#98df8a;stroke:#ffffff;stroke-linejoin:miter;stroke-width:0.75;" x="351.857347" xlink:href="#me33f7dc03c" y="86.503836"/>
     <use style="fill:#98df8a;stroke:#ffffff;stroke-linejoin:miter;stroke-width:0.75;" x="353.251523" xlink:href="#me33f7dc03c" y="86.329038"/>
     <use style="fill:#98df8a;stroke:#ffffff;stroke-linejoin:miter;stroke-width:0.75;" x="354.619142" xlink:href="#me33f7dc03c" y="82.133894"/>
     <use style="fill:#98df8a;stroke:#ffffff;stroke-linejoin:miter;stroke-width:0.75;" x="355.961196" xlink:href="#me33f7dc03c" y="82.133894"/>
     <use style="fill:#98df8a;stroke:#ffffff;stroke-linejoin:miter;stroke-width:0.75;" x="357.278624" xlink:href="#me33f7dc03c" y="61.682564"/>
     <use style="fill:#98df8a;stroke:#ffffff;stroke-linejoin:miter;stroke-width:0.75;" x="358.572313" xlink:href="#me33f7dc03c" y="61.682564"/>
     <use style="fill:#98df8a;stroke:#ffffff;stroke-linejoin:miter;stroke-width:0.75;" x="359.843104" xlink:href="#me33f7dc03c" y="61.682564"/>
     <use style="fill:#98df8a;stroke:#ffffff;stroke-linejoin:miter;stroke-width:0.75;" x="361.091794" xlink:href="#me33f7dc03c" y="82.133894"/>
     <use style="fill:#98df8a;stroke:#ffffff;stroke-linejoin:miter;stroke-width:0.75;" x="362.319136" xlink:href="#me33f7dc03c" y="82.133894"/>
     <use style="fill:#98df8a;stroke:#ffffff;stroke-linejoin:miter;stroke-width:0.75;" x="363.525851" xlink:href="#me33f7dc03c" y="82.133894"/>
     <use style="fill:#98df8a;stroke:#ffffff;stroke-linejoin:miter;stroke-width:0.75;" x="364.712619" xlink:href="#me33f7dc03c" y="82.133894"/>
     <use style="fill:#98df8a;stroke:#ffffff;stroke-linejoin:miter;stroke-width:0.75;" x="365.880089" xlink:href="#me33f7dc03c" y="82.133894"/>
     <use style="fill:#98df8a;stroke:#ffffff;stroke-linejoin:miter;stroke-width:0.75;" x="367.028878" xlink:href="#me33f7dc03c" y="82.133894"/>
     <use style="fill:#98df8a;stroke:#ffffff;stroke-linejoin:miter;stroke-width:0.75;" x="368.159576" xlink:href="#me33f7dc03c" y="61.682564"/>
     <use style="fill:#98df8a;stroke:#ffffff;stroke-linejoin:miter;stroke-width:0.75;" x="369.272743" xlink:href="#me33f7dc03c" y="61.682564"/>
     <use style="fill:#98df8a;stroke:#ffffff;stroke-linejoin:miter;stroke-width:0.75;" x="370.368914" xlink:href="#me33f7dc03c" y="61.682564"/>
     <use style="fill:#98df8a;stroke:#ffffff;stroke-linejoin:miter;stroke-width:0.75;" x="371.4486" xlink:href="#me33f7dc03c" y="61.682564"/>
     <use style="fill:#98df8a;stroke:#ffffff;stroke-linejoin:miter;stroke-width:0.75;" x="372.512291" xlink:href="#me33f7dc03c" y="82.133894"/>
     <use style="fill:#98df8a;stroke:#ffffff;stroke-linejoin:miter;stroke-width:0.75;" x="373.560453" xlink:href="#me33f7dc03c" y="82.133894"/>
     <use style="fill:#98df8a;stroke:#ffffff;stroke-linejoin:miter;stroke-width:0.75;" x="374.593533" xlink:href="#me33f7dc03c" y="82.133894"/>
     <use style="fill:#98df8a;stroke:#ffffff;stroke-linejoin:miter;stroke-width:0.75;" x="375.611959" xlink:href="#me33f7dc03c" y="61.682564"/>
     <use style="fill:#98df8a;stroke:#ffffff;stroke-linejoin:miter;stroke-width:0.75;" x="376.616141" xlink:href="#me33f7dc03c" y="61.682564"/>
     <use style="fill:#98df8a;stroke:#ffffff;stroke-linejoin:miter;stroke-width:0.75;" x="377.606471" xlink:href="#me33f7dc03c" y="61.682564"/>
     <use style="fill:#98df8a;stroke:#ffffff;stroke-linejoin:miter;stroke-width:0.75;" x="378.583327" xlink:href="#me33f7dc03c" y="61.682564"/>
     <use style="fill:#98df8a;stroke:#ffffff;stroke-linejoin:miter;stroke-width:0.75;" x="379.547071" xlink:href="#me33f7dc03c" y="102.585223"/>
     <use style="fill:#98df8a;stroke:#ffffff;stroke-linejoin:miter;stroke-width:0.75;" x="380.498049" xlink:href="#me33f7dc03c" y="102.585223"/>
     <use style="fill:#98df8a;stroke:#ffffff;stroke-linejoin:miter;stroke-width:0.75;" x="381.436596" xlink:href="#me33f7dc03c" y="102.585223"/>
     <use style="fill:#98df8a;stroke:#ffffff;stroke-linejoin:miter;stroke-width:0.75;" x="382.363032" xlink:href="#me33f7dc03c" y="102.585223"/>
     <use style="fill:#98df8a;stroke:#ffffff;stroke-linejoin:miter;stroke-width:0.75;" x="383.277666" xlink:href="#me33f7dc03c" y="69.898056"/>
     <use style="fill:#98df8a;stroke:#ffffff;stroke-linejoin:miter;stroke-width:0.75;" x="384.180795" xlink:href="#me33f7dc03c" y="69.723258"/>
     <use style="fill:#98df8a;stroke:#ffffff;stroke-linejoin:miter;stroke-width:0.75;" x="385.072705" xlink:href="#me33f7dc03c" y="61.682564"/>
     <use style="fill:#98df8a;stroke:#ffffff;stroke-linejoin:miter;stroke-width:0.75;" x="385.953671" xlink:href="#me33f7dc03c" y="61.682564"/>
     <use style="fill:#98df8a;stroke:#ffffff;stroke-linejoin:miter;stroke-width:0.75;" x="386.823958" xlink:href="#me33f7dc03c" y="61.682564"/>
     <use style="fill:#98df8a;stroke:#ffffff;stroke-linejoin:miter;stroke-width:0.75;" x="387.683823" xlink:href="#me33f7dc03c" y="56.963027"/>
     <use style="fill:#98df8a;stroke:#ffffff;stroke-linejoin:miter;stroke-width:0.75;" x="388.533511" xlink:href="#me33f7dc03c" y="56.788229"/>
     <use style="fill:#98df8a;stroke:#ffffff;stroke-linejoin:miter;stroke-width:0.75;" x="389.373261" xlink:href="#me33f7dc03c" y="55.564645"/>
     <use style="fill:#98df8a;stroke:#ffffff;stroke-linejoin:miter;stroke-width:0.75;" x="390.203303" xlink:href="#me33f7dc03c" y="55.564645"/>
     <use style="fill:#98df8a;stroke:#ffffff;stroke-linejoin:miter;stroke-width:0.75;" x="391.023858" xlink:href="#me33f7dc03c" y="55.564645"/>
     <use style="fill:#98df8a;stroke:#ffffff;stroke-linejoin:miter;stroke-width:0.75;" x="391.835142" xlink:href="#me33f7dc03c" y="55.564645"/>
     <use style="fill:#98df8a;stroke:#ffffff;stroke-linejoin:miter;stroke-width:0.75;" x="392.63736" xlink:href="#me33f7dc03c" y="53.467073"/>
     <use style="fill:#98df8a;stroke:#ffffff;stroke-linejoin:miter;stroke-width:0.75;" x="393.430714" xlink:href="#me33f7dc03c" y="53.467073"/>
     <use style="fill:#98df8a;stroke:#ffffff;stroke-linejoin:miter;stroke-width:0.75;" x="394.215398" xlink:href="#me33f7dc03c" y="53.467073"/>
    </g>
   </g>
   <g id="line2d_32">
    <path clip-path="url(#p5a4d881cd4)" d="M 69.560852 182.642564 
L 119.327306 147.683027 
L 148.438816 144.711466 
L 169.09376 133.699212 
L 185.11498 131.776437 
L 198.205269 133.349616 
L 209.272952 133.349616 
L 218.860214 130.203258 
L 227.316779 128.630079 
L 234.881434 128.280483 
L 241.724496 127.406495 
L 247.971723 126.008113 
L 253.718615 126.008113 
L 259.039406 125.48372 
L 263.992943 126.357709 
L 268.626668 124.434934 
L 272.979383 122.337362 
L 277.083233 122.337362 
L 280.965141 120.93898 
L 284.647888 120.93898 
L 288.150915 120.064992 
L 291.49095 120.589385 
L 294.68249 121.113778 
L 297.738177 120.064992 
L 300.669107 117.093431 
L 303.485069 117.617824 
L 306.194742 116.219443 
L 308.805859 116.569038 
L 311.32534 115.869848 
L 313.759397 115.869848 
L 316.113635 115.869848 
L 318.393122 115.869848 
L 320.60246 115.869848 
L 322.745837 115.869848 
L 324.827079 115.869848 
L 326.849687 106.780368 
L 328.816873 115.869848 
L 330.731595 116.569038 
L 332.596578 115.869848 
L 334.414342 115.869848 
L 336.187217 115.869848 
L 337.917369 115.869848 
L 339.606807 115.869848 
L 341.257404 115.869848 
L 342.870906 115.869848 
L 344.448944 115.869848 
L 345.993042 115.869848 
L 347.504631 115.869848 
L 348.985051 87.203027 
L 350.435561 85.804645 
L 351.857347 85.105454 
L 353.251523 83.881871 
L 354.619142 83.881871 
L 355.961196 83.707073 
L 357.278624 83.707073 
L 358.572313 109.577131 
L 359.843104 109.577131 
L 361.091794 109.577131 
L 362.319136 103.983605 
L 363.525851 103.983605 
L 364.712619 103.983605 
L 365.880089 104.857593 
L 367.028878 104.857593 
L 368.159576 104.857593 
L 369.272743 104.857593 
L 370.368914 104.857593 
L 371.4486 103.983605 
L 372.512291 103.983605 
L 373.560453 103.983605 
L 374.593533 103.983605 
L 375.611959 103.983605 
L 376.616141 103.983605 
L 377.606471 89.99979 
L 378.583327 89.99979 
L 379.547071 89.99979 
L 380.498049 89.99979 
L 381.436596 76.015975 
L 382.363032 76.015975 
L 383.277666 76.015975 
L 384.180795 76.015975 
L 385.072705 76.015975 
L 385.953671 76.015975 
L 386.823958 76.015975 
L 387.683823 76.015975 
L 388.533511 89.99979 
L 389.373261 89.99979 
L 390.203303 89.99979 
L 391.023858 89.99979 
L 391.835142 76.015975 
L 392.63736 56.089038 
L 393.430714 51.019905 
L 394.215398 51.019905 
" style="fill:none;stroke:#1f77b4;stroke-linecap:square;stroke-width:1.5;"/>
    <defs>
     <path d="M 0 3 
C 0.795609 3 1.55874 2.683901 2.12132 2.12132 
C 2.683901 1.55874 3 0.795609 3 0 
C 3 -0.795609 2.683901 -1.55874 2.12132 -2.12132 
C 1.55874 -2.683901 0.795609 -3 0 -3 
C -0.795609 -3 -1.55874 -2.683901 -2.12132 -2.12132 
C -2.683901 -1.55874 -3 -0.795609 -3 0 
C -3 0.795609 -2.683901 1.55874 -2.12132 2.12132 
C -1.55874 2.683901 -0.795609 3 0 3 
z
" id="m85ed1fe0fa" style="stroke:#ffffff;stroke-width:0.75;"/>
    </defs>
    <g clip-path="url(#p5a4d881cd4)">
     <use style="fill:#1f77b4;stroke:#ffffff;stroke-width:0.75;" x="69.560852" xlink:href="#m85ed1fe0fa" y="182.642564"/>
     <use style="fill:#1f77b4;stroke:#ffffff;stroke-width:0.75;" x="119.327306" xlink:href="#m85ed1fe0fa" y="147.683027"/>
     <use style="fill:#1f77b4;stroke:#ffffff;stroke-width:0.75;" x="148.438816" xlink:href="#m85ed1fe0fa" y="144.711466"/>
     <use style="fill:#1f77b4;stroke:#ffffff;stroke-width:0.75;" x="169.09376" xlink:href="#m85ed1fe0fa" y="133.699212"/>
     <use style="fill:#1f77b4;stroke:#ffffff;stroke-width:0.75;" x="185.11498" xlink:href="#m85ed1fe0fa" y="131.776437"/>
     <use style="fill:#1f77b4;stroke:#ffffff;stroke-width:0.75;" x="198.205269" xlink:href="#m85ed1fe0fa" y="133.349616"/>
     <use style="fill:#1f77b4;stroke:#ffffff;stroke-width:0.75;" x="209.272952" xlink:href="#m85ed1fe0fa" y="133.349616"/>
     <use style="fill:#1f77b4;stroke:#ffffff;stroke-width:0.75;" x="218.860214" xlink:href="#m85ed1fe0fa" y="130.203258"/>
     <use style="fill:#1f77b4;stroke:#ffffff;stroke-width:0.75;" x="227.316779" xlink:href="#m85ed1fe0fa" y="128.630079"/>
     <use style="fill:#1f77b4;stroke:#ffffff;stroke-width:0.75;" x="234.881434" xlink:href="#m85ed1fe0fa" y="128.280483"/>
     <use style="fill:#1f77b4;stroke:#ffffff;stroke-width:0.75;" x="241.724496" xlink:href="#m85ed1fe0fa" y="127.406495"/>
     <use style="fill:#1f77b4;stroke:#ffffff;stroke-width:0.75;" x="247.971723" xlink:href="#m85ed1fe0fa" y="126.008113"/>
     <use style="fill:#1f77b4;stroke:#ffffff;stroke-width:0.75;" x="253.718615" xlink:href="#m85ed1fe0fa" y="126.008113"/>
     <use style="fill:#1f77b4;stroke:#ffffff;stroke-width:0.75;" x="259.039406" xlink:href="#m85ed1fe0fa" y="125.48372"/>
     <use style="fill:#1f77b4;stroke:#ffffff;stroke-width:0.75;" x="263.992943" xlink:href="#m85ed1fe0fa" y="126.357709"/>
     <use style="fill:#1f77b4;stroke:#ffffff;stroke-width:0.75;" x="268.626668" xlink:href="#m85ed1fe0fa" y="124.434934"/>
     <use style="fill:#1f77b4;stroke:#ffffff;stroke-width:0.75;" x="272.979383" xlink:href="#m85ed1fe0fa" y="122.337362"/>
     <use style="fill:#1f77b4;stroke:#ffffff;stroke-width:0.75;" x="277.083233" xlink:href="#m85ed1fe0fa" y="122.337362"/>
     <use style="fill:#1f77b4;stroke:#ffffff;stroke-width:0.75;" x="280.965141" xlink:href="#m85ed1fe0fa" y="120.93898"/>
     <use style="fill:#1f77b4;stroke:#ffffff;stroke-width:0.75;" x="284.647888" xlink:href="#m85ed1fe0fa" y="120.93898"/>
     <use style="fill:#1f77b4;stroke:#ffffff;stroke-width:0.75;" x="288.150915" xlink:href="#m85ed1fe0fa" y="120.064992"/>
     <use style="fill:#1f77b4;stroke:#ffffff;stroke-width:0.75;" x="291.49095" xlink:href="#m85ed1fe0fa" y="120.589385"/>
     <use style="fill:#1f77b4;stroke:#ffffff;stroke-width:0.75;" x="294.68249" xlink:href="#m85ed1fe0fa" y="121.113778"/>
     <use style="fill:#1f77b4;stroke:#ffffff;stroke-width:0.75;" x="297.738177" xlink:href="#m85ed1fe0fa" y="120.064992"/>
     <use style="fill:#1f77b4;stroke:#ffffff;stroke-width:0.75;" x="300.669107" xlink:href="#m85ed1fe0fa" y="117.093431"/>
     <use style="fill:#1f77b4;stroke:#ffffff;stroke-width:0.75;" x="303.485069" xlink:href="#m85ed1fe0fa" y="117.617824"/>
     <use style="fill:#1f77b4;stroke:#ffffff;stroke-width:0.75;" x="306.194742" xlink:href="#m85ed1fe0fa" y="116.219443"/>
     <use style="fill:#1f77b4;stroke:#ffffff;stroke-width:0.75;" x="308.805859" xlink:href="#m85ed1fe0fa" y="116.569038"/>
     <use style="fill:#1f77b4;stroke:#ffffff;stroke-width:0.75;" x="311.32534" xlink:href="#m85ed1fe0fa" y="115.869848"/>
     <use style="fill:#1f77b4;stroke:#ffffff;stroke-width:0.75;" x="313.759397" xlink:href="#m85ed1fe0fa" y="115.869848"/>
     <use style="fill:#1f77b4;stroke:#ffffff;stroke-width:0.75;" x="316.113635" xlink:href="#m85ed1fe0fa" y="115.869848"/>
     <use style="fill:#1f77b4;stroke:#ffffff;stroke-width:0.75;" x="318.393122" xlink:href="#m85ed1fe0fa" y="115.869848"/>
     <use style="fill:#1f77b4;stroke:#ffffff;stroke-width:0.75;" x="320.60246" xlink:href="#m85ed1fe0fa" y="115.869848"/>
     <use style="fill:#1f77b4;stroke:#ffffff;stroke-width:0.75;" x="322.745837" xlink:href="#m85ed1fe0fa" y="115.869848"/>
     <use style="fill:#1f77b4;stroke:#ffffff;stroke-width:0.75;" x="324.827079" xlink:href="#m85ed1fe0fa" y="115.869848"/>
     <use style="fill:#1f77b4;stroke:#ffffff;stroke-width:0.75;" x="326.849687" xlink:href="#m85ed1fe0fa" y="106.780368"/>
     <use style="fill:#1f77b4;stroke:#ffffff;stroke-width:0.75;" x="328.816873" xlink:href="#m85ed1fe0fa" y="115.869848"/>
     <use style="fill:#1f77b4;stroke:#ffffff;stroke-width:0.75;" x="330.731595" xlink:href="#m85ed1fe0fa" y="116.569038"/>
     <use style="fill:#1f77b4;stroke:#ffffff;stroke-width:0.75;" x="332.596578" xlink:href="#m85ed1fe0fa" y="115.869848"/>
     <use style="fill:#1f77b4;stroke:#ffffff;stroke-width:0.75;" x="334.414342" xlink:href="#m85ed1fe0fa" y="115.869848"/>
     <use style="fill:#1f77b4;stroke:#ffffff;stroke-width:0.75;" x="336.187217" xlink:href="#m85ed1fe0fa" y="115.869848"/>
     <use style="fill:#1f77b4;stroke:#ffffff;stroke-width:0.75;" x="337.917369" xlink:href="#m85ed1fe0fa" y="115.869848"/>
     <use style="fill:#1f77b4;stroke:#ffffff;stroke-width:0.75;" x="339.606807" xlink:href="#m85ed1fe0fa" y="115.869848"/>
     <use style="fill:#1f77b4;stroke:#ffffff;stroke-width:0.75;" x="341.257404" xlink:href="#m85ed1fe0fa" y="115.869848"/>
     <use style="fill:#1f77b4;stroke:#ffffff;stroke-width:0.75;" x="342.870906" xlink:href="#m85ed1fe0fa" y="115.869848"/>
     <use style="fill:#1f77b4;stroke:#ffffff;stroke-width:0.75;" x="344.448944" xlink:href="#m85ed1fe0fa" y="115.869848"/>
     <use style="fill:#1f77b4;stroke:#ffffff;stroke-width:0.75;" x="345.993042" xlink:href="#m85ed1fe0fa" y="115.869848"/>
     <use style="fill:#1f77b4;stroke:#ffffff;stroke-width:0.75;" x="347.504631" xlink:href="#m85ed1fe0fa" y="115.869848"/>
     <use style="fill:#1f77b4;stroke:#ffffff;stroke-width:0.75;" x="348.985051" xlink:href="#m85ed1fe0fa" y="87.203027"/>
     <use style="fill:#1f77b4;stroke:#ffffff;stroke-width:0.75;" x="350.435561" xlink:href="#m85ed1fe0fa" y="85.804645"/>
     <use style="fill:#1f77b4;stroke:#ffffff;stroke-width:0.75;" x="351.857347" xlink:href="#m85ed1fe0fa" y="85.105454"/>
     <use style="fill:#1f77b4;stroke:#ffffff;stroke-width:0.75;" x="353.251523" xlink:href="#m85ed1fe0fa" y="83.881871"/>
     <use style="fill:#1f77b4;stroke:#ffffff;stroke-width:0.75;" x="354.619142" xlink:href="#m85ed1fe0fa" y="83.881871"/>
     <use style="fill:#1f77b4;stroke:#ffffff;stroke-width:0.75;" x="355.961196" xlink:href="#m85ed1fe0fa" y="83.707073"/>
     <use style="fill:#1f77b4;stroke:#ffffff;stroke-width:0.75;" x="357.278624" xlink:href="#m85ed1fe0fa" y="83.707073"/>
     <use style="fill:#1f77b4;stroke:#ffffff;stroke-width:0.75;" x="358.572313" xlink:href="#m85ed1fe0fa" y="109.577131"/>
     <use style="fill:#1f77b4;stroke:#ffffff;stroke-width:0.75;" x="359.843104" xlink:href="#m85ed1fe0fa" y="109.577131"/>
     <use style="fill:#1f77b4;stroke:#ffffff;stroke-width:0.75;" x="361.091794" xlink:href="#m85ed1fe0fa" y="109.577131"/>
     <use style="fill:#1f77b4;stroke:#ffffff;stroke-width:0.75;" x="362.319136" xlink:href="#m85ed1fe0fa" y="103.983605"/>
     <use style="fill:#1f77b4;stroke:#ffffff;stroke-width:0.75;" x="363.525851" xlink:href="#m85ed1fe0fa" y="103.983605"/>
     <use style="fill:#1f77b4;stroke:#ffffff;stroke-width:0.75;" x="364.712619" xlink:href="#m85ed1fe0fa" y="103.983605"/>
     <use style="fill:#1f77b4;stroke:#ffffff;stroke-width:0.75;" x="365.880089" xlink:href="#m85ed1fe0fa" y="104.857593"/>
     <use style="fill:#1f77b4;stroke:#ffffff;stroke-width:0.75;" x="367.028878" xlink:href="#m85ed1fe0fa" y="104.857593"/>
     <use style="fill:#1f77b4;stroke:#ffffff;stroke-width:0.75;" x="368.159576" xlink:href="#m85ed1fe0fa" y="104.857593"/>
     <use style="fill:#1f77b4;stroke:#ffffff;stroke-width:0.75;" x="369.272743" xlink:href="#m85ed1fe0fa" y="104.857593"/>
     <use style="fill:#1f77b4;stroke:#ffffff;stroke-width:0.75;" x="370.368914" xlink:href="#m85ed1fe0fa" y="104.857593"/>
     <use style="fill:#1f77b4;stroke:#ffffff;stroke-width:0.75;" x="371.4486" xlink:href="#m85ed1fe0fa" y="103.983605"/>
     <use style="fill:#1f77b4;stroke:#ffffff;stroke-width:0.75;" x="372.512291" xlink:href="#m85ed1fe0fa" y="103.983605"/>
     <use style="fill:#1f77b4;stroke:#ffffff;stroke-width:0.75;" x="373.560453" xlink:href="#m85ed1fe0fa" y="103.983605"/>
     <use style="fill:#1f77b4;stroke:#ffffff;stroke-width:0.75;" x="374.593533" xlink:href="#m85ed1fe0fa" y="103.983605"/>
     <use style="fill:#1f77b4;stroke:#ffffff;stroke-width:0.75;" x="375.611959" xlink:href="#m85ed1fe0fa" y="103.983605"/>
     <use style="fill:#1f77b4;stroke:#ffffff;stroke-width:0.75;" x="376.616141" xlink:href="#m85ed1fe0fa" y="103.983605"/>
     <use style="fill:#1f77b4;stroke:#ffffff;stroke-width:0.75;" x="377.606471" xlink:href="#m85ed1fe0fa" y="89.99979"/>
     <use style="fill:#1f77b4;stroke:#ffffff;stroke-width:0.75;" x="378.583327" xlink:href="#m85ed1fe0fa" y="89.99979"/>
     <use style="fill:#1f77b4;stroke:#ffffff;stroke-width:0.75;" x="379.547071" xlink:href="#m85ed1fe0fa" y="89.99979"/>
     <use style="fill:#1f77b4;stroke:#ffffff;stroke-width:0.75;" x="380.498049" xlink:href="#m85ed1fe0fa" y="89.99979"/>
     <use style="fill:#1f77b4;stroke:#ffffff;stroke-width:0.75;" x="381.436596" xlink:href="#m85ed1fe0fa" y="76.015975"/>
     <use style="fill:#1f77b4;stroke:#ffffff;stroke-width:0.75;" x="382.363032" xlink:href="#m85ed1fe0fa" y="76.015975"/>
     <use style="fill:#1f77b4;stroke:#ffffff;stroke-width:0.75;" x="383.277666" xlink:href="#m85ed1fe0fa" y="76.015975"/>
     <use style="fill:#1f77b4;stroke:#ffffff;stroke-width:0.75;" x="384.180795" xlink:href="#m85ed1fe0fa" y="76.015975"/>
     <use style="fill:#1f77b4;stroke:#ffffff;stroke-width:0.75;" x="385.072705" xlink:href="#m85ed1fe0fa" y="76.015975"/>
     <use style="fill:#1f77b4;stroke:#ffffff;stroke-width:0.75;" x="385.953671" xlink:href="#m85ed1fe0fa" y="76.015975"/>
     <use style="fill:#1f77b4;stroke:#ffffff;stroke-width:0.75;" x="386.823958" xlink:href="#m85ed1fe0fa" y="76.015975"/>
     <use style="fill:#1f77b4;stroke:#ffffff;stroke-width:0.75;" x="387.683823" xlink:href="#m85ed1fe0fa" y="76.015975"/>
     <use style="fill:#1f77b4;stroke:#ffffff;stroke-width:0.75;" x="388.533511" xlink:href="#m85ed1fe0fa" y="89.99979"/>
     <use style="fill:#1f77b4;stroke:#ffffff;stroke-width:0.75;" x="389.373261" xlink:href="#m85ed1fe0fa" y="89.99979"/>
     <use style="fill:#1f77b4;stroke:#ffffff;stroke-width:0.75;" x="390.203303" xlink:href="#m85ed1fe0fa" y="89.99979"/>
     <use style="fill:#1f77b4;stroke:#ffffff;stroke-width:0.75;" x="391.023858" xlink:href="#m85ed1fe0fa" y="89.99979"/>
     <use style="fill:#1f77b4;stroke:#ffffff;stroke-width:0.75;" x="391.835142" xlink:href="#m85ed1fe0fa" y="76.015975"/>
     <use style="fill:#1f77b4;stroke:#ffffff;stroke-width:0.75;" x="392.63736" xlink:href="#m85ed1fe0fa" y="56.089038"/>
     <use style="fill:#1f77b4;stroke:#ffffff;stroke-width:0.75;" x="393.430714" xlink:href="#m85ed1fe0fa" y="51.019905"/>
     <use style="fill:#1f77b4;stroke:#ffffff;stroke-width:0.75;" x="394.215398" xlink:href="#m85ed1fe0fa" y="51.019905"/>
    </g>
   </g>
   <g id="line2d_33"/>
   <g id="line2d_34"/>
   <g id="patch_3">
    <path d="M 53.328125 260.951928 
L 53.328125 51.194703 
" style="fill:none;stroke:#000000;stroke-linecap:square;stroke-linejoin:miter;stroke-width:0.8;"/>
   </g>
   <g id="patch_4">
    <path d="M 69.560852 288.430125 
L 394.216265 288.430125 
" style="fill:none;stroke:#000000;stroke-linecap:square;stroke-linejoin:miter;stroke-width:0.8;"/>
   </g>
   <g id="text_16">
    <!-- stb_stbi_read_fuzzer (23h, 16 trials/fuzzer) -->
    <g transform="translate(104.0375 16.318125)scale(0.12 -0.12)">
     <defs>
      <path d="M 2834 3397 
L 2834 2853 
Q 2591 2978 2328 3040 
Q 2066 3103 1784 3103 
Q 1356 3103 1142 2972 
Q 928 2841 928 2578 
Q 928 2378 1081 2264 
Q 1234 2150 1697 2047 
L 1894 2003 
Q 2506 1872 2764 1633 
Q 3022 1394 3022 966 
Q 3022 478 2636 193 
Q 2250 -91 1575 -91 
Q 1294 -91 989 -36 
Q 684 19 347 128 
L 347 722 
Q 666 556 975 473 
Q 1284 391 1588 391 
Q 1994 391 2212 530 
Q 2431 669 2431 922 
Q 2431 1156 2273 1281 
Q 2116 1406 1581 1522 
L 1381 1569 
Q 847 1681 609 1914 
Q 372 2147 372 2553 
Q 372 3047 722 3315 
Q 1072 3584 1716 3584 
Q 2034 3584 2315 3537 
Q 2597 3491 2834 3397 
z
" id="DejaVuSans-73" transform="scale(0.015625)"/>
      <path d="M 3116 1747 
Q 3116 2381 2855 2742 
Q 2594 3103 2138 3103 
Q 1681 3103 1420 2742 
Q 1159 2381 1159 1747 
Q 1159 1113 1420 752 
Q 1681 391 2138 391 
Q 2594 391 2855 752 
Q 3116 1113 3116 1747 
z
M 1159 2969 
Q 1341 3281 1617 3432 
Q 1894 3584 2278 3584 
Q 2916 3584 3314 3078 
Q 3713 2572 3713 1747 
Q 3713 922 3314 415 
Q 2916 -91 2278 -91 
Q 1894 -91 1617 61 
Q 1341 213 1159 525 
L 1159 0 
L 581 0 
L 581 4863 
L 1159 4863 
L 1159 2969 
z
" id="DejaVuSans-62" transform="scale(0.015625)"/>
      <path d="M 3263 -1063 
L 3263 -1509 
L -63 -1509 
L -63 -1063 
L 3263 -1063 
z
" id="DejaVuSans-5f" transform="scale(0.015625)"/>
      <path d="M 2375 4863 
L 2375 4384 
L 1825 4384 
Q 1516 4384 1395 4259 
Q 1275 4134 1275 3809 
L 1275 3500 
L 2222 3500 
L 2222 3053 
L 1275 3053 
L 1275 0 
L 697 0 
L 697 3053 
L 147 3053 
L 147 3500 
L 697 3500 
L 697 3744 
Q 697 4328 969 4595 
Q 1241 4863 1831 4863 
L 2375 4863 
z
" id="DejaVuSans-66" transform="scale(0.015625)"/>
      <path d="M 353 3500 
L 3084 3500 
L 3084 2975 
L 922 459 
L 3084 459 
L 3084 0 
L 275 0 
L 275 525 
L 2438 3041 
L 353 3041 
L 353 3500 
z
" id="DejaVuSans-7a" transform="scale(0.015625)"/>
      <path d="M 750 794 
L 1409 794 
L 1409 256 
L 897 -744 
L 494 -744 
L 750 256 
L 750 794 
z
" id="DejaVuSans-2c" transform="scale(0.015625)"/>
      <path d="M 603 4863 
L 1178 4863 
L 1178 0 
L 603 0 
L 603 4863 
z
" id="DejaVuSans-6c" transform="scale(0.015625)"/>
      <path d="M 1625 4666 
L 2156 4666 
L 531 -594 
L 0 -594 
L 1625 4666 
z
" id="DejaVuSans-2f" transform="scale(0.015625)"/>
     </defs>
     <use xlink:href="#DejaVuSans-73"/>
     <use x="52.099609" xlink:href="#DejaVuSans-74"/>
     <use x="91.308594" xlink:href="#DejaVuSans-62"/>
     <use x="154.785156" xlink:href="#DejaVuSans-5f"/>
     <use x="204.785156" xlink:href="#DejaVuSans-73"/>
     <use x="256.884766" xlink:href="#DejaVuSans-74"/>
     <use x="296.09375" xlink:href="#DejaVuSans-62"/>
     <use x="359.570312" xlink:href="#DejaVuSans-69"/>
     <use x="387.353516" xlink:href="#DejaVuSans-5f"/>
     <use x="437.353516" xlink:href="#DejaVuSans-72"/>
     <use x="476.216797" xlink:href="#DejaVuSans-65"/>
     <use x="537.740234" xlink:href="#DejaVuSans-61"/>
     <use x="599.019531" xlink:href="#DejaVuSans-64"/>
     <use x="662.496094" xlink:href="#DejaVuSans-5f"/>
     <use x="712.496094" xlink:href="#DejaVuSans-66"/>
     <use x="747.701172" xlink:href="#DejaVuSans-75"/>
     <use x="811.080078" xlink:href="#DejaVuSans-7a"/>
     <use x="863.570312" xlink:href="#DejaVuSans-7a"/>
     <use x="916.060547" xlink:href="#DejaVuSans-65"/>
     <use x="977.583984" xlink:href="#DejaVuSans-72"/>
     <use x="1018.697266" xlink:href="#DejaVuSans-20"/>
     <use x="1050.484375" xlink:href="#DejaVuSans-28"/>
     <use x="1089.498047" xlink:href="#DejaVuSans-32"/>
     <use x="1153.121094" xlink:href="#DejaVuSans-33"/>
     <use x="1216.744141" xlink:href="#DejaVuSans-68"/>
     <use x="1280.123047" xlink:href="#DejaVuSans-2c"/>
     <use x="1311.910156" xlink:href="#DejaVuSans-20"/>
     <use x="1343.697266" xlink:href="#DejaVuSans-31"/>
     <use x="1407.320312" xlink:href="#DejaVuSans-36"/>
     <use x="1470.943359" xlink:href="#DejaVuSans-20"/>
     <use x="1502.730469" xlink:href="#DejaVuSans-74"/>
     <use x="1541.939453" xlink:href="#DejaVuSans-72"/>
     <use x="1583.052734" xlink:href="#DejaVuSans-69"/>
     <use x="1610.835938" xlink:href="#DejaVuSans-61"/>
     <use x="1672.115234" xlink:href="#DejaVuSans-6c"/>
     <use x="1699.898438" xlink:href="#DejaVuSans-73"/>
     <use x="1751.998047" xlink:href="#DejaVuSans-2f"/>
     <use x="1785.689453" xlink:href="#DejaVuSans-66"/>
     <use x="1820.894531" xlink:href="#DejaVuSans-75"/>
     <use x="1884.273438" xlink:href="#DejaVuSans-7a"/>
     <use x="1936.763672" xlink:href="#DejaVuSans-7a"/>
     <use x="1989.253906" xlink:href="#DejaVuSans-65"/>
     <use x="2050.777344" xlink:href="#DejaVuSans-72"/>
     <use x="2091.890625" xlink:href="#DejaVuSans-29"/>
    </g>
   </g>
   <g id="legend_1">
    <g id="line2d_35">
     <path d="M 414.448125 30.416562 
L 434.448125 30.416562 
" style="fill:none;stroke:#98df8a;stroke-linecap:square;stroke-width:1.5;"/>
    </g>
    <g id="line2d_36">
     <defs>
      <path d="M -0 3 
L 3 -3 
L -3 -3 
z
" id="m852f8864a7" style="stroke:#98df8a;stroke-linejoin:miter;"/>
     </defs>
     <g>
      <use style="fill:#98df8a;stroke:#98df8a;stroke-linejoin:miter;" x="424.448125" xlink:href="#m852f8864a7" y="30.416562"/>
     </g>
    </g>
    <g id="text_17">
     <!-- afl_no_trim -->
     <g transform="translate(442.448125 33.916562)scale(0.1 -0.1)">
      <use xlink:href="#DejaVuSans-61"/>
      <use x="61.279297" xlink:href="#DejaVuSans-66"/>
      <use x="96.484375" xlink:href="#DejaVuSans-6c"/>
      <use x="124.267578" xlink:href="#DejaVuSans-5f"/>
      <use x="174.267578" xlink:href="#DejaVuSans-6e"/>
      <use x="237.646484" xlink:href="#DejaVuSans-6f"/>
      <use x="298.828125" xlink:href="#DejaVuSans-5f"/>
      <use x="348.828125" xlink:href="#DejaVuSans-74"/>
      <use x="388.037109" xlink:href="#DejaVuSans-72"/>
      <use x="429.150391" xlink:href="#DejaVuSans-69"/>
      <use x="456.933594" xlink:href="#DejaVuSans-6d"/>
     </g>
    </g>
    <g id="line2d_37">
     <path d="M 414.448125 45.372813 
L 434.448125 45.372813 
" style="fill:none;stroke:#1f77b4;stroke-linecap:square;stroke-width:1.5;"/>
    </g>
    <g id="line2d_38">
     <defs>
      <path d="M 0 3 
C 0.795609 3 1.55874 2.683901 2.12132 2.12132 
C 2.683901 1.55874 3 0.795609 3 0 
C 3 -0.795609 2.683901 -1.55874 2.12132 -2.12132 
C 1.55874 -2.683901 0.795609 -3 0 -3 
C -0.795609 -3 -1.55874 -2.683901 -2.12132 -2.12132 
C -2.683901 -1.55874 -3 -0.795609 -3 0 
C -3 0.795609 -2.683901 1.55874 -2.12132 2.12132 
C -1.55874 2.683901 -0.795609 3 0 3 
z
" id="m70b0f80d90" style="stroke:#1f77b4;"/>
     </defs>
     <g>
      <use style="fill:#1f77b4;stroke:#1f77b4;" x="424.448125" xlink:href="#m70b0f80d90" y="45.372813"/>
     </g>
    </g>
    <g id="text_18">
     <!-- afl -->
     <g transform="translate(442.448125 48.872813)scale(0.1 -0.1)">
      <use xlink:href="#DejaVuSans-61"/>
      <use x="61.279297" xlink:href="#DejaVuSans-66"/>
      <use x="96.484375" xlink:href="#DejaVuSans-6c"/>
     </g>
    </g>
   </g>
  </g>
 </g>
 <defs>
  <clipPath id="p5a4d881cd4">
   <rect height="266.112" width="357.12" x="53.328125" y="22.318125"/>
  </clipPath>
 </defs>
</svg>
