<?xml version="1.0" encoding="utf-8" standalone="no"?>
<!DOCTYPE svg PUBLIC "-//W3C//DTD SVG 1.1//EN"
  "http://www.w3.org/Graphics/SVG/1.1/DTD/svg11.dtd">
<svg height="325.986375pt" version="1.1" viewBox="0 0 521.805938 325.986375" width="521.805938pt" xmlns="http://www.w3.org/2000/svg" xmlns:xlink="http://www.w3.org/1999/xlink">
 <metadata>
  <rdf:RDF xmlns:cc="http://creativecommons.org/ns#" xmlns:dc="http://purl.org/dc/elements/1.1/" xmlns:rdf="http://www.w3.org/1999/02/22-rdf-syntax-ns#">
   <cc:Work>
    <dc:type rdf:resource="http://purl.org/dc/dcmitype/StillImage"/>
    <dc:date>2022-05-31T17:16:29.221043</dc:date>
    <dc:format>image/svg+xml</dc:format>
    <dc:creator>
     <cc:Agent>
      <dc:title>Matplotlib v3.4.3, https://matplotlib.org/</dc:title>
     </cc:Agent>
    </dc:creator>
   </cc:Work>
  </rdf:RDF>
 </metadata>
 <defs>
  <style type="text/css">*{stroke-linecap:butt;stroke-linejoin:round;}</style>
 </defs>
 <g id="figure_1">
  <g id="patch_1">
   <path d="M 0 325.986375 
L 521.805938 325.986375 
L 521.805938 0 
L 0 0 
z
" style="fill:#ffffff;"/>
  </g>
  <g id="axes_1">
   <g id="patch_2">
    <path d="M 66.053125 288.430125 
L 423.173125 288.430125 
L 423.173125 22.318125 
L 66.053125 22.318125 
z
" style="fill:#ffffff;"/>
   </g>
   <g id="PolyCollection_1">
    <defs>
     <path d="M 82.285852 -67.26676 
L 82.285852 -59.029027 
L 85.853485 -89.2406 
L 89.421117 -103.047315 
L 92.988749 -116.669917 
L 96.556382 -117.88721 
L 100.124014 -133.853235 
L 103.691646 -126.987415 
L 107.259279 -140.225702 
L 110.826911 -142.40615 
L 114.394544 -141.44657 
L 117.962176 -131.382898 
L 121.529808 -165.901473 
L 125.097441 -167.299304 
L 128.665073 -167.821257 
L 132.232705 -150.182124 
L 135.800338 -175.471793 
L 139.36797 -175.730981 
L 142.935603 -176.388784 
L 146.503235 -181.827279 
L 150.070867 -180.23014 
L 153.6385 -184.132271 
L 157.206132 -195.208567 
L 160.773764 -192.667623 
L 164.341397 -192.998312 
L 167.909029 -194.128018 
L 171.476661 -202.739339 
L 175.044294 -202.522157 
L 178.611926 -210.011817 
L 182.179559 -206.676327 
L 185.747191 -207.623706 
L 189.314823 -211.69565 
L 192.882456 -219.526724 
L 196.450088 -215.031141 
L 200.01772 -216.761449 
L 203.585353 -217.015275 
L 207.152985 -227.032472 
L 210.720618 -217.497902 
L 214.28825 -217.810716 
L 217.855882 -231.608494 
L 221.423515 -218.05918 
L 224.991147 -232.71228 
L 228.558779 -224.883284 
L 232.126412 -235.898514 
L 235.694044 -222.745133 
L 239.261676 -225.044763 
L 242.829309 -229.982621 
L 246.396941 -227.806463 
L 249.964574 -228.028114 
L 253.532206 -228.744905 
L 257.099838 -229.043419 
L 260.667471 -244.323041 
L 264.235103 -234.407732 
L 267.802735 -235.262161 
L 271.370368 -247.118704 
L 274.938 -238.511851 
L 278.505632 -248.776797 
L 282.073265 -239.269755 
L 285.640897 -239.494981 
L 289.20853 -239.627256 
L 292.776162 -243.336336 
L 296.343794 -251.246061 
L 299.911427 -244.991569 
L 303.479059 -245.381246 
L 307.046691 -245.627922 
L 310.614324 -245.74411 
L 314.181956 -252.324822 
L 317.749589 -249.812479 
L 321.317221 -250.52212 
L 324.884853 -260.459505 
L 328.452486 -260.46165 
L 332.020118 -250.876047 
L 335.58775 -261.332971 
L 339.155383 -251.244273 
L 342.723015 -262.416201 
L 346.290647 -255.500331 
L 349.85828 -259.741172 
L 353.425912 -262.835371 
L 356.993545 -259.856489 
L 360.561177 -260.418705 
L 364.128809 -259.927989 
L 367.696442 -264.071433 
L 371.264074 -260.147853 
L 374.831706 -262.553839 
L 378.399339 -265.587397 
L 381.966971 -262.905978 
L 385.534604 -262.923853 
L 389.102236 -268.197897 
L 392.669868 -264.330622 
L 396.237501 -265.017025 
L 399.805133 -269.895136 
L 403.372765 -265.149301 
L 406.940398 -269.037132 
L 406.940398 -291.57225 
L 406.940398 -291.57225 
L 403.372765 -291.50075 
L 399.805133 -291.137885 
L 396.237501 -290.814346 
L 392.669868 -289.825854 
L 389.102236 -289.765079 
L 385.534604 -288.694764 
L 381.966971 -288.184922 
L 378.399339 -288.102696 
L 374.831706 -287.783626 
L 371.264074 -288.392273 
L 367.696442 -287.549462 
L 364.128809 -287.882833 
L 360.561177 -286.951072 
L 356.993545 -286.683415 
L 353.425912 -286.354513 
L 349.85828 -285.529578 
L 346.290647 -285.252514 
L 342.723015 -283.769776 
L 339.155383 -285.712798 
L 335.58775 -285.677047 
L 332.020118 -280.527236 
L 328.452486 -278.182025 
L 324.884853 -278.133762 
L 321.317221 -278.090862 
L 317.749589 -277.744085 
L 314.181956 -275.502058 
L 310.614324 -277.458084 
L 307.046691 -274.656164 
L 303.479059 -276.124603 
L 299.911427 -275.439987 
L 296.343794 -281.181464 
L 292.776162 -275.246936 
L 289.20853 -274.617733 
L 285.640897 -274.104718 
L 282.073265 -273.958142 
L 278.505632 -273.940267 
L 274.938 -272.456635 
L 271.370368 -273.261305 
L 267.802735 -267.566012 
L 264.235103 -263.30638 
L 260.667471 -271.459206 
L 257.099838 -262.578864 
L 253.532206 -259.999489 
L 249.964574 -260.515186 
L 246.396941 -261.284708 
L 242.829309 -261.084507 
L 239.261676 -260.777055 
L 235.694044 -259.175448 
L 232.126412 -257.727566 
L 228.558779 -257.482678 
L 224.991147 -256.367272 
L 221.423515 -257.118026 
L 217.855882 -256.058033 
L 214.28825 -253.882636 
L 210.720618 -253.080044 
L 207.152985 -251.854752 
L 203.585353 -250.483755 
L 200.01772 -248.981288 
L 196.450088 -247.26528 
L 192.882456 -248.307397 
L 189.314823 -248.207296 
L 185.747191 -248.116134 
L 182.179559 -246.766565 
L 178.611926 -244.61083 
L 175.044294 -244.395435 
L 171.476661 -245.956823 
L 167.909029 -241.325389 
L 164.341397 -245.472409 
L 160.773764 -243.166523 
L 157.206132 -242.692118 
L 153.6385 -241.435321 
L 150.070867 -240.067922 
L 146.503235 -238.740652 
L 142.935603 -237.81651 
L 139.36797 -236.69038 
L 135.800338 -232.614861 
L 132.232705 -225.852717 
L 128.665073 -221.087219 
L 125.097441 -215.265304 
L 121.529808 -210.637445 
L 117.962176 -203.962889 
L 114.394544 -201.004562 
L 110.826911 -189.366095 
L 107.259279 -181.674447 
L 103.691646 -174.004248 
L 100.124014 -169.401414 
L 96.556382 -154.232618 
L 92.988749 -138.802846 
L 89.421117 -117.109644 
L 85.853485 -99.331085 
L 82.285852 -67.26676 
z
" id="meaa06f538d" style="stroke:#98df8a;stroke-opacity:0.2;"/>
    </defs>
    <g clip-path="url(#p4144893bcf)">
     <use style="fill:#98df8a;fill-opacity:0.2;stroke:#98df8a;stroke-opacity:0.2;" x="0" xlink:href="#meaa06f538d" y="325.986375"/>
    </g>
   </g>
   <g id="PolyCollection_2">
    <defs>
     <path d="M 82.285852 -61.923897 
L 82.285852 -49.65225 
L 85.853485 -83.021032 
L 89.421117 -100.165852 
L 92.988749 -110.873027 
L 96.556382 -118.178574 
L 100.124014 -122.075342 
L 103.691646 -132.591254 
L 107.259279 -136.359322 
L 110.826911 -136.784749 
L 114.394544 -137.033212 
L 117.962176 -142.619176 
L 121.529808 -142.717489 
L 125.097441 -139.625993 
L 128.665073 -143.747988 
L 132.232705 -157.591346 
L 135.800338 -152.839255 
L 139.36797 -156.550234 
L 142.935603 -157.320539 
L 146.503235 -164.993418 
L 150.070867 -165.364215 
L 153.6385 -165.625861 
L 157.206132 -165.83176 
L 160.773764 -165.81851 
L 164.341397 -175.673781 
L 167.909029 -175.834657 
L 171.476661 -166.596813 
L 175.044294 -166.689764 
L 178.611926 -173.060444 
L 182.179559 -186.09138 
L 185.747191 -187.489212 
L 189.314823 -174.855102 
L 192.882456 -186.357719 
L 196.450088 -186.457819 
L 200.01772 -188.118414 
L 203.585353 -188.209041 
L 207.152985 -188.340066 
L 210.720618 -188.445529 
L 214.28825 -188.699355 
L 217.855882 -188.779793 
L 221.423515 -188.83878 
L 224.991147 -188.885256 
L 228.558779 -198.346537 
L 232.126412 -198.88279 
L 235.694044 -199.108016 
L 239.261676 -201.322739 
L 242.829309 -201.741016 
L 246.396941 -202.797433 
L 249.964574 -202.938647 
L 253.532206 -203.083435 
L 257.099838 -225.185976 
L 260.667471 -203.541037 
L 264.235103 -217.472877 
L 267.802735 -217.669503 
L 271.370368 -215.217042 
L 274.938 -217.907242 
L 278.505632 -219.038735 
L 282.073265 -225.242126 
L 285.640897 -225.865229 
L 289.20853 -230.591401 
L 292.776162 -232.550511 
L 296.343794 -232.865112 
L 299.911427 -233.689153 
L 303.479059 -232.8669 
L 307.046691 -237.938061 
L 310.614324 -238.022074 
L 314.181956 -238.075699 
L 317.749589 -234.316569 
L 321.317221 -234.565032 
L 324.884853 -237.139938 
L 328.452486 -237.277576 
L 332.020118 -237.508657 
L 335.58775 -236.315003 
L 339.155383 -240.866 
L 342.723015 -243.475762 
L 346.290647 -245.399121 
L 349.85828 -244.735955 
L 353.425912 -244.889681 
L 356.993545 -249.640878 
L 360.561177 -249.942967 
L 364.128809 -249.960842 
L 367.696442 -250.223606 
L 371.264074 -250.917159 
L 374.831706 -251.742988 
L 378.399339 -250.647245 
L 381.966971 -246.216012 
L 385.534604 -250.690146 
L 389.102236 -250.792034 
L 392.669868 -250.963634 
L 396.237501 -251.347949 
L 399.805133 -262.838053 
L 403.372765 -257.458546 
L 406.940398 -251.524912 
L 406.940398 -283.203404 
L 406.940398 -283.203404 
L 403.372765 -283.09231 
L 399.805133 -283.008297 
L 396.237501 -276.970094 
L 392.669868 -281.498746 
L 389.102236 -282.713358 
L 385.534604 -279.312624 
L 381.966971 -279.004279 
L 378.399339 -281.774917 
L 374.831706 -281.740954 
L 371.264074 -278.700402 
L 367.696442 -278.641414 
L 364.128809 -278.521651 
L 360.561177 -276.235428 
L 356.993545 -280.8615 
L 353.425912 -273.854467 
L 349.85828 -273.686441 
L 346.290647 -276.602761 
L 342.723015 -276.039428 
L 339.155383 -273.951886 
L 335.58775 -273.48624 
L 332.020118 -268.265017 
L 328.452486 -266.637402 
L 324.884853 -266.278113 
L 321.317221 -265.99658 
L 317.749589 -262.359 
L 314.181956 -260.750243 
L 310.614324 -260.60903 
L 307.046691 -264.075008 
L 303.479059 -255.961508 
L 299.911427 -257.498765 
L 296.343794 -250.972572 
L 292.776162 -255.548593 
L 289.20853 -250.520332 
L 285.640897 -255.373418 
L 282.073265 -254.697739 
L 278.505632 -247.749694 
L 274.938 -249.053682 
L 271.370368 -249.324489 
L 267.802735 -250.297788 
L 264.235103 -251.603562 
L 260.667471 -246.487713 
L 257.099838 -246.278575 
L 253.532206 -246.721877 
L 249.964574 -246.391188 
L 246.396941 -244.214003 
L 242.829309 -238.633402 
L 239.261676 -242.12083 
L 235.694044 -238.241937 
L 232.126412 -237.807573 
L 228.558779 -235.129885 
L 224.991147 -227.75105 
L 221.423515 -229.965773 
L 217.855882 -236.050452 
L 214.28825 -229.763785 
L 210.720618 -229.524259 
L 207.152985 -229.488509 
L 203.585353 -229.082744 
L 200.01772 -228.889693 
L 196.450088 -228.330203 
L 192.882456 -214.627164 
L 189.314823 -216.9688 
L 185.747191 -218.702549 
L 182.179559 -212.816418 
L 178.611926 -210.301394 
L 175.044294 -210.146126 
L 171.476661 -204.74403 
L 167.909029 -204.634992 
L 164.341397 -204.70113 
L 160.773764 -202.883234 
L 157.206132 -201.775872 
L 153.6385 -199.549531 
L 150.070867 -199.445855 
L 146.503235 -195.032497 
L 142.935603 -196.774424 
L 139.36797 -194.58562 
L 135.800338 -191.979567 
L 132.232705 -186.842134 
L 128.665073 -187.328336 
L 125.097441 -181.477821 
L 121.529808 -182.348337 
L 117.962176 -180.121102 
L 114.394544 -178.639258 
L 110.826911 -167.744394 
L 107.259279 -163.279198 
L 103.691646 -153.876904 
L 100.124014 -149.699497 
L 96.556382 -139.525468 
L 92.988749 -121.839391 
L 89.421117 -108.938943 
L 85.853485 -92.248977 
L 82.285852 -61.923897 
z
" id="m57684f4f32" style="stroke:#1f77b4;stroke-opacity:0.2;"/>
    </defs>
    <g clip-path="url(#p4144893bcf)">
     <use style="fill:#1f77b4;fill-opacity:0.2;stroke:#1f77b4;stroke-opacity:0.2;" x="0" xlink:href="#m57684f4f32" y="325.986375"/>
    </g>
   </g>
   <g id="matplotlib.axis_1">
    <g id="xtick_1">
     <g id="line2d_1">
      <defs>
       <path d="M 0 0 
L 0 3.5 
" id="m79fdeb5c28" style="stroke:#000000;stroke-width:0.8;"/>
      </defs>
      <g>
       <use style="stroke:#000000;stroke-width:0.8;" x="82.285852" xlink:href="#m79fdeb5c28" y="288.430125"/>
      </g>
     </g>
     <g id="text_1">
      <!-- 15m -->
      <g transform="translate(71.05304 303.028562)scale(0.1 -0.1)">
       <defs>
        <path d="M 794 531 
L 1825 531 
L 1825 4091 
L 703 3866 
L 703 4441 
L 1819 4666 
L 2450 4666 
L 2450 531 
L 3481 531 
L 3481 0 
L 794 0 
L 794 531 
z
" id="DejaVuSans-31" transform="scale(0.015625)"/>
        <path d="M 691 4666 
L 3169 4666 
L 3169 4134 
L 1269 4134 
L 1269 2991 
Q 1406 3038 1543 3061 
Q 1681 3084 1819 3084 
Q 2600 3084 3056 2656 
Q 3513 2228 3513 1497 
Q 3513 744 3044 326 
Q 2575 -91 1722 -91 
Q 1428 -91 1123 -41 
Q 819 9 494 109 
L 494 744 
Q 775 591 1075 516 
Q 1375 441 1709 441 
Q 2250 441 2565 725 
Q 2881 1009 2881 1497 
Q 2881 1984 2565 2268 
Q 2250 2553 1709 2553 
Q 1456 2553 1204 2497 
Q 953 2441 691 2322 
L 691 4666 
z
" id="DejaVuSans-35" transform="scale(0.015625)"/>
        <path d="M 3328 2828 
Q 3544 3216 3844 3400 
Q 4144 3584 4550 3584 
Q 5097 3584 5394 3201 
Q 5691 2819 5691 2113 
L 5691 0 
L 5113 0 
L 5113 2094 
Q 5113 2597 4934 2840 
Q 4756 3084 4391 3084 
Q 3944 3084 3684 2787 
Q 3425 2491 3425 1978 
L 3425 0 
L 2847 0 
L 2847 2094 
Q 2847 2600 2669 2842 
Q 2491 3084 2119 3084 
Q 1678 3084 1418 2786 
Q 1159 2488 1159 1978 
L 1159 0 
L 581 0 
L 581 3500 
L 1159 3500 
L 1159 2956 
Q 1356 3278 1631 3431 
Q 1906 3584 2284 3584 
Q 2666 3584 2933 3390 
Q 3200 3197 3328 2828 
z
" id="DejaVuSans-6d" transform="scale(0.015625)"/>
       </defs>
       <use xlink:href="#DejaVuSans-31"/>
       <use x="63.623047" xlink:href="#DejaVuSans-35"/>
       <use x="127.246094" xlink:href="#DejaVuSans-6d"/>
      </g>
     </g>
    </g>
    <g id="xtick_2">
     <g id="line2d_2">
      <g>
       <use style="stroke:#000000;stroke-width:0.8;" x="136.989549" xlink:href="#m79fdeb5c28" y="288.430125"/>
      </g>
     </g>
     <g id="text_2">
      <!-- 4h:5m -->
      <g transform="translate(120.903611 303.028562)scale(0.1 -0.1)">
       <defs>
        <path d="M 2419 4116 
L 825 1625 
L 2419 1625 
L 2419 4116 
z
M 2253 4666 
L 3047 4666 
L 3047 1625 
L 3713 1625 
L 3713 1100 
L 3047 1100 
L 3047 0 
L 2419 0 
L 2419 1100 
L 313 1100 
L 313 1709 
L 2253 4666 
z
" id="DejaVuSans-34" transform="scale(0.015625)"/>
        <path d="M 3513 2113 
L 3513 0 
L 2938 0 
L 2938 2094 
Q 2938 2591 2744 2837 
Q 2550 3084 2163 3084 
Q 1697 3084 1428 2787 
Q 1159 2491 1159 1978 
L 1159 0 
L 581 0 
L 581 4863 
L 1159 4863 
L 1159 2956 
Q 1366 3272 1645 3428 
Q 1925 3584 2291 3584 
Q 2894 3584 3203 3211 
Q 3513 2838 3513 2113 
z
" id="DejaVuSans-68" transform="scale(0.015625)"/>
        <path d="M 750 794 
L 1409 794 
L 1409 0 
L 750 0 
L 750 794 
z
M 750 3309 
L 1409 3309 
L 1409 2516 
L 750 2516 
L 750 3309 
z
" id="DejaVuSans-3a" transform="scale(0.015625)"/>
       </defs>
       <use xlink:href="#DejaVuSans-34"/>
       <use x="63.623047" xlink:href="#DejaVuSans-68"/>
       <use x="127.001953" xlink:href="#DejaVuSans-3a"/>
       <use x="160.693359" xlink:href="#DejaVuSans-35"/>
       <use x="224.316406" xlink:href="#DejaVuSans-6d"/>
      </g>
     </g>
    </g>
    <g id="xtick_3">
     <g id="line2d_3">
      <g>
       <use style="stroke:#000000;stroke-width:0.8;" x="191.693245" xlink:href="#m79fdeb5c28" y="288.430125"/>
      </g>
     </g>
     <g id="text_3">
      <!-- 7h:55m -->
      <g transform="translate(172.426057 303.028562)scale(0.1 -0.1)">
       <defs>
        <path d="M 525 4666 
L 3525 4666 
L 3525 4397 
L 1831 0 
L 1172 0 
L 2766 4134 
L 525 4134 
L 525 4666 
z
" id="DejaVuSans-37" transform="scale(0.015625)"/>
       </defs>
       <use xlink:href="#DejaVuSans-37"/>
       <use x="63.623047" xlink:href="#DejaVuSans-68"/>
       <use x="127.001953" xlink:href="#DejaVuSans-3a"/>
       <use x="160.693359" xlink:href="#DejaVuSans-35"/>
       <use x="224.316406" xlink:href="#DejaVuSans-35"/>
       <use x="287.939453" xlink:href="#DejaVuSans-6d"/>
      </g>
     </g>
    </g>
    <g id="xtick_4">
     <g id="line2d_4">
      <g>
       <use style="stroke:#000000;stroke-width:0.8;" x="246.396941" xlink:href="#m79fdeb5c28" y="288.430125"/>
      </g>
     </g>
     <g id="text_4">
      <!-- 11h:45m -->
      <g transform="translate(223.948504 303.028562)scale(0.1 -0.1)">
       <use xlink:href="#DejaVuSans-31"/>
       <use x="63.623047" xlink:href="#DejaVuSans-31"/>
       <use x="127.246094" xlink:href="#DejaVuSans-68"/>
       <use x="190.625" xlink:href="#DejaVuSans-3a"/>
       <use x="224.316406" xlink:href="#DejaVuSans-34"/>
       <use x="287.939453" xlink:href="#DejaVuSans-35"/>
       <use x="351.5625" xlink:href="#DejaVuSans-6d"/>
      </g>
     </g>
    </g>
    <g id="xtick_5">
     <g id="line2d_5">
      <g>
       <use style="stroke:#000000;stroke-width:0.8;" x="301.100637" xlink:href="#m79fdeb5c28" y="288.430125"/>
      </g>
     </g>
     <g id="text_5">
      <!-- 15h:35m -->
      <g transform="translate(278.6522 303.028562)scale(0.1 -0.1)">
       <defs>
        <path d="M 2597 2516 
Q 3050 2419 3304 2112 
Q 3559 1806 3559 1356 
Q 3559 666 3084 287 
Q 2609 -91 1734 -91 
Q 1441 -91 1130 -33 
Q 819 25 488 141 
L 488 750 
Q 750 597 1062 519 
Q 1375 441 1716 441 
Q 2309 441 2620 675 
Q 2931 909 2931 1356 
Q 2931 1769 2642 2001 
Q 2353 2234 1838 2234 
L 1294 2234 
L 1294 2753 
L 1863 2753 
Q 2328 2753 2575 2939 
Q 2822 3125 2822 3475 
Q 2822 3834 2567 4026 
Q 2313 4219 1838 4219 
Q 1578 4219 1281 4162 
Q 984 4106 628 3988 
L 628 4550 
Q 988 4650 1302 4700 
Q 1616 4750 1894 4750 
Q 2613 4750 3031 4423 
Q 3450 4097 3450 3541 
Q 3450 3153 3228 2886 
Q 3006 2619 2597 2516 
z
" id="DejaVuSans-33" transform="scale(0.015625)"/>
       </defs>
       <use xlink:href="#DejaVuSans-31"/>
       <use x="63.623047" xlink:href="#DejaVuSans-35"/>
       <use x="127.246094" xlink:href="#DejaVuSans-68"/>
       <use x="190.625" xlink:href="#DejaVuSans-3a"/>
       <use x="224.316406" xlink:href="#DejaVuSans-33"/>
       <use x="287.939453" xlink:href="#DejaVuSans-35"/>
       <use x="351.5625" xlink:href="#DejaVuSans-6d"/>
      </g>
     </g>
    </g>
    <g id="xtick_6">
     <g id="line2d_6">
      <g>
       <use style="stroke:#000000;stroke-width:0.8;" x="355.804334" xlink:href="#m79fdeb5c28" y="288.430125"/>
      </g>
     </g>
     <g id="text_6">
      <!-- 19h:25m -->
      <g transform="translate(333.355896 303.028562)scale(0.1 -0.1)">
       <defs>
        <path d="M 703 97 
L 703 672 
Q 941 559 1184 500 
Q 1428 441 1663 441 
Q 2288 441 2617 861 
Q 2947 1281 2994 2138 
Q 2813 1869 2534 1725 
Q 2256 1581 1919 1581 
Q 1219 1581 811 2004 
Q 403 2428 403 3163 
Q 403 3881 828 4315 
Q 1253 4750 1959 4750 
Q 2769 4750 3195 4129 
Q 3622 3509 3622 2328 
Q 3622 1225 3098 567 
Q 2575 -91 1691 -91 
Q 1453 -91 1209 -44 
Q 966 3 703 97 
z
M 1959 2075 
Q 2384 2075 2632 2365 
Q 2881 2656 2881 3163 
Q 2881 3666 2632 3958 
Q 2384 4250 1959 4250 
Q 1534 4250 1286 3958 
Q 1038 3666 1038 3163 
Q 1038 2656 1286 2365 
Q 1534 2075 1959 2075 
z
" id="DejaVuSans-39" transform="scale(0.015625)"/>
        <path d="M 1228 531 
L 3431 531 
L 3431 0 
L 469 0 
L 469 531 
Q 828 903 1448 1529 
Q 2069 2156 2228 2338 
Q 2531 2678 2651 2914 
Q 2772 3150 2772 3378 
Q 2772 3750 2511 3984 
Q 2250 4219 1831 4219 
Q 1534 4219 1204 4116 
Q 875 4013 500 3803 
L 500 4441 
Q 881 4594 1212 4672 
Q 1544 4750 1819 4750 
Q 2544 4750 2975 4387 
Q 3406 4025 3406 3419 
Q 3406 3131 3298 2873 
Q 3191 2616 2906 2266 
Q 2828 2175 2409 1742 
Q 1991 1309 1228 531 
z
" id="DejaVuSans-32" transform="scale(0.015625)"/>
       </defs>
       <use xlink:href="#DejaVuSans-31"/>
       <use x="63.623047" xlink:href="#DejaVuSans-39"/>
       <use x="127.246094" xlink:href="#DejaVuSans-68"/>
       <use x="190.625" xlink:href="#DejaVuSans-3a"/>
       <use x="224.316406" xlink:href="#DejaVuSans-32"/>
       <use x="287.939453" xlink:href="#DejaVuSans-35"/>
       <use x="351.5625" xlink:href="#DejaVuSans-6d"/>
      </g>
     </g>
    </g>
    <g id="text_7">
     <!-- Time (hour:minute) -->
     <g transform="translate(196.206094 316.706687)scale(0.1 -0.1)">
      <defs>
       <path d="M -19 4666 
L 3928 4666 
L 3928 4134 
L 2272 4134 
L 2272 0 
L 1638 0 
L 1638 4134 
L -19 4134 
L -19 4666 
z
" id="DejaVuSans-54" transform="scale(0.015625)"/>
       <path d="M 603 3500 
L 1178 3500 
L 1178 0 
L 603 0 
L 603 3500 
z
M 603 4863 
L 1178 4863 
L 1178 4134 
L 603 4134 
L 603 4863 
z
" id="DejaVuSans-69" transform="scale(0.015625)"/>
       <path d="M 3597 1894 
L 3597 1613 
L 953 1613 
Q 991 1019 1311 708 
Q 1631 397 2203 397 
Q 2534 397 2845 478 
Q 3156 559 3463 722 
L 3463 178 
Q 3153 47 2828 -22 
Q 2503 -91 2169 -91 
Q 1331 -91 842 396 
Q 353 884 353 1716 
Q 353 2575 817 3079 
Q 1281 3584 2069 3584 
Q 2775 3584 3186 3129 
Q 3597 2675 3597 1894 
z
M 3022 2063 
Q 3016 2534 2758 2815 
Q 2500 3097 2075 3097 
Q 1594 3097 1305 2825 
Q 1016 2553 972 2059 
L 3022 2063 
z
" id="DejaVuSans-65" transform="scale(0.015625)"/>
       <path id="DejaVuSans-20" transform="scale(0.015625)"/>
       <path d="M 1984 4856 
Q 1566 4138 1362 3434 
Q 1159 2731 1159 2009 
Q 1159 1288 1364 580 
Q 1569 -128 1984 -844 
L 1484 -844 
Q 1016 -109 783 600 
Q 550 1309 550 2009 
Q 550 2706 781 3412 
Q 1013 4119 1484 4856 
L 1984 4856 
z
" id="DejaVuSans-28" transform="scale(0.015625)"/>
       <path d="M 1959 3097 
Q 1497 3097 1228 2736 
Q 959 2375 959 1747 
Q 959 1119 1226 758 
Q 1494 397 1959 397 
Q 2419 397 2687 759 
Q 2956 1122 2956 1747 
Q 2956 2369 2687 2733 
Q 2419 3097 1959 3097 
z
M 1959 3584 
Q 2709 3584 3137 3096 
Q 3566 2609 3566 1747 
Q 3566 888 3137 398 
Q 2709 -91 1959 -91 
Q 1206 -91 779 398 
Q 353 888 353 1747 
Q 353 2609 779 3096 
Q 1206 3584 1959 3584 
z
" id="DejaVuSans-6f" transform="scale(0.015625)"/>
       <path d="M 544 1381 
L 544 3500 
L 1119 3500 
L 1119 1403 
Q 1119 906 1312 657 
Q 1506 409 1894 409 
Q 2359 409 2629 706 
Q 2900 1003 2900 1516 
L 2900 3500 
L 3475 3500 
L 3475 0 
L 2900 0 
L 2900 538 
Q 2691 219 2414 64 
Q 2138 -91 1772 -91 
Q 1169 -91 856 284 
Q 544 659 544 1381 
z
M 1991 3584 
L 1991 3584 
z
" id="DejaVuSans-75" transform="scale(0.015625)"/>
       <path d="M 2631 2963 
Q 2534 3019 2420 3045 
Q 2306 3072 2169 3072 
Q 1681 3072 1420 2755 
Q 1159 2438 1159 1844 
L 1159 0 
L 581 0 
L 581 3500 
L 1159 3500 
L 1159 2956 
Q 1341 3275 1631 3429 
Q 1922 3584 2338 3584 
Q 2397 3584 2469 3576 
Q 2541 3569 2628 3553 
L 2631 2963 
z
" id="DejaVuSans-72" transform="scale(0.015625)"/>
       <path d="M 3513 2113 
L 3513 0 
L 2938 0 
L 2938 2094 
Q 2938 2591 2744 2837 
Q 2550 3084 2163 3084 
Q 1697 3084 1428 2787 
Q 1159 2491 1159 1978 
L 1159 0 
L 581 0 
L 581 3500 
L 1159 3500 
L 1159 2956 
Q 1366 3272 1645 3428 
Q 1925 3584 2291 3584 
Q 2894 3584 3203 3211 
Q 3513 2838 3513 2113 
z
" id="DejaVuSans-6e" transform="scale(0.015625)"/>
       <path d="M 1172 4494 
L 1172 3500 
L 2356 3500 
L 2356 3053 
L 1172 3053 
L 1172 1153 
Q 1172 725 1289 603 
Q 1406 481 1766 481 
L 2356 481 
L 2356 0 
L 1766 0 
Q 1100 0 847 248 
Q 594 497 594 1153 
L 594 3053 
L 172 3053 
L 172 3500 
L 594 3500 
L 594 4494 
L 1172 4494 
z
" id="DejaVuSans-74" transform="scale(0.015625)"/>
       <path d="M 513 4856 
L 1013 4856 
Q 1481 4119 1714 3412 
Q 1947 2706 1947 2009 
Q 1947 1309 1714 600 
Q 1481 -109 1013 -844 
L 513 -844 
Q 928 -128 1133 580 
Q 1338 1288 1338 2009 
Q 1338 2731 1133 3434 
Q 928 4138 513 4856 
z
" id="DejaVuSans-29" transform="scale(0.015625)"/>
      </defs>
      <use xlink:href="#DejaVuSans-54"/>
      <use x="57.958984" xlink:href="#DejaVuSans-69"/>
      <use x="85.742188" xlink:href="#DejaVuSans-6d"/>
      <use x="183.154297" xlink:href="#DejaVuSans-65"/>
      <use x="244.677734" xlink:href="#DejaVuSans-20"/>
      <use x="276.464844" xlink:href="#DejaVuSans-28"/>
      <use x="315.478516" xlink:href="#DejaVuSans-68"/>
      <use x="378.857422" xlink:href="#DejaVuSans-6f"/>
      <use x="440.039062" xlink:href="#DejaVuSans-75"/>
      <use x="503.417969" xlink:href="#DejaVuSans-72"/>
      <use x="542.78125" xlink:href="#DejaVuSans-3a"/>
      <use x="576.472656" xlink:href="#DejaVuSans-6d"/>
      <use x="673.884766" xlink:href="#DejaVuSans-69"/>
      <use x="701.667969" xlink:href="#DejaVuSans-6e"/>
      <use x="765.046875" xlink:href="#DejaVuSans-75"/>
      <use x="828.425781" xlink:href="#DejaVuSans-74"/>
      <use x="867.634766" xlink:href="#DejaVuSans-65"/>
      <use x="929.158203" xlink:href="#DejaVuSans-29"/>
     </g>
    </g>
   </g>
   <g id="matplotlib.axis_2">
    <g id="ytick_1">
     <g id="line2d_7">
      <defs>
       <path d="M 0 0 
L -3.5 0 
" id="mb978cdeeae" style="stroke:#000000;stroke-width:0.8;"/>
      </defs>
      <g>
       <use style="stroke:#000000;stroke-width:0.8;" x="66.053125" xlink:href="#mb978cdeeae" y="270.197207"/>
      </g>
     </g>
     <g id="text_8">
      <!-- 360000 -->
      <g transform="translate(20.878125 273.996425)scale(0.1 -0.1)">
       <defs>
        <path d="M 2113 2584 
Q 1688 2584 1439 2293 
Q 1191 2003 1191 1497 
Q 1191 994 1439 701 
Q 1688 409 2113 409 
Q 2538 409 2786 701 
Q 3034 994 3034 1497 
Q 3034 2003 2786 2293 
Q 2538 2584 2113 2584 
z
M 3366 4563 
L 3366 3988 
Q 3128 4100 2886 4159 
Q 2644 4219 2406 4219 
Q 1781 4219 1451 3797 
Q 1122 3375 1075 2522 
Q 1259 2794 1537 2939 
Q 1816 3084 2150 3084 
Q 2853 3084 3261 2657 
Q 3669 2231 3669 1497 
Q 3669 778 3244 343 
Q 2819 -91 2113 -91 
Q 1303 -91 875 529 
Q 447 1150 447 2328 
Q 447 3434 972 4092 
Q 1497 4750 2381 4750 
Q 2619 4750 2861 4703 
Q 3103 4656 3366 4563 
z
" id="DejaVuSans-36" transform="scale(0.015625)"/>
        <path d="M 2034 4250 
Q 1547 4250 1301 3770 
Q 1056 3291 1056 2328 
Q 1056 1369 1301 889 
Q 1547 409 2034 409 
Q 2525 409 2770 889 
Q 3016 1369 3016 2328 
Q 3016 3291 2770 3770 
Q 2525 4250 2034 4250 
z
M 2034 4750 
Q 2819 4750 3233 4129 
Q 3647 3509 3647 2328 
Q 3647 1150 3233 529 
Q 2819 -91 2034 -91 
Q 1250 -91 836 529 
Q 422 1150 422 2328 
Q 422 3509 836 4129 
Q 1250 4750 2034 4750 
z
" id="DejaVuSans-30" transform="scale(0.015625)"/>
       </defs>
       <use xlink:href="#DejaVuSans-33"/>
       <use x="63.623047" xlink:href="#DejaVuSans-36"/>
       <use x="127.246094" xlink:href="#DejaVuSans-30"/>
       <use x="190.869141" xlink:href="#DejaVuSans-30"/>
       <use x="254.492188" xlink:href="#DejaVuSans-30"/>
       <use x="318.115234" xlink:href="#DejaVuSans-30"/>
      </g>
     </g>
    </g>
    <g id="ytick_2">
     <g id="line2d_8">
      <g>
       <use style="stroke:#000000;stroke-width:0.8;" x="66.053125" xlink:href="#mb978cdeeae" y="234.447039"/>
      </g>
     </g>
     <g id="text_9">
      <!-- 380000 -->
      <g transform="translate(20.878125 238.246257)scale(0.1 -0.1)">
       <defs>
        <path d="M 2034 2216 
Q 1584 2216 1326 1975 
Q 1069 1734 1069 1313 
Q 1069 891 1326 650 
Q 1584 409 2034 409 
Q 2484 409 2743 651 
Q 3003 894 3003 1313 
Q 3003 1734 2745 1975 
Q 2488 2216 2034 2216 
z
M 1403 2484 
Q 997 2584 770 2862 
Q 544 3141 544 3541 
Q 544 4100 942 4425 
Q 1341 4750 2034 4750 
Q 2731 4750 3128 4425 
Q 3525 4100 3525 3541 
Q 3525 3141 3298 2862 
Q 3072 2584 2669 2484 
Q 3125 2378 3379 2068 
Q 3634 1759 3634 1313 
Q 3634 634 3220 271 
Q 2806 -91 2034 -91 
Q 1263 -91 848 271 
Q 434 634 434 1313 
Q 434 1759 690 2068 
Q 947 2378 1403 2484 
z
M 1172 3481 
Q 1172 3119 1398 2916 
Q 1625 2713 2034 2713 
Q 2441 2713 2670 2916 
Q 2900 3119 2900 3481 
Q 2900 3844 2670 4047 
Q 2441 4250 2034 4250 
Q 1625 4250 1398 4047 
Q 1172 3844 1172 3481 
z
" id="DejaVuSans-38" transform="scale(0.015625)"/>
       </defs>
       <use xlink:href="#DejaVuSans-33"/>
       <use x="63.623047" xlink:href="#DejaVuSans-38"/>
       <use x="127.246094" xlink:href="#DejaVuSans-30"/>
       <use x="190.869141" xlink:href="#DejaVuSans-30"/>
       <use x="254.492188" xlink:href="#DejaVuSans-30"/>
       <use x="318.115234" xlink:href="#DejaVuSans-30"/>
      </g>
     </g>
    </g>
    <g id="ytick_3">
     <g id="line2d_9">
      <g>
       <use style="stroke:#000000;stroke-width:0.8;" x="66.053125" xlink:href="#mb978cdeeae" y="198.696871"/>
      </g>
     </g>
     <g id="text_10">
      <!-- 400000 -->
      <g transform="translate(20.878125 202.49609)scale(0.1 -0.1)">
       <use xlink:href="#DejaVuSans-34"/>
       <use x="63.623047" xlink:href="#DejaVuSans-30"/>
       <use x="127.246094" xlink:href="#DejaVuSans-30"/>
       <use x="190.869141" xlink:href="#DejaVuSans-30"/>
       <use x="254.492188" xlink:href="#DejaVuSans-30"/>
       <use x="318.115234" xlink:href="#DejaVuSans-30"/>
      </g>
     </g>
    </g>
    <g id="ytick_4">
     <g id="line2d_10">
      <g>
       <use style="stroke:#000000;stroke-width:0.8;" x="66.053125" xlink:href="#mb978cdeeae" y="162.946703"/>
      </g>
     </g>
     <g id="text_11">
      <!-- 420000 -->
      <g transform="translate(20.878125 166.745922)scale(0.1 -0.1)">
       <use xlink:href="#DejaVuSans-34"/>
       <use x="63.623047" xlink:href="#DejaVuSans-32"/>
       <use x="127.246094" xlink:href="#DejaVuSans-30"/>
       <use x="190.869141" xlink:href="#DejaVuSans-30"/>
       <use x="254.492188" xlink:href="#DejaVuSans-30"/>
       <use x="318.115234" xlink:href="#DejaVuSans-30"/>
      </g>
     </g>
    </g>
    <g id="ytick_5">
     <g id="line2d_11">
      <g>
       <use style="stroke:#000000;stroke-width:0.8;" x="66.053125" xlink:href="#mb978cdeeae" y="127.196535"/>
      </g>
     </g>
     <g id="text_12">
      <!-- 440000 -->
      <g transform="translate(20.878125 130.995754)scale(0.1 -0.1)">
       <use xlink:href="#DejaVuSans-34"/>
       <use x="63.623047" xlink:href="#DejaVuSans-34"/>
       <use x="127.246094" xlink:href="#DejaVuSans-30"/>
       <use x="190.869141" xlink:href="#DejaVuSans-30"/>
       <use x="254.492188" xlink:href="#DejaVuSans-30"/>
       <use x="318.115234" xlink:href="#DejaVuSans-30"/>
      </g>
     </g>
    </g>
    <g id="ytick_6">
     <g id="line2d_12">
      <g>
       <use style="stroke:#000000;stroke-width:0.8;" x="66.053125" xlink:href="#mb978cdeeae" y="91.446368"/>
      </g>
     </g>
     <g id="text_13">
      <!-- 460000 -->
      <g transform="translate(20.878125 95.245586)scale(0.1 -0.1)">
       <use xlink:href="#DejaVuSans-34"/>
       <use x="63.623047" xlink:href="#DejaVuSans-36"/>
       <use x="127.246094" xlink:href="#DejaVuSans-30"/>
       <use x="190.869141" xlink:href="#DejaVuSans-30"/>
       <use x="254.492188" xlink:href="#DejaVuSans-30"/>
       <use x="318.115234" xlink:href="#DejaVuSans-30"/>
      </g>
     </g>
    </g>
    <g id="ytick_7">
     <g id="line2d_13">
      <g>
       <use style="stroke:#000000;stroke-width:0.8;" x="66.053125" xlink:href="#mb978cdeeae" y="55.6962"/>
      </g>
     </g>
     <g id="text_14">
      <!-- 480000 -->
      <g transform="translate(20.878125 59.495419)scale(0.1 -0.1)">
       <use xlink:href="#DejaVuSans-34"/>
       <use x="63.623047" xlink:href="#DejaVuSans-38"/>
       <use x="127.246094" xlink:href="#DejaVuSans-30"/>
       <use x="190.869141" xlink:href="#DejaVuSans-30"/>
       <use x="254.492188" xlink:href="#DejaVuSans-30"/>
       <use x="318.115234" xlink:href="#DejaVuSans-30"/>
      </g>
     </g>
    </g>
    <g id="text_15">
     <!-- Code region coverage -->
     <g transform="translate(14.798438 210.379594)rotate(-90)scale(0.1 -0.1)">
      <defs>
       <path d="M 4122 4306 
L 4122 3641 
Q 3803 3938 3442 4084 
Q 3081 4231 2675 4231 
Q 1875 4231 1450 3742 
Q 1025 3253 1025 2328 
Q 1025 1406 1450 917 
Q 1875 428 2675 428 
Q 3081 428 3442 575 
Q 3803 722 4122 1019 
L 4122 359 
Q 3791 134 3420 21 
Q 3050 -91 2638 -91 
Q 1578 -91 968 557 
Q 359 1206 359 2328 
Q 359 3453 968 4101 
Q 1578 4750 2638 4750 
Q 3056 4750 3426 4639 
Q 3797 4528 4122 4306 
z
" id="DejaVuSans-43" transform="scale(0.015625)"/>
       <path d="M 2906 2969 
L 2906 4863 
L 3481 4863 
L 3481 0 
L 2906 0 
L 2906 525 
Q 2725 213 2448 61 
Q 2172 -91 1784 -91 
Q 1150 -91 751 415 
Q 353 922 353 1747 
Q 353 2572 751 3078 
Q 1150 3584 1784 3584 
Q 2172 3584 2448 3432 
Q 2725 3281 2906 2969 
z
M 947 1747 
Q 947 1113 1208 752 
Q 1469 391 1925 391 
Q 2381 391 2643 752 
Q 2906 1113 2906 1747 
Q 2906 2381 2643 2742 
Q 2381 3103 1925 3103 
Q 1469 3103 1208 2742 
Q 947 2381 947 1747 
z
" id="DejaVuSans-64" transform="scale(0.015625)"/>
       <path d="M 2906 1791 
Q 2906 2416 2648 2759 
Q 2391 3103 1925 3103 
Q 1463 3103 1205 2759 
Q 947 2416 947 1791 
Q 947 1169 1205 825 
Q 1463 481 1925 481 
Q 2391 481 2648 825 
Q 2906 1169 2906 1791 
z
M 3481 434 
Q 3481 -459 3084 -895 
Q 2688 -1331 1869 -1331 
Q 1566 -1331 1297 -1286 
Q 1028 -1241 775 -1147 
L 775 -588 
Q 1028 -725 1275 -790 
Q 1522 -856 1778 -856 
Q 2344 -856 2625 -561 
Q 2906 -266 2906 331 
L 2906 616 
Q 2728 306 2450 153 
Q 2172 0 1784 0 
Q 1141 0 747 490 
Q 353 981 353 1791 
Q 353 2603 747 3093 
Q 1141 3584 1784 3584 
Q 2172 3584 2450 3431 
Q 2728 3278 2906 2969 
L 2906 3500 
L 3481 3500 
L 3481 434 
z
" id="DejaVuSans-67" transform="scale(0.015625)"/>
       <path d="M 3122 3366 
L 3122 2828 
Q 2878 2963 2633 3030 
Q 2388 3097 2138 3097 
Q 1578 3097 1268 2742 
Q 959 2388 959 1747 
Q 959 1106 1268 751 
Q 1578 397 2138 397 
Q 2388 397 2633 464 
Q 2878 531 3122 666 
L 3122 134 
Q 2881 22 2623 -34 
Q 2366 -91 2075 -91 
Q 1284 -91 818 406 
Q 353 903 353 1747 
Q 353 2603 823 3093 
Q 1294 3584 2113 3584 
Q 2378 3584 2631 3529 
Q 2884 3475 3122 3366 
z
" id="DejaVuSans-63" transform="scale(0.015625)"/>
       <path d="M 191 3500 
L 800 3500 
L 1894 563 
L 2988 3500 
L 3597 3500 
L 2284 0 
L 1503 0 
L 191 3500 
z
" id="DejaVuSans-76" transform="scale(0.015625)"/>
       <path d="M 2194 1759 
Q 1497 1759 1228 1600 
Q 959 1441 959 1056 
Q 959 750 1161 570 
Q 1363 391 1709 391 
Q 2188 391 2477 730 
Q 2766 1069 2766 1631 
L 2766 1759 
L 2194 1759 
z
M 3341 1997 
L 3341 0 
L 2766 0 
L 2766 531 
Q 2569 213 2275 61 
Q 1981 -91 1556 -91 
Q 1019 -91 701 211 
Q 384 513 384 1019 
Q 384 1609 779 1909 
Q 1175 2209 1959 2209 
L 2766 2209 
L 2766 2266 
Q 2766 2663 2505 2880 
Q 2244 3097 1772 3097 
Q 1472 3097 1187 3025 
Q 903 2953 641 2809 
L 641 3341 
Q 956 3463 1253 3523 
Q 1550 3584 1831 3584 
Q 2591 3584 2966 3190 
Q 3341 2797 3341 1997 
z
" id="DejaVuSans-61" transform="scale(0.015625)"/>
      </defs>
      <use xlink:href="#DejaVuSans-43"/>
      <use x="69.824219" xlink:href="#DejaVuSans-6f"/>
      <use x="131.005859" xlink:href="#DejaVuSans-64"/>
      <use x="194.482422" xlink:href="#DejaVuSans-65"/>
      <use x="256.005859" xlink:href="#DejaVuSans-20"/>
      <use x="287.792969" xlink:href="#DejaVuSans-72"/>
      <use x="326.65625" xlink:href="#DejaVuSans-65"/>
      <use x="388.179688" xlink:href="#DejaVuSans-67"/>
      <use x="451.65625" xlink:href="#DejaVuSans-69"/>
      <use x="479.439453" xlink:href="#DejaVuSans-6f"/>
      <use x="540.621094" xlink:href="#DejaVuSans-6e"/>
      <use x="604" xlink:href="#DejaVuSans-20"/>
      <use x="635.787109" xlink:href="#DejaVuSans-63"/>
      <use x="690.767578" xlink:href="#DejaVuSans-6f"/>
      <use x="751.949219" xlink:href="#DejaVuSans-76"/>
      <use x="811.128906" xlink:href="#DejaVuSans-65"/>
      <use x="872.652344" xlink:href="#DejaVuSans-72"/>
      <use x="913.765625" xlink:href="#DejaVuSans-61"/>
      <use x="975.044922" xlink:href="#DejaVuSans-67"/>
      <use x="1038.521484" xlink:href="#DejaVuSans-65"/>
     </g>
    </g>
   </g>
   <g id="line2d_14">
    <path clip-path="url(#p4144893bcf)" d="M 82.285852 262.706653 
L 85.853485 233.247621 
L 89.421117 212.137147 
L 92.988749 196.400816 
L 96.556382 186.080637 
L 100.124014 178.408651 
L 103.691646 169.833973 
L 107.259279 162.007368 
L 110.826911 159.559375 
L 114.394544 152.337841 
L 117.962176 142.443982 
L 121.529808 137.219989 
L 125.097441 135.714013 
L 128.665073 134.957003 
L 132.232705 133.58509 
L 135.800338 123.255973 
L 139.36797 118.807759 
L 142.935603 117.98193 
L 146.503235 117.445677 
L 150.070867 117.106051 
L 153.6385 116.440204 
L 157.206132 114.2943 
L 160.773764 111.308267 
L 164.341397 108.722636 
L 167.909029 106.702752 
L 171.476661 105.918929 
L 175.044294 105.058244 
L 178.611926 102.192868 
L 182.179559 99.087072 
L 185.747191 98.158462 
L 189.314823 97.339783 
L 192.882456 97.091319 
L 196.450088 96.021495 
L 200.01772 94.575401 
L 203.585353 92.537642 
L 207.152985 89.732147 
L 210.720618 88.42816 
L 214.28825 87.451286 
L 217.855882 82.989665 
L 221.423515 83.368617 
L 224.991147 82.86454 
L 228.558779 80.422803 
L 232.126412 81.273657 
L 235.694044 76.223052 
L 239.261676 75.272992 
L 242.829309 75.712719 
L 246.396941 74.845777 
L 249.964574 73.607928 
L 253.532206 70.528944 
L 257.099838 69.358126 
L 260.667471 67.797632 
L 264.235103 66.68312 
L 267.802735 65.321039 
L 271.370368 62.479794 
L 274.938 62.427956 
L 278.505632 61.982867 
L 282.073265 60.756636 
L 285.640897 60.304397 
L 289.20853 59.230998 
L 292.776162 58.858302 
L 296.343794 56.884893 
L 299.911427 56.759767 
L 303.479059 57.666034 
L 307.046691 57.373776 
L 310.614324 56.942987 
L 314.181956 56.691842 
L 317.749589 55.399473 
L 321.317221 55.149222 
L 324.884853 53.166876 
L 328.452486 52.950587 
L 332.020118 52.848699 
L 335.58775 52.416122 
L 339.155383 52.287421 
L 342.723015 52.130121 
L 346.290647 50.537451 
L 349.85828 49.79921 
L 353.425912 48.661461 
L 356.993545 48.283403 
L 360.561177 48.078733 
L 364.128809 46.787258 
L 367.696442 47.41378 
L 371.264074 47.007122 
L 374.831706 46.796196 
L 378.399339 46.475338 
L 381.966971 46.270668 
L 385.534604 44.918418 
L 389.102236 44.836193 
L 392.669868 44.492991 
L 396.237501 43.744919 
L 399.805133 43.580468 
L 403.372765 43.23816 
L 406.940398 43.057622 
" style="fill:none;stroke:#98df8a;stroke-linecap:square;stroke-width:1.5;"/>
    <defs>
     <path d="M -0 3 
L 3 -3 
L -3 -3 
z
" id="m6acc7d62aa" style="stroke:#ffffff;stroke-linejoin:miter;stroke-width:0.75;"/>
    </defs>
    <g clip-path="url(#p4144893bcf)">
     <use style="fill:#98df8a;stroke:#ffffff;stroke-linejoin:miter;stroke-width:0.75;" x="82.285852" xlink:href="#m6acc7d62aa" y="262.706653"/>
     <use style="fill:#98df8a;stroke:#ffffff;stroke-linejoin:miter;stroke-width:0.75;" x="85.853485" xlink:href="#m6acc7d62aa" y="233.247621"/>
     <use style="fill:#98df8a;stroke:#ffffff;stroke-linejoin:miter;stroke-width:0.75;" x="89.421117" xlink:href="#m6acc7d62aa" y="212.137147"/>
     <use style="fill:#98df8a;stroke:#ffffff;stroke-linejoin:miter;stroke-width:0.75;" x="92.988749" xlink:href="#m6acc7d62aa" y="196.400816"/>
     <use style="fill:#98df8a;stroke:#ffffff;stroke-linejoin:miter;stroke-width:0.75;" x="96.556382" xlink:href="#m6acc7d62aa" y="186.080637"/>
     <use style="fill:#98df8a;stroke:#ffffff;stroke-linejoin:miter;stroke-width:0.75;" x="100.124014" xlink:href="#m6acc7d62aa" y="178.408651"/>
     <use style="fill:#98df8a;stroke:#ffffff;stroke-linejoin:miter;stroke-width:0.75;" x="103.691646" xlink:href="#m6acc7d62aa" y="169.833973"/>
     <use style="fill:#98df8a;stroke:#ffffff;stroke-linejoin:miter;stroke-width:0.75;" x="107.259279" xlink:href="#m6acc7d62aa" y="162.007368"/>
     <use style="fill:#98df8a;stroke:#ffffff;stroke-linejoin:miter;stroke-width:0.75;" x="110.826911" xlink:href="#m6acc7d62aa" y="159.559375"/>
     <use style="fill:#98df8a;stroke:#ffffff;stroke-linejoin:miter;stroke-width:0.75;" x="114.394544" xlink:href="#m6acc7d62aa" y="152.337841"/>
     <use style="fill:#98df8a;stroke:#ffffff;stroke-linejoin:miter;stroke-width:0.75;" x="117.962176" xlink:href="#m6acc7d62aa" y="142.443982"/>
     <use style="fill:#98df8a;stroke:#ffffff;stroke-linejoin:miter;stroke-width:0.75;" x="121.529808" xlink:href="#m6acc7d62aa" y="137.219989"/>
     <use style="fill:#98df8a;stroke:#ffffff;stroke-linejoin:miter;stroke-width:0.75;" x="125.097441" xlink:href="#m6acc7d62aa" y="135.714013"/>
     <use style="fill:#98df8a;stroke:#ffffff;stroke-linejoin:miter;stroke-width:0.75;" x="128.665073" xlink:href="#m6acc7d62aa" y="134.957003"/>
     <use style="fill:#98df8a;stroke:#ffffff;stroke-linejoin:miter;stroke-width:0.75;" x="132.232705" xlink:href="#m6acc7d62aa" y="133.58509"/>
     <use style="fill:#98df8a;stroke:#ffffff;stroke-linejoin:miter;stroke-width:0.75;" x="135.800338" xlink:href="#m6acc7d62aa" y="123.255973"/>
     <use style="fill:#98df8a;stroke:#ffffff;stroke-linejoin:miter;stroke-width:0.75;" x="139.36797" xlink:href="#m6acc7d62aa" y="118.807759"/>
     <use style="fill:#98df8a;stroke:#ffffff;stroke-linejoin:miter;stroke-width:0.75;" x="142.935603" xlink:href="#m6acc7d62aa" y="117.98193"/>
     <use style="fill:#98df8a;stroke:#ffffff;stroke-linejoin:miter;stroke-width:0.75;" x="146.503235" xlink:href="#m6acc7d62aa" y="117.445677"/>
     <use style="fill:#98df8a;stroke:#ffffff;stroke-linejoin:miter;stroke-width:0.75;" x="150.070867" xlink:href="#m6acc7d62aa" y="117.106051"/>
     <use style="fill:#98df8a;stroke:#ffffff;stroke-linejoin:miter;stroke-width:0.75;" x="153.6385" xlink:href="#m6acc7d62aa" y="116.440204"/>
     <use style="fill:#98df8a;stroke:#ffffff;stroke-linejoin:miter;stroke-width:0.75;" x="157.206132" xlink:href="#m6acc7d62aa" y="114.2943"/>
     <use style="fill:#98df8a;stroke:#ffffff;stroke-linejoin:miter;stroke-width:0.75;" x="160.773764" xlink:href="#m6acc7d62aa" y="111.308267"/>
     <use style="fill:#98df8a;stroke:#ffffff;stroke-linejoin:miter;stroke-width:0.75;" x="164.341397" xlink:href="#m6acc7d62aa" y="108.722636"/>
     <use style="fill:#98df8a;stroke:#ffffff;stroke-linejoin:miter;stroke-width:0.75;" x="167.909029" xlink:href="#m6acc7d62aa" y="106.702752"/>
     <use style="fill:#98df8a;stroke:#ffffff;stroke-linejoin:miter;stroke-width:0.75;" x="171.476661" xlink:href="#m6acc7d62aa" y="105.918929"/>
     <use style="fill:#98df8a;stroke:#ffffff;stroke-linejoin:miter;stroke-width:0.75;" x="175.044294" xlink:href="#m6acc7d62aa" y="105.058244"/>
     <use style="fill:#98df8a;stroke:#ffffff;stroke-linejoin:miter;stroke-width:0.75;" x="178.611926" xlink:href="#m6acc7d62aa" y="102.192868"/>
     <use style="fill:#98df8a;stroke:#ffffff;stroke-linejoin:miter;stroke-width:0.75;" x="182.179559" xlink:href="#m6acc7d62aa" y="99.087072"/>
     <use style="fill:#98df8a;stroke:#ffffff;stroke-linejoin:miter;stroke-width:0.75;" x="185.747191" xlink:href="#m6acc7d62aa" y="98.158462"/>
     <use style="fill:#98df8a;stroke:#ffffff;stroke-linejoin:miter;stroke-width:0.75;" x="189.314823" xlink:href="#m6acc7d62aa" y="97.339783"/>
     <use style="fill:#98df8a;stroke:#ffffff;stroke-linejoin:miter;stroke-width:0.75;" x="192.882456" xlink:href="#m6acc7d62aa" y="97.091319"/>
     <use style="fill:#98df8a;stroke:#ffffff;stroke-linejoin:miter;stroke-width:0.75;" x="196.450088" xlink:href="#m6acc7d62aa" y="96.021495"/>
     <use style="fill:#98df8a;stroke:#ffffff;stroke-linejoin:miter;stroke-width:0.75;" x="200.01772" xlink:href="#m6acc7d62aa" y="94.575401"/>
     <use style="fill:#98df8a;stroke:#ffffff;stroke-linejoin:miter;stroke-width:0.75;" x="203.585353" xlink:href="#m6acc7d62aa" y="92.537642"/>
     <use style="fill:#98df8a;stroke:#ffffff;stroke-linejoin:miter;stroke-width:0.75;" x="207.152985" xlink:href="#m6acc7d62aa" y="89.732147"/>
     <use style="fill:#98df8a;stroke:#ffffff;stroke-linejoin:miter;stroke-width:0.75;" x="210.720618" xlink:href="#m6acc7d62aa" y="88.42816"/>
     <use style="fill:#98df8a;stroke:#ffffff;stroke-linejoin:miter;stroke-width:0.75;" x="214.28825" xlink:href="#m6acc7d62aa" y="87.451286"/>
     <use style="fill:#98df8a;stroke:#ffffff;stroke-linejoin:miter;stroke-width:0.75;" x="217.855882" xlink:href="#m6acc7d62aa" y="82.989665"/>
     <use style="fill:#98df8a;stroke:#ffffff;stroke-linejoin:miter;stroke-width:0.75;" x="221.423515" xlink:href="#m6acc7d62aa" y="83.368617"/>
     <use style="fill:#98df8a;stroke:#ffffff;stroke-linejoin:miter;stroke-width:0.75;" x="224.991147" xlink:href="#m6acc7d62aa" y="82.86454"/>
     <use style="fill:#98df8a;stroke:#ffffff;stroke-linejoin:miter;stroke-width:0.75;" x="228.558779" xlink:href="#m6acc7d62aa" y="80.422803"/>
     <use style="fill:#98df8a;stroke:#ffffff;stroke-linejoin:miter;stroke-width:0.75;" x="232.126412" xlink:href="#m6acc7d62aa" y="81.273657"/>
     <use style="fill:#98df8a;stroke:#ffffff;stroke-linejoin:miter;stroke-width:0.75;" x="235.694044" xlink:href="#m6acc7d62aa" y="76.223052"/>
     <use style="fill:#98df8a;stroke:#ffffff;stroke-linejoin:miter;stroke-width:0.75;" x="239.261676" xlink:href="#m6acc7d62aa" y="75.272992"/>
     <use style="fill:#98df8a;stroke:#ffffff;stroke-linejoin:miter;stroke-width:0.75;" x="242.829309" xlink:href="#m6acc7d62aa" y="75.712719"/>
     <use style="fill:#98df8a;stroke:#ffffff;stroke-linejoin:miter;stroke-width:0.75;" x="246.396941" xlink:href="#m6acc7d62aa" y="74.845777"/>
     <use style="fill:#98df8a;stroke:#ffffff;stroke-linejoin:miter;stroke-width:0.75;" x="249.964574" xlink:href="#m6acc7d62aa" y="73.607928"/>
     <use style="fill:#98df8a;stroke:#ffffff;stroke-linejoin:miter;stroke-width:0.75;" x="253.532206" xlink:href="#m6acc7d62aa" y="70.528944"/>
     <use style="fill:#98df8a;stroke:#ffffff;stroke-linejoin:miter;stroke-width:0.75;" x="257.099838" xlink:href="#m6acc7d62aa" y="69.358126"/>
     <use style="fill:#98df8a;stroke:#ffffff;stroke-linejoin:miter;stroke-width:0.75;" x="260.667471" xlink:href="#m6acc7d62aa" y="67.797632"/>
     <use style="fill:#98df8a;stroke:#ffffff;stroke-linejoin:miter;stroke-width:0.75;" x="264.235103" xlink:href="#m6acc7d62aa" y="66.68312"/>
     <use style="fill:#98df8a;stroke:#ffffff;stroke-linejoin:miter;stroke-width:0.75;" x="267.802735" xlink:href="#m6acc7d62aa" y="65.321039"/>
     <use style="fill:#98df8a;stroke:#ffffff;stroke-linejoin:miter;stroke-width:0.75;" x="271.370368" xlink:href="#m6acc7d62aa" y="62.479794"/>
     <use style="fill:#98df8a;stroke:#ffffff;stroke-linejoin:miter;stroke-width:0.75;" x="274.938" xlink:href="#m6acc7d62aa" y="62.427956"/>
     <use style="fill:#98df8a;stroke:#ffffff;stroke-linejoin:miter;stroke-width:0.75;" x="278.505632" xlink:href="#m6acc7d62aa" y="61.982867"/>
     <use style="fill:#98df8a;stroke:#ffffff;stroke-linejoin:miter;stroke-width:0.75;" x="282.073265" xlink:href="#m6acc7d62aa" y="60.756636"/>
     <use style="fill:#98df8a;stroke:#ffffff;stroke-linejoin:miter;stroke-width:0.75;" x="285.640897" xlink:href="#m6acc7d62aa" y="60.304397"/>
     <use style="fill:#98df8a;stroke:#ffffff;stroke-linejoin:miter;stroke-width:0.75;" x="289.20853" xlink:href="#m6acc7d62aa" y="59.230998"/>
     <use style="fill:#98df8a;stroke:#ffffff;stroke-linejoin:miter;stroke-width:0.75;" x="292.776162" xlink:href="#m6acc7d62aa" y="58.858302"/>
     <use style="fill:#98df8a;stroke:#ffffff;stroke-linejoin:miter;stroke-width:0.75;" x="296.343794" xlink:href="#m6acc7d62aa" y="56.884893"/>
     <use style="fill:#98df8a;stroke:#ffffff;stroke-linejoin:miter;stroke-width:0.75;" x="299.911427" xlink:href="#m6acc7d62aa" y="56.759767"/>
     <use style="fill:#98df8a;stroke:#ffffff;stroke-linejoin:miter;stroke-width:0.75;" x="303.479059" xlink:href="#m6acc7d62aa" y="57.666034"/>
     <use style="fill:#98df8a;stroke:#ffffff;stroke-linejoin:miter;stroke-width:0.75;" x="307.046691" xlink:href="#m6acc7d62aa" y="57.373776"/>
     <use style="fill:#98df8a;stroke:#ffffff;stroke-linejoin:miter;stroke-width:0.75;" x="310.614324" xlink:href="#m6acc7d62aa" y="56.942987"/>
     <use style="fill:#98df8a;stroke:#ffffff;stroke-linejoin:miter;stroke-width:0.75;" x="314.181956" xlink:href="#m6acc7d62aa" y="56.691842"/>
     <use style="fill:#98df8a;stroke:#ffffff;stroke-linejoin:miter;stroke-width:0.75;" x="317.749589" xlink:href="#m6acc7d62aa" y="55.399473"/>
     <use style="fill:#98df8a;stroke:#ffffff;stroke-linejoin:miter;stroke-width:0.75;" x="321.317221" xlink:href="#m6acc7d62aa" y="55.149222"/>
     <use style="fill:#98df8a;stroke:#ffffff;stroke-linejoin:miter;stroke-width:0.75;" x="324.884853" xlink:href="#m6acc7d62aa" y="53.166876"/>
     <use style="fill:#98df8a;stroke:#ffffff;stroke-linejoin:miter;stroke-width:0.75;" x="328.452486" xlink:href="#m6acc7d62aa" y="52.950587"/>
     <use style="fill:#98df8a;stroke:#ffffff;stroke-linejoin:miter;stroke-width:0.75;" x="332.020118" xlink:href="#m6acc7d62aa" y="52.848699"/>
     <use style="fill:#98df8a;stroke:#ffffff;stroke-linejoin:miter;stroke-width:0.75;" x="335.58775" xlink:href="#m6acc7d62aa" y="52.416122"/>
     <use style="fill:#98df8a;stroke:#ffffff;stroke-linejoin:miter;stroke-width:0.75;" x="339.155383" xlink:href="#m6acc7d62aa" y="52.287421"/>
     <use style="fill:#98df8a;stroke:#ffffff;stroke-linejoin:miter;stroke-width:0.75;" x="342.723015" xlink:href="#m6acc7d62aa" y="52.130121"/>
     <use style="fill:#98df8a;stroke:#ffffff;stroke-linejoin:miter;stroke-width:0.75;" x="346.290647" xlink:href="#m6acc7d62aa" y="50.537451"/>
     <use style="fill:#98df8a;stroke:#ffffff;stroke-linejoin:miter;stroke-width:0.75;" x="349.85828" xlink:href="#m6acc7d62aa" y="49.79921"/>
     <use style="fill:#98df8a;stroke:#ffffff;stroke-linejoin:miter;stroke-width:0.75;" x="353.425912" xlink:href="#m6acc7d62aa" y="48.661461"/>
     <use style="fill:#98df8a;stroke:#ffffff;stroke-linejoin:miter;stroke-width:0.75;" x="356.993545" xlink:href="#m6acc7d62aa" y="48.283403"/>
     <use style="fill:#98df8a;stroke:#ffffff;stroke-linejoin:miter;stroke-width:0.75;" x="360.561177" xlink:href="#m6acc7d62aa" y="48.078733"/>
     <use style="fill:#98df8a;stroke:#ffffff;stroke-linejoin:miter;stroke-width:0.75;" x="364.128809" xlink:href="#m6acc7d62aa" y="46.787258"/>
     <use style="fill:#98df8a;stroke:#ffffff;stroke-linejoin:miter;stroke-width:0.75;" x="367.696442" xlink:href="#m6acc7d62aa" y="47.41378"/>
     <use style="fill:#98df8a;stroke:#ffffff;stroke-linejoin:miter;stroke-width:0.75;" x="371.264074" xlink:href="#m6acc7d62aa" y="47.007122"/>
     <use style="fill:#98df8a;stroke:#ffffff;stroke-linejoin:miter;stroke-width:0.75;" x="374.831706" xlink:href="#m6acc7d62aa" y="46.796196"/>
     <use style="fill:#98df8a;stroke:#ffffff;stroke-linejoin:miter;stroke-width:0.75;" x="378.399339" xlink:href="#m6acc7d62aa" y="46.475338"/>
     <use style="fill:#98df8a;stroke:#ffffff;stroke-linejoin:miter;stroke-width:0.75;" x="381.966971" xlink:href="#m6acc7d62aa" y="46.270668"/>
     <use style="fill:#98df8a;stroke:#ffffff;stroke-linejoin:miter;stroke-width:0.75;" x="385.534604" xlink:href="#m6acc7d62aa" y="44.918418"/>
     <use style="fill:#98df8a;stroke:#ffffff;stroke-linejoin:miter;stroke-width:0.75;" x="389.102236" xlink:href="#m6acc7d62aa" y="44.836193"/>
     <use style="fill:#98df8a;stroke:#ffffff;stroke-linejoin:miter;stroke-width:0.75;" x="392.669868" xlink:href="#m6acc7d62aa" y="44.492991"/>
     <use style="fill:#98df8a;stroke:#ffffff;stroke-linejoin:miter;stroke-width:0.75;" x="396.237501" xlink:href="#m6acc7d62aa" y="43.744919"/>
     <use style="fill:#98df8a;stroke:#ffffff;stroke-linejoin:miter;stroke-width:0.75;" x="399.805133" xlink:href="#m6acc7d62aa" y="43.580468"/>
     <use style="fill:#98df8a;stroke:#ffffff;stroke-linejoin:miter;stroke-width:0.75;" x="403.372765" xlink:href="#m6acc7d62aa" y="43.23816"/>
     <use style="fill:#98df8a;stroke:#ffffff;stroke-linejoin:miter;stroke-width:0.75;" x="406.940398" xlink:href="#m6acc7d62aa" y="43.057622"/>
    </g>
   </g>
   <g id="line2d_15">
    <path clip-path="url(#p4144893bcf)" d="M 82.285852 266.010862 
L 85.853485 239.08026 
L 89.421117 219.544581 
L 92.988749 209.118045 
L 96.556382 199.102635 
L 100.124014 186.70269 
L 103.691646 181.324971 
L 107.259279 180.401723 
L 110.826911 180.464285 
L 114.394544 179.925352 
L 117.962176 168.698905 
L 121.529808 160.261866 
L 125.097441 160.263653 
L 128.665073 159.276055 
L 132.232705 158.885484 
L 135.800338 150.446657 
L 139.36797 147.363205 
L 142.935603 145.723166 
L 146.503235 145.077876 
L 150.070867 144.805281 
L 153.6385 144.625636 
L 157.206132 140.893318 
L 160.773764 135.100898 
L 164.341397 125.408133 
L 167.909029 126.915897 
L 171.476661 126.66207 
L 175.044294 132.608217 
L 178.611926 132.388354 
L 182.179559 123.194304 
L 185.747191 116.427691 
L 189.314823 128.084033 
L 192.882456 127.5737 
L 196.450088 117.812116 
L 200.01772 115.081697 
L 203.585353 113.019806 
L 207.152985 112.753468 
L 210.720618 112.472829 
L 214.28825 110.717496 
L 217.855882 106.929765 
L 221.423515 112.201128 
L 224.991147 115.216654 
L 228.558779 108.64488 
L 232.126412 106.010986 
L 235.694044 103.517412 
L 239.261676 99.729682 
L 242.829309 98.318444 
L 246.396941 98.140587 
L 249.964574 96.70343 
L 253.532206 95.259123 
L 257.099838 92.152433 
L 260.667471 90.3542 
L 264.235103 89.946648 
L 267.802735 89.833141 
L 271.370368 89.77326 
L 274.938 88.950112 
L 278.505632 85.869341 
L 282.073265 84.084514 
L 285.640897 83.712713 
L 289.20853 84.285609 
L 292.776162 84.212321 
L 296.343794 82.401575 
L 299.911427 81.734835 
L 303.479059 81.018937 
L 307.046691 79.68635 
L 310.614324 79.542456 
L 314.181956 79.315442 
L 317.749589 79.180485 
L 321.317221 80.14574 
L 324.884853 77.654847 
L 328.452486 76.219477 
L 332.020118 75.210429 
L 335.58775 74.486488 
L 339.155383 73.866223 
L 342.723015 70.993697 
L 346.290647 72.614967 
L 349.85828 71.554974 
L 353.425912 71.710488 
L 356.993545 69.043525 
L 360.561177 67.516993 
L 364.128809 68.219484 
L 367.696442 66.765346 
L 371.264074 66.139718 
L 374.831706 65.222726 
L 378.399339 65.438121 
L 381.966971 64.900974 
L 385.534604 64.406728 
L 389.102236 63.739988 
L 392.669868 63.570174 
L 396.237501 61.031912 
L 399.805133 57.537334 
L 403.372765 56.880424 
L 406.940398 57.190557 
" style="fill:none;stroke:#1f77b4;stroke-linecap:square;stroke-width:1.5;"/>
    <defs>
     <path d="M 0 3 
C 0.795609 3 1.55874 2.683901 2.12132 2.12132 
C 2.683901 1.55874 3 0.795609 3 0 
C 3 -0.795609 2.683901 -1.55874 2.12132 -2.12132 
C 1.55874 -2.683901 0.795609 -3 0 -3 
C -0.795609 -3 -1.55874 -2.683901 -2.12132 -2.12132 
C -2.683901 -1.55874 -3 -0.795609 -3 0 
C -3 0.795609 -2.683901 1.55874 -2.12132 2.12132 
C -1.55874 2.683901 -0.795609 3 0 3 
z
" id="mfaeb35d176" style="stroke:#ffffff;stroke-width:0.75;"/>
    </defs>
    <g clip-path="url(#p4144893bcf)">
     <use style="fill:#1f77b4;stroke:#ffffff;stroke-width:0.75;" x="82.285852" xlink:href="#mfaeb35d176" y="266.010862"/>
     <use style="fill:#1f77b4;stroke:#ffffff;stroke-width:0.75;" x="85.853485" xlink:href="#mfaeb35d176" y="239.08026"/>
     <use style="fill:#1f77b4;stroke:#ffffff;stroke-width:0.75;" x="89.421117" xlink:href="#mfaeb35d176" y="219.544581"/>
     <use style="fill:#1f77b4;stroke:#ffffff;stroke-width:0.75;" x="92.988749" xlink:href="#mfaeb35d176" y="209.118045"/>
     <use style="fill:#1f77b4;stroke:#ffffff;stroke-width:0.75;" x="96.556382" xlink:href="#mfaeb35d176" y="199.102635"/>
     <use style="fill:#1f77b4;stroke:#ffffff;stroke-width:0.75;" x="100.124014" xlink:href="#mfaeb35d176" y="186.70269"/>
     <use style="fill:#1f77b4;stroke:#ffffff;stroke-width:0.75;" x="103.691646" xlink:href="#mfaeb35d176" y="181.324971"/>
     <use style="fill:#1f77b4;stroke:#ffffff;stroke-width:0.75;" x="107.259279" xlink:href="#mfaeb35d176" y="180.401723"/>
     <use style="fill:#1f77b4;stroke:#ffffff;stroke-width:0.75;" x="110.826911" xlink:href="#mfaeb35d176" y="180.464285"/>
     <use style="fill:#1f77b4;stroke:#ffffff;stroke-width:0.75;" x="114.394544" xlink:href="#mfaeb35d176" y="179.925352"/>
     <use style="fill:#1f77b4;stroke:#ffffff;stroke-width:0.75;" x="117.962176" xlink:href="#mfaeb35d176" y="168.698905"/>
     <use style="fill:#1f77b4;stroke:#ffffff;stroke-width:0.75;" x="121.529808" xlink:href="#mfaeb35d176" y="160.261866"/>
     <use style="fill:#1f77b4;stroke:#ffffff;stroke-width:0.75;" x="125.097441" xlink:href="#mfaeb35d176" y="160.263653"/>
     <use style="fill:#1f77b4;stroke:#ffffff;stroke-width:0.75;" x="128.665073" xlink:href="#mfaeb35d176" y="159.276055"/>
     <use style="fill:#1f77b4;stroke:#ffffff;stroke-width:0.75;" x="132.232705" xlink:href="#mfaeb35d176" y="158.885484"/>
     <use style="fill:#1f77b4;stroke:#ffffff;stroke-width:0.75;" x="135.800338" xlink:href="#mfaeb35d176" y="150.446657"/>
     <use style="fill:#1f77b4;stroke:#ffffff;stroke-width:0.75;" x="139.36797" xlink:href="#mfaeb35d176" y="147.363205"/>
     <use style="fill:#1f77b4;stroke:#ffffff;stroke-width:0.75;" x="142.935603" xlink:href="#mfaeb35d176" y="145.723166"/>
     <use style="fill:#1f77b4;stroke:#ffffff;stroke-width:0.75;" x="146.503235" xlink:href="#mfaeb35d176" y="145.077876"/>
     <use style="fill:#1f77b4;stroke:#ffffff;stroke-width:0.75;" x="150.070867" xlink:href="#mfaeb35d176" y="144.805281"/>
     <use style="fill:#1f77b4;stroke:#ffffff;stroke-width:0.75;" x="153.6385" xlink:href="#mfaeb35d176" y="144.625636"/>
     <use style="fill:#1f77b4;stroke:#ffffff;stroke-width:0.75;" x="157.206132" xlink:href="#mfaeb35d176" y="140.893318"/>
     <use style="fill:#1f77b4;stroke:#ffffff;stroke-width:0.75;" x="160.773764" xlink:href="#mfaeb35d176" y="135.100898"/>
     <use style="fill:#1f77b4;stroke:#ffffff;stroke-width:0.75;" x="164.341397" xlink:href="#mfaeb35d176" y="125.408133"/>
     <use style="fill:#1f77b4;stroke:#ffffff;stroke-width:0.75;" x="167.909029" xlink:href="#mfaeb35d176" y="126.915897"/>
     <use style="fill:#1f77b4;stroke:#ffffff;stroke-width:0.75;" x="171.476661" xlink:href="#mfaeb35d176" y="126.66207"/>
     <use style="fill:#1f77b4;stroke:#ffffff;stroke-width:0.75;" x="175.044294" xlink:href="#mfaeb35d176" y="132.608217"/>
     <use style="fill:#1f77b4;stroke:#ffffff;stroke-width:0.75;" x="178.611926" xlink:href="#mfaeb35d176" y="132.388354"/>
     <use style="fill:#1f77b4;stroke:#ffffff;stroke-width:0.75;" x="182.179559" xlink:href="#mfaeb35d176" y="123.194304"/>
     <use style="fill:#1f77b4;stroke:#ffffff;stroke-width:0.75;" x="185.747191" xlink:href="#mfaeb35d176" y="116.427691"/>
     <use style="fill:#1f77b4;stroke:#ffffff;stroke-width:0.75;" x="189.314823" xlink:href="#mfaeb35d176" y="128.084033"/>
     <use style="fill:#1f77b4;stroke:#ffffff;stroke-width:0.75;" x="192.882456" xlink:href="#mfaeb35d176" y="127.5737"/>
     <use style="fill:#1f77b4;stroke:#ffffff;stroke-width:0.75;" x="196.450088" xlink:href="#mfaeb35d176" y="117.812116"/>
     <use style="fill:#1f77b4;stroke:#ffffff;stroke-width:0.75;" x="200.01772" xlink:href="#mfaeb35d176" y="115.081697"/>
     <use style="fill:#1f77b4;stroke:#ffffff;stroke-width:0.75;" x="203.585353" xlink:href="#mfaeb35d176" y="113.019806"/>
     <use style="fill:#1f77b4;stroke:#ffffff;stroke-width:0.75;" x="207.152985" xlink:href="#mfaeb35d176" y="112.753468"/>
     <use style="fill:#1f77b4;stroke:#ffffff;stroke-width:0.75;" x="210.720618" xlink:href="#mfaeb35d176" y="112.472829"/>
     <use style="fill:#1f77b4;stroke:#ffffff;stroke-width:0.75;" x="214.28825" xlink:href="#mfaeb35d176" y="110.717496"/>
     <use style="fill:#1f77b4;stroke:#ffffff;stroke-width:0.75;" x="217.855882" xlink:href="#mfaeb35d176" y="106.929765"/>
     <use style="fill:#1f77b4;stroke:#ffffff;stroke-width:0.75;" x="221.423515" xlink:href="#mfaeb35d176" y="112.201128"/>
     <use style="fill:#1f77b4;stroke:#ffffff;stroke-width:0.75;" x="224.991147" xlink:href="#mfaeb35d176" y="115.216654"/>
     <use style="fill:#1f77b4;stroke:#ffffff;stroke-width:0.75;" x="228.558779" xlink:href="#mfaeb35d176" y="108.64488"/>
     <use style="fill:#1f77b4;stroke:#ffffff;stroke-width:0.75;" x="232.126412" xlink:href="#mfaeb35d176" y="106.010986"/>
     <use style="fill:#1f77b4;stroke:#ffffff;stroke-width:0.75;" x="235.694044" xlink:href="#mfaeb35d176" y="103.517412"/>
     <use style="fill:#1f77b4;stroke:#ffffff;stroke-width:0.75;" x="239.261676" xlink:href="#mfaeb35d176" y="99.729682"/>
     <use style="fill:#1f77b4;stroke:#ffffff;stroke-width:0.75;" x="242.829309" xlink:href="#mfaeb35d176" y="98.318444"/>
     <use style="fill:#1f77b4;stroke:#ffffff;stroke-width:0.75;" x="246.396941" xlink:href="#mfaeb35d176" y="98.140587"/>
     <use style="fill:#1f77b4;stroke:#ffffff;stroke-width:0.75;" x="249.964574" xlink:href="#mfaeb35d176" y="96.70343"/>
     <use style="fill:#1f77b4;stroke:#ffffff;stroke-width:0.75;" x="253.532206" xlink:href="#mfaeb35d176" y="95.259123"/>
     <use style="fill:#1f77b4;stroke:#ffffff;stroke-width:0.75;" x="257.099838" xlink:href="#mfaeb35d176" y="92.152433"/>
     <use style="fill:#1f77b4;stroke:#ffffff;stroke-width:0.75;" x="260.667471" xlink:href="#mfaeb35d176" y="90.3542"/>
     <use style="fill:#1f77b4;stroke:#ffffff;stroke-width:0.75;" x="264.235103" xlink:href="#mfaeb35d176" y="89.946648"/>
     <use style="fill:#1f77b4;stroke:#ffffff;stroke-width:0.75;" x="267.802735" xlink:href="#mfaeb35d176" y="89.833141"/>
     <use style="fill:#1f77b4;stroke:#ffffff;stroke-width:0.75;" x="271.370368" xlink:href="#mfaeb35d176" y="89.77326"/>
     <use style="fill:#1f77b4;stroke:#ffffff;stroke-width:0.75;" x="274.938" xlink:href="#mfaeb35d176" y="88.950112"/>
     <use style="fill:#1f77b4;stroke:#ffffff;stroke-width:0.75;" x="278.505632" xlink:href="#mfaeb35d176" y="85.869341"/>
     <use style="fill:#1f77b4;stroke:#ffffff;stroke-width:0.75;" x="282.073265" xlink:href="#mfaeb35d176" y="84.084514"/>
     <use style="fill:#1f77b4;stroke:#ffffff;stroke-width:0.75;" x="285.640897" xlink:href="#mfaeb35d176" y="83.712713"/>
     <use style="fill:#1f77b4;stroke:#ffffff;stroke-width:0.75;" x="289.20853" xlink:href="#mfaeb35d176" y="84.285609"/>
     <use style="fill:#1f77b4;stroke:#ffffff;stroke-width:0.75;" x="292.776162" xlink:href="#mfaeb35d176" y="84.212321"/>
     <use style="fill:#1f77b4;stroke:#ffffff;stroke-width:0.75;" x="296.343794" xlink:href="#mfaeb35d176" y="82.401575"/>
     <use style="fill:#1f77b4;stroke:#ffffff;stroke-width:0.75;" x="299.911427" xlink:href="#mfaeb35d176" y="81.734835"/>
     <use style="fill:#1f77b4;stroke:#ffffff;stroke-width:0.75;" x="303.479059" xlink:href="#mfaeb35d176" y="81.018937"/>
     <use style="fill:#1f77b4;stroke:#ffffff;stroke-width:0.75;" x="307.046691" xlink:href="#mfaeb35d176" y="79.68635"/>
     <use style="fill:#1f77b4;stroke:#ffffff;stroke-width:0.75;" x="310.614324" xlink:href="#mfaeb35d176" y="79.542456"/>
     <use style="fill:#1f77b4;stroke:#ffffff;stroke-width:0.75;" x="314.181956" xlink:href="#mfaeb35d176" y="79.315442"/>
     <use style="fill:#1f77b4;stroke:#ffffff;stroke-width:0.75;" x="317.749589" xlink:href="#mfaeb35d176" y="79.180485"/>
     <use style="fill:#1f77b4;stroke:#ffffff;stroke-width:0.75;" x="321.317221" xlink:href="#mfaeb35d176" y="80.14574"/>
     <use style="fill:#1f77b4;stroke:#ffffff;stroke-width:0.75;" x="324.884853" xlink:href="#mfaeb35d176" y="77.654847"/>
     <use style="fill:#1f77b4;stroke:#ffffff;stroke-width:0.75;" x="328.452486" xlink:href="#mfaeb35d176" y="76.219477"/>
     <use style="fill:#1f77b4;stroke:#ffffff;stroke-width:0.75;" x="332.020118" xlink:href="#mfaeb35d176" y="75.210429"/>
     <use style="fill:#1f77b4;stroke:#ffffff;stroke-width:0.75;" x="335.58775" xlink:href="#mfaeb35d176" y="74.486488"/>
     <use style="fill:#1f77b4;stroke:#ffffff;stroke-width:0.75;" x="339.155383" xlink:href="#mfaeb35d176" y="73.866223"/>
     <use style="fill:#1f77b4;stroke:#ffffff;stroke-width:0.75;" x="342.723015" xlink:href="#mfaeb35d176" y="70.993697"/>
     <use style="fill:#1f77b4;stroke:#ffffff;stroke-width:0.75;" x="346.290647" xlink:href="#mfaeb35d176" y="72.614967"/>
     <use style="fill:#1f77b4;stroke:#ffffff;stroke-width:0.75;" x="349.85828" xlink:href="#mfaeb35d176" y="71.554974"/>
     <use style="fill:#1f77b4;stroke:#ffffff;stroke-width:0.75;" x="353.425912" xlink:href="#mfaeb35d176" y="71.710488"/>
     <use style="fill:#1f77b4;stroke:#ffffff;stroke-width:0.75;" x="356.993545" xlink:href="#mfaeb35d176" y="69.043525"/>
     <use style="fill:#1f77b4;stroke:#ffffff;stroke-width:0.75;" x="360.561177" xlink:href="#mfaeb35d176" y="67.516993"/>
     <use style="fill:#1f77b4;stroke:#ffffff;stroke-width:0.75;" x="364.128809" xlink:href="#mfaeb35d176" y="68.219484"/>
     <use style="fill:#1f77b4;stroke:#ffffff;stroke-width:0.75;" x="367.696442" xlink:href="#mfaeb35d176" y="66.765346"/>
     <use style="fill:#1f77b4;stroke:#ffffff;stroke-width:0.75;" x="371.264074" xlink:href="#mfaeb35d176" y="66.139718"/>
     <use style="fill:#1f77b4;stroke:#ffffff;stroke-width:0.75;" x="374.831706" xlink:href="#mfaeb35d176" y="65.222726"/>
     <use style="fill:#1f77b4;stroke:#ffffff;stroke-width:0.75;" x="378.399339" xlink:href="#mfaeb35d176" y="65.438121"/>
     <use style="fill:#1f77b4;stroke:#ffffff;stroke-width:0.75;" x="381.966971" xlink:href="#mfaeb35d176" y="64.900974"/>
     <use style="fill:#1f77b4;stroke:#ffffff;stroke-width:0.75;" x="385.534604" xlink:href="#mfaeb35d176" y="64.406728"/>
     <use style="fill:#1f77b4;stroke:#ffffff;stroke-width:0.75;" x="389.102236" xlink:href="#mfaeb35d176" y="63.739988"/>
     <use style="fill:#1f77b4;stroke:#ffffff;stroke-width:0.75;" x="392.669868" xlink:href="#mfaeb35d176" y="63.570174"/>
     <use style="fill:#1f77b4;stroke:#ffffff;stroke-width:0.75;" x="396.237501" xlink:href="#mfaeb35d176" y="61.031912"/>
     <use style="fill:#1f77b4;stroke:#ffffff;stroke-width:0.75;" x="399.805133" xlink:href="#mfaeb35d176" y="57.537334"/>
     <use style="fill:#1f77b4;stroke:#ffffff;stroke-width:0.75;" x="403.372765" xlink:href="#mfaeb35d176" y="56.880424"/>
     <use style="fill:#1f77b4;stroke:#ffffff;stroke-width:0.75;" x="406.940398" xlink:href="#mfaeb35d176" y="57.190557"/>
    </g>
   </g>
   <g id="line2d_16"/>
   <g id="line2d_17"/>
   <g id="patch_3">
    <path d="M 66.053125 270.197207 
L 66.053125 55.6962 
" style="fill:none;stroke:#000000;stroke-linecap:square;stroke-linejoin:miter;stroke-width:0.8;"/>
   </g>
   <g id="patch_4">
    <path d="M 82.285852 288.430125 
L 355.804334 288.430125 
" style="fill:none;stroke:#000000;stroke-linecap:square;stroke-linejoin:miter;stroke-width:0.8;"/>
   </g>
   <g id="text_16">
    <!-- wireshark_fuzzshark_ip (23h, 14 trials/fuzzer) -->
    <g transform="translate(108.505938 16.318125)scale(0.12 -0.12)">
     <defs>
      <path d="M 269 3500 
L 844 3500 
L 1563 769 
L 2278 3500 
L 2956 3500 
L 3675 769 
L 4391 3500 
L 4966 3500 
L 4050 0 
L 3372 0 
L 2619 2869 
L 1863 0 
L 1184 0 
L 269 3500 
z
" id="DejaVuSans-77" transform="scale(0.015625)"/>
      <path d="M 2834 3397 
L 2834 2853 
Q 2591 2978 2328 3040 
Q 2066 3103 1784 3103 
Q 1356 3103 1142 2972 
Q 928 2841 928 2578 
Q 928 2378 1081 2264 
Q 1234 2150 1697 2047 
L 1894 2003 
Q 2506 1872 2764 1633 
Q 3022 1394 3022 966 
Q 3022 478 2636 193 
Q 2250 -91 1575 -91 
Q 1294 -91 989 -36 
Q 684 19 347 128 
L 347 722 
Q 666 556 975 473 
Q 1284 391 1588 391 
Q 1994 391 2212 530 
Q 2431 669 2431 922 
Q 2431 1156 2273 1281 
Q 2116 1406 1581 1522 
L 1381 1569 
Q 847 1681 609 1914 
Q 372 2147 372 2553 
Q 372 3047 722 3315 
Q 1072 3584 1716 3584 
Q 2034 3584 2315 3537 
Q 2597 3491 2834 3397 
z
" id="DejaVuSans-73" transform="scale(0.015625)"/>
      <path d="M 581 4863 
L 1159 4863 
L 1159 1991 
L 2875 3500 
L 3609 3500 
L 1753 1863 
L 3688 0 
L 2938 0 
L 1159 1709 
L 1159 0 
L 581 0 
L 581 4863 
z
" id="DejaVuSans-6b" transform="scale(0.015625)"/>
      <path d="M 3263 -1063 
L 3263 -1509 
L -63 -1509 
L -63 -1063 
L 3263 -1063 
z
" id="DejaVuSans-5f" transform="scale(0.015625)"/>
      <path d="M 2375 4863 
L 2375 4384 
L 1825 4384 
Q 1516 4384 1395 4259 
Q 1275 4134 1275 3809 
L 1275 3500 
L 2222 3500 
L 2222 3053 
L 1275 3053 
L 1275 0 
L 697 0 
L 697 3053 
L 147 3053 
L 147 3500 
L 697 3500 
L 697 3744 
Q 697 4328 969 4595 
Q 1241 4863 1831 4863 
L 2375 4863 
z
" id="DejaVuSans-66" transform="scale(0.015625)"/>
      <path d="M 353 3500 
L 3084 3500 
L 3084 2975 
L 922 459 
L 3084 459 
L 3084 0 
L 275 0 
L 275 525 
L 2438 3041 
L 353 3041 
L 353 3500 
z
" id="DejaVuSans-7a" transform="scale(0.015625)"/>
      <path d="M 1159 525 
L 1159 -1331 
L 581 -1331 
L 581 3500 
L 1159 3500 
L 1159 2969 
Q 1341 3281 1617 3432 
Q 1894 3584 2278 3584 
Q 2916 3584 3314 3078 
Q 3713 2572 3713 1747 
Q 3713 922 3314 415 
Q 2916 -91 2278 -91 
Q 1894 -91 1617 61 
Q 1341 213 1159 525 
z
M 3116 1747 
Q 3116 2381 2855 2742 
Q 2594 3103 2138 3103 
Q 1681 3103 1420 2742 
Q 1159 2381 1159 1747 
Q 1159 1113 1420 752 
Q 1681 391 2138 391 
Q 2594 391 2855 752 
Q 3116 1113 3116 1747 
z
" id="DejaVuSans-70" transform="scale(0.015625)"/>
      <path d="M 750 794 
L 1409 794 
L 1409 256 
L 897 -744 
L 494 -744 
L 750 256 
L 750 794 
z
" id="DejaVuSans-2c" transform="scale(0.015625)"/>
      <path d="M 603 4863 
L 1178 4863 
L 1178 0 
L 603 0 
L 603 4863 
z
" id="DejaVuSans-6c" transform="scale(0.015625)"/>
      <path d="M 1625 4666 
L 2156 4666 
L 531 -594 
L 0 -594 
L 1625 4666 
z
" id="DejaVuSans-2f" transform="scale(0.015625)"/>
     </defs>
     <use xlink:href="#DejaVuSans-77"/>
     <use x="81.787109" xlink:href="#DejaVuSans-69"/>
     <use x="109.570312" xlink:href="#DejaVuSans-72"/>
     <use x="148.433594" xlink:href="#DejaVuSans-65"/>
     <use x="209.957031" xlink:href="#DejaVuSans-73"/>
     <use x="262.056641" xlink:href="#DejaVuSans-68"/>
     <use x="325.435547" xlink:href="#DejaVuSans-61"/>
     <use x="386.714844" xlink:href="#DejaVuSans-72"/>
     <use x="427.828125" xlink:href="#DejaVuSans-6b"/>
     <use x="485.738281" xlink:href="#DejaVuSans-5f"/>
     <use x="535.738281" xlink:href="#DejaVuSans-66"/>
     <use x="570.943359" xlink:href="#DejaVuSans-75"/>
     <use x="634.322266" xlink:href="#DejaVuSans-7a"/>
     <use x="686.8125" xlink:href="#DejaVuSans-7a"/>
     <use x="739.302734" xlink:href="#DejaVuSans-73"/>
     <use x="791.402344" xlink:href="#DejaVuSans-68"/>
     <use x="854.78125" xlink:href="#DejaVuSans-61"/>
     <use x="916.060547" xlink:href="#DejaVuSans-72"/>
     <use x="957.173828" xlink:href="#DejaVuSans-6b"/>
     <use x="1015.083984" xlink:href="#DejaVuSans-5f"/>
     <use x="1065.083984" xlink:href="#DejaVuSans-69"/>
     <use x="1092.867188" xlink:href="#DejaVuSans-70"/>
     <use x="1156.34375" xlink:href="#DejaVuSans-20"/>
     <use x="1188.130859" xlink:href="#DejaVuSans-28"/>
     <use x="1227.144531" xlink:href="#DejaVuSans-32"/>
     <use x="1290.767578" xlink:href="#DejaVuSans-33"/>
     <use x="1354.390625" xlink:href="#DejaVuSans-68"/>
     <use x="1417.769531" xlink:href="#DejaVuSans-2c"/>
     <use x="1449.556641" xlink:href="#DejaVuSans-20"/>
     <use x="1481.34375" xlink:href="#DejaVuSans-31"/>
     <use x="1544.966797" xlink:href="#DejaVuSans-34"/>
     <use x="1608.589844" xlink:href="#DejaVuSans-20"/>
     <use x="1640.376953" xlink:href="#DejaVuSans-74"/>
     <use x="1679.585938" xlink:href="#DejaVuSans-72"/>
     <use x="1720.699219" xlink:href="#DejaVuSans-69"/>
     <use x="1748.482422" xlink:href="#DejaVuSans-61"/>
     <use x="1809.761719" xlink:href="#DejaVuSans-6c"/>
     <use x="1837.544922" xlink:href="#DejaVuSans-73"/>
     <use x="1889.644531" xlink:href="#DejaVuSans-2f"/>
     <use x="1923.335938" xlink:href="#DejaVuSans-66"/>
     <use x="1958.541016" xlink:href="#DejaVuSans-75"/>
     <use x="2021.919922" xlink:href="#DejaVuSans-7a"/>
     <use x="2074.410156" xlink:href="#DejaVuSans-7a"/>
     <use x="2126.900391" xlink:href="#DejaVuSans-65"/>
     <use x="2188.423828" xlink:href="#DejaVuSans-72"/>
     <use x="2229.537109" xlink:href="#DejaVuSans-29"/>
    </g>
   </g>
   <g id="legend_1">
    <g id="line2d_18">
     <path d="M 427.173125 30.416562 
L 447.173125 30.416562 
" style="fill:none;stroke:#98df8a;stroke-linecap:square;stroke-width:1.5;"/>
    </g>
    <g id="line2d_19">
     <defs>
      <path d="M -0 3 
L 3 -3 
L -3 -3 
z
" id="m15f84e2f34" style="stroke:#98df8a;stroke-linejoin:miter;"/>
     </defs>
     <g>
      <use style="fill:#98df8a;stroke:#98df8a;stroke-linejoin:miter;" x="437.173125" xlink:href="#m15f84e2f34" y="30.416562"/>
     </g>
    </g>
    <g id="text_17">
     <!-- afl_no_trim -->
     <g transform="translate(455.173125 33.916562)scale(0.1 -0.1)">
      <use xlink:href="#DejaVuSans-61"/>
      <use x="61.279297" xlink:href="#DejaVuSans-66"/>
      <use x="96.484375" xlink:href="#DejaVuSans-6c"/>
      <use x="124.267578" xlink:href="#DejaVuSans-5f"/>
      <use x="174.267578" xlink:href="#DejaVuSans-6e"/>
      <use x="237.646484" xlink:href="#DejaVuSans-6f"/>
      <use x="298.828125" xlink:href="#DejaVuSans-5f"/>
      <use x="348.828125" xlink:href="#DejaVuSans-74"/>
      <use x="388.037109" xlink:href="#DejaVuSans-72"/>
      <use x="429.150391" xlink:href="#DejaVuSans-69"/>
      <use x="456.933594" xlink:href="#DejaVuSans-6d"/>
     </g>
    </g>
    <g id="line2d_20">
     <path d="M 427.173125 45.372813 
L 447.173125 45.372813 
" style="fill:none;stroke:#1f77b4;stroke-linecap:square;stroke-width:1.5;"/>
    </g>
    <g id="line2d_21">
     <defs>
      <path d="M 0 3 
C 0.795609 3 1.55874 2.683901 2.12132 2.12132 
C 2.683901 1.55874 3 0.795609 3 0 
C 3 -0.795609 2.683901 -1.55874 2.12132 -2.12132 
C 1.55874 -2.683901 0.795609 -3 0 -3 
C -0.795609 -3 -1.55874 -2.683901 -2.12132 -2.12132 
C -2.683901 -1.55874 -3 -0.795609 -3 0 
C -3 0.795609 -2.683901 1.55874 -2.12132 2.12132 
C -1.55874 2.683901 -0.795609 3 0 3 
z
" id="m407aa92ae9" style="stroke:#1f77b4;"/>
     </defs>
     <g>
      <use style="fill:#1f77b4;stroke:#1f77b4;" x="437.173125" xlink:href="#m407aa92ae9" y="45.372813"/>
     </g>
    </g>
    <g id="text_18">
     <!-- afl -->
     <g transform="translate(455.173125 48.872813)scale(0.1 -0.1)">
      <use xlink:href="#DejaVuSans-61"/>
      <use x="61.279297" xlink:href="#DejaVuSans-66"/>
      <use x="96.484375" xlink:href="#DejaVuSans-6c"/>
     </g>
    </g>
   </g>
  </g>
 </g>
 <defs>
  <clipPath id="p4144893bcf">
   <rect height="266.112" width="357.12" x="66.053125" y="22.318125"/>
  </clipPath>
 </defs>
</svg>
