<?xml version="1.0" encoding="utf-8" standalone="no"?>
<!DOCTYPE svg PUBLIC "-//W3C//DTD SVG 1.1//EN"
  "http://www.w3.org/Graphics/SVG/1.1/DTD/svg11.dtd">
<svg height="325.986375pt" version="1.1" viewBox="0 0 523.4575 325.986375" width="523.4575pt" xmlns="http://www.w3.org/2000/svg" xmlns:xlink="http://www.w3.org/1999/xlink">
 <metadata>
  <rdf:RDF xmlns:cc="http://creativecommons.org/ns#" xmlns:dc="http://purl.org/dc/elements/1.1/" xmlns:rdf="http://www.w3.org/1999/02/22-rdf-syntax-ns#">
   <cc:Work>
    <dc:type rdf:resource="http://purl.org/dc/dcmitype/StillImage"/>
    <dc:date>2022-06-03T14:45:02.958776</dc:date>
    <dc:format>image/svg+xml</dc:format>
    <dc:creator>
     <cc:Agent>
      <dc:title>Matplotlib v3.4.3, https://matplotlib.org/</dc:title>
     </cc:Agent>
    </dc:creator>
   </cc:Work>
  </rdf:RDF>
 </metadata>
 <defs>
  <style type="text/css">*{stroke-linecap:butt;stroke-linejoin:round;}</style>
 </defs>
 <g id="figure_1">
  <g id="patch_1">
   <path d="M 0 325.986375 
L 523.4575 325.986375 
L 523.4575 0 
L 0 0 
z
" style="fill:#ffffff;"/>
  </g>
  <g id="axes_1">
   <g id="patch_2">
    <path d="M 40.603125 288.430125 
L 397.723125 288.430125 
L 397.723125 22.318125 
L 40.603125 22.318125 
z
" style="fill:#ffffff;"/>
   </g>
   <g id="PolyCollection_1">
    <defs>
     <path d="M 56.835852 -170.61225 
L 56.835852 -49.65225 
L 60.403485 -170.61225 
L 63.971117 -175.87138 
L 67.538749 -196.907902 
L 71.106382 -196.907902 
L 74.674014 -202.167033 
L 78.241646 -207.426163 
L 81.809279 -207.426163 
L 85.376911 -210.055728 
L 88.944544 -217.944424 
L 92.512176 -217.944424 
L 96.079808 -217.944424 
L 99.647441 -223.203554 
L 103.215073 -223.203554 
L 106.782705 -225.83312 
L 110.350338 -223.203554 
L 113.91797 -228.462685 
L 117.485603 -233.721815 
L 121.053235 -238.980946 
L 124.620867 -238.980946 
L 128.1885 -249.499207 
L 131.756132 -249.23625 
L 135.323764 -238.980946 
L 138.891397 -238.980946 
L 142.459029 -249.433467 
L 146.026661 -249.499207 
L 149.594294 -249.499207 
L 153.161926 -249.499207 
L 156.729559 -249.499207 
L 160.297191 -249.499207 
L 163.864823 -249.499207 
L 167.432456 -249.499207 
L 171.000088 -254.758337 
L 174.56772 -254.758337 
L 178.135353 -254.758337 
L 181.702985 -254.758337 
L 185.270618 -254.758337 
L 188.83825 -254.758337 
L 192.405882 -260.017467 
L 195.973515 -254.758337 
L 199.541147 -254.758337 
L 203.108779 -254.758337 
L 206.676412 -254.758337 
L 210.244044 -254.758337 
L 213.811676 -260.017467 
L 217.379309 -260.017467 
L 220.946941 -260.017467 
L 224.514574 -260.017467 
L 228.082206 -259.951728 
L 231.649838 -265.276598 
L 235.217471 -270.535728 
L 238.785103 -260.017467 
L 242.352735 -260.017467 
L 245.920368 -270.535728 
L 249.488 -265.276598 
L 253.055632 -270.535728 
L 256.623265 -270.535728 
L 260.190897 -265.276598 
L 263.75853 -267.906163 
L 267.326162 -270.535728 
L 270.893794 -270.535728 
L 274.461427 -270.535728 
L 278.029059 -262.647033 
L 281.596691 -270.535728 
L 285.164324 -270.535728 
L 288.731956 -275.794859 
L 292.299589 -275.794859 
L 295.867221 -265.276598 
L 299.434853 -273.165293 
L 303.002486 -265.276598 
L 306.570118 -262.647033 
L 310.13775 -270.535728 
L 313.705383 -275.794859 
L 317.273015 -275.794859 
L 320.840647 -265.276598 
L 324.40828 -275.794859 
L 327.975912 -270.535728 
L 331.543545 -270.535728 
L 335.111177 -265.276598 
L 338.678809 -275.794859 
L 342.246442 -275.794859 
L 345.814074 -281.053989 
L 349.381706 -281.053989 
L 352.949339 -281.053989 
L 356.516971 -281.053989 
L 360.084604 -270.535728 
L 363.652236 -281.053989 
L 367.219868 -281.053989 
L 370.787501 -275.794859 
L 374.355133 -281.053989 
L 377.922765 -275.794859 
L 381.490398 -281.053989 
L 381.490398 -291.57225 
L 381.490398 -291.57225 
L 377.922765 -291.57225 
L 374.355133 -291.57225 
L 370.787501 -291.57225 
L 367.219868 -291.57225 
L 363.652236 -291.57225 
L 360.084604 -291.57225 
L 356.516971 -291.57225 
L 352.949339 -291.57225 
L 349.381706 -291.57225 
L 345.814074 -291.57225 
L 342.246442 -291.57225 
L 338.678809 -291.57225 
L 335.111177 -291.57225 
L 331.543545 -291.57225 
L 327.975912 -291.57225 
L 324.40828 -291.57225 
L 320.840647 -291.57225 
L 317.273015 -291.57225 
L 313.705383 -286.31312 
L 310.13775 -286.378859 
L 306.570118 -286.31312 
L 303.002486 -286.31312 
L 299.434853 -286.31312 
L 295.867221 -286.31312 
L 292.299589 -286.31312 
L 288.731956 -286.31312 
L 285.164324 -286.31312 
L 281.596691 -286.31312 
L 278.029059 -286.31312 
L 274.461427 -286.31312 
L 270.893794 -286.31312 
L 267.326162 -286.31312 
L 263.75853 -286.31312 
L 260.190897 -286.31312 
L 256.623265 -286.31312 
L 253.055632 -286.31312 
L 249.488 -281.053989 
L 245.920368 -286.31312 
L 242.352735 -281.053989 
L 238.785103 -281.053989 
L 235.217471 -286.31312 
L 231.649838 -281.053989 
L 228.082206 -281.053989 
L 224.514574 -281.053989 
L 220.946941 -281.053989 
L 217.379309 -281.053989 
L 213.811676 -281.053989 
L 210.244044 -281.053989 
L 206.676412 -281.053989 
L 203.108779 -281.053989 
L 199.541147 -281.053989 
L 195.973515 -278.424424 
L 192.405882 -278.424424 
L 188.83825 -275.794859 
L 185.270618 -275.794859 
L 181.702985 -275.794859 
L 178.135353 -270.535728 
L 174.56772 -275.794859 
L 171.000088 -275.794859 
L 167.432456 -273.165293 
L 163.864823 -270.535728 
L 160.297191 -265.276598 
L 156.729559 -265.276598 
L 153.161926 -260.017467 
L 149.594294 -265.276598 
L 146.026661 -260.017467 
L 142.459029 -260.017467 
L 138.891397 -260.017467 
L 135.323764 -260.017467 
L 131.756132 -260.017467 
L 128.1885 -260.017467 
L 124.620867 -257.387902 
L 121.053235 -254.758337 
L 117.485603 -254.758337 
L 113.91797 -254.758337 
L 110.350338 -249.499207 
L 106.782705 -249.499207 
L 103.215073 -244.240076 
L 99.647441 -244.240076 
L 96.079808 -238.980946 
L 92.512176 -238.980946 
L 88.944544 -238.980946 
L 85.376911 -233.721815 
L 81.809279 -233.721815 
L 78.241646 -228.462685 
L 74.674014 -228.462685 
L 71.106382 -223.203554 
L 67.538749 -217.944424 
L 63.971117 -207.426163 
L 60.403485 -202.167033 
L 56.835852 -170.61225 
z
" id="m16d5dbf2e0" style="stroke:#98df8a;stroke-opacity:0.2;"/>
    </defs>
    <g clip-path="url(#p864164425b)">
     <use style="fill:#98df8a;fill-opacity:0.2;stroke:#98df8a;stroke-opacity:0.2;" x="0" xlink:href="#m16d5dbf2e0" y="325.986375"/>
    </g>
   </g>
   <g id="PolyCollection_2">
    <defs>
     <path d="M 56.835852 -181.130511 
L 56.835852 -154.834859 
L 60.403485 -175.87138 
L 63.971117 -181.130511 
L 67.538749 -181.130511 
L 71.106382 -189.019207 
L 74.674014 -186.389641 
L 78.241646 -196.907902 
L 81.809279 -199.537467 
L 85.376911 -202.167033 
L 88.944544 -207.426163 
L 92.512176 -212.685293 
L 96.079808 -210.055728 
L 99.647441 -217.944424 
L 103.215073 -217.944424 
L 106.782705 -217.944424 
L 110.350338 -207.426163 
L 113.91797 -209.989989 
L 117.485603 -217.944424 
L 121.053235 -215.24912 
L 124.620867 -217.944424 
L 128.1885 -217.944424 
L 131.756132 -223.203554 
L 135.323764 -217.944424 
L 138.891397 -217.944424 
L 142.459029 -228.462685 
L 146.026661 -217.944424 
L 149.594294 -228.199728 
L 153.161926 -236.35138 
L 156.729559 -223.203554 
L 160.297191 -233.721815 
L 163.864823 -233.721815 
L 167.432456 -233.721815 
L 171.000088 -228.462685 
L 174.56772 -228.462685 
L 178.135353 -238.980946 
L 181.702985 -238.980946 
L 185.270618 -244.240076 
L 188.83825 -238.980946 
L 192.405882 -236.285641 
L 195.973515 -236.35138 
L 199.541147 -244.240076 
L 203.108779 -244.240076 
L 206.676412 -246.869641 
L 210.244044 -244.240076 
L 213.811676 -244.240076 
L 217.379309 -241.610511 
L 220.946941 -244.240076 
L 224.514574 -244.240076 
L 228.082206 -249.499207 
L 231.649838 -249.499207 
L 235.217471 -249.499207 
L 238.785103 -249.499207 
L 242.352735 -249.499207 
L 245.920368 -249.499207 
L 249.488 -244.240076 
L 253.055632 -249.499207 
L 256.623265 -249.499207 
L 260.190897 -246.869641 
L 263.75853 -249.499207 
L 267.326162 -249.499207 
L 270.893794 -249.499207 
L 274.461427 -249.499207 
L 278.029059 -249.499207 
L 281.596691 -252.128772 
L 285.164324 -249.499207 
L 288.731956 -249.499207 
L 292.299589 -249.499207 
L 295.867221 -254.758337 
L 299.434853 -254.758337 
L 303.002486 -254.758337 
L 306.570118 -254.758337 
L 310.13775 -254.758337 
L 313.705383 -249.499207 
L 317.273015 -260.017467 
L 320.840647 -260.017467 
L 324.40828 -254.758337 
L 327.975912 -260.017467 
L 331.543545 -260.017467 
L 335.111177 -260.017467 
L 338.678809 -260.017467 
L 342.246442 -260.017467 
L 345.814074 -260.017467 
L 349.381706 -254.758337 
L 352.949339 -260.017467 
L 356.516971 -260.017467 
L 360.084604 -260.017467 
L 363.652236 -265.276598 
L 367.219868 -260.017467 
L 370.787501 -265.276598 
L 374.355133 -265.276598 
L 377.922765 -265.276598 
L 381.490398 -254.758337 
L 381.490398 -275.794859 
L 381.490398 -275.794859 
L 377.922765 -275.794859 
L 374.355133 -275.794859 
L 370.787501 -273.165293 
L 367.219868 -275.794859 
L 363.652236 -275.794859 
L 360.084604 -275.794859 
L 356.516971 -273.165293 
L 352.949339 -275.794859 
L 349.381706 -270.667207 
L 345.814074 -275.794859 
L 342.246442 -275.794859 
L 338.678809 -275.794859 
L 335.111177 -275.794859 
L 331.543545 -273.165293 
L 327.975912 -275.794859 
L 324.40828 -275.794859 
L 320.840647 -275.794859 
L 317.273015 -275.794859 
L 313.705383 -270.535728 
L 310.13775 -275.794859 
L 306.570118 -270.535728 
L 303.002486 -275.794859 
L 299.434853 -270.535728 
L 295.867221 -273.165293 
L 292.299589 -273.165293 
L 288.731956 -273.165293 
L 285.164324 -270.535728 
L 281.596691 -273.165293 
L 278.029059 -275.794859 
L 274.461427 -273.165293 
L 270.893794 -273.165293 
L 267.326162 -275.794859 
L 263.75853 -270.535728 
L 260.190897 -270.535728 
L 256.623265 -273.231033 
L 253.055632 -275.794859 
L 249.488 -273.165293 
L 245.920368 -267.906163 
L 242.352735 -270.535728 
L 238.785103 -270.535728 
L 235.217471 -265.276598 
L 231.649838 -270.535728 
L 228.082206 -267.906163 
L 224.514574 -265.276598 
L 220.946941 -267.906163 
L 217.379309 -270.535728 
L 213.811676 -270.535728 
L 210.244044 -270.535728 
L 206.676412 -265.276598 
L 203.108779 -265.276598 
L 199.541147 -265.276598 
L 195.973515 -265.276598 
L 192.405882 -260.017467 
L 188.83825 -260.017467 
L 185.270618 -254.758337 
L 181.702985 -254.758337 
L 178.135353 -254.758337 
L 174.56772 -254.758337 
L 171.000088 -254.758337 
L 167.432456 -249.499207 
L 163.864823 -252.128772 
L 160.297191 -249.499207 
L 156.729559 -249.499207 
L 153.161926 -246.869641 
L 149.594294 -244.240076 
L 146.026661 -244.240076 
L 142.459029 -244.240076 
L 138.891397 -244.240076 
L 135.323764 -244.240076 
L 131.756132 -244.240076 
L 128.1885 -244.240076 
L 124.620867 -238.980946 
L 121.053235 -238.980946 
L 117.485603 -238.980946 
L 113.91797 -238.980946 
L 110.350338 -238.980946 
L 106.782705 -233.721815 
L 103.215073 -233.721815 
L 99.647441 -233.721815 
L 96.079808 -233.721815 
L 92.512176 -233.721815 
L 88.944544 -233.721815 
L 85.376911 -225.83312 
L 81.809279 -223.203554 
L 78.241646 -228.462685 
L 74.674014 -217.944424 
L 71.106382 -212.685293 
L 67.538749 -207.426163 
L 63.971117 -207.426163 
L 60.403485 -196.907902 
L 56.835852 -181.130511 
z
" id="mecfd72aa1f" style="stroke:#1f77b4;stroke-opacity:0.2;"/>
    </defs>
    <g clip-path="url(#p864164425b)">
     <use style="fill:#1f77b4;fill-opacity:0.2;stroke:#1f77b4;stroke-opacity:0.2;" x="0" xlink:href="#mecfd72aa1f" y="325.986375"/>
    </g>
   </g>
   <g id="matplotlib.axis_1">
    <g id="xtick_1">
     <g id="line2d_1">
      <defs>
       <path d="M 0 0 
L 0 3.5 
" id="m6320f0ab40" style="stroke:#000000;stroke-width:0.8;"/>
      </defs>
      <g>
       <use style="stroke:#000000;stroke-width:0.8;" x="56.835852" xlink:href="#m6320f0ab40" y="288.430125"/>
      </g>
     </g>
     <g id="text_1">
      <!-- 15m -->
      <g transform="translate(45.60304 303.028562)scale(0.1 -0.1)">
       <defs>
        <path d="M 794 531 
L 1825 531 
L 1825 4091 
L 703 3866 
L 703 4441 
L 1819 4666 
L 2450 4666 
L 2450 531 
L 3481 531 
L 3481 0 
L 794 0 
L 794 531 
z
" id="DejaVuSans-31" transform="scale(0.015625)"/>
        <path d="M 691 4666 
L 3169 4666 
L 3169 4134 
L 1269 4134 
L 1269 2991 
Q 1406 3038 1543 3061 
Q 1681 3084 1819 3084 
Q 2600 3084 3056 2656 
Q 3513 2228 3513 1497 
Q 3513 744 3044 326 
Q 2575 -91 1722 -91 
Q 1428 -91 1123 -41 
Q 819 9 494 109 
L 494 744 
Q 775 591 1075 516 
Q 1375 441 1709 441 
Q 2250 441 2565 725 
Q 2881 1009 2881 1497 
Q 2881 1984 2565 2268 
Q 2250 2553 1709 2553 
Q 1456 2553 1204 2497 
Q 953 2441 691 2322 
L 691 4666 
z
" id="DejaVuSans-35" transform="scale(0.015625)"/>
        <path d="M 3328 2828 
Q 3544 3216 3844 3400 
Q 4144 3584 4550 3584 
Q 5097 3584 5394 3201 
Q 5691 2819 5691 2113 
L 5691 0 
L 5113 0 
L 5113 2094 
Q 5113 2597 4934 2840 
Q 4756 3084 4391 3084 
Q 3944 3084 3684 2787 
Q 3425 2491 3425 1978 
L 3425 0 
L 2847 0 
L 2847 2094 
Q 2847 2600 2669 2842 
Q 2491 3084 2119 3084 
Q 1678 3084 1418 2786 
Q 1159 2488 1159 1978 
L 1159 0 
L 581 0 
L 581 3500 
L 1159 3500 
L 1159 2956 
Q 1356 3278 1631 3431 
Q 1906 3584 2284 3584 
Q 2666 3584 2933 3390 
Q 3200 3197 3328 2828 
z
" id="DejaVuSans-6d" transform="scale(0.015625)"/>
       </defs>
       <use xlink:href="#DejaVuSans-31"/>
       <use x="63.623047" xlink:href="#DejaVuSans-35"/>
       <use x="127.246094" xlink:href="#DejaVuSans-6d"/>
      </g>
     </g>
    </g>
    <g id="xtick_2">
     <g id="line2d_2">
      <g>
       <use style="stroke:#000000;stroke-width:0.8;" x="111.539549" xlink:href="#m6320f0ab40" y="288.430125"/>
      </g>
     </g>
     <g id="text_2">
      <!-- 4h:5m -->
      <g transform="translate(95.453611 303.028562)scale(0.1 -0.1)">
       <defs>
        <path d="M 2419 4116 
L 825 1625 
L 2419 1625 
L 2419 4116 
z
M 2253 4666 
L 3047 4666 
L 3047 1625 
L 3713 1625 
L 3713 1100 
L 3047 1100 
L 3047 0 
L 2419 0 
L 2419 1100 
L 313 1100 
L 313 1709 
L 2253 4666 
z
" id="DejaVuSans-34" transform="scale(0.015625)"/>
        <path d="M 3513 2113 
L 3513 0 
L 2938 0 
L 2938 2094 
Q 2938 2591 2744 2837 
Q 2550 3084 2163 3084 
Q 1697 3084 1428 2787 
Q 1159 2491 1159 1978 
L 1159 0 
L 581 0 
L 581 4863 
L 1159 4863 
L 1159 2956 
Q 1366 3272 1645 3428 
Q 1925 3584 2291 3584 
Q 2894 3584 3203 3211 
Q 3513 2838 3513 2113 
z
" id="DejaVuSans-68" transform="scale(0.015625)"/>
        <path d="M 750 794 
L 1409 794 
L 1409 0 
L 750 0 
L 750 794 
z
M 750 3309 
L 1409 3309 
L 1409 2516 
L 750 2516 
L 750 3309 
z
" id="DejaVuSans-3a" transform="scale(0.015625)"/>
       </defs>
       <use xlink:href="#DejaVuSans-34"/>
       <use x="63.623047" xlink:href="#DejaVuSans-68"/>
       <use x="127.001953" xlink:href="#DejaVuSans-3a"/>
       <use x="160.693359" xlink:href="#DejaVuSans-35"/>
       <use x="224.316406" xlink:href="#DejaVuSans-6d"/>
      </g>
     </g>
    </g>
    <g id="xtick_3">
     <g id="line2d_3">
      <g>
       <use style="stroke:#000000;stroke-width:0.8;" x="166.243245" xlink:href="#m6320f0ab40" y="288.430125"/>
      </g>
     </g>
     <g id="text_3">
      <!-- 7h:55m -->
      <g transform="translate(146.976057 303.028562)scale(0.1 -0.1)">
       <defs>
        <path d="M 525 4666 
L 3525 4666 
L 3525 4397 
L 1831 0 
L 1172 0 
L 2766 4134 
L 525 4134 
L 525 4666 
z
" id="DejaVuSans-37" transform="scale(0.015625)"/>
       </defs>
       <use xlink:href="#DejaVuSans-37"/>
       <use x="63.623047" xlink:href="#DejaVuSans-68"/>
       <use x="127.001953" xlink:href="#DejaVuSans-3a"/>
       <use x="160.693359" xlink:href="#DejaVuSans-35"/>
       <use x="224.316406" xlink:href="#DejaVuSans-35"/>
       <use x="287.939453" xlink:href="#DejaVuSans-6d"/>
      </g>
     </g>
    </g>
    <g id="xtick_4">
     <g id="line2d_4">
      <g>
       <use style="stroke:#000000;stroke-width:0.8;" x="220.946941" xlink:href="#m6320f0ab40" y="288.430125"/>
      </g>
     </g>
     <g id="text_4">
      <!-- 11h:45m -->
      <g transform="translate(198.498504 303.028562)scale(0.1 -0.1)">
       <use xlink:href="#DejaVuSans-31"/>
       <use x="63.623047" xlink:href="#DejaVuSans-31"/>
       <use x="127.246094" xlink:href="#DejaVuSans-68"/>
       <use x="190.625" xlink:href="#DejaVuSans-3a"/>
       <use x="224.316406" xlink:href="#DejaVuSans-34"/>
       <use x="287.939453" xlink:href="#DejaVuSans-35"/>
       <use x="351.5625" xlink:href="#DejaVuSans-6d"/>
      </g>
     </g>
    </g>
    <g id="xtick_5">
     <g id="line2d_5">
      <g>
       <use style="stroke:#000000;stroke-width:0.8;" x="275.650637" xlink:href="#m6320f0ab40" y="288.430125"/>
      </g>
     </g>
     <g id="text_5">
      <!-- 15h:35m -->
      <g transform="translate(253.2022 303.028562)scale(0.1 -0.1)">
       <defs>
        <path d="M 2597 2516 
Q 3050 2419 3304 2112 
Q 3559 1806 3559 1356 
Q 3559 666 3084 287 
Q 2609 -91 1734 -91 
Q 1441 -91 1130 -33 
Q 819 25 488 141 
L 488 750 
Q 750 597 1062 519 
Q 1375 441 1716 441 
Q 2309 441 2620 675 
Q 2931 909 2931 1356 
Q 2931 1769 2642 2001 
Q 2353 2234 1838 2234 
L 1294 2234 
L 1294 2753 
L 1863 2753 
Q 2328 2753 2575 2939 
Q 2822 3125 2822 3475 
Q 2822 3834 2567 4026 
Q 2313 4219 1838 4219 
Q 1578 4219 1281 4162 
Q 984 4106 628 3988 
L 628 4550 
Q 988 4650 1302 4700 
Q 1616 4750 1894 4750 
Q 2613 4750 3031 4423 
Q 3450 4097 3450 3541 
Q 3450 3153 3228 2886 
Q 3006 2619 2597 2516 
z
" id="DejaVuSans-33" transform="scale(0.015625)"/>
       </defs>
       <use xlink:href="#DejaVuSans-31"/>
       <use x="63.623047" xlink:href="#DejaVuSans-35"/>
       <use x="127.246094" xlink:href="#DejaVuSans-68"/>
       <use x="190.625" xlink:href="#DejaVuSans-3a"/>
       <use x="224.316406" xlink:href="#DejaVuSans-33"/>
       <use x="287.939453" xlink:href="#DejaVuSans-35"/>
       <use x="351.5625" xlink:href="#DejaVuSans-6d"/>
      </g>
     </g>
    </g>
    <g id="xtick_6">
     <g id="line2d_6">
      <g>
       <use style="stroke:#000000;stroke-width:0.8;" x="330.354334" xlink:href="#m6320f0ab40" y="288.430125"/>
      </g>
     </g>
     <g id="text_6">
      <!-- 19h:25m -->
      <g transform="translate(307.905896 303.028562)scale(0.1 -0.1)">
       <defs>
        <path d="M 703 97 
L 703 672 
Q 941 559 1184 500 
Q 1428 441 1663 441 
Q 2288 441 2617 861 
Q 2947 1281 2994 2138 
Q 2813 1869 2534 1725 
Q 2256 1581 1919 1581 
Q 1219 1581 811 2004 
Q 403 2428 403 3163 
Q 403 3881 828 4315 
Q 1253 4750 1959 4750 
Q 2769 4750 3195 4129 
Q 3622 3509 3622 2328 
Q 3622 1225 3098 567 
Q 2575 -91 1691 -91 
Q 1453 -91 1209 -44 
Q 966 3 703 97 
z
M 1959 2075 
Q 2384 2075 2632 2365 
Q 2881 2656 2881 3163 
Q 2881 3666 2632 3958 
Q 2384 4250 1959 4250 
Q 1534 4250 1286 3958 
Q 1038 3666 1038 3163 
Q 1038 2656 1286 2365 
Q 1534 2075 1959 2075 
z
" id="DejaVuSans-39" transform="scale(0.015625)"/>
        <path d="M 1228 531 
L 3431 531 
L 3431 0 
L 469 0 
L 469 531 
Q 828 903 1448 1529 
Q 2069 2156 2228 2338 
Q 2531 2678 2651 2914 
Q 2772 3150 2772 3378 
Q 2772 3750 2511 3984 
Q 2250 4219 1831 4219 
Q 1534 4219 1204 4116 
Q 875 4013 500 3803 
L 500 4441 
Q 881 4594 1212 4672 
Q 1544 4750 1819 4750 
Q 2544 4750 2975 4387 
Q 3406 4025 3406 3419 
Q 3406 3131 3298 2873 
Q 3191 2616 2906 2266 
Q 2828 2175 2409 1742 
Q 1991 1309 1228 531 
z
" id="DejaVuSans-32" transform="scale(0.015625)"/>
       </defs>
       <use xlink:href="#DejaVuSans-31"/>
       <use x="63.623047" xlink:href="#DejaVuSans-39"/>
       <use x="127.246094" xlink:href="#DejaVuSans-68"/>
       <use x="190.625" xlink:href="#DejaVuSans-3a"/>
       <use x="224.316406" xlink:href="#DejaVuSans-32"/>
       <use x="287.939453" xlink:href="#DejaVuSans-35"/>
       <use x="351.5625" xlink:href="#DejaVuSans-6d"/>
      </g>
     </g>
    </g>
    <g id="text_7">
     <!-- Time (hour:minute) -->
     <g transform="translate(170.756094 316.706687)scale(0.1 -0.1)">
      <defs>
       <path d="M -19 4666 
L 3928 4666 
L 3928 4134 
L 2272 4134 
L 2272 0 
L 1638 0 
L 1638 4134 
L -19 4134 
L -19 4666 
z
" id="DejaVuSans-54" transform="scale(0.015625)"/>
       <path d="M 603 3500 
L 1178 3500 
L 1178 0 
L 603 0 
L 603 3500 
z
M 603 4863 
L 1178 4863 
L 1178 4134 
L 603 4134 
L 603 4863 
z
" id="DejaVuSans-69" transform="scale(0.015625)"/>
       <path d="M 3597 1894 
L 3597 1613 
L 953 1613 
Q 991 1019 1311 708 
Q 1631 397 2203 397 
Q 2534 397 2845 478 
Q 3156 559 3463 722 
L 3463 178 
Q 3153 47 2828 -22 
Q 2503 -91 2169 -91 
Q 1331 -91 842 396 
Q 353 884 353 1716 
Q 353 2575 817 3079 
Q 1281 3584 2069 3584 
Q 2775 3584 3186 3129 
Q 3597 2675 3597 1894 
z
M 3022 2063 
Q 3016 2534 2758 2815 
Q 2500 3097 2075 3097 
Q 1594 3097 1305 2825 
Q 1016 2553 972 2059 
L 3022 2063 
z
" id="DejaVuSans-65" transform="scale(0.015625)"/>
       <path id="DejaVuSans-20" transform="scale(0.015625)"/>
       <path d="M 1984 4856 
Q 1566 4138 1362 3434 
Q 1159 2731 1159 2009 
Q 1159 1288 1364 580 
Q 1569 -128 1984 -844 
L 1484 -844 
Q 1016 -109 783 600 
Q 550 1309 550 2009 
Q 550 2706 781 3412 
Q 1013 4119 1484 4856 
L 1984 4856 
z
" id="DejaVuSans-28" transform="scale(0.015625)"/>
       <path d="M 1959 3097 
Q 1497 3097 1228 2736 
Q 959 2375 959 1747 
Q 959 1119 1226 758 
Q 1494 397 1959 397 
Q 2419 397 2687 759 
Q 2956 1122 2956 1747 
Q 2956 2369 2687 2733 
Q 2419 3097 1959 3097 
z
M 1959 3584 
Q 2709 3584 3137 3096 
Q 3566 2609 3566 1747 
Q 3566 888 3137 398 
Q 2709 -91 1959 -91 
Q 1206 -91 779 398 
Q 353 888 353 1747 
Q 353 2609 779 3096 
Q 1206 3584 1959 3584 
z
" id="DejaVuSans-6f" transform="scale(0.015625)"/>
       <path d="M 544 1381 
L 544 3500 
L 1119 3500 
L 1119 1403 
Q 1119 906 1312 657 
Q 1506 409 1894 409 
Q 2359 409 2629 706 
Q 2900 1003 2900 1516 
L 2900 3500 
L 3475 3500 
L 3475 0 
L 2900 0 
L 2900 538 
Q 2691 219 2414 64 
Q 2138 -91 1772 -91 
Q 1169 -91 856 284 
Q 544 659 544 1381 
z
M 1991 3584 
L 1991 3584 
z
" id="DejaVuSans-75" transform="scale(0.015625)"/>
       <path d="M 2631 2963 
Q 2534 3019 2420 3045 
Q 2306 3072 2169 3072 
Q 1681 3072 1420 2755 
Q 1159 2438 1159 1844 
L 1159 0 
L 581 0 
L 581 3500 
L 1159 3500 
L 1159 2956 
Q 1341 3275 1631 3429 
Q 1922 3584 2338 3584 
Q 2397 3584 2469 3576 
Q 2541 3569 2628 3553 
L 2631 2963 
z
" id="DejaVuSans-72" transform="scale(0.015625)"/>
       <path d="M 3513 2113 
L 3513 0 
L 2938 0 
L 2938 2094 
Q 2938 2591 2744 2837 
Q 2550 3084 2163 3084 
Q 1697 3084 1428 2787 
Q 1159 2491 1159 1978 
L 1159 0 
L 581 0 
L 581 3500 
L 1159 3500 
L 1159 2956 
Q 1366 3272 1645 3428 
Q 1925 3584 2291 3584 
Q 2894 3584 3203 3211 
Q 3513 2838 3513 2113 
z
" id="DejaVuSans-6e" transform="scale(0.015625)"/>
       <path d="M 1172 4494 
L 1172 3500 
L 2356 3500 
L 2356 3053 
L 1172 3053 
L 1172 1153 
Q 1172 725 1289 603 
Q 1406 481 1766 481 
L 2356 481 
L 2356 0 
L 1766 0 
Q 1100 0 847 248 
Q 594 497 594 1153 
L 594 3053 
L 172 3053 
L 172 3500 
L 594 3500 
L 594 4494 
L 1172 4494 
z
" id="DejaVuSans-74" transform="scale(0.015625)"/>
       <path d="M 513 4856 
L 1013 4856 
Q 1481 4119 1714 3412 
Q 1947 2706 1947 2009 
Q 1947 1309 1714 600 
Q 1481 -109 1013 -844 
L 513 -844 
Q 928 -128 1133 580 
Q 1338 1288 1338 2009 
Q 1338 2731 1133 3434 
Q 928 4138 513 4856 
z
" id="DejaVuSans-29" transform="scale(0.015625)"/>
      </defs>
      <use xlink:href="#DejaVuSans-54"/>
      <use x="57.958984" xlink:href="#DejaVuSans-69"/>
      <use x="85.742188" xlink:href="#DejaVuSans-6d"/>
      <use x="183.154297" xlink:href="#DejaVuSans-65"/>
      <use x="244.677734" xlink:href="#DejaVuSans-20"/>
      <use x="276.464844" xlink:href="#DejaVuSans-28"/>
      <use x="315.478516" xlink:href="#DejaVuSans-68"/>
      <use x="378.857422" xlink:href="#DejaVuSans-6f"/>
      <use x="440.039062" xlink:href="#DejaVuSans-75"/>
      <use x="503.417969" xlink:href="#DejaVuSans-72"/>
      <use x="542.78125" xlink:href="#DejaVuSans-3a"/>
      <use x="576.472656" xlink:href="#DejaVuSans-6d"/>
      <use x="673.884766" xlink:href="#DejaVuSans-69"/>
      <use x="701.667969" xlink:href="#DejaVuSans-6e"/>
      <use x="765.046875" xlink:href="#DejaVuSans-75"/>
      <use x="828.425781" xlink:href="#DejaVuSans-74"/>
      <use x="867.634766" xlink:href="#DejaVuSans-65"/>
      <use x="929.158203" xlink:href="#DejaVuSans-29"/>
     </g>
    </g>
   </g>
   <g id="matplotlib.axis_2">
    <g id="ytick_1">
     <g id="line2d_7">
      <defs>
       <path d="M 0 0 
L -3.5 0 
" id="meadbad98bb" style="stroke:#000000;stroke-width:0.8;"/>
      </defs>
      <g>
       <use style="stroke:#000000;stroke-width:0.8;" x="40.603125" xlink:href="#meadbad98bb" y="276.334125"/>
      </g>
     </g>
     <g id="text_8">
      <!-- 0 -->
      <g transform="translate(27.240625 280.133344)scale(0.1 -0.1)">
       <defs>
        <path d="M 2034 4250 
Q 1547 4250 1301 3770 
Q 1056 3291 1056 2328 
Q 1056 1369 1301 889 
Q 1547 409 2034 409 
Q 2525 409 2770 889 
Q 3016 1369 3016 2328 
Q 3016 3291 2770 3770 
Q 2525 4250 2034 4250 
z
M 2034 4750 
Q 2819 4750 3233 4129 
Q 3647 3509 3647 2328 
Q 3647 1150 3233 529 
Q 2819 -91 2034 -91 
Q 1250 -91 836 529 
Q 422 1150 422 2328 
Q 422 3509 836 4129 
Q 1250 4750 2034 4750 
z
" id="DejaVuSans-30" transform="scale(0.015625)"/>
       </defs>
       <use xlink:href="#DejaVuSans-30"/>
      </g>
     </g>
    </g>
    <g id="ytick_2">
     <g id="line2d_8">
      <g>
       <use style="stroke:#000000;stroke-width:0.8;" x="40.603125" xlink:href="#meadbad98bb" y="223.742821"/>
      </g>
     </g>
     <g id="text_9">
      <!-- 10 -->
      <g transform="translate(20.878125 227.542039)scale(0.1 -0.1)">
       <use xlink:href="#DejaVuSans-31"/>
       <use x="63.623047" xlink:href="#DejaVuSans-30"/>
      </g>
     </g>
    </g>
    <g id="ytick_3">
     <g id="line2d_9">
      <g>
       <use style="stroke:#000000;stroke-width:0.8;" x="40.603125" xlink:href="#meadbad98bb" y="171.151516"/>
      </g>
     </g>
     <g id="text_10">
      <!-- 20 -->
      <g transform="translate(20.878125 174.950735)scale(0.1 -0.1)">
       <use xlink:href="#DejaVuSans-32"/>
       <use x="63.623047" xlink:href="#DejaVuSans-30"/>
      </g>
     </g>
    </g>
    <g id="ytick_4">
     <g id="line2d_10">
      <g>
       <use style="stroke:#000000;stroke-width:0.8;" x="40.603125" xlink:href="#meadbad98bb" y="118.560212"/>
      </g>
     </g>
     <g id="text_11">
      <!-- 30 -->
      <g transform="translate(20.878125 122.359431)scale(0.1 -0.1)">
       <use xlink:href="#DejaVuSans-33"/>
       <use x="63.623047" xlink:href="#DejaVuSans-30"/>
      </g>
     </g>
    </g>
    <g id="ytick_5">
     <g id="line2d_11">
      <g>
       <use style="stroke:#000000;stroke-width:0.8;" x="40.603125" xlink:href="#meadbad98bb" y="65.968908"/>
      </g>
     </g>
     <g id="text_12">
      <!-- 40 -->
      <g transform="translate(20.878125 69.768126)scale(0.1 -0.1)">
       <use xlink:href="#DejaVuSans-34"/>
       <use x="63.623047" xlink:href="#DejaVuSans-30"/>
      </g>
     </g>
    </g>
    <g id="text_13">
     <!-- Bug coverage -->
     <g transform="translate(14.798438 189.951469)rotate(-90)scale(0.1 -0.1)">
      <defs>
       <path d="M 1259 2228 
L 1259 519 
L 2272 519 
Q 2781 519 3026 730 
Q 3272 941 3272 1375 
Q 3272 1813 3026 2020 
Q 2781 2228 2272 2228 
L 1259 2228 
z
M 1259 4147 
L 1259 2741 
L 2194 2741 
Q 2656 2741 2882 2914 
Q 3109 3088 3109 3444 
Q 3109 3797 2882 3972 
Q 2656 4147 2194 4147 
L 1259 4147 
z
M 628 4666 
L 2241 4666 
Q 2963 4666 3353 4366 
Q 3744 4066 3744 3513 
Q 3744 3084 3544 2831 
Q 3344 2578 2956 2516 
Q 3422 2416 3680 2098 
Q 3938 1781 3938 1306 
Q 3938 681 3513 340 
Q 3088 0 2303 0 
L 628 0 
L 628 4666 
z
" id="DejaVuSans-42" transform="scale(0.015625)"/>
       <path d="M 2906 1791 
Q 2906 2416 2648 2759 
Q 2391 3103 1925 3103 
Q 1463 3103 1205 2759 
Q 947 2416 947 1791 
Q 947 1169 1205 825 
Q 1463 481 1925 481 
Q 2391 481 2648 825 
Q 2906 1169 2906 1791 
z
M 3481 434 
Q 3481 -459 3084 -895 
Q 2688 -1331 1869 -1331 
Q 1566 -1331 1297 -1286 
Q 1028 -1241 775 -1147 
L 775 -588 
Q 1028 -725 1275 -790 
Q 1522 -856 1778 -856 
Q 2344 -856 2625 -561 
Q 2906 -266 2906 331 
L 2906 616 
Q 2728 306 2450 153 
Q 2172 0 1784 0 
Q 1141 0 747 490 
Q 353 981 353 1791 
Q 353 2603 747 3093 
Q 1141 3584 1784 3584 
Q 2172 3584 2450 3431 
Q 2728 3278 2906 2969 
L 2906 3500 
L 3481 3500 
L 3481 434 
z
" id="DejaVuSans-67" transform="scale(0.015625)"/>
       <path d="M 3122 3366 
L 3122 2828 
Q 2878 2963 2633 3030 
Q 2388 3097 2138 3097 
Q 1578 3097 1268 2742 
Q 959 2388 959 1747 
Q 959 1106 1268 751 
Q 1578 397 2138 397 
Q 2388 397 2633 464 
Q 2878 531 3122 666 
L 3122 134 
Q 2881 22 2623 -34 
Q 2366 -91 2075 -91 
Q 1284 -91 818 406 
Q 353 903 353 1747 
Q 353 2603 823 3093 
Q 1294 3584 2113 3584 
Q 2378 3584 2631 3529 
Q 2884 3475 3122 3366 
z
" id="DejaVuSans-63" transform="scale(0.015625)"/>
       <path d="M 191 3500 
L 800 3500 
L 1894 563 
L 2988 3500 
L 3597 3500 
L 2284 0 
L 1503 0 
L 191 3500 
z
" id="DejaVuSans-76" transform="scale(0.015625)"/>
       <path d="M 2194 1759 
Q 1497 1759 1228 1600 
Q 959 1441 959 1056 
Q 959 750 1161 570 
Q 1363 391 1709 391 
Q 2188 391 2477 730 
Q 2766 1069 2766 1631 
L 2766 1759 
L 2194 1759 
z
M 3341 1997 
L 3341 0 
L 2766 0 
L 2766 531 
Q 2569 213 2275 61 
Q 1981 -91 1556 -91 
Q 1019 -91 701 211 
Q 384 513 384 1019 
Q 384 1609 779 1909 
Q 1175 2209 1959 2209 
L 2766 2209 
L 2766 2266 
Q 2766 2663 2505 2880 
Q 2244 3097 1772 3097 
Q 1472 3097 1187 3025 
Q 903 2953 641 2809 
L 641 3341 
Q 956 3463 1253 3523 
Q 1550 3584 1831 3584 
Q 2591 3584 2966 3190 
Q 3341 2797 3341 1997 
z
" id="DejaVuSans-61" transform="scale(0.015625)"/>
      </defs>
      <use xlink:href="#DejaVuSans-42"/>
      <use x="68.603516" xlink:href="#DejaVuSans-75"/>
      <use x="131.982422" xlink:href="#DejaVuSans-67"/>
      <use x="195.458984" xlink:href="#DejaVuSans-20"/>
      <use x="227.246094" xlink:href="#DejaVuSans-63"/>
      <use x="282.226562" xlink:href="#DejaVuSans-6f"/>
      <use x="343.408203" xlink:href="#DejaVuSans-76"/>
      <use x="402.587891" xlink:href="#DejaVuSans-65"/>
      <use x="464.111328" xlink:href="#DejaVuSans-72"/>
      <use x="505.224609" xlink:href="#DejaVuSans-61"/>
      <use x="566.503906" xlink:href="#DejaVuSans-67"/>
      <use x="629.980469" xlink:href="#DejaVuSans-65"/>
     </g>
    </g>
   </g>
   <g id="line2d_12">
    <path clip-path="url(#p864164425b)" d="M 56.835852 160.633255 
L 60.403485 134.337603 
L 63.971117 129.078473 
L 67.538749 121.189777 
L 71.106382 121.189777 
L 74.674014 113.301082 
L 78.241646 113.301082 
L 81.809279 113.301082 
L 85.376911 102.782821 
L 88.944544 100.153255 
L 92.512176 97.52369 
L 96.079808 97.52369 
L 99.647441 87.005429 
L 103.215073 87.005429 
L 106.782705 84.375864 
L 110.350338 84.375864 
L 113.91797 81.746299 
L 117.485603 76.487168 
L 121.053235 73.857603 
L 124.620867 73.857603 
L 128.1885 73.857603 
L 131.756132 76.487168 
L 135.323764 71.228038 
L 138.891397 73.857603 
L 142.459029 71.228038 
L 146.026661 71.228038 
L 149.594294 65.968908 
L 153.161926 65.968908 
L 156.729559 65.968908 
L 160.297191 65.968908 
L 163.864823 65.968908 
L 167.432456 65.968908 
L 171.000088 65.968908 
L 174.56772 65.968908 
L 178.135353 65.968908 
L 181.702985 65.968908 
L 185.270618 65.968908 
L 188.83825 63.339342 
L 192.405882 60.709777 
L 195.973515 60.709777 
L 199.541147 60.709777 
L 203.108779 55.450647 
L 206.676412 55.450647 
L 210.244044 55.450647 
L 213.811676 52.821082 
L 217.379309 52.821082 
L 220.946941 52.821082 
L 224.514574 52.821082 
L 228.082206 55.450647 
L 231.649838 50.191516 
L 235.217471 50.191516 
L 238.785103 50.191516 
L 242.352735 50.191516 
L 245.920368 50.191516 
L 249.488 50.191516 
L 253.055632 47.561951 
L 256.623265 47.561951 
L 260.190897 50.191516 
L 263.75853 47.561951 
L 267.326162 47.561951 
L 270.893794 47.561951 
L 274.461427 44.932386 
L 278.029059 50.191516 
L 281.596691 44.932386 
L 285.164324 47.561951 
L 288.731956 44.932386 
L 292.299589 44.932386 
L 295.867221 44.932386 
L 299.434853 44.932386 
L 303.002486 44.932386 
L 306.570118 44.932386 
L 310.13775 44.932386 
L 313.705383 44.932386 
L 317.273015 44.932386 
L 320.840647 44.932386 
L 324.40828 39.673255 
L 327.975912 42.302821 
L 331.543545 42.302821 
L 335.111177 44.932386 
L 338.678809 39.673255 
L 342.246442 42.302821 
L 345.814074 39.673255 
L 349.381706 39.673255 
L 352.949339 39.673255 
L 356.516971 39.673255 
L 360.084604 44.932386 
L 363.652236 39.673255 
L 367.219868 39.673255 
L 370.787501 39.673255 
L 374.355133 39.673255 
L 377.922765 42.302821 
L 381.490398 39.673255 
" style="fill:none;stroke:#98df8a;stroke-linecap:square;stroke-width:1.5;"/>
    <defs>
     <path d="M -0 3 
L 3 -3 
L -3 -3 
z
" id="md79528af10" style="stroke:#ffffff;stroke-linejoin:miter;stroke-width:0.75;"/>
    </defs>
    <g clip-path="url(#p864164425b)">
     <use style="fill:#98df8a;stroke:#ffffff;stroke-linejoin:miter;stroke-width:0.75;" x="56.835852" xlink:href="#md79528af10" y="160.633255"/>
     <use style="fill:#98df8a;stroke:#ffffff;stroke-linejoin:miter;stroke-width:0.75;" x="60.403485" xlink:href="#md79528af10" y="134.337603"/>
     <use style="fill:#98df8a;stroke:#ffffff;stroke-linejoin:miter;stroke-width:0.75;" x="63.971117" xlink:href="#md79528af10" y="129.078473"/>
     <use style="fill:#98df8a;stroke:#ffffff;stroke-linejoin:miter;stroke-width:0.75;" x="67.538749" xlink:href="#md79528af10" y="121.189777"/>
     <use style="fill:#98df8a;stroke:#ffffff;stroke-linejoin:miter;stroke-width:0.75;" x="71.106382" xlink:href="#md79528af10" y="121.189777"/>
     <use style="fill:#98df8a;stroke:#ffffff;stroke-linejoin:miter;stroke-width:0.75;" x="74.674014" xlink:href="#md79528af10" y="113.301082"/>
     <use style="fill:#98df8a;stroke:#ffffff;stroke-linejoin:miter;stroke-width:0.75;" x="78.241646" xlink:href="#md79528af10" y="113.301082"/>
     <use style="fill:#98df8a;stroke:#ffffff;stroke-linejoin:miter;stroke-width:0.75;" x="81.809279" xlink:href="#md79528af10" y="113.301082"/>
     <use style="fill:#98df8a;stroke:#ffffff;stroke-linejoin:miter;stroke-width:0.75;" x="85.376911" xlink:href="#md79528af10" y="102.782821"/>
     <use style="fill:#98df8a;stroke:#ffffff;stroke-linejoin:miter;stroke-width:0.75;" x="88.944544" xlink:href="#md79528af10" y="100.153255"/>
     <use style="fill:#98df8a;stroke:#ffffff;stroke-linejoin:miter;stroke-width:0.75;" x="92.512176" xlink:href="#md79528af10" y="97.52369"/>
     <use style="fill:#98df8a;stroke:#ffffff;stroke-linejoin:miter;stroke-width:0.75;" x="96.079808" xlink:href="#md79528af10" y="97.52369"/>
     <use style="fill:#98df8a;stroke:#ffffff;stroke-linejoin:miter;stroke-width:0.75;" x="99.647441" xlink:href="#md79528af10" y="87.005429"/>
     <use style="fill:#98df8a;stroke:#ffffff;stroke-linejoin:miter;stroke-width:0.75;" x="103.215073" xlink:href="#md79528af10" y="87.005429"/>
     <use style="fill:#98df8a;stroke:#ffffff;stroke-linejoin:miter;stroke-width:0.75;" x="106.782705" xlink:href="#md79528af10" y="84.375864"/>
     <use style="fill:#98df8a;stroke:#ffffff;stroke-linejoin:miter;stroke-width:0.75;" x="110.350338" xlink:href="#md79528af10" y="84.375864"/>
     <use style="fill:#98df8a;stroke:#ffffff;stroke-linejoin:miter;stroke-width:0.75;" x="113.91797" xlink:href="#md79528af10" y="81.746299"/>
     <use style="fill:#98df8a;stroke:#ffffff;stroke-linejoin:miter;stroke-width:0.75;" x="117.485603" xlink:href="#md79528af10" y="76.487168"/>
     <use style="fill:#98df8a;stroke:#ffffff;stroke-linejoin:miter;stroke-width:0.75;" x="121.053235" xlink:href="#md79528af10" y="73.857603"/>
     <use style="fill:#98df8a;stroke:#ffffff;stroke-linejoin:miter;stroke-width:0.75;" x="124.620867" xlink:href="#md79528af10" y="73.857603"/>
     <use style="fill:#98df8a;stroke:#ffffff;stroke-linejoin:miter;stroke-width:0.75;" x="128.1885" xlink:href="#md79528af10" y="73.857603"/>
     <use style="fill:#98df8a;stroke:#ffffff;stroke-linejoin:miter;stroke-width:0.75;" x="131.756132" xlink:href="#md79528af10" y="76.487168"/>
     <use style="fill:#98df8a;stroke:#ffffff;stroke-linejoin:miter;stroke-width:0.75;" x="135.323764" xlink:href="#md79528af10" y="71.228038"/>
     <use style="fill:#98df8a;stroke:#ffffff;stroke-linejoin:miter;stroke-width:0.75;" x="138.891397" xlink:href="#md79528af10" y="73.857603"/>
     <use style="fill:#98df8a;stroke:#ffffff;stroke-linejoin:miter;stroke-width:0.75;" x="142.459029" xlink:href="#md79528af10" y="71.228038"/>
     <use style="fill:#98df8a;stroke:#ffffff;stroke-linejoin:miter;stroke-width:0.75;" x="146.026661" xlink:href="#md79528af10" y="71.228038"/>
     <use style="fill:#98df8a;stroke:#ffffff;stroke-linejoin:miter;stroke-width:0.75;" x="149.594294" xlink:href="#md79528af10" y="65.968908"/>
     <use style="fill:#98df8a;stroke:#ffffff;stroke-linejoin:miter;stroke-width:0.75;" x="153.161926" xlink:href="#md79528af10" y="65.968908"/>
     <use style="fill:#98df8a;stroke:#ffffff;stroke-linejoin:miter;stroke-width:0.75;" x="156.729559" xlink:href="#md79528af10" y="65.968908"/>
     <use style="fill:#98df8a;stroke:#ffffff;stroke-linejoin:miter;stroke-width:0.75;" x="160.297191" xlink:href="#md79528af10" y="65.968908"/>
     <use style="fill:#98df8a;stroke:#ffffff;stroke-linejoin:miter;stroke-width:0.75;" x="163.864823" xlink:href="#md79528af10" y="65.968908"/>
     <use style="fill:#98df8a;stroke:#ffffff;stroke-linejoin:miter;stroke-width:0.75;" x="167.432456" xlink:href="#md79528af10" y="65.968908"/>
     <use style="fill:#98df8a;stroke:#ffffff;stroke-linejoin:miter;stroke-width:0.75;" x="171.000088" xlink:href="#md79528af10" y="65.968908"/>
     <use style="fill:#98df8a;stroke:#ffffff;stroke-linejoin:miter;stroke-width:0.75;" x="174.56772" xlink:href="#md79528af10" y="65.968908"/>
     <use style="fill:#98df8a;stroke:#ffffff;stroke-linejoin:miter;stroke-width:0.75;" x="178.135353" xlink:href="#md79528af10" y="65.968908"/>
     <use style="fill:#98df8a;stroke:#ffffff;stroke-linejoin:miter;stroke-width:0.75;" x="181.702985" xlink:href="#md79528af10" y="65.968908"/>
     <use style="fill:#98df8a;stroke:#ffffff;stroke-linejoin:miter;stroke-width:0.75;" x="185.270618" xlink:href="#md79528af10" y="65.968908"/>
     <use style="fill:#98df8a;stroke:#ffffff;stroke-linejoin:miter;stroke-width:0.75;" x="188.83825" xlink:href="#md79528af10" y="63.339342"/>
     <use style="fill:#98df8a;stroke:#ffffff;stroke-linejoin:miter;stroke-width:0.75;" x="192.405882" xlink:href="#md79528af10" y="60.709777"/>
     <use style="fill:#98df8a;stroke:#ffffff;stroke-linejoin:miter;stroke-width:0.75;" x="195.973515" xlink:href="#md79528af10" y="60.709777"/>
     <use style="fill:#98df8a;stroke:#ffffff;stroke-linejoin:miter;stroke-width:0.75;" x="199.541147" xlink:href="#md79528af10" y="60.709777"/>
     <use style="fill:#98df8a;stroke:#ffffff;stroke-linejoin:miter;stroke-width:0.75;" x="203.108779" xlink:href="#md79528af10" y="55.450647"/>
     <use style="fill:#98df8a;stroke:#ffffff;stroke-linejoin:miter;stroke-width:0.75;" x="206.676412" xlink:href="#md79528af10" y="55.450647"/>
     <use style="fill:#98df8a;stroke:#ffffff;stroke-linejoin:miter;stroke-width:0.75;" x="210.244044" xlink:href="#md79528af10" y="55.450647"/>
     <use style="fill:#98df8a;stroke:#ffffff;stroke-linejoin:miter;stroke-width:0.75;" x="213.811676" xlink:href="#md79528af10" y="52.821082"/>
     <use style="fill:#98df8a;stroke:#ffffff;stroke-linejoin:miter;stroke-width:0.75;" x="217.379309" xlink:href="#md79528af10" y="52.821082"/>
     <use style="fill:#98df8a;stroke:#ffffff;stroke-linejoin:miter;stroke-width:0.75;" x="220.946941" xlink:href="#md79528af10" y="52.821082"/>
     <use style="fill:#98df8a;stroke:#ffffff;stroke-linejoin:miter;stroke-width:0.75;" x="224.514574" xlink:href="#md79528af10" y="52.821082"/>
     <use style="fill:#98df8a;stroke:#ffffff;stroke-linejoin:miter;stroke-width:0.75;" x="228.082206" xlink:href="#md79528af10" y="55.450647"/>
     <use style="fill:#98df8a;stroke:#ffffff;stroke-linejoin:miter;stroke-width:0.75;" x="231.649838" xlink:href="#md79528af10" y="50.191516"/>
     <use style="fill:#98df8a;stroke:#ffffff;stroke-linejoin:miter;stroke-width:0.75;" x="235.217471" xlink:href="#md79528af10" y="50.191516"/>
     <use style="fill:#98df8a;stroke:#ffffff;stroke-linejoin:miter;stroke-width:0.75;" x="238.785103" xlink:href="#md79528af10" y="50.191516"/>
     <use style="fill:#98df8a;stroke:#ffffff;stroke-linejoin:miter;stroke-width:0.75;" x="242.352735" xlink:href="#md79528af10" y="50.191516"/>
     <use style="fill:#98df8a;stroke:#ffffff;stroke-linejoin:miter;stroke-width:0.75;" x="245.920368" xlink:href="#md79528af10" y="50.191516"/>
     <use style="fill:#98df8a;stroke:#ffffff;stroke-linejoin:miter;stroke-width:0.75;" x="249.488" xlink:href="#md79528af10" y="50.191516"/>
     <use style="fill:#98df8a;stroke:#ffffff;stroke-linejoin:miter;stroke-width:0.75;" x="253.055632" xlink:href="#md79528af10" y="47.561951"/>
     <use style="fill:#98df8a;stroke:#ffffff;stroke-linejoin:miter;stroke-width:0.75;" x="256.623265" xlink:href="#md79528af10" y="47.561951"/>
     <use style="fill:#98df8a;stroke:#ffffff;stroke-linejoin:miter;stroke-width:0.75;" x="260.190897" xlink:href="#md79528af10" y="50.191516"/>
     <use style="fill:#98df8a;stroke:#ffffff;stroke-linejoin:miter;stroke-width:0.75;" x="263.75853" xlink:href="#md79528af10" y="47.561951"/>
     <use style="fill:#98df8a;stroke:#ffffff;stroke-linejoin:miter;stroke-width:0.75;" x="267.326162" xlink:href="#md79528af10" y="47.561951"/>
     <use style="fill:#98df8a;stroke:#ffffff;stroke-linejoin:miter;stroke-width:0.75;" x="270.893794" xlink:href="#md79528af10" y="47.561951"/>
     <use style="fill:#98df8a;stroke:#ffffff;stroke-linejoin:miter;stroke-width:0.75;" x="274.461427" xlink:href="#md79528af10" y="44.932386"/>
     <use style="fill:#98df8a;stroke:#ffffff;stroke-linejoin:miter;stroke-width:0.75;" x="278.029059" xlink:href="#md79528af10" y="50.191516"/>
     <use style="fill:#98df8a;stroke:#ffffff;stroke-linejoin:miter;stroke-width:0.75;" x="281.596691" xlink:href="#md79528af10" y="44.932386"/>
     <use style="fill:#98df8a;stroke:#ffffff;stroke-linejoin:miter;stroke-width:0.75;" x="285.164324" xlink:href="#md79528af10" y="47.561951"/>
     <use style="fill:#98df8a;stroke:#ffffff;stroke-linejoin:miter;stroke-width:0.75;" x="288.731956" xlink:href="#md79528af10" y="44.932386"/>
     <use style="fill:#98df8a;stroke:#ffffff;stroke-linejoin:miter;stroke-width:0.75;" x="292.299589" xlink:href="#md79528af10" y="44.932386"/>
     <use style="fill:#98df8a;stroke:#ffffff;stroke-linejoin:miter;stroke-width:0.75;" x="295.867221" xlink:href="#md79528af10" y="44.932386"/>
     <use style="fill:#98df8a;stroke:#ffffff;stroke-linejoin:miter;stroke-width:0.75;" x="299.434853" xlink:href="#md79528af10" y="44.932386"/>
     <use style="fill:#98df8a;stroke:#ffffff;stroke-linejoin:miter;stroke-width:0.75;" x="303.002486" xlink:href="#md79528af10" y="44.932386"/>
     <use style="fill:#98df8a;stroke:#ffffff;stroke-linejoin:miter;stroke-width:0.75;" x="306.570118" xlink:href="#md79528af10" y="44.932386"/>
     <use style="fill:#98df8a;stroke:#ffffff;stroke-linejoin:miter;stroke-width:0.75;" x="310.13775" xlink:href="#md79528af10" y="44.932386"/>
     <use style="fill:#98df8a;stroke:#ffffff;stroke-linejoin:miter;stroke-width:0.75;" x="313.705383" xlink:href="#md79528af10" y="44.932386"/>
     <use style="fill:#98df8a;stroke:#ffffff;stroke-linejoin:miter;stroke-width:0.75;" x="317.273015" xlink:href="#md79528af10" y="44.932386"/>
     <use style="fill:#98df8a;stroke:#ffffff;stroke-linejoin:miter;stroke-width:0.75;" x="320.840647" xlink:href="#md79528af10" y="44.932386"/>
     <use style="fill:#98df8a;stroke:#ffffff;stroke-linejoin:miter;stroke-width:0.75;" x="324.40828" xlink:href="#md79528af10" y="39.673255"/>
     <use style="fill:#98df8a;stroke:#ffffff;stroke-linejoin:miter;stroke-width:0.75;" x="327.975912" xlink:href="#md79528af10" y="42.302821"/>
     <use style="fill:#98df8a;stroke:#ffffff;stroke-linejoin:miter;stroke-width:0.75;" x="331.543545" xlink:href="#md79528af10" y="42.302821"/>
     <use style="fill:#98df8a;stroke:#ffffff;stroke-linejoin:miter;stroke-width:0.75;" x="335.111177" xlink:href="#md79528af10" y="44.932386"/>
     <use style="fill:#98df8a;stroke:#ffffff;stroke-linejoin:miter;stroke-width:0.75;" x="338.678809" xlink:href="#md79528af10" y="39.673255"/>
     <use style="fill:#98df8a;stroke:#ffffff;stroke-linejoin:miter;stroke-width:0.75;" x="342.246442" xlink:href="#md79528af10" y="42.302821"/>
     <use style="fill:#98df8a;stroke:#ffffff;stroke-linejoin:miter;stroke-width:0.75;" x="345.814074" xlink:href="#md79528af10" y="39.673255"/>
     <use style="fill:#98df8a;stroke:#ffffff;stroke-linejoin:miter;stroke-width:0.75;" x="349.381706" xlink:href="#md79528af10" y="39.673255"/>
     <use style="fill:#98df8a;stroke:#ffffff;stroke-linejoin:miter;stroke-width:0.75;" x="352.949339" xlink:href="#md79528af10" y="39.673255"/>
     <use style="fill:#98df8a;stroke:#ffffff;stroke-linejoin:miter;stroke-width:0.75;" x="356.516971" xlink:href="#md79528af10" y="39.673255"/>
     <use style="fill:#98df8a;stroke:#ffffff;stroke-linejoin:miter;stroke-width:0.75;" x="360.084604" xlink:href="#md79528af10" y="44.932386"/>
     <use style="fill:#98df8a;stroke:#ffffff;stroke-linejoin:miter;stroke-width:0.75;" x="363.652236" xlink:href="#md79528af10" y="39.673255"/>
     <use style="fill:#98df8a;stroke:#ffffff;stroke-linejoin:miter;stroke-width:0.75;" x="367.219868" xlink:href="#md79528af10" y="39.673255"/>
     <use style="fill:#98df8a;stroke:#ffffff;stroke-linejoin:miter;stroke-width:0.75;" x="370.787501" xlink:href="#md79528af10" y="39.673255"/>
     <use style="fill:#98df8a;stroke:#ffffff;stroke-linejoin:miter;stroke-width:0.75;" x="374.355133" xlink:href="#md79528af10" y="39.673255"/>
     <use style="fill:#98df8a;stroke:#ffffff;stroke-linejoin:miter;stroke-width:0.75;" x="377.922765" xlink:href="#md79528af10" y="42.302821"/>
     <use style="fill:#98df8a;stroke:#ffffff;stroke-linejoin:miter;stroke-width:0.75;" x="381.490398" xlink:href="#md79528af10" y="39.673255"/>
    </g>
   </g>
   <g id="line2d_13">
    <path clip-path="url(#p864164425b)" d="M 56.835852 155.374125 
L 60.403485 139.596734 
L 63.971117 129.078473 
L 67.538749 134.337603 
L 71.106382 121.189777 
L 74.674014 118.560212 
L 78.241646 113.301082 
L 81.809279 108.041951 
L 85.376911 108.041951 
L 88.944544 108.041951 
L 92.512176 108.041951 
L 96.079808 108.041951 
L 99.647441 102.782821 
L 103.215073 97.52369 
L 106.782705 97.52369 
L 110.350338 94.894125 
L 113.91797 92.26456 
L 117.485603 87.005429 
L 121.053235 89.634995 
L 124.620867 87.005429 
L 128.1885 89.634995 
L 131.756132 87.005429 
L 135.323764 89.634995 
L 138.891397 89.634995 
L 142.459029 81.746299 
L 146.026661 92.26456 
L 149.594294 81.746299 
L 153.161926 81.746299 
L 156.729559 81.746299 
L 160.297191 81.746299 
L 163.864823 81.746299 
L 167.432456 81.746299 
L 171.000088 87.005429 
L 174.56772 81.746299 
L 178.135353 81.746299 
L 181.702985 76.487168 
L 185.270618 76.487168 
L 188.83825 76.487168 
L 192.405882 73.857603 
L 195.973515 68.598473 
L 199.541147 73.857603 
L 203.108779 76.487168 
L 206.676412 71.228038 
L 210.244044 71.228038 
L 213.811676 71.228038 
L 217.379309 68.598473 
L 220.946941 68.598473 
L 224.514574 71.228038 
L 228.082206 68.598473 
L 231.649838 71.228038 
L 235.217471 71.228038 
L 238.785103 71.228038 
L 242.352735 71.228038 
L 245.920368 65.968908 
L 249.488 65.968908 
L 253.055632 65.968908 
L 256.623265 65.968908 
L 260.190897 71.228038 
L 263.75853 71.228038 
L 267.326162 71.228038 
L 270.893794 65.968908 
L 274.461427 71.228038 
L 278.029059 65.968908 
L 281.596691 63.339342 
L 285.164324 63.339342 
L 288.731956 63.339342 
L 292.299589 63.339342 
L 295.867221 60.709777 
L 299.434853 60.709777 
L 303.002486 60.709777 
L 306.570118 60.709777 
L 310.13775 60.709777 
L 313.705383 60.709777 
L 317.273015 58.080212 
L 320.840647 58.080212 
L 324.40828 60.709777 
L 327.975912 58.080212 
L 331.543545 58.080212 
L 335.111177 60.709777 
L 338.678809 60.709777 
L 342.246442 60.709777 
L 345.814074 60.709777 
L 349.381706 60.709777 
L 352.949339 60.709777 
L 356.516971 60.709777 
L 360.084604 60.709777 
L 363.652236 60.709777 
L 367.219868 60.709777 
L 370.787501 60.709777 
L 374.355133 60.709777 
L 377.922765 55.450647 
L 381.490398 60.709777 
" style="fill:none;stroke:#1f77b4;stroke-linecap:square;stroke-width:1.5;"/>
    <defs>
     <path d="M 0 3 
C 0.795609 3 1.55874 2.683901 2.12132 2.12132 
C 2.683901 1.55874 3 0.795609 3 0 
C 3 -0.795609 2.683901 -1.55874 2.12132 -2.12132 
C 1.55874 -2.683901 0.795609 -3 0 -3 
C -0.795609 -3 -1.55874 -2.683901 -2.12132 -2.12132 
C -2.683901 -1.55874 -3 -0.795609 -3 0 
C -3 0.795609 -2.683901 1.55874 -2.12132 2.12132 
C -1.55874 2.683901 -0.795609 3 0 3 
z
" id="mc37b989a1a" style="stroke:#ffffff;stroke-width:0.75;"/>
    </defs>
    <g clip-path="url(#p864164425b)">
     <use style="fill:#1f77b4;stroke:#ffffff;stroke-width:0.75;" x="56.835852" xlink:href="#mc37b989a1a" y="155.374125"/>
     <use style="fill:#1f77b4;stroke:#ffffff;stroke-width:0.75;" x="60.403485" xlink:href="#mc37b989a1a" y="139.596734"/>
     <use style="fill:#1f77b4;stroke:#ffffff;stroke-width:0.75;" x="63.971117" xlink:href="#mc37b989a1a" y="129.078473"/>
     <use style="fill:#1f77b4;stroke:#ffffff;stroke-width:0.75;" x="67.538749" xlink:href="#mc37b989a1a" y="134.337603"/>
     <use style="fill:#1f77b4;stroke:#ffffff;stroke-width:0.75;" x="71.106382" xlink:href="#mc37b989a1a" y="121.189777"/>
     <use style="fill:#1f77b4;stroke:#ffffff;stroke-width:0.75;" x="74.674014" xlink:href="#mc37b989a1a" y="118.560212"/>
     <use style="fill:#1f77b4;stroke:#ffffff;stroke-width:0.75;" x="78.241646" xlink:href="#mc37b989a1a" y="113.301082"/>
     <use style="fill:#1f77b4;stroke:#ffffff;stroke-width:0.75;" x="81.809279" xlink:href="#mc37b989a1a" y="108.041951"/>
     <use style="fill:#1f77b4;stroke:#ffffff;stroke-width:0.75;" x="85.376911" xlink:href="#mc37b989a1a" y="108.041951"/>
     <use style="fill:#1f77b4;stroke:#ffffff;stroke-width:0.75;" x="88.944544" xlink:href="#mc37b989a1a" y="108.041951"/>
     <use style="fill:#1f77b4;stroke:#ffffff;stroke-width:0.75;" x="92.512176" xlink:href="#mc37b989a1a" y="108.041951"/>
     <use style="fill:#1f77b4;stroke:#ffffff;stroke-width:0.75;" x="96.079808" xlink:href="#mc37b989a1a" y="108.041951"/>
     <use style="fill:#1f77b4;stroke:#ffffff;stroke-width:0.75;" x="99.647441" xlink:href="#mc37b989a1a" y="102.782821"/>
     <use style="fill:#1f77b4;stroke:#ffffff;stroke-width:0.75;" x="103.215073" xlink:href="#mc37b989a1a" y="97.52369"/>
     <use style="fill:#1f77b4;stroke:#ffffff;stroke-width:0.75;" x="106.782705" xlink:href="#mc37b989a1a" y="97.52369"/>
     <use style="fill:#1f77b4;stroke:#ffffff;stroke-width:0.75;" x="110.350338" xlink:href="#mc37b989a1a" y="94.894125"/>
     <use style="fill:#1f77b4;stroke:#ffffff;stroke-width:0.75;" x="113.91797" xlink:href="#mc37b989a1a" y="92.26456"/>
     <use style="fill:#1f77b4;stroke:#ffffff;stroke-width:0.75;" x="117.485603" xlink:href="#mc37b989a1a" y="87.005429"/>
     <use style="fill:#1f77b4;stroke:#ffffff;stroke-width:0.75;" x="121.053235" xlink:href="#mc37b989a1a" y="89.634995"/>
     <use style="fill:#1f77b4;stroke:#ffffff;stroke-width:0.75;" x="124.620867" xlink:href="#mc37b989a1a" y="87.005429"/>
     <use style="fill:#1f77b4;stroke:#ffffff;stroke-width:0.75;" x="128.1885" xlink:href="#mc37b989a1a" y="89.634995"/>
     <use style="fill:#1f77b4;stroke:#ffffff;stroke-width:0.75;" x="131.756132" xlink:href="#mc37b989a1a" y="87.005429"/>
     <use style="fill:#1f77b4;stroke:#ffffff;stroke-width:0.75;" x="135.323764" xlink:href="#mc37b989a1a" y="89.634995"/>
     <use style="fill:#1f77b4;stroke:#ffffff;stroke-width:0.75;" x="138.891397" xlink:href="#mc37b989a1a" y="89.634995"/>
     <use style="fill:#1f77b4;stroke:#ffffff;stroke-width:0.75;" x="142.459029" xlink:href="#mc37b989a1a" y="81.746299"/>
     <use style="fill:#1f77b4;stroke:#ffffff;stroke-width:0.75;" x="146.026661" xlink:href="#mc37b989a1a" y="92.26456"/>
     <use style="fill:#1f77b4;stroke:#ffffff;stroke-width:0.75;" x="149.594294" xlink:href="#mc37b989a1a" y="81.746299"/>
     <use style="fill:#1f77b4;stroke:#ffffff;stroke-width:0.75;" x="153.161926" xlink:href="#mc37b989a1a" y="81.746299"/>
     <use style="fill:#1f77b4;stroke:#ffffff;stroke-width:0.75;" x="156.729559" xlink:href="#mc37b989a1a" y="81.746299"/>
     <use style="fill:#1f77b4;stroke:#ffffff;stroke-width:0.75;" x="160.297191" xlink:href="#mc37b989a1a" y="81.746299"/>
     <use style="fill:#1f77b4;stroke:#ffffff;stroke-width:0.75;" x="163.864823" xlink:href="#mc37b989a1a" y="81.746299"/>
     <use style="fill:#1f77b4;stroke:#ffffff;stroke-width:0.75;" x="167.432456" xlink:href="#mc37b989a1a" y="81.746299"/>
     <use style="fill:#1f77b4;stroke:#ffffff;stroke-width:0.75;" x="171.000088" xlink:href="#mc37b989a1a" y="87.005429"/>
     <use style="fill:#1f77b4;stroke:#ffffff;stroke-width:0.75;" x="174.56772" xlink:href="#mc37b989a1a" y="81.746299"/>
     <use style="fill:#1f77b4;stroke:#ffffff;stroke-width:0.75;" x="178.135353" xlink:href="#mc37b989a1a" y="81.746299"/>
     <use style="fill:#1f77b4;stroke:#ffffff;stroke-width:0.75;" x="181.702985" xlink:href="#mc37b989a1a" y="76.487168"/>
     <use style="fill:#1f77b4;stroke:#ffffff;stroke-width:0.75;" x="185.270618" xlink:href="#mc37b989a1a" y="76.487168"/>
     <use style="fill:#1f77b4;stroke:#ffffff;stroke-width:0.75;" x="188.83825" xlink:href="#mc37b989a1a" y="76.487168"/>
     <use style="fill:#1f77b4;stroke:#ffffff;stroke-width:0.75;" x="192.405882" xlink:href="#mc37b989a1a" y="73.857603"/>
     <use style="fill:#1f77b4;stroke:#ffffff;stroke-width:0.75;" x="195.973515" xlink:href="#mc37b989a1a" y="68.598473"/>
     <use style="fill:#1f77b4;stroke:#ffffff;stroke-width:0.75;" x="199.541147" xlink:href="#mc37b989a1a" y="73.857603"/>
     <use style="fill:#1f77b4;stroke:#ffffff;stroke-width:0.75;" x="203.108779" xlink:href="#mc37b989a1a" y="76.487168"/>
     <use style="fill:#1f77b4;stroke:#ffffff;stroke-width:0.75;" x="206.676412" xlink:href="#mc37b989a1a" y="71.228038"/>
     <use style="fill:#1f77b4;stroke:#ffffff;stroke-width:0.75;" x="210.244044" xlink:href="#mc37b989a1a" y="71.228038"/>
     <use style="fill:#1f77b4;stroke:#ffffff;stroke-width:0.75;" x="213.811676" xlink:href="#mc37b989a1a" y="71.228038"/>
     <use style="fill:#1f77b4;stroke:#ffffff;stroke-width:0.75;" x="217.379309" xlink:href="#mc37b989a1a" y="68.598473"/>
     <use style="fill:#1f77b4;stroke:#ffffff;stroke-width:0.75;" x="220.946941" xlink:href="#mc37b989a1a" y="68.598473"/>
     <use style="fill:#1f77b4;stroke:#ffffff;stroke-width:0.75;" x="224.514574" xlink:href="#mc37b989a1a" y="71.228038"/>
     <use style="fill:#1f77b4;stroke:#ffffff;stroke-width:0.75;" x="228.082206" xlink:href="#mc37b989a1a" y="68.598473"/>
     <use style="fill:#1f77b4;stroke:#ffffff;stroke-width:0.75;" x="231.649838" xlink:href="#mc37b989a1a" y="71.228038"/>
     <use style="fill:#1f77b4;stroke:#ffffff;stroke-width:0.75;" x="235.217471" xlink:href="#mc37b989a1a" y="71.228038"/>
     <use style="fill:#1f77b4;stroke:#ffffff;stroke-width:0.75;" x="238.785103" xlink:href="#mc37b989a1a" y="71.228038"/>
     <use style="fill:#1f77b4;stroke:#ffffff;stroke-width:0.75;" x="242.352735" xlink:href="#mc37b989a1a" y="71.228038"/>
     <use style="fill:#1f77b4;stroke:#ffffff;stroke-width:0.75;" x="245.920368" xlink:href="#mc37b989a1a" y="65.968908"/>
     <use style="fill:#1f77b4;stroke:#ffffff;stroke-width:0.75;" x="249.488" xlink:href="#mc37b989a1a" y="65.968908"/>
     <use style="fill:#1f77b4;stroke:#ffffff;stroke-width:0.75;" x="253.055632" xlink:href="#mc37b989a1a" y="65.968908"/>
     <use style="fill:#1f77b4;stroke:#ffffff;stroke-width:0.75;" x="256.623265" xlink:href="#mc37b989a1a" y="65.968908"/>
     <use style="fill:#1f77b4;stroke:#ffffff;stroke-width:0.75;" x="260.190897" xlink:href="#mc37b989a1a" y="71.228038"/>
     <use style="fill:#1f77b4;stroke:#ffffff;stroke-width:0.75;" x="263.75853" xlink:href="#mc37b989a1a" y="71.228038"/>
     <use style="fill:#1f77b4;stroke:#ffffff;stroke-width:0.75;" x="267.326162" xlink:href="#mc37b989a1a" y="71.228038"/>
     <use style="fill:#1f77b4;stroke:#ffffff;stroke-width:0.75;" x="270.893794" xlink:href="#mc37b989a1a" y="65.968908"/>
     <use style="fill:#1f77b4;stroke:#ffffff;stroke-width:0.75;" x="274.461427" xlink:href="#mc37b989a1a" y="71.228038"/>
     <use style="fill:#1f77b4;stroke:#ffffff;stroke-width:0.75;" x="278.029059" xlink:href="#mc37b989a1a" y="65.968908"/>
     <use style="fill:#1f77b4;stroke:#ffffff;stroke-width:0.75;" x="281.596691" xlink:href="#mc37b989a1a" y="63.339342"/>
     <use style="fill:#1f77b4;stroke:#ffffff;stroke-width:0.75;" x="285.164324" xlink:href="#mc37b989a1a" y="63.339342"/>
     <use style="fill:#1f77b4;stroke:#ffffff;stroke-width:0.75;" x="288.731956" xlink:href="#mc37b989a1a" y="63.339342"/>
     <use style="fill:#1f77b4;stroke:#ffffff;stroke-width:0.75;" x="292.299589" xlink:href="#mc37b989a1a" y="63.339342"/>
     <use style="fill:#1f77b4;stroke:#ffffff;stroke-width:0.75;" x="295.867221" xlink:href="#mc37b989a1a" y="60.709777"/>
     <use style="fill:#1f77b4;stroke:#ffffff;stroke-width:0.75;" x="299.434853" xlink:href="#mc37b989a1a" y="60.709777"/>
     <use style="fill:#1f77b4;stroke:#ffffff;stroke-width:0.75;" x="303.002486" xlink:href="#mc37b989a1a" y="60.709777"/>
     <use style="fill:#1f77b4;stroke:#ffffff;stroke-width:0.75;" x="306.570118" xlink:href="#mc37b989a1a" y="60.709777"/>
     <use style="fill:#1f77b4;stroke:#ffffff;stroke-width:0.75;" x="310.13775" xlink:href="#mc37b989a1a" y="60.709777"/>
     <use style="fill:#1f77b4;stroke:#ffffff;stroke-width:0.75;" x="313.705383" xlink:href="#mc37b989a1a" y="60.709777"/>
     <use style="fill:#1f77b4;stroke:#ffffff;stroke-width:0.75;" x="317.273015" xlink:href="#mc37b989a1a" y="58.080212"/>
     <use style="fill:#1f77b4;stroke:#ffffff;stroke-width:0.75;" x="320.840647" xlink:href="#mc37b989a1a" y="58.080212"/>
     <use style="fill:#1f77b4;stroke:#ffffff;stroke-width:0.75;" x="324.40828" xlink:href="#mc37b989a1a" y="60.709777"/>
     <use style="fill:#1f77b4;stroke:#ffffff;stroke-width:0.75;" x="327.975912" xlink:href="#mc37b989a1a" y="58.080212"/>
     <use style="fill:#1f77b4;stroke:#ffffff;stroke-width:0.75;" x="331.543545" xlink:href="#mc37b989a1a" y="58.080212"/>
     <use style="fill:#1f77b4;stroke:#ffffff;stroke-width:0.75;" x="335.111177" xlink:href="#mc37b989a1a" y="60.709777"/>
     <use style="fill:#1f77b4;stroke:#ffffff;stroke-width:0.75;" x="338.678809" xlink:href="#mc37b989a1a" y="60.709777"/>
     <use style="fill:#1f77b4;stroke:#ffffff;stroke-width:0.75;" x="342.246442" xlink:href="#mc37b989a1a" y="60.709777"/>
     <use style="fill:#1f77b4;stroke:#ffffff;stroke-width:0.75;" x="345.814074" xlink:href="#mc37b989a1a" y="60.709777"/>
     <use style="fill:#1f77b4;stroke:#ffffff;stroke-width:0.75;" x="349.381706" xlink:href="#mc37b989a1a" y="60.709777"/>
     <use style="fill:#1f77b4;stroke:#ffffff;stroke-width:0.75;" x="352.949339" xlink:href="#mc37b989a1a" y="60.709777"/>
     <use style="fill:#1f77b4;stroke:#ffffff;stroke-width:0.75;" x="356.516971" xlink:href="#mc37b989a1a" y="60.709777"/>
     <use style="fill:#1f77b4;stroke:#ffffff;stroke-width:0.75;" x="360.084604" xlink:href="#mc37b989a1a" y="60.709777"/>
     <use style="fill:#1f77b4;stroke:#ffffff;stroke-width:0.75;" x="363.652236" xlink:href="#mc37b989a1a" y="60.709777"/>
     <use style="fill:#1f77b4;stroke:#ffffff;stroke-width:0.75;" x="367.219868" xlink:href="#mc37b989a1a" y="60.709777"/>
     <use style="fill:#1f77b4;stroke:#ffffff;stroke-width:0.75;" x="370.787501" xlink:href="#mc37b989a1a" y="60.709777"/>
     <use style="fill:#1f77b4;stroke:#ffffff;stroke-width:0.75;" x="374.355133" xlink:href="#mc37b989a1a" y="60.709777"/>
     <use style="fill:#1f77b4;stroke:#ffffff;stroke-width:0.75;" x="377.922765" xlink:href="#mc37b989a1a" y="55.450647"/>
     <use style="fill:#1f77b4;stroke:#ffffff;stroke-width:0.75;" x="381.490398" xlink:href="#mc37b989a1a" y="60.709777"/>
    </g>
   </g>
   <g id="line2d_14"/>
   <g id="line2d_15"/>
   <g id="patch_3">
    <path d="M 40.603125 276.334125 
L 40.603125 65.968908 
" style="fill:none;stroke:#000000;stroke-linecap:square;stroke-linejoin:miter;stroke-width:0.8;"/>
   </g>
   <g id="patch_4">
    <path d="M 56.835852 288.430125 
L 330.354334 288.430125 
" style="fill:none;stroke:#000000;stroke-linecap:square;stroke-linejoin:miter;stroke-width:0.8;"/>
   </g>
   <g id="text_14">
    <!-- arrow_parquet-arrow-fuzz (23h, 11 trials/fuzzer) -->
    <g transform="translate(75.492188 16.318125)scale(0.12 -0.12)">
     <defs>
      <path d="M 269 3500 
L 844 3500 
L 1563 769 
L 2278 3500 
L 2956 3500 
L 3675 769 
L 4391 3500 
L 4966 3500 
L 4050 0 
L 3372 0 
L 2619 2869 
L 1863 0 
L 1184 0 
L 269 3500 
z
" id="DejaVuSans-77" transform="scale(0.015625)"/>
      <path d="M 3263 -1063 
L 3263 -1509 
L -63 -1509 
L -63 -1063 
L 3263 -1063 
z
" id="DejaVuSans-5f" transform="scale(0.015625)"/>
      <path d="M 1159 525 
L 1159 -1331 
L 581 -1331 
L 581 3500 
L 1159 3500 
L 1159 2969 
Q 1341 3281 1617 3432 
Q 1894 3584 2278 3584 
Q 2916 3584 3314 3078 
Q 3713 2572 3713 1747 
Q 3713 922 3314 415 
Q 2916 -91 2278 -91 
Q 1894 -91 1617 61 
Q 1341 213 1159 525 
z
M 3116 1747 
Q 3116 2381 2855 2742 
Q 2594 3103 2138 3103 
Q 1681 3103 1420 2742 
Q 1159 2381 1159 1747 
Q 1159 1113 1420 752 
Q 1681 391 2138 391 
Q 2594 391 2855 752 
Q 3116 1113 3116 1747 
z
" id="DejaVuSans-70" transform="scale(0.015625)"/>
      <path d="M 947 1747 
Q 947 1113 1208 752 
Q 1469 391 1925 391 
Q 2381 391 2643 752 
Q 2906 1113 2906 1747 
Q 2906 2381 2643 2742 
Q 2381 3103 1925 3103 
Q 1469 3103 1208 2742 
Q 947 2381 947 1747 
z
M 2906 525 
Q 2725 213 2448 61 
Q 2172 -91 1784 -91 
Q 1150 -91 751 415 
Q 353 922 353 1747 
Q 353 2572 751 3078 
Q 1150 3584 1784 3584 
Q 2172 3584 2448 3432 
Q 2725 3281 2906 2969 
L 2906 3500 
L 3481 3500 
L 3481 -1331 
L 2906 -1331 
L 2906 525 
z
" id="DejaVuSans-71" transform="scale(0.015625)"/>
      <path d="M 313 2009 
L 1997 2009 
L 1997 1497 
L 313 1497 
L 313 2009 
z
" id="DejaVuSans-2d" transform="scale(0.015625)"/>
      <path d="M 2375 4863 
L 2375 4384 
L 1825 4384 
Q 1516 4384 1395 4259 
Q 1275 4134 1275 3809 
L 1275 3500 
L 2222 3500 
L 2222 3053 
L 1275 3053 
L 1275 0 
L 697 0 
L 697 3053 
L 147 3053 
L 147 3500 
L 697 3500 
L 697 3744 
Q 697 4328 969 4595 
Q 1241 4863 1831 4863 
L 2375 4863 
z
" id="DejaVuSans-66" transform="scale(0.015625)"/>
      <path d="M 353 3500 
L 3084 3500 
L 3084 2975 
L 922 459 
L 3084 459 
L 3084 0 
L 275 0 
L 275 525 
L 2438 3041 
L 353 3041 
L 353 3500 
z
" id="DejaVuSans-7a" transform="scale(0.015625)"/>
      <path d="M 750 794 
L 1409 794 
L 1409 256 
L 897 -744 
L 494 -744 
L 750 256 
L 750 794 
z
" id="DejaVuSans-2c" transform="scale(0.015625)"/>
      <path d="M 603 4863 
L 1178 4863 
L 1178 0 
L 603 0 
L 603 4863 
z
" id="DejaVuSans-6c" transform="scale(0.015625)"/>
      <path d="M 2834 3397 
L 2834 2853 
Q 2591 2978 2328 3040 
Q 2066 3103 1784 3103 
Q 1356 3103 1142 2972 
Q 928 2841 928 2578 
Q 928 2378 1081 2264 
Q 1234 2150 1697 2047 
L 1894 2003 
Q 2506 1872 2764 1633 
Q 3022 1394 3022 966 
Q 3022 478 2636 193 
Q 2250 -91 1575 -91 
Q 1294 -91 989 -36 
Q 684 19 347 128 
L 347 722 
Q 666 556 975 473 
Q 1284 391 1588 391 
Q 1994 391 2212 530 
Q 2431 669 2431 922 
Q 2431 1156 2273 1281 
Q 2116 1406 1581 1522 
L 1381 1569 
Q 847 1681 609 1914 
Q 372 2147 372 2553 
Q 372 3047 722 3315 
Q 1072 3584 1716 3584 
Q 2034 3584 2315 3537 
Q 2597 3491 2834 3397 
z
" id="DejaVuSans-73" transform="scale(0.015625)"/>
      <path d="M 1625 4666 
L 2156 4666 
L 531 -594 
L 0 -594 
L 1625 4666 
z
" id="DejaVuSans-2f" transform="scale(0.015625)"/>
     </defs>
     <use xlink:href="#DejaVuSans-61"/>
     <use x="61.279297" xlink:href="#DejaVuSans-72"/>
     <use x="100.642578" xlink:href="#DejaVuSans-72"/>
     <use x="139.505859" xlink:href="#DejaVuSans-6f"/>
     <use x="200.6875" xlink:href="#DejaVuSans-77"/>
     <use x="282.474609" xlink:href="#DejaVuSans-5f"/>
     <use x="332.474609" xlink:href="#DejaVuSans-70"/>
     <use x="395.951172" xlink:href="#DejaVuSans-61"/>
     <use x="457.230469" xlink:href="#DejaVuSans-72"/>
     <use x="496.59375" xlink:href="#DejaVuSans-71"/>
     <use x="560.070312" xlink:href="#DejaVuSans-75"/>
     <use x="623.449219" xlink:href="#DejaVuSans-65"/>
     <use x="684.972656" xlink:href="#DejaVuSans-74"/>
     <use x="724.181641" xlink:href="#DejaVuSans-2d"/>
     <use x="760.265625" xlink:href="#DejaVuSans-61"/>
     <use x="821.544922" xlink:href="#DejaVuSans-72"/>
     <use x="860.908203" xlink:href="#DejaVuSans-72"/>
     <use x="899.771484" xlink:href="#DejaVuSans-6f"/>
     <use x="960.953125" xlink:href="#DejaVuSans-77"/>
     <use x="1042.740234" xlink:href="#DejaVuSans-2d"/>
     <use x="1078.824219" xlink:href="#DejaVuSans-66"/>
     <use x="1114.029297" xlink:href="#DejaVuSans-75"/>
     <use x="1177.408203" xlink:href="#DejaVuSans-7a"/>
     <use x="1229.898438" xlink:href="#DejaVuSans-7a"/>
     <use x="1282.388672" xlink:href="#DejaVuSans-20"/>
     <use x="1314.175781" xlink:href="#DejaVuSans-28"/>
     <use x="1353.189453" xlink:href="#DejaVuSans-32"/>
     <use x="1416.8125" xlink:href="#DejaVuSans-33"/>
     <use x="1480.435547" xlink:href="#DejaVuSans-68"/>
     <use x="1543.814453" xlink:href="#DejaVuSans-2c"/>
     <use x="1575.601562" xlink:href="#DejaVuSans-20"/>
     <use x="1607.388672" xlink:href="#DejaVuSans-31"/>
     <use x="1671.011719" xlink:href="#DejaVuSans-31"/>
     <use x="1734.634766" xlink:href="#DejaVuSans-20"/>
     <use x="1766.421875" xlink:href="#DejaVuSans-74"/>
     <use x="1805.630859" xlink:href="#DejaVuSans-72"/>
     <use x="1846.744141" xlink:href="#DejaVuSans-69"/>
     <use x="1874.527344" xlink:href="#DejaVuSans-61"/>
     <use x="1935.806641" xlink:href="#DejaVuSans-6c"/>
     <use x="1963.589844" xlink:href="#DejaVuSans-73"/>
     <use x="2015.689453" xlink:href="#DejaVuSans-2f"/>
     <use x="2049.380859" xlink:href="#DejaVuSans-66"/>
     <use x="2084.585938" xlink:href="#DejaVuSans-75"/>
     <use x="2147.964844" xlink:href="#DejaVuSans-7a"/>
     <use x="2200.455078" xlink:href="#DejaVuSans-7a"/>
     <use x="2252.945312" xlink:href="#DejaVuSans-65"/>
     <use x="2314.46875" xlink:href="#DejaVuSans-72"/>
     <use x="2355.582031" xlink:href="#DejaVuSans-29"/>
    </g>
   </g>
   <g id="legend_1">
    <g id="line2d_16">
     <path d="M 401.723125 30.416562 
L 421.723125 30.416562 
" style="fill:none;stroke:#98df8a;stroke-linecap:square;stroke-width:1.5;"/>
    </g>
    <g id="line2d_17">
     <defs>
      <path d="M -0 3 
L 3 -3 
L -3 -3 
z
" id="m61a7b45365" style="stroke:#98df8a;stroke-linejoin:miter;"/>
     </defs>
     <g>
      <use style="fill:#98df8a;stroke:#98df8a;stroke-linejoin:miter;" x="411.723125" xlink:href="#m61a7b45365" y="30.416562"/>
     </g>
    </g>
    <g id="text_15">
     <!-- afl_collision_free -->
     <g transform="translate(429.723125 33.916562)scale(0.1 -0.1)">
      <use xlink:href="#DejaVuSans-61"/>
      <use x="61.279297" xlink:href="#DejaVuSans-66"/>
      <use x="96.484375" xlink:href="#DejaVuSans-6c"/>
      <use x="124.267578" xlink:href="#DejaVuSans-5f"/>
      <use x="174.267578" xlink:href="#DejaVuSans-63"/>
      <use x="229.248047" xlink:href="#DejaVuSans-6f"/>
      <use x="290.429688" xlink:href="#DejaVuSans-6c"/>
      <use x="318.212891" xlink:href="#DejaVuSans-6c"/>
      <use x="345.996094" xlink:href="#DejaVuSans-69"/>
      <use x="373.779297" xlink:href="#DejaVuSans-73"/>
      <use x="425.878906" xlink:href="#DejaVuSans-69"/>
      <use x="453.662109" xlink:href="#DejaVuSans-6f"/>
      <use x="514.84375" xlink:href="#DejaVuSans-6e"/>
      <use x="578.222656" xlink:href="#DejaVuSans-5f"/>
      <use x="628.222656" xlink:href="#DejaVuSans-66"/>
      <use x="663.427734" xlink:href="#DejaVuSans-72"/>
      <use x="702.291016" xlink:href="#DejaVuSans-65"/>
      <use x="763.814453" xlink:href="#DejaVuSans-65"/>
     </g>
    </g>
    <g id="line2d_18">
     <path d="M 401.723125 45.372813 
L 421.723125 45.372813 
" style="fill:none;stroke:#1f77b4;stroke-linecap:square;stroke-width:1.5;"/>
    </g>
    <g id="line2d_19">
     <defs>
      <path d="M 0 3 
C 0.795609 3 1.55874 2.683901 2.12132 2.12132 
C 2.683901 1.55874 3 0.795609 3 0 
C 3 -0.795609 2.683901 -1.55874 2.12132 -2.12132 
C 1.55874 -2.683901 0.795609 -3 0 -3 
C -0.795609 -3 -1.55874 -2.683901 -2.12132 -2.12132 
C -2.683901 -1.55874 -3 -0.795609 -3 0 
C -3 0.795609 -2.683901 1.55874 -2.12132 2.12132 
C -1.55874 2.683901 -0.795609 3 0 3 
z
" id="m2114c317aa" style="stroke:#1f77b4;"/>
     </defs>
     <g>
      <use style="fill:#1f77b4;stroke:#1f77b4;" x="411.723125" xlink:href="#m2114c317aa" y="45.372813"/>
     </g>
    </g>
    <g id="text_16">
     <!-- afl -->
     <g transform="translate(429.723125 48.872813)scale(0.1 -0.1)">
      <use xlink:href="#DejaVuSans-61"/>
      <use x="61.279297" xlink:href="#DejaVuSans-66"/>
      <use x="96.484375" xlink:href="#DejaVuSans-6c"/>
     </g>
    </g>
   </g>
  </g>
 </g>
 <defs>
  <clipPath id="p864164425b">
   <rect height="266.112" width="357.12" x="40.603125" y="22.318125"/>
  </clipPath>
 </defs>
</svg>
