<?xml version="1.0" encoding="utf-8" standalone="no"?>
<!DOCTYPE svg PUBLIC "-//W3C//DTD SVG 1.1//EN"
  "http://www.w3.org/Graphics/SVG/1.1/DTD/svg11.dtd">
<svg height="325.986375pt" version="1.1" viewBox="0 0 517.095 325.986375" width="517.095pt" xmlns="http://www.w3.org/2000/svg" xmlns:xlink="http://www.w3.org/1999/xlink">
 <metadata>
  <rdf:RDF xmlns:cc="http://creativecommons.org/ns#" xmlns:dc="http://purl.org/dc/elements/1.1/" xmlns:rdf="http://www.w3.org/1999/02/22-rdf-syntax-ns#">
   <cc:Work>
    <dc:type rdf:resource="http://purl.org/dc/dcmitype/StillImage"/>
    <dc:date>2022-06-03T14:46:31.440167</dc:date>
    <dc:format>image/svg+xml</dc:format>
    <dc:creator>
     <cc:Agent>
      <dc:title>Matplotlib v3.4.3, https://matplotlib.org/</dc:title>
     </cc:Agent>
    </dc:creator>
   </cc:Work>
  </rdf:RDF>
 </metadata>
 <defs>
  <style type="text/css">*{stroke-linecap:butt;stroke-linejoin:round;}</style>
 </defs>
 <g id="figure_1">
  <g id="patch_1">
   <path d="M 0 325.986375 
L 517.095 325.986375 
L 517.095 0 
L 0 0 
z
" style="fill:#ffffff;"/>
  </g>
  <g id="axes_1">
   <g id="patch_2">
    <path d="M 34.240625 288.430125 
L 391.360625 288.430125 
L 391.360625 22.318125 
L 34.240625 22.318125 
z
" style="fill:#ffffff;"/>
   </g>
   <g id="PolyCollection_1">
    <defs>
     <path d="M 50.473352 -49.65225 
L 50.473352 -49.65225 
L 54.040985 -49.65225 
L 57.608617 -49.65225 
L 61.176249 -84.21225 
L 64.743882 -84.21225 
L 68.311514 -84.21225 
L 71.879146 -84.21225 
L 75.446779 -84.21225 
L 79.014411 -84.21225 
L 82.582044 -101.49225 
L 86.149676 -118.77225 
L 89.717308 -118.77225 
L 93.284941 -118.77225 
L 96.852573 -118.77225 
L 100.420205 -118.77225 
L 103.987838 -118.77225 
L 107.55547 -118.77225 
L 111.123103 -118.77225 
L 114.690735 -118.77225 
L 118.258367 -118.77225 
L 121.826 -118.77225 
L 125.393632 -118.77225 
L 128.961264 -118.77225 
L 132.528897 -118.77225 
L 136.096529 -118.77225 
L 139.664161 -136.05225 
L 143.231794 -136.05225 
L 146.799426 -136.05225 
L 150.367059 -153.33225 
L 153.934691 -153.33225 
L 157.502323 -153.33225 
L 161.069956 -153.33225 
L 164.637588 -153.33225 
L 168.20522 -153.33225 
L 171.772853 -153.33225 
L 175.340485 -153.33225 
L 178.908118 -153.33225 
L 182.47575 -153.33225 
L 186.043382 -153.33225 
L 189.611015 -153.33225 
L 193.178647 -153.33225 
L 196.746279 -153.33225 
L 200.313912 -170.61225 
L 203.881544 -170.61225 
L 207.449176 -170.61225 
L 211.016809 -170.61225 
L 214.584441 -187.89225 
L 218.152074 -187.89225 
L 221.719706 -187.89225 
L 225.287338 -187.89225 
L 228.854971 -187.89225 
L 232.422603 -187.89225 
L 235.990235 -187.89225 
L 239.557868 -187.89225 
L 243.1255 -187.89225 
L 246.693132 -187.89225 
L 250.260765 -187.89225 
L 253.828397 -187.89225 
L 257.39603 -187.89225 
L 260.963662 -187.89225 
L 264.531294 -187.89225 
L 268.098927 -187.89225 
L 271.666559 -187.89225 
L 275.234191 -187.89225 
L 278.801824 -187.89225 
L 282.369456 -187.89225 
L 285.937089 -187.89225 
L 289.504721 -187.89225 
L 293.072353 -187.89225 
L 296.639986 -187.89225 
L 300.207618 -187.89225 
L 303.77525 -187.89225 
L 307.342883 -187.89225 
L 310.910515 -187.89225 
L 314.478147 -187.89225 
L 318.04578 -187.89225 
L 321.613412 -187.89225 
L 325.181045 -187.89225 
L 328.748677 -187.89225 
L 332.316309 -187.89225 
L 335.883942 -187.89225 
L 339.451574 -187.89225 
L 343.019206 -187.89225 
L 346.586839 -187.89225 
L 350.154471 -187.89225 
L 353.722104 -187.89225 
L 357.289736 -187.89225 
L 360.857368 -187.89225 
L 364.425001 -187.89225 
L 367.992633 -187.89225 
L 371.560265 -205.17225 
L 375.127898 -187.89225 
L 375.127898 -291.57225 
L 375.127898 -291.57225 
L 371.560265 -291.57225 
L 367.992633 -291.57225 
L 364.425001 -291.57225 
L 360.857368 -291.57225 
L 357.289736 -291.57225 
L 353.722104 -291.57225 
L 350.154471 -291.57225 
L 346.586839 -274.29225 
L 343.019206 -274.29225 
L 339.451574 -274.29225 
L 335.883942 -274.29225 
L 332.316309 -274.29225 
L 328.748677 -274.29225 
L 325.181045 -274.29225 
L 321.613412 -274.29225 
L 318.04578 -274.29225 
L 314.478147 -274.29225 
L 310.910515 -274.29225 
L 307.342883 -274.29225 
L 303.77525 -274.29225 
L 300.207618 -274.29225 
L 296.639986 -274.29225 
L 293.072353 -274.29225 
L 289.504721 -274.29225 
L 285.937089 -274.29225 
L 282.369456 -274.29225 
L 278.801824 -274.29225 
L 275.234191 -274.29225 
L 271.666559 -257.01225 
L 268.098927 -257.01225 
L 264.531294 -257.01225 
L 260.963662 -257.01225 
L 257.39603 -257.01225 
L 253.828397 -257.01225 
L 250.260765 -257.01225 
L 246.693132 -257.01225 
L 243.1255 -257.01225 
L 239.557868 -257.01225 
L 235.990235 -257.01225 
L 232.422603 -257.01225 
L 228.854971 -257.01225 
L 225.287338 -257.01225 
L 221.719706 -257.01225 
L 218.152074 -257.01225 
L 214.584441 -257.01225 
L 211.016809 -257.01225 
L 207.449176 -257.01225 
L 203.881544 -257.01225 
L 200.313912 -257.01225 
L 196.746279 -257.01225 
L 193.178647 -257.01225 
L 189.611015 -257.01225 
L 186.043382 -257.01225 
L 182.47575 -257.01225 
L 178.908118 -257.01225 
L 175.340485 -257.01225 
L 171.772853 -239.73225 
L 168.20522 -239.73225 
L 164.637588 -239.73225 
L 161.069956 -239.73225 
L 157.502323 -222.45225 
L 153.934691 -222.45225 
L 150.367059 -222.45225 
L 146.799426 -222.45225 
L 143.231794 -222.45225 
L 139.664161 -222.45225 
L 136.096529 -222.45225 
L 132.528897 -222.45225 
L 128.961264 -205.17225 
L 125.393632 -187.89225 
L 121.826 -187.89225 
L 118.258367 -187.89225 
L 114.690735 -187.89225 
L 111.123103 -187.89225 
L 107.55547 -187.89225 
L 103.987838 -170.61225 
L 100.420205 -170.61225 
L 96.852573 -170.61225 
L 93.284941 -153.33225 
L 89.717308 -153.33225 
L 86.149676 -153.33225 
L 82.582044 -153.33225 
L 79.014411 -136.05225 
L 75.446779 -136.05225 
L 71.879146 -136.05225 
L 68.311514 -136.05225 
L 64.743882 -118.77225 
L 61.176249 -84.21225 
L 57.608617 -84.21225 
L 54.040985 -84.21225 
L 50.473352 -49.65225 
z
" id="mddd1e84497" style="stroke:#1f77b4;stroke-opacity:0.2;"/>
    </defs>
    <g clip-path="url(#pdcfc236b1c)">
     <use style="fill:#1f77b4;fill-opacity:0.2;stroke:#1f77b4;stroke-opacity:0.2;" x="0" xlink:href="#mddd1e84497" y="325.986375"/>
    </g>
   </g>
   <g id="PolyCollection_2">
    <defs>
     <path d="M 50.473352 -49.65225 
L 50.473352 -49.65225 
L 54.040985 -49.65225 
L 57.608617 -84.21225 
L 61.176249 -84.21225 
L 64.743882 -84.21225 
L 68.311514 -84.21225 
L 71.879146 -84.21225 
L 75.446779 -84.21225 
L 79.014411 -84.21225 
L 82.582044 -84.21225 
L 86.149676 -84.21225 
L 89.717308 -84.21225 
L 93.284941 -84.21225 
L 96.852573 -84.21225 
L 100.420205 -101.49225 
L 103.987838 -101.49225 
L 107.55547 -118.77225 
L 111.123103 -84.21225 
L 114.690735 -118.77225 
L 118.258367 -118.77225 
L 121.826 -118.77225 
L 125.393632 -118.77225 
L 128.961264 -118.77225 
L 132.528897 -118.77225 
L 136.096529 -118.77225 
L 139.664161 -118.77225 
L 143.231794 -118.77225 
L 146.799426 -118.77225 
L 150.367059 -118.77225 
L 153.934691 -118.77225 
L 157.502323 -118.77225 
L 161.069956 -118.77225 
L 164.637588 -118.77225 
L 168.20522 -118.77225 
L 171.772853 -118.77225 
L 175.340485 -118.77225 
L 178.908118 -118.77225 
L 182.47575 -118.77225 
L 186.043382 -136.05225 
L 189.611015 -118.77225 
L 193.178647 -118.77225 
L 196.746279 -136.05225 
L 200.313912 -153.33225 
L 203.881544 -153.33225 
L 207.449176 -153.33225 
L 211.016809 -153.33225 
L 214.584441 -153.33225 
L 218.152074 -153.33225 
L 221.719706 -153.33225 
L 225.287338 -153.33225 
L 228.854971 -153.33225 
L 232.422603 -153.33225 
L 235.990235 -153.33225 
L 239.557868 -153.33225 
L 243.1255 -153.33225 
L 246.693132 -153.33225 
L 250.260765 -153.33225 
L 253.828397 -153.33225 
L 257.39603 -153.33225 
L 260.963662 -153.33225 
L 264.531294 -153.33225 
L 268.098927 -153.33225 
L 271.666559 -153.33225 
L 275.234191 -153.33225 
L 278.801824 -153.33225 
L 282.369456 -153.33225 
L 285.937089 -153.33225 
L 289.504721 -153.33225 
L 293.072353 -153.33225 
L 296.639986 -153.33225 
L 300.207618 -153.33225 
L 303.77525 -153.33225 
L 307.342883 -153.33225 
L 310.910515 -153.33225 
L 314.478147 -153.33225 
L 318.04578 -153.33225 
L 321.613412 -153.33225 
L 325.181045 -153.33225 
L 328.748677 -153.33225 
L 332.316309 -153.33225 
L 335.883942 -153.33225 
L 339.451574 -153.33225 
L 343.019206 -153.33225 
L 346.586839 -153.33225 
L 350.154471 -153.33225 
L 353.722104 -153.33225 
L 357.289736 -153.33225 
L 360.857368 -187.46025 
L 364.425001 -187.89225 
L 367.992633 -187.89225 
L 371.560265 -170.61225 
L 375.127898 -187.89225 
L 375.127898 -257.01225 
L 375.127898 -257.01225 
L 371.560265 -257.01225 
L 367.992633 -257.01225 
L 364.425001 -257.01225 
L 360.857368 -257.01225 
L 357.289736 -257.01225 
L 353.722104 -257.01225 
L 350.154471 -257.01225 
L 346.586839 -257.01225 
L 343.019206 -257.01225 
L 339.451574 -257.01225 
L 335.883942 -257.01225 
L 332.316309 -257.01225 
L 328.748677 -257.01225 
L 325.181045 -257.01225 
L 321.613412 -257.01225 
L 318.04578 -257.01225 
L 314.478147 -257.01225 
L 310.910515 -257.01225 
L 307.342883 -257.01225 
L 303.77525 -257.01225 
L 300.207618 -257.01225 
L 296.639986 -257.01225 
L 293.072353 -239.73225 
L 289.504721 -257.01225 
L 285.937089 -257.01225 
L 282.369456 -257.01225 
L 278.801824 -239.73225 
L 275.234191 -257.01225 
L 271.666559 -257.01225 
L 268.098927 -222.45225 
L 264.531294 -222.45225 
L 260.963662 -222.45225 
L 257.39603 -222.45225 
L 253.828397 -222.45225 
L 250.260765 -222.45225 
L 246.693132 -205.17225 
L 243.1255 -205.17225 
L 239.557868 -205.17225 
L 235.990235 -187.89225 
L 232.422603 -187.89225 
L 228.854971 -187.89225 
L 225.287338 -187.89225 
L 221.719706 -187.89225 
L 218.152074 -187.89225 
L 214.584441 -187.89225 
L 211.016809 -187.89225 
L 207.449176 -187.89225 
L 203.881544 -153.33225 
L 200.313912 -187.89225 
L 196.746279 -187.89225 
L 193.178647 -187.89225 
L 189.611015 -153.33225 
L 186.043382 -170.61225 
L 182.47575 -170.61225 
L 178.908118 -153.33225 
L 175.340485 -153.33225 
L 171.772853 -170.61225 
L 168.20522 -170.61225 
L 164.637588 -153.33225 
L 161.069956 -153.33225 
L 157.502323 -153.33225 
L 153.934691 -153.33225 
L 150.367059 -153.33225 
L 146.799426 -153.33225 
L 143.231794 -153.33225 
L 139.664161 -153.33225 
L 136.096529 -153.33225 
L 132.528897 -153.33225 
L 128.961264 -153.33225 
L 125.393632 -153.33225 
L 121.826 -153.33225 
L 118.258367 -153.33225 
L 114.690735 -153.33225 
L 111.123103 -153.33225 
L 107.55547 -153.33225 
L 103.987838 -153.33225 
L 100.420205 -153.33225 
L 96.852573 -153.33225 
L 93.284941 -153.33225 
L 89.717308 -153.33225 
L 86.149676 -136.05225 
L 82.582044 -118.77225 
L 79.014411 -118.77225 
L 75.446779 -118.77225 
L 71.879146 -118.77225 
L 68.311514 -118.77225 
L 64.743882 -84.21225 
L 61.176249 -84.21225 
L 57.608617 -84.21225 
L 54.040985 -84.21225 
L 50.473352 -49.65225 
z
" id="mc49a1aadb3" style="stroke:#98df8a;stroke-opacity:0.2;"/>
    </defs>
    <g clip-path="url(#pdcfc236b1c)">
     <use style="fill:#98df8a;fill-opacity:0.2;stroke:#98df8a;stroke-opacity:0.2;" x="0" xlink:href="#mc49a1aadb3" y="325.986375"/>
    </g>
   </g>
   <g id="matplotlib.axis_1">
    <g id="xtick_1">
     <g id="line2d_1">
      <defs>
       <path d="M 0 0 
L 0 3.5 
" id="m88750e26d3" style="stroke:#000000;stroke-width:0.8;"/>
      </defs>
      <g>
       <use style="stroke:#000000;stroke-width:0.8;" x="50.473352" xlink:href="#m88750e26d3" y="288.430125"/>
      </g>
     </g>
     <g id="text_1">
      <!-- 15m -->
      <g transform="translate(39.24054 303.028562)scale(0.1 -0.1)">
       <defs>
        <path d="M 794 531 
L 1825 531 
L 1825 4091 
L 703 3866 
L 703 4441 
L 1819 4666 
L 2450 4666 
L 2450 531 
L 3481 531 
L 3481 0 
L 794 0 
L 794 531 
z
" id="DejaVuSans-31" transform="scale(0.015625)"/>
        <path d="M 691 4666 
L 3169 4666 
L 3169 4134 
L 1269 4134 
L 1269 2991 
Q 1406 3038 1543 3061 
Q 1681 3084 1819 3084 
Q 2600 3084 3056 2656 
Q 3513 2228 3513 1497 
Q 3513 744 3044 326 
Q 2575 -91 1722 -91 
Q 1428 -91 1123 -41 
Q 819 9 494 109 
L 494 744 
Q 775 591 1075 516 
Q 1375 441 1709 441 
Q 2250 441 2565 725 
Q 2881 1009 2881 1497 
Q 2881 1984 2565 2268 
Q 2250 2553 1709 2553 
Q 1456 2553 1204 2497 
Q 953 2441 691 2322 
L 691 4666 
z
" id="DejaVuSans-35" transform="scale(0.015625)"/>
        <path d="M 3328 2828 
Q 3544 3216 3844 3400 
Q 4144 3584 4550 3584 
Q 5097 3584 5394 3201 
Q 5691 2819 5691 2113 
L 5691 0 
L 5113 0 
L 5113 2094 
Q 5113 2597 4934 2840 
Q 4756 3084 4391 3084 
Q 3944 3084 3684 2787 
Q 3425 2491 3425 1978 
L 3425 0 
L 2847 0 
L 2847 2094 
Q 2847 2600 2669 2842 
Q 2491 3084 2119 3084 
Q 1678 3084 1418 2786 
Q 1159 2488 1159 1978 
L 1159 0 
L 581 0 
L 581 3500 
L 1159 3500 
L 1159 2956 
Q 1356 3278 1631 3431 
Q 1906 3584 2284 3584 
Q 2666 3584 2933 3390 
Q 3200 3197 3328 2828 
z
" id="DejaVuSans-6d" transform="scale(0.015625)"/>
       </defs>
       <use xlink:href="#DejaVuSans-31"/>
       <use x="63.623047" xlink:href="#DejaVuSans-35"/>
       <use x="127.246094" xlink:href="#DejaVuSans-6d"/>
      </g>
     </g>
    </g>
    <g id="xtick_2">
     <g id="line2d_2">
      <g>
       <use style="stroke:#000000;stroke-width:0.8;" x="105.177049" xlink:href="#m88750e26d3" y="288.430125"/>
      </g>
     </g>
     <g id="text_2">
      <!-- 4h:5m -->
      <g transform="translate(89.091111 303.028562)scale(0.1 -0.1)">
       <defs>
        <path d="M 2419 4116 
L 825 1625 
L 2419 1625 
L 2419 4116 
z
M 2253 4666 
L 3047 4666 
L 3047 1625 
L 3713 1625 
L 3713 1100 
L 3047 1100 
L 3047 0 
L 2419 0 
L 2419 1100 
L 313 1100 
L 313 1709 
L 2253 4666 
z
" id="DejaVuSans-34" transform="scale(0.015625)"/>
        <path d="M 3513 2113 
L 3513 0 
L 2938 0 
L 2938 2094 
Q 2938 2591 2744 2837 
Q 2550 3084 2163 3084 
Q 1697 3084 1428 2787 
Q 1159 2491 1159 1978 
L 1159 0 
L 581 0 
L 581 4863 
L 1159 4863 
L 1159 2956 
Q 1366 3272 1645 3428 
Q 1925 3584 2291 3584 
Q 2894 3584 3203 3211 
Q 3513 2838 3513 2113 
z
" id="DejaVuSans-68" transform="scale(0.015625)"/>
        <path d="M 750 794 
L 1409 794 
L 1409 0 
L 750 0 
L 750 794 
z
M 750 3309 
L 1409 3309 
L 1409 2516 
L 750 2516 
L 750 3309 
z
" id="DejaVuSans-3a" transform="scale(0.015625)"/>
       </defs>
       <use xlink:href="#DejaVuSans-34"/>
       <use x="63.623047" xlink:href="#DejaVuSans-68"/>
       <use x="127.001953" xlink:href="#DejaVuSans-3a"/>
       <use x="160.693359" xlink:href="#DejaVuSans-35"/>
       <use x="224.316406" xlink:href="#DejaVuSans-6d"/>
      </g>
     </g>
    </g>
    <g id="xtick_3">
     <g id="line2d_3">
      <g>
       <use style="stroke:#000000;stroke-width:0.8;" x="159.880745" xlink:href="#m88750e26d3" y="288.430125"/>
      </g>
     </g>
     <g id="text_3">
      <!-- 7h:55m -->
      <g transform="translate(140.613557 303.028562)scale(0.1 -0.1)">
       <defs>
        <path d="M 525 4666 
L 3525 4666 
L 3525 4397 
L 1831 0 
L 1172 0 
L 2766 4134 
L 525 4134 
L 525 4666 
z
" id="DejaVuSans-37" transform="scale(0.015625)"/>
       </defs>
       <use xlink:href="#DejaVuSans-37"/>
       <use x="63.623047" xlink:href="#DejaVuSans-68"/>
       <use x="127.001953" xlink:href="#DejaVuSans-3a"/>
       <use x="160.693359" xlink:href="#DejaVuSans-35"/>
       <use x="224.316406" xlink:href="#DejaVuSans-35"/>
       <use x="287.939453" xlink:href="#DejaVuSans-6d"/>
      </g>
     </g>
    </g>
    <g id="xtick_4">
     <g id="line2d_4">
      <g>
       <use style="stroke:#000000;stroke-width:0.8;" x="214.584441" xlink:href="#m88750e26d3" y="288.430125"/>
      </g>
     </g>
     <g id="text_4">
      <!-- 11h:45m -->
      <g transform="translate(192.136004 303.028562)scale(0.1 -0.1)">
       <use xlink:href="#DejaVuSans-31"/>
       <use x="63.623047" xlink:href="#DejaVuSans-31"/>
       <use x="127.246094" xlink:href="#DejaVuSans-68"/>
       <use x="190.625" xlink:href="#DejaVuSans-3a"/>
       <use x="224.316406" xlink:href="#DejaVuSans-34"/>
       <use x="287.939453" xlink:href="#DejaVuSans-35"/>
       <use x="351.5625" xlink:href="#DejaVuSans-6d"/>
      </g>
     </g>
    </g>
    <g id="xtick_5">
     <g id="line2d_5">
      <g>
       <use style="stroke:#000000;stroke-width:0.8;" x="269.288137" xlink:href="#m88750e26d3" y="288.430125"/>
      </g>
     </g>
     <g id="text_5">
      <!-- 15h:35m -->
      <g transform="translate(246.8397 303.028562)scale(0.1 -0.1)">
       <defs>
        <path d="M 2597 2516 
Q 3050 2419 3304 2112 
Q 3559 1806 3559 1356 
Q 3559 666 3084 287 
Q 2609 -91 1734 -91 
Q 1441 -91 1130 -33 
Q 819 25 488 141 
L 488 750 
Q 750 597 1062 519 
Q 1375 441 1716 441 
Q 2309 441 2620 675 
Q 2931 909 2931 1356 
Q 2931 1769 2642 2001 
Q 2353 2234 1838 2234 
L 1294 2234 
L 1294 2753 
L 1863 2753 
Q 2328 2753 2575 2939 
Q 2822 3125 2822 3475 
Q 2822 3834 2567 4026 
Q 2313 4219 1838 4219 
Q 1578 4219 1281 4162 
Q 984 4106 628 3988 
L 628 4550 
Q 988 4650 1302 4700 
Q 1616 4750 1894 4750 
Q 2613 4750 3031 4423 
Q 3450 4097 3450 3541 
Q 3450 3153 3228 2886 
Q 3006 2619 2597 2516 
z
" id="DejaVuSans-33" transform="scale(0.015625)"/>
       </defs>
       <use xlink:href="#DejaVuSans-31"/>
       <use x="63.623047" xlink:href="#DejaVuSans-35"/>
       <use x="127.246094" xlink:href="#DejaVuSans-68"/>
       <use x="190.625" xlink:href="#DejaVuSans-3a"/>
       <use x="224.316406" xlink:href="#DejaVuSans-33"/>
       <use x="287.939453" xlink:href="#DejaVuSans-35"/>
       <use x="351.5625" xlink:href="#DejaVuSans-6d"/>
      </g>
     </g>
    </g>
    <g id="xtick_6">
     <g id="line2d_6">
      <g>
       <use style="stroke:#000000;stroke-width:0.8;" x="323.991834" xlink:href="#m88750e26d3" y="288.430125"/>
      </g>
     </g>
     <g id="text_6">
      <!-- 19h:25m -->
      <g transform="translate(301.543396 303.028562)scale(0.1 -0.1)">
       <defs>
        <path d="M 703 97 
L 703 672 
Q 941 559 1184 500 
Q 1428 441 1663 441 
Q 2288 441 2617 861 
Q 2947 1281 2994 2138 
Q 2813 1869 2534 1725 
Q 2256 1581 1919 1581 
Q 1219 1581 811 2004 
Q 403 2428 403 3163 
Q 403 3881 828 4315 
Q 1253 4750 1959 4750 
Q 2769 4750 3195 4129 
Q 3622 3509 3622 2328 
Q 3622 1225 3098 567 
Q 2575 -91 1691 -91 
Q 1453 -91 1209 -44 
Q 966 3 703 97 
z
M 1959 2075 
Q 2384 2075 2632 2365 
Q 2881 2656 2881 3163 
Q 2881 3666 2632 3958 
Q 2384 4250 1959 4250 
Q 1534 4250 1286 3958 
Q 1038 3666 1038 3163 
Q 1038 2656 1286 2365 
Q 1534 2075 1959 2075 
z
" id="DejaVuSans-39" transform="scale(0.015625)"/>
        <path d="M 1228 531 
L 3431 531 
L 3431 0 
L 469 0 
L 469 531 
Q 828 903 1448 1529 
Q 2069 2156 2228 2338 
Q 2531 2678 2651 2914 
Q 2772 3150 2772 3378 
Q 2772 3750 2511 3984 
Q 2250 4219 1831 4219 
Q 1534 4219 1204 4116 
Q 875 4013 500 3803 
L 500 4441 
Q 881 4594 1212 4672 
Q 1544 4750 1819 4750 
Q 2544 4750 2975 4387 
Q 3406 4025 3406 3419 
Q 3406 3131 3298 2873 
Q 3191 2616 2906 2266 
Q 2828 2175 2409 1742 
Q 1991 1309 1228 531 
z
" id="DejaVuSans-32" transform="scale(0.015625)"/>
       </defs>
       <use xlink:href="#DejaVuSans-31"/>
       <use x="63.623047" xlink:href="#DejaVuSans-39"/>
       <use x="127.246094" xlink:href="#DejaVuSans-68"/>
       <use x="190.625" xlink:href="#DejaVuSans-3a"/>
       <use x="224.316406" xlink:href="#DejaVuSans-32"/>
       <use x="287.939453" xlink:href="#DejaVuSans-35"/>
       <use x="351.5625" xlink:href="#DejaVuSans-6d"/>
      </g>
     </g>
    </g>
    <g id="text_7">
     <!-- Time (hour:minute) -->
     <g transform="translate(164.393594 316.706687)scale(0.1 -0.1)">
      <defs>
       <path d="M -19 4666 
L 3928 4666 
L 3928 4134 
L 2272 4134 
L 2272 0 
L 1638 0 
L 1638 4134 
L -19 4134 
L -19 4666 
z
" id="DejaVuSans-54" transform="scale(0.015625)"/>
       <path d="M 603 3500 
L 1178 3500 
L 1178 0 
L 603 0 
L 603 3500 
z
M 603 4863 
L 1178 4863 
L 1178 4134 
L 603 4134 
L 603 4863 
z
" id="DejaVuSans-69" transform="scale(0.015625)"/>
       <path d="M 3597 1894 
L 3597 1613 
L 953 1613 
Q 991 1019 1311 708 
Q 1631 397 2203 397 
Q 2534 397 2845 478 
Q 3156 559 3463 722 
L 3463 178 
Q 3153 47 2828 -22 
Q 2503 -91 2169 -91 
Q 1331 -91 842 396 
Q 353 884 353 1716 
Q 353 2575 817 3079 
Q 1281 3584 2069 3584 
Q 2775 3584 3186 3129 
Q 3597 2675 3597 1894 
z
M 3022 2063 
Q 3016 2534 2758 2815 
Q 2500 3097 2075 3097 
Q 1594 3097 1305 2825 
Q 1016 2553 972 2059 
L 3022 2063 
z
" id="DejaVuSans-65" transform="scale(0.015625)"/>
       <path id="DejaVuSans-20" transform="scale(0.015625)"/>
       <path d="M 1984 4856 
Q 1566 4138 1362 3434 
Q 1159 2731 1159 2009 
Q 1159 1288 1364 580 
Q 1569 -128 1984 -844 
L 1484 -844 
Q 1016 -109 783 600 
Q 550 1309 550 2009 
Q 550 2706 781 3412 
Q 1013 4119 1484 4856 
L 1984 4856 
z
" id="DejaVuSans-28" transform="scale(0.015625)"/>
       <path d="M 1959 3097 
Q 1497 3097 1228 2736 
Q 959 2375 959 1747 
Q 959 1119 1226 758 
Q 1494 397 1959 397 
Q 2419 397 2687 759 
Q 2956 1122 2956 1747 
Q 2956 2369 2687 2733 
Q 2419 3097 1959 3097 
z
M 1959 3584 
Q 2709 3584 3137 3096 
Q 3566 2609 3566 1747 
Q 3566 888 3137 398 
Q 2709 -91 1959 -91 
Q 1206 -91 779 398 
Q 353 888 353 1747 
Q 353 2609 779 3096 
Q 1206 3584 1959 3584 
z
" id="DejaVuSans-6f" transform="scale(0.015625)"/>
       <path d="M 544 1381 
L 544 3500 
L 1119 3500 
L 1119 1403 
Q 1119 906 1312 657 
Q 1506 409 1894 409 
Q 2359 409 2629 706 
Q 2900 1003 2900 1516 
L 2900 3500 
L 3475 3500 
L 3475 0 
L 2900 0 
L 2900 538 
Q 2691 219 2414 64 
Q 2138 -91 1772 -91 
Q 1169 -91 856 284 
Q 544 659 544 1381 
z
M 1991 3584 
L 1991 3584 
z
" id="DejaVuSans-75" transform="scale(0.015625)"/>
       <path d="M 2631 2963 
Q 2534 3019 2420 3045 
Q 2306 3072 2169 3072 
Q 1681 3072 1420 2755 
Q 1159 2438 1159 1844 
L 1159 0 
L 581 0 
L 581 3500 
L 1159 3500 
L 1159 2956 
Q 1341 3275 1631 3429 
Q 1922 3584 2338 3584 
Q 2397 3584 2469 3576 
Q 2541 3569 2628 3553 
L 2631 2963 
z
" id="DejaVuSans-72" transform="scale(0.015625)"/>
       <path d="M 3513 2113 
L 3513 0 
L 2938 0 
L 2938 2094 
Q 2938 2591 2744 2837 
Q 2550 3084 2163 3084 
Q 1697 3084 1428 2787 
Q 1159 2491 1159 1978 
L 1159 0 
L 581 0 
L 581 3500 
L 1159 3500 
L 1159 2956 
Q 1366 3272 1645 3428 
Q 1925 3584 2291 3584 
Q 2894 3584 3203 3211 
Q 3513 2838 3513 2113 
z
" id="DejaVuSans-6e" transform="scale(0.015625)"/>
       <path d="M 1172 4494 
L 1172 3500 
L 2356 3500 
L 2356 3053 
L 1172 3053 
L 1172 1153 
Q 1172 725 1289 603 
Q 1406 481 1766 481 
L 2356 481 
L 2356 0 
L 1766 0 
Q 1100 0 847 248 
Q 594 497 594 1153 
L 594 3053 
L 172 3053 
L 172 3500 
L 594 3500 
L 594 4494 
L 1172 4494 
z
" id="DejaVuSans-74" transform="scale(0.015625)"/>
       <path d="M 513 4856 
L 1013 4856 
Q 1481 4119 1714 3412 
Q 1947 2706 1947 2009 
Q 1947 1309 1714 600 
Q 1481 -109 1013 -844 
L 513 -844 
Q 928 -128 1133 580 
Q 1338 1288 1338 2009 
Q 1338 2731 1133 3434 
Q 928 4138 513 4856 
z
" id="DejaVuSans-29" transform="scale(0.015625)"/>
      </defs>
      <use xlink:href="#DejaVuSans-54"/>
      <use x="57.958984" xlink:href="#DejaVuSans-69"/>
      <use x="85.742188" xlink:href="#DejaVuSans-6d"/>
      <use x="183.154297" xlink:href="#DejaVuSans-65"/>
      <use x="244.677734" xlink:href="#DejaVuSans-20"/>
      <use x="276.464844" xlink:href="#DejaVuSans-28"/>
      <use x="315.478516" xlink:href="#DejaVuSans-68"/>
      <use x="378.857422" xlink:href="#DejaVuSans-6f"/>
      <use x="440.039062" xlink:href="#DejaVuSans-75"/>
      <use x="503.417969" xlink:href="#DejaVuSans-72"/>
      <use x="542.78125" xlink:href="#DejaVuSans-3a"/>
      <use x="576.472656" xlink:href="#DejaVuSans-6d"/>
      <use x="673.884766" xlink:href="#DejaVuSans-69"/>
      <use x="701.667969" xlink:href="#DejaVuSans-6e"/>
      <use x="765.046875" xlink:href="#DejaVuSans-75"/>
      <use x="828.425781" xlink:href="#DejaVuSans-74"/>
      <use x="867.634766" xlink:href="#DejaVuSans-65"/>
      <use x="929.158203" xlink:href="#DejaVuSans-29"/>
     </g>
    </g>
   </g>
   <g id="matplotlib.axis_2">
    <g id="ytick_1">
     <g id="line2d_7">
      <defs>
       <path d="M 0 0 
L -3.5 0 
" id="md6c04fd5be" style="stroke:#000000;stroke-width:0.8;"/>
      </defs>
      <g>
       <use style="stroke:#000000;stroke-width:0.8;" x="34.240625" xlink:href="#md6c04fd5be" y="276.334125"/>
      </g>
     </g>
     <g id="text_8">
      <!-- 1 -->
      <g transform="translate(20.878125 280.133344)scale(0.1 -0.1)">
       <use xlink:href="#DejaVuSans-31"/>
      </g>
     </g>
    </g>
    <g id="ytick_2">
     <g id="line2d_8">
      <g>
       <use style="stroke:#000000;stroke-width:0.8;" x="34.240625" xlink:href="#md6c04fd5be" y="241.774125"/>
      </g>
     </g>
     <g id="text_9">
      <!-- 2 -->
      <g transform="translate(20.878125 245.573344)scale(0.1 -0.1)">
       <use xlink:href="#DejaVuSans-32"/>
      </g>
     </g>
    </g>
    <g id="ytick_3">
     <g id="line2d_9">
      <g>
       <use style="stroke:#000000;stroke-width:0.8;" x="34.240625" xlink:href="#md6c04fd5be" y="207.214125"/>
      </g>
     </g>
     <g id="text_10">
      <!-- 3 -->
      <g transform="translate(20.878125 211.013344)scale(0.1 -0.1)">
       <use xlink:href="#DejaVuSans-33"/>
      </g>
     </g>
    </g>
    <g id="ytick_4">
     <g id="line2d_10">
      <g>
       <use style="stroke:#000000;stroke-width:0.8;" x="34.240625" xlink:href="#md6c04fd5be" y="172.654125"/>
      </g>
     </g>
     <g id="text_11">
      <!-- 4 -->
      <g transform="translate(20.878125 176.453344)scale(0.1 -0.1)">
       <use xlink:href="#DejaVuSans-34"/>
      </g>
     </g>
    </g>
    <g id="ytick_5">
     <g id="line2d_11">
      <g>
       <use style="stroke:#000000;stroke-width:0.8;" x="34.240625" xlink:href="#md6c04fd5be" y="138.094125"/>
      </g>
     </g>
     <g id="text_12">
      <!-- 5 -->
      <g transform="translate(20.878125 141.893344)scale(0.1 -0.1)">
       <use xlink:href="#DejaVuSans-35"/>
      </g>
     </g>
    </g>
    <g id="ytick_6">
     <g id="line2d_12">
      <g>
       <use style="stroke:#000000;stroke-width:0.8;" x="34.240625" xlink:href="#md6c04fd5be" y="103.534125"/>
      </g>
     </g>
     <g id="text_13">
      <!-- 6 -->
      <g transform="translate(20.878125 107.333344)scale(0.1 -0.1)">
       <defs>
        <path d="M 2113 2584 
Q 1688 2584 1439 2293 
Q 1191 2003 1191 1497 
Q 1191 994 1439 701 
Q 1688 409 2113 409 
Q 2538 409 2786 701 
Q 3034 994 3034 1497 
Q 3034 2003 2786 2293 
Q 2538 2584 2113 2584 
z
M 3366 4563 
L 3366 3988 
Q 3128 4100 2886 4159 
Q 2644 4219 2406 4219 
Q 1781 4219 1451 3797 
Q 1122 3375 1075 2522 
Q 1259 2794 1537 2939 
Q 1816 3084 2150 3084 
Q 2853 3084 3261 2657 
Q 3669 2231 3669 1497 
Q 3669 778 3244 343 
Q 2819 -91 2113 -91 
Q 1303 -91 875 529 
Q 447 1150 447 2328 
Q 447 3434 972 4092 
Q 1497 4750 2381 4750 
Q 2619 4750 2861 4703 
Q 3103 4656 3366 4563 
z
" id="DejaVuSans-36" transform="scale(0.015625)"/>
       </defs>
       <use xlink:href="#DejaVuSans-36"/>
      </g>
     </g>
    </g>
    <g id="ytick_7">
     <g id="line2d_13">
      <g>
       <use style="stroke:#000000;stroke-width:0.8;" x="34.240625" xlink:href="#md6c04fd5be" y="68.974125"/>
      </g>
     </g>
     <g id="text_14">
      <!-- 7 -->
      <g transform="translate(20.878125 72.773344)scale(0.1 -0.1)">
       <use xlink:href="#DejaVuSans-37"/>
      </g>
     </g>
    </g>
    <g id="ytick_8">
     <g id="line2d_14">
      <g>
       <use style="stroke:#000000;stroke-width:0.8;" x="34.240625" xlink:href="#md6c04fd5be" y="34.414125"/>
      </g>
     </g>
     <g id="text_15">
      <!-- 8 -->
      <g transform="translate(20.878125 38.213344)scale(0.1 -0.1)">
       <defs>
        <path d="M 2034 2216 
Q 1584 2216 1326 1975 
Q 1069 1734 1069 1313 
Q 1069 891 1326 650 
Q 1584 409 2034 409 
Q 2484 409 2743 651 
Q 3003 894 3003 1313 
Q 3003 1734 2745 1975 
Q 2488 2216 2034 2216 
z
M 1403 2484 
Q 997 2584 770 2862 
Q 544 3141 544 3541 
Q 544 4100 942 4425 
Q 1341 4750 2034 4750 
Q 2731 4750 3128 4425 
Q 3525 4100 3525 3541 
Q 3525 3141 3298 2862 
Q 3072 2584 2669 2484 
Q 3125 2378 3379 2068 
Q 3634 1759 3634 1313 
Q 3634 634 3220 271 
Q 2806 -91 2034 -91 
Q 1263 -91 848 271 
Q 434 634 434 1313 
Q 434 1759 690 2068 
Q 947 2378 1403 2484 
z
M 1172 3481 
Q 1172 3119 1398 2916 
Q 1625 2713 2034 2713 
Q 2441 2713 2670 2916 
Q 2900 3119 2900 3481 
Q 2900 3844 2670 4047 
Q 2441 4250 2034 4250 
Q 1625 4250 1398 4047 
Q 1172 3844 1172 3481 
z
" id="DejaVuSans-38" transform="scale(0.015625)"/>
       </defs>
       <use xlink:href="#DejaVuSans-38"/>
      </g>
     </g>
    </g>
    <g id="text_16">
     <!-- Bug coverage -->
     <g transform="translate(14.798438 189.951469)rotate(-90)scale(0.1 -0.1)">
      <defs>
       <path d="M 1259 2228 
L 1259 519 
L 2272 519 
Q 2781 519 3026 730 
Q 3272 941 3272 1375 
Q 3272 1813 3026 2020 
Q 2781 2228 2272 2228 
L 1259 2228 
z
M 1259 4147 
L 1259 2741 
L 2194 2741 
Q 2656 2741 2882 2914 
Q 3109 3088 3109 3444 
Q 3109 3797 2882 3972 
Q 2656 4147 2194 4147 
L 1259 4147 
z
M 628 4666 
L 2241 4666 
Q 2963 4666 3353 4366 
Q 3744 4066 3744 3513 
Q 3744 3084 3544 2831 
Q 3344 2578 2956 2516 
Q 3422 2416 3680 2098 
Q 3938 1781 3938 1306 
Q 3938 681 3513 340 
Q 3088 0 2303 0 
L 628 0 
L 628 4666 
z
" id="DejaVuSans-42" transform="scale(0.015625)"/>
       <path d="M 2906 1791 
Q 2906 2416 2648 2759 
Q 2391 3103 1925 3103 
Q 1463 3103 1205 2759 
Q 947 2416 947 1791 
Q 947 1169 1205 825 
Q 1463 481 1925 481 
Q 2391 481 2648 825 
Q 2906 1169 2906 1791 
z
M 3481 434 
Q 3481 -459 3084 -895 
Q 2688 -1331 1869 -1331 
Q 1566 -1331 1297 -1286 
Q 1028 -1241 775 -1147 
L 775 -588 
Q 1028 -725 1275 -790 
Q 1522 -856 1778 -856 
Q 2344 -856 2625 -561 
Q 2906 -266 2906 331 
L 2906 616 
Q 2728 306 2450 153 
Q 2172 0 1784 0 
Q 1141 0 747 490 
Q 353 981 353 1791 
Q 353 2603 747 3093 
Q 1141 3584 1784 3584 
Q 2172 3584 2450 3431 
Q 2728 3278 2906 2969 
L 2906 3500 
L 3481 3500 
L 3481 434 
z
" id="DejaVuSans-67" transform="scale(0.015625)"/>
       <path d="M 3122 3366 
L 3122 2828 
Q 2878 2963 2633 3030 
Q 2388 3097 2138 3097 
Q 1578 3097 1268 2742 
Q 959 2388 959 1747 
Q 959 1106 1268 751 
Q 1578 397 2138 397 
Q 2388 397 2633 464 
Q 2878 531 3122 666 
L 3122 134 
Q 2881 22 2623 -34 
Q 2366 -91 2075 -91 
Q 1284 -91 818 406 
Q 353 903 353 1747 
Q 353 2603 823 3093 
Q 1294 3584 2113 3584 
Q 2378 3584 2631 3529 
Q 2884 3475 3122 3366 
z
" id="DejaVuSans-63" transform="scale(0.015625)"/>
       <path d="M 191 3500 
L 800 3500 
L 1894 563 
L 2988 3500 
L 3597 3500 
L 2284 0 
L 1503 0 
L 191 3500 
z
" id="DejaVuSans-76" transform="scale(0.015625)"/>
       <path d="M 2194 1759 
Q 1497 1759 1228 1600 
Q 959 1441 959 1056 
Q 959 750 1161 570 
Q 1363 391 1709 391 
Q 2188 391 2477 730 
Q 2766 1069 2766 1631 
L 2766 1759 
L 2194 1759 
z
M 3341 1997 
L 3341 0 
L 2766 0 
L 2766 531 
Q 2569 213 2275 61 
Q 1981 -91 1556 -91 
Q 1019 -91 701 211 
Q 384 513 384 1019 
Q 384 1609 779 1909 
Q 1175 2209 1959 2209 
L 2766 2209 
L 2766 2266 
Q 2766 2663 2505 2880 
Q 2244 3097 1772 3097 
Q 1472 3097 1187 3025 
Q 903 2953 641 2809 
L 641 3341 
Q 956 3463 1253 3523 
Q 1550 3584 1831 3584 
Q 2591 3584 2966 3190 
Q 3341 2797 3341 1997 
z
" id="DejaVuSans-61" transform="scale(0.015625)"/>
      </defs>
      <use xlink:href="#DejaVuSans-42"/>
      <use x="68.603516" xlink:href="#DejaVuSans-75"/>
      <use x="131.982422" xlink:href="#DejaVuSans-67"/>
      <use x="195.458984" xlink:href="#DejaVuSans-20"/>
      <use x="227.246094" xlink:href="#DejaVuSans-63"/>
      <use x="282.226562" xlink:href="#DejaVuSans-6f"/>
      <use x="343.408203" xlink:href="#DejaVuSans-76"/>
      <use x="402.587891" xlink:href="#DejaVuSans-65"/>
      <use x="464.111328" xlink:href="#DejaVuSans-72"/>
      <use x="505.224609" xlink:href="#DejaVuSans-61"/>
      <use x="566.503906" xlink:href="#DejaVuSans-67"/>
      <use x="629.980469" xlink:href="#DejaVuSans-65"/>
     </g>
    </g>
   </g>
   <g id="line2d_15">
    <path clip-path="url(#pdcfc236b1c)" d="M 50.473352 276.334125 
L 54.040985 276.334125 
L 57.608617 259.054125 
L 61.176249 241.774125 
L 64.743882 241.774125 
L 68.311514 207.214125 
L 71.879146 207.214125 
L 75.446779 207.214125 
L 79.014411 207.214125 
L 82.582044 207.214125 
L 86.149676 207.214125 
L 89.717308 207.214125 
L 93.284941 207.214125 
L 96.852573 207.214125 
L 100.420205 172.654125 
L 103.987838 172.654125 
L 107.55547 172.654125 
L 111.123103 172.654125 
L 114.690735 172.654125 
L 118.258367 172.654125 
L 121.826 172.654125 
L 125.393632 172.654125 
L 128.961264 172.654125 
L 132.528897 172.654125 
L 136.096529 155.374125 
L 139.664161 155.374125 
L 143.231794 138.094125 
L 146.799426 138.094125 
L 150.367059 138.094125 
L 153.934691 138.094125 
L 157.502323 138.094125 
L 161.069956 138.094125 
L 164.637588 138.094125 
L 168.20522 138.094125 
L 171.772853 138.094125 
L 175.340485 138.094125 
L 178.908118 138.094125 
L 182.47575 138.094125 
L 186.043382 138.094125 
L 189.611015 138.094125 
L 193.178647 138.094125 
L 196.746279 138.094125 
L 200.313912 138.094125 
L 203.881544 138.094125 
L 207.449176 138.094125 
L 211.016809 138.094125 
L 214.584441 138.094125 
L 218.152074 138.094125 
L 221.719706 138.094125 
L 225.287338 138.094125 
L 228.854971 138.094125 
L 232.422603 138.094125 
L 235.990235 138.094125 
L 239.557868 138.094125 
L 243.1255 138.094125 
L 246.693132 138.094125 
L 250.260765 120.814125 
L 253.828397 120.814125 
L 257.39603 103.534125 
L 260.963662 103.534125 
L 264.531294 103.534125 
L 268.098927 103.534125 
L 271.666559 103.534125 
L 275.234191 103.534125 
L 278.801824 103.534125 
L 282.369456 86.254125 
L 285.937089 86.254125 
L 289.504721 86.254125 
L 293.072353 86.254125 
L 296.639986 86.254125 
L 300.207618 86.254125 
L 303.77525 86.254125 
L 307.342883 86.254125 
L 310.910515 86.254125 
L 314.478147 86.254125 
L 318.04578 86.254125 
L 321.613412 86.254125 
L 325.181045 86.254125 
L 328.748677 86.254125 
L 332.316309 86.254125 
L 335.883942 68.974125 
L 339.451574 68.974125 
L 343.019206 68.974125 
L 346.586839 68.974125 
L 350.154471 68.974125 
L 353.722104 68.974125 
L 357.289736 68.974125 
L 360.857368 68.974125 
L 364.425001 68.974125 
L 367.992633 68.974125 
L 371.560265 68.974125 
L 375.127898 68.974125 
" style="fill:none;stroke:#1f77b4;stroke-linecap:square;stroke-width:1.5;"/>
    <defs>
     <path d="M 0 3 
C 0.795609 3 1.55874 2.683901 2.12132 2.12132 
C 2.683901 1.55874 3 0.795609 3 0 
C 3 -0.795609 2.683901 -1.55874 2.12132 -2.12132 
C 1.55874 -2.683901 0.795609 -3 0 -3 
C -0.795609 -3 -1.55874 -2.683901 -2.12132 -2.12132 
C -2.683901 -1.55874 -3 -0.795609 -3 0 
C -3 0.795609 -2.683901 1.55874 -2.12132 2.12132 
C -1.55874 2.683901 -0.795609 3 0 3 
z
" id="m4505d2241b" style="stroke:#ffffff;stroke-width:0.75;"/>
    </defs>
    <g clip-path="url(#pdcfc236b1c)">
     <use style="fill:#1f77b4;stroke:#ffffff;stroke-width:0.75;" x="50.473352" xlink:href="#m4505d2241b" y="276.334125"/>
     <use style="fill:#1f77b4;stroke:#ffffff;stroke-width:0.75;" x="54.040985" xlink:href="#m4505d2241b" y="276.334125"/>
     <use style="fill:#1f77b4;stroke:#ffffff;stroke-width:0.75;" x="57.608617" xlink:href="#m4505d2241b" y="259.054125"/>
     <use style="fill:#1f77b4;stroke:#ffffff;stroke-width:0.75;" x="61.176249" xlink:href="#m4505d2241b" y="241.774125"/>
     <use style="fill:#1f77b4;stroke:#ffffff;stroke-width:0.75;" x="64.743882" xlink:href="#m4505d2241b" y="241.774125"/>
     <use style="fill:#1f77b4;stroke:#ffffff;stroke-width:0.75;" x="68.311514" xlink:href="#m4505d2241b" y="207.214125"/>
     <use style="fill:#1f77b4;stroke:#ffffff;stroke-width:0.75;" x="71.879146" xlink:href="#m4505d2241b" y="207.214125"/>
     <use style="fill:#1f77b4;stroke:#ffffff;stroke-width:0.75;" x="75.446779" xlink:href="#m4505d2241b" y="207.214125"/>
     <use style="fill:#1f77b4;stroke:#ffffff;stroke-width:0.75;" x="79.014411" xlink:href="#m4505d2241b" y="207.214125"/>
     <use style="fill:#1f77b4;stroke:#ffffff;stroke-width:0.75;" x="82.582044" xlink:href="#m4505d2241b" y="207.214125"/>
     <use style="fill:#1f77b4;stroke:#ffffff;stroke-width:0.75;" x="86.149676" xlink:href="#m4505d2241b" y="207.214125"/>
     <use style="fill:#1f77b4;stroke:#ffffff;stroke-width:0.75;" x="89.717308" xlink:href="#m4505d2241b" y="207.214125"/>
     <use style="fill:#1f77b4;stroke:#ffffff;stroke-width:0.75;" x="93.284941" xlink:href="#m4505d2241b" y="207.214125"/>
     <use style="fill:#1f77b4;stroke:#ffffff;stroke-width:0.75;" x="96.852573" xlink:href="#m4505d2241b" y="207.214125"/>
     <use style="fill:#1f77b4;stroke:#ffffff;stroke-width:0.75;" x="100.420205" xlink:href="#m4505d2241b" y="172.654125"/>
     <use style="fill:#1f77b4;stroke:#ffffff;stroke-width:0.75;" x="103.987838" xlink:href="#m4505d2241b" y="172.654125"/>
     <use style="fill:#1f77b4;stroke:#ffffff;stroke-width:0.75;" x="107.55547" xlink:href="#m4505d2241b" y="172.654125"/>
     <use style="fill:#1f77b4;stroke:#ffffff;stroke-width:0.75;" x="111.123103" xlink:href="#m4505d2241b" y="172.654125"/>
     <use style="fill:#1f77b4;stroke:#ffffff;stroke-width:0.75;" x="114.690735" xlink:href="#m4505d2241b" y="172.654125"/>
     <use style="fill:#1f77b4;stroke:#ffffff;stroke-width:0.75;" x="118.258367" xlink:href="#m4505d2241b" y="172.654125"/>
     <use style="fill:#1f77b4;stroke:#ffffff;stroke-width:0.75;" x="121.826" xlink:href="#m4505d2241b" y="172.654125"/>
     <use style="fill:#1f77b4;stroke:#ffffff;stroke-width:0.75;" x="125.393632" xlink:href="#m4505d2241b" y="172.654125"/>
     <use style="fill:#1f77b4;stroke:#ffffff;stroke-width:0.75;" x="128.961264" xlink:href="#m4505d2241b" y="172.654125"/>
     <use style="fill:#1f77b4;stroke:#ffffff;stroke-width:0.75;" x="132.528897" xlink:href="#m4505d2241b" y="172.654125"/>
     <use style="fill:#1f77b4;stroke:#ffffff;stroke-width:0.75;" x="136.096529" xlink:href="#m4505d2241b" y="155.374125"/>
     <use style="fill:#1f77b4;stroke:#ffffff;stroke-width:0.75;" x="139.664161" xlink:href="#m4505d2241b" y="155.374125"/>
     <use style="fill:#1f77b4;stroke:#ffffff;stroke-width:0.75;" x="143.231794" xlink:href="#m4505d2241b" y="138.094125"/>
     <use style="fill:#1f77b4;stroke:#ffffff;stroke-width:0.75;" x="146.799426" xlink:href="#m4505d2241b" y="138.094125"/>
     <use style="fill:#1f77b4;stroke:#ffffff;stroke-width:0.75;" x="150.367059" xlink:href="#m4505d2241b" y="138.094125"/>
     <use style="fill:#1f77b4;stroke:#ffffff;stroke-width:0.75;" x="153.934691" xlink:href="#m4505d2241b" y="138.094125"/>
     <use style="fill:#1f77b4;stroke:#ffffff;stroke-width:0.75;" x="157.502323" xlink:href="#m4505d2241b" y="138.094125"/>
     <use style="fill:#1f77b4;stroke:#ffffff;stroke-width:0.75;" x="161.069956" xlink:href="#m4505d2241b" y="138.094125"/>
     <use style="fill:#1f77b4;stroke:#ffffff;stroke-width:0.75;" x="164.637588" xlink:href="#m4505d2241b" y="138.094125"/>
     <use style="fill:#1f77b4;stroke:#ffffff;stroke-width:0.75;" x="168.20522" xlink:href="#m4505d2241b" y="138.094125"/>
     <use style="fill:#1f77b4;stroke:#ffffff;stroke-width:0.75;" x="171.772853" xlink:href="#m4505d2241b" y="138.094125"/>
     <use style="fill:#1f77b4;stroke:#ffffff;stroke-width:0.75;" x="175.340485" xlink:href="#m4505d2241b" y="138.094125"/>
     <use style="fill:#1f77b4;stroke:#ffffff;stroke-width:0.75;" x="178.908118" xlink:href="#m4505d2241b" y="138.094125"/>
     <use style="fill:#1f77b4;stroke:#ffffff;stroke-width:0.75;" x="182.47575" xlink:href="#m4505d2241b" y="138.094125"/>
     <use style="fill:#1f77b4;stroke:#ffffff;stroke-width:0.75;" x="186.043382" xlink:href="#m4505d2241b" y="138.094125"/>
     <use style="fill:#1f77b4;stroke:#ffffff;stroke-width:0.75;" x="189.611015" xlink:href="#m4505d2241b" y="138.094125"/>
     <use style="fill:#1f77b4;stroke:#ffffff;stroke-width:0.75;" x="193.178647" xlink:href="#m4505d2241b" y="138.094125"/>
     <use style="fill:#1f77b4;stroke:#ffffff;stroke-width:0.75;" x="196.746279" xlink:href="#m4505d2241b" y="138.094125"/>
     <use style="fill:#1f77b4;stroke:#ffffff;stroke-width:0.75;" x="200.313912" xlink:href="#m4505d2241b" y="138.094125"/>
     <use style="fill:#1f77b4;stroke:#ffffff;stroke-width:0.75;" x="203.881544" xlink:href="#m4505d2241b" y="138.094125"/>
     <use style="fill:#1f77b4;stroke:#ffffff;stroke-width:0.75;" x="207.449176" xlink:href="#m4505d2241b" y="138.094125"/>
     <use style="fill:#1f77b4;stroke:#ffffff;stroke-width:0.75;" x="211.016809" xlink:href="#m4505d2241b" y="138.094125"/>
     <use style="fill:#1f77b4;stroke:#ffffff;stroke-width:0.75;" x="214.584441" xlink:href="#m4505d2241b" y="138.094125"/>
     <use style="fill:#1f77b4;stroke:#ffffff;stroke-width:0.75;" x="218.152074" xlink:href="#m4505d2241b" y="138.094125"/>
     <use style="fill:#1f77b4;stroke:#ffffff;stroke-width:0.75;" x="221.719706" xlink:href="#m4505d2241b" y="138.094125"/>
     <use style="fill:#1f77b4;stroke:#ffffff;stroke-width:0.75;" x="225.287338" xlink:href="#m4505d2241b" y="138.094125"/>
     <use style="fill:#1f77b4;stroke:#ffffff;stroke-width:0.75;" x="228.854971" xlink:href="#m4505d2241b" y="138.094125"/>
     <use style="fill:#1f77b4;stroke:#ffffff;stroke-width:0.75;" x="232.422603" xlink:href="#m4505d2241b" y="138.094125"/>
     <use style="fill:#1f77b4;stroke:#ffffff;stroke-width:0.75;" x="235.990235" xlink:href="#m4505d2241b" y="138.094125"/>
     <use style="fill:#1f77b4;stroke:#ffffff;stroke-width:0.75;" x="239.557868" xlink:href="#m4505d2241b" y="138.094125"/>
     <use style="fill:#1f77b4;stroke:#ffffff;stroke-width:0.75;" x="243.1255" xlink:href="#m4505d2241b" y="138.094125"/>
     <use style="fill:#1f77b4;stroke:#ffffff;stroke-width:0.75;" x="246.693132" xlink:href="#m4505d2241b" y="138.094125"/>
     <use style="fill:#1f77b4;stroke:#ffffff;stroke-width:0.75;" x="250.260765" xlink:href="#m4505d2241b" y="120.814125"/>
     <use style="fill:#1f77b4;stroke:#ffffff;stroke-width:0.75;" x="253.828397" xlink:href="#m4505d2241b" y="120.814125"/>
     <use style="fill:#1f77b4;stroke:#ffffff;stroke-width:0.75;" x="257.39603" xlink:href="#m4505d2241b" y="103.534125"/>
     <use style="fill:#1f77b4;stroke:#ffffff;stroke-width:0.75;" x="260.963662" xlink:href="#m4505d2241b" y="103.534125"/>
     <use style="fill:#1f77b4;stroke:#ffffff;stroke-width:0.75;" x="264.531294" xlink:href="#m4505d2241b" y="103.534125"/>
     <use style="fill:#1f77b4;stroke:#ffffff;stroke-width:0.75;" x="268.098927" xlink:href="#m4505d2241b" y="103.534125"/>
     <use style="fill:#1f77b4;stroke:#ffffff;stroke-width:0.75;" x="271.666559" xlink:href="#m4505d2241b" y="103.534125"/>
     <use style="fill:#1f77b4;stroke:#ffffff;stroke-width:0.75;" x="275.234191" xlink:href="#m4505d2241b" y="103.534125"/>
     <use style="fill:#1f77b4;stroke:#ffffff;stroke-width:0.75;" x="278.801824" xlink:href="#m4505d2241b" y="103.534125"/>
     <use style="fill:#1f77b4;stroke:#ffffff;stroke-width:0.75;" x="282.369456" xlink:href="#m4505d2241b" y="86.254125"/>
     <use style="fill:#1f77b4;stroke:#ffffff;stroke-width:0.75;" x="285.937089" xlink:href="#m4505d2241b" y="86.254125"/>
     <use style="fill:#1f77b4;stroke:#ffffff;stroke-width:0.75;" x="289.504721" xlink:href="#m4505d2241b" y="86.254125"/>
     <use style="fill:#1f77b4;stroke:#ffffff;stroke-width:0.75;" x="293.072353" xlink:href="#m4505d2241b" y="86.254125"/>
     <use style="fill:#1f77b4;stroke:#ffffff;stroke-width:0.75;" x="296.639986" xlink:href="#m4505d2241b" y="86.254125"/>
     <use style="fill:#1f77b4;stroke:#ffffff;stroke-width:0.75;" x="300.207618" xlink:href="#m4505d2241b" y="86.254125"/>
     <use style="fill:#1f77b4;stroke:#ffffff;stroke-width:0.75;" x="303.77525" xlink:href="#m4505d2241b" y="86.254125"/>
     <use style="fill:#1f77b4;stroke:#ffffff;stroke-width:0.75;" x="307.342883" xlink:href="#m4505d2241b" y="86.254125"/>
     <use style="fill:#1f77b4;stroke:#ffffff;stroke-width:0.75;" x="310.910515" xlink:href="#m4505d2241b" y="86.254125"/>
     <use style="fill:#1f77b4;stroke:#ffffff;stroke-width:0.75;" x="314.478147" xlink:href="#m4505d2241b" y="86.254125"/>
     <use style="fill:#1f77b4;stroke:#ffffff;stroke-width:0.75;" x="318.04578" xlink:href="#m4505d2241b" y="86.254125"/>
     <use style="fill:#1f77b4;stroke:#ffffff;stroke-width:0.75;" x="321.613412" xlink:href="#m4505d2241b" y="86.254125"/>
     <use style="fill:#1f77b4;stroke:#ffffff;stroke-width:0.75;" x="325.181045" xlink:href="#m4505d2241b" y="86.254125"/>
     <use style="fill:#1f77b4;stroke:#ffffff;stroke-width:0.75;" x="328.748677" xlink:href="#m4505d2241b" y="86.254125"/>
     <use style="fill:#1f77b4;stroke:#ffffff;stroke-width:0.75;" x="332.316309" xlink:href="#m4505d2241b" y="86.254125"/>
     <use style="fill:#1f77b4;stroke:#ffffff;stroke-width:0.75;" x="335.883942" xlink:href="#m4505d2241b" y="68.974125"/>
     <use style="fill:#1f77b4;stroke:#ffffff;stroke-width:0.75;" x="339.451574" xlink:href="#m4505d2241b" y="68.974125"/>
     <use style="fill:#1f77b4;stroke:#ffffff;stroke-width:0.75;" x="343.019206" xlink:href="#m4505d2241b" y="68.974125"/>
     <use style="fill:#1f77b4;stroke:#ffffff;stroke-width:0.75;" x="346.586839" xlink:href="#m4505d2241b" y="68.974125"/>
     <use style="fill:#1f77b4;stroke:#ffffff;stroke-width:0.75;" x="350.154471" xlink:href="#m4505d2241b" y="68.974125"/>
     <use style="fill:#1f77b4;stroke:#ffffff;stroke-width:0.75;" x="353.722104" xlink:href="#m4505d2241b" y="68.974125"/>
     <use style="fill:#1f77b4;stroke:#ffffff;stroke-width:0.75;" x="357.289736" xlink:href="#m4505d2241b" y="68.974125"/>
     <use style="fill:#1f77b4;stroke:#ffffff;stroke-width:0.75;" x="360.857368" xlink:href="#m4505d2241b" y="68.974125"/>
     <use style="fill:#1f77b4;stroke:#ffffff;stroke-width:0.75;" x="364.425001" xlink:href="#m4505d2241b" y="68.974125"/>
     <use style="fill:#1f77b4;stroke:#ffffff;stroke-width:0.75;" x="367.992633" xlink:href="#m4505d2241b" y="68.974125"/>
     <use style="fill:#1f77b4;stroke:#ffffff;stroke-width:0.75;" x="371.560265" xlink:href="#m4505d2241b" y="68.974125"/>
     <use style="fill:#1f77b4;stroke:#ffffff;stroke-width:0.75;" x="375.127898" xlink:href="#m4505d2241b" y="68.974125"/>
    </g>
   </g>
   <g id="line2d_16">
    <path clip-path="url(#pdcfc236b1c)" d="M 50.473352 276.334125 
L 54.040985 241.774125 
L 57.608617 241.774125 
L 61.176249 241.774125 
L 64.743882 241.774125 
L 68.311514 241.774125 
L 71.879146 241.774125 
L 75.446779 241.774125 
L 79.014411 241.774125 
L 82.582044 241.774125 
L 86.149676 224.494125 
L 89.717308 207.214125 
L 93.284941 207.214125 
L 96.852573 207.214125 
L 100.420205 207.214125 
L 103.987838 207.214125 
L 107.55547 207.214125 
L 111.123103 207.214125 
L 114.690735 207.214125 
L 118.258367 207.214125 
L 121.826 207.214125 
L 125.393632 207.214125 
L 128.961264 207.214125 
L 132.528897 207.214125 
L 136.096529 207.214125 
L 139.664161 189.934125 
L 143.231794 189.934125 
L 146.799426 189.934125 
L 150.367059 189.934125 
L 153.934691 207.214125 
L 157.502323 172.654125 
L 161.069956 172.654125 
L 164.637588 172.654125 
L 168.20522 172.654125 
L 171.772853 172.654125 
L 175.340485 172.654125 
L 178.908118 172.654125 
L 182.47575 172.654125 
L 186.043382 172.654125 
L 189.611015 172.654125 
L 193.178647 172.654125 
L 196.746279 172.654125 
L 200.313912 172.654125 
L 203.881544 172.654125 
L 207.449176 172.654125 
L 211.016809 172.654125 
L 214.584441 172.654125 
L 218.152074 172.654125 
L 221.719706 172.654125 
L 225.287338 172.654125 
L 228.854971 172.654125 
L 232.422603 172.654125 
L 235.990235 172.654125 
L 239.557868 138.094125 
L 243.1255 138.094125 
L 246.693132 138.094125 
L 250.260765 138.094125 
L 253.828397 138.094125 
L 257.39603 138.094125 
L 260.963662 138.094125 
L 264.531294 138.094125 
L 268.098927 138.094125 
L 271.666559 138.094125 
L 275.234191 138.094125 
L 278.801824 138.094125 
L 282.369456 138.094125 
L 285.937089 138.094125 
L 289.504721 138.094125 
L 293.072353 138.094125 
L 296.639986 138.094125 
L 300.207618 138.094125 
L 303.77525 138.094125 
L 307.342883 138.094125 
L 310.910515 138.094125 
L 314.478147 103.534125 
L 318.04578 103.534125 
L 321.613412 120.814125 
L 325.181045 120.814125 
L 328.748677 103.534125 
L 332.316309 103.534125 
L 335.883942 103.534125 
L 339.451574 103.534125 
L 343.019206 120.814125 
L 346.586839 103.534125 
L 350.154471 86.254125 
L 353.722104 103.534125 
L 357.289736 86.254125 
L 360.857368 86.254125 
L 364.425001 86.254125 
L 367.992633 86.254125 
L 371.560265 86.254125 
L 375.127898 103.534125 
" style="fill:none;stroke:#98df8a;stroke-linecap:square;stroke-width:1.5;"/>
    <defs>
     <path d="M -0 3 
L 3 -3 
L -3 -3 
z
" id="m17549329eb" style="stroke:#ffffff;stroke-linejoin:miter;stroke-width:0.75;"/>
    </defs>
    <g clip-path="url(#pdcfc236b1c)">
     <use style="fill:#98df8a;stroke:#ffffff;stroke-linejoin:miter;stroke-width:0.75;" x="50.473352" xlink:href="#m17549329eb" y="276.334125"/>
     <use style="fill:#98df8a;stroke:#ffffff;stroke-linejoin:miter;stroke-width:0.75;" x="54.040985" xlink:href="#m17549329eb" y="241.774125"/>
     <use style="fill:#98df8a;stroke:#ffffff;stroke-linejoin:miter;stroke-width:0.75;" x="57.608617" xlink:href="#m17549329eb" y="241.774125"/>
     <use style="fill:#98df8a;stroke:#ffffff;stroke-linejoin:miter;stroke-width:0.75;" x="61.176249" xlink:href="#m17549329eb" y="241.774125"/>
     <use style="fill:#98df8a;stroke:#ffffff;stroke-linejoin:miter;stroke-width:0.75;" x="64.743882" xlink:href="#m17549329eb" y="241.774125"/>
     <use style="fill:#98df8a;stroke:#ffffff;stroke-linejoin:miter;stroke-width:0.75;" x="68.311514" xlink:href="#m17549329eb" y="241.774125"/>
     <use style="fill:#98df8a;stroke:#ffffff;stroke-linejoin:miter;stroke-width:0.75;" x="71.879146" xlink:href="#m17549329eb" y="241.774125"/>
     <use style="fill:#98df8a;stroke:#ffffff;stroke-linejoin:miter;stroke-width:0.75;" x="75.446779" xlink:href="#m17549329eb" y="241.774125"/>
     <use style="fill:#98df8a;stroke:#ffffff;stroke-linejoin:miter;stroke-width:0.75;" x="79.014411" xlink:href="#m17549329eb" y="241.774125"/>
     <use style="fill:#98df8a;stroke:#ffffff;stroke-linejoin:miter;stroke-width:0.75;" x="82.582044" xlink:href="#m17549329eb" y="241.774125"/>
     <use style="fill:#98df8a;stroke:#ffffff;stroke-linejoin:miter;stroke-width:0.75;" x="86.149676" xlink:href="#m17549329eb" y="224.494125"/>
     <use style="fill:#98df8a;stroke:#ffffff;stroke-linejoin:miter;stroke-width:0.75;" x="89.717308" xlink:href="#m17549329eb" y="207.214125"/>
     <use style="fill:#98df8a;stroke:#ffffff;stroke-linejoin:miter;stroke-width:0.75;" x="93.284941" xlink:href="#m17549329eb" y="207.214125"/>
     <use style="fill:#98df8a;stroke:#ffffff;stroke-linejoin:miter;stroke-width:0.75;" x="96.852573" xlink:href="#m17549329eb" y="207.214125"/>
     <use style="fill:#98df8a;stroke:#ffffff;stroke-linejoin:miter;stroke-width:0.75;" x="100.420205" xlink:href="#m17549329eb" y="207.214125"/>
     <use style="fill:#98df8a;stroke:#ffffff;stroke-linejoin:miter;stroke-width:0.75;" x="103.987838" xlink:href="#m17549329eb" y="207.214125"/>
     <use style="fill:#98df8a;stroke:#ffffff;stroke-linejoin:miter;stroke-width:0.75;" x="107.55547" xlink:href="#m17549329eb" y="207.214125"/>
     <use style="fill:#98df8a;stroke:#ffffff;stroke-linejoin:miter;stroke-width:0.75;" x="111.123103" xlink:href="#m17549329eb" y="207.214125"/>
     <use style="fill:#98df8a;stroke:#ffffff;stroke-linejoin:miter;stroke-width:0.75;" x="114.690735" xlink:href="#m17549329eb" y="207.214125"/>
     <use style="fill:#98df8a;stroke:#ffffff;stroke-linejoin:miter;stroke-width:0.75;" x="118.258367" xlink:href="#m17549329eb" y="207.214125"/>
     <use style="fill:#98df8a;stroke:#ffffff;stroke-linejoin:miter;stroke-width:0.75;" x="121.826" xlink:href="#m17549329eb" y="207.214125"/>
     <use style="fill:#98df8a;stroke:#ffffff;stroke-linejoin:miter;stroke-width:0.75;" x="125.393632" xlink:href="#m17549329eb" y="207.214125"/>
     <use style="fill:#98df8a;stroke:#ffffff;stroke-linejoin:miter;stroke-width:0.75;" x="128.961264" xlink:href="#m17549329eb" y="207.214125"/>
     <use style="fill:#98df8a;stroke:#ffffff;stroke-linejoin:miter;stroke-width:0.75;" x="132.528897" xlink:href="#m17549329eb" y="207.214125"/>
     <use style="fill:#98df8a;stroke:#ffffff;stroke-linejoin:miter;stroke-width:0.75;" x="136.096529" xlink:href="#m17549329eb" y="207.214125"/>
     <use style="fill:#98df8a;stroke:#ffffff;stroke-linejoin:miter;stroke-width:0.75;" x="139.664161" xlink:href="#m17549329eb" y="189.934125"/>
     <use style="fill:#98df8a;stroke:#ffffff;stroke-linejoin:miter;stroke-width:0.75;" x="143.231794" xlink:href="#m17549329eb" y="189.934125"/>
     <use style="fill:#98df8a;stroke:#ffffff;stroke-linejoin:miter;stroke-width:0.75;" x="146.799426" xlink:href="#m17549329eb" y="189.934125"/>
     <use style="fill:#98df8a;stroke:#ffffff;stroke-linejoin:miter;stroke-width:0.75;" x="150.367059" xlink:href="#m17549329eb" y="189.934125"/>
     <use style="fill:#98df8a;stroke:#ffffff;stroke-linejoin:miter;stroke-width:0.75;" x="153.934691" xlink:href="#m17549329eb" y="207.214125"/>
     <use style="fill:#98df8a;stroke:#ffffff;stroke-linejoin:miter;stroke-width:0.75;" x="157.502323" xlink:href="#m17549329eb" y="172.654125"/>
     <use style="fill:#98df8a;stroke:#ffffff;stroke-linejoin:miter;stroke-width:0.75;" x="161.069956" xlink:href="#m17549329eb" y="172.654125"/>
     <use style="fill:#98df8a;stroke:#ffffff;stroke-linejoin:miter;stroke-width:0.75;" x="164.637588" xlink:href="#m17549329eb" y="172.654125"/>
     <use style="fill:#98df8a;stroke:#ffffff;stroke-linejoin:miter;stroke-width:0.75;" x="168.20522" xlink:href="#m17549329eb" y="172.654125"/>
     <use style="fill:#98df8a;stroke:#ffffff;stroke-linejoin:miter;stroke-width:0.75;" x="171.772853" xlink:href="#m17549329eb" y="172.654125"/>
     <use style="fill:#98df8a;stroke:#ffffff;stroke-linejoin:miter;stroke-width:0.75;" x="175.340485" xlink:href="#m17549329eb" y="172.654125"/>
     <use style="fill:#98df8a;stroke:#ffffff;stroke-linejoin:miter;stroke-width:0.75;" x="178.908118" xlink:href="#m17549329eb" y="172.654125"/>
     <use style="fill:#98df8a;stroke:#ffffff;stroke-linejoin:miter;stroke-width:0.75;" x="182.47575" xlink:href="#m17549329eb" y="172.654125"/>
     <use style="fill:#98df8a;stroke:#ffffff;stroke-linejoin:miter;stroke-width:0.75;" x="186.043382" xlink:href="#m17549329eb" y="172.654125"/>
     <use style="fill:#98df8a;stroke:#ffffff;stroke-linejoin:miter;stroke-width:0.75;" x="189.611015" xlink:href="#m17549329eb" y="172.654125"/>
     <use style="fill:#98df8a;stroke:#ffffff;stroke-linejoin:miter;stroke-width:0.75;" x="193.178647" xlink:href="#m17549329eb" y="172.654125"/>
     <use style="fill:#98df8a;stroke:#ffffff;stroke-linejoin:miter;stroke-width:0.75;" x="196.746279" xlink:href="#m17549329eb" y="172.654125"/>
     <use style="fill:#98df8a;stroke:#ffffff;stroke-linejoin:miter;stroke-width:0.75;" x="200.313912" xlink:href="#m17549329eb" y="172.654125"/>
     <use style="fill:#98df8a;stroke:#ffffff;stroke-linejoin:miter;stroke-width:0.75;" x="203.881544" xlink:href="#m17549329eb" y="172.654125"/>
     <use style="fill:#98df8a;stroke:#ffffff;stroke-linejoin:miter;stroke-width:0.75;" x="207.449176" xlink:href="#m17549329eb" y="172.654125"/>
     <use style="fill:#98df8a;stroke:#ffffff;stroke-linejoin:miter;stroke-width:0.75;" x="211.016809" xlink:href="#m17549329eb" y="172.654125"/>
     <use style="fill:#98df8a;stroke:#ffffff;stroke-linejoin:miter;stroke-width:0.75;" x="214.584441" xlink:href="#m17549329eb" y="172.654125"/>
     <use style="fill:#98df8a;stroke:#ffffff;stroke-linejoin:miter;stroke-width:0.75;" x="218.152074" xlink:href="#m17549329eb" y="172.654125"/>
     <use style="fill:#98df8a;stroke:#ffffff;stroke-linejoin:miter;stroke-width:0.75;" x="221.719706" xlink:href="#m17549329eb" y="172.654125"/>
     <use style="fill:#98df8a;stroke:#ffffff;stroke-linejoin:miter;stroke-width:0.75;" x="225.287338" xlink:href="#m17549329eb" y="172.654125"/>
     <use style="fill:#98df8a;stroke:#ffffff;stroke-linejoin:miter;stroke-width:0.75;" x="228.854971" xlink:href="#m17549329eb" y="172.654125"/>
     <use style="fill:#98df8a;stroke:#ffffff;stroke-linejoin:miter;stroke-width:0.75;" x="232.422603" xlink:href="#m17549329eb" y="172.654125"/>
     <use style="fill:#98df8a;stroke:#ffffff;stroke-linejoin:miter;stroke-width:0.75;" x="235.990235" xlink:href="#m17549329eb" y="172.654125"/>
     <use style="fill:#98df8a;stroke:#ffffff;stroke-linejoin:miter;stroke-width:0.75;" x="239.557868" xlink:href="#m17549329eb" y="138.094125"/>
     <use style="fill:#98df8a;stroke:#ffffff;stroke-linejoin:miter;stroke-width:0.75;" x="243.1255" xlink:href="#m17549329eb" y="138.094125"/>
     <use style="fill:#98df8a;stroke:#ffffff;stroke-linejoin:miter;stroke-width:0.75;" x="246.693132" xlink:href="#m17549329eb" y="138.094125"/>
     <use style="fill:#98df8a;stroke:#ffffff;stroke-linejoin:miter;stroke-width:0.75;" x="250.260765" xlink:href="#m17549329eb" y="138.094125"/>
     <use style="fill:#98df8a;stroke:#ffffff;stroke-linejoin:miter;stroke-width:0.75;" x="253.828397" xlink:href="#m17549329eb" y="138.094125"/>
     <use style="fill:#98df8a;stroke:#ffffff;stroke-linejoin:miter;stroke-width:0.75;" x="257.39603" xlink:href="#m17549329eb" y="138.094125"/>
     <use style="fill:#98df8a;stroke:#ffffff;stroke-linejoin:miter;stroke-width:0.75;" x="260.963662" xlink:href="#m17549329eb" y="138.094125"/>
     <use style="fill:#98df8a;stroke:#ffffff;stroke-linejoin:miter;stroke-width:0.75;" x="264.531294" xlink:href="#m17549329eb" y="138.094125"/>
     <use style="fill:#98df8a;stroke:#ffffff;stroke-linejoin:miter;stroke-width:0.75;" x="268.098927" xlink:href="#m17549329eb" y="138.094125"/>
     <use style="fill:#98df8a;stroke:#ffffff;stroke-linejoin:miter;stroke-width:0.75;" x="271.666559" xlink:href="#m17549329eb" y="138.094125"/>
     <use style="fill:#98df8a;stroke:#ffffff;stroke-linejoin:miter;stroke-width:0.75;" x="275.234191" xlink:href="#m17549329eb" y="138.094125"/>
     <use style="fill:#98df8a;stroke:#ffffff;stroke-linejoin:miter;stroke-width:0.75;" x="278.801824" xlink:href="#m17549329eb" y="138.094125"/>
     <use style="fill:#98df8a;stroke:#ffffff;stroke-linejoin:miter;stroke-width:0.75;" x="282.369456" xlink:href="#m17549329eb" y="138.094125"/>
     <use style="fill:#98df8a;stroke:#ffffff;stroke-linejoin:miter;stroke-width:0.75;" x="285.937089" xlink:href="#m17549329eb" y="138.094125"/>
     <use style="fill:#98df8a;stroke:#ffffff;stroke-linejoin:miter;stroke-width:0.75;" x="289.504721" xlink:href="#m17549329eb" y="138.094125"/>
     <use style="fill:#98df8a;stroke:#ffffff;stroke-linejoin:miter;stroke-width:0.75;" x="293.072353" xlink:href="#m17549329eb" y="138.094125"/>
     <use style="fill:#98df8a;stroke:#ffffff;stroke-linejoin:miter;stroke-width:0.75;" x="296.639986" xlink:href="#m17549329eb" y="138.094125"/>
     <use style="fill:#98df8a;stroke:#ffffff;stroke-linejoin:miter;stroke-width:0.75;" x="300.207618" xlink:href="#m17549329eb" y="138.094125"/>
     <use style="fill:#98df8a;stroke:#ffffff;stroke-linejoin:miter;stroke-width:0.75;" x="303.77525" xlink:href="#m17549329eb" y="138.094125"/>
     <use style="fill:#98df8a;stroke:#ffffff;stroke-linejoin:miter;stroke-width:0.75;" x="307.342883" xlink:href="#m17549329eb" y="138.094125"/>
     <use style="fill:#98df8a;stroke:#ffffff;stroke-linejoin:miter;stroke-width:0.75;" x="310.910515" xlink:href="#m17549329eb" y="138.094125"/>
     <use style="fill:#98df8a;stroke:#ffffff;stroke-linejoin:miter;stroke-width:0.75;" x="314.478147" xlink:href="#m17549329eb" y="103.534125"/>
     <use style="fill:#98df8a;stroke:#ffffff;stroke-linejoin:miter;stroke-width:0.75;" x="318.04578" xlink:href="#m17549329eb" y="103.534125"/>
     <use style="fill:#98df8a;stroke:#ffffff;stroke-linejoin:miter;stroke-width:0.75;" x="321.613412" xlink:href="#m17549329eb" y="120.814125"/>
     <use style="fill:#98df8a;stroke:#ffffff;stroke-linejoin:miter;stroke-width:0.75;" x="325.181045" xlink:href="#m17549329eb" y="120.814125"/>
     <use style="fill:#98df8a;stroke:#ffffff;stroke-linejoin:miter;stroke-width:0.75;" x="328.748677" xlink:href="#m17549329eb" y="103.534125"/>
     <use style="fill:#98df8a;stroke:#ffffff;stroke-linejoin:miter;stroke-width:0.75;" x="332.316309" xlink:href="#m17549329eb" y="103.534125"/>
     <use style="fill:#98df8a;stroke:#ffffff;stroke-linejoin:miter;stroke-width:0.75;" x="335.883942" xlink:href="#m17549329eb" y="103.534125"/>
     <use style="fill:#98df8a;stroke:#ffffff;stroke-linejoin:miter;stroke-width:0.75;" x="339.451574" xlink:href="#m17549329eb" y="103.534125"/>
     <use style="fill:#98df8a;stroke:#ffffff;stroke-linejoin:miter;stroke-width:0.75;" x="343.019206" xlink:href="#m17549329eb" y="120.814125"/>
     <use style="fill:#98df8a;stroke:#ffffff;stroke-linejoin:miter;stroke-width:0.75;" x="346.586839" xlink:href="#m17549329eb" y="103.534125"/>
     <use style="fill:#98df8a;stroke:#ffffff;stroke-linejoin:miter;stroke-width:0.75;" x="350.154471" xlink:href="#m17549329eb" y="86.254125"/>
     <use style="fill:#98df8a;stroke:#ffffff;stroke-linejoin:miter;stroke-width:0.75;" x="353.722104" xlink:href="#m17549329eb" y="103.534125"/>
     <use style="fill:#98df8a;stroke:#ffffff;stroke-linejoin:miter;stroke-width:0.75;" x="357.289736" xlink:href="#m17549329eb" y="86.254125"/>
     <use style="fill:#98df8a;stroke:#ffffff;stroke-linejoin:miter;stroke-width:0.75;" x="360.857368" xlink:href="#m17549329eb" y="86.254125"/>
     <use style="fill:#98df8a;stroke:#ffffff;stroke-linejoin:miter;stroke-width:0.75;" x="364.425001" xlink:href="#m17549329eb" y="86.254125"/>
     <use style="fill:#98df8a;stroke:#ffffff;stroke-linejoin:miter;stroke-width:0.75;" x="367.992633" xlink:href="#m17549329eb" y="86.254125"/>
     <use style="fill:#98df8a;stroke:#ffffff;stroke-linejoin:miter;stroke-width:0.75;" x="371.560265" xlink:href="#m17549329eb" y="86.254125"/>
     <use style="fill:#98df8a;stroke:#ffffff;stroke-linejoin:miter;stroke-width:0.75;" x="375.127898" xlink:href="#m17549329eb" y="103.534125"/>
    </g>
   </g>
   <g id="line2d_17"/>
   <g id="line2d_18"/>
   <g id="patch_3">
    <path d="M 34.240625 276.334125 
L 34.240625 34.414125 
" style="fill:none;stroke:#000000;stroke-linecap:square;stroke-linejoin:miter;stroke-width:0.8;"/>
   </g>
   <g id="patch_4">
    <path d="M 50.473352 288.430125 
L 323.991834 288.430125 
" style="fill:none;stroke:#000000;stroke-linecap:square;stroke-linejoin:miter;stroke-width:0.8;"/>
   </g>
   <g id="text_17">
    <!-- ffmpeg_ffmpeg_demuxer_fuzzer (23h, 15 trials/fuzzer) -->
    <g transform="translate(49.2725 16.318125)scale(0.12 -0.12)">
     <defs>
      <path d="M 2375 4863 
L 2375 4384 
L 1825 4384 
Q 1516 4384 1395 4259 
Q 1275 4134 1275 3809 
L 1275 3500 
L 2222 3500 
L 2222 3053 
L 1275 3053 
L 1275 0 
L 697 0 
L 697 3053 
L 147 3053 
L 147 3500 
L 697 3500 
L 697 3744 
Q 697 4328 969 4595 
Q 1241 4863 1831 4863 
L 2375 4863 
z
" id="DejaVuSans-66" transform="scale(0.015625)"/>
      <path d="M 1159 525 
L 1159 -1331 
L 581 -1331 
L 581 3500 
L 1159 3500 
L 1159 2969 
Q 1341 3281 1617 3432 
Q 1894 3584 2278 3584 
Q 2916 3584 3314 3078 
Q 3713 2572 3713 1747 
Q 3713 922 3314 415 
Q 2916 -91 2278 -91 
Q 1894 -91 1617 61 
Q 1341 213 1159 525 
z
M 3116 1747 
Q 3116 2381 2855 2742 
Q 2594 3103 2138 3103 
Q 1681 3103 1420 2742 
Q 1159 2381 1159 1747 
Q 1159 1113 1420 752 
Q 1681 391 2138 391 
Q 2594 391 2855 752 
Q 3116 1113 3116 1747 
z
" id="DejaVuSans-70" transform="scale(0.015625)"/>
      <path d="M 3263 -1063 
L 3263 -1509 
L -63 -1509 
L -63 -1063 
L 3263 -1063 
z
" id="DejaVuSans-5f" transform="scale(0.015625)"/>
      <path d="M 2906 2969 
L 2906 4863 
L 3481 4863 
L 3481 0 
L 2906 0 
L 2906 525 
Q 2725 213 2448 61 
Q 2172 -91 1784 -91 
Q 1150 -91 751 415 
Q 353 922 353 1747 
Q 353 2572 751 3078 
Q 1150 3584 1784 3584 
Q 2172 3584 2448 3432 
Q 2725 3281 2906 2969 
z
M 947 1747 
Q 947 1113 1208 752 
Q 1469 391 1925 391 
Q 2381 391 2643 752 
Q 2906 1113 2906 1747 
Q 2906 2381 2643 2742 
Q 2381 3103 1925 3103 
Q 1469 3103 1208 2742 
Q 947 2381 947 1747 
z
" id="DejaVuSans-64" transform="scale(0.015625)"/>
      <path d="M 3513 3500 
L 2247 1797 
L 3578 0 
L 2900 0 
L 1881 1375 
L 863 0 
L 184 0 
L 1544 1831 
L 300 3500 
L 978 3500 
L 1906 2253 
L 2834 3500 
L 3513 3500 
z
" id="DejaVuSans-78" transform="scale(0.015625)"/>
      <path d="M 353 3500 
L 3084 3500 
L 3084 2975 
L 922 459 
L 3084 459 
L 3084 0 
L 275 0 
L 275 525 
L 2438 3041 
L 353 3041 
L 353 3500 
z
" id="DejaVuSans-7a" transform="scale(0.015625)"/>
      <path d="M 750 794 
L 1409 794 
L 1409 256 
L 897 -744 
L 494 -744 
L 750 256 
L 750 794 
z
" id="DejaVuSans-2c" transform="scale(0.015625)"/>
      <path d="M 603 4863 
L 1178 4863 
L 1178 0 
L 603 0 
L 603 4863 
z
" id="DejaVuSans-6c" transform="scale(0.015625)"/>
      <path d="M 2834 3397 
L 2834 2853 
Q 2591 2978 2328 3040 
Q 2066 3103 1784 3103 
Q 1356 3103 1142 2972 
Q 928 2841 928 2578 
Q 928 2378 1081 2264 
Q 1234 2150 1697 2047 
L 1894 2003 
Q 2506 1872 2764 1633 
Q 3022 1394 3022 966 
Q 3022 478 2636 193 
Q 2250 -91 1575 -91 
Q 1294 -91 989 -36 
Q 684 19 347 128 
L 347 722 
Q 666 556 975 473 
Q 1284 391 1588 391 
Q 1994 391 2212 530 
Q 2431 669 2431 922 
Q 2431 1156 2273 1281 
Q 2116 1406 1581 1522 
L 1381 1569 
Q 847 1681 609 1914 
Q 372 2147 372 2553 
Q 372 3047 722 3315 
Q 1072 3584 1716 3584 
Q 2034 3584 2315 3537 
Q 2597 3491 2834 3397 
z
" id="DejaVuSans-73" transform="scale(0.015625)"/>
      <path d="M 1625 4666 
L 2156 4666 
L 531 -594 
L 0 -594 
L 1625 4666 
z
" id="DejaVuSans-2f" transform="scale(0.015625)"/>
     </defs>
     <use xlink:href="#DejaVuSans-66"/>
     <use x="35.205078" xlink:href="#DejaVuSans-66"/>
     <use x="70.410156" xlink:href="#DejaVuSans-6d"/>
     <use x="167.822266" xlink:href="#DejaVuSans-70"/>
     <use x="231.298828" xlink:href="#DejaVuSans-65"/>
     <use x="292.822266" xlink:href="#DejaVuSans-67"/>
     <use x="356.298828" xlink:href="#DejaVuSans-5f"/>
     <use x="406.298828" xlink:href="#DejaVuSans-66"/>
     <use x="441.503906" xlink:href="#DejaVuSans-66"/>
     <use x="476.708984" xlink:href="#DejaVuSans-6d"/>
     <use x="574.121094" xlink:href="#DejaVuSans-70"/>
     <use x="637.597656" xlink:href="#DejaVuSans-65"/>
     <use x="699.121094" xlink:href="#DejaVuSans-67"/>
     <use x="762.597656" xlink:href="#DejaVuSans-5f"/>
     <use x="812.597656" xlink:href="#DejaVuSans-64"/>
     <use x="876.074219" xlink:href="#DejaVuSans-65"/>
     <use x="937.597656" xlink:href="#DejaVuSans-6d"/>
     <use x="1035.009766" xlink:href="#DejaVuSans-75"/>
     <use x="1098.388672" xlink:href="#DejaVuSans-78"/>
     <use x="1154.443359" xlink:href="#DejaVuSans-65"/>
     <use x="1215.966797" xlink:href="#DejaVuSans-72"/>
     <use x="1257.080078" xlink:href="#DejaVuSans-5f"/>
     <use x="1307.080078" xlink:href="#DejaVuSans-66"/>
     <use x="1342.285156" xlink:href="#DejaVuSans-75"/>
     <use x="1405.664062" xlink:href="#DejaVuSans-7a"/>
     <use x="1458.154297" xlink:href="#DejaVuSans-7a"/>
     <use x="1510.644531" xlink:href="#DejaVuSans-65"/>
     <use x="1572.167969" xlink:href="#DejaVuSans-72"/>
     <use x="1613.28125" xlink:href="#DejaVuSans-20"/>
     <use x="1645.068359" xlink:href="#DejaVuSans-28"/>
     <use x="1684.082031" xlink:href="#DejaVuSans-32"/>
     <use x="1747.705078" xlink:href="#DejaVuSans-33"/>
     <use x="1811.328125" xlink:href="#DejaVuSans-68"/>
     <use x="1874.707031" xlink:href="#DejaVuSans-2c"/>
     <use x="1906.494141" xlink:href="#DejaVuSans-20"/>
     <use x="1938.28125" xlink:href="#DejaVuSans-31"/>
     <use x="2001.904297" xlink:href="#DejaVuSans-35"/>
     <use x="2065.527344" xlink:href="#DejaVuSans-20"/>
     <use x="2097.314453" xlink:href="#DejaVuSans-74"/>
     <use x="2136.523438" xlink:href="#DejaVuSans-72"/>
     <use x="2177.636719" xlink:href="#DejaVuSans-69"/>
     <use x="2205.419922" xlink:href="#DejaVuSans-61"/>
     <use x="2266.699219" xlink:href="#DejaVuSans-6c"/>
     <use x="2294.482422" xlink:href="#DejaVuSans-73"/>
     <use x="2346.582031" xlink:href="#DejaVuSans-2f"/>
     <use x="2380.273438" xlink:href="#DejaVuSans-66"/>
     <use x="2415.478516" xlink:href="#DejaVuSans-75"/>
     <use x="2478.857422" xlink:href="#DejaVuSans-7a"/>
     <use x="2531.347656" xlink:href="#DejaVuSans-7a"/>
     <use x="2583.837891" xlink:href="#DejaVuSans-65"/>
     <use x="2645.361328" xlink:href="#DejaVuSans-72"/>
     <use x="2686.474609" xlink:href="#DejaVuSans-29"/>
    </g>
   </g>
   <g id="legend_1">
    <g id="line2d_19">
     <path d="M 395.360625 30.416562 
L 415.360625 30.416562 
" style="fill:none;stroke:#1f77b4;stroke-linecap:square;stroke-width:1.5;"/>
    </g>
    <g id="line2d_20">
     <defs>
      <path d="M 0 3 
C 0.795609 3 1.55874 2.683901 2.12132 2.12132 
C 2.683901 1.55874 3 0.795609 3 0 
C 3 -0.795609 2.683901 -1.55874 2.12132 -2.12132 
C 1.55874 -2.683901 0.795609 -3 0 -3 
C -0.795609 -3 -1.55874 -2.683901 -2.12132 -2.12132 
C -2.683901 -1.55874 -3 -0.795609 -3 0 
C -3 0.795609 -2.683901 1.55874 -2.12132 2.12132 
C -1.55874 2.683901 -0.795609 3 0 3 
z
" id="m30682746e3" style="stroke:#1f77b4;"/>
     </defs>
     <g>
      <use style="fill:#1f77b4;stroke:#1f77b4;" x="405.360625" xlink:href="#m30682746e3" y="30.416562"/>
     </g>
    </g>
    <g id="text_18">
     <!-- afl -->
     <g transform="translate(423.360625 33.916562)scale(0.1 -0.1)">
      <use xlink:href="#DejaVuSans-61"/>
      <use x="61.279297" xlink:href="#DejaVuSans-66"/>
      <use x="96.484375" xlink:href="#DejaVuSans-6c"/>
     </g>
    </g>
    <g id="line2d_21">
     <path d="M 395.360625 45.094688 
L 415.360625 45.094688 
" style="fill:none;stroke:#98df8a;stroke-linecap:square;stroke-width:1.5;"/>
    </g>
    <g id="line2d_22">
     <defs>
      <path d="M -0 3 
L 3 -3 
L -3 -3 
z
" id="m7e2758bc64" style="stroke:#98df8a;stroke-linejoin:miter;"/>
     </defs>
     <g>
      <use style="fill:#98df8a;stroke:#98df8a;stroke-linejoin:miter;" x="405.360625" xlink:href="#m7e2758bc64" y="45.094688"/>
     </g>
    </g>
    <g id="text_19">
     <!-- afl_collision_free -->
     <g transform="translate(423.360625 48.594688)scale(0.1 -0.1)">
      <use xlink:href="#DejaVuSans-61"/>
      <use x="61.279297" xlink:href="#DejaVuSans-66"/>
      <use x="96.484375" xlink:href="#DejaVuSans-6c"/>
      <use x="124.267578" xlink:href="#DejaVuSans-5f"/>
      <use x="174.267578" xlink:href="#DejaVuSans-63"/>
      <use x="229.248047" xlink:href="#DejaVuSans-6f"/>
      <use x="290.429688" xlink:href="#DejaVuSans-6c"/>
      <use x="318.212891" xlink:href="#DejaVuSans-6c"/>
      <use x="345.996094" xlink:href="#DejaVuSans-69"/>
      <use x="373.779297" xlink:href="#DejaVuSans-73"/>
      <use x="425.878906" xlink:href="#DejaVuSans-69"/>
      <use x="453.662109" xlink:href="#DejaVuSans-6f"/>
      <use x="514.84375" xlink:href="#DejaVuSans-6e"/>
      <use x="578.222656" xlink:href="#DejaVuSans-5f"/>
      <use x="628.222656" xlink:href="#DejaVuSans-66"/>
      <use x="663.427734" xlink:href="#DejaVuSans-72"/>
      <use x="702.291016" xlink:href="#DejaVuSans-65"/>
      <use x="763.814453" xlink:href="#DejaVuSans-65"/>
     </g>
    </g>
   </g>
  </g>
 </g>
 <defs>
  <clipPath id="pdcfc236b1c">
   <rect height="266.112" width="357.12" x="34.240625" y="22.318125"/>
  </clipPath>
 </defs>
</svg>
