<?xml version="1.0" encoding="utf-8" standalone="no"?>
<!DOCTYPE svg PUBLIC "-//W3C//DTD SVG 1.1//EN"
  "http://www.w3.org/Graphics/SVG/1.1/DTD/svg11.dtd">
<svg height="325.986375pt" version="1.1" viewBox="0 0 542.545 325.986375" width="542.545pt" xmlns="http://www.w3.org/2000/svg" xmlns:xlink="http://www.w3.org/1999/xlink">
 <metadata>
  <rdf:RDF xmlns:cc="http://creativecommons.org/ns#" xmlns:dc="http://purl.org/dc/elements/1.1/" xmlns:rdf="http://www.w3.org/1999/02/22-rdf-syntax-ns#">
   <cc:Work>
    <dc:type rdf:resource="http://purl.org/dc/dcmitype/StillImage"/>
    <dc:date>2022-06-03T14:50:03.419525</dc:date>
    <dc:format>image/svg+xml</dc:format>
    <dc:creator>
     <cc:Agent>
      <dc:title>Matplotlib v3.4.3, https://matplotlib.org/</dc:title>
     </cc:Agent>
    </dc:creator>
   </cc:Work>
  </rdf:RDF>
 </metadata>
 <defs>
  <style type="text/css">*{stroke-linecap:butt;stroke-linejoin:round;}</style>
 </defs>
 <g id="figure_1">
  <g id="patch_1">
   <path d="M 0 325.986375 
L 542.545 325.986375 
L 542.545 0 
L 0 0 
z
" style="fill:#ffffff;"/>
  </g>
  <g id="axes_1">
   <g id="patch_2">
    <path d="M 59.690625 288.430125 
L 416.810625 288.430125 
L 416.810625 22.318125 
L 59.690625 22.318125 
z
" style="fill:#ffffff;"/>
   </g>
   <g id="PolyCollection_1">
    <defs>
     <path d="M 75.923352 -49.677497 
L 75.923352 -49.65225 
L 125.689806 -49.677497 
L 154.801316 -49.677497 
L 175.45626 -49.677497 
L 191.47748 -49.677497 
L 204.567769 -49.677497 
L 215.635452 -49.677497 
L 225.222714 -49.677497 
L 233.679279 -49.677497 
L 241.243934 -49.677497 
L 248.086996 -49.677497 
L 254.334223 -49.677497 
L 260.081115 -49.677497 
L 265.401906 -49.677497 
L 270.355443 -49.677497 
L 274.989168 -49.677497 
L 279.341883 -49.677497 
L 283.445733 -49.677497 
L 287.327641 -49.677497 
L 291.010388 -62.806113 
L 294.513415 -75.93473 
L 297.85345 -76.717397 
L 301.04499 -49.677497 
L 304.100677 -49.677497 
L 307.031607 -67.729345 
L 309.847569 -49.677497 
L 312.557242 -70.658036 
L 315.168359 -71.693177 
L 317.68784 -80.125788 
L 320.121897 -81.438649 
L 322.476135 -178.565162 
L 324.755622 -147.510935 
L 326.96496 -206.66545 
L 329.108337 -222.21781 
L 331.189579 -240.72411 
L 333.212187 -245.319125 
L 335.179373 -245.344373 
L 337.094095 -245.344373 
L 338.959078 -245.344373 
L 340.776842 -245.344373 
L 342.549717 -245.344373 
L 344.279869 -147.510935 
L 345.969307 -147.510935 
L 347.619904 -245.344373 
L 349.233406 -245.344373 
L 350.811444 -245.344373 
L 352.355542 -245.344373 
L 353.867131 -245.344373 
L 355.347551 -245.344373 
L 356.798061 -245.344373 
L 358.219847 -245.344373 
L 359.614023 -245.344373 
L 360.981642 -245.344373 
L 362.323696 -245.647341 
L 363.641124 -245.74833 
L 364.934813 -245.74833 
L 366.205604 -246.076546 
L 367.454294 -246.303772 
L 368.681636 -246.303772 
L 369.888351 -246.379514 
L 371.075119 -246.379514 
L 372.242589 -246.379514 
L 373.391378 -246.379514 
L 374.522076 -246.379514 
L 375.635243 -246.404761 
L 376.731414 -246.404761 
L 377.8111 -246.404761 
L 378.874791 -246.404761 
L 379.922953 -246.404761 
L 380.956033 -246.404761 
L 381.974459 -246.404761 
L 382.978641 -246.404761 
L 383.968971 -246.404761 
L 384.945827 -246.404761 
L 385.909571 -246.404761 
L 386.860549 -246.404761 
L 387.799096 -246.404761 
L 388.725532 -246.404761 
L 389.640166 -246.404761 
L 390.543295 -246.404761 
L 391.435205 -246.404761 
L 392.316171 -246.404761 
L 393.186458 -246.404761 
L 394.046323 -246.404761 
L 394.896011 -246.404761 
L 395.735761 -246.404761 
L 396.565803 -246.404761 
L 397.386358 -246.404761 
L 398.197642 -246.60674 
L 398.99986 -246.60674 
L 399.793214 -246.60674 
L 400.577898 -246.60674 
L 400.577898 -291.57225 
L 400.577898 -291.57225 
L 399.793214 -291.57225 
L 398.99986 -291.57225 
L 398.197642 -291.269282 
L 397.386358 -291.269282 
L 396.565803 -291.117798 
L 395.735761 -291.067303 
L 394.896011 -291.067303 
L 394.046323 -291.067303 
L 393.186458 -291.067303 
L 392.316171 -291.067303 
L 391.435205 -290.663346 
L 390.543295 -290.33513 
L 389.640166 -290.33513 
L 388.725532 -289.905926 
L 387.799096 -288.946527 
L 386.860549 -286.977234 
L 385.909571 -286.06833 
L 384.945827 -285.209921 
L 383.968971 -285.033189 
L 382.978641 -283.013402 
L 381.974459 -282.457961 
L 380.956033 -275.035243 
L 379.922953 -274.252576 
L 378.874791 -270.515969 
L 377.8111 -270.515969 
L 376.731414 -270.515969 
L 375.635243 -270.490722 
L 374.522076 -270.490722 
L 373.391378 -270.490722 
L 372.242589 -270.490722 
L 371.075119 -270.490722 
L 369.888351 -270.490722 
L 368.681636 -270.490722 
L 367.454294 -270.490722 
L 366.205604 -268.672914 
L 364.934813 -270.490722 
L 363.641124 -270.490722 
L 362.323696 -270.490722 
L 360.981642 -269.177861 
L 359.614023 -268.925387 
L 358.219847 -268.90014 
L 356.798061 -268.874892 
L 355.347551 -268.849645 
L 353.867131 -268.849645 
L 352.355542 -268.849645 
L 350.811444 -268.849645 
L 349.233406 -268.723408 
L 347.619904 -268.672914 
L 345.969307 -268.371208 
L 344.279869 -267.978612 
L 342.549717 -266.072438 
L 340.776842 -266.072438 
L 338.959078 -266.021943 
L 337.094095 -266.021943 
L 335.179373 -262.916521 
L 333.212187 -262.815531 
L 331.189579 -262.815531 
L 329.108337 -262.739789 
L 326.96496 -262.613552 
L 324.755622 -262.613552 
L 322.476135 -262.588305 
L 320.121897 -262.032864 
L 317.68784 -257.335912 
L 315.168359 -256.869783 
L 312.557242 -255.497274 
L 309.847569 -253.398274 
L 307.031607 -252.312638 
L 304.100677 -250.166614 
L 301.04499 -246.556245 
L 297.85345 -253.814855 
L 294.513415 -253.107929 
L 291.010388 -252.060165 
L 287.327641 -246.076546 
L 283.445733 -246.076546 
L 279.341883 -246.101793 
L 274.989168 -244.889921 
L 270.355443 -244.814179 
L 265.401906 -245.723083 
L 260.081115 -245.596846 
L 254.334223 -244.347103 
L 248.086996 -239.941442 
L 241.243934 -238.603333 
L 233.679279 -240.154467 
L 225.222714 -237.997397 
L 215.635452 -237.618687 
L 204.567769 -232.34799 
L 191.47748 -224.717297 
L 175.45626 -172.682532 
L 154.801316 -79.974304 
L 125.689806 -49.702745 
L 75.923352 -49.677497 
z
" id="m5ee0d3fd2d" style="stroke:#1f77b4;stroke-opacity:0.2;"/>
    </defs>
    <g clip-path="url(#pad03dce902)">
     <use style="fill:#1f77b4;fill-opacity:0.2;stroke:#1f77b4;stroke-opacity:0.2;" x="0" xlink:href="#m5ee0d3fd2d" y="325.986375"/>
    </g>
   </g>
   <g id="PolyCollection_2">
    <defs>
     <path d="M 75.923352 -49.677497 
L 75.923352 -49.65225 
L 125.689806 -49.677497 
L 154.801316 -49.677497 
L 175.45626 -49.677497 
L 191.47748 -49.677497 
L 204.567769 -49.677497 
L 215.635452 -49.677497 
L 225.222714 -49.677497 
L 233.679279 -49.677497 
L 241.243934 -49.677497 
L 248.086996 -49.677497 
L 254.334223 -49.677497 
L 260.081115 -49.677497 
L 265.401906 -49.677497 
L 270.355443 -49.677497 
L 274.989168 -49.677497 
L 279.341883 -49.677497 
L 283.445733 -49.677497 
L 287.327641 -49.677497 
L 291.010388 -49.677497 
L 294.513415 -49.677497 
L 297.85345 -49.677497 
L 301.04499 -49.677497 
L 304.100677 -49.677497 
L 307.031607 -49.677497 
L 309.847569 -49.803734 
L 312.557242 -69.799626 
L 315.168359 -71.112488 
L 317.68784 -60.824197 
L 320.121897 -63.980115 
L 322.476135 -78.863421 
L 324.755622 -65.191987 
L 326.96496 -91.537585 
L 329.108337 -155.211373 
L 331.189579 -168.466226 
L 333.212187 -188.26014 
L 335.179373 -223.353941 
L 337.094095 -234.46277 
L 338.959078 -235.5989 
L 340.776842 -237.795418 
L 342.549717 -238.325613 
L 344.279869 -241.077572 
L 345.969307 -242.642907 
L 347.619904 -244.637447 
L 349.233406 -244.889921 
L 350.811444 -245.016157 
L 352.355542 -245.36962 
L 353.867131 -245.596846 
L 355.347551 -245.394867 
L 356.798061 -245.394867 
L 358.219847 -245.394867 
L 359.614023 -245.394867 
L 360.981642 -245.394867 
L 362.323696 -245.394867 
L 363.641124 -245.394867 
L 364.934813 -245.394867 
L 366.205604 -245.394867 
L 367.454294 -245.420115 
L 368.681636 -245.420115 
L 369.888351 -245.420115 
L 371.075119 -245.445362 
L 372.242589 -245.445362 
L 373.391378 -245.445362 
L 374.522076 -245.445362 
L 375.635243 -245.445362 
L 376.731414 -245.445362 
L 377.8111 -245.445362 
L 378.874791 -245.445362 
L 379.922953 -245.445362 
L 380.956033 -245.445362 
L 381.974459 -245.445362 
L 382.978641 -245.445362 
L 383.968971 -245.445362 
L 384.945827 -245.445362 
L 385.909571 -245.445362 
L 386.860549 -245.445362 
L 387.799096 -245.445362 
L 388.725532 -245.445362 
L 389.640166 -245.445362 
L 390.543295 -246.000804 
L 391.435205 -246.000804 
L 392.316171 -246.000804 
L 393.186458 -246.000804 
L 394.046323 -245.723083 
L 394.896011 -245.723083 
L 395.735761 -245.98818 
L 396.565803 -246.026051 
L 397.386358 -245.98818 
L 398.197642 -246.026051 
L 398.99986 -245.735706 
L 399.793214 -245.98818 
L 400.577898 -245.735706 
L 400.577898 -278.355268 
L 400.577898 -278.355268 
L 399.793214 -278.532 
L 398.99986 -276.550083 
L 398.197642 -275.893653 
L 397.386358 -276.701567 
L 396.565803 -276.575331 
L 395.735761 -276.070384 
L 394.896011 -275.123609 
L 394.046323 -276.070384 
L 393.186458 -269.354592 
L 392.316171 -269.354592 
L 391.435205 -269.354592 
L 390.543295 -269.354592 
L 389.640166 -269.354592 
L 388.725532 -269.354592 
L 387.799096 -269.329345 
L 386.860549 -269.329345 
L 385.909571 -269.203108 
L 384.945827 -269.177861 
L 383.968971 -269.152613 
L 382.978641 -268.698161 
L 381.974459 -268.698161 
L 380.956033 -268.672914 
L 379.922953 -268.672914 
L 378.874791 -268.672914 
L 377.8111 -268.672914 
L 376.731414 -268.319451 
L 375.635243 -268.319451 
L 374.522076 -268.294204 
L 373.391378 -268.243709 
L 372.242589 -268.243709 
L 371.075119 -267.915494 
L 369.888351 -267.031837 
L 368.681636 -267.031837 
L 367.454294 -267.031837 
L 366.205604 -267.031837 
L 364.934813 -267.208568 
L 363.641124 -267.208568 
L 362.323696 -267.208568 
L 360.981642 -267.208568 
L 359.614023 -267.208568 
L 358.219847 -267.208568 
L 356.798061 -267.208568 
L 355.347551 -267.208568 
L 353.867131 -267.031837 
L 352.355542 -266.678374 
L 350.811444 -266.678374 
L 349.233406 -266.678374 
L 347.619904 -266.52689 
L 345.969307 -266.52689 
L 344.279869 -266.097685 
L 342.549717 -265.946201 
L 340.776842 -265.819964 
L 338.959078 -265.819964 
L 337.094095 -265.643233 
L 335.179373 -265.617986 
L 333.212187 -265.491749 
L 331.189579 -264.683834 
L 329.108337 -264.582845 
L 326.96496 -264.582845 
L 324.755622 -265.037297 
L 322.476135 -264.703085 
L 320.121897 -264.696458 
L 317.68784 -264.734329 
L 315.168359 -263.850672 
L 312.557242 -263.724435 
L 309.847569 -263.39622 
L 307.031607 -263.320478 
L 304.100677 -262.941768 
L 301.04499 -262.184348 
L 297.85345 -261.906627 
L 294.513415 -260.215055 
L 291.010388 -258.775957 
L 287.327641 -257.437848 
L 283.445733 -258.876946 
L 279.341883 -255.62004 
L 274.989168 -254.307178 
L 270.355443 -254.180941 
L 265.401906 -251.050271 
L 260.081115 -250.419088 
L 254.334223 -245.495857 
L 248.086996 -241.86024 
L 241.243934 -243.553074 
L 233.679279 -239.158775 
L 225.222714 -238.249871 
L 215.635452 -235.725137 
L 204.567769 -230.246464 
L 191.47748 -216.385675 
L 175.45626 -175.434492 
L 154.801316 -72.501092 
L 125.689806 -62.957598 
L 75.923352 -49.677497 
z
" id="mbd05524b55" style="stroke:#98df8a;stroke-opacity:0.2;"/>
    </defs>
    <g clip-path="url(#pad03dce902)">
     <use style="fill:#98df8a;fill-opacity:0.2;stroke:#98df8a;stroke-opacity:0.2;" x="0" xlink:href="#mbd05524b55" y="325.986375"/>
    </g>
   </g>
   <g id="matplotlib.axis_1">
    <g id="xtick_1">
     <g id="line2d_1">
      <defs>
       <path d="M 0 0 
L 0 3.5 
" id="m316b4e5b33" style="stroke:#000000;stroke-width:0.8;"/>
      </defs>
      <g>
       <use style="stroke:#000000;stroke-width:0.8;" x="75.923352" xlink:href="#m316b4e5b33" y="288.430125"/>
      </g>
     </g>
     <g id="text_1">
      <!-- 14m -->
      <g transform="translate(64.69054 303.028562)scale(0.1 -0.1)">
       <defs>
        <path d="M 794 531 
L 1825 531 
L 1825 4091 
L 703 3866 
L 703 4441 
L 1819 4666 
L 2450 4666 
L 2450 531 
L 3481 531 
L 3481 0 
L 794 0 
L 794 531 
z
" id="DejaVuSans-31" transform="scale(0.015625)"/>
        <path d="M 2419 4116 
L 825 1625 
L 2419 1625 
L 2419 4116 
z
M 2253 4666 
L 3047 4666 
L 3047 1625 
L 3713 1625 
L 3713 1100 
L 3047 1100 
L 3047 0 
L 2419 0 
L 2419 1100 
L 313 1100 
L 313 1709 
L 2253 4666 
z
" id="DejaVuSans-34" transform="scale(0.015625)"/>
        <path d="M 3328 2828 
Q 3544 3216 3844 3400 
Q 4144 3584 4550 3584 
Q 5097 3584 5394 3201 
Q 5691 2819 5691 2113 
L 5691 0 
L 5113 0 
L 5113 2094 
Q 5113 2597 4934 2840 
Q 4756 3084 4391 3084 
Q 3944 3084 3684 2787 
Q 3425 2491 3425 1978 
L 3425 0 
L 2847 0 
L 2847 2094 
Q 2847 2600 2669 2842 
Q 2491 3084 2119 3084 
Q 1678 3084 1418 2786 
Q 1159 2488 1159 1978 
L 1159 0 
L 581 0 
L 581 3500 
L 1159 3500 
L 1159 2956 
Q 1356 3278 1631 3431 
Q 1906 3584 2284 3584 
Q 2666 3584 2933 3390 
Q 3200 3197 3328 2828 
z
" id="DejaVuSans-6d" transform="scale(0.015625)"/>
       </defs>
       <use xlink:href="#DejaVuSans-31"/>
       <use x="63.623047" xlink:href="#DejaVuSans-34"/>
       <use x="127.246094" xlink:href="#DejaVuSans-6d"/>
      </g>
     </g>
    </g>
    <g id="xtick_2">
     <g id="line2d_2">
      <g>
       <use style="stroke:#000000;stroke-width:0.8;" x="140.854435" xlink:href="#m316b4e5b33" y="288.430125"/>
      </g>
     </g>
     <g id="text_2">
      <!-- 37m -->
      <g transform="translate(129.621622 303.028562)scale(0.1 -0.1)">
       <defs>
        <path d="M 2597 2516 
Q 3050 2419 3304 2112 
Q 3559 1806 3559 1356 
Q 3559 666 3084 287 
Q 2609 -91 1734 -91 
Q 1441 -91 1130 -33 
Q 819 25 488 141 
L 488 750 
Q 750 597 1062 519 
Q 1375 441 1716 441 
Q 2309 441 2620 675 
Q 2931 909 2931 1356 
Q 2931 1769 2642 2001 
Q 2353 2234 1838 2234 
L 1294 2234 
L 1294 2753 
L 1863 2753 
Q 2328 2753 2575 2939 
Q 2822 3125 2822 3475 
Q 2822 3834 2567 4026 
Q 2313 4219 1838 4219 
Q 1578 4219 1281 4162 
Q 984 4106 628 3988 
L 628 4550 
Q 988 4650 1302 4700 
Q 1616 4750 1894 4750 
Q 2613 4750 3031 4423 
Q 3450 4097 3450 3541 
Q 3450 3153 3228 2886 
Q 3006 2619 2597 2516 
z
" id="DejaVuSans-33" transform="scale(0.015625)"/>
        <path d="M 525 4666 
L 3525 4666 
L 3525 4397 
L 1831 0 
L 1172 0 
L 2766 4134 
L 525 4134 
L 525 4666 
z
" id="DejaVuSans-37" transform="scale(0.015625)"/>
       </defs>
       <use xlink:href="#DejaVuSans-33"/>
       <use x="63.623047" xlink:href="#DejaVuSans-37"/>
       <use x="127.246094" xlink:href="#DejaVuSans-6d"/>
      </g>
     </g>
    </g>
    <g id="xtick_3">
     <g id="line2d_3">
      <g>
       <use style="stroke:#000000;stroke-width:0.8;" x="205.785517" xlink:href="#m316b4e5b33" y="288.430125"/>
      </g>
     </g>
     <g id="text_3">
      <!-- 1h:31m -->
      <g transform="translate(186.51833 303.028562)scale(0.1 -0.1)">
       <defs>
        <path d="M 3513 2113 
L 3513 0 
L 2938 0 
L 2938 2094 
Q 2938 2591 2744 2837 
Q 2550 3084 2163 3084 
Q 1697 3084 1428 2787 
Q 1159 2491 1159 1978 
L 1159 0 
L 581 0 
L 581 4863 
L 1159 4863 
L 1159 2956 
Q 1366 3272 1645 3428 
Q 1925 3584 2291 3584 
Q 2894 3584 3203 3211 
Q 3513 2838 3513 2113 
z
" id="DejaVuSans-68" transform="scale(0.015625)"/>
        <path d="M 750 794 
L 1409 794 
L 1409 0 
L 750 0 
L 750 794 
z
M 750 3309 
L 1409 3309 
L 1409 2516 
L 750 2516 
L 750 3309 
z
" id="DejaVuSans-3a" transform="scale(0.015625)"/>
       </defs>
       <use xlink:href="#DejaVuSans-31"/>
       <use x="63.623047" xlink:href="#DejaVuSans-68"/>
       <use x="127.001953" xlink:href="#DejaVuSans-3a"/>
       <use x="160.693359" xlink:href="#DejaVuSans-33"/>
       <use x="224.316406" xlink:href="#DejaVuSans-31"/>
       <use x="287.939453" xlink:href="#DejaVuSans-6d"/>
      </g>
     </g>
    </g>
    <g id="xtick_4">
     <g id="line2d_4">
      <g>
       <use style="stroke:#000000;stroke-width:0.8;" x="270.7166" xlink:href="#m316b4e5b33" y="288.430125"/>
      </g>
     </g>
     <g id="text_4">
      <!-- 3h:46m -->
      <g transform="translate(251.449412 303.028562)scale(0.1 -0.1)">
       <defs>
        <path d="M 2113 2584 
Q 1688 2584 1439 2293 
Q 1191 2003 1191 1497 
Q 1191 994 1439 701 
Q 1688 409 2113 409 
Q 2538 409 2786 701 
Q 3034 994 3034 1497 
Q 3034 2003 2786 2293 
Q 2538 2584 2113 2584 
z
M 3366 4563 
L 3366 3988 
Q 3128 4100 2886 4159 
Q 2644 4219 2406 4219 
Q 1781 4219 1451 3797 
Q 1122 3375 1075 2522 
Q 1259 2794 1537 2939 
Q 1816 3084 2150 3084 
Q 2853 3084 3261 2657 
Q 3669 2231 3669 1497 
Q 3669 778 3244 343 
Q 2819 -91 2113 -91 
Q 1303 -91 875 529 
Q 447 1150 447 2328 
Q 447 3434 972 4092 
Q 1497 4750 2381 4750 
Q 2619 4750 2861 4703 
Q 3103 4656 3366 4563 
z
" id="DejaVuSans-36" transform="scale(0.015625)"/>
       </defs>
       <use xlink:href="#DejaVuSans-33"/>
       <use x="63.623047" xlink:href="#DejaVuSans-68"/>
       <use x="127.001953" xlink:href="#DejaVuSans-3a"/>
       <use x="160.693359" xlink:href="#DejaVuSans-34"/>
       <use x="224.316406" xlink:href="#DejaVuSans-36"/>
       <use x="287.939453" xlink:href="#DejaVuSans-6d"/>
      </g>
     </g>
    </g>
    <g id="xtick_5">
     <g id="line2d_5">
      <g>
       <use style="stroke:#000000;stroke-width:0.8;" x="335.647682" xlink:href="#m316b4e5b33" y="288.430125"/>
      </g>
     </g>
     <g id="text_5">
      <!-- 9h:18m -->
      <g transform="translate(316.380495 303.028562)scale(0.1 -0.1)">
       <defs>
        <path d="M 703 97 
L 703 672 
Q 941 559 1184 500 
Q 1428 441 1663 441 
Q 2288 441 2617 861 
Q 2947 1281 2994 2138 
Q 2813 1869 2534 1725 
Q 2256 1581 1919 1581 
Q 1219 1581 811 2004 
Q 403 2428 403 3163 
Q 403 3881 828 4315 
Q 1253 4750 1959 4750 
Q 2769 4750 3195 4129 
Q 3622 3509 3622 2328 
Q 3622 1225 3098 567 
Q 2575 -91 1691 -91 
Q 1453 -91 1209 -44 
Q 966 3 703 97 
z
M 1959 2075 
Q 2384 2075 2632 2365 
Q 2881 2656 2881 3163 
Q 2881 3666 2632 3958 
Q 2384 4250 1959 4250 
Q 1534 4250 1286 3958 
Q 1038 3666 1038 3163 
Q 1038 2656 1286 2365 
Q 1534 2075 1959 2075 
z
" id="DejaVuSans-39" transform="scale(0.015625)"/>
        <path d="M 2034 2216 
Q 1584 2216 1326 1975 
Q 1069 1734 1069 1313 
Q 1069 891 1326 650 
Q 1584 409 2034 409 
Q 2484 409 2743 651 
Q 3003 894 3003 1313 
Q 3003 1734 2745 1975 
Q 2488 2216 2034 2216 
z
M 1403 2484 
Q 997 2584 770 2862 
Q 544 3141 544 3541 
Q 544 4100 942 4425 
Q 1341 4750 2034 4750 
Q 2731 4750 3128 4425 
Q 3525 4100 3525 3541 
Q 3525 3141 3298 2862 
Q 3072 2584 2669 2484 
Q 3125 2378 3379 2068 
Q 3634 1759 3634 1313 
Q 3634 634 3220 271 
Q 2806 -91 2034 -91 
Q 1263 -91 848 271 
Q 434 634 434 1313 
Q 434 1759 690 2068 
Q 947 2378 1403 2484 
z
M 1172 3481 
Q 1172 3119 1398 2916 
Q 1625 2713 2034 2713 
Q 2441 2713 2670 2916 
Q 2900 3119 2900 3481 
Q 2900 3844 2670 4047 
Q 2441 4250 2034 4250 
Q 1625 4250 1398 4047 
Q 1172 3844 1172 3481 
z
" id="DejaVuSans-38" transform="scale(0.015625)"/>
       </defs>
       <use xlink:href="#DejaVuSans-39"/>
       <use x="63.623047" xlink:href="#DejaVuSans-68"/>
       <use x="127.001953" xlink:href="#DejaVuSans-3a"/>
       <use x="160.693359" xlink:href="#DejaVuSans-31"/>
       <use x="224.316406" xlink:href="#DejaVuSans-38"/>
       <use x="287.939453" xlink:href="#DejaVuSans-6d"/>
      </g>
     </g>
    </g>
    <g id="xtick_6">
     <g id="line2d_6">
      <g>
       <use style="stroke:#000000;stroke-width:0.8;" x="400.578765" xlink:href="#m316b4e5b33" y="288.430125"/>
      </g>
     </g>
     <g id="text_6">
      <!-- 23h -->
      <g transform="translate(391.047515 303.028562)scale(0.1 -0.1)">
       <defs>
        <path d="M 1228 531 
L 3431 531 
L 3431 0 
L 469 0 
L 469 531 
Q 828 903 1448 1529 
Q 2069 2156 2228 2338 
Q 2531 2678 2651 2914 
Q 2772 3150 2772 3378 
Q 2772 3750 2511 3984 
Q 2250 4219 1831 4219 
Q 1534 4219 1204 4116 
Q 875 4013 500 3803 
L 500 4441 
Q 881 4594 1212 4672 
Q 1544 4750 1819 4750 
Q 2544 4750 2975 4387 
Q 3406 4025 3406 3419 
Q 3406 3131 3298 2873 
Q 3191 2616 2906 2266 
Q 2828 2175 2409 1742 
Q 1991 1309 1228 531 
z
" id="DejaVuSans-32" transform="scale(0.015625)"/>
       </defs>
       <use xlink:href="#DejaVuSans-32"/>
       <use x="63.623047" xlink:href="#DejaVuSans-33"/>
       <use x="127.246094" xlink:href="#DejaVuSans-68"/>
      </g>
     </g>
    </g>
    <g id="xtick_7">
     <g id="line2d_7">
      <defs>
       <path d="M 0 0 
L 0 2 
" id="mbae98a5f3a" style="stroke:#000000;stroke-width:0.6;"/>
      </defs>
      <g>
       <use style="stroke:#000000;stroke-width:0.6;" x="67.466788" xlink:href="#mbae98a5f3a" y="288.430125"/>
      </g>
     </g>
    </g>
    <g id="xtick_8">
     <g id="line2d_8">
      <g>
       <use style="stroke:#000000;stroke-width:0.6;" x="133.254461" xlink:href="#mbae98a5f3a" y="288.430125"/>
      </g>
     </g>
    </g>
    <g id="xtick_9">
     <g id="line2d_9">
      <g>
       <use style="stroke:#000000;stroke-width:0.6;" x="162.36597" xlink:href="#mbae98a5f3a" y="288.430125"/>
      </g>
     </g>
    </g>
    <g id="xtick_10">
     <g id="line2d_10">
      <g>
       <use style="stroke:#000000;stroke-width:0.6;" x="183.020915" xlink:href="#mbae98a5f3a" y="288.430125"/>
      </g>
     </g>
    </g>
    <g id="xtick_11">
     <g id="line2d_11">
      <g>
       <use style="stroke:#000000;stroke-width:0.6;" x="199.042135" xlink:href="#mbae98a5f3a" y="288.430125"/>
      </g>
     </g>
    </g>
    <g id="xtick_12">
     <g id="line2d_12">
      <g>
       <use style="stroke:#000000;stroke-width:0.6;" x="212.132424" xlink:href="#mbae98a5f3a" y="288.430125"/>
      </g>
     </g>
    </g>
    <g id="xtick_13">
     <g id="line2d_13">
      <g>
       <use style="stroke:#000000;stroke-width:0.6;" x="223.200107" xlink:href="#mbae98a5f3a" y="288.430125"/>
      </g>
     </g>
    </g>
    <g id="xtick_14">
     <g id="line2d_14">
      <g>
       <use style="stroke:#000000;stroke-width:0.6;" x="232.787369" xlink:href="#mbae98a5f3a" y="288.430125"/>
      </g>
     </g>
    </g>
    <g id="xtick_15">
     <g id="line2d_15">
      <g>
       <use style="stroke:#000000;stroke-width:0.6;" x="241.243934" xlink:href="#mbae98a5f3a" y="288.430125"/>
      </g>
     </g>
    </g>
    <g id="xtick_16">
     <g id="line2d_16">
      <g>
       <use style="stroke:#000000;stroke-width:0.6;" x="298.575043" xlink:href="#mbae98a5f3a" y="288.430125"/>
      </g>
     </g>
    </g>
    <g id="xtick_17">
     <g id="line2d_17">
      <g>
       <use style="stroke:#000000;stroke-width:0.6;" x="327.686552" xlink:href="#mbae98a5f3a" y="288.430125"/>
      </g>
     </g>
    </g>
    <g id="xtick_18">
     <g id="line2d_18">
      <g>
       <use style="stroke:#000000;stroke-width:0.6;" x="348.341496" xlink:href="#mbae98a5f3a" y="288.430125"/>
      </g>
     </g>
    </g>
    <g id="xtick_19">
     <g id="line2d_19">
      <g>
       <use style="stroke:#000000;stroke-width:0.6;" x="364.362716" xlink:href="#mbae98a5f3a" y="288.430125"/>
      </g>
     </g>
    </g>
    <g id="xtick_20">
     <g id="line2d_20">
      <g>
       <use style="stroke:#000000;stroke-width:0.6;" x="377.453006" xlink:href="#mbae98a5f3a" y="288.430125"/>
      </g>
     </g>
    </g>
    <g id="xtick_21">
     <g id="line2d_21">
      <g>
       <use style="stroke:#000000;stroke-width:0.6;" x="388.520688" xlink:href="#mbae98a5f3a" y="288.430125"/>
      </g>
     </g>
    </g>
    <g id="xtick_22">
     <g id="line2d_22">
      <g>
       <use style="stroke:#000000;stroke-width:0.6;" x="398.10795" xlink:href="#mbae98a5f3a" y="288.430125"/>
      </g>
     </g>
    </g>
    <g id="xtick_23">
     <g id="line2d_23">
      <g>
       <use style="stroke:#000000;stroke-width:0.6;" x="406.564515" xlink:href="#mbae98a5f3a" y="288.430125"/>
      </g>
     </g>
    </g>
    <g id="text_7">
     <!-- Time (hour:minute) -->
     <g transform="translate(189.843594 316.706687)scale(0.1 -0.1)">
      <defs>
       <path d="M -19 4666 
L 3928 4666 
L 3928 4134 
L 2272 4134 
L 2272 0 
L 1638 0 
L 1638 4134 
L -19 4134 
L -19 4666 
z
" id="DejaVuSans-54" transform="scale(0.015625)"/>
       <path d="M 603 3500 
L 1178 3500 
L 1178 0 
L 603 0 
L 603 3500 
z
M 603 4863 
L 1178 4863 
L 1178 4134 
L 603 4134 
L 603 4863 
z
" id="DejaVuSans-69" transform="scale(0.015625)"/>
       <path d="M 3597 1894 
L 3597 1613 
L 953 1613 
Q 991 1019 1311 708 
Q 1631 397 2203 397 
Q 2534 397 2845 478 
Q 3156 559 3463 722 
L 3463 178 
Q 3153 47 2828 -22 
Q 2503 -91 2169 -91 
Q 1331 -91 842 396 
Q 353 884 353 1716 
Q 353 2575 817 3079 
Q 1281 3584 2069 3584 
Q 2775 3584 3186 3129 
Q 3597 2675 3597 1894 
z
M 3022 2063 
Q 3016 2534 2758 2815 
Q 2500 3097 2075 3097 
Q 1594 3097 1305 2825 
Q 1016 2553 972 2059 
L 3022 2063 
z
" id="DejaVuSans-65" transform="scale(0.015625)"/>
       <path id="DejaVuSans-20" transform="scale(0.015625)"/>
       <path d="M 1984 4856 
Q 1566 4138 1362 3434 
Q 1159 2731 1159 2009 
Q 1159 1288 1364 580 
Q 1569 -128 1984 -844 
L 1484 -844 
Q 1016 -109 783 600 
Q 550 1309 550 2009 
Q 550 2706 781 3412 
Q 1013 4119 1484 4856 
L 1984 4856 
z
" id="DejaVuSans-28" transform="scale(0.015625)"/>
       <path d="M 1959 3097 
Q 1497 3097 1228 2736 
Q 959 2375 959 1747 
Q 959 1119 1226 758 
Q 1494 397 1959 397 
Q 2419 397 2687 759 
Q 2956 1122 2956 1747 
Q 2956 2369 2687 2733 
Q 2419 3097 1959 3097 
z
M 1959 3584 
Q 2709 3584 3137 3096 
Q 3566 2609 3566 1747 
Q 3566 888 3137 398 
Q 2709 -91 1959 -91 
Q 1206 -91 779 398 
Q 353 888 353 1747 
Q 353 2609 779 3096 
Q 1206 3584 1959 3584 
z
" id="DejaVuSans-6f" transform="scale(0.015625)"/>
       <path d="M 544 1381 
L 544 3500 
L 1119 3500 
L 1119 1403 
Q 1119 906 1312 657 
Q 1506 409 1894 409 
Q 2359 409 2629 706 
Q 2900 1003 2900 1516 
L 2900 3500 
L 3475 3500 
L 3475 0 
L 2900 0 
L 2900 538 
Q 2691 219 2414 64 
Q 2138 -91 1772 -91 
Q 1169 -91 856 284 
Q 544 659 544 1381 
z
M 1991 3584 
L 1991 3584 
z
" id="DejaVuSans-75" transform="scale(0.015625)"/>
       <path d="M 2631 2963 
Q 2534 3019 2420 3045 
Q 2306 3072 2169 3072 
Q 1681 3072 1420 2755 
Q 1159 2438 1159 1844 
L 1159 0 
L 581 0 
L 581 3500 
L 1159 3500 
L 1159 2956 
Q 1341 3275 1631 3429 
Q 1922 3584 2338 3584 
Q 2397 3584 2469 3576 
Q 2541 3569 2628 3553 
L 2631 2963 
z
" id="DejaVuSans-72" transform="scale(0.015625)"/>
       <path d="M 3513 2113 
L 3513 0 
L 2938 0 
L 2938 2094 
Q 2938 2591 2744 2837 
Q 2550 3084 2163 3084 
Q 1697 3084 1428 2787 
Q 1159 2491 1159 1978 
L 1159 0 
L 581 0 
L 581 3500 
L 1159 3500 
L 1159 2956 
Q 1366 3272 1645 3428 
Q 1925 3584 2291 3584 
Q 2894 3584 3203 3211 
Q 3513 2838 3513 2113 
z
" id="DejaVuSans-6e" transform="scale(0.015625)"/>
       <path d="M 1172 4494 
L 1172 3500 
L 2356 3500 
L 2356 3053 
L 1172 3053 
L 1172 1153 
Q 1172 725 1289 603 
Q 1406 481 1766 481 
L 2356 481 
L 2356 0 
L 1766 0 
Q 1100 0 847 248 
Q 594 497 594 1153 
L 594 3053 
L 172 3053 
L 172 3500 
L 594 3500 
L 594 4494 
L 1172 4494 
z
" id="DejaVuSans-74" transform="scale(0.015625)"/>
       <path d="M 513 4856 
L 1013 4856 
Q 1481 4119 1714 3412 
Q 1947 2706 1947 2009 
Q 1947 1309 1714 600 
Q 1481 -109 1013 -844 
L 513 -844 
Q 928 -128 1133 580 
Q 1338 1288 1338 2009 
Q 1338 2731 1133 3434 
Q 928 4138 513 4856 
z
" id="DejaVuSans-29" transform="scale(0.015625)"/>
      </defs>
      <use xlink:href="#DejaVuSans-54"/>
      <use x="57.958984" xlink:href="#DejaVuSans-69"/>
      <use x="85.742188" xlink:href="#DejaVuSans-6d"/>
      <use x="183.154297" xlink:href="#DejaVuSans-65"/>
      <use x="244.677734" xlink:href="#DejaVuSans-20"/>
      <use x="276.464844" xlink:href="#DejaVuSans-28"/>
      <use x="315.478516" xlink:href="#DejaVuSans-68"/>
      <use x="378.857422" xlink:href="#DejaVuSans-6f"/>
      <use x="440.039062" xlink:href="#DejaVuSans-75"/>
      <use x="503.417969" xlink:href="#DejaVuSans-72"/>
      <use x="542.78125" xlink:href="#DejaVuSans-3a"/>
      <use x="576.472656" xlink:href="#DejaVuSans-6d"/>
      <use x="673.884766" xlink:href="#DejaVuSans-69"/>
      <use x="701.667969" xlink:href="#DejaVuSans-6e"/>
      <use x="765.046875" xlink:href="#DejaVuSans-75"/>
      <use x="828.425781" xlink:href="#DejaVuSans-74"/>
      <use x="867.634766" xlink:href="#DejaVuSans-65"/>
      <use x="929.158203" xlink:href="#DejaVuSans-29"/>
     </g>
    </g>
   </g>
   <g id="matplotlib.axis_2">
    <g id="ytick_1">
     <g id="line2d_24">
      <defs>
       <path d="M 0 0 
L -3.5 0 
" id="mc98e4c11d9" style="stroke:#000000;stroke-width:0.8;"/>
      </defs>
      <g>
       <use style="stroke:#000000;stroke-width:0.8;" x="59.690625" xlink:href="#mc98e4c11d9" y="249.874914"/>
      </g>
     </g>
     <g id="text_8">
      <!-- 2000 -->
      <g transform="translate(27.240625 253.674133)scale(0.1 -0.1)">
       <defs>
        <path d="M 2034 4250 
Q 1547 4250 1301 3770 
Q 1056 3291 1056 2328 
Q 1056 1369 1301 889 
Q 1547 409 2034 409 
Q 2525 409 2770 889 
Q 3016 1369 3016 2328 
Q 3016 3291 2770 3770 
Q 2525 4250 2034 4250 
z
M 2034 4750 
Q 2819 4750 3233 4129 
Q 3647 3509 3647 2328 
Q 3647 1150 3233 529 
Q 2819 -91 2034 -91 
Q 1250 -91 836 529 
Q 422 1150 422 2328 
Q 422 3509 836 4129 
Q 1250 4750 2034 4750 
z
" id="DejaVuSans-30" transform="scale(0.015625)"/>
       </defs>
       <use xlink:href="#DejaVuSans-32"/>
       <use x="63.623047" xlink:href="#DejaVuSans-30"/>
       <use x="127.246094" xlink:href="#DejaVuSans-30"/>
       <use x="190.869141" xlink:href="#DejaVuSans-30"/>
      </g>
     </g>
    </g>
    <g id="ytick_2">
     <g id="line2d_25">
      <g>
       <use style="stroke:#000000;stroke-width:0.8;" x="59.690625" xlink:href="#mc98e4c11d9" y="199.380236"/>
      </g>
     </g>
     <g id="text_9">
      <!-- 4000 -->
      <g transform="translate(27.240625 203.179455)scale(0.1 -0.1)">
       <use xlink:href="#DejaVuSans-34"/>
       <use x="63.623047" xlink:href="#DejaVuSans-30"/>
       <use x="127.246094" xlink:href="#DejaVuSans-30"/>
       <use x="190.869141" xlink:href="#DejaVuSans-30"/>
      </g>
     </g>
    </g>
    <g id="ytick_3">
     <g id="line2d_26">
      <g>
       <use style="stroke:#000000;stroke-width:0.8;" x="59.690625" xlink:href="#mc98e4c11d9" y="148.885559"/>
      </g>
     </g>
     <g id="text_10">
      <!-- 6000 -->
      <g transform="translate(27.240625 152.684778)scale(0.1 -0.1)">
       <use xlink:href="#DejaVuSans-36"/>
       <use x="63.623047" xlink:href="#DejaVuSans-30"/>
       <use x="127.246094" xlink:href="#DejaVuSans-30"/>
       <use x="190.869141" xlink:href="#DejaVuSans-30"/>
      </g>
     </g>
    </g>
    <g id="ytick_4">
     <g id="line2d_27">
      <g>
       <use style="stroke:#000000;stroke-width:0.8;" x="59.690625" xlink:href="#mc98e4c11d9" y="98.390881"/>
      </g>
     </g>
     <g id="text_11">
      <!-- 8000 -->
      <g transform="translate(27.240625 102.1901)scale(0.1 -0.1)">
       <use xlink:href="#DejaVuSans-38"/>
       <use x="63.623047" xlink:href="#DejaVuSans-30"/>
       <use x="127.246094" xlink:href="#DejaVuSans-30"/>
       <use x="190.869141" xlink:href="#DejaVuSans-30"/>
      </g>
     </g>
    </g>
    <g id="ytick_5">
     <g id="line2d_28">
      <g>
       <use style="stroke:#000000;stroke-width:0.8;" x="59.690625" xlink:href="#mc98e4c11d9" y="47.896204"/>
      </g>
     </g>
     <g id="text_12">
      <!-- 10000 -->
      <g transform="translate(20.878125 51.695423)scale(0.1 -0.1)">
       <use xlink:href="#DejaVuSans-31"/>
       <use x="63.623047" xlink:href="#DejaVuSans-30"/>
       <use x="127.246094" xlink:href="#DejaVuSans-30"/>
       <use x="190.869141" xlink:href="#DejaVuSans-30"/>
       <use x="254.492188" xlink:href="#DejaVuSans-30"/>
      </g>
     </g>
    </g>
    <g id="text_13">
     <!-- Code region coverage -->
     <g transform="translate(14.798438 210.379594)rotate(-90)scale(0.1 -0.1)">
      <defs>
       <path d="M 4122 4306 
L 4122 3641 
Q 3803 3938 3442 4084 
Q 3081 4231 2675 4231 
Q 1875 4231 1450 3742 
Q 1025 3253 1025 2328 
Q 1025 1406 1450 917 
Q 1875 428 2675 428 
Q 3081 428 3442 575 
Q 3803 722 4122 1019 
L 4122 359 
Q 3791 134 3420 21 
Q 3050 -91 2638 -91 
Q 1578 -91 968 557 
Q 359 1206 359 2328 
Q 359 3453 968 4101 
Q 1578 4750 2638 4750 
Q 3056 4750 3426 4639 
Q 3797 4528 4122 4306 
z
" id="DejaVuSans-43" transform="scale(0.015625)"/>
       <path d="M 2906 2969 
L 2906 4863 
L 3481 4863 
L 3481 0 
L 2906 0 
L 2906 525 
Q 2725 213 2448 61 
Q 2172 -91 1784 -91 
Q 1150 -91 751 415 
Q 353 922 353 1747 
Q 353 2572 751 3078 
Q 1150 3584 1784 3584 
Q 2172 3584 2448 3432 
Q 2725 3281 2906 2969 
z
M 947 1747 
Q 947 1113 1208 752 
Q 1469 391 1925 391 
Q 2381 391 2643 752 
Q 2906 1113 2906 1747 
Q 2906 2381 2643 2742 
Q 2381 3103 1925 3103 
Q 1469 3103 1208 2742 
Q 947 2381 947 1747 
z
" id="DejaVuSans-64" transform="scale(0.015625)"/>
       <path d="M 2906 1791 
Q 2906 2416 2648 2759 
Q 2391 3103 1925 3103 
Q 1463 3103 1205 2759 
Q 947 2416 947 1791 
Q 947 1169 1205 825 
Q 1463 481 1925 481 
Q 2391 481 2648 825 
Q 2906 1169 2906 1791 
z
M 3481 434 
Q 3481 -459 3084 -895 
Q 2688 -1331 1869 -1331 
Q 1566 -1331 1297 -1286 
Q 1028 -1241 775 -1147 
L 775 -588 
Q 1028 -725 1275 -790 
Q 1522 -856 1778 -856 
Q 2344 -856 2625 -561 
Q 2906 -266 2906 331 
L 2906 616 
Q 2728 306 2450 153 
Q 2172 0 1784 0 
Q 1141 0 747 490 
Q 353 981 353 1791 
Q 353 2603 747 3093 
Q 1141 3584 1784 3584 
Q 2172 3584 2450 3431 
Q 2728 3278 2906 2969 
L 2906 3500 
L 3481 3500 
L 3481 434 
z
" id="DejaVuSans-67" transform="scale(0.015625)"/>
       <path d="M 3122 3366 
L 3122 2828 
Q 2878 2963 2633 3030 
Q 2388 3097 2138 3097 
Q 1578 3097 1268 2742 
Q 959 2388 959 1747 
Q 959 1106 1268 751 
Q 1578 397 2138 397 
Q 2388 397 2633 464 
Q 2878 531 3122 666 
L 3122 134 
Q 2881 22 2623 -34 
Q 2366 -91 2075 -91 
Q 1284 -91 818 406 
Q 353 903 353 1747 
Q 353 2603 823 3093 
Q 1294 3584 2113 3584 
Q 2378 3584 2631 3529 
Q 2884 3475 3122 3366 
z
" id="DejaVuSans-63" transform="scale(0.015625)"/>
       <path d="M 191 3500 
L 800 3500 
L 1894 563 
L 2988 3500 
L 3597 3500 
L 2284 0 
L 1503 0 
L 191 3500 
z
" id="DejaVuSans-76" transform="scale(0.015625)"/>
       <path d="M 2194 1759 
Q 1497 1759 1228 1600 
Q 959 1441 959 1056 
Q 959 750 1161 570 
Q 1363 391 1709 391 
Q 2188 391 2477 730 
Q 2766 1069 2766 1631 
L 2766 1759 
L 2194 1759 
z
M 3341 1997 
L 3341 0 
L 2766 0 
L 2766 531 
Q 2569 213 2275 61 
Q 1981 -91 1556 -91 
Q 1019 -91 701 211 
Q 384 513 384 1019 
Q 384 1609 779 1909 
Q 1175 2209 1959 2209 
L 2766 2209 
L 2766 2266 
Q 2766 2663 2505 2880 
Q 2244 3097 1772 3097 
Q 1472 3097 1187 3025 
Q 903 2953 641 2809 
L 641 3341 
Q 956 3463 1253 3523 
Q 1550 3584 1831 3584 
Q 2591 3584 2966 3190 
Q 3341 2797 3341 1997 
z
" id="DejaVuSans-61" transform="scale(0.015625)"/>
      </defs>
      <use xlink:href="#DejaVuSans-43"/>
      <use x="69.824219" xlink:href="#DejaVuSans-6f"/>
      <use x="131.005859" xlink:href="#DejaVuSans-64"/>
      <use x="194.482422" xlink:href="#DejaVuSans-65"/>
      <use x="256.005859" xlink:href="#DejaVuSans-20"/>
      <use x="287.792969" xlink:href="#DejaVuSans-72"/>
      <use x="326.65625" xlink:href="#DejaVuSans-65"/>
      <use x="388.179688" xlink:href="#DejaVuSans-67"/>
      <use x="451.65625" xlink:href="#DejaVuSans-69"/>
      <use x="479.439453" xlink:href="#DejaVuSans-6f"/>
      <use x="540.621094" xlink:href="#DejaVuSans-6e"/>
      <use x="604" xlink:href="#DejaVuSans-20"/>
      <use x="635.787109" xlink:href="#DejaVuSans-63"/>
      <use x="690.767578" xlink:href="#DejaVuSans-6f"/>
      <use x="751.949219" xlink:href="#DejaVuSans-76"/>
      <use x="811.128906" xlink:href="#DejaVuSans-65"/>
      <use x="872.652344" xlink:href="#DejaVuSans-72"/>
      <use x="913.765625" xlink:href="#DejaVuSans-61"/>
      <use x="975.044922" xlink:href="#DejaVuSans-67"/>
      <use x="1038.521484" xlink:href="#DejaVuSans-65"/>
     </g>
    </g>
   </g>
   <g id="line2d_29">
    <path clip-path="url(#pad03dce902)" d="M 75.923352 276.308878 
L 125.689806 276.308878 
L 154.801316 276.308878 
L 175.45626 276.308878 
L 191.47748 276.308878 
L 204.567769 276.308878 
L 215.635452 276.308878 
L 225.222714 259.973849 
L 233.679279 267.674288 
L 241.243934 257.777331 
L 248.086996 255.707049 
L 254.334223 257.322879 
L 260.081115 247.956116 
L 265.401906 245.178909 
L 270.355443 217.924407 
L 274.989168 146.651169 
L 279.341883 117.75559 
L 283.445733 110.964056 
L 287.327641 101.294325 
L 291.010388 89.781539 
L 294.513415 84.189253 
L 297.85345 82.459811 
L 301.04499 81.449917 
L 304.100677 81.32368 
L 307.031607 80.869228 
L 309.847569 80.137055 
L 312.557242 80.137055 
L 315.168359 79.505872 
L 317.68784 79.404883 
L 320.121897 77.688064 
L 322.476135 75.188577 
L 324.755622 71.149003 
L 326.96496 71.628702 
L 329.108337 71.27524 
L 331.189579 67.412397 
L 333.212187 67.361902 
L 335.179373 66.15003 
L 337.094095 63.877769 
L 338.959078 62.893123 
L 340.776842 62.867876 
L 342.549717 62.867876 
L 344.279869 63.15822 
L 345.969307 62.287187 
L 347.619904 62.741639 
L 349.233406 62.741639 
L 350.811444 62.716392 
L 352.355542 62.716392 
L 353.867131 62.716392 
L 355.347551 62.312434 
L 356.798061 62.312434 
L 358.219847 62.312434 
L 359.614023 62.312434 
L 360.981642 62.312434 
L 362.323696 62.236692 
L 363.641124 62.236692 
L 364.934813 62.236692 
L 366.205604 62.236692 
L 367.454294 62.236692 
L 368.681636 62.236692 
L 369.888351 62.211445 
L 371.075119 62.16095 
L 372.242589 62.16095 
L 373.391378 62.16095 
L 374.522076 62.16095 
L 375.635243 62.16095 
L 376.731414 62.16095 
L 377.8111 62.16095 
L 378.874791 62.16095 
L 379.922953 62.16095 
L 380.956033 62.16095 
L 381.974459 62.16095 
L 382.978641 62.16095 
L 383.968971 62.135703 
L 384.945827 62.135703 
L 385.909571 61.454025 
L 386.860549 61.454025 
L 387.799096 61.327788 
L 388.725532 60.999573 
L 389.640166 59.7877 
L 390.543295 59.661464 
L 391.435205 59.661464 
L 392.316171 59.661464 
L 393.186458 59.661464 
L 394.046323 59.661464 
L 394.896011 59.661464 
L 395.735761 59.661464 
L 396.565803 59.661464 
L 397.386358 59.661464 
L 398.197642 59.661464 
L 398.99986 59.661464 
L 399.793214 59.636216 
L 400.577898 59.636216 
" style="fill:none;stroke:#1f77b4;stroke-linecap:square;stroke-width:1.5;"/>
    <defs>
     <path d="M 0 3 
C 0.795609 3 1.55874 2.683901 2.12132 2.12132 
C 2.683901 1.55874 3 0.795609 3 0 
C 3 -0.795609 2.683901 -1.55874 2.12132 -2.12132 
C 1.55874 -2.683901 0.795609 -3 0 -3 
C -0.795609 -3 -1.55874 -2.683901 -2.12132 -2.12132 
C -2.683901 -1.55874 -3 -0.795609 -3 0 
C -3 0.795609 -2.683901 1.55874 -2.12132 2.12132 
C -1.55874 2.683901 -0.795609 3 0 3 
z
" id="m3520c468d1" style="stroke:#ffffff;stroke-width:0.75;"/>
    </defs>
    <g clip-path="url(#pad03dce902)">
     <use style="fill:#1f77b4;stroke:#ffffff;stroke-width:0.75;" x="75.923352" xlink:href="#m3520c468d1" y="276.308878"/>
     <use style="fill:#1f77b4;stroke:#ffffff;stroke-width:0.75;" x="125.689806" xlink:href="#m3520c468d1" y="276.308878"/>
     <use style="fill:#1f77b4;stroke:#ffffff;stroke-width:0.75;" x="154.801316" xlink:href="#m3520c468d1" y="276.308878"/>
     <use style="fill:#1f77b4;stroke:#ffffff;stroke-width:0.75;" x="175.45626" xlink:href="#m3520c468d1" y="276.308878"/>
     <use style="fill:#1f77b4;stroke:#ffffff;stroke-width:0.75;" x="191.47748" xlink:href="#m3520c468d1" y="276.308878"/>
     <use style="fill:#1f77b4;stroke:#ffffff;stroke-width:0.75;" x="204.567769" xlink:href="#m3520c468d1" y="276.308878"/>
     <use style="fill:#1f77b4;stroke:#ffffff;stroke-width:0.75;" x="215.635452" xlink:href="#m3520c468d1" y="276.308878"/>
     <use style="fill:#1f77b4;stroke:#ffffff;stroke-width:0.75;" x="225.222714" xlink:href="#m3520c468d1" y="259.973849"/>
     <use style="fill:#1f77b4;stroke:#ffffff;stroke-width:0.75;" x="233.679279" xlink:href="#m3520c468d1" y="267.674288"/>
     <use style="fill:#1f77b4;stroke:#ffffff;stroke-width:0.75;" x="241.243934" xlink:href="#m3520c468d1" y="257.777331"/>
     <use style="fill:#1f77b4;stroke:#ffffff;stroke-width:0.75;" x="248.086996" xlink:href="#m3520c468d1" y="255.707049"/>
     <use style="fill:#1f77b4;stroke:#ffffff;stroke-width:0.75;" x="254.334223" xlink:href="#m3520c468d1" y="257.322879"/>
     <use style="fill:#1f77b4;stroke:#ffffff;stroke-width:0.75;" x="260.081115" xlink:href="#m3520c468d1" y="247.956116"/>
     <use style="fill:#1f77b4;stroke:#ffffff;stroke-width:0.75;" x="265.401906" xlink:href="#m3520c468d1" y="245.178909"/>
     <use style="fill:#1f77b4;stroke:#ffffff;stroke-width:0.75;" x="270.355443" xlink:href="#m3520c468d1" y="217.924407"/>
     <use style="fill:#1f77b4;stroke:#ffffff;stroke-width:0.75;" x="274.989168" xlink:href="#m3520c468d1" y="146.651169"/>
     <use style="fill:#1f77b4;stroke:#ffffff;stroke-width:0.75;" x="279.341883" xlink:href="#m3520c468d1" y="117.75559"/>
     <use style="fill:#1f77b4;stroke:#ffffff;stroke-width:0.75;" x="283.445733" xlink:href="#m3520c468d1" y="110.964056"/>
     <use style="fill:#1f77b4;stroke:#ffffff;stroke-width:0.75;" x="287.327641" xlink:href="#m3520c468d1" y="101.294325"/>
     <use style="fill:#1f77b4;stroke:#ffffff;stroke-width:0.75;" x="291.010388" xlink:href="#m3520c468d1" y="89.781539"/>
     <use style="fill:#1f77b4;stroke:#ffffff;stroke-width:0.75;" x="294.513415" xlink:href="#m3520c468d1" y="84.189253"/>
     <use style="fill:#1f77b4;stroke:#ffffff;stroke-width:0.75;" x="297.85345" xlink:href="#m3520c468d1" y="82.459811"/>
     <use style="fill:#1f77b4;stroke:#ffffff;stroke-width:0.75;" x="301.04499" xlink:href="#m3520c468d1" y="81.449917"/>
     <use style="fill:#1f77b4;stroke:#ffffff;stroke-width:0.75;" x="304.100677" xlink:href="#m3520c468d1" y="81.32368"/>
     <use style="fill:#1f77b4;stroke:#ffffff;stroke-width:0.75;" x="307.031607" xlink:href="#m3520c468d1" y="80.869228"/>
     <use style="fill:#1f77b4;stroke:#ffffff;stroke-width:0.75;" x="309.847569" xlink:href="#m3520c468d1" y="80.137055"/>
     <use style="fill:#1f77b4;stroke:#ffffff;stroke-width:0.75;" x="312.557242" xlink:href="#m3520c468d1" y="80.137055"/>
     <use style="fill:#1f77b4;stroke:#ffffff;stroke-width:0.75;" x="315.168359" xlink:href="#m3520c468d1" y="79.505872"/>
     <use style="fill:#1f77b4;stroke:#ffffff;stroke-width:0.75;" x="317.68784" xlink:href="#m3520c468d1" y="79.404883"/>
     <use style="fill:#1f77b4;stroke:#ffffff;stroke-width:0.75;" x="320.121897" xlink:href="#m3520c468d1" y="77.688064"/>
     <use style="fill:#1f77b4;stroke:#ffffff;stroke-width:0.75;" x="322.476135" xlink:href="#m3520c468d1" y="75.188577"/>
     <use style="fill:#1f77b4;stroke:#ffffff;stroke-width:0.75;" x="324.755622" xlink:href="#m3520c468d1" y="71.149003"/>
     <use style="fill:#1f77b4;stroke:#ffffff;stroke-width:0.75;" x="326.96496" xlink:href="#m3520c468d1" y="71.628702"/>
     <use style="fill:#1f77b4;stroke:#ffffff;stroke-width:0.75;" x="329.108337" xlink:href="#m3520c468d1" y="71.27524"/>
     <use style="fill:#1f77b4;stroke:#ffffff;stroke-width:0.75;" x="331.189579" xlink:href="#m3520c468d1" y="67.412397"/>
     <use style="fill:#1f77b4;stroke:#ffffff;stroke-width:0.75;" x="333.212187" xlink:href="#m3520c468d1" y="67.361902"/>
     <use style="fill:#1f77b4;stroke:#ffffff;stroke-width:0.75;" x="335.179373" xlink:href="#m3520c468d1" y="66.15003"/>
     <use style="fill:#1f77b4;stroke:#ffffff;stroke-width:0.75;" x="337.094095" xlink:href="#m3520c468d1" y="63.877769"/>
     <use style="fill:#1f77b4;stroke:#ffffff;stroke-width:0.75;" x="338.959078" xlink:href="#m3520c468d1" y="62.893123"/>
     <use style="fill:#1f77b4;stroke:#ffffff;stroke-width:0.75;" x="340.776842" xlink:href="#m3520c468d1" y="62.867876"/>
     <use style="fill:#1f77b4;stroke:#ffffff;stroke-width:0.75;" x="342.549717" xlink:href="#m3520c468d1" y="62.867876"/>
     <use style="fill:#1f77b4;stroke:#ffffff;stroke-width:0.75;" x="344.279869" xlink:href="#m3520c468d1" y="63.15822"/>
     <use style="fill:#1f77b4;stroke:#ffffff;stroke-width:0.75;" x="345.969307" xlink:href="#m3520c468d1" y="62.287187"/>
     <use style="fill:#1f77b4;stroke:#ffffff;stroke-width:0.75;" x="347.619904" xlink:href="#m3520c468d1" y="62.741639"/>
     <use style="fill:#1f77b4;stroke:#ffffff;stroke-width:0.75;" x="349.233406" xlink:href="#m3520c468d1" y="62.741639"/>
     <use style="fill:#1f77b4;stroke:#ffffff;stroke-width:0.75;" x="350.811444" xlink:href="#m3520c468d1" y="62.716392"/>
     <use style="fill:#1f77b4;stroke:#ffffff;stroke-width:0.75;" x="352.355542" xlink:href="#m3520c468d1" y="62.716392"/>
     <use style="fill:#1f77b4;stroke:#ffffff;stroke-width:0.75;" x="353.867131" xlink:href="#m3520c468d1" y="62.716392"/>
     <use style="fill:#1f77b4;stroke:#ffffff;stroke-width:0.75;" x="355.347551" xlink:href="#m3520c468d1" y="62.312434"/>
     <use style="fill:#1f77b4;stroke:#ffffff;stroke-width:0.75;" x="356.798061" xlink:href="#m3520c468d1" y="62.312434"/>
     <use style="fill:#1f77b4;stroke:#ffffff;stroke-width:0.75;" x="358.219847" xlink:href="#m3520c468d1" y="62.312434"/>
     <use style="fill:#1f77b4;stroke:#ffffff;stroke-width:0.75;" x="359.614023" xlink:href="#m3520c468d1" y="62.312434"/>
     <use style="fill:#1f77b4;stroke:#ffffff;stroke-width:0.75;" x="360.981642" xlink:href="#m3520c468d1" y="62.312434"/>
     <use style="fill:#1f77b4;stroke:#ffffff;stroke-width:0.75;" x="362.323696" xlink:href="#m3520c468d1" y="62.236692"/>
     <use style="fill:#1f77b4;stroke:#ffffff;stroke-width:0.75;" x="363.641124" xlink:href="#m3520c468d1" y="62.236692"/>
     <use style="fill:#1f77b4;stroke:#ffffff;stroke-width:0.75;" x="364.934813" xlink:href="#m3520c468d1" y="62.236692"/>
     <use style="fill:#1f77b4;stroke:#ffffff;stroke-width:0.75;" x="366.205604" xlink:href="#m3520c468d1" y="62.236692"/>
     <use style="fill:#1f77b4;stroke:#ffffff;stroke-width:0.75;" x="367.454294" xlink:href="#m3520c468d1" y="62.236692"/>
     <use style="fill:#1f77b4;stroke:#ffffff;stroke-width:0.75;" x="368.681636" xlink:href="#m3520c468d1" y="62.236692"/>
     <use style="fill:#1f77b4;stroke:#ffffff;stroke-width:0.75;" x="369.888351" xlink:href="#m3520c468d1" y="62.211445"/>
     <use style="fill:#1f77b4;stroke:#ffffff;stroke-width:0.75;" x="371.075119" xlink:href="#m3520c468d1" y="62.16095"/>
     <use style="fill:#1f77b4;stroke:#ffffff;stroke-width:0.75;" x="372.242589" xlink:href="#m3520c468d1" y="62.16095"/>
     <use style="fill:#1f77b4;stroke:#ffffff;stroke-width:0.75;" x="373.391378" xlink:href="#m3520c468d1" y="62.16095"/>
     <use style="fill:#1f77b4;stroke:#ffffff;stroke-width:0.75;" x="374.522076" xlink:href="#m3520c468d1" y="62.16095"/>
     <use style="fill:#1f77b4;stroke:#ffffff;stroke-width:0.75;" x="375.635243" xlink:href="#m3520c468d1" y="62.16095"/>
     <use style="fill:#1f77b4;stroke:#ffffff;stroke-width:0.75;" x="376.731414" xlink:href="#m3520c468d1" y="62.16095"/>
     <use style="fill:#1f77b4;stroke:#ffffff;stroke-width:0.75;" x="377.8111" xlink:href="#m3520c468d1" y="62.16095"/>
     <use style="fill:#1f77b4;stroke:#ffffff;stroke-width:0.75;" x="378.874791" xlink:href="#m3520c468d1" y="62.16095"/>
     <use style="fill:#1f77b4;stroke:#ffffff;stroke-width:0.75;" x="379.922953" xlink:href="#m3520c468d1" y="62.16095"/>
     <use style="fill:#1f77b4;stroke:#ffffff;stroke-width:0.75;" x="380.956033" xlink:href="#m3520c468d1" y="62.16095"/>
     <use style="fill:#1f77b4;stroke:#ffffff;stroke-width:0.75;" x="381.974459" xlink:href="#m3520c468d1" y="62.16095"/>
     <use style="fill:#1f77b4;stroke:#ffffff;stroke-width:0.75;" x="382.978641" xlink:href="#m3520c468d1" y="62.16095"/>
     <use style="fill:#1f77b4;stroke:#ffffff;stroke-width:0.75;" x="383.968971" xlink:href="#m3520c468d1" y="62.135703"/>
     <use style="fill:#1f77b4;stroke:#ffffff;stroke-width:0.75;" x="384.945827" xlink:href="#m3520c468d1" y="62.135703"/>
     <use style="fill:#1f77b4;stroke:#ffffff;stroke-width:0.75;" x="385.909571" xlink:href="#m3520c468d1" y="61.454025"/>
     <use style="fill:#1f77b4;stroke:#ffffff;stroke-width:0.75;" x="386.860549" xlink:href="#m3520c468d1" y="61.454025"/>
     <use style="fill:#1f77b4;stroke:#ffffff;stroke-width:0.75;" x="387.799096" xlink:href="#m3520c468d1" y="61.327788"/>
     <use style="fill:#1f77b4;stroke:#ffffff;stroke-width:0.75;" x="388.725532" xlink:href="#m3520c468d1" y="60.999573"/>
     <use style="fill:#1f77b4;stroke:#ffffff;stroke-width:0.75;" x="389.640166" xlink:href="#m3520c468d1" y="59.7877"/>
     <use style="fill:#1f77b4;stroke:#ffffff;stroke-width:0.75;" x="390.543295" xlink:href="#m3520c468d1" y="59.661464"/>
     <use style="fill:#1f77b4;stroke:#ffffff;stroke-width:0.75;" x="391.435205" xlink:href="#m3520c468d1" y="59.661464"/>
     <use style="fill:#1f77b4;stroke:#ffffff;stroke-width:0.75;" x="392.316171" xlink:href="#m3520c468d1" y="59.661464"/>
     <use style="fill:#1f77b4;stroke:#ffffff;stroke-width:0.75;" x="393.186458" xlink:href="#m3520c468d1" y="59.661464"/>
     <use style="fill:#1f77b4;stroke:#ffffff;stroke-width:0.75;" x="394.046323" xlink:href="#m3520c468d1" y="59.661464"/>
     <use style="fill:#1f77b4;stroke:#ffffff;stroke-width:0.75;" x="394.896011" xlink:href="#m3520c468d1" y="59.661464"/>
     <use style="fill:#1f77b4;stroke:#ffffff;stroke-width:0.75;" x="395.735761" xlink:href="#m3520c468d1" y="59.661464"/>
     <use style="fill:#1f77b4;stroke:#ffffff;stroke-width:0.75;" x="396.565803" xlink:href="#m3520c468d1" y="59.661464"/>
     <use style="fill:#1f77b4;stroke:#ffffff;stroke-width:0.75;" x="397.386358" xlink:href="#m3520c468d1" y="59.661464"/>
     <use style="fill:#1f77b4;stroke:#ffffff;stroke-width:0.75;" x="398.197642" xlink:href="#m3520c468d1" y="59.661464"/>
     <use style="fill:#1f77b4;stroke:#ffffff;stroke-width:0.75;" x="398.99986" xlink:href="#m3520c468d1" y="59.661464"/>
     <use style="fill:#1f77b4;stroke:#ffffff;stroke-width:0.75;" x="399.793214" xlink:href="#m3520c468d1" y="59.636216"/>
     <use style="fill:#1f77b4;stroke:#ffffff;stroke-width:0.75;" x="400.577898" xlink:href="#m3520c468d1" y="59.636216"/>
    </g>
   </g>
   <g id="line2d_30">
    <path clip-path="url(#pad03dce902)" d="M 75.923352 276.308878 
L 125.689806 276.308878 
L 154.801316 276.308878 
L 175.45626 276.308878 
L 191.47748 276.308878 
L 204.567769 276.308878 
L 215.635452 276.308878 
L 225.222714 251.112034 
L 233.679279 197.966385 
L 241.243934 169.449516 
L 248.086996 195.921351 
L 254.334223 114.372447 
L 260.081115 99.552259 
L 265.401906 89.604808 
L 270.355443 85.186523 
L 274.989168 84.100888 
L 279.341883 84.050393 
L 283.445733 82.068477 
L 287.327641 82.384069 
L 291.010388 81.70239 
L 294.513415 77.877419 
L 297.85345 81.601401 
L 301.04499 81.449917 
L 304.100677 81.399422 
L 307.031607 81.247938 
L 309.847569 81.399422 
L 312.557242 81.172196 
L 315.168359 81.071207 
L 317.68784 72.436617 
L 320.121897 72.348251 
L 322.476135 72.323004 
L 324.755622 71.868552 
L 326.96496 71.843305 
L 329.108337 80.263292 
L 331.189579 80.061313 
L 333.212187 80.061313 
L 335.179373 80.010819 
L 337.094095 80.010819 
L 338.959078 79.606861 
L 340.776842 77.082128 
L 342.549717 75.567287 
L 344.279869 74.0272 
L 345.969307 73.269779 
L 347.619904 68.296054 
L 349.233406 67.134676 
L 350.811444 65.998546 
L 352.355542 65.443104 
L 353.867131 63.549554 
L 355.347551 65.165384 
L 356.798061 65.140136 
L 358.219847 64.887663 
L 359.614023 64.887663 
L 360.981642 64.887663 
L 362.323696 64.736179 
L 363.641124 64.281727 
L 364.934813 64.054501 
L 366.205604 64.029253 
L 367.454294 63.877769 
L 368.681636 63.802027 
L 369.888351 63.77678 
L 371.075119 61.731746 
L 372.242589 61.731746 
L 373.391378 61.731746 
L 374.522076 61.731746 
L 375.635243 61.731746 
L 376.731414 61.731746 
L 377.8111 61.731746 
L 378.874791 61.706498 
L 379.922953 61.706498 
L 380.956033 61.706498 
L 381.974459 61.706498 
L 382.978641 61.706498 
L 383.968971 61.706498 
L 384.945827 61.706498 
L 385.909571 61.706498 
L 386.860549 61.706498 
L 387.799096 61.706498 
L 388.725532 61.706498 
L 389.640166 61.630756 
L 390.543295 61.630756 
L 391.435205 61.605509 
L 392.316171 61.605509 
L 393.186458 61.605509 
L 394.046323 60.671357 
L 394.896011 60.444131 
L 395.735761 60.330518 
L 396.565803 60.330518 
L 397.386358 60.305271 
L 398.197642 60.305271 
L 398.99986 60.305271 
L 399.793214 60.305271 
L 400.577898 60.292647 
" style="fill:none;stroke:#98df8a;stroke-linecap:square;stroke-width:1.5;"/>
    <defs>
     <path d="M -0 3 
L 3 -3 
L -3 -3 
z
" id="m4885ded370" style="stroke:#ffffff;stroke-linejoin:miter;stroke-width:0.75;"/>
    </defs>
    <g clip-path="url(#pad03dce902)">
     <use style="fill:#98df8a;stroke:#ffffff;stroke-linejoin:miter;stroke-width:0.75;" x="75.923352" xlink:href="#m4885ded370" y="276.308878"/>
     <use style="fill:#98df8a;stroke:#ffffff;stroke-linejoin:miter;stroke-width:0.75;" x="125.689806" xlink:href="#m4885ded370" y="276.308878"/>
     <use style="fill:#98df8a;stroke:#ffffff;stroke-linejoin:miter;stroke-width:0.75;" x="154.801316" xlink:href="#m4885ded370" y="276.308878"/>
     <use style="fill:#98df8a;stroke:#ffffff;stroke-linejoin:miter;stroke-width:0.75;" x="175.45626" xlink:href="#m4885ded370" y="276.308878"/>
     <use style="fill:#98df8a;stroke:#ffffff;stroke-linejoin:miter;stroke-width:0.75;" x="191.47748" xlink:href="#m4885ded370" y="276.308878"/>
     <use style="fill:#98df8a;stroke:#ffffff;stroke-linejoin:miter;stroke-width:0.75;" x="204.567769" xlink:href="#m4885ded370" y="276.308878"/>
     <use style="fill:#98df8a;stroke:#ffffff;stroke-linejoin:miter;stroke-width:0.75;" x="215.635452" xlink:href="#m4885ded370" y="276.308878"/>
     <use style="fill:#98df8a;stroke:#ffffff;stroke-linejoin:miter;stroke-width:0.75;" x="225.222714" xlink:href="#m4885ded370" y="251.112034"/>
     <use style="fill:#98df8a;stroke:#ffffff;stroke-linejoin:miter;stroke-width:0.75;" x="233.679279" xlink:href="#m4885ded370" y="197.966385"/>
     <use style="fill:#98df8a;stroke:#ffffff;stroke-linejoin:miter;stroke-width:0.75;" x="241.243934" xlink:href="#m4885ded370" y="169.449516"/>
     <use style="fill:#98df8a;stroke:#ffffff;stroke-linejoin:miter;stroke-width:0.75;" x="248.086996" xlink:href="#m4885ded370" y="195.921351"/>
     <use style="fill:#98df8a;stroke:#ffffff;stroke-linejoin:miter;stroke-width:0.75;" x="254.334223" xlink:href="#m4885ded370" y="114.372447"/>
     <use style="fill:#98df8a;stroke:#ffffff;stroke-linejoin:miter;stroke-width:0.75;" x="260.081115" xlink:href="#m4885ded370" y="99.552259"/>
     <use style="fill:#98df8a;stroke:#ffffff;stroke-linejoin:miter;stroke-width:0.75;" x="265.401906" xlink:href="#m4885ded370" y="89.604808"/>
     <use style="fill:#98df8a;stroke:#ffffff;stroke-linejoin:miter;stroke-width:0.75;" x="270.355443" xlink:href="#m4885ded370" y="85.186523"/>
     <use style="fill:#98df8a;stroke:#ffffff;stroke-linejoin:miter;stroke-width:0.75;" x="274.989168" xlink:href="#m4885ded370" y="84.100888"/>
     <use style="fill:#98df8a;stroke:#ffffff;stroke-linejoin:miter;stroke-width:0.75;" x="279.341883" xlink:href="#m4885ded370" y="84.050393"/>
     <use style="fill:#98df8a;stroke:#ffffff;stroke-linejoin:miter;stroke-width:0.75;" x="283.445733" xlink:href="#m4885ded370" y="82.068477"/>
     <use style="fill:#98df8a;stroke:#ffffff;stroke-linejoin:miter;stroke-width:0.75;" x="287.327641" xlink:href="#m4885ded370" y="82.384069"/>
     <use style="fill:#98df8a;stroke:#ffffff;stroke-linejoin:miter;stroke-width:0.75;" x="291.010388" xlink:href="#m4885ded370" y="81.70239"/>
     <use style="fill:#98df8a;stroke:#ffffff;stroke-linejoin:miter;stroke-width:0.75;" x="294.513415" xlink:href="#m4885ded370" y="77.877419"/>
     <use style="fill:#98df8a;stroke:#ffffff;stroke-linejoin:miter;stroke-width:0.75;" x="297.85345" xlink:href="#m4885ded370" y="81.601401"/>
     <use style="fill:#98df8a;stroke:#ffffff;stroke-linejoin:miter;stroke-width:0.75;" x="301.04499" xlink:href="#m4885ded370" y="81.449917"/>
     <use style="fill:#98df8a;stroke:#ffffff;stroke-linejoin:miter;stroke-width:0.75;" x="304.100677" xlink:href="#m4885ded370" y="81.399422"/>
     <use style="fill:#98df8a;stroke:#ffffff;stroke-linejoin:miter;stroke-width:0.75;" x="307.031607" xlink:href="#m4885ded370" y="81.247938"/>
     <use style="fill:#98df8a;stroke:#ffffff;stroke-linejoin:miter;stroke-width:0.75;" x="309.847569" xlink:href="#m4885ded370" y="81.399422"/>
     <use style="fill:#98df8a;stroke:#ffffff;stroke-linejoin:miter;stroke-width:0.75;" x="312.557242" xlink:href="#m4885ded370" y="81.172196"/>
     <use style="fill:#98df8a;stroke:#ffffff;stroke-linejoin:miter;stroke-width:0.75;" x="315.168359" xlink:href="#m4885ded370" y="81.071207"/>
     <use style="fill:#98df8a;stroke:#ffffff;stroke-linejoin:miter;stroke-width:0.75;" x="317.68784" xlink:href="#m4885ded370" y="72.436617"/>
     <use style="fill:#98df8a;stroke:#ffffff;stroke-linejoin:miter;stroke-width:0.75;" x="320.121897" xlink:href="#m4885ded370" y="72.348251"/>
     <use style="fill:#98df8a;stroke:#ffffff;stroke-linejoin:miter;stroke-width:0.75;" x="322.476135" xlink:href="#m4885ded370" y="72.323004"/>
     <use style="fill:#98df8a;stroke:#ffffff;stroke-linejoin:miter;stroke-width:0.75;" x="324.755622" xlink:href="#m4885ded370" y="71.868552"/>
     <use style="fill:#98df8a;stroke:#ffffff;stroke-linejoin:miter;stroke-width:0.75;" x="326.96496" xlink:href="#m4885ded370" y="71.843305"/>
     <use style="fill:#98df8a;stroke:#ffffff;stroke-linejoin:miter;stroke-width:0.75;" x="329.108337" xlink:href="#m4885ded370" y="80.263292"/>
     <use style="fill:#98df8a;stroke:#ffffff;stroke-linejoin:miter;stroke-width:0.75;" x="331.189579" xlink:href="#m4885ded370" y="80.061313"/>
     <use style="fill:#98df8a;stroke:#ffffff;stroke-linejoin:miter;stroke-width:0.75;" x="333.212187" xlink:href="#m4885ded370" y="80.061313"/>
     <use style="fill:#98df8a;stroke:#ffffff;stroke-linejoin:miter;stroke-width:0.75;" x="335.179373" xlink:href="#m4885ded370" y="80.010819"/>
     <use style="fill:#98df8a;stroke:#ffffff;stroke-linejoin:miter;stroke-width:0.75;" x="337.094095" xlink:href="#m4885ded370" y="80.010819"/>
     <use style="fill:#98df8a;stroke:#ffffff;stroke-linejoin:miter;stroke-width:0.75;" x="338.959078" xlink:href="#m4885ded370" y="79.606861"/>
     <use style="fill:#98df8a;stroke:#ffffff;stroke-linejoin:miter;stroke-width:0.75;" x="340.776842" xlink:href="#m4885ded370" y="77.082128"/>
     <use style="fill:#98df8a;stroke:#ffffff;stroke-linejoin:miter;stroke-width:0.75;" x="342.549717" xlink:href="#m4885ded370" y="75.567287"/>
     <use style="fill:#98df8a;stroke:#ffffff;stroke-linejoin:miter;stroke-width:0.75;" x="344.279869" xlink:href="#m4885ded370" y="74.0272"/>
     <use style="fill:#98df8a;stroke:#ffffff;stroke-linejoin:miter;stroke-width:0.75;" x="345.969307" xlink:href="#m4885ded370" y="73.269779"/>
     <use style="fill:#98df8a;stroke:#ffffff;stroke-linejoin:miter;stroke-width:0.75;" x="347.619904" xlink:href="#m4885ded370" y="68.296054"/>
     <use style="fill:#98df8a;stroke:#ffffff;stroke-linejoin:miter;stroke-width:0.75;" x="349.233406" xlink:href="#m4885ded370" y="67.134676"/>
     <use style="fill:#98df8a;stroke:#ffffff;stroke-linejoin:miter;stroke-width:0.75;" x="350.811444" xlink:href="#m4885ded370" y="65.998546"/>
     <use style="fill:#98df8a;stroke:#ffffff;stroke-linejoin:miter;stroke-width:0.75;" x="352.355542" xlink:href="#m4885ded370" y="65.443104"/>
     <use style="fill:#98df8a;stroke:#ffffff;stroke-linejoin:miter;stroke-width:0.75;" x="353.867131" xlink:href="#m4885ded370" y="63.549554"/>
     <use style="fill:#98df8a;stroke:#ffffff;stroke-linejoin:miter;stroke-width:0.75;" x="355.347551" xlink:href="#m4885ded370" y="65.165384"/>
     <use style="fill:#98df8a;stroke:#ffffff;stroke-linejoin:miter;stroke-width:0.75;" x="356.798061" xlink:href="#m4885ded370" y="65.140136"/>
     <use style="fill:#98df8a;stroke:#ffffff;stroke-linejoin:miter;stroke-width:0.75;" x="358.219847" xlink:href="#m4885ded370" y="64.887663"/>
     <use style="fill:#98df8a;stroke:#ffffff;stroke-linejoin:miter;stroke-width:0.75;" x="359.614023" xlink:href="#m4885ded370" y="64.887663"/>
     <use style="fill:#98df8a;stroke:#ffffff;stroke-linejoin:miter;stroke-width:0.75;" x="360.981642" xlink:href="#m4885ded370" y="64.887663"/>
     <use style="fill:#98df8a;stroke:#ffffff;stroke-linejoin:miter;stroke-width:0.75;" x="362.323696" xlink:href="#m4885ded370" y="64.736179"/>
     <use style="fill:#98df8a;stroke:#ffffff;stroke-linejoin:miter;stroke-width:0.75;" x="363.641124" xlink:href="#m4885ded370" y="64.281727"/>
     <use style="fill:#98df8a;stroke:#ffffff;stroke-linejoin:miter;stroke-width:0.75;" x="364.934813" xlink:href="#m4885ded370" y="64.054501"/>
     <use style="fill:#98df8a;stroke:#ffffff;stroke-linejoin:miter;stroke-width:0.75;" x="366.205604" xlink:href="#m4885ded370" y="64.029253"/>
     <use style="fill:#98df8a;stroke:#ffffff;stroke-linejoin:miter;stroke-width:0.75;" x="367.454294" xlink:href="#m4885ded370" y="63.877769"/>
     <use style="fill:#98df8a;stroke:#ffffff;stroke-linejoin:miter;stroke-width:0.75;" x="368.681636" xlink:href="#m4885ded370" y="63.802027"/>
     <use style="fill:#98df8a;stroke:#ffffff;stroke-linejoin:miter;stroke-width:0.75;" x="369.888351" xlink:href="#m4885ded370" y="63.77678"/>
     <use style="fill:#98df8a;stroke:#ffffff;stroke-linejoin:miter;stroke-width:0.75;" x="371.075119" xlink:href="#m4885ded370" y="61.731746"/>
     <use style="fill:#98df8a;stroke:#ffffff;stroke-linejoin:miter;stroke-width:0.75;" x="372.242589" xlink:href="#m4885ded370" y="61.731746"/>
     <use style="fill:#98df8a;stroke:#ffffff;stroke-linejoin:miter;stroke-width:0.75;" x="373.391378" xlink:href="#m4885ded370" y="61.731746"/>
     <use style="fill:#98df8a;stroke:#ffffff;stroke-linejoin:miter;stroke-width:0.75;" x="374.522076" xlink:href="#m4885ded370" y="61.731746"/>
     <use style="fill:#98df8a;stroke:#ffffff;stroke-linejoin:miter;stroke-width:0.75;" x="375.635243" xlink:href="#m4885ded370" y="61.731746"/>
     <use style="fill:#98df8a;stroke:#ffffff;stroke-linejoin:miter;stroke-width:0.75;" x="376.731414" xlink:href="#m4885ded370" y="61.731746"/>
     <use style="fill:#98df8a;stroke:#ffffff;stroke-linejoin:miter;stroke-width:0.75;" x="377.8111" xlink:href="#m4885ded370" y="61.731746"/>
     <use style="fill:#98df8a;stroke:#ffffff;stroke-linejoin:miter;stroke-width:0.75;" x="378.874791" xlink:href="#m4885ded370" y="61.706498"/>
     <use style="fill:#98df8a;stroke:#ffffff;stroke-linejoin:miter;stroke-width:0.75;" x="379.922953" xlink:href="#m4885ded370" y="61.706498"/>
     <use style="fill:#98df8a;stroke:#ffffff;stroke-linejoin:miter;stroke-width:0.75;" x="380.956033" xlink:href="#m4885ded370" y="61.706498"/>
     <use style="fill:#98df8a;stroke:#ffffff;stroke-linejoin:miter;stroke-width:0.75;" x="381.974459" xlink:href="#m4885ded370" y="61.706498"/>
     <use style="fill:#98df8a;stroke:#ffffff;stroke-linejoin:miter;stroke-width:0.75;" x="382.978641" xlink:href="#m4885ded370" y="61.706498"/>
     <use style="fill:#98df8a;stroke:#ffffff;stroke-linejoin:miter;stroke-width:0.75;" x="383.968971" xlink:href="#m4885ded370" y="61.706498"/>
     <use style="fill:#98df8a;stroke:#ffffff;stroke-linejoin:miter;stroke-width:0.75;" x="384.945827" xlink:href="#m4885ded370" y="61.706498"/>
     <use style="fill:#98df8a;stroke:#ffffff;stroke-linejoin:miter;stroke-width:0.75;" x="385.909571" xlink:href="#m4885ded370" y="61.706498"/>
     <use style="fill:#98df8a;stroke:#ffffff;stroke-linejoin:miter;stroke-width:0.75;" x="386.860549" xlink:href="#m4885ded370" y="61.706498"/>
     <use style="fill:#98df8a;stroke:#ffffff;stroke-linejoin:miter;stroke-width:0.75;" x="387.799096" xlink:href="#m4885ded370" y="61.706498"/>
     <use style="fill:#98df8a;stroke:#ffffff;stroke-linejoin:miter;stroke-width:0.75;" x="388.725532" xlink:href="#m4885ded370" y="61.706498"/>
     <use style="fill:#98df8a;stroke:#ffffff;stroke-linejoin:miter;stroke-width:0.75;" x="389.640166" xlink:href="#m4885ded370" y="61.630756"/>
     <use style="fill:#98df8a;stroke:#ffffff;stroke-linejoin:miter;stroke-width:0.75;" x="390.543295" xlink:href="#m4885ded370" y="61.630756"/>
     <use style="fill:#98df8a;stroke:#ffffff;stroke-linejoin:miter;stroke-width:0.75;" x="391.435205" xlink:href="#m4885ded370" y="61.605509"/>
     <use style="fill:#98df8a;stroke:#ffffff;stroke-linejoin:miter;stroke-width:0.75;" x="392.316171" xlink:href="#m4885ded370" y="61.605509"/>
     <use style="fill:#98df8a;stroke:#ffffff;stroke-linejoin:miter;stroke-width:0.75;" x="393.186458" xlink:href="#m4885ded370" y="61.605509"/>
     <use style="fill:#98df8a;stroke:#ffffff;stroke-linejoin:miter;stroke-width:0.75;" x="394.046323" xlink:href="#m4885ded370" y="60.671357"/>
     <use style="fill:#98df8a;stroke:#ffffff;stroke-linejoin:miter;stroke-width:0.75;" x="394.896011" xlink:href="#m4885ded370" y="60.444131"/>
     <use style="fill:#98df8a;stroke:#ffffff;stroke-linejoin:miter;stroke-width:0.75;" x="395.735761" xlink:href="#m4885ded370" y="60.330518"/>
     <use style="fill:#98df8a;stroke:#ffffff;stroke-linejoin:miter;stroke-width:0.75;" x="396.565803" xlink:href="#m4885ded370" y="60.330518"/>
     <use style="fill:#98df8a;stroke:#ffffff;stroke-linejoin:miter;stroke-width:0.75;" x="397.386358" xlink:href="#m4885ded370" y="60.305271"/>
     <use style="fill:#98df8a;stroke:#ffffff;stroke-linejoin:miter;stroke-width:0.75;" x="398.197642" xlink:href="#m4885ded370" y="60.305271"/>
     <use style="fill:#98df8a;stroke:#ffffff;stroke-linejoin:miter;stroke-width:0.75;" x="398.99986" xlink:href="#m4885ded370" y="60.305271"/>
     <use style="fill:#98df8a;stroke:#ffffff;stroke-linejoin:miter;stroke-width:0.75;" x="399.793214" xlink:href="#m4885ded370" y="60.305271"/>
     <use style="fill:#98df8a;stroke:#ffffff;stroke-linejoin:miter;stroke-width:0.75;" x="400.577898" xlink:href="#m4885ded370" y="60.292647"/>
    </g>
   </g>
   <g id="line2d_31"/>
   <g id="line2d_32"/>
   <g id="patch_3">
    <path d="M 59.690625 249.874914 
L 59.690625 47.896204 
" style="fill:none;stroke:#000000;stroke-linecap:square;stroke-linejoin:miter;stroke-width:0.8;"/>
   </g>
   <g id="patch_4">
    <path d="M 75.923352 288.430125 
L 400.578765 288.430125 
" style="fill:none;stroke:#000000;stroke-linecap:square;stroke-linejoin:miter;stroke-width:0.8;"/>
   </g>
   <g id="text_14">
    <!-- libhevc_hevc_dec_fuzzer (23h, 18 trials/fuzzer) -->
    <g transform="translate(97.517813 16.318125)scale(0.12 -0.12)">
     <defs>
      <path d="M 603 4863 
L 1178 4863 
L 1178 0 
L 603 0 
L 603 4863 
z
" id="DejaVuSans-6c" transform="scale(0.015625)"/>
      <path d="M 3116 1747 
Q 3116 2381 2855 2742 
Q 2594 3103 2138 3103 
Q 1681 3103 1420 2742 
Q 1159 2381 1159 1747 
Q 1159 1113 1420 752 
Q 1681 391 2138 391 
Q 2594 391 2855 752 
Q 3116 1113 3116 1747 
z
M 1159 2969 
Q 1341 3281 1617 3432 
Q 1894 3584 2278 3584 
Q 2916 3584 3314 3078 
Q 3713 2572 3713 1747 
Q 3713 922 3314 415 
Q 2916 -91 2278 -91 
Q 1894 -91 1617 61 
Q 1341 213 1159 525 
L 1159 0 
L 581 0 
L 581 4863 
L 1159 4863 
L 1159 2969 
z
" id="DejaVuSans-62" transform="scale(0.015625)"/>
      <path d="M 3263 -1063 
L 3263 -1509 
L -63 -1509 
L -63 -1063 
L 3263 -1063 
z
" id="DejaVuSans-5f" transform="scale(0.015625)"/>
      <path d="M 2375 4863 
L 2375 4384 
L 1825 4384 
Q 1516 4384 1395 4259 
Q 1275 4134 1275 3809 
L 1275 3500 
L 2222 3500 
L 2222 3053 
L 1275 3053 
L 1275 0 
L 697 0 
L 697 3053 
L 147 3053 
L 147 3500 
L 697 3500 
L 697 3744 
Q 697 4328 969 4595 
Q 1241 4863 1831 4863 
L 2375 4863 
z
" id="DejaVuSans-66" transform="scale(0.015625)"/>
      <path d="M 353 3500 
L 3084 3500 
L 3084 2975 
L 922 459 
L 3084 459 
L 3084 0 
L 275 0 
L 275 525 
L 2438 3041 
L 353 3041 
L 353 3500 
z
" id="DejaVuSans-7a" transform="scale(0.015625)"/>
      <path d="M 750 794 
L 1409 794 
L 1409 256 
L 897 -744 
L 494 -744 
L 750 256 
L 750 794 
z
" id="DejaVuSans-2c" transform="scale(0.015625)"/>
      <path d="M 2834 3397 
L 2834 2853 
Q 2591 2978 2328 3040 
Q 2066 3103 1784 3103 
Q 1356 3103 1142 2972 
Q 928 2841 928 2578 
Q 928 2378 1081 2264 
Q 1234 2150 1697 2047 
L 1894 2003 
Q 2506 1872 2764 1633 
Q 3022 1394 3022 966 
Q 3022 478 2636 193 
Q 2250 -91 1575 -91 
Q 1294 -91 989 -36 
Q 684 19 347 128 
L 347 722 
Q 666 556 975 473 
Q 1284 391 1588 391 
Q 1994 391 2212 530 
Q 2431 669 2431 922 
Q 2431 1156 2273 1281 
Q 2116 1406 1581 1522 
L 1381 1569 
Q 847 1681 609 1914 
Q 372 2147 372 2553 
Q 372 3047 722 3315 
Q 1072 3584 1716 3584 
Q 2034 3584 2315 3537 
Q 2597 3491 2834 3397 
z
" id="DejaVuSans-73" transform="scale(0.015625)"/>
      <path d="M 1625 4666 
L 2156 4666 
L 531 -594 
L 0 -594 
L 1625 4666 
z
" id="DejaVuSans-2f" transform="scale(0.015625)"/>
     </defs>
     <use xlink:href="#DejaVuSans-6c"/>
     <use x="27.783203" xlink:href="#DejaVuSans-69"/>
     <use x="55.566406" xlink:href="#DejaVuSans-62"/>
     <use x="119.042969" xlink:href="#DejaVuSans-68"/>
     <use x="182.421875" xlink:href="#DejaVuSans-65"/>
     <use x="243.945312" xlink:href="#DejaVuSans-76"/>
     <use x="303.125" xlink:href="#DejaVuSans-63"/>
     <use x="358.105469" xlink:href="#DejaVuSans-5f"/>
     <use x="408.105469" xlink:href="#DejaVuSans-68"/>
     <use x="471.484375" xlink:href="#DejaVuSans-65"/>
     <use x="533.007812" xlink:href="#DejaVuSans-76"/>
     <use x="592.1875" xlink:href="#DejaVuSans-63"/>
     <use x="647.167969" xlink:href="#DejaVuSans-5f"/>
     <use x="697.167969" xlink:href="#DejaVuSans-64"/>
     <use x="760.644531" xlink:href="#DejaVuSans-65"/>
     <use x="822.167969" xlink:href="#DejaVuSans-63"/>
     <use x="877.148438" xlink:href="#DejaVuSans-5f"/>
     <use x="927.148438" xlink:href="#DejaVuSans-66"/>
     <use x="962.353516" xlink:href="#DejaVuSans-75"/>
     <use x="1025.732422" xlink:href="#DejaVuSans-7a"/>
     <use x="1078.222656" xlink:href="#DejaVuSans-7a"/>
     <use x="1130.712891" xlink:href="#DejaVuSans-65"/>
     <use x="1192.236328" xlink:href="#DejaVuSans-72"/>
     <use x="1233.349609" xlink:href="#DejaVuSans-20"/>
     <use x="1265.136719" xlink:href="#DejaVuSans-28"/>
     <use x="1304.150391" xlink:href="#DejaVuSans-32"/>
     <use x="1367.773438" xlink:href="#DejaVuSans-33"/>
     <use x="1431.396484" xlink:href="#DejaVuSans-68"/>
     <use x="1494.775391" xlink:href="#DejaVuSans-2c"/>
     <use x="1526.5625" xlink:href="#DejaVuSans-20"/>
     <use x="1558.349609" xlink:href="#DejaVuSans-31"/>
     <use x="1621.972656" xlink:href="#DejaVuSans-38"/>
     <use x="1685.595703" xlink:href="#DejaVuSans-20"/>
     <use x="1717.382812" xlink:href="#DejaVuSans-74"/>
     <use x="1756.591797" xlink:href="#DejaVuSans-72"/>
     <use x="1797.705078" xlink:href="#DejaVuSans-69"/>
     <use x="1825.488281" xlink:href="#DejaVuSans-61"/>
     <use x="1886.767578" xlink:href="#DejaVuSans-6c"/>
     <use x="1914.550781" xlink:href="#DejaVuSans-73"/>
     <use x="1966.650391" xlink:href="#DejaVuSans-2f"/>
     <use x="2000.341797" xlink:href="#DejaVuSans-66"/>
     <use x="2035.546875" xlink:href="#DejaVuSans-75"/>
     <use x="2098.925781" xlink:href="#DejaVuSans-7a"/>
     <use x="2151.416016" xlink:href="#DejaVuSans-7a"/>
     <use x="2203.90625" xlink:href="#DejaVuSans-65"/>
     <use x="2265.429688" xlink:href="#DejaVuSans-72"/>
     <use x="2306.542969" xlink:href="#DejaVuSans-29"/>
    </g>
   </g>
   <g id="legend_1">
    <g id="line2d_33">
     <path d="M 420.810625 30.416562 
L 440.810625 30.416562 
" style="fill:none;stroke:#1f77b4;stroke-linecap:square;stroke-width:1.5;"/>
    </g>
    <g id="line2d_34">
     <defs>
      <path d="M 0 3 
C 0.795609 3 1.55874 2.683901 2.12132 2.12132 
C 2.683901 1.55874 3 0.795609 3 0 
C 3 -0.795609 2.683901 -1.55874 2.12132 -2.12132 
C 1.55874 -2.683901 0.795609 -3 0 -3 
C -0.795609 -3 -1.55874 -2.683901 -2.12132 -2.12132 
C -2.683901 -1.55874 -3 -0.795609 -3 0 
C -3 0.795609 -2.683901 1.55874 -2.12132 2.12132 
C -1.55874 2.683901 -0.795609 3 0 3 
z
" id="m6cd9482c48" style="stroke:#1f77b4;"/>
     </defs>
     <g>
      <use style="fill:#1f77b4;stroke:#1f77b4;" x="430.810625" xlink:href="#m6cd9482c48" y="30.416562"/>
     </g>
    </g>
    <g id="text_15">
     <!-- afl -->
     <g transform="translate(448.810625 33.916562)scale(0.1 -0.1)">
      <use xlink:href="#DejaVuSans-61"/>
      <use x="61.279297" xlink:href="#DejaVuSans-66"/>
      <use x="96.484375" xlink:href="#DejaVuSans-6c"/>
     </g>
    </g>
    <g id="line2d_35">
     <path d="M 420.810625 45.094688 
L 440.810625 45.094688 
" style="fill:none;stroke:#98df8a;stroke-linecap:square;stroke-width:1.5;"/>
    </g>
    <g id="line2d_36">
     <defs>
      <path d="M -0 3 
L 3 -3 
L -3 -3 
z
" id="mebd949d1f6" style="stroke:#98df8a;stroke-linejoin:miter;"/>
     </defs>
     <g>
      <use style="fill:#98df8a;stroke:#98df8a;stroke-linejoin:miter;" x="430.810625" xlink:href="#mebd949d1f6" y="45.094688"/>
     </g>
    </g>
    <g id="text_16">
     <!-- afl_collision_free -->
     <g transform="translate(448.810625 48.594688)scale(0.1 -0.1)">
      <use xlink:href="#DejaVuSans-61"/>
      <use x="61.279297" xlink:href="#DejaVuSans-66"/>
      <use x="96.484375" xlink:href="#DejaVuSans-6c"/>
      <use x="124.267578" xlink:href="#DejaVuSans-5f"/>
      <use x="174.267578" xlink:href="#DejaVuSans-63"/>
      <use x="229.248047" xlink:href="#DejaVuSans-6f"/>
      <use x="290.429688" xlink:href="#DejaVuSans-6c"/>
      <use x="318.212891" xlink:href="#DejaVuSans-6c"/>
      <use x="345.996094" xlink:href="#DejaVuSans-69"/>
      <use x="373.779297" xlink:href="#DejaVuSans-73"/>
      <use x="425.878906" xlink:href="#DejaVuSans-69"/>
      <use x="453.662109" xlink:href="#DejaVuSans-6f"/>
      <use x="514.84375" xlink:href="#DejaVuSans-6e"/>
      <use x="578.222656" xlink:href="#DejaVuSans-5f"/>
      <use x="628.222656" xlink:href="#DejaVuSans-66"/>
      <use x="663.427734" xlink:href="#DejaVuSans-72"/>
      <use x="702.291016" xlink:href="#DejaVuSans-65"/>
      <use x="763.814453" xlink:href="#DejaVuSans-65"/>
     </g>
    </g>
   </g>
  </g>
 </g>
 <defs>
  <clipPath id="pad03dce902">
   <rect height="266.112" width="357.12" x="59.690625" y="22.318125"/>
  </clipPath>
 </defs>
</svg>
