<?xml version="1.0" encoding="utf-8" standalone="no"?>
<!DOCTYPE svg PUBLIC "-//W3C//DTD SVG 1.1//EN"
  "http://www.w3.org/Graphics/SVG/1.1/DTD/svg11.dtd">
<svg height="325.986375pt" version="1.1" viewBox="0 0 542.545 325.986375" width="542.545pt" xmlns="http://www.w3.org/2000/svg" xmlns:xlink="http://www.w3.org/1999/xlink">
 <metadata>
  <rdf:RDF xmlns:cc="http://creativecommons.org/ns#" xmlns:dc="http://purl.org/dc/elements/1.1/" xmlns:rdf="http://www.w3.org/1999/02/22-rdf-syntax-ns#">
   <cc:Work>
    <dc:type rdf:resource="http://purl.org/dc/dcmitype/StillImage"/>
    <dc:date>2022-06-03T14:52:56.796345</dc:date>
    <dc:format>image/svg+xml</dc:format>
    <dc:creator>
     <cc:Agent>
      <dc:title>Matplotlib v3.4.3, https://matplotlib.org/</dc:title>
     </cc:Agent>
    </dc:creator>
   </cc:Work>
  </rdf:RDF>
 </metadata>
 <defs>
  <style type="text/css">*{stroke-linecap:butt;stroke-linejoin:round;}</style>
 </defs>
 <g id="figure_1">
  <g id="patch_1">
   <path d="M 0 325.986375 
L 542.545 325.986375 
L 542.545 0 
L 0 0 
z
" style="fill:#ffffff;"/>
  </g>
  <g id="axes_1">
   <g id="patch_2">
    <path d="M 59.690625 288.430125 
L 416.810625 288.430125 
L 416.810625 22.318125 
L 59.690625 22.318125 
z
" style="fill:#ffffff;"/>
   </g>
   <g id="PolyCollection_1">
    <defs>
     <path d="M 75.923352 -63.699218 
L 75.923352 -51.274231 
L 128.542233 -64.494907 
L 159.322304 -73.553518 
L 181.161113 -81.877647 
L 198.100609 -85.305229 
L 211.941185 -106.054345 
L 223.643225 -106.482793 
L 233.779993 -109.2371 
L 242.721257 -112.940113 
L 250.719489 -115.786231 
L 257.954771 -116.76554 
L 264.560065 -117.010368 
L 270.636347 -119.458641 
L 276.262105 -124.967256 
L 281.499561 -124.600015 
L 286.398874 -128.394838 
L 291.00107 -133.658626 
L 295.340137 -138.126724 
L 299.444542 -141.210019 
L 303.33837 -144.400425 
L 307.042177 -150.490504 
L 310.573651 -153.061191 
L 313.948118 -155.387051 
L 317.178946 -163.282732 
L 320.277866 -165.945229 
L 323.255227 -167.38359 
L 326.120209 -175.585305 
L 328.880986 -179.808576 
L 331.544873 -183.6034 
L 334.118441 -191.13184 
L 336.607615 -193.580113 
L 339.017754 -199.333556 
L 341.353723 -205.331825 
L 343.619951 -206.372341 
L 345.820482 -209.799924 
L 347.959017 -213.53354 
L 350.038956 -214.51285 
L 352.063422 -216.838709 
L 354.035299 -220.327499 
L 355.95725 -220.755946 
L 357.83174 -220.87836 
L 359.661058 -226.142148 
L 361.447328 -227.458094 
L 363.192531 -225.499476 
L 364.898513 -226.784819 
L 366.566998 -230.304212 
L 368.199598 -232.966709 
L 369.797826 -234.207678 
L 371.363098 -237.710239 
L 372.896746 -238.567134 
L 374.400023 -238.199893 
L 375.874108 -240.709373 
L 377.320113 -243.586094 
L 378.739089 -241.076614 
L 380.132027 -243.892129 
L 381.499866 -245.973161 
L 382.843494 -245.911954 
L 384.163753 -246.217988 
L 385.461443 -246.983074 
L 386.737322 -247.686952 
L 387.992111 -248.452037 
L 389.226496 -248.574451 
L 390.441129 -248.972296 
L 391.636634 -249.37014 
L 392.813604 -249.737381 
L 393.972603 -249.737381 
L 395.114174 -249.890398 
L 396.238831 -250.441259 
L 397.34707 -252.093844 
L 398.439362 -253.685222 
L 399.51616 -258.275734 
L 400.577898 -256.011081 
L 400.577898 -291.57225 
L 400.577898 -291.57225 
L 399.51616 -291.327423 
L 398.439362 -277.127438 
L 397.34707 -269.537791 
L 396.238831 -265.68176 
L 395.114174 -263.355901 
L 393.972603 -275.933905 
L 392.813604 -274.220113 
L 391.636634 -272.414512 
L 390.441129 -259.561077 
L 389.226496 -261.550299 
L 387.992111 -259.867111 
L 386.737322 -259.867111 
L 385.461443 -259.805905 
L 384.163753 -260.173146 
L 382.843494 -269.537791 
L 381.499866 -277.800713 
L 380.132027 -272.904167 
L 378.739089 -264.580037 
L 377.320113 -265.36578 
L 375.874108 -263.539521 
L 374.400023 -259.683491 
L 372.896746 -260.295559 
L 371.363098 -257.541252 
L 369.797826 -258.428751 
L 368.199598 -256.562708 
L 366.566998 -256.378322 
L 364.898513 -256.141911 
L 363.192531 -254.174876 
L 361.447328 -253.470998 
L 359.661058 -251.726603 
L 357.83174 -247.319711 
L 355.95725 -244.320576 
L 354.035299 -240.954201 
L 352.063422 -239.42403 
L 350.038956 -234.343863 
L 347.959017 -233.731795 
L 345.820482 -224.183529 
L 343.619951 -219.960258 
L 341.353723 -218.919741 
L 339.017754 -212.554231 
L 336.607615 -207.535271 
L 334.118441 -204.352516 
L 331.544873 -199.700796 
L 328.880986 -195.232698 
L 326.120209 -191.560288 
L 323.255227 -184.705123 
L 320.277866 -179.821583 
L 317.178946 -175.768926 
L 313.948118 -170.015483 
L 310.573651 -166.159453 
L 307.042177 -164.200834 
L 303.33837 -162.425836 
L 299.444542 -157.039635 
L 295.340137 -153.306019 
L 291.00107 -149.939643 
L 286.398874 -146.144819 
L 281.499561 -145.593958 
L 276.262105 -145.471544 
L 270.636347 -144.124994 
L 264.560065 -133.781039 
L 257.954771 -132.495696 
L 250.719489 -130.567681 
L 242.721257 -130.598284 
L 233.779993 -126.61984 
L 223.643225 -123.498292 
L 211.941185 -118.173297 
L 198.100609 -114.868129 
L 181.161113 -104.707795 
L 159.322304 -95.771597 
L 128.542233 -82.489715 
L 75.923352 -63.699218 
z
" id="ma0860c6c07" style="stroke:#98df8a;stroke-opacity:0.2;"/>
    </defs>
    <g clip-path="url(#p2aa9635c34)">
     <use style="fill:#98df8a;fill-opacity:0.2;stroke:#98df8a;stroke-opacity:0.2;" x="0" xlink:href="#ma0860c6c07" y="325.986375"/>
    </g>
   </g>
   <g id="PolyCollection_2">
    <defs>
     <path d="M 75.923352 -53.630694 
L 75.923352 -49.65225 
L 128.542233 -60.053586 
L 159.322304 -72.268174 
L 181.161113 -86.957814 
L 198.100609 -101.463833 
L 211.941185 -105.870724 
L 223.643225 -109.665548 
L 233.779993 -111.960804 
L 242.721257 -113.09313 
L 250.719489 -113.521578 
L 257.954771 -112.725889 
L 264.560065 -115.725024 
L 270.636347 -124.630618 
L 276.262105 -129.159924 
L 281.499561 -132.036645 
L 286.398874 -136.290519 
L 291.00107 -139.256756 
L 295.340137 -143.145685 
L 299.444542 -151.194383 
L 303.33837 -155.693085 
L 307.042177 -158.447392 
L 310.573651 -165.424971 
L 313.948118 -168.791347 
L 317.178946 -174.299962 
L 320.277866 -179.441335 
L 323.255227 -183.174952 
L 326.120209 -183.6034 
L 328.880986 -186.235294 
L 331.544873 -191.437874 
L 334.118441 -192.968045 
L 336.607615 -194.98787 
L 339.017754 -198.47666 
L 341.353723 -201.414588 
L 343.619951 -202.822345 
L 345.820482 -203.862861 
L 347.959017 -206.372341 
L 350.038956 -206.433548 
L 352.063422 -208.086132 
L 354.035299 -210.656819 
L 355.95725 -213.472333 
L 357.83174 -217.20595 
L 359.661058 -220.511119 
L 361.447328 -223.632667 
L 363.192531 -225.958527 
L 364.898513 -229.018869 
L 366.566998 -228.743438 
L 368.199598 -231.344728 
L 369.797826 -233.976622 
L 371.363098 -235.139552 
L 372.896746 -236.547309 
L 374.400023 -237.036963 
L 375.874108 -237.771445 
L 377.320113 -238.628341 
L 378.739089 -239.913685 
L 380.132027 -240.097305 
L 381.499866 -239.42403 
L 382.843494 -242.453768 
L 384.163753 -241.260235 
L 385.461443 -244.098702 
L 386.737322 -244.228766 
L 387.992111 -244.596007 
L 389.226496 -245.820144 
L 390.441129 -243.157647 
L 391.636634 -242.086527 
L 392.813604 -241.382648 
L 393.972603 -241.382648 
L 395.114174 -241.382648 
L 396.238831 -242.055924 
L 397.34707 -245.667127 
L 398.439362 -247.319711 
L 399.51616 -246.921867 
L 400.577898 -251.78781 
L 400.577898 -271.496409 
L 400.577898 -271.496409 
L 399.51616 -270.33348 
L 398.439362 -268.803309 
L 397.34707 -268.436068 
L 396.238831 -268.436068 
L 395.114174 -267.640379 
L 393.972603 -267.640379 
L 392.813604 -267.640379 
L 391.636634 -275.566664 
L 390.441129 -283.370535 
L 389.226496 -279.20847 
L 387.992111 -278.167954 
L 386.737322 -277.739506 
L 385.461443 -275.79925 
L 384.163753 -269.966239 
L 382.843494 -274.832182 
L 381.499866 -277.188645 
L 380.132027 -277.127438 
L 378.739089 -276.760197 
L 377.320113 -267.456759 
L 375.874108 -265.68176 
L 374.400023 -265.68176 
L 372.896746 -264.947278 
L 371.363098 -264.886072 
L 369.797826 -259.867111 
L 368.199598 -254.970565 
L 366.566998 -249.829191 
L 364.898513 -244.381783 
L 363.192531 -244.205048 
L 361.447328 -242.912819 
L 359.661058 -243.830922 
L 357.83174 -238.138686 
L 355.95725 -235.323172 
L 354.035299 -232.813692 
L 352.063422 -228.957662 
L 350.038956 -224.55077 
L 347.959017 -228.101531 
L 345.820482 -224.489563 
L 343.619951 -222.592151 
L 341.353723 -218.858535 
L 339.017754 -216.899916 
L 336.607615 -210.350785 
L 334.118441 -207.841305 
L 331.544873 -204.199499 
L 328.880986 -199.762003 
L 326.120209 -197.987005 
L 323.255227 -192.172356 
L 320.277866 -189.050808 
L 317.178946 -182.501677 
L 313.948118 -180.637164 
L 310.573651 -174.116341 
L 307.042177 -170.811172 
L 303.33837 -164.568075 
L 299.444542 -158.814633 
L 295.340137 -154.132311 
L 291.00107 -151.378003 
L 286.398874 -150.00085 
L 281.499561 -146.615347 
L 276.262105 -138.157328 
L 270.636347 -136.627157 
L 264.560065 -132.862937 
L 257.954771 -129.12932 
L 250.719489 -125.18148 
L 242.721257 -123.681912 
L 233.779993 -121.821225 
L 223.643225 -119.0914 
L 211.941185 -117.438815 
L 198.100609 -114.623301 
L 181.161113 -105.993138 
L 159.322304 -94.241426 
L 128.542233 -71.135848 
L 75.923352 -53.630694 
z
" id="m2791c856d9" style="stroke:#1f77b4;stroke-opacity:0.2;"/>
    </defs>
    <g clip-path="url(#p2aa9635c34)">
     <use style="fill:#1f77b4;fill-opacity:0.2;stroke:#1f77b4;stroke-opacity:0.2;" x="0" xlink:href="#m2791c856d9" y="325.986375"/>
    </g>
   </g>
   <g id="matplotlib.axis_1">
    <g id="xtick_1">
     <g id="line2d_1">
      <defs>
       <path d="M 0 0 
L 0 3.5 
" id="m7e7cefda43" style="stroke:#000000;stroke-width:0.8;"/>
      </defs>
      <g>
       <use style="stroke:#000000;stroke-width:0.8;" x="75.923352" xlink:href="#m7e7cefda43" y="288.430125"/>
      </g>
     </g>
     <g id="text_1">
      <!-- 14m -->
      <g transform="translate(64.69054 303.028562)scale(0.1 -0.1)">
       <defs>
        <path d="M 794 531 
L 1825 531 
L 1825 4091 
L 703 3866 
L 703 4441 
L 1819 4666 
L 2450 4666 
L 2450 531 
L 3481 531 
L 3481 0 
L 794 0 
L 794 531 
z
" id="DejaVuSans-31" transform="scale(0.015625)"/>
        <path d="M 2419 4116 
L 825 1625 
L 2419 1625 
L 2419 4116 
z
M 2253 4666 
L 3047 4666 
L 3047 1625 
L 3713 1625 
L 3713 1100 
L 3047 1100 
L 3047 0 
L 2419 0 
L 2419 1100 
L 313 1100 
L 313 1709 
L 2253 4666 
z
" id="DejaVuSans-34" transform="scale(0.015625)"/>
        <path d="M 3328 2828 
Q 3544 3216 3844 3400 
Q 4144 3584 4550 3584 
Q 5097 3584 5394 3201 
Q 5691 2819 5691 2113 
L 5691 0 
L 5113 0 
L 5113 2094 
Q 5113 2597 4934 2840 
Q 4756 3084 4391 3084 
Q 3944 3084 3684 2787 
Q 3425 2491 3425 1978 
L 3425 0 
L 2847 0 
L 2847 2094 
Q 2847 2600 2669 2842 
Q 2491 3084 2119 3084 
Q 1678 3084 1418 2786 
Q 1159 2488 1159 1978 
L 1159 0 
L 581 0 
L 581 3500 
L 1159 3500 
L 1159 2956 
Q 1356 3278 1631 3431 
Q 1906 3584 2284 3584 
Q 2666 3584 2933 3390 
Q 3200 3197 3328 2828 
z
" id="DejaVuSans-6d" transform="scale(0.015625)"/>
       </defs>
       <use xlink:href="#DejaVuSans-31"/>
       <use x="63.623047" xlink:href="#DejaVuSans-34"/>
       <use x="127.246094" xlink:href="#DejaVuSans-6d"/>
      </g>
     </g>
    </g>
    <g id="xtick_2">
     <g id="line2d_2">
      <g>
       <use style="stroke:#000000;stroke-width:0.8;" x="140.854496" xlink:href="#m7e7cefda43" y="288.430125"/>
      </g>
     </g>
     <g id="text_2">
      <!-- 35m -->
      <g transform="translate(129.621683 303.028562)scale(0.1 -0.1)">
       <defs>
        <path d="M 2597 2516 
Q 3050 2419 3304 2112 
Q 3559 1806 3559 1356 
Q 3559 666 3084 287 
Q 2609 -91 1734 -91 
Q 1441 -91 1130 -33 
Q 819 25 488 141 
L 488 750 
Q 750 597 1062 519 
Q 1375 441 1716 441 
Q 2309 441 2620 675 
Q 2931 909 2931 1356 
Q 2931 1769 2642 2001 
Q 2353 2234 1838 2234 
L 1294 2234 
L 1294 2753 
L 1863 2753 
Q 2328 2753 2575 2939 
Q 2822 3125 2822 3475 
Q 2822 3834 2567 4026 
Q 2313 4219 1838 4219 
Q 1578 4219 1281 4162 
Q 984 4106 628 3988 
L 628 4550 
Q 988 4650 1302 4700 
Q 1616 4750 1894 4750 
Q 2613 4750 3031 4423 
Q 3450 4097 3450 3541 
Q 3450 3153 3228 2886 
Q 3006 2619 2597 2516 
z
" id="DejaVuSans-33" transform="scale(0.015625)"/>
        <path d="M 691 4666 
L 3169 4666 
L 3169 4134 
L 1269 4134 
L 1269 2991 
Q 1406 3038 1543 3061 
Q 1681 3084 1819 3084 
Q 2600 3084 3056 2656 
Q 3513 2228 3513 1497 
Q 3513 744 3044 326 
Q 2575 -91 1722 -91 
Q 1428 -91 1123 -41 
Q 819 9 494 109 
L 494 744 
Q 775 591 1075 516 
Q 1375 441 1709 441 
Q 2250 441 2565 725 
Q 2881 1009 2881 1497 
Q 2881 1984 2565 2268 
Q 2250 2553 1709 2553 
Q 1456 2553 1204 2497 
Q 953 2441 691 2322 
L 691 4666 
z
" id="DejaVuSans-35" transform="scale(0.015625)"/>
       </defs>
       <use xlink:href="#DejaVuSans-33"/>
       <use x="63.623047" xlink:href="#DejaVuSans-35"/>
       <use x="127.246094" xlink:href="#DejaVuSans-6d"/>
      </g>
     </g>
    </g>
    <g id="xtick_3">
     <g id="line2d_3">
      <g>
       <use style="stroke:#000000;stroke-width:0.8;" x="205.785639" xlink:href="#m7e7cefda43" y="288.430125"/>
      </g>
     </g>
     <g id="text_3">
      <!-- 1h:22m -->
      <g transform="translate(186.518452 303.028562)scale(0.1 -0.1)">
       <defs>
        <path d="M 3513 2113 
L 3513 0 
L 2938 0 
L 2938 2094 
Q 2938 2591 2744 2837 
Q 2550 3084 2163 3084 
Q 1697 3084 1428 2787 
Q 1159 2491 1159 1978 
L 1159 0 
L 581 0 
L 581 4863 
L 1159 4863 
L 1159 2956 
Q 1366 3272 1645 3428 
Q 1925 3584 2291 3584 
Q 2894 3584 3203 3211 
Q 3513 2838 3513 2113 
z
" id="DejaVuSans-68" transform="scale(0.015625)"/>
        <path d="M 750 794 
L 1409 794 
L 1409 0 
L 750 0 
L 750 794 
z
M 750 3309 
L 1409 3309 
L 1409 2516 
L 750 2516 
L 750 3309 
z
" id="DejaVuSans-3a" transform="scale(0.015625)"/>
        <path d="M 1228 531 
L 3431 531 
L 3431 0 
L 469 0 
L 469 531 
Q 828 903 1448 1529 
Q 2069 2156 2228 2338 
Q 2531 2678 2651 2914 
Q 2772 3150 2772 3378 
Q 2772 3750 2511 3984 
Q 2250 4219 1831 4219 
Q 1534 4219 1204 4116 
Q 875 4013 500 3803 
L 500 4441 
Q 881 4594 1212 4672 
Q 1544 4750 1819 4750 
Q 2544 4750 2975 4387 
Q 3406 4025 3406 3419 
Q 3406 3131 3298 2873 
Q 3191 2616 2906 2266 
Q 2828 2175 2409 1742 
Q 1991 1309 1228 531 
z
" id="DejaVuSans-32" transform="scale(0.015625)"/>
       </defs>
       <use xlink:href="#DejaVuSans-31"/>
       <use x="63.623047" xlink:href="#DejaVuSans-68"/>
       <use x="127.001953" xlink:href="#DejaVuSans-3a"/>
       <use x="160.693359" xlink:href="#DejaVuSans-32"/>
       <use x="224.316406" xlink:href="#DejaVuSans-32"/>
       <use x="287.939453" xlink:href="#DejaVuSans-6d"/>
      </g>
     </g>
    </g>
    <g id="xtick_4">
     <g id="line2d_4">
      <g>
       <use style="stroke:#000000;stroke-width:0.8;" x="270.716782" xlink:href="#m7e7cefda43" y="288.430125"/>
      </g>
     </g>
     <g id="text_4">
      <!-- 3h:15m -->
      <g transform="translate(251.449595 303.028562)scale(0.1 -0.1)">
       <use xlink:href="#DejaVuSans-33"/>
       <use x="63.623047" xlink:href="#DejaVuSans-68"/>
       <use x="127.001953" xlink:href="#DejaVuSans-3a"/>
       <use x="160.693359" xlink:href="#DejaVuSans-31"/>
       <use x="224.316406" xlink:href="#DejaVuSans-35"/>
       <use x="287.939453" xlink:href="#DejaVuSans-6d"/>
      </g>
     </g>
    </g>
    <g id="xtick_5">
     <g id="line2d_5">
      <g>
       <use style="stroke:#000000;stroke-width:0.8;" x="335.647926" xlink:href="#m7e7cefda43" y="288.430125"/>
      </g>
     </g>
     <g id="text_5">
      <!-- 7h:39m -->
      <g transform="translate(316.380738 303.028562)scale(0.1 -0.1)">
       <defs>
        <path d="M 525 4666 
L 3525 4666 
L 3525 4397 
L 1831 0 
L 1172 0 
L 2766 4134 
L 525 4134 
L 525 4666 
z
" id="DejaVuSans-37" transform="scale(0.015625)"/>
        <path d="M 703 97 
L 703 672 
Q 941 559 1184 500 
Q 1428 441 1663 441 
Q 2288 441 2617 861 
Q 2947 1281 2994 2138 
Q 2813 1869 2534 1725 
Q 2256 1581 1919 1581 
Q 1219 1581 811 2004 
Q 403 2428 403 3163 
Q 403 3881 828 4315 
Q 1253 4750 1959 4750 
Q 2769 4750 3195 4129 
Q 3622 3509 3622 2328 
Q 3622 1225 3098 567 
Q 2575 -91 1691 -91 
Q 1453 -91 1209 -44 
Q 966 3 703 97 
z
M 1959 2075 
Q 2384 2075 2632 2365 
Q 2881 2656 2881 3163 
Q 2881 3666 2632 3958 
Q 2384 4250 1959 4250 
Q 1534 4250 1286 3958 
Q 1038 3666 1038 3163 
Q 1038 2656 1286 2365 
Q 1534 2075 1959 2075 
z
" id="DejaVuSans-39" transform="scale(0.015625)"/>
       </defs>
       <use xlink:href="#DejaVuSans-37"/>
       <use x="63.623047" xlink:href="#DejaVuSans-68"/>
       <use x="127.001953" xlink:href="#DejaVuSans-3a"/>
       <use x="160.693359" xlink:href="#DejaVuSans-33"/>
       <use x="224.316406" xlink:href="#DejaVuSans-39"/>
       <use x="287.939453" xlink:href="#DejaVuSans-6d"/>
      </g>
     </g>
    </g>
    <g id="xtick_6">
     <g id="line2d_6">
      <g>
       <use style="stroke:#000000;stroke-width:0.8;" x="400.579069" xlink:href="#m7e7cefda43" y="288.430125"/>
      </g>
     </g>
     <g id="text_6">
      <!-- 18h -->
      <g transform="translate(391.047819 303.028562)scale(0.1 -0.1)">
       <defs>
        <path d="M 2034 2216 
Q 1584 2216 1326 1975 
Q 1069 1734 1069 1313 
Q 1069 891 1326 650 
Q 1584 409 2034 409 
Q 2484 409 2743 651 
Q 3003 894 3003 1313 
Q 3003 1734 2745 1975 
Q 2488 2216 2034 2216 
z
M 1403 2484 
Q 997 2584 770 2862 
Q 544 3141 544 3541 
Q 544 4100 942 4425 
Q 1341 4750 2034 4750 
Q 2731 4750 3128 4425 
Q 3525 4100 3525 3541 
Q 3525 3141 3298 2862 
Q 3072 2584 2669 2484 
Q 3125 2378 3379 2068 
Q 3634 1759 3634 1313 
Q 3634 634 3220 271 
Q 2806 -91 2034 -91 
Q 1263 -91 848 271 
Q 434 634 434 1313 
Q 434 1759 690 2068 
Q 947 2378 1403 2484 
z
M 1172 3481 
Q 1172 3119 1398 2916 
Q 1625 2713 2034 2713 
Q 2441 2713 2670 2916 
Q 2900 3119 2900 3481 
Q 2900 3844 2670 4047 
Q 2441 4250 2034 4250 
Q 1625 4250 1398 4047 
Q 1172 3844 1172 3481 
z
" id="DejaVuSans-38" transform="scale(0.015625)"/>
       </defs>
       <use xlink:href="#DejaVuSans-31"/>
       <use x="63.623047" xlink:href="#DejaVuSans-38"/>
       <use x="127.246094" xlink:href="#DejaVuSans-68"/>
      </g>
     </g>
    </g>
    <g id="xtick_7">
     <g id="line2d_7">
      <defs>
       <path d="M 0 0 
L 0 2 
" id="m8d39d07e83" style="stroke:#000000;stroke-width:0.6;"/>
      </defs>
      <g>
       <use style="stroke:#000000;stroke-width:0.6;" x="66.982089" xlink:href="#m8d39d07e83" y="288.430125"/>
      </g>
     </g>
    </g>
    <g id="xtick_8">
     <g id="line2d_8">
      <g>
       <use style="stroke:#000000;stroke-width:0.6;" x="136.540465" xlink:href="#m8d39d07e83" y="288.430125"/>
      </g>
     </g>
    </g>
    <g id="xtick_9">
     <g id="line2d_9">
      <g>
       <use style="stroke:#000000;stroke-width:0.6;" x="167.320537" xlink:href="#m8d39d07e83" y="288.430125"/>
      </g>
     </g>
    </g>
    <g id="xtick_10">
     <g id="line2d_10">
      <g>
       <use style="stroke:#000000;stroke-width:0.6;" x="189.159346" xlink:href="#m8d39d07e83" y="288.430125"/>
      </g>
     </g>
    </g>
    <g id="xtick_11">
     <g id="line2d_11">
      <g>
       <use style="stroke:#000000;stroke-width:0.6;" x="206.098841" xlink:href="#m8d39d07e83" y="288.430125"/>
      </g>
     </g>
    </g>
    <g id="xtick_12">
     <g id="line2d_12">
      <g>
       <use style="stroke:#000000;stroke-width:0.6;" x="219.939417" xlink:href="#m8d39d07e83" y="288.430125"/>
      </g>
     </g>
    </g>
    <g id="xtick_13">
     <g id="line2d_13">
      <g>
       <use style="stroke:#000000;stroke-width:0.6;" x="231.641458" xlink:href="#m8d39d07e83" y="288.430125"/>
      </g>
     </g>
    </g>
    <g id="xtick_14">
     <g id="line2d_14">
      <g>
       <use style="stroke:#000000;stroke-width:0.6;" x="241.778226" xlink:href="#m8d39d07e83" y="288.430125"/>
      </g>
     </g>
    </g>
    <g id="xtick_15">
     <g id="line2d_15">
      <g>
       <use style="stroke:#000000;stroke-width:0.6;" x="250.719489" xlink:href="#m8d39d07e83" y="288.430125"/>
      </g>
     </g>
    </g>
    <g id="xtick_16">
     <g id="line2d_16">
      <g>
       <use style="stroke:#000000;stroke-width:0.6;" x="311.336602" xlink:href="#m8d39d07e83" y="288.430125"/>
      </g>
     </g>
    </g>
    <g id="xtick_17">
     <g id="line2d_17">
      <g>
       <use style="stroke:#000000;stroke-width:0.6;" x="342.116674" xlink:href="#m8d39d07e83" y="288.430125"/>
      </g>
     </g>
    </g>
    <g id="xtick_18">
     <g id="line2d_18">
      <g>
       <use style="stroke:#000000;stroke-width:0.6;" x="363.955483" xlink:href="#m8d39d07e83" y="288.430125"/>
      </g>
     </g>
    </g>
    <g id="xtick_19">
     <g id="line2d_19">
      <g>
       <use style="stroke:#000000;stroke-width:0.6;" x="380.894978" xlink:href="#m8d39d07e83" y="288.430125"/>
      </g>
     </g>
    </g>
    <g id="xtick_20">
     <g id="line2d_20">
      <g>
       <use style="stroke:#000000;stroke-width:0.6;" x="394.735554" xlink:href="#m8d39d07e83" y="288.430125"/>
      </g>
     </g>
    </g>
    <g id="xtick_21">
     <g id="line2d_21">
      <g>
       <use style="stroke:#000000;stroke-width:0.6;" x="406.437595" xlink:href="#m8d39d07e83" y="288.430125"/>
      </g>
     </g>
    </g>
    <g id="xtick_22">
     <g id="line2d_22">
      <g>
       <use style="stroke:#000000;stroke-width:0.6;" x="416.574363" xlink:href="#m8d39d07e83" y="288.430125"/>
      </g>
     </g>
    </g>
    <g id="text_7">
     <!-- Time (hour:minute) -->
     <g transform="translate(189.843594 316.706687)scale(0.1 -0.1)">
      <defs>
       <path d="M -19 4666 
L 3928 4666 
L 3928 4134 
L 2272 4134 
L 2272 0 
L 1638 0 
L 1638 4134 
L -19 4134 
L -19 4666 
z
" id="DejaVuSans-54" transform="scale(0.015625)"/>
       <path d="M 603 3500 
L 1178 3500 
L 1178 0 
L 603 0 
L 603 3500 
z
M 603 4863 
L 1178 4863 
L 1178 4134 
L 603 4134 
L 603 4863 
z
" id="DejaVuSans-69" transform="scale(0.015625)"/>
       <path d="M 3597 1894 
L 3597 1613 
L 953 1613 
Q 991 1019 1311 708 
Q 1631 397 2203 397 
Q 2534 397 2845 478 
Q 3156 559 3463 722 
L 3463 178 
Q 3153 47 2828 -22 
Q 2503 -91 2169 -91 
Q 1331 -91 842 396 
Q 353 884 353 1716 
Q 353 2575 817 3079 
Q 1281 3584 2069 3584 
Q 2775 3584 3186 3129 
Q 3597 2675 3597 1894 
z
M 3022 2063 
Q 3016 2534 2758 2815 
Q 2500 3097 2075 3097 
Q 1594 3097 1305 2825 
Q 1016 2553 972 2059 
L 3022 2063 
z
" id="DejaVuSans-65" transform="scale(0.015625)"/>
       <path id="DejaVuSans-20" transform="scale(0.015625)"/>
       <path d="M 1984 4856 
Q 1566 4138 1362 3434 
Q 1159 2731 1159 2009 
Q 1159 1288 1364 580 
Q 1569 -128 1984 -844 
L 1484 -844 
Q 1016 -109 783 600 
Q 550 1309 550 2009 
Q 550 2706 781 3412 
Q 1013 4119 1484 4856 
L 1984 4856 
z
" id="DejaVuSans-28" transform="scale(0.015625)"/>
       <path d="M 1959 3097 
Q 1497 3097 1228 2736 
Q 959 2375 959 1747 
Q 959 1119 1226 758 
Q 1494 397 1959 397 
Q 2419 397 2687 759 
Q 2956 1122 2956 1747 
Q 2956 2369 2687 2733 
Q 2419 3097 1959 3097 
z
M 1959 3584 
Q 2709 3584 3137 3096 
Q 3566 2609 3566 1747 
Q 3566 888 3137 398 
Q 2709 -91 1959 -91 
Q 1206 -91 779 398 
Q 353 888 353 1747 
Q 353 2609 779 3096 
Q 1206 3584 1959 3584 
z
" id="DejaVuSans-6f" transform="scale(0.015625)"/>
       <path d="M 544 1381 
L 544 3500 
L 1119 3500 
L 1119 1403 
Q 1119 906 1312 657 
Q 1506 409 1894 409 
Q 2359 409 2629 706 
Q 2900 1003 2900 1516 
L 2900 3500 
L 3475 3500 
L 3475 0 
L 2900 0 
L 2900 538 
Q 2691 219 2414 64 
Q 2138 -91 1772 -91 
Q 1169 -91 856 284 
Q 544 659 544 1381 
z
M 1991 3584 
L 1991 3584 
z
" id="DejaVuSans-75" transform="scale(0.015625)"/>
       <path d="M 2631 2963 
Q 2534 3019 2420 3045 
Q 2306 3072 2169 3072 
Q 1681 3072 1420 2755 
Q 1159 2438 1159 1844 
L 1159 0 
L 581 0 
L 581 3500 
L 1159 3500 
L 1159 2956 
Q 1341 3275 1631 3429 
Q 1922 3584 2338 3584 
Q 2397 3584 2469 3576 
Q 2541 3569 2628 3553 
L 2631 2963 
z
" id="DejaVuSans-72" transform="scale(0.015625)"/>
       <path d="M 3513 2113 
L 3513 0 
L 2938 0 
L 2938 2094 
Q 2938 2591 2744 2837 
Q 2550 3084 2163 3084 
Q 1697 3084 1428 2787 
Q 1159 2491 1159 1978 
L 1159 0 
L 581 0 
L 581 3500 
L 1159 3500 
L 1159 2956 
Q 1366 3272 1645 3428 
Q 1925 3584 2291 3584 
Q 2894 3584 3203 3211 
Q 3513 2838 3513 2113 
z
" id="DejaVuSans-6e" transform="scale(0.015625)"/>
       <path d="M 1172 4494 
L 1172 3500 
L 2356 3500 
L 2356 3053 
L 1172 3053 
L 1172 1153 
Q 1172 725 1289 603 
Q 1406 481 1766 481 
L 2356 481 
L 2356 0 
L 1766 0 
Q 1100 0 847 248 
Q 594 497 594 1153 
L 594 3053 
L 172 3053 
L 172 3500 
L 594 3500 
L 594 4494 
L 1172 4494 
z
" id="DejaVuSans-74" transform="scale(0.015625)"/>
       <path d="M 513 4856 
L 1013 4856 
Q 1481 4119 1714 3412 
Q 1947 2706 1947 2009 
Q 1947 1309 1714 600 
Q 1481 -109 1013 -844 
L 513 -844 
Q 928 -128 1133 580 
Q 1338 1288 1338 2009 
Q 1338 2731 1133 3434 
Q 928 4138 513 4856 
z
" id="DejaVuSans-29" transform="scale(0.015625)"/>
      </defs>
      <use xlink:href="#DejaVuSans-54"/>
      <use x="57.958984" xlink:href="#DejaVuSans-69"/>
      <use x="85.742188" xlink:href="#DejaVuSans-6d"/>
      <use x="183.154297" xlink:href="#DejaVuSans-65"/>
      <use x="244.677734" xlink:href="#DejaVuSans-20"/>
      <use x="276.464844" xlink:href="#DejaVuSans-28"/>
      <use x="315.478516" xlink:href="#DejaVuSans-68"/>
      <use x="378.857422" xlink:href="#DejaVuSans-6f"/>
      <use x="440.039062" xlink:href="#DejaVuSans-75"/>
      <use x="503.417969" xlink:href="#DejaVuSans-72"/>
      <use x="542.78125" xlink:href="#DejaVuSans-3a"/>
      <use x="576.472656" xlink:href="#DejaVuSans-6d"/>
      <use x="673.884766" xlink:href="#DejaVuSans-69"/>
      <use x="701.667969" xlink:href="#DejaVuSans-6e"/>
      <use x="765.046875" xlink:href="#DejaVuSans-75"/>
      <use x="828.425781" xlink:href="#DejaVuSans-74"/>
      <use x="867.634766" xlink:href="#DejaVuSans-65"/>
      <use x="929.158203" xlink:href="#DejaVuSans-29"/>
     </g>
    </g>
   </g>
   <g id="matplotlib.axis_2">
    <g id="ytick_1">
     <g id="line2d_23">
      <defs>
       <path d="M 0 0 
L -3.5 0 
" id="mf529225525" style="stroke:#000000;stroke-width:0.8;"/>
      </defs>
      <g>
       <use style="stroke:#000000;stroke-width:0.8;" x="59.690625" xlink:href="#mf529225525" y="283.525928"/>
      </g>
     </g>
     <g id="text_8">
      <!-- 12500 -->
      <g transform="translate(20.878125 287.325146)scale(0.1 -0.1)">
       <defs>
        <path d="M 2034 4250 
Q 1547 4250 1301 3770 
Q 1056 3291 1056 2328 
Q 1056 1369 1301 889 
Q 1547 409 2034 409 
Q 2525 409 2770 889 
Q 3016 1369 3016 2328 
Q 3016 3291 2770 3770 
Q 2525 4250 2034 4250 
z
M 2034 4750 
Q 2819 4750 3233 4129 
Q 3647 3509 3647 2328 
Q 3647 1150 3233 529 
Q 2819 -91 2034 -91 
Q 1250 -91 836 529 
Q 422 1150 422 2328 
Q 422 3509 836 4129 
Q 1250 4750 2034 4750 
z
" id="DejaVuSans-30" transform="scale(0.015625)"/>
       </defs>
       <use xlink:href="#DejaVuSans-31"/>
       <use x="63.623047" xlink:href="#DejaVuSans-32"/>
       <use x="127.246094" xlink:href="#DejaVuSans-35"/>
       <use x="190.869141" xlink:href="#DejaVuSans-30"/>
       <use x="254.492188" xlink:href="#DejaVuSans-30"/>
      </g>
     </g>
    </g>
    <g id="ytick_2">
     <g id="line2d_24">
      <g>
       <use style="stroke:#000000;stroke-width:0.8;" x="59.690625" xlink:href="#mf529225525" y="252.922512"/>
      </g>
     </g>
     <g id="text_9">
      <!-- 13000 -->
      <g transform="translate(20.878125 256.721731)scale(0.1 -0.1)">
       <use xlink:href="#DejaVuSans-31"/>
       <use x="63.623047" xlink:href="#DejaVuSans-33"/>
       <use x="127.246094" xlink:href="#DejaVuSans-30"/>
       <use x="190.869141" xlink:href="#DejaVuSans-30"/>
       <use x="254.492188" xlink:href="#DejaVuSans-30"/>
      </g>
     </g>
    </g>
    <g id="ytick_3">
     <g id="line2d_25">
      <g>
       <use style="stroke:#000000;stroke-width:0.8;" x="59.690625" xlink:href="#mf529225525" y="222.319097"/>
      </g>
     </g>
     <g id="text_10">
      <!-- 13500 -->
      <g transform="translate(20.878125 226.118315)scale(0.1 -0.1)">
       <use xlink:href="#DejaVuSans-31"/>
       <use x="63.623047" xlink:href="#DejaVuSans-33"/>
       <use x="127.246094" xlink:href="#DejaVuSans-35"/>
       <use x="190.869141" xlink:href="#DejaVuSans-30"/>
       <use x="254.492188" xlink:href="#DejaVuSans-30"/>
      </g>
     </g>
    </g>
    <g id="ytick_4">
     <g id="line2d_26">
      <g>
       <use style="stroke:#000000;stroke-width:0.8;" x="59.690625" xlink:href="#mf529225525" y="191.715681"/>
      </g>
     </g>
     <g id="text_11">
      <!-- 14000 -->
      <g transform="translate(20.878125 195.5149)scale(0.1 -0.1)">
       <use xlink:href="#DejaVuSans-31"/>
       <use x="63.623047" xlink:href="#DejaVuSans-34"/>
       <use x="127.246094" xlink:href="#DejaVuSans-30"/>
       <use x="190.869141" xlink:href="#DejaVuSans-30"/>
       <use x="254.492188" xlink:href="#DejaVuSans-30"/>
      </g>
     </g>
    </g>
    <g id="ytick_5">
     <g id="line2d_27">
      <g>
       <use style="stroke:#000000;stroke-width:0.8;" x="59.690625" xlink:href="#mf529225525" y="161.112265"/>
      </g>
     </g>
     <g id="text_12">
      <!-- 14500 -->
      <g transform="translate(20.878125 164.911484)scale(0.1 -0.1)">
       <use xlink:href="#DejaVuSans-31"/>
       <use x="63.623047" xlink:href="#DejaVuSans-34"/>
       <use x="127.246094" xlink:href="#DejaVuSans-35"/>
       <use x="190.869141" xlink:href="#DejaVuSans-30"/>
       <use x="254.492188" xlink:href="#DejaVuSans-30"/>
      </g>
     </g>
    </g>
    <g id="ytick_6">
     <g id="line2d_28">
      <g>
       <use style="stroke:#000000;stroke-width:0.8;" x="59.690625" xlink:href="#mf529225525" y="130.50885"/>
      </g>
     </g>
     <g id="text_13">
      <!-- 15000 -->
      <g transform="translate(20.878125 134.308069)scale(0.1 -0.1)">
       <use xlink:href="#DejaVuSans-31"/>
       <use x="63.623047" xlink:href="#DejaVuSans-35"/>
       <use x="127.246094" xlink:href="#DejaVuSans-30"/>
       <use x="190.869141" xlink:href="#DejaVuSans-30"/>
       <use x="254.492188" xlink:href="#DejaVuSans-30"/>
      </g>
     </g>
    </g>
    <g id="ytick_7">
     <g id="line2d_29">
      <g>
       <use style="stroke:#000000;stroke-width:0.8;" x="59.690625" xlink:href="#mf529225525" y="99.905434"/>
      </g>
     </g>
     <g id="text_14">
      <!-- 15500 -->
      <g transform="translate(20.878125 103.704653)scale(0.1 -0.1)">
       <use xlink:href="#DejaVuSans-31"/>
       <use x="63.623047" xlink:href="#DejaVuSans-35"/>
       <use x="127.246094" xlink:href="#DejaVuSans-35"/>
       <use x="190.869141" xlink:href="#DejaVuSans-30"/>
       <use x="254.492188" xlink:href="#DejaVuSans-30"/>
      </g>
     </g>
    </g>
    <g id="ytick_8">
     <g id="line2d_30">
      <g>
       <use style="stroke:#000000;stroke-width:0.8;" x="59.690625" xlink:href="#mf529225525" y="69.302019"/>
      </g>
     </g>
     <g id="text_15">
      <!-- 16000 -->
      <g transform="translate(20.878125 73.101237)scale(0.1 -0.1)">
       <defs>
        <path d="M 2113 2584 
Q 1688 2584 1439 2293 
Q 1191 2003 1191 1497 
Q 1191 994 1439 701 
Q 1688 409 2113 409 
Q 2538 409 2786 701 
Q 3034 994 3034 1497 
Q 3034 2003 2786 2293 
Q 2538 2584 2113 2584 
z
M 3366 4563 
L 3366 3988 
Q 3128 4100 2886 4159 
Q 2644 4219 2406 4219 
Q 1781 4219 1451 3797 
Q 1122 3375 1075 2522 
Q 1259 2794 1537 2939 
Q 1816 3084 2150 3084 
Q 2853 3084 3261 2657 
Q 3669 2231 3669 1497 
Q 3669 778 3244 343 
Q 2819 -91 2113 -91 
Q 1303 -91 875 529 
Q 447 1150 447 2328 
Q 447 3434 972 4092 
Q 1497 4750 2381 4750 
Q 2619 4750 2861 4703 
Q 3103 4656 3366 4563 
z
" id="DejaVuSans-36" transform="scale(0.015625)"/>
       </defs>
       <use xlink:href="#DejaVuSans-31"/>
       <use x="63.623047" xlink:href="#DejaVuSans-36"/>
       <use x="127.246094" xlink:href="#DejaVuSans-30"/>
       <use x="190.869141" xlink:href="#DejaVuSans-30"/>
       <use x="254.492188" xlink:href="#DejaVuSans-30"/>
      </g>
     </g>
    </g>
    <g id="ytick_9">
     <g id="line2d_31">
      <g>
       <use style="stroke:#000000;stroke-width:0.8;" x="59.690625" xlink:href="#mf529225525" y="38.698603"/>
      </g>
     </g>
     <g id="text_16">
      <!-- 16500 -->
      <g transform="translate(20.878125 42.497822)scale(0.1 -0.1)">
       <use xlink:href="#DejaVuSans-31"/>
       <use x="63.623047" xlink:href="#DejaVuSans-36"/>
       <use x="127.246094" xlink:href="#DejaVuSans-35"/>
       <use x="190.869141" xlink:href="#DejaVuSans-30"/>
       <use x="254.492188" xlink:href="#DejaVuSans-30"/>
      </g>
     </g>
    </g>
    <g id="text_17">
     <!-- Code region coverage -->
     <g transform="translate(14.798438 210.379594)rotate(-90)scale(0.1 -0.1)">
      <defs>
       <path d="M 4122 4306 
L 4122 3641 
Q 3803 3938 3442 4084 
Q 3081 4231 2675 4231 
Q 1875 4231 1450 3742 
Q 1025 3253 1025 2328 
Q 1025 1406 1450 917 
Q 1875 428 2675 428 
Q 3081 428 3442 575 
Q 3803 722 4122 1019 
L 4122 359 
Q 3791 134 3420 21 
Q 3050 -91 2638 -91 
Q 1578 -91 968 557 
Q 359 1206 359 2328 
Q 359 3453 968 4101 
Q 1578 4750 2638 4750 
Q 3056 4750 3426 4639 
Q 3797 4528 4122 4306 
z
" id="DejaVuSans-43" transform="scale(0.015625)"/>
       <path d="M 2906 2969 
L 2906 4863 
L 3481 4863 
L 3481 0 
L 2906 0 
L 2906 525 
Q 2725 213 2448 61 
Q 2172 -91 1784 -91 
Q 1150 -91 751 415 
Q 353 922 353 1747 
Q 353 2572 751 3078 
Q 1150 3584 1784 3584 
Q 2172 3584 2448 3432 
Q 2725 3281 2906 2969 
z
M 947 1747 
Q 947 1113 1208 752 
Q 1469 391 1925 391 
Q 2381 391 2643 752 
Q 2906 1113 2906 1747 
Q 2906 2381 2643 2742 
Q 2381 3103 1925 3103 
Q 1469 3103 1208 2742 
Q 947 2381 947 1747 
z
" id="DejaVuSans-64" transform="scale(0.015625)"/>
       <path d="M 2906 1791 
Q 2906 2416 2648 2759 
Q 2391 3103 1925 3103 
Q 1463 3103 1205 2759 
Q 947 2416 947 1791 
Q 947 1169 1205 825 
Q 1463 481 1925 481 
Q 2391 481 2648 825 
Q 2906 1169 2906 1791 
z
M 3481 434 
Q 3481 -459 3084 -895 
Q 2688 -1331 1869 -1331 
Q 1566 -1331 1297 -1286 
Q 1028 -1241 775 -1147 
L 775 -588 
Q 1028 -725 1275 -790 
Q 1522 -856 1778 -856 
Q 2344 -856 2625 -561 
Q 2906 -266 2906 331 
L 2906 616 
Q 2728 306 2450 153 
Q 2172 0 1784 0 
Q 1141 0 747 490 
Q 353 981 353 1791 
Q 353 2603 747 3093 
Q 1141 3584 1784 3584 
Q 2172 3584 2450 3431 
Q 2728 3278 2906 2969 
L 2906 3500 
L 3481 3500 
L 3481 434 
z
" id="DejaVuSans-67" transform="scale(0.015625)"/>
       <path d="M 3122 3366 
L 3122 2828 
Q 2878 2963 2633 3030 
Q 2388 3097 2138 3097 
Q 1578 3097 1268 2742 
Q 959 2388 959 1747 
Q 959 1106 1268 751 
Q 1578 397 2138 397 
Q 2388 397 2633 464 
Q 2878 531 3122 666 
L 3122 134 
Q 2881 22 2623 -34 
Q 2366 -91 2075 -91 
Q 1284 -91 818 406 
Q 353 903 353 1747 
Q 353 2603 823 3093 
Q 1294 3584 2113 3584 
Q 2378 3584 2631 3529 
Q 2884 3475 3122 3366 
z
" id="DejaVuSans-63" transform="scale(0.015625)"/>
       <path d="M 191 3500 
L 800 3500 
L 1894 563 
L 2988 3500 
L 3597 3500 
L 2284 0 
L 1503 0 
L 191 3500 
z
" id="DejaVuSans-76" transform="scale(0.015625)"/>
       <path d="M 2194 1759 
Q 1497 1759 1228 1600 
Q 959 1441 959 1056 
Q 959 750 1161 570 
Q 1363 391 1709 391 
Q 2188 391 2477 730 
Q 2766 1069 2766 1631 
L 2766 1759 
L 2194 1759 
z
M 3341 1997 
L 3341 0 
L 2766 0 
L 2766 531 
Q 2569 213 2275 61 
Q 1981 -91 1556 -91 
Q 1019 -91 701 211 
Q 384 513 384 1019 
Q 384 1609 779 1909 
Q 1175 2209 1959 2209 
L 2766 2209 
L 2766 2266 
Q 2766 2663 2505 2880 
Q 2244 3097 1772 3097 
Q 1472 3097 1187 3025 
Q 903 2953 641 2809 
L 641 3341 
Q 956 3463 1253 3523 
Q 1550 3584 1831 3584 
Q 2591 3584 2966 3190 
Q 3341 2797 3341 1997 
z
" id="DejaVuSans-61" transform="scale(0.015625)"/>
      </defs>
      <use xlink:href="#DejaVuSans-43"/>
      <use x="69.824219" xlink:href="#DejaVuSans-6f"/>
      <use x="131.005859" xlink:href="#DejaVuSans-64"/>
      <use x="194.482422" xlink:href="#DejaVuSans-65"/>
      <use x="256.005859" xlink:href="#DejaVuSans-20"/>
      <use x="287.792969" xlink:href="#DejaVuSans-72"/>
      <use x="326.65625" xlink:href="#DejaVuSans-65"/>
      <use x="388.179688" xlink:href="#DejaVuSans-67"/>
      <use x="451.65625" xlink:href="#DejaVuSans-69"/>
      <use x="479.439453" xlink:href="#DejaVuSans-6f"/>
      <use x="540.621094" xlink:href="#DejaVuSans-6e"/>
      <use x="604" xlink:href="#DejaVuSans-20"/>
      <use x="635.787109" xlink:href="#DejaVuSans-63"/>
      <use x="690.767578" xlink:href="#DejaVuSans-6f"/>
      <use x="751.949219" xlink:href="#DejaVuSans-76"/>
      <use x="811.128906" xlink:href="#DejaVuSans-65"/>
      <use x="872.652344" xlink:href="#DejaVuSans-72"/>
      <use x="913.765625" xlink:href="#DejaVuSans-61"/>
      <use x="975.044922" xlink:href="#DejaVuSans-67"/>
      <use x="1038.521484" xlink:href="#DejaVuSans-65"/>
     </g>
    </g>
   </g>
   <g id="line2d_32">
    <path clip-path="url(#p2aa9635c34)" d="M 75.923352 267.979393 
L 128.542233 256.166474 
L 159.322304 231.836759 
L 181.161113 227.18504 
L 198.100609 220.299271 
L 211.941185 215.035484 
L 223.643225 211.699711 
L 233.779993 206.741958 
L 242.721257 203.497996 
L 250.719489 203.130755 
L 257.954771 198.907484 
L 264.560065 198.142398 
L 270.636347 197.591537 
L 276.262105 192.664387 
L 281.499561 192.51137 
L 286.398874 190.307924 
L 291.00107 185.656205 
L 295.340137 179.229487 
L 299.444542 178.066558 
L 303.33837 174.210527 
L 307.042177 168.824326 
L 310.573651 163.866573 
L 313.948118 160.622611 
L 317.178946 157.501062 
L 320.277866 151.900637 
L 323.255227 148.748486 
L 326.120209 144.31099 
L 328.880986 138.03729 
L 331.544873 132.467468 
L 334.118441 126.714026 
L 336.607615 122.429548 
L 339.017754 118.022656 
L 341.353723 116.247658 
L 343.619951 113.615764 
L 345.820482 109.698527 
L 347.959017 107.617495 
L 350.038956 102.292501 
L 352.063422 102.170087 
L 354.035299 101.619226 
L 355.95725 94.76406 
L 357.83174 89.010618 
L 359.661058 88.39855 
L 361.447328 85.674846 
L 363.192531 85.338208 
L 364.898513 84.603727 
L 366.566998 84.420106 
L 368.199598 84.328296 
L 369.797826 84.052865 
L 371.363098 83.134763 
L 372.896746 82.828728 
L 374.400023 78.146406 
L 375.874108 74.963651 
L 377.320113 74.657616 
L 378.739089 80.319248 
L 380.132027 74.106755 
L 381.499866 71.291241 
L 382.843494 73.678307 
L 384.163753 74.810634 
L 385.461443 75.330892 
L 386.737322 74.198565 
L 387.992111 71.566671 
L 389.226496 71.566671 
L 390.441129 70.954603 
L 391.636634 69.76107 
L 392.813604 69.638656 
L 393.972603 69.638656 
L 395.114174 68.628744 
L 396.238831 68.261503 
L 397.34707 68.077882 
L 398.439362 66.700728 
L 399.51616 65.99685 
L 400.577898 63.181336 
" style="fill:none;stroke:#98df8a;stroke-linecap:square;stroke-width:1.5;"/>
    <defs>
     <path d="M -0 3 
L 3 -3 
L -3 -3 
z
" id="m89eacdc0cf" style="stroke:#ffffff;stroke-linejoin:miter;stroke-width:0.75;"/>
    </defs>
    <g clip-path="url(#p2aa9635c34)">
     <use style="fill:#98df8a;stroke:#ffffff;stroke-linejoin:miter;stroke-width:0.75;" x="75.923352" xlink:href="#m89eacdc0cf" y="267.979393"/>
     <use style="fill:#98df8a;stroke:#ffffff;stroke-linejoin:miter;stroke-width:0.75;" x="128.542233" xlink:href="#m89eacdc0cf" y="256.166474"/>
     <use style="fill:#98df8a;stroke:#ffffff;stroke-linejoin:miter;stroke-width:0.75;" x="159.322304" xlink:href="#m89eacdc0cf" y="231.836759"/>
     <use style="fill:#98df8a;stroke:#ffffff;stroke-linejoin:miter;stroke-width:0.75;" x="181.161113" xlink:href="#m89eacdc0cf" y="227.18504"/>
     <use style="fill:#98df8a;stroke:#ffffff;stroke-linejoin:miter;stroke-width:0.75;" x="198.100609" xlink:href="#m89eacdc0cf" y="220.299271"/>
     <use style="fill:#98df8a;stroke:#ffffff;stroke-linejoin:miter;stroke-width:0.75;" x="211.941185" xlink:href="#m89eacdc0cf" y="215.035484"/>
     <use style="fill:#98df8a;stroke:#ffffff;stroke-linejoin:miter;stroke-width:0.75;" x="223.643225" xlink:href="#m89eacdc0cf" y="211.699711"/>
     <use style="fill:#98df8a;stroke:#ffffff;stroke-linejoin:miter;stroke-width:0.75;" x="233.779993" xlink:href="#m89eacdc0cf" y="206.741958"/>
     <use style="fill:#98df8a;stroke:#ffffff;stroke-linejoin:miter;stroke-width:0.75;" x="242.721257" xlink:href="#m89eacdc0cf" y="203.497996"/>
     <use style="fill:#98df8a;stroke:#ffffff;stroke-linejoin:miter;stroke-width:0.75;" x="250.719489" xlink:href="#m89eacdc0cf" y="203.130755"/>
     <use style="fill:#98df8a;stroke:#ffffff;stroke-linejoin:miter;stroke-width:0.75;" x="257.954771" xlink:href="#m89eacdc0cf" y="198.907484"/>
     <use style="fill:#98df8a;stroke:#ffffff;stroke-linejoin:miter;stroke-width:0.75;" x="264.560065" xlink:href="#m89eacdc0cf" y="198.142398"/>
     <use style="fill:#98df8a;stroke:#ffffff;stroke-linejoin:miter;stroke-width:0.75;" x="270.636347" xlink:href="#m89eacdc0cf" y="197.591537"/>
     <use style="fill:#98df8a;stroke:#ffffff;stroke-linejoin:miter;stroke-width:0.75;" x="276.262105" xlink:href="#m89eacdc0cf" y="192.664387"/>
     <use style="fill:#98df8a;stroke:#ffffff;stroke-linejoin:miter;stroke-width:0.75;" x="281.499561" xlink:href="#m89eacdc0cf" y="192.51137"/>
     <use style="fill:#98df8a;stroke:#ffffff;stroke-linejoin:miter;stroke-width:0.75;" x="286.398874" xlink:href="#m89eacdc0cf" y="190.307924"/>
     <use style="fill:#98df8a;stroke:#ffffff;stroke-linejoin:miter;stroke-width:0.75;" x="291.00107" xlink:href="#m89eacdc0cf" y="185.656205"/>
     <use style="fill:#98df8a;stroke:#ffffff;stroke-linejoin:miter;stroke-width:0.75;" x="295.340137" xlink:href="#m89eacdc0cf" y="179.229487"/>
     <use style="fill:#98df8a;stroke:#ffffff;stroke-linejoin:miter;stroke-width:0.75;" x="299.444542" xlink:href="#m89eacdc0cf" y="178.066558"/>
     <use style="fill:#98df8a;stroke:#ffffff;stroke-linejoin:miter;stroke-width:0.75;" x="303.33837" xlink:href="#m89eacdc0cf" y="174.210527"/>
     <use style="fill:#98df8a;stroke:#ffffff;stroke-linejoin:miter;stroke-width:0.75;" x="307.042177" xlink:href="#m89eacdc0cf" y="168.824326"/>
     <use style="fill:#98df8a;stroke:#ffffff;stroke-linejoin:miter;stroke-width:0.75;" x="310.573651" xlink:href="#m89eacdc0cf" y="163.866573"/>
     <use style="fill:#98df8a;stroke:#ffffff;stroke-linejoin:miter;stroke-width:0.75;" x="313.948118" xlink:href="#m89eacdc0cf" y="160.622611"/>
     <use style="fill:#98df8a;stroke:#ffffff;stroke-linejoin:miter;stroke-width:0.75;" x="317.178946" xlink:href="#m89eacdc0cf" y="157.501062"/>
     <use style="fill:#98df8a;stroke:#ffffff;stroke-linejoin:miter;stroke-width:0.75;" x="320.277866" xlink:href="#m89eacdc0cf" y="151.900637"/>
     <use style="fill:#98df8a;stroke:#ffffff;stroke-linejoin:miter;stroke-width:0.75;" x="323.255227" xlink:href="#m89eacdc0cf" y="148.748486"/>
     <use style="fill:#98df8a;stroke:#ffffff;stroke-linejoin:miter;stroke-width:0.75;" x="326.120209" xlink:href="#m89eacdc0cf" y="144.31099"/>
     <use style="fill:#98df8a;stroke:#ffffff;stroke-linejoin:miter;stroke-width:0.75;" x="328.880986" xlink:href="#m89eacdc0cf" y="138.03729"/>
     <use style="fill:#98df8a;stroke:#ffffff;stroke-linejoin:miter;stroke-width:0.75;" x="331.544873" xlink:href="#m89eacdc0cf" y="132.467468"/>
     <use style="fill:#98df8a;stroke:#ffffff;stroke-linejoin:miter;stroke-width:0.75;" x="334.118441" xlink:href="#m89eacdc0cf" y="126.714026"/>
     <use style="fill:#98df8a;stroke:#ffffff;stroke-linejoin:miter;stroke-width:0.75;" x="336.607615" xlink:href="#m89eacdc0cf" y="122.429548"/>
     <use style="fill:#98df8a;stroke:#ffffff;stroke-linejoin:miter;stroke-width:0.75;" x="339.017754" xlink:href="#m89eacdc0cf" y="118.022656"/>
     <use style="fill:#98df8a;stroke:#ffffff;stroke-linejoin:miter;stroke-width:0.75;" x="341.353723" xlink:href="#m89eacdc0cf" y="116.247658"/>
     <use style="fill:#98df8a;stroke:#ffffff;stroke-linejoin:miter;stroke-width:0.75;" x="343.619951" xlink:href="#m89eacdc0cf" y="113.615764"/>
     <use style="fill:#98df8a;stroke:#ffffff;stroke-linejoin:miter;stroke-width:0.75;" x="345.820482" xlink:href="#m89eacdc0cf" y="109.698527"/>
     <use style="fill:#98df8a;stroke:#ffffff;stroke-linejoin:miter;stroke-width:0.75;" x="347.959017" xlink:href="#m89eacdc0cf" y="107.617495"/>
     <use style="fill:#98df8a;stroke:#ffffff;stroke-linejoin:miter;stroke-width:0.75;" x="350.038956" xlink:href="#m89eacdc0cf" y="102.292501"/>
     <use style="fill:#98df8a;stroke:#ffffff;stroke-linejoin:miter;stroke-width:0.75;" x="352.063422" xlink:href="#m89eacdc0cf" y="102.170087"/>
     <use style="fill:#98df8a;stroke:#ffffff;stroke-linejoin:miter;stroke-width:0.75;" x="354.035299" xlink:href="#m89eacdc0cf" y="101.619226"/>
     <use style="fill:#98df8a;stroke:#ffffff;stroke-linejoin:miter;stroke-width:0.75;" x="355.95725" xlink:href="#m89eacdc0cf" y="94.76406"/>
     <use style="fill:#98df8a;stroke:#ffffff;stroke-linejoin:miter;stroke-width:0.75;" x="357.83174" xlink:href="#m89eacdc0cf" y="89.010618"/>
     <use style="fill:#98df8a;stroke:#ffffff;stroke-linejoin:miter;stroke-width:0.75;" x="359.661058" xlink:href="#m89eacdc0cf" y="88.39855"/>
     <use style="fill:#98df8a;stroke:#ffffff;stroke-linejoin:miter;stroke-width:0.75;" x="361.447328" xlink:href="#m89eacdc0cf" y="85.674846"/>
     <use style="fill:#98df8a;stroke:#ffffff;stroke-linejoin:miter;stroke-width:0.75;" x="363.192531" xlink:href="#m89eacdc0cf" y="85.338208"/>
     <use style="fill:#98df8a;stroke:#ffffff;stroke-linejoin:miter;stroke-width:0.75;" x="364.898513" xlink:href="#m89eacdc0cf" y="84.603727"/>
     <use style="fill:#98df8a;stroke:#ffffff;stroke-linejoin:miter;stroke-width:0.75;" x="366.566998" xlink:href="#m89eacdc0cf" y="84.420106"/>
     <use style="fill:#98df8a;stroke:#ffffff;stroke-linejoin:miter;stroke-width:0.75;" x="368.199598" xlink:href="#m89eacdc0cf" y="84.328296"/>
     <use style="fill:#98df8a;stroke:#ffffff;stroke-linejoin:miter;stroke-width:0.75;" x="369.797826" xlink:href="#m89eacdc0cf" y="84.052865"/>
     <use style="fill:#98df8a;stroke:#ffffff;stroke-linejoin:miter;stroke-width:0.75;" x="371.363098" xlink:href="#m89eacdc0cf" y="83.134763"/>
     <use style="fill:#98df8a;stroke:#ffffff;stroke-linejoin:miter;stroke-width:0.75;" x="372.896746" xlink:href="#m89eacdc0cf" y="82.828728"/>
     <use style="fill:#98df8a;stroke:#ffffff;stroke-linejoin:miter;stroke-width:0.75;" x="374.400023" xlink:href="#m89eacdc0cf" y="78.146406"/>
     <use style="fill:#98df8a;stroke:#ffffff;stroke-linejoin:miter;stroke-width:0.75;" x="375.874108" xlink:href="#m89eacdc0cf" y="74.963651"/>
     <use style="fill:#98df8a;stroke:#ffffff;stroke-linejoin:miter;stroke-width:0.75;" x="377.320113" xlink:href="#m89eacdc0cf" y="74.657616"/>
     <use style="fill:#98df8a;stroke:#ffffff;stroke-linejoin:miter;stroke-width:0.75;" x="378.739089" xlink:href="#m89eacdc0cf" y="80.319248"/>
     <use style="fill:#98df8a;stroke:#ffffff;stroke-linejoin:miter;stroke-width:0.75;" x="380.132027" xlink:href="#m89eacdc0cf" y="74.106755"/>
     <use style="fill:#98df8a;stroke:#ffffff;stroke-linejoin:miter;stroke-width:0.75;" x="381.499866" xlink:href="#m89eacdc0cf" y="71.291241"/>
     <use style="fill:#98df8a;stroke:#ffffff;stroke-linejoin:miter;stroke-width:0.75;" x="382.843494" xlink:href="#m89eacdc0cf" y="73.678307"/>
     <use style="fill:#98df8a;stroke:#ffffff;stroke-linejoin:miter;stroke-width:0.75;" x="384.163753" xlink:href="#m89eacdc0cf" y="74.810634"/>
     <use style="fill:#98df8a;stroke:#ffffff;stroke-linejoin:miter;stroke-width:0.75;" x="385.461443" xlink:href="#m89eacdc0cf" y="75.330892"/>
     <use style="fill:#98df8a;stroke:#ffffff;stroke-linejoin:miter;stroke-width:0.75;" x="386.737322" xlink:href="#m89eacdc0cf" y="74.198565"/>
     <use style="fill:#98df8a;stroke:#ffffff;stroke-linejoin:miter;stroke-width:0.75;" x="387.992111" xlink:href="#m89eacdc0cf" y="71.566671"/>
     <use style="fill:#98df8a;stroke:#ffffff;stroke-linejoin:miter;stroke-width:0.75;" x="389.226496" xlink:href="#m89eacdc0cf" y="71.566671"/>
     <use style="fill:#98df8a;stroke:#ffffff;stroke-linejoin:miter;stroke-width:0.75;" x="390.441129" xlink:href="#m89eacdc0cf" y="70.954603"/>
     <use style="fill:#98df8a;stroke:#ffffff;stroke-linejoin:miter;stroke-width:0.75;" x="391.636634" xlink:href="#m89eacdc0cf" y="69.76107"/>
     <use style="fill:#98df8a;stroke:#ffffff;stroke-linejoin:miter;stroke-width:0.75;" x="392.813604" xlink:href="#m89eacdc0cf" y="69.638656"/>
     <use style="fill:#98df8a;stroke:#ffffff;stroke-linejoin:miter;stroke-width:0.75;" x="393.972603" xlink:href="#m89eacdc0cf" y="69.638656"/>
     <use style="fill:#98df8a;stroke:#ffffff;stroke-linejoin:miter;stroke-width:0.75;" x="395.114174" xlink:href="#m89eacdc0cf" y="68.628744"/>
     <use style="fill:#98df8a;stroke:#ffffff;stroke-linejoin:miter;stroke-width:0.75;" x="396.238831" xlink:href="#m89eacdc0cf" y="68.261503"/>
     <use style="fill:#98df8a;stroke:#ffffff;stroke-linejoin:miter;stroke-width:0.75;" x="397.34707" xlink:href="#m89eacdc0cf" y="68.077882"/>
     <use style="fill:#98df8a;stroke:#ffffff;stroke-linejoin:miter;stroke-width:0.75;" x="398.439362" xlink:href="#m89eacdc0cf" y="66.700728"/>
     <use style="fill:#98df8a;stroke:#ffffff;stroke-linejoin:miter;stroke-width:0.75;" x="399.51616" xlink:href="#m89eacdc0cf" y="65.99685"/>
     <use style="fill:#98df8a;stroke:#ffffff;stroke-linejoin:miter;stroke-width:0.75;" x="400.577898" xlink:href="#m89eacdc0cf" y="63.181336"/>
    </g>
   </g>
   <g id="line2d_33">
    <path clip-path="url(#p2aa9635c34)" d="M 75.923352 274.773351 
L 128.542233 260.756986 
L 159.322304 243.007005 
L 181.161113 226.970816 
L 198.100609 217.850998 
L 211.941185 210.261351 
L 223.643225 208.853594 
L 233.779993 206.833768 
L 242.721257 205.211787 
L 250.719489 203.375582 
L 257.954771 199.917396 
L 264.560065 195.632918 
L 270.636347 195.816539 
L 276.262105 191.195423 
L 281.499561 189.053184 
L 286.398874 187.67603 
L 291.00107 182.014398 
L 295.340137 177.82173 
L 299.444542 173.537252 
L 303.33837 167.78381 
L 307.042177 160.071749 
L 310.573651 155.052789 
L 313.948118 153.522618 
L 317.178946 146.453229 
L 320.277866 139.261427 
L 323.255227 136.017465 
L 326.120209 135.589017 
L 328.880986 130.386436 
L 331.544873 128.795059 
L 334.118441 126.285579 
L 336.607615 117.533002 
L 339.017754 113.370937 
L 341.353723 113.370937 
L 343.619951 112.636455 
L 345.820482 111.106284 
L 347.959017 107.954133 
L 350.038956 104.189912 
L 352.063422 103.883878 
L 354.035299 101.894656 
L 355.95725 99.568797 
L 357.83174 97.518368 
L 359.661058 97.518368 
L 361.447328 95.559749 
L 363.192531 95.253715 
L 364.898513 92.591218 
L 366.566998 92.101563 
L 368.199598 88.826998 
L 369.797826 87.602861 
L 371.363098 86.501138 
L 372.896746 86.807172 
L 374.400023 80.594679 
L 375.874108 79.676577 
L 377.320113 79.462353 
L 378.739089 78.483043 
L 380.132027 75.177875 
L 381.499866 75.177875 
L 382.843494 75.330892 
L 384.163753 73.402876 
L 385.461443 71.199431 
L 386.737322 71.199431 
L 387.992111 69.210208 
L 389.226496 69.149002 
L 390.441129 72.729601 
L 391.636634 72.454171 
L 392.813604 72.668394 
L 393.972603 71.811499 
L 395.114174 71.01581 
L 396.238831 70.83219 
L 397.34707 69.179605 
L 398.439362 69.975294 
L 399.51616 68.812364 
L 400.577898 68.812364 
" style="fill:none;stroke:#1f77b4;stroke-linecap:square;stroke-width:1.5;"/>
    <defs>
     <path d="M 0 3 
C 0.795609 3 1.55874 2.683901 2.12132 2.12132 
C 2.683901 1.55874 3 0.795609 3 0 
C 3 -0.795609 2.683901 -1.55874 2.12132 -2.12132 
C 1.55874 -2.683901 0.795609 -3 0 -3 
C -0.795609 -3 -1.55874 -2.683901 -2.12132 -2.12132 
C -2.683901 -1.55874 -3 -0.795609 -3 0 
C -3 0.795609 -2.683901 1.55874 -2.12132 2.12132 
C -1.55874 2.683901 -0.795609 3 0 3 
z
" id="m35c00642f8" style="stroke:#ffffff;stroke-width:0.75;"/>
    </defs>
    <g clip-path="url(#p2aa9635c34)">
     <use style="fill:#1f77b4;stroke:#ffffff;stroke-width:0.75;" x="75.923352" xlink:href="#m35c00642f8" y="274.773351"/>
     <use style="fill:#1f77b4;stroke:#ffffff;stroke-width:0.75;" x="128.542233" xlink:href="#m35c00642f8" y="260.756986"/>
     <use style="fill:#1f77b4;stroke:#ffffff;stroke-width:0.75;" x="159.322304" xlink:href="#m35c00642f8" y="243.007005"/>
     <use style="fill:#1f77b4;stroke:#ffffff;stroke-width:0.75;" x="181.161113" xlink:href="#m35c00642f8" y="226.970816"/>
     <use style="fill:#1f77b4;stroke:#ffffff;stroke-width:0.75;" x="198.100609" xlink:href="#m35c00642f8" y="217.850998"/>
     <use style="fill:#1f77b4;stroke:#ffffff;stroke-width:0.75;" x="211.941185" xlink:href="#m35c00642f8" y="210.261351"/>
     <use style="fill:#1f77b4;stroke:#ffffff;stroke-width:0.75;" x="223.643225" xlink:href="#m35c00642f8" y="208.853594"/>
     <use style="fill:#1f77b4;stroke:#ffffff;stroke-width:0.75;" x="233.779993" xlink:href="#m35c00642f8" y="206.833768"/>
     <use style="fill:#1f77b4;stroke:#ffffff;stroke-width:0.75;" x="242.721257" xlink:href="#m35c00642f8" y="205.211787"/>
     <use style="fill:#1f77b4;stroke:#ffffff;stroke-width:0.75;" x="250.719489" xlink:href="#m35c00642f8" y="203.375582"/>
     <use style="fill:#1f77b4;stroke:#ffffff;stroke-width:0.75;" x="257.954771" xlink:href="#m35c00642f8" y="199.917396"/>
     <use style="fill:#1f77b4;stroke:#ffffff;stroke-width:0.75;" x="264.560065" xlink:href="#m35c00642f8" y="195.632918"/>
     <use style="fill:#1f77b4;stroke:#ffffff;stroke-width:0.75;" x="270.636347" xlink:href="#m35c00642f8" y="195.816539"/>
     <use style="fill:#1f77b4;stroke:#ffffff;stroke-width:0.75;" x="276.262105" xlink:href="#m35c00642f8" y="191.195423"/>
     <use style="fill:#1f77b4;stroke:#ffffff;stroke-width:0.75;" x="281.499561" xlink:href="#m35c00642f8" y="189.053184"/>
     <use style="fill:#1f77b4;stroke:#ffffff;stroke-width:0.75;" x="286.398874" xlink:href="#m35c00642f8" y="187.67603"/>
     <use style="fill:#1f77b4;stroke:#ffffff;stroke-width:0.75;" x="291.00107" xlink:href="#m35c00642f8" y="182.014398"/>
     <use style="fill:#1f77b4;stroke:#ffffff;stroke-width:0.75;" x="295.340137" xlink:href="#m35c00642f8" y="177.82173"/>
     <use style="fill:#1f77b4;stroke:#ffffff;stroke-width:0.75;" x="299.444542" xlink:href="#m35c00642f8" y="173.537252"/>
     <use style="fill:#1f77b4;stroke:#ffffff;stroke-width:0.75;" x="303.33837" xlink:href="#m35c00642f8" y="167.78381"/>
     <use style="fill:#1f77b4;stroke:#ffffff;stroke-width:0.75;" x="307.042177" xlink:href="#m35c00642f8" y="160.071749"/>
     <use style="fill:#1f77b4;stroke:#ffffff;stroke-width:0.75;" x="310.573651" xlink:href="#m35c00642f8" y="155.052789"/>
     <use style="fill:#1f77b4;stroke:#ffffff;stroke-width:0.75;" x="313.948118" xlink:href="#m35c00642f8" y="153.522618"/>
     <use style="fill:#1f77b4;stroke:#ffffff;stroke-width:0.75;" x="317.178946" xlink:href="#m35c00642f8" y="146.453229"/>
     <use style="fill:#1f77b4;stroke:#ffffff;stroke-width:0.75;" x="320.277866" xlink:href="#m35c00642f8" y="139.261427"/>
     <use style="fill:#1f77b4;stroke:#ffffff;stroke-width:0.75;" x="323.255227" xlink:href="#m35c00642f8" y="136.017465"/>
     <use style="fill:#1f77b4;stroke:#ffffff;stroke-width:0.75;" x="326.120209" xlink:href="#m35c00642f8" y="135.589017"/>
     <use style="fill:#1f77b4;stroke:#ffffff;stroke-width:0.75;" x="328.880986" xlink:href="#m35c00642f8" y="130.386436"/>
     <use style="fill:#1f77b4;stroke:#ffffff;stroke-width:0.75;" x="331.544873" xlink:href="#m35c00642f8" y="128.795059"/>
     <use style="fill:#1f77b4;stroke:#ffffff;stroke-width:0.75;" x="334.118441" xlink:href="#m35c00642f8" y="126.285579"/>
     <use style="fill:#1f77b4;stroke:#ffffff;stroke-width:0.75;" x="336.607615" xlink:href="#m35c00642f8" y="117.533002"/>
     <use style="fill:#1f77b4;stroke:#ffffff;stroke-width:0.75;" x="339.017754" xlink:href="#m35c00642f8" y="113.370937"/>
     <use style="fill:#1f77b4;stroke:#ffffff;stroke-width:0.75;" x="341.353723" xlink:href="#m35c00642f8" y="113.370937"/>
     <use style="fill:#1f77b4;stroke:#ffffff;stroke-width:0.75;" x="343.619951" xlink:href="#m35c00642f8" y="112.636455"/>
     <use style="fill:#1f77b4;stroke:#ffffff;stroke-width:0.75;" x="345.820482" xlink:href="#m35c00642f8" y="111.106284"/>
     <use style="fill:#1f77b4;stroke:#ffffff;stroke-width:0.75;" x="347.959017" xlink:href="#m35c00642f8" y="107.954133"/>
     <use style="fill:#1f77b4;stroke:#ffffff;stroke-width:0.75;" x="350.038956" xlink:href="#m35c00642f8" y="104.189912"/>
     <use style="fill:#1f77b4;stroke:#ffffff;stroke-width:0.75;" x="352.063422" xlink:href="#m35c00642f8" y="103.883878"/>
     <use style="fill:#1f77b4;stroke:#ffffff;stroke-width:0.75;" x="354.035299" xlink:href="#m35c00642f8" y="101.894656"/>
     <use style="fill:#1f77b4;stroke:#ffffff;stroke-width:0.75;" x="355.95725" xlink:href="#m35c00642f8" y="99.568797"/>
     <use style="fill:#1f77b4;stroke:#ffffff;stroke-width:0.75;" x="357.83174" xlink:href="#m35c00642f8" y="97.518368"/>
     <use style="fill:#1f77b4;stroke:#ffffff;stroke-width:0.75;" x="359.661058" xlink:href="#m35c00642f8" y="97.518368"/>
     <use style="fill:#1f77b4;stroke:#ffffff;stroke-width:0.75;" x="361.447328" xlink:href="#m35c00642f8" y="95.559749"/>
     <use style="fill:#1f77b4;stroke:#ffffff;stroke-width:0.75;" x="363.192531" xlink:href="#m35c00642f8" y="95.253715"/>
     <use style="fill:#1f77b4;stroke:#ffffff;stroke-width:0.75;" x="364.898513" xlink:href="#m35c00642f8" y="92.591218"/>
     <use style="fill:#1f77b4;stroke:#ffffff;stroke-width:0.75;" x="366.566998" xlink:href="#m35c00642f8" y="92.101563"/>
     <use style="fill:#1f77b4;stroke:#ffffff;stroke-width:0.75;" x="368.199598" xlink:href="#m35c00642f8" y="88.826998"/>
     <use style="fill:#1f77b4;stroke:#ffffff;stroke-width:0.75;" x="369.797826" xlink:href="#m35c00642f8" y="87.602861"/>
     <use style="fill:#1f77b4;stroke:#ffffff;stroke-width:0.75;" x="371.363098" xlink:href="#m35c00642f8" y="86.501138"/>
     <use style="fill:#1f77b4;stroke:#ffffff;stroke-width:0.75;" x="372.896746" xlink:href="#m35c00642f8" y="86.807172"/>
     <use style="fill:#1f77b4;stroke:#ffffff;stroke-width:0.75;" x="374.400023" xlink:href="#m35c00642f8" y="80.594679"/>
     <use style="fill:#1f77b4;stroke:#ffffff;stroke-width:0.75;" x="375.874108" xlink:href="#m35c00642f8" y="79.676577"/>
     <use style="fill:#1f77b4;stroke:#ffffff;stroke-width:0.75;" x="377.320113" xlink:href="#m35c00642f8" y="79.462353"/>
     <use style="fill:#1f77b4;stroke:#ffffff;stroke-width:0.75;" x="378.739089" xlink:href="#m35c00642f8" y="78.483043"/>
     <use style="fill:#1f77b4;stroke:#ffffff;stroke-width:0.75;" x="380.132027" xlink:href="#m35c00642f8" y="75.177875"/>
     <use style="fill:#1f77b4;stroke:#ffffff;stroke-width:0.75;" x="381.499866" xlink:href="#m35c00642f8" y="75.177875"/>
     <use style="fill:#1f77b4;stroke:#ffffff;stroke-width:0.75;" x="382.843494" xlink:href="#m35c00642f8" y="75.330892"/>
     <use style="fill:#1f77b4;stroke:#ffffff;stroke-width:0.75;" x="384.163753" xlink:href="#m35c00642f8" y="73.402876"/>
     <use style="fill:#1f77b4;stroke:#ffffff;stroke-width:0.75;" x="385.461443" xlink:href="#m35c00642f8" y="71.199431"/>
     <use style="fill:#1f77b4;stroke:#ffffff;stroke-width:0.75;" x="386.737322" xlink:href="#m35c00642f8" y="71.199431"/>
     <use style="fill:#1f77b4;stroke:#ffffff;stroke-width:0.75;" x="387.992111" xlink:href="#m35c00642f8" y="69.210208"/>
     <use style="fill:#1f77b4;stroke:#ffffff;stroke-width:0.75;" x="389.226496" xlink:href="#m35c00642f8" y="69.149002"/>
     <use style="fill:#1f77b4;stroke:#ffffff;stroke-width:0.75;" x="390.441129" xlink:href="#m35c00642f8" y="72.729601"/>
     <use style="fill:#1f77b4;stroke:#ffffff;stroke-width:0.75;" x="391.636634" xlink:href="#m35c00642f8" y="72.454171"/>
     <use style="fill:#1f77b4;stroke:#ffffff;stroke-width:0.75;" x="392.813604" xlink:href="#m35c00642f8" y="72.668394"/>
     <use style="fill:#1f77b4;stroke:#ffffff;stroke-width:0.75;" x="393.972603" xlink:href="#m35c00642f8" y="71.811499"/>
     <use style="fill:#1f77b4;stroke:#ffffff;stroke-width:0.75;" x="395.114174" xlink:href="#m35c00642f8" y="71.01581"/>
     <use style="fill:#1f77b4;stroke:#ffffff;stroke-width:0.75;" x="396.238831" xlink:href="#m35c00642f8" y="70.83219"/>
     <use style="fill:#1f77b4;stroke:#ffffff;stroke-width:0.75;" x="397.34707" xlink:href="#m35c00642f8" y="69.179605"/>
     <use style="fill:#1f77b4;stroke:#ffffff;stroke-width:0.75;" x="398.439362" xlink:href="#m35c00642f8" y="69.975294"/>
     <use style="fill:#1f77b4;stroke:#ffffff;stroke-width:0.75;" x="399.51616" xlink:href="#m35c00642f8" y="68.812364"/>
     <use style="fill:#1f77b4;stroke:#ffffff;stroke-width:0.75;" x="400.577898" xlink:href="#m35c00642f8" y="68.812364"/>
    </g>
   </g>
   <g id="line2d_34"/>
   <g id="line2d_35"/>
   <g id="patch_3">
    <path d="M 59.690625 283.525928 
L 59.690625 38.698603 
" style="fill:none;stroke:#000000;stroke-linecap:square;stroke-linejoin:miter;stroke-width:0.8;"/>
   </g>
   <g id="patch_4">
    <path d="M 75.923352 288.430125 
L 400.579069 288.430125 
" style="fill:none;stroke:#000000;stroke-linecap:square;stroke-linejoin:miter;stroke-width:0.8;"/>
   </g>
   <g id="text_18">
    <!-- mruby-2018-05-23 (18h, 9 trials/fuzzer) -->
    <g transform="translate(118.935938 16.318125)scale(0.12 -0.12)">
     <defs>
      <path d="M 3116 1747 
Q 3116 2381 2855 2742 
Q 2594 3103 2138 3103 
Q 1681 3103 1420 2742 
Q 1159 2381 1159 1747 
Q 1159 1113 1420 752 
Q 1681 391 2138 391 
Q 2594 391 2855 752 
Q 3116 1113 3116 1747 
z
M 1159 2969 
Q 1341 3281 1617 3432 
Q 1894 3584 2278 3584 
Q 2916 3584 3314 3078 
Q 3713 2572 3713 1747 
Q 3713 922 3314 415 
Q 2916 -91 2278 -91 
Q 1894 -91 1617 61 
Q 1341 213 1159 525 
L 1159 0 
L 581 0 
L 581 4863 
L 1159 4863 
L 1159 2969 
z
" id="DejaVuSans-62" transform="scale(0.015625)"/>
      <path d="M 2059 -325 
Q 1816 -950 1584 -1140 
Q 1353 -1331 966 -1331 
L 506 -1331 
L 506 -850 
L 844 -850 
Q 1081 -850 1212 -737 
Q 1344 -625 1503 -206 
L 1606 56 
L 191 3500 
L 800 3500 
L 1894 763 
L 2988 3500 
L 3597 3500 
L 2059 -325 
z
" id="DejaVuSans-79" transform="scale(0.015625)"/>
      <path d="M 313 2009 
L 1997 2009 
L 1997 1497 
L 313 1497 
L 313 2009 
z
" id="DejaVuSans-2d" transform="scale(0.015625)"/>
      <path d="M 750 794 
L 1409 794 
L 1409 256 
L 897 -744 
L 494 -744 
L 750 256 
L 750 794 
z
" id="DejaVuSans-2c" transform="scale(0.015625)"/>
      <path d="M 603 4863 
L 1178 4863 
L 1178 0 
L 603 0 
L 603 4863 
z
" id="DejaVuSans-6c" transform="scale(0.015625)"/>
      <path d="M 2834 3397 
L 2834 2853 
Q 2591 2978 2328 3040 
Q 2066 3103 1784 3103 
Q 1356 3103 1142 2972 
Q 928 2841 928 2578 
Q 928 2378 1081 2264 
Q 1234 2150 1697 2047 
L 1894 2003 
Q 2506 1872 2764 1633 
Q 3022 1394 3022 966 
Q 3022 478 2636 193 
Q 2250 -91 1575 -91 
Q 1294 -91 989 -36 
Q 684 19 347 128 
L 347 722 
Q 666 556 975 473 
Q 1284 391 1588 391 
Q 1994 391 2212 530 
Q 2431 669 2431 922 
Q 2431 1156 2273 1281 
Q 2116 1406 1581 1522 
L 1381 1569 
Q 847 1681 609 1914 
Q 372 2147 372 2553 
Q 372 3047 722 3315 
Q 1072 3584 1716 3584 
Q 2034 3584 2315 3537 
Q 2597 3491 2834 3397 
z
" id="DejaVuSans-73" transform="scale(0.015625)"/>
      <path d="M 1625 4666 
L 2156 4666 
L 531 -594 
L 0 -594 
L 1625 4666 
z
" id="DejaVuSans-2f" transform="scale(0.015625)"/>
      <path d="M 2375 4863 
L 2375 4384 
L 1825 4384 
Q 1516 4384 1395 4259 
Q 1275 4134 1275 3809 
L 1275 3500 
L 2222 3500 
L 2222 3053 
L 1275 3053 
L 1275 0 
L 697 0 
L 697 3053 
L 147 3053 
L 147 3500 
L 697 3500 
L 697 3744 
Q 697 4328 969 4595 
Q 1241 4863 1831 4863 
L 2375 4863 
z
" id="DejaVuSans-66" transform="scale(0.015625)"/>
      <path d="M 353 3500 
L 3084 3500 
L 3084 2975 
L 922 459 
L 3084 459 
L 3084 0 
L 275 0 
L 275 525 
L 2438 3041 
L 353 3041 
L 353 3500 
z
" id="DejaVuSans-7a" transform="scale(0.015625)"/>
     </defs>
     <use xlink:href="#DejaVuSans-6d"/>
     <use x="97.412109" xlink:href="#DejaVuSans-72"/>
     <use x="138.525391" xlink:href="#DejaVuSans-75"/>
     <use x="201.904297" xlink:href="#DejaVuSans-62"/>
     <use x="265.380859" xlink:href="#DejaVuSans-79"/>
     <use x="322.810547" xlink:href="#DejaVuSans-2d"/>
     <use x="358.894531" xlink:href="#DejaVuSans-32"/>
     <use x="422.517578" xlink:href="#DejaVuSans-30"/>
     <use x="486.140625" xlink:href="#DejaVuSans-31"/>
     <use x="549.763672" xlink:href="#DejaVuSans-38"/>
     <use x="613.386719" xlink:href="#DejaVuSans-2d"/>
     <use x="649.470703" xlink:href="#DejaVuSans-30"/>
     <use x="713.09375" xlink:href="#DejaVuSans-35"/>
     <use x="776.716797" xlink:href="#DejaVuSans-2d"/>
     <use x="812.800781" xlink:href="#DejaVuSans-32"/>
     <use x="876.423828" xlink:href="#DejaVuSans-33"/>
     <use x="940.046875" xlink:href="#DejaVuSans-20"/>
     <use x="971.833984" xlink:href="#DejaVuSans-28"/>
     <use x="1010.847656" xlink:href="#DejaVuSans-31"/>
     <use x="1074.470703" xlink:href="#DejaVuSans-38"/>
     <use x="1138.09375" xlink:href="#DejaVuSans-68"/>
     <use x="1201.472656" xlink:href="#DejaVuSans-2c"/>
     <use x="1233.259766" xlink:href="#DejaVuSans-20"/>
     <use x="1265.046875" xlink:href="#DejaVuSans-39"/>
     <use x="1328.669922" xlink:href="#DejaVuSans-20"/>
     <use x="1360.457031" xlink:href="#DejaVuSans-74"/>
     <use x="1399.666016" xlink:href="#DejaVuSans-72"/>
     <use x="1440.779297" xlink:href="#DejaVuSans-69"/>
     <use x="1468.5625" xlink:href="#DejaVuSans-61"/>
     <use x="1529.841797" xlink:href="#DejaVuSans-6c"/>
     <use x="1557.625" xlink:href="#DejaVuSans-73"/>
     <use x="1609.724609" xlink:href="#DejaVuSans-2f"/>
     <use x="1643.416016" xlink:href="#DejaVuSans-66"/>
     <use x="1678.621094" xlink:href="#DejaVuSans-75"/>
     <use x="1742" xlink:href="#DejaVuSans-7a"/>
     <use x="1794.490234" xlink:href="#DejaVuSans-7a"/>
     <use x="1846.980469" xlink:href="#DejaVuSans-65"/>
     <use x="1908.503906" xlink:href="#DejaVuSans-72"/>
     <use x="1949.617188" xlink:href="#DejaVuSans-29"/>
    </g>
   </g>
   <g id="legend_1">
    <g id="line2d_36">
     <path d="M 420.810625 30.416562 
L 440.810625 30.416562 
" style="fill:none;stroke:#98df8a;stroke-linecap:square;stroke-width:1.5;"/>
    </g>
    <g id="line2d_37">
     <defs>
      <path d="M -0 3 
L 3 -3 
L -3 -3 
z
" id="m31efaadc5a" style="stroke:#98df8a;stroke-linejoin:miter;"/>
     </defs>
     <g>
      <use style="fill:#98df8a;stroke:#98df8a;stroke-linejoin:miter;" x="430.810625" xlink:href="#m31efaadc5a" y="30.416562"/>
     </g>
    </g>
    <g id="text_19">
     <!-- afl_collision_free -->
     <g transform="translate(448.810625 33.916562)scale(0.1 -0.1)">
      <defs>
       <path d="M 3263 -1063 
L 3263 -1509 
L -63 -1509 
L -63 -1063 
L 3263 -1063 
z
" id="DejaVuSans-5f" transform="scale(0.015625)"/>
      </defs>
      <use xlink:href="#DejaVuSans-61"/>
      <use x="61.279297" xlink:href="#DejaVuSans-66"/>
      <use x="96.484375" xlink:href="#DejaVuSans-6c"/>
      <use x="124.267578" xlink:href="#DejaVuSans-5f"/>
      <use x="174.267578" xlink:href="#DejaVuSans-63"/>
      <use x="229.248047" xlink:href="#DejaVuSans-6f"/>
      <use x="290.429688" xlink:href="#DejaVuSans-6c"/>
      <use x="318.212891" xlink:href="#DejaVuSans-6c"/>
      <use x="345.996094" xlink:href="#DejaVuSans-69"/>
      <use x="373.779297" xlink:href="#DejaVuSans-73"/>
      <use x="425.878906" xlink:href="#DejaVuSans-69"/>
      <use x="453.662109" xlink:href="#DejaVuSans-6f"/>
      <use x="514.84375" xlink:href="#DejaVuSans-6e"/>
      <use x="578.222656" xlink:href="#DejaVuSans-5f"/>
      <use x="628.222656" xlink:href="#DejaVuSans-66"/>
      <use x="663.427734" xlink:href="#DejaVuSans-72"/>
      <use x="702.291016" xlink:href="#DejaVuSans-65"/>
      <use x="763.814453" xlink:href="#DejaVuSans-65"/>
     </g>
    </g>
    <g id="line2d_38">
     <path d="M 420.810625 45.372813 
L 440.810625 45.372813 
" style="fill:none;stroke:#1f77b4;stroke-linecap:square;stroke-width:1.5;"/>
    </g>
    <g id="line2d_39">
     <defs>
      <path d="M 0 3 
C 0.795609 3 1.55874 2.683901 2.12132 2.12132 
C 2.683901 1.55874 3 0.795609 3 0 
C 3 -0.795609 2.683901 -1.55874 2.12132 -2.12132 
C 1.55874 -2.683901 0.795609 -3 0 -3 
C -0.795609 -3 -1.55874 -2.683901 -2.12132 -2.12132 
C -2.683901 -1.55874 -3 -0.795609 -3 0 
C -3 0.795609 -2.683901 1.55874 -2.12132 2.12132 
C -1.55874 2.683901 -0.795609 3 0 3 
z
" id="m527a8c0c29" style="stroke:#1f77b4;"/>
     </defs>
     <g>
      <use style="fill:#1f77b4;stroke:#1f77b4;" x="430.810625" xlink:href="#m527a8c0c29" y="45.372813"/>
     </g>
    </g>
    <g id="text_20">
     <!-- afl -->
     <g transform="translate(448.810625 48.872813)scale(0.1 -0.1)">
      <use xlink:href="#DejaVuSans-61"/>
      <use x="61.279297" xlink:href="#DejaVuSans-66"/>
      <use x="96.484375" xlink:href="#DejaVuSans-6c"/>
     </g>
    </g>
   </g>
  </g>
 </g>
 <defs>
  <clipPath id="p2aa9635c34">
   <rect height="266.112" width="357.12" x="59.690625" y="22.318125"/>
  </clipPath>
 </defs>
</svg>
