<?xml version="1.0" encoding="utf-8" standalone="no"?>
<!DOCTYPE svg PUBLIC "-//W3C//DTD SVG 1.1//EN"
  "http://www.w3.org/Graphics/SVG/1.1/DTD/svg11.dtd">
<svg height="325.986375pt" version="1.1" viewBox="0 0 548.9075 325.986375" width="548.9075pt" xmlns="http://www.w3.org/2000/svg" xmlns:xlink="http://www.w3.org/1999/xlink">
 <metadata>
  <rdf:RDF xmlns:cc="http://creativecommons.org/ns#" xmlns:dc="http://purl.org/dc/elements/1.1/" xmlns:rdf="http://www.w3.org/1999/02/22-rdf-syntax-ns#">
   <cc:Work>
    <dc:type rdf:resource="http://purl.org/dc/dcmitype/StillImage"/>
    <dc:date>2022-06-03T14:55:38.114029</dc:date>
    <dc:format>image/svg+xml</dc:format>
    <dc:creator>
     <cc:Agent>
      <dc:title>Matplotlib v3.4.3, https://matplotlib.org/</dc:title>
     </cc:Agent>
    </dc:creator>
   </cc:Work>
  </rdf:RDF>
 </metadata>
 <defs>
  <style type="text/css">*{stroke-linecap:butt;stroke-linejoin:round;}</style>
 </defs>
 <g id="figure_1">
  <g id="patch_1">
   <path d="M 0 325.986375 
L 548.9075 325.986375 
L 548.9075 0 
L 0 0 
z
" style="fill:#ffffff;"/>
  </g>
  <g id="axes_1">
   <g id="patch_2">
    <path d="M 66.053125 288.430125 
L 423.173125 288.430125 
L 423.173125 22.318125 
L 66.053125 22.318125 
z
" style="fill:#ffffff;"/>
   </g>
   <g id="PolyCollection_1">
    <defs>
     <path d="M 82.285852 -59.17311 
L 82.285852 -50.766976 
L 85.853485 -74.21278 
L 89.421117 -103.664705 
L 92.988749 -135.285169 
L 96.556382 -149.252752 
L 100.124014 -161.801038 
L 103.691646 -175.67725 
L 107.259279 -186.970708 
L 110.826911 -196.857052 
L 114.394544 -206.682482 
L 117.962176 -215.435826 
L 121.529808 -224.414551 
L 125.097441 -230.049098 
L 128.665073 -237.907005 
L 132.232705 -242.828857 
L 135.800338 -248.000457 
L 139.36797 -250.299961 
L 142.935603 -251.460373 
L 146.503235 -252.800481 
L 150.070867 -253.202514 
L 153.6385 -253.263428 
L 157.206132 -256.105066 
L 160.773764 -257.082736 
L 164.341397 -257.192381 
L 167.909029 -256.102021 
L 171.476661 -254.640084 
L 175.044294 -254.792369 
L 178.611926 -260.603566 
L 182.179559 -255.01166 
L 185.747191 -255.157853 
L 189.314823 -260.993416 
L 192.882456 -255.559886 
L 196.450088 -261.57819 
L 200.01772 -255.961918 
L 203.585353 -260.807628 
L 207.152985 -256.778166 
L 210.720618 -261.693927 
L 214.28825 -256.826897 
L 217.855882 -261.858395 
L 221.423515 -261.901035 
L 224.991147 -257.539591 
L 228.558779 -257.545683 
L 232.126412 -262.162813 
L 235.694044 -257.691876 
L 239.261676 -257.953807 
L 242.829309 -258.1 
L 246.396941 -256.290854 
L 249.964574 -258.331473 
L 253.532206 -258.337565 
L 257.099838 -261.40154 
L 260.667471 -258.520307 
L 264.235103 -259.303052 
L 267.802735 -258.498835 
L 271.370368 -258.562947 
L 274.938 -260.774125 
L 278.505632 -258.922339 
L 282.073265 -261.182249 
L 285.640897 -261.206615 
L 289.20853 -263.585307 
L 292.776162 -263.646221 
L 296.343794 -261.212706 
L 299.911427 -263.755866 
L 303.479059 -261.218798 
L 307.046691 -261.754841 
L 310.614324 -264.372773 
L 314.181956 -265.166026 
L 317.749589 -263.96602 
L 321.317221 -264.301047 
L 324.884853 -266.414763 
L 328.452486 -266.44522 
L 332.020118 -265.507144 
L 335.58775 -266.50286 
L 339.155383 -266.475677 
L 342.723015 -266.658419 
L 346.290647 -266.918141 
L 349.85828 -267.026949 
L 353.425912 -267.645226 
L 356.993545 -268.035076 
L 360.561177 -267.237102 
L 364.128809 -267.279742 
L 367.696442 -267.934568 
L 371.264074 -267.425936 
L 374.831706 -268.552845 
L 378.399339 -267.773145 
L 381.966971 -267.797511 
L 385.534604 -268.534723 
L 389.102236 -267.949796 
L 392.669868 -268.552845 
L 396.237501 -268.028984 
L 399.805133 -268.035076 
L 403.372765 -268.8131 
L 406.940398 -268.041167 
L 406.940398 -288.490001 
L 406.940398 -288.490001 
L 403.372765 -287.655479 
L 399.805133 -287.606748 
L 396.237501 -288.371219 
L 392.669868 -288.989496 
L 389.102236 -288.989496 
L 385.534604 -291.57225 
L 381.966971 -288.92249 
L 378.399339 -288.691017 
L 374.831706 -289.359168 
L 371.264074 -288.1367 
L 367.696442 -287.880861 
L 364.128809 -287.907663 
L 360.561177 -287.74685 
L 356.993545 -291.115395 
L 353.425912 -287.070704 
L 349.85828 -287.52756 
L 346.290647 -287.363092 
L 342.723015 -286.973242 
L 339.155383 -286.995095 
L 335.58775 -286.973242 
L 332.020118 -286.607834 
L 328.452486 -285.949887 
L 324.884853 -286.764764 
L 321.317221 -286.942785 
L 317.749589 -286.942785 
L 314.181956 -286.185015 
L 310.614324 -286.900145 
L 307.046691 -286.820957 
L 303.479059 -285.892018 
L 299.911427 -286.702175 
L 296.343794 -286.729586 
L 292.776162 -286.729586 
L 289.20853 -285.803693 
L 285.640897 -286.723495 
L 282.073265 -285.700139 
L 278.505632 -286.699129 
L 274.938 -286.680855 
L 271.370368 -284.750642 
L 267.802735 -286.650398 
L 264.235103 -286.26664 
L 260.667471 -285.459757 
L 257.099838 -286.18136 
L 253.532206 -284.463585 
L 249.964574 -286.114354 
L 246.396941 -284.463585 
L 242.829309 -285.931612 
L 239.261676 -290.53062 
L 235.694044 -285.243284 
L 232.126412 -286.85248 
L 228.558779 -285.221964 
L 224.991147 -285.072725 
L 221.423515 -284.981354 
L 217.855882 -284.719424 
L 214.28825 -284.695058 
L 210.720618 -286.467656 
L 207.152985 -283.501143 
L 203.585353 -283.245305 
L 200.01772 -283.074745 
L 196.450088 -282.422965 
L 192.882456 -285.59354 
L 189.314823 -285.298107 
L 185.747191 -282.325503 
L 182.179559 -282.136669 
L 178.611926 -287.466646 
L 175.044294 -281.850374 
L 171.476661 -286.224 
L 167.909029 -281.74682 
L 164.341397 -281.393519 
L 160.773764 -280.589454 
L 157.206132 -277.641215 
L 153.6385 -273.462514 
L 150.070867 -269.494423 
L 146.503235 -265.166026 
L 142.935603 -263.417793 
L 139.36797 -259.689856 
L 135.800338 -254.670541 
L 132.232705 -250.778136 
L 128.665073 -246.550703 
L 125.097441 -240.690775 
L 121.529808 -232.771954 
L 117.962176 -226.735375 
L 114.394544 -219.906914 
L 110.826911 -210.099758 
L 107.259279 -198.769752 
L 103.691646 -186.54431 
L 100.124014 -170.530016 
L 96.556382 -156.129944 
L 92.988749 -142.643581 
L 89.421117 -114.720598 
L 85.853485 -80.986418 
L 82.285852 -59.17311 
z
" id="me821a50421" style="stroke:#98df8a;stroke-opacity:0.2;"/>
    </defs>
    <g clip-path="url(#p089f7f98f3)">
     <use style="fill:#98df8a;fill-opacity:0.2;stroke:#98df8a;stroke-opacity:0.2;" x="0" xlink:href="#me821a50421" y="325.986375"/>
    </g>
   </g>
   <g id="PolyCollection_2">
    <defs>
     <path d="M 82.285852 -54.178161 
L 82.285852 -49.65225 
L 85.853485 -73.345669 
L 89.421117 -108.306352 
L 92.988749 -132.525764 
L 96.556382 -151.293371 
L 100.124014 -162.434544 
L 103.691646 -174.428513 
L 107.259279 -188.627569 
L 110.826911 -194.000185 
L 114.394544 -198.014418 
L 117.962176 -204.41039 
L 121.529808 -210.440877 
L 125.097441 -210.886311 
L 128.665073 -213.736325 
L 132.232705 -212.478451 
L 135.800338 -210.928189 
L 139.36797 -211.93327 
L 142.935603 -215.033793 
L 146.503235 -214.071352 
L 150.070867 -215.344455 
L 153.6385 -215.228718 
L 157.206132 -216.428724 
L 160.773764 -216.916036 
L 164.341397 -217.579999 
L 167.909029 -218.10386 
L 171.476661 -218.798279 
L 175.044294 -217.037865 
L 178.611926 -217.196241 
L 182.179559 -217.360709 
L 185.747191 -222.453349 
L 189.314823 -220.820625 
L 192.882456 -214.2145 
L 196.450088 -221.338394 
L 200.01772 -221.612507 
L 203.585353 -221.612507 
L 207.152985 -222.044996 
L 210.720618 -223.750589 
L 214.28825 -230.853163 
L 217.855882 -222.641954 
L 221.423515 -239.612597 
L 224.991147 -222.946524 
L 228.558779 -223.129266 
L 232.126412 -218.152591 
L 235.694044 -223.653126 
L 239.261676 -223.829777 
L 242.829309 -219.88864 
L 246.396941 -224.633842 
L 249.964574 -218.170865 
L 253.532206 -222.185099 
L 257.099838 -225.048057 
L 260.667471 -222.629771 
L 264.235103 -225.206434 
L 267.802735 -222.733325 
L 271.370368 -223.357693 
L 274.938 -225.468364 
L 278.505632 -225.571918 
L 282.073265 -225.632832 
L 285.640897 -225.663289 
L 289.20853 -224.478511 
L 292.776162 -224.527242 
L 296.343794 -224.545517 
L 299.911427 -224.646025 
L 303.479059 -233.88668 
L 307.046691 -226.266337 
L 310.614324 -224.706939 
L 314.181956 -223.141449 
L 317.749589 -226.509993 
L 321.317221 -226.704918 
L 324.884853 -226.735375 
L 328.452486 -227.49444 
L 332.020118 -226.924209 
L 335.58775 -241.714131 
L 339.155383 -227.289693 
L 342.723015 -227.289693 
L 346.290647 -227.289693 
L 349.85828 -227.344515 
L 353.425912 -227.350607 
L 356.993545 -227.36279 
L 360.561177 -227.393247 
L 364.128809 -227.393247 
L 367.696442 -227.393247 
L 371.264074 -227.405429 
L 374.831706 -234.810289 
L 378.399339 -227.947564 
L 381.966971 -235.19024 
L 385.534604 -233.92932 
L 389.102236 -228.31914 
L 392.669868 -233.970437 
L 396.237501 -228.380054 
L 399.805133 -228.477516 
L 403.372765 -228.769903 
L 406.940398 -235.603009 
L 406.940398 -267.240148 
L 406.940398 -267.240148 
L 403.372765 -270.59651 
L 399.805133 -272.926471 
L 396.237501 -270.218843 
L 392.669868 -271.738648 
L 389.102236 -267.767054 
L 385.534604 -270.861486 
L 381.966971 -269.216046 
L 378.399339 -269.018837 
L 374.831706 -266.4239 
L 371.264074 -267.157914 
L 367.696442 -266.956898 
L 364.128809 -266.688876 
L 360.561177 -269.101071 
L 356.993545 -266.5305 
L 353.425912 -266.372123 
L 349.85828 -268.954877 
L 346.290647 -266.073644 
L 342.723015 -266.067553 
L 339.155383 -265.951816 
L 335.58775 -265.702069 
L 332.020118 -265.324402 
L 328.452486 -268.686856 
L 324.884853 -263.844192 
L 321.317221 -262.607637 
L 317.749589 -268.370103 
L 314.181956 -268.27264 
L 310.614324 -264.715262 
L 307.046691 -267.523398 
L 303.479059 -266.72847 
L 299.911427 -263.125406 
L 296.343794 -270.453362 
L 292.776162 -262.038091 
L 289.20853 -261.678698 
L 285.640897 -256.44923 
L 282.073265 -266.506134 
L 278.505632 -256.27258 
L 274.938 -255.748719 
L 271.370368 -259.64417 
L 267.802735 -259.51016 
L 264.235103 -254.920289 
L 260.667471 -259.010665 
L 257.099838 -254.384245 
L 253.532206 -258.377159 
L 249.964574 -253.671552 
L 246.396941 -253.616729 
L 242.829309 -257.326392 
L 239.261676 -252.989315 
L 235.694044 -252.690836 
L 232.126412 -251.420779 
L 228.558779 -252.514185 
L 224.991147 -252.307078 
L 221.423515 -252.173067 
L 217.855882 -251.886771 
L 214.28825 -251.685755 
L 210.720618 -251.423824 
L 207.152985 -251.460373 
L 203.585353 -251.350728 
L 200.01772 -250.223818 
L 196.450088 -249.92534 
L 192.882456 -252.127381 
L 189.314823 -249.773055 
L 185.747191 -247.421774 
L 182.179559 -247.272458 
L 178.611926 -246.873548 
L 175.044294 -246.635983 
L 171.476661 -245.978112 
L 167.909029 -246.203494 
L 164.341397 -246.22192 
L 160.773764 -245.996386 
L 157.206132 -243.40282 
L 153.6385 -242.975051 
L 150.070867 -241.641034 
L 146.503235 -236.865376 
L 142.935603 -245.064402 
L 139.36797 -235.951665 
L 135.800338 -234.855213 
L 132.232705 -233.953686 
L 128.665073 -231.596313 
L 125.097441 -228.897823 
L 121.529808 -228.678532 
L 117.962176 -222.14855 
L 114.394544 -214.040895 
L 110.826911 -206.840859 
L 107.259279 -196.388014 
L 103.691646 -182.932109 
L 100.124014 -169.780774 
L 96.556382 -156.105578 
L 92.988749 -141.522763 
L 89.421117 -117.821121 
L 85.853485 -79.859509 
L 82.285852 -54.178161 
z
" id="mae571252e2" style="stroke:#1f77b4;stroke-opacity:0.2;"/>
    </defs>
    <g clip-path="url(#p089f7f98f3)">
     <use style="fill:#1f77b4;fill-opacity:0.2;stroke:#1f77b4;stroke-opacity:0.2;" x="0" xlink:href="#mae571252e2" y="325.986375"/>
    </g>
   </g>
   <g id="matplotlib.axis_1">
    <g id="xtick_1">
     <g id="line2d_1">
      <defs>
       <path d="M 0 0 
L 0 3.5 
" id="m0a7247b8c4" style="stroke:#000000;stroke-width:0.8;"/>
      </defs>
      <g>
       <use style="stroke:#000000;stroke-width:0.8;" x="82.285852" xlink:href="#m0a7247b8c4" y="288.430125"/>
      </g>
     </g>
     <g id="text_1">
      <!-- 15m -->
      <g transform="translate(71.05304 303.028562)scale(0.1 -0.1)">
       <defs>
        <path d="M 794 531 
L 1825 531 
L 1825 4091 
L 703 3866 
L 703 4441 
L 1819 4666 
L 2450 4666 
L 2450 531 
L 3481 531 
L 3481 0 
L 794 0 
L 794 531 
z
" id="DejaVuSans-31" transform="scale(0.015625)"/>
        <path d="M 691 4666 
L 3169 4666 
L 3169 4134 
L 1269 4134 
L 1269 2991 
Q 1406 3038 1543 3061 
Q 1681 3084 1819 3084 
Q 2600 3084 3056 2656 
Q 3513 2228 3513 1497 
Q 3513 744 3044 326 
Q 2575 -91 1722 -91 
Q 1428 -91 1123 -41 
Q 819 9 494 109 
L 494 744 
Q 775 591 1075 516 
Q 1375 441 1709 441 
Q 2250 441 2565 725 
Q 2881 1009 2881 1497 
Q 2881 1984 2565 2268 
Q 2250 2553 1709 2553 
Q 1456 2553 1204 2497 
Q 953 2441 691 2322 
L 691 4666 
z
" id="DejaVuSans-35" transform="scale(0.015625)"/>
        <path d="M 3328 2828 
Q 3544 3216 3844 3400 
Q 4144 3584 4550 3584 
Q 5097 3584 5394 3201 
Q 5691 2819 5691 2113 
L 5691 0 
L 5113 0 
L 5113 2094 
Q 5113 2597 4934 2840 
Q 4756 3084 4391 3084 
Q 3944 3084 3684 2787 
Q 3425 2491 3425 1978 
L 3425 0 
L 2847 0 
L 2847 2094 
Q 2847 2600 2669 2842 
Q 2491 3084 2119 3084 
Q 1678 3084 1418 2786 
Q 1159 2488 1159 1978 
L 1159 0 
L 581 0 
L 581 3500 
L 1159 3500 
L 1159 2956 
Q 1356 3278 1631 3431 
Q 1906 3584 2284 3584 
Q 2666 3584 2933 3390 
Q 3200 3197 3328 2828 
z
" id="DejaVuSans-6d" transform="scale(0.015625)"/>
       </defs>
       <use xlink:href="#DejaVuSans-31"/>
       <use x="63.623047" xlink:href="#DejaVuSans-35"/>
       <use x="127.246094" xlink:href="#DejaVuSans-6d"/>
      </g>
     </g>
    </g>
    <g id="xtick_2">
     <g id="line2d_2">
      <g>
       <use style="stroke:#000000;stroke-width:0.8;" x="136.989549" xlink:href="#m0a7247b8c4" y="288.430125"/>
      </g>
     </g>
     <g id="text_2">
      <!-- 4h:5m -->
      <g transform="translate(120.903611 303.028562)scale(0.1 -0.1)">
       <defs>
        <path d="M 2419 4116 
L 825 1625 
L 2419 1625 
L 2419 4116 
z
M 2253 4666 
L 3047 4666 
L 3047 1625 
L 3713 1625 
L 3713 1100 
L 3047 1100 
L 3047 0 
L 2419 0 
L 2419 1100 
L 313 1100 
L 313 1709 
L 2253 4666 
z
" id="DejaVuSans-34" transform="scale(0.015625)"/>
        <path d="M 3513 2113 
L 3513 0 
L 2938 0 
L 2938 2094 
Q 2938 2591 2744 2837 
Q 2550 3084 2163 3084 
Q 1697 3084 1428 2787 
Q 1159 2491 1159 1978 
L 1159 0 
L 581 0 
L 581 4863 
L 1159 4863 
L 1159 2956 
Q 1366 3272 1645 3428 
Q 1925 3584 2291 3584 
Q 2894 3584 3203 3211 
Q 3513 2838 3513 2113 
z
" id="DejaVuSans-68" transform="scale(0.015625)"/>
        <path d="M 750 794 
L 1409 794 
L 1409 0 
L 750 0 
L 750 794 
z
M 750 3309 
L 1409 3309 
L 1409 2516 
L 750 2516 
L 750 3309 
z
" id="DejaVuSans-3a" transform="scale(0.015625)"/>
       </defs>
       <use xlink:href="#DejaVuSans-34"/>
       <use x="63.623047" xlink:href="#DejaVuSans-68"/>
       <use x="127.001953" xlink:href="#DejaVuSans-3a"/>
       <use x="160.693359" xlink:href="#DejaVuSans-35"/>
       <use x="224.316406" xlink:href="#DejaVuSans-6d"/>
      </g>
     </g>
    </g>
    <g id="xtick_3">
     <g id="line2d_3">
      <g>
       <use style="stroke:#000000;stroke-width:0.8;" x="191.693245" xlink:href="#m0a7247b8c4" y="288.430125"/>
      </g>
     </g>
     <g id="text_3">
      <!-- 7h:55m -->
      <g transform="translate(172.426057 303.028562)scale(0.1 -0.1)">
       <defs>
        <path d="M 525 4666 
L 3525 4666 
L 3525 4397 
L 1831 0 
L 1172 0 
L 2766 4134 
L 525 4134 
L 525 4666 
z
" id="DejaVuSans-37" transform="scale(0.015625)"/>
       </defs>
       <use xlink:href="#DejaVuSans-37"/>
       <use x="63.623047" xlink:href="#DejaVuSans-68"/>
       <use x="127.001953" xlink:href="#DejaVuSans-3a"/>
       <use x="160.693359" xlink:href="#DejaVuSans-35"/>
       <use x="224.316406" xlink:href="#DejaVuSans-35"/>
       <use x="287.939453" xlink:href="#DejaVuSans-6d"/>
      </g>
     </g>
    </g>
    <g id="xtick_4">
     <g id="line2d_4">
      <g>
       <use style="stroke:#000000;stroke-width:0.8;" x="246.396941" xlink:href="#m0a7247b8c4" y="288.430125"/>
      </g>
     </g>
     <g id="text_4">
      <!-- 11h:45m -->
      <g transform="translate(223.948504 303.028562)scale(0.1 -0.1)">
       <use xlink:href="#DejaVuSans-31"/>
       <use x="63.623047" xlink:href="#DejaVuSans-31"/>
       <use x="127.246094" xlink:href="#DejaVuSans-68"/>
       <use x="190.625" xlink:href="#DejaVuSans-3a"/>
       <use x="224.316406" xlink:href="#DejaVuSans-34"/>
       <use x="287.939453" xlink:href="#DejaVuSans-35"/>
       <use x="351.5625" xlink:href="#DejaVuSans-6d"/>
      </g>
     </g>
    </g>
    <g id="xtick_5">
     <g id="line2d_5">
      <g>
       <use style="stroke:#000000;stroke-width:0.8;" x="301.100637" xlink:href="#m0a7247b8c4" y="288.430125"/>
      </g>
     </g>
     <g id="text_5">
      <!-- 15h:35m -->
      <g transform="translate(278.6522 303.028562)scale(0.1 -0.1)">
       <defs>
        <path d="M 2597 2516 
Q 3050 2419 3304 2112 
Q 3559 1806 3559 1356 
Q 3559 666 3084 287 
Q 2609 -91 1734 -91 
Q 1441 -91 1130 -33 
Q 819 25 488 141 
L 488 750 
Q 750 597 1062 519 
Q 1375 441 1716 441 
Q 2309 441 2620 675 
Q 2931 909 2931 1356 
Q 2931 1769 2642 2001 
Q 2353 2234 1838 2234 
L 1294 2234 
L 1294 2753 
L 1863 2753 
Q 2328 2753 2575 2939 
Q 2822 3125 2822 3475 
Q 2822 3834 2567 4026 
Q 2313 4219 1838 4219 
Q 1578 4219 1281 4162 
Q 984 4106 628 3988 
L 628 4550 
Q 988 4650 1302 4700 
Q 1616 4750 1894 4750 
Q 2613 4750 3031 4423 
Q 3450 4097 3450 3541 
Q 3450 3153 3228 2886 
Q 3006 2619 2597 2516 
z
" id="DejaVuSans-33" transform="scale(0.015625)"/>
       </defs>
       <use xlink:href="#DejaVuSans-31"/>
       <use x="63.623047" xlink:href="#DejaVuSans-35"/>
       <use x="127.246094" xlink:href="#DejaVuSans-68"/>
       <use x="190.625" xlink:href="#DejaVuSans-3a"/>
       <use x="224.316406" xlink:href="#DejaVuSans-33"/>
       <use x="287.939453" xlink:href="#DejaVuSans-35"/>
       <use x="351.5625" xlink:href="#DejaVuSans-6d"/>
      </g>
     </g>
    </g>
    <g id="xtick_6">
     <g id="line2d_6">
      <g>
       <use style="stroke:#000000;stroke-width:0.8;" x="355.804334" xlink:href="#m0a7247b8c4" y="288.430125"/>
      </g>
     </g>
     <g id="text_6">
      <!-- 19h:25m -->
      <g transform="translate(333.355896 303.028562)scale(0.1 -0.1)">
       <defs>
        <path d="M 703 97 
L 703 672 
Q 941 559 1184 500 
Q 1428 441 1663 441 
Q 2288 441 2617 861 
Q 2947 1281 2994 2138 
Q 2813 1869 2534 1725 
Q 2256 1581 1919 1581 
Q 1219 1581 811 2004 
Q 403 2428 403 3163 
Q 403 3881 828 4315 
Q 1253 4750 1959 4750 
Q 2769 4750 3195 4129 
Q 3622 3509 3622 2328 
Q 3622 1225 3098 567 
Q 2575 -91 1691 -91 
Q 1453 -91 1209 -44 
Q 966 3 703 97 
z
M 1959 2075 
Q 2384 2075 2632 2365 
Q 2881 2656 2881 3163 
Q 2881 3666 2632 3958 
Q 2384 4250 1959 4250 
Q 1534 4250 1286 3958 
Q 1038 3666 1038 3163 
Q 1038 2656 1286 2365 
Q 1534 2075 1959 2075 
z
" id="DejaVuSans-39" transform="scale(0.015625)"/>
        <path d="M 1228 531 
L 3431 531 
L 3431 0 
L 469 0 
L 469 531 
Q 828 903 1448 1529 
Q 2069 2156 2228 2338 
Q 2531 2678 2651 2914 
Q 2772 3150 2772 3378 
Q 2772 3750 2511 3984 
Q 2250 4219 1831 4219 
Q 1534 4219 1204 4116 
Q 875 4013 500 3803 
L 500 4441 
Q 881 4594 1212 4672 
Q 1544 4750 1819 4750 
Q 2544 4750 2975 4387 
Q 3406 4025 3406 3419 
Q 3406 3131 3298 2873 
Q 3191 2616 2906 2266 
Q 2828 2175 2409 1742 
Q 1991 1309 1228 531 
z
" id="DejaVuSans-32" transform="scale(0.015625)"/>
       </defs>
       <use xlink:href="#DejaVuSans-31"/>
       <use x="63.623047" xlink:href="#DejaVuSans-39"/>
       <use x="127.246094" xlink:href="#DejaVuSans-68"/>
       <use x="190.625" xlink:href="#DejaVuSans-3a"/>
       <use x="224.316406" xlink:href="#DejaVuSans-32"/>
       <use x="287.939453" xlink:href="#DejaVuSans-35"/>
       <use x="351.5625" xlink:href="#DejaVuSans-6d"/>
      </g>
     </g>
    </g>
    <g id="text_7">
     <!-- Time (hour:minute) -->
     <g transform="translate(196.206094 316.706687)scale(0.1 -0.1)">
      <defs>
       <path d="M -19 4666 
L 3928 4666 
L 3928 4134 
L 2272 4134 
L 2272 0 
L 1638 0 
L 1638 4134 
L -19 4134 
L -19 4666 
z
" id="DejaVuSans-54" transform="scale(0.015625)"/>
       <path d="M 603 3500 
L 1178 3500 
L 1178 0 
L 603 0 
L 603 3500 
z
M 603 4863 
L 1178 4863 
L 1178 4134 
L 603 4134 
L 603 4863 
z
" id="DejaVuSans-69" transform="scale(0.015625)"/>
       <path d="M 3597 1894 
L 3597 1613 
L 953 1613 
Q 991 1019 1311 708 
Q 1631 397 2203 397 
Q 2534 397 2845 478 
Q 3156 559 3463 722 
L 3463 178 
Q 3153 47 2828 -22 
Q 2503 -91 2169 -91 
Q 1331 -91 842 396 
Q 353 884 353 1716 
Q 353 2575 817 3079 
Q 1281 3584 2069 3584 
Q 2775 3584 3186 3129 
Q 3597 2675 3597 1894 
z
M 3022 2063 
Q 3016 2534 2758 2815 
Q 2500 3097 2075 3097 
Q 1594 3097 1305 2825 
Q 1016 2553 972 2059 
L 3022 2063 
z
" id="DejaVuSans-65" transform="scale(0.015625)"/>
       <path id="DejaVuSans-20" transform="scale(0.015625)"/>
       <path d="M 1984 4856 
Q 1566 4138 1362 3434 
Q 1159 2731 1159 2009 
Q 1159 1288 1364 580 
Q 1569 -128 1984 -844 
L 1484 -844 
Q 1016 -109 783 600 
Q 550 1309 550 2009 
Q 550 2706 781 3412 
Q 1013 4119 1484 4856 
L 1984 4856 
z
" id="DejaVuSans-28" transform="scale(0.015625)"/>
       <path d="M 1959 3097 
Q 1497 3097 1228 2736 
Q 959 2375 959 1747 
Q 959 1119 1226 758 
Q 1494 397 1959 397 
Q 2419 397 2687 759 
Q 2956 1122 2956 1747 
Q 2956 2369 2687 2733 
Q 2419 3097 1959 3097 
z
M 1959 3584 
Q 2709 3584 3137 3096 
Q 3566 2609 3566 1747 
Q 3566 888 3137 398 
Q 2709 -91 1959 -91 
Q 1206 -91 779 398 
Q 353 888 353 1747 
Q 353 2609 779 3096 
Q 1206 3584 1959 3584 
z
" id="DejaVuSans-6f" transform="scale(0.015625)"/>
       <path d="M 544 1381 
L 544 3500 
L 1119 3500 
L 1119 1403 
Q 1119 906 1312 657 
Q 1506 409 1894 409 
Q 2359 409 2629 706 
Q 2900 1003 2900 1516 
L 2900 3500 
L 3475 3500 
L 3475 0 
L 2900 0 
L 2900 538 
Q 2691 219 2414 64 
Q 2138 -91 1772 -91 
Q 1169 -91 856 284 
Q 544 659 544 1381 
z
M 1991 3584 
L 1991 3584 
z
" id="DejaVuSans-75" transform="scale(0.015625)"/>
       <path d="M 2631 2963 
Q 2534 3019 2420 3045 
Q 2306 3072 2169 3072 
Q 1681 3072 1420 2755 
Q 1159 2438 1159 1844 
L 1159 0 
L 581 0 
L 581 3500 
L 1159 3500 
L 1159 2956 
Q 1341 3275 1631 3429 
Q 1922 3584 2338 3584 
Q 2397 3584 2469 3576 
Q 2541 3569 2628 3553 
L 2631 2963 
z
" id="DejaVuSans-72" transform="scale(0.015625)"/>
       <path d="M 3513 2113 
L 3513 0 
L 2938 0 
L 2938 2094 
Q 2938 2591 2744 2837 
Q 2550 3084 2163 3084 
Q 1697 3084 1428 2787 
Q 1159 2491 1159 1978 
L 1159 0 
L 581 0 
L 581 3500 
L 1159 3500 
L 1159 2956 
Q 1366 3272 1645 3428 
Q 1925 3584 2291 3584 
Q 2894 3584 3203 3211 
Q 3513 2838 3513 2113 
z
" id="DejaVuSans-6e" transform="scale(0.015625)"/>
       <path d="M 1172 4494 
L 1172 3500 
L 2356 3500 
L 2356 3053 
L 1172 3053 
L 1172 1153 
Q 1172 725 1289 603 
Q 1406 481 1766 481 
L 2356 481 
L 2356 0 
L 1766 0 
Q 1100 0 847 248 
Q 594 497 594 1153 
L 594 3053 
L 172 3053 
L 172 3500 
L 594 3500 
L 594 4494 
L 1172 4494 
z
" id="DejaVuSans-74" transform="scale(0.015625)"/>
       <path d="M 513 4856 
L 1013 4856 
Q 1481 4119 1714 3412 
Q 1947 2706 1947 2009 
Q 1947 1309 1714 600 
Q 1481 -109 1013 -844 
L 513 -844 
Q 928 -128 1133 580 
Q 1338 1288 1338 2009 
Q 1338 2731 1133 3434 
Q 928 4138 513 4856 
z
" id="DejaVuSans-29" transform="scale(0.015625)"/>
      </defs>
      <use xlink:href="#DejaVuSans-54"/>
      <use x="57.958984" xlink:href="#DejaVuSans-69"/>
      <use x="85.742188" xlink:href="#DejaVuSans-6d"/>
      <use x="183.154297" xlink:href="#DejaVuSans-65"/>
      <use x="244.677734" xlink:href="#DejaVuSans-20"/>
      <use x="276.464844" xlink:href="#DejaVuSans-28"/>
      <use x="315.478516" xlink:href="#DejaVuSans-68"/>
      <use x="378.857422" xlink:href="#DejaVuSans-6f"/>
      <use x="440.039062" xlink:href="#DejaVuSans-75"/>
      <use x="503.417969" xlink:href="#DejaVuSans-72"/>
      <use x="542.78125" xlink:href="#DejaVuSans-3a"/>
      <use x="576.472656" xlink:href="#DejaVuSans-6d"/>
      <use x="673.884766" xlink:href="#DejaVuSans-69"/>
      <use x="701.667969" xlink:href="#DejaVuSans-6e"/>
      <use x="765.046875" xlink:href="#DejaVuSans-75"/>
      <use x="828.425781" xlink:href="#DejaVuSans-74"/>
      <use x="867.634766" xlink:href="#DejaVuSans-65"/>
      <use x="929.158203" xlink:href="#DejaVuSans-29"/>
     </g>
    </g>
   </g>
   <g id="matplotlib.axis_2">
    <g id="ytick_1">
     <g id="line2d_7">
      <defs>
       <path d="M 0 0 
L -3.5 0 
" id="m21d11b7426" style="stroke:#000000;stroke-width:0.8;"/>
      </defs>
      <g>
       <use style="stroke:#000000;stroke-width:0.8;" x="66.053125" xlink:href="#m21d11b7426" y="274.390968"/>
      </g>
     </g>
     <g id="text_8">
      <!-- 145000 -->
      <g transform="translate(20.878125 278.190187)scale(0.1 -0.1)">
       <defs>
        <path d="M 2034 4250 
Q 1547 4250 1301 3770 
Q 1056 3291 1056 2328 
Q 1056 1369 1301 889 
Q 1547 409 2034 409 
Q 2525 409 2770 889 
Q 3016 1369 3016 2328 
Q 3016 3291 2770 3770 
Q 2525 4250 2034 4250 
z
M 2034 4750 
Q 2819 4750 3233 4129 
Q 3647 3509 3647 2328 
Q 3647 1150 3233 529 
Q 2819 -91 2034 -91 
Q 1250 -91 836 529 
Q 422 1150 422 2328 
Q 422 3509 836 4129 
Q 1250 4750 2034 4750 
z
" id="DejaVuSans-30" transform="scale(0.015625)"/>
       </defs>
       <use xlink:href="#DejaVuSans-31"/>
       <use x="63.623047" xlink:href="#DejaVuSans-34"/>
       <use x="127.246094" xlink:href="#DejaVuSans-35"/>
       <use x="190.869141" xlink:href="#DejaVuSans-30"/>
       <use x="254.492188" xlink:href="#DejaVuSans-30"/>
       <use x="318.115234" xlink:href="#DejaVuSans-30"/>
      </g>
     </g>
    </g>
    <g id="ytick_2">
     <g id="line2d_8">
      <g>
       <use style="stroke:#000000;stroke-width:0.8;" x="66.053125" xlink:href="#m21d11b7426" y="243.933962"/>
      </g>
     </g>
     <g id="text_9">
      <!-- 150000 -->
      <g transform="translate(20.878125 247.733181)scale(0.1 -0.1)">
       <use xlink:href="#DejaVuSans-31"/>
       <use x="63.623047" xlink:href="#DejaVuSans-35"/>
       <use x="127.246094" xlink:href="#DejaVuSans-30"/>
       <use x="190.869141" xlink:href="#DejaVuSans-30"/>
       <use x="254.492188" xlink:href="#DejaVuSans-30"/>
       <use x="318.115234" xlink:href="#DejaVuSans-30"/>
      </g>
     </g>
    </g>
    <g id="ytick_3">
     <g id="line2d_9">
      <g>
       <use style="stroke:#000000;stroke-width:0.8;" x="66.053125" xlink:href="#m21d11b7426" y="213.476956"/>
      </g>
     </g>
     <g id="text_10">
      <!-- 155000 -->
      <g transform="translate(20.878125 217.276174)scale(0.1 -0.1)">
       <use xlink:href="#DejaVuSans-31"/>
       <use x="63.623047" xlink:href="#DejaVuSans-35"/>
       <use x="127.246094" xlink:href="#DejaVuSans-35"/>
       <use x="190.869141" xlink:href="#DejaVuSans-30"/>
       <use x="254.492188" xlink:href="#DejaVuSans-30"/>
       <use x="318.115234" xlink:href="#DejaVuSans-30"/>
      </g>
     </g>
    </g>
    <g id="ytick_4">
     <g id="line2d_10">
      <g>
       <use style="stroke:#000000;stroke-width:0.8;" x="66.053125" xlink:href="#m21d11b7426" y="183.019949"/>
      </g>
     </g>
     <g id="text_11">
      <!-- 160000 -->
      <g transform="translate(20.878125 186.819168)scale(0.1 -0.1)">
       <defs>
        <path d="M 2113 2584 
Q 1688 2584 1439 2293 
Q 1191 2003 1191 1497 
Q 1191 994 1439 701 
Q 1688 409 2113 409 
Q 2538 409 2786 701 
Q 3034 994 3034 1497 
Q 3034 2003 2786 2293 
Q 2538 2584 2113 2584 
z
M 3366 4563 
L 3366 3988 
Q 3128 4100 2886 4159 
Q 2644 4219 2406 4219 
Q 1781 4219 1451 3797 
Q 1122 3375 1075 2522 
Q 1259 2794 1537 2939 
Q 1816 3084 2150 3084 
Q 2853 3084 3261 2657 
Q 3669 2231 3669 1497 
Q 3669 778 3244 343 
Q 2819 -91 2113 -91 
Q 1303 -91 875 529 
Q 447 1150 447 2328 
Q 447 3434 972 4092 
Q 1497 4750 2381 4750 
Q 2619 4750 2861 4703 
Q 3103 4656 3366 4563 
z
" id="DejaVuSans-36" transform="scale(0.015625)"/>
       </defs>
       <use xlink:href="#DejaVuSans-31"/>
       <use x="63.623047" xlink:href="#DejaVuSans-36"/>
       <use x="127.246094" xlink:href="#DejaVuSans-30"/>
       <use x="190.869141" xlink:href="#DejaVuSans-30"/>
       <use x="254.492188" xlink:href="#DejaVuSans-30"/>
       <use x="318.115234" xlink:href="#DejaVuSans-30"/>
      </g>
     </g>
    </g>
    <g id="ytick_5">
     <g id="line2d_11">
      <g>
       <use style="stroke:#000000;stroke-width:0.8;" x="66.053125" xlink:href="#m21d11b7426" y="152.562943"/>
      </g>
     </g>
     <g id="text_12">
      <!-- 165000 -->
      <g transform="translate(20.878125 156.362162)scale(0.1 -0.1)">
       <use xlink:href="#DejaVuSans-31"/>
       <use x="63.623047" xlink:href="#DejaVuSans-36"/>
       <use x="127.246094" xlink:href="#DejaVuSans-35"/>
       <use x="190.869141" xlink:href="#DejaVuSans-30"/>
       <use x="254.492188" xlink:href="#DejaVuSans-30"/>
       <use x="318.115234" xlink:href="#DejaVuSans-30"/>
      </g>
     </g>
    </g>
    <g id="ytick_6">
     <g id="line2d_12">
      <g>
       <use style="stroke:#000000;stroke-width:0.8;" x="66.053125" xlink:href="#m21d11b7426" y="122.105937"/>
      </g>
     </g>
     <g id="text_13">
      <!-- 170000 -->
      <g transform="translate(20.878125 125.905156)scale(0.1 -0.1)">
       <use xlink:href="#DejaVuSans-31"/>
       <use x="63.623047" xlink:href="#DejaVuSans-37"/>
       <use x="127.246094" xlink:href="#DejaVuSans-30"/>
       <use x="190.869141" xlink:href="#DejaVuSans-30"/>
       <use x="254.492188" xlink:href="#DejaVuSans-30"/>
       <use x="318.115234" xlink:href="#DejaVuSans-30"/>
      </g>
     </g>
    </g>
    <g id="ytick_7">
     <g id="line2d_13">
      <g>
       <use style="stroke:#000000;stroke-width:0.8;" x="66.053125" xlink:href="#m21d11b7426" y="91.648931"/>
      </g>
     </g>
     <g id="text_14">
      <!-- 175000 -->
      <g transform="translate(20.878125 95.44815)scale(0.1 -0.1)">
       <use xlink:href="#DejaVuSans-31"/>
       <use x="63.623047" xlink:href="#DejaVuSans-37"/>
       <use x="127.246094" xlink:href="#DejaVuSans-35"/>
       <use x="190.869141" xlink:href="#DejaVuSans-30"/>
       <use x="254.492188" xlink:href="#DejaVuSans-30"/>
       <use x="318.115234" xlink:href="#DejaVuSans-30"/>
      </g>
     </g>
    </g>
    <g id="ytick_8">
     <g id="line2d_14">
      <g>
       <use style="stroke:#000000;stroke-width:0.8;" x="66.053125" xlink:href="#m21d11b7426" y="61.191925"/>
      </g>
     </g>
     <g id="text_15">
      <!-- 180000 -->
      <g transform="translate(20.878125 64.991144)scale(0.1 -0.1)">
       <defs>
        <path d="M 2034 2216 
Q 1584 2216 1326 1975 
Q 1069 1734 1069 1313 
Q 1069 891 1326 650 
Q 1584 409 2034 409 
Q 2484 409 2743 651 
Q 3003 894 3003 1313 
Q 3003 1734 2745 1975 
Q 2488 2216 2034 2216 
z
M 1403 2484 
Q 997 2584 770 2862 
Q 544 3141 544 3541 
Q 544 4100 942 4425 
Q 1341 4750 2034 4750 
Q 2731 4750 3128 4425 
Q 3525 4100 3525 3541 
Q 3525 3141 3298 2862 
Q 3072 2584 2669 2484 
Q 3125 2378 3379 2068 
Q 3634 1759 3634 1313 
Q 3634 634 3220 271 
Q 2806 -91 2034 -91 
Q 1263 -91 848 271 
Q 434 634 434 1313 
Q 434 1759 690 2068 
Q 947 2378 1403 2484 
z
M 1172 3481 
Q 1172 3119 1398 2916 
Q 1625 2713 2034 2713 
Q 2441 2713 2670 2916 
Q 2900 3119 2900 3481 
Q 2900 3844 2670 4047 
Q 2441 4250 2034 4250 
Q 1625 4250 1398 4047 
Q 1172 3844 1172 3481 
z
" id="DejaVuSans-38" transform="scale(0.015625)"/>
       </defs>
       <use xlink:href="#DejaVuSans-31"/>
       <use x="63.623047" xlink:href="#DejaVuSans-38"/>
       <use x="127.246094" xlink:href="#DejaVuSans-30"/>
       <use x="190.869141" xlink:href="#DejaVuSans-30"/>
       <use x="254.492188" xlink:href="#DejaVuSans-30"/>
       <use x="318.115234" xlink:href="#DejaVuSans-30"/>
      </g>
     </g>
    </g>
    <g id="ytick_9">
     <g id="line2d_15">
      <g>
       <use style="stroke:#000000;stroke-width:0.8;" x="66.053125" xlink:href="#m21d11b7426" y="30.734919"/>
      </g>
     </g>
     <g id="text_16">
      <!-- 185000 -->
      <g transform="translate(20.878125 34.534137)scale(0.1 -0.1)">
       <use xlink:href="#DejaVuSans-31"/>
       <use x="63.623047" xlink:href="#DejaVuSans-38"/>
       <use x="127.246094" xlink:href="#DejaVuSans-35"/>
       <use x="190.869141" xlink:href="#DejaVuSans-30"/>
       <use x="254.492188" xlink:href="#DejaVuSans-30"/>
       <use x="318.115234" xlink:href="#DejaVuSans-30"/>
      </g>
     </g>
    </g>
    <g id="text_17">
     <!-- Code region coverage -->
     <g transform="translate(14.798438 210.379594)rotate(-90)scale(0.1 -0.1)">
      <defs>
       <path d="M 4122 4306 
L 4122 3641 
Q 3803 3938 3442 4084 
Q 3081 4231 2675 4231 
Q 1875 4231 1450 3742 
Q 1025 3253 1025 2328 
Q 1025 1406 1450 917 
Q 1875 428 2675 428 
Q 3081 428 3442 575 
Q 3803 722 4122 1019 
L 4122 359 
Q 3791 134 3420 21 
Q 3050 -91 2638 -91 
Q 1578 -91 968 557 
Q 359 1206 359 2328 
Q 359 3453 968 4101 
Q 1578 4750 2638 4750 
Q 3056 4750 3426 4639 
Q 3797 4528 4122 4306 
z
" id="DejaVuSans-43" transform="scale(0.015625)"/>
       <path d="M 2906 2969 
L 2906 4863 
L 3481 4863 
L 3481 0 
L 2906 0 
L 2906 525 
Q 2725 213 2448 61 
Q 2172 -91 1784 -91 
Q 1150 -91 751 415 
Q 353 922 353 1747 
Q 353 2572 751 3078 
Q 1150 3584 1784 3584 
Q 2172 3584 2448 3432 
Q 2725 3281 2906 2969 
z
M 947 1747 
Q 947 1113 1208 752 
Q 1469 391 1925 391 
Q 2381 391 2643 752 
Q 2906 1113 2906 1747 
Q 2906 2381 2643 2742 
Q 2381 3103 1925 3103 
Q 1469 3103 1208 2742 
Q 947 2381 947 1747 
z
" id="DejaVuSans-64" transform="scale(0.015625)"/>
       <path d="M 2906 1791 
Q 2906 2416 2648 2759 
Q 2391 3103 1925 3103 
Q 1463 3103 1205 2759 
Q 947 2416 947 1791 
Q 947 1169 1205 825 
Q 1463 481 1925 481 
Q 2391 481 2648 825 
Q 2906 1169 2906 1791 
z
M 3481 434 
Q 3481 -459 3084 -895 
Q 2688 -1331 1869 -1331 
Q 1566 -1331 1297 -1286 
Q 1028 -1241 775 -1147 
L 775 -588 
Q 1028 -725 1275 -790 
Q 1522 -856 1778 -856 
Q 2344 -856 2625 -561 
Q 2906 -266 2906 331 
L 2906 616 
Q 2728 306 2450 153 
Q 2172 0 1784 0 
Q 1141 0 747 490 
Q 353 981 353 1791 
Q 353 2603 747 3093 
Q 1141 3584 1784 3584 
Q 2172 3584 2450 3431 
Q 2728 3278 2906 2969 
L 2906 3500 
L 3481 3500 
L 3481 434 
z
" id="DejaVuSans-67" transform="scale(0.015625)"/>
       <path d="M 3122 3366 
L 3122 2828 
Q 2878 2963 2633 3030 
Q 2388 3097 2138 3097 
Q 1578 3097 1268 2742 
Q 959 2388 959 1747 
Q 959 1106 1268 751 
Q 1578 397 2138 397 
Q 2388 397 2633 464 
Q 2878 531 3122 666 
L 3122 134 
Q 2881 22 2623 -34 
Q 2366 -91 2075 -91 
Q 1284 -91 818 406 
Q 353 903 353 1747 
Q 353 2603 823 3093 
Q 1294 3584 2113 3584 
Q 2378 3584 2631 3529 
Q 2884 3475 3122 3366 
z
" id="DejaVuSans-63" transform="scale(0.015625)"/>
       <path d="M 191 3500 
L 800 3500 
L 1894 563 
L 2988 3500 
L 3597 3500 
L 2284 0 
L 1503 0 
L 191 3500 
z
" id="DejaVuSans-76" transform="scale(0.015625)"/>
       <path d="M 2194 1759 
Q 1497 1759 1228 1600 
Q 959 1441 959 1056 
Q 959 750 1161 570 
Q 1363 391 1709 391 
Q 2188 391 2477 730 
Q 2766 1069 2766 1631 
L 2766 1759 
L 2194 1759 
z
M 3341 1997 
L 3341 0 
L 2766 0 
L 2766 531 
Q 2569 213 2275 61 
Q 1981 -91 1556 -91 
Q 1019 -91 701 211 
Q 384 513 384 1019 
Q 384 1609 779 1909 
Q 1175 2209 1959 2209 
L 2766 2209 
L 2766 2266 
Q 2766 2663 2505 2880 
Q 2244 3097 1772 3097 
Q 1472 3097 1187 3025 
Q 903 2953 641 2809 
L 641 3341 
Q 956 3463 1253 3523 
Q 1550 3584 1831 3584 
Q 2591 3584 2966 3190 
Q 3341 2797 3341 1997 
z
" id="DejaVuSans-61" transform="scale(0.015625)"/>
      </defs>
      <use xlink:href="#DejaVuSans-43"/>
      <use x="69.824219" xlink:href="#DejaVuSans-6f"/>
      <use x="131.005859" xlink:href="#DejaVuSans-64"/>
      <use x="194.482422" xlink:href="#DejaVuSans-65"/>
      <use x="256.005859" xlink:href="#DejaVuSans-20"/>
      <use x="287.792969" xlink:href="#DejaVuSans-72"/>
      <use x="326.65625" xlink:href="#DejaVuSans-65"/>
      <use x="388.179688" xlink:href="#DejaVuSans-67"/>
      <use x="451.65625" xlink:href="#DejaVuSans-69"/>
      <use x="479.439453" xlink:href="#DejaVuSans-6f"/>
      <use x="540.621094" xlink:href="#DejaVuSans-6e"/>
      <use x="604" xlink:href="#DejaVuSans-20"/>
      <use x="635.787109" xlink:href="#DejaVuSans-63"/>
      <use x="690.767578" xlink:href="#DejaVuSans-6f"/>
      <use x="751.949219" xlink:href="#DejaVuSans-76"/>
      <use x="811.128906" xlink:href="#DejaVuSans-65"/>
      <use x="872.652344" xlink:href="#DejaVuSans-72"/>
      <use x="913.765625" xlink:href="#DejaVuSans-61"/>
      <use x="975.044922" xlink:href="#DejaVuSans-67"/>
      <use x="1038.521484" xlink:href="#DejaVuSans-65"/>
     </g>
    </g>
   </g>
   <g id="line2d_16">
    <path clip-path="url(#p089f7f98f3)" d="M 82.285852 270.678259 
L 85.853485 247.20809 
L 89.421117 217.32063 
L 92.988749 188.617947 
L 96.556382 171.750857 
L 100.124014 158.075661 
L 103.691646 144.497928 
L 107.259279 132.497868 
L 110.826911 125.084632 
L 114.394544 114.634834 
L 117.962176 106.505859 
L 121.529808 98.20937 
L 125.097441 91.685479 
L 128.665073 85.073263 
L 132.232705 78.86308 
L 135.800338 74.002142 
L 139.36797 69.969634 
L 142.935603 68.556429 
L 146.503235 66.439667 
L 150.070867 63.850821 
L 153.6385 66.527992 
L 157.206132 62.273149 
L 160.773764 61.767562 
L 164.341397 63.232544 
L 167.909029 59.937096 
L 171.476661 56.611191 
L 175.044294 61.161468 
L 178.611926 56.178702 
L 182.179559 58.670085 
L 185.747191 55.417276 
L 189.314823 54.527932 
L 192.882456 53.294423 
L 196.450088 51.664973 
L 200.01772 52.947213 
L 203.585353 52.938076 
L 207.152985 52.667009 
L 210.720618 52.517769 
L 214.28825 52.417261 
L 217.855882 52.292388 
L 221.423515 52.137057 
L 224.991147 54.058894 
L 228.558779 49.886284 
L 232.126412 51.67411 
L 235.694044 51.332992 
L 239.261676 49.599988 
L 242.829309 52.871071 
L 246.396941 52.852797 
L 249.964574 52.38985 
L 253.532206 51.878172 
L 257.099838 50.081209 
L 260.667471 50.069026 
L 264.235103 49.995929 
L 267.802735 51.049742 
L 271.370368 50.513698 
L 274.938 50.312682 
L 278.505632 50.196946 
L 282.073265 49.261916 
L 285.640897 49.971564 
L 289.20853 49.143133 
L 292.776162 49.054808 
L 296.343794 48.902523 
L 299.911427 48.802015 
L 303.479059 48.655821 
L 307.046691 48.936026 
L 310.614324 48.552267 
L 314.181956 48.421302 
L 317.749589 48.21724 
L 321.317221 47.851756 
L 324.884853 47.763431 
L 328.452486 47.949219 
L 332.020118 47.632466 
L 335.58775 47.559369 
L 339.155383 47.419267 
L 342.723015 47.851756 
L 346.290647 47.248707 
L 349.85828 47.056828 
L 353.425912 48.092366 
L 356.993545 46.237535 
L 360.561177 47.236525 
L 364.128809 46.109615 
L 367.696442 46.639567 
L 371.264074 46.103524 
L 374.831706 46.633476 
L 378.399339 46.554288 
L 381.966971 47.145154 
L 385.534604 45.6954 
L 389.102236 45.628395 
L 392.669868 46.804035 
L 396.237501 46.057838 
L 399.805133 46.38982 
L 403.372765 46.383728 
L 406.940398 45.878142 
" style="fill:none;stroke:#98df8a;stroke-linecap:square;stroke-width:1.5;"/>
    <defs>
     <path d="M -0 3 
L 3 -3 
L -3 -3 
z
" id="m33bb393796" style="stroke:#ffffff;stroke-linejoin:miter;stroke-width:0.75;"/>
    </defs>
    <g clip-path="url(#p089f7f98f3)">
     <use style="fill:#98df8a;stroke:#ffffff;stroke-linejoin:miter;stroke-width:0.75;" x="82.285852" xlink:href="#m33bb393796" y="270.678259"/>
     <use style="fill:#98df8a;stroke:#ffffff;stroke-linejoin:miter;stroke-width:0.75;" x="85.853485" xlink:href="#m33bb393796" y="247.20809"/>
     <use style="fill:#98df8a;stroke:#ffffff;stroke-linejoin:miter;stroke-width:0.75;" x="89.421117" xlink:href="#m33bb393796" y="217.32063"/>
     <use style="fill:#98df8a;stroke:#ffffff;stroke-linejoin:miter;stroke-width:0.75;" x="92.988749" xlink:href="#m33bb393796" y="188.617947"/>
     <use style="fill:#98df8a;stroke:#ffffff;stroke-linejoin:miter;stroke-width:0.75;" x="96.556382" xlink:href="#m33bb393796" y="171.750857"/>
     <use style="fill:#98df8a;stroke:#ffffff;stroke-linejoin:miter;stroke-width:0.75;" x="100.124014" xlink:href="#m33bb393796" y="158.075661"/>
     <use style="fill:#98df8a;stroke:#ffffff;stroke-linejoin:miter;stroke-width:0.75;" x="103.691646" xlink:href="#m33bb393796" y="144.497928"/>
     <use style="fill:#98df8a;stroke:#ffffff;stroke-linejoin:miter;stroke-width:0.75;" x="107.259279" xlink:href="#m33bb393796" y="132.497868"/>
     <use style="fill:#98df8a;stroke:#ffffff;stroke-linejoin:miter;stroke-width:0.75;" x="110.826911" xlink:href="#m33bb393796" y="125.084632"/>
     <use style="fill:#98df8a;stroke:#ffffff;stroke-linejoin:miter;stroke-width:0.75;" x="114.394544" xlink:href="#m33bb393796" y="114.634834"/>
     <use style="fill:#98df8a;stroke:#ffffff;stroke-linejoin:miter;stroke-width:0.75;" x="117.962176" xlink:href="#m33bb393796" y="106.505859"/>
     <use style="fill:#98df8a;stroke:#ffffff;stroke-linejoin:miter;stroke-width:0.75;" x="121.529808" xlink:href="#m33bb393796" y="98.20937"/>
     <use style="fill:#98df8a;stroke:#ffffff;stroke-linejoin:miter;stroke-width:0.75;" x="125.097441" xlink:href="#m33bb393796" y="91.685479"/>
     <use style="fill:#98df8a;stroke:#ffffff;stroke-linejoin:miter;stroke-width:0.75;" x="128.665073" xlink:href="#m33bb393796" y="85.073263"/>
     <use style="fill:#98df8a;stroke:#ffffff;stroke-linejoin:miter;stroke-width:0.75;" x="132.232705" xlink:href="#m33bb393796" y="78.86308"/>
     <use style="fill:#98df8a;stroke:#ffffff;stroke-linejoin:miter;stroke-width:0.75;" x="135.800338" xlink:href="#m33bb393796" y="74.002142"/>
     <use style="fill:#98df8a;stroke:#ffffff;stroke-linejoin:miter;stroke-width:0.75;" x="139.36797" xlink:href="#m33bb393796" y="69.969634"/>
     <use style="fill:#98df8a;stroke:#ffffff;stroke-linejoin:miter;stroke-width:0.75;" x="142.935603" xlink:href="#m33bb393796" y="68.556429"/>
     <use style="fill:#98df8a;stroke:#ffffff;stroke-linejoin:miter;stroke-width:0.75;" x="146.503235" xlink:href="#m33bb393796" y="66.439667"/>
     <use style="fill:#98df8a;stroke:#ffffff;stroke-linejoin:miter;stroke-width:0.75;" x="150.070867" xlink:href="#m33bb393796" y="63.850821"/>
     <use style="fill:#98df8a;stroke:#ffffff;stroke-linejoin:miter;stroke-width:0.75;" x="153.6385" xlink:href="#m33bb393796" y="66.527992"/>
     <use style="fill:#98df8a;stroke:#ffffff;stroke-linejoin:miter;stroke-width:0.75;" x="157.206132" xlink:href="#m33bb393796" y="62.273149"/>
     <use style="fill:#98df8a;stroke:#ffffff;stroke-linejoin:miter;stroke-width:0.75;" x="160.773764" xlink:href="#m33bb393796" y="61.767562"/>
     <use style="fill:#98df8a;stroke:#ffffff;stroke-linejoin:miter;stroke-width:0.75;" x="164.341397" xlink:href="#m33bb393796" y="63.232544"/>
     <use style="fill:#98df8a;stroke:#ffffff;stroke-linejoin:miter;stroke-width:0.75;" x="167.909029" xlink:href="#m33bb393796" y="59.937096"/>
     <use style="fill:#98df8a;stroke:#ffffff;stroke-linejoin:miter;stroke-width:0.75;" x="171.476661" xlink:href="#m33bb393796" y="56.611191"/>
     <use style="fill:#98df8a;stroke:#ffffff;stroke-linejoin:miter;stroke-width:0.75;" x="175.044294" xlink:href="#m33bb393796" y="61.161468"/>
     <use style="fill:#98df8a;stroke:#ffffff;stroke-linejoin:miter;stroke-width:0.75;" x="178.611926" xlink:href="#m33bb393796" y="56.178702"/>
     <use style="fill:#98df8a;stroke:#ffffff;stroke-linejoin:miter;stroke-width:0.75;" x="182.179559" xlink:href="#m33bb393796" y="58.670085"/>
     <use style="fill:#98df8a;stroke:#ffffff;stroke-linejoin:miter;stroke-width:0.75;" x="185.747191" xlink:href="#m33bb393796" y="55.417276"/>
     <use style="fill:#98df8a;stroke:#ffffff;stroke-linejoin:miter;stroke-width:0.75;" x="189.314823" xlink:href="#m33bb393796" y="54.527932"/>
     <use style="fill:#98df8a;stroke:#ffffff;stroke-linejoin:miter;stroke-width:0.75;" x="192.882456" xlink:href="#m33bb393796" y="53.294423"/>
     <use style="fill:#98df8a;stroke:#ffffff;stroke-linejoin:miter;stroke-width:0.75;" x="196.450088" xlink:href="#m33bb393796" y="51.664973"/>
     <use style="fill:#98df8a;stroke:#ffffff;stroke-linejoin:miter;stroke-width:0.75;" x="200.01772" xlink:href="#m33bb393796" y="52.947213"/>
     <use style="fill:#98df8a;stroke:#ffffff;stroke-linejoin:miter;stroke-width:0.75;" x="203.585353" xlink:href="#m33bb393796" y="52.938076"/>
     <use style="fill:#98df8a;stroke:#ffffff;stroke-linejoin:miter;stroke-width:0.75;" x="207.152985" xlink:href="#m33bb393796" y="52.667009"/>
     <use style="fill:#98df8a;stroke:#ffffff;stroke-linejoin:miter;stroke-width:0.75;" x="210.720618" xlink:href="#m33bb393796" y="52.517769"/>
     <use style="fill:#98df8a;stroke:#ffffff;stroke-linejoin:miter;stroke-width:0.75;" x="214.28825" xlink:href="#m33bb393796" y="52.417261"/>
     <use style="fill:#98df8a;stroke:#ffffff;stroke-linejoin:miter;stroke-width:0.75;" x="217.855882" xlink:href="#m33bb393796" y="52.292388"/>
     <use style="fill:#98df8a;stroke:#ffffff;stroke-linejoin:miter;stroke-width:0.75;" x="221.423515" xlink:href="#m33bb393796" y="52.137057"/>
     <use style="fill:#98df8a;stroke:#ffffff;stroke-linejoin:miter;stroke-width:0.75;" x="224.991147" xlink:href="#m33bb393796" y="54.058894"/>
     <use style="fill:#98df8a;stroke:#ffffff;stroke-linejoin:miter;stroke-width:0.75;" x="228.558779" xlink:href="#m33bb393796" y="49.886284"/>
     <use style="fill:#98df8a;stroke:#ffffff;stroke-linejoin:miter;stroke-width:0.75;" x="232.126412" xlink:href="#m33bb393796" y="51.67411"/>
     <use style="fill:#98df8a;stroke:#ffffff;stroke-linejoin:miter;stroke-width:0.75;" x="235.694044" xlink:href="#m33bb393796" y="51.332992"/>
     <use style="fill:#98df8a;stroke:#ffffff;stroke-linejoin:miter;stroke-width:0.75;" x="239.261676" xlink:href="#m33bb393796" y="49.599988"/>
     <use style="fill:#98df8a;stroke:#ffffff;stroke-linejoin:miter;stroke-width:0.75;" x="242.829309" xlink:href="#m33bb393796" y="52.871071"/>
     <use style="fill:#98df8a;stroke:#ffffff;stroke-linejoin:miter;stroke-width:0.75;" x="246.396941" xlink:href="#m33bb393796" y="52.852797"/>
     <use style="fill:#98df8a;stroke:#ffffff;stroke-linejoin:miter;stroke-width:0.75;" x="249.964574" xlink:href="#m33bb393796" y="52.38985"/>
     <use style="fill:#98df8a;stroke:#ffffff;stroke-linejoin:miter;stroke-width:0.75;" x="253.532206" xlink:href="#m33bb393796" y="51.878172"/>
     <use style="fill:#98df8a;stroke:#ffffff;stroke-linejoin:miter;stroke-width:0.75;" x="257.099838" xlink:href="#m33bb393796" y="50.081209"/>
     <use style="fill:#98df8a;stroke:#ffffff;stroke-linejoin:miter;stroke-width:0.75;" x="260.667471" xlink:href="#m33bb393796" y="50.069026"/>
     <use style="fill:#98df8a;stroke:#ffffff;stroke-linejoin:miter;stroke-width:0.75;" x="264.235103" xlink:href="#m33bb393796" y="49.995929"/>
     <use style="fill:#98df8a;stroke:#ffffff;stroke-linejoin:miter;stroke-width:0.75;" x="267.802735" xlink:href="#m33bb393796" y="51.049742"/>
     <use style="fill:#98df8a;stroke:#ffffff;stroke-linejoin:miter;stroke-width:0.75;" x="271.370368" xlink:href="#m33bb393796" y="50.513698"/>
     <use style="fill:#98df8a;stroke:#ffffff;stroke-linejoin:miter;stroke-width:0.75;" x="274.938" xlink:href="#m33bb393796" y="50.312682"/>
     <use style="fill:#98df8a;stroke:#ffffff;stroke-linejoin:miter;stroke-width:0.75;" x="278.505632" xlink:href="#m33bb393796" y="50.196946"/>
     <use style="fill:#98df8a;stroke:#ffffff;stroke-linejoin:miter;stroke-width:0.75;" x="282.073265" xlink:href="#m33bb393796" y="49.261916"/>
     <use style="fill:#98df8a;stroke:#ffffff;stroke-linejoin:miter;stroke-width:0.75;" x="285.640897" xlink:href="#m33bb393796" y="49.971564"/>
     <use style="fill:#98df8a;stroke:#ffffff;stroke-linejoin:miter;stroke-width:0.75;" x="289.20853" xlink:href="#m33bb393796" y="49.143133"/>
     <use style="fill:#98df8a;stroke:#ffffff;stroke-linejoin:miter;stroke-width:0.75;" x="292.776162" xlink:href="#m33bb393796" y="49.054808"/>
     <use style="fill:#98df8a;stroke:#ffffff;stroke-linejoin:miter;stroke-width:0.75;" x="296.343794" xlink:href="#m33bb393796" y="48.902523"/>
     <use style="fill:#98df8a;stroke:#ffffff;stroke-linejoin:miter;stroke-width:0.75;" x="299.911427" xlink:href="#m33bb393796" y="48.802015"/>
     <use style="fill:#98df8a;stroke:#ffffff;stroke-linejoin:miter;stroke-width:0.75;" x="303.479059" xlink:href="#m33bb393796" y="48.655821"/>
     <use style="fill:#98df8a;stroke:#ffffff;stroke-linejoin:miter;stroke-width:0.75;" x="307.046691" xlink:href="#m33bb393796" y="48.936026"/>
     <use style="fill:#98df8a;stroke:#ffffff;stroke-linejoin:miter;stroke-width:0.75;" x="310.614324" xlink:href="#m33bb393796" y="48.552267"/>
     <use style="fill:#98df8a;stroke:#ffffff;stroke-linejoin:miter;stroke-width:0.75;" x="314.181956" xlink:href="#m33bb393796" y="48.421302"/>
     <use style="fill:#98df8a;stroke:#ffffff;stroke-linejoin:miter;stroke-width:0.75;" x="317.749589" xlink:href="#m33bb393796" y="48.21724"/>
     <use style="fill:#98df8a;stroke:#ffffff;stroke-linejoin:miter;stroke-width:0.75;" x="321.317221" xlink:href="#m33bb393796" y="47.851756"/>
     <use style="fill:#98df8a;stroke:#ffffff;stroke-linejoin:miter;stroke-width:0.75;" x="324.884853" xlink:href="#m33bb393796" y="47.763431"/>
     <use style="fill:#98df8a;stroke:#ffffff;stroke-linejoin:miter;stroke-width:0.75;" x="328.452486" xlink:href="#m33bb393796" y="47.949219"/>
     <use style="fill:#98df8a;stroke:#ffffff;stroke-linejoin:miter;stroke-width:0.75;" x="332.020118" xlink:href="#m33bb393796" y="47.632466"/>
     <use style="fill:#98df8a;stroke:#ffffff;stroke-linejoin:miter;stroke-width:0.75;" x="335.58775" xlink:href="#m33bb393796" y="47.559369"/>
     <use style="fill:#98df8a;stroke:#ffffff;stroke-linejoin:miter;stroke-width:0.75;" x="339.155383" xlink:href="#m33bb393796" y="47.419267"/>
     <use style="fill:#98df8a;stroke:#ffffff;stroke-linejoin:miter;stroke-width:0.75;" x="342.723015" xlink:href="#m33bb393796" y="47.851756"/>
     <use style="fill:#98df8a;stroke:#ffffff;stroke-linejoin:miter;stroke-width:0.75;" x="346.290647" xlink:href="#m33bb393796" y="47.248707"/>
     <use style="fill:#98df8a;stroke:#ffffff;stroke-linejoin:miter;stroke-width:0.75;" x="349.85828" xlink:href="#m33bb393796" y="47.056828"/>
     <use style="fill:#98df8a;stroke:#ffffff;stroke-linejoin:miter;stroke-width:0.75;" x="353.425912" xlink:href="#m33bb393796" y="48.092366"/>
     <use style="fill:#98df8a;stroke:#ffffff;stroke-linejoin:miter;stroke-width:0.75;" x="356.993545" xlink:href="#m33bb393796" y="46.237535"/>
     <use style="fill:#98df8a;stroke:#ffffff;stroke-linejoin:miter;stroke-width:0.75;" x="360.561177" xlink:href="#m33bb393796" y="47.236525"/>
     <use style="fill:#98df8a;stroke:#ffffff;stroke-linejoin:miter;stroke-width:0.75;" x="364.128809" xlink:href="#m33bb393796" y="46.109615"/>
     <use style="fill:#98df8a;stroke:#ffffff;stroke-linejoin:miter;stroke-width:0.75;" x="367.696442" xlink:href="#m33bb393796" y="46.639567"/>
     <use style="fill:#98df8a;stroke:#ffffff;stroke-linejoin:miter;stroke-width:0.75;" x="371.264074" xlink:href="#m33bb393796" y="46.103524"/>
     <use style="fill:#98df8a;stroke:#ffffff;stroke-linejoin:miter;stroke-width:0.75;" x="374.831706" xlink:href="#m33bb393796" y="46.633476"/>
     <use style="fill:#98df8a;stroke:#ffffff;stroke-linejoin:miter;stroke-width:0.75;" x="378.399339" xlink:href="#m33bb393796" y="46.554288"/>
     <use style="fill:#98df8a;stroke:#ffffff;stroke-linejoin:miter;stroke-width:0.75;" x="381.966971" xlink:href="#m33bb393796" y="47.145154"/>
     <use style="fill:#98df8a;stroke:#ffffff;stroke-linejoin:miter;stroke-width:0.75;" x="385.534604" xlink:href="#m33bb393796" y="45.6954"/>
     <use style="fill:#98df8a;stroke:#ffffff;stroke-linejoin:miter;stroke-width:0.75;" x="389.102236" xlink:href="#m33bb393796" y="45.628395"/>
     <use style="fill:#98df8a;stroke:#ffffff;stroke-linejoin:miter;stroke-width:0.75;" x="392.669868" xlink:href="#m33bb393796" y="46.804035"/>
     <use style="fill:#98df8a;stroke:#ffffff;stroke-linejoin:miter;stroke-width:0.75;" x="396.237501" xlink:href="#m33bb393796" y="46.057838"/>
     <use style="fill:#98df8a;stroke:#ffffff;stroke-linejoin:miter;stroke-width:0.75;" x="399.805133" xlink:href="#m33bb393796" y="46.38982"/>
     <use style="fill:#98df8a;stroke:#ffffff;stroke-linejoin:miter;stroke-width:0.75;" x="403.372765" xlink:href="#m33bb393796" y="46.383728"/>
     <use style="fill:#98df8a;stroke:#ffffff;stroke-linejoin:miter;stroke-width:0.75;" x="406.940398" xlink:href="#m33bb393796" y="45.878142"/>
    </g>
   </g>
   <g id="line2d_17">
    <path clip-path="url(#p089f7f98f3)" d="M 82.285852 274.591984 
L 85.853485 250.031454 
L 89.421117 211.351057 
L 92.988749 188.215915 
L 96.556382 173.730563 
L 100.124014 160.694964 
L 103.691646 145.466461 
L 107.259279 133.015637 
L 110.826911 123.412543 
L 114.394544 118.390182 
L 117.962176 111.960708 
L 121.529808 107.434797 
L 125.097441 104.197218 
L 128.665073 102.436803 
L 132.232705 99.461153 
L 135.800338 98.072314 
L 139.36797 96.832713 
L 142.935603 93.756556 
L 146.503235 93.966709 
L 150.070867 91.179893 
L 153.6385 91.484463 
L 157.206132 88.633687 
L 160.773764 88.237746 
L 164.341397 92.836754 
L 167.909029 88.237746 
L 171.476661 90.384965 
L 175.044294 92.483453 
L 178.611926 92.379899 
L 182.179559 89.392067 
L 185.747191 86.854998 
L 189.314823 85.953471 
L 192.882456 88.374803 
L 196.450088 85.795094 
L 200.01772 85.624535 
L 203.585353 83.008278 
L 207.152985 77.992009 
L 210.720618 80.053949 
L 214.28825 78.314854 
L 217.855882 78.260031 
L 221.423515 77.851907 
L 224.991147 79.380849 
L 228.558779 79.204198 
L 232.126412 80.906745 
L 235.694044 78.692521 
L 239.261676 78.333128 
L 242.829309 81.013344 
L 246.396941 77.918913 
L 249.964574 77.827542 
L 253.532206 80.455981 
L 257.099838 83.151426 
L 260.667471 77.535154 
L 264.235103 75.927024 
L 267.802735 77.401144 
L 271.370368 79.249884 
L 274.938 75.890476 
L 278.505632 75.683368 
L 282.073265 75.567632 
L 285.640897 75.220422 
L 289.20853 78.208254 
L 292.776162 76.079309 
L 296.343794 75.68946 
L 299.911427 77.58084 
L 303.479059 71.711775 
L 307.046691 73.770668 
L 310.614324 77.25495 
L 314.181956 80.727049 
L 317.749589 73.362544 
L 321.317221 73.155437 
L 324.884853 73.137163 
L 328.452486 67.402108 
L 332.020118 72.814318 
L 335.58775 70.618368 
L 339.155383 72.601119 
L 342.723015 72.528023 
L 346.290647 72.43056 
L 349.85828 68.0813 
L 353.425912 72.327006 
L 356.993545 72.235635 
L 360.561177 69.95136 
L 364.128809 72.022436 
L 367.696442 72.016345 
L 371.264074 72.016345 
L 374.831706 69.479276 
L 378.399339 69.445773 
L 381.966971 69.259986 
L 385.534604 69.125975 
L 389.102236 71.937157 
L 392.669868 68.793994 
L 396.237501 68.763537 
L 399.805133 68.73308 
L 403.372765 68.614297 
L 406.940398 68.452875 
" style="fill:none;stroke:#1f77b4;stroke-linecap:square;stroke-width:1.5;"/>
    <defs>
     <path d="M 0 3 
C 0.795609 3 1.55874 2.683901 2.12132 2.12132 
C 2.683901 1.55874 3 0.795609 3 0 
C 3 -0.795609 2.683901 -1.55874 2.12132 -2.12132 
C 1.55874 -2.683901 0.795609 -3 0 -3 
C -0.795609 -3 -1.55874 -2.683901 -2.12132 -2.12132 
C -2.683901 -1.55874 -3 -0.795609 -3 0 
C -3 0.795609 -2.683901 1.55874 -2.12132 2.12132 
C -1.55874 2.683901 -0.795609 3 0 3 
z
" id="m060f39ce55" style="stroke:#ffffff;stroke-width:0.75;"/>
    </defs>
    <g clip-path="url(#p089f7f98f3)">
     <use style="fill:#1f77b4;stroke:#ffffff;stroke-width:0.75;" x="82.285852" xlink:href="#m060f39ce55" y="274.591984"/>
     <use style="fill:#1f77b4;stroke:#ffffff;stroke-width:0.75;" x="85.853485" xlink:href="#m060f39ce55" y="250.031454"/>
     <use style="fill:#1f77b4;stroke:#ffffff;stroke-width:0.75;" x="89.421117" xlink:href="#m060f39ce55" y="211.351057"/>
     <use style="fill:#1f77b4;stroke:#ffffff;stroke-width:0.75;" x="92.988749" xlink:href="#m060f39ce55" y="188.215915"/>
     <use style="fill:#1f77b4;stroke:#ffffff;stroke-width:0.75;" x="96.556382" xlink:href="#m060f39ce55" y="173.730563"/>
     <use style="fill:#1f77b4;stroke:#ffffff;stroke-width:0.75;" x="100.124014" xlink:href="#m060f39ce55" y="160.694964"/>
     <use style="fill:#1f77b4;stroke:#ffffff;stroke-width:0.75;" x="103.691646" xlink:href="#m060f39ce55" y="145.466461"/>
     <use style="fill:#1f77b4;stroke:#ffffff;stroke-width:0.75;" x="107.259279" xlink:href="#m060f39ce55" y="133.015637"/>
     <use style="fill:#1f77b4;stroke:#ffffff;stroke-width:0.75;" x="110.826911" xlink:href="#m060f39ce55" y="123.412543"/>
     <use style="fill:#1f77b4;stroke:#ffffff;stroke-width:0.75;" x="114.394544" xlink:href="#m060f39ce55" y="118.390182"/>
     <use style="fill:#1f77b4;stroke:#ffffff;stroke-width:0.75;" x="117.962176" xlink:href="#m060f39ce55" y="111.960708"/>
     <use style="fill:#1f77b4;stroke:#ffffff;stroke-width:0.75;" x="121.529808" xlink:href="#m060f39ce55" y="107.434797"/>
     <use style="fill:#1f77b4;stroke:#ffffff;stroke-width:0.75;" x="125.097441" xlink:href="#m060f39ce55" y="104.197218"/>
     <use style="fill:#1f77b4;stroke:#ffffff;stroke-width:0.75;" x="128.665073" xlink:href="#m060f39ce55" y="102.436803"/>
     <use style="fill:#1f77b4;stroke:#ffffff;stroke-width:0.75;" x="132.232705" xlink:href="#m060f39ce55" y="99.461153"/>
     <use style="fill:#1f77b4;stroke:#ffffff;stroke-width:0.75;" x="135.800338" xlink:href="#m060f39ce55" y="98.072314"/>
     <use style="fill:#1f77b4;stroke:#ffffff;stroke-width:0.75;" x="139.36797" xlink:href="#m060f39ce55" y="96.832713"/>
     <use style="fill:#1f77b4;stroke:#ffffff;stroke-width:0.75;" x="142.935603" xlink:href="#m060f39ce55" y="93.756556"/>
     <use style="fill:#1f77b4;stroke:#ffffff;stroke-width:0.75;" x="146.503235" xlink:href="#m060f39ce55" y="93.966709"/>
     <use style="fill:#1f77b4;stroke:#ffffff;stroke-width:0.75;" x="150.070867" xlink:href="#m060f39ce55" y="91.179893"/>
     <use style="fill:#1f77b4;stroke:#ffffff;stroke-width:0.75;" x="153.6385" xlink:href="#m060f39ce55" y="91.484463"/>
     <use style="fill:#1f77b4;stroke:#ffffff;stroke-width:0.75;" x="157.206132" xlink:href="#m060f39ce55" y="88.633687"/>
     <use style="fill:#1f77b4;stroke:#ffffff;stroke-width:0.75;" x="160.773764" xlink:href="#m060f39ce55" y="88.237746"/>
     <use style="fill:#1f77b4;stroke:#ffffff;stroke-width:0.75;" x="164.341397" xlink:href="#m060f39ce55" y="92.836754"/>
     <use style="fill:#1f77b4;stroke:#ffffff;stroke-width:0.75;" x="167.909029" xlink:href="#m060f39ce55" y="88.237746"/>
     <use style="fill:#1f77b4;stroke:#ffffff;stroke-width:0.75;" x="171.476661" xlink:href="#m060f39ce55" y="90.384965"/>
     <use style="fill:#1f77b4;stroke:#ffffff;stroke-width:0.75;" x="175.044294" xlink:href="#m060f39ce55" y="92.483453"/>
     <use style="fill:#1f77b4;stroke:#ffffff;stroke-width:0.75;" x="178.611926" xlink:href="#m060f39ce55" y="92.379899"/>
     <use style="fill:#1f77b4;stroke:#ffffff;stroke-width:0.75;" x="182.179559" xlink:href="#m060f39ce55" y="89.392067"/>
     <use style="fill:#1f77b4;stroke:#ffffff;stroke-width:0.75;" x="185.747191" xlink:href="#m060f39ce55" y="86.854998"/>
     <use style="fill:#1f77b4;stroke:#ffffff;stroke-width:0.75;" x="189.314823" xlink:href="#m060f39ce55" y="85.953471"/>
     <use style="fill:#1f77b4;stroke:#ffffff;stroke-width:0.75;" x="192.882456" xlink:href="#m060f39ce55" y="88.374803"/>
     <use style="fill:#1f77b4;stroke:#ffffff;stroke-width:0.75;" x="196.450088" xlink:href="#m060f39ce55" y="85.795094"/>
     <use style="fill:#1f77b4;stroke:#ffffff;stroke-width:0.75;" x="200.01772" xlink:href="#m060f39ce55" y="85.624535"/>
     <use style="fill:#1f77b4;stroke:#ffffff;stroke-width:0.75;" x="203.585353" xlink:href="#m060f39ce55" y="83.008278"/>
     <use style="fill:#1f77b4;stroke:#ffffff;stroke-width:0.75;" x="207.152985" xlink:href="#m060f39ce55" y="77.992009"/>
     <use style="fill:#1f77b4;stroke:#ffffff;stroke-width:0.75;" x="210.720618" xlink:href="#m060f39ce55" y="80.053949"/>
     <use style="fill:#1f77b4;stroke:#ffffff;stroke-width:0.75;" x="214.28825" xlink:href="#m060f39ce55" y="78.314854"/>
     <use style="fill:#1f77b4;stroke:#ffffff;stroke-width:0.75;" x="217.855882" xlink:href="#m060f39ce55" y="78.260031"/>
     <use style="fill:#1f77b4;stroke:#ffffff;stroke-width:0.75;" x="221.423515" xlink:href="#m060f39ce55" y="77.851907"/>
     <use style="fill:#1f77b4;stroke:#ffffff;stroke-width:0.75;" x="224.991147" xlink:href="#m060f39ce55" y="79.380849"/>
     <use style="fill:#1f77b4;stroke:#ffffff;stroke-width:0.75;" x="228.558779" xlink:href="#m060f39ce55" y="79.204198"/>
     <use style="fill:#1f77b4;stroke:#ffffff;stroke-width:0.75;" x="232.126412" xlink:href="#m060f39ce55" y="80.906745"/>
     <use style="fill:#1f77b4;stroke:#ffffff;stroke-width:0.75;" x="235.694044" xlink:href="#m060f39ce55" y="78.692521"/>
     <use style="fill:#1f77b4;stroke:#ffffff;stroke-width:0.75;" x="239.261676" xlink:href="#m060f39ce55" y="78.333128"/>
     <use style="fill:#1f77b4;stroke:#ffffff;stroke-width:0.75;" x="242.829309" xlink:href="#m060f39ce55" y="81.013344"/>
     <use style="fill:#1f77b4;stroke:#ffffff;stroke-width:0.75;" x="246.396941" xlink:href="#m060f39ce55" y="77.918913"/>
     <use style="fill:#1f77b4;stroke:#ffffff;stroke-width:0.75;" x="249.964574" xlink:href="#m060f39ce55" y="77.827542"/>
     <use style="fill:#1f77b4;stroke:#ffffff;stroke-width:0.75;" x="253.532206" xlink:href="#m060f39ce55" y="80.455981"/>
     <use style="fill:#1f77b4;stroke:#ffffff;stroke-width:0.75;" x="257.099838" xlink:href="#m060f39ce55" y="83.151426"/>
     <use style="fill:#1f77b4;stroke:#ffffff;stroke-width:0.75;" x="260.667471" xlink:href="#m060f39ce55" y="77.535154"/>
     <use style="fill:#1f77b4;stroke:#ffffff;stroke-width:0.75;" x="264.235103" xlink:href="#m060f39ce55" y="75.927024"/>
     <use style="fill:#1f77b4;stroke:#ffffff;stroke-width:0.75;" x="267.802735" xlink:href="#m060f39ce55" y="77.401144"/>
     <use style="fill:#1f77b4;stroke:#ffffff;stroke-width:0.75;" x="271.370368" xlink:href="#m060f39ce55" y="79.249884"/>
     <use style="fill:#1f77b4;stroke:#ffffff;stroke-width:0.75;" x="274.938" xlink:href="#m060f39ce55" y="75.890476"/>
     <use style="fill:#1f77b4;stroke:#ffffff;stroke-width:0.75;" x="278.505632" xlink:href="#m060f39ce55" y="75.683368"/>
     <use style="fill:#1f77b4;stroke:#ffffff;stroke-width:0.75;" x="282.073265" xlink:href="#m060f39ce55" y="75.567632"/>
     <use style="fill:#1f77b4;stroke:#ffffff;stroke-width:0.75;" x="285.640897" xlink:href="#m060f39ce55" y="75.220422"/>
     <use style="fill:#1f77b4;stroke:#ffffff;stroke-width:0.75;" x="289.20853" xlink:href="#m060f39ce55" y="78.208254"/>
     <use style="fill:#1f77b4;stroke:#ffffff;stroke-width:0.75;" x="292.776162" xlink:href="#m060f39ce55" y="76.079309"/>
     <use style="fill:#1f77b4;stroke:#ffffff;stroke-width:0.75;" x="296.343794" xlink:href="#m060f39ce55" y="75.68946"/>
     <use style="fill:#1f77b4;stroke:#ffffff;stroke-width:0.75;" x="299.911427" xlink:href="#m060f39ce55" y="77.58084"/>
     <use style="fill:#1f77b4;stroke:#ffffff;stroke-width:0.75;" x="303.479059" xlink:href="#m060f39ce55" y="71.711775"/>
     <use style="fill:#1f77b4;stroke:#ffffff;stroke-width:0.75;" x="307.046691" xlink:href="#m060f39ce55" y="73.770668"/>
     <use style="fill:#1f77b4;stroke:#ffffff;stroke-width:0.75;" x="310.614324" xlink:href="#m060f39ce55" y="77.25495"/>
     <use style="fill:#1f77b4;stroke:#ffffff;stroke-width:0.75;" x="314.181956" xlink:href="#m060f39ce55" y="80.727049"/>
     <use style="fill:#1f77b4;stroke:#ffffff;stroke-width:0.75;" x="317.749589" xlink:href="#m060f39ce55" y="73.362544"/>
     <use style="fill:#1f77b4;stroke:#ffffff;stroke-width:0.75;" x="321.317221" xlink:href="#m060f39ce55" y="73.155437"/>
     <use style="fill:#1f77b4;stroke:#ffffff;stroke-width:0.75;" x="324.884853" xlink:href="#m060f39ce55" y="73.137163"/>
     <use style="fill:#1f77b4;stroke:#ffffff;stroke-width:0.75;" x="328.452486" xlink:href="#m060f39ce55" y="67.402108"/>
     <use style="fill:#1f77b4;stroke:#ffffff;stroke-width:0.75;" x="332.020118" xlink:href="#m060f39ce55" y="72.814318"/>
     <use style="fill:#1f77b4;stroke:#ffffff;stroke-width:0.75;" x="335.58775" xlink:href="#m060f39ce55" y="70.618368"/>
     <use style="fill:#1f77b4;stroke:#ffffff;stroke-width:0.75;" x="339.155383" xlink:href="#m060f39ce55" y="72.601119"/>
     <use style="fill:#1f77b4;stroke:#ffffff;stroke-width:0.75;" x="342.723015" xlink:href="#m060f39ce55" y="72.528023"/>
     <use style="fill:#1f77b4;stroke:#ffffff;stroke-width:0.75;" x="346.290647" xlink:href="#m060f39ce55" y="72.43056"/>
     <use style="fill:#1f77b4;stroke:#ffffff;stroke-width:0.75;" x="349.85828" xlink:href="#m060f39ce55" y="68.0813"/>
     <use style="fill:#1f77b4;stroke:#ffffff;stroke-width:0.75;" x="353.425912" xlink:href="#m060f39ce55" y="72.327006"/>
     <use style="fill:#1f77b4;stroke:#ffffff;stroke-width:0.75;" x="356.993545" xlink:href="#m060f39ce55" y="72.235635"/>
     <use style="fill:#1f77b4;stroke:#ffffff;stroke-width:0.75;" x="360.561177" xlink:href="#m060f39ce55" y="69.95136"/>
     <use style="fill:#1f77b4;stroke:#ffffff;stroke-width:0.75;" x="364.128809" xlink:href="#m060f39ce55" y="72.022436"/>
     <use style="fill:#1f77b4;stroke:#ffffff;stroke-width:0.75;" x="367.696442" xlink:href="#m060f39ce55" y="72.016345"/>
     <use style="fill:#1f77b4;stroke:#ffffff;stroke-width:0.75;" x="371.264074" xlink:href="#m060f39ce55" y="72.016345"/>
     <use style="fill:#1f77b4;stroke:#ffffff;stroke-width:0.75;" x="374.831706" xlink:href="#m060f39ce55" y="69.479276"/>
     <use style="fill:#1f77b4;stroke:#ffffff;stroke-width:0.75;" x="378.399339" xlink:href="#m060f39ce55" y="69.445773"/>
     <use style="fill:#1f77b4;stroke:#ffffff;stroke-width:0.75;" x="381.966971" xlink:href="#m060f39ce55" y="69.259986"/>
     <use style="fill:#1f77b4;stroke:#ffffff;stroke-width:0.75;" x="385.534604" xlink:href="#m060f39ce55" y="69.125975"/>
     <use style="fill:#1f77b4;stroke:#ffffff;stroke-width:0.75;" x="389.102236" xlink:href="#m060f39ce55" y="71.937157"/>
     <use style="fill:#1f77b4;stroke:#ffffff;stroke-width:0.75;" x="392.669868" xlink:href="#m060f39ce55" y="68.793994"/>
     <use style="fill:#1f77b4;stroke:#ffffff;stroke-width:0.75;" x="396.237501" xlink:href="#m060f39ce55" y="68.763537"/>
     <use style="fill:#1f77b4;stroke:#ffffff;stroke-width:0.75;" x="399.805133" xlink:href="#m060f39ce55" y="68.73308"/>
     <use style="fill:#1f77b4;stroke:#ffffff;stroke-width:0.75;" x="403.372765" xlink:href="#m060f39ce55" y="68.614297"/>
     <use style="fill:#1f77b4;stroke:#ffffff;stroke-width:0.75;" x="406.940398" xlink:href="#m060f39ce55" y="68.452875"/>
    </g>
   </g>
   <g id="line2d_18"/>
   <g id="line2d_19"/>
   <g id="patch_3">
    <path d="M 66.053125 274.390968 
L 66.053125 30.734919 
" style="fill:none;stroke:#000000;stroke-linecap:square;stroke-linejoin:miter;stroke-width:0.8;"/>
   </g>
   <g id="patch_4">
    <path d="M 82.285852 288.430125 
L 355.804334 288.430125 
" style="fill:none;stroke:#000000;stroke-linecap:square;stroke-linejoin:miter;stroke-width:0.8;"/>
   </g>
   <g id="text_18">
    <!-- php_php-fuzz-execute (23h, 14 trials/fuzzer) -->
    <g transform="translate(111.712188 16.318125)scale(0.12 -0.12)">
     <defs>
      <path d="M 1159 525 
L 1159 -1331 
L 581 -1331 
L 581 3500 
L 1159 3500 
L 1159 2969 
Q 1341 3281 1617 3432 
Q 1894 3584 2278 3584 
Q 2916 3584 3314 3078 
Q 3713 2572 3713 1747 
Q 3713 922 3314 415 
Q 2916 -91 2278 -91 
Q 1894 -91 1617 61 
Q 1341 213 1159 525 
z
M 3116 1747 
Q 3116 2381 2855 2742 
Q 2594 3103 2138 3103 
Q 1681 3103 1420 2742 
Q 1159 2381 1159 1747 
Q 1159 1113 1420 752 
Q 1681 391 2138 391 
Q 2594 391 2855 752 
Q 3116 1113 3116 1747 
z
" id="DejaVuSans-70" transform="scale(0.015625)"/>
      <path d="M 3263 -1063 
L 3263 -1509 
L -63 -1509 
L -63 -1063 
L 3263 -1063 
z
" id="DejaVuSans-5f" transform="scale(0.015625)"/>
      <path d="M 313 2009 
L 1997 2009 
L 1997 1497 
L 313 1497 
L 313 2009 
z
" id="DejaVuSans-2d" transform="scale(0.015625)"/>
      <path d="M 2375 4863 
L 2375 4384 
L 1825 4384 
Q 1516 4384 1395 4259 
Q 1275 4134 1275 3809 
L 1275 3500 
L 2222 3500 
L 2222 3053 
L 1275 3053 
L 1275 0 
L 697 0 
L 697 3053 
L 147 3053 
L 147 3500 
L 697 3500 
L 697 3744 
Q 697 4328 969 4595 
Q 1241 4863 1831 4863 
L 2375 4863 
z
" id="DejaVuSans-66" transform="scale(0.015625)"/>
      <path d="M 353 3500 
L 3084 3500 
L 3084 2975 
L 922 459 
L 3084 459 
L 3084 0 
L 275 0 
L 275 525 
L 2438 3041 
L 353 3041 
L 353 3500 
z
" id="DejaVuSans-7a" transform="scale(0.015625)"/>
      <path d="M 3513 3500 
L 2247 1797 
L 3578 0 
L 2900 0 
L 1881 1375 
L 863 0 
L 184 0 
L 1544 1831 
L 300 3500 
L 978 3500 
L 1906 2253 
L 2834 3500 
L 3513 3500 
z
" id="DejaVuSans-78" transform="scale(0.015625)"/>
      <path d="M 750 794 
L 1409 794 
L 1409 256 
L 897 -744 
L 494 -744 
L 750 256 
L 750 794 
z
" id="DejaVuSans-2c" transform="scale(0.015625)"/>
      <path d="M 603 4863 
L 1178 4863 
L 1178 0 
L 603 0 
L 603 4863 
z
" id="DejaVuSans-6c" transform="scale(0.015625)"/>
      <path d="M 2834 3397 
L 2834 2853 
Q 2591 2978 2328 3040 
Q 2066 3103 1784 3103 
Q 1356 3103 1142 2972 
Q 928 2841 928 2578 
Q 928 2378 1081 2264 
Q 1234 2150 1697 2047 
L 1894 2003 
Q 2506 1872 2764 1633 
Q 3022 1394 3022 966 
Q 3022 478 2636 193 
Q 2250 -91 1575 -91 
Q 1294 -91 989 -36 
Q 684 19 347 128 
L 347 722 
Q 666 556 975 473 
Q 1284 391 1588 391 
Q 1994 391 2212 530 
Q 2431 669 2431 922 
Q 2431 1156 2273 1281 
Q 2116 1406 1581 1522 
L 1381 1569 
Q 847 1681 609 1914 
Q 372 2147 372 2553 
Q 372 3047 722 3315 
Q 1072 3584 1716 3584 
Q 2034 3584 2315 3537 
Q 2597 3491 2834 3397 
z
" id="DejaVuSans-73" transform="scale(0.015625)"/>
      <path d="M 1625 4666 
L 2156 4666 
L 531 -594 
L 0 -594 
L 1625 4666 
z
" id="DejaVuSans-2f" transform="scale(0.015625)"/>
     </defs>
     <use xlink:href="#DejaVuSans-70"/>
     <use x="63.476562" xlink:href="#DejaVuSans-68"/>
     <use x="126.855469" xlink:href="#DejaVuSans-70"/>
     <use x="190.332031" xlink:href="#DejaVuSans-5f"/>
     <use x="240.332031" xlink:href="#DejaVuSans-70"/>
     <use x="303.808594" xlink:href="#DejaVuSans-68"/>
     <use x="367.1875" xlink:href="#DejaVuSans-70"/>
     <use x="430.664062" xlink:href="#DejaVuSans-2d"/>
     <use x="466.748047" xlink:href="#DejaVuSans-66"/>
     <use x="501.953125" xlink:href="#DejaVuSans-75"/>
     <use x="565.332031" xlink:href="#DejaVuSans-7a"/>
     <use x="617.822266" xlink:href="#DejaVuSans-7a"/>
     <use x="670.3125" xlink:href="#DejaVuSans-2d"/>
     <use x="706.396484" xlink:href="#DejaVuSans-65"/>
     <use x="766.169922" xlink:href="#DejaVuSans-78"/>
     <use x="822.224609" xlink:href="#DejaVuSans-65"/>
     <use x="883.748047" xlink:href="#DejaVuSans-63"/>
     <use x="938.728516" xlink:href="#DejaVuSans-75"/>
     <use x="1002.107422" xlink:href="#DejaVuSans-74"/>
     <use x="1041.316406" xlink:href="#DejaVuSans-65"/>
     <use x="1102.839844" xlink:href="#DejaVuSans-20"/>
     <use x="1134.626953" xlink:href="#DejaVuSans-28"/>
     <use x="1173.640625" xlink:href="#DejaVuSans-32"/>
     <use x="1237.263672" xlink:href="#DejaVuSans-33"/>
     <use x="1300.886719" xlink:href="#DejaVuSans-68"/>
     <use x="1364.265625" xlink:href="#DejaVuSans-2c"/>
     <use x="1396.052734" xlink:href="#DejaVuSans-20"/>
     <use x="1427.839844" xlink:href="#DejaVuSans-31"/>
     <use x="1491.462891" xlink:href="#DejaVuSans-34"/>
     <use x="1555.085938" xlink:href="#DejaVuSans-20"/>
     <use x="1586.873047" xlink:href="#DejaVuSans-74"/>
     <use x="1626.082031" xlink:href="#DejaVuSans-72"/>
     <use x="1667.195312" xlink:href="#DejaVuSans-69"/>
     <use x="1694.978516" xlink:href="#DejaVuSans-61"/>
     <use x="1756.257812" xlink:href="#DejaVuSans-6c"/>
     <use x="1784.041016" xlink:href="#DejaVuSans-73"/>
     <use x="1836.140625" xlink:href="#DejaVuSans-2f"/>
     <use x="1869.832031" xlink:href="#DejaVuSans-66"/>
     <use x="1905.037109" xlink:href="#DejaVuSans-75"/>
     <use x="1968.416016" xlink:href="#DejaVuSans-7a"/>
     <use x="2020.90625" xlink:href="#DejaVuSans-7a"/>
     <use x="2073.396484" xlink:href="#DejaVuSans-65"/>
     <use x="2134.919922" xlink:href="#DejaVuSans-72"/>
     <use x="2176.033203" xlink:href="#DejaVuSans-29"/>
    </g>
   </g>
   <g id="legend_1">
    <g id="line2d_20">
     <path d="M 427.173125 30.416562 
L 447.173125 30.416562 
" style="fill:none;stroke:#98df8a;stroke-linecap:square;stroke-width:1.5;"/>
    </g>
    <g id="line2d_21">
     <defs>
      <path d="M -0 3 
L 3 -3 
L -3 -3 
z
" id="m4c358cca23" style="stroke:#98df8a;stroke-linejoin:miter;"/>
     </defs>
     <g>
      <use style="fill:#98df8a;stroke:#98df8a;stroke-linejoin:miter;" x="437.173125" xlink:href="#m4c358cca23" y="30.416562"/>
     </g>
    </g>
    <g id="text_19">
     <!-- afl_collision_free -->
     <g transform="translate(455.173125 33.916562)scale(0.1 -0.1)">
      <use xlink:href="#DejaVuSans-61"/>
      <use x="61.279297" xlink:href="#DejaVuSans-66"/>
      <use x="96.484375" xlink:href="#DejaVuSans-6c"/>
      <use x="124.267578" xlink:href="#DejaVuSans-5f"/>
      <use x="174.267578" xlink:href="#DejaVuSans-63"/>
      <use x="229.248047" xlink:href="#DejaVuSans-6f"/>
      <use x="290.429688" xlink:href="#DejaVuSans-6c"/>
      <use x="318.212891" xlink:href="#DejaVuSans-6c"/>
      <use x="345.996094" xlink:href="#DejaVuSans-69"/>
      <use x="373.779297" xlink:href="#DejaVuSans-73"/>
      <use x="425.878906" xlink:href="#DejaVuSans-69"/>
      <use x="453.662109" xlink:href="#DejaVuSans-6f"/>
      <use x="514.84375" xlink:href="#DejaVuSans-6e"/>
      <use x="578.222656" xlink:href="#DejaVuSans-5f"/>
      <use x="628.222656" xlink:href="#DejaVuSans-66"/>
      <use x="663.427734" xlink:href="#DejaVuSans-72"/>
      <use x="702.291016" xlink:href="#DejaVuSans-65"/>
      <use x="763.814453" xlink:href="#DejaVuSans-65"/>
     </g>
    </g>
    <g id="line2d_22">
     <path d="M 427.173125 45.372813 
L 447.173125 45.372813 
" style="fill:none;stroke:#1f77b4;stroke-linecap:square;stroke-width:1.5;"/>
    </g>
    <g id="line2d_23">
     <defs>
      <path d="M 0 3 
C 0.795609 3 1.55874 2.683901 2.12132 2.12132 
C 2.683901 1.55874 3 0.795609 3 0 
C 3 -0.795609 2.683901 -1.55874 2.12132 -2.12132 
C 1.55874 -2.683901 0.795609 -3 0 -3 
C -0.795609 -3 -1.55874 -2.683901 -2.12132 -2.12132 
C -2.683901 -1.55874 -3 -0.795609 -3 0 
C -3 0.795609 -2.683901 1.55874 -2.12132 2.12132 
C -1.55874 2.683901 -0.795609 3 0 3 
z
" id="m41ac88fb05" style="stroke:#1f77b4;"/>
     </defs>
     <g>
      <use style="fill:#1f77b4;stroke:#1f77b4;" x="437.173125" xlink:href="#m41ac88fb05" y="45.372813"/>
     </g>
    </g>
    <g id="text_20">
     <!-- afl -->
     <g transform="translate(455.173125 48.872813)scale(0.1 -0.1)">
      <use xlink:href="#DejaVuSans-61"/>
      <use x="61.279297" xlink:href="#DejaVuSans-66"/>
      <use x="96.484375" xlink:href="#DejaVuSans-6c"/>
     </g>
    </g>
   </g>
  </g>
 </g>
 <defs>
  <clipPath id="p089f7f98f3">
   <rect height="266.112" width="357.12" x="66.053125" y="22.318125"/>
  </clipPath>
 </defs>
</svg>
