<?xml version="1.0" encoding="utf-8" standalone="no"?>
<!DOCTYPE svg PUBLIC "-//W3C//DTD SVG 1.1//EN"
  "http://www.w3.org/Graphics/SVG/1.1/DTD/svg11.dtd">
<svg height="325.986375pt" version="1.1" viewBox="0 0 536.1825 325.986375" width="536.1825pt" xmlns="http://www.w3.org/2000/svg" xmlns:xlink="http://www.w3.org/1999/xlink">
 <metadata>
  <rdf:RDF xmlns:cc="http://creativecommons.org/ns#" xmlns:dc="http://purl.org/dc/elements/1.1/" xmlns:rdf="http://www.w3.org/1999/02/22-rdf-syntax-ns#">
   <cc:Work>
    <dc:type rdf:resource="http://purl.org/dc/dcmitype/StillImage"/>
    <dc:date>2022-06-03T14:59:30.577594</dc:date>
    <dc:format>image/svg+xml</dc:format>
    <dc:creator>
     <cc:Agent>
      <dc:title>Matplotlib v3.4.3, https://matplotlib.org/</dc:title>
     </cc:Agent>
    </dc:creator>
   </cc:Work>
  </rdf:RDF>
 </metadata>
 <defs>
  <style type="text/css">*{stroke-linecap:butt;stroke-linejoin:round;}</style>
 </defs>
 <g id="figure_1">
  <g id="patch_1">
   <path d="M 0 325.986375 
L 536.1825 325.986375 
L 536.1825 0 
L 0 0 
z
" style="fill:#ffffff;"/>
  </g>
  <g id="axes_1">
   <g id="patch_2">
    <path d="M 53.328125 288.430125 
L 410.448125 288.430125 
L 410.448125 22.318125 
L 53.328125 22.318125 
z
" style="fill:#ffffff;"/>
   </g>
   <g id="PolyCollection_1">
    <defs>
     <path d="M 69.560852 -162.133745 
L 69.560852 -131.611129 
L 119.327306 -139.665708 
L 148.438816 -147.155054 
L 169.09376 -150.970381 
L 185.11498 -153.796549 
L 198.205269 -167.503465 
L 209.272952 -167.503465 
L 218.860214 -166.655614 
L 227.316779 -166.514306 
L 234.881434 -167.503465 
L 241.724496 -168.633932 
L 247.971723 -169.7644 
L 253.718615 -169.7644 
L 259.039406 -169.481783 
L 263.992943 -170.329633 
L 268.626668 -171.4601 
L 272.979383 -171.4601 
L 277.083233 -172.307951 
L 280.965141 -172.449259 
L 284.647888 -172.449259 
L 288.150915 -172.728343 
L 291.49095 -174.14496 
L 294.68249 -174.568886 
L 297.738177 -174.568886 
L 300.669107 -173.014493 
L 303.485069 -173.014493 
L 306.194742 -173.155801 
L 308.805859 -175.416736 
L 311.32534 -175.416736 
L 313.759397 -175.840661 
L 316.113635 -175.840661 
L 318.393122 -176.264586 
L 320.60246 -175.416736 
L 322.745837 -175.416736 
L 324.827079 -175.416736 
L 326.849687 -175.699353 
L 328.816873 -175.416736 
L 330.731595 -175.416736 
L 332.596578 -173.29711 
L 334.414342 -173.29711 
L 336.187217 -175.416736 
L 337.917369 -175.416736 
L 339.606807 -175.416736 
L 341.257404 -174.710194 
L 342.870906 -179.938605 
L 344.448944 -180.503839 
L 345.993042 -177.960287 
L 347.504631 -180.645147 
L 348.985051 -189.547577 
L 350.435561 -199.721783 
L 351.857347 -200.428325 
L 353.251523 -202.689259 
L 354.619142 -225.439914 
L 355.961196 -225.439914 
L 357.278624 -225.439914 
L 358.572313 -225.439914 
L 359.843104 -181.916923 
L 361.091794 -181.069072 
L 362.319136 -181.069072 
L 363.525851 -181.069072 
L 364.712619 -202.830568 
L 365.880089 -228.831315 
L 367.028878 -228.831315 
L 368.159576 -228.831315 
L 369.272743 -228.831315 
L 370.368914 -228.831315 
L 371.4486 -228.831315 
L 372.512291 -230.2444 
L 373.560453 -230.2444 
L 374.593533 -230.2444 
L 375.611959 -230.2444 
L 376.616141 -230.2444 
L 377.606471 -233.353185 
L 378.583327 -233.635801 
L 379.547071 -233.494493 
L 380.498049 -234.483652 
L 381.436596 -235.896736 
L 382.363032 -235.896736 
L 383.277666 -232.505334 
L 384.180795 -233.635801 
L 385.072705 -233.635801 
L 385.953671 -235.896736 
L 386.823958 -235.896736 
L 387.683823 -235.896736 
L 388.533511 -235.896736 
L 389.373261 -235.896736 
L 390.203303 -235.896736 
L 391.023858 -235.896736 
L 391.835142 -235.896736 
L 392.63736 -237.875054 
L 393.430714 -235.896736 
L 394.215398 -235.896736 
L 394.215398 -288.180848 
L 394.215398 -288.180848 
L 393.430714 -288.180848 
L 392.63736 -291.57225 
L 391.835142 -291.57225 
L 391.023858 -291.57225 
L 390.203303 -291.57225 
L 389.373261 -291.57225 
L 388.533511 -291.57225 
L 387.683823 -291.57225 
L 386.823958 -291.57225 
L 385.953671 -291.57225 
L 385.072705 -271.223839 
L 384.180795 -269.245521 
L 383.277666 -278.147951 
L 382.363032 -285.919914 
L 381.436596 -285.919914 
L 380.498049 -285.919914 
L 379.547071 -285.919914 
L 378.583327 -285.919914 
L 377.606471 -285.919914 
L 376.616141 -285.919914 
L 375.611959 -281.115428 
L 374.593533 -241.266456 
L 373.560453 -237.875054 
L 372.512291 -241.266456 
L 371.4486 -241.266456 
L 370.368914 -291.289633 
L 369.272743 -291.289633 
L 368.159576 -291.289633 
L 367.028878 -290.441783 
L 365.880089 -290.441783 
L 364.712619 -264.582343 
L 363.525851 -241.266456 
L 362.319136 -237.875054 
L 361.091794 -241.266456 
L 359.843104 -241.266456 
L 358.572313 -243.244773 
L 357.278624 -266.70197 
L 355.961196 -243.244773 
L 354.619142 -243.244773 
L 353.251523 -260.27597 
L 351.857347 -241.672717 
L 350.435561 -289.028699 
L 348.985051 -265.147577 
L 347.504631 -239.570755 
L 345.993042 -239.570755 
L 344.448944 -241.266456 
L 342.870906 -239.570755 
L 341.257404 -241.266456 
L 339.606807 -246.21225 
L 337.917369 -241.266456 
L 336.187217 -241.266456 
L 334.414342 -238.157671 
L 332.596578 -238.157671 
L 330.731595 -238.157671 
L 328.816873 -237.592437 
L 326.849687 -238.016362 
L 324.827079 -237.30982 
L 322.745837 -235.614119 
L 320.60246 -235.614119 
L 318.393122 -235.614119 
L 316.113635 -233.353185 
L 313.759397 -233.353185 
L 311.32534 -235.048886 
L 308.805859 -234.766269 
L 306.194742 -231.54797 
L 303.485069 -231.516175 
L 300.669107 -230.950942 
L 297.738177 -232.787951 
L 294.68249 -232.787951 
L 291.49095 -225.72253 
L 288.150915 -217.809259 
L 284.647888 -217.667951 
L 280.965141 -225.298605 
L 277.083233 -227.983465 
L 272.979383 -227.983465 
L 268.626668 -211.591689 
L 263.992943 -211.591689 
L 259.039406 -199.156549 
L 253.718615 -198.873932 
L 247.971723 -178.525521 
L 241.724496 -177.395054 
L 234.881434 -175.98197 
L 227.316779 -174.992811 
L 218.860214 -173.438418 
L 209.272952 -171.4601 
L 198.205269 -171.4601 
L 185.11498 -172.873185 
L 169.09376 -170.753558 
L 148.438816 -168.916549 
L 119.327306 -167.362157 
L 69.560852 -162.133745 
z
" id="m074a40f59d" style="stroke:#98df8a;stroke-opacity:0.2;"/>
    </defs>
    <g clip-path="url(#p4622c02767)">
     <use style="fill:#98df8a;fill-opacity:0.2;stroke:#98df8a;stroke-opacity:0.2;" x="0" xlink:href="#m074a40f59d" y="325.986375"/>
    </g>
   </g>
   <g id="PolyCollection_2">
    <defs>
     <path d="M 69.560852 -151.394306 
L 69.560852 -49.65225 
L 119.327306 -133.306829 
L 148.438816 -145.883278 
L 169.09376 -155.068325 
L 185.11498 -157.894493 
L 198.205269 -160.438044 
L 209.272952 -161.851129 
L 218.860214 -161.851129 
L 227.316779 -163.970755 
L 234.881434 -165.666456 
L 241.724496 -166.372998 
L 247.971723 -168.916549 
L 253.718615 -168.916549 
L 259.039406 -167.92739 
L 263.992943 -168.068699 
L 268.626668 -169.199166 
L 272.979383 -170.753558 
L 277.083233 -170.753558 
L 280.965141 -171.177484 
L 284.647888 -171.4601 
L 288.150915 -173.438418 
L 291.49095 -173.014493 
L 294.68249 -172.307951 
L 297.738177 -174.003652 
L 300.669107 -174.568886 
L 303.485069 -175.134119 
L 306.194742 -175.134119 
L 308.805859 -174.710194 
L 311.32534 -174.286269 
L 313.759397 -174.286269 
L 316.113635 -174.286269 
L 318.393122 -174.286269 
L 320.60246 -175.416736 
L 322.745837 -175.699353 
L 324.827079 -175.699353 
L 326.849687 -175.98197 
L 328.816873 -176.264586 
L 330.731595 -175.98197 
L 332.596578 -175.699353 
L 334.414342 -176.264586 
L 336.187217 -176.264586 
L 337.917369 -176.264586 
L 339.606807 -176.264586 
L 341.257404 -177.091241 
L 342.870906 -176.547203 
L 344.448944 -176.82982 
L 345.993042 -177.112437 
L 347.504631 -177.112437 
L 348.985051 -177.112437 
L 350.435561 -177.112437 
L 351.857347 -176.82982 
L 353.251523 -176.82982 
L 354.619142 -177.253745 
L 355.961196 -177.677671 
L 357.278624 -177.677671 
L 358.572313 -177.960287 
L 359.843104 -178.101596 
L 361.091794 -178.101596 
L 362.319136 -177.960287 
L 363.525851 -177.960287 
L 364.712619 -179.373371 
L 365.880089 -178.949446 
L 367.028878 -178.949446 
L 368.159576 -178.949446 
L 369.272743 -178.949446 
L 370.368914 -179.373371 
L 371.4486 -179.373371 
L 372.512291 -179.373371 
L 373.560453 -179.373371 
L 374.593533 -179.373371 
L 375.611959 -180.786456 
L 376.616141 -179.373371 
L 377.606471 -180.079914 
L 378.583327 -180.079914 
L 379.547071 -180.503839 
L 380.498049 -180.079914 
L 381.436596 -180.786456 
L 382.363032 -180.786456 
L 383.277666 -180.786456 
L 384.180795 -180.786456 
L 385.072705 -180.786456 
L 385.953671 -180.786456 
L 386.823958 -180.786456 
L 387.683823 -180.786456 
L 388.533511 -180.503839 
L 389.373261 -180.786456 
L 390.203303 -180.496773 
L 391.023858 -180.503839 
L 391.835142 -180.786456 
L 392.63736 -180.786456 
L 393.430714 -181.634306 
L 394.215398 -181.634306 
L 394.215398 -245.223091 
L 394.215398 -245.223091 
L 393.430714 -245.223091 
L 392.63736 -245.223091 
L 391.835142 -245.223091 
L 391.023858 -244.657857 
L 390.203303 -244.940474 
L 389.373261 -244.657857 
L 388.533511 -244.657857 
L 387.683823 -245.223091 
L 386.823958 -245.223091 
L 385.953671 -245.223091 
L 385.072705 -245.223091 
L 384.180795 -245.223091 
L 383.277666 -245.223091 
L 382.363032 -245.223091 
L 381.436596 -245.223091 
L 380.498049 -244.940474 
L 379.547071 -244.940474 
L 378.583327 -244.940474 
L 377.606471 -244.940474 
L 376.616141 -244.671988 
L 375.611959 -245.223091 
L 374.593533 -245.223091 
L 373.560453 -245.223091 
L 372.512291 -245.223091 
L 371.4486 -243.810007 
L 370.368914 -244.516549 
L 369.272743 -243.810007 
L 368.159576 -243.827671 
L 367.028878 -244.516549 
L 365.880089 -243.810007 
L 364.712619 -245.223091 
L 363.525851 -243.810007 
L 362.319136 -243.810007 
L 361.091794 -239.853371 
L 359.843104 -236.885895 
L 358.572313 -236.603278 
L 357.278624 -238.016362 
L 355.961196 -238.02696 
L 354.619142 -236.885895 
L 353.251523 -236.603278 
L 351.857347 -236.885895 
L 350.435561 -236.885895 
L 348.985051 -236.885895 
L 347.504631 -236.179353 
L 345.993042 -235.614119 
L 344.448944 -234.766269 
L 342.870906 -235.331502 
L 341.257404 -235.331502 
L 339.606807 -235.331502 
L 337.917369 -235.331502 
L 336.187217 -235.331502 
L 334.414342 -235.331502 
L 332.596578 -235.331502 
L 330.731595 -234.483652 
L 328.816873 -228.831315 
L 326.849687 -230.950942 
L 324.827079 -229.113932 
L 322.745837 -228.690007 
L 320.60246 -228.831315 
L 318.393122 -228.831315 
L 316.113635 -228.548699 
L 313.759397 -228.548699 
L 311.32534 -227.983465 
L 308.805859 -222.896362 
L 306.194742 -212.43954 
L 303.485069 -211.874306 
L 300.669107 -207.635054 
L 297.738177 -193.504213 
L 294.68249 -189.830194 
L 291.49095 -181.492998 
L 288.150915 -181.351689 
L 284.647888 -181.210381 
L 280.965141 -179.938605 
L 277.083233 -178.949446 
L 272.979383 -177.960287 
L 268.626668 -178.260568 
L 263.992943 -179.938605 
L 259.039406 -177.960287 
L 253.718615 -177.960287 
L 247.971723 -177.112437 
L 241.724496 -172.731876 
L 234.881434 -173.014493 
L 227.316779 -173.724568 
L 218.860214 -173.721035 
L 209.272952 -173.721035 
L 198.205269 -172.025334 
L 185.11498 -171.4601 
L 169.09376 -170.329633 
L 148.438816 -170.047016 
L 119.327306 -163.122904 
L 69.560852 -151.394306 
z
" id="m5d1b82dcde" style="stroke:#1f77b4;stroke-opacity:0.2;"/>
    </defs>
    <g clip-path="url(#p4622c02767)">
     <use style="fill:#1f77b4;fill-opacity:0.2;stroke:#1f77b4;stroke-opacity:0.2;" x="0" xlink:href="#m5d1b82dcde" y="325.986375"/>
    </g>
   </g>
   <g id="matplotlib.axis_1">
    <g id="xtick_1">
     <g id="line2d_1">
      <defs>
       <path d="M 0 0 
L 0 3.5 
" id="m3c4b333e23" style="stroke:#000000;stroke-width:0.8;"/>
      </defs>
      <g>
       <use style="stroke:#000000;stroke-width:0.8;" x="69.560852" xlink:href="#m3c4b333e23" y="288.430125"/>
      </g>
     </g>
     <g id="text_1">
      <!-- 14m -->
      <g transform="translate(58.32804 303.028562)scale(0.1 -0.1)">
       <defs>
        <path d="M 794 531 
L 1825 531 
L 1825 4091 
L 703 3866 
L 703 4441 
L 1819 4666 
L 2450 4666 
L 2450 531 
L 3481 531 
L 3481 0 
L 794 0 
L 794 531 
z
" id="DejaVuSans-31" transform="scale(0.015625)"/>
        <path d="M 2419 4116 
L 825 1625 
L 2419 1625 
L 2419 4116 
z
M 2253 4666 
L 3047 4666 
L 3047 1625 
L 3713 1625 
L 3713 1100 
L 3047 1100 
L 3047 0 
L 2419 0 
L 2419 1100 
L 313 1100 
L 313 1709 
L 2253 4666 
z
" id="DejaVuSans-34" transform="scale(0.015625)"/>
        <path d="M 3328 2828 
Q 3544 3216 3844 3400 
Q 4144 3584 4550 3584 
Q 5097 3584 5394 3201 
Q 5691 2819 5691 2113 
L 5691 0 
L 5113 0 
L 5113 2094 
Q 5113 2597 4934 2840 
Q 4756 3084 4391 3084 
Q 3944 3084 3684 2787 
Q 3425 2491 3425 1978 
L 3425 0 
L 2847 0 
L 2847 2094 
Q 2847 2600 2669 2842 
Q 2491 3084 2119 3084 
Q 1678 3084 1418 2786 
Q 1159 2488 1159 1978 
L 1159 0 
L 581 0 
L 581 3500 
L 1159 3500 
L 1159 2956 
Q 1356 3278 1631 3431 
Q 1906 3584 2284 3584 
Q 2666 3584 2933 3390 
Q 3200 3197 3328 2828 
z
" id="DejaVuSans-6d" transform="scale(0.015625)"/>
       </defs>
       <use xlink:href="#DejaVuSans-31"/>
       <use x="63.623047" xlink:href="#DejaVuSans-34"/>
       <use x="127.246094" xlink:href="#DejaVuSans-6d"/>
      </g>
     </g>
    </g>
    <g id="xtick_2">
     <g id="line2d_2">
      <g>
       <use style="stroke:#000000;stroke-width:0.8;" x="134.491935" xlink:href="#m3c4b333e23" y="288.430125"/>
      </g>
     </g>
     <g id="text_2">
      <!-- 37m -->
      <g transform="translate(123.259122 303.028562)scale(0.1 -0.1)">
       <defs>
        <path d="M 2597 2516 
Q 3050 2419 3304 2112 
Q 3559 1806 3559 1356 
Q 3559 666 3084 287 
Q 2609 -91 1734 -91 
Q 1441 -91 1130 -33 
Q 819 25 488 141 
L 488 750 
Q 750 597 1062 519 
Q 1375 441 1716 441 
Q 2309 441 2620 675 
Q 2931 909 2931 1356 
Q 2931 1769 2642 2001 
Q 2353 2234 1838 2234 
L 1294 2234 
L 1294 2753 
L 1863 2753 
Q 2328 2753 2575 2939 
Q 2822 3125 2822 3475 
Q 2822 3834 2567 4026 
Q 2313 4219 1838 4219 
Q 1578 4219 1281 4162 
Q 984 4106 628 3988 
L 628 4550 
Q 988 4650 1302 4700 
Q 1616 4750 1894 4750 
Q 2613 4750 3031 4423 
Q 3450 4097 3450 3541 
Q 3450 3153 3228 2886 
Q 3006 2619 2597 2516 
z
" id="DejaVuSans-33" transform="scale(0.015625)"/>
        <path d="M 525 4666 
L 3525 4666 
L 3525 4397 
L 1831 0 
L 1172 0 
L 2766 4134 
L 525 4134 
L 525 4666 
z
" id="DejaVuSans-37" transform="scale(0.015625)"/>
       </defs>
       <use xlink:href="#DejaVuSans-33"/>
       <use x="63.623047" xlink:href="#DejaVuSans-37"/>
       <use x="127.246094" xlink:href="#DejaVuSans-6d"/>
      </g>
     </g>
    </g>
    <g id="xtick_3">
     <g id="line2d_3">
      <g>
       <use style="stroke:#000000;stroke-width:0.8;" x="199.423017" xlink:href="#m3c4b333e23" y="288.430125"/>
      </g>
     </g>
     <g id="text_3">
      <!-- 1h:31m -->
      <g transform="translate(180.15583 303.028562)scale(0.1 -0.1)">
       <defs>
        <path d="M 3513 2113 
L 3513 0 
L 2938 0 
L 2938 2094 
Q 2938 2591 2744 2837 
Q 2550 3084 2163 3084 
Q 1697 3084 1428 2787 
Q 1159 2491 1159 1978 
L 1159 0 
L 581 0 
L 581 4863 
L 1159 4863 
L 1159 2956 
Q 1366 3272 1645 3428 
Q 1925 3584 2291 3584 
Q 2894 3584 3203 3211 
Q 3513 2838 3513 2113 
z
" id="DejaVuSans-68" transform="scale(0.015625)"/>
        <path d="M 750 794 
L 1409 794 
L 1409 0 
L 750 0 
L 750 794 
z
M 750 3309 
L 1409 3309 
L 1409 2516 
L 750 2516 
L 750 3309 
z
" id="DejaVuSans-3a" transform="scale(0.015625)"/>
       </defs>
       <use xlink:href="#DejaVuSans-31"/>
       <use x="63.623047" xlink:href="#DejaVuSans-68"/>
       <use x="127.001953" xlink:href="#DejaVuSans-3a"/>
       <use x="160.693359" xlink:href="#DejaVuSans-33"/>
       <use x="224.316406" xlink:href="#DejaVuSans-31"/>
       <use x="287.939453" xlink:href="#DejaVuSans-6d"/>
      </g>
     </g>
    </g>
    <g id="xtick_4">
     <g id="line2d_4">
      <g>
       <use style="stroke:#000000;stroke-width:0.8;" x="264.3541" xlink:href="#m3c4b333e23" y="288.430125"/>
      </g>
     </g>
     <g id="text_4">
      <!-- 3h:46m -->
      <g transform="translate(245.086912 303.028562)scale(0.1 -0.1)">
       <defs>
        <path d="M 2113 2584 
Q 1688 2584 1439 2293 
Q 1191 2003 1191 1497 
Q 1191 994 1439 701 
Q 1688 409 2113 409 
Q 2538 409 2786 701 
Q 3034 994 3034 1497 
Q 3034 2003 2786 2293 
Q 2538 2584 2113 2584 
z
M 3366 4563 
L 3366 3988 
Q 3128 4100 2886 4159 
Q 2644 4219 2406 4219 
Q 1781 4219 1451 3797 
Q 1122 3375 1075 2522 
Q 1259 2794 1537 2939 
Q 1816 3084 2150 3084 
Q 2853 3084 3261 2657 
Q 3669 2231 3669 1497 
Q 3669 778 3244 343 
Q 2819 -91 2113 -91 
Q 1303 -91 875 529 
Q 447 1150 447 2328 
Q 447 3434 972 4092 
Q 1497 4750 2381 4750 
Q 2619 4750 2861 4703 
Q 3103 4656 3366 4563 
z
" id="DejaVuSans-36" transform="scale(0.015625)"/>
       </defs>
       <use xlink:href="#DejaVuSans-33"/>
       <use x="63.623047" xlink:href="#DejaVuSans-68"/>
       <use x="127.001953" xlink:href="#DejaVuSans-3a"/>
       <use x="160.693359" xlink:href="#DejaVuSans-34"/>
       <use x="224.316406" xlink:href="#DejaVuSans-36"/>
       <use x="287.939453" xlink:href="#DejaVuSans-6d"/>
      </g>
     </g>
    </g>
    <g id="xtick_5">
     <g id="line2d_5">
      <g>
       <use style="stroke:#000000;stroke-width:0.8;" x="329.285182" xlink:href="#m3c4b333e23" y="288.430125"/>
      </g>
     </g>
     <g id="text_5">
      <!-- 9h:18m -->
      <g transform="translate(310.017995 303.028562)scale(0.1 -0.1)">
       <defs>
        <path d="M 703 97 
L 703 672 
Q 941 559 1184 500 
Q 1428 441 1663 441 
Q 2288 441 2617 861 
Q 2947 1281 2994 2138 
Q 2813 1869 2534 1725 
Q 2256 1581 1919 1581 
Q 1219 1581 811 2004 
Q 403 2428 403 3163 
Q 403 3881 828 4315 
Q 1253 4750 1959 4750 
Q 2769 4750 3195 4129 
Q 3622 3509 3622 2328 
Q 3622 1225 3098 567 
Q 2575 -91 1691 -91 
Q 1453 -91 1209 -44 
Q 966 3 703 97 
z
M 1959 2075 
Q 2384 2075 2632 2365 
Q 2881 2656 2881 3163 
Q 2881 3666 2632 3958 
Q 2384 4250 1959 4250 
Q 1534 4250 1286 3958 
Q 1038 3666 1038 3163 
Q 1038 2656 1286 2365 
Q 1534 2075 1959 2075 
z
" id="DejaVuSans-39" transform="scale(0.015625)"/>
        <path d="M 2034 2216 
Q 1584 2216 1326 1975 
Q 1069 1734 1069 1313 
Q 1069 891 1326 650 
Q 1584 409 2034 409 
Q 2484 409 2743 651 
Q 3003 894 3003 1313 
Q 3003 1734 2745 1975 
Q 2488 2216 2034 2216 
z
M 1403 2484 
Q 997 2584 770 2862 
Q 544 3141 544 3541 
Q 544 4100 942 4425 
Q 1341 4750 2034 4750 
Q 2731 4750 3128 4425 
Q 3525 4100 3525 3541 
Q 3525 3141 3298 2862 
Q 3072 2584 2669 2484 
Q 3125 2378 3379 2068 
Q 3634 1759 3634 1313 
Q 3634 634 3220 271 
Q 2806 -91 2034 -91 
Q 1263 -91 848 271 
Q 434 634 434 1313 
Q 434 1759 690 2068 
Q 947 2378 1403 2484 
z
M 1172 3481 
Q 1172 3119 1398 2916 
Q 1625 2713 2034 2713 
Q 2441 2713 2670 2916 
Q 2900 3119 2900 3481 
Q 2900 3844 2670 4047 
Q 2441 4250 2034 4250 
Q 1625 4250 1398 4047 
Q 1172 3844 1172 3481 
z
" id="DejaVuSans-38" transform="scale(0.015625)"/>
       </defs>
       <use xlink:href="#DejaVuSans-39"/>
       <use x="63.623047" xlink:href="#DejaVuSans-68"/>
       <use x="127.001953" xlink:href="#DejaVuSans-3a"/>
       <use x="160.693359" xlink:href="#DejaVuSans-31"/>
       <use x="224.316406" xlink:href="#DejaVuSans-38"/>
       <use x="287.939453" xlink:href="#DejaVuSans-6d"/>
      </g>
     </g>
    </g>
    <g id="xtick_6">
     <g id="line2d_6">
      <g>
       <use style="stroke:#000000;stroke-width:0.8;" x="394.216265" xlink:href="#m3c4b333e23" y="288.430125"/>
      </g>
     </g>
     <g id="text_6">
      <!-- 23h -->
      <g transform="translate(384.685015 303.028562)scale(0.1 -0.1)">
       <defs>
        <path d="M 1228 531 
L 3431 531 
L 3431 0 
L 469 0 
L 469 531 
Q 828 903 1448 1529 
Q 2069 2156 2228 2338 
Q 2531 2678 2651 2914 
Q 2772 3150 2772 3378 
Q 2772 3750 2511 3984 
Q 2250 4219 1831 4219 
Q 1534 4219 1204 4116 
Q 875 4013 500 3803 
L 500 4441 
Q 881 4594 1212 4672 
Q 1544 4750 1819 4750 
Q 2544 4750 2975 4387 
Q 3406 4025 3406 3419 
Q 3406 3131 3298 2873 
Q 3191 2616 2906 2266 
Q 2828 2175 2409 1742 
Q 1991 1309 1228 531 
z
" id="DejaVuSans-32" transform="scale(0.015625)"/>
       </defs>
       <use xlink:href="#DejaVuSans-32"/>
       <use x="63.623047" xlink:href="#DejaVuSans-33"/>
       <use x="127.246094" xlink:href="#DejaVuSans-68"/>
      </g>
     </g>
    </g>
    <g id="xtick_7">
     <g id="line2d_7">
      <defs>
       <path d="M 0 0 
L 0 2 
" id="m4160ce3fe4" style="stroke:#000000;stroke-width:0.6;"/>
      </defs>
      <g>
       <use style="stroke:#000000;stroke-width:0.6;" x="61.104288" xlink:href="#m4160ce3fe4" y="288.430125"/>
      </g>
     </g>
    </g>
    <g id="xtick_8">
     <g id="line2d_8">
      <g>
       <use style="stroke:#000000;stroke-width:0.6;" x="126.891961" xlink:href="#m4160ce3fe4" y="288.430125"/>
      </g>
     </g>
    </g>
    <g id="xtick_9">
     <g id="line2d_9">
      <g>
       <use style="stroke:#000000;stroke-width:0.6;" x="156.00347" xlink:href="#m4160ce3fe4" y="288.430125"/>
      </g>
     </g>
    </g>
    <g id="xtick_10">
     <g id="line2d_10">
      <g>
       <use style="stroke:#000000;stroke-width:0.6;" x="176.658415" xlink:href="#m4160ce3fe4" y="288.430125"/>
      </g>
     </g>
    </g>
    <g id="xtick_11">
     <g id="line2d_11">
      <g>
       <use style="stroke:#000000;stroke-width:0.6;" x="192.679635" xlink:href="#m4160ce3fe4" y="288.430125"/>
      </g>
     </g>
    </g>
    <g id="xtick_12">
     <g id="line2d_12">
      <g>
       <use style="stroke:#000000;stroke-width:0.6;" x="205.769924" xlink:href="#m4160ce3fe4" y="288.430125"/>
      </g>
     </g>
    </g>
    <g id="xtick_13">
     <g id="line2d_13">
      <g>
       <use style="stroke:#000000;stroke-width:0.6;" x="216.837607" xlink:href="#m4160ce3fe4" y="288.430125"/>
      </g>
     </g>
    </g>
    <g id="xtick_14">
     <g id="line2d_14">
      <g>
       <use style="stroke:#000000;stroke-width:0.6;" x="226.424869" xlink:href="#m4160ce3fe4" y="288.430125"/>
      </g>
     </g>
    </g>
    <g id="xtick_15">
     <g id="line2d_15">
      <g>
       <use style="stroke:#000000;stroke-width:0.6;" x="234.881434" xlink:href="#m4160ce3fe4" y="288.430125"/>
      </g>
     </g>
    </g>
    <g id="xtick_16">
     <g id="line2d_16">
      <g>
       <use style="stroke:#000000;stroke-width:0.6;" x="292.212543" xlink:href="#m4160ce3fe4" y="288.430125"/>
      </g>
     </g>
    </g>
    <g id="xtick_17">
     <g id="line2d_17">
      <g>
       <use style="stroke:#000000;stroke-width:0.6;" x="321.324052" xlink:href="#m4160ce3fe4" y="288.430125"/>
      </g>
     </g>
    </g>
    <g id="xtick_18">
     <g id="line2d_18">
      <g>
       <use style="stroke:#000000;stroke-width:0.6;" x="341.978996" xlink:href="#m4160ce3fe4" y="288.430125"/>
      </g>
     </g>
    </g>
    <g id="xtick_19">
     <g id="line2d_19">
      <g>
       <use style="stroke:#000000;stroke-width:0.6;" x="358.000216" xlink:href="#m4160ce3fe4" y="288.430125"/>
      </g>
     </g>
    </g>
    <g id="xtick_20">
     <g id="line2d_20">
      <g>
       <use style="stroke:#000000;stroke-width:0.6;" x="371.090506" xlink:href="#m4160ce3fe4" y="288.430125"/>
      </g>
     </g>
    </g>
    <g id="xtick_21">
     <g id="line2d_21">
      <g>
       <use style="stroke:#000000;stroke-width:0.6;" x="382.158188" xlink:href="#m4160ce3fe4" y="288.430125"/>
      </g>
     </g>
    </g>
    <g id="xtick_22">
     <g id="line2d_22">
      <g>
       <use style="stroke:#000000;stroke-width:0.6;" x="391.74545" xlink:href="#m4160ce3fe4" y="288.430125"/>
      </g>
     </g>
    </g>
    <g id="xtick_23">
     <g id="line2d_23">
      <g>
       <use style="stroke:#000000;stroke-width:0.6;" x="400.202015" xlink:href="#m4160ce3fe4" y="288.430125"/>
      </g>
     </g>
    </g>
    <g id="text_7">
     <!-- Time (hour:minute) -->
     <g transform="translate(183.481094 316.706687)scale(0.1 -0.1)">
      <defs>
       <path d="M -19 4666 
L 3928 4666 
L 3928 4134 
L 2272 4134 
L 2272 0 
L 1638 0 
L 1638 4134 
L -19 4134 
L -19 4666 
z
" id="DejaVuSans-54" transform="scale(0.015625)"/>
       <path d="M 603 3500 
L 1178 3500 
L 1178 0 
L 603 0 
L 603 3500 
z
M 603 4863 
L 1178 4863 
L 1178 4134 
L 603 4134 
L 603 4863 
z
" id="DejaVuSans-69" transform="scale(0.015625)"/>
       <path d="M 3597 1894 
L 3597 1613 
L 953 1613 
Q 991 1019 1311 708 
Q 1631 397 2203 397 
Q 2534 397 2845 478 
Q 3156 559 3463 722 
L 3463 178 
Q 3153 47 2828 -22 
Q 2503 -91 2169 -91 
Q 1331 -91 842 396 
Q 353 884 353 1716 
Q 353 2575 817 3079 
Q 1281 3584 2069 3584 
Q 2775 3584 3186 3129 
Q 3597 2675 3597 1894 
z
M 3022 2063 
Q 3016 2534 2758 2815 
Q 2500 3097 2075 3097 
Q 1594 3097 1305 2825 
Q 1016 2553 972 2059 
L 3022 2063 
z
" id="DejaVuSans-65" transform="scale(0.015625)"/>
       <path id="DejaVuSans-20" transform="scale(0.015625)"/>
       <path d="M 1984 4856 
Q 1566 4138 1362 3434 
Q 1159 2731 1159 2009 
Q 1159 1288 1364 580 
Q 1569 -128 1984 -844 
L 1484 -844 
Q 1016 -109 783 600 
Q 550 1309 550 2009 
Q 550 2706 781 3412 
Q 1013 4119 1484 4856 
L 1984 4856 
z
" id="DejaVuSans-28" transform="scale(0.015625)"/>
       <path d="M 1959 3097 
Q 1497 3097 1228 2736 
Q 959 2375 959 1747 
Q 959 1119 1226 758 
Q 1494 397 1959 397 
Q 2419 397 2687 759 
Q 2956 1122 2956 1747 
Q 2956 2369 2687 2733 
Q 2419 3097 1959 3097 
z
M 1959 3584 
Q 2709 3584 3137 3096 
Q 3566 2609 3566 1747 
Q 3566 888 3137 398 
Q 2709 -91 1959 -91 
Q 1206 -91 779 398 
Q 353 888 353 1747 
Q 353 2609 779 3096 
Q 1206 3584 1959 3584 
z
" id="DejaVuSans-6f" transform="scale(0.015625)"/>
       <path d="M 544 1381 
L 544 3500 
L 1119 3500 
L 1119 1403 
Q 1119 906 1312 657 
Q 1506 409 1894 409 
Q 2359 409 2629 706 
Q 2900 1003 2900 1516 
L 2900 3500 
L 3475 3500 
L 3475 0 
L 2900 0 
L 2900 538 
Q 2691 219 2414 64 
Q 2138 -91 1772 -91 
Q 1169 -91 856 284 
Q 544 659 544 1381 
z
M 1991 3584 
L 1991 3584 
z
" id="DejaVuSans-75" transform="scale(0.015625)"/>
       <path d="M 2631 2963 
Q 2534 3019 2420 3045 
Q 2306 3072 2169 3072 
Q 1681 3072 1420 2755 
Q 1159 2438 1159 1844 
L 1159 0 
L 581 0 
L 581 3500 
L 1159 3500 
L 1159 2956 
Q 1341 3275 1631 3429 
Q 1922 3584 2338 3584 
Q 2397 3584 2469 3576 
Q 2541 3569 2628 3553 
L 2631 2963 
z
" id="DejaVuSans-72" transform="scale(0.015625)"/>
       <path d="M 3513 2113 
L 3513 0 
L 2938 0 
L 2938 2094 
Q 2938 2591 2744 2837 
Q 2550 3084 2163 3084 
Q 1697 3084 1428 2787 
Q 1159 2491 1159 1978 
L 1159 0 
L 581 0 
L 581 3500 
L 1159 3500 
L 1159 2956 
Q 1366 3272 1645 3428 
Q 1925 3584 2291 3584 
Q 2894 3584 3203 3211 
Q 3513 2838 3513 2113 
z
" id="DejaVuSans-6e" transform="scale(0.015625)"/>
       <path d="M 1172 4494 
L 1172 3500 
L 2356 3500 
L 2356 3053 
L 1172 3053 
L 1172 1153 
Q 1172 725 1289 603 
Q 1406 481 1766 481 
L 2356 481 
L 2356 0 
L 1766 0 
Q 1100 0 847 248 
Q 594 497 594 1153 
L 594 3053 
L 172 3053 
L 172 3500 
L 594 3500 
L 594 4494 
L 1172 4494 
z
" id="DejaVuSans-74" transform="scale(0.015625)"/>
       <path d="M 513 4856 
L 1013 4856 
Q 1481 4119 1714 3412 
Q 1947 2706 1947 2009 
Q 1947 1309 1714 600 
Q 1481 -109 1013 -844 
L 513 -844 
Q 928 -128 1133 580 
Q 1338 1288 1338 2009 
Q 1338 2731 1133 3434 
Q 928 4138 513 4856 
z
" id="DejaVuSans-29" transform="scale(0.015625)"/>
      </defs>
      <use xlink:href="#DejaVuSans-54"/>
      <use x="57.958984" xlink:href="#DejaVuSans-69"/>
      <use x="85.742188" xlink:href="#DejaVuSans-6d"/>
      <use x="183.154297" xlink:href="#DejaVuSans-65"/>
      <use x="244.677734" xlink:href="#DejaVuSans-20"/>
      <use x="276.464844" xlink:href="#DejaVuSans-28"/>
      <use x="315.478516" xlink:href="#DejaVuSans-68"/>
      <use x="378.857422" xlink:href="#DejaVuSans-6f"/>
      <use x="440.039062" xlink:href="#DejaVuSans-75"/>
      <use x="503.417969" xlink:href="#DejaVuSans-72"/>
      <use x="542.78125" xlink:href="#DejaVuSans-3a"/>
      <use x="576.472656" xlink:href="#DejaVuSans-6d"/>
      <use x="673.884766" xlink:href="#DejaVuSans-69"/>
      <use x="701.667969" xlink:href="#DejaVuSans-6e"/>
      <use x="765.046875" xlink:href="#DejaVuSans-75"/>
      <use x="828.425781" xlink:href="#DejaVuSans-74"/>
      <use x="867.634766" xlink:href="#DejaVuSans-65"/>
      <use x="929.158203" xlink:href="#DejaVuSans-29"/>
     </g>
    </g>
   </g>
   <g id="matplotlib.axis_2">
    <g id="ytick_1">
     <g id="line2d_24">
      <defs>
       <path d="M 0 0 
L -3.5 0 
" id="ma7b529447c" style="stroke:#000000;stroke-width:0.8;"/>
      </defs>
      <g>
       <use style="stroke:#000000;stroke-width:0.8;" x="53.328125" xlink:href="#ma7b529447c" y="263.898985"/>
      </g>
     </g>
     <g id="text_8">
      <!-- 2000 -->
      <g transform="translate(20.878125 267.698204)scale(0.1 -0.1)">
       <defs>
        <path d="M 2034 4250 
Q 1547 4250 1301 3770 
Q 1056 3291 1056 2328 
Q 1056 1369 1301 889 
Q 1547 409 2034 409 
Q 2525 409 2770 889 
Q 3016 1369 3016 2328 
Q 3016 3291 2770 3770 
Q 2525 4250 2034 4250 
z
M 2034 4750 
Q 2819 4750 3233 4129 
Q 3647 3509 3647 2328 
Q 3647 1150 3233 529 
Q 2819 -91 2034 -91 
Q 1250 -91 836 529 
Q 422 1150 422 2328 
Q 422 3509 836 4129 
Q 1250 4750 2034 4750 
z
" id="DejaVuSans-30" transform="scale(0.015625)"/>
       </defs>
       <use xlink:href="#DejaVuSans-32"/>
       <use x="63.623047" xlink:href="#DejaVuSans-30"/>
       <use x="127.246094" xlink:href="#DejaVuSans-30"/>
       <use x="190.869141" xlink:href="#DejaVuSans-30"/>
      </g>
     </g>
    </g>
    <g id="ytick_2">
     <g id="line2d_25">
      <g>
       <use style="stroke:#000000;stroke-width:0.8;" x="53.328125" xlink:href="#ma7b529447c" y="207.37562"/>
      </g>
     </g>
     <g id="text_9">
      <!-- 2200 -->
      <g transform="translate(20.878125 211.174839)scale(0.1 -0.1)">
       <use xlink:href="#DejaVuSans-32"/>
       <use x="63.623047" xlink:href="#DejaVuSans-32"/>
       <use x="127.246094" xlink:href="#DejaVuSans-30"/>
       <use x="190.869141" xlink:href="#DejaVuSans-30"/>
      </g>
     </g>
    </g>
    <g id="ytick_3">
     <g id="line2d_26">
      <g>
       <use style="stroke:#000000;stroke-width:0.8;" x="53.328125" xlink:href="#ma7b529447c" y="150.852256"/>
      </g>
     </g>
     <g id="text_10">
      <!-- 2400 -->
      <g transform="translate(20.878125 154.651475)scale(0.1 -0.1)">
       <use xlink:href="#DejaVuSans-32"/>
       <use x="63.623047" xlink:href="#DejaVuSans-34"/>
       <use x="127.246094" xlink:href="#DejaVuSans-30"/>
       <use x="190.869141" xlink:href="#DejaVuSans-30"/>
      </g>
     </g>
    </g>
    <g id="ytick_4">
     <g id="line2d_27">
      <g>
       <use style="stroke:#000000;stroke-width:0.8;" x="53.328125" xlink:href="#ma7b529447c" y="94.328891"/>
      </g>
     </g>
     <g id="text_11">
      <!-- 2600 -->
      <g transform="translate(20.878125 98.12811)scale(0.1 -0.1)">
       <use xlink:href="#DejaVuSans-32"/>
       <use x="63.623047" xlink:href="#DejaVuSans-36"/>
       <use x="127.246094" xlink:href="#DejaVuSans-30"/>
       <use x="190.869141" xlink:href="#DejaVuSans-30"/>
      </g>
     </g>
    </g>
    <g id="ytick_5">
     <g id="line2d_28">
      <g>
       <use style="stroke:#000000;stroke-width:0.8;" x="53.328125" xlink:href="#ma7b529447c" y="37.805527"/>
      </g>
     </g>
     <g id="text_12">
      <!-- 2800 -->
      <g transform="translate(20.878125 41.604746)scale(0.1 -0.1)">
       <use xlink:href="#DejaVuSans-32"/>
       <use x="63.623047" xlink:href="#DejaVuSans-38"/>
       <use x="127.246094" xlink:href="#DejaVuSans-30"/>
       <use x="190.869141" xlink:href="#DejaVuSans-30"/>
      </g>
     </g>
    </g>
    <g id="text_13">
     <!-- Code region coverage -->
     <g transform="translate(14.798438 210.379594)rotate(-90)scale(0.1 -0.1)">
      <defs>
       <path d="M 4122 4306 
L 4122 3641 
Q 3803 3938 3442 4084 
Q 3081 4231 2675 4231 
Q 1875 4231 1450 3742 
Q 1025 3253 1025 2328 
Q 1025 1406 1450 917 
Q 1875 428 2675 428 
Q 3081 428 3442 575 
Q 3803 722 4122 1019 
L 4122 359 
Q 3791 134 3420 21 
Q 3050 -91 2638 -91 
Q 1578 -91 968 557 
Q 359 1206 359 2328 
Q 359 3453 968 4101 
Q 1578 4750 2638 4750 
Q 3056 4750 3426 4639 
Q 3797 4528 4122 4306 
z
" id="DejaVuSans-43" transform="scale(0.015625)"/>
       <path d="M 2906 2969 
L 2906 4863 
L 3481 4863 
L 3481 0 
L 2906 0 
L 2906 525 
Q 2725 213 2448 61 
Q 2172 -91 1784 -91 
Q 1150 -91 751 415 
Q 353 922 353 1747 
Q 353 2572 751 3078 
Q 1150 3584 1784 3584 
Q 2172 3584 2448 3432 
Q 2725 3281 2906 2969 
z
M 947 1747 
Q 947 1113 1208 752 
Q 1469 391 1925 391 
Q 2381 391 2643 752 
Q 2906 1113 2906 1747 
Q 2906 2381 2643 2742 
Q 2381 3103 1925 3103 
Q 1469 3103 1208 2742 
Q 947 2381 947 1747 
z
" id="DejaVuSans-64" transform="scale(0.015625)"/>
       <path d="M 2906 1791 
Q 2906 2416 2648 2759 
Q 2391 3103 1925 3103 
Q 1463 3103 1205 2759 
Q 947 2416 947 1791 
Q 947 1169 1205 825 
Q 1463 481 1925 481 
Q 2391 481 2648 825 
Q 2906 1169 2906 1791 
z
M 3481 434 
Q 3481 -459 3084 -895 
Q 2688 -1331 1869 -1331 
Q 1566 -1331 1297 -1286 
Q 1028 -1241 775 -1147 
L 775 -588 
Q 1028 -725 1275 -790 
Q 1522 -856 1778 -856 
Q 2344 -856 2625 -561 
Q 2906 -266 2906 331 
L 2906 616 
Q 2728 306 2450 153 
Q 2172 0 1784 0 
Q 1141 0 747 490 
Q 353 981 353 1791 
Q 353 2603 747 3093 
Q 1141 3584 1784 3584 
Q 2172 3584 2450 3431 
Q 2728 3278 2906 2969 
L 2906 3500 
L 3481 3500 
L 3481 434 
z
" id="DejaVuSans-67" transform="scale(0.015625)"/>
       <path d="M 3122 3366 
L 3122 2828 
Q 2878 2963 2633 3030 
Q 2388 3097 2138 3097 
Q 1578 3097 1268 2742 
Q 959 2388 959 1747 
Q 959 1106 1268 751 
Q 1578 397 2138 397 
Q 2388 397 2633 464 
Q 2878 531 3122 666 
L 3122 134 
Q 2881 22 2623 -34 
Q 2366 -91 2075 -91 
Q 1284 -91 818 406 
Q 353 903 353 1747 
Q 353 2603 823 3093 
Q 1294 3584 2113 3584 
Q 2378 3584 2631 3529 
Q 2884 3475 3122 3366 
z
" id="DejaVuSans-63" transform="scale(0.015625)"/>
       <path d="M 191 3500 
L 800 3500 
L 1894 563 
L 2988 3500 
L 3597 3500 
L 2284 0 
L 1503 0 
L 191 3500 
z
" id="DejaVuSans-76" transform="scale(0.015625)"/>
       <path d="M 2194 1759 
Q 1497 1759 1228 1600 
Q 959 1441 959 1056 
Q 959 750 1161 570 
Q 1363 391 1709 391 
Q 2188 391 2477 730 
Q 2766 1069 2766 1631 
L 2766 1759 
L 2194 1759 
z
M 3341 1997 
L 3341 0 
L 2766 0 
L 2766 531 
Q 2569 213 2275 61 
Q 1981 -91 1556 -91 
Q 1019 -91 701 211 
Q 384 513 384 1019 
Q 384 1609 779 1909 
Q 1175 2209 1959 2209 
L 2766 2209 
L 2766 2266 
Q 2766 2663 2505 2880 
Q 2244 3097 1772 3097 
Q 1472 3097 1187 3025 
Q 903 2953 641 2809 
L 641 3341 
Q 956 3463 1253 3523 
Q 1550 3584 1831 3584 
Q 2591 3584 2966 3190 
Q 3341 2797 3341 1997 
z
" id="DejaVuSans-61" transform="scale(0.015625)"/>
      </defs>
      <use xlink:href="#DejaVuSans-43"/>
      <use x="69.824219" xlink:href="#DejaVuSans-6f"/>
      <use x="131.005859" xlink:href="#DejaVuSans-64"/>
      <use x="194.482422" xlink:href="#DejaVuSans-65"/>
      <use x="256.005859" xlink:href="#DejaVuSans-20"/>
      <use x="287.792969" xlink:href="#DejaVuSans-72"/>
      <use x="326.65625" xlink:href="#DejaVuSans-65"/>
      <use x="388.179688" xlink:href="#DejaVuSans-67"/>
      <use x="451.65625" xlink:href="#DejaVuSans-69"/>
      <use x="479.439453" xlink:href="#DejaVuSans-6f"/>
      <use x="540.621094" xlink:href="#DejaVuSans-6e"/>
      <use x="604" xlink:href="#DejaVuSans-20"/>
      <use x="635.787109" xlink:href="#DejaVuSans-63"/>
      <use x="690.767578" xlink:href="#DejaVuSans-6f"/>
      <use x="751.949219" xlink:href="#DejaVuSans-76"/>
      <use x="811.128906" xlink:href="#DejaVuSans-65"/>
      <use x="872.652344" xlink:href="#DejaVuSans-72"/>
      <use x="913.765625" xlink:href="#DejaVuSans-61"/>
      <use x="975.044922" xlink:href="#DejaVuSans-67"/>
      <use x="1038.521484" xlink:href="#DejaVuSans-65"/>
     </g>
    </g>
   </g>
   <g id="line2d_29">
    <path clip-path="url(#p4622c02767)" d="M 69.560852 176.853004 
L 119.327306 168.939732 
L 148.438816 167.809265 
L 169.09376 159.189452 
L 185.11498 158.341602 
L 198.205269 156.504592 
L 209.272952 155.091508 
L 218.860214 154.9502 
L 227.316779 155.232817 
L 234.881434 154.384966 
L 241.724496 153.819732 
L 247.971723 153.678424 
L 253.718615 152.689265 
L 259.039406 151.700106 
L 263.992943 149.721789 
L 268.626668 148.308704 
L 272.979383 146.613004 
L 277.083233 146.613004 
L 280.965141 148.450013 
L 284.647888 148.450013 
L 288.150915 148.308704 
L 291.49095 128.525527 
L 294.68249 106.198798 
L 297.738177 106.198798 
L 300.669107 128.101602 
L 303.485069 127.960293 
L 306.194742 127.960293 
L 308.805859 106.198798 
L 311.32534 105.916181 
L 313.759397 126.829826 
L 316.113635 126.829826 
L 318.393122 105.916181 
L 320.60246 105.916181 
L 322.745837 105.916181 
L 324.827079 105.916181 
L 326.849687 97.013751 
L 328.816873 101.394312 
L 330.731595 113.264218 
L 332.596578 111.851134 
L 334.414342 111.568518 
L 336.187217 94.046275 
L 337.917369 94.046275 
L 339.606807 93.057116 
L 341.257404 93.057116 
L 342.870906 96.589826 
L 344.448944 96.024592 
L 345.993042 110.579359 
L 347.504631 110.579359 
L 348.985051 93.057116 
L 350.435561 90.089639 
L 351.857347 93.057116 
L 353.251523 93.057116 
L 354.619142 90.089639 
L 355.961196 90.089639 
L 357.278624 89.10048 
L 358.572313 90.089639 
L 359.843104 95.741975 
L 361.091794 95.883284 
L 362.319136 95.741975 
L 363.525851 95.741975 
L 364.712619 92.915807 
L 365.880089 90.089639 
L 367.028878 90.089639 
L 368.159576 90.089639 
L 369.272743 90.089639 
L 370.368914 90.089639 
L 371.4486 92.350574 
L 372.512291 92.350574 
L 373.560453 94.611508 
L 374.593533 92.350574 
L 375.611959 90.089639 
L 376.616141 89.10048 
L 377.606471 88.111321 
L 378.583327 88.111321 
L 379.547071 86.41562 
L 380.498049 84.719919 
L 381.436596 82.741602 
L 382.363032 82.741602 
L 383.277666 86.41562 
L 384.180795 86.41562 
L 385.072705 86.41562 
L 385.953671 84.719919 
L 386.823958 84.719919 
L 387.683823 84.719919 
L 388.533511 84.719919 
L 389.373261 84.719919 
L 390.203303 84.719919 
L 391.023858 84.719919 
L 391.835142 84.719919 
L 392.63736 82.741602 
L 393.430714 84.719919 
L 394.215398 84.719919 
" style="fill:none;stroke:#98df8a;stroke-linecap:square;stroke-width:1.5;"/>
    <defs>
     <path d="M -0 3 
L 3 -3 
L -3 -3 
z
" id="medb9d037b9" style="stroke:#ffffff;stroke-linejoin:miter;stroke-width:0.75;"/>
    </defs>
    <g clip-path="url(#p4622c02767)">
     <use style="fill:#98df8a;stroke:#ffffff;stroke-linejoin:miter;stroke-width:0.75;" x="69.560852" xlink:href="#medb9d037b9" y="176.853004"/>
     <use style="fill:#98df8a;stroke:#ffffff;stroke-linejoin:miter;stroke-width:0.75;" x="119.327306" xlink:href="#medb9d037b9" y="168.939732"/>
     <use style="fill:#98df8a;stroke:#ffffff;stroke-linejoin:miter;stroke-width:0.75;" x="148.438816" xlink:href="#medb9d037b9" y="167.809265"/>
     <use style="fill:#98df8a;stroke:#ffffff;stroke-linejoin:miter;stroke-width:0.75;" x="169.09376" xlink:href="#medb9d037b9" y="159.189452"/>
     <use style="fill:#98df8a;stroke:#ffffff;stroke-linejoin:miter;stroke-width:0.75;" x="185.11498" xlink:href="#medb9d037b9" y="158.341602"/>
     <use style="fill:#98df8a;stroke:#ffffff;stroke-linejoin:miter;stroke-width:0.75;" x="198.205269" xlink:href="#medb9d037b9" y="156.504592"/>
     <use style="fill:#98df8a;stroke:#ffffff;stroke-linejoin:miter;stroke-width:0.75;" x="209.272952" xlink:href="#medb9d037b9" y="155.091508"/>
     <use style="fill:#98df8a;stroke:#ffffff;stroke-linejoin:miter;stroke-width:0.75;" x="218.860214" xlink:href="#medb9d037b9" y="154.9502"/>
     <use style="fill:#98df8a;stroke:#ffffff;stroke-linejoin:miter;stroke-width:0.75;" x="227.316779" xlink:href="#medb9d037b9" y="155.232817"/>
     <use style="fill:#98df8a;stroke:#ffffff;stroke-linejoin:miter;stroke-width:0.75;" x="234.881434" xlink:href="#medb9d037b9" y="154.384966"/>
     <use style="fill:#98df8a;stroke:#ffffff;stroke-linejoin:miter;stroke-width:0.75;" x="241.724496" xlink:href="#medb9d037b9" y="153.819732"/>
     <use style="fill:#98df8a;stroke:#ffffff;stroke-linejoin:miter;stroke-width:0.75;" x="247.971723" xlink:href="#medb9d037b9" y="153.678424"/>
     <use style="fill:#98df8a;stroke:#ffffff;stroke-linejoin:miter;stroke-width:0.75;" x="253.718615" xlink:href="#medb9d037b9" y="152.689265"/>
     <use style="fill:#98df8a;stroke:#ffffff;stroke-linejoin:miter;stroke-width:0.75;" x="259.039406" xlink:href="#medb9d037b9" y="151.700106"/>
     <use style="fill:#98df8a;stroke:#ffffff;stroke-linejoin:miter;stroke-width:0.75;" x="263.992943" xlink:href="#medb9d037b9" y="149.721789"/>
     <use style="fill:#98df8a;stroke:#ffffff;stroke-linejoin:miter;stroke-width:0.75;" x="268.626668" xlink:href="#medb9d037b9" y="148.308704"/>
     <use style="fill:#98df8a;stroke:#ffffff;stroke-linejoin:miter;stroke-width:0.75;" x="272.979383" xlink:href="#medb9d037b9" y="146.613004"/>
     <use style="fill:#98df8a;stroke:#ffffff;stroke-linejoin:miter;stroke-width:0.75;" x="277.083233" xlink:href="#medb9d037b9" y="146.613004"/>
     <use style="fill:#98df8a;stroke:#ffffff;stroke-linejoin:miter;stroke-width:0.75;" x="280.965141" xlink:href="#medb9d037b9" y="148.450013"/>
     <use style="fill:#98df8a;stroke:#ffffff;stroke-linejoin:miter;stroke-width:0.75;" x="284.647888" xlink:href="#medb9d037b9" y="148.450013"/>
     <use style="fill:#98df8a;stroke:#ffffff;stroke-linejoin:miter;stroke-width:0.75;" x="288.150915" xlink:href="#medb9d037b9" y="148.308704"/>
     <use style="fill:#98df8a;stroke:#ffffff;stroke-linejoin:miter;stroke-width:0.75;" x="291.49095" xlink:href="#medb9d037b9" y="128.525527"/>
     <use style="fill:#98df8a;stroke:#ffffff;stroke-linejoin:miter;stroke-width:0.75;" x="294.68249" xlink:href="#medb9d037b9" y="106.198798"/>
     <use style="fill:#98df8a;stroke:#ffffff;stroke-linejoin:miter;stroke-width:0.75;" x="297.738177" xlink:href="#medb9d037b9" y="106.198798"/>
     <use style="fill:#98df8a;stroke:#ffffff;stroke-linejoin:miter;stroke-width:0.75;" x="300.669107" xlink:href="#medb9d037b9" y="128.101602"/>
     <use style="fill:#98df8a;stroke:#ffffff;stroke-linejoin:miter;stroke-width:0.75;" x="303.485069" xlink:href="#medb9d037b9" y="127.960293"/>
     <use style="fill:#98df8a;stroke:#ffffff;stroke-linejoin:miter;stroke-width:0.75;" x="306.194742" xlink:href="#medb9d037b9" y="127.960293"/>
     <use style="fill:#98df8a;stroke:#ffffff;stroke-linejoin:miter;stroke-width:0.75;" x="308.805859" xlink:href="#medb9d037b9" y="106.198798"/>
     <use style="fill:#98df8a;stroke:#ffffff;stroke-linejoin:miter;stroke-width:0.75;" x="311.32534" xlink:href="#medb9d037b9" y="105.916181"/>
     <use style="fill:#98df8a;stroke:#ffffff;stroke-linejoin:miter;stroke-width:0.75;" x="313.759397" xlink:href="#medb9d037b9" y="126.829826"/>
     <use style="fill:#98df8a;stroke:#ffffff;stroke-linejoin:miter;stroke-width:0.75;" x="316.113635" xlink:href="#medb9d037b9" y="126.829826"/>
     <use style="fill:#98df8a;stroke:#ffffff;stroke-linejoin:miter;stroke-width:0.75;" x="318.393122" xlink:href="#medb9d037b9" y="105.916181"/>
     <use style="fill:#98df8a;stroke:#ffffff;stroke-linejoin:miter;stroke-width:0.75;" x="320.60246" xlink:href="#medb9d037b9" y="105.916181"/>
     <use style="fill:#98df8a;stroke:#ffffff;stroke-linejoin:miter;stroke-width:0.75;" x="322.745837" xlink:href="#medb9d037b9" y="105.916181"/>
     <use style="fill:#98df8a;stroke:#ffffff;stroke-linejoin:miter;stroke-width:0.75;" x="324.827079" xlink:href="#medb9d037b9" y="105.916181"/>
     <use style="fill:#98df8a;stroke:#ffffff;stroke-linejoin:miter;stroke-width:0.75;" x="326.849687" xlink:href="#medb9d037b9" y="97.013751"/>
     <use style="fill:#98df8a;stroke:#ffffff;stroke-linejoin:miter;stroke-width:0.75;" x="328.816873" xlink:href="#medb9d037b9" y="101.394312"/>
     <use style="fill:#98df8a;stroke:#ffffff;stroke-linejoin:miter;stroke-width:0.75;" x="330.731595" xlink:href="#medb9d037b9" y="113.264218"/>
     <use style="fill:#98df8a;stroke:#ffffff;stroke-linejoin:miter;stroke-width:0.75;" x="332.596578" xlink:href="#medb9d037b9" y="111.851134"/>
     <use style="fill:#98df8a;stroke:#ffffff;stroke-linejoin:miter;stroke-width:0.75;" x="334.414342" xlink:href="#medb9d037b9" y="111.568518"/>
     <use style="fill:#98df8a;stroke:#ffffff;stroke-linejoin:miter;stroke-width:0.75;" x="336.187217" xlink:href="#medb9d037b9" y="94.046275"/>
     <use style="fill:#98df8a;stroke:#ffffff;stroke-linejoin:miter;stroke-width:0.75;" x="337.917369" xlink:href="#medb9d037b9" y="94.046275"/>
     <use style="fill:#98df8a;stroke:#ffffff;stroke-linejoin:miter;stroke-width:0.75;" x="339.606807" xlink:href="#medb9d037b9" y="93.057116"/>
     <use style="fill:#98df8a;stroke:#ffffff;stroke-linejoin:miter;stroke-width:0.75;" x="341.257404" xlink:href="#medb9d037b9" y="93.057116"/>
     <use style="fill:#98df8a;stroke:#ffffff;stroke-linejoin:miter;stroke-width:0.75;" x="342.870906" xlink:href="#medb9d037b9" y="96.589826"/>
     <use style="fill:#98df8a;stroke:#ffffff;stroke-linejoin:miter;stroke-width:0.75;" x="344.448944" xlink:href="#medb9d037b9" y="96.024592"/>
     <use style="fill:#98df8a;stroke:#ffffff;stroke-linejoin:miter;stroke-width:0.75;" x="345.993042" xlink:href="#medb9d037b9" y="110.579359"/>
     <use style="fill:#98df8a;stroke:#ffffff;stroke-linejoin:miter;stroke-width:0.75;" x="347.504631" xlink:href="#medb9d037b9" y="110.579359"/>
     <use style="fill:#98df8a;stroke:#ffffff;stroke-linejoin:miter;stroke-width:0.75;" x="348.985051" xlink:href="#medb9d037b9" y="93.057116"/>
     <use style="fill:#98df8a;stroke:#ffffff;stroke-linejoin:miter;stroke-width:0.75;" x="350.435561" xlink:href="#medb9d037b9" y="90.089639"/>
     <use style="fill:#98df8a;stroke:#ffffff;stroke-linejoin:miter;stroke-width:0.75;" x="351.857347" xlink:href="#medb9d037b9" y="93.057116"/>
     <use style="fill:#98df8a;stroke:#ffffff;stroke-linejoin:miter;stroke-width:0.75;" x="353.251523" xlink:href="#medb9d037b9" y="93.057116"/>
     <use style="fill:#98df8a;stroke:#ffffff;stroke-linejoin:miter;stroke-width:0.75;" x="354.619142" xlink:href="#medb9d037b9" y="90.089639"/>
     <use style="fill:#98df8a;stroke:#ffffff;stroke-linejoin:miter;stroke-width:0.75;" x="355.961196" xlink:href="#medb9d037b9" y="90.089639"/>
     <use style="fill:#98df8a;stroke:#ffffff;stroke-linejoin:miter;stroke-width:0.75;" x="357.278624" xlink:href="#medb9d037b9" y="89.10048"/>
     <use style="fill:#98df8a;stroke:#ffffff;stroke-linejoin:miter;stroke-width:0.75;" x="358.572313" xlink:href="#medb9d037b9" y="90.089639"/>
     <use style="fill:#98df8a;stroke:#ffffff;stroke-linejoin:miter;stroke-width:0.75;" x="359.843104" xlink:href="#medb9d037b9" y="95.741975"/>
     <use style="fill:#98df8a;stroke:#ffffff;stroke-linejoin:miter;stroke-width:0.75;" x="361.091794" xlink:href="#medb9d037b9" y="95.883284"/>
     <use style="fill:#98df8a;stroke:#ffffff;stroke-linejoin:miter;stroke-width:0.75;" x="362.319136" xlink:href="#medb9d037b9" y="95.741975"/>
     <use style="fill:#98df8a;stroke:#ffffff;stroke-linejoin:miter;stroke-width:0.75;" x="363.525851" xlink:href="#medb9d037b9" y="95.741975"/>
     <use style="fill:#98df8a;stroke:#ffffff;stroke-linejoin:miter;stroke-width:0.75;" x="364.712619" xlink:href="#medb9d037b9" y="92.915807"/>
     <use style="fill:#98df8a;stroke:#ffffff;stroke-linejoin:miter;stroke-width:0.75;" x="365.880089" xlink:href="#medb9d037b9" y="90.089639"/>
     <use style="fill:#98df8a;stroke:#ffffff;stroke-linejoin:miter;stroke-width:0.75;" x="367.028878" xlink:href="#medb9d037b9" y="90.089639"/>
     <use style="fill:#98df8a;stroke:#ffffff;stroke-linejoin:miter;stroke-width:0.75;" x="368.159576" xlink:href="#medb9d037b9" y="90.089639"/>
     <use style="fill:#98df8a;stroke:#ffffff;stroke-linejoin:miter;stroke-width:0.75;" x="369.272743" xlink:href="#medb9d037b9" y="90.089639"/>
     <use style="fill:#98df8a;stroke:#ffffff;stroke-linejoin:miter;stroke-width:0.75;" x="370.368914" xlink:href="#medb9d037b9" y="90.089639"/>
     <use style="fill:#98df8a;stroke:#ffffff;stroke-linejoin:miter;stroke-width:0.75;" x="371.4486" xlink:href="#medb9d037b9" y="92.350574"/>
     <use style="fill:#98df8a;stroke:#ffffff;stroke-linejoin:miter;stroke-width:0.75;" x="372.512291" xlink:href="#medb9d037b9" y="92.350574"/>
     <use style="fill:#98df8a;stroke:#ffffff;stroke-linejoin:miter;stroke-width:0.75;" x="373.560453" xlink:href="#medb9d037b9" y="94.611508"/>
     <use style="fill:#98df8a;stroke:#ffffff;stroke-linejoin:miter;stroke-width:0.75;" x="374.593533" xlink:href="#medb9d037b9" y="92.350574"/>
     <use style="fill:#98df8a;stroke:#ffffff;stroke-linejoin:miter;stroke-width:0.75;" x="375.611959" xlink:href="#medb9d037b9" y="90.089639"/>
     <use style="fill:#98df8a;stroke:#ffffff;stroke-linejoin:miter;stroke-width:0.75;" x="376.616141" xlink:href="#medb9d037b9" y="89.10048"/>
     <use style="fill:#98df8a;stroke:#ffffff;stroke-linejoin:miter;stroke-width:0.75;" x="377.606471" xlink:href="#medb9d037b9" y="88.111321"/>
     <use style="fill:#98df8a;stroke:#ffffff;stroke-linejoin:miter;stroke-width:0.75;" x="378.583327" xlink:href="#medb9d037b9" y="88.111321"/>
     <use style="fill:#98df8a;stroke:#ffffff;stroke-linejoin:miter;stroke-width:0.75;" x="379.547071" xlink:href="#medb9d037b9" y="86.41562"/>
     <use style="fill:#98df8a;stroke:#ffffff;stroke-linejoin:miter;stroke-width:0.75;" x="380.498049" xlink:href="#medb9d037b9" y="84.719919"/>
     <use style="fill:#98df8a;stroke:#ffffff;stroke-linejoin:miter;stroke-width:0.75;" x="381.436596" xlink:href="#medb9d037b9" y="82.741602"/>
     <use style="fill:#98df8a;stroke:#ffffff;stroke-linejoin:miter;stroke-width:0.75;" x="382.363032" xlink:href="#medb9d037b9" y="82.741602"/>
     <use style="fill:#98df8a;stroke:#ffffff;stroke-linejoin:miter;stroke-width:0.75;" x="383.277666" xlink:href="#medb9d037b9" y="86.41562"/>
     <use style="fill:#98df8a;stroke:#ffffff;stroke-linejoin:miter;stroke-width:0.75;" x="384.180795" xlink:href="#medb9d037b9" y="86.41562"/>
     <use style="fill:#98df8a;stroke:#ffffff;stroke-linejoin:miter;stroke-width:0.75;" x="385.072705" xlink:href="#medb9d037b9" y="86.41562"/>
     <use style="fill:#98df8a;stroke:#ffffff;stroke-linejoin:miter;stroke-width:0.75;" x="385.953671" xlink:href="#medb9d037b9" y="84.719919"/>
     <use style="fill:#98df8a;stroke:#ffffff;stroke-linejoin:miter;stroke-width:0.75;" x="386.823958" xlink:href="#medb9d037b9" y="84.719919"/>
     <use style="fill:#98df8a;stroke:#ffffff;stroke-linejoin:miter;stroke-width:0.75;" x="387.683823" xlink:href="#medb9d037b9" y="84.719919"/>
     <use style="fill:#98df8a;stroke:#ffffff;stroke-linejoin:miter;stroke-width:0.75;" x="388.533511" xlink:href="#medb9d037b9" y="84.719919"/>
     <use style="fill:#98df8a;stroke:#ffffff;stroke-linejoin:miter;stroke-width:0.75;" x="389.373261" xlink:href="#medb9d037b9" y="84.719919"/>
     <use style="fill:#98df8a;stroke:#ffffff;stroke-linejoin:miter;stroke-width:0.75;" x="390.203303" xlink:href="#medb9d037b9" y="84.719919"/>
     <use style="fill:#98df8a;stroke:#ffffff;stroke-linejoin:miter;stroke-width:0.75;" x="391.023858" xlink:href="#medb9d037b9" y="84.719919"/>
     <use style="fill:#98df8a;stroke:#ffffff;stroke-linejoin:miter;stroke-width:0.75;" x="391.835142" xlink:href="#medb9d037b9" y="84.719919"/>
     <use style="fill:#98df8a;stroke:#ffffff;stroke-linejoin:miter;stroke-width:0.75;" x="392.63736" xlink:href="#medb9d037b9" y="82.741602"/>
     <use style="fill:#98df8a;stroke:#ffffff;stroke-linejoin:miter;stroke-width:0.75;" x="393.430714" xlink:href="#medb9d037b9" y="84.719919"/>
     <use style="fill:#98df8a;stroke:#ffffff;stroke-linejoin:miter;stroke-width:0.75;" x="394.215398" xlink:href="#medb9d037b9" y="84.719919"/>
    </g>
   </g>
   <g id="line2d_30">
    <path clip-path="url(#p4622c02767)" d="M 69.560852 200.592817 
L 119.327306 172.331134 
L 148.438816 169.928891 
L 169.09376 161.026461 
L 185.11498 159.472069 
L 198.205269 160.743845 
L 209.272952 160.743845 
L 218.860214 158.200293 
L 227.316779 156.928518 
L 234.881434 156.645901 
L 241.724496 155.939359 
L 247.971723 154.808891 
L 253.718615 154.808891 
L 259.039406 154.384966 
L 263.992943 155.091508 
L 268.626668 153.537116 
L 272.979383 151.841415 
L 277.083233 151.841415 
L 280.965141 150.710947 
L 284.647888 150.710947 
L 288.150915 150.004405 
L 291.49095 150.428331 
L 294.68249 150.852256 
L 297.738177 150.004405 
L 300.669107 147.602162 
L 303.485069 148.026088 
L 306.194742 146.89562 
L 308.805859 147.178237 
L 311.32534 146.613004 
L 313.759397 146.613004 
L 316.113635 146.613004 
L 318.393122 146.613004 
L 320.60246 146.613004 
L 322.745837 146.613004 
L 324.827079 146.613004 
L 326.849687 139.264966 
L 328.816873 146.613004 
L 330.731595 147.178237 
L 332.596578 146.613004 
L 334.414342 146.613004 
L 336.187217 146.613004 
L 337.917369 146.613004 
L 339.606807 146.613004 
L 341.257404 146.613004 
L 342.870906 146.613004 
L 344.448944 146.613004 
L 345.993042 146.613004 
L 347.504631 146.613004 
L 348.985051 123.438424 
L 350.435561 122.307957 
L 351.857347 121.742723 
L 353.251523 120.753564 
L 354.619142 120.753564 
L 355.961196 120.612256 
L 357.278624 120.612256 
L 358.572313 141.525901 
L 359.843104 141.525901 
L 361.091794 141.525901 
L 362.319136 137.004032 
L 363.525851 137.004032 
L 364.712619 137.004032 
L 365.880089 137.710574 
L 367.028878 137.710574 
L 368.159576 137.710574 
L 369.272743 137.710574 
L 370.368914 137.710574 
L 371.4486 137.004032 
L 372.512291 137.004032 
L 373.560453 137.004032 
L 374.593533 137.004032 
L 375.611959 137.004032 
L 376.616141 137.004032 
L 377.606471 125.699359 
L 378.583327 125.699359 
L 379.547071 125.699359 
L 380.498049 125.699359 
L 381.436596 114.394686 
L 382.363032 114.394686 
L 383.277666 114.394686 
L 384.180795 114.394686 
L 385.072705 114.394686 
L 385.953671 114.394686 
L 386.823958 114.394686 
L 387.683823 114.394686 
L 388.533511 125.699359 
L 389.373261 125.699359 
L 390.203303 125.699359 
L 391.023858 125.699359 
L 391.835142 114.394686 
L 392.63736 98.285527 
L 393.430714 94.187583 
L 394.215398 94.187583 
" style="fill:none;stroke:#1f77b4;stroke-linecap:square;stroke-width:1.5;"/>
    <defs>
     <path d="M 0 3 
C 0.795609 3 1.55874 2.683901 2.12132 2.12132 
C 2.683901 1.55874 3 0.795609 3 0 
C 3 -0.795609 2.683901 -1.55874 2.12132 -2.12132 
C 1.55874 -2.683901 0.795609 -3 0 -3 
C -0.795609 -3 -1.55874 -2.683901 -2.12132 -2.12132 
C -2.683901 -1.55874 -3 -0.795609 -3 0 
C -3 0.795609 -2.683901 1.55874 -2.12132 2.12132 
C -1.55874 2.683901 -0.795609 3 0 3 
z
" id="mb6863e7bed" style="stroke:#ffffff;stroke-width:0.75;"/>
    </defs>
    <g clip-path="url(#p4622c02767)">
     <use style="fill:#1f77b4;stroke:#ffffff;stroke-width:0.75;" x="69.560852" xlink:href="#mb6863e7bed" y="200.592817"/>
     <use style="fill:#1f77b4;stroke:#ffffff;stroke-width:0.75;" x="119.327306" xlink:href="#mb6863e7bed" y="172.331134"/>
     <use style="fill:#1f77b4;stroke:#ffffff;stroke-width:0.75;" x="148.438816" xlink:href="#mb6863e7bed" y="169.928891"/>
     <use style="fill:#1f77b4;stroke:#ffffff;stroke-width:0.75;" x="169.09376" xlink:href="#mb6863e7bed" y="161.026461"/>
     <use style="fill:#1f77b4;stroke:#ffffff;stroke-width:0.75;" x="185.11498" xlink:href="#mb6863e7bed" y="159.472069"/>
     <use style="fill:#1f77b4;stroke:#ffffff;stroke-width:0.75;" x="198.205269" xlink:href="#mb6863e7bed" y="160.743845"/>
     <use style="fill:#1f77b4;stroke:#ffffff;stroke-width:0.75;" x="209.272952" xlink:href="#mb6863e7bed" y="160.743845"/>
     <use style="fill:#1f77b4;stroke:#ffffff;stroke-width:0.75;" x="218.860214" xlink:href="#mb6863e7bed" y="158.200293"/>
     <use style="fill:#1f77b4;stroke:#ffffff;stroke-width:0.75;" x="227.316779" xlink:href="#mb6863e7bed" y="156.928518"/>
     <use style="fill:#1f77b4;stroke:#ffffff;stroke-width:0.75;" x="234.881434" xlink:href="#mb6863e7bed" y="156.645901"/>
     <use style="fill:#1f77b4;stroke:#ffffff;stroke-width:0.75;" x="241.724496" xlink:href="#mb6863e7bed" y="155.939359"/>
     <use style="fill:#1f77b4;stroke:#ffffff;stroke-width:0.75;" x="247.971723" xlink:href="#mb6863e7bed" y="154.808891"/>
     <use style="fill:#1f77b4;stroke:#ffffff;stroke-width:0.75;" x="253.718615" xlink:href="#mb6863e7bed" y="154.808891"/>
     <use style="fill:#1f77b4;stroke:#ffffff;stroke-width:0.75;" x="259.039406" xlink:href="#mb6863e7bed" y="154.384966"/>
     <use style="fill:#1f77b4;stroke:#ffffff;stroke-width:0.75;" x="263.992943" xlink:href="#mb6863e7bed" y="155.091508"/>
     <use style="fill:#1f77b4;stroke:#ffffff;stroke-width:0.75;" x="268.626668" xlink:href="#mb6863e7bed" y="153.537116"/>
     <use style="fill:#1f77b4;stroke:#ffffff;stroke-width:0.75;" x="272.979383" xlink:href="#mb6863e7bed" y="151.841415"/>
     <use style="fill:#1f77b4;stroke:#ffffff;stroke-width:0.75;" x="277.083233" xlink:href="#mb6863e7bed" y="151.841415"/>
     <use style="fill:#1f77b4;stroke:#ffffff;stroke-width:0.75;" x="280.965141" xlink:href="#mb6863e7bed" y="150.710947"/>
     <use style="fill:#1f77b4;stroke:#ffffff;stroke-width:0.75;" x="284.647888" xlink:href="#mb6863e7bed" y="150.710947"/>
     <use style="fill:#1f77b4;stroke:#ffffff;stroke-width:0.75;" x="288.150915" xlink:href="#mb6863e7bed" y="150.004405"/>
     <use style="fill:#1f77b4;stroke:#ffffff;stroke-width:0.75;" x="291.49095" xlink:href="#mb6863e7bed" y="150.428331"/>
     <use style="fill:#1f77b4;stroke:#ffffff;stroke-width:0.75;" x="294.68249" xlink:href="#mb6863e7bed" y="150.852256"/>
     <use style="fill:#1f77b4;stroke:#ffffff;stroke-width:0.75;" x="297.738177" xlink:href="#mb6863e7bed" y="150.004405"/>
     <use style="fill:#1f77b4;stroke:#ffffff;stroke-width:0.75;" x="300.669107" xlink:href="#mb6863e7bed" y="147.602162"/>
     <use style="fill:#1f77b4;stroke:#ffffff;stroke-width:0.75;" x="303.485069" xlink:href="#mb6863e7bed" y="148.026088"/>
     <use style="fill:#1f77b4;stroke:#ffffff;stroke-width:0.75;" x="306.194742" xlink:href="#mb6863e7bed" y="146.89562"/>
     <use style="fill:#1f77b4;stroke:#ffffff;stroke-width:0.75;" x="308.805859" xlink:href="#mb6863e7bed" y="147.178237"/>
     <use style="fill:#1f77b4;stroke:#ffffff;stroke-width:0.75;" x="311.32534" xlink:href="#mb6863e7bed" y="146.613004"/>
     <use style="fill:#1f77b4;stroke:#ffffff;stroke-width:0.75;" x="313.759397" xlink:href="#mb6863e7bed" y="146.613004"/>
     <use style="fill:#1f77b4;stroke:#ffffff;stroke-width:0.75;" x="316.113635" xlink:href="#mb6863e7bed" y="146.613004"/>
     <use style="fill:#1f77b4;stroke:#ffffff;stroke-width:0.75;" x="318.393122" xlink:href="#mb6863e7bed" y="146.613004"/>
     <use style="fill:#1f77b4;stroke:#ffffff;stroke-width:0.75;" x="320.60246" xlink:href="#mb6863e7bed" y="146.613004"/>
     <use style="fill:#1f77b4;stroke:#ffffff;stroke-width:0.75;" x="322.745837" xlink:href="#mb6863e7bed" y="146.613004"/>
     <use style="fill:#1f77b4;stroke:#ffffff;stroke-width:0.75;" x="324.827079" xlink:href="#mb6863e7bed" y="146.613004"/>
     <use style="fill:#1f77b4;stroke:#ffffff;stroke-width:0.75;" x="326.849687" xlink:href="#mb6863e7bed" y="139.264966"/>
     <use style="fill:#1f77b4;stroke:#ffffff;stroke-width:0.75;" x="328.816873" xlink:href="#mb6863e7bed" y="146.613004"/>
     <use style="fill:#1f77b4;stroke:#ffffff;stroke-width:0.75;" x="330.731595" xlink:href="#mb6863e7bed" y="147.178237"/>
     <use style="fill:#1f77b4;stroke:#ffffff;stroke-width:0.75;" x="332.596578" xlink:href="#mb6863e7bed" y="146.613004"/>
     <use style="fill:#1f77b4;stroke:#ffffff;stroke-width:0.75;" x="334.414342" xlink:href="#mb6863e7bed" y="146.613004"/>
     <use style="fill:#1f77b4;stroke:#ffffff;stroke-width:0.75;" x="336.187217" xlink:href="#mb6863e7bed" y="146.613004"/>
     <use style="fill:#1f77b4;stroke:#ffffff;stroke-width:0.75;" x="337.917369" xlink:href="#mb6863e7bed" y="146.613004"/>
     <use style="fill:#1f77b4;stroke:#ffffff;stroke-width:0.75;" x="339.606807" xlink:href="#mb6863e7bed" y="146.613004"/>
     <use style="fill:#1f77b4;stroke:#ffffff;stroke-width:0.75;" x="341.257404" xlink:href="#mb6863e7bed" y="146.613004"/>
     <use style="fill:#1f77b4;stroke:#ffffff;stroke-width:0.75;" x="342.870906" xlink:href="#mb6863e7bed" y="146.613004"/>
     <use style="fill:#1f77b4;stroke:#ffffff;stroke-width:0.75;" x="344.448944" xlink:href="#mb6863e7bed" y="146.613004"/>
     <use style="fill:#1f77b4;stroke:#ffffff;stroke-width:0.75;" x="345.993042" xlink:href="#mb6863e7bed" y="146.613004"/>
     <use style="fill:#1f77b4;stroke:#ffffff;stroke-width:0.75;" x="347.504631" xlink:href="#mb6863e7bed" y="146.613004"/>
     <use style="fill:#1f77b4;stroke:#ffffff;stroke-width:0.75;" x="348.985051" xlink:href="#mb6863e7bed" y="123.438424"/>
     <use style="fill:#1f77b4;stroke:#ffffff;stroke-width:0.75;" x="350.435561" xlink:href="#mb6863e7bed" y="122.307957"/>
     <use style="fill:#1f77b4;stroke:#ffffff;stroke-width:0.75;" x="351.857347" xlink:href="#mb6863e7bed" y="121.742723"/>
     <use style="fill:#1f77b4;stroke:#ffffff;stroke-width:0.75;" x="353.251523" xlink:href="#mb6863e7bed" y="120.753564"/>
     <use style="fill:#1f77b4;stroke:#ffffff;stroke-width:0.75;" x="354.619142" xlink:href="#mb6863e7bed" y="120.753564"/>
     <use style="fill:#1f77b4;stroke:#ffffff;stroke-width:0.75;" x="355.961196" xlink:href="#mb6863e7bed" y="120.612256"/>
     <use style="fill:#1f77b4;stroke:#ffffff;stroke-width:0.75;" x="357.278624" xlink:href="#mb6863e7bed" y="120.612256"/>
     <use style="fill:#1f77b4;stroke:#ffffff;stroke-width:0.75;" x="358.572313" xlink:href="#mb6863e7bed" y="141.525901"/>
     <use style="fill:#1f77b4;stroke:#ffffff;stroke-width:0.75;" x="359.843104" xlink:href="#mb6863e7bed" y="141.525901"/>
     <use style="fill:#1f77b4;stroke:#ffffff;stroke-width:0.75;" x="361.091794" xlink:href="#mb6863e7bed" y="141.525901"/>
     <use style="fill:#1f77b4;stroke:#ffffff;stroke-width:0.75;" x="362.319136" xlink:href="#mb6863e7bed" y="137.004032"/>
     <use style="fill:#1f77b4;stroke:#ffffff;stroke-width:0.75;" x="363.525851" xlink:href="#mb6863e7bed" y="137.004032"/>
     <use style="fill:#1f77b4;stroke:#ffffff;stroke-width:0.75;" x="364.712619" xlink:href="#mb6863e7bed" y="137.004032"/>
     <use style="fill:#1f77b4;stroke:#ffffff;stroke-width:0.75;" x="365.880089" xlink:href="#mb6863e7bed" y="137.710574"/>
     <use style="fill:#1f77b4;stroke:#ffffff;stroke-width:0.75;" x="367.028878" xlink:href="#mb6863e7bed" y="137.710574"/>
     <use style="fill:#1f77b4;stroke:#ffffff;stroke-width:0.75;" x="368.159576" xlink:href="#mb6863e7bed" y="137.710574"/>
     <use style="fill:#1f77b4;stroke:#ffffff;stroke-width:0.75;" x="369.272743" xlink:href="#mb6863e7bed" y="137.710574"/>
     <use style="fill:#1f77b4;stroke:#ffffff;stroke-width:0.75;" x="370.368914" xlink:href="#mb6863e7bed" y="137.710574"/>
     <use style="fill:#1f77b4;stroke:#ffffff;stroke-width:0.75;" x="371.4486" xlink:href="#mb6863e7bed" y="137.004032"/>
     <use style="fill:#1f77b4;stroke:#ffffff;stroke-width:0.75;" x="372.512291" xlink:href="#mb6863e7bed" y="137.004032"/>
     <use style="fill:#1f77b4;stroke:#ffffff;stroke-width:0.75;" x="373.560453" xlink:href="#mb6863e7bed" y="137.004032"/>
     <use style="fill:#1f77b4;stroke:#ffffff;stroke-width:0.75;" x="374.593533" xlink:href="#mb6863e7bed" y="137.004032"/>
     <use style="fill:#1f77b4;stroke:#ffffff;stroke-width:0.75;" x="375.611959" xlink:href="#mb6863e7bed" y="137.004032"/>
     <use style="fill:#1f77b4;stroke:#ffffff;stroke-width:0.75;" x="376.616141" xlink:href="#mb6863e7bed" y="137.004032"/>
     <use style="fill:#1f77b4;stroke:#ffffff;stroke-width:0.75;" x="377.606471" xlink:href="#mb6863e7bed" y="125.699359"/>
     <use style="fill:#1f77b4;stroke:#ffffff;stroke-width:0.75;" x="378.583327" xlink:href="#mb6863e7bed" y="125.699359"/>
     <use style="fill:#1f77b4;stroke:#ffffff;stroke-width:0.75;" x="379.547071" xlink:href="#mb6863e7bed" y="125.699359"/>
     <use style="fill:#1f77b4;stroke:#ffffff;stroke-width:0.75;" x="380.498049" xlink:href="#mb6863e7bed" y="125.699359"/>
     <use style="fill:#1f77b4;stroke:#ffffff;stroke-width:0.75;" x="381.436596" xlink:href="#mb6863e7bed" y="114.394686"/>
     <use style="fill:#1f77b4;stroke:#ffffff;stroke-width:0.75;" x="382.363032" xlink:href="#mb6863e7bed" y="114.394686"/>
     <use style="fill:#1f77b4;stroke:#ffffff;stroke-width:0.75;" x="383.277666" xlink:href="#mb6863e7bed" y="114.394686"/>
     <use style="fill:#1f77b4;stroke:#ffffff;stroke-width:0.75;" x="384.180795" xlink:href="#mb6863e7bed" y="114.394686"/>
     <use style="fill:#1f77b4;stroke:#ffffff;stroke-width:0.75;" x="385.072705" xlink:href="#mb6863e7bed" y="114.394686"/>
     <use style="fill:#1f77b4;stroke:#ffffff;stroke-width:0.75;" x="385.953671" xlink:href="#mb6863e7bed" y="114.394686"/>
     <use style="fill:#1f77b4;stroke:#ffffff;stroke-width:0.75;" x="386.823958" xlink:href="#mb6863e7bed" y="114.394686"/>
     <use style="fill:#1f77b4;stroke:#ffffff;stroke-width:0.75;" x="387.683823" xlink:href="#mb6863e7bed" y="114.394686"/>
     <use style="fill:#1f77b4;stroke:#ffffff;stroke-width:0.75;" x="388.533511" xlink:href="#mb6863e7bed" y="125.699359"/>
     <use style="fill:#1f77b4;stroke:#ffffff;stroke-width:0.75;" x="389.373261" xlink:href="#mb6863e7bed" y="125.699359"/>
     <use style="fill:#1f77b4;stroke:#ffffff;stroke-width:0.75;" x="390.203303" xlink:href="#mb6863e7bed" y="125.699359"/>
     <use style="fill:#1f77b4;stroke:#ffffff;stroke-width:0.75;" x="391.023858" xlink:href="#mb6863e7bed" y="125.699359"/>
     <use style="fill:#1f77b4;stroke:#ffffff;stroke-width:0.75;" x="391.835142" xlink:href="#mb6863e7bed" y="114.394686"/>
     <use style="fill:#1f77b4;stroke:#ffffff;stroke-width:0.75;" x="392.63736" xlink:href="#mb6863e7bed" y="98.285527"/>
     <use style="fill:#1f77b4;stroke:#ffffff;stroke-width:0.75;" x="393.430714" xlink:href="#mb6863e7bed" y="94.187583"/>
     <use style="fill:#1f77b4;stroke:#ffffff;stroke-width:0.75;" x="394.215398" xlink:href="#mb6863e7bed" y="94.187583"/>
    </g>
   </g>
   <g id="line2d_31"/>
   <g id="line2d_32"/>
   <g id="patch_3">
    <path d="M 53.328125 263.898985 
L 53.328125 37.805527 
" style="fill:none;stroke:#000000;stroke-linecap:square;stroke-linejoin:miter;stroke-width:0.8;"/>
   </g>
   <g id="patch_4">
    <path d="M 69.560852 288.430125 
L 394.216265 288.430125 
" style="fill:none;stroke:#000000;stroke-linecap:square;stroke-linejoin:miter;stroke-width:0.8;"/>
   </g>
   <g id="text_14">
    <!-- stb_stbi_read_fuzzer (23h, 13 trials/fuzzer) -->
    <g transform="translate(104.0375 16.318125)scale(0.12 -0.12)">
     <defs>
      <path d="M 2834 3397 
L 2834 2853 
Q 2591 2978 2328 3040 
Q 2066 3103 1784 3103 
Q 1356 3103 1142 2972 
Q 928 2841 928 2578 
Q 928 2378 1081 2264 
Q 1234 2150 1697 2047 
L 1894 2003 
Q 2506 1872 2764 1633 
Q 3022 1394 3022 966 
Q 3022 478 2636 193 
Q 2250 -91 1575 -91 
Q 1294 -91 989 -36 
Q 684 19 347 128 
L 347 722 
Q 666 556 975 473 
Q 1284 391 1588 391 
Q 1994 391 2212 530 
Q 2431 669 2431 922 
Q 2431 1156 2273 1281 
Q 2116 1406 1581 1522 
L 1381 1569 
Q 847 1681 609 1914 
Q 372 2147 372 2553 
Q 372 3047 722 3315 
Q 1072 3584 1716 3584 
Q 2034 3584 2315 3537 
Q 2597 3491 2834 3397 
z
" id="DejaVuSans-73" transform="scale(0.015625)"/>
      <path d="M 3116 1747 
Q 3116 2381 2855 2742 
Q 2594 3103 2138 3103 
Q 1681 3103 1420 2742 
Q 1159 2381 1159 1747 
Q 1159 1113 1420 752 
Q 1681 391 2138 391 
Q 2594 391 2855 752 
Q 3116 1113 3116 1747 
z
M 1159 2969 
Q 1341 3281 1617 3432 
Q 1894 3584 2278 3584 
Q 2916 3584 3314 3078 
Q 3713 2572 3713 1747 
Q 3713 922 3314 415 
Q 2916 -91 2278 -91 
Q 1894 -91 1617 61 
Q 1341 213 1159 525 
L 1159 0 
L 581 0 
L 581 4863 
L 1159 4863 
L 1159 2969 
z
" id="DejaVuSans-62" transform="scale(0.015625)"/>
      <path d="M 3263 -1063 
L 3263 -1509 
L -63 -1509 
L -63 -1063 
L 3263 -1063 
z
" id="DejaVuSans-5f" transform="scale(0.015625)"/>
      <path d="M 2375 4863 
L 2375 4384 
L 1825 4384 
Q 1516 4384 1395 4259 
Q 1275 4134 1275 3809 
L 1275 3500 
L 2222 3500 
L 2222 3053 
L 1275 3053 
L 1275 0 
L 697 0 
L 697 3053 
L 147 3053 
L 147 3500 
L 697 3500 
L 697 3744 
Q 697 4328 969 4595 
Q 1241 4863 1831 4863 
L 2375 4863 
z
" id="DejaVuSans-66" transform="scale(0.015625)"/>
      <path d="M 353 3500 
L 3084 3500 
L 3084 2975 
L 922 459 
L 3084 459 
L 3084 0 
L 275 0 
L 275 525 
L 2438 3041 
L 353 3041 
L 353 3500 
z
" id="DejaVuSans-7a" transform="scale(0.015625)"/>
      <path d="M 750 794 
L 1409 794 
L 1409 256 
L 897 -744 
L 494 -744 
L 750 256 
L 750 794 
z
" id="DejaVuSans-2c" transform="scale(0.015625)"/>
      <path d="M 603 4863 
L 1178 4863 
L 1178 0 
L 603 0 
L 603 4863 
z
" id="DejaVuSans-6c" transform="scale(0.015625)"/>
      <path d="M 1625 4666 
L 2156 4666 
L 531 -594 
L 0 -594 
L 1625 4666 
z
" id="DejaVuSans-2f" transform="scale(0.015625)"/>
     </defs>
     <use xlink:href="#DejaVuSans-73"/>
     <use x="52.099609" xlink:href="#DejaVuSans-74"/>
     <use x="91.308594" xlink:href="#DejaVuSans-62"/>
     <use x="154.785156" xlink:href="#DejaVuSans-5f"/>
     <use x="204.785156" xlink:href="#DejaVuSans-73"/>
     <use x="256.884766" xlink:href="#DejaVuSans-74"/>
     <use x="296.09375" xlink:href="#DejaVuSans-62"/>
     <use x="359.570312" xlink:href="#DejaVuSans-69"/>
     <use x="387.353516" xlink:href="#DejaVuSans-5f"/>
     <use x="437.353516" xlink:href="#DejaVuSans-72"/>
     <use x="476.216797" xlink:href="#DejaVuSans-65"/>
     <use x="537.740234" xlink:href="#DejaVuSans-61"/>
     <use x="599.019531" xlink:href="#DejaVuSans-64"/>
     <use x="662.496094" xlink:href="#DejaVuSans-5f"/>
     <use x="712.496094" xlink:href="#DejaVuSans-66"/>
     <use x="747.701172" xlink:href="#DejaVuSans-75"/>
     <use x="811.080078" xlink:href="#DejaVuSans-7a"/>
     <use x="863.570312" xlink:href="#DejaVuSans-7a"/>
     <use x="916.060547" xlink:href="#DejaVuSans-65"/>
     <use x="977.583984" xlink:href="#DejaVuSans-72"/>
     <use x="1018.697266" xlink:href="#DejaVuSans-20"/>
     <use x="1050.484375" xlink:href="#DejaVuSans-28"/>
     <use x="1089.498047" xlink:href="#DejaVuSans-32"/>
     <use x="1153.121094" xlink:href="#DejaVuSans-33"/>
     <use x="1216.744141" xlink:href="#DejaVuSans-68"/>
     <use x="1280.123047" xlink:href="#DejaVuSans-2c"/>
     <use x="1311.910156" xlink:href="#DejaVuSans-20"/>
     <use x="1343.697266" xlink:href="#DejaVuSans-31"/>
     <use x="1407.320312" xlink:href="#DejaVuSans-33"/>
     <use x="1470.943359" xlink:href="#DejaVuSans-20"/>
     <use x="1502.730469" xlink:href="#DejaVuSans-74"/>
     <use x="1541.939453" xlink:href="#DejaVuSans-72"/>
     <use x="1583.052734" xlink:href="#DejaVuSans-69"/>
     <use x="1610.835938" xlink:href="#DejaVuSans-61"/>
     <use x="1672.115234" xlink:href="#DejaVuSans-6c"/>
     <use x="1699.898438" xlink:href="#DejaVuSans-73"/>
     <use x="1751.998047" xlink:href="#DejaVuSans-2f"/>
     <use x="1785.689453" xlink:href="#DejaVuSans-66"/>
     <use x="1820.894531" xlink:href="#DejaVuSans-75"/>
     <use x="1884.273438" xlink:href="#DejaVuSans-7a"/>
     <use x="1936.763672" xlink:href="#DejaVuSans-7a"/>
     <use x="1989.253906" xlink:href="#DejaVuSans-65"/>
     <use x="2050.777344" xlink:href="#DejaVuSans-72"/>
     <use x="2091.890625" xlink:href="#DejaVuSans-29"/>
    </g>
   </g>
   <g id="legend_1">
    <g id="line2d_33">
     <path d="M 414.448125 30.416562 
L 434.448125 30.416562 
" style="fill:none;stroke:#98df8a;stroke-linecap:square;stroke-width:1.5;"/>
    </g>
    <g id="line2d_34">
     <defs>
      <path d="M -0 3 
L 3 -3 
L -3 -3 
z
" id="me0d99728a6" style="stroke:#98df8a;stroke-linejoin:miter;"/>
     </defs>
     <g>
      <use style="fill:#98df8a;stroke:#98df8a;stroke-linejoin:miter;" x="424.448125" xlink:href="#me0d99728a6" y="30.416562"/>
     </g>
    </g>
    <g id="text_15">
     <!-- afl_collision_free -->
     <g transform="translate(442.448125 33.916562)scale(0.1 -0.1)">
      <use xlink:href="#DejaVuSans-61"/>
      <use x="61.279297" xlink:href="#DejaVuSans-66"/>
      <use x="96.484375" xlink:href="#DejaVuSans-6c"/>
      <use x="124.267578" xlink:href="#DejaVuSans-5f"/>
      <use x="174.267578" xlink:href="#DejaVuSans-63"/>
      <use x="229.248047" xlink:href="#DejaVuSans-6f"/>
      <use x="290.429688" xlink:href="#DejaVuSans-6c"/>
      <use x="318.212891" xlink:href="#DejaVuSans-6c"/>
      <use x="345.996094" xlink:href="#DejaVuSans-69"/>
      <use x="373.779297" xlink:href="#DejaVuSans-73"/>
      <use x="425.878906" xlink:href="#DejaVuSans-69"/>
      <use x="453.662109" xlink:href="#DejaVuSans-6f"/>
      <use x="514.84375" xlink:href="#DejaVuSans-6e"/>
      <use x="578.222656" xlink:href="#DejaVuSans-5f"/>
      <use x="628.222656" xlink:href="#DejaVuSans-66"/>
      <use x="663.427734" xlink:href="#DejaVuSans-72"/>
      <use x="702.291016" xlink:href="#DejaVuSans-65"/>
      <use x="763.814453" xlink:href="#DejaVuSans-65"/>
     </g>
    </g>
    <g id="line2d_35">
     <path d="M 414.448125 45.372813 
L 434.448125 45.372813 
" style="fill:none;stroke:#1f77b4;stroke-linecap:square;stroke-width:1.5;"/>
    </g>
    <g id="line2d_36">
     <defs>
      <path d="M 0 3 
C 0.795609 3 1.55874 2.683901 2.12132 2.12132 
C 2.683901 1.55874 3 0.795609 3 0 
C 3 -0.795609 2.683901 -1.55874 2.12132 -2.12132 
C 1.55874 -2.683901 0.795609 -3 0 -3 
C -0.795609 -3 -1.55874 -2.683901 -2.12132 -2.12132 
C -2.683901 -1.55874 -3 -0.795609 -3 0 
C -3 0.795609 -2.683901 1.55874 -2.12132 2.12132 
C -1.55874 2.683901 -0.795609 3 0 3 
z
" id="mc661afb81d" style="stroke:#1f77b4;"/>
     </defs>
     <g>
      <use style="fill:#1f77b4;stroke:#1f77b4;" x="424.448125" xlink:href="#mc661afb81d" y="45.372813"/>
     </g>
    </g>
    <g id="text_16">
     <!-- afl -->
     <g transform="translate(442.448125 48.872813)scale(0.1 -0.1)">
      <use xlink:href="#DejaVuSans-61"/>
      <use x="61.279297" xlink:href="#DejaVuSans-66"/>
      <use x="96.484375" xlink:href="#DejaVuSans-6c"/>
     </g>
    </g>
   </g>
  </g>
 </g>
 <defs>
  <clipPath id="p4622c02767">
   <rect height="266.112" width="357.12" x="53.328125" y="22.318125"/>
  </clipPath>
 </defs>
</svg>
