<?xml version="1.0" encoding="utf-8" standalone="no"?>
<!DOCTYPE svg PUBLIC "-//W3C//DTD SVG 1.1//EN"
  "http://www.w3.org/Graphics/SVG/1.1/DTD/svg11.dtd">
<svg height="450.041687pt" version="1.1" viewBox="0 0 527.503788 450.041687" width="527.503788pt" xmlns="http://www.w3.org/2000/svg" xmlns:xlink="http://www.w3.org/1999/xlink">
 <metadata>
  <rdf:RDF xmlns:cc="http://creativecommons.org/ns#" xmlns:dc="http://purl.org/dc/elements/1.1/" xmlns:rdf="http://www.w3.org/1999/02/22-rdf-syntax-ns#">
   <cc:Work>
    <dc:type rdf:resource="http://purl.org/dc/dcmitype/StillImage"/>
    <dc:date>2022-05-31T12:20:31.548931</dc:date>
    <dc:format>image/svg+xml</dc:format>
    <dc:creator>
     <cc:Agent>
      <dc:title>Matplotlib v3.4.3, https://matplotlib.org/</dc:title>
     </cc:Agent>
    </dc:creator>
   </cc:Work>
  </rdf:RDF>
 </metadata>
 <defs>
  <style type="text/css">*{stroke-linecap:butt;stroke-linejoin:round;}</style>
 </defs>
 <g id="figure_1">
  <g id="patch_1">
   <path d="M 0 450.041687 
L 527.503788 450.041687 
L 527.503788 -0 
L 0 -0 
z
" style="fill:#ffffff;"/>
  </g>
  <g id="axes_1">
   <g id="patch_2">
    <path d="M 176.729688 273.312 
L 442.841687 273.312 
L 442.841687 7.2 
L 176.729688 7.2 
z
" style="fill:#ffffff;"/>
   </g>
   <g id="QuadMesh_1">
    <path clip-path="url(#p462796f349)" d="M 176.729688 7.2 
L 229.952088 7.2 
L 229.952088 60.4224 
L 176.729688 60.4224 
L 176.729688 7.2 
" style="fill:none;stroke:#808080;stroke-width:0.5;"/>
    <path clip-path="url(#p462796f349)" d="M 229.952088 7.2 
L 283.174487 7.2 
L 283.174487 60.4224 
L 229.952088 60.4224 
L 229.952088 7.2 
" style="fill:#fbd7d4;stroke:#808080;stroke-width:0.5;"/>
    <path clip-path="url(#p462796f349)" d="M 283.174487 7.2 
L 336.396887 7.2 
L 336.396887 60.4224 
L 283.174487 60.4224 
L 283.174487 7.2 
" style="fill:#238b45;stroke:#808080;stroke-width:0.5;"/>
    <path clip-path="url(#p462796f349)" d="M 336.396887 7.2 
L 389.619287 7.2 
L 389.619287 60.4224 
L 336.396887 60.4224 
L 336.396887 7.2 
" style="fill:#fbd7d4;stroke:#808080;stroke-width:0.5;"/>
    <path clip-path="url(#p462796f349)" d="M 389.619287 7.2 
L 442.841687 7.2 
L 442.841687 60.4224 
L 389.619287 60.4224 
L 389.619287 7.2 
" style="fill:#fbd7d4;stroke:#808080;stroke-width:0.5;"/>
    <path clip-path="url(#p462796f349)" d="M 176.729688 60.4224 
L 229.952088 60.4224 
L 229.952088 113.6448 
L 176.729688 113.6448 
L 176.729688 60.4224 
" style="fill:#fbd7d4;stroke:#808080;stroke-width:0.5;"/>
    <path clip-path="url(#p462796f349)" d="M 229.952088 60.4224 
L 283.174487 60.4224 
L 283.174487 113.6448 
L 229.952088 113.6448 
L 229.952088 60.4224 
" style="fill:none;stroke:#808080;stroke-width:0.5;"/>
    <path clip-path="url(#p462796f349)" d="M 283.174487 60.4224 
L 336.396887 60.4224 
L 336.396887 113.6448 
L 283.174487 113.6448 
L 283.174487 60.4224 
" style="fill:#a1d99b;stroke:#808080;stroke-width:0.5;"/>
    <path clip-path="url(#p462796f349)" d="M 336.396887 60.4224 
L 389.619287 60.4224 
L 389.619287 113.6448 
L 336.396887 113.6448 
L 336.396887 60.4224 
" style="fill:#fbd7d4;stroke:#808080;stroke-width:0.5;"/>
    <path clip-path="url(#p462796f349)" d="M 389.619287 60.4224 
L 442.841687 60.4224 
L 442.841687 113.6448 
L 389.619287 113.6448 
L 389.619287 60.4224 
" style="fill:#fbd7d4;stroke:#808080;stroke-width:0.5;"/>
    <path clip-path="url(#p462796f349)" d="M 176.729688 113.6448 
L 229.952088 113.6448 
L 229.952088 166.8672 
L 176.729688 166.8672 
L 176.729688 113.6448 
" style="fill:#238b45;stroke:#808080;stroke-width:0.5;"/>
    <path clip-path="url(#p462796f349)" d="M 229.952088 113.6448 
L 283.174487 113.6448 
L 283.174487 166.8672 
L 229.952088 166.8672 
L 229.952088 113.6448 
" style="fill:#a1d99b;stroke:#808080;stroke-width:0.5;"/>
    <path clip-path="url(#p462796f349)" d="M 283.174487 113.6448 
L 336.396887 113.6448 
L 336.396887 166.8672 
L 283.174487 166.8672 
L 283.174487 113.6448 
" style="fill:none;stroke:#808080;stroke-width:0.5;"/>
    <path clip-path="url(#p462796f349)" d="M 336.396887 113.6448 
L 389.619287 113.6448 
L 389.619287 166.8672 
L 336.396887 166.8672 
L 336.396887 113.6448 
" style="fill:#238b45;stroke:#808080;stroke-width:0.5;"/>
    <path clip-path="url(#p462796f349)" d="M 389.619287 113.6448 
L 442.841687 113.6448 
L 442.841687 166.8672 
L 389.619287 166.8672 
L 389.619287 113.6448 
" style="fill:#fbd7d4;stroke:#808080;stroke-width:0.5;"/>
    <path clip-path="url(#p462796f349)" d="M 176.729688 166.8672 
L 229.952088 166.8672 
L 229.952088 220.0896 
L 176.729688 220.0896 
L 176.729688 166.8672 
" style="fill:#fbd7d4;stroke:#808080;stroke-width:0.5;"/>
    <path clip-path="url(#p462796f349)" d="M 229.952088 166.8672 
L 283.174487 166.8672 
L 283.174487 220.0896 
L 229.952088 220.0896 
L 229.952088 166.8672 
" style="fill:#fbd7d4;stroke:#808080;stroke-width:0.5;"/>
    <path clip-path="url(#p462796f349)" d="M 283.174487 166.8672 
L 336.396887 166.8672 
L 336.396887 220.0896 
L 283.174487 220.0896 
L 283.174487 166.8672 
" style="fill:#238b45;stroke:#808080;stroke-width:0.5;"/>
    <path clip-path="url(#p462796f349)" d="M 336.396887 166.8672 
L 389.619287 166.8672 
L 389.619287 220.0896 
L 336.396887 220.0896 
L 336.396887 166.8672 
" style="fill:none;stroke:#808080;stroke-width:0.5;"/>
    <path clip-path="url(#p462796f349)" d="M 389.619287 166.8672 
L 442.841687 166.8672 
L 442.841687 220.0896 
L 389.619287 220.0896 
L 389.619287 166.8672 
" style="fill:#fbd7d4;stroke:#808080;stroke-width:0.5;"/>
    <path clip-path="url(#p462796f349)" d="M 176.729688 220.0896 
L 229.952088 220.0896 
L 229.952088 273.312 
L 176.729688 273.312 
L 176.729688 220.0896 
" style="fill:#fbd7d4;stroke:#808080;stroke-width:0.5;"/>
    <path clip-path="url(#p462796f349)" d="M 229.952088 220.0896 
L 283.174487 220.0896 
L 283.174487 273.312 
L 229.952088 273.312 
L 229.952088 220.0896 
" style="fill:#fbd7d4;stroke:#808080;stroke-width:0.5;"/>
    <path clip-path="url(#p462796f349)" d="M 283.174487 220.0896 
L 336.396887 220.0896 
L 336.396887 273.312 
L 283.174487 273.312 
L 283.174487 220.0896 
" style="fill:#fbd7d4;stroke:#808080;stroke-width:0.5;"/>
    <path clip-path="url(#p462796f349)" d="M 336.396887 220.0896 
L 389.619287 220.0896 
L 389.619287 273.312 
L 336.396887 273.312 
L 336.396887 220.0896 
" style="fill:#fbd7d4;stroke:#808080;stroke-width:0.5;"/>
    <path clip-path="url(#p462796f349)" d="M 389.619287 220.0896 
L 442.841687 220.0896 
L 442.841687 273.312 
L 389.619287 273.312 
L 389.619287 220.0896 
" style="fill:none;stroke:#808080;stroke-width:0.5;"/>
   </g>
   <g id="matplotlib.axis_1">
    <g id="xtick_1">
     <g id="line2d_1">
      <defs>
       <path d="M 0 0 
L 0 3.5 
" id="m512875b9f2" style="stroke:#000000;stroke-width:0.8;"/>
      </defs>
      <g>
       <use style="stroke:#000000;stroke-width:0.8;" x="203.340888" xlink:href="#m512875b9f2" y="273.312"/>
      </g>
     </g>
     <g id="text_1">
      <!-- afl -->
      <g transform="translate(195.74245 280.312)rotate(-270)scale(0.1 -0.1)">
       <defs>
        <path d="M 2194 1759 
Q 1497 1759 1228 1600 
Q 959 1441 959 1056 
Q 959 750 1161 570 
Q 1363 391 1709 391 
Q 2188 391 2477 730 
Q 2766 1069 2766 1631 
L 2766 1759 
L 2194 1759 
z
M 3341 1997 
L 3341 0 
L 2766 0 
L 2766 531 
Q 2569 213 2275 61 
Q 1981 -91 1556 -91 
Q 1019 -91 701 211 
Q 384 513 384 1019 
Q 384 1609 779 1909 
Q 1175 2209 1959 2209 
L 2766 2209 
L 2766 2266 
Q 2766 2663 2505 2880 
Q 2244 3097 1772 3097 
Q 1472 3097 1187 3025 
Q 903 2953 641 2809 
L 641 3341 
Q 956 3463 1253 3523 
Q 1550 3584 1831 3584 
Q 2591 3584 2966 3190 
Q 3341 2797 3341 1997 
z
" id="DejaVuSans-61" transform="scale(0.015625)"/>
        <path d="M 2375 4863 
L 2375 4384 
L 1825 4384 
Q 1516 4384 1395 4259 
Q 1275 4134 1275 3809 
L 1275 3500 
L 2222 3500 
L 2222 3053 
L 1275 3053 
L 1275 0 
L 697 0 
L 697 3053 
L 147 3053 
L 147 3500 
L 697 3500 
L 697 3744 
Q 697 4328 969 4595 
Q 1241 4863 1831 4863 
L 2375 4863 
z
" id="DejaVuSans-66" transform="scale(0.015625)"/>
        <path d="M 603 4863 
L 1178 4863 
L 1178 0 
L 603 0 
L 603 4863 
z
" id="DejaVuSans-6c" transform="scale(0.015625)"/>
       </defs>
       <use xlink:href="#DejaVuSans-61"/>
       <use x="61.279297" xlink:href="#DejaVuSans-66"/>
       <use x="96.484375" xlink:href="#DejaVuSans-6c"/>
      </g>
     </g>
    </g>
    <g id="xtick_2">
     <g id="line2d_2">
      <g>
       <use style="stroke:#000000;stroke-width:0.8;" x="256.563288" xlink:href="#m512875b9f2" y="273.312"/>
      </g>
     </g>
     <g id="text_2">
      <!-- afl_score_max -->
      <g transform="translate(248.96485 280.312)rotate(-270)scale(0.1 -0.1)">
       <defs>
        <path d="M 3263 -1063 
L 3263 -1509 
L -63 -1509 
L -63 -1063 
L 3263 -1063 
z
" id="DejaVuSans-5f" transform="scale(0.015625)"/>
        <path d="M 2834 3397 
L 2834 2853 
Q 2591 2978 2328 3040 
Q 2066 3103 1784 3103 
Q 1356 3103 1142 2972 
Q 928 2841 928 2578 
Q 928 2378 1081 2264 
Q 1234 2150 1697 2047 
L 1894 2003 
Q 2506 1872 2764 1633 
Q 3022 1394 3022 966 
Q 3022 478 2636 193 
Q 2250 -91 1575 -91 
Q 1294 -91 989 -36 
Q 684 19 347 128 
L 347 722 
Q 666 556 975 473 
Q 1284 391 1588 391 
Q 1994 391 2212 530 
Q 2431 669 2431 922 
Q 2431 1156 2273 1281 
Q 2116 1406 1581 1522 
L 1381 1569 
Q 847 1681 609 1914 
Q 372 2147 372 2553 
Q 372 3047 722 3315 
Q 1072 3584 1716 3584 
Q 2034 3584 2315 3537 
Q 2597 3491 2834 3397 
z
" id="DejaVuSans-73" transform="scale(0.015625)"/>
        <path d="M 3122 3366 
L 3122 2828 
Q 2878 2963 2633 3030 
Q 2388 3097 2138 3097 
Q 1578 3097 1268 2742 
Q 959 2388 959 1747 
Q 959 1106 1268 751 
Q 1578 397 2138 397 
Q 2388 397 2633 464 
Q 2878 531 3122 666 
L 3122 134 
Q 2881 22 2623 -34 
Q 2366 -91 2075 -91 
Q 1284 -91 818 406 
Q 353 903 353 1747 
Q 353 2603 823 3093 
Q 1294 3584 2113 3584 
Q 2378 3584 2631 3529 
Q 2884 3475 3122 3366 
z
" id="DejaVuSans-63" transform="scale(0.015625)"/>
        <path d="M 1959 3097 
Q 1497 3097 1228 2736 
Q 959 2375 959 1747 
Q 959 1119 1226 758 
Q 1494 397 1959 397 
Q 2419 397 2687 759 
Q 2956 1122 2956 1747 
Q 2956 2369 2687 2733 
Q 2419 3097 1959 3097 
z
M 1959 3584 
Q 2709 3584 3137 3096 
Q 3566 2609 3566 1747 
Q 3566 888 3137 398 
Q 2709 -91 1959 -91 
Q 1206 -91 779 398 
Q 353 888 353 1747 
Q 353 2609 779 3096 
Q 1206 3584 1959 3584 
z
" id="DejaVuSans-6f" transform="scale(0.015625)"/>
        <path d="M 2631 2963 
Q 2534 3019 2420 3045 
Q 2306 3072 2169 3072 
Q 1681 3072 1420 2755 
Q 1159 2438 1159 1844 
L 1159 0 
L 581 0 
L 581 3500 
L 1159 3500 
L 1159 2956 
Q 1341 3275 1631 3429 
Q 1922 3584 2338 3584 
Q 2397 3584 2469 3576 
Q 2541 3569 2628 3553 
L 2631 2963 
z
" id="DejaVuSans-72" transform="scale(0.015625)"/>
        <path d="M 3597 1894 
L 3597 1613 
L 953 1613 
Q 991 1019 1311 708 
Q 1631 397 2203 397 
Q 2534 397 2845 478 
Q 3156 559 3463 722 
L 3463 178 
Q 3153 47 2828 -22 
Q 2503 -91 2169 -91 
Q 1331 -91 842 396 
Q 353 884 353 1716 
Q 353 2575 817 3079 
Q 1281 3584 2069 3584 
Q 2775 3584 3186 3129 
Q 3597 2675 3597 1894 
z
M 3022 2063 
Q 3016 2534 2758 2815 
Q 2500 3097 2075 3097 
Q 1594 3097 1305 2825 
Q 1016 2553 972 2059 
L 3022 2063 
z
" id="DejaVuSans-65" transform="scale(0.015625)"/>
        <path d="M 3328 2828 
Q 3544 3216 3844 3400 
Q 4144 3584 4550 3584 
Q 5097 3584 5394 3201 
Q 5691 2819 5691 2113 
L 5691 0 
L 5113 0 
L 5113 2094 
Q 5113 2597 4934 2840 
Q 4756 3084 4391 3084 
Q 3944 3084 3684 2787 
Q 3425 2491 3425 1978 
L 3425 0 
L 2847 0 
L 2847 2094 
Q 2847 2600 2669 2842 
Q 2491 3084 2119 3084 
Q 1678 3084 1418 2786 
Q 1159 2488 1159 1978 
L 1159 0 
L 581 0 
L 581 3500 
L 1159 3500 
L 1159 2956 
Q 1356 3278 1631 3431 
Q 1906 3584 2284 3584 
Q 2666 3584 2933 3390 
Q 3200 3197 3328 2828 
z
" id="DejaVuSans-6d" transform="scale(0.015625)"/>
        <path d="M 3513 3500 
L 2247 1797 
L 3578 0 
L 2900 0 
L 1881 1375 
L 863 0 
L 184 0 
L 1544 1831 
L 300 3500 
L 978 3500 
L 1906 2253 
L 2834 3500 
L 3513 3500 
z
" id="DejaVuSans-78" transform="scale(0.015625)"/>
       </defs>
       <use xlink:href="#DejaVuSans-61"/>
       <use x="61.279297" xlink:href="#DejaVuSans-66"/>
       <use x="96.484375" xlink:href="#DejaVuSans-6c"/>
       <use x="124.267578" xlink:href="#DejaVuSans-5f"/>
       <use x="174.267578" xlink:href="#DejaVuSans-73"/>
       <use x="226.367188" xlink:href="#DejaVuSans-63"/>
       <use x="281.347656" xlink:href="#DejaVuSans-6f"/>
       <use x="342.529297" xlink:href="#DejaVuSans-72"/>
       <use x="381.392578" xlink:href="#DejaVuSans-65"/>
       <use x="442.916016" xlink:href="#DejaVuSans-5f"/>
       <use x="492.916016" xlink:href="#DejaVuSans-6d"/>
       <use x="590.328125" xlink:href="#DejaVuSans-61"/>
       <use x="651.607422" xlink:href="#DejaVuSans-78"/>
      </g>
     </g>
    </g>
    <g id="xtick_3">
     <g id="line2d_3">
      <g>
       <use style="stroke:#000000;stroke-width:0.8;" x="309.785687" xlink:href="#m512875b9f2" y="273.312"/>
      </g>
     </g>
     <g id="text_3">
      <!-- afl_score_min -->
      <g transform="translate(302.18725 280.312)rotate(-270)scale(0.1 -0.1)">
       <defs>
        <path d="M 603 3500 
L 1178 3500 
L 1178 0 
L 603 0 
L 603 3500 
z
M 603 4863 
L 1178 4863 
L 1178 4134 
L 603 4134 
L 603 4863 
z
" id="DejaVuSans-69" transform="scale(0.015625)"/>
        <path d="M 3513 2113 
L 3513 0 
L 2938 0 
L 2938 2094 
Q 2938 2591 2744 2837 
Q 2550 3084 2163 3084 
Q 1697 3084 1428 2787 
Q 1159 2491 1159 1978 
L 1159 0 
L 581 0 
L 581 3500 
L 1159 3500 
L 1159 2956 
Q 1366 3272 1645 3428 
Q 1925 3584 2291 3584 
Q 2894 3584 3203 3211 
Q 3513 2838 3513 2113 
z
" id="DejaVuSans-6e" transform="scale(0.015625)"/>
       </defs>
       <use xlink:href="#DejaVuSans-61"/>
       <use x="61.279297" xlink:href="#DejaVuSans-66"/>
       <use x="96.484375" xlink:href="#DejaVuSans-6c"/>
       <use x="124.267578" xlink:href="#DejaVuSans-5f"/>
       <use x="174.267578" xlink:href="#DejaVuSans-73"/>
       <use x="226.367188" xlink:href="#DejaVuSans-63"/>
       <use x="281.347656" xlink:href="#DejaVuSans-6f"/>
       <use x="342.529297" xlink:href="#DejaVuSans-72"/>
       <use x="381.392578" xlink:href="#DejaVuSans-65"/>
       <use x="442.916016" xlink:href="#DejaVuSans-5f"/>
       <use x="492.916016" xlink:href="#DejaVuSans-6d"/>
       <use x="590.328125" xlink:href="#DejaVuSans-69"/>
       <use x="618.111328" xlink:href="#DejaVuSans-6e"/>
      </g>
     </g>
    </g>
    <g id="xtick_4">
     <g id="line2d_4">
      <g>
       <use style="stroke:#000000;stroke-width:0.8;" x="363.008087" xlink:href="#m512875b9f2" y="273.312"/>
      </g>
     </g>
     <g id="text_4">
      <!-- afl_score_no_novel_prioritization -->
      <g transform="translate(355.40965 280.312)rotate(-270)scale(0.1 -0.1)">
       <defs>
        <path d="M 191 3500 
L 800 3500 
L 1894 563 
L 2988 3500 
L 3597 3500 
L 2284 0 
L 1503 0 
L 191 3500 
z
" id="DejaVuSans-76" transform="scale(0.015625)"/>
        <path d="M 1159 525 
L 1159 -1331 
L 581 -1331 
L 581 3500 
L 1159 3500 
L 1159 2969 
Q 1341 3281 1617 3432 
Q 1894 3584 2278 3584 
Q 2916 3584 3314 3078 
Q 3713 2572 3713 1747 
Q 3713 922 3314 415 
Q 2916 -91 2278 -91 
Q 1894 -91 1617 61 
Q 1341 213 1159 525 
z
M 3116 1747 
Q 3116 2381 2855 2742 
Q 2594 3103 2138 3103 
Q 1681 3103 1420 2742 
Q 1159 2381 1159 1747 
Q 1159 1113 1420 752 
Q 1681 391 2138 391 
Q 2594 391 2855 752 
Q 3116 1113 3116 1747 
z
" id="DejaVuSans-70" transform="scale(0.015625)"/>
        <path d="M 1172 4494 
L 1172 3500 
L 2356 3500 
L 2356 3053 
L 1172 3053 
L 1172 1153 
Q 1172 725 1289 603 
Q 1406 481 1766 481 
L 2356 481 
L 2356 0 
L 1766 0 
Q 1100 0 847 248 
Q 594 497 594 1153 
L 594 3053 
L 172 3053 
L 172 3500 
L 594 3500 
L 594 4494 
L 1172 4494 
z
" id="DejaVuSans-74" transform="scale(0.015625)"/>
        <path d="M 353 3500 
L 3084 3500 
L 3084 2975 
L 922 459 
L 3084 459 
L 3084 0 
L 275 0 
L 275 525 
L 2438 3041 
L 353 3041 
L 353 3500 
z
" id="DejaVuSans-7a" transform="scale(0.015625)"/>
       </defs>
       <use xlink:href="#DejaVuSans-61"/>
       <use x="61.279297" xlink:href="#DejaVuSans-66"/>
       <use x="96.484375" xlink:href="#DejaVuSans-6c"/>
       <use x="124.267578" xlink:href="#DejaVuSans-5f"/>
       <use x="174.267578" xlink:href="#DejaVuSans-73"/>
       <use x="226.367188" xlink:href="#DejaVuSans-63"/>
       <use x="281.347656" xlink:href="#DejaVuSans-6f"/>
       <use x="342.529297" xlink:href="#DejaVuSans-72"/>
       <use x="381.392578" xlink:href="#DejaVuSans-65"/>
       <use x="442.916016" xlink:href="#DejaVuSans-5f"/>
       <use x="492.916016" xlink:href="#DejaVuSans-6e"/>
       <use x="556.294922" xlink:href="#DejaVuSans-6f"/>
       <use x="617.476562" xlink:href="#DejaVuSans-5f"/>
       <use x="667.476562" xlink:href="#DejaVuSans-6e"/>
       <use x="730.855469" xlink:href="#DejaVuSans-6f"/>
       <use x="792.037109" xlink:href="#DejaVuSans-76"/>
       <use x="851.216797" xlink:href="#DejaVuSans-65"/>
       <use x="912.740234" xlink:href="#DejaVuSans-6c"/>
       <use x="940.523438" xlink:href="#DejaVuSans-5f"/>
       <use x="990.523438" xlink:href="#DejaVuSans-70"/>
       <use x="1054" xlink:href="#DejaVuSans-72"/>
       <use x="1095.113281" xlink:href="#DejaVuSans-69"/>
       <use x="1122.896484" xlink:href="#DejaVuSans-6f"/>
       <use x="1184.078125" xlink:href="#DejaVuSans-72"/>
       <use x="1225.191406" xlink:href="#DejaVuSans-69"/>
       <use x="1252.974609" xlink:href="#DejaVuSans-74"/>
       <use x="1292.183594" xlink:href="#DejaVuSans-69"/>
       <use x="1319.966797" xlink:href="#DejaVuSans-7a"/>
       <use x="1372.457031" xlink:href="#DejaVuSans-61"/>
       <use x="1433.736328" xlink:href="#DejaVuSans-74"/>
       <use x="1472.945312" xlink:href="#DejaVuSans-69"/>
       <use x="1500.728516" xlink:href="#DejaVuSans-6f"/>
       <use x="1561.910156" xlink:href="#DejaVuSans-6e"/>
      </g>
     </g>
    </g>
    <g id="xtick_5">
     <g id="line2d_5">
      <g>
       <use style="stroke:#000000;stroke-width:0.8;" x="416.230487" xlink:href="#m512875b9f2" y="273.312"/>
      </g>
     </g>
     <g id="text_5">
      <!-- afl_score_random -->
      <g transform="translate(408.63205 280.312)rotate(-270)scale(0.1 -0.1)">
       <defs>
        <path d="M 2906 2969 
L 2906 4863 
L 3481 4863 
L 3481 0 
L 2906 0 
L 2906 525 
Q 2725 213 2448 61 
Q 2172 -91 1784 -91 
Q 1150 -91 751 415 
Q 353 922 353 1747 
Q 353 2572 751 3078 
Q 1150 3584 1784 3584 
Q 2172 3584 2448 3432 
Q 2725 3281 2906 2969 
z
M 947 1747 
Q 947 1113 1208 752 
Q 1469 391 1925 391 
Q 2381 391 2643 752 
Q 2906 1113 2906 1747 
Q 2906 2381 2643 2742 
Q 2381 3103 1925 3103 
Q 1469 3103 1208 2742 
Q 947 2381 947 1747 
z
" id="DejaVuSans-64" transform="scale(0.015625)"/>
       </defs>
       <use xlink:href="#DejaVuSans-61"/>
       <use x="61.279297" xlink:href="#DejaVuSans-66"/>
       <use x="96.484375" xlink:href="#DejaVuSans-6c"/>
       <use x="124.267578" xlink:href="#DejaVuSans-5f"/>
       <use x="174.267578" xlink:href="#DejaVuSans-73"/>
       <use x="226.367188" xlink:href="#DejaVuSans-63"/>
       <use x="281.347656" xlink:href="#DejaVuSans-6f"/>
       <use x="342.529297" xlink:href="#DejaVuSans-72"/>
       <use x="381.392578" xlink:href="#DejaVuSans-65"/>
       <use x="442.916016" xlink:href="#DejaVuSans-5f"/>
       <use x="492.916016" xlink:href="#DejaVuSans-72"/>
       <use x="534.029297" xlink:href="#DejaVuSans-61"/>
       <use x="595.308594" xlink:href="#DejaVuSans-6e"/>
       <use x="658.6875" xlink:href="#DejaVuSans-64"/>
       <use x="722.164062" xlink:href="#DejaVuSans-6f"/>
       <use x="783.345703" xlink:href="#DejaVuSans-6d"/>
      </g>
     </g>
    </g>
   </g>
   <g id="matplotlib.axis_2">
    <g id="ytick_1">
     <g id="line2d_6">
      <defs>
       <path d="M 0 0 
L -3.5 0 
" id="m7a9cb8f8e9" style="stroke:#000000;stroke-width:0.8;"/>
      </defs>
      <g>
       <use style="stroke:#000000;stroke-width:0.8;" x="176.729688" xlink:href="#m7a9cb8f8e9" y="33.8112"/>
      </g>
     </g>
     <g id="text_6">
      <!-- afl -->
      <g transform="translate(157.303125 37.610419)scale(0.1 -0.1)">
       <use xlink:href="#DejaVuSans-61"/>
       <use x="61.279297" xlink:href="#DejaVuSans-66"/>
       <use x="96.484375" xlink:href="#DejaVuSans-6c"/>
      </g>
     </g>
    </g>
    <g id="ytick_2">
     <g id="line2d_7">
      <g>
       <use style="stroke:#000000;stroke-width:0.8;" x="176.729688" xlink:href="#m7a9cb8f8e9" y="87.0336"/>
      </g>
     </g>
     <g id="text_7">
      <!-- afl_score_max -->
      <g transform="translate(98.65 90.832819)scale(0.1 -0.1)">
       <use xlink:href="#DejaVuSans-61"/>
       <use x="61.279297" xlink:href="#DejaVuSans-66"/>
       <use x="96.484375" xlink:href="#DejaVuSans-6c"/>
       <use x="124.267578" xlink:href="#DejaVuSans-5f"/>
       <use x="174.267578" xlink:href="#DejaVuSans-73"/>
       <use x="226.367188" xlink:href="#DejaVuSans-63"/>
       <use x="281.347656" xlink:href="#DejaVuSans-6f"/>
       <use x="342.529297" xlink:href="#DejaVuSans-72"/>
       <use x="381.392578" xlink:href="#DejaVuSans-65"/>
       <use x="442.916016" xlink:href="#DejaVuSans-5f"/>
       <use x="492.916016" xlink:href="#DejaVuSans-6d"/>
       <use x="590.328125" xlink:href="#DejaVuSans-61"/>
       <use x="651.607422" xlink:href="#DejaVuSans-78"/>
      </g>
     </g>
    </g>
    <g id="ytick_3">
     <g id="line2d_8">
      <g>
       <use style="stroke:#000000;stroke-width:0.8;" x="176.729688" xlink:href="#m7a9cb8f8e9" y="140.256"/>
      </g>
     </g>
     <g id="text_8">
      <!-- afl_score_min -->
      <g transform="translate(101.58125 144.055219)scale(0.1 -0.1)">
       <use xlink:href="#DejaVuSans-61"/>
       <use x="61.279297" xlink:href="#DejaVuSans-66"/>
       <use x="96.484375" xlink:href="#DejaVuSans-6c"/>
       <use x="124.267578" xlink:href="#DejaVuSans-5f"/>
       <use x="174.267578" xlink:href="#DejaVuSans-73"/>
       <use x="226.367188" xlink:href="#DejaVuSans-63"/>
       <use x="281.347656" xlink:href="#DejaVuSans-6f"/>
       <use x="342.529297" xlink:href="#DejaVuSans-72"/>
       <use x="381.392578" xlink:href="#DejaVuSans-65"/>
       <use x="442.916016" xlink:href="#DejaVuSans-5f"/>
       <use x="492.916016" xlink:href="#DejaVuSans-6d"/>
       <use x="590.328125" xlink:href="#DejaVuSans-69"/>
       <use x="618.111328" xlink:href="#DejaVuSans-6e"/>
      </g>
     </g>
    </g>
    <g id="ytick_4">
     <g id="line2d_9">
      <g>
       <use style="stroke:#000000;stroke-width:0.8;" x="176.729688" xlink:href="#m7a9cb8f8e9" y="193.4784"/>
      </g>
     </g>
     <g id="text_9">
      <!-- afl_score_no_novel_prioritization -->
      <g transform="translate(7.2 197.277619)scale(0.1 -0.1)">
       <use xlink:href="#DejaVuSans-61"/>
       <use x="61.279297" xlink:href="#DejaVuSans-66"/>
       <use x="96.484375" xlink:href="#DejaVuSans-6c"/>
       <use x="124.267578" xlink:href="#DejaVuSans-5f"/>
       <use x="174.267578" xlink:href="#DejaVuSans-73"/>
       <use x="226.367188" xlink:href="#DejaVuSans-63"/>
       <use x="281.347656" xlink:href="#DejaVuSans-6f"/>
       <use x="342.529297" xlink:href="#DejaVuSans-72"/>
       <use x="381.392578" xlink:href="#DejaVuSans-65"/>
       <use x="442.916016" xlink:href="#DejaVuSans-5f"/>
       <use x="492.916016" xlink:href="#DejaVuSans-6e"/>
       <use x="556.294922" xlink:href="#DejaVuSans-6f"/>
       <use x="617.476562" xlink:href="#DejaVuSans-5f"/>
       <use x="667.476562" xlink:href="#DejaVuSans-6e"/>
       <use x="730.855469" xlink:href="#DejaVuSans-6f"/>
       <use x="792.037109" xlink:href="#DejaVuSans-76"/>
       <use x="851.216797" xlink:href="#DejaVuSans-65"/>
       <use x="912.740234" xlink:href="#DejaVuSans-6c"/>
       <use x="940.523438" xlink:href="#DejaVuSans-5f"/>
       <use x="990.523438" xlink:href="#DejaVuSans-70"/>
       <use x="1054" xlink:href="#DejaVuSans-72"/>
       <use x="1095.113281" xlink:href="#DejaVuSans-69"/>
       <use x="1122.896484" xlink:href="#DejaVuSans-6f"/>
       <use x="1184.078125" xlink:href="#DejaVuSans-72"/>
       <use x="1225.191406" xlink:href="#DejaVuSans-69"/>
       <use x="1252.974609" xlink:href="#DejaVuSans-74"/>
       <use x="1292.183594" xlink:href="#DejaVuSans-69"/>
       <use x="1319.966797" xlink:href="#DejaVuSans-7a"/>
       <use x="1372.457031" xlink:href="#DejaVuSans-61"/>
       <use x="1433.736328" xlink:href="#DejaVuSans-74"/>
       <use x="1472.945312" xlink:href="#DejaVuSans-69"/>
       <use x="1500.728516" xlink:href="#DejaVuSans-6f"/>
       <use x="1561.910156" xlink:href="#DejaVuSans-6e"/>
      </g>
     </g>
    </g>
    <g id="ytick_5">
     <g id="line2d_10">
      <g>
       <use style="stroke:#000000;stroke-width:0.8;" x="176.729688" xlink:href="#m7a9cb8f8e9" y="246.7008"/>
      </g>
     </g>
     <g id="text_10">
      <!-- afl_score_random -->
      <g transform="translate(81.653125 250.500019)scale(0.1 -0.1)">
       <use xlink:href="#DejaVuSans-61"/>
       <use x="61.279297" xlink:href="#DejaVuSans-66"/>
       <use x="96.484375" xlink:href="#DejaVuSans-6c"/>
       <use x="124.267578" xlink:href="#DejaVuSans-5f"/>
       <use x="174.267578" xlink:href="#DejaVuSans-73"/>
       <use x="226.367188" xlink:href="#DejaVuSans-63"/>
       <use x="281.347656" xlink:href="#DejaVuSans-6f"/>
       <use x="342.529297" xlink:href="#DejaVuSans-72"/>
       <use x="381.392578" xlink:href="#DejaVuSans-65"/>
       <use x="442.916016" xlink:href="#DejaVuSans-5f"/>
       <use x="492.916016" xlink:href="#DejaVuSans-72"/>
       <use x="534.029297" xlink:href="#DejaVuSans-61"/>
       <use x="595.308594" xlink:href="#DejaVuSans-6e"/>
       <use x="658.6875" xlink:href="#DejaVuSans-64"/>
       <use x="722.164062" xlink:href="#DejaVuSans-6f"/>
       <use x="783.345703" xlink:href="#DejaVuSans-6d"/>
      </g>
     </g>
    </g>
   </g>
  </g>
  <g id="axes_2">
   <g id="patch_3">
    <path d="M 460.697688 204.192 
L 467.091288 204.192 
L 467.091288 76.32 
L 460.697688 76.32 
z
" style="fill:#ffffff;"/>
   </g>
   <g id="patch_4">
    <path clip-path="url(#p473acd1afe)" d="M 460.697688 204.192 
L 460.697688 172.224 
L 460.697688 108.288 
L 460.697688 76.32 
L 467.091288 76.32 
L 467.091288 108.288 
L 467.091288 172.224 
L 467.091288 204.192 
L 467.091288 204.192 
z
" style="fill:#ffffff;stroke:#ffffff;stroke-linejoin:miter;stroke-width:0.01;"/>
   </g>
   <g id="QuadMesh_2">
    <path clip-path="url(#p473acd1afe)" d="M 460.697688 204.192 
L 467.091288 204.192 
L 467.091288 172.224 
L 460.697688 172.224 
L 460.697688 204.192 
" style="fill:#005a32;"/>
    <path clip-path="url(#p473acd1afe)" d="M 460.697688 172.224 
L 467.091288 172.224 
L 467.091288 140.256 
L 460.697688 140.256 
L 460.697688 172.224 
" style="fill:#238b45;"/>
    <path clip-path="url(#p473acd1afe)" d="M 460.697688 140.256 
L 467.091288 140.256 
L 467.091288 108.288 
L 460.697688 108.288 
L 460.697688 140.256 
" style="fill:#a1d99b;"/>
    <path clip-path="url(#p473acd1afe)" d="M 460.697688 108.288 
L 467.091288 108.288 
L 467.091288 76.32 
L 460.697688 76.32 
L 460.697688 108.288 
" style="fill:#fbd7d4;"/>
   </g>
   <g id="matplotlib.axis_3"/>
   <g id="matplotlib.axis_4">
    <g id="ytick_6">
     <g id="line2d_11"/>
     <g id="text_11">
      <!-- p &lt; 0.001 -->
      <g transform="translate(470.591288 192.007219)scale(0.1 -0.1)">
       <defs>
        <path id="DejaVuSans-20" transform="scale(0.015625)"/>
        <path d="M 4684 3150 
L 1459 2003 
L 4684 863 
L 4684 294 
L 678 1747 
L 678 2266 
L 4684 3719 
L 4684 3150 
z
" id="DejaVuSans-3c" transform="scale(0.015625)"/>
        <path d="M 2034 4250 
Q 1547 4250 1301 3770 
Q 1056 3291 1056 2328 
Q 1056 1369 1301 889 
Q 1547 409 2034 409 
Q 2525 409 2770 889 
Q 3016 1369 3016 2328 
Q 3016 3291 2770 3770 
Q 2525 4250 2034 4250 
z
M 2034 4750 
Q 2819 4750 3233 4129 
Q 3647 3509 3647 2328 
Q 3647 1150 3233 529 
Q 2819 -91 2034 -91 
Q 1250 -91 836 529 
Q 422 1150 422 2328 
Q 422 3509 836 4129 
Q 1250 4750 2034 4750 
z
" id="DejaVuSans-30" transform="scale(0.015625)"/>
        <path d="M 684 794 
L 1344 794 
L 1344 0 
L 684 0 
L 684 794 
z
" id="DejaVuSans-2e" transform="scale(0.015625)"/>
        <path d="M 794 531 
L 1825 531 
L 1825 4091 
L 703 3866 
L 703 4441 
L 1819 4666 
L 2450 4666 
L 2450 531 
L 3481 531 
L 3481 0 
L 794 0 
L 794 531 
z
" id="DejaVuSans-31" transform="scale(0.015625)"/>
       </defs>
       <use xlink:href="#DejaVuSans-70"/>
       <use x="63.476562" xlink:href="#DejaVuSans-20"/>
       <use x="95.263672" xlink:href="#DejaVuSans-3c"/>
       <use x="179.052734" xlink:href="#DejaVuSans-20"/>
       <use x="210.839844" xlink:href="#DejaVuSans-30"/>
       <use x="274.462891" xlink:href="#DejaVuSans-2e"/>
       <use x="306.25" xlink:href="#DejaVuSans-30"/>
       <use x="369.873047" xlink:href="#DejaVuSans-30"/>
       <use x="433.496094" xlink:href="#DejaVuSans-31"/>
      </g>
     </g>
    </g>
    <g id="ytick_7">
     <g id="line2d_12"/>
     <g id="text_12">
      <!-- p &lt; 0.01 -->
      <g transform="translate(470.591288 161.815219)scale(0.1 -0.1)">
       <use xlink:href="#DejaVuSans-70"/>
       <use x="63.476562" xlink:href="#DejaVuSans-20"/>
       <use x="95.263672" xlink:href="#DejaVuSans-3c"/>
       <use x="179.052734" xlink:href="#DejaVuSans-20"/>
       <use x="210.839844" xlink:href="#DejaVuSans-30"/>
       <use x="274.462891" xlink:href="#DejaVuSans-2e"/>
       <use x="306.25" xlink:href="#DejaVuSans-30"/>
       <use x="369.873047" xlink:href="#DejaVuSans-31"/>
      </g>
     </g>
    </g>
    <g id="ytick_8">
     <g id="line2d_13"/>
     <g id="text_13">
      <!-- p &lt; 0.05 -->
      <g transform="translate(470.591288 128.071219)scale(0.1 -0.1)">
       <defs>
        <path d="M 691 4666 
L 3169 4666 
L 3169 4134 
L 1269 4134 
L 1269 2991 
Q 1406 3038 1543 3061 
Q 1681 3084 1819 3084 
Q 2600 3084 3056 2656 
Q 3513 2228 3513 1497 
Q 3513 744 3044 326 
Q 2575 -91 1722 -91 
Q 1428 -91 1123 -41 
Q 819 9 494 109 
L 494 744 
Q 775 591 1075 516 
Q 1375 441 1709 441 
Q 2250 441 2565 725 
Q 2881 1009 2881 1497 
Q 2881 1984 2565 2268 
Q 2250 2553 1709 2553 
Q 1456 2553 1204 2497 
Q 953 2441 691 2322 
L 691 4666 
z
" id="DejaVuSans-35" transform="scale(0.015625)"/>
       </defs>
       <use xlink:href="#DejaVuSans-70"/>
       <use x="63.476562" xlink:href="#DejaVuSans-20"/>
       <use x="95.263672" xlink:href="#DejaVuSans-3c"/>
       <use x="179.052734" xlink:href="#DejaVuSans-20"/>
       <use x="210.839844" xlink:href="#DejaVuSans-30"/>
       <use x="274.462891" xlink:href="#DejaVuSans-2e"/>
       <use x="306.25" xlink:href="#DejaVuSans-30"/>
       <use x="369.873047" xlink:href="#DejaVuSans-35"/>
      </g>
     </g>
    </g>
    <g id="ytick_9">
     <g id="line2d_14"/>
     <g id="text_14">
      <!-- NS -->
      <g transform="translate(470.591288 96.944482)scale(0.1 -0.1)">
       <defs>
        <path d="M 628 4666 
L 1478 4666 
L 3547 763 
L 3547 4666 
L 4159 4666 
L 4159 0 
L 3309 0 
L 1241 3903 
L 1241 0 
L 628 0 
L 628 4666 
z
" id="DejaVuSans-4e" transform="scale(0.015625)"/>
        <path d="M 3425 4513 
L 3425 3897 
Q 3066 4069 2747 4153 
Q 2428 4238 2131 4238 
Q 1616 4238 1336 4038 
Q 1056 3838 1056 3469 
Q 1056 3159 1242 3001 
Q 1428 2844 1947 2747 
L 2328 2669 
Q 3034 2534 3370 2195 
Q 3706 1856 3706 1288 
Q 3706 609 3251 259 
Q 2797 -91 1919 -91 
Q 1588 -91 1214 -16 
Q 841 59 441 206 
L 441 856 
Q 825 641 1194 531 
Q 1563 422 1919 422 
Q 2459 422 2753 634 
Q 3047 847 3047 1241 
Q 3047 1584 2836 1778 
Q 2625 1972 2144 2069 
L 1759 2144 
Q 1053 2284 737 2584 
Q 422 2884 422 3419 
Q 422 4038 858 4394 
Q 1294 4750 2059 4750 
Q 2388 4750 2728 4690 
Q 3069 4631 3425 4513 
z
" id="DejaVuSans-53" transform="scale(0.015625)"/>
       </defs>
       <use xlink:href="#DejaVuSans-4e"/>
       <use x="74.804688" xlink:href="#DejaVuSans-53"/>
      </g>
     </g>
    </g>
   </g>
   <g id="LineCollection_1"/>
   <g id="patch_5">
    <path d="M 460.697688 204.192 
L 460.697688 172.224 
L 460.697688 108.288 
L 460.697688 76.32 
L 467.091288 76.32 
L 467.091288 108.288 
L 467.091288 172.224 
L 467.091288 204.192 
z
" style="fill:none;stroke:#808080;stroke-linecap:square;stroke-linejoin:miter;"/>
   </g>
  </g>
 </g>
 <defs>
  <clipPath id="p462796f349">
   <rect height="266.112" width="266.112" x="176.729688" y="7.2"/>
  </clipPath>
  <clipPath id="p473acd1afe">
   <rect height="127.872" width="6.3936" x="460.697688" y="76.32"/>
  </clipPath>
 </defs>
</svg>
