<?xml version="1.0" encoding="utf-8" standalone="no"?>
<!DOCTYPE svg PUBLIC "-//W3C//DTD SVG 1.1//EN"
  "http://www.w3.org/Graphics/SVG/1.1/DTD/svg11.dtd">
<svg height="406.195459pt" version="1.1" viewBox="0 0 424.010625 406.195459" width="424.010625pt" xmlns="http://www.w3.org/2000/svg" xmlns:xlink="http://www.w3.org/1999/xlink">
 <metadata>
  <rdf:RDF xmlns:cc="http://creativecommons.org/ns#" xmlns:dc="http://purl.org/dc/elements/1.1/" xmlns:rdf="http://www.w3.org/1999/02/22-rdf-syntax-ns#">
   <cc:Work>
    <dc:type rdf:resource="http://purl.org/dc/dcmitype/StillImage"/>
    <dc:date>2022-05-31T12:20:32.461654</dc:date>
    <dc:format>image/svg+xml</dc:format>
    <dc:creator>
     <cc:Agent>
      <dc:title>Matplotlib v3.4.3, https://matplotlib.org/</dc:title>
     </cc:Agent>
    </dc:creator>
   </cc:Work>
  </rdf:RDF>
 </metadata>
 <defs>
  <style type="text/css">*{stroke-linecap:butt;stroke-linejoin:round;}</style>
 </defs>
 <g id="figure_1">
  <g id="patch_1">
   <path d="M 0 406.195459 
L 424.010625 406.195459 
L 424.010625 0 
L 0 0 
z
" style="fill:#ffffff;"/>
  </g>
  <g id="axes_1">
   <g id="patch_2">
    <path d="M 59.690625 288.430125 
L 416.810625 288.430125 
L 416.810625 22.318125 
L 59.690625 22.318125 
z
" style="fill:#ffffff;"/>
   </g>
   <g id="patch_3">
    <path clip-path="url(#pc71ea16a3a)" d="M 66.833025 191.003994 
L 123.972225 191.003994 
L 123.972225 123.205119 
L 66.833025 123.205119 
L 66.833025 191.003994 
z
" style="fill:#c03d3e;stroke:#3f3f3f;stroke-linejoin:miter;stroke-width:1.5;"/>
   </g>
   <g id="patch_4">
    <path clip-path="url(#pc71ea16a3a)" d="M 138.257025 205.074388 
L 195.396225 205.074388 
L 195.396225 162.295851 
L 138.257025 162.295851 
L 138.257025 205.074388 
z
" style="fill:#9fd495;stroke:#3f3f3f;stroke-linejoin:miter;stroke-width:1.5;"/>
   </g>
   <g id="patch_5">
    <path clip-path="url(#pc71ea16a3a)" d="M 209.681025 223.002793 
L 266.820225 223.002793 
L 266.820225 172.281292 
L 209.681025 172.281292 
L 209.681025 223.002793 
z
" style="fill:#f2a5a3;stroke:#3f3f3f;stroke-linejoin:miter;stroke-width:1.5;"/>
   </g>
   <g id="patch_6">
    <path clip-path="url(#pc71ea16a3a)" d="M 281.105025 235.03071 
L 338.244225 235.03071 
L 338.244225 199.1739 
L 281.105025 199.1739 
L 281.105025 235.03071 
z
" style="fill:#3274a1;stroke:#3f3f3f;stroke-linejoin:miter;stroke-width:1.5;"/>
   </g>
   <g id="patch_7">
    <path clip-path="url(#pc71ea16a3a)" d="M 352.529025 237.924219 
L 409.668225 237.924219 
L 409.668225 210.974875 
L 352.529025 210.974875 
L 352.529025 237.924219 
z
" style="fill:#e1812c;stroke:#3f3f3f;stroke-linejoin:miter;stroke-width:1.5;"/>
   </g>
   <g id="matplotlib.axis_1">
    <g id="xtick_1">
     <g id="line2d_1">
      <defs>
       <path d="M 0 0 
L 0 3.5 
" id="mc303e8ec7d" style="stroke:#000000;stroke-width:0.8;"/>
      </defs>
      <g>
       <use style="stroke:#000000;stroke-width:0.8;" x="95.402625" xlink:href="#mc303e8ec7d" y="288.430125"/>
      </g>
     </g>
     <g id="text_1">
      <!-- afl_score_min -->
      <g transform="translate(35.205441 336.084784)rotate(-30)scale(0.1 -0.1)">
       <defs>
        <path d="M 2194 1759 
Q 1497 1759 1228 1600 
Q 959 1441 959 1056 
Q 959 750 1161 570 
Q 1363 391 1709 391 
Q 2188 391 2477 730 
Q 2766 1069 2766 1631 
L 2766 1759 
L 2194 1759 
z
M 3341 1997 
L 3341 0 
L 2766 0 
L 2766 531 
Q 2569 213 2275 61 
Q 1981 -91 1556 -91 
Q 1019 -91 701 211 
Q 384 513 384 1019 
Q 384 1609 779 1909 
Q 1175 2209 1959 2209 
L 2766 2209 
L 2766 2266 
Q 2766 2663 2505 2880 
Q 2244 3097 1772 3097 
Q 1472 3097 1187 3025 
Q 903 2953 641 2809 
L 641 3341 
Q 956 3463 1253 3523 
Q 1550 3584 1831 3584 
Q 2591 3584 2966 3190 
Q 3341 2797 3341 1997 
z
" id="DejaVuSans-61" transform="scale(0.015625)"/>
        <path d="M 2375 4863 
L 2375 4384 
L 1825 4384 
Q 1516 4384 1395 4259 
Q 1275 4134 1275 3809 
L 1275 3500 
L 2222 3500 
L 2222 3053 
L 1275 3053 
L 1275 0 
L 697 0 
L 697 3053 
L 147 3053 
L 147 3500 
L 697 3500 
L 697 3744 
Q 697 4328 969 4595 
Q 1241 4863 1831 4863 
L 2375 4863 
z
" id="DejaVuSans-66" transform="scale(0.015625)"/>
        <path d="M 603 4863 
L 1178 4863 
L 1178 0 
L 603 0 
L 603 4863 
z
" id="DejaVuSans-6c" transform="scale(0.015625)"/>
        <path d="M 3263 -1063 
L 3263 -1509 
L -63 -1509 
L -63 -1063 
L 3263 -1063 
z
" id="DejaVuSans-5f" transform="scale(0.015625)"/>
        <path d="M 2834 3397 
L 2834 2853 
Q 2591 2978 2328 3040 
Q 2066 3103 1784 3103 
Q 1356 3103 1142 2972 
Q 928 2841 928 2578 
Q 928 2378 1081 2264 
Q 1234 2150 1697 2047 
L 1894 2003 
Q 2506 1872 2764 1633 
Q 3022 1394 3022 966 
Q 3022 478 2636 193 
Q 2250 -91 1575 -91 
Q 1294 -91 989 -36 
Q 684 19 347 128 
L 347 722 
Q 666 556 975 473 
Q 1284 391 1588 391 
Q 1994 391 2212 530 
Q 2431 669 2431 922 
Q 2431 1156 2273 1281 
Q 2116 1406 1581 1522 
L 1381 1569 
Q 847 1681 609 1914 
Q 372 2147 372 2553 
Q 372 3047 722 3315 
Q 1072 3584 1716 3584 
Q 2034 3584 2315 3537 
Q 2597 3491 2834 3397 
z
" id="DejaVuSans-73" transform="scale(0.015625)"/>
        <path d="M 3122 3366 
L 3122 2828 
Q 2878 2963 2633 3030 
Q 2388 3097 2138 3097 
Q 1578 3097 1268 2742 
Q 959 2388 959 1747 
Q 959 1106 1268 751 
Q 1578 397 2138 397 
Q 2388 397 2633 464 
Q 2878 531 3122 666 
L 3122 134 
Q 2881 22 2623 -34 
Q 2366 -91 2075 -91 
Q 1284 -91 818 406 
Q 353 903 353 1747 
Q 353 2603 823 3093 
Q 1294 3584 2113 3584 
Q 2378 3584 2631 3529 
Q 2884 3475 3122 3366 
z
" id="DejaVuSans-63" transform="scale(0.015625)"/>
        <path d="M 1959 3097 
Q 1497 3097 1228 2736 
Q 959 2375 959 1747 
Q 959 1119 1226 758 
Q 1494 397 1959 397 
Q 2419 397 2687 759 
Q 2956 1122 2956 1747 
Q 2956 2369 2687 2733 
Q 2419 3097 1959 3097 
z
M 1959 3584 
Q 2709 3584 3137 3096 
Q 3566 2609 3566 1747 
Q 3566 888 3137 398 
Q 2709 -91 1959 -91 
Q 1206 -91 779 398 
Q 353 888 353 1747 
Q 353 2609 779 3096 
Q 1206 3584 1959 3584 
z
" id="DejaVuSans-6f" transform="scale(0.015625)"/>
        <path d="M 2631 2963 
Q 2534 3019 2420 3045 
Q 2306 3072 2169 3072 
Q 1681 3072 1420 2755 
Q 1159 2438 1159 1844 
L 1159 0 
L 581 0 
L 581 3500 
L 1159 3500 
L 1159 2956 
Q 1341 3275 1631 3429 
Q 1922 3584 2338 3584 
Q 2397 3584 2469 3576 
Q 2541 3569 2628 3553 
L 2631 2963 
z
" id="DejaVuSans-72" transform="scale(0.015625)"/>
        <path d="M 3597 1894 
L 3597 1613 
L 953 1613 
Q 991 1019 1311 708 
Q 1631 397 2203 397 
Q 2534 397 2845 478 
Q 3156 559 3463 722 
L 3463 178 
Q 3153 47 2828 -22 
Q 2503 -91 2169 -91 
Q 1331 -91 842 396 
Q 353 884 353 1716 
Q 353 2575 817 3079 
Q 1281 3584 2069 3584 
Q 2775 3584 3186 3129 
Q 3597 2675 3597 1894 
z
M 3022 2063 
Q 3016 2534 2758 2815 
Q 2500 3097 2075 3097 
Q 1594 3097 1305 2825 
Q 1016 2553 972 2059 
L 3022 2063 
z
" id="DejaVuSans-65" transform="scale(0.015625)"/>
        <path d="M 3328 2828 
Q 3544 3216 3844 3400 
Q 4144 3584 4550 3584 
Q 5097 3584 5394 3201 
Q 5691 2819 5691 2113 
L 5691 0 
L 5113 0 
L 5113 2094 
Q 5113 2597 4934 2840 
Q 4756 3084 4391 3084 
Q 3944 3084 3684 2787 
Q 3425 2491 3425 1978 
L 3425 0 
L 2847 0 
L 2847 2094 
Q 2847 2600 2669 2842 
Q 2491 3084 2119 3084 
Q 1678 3084 1418 2786 
Q 1159 2488 1159 1978 
L 1159 0 
L 581 0 
L 581 3500 
L 1159 3500 
L 1159 2956 
Q 1356 3278 1631 3431 
Q 1906 3584 2284 3584 
Q 2666 3584 2933 3390 
Q 3200 3197 3328 2828 
z
" id="DejaVuSans-6d" transform="scale(0.015625)"/>
        <path d="M 603 3500 
L 1178 3500 
L 1178 0 
L 603 0 
L 603 3500 
z
M 603 4863 
L 1178 4863 
L 1178 4134 
L 603 4134 
L 603 4863 
z
" id="DejaVuSans-69" transform="scale(0.015625)"/>
        <path d="M 3513 2113 
L 3513 0 
L 2938 0 
L 2938 2094 
Q 2938 2591 2744 2837 
Q 2550 3084 2163 3084 
Q 1697 3084 1428 2787 
Q 1159 2491 1159 1978 
L 1159 0 
L 581 0 
L 581 3500 
L 1159 3500 
L 1159 2956 
Q 1366 3272 1645 3428 
Q 1925 3584 2291 3584 
Q 2894 3584 3203 3211 
Q 3513 2838 3513 2113 
z
" id="DejaVuSans-6e" transform="scale(0.015625)"/>
       </defs>
       <use xlink:href="#DejaVuSans-61"/>
       <use x="61.279297" xlink:href="#DejaVuSans-66"/>
       <use x="96.484375" xlink:href="#DejaVuSans-6c"/>
       <use x="124.267578" xlink:href="#DejaVuSans-5f"/>
       <use x="174.267578" xlink:href="#DejaVuSans-73"/>
       <use x="226.367188" xlink:href="#DejaVuSans-63"/>
       <use x="281.347656" xlink:href="#DejaVuSans-6f"/>
       <use x="342.529297" xlink:href="#DejaVuSans-72"/>
       <use x="381.392578" xlink:href="#DejaVuSans-65"/>
       <use x="442.916016" xlink:href="#DejaVuSans-5f"/>
       <use x="492.916016" xlink:href="#DejaVuSans-6d"/>
       <use x="590.328125" xlink:href="#DejaVuSans-69"/>
       <use x="618.111328" xlink:href="#DejaVuSans-6e"/>
      </g>
     </g>
    </g>
    <g id="xtick_2">
     <g id="line2d_2">
      <g>
       <use style="stroke:#000000;stroke-width:0.8;" x="166.826625" xlink:href="#mc303e8ec7d" y="288.430125"/>
      </g>
     </g>
     <g id="text_2">
      <!-- afl_score_max -->
      <g transform="translate(104.090904 337.550409)rotate(-30)scale(0.1 -0.1)">
       <defs>
        <path d="M 3513 3500 
L 2247 1797 
L 3578 0 
L 2900 0 
L 1881 1375 
L 863 0 
L 184 0 
L 1544 1831 
L 300 3500 
L 978 3500 
L 1906 2253 
L 2834 3500 
L 3513 3500 
z
" id="DejaVuSans-78" transform="scale(0.015625)"/>
       </defs>
       <use xlink:href="#DejaVuSans-61"/>
       <use x="61.279297" xlink:href="#DejaVuSans-66"/>
       <use x="96.484375" xlink:href="#DejaVuSans-6c"/>
       <use x="124.267578" xlink:href="#DejaVuSans-5f"/>
       <use x="174.267578" xlink:href="#DejaVuSans-73"/>
       <use x="226.367188" xlink:href="#DejaVuSans-63"/>
       <use x="281.347656" xlink:href="#DejaVuSans-6f"/>
       <use x="342.529297" xlink:href="#DejaVuSans-72"/>
       <use x="381.392578" xlink:href="#DejaVuSans-65"/>
       <use x="442.916016" xlink:href="#DejaVuSans-5f"/>
       <use x="492.916016" xlink:href="#DejaVuSans-6d"/>
       <use x="590.328125" xlink:href="#DejaVuSans-61"/>
       <use x="651.607422" xlink:href="#DejaVuSans-78"/>
      </g>
     </g>
    </g>
    <g id="xtick_3">
     <g id="line2d_3">
      <g>
       <use style="stroke:#000000;stroke-width:0.8;" x="238.250625" xlink:href="#mc303e8ec7d" y="288.430125"/>
      </g>
     </g>
     <g id="text_3">
      <!-- afl_score_random -->
      <g transform="translate(160.795178 346.048846)rotate(-30)scale(0.1 -0.1)">
       <defs>
        <path d="M 2906 2969 
L 2906 4863 
L 3481 4863 
L 3481 0 
L 2906 0 
L 2906 525 
Q 2725 213 2448 61 
Q 2172 -91 1784 -91 
Q 1150 -91 751 415 
Q 353 922 353 1747 
Q 353 2572 751 3078 
Q 1150 3584 1784 3584 
Q 2172 3584 2448 3432 
Q 2725 3281 2906 2969 
z
M 947 1747 
Q 947 1113 1208 752 
Q 1469 391 1925 391 
Q 2381 391 2643 752 
Q 2906 1113 2906 1747 
Q 2906 2381 2643 2742 
Q 2381 3103 1925 3103 
Q 1469 3103 1208 2742 
Q 947 2381 947 1747 
z
" id="DejaVuSans-64" transform="scale(0.015625)"/>
       </defs>
       <use xlink:href="#DejaVuSans-61"/>
       <use x="61.279297" xlink:href="#DejaVuSans-66"/>
       <use x="96.484375" xlink:href="#DejaVuSans-6c"/>
       <use x="124.267578" xlink:href="#DejaVuSans-5f"/>
       <use x="174.267578" xlink:href="#DejaVuSans-73"/>
       <use x="226.367188" xlink:href="#DejaVuSans-63"/>
       <use x="281.347656" xlink:href="#DejaVuSans-6f"/>
       <use x="342.529297" xlink:href="#DejaVuSans-72"/>
       <use x="381.392578" xlink:href="#DejaVuSans-65"/>
       <use x="442.916016" xlink:href="#DejaVuSans-5f"/>
       <use x="492.916016" xlink:href="#DejaVuSans-72"/>
       <use x="534.029297" xlink:href="#DejaVuSans-61"/>
       <use x="595.308594" xlink:href="#DejaVuSans-6e"/>
       <use x="658.6875" xlink:href="#DejaVuSans-64"/>
       <use x="722.164062" xlink:href="#DejaVuSans-6f"/>
       <use x="783.345703" xlink:href="#DejaVuSans-6d"/>
      </g>
     </g>
    </g>
    <g id="xtick_4">
     <g id="line2d_4">
      <g>
       <use style="stroke:#000000;stroke-width:0.8;" x="309.674625" xlink:href="#mc303e8ec7d" y="288.430125"/>
      </g>
     </g>
     <g id="text_4">
      <!-- afl -->
      <g transform="translate(297.873062 308.223846)rotate(-30)scale(0.1 -0.1)">
       <use xlink:href="#DejaVuSans-61"/>
       <use x="61.279297" xlink:href="#DejaVuSans-66"/>
       <use x="96.484375" xlink:href="#DejaVuSans-6c"/>
      </g>
     </g>
    </g>
    <g id="xtick_5">
     <g id="line2d_5">
      <g>
       <use style="stroke:#000000;stroke-width:0.8;" x="381.098625" xlink:href="#mc303e8ec7d" y="288.430125"/>
      </g>
     </g>
     <g id="text_5">
      <!-- afl_score_no_novel_prioritization -->
      <g transform="translate(239.164881 383.275409)rotate(-30)scale(0.1 -0.1)">
       <defs>
        <path d="M 191 3500 
L 800 3500 
L 1894 563 
L 2988 3500 
L 3597 3500 
L 2284 0 
L 1503 0 
L 191 3500 
z
" id="DejaVuSans-76" transform="scale(0.015625)"/>
        <path d="M 1159 525 
L 1159 -1331 
L 581 -1331 
L 581 3500 
L 1159 3500 
L 1159 2969 
Q 1341 3281 1617 3432 
Q 1894 3584 2278 3584 
Q 2916 3584 3314 3078 
Q 3713 2572 3713 1747 
Q 3713 922 3314 415 
Q 2916 -91 2278 -91 
Q 1894 -91 1617 61 
Q 1341 213 1159 525 
z
M 3116 1747 
Q 3116 2381 2855 2742 
Q 2594 3103 2138 3103 
Q 1681 3103 1420 2742 
Q 1159 2381 1159 1747 
Q 1159 1113 1420 752 
Q 1681 391 2138 391 
Q 2594 391 2855 752 
Q 3116 1113 3116 1747 
z
" id="DejaVuSans-70" transform="scale(0.015625)"/>
        <path d="M 1172 4494 
L 1172 3500 
L 2356 3500 
L 2356 3053 
L 1172 3053 
L 1172 1153 
Q 1172 725 1289 603 
Q 1406 481 1766 481 
L 2356 481 
L 2356 0 
L 1766 0 
Q 1100 0 847 248 
Q 594 497 594 1153 
L 594 3053 
L 172 3053 
L 172 3500 
L 594 3500 
L 594 4494 
L 1172 4494 
z
" id="DejaVuSans-74" transform="scale(0.015625)"/>
        <path d="M 353 3500 
L 3084 3500 
L 3084 2975 
L 922 459 
L 3084 459 
L 3084 0 
L 275 0 
L 275 525 
L 2438 3041 
L 353 3041 
L 353 3500 
z
" id="DejaVuSans-7a" transform="scale(0.015625)"/>
       </defs>
       <use xlink:href="#DejaVuSans-61"/>
       <use x="61.279297" xlink:href="#DejaVuSans-66"/>
       <use x="96.484375" xlink:href="#DejaVuSans-6c"/>
       <use x="124.267578" xlink:href="#DejaVuSans-5f"/>
       <use x="174.267578" xlink:href="#DejaVuSans-73"/>
       <use x="226.367188" xlink:href="#DejaVuSans-63"/>
       <use x="281.347656" xlink:href="#DejaVuSans-6f"/>
       <use x="342.529297" xlink:href="#DejaVuSans-72"/>
       <use x="381.392578" xlink:href="#DejaVuSans-65"/>
       <use x="442.916016" xlink:href="#DejaVuSans-5f"/>
       <use x="492.916016" xlink:href="#DejaVuSans-6e"/>
       <use x="556.294922" xlink:href="#DejaVuSans-6f"/>
       <use x="617.476562" xlink:href="#DejaVuSans-5f"/>
       <use x="667.476562" xlink:href="#DejaVuSans-6e"/>
       <use x="730.855469" xlink:href="#DejaVuSans-6f"/>
       <use x="792.037109" xlink:href="#DejaVuSans-76"/>
       <use x="851.216797" xlink:href="#DejaVuSans-65"/>
       <use x="912.740234" xlink:href="#DejaVuSans-6c"/>
       <use x="940.523438" xlink:href="#DejaVuSans-5f"/>
       <use x="990.523438" xlink:href="#DejaVuSans-70"/>
       <use x="1054" xlink:href="#DejaVuSans-72"/>
       <use x="1095.113281" xlink:href="#DejaVuSans-69"/>
       <use x="1122.896484" xlink:href="#DejaVuSans-6f"/>
       <use x="1184.078125" xlink:href="#DejaVuSans-72"/>
       <use x="1225.191406" xlink:href="#DejaVuSans-69"/>
       <use x="1252.974609" xlink:href="#DejaVuSans-74"/>
       <use x="1292.183594" xlink:href="#DejaVuSans-69"/>
       <use x="1319.966797" xlink:href="#DejaVuSans-7a"/>
       <use x="1372.457031" xlink:href="#DejaVuSans-61"/>
       <use x="1433.736328" xlink:href="#DejaVuSans-74"/>
       <use x="1472.945312" xlink:href="#DejaVuSans-69"/>
       <use x="1500.728516" xlink:href="#DejaVuSans-6f"/>
       <use x="1561.910156" xlink:href="#DejaVuSans-6e"/>
      </g>
     </g>
    </g>
    <g id="text_6">
     <!-- Fuzzer (highest median coverage on the left) -->
     <g transform="translate(125.632656 396.915772)scale(0.1 -0.1)">
      <defs>
       <path d="M 628 4666 
L 3309 4666 
L 3309 4134 
L 1259 4134 
L 1259 2759 
L 3109 2759 
L 3109 2228 
L 1259 2228 
L 1259 0 
L 628 0 
L 628 4666 
z
" id="DejaVuSans-46" transform="scale(0.015625)"/>
       <path d="M 544 1381 
L 544 3500 
L 1119 3500 
L 1119 1403 
Q 1119 906 1312 657 
Q 1506 409 1894 409 
Q 2359 409 2629 706 
Q 2900 1003 2900 1516 
L 2900 3500 
L 3475 3500 
L 3475 0 
L 2900 0 
L 2900 538 
Q 2691 219 2414 64 
Q 2138 -91 1772 -91 
Q 1169 -91 856 284 
Q 544 659 544 1381 
z
M 1991 3584 
L 1991 3584 
z
" id="DejaVuSans-75" transform="scale(0.015625)"/>
       <path id="DejaVuSans-20" transform="scale(0.015625)"/>
       <path d="M 1984 4856 
Q 1566 4138 1362 3434 
Q 1159 2731 1159 2009 
Q 1159 1288 1364 580 
Q 1569 -128 1984 -844 
L 1484 -844 
Q 1016 -109 783 600 
Q 550 1309 550 2009 
Q 550 2706 781 3412 
Q 1013 4119 1484 4856 
L 1984 4856 
z
" id="DejaVuSans-28" transform="scale(0.015625)"/>
       <path d="M 3513 2113 
L 3513 0 
L 2938 0 
L 2938 2094 
Q 2938 2591 2744 2837 
Q 2550 3084 2163 3084 
Q 1697 3084 1428 2787 
Q 1159 2491 1159 1978 
L 1159 0 
L 581 0 
L 581 4863 
L 1159 4863 
L 1159 2956 
Q 1366 3272 1645 3428 
Q 1925 3584 2291 3584 
Q 2894 3584 3203 3211 
Q 3513 2838 3513 2113 
z
" id="DejaVuSans-68" transform="scale(0.015625)"/>
       <path d="M 2906 1791 
Q 2906 2416 2648 2759 
Q 2391 3103 1925 3103 
Q 1463 3103 1205 2759 
Q 947 2416 947 1791 
Q 947 1169 1205 825 
Q 1463 481 1925 481 
Q 2391 481 2648 825 
Q 2906 1169 2906 1791 
z
M 3481 434 
Q 3481 -459 3084 -895 
Q 2688 -1331 1869 -1331 
Q 1566 -1331 1297 -1286 
Q 1028 -1241 775 -1147 
L 775 -588 
Q 1028 -725 1275 -790 
Q 1522 -856 1778 -856 
Q 2344 -856 2625 -561 
Q 2906 -266 2906 331 
L 2906 616 
Q 2728 306 2450 153 
Q 2172 0 1784 0 
Q 1141 0 747 490 
Q 353 981 353 1791 
Q 353 2603 747 3093 
Q 1141 3584 1784 3584 
Q 2172 3584 2450 3431 
Q 2728 3278 2906 2969 
L 2906 3500 
L 3481 3500 
L 3481 434 
z
" id="DejaVuSans-67" transform="scale(0.015625)"/>
       <path d="M 513 4856 
L 1013 4856 
Q 1481 4119 1714 3412 
Q 1947 2706 1947 2009 
Q 1947 1309 1714 600 
Q 1481 -109 1013 -844 
L 513 -844 
Q 928 -128 1133 580 
Q 1338 1288 1338 2009 
Q 1338 2731 1133 3434 
Q 928 4138 513 4856 
z
" id="DejaVuSans-29" transform="scale(0.015625)"/>
      </defs>
      <use xlink:href="#DejaVuSans-46"/>
      <use x="52.019531" xlink:href="#DejaVuSans-75"/>
      <use x="115.398438" xlink:href="#DejaVuSans-7a"/>
      <use x="167.888672" xlink:href="#DejaVuSans-7a"/>
      <use x="220.378906" xlink:href="#DejaVuSans-65"/>
      <use x="281.902344" xlink:href="#DejaVuSans-72"/>
      <use x="323.015625" xlink:href="#DejaVuSans-20"/>
      <use x="354.802734" xlink:href="#DejaVuSans-28"/>
      <use x="393.816406" xlink:href="#DejaVuSans-68"/>
      <use x="457.195312" xlink:href="#DejaVuSans-69"/>
      <use x="484.978516" xlink:href="#DejaVuSans-67"/>
      <use x="548.455078" xlink:href="#DejaVuSans-68"/>
      <use x="611.833984" xlink:href="#DejaVuSans-65"/>
      <use x="673.357422" xlink:href="#DejaVuSans-73"/>
      <use x="725.457031" xlink:href="#DejaVuSans-74"/>
      <use x="764.666016" xlink:href="#DejaVuSans-20"/>
      <use x="796.453125" xlink:href="#DejaVuSans-6d"/>
      <use x="893.865234" xlink:href="#DejaVuSans-65"/>
      <use x="955.388672" xlink:href="#DejaVuSans-64"/>
      <use x="1018.865234" xlink:href="#DejaVuSans-69"/>
      <use x="1046.648438" xlink:href="#DejaVuSans-61"/>
      <use x="1107.927734" xlink:href="#DejaVuSans-6e"/>
      <use x="1171.306641" xlink:href="#DejaVuSans-20"/>
      <use x="1203.09375" xlink:href="#DejaVuSans-63"/>
      <use x="1258.074219" xlink:href="#DejaVuSans-6f"/>
      <use x="1319.255859" xlink:href="#DejaVuSans-76"/>
      <use x="1378.435547" xlink:href="#DejaVuSans-65"/>
      <use x="1439.958984" xlink:href="#DejaVuSans-72"/>
      <use x="1481.072266" xlink:href="#DejaVuSans-61"/>
      <use x="1542.351562" xlink:href="#DejaVuSans-67"/>
      <use x="1605.828125" xlink:href="#DejaVuSans-65"/>
      <use x="1667.351562" xlink:href="#DejaVuSans-20"/>
      <use x="1699.138672" xlink:href="#DejaVuSans-6f"/>
      <use x="1760.320312" xlink:href="#DejaVuSans-6e"/>
      <use x="1823.699219" xlink:href="#DejaVuSans-20"/>
      <use x="1855.486328" xlink:href="#DejaVuSans-74"/>
      <use x="1894.695312" xlink:href="#DejaVuSans-68"/>
      <use x="1958.074219" xlink:href="#DejaVuSans-65"/>
      <use x="2019.597656" xlink:href="#DejaVuSans-20"/>
      <use x="2051.384766" xlink:href="#DejaVuSans-6c"/>
      <use x="2079.167969" xlink:href="#DejaVuSans-65"/>
      <use x="2140.691406" xlink:href="#DejaVuSans-66"/>
      <use x="2174.146484" xlink:href="#DejaVuSans-74"/>
      <use x="2213.355469" xlink:href="#DejaVuSans-29"/>
     </g>
    </g>
   </g>
   <g id="matplotlib.axis_2">
    <g id="ytick_1">
     <g id="line2d_6">
      <defs>
       <path d="M 0 0 
L -3.5 0 
" id="m4f4ab2b1dd" style="stroke:#000000;stroke-width:0.8;"/>
      </defs>
      <g>
       <use style="stroke:#000000;stroke-width:0.8;" x="59.690625" xlink:href="#m4f4ab2b1dd" y="255.90936"/>
      </g>
     </g>
     <g id="text_7">
      <!-- 38600 -->
      <g transform="translate(20.878125 259.708578)scale(0.1 -0.1)">
       <defs>
        <path d="M 2597 2516 
Q 3050 2419 3304 2112 
Q 3559 1806 3559 1356 
Q 3559 666 3084 287 
Q 2609 -91 1734 -91 
Q 1441 -91 1130 -33 
Q 819 25 488 141 
L 488 750 
Q 750 597 1062 519 
Q 1375 441 1716 441 
Q 2309 441 2620 675 
Q 2931 909 2931 1356 
Q 2931 1769 2642 2001 
Q 2353 2234 1838 2234 
L 1294 2234 
L 1294 2753 
L 1863 2753 
Q 2328 2753 2575 2939 
Q 2822 3125 2822 3475 
Q 2822 3834 2567 4026 
Q 2313 4219 1838 4219 
Q 1578 4219 1281 4162 
Q 984 4106 628 3988 
L 628 4550 
Q 988 4650 1302 4700 
Q 1616 4750 1894 4750 
Q 2613 4750 3031 4423 
Q 3450 4097 3450 3541 
Q 3450 3153 3228 2886 
Q 3006 2619 2597 2516 
z
" id="DejaVuSans-33" transform="scale(0.015625)"/>
        <path d="M 2034 2216 
Q 1584 2216 1326 1975 
Q 1069 1734 1069 1313 
Q 1069 891 1326 650 
Q 1584 409 2034 409 
Q 2484 409 2743 651 
Q 3003 894 3003 1313 
Q 3003 1734 2745 1975 
Q 2488 2216 2034 2216 
z
M 1403 2484 
Q 997 2584 770 2862 
Q 544 3141 544 3541 
Q 544 4100 942 4425 
Q 1341 4750 2034 4750 
Q 2731 4750 3128 4425 
Q 3525 4100 3525 3541 
Q 3525 3141 3298 2862 
Q 3072 2584 2669 2484 
Q 3125 2378 3379 2068 
Q 3634 1759 3634 1313 
Q 3634 634 3220 271 
Q 2806 -91 2034 -91 
Q 1263 -91 848 271 
Q 434 634 434 1313 
Q 434 1759 690 2068 
Q 947 2378 1403 2484 
z
M 1172 3481 
Q 1172 3119 1398 2916 
Q 1625 2713 2034 2713 
Q 2441 2713 2670 2916 
Q 2900 3119 2900 3481 
Q 2900 3844 2670 4047 
Q 2441 4250 2034 4250 
Q 1625 4250 1398 4047 
Q 1172 3844 1172 3481 
z
" id="DejaVuSans-38" transform="scale(0.015625)"/>
        <path d="M 2113 2584 
Q 1688 2584 1439 2293 
Q 1191 2003 1191 1497 
Q 1191 994 1439 701 
Q 1688 409 2113 409 
Q 2538 409 2786 701 
Q 3034 994 3034 1497 
Q 3034 2003 2786 2293 
Q 2538 2584 2113 2584 
z
M 3366 4563 
L 3366 3988 
Q 3128 4100 2886 4159 
Q 2644 4219 2406 4219 
Q 1781 4219 1451 3797 
Q 1122 3375 1075 2522 
Q 1259 2794 1537 2939 
Q 1816 3084 2150 3084 
Q 2853 3084 3261 2657 
Q 3669 2231 3669 1497 
Q 3669 778 3244 343 
Q 2819 -91 2113 -91 
Q 1303 -91 875 529 
Q 447 1150 447 2328 
Q 447 3434 972 4092 
Q 1497 4750 2381 4750 
Q 2619 4750 2861 4703 
Q 3103 4656 3366 4563 
z
" id="DejaVuSans-36" transform="scale(0.015625)"/>
        <path d="M 2034 4250 
Q 1547 4250 1301 3770 
Q 1056 3291 1056 2328 
Q 1056 1369 1301 889 
Q 1547 409 2034 409 
Q 2525 409 2770 889 
Q 3016 1369 3016 2328 
Q 3016 3291 2770 3770 
Q 2525 4250 2034 4250 
z
M 2034 4750 
Q 2819 4750 3233 4129 
Q 3647 3509 3647 2328 
Q 3647 1150 3233 529 
Q 2819 -91 2034 -91 
Q 1250 -91 836 529 
Q 422 1150 422 2328 
Q 422 3509 836 4129 
Q 1250 4750 2034 4750 
z
" id="DejaVuSans-30" transform="scale(0.015625)"/>
       </defs>
       <use xlink:href="#DejaVuSans-33"/>
       <use x="63.623047" xlink:href="#DejaVuSans-38"/>
       <use x="127.246094" xlink:href="#DejaVuSans-36"/>
       <use x="190.869141" xlink:href="#DejaVuSans-30"/>
       <use x="254.492188" xlink:href="#DejaVuSans-30"/>
      </g>
     </g>
    </g>
    <g id="ytick_2">
     <g id="line2d_7">
      <g>
       <use style="stroke:#000000;stroke-width:0.8;" x="59.690625" xlink:href="#m4f4ab2b1dd" y="210.520992"/>
      </g>
     </g>
     <g id="text_8">
      <!-- 38800 -->
      <g transform="translate(20.878125 214.320211)scale(0.1 -0.1)">
       <use xlink:href="#DejaVuSans-33"/>
       <use x="63.623047" xlink:href="#DejaVuSans-38"/>
       <use x="127.246094" xlink:href="#DejaVuSans-38"/>
       <use x="190.869141" xlink:href="#DejaVuSans-30"/>
       <use x="254.492188" xlink:href="#DejaVuSans-30"/>
      </g>
     </g>
    </g>
    <g id="ytick_3">
     <g id="line2d_8">
      <g>
       <use style="stroke:#000000;stroke-width:0.8;" x="59.690625" xlink:href="#m4f4ab2b1dd" y="165.132624"/>
      </g>
     </g>
     <g id="text_9">
      <!-- 39000 -->
      <g transform="translate(20.878125 168.931843)scale(0.1 -0.1)">
       <defs>
        <path d="M 703 97 
L 703 672 
Q 941 559 1184 500 
Q 1428 441 1663 441 
Q 2288 441 2617 861 
Q 2947 1281 2994 2138 
Q 2813 1869 2534 1725 
Q 2256 1581 1919 1581 
Q 1219 1581 811 2004 
Q 403 2428 403 3163 
Q 403 3881 828 4315 
Q 1253 4750 1959 4750 
Q 2769 4750 3195 4129 
Q 3622 3509 3622 2328 
Q 3622 1225 3098 567 
Q 2575 -91 1691 -91 
Q 1453 -91 1209 -44 
Q 966 3 703 97 
z
M 1959 2075 
Q 2384 2075 2632 2365 
Q 2881 2656 2881 3163 
Q 2881 3666 2632 3958 
Q 2384 4250 1959 4250 
Q 1534 4250 1286 3958 
Q 1038 3666 1038 3163 
Q 1038 2656 1286 2365 
Q 1534 2075 1959 2075 
z
" id="DejaVuSans-39" transform="scale(0.015625)"/>
       </defs>
       <use xlink:href="#DejaVuSans-33"/>
       <use x="63.623047" xlink:href="#DejaVuSans-39"/>
       <use x="127.246094" xlink:href="#DejaVuSans-30"/>
       <use x="190.869141" xlink:href="#DejaVuSans-30"/>
       <use x="254.492188" xlink:href="#DejaVuSans-30"/>
      </g>
     </g>
    </g>
    <g id="ytick_4">
     <g id="line2d_9">
      <g>
       <use style="stroke:#000000;stroke-width:0.8;" x="59.690625" xlink:href="#m4f4ab2b1dd" y="119.744256"/>
      </g>
     </g>
     <g id="text_10">
      <!-- 39200 -->
      <g transform="translate(20.878125 123.543475)scale(0.1 -0.1)">
       <defs>
        <path d="M 1228 531 
L 3431 531 
L 3431 0 
L 469 0 
L 469 531 
Q 828 903 1448 1529 
Q 2069 2156 2228 2338 
Q 2531 2678 2651 2914 
Q 2772 3150 2772 3378 
Q 2772 3750 2511 3984 
Q 2250 4219 1831 4219 
Q 1534 4219 1204 4116 
Q 875 4013 500 3803 
L 500 4441 
Q 881 4594 1212 4672 
Q 1544 4750 1819 4750 
Q 2544 4750 2975 4387 
Q 3406 4025 3406 3419 
Q 3406 3131 3298 2873 
Q 3191 2616 2906 2266 
Q 2828 2175 2409 1742 
Q 1991 1309 1228 531 
z
" id="DejaVuSans-32" transform="scale(0.015625)"/>
       </defs>
       <use xlink:href="#DejaVuSans-33"/>
       <use x="63.623047" xlink:href="#DejaVuSans-39"/>
       <use x="127.246094" xlink:href="#DejaVuSans-32"/>
       <use x="190.869141" xlink:href="#DejaVuSans-30"/>
       <use x="254.492188" xlink:href="#DejaVuSans-30"/>
      </g>
     </g>
    </g>
    <g id="ytick_5">
     <g id="line2d_10">
      <g>
       <use style="stroke:#000000;stroke-width:0.8;" x="59.690625" xlink:href="#m4f4ab2b1dd" y="74.355889"/>
      </g>
     </g>
     <g id="text_11">
      <!-- 39400 -->
      <g transform="translate(20.878125 78.155107)scale(0.1 -0.1)">
       <defs>
        <path d="M 2419 4116 
L 825 1625 
L 2419 1625 
L 2419 4116 
z
M 2253 4666 
L 3047 4666 
L 3047 1625 
L 3713 1625 
L 3713 1100 
L 3047 1100 
L 3047 0 
L 2419 0 
L 2419 1100 
L 313 1100 
L 313 1709 
L 2253 4666 
z
" id="DejaVuSans-34" transform="scale(0.015625)"/>
       </defs>
       <use xlink:href="#DejaVuSans-33"/>
       <use x="63.623047" xlink:href="#DejaVuSans-39"/>
       <use x="127.246094" xlink:href="#DejaVuSans-34"/>
       <use x="190.869141" xlink:href="#DejaVuSans-30"/>
       <use x="254.492188" xlink:href="#DejaVuSans-30"/>
      </g>
     </g>
    </g>
    <g id="ytick_6">
     <g id="line2d_11">
      <g>
       <use style="stroke:#000000;stroke-width:0.8;" x="59.690625" xlink:href="#m4f4ab2b1dd" y="28.967521"/>
      </g>
     </g>
     <g id="text_12">
      <!-- 39600 -->
      <g transform="translate(20.878125 32.76674)scale(0.1 -0.1)">
       <use xlink:href="#DejaVuSans-33"/>
       <use x="63.623047" xlink:href="#DejaVuSans-39"/>
       <use x="127.246094" xlink:href="#DejaVuSans-36"/>
       <use x="190.869141" xlink:href="#DejaVuSans-30"/>
       <use x="254.492188" xlink:href="#DejaVuSans-30"/>
      </g>
     </g>
    </g>
    <g id="text_13">
     <!-- Reached region coverage -->
     <g transform="translate(14.798438 219.136625)rotate(-90)scale(0.1 -0.1)">
      <defs>
       <path d="M 2841 2188 
Q 3044 2119 3236 1894 
Q 3428 1669 3622 1275 
L 4263 0 
L 3584 0 
L 2988 1197 
Q 2756 1666 2539 1819 
Q 2322 1972 1947 1972 
L 1259 1972 
L 1259 0 
L 628 0 
L 628 4666 
L 2053 4666 
Q 2853 4666 3247 4331 
Q 3641 3997 3641 3322 
Q 3641 2881 3436 2590 
Q 3231 2300 2841 2188 
z
M 1259 4147 
L 1259 2491 
L 2053 2491 
Q 2509 2491 2742 2702 
Q 2975 2913 2975 3322 
Q 2975 3731 2742 3939 
Q 2509 4147 2053 4147 
L 1259 4147 
z
" id="DejaVuSans-52" transform="scale(0.015625)"/>
      </defs>
      <use xlink:href="#DejaVuSans-52"/>
      <use x="64.982422" xlink:href="#DejaVuSans-65"/>
      <use x="126.505859" xlink:href="#DejaVuSans-61"/>
      <use x="187.785156" xlink:href="#DejaVuSans-63"/>
      <use x="242.765625" xlink:href="#DejaVuSans-68"/>
      <use x="306.144531" xlink:href="#DejaVuSans-65"/>
      <use x="367.667969" xlink:href="#DejaVuSans-64"/>
      <use x="431.144531" xlink:href="#DejaVuSans-20"/>
      <use x="462.931641" xlink:href="#DejaVuSans-72"/>
      <use x="501.794922" xlink:href="#DejaVuSans-65"/>
      <use x="563.318359" xlink:href="#DejaVuSans-67"/>
      <use x="626.794922" xlink:href="#DejaVuSans-69"/>
      <use x="654.578125" xlink:href="#DejaVuSans-6f"/>
      <use x="715.759766" xlink:href="#DejaVuSans-6e"/>
      <use x="779.138672" xlink:href="#DejaVuSans-20"/>
      <use x="810.925781" xlink:href="#DejaVuSans-63"/>
      <use x="865.90625" xlink:href="#DejaVuSans-6f"/>
      <use x="927.087891" xlink:href="#DejaVuSans-76"/>
      <use x="986.267578" xlink:href="#DejaVuSans-65"/>
      <use x="1047.791016" xlink:href="#DejaVuSans-72"/>
      <use x="1088.904297" xlink:href="#DejaVuSans-61"/>
      <use x="1150.183594" xlink:href="#DejaVuSans-67"/>
      <use x="1213.660156" xlink:href="#DejaVuSans-65"/>
     </g>
    </g>
   </g>
   <g id="line2d_12">
    <path clip-path="url(#pc71ea16a3a)" d="M 95.402625 191.003994 
L 95.402625 244.789209 
" style="fill:none;stroke:#3f3f3f;stroke-linecap:square;stroke-width:1.5;"/>
   </g>
   <g id="line2d_13">
    <path clip-path="url(#pc71ea16a3a)" d="M 95.402625 123.205119 
L 95.402625 34.414125 
" style="fill:none;stroke:#3f3f3f;stroke-linecap:square;stroke-width:1.5;"/>
   </g>
   <g id="line2d_14">
    <path clip-path="url(#pc71ea16a3a)" d="M 81.117825 244.789209 
L 109.687425 244.789209 
" style="fill:none;stroke:#3f3f3f;stroke-linecap:square;stroke-width:1.5;"/>
   </g>
   <g id="line2d_15">
    <path clip-path="url(#pc71ea16a3a)" d="M 81.117825 34.414125 
L 109.687425 34.414125 
" style="fill:none;stroke:#3f3f3f;stroke-linecap:square;stroke-width:1.5;"/>
   </g>
   <g id="line2d_16"/>
   <g id="line2d_17">
    <path clip-path="url(#pc71ea16a3a)" d="M 166.826625 205.074388 
L 166.826625 225.726095 
" style="fill:none;stroke:#3f3f3f;stroke-linecap:square;stroke-width:1.5;"/>
   </g>
   <g id="line2d_18">
    <path clip-path="url(#pc71ea16a3a)" d="M 166.826625 162.295851 
L 166.826625 146.977277 
" style="fill:none;stroke:#3f3f3f;stroke-linecap:square;stroke-width:1.5;"/>
   </g>
   <g id="line2d_19">
    <path clip-path="url(#pc71ea16a3a)" d="M 152.541825 225.726095 
L 181.111425 225.726095 
" style="fill:none;stroke:#3f3f3f;stroke-linecap:square;stroke-width:1.5;"/>
   </g>
   <g id="line2d_20">
    <path clip-path="url(#pc71ea16a3a)" d="M 152.541825 146.977277 
L 181.111425 146.977277 
" style="fill:none;stroke:#3f3f3f;stroke-linecap:square;stroke-width:1.5;"/>
   </g>
   <g id="line2d_21"/>
   <g id="line2d_22">
    <path clip-path="url(#pc71ea16a3a)" d="M 238.250625 223.002793 
L 238.250625 240.931198 
" style="fill:none;stroke:#3f3f3f;stroke-linecap:square;stroke-width:1.5;"/>
   </g>
   <g id="line2d_23">
    <path clip-path="url(#pc71ea16a3a)" d="M 238.250625 172.281292 
L 238.250625 138.807371 
" style="fill:none;stroke:#3f3f3f;stroke-linecap:square;stroke-width:1.5;"/>
   </g>
   <g id="line2d_24">
    <path clip-path="url(#pc71ea16a3a)" d="M 223.965825 240.931198 
L 252.535425 240.931198 
" style="fill:none;stroke:#3f3f3f;stroke-linecap:square;stroke-width:1.5;"/>
   </g>
   <g id="line2d_25">
    <path clip-path="url(#pc71ea16a3a)" d="M 223.965825 138.807371 
L 252.535425 138.807371 
" style="fill:none;stroke:#3f3f3f;stroke-linecap:square;stroke-width:1.5;"/>
   </g>
   <g id="line2d_26"/>
   <g id="line2d_27">
    <path clip-path="url(#pc71ea16a3a)" d="M 309.674625 235.03071 
L 309.674625 276.334125 
" style="fill:none;stroke:#3f3f3f;stroke-linecap:square;stroke-width:1.5;"/>
   </g>
   <g id="line2d_28">
    <path clip-path="url(#pc71ea16a3a)" d="M 309.674625 199.1739 
L 309.674625 169.444519 
" style="fill:none;stroke:#3f3f3f;stroke-linecap:square;stroke-width:1.5;"/>
   </g>
   <g id="line2d_29">
    <path clip-path="url(#pc71ea16a3a)" d="M 295.389825 276.334125 
L 323.959425 276.334125 
" style="fill:none;stroke:#3f3f3f;stroke-linecap:square;stroke-width:1.5;"/>
   </g>
   <g id="line2d_30">
    <path clip-path="url(#pc71ea16a3a)" d="M 295.389825 169.444519 
L 323.959425 169.444519 
" style="fill:none;stroke:#3f3f3f;stroke-linecap:square;stroke-width:1.5;"/>
   </g>
   <g id="line2d_31"/>
   <g id="line2d_32">
    <path clip-path="url(#pc71ea16a3a)" d="M 381.098625 237.924219 
L 381.098625 244.562268 
" style="fill:none;stroke:#3f3f3f;stroke-linecap:square;stroke-width:1.5;"/>
   </g>
   <g id="line2d_33">
    <path clip-path="url(#pc71ea16a3a)" d="M 381.098625 210.974875 
L 381.098625 188.734575 
" style="fill:none;stroke:#3f3f3f;stroke-linecap:square;stroke-width:1.5;"/>
   </g>
   <g id="line2d_34">
    <path clip-path="url(#pc71ea16a3a)" d="M 366.813825 244.562268 
L 395.383425 244.562268 
" style="fill:none;stroke:#3f3f3f;stroke-linecap:square;stroke-width:1.5;"/>
   </g>
   <g id="line2d_35">
    <path clip-path="url(#pc71ea16a3a)" d="M 366.813825 188.734575 
L 395.383425 188.734575 
" style="fill:none;stroke:#3f3f3f;stroke-linecap:square;stroke-width:1.5;"/>
   </g>
   <g id="line2d_36"/>
   <g id="line2d_37">
    <path clip-path="url(#pc71ea16a3a)" d="M 66.833025 158.324369 
L 123.972225 158.324369 
" style="fill:none;stroke:#3f3f3f;stroke-linecap:square;stroke-width:1.5;"/>
   </g>
   <g id="line2d_38">
    <defs>
     <path d="M 0 -5 
L -5 5 
L 5 5 
z
" id="m5daf26faa3" style="stroke:#000000;stroke-linejoin:miter;"/>
    </defs>
    <g clip-path="url(#pc71ea16a3a)">
     <use style="fill:#ffffff;stroke:#000000;stroke-linejoin:miter;" x="95.402625" xlink:href="#m5daf26faa3" y="155.532984"/>
    </g>
   </g>
   <g id="line2d_39">
    <path clip-path="url(#pc71ea16a3a)" d="M 138.257025 189.415401 
L 195.396225 189.415401 
" style="fill:none;stroke:#3f3f3f;stroke-linecap:square;stroke-width:1.5;"/>
   </g>
   <g id="line2d_40">
    <g clip-path="url(#pc71ea16a3a)">
     <use style="fill:#ffffff;stroke:#000000;stroke-linejoin:miter;" x="166.826625" xlink:href="#m5daf26faa3" y="185.265607"/>
    </g>
   </g>
   <g id="line2d_41">
    <path clip-path="url(#pc71ea16a3a)" d="M 209.681025 205.755213 
L 266.820225 205.755213 
" style="fill:none;stroke:#3f3f3f;stroke-linecap:square;stroke-width:1.5;"/>
   </g>
   <g id="line2d_42">
    <g clip-path="url(#pc71ea16a3a)">
     <use style="fill:#ffffff;stroke:#000000;stroke-linejoin:miter;" x="238.250625" xlink:href="#m5daf26faa3" y="196.580279"/>
    </g>
   </g>
   <g id="line2d_43">
    <path clip-path="url(#pc71ea16a3a)" d="M 281.105025 218.010072 
L 338.244225 218.010072 
" style="fill:none;stroke:#3f3f3f;stroke-linecap:square;stroke-width:1.5;"/>
   </g>
   <g id="line2d_44">
    <g clip-path="url(#pc71ea16a3a)">
     <use style="fill:#ffffff;stroke:#000000;stroke-linejoin:miter;" x="309.674625" xlink:href="#m5daf26faa3" y="221.013714"/>
    </g>
   </g>
   <g id="line2d_45">
    <path clip-path="url(#pc71ea16a3a)" d="M 352.529025 225.726095 
L 409.668225 225.726095 
" style="fill:none;stroke:#3f3f3f;stroke-linecap:square;stroke-width:1.5;"/>
   </g>
   <g id="line2d_46">
    <g clip-path="url(#pc71ea16a3a)">
     <use style="fill:#ffffff;stroke:#000000;stroke-linejoin:miter;" x="381.098625" xlink:href="#m5daf26faa3" y="222.253885"/>
    </g>
   </g>
   <g id="patch_8">
    <path d="M 59.690625 255.90936 
L 59.690625 28.967521 
" style="fill:none;stroke:#000000;stroke-linecap:square;stroke-linejoin:miter;stroke-width:0.8;"/>
   </g>
   <g id="patch_9">
    <path d="M 95.402625 288.430125 
L 381.098625 288.430125 
" style="fill:none;stroke:#000000;stroke-linecap:square;stroke-linejoin:miter;stroke-width:0.8;"/>
   </g>
   <g id="PathCollection_1">
    <defs>
     <path d="M 0 1.5 
C 0.397805 1.5 0.77937 1.341951 1.06066 1.06066 
C 1.341951 0.77937 1.5 0.397805 1.5 -0 
C 1.5 -0.397805 1.341951 -0.77937 1.06066 -1.06066 
C 0.77937 -1.341951 0.397805 -1.5 0 -1.5 
C -0.397805 -1.5 -0.77937 -1.341951 -1.06066 -1.06066 
C -1.341951 -0.77937 -1.5 -0.397805 -1.5 0 
C -1.5 0.397805 -1.341951 0.77937 -1.06066 1.06066 
C -0.77937 1.341951 -0.397805 1.5 0 1.5 
z
" id="C0_0_4d264da95d"/>
    </defs>
    <g clip-path="url(#pc71ea16a3a)">
     <use style="fill-opacity:0.6;" x="90.679415" xlink:href="#C0_0_4d264da95d" y="109.304932"/>
    </g>
    <g clip-path="url(#pc71ea16a3a)">
     <use style="fill-opacity:0.6;" x="102.072531" xlink:href="#C0_0_4d264da95d" y="218.010072"/>
    </g>
    <g clip-path="url(#pc71ea16a3a)">
     <use style="fill-opacity:0.6;" x="93.220814" xlink:href="#C0_0_4d264da95d" y="191.457877"/>
    </g>
    <g clip-path="url(#pc71ea16a3a)">
     <use style="fill-opacity:0.6;" x="100.83487" xlink:href="#C0_0_4d264da95d" y="130.183581"/>
    </g>
    <g clip-path="url(#pc71ea16a3a)">
     <use style="fill-opacity:0.6;" x="90.404212" xlink:href="#C0_0_4d264da95d" y="120.878966"/>
    </g>
    <g clip-path="url(#pc71ea16a3a)">
     <use style="fill-opacity:0.6;" x="94.267729" xlink:href="#C0_0_4d264da95d" y="244.789209"/>
    </g>
    <g clip-path="url(#pc71ea16a3a)">
     <use style="fill-opacity:0.6;" x="100.185999" xlink:href="#C0_0_4d264da95d" y="182.380204"/>
    </g>
    <g clip-path="url(#pc71ea16a3a)">
     <use style="fill-opacity:0.6;" x="89.306316" xlink:href="#C0_0_4d264da95d" y="134.268534"/>
    </g>
    <g clip-path="url(#pc71ea16a3a)">
     <use style="fill-opacity:0.6;" x="96.43945" xlink:href="#C0_0_4d264da95d" y="34.414125"/>
    </g>
    <g clip-path="url(#pc71ea16a3a)">
     <use style="fill-opacity:0.6;" x="91.109487" xlink:href="#C0_0_4d264da95d" y="189.642343"/>
    </g>
   </g>
   <g id="PathCollection_2">
    <defs>
     <path d="M 0 1.5 
C 0.397805 1.5 0.77937 1.341951 1.06066 1.06066 
C 1.341951 0.77937 1.5 0.397805 1.5 -0 
C 1.5 -0.397805 1.341951 -0.77937 1.06066 -1.06066 
C 0.77937 -1.341951 0.397805 -1.5 0 -1.5 
C -0.397805 -1.5 -0.77937 -1.341951 -1.06066 -1.06066 
C -1.341951 -0.77937 -1.5 -0.397805 -1.5 0 
C -1.5 0.397805 -1.341951 0.77937 -1.06066 1.06066 
C -0.77937 1.341951 -0.397805 1.5 0 1.5 
z
" id="C1_0_211f66d39e"/>
    </defs>
    <g clip-path="url(#pc71ea16a3a)">
     <use style="fill-opacity:0.6;" x="168.138809" xlink:href="#C1_0_211f66d39e" y="192.138703"/>
    </g>
    <g clip-path="url(#pc71ea16a3a)">
     <use style="fill-opacity:0.6;" x="169.350144" xlink:href="#C1_0_211f66d39e" y="158.551311"/>
    </g>
    <g clip-path="url(#pc71ea16a3a)">
     <use style="fill-opacity:0.6;" x="170.541273" xlink:href="#C1_0_211f66d39e" y="189.415401"/>
    </g>
    <g clip-path="url(#pc71ea16a3a)">
     <use style="fill-opacity:0.6;" x="160.922686" xlink:href="#C1_0_211f66d39e" y="225.726095"/>
    </g>
    <g clip-path="url(#pc71ea16a3a)">
     <use style="fill-opacity:0.6;" x="161.165722" xlink:href="#C1_0_211f66d39e" y="166.040391"/>
    </g>
    <g clip-path="url(#pc71ea16a3a)">
     <use style="fill-opacity:0.6;" x="168.926588" xlink:href="#C1_0_211f66d39e" y="146.977277"/>
    </g>
    <g clip-path="url(#pc71ea16a3a)">
     <use style="fill-opacity:0.6;" x="171.634266" xlink:href="#C1_0_211f66d39e" y="218.010072"/>
    </g>
   </g>
   <g id="PathCollection_3">
    <defs>
     <path d="M 0 1.5 
C 0.397805 1.5 0.77937 1.341951 1.06066 1.06066 
C 1.341951 0.77937 1.5 0.397805 1.5 -0 
C 1.5 -0.397805 1.341951 -0.77937 1.06066 -1.06066 
C 0.77937 -1.341951 0.397805 -1.5 0 -1.5 
C -0.397805 -1.5 -0.77937 -1.341951 -1.06066 -1.06066 
C -1.341951 -0.77937 -1.5 -0.397805 -1.5 0 
C -1.5 0.397805 -1.341951 0.77937 -1.06066 1.06066 
C -0.77937 1.341951 -0.397805 1.5 0 1.5 
z
" id="C2_0_2ad94d80af"/>
    </defs>
    <g clip-path="url(#pc71ea16a3a)">
     <use style="fill-opacity:0.6;" x="233.897314" xlink:href="#C2_0_2ad94d80af" y="162.863206"/>
    </g>
    <g clip-path="url(#pc71ea16a3a)">
     <use style="fill-opacity:0.6;" x="242.334295" xlink:href="#C2_0_2ad94d80af" y="181.699378"/>
    </g>
    <g clip-path="url(#pc71ea16a3a)">
     <use style="fill-opacity:0.6;" x="239.944507" xlink:href="#C2_0_2ad94d80af" y="240.931198"/>
    </g>
    <g clip-path="url(#pc71ea16a3a)">
     <use style="fill-opacity:0.6;" x="244.666661" xlink:href="#C2_0_2ad94d80af" y="205.755213"/>
    </g>
    <g clip-path="url(#pc71ea16a3a)">
     <use style="fill-opacity:0.6;" x="237.792565" xlink:href="#C2_0_2ad94d80af" y="138.807371"/>
    </g>
    <g clip-path="url(#pc71ea16a3a)">
     <use style="fill-opacity:0.6;" x="243.167563" xlink:href="#C2_0_2ad94d80af" y="217.329247"/>
    </g>
    <g clip-path="url(#pc71ea16a3a)">
     <use style="fill-opacity:0.6;" x="234.087844" xlink:href="#C2_0_2ad94d80af" y="228.676339"/>
    </g>
   </g>
   <g id="PathCollection_4">
    <defs>
     <path d="M 0 1.5 
C 0.397805 1.5 0.77937 1.341951 1.06066 1.06066 
C 1.341951 0.77937 1.5 0.397805 1.5 -0 
C 1.5 -0.397805 1.341951 -0.77937 1.06066 -1.06066 
C 0.77937 -1.341951 0.397805 -1.5 0 -1.5 
C -0.397805 -1.5 -0.77937 -1.341951 -1.06066 -1.06066 
C -1.341951 -0.77937 -1.5 -0.397805 -1.5 0 
C -1.5 0.397805 -1.341951 0.77937 -1.06066 1.06066 
C -0.77937 1.341951 -0.397805 1.5 0 1.5 
z
" id="C3_0_da6c55fb82"/>
    </defs>
    <g clip-path="url(#pc71ea16a3a)">
     <use style="fill-opacity:0.6;" x="303.691768" xlink:href="#C3_0_da6c55fb82" y="234.576827"/>
    </g>
    <g clip-path="url(#pc71ea16a3a)">
     <use style="fill-opacity:0.6;" x="305.688737" xlink:href="#C3_0_da6c55fb82" y="178.295251"/>
    </g>
    <g clip-path="url(#pc71ea16a3a)">
     <use style="fill-opacity:0.6;" x="310.676455" xlink:href="#C3_0_da6c55fb82" y="276.334125"/>
    </g>
    <g clip-path="url(#pc71ea16a3a)">
     <use style="fill-opacity:0.6;" x="311.743918" xlink:href="#C3_0_da6c55fb82" y="212.109585"/>
    </g>
    <g clip-path="url(#pc71ea16a3a)">
     <use style="fill-opacity:0.6;" x="307.204858" xlink:href="#C3_0_da6c55fb82" y="218.010072"/>
    </g>
    <g clip-path="url(#pc71ea16a3a)">
     <use style="fill-opacity:0.6;" x="308.176497" xlink:href="#C3_0_da6c55fb82" y="199.1739"/>
    </g>
    <g clip-path="url(#pc71ea16a3a)">
     <use style="fill-opacity:0.6;" x="305.638948" xlink:href="#C3_0_da6c55fb82" y="197.812249"/>
    </g>
    <g clip-path="url(#pc71ea16a3a)">
     <use style="fill-opacity:0.6;" x="313.7677" xlink:href="#C3_0_da6c55fb82" y="220.733375"/>
    </g>
    <g clip-path="url(#pc71ea16a3a)">
     <use style="fill-opacity:0.6;" x="309.322852" xlink:href="#C3_0_da6c55fb82" y="251.824406"/>
    </g>
    <g clip-path="url(#pc71ea16a3a)">
     <use style="fill-opacity:0.6;" x="314.42697" xlink:href="#C3_0_da6c55fb82" y="207.79769"/>
    </g>
    <g clip-path="url(#pc71ea16a3a)">
     <use style="fill-opacity:0.6;" x="305.804541" xlink:href="#C3_0_da6c55fb82" y="207.116864"/>
    </g>
    <g clip-path="url(#pc71ea16a3a)">
     <use style="fill-opacity:0.6;" x="308.591208" xlink:href="#C3_0_da6c55fb82" y="234.803769"/>
    </g>
    <g clip-path="url(#pc71ea16a3a)">
     <use style="fill-opacity:0.6;" x="308.365671" xlink:href="#C3_0_da6c55fb82" y="235.03071"/>
    </g>
    <g clip-path="url(#pc71ea16a3a)">
     <use style="fill-opacity:0.6;" x="305.539861" xlink:href="#C3_0_da6c55fb82" y="270.887521"/>
    </g>
    <g clip-path="url(#pc71ea16a3a)">
     <use style="fill-opacity:0.6;" x="314.170835" xlink:href="#C3_0_da6c55fb82" y="256.590185"/>
    </g>
    <g clip-path="url(#pc71ea16a3a)">
     <use style="fill-opacity:0.6;" x="305.260169" xlink:href="#C3_0_da6c55fb82" y="169.444519"/>
    </g>
    <g clip-path="url(#pc71ea16a3a)">
     <use style="fill-opacity:0.6;" x="315.859079" xlink:href="#C3_0_da6c55fb82" y="186.692099"/>
    </g>
   </g>
   <g id="PathCollection_5">
    <defs>
     <path d="M 0 1.5 
C 0.397805 1.5 0.77937 1.341951 1.06066 1.06066 
C 1.341951 0.77937 1.5 0.397805 1.5 -0 
C 1.5 -0.397805 1.341951 -0.77937 1.06066 -1.06066 
C 0.77937 -1.341951 0.397805 -1.5 0 -1.5 
C -0.397805 -1.5 -0.77937 -1.341951 -1.06066 -1.06066 
C -1.341951 -0.77937 -1.5 -0.397805 -1.5 0 
C -1.5 0.397805 -1.341951 0.77937 -1.06066 1.06066 
C -0.77937 1.341951 -0.397805 1.5 0 1.5 
z
" id="C4_0_81899f9cc1"/>
    </defs>
    <g clip-path="url(#pc71ea16a3a)">
     <use style="fill-opacity:0.6;" x="382.792217" xlink:href="#C4_0_81899f9cc1" y="239.569547"/>
    </g>
    <g clip-path="url(#pc71ea16a3a)">
     <use style="fill-opacity:0.6;" x="386.340109" xlink:href="#C4_0_81899f9cc1" y="210.747934"/>
    </g>
    <g clip-path="url(#pc71ea16a3a)">
     <use style="fill-opacity:0.6;" x="376.525278" xlink:href="#C4_0_81899f9cc1" y="235.711536"/>
    </g>
    <g clip-path="url(#pc71ea16a3a)">
     <use style="fill-opacity:0.6;" x="384.876166" xlink:href="#C4_0_81899f9cc1" y="244.562268"/>
    </g>
    <g clip-path="url(#pc71ea16a3a)">
     <use style="fill-opacity:0.6;" x="374.620096" xlink:href="#C4_0_81899f9cc1" y="238.434838"/>
    </g>
    <g clip-path="url(#pc71ea16a3a)">
     <use style="fill-opacity:0.6;" x="376.120347" xlink:href="#C4_0_81899f9cc1" y="188.734575"/>
    </g>
    <g clip-path="url(#pc71ea16a3a)">
     <use style="fill-opacity:0.6;" x="374.688942" xlink:href="#C4_0_81899f9cc1" y="215.740654"/>
    </g>
    <g clip-path="url(#pc71ea16a3a)">
     <use style="fill-opacity:0.6;" x="385.561488" xlink:href="#C4_0_81899f9cc1" y="236.392361"/>
    </g>
    <g clip-path="url(#pc71ea16a3a)">
     <use style="fill-opacity:0.6;" x="382.114398" xlink:href="#C4_0_81899f9cc1" y="211.655701"/>
    </g>
    <g clip-path="url(#pc71ea16a3a)">
     <use style="fill-opacity:0.6;" x="379.743276" xlink:href="#C4_0_81899f9cc1" y="200.989435"/>
    </g>
   </g>
   <g id="text_14">
    <!-- poppler_pdf_fuzzer (23h, 7 trials/fuzzer) -->
    <g transform="translate(118.313438 16.318125)scale(0.12 -0.12)">
     <defs>
      <path d="M 750 794 
L 1409 794 
L 1409 256 
L 897 -744 
L 494 -744 
L 750 256 
L 750 794 
z
" id="DejaVuSans-2c" transform="scale(0.015625)"/>
      <path d="M 525 4666 
L 3525 4666 
L 3525 4397 
L 1831 0 
L 1172 0 
L 2766 4134 
L 525 4134 
L 525 4666 
z
" id="DejaVuSans-37" transform="scale(0.015625)"/>
      <path d="M 1625 4666 
L 2156 4666 
L 531 -594 
L 0 -594 
L 1625 4666 
z
" id="DejaVuSans-2f" transform="scale(0.015625)"/>
     </defs>
     <use xlink:href="#DejaVuSans-70"/>
     <use x="63.476562" xlink:href="#DejaVuSans-6f"/>
     <use x="124.658203" xlink:href="#DejaVuSans-70"/>
     <use x="188.134766" xlink:href="#DejaVuSans-70"/>
     <use x="251.611328" xlink:href="#DejaVuSans-6c"/>
     <use x="279.394531" xlink:href="#DejaVuSans-65"/>
     <use x="340.917969" xlink:href="#DejaVuSans-72"/>
     <use x="382.03125" xlink:href="#DejaVuSans-5f"/>
     <use x="432.03125" xlink:href="#DejaVuSans-70"/>
     <use x="495.507812" xlink:href="#DejaVuSans-64"/>
     <use x="558.984375" xlink:href="#DejaVuSans-66"/>
     <use x="594.189453" xlink:href="#DejaVuSans-5f"/>
     <use x="644.189453" xlink:href="#DejaVuSans-66"/>
     <use x="679.394531" xlink:href="#DejaVuSans-75"/>
     <use x="742.773438" xlink:href="#DejaVuSans-7a"/>
     <use x="795.263672" xlink:href="#DejaVuSans-7a"/>
     <use x="847.753906" xlink:href="#DejaVuSans-65"/>
     <use x="909.277344" xlink:href="#DejaVuSans-72"/>
     <use x="950.390625" xlink:href="#DejaVuSans-20"/>
     <use x="982.177734" xlink:href="#DejaVuSans-28"/>
     <use x="1021.191406" xlink:href="#DejaVuSans-32"/>
     <use x="1084.814453" xlink:href="#DejaVuSans-33"/>
     <use x="1148.4375" xlink:href="#DejaVuSans-68"/>
     <use x="1211.816406" xlink:href="#DejaVuSans-2c"/>
     <use x="1243.603516" xlink:href="#DejaVuSans-20"/>
     <use x="1275.390625" xlink:href="#DejaVuSans-37"/>
     <use x="1339.013672" xlink:href="#DejaVuSans-20"/>
     <use x="1370.800781" xlink:href="#DejaVuSans-74"/>
     <use x="1410.009766" xlink:href="#DejaVuSans-72"/>
     <use x="1451.123047" xlink:href="#DejaVuSans-69"/>
     <use x="1478.90625" xlink:href="#DejaVuSans-61"/>
     <use x="1540.185547" xlink:href="#DejaVuSans-6c"/>
     <use x="1567.96875" xlink:href="#DejaVuSans-73"/>
     <use x="1620.068359" xlink:href="#DejaVuSans-2f"/>
     <use x="1653.759766" xlink:href="#DejaVuSans-66"/>
     <use x="1688.964844" xlink:href="#DejaVuSans-75"/>
     <use x="1752.34375" xlink:href="#DejaVuSans-7a"/>
     <use x="1804.833984" xlink:href="#DejaVuSans-7a"/>
     <use x="1857.324219" xlink:href="#DejaVuSans-65"/>
     <use x="1918.847656" xlink:href="#DejaVuSans-72"/>
     <use x="1959.960938" xlink:href="#DejaVuSans-29"/>
    </g>
   </g>
  </g>
 </g>
 <defs>
  <clipPath id="pc71ea16a3a">
   <rect height="266.112" width="357.12" x="59.690625" y="22.318125"/>
  </clipPath>
 </defs>
</svg>
