<?xml version="1.0" encoding="utf-8" standalone="no"?>
<!DOCTYPE svg PUBLIC "-//W3C//DTD SVG 1.1//EN"
  "http://www.w3.org/Graphics/SVG/1.1/DTD/svg11.dtd">
<svg height="325.986375pt" version="1.1" viewBox="0 0 501.287188 325.986375" width="501.287188pt" xmlns="http://www.w3.org/2000/svg" xmlns:xlink="http://www.w3.org/1999/xlink">
 <metadata>
  <rdf:RDF xmlns:cc="http://creativecommons.org/ns#" xmlns:dc="http://purl.org/dc/elements/1.1/" xmlns:rdf="http://www.w3.org/1999/02/22-rdf-syntax-ns#">
   <cc:Work>
    <dc:type rdf:resource="http://purl.org/dc/dcmitype/StillImage"/>
    <dc:date>2022-06-02T16:03:15.706292</dc:date>
    <dc:format>image/svg+xml</dc:format>
    <dc:creator>
     <cc:Agent>
      <dc:title>Matplotlib v3.4.3, https://matplotlib.org/</dc:title>
     </cc:Agent>
    </dc:creator>
   </cc:Work>
  </rdf:RDF>
 </metadata>
 <defs>
  <style type="text/css">*{stroke-linecap:butt;stroke-linejoin:round;}</style>
 </defs>
 <g id="figure_1">
  <g id="patch_1">
   <path d="M 0 325.986375 
L 501.287188 325.986375 
L 501.287188 0 
L 0 0 
z
" style="fill:#ffffff;"/>
  </g>
  <g id="axes_1">
   <g id="patch_2">
    <path d="M 53.328125 288.430125 
L 410.448125 288.430125 
L 410.448125 22.318125 
L 53.328125 22.318125 
z
" style="fill:#ffffff;"/>
   </g>
   <g id="PolyCollection_1">
    <defs>
     <path d="M 69.560852 -81.801742 
L 69.560852 -69.573101 
L 119.327306 -89.59257 
L 148.438816 -99.947468 
L 169.09376 -103.694955 
L 185.11498 -109.020331 
L 198.205269 -113.951235 
L 209.272952 -118.389048 
L 218.860214 -123.517188 
L 227.316779 -127.856384 
L 234.881434 -131.899725 
L 241.724496 -135.74583 
L 247.971723 -140.972588 
L 253.718615 -143.438039 
L 259.039406 -146.002109 
L 263.992943 -148.073089 
L 268.626668 -152.11643 
L 272.979383 -153.299847 
L 277.083233 -154.286028 
L 280.965141 -156.258389 
L 284.647888 -157.24457 
L 288.150915 -159.315549 
L 291.49095 -160.000945 
L 294.68249 -161.189293 
L 297.738177 -163.161654 
L 300.669107 -163.260273 
L 303.485069 -163.260273 
L 306.194742 -163.457509 
L 308.805859 -163.753363 
L 311.32534 -163.753363 
L 313.759397 -163.753363 
L 316.113635 -164.93678 
L 318.393122 -165.134016 
L 320.60246 -165.232634 
L 322.745837 -165.42987 
L 324.827079 -215.330616 
L 326.849687 -218.486395 
L 328.816873 -219.078103 
L 330.731595 -219.176721 
L 332.596578 -223.515916 
L 334.414342 -168.48703 
L 336.187217 -223.022826 
L 337.917369 -279.728219 
L 339.606807 -281.306108 
L 341.257404 -281.306108 
L 342.870906 -281.799199 
L 344.448944 -281.799199 
L 345.993042 -282.095053 
L 347.504631 -282.191206 
L 348.985051 -282.292289 
L 350.435561 -282.095053 
L 351.857347 -282.292289 
L 353.251523 -282.292289 
L 354.619142 -282.292289 
L 355.961196 -283.475706 
L 357.278624 -283.574324 
L 358.572313 -283.574324 
L 359.843104 -283.377088 
L 361.091794 -283.672942 
L 362.319136 -283.672942 
L 363.525851 -283.672942 
L 364.712619 -283.77156 
L 365.880089 -283.77156 
L 367.028878 -283.968796 
L 368.159576 -283.870178 
L 369.272743 -283.870178 
L 370.368914 -283.764164 
L 371.4486 -283.968796 
L 372.512291 -283.968796 
L 373.560453 -283.968796 
L 374.593533 -284.067414 
L 375.611959 -283.77156 
L 376.616141 -284.363269 
L 377.606471 -284.363269 
L 378.583327 -284.461887 
L 379.547071 -284.954977 
L 380.498049 -285.152213 
L 381.436596 -285.645304 
L 382.363032 -286.039776 
L 383.277666 -286.828721 
L 384.180795 -286.828721 
L 385.072705 -286.924873 
L 385.953671 -286.927339 
L 386.823958 -286.828721 
L 387.683823 -286.927339 
L 388.533511 -286.828721 
L 389.373261 -286.927339 
L 390.203303 -286.927339 
L 391.023858 -287.025957 
L 391.835142 -287.025957 
L 392.63736 -287.124575 
L 393.430714 -287.519047 
L 394.215398 -287.519047 
L 394.215398 -291.266534 
L 394.215398 -291.266534 
L 393.430714 -291.57225 
L 392.63736 -291.167916 
L 391.835142 -291.562388 
L 391.023858 -291.562388 
L 390.203303 -291.076694 
L 389.373261 -290.97068 
L 388.533511 -290.576207 
L 387.683823 -290.378971 
L 386.823958 -290.576207 
L 385.953671 -290.378971 
L 385.072705 -290.28775 
L 384.180795 -290.378971 
L 383.277666 -290.181735 
L 382.363032 -289.984499 
L 381.436596 -289.984499 
L 380.498049 -288.603846 
L 379.547071 -288.012137 
L 378.583327 -288.012137 
L 377.606471 -288.603846 
L 376.616141 -288.603846 
L 375.611959 -288.603846 
L 374.593533 -287.913519 
L 373.560453 -287.913519 
L 372.512291 -287.913519 
L 371.4486 -288.012137 
L 370.368914 -288.012137 
L 369.272743 -288.012137 
L 368.159576 -288.801082 
L 367.028878 -288.02693 
L 365.880089 -288.024465 
L 364.712619 -288.012137 
L 363.525851 -288.416472 
L 362.319136 -287.814901 
L 361.091794 -287.814901 
L 359.843104 -287.814901 
L 358.572313 -287.321811 
L 357.278624 -287.025957 
L 355.961196 -286.927339 
L 354.619142 -286.237012 
L 353.251523 -286.237012 
L 351.857347 -285.743922 
L 350.435561 -285.743922 
L 348.985051 -285.645304 
L 347.504631 -285.546686 
L 345.993042 -285.84254 
L 344.448944 -285.250831 
L 342.870906 -285.053595 
L 341.257404 -284.264651 
L 339.606807 -283.870178 
L 337.917369 -283.672942 
L 336.187217 -282.883998 
L 334.414342 -282.883998 
L 332.596578 -282.883998 
L 330.731595 -282.78538 
L 328.816873 -282.686761 
L 326.849687 -282.686761 
L 324.827079 -282.686761 
L 322.745837 -282.292289 
L 320.60246 -282.193671 
L 318.393122 -281.897817 
L 316.113635 -281.503345 
L 313.759397 -280.418546 
L 311.32534 -280.319928 
L 308.805859 -279.728219 
L 306.194742 -278.347566 
L 303.485069 -276.671059 
L 300.669107 -275.882114 
L 297.738177 -275.882114 
L 294.68249 -275.290406 
L 291.49095 -273.416662 
L 288.150915 -271.148447 
L 284.647888 -269.570557 
L 280.965141 -267.598196 
L 277.083233 -267.302342 
L 272.979383 -264.541036 
L 268.626668 -260.399076 
L 263.992943 -254.481992 
L 259.039406 -154.976354 
L 253.718615 -149.650978 
L 247.971723 -146.002109 
L 241.724496 -144.226984 
L 234.881434 -140.479497 
L 227.316779 -137.027865 
L 218.860214 -129.532891 
L 209.272952 -122.432389 
L 198.205269 -117.501486 
L 185.11498 -114.838798 
L 169.09376 -112.471964 
L 148.438816 -105.864553 
L 119.327306 -95.706891 
L 69.560852 -81.801742 
z
" id="m2c5da21f70" style="stroke:#98df8a;stroke-opacity:0.2;"/>
    </defs>
    <g clip-path="url(#p765d051ce5)">
     <use style="fill:#98df8a;fill-opacity:0.2;stroke:#98df8a;stroke-opacity:0.2;" x="0" xlink:href="#m2c5da21f70" y="325.986375"/>
    </g>
   </g>
   <g id="PolyCollection_2">
    <defs>
     <path d="M 69.560852 -70.559282 
L 69.560852 -49.65225 
L 119.327306 -58.626495 
L 148.438816 -66.713177 
L 169.09376 -78.547346 
L 185.11498 -85.647847 
L 198.205269 -95.509655 
L 209.272952 -101.821212 
L 218.860214 -104.180649 
L 227.316779 -107.738296 
L 234.881434 -111.673157 
L 241.724496 -113.359527 
L 247.971723 -115.923596 
L 253.718615 -117.994576 
L 259.039406 -118.882139 
L 263.992943 -121.737132 
L 268.626668 -122.420062 
L 272.979383 -124.897841 
L 277.083233 -126.968821 
L 280.965141 -128.54671 
L 284.647888 -129.532891 
L 288.150915 -129.828745 
L 291.49095 -129.828745 
L 294.68249 -129.828745 
L 297.738177 -130.223217 
L 300.669107 -130.223217 
L 303.485069 -130.223217 
L 306.194742 -130.420453 
L 308.805859 -130.519072 
L 311.32534 -130.519072 
L 313.759397 -130.519072 
L 316.113635 -130.913544 
L 318.393122 -130.913544 
L 320.60246 -131.998343 
L 322.745837 -132.787287 
L 324.827079 -133.083142 
L 326.849687 -133.477614 
L 328.816873 -133.872086 
L 330.731595 -133.872086 
L 332.596578 -134.069322 
L 334.414342 -134.16794 
L 336.187217 -134.266558 
L 337.917369 -134.365177 
L 339.606807 -134.365177 
L 341.257404 -134.858267 
L 342.870906 -135.151656 
L 344.448944 -135.055503 
L 345.993042 -135.252739 
L 347.504631 -135.548593 
L 348.985051 -135.548593 
L 350.435561 -135.943066 
L 351.857347 -136.337538 
L 353.251523 -136.041684 
L 354.619142 -136.041684 
L 355.961196 -136.041684 
L 357.278624 -136.041684 
L 358.572313 -136.23892 
L 359.843104 -136.337538 
L 361.091794 -136.436156 
L 362.319136 -137.520955 
L 363.525851 -137.422337 
L 364.712619 -137.915427 
L 365.880089 -138.3099 
L 367.028878 -138.3099 
L 368.159576 -138.704372 
L 369.272743 -138.80299 
L 370.368914 -139.197462 
L 371.4486 -138.901608 
L 372.512291 -139.493316 
L 373.560453 -139.493316 
L 374.593533 -139.690553 
L 375.611959 -139.690553 
L 376.616141 -139.690553 
L 377.606471 -139.690553 
L 378.583327 -139.690553 
L 379.547071 -139.690553 
L 380.498049 -139.690553 
L 381.436596 -139.690553 
L 382.363032 -139.690553 
L 383.277666 -139.690553 
L 384.180795 -139.887789 
L 385.072705 -139.887789 
L 385.953671 -139.986407 
L 386.823958 -140.282261 
L 387.683823 -140.085025 
L 388.533511 -140.085025 
L 389.373261 -140.085025 
L 390.203303 -140.085025 
L 391.023858 -139.986407 
L 391.835142 -140.085025 
L 392.63736 -140.085025 
L 393.430714 -140.085025 
L 394.215398 -140.085025 
L 394.215398 -146.593818 
L 394.215398 -146.593818 
L 393.430714 -146.4952 
L 392.63736 -146.4952 
L 391.835142 -146.497665 
L 391.023858 -146.4952 
L 390.203303 -146.4952 
L 389.373261 -146.100727 
L 388.533511 -145.706255 
L 387.683823 -145.804873 
L 386.823958 -145.706255 
L 385.953671 -144.720074 
L 385.072705 -144.621456 
L 384.180795 -144.522838 
L 383.277666 -144.621456 
L 382.363032 -144.621456 
L 381.436596 -144.029748 
L 380.498049 -143.93113 
L 379.547071 -143.93113 
L 378.583327 -144.029748 
L 377.606471 -143.635276 
L 376.616141 -143.635276 
L 375.611959 -143.733894 
L 374.593533 -143.635276 
L 373.560453 -142.944949 
L 372.512291 -142.944949 
L 371.4486 -142.944949 
L 370.368914 -142.944949 
L 369.272743 -142.156004 
L 368.159576 -142.15847 
L 367.028878 -142.062317 
L 365.880089 -142.156004 
L 364.712619 -142.057386 
L 363.525851 -142.057386 
L 362.319136 -141.958768 
L 361.091794 -141.958768 
L 359.843104 -141.662914 
L 358.572313 -141.662914 
L 357.278624 -141.662914 
L 355.961196 -141.465678 
L 354.619142 -141.36706 
L 353.251523 -141.36706 
L 351.857347 -141.36706 
L 350.435561 -141.268442 
L 348.985051 -140.972588 
L 347.504631 -140.775351 
L 345.993042 -140.775351 
L 344.448944 -140.775351 
L 342.870906 -140.578115 
L 341.257404 -140.578115 
L 339.606807 -140.578115 
L 337.917369 -140.479497 
L 336.187217 -140.085025 
L 334.414342 -140.085025 
L 332.596578 -139.986407 
L 330.731595 -139.887789 
L 328.816873 -139.789171 
L 326.849687 -139.493316 
L 324.827079 -139.493316 
L 322.745837 -139.394698 
L 320.60246 -139.29608 
L 318.393122 -139.394698 
L 316.113635 -139.394698 
L 313.759397 -139.197462 
L 311.32534 -139.002691 
L 308.805859 -139.000226 
L 306.194742 -139.000226 
L 303.485069 -139.000226 
L 300.669107 -138.80299 
L 297.738177 -137.323719 
L 294.68249 -137.225101 
L 291.49095 -136.929246 
L 288.150915 -135.74583 
L 284.647888 -133.576232 
L 280.965141 -131.899725 
L 277.083233 -131.11078 
L 272.979383 -130.420453 
L 268.626668 -130.321835 
L 263.992943 -129.335655 
L 259.039406 -127.955002 
L 253.718615 -127.067439 
L 247.971723 -123.615806 
L 241.724496 -121.840681 
L 234.881434 -119.671083 
L 227.316779 -119.177993 
L 218.860214 -117.010861 
L 209.272952 -109.224964 
L 198.205269 -104.97699 
L 185.11498 -101.229503 
L 169.09376 -93.73453 
L 148.438816 -87.422973 
L 119.327306 -80.519708 
L 69.560852 -70.559282 
z
" id="mc7cf70c721" style="stroke:#1f77b4;stroke-opacity:0.2;"/>
    </defs>
    <g clip-path="url(#p765d051ce5)">
     <use style="fill:#1f77b4;fill-opacity:0.2;stroke:#1f77b4;stroke-opacity:0.2;" x="0" xlink:href="#mc7cf70c721" y="325.986375"/>
    </g>
   </g>
   <g id="matplotlib.axis_1">
    <g id="xtick_1">
     <g id="line2d_1">
      <defs>
       <path d="M 0 0 
L 0 3.5 
" id="m1f52d2e000" style="stroke:#000000;stroke-width:0.8;"/>
      </defs>
      <g>
       <use style="stroke:#000000;stroke-width:0.8;" x="69.560852" xlink:href="#m1f52d2e000" y="288.430125"/>
      </g>
     </g>
     <g id="text_1">
      <!-- 14m -->
      <g transform="translate(58.32804 303.028562)scale(0.1 -0.1)">
       <defs>
        <path d="M 794 531 
L 1825 531 
L 1825 4091 
L 703 3866 
L 703 4441 
L 1819 4666 
L 2450 4666 
L 2450 531 
L 3481 531 
L 3481 0 
L 794 0 
L 794 531 
z
" id="DejaVuSans-31" transform="scale(0.015625)"/>
        <path d="M 2419 4116 
L 825 1625 
L 2419 1625 
L 2419 4116 
z
M 2253 4666 
L 3047 4666 
L 3047 1625 
L 3713 1625 
L 3713 1100 
L 3047 1100 
L 3047 0 
L 2419 0 
L 2419 1100 
L 313 1100 
L 313 1709 
L 2253 4666 
z
" id="DejaVuSans-34" transform="scale(0.015625)"/>
        <path d="M 3328 2828 
Q 3544 3216 3844 3400 
Q 4144 3584 4550 3584 
Q 5097 3584 5394 3201 
Q 5691 2819 5691 2113 
L 5691 0 
L 5113 0 
L 5113 2094 
Q 5113 2597 4934 2840 
Q 4756 3084 4391 3084 
Q 3944 3084 3684 2787 
Q 3425 2491 3425 1978 
L 3425 0 
L 2847 0 
L 2847 2094 
Q 2847 2600 2669 2842 
Q 2491 3084 2119 3084 
Q 1678 3084 1418 2786 
Q 1159 2488 1159 1978 
L 1159 0 
L 581 0 
L 581 3500 
L 1159 3500 
L 1159 2956 
Q 1356 3278 1631 3431 
Q 1906 3584 2284 3584 
Q 2666 3584 2933 3390 
Q 3200 3197 3328 2828 
z
" id="DejaVuSans-6d" transform="scale(0.015625)"/>
       </defs>
       <use xlink:href="#DejaVuSans-31"/>
       <use x="63.623047" xlink:href="#DejaVuSans-34"/>
       <use x="127.246094" xlink:href="#DejaVuSans-6d"/>
      </g>
     </g>
    </g>
    <g id="xtick_2">
     <g id="line2d_2">
      <g>
       <use style="stroke:#000000;stroke-width:0.8;" x="134.491935" xlink:href="#m1f52d2e000" y="288.430125"/>
      </g>
     </g>
     <g id="text_2">
      <!-- 37m -->
      <g transform="translate(123.259122 303.028562)scale(0.1 -0.1)">
       <defs>
        <path d="M 2597 2516 
Q 3050 2419 3304 2112 
Q 3559 1806 3559 1356 
Q 3559 666 3084 287 
Q 2609 -91 1734 -91 
Q 1441 -91 1130 -33 
Q 819 25 488 141 
L 488 750 
Q 750 597 1062 519 
Q 1375 441 1716 441 
Q 2309 441 2620 675 
Q 2931 909 2931 1356 
Q 2931 1769 2642 2001 
Q 2353 2234 1838 2234 
L 1294 2234 
L 1294 2753 
L 1863 2753 
Q 2328 2753 2575 2939 
Q 2822 3125 2822 3475 
Q 2822 3834 2567 4026 
Q 2313 4219 1838 4219 
Q 1578 4219 1281 4162 
Q 984 4106 628 3988 
L 628 4550 
Q 988 4650 1302 4700 
Q 1616 4750 1894 4750 
Q 2613 4750 3031 4423 
Q 3450 4097 3450 3541 
Q 3450 3153 3228 2886 
Q 3006 2619 2597 2516 
z
" id="DejaVuSans-33" transform="scale(0.015625)"/>
        <path d="M 525 4666 
L 3525 4666 
L 3525 4397 
L 1831 0 
L 1172 0 
L 2766 4134 
L 525 4134 
L 525 4666 
z
" id="DejaVuSans-37" transform="scale(0.015625)"/>
       </defs>
       <use xlink:href="#DejaVuSans-33"/>
       <use x="63.623047" xlink:href="#DejaVuSans-37"/>
       <use x="127.246094" xlink:href="#DejaVuSans-6d"/>
      </g>
     </g>
    </g>
    <g id="xtick_3">
     <g id="line2d_3">
      <g>
       <use style="stroke:#000000;stroke-width:0.8;" x="199.423017" xlink:href="#m1f52d2e000" y="288.430125"/>
      </g>
     </g>
     <g id="text_3">
      <!-- 1h:31m -->
      <g transform="translate(180.15583 303.028562)scale(0.1 -0.1)">
       <defs>
        <path d="M 3513 2113 
L 3513 0 
L 2938 0 
L 2938 2094 
Q 2938 2591 2744 2837 
Q 2550 3084 2163 3084 
Q 1697 3084 1428 2787 
Q 1159 2491 1159 1978 
L 1159 0 
L 581 0 
L 581 4863 
L 1159 4863 
L 1159 2956 
Q 1366 3272 1645 3428 
Q 1925 3584 2291 3584 
Q 2894 3584 3203 3211 
Q 3513 2838 3513 2113 
z
" id="DejaVuSans-68" transform="scale(0.015625)"/>
        <path d="M 750 794 
L 1409 794 
L 1409 0 
L 750 0 
L 750 794 
z
M 750 3309 
L 1409 3309 
L 1409 2516 
L 750 2516 
L 750 3309 
z
" id="DejaVuSans-3a" transform="scale(0.015625)"/>
       </defs>
       <use xlink:href="#DejaVuSans-31"/>
       <use x="63.623047" xlink:href="#DejaVuSans-68"/>
       <use x="127.001953" xlink:href="#DejaVuSans-3a"/>
       <use x="160.693359" xlink:href="#DejaVuSans-33"/>
       <use x="224.316406" xlink:href="#DejaVuSans-31"/>
       <use x="287.939453" xlink:href="#DejaVuSans-6d"/>
      </g>
     </g>
    </g>
    <g id="xtick_4">
     <g id="line2d_4">
      <g>
       <use style="stroke:#000000;stroke-width:0.8;" x="264.3541" xlink:href="#m1f52d2e000" y="288.430125"/>
      </g>
     </g>
     <g id="text_4">
      <!-- 3h:46m -->
      <g transform="translate(245.086912 303.028562)scale(0.1 -0.1)">
       <defs>
        <path d="M 2113 2584 
Q 1688 2584 1439 2293 
Q 1191 2003 1191 1497 
Q 1191 994 1439 701 
Q 1688 409 2113 409 
Q 2538 409 2786 701 
Q 3034 994 3034 1497 
Q 3034 2003 2786 2293 
Q 2538 2584 2113 2584 
z
M 3366 4563 
L 3366 3988 
Q 3128 4100 2886 4159 
Q 2644 4219 2406 4219 
Q 1781 4219 1451 3797 
Q 1122 3375 1075 2522 
Q 1259 2794 1537 2939 
Q 1816 3084 2150 3084 
Q 2853 3084 3261 2657 
Q 3669 2231 3669 1497 
Q 3669 778 3244 343 
Q 2819 -91 2113 -91 
Q 1303 -91 875 529 
Q 447 1150 447 2328 
Q 447 3434 972 4092 
Q 1497 4750 2381 4750 
Q 2619 4750 2861 4703 
Q 3103 4656 3366 4563 
z
" id="DejaVuSans-36" transform="scale(0.015625)"/>
       </defs>
       <use xlink:href="#DejaVuSans-33"/>
       <use x="63.623047" xlink:href="#DejaVuSans-68"/>
       <use x="127.001953" xlink:href="#DejaVuSans-3a"/>
       <use x="160.693359" xlink:href="#DejaVuSans-34"/>
       <use x="224.316406" xlink:href="#DejaVuSans-36"/>
       <use x="287.939453" xlink:href="#DejaVuSans-6d"/>
      </g>
     </g>
    </g>
    <g id="xtick_5">
     <g id="line2d_5">
      <g>
       <use style="stroke:#000000;stroke-width:0.8;" x="329.285182" xlink:href="#m1f52d2e000" y="288.430125"/>
      </g>
     </g>
     <g id="text_5">
      <!-- 9h:18m -->
      <g transform="translate(310.017995 303.028562)scale(0.1 -0.1)">
       <defs>
        <path d="M 703 97 
L 703 672 
Q 941 559 1184 500 
Q 1428 441 1663 441 
Q 2288 441 2617 861 
Q 2947 1281 2994 2138 
Q 2813 1869 2534 1725 
Q 2256 1581 1919 1581 
Q 1219 1581 811 2004 
Q 403 2428 403 3163 
Q 403 3881 828 4315 
Q 1253 4750 1959 4750 
Q 2769 4750 3195 4129 
Q 3622 3509 3622 2328 
Q 3622 1225 3098 567 
Q 2575 -91 1691 -91 
Q 1453 -91 1209 -44 
Q 966 3 703 97 
z
M 1959 2075 
Q 2384 2075 2632 2365 
Q 2881 2656 2881 3163 
Q 2881 3666 2632 3958 
Q 2384 4250 1959 4250 
Q 1534 4250 1286 3958 
Q 1038 3666 1038 3163 
Q 1038 2656 1286 2365 
Q 1534 2075 1959 2075 
z
" id="DejaVuSans-39" transform="scale(0.015625)"/>
        <path d="M 2034 2216 
Q 1584 2216 1326 1975 
Q 1069 1734 1069 1313 
Q 1069 891 1326 650 
Q 1584 409 2034 409 
Q 2484 409 2743 651 
Q 3003 894 3003 1313 
Q 3003 1734 2745 1975 
Q 2488 2216 2034 2216 
z
M 1403 2484 
Q 997 2584 770 2862 
Q 544 3141 544 3541 
Q 544 4100 942 4425 
Q 1341 4750 2034 4750 
Q 2731 4750 3128 4425 
Q 3525 4100 3525 3541 
Q 3525 3141 3298 2862 
Q 3072 2584 2669 2484 
Q 3125 2378 3379 2068 
Q 3634 1759 3634 1313 
Q 3634 634 3220 271 
Q 2806 -91 2034 -91 
Q 1263 -91 848 271 
Q 434 634 434 1313 
Q 434 1759 690 2068 
Q 947 2378 1403 2484 
z
M 1172 3481 
Q 1172 3119 1398 2916 
Q 1625 2713 2034 2713 
Q 2441 2713 2670 2916 
Q 2900 3119 2900 3481 
Q 2900 3844 2670 4047 
Q 2441 4250 2034 4250 
Q 1625 4250 1398 4047 
Q 1172 3844 1172 3481 
z
" id="DejaVuSans-38" transform="scale(0.015625)"/>
       </defs>
       <use xlink:href="#DejaVuSans-39"/>
       <use x="63.623047" xlink:href="#DejaVuSans-68"/>
       <use x="127.001953" xlink:href="#DejaVuSans-3a"/>
       <use x="160.693359" xlink:href="#DejaVuSans-31"/>
       <use x="224.316406" xlink:href="#DejaVuSans-38"/>
       <use x="287.939453" xlink:href="#DejaVuSans-6d"/>
      </g>
     </g>
    </g>
    <g id="xtick_6">
     <g id="line2d_6">
      <g>
       <use style="stroke:#000000;stroke-width:0.8;" x="394.216265" xlink:href="#m1f52d2e000" y="288.430125"/>
      </g>
     </g>
     <g id="text_6">
      <!-- 23h -->
      <g transform="translate(384.685015 303.028562)scale(0.1 -0.1)">
       <defs>
        <path d="M 1228 531 
L 3431 531 
L 3431 0 
L 469 0 
L 469 531 
Q 828 903 1448 1529 
Q 2069 2156 2228 2338 
Q 2531 2678 2651 2914 
Q 2772 3150 2772 3378 
Q 2772 3750 2511 3984 
Q 2250 4219 1831 4219 
Q 1534 4219 1204 4116 
Q 875 4013 500 3803 
L 500 4441 
Q 881 4594 1212 4672 
Q 1544 4750 1819 4750 
Q 2544 4750 2975 4387 
Q 3406 4025 3406 3419 
Q 3406 3131 3298 2873 
Q 3191 2616 2906 2266 
Q 2828 2175 2409 1742 
Q 1991 1309 1228 531 
z
" id="DejaVuSans-32" transform="scale(0.015625)"/>
       </defs>
       <use xlink:href="#DejaVuSans-32"/>
       <use x="63.623047" xlink:href="#DejaVuSans-33"/>
       <use x="127.246094" xlink:href="#DejaVuSans-68"/>
      </g>
     </g>
    </g>
    <g id="xtick_7">
     <g id="line2d_7">
      <defs>
       <path d="M 0 0 
L 0 2 
" id="m5fe6401ceb" style="stroke:#000000;stroke-width:0.6;"/>
      </defs>
      <g>
       <use style="stroke:#000000;stroke-width:0.6;" x="61.104288" xlink:href="#m5fe6401ceb" y="288.430125"/>
      </g>
     </g>
    </g>
    <g id="xtick_8">
     <g id="line2d_8">
      <g>
       <use style="stroke:#000000;stroke-width:0.6;" x="126.891961" xlink:href="#m5fe6401ceb" y="288.430125"/>
      </g>
     </g>
    </g>
    <g id="xtick_9">
     <g id="line2d_9">
      <g>
       <use style="stroke:#000000;stroke-width:0.6;" x="156.00347" xlink:href="#m5fe6401ceb" y="288.430125"/>
      </g>
     </g>
    </g>
    <g id="xtick_10">
     <g id="line2d_10">
      <g>
       <use style="stroke:#000000;stroke-width:0.6;" x="176.658415" xlink:href="#m5fe6401ceb" y="288.430125"/>
      </g>
     </g>
    </g>
    <g id="xtick_11">
     <g id="line2d_11">
      <g>
       <use style="stroke:#000000;stroke-width:0.6;" x="192.679635" xlink:href="#m5fe6401ceb" y="288.430125"/>
      </g>
     </g>
    </g>
    <g id="xtick_12">
     <g id="line2d_12">
      <g>
       <use style="stroke:#000000;stroke-width:0.6;" x="205.769924" xlink:href="#m5fe6401ceb" y="288.430125"/>
      </g>
     </g>
    </g>
    <g id="xtick_13">
     <g id="line2d_13">
      <g>
       <use style="stroke:#000000;stroke-width:0.6;" x="216.837607" xlink:href="#m5fe6401ceb" y="288.430125"/>
      </g>
     </g>
    </g>
    <g id="xtick_14">
     <g id="line2d_14">
      <g>
       <use style="stroke:#000000;stroke-width:0.6;" x="226.424869" xlink:href="#m5fe6401ceb" y="288.430125"/>
      </g>
     </g>
    </g>
    <g id="xtick_15">
     <g id="line2d_15">
      <g>
       <use style="stroke:#000000;stroke-width:0.6;" x="234.881434" xlink:href="#m5fe6401ceb" y="288.430125"/>
      </g>
     </g>
    </g>
    <g id="xtick_16">
     <g id="line2d_16">
      <g>
       <use style="stroke:#000000;stroke-width:0.6;" x="292.212543" xlink:href="#m5fe6401ceb" y="288.430125"/>
      </g>
     </g>
    </g>
    <g id="xtick_17">
     <g id="line2d_17">
      <g>
       <use style="stroke:#000000;stroke-width:0.6;" x="321.324052" xlink:href="#m5fe6401ceb" y="288.430125"/>
      </g>
     </g>
    </g>
    <g id="xtick_18">
     <g id="line2d_18">
      <g>
       <use style="stroke:#000000;stroke-width:0.6;" x="341.978996" xlink:href="#m5fe6401ceb" y="288.430125"/>
      </g>
     </g>
    </g>
    <g id="xtick_19">
     <g id="line2d_19">
      <g>
       <use style="stroke:#000000;stroke-width:0.6;" x="358.000216" xlink:href="#m5fe6401ceb" y="288.430125"/>
      </g>
     </g>
    </g>
    <g id="xtick_20">
     <g id="line2d_20">
      <g>
       <use style="stroke:#000000;stroke-width:0.6;" x="371.090506" xlink:href="#m5fe6401ceb" y="288.430125"/>
      </g>
     </g>
    </g>
    <g id="xtick_21">
     <g id="line2d_21">
      <g>
       <use style="stroke:#000000;stroke-width:0.6;" x="382.158188" xlink:href="#m5fe6401ceb" y="288.430125"/>
      </g>
     </g>
    </g>
    <g id="xtick_22">
     <g id="line2d_22">
      <g>
       <use style="stroke:#000000;stroke-width:0.6;" x="391.74545" xlink:href="#m5fe6401ceb" y="288.430125"/>
      </g>
     </g>
    </g>
    <g id="xtick_23">
     <g id="line2d_23">
      <g>
       <use style="stroke:#000000;stroke-width:0.6;" x="400.202015" xlink:href="#m5fe6401ceb" y="288.430125"/>
      </g>
     </g>
    </g>
    <g id="text_7">
     <!-- Time (hour:minute) -->
     <g transform="translate(183.481094 316.706687)scale(0.1 -0.1)">
      <defs>
       <path d="M -19 4666 
L 3928 4666 
L 3928 4134 
L 2272 4134 
L 2272 0 
L 1638 0 
L 1638 4134 
L -19 4134 
L -19 4666 
z
" id="DejaVuSans-54" transform="scale(0.015625)"/>
       <path d="M 603 3500 
L 1178 3500 
L 1178 0 
L 603 0 
L 603 3500 
z
M 603 4863 
L 1178 4863 
L 1178 4134 
L 603 4134 
L 603 4863 
z
" id="DejaVuSans-69" transform="scale(0.015625)"/>
       <path d="M 3597 1894 
L 3597 1613 
L 953 1613 
Q 991 1019 1311 708 
Q 1631 397 2203 397 
Q 2534 397 2845 478 
Q 3156 559 3463 722 
L 3463 178 
Q 3153 47 2828 -22 
Q 2503 -91 2169 -91 
Q 1331 -91 842 396 
Q 353 884 353 1716 
Q 353 2575 817 3079 
Q 1281 3584 2069 3584 
Q 2775 3584 3186 3129 
Q 3597 2675 3597 1894 
z
M 3022 2063 
Q 3016 2534 2758 2815 
Q 2500 3097 2075 3097 
Q 1594 3097 1305 2825 
Q 1016 2553 972 2059 
L 3022 2063 
z
" id="DejaVuSans-65" transform="scale(0.015625)"/>
       <path id="DejaVuSans-20" transform="scale(0.015625)"/>
       <path d="M 1984 4856 
Q 1566 4138 1362 3434 
Q 1159 2731 1159 2009 
Q 1159 1288 1364 580 
Q 1569 -128 1984 -844 
L 1484 -844 
Q 1016 -109 783 600 
Q 550 1309 550 2009 
Q 550 2706 781 3412 
Q 1013 4119 1484 4856 
L 1984 4856 
z
" id="DejaVuSans-28" transform="scale(0.015625)"/>
       <path d="M 1959 3097 
Q 1497 3097 1228 2736 
Q 959 2375 959 1747 
Q 959 1119 1226 758 
Q 1494 397 1959 397 
Q 2419 397 2687 759 
Q 2956 1122 2956 1747 
Q 2956 2369 2687 2733 
Q 2419 3097 1959 3097 
z
M 1959 3584 
Q 2709 3584 3137 3096 
Q 3566 2609 3566 1747 
Q 3566 888 3137 398 
Q 2709 -91 1959 -91 
Q 1206 -91 779 398 
Q 353 888 353 1747 
Q 353 2609 779 3096 
Q 1206 3584 1959 3584 
z
" id="DejaVuSans-6f" transform="scale(0.015625)"/>
       <path d="M 544 1381 
L 544 3500 
L 1119 3500 
L 1119 1403 
Q 1119 906 1312 657 
Q 1506 409 1894 409 
Q 2359 409 2629 706 
Q 2900 1003 2900 1516 
L 2900 3500 
L 3475 3500 
L 3475 0 
L 2900 0 
L 2900 538 
Q 2691 219 2414 64 
Q 2138 -91 1772 -91 
Q 1169 -91 856 284 
Q 544 659 544 1381 
z
M 1991 3584 
L 1991 3584 
z
" id="DejaVuSans-75" transform="scale(0.015625)"/>
       <path d="M 2631 2963 
Q 2534 3019 2420 3045 
Q 2306 3072 2169 3072 
Q 1681 3072 1420 2755 
Q 1159 2438 1159 1844 
L 1159 0 
L 581 0 
L 581 3500 
L 1159 3500 
L 1159 2956 
Q 1341 3275 1631 3429 
Q 1922 3584 2338 3584 
Q 2397 3584 2469 3576 
Q 2541 3569 2628 3553 
L 2631 2963 
z
" id="DejaVuSans-72" transform="scale(0.015625)"/>
       <path d="M 3513 2113 
L 3513 0 
L 2938 0 
L 2938 2094 
Q 2938 2591 2744 2837 
Q 2550 3084 2163 3084 
Q 1697 3084 1428 2787 
Q 1159 2491 1159 1978 
L 1159 0 
L 581 0 
L 581 3500 
L 1159 3500 
L 1159 2956 
Q 1366 3272 1645 3428 
Q 1925 3584 2291 3584 
Q 2894 3584 3203 3211 
Q 3513 2838 3513 2113 
z
" id="DejaVuSans-6e" transform="scale(0.015625)"/>
       <path d="M 1172 4494 
L 1172 3500 
L 2356 3500 
L 2356 3053 
L 1172 3053 
L 1172 1153 
Q 1172 725 1289 603 
Q 1406 481 1766 481 
L 2356 481 
L 2356 0 
L 1766 0 
Q 1100 0 847 248 
Q 594 497 594 1153 
L 594 3053 
L 172 3053 
L 172 3500 
L 594 3500 
L 594 4494 
L 1172 4494 
z
" id="DejaVuSans-74" transform="scale(0.015625)"/>
       <path d="M 513 4856 
L 1013 4856 
Q 1481 4119 1714 3412 
Q 1947 2706 1947 2009 
Q 1947 1309 1714 600 
Q 1481 -109 1013 -844 
L 513 -844 
Q 928 -128 1133 580 
Q 1338 1288 1338 2009 
Q 1338 2731 1133 3434 
Q 928 4138 513 4856 
z
" id="DejaVuSans-29" transform="scale(0.015625)"/>
      </defs>
      <use xlink:href="#DejaVuSans-54"/>
      <use x="57.958984" xlink:href="#DejaVuSans-69"/>
      <use x="85.742188" xlink:href="#DejaVuSans-6d"/>
      <use x="183.154297" xlink:href="#DejaVuSans-65"/>
      <use x="244.677734" xlink:href="#DejaVuSans-20"/>
      <use x="276.464844" xlink:href="#DejaVuSans-28"/>
      <use x="315.478516" xlink:href="#DejaVuSans-68"/>
      <use x="378.857422" xlink:href="#DejaVuSans-6f"/>
      <use x="440.039062" xlink:href="#DejaVuSans-75"/>
      <use x="503.417969" xlink:href="#DejaVuSans-72"/>
      <use x="542.78125" xlink:href="#DejaVuSans-3a"/>
      <use x="576.472656" xlink:href="#DejaVuSans-6d"/>
      <use x="673.884766" xlink:href="#DejaVuSans-69"/>
      <use x="701.667969" xlink:href="#DejaVuSans-6e"/>
      <use x="765.046875" xlink:href="#DejaVuSans-75"/>
      <use x="828.425781" xlink:href="#DejaVuSans-74"/>
      <use x="867.634766" xlink:href="#DejaVuSans-65"/>
      <use x="929.158203" xlink:href="#DejaVuSans-29"/>
     </g>
    </g>
   </g>
   <g id="matplotlib.axis_2">
    <g id="ytick_1">
     <g id="line2d_24">
      <defs>
       <path d="M 0 0 
L -3.5 0 
" id="m666767fccb" style="stroke:#000000;stroke-width:0.8;"/>
      </defs>
      <g>
       <use style="stroke:#000000;stroke-width:0.8;" x="53.328125" xlink:href="#m666767fccb" y="263.612393"/>
      </g>
     </g>
     <g id="text_8">
      <!-- 8400 -->
      <g transform="translate(20.878125 267.411612)scale(0.1 -0.1)">
       <defs>
        <path d="M 2034 4250 
Q 1547 4250 1301 3770 
Q 1056 3291 1056 2328 
Q 1056 1369 1301 889 
Q 1547 409 2034 409 
Q 2525 409 2770 889 
Q 3016 1369 3016 2328 
Q 3016 3291 2770 3770 
Q 2525 4250 2034 4250 
z
M 2034 4750 
Q 2819 4750 3233 4129 
Q 3647 3509 3647 2328 
Q 3647 1150 3233 529 
Q 2819 -91 2034 -91 
Q 1250 -91 836 529 
Q 422 1150 422 2328 
Q 422 3509 836 4129 
Q 1250 4750 2034 4750 
z
" id="DejaVuSans-30" transform="scale(0.015625)"/>
       </defs>
       <use xlink:href="#DejaVuSans-38"/>
       <use x="63.623047" xlink:href="#DejaVuSans-34"/>
       <use x="127.246094" xlink:href="#DejaVuSans-30"/>
       <use x="190.869141" xlink:href="#DejaVuSans-30"/>
      </g>
     </g>
    </g>
    <g id="ytick_2">
     <g id="line2d_25">
      <g>
       <use style="stroke:#000000;stroke-width:0.8;" x="53.328125" xlink:href="#m666767fccb" y="224.165163"/>
      </g>
     </g>
     <g id="text_9">
      <!-- 8600 -->
      <g transform="translate(20.878125 227.964382)scale(0.1 -0.1)">
       <use xlink:href="#DejaVuSans-38"/>
       <use x="63.623047" xlink:href="#DejaVuSans-36"/>
       <use x="127.246094" xlink:href="#DejaVuSans-30"/>
       <use x="190.869141" xlink:href="#DejaVuSans-30"/>
      </g>
     </g>
    </g>
    <g id="ytick_3">
     <g id="line2d_26">
      <g>
       <use style="stroke:#000000;stroke-width:0.8;" x="53.328125" xlink:href="#m666767fccb" y="184.717933"/>
      </g>
     </g>
     <g id="text_10">
      <!-- 8800 -->
      <g transform="translate(20.878125 188.517152)scale(0.1 -0.1)">
       <use xlink:href="#DejaVuSans-38"/>
       <use x="63.623047" xlink:href="#DejaVuSans-38"/>
       <use x="127.246094" xlink:href="#DejaVuSans-30"/>
       <use x="190.869141" xlink:href="#DejaVuSans-30"/>
      </g>
     </g>
    </g>
    <g id="ytick_4">
     <g id="line2d_27">
      <g>
       <use style="stroke:#000000;stroke-width:0.8;" x="53.328125" xlink:href="#m666767fccb" y="145.270703"/>
      </g>
     </g>
     <g id="text_11">
      <!-- 9000 -->
      <g transform="translate(20.878125 149.069922)scale(0.1 -0.1)">
       <use xlink:href="#DejaVuSans-39"/>
       <use x="63.623047" xlink:href="#DejaVuSans-30"/>
       <use x="127.246094" xlink:href="#DejaVuSans-30"/>
       <use x="190.869141" xlink:href="#DejaVuSans-30"/>
      </g>
     </g>
    </g>
    <g id="ytick_5">
     <g id="line2d_28">
      <g>
       <use style="stroke:#000000;stroke-width:0.8;" x="53.328125" xlink:href="#m666767fccb" y="105.823473"/>
      </g>
     </g>
     <g id="text_12">
      <!-- 9200 -->
      <g transform="translate(20.878125 109.622692)scale(0.1 -0.1)">
       <use xlink:href="#DejaVuSans-39"/>
       <use x="63.623047" xlink:href="#DejaVuSans-32"/>
       <use x="127.246094" xlink:href="#DejaVuSans-30"/>
       <use x="190.869141" xlink:href="#DejaVuSans-30"/>
      </g>
     </g>
    </g>
    <g id="ytick_6">
     <g id="line2d_29">
      <g>
       <use style="stroke:#000000;stroke-width:0.8;" x="53.328125" xlink:href="#m666767fccb" y="66.376243"/>
      </g>
     </g>
     <g id="text_13">
      <!-- 9400 -->
      <g transform="translate(20.878125 70.175462)scale(0.1 -0.1)">
       <use xlink:href="#DejaVuSans-39"/>
       <use x="63.623047" xlink:href="#DejaVuSans-34"/>
       <use x="127.246094" xlink:href="#DejaVuSans-30"/>
       <use x="190.869141" xlink:href="#DejaVuSans-30"/>
      </g>
     </g>
    </g>
    <g id="ytick_7">
     <g id="line2d_30">
      <g>
       <use style="stroke:#000000;stroke-width:0.8;" x="53.328125" xlink:href="#m666767fccb" y="26.929013"/>
      </g>
     </g>
     <g id="text_14">
      <!-- 9600 -->
      <g transform="translate(20.878125 30.728232)scale(0.1 -0.1)">
       <use xlink:href="#DejaVuSans-39"/>
       <use x="63.623047" xlink:href="#DejaVuSans-36"/>
       <use x="127.246094" xlink:href="#DejaVuSans-30"/>
       <use x="190.869141" xlink:href="#DejaVuSans-30"/>
      </g>
     </g>
    </g>
    <g id="text_15">
     <!-- Code region coverage -->
     <g transform="translate(14.798438 210.379594)rotate(-90)scale(0.1 -0.1)">
      <defs>
       <path d="M 4122 4306 
L 4122 3641 
Q 3803 3938 3442 4084 
Q 3081 4231 2675 4231 
Q 1875 4231 1450 3742 
Q 1025 3253 1025 2328 
Q 1025 1406 1450 917 
Q 1875 428 2675 428 
Q 3081 428 3442 575 
Q 3803 722 4122 1019 
L 4122 359 
Q 3791 134 3420 21 
Q 3050 -91 2638 -91 
Q 1578 -91 968 557 
Q 359 1206 359 2328 
Q 359 3453 968 4101 
Q 1578 4750 2638 4750 
Q 3056 4750 3426 4639 
Q 3797 4528 4122 4306 
z
" id="DejaVuSans-43" transform="scale(0.015625)"/>
       <path d="M 2906 2969 
L 2906 4863 
L 3481 4863 
L 3481 0 
L 2906 0 
L 2906 525 
Q 2725 213 2448 61 
Q 2172 -91 1784 -91 
Q 1150 -91 751 415 
Q 353 922 353 1747 
Q 353 2572 751 3078 
Q 1150 3584 1784 3584 
Q 2172 3584 2448 3432 
Q 2725 3281 2906 2969 
z
M 947 1747 
Q 947 1113 1208 752 
Q 1469 391 1925 391 
Q 2381 391 2643 752 
Q 2906 1113 2906 1747 
Q 2906 2381 2643 2742 
Q 2381 3103 1925 3103 
Q 1469 3103 1208 2742 
Q 947 2381 947 1747 
z
" id="DejaVuSans-64" transform="scale(0.015625)"/>
       <path d="M 2906 1791 
Q 2906 2416 2648 2759 
Q 2391 3103 1925 3103 
Q 1463 3103 1205 2759 
Q 947 2416 947 1791 
Q 947 1169 1205 825 
Q 1463 481 1925 481 
Q 2391 481 2648 825 
Q 2906 1169 2906 1791 
z
M 3481 434 
Q 3481 -459 3084 -895 
Q 2688 -1331 1869 -1331 
Q 1566 -1331 1297 -1286 
Q 1028 -1241 775 -1147 
L 775 -588 
Q 1028 -725 1275 -790 
Q 1522 -856 1778 -856 
Q 2344 -856 2625 -561 
Q 2906 -266 2906 331 
L 2906 616 
Q 2728 306 2450 153 
Q 2172 0 1784 0 
Q 1141 0 747 490 
Q 353 981 353 1791 
Q 353 2603 747 3093 
Q 1141 3584 1784 3584 
Q 2172 3584 2450 3431 
Q 2728 3278 2906 2969 
L 2906 3500 
L 3481 3500 
L 3481 434 
z
" id="DejaVuSans-67" transform="scale(0.015625)"/>
       <path d="M 3122 3366 
L 3122 2828 
Q 2878 2963 2633 3030 
Q 2388 3097 2138 3097 
Q 1578 3097 1268 2742 
Q 959 2388 959 1747 
Q 959 1106 1268 751 
Q 1578 397 2138 397 
Q 2388 397 2633 464 
Q 2878 531 3122 666 
L 3122 134 
Q 2881 22 2623 -34 
Q 2366 -91 2075 -91 
Q 1284 -91 818 406 
Q 353 903 353 1747 
Q 353 2603 823 3093 
Q 1294 3584 2113 3584 
Q 2378 3584 2631 3529 
Q 2884 3475 3122 3366 
z
" id="DejaVuSans-63" transform="scale(0.015625)"/>
       <path d="M 191 3500 
L 800 3500 
L 1894 563 
L 2988 3500 
L 3597 3500 
L 2284 0 
L 1503 0 
L 191 3500 
z
" id="DejaVuSans-76" transform="scale(0.015625)"/>
       <path d="M 2194 1759 
Q 1497 1759 1228 1600 
Q 959 1441 959 1056 
Q 959 750 1161 570 
Q 1363 391 1709 391 
Q 2188 391 2477 730 
Q 2766 1069 2766 1631 
L 2766 1759 
L 2194 1759 
z
M 3341 1997 
L 3341 0 
L 2766 0 
L 2766 531 
Q 2569 213 2275 61 
Q 1981 -91 1556 -91 
Q 1019 -91 701 211 
Q 384 513 384 1019 
Q 384 1609 779 1909 
Q 1175 2209 1959 2209 
L 2766 2209 
L 2766 2266 
Q 2766 2663 2505 2880 
Q 2244 3097 1772 3097 
Q 1472 3097 1187 3025 
Q 903 2953 641 2809 
L 641 3341 
Q 956 3463 1253 3523 
Q 1550 3584 1831 3584 
Q 2591 3584 2966 3190 
Q 3341 2797 3341 1997 
z
" id="DejaVuSans-61" transform="scale(0.015625)"/>
      </defs>
      <use xlink:href="#DejaVuSans-43"/>
      <use x="69.824219" xlink:href="#DejaVuSans-6f"/>
      <use x="131.005859" xlink:href="#DejaVuSans-64"/>
      <use x="194.482422" xlink:href="#DejaVuSans-65"/>
      <use x="256.005859" xlink:href="#DejaVuSans-20"/>
      <use x="287.792969" xlink:href="#DejaVuSans-72"/>
      <use x="326.65625" xlink:href="#DejaVuSans-65"/>
      <use x="388.179688" xlink:href="#DejaVuSans-67"/>
      <use x="451.65625" xlink:href="#DejaVuSans-69"/>
      <use x="479.439453" xlink:href="#DejaVuSans-6f"/>
      <use x="540.621094" xlink:href="#DejaVuSans-6e"/>
      <use x="604" xlink:href="#DejaVuSans-20"/>
      <use x="635.787109" xlink:href="#DejaVuSans-63"/>
      <use x="690.767578" xlink:href="#DejaVuSans-6f"/>
      <use x="751.949219" xlink:href="#DejaVuSans-76"/>
      <use x="811.128906" xlink:href="#DejaVuSans-65"/>
      <use x="872.652344" xlink:href="#DejaVuSans-72"/>
      <use x="913.765625" xlink:href="#DejaVuSans-61"/>
      <use x="975.044922" xlink:href="#DejaVuSans-67"/>
      <use x="1038.521484" xlink:href="#DejaVuSans-65"/>
     </g>
    </g>
   </g>
   <g id="line2d_31">
    <path clip-path="url(#p765d051ce5)" d="M 69.560852 249.510009 
L 119.327306 233.928353 
L 148.438816 224.461018 
L 169.09376 217.65637 
L 185.11498 213.317175 
L 198.205269 209.668306 
L 209.272952 206.118056 
L 218.860214 199.017554 
L 227.316779 195.66454 
L 234.881434 189.846073 
L 241.724496 185.013787 
L 247.971723 182.745572 
L 253.718615 181.364919 
L 259.039406 178.702231 
L 263.992943 167.657006 
L 268.626668 167.262534 
L 272.979383 122.983018 
L 277.083233 121.306511 
L 280.965141 117.75626 
L 284.647888 70.222348 
L 288.150915 68.348605 
L 291.49095 64.798354 
L 294.68249 54.344838 
L 297.738177 53.654511 
L 300.669107 52.865567 
L 303.485069 51.978004 
L 306.194742 50.498733 
L 308.805859 49.907025 
L 311.32534 49.808407 
L 313.759397 49.216698 
L 316.113635 47.441573 
L 318.393122 46.849864 
L 320.60246 46.356774 
L 322.745837 46.356774 
L 324.827079 46.258156 
L 326.849687 46.258156 
L 328.816873 46.06092 
L 330.731595 45.271975 
L 332.596578 44.877503 
L 334.414342 44.581649 
L 336.187217 44.285794 
L 337.917369 43.299614 
L 339.606807 43.200995 
L 341.257404 42.905141 
L 342.870906 42.905141 
L 344.448944 42.905141 
L 345.993042 42.905141 
L 347.504631 42.905141 
L 348.985051 42.707905 
L 350.435561 41.820342 
L 351.857347 41.820342 
L 353.251523 41.327252 
L 354.619142 41.228634 
L 355.961196 41.031398 
L 357.278624 41.031398 
L 358.572313 41.031398 
L 359.843104 40.834162 
L 361.091794 40.439689 
L 362.319136 40.341071 
L 363.525851 40.242453 
L 364.712619 40.143835 
L 365.880089 40.143835 
L 367.028878 39.946599 
L 368.159576 39.946599 
L 369.272743 39.650745 
L 370.368914 39.650745 
L 371.4486 39.650745 
L 372.512291 39.650745 
L 373.560453 39.650745 
L 374.593533 39.552127 
L 375.611959 39.552127 
L 376.616141 39.552127 
L 377.606471 39.552127 
L 378.583327 39.157654 
L 379.547071 38.960418 
L 380.498049 38.565946 
L 381.436596 38.565946 
L 382.363032 38.565946 
L 383.277666 37.579765 
L 384.180795 37.579765 
L 385.072705 37.579765 
L 385.953671 37.579765 
L 386.823958 37.579765 
L 387.683823 37.481147 
L 388.533511 37.481147 
L 389.373261 37.283911 
L 390.203303 37.283911 
L 391.023858 37.283911 
L 391.835142 37.283911 
L 392.63736 37.283911 
L 393.430714 37.185293 
L 394.215398 37.185293 
" style="fill:none;stroke:#98df8a;stroke-linecap:square;stroke-width:1.5;"/>
    <defs>
     <path d="M -0 3 
L 3 -3 
L -3 -3 
z
" id="maa049e8f4a" style="stroke:#ffffff;stroke-linejoin:miter;stroke-width:0.75;"/>
    </defs>
    <g clip-path="url(#p765d051ce5)">
     <use style="fill:#98df8a;stroke:#ffffff;stroke-linejoin:miter;stroke-width:0.75;" x="69.560852" xlink:href="#maa049e8f4a" y="249.510009"/>
     <use style="fill:#98df8a;stroke:#ffffff;stroke-linejoin:miter;stroke-width:0.75;" x="119.327306" xlink:href="#maa049e8f4a" y="233.928353"/>
     <use style="fill:#98df8a;stroke:#ffffff;stroke-linejoin:miter;stroke-width:0.75;" x="148.438816" xlink:href="#maa049e8f4a" y="224.461018"/>
     <use style="fill:#98df8a;stroke:#ffffff;stroke-linejoin:miter;stroke-width:0.75;" x="169.09376" xlink:href="#maa049e8f4a" y="217.65637"/>
     <use style="fill:#98df8a;stroke:#ffffff;stroke-linejoin:miter;stroke-width:0.75;" x="185.11498" xlink:href="#maa049e8f4a" y="213.317175"/>
     <use style="fill:#98df8a;stroke:#ffffff;stroke-linejoin:miter;stroke-width:0.75;" x="198.205269" xlink:href="#maa049e8f4a" y="209.668306"/>
     <use style="fill:#98df8a;stroke:#ffffff;stroke-linejoin:miter;stroke-width:0.75;" x="209.272952" xlink:href="#maa049e8f4a" y="206.118056"/>
     <use style="fill:#98df8a;stroke:#ffffff;stroke-linejoin:miter;stroke-width:0.75;" x="218.860214" xlink:href="#maa049e8f4a" y="199.017554"/>
     <use style="fill:#98df8a;stroke:#ffffff;stroke-linejoin:miter;stroke-width:0.75;" x="227.316779" xlink:href="#maa049e8f4a" y="195.66454"/>
     <use style="fill:#98df8a;stroke:#ffffff;stroke-linejoin:miter;stroke-width:0.75;" x="234.881434" xlink:href="#maa049e8f4a" y="189.846073"/>
     <use style="fill:#98df8a;stroke:#ffffff;stroke-linejoin:miter;stroke-width:0.75;" x="241.724496" xlink:href="#maa049e8f4a" y="185.013787"/>
     <use style="fill:#98df8a;stroke:#ffffff;stroke-linejoin:miter;stroke-width:0.75;" x="247.971723" xlink:href="#maa049e8f4a" y="182.745572"/>
     <use style="fill:#98df8a;stroke:#ffffff;stroke-linejoin:miter;stroke-width:0.75;" x="253.718615" xlink:href="#maa049e8f4a" y="181.364919"/>
     <use style="fill:#98df8a;stroke:#ffffff;stroke-linejoin:miter;stroke-width:0.75;" x="259.039406" xlink:href="#maa049e8f4a" y="178.702231"/>
     <use style="fill:#98df8a;stroke:#ffffff;stroke-linejoin:miter;stroke-width:0.75;" x="263.992943" xlink:href="#maa049e8f4a" y="167.657006"/>
     <use style="fill:#98df8a;stroke:#ffffff;stroke-linejoin:miter;stroke-width:0.75;" x="268.626668" xlink:href="#maa049e8f4a" y="167.262534"/>
     <use style="fill:#98df8a;stroke:#ffffff;stroke-linejoin:miter;stroke-width:0.75;" x="272.979383" xlink:href="#maa049e8f4a" y="122.983018"/>
     <use style="fill:#98df8a;stroke:#ffffff;stroke-linejoin:miter;stroke-width:0.75;" x="277.083233" xlink:href="#maa049e8f4a" y="121.306511"/>
     <use style="fill:#98df8a;stroke:#ffffff;stroke-linejoin:miter;stroke-width:0.75;" x="280.965141" xlink:href="#maa049e8f4a" y="117.75626"/>
     <use style="fill:#98df8a;stroke:#ffffff;stroke-linejoin:miter;stroke-width:0.75;" x="284.647888" xlink:href="#maa049e8f4a" y="70.222348"/>
     <use style="fill:#98df8a;stroke:#ffffff;stroke-linejoin:miter;stroke-width:0.75;" x="288.150915" xlink:href="#maa049e8f4a" y="68.348605"/>
     <use style="fill:#98df8a;stroke:#ffffff;stroke-linejoin:miter;stroke-width:0.75;" x="291.49095" xlink:href="#maa049e8f4a" y="64.798354"/>
     <use style="fill:#98df8a;stroke:#ffffff;stroke-linejoin:miter;stroke-width:0.75;" x="294.68249" xlink:href="#maa049e8f4a" y="54.344838"/>
     <use style="fill:#98df8a;stroke:#ffffff;stroke-linejoin:miter;stroke-width:0.75;" x="297.738177" xlink:href="#maa049e8f4a" y="53.654511"/>
     <use style="fill:#98df8a;stroke:#ffffff;stroke-linejoin:miter;stroke-width:0.75;" x="300.669107" xlink:href="#maa049e8f4a" y="52.865567"/>
     <use style="fill:#98df8a;stroke:#ffffff;stroke-linejoin:miter;stroke-width:0.75;" x="303.485069" xlink:href="#maa049e8f4a" y="51.978004"/>
     <use style="fill:#98df8a;stroke:#ffffff;stroke-linejoin:miter;stroke-width:0.75;" x="306.194742" xlink:href="#maa049e8f4a" y="50.498733"/>
     <use style="fill:#98df8a;stroke:#ffffff;stroke-linejoin:miter;stroke-width:0.75;" x="308.805859" xlink:href="#maa049e8f4a" y="49.907025"/>
     <use style="fill:#98df8a;stroke:#ffffff;stroke-linejoin:miter;stroke-width:0.75;" x="311.32534" xlink:href="#maa049e8f4a" y="49.808407"/>
     <use style="fill:#98df8a;stroke:#ffffff;stroke-linejoin:miter;stroke-width:0.75;" x="313.759397" xlink:href="#maa049e8f4a" y="49.216698"/>
     <use style="fill:#98df8a;stroke:#ffffff;stroke-linejoin:miter;stroke-width:0.75;" x="316.113635" xlink:href="#maa049e8f4a" y="47.441573"/>
     <use style="fill:#98df8a;stroke:#ffffff;stroke-linejoin:miter;stroke-width:0.75;" x="318.393122" xlink:href="#maa049e8f4a" y="46.849864"/>
     <use style="fill:#98df8a;stroke:#ffffff;stroke-linejoin:miter;stroke-width:0.75;" x="320.60246" xlink:href="#maa049e8f4a" y="46.356774"/>
     <use style="fill:#98df8a;stroke:#ffffff;stroke-linejoin:miter;stroke-width:0.75;" x="322.745837" xlink:href="#maa049e8f4a" y="46.356774"/>
     <use style="fill:#98df8a;stroke:#ffffff;stroke-linejoin:miter;stroke-width:0.75;" x="324.827079" xlink:href="#maa049e8f4a" y="46.258156"/>
     <use style="fill:#98df8a;stroke:#ffffff;stroke-linejoin:miter;stroke-width:0.75;" x="326.849687" xlink:href="#maa049e8f4a" y="46.258156"/>
     <use style="fill:#98df8a;stroke:#ffffff;stroke-linejoin:miter;stroke-width:0.75;" x="328.816873" xlink:href="#maa049e8f4a" y="46.06092"/>
     <use style="fill:#98df8a;stroke:#ffffff;stroke-linejoin:miter;stroke-width:0.75;" x="330.731595" xlink:href="#maa049e8f4a" y="45.271975"/>
     <use style="fill:#98df8a;stroke:#ffffff;stroke-linejoin:miter;stroke-width:0.75;" x="332.596578" xlink:href="#maa049e8f4a" y="44.877503"/>
     <use style="fill:#98df8a;stroke:#ffffff;stroke-linejoin:miter;stroke-width:0.75;" x="334.414342" xlink:href="#maa049e8f4a" y="44.581649"/>
     <use style="fill:#98df8a;stroke:#ffffff;stroke-linejoin:miter;stroke-width:0.75;" x="336.187217" xlink:href="#maa049e8f4a" y="44.285794"/>
     <use style="fill:#98df8a;stroke:#ffffff;stroke-linejoin:miter;stroke-width:0.75;" x="337.917369" xlink:href="#maa049e8f4a" y="43.299614"/>
     <use style="fill:#98df8a;stroke:#ffffff;stroke-linejoin:miter;stroke-width:0.75;" x="339.606807" xlink:href="#maa049e8f4a" y="43.200995"/>
     <use style="fill:#98df8a;stroke:#ffffff;stroke-linejoin:miter;stroke-width:0.75;" x="341.257404" xlink:href="#maa049e8f4a" y="42.905141"/>
     <use style="fill:#98df8a;stroke:#ffffff;stroke-linejoin:miter;stroke-width:0.75;" x="342.870906" xlink:href="#maa049e8f4a" y="42.905141"/>
     <use style="fill:#98df8a;stroke:#ffffff;stroke-linejoin:miter;stroke-width:0.75;" x="344.448944" xlink:href="#maa049e8f4a" y="42.905141"/>
     <use style="fill:#98df8a;stroke:#ffffff;stroke-linejoin:miter;stroke-width:0.75;" x="345.993042" xlink:href="#maa049e8f4a" y="42.905141"/>
     <use style="fill:#98df8a;stroke:#ffffff;stroke-linejoin:miter;stroke-width:0.75;" x="347.504631" xlink:href="#maa049e8f4a" y="42.905141"/>
     <use style="fill:#98df8a;stroke:#ffffff;stroke-linejoin:miter;stroke-width:0.75;" x="348.985051" xlink:href="#maa049e8f4a" y="42.707905"/>
     <use style="fill:#98df8a;stroke:#ffffff;stroke-linejoin:miter;stroke-width:0.75;" x="350.435561" xlink:href="#maa049e8f4a" y="41.820342"/>
     <use style="fill:#98df8a;stroke:#ffffff;stroke-linejoin:miter;stroke-width:0.75;" x="351.857347" xlink:href="#maa049e8f4a" y="41.820342"/>
     <use style="fill:#98df8a;stroke:#ffffff;stroke-linejoin:miter;stroke-width:0.75;" x="353.251523" xlink:href="#maa049e8f4a" y="41.327252"/>
     <use style="fill:#98df8a;stroke:#ffffff;stroke-linejoin:miter;stroke-width:0.75;" x="354.619142" xlink:href="#maa049e8f4a" y="41.228634"/>
     <use style="fill:#98df8a;stroke:#ffffff;stroke-linejoin:miter;stroke-width:0.75;" x="355.961196" xlink:href="#maa049e8f4a" y="41.031398"/>
     <use style="fill:#98df8a;stroke:#ffffff;stroke-linejoin:miter;stroke-width:0.75;" x="357.278624" xlink:href="#maa049e8f4a" y="41.031398"/>
     <use style="fill:#98df8a;stroke:#ffffff;stroke-linejoin:miter;stroke-width:0.75;" x="358.572313" xlink:href="#maa049e8f4a" y="41.031398"/>
     <use style="fill:#98df8a;stroke:#ffffff;stroke-linejoin:miter;stroke-width:0.75;" x="359.843104" xlink:href="#maa049e8f4a" y="40.834162"/>
     <use style="fill:#98df8a;stroke:#ffffff;stroke-linejoin:miter;stroke-width:0.75;" x="361.091794" xlink:href="#maa049e8f4a" y="40.439689"/>
     <use style="fill:#98df8a;stroke:#ffffff;stroke-linejoin:miter;stroke-width:0.75;" x="362.319136" xlink:href="#maa049e8f4a" y="40.341071"/>
     <use style="fill:#98df8a;stroke:#ffffff;stroke-linejoin:miter;stroke-width:0.75;" x="363.525851" xlink:href="#maa049e8f4a" y="40.242453"/>
     <use style="fill:#98df8a;stroke:#ffffff;stroke-linejoin:miter;stroke-width:0.75;" x="364.712619" xlink:href="#maa049e8f4a" y="40.143835"/>
     <use style="fill:#98df8a;stroke:#ffffff;stroke-linejoin:miter;stroke-width:0.75;" x="365.880089" xlink:href="#maa049e8f4a" y="40.143835"/>
     <use style="fill:#98df8a;stroke:#ffffff;stroke-linejoin:miter;stroke-width:0.75;" x="367.028878" xlink:href="#maa049e8f4a" y="39.946599"/>
     <use style="fill:#98df8a;stroke:#ffffff;stroke-linejoin:miter;stroke-width:0.75;" x="368.159576" xlink:href="#maa049e8f4a" y="39.946599"/>
     <use style="fill:#98df8a;stroke:#ffffff;stroke-linejoin:miter;stroke-width:0.75;" x="369.272743" xlink:href="#maa049e8f4a" y="39.650745"/>
     <use style="fill:#98df8a;stroke:#ffffff;stroke-linejoin:miter;stroke-width:0.75;" x="370.368914" xlink:href="#maa049e8f4a" y="39.650745"/>
     <use style="fill:#98df8a;stroke:#ffffff;stroke-linejoin:miter;stroke-width:0.75;" x="371.4486" xlink:href="#maa049e8f4a" y="39.650745"/>
     <use style="fill:#98df8a;stroke:#ffffff;stroke-linejoin:miter;stroke-width:0.75;" x="372.512291" xlink:href="#maa049e8f4a" y="39.650745"/>
     <use style="fill:#98df8a;stroke:#ffffff;stroke-linejoin:miter;stroke-width:0.75;" x="373.560453" xlink:href="#maa049e8f4a" y="39.650745"/>
     <use style="fill:#98df8a;stroke:#ffffff;stroke-linejoin:miter;stroke-width:0.75;" x="374.593533" xlink:href="#maa049e8f4a" y="39.552127"/>
     <use style="fill:#98df8a;stroke:#ffffff;stroke-linejoin:miter;stroke-width:0.75;" x="375.611959" xlink:href="#maa049e8f4a" y="39.552127"/>
     <use style="fill:#98df8a;stroke:#ffffff;stroke-linejoin:miter;stroke-width:0.75;" x="376.616141" xlink:href="#maa049e8f4a" y="39.552127"/>
     <use style="fill:#98df8a;stroke:#ffffff;stroke-linejoin:miter;stroke-width:0.75;" x="377.606471" xlink:href="#maa049e8f4a" y="39.552127"/>
     <use style="fill:#98df8a;stroke:#ffffff;stroke-linejoin:miter;stroke-width:0.75;" x="378.583327" xlink:href="#maa049e8f4a" y="39.157654"/>
     <use style="fill:#98df8a;stroke:#ffffff;stroke-linejoin:miter;stroke-width:0.75;" x="379.547071" xlink:href="#maa049e8f4a" y="38.960418"/>
     <use style="fill:#98df8a;stroke:#ffffff;stroke-linejoin:miter;stroke-width:0.75;" x="380.498049" xlink:href="#maa049e8f4a" y="38.565946"/>
     <use style="fill:#98df8a;stroke:#ffffff;stroke-linejoin:miter;stroke-width:0.75;" x="381.436596" xlink:href="#maa049e8f4a" y="38.565946"/>
     <use style="fill:#98df8a;stroke:#ffffff;stroke-linejoin:miter;stroke-width:0.75;" x="382.363032" xlink:href="#maa049e8f4a" y="38.565946"/>
     <use style="fill:#98df8a;stroke:#ffffff;stroke-linejoin:miter;stroke-width:0.75;" x="383.277666" xlink:href="#maa049e8f4a" y="37.579765"/>
     <use style="fill:#98df8a;stroke:#ffffff;stroke-linejoin:miter;stroke-width:0.75;" x="384.180795" xlink:href="#maa049e8f4a" y="37.579765"/>
     <use style="fill:#98df8a;stroke:#ffffff;stroke-linejoin:miter;stroke-width:0.75;" x="385.072705" xlink:href="#maa049e8f4a" y="37.579765"/>
     <use style="fill:#98df8a;stroke:#ffffff;stroke-linejoin:miter;stroke-width:0.75;" x="385.953671" xlink:href="#maa049e8f4a" y="37.579765"/>
     <use style="fill:#98df8a;stroke:#ffffff;stroke-linejoin:miter;stroke-width:0.75;" x="386.823958" xlink:href="#maa049e8f4a" y="37.579765"/>
     <use style="fill:#98df8a;stroke:#ffffff;stroke-linejoin:miter;stroke-width:0.75;" x="387.683823" xlink:href="#maa049e8f4a" y="37.481147"/>
     <use style="fill:#98df8a;stroke:#ffffff;stroke-linejoin:miter;stroke-width:0.75;" x="388.533511" xlink:href="#maa049e8f4a" y="37.481147"/>
     <use style="fill:#98df8a;stroke:#ffffff;stroke-linejoin:miter;stroke-width:0.75;" x="389.373261" xlink:href="#maa049e8f4a" y="37.283911"/>
     <use style="fill:#98df8a;stroke:#ffffff;stroke-linejoin:miter;stroke-width:0.75;" x="390.203303" xlink:href="#maa049e8f4a" y="37.283911"/>
     <use style="fill:#98df8a;stroke:#ffffff;stroke-linejoin:miter;stroke-width:0.75;" x="391.023858" xlink:href="#maa049e8f4a" y="37.283911"/>
     <use style="fill:#98df8a;stroke:#ffffff;stroke-linejoin:miter;stroke-width:0.75;" x="391.835142" xlink:href="#maa049e8f4a" y="37.283911"/>
     <use style="fill:#98df8a;stroke:#ffffff;stroke-linejoin:miter;stroke-width:0.75;" x="392.63736" xlink:href="#maa049e8f4a" y="37.283911"/>
     <use style="fill:#98df8a;stroke:#ffffff;stroke-linejoin:miter;stroke-width:0.75;" x="393.430714" xlink:href="#maa049e8f4a" y="37.185293"/>
     <use style="fill:#98df8a;stroke:#ffffff;stroke-linejoin:miter;stroke-width:0.75;" x="394.215398" xlink:href="#maa049e8f4a" y="37.185293"/>
    </g>
   </g>
   <g id="line2d_32">
    <path clip-path="url(#p765d051ce5)" d="M 69.560852 268.740533 
L 119.327306 255.229857 
L 148.438816 245.663904 
L 169.09376 238.464784 
L 185.11498 232.646318 
L 198.205269 226.236143 
L 209.272952 220.023204 
L 218.860214 214.796446 
L 227.316779 209.273834 
L 234.881434 208.583507 
L 241.724496 207.301472 
L 247.971723 206.315292 
L 253.718615 205.624965 
L 259.039406 204.244312 
L 263.992943 201.384388 
L 268.626668 199.510645 
L 272.979383 197.341047 
L 277.083233 196.256248 
L 280.965141 195.66454 
L 284.647888 193.494942 
L 288.150915 192.410143 
L 291.49095 192.311525 
L 294.68249 192.311525 
L 297.738177 192.311525 
L 300.669107 192.114289 
L 303.485069 191.719817 
L 306.194742 191.719817 
L 308.805859 191.128108 
L 311.32534 191.02949 
L 313.759397 190.5364 
L 316.113635 190.043309 
L 318.393122 189.944691 
L 320.60246 189.944691 
L 322.745837 189.747455 
L 324.827079 189.747455 
L 326.849687 189.451601 
L 328.816873 189.451601 
L 330.731595 189.451601 
L 332.596578 189.254365 
L 334.414342 189.254365 
L 336.187217 189.254365 
L 337.917369 189.057129 
L 339.606807 189.057129 
L 341.257404 188.859892 
L 342.870906 188.169566 
L 344.448944 187.97233 
L 345.993042 187.97233 
L 347.504631 187.873712 
L 348.985051 187.775094 
L 350.435561 187.775094 
L 351.857347 187.183385 
L 353.251523 187.183385 
L 354.619142 187.084767 
L 355.961196 187.084767 
L 357.278624 187.084767 
L 358.572313 186.493059 
L 359.843104 186.493059 
L 361.091794 186.493059 
L 362.319136 186.394441 
L 363.525851 186.295822 
L 364.712619 186.197204 
L 365.880089 185.90135 
L 367.028878 185.605496 
L 368.159576 184.915169 
L 369.272743 184.915169 
L 370.368914 185.013787 
L 371.4486 185.013787 
L 372.512291 185.013787 
L 373.560453 184.915169 
L 374.593533 184.323461 
L 375.611959 184.323461 
L 376.616141 184.323461 
L 377.606471 184.323461 
L 378.583327 184.323461 
L 379.547071 184.323461 
L 380.498049 184.323461 
L 381.436596 184.323461 
L 382.363032 184.323461 
L 383.277666 184.323461 
L 384.180795 184.323461 
L 385.072705 183.928989 
L 385.953671 183.928989 
L 386.823958 183.928989 
L 387.683823 183.928989 
L 388.533511 183.928989 
L 389.373261 183.928989 
L 390.203303 183.731752 
L 391.023858 183.633134 
L 391.835142 183.633134 
L 392.63736 183.633134 
L 393.430714 183.633134 
L 394.215398 183.33728 
" style="fill:none;stroke:#1f77b4;stroke-linecap:square;stroke-width:1.5;"/>
    <defs>
     <path d="M 0 3 
C 0.795609 3 1.55874 2.683901 2.12132 2.12132 
C 2.683901 1.55874 3 0.795609 3 0 
C 3 -0.795609 2.683901 -1.55874 2.12132 -2.12132 
C 1.55874 -2.683901 0.795609 -3 0 -3 
C -0.795609 -3 -1.55874 -2.683901 -2.12132 -2.12132 
C -2.683901 -1.55874 -3 -0.795609 -3 0 
C -3 0.795609 -2.683901 1.55874 -2.12132 2.12132 
C -1.55874 2.683901 -0.795609 3 0 3 
z
" id="mcc7c7bdf4e" style="stroke:#ffffff;stroke-width:0.75;"/>
    </defs>
    <g clip-path="url(#p765d051ce5)">
     <use style="fill:#1f77b4;stroke:#ffffff;stroke-width:0.75;" x="69.560852" xlink:href="#mcc7c7bdf4e" y="268.740533"/>
     <use style="fill:#1f77b4;stroke:#ffffff;stroke-width:0.75;" x="119.327306" xlink:href="#mcc7c7bdf4e" y="255.229857"/>
     <use style="fill:#1f77b4;stroke:#ffffff;stroke-width:0.75;" x="148.438816" xlink:href="#mcc7c7bdf4e" y="245.663904"/>
     <use style="fill:#1f77b4;stroke:#ffffff;stroke-width:0.75;" x="169.09376" xlink:href="#mcc7c7bdf4e" y="238.464784"/>
     <use style="fill:#1f77b4;stroke:#ffffff;stroke-width:0.75;" x="185.11498" xlink:href="#mcc7c7bdf4e" y="232.646318"/>
     <use style="fill:#1f77b4;stroke:#ffffff;stroke-width:0.75;" x="198.205269" xlink:href="#mcc7c7bdf4e" y="226.236143"/>
     <use style="fill:#1f77b4;stroke:#ffffff;stroke-width:0.75;" x="209.272952" xlink:href="#mcc7c7bdf4e" y="220.023204"/>
     <use style="fill:#1f77b4;stroke:#ffffff;stroke-width:0.75;" x="218.860214" xlink:href="#mcc7c7bdf4e" y="214.796446"/>
     <use style="fill:#1f77b4;stroke:#ffffff;stroke-width:0.75;" x="227.316779" xlink:href="#mcc7c7bdf4e" y="209.273834"/>
     <use style="fill:#1f77b4;stroke:#ffffff;stroke-width:0.75;" x="234.881434" xlink:href="#mcc7c7bdf4e" y="208.583507"/>
     <use style="fill:#1f77b4;stroke:#ffffff;stroke-width:0.75;" x="241.724496" xlink:href="#mcc7c7bdf4e" y="207.301472"/>
     <use style="fill:#1f77b4;stroke:#ffffff;stroke-width:0.75;" x="247.971723" xlink:href="#mcc7c7bdf4e" y="206.315292"/>
     <use style="fill:#1f77b4;stroke:#ffffff;stroke-width:0.75;" x="253.718615" xlink:href="#mcc7c7bdf4e" y="205.624965"/>
     <use style="fill:#1f77b4;stroke:#ffffff;stroke-width:0.75;" x="259.039406" xlink:href="#mcc7c7bdf4e" y="204.244312"/>
     <use style="fill:#1f77b4;stroke:#ffffff;stroke-width:0.75;" x="263.992943" xlink:href="#mcc7c7bdf4e" y="201.384388"/>
     <use style="fill:#1f77b4;stroke:#ffffff;stroke-width:0.75;" x="268.626668" xlink:href="#mcc7c7bdf4e" y="199.510645"/>
     <use style="fill:#1f77b4;stroke:#ffffff;stroke-width:0.75;" x="272.979383" xlink:href="#mcc7c7bdf4e" y="197.341047"/>
     <use style="fill:#1f77b4;stroke:#ffffff;stroke-width:0.75;" x="277.083233" xlink:href="#mcc7c7bdf4e" y="196.256248"/>
     <use style="fill:#1f77b4;stroke:#ffffff;stroke-width:0.75;" x="280.965141" xlink:href="#mcc7c7bdf4e" y="195.66454"/>
     <use style="fill:#1f77b4;stroke:#ffffff;stroke-width:0.75;" x="284.647888" xlink:href="#mcc7c7bdf4e" y="193.494942"/>
     <use style="fill:#1f77b4;stroke:#ffffff;stroke-width:0.75;" x="288.150915" xlink:href="#mcc7c7bdf4e" y="192.410143"/>
     <use style="fill:#1f77b4;stroke:#ffffff;stroke-width:0.75;" x="291.49095" xlink:href="#mcc7c7bdf4e" y="192.311525"/>
     <use style="fill:#1f77b4;stroke:#ffffff;stroke-width:0.75;" x="294.68249" xlink:href="#mcc7c7bdf4e" y="192.311525"/>
     <use style="fill:#1f77b4;stroke:#ffffff;stroke-width:0.75;" x="297.738177" xlink:href="#mcc7c7bdf4e" y="192.311525"/>
     <use style="fill:#1f77b4;stroke:#ffffff;stroke-width:0.75;" x="300.669107" xlink:href="#mcc7c7bdf4e" y="192.114289"/>
     <use style="fill:#1f77b4;stroke:#ffffff;stroke-width:0.75;" x="303.485069" xlink:href="#mcc7c7bdf4e" y="191.719817"/>
     <use style="fill:#1f77b4;stroke:#ffffff;stroke-width:0.75;" x="306.194742" xlink:href="#mcc7c7bdf4e" y="191.719817"/>
     <use style="fill:#1f77b4;stroke:#ffffff;stroke-width:0.75;" x="308.805859" xlink:href="#mcc7c7bdf4e" y="191.128108"/>
     <use style="fill:#1f77b4;stroke:#ffffff;stroke-width:0.75;" x="311.32534" xlink:href="#mcc7c7bdf4e" y="191.02949"/>
     <use style="fill:#1f77b4;stroke:#ffffff;stroke-width:0.75;" x="313.759397" xlink:href="#mcc7c7bdf4e" y="190.5364"/>
     <use style="fill:#1f77b4;stroke:#ffffff;stroke-width:0.75;" x="316.113635" xlink:href="#mcc7c7bdf4e" y="190.043309"/>
     <use style="fill:#1f77b4;stroke:#ffffff;stroke-width:0.75;" x="318.393122" xlink:href="#mcc7c7bdf4e" y="189.944691"/>
     <use style="fill:#1f77b4;stroke:#ffffff;stroke-width:0.75;" x="320.60246" xlink:href="#mcc7c7bdf4e" y="189.944691"/>
     <use style="fill:#1f77b4;stroke:#ffffff;stroke-width:0.75;" x="322.745837" xlink:href="#mcc7c7bdf4e" y="189.747455"/>
     <use style="fill:#1f77b4;stroke:#ffffff;stroke-width:0.75;" x="324.827079" xlink:href="#mcc7c7bdf4e" y="189.747455"/>
     <use style="fill:#1f77b4;stroke:#ffffff;stroke-width:0.75;" x="326.849687" xlink:href="#mcc7c7bdf4e" y="189.451601"/>
     <use style="fill:#1f77b4;stroke:#ffffff;stroke-width:0.75;" x="328.816873" xlink:href="#mcc7c7bdf4e" y="189.451601"/>
     <use style="fill:#1f77b4;stroke:#ffffff;stroke-width:0.75;" x="330.731595" xlink:href="#mcc7c7bdf4e" y="189.451601"/>
     <use style="fill:#1f77b4;stroke:#ffffff;stroke-width:0.75;" x="332.596578" xlink:href="#mcc7c7bdf4e" y="189.254365"/>
     <use style="fill:#1f77b4;stroke:#ffffff;stroke-width:0.75;" x="334.414342" xlink:href="#mcc7c7bdf4e" y="189.254365"/>
     <use style="fill:#1f77b4;stroke:#ffffff;stroke-width:0.75;" x="336.187217" xlink:href="#mcc7c7bdf4e" y="189.254365"/>
     <use style="fill:#1f77b4;stroke:#ffffff;stroke-width:0.75;" x="337.917369" xlink:href="#mcc7c7bdf4e" y="189.057129"/>
     <use style="fill:#1f77b4;stroke:#ffffff;stroke-width:0.75;" x="339.606807" xlink:href="#mcc7c7bdf4e" y="189.057129"/>
     <use style="fill:#1f77b4;stroke:#ffffff;stroke-width:0.75;" x="341.257404" xlink:href="#mcc7c7bdf4e" y="188.859892"/>
     <use style="fill:#1f77b4;stroke:#ffffff;stroke-width:0.75;" x="342.870906" xlink:href="#mcc7c7bdf4e" y="188.169566"/>
     <use style="fill:#1f77b4;stroke:#ffffff;stroke-width:0.75;" x="344.448944" xlink:href="#mcc7c7bdf4e" y="187.97233"/>
     <use style="fill:#1f77b4;stroke:#ffffff;stroke-width:0.75;" x="345.993042" xlink:href="#mcc7c7bdf4e" y="187.97233"/>
     <use style="fill:#1f77b4;stroke:#ffffff;stroke-width:0.75;" x="347.504631" xlink:href="#mcc7c7bdf4e" y="187.873712"/>
     <use style="fill:#1f77b4;stroke:#ffffff;stroke-width:0.75;" x="348.985051" xlink:href="#mcc7c7bdf4e" y="187.775094"/>
     <use style="fill:#1f77b4;stroke:#ffffff;stroke-width:0.75;" x="350.435561" xlink:href="#mcc7c7bdf4e" y="187.775094"/>
     <use style="fill:#1f77b4;stroke:#ffffff;stroke-width:0.75;" x="351.857347" xlink:href="#mcc7c7bdf4e" y="187.183385"/>
     <use style="fill:#1f77b4;stroke:#ffffff;stroke-width:0.75;" x="353.251523" xlink:href="#mcc7c7bdf4e" y="187.183385"/>
     <use style="fill:#1f77b4;stroke:#ffffff;stroke-width:0.75;" x="354.619142" xlink:href="#mcc7c7bdf4e" y="187.084767"/>
     <use style="fill:#1f77b4;stroke:#ffffff;stroke-width:0.75;" x="355.961196" xlink:href="#mcc7c7bdf4e" y="187.084767"/>
     <use style="fill:#1f77b4;stroke:#ffffff;stroke-width:0.75;" x="357.278624" xlink:href="#mcc7c7bdf4e" y="187.084767"/>
     <use style="fill:#1f77b4;stroke:#ffffff;stroke-width:0.75;" x="358.572313" xlink:href="#mcc7c7bdf4e" y="186.493059"/>
     <use style="fill:#1f77b4;stroke:#ffffff;stroke-width:0.75;" x="359.843104" xlink:href="#mcc7c7bdf4e" y="186.493059"/>
     <use style="fill:#1f77b4;stroke:#ffffff;stroke-width:0.75;" x="361.091794" xlink:href="#mcc7c7bdf4e" y="186.493059"/>
     <use style="fill:#1f77b4;stroke:#ffffff;stroke-width:0.75;" x="362.319136" xlink:href="#mcc7c7bdf4e" y="186.394441"/>
     <use style="fill:#1f77b4;stroke:#ffffff;stroke-width:0.75;" x="363.525851" xlink:href="#mcc7c7bdf4e" y="186.295822"/>
     <use style="fill:#1f77b4;stroke:#ffffff;stroke-width:0.75;" x="364.712619" xlink:href="#mcc7c7bdf4e" y="186.197204"/>
     <use style="fill:#1f77b4;stroke:#ffffff;stroke-width:0.75;" x="365.880089" xlink:href="#mcc7c7bdf4e" y="185.90135"/>
     <use style="fill:#1f77b4;stroke:#ffffff;stroke-width:0.75;" x="367.028878" xlink:href="#mcc7c7bdf4e" y="185.605496"/>
     <use style="fill:#1f77b4;stroke:#ffffff;stroke-width:0.75;" x="368.159576" xlink:href="#mcc7c7bdf4e" y="184.915169"/>
     <use style="fill:#1f77b4;stroke:#ffffff;stroke-width:0.75;" x="369.272743" xlink:href="#mcc7c7bdf4e" y="184.915169"/>
     <use style="fill:#1f77b4;stroke:#ffffff;stroke-width:0.75;" x="370.368914" xlink:href="#mcc7c7bdf4e" y="185.013787"/>
     <use style="fill:#1f77b4;stroke:#ffffff;stroke-width:0.75;" x="371.4486" xlink:href="#mcc7c7bdf4e" y="185.013787"/>
     <use style="fill:#1f77b4;stroke:#ffffff;stroke-width:0.75;" x="372.512291" xlink:href="#mcc7c7bdf4e" y="185.013787"/>
     <use style="fill:#1f77b4;stroke:#ffffff;stroke-width:0.75;" x="373.560453" xlink:href="#mcc7c7bdf4e" y="184.915169"/>
     <use style="fill:#1f77b4;stroke:#ffffff;stroke-width:0.75;" x="374.593533" xlink:href="#mcc7c7bdf4e" y="184.323461"/>
     <use style="fill:#1f77b4;stroke:#ffffff;stroke-width:0.75;" x="375.611959" xlink:href="#mcc7c7bdf4e" y="184.323461"/>
     <use style="fill:#1f77b4;stroke:#ffffff;stroke-width:0.75;" x="376.616141" xlink:href="#mcc7c7bdf4e" y="184.323461"/>
     <use style="fill:#1f77b4;stroke:#ffffff;stroke-width:0.75;" x="377.606471" xlink:href="#mcc7c7bdf4e" y="184.323461"/>
     <use style="fill:#1f77b4;stroke:#ffffff;stroke-width:0.75;" x="378.583327" xlink:href="#mcc7c7bdf4e" y="184.323461"/>
     <use style="fill:#1f77b4;stroke:#ffffff;stroke-width:0.75;" x="379.547071" xlink:href="#mcc7c7bdf4e" y="184.323461"/>
     <use style="fill:#1f77b4;stroke:#ffffff;stroke-width:0.75;" x="380.498049" xlink:href="#mcc7c7bdf4e" y="184.323461"/>
     <use style="fill:#1f77b4;stroke:#ffffff;stroke-width:0.75;" x="381.436596" xlink:href="#mcc7c7bdf4e" y="184.323461"/>
     <use style="fill:#1f77b4;stroke:#ffffff;stroke-width:0.75;" x="382.363032" xlink:href="#mcc7c7bdf4e" y="184.323461"/>
     <use style="fill:#1f77b4;stroke:#ffffff;stroke-width:0.75;" x="383.277666" xlink:href="#mcc7c7bdf4e" y="184.323461"/>
     <use style="fill:#1f77b4;stroke:#ffffff;stroke-width:0.75;" x="384.180795" xlink:href="#mcc7c7bdf4e" y="184.323461"/>
     <use style="fill:#1f77b4;stroke:#ffffff;stroke-width:0.75;" x="385.072705" xlink:href="#mcc7c7bdf4e" y="183.928989"/>
     <use style="fill:#1f77b4;stroke:#ffffff;stroke-width:0.75;" x="385.953671" xlink:href="#mcc7c7bdf4e" y="183.928989"/>
     <use style="fill:#1f77b4;stroke:#ffffff;stroke-width:0.75;" x="386.823958" xlink:href="#mcc7c7bdf4e" y="183.928989"/>
     <use style="fill:#1f77b4;stroke:#ffffff;stroke-width:0.75;" x="387.683823" xlink:href="#mcc7c7bdf4e" y="183.928989"/>
     <use style="fill:#1f77b4;stroke:#ffffff;stroke-width:0.75;" x="388.533511" xlink:href="#mcc7c7bdf4e" y="183.928989"/>
     <use style="fill:#1f77b4;stroke:#ffffff;stroke-width:0.75;" x="389.373261" xlink:href="#mcc7c7bdf4e" y="183.928989"/>
     <use style="fill:#1f77b4;stroke:#ffffff;stroke-width:0.75;" x="390.203303" xlink:href="#mcc7c7bdf4e" y="183.731752"/>
     <use style="fill:#1f77b4;stroke:#ffffff;stroke-width:0.75;" x="391.023858" xlink:href="#mcc7c7bdf4e" y="183.633134"/>
     <use style="fill:#1f77b4;stroke:#ffffff;stroke-width:0.75;" x="391.835142" xlink:href="#mcc7c7bdf4e" y="183.633134"/>
     <use style="fill:#1f77b4;stroke:#ffffff;stroke-width:0.75;" x="392.63736" xlink:href="#mcc7c7bdf4e" y="183.633134"/>
     <use style="fill:#1f77b4;stroke:#ffffff;stroke-width:0.75;" x="393.430714" xlink:href="#mcc7c7bdf4e" y="183.633134"/>
     <use style="fill:#1f77b4;stroke:#ffffff;stroke-width:0.75;" x="394.215398" xlink:href="#mcc7c7bdf4e" y="183.33728"/>
    </g>
   </g>
   <g id="line2d_33"/>
   <g id="line2d_34"/>
   <g id="patch_3">
    <path d="M 53.328125 263.612393 
L 53.328125 26.929013 
" style="fill:none;stroke:#000000;stroke-linecap:square;stroke-linejoin:miter;stroke-width:0.8;"/>
   </g>
   <g id="patch_4">
    <path d="M 69.560852 288.430125 
L 394.216265 288.430125 
" style="fill:none;stroke:#000000;stroke-linecap:square;stroke-linejoin:miter;stroke-width:0.8;"/>
   </g>
   <g id="text_16">
    <!-- grok_grk_decompress_fuzzer (23h, 20 trials/fuzzer) -->
    <g transform="translate(78.351875 16.318125)scale(0.12 -0.12)">
     <defs>
      <path d="M 581 4863 
L 1159 4863 
L 1159 1991 
L 2875 3500 
L 3609 3500 
L 1753 1863 
L 3688 0 
L 2938 0 
L 1159 1709 
L 1159 0 
L 581 0 
L 581 4863 
z
" id="DejaVuSans-6b" transform="scale(0.015625)"/>
      <path d="M 3263 -1063 
L 3263 -1509 
L -63 -1509 
L -63 -1063 
L 3263 -1063 
z
" id="DejaVuSans-5f" transform="scale(0.015625)"/>
      <path d="M 1159 525 
L 1159 -1331 
L 581 -1331 
L 581 3500 
L 1159 3500 
L 1159 2969 
Q 1341 3281 1617 3432 
Q 1894 3584 2278 3584 
Q 2916 3584 3314 3078 
Q 3713 2572 3713 1747 
Q 3713 922 3314 415 
Q 2916 -91 2278 -91 
Q 1894 -91 1617 61 
Q 1341 213 1159 525 
z
M 3116 1747 
Q 3116 2381 2855 2742 
Q 2594 3103 2138 3103 
Q 1681 3103 1420 2742 
Q 1159 2381 1159 1747 
Q 1159 1113 1420 752 
Q 1681 391 2138 391 
Q 2594 391 2855 752 
Q 3116 1113 3116 1747 
z
" id="DejaVuSans-70" transform="scale(0.015625)"/>
      <path d="M 2834 3397 
L 2834 2853 
Q 2591 2978 2328 3040 
Q 2066 3103 1784 3103 
Q 1356 3103 1142 2972 
Q 928 2841 928 2578 
Q 928 2378 1081 2264 
Q 1234 2150 1697 2047 
L 1894 2003 
Q 2506 1872 2764 1633 
Q 3022 1394 3022 966 
Q 3022 478 2636 193 
Q 2250 -91 1575 -91 
Q 1294 -91 989 -36 
Q 684 19 347 128 
L 347 722 
Q 666 556 975 473 
Q 1284 391 1588 391 
Q 1994 391 2212 530 
Q 2431 669 2431 922 
Q 2431 1156 2273 1281 
Q 2116 1406 1581 1522 
L 1381 1569 
Q 847 1681 609 1914 
Q 372 2147 372 2553 
Q 372 3047 722 3315 
Q 1072 3584 1716 3584 
Q 2034 3584 2315 3537 
Q 2597 3491 2834 3397 
z
" id="DejaVuSans-73" transform="scale(0.015625)"/>
      <path d="M 2375 4863 
L 2375 4384 
L 1825 4384 
Q 1516 4384 1395 4259 
Q 1275 4134 1275 3809 
L 1275 3500 
L 2222 3500 
L 2222 3053 
L 1275 3053 
L 1275 0 
L 697 0 
L 697 3053 
L 147 3053 
L 147 3500 
L 697 3500 
L 697 3744 
Q 697 4328 969 4595 
Q 1241 4863 1831 4863 
L 2375 4863 
z
" id="DejaVuSans-66" transform="scale(0.015625)"/>
      <path d="M 353 3500 
L 3084 3500 
L 3084 2975 
L 922 459 
L 3084 459 
L 3084 0 
L 275 0 
L 275 525 
L 2438 3041 
L 353 3041 
L 353 3500 
z
" id="DejaVuSans-7a" transform="scale(0.015625)"/>
      <path d="M 750 794 
L 1409 794 
L 1409 256 
L 897 -744 
L 494 -744 
L 750 256 
L 750 794 
z
" id="DejaVuSans-2c" transform="scale(0.015625)"/>
      <path d="M 603 4863 
L 1178 4863 
L 1178 0 
L 603 0 
L 603 4863 
z
" id="DejaVuSans-6c" transform="scale(0.015625)"/>
      <path d="M 1625 4666 
L 2156 4666 
L 531 -594 
L 0 -594 
L 1625 4666 
z
" id="DejaVuSans-2f" transform="scale(0.015625)"/>
     </defs>
     <use xlink:href="#DejaVuSans-67"/>
     <use x="63.476562" xlink:href="#DejaVuSans-72"/>
     <use x="102.339844" xlink:href="#DejaVuSans-6f"/>
     <use x="163.521484" xlink:href="#DejaVuSans-6b"/>
     <use x="221.431641" xlink:href="#DejaVuSans-5f"/>
     <use x="271.431641" xlink:href="#DejaVuSans-67"/>
     <use x="334.908203" xlink:href="#DejaVuSans-72"/>
     <use x="376.021484" xlink:href="#DejaVuSans-6b"/>
     <use x="433.931641" xlink:href="#DejaVuSans-5f"/>
     <use x="483.931641" xlink:href="#DejaVuSans-64"/>
     <use x="547.408203" xlink:href="#DejaVuSans-65"/>
     <use x="608.931641" xlink:href="#DejaVuSans-63"/>
     <use x="663.912109" xlink:href="#DejaVuSans-6f"/>
     <use x="725.09375" xlink:href="#DejaVuSans-6d"/>
     <use x="822.505859" xlink:href="#DejaVuSans-70"/>
     <use x="885.982422" xlink:href="#DejaVuSans-72"/>
     <use x="924.845703" xlink:href="#DejaVuSans-65"/>
     <use x="986.369141" xlink:href="#DejaVuSans-73"/>
     <use x="1038.46875" xlink:href="#DejaVuSans-73"/>
     <use x="1090.568359" xlink:href="#DejaVuSans-5f"/>
     <use x="1140.568359" xlink:href="#DejaVuSans-66"/>
     <use x="1175.773438" xlink:href="#DejaVuSans-75"/>
     <use x="1239.152344" xlink:href="#DejaVuSans-7a"/>
     <use x="1291.642578" xlink:href="#DejaVuSans-7a"/>
     <use x="1344.132812" xlink:href="#DejaVuSans-65"/>
     <use x="1405.65625" xlink:href="#DejaVuSans-72"/>
     <use x="1446.769531" xlink:href="#DejaVuSans-20"/>
     <use x="1478.556641" xlink:href="#DejaVuSans-28"/>
     <use x="1517.570312" xlink:href="#DejaVuSans-32"/>
     <use x="1581.193359" xlink:href="#DejaVuSans-33"/>
     <use x="1644.816406" xlink:href="#DejaVuSans-68"/>
     <use x="1708.195312" xlink:href="#DejaVuSans-2c"/>
     <use x="1739.982422" xlink:href="#DejaVuSans-20"/>
     <use x="1771.769531" xlink:href="#DejaVuSans-32"/>
     <use x="1835.392578" xlink:href="#DejaVuSans-30"/>
     <use x="1899.015625" xlink:href="#DejaVuSans-20"/>
     <use x="1930.802734" xlink:href="#DejaVuSans-74"/>
     <use x="1970.011719" xlink:href="#DejaVuSans-72"/>
     <use x="2011.125" xlink:href="#DejaVuSans-69"/>
     <use x="2038.908203" xlink:href="#DejaVuSans-61"/>
     <use x="2100.1875" xlink:href="#DejaVuSans-6c"/>
     <use x="2127.970703" xlink:href="#DejaVuSans-73"/>
     <use x="2180.070312" xlink:href="#DejaVuSans-2f"/>
     <use x="2213.761719" xlink:href="#DejaVuSans-66"/>
     <use x="2248.966797" xlink:href="#DejaVuSans-75"/>
     <use x="2312.345703" xlink:href="#DejaVuSans-7a"/>
     <use x="2364.835938" xlink:href="#DejaVuSans-7a"/>
     <use x="2417.326172" xlink:href="#DejaVuSans-65"/>
     <use x="2478.849609" xlink:href="#DejaVuSans-72"/>
     <use x="2519.962891" xlink:href="#DejaVuSans-29"/>
    </g>
   </g>
   <g id="legend_1">
    <g id="line2d_35">
     <path d="M 414.448125 30.416562 
L 434.448125 30.416562 
" style="fill:none;stroke:#98df8a;stroke-linecap:square;stroke-width:1.5;"/>
    </g>
    <g id="line2d_36">
     <defs>
      <path d="M -0 3 
L 3 -3 
L -3 -3 
z
" id="m4c623f9f1c" style="stroke:#98df8a;stroke-linejoin:miter;"/>
     </defs>
     <g>
      <use style="fill:#98df8a;stroke:#98df8a;stroke-linejoin:miter;" x="424.448125" xlink:href="#m4c623f9f1c" y="30.416562"/>
     </g>
    </g>
    <g id="text_17">
     <!-- afl_edges -->
     <g transform="translate(442.448125 33.916562)scale(0.1 -0.1)">
      <use xlink:href="#DejaVuSans-61"/>
      <use x="61.279297" xlink:href="#DejaVuSans-66"/>
      <use x="96.484375" xlink:href="#DejaVuSans-6c"/>
      <use x="124.267578" xlink:href="#DejaVuSans-5f"/>
      <use x="174.267578" xlink:href="#DejaVuSans-65"/>
      <use x="235.791016" xlink:href="#DejaVuSans-64"/>
      <use x="299.267578" xlink:href="#DejaVuSans-67"/>
      <use x="362.744141" xlink:href="#DejaVuSans-65"/>
      <use x="424.267578" xlink:href="#DejaVuSans-73"/>
     </g>
    </g>
    <g id="line2d_37">
     <path d="M 414.448125 45.372813 
L 434.448125 45.372813 
" style="fill:none;stroke:#1f77b4;stroke-linecap:square;stroke-width:1.5;"/>
    </g>
    <g id="line2d_38">
     <defs>
      <path d="M 0 3 
C 0.795609 3 1.55874 2.683901 2.12132 2.12132 
C 2.683901 1.55874 3 0.795609 3 0 
C 3 -0.795609 2.683901 -1.55874 2.12132 -2.12132 
C 1.55874 -2.683901 0.795609 -3 0 -3 
C -0.795609 -3 -1.55874 -2.683901 -2.12132 -2.12132 
C -2.683901 -1.55874 -3 -0.795609 -3 0 
C -3 0.795609 -2.683901 1.55874 -2.12132 2.12132 
C -1.55874 2.683901 -0.795609 3 0 3 
z
" id="m3a7b383c86" style="stroke:#1f77b4;"/>
     </defs>
     <g>
      <use style="fill:#1f77b4;stroke:#1f77b4;" x="424.448125" xlink:href="#m3a7b383c86" y="45.372813"/>
     </g>
    </g>
    <g id="text_18">
     <!-- afl -->
     <g transform="translate(442.448125 48.872813)scale(0.1 -0.1)">
      <use xlink:href="#DejaVuSans-61"/>
      <use x="61.279297" xlink:href="#DejaVuSans-66"/>
      <use x="96.484375" xlink:href="#DejaVuSans-6c"/>
     </g>
    </g>
   </g>
  </g>
 </g>
 <defs>
  <clipPath id="p765d051ce5">
   <rect height="266.112" width="357.12" x="53.328125" y="22.318125"/>
  </clipPath>
 </defs>
</svg>
