<?xml version="1.0" encoding="utf-8" standalone="no"?>
<!DOCTYPE svg PUBLIC "-//W3C//DTD SVG 1.1//EN"
  "http://www.w3.org/Graphics/SVG/1.1/DTD/svg11.dtd">
<svg height="325.986375pt" version="1.1" viewBox="0 0 507.649688 325.986375" width="507.649688pt" xmlns="http://www.w3.org/2000/svg" xmlns:xlink="http://www.w3.org/1999/xlink">
 <metadata>
  <rdf:RDF xmlns:cc="http://creativecommons.org/ns#" xmlns:dc="http://purl.org/dc/elements/1.1/" xmlns:rdf="http://www.w3.org/1999/02/22-rdf-syntax-ns#">
   <cc:Work>
    <dc:type rdf:resource="http://purl.org/dc/dcmitype/StillImage"/>
    <dc:date>2022-06-02T16:06:46.391296</dc:date>
    <dc:format>image/svg+xml</dc:format>
    <dc:creator>
     <cc:Agent>
      <dc:title>Matplotlib v3.4.3, https://matplotlib.org/</dc:title>
     </cc:Agent>
    </dc:creator>
   </cc:Work>
  </rdf:RDF>
 </metadata>
 <defs>
  <style type="text/css">*{stroke-linecap:butt;stroke-linejoin:round;}</style>
 </defs>
 <g id="figure_1">
  <g id="patch_1">
   <path d="M 0 325.986375 
L 507.649688 325.986375 
L 507.649688 0 
L 0 0 
z
" style="fill:#ffffff;"/>
  </g>
  <g id="axes_1">
   <g id="patch_2">
    <path d="M 59.690625 288.430125 
L 416.810625 288.430125 
L 416.810625 22.318125 
L 59.690625 22.318125 
z
" style="fill:#ffffff;"/>
   </g>
   <g id="PolyCollection_1">
    <defs>
     <path d="M 75.923352 -163.882213 
L 75.923352 -123.065364 
L 79.490985 -181.03101 
L 83.058617 -188.513848 
L 86.626249 -210.992474 
L 90.193882 -217.752623 
L 93.761514 -223.398628 
L 97.329146 -226.379718 
L 100.896779 -228.382168 
L 104.464411 -233.681884 
L 108.032044 -236.37691 
L 111.599676 -242.068083 
L 115.167308 -247.729143 
L 118.734941 -247.985095 
L 122.302573 -250.634954 
L 125.870205 -253.013803 
L 129.437838 -254.143004 
L 133.00547 -255.904558 
L 136.573103 -256.53691 
L 140.140735 -256.53691 
L 143.708367 -257.304767 
L 147.276 -257.470383 
L 150.843632 -260.436417 
L 154.411264 -260.91821 
L 157.978897 -261.911906 
L 161.546529 -262.950771 
L 165.114161 -263.67346 
L 168.681794 -264.516597 
L 172.249426 -265.028501 
L 175.817059 -265.118837 
L 179.384691 -266.473878 
L 182.952323 -266.57927 
L 186.519956 -266.774998 
L 190.087588 -267.220656 
L 193.65522 -267.241735 
L 197.222853 -267.301959 
L 200.790485 -268.310712 
L 204.358118 -268.521496 
L 207.92575 -268.521496 
L 211.493382 -268.907682 
L 215.061015 -269.214072 
L 218.628647 -269.4098 
L 222.196279 -269.304408 
L 225.763912 -270.012041 
L 229.331544 -269.846425 
L 232.899176 -269.846425 
L 236.466809 -270.313161 
L 240.034441 -269.906649 
L 243.602074 -271.397194 
L 247.169706 -271.457418 
L 250.737338 -271.592922 
L 254.304971 -271.683258 
L 257.872603 -271.878986 
L 261.440235 -272.511339 
L 265.007868 -272.912205 
L 268.5755 -272.119883 
L 272.143132 -272.92839 
L 275.710765 -272.451115 
L 279.278397 -273.188859 
L 282.84603 -273.444812 
L 286.413662 -273.550204 
L 289.981294 -273.550204 
L 293.548927 -273.695871 
L 297.116559 -274.583423 
L 300.684191 -274.649293 
L 304.251824 -274.423452 
L 307.819456 -275.311757 
L 311.387089 -275.206365 
L 314.954721 -275.417149 
L 318.522353 -275.492429 
L 322.089986 -275.582765 
L 325.657618 -277.103423 
L 329.22525 -277.253983 
L 332.792883 -277.931503 
L 336.360515 -277.946559 
L 339.928147 -278.488576 
L 343.49578 -278.488576 
L 347.063412 -278.533744 
L 350.631045 -278.609024 
L 354.198677 -278.654192 
L 357.766309 -279.843617 
L 361.333942 -279.903841 
L 364.901574 -279.994177 
L 368.469206 -280.039345 
L 372.036839 -280.129681 
L 375.604471 -280.144737 
L 379.172104 -280.761281 
L 382.739736 -281.085738 
L 386.307368 -280.942706 
L 389.875001 -280.942706 
L 393.442633 -281.093266 
L 397.010265 -281.108322 
L 400.577898 -281.550968 
L 400.577898 -289.810697 
L 400.577898 -289.810697 
L 397.010265 -290.623721 
L 393.442633 -289.223512 
L 389.875001 -289.163288 
L 386.307368 -288.817 
L 382.739736 -288.817 
L 379.172104 -288.756776 
L 375.604471 -288.756776 
L 372.036839 -288.594924 
L 368.469206 -287.281287 
L 364.901574 -287.070502 
L 361.333942 -286.950054 
L 357.766309 -286.51343 
L 354.198677 -286.483318 
L 350.631045 -286.454712 
L 347.063412 -285.775685 
L 343.49578 -285.775685 
L 339.928147 -285.444453 
L 336.360515 -285.158389 
L 332.792883 -285.685349 
L 329.22525 -284.646485 
L 325.657618 -285.083109 
L 322.089986 -285.083109 
L 318.522353 -285.272062 
L 314.954721 -285.081227 
L 311.387089 -284.51098 
L 307.819456 -284.450756 
L 304.251824 -284.405588 
L 300.684191 -285.444453 
L 297.116559 -284.224916 
L 293.548927 -284.149636 
L 289.981294 -284.175984 
L 286.413662 -283.938852 
L 282.84603 -284.330308 
L 279.278397 -283.366723 
L 275.710765 -283.366723 
L 272.143132 -282.312803 
L 268.5755 -282.132131 
L 265.007868 -282.132131 
L 261.440235 -282.071906 
L 257.872603 -281.728253 
L 254.304971 -281.725618 
L 250.737338 -281.635282 
L 247.169706 -281.138434 
L 243.602074 -281.017986 
L 240.034441 -280.536193 
L 236.466809 -280.340465 
L 232.899176 -280.837313 
L 229.331544 -279.632833 
L 225.763912 -279.755915 
L 222.196279 -279.07576 
L 218.628647 -278.69936 
L 215.061015 -278.639136 
L 211.493382 -278.277791 
L 207.92575 -278.552564 
L 204.358118 -276.77219 
L 200.790485 -276.772943 
L 197.222853 -276.742078 
L 193.65522 -276.380734 
L 190.087588 -276.742078 
L 186.519956 -275.206365 
L 182.952323 -275.763437 
L 179.384691 -274.814909 
L 175.817059 -274.935357 
L 172.249426 -274.905245 
L 168.681794 -274.513788 
L 165.114161 -273.881436 
L 161.546529 -273.851324 
L 157.978897 -272.055518 
L 154.411264 -271.954266 
L 150.843632 -271.33697 
L 147.276 -271.141242 
L 143.708367 -270.930458 
L 140.140735 -270.523945 
L 136.573103 -265.148949 
L 133.00547 -264.652101 
L 129.437838 -264.215476 
L 125.870205 -264.667157 
L 122.302573 -263.718628 
L 118.734941 -259.300065 
L 115.167308 -259.051264 
L 111.599676 -258.53936 
L 108.032044 -255.166813 
L 104.464411 -252.035163 
L 100.896779 -247.187127 
L 97.329146 -243.393012 
L 93.761514 -241.224946 
L 90.193882 -232.372011 
L 86.626249 -222.540435 
L 83.058617 -215.569502 
L 79.490985 -206.294998 
L 75.923352 -163.882213 
z
" id="m0c2b6a7b35" style="stroke:#98df8a;stroke-opacity:0.2;"/>
    </defs>
    <g clip-path="url(#p3911711c67)">
     <use style="fill:#98df8a;fill-opacity:0.2;stroke:#98df8a;stroke-opacity:0.2;" x="0" xlink:href="#m0c2b6a7b35" y="325.986375"/>
    </g>
   </g>
   <g id="PolyCollection_2">
    <defs>
     <path d="M 75.923352 -89.580794 
L 75.923352 -49.65225 
L 79.490985 -102.724692 
L 83.058617 -137.57936 
L 86.626249 -164.996358 
L 90.193882 -181.798867 
L 93.761514 -186.857687 
L 97.329146 -189.356985 
L 100.896779 -190.200122 
L 104.464411 -192.157403 
L 108.032044 -194.491085 
L 111.599676 -194.987933 
L 115.167308 -197.411951 
L 118.734941 -199.098225 
L 122.302573 -201.41685 
L 125.870205 -202.335267 
L 129.437838 -205.230538 
L 133.00547 -216.683647 
L 136.573103 -224.091204 
L 140.140735 -225.476358 
L 143.708367 -226.454998 
L 147.276 -226.966903 
L 150.843632 -228.050936 
L 154.411264 -228.050936 
L 157.978897 -228.879016 
L 161.546529 -234.765917 
L 165.114161 -236.15107 
L 168.681794 -239.102048 
L 172.249426 -243.724244 
L 175.817059 -244.326485 
L 179.384691 -244.401765 
L 182.952323 -247.488247 
L 186.519956 -247.503303 
L 190.087588 -247.081735 
L 193.65522 -248.105544 
L 197.222853 -250.394057 
L 200.790485 -251.869546 
L 204.358118 -254.067724 
L 207.92575 -257.937119 
L 211.493382 -258.25593 
L 215.061015 -261.565618 
L 218.628647 -264.597523 
L 222.196279 -265.796358 
L 225.763912 -266.172758 
L 229.331544 -266.304874 
L 232.899176 -268.009591 
L 236.466809 -267.753639 
L 240.034441 -268.446216 
L 243.602074 -268.190263 
L 247.169706 -268.822616 
L 250.737338 -268.762392 
L 254.304971 -268.58172 
L 257.872603 -269.048456 
L 261.440235 -268.822616 
L 265.007868 -269.063512 
L 268.5755 -269.4098 
L 272.143132 -269.996985 
L 275.710765 -270.444148 
L 279.278397 -270.584169 
L 282.84603 -270.584169 
L 286.413662 -270.629337 
L 289.981294 -270.629337 
L 293.548927 -271.246634 
L 297.116559 -271.273358 
L 300.684191 -271.984378 
L 304.251824 -272.737179 
L 307.819456 -272.912582 
L 311.387089 -273.023243 
L 314.954721 -273.384588 
L 318.522353 -274.050816 
L 322.089986 -274.212668 
L 325.657618 -274.212668 
L 329.22525 -274.212668 
L 332.792883 -274.845021 
L 336.360515 -274.980525 
L 339.928147 -274.965469 
L 343.49578 -275.281645 
L 347.063412 -275.296701 
L 350.631045 -275.371981 
L 354.198677 -275.371981 
L 357.766309 -275.989278 
L 361.333942 -275.989278 
L 364.901574 -274.965469 
L 368.469206 -276.09467 
L 372.036839 -275.176253 
L 375.604471 -276.335566 
L 379.172104 -275.387037 
L 382.739736 -276.350622 
L 386.307368 -276.350622 
L 389.875001 -276.47107 
L 393.442633 -276.576462 
L 397.010265 -276.832414 
L 400.577898 -276.651742 
L 400.577898 -291.57225 
L 400.577898 -291.57225 
L 397.010265 -291.481914 
L 393.442633 -291.527082 
L 389.875001 -291.286186 
L 386.307368 -290.744169 
L 382.739736 -290.804393 
L 379.172104 -290.804393 
L 375.604471 -290.789337 
L 372.036839 -290.729113 
L 368.469206 -290.729113 
L 364.901574 -290.548441 
L 361.333942 -291.466858 
L 357.766309 -290.503273 
L 354.198677 -291.466858 
L 350.631045 -290.382825 
L 347.063412 -290.367769 
L 343.49578 -290.337657 
L 339.928147 -290.336528 
L 336.360515 -290.277433 
L 332.792883 -290.036537 
L 329.22525 -290.021481 
L 325.657618 -290.021481 
L 322.089986 -290.021481 
L 318.522353 -290.006425 
L 314.954721 -290.006425 
L 311.387089 -291.256074 
L 307.819456 -289.946201 
L 304.251824 -291.165738 
L 300.684191 -291.075402 
L 297.116559 -288.425544 
L 293.548927 -288.365319 
L 289.981294 -286.197254 
L 286.413662 -285.790741 
L 282.84603 -287.552295 
L 279.278397 -285.399285 
L 275.710765 -285.233669 
L 272.143132 -285.233669 
L 268.5755 -285.218613 
L 265.007868 -285.203557 
L 261.440235 -285.052997 
L 257.872603 -284.962661 
L 254.304971 -284.917493 
L 250.737338 -280.822257 
L 247.169706 -279.00048 
L 243.602074 -278.940256 
L 240.034441 -278.69936 
L 236.466809 -279.903841 
L 232.899176 -276.892638 
L 229.331544 -274.24278 
L 225.763912 -272.767291 
L 222.196279 -272.661899 
L 218.628647 -273.821212 
L 215.061015 -272.104827 
L 211.493382 -271.653146 
L 207.92575 -269.439912 
L 204.358118 -269.635641 
L 200.790485 -269.078568 
L 197.222853 -268.657 
L 193.65522 -269.153848 
L 190.087588 -266.443766 
L 186.519956 -269.063512 
L 182.952323 -266.20287 
L 179.384691 -266.12759 
L 175.817059 -265.224229 
L 172.249426 -264.411204 
L 168.681794 -262.920659 
L 165.114161 -262.905603 
L 161.546529 -262.785155 
L 157.978897 -262.363587 
L 154.411264 -261.942018 
L 150.843632 -260.120241 
L 147.276 -259.06632 
L 143.708367 -257.876895 
L 140.140735 -255.889502 
L 136.573103 -255.136701 
L 133.00547 -255.031309 
L 129.437838 -254.790413 
L 125.870205 -253.587814 
L 122.302573 -251.824378 
L 118.734941 -249.912265 
L 115.167308 -245.335237 
L 111.599676 -240.878658 
L 108.032044 -237.837343 
L 104.464411 -237.987903 
L 100.896779 -231.31809 
L 97.329146 -228.020824 
L 93.761514 -219.507778 
L 90.193882 -211.925947 
L 86.626249 -200.152145 
L 83.058617 -182.325827 
L 79.490985 -146.537687 
L 75.923352 -89.580794 
z
" id="mb4d7ed4575" style="stroke:#1f77b4;stroke-opacity:0.2;"/>
    </defs>
    <g clip-path="url(#p3911711c67)">
     <use style="fill:#1f77b4;fill-opacity:0.2;stroke:#1f77b4;stroke-opacity:0.2;" x="0" xlink:href="#mb4d7ed4575" y="325.986375"/>
    </g>
   </g>
   <g id="matplotlib.axis_1">
    <g id="xtick_1">
     <g id="line2d_1">
      <defs>
       <path d="M 0 0 
L 0 3.5 
" id="m66366b3d10" style="stroke:#000000;stroke-width:0.8;"/>
      </defs>
      <g>
       <use style="stroke:#000000;stroke-width:0.8;" x="75.923352" xlink:href="#m66366b3d10" y="288.430125"/>
      </g>
     </g>
     <g id="text_1">
      <!-- 15m -->
      <g transform="translate(64.69054 303.028562)scale(0.1 -0.1)">
       <defs>
        <path d="M 794 531 
L 1825 531 
L 1825 4091 
L 703 3866 
L 703 4441 
L 1819 4666 
L 2450 4666 
L 2450 531 
L 3481 531 
L 3481 0 
L 794 0 
L 794 531 
z
" id="DejaVuSans-31" transform="scale(0.015625)"/>
        <path d="M 691 4666 
L 3169 4666 
L 3169 4134 
L 1269 4134 
L 1269 2991 
Q 1406 3038 1543 3061 
Q 1681 3084 1819 3084 
Q 2600 3084 3056 2656 
Q 3513 2228 3513 1497 
Q 3513 744 3044 326 
Q 2575 -91 1722 -91 
Q 1428 -91 1123 -41 
Q 819 9 494 109 
L 494 744 
Q 775 591 1075 516 
Q 1375 441 1709 441 
Q 2250 441 2565 725 
Q 2881 1009 2881 1497 
Q 2881 1984 2565 2268 
Q 2250 2553 1709 2553 
Q 1456 2553 1204 2497 
Q 953 2441 691 2322 
L 691 4666 
z
" id="DejaVuSans-35" transform="scale(0.015625)"/>
        <path d="M 3328 2828 
Q 3544 3216 3844 3400 
Q 4144 3584 4550 3584 
Q 5097 3584 5394 3201 
Q 5691 2819 5691 2113 
L 5691 0 
L 5113 0 
L 5113 2094 
Q 5113 2597 4934 2840 
Q 4756 3084 4391 3084 
Q 3944 3084 3684 2787 
Q 3425 2491 3425 1978 
L 3425 0 
L 2847 0 
L 2847 2094 
Q 2847 2600 2669 2842 
Q 2491 3084 2119 3084 
Q 1678 3084 1418 2786 
Q 1159 2488 1159 1978 
L 1159 0 
L 581 0 
L 581 3500 
L 1159 3500 
L 1159 2956 
Q 1356 3278 1631 3431 
Q 1906 3584 2284 3584 
Q 2666 3584 2933 3390 
Q 3200 3197 3328 2828 
z
" id="DejaVuSans-6d" transform="scale(0.015625)"/>
       </defs>
       <use xlink:href="#DejaVuSans-31"/>
       <use x="63.623047" xlink:href="#DejaVuSans-35"/>
       <use x="127.246094" xlink:href="#DejaVuSans-6d"/>
      </g>
     </g>
    </g>
    <g id="xtick_2">
     <g id="line2d_2">
      <g>
       <use style="stroke:#000000;stroke-width:0.8;" x="130.627049" xlink:href="#m66366b3d10" y="288.430125"/>
      </g>
     </g>
     <g id="text_2">
      <!-- 4h:5m -->
      <g transform="translate(114.541111 303.028562)scale(0.1 -0.1)">
       <defs>
        <path d="M 2419 4116 
L 825 1625 
L 2419 1625 
L 2419 4116 
z
M 2253 4666 
L 3047 4666 
L 3047 1625 
L 3713 1625 
L 3713 1100 
L 3047 1100 
L 3047 0 
L 2419 0 
L 2419 1100 
L 313 1100 
L 313 1709 
L 2253 4666 
z
" id="DejaVuSans-34" transform="scale(0.015625)"/>
        <path d="M 3513 2113 
L 3513 0 
L 2938 0 
L 2938 2094 
Q 2938 2591 2744 2837 
Q 2550 3084 2163 3084 
Q 1697 3084 1428 2787 
Q 1159 2491 1159 1978 
L 1159 0 
L 581 0 
L 581 4863 
L 1159 4863 
L 1159 2956 
Q 1366 3272 1645 3428 
Q 1925 3584 2291 3584 
Q 2894 3584 3203 3211 
Q 3513 2838 3513 2113 
z
" id="DejaVuSans-68" transform="scale(0.015625)"/>
        <path d="M 750 794 
L 1409 794 
L 1409 0 
L 750 0 
L 750 794 
z
M 750 3309 
L 1409 3309 
L 1409 2516 
L 750 2516 
L 750 3309 
z
" id="DejaVuSans-3a" transform="scale(0.015625)"/>
       </defs>
       <use xlink:href="#DejaVuSans-34"/>
       <use x="63.623047" xlink:href="#DejaVuSans-68"/>
       <use x="127.001953" xlink:href="#DejaVuSans-3a"/>
       <use x="160.693359" xlink:href="#DejaVuSans-35"/>
       <use x="224.316406" xlink:href="#DejaVuSans-6d"/>
      </g>
     </g>
    </g>
    <g id="xtick_3">
     <g id="line2d_3">
      <g>
       <use style="stroke:#000000;stroke-width:0.8;" x="185.330745" xlink:href="#m66366b3d10" y="288.430125"/>
      </g>
     </g>
     <g id="text_3">
      <!-- 7h:55m -->
      <g transform="translate(166.063557 303.028562)scale(0.1 -0.1)">
       <defs>
        <path d="M 525 4666 
L 3525 4666 
L 3525 4397 
L 1831 0 
L 1172 0 
L 2766 4134 
L 525 4134 
L 525 4666 
z
" id="DejaVuSans-37" transform="scale(0.015625)"/>
       </defs>
       <use xlink:href="#DejaVuSans-37"/>
       <use x="63.623047" xlink:href="#DejaVuSans-68"/>
       <use x="127.001953" xlink:href="#DejaVuSans-3a"/>
       <use x="160.693359" xlink:href="#DejaVuSans-35"/>
       <use x="224.316406" xlink:href="#DejaVuSans-35"/>
       <use x="287.939453" xlink:href="#DejaVuSans-6d"/>
      </g>
     </g>
    </g>
    <g id="xtick_4">
     <g id="line2d_4">
      <g>
       <use style="stroke:#000000;stroke-width:0.8;" x="240.034441" xlink:href="#m66366b3d10" y="288.430125"/>
      </g>
     </g>
     <g id="text_4">
      <!-- 11h:45m -->
      <g transform="translate(217.586004 303.028562)scale(0.1 -0.1)">
       <use xlink:href="#DejaVuSans-31"/>
       <use x="63.623047" xlink:href="#DejaVuSans-31"/>
       <use x="127.246094" xlink:href="#DejaVuSans-68"/>
       <use x="190.625" xlink:href="#DejaVuSans-3a"/>
       <use x="224.316406" xlink:href="#DejaVuSans-34"/>
       <use x="287.939453" xlink:href="#DejaVuSans-35"/>
       <use x="351.5625" xlink:href="#DejaVuSans-6d"/>
      </g>
     </g>
    </g>
    <g id="xtick_5">
     <g id="line2d_5">
      <g>
       <use style="stroke:#000000;stroke-width:0.8;" x="294.738137" xlink:href="#m66366b3d10" y="288.430125"/>
      </g>
     </g>
     <g id="text_5">
      <!-- 15h:35m -->
      <g transform="translate(272.2897 303.028562)scale(0.1 -0.1)">
       <defs>
        <path d="M 2597 2516 
Q 3050 2419 3304 2112 
Q 3559 1806 3559 1356 
Q 3559 666 3084 287 
Q 2609 -91 1734 -91 
Q 1441 -91 1130 -33 
Q 819 25 488 141 
L 488 750 
Q 750 597 1062 519 
Q 1375 441 1716 441 
Q 2309 441 2620 675 
Q 2931 909 2931 1356 
Q 2931 1769 2642 2001 
Q 2353 2234 1838 2234 
L 1294 2234 
L 1294 2753 
L 1863 2753 
Q 2328 2753 2575 2939 
Q 2822 3125 2822 3475 
Q 2822 3834 2567 4026 
Q 2313 4219 1838 4219 
Q 1578 4219 1281 4162 
Q 984 4106 628 3988 
L 628 4550 
Q 988 4650 1302 4700 
Q 1616 4750 1894 4750 
Q 2613 4750 3031 4423 
Q 3450 4097 3450 3541 
Q 3450 3153 3228 2886 
Q 3006 2619 2597 2516 
z
" id="DejaVuSans-33" transform="scale(0.015625)"/>
       </defs>
       <use xlink:href="#DejaVuSans-31"/>
       <use x="63.623047" xlink:href="#DejaVuSans-35"/>
       <use x="127.246094" xlink:href="#DejaVuSans-68"/>
       <use x="190.625" xlink:href="#DejaVuSans-3a"/>
       <use x="224.316406" xlink:href="#DejaVuSans-33"/>
       <use x="287.939453" xlink:href="#DejaVuSans-35"/>
       <use x="351.5625" xlink:href="#DejaVuSans-6d"/>
      </g>
     </g>
    </g>
    <g id="xtick_6">
     <g id="line2d_6">
      <g>
       <use style="stroke:#000000;stroke-width:0.8;" x="349.441834" xlink:href="#m66366b3d10" y="288.430125"/>
      </g>
     </g>
     <g id="text_6">
      <!-- 19h:25m -->
      <g transform="translate(326.993396 303.028562)scale(0.1 -0.1)">
       <defs>
        <path d="M 703 97 
L 703 672 
Q 941 559 1184 500 
Q 1428 441 1663 441 
Q 2288 441 2617 861 
Q 2947 1281 2994 2138 
Q 2813 1869 2534 1725 
Q 2256 1581 1919 1581 
Q 1219 1581 811 2004 
Q 403 2428 403 3163 
Q 403 3881 828 4315 
Q 1253 4750 1959 4750 
Q 2769 4750 3195 4129 
Q 3622 3509 3622 2328 
Q 3622 1225 3098 567 
Q 2575 -91 1691 -91 
Q 1453 -91 1209 -44 
Q 966 3 703 97 
z
M 1959 2075 
Q 2384 2075 2632 2365 
Q 2881 2656 2881 3163 
Q 2881 3666 2632 3958 
Q 2384 4250 1959 4250 
Q 1534 4250 1286 3958 
Q 1038 3666 1038 3163 
Q 1038 2656 1286 2365 
Q 1534 2075 1959 2075 
z
" id="DejaVuSans-39" transform="scale(0.015625)"/>
        <path d="M 1228 531 
L 3431 531 
L 3431 0 
L 469 0 
L 469 531 
Q 828 903 1448 1529 
Q 2069 2156 2228 2338 
Q 2531 2678 2651 2914 
Q 2772 3150 2772 3378 
Q 2772 3750 2511 3984 
Q 2250 4219 1831 4219 
Q 1534 4219 1204 4116 
Q 875 4013 500 3803 
L 500 4441 
Q 881 4594 1212 4672 
Q 1544 4750 1819 4750 
Q 2544 4750 2975 4387 
Q 3406 4025 3406 3419 
Q 3406 3131 3298 2873 
Q 3191 2616 2906 2266 
Q 2828 2175 2409 1742 
Q 1991 1309 1228 531 
z
" id="DejaVuSans-32" transform="scale(0.015625)"/>
       </defs>
       <use xlink:href="#DejaVuSans-31"/>
       <use x="63.623047" xlink:href="#DejaVuSans-39"/>
       <use x="127.246094" xlink:href="#DejaVuSans-68"/>
       <use x="190.625" xlink:href="#DejaVuSans-3a"/>
       <use x="224.316406" xlink:href="#DejaVuSans-32"/>
       <use x="287.939453" xlink:href="#DejaVuSans-35"/>
       <use x="351.5625" xlink:href="#DejaVuSans-6d"/>
      </g>
     </g>
    </g>
    <g id="text_7">
     <!-- Time (hour:minute) -->
     <g transform="translate(189.843594 316.706687)scale(0.1 -0.1)">
      <defs>
       <path d="M -19 4666 
L 3928 4666 
L 3928 4134 
L 2272 4134 
L 2272 0 
L 1638 0 
L 1638 4134 
L -19 4134 
L -19 4666 
z
" id="DejaVuSans-54" transform="scale(0.015625)"/>
       <path d="M 603 3500 
L 1178 3500 
L 1178 0 
L 603 0 
L 603 3500 
z
M 603 4863 
L 1178 4863 
L 1178 4134 
L 603 4134 
L 603 4863 
z
" id="DejaVuSans-69" transform="scale(0.015625)"/>
       <path d="M 3597 1894 
L 3597 1613 
L 953 1613 
Q 991 1019 1311 708 
Q 1631 397 2203 397 
Q 2534 397 2845 478 
Q 3156 559 3463 722 
L 3463 178 
Q 3153 47 2828 -22 
Q 2503 -91 2169 -91 
Q 1331 -91 842 396 
Q 353 884 353 1716 
Q 353 2575 817 3079 
Q 1281 3584 2069 3584 
Q 2775 3584 3186 3129 
Q 3597 2675 3597 1894 
z
M 3022 2063 
Q 3016 2534 2758 2815 
Q 2500 3097 2075 3097 
Q 1594 3097 1305 2825 
Q 1016 2553 972 2059 
L 3022 2063 
z
" id="DejaVuSans-65" transform="scale(0.015625)"/>
       <path id="DejaVuSans-20" transform="scale(0.015625)"/>
       <path d="M 1984 4856 
Q 1566 4138 1362 3434 
Q 1159 2731 1159 2009 
Q 1159 1288 1364 580 
Q 1569 -128 1984 -844 
L 1484 -844 
Q 1016 -109 783 600 
Q 550 1309 550 2009 
Q 550 2706 781 3412 
Q 1013 4119 1484 4856 
L 1984 4856 
z
" id="DejaVuSans-28" transform="scale(0.015625)"/>
       <path d="M 1959 3097 
Q 1497 3097 1228 2736 
Q 959 2375 959 1747 
Q 959 1119 1226 758 
Q 1494 397 1959 397 
Q 2419 397 2687 759 
Q 2956 1122 2956 1747 
Q 2956 2369 2687 2733 
Q 2419 3097 1959 3097 
z
M 1959 3584 
Q 2709 3584 3137 3096 
Q 3566 2609 3566 1747 
Q 3566 888 3137 398 
Q 2709 -91 1959 -91 
Q 1206 -91 779 398 
Q 353 888 353 1747 
Q 353 2609 779 3096 
Q 1206 3584 1959 3584 
z
" id="DejaVuSans-6f" transform="scale(0.015625)"/>
       <path d="M 544 1381 
L 544 3500 
L 1119 3500 
L 1119 1403 
Q 1119 906 1312 657 
Q 1506 409 1894 409 
Q 2359 409 2629 706 
Q 2900 1003 2900 1516 
L 2900 3500 
L 3475 3500 
L 3475 0 
L 2900 0 
L 2900 538 
Q 2691 219 2414 64 
Q 2138 -91 1772 -91 
Q 1169 -91 856 284 
Q 544 659 544 1381 
z
M 1991 3584 
L 1991 3584 
z
" id="DejaVuSans-75" transform="scale(0.015625)"/>
       <path d="M 2631 2963 
Q 2534 3019 2420 3045 
Q 2306 3072 2169 3072 
Q 1681 3072 1420 2755 
Q 1159 2438 1159 1844 
L 1159 0 
L 581 0 
L 581 3500 
L 1159 3500 
L 1159 2956 
Q 1341 3275 1631 3429 
Q 1922 3584 2338 3584 
Q 2397 3584 2469 3576 
Q 2541 3569 2628 3553 
L 2631 2963 
z
" id="DejaVuSans-72" transform="scale(0.015625)"/>
       <path d="M 3513 2113 
L 3513 0 
L 2938 0 
L 2938 2094 
Q 2938 2591 2744 2837 
Q 2550 3084 2163 3084 
Q 1697 3084 1428 2787 
Q 1159 2491 1159 1978 
L 1159 0 
L 581 0 
L 581 3500 
L 1159 3500 
L 1159 2956 
Q 1366 3272 1645 3428 
Q 1925 3584 2291 3584 
Q 2894 3584 3203 3211 
Q 3513 2838 3513 2113 
z
" id="DejaVuSans-6e" transform="scale(0.015625)"/>
       <path d="M 1172 4494 
L 1172 3500 
L 2356 3500 
L 2356 3053 
L 1172 3053 
L 1172 1153 
Q 1172 725 1289 603 
Q 1406 481 1766 481 
L 2356 481 
L 2356 0 
L 1766 0 
Q 1100 0 847 248 
Q 594 497 594 1153 
L 594 3053 
L 172 3053 
L 172 3500 
L 594 3500 
L 594 4494 
L 1172 4494 
z
" id="DejaVuSans-74" transform="scale(0.015625)"/>
       <path d="M 513 4856 
L 1013 4856 
Q 1481 4119 1714 3412 
Q 1947 2706 1947 2009 
Q 1947 1309 1714 600 
Q 1481 -109 1013 -844 
L 513 -844 
Q 928 -128 1133 580 
Q 1338 1288 1338 2009 
Q 1338 2731 1133 3434 
Q 928 4138 513 4856 
z
" id="DejaVuSans-29" transform="scale(0.015625)"/>
      </defs>
      <use xlink:href="#DejaVuSans-54"/>
      <use x="57.958984" xlink:href="#DejaVuSans-69"/>
      <use x="85.742188" xlink:href="#DejaVuSans-6d"/>
      <use x="183.154297" xlink:href="#DejaVuSans-65"/>
      <use x="244.677734" xlink:href="#DejaVuSans-20"/>
      <use x="276.464844" xlink:href="#DejaVuSans-28"/>
      <use x="315.478516" xlink:href="#DejaVuSans-68"/>
      <use x="378.857422" xlink:href="#DejaVuSans-6f"/>
      <use x="440.039062" xlink:href="#DejaVuSans-75"/>
      <use x="503.417969" xlink:href="#DejaVuSans-72"/>
      <use x="542.78125" xlink:href="#DejaVuSans-3a"/>
      <use x="576.472656" xlink:href="#DejaVuSans-6d"/>
      <use x="673.884766" xlink:href="#DejaVuSans-69"/>
      <use x="701.667969" xlink:href="#DejaVuSans-6e"/>
      <use x="765.046875" xlink:href="#DejaVuSans-75"/>
      <use x="828.425781" xlink:href="#DejaVuSans-74"/>
      <use x="867.634766" xlink:href="#DejaVuSans-65"/>
      <use x="929.158203" xlink:href="#DejaVuSans-29"/>
     </g>
    </g>
   </g>
   <g id="matplotlib.axis_2">
    <g id="ytick_1">
     <g id="line2d_7">
      <defs>
       <path d="M 0 0 
L -3.5 0 
" id="m6139a8c692" style="stroke:#000000;stroke-width:0.8;"/>
      </defs>
      <g>
       <use style="stroke:#000000;stroke-width:0.8;" x="59.690625" xlink:href="#m6139a8c692" y="268.00815"/>
      </g>
     </g>
     <g id="text_8">
      <!-- 13000 -->
      <g transform="translate(20.878125 271.807369)scale(0.1 -0.1)">
       <defs>
        <path d="M 2034 4250 
Q 1547 4250 1301 3770 
Q 1056 3291 1056 2328 
Q 1056 1369 1301 889 
Q 1547 409 2034 409 
Q 2525 409 2770 889 
Q 3016 1369 3016 2328 
Q 3016 3291 2770 3770 
Q 2525 4250 2034 4250 
z
M 2034 4750 
Q 2819 4750 3233 4129 
Q 3647 3509 3647 2328 
Q 3647 1150 3233 529 
Q 2819 -91 2034 -91 
Q 1250 -91 836 529 
Q 422 1150 422 2328 
Q 422 3509 836 4129 
Q 1250 4750 2034 4750 
z
" id="DejaVuSans-30" transform="scale(0.015625)"/>
       </defs>
       <use xlink:href="#DejaVuSans-31"/>
       <use x="63.623047" xlink:href="#DejaVuSans-33"/>
       <use x="127.246094" xlink:href="#DejaVuSans-30"/>
       <use x="190.869141" xlink:href="#DejaVuSans-30"/>
       <use x="254.492188" xlink:href="#DejaVuSans-30"/>
      </g>
     </g>
    </g>
    <g id="ytick_2">
     <g id="line2d_8">
      <g>
       <use style="stroke:#000000;stroke-width:0.8;" x="59.690625" xlink:href="#m6139a8c692" y="237.896126"/>
      </g>
     </g>
     <g id="text_9">
      <!-- 14000 -->
      <g transform="translate(20.878125 241.695345)scale(0.1 -0.1)">
       <use xlink:href="#DejaVuSans-31"/>
       <use x="63.623047" xlink:href="#DejaVuSans-34"/>
       <use x="127.246094" xlink:href="#DejaVuSans-30"/>
       <use x="190.869141" xlink:href="#DejaVuSans-30"/>
       <use x="254.492188" xlink:href="#DejaVuSans-30"/>
      </g>
     </g>
    </g>
    <g id="ytick_3">
     <g id="line2d_9">
      <g>
       <use style="stroke:#000000;stroke-width:0.8;" x="59.690625" xlink:href="#m6139a8c692" y="207.784103"/>
      </g>
     </g>
     <g id="text_10">
      <!-- 15000 -->
      <g transform="translate(20.878125 211.583321)scale(0.1 -0.1)">
       <use xlink:href="#DejaVuSans-31"/>
       <use x="63.623047" xlink:href="#DejaVuSans-35"/>
       <use x="127.246094" xlink:href="#DejaVuSans-30"/>
       <use x="190.869141" xlink:href="#DejaVuSans-30"/>
       <use x="254.492188" xlink:href="#DejaVuSans-30"/>
      </g>
     </g>
    </g>
    <g id="ytick_4">
     <g id="line2d_10">
      <g>
       <use style="stroke:#000000;stroke-width:0.8;" x="59.690625" xlink:href="#m6139a8c692" y="177.672079"/>
      </g>
     </g>
     <g id="text_11">
      <!-- 16000 -->
      <g transform="translate(20.878125 181.471297)scale(0.1 -0.1)">
       <defs>
        <path d="M 2113 2584 
Q 1688 2584 1439 2293 
Q 1191 2003 1191 1497 
Q 1191 994 1439 701 
Q 1688 409 2113 409 
Q 2538 409 2786 701 
Q 3034 994 3034 1497 
Q 3034 2003 2786 2293 
Q 2538 2584 2113 2584 
z
M 3366 4563 
L 3366 3988 
Q 3128 4100 2886 4159 
Q 2644 4219 2406 4219 
Q 1781 4219 1451 3797 
Q 1122 3375 1075 2522 
Q 1259 2794 1537 2939 
Q 1816 3084 2150 3084 
Q 2853 3084 3261 2657 
Q 3669 2231 3669 1497 
Q 3669 778 3244 343 
Q 2819 -91 2113 -91 
Q 1303 -91 875 529 
Q 447 1150 447 2328 
Q 447 3434 972 4092 
Q 1497 4750 2381 4750 
Q 2619 4750 2861 4703 
Q 3103 4656 3366 4563 
z
" id="DejaVuSans-36" transform="scale(0.015625)"/>
       </defs>
       <use xlink:href="#DejaVuSans-31"/>
       <use x="63.623047" xlink:href="#DejaVuSans-36"/>
       <use x="127.246094" xlink:href="#DejaVuSans-30"/>
       <use x="190.869141" xlink:href="#DejaVuSans-30"/>
       <use x="254.492188" xlink:href="#DejaVuSans-30"/>
      </g>
     </g>
    </g>
    <g id="ytick_5">
     <g id="line2d_11">
      <g>
       <use style="stroke:#000000;stroke-width:0.8;" x="59.690625" xlink:href="#m6139a8c692" y="147.560055"/>
      </g>
     </g>
     <g id="text_12">
      <!-- 17000 -->
      <g transform="translate(20.878125 151.359274)scale(0.1 -0.1)">
       <use xlink:href="#DejaVuSans-31"/>
       <use x="63.623047" xlink:href="#DejaVuSans-37"/>
       <use x="127.246094" xlink:href="#DejaVuSans-30"/>
       <use x="190.869141" xlink:href="#DejaVuSans-30"/>
       <use x="254.492188" xlink:href="#DejaVuSans-30"/>
      </g>
     </g>
    </g>
    <g id="ytick_6">
     <g id="line2d_12">
      <g>
       <use style="stroke:#000000;stroke-width:0.8;" x="59.690625" xlink:href="#m6139a8c692" y="117.448031"/>
      </g>
     </g>
     <g id="text_13">
      <!-- 18000 -->
      <g transform="translate(20.878125 121.24725)scale(0.1 -0.1)">
       <defs>
        <path d="M 2034 2216 
Q 1584 2216 1326 1975 
Q 1069 1734 1069 1313 
Q 1069 891 1326 650 
Q 1584 409 2034 409 
Q 2484 409 2743 651 
Q 3003 894 3003 1313 
Q 3003 1734 2745 1975 
Q 2488 2216 2034 2216 
z
M 1403 2484 
Q 997 2584 770 2862 
Q 544 3141 544 3541 
Q 544 4100 942 4425 
Q 1341 4750 2034 4750 
Q 2731 4750 3128 4425 
Q 3525 4100 3525 3541 
Q 3525 3141 3298 2862 
Q 3072 2584 2669 2484 
Q 3125 2378 3379 2068 
Q 3634 1759 3634 1313 
Q 3634 634 3220 271 
Q 2806 -91 2034 -91 
Q 1263 -91 848 271 
Q 434 634 434 1313 
Q 434 1759 690 2068 
Q 947 2378 1403 2484 
z
M 1172 3481 
Q 1172 3119 1398 2916 
Q 1625 2713 2034 2713 
Q 2441 2713 2670 2916 
Q 2900 3119 2900 3481 
Q 2900 3844 2670 4047 
Q 2441 4250 2034 4250 
Q 1625 4250 1398 4047 
Q 1172 3844 1172 3481 
z
" id="DejaVuSans-38" transform="scale(0.015625)"/>
       </defs>
       <use xlink:href="#DejaVuSans-31"/>
       <use x="63.623047" xlink:href="#DejaVuSans-38"/>
       <use x="127.246094" xlink:href="#DejaVuSans-30"/>
       <use x="190.869141" xlink:href="#DejaVuSans-30"/>
       <use x="254.492188" xlink:href="#DejaVuSans-30"/>
      </g>
     </g>
    </g>
    <g id="ytick_7">
     <g id="line2d_13">
      <g>
       <use style="stroke:#000000;stroke-width:0.8;" x="59.690625" xlink:href="#m6139a8c692" y="87.336007"/>
      </g>
     </g>
     <g id="text_14">
      <!-- 19000 -->
      <g transform="translate(20.878125 91.135226)scale(0.1 -0.1)">
       <use xlink:href="#DejaVuSans-31"/>
       <use x="63.623047" xlink:href="#DejaVuSans-39"/>
       <use x="127.246094" xlink:href="#DejaVuSans-30"/>
       <use x="190.869141" xlink:href="#DejaVuSans-30"/>
       <use x="254.492188" xlink:href="#DejaVuSans-30"/>
      </g>
     </g>
    </g>
    <g id="ytick_8">
     <g id="line2d_14">
      <g>
       <use style="stroke:#000000;stroke-width:0.8;" x="59.690625" xlink:href="#m6139a8c692" y="57.223983"/>
      </g>
     </g>
     <g id="text_15">
      <!-- 20000 -->
      <g transform="translate(20.878125 61.023202)scale(0.1 -0.1)">
       <use xlink:href="#DejaVuSans-32"/>
       <use x="63.623047" xlink:href="#DejaVuSans-30"/>
       <use x="127.246094" xlink:href="#DejaVuSans-30"/>
       <use x="190.869141" xlink:href="#DejaVuSans-30"/>
       <use x="254.492188" xlink:href="#DejaVuSans-30"/>
      </g>
     </g>
    </g>
    <g id="ytick_9">
     <g id="line2d_15">
      <g>
       <use style="stroke:#000000;stroke-width:0.8;" x="59.690625" xlink:href="#m6139a8c692" y="27.111959"/>
      </g>
     </g>
     <g id="text_16">
      <!-- 21000 -->
      <g transform="translate(20.878125 30.911178)scale(0.1 -0.1)">
       <use xlink:href="#DejaVuSans-32"/>
       <use x="63.623047" xlink:href="#DejaVuSans-31"/>
       <use x="127.246094" xlink:href="#DejaVuSans-30"/>
       <use x="190.869141" xlink:href="#DejaVuSans-30"/>
       <use x="254.492188" xlink:href="#DejaVuSans-30"/>
      </g>
     </g>
    </g>
    <g id="text_17">
     <!-- Code region coverage -->
     <g transform="translate(14.798438 210.379594)rotate(-90)scale(0.1 -0.1)">
      <defs>
       <path d="M 4122 4306 
L 4122 3641 
Q 3803 3938 3442 4084 
Q 3081 4231 2675 4231 
Q 1875 4231 1450 3742 
Q 1025 3253 1025 2328 
Q 1025 1406 1450 917 
Q 1875 428 2675 428 
Q 3081 428 3442 575 
Q 3803 722 4122 1019 
L 4122 359 
Q 3791 134 3420 21 
Q 3050 -91 2638 -91 
Q 1578 -91 968 557 
Q 359 1206 359 2328 
Q 359 3453 968 4101 
Q 1578 4750 2638 4750 
Q 3056 4750 3426 4639 
Q 3797 4528 4122 4306 
z
" id="DejaVuSans-43" transform="scale(0.015625)"/>
       <path d="M 2906 2969 
L 2906 4863 
L 3481 4863 
L 3481 0 
L 2906 0 
L 2906 525 
Q 2725 213 2448 61 
Q 2172 -91 1784 -91 
Q 1150 -91 751 415 
Q 353 922 353 1747 
Q 353 2572 751 3078 
Q 1150 3584 1784 3584 
Q 2172 3584 2448 3432 
Q 2725 3281 2906 2969 
z
M 947 1747 
Q 947 1113 1208 752 
Q 1469 391 1925 391 
Q 2381 391 2643 752 
Q 2906 1113 2906 1747 
Q 2906 2381 2643 2742 
Q 2381 3103 1925 3103 
Q 1469 3103 1208 2742 
Q 947 2381 947 1747 
z
" id="DejaVuSans-64" transform="scale(0.015625)"/>
       <path d="M 2906 1791 
Q 2906 2416 2648 2759 
Q 2391 3103 1925 3103 
Q 1463 3103 1205 2759 
Q 947 2416 947 1791 
Q 947 1169 1205 825 
Q 1463 481 1925 481 
Q 2391 481 2648 825 
Q 2906 1169 2906 1791 
z
M 3481 434 
Q 3481 -459 3084 -895 
Q 2688 -1331 1869 -1331 
Q 1566 -1331 1297 -1286 
Q 1028 -1241 775 -1147 
L 775 -588 
Q 1028 -725 1275 -790 
Q 1522 -856 1778 -856 
Q 2344 -856 2625 -561 
Q 2906 -266 2906 331 
L 2906 616 
Q 2728 306 2450 153 
Q 2172 0 1784 0 
Q 1141 0 747 490 
Q 353 981 353 1791 
Q 353 2603 747 3093 
Q 1141 3584 1784 3584 
Q 2172 3584 2450 3431 
Q 2728 3278 2906 2969 
L 2906 3500 
L 3481 3500 
L 3481 434 
z
" id="DejaVuSans-67" transform="scale(0.015625)"/>
       <path d="M 3122 3366 
L 3122 2828 
Q 2878 2963 2633 3030 
Q 2388 3097 2138 3097 
Q 1578 3097 1268 2742 
Q 959 2388 959 1747 
Q 959 1106 1268 751 
Q 1578 397 2138 397 
Q 2388 397 2633 464 
Q 2878 531 3122 666 
L 3122 134 
Q 2881 22 2623 -34 
Q 2366 -91 2075 -91 
Q 1284 -91 818 406 
Q 353 903 353 1747 
Q 353 2603 823 3093 
Q 1294 3584 2113 3584 
Q 2378 3584 2631 3529 
Q 2884 3475 3122 3366 
z
" id="DejaVuSans-63" transform="scale(0.015625)"/>
       <path d="M 191 3500 
L 800 3500 
L 1894 563 
L 2988 3500 
L 3597 3500 
L 2284 0 
L 1503 0 
L 191 3500 
z
" id="DejaVuSans-76" transform="scale(0.015625)"/>
       <path d="M 2194 1759 
Q 1497 1759 1228 1600 
Q 959 1441 959 1056 
Q 959 750 1161 570 
Q 1363 391 1709 391 
Q 2188 391 2477 730 
Q 2766 1069 2766 1631 
L 2766 1759 
L 2194 1759 
z
M 3341 1997 
L 3341 0 
L 2766 0 
L 2766 531 
Q 2569 213 2275 61 
Q 1981 -91 1556 -91 
Q 1019 -91 701 211 
Q 384 513 384 1019 
Q 384 1609 779 1909 
Q 1175 2209 1959 2209 
L 2766 2209 
L 2766 2266 
Q 2766 2663 2505 2880 
Q 2244 3097 1772 3097 
Q 1472 3097 1187 3025 
Q 903 2953 641 2809 
L 641 3341 
Q 956 3463 1253 3523 
Q 1550 3584 1831 3584 
Q 2591 3584 2966 3190 
Q 3341 2797 3341 1997 
z
" id="DejaVuSans-61" transform="scale(0.015625)"/>
      </defs>
      <use xlink:href="#DejaVuSans-43"/>
      <use x="69.824219" xlink:href="#DejaVuSans-6f"/>
      <use x="131.005859" xlink:href="#DejaVuSans-64"/>
      <use x="194.482422" xlink:href="#DejaVuSans-65"/>
      <use x="256.005859" xlink:href="#DejaVuSans-20"/>
      <use x="287.792969" xlink:href="#DejaVuSans-72"/>
      <use x="326.65625" xlink:href="#DejaVuSans-65"/>
      <use x="388.179688" xlink:href="#DejaVuSans-67"/>
      <use x="451.65625" xlink:href="#DejaVuSans-69"/>
      <use x="479.439453" xlink:href="#DejaVuSans-6f"/>
      <use x="540.621094" xlink:href="#DejaVuSans-6e"/>
      <use x="604" xlink:href="#DejaVuSans-20"/>
      <use x="635.787109" xlink:href="#DejaVuSans-63"/>
      <use x="690.767578" xlink:href="#DejaVuSans-6f"/>
      <use x="751.949219" xlink:href="#DejaVuSans-76"/>
      <use x="811.128906" xlink:href="#DejaVuSans-65"/>
      <use x="872.652344" xlink:href="#DejaVuSans-72"/>
      <use x="913.765625" xlink:href="#DejaVuSans-61"/>
      <use x="975.044922" xlink:href="#DejaVuSans-67"/>
      <use x="1038.521484" xlink:href="#DejaVuSans-65"/>
     </g>
    </g>
   </g>
   <g id="line2d_16">
    <path clip-path="url(#p3911711c67)" d="M 75.923352 180.608001 
L 79.490985 126.722534 
L 83.058617 122.461683 
L 86.626249 107.465895 
L 90.193882 99.862609 
L 93.761514 94.683341 
L 97.329146 90.211705 
L 100.896779 86.884327 
L 104.464411 83.572004 
L 108.032044 79.868225 
L 111.599676 76.691407 
L 115.167308 72.340219 
L 118.734941 72.114379 
L 122.302573 71.421802 
L 125.870205 66.739383 
L 129.437838 66.122086 
L 133.00547 64.887493 
L 136.573103 64.556261 
L 140.140735 62.614035 
L 143.708367 62.598979 
L 147.276 61.906403 
L 150.843632 61.906403 
L 154.411264 61.695619 
L 157.978897 61.168658 
L 161.546529 59.361937 
L 165.114161 58.262848 
L 168.681794 57.494991 
L 172.249426 56.983087 
L 175.817059 56.892751 
L 179.384691 56.185118 
L 182.952323 55.83883 
L 186.519956 54.950525 
L 190.087588 53.956829 
L 193.65522 53.580428 
L 197.222853 53.098636 
L 200.790485 52.586731 
L 204.358118 52.586731 
L 207.92575 52.255499 
L 211.493382 52.104939 
L 215.061015 51.803819 
L 218.628647 51.698427 
L 222.196279 51.30697 
L 225.763912 51.186522 
L 229.331544 51.186522 
L 232.899176 51.15641 
L 236.466809 49.695977 
L 240.034441 48.10004 
L 243.602074 48.009704 
L 247.169706 48.009704 
L 250.737338 47.919368 
L 254.304971 47.829032 
L 257.872603 47.783864 
L 261.440235 47.347239 
L 265.007868 47.347239 
L 268.5755 47.151511 
L 272.143132 45.992198 
L 275.710765 45.962086 
L 279.278397 45.886806 
L 282.84603 45.389958 
L 286.413662 45.359846 
L 289.981294 45.329734 
L 293.548927 45.179174 
L 297.116559 44.862997 
L 300.684191 44.862997 
L 304.251824 44.832885 
L 307.819456 44.832885 
L 311.387089 44.622101 
L 314.954721 44.622101 
L 318.522353 44.080085 
L 322.089986 43.884357 
L 325.657618 43.884357 
L 329.22525 43.79402 
L 332.792883 43.748852 
L 336.360515 43.673572 
L 339.928147 43.523012 
L 343.49578 43.161668 
L 347.063412 42.484147 
L 350.631045 42.484147 
L 354.198677 42.484147 
L 357.766309 42.348643 
L 361.333942 42.348643 
L 364.901574 42.348643 
L 368.469206 41.896963 
L 372.036839 41.821683 
L 375.604471 41.475395 
L 379.172104 41.400115 
L 382.739736 41.385059 
L 386.307368 41.385059 
L 389.875001 41.294722 
L 393.442633 41.294722 
L 397.010265 41.219442 
L 400.577898 41.219442 
" style="fill:none;stroke:#98df8a;stroke-linecap:square;stroke-width:1.5;"/>
    <defs>
     <path d="M -0 3 
L 3 -3 
L -3 -3 
z
" id="mdc7c746aab" style="stroke:#ffffff;stroke-linejoin:miter;stroke-width:0.75;"/>
    </defs>
    <g clip-path="url(#p3911711c67)">
     <use style="fill:#98df8a;stroke:#ffffff;stroke-linejoin:miter;stroke-width:0.75;" x="75.923352" xlink:href="#mdc7c746aab" y="180.608001"/>
     <use style="fill:#98df8a;stroke:#ffffff;stroke-linejoin:miter;stroke-width:0.75;" x="79.490985" xlink:href="#mdc7c746aab" y="126.722534"/>
     <use style="fill:#98df8a;stroke:#ffffff;stroke-linejoin:miter;stroke-width:0.75;" x="83.058617" xlink:href="#mdc7c746aab" y="122.461683"/>
     <use style="fill:#98df8a;stroke:#ffffff;stroke-linejoin:miter;stroke-width:0.75;" x="86.626249" xlink:href="#mdc7c746aab" y="107.465895"/>
     <use style="fill:#98df8a;stroke:#ffffff;stroke-linejoin:miter;stroke-width:0.75;" x="90.193882" xlink:href="#mdc7c746aab" y="99.862609"/>
     <use style="fill:#98df8a;stroke:#ffffff;stroke-linejoin:miter;stroke-width:0.75;" x="93.761514" xlink:href="#mdc7c746aab" y="94.683341"/>
     <use style="fill:#98df8a;stroke:#ffffff;stroke-linejoin:miter;stroke-width:0.75;" x="97.329146" xlink:href="#mdc7c746aab" y="90.211705"/>
     <use style="fill:#98df8a;stroke:#ffffff;stroke-linejoin:miter;stroke-width:0.75;" x="100.896779" xlink:href="#mdc7c746aab" y="86.884327"/>
     <use style="fill:#98df8a;stroke:#ffffff;stroke-linejoin:miter;stroke-width:0.75;" x="104.464411" xlink:href="#mdc7c746aab" y="83.572004"/>
     <use style="fill:#98df8a;stroke:#ffffff;stroke-linejoin:miter;stroke-width:0.75;" x="108.032044" xlink:href="#mdc7c746aab" y="79.868225"/>
     <use style="fill:#98df8a;stroke:#ffffff;stroke-linejoin:miter;stroke-width:0.75;" x="111.599676" xlink:href="#mdc7c746aab" y="76.691407"/>
     <use style="fill:#98df8a;stroke:#ffffff;stroke-linejoin:miter;stroke-width:0.75;" x="115.167308" xlink:href="#mdc7c746aab" y="72.340219"/>
     <use style="fill:#98df8a;stroke:#ffffff;stroke-linejoin:miter;stroke-width:0.75;" x="118.734941" xlink:href="#mdc7c746aab" y="72.114379"/>
     <use style="fill:#98df8a;stroke:#ffffff;stroke-linejoin:miter;stroke-width:0.75;" x="122.302573" xlink:href="#mdc7c746aab" y="71.421802"/>
     <use style="fill:#98df8a;stroke:#ffffff;stroke-linejoin:miter;stroke-width:0.75;" x="125.870205" xlink:href="#mdc7c746aab" y="66.739383"/>
     <use style="fill:#98df8a;stroke:#ffffff;stroke-linejoin:miter;stroke-width:0.75;" x="129.437838" xlink:href="#mdc7c746aab" y="66.122086"/>
     <use style="fill:#98df8a;stroke:#ffffff;stroke-linejoin:miter;stroke-width:0.75;" x="133.00547" xlink:href="#mdc7c746aab" y="64.887493"/>
     <use style="fill:#98df8a;stroke:#ffffff;stroke-linejoin:miter;stroke-width:0.75;" x="136.573103" xlink:href="#mdc7c746aab" y="64.556261"/>
     <use style="fill:#98df8a;stroke:#ffffff;stroke-linejoin:miter;stroke-width:0.75;" x="140.140735" xlink:href="#mdc7c746aab" y="62.614035"/>
     <use style="fill:#98df8a;stroke:#ffffff;stroke-linejoin:miter;stroke-width:0.75;" x="143.708367" xlink:href="#mdc7c746aab" y="62.598979"/>
     <use style="fill:#98df8a;stroke:#ffffff;stroke-linejoin:miter;stroke-width:0.75;" x="147.276" xlink:href="#mdc7c746aab" y="61.906403"/>
     <use style="fill:#98df8a;stroke:#ffffff;stroke-linejoin:miter;stroke-width:0.75;" x="150.843632" xlink:href="#mdc7c746aab" y="61.906403"/>
     <use style="fill:#98df8a;stroke:#ffffff;stroke-linejoin:miter;stroke-width:0.75;" x="154.411264" xlink:href="#mdc7c746aab" y="61.695619"/>
     <use style="fill:#98df8a;stroke:#ffffff;stroke-linejoin:miter;stroke-width:0.75;" x="157.978897" xlink:href="#mdc7c746aab" y="61.168658"/>
     <use style="fill:#98df8a;stroke:#ffffff;stroke-linejoin:miter;stroke-width:0.75;" x="161.546529" xlink:href="#mdc7c746aab" y="59.361937"/>
     <use style="fill:#98df8a;stroke:#ffffff;stroke-linejoin:miter;stroke-width:0.75;" x="165.114161" xlink:href="#mdc7c746aab" y="58.262848"/>
     <use style="fill:#98df8a;stroke:#ffffff;stroke-linejoin:miter;stroke-width:0.75;" x="168.681794" xlink:href="#mdc7c746aab" y="57.494991"/>
     <use style="fill:#98df8a;stroke:#ffffff;stroke-linejoin:miter;stroke-width:0.75;" x="172.249426" xlink:href="#mdc7c746aab" y="56.983087"/>
     <use style="fill:#98df8a;stroke:#ffffff;stroke-linejoin:miter;stroke-width:0.75;" x="175.817059" xlink:href="#mdc7c746aab" y="56.892751"/>
     <use style="fill:#98df8a;stroke:#ffffff;stroke-linejoin:miter;stroke-width:0.75;" x="179.384691" xlink:href="#mdc7c746aab" y="56.185118"/>
     <use style="fill:#98df8a;stroke:#ffffff;stroke-linejoin:miter;stroke-width:0.75;" x="182.952323" xlink:href="#mdc7c746aab" y="55.83883"/>
     <use style="fill:#98df8a;stroke:#ffffff;stroke-linejoin:miter;stroke-width:0.75;" x="186.519956" xlink:href="#mdc7c746aab" y="54.950525"/>
     <use style="fill:#98df8a;stroke:#ffffff;stroke-linejoin:miter;stroke-width:0.75;" x="190.087588" xlink:href="#mdc7c746aab" y="53.956829"/>
     <use style="fill:#98df8a;stroke:#ffffff;stroke-linejoin:miter;stroke-width:0.75;" x="193.65522" xlink:href="#mdc7c746aab" y="53.580428"/>
     <use style="fill:#98df8a;stroke:#ffffff;stroke-linejoin:miter;stroke-width:0.75;" x="197.222853" xlink:href="#mdc7c746aab" y="53.098636"/>
     <use style="fill:#98df8a;stroke:#ffffff;stroke-linejoin:miter;stroke-width:0.75;" x="200.790485" xlink:href="#mdc7c746aab" y="52.586731"/>
     <use style="fill:#98df8a;stroke:#ffffff;stroke-linejoin:miter;stroke-width:0.75;" x="204.358118" xlink:href="#mdc7c746aab" y="52.586731"/>
     <use style="fill:#98df8a;stroke:#ffffff;stroke-linejoin:miter;stroke-width:0.75;" x="207.92575" xlink:href="#mdc7c746aab" y="52.255499"/>
     <use style="fill:#98df8a;stroke:#ffffff;stroke-linejoin:miter;stroke-width:0.75;" x="211.493382" xlink:href="#mdc7c746aab" y="52.104939"/>
     <use style="fill:#98df8a;stroke:#ffffff;stroke-linejoin:miter;stroke-width:0.75;" x="215.061015" xlink:href="#mdc7c746aab" y="51.803819"/>
     <use style="fill:#98df8a;stroke:#ffffff;stroke-linejoin:miter;stroke-width:0.75;" x="218.628647" xlink:href="#mdc7c746aab" y="51.698427"/>
     <use style="fill:#98df8a;stroke:#ffffff;stroke-linejoin:miter;stroke-width:0.75;" x="222.196279" xlink:href="#mdc7c746aab" y="51.30697"/>
     <use style="fill:#98df8a;stroke:#ffffff;stroke-linejoin:miter;stroke-width:0.75;" x="225.763912" xlink:href="#mdc7c746aab" y="51.186522"/>
     <use style="fill:#98df8a;stroke:#ffffff;stroke-linejoin:miter;stroke-width:0.75;" x="229.331544" xlink:href="#mdc7c746aab" y="51.186522"/>
     <use style="fill:#98df8a;stroke:#ffffff;stroke-linejoin:miter;stroke-width:0.75;" x="232.899176" xlink:href="#mdc7c746aab" y="51.15641"/>
     <use style="fill:#98df8a;stroke:#ffffff;stroke-linejoin:miter;stroke-width:0.75;" x="236.466809" xlink:href="#mdc7c746aab" y="49.695977"/>
     <use style="fill:#98df8a;stroke:#ffffff;stroke-linejoin:miter;stroke-width:0.75;" x="240.034441" xlink:href="#mdc7c746aab" y="48.10004"/>
     <use style="fill:#98df8a;stroke:#ffffff;stroke-linejoin:miter;stroke-width:0.75;" x="243.602074" xlink:href="#mdc7c746aab" y="48.009704"/>
     <use style="fill:#98df8a;stroke:#ffffff;stroke-linejoin:miter;stroke-width:0.75;" x="247.169706" xlink:href="#mdc7c746aab" y="48.009704"/>
     <use style="fill:#98df8a;stroke:#ffffff;stroke-linejoin:miter;stroke-width:0.75;" x="250.737338" xlink:href="#mdc7c746aab" y="47.919368"/>
     <use style="fill:#98df8a;stroke:#ffffff;stroke-linejoin:miter;stroke-width:0.75;" x="254.304971" xlink:href="#mdc7c746aab" y="47.829032"/>
     <use style="fill:#98df8a;stroke:#ffffff;stroke-linejoin:miter;stroke-width:0.75;" x="257.872603" xlink:href="#mdc7c746aab" y="47.783864"/>
     <use style="fill:#98df8a;stroke:#ffffff;stroke-linejoin:miter;stroke-width:0.75;" x="261.440235" xlink:href="#mdc7c746aab" y="47.347239"/>
     <use style="fill:#98df8a;stroke:#ffffff;stroke-linejoin:miter;stroke-width:0.75;" x="265.007868" xlink:href="#mdc7c746aab" y="47.347239"/>
     <use style="fill:#98df8a;stroke:#ffffff;stroke-linejoin:miter;stroke-width:0.75;" x="268.5755" xlink:href="#mdc7c746aab" y="47.151511"/>
     <use style="fill:#98df8a;stroke:#ffffff;stroke-linejoin:miter;stroke-width:0.75;" x="272.143132" xlink:href="#mdc7c746aab" y="45.992198"/>
     <use style="fill:#98df8a;stroke:#ffffff;stroke-linejoin:miter;stroke-width:0.75;" x="275.710765" xlink:href="#mdc7c746aab" y="45.962086"/>
     <use style="fill:#98df8a;stroke:#ffffff;stroke-linejoin:miter;stroke-width:0.75;" x="279.278397" xlink:href="#mdc7c746aab" y="45.886806"/>
     <use style="fill:#98df8a;stroke:#ffffff;stroke-linejoin:miter;stroke-width:0.75;" x="282.84603" xlink:href="#mdc7c746aab" y="45.389958"/>
     <use style="fill:#98df8a;stroke:#ffffff;stroke-linejoin:miter;stroke-width:0.75;" x="286.413662" xlink:href="#mdc7c746aab" y="45.359846"/>
     <use style="fill:#98df8a;stroke:#ffffff;stroke-linejoin:miter;stroke-width:0.75;" x="289.981294" xlink:href="#mdc7c746aab" y="45.329734"/>
     <use style="fill:#98df8a;stroke:#ffffff;stroke-linejoin:miter;stroke-width:0.75;" x="293.548927" xlink:href="#mdc7c746aab" y="45.179174"/>
     <use style="fill:#98df8a;stroke:#ffffff;stroke-linejoin:miter;stroke-width:0.75;" x="297.116559" xlink:href="#mdc7c746aab" y="44.862997"/>
     <use style="fill:#98df8a;stroke:#ffffff;stroke-linejoin:miter;stroke-width:0.75;" x="300.684191" xlink:href="#mdc7c746aab" y="44.862997"/>
     <use style="fill:#98df8a;stroke:#ffffff;stroke-linejoin:miter;stroke-width:0.75;" x="304.251824" xlink:href="#mdc7c746aab" y="44.832885"/>
     <use style="fill:#98df8a;stroke:#ffffff;stroke-linejoin:miter;stroke-width:0.75;" x="307.819456" xlink:href="#mdc7c746aab" y="44.832885"/>
     <use style="fill:#98df8a;stroke:#ffffff;stroke-linejoin:miter;stroke-width:0.75;" x="311.387089" xlink:href="#mdc7c746aab" y="44.622101"/>
     <use style="fill:#98df8a;stroke:#ffffff;stroke-linejoin:miter;stroke-width:0.75;" x="314.954721" xlink:href="#mdc7c746aab" y="44.622101"/>
     <use style="fill:#98df8a;stroke:#ffffff;stroke-linejoin:miter;stroke-width:0.75;" x="318.522353" xlink:href="#mdc7c746aab" y="44.080085"/>
     <use style="fill:#98df8a;stroke:#ffffff;stroke-linejoin:miter;stroke-width:0.75;" x="322.089986" xlink:href="#mdc7c746aab" y="43.884357"/>
     <use style="fill:#98df8a;stroke:#ffffff;stroke-linejoin:miter;stroke-width:0.75;" x="325.657618" xlink:href="#mdc7c746aab" y="43.884357"/>
     <use style="fill:#98df8a;stroke:#ffffff;stroke-linejoin:miter;stroke-width:0.75;" x="329.22525" xlink:href="#mdc7c746aab" y="43.79402"/>
     <use style="fill:#98df8a;stroke:#ffffff;stroke-linejoin:miter;stroke-width:0.75;" x="332.792883" xlink:href="#mdc7c746aab" y="43.748852"/>
     <use style="fill:#98df8a;stroke:#ffffff;stroke-linejoin:miter;stroke-width:0.75;" x="336.360515" xlink:href="#mdc7c746aab" y="43.673572"/>
     <use style="fill:#98df8a;stroke:#ffffff;stroke-linejoin:miter;stroke-width:0.75;" x="339.928147" xlink:href="#mdc7c746aab" y="43.523012"/>
     <use style="fill:#98df8a;stroke:#ffffff;stroke-linejoin:miter;stroke-width:0.75;" x="343.49578" xlink:href="#mdc7c746aab" y="43.161668"/>
     <use style="fill:#98df8a;stroke:#ffffff;stroke-linejoin:miter;stroke-width:0.75;" x="347.063412" xlink:href="#mdc7c746aab" y="42.484147"/>
     <use style="fill:#98df8a;stroke:#ffffff;stroke-linejoin:miter;stroke-width:0.75;" x="350.631045" xlink:href="#mdc7c746aab" y="42.484147"/>
     <use style="fill:#98df8a;stroke:#ffffff;stroke-linejoin:miter;stroke-width:0.75;" x="354.198677" xlink:href="#mdc7c746aab" y="42.484147"/>
     <use style="fill:#98df8a;stroke:#ffffff;stroke-linejoin:miter;stroke-width:0.75;" x="357.766309" xlink:href="#mdc7c746aab" y="42.348643"/>
     <use style="fill:#98df8a;stroke:#ffffff;stroke-linejoin:miter;stroke-width:0.75;" x="361.333942" xlink:href="#mdc7c746aab" y="42.348643"/>
     <use style="fill:#98df8a;stroke:#ffffff;stroke-linejoin:miter;stroke-width:0.75;" x="364.901574" xlink:href="#mdc7c746aab" y="42.348643"/>
     <use style="fill:#98df8a;stroke:#ffffff;stroke-linejoin:miter;stroke-width:0.75;" x="368.469206" xlink:href="#mdc7c746aab" y="41.896963"/>
     <use style="fill:#98df8a;stroke:#ffffff;stroke-linejoin:miter;stroke-width:0.75;" x="372.036839" xlink:href="#mdc7c746aab" y="41.821683"/>
     <use style="fill:#98df8a;stroke:#ffffff;stroke-linejoin:miter;stroke-width:0.75;" x="375.604471" xlink:href="#mdc7c746aab" y="41.475395"/>
     <use style="fill:#98df8a;stroke:#ffffff;stroke-linejoin:miter;stroke-width:0.75;" x="379.172104" xlink:href="#mdc7c746aab" y="41.400115"/>
     <use style="fill:#98df8a;stroke:#ffffff;stroke-linejoin:miter;stroke-width:0.75;" x="382.739736" xlink:href="#mdc7c746aab" y="41.385059"/>
     <use style="fill:#98df8a;stroke:#ffffff;stroke-linejoin:miter;stroke-width:0.75;" x="386.307368" xlink:href="#mdc7c746aab" y="41.385059"/>
     <use style="fill:#98df8a;stroke:#ffffff;stroke-linejoin:miter;stroke-width:0.75;" x="389.875001" xlink:href="#mdc7c746aab" y="41.294722"/>
     <use style="fill:#98df8a;stroke:#ffffff;stroke-linejoin:miter;stroke-width:0.75;" x="393.442633" xlink:href="#mdc7c746aab" y="41.294722"/>
     <use style="fill:#98df8a;stroke:#ffffff;stroke-linejoin:miter;stroke-width:0.75;" x="397.010265" xlink:href="#mdc7c746aab" y="41.219442"/>
     <use style="fill:#98df8a;stroke:#ffffff;stroke-linejoin:miter;stroke-width:0.75;" x="400.577898" xlink:href="#mdc7c746aab" y="41.219442"/>
    </g>
   </g>
   <g id="line2d_17">
    <path clip-path="url(#p3911711c67)" d="M 75.923352 258.568031 
L 79.490985 195.664013 
L 83.058617 164.121668 
L 86.626249 145.196261 
L 90.193882 135.259293 
L 93.761514 130.215529 
L 97.329146 117.387807 
L 100.896779 114.783117 
L 104.464411 114.135708 
L 108.032044 107.601399 
L 111.599676 104.740757 
L 115.167308 100.344401 
L 118.734941 99.576545 
L 122.302573 97.468703 
L 125.870205 97.257919 
L 129.437838 93.734812 
L 133.00547 90.512826 
L 136.573103 89.368569 
L 140.140735 87.652183 
L 143.708367 82.563251 
L 147.276 82.337411 
L 150.843632 80.83181 
L 154.411264 77.022639 
L 157.978897 76.781743 
L 161.546529 76.119278 
L 165.114161 75.833214 
L 168.681794 75.788046 
L 172.249426 70.096873 
L 175.817059 68.199816 
L 179.384691 67.687911 
L 182.952323 67.612631 
L 186.519956 66.935111 
L 190.087588 66.633991 
L 193.65522 66.558711 
L 197.222853 63.743236 
L 200.790485 63.698068 
L 204.358118 63.05066 
L 207.92575 62.598979 
L 211.493382 60.039457 
L 215.061015 58.74464 
L 218.628647 58.202624 
L 222.196279 57.796112 
L 225.763912 57.329375 
L 229.331544 56.651855 
L 232.899176 55.808718 
L 236.466809 55.372094 
L 240.034441 54.589181 
L 243.602074 54.483789 
L 247.169706 54.062221 
L 250.737338 54.062221 
L 254.304971 54.047165 
L 257.872603 53.941772 
L 261.440235 53.746044 
L 265.007868 53.730988 
L 268.5755 53.730988 
L 272.143132 53.730988 
L 275.710765 53.670764 
L 279.278397 53.595484 
L 282.84603 53.068524 
L 286.413662 53.023356 
L 289.981294 53.0083 
L 293.548927 52.662011 
L 297.116559 52.391003 
L 300.684191 51.487643 
L 304.251824 49.349689 
L 307.819456 49.349689 
L 311.387089 49.349689 
L 314.954721 49.349689 
L 318.522353 49.334633 
L 322.089986 49.319577 
L 325.657618 49.259353 
L 329.22525 49.153961 
L 332.792883 49.153961 
L 336.360515 49.153961 
L 339.928147 49.138905 
L 343.49578 48.747448 
L 347.063412 48.747448 
L 350.631045 47.753752 
L 354.198677 47.753752 
L 357.766309 47.753752 
L 361.333942 47.738696 
L 364.901574 47.708584 
L 368.469206 47.693528 
L 372.036839 47.437575 
L 375.604471 47.046119 
L 379.172104 46.970839 
L 382.739736 44.336037 
L 386.307368 44.095141 
L 389.875001 44.065029 
L 393.442633 43.538068 
L 397.010265 43.538068 
L 400.577898 43.523012 
" style="fill:none;stroke:#1f77b4;stroke-linecap:square;stroke-width:1.5;"/>
    <defs>
     <path d="M 0 3 
C 0.795609 3 1.55874 2.683901 2.12132 2.12132 
C 2.683901 1.55874 3 0.795609 3 0 
C 3 -0.795609 2.683901 -1.55874 2.12132 -2.12132 
C 1.55874 -2.683901 0.795609 -3 0 -3 
C -0.795609 -3 -1.55874 -2.683901 -2.12132 -2.12132 
C -2.683901 -1.55874 -3 -0.795609 -3 0 
C -3 0.795609 -2.683901 1.55874 -2.12132 2.12132 
C -1.55874 2.683901 -0.795609 3 0 3 
z
" id="m48d0dd2f44" style="stroke:#ffffff;stroke-width:0.75;"/>
    </defs>
    <g clip-path="url(#p3911711c67)">
     <use style="fill:#1f77b4;stroke:#ffffff;stroke-width:0.75;" x="75.923352" xlink:href="#m48d0dd2f44" y="258.568031"/>
     <use style="fill:#1f77b4;stroke:#ffffff;stroke-width:0.75;" x="79.490985" xlink:href="#m48d0dd2f44" y="195.664013"/>
     <use style="fill:#1f77b4;stroke:#ffffff;stroke-width:0.75;" x="83.058617" xlink:href="#m48d0dd2f44" y="164.121668"/>
     <use style="fill:#1f77b4;stroke:#ffffff;stroke-width:0.75;" x="86.626249" xlink:href="#m48d0dd2f44" y="145.196261"/>
     <use style="fill:#1f77b4;stroke:#ffffff;stroke-width:0.75;" x="90.193882" xlink:href="#m48d0dd2f44" y="135.259293"/>
     <use style="fill:#1f77b4;stroke:#ffffff;stroke-width:0.75;" x="93.761514" xlink:href="#m48d0dd2f44" y="130.215529"/>
     <use style="fill:#1f77b4;stroke:#ffffff;stroke-width:0.75;" x="97.329146" xlink:href="#m48d0dd2f44" y="117.387807"/>
     <use style="fill:#1f77b4;stroke:#ffffff;stroke-width:0.75;" x="100.896779" xlink:href="#m48d0dd2f44" y="114.783117"/>
     <use style="fill:#1f77b4;stroke:#ffffff;stroke-width:0.75;" x="104.464411" xlink:href="#m48d0dd2f44" y="114.135708"/>
     <use style="fill:#1f77b4;stroke:#ffffff;stroke-width:0.75;" x="108.032044" xlink:href="#m48d0dd2f44" y="107.601399"/>
     <use style="fill:#1f77b4;stroke:#ffffff;stroke-width:0.75;" x="111.599676" xlink:href="#m48d0dd2f44" y="104.740757"/>
     <use style="fill:#1f77b4;stroke:#ffffff;stroke-width:0.75;" x="115.167308" xlink:href="#m48d0dd2f44" y="100.344401"/>
     <use style="fill:#1f77b4;stroke:#ffffff;stroke-width:0.75;" x="118.734941" xlink:href="#m48d0dd2f44" y="99.576545"/>
     <use style="fill:#1f77b4;stroke:#ffffff;stroke-width:0.75;" x="122.302573" xlink:href="#m48d0dd2f44" y="97.468703"/>
     <use style="fill:#1f77b4;stroke:#ffffff;stroke-width:0.75;" x="125.870205" xlink:href="#m48d0dd2f44" y="97.257919"/>
     <use style="fill:#1f77b4;stroke:#ffffff;stroke-width:0.75;" x="129.437838" xlink:href="#m48d0dd2f44" y="93.734812"/>
     <use style="fill:#1f77b4;stroke:#ffffff;stroke-width:0.75;" x="133.00547" xlink:href="#m48d0dd2f44" y="90.512826"/>
     <use style="fill:#1f77b4;stroke:#ffffff;stroke-width:0.75;" x="136.573103" xlink:href="#m48d0dd2f44" y="89.368569"/>
     <use style="fill:#1f77b4;stroke:#ffffff;stroke-width:0.75;" x="140.140735" xlink:href="#m48d0dd2f44" y="87.652183"/>
     <use style="fill:#1f77b4;stroke:#ffffff;stroke-width:0.75;" x="143.708367" xlink:href="#m48d0dd2f44" y="82.563251"/>
     <use style="fill:#1f77b4;stroke:#ffffff;stroke-width:0.75;" x="147.276" xlink:href="#m48d0dd2f44" y="82.337411"/>
     <use style="fill:#1f77b4;stroke:#ffffff;stroke-width:0.75;" x="150.843632" xlink:href="#m48d0dd2f44" y="80.83181"/>
     <use style="fill:#1f77b4;stroke:#ffffff;stroke-width:0.75;" x="154.411264" xlink:href="#m48d0dd2f44" y="77.022639"/>
     <use style="fill:#1f77b4;stroke:#ffffff;stroke-width:0.75;" x="157.978897" xlink:href="#m48d0dd2f44" y="76.781743"/>
     <use style="fill:#1f77b4;stroke:#ffffff;stroke-width:0.75;" x="161.546529" xlink:href="#m48d0dd2f44" y="76.119278"/>
     <use style="fill:#1f77b4;stroke:#ffffff;stroke-width:0.75;" x="165.114161" xlink:href="#m48d0dd2f44" y="75.833214"/>
     <use style="fill:#1f77b4;stroke:#ffffff;stroke-width:0.75;" x="168.681794" xlink:href="#m48d0dd2f44" y="75.788046"/>
     <use style="fill:#1f77b4;stroke:#ffffff;stroke-width:0.75;" x="172.249426" xlink:href="#m48d0dd2f44" y="70.096873"/>
     <use style="fill:#1f77b4;stroke:#ffffff;stroke-width:0.75;" x="175.817059" xlink:href="#m48d0dd2f44" y="68.199816"/>
     <use style="fill:#1f77b4;stroke:#ffffff;stroke-width:0.75;" x="179.384691" xlink:href="#m48d0dd2f44" y="67.687911"/>
     <use style="fill:#1f77b4;stroke:#ffffff;stroke-width:0.75;" x="182.952323" xlink:href="#m48d0dd2f44" y="67.612631"/>
     <use style="fill:#1f77b4;stroke:#ffffff;stroke-width:0.75;" x="186.519956" xlink:href="#m48d0dd2f44" y="66.935111"/>
     <use style="fill:#1f77b4;stroke:#ffffff;stroke-width:0.75;" x="190.087588" xlink:href="#m48d0dd2f44" y="66.633991"/>
     <use style="fill:#1f77b4;stroke:#ffffff;stroke-width:0.75;" x="193.65522" xlink:href="#m48d0dd2f44" y="66.558711"/>
     <use style="fill:#1f77b4;stroke:#ffffff;stroke-width:0.75;" x="197.222853" xlink:href="#m48d0dd2f44" y="63.743236"/>
     <use style="fill:#1f77b4;stroke:#ffffff;stroke-width:0.75;" x="200.790485" xlink:href="#m48d0dd2f44" y="63.698068"/>
     <use style="fill:#1f77b4;stroke:#ffffff;stroke-width:0.75;" x="204.358118" xlink:href="#m48d0dd2f44" y="63.05066"/>
     <use style="fill:#1f77b4;stroke:#ffffff;stroke-width:0.75;" x="207.92575" xlink:href="#m48d0dd2f44" y="62.598979"/>
     <use style="fill:#1f77b4;stroke:#ffffff;stroke-width:0.75;" x="211.493382" xlink:href="#m48d0dd2f44" y="60.039457"/>
     <use style="fill:#1f77b4;stroke:#ffffff;stroke-width:0.75;" x="215.061015" xlink:href="#m48d0dd2f44" y="58.74464"/>
     <use style="fill:#1f77b4;stroke:#ffffff;stroke-width:0.75;" x="218.628647" xlink:href="#m48d0dd2f44" y="58.202624"/>
     <use style="fill:#1f77b4;stroke:#ffffff;stroke-width:0.75;" x="222.196279" xlink:href="#m48d0dd2f44" y="57.796112"/>
     <use style="fill:#1f77b4;stroke:#ffffff;stroke-width:0.75;" x="225.763912" xlink:href="#m48d0dd2f44" y="57.329375"/>
     <use style="fill:#1f77b4;stroke:#ffffff;stroke-width:0.75;" x="229.331544" xlink:href="#m48d0dd2f44" y="56.651855"/>
     <use style="fill:#1f77b4;stroke:#ffffff;stroke-width:0.75;" x="232.899176" xlink:href="#m48d0dd2f44" y="55.808718"/>
     <use style="fill:#1f77b4;stroke:#ffffff;stroke-width:0.75;" x="236.466809" xlink:href="#m48d0dd2f44" y="55.372094"/>
     <use style="fill:#1f77b4;stroke:#ffffff;stroke-width:0.75;" x="240.034441" xlink:href="#m48d0dd2f44" y="54.589181"/>
     <use style="fill:#1f77b4;stroke:#ffffff;stroke-width:0.75;" x="243.602074" xlink:href="#m48d0dd2f44" y="54.483789"/>
     <use style="fill:#1f77b4;stroke:#ffffff;stroke-width:0.75;" x="247.169706" xlink:href="#m48d0dd2f44" y="54.062221"/>
     <use style="fill:#1f77b4;stroke:#ffffff;stroke-width:0.75;" x="250.737338" xlink:href="#m48d0dd2f44" y="54.062221"/>
     <use style="fill:#1f77b4;stroke:#ffffff;stroke-width:0.75;" x="254.304971" xlink:href="#m48d0dd2f44" y="54.047165"/>
     <use style="fill:#1f77b4;stroke:#ffffff;stroke-width:0.75;" x="257.872603" xlink:href="#m48d0dd2f44" y="53.941772"/>
     <use style="fill:#1f77b4;stroke:#ffffff;stroke-width:0.75;" x="261.440235" xlink:href="#m48d0dd2f44" y="53.746044"/>
     <use style="fill:#1f77b4;stroke:#ffffff;stroke-width:0.75;" x="265.007868" xlink:href="#m48d0dd2f44" y="53.730988"/>
     <use style="fill:#1f77b4;stroke:#ffffff;stroke-width:0.75;" x="268.5755" xlink:href="#m48d0dd2f44" y="53.730988"/>
     <use style="fill:#1f77b4;stroke:#ffffff;stroke-width:0.75;" x="272.143132" xlink:href="#m48d0dd2f44" y="53.730988"/>
     <use style="fill:#1f77b4;stroke:#ffffff;stroke-width:0.75;" x="275.710765" xlink:href="#m48d0dd2f44" y="53.670764"/>
     <use style="fill:#1f77b4;stroke:#ffffff;stroke-width:0.75;" x="279.278397" xlink:href="#m48d0dd2f44" y="53.595484"/>
     <use style="fill:#1f77b4;stroke:#ffffff;stroke-width:0.75;" x="282.84603" xlink:href="#m48d0dd2f44" y="53.068524"/>
     <use style="fill:#1f77b4;stroke:#ffffff;stroke-width:0.75;" x="286.413662" xlink:href="#m48d0dd2f44" y="53.023356"/>
     <use style="fill:#1f77b4;stroke:#ffffff;stroke-width:0.75;" x="289.981294" xlink:href="#m48d0dd2f44" y="53.0083"/>
     <use style="fill:#1f77b4;stroke:#ffffff;stroke-width:0.75;" x="293.548927" xlink:href="#m48d0dd2f44" y="52.662011"/>
     <use style="fill:#1f77b4;stroke:#ffffff;stroke-width:0.75;" x="297.116559" xlink:href="#m48d0dd2f44" y="52.391003"/>
     <use style="fill:#1f77b4;stroke:#ffffff;stroke-width:0.75;" x="300.684191" xlink:href="#m48d0dd2f44" y="51.487643"/>
     <use style="fill:#1f77b4;stroke:#ffffff;stroke-width:0.75;" x="304.251824" xlink:href="#m48d0dd2f44" y="49.349689"/>
     <use style="fill:#1f77b4;stroke:#ffffff;stroke-width:0.75;" x="307.819456" xlink:href="#m48d0dd2f44" y="49.349689"/>
     <use style="fill:#1f77b4;stroke:#ffffff;stroke-width:0.75;" x="311.387089" xlink:href="#m48d0dd2f44" y="49.349689"/>
     <use style="fill:#1f77b4;stroke:#ffffff;stroke-width:0.75;" x="314.954721" xlink:href="#m48d0dd2f44" y="49.349689"/>
     <use style="fill:#1f77b4;stroke:#ffffff;stroke-width:0.75;" x="318.522353" xlink:href="#m48d0dd2f44" y="49.334633"/>
     <use style="fill:#1f77b4;stroke:#ffffff;stroke-width:0.75;" x="322.089986" xlink:href="#m48d0dd2f44" y="49.319577"/>
     <use style="fill:#1f77b4;stroke:#ffffff;stroke-width:0.75;" x="325.657618" xlink:href="#m48d0dd2f44" y="49.259353"/>
     <use style="fill:#1f77b4;stroke:#ffffff;stroke-width:0.75;" x="329.22525" xlink:href="#m48d0dd2f44" y="49.153961"/>
     <use style="fill:#1f77b4;stroke:#ffffff;stroke-width:0.75;" x="332.792883" xlink:href="#m48d0dd2f44" y="49.153961"/>
     <use style="fill:#1f77b4;stroke:#ffffff;stroke-width:0.75;" x="336.360515" xlink:href="#m48d0dd2f44" y="49.153961"/>
     <use style="fill:#1f77b4;stroke:#ffffff;stroke-width:0.75;" x="339.928147" xlink:href="#m48d0dd2f44" y="49.138905"/>
     <use style="fill:#1f77b4;stroke:#ffffff;stroke-width:0.75;" x="343.49578" xlink:href="#m48d0dd2f44" y="48.747448"/>
     <use style="fill:#1f77b4;stroke:#ffffff;stroke-width:0.75;" x="347.063412" xlink:href="#m48d0dd2f44" y="48.747448"/>
     <use style="fill:#1f77b4;stroke:#ffffff;stroke-width:0.75;" x="350.631045" xlink:href="#m48d0dd2f44" y="47.753752"/>
     <use style="fill:#1f77b4;stroke:#ffffff;stroke-width:0.75;" x="354.198677" xlink:href="#m48d0dd2f44" y="47.753752"/>
     <use style="fill:#1f77b4;stroke:#ffffff;stroke-width:0.75;" x="357.766309" xlink:href="#m48d0dd2f44" y="47.753752"/>
     <use style="fill:#1f77b4;stroke:#ffffff;stroke-width:0.75;" x="361.333942" xlink:href="#m48d0dd2f44" y="47.738696"/>
     <use style="fill:#1f77b4;stroke:#ffffff;stroke-width:0.75;" x="364.901574" xlink:href="#m48d0dd2f44" y="47.708584"/>
     <use style="fill:#1f77b4;stroke:#ffffff;stroke-width:0.75;" x="368.469206" xlink:href="#m48d0dd2f44" y="47.693528"/>
     <use style="fill:#1f77b4;stroke:#ffffff;stroke-width:0.75;" x="372.036839" xlink:href="#m48d0dd2f44" y="47.437575"/>
     <use style="fill:#1f77b4;stroke:#ffffff;stroke-width:0.75;" x="375.604471" xlink:href="#m48d0dd2f44" y="47.046119"/>
     <use style="fill:#1f77b4;stroke:#ffffff;stroke-width:0.75;" x="379.172104" xlink:href="#m48d0dd2f44" y="46.970839"/>
     <use style="fill:#1f77b4;stroke:#ffffff;stroke-width:0.75;" x="382.739736" xlink:href="#m48d0dd2f44" y="44.336037"/>
     <use style="fill:#1f77b4;stroke:#ffffff;stroke-width:0.75;" x="386.307368" xlink:href="#m48d0dd2f44" y="44.095141"/>
     <use style="fill:#1f77b4;stroke:#ffffff;stroke-width:0.75;" x="389.875001" xlink:href="#m48d0dd2f44" y="44.065029"/>
     <use style="fill:#1f77b4;stroke:#ffffff;stroke-width:0.75;" x="393.442633" xlink:href="#m48d0dd2f44" y="43.538068"/>
     <use style="fill:#1f77b4;stroke:#ffffff;stroke-width:0.75;" x="397.010265" xlink:href="#m48d0dd2f44" y="43.538068"/>
     <use style="fill:#1f77b4;stroke:#ffffff;stroke-width:0.75;" x="400.577898" xlink:href="#m48d0dd2f44" y="43.523012"/>
    </g>
   </g>
   <g id="line2d_18"/>
   <g id="line2d_19"/>
   <g id="patch_3">
    <path d="M 59.690625 268.00815 
L 59.690625 27.111959 
" style="fill:none;stroke:#000000;stroke-linecap:square;stroke-linejoin:miter;stroke-width:0.8;"/>
   </g>
   <g id="patch_4">
    <path d="M 75.923352 288.430125 
L 349.441834 288.430125 
" style="fill:none;stroke:#000000;stroke-linecap:square;stroke-linejoin:miter;stroke-width:0.8;"/>
   </g>
   <g id="text_18">
    <!-- libxml2_libxml2_xml_reader_for_file_fuzzer (23h, 20 trials/fuzzer) -->
    <g transform="translate(42.98625 16.318125)scale(0.12 -0.12)">
     <defs>
      <path d="M 603 4863 
L 1178 4863 
L 1178 0 
L 603 0 
L 603 4863 
z
" id="DejaVuSans-6c" transform="scale(0.015625)"/>
      <path d="M 3116 1747 
Q 3116 2381 2855 2742 
Q 2594 3103 2138 3103 
Q 1681 3103 1420 2742 
Q 1159 2381 1159 1747 
Q 1159 1113 1420 752 
Q 1681 391 2138 391 
Q 2594 391 2855 752 
Q 3116 1113 3116 1747 
z
M 1159 2969 
Q 1341 3281 1617 3432 
Q 1894 3584 2278 3584 
Q 2916 3584 3314 3078 
Q 3713 2572 3713 1747 
Q 3713 922 3314 415 
Q 2916 -91 2278 -91 
Q 1894 -91 1617 61 
Q 1341 213 1159 525 
L 1159 0 
L 581 0 
L 581 4863 
L 1159 4863 
L 1159 2969 
z
" id="DejaVuSans-62" transform="scale(0.015625)"/>
      <path d="M 3513 3500 
L 2247 1797 
L 3578 0 
L 2900 0 
L 1881 1375 
L 863 0 
L 184 0 
L 1544 1831 
L 300 3500 
L 978 3500 
L 1906 2253 
L 2834 3500 
L 3513 3500 
z
" id="DejaVuSans-78" transform="scale(0.015625)"/>
      <path d="M 3263 -1063 
L 3263 -1509 
L -63 -1509 
L -63 -1063 
L 3263 -1063 
z
" id="DejaVuSans-5f" transform="scale(0.015625)"/>
      <path d="M 2375 4863 
L 2375 4384 
L 1825 4384 
Q 1516 4384 1395 4259 
Q 1275 4134 1275 3809 
L 1275 3500 
L 2222 3500 
L 2222 3053 
L 1275 3053 
L 1275 0 
L 697 0 
L 697 3053 
L 147 3053 
L 147 3500 
L 697 3500 
L 697 3744 
Q 697 4328 969 4595 
Q 1241 4863 1831 4863 
L 2375 4863 
z
" id="DejaVuSans-66" transform="scale(0.015625)"/>
      <path d="M 353 3500 
L 3084 3500 
L 3084 2975 
L 922 459 
L 3084 459 
L 3084 0 
L 275 0 
L 275 525 
L 2438 3041 
L 353 3041 
L 353 3500 
z
" id="DejaVuSans-7a" transform="scale(0.015625)"/>
      <path d="M 750 794 
L 1409 794 
L 1409 256 
L 897 -744 
L 494 -744 
L 750 256 
L 750 794 
z
" id="DejaVuSans-2c" transform="scale(0.015625)"/>
      <path d="M 2834 3397 
L 2834 2853 
Q 2591 2978 2328 3040 
Q 2066 3103 1784 3103 
Q 1356 3103 1142 2972 
Q 928 2841 928 2578 
Q 928 2378 1081 2264 
Q 1234 2150 1697 2047 
L 1894 2003 
Q 2506 1872 2764 1633 
Q 3022 1394 3022 966 
Q 3022 478 2636 193 
Q 2250 -91 1575 -91 
Q 1294 -91 989 -36 
Q 684 19 347 128 
L 347 722 
Q 666 556 975 473 
Q 1284 391 1588 391 
Q 1994 391 2212 530 
Q 2431 669 2431 922 
Q 2431 1156 2273 1281 
Q 2116 1406 1581 1522 
L 1381 1569 
Q 847 1681 609 1914 
Q 372 2147 372 2553 
Q 372 3047 722 3315 
Q 1072 3584 1716 3584 
Q 2034 3584 2315 3537 
Q 2597 3491 2834 3397 
z
" id="DejaVuSans-73" transform="scale(0.015625)"/>
      <path d="M 1625 4666 
L 2156 4666 
L 531 -594 
L 0 -594 
L 1625 4666 
z
" id="DejaVuSans-2f" transform="scale(0.015625)"/>
     </defs>
     <use xlink:href="#DejaVuSans-6c"/>
     <use x="27.783203" xlink:href="#DejaVuSans-69"/>
     <use x="55.566406" xlink:href="#DejaVuSans-62"/>
     <use x="119.042969" xlink:href="#DejaVuSans-78"/>
     <use x="178.222656" xlink:href="#DejaVuSans-6d"/>
     <use x="275.634766" xlink:href="#DejaVuSans-6c"/>
     <use x="303.417969" xlink:href="#DejaVuSans-32"/>
     <use x="367.041016" xlink:href="#DejaVuSans-5f"/>
     <use x="417.041016" xlink:href="#DejaVuSans-6c"/>
     <use x="444.824219" xlink:href="#DejaVuSans-69"/>
     <use x="472.607422" xlink:href="#DejaVuSans-62"/>
     <use x="536.083984" xlink:href="#DejaVuSans-78"/>
     <use x="595.263672" xlink:href="#DejaVuSans-6d"/>
     <use x="692.675781" xlink:href="#DejaVuSans-6c"/>
     <use x="720.458984" xlink:href="#DejaVuSans-32"/>
     <use x="784.082031" xlink:href="#DejaVuSans-5f"/>
     <use x="834.082031" xlink:href="#DejaVuSans-78"/>
     <use x="893.261719" xlink:href="#DejaVuSans-6d"/>
     <use x="990.673828" xlink:href="#DejaVuSans-6c"/>
     <use x="1018.457031" xlink:href="#DejaVuSans-5f"/>
     <use x="1068.457031" xlink:href="#DejaVuSans-72"/>
     <use x="1107.320312" xlink:href="#DejaVuSans-65"/>
     <use x="1168.84375" xlink:href="#DejaVuSans-61"/>
     <use x="1230.123047" xlink:href="#DejaVuSans-64"/>
     <use x="1293.599609" xlink:href="#DejaVuSans-65"/>
     <use x="1355.123047" xlink:href="#DejaVuSans-72"/>
     <use x="1396.236328" xlink:href="#DejaVuSans-5f"/>
     <use x="1446.236328" xlink:href="#DejaVuSans-66"/>
     <use x="1481.441406" xlink:href="#DejaVuSans-6f"/>
     <use x="1542.623047" xlink:href="#DejaVuSans-72"/>
     <use x="1583.736328" xlink:href="#DejaVuSans-5f"/>
     <use x="1633.736328" xlink:href="#DejaVuSans-66"/>
     <use x="1668.941406" xlink:href="#DejaVuSans-69"/>
     <use x="1696.724609" xlink:href="#DejaVuSans-6c"/>
     <use x="1724.507812" xlink:href="#DejaVuSans-65"/>
     <use x="1786.03125" xlink:href="#DejaVuSans-5f"/>
     <use x="1836.03125" xlink:href="#DejaVuSans-66"/>
     <use x="1871.236328" xlink:href="#DejaVuSans-75"/>
     <use x="1934.615234" xlink:href="#DejaVuSans-7a"/>
     <use x="1987.105469" xlink:href="#DejaVuSans-7a"/>
     <use x="2039.595703" xlink:href="#DejaVuSans-65"/>
     <use x="2101.119141" xlink:href="#DejaVuSans-72"/>
     <use x="2142.232422" xlink:href="#DejaVuSans-20"/>
     <use x="2174.019531" xlink:href="#DejaVuSans-28"/>
     <use x="2213.033203" xlink:href="#DejaVuSans-32"/>
     <use x="2276.65625" xlink:href="#DejaVuSans-33"/>
     <use x="2340.279297" xlink:href="#DejaVuSans-68"/>
     <use x="2403.658203" xlink:href="#DejaVuSans-2c"/>
     <use x="2435.445312" xlink:href="#DejaVuSans-20"/>
     <use x="2467.232422" xlink:href="#DejaVuSans-32"/>
     <use x="2530.855469" xlink:href="#DejaVuSans-30"/>
     <use x="2594.478516" xlink:href="#DejaVuSans-20"/>
     <use x="2626.265625" xlink:href="#DejaVuSans-74"/>
     <use x="2665.474609" xlink:href="#DejaVuSans-72"/>
     <use x="2706.587891" xlink:href="#DejaVuSans-69"/>
     <use x="2734.371094" xlink:href="#DejaVuSans-61"/>
     <use x="2795.650391" xlink:href="#DejaVuSans-6c"/>
     <use x="2823.433594" xlink:href="#DejaVuSans-73"/>
     <use x="2875.533203" xlink:href="#DejaVuSans-2f"/>
     <use x="2909.224609" xlink:href="#DejaVuSans-66"/>
     <use x="2944.429688" xlink:href="#DejaVuSans-75"/>
     <use x="3007.808594" xlink:href="#DejaVuSans-7a"/>
     <use x="3060.298828" xlink:href="#DejaVuSans-7a"/>
     <use x="3112.789062" xlink:href="#DejaVuSans-65"/>
     <use x="3174.3125" xlink:href="#DejaVuSans-72"/>
     <use x="3215.425781" xlink:href="#DejaVuSans-29"/>
    </g>
   </g>
   <g id="legend_1">
    <g id="line2d_20">
     <path d="M 420.810625 30.416562 
L 440.810625 30.416562 
" style="fill:none;stroke:#98df8a;stroke-linecap:square;stroke-width:1.5;"/>
    </g>
    <g id="line2d_21">
     <defs>
      <path d="M -0 3 
L 3 -3 
L -3 -3 
z
" id="m435b63893c" style="stroke:#98df8a;stroke-linejoin:miter;"/>
     </defs>
     <g>
      <use style="fill:#98df8a;stroke:#98df8a;stroke-linejoin:miter;" x="430.810625" xlink:href="#m435b63893c" y="30.416562"/>
     </g>
    </g>
    <g id="text_19">
     <!-- afl_edges -->
     <g transform="translate(448.810625 33.916562)scale(0.1 -0.1)">
      <use xlink:href="#DejaVuSans-61"/>
      <use x="61.279297" xlink:href="#DejaVuSans-66"/>
      <use x="96.484375" xlink:href="#DejaVuSans-6c"/>
      <use x="124.267578" xlink:href="#DejaVuSans-5f"/>
      <use x="174.267578" xlink:href="#DejaVuSans-65"/>
      <use x="235.791016" xlink:href="#DejaVuSans-64"/>
      <use x="299.267578" xlink:href="#DejaVuSans-67"/>
      <use x="362.744141" xlink:href="#DejaVuSans-65"/>
      <use x="424.267578" xlink:href="#DejaVuSans-73"/>
     </g>
    </g>
    <g id="line2d_22">
     <path d="M 420.810625 45.372813 
L 440.810625 45.372813 
" style="fill:none;stroke:#1f77b4;stroke-linecap:square;stroke-width:1.5;"/>
    </g>
    <g id="line2d_23">
     <defs>
      <path d="M 0 3 
C 0.795609 3 1.55874 2.683901 2.12132 2.12132 
C 2.683901 1.55874 3 0.795609 3 0 
C 3 -0.795609 2.683901 -1.55874 2.12132 -2.12132 
C 1.55874 -2.683901 0.795609 -3 0 -3 
C -0.795609 -3 -1.55874 -2.683901 -2.12132 -2.12132 
C -2.683901 -1.55874 -3 -0.795609 -3 0 
C -3 0.795609 -2.683901 1.55874 -2.12132 2.12132 
C -1.55874 2.683901 -0.795609 3 0 3 
z
" id="ma46ead8809" style="stroke:#1f77b4;"/>
     </defs>
     <g>
      <use style="fill:#1f77b4;stroke:#1f77b4;" x="430.810625" xlink:href="#ma46ead8809" y="45.372813"/>
     </g>
    </g>
    <g id="text_20">
     <!-- afl -->
     <g transform="translate(448.810625 48.872813)scale(0.1 -0.1)">
      <use xlink:href="#DejaVuSans-61"/>
      <use x="61.279297" xlink:href="#DejaVuSans-66"/>
      <use x="96.484375" xlink:href="#DejaVuSans-6c"/>
     </g>
    </g>
   </g>
  </g>
 </g>
 <defs>
  <clipPath id="p3911711c67">
   <rect height="266.112" width="357.12" x="59.690625" y="22.318125"/>
  </clipPath>
 </defs>
</svg>
