<?xml version="1.0" encoding="utf-8" standalone="no"?>
<!DOCTYPE svg PUBLIC "-//W3C//DTD SVG 1.1//EN"
  "http://www.w3.org/Graphics/SVG/1.1/DTD/svg11.dtd">
<svg height="325.986375pt" version="1.1" viewBox="0 0 482.199688 325.986375" width="482.199688pt" xmlns="http://www.w3.org/2000/svg" xmlns:xlink="http://www.w3.org/1999/xlink">
 <metadata>
  <rdf:RDF xmlns:cc="http://creativecommons.org/ns#" xmlns:dc="http://purl.org/dc/elements/1.1/" xmlns:rdf="http://www.w3.org/1999/02/22-rdf-syntax-ns#">
   <cc:Work>
    <dc:type rdf:resource="http://purl.org/dc/dcmitype/StillImage"/>
    <dc:date>2022-06-02T16:12:20.539863</dc:date>
    <dc:format>image/svg+xml</dc:format>
    <dc:creator>
     <cc:Agent>
      <dc:title>Matplotlib v3.4.3, https://matplotlib.org/</dc:title>
     </cc:Agent>
    </dc:creator>
   </cc:Work>
  </rdf:RDF>
 </metadata>
 <defs>
  <style type="text/css">*{stroke-linecap:butt;stroke-linejoin:round;}</style>
 </defs>
 <g id="figure_1">
  <g id="patch_1">
   <path d="M 0 325.986375 
L 482.199688 325.986375 
L 482.199688 0 
L 0 0 
z
" style="fill:#ffffff;"/>
  </g>
  <g id="axes_1">
   <g id="patch_2">
    <path d="M 34.240625 288.430125 
L 391.360625 288.430125 
L 391.360625 22.318125 
L 34.240625 22.318125 
z
" style="fill:#ffffff;"/>
   </g>
   <g id="PolyCollection_1">
    <defs>
     <path d="M 50.473352 -49.65225 
L 50.473352 -49.65225 
L 54.040985 -49.65225 
L 57.608617 -49.65225 
L 61.176249 -49.65225 
L 64.743882 -49.65225 
L 68.311514 -86.870712 
L 71.879146 -86.870712 
L 75.446779 -86.870712 
L 79.014411 -86.870712 
L 82.582044 -86.870712 
L 86.149676 -86.870712 
L 89.717308 -86.870712 
L 93.284941 -86.870712 
L 96.852573 -86.870712 
L 100.420205 -86.870712 
L 103.987838 -86.870712 
L 107.55547 -86.870712 
L 111.123103 -86.870712 
L 114.690735 -86.870712 
L 118.258367 -86.870712 
L 121.826 -86.870712 
L 125.393632 -86.870712 
L 128.961264 -105.479942 
L 132.528897 -124.089173 
L 136.096529 -124.089173 
L 139.664161 -124.089173 
L 143.231794 -124.089173 
L 146.799426 -124.089173 
L 150.367059 -124.089173 
L 153.934691 -124.089173 
L 157.502323 -161.307635 
L 161.069956 -161.307635 
L 164.637588 -161.307635 
L 168.20522 -161.307635 
L 171.772853 -161.307635 
L 175.340485 -161.307635 
L 178.908118 -161.307635 
L 182.47575 -161.307635 
L 186.043382 -161.307635 
L 189.611015 -161.307635 
L 193.178647 -161.307635 
L 196.746279 -161.307635 
L 200.313912 -161.307635 
L 203.881544 -161.307635 
L 207.449176 -161.307635 
L 211.016809 -161.307635 
L 214.584441 -161.307635 
L 218.152074 -161.307635 
L 221.719706 -179.916865 
L 225.287338 -179.916865 
L 228.854971 -198.526096 
L 232.422603 -198.526096 
L 235.990235 -198.526096 
L 239.557868 -198.526096 
L 243.1255 -198.526096 
L 246.693132 -198.526096 
L 250.260765 -198.526096 
L 253.828397 -198.526096 
L 257.39603 -198.526096 
L 260.963662 -198.526096 
L 264.531294 -198.526096 
L 268.098927 -198.526096 
L 271.666559 -198.526096 
L 275.234191 -198.526096 
L 278.801824 -198.526096 
L 282.369456 -217.135327 
L 285.937089 -217.135327 
L 289.504721 -235.744558 
L 293.072353 -235.744558 
L 296.639986 -235.744558 
L 300.207618 -235.744558 
L 303.77525 -235.744558 
L 307.342883 -235.744558 
L 310.910515 -235.744558 
L 314.478147 -235.744558 
L 318.04578 -235.744558 
L 321.613412 -235.744558 
L 325.181045 -235.744558 
L 328.748677 -235.744558 
L 332.316309 -235.744558 
L 335.883942 -235.744558 
L 339.451574 -235.744558 
L 343.019206 -235.744558 
L 346.586839 -235.744558 
L 350.154471 -235.744558 
L 353.722104 -235.744558 
L 357.289736 -235.744558 
L 360.857368 -235.744558 
L 364.425001 -235.744558 
L 367.992633 -235.744558 
L 371.560265 -253.888558 
L 375.127898 -235.744558 
L 375.127898 -291.57225 
L 375.127898 -291.57225 
L 371.560265 -272.963019 
L 367.992633 -272.963019 
L 364.425001 -272.963019 
L 360.857368 -272.963019 
L 357.289736 -272.963019 
L 353.722104 -272.963019 
L 350.154471 -272.963019 
L 346.586839 -272.963019 
L 343.019206 -272.963019 
L 339.451574 -254.353788 
L 335.883942 -235.744558 
L 332.316309 -235.744558 
L 328.748677 -235.744558 
L 325.181045 -235.744558 
L 321.613412 -236.209788 
L 318.04578 -235.744558 
L 314.478147 -235.744558 
L 310.910515 -235.744558 
L 307.342883 -235.744558 
L 303.77525 -235.744558 
L 300.207618 -235.744558 
L 296.639986 -235.744558 
L 293.072353 -235.744558 
L 289.504721 -235.744558 
L 285.937089 -235.744558 
L 282.369456 -235.744558 
L 278.801824 -235.744558 
L 275.234191 -235.744558 
L 271.666559 -235.744558 
L 268.098927 -235.744558 
L 264.531294 -235.744558 
L 260.963662 -235.744558 
L 257.39603 -235.744558 
L 253.828397 -235.744558 
L 250.260765 -235.744558 
L 246.693132 -235.744558 
L 243.1255 -217.135327 
L 239.557868 -217.135327 
L 235.990235 -198.526096 
L 232.422603 -198.526096 
L 228.854971 -198.526096 
L 225.287338 -198.526096 
L 221.719706 -198.526096 
L 218.152074 -198.526096 
L 214.584441 -198.526096 
L 211.016809 -198.526096 
L 207.449176 -198.526096 
L 203.881544 -198.526096 
L 200.313912 -198.526096 
L 196.746279 -198.526096 
L 193.178647 -198.526096 
L 189.611015 -198.526096 
L 186.043382 -198.526096 
L 182.47575 -198.526096 
L 178.908118 -179.916865 
L 175.340485 -161.307635 
L 171.772853 -161.307635 
L 168.20522 -161.307635 
L 164.637588 -161.307635 
L 161.069956 -161.307635 
L 157.502323 -161.307635 
L 153.934691 -161.307635 
L 150.367059 -161.307635 
L 146.799426 -161.307635 
L 143.231794 -161.307635 
L 139.664161 -161.307635 
L 136.096529 -142.698404 
L 132.528897 -124.089173 
L 128.961264 -124.089173 
L 125.393632 -124.089173 
L 121.826 -124.089173 
L 118.258367 -124.089173 
L 114.690735 -124.089173 
L 111.123103 -124.089173 
L 107.55547 -124.089173 
L 103.987838 -124.089173 
L 100.420205 -105.479942 
L 96.852573 -86.870712 
L 93.284941 -86.870712 
L 89.717308 -86.870712 
L 86.149676 -86.870712 
L 82.582044 -86.870712 
L 79.014411 -86.870712 
L 75.446779 -86.870712 
L 71.879146 -86.870712 
L 68.311514 -86.870712 
L 64.743882 -86.870712 
L 61.176249 -86.870712 
L 57.608617 -86.870712 
L 54.040985 -49.65225 
L 50.473352 -49.65225 
z
" id="m269b057428" style="stroke:#98df8a;stroke-opacity:0.2;"/>
    </defs>
    <g clip-path="url(#pe21b320bbd)">
     <use style="fill:#98df8a;fill-opacity:0.2;stroke:#98df8a;stroke-opacity:0.2;" x="0" xlink:href="#m269b057428" y="325.986375"/>
    </g>
   </g>
   <g id="PolyCollection_2">
    <defs>
     <path d="M 50.473352 -49.65225 
L 50.473352 -49.65225 
L 54.040985 -49.65225 
L 57.608617 -49.65225 
L 61.176249 -49.65225 
L 64.743882 -49.65225 
L 68.311514 -49.65225 
L 71.879146 -49.65225 
L 75.446779 -49.65225 
L 79.014411 -49.65225 
L 82.582044 -49.65225 
L 86.149676 -49.65225 
L 89.717308 -49.65225 
L 93.284941 -49.65225 
L 96.852573 -49.65225 
L 100.420205 -49.65225 
L 103.987838 -49.65225 
L 107.55547 -49.65225 
L 111.123103 -49.65225 
L 114.690735 -49.65225 
L 118.258367 -49.65225 
L 121.826 -49.65225 
L 125.393632 -49.65225 
L 128.961264 -49.65225 
L 132.528897 -49.65225 
L 136.096529 -49.65225 
L 139.664161 -49.65225 
L 143.231794 -49.65225 
L 146.799426 -49.65225 
L 150.367059 -49.65225 
L 153.934691 -49.65225 
L 157.502323 -49.65225 
L 161.069956 -49.65225 
L 164.637588 -49.65225 
L 168.20522 -49.65225 
L 171.772853 -49.65225 
L 175.340485 -49.65225 
L 178.908118 -49.65225 
L 182.47575 -49.65225 
L 186.043382 -49.65225 
L 189.611015 -49.65225 
L 193.178647 -49.65225 
L 196.746279 -49.65225 
L 200.313912 -49.65225 
L 203.881544 -49.65225 
L 207.449176 -49.65225 
L 211.016809 -49.65225 
L 214.584441 -49.65225 
L 218.152074 -49.65225 
L 221.719706 -49.65225 
L 225.287338 -49.65225 
L 228.854971 -49.65225 
L 232.422603 -49.65225 
L 235.990235 -49.65225 
L 239.557868 -49.65225 
L 243.1255 -49.65225 
L 246.693132 -49.65225 
L 250.260765 -49.65225 
L 253.828397 -49.65225 
L 257.39603 -49.65225 
L 260.963662 -49.65225 
L 264.531294 -49.65225 
L 268.098927 -49.65225 
L 271.666559 -49.65225 
L 275.234191 -68.261481 
L 278.801824 -68.261481 
L 282.369456 -68.261481 
L 285.937089 -68.261481 
L 289.504721 -68.261481 
L 293.072353 -68.261481 
L 296.639986 -68.261481 
L 300.207618 -68.261481 
L 303.77525 -68.261481 
L 307.342883 -68.261481 
L 310.910515 -68.261481 
L 314.478147 -68.261481 
L 318.04578 -68.261481 
L 321.613412 -68.261481 
L 325.181045 -49.65225 
L 328.748677 -68.261481 
L 332.316309 -68.261481 
L 335.883942 -68.261481 
L 339.451574 -68.261481 
L 343.019206 -68.261481 
L 346.586839 -68.261481 
L 350.154471 -68.261481 
L 353.722104 -68.261481 
L 357.289736 -68.261481 
L 360.857368 -68.261481 
L 364.425001 -68.261481 
L 367.992633 -68.261481 
L 371.560265 -68.261481 
L 375.127898 -68.261481 
L 375.127898 -124.089173 
L 375.127898 -124.089173 
L 371.560265 -124.089173 
L 367.992633 -124.089173 
L 364.425001 -124.089173 
L 360.857368 -124.089173 
L 357.289736 -124.089173 
L 353.722104 -124.089173 
L 350.154471 -124.089173 
L 346.586839 -124.089173 
L 343.019206 -124.089173 
L 339.451574 -124.089173 
L 335.883942 -124.089173 
L 332.316309 -124.089173 
L 328.748677 -124.089173 
L 325.181045 -124.089173 
L 321.613412 -124.089173 
L 318.04578 -124.089173 
L 314.478147 -124.089173 
L 310.910515 -124.089173 
L 307.342883 -124.089173 
L 303.77525 -124.089173 
L 300.207618 -124.089173 
L 296.639986 -124.089173 
L 293.072353 -124.089173 
L 289.504721 -124.089173 
L 285.937089 -124.089173 
L 282.369456 -124.089173 
L 278.801824 -124.089173 
L 275.234191 -124.089173 
L 271.666559 -124.089173 
L 268.098927 -124.089173 
L 264.531294 -124.089173 
L 260.963662 -124.089173 
L 257.39603 -124.089173 
L 253.828397 -124.089173 
L 250.260765 -124.089173 
L 246.693132 -124.089173 
L 243.1255 -124.089173 
L 239.557868 -124.089173 
L 235.990235 -124.089173 
L 232.422603 -124.089173 
L 228.854971 -124.089173 
L 225.287338 -124.089173 
L 221.719706 -124.089173 
L 218.152074 -124.089173 
L 214.584441 -124.089173 
L 211.016809 -124.089173 
L 207.449176 -124.089173 
L 203.881544 -124.089173 
L 200.313912 -105.479942 
L 196.746279 -105.479942 
L 193.178647 -105.479942 
L 189.611015 -86.870712 
L 186.043382 -86.870712 
L 182.47575 -86.870712 
L 178.908118 -86.870712 
L 175.340485 -86.870712 
L 171.772853 -86.870712 
L 168.20522 -86.870712 
L 164.637588 -86.870712 
L 161.069956 -86.870712 
L 157.502323 -86.870712 
L 153.934691 -86.870712 
L 150.367059 -86.870712 
L 146.799426 -86.870712 
L 143.231794 -86.870712 
L 139.664161 -86.870712 
L 136.096529 -86.870712 
L 132.528897 -86.870712 
L 128.961264 -86.870712 
L 125.393632 -86.870712 
L 121.826 -86.870712 
L 118.258367 -86.870712 
L 114.690735 -86.870712 
L 111.123103 -86.870712 
L 107.55547 -68.261481 
L 103.987838 -68.261481 
L 100.420205 -68.261481 
L 96.852573 -68.261481 
L 93.284941 -68.261481 
L 89.717308 -68.261481 
L 86.149676 -49.65225 
L 82.582044 -49.65225 
L 79.014411 -49.65225 
L 75.446779 -49.65225 
L 71.879146 -49.65225 
L 68.311514 -49.65225 
L 64.743882 -49.65225 
L 61.176249 -49.65225 
L 57.608617 -49.65225 
L 54.040985 -49.65225 
L 50.473352 -49.65225 
z
" id="md61fa0788d" style="stroke:#1f77b4;stroke-opacity:0.2;"/>
    </defs>
    <g clip-path="url(#pe21b320bbd)">
     <use style="fill:#1f77b4;fill-opacity:0.2;stroke:#1f77b4;stroke-opacity:0.2;" x="0" xlink:href="#md61fa0788d" y="325.986375"/>
    </g>
   </g>
   <g id="matplotlib.axis_1">
    <g id="xtick_1">
     <g id="line2d_1">
      <defs>
       <path d="M 0 0 
L 0 3.5 
" id="ma55c0fc1cb" style="stroke:#000000;stroke-width:0.8;"/>
      </defs>
      <g>
       <use style="stroke:#000000;stroke-width:0.8;" x="50.473352" xlink:href="#ma55c0fc1cb" y="288.430125"/>
      </g>
     </g>
     <g id="text_1">
      <!-- 15m -->
      <g transform="translate(39.24054 303.028562)scale(0.1 -0.1)">
       <defs>
        <path d="M 794 531 
L 1825 531 
L 1825 4091 
L 703 3866 
L 703 4441 
L 1819 4666 
L 2450 4666 
L 2450 531 
L 3481 531 
L 3481 0 
L 794 0 
L 794 531 
z
" id="DejaVuSans-31" transform="scale(0.015625)"/>
        <path d="M 691 4666 
L 3169 4666 
L 3169 4134 
L 1269 4134 
L 1269 2991 
Q 1406 3038 1543 3061 
Q 1681 3084 1819 3084 
Q 2600 3084 3056 2656 
Q 3513 2228 3513 1497 
Q 3513 744 3044 326 
Q 2575 -91 1722 -91 
Q 1428 -91 1123 -41 
Q 819 9 494 109 
L 494 744 
Q 775 591 1075 516 
Q 1375 441 1709 441 
Q 2250 441 2565 725 
Q 2881 1009 2881 1497 
Q 2881 1984 2565 2268 
Q 2250 2553 1709 2553 
Q 1456 2553 1204 2497 
Q 953 2441 691 2322 
L 691 4666 
z
" id="DejaVuSans-35" transform="scale(0.015625)"/>
        <path d="M 3328 2828 
Q 3544 3216 3844 3400 
Q 4144 3584 4550 3584 
Q 5097 3584 5394 3201 
Q 5691 2819 5691 2113 
L 5691 0 
L 5113 0 
L 5113 2094 
Q 5113 2597 4934 2840 
Q 4756 3084 4391 3084 
Q 3944 3084 3684 2787 
Q 3425 2491 3425 1978 
L 3425 0 
L 2847 0 
L 2847 2094 
Q 2847 2600 2669 2842 
Q 2491 3084 2119 3084 
Q 1678 3084 1418 2786 
Q 1159 2488 1159 1978 
L 1159 0 
L 581 0 
L 581 3500 
L 1159 3500 
L 1159 2956 
Q 1356 3278 1631 3431 
Q 1906 3584 2284 3584 
Q 2666 3584 2933 3390 
Q 3200 3197 3328 2828 
z
" id="DejaVuSans-6d" transform="scale(0.015625)"/>
       </defs>
       <use xlink:href="#DejaVuSans-31"/>
       <use x="63.623047" xlink:href="#DejaVuSans-35"/>
       <use x="127.246094" xlink:href="#DejaVuSans-6d"/>
      </g>
     </g>
    </g>
    <g id="xtick_2">
     <g id="line2d_2">
      <g>
       <use style="stroke:#000000;stroke-width:0.8;" x="105.177049" xlink:href="#ma55c0fc1cb" y="288.430125"/>
      </g>
     </g>
     <g id="text_2">
      <!-- 4h:5m -->
      <g transform="translate(89.091111 303.028562)scale(0.1 -0.1)">
       <defs>
        <path d="M 2419 4116 
L 825 1625 
L 2419 1625 
L 2419 4116 
z
M 2253 4666 
L 3047 4666 
L 3047 1625 
L 3713 1625 
L 3713 1100 
L 3047 1100 
L 3047 0 
L 2419 0 
L 2419 1100 
L 313 1100 
L 313 1709 
L 2253 4666 
z
" id="DejaVuSans-34" transform="scale(0.015625)"/>
        <path d="M 3513 2113 
L 3513 0 
L 2938 0 
L 2938 2094 
Q 2938 2591 2744 2837 
Q 2550 3084 2163 3084 
Q 1697 3084 1428 2787 
Q 1159 2491 1159 1978 
L 1159 0 
L 581 0 
L 581 4863 
L 1159 4863 
L 1159 2956 
Q 1366 3272 1645 3428 
Q 1925 3584 2291 3584 
Q 2894 3584 3203 3211 
Q 3513 2838 3513 2113 
z
" id="DejaVuSans-68" transform="scale(0.015625)"/>
        <path d="M 750 794 
L 1409 794 
L 1409 0 
L 750 0 
L 750 794 
z
M 750 3309 
L 1409 3309 
L 1409 2516 
L 750 2516 
L 750 3309 
z
" id="DejaVuSans-3a" transform="scale(0.015625)"/>
       </defs>
       <use xlink:href="#DejaVuSans-34"/>
       <use x="63.623047" xlink:href="#DejaVuSans-68"/>
       <use x="127.001953" xlink:href="#DejaVuSans-3a"/>
       <use x="160.693359" xlink:href="#DejaVuSans-35"/>
       <use x="224.316406" xlink:href="#DejaVuSans-6d"/>
      </g>
     </g>
    </g>
    <g id="xtick_3">
     <g id="line2d_3">
      <g>
       <use style="stroke:#000000;stroke-width:0.8;" x="159.880745" xlink:href="#ma55c0fc1cb" y="288.430125"/>
      </g>
     </g>
     <g id="text_3">
      <!-- 7h:55m -->
      <g transform="translate(140.613557 303.028562)scale(0.1 -0.1)">
       <defs>
        <path d="M 525 4666 
L 3525 4666 
L 3525 4397 
L 1831 0 
L 1172 0 
L 2766 4134 
L 525 4134 
L 525 4666 
z
" id="DejaVuSans-37" transform="scale(0.015625)"/>
       </defs>
       <use xlink:href="#DejaVuSans-37"/>
       <use x="63.623047" xlink:href="#DejaVuSans-68"/>
       <use x="127.001953" xlink:href="#DejaVuSans-3a"/>
       <use x="160.693359" xlink:href="#DejaVuSans-35"/>
       <use x="224.316406" xlink:href="#DejaVuSans-35"/>
       <use x="287.939453" xlink:href="#DejaVuSans-6d"/>
      </g>
     </g>
    </g>
    <g id="xtick_4">
     <g id="line2d_4">
      <g>
       <use style="stroke:#000000;stroke-width:0.8;" x="214.584441" xlink:href="#ma55c0fc1cb" y="288.430125"/>
      </g>
     </g>
     <g id="text_4">
      <!-- 11h:45m -->
      <g transform="translate(192.136004 303.028562)scale(0.1 -0.1)">
       <use xlink:href="#DejaVuSans-31"/>
       <use x="63.623047" xlink:href="#DejaVuSans-31"/>
       <use x="127.246094" xlink:href="#DejaVuSans-68"/>
       <use x="190.625" xlink:href="#DejaVuSans-3a"/>
       <use x="224.316406" xlink:href="#DejaVuSans-34"/>
       <use x="287.939453" xlink:href="#DejaVuSans-35"/>
       <use x="351.5625" xlink:href="#DejaVuSans-6d"/>
      </g>
     </g>
    </g>
    <g id="xtick_5">
     <g id="line2d_5">
      <g>
       <use style="stroke:#000000;stroke-width:0.8;" x="269.288137" xlink:href="#ma55c0fc1cb" y="288.430125"/>
      </g>
     </g>
     <g id="text_5">
      <!-- 15h:35m -->
      <g transform="translate(246.8397 303.028562)scale(0.1 -0.1)">
       <defs>
        <path d="M 2597 2516 
Q 3050 2419 3304 2112 
Q 3559 1806 3559 1356 
Q 3559 666 3084 287 
Q 2609 -91 1734 -91 
Q 1441 -91 1130 -33 
Q 819 25 488 141 
L 488 750 
Q 750 597 1062 519 
Q 1375 441 1716 441 
Q 2309 441 2620 675 
Q 2931 909 2931 1356 
Q 2931 1769 2642 2001 
Q 2353 2234 1838 2234 
L 1294 2234 
L 1294 2753 
L 1863 2753 
Q 2328 2753 2575 2939 
Q 2822 3125 2822 3475 
Q 2822 3834 2567 4026 
Q 2313 4219 1838 4219 
Q 1578 4219 1281 4162 
Q 984 4106 628 3988 
L 628 4550 
Q 988 4650 1302 4700 
Q 1616 4750 1894 4750 
Q 2613 4750 3031 4423 
Q 3450 4097 3450 3541 
Q 3450 3153 3228 2886 
Q 3006 2619 2597 2516 
z
" id="DejaVuSans-33" transform="scale(0.015625)"/>
       </defs>
       <use xlink:href="#DejaVuSans-31"/>
       <use x="63.623047" xlink:href="#DejaVuSans-35"/>
       <use x="127.246094" xlink:href="#DejaVuSans-68"/>
       <use x="190.625" xlink:href="#DejaVuSans-3a"/>
       <use x="224.316406" xlink:href="#DejaVuSans-33"/>
       <use x="287.939453" xlink:href="#DejaVuSans-35"/>
       <use x="351.5625" xlink:href="#DejaVuSans-6d"/>
      </g>
     </g>
    </g>
    <g id="xtick_6">
     <g id="line2d_6">
      <g>
       <use style="stroke:#000000;stroke-width:0.8;" x="323.991834" xlink:href="#ma55c0fc1cb" y="288.430125"/>
      </g>
     </g>
     <g id="text_6">
      <!-- 19h:25m -->
      <g transform="translate(301.543396 303.028562)scale(0.1 -0.1)">
       <defs>
        <path d="M 703 97 
L 703 672 
Q 941 559 1184 500 
Q 1428 441 1663 441 
Q 2288 441 2617 861 
Q 2947 1281 2994 2138 
Q 2813 1869 2534 1725 
Q 2256 1581 1919 1581 
Q 1219 1581 811 2004 
Q 403 2428 403 3163 
Q 403 3881 828 4315 
Q 1253 4750 1959 4750 
Q 2769 4750 3195 4129 
Q 3622 3509 3622 2328 
Q 3622 1225 3098 567 
Q 2575 -91 1691 -91 
Q 1453 -91 1209 -44 
Q 966 3 703 97 
z
M 1959 2075 
Q 2384 2075 2632 2365 
Q 2881 2656 2881 3163 
Q 2881 3666 2632 3958 
Q 2384 4250 1959 4250 
Q 1534 4250 1286 3958 
Q 1038 3666 1038 3163 
Q 1038 2656 1286 2365 
Q 1534 2075 1959 2075 
z
" id="DejaVuSans-39" transform="scale(0.015625)"/>
        <path d="M 1228 531 
L 3431 531 
L 3431 0 
L 469 0 
L 469 531 
Q 828 903 1448 1529 
Q 2069 2156 2228 2338 
Q 2531 2678 2651 2914 
Q 2772 3150 2772 3378 
Q 2772 3750 2511 3984 
Q 2250 4219 1831 4219 
Q 1534 4219 1204 4116 
Q 875 4013 500 3803 
L 500 4441 
Q 881 4594 1212 4672 
Q 1544 4750 1819 4750 
Q 2544 4750 2975 4387 
Q 3406 4025 3406 3419 
Q 3406 3131 3298 2873 
Q 3191 2616 2906 2266 
Q 2828 2175 2409 1742 
Q 1991 1309 1228 531 
z
" id="DejaVuSans-32" transform="scale(0.015625)"/>
       </defs>
       <use xlink:href="#DejaVuSans-31"/>
       <use x="63.623047" xlink:href="#DejaVuSans-39"/>
       <use x="127.246094" xlink:href="#DejaVuSans-68"/>
       <use x="190.625" xlink:href="#DejaVuSans-3a"/>
       <use x="224.316406" xlink:href="#DejaVuSans-32"/>
       <use x="287.939453" xlink:href="#DejaVuSans-35"/>
       <use x="351.5625" xlink:href="#DejaVuSans-6d"/>
      </g>
     </g>
    </g>
    <g id="text_7">
     <!-- Time (hour:minute) -->
     <g transform="translate(164.393594 316.706687)scale(0.1 -0.1)">
      <defs>
       <path d="M -19 4666 
L 3928 4666 
L 3928 4134 
L 2272 4134 
L 2272 0 
L 1638 0 
L 1638 4134 
L -19 4134 
L -19 4666 
z
" id="DejaVuSans-54" transform="scale(0.015625)"/>
       <path d="M 603 3500 
L 1178 3500 
L 1178 0 
L 603 0 
L 603 3500 
z
M 603 4863 
L 1178 4863 
L 1178 4134 
L 603 4134 
L 603 4863 
z
" id="DejaVuSans-69" transform="scale(0.015625)"/>
       <path d="M 3597 1894 
L 3597 1613 
L 953 1613 
Q 991 1019 1311 708 
Q 1631 397 2203 397 
Q 2534 397 2845 478 
Q 3156 559 3463 722 
L 3463 178 
Q 3153 47 2828 -22 
Q 2503 -91 2169 -91 
Q 1331 -91 842 396 
Q 353 884 353 1716 
Q 353 2575 817 3079 
Q 1281 3584 2069 3584 
Q 2775 3584 3186 3129 
Q 3597 2675 3597 1894 
z
M 3022 2063 
Q 3016 2534 2758 2815 
Q 2500 3097 2075 3097 
Q 1594 3097 1305 2825 
Q 1016 2553 972 2059 
L 3022 2063 
z
" id="DejaVuSans-65" transform="scale(0.015625)"/>
       <path id="DejaVuSans-20" transform="scale(0.015625)"/>
       <path d="M 1984 4856 
Q 1566 4138 1362 3434 
Q 1159 2731 1159 2009 
Q 1159 1288 1364 580 
Q 1569 -128 1984 -844 
L 1484 -844 
Q 1016 -109 783 600 
Q 550 1309 550 2009 
Q 550 2706 781 3412 
Q 1013 4119 1484 4856 
L 1984 4856 
z
" id="DejaVuSans-28" transform="scale(0.015625)"/>
       <path d="M 1959 3097 
Q 1497 3097 1228 2736 
Q 959 2375 959 1747 
Q 959 1119 1226 758 
Q 1494 397 1959 397 
Q 2419 397 2687 759 
Q 2956 1122 2956 1747 
Q 2956 2369 2687 2733 
Q 2419 3097 1959 3097 
z
M 1959 3584 
Q 2709 3584 3137 3096 
Q 3566 2609 3566 1747 
Q 3566 888 3137 398 
Q 2709 -91 1959 -91 
Q 1206 -91 779 398 
Q 353 888 353 1747 
Q 353 2609 779 3096 
Q 1206 3584 1959 3584 
z
" id="DejaVuSans-6f" transform="scale(0.015625)"/>
       <path d="M 544 1381 
L 544 3500 
L 1119 3500 
L 1119 1403 
Q 1119 906 1312 657 
Q 1506 409 1894 409 
Q 2359 409 2629 706 
Q 2900 1003 2900 1516 
L 2900 3500 
L 3475 3500 
L 3475 0 
L 2900 0 
L 2900 538 
Q 2691 219 2414 64 
Q 2138 -91 1772 -91 
Q 1169 -91 856 284 
Q 544 659 544 1381 
z
M 1991 3584 
L 1991 3584 
z
" id="DejaVuSans-75" transform="scale(0.015625)"/>
       <path d="M 2631 2963 
Q 2534 3019 2420 3045 
Q 2306 3072 2169 3072 
Q 1681 3072 1420 2755 
Q 1159 2438 1159 1844 
L 1159 0 
L 581 0 
L 581 3500 
L 1159 3500 
L 1159 2956 
Q 1341 3275 1631 3429 
Q 1922 3584 2338 3584 
Q 2397 3584 2469 3576 
Q 2541 3569 2628 3553 
L 2631 2963 
z
" id="DejaVuSans-72" transform="scale(0.015625)"/>
       <path d="M 3513 2113 
L 3513 0 
L 2938 0 
L 2938 2094 
Q 2938 2591 2744 2837 
Q 2550 3084 2163 3084 
Q 1697 3084 1428 2787 
Q 1159 2491 1159 1978 
L 1159 0 
L 581 0 
L 581 3500 
L 1159 3500 
L 1159 2956 
Q 1366 3272 1645 3428 
Q 1925 3584 2291 3584 
Q 2894 3584 3203 3211 
Q 3513 2838 3513 2113 
z
" id="DejaVuSans-6e" transform="scale(0.015625)"/>
       <path d="M 1172 4494 
L 1172 3500 
L 2356 3500 
L 2356 3053 
L 1172 3053 
L 1172 1153 
Q 1172 725 1289 603 
Q 1406 481 1766 481 
L 2356 481 
L 2356 0 
L 1766 0 
Q 1100 0 847 248 
Q 594 497 594 1153 
L 594 3053 
L 172 3053 
L 172 3500 
L 594 3500 
L 594 4494 
L 1172 4494 
z
" id="DejaVuSans-74" transform="scale(0.015625)"/>
       <path d="M 513 4856 
L 1013 4856 
Q 1481 4119 1714 3412 
Q 1947 2706 1947 2009 
Q 1947 1309 1714 600 
Q 1481 -109 1013 -844 
L 513 -844 
Q 928 -128 1133 580 
Q 1338 1288 1338 2009 
Q 1338 2731 1133 3434 
Q 928 4138 513 4856 
z
" id="DejaVuSans-29" transform="scale(0.015625)"/>
      </defs>
      <use xlink:href="#DejaVuSans-54"/>
      <use x="57.958984" xlink:href="#DejaVuSans-69"/>
      <use x="85.742188" xlink:href="#DejaVuSans-6d"/>
      <use x="183.154297" xlink:href="#DejaVuSans-65"/>
      <use x="244.677734" xlink:href="#DejaVuSans-20"/>
      <use x="276.464844" xlink:href="#DejaVuSans-28"/>
      <use x="315.478516" xlink:href="#DejaVuSans-68"/>
      <use x="378.857422" xlink:href="#DejaVuSans-6f"/>
      <use x="440.039062" xlink:href="#DejaVuSans-75"/>
      <use x="503.417969" xlink:href="#DejaVuSans-72"/>
      <use x="542.78125" xlink:href="#DejaVuSans-3a"/>
      <use x="576.472656" xlink:href="#DejaVuSans-6d"/>
      <use x="673.884766" xlink:href="#DejaVuSans-69"/>
      <use x="701.667969" xlink:href="#DejaVuSans-6e"/>
      <use x="765.046875" xlink:href="#DejaVuSans-75"/>
      <use x="828.425781" xlink:href="#DejaVuSans-74"/>
      <use x="867.634766" xlink:href="#DejaVuSans-65"/>
      <use x="929.158203" xlink:href="#DejaVuSans-29"/>
     </g>
    </g>
   </g>
   <g id="matplotlib.axis_2">
    <g id="ytick_1">
     <g id="line2d_7">
      <defs>
       <path d="M 0 0 
L -3.5 0 
" id="mf3bd8030a9" style="stroke:#000000;stroke-width:0.8;"/>
      </defs>
      <g>
       <use style="stroke:#000000;stroke-width:0.8;" x="34.240625" xlink:href="#mf3bd8030a9" y="276.334125"/>
      </g>
     </g>
     <g id="text_8">
      <!-- 0 -->
      <g transform="translate(20.878125 280.133344)scale(0.1 -0.1)">
       <defs>
        <path d="M 2034 4250 
Q 1547 4250 1301 3770 
Q 1056 3291 1056 2328 
Q 1056 1369 1301 889 
Q 1547 409 2034 409 
Q 2525 409 2770 889 
Q 3016 1369 3016 2328 
Q 3016 3291 2770 3770 
Q 2525 4250 2034 4250 
z
M 2034 4750 
Q 2819 4750 3233 4129 
Q 3647 3509 3647 2328 
Q 3647 1150 3233 529 
Q 2819 -91 2034 -91 
Q 1250 -91 836 529 
Q 422 1150 422 2328 
Q 422 3509 836 4129 
Q 1250 4750 2034 4750 
z
" id="DejaVuSans-30" transform="scale(0.015625)"/>
       </defs>
       <use xlink:href="#DejaVuSans-30"/>
      </g>
     </g>
    </g>
    <g id="ytick_2">
     <g id="line2d_8">
      <g>
       <use style="stroke:#000000;stroke-width:0.8;" x="34.240625" xlink:href="#mf3bd8030a9" y="239.115663"/>
      </g>
     </g>
     <g id="text_9">
      <!-- 1 -->
      <g transform="translate(20.878125 242.914882)scale(0.1 -0.1)">
       <use xlink:href="#DejaVuSans-31"/>
      </g>
     </g>
    </g>
    <g id="ytick_3">
     <g id="line2d_9">
      <g>
       <use style="stroke:#000000;stroke-width:0.8;" x="34.240625" xlink:href="#mf3bd8030a9" y="201.897202"/>
      </g>
     </g>
     <g id="text_10">
      <!-- 2 -->
      <g transform="translate(20.878125 205.696421)scale(0.1 -0.1)">
       <use xlink:href="#DejaVuSans-32"/>
      </g>
     </g>
    </g>
    <g id="ytick_4">
     <g id="line2d_10">
      <g>
       <use style="stroke:#000000;stroke-width:0.8;" x="34.240625" xlink:href="#mf3bd8030a9" y="164.67874"/>
      </g>
     </g>
     <g id="text_11">
      <!-- 3 -->
      <g transform="translate(20.878125 168.477959)scale(0.1 -0.1)">
       <use xlink:href="#DejaVuSans-33"/>
      </g>
     </g>
    </g>
    <g id="ytick_5">
     <g id="line2d_11">
      <g>
       <use style="stroke:#000000;stroke-width:0.8;" x="34.240625" xlink:href="#mf3bd8030a9" y="127.460279"/>
      </g>
     </g>
     <g id="text_12">
      <!-- 4 -->
      <g transform="translate(20.878125 131.259498)scale(0.1 -0.1)">
       <use xlink:href="#DejaVuSans-34"/>
      </g>
     </g>
    </g>
    <g id="ytick_6">
     <g id="line2d_12">
      <g>
       <use style="stroke:#000000;stroke-width:0.8;" x="34.240625" xlink:href="#mf3bd8030a9" y="90.241817"/>
      </g>
     </g>
     <g id="text_13">
      <!-- 5 -->
      <g transform="translate(20.878125 94.041036)scale(0.1 -0.1)">
       <use xlink:href="#DejaVuSans-35"/>
      </g>
     </g>
    </g>
    <g id="ytick_7">
     <g id="line2d_13">
      <g>
       <use style="stroke:#000000;stroke-width:0.8;" x="34.240625" xlink:href="#mf3bd8030a9" y="53.023356"/>
      </g>
     </g>
     <g id="text_14">
      <!-- 6 -->
      <g transform="translate(20.878125 56.822575)scale(0.1 -0.1)">
       <defs>
        <path d="M 2113 2584 
Q 1688 2584 1439 2293 
Q 1191 2003 1191 1497 
Q 1191 994 1439 701 
Q 1688 409 2113 409 
Q 2538 409 2786 701 
Q 3034 994 3034 1497 
Q 3034 2003 2786 2293 
Q 2538 2584 2113 2584 
z
M 3366 4563 
L 3366 3988 
Q 3128 4100 2886 4159 
Q 2644 4219 2406 4219 
Q 1781 4219 1451 3797 
Q 1122 3375 1075 2522 
Q 1259 2794 1537 2939 
Q 1816 3084 2150 3084 
Q 2853 3084 3261 2657 
Q 3669 2231 3669 1497 
Q 3669 778 3244 343 
Q 2819 -91 2113 -91 
Q 1303 -91 875 529 
Q 447 1150 447 2328 
Q 447 3434 972 4092 
Q 1497 4750 2381 4750 
Q 2619 4750 2861 4703 
Q 3103 4656 3366 4563 
z
" id="DejaVuSans-36" transform="scale(0.015625)"/>
       </defs>
       <use xlink:href="#DejaVuSans-36"/>
      </g>
     </g>
    </g>
    <g id="text_15">
     <!-- Bug coverage -->
     <g transform="translate(14.798438 189.951469)rotate(-90)scale(0.1 -0.1)">
      <defs>
       <path d="M 1259 2228 
L 1259 519 
L 2272 519 
Q 2781 519 3026 730 
Q 3272 941 3272 1375 
Q 3272 1813 3026 2020 
Q 2781 2228 2272 2228 
L 1259 2228 
z
M 1259 4147 
L 1259 2741 
L 2194 2741 
Q 2656 2741 2882 2914 
Q 3109 3088 3109 3444 
Q 3109 3797 2882 3972 
Q 2656 4147 2194 4147 
L 1259 4147 
z
M 628 4666 
L 2241 4666 
Q 2963 4666 3353 4366 
Q 3744 4066 3744 3513 
Q 3744 3084 3544 2831 
Q 3344 2578 2956 2516 
Q 3422 2416 3680 2098 
Q 3938 1781 3938 1306 
Q 3938 681 3513 340 
Q 3088 0 2303 0 
L 628 0 
L 628 4666 
z
" id="DejaVuSans-42" transform="scale(0.015625)"/>
       <path d="M 2906 1791 
Q 2906 2416 2648 2759 
Q 2391 3103 1925 3103 
Q 1463 3103 1205 2759 
Q 947 2416 947 1791 
Q 947 1169 1205 825 
Q 1463 481 1925 481 
Q 2391 481 2648 825 
Q 2906 1169 2906 1791 
z
M 3481 434 
Q 3481 -459 3084 -895 
Q 2688 -1331 1869 -1331 
Q 1566 -1331 1297 -1286 
Q 1028 -1241 775 -1147 
L 775 -588 
Q 1028 -725 1275 -790 
Q 1522 -856 1778 -856 
Q 2344 -856 2625 -561 
Q 2906 -266 2906 331 
L 2906 616 
Q 2728 306 2450 153 
Q 2172 0 1784 0 
Q 1141 0 747 490 
Q 353 981 353 1791 
Q 353 2603 747 3093 
Q 1141 3584 1784 3584 
Q 2172 3584 2450 3431 
Q 2728 3278 2906 2969 
L 2906 3500 
L 3481 3500 
L 3481 434 
z
" id="DejaVuSans-67" transform="scale(0.015625)"/>
       <path d="M 3122 3366 
L 3122 2828 
Q 2878 2963 2633 3030 
Q 2388 3097 2138 3097 
Q 1578 3097 1268 2742 
Q 959 2388 959 1747 
Q 959 1106 1268 751 
Q 1578 397 2138 397 
Q 2388 397 2633 464 
Q 2878 531 3122 666 
L 3122 134 
Q 2881 22 2623 -34 
Q 2366 -91 2075 -91 
Q 1284 -91 818 406 
Q 353 903 353 1747 
Q 353 2603 823 3093 
Q 1294 3584 2113 3584 
Q 2378 3584 2631 3529 
Q 2884 3475 3122 3366 
z
" id="DejaVuSans-63" transform="scale(0.015625)"/>
       <path d="M 191 3500 
L 800 3500 
L 1894 563 
L 2988 3500 
L 3597 3500 
L 2284 0 
L 1503 0 
L 191 3500 
z
" id="DejaVuSans-76" transform="scale(0.015625)"/>
       <path d="M 2194 1759 
Q 1497 1759 1228 1600 
Q 959 1441 959 1056 
Q 959 750 1161 570 
Q 1363 391 1709 391 
Q 2188 391 2477 730 
Q 2766 1069 2766 1631 
L 2766 1759 
L 2194 1759 
z
M 3341 1997 
L 3341 0 
L 2766 0 
L 2766 531 
Q 2569 213 2275 61 
Q 1981 -91 1556 -91 
Q 1019 -91 701 211 
Q 384 513 384 1019 
Q 384 1609 779 1909 
Q 1175 2209 1959 2209 
L 2766 2209 
L 2766 2266 
Q 2766 2663 2505 2880 
Q 2244 3097 1772 3097 
Q 1472 3097 1187 3025 
Q 903 2953 641 2809 
L 641 3341 
Q 956 3463 1253 3523 
Q 1550 3584 1831 3584 
Q 2591 3584 2966 3190 
Q 3341 2797 3341 1997 
z
" id="DejaVuSans-61" transform="scale(0.015625)"/>
      </defs>
      <use xlink:href="#DejaVuSans-42"/>
      <use x="68.603516" xlink:href="#DejaVuSans-75"/>
      <use x="131.982422" xlink:href="#DejaVuSans-67"/>
      <use x="195.458984" xlink:href="#DejaVuSans-20"/>
      <use x="227.246094" xlink:href="#DejaVuSans-63"/>
      <use x="282.226562" xlink:href="#DejaVuSans-6f"/>
      <use x="343.408203" xlink:href="#DejaVuSans-76"/>
      <use x="402.587891" xlink:href="#DejaVuSans-65"/>
      <use x="464.111328" xlink:href="#DejaVuSans-72"/>
      <use x="505.224609" xlink:href="#DejaVuSans-61"/>
      <use x="566.503906" xlink:href="#DejaVuSans-67"/>
      <use x="629.980469" xlink:href="#DejaVuSans-65"/>
     </g>
    </g>
   </g>
   <g id="line2d_14">
    <path clip-path="url(#pe21b320bbd)" d="M 50.473352 276.334125 
L 54.040985 276.334125 
L 57.608617 276.334125 
L 61.176249 257.724894 
L 64.743882 239.115663 
L 68.311514 239.115663 
L 71.879146 239.115663 
L 75.446779 239.115663 
L 79.014411 239.115663 
L 82.582044 239.115663 
L 86.149676 239.115663 
L 89.717308 239.115663 
L 93.284941 239.115663 
L 96.852573 239.115663 
L 100.420205 239.115663 
L 103.987838 239.115663 
L 107.55547 239.115663 
L 111.123103 220.506433 
L 114.690735 220.506433 
L 118.258367 201.897202 
L 121.826 201.897202 
L 125.393632 201.897202 
L 128.961264 201.897202 
L 132.528897 201.897202 
L 136.096529 201.897202 
L 139.664161 201.897202 
L 143.231794 201.897202 
L 146.799426 201.897202 
L 150.367059 164.67874 
L 153.934691 164.67874 
L 157.502323 164.67874 
L 161.069956 164.67874 
L 164.637588 164.67874 
L 168.20522 164.67874 
L 171.772853 164.67874 
L 175.340485 164.67874 
L 178.908118 164.67874 
L 182.47575 164.67874 
L 186.043382 164.67874 
L 189.611015 164.67874 
L 193.178647 164.67874 
L 196.746279 164.67874 
L 200.313912 164.67874 
L 203.881544 164.67874 
L 207.449176 164.67874 
L 211.016809 164.67874 
L 214.584441 164.67874 
L 218.152074 127.460279 
L 221.719706 127.460279 
L 225.287338 127.460279 
L 228.854971 127.460279 
L 232.422603 127.460279 
L 235.990235 127.460279 
L 239.557868 127.460279 
L 243.1255 127.460279 
L 246.693132 127.460279 
L 250.260765 108.851048 
L 253.828397 108.851048 
L 257.39603 90.241817 
L 260.963662 90.241817 
L 264.531294 90.241817 
L 268.098927 90.241817 
L 271.666559 90.241817 
L 275.234191 90.241817 
L 278.801824 90.241817 
L 282.369456 90.241817 
L 285.937089 90.241817 
L 289.504721 90.241817 
L 293.072353 90.241817 
L 296.639986 90.241817 
L 300.207618 90.241817 
L 303.77525 90.241817 
L 307.342883 90.241817 
L 310.910515 90.241817 
L 314.478147 90.241817 
L 318.04578 90.241817 
L 321.613412 90.241817 
L 325.181045 90.241817 
L 328.748677 90.241817 
L 332.316309 90.241817 
L 335.883942 90.241817 
L 339.451574 90.241817 
L 343.019206 90.241817 
L 346.586839 90.241817 
L 350.154471 90.241817 
L 353.722104 90.241817 
L 357.289736 71.632587 
L 360.857368 71.632587 
L 364.425001 53.023356 
L 367.992633 53.023356 
L 371.560265 53.023356 
L 375.127898 53.023356 
" style="fill:none;stroke:#98df8a;stroke-linecap:square;stroke-width:1.5;"/>
    <defs>
     <path d="M -0 3 
L 3 -3 
L -3 -3 
z
" id="m8906a7aa21" style="stroke:#ffffff;stroke-linejoin:miter;stroke-width:0.75;"/>
    </defs>
    <g clip-path="url(#pe21b320bbd)">
     <use style="fill:#98df8a;stroke:#ffffff;stroke-linejoin:miter;stroke-width:0.75;" x="50.473352" xlink:href="#m8906a7aa21" y="276.334125"/>
     <use style="fill:#98df8a;stroke:#ffffff;stroke-linejoin:miter;stroke-width:0.75;" x="54.040985" xlink:href="#m8906a7aa21" y="276.334125"/>
     <use style="fill:#98df8a;stroke:#ffffff;stroke-linejoin:miter;stroke-width:0.75;" x="57.608617" xlink:href="#m8906a7aa21" y="276.334125"/>
     <use style="fill:#98df8a;stroke:#ffffff;stroke-linejoin:miter;stroke-width:0.75;" x="61.176249" xlink:href="#m8906a7aa21" y="257.724894"/>
     <use style="fill:#98df8a;stroke:#ffffff;stroke-linejoin:miter;stroke-width:0.75;" x="64.743882" xlink:href="#m8906a7aa21" y="239.115663"/>
     <use style="fill:#98df8a;stroke:#ffffff;stroke-linejoin:miter;stroke-width:0.75;" x="68.311514" xlink:href="#m8906a7aa21" y="239.115663"/>
     <use style="fill:#98df8a;stroke:#ffffff;stroke-linejoin:miter;stroke-width:0.75;" x="71.879146" xlink:href="#m8906a7aa21" y="239.115663"/>
     <use style="fill:#98df8a;stroke:#ffffff;stroke-linejoin:miter;stroke-width:0.75;" x="75.446779" xlink:href="#m8906a7aa21" y="239.115663"/>
     <use style="fill:#98df8a;stroke:#ffffff;stroke-linejoin:miter;stroke-width:0.75;" x="79.014411" xlink:href="#m8906a7aa21" y="239.115663"/>
     <use style="fill:#98df8a;stroke:#ffffff;stroke-linejoin:miter;stroke-width:0.75;" x="82.582044" xlink:href="#m8906a7aa21" y="239.115663"/>
     <use style="fill:#98df8a;stroke:#ffffff;stroke-linejoin:miter;stroke-width:0.75;" x="86.149676" xlink:href="#m8906a7aa21" y="239.115663"/>
     <use style="fill:#98df8a;stroke:#ffffff;stroke-linejoin:miter;stroke-width:0.75;" x="89.717308" xlink:href="#m8906a7aa21" y="239.115663"/>
     <use style="fill:#98df8a;stroke:#ffffff;stroke-linejoin:miter;stroke-width:0.75;" x="93.284941" xlink:href="#m8906a7aa21" y="239.115663"/>
     <use style="fill:#98df8a;stroke:#ffffff;stroke-linejoin:miter;stroke-width:0.75;" x="96.852573" xlink:href="#m8906a7aa21" y="239.115663"/>
     <use style="fill:#98df8a;stroke:#ffffff;stroke-linejoin:miter;stroke-width:0.75;" x="100.420205" xlink:href="#m8906a7aa21" y="239.115663"/>
     <use style="fill:#98df8a;stroke:#ffffff;stroke-linejoin:miter;stroke-width:0.75;" x="103.987838" xlink:href="#m8906a7aa21" y="239.115663"/>
     <use style="fill:#98df8a;stroke:#ffffff;stroke-linejoin:miter;stroke-width:0.75;" x="107.55547" xlink:href="#m8906a7aa21" y="239.115663"/>
     <use style="fill:#98df8a;stroke:#ffffff;stroke-linejoin:miter;stroke-width:0.75;" x="111.123103" xlink:href="#m8906a7aa21" y="220.506433"/>
     <use style="fill:#98df8a;stroke:#ffffff;stroke-linejoin:miter;stroke-width:0.75;" x="114.690735" xlink:href="#m8906a7aa21" y="220.506433"/>
     <use style="fill:#98df8a;stroke:#ffffff;stroke-linejoin:miter;stroke-width:0.75;" x="118.258367" xlink:href="#m8906a7aa21" y="201.897202"/>
     <use style="fill:#98df8a;stroke:#ffffff;stroke-linejoin:miter;stroke-width:0.75;" x="121.826" xlink:href="#m8906a7aa21" y="201.897202"/>
     <use style="fill:#98df8a;stroke:#ffffff;stroke-linejoin:miter;stroke-width:0.75;" x="125.393632" xlink:href="#m8906a7aa21" y="201.897202"/>
     <use style="fill:#98df8a;stroke:#ffffff;stroke-linejoin:miter;stroke-width:0.75;" x="128.961264" xlink:href="#m8906a7aa21" y="201.897202"/>
     <use style="fill:#98df8a;stroke:#ffffff;stroke-linejoin:miter;stroke-width:0.75;" x="132.528897" xlink:href="#m8906a7aa21" y="201.897202"/>
     <use style="fill:#98df8a;stroke:#ffffff;stroke-linejoin:miter;stroke-width:0.75;" x="136.096529" xlink:href="#m8906a7aa21" y="201.897202"/>
     <use style="fill:#98df8a;stroke:#ffffff;stroke-linejoin:miter;stroke-width:0.75;" x="139.664161" xlink:href="#m8906a7aa21" y="201.897202"/>
     <use style="fill:#98df8a;stroke:#ffffff;stroke-linejoin:miter;stroke-width:0.75;" x="143.231794" xlink:href="#m8906a7aa21" y="201.897202"/>
     <use style="fill:#98df8a;stroke:#ffffff;stroke-linejoin:miter;stroke-width:0.75;" x="146.799426" xlink:href="#m8906a7aa21" y="201.897202"/>
     <use style="fill:#98df8a;stroke:#ffffff;stroke-linejoin:miter;stroke-width:0.75;" x="150.367059" xlink:href="#m8906a7aa21" y="164.67874"/>
     <use style="fill:#98df8a;stroke:#ffffff;stroke-linejoin:miter;stroke-width:0.75;" x="153.934691" xlink:href="#m8906a7aa21" y="164.67874"/>
     <use style="fill:#98df8a;stroke:#ffffff;stroke-linejoin:miter;stroke-width:0.75;" x="157.502323" xlink:href="#m8906a7aa21" y="164.67874"/>
     <use style="fill:#98df8a;stroke:#ffffff;stroke-linejoin:miter;stroke-width:0.75;" x="161.069956" xlink:href="#m8906a7aa21" y="164.67874"/>
     <use style="fill:#98df8a;stroke:#ffffff;stroke-linejoin:miter;stroke-width:0.75;" x="164.637588" xlink:href="#m8906a7aa21" y="164.67874"/>
     <use style="fill:#98df8a;stroke:#ffffff;stroke-linejoin:miter;stroke-width:0.75;" x="168.20522" xlink:href="#m8906a7aa21" y="164.67874"/>
     <use style="fill:#98df8a;stroke:#ffffff;stroke-linejoin:miter;stroke-width:0.75;" x="171.772853" xlink:href="#m8906a7aa21" y="164.67874"/>
     <use style="fill:#98df8a;stroke:#ffffff;stroke-linejoin:miter;stroke-width:0.75;" x="175.340485" xlink:href="#m8906a7aa21" y="164.67874"/>
     <use style="fill:#98df8a;stroke:#ffffff;stroke-linejoin:miter;stroke-width:0.75;" x="178.908118" xlink:href="#m8906a7aa21" y="164.67874"/>
     <use style="fill:#98df8a;stroke:#ffffff;stroke-linejoin:miter;stroke-width:0.75;" x="182.47575" xlink:href="#m8906a7aa21" y="164.67874"/>
     <use style="fill:#98df8a;stroke:#ffffff;stroke-linejoin:miter;stroke-width:0.75;" x="186.043382" xlink:href="#m8906a7aa21" y="164.67874"/>
     <use style="fill:#98df8a;stroke:#ffffff;stroke-linejoin:miter;stroke-width:0.75;" x="189.611015" xlink:href="#m8906a7aa21" y="164.67874"/>
     <use style="fill:#98df8a;stroke:#ffffff;stroke-linejoin:miter;stroke-width:0.75;" x="193.178647" xlink:href="#m8906a7aa21" y="164.67874"/>
     <use style="fill:#98df8a;stroke:#ffffff;stroke-linejoin:miter;stroke-width:0.75;" x="196.746279" xlink:href="#m8906a7aa21" y="164.67874"/>
     <use style="fill:#98df8a;stroke:#ffffff;stroke-linejoin:miter;stroke-width:0.75;" x="200.313912" xlink:href="#m8906a7aa21" y="164.67874"/>
     <use style="fill:#98df8a;stroke:#ffffff;stroke-linejoin:miter;stroke-width:0.75;" x="203.881544" xlink:href="#m8906a7aa21" y="164.67874"/>
     <use style="fill:#98df8a;stroke:#ffffff;stroke-linejoin:miter;stroke-width:0.75;" x="207.449176" xlink:href="#m8906a7aa21" y="164.67874"/>
     <use style="fill:#98df8a;stroke:#ffffff;stroke-linejoin:miter;stroke-width:0.75;" x="211.016809" xlink:href="#m8906a7aa21" y="164.67874"/>
     <use style="fill:#98df8a;stroke:#ffffff;stroke-linejoin:miter;stroke-width:0.75;" x="214.584441" xlink:href="#m8906a7aa21" y="164.67874"/>
     <use style="fill:#98df8a;stroke:#ffffff;stroke-linejoin:miter;stroke-width:0.75;" x="218.152074" xlink:href="#m8906a7aa21" y="127.460279"/>
     <use style="fill:#98df8a;stroke:#ffffff;stroke-linejoin:miter;stroke-width:0.75;" x="221.719706" xlink:href="#m8906a7aa21" y="127.460279"/>
     <use style="fill:#98df8a;stroke:#ffffff;stroke-linejoin:miter;stroke-width:0.75;" x="225.287338" xlink:href="#m8906a7aa21" y="127.460279"/>
     <use style="fill:#98df8a;stroke:#ffffff;stroke-linejoin:miter;stroke-width:0.75;" x="228.854971" xlink:href="#m8906a7aa21" y="127.460279"/>
     <use style="fill:#98df8a;stroke:#ffffff;stroke-linejoin:miter;stroke-width:0.75;" x="232.422603" xlink:href="#m8906a7aa21" y="127.460279"/>
     <use style="fill:#98df8a;stroke:#ffffff;stroke-linejoin:miter;stroke-width:0.75;" x="235.990235" xlink:href="#m8906a7aa21" y="127.460279"/>
     <use style="fill:#98df8a;stroke:#ffffff;stroke-linejoin:miter;stroke-width:0.75;" x="239.557868" xlink:href="#m8906a7aa21" y="127.460279"/>
     <use style="fill:#98df8a;stroke:#ffffff;stroke-linejoin:miter;stroke-width:0.75;" x="243.1255" xlink:href="#m8906a7aa21" y="127.460279"/>
     <use style="fill:#98df8a;stroke:#ffffff;stroke-linejoin:miter;stroke-width:0.75;" x="246.693132" xlink:href="#m8906a7aa21" y="127.460279"/>
     <use style="fill:#98df8a;stroke:#ffffff;stroke-linejoin:miter;stroke-width:0.75;" x="250.260765" xlink:href="#m8906a7aa21" y="108.851048"/>
     <use style="fill:#98df8a;stroke:#ffffff;stroke-linejoin:miter;stroke-width:0.75;" x="253.828397" xlink:href="#m8906a7aa21" y="108.851048"/>
     <use style="fill:#98df8a;stroke:#ffffff;stroke-linejoin:miter;stroke-width:0.75;" x="257.39603" xlink:href="#m8906a7aa21" y="90.241817"/>
     <use style="fill:#98df8a;stroke:#ffffff;stroke-linejoin:miter;stroke-width:0.75;" x="260.963662" xlink:href="#m8906a7aa21" y="90.241817"/>
     <use style="fill:#98df8a;stroke:#ffffff;stroke-linejoin:miter;stroke-width:0.75;" x="264.531294" xlink:href="#m8906a7aa21" y="90.241817"/>
     <use style="fill:#98df8a;stroke:#ffffff;stroke-linejoin:miter;stroke-width:0.75;" x="268.098927" xlink:href="#m8906a7aa21" y="90.241817"/>
     <use style="fill:#98df8a;stroke:#ffffff;stroke-linejoin:miter;stroke-width:0.75;" x="271.666559" xlink:href="#m8906a7aa21" y="90.241817"/>
     <use style="fill:#98df8a;stroke:#ffffff;stroke-linejoin:miter;stroke-width:0.75;" x="275.234191" xlink:href="#m8906a7aa21" y="90.241817"/>
     <use style="fill:#98df8a;stroke:#ffffff;stroke-linejoin:miter;stroke-width:0.75;" x="278.801824" xlink:href="#m8906a7aa21" y="90.241817"/>
     <use style="fill:#98df8a;stroke:#ffffff;stroke-linejoin:miter;stroke-width:0.75;" x="282.369456" xlink:href="#m8906a7aa21" y="90.241817"/>
     <use style="fill:#98df8a;stroke:#ffffff;stroke-linejoin:miter;stroke-width:0.75;" x="285.937089" xlink:href="#m8906a7aa21" y="90.241817"/>
     <use style="fill:#98df8a;stroke:#ffffff;stroke-linejoin:miter;stroke-width:0.75;" x="289.504721" xlink:href="#m8906a7aa21" y="90.241817"/>
     <use style="fill:#98df8a;stroke:#ffffff;stroke-linejoin:miter;stroke-width:0.75;" x="293.072353" xlink:href="#m8906a7aa21" y="90.241817"/>
     <use style="fill:#98df8a;stroke:#ffffff;stroke-linejoin:miter;stroke-width:0.75;" x="296.639986" xlink:href="#m8906a7aa21" y="90.241817"/>
     <use style="fill:#98df8a;stroke:#ffffff;stroke-linejoin:miter;stroke-width:0.75;" x="300.207618" xlink:href="#m8906a7aa21" y="90.241817"/>
     <use style="fill:#98df8a;stroke:#ffffff;stroke-linejoin:miter;stroke-width:0.75;" x="303.77525" xlink:href="#m8906a7aa21" y="90.241817"/>
     <use style="fill:#98df8a;stroke:#ffffff;stroke-linejoin:miter;stroke-width:0.75;" x="307.342883" xlink:href="#m8906a7aa21" y="90.241817"/>
     <use style="fill:#98df8a;stroke:#ffffff;stroke-linejoin:miter;stroke-width:0.75;" x="310.910515" xlink:href="#m8906a7aa21" y="90.241817"/>
     <use style="fill:#98df8a;stroke:#ffffff;stroke-linejoin:miter;stroke-width:0.75;" x="314.478147" xlink:href="#m8906a7aa21" y="90.241817"/>
     <use style="fill:#98df8a;stroke:#ffffff;stroke-linejoin:miter;stroke-width:0.75;" x="318.04578" xlink:href="#m8906a7aa21" y="90.241817"/>
     <use style="fill:#98df8a;stroke:#ffffff;stroke-linejoin:miter;stroke-width:0.75;" x="321.613412" xlink:href="#m8906a7aa21" y="90.241817"/>
     <use style="fill:#98df8a;stroke:#ffffff;stroke-linejoin:miter;stroke-width:0.75;" x="325.181045" xlink:href="#m8906a7aa21" y="90.241817"/>
     <use style="fill:#98df8a;stroke:#ffffff;stroke-linejoin:miter;stroke-width:0.75;" x="328.748677" xlink:href="#m8906a7aa21" y="90.241817"/>
     <use style="fill:#98df8a;stroke:#ffffff;stroke-linejoin:miter;stroke-width:0.75;" x="332.316309" xlink:href="#m8906a7aa21" y="90.241817"/>
     <use style="fill:#98df8a;stroke:#ffffff;stroke-linejoin:miter;stroke-width:0.75;" x="335.883942" xlink:href="#m8906a7aa21" y="90.241817"/>
     <use style="fill:#98df8a;stroke:#ffffff;stroke-linejoin:miter;stroke-width:0.75;" x="339.451574" xlink:href="#m8906a7aa21" y="90.241817"/>
     <use style="fill:#98df8a;stroke:#ffffff;stroke-linejoin:miter;stroke-width:0.75;" x="343.019206" xlink:href="#m8906a7aa21" y="90.241817"/>
     <use style="fill:#98df8a;stroke:#ffffff;stroke-linejoin:miter;stroke-width:0.75;" x="346.586839" xlink:href="#m8906a7aa21" y="90.241817"/>
     <use style="fill:#98df8a;stroke:#ffffff;stroke-linejoin:miter;stroke-width:0.75;" x="350.154471" xlink:href="#m8906a7aa21" y="90.241817"/>
     <use style="fill:#98df8a;stroke:#ffffff;stroke-linejoin:miter;stroke-width:0.75;" x="353.722104" xlink:href="#m8906a7aa21" y="90.241817"/>
     <use style="fill:#98df8a;stroke:#ffffff;stroke-linejoin:miter;stroke-width:0.75;" x="357.289736" xlink:href="#m8906a7aa21" y="71.632587"/>
     <use style="fill:#98df8a;stroke:#ffffff;stroke-linejoin:miter;stroke-width:0.75;" x="360.857368" xlink:href="#m8906a7aa21" y="71.632587"/>
     <use style="fill:#98df8a;stroke:#ffffff;stroke-linejoin:miter;stroke-width:0.75;" x="364.425001" xlink:href="#m8906a7aa21" y="53.023356"/>
     <use style="fill:#98df8a;stroke:#ffffff;stroke-linejoin:miter;stroke-width:0.75;" x="367.992633" xlink:href="#m8906a7aa21" y="53.023356"/>
     <use style="fill:#98df8a;stroke:#ffffff;stroke-linejoin:miter;stroke-width:0.75;" x="371.560265" xlink:href="#m8906a7aa21" y="53.023356"/>
     <use style="fill:#98df8a;stroke:#ffffff;stroke-linejoin:miter;stroke-width:0.75;" x="375.127898" xlink:href="#m8906a7aa21" y="53.023356"/>
    </g>
   </g>
   <g id="line2d_15">
    <path clip-path="url(#pe21b320bbd)" d="M 50.473352 276.334125 
L 54.040985 276.334125 
L 57.608617 276.334125 
L 61.176249 276.334125 
L 64.743882 276.334125 
L 68.311514 276.334125 
L 71.879146 276.334125 
L 75.446779 276.334125 
L 79.014411 276.334125 
L 82.582044 276.334125 
L 86.149676 276.334125 
L 89.717308 276.334125 
L 93.284941 276.334125 
L 96.852573 276.334125 
L 100.420205 276.334125 
L 103.987838 276.334125 
L 107.55547 276.334125 
L 111.123103 276.334125 
L 114.690735 276.334125 
L 118.258367 276.334125 
L 121.826 257.724894 
L 125.393632 257.724894 
L 128.961264 239.115663 
L 132.528897 239.115663 
L 136.096529 239.115663 
L 139.664161 239.115663 
L 143.231794 239.115663 
L 146.799426 239.115663 
L 150.367059 239.115663 
L 153.934691 239.115663 
L 157.502323 239.115663 
L 161.069956 239.115663 
L 164.637588 239.115663 
L 168.20522 239.115663 
L 171.772853 239.115663 
L 175.340485 239.115663 
L 178.908118 239.115663 
L 182.47575 239.115663 
L 186.043382 239.115663 
L 189.611015 239.115663 
L 193.178647 239.115663 
L 196.746279 239.115663 
L 200.313912 239.115663 
L 203.881544 239.115663 
L 207.449176 239.115663 
L 211.016809 239.115663 
L 214.584441 239.115663 
L 218.152074 239.115663 
L 221.719706 239.115663 
L 225.287338 239.115663 
L 228.854971 239.115663 
L 232.422603 239.115663 
L 235.990235 239.115663 
L 239.557868 239.115663 
L 243.1255 239.115663 
L 246.693132 239.115663 
L 250.260765 239.115663 
L 253.828397 239.115663 
L 257.39603 239.115663 
L 260.963662 239.115663 
L 264.531294 239.115663 
L 268.098927 239.115663 
L 271.666559 239.115663 
L 275.234191 239.115663 
L 278.801824 239.115663 
L 282.369456 239.115663 
L 285.937089 239.115663 
L 289.504721 239.115663 
L 293.072353 239.115663 
L 296.639986 239.115663 
L 300.207618 239.115663 
L 303.77525 239.115663 
L 307.342883 239.115663 
L 310.910515 239.115663 
L 314.478147 239.115663 
L 318.04578 239.115663 
L 321.613412 239.115663 
L 325.181045 239.115663 
L 328.748677 239.115663 
L 332.316309 239.115663 
L 335.883942 239.115663 
L 339.451574 239.115663 
L 343.019206 239.115663 
L 346.586839 239.115663 
L 350.154471 239.115663 
L 353.722104 239.115663 
L 357.289736 239.115663 
L 360.857368 239.115663 
L 364.425001 239.115663 
L 367.992633 239.115663 
L 371.560265 239.115663 
L 375.127898 239.115663 
" style="fill:none;stroke:#1f77b4;stroke-linecap:square;stroke-width:1.5;"/>
    <defs>
     <path d="M 0 3 
C 0.795609 3 1.55874 2.683901 2.12132 2.12132 
C 2.683901 1.55874 3 0.795609 3 0 
C 3 -0.795609 2.683901 -1.55874 2.12132 -2.12132 
C 1.55874 -2.683901 0.795609 -3 0 -3 
C -0.795609 -3 -1.55874 -2.683901 -2.12132 -2.12132 
C -2.683901 -1.55874 -3 -0.795609 -3 0 
C -3 0.795609 -2.683901 1.55874 -2.12132 2.12132 
C -1.55874 2.683901 -0.795609 3 0 3 
z
" id="m159e919f88" style="stroke:#ffffff;stroke-width:0.75;"/>
    </defs>
    <g clip-path="url(#pe21b320bbd)">
     <use style="fill:#1f77b4;stroke:#ffffff;stroke-width:0.75;" x="50.473352" xlink:href="#m159e919f88" y="276.334125"/>
     <use style="fill:#1f77b4;stroke:#ffffff;stroke-width:0.75;" x="54.040985" xlink:href="#m159e919f88" y="276.334125"/>
     <use style="fill:#1f77b4;stroke:#ffffff;stroke-width:0.75;" x="57.608617" xlink:href="#m159e919f88" y="276.334125"/>
     <use style="fill:#1f77b4;stroke:#ffffff;stroke-width:0.75;" x="61.176249" xlink:href="#m159e919f88" y="276.334125"/>
     <use style="fill:#1f77b4;stroke:#ffffff;stroke-width:0.75;" x="64.743882" xlink:href="#m159e919f88" y="276.334125"/>
     <use style="fill:#1f77b4;stroke:#ffffff;stroke-width:0.75;" x="68.311514" xlink:href="#m159e919f88" y="276.334125"/>
     <use style="fill:#1f77b4;stroke:#ffffff;stroke-width:0.75;" x="71.879146" xlink:href="#m159e919f88" y="276.334125"/>
     <use style="fill:#1f77b4;stroke:#ffffff;stroke-width:0.75;" x="75.446779" xlink:href="#m159e919f88" y="276.334125"/>
     <use style="fill:#1f77b4;stroke:#ffffff;stroke-width:0.75;" x="79.014411" xlink:href="#m159e919f88" y="276.334125"/>
     <use style="fill:#1f77b4;stroke:#ffffff;stroke-width:0.75;" x="82.582044" xlink:href="#m159e919f88" y="276.334125"/>
     <use style="fill:#1f77b4;stroke:#ffffff;stroke-width:0.75;" x="86.149676" xlink:href="#m159e919f88" y="276.334125"/>
     <use style="fill:#1f77b4;stroke:#ffffff;stroke-width:0.75;" x="89.717308" xlink:href="#m159e919f88" y="276.334125"/>
     <use style="fill:#1f77b4;stroke:#ffffff;stroke-width:0.75;" x="93.284941" xlink:href="#m159e919f88" y="276.334125"/>
     <use style="fill:#1f77b4;stroke:#ffffff;stroke-width:0.75;" x="96.852573" xlink:href="#m159e919f88" y="276.334125"/>
     <use style="fill:#1f77b4;stroke:#ffffff;stroke-width:0.75;" x="100.420205" xlink:href="#m159e919f88" y="276.334125"/>
     <use style="fill:#1f77b4;stroke:#ffffff;stroke-width:0.75;" x="103.987838" xlink:href="#m159e919f88" y="276.334125"/>
     <use style="fill:#1f77b4;stroke:#ffffff;stroke-width:0.75;" x="107.55547" xlink:href="#m159e919f88" y="276.334125"/>
     <use style="fill:#1f77b4;stroke:#ffffff;stroke-width:0.75;" x="111.123103" xlink:href="#m159e919f88" y="276.334125"/>
     <use style="fill:#1f77b4;stroke:#ffffff;stroke-width:0.75;" x="114.690735" xlink:href="#m159e919f88" y="276.334125"/>
     <use style="fill:#1f77b4;stroke:#ffffff;stroke-width:0.75;" x="118.258367" xlink:href="#m159e919f88" y="276.334125"/>
     <use style="fill:#1f77b4;stroke:#ffffff;stroke-width:0.75;" x="121.826" xlink:href="#m159e919f88" y="257.724894"/>
     <use style="fill:#1f77b4;stroke:#ffffff;stroke-width:0.75;" x="125.393632" xlink:href="#m159e919f88" y="257.724894"/>
     <use style="fill:#1f77b4;stroke:#ffffff;stroke-width:0.75;" x="128.961264" xlink:href="#m159e919f88" y="239.115663"/>
     <use style="fill:#1f77b4;stroke:#ffffff;stroke-width:0.75;" x="132.528897" xlink:href="#m159e919f88" y="239.115663"/>
     <use style="fill:#1f77b4;stroke:#ffffff;stroke-width:0.75;" x="136.096529" xlink:href="#m159e919f88" y="239.115663"/>
     <use style="fill:#1f77b4;stroke:#ffffff;stroke-width:0.75;" x="139.664161" xlink:href="#m159e919f88" y="239.115663"/>
     <use style="fill:#1f77b4;stroke:#ffffff;stroke-width:0.75;" x="143.231794" xlink:href="#m159e919f88" y="239.115663"/>
     <use style="fill:#1f77b4;stroke:#ffffff;stroke-width:0.75;" x="146.799426" xlink:href="#m159e919f88" y="239.115663"/>
     <use style="fill:#1f77b4;stroke:#ffffff;stroke-width:0.75;" x="150.367059" xlink:href="#m159e919f88" y="239.115663"/>
     <use style="fill:#1f77b4;stroke:#ffffff;stroke-width:0.75;" x="153.934691" xlink:href="#m159e919f88" y="239.115663"/>
     <use style="fill:#1f77b4;stroke:#ffffff;stroke-width:0.75;" x="157.502323" xlink:href="#m159e919f88" y="239.115663"/>
     <use style="fill:#1f77b4;stroke:#ffffff;stroke-width:0.75;" x="161.069956" xlink:href="#m159e919f88" y="239.115663"/>
     <use style="fill:#1f77b4;stroke:#ffffff;stroke-width:0.75;" x="164.637588" xlink:href="#m159e919f88" y="239.115663"/>
     <use style="fill:#1f77b4;stroke:#ffffff;stroke-width:0.75;" x="168.20522" xlink:href="#m159e919f88" y="239.115663"/>
     <use style="fill:#1f77b4;stroke:#ffffff;stroke-width:0.75;" x="171.772853" xlink:href="#m159e919f88" y="239.115663"/>
     <use style="fill:#1f77b4;stroke:#ffffff;stroke-width:0.75;" x="175.340485" xlink:href="#m159e919f88" y="239.115663"/>
     <use style="fill:#1f77b4;stroke:#ffffff;stroke-width:0.75;" x="178.908118" xlink:href="#m159e919f88" y="239.115663"/>
     <use style="fill:#1f77b4;stroke:#ffffff;stroke-width:0.75;" x="182.47575" xlink:href="#m159e919f88" y="239.115663"/>
     <use style="fill:#1f77b4;stroke:#ffffff;stroke-width:0.75;" x="186.043382" xlink:href="#m159e919f88" y="239.115663"/>
     <use style="fill:#1f77b4;stroke:#ffffff;stroke-width:0.75;" x="189.611015" xlink:href="#m159e919f88" y="239.115663"/>
     <use style="fill:#1f77b4;stroke:#ffffff;stroke-width:0.75;" x="193.178647" xlink:href="#m159e919f88" y="239.115663"/>
     <use style="fill:#1f77b4;stroke:#ffffff;stroke-width:0.75;" x="196.746279" xlink:href="#m159e919f88" y="239.115663"/>
     <use style="fill:#1f77b4;stroke:#ffffff;stroke-width:0.75;" x="200.313912" xlink:href="#m159e919f88" y="239.115663"/>
     <use style="fill:#1f77b4;stroke:#ffffff;stroke-width:0.75;" x="203.881544" xlink:href="#m159e919f88" y="239.115663"/>
     <use style="fill:#1f77b4;stroke:#ffffff;stroke-width:0.75;" x="207.449176" xlink:href="#m159e919f88" y="239.115663"/>
     <use style="fill:#1f77b4;stroke:#ffffff;stroke-width:0.75;" x="211.016809" xlink:href="#m159e919f88" y="239.115663"/>
     <use style="fill:#1f77b4;stroke:#ffffff;stroke-width:0.75;" x="214.584441" xlink:href="#m159e919f88" y="239.115663"/>
     <use style="fill:#1f77b4;stroke:#ffffff;stroke-width:0.75;" x="218.152074" xlink:href="#m159e919f88" y="239.115663"/>
     <use style="fill:#1f77b4;stroke:#ffffff;stroke-width:0.75;" x="221.719706" xlink:href="#m159e919f88" y="239.115663"/>
     <use style="fill:#1f77b4;stroke:#ffffff;stroke-width:0.75;" x="225.287338" xlink:href="#m159e919f88" y="239.115663"/>
     <use style="fill:#1f77b4;stroke:#ffffff;stroke-width:0.75;" x="228.854971" xlink:href="#m159e919f88" y="239.115663"/>
     <use style="fill:#1f77b4;stroke:#ffffff;stroke-width:0.75;" x="232.422603" xlink:href="#m159e919f88" y="239.115663"/>
     <use style="fill:#1f77b4;stroke:#ffffff;stroke-width:0.75;" x="235.990235" xlink:href="#m159e919f88" y="239.115663"/>
     <use style="fill:#1f77b4;stroke:#ffffff;stroke-width:0.75;" x="239.557868" xlink:href="#m159e919f88" y="239.115663"/>
     <use style="fill:#1f77b4;stroke:#ffffff;stroke-width:0.75;" x="243.1255" xlink:href="#m159e919f88" y="239.115663"/>
     <use style="fill:#1f77b4;stroke:#ffffff;stroke-width:0.75;" x="246.693132" xlink:href="#m159e919f88" y="239.115663"/>
     <use style="fill:#1f77b4;stroke:#ffffff;stroke-width:0.75;" x="250.260765" xlink:href="#m159e919f88" y="239.115663"/>
     <use style="fill:#1f77b4;stroke:#ffffff;stroke-width:0.75;" x="253.828397" xlink:href="#m159e919f88" y="239.115663"/>
     <use style="fill:#1f77b4;stroke:#ffffff;stroke-width:0.75;" x="257.39603" xlink:href="#m159e919f88" y="239.115663"/>
     <use style="fill:#1f77b4;stroke:#ffffff;stroke-width:0.75;" x="260.963662" xlink:href="#m159e919f88" y="239.115663"/>
     <use style="fill:#1f77b4;stroke:#ffffff;stroke-width:0.75;" x="264.531294" xlink:href="#m159e919f88" y="239.115663"/>
     <use style="fill:#1f77b4;stroke:#ffffff;stroke-width:0.75;" x="268.098927" xlink:href="#m159e919f88" y="239.115663"/>
     <use style="fill:#1f77b4;stroke:#ffffff;stroke-width:0.75;" x="271.666559" xlink:href="#m159e919f88" y="239.115663"/>
     <use style="fill:#1f77b4;stroke:#ffffff;stroke-width:0.75;" x="275.234191" xlink:href="#m159e919f88" y="239.115663"/>
     <use style="fill:#1f77b4;stroke:#ffffff;stroke-width:0.75;" x="278.801824" xlink:href="#m159e919f88" y="239.115663"/>
     <use style="fill:#1f77b4;stroke:#ffffff;stroke-width:0.75;" x="282.369456" xlink:href="#m159e919f88" y="239.115663"/>
     <use style="fill:#1f77b4;stroke:#ffffff;stroke-width:0.75;" x="285.937089" xlink:href="#m159e919f88" y="239.115663"/>
     <use style="fill:#1f77b4;stroke:#ffffff;stroke-width:0.75;" x="289.504721" xlink:href="#m159e919f88" y="239.115663"/>
     <use style="fill:#1f77b4;stroke:#ffffff;stroke-width:0.75;" x="293.072353" xlink:href="#m159e919f88" y="239.115663"/>
     <use style="fill:#1f77b4;stroke:#ffffff;stroke-width:0.75;" x="296.639986" xlink:href="#m159e919f88" y="239.115663"/>
     <use style="fill:#1f77b4;stroke:#ffffff;stroke-width:0.75;" x="300.207618" xlink:href="#m159e919f88" y="239.115663"/>
     <use style="fill:#1f77b4;stroke:#ffffff;stroke-width:0.75;" x="303.77525" xlink:href="#m159e919f88" y="239.115663"/>
     <use style="fill:#1f77b4;stroke:#ffffff;stroke-width:0.75;" x="307.342883" xlink:href="#m159e919f88" y="239.115663"/>
     <use style="fill:#1f77b4;stroke:#ffffff;stroke-width:0.75;" x="310.910515" xlink:href="#m159e919f88" y="239.115663"/>
     <use style="fill:#1f77b4;stroke:#ffffff;stroke-width:0.75;" x="314.478147" xlink:href="#m159e919f88" y="239.115663"/>
     <use style="fill:#1f77b4;stroke:#ffffff;stroke-width:0.75;" x="318.04578" xlink:href="#m159e919f88" y="239.115663"/>
     <use style="fill:#1f77b4;stroke:#ffffff;stroke-width:0.75;" x="321.613412" xlink:href="#m159e919f88" y="239.115663"/>
     <use style="fill:#1f77b4;stroke:#ffffff;stroke-width:0.75;" x="325.181045" xlink:href="#m159e919f88" y="239.115663"/>
     <use style="fill:#1f77b4;stroke:#ffffff;stroke-width:0.75;" x="328.748677" xlink:href="#m159e919f88" y="239.115663"/>
     <use style="fill:#1f77b4;stroke:#ffffff;stroke-width:0.75;" x="332.316309" xlink:href="#m159e919f88" y="239.115663"/>
     <use style="fill:#1f77b4;stroke:#ffffff;stroke-width:0.75;" x="335.883942" xlink:href="#m159e919f88" y="239.115663"/>
     <use style="fill:#1f77b4;stroke:#ffffff;stroke-width:0.75;" x="339.451574" xlink:href="#m159e919f88" y="239.115663"/>
     <use style="fill:#1f77b4;stroke:#ffffff;stroke-width:0.75;" x="343.019206" xlink:href="#m159e919f88" y="239.115663"/>
     <use style="fill:#1f77b4;stroke:#ffffff;stroke-width:0.75;" x="346.586839" xlink:href="#m159e919f88" y="239.115663"/>
     <use style="fill:#1f77b4;stroke:#ffffff;stroke-width:0.75;" x="350.154471" xlink:href="#m159e919f88" y="239.115663"/>
     <use style="fill:#1f77b4;stroke:#ffffff;stroke-width:0.75;" x="353.722104" xlink:href="#m159e919f88" y="239.115663"/>
     <use style="fill:#1f77b4;stroke:#ffffff;stroke-width:0.75;" x="357.289736" xlink:href="#m159e919f88" y="239.115663"/>
     <use style="fill:#1f77b4;stroke:#ffffff;stroke-width:0.75;" x="360.857368" xlink:href="#m159e919f88" y="239.115663"/>
     <use style="fill:#1f77b4;stroke:#ffffff;stroke-width:0.75;" x="364.425001" xlink:href="#m159e919f88" y="239.115663"/>
     <use style="fill:#1f77b4;stroke:#ffffff;stroke-width:0.75;" x="367.992633" xlink:href="#m159e919f88" y="239.115663"/>
     <use style="fill:#1f77b4;stroke:#ffffff;stroke-width:0.75;" x="371.560265" xlink:href="#m159e919f88" y="239.115663"/>
     <use style="fill:#1f77b4;stroke:#ffffff;stroke-width:0.75;" x="375.127898" xlink:href="#m159e919f88" y="239.115663"/>
    </g>
   </g>
   <g id="line2d_16"/>
   <g id="line2d_17"/>
   <g id="patch_3">
    <path d="M 34.240625 276.334125 
L 34.240625 53.023356 
" style="fill:none;stroke:#000000;stroke-linecap:square;stroke-linejoin:miter;stroke-width:0.8;"/>
   </g>
   <g id="patch_4">
    <path d="M 50.473352 288.430125 
L 323.991834 288.430125 
" style="fill:none;stroke:#000000;stroke-linecap:square;stroke-linejoin:miter;stroke-width:0.8;"/>
   </g>
   <g id="text_16">
    <!-- php_php-fuzz-parser-2020-07-25 (23h, 20 trials/fuzzer) -->
    <g transform="translate(47.799688 16.318125)scale(0.12 -0.12)">
     <defs>
      <path d="M 1159 525 
L 1159 -1331 
L 581 -1331 
L 581 3500 
L 1159 3500 
L 1159 2969 
Q 1341 3281 1617 3432 
Q 1894 3584 2278 3584 
Q 2916 3584 3314 3078 
Q 3713 2572 3713 1747 
Q 3713 922 3314 415 
Q 2916 -91 2278 -91 
Q 1894 -91 1617 61 
Q 1341 213 1159 525 
z
M 3116 1747 
Q 3116 2381 2855 2742 
Q 2594 3103 2138 3103 
Q 1681 3103 1420 2742 
Q 1159 2381 1159 1747 
Q 1159 1113 1420 752 
Q 1681 391 2138 391 
Q 2594 391 2855 752 
Q 3116 1113 3116 1747 
z
" id="DejaVuSans-70" transform="scale(0.015625)"/>
      <path d="M 3263 -1063 
L 3263 -1509 
L -63 -1509 
L -63 -1063 
L 3263 -1063 
z
" id="DejaVuSans-5f" transform="scale(0.015625)"/>
      <path d="M 313 2009 
L 1997 2009 
L 1997 1497 
L 313 1497 
L 313 2009 
z
" id="DejaVuSans-2d" transform="scale(0.015625)"/>
      <path d="M 2375 4863 
L 2375 4384 
L 1825 4384 
Q 1516 4384 1395 4259 
Q 1275 4134 1275 3809 
L 1275 3500 
L 2222 3500 
L 2222 3053 
L 1275 3053 
L 1275 0 
L 697 0 
L 697 3053 
L 147 3053 
L 147 3500 
L 697 3500 
L 697 3744 
Q 697 4328 969 4595 
Q 1241 4863 1831 4863 
L 2375 4863 
z
" id="DejaVuSans-66" transform="scale(0.015625)"/>
      <path d="M 353 3500 
L 3084 3500 
L 3084 2975 
L 922 459 
L 3084 459 
L 3084 0 
L 275 0 
L 275 525 
L 2438 3041 
L 353 3041 
L 353 3500 
z
" id="DejaVuSans-7a" transform="scale(0.015625)"/>
      <path d="M 2834 3397 
L 2834 2853 
Q 2591 2978 2328 3040 
Q 2066 3103 1784 3103 
Q 1356 3103 1142 2972 
Q 928 2841 928 2578 
Q 928 2378 1081 2264 
Q 1234 2150 1697 2047 
L 1894 2003 
Q 2506 1872 2764 1633 
Q 3022 1394 3022 966 
Q 3022 478 2636 193 
Q 2250 -91 1575 -91 
Q 1294 -91 989 -36 
Q 684 19 347 128 
L 347 722 
Q 666 556 975 473 
Q 1284 391 1588 391 
Q 1994 391 2212 530 
Q 2431 669 2431 922 
Q 2431 1156 2273 1281 
Q 2116 1406 1581 1522 
L 1381 1569 
Q 847 1681 609 1914 
Q 372 2147 372 2553 
Q 372 3047 722 3315 
Q 1072 3584 1716 3584 
Q 2034 3584 2315 3537 
Q 2597 3491 2834 3397 
z
" id="DejaVuSans-73" transform="scale(0.015625)"/>
      <path d="M 750 794 
L 1409 794 
L 1409 256 
L 897 -744 
L 494 -744 
L 750 256 
L 750 794 
z
" id="DejaVuSans-2c" transform="scale(0.015625)"/>
      <path d="M 603 4863 
L 1178 4863 
L 1178 0 
L 603 0 
L 603 4863 
z
" id="DejaVuSans-6c" transform="scale(0.015625)"/>
      <path d="M 1625 4666 
L 2156 4666 
L 531 -594 
L 0 -594 
L 1625 4666 
z
" id="DejaVuSans-2f" transform="scale(0.015625)"/>
     </defs>
     <use xlink:href="#DejaVuSans-70"/>
     <use x="63.476562" xlink:href="#DejaVuSans-68"/>
     <use x="126.855469" xlink:href="#DejaVuSans-70"/>
     <use x="190.332031" xlink:href="#DejaVuSans-5f"/>
     <use x="240.332031" xlink:href="#DejaVuSans-70"/>
     <use x="303.808594" xlink:href="#DejaVuSans-68"/>
     <use x="367.1875" xlink:href="#DejaVuSans-70"/>
     <use x="430.664062" xlink:href="#DejaVuSans-2d"/>
     <use x="466.748047" xlink:href="#DejaVuSans-66"/>
     <use x="501.953125" xlink:href="#DejaVuSans-75"/>
     <use x="565.332031" xlink:href="#DejaVuSans-7a"/>
     <use x="617.822266" xlink:href="#DejaVuSans-7a"/>
     <use x="670.3125" xlink:href="#DejaVuSans-2d"/>
     <use x="706.396484" xlink:href="#DejaVuSans-70"/>
     <use x="769.873047" xlink:href="#DejaVuSans-61"/>
     <use x="831.152344" xlink:href="#DejaVuSans-72"/>
     <use x="872.265625" xlink:href="#DejaVuSans-73"/>
     <use x="924.365234" xlink:href="#DejaVuSans-65"/>
     <use x="985.888672" xlink:href="#DejaVuSans-72"/>
     <use x="1020.626953" xlink:href="#DejaVuSans-2d"/>
     <use x="1056.710938" xlink:href="#DejaVuSans-32"/>
     <use x="1120.333984" xlink:href="#DejaVuSans-30"/>
     <use x="1183.957031" xlink:href="#DejaVuSans-32"/>
     <use x="1247.580078" xlink:href="#DejaVuSans-30"/>
     <use x="1311.203125" xlink:href="#DejaVuSans-2d"/>
     <use x="1347.287109" xlink:href="#DejaVuSans-30"/>
     <use x="1410.910156" xlink:href="#DejaVuSans-37"/>
     <use x="1474.533203" xlink:href="#DejaVuSans-2d"/>
     <use x="1510.617188" xlink:href="#DejaVuSans-32"/>
     <use x="1574.240234" xlink:href="#DejaVuSans-35"/>
     <use x="1637.863281" xlink:href="#DejaVuSans-20"/>
     <use x="1669.650391" xlink:href="#DejaVuSans-28"/>
     <use x="1708.664062" xlink:href="#DejaVuSans-32"/>
     <use x="1772.287109" xlink:href="#DejaVuSans-33"/>
     <use x="1835.910156" xlink:href="#DejaVuSans-68"/>
     <use x="1899.289062" xlink:href="#DejaVuSans-2c"/>
     <use x="1931.076172" xlink:href="#DejaVuSans-20"/>
     <use x="1962.863281" xlink:href="#DejaVuSans-32"/>
     <use x="2026.486328" xlink:href="#DejaVuSans-30"/>
     <use x="2090.109375" xlink:href="#DejaVuSans-20"/>
     <use x="2121.896484" xlink:href="#DejaVuSans-74"/>
     <use x="2161.105469" xlink:href="#DejaVuSans-72"/>
     <use x="2202.21875" xlink:href="#DejaVuSans-69"/>
     <use x="2230.001953" xlink:href="#DejaVuSans-61"/>
     <use x="2291.28125" xlink:href="#DejaVuSans-6c"/>
     <use x="2319.064453" xlink:href="#DejaVuSans-73"/>
     <use x="2371.164062" xlink:href="#DejaVuSans-2f"/>
     <use x="2404.855469" xlink:href="#DejaVuSans-66"/>
     <use x="2440.060547" xlink:href="#DejaVuSans-75"/>
     <use x="2503.439453" xlink:href="#DejaVuSans-7a"/>
     <use x="2555.929688" xlink:href="#DejaVuSans-7a"/>
     <use x="2608.419922" xlink:href="#DejaVuSans-65"/>
     <use x="2669.943359" xlink:href="#DejaVuSans-72"/>
     <use x="2711.056641" xlink:href="#DejaVuSans-29"/>
    </g>
   </g>
   <g id="legend_1">
    <g id="line2d_18">
     <path d="M 395.360625 30.416562 
L 415.360625 30.416562 
" style="fill:none;stroke:#98df8a;stroke-linecap:square;stroke-width:1.5;"/>
    </g>
    <g id="line2d_19">
     <defs>
      <path d="M -0 3 
L 3 -3 
L -3 -3 
z
" id="m6eb4d443f6" style="stroke:#98df8a;stroke-linejoin:miter;"/>
     </defs>
     <g>
      <use style="fill:#98df8a;stroke:#98df8a;stroke-linejoin:miter;" x="405.360625" xlink:href="#m6eb4d443f6" y="30.416562"/>
     </g>
    </g>
    <g id="text_17">
     <!-- afl_edges -->
     <g transform="translate(423.360625 33.916562)scale(0.1 -0.1)">
      <defs>
       <path d="M 2906 2969 
L 2906 4863 
L 3481 4863 
L 3481 0 
L 2906 0 
L 2906 525 
Q 2725 213 2448 61 
Q 2172 -91 1784 -91 
Q 1150 -91 751 415 
Q 353 922 353 1747 
Q 353 2572 751 3078 
Q 1150 3584 1784 3584 
Q 2172 3584 2448 3432 
Q 2725 3281 2906 2969 
z
M 947 1747 
Q 947 1113 1208 752 
Q 1469 391 1925 391 
Q 2381 391 2643 752 
Q 2906 1113 2906 1747 
Q 2906 2381 2643 2742 
Q 2381 3103 1925 3103 
Q 1469 3103 1208 2742 
Q 947 2381 947 1747 
z
" id="DejaVuSans-64" transform="scale(0.015625)"/>
      </defs>
      <use xlink:href="#DejaVuSans-61"/>
      <use x="61.279297" xlink:href="#DejaVuSans-66"/>
      <use x="96.484375" xlink:href="#DejaVuSans-6c"/>
      <use x="124.267578" xlink:href="#DejaVuSans-5f"/>
      <use x="174.267578" xlink:href="#DejaVuSans-65"/>
      <use x="235.791016" xlink:href="#DejaVuSans-64"/>
      <use x="299.267578" xlink:href="#DejaVuSans-67"/>
      <use x="362.744141" xlink:href="#DejaVuSans-65"/>
      <use x="424.267578" xlink:href="#DejaVuSans-73"/>
     </g>
    </g>
    <g id="line2d_20">
     <path d="M 395.360625 45.372813 
L 415.360625 45.372813 
" style="fill:none;stroke:#1f77b4;stroke-linecap:square;stroke-width:1.5;"/>
    </g>
    <g id="line2d_21">
     <defs>
      <path d="M 0 3 
C 0.795609 3 1.55874 2.683901 2.12132 2.12132 
C 2.683901 1.55874 3 0.795609 3 0 
C 3 -0.795609 2.683901 -1.55874 2.12132 -2.12132 
C 1.55874 -2.683901 0.795609 -3 0 -3 
C -0.795609 -3 -1.55874 -2.683901 -2.12132 -2.12132 
C -2.683901 -1.55874 -3 -0.795609 -3 0 
C -3 0.795609 -2.683901 1.55874 -2.12132 2.12132 
C -1.55874 2.683901 -0.795609 3 0 3 
z
" id="mfadf5f6a8b" style="stroke:#1f77b4;"/>
     </defs>
     <g>
      <use style="fill:#1f77b4;stroke:#1f77b4;" x="405.360625" xlink:href="#mfadf5f6a8b" y="45.372813"/>
     </g>
    </g>
    <g id="text_18">
     <!-- afl -->
     <g transform="translate(423.360625 48.872813)scale(0.1 -0.1)">
      <use xlink:href="#DejaVuSans-61"/>
      <use x="61.279297" xlink:href="#DejaVuSans-66"/>
      <use x="96.484375" xlink:href="#DejaVuSans-6c"/>
     </g>
    </g>
   </g>
  </g>
 </g>
 <defs>
  <clipPath id="pe21b320bbd">
   <rect height="266.112" width="357.12" x="34.240625" y="22.318125"/>
  </clipPath>
 </defs>
</svg>
