<?xml version="1.0" encoding="utf-8" standalone="no"?>
<!DOCTYPE svg PUBLIC "-//W3C//DTD SVG 1.1//EN"
  "http://www.w3.org/Graphics/SVG/1.1/DTD/svg11.dtd">
<svg height="325.986375pt" version="1.1" viewBox="0 0 514.012187 325.986375" width="514.012187pt" xmlns="http://www.w3.org/2000/svg" xmlns:xlink="http://www.w3.org/1999/xlink">
 <metadata>
  <rdf:RDF xmlns:cc="http://creativecommons.org/ns#" xmlns:dc="http://purl.org/dc/elements/1.1/" xmlns:rdf="http://www.w3.org/1999/02/22-rdf-syntax-ns#">
   <cc:Work>
    <dc:type rdf:resource="http://purl.org/dc/dcmitype/StillImage"/>
    <dc:date>2022-06-02T16:11:15.462220</dc:date>
    <dc:format>image/svg+xml</dc:format>
    <dc:creator>
     <cc:Agent>
      <dc:title>Matplotlib v3.4.3, https://matplotlib.org/</dc:title>
     </cc:Agent>
    </dc:creator>
   </cc:Work>
  </rdf:RDF>
 </metadata>
 <defs>
  <style type="text/css">*{stroke-linecap:butt;stroke-linejoin:round;}</style>
 </defs>
 <g id="figure_1">
  <g id="patch_1">
   <path d="M 0 325.986375 
L 514.012187 325.986375 
L 514.012187 0 
L 0 0 
z
" style="fill:#ffffff;"/>
  </g>
  <g id="axes_1">
   <g id="patch_2">
    <path d="M 66.053125 288.430125 
L 423.173125 288.430125 
L 423.173125 22.318125 
L 66.053125 22.318125 
z
" style="fill:#ffffff;"/>
   </g>
   <g id="PolyCollection_1">
    <defs>
     <path d="M 82.285852 -54.14041 
L 82.285852 -49.65225 
L 85.853485 -99.289536 
L 89.421117 -115.422991 
L 92.988749 -124.518911 
L 96.556382 -133.624273 
L 100.124014 -142.946805 
L 103.691646 -147.346838 
L 107.259279 -154.548037 
L 110.826911 -157.761509 
L 114.394544 -164.553549 
L 117.962176 -167.704073 
L 121.529808 -173.6117 
L 125.097441 -178.18484 
L 128.665073 -181.1119 
L 132.232705 -188.627837 
L 135.800338 -191.639877 
L 139.36797 -194.522874 
L 142.935603 -197.736347 
L 146.503235 -200.546954 
L 150.070867 -203.005056 
L 153.6385 -204.525239 
L 157.206132 -207.952733 
L 160.773764 -210.939751 
L 164.341397 -212.894115 
L 167.909029 -214.675531 
L 171.476661 -216.337346 
L 175.044294 -218.704173 
L 178.611926 -220.897895 
L 182.179559 -223.371734 
L 185.747191 -224.435547 
L 189.314823 -225.058728 
L 192.882456 -226.566322 
L 196.450088 -228.690801 
L 200.01772 -231.041892 
L 203.585353 -232.719444 
L 207.152985 -234.327754 
L 210.720618 -234.541775 
L 214.28825 -236.735497 
L 217.855882 -237.185572 
L 221.423515 -239.105472 
L 224.991147 -241.08832 
L 228.558779 -241.642258 
L 232.126412 -243.017662 
L 235.694044 -244.241992 
L 239.261676 -245.299511 
L 242.829309 -245.821975 
L 246.396941 -246.296128 
L 249.964574 -247.741875 
L 253.532206 -248.789952 
L 257.099838 -250.662641 
L 260.667471 -250.294398 
L 264.235103 -252.324456 
L 267.802735 -253.728187 
L 271.370368 -254.702457 
L 274.938 -254.727007 
L 278.505632 -257.583724 
L 282.073265 -258.219494 
L 285.640897 -258.606621 
L 289.20853 -260.202342 
L 292.776162 -260.658711 
L 296.343794 -261.467587 
L 299.911427 -263.286771 
L 303.479059 -264.127121 
L 307.046691 -265.241292 
L 310.614324 -265.76061 
L 314.181956 -266.726854 
L 317.749589 -267.246172 
L 321.317221 -268.841892 
L 324.884853 -269.622442 
L 328.452486 -270.162453 
L 332.020118 -271.023024 
L 335.58775 -271.923174 
L 339.155383 -272.341775 
L 342.723015 -272.895714 
L 346.290647 -273.32061 
L 349.85828 -274.228864 
L 353.425912 -274.223907 
L 356.993545 -275.309752 
L 360.561177 -276.168986 
L 364.128809 -276.329502 
L 367.696442 -276.568703 
L 371.264074 -276.779813 
L 374.831706 -278.016496 
L 378.399339 -278.932383 
L 381.966971 -280.05285 
L 385.534604 -280.62882 
L 389.102236 -281.573033 
L 392.669868 -281.843707 
L 396.237501 -282.117529 
L 399.805133 -281.720959 
L 403.372765 -283.429985 
L 406.940398 -284.119261 
L 406.940398 -291.57225 
L 406.940398 -291.57225 
L 403.372765 -290.296539 
L 399.805133 -289.998561 
L 396.237501 -290.193699 
L 392.669868 -289.183391 
L 389.102236 -288.409136 
L 385.534604 -287.392533 
L 381.966971 -288.538178 
L 378.399339 -286.076929 
L 374.831706 -286.228004 
L 371.264074 -284.26404 
L 367.696442 -283.609386 
L 364.128809 -282.898078 
L 360.561177 -283.237995 
L 356.993545 -281.500643 
L 353.425912 -280.030818 
L 349.85828 -279.750701 
L 346.290647 -278.831667 
L 342.723015 -278.145539 
L 339.155383 -277.103757 
L 335.58775 -276.751251 
L 332.020118 -275.290868 
L 328.452486 -275.079994 
L 324.884853 -275.111467 
L 321.317221 -274.828203 
L 317.749589 -273.449652 
L 314.181956 -271.936 
L 310.614324 -272.763524 
L 307.046691 -271.045056 
L 303.479059 -270.239327 
L 299.911427 -269.188103 
L 296.343794 -267.482225 
L 292.776162 -266.135148 
L 289.20853 -266.361759 
L 285.640897 -264.448153 
L 282.073265 -263.82812 
L 278.505632 -264.315964 
L 274.938 -262.883907 
L 271.370368 -262.285905 
L 267.802735 -261.486471 
L 264.235103 -260.753133 
L 260.667471 -259.635814 
L 257.099838 -259.129086 
L 253.532206 -257.517629 
L 249.964574 -257.045522 
L 246.396941 -254.81175 
L 242.829309 -254.22862 
L 239.261676 -253.167954 
L 235.694044 -252.233183 
L 232.126412 -251.386538 
L 228.558779 -251.282203 
L 224.991147 -249.784523 
L 221.423515 -248.39653 
L 217.855882 -246.580493 
L 214.28825 -244.389919 
L 210.720618 -243.474032 
L 207.152985 -242.737546 
L 203.585353 -240.886888 
L 200.01772 -239.269136 
L 196.450088 -237.959827 
L 192.882456 -234.913166 
L 189.314823 -233.673099 
L 185.747191 -232.540044 
L 182.179559 -229.229003 
L 178.611926 -225.502508 
L 175.044294 -223.226954 
L 171.476661 -221.325939 
L 167.909029 -218.893016 
L 164.341397 -217.438928 
L 160.773764 -215.226322 
L 157.206132 -213.048337 
L 153.6385 -212.211134 
L 150.070867 -208.132842 
L 146.503235 -205.201925 
L 142.935603 -202.71235 
L 139.36797 -200.613049 
L 135.800338 -196.861376 
L 132.232705 -193.915431 
L 128.665073 -189.581335 
L 125.097441 -186.840127 
L 121.529808 -182.030934 
L 117.962176 -178.138416 
L 114.394544 -171.550168 
L 110.826911 -168.512949 
L 107.259279 -162.899051 
L 103.691646 -156.732317 
L 100.124014 -150.277046 
L 96.556382 -141.399869 
L 92.988749 -131.142881 
L 89.421117 -119.401276 
L 85.853485 -104.466971 
L 82.285852 -54.14041 
z
" id="ma0e9791a19" style="stroke:#98df8a;stroke-opacity:0.2;"/>
    </defs>
    <g clip-path="url(#p369d573617)">
     <use style="fill:#98df8a;fill-opacity:0.2;stroke:#98df8a;stroke-opacity:0.2;" x="0" xlink:href="#ma0e9791a19" y="325.986375"/>
    </g>
   </g>
   <g id="PolyCollection_2">
    <defs>
     <path d="M 82.285852 -58.121842 
L 82.285852 -52.053699 
L 85.853485 -75.2719 
L 89.421117 -77.512833 
L 92.988749 -139.394281 
L 96.556382 -157.018728 
L 100.124014 -171.773632 
L 103.691646 -179.069252 
L 107.259279 -185.162575 
L 110.826911 -189.858461 
L 114.394544 -195.13976 
L 117.962176 -199.05195 
L 121.529808 -202.599044 
L 125.097441 -204.924956 
L 128.665073 -206.998763 
L 132.232705 -208.528703 
L 135.800338 -209.3722 
L 139.36797 -209.003957 
L 142.935603 -210.760193 
L 146.503235 -211.383374 
L 150.070867 -211.521859 
L 153.6385 -211.805123 
L 157.206132 -211.931018 
L 160.773764 -211.244889 
L 164.341397 -212.286671 
L 167.909029 -212.684185 
L 171.476661 -212.859494 
L 175.044294 -213.177379 
L 178.611926 -213.193116 
L 182.179559 -213.208853 
L 185.747191 -213.435464 
L 189.314823 -213.448053 
L 192.882456 -213.454348 
L 196.450088 -213.832034 
L 200.01772 -214.12474 
L 203.585353 -214.287538 
L 207.152985 -214.524456 
L 210.720618 -214.518162 
L 214.28825 -215.260943 
L 217.855882 -215.434049 
L 221.423515 -215.685839 
L 224.991147 -215.311301 
L 228.558779 -215.868387 
L 232.126412 -215.975397 
L 235.694044 -216.202009 
L 239.261676 -216.497862 
L 242.829309 -217.331917 
L 246.396941 -218.235214 
L 249.964574 -218.464973 
L 253.532206 -218.591733 
L 257.099838 -218.609752 
L 260.667471 -218.741942 
L 264.235103 -219.185722 
L 267.802735 -219.358828 
L 271.370368 -219.900177 
L 274.938 -220.309336 
L 278.505632 -219.988303 
L 282.073265 -220.044956 
L 285.640897 -220.252683 
L 289.20853 -220.331367 
L 292.776162 -220.661842 
L 296.343794 -220.797179 
L 299.911427 -221.074148 
L 303.479059 -220.473708 
L 307.046691 -221.53996 
L 310.614324 -221.713066 
L 314.181956 -221.964856 
L 317.749589 -222.295331 
L 321.317221 -222.874448 
L 324.884853 -223.661292 
L 328.452486 -223.13568 
L 332.020118 -223.765156 
L 335.58775 -223.720227 
L 339.155383 -224.363158 
L 342.723015 -224.810085 
L 346.290647 -224.939128 
L 349.85828 -225.738561 
L 353.425912 -225.795214 
L 356.993545 -225.826688 
L 360.561177 -225.861309 
L 364.128809 -226.194931 
L 367.696442 -226.487637 
L 371.264074 -226.711101 
L 374.831706 -226.770901 
L 378.399339 -226.802375 
L 381.966971 -227.063607 
L 385.534604 -227.280776 
L 389.102236 -227.362608 
L 392.669868 -227.501093 
L 396.237501 -227.038428 
L 399.805133 -227.780344 
L 403.372765 -227.913399 
L 406.940398 -228.111684 
L 406.940398 -248.953616 
L 406.940398 -248.953616 
L 403.372765 -248.890668 
L 399.805133 -248.701825 
L 396.237501 -248.692383 
L 392.669868 -248.446888 
L 389.102236 -248.446888 
L 385.534604 -248.053466 
L 381.966971 -246.571051 
L 378.399339 -247.269769 
L 374.831706 -246.901368 
L 371.264074 -246.511251 
L 367.696442 -246.022935 
L 364.128809 -245.866039 
L 360.561177 -245.740143 
L 356.993545 -245.168973 
L 353.425912 -244.959594 
L 349.85828 -244.953299 
L 346.290647 -244.41195 
L 342.723015 -244.311234 
L 339.155383 -243.052283 
L 335.58775 -243.650285 
L 332.020118 -243.294631 
L 328.452486 -243.071168 
L 324.884853 -242.595914 
L 321.317221 -241.72409 
L 317.749589 -241.229952 
L 314.181956 -240.95613 
L 310.614324 -239.810485 
L 307.046691 -239.5524 
L 303.479059 -239.366705 
L 299.911427 -238.989019 
L 296.343794 -239.206188 
L 292.776162 -238.57986 
L 289.20853 -238.186438 
L 285.640897 -237.959827 
L 282.073265 -238.073133 
L 278.505632 -237.538078 
L 274.938 -237.069119 
L 271.370368 -236.892866 
L 267.802735 -236.763824 
L 264.235103 -236.395581 
L 260.667471 -236.367254 
L 257.099838 -236.235064 
L 253.532206 -236.140643 
L 249.964574 -235.624473 
L 246.396941 -235.58041 
L 242.829309 -235.517462 
L 239.261676 -235.46081 
L 235.694044 -235.095714 
L 232.126412 -235.130335 
L 228.558779 -234.988703 
L 224.991147 -234.611018 
L 221.423515 -234.267954 
L 217.855882 -234.030563 
L 214.28825 -233.651068 
L 210.720618 -233.08454 
L 207.152985 -232.870518 
L 203.585353 -232.313432 
L 200.01772 -231.825589 
L 196.450088 -231.671367 
L 192.882456 -231.098545 
L 189.314823 -230.58867 
L 185.747191 -230.3117 
L 182.179559 -229.697962 
L 178.611926 -229.329719 
L 175.044294 -229.090518 
L 171.476661 -228.756896 
L 167.909029 -228.59638 
L 164.341397 -227.907104 
L 160.773764 -227.718262 
L 157.206132 -226.390068 
L 153.6385 -225.445619 
L 150.070867 -224.800643 
L 146.503235 -223.85643 
L 142.935603 -222.893332 
L 139.36797 -220.72479 
L 135.800338 -218.213183 
L 132.232705 -216.573399 
L 128.665073 -214.955647 
L 125.097441 -212.639178 
L 121.529808 -209.262042 
L 117.962176 -207.807954 
L 114.394544 -202.633665 
L 110.826911 -198.677412 
L 107.259279 -192.552616 
L 103.691646 -184.492183 
L 100.124014 -175.065789 
L 96.556382 -162.366122 
L 92.988749 -146.591467 
L 89.421117 -120.58469 
L 85.853485 -84.081409 
L 82.285852 -58.121842 
z
" id="m45069086bf" style="stroke:#1f77b4;stroke-opacity:0.2;"/>
    </defs>
    <g clip-path="url(#p369d573617)">
     <use style="fill:#1f77b4;fill-opacity:0.2;stroke:#1f77b4;stroke-opacity:0.2;" x="0" xlink:href="#m45069086bf" y="325.986375"/>
    </g>
   </g>
   <g id="matplotlib.axis_1">
    <g id="xtick_1">
     <g id="line2d_1">
      <defs>
       <path d="M 0 0 
L 0 3.5 
" id="mdd030e7e43" style="stroke:#000000;stroke-width:0.8;"/>
      </defs>
      <g>
       <use style="stroke:#000000;stroke-width:0.8;" x="82.285852" xlink:href="#mdd030e7e43" y="288.430125"/>
      </g>
     </g>
     <g id="text_1">
      <!-- 15m -->
      <g transform="translate(71.05304 303.028562)scale(0.1 -0.1)">
       <defs>
        <path d="M 794 531 
L 1825 531 
L 1825 4091 
L 703 3866 
L 703 4441 
L 1819 4666 
L 2450 4666 
L 2450 531 
L 3481 531 
L 3481 0 
L 794 0 
L 794 531 
z
" id="DejaVuSans-31" transform="scale(0.015625)"/>
        <path d="M 691 4666 
L 3169 4666 
L 3169 4134 
L 1269 4134 
L 1269 2991 
Q 1406 3038 1543 3061 
Q 1681 3084 1819 3084 
Q 2600 3084 3056 2656 
Q 3513 2228 3513 1497 
Q 3513 744 3044 326 
Q 2575 -91 1722 -91 
Q 1428 -91 1123 -41 
Q 819 9 494 109 
L 494 744 
Q 775 591 1075 516 
Q 1375 441 1709 441 
Q 2250 441 2565 725 
Q 2881 1009 2881 1497 
Q 2881 1984 2565 2268 
Q 2250 2553 1709 2553 
Q 1456 2553 1204 2497 
Q 953 2441 691 2322 
L 691 4666 
z
" id="DejaVuSans-35" transform="scale(0.015625)"/>
        <path d="M 3328 2828 
Q 3544 3216 3844 3400 
Q 4144 3584 4550 3584 
Q 5097 3584 5394 3201 
Q 5691 2819 5691 2113 
L 5691 0 
L 5113 0 
L 5113 2094 
Q 5113 2597 4934 2840 
Q 4756 3084 4391 3084 
Q 3944 3084 3684 2787 
Q 3425 2491 3425 1978 
L 3425 0 
L 2847 0 
L 2847 2094 
Q 2847 2600 2669 2842 
Q 2491 3084 2119 3084 
Q 1678 3084 1418 2786 
Q 1159 2488 1159 1978 
L 1159 0 
L 581 0 
L 581 3500 
L 1159 3500 
L 1159 2956 
Q 1356 3278 1631 3431 
Q 1906 3584 2284 3584 
Q 2666 3584 2933 3390 
Q 3200 3197 3328 2828 
z
" id="DejaVuSans-6d" transform="scale(0.015625)"/>
       </defs>
       <use xlink:href="#DejaVuSans-31"/>
       <use x="63.623047" xlink:href="#DejaVuSans-35"/>
       <use x="127.246094" xlink:href="#DejaVuSans-6d"/>
      </g>
     </g>
    </g>
    <g id="xtick_2">
     <g id="line2d_2">
      <g>
       <use style="stroke:#000000;stroke-width:0.8;" x="136.989549" xlink:href="#mdd030e7e43" y="288.430125"/>
      </g>
     </g>
     <g id="text_2">
      <!-- 4h:5m -->
      <g transform="translate(120.903611 303.028562)scale(0.1 -0.1)">
       <defs>
        <path d="M 2419 4116 
L 825 1625 
L 2419 1625 
L 2419 4116 
z
M 2253 4666 
L 3047 4666 
L 3047 1625 
L 3713 1625 
L 3713 1100 
L 3047 1100 
L 3047 0 
L 2419 0 
L 2419 1100 
L 313 1100 
L 313 1709 
L 2253 4666 
z
" id="DejaVuSans-34" transform="scale(0.015625)"/>
        <path d="M 3513 2113 
L 3513 0 
L 2938 0 
L 2938 2094 
Q 2938 2591 2744 2837 
Q 2550 3084 2163 3084 
Q 1697 3084 1428 2787 
Q 1159 2491 1159 1978 
L 1159 0 
L 581 0 
L 581 4863 
L 1159 4863 
L 1159 2956 
Q 1366 3272 1645 3428 
Q 1925 3584 2291 3584 
Q 2894 3584 3203 3211 
Q 3513 2838 3513 2113 
z
" id="DejaVuSans-68" transform="scale(0.015625)"/>
        <path d="M 750 794 
L 1409 794 
L 1409 0 
L 750 0 
L 750 794 
z
M 750 3309 
L 1409 3309 
L 1409 2516 
L 750 2516 
L 750 3309 
z
" id="DejaVuSans-3a" transform="scale(0.015625)"/>
       </defs>
       <use xlink:href="#DejaVuSans-34"/>
       <use x="63.623047" xlink:href="#DejaVuSans-68"/>
       <use x="127.001953" xlink:href="#DejaVuSans-3a"/>
       <use x="160.693359" xlink:href="#DejaVuSans-35"/>
       <use x="224.316406" xlink:href="#DejaVuSans-6d"/>
      </g>
     </g>
    </g>
    <g id="xtick_3">
     <g id="line2d_3">
      <g>
       <use style="stroke:#000000;stroke-width:0.8;" x="191.693245" xlink:href="#mdd030e7e43" y="288.430125"/>
      </g>
     </g>
     <g id="text_3">
      <!-- 7h:55m -->
      <g transform="translate(172.426057 303.028562)scale(0.1 -0.1)">
       <defs>
        <path d="M 525 4666 
L 3525 4666 
L 3525 4397 
L 1831 0 
L 1172 0 
L 2766 4134 
L 525 4134 
L 525 4666 
z
" id="DejaVuSans-37" transform="scale(0.015625)"/>
       </defs>
       <use xlink:href="#DejaVuSans-37"/>
       <use x="63.623047" xlink:href="#DejaVuSans-68"/>
       <use x="127.001953" xlink:href="#DejaVuSans-3a"/>
       <use x="160.693359" xlink:href="#DejaVuSans-35"/>
       <use x="224.316406" xlink:href="#DejaVuSans-35"/>
       <use x="287.939453" xlink:href="#DejaVuSans-6d"/>
      </g>
     </g>
    </g>
    <g id="xtick_4">
     <g id="line2d_4">
      <g>
       <use style="stroke:#000000;stroke-width:0.8;" x="246.396941" xlink:href="#mdd030e7e43" y="288.430125"/>
      </g>
     </g>
     <g id="text_4">
      <!-- 11h:45m -->
      <g transform="translate(223.948504 303.028562)scale(0.1 -0.1)">
       <use xlink:href="#DejaVuSans-31"/>
       <use x="63.623047" xlink:href="#DejaVuSans-31"/>
       <use x="127.246094" xlink:href="#DejaVuSans-68"/>
       <use x="190.625" xlink:href="#DejaVuSans-3a"/>
       <use x="224.316406" xlink:href="#DejaVuSans-34"/>
       <use x="287.939453" xlink:href="#DejaVuSans-35"/>
       <use x="351.5625" xlink:href="#DejaVuSans-6d"/>
      </g>
     </g>
    </g>
    <g id="xtick_5">
     <g id="line2d_5">
      <g>
       <use style="stroke:#000000;stroke-width:0.8;" x="301.100637" xlink:href="#mdd030e7e43" y="288.430125"/>
      </g>
     </g>
     <g id="text_5">
      <!-- 15h:35m -->
      <g transform="translate(278.6522 303.028562)scale(0.1 -0.1)">
       <defs>
        <path d="M 2597 2516 
Q 3050 2419 3304 2112 
Q 3559 1806 3559 1356 
Q 3559 666 3084 287 
Q 2609 -91 1734 -91 
Q 1441 -91 1130 -33 
Q 819 25 488 141 
L 488 750 
Q 750 597 1062 519 
Q 1375 441 1716 441 
Q 2309 441 2620 675 
Q 2931 909 2931 1356 
Q 2931 1769 2642 2001 
Q 2353 2234 1838 2234 
L 1294 2234 
L 1294 2753 
L 1863 2753 
Q 2328 2753 2575 2939 
Q 2822 3125 2822 3475 
Q 2822 3834 2567 4026 
Q 2313 4219 1838 4219 
Q 1578 4219 1281 4162 
Q 984 4106 628 3988 
L 628 4550 
Q 988 4650 1302 4700 
Q 1616 4750 1894 4750 
Q 2613 4750 3031 4423 
Q 3450 4097 3450 3541 
Q 3450 3153 3228 2886 
Q 3006 2619 2597 2516 
z
" id="DejaVuSans-33" transform="scale(0.015625)"/>
       </defs>
       <use xlink:href="#DejaVuSans-31"/>
       <use x="63.623047" xlink:href="#DejaVuSans-35"/>
       <use x="127.246094" xlink:href="#DejaVuSans-68"/>
       <use x="190.625" xlink:href="#DejaVuSans-3a"/>
       <use x="224.316406" xlink:href="#DejaVuSans-33"/>
       <use x="287.939453" xlink:href="#DejaVuSans-35"/>
       <use x="351.5625" xlink:href="#DejaVuSans-6d"/>
      </g>
     </g>
    </g>
    <g id="xtick_6">
     <g id="line2d_6">
      <g>
       <use style="stroke:#000000;stroke-width:0.8;" x="355.804334" xlink:href="#mdd030e7e43" y="288.430125"/>
      </g>
     </g>
     <g id="text_6">
      <!-- 19h:25m -->
      <g transform="translate(333.355896 303.028562)scale(0.1 -0.1)">
       <defs>
        <path d="M 703 97 
L 703 672 
Q 941 559 1184 500 
Q 1428 441 1663 441 
Q 2288 441 2617 861 
Q 2947 1281 2994 2138 
Q 2813 1869 2534 1725 
Q 2256 1581 1919 1581 
Q 1219 1581 811 2004 
Q 403 2428 403 3163 
Q 403 3881 828 4315 
Q 1253 4750 1959 4750 
Q 2769 4750 3195 4129 
Q 3622 3509 3622 2328 
Q 3622 1225 3098 567 
Q 2575 -91 1691 -91 
Q 1453 -91 1209 -44 
Q 966 3 703 97 
z
M 1959 2075 
Q 2384 2075 2632 2365 
Q 2881 2656 2881 3163 
Q 2881 3666 2632 3958 
Q 2384 4250 1959 4250 
Q 1534 4250 1286 3958 
Q 1038 3666 1038 3163 
Q 1038 2656 1286 2365 
Q 1534 2075 1959 2075 
z
" id="DejaVuSans-39" transform="scale(0.015625)"/>
        <path d="M 1228 531 
L 3431 531 
L 3431 0 
L 469 0 
L 469 531 
Q 828 903 1448 1529 
Q 2069 2156 2228 2338 
Q 2531 2678 2651 2914 
Q 2772 3150 2772 3378 
Q 2772 3750 2511 3984 
Q 2250 4219 1831 4219 
Q 1534 4219 1204 4116 
Q 875 4013 500 3803 
L 500 4441 
Q 881 4594 1212 4672 
Q 1544 4750 1819 4750 
Q 2544 4750 2975 4387 
Q 3406 4025 3406 3419 
Q 3406 3131 3298 2873 
Q 3191 2616 2906 2266 
Q 2828 2175 2409 1742 
Q 1991 1309 1228 531 
z
" id="DejaVuSans-32" transform="scale(0.015625)"/>
       </defs>
       <use xlink:href="#DejaVuSans-31"/>
       <use x="63.623047" xlink:href="#DejaVuSans-39"/>
       <use x="127.246094" xlink:href="#DejaVuSans-68"/>
       <use x="190.625" xlink:href="#DejaVuSans-3a"/>
       <use x="224.316406" xlink:href="#DejaVuSans-32"/>
       <use x="287.939453" xlink:href="#DejaVuSans-35"/>
       <use x="351.5625" xlink:href="#DejaVuSans-6d"/>
      </g>
     </g>
    </g>
    <g id="text_7">
     <!-- Time (hour:minute) -->
     <g transform="translate(196.206094 316.706687)scale(0.1 -0.1)">
      <defs>
       <path d="M -19 4666 
L 3928 4666 
L 3928 4134 
L 2272 4134 
L 2272 0 
L 1638 0 
L 1638 4134 
L -19 4134 
L -19 4666 
z
" id="DejaVuSans-54" transform="scale(0.015625)"/>
       <path d="M 603 3500 
L 1178 3500 
L 1178 0 
L 603 0 
L 603 3500 
z
M 603 4863 
L 1178 4863 
L 1178 4134 
L 603 4134 
L 603 4863 
z
" id="DejaVuSans-69" transform="scale(0.015625)"/>
       <path d="M 3597 1894 
L 3597 1613 
L 953 1613 
Q 991 1019 1311 708 
Q 1631 397 2203 397 
Q 2534 397 2845 478 
Q 3156 559 3463 722 
L 3463 178 
Q 3153 47 2828 -22 
Q 2503 -91 2169 -91 
Q 1331 -91 842 396 
Q 353 884 353 1716 
Q 353 2575 817 3079 
Q 1281 3584 2069 3584 
Q 2775 3584 3186 3129 
Q 3597 2675 3597 1894 
z
M 3022 2063 
Q 3016 2534 2758 2815 
Q 2500 3097 2075 3097 
Q 1594 3097 1305 2825 
Q 1016 2553 972 2059 
L 3022 2063 
z
" id="DejaVuSans-65" transform="scale(0.015625)"/>
       <path id="DejaVuSans-20" transform="scale(0.015625)"/>
       <path d="M 1984 4856 
Q 1566 4138 1362 3434 
Q 1159 2731 1159 2009 
Q 1159 1288 1364 580 
Q 1569 -128 1984 -844 
L 1484 -844 
Q 1016 -109 783 600 
Q 550 1309 550 2009 
Q 550 2706 781 3412 
Q 1013 4119 1484 4856 
L 1984 4856 
z
" id="DejaVuSans-28" transform="scale(0.015625)"/>
       <path d="M 1959 3097 
Q 1497 3097 1228 2736 
Q 959 2375 959 1747 
Q 959 1119 1226 758 
Q 1494 397 1959 397 
Q 2419 397 2687 759 
Q 2956 1122 2956 1747 
Q 2956 2369 2687 2733 
Q 2419 3097 1959 3097 
z
M 1959 3584 
Q 2709 3584 3137 3096 
Q 3566 2609 3566 1747 
Q 3566 888 3137 398 
Q 2709 -91 1959 -91 
Q 1206 -91 779 398 
Q 353 888 353 1747 
Q 353 2609 779 3096 
Q 1206 3584 1959 3584 
z
" id="DejaVuSans-6f" transform="scale(0.015625)"/>
       <path d="M 544 1381 
L 544 3500 
L 1119 3500 
L 1119 1403 
Q 1119 906 1312 657 
Q 1506 409 1894 409 
Q 2359 409 2629 706 
Q 2900 1003 2900 1516 
L 2900 3500 
L 3475 3500 
L 3475 0 
L 2900 0 
L 2900 538 
Q 2691 219 2414 64 
Q 2138 -91 1772 -91 
Q 1169 -91 856 284 
Q 544 659 544 1381 
z
M 1991 3584 
L 1991 3584 
z
" id="DejaVuSans-75" transform="scale(0.015625)"/>
       <path d="M 2631 2963 
Q 2534 3019 2420 3045 
Q 2306 3072 2169 3072 
Q 1681 3072 1420 2755 
Q 1159 2438 1159 1844 
L 1159 0 
L 581 0 
L 581 3500 
L 1159 3500 
L 1159 2956 
Q 1341 3275 1631 3429 
Q 1922 3584 2338 3584 
Q 2397 3584 2469 3576 
Q 2541 3569 2628 3553 
L 2631 2963 
z
" id="DejaVuSans-72" transform="scale(0.015625)"/>
       <path d="M 3513 2113 
L 3513 0 
L 2938 0 
L 2938 2094 
Q 2938 2591 2744 2837 
Q 2550 3084 2163 3084 
Q 1697 3084 1428 2787 
Q 1159 2491 1159 1978 
L 1159 0 
L 581 0 
L 581 3500 
L 1159 3500 
L 1159 2956 
Q 1366 3272 1645 3428 
Q 1925 3584 2291 3584 
Q 2894 3584 3203 3211 
Q 3513 2838 3513 2113 
z
" id="DejaVuSans-6e" transform="scale(0.015625)"/>
       <path d="M 1172 4494 
L 1172 3500 
L 2356 3500 
L 2356 3053 
L 1172 3053 
L 1172 1153 
Q 1172 725 1289 603 
Q 1406 481 1766 481 
L 2356 481 
L 2356 0 
L 1766 0 
Q 1100 0 847 248 
Q 594 497 594 1153 
L 594 3053 
L 172 3053 
L 172 3500 
L 594 3500 
L 594 4494 
L 1172 4494 
z
" id="DejaVuSans-74" transform="scale(0.015625)"/>
       <path d="M 513 4856 
L 1013 4856 
Q 1481 4119 1714 3412 
Q 1947 2706 1947 2009 
Q 1947 1309 1714 600 
Q 1481 -109 1013 -844 
L 513 -844 
Q 928 -128 1133 580 
Q 1338 1288 1338 2009 
Q 1338 2731 1133 3434 
Q 928 4138 513 4856 
z
" id="DejaVuSans-29" transform="scale(0.015625)"/>
      </defs>
      <use xlink:href="#DejaVuSans-54"/>
      <use x="57.958984" xlink:href="#DejaVuSans-69"/>
      <use x="85.742188" xlink:href="#DejaVuSans-6d"/>
      <use x="183.154297" xlink:href="#DejaVuSans-65"/>
      <use x="244.677734" xlink:href="#DejaVuSans-20"/>
      <use x="276.464844" xlink:href="#DejaVuSans-28"/>
      <use x="315.478516" xlink:href="#DejaVuSans-68"/>
      <use x="378.857422" xlink:href="#DejaVuSans-6f"/>
      <use x="440.039062" xlink:href="#DejaVuSans-75"/>
      <use x="503.417969" xlink:href="#DejaVuSans-72"/>
      <use x="542.78125" xlink:href="#DejaVuSans-3a"/>
      <use x="576.472656" xlink:href="#DejaVuSans-6d"/>
      <use x="673.884766" xlink:href="#DejaVuSans-69"/>
      <use x="701.667969" xlink:href="#DejaVuSans-6e"/>
      <use x="765.046875" xlink:href="#DejaVuSans-75"/>
      <use x="828.425781" xlink:href="#DejaVuSans-74"/>
      <use x="867.634766" xlink:href="#DejaVuSans-65"/>
      <use x="929.158203" xlink:href="#DejaVuSans-29"/>
     </g>
    </g>
   </g>
   <g id="matplotlib.axis_2">
    <g id="ytick_1">
     <g id="line2d_7">
      <defs>
       <path d="M 0 0 
L -3.5 0 
" id="mbbade30345" style="stroke:#000000;stroke-width:0.8;"/>
      </defs>
      <g>
       <use style="stroke:#000000;stroke-width:0.8;" x="66.053125" xlink:href="#mbbade30345" y="268.320903"/>
      </g>
     </g>
     <g id="text_8">
      <!-- 145000 -->
      <g transform="translate(20.878125 272.120121)scale(0.1 -0.1)">
       <defs>
        <path d="M 2034 4250 
Q 1547 4250 1301 3770 
Q 1056 3291 1056 2328 
Q 1056 1369 1301 889 
Q 1547 409 2034 409 
Q 2525 409 2770 889 
Q 3016 1369 3016 2328 
Q 3016 3291 2770 3770 
Q 2525 4250 2034 4250 
z
M 2034 4750 
Q 2819 4750 3233 4129 
Q 3647 3509 3647 2328 
Q 3647 1150 3233 529 
Q 2819 -91 2034 -91 
Q 1250 -91 836 529 
Q 422 1150 422 2328 
Q 422 3509 836 4129 
Q 1250 4750 2034 4750 
z
" id="DejaVuSans-30" transform="scale(0.015625)"/>
       </defs>
       <use xlink:href="#DejaVuSans-31"/>
       <use x="63.623047" xlink:href="#DejaVuSans-34"/>
       <use x="127.246094" xlink:href="#DejaVuSans-35"/>
       <use x="190.869141" xlink:href="#DejaVuSans-30"/>
       <use x="254.492188" xlink:href="#DejaVuSans-30"/>
       <use x="318.115234" xlink:href="#DejaVuSans-30"/>
      </g>
     </g>
    </g>
    <g id="ytick_2">
     <g id="line2d_8">
      <g>
       <use style="stroke:#000000;stroke-width:0.8;" x="66.053125" xlink:href="#mbbade30345" y="236.847131"/>
      </g>
     </g>
     <g id="text_9">
      <!-- 150000 -->
      <g transform="translate(20.878125 240.64635)scale(0.1 -0.1)">
       <use xlink:href="#DejaVuSans-31"/>
       <use x="63.623047" xlink:href="#DejaVuSans-35"/>
       <use x="127.246094" xlink:href="#DejaVuSans-30"/>
       <use x="190.869141" xlink:href="#DejaVuSans-30"/>
       <use x="254.492188" xlink:href="#DejaVuSans-30"/>
       <use x="318.115234" xlink:href="#DejaVuSans-30"/>
      </g>
     </g>
    </g>
    <g id="ytick_3">
     <g id="line2d_9">
      <g>
       <use style="stroke:#000000;stroke-width:0.8;" x="66.053125" xlink:href="#mbbade30345" y="205.373359"/>
      </g>
     </g>
     <g id="text_10">
      <!-- 155000 -->
      <g transform="translate(20.878125 209.172578)scale(0.1 -0.1)">
       <use xlink:href="#DejaVuSans-31"/>
       <use x="63.623047" xlink:href="#DejaVuSans-35"/>
       <use x="127.246094" xlink:href="#DejaVuSans-35"/>
       <use x="190.869141" xlink:href="#DejaVuSans-30"/>
       <use x="254.492188" xlink:href="#DejaVuSans-30"/>
       <use x="318.115234" xlink:href="#DejaVuSans-30"/>
      </g>
     </g>
    </g>
    <g id="ytick_4">
     <g id="line2d_10">
      <g>
       <use style="stroke:#000000;stroke-width:0.8;" x="66.053125" xlink:href="#mbbade30345" y="173.899587"/>
      </g>
     </g>
     <g id="text_11">
      <!-- 160000 -->
      <g transform="translate(20.878125 177.698806)scale(0.1 -0.1)">
       <defs>
        <path d="M 2113 2584 
Q 1688 2584 1439 2293 
Q 1191 2003 1191 1497 
Q 1191 994 1439 701 
Q 1688 409 2113 409 
Q 2538 409 2786 701 
Q 3034 994 3034 1497 
Q 3034 2003 2786 2293 
Q 2538 2584 2113 2584 
z
M 3366 4563 
L 3366 3988 
Q 3128 4100 2886 4159 
Q 2644 4219 2406 4219 
Q 1781 4219 1451 3797 
Q 1122 3375 1075 2522 
Q 1259 2794 1537 2939 
Q 1816 3084 2150 3084 
Q 2853 3084 3261 2657 
Q 3669 2231 3669 1497 
Q 3669 778 3244 343 
Q 2819 -91 2113 -91 
Q 1303 -91 875 529 
Q 447 1150 447 2328 
Q 447 3434 972 4092 
Q 1497 4750 2381 4750 
Q 2619 4750 2861 4703 
Q 3103 4656 3366 4563 
z
" id="DejaVuSans-36" transform="scale(0.015625)"/>
       </defs>
       <use xlink:href="#DejaVuSans-31"/>
       <use x="63.623047" xlink:href="#DejaVuSans-36"/>
       <use x="127.246094" xlink:href="#DejaVuSans-30"/>
       <use x="190.869141" xlink:href="#DejaVuSans-30"/>
       <use x="254.492188" xlink:href="#DejaVuSans-30"/>
       <use x="318.115234" xlink:href="#DejaVuSans-30"/>
      </g>
     </g>
    </g>
    <g id="ytick_5">
     <g id="line2d_11">
      <g>
       <use style="stroke:#000000;stroke-width:0.8;" x="66.053125" xlink:href="#mbbade30345" y="142.425815"/>
      </g>
     </g>
     <g id="text_12">
      <!-- 165000 -->
      <g transform="translate(20.878125 146.225034)scale(0.1 -0.1)">
       <use xlink:href="#DejaVuSans-31"/>
       <use x="63.623047" xlink:href="#DejaVuSans-36"/>
       <use x="127.246094" xlink:href="#DejaVuSans-35"/>
       <use x="190.869141" xlink:href="#DejaVuSans-30"/>
       <use x="254.492188" xlink:href="#DejaVuSans-30"/>
       <use x="318.115234" xlink:href="#DejaVuSans-30"/>
      </g>
     </g>
    </g>
    <g id="ytick_6">
     <g id="line2d_12">
      <g>
       <use style="stroke:#000000;stroke-width:0.8;" x="66.053125" xlink:href="#mbbade30345" y="110.952043"/>
      </g>
     </g>
     <g id="text_13">
      <!-- 170000 -->
      <g transform="translate(20.878125 114.751262)scale(0.1 -0.1)">
       <use xlink:href="#DejaVuSans-31"/>
       <use x="63.623047" xlink:href="#DejaVuSans-37"/>
       <use x="127.246094" xlink:href="#DejaVuSans-30"/>
       <use x="190.869141" xlink:href="#DejaVuSans-30"/>
       <use x="254.492188" xlink:href="#DejaVuSans-30"/>
       <use x="318.115234" xlink:href="#DejaVuSans-30"/>
      </g>
     </g>
    </g>
    <g id="ytick_7">
     <g id="line2d_13">
      <g>
       <use style="stroke:#000000;stroke-width:0.8;" x="66.053125" xlink:href="#mbbade30345" y="79.478272"/>
      </g>
     </g>
     <g id="text_14">
      <!-- 175000 -->
      <g transform="translate(20.878125 83.27749)scale(0.1 -0.1)">
       <use xlink:href="#DejaVuSans-31"/>
       <use x="63.623047" xlink:href="#DejaVuSans-37"/>
       <use x="127.246094" xlink:href="#DejaVuSans-35"/>
       <use x="190.869141" xlink:href="#DejaVuSans-30"/>
       <use x="254.492188" xlink:href="#DejaVuSans-30"/>
       <use x="318.115234" xlink:href="#DejaVuSans-30"/>
      </g>
     </g>
    </g>
    <g id="ytick_8">
     <g id="line2d_14">
      <g>
       <use style="stroke:#000000;stroke-width:0.8;" x="66.053125" xlink:href="#mbbade30345" y="48.0045"/>
      </g>
     </g>
     <g id="text_15">
      <!-- 180000 -->
      <g transform="translate(20.878125 51.803718)scale(0.1 -0.1)">
       <defs>
        <path d="M 2034 2216 
Q 1584 2216 1326 1975 
Q 1069 1734 1069 1313 
Q 1069 891 1326 650 
Q 1584 409 2034 409 
Q 2484 409 2743 651 
Q 3003 894 3003 1313 
Q 3003 1734 2745 1975 
Q 2488 2216 2034 2216 
z
M 1403 2484 
Q 997 2584 770 2862 
Q 544 3141 544 3541 
Q 544 4100 942 4425 
Q 1341 4750 2034 4750 
Q 2731 4750 3128 4425 
Q 3525 4100 3525 3541 
Q 3525 3141 3298 2862 
Q 3072 2584 2669 2484 
Q 3125 2378 3379 2068 
Q 3634 1759 3634 1313 
Q 3634 634 3220 271 
Q 2806 -91 2034 -91 
Q 1263 -91 848 271 
Q 434 634 434 1313 
Q 434 1759 690 2068 
Q 947 2378 1403 2484 
z
M 1172 3481 
Q 1172 3119 1398 2916 
Q 1625 2713 2034 2713 
Q 2441 2713 2670 2916 
Q 2900 3119 2900 3481 
Q 2900 3844 2670 4047 
Q 2441 4250 2034 4250 
Q 1625 4250 1398 4047 
Q 1172 3844 1172 3481 
z
" id="DejaVuSans-38" transform="scale(0.015625)"/>
       </defs>
       <use xlink:href="#DejaVuSans-31"/>
       <use x="63.623047" xlink:href="#DejaVuSans-38"/>
       <use x="127.246094" xlink:href="#DejaVuSans-30"/>
       <use x="190.869141" xlink:href="#DejaVuSans-30"/>
       <use x="254.492188" xlink:href="#DejaVuSans-30"/>
       <use x="318.115234" xlink:href="#DejaVuSans-30"/>
      </g>
     </g>
    </g>
    <g id="text_16">
     <!-- Code region coverage -->
     <g transform="translate(14.798438 210.379594)rotate(-90)scale(0.1 -0.1)">
      <defs>
       <path d="M 4122 4306 
L 4122 3641 
Q 3803 3938 3442 4084 
Q 3081 4231 2675 4231 
Q 1875 4231 1450 3742 
Q 1025 3253 1025 2328 
Q 1025 1406 1450 917 
Q 1875 428 2675 428 
Q 3081 428 3442 575 
Q 3803 722 4122 1019 
L 4122 359 
Q 3791 134 3420 21 
Q 3050 -91 2638 -91 
Q 1578 -91 968 557 
Q 359 1206 359 2328 
Q 359 3453 968 4101 
Q 1578 4750 2638 4750 
Q 3056 4750 3426 4639 
Q 3797 4528 4122 4306 
z
" id="DejaVuSans-43" transform="scale(0.015625)"/>
       <path d="M 2906 2969 
L 2906 4863 
L 3481 4863 
L 3481 0 
L 2906 0 
L 2906 525 
Q 2725 213 2448 61 
Q 2172 -91 1784 -91 
Q 1150 -91 751 415 
Q 353 922 353 1747 
Q 353 2572 751 3078 
Q 1150 3584 1784 3584 
Q 2172 3584 2448 3432 
Q 2725 3281 2906 2969 
z
M 947 1747 
Q 947 1113 1208 752 
Q 1469 391 1925 391 
Q 2381 391 2643 752 
Q 2906 1113 2906 1747 
Q 2906 2381 2643 2742 
Q 2381 3103 1925 3103 
Q 1469 3103 1208 2742 
Q 947 2381 947 1747 
z
" id="DejaVuSans-64" transform="scale(0.015625)"/>
       <path d="M 2906 1791 
Q 2906 2416 2648 2759 
Q 2391 3103 1925 3103 
Q 1463 3103 1205 2759 
Q 947 2416 947 1791 
Q 947 1169 1205 825 
Q 1463 481 1925 481 
Q 2391 481 2648 825 
Q 2906 1169 2906 1791 
z
M 3481 434 
Q 3481 -459 3084 -895 
Q 2688 -1331 1869 -1331 
Q 1566 -1331 1297 -1286 
Q 1028 -1241 775 -1147 
L 775 -588 
Q 1028 -725 1275 -790 
Q 1522 -856 1778 -856 
Q 2344 -856 2625 -561 
Q 2906 -266 2906 331 
L 2906 616 
Q 2728 306 2450 153 
Q 2172 0 1784 0 
Q 1141 0 747 490 
Q 353 981 353 1791 
Q 353 2603 747 3093 
Q 1141 3584 1784 3584 
Q 2172 3584 2450 3431 
Q 2728 3278 2906 2969 
L 2906 3500 
L 3481 3500 
L 3481 434 
z
" id="DejaVuSans-67" transform="scale(0.015625)"/>
       <path d="M 3122 3366 
L 3122 2828 
Q 2878 2963 2633 3030 
Q 2388 3097 2138 3097 
Q 1578 3097 1268 2742 
Q 959 2388 959 1747 
Q 959 1106 1268 751 
Q 1578 397 2138 397 
Q 2388 397 2633 464 
Q 2878 531 3122 666 
L 3122 134 
Q 2881 22 2623 -34 
Q 2366 -91 2075 -91 
Q 1284 -91 818 406 
Q 353 903 353 1747 
Q 353 2603 823 3093 
Q 1294 3584 2113 3584 
Q 2378 3584 2631 3529 
Q 2884 3475 3122 3366 
z
" id="DejaVuSans-63" transform="scale(0.015625)"/>
       <path d="M 191 3500 
L 800 3500 
L 1894 563 
L 2988 3500 
L 3597 3500 
L 2284 0 
L 1503 0 
L 191 3500 
z
" id="DejaVuSans-76" transform="scale(0.015625)"/>
       <path d="M 2194 1759 
Q 1497 1759 1228 1600 
Q 959 1441 959 1056 
Q 959 750 1161 570 
Q 1363 391 1709 391 
Q 2188 391 2477 730 
Q 2766 1069 2766 1631 
L 2766 1759 
L 2194 1759 
z
M 3341 1997 
L 3341 0 
L 2766 0 
L 2766 531 
Q 2569 213 2275 61 
Q 1981 -91 1556 -91 
Q 1019 -91 701 211 
Q 384 513 384 1019 
Q 384 1609 779 1909 
Q 1175 2209 1959 2209 
L 2766 2209 
L 2766 2266 
Q 2766 2663 2505 2880 
Q 2244 3097 1772 3097 
Q 1472 3097 1187 3025 
Q 903 2953 641 2809 
L 641 3341 
Q 956 3463 1253 3523 
Q 1550 3584 1831 3584 
Q 2591 3584 2966 3190 
Q 3341 2797 3341 1997 
z
" id="DejaVuSans-61" transform="scale(0.015625)"/>
      </defs>
      <use xlink:href="#DejaVuSans-43"/>
      <use x="69.824219" xlink:href="#DejaVuSans-6f"/>
      <use x="131.005859" xlink:href="#DejaVuSans-64"/>
      <use x="194.482422" xlink:href="#DejaVuSans-65"/>
      <use x="256.005859" xlink:href="#DejaVuSans-20"/>
      <use x="287.792969" xlink:href="#DejaVuSans-72"/>
      <use x="326.65625" xlink:href="#DejaVuSans-65"/>
      <use x="388.179688" xlink:href="#DejaVuSans-67"/>
      <use x="451.65625" xlink:href="#DejaVuSans-69"/>
      <use x="479.439453" xlink:href="#DejaVuSans-6f"/>
      <use x="540.621094" xlink:href="#DejaVuSans-6e"/>
      <use x="604" xlink:href="#DejaVuSans-20"/>
      <use x="635.787109" xlink:href="#DejaVuSans-63"/>
      <use x="690.767578" xlink:href="#DejaVuSans-6f"/>
      <use x="751.949219" xlink:href="#DejaVuSans-76"/>
      <use x="811.128906" xlink:href="#DejaVuSans-65"/>
      <use x="872.652344" xlink:href="#DejaVuSans-72"/>
      <use x="913.765625" xlink:href="#DejaVuSans-61"/>
      <use x="975.044922" xlink:href="#DejaVuSans-67"/>
      <use x="1038.521484" xlink:href="#DejaVuSans-65"/>
     </g>
    </g>
   </g>
   <g id="line2d_15">
    <path clip-path="url(#p369d573617)" d="M 82.285852 273.224516 
L 85.853485 224.55977 
L 89.421117 208.807147 
L 92.988749 198.197339 
L 96.556382 189.551494 
L 100.124014 178.5042 
L 103.691646 173.861819 
L 107.259279 168.914142 
L 110.826911 164.196223 
L 114.394544 158.253975 
L 117.962176 152.377822 
L 121.529808 146.750312 
L 125.097441 143.448713 
L 128.665073 140.232093 
L 132.232705 135.278122 
L 135.800338 132.391977 
L 139.36797 128.703251 
L 142.935603 126.276623 
L 146.503235 123.387331 
L 150.070867 120.614491 
L 153.6385 118.134358 
L 157.206132 114.986981 
L 160.773764 113.586398 
L 164.341397 111.723151 
L 167.909029 109.642734 
L 171.476661 107.581202 
L 175.044294 105.126248 
L 178.611926 103.039537 
L 182.179559 101.217206 
L 185.747191 99.697023 
L 189.314823 98.117039 
L 192.882456 96.832909 
L 196.450088 94.041186 
L 200.01772 92.489529 
L 203.585353 91.243167 
L 207.152985 90.157322 
L 210.720618 87.821968 
L 214.28825 86.581902 
L 217.855882 84.52037 
L 221.423515 82.669712 
L 224.991147 81.675141 
L 228.558779 80.202168 
L 232.126412 79.198155 
L 235.694044 78.766964 
L 239.261676 77.237339 
L 242.829309 75.553492 
L 246.396941 74.653342 
L 249.964574 74.124583 
L 253.532206 73.35977 
L 257.099838 72.362052 
L 260.667471 71.361186 
L 264.235103 70.114824 
L 267.802735 68.840137 
L 271.370368 68.840137 
L 274.938 67.046132 
L 278.505632 66.9643 
L 282.073265 65.491327 
L 285.640897 64.836673 
L 289.20853 64.065565 
L 292.776162 63.174858 
L 296.343794 62.290445 
L 299.911427 60.959104 
L 303.479059 59.599437 
L 307.046691 59.275257 
L 310.614324 57.556789 
L 314.181956 56.637755 
L 317.749589 56.083817 
L 321.317221 55.844616 
L 324.884853 55.111277 
L 328.452486 54.708413 
L 332.020118 53.462052 
L 335.58775 52.725565 
L 339.155383 50.865466 
L 342.723015 50.349296 
L 346.290647 49.52783 
L 349.85828 49.112376 
L 353.425912 48.555291 
L 356.993545 48.190195 
L 360.561177 47.714941 
L 364.128809 46.629096 
L 367.696442 45.203334 
L 371.264074 44.718638 
L 374.831706 44.498322 
L 378.399339 43.97271 
L 381.966971 42.546948 
L 385.534604 40.822185 
L 389.102236 39.922035 
L 392.669868 39.758371 
L 396.237501 38.977822 
L 399.805133 37.895124 
L 403.372765 37.120869 
L 406.940398 36.544899 
" style="fill:none;stroke:#98df8a;stroke-linecap:square;stroke-width:1.5;"/>
    <defs>
     <path d="M -0 3 
L 3 -3 
L -3 -3 
z
" id="m77f04a5727" style="stroke:#ffffff;stroke-linejoin:miter;stroke-width:0.75;"/>
    </defs>
    <g clip-path="url(#p369d573617)">
     <use style="fill:#98df8a;stroke:#ffffff;stroke-linejoin:miter;stroke-width:0.75;" x="82.285852" xlink:href="#m77f04a5727" y="273.224516"/>
     <use style="fill:#98df8a;stroke:#ffffff;stroke-linejoin:miter;stroke-width:0.75;" x="85.853485" xlink:href="#m77f04a5727" y="224.55977"/>
     <use style="fill:#98df8a;stroke:#ffffff;stroke-linejoin:miter;stroke-width:0.75;" x="89.421117" xlink:href="#m77f04a5727" y="208.807147"/>
     <use style="fill:#98df8a;stroke:#ffffff;stroke-linejoin:miter;stroke-width:0.75;" x="92.988749" xlink:href="#m77f04a5727" y="198.197339"/>
     <use style="fill:#98df8a;stroke:#ffffff;stroke-linejoin:miter;stroke-width:0.75;" x="96.556382" xlink:href="#m77f04a5727" y="189.551494"/>
     <use style="fill:#98df8a;stroke:#ffffff;stroke-linejoin:miter;stroke-width:0.75;" x="100.124014" xlink:href="#m77f04a5727" y="178.5042"/>
     <use style="fill:#98df8a;stroke:#ffffff;stroke-linejoin:miter;stroke-width:0.75;" x="103.691646" xlink:href="#m77f04a5727" y="173.861819"/>
     <use style="fill:#98df8a;stroke:#ffffff;stroke-linejoin:miter;stroke-width:0.75;" x="107.259279" xlink:href="#m77f04a5727" y="168.914142"/>
     <use style="fill:#98df8a;stroke:#ffffff;stroke-linejoin:miter;stroke-width:0.75;" x="110.826911" xlink:href="#m77f04a5727" y="164.196223"/>
     <use style="fill:#98df8a;stroke:#ffffff;stroke-linejoin:miter;stroke-width:0.75;" x="114.394544" xlink:href="#m77f04a5727" y="158.253975"/>
     <use style="fill:#98df8a;stroke:#ffffff;stroke-linejoin:miter;stroke-width:0.75;" x="117.962176" xlink:href="#m77f04a5727" y="152.377822"/>
     <use style="fill:#98df8a;stroke:#ffffff;stroke-linejoin:miter;stroke-width:0.75;" x="121.529808" xlink:href="#m77f04a5727" y="146.750312"/>
     <use style="fill:#98df8a;stroke:#ffffff;stroke-linejoin:miter;stroke-width:0.75;" x="125.097441" xlink:href="#m77f04a5727" y="143.448713"/>
     <use style="fill:#98df8a;stroke:#ffffff;stroke-linejoin:miter;stroke-width:0.75;" x="128.665073" xlink:href="#m77f04a5727" y="140.232093"/>
     <use style="fill:#98df8a;stroke:#ffffff;stroke-linejoin:miter;stroke-width:0.75;" x="132.232705" xlink:href="#m77f04a5727" y="135.278122"/>
     <use style="fill:#98df8a;stroke:#ffffff;stroke-linejoin:miter;stroke-width:0.75;" x="135.800338" xlink:href="#m77f04a5727" y="132.391977"/>
     <use style="fill:#98df8a;stroke:#ffffff;stroke-linejoin:miter;stroke-width:0.75;" x="139.36797" xlink:href="#m77f04a5727" y="128.703251"/>
     <use style="fill:#98df8a;stroke:#ffffff;stroke-linejoin:miter;stroke-width:0.75;" x="142.935603" xlink:href="#m77f04a5727" y="126.276623"/>
     <use style="fill:#98df8a;stroke:#ffffff;stroke-linejoin:miter;stroke-width:0.75;" x="146.503235" xlink:href="#m77f04a5727" y="123.387331"/>
     <use style="fill:#98df8a;stroke:#ffffff;stroke-linejoin:miter;stroke-width:0.75;" x="150.070867" xlink:href="#m77f04a5727" y="120.614491"/>
     <use style="fill:#98df8a;stroke:#ffffff;stroke-linejoin:miter;stroke-width:0.75;" x="153.6385" xlink:href="#m77f04a5727" y="118.134358"/>
     <use style="fill:#98df8a;stroke:#ffffff;stroke-linejoin:miter;stroke-width:0.75;" x="157.206132" xlink:href="#m77f04a5727" y="114.986981"/>
     <use style="fill:#98df8a;stroke:#ffffff;stroke-linejoin:miter;stroke-width:0.75;" x="160.773764" xlink:href="#m77f04a5727" y="113.586398"/>
     <use style="fill:#98df8a;stroke:#ffffff;stroke-linejoin:miter;stroke-width:0.75;" x="164.341397" xlink:href="#m77f04a5727" y="111.723151"/>
     <use style="fill:#98df8a;stroke:#ffffff;stroke-linejoin:miter;stroke-width:0.75;" x="167.909029" xlink:href="#m77f04a5727" y="109.642734"/>
     <use style="fill:#98df8a;stroke:#ffffff;stroke-linejoin:miter;stroke-width:0.75;" x="171.476661" xlink:href="#m77f04a5727" y="107.581202"/>
     <use style="fill:#98df8a;stroke:#ffffff;stroke-linejoin:miter;stroke-width:0.75;" x="175.044294" xlink:href="#m77f04a5727" y="105.126248"/>
     <use style="fill:#98df8a;stroke:#ffffff;stroke-linejoin:miter;stroke-width:0.75;" x="178.611926" xlink:href="#m77f04a5727" y="103.039537"/>
     <use style="fill:#98df8a;stroke:#ffffff;stroke-linejoin:miter;stroke-width:0.75;" x="182.179559" xlink:href="#m77f04a5727" y="101.217206"/>
     <use style="fill:#98df8a;stroke:#ffffff;stroke-linejoin:miter;stroke-width:0.75;" x="185.747191" xlink:href="#m77f04a5727" y="99.697023"/>
     <use style="fill:#98df8a;stroke:#ffffff;stroke-linejoin:miter;stroke-width:0.75;" x="189.314823" xlink:href="#m77f04a5727" y="98.117039"/>
     <use style="fill:#98df8a;stroke:#ffffff;stroke-linejoin:miter;stroke-width:0.75;" x="192.882456" xlink:href="#m77f04a5727" y="96.832909"/>
     <use style="fill:#98df8a;stroke:#ffffff;stroke-linejoin:miter;stroke-width:0.75;" x="196.450088" xlink:href="#m77f04a5727" y="94.041186"/>
     <use style="fill:#98df8a;stroke:#ffffff;stroke-linejoin:miter;stroke-width:0.75;" x="200.01772" xlink:href="#m77f04a5727" y="92.489529"/>
     <use style="fill:#98df8a;stroke:#ffffff;stroke-linejoin:miter;stroke-width:0.75;" x="203.585353" xlink:href="#m77f04a5727" y="91.243167"/>
     <use style="fill:#98df8a;stroke:#ffffff;stroke-linejoin:miter;stroke-width:0.75;" x="207.152985" xlink:href="#m77f04a5727" y="90.157322"/>
     <use style="fill:#98df8a;stroke:#ffffff;stroke-linejoin:miter;stroke-width:0.75;" x="210.720618" xlink:href="#m77f04a5727" y="87.821968"/>
     <use style="fill:#98df8a;stroke:#ffffff;stroke-linejoin:miter;stroke-width:0.75;" x="214.28825" xlink:href="#m77f04a5727" y="86.581902"/>
     <use style="fill:#98df8a;stroke:#ffffff;stroke-linejoin:miter;stroke-width:0.75;" x="217.855882" xlink:href="#m77f04a5727" y="84.52037"/>
     <use style="fill:#98df8a;stroke:#ffffff;stroke-linejoin:miter;stroke-width:0.75;" x="221.423515" xlink:href="#m77f04a5727" y="82.669712"/>
     <use style="fill:#98df8a;stroke:#ffffff;stroke-linejoin:miter;stroke-width:0.75;" x="224.991147" xlink:href="#m77f04a5727" y="81.675141"/>
     <use style="fill:#98df8a;stroke:#ffffff;stroke-linejoin:miter;stroke-width:0.75;" x="228.558779" xlink:href="#m77f04a5727" y="80.202168"/>
     <use style="fill:#98df8a;stroke:#ffffff;stroke-linejoin:miter;stroke-width:0.75;" x="232.126412" xlink:href="#m77f04a5727" y="79.198155"/>
     <use style="fill:#98df8a;stroke:#ffffff;stroke-linejoin:miter;stroke-width:0.75;" x="235.694044" xlink:href="#m77f04a5727" y="78.766964"/>
     <use style="fill:#98df8a;stroke:#ffffff;stroke-linejoin:miter;stroke-width:0.75;" x="239.261676" xlink:href="#m77f04a5727" y="77.237339"/>
     <use style="fill:#98df8a;stroke:#ffffff;stroke-linejoin:miter;stroke-width:0.75;" x="242.829309" xlink:href="#m77f04a5727" y="75.553492"/>
     <use style="fill:#98df8a;stroke:#ffffff;stroke-linejoin:miter;stroke-width:0.75;" x="246.396941" xlink:href="#m77f04a5727" y="74.653342"/>
     <use style="fill:#98df8a;stroke:#ffffff;stroke-linejoin:miter;stroke-width:0.75;" x="249.964574" xlink:href="#m77f04a5727" y="74.124583"/>
     <use style="fill:#98df8a;stroke:#ffffff;stroke-linejoin:miter;stroke-width:0.75;" x="253.532206" xlink:href="#m77f04a5727" y="73.35977"/>
     <use style="fill:#98df8a;stroke:#ffffff;stroke-linejoin:miter;stroke-width:0.75;" x="257.099838" xlink:href="#m77f04a5727" y="72.362052"/>
     <use style="fill:#98df8a;stroke:#ffffff;stroke-linejoin:miter;stroke-width:0.75;" x="260.667471" xlink:href="#m77f04a5727" y="71.361186"/>
     <use style="fill:#98df8a;stroke:#ffffff;stroke-linejoin:miter;stroke-width:0.75;" x="264.235103" xlink:href="#m77f04a5727" y="70.114824"/>
     <use style="fill:#98df8a;stroke:#ffffff;stroke-linejoin:miter;stroke-width:0.75;" x="267.802735" xlink:href="#m77f04a5727" y="68.840137"/>
     <use style="fill:#98df8a;stroke:#ffffff;stroke-linejoin:miter;stroke-width:0.75;" x="271.370368" xlink:href="#m77f04a5727" y="68.840137"/>
     <use style="fill:#98df8a;stroke:#ffffff;stroke-linejoin:miter;stroke-width:0.75;" x="274.938" xlink:href="#m77f04a5727" y="67.046132"/>
     <use style="fill:#98df8a;stroke:#ffffff;stroke-linejoin:miter;stroke-width:0.75;" x="278.505632" xlink:href="#m77f04a5727" y="66.9643"/>
     <use style="fill:#98df8a;stroke:#ffffff;stroke-linejoin:miter;stroke-width:0.75;" x="282.073265" xlink:href="#m77f04a5727" y="65.491327"/>
     <use style="fill:#98df8a;stroke:#ffffff;stroke-linejoin:miter;stroke-width:0.75;" x="285.640897" xlink:href="#m77f04a5727" y="64.836673"/>
     <use style="fill:#98df8a;stroke:#ffffff;stroke-linejoin:miter;stroke-width:0.75;" x="289.20853" xlink:href="#m77f04a5727" y="64.065565"/>
     <use style="fill:#98df8a;stroke:#ffffff;stroke-linejoin:miter;stroke-width:0.75;" x="292.776162" xlink:href="#m77f04a5727" y="63.174858"/>
     <use style="fill:#98df8a;stroke:#ffffff;stroke-linejoin:miter;stroke-width:0.75;" x="296.343794" xlink:href="#m77f04a5727" y="62.290445"/>
     <use style="fill:#98df8a;stroke:#ffffff;stroke-linejoin:miter;stroke-width:0.75;" x="299.911427" xlink:href="#m77f04a5727" y="60.959104"/>
     <use style="fill:#98df8a;stroke:#ffffff;stroke-linejoin:miter;stroke-width:0.75;" x="303.479059" xlink:href="#m77f04a5727" y="59.599437"/>
     <use style="fill:#98df8a;stroke:#ffffff;stroke-linejoin:miter;stroke-width:0.75;" x="307.046691" xlink:href="#m77f04a5727" y="59.275257"/>
     <use style="fill:#98df8a;stroke:#ffffff;stroke-linejoin:miter;stroke-width:0.75;" x="310.614324" xlink:href="#m77f04a5727" y="57.556789"/>
     <use style="fill:#98df8a;stroke:#ffffff;stroke-linejoin:miter;stroke-width:0.75;" x="314.181956" xlink:href="#m77f04a5727" y="56.637755"/>
     <use style="fill:#98df8a;stroke:#ffffff;stroke-linejoin:miter;stroke-width:0.75;" x="317.749589" xlink:href="#m77f04a5727" y="56.083817"/>
     <use style="fill:#98df8a;stroke:#ffffff;stroke-linejoin:miter;stroke-width:0.75;" x="321.317221" xlink:href="#m77f04a5727" y="55.844616"/>
     <use style="fill:#98df8a;stroke:#ffffff;stroke-linejoin:miter;stroke-width:0.75;" x="324.884853" xlink:href="#m77f04a5727" y="55.111277"/>
     <use style="fill:#98df8a;stroke:#ffffff;stroke-linejoin:miter;stroke-width:0.75;" x="328.452486" xlink:href="#m77f04a5727" y="54.708413"/>
     <use style="fill:#98df8a;stroke:#ffffff;stroke-linejoin:miter;stroke-width:0.75;" x="332.020118" xlink:href="#m77f04a5727" y="53.462052"/>
     <use style="fill:#98df8a;stroke:#ffffff;stroke-linejoin:miter;stroke-width:0.75;" x="335.58775" xlink:href="#m77f04a5727" y="52.725565"/>
     <use style="fill:#98df8a;stroke:#ffffff;stroke-linejoin:miter;stroke-width:0.75;" x="339.155383" xlink:href="#m77f04a5727" y="50.865466"/>
     <use style="fill:#98df8a;stroke:#ffffff;stroke-linejoin:miter;stroke-width:0.75;" x="342.723015" xlink:href="#m77f04a5727" y="50.349296"/>
     <use style="fill:#98df8a;stroke:#ffffff;stroke-linejoin:miter;stroke-width:0.75;" x="346.290647" xlink:href="#m77f04a5727" y="49.52783"/>
     <use style="fill:#98df8a;stroke:#ffffff;stroke-linejoin:miter;stroke-width:0.75;" x="349.85828" xlink:href="#m77f04a5727" y="49.112376"/>
     <use style="fill:#98df8a;stroke:#ffffff;stroke-linejoin:miter;stroke-width:0.75;" x="353.425912" xlink:href="#m77f04a5727" y="48.555291"/>
     <use style="fill:#98df8a;stroke:#ffffff;stroke-linejoin:miter;stroke-width:0.75;" x="356.993545" xlink:href="#m77f04a5727" y="48.190195"/>
     <use style="fill:#98df8a;stroke:#ffffff;stroke-linejoin:miter;stroke-width:0.75;" x="360.561177" xlink:href="#m77f04a5727" y="47.714941"/>
     <use style="fill:#98df8a;stroke:#ffffff;stroke-linejoin:miter;stroke-width:0.75;" x="364.128809" xlink:href="#m77f04a5727" y="46.629096"/>
     <use style="fill:#98df8a;stroke:#ffffff;stroke-linejoin:miter;stroke-width:0.75;" x="367.696442" xlink:href="#m77f04a5727" y="45.203334"/>
     <use style="fill:#98df8a;stroke:#ffffff;stroke-linejoin:miter;stroke-width:0.75;" x="371.264074" xlink:href="#m77f04a5727" y="44.718638"/>
     <use style="fill:#98df8a;stroke:#ffffff;stroke-linejoin:miter;stroke-width:0.75;" x="374.831706" xlink:href="#m77f04a5727" y="44.498322"/>
     <use style="fill:#98df8a;stroke:#ffffff;stroke-linejoin:miter;stroke-width:0.75;" x="378.399339" xlink:href="#m77f04a5727" y="43.97271"/>
     <use style="fill:#98df8a;stroke:#ffffff;stroke-linejoin:miter;stroke-width:0.75;" x="381.966971" xlink:href="#m77f04a5727" y="42.546948"/>
     <use style="fill:#98df8a;stroke:#ffffff;stroke-linejoin:miter;stroke-width:0.75;" x="385.534604" xlink:href="#m77f04a5727" y="40.822185"/>
     <use style="fill:#98df8a;stroke:#ffffff;stroke-linejoin:miter;stroke-width:0.75;" x="389.102236" xlink:href="#m77f04a5727" y="39.922035"/>
     <use style="fill:#98df8a;stroke:#ffffff;stroke-linejoin:miter;stroke-width:0.75;" x="392.669868" xlink:href="#m77f04a5727" y="39.758371"/>
     <use style="fill:#98df8a;stroke:#ffffff;stroke-linejoin:miter;stroke-width:0.75;" x="396.237501" xlink:href="#m77f04a5727" y="38.977822"/>
     <use style="fill:#98df8a;stroke:#ffffff;stroke-linejoin:miter;stroke-width:0.75;" x="399.805133" xlink:href="#m77f04a5727" y="37.895124"/>
     <use style="fill:#98df8a;stroke:#ffffff;stroke-linejoin:miter;stroke-width:0.75;" x="403.372765" xlink:href="#m77f04a5727" y="37.120869"/>
     <use style="fill:#98df8a;stroke:#ffffff;stroke-linejoin:miter;stroke-width:0.75;" x="406.940398" xlink:href="#m77f04a5727" y="36.544899"/>
    </g>
   </g>
   <g id="line2d_16">
    <path clip-path="url(#p369d573617)" d="M 82.285852 270.470561 
L 85.853485 248.27211 
L 89.421117 214.573142 
L 92.988749 183.499088 
L 96.556382 165.448879 
L 100.124014 152.078821 
L 103.691646 143.949146 
L 107.259279 136.212893 
L 110.826911 129.852043 
L 114.394544 125.266315 
L 117.962176 122.742118 
L 121.529808 118.870844 
L 125.097441 116.642501 
L 128.665073 114.738338 
L 132.232705 113.715441 
L 135.800338 112.752343 
L 139.36797 110.265915 
L 142.935603 109.173775 
L 146.503235 108.597805 
L 150.070867 108.02813 
L 153.6385 107.77634 
L 157.206132 106.633842 
L 160.773764 105.862734 
L 164.341397 105.485049 
L 167.909029 105.02868 
L 171.476661 104.543983 
L 175.044294 103.993192 
L 178.611926 103.772876 
L 182.179559 103.263001 
L 185.747191 102.718505 
L 189.314823 102.287314 
L 192.882456 101.852976 
L 196.450088 101.377722 
L 200.01772 101.157406 
L 203.585353 100.915058 
L 207.152985 100.411477 
L 210.720618 100.081003 
L 214.28825 99.70017 
L 217.855882 99.382285 
L 221.423515 99.212326 
L 224.991147 98.957389 
L 228.558779 98.403451 
L 232.126412 98.192576 
L 235.694044 97.89987 
L 239.261676 97.682701 
L 242.829309 97.534774 
L 246.396941 97.147647 
L 249.964574 96.983983 
L 253.532206 96.647214 
L 257.099838 96.323034 
L 260.667471 96.197139 
L 264.235103 95.917023 
L 267.802735 95.863517 
L 271.370368 95.592843 
L 274.938 95.366232 
L 278.505632 95.07982 
L 282.073265 94.90042 
L 285.640897 94.82803 
L 289.20853 94.44405 
L 292.776162 94.075807 
L 296.343794 93.874375 
L 299.911427 93.657206 
L 303.479059 93.480953 
L 307.046691 93.320436 
L 310.614324 93.254341 
L 314.181956 92.379371 
L 317.749589 92.042601 
L 321.317221 91.866348 
L 324.884853 91.646032 
L 328.452486 91.5044 
L 332.020118 91.227431 
L 335.58775 91.022851 
L 339.155383 90.909545 
L 342.723015 90.752177 
L 346.290647 90.503534 
L 349.85828 90.261186 
L 353.425912 90.097522 
L 356.993545 89.880353 
L 360.561177 89.650595 
L 364.128809 89.285499 
L 367.696442 89.062035 
L 371.264074 88.747297 
L 374.831706 88.621402 
L 378.399339 88.435707 
L 381.966971 88.281486 
L 385.534604 87.884916 
L 389.102236 87.674042 
L 392.669868 87.485199 
L 396.237501 87.334125 
L 399.805133 87.32783 
L 403.372765 87.151577 
L 406.940398 87.060303 
" style="fill:none;stroke:#1f77b4;stroke-linecap:square;stroke-width:1.5;"/>
    <defs>
     <path d="M 0 3 
C 0.795609 3 1.55874 2.683901 2.12132 2.12132 
C 2.683901 1.55874 3 0.795609 3 0 
C 3 -0.795609 2.683901 -1.55874 2.12132 -2.12132 
C 1.55874 -2.683901 0.795609 -3 0 -3 
C -0.795609 -3 -1.55874 -2.683901 -2.12132 -2.12132 
C -2.683901 -1.55874 -3 -0.795609 -3 0 
C -3 0.795609 -2.683901 1.55874 -2.12132 2.12132 
C -1.55874 2.683901 -0.795609 3 0 3 
z
" id="md2f4d8636b" style="stroke:#ffffff;stroke-width:0.75;"/>
    </defs>
    <g clip-path="url(#p369d573617)">
     <use style="fill:#1f77b4;stroke:#ffffff;stroke-width:0.75;" x="82.285852" xlink:href="#md2f4d8636b" y="270.470561"/>
     <use style="fill:#1f77b4;stroke:#ffffff;stroke-width:0.75;" x="85.853485" xlink:href="#md2f4d8636b" y="248.27211"/>
     <use style="fill:#1f77b4;stroke:#ffffff;stroke-width:0.75;" x="89.421117" xlink:href="#md2f4d8636b" y="214.573142"/>
     <use style="fill:#1f77b4;stroke:#ffffff;stroke-width:0.75;" x="92.988749" xlink:href="#md2f4d8636b" y="183.499088"/>
     <use style="fill:#1f77b4;stroke:#ffffff;stroke-width:0.75;" x="96.556382" xlink:href="#md2f4d8636b" y="165.448879"/>
     <use style="fill:#1f77b4;stroke:#ffffff;stroke-width:0.75;" x="100.124014" xlink:href="#md2f4d8636b" y="152.078821"/>
     <use style="fill:#1f77b4;stroke:#ffffff;stroke-width:0.75;" x="103.691646" xlink:href="#md2f4d8636b" y="143.949146"/>
     <use style="fill:#1f77b4;stroke:#ffffff;stroke-width:0.75;" x="107.259279" xlink:href="#md2f4d8636b" y="136.212893"/>
     <use style="fill:#1f77b4;stroke:#ffffff;stroke-width:0.75;" x="110.826911" xlink:href="#md2f4d8636b" y="129.852043"/>
     <use style="fill:#1f77b4;stroke:#ffffff;stroke-width:0.75;" x="114.394544" xlink:href="#md2f4d8636b" y="125.266315"/>
     <use style="fill:#1f77b4;stroke:#ffffff;stroke-width:0.75;" x="117.962176" xlink:href="#md2f4d8636b" y="122.742118"/>
     <use style="fill:#1f77b4;stroke:#ffffff;stroke-width:0.75;" x="121.529808" xlink:href="#md2f4d8636b" y="118.870844"/>
     <use style="fill:#1f77b4;stroke:#ffffff;stroke-width:0.75;" x="125.097441" xlink:href="#md2f4d8636b" y="116.642501"/>
     <use style="fill:#1f77b4;stroke:#ffffff;stroke-width:0.75;" x="128.665073" xlink:href="#md2f4d8636b" y="114.738338"/>
     <use style="fill:#1f77b4;stroke:#ffffff;stroke-width:0.75;" x="132.232705" xlink:href="#md2f4d8636b" y="113.715441"/>
     <use style="fill:#1f77b4;stroke:#ffffff;stroke-width:0.75;" x="135.800338" xlink:href="#md2f4d8636b" y="112.752343"/>
     <use style="fill:#1f77b4;stroke:#ffffff;stroke-width:0.75;" x="139.36797" xlink:href="#md2f4d8636b" y="110.265915"/>
     <use style="fill:#1f77b4;stroke:#ffffff;stroke-width:0.75;" x="142.935603" xlink:href="#md2f4d8636b" y="109.173775"/>
     <use style="fill:#1f77b4;stroke:#ffffff;stroke-width:0.75;" x="146.503235" xlink:href="#md2f4d8636b" y="108.597805"/>
     <use style="fill:#1f77b4;stroke:#ffffff;stroke-width:0.75;" x="150.070867" xlink:href="#md2f4d8636b" y="108.02813"/>
     <use style="fill:#1f77b4;stroke:#ffffff;stroke-width:0.75;" x="153.6385" xlink:href="#md2f4d8636b" y="107.77634"/>
     <use style="fill:#1f77b4;stroke:#ffffff;stroke-width:0.75;" x="157.206132" xlink:href="#md2f4d8636b" y="106.633842"/>
     <use style="fill:#1f77b4;stroke:#ffffff;stroke-width:0.75;" x="160.773764" xlink:href="#md2f4d8636b" y="105.862734"/>
     <use style="fill:#1f77b4;stroke:#ffffff;stroke-width:0.75;" x="164.341397" xlink:href="#md2f4d8636b" y="105.485049"/>
     <use style="fill:#1f77b4;stroke:#ffffff;stroke-width:0.75;" x="167.909029" xlink:href="#md2f4d8636b" y="105.02868"/>
     <use style="fill:#1f77b4;stroke:#ffffff;stroke-width:0.75;" x="171.476661" xlink:href="#md2f4d8636b" y="104.543983"/>
     <use style="fill:#1f77b4;stroke:#ffffff;stroke-width:0.75;" x="175.044294" xlink:href="#md2f4d8636b" y="103.993192"/>
     <use style="fill:#1f77b4;stroke:#ffffff;stroke-width:0.75;" x="178.611926" xlink:href="#md2f4d8636b" y="103.772876"/>
     <use style="fill:#1f77b4;stroke:#ffffff;stroke-width:0.75;" x="182.179559" xlink:href="#md2f4d8636b" y="103.263001"/>
     <use style="fill:#1f77b4;stroke:#ffffff;stroke-width:0.75;" x="185.747191" xlink:href="#md2f4d8636b" y="102.718505"/>
     <use style="fill:#1f77b4;stroke:#ffffff;stroke-width:0.75;" x="189.314823" xlink:href="#md2f4d8636b" y="102.287314"/>
     <use style="fill:#1f77b4;stroke:#ffffff;stroke-width:0.75;" x="192.882456" xlink:href="#md2f4d8636b" y="101.852976"/>
     <use style="fill:#1f77b4;stroke:#ffffff;stroke-width:0.75;" x="196.450088" xlink:href="#md2f4d8636b" y="101.377722"/>
     <use style="fill:#1f77b4;stroke:#ffffff;stroke-width:0.75;" x="200.01772" xlink:href="#md2f4d8636b" y="101.157406"/>
     <use style="fill:#1f77b4;stroke:#ffffff;stroke-width:0.75;" x="203.585353" xlink:href="#md2f4d8636b" y="100.915058"/>
     <use style="fill:#1f77b4;stroke:#ffffff;stroke-width:0.75;" x="207.152985" xlink:href="#md2f4d8636b" y="100.411477"/>
     <use style="fill:#1f77b4;stroke:#ffffff;stroke-width:0.75;" x="210.720618" xlink:href="#md2f4d8636b" y="100.081003"/>
     <use style="fill:#1f77b4;stroke:#ffffff;stroke-width:0.75;" x="214.28825" xlink:href="#md2f4d8636b" y="99.70017"/>
     <use style="fill:#1f77b4;stroke:#ffffff;stroke-width:0.75;" x="217.855882" xlink:href="#md2f4d8636b" y="99.382285"/>
     <use style="fill:#1f77b4;stroke:#ffffff;stroke-width:0.75;" x="221.423515" xlink:href="#md2f4d8636b" y="99.212326"/>
     <use style="fill:#1f77b4;stroke:#ffffff;stroke-width:0.75;" x="224.991147" xlink:href="#md2f4d8636b" y="98.957389"/>
     <use style="fill:#1f77b4;stroke:#ffffff;stroke-width:0.75;" x="228.558779" xlink:href="#md2f4d8636b" y="98.403451"/>
     <use style="fill:#1f77b4;stroke:#ffffff;stroke-width:0.75;" x="232.126412" xlink:href="#md2f4d8636b" y="98.192576"/>
     <use style="fill:#1f77b4;stroke:#ffffff;stroke-width:0.75;" x="235.694044" xlink:href="#md2f4d8636b" y="97.89987"/>
     <use style="fill:#1f77b4;stroke:#ffffff;stroke-width:0.75;" x="239.261676" xlink:href="#md2f4d8636b" y="97.682701"/>
     <use style="fill:#1f77b4;stroke:#ffffff;stroke-width:0.75;" x="242.829309" xlink:href="#md2f4d8636b" y="97.534774"/>
     <use style="fill:#1f77b4;stroke:#ffffff;stroke-width:0.75;" x="246.396941" xlink:href="#md2f4d8636b" y="97.147647"/>
     <use style="fill:#1f77b4;stroke:#ffffff;stroke-width:0.75;" x="249.964574" xlink:href="#md2f4d8636b" y="96.983983"/>
     <use style="fill:#1f77b4;stroke:#ffffff;stroke-width:0.75;" x="253.532206" xlink:href="#md2f4d8636b" y="96.647214"/>
     <use style="fill:#1f77b4;stroke:#ffffff;stroke-width:0.75;" x="257.099838" xlink:href="#md2f4d8636b" y="96.323034"/>
     <use style="fill:#1f77b4;stroke:#ffffff;stroke-width:0.75;" x="260.667471" xlink:href="#md2f4d8636b" y="96.197139"/>
     <use style="fill:#1f77b4;stroke:#ffffff;stroke-width:0.75;" x="264.235103" xlink:href="#md2f4d8636b" y="95.917023"/>
     <use style="fill:#1f77b4;stroke:#ffffff;stroke-width:0.75;" x="267.802735" xlink:href="#md2f4d8636b" y="95.863517"/>
     <use style="fill:#1f77b4;stroke:#ffffff;stroke-width:0.75;" x="271.370368" xlink:href="#md2f4d8636b" y="95.592843"/>
     <use style="fill:#1f77b4;stroke:#ffffff;stroke-width:0.75;" x="274.938" xlink:href="#md2f4d8636b" y="95.366232"/>
     <use style="fill:#1f77b4;stroke:#ffffff;stroke-width:0.75;" x="278.505632" xlink:href="#md2f4d8636b" y="95.07982"/>
     <use style="fill:#1f77b4;stroke:#ffffff;stroke-width:0.75;" x="282.073265" xlink:href="#md2f4d8636b" y="94.90042"/>
     <use style="fill:#1f77b4;stroke:#ffffff;stroke-width:0.75;" x="285.640897" xlink:href="#md2f4d8636b" y="94.82803"/>
     <use style="fill:#1f77b4;stroke:#ffffff;stroke-width:0.75;" x="289.20853" xlink:href="#md2f4d8636b" y="94.44405"/>
     <use style="fill:#1f77b4;stroke:#ffffff;stroke-width:0.75;" x="292.776162" xlink:href="#md2f4d8636b" y="94.075807"/>
     <use style="fill:#1f77b4;stroke:#ffffff;stroke-width:0.75;" x="296.343794" xlink:href="#md2f4d8636b" y="93.874375"/>
     <use style="fill:#1f77b4;stroke:#ffffff;stroke-width:0.75;" x="299.911427" xlink:href="#md2f4d8636b" y="93.657206"/>
     <use style="fill:#1f77b4;stroke:#ffffff;stroke-width:0.75;" x="303.479059" xlink:href="#md2f4d8636b" y="93.480953"/>
     <use style="fill:#1f77b4;stroke:#ffffff;stroke-width:0.75;" x="307.046691" xlink:href="#md2f4d8636b" y="93.320436"/>
     <use style="fill:#1f77b4;stroke:#ffffff;stroke-width:0.75;" x="310.614324" xlink:href="#md2f4d8636b" y="93.254341"/>
     <use style="fill:#1f77b4;stroke:#ffffff;stroke-width:0.75;" x="314.181956" xlink:href="#md2f4d8636b" y="92.379371"/>
     <use style="fill:#1f77b4;stroke:#ffffff;stroke-width:0.75;" x="317.749589" xlink:href="#md2f4d8636b" y="92.042601"/>
     <use style="fill:#1f77b4;stroke:#ffffff;stroke-width:0.75;" x="321.317221" xlink:href="#md2f4d8636b" y="91.866348"/>
     <use style="fill:#1f77b4;stroke:#ffffff;stroke-width:0.75;" x="324.884853" xlink:href="#md2f4d8636b" y="91.646032"/>
     <use style="fill:#1f77b4;stroke:#ffffff;stroke-width:0.75;" x="328.452486" xlink:href="#md2f4d8636b" y="91.5044"/>
     <use style="fill:#1f77b4;stroke:#ffffff;stroke-width:0.75;" x="332.020118" xlink:href="#md2f4d8636b" y="91.227431"/>
     <use style="fill:#1f77b4;stroke:#ffffff;stroke-width:0.75;" x="335.58775" xlink:href="#md2f4d8636b" y="91.022851"/>
     <use style="fill:#1f77b4;stroke:#ffffff;stroke-width:0.75;" x="339.155383" xlink:href="#md2f4d8636b" y="90.909545"/>
     <use style="fill:#1f77b4;stroke:#ffffff;stroke-width:0.75;" x="342.723015" xlink:href="#md2f4d8636b" y="90.752177"/>
     <use style="fill:#1f77b4;stroke:#ffffff;stroke-width:0.75;" x="346.290647" xlink:href="#md2f4d8636b" y="90.503534"/>
     <use style="fill:#1f77b4;stroke:#ffffff;stroke-width:0.75;" x="349.85828" xlink:href="#md2f4d8636b" y="90.261186"/>
     <use style="fill:#1f77b4;stroke:#ffffff;stroke-width:0.75;" x="353.425912" xlink:href="#md2f4d8636b" y="90.097522"/>
     <use style="fill:#1f77b4;stroke:#ffffff;stroke-width:0.75;" x="356.993545" xlink:href="#md2f4d8636b" y="89.880353"/>
     <use style="fill:#1f77b4;stroke:#ffffff;stroke-width:0.75;" x="360.561177" xlink:href="#md2f4d8636b" y="89.650595"/>
     <use style="fill:#1f77b4;stroke:#ffffff;stroke-width:0.75;" x="364.128809" xlink:href="#md2f4d8636b" y="89.285499"/>
     <use style="fill:#1f77b4;stroke:#ffffff;stroke-width:0.75;" x="367.696442" xlink:href="#md2f4d8636b" y="89.062035"/>
     <use style="fill:#1f77b4;stroke:#ffffff;stroke-width:0.75;" x="371.264074" xlink:href="#md2f4d8636b" y="88.747297"/>
     <use style="fill:#1f77b4;stroke:#ffffff;stroke-width:0.75;" x="374.831706" xlink:href="#md2f4d8636b" y="88.621402"/>
     <use style="fill:#1f77b4;stroke:#ffffff;stroke-width:0.75;" x="378.399339" xlink:href="#md2f4d8636b" y="88.435707"/>
     <use style="fill:#1f77b4;stroke:#ffffff;stroke-width:0.75;" x="381.966971" xlink:href="#md2f4d8636b" y="88.281486"/>
     <use style="fill:#1f77b4;stroke:#ffffff;stroke-width:0.75;" x="385.534604" xlink:href="#md2f4d8636b" y="87.884916"/>
     <use style="fill:#1f77b4;stroke:#ffffff;stroke-width:0.75;" x="389.102236" xlink:href="#md2f4d8636b" y="87.674042"/>
     <use style="fill:#1f77b4;stroke:#ffffff;stroke-width:0.75;" x="392.669868" xlink:href="#md2f4d8636b" y="87.485199"/>
     <use style="fill:#1f77b4;stroke:#ffffff;stroke-width:0.75;" x="396.237501" xlink:href="#md2f4d8636b" y="87.334125"/>
     <use style="fill:#1f77b4;stroke:#ffffff;stroke-width:0.75;" x="399.805133" xlink:href="#md2f4d8636b" y="87.32783"/>
     <use style="fill:#1f77b4;stroke:#ffffff;stroke-width:0.75;" x="403.372765" xlink:href="#md2f4d8636b" y="87.151577"/>
     <use style="fill:#1f77b4;stroke:#ffffff;stroke-width:0.75;" x="406.940398" xlink:href="#md2f4d8636b" y="87.060303"/>
    </g>
   </g>
   <g id="line2d_17"/>
   <g id="line2d_18"/>
   <g id="patch_3">
    <path d="M 66.053125 268.320903 
L 66.053125 48.0045 
" style="fill:none;stroke:#000000;stroke-linecap:square;stroke-linejoin:miter;stroke-width:0.8;"/>
   </g>
   <g id="patch_4">
    <path d="M 82.285852 288.430125 
L 355.804334 288.430125 
" style="fill:none;stroke:#000000;stroke-linecap:square;stroke-linejoin:miter;stroke-width:0.8;"/>
   </g>
   <g id="text_17">
    <!-- php_php-fuzz-execute (23h, 20 trials/fuzzer) -->
    <g transform="translate(111.712188 16.318125)scale(0.12 -0.12)">
     <defs>
      <path d="M 1159 525 
L 1159 -1331 
L 581 -1331 
L 581 3500 
L 1159 3500 
L 1159 2969 
Q 1341 3281 1617 3432 
Q 1894 3584 2278 3584 
Q 2916 3584 3314 3078 
Q 3713 2572 3713 1747 
Q 3713 922 3314 415 
Q 2916 -91 2278 -91 
Q 1894 -91 1617 61 
Q 1341 213 1159 525 
z
M 3116 1747 
Q 3116 2381 2855 2742 
Q 2594 3103 2138 3103 
Q 1681 3103 1420 2742 
Q 1159 2381 1159 1747 
Q 1159 1113 1420 752 
Q 1681 391 2138 391 
Q 2594 391 2855 752 
Q 3116 1113 3116 1747 
z
" id="DejaVuSans-70" transform="scale(0.015625)"/>
      <path d="M 3263 -1063 
L 3263 -1509 
L -63 -1509 
L -63 -1063 
L 3263 -1063 
z
" id="DejaVuSans-5f" transform="scale(0.015625)"/>
      <path d="M 313 2009 
L 1997 2009 
L 1997 1497 
L 313 1497 
L 313 2009 
z
" id="DejaVuSans-2d" transform="scale(0.015625)"/>
      <path d="M 2375 4863 
L 2375 4384 
L 1825 4384 
Q 1516 4384 1395 4259 
Q 1275 4134 1275 3809 
L 1275 3500 
L 2222 3500 
L 2222 3053 
L 1275 3053 
L 1275 0 
L 697 0 
L 697 3053 
L 147 3053 
L 147 3500 
L 697 3500 
L 697 3744 
Q 697 4328 969 4595 
Q 1241 4863 1831 4863 
L 2375 4863 
z
" id="DejaVuSans-66" transform="scale(0.015625)"/>
      <path d="M 353 3500 
L 3084 3500 
L 3084 2975 
L 922 459 
L 3084 459 
L 3084 0 
L 275 0 
L 275 525 
L 2438 3041 
L 353 3041 
L 353 3500 
z
" id="DejaVuSans-7a" transform="scale(0.015625)"/>
      <path d="M 3513 3500 
L 2247 1797 
L 3578 0 
L 2900 0 
L 1881 1375 
L 863 0 
L 184 0 
L 1544 1831 
L 300 3500 
L 978 3500 
L 1906 2253 
L 2834 3500 
L 3513 3500 
z
" id="DejaVuSans-78" transform="scale(0.015625)"/>
      <path d="M 750 794 
L 1409 794 
L 1409 256 
L 897 -744 
L 494 -744 
L 750 256 
L 750 794 
z
" id="DejaVuSans-2c" transform="scale(0.015625)"/>
      <path d="M 603 4863 
L 1178 4863 
L 1178 0 
L 603 0 
L 603 4863 
z
" id="DejaVuSans-6c" transform="scale(0.015625)"/>
      <path d="M 2834 3397 
L 2834 2853 
Q 2591 2978 2328 3040 
Q 2066 3103 1784 3103 
Q 1356 3103 1142 2972 
Q 928 2841 928 2578 
Q 928 2378 1081 2264 
Q 1234 2150 1697 2047 
L 1894 2003 
Q 2506 1872 2764 1633 
Q 3022 1394 3022 966 
Q 3022 478 2636 193 
Q 2250 -91 1575 -91 
Q 1294 -91 989 -36 
Q 684 19 347 128 
L 347 722 
Q 666 556 975 473 
Q 1284 391 1588 391 
Q 1994 391 2212 530 
Q 2431 669 2431 922 
Q 2431 1156 2273 1281 
Q 2116 1406 1581 1522 
L 1381 1569 
Q 847 1681 609 1914 
Q 372 2147 372 2553 
Q 372 3047 722 3315 
Q 1072 3584 1716 3584 
Q 2034 3584 2315 3537 
Q 2597 3491 2834 3397 
z
" id="DejaVuSans-73" transform="scale(0.015625)"/>
      <path d="M 1625 4666 
L 2156 4666 
L 531 -594 
L 0 -594 
L 1625 4666 
z
" id="DejaVuSans-2f" transform="scale(0.015625)"/>
     </defs>
     <use xlink:href="#DejaVuSans-70"/>
     <use x="63.476562" xlink:href="#DejaVuSans-68"/>
     <use x="126.855469" xlink:href="#DejaVuSans-70"/>
     <use x="190.332031" xlink:href="#DejaVuSans-5f"/>
     <use x="240.332031" xlink:href="#DejaVuSans-70"/>
     <use x="303.808594" xlink:href="#DejaVuSans-68"/>
     <use x="367.1875" xlink:href="#DejaVuSans-70"/>
     <use x="430.664062" xlink:href="#DejaVuSans-2d"/>
     <use x="466.748047" xlink:href="#DejaVuSans-66"/>
     <use x="501.953125" xlink:href="#DejaVuSans-75"/>
     <use x="565.332031" xlink:href="#DejaVuSans-7a"/>
     <use x="617.822266" xlink:href="#DejaVuSans-7a"/>
     <use x="670.3125" xlink:href="#DejaVuSans-2d"/>
     <use x="706.396484" xlink:href="#DejaVuSans-65"/>
     <use x="766.169922" xlink:href="#DejaVuSans-78"/>
     <use x="822.224609" xlink:href="#DejaVuSans-65"/>
     <use x="883.748047" xlink:href="#DejaVuSans-63"/>
     <use x="938.728516" xlink:href="#DejaVuSans-75"/>
     <use x="1002.107422" xlink:href="#DejaVuSans-74"/>
     <use x="1041.316406" xlink:href="#DejaVuSans-65"/>
     <use x="1102.839844" xlink:href="#DejaVuSans-20"/>
     <use x="1134.626953" xlink:href="#DejaVuSans-28"/>
     <use x="1173.640625" xlink:href="#DejaVuSans-32"/>
     <use x="1237.263672" xlink:href="#DejaVuSans-33"/>
     <use x="1300.886719" xlink:href="#DejaVuSans-68"/>
     <use x="1364.265625" xlink:href="#DejaVuSans-2c"/>
     <use x="1396.052734" xlink:href="#DejaVuSans-20"/>
     <use x="1427.839844" xlink:href="#DejaVuSans-32"/>
     <use x="1491.462891" xlink:href="#DejaVuSans-30"/>
     <use x="1555.085938" xlink:href="#DejaVuSans-20"/>
     <use x="1586.873047" xlink:href="#DejaVuSans-74"/>
     <use x="1626.082031" xlink:href="#DejaVuSans-72"/>
     <use x="1667.195312" xlink:href="#DejaVuSans-69"/>
     <use x="1694.978516" xlink:href="#DejaVuSans-61"/>
     <use x="1756.257812" xlink:href="#DejaVuSans-6c"/>
     <use x="1784.041016" xlink:href="#DejaVuSans-73"/>
     <use x="1836.140625" xlink:href="#DejaVuSans-2f"/>
     <use x="1869.832031" xlink:href="#DejaVuSans-66"/>
     <use x="1905.037109" xlink:href="#DejaVuSans-75"/>
     <use x="1968.416016" xlink:href="#DejaVuSans-7a"/>
     <use x="2020.90625" xlink:href="#DejaVuSans-7a"/>
     <use x="2073.396484" xlink:href="#DejaVuSans-65"/>
     <use x="2134.919922" xlink:href="#DejaVuSans-72"/>
     <use x="2176.033203" xlink:href="#DejaVuSans-29"/>
    </g>
   </g>
   <g id="legend_1">
    <g id="line2d_19">
     <path d="M 427.173125 30.416562 
L 447.173125 30.416562 
" style="fill:none;stroke:#98df8a;stroke-linecap:square;stroke-width:1.5;"/>
    </g>
    <g id="line2d_20">
     <defs>
      <path d="M -0 3 
L 3 -3 
L -3 -3 
z
" id="m5ab2d487fd" style="stroke:#98df8a;stroke-linejoin:miter;"/>
     </defs>
     <g>
      <use style="fill:#98df8a;stroke:#98df8a;stroke-linejoin:miter;" x="437.173125" xlink:href="#m5ab2d487fd" y="30.416562"/>
     </g>
    </g>
    <g id="text_18">
     <!-- afl_edges -->
     <g transform="translate(455.173125 33.916562)scale(0.1 -0.1)">
      <use xlink:href="#DejaVuSans-61"/>
      <use x="61.279297" xlink:href="#DejaVuSans-66"/>
      <use x="96.484375" xlink:href="#DejaVuSans-6c"/>
      <use x="124.267578" xlink:href="#DejaVuSans-5f"/>
      <use x="174.267578" xlink:href="#DejaVuSans-65"/>
      <use x="235.791016" xlink:href="#DejaVuSans-64"/>
      <use x="299.267578" xlink:href="#DejaVuSans-67"/>
      <use x="362.744141" xlink:href="#DejaVuSans-65"/>
      <use x="424.267578" xlink:href="#DejaVuSans-73"/>
     </g>
    </g>
    <g id="line2d_21">
     <path d="M 427.173125 45.372813 
L 447.173125 45.372813 
" style="fill:none;stroke:#1f77b4;stroke-linecap:square;stroke-width:1.5;"/>
    </g>
    <g id="line2d_22">
     <defs>
      <path d="M 0 3 
C 0.795609 3 1.55874 2.683901 2.12132 2.12132 
C 2.683901 1.55874 3 0.795609 3 0 
C 3 -0.795609 2.683901 -1.55874 2.12132 -2.12132 
C 1.55874 -2.683901 0.795609 -3 0 -3 
C -0.795609 -3 -1.55874 -2.683901 -2.12132 -2.12132 
C -2.683901 -1.55874 -3 -0.795609 -3 0 
C -3 0.795609 -2.683901 1.55874 -2.12132 2.12132 
C -1.55874 2.683901 -0.795609 3 0 3 
z
" id="m8766b03828" style="stroke:#1f77b4;"/>
     </defs>
     <g>
      <use style="fill:#1f77b4;stroke:#1f77b4;" x="437.173125" xlink:href="#m8766b03828" y="45.372813"/>
     </g>
    </g>
    <g id="text_19">
     <!-- afl -->
     <g transform="translate(455.173125 48.872813)scale(0.1 -0.1)">
      <use xlink:href="#DejaVuSans-61"/>
      <use x="61.279297" xlink:href="#DejaVuSans-66"/>
      <use x="96.484375" xlink:href="#DejaVuSans-6c"/>
     </g>
    </g>
   </g>
  </g>
 </g>
 <defs>
  <clipPath id="p369d573617">
   <rect height="266.112" width="357.12" x="66.053125" y="22.318125"/>
  </clipPath>
 </defs>
</svg>
