<?xml version="1.0" encoding="utf-8" standalone="no"?>
<!DOCTYPE svg PUBLIC "-//W3C//DTD SVG 1.1//EN"
  "http://www.w3.org/Graphics/SVG/1.1/DTD/svg11.dtd">
<svg height="325.986375pt" version="1.1" viewBox="0 0 501.287188 325.986375" width="501.287188pt" xmlns="http://www.w3.org/2000/svg" xmlns:xlink="http://www.w3.org/1999/xlink">
 <metadata>
  <rdf:RDF xmlns:cc="http://creativecommons.org/ns#" xmlns:dc="http://purl.org/dc/elements/1.1/" xmlns:rdf="http://www.w3.org/1999/02/22-rdf-syntax-ns#">
   <cc:Work>
    <dc:type rdf:resource="http://purl.org/dc/dcmitype/StillImage"/>
    <dc:date>2022-06-02T16:15:37.354604</dc:date>
    <dc:format>image/svg+xml</dc:format>
    <dc:creator>
     <cc:Agent>
      <dc:title>Matplotlib v3.4.3, https://matplotlib.org/</dc:title>
     </cc:Agent>
    </dc:creator>
   </cc:Work>
  </rdf:RDF>
 </metadata>
 <defs>
  <style type="text/css">*{stroke-linecap:butt;stroke-linejoin:round;}</style>
 </defs>
 <g id="figure_1">
  <g id="patch_1">
   <path d="M 0 325.986375 
L 501.287188 325.986375 
L 501.287188 0 
L 0 0 
z
" style="fill:#ffffff;"/>
  </g>
  <g id="axes_1">
   <g id="patch_2">
    <path d="M 53.328125 288.430125 
L 410.448125 288.430125 
L 410.448125 22.318125 
L 53.328125 22.318125 
z
" style="fill:#ffffff;"/>
   </g>
   <g id="PolyCollection_1">
    <defs>
     <path d="M 69.560852 -156.189713 
L 69.560852 -49.65225 
L 73.128485 -49.65225 
L 76.696117 -113.669383 
L 80.263749 -167.971855 
L 83.831382 -176.34141 
L 87.399014 -178.931986 
L 90.966646 -185.400332 
L 94.534279 -185.557884 
L 98.101911 -187.849548 
L 101.669544 -189.742662 
L 105.237176 -195.023453 
L 108.804808 -196.866748 
L 112.372441 -198.211855 
L 115.940073 -199.855874 
L 119.507705 -205.485397 
L 123.075338 -206.531591 
L 126.64297 -206.531591 
L 130.210603 -207.004869 
L 133.778235 -206.930141 
L 137.345867 -210.990372 
L 140.9135 -211.015281 
L 144.481132 -212.605123 
L 148.048764 -214.402958 
L 151.616397 -216.3708 
L 155.184029 -216.594985 
L 158.751661 -217.840454 
L 162.319294 -218.911558 
L 165.886926 -218.911558 
L 169.454559 -219.160652 
L 173.022191 -222.000322 
L 176.589823 -222.772514 
L 180.157456 -223.096336 
L 183.725088 -221.975413 
L 187.29272 -224.298214 
L 190.860353 -226.758016 
L 194.427985 -225.602843 
L 197.995618 -226.203159 
L 201.56325 -227.878939 
L 205.130882 -227.903848 
L 208.698515 -227.928757 
L 212.266147 -232.138444 
L 215.833779 -233.159729 
L 219.401412 -233.159729 
L 222.969044 -234.521028 
L 226.536676 -235.026688 
L 230.104309 -240.009812 
L 233.671941 -240.009812 
L 237.239574 -241.180553 
L 240.807206 -241.180553 
L 244.374838 -241.180553 
L 247.942471 -241.379828 
L 251.510103 -241.379828 
L 255.077735 -241.404738 
L 258.645368 -241.429647 
L 262.213 -247.85627 
L 265.780632 -247.85627 
L 269.348265 -247.906089 
L 272.915897 -247.860629 
L 276.48353 -247.906089 
L 280.051162 -247.906089 
L 283.618794 -252.115776 
L 287.186427 -248.080454 
L 290.754059 -244.045133 
L 294.321691 -248.080454 
L 297.889324 -248.052431 
L 301.456956 -248.080454 
L 305.024589 -248.080454 
L 308.592221 -252.115776 
L 312.159853 -248.130273 
L 315.727486 -248.130273 
L 319.295118 -248.005726 
L 322.86275 -248.130273 
L 326.430383 -249.575018 
L 329.998015 -250.546484 
L 333.565647 -250.546484 
L 337.13328 -250.546484 
L 340.700912 -250.546484 
L 344.268545 -249.27486 
L 347.836177 -250.546484 
L 351.403809 -250.546484 
L 354.971442 -250.546484 
L 358.539074 -250.546484 
L 362.106706 -250.546484 
L 365.674339 -250.546484 
L 369.241971 -249.998477 
L 372.809604 -251.443222 
L 376.377236 -262.826813 
L 379.944868 -262.826813 
L 383.512501 -262.826813 
L 387.080133 -262.826813 
L 390.647765 -262.826813 
L 394.215398 -258.118939 
L 394.215398 -291.57225 
L 394.215398 -291.57225 
L 390.647765 -291.57225 
L 387.080133 -291.57225 
L 383.512501 -291.198609 
L 379.944868 -291.198609 
L 376.377236 -290.627561 
L 372.809604 -290.501146 
L 369.241971 -290.476237 
L 365.674339 -290.476237 
L 362.106706 -290.276962 
L 358.539074 -289.604408 
L 354.971442 -289.380224 
L 351.403809 -289.280586 
L 347.836177 -288.010207 
L 344.268545 -287.786023 
L 340.700912 -287.711294 
L 337.13328 -287.462201 
L 333.565647 -286.864375 
L 329.998015 -286.864375 
L 326.430383 -286.640191 
L 322.86275 -286.515644 
L 319.295118 -285.768362 
L 315.727486 -285.422121 
L 312.159853 -285.469449 
L 308.592221 -285.469449 
L 305.024589 -285.145627 
L 301.456956 -284.921443 
L 297.889324 -284.896533 
L 294.321691 -284.722168 
L 290.754059 -284.727772 
L 287.186427 -284.996171 
L 283.618794 -284.448164 
L 280.051162 -283.451789 
L 276.48353 -283.136062 
L 272.915897 -283.127967 
L 269.348265 -283.14478 
L 265.780632 -280.089021 
L 262.213 -280.089021 
L 258.645368 -277.971723 
L 255.077735 -274.633864 
L 251.510103 -274.584046 
L 247.942471 -274.185495 
L 244.374838 -271.819103 
L 240.807206 -271.819103 
L 237.239574 -272.093107 
L 233.671941 -271.14655 
L 230.104309 -270.698181 
L 226.536676 -267.360322 
L 222.969044 -266.189581 
L 219.401412 -265.890668 
L 215.833779 -265.591756 
L 212.266147 -265.591756 
L 208.698515 -264.744836 
L 205.130882 -264.719927 
L 201.56325 -264.695018 
L 197.995618 -264.421014 
L 194.427985 -262.901542 
L 190.860353 -262.901542 
L 187.29272 -260.684606 
L 183.725088 -260.53515 
L 180.157456 -260.485331 
L 176.589823 -259.538774 
L 173.022191 -259.364408 
L 169.454559 -259.314589 
L 165.886926 -257.894754 
L 162.319294 -245.41515 
L 158.751661 -245.066418 
L 155.184029 -245.016599 
L 151.616397 -243.472217 
L 148.048764 -241.454556 
L 144.481132 -229.498049 
L 140.9135 -227.106748 
L 137.345867 -226.434194 
L 133.778235 -225.93227 
L 130.210603 -225.587275 
L 126.64297 -225.462728 
L 123.075338 -225.089087 
L 119.507705 -221.350187 
L 115.940073 -216.320981 
L 112.372441 -214.228593 
L 108.804808 -213.53113 
L 105.237176 -212.908395 
L 101.669544 -212.186023 
L 98.101911 -208.20052 
L 94.534279 -207.004869 
L 90.966646 -201.773897 
L 87.399014 -197.729235 
L 83.831382 -194.027077 
L 80.263749 -190.863584 
L 76.696117 -178.558346 
L 73.128485 -173.07828 
L 69.560852 -156.189713 
z
" id="m8705081aa0" style="stroke:#1f77b4;stroke-opacity:0.2;"/>
    </defs>
    <g clip-path="url(#p7416da86f5)">
     <use style="fill:#1f77b4;fill-opacity:0.2;stroke:#1f77b4;stroke-opacity:0.2;" x="0" xlink:href="#m8705081aa0" y="325.986375"/>
    </g>
   </g>
   <g id="PolyCollection_2">
    <defs>
     <path d="M 69.560852 -166.203288 
L 69.560852 -49.65225 
L 73.128485 -160.82286 
L 76.696117 -167.025298 
L 80.263749 -172.23136 
L 83.831382 -181.198741 
L 87.399014 -181.921113 
L 90.966646 -183.614952 
L 94.534279 -186.006253 
L 98.101911 -187.326451 
L 101.669544 -189.194655 
L 105.237176 -191.934688 
L 108.804808 -192.657061 
L 112.372441 -193.254886 
L 115.940073 -195.322365 
L 119.507705 -198.186945 
L 123.075338 -199.532052 
L 126.64297 -199.60678 
L 130.210603 -200.354062 
L 133.778235 -200.179696 
L 137.345867 -200.877159 
L 140.9135 -202.07281 
L 144.481132 -204.239927 
L 148.048764 -203.990833 
L 151.616397 -206.083222 
L 155.184029 -205.734491 
L 158.751661 -206.18286 
L 162.319294 -206.18286 
L 165.886926 -208.150701 
L 169.454559 -208.773436 
L 173.022191 -209.064876 
L 176.589823 -208.848164 
L 180.157456 -209.944178 
L 183.725088 -213.10767 
L 187.29272 -211.588197 
L 190.860353 -212.111294 
L 194.427985 -212.908395 
L 197.995618 -212.908395 
L 201.56325 -212.908395 
L 205.130882 -212.908395 
L 208.698515 -215.424243 
L 212.266147 -215.772975 
L 215.833779 -216.221344 
L 219.401412 -215.78543 
L 222.969044 -217.367176 
L 226.536676 -217.865364 
L 230.104309 -217.890273 
L 233.671941 -217.938846 
L 237.239574 -218.288823 
L 240.807206 -219.26029 
L 244.374838 -219.26029 
L 247.942471 -219.26029 
L 251.510103 -219.26029 
L 255.077735 -228.62622 
L 258.645368 -228.676039 
L 262.213 -227.505298 
L 265.780632 -228.900224 
L 269.348265 -229.398411 
L 272.915897 -231.565528 
L 276.48353 -231.565528 
L 280.051162 -231.640257 
L 283.618794 -231.640257 
L 287.186427 -232.71136 
L 290.754059 -232.71136 
L 294.321691 -232.786089 
L 297.889324 -232.786089 
L 301.456956 -232.786089 
L 305.024589 -232.71136 
L 308.592221 -232.885726 
L 312.159853 -235.127571 
L 315.727486 -234.878477 
L 319.295118 -235.127571 
L 322.86275 -239.511624 
L 326.430383 -237.070504 
L 329.998015 -239.910174 
L 333.565647 -239.910174 
L 337.13328 -240.034721 
L 340.700912 -241.056006 
L 344.268545 -242.950365 
L 347.836177 -241.056006 
L 351.403809 -242.998939 
L 354.971442 -239.312349 
L 358.539074 -241.056006 
L 362.106706 -241.056006 
L 365.674339 -241.056006 
L 369.241971 -241.056006 
L 372.809604 -241.105825 
L 376.377236 -241.105825 
L 379.944868 -241.554194 
L 383.512501 -241.554194 
L 387.080133 -241.828197 
L 390.647765 -241.828197 
L 394.215398 -243.010771 
L 394.215398 -282.1565 
L 394.215398 -282.1565 
L 390.647765 -282.1565 
L 387.080133 -282.1565 
L 383.512501 -282.1565 
L 379.944868 -279.31683 
L 376.377236 -279.31683 
L 372.809604 -279.31683 
L 369.241971 -279.31683 
L 365.674339 -279.067736 
L 362.106706 -276.402431 
L 358.539074 -276.776072 
L 354.971442 -276.153337 
L 351.403809 -276.153337 
L 347.836177 -275.978972 
L 344.268545 -275.978972 
L 340.700912 -275.63024 
L 337.13328 -276.576797 
L 333.565647 -274.83314 
L 329.998015 -274.83314 
L 326.430383 -274.938382 
L 322.86275 -274.683683 
L 319.295118 -274.683683 
L 315.727486 -273.089482 
L 312.159853 -272.992336 
L 308.592221 -272.566385 
L 305.024589 -270.498906 
L 301.456956 -270.498906 
L 297.889324 -270.498906 
L 294.321691 -270.507001 
L 290.754059 -270.498906 
L 287.186427 -270.498906 
L 283.618794 -270.498906 
L 280.051162 -269.552349 
L 276.48353 -270.498906 
L 272.915897 -270.449087 
L 269.348265 -270.449087 
L 265.780632 -270.449087 
L 262.213 -271.445463 
L 258.645368 -270.224902 
L 255.077735 -270.224902 
L 251.510103 -271.445463 
L 247.942471 -265.392481 
L 244.374838 -261.624935 
L 240.807206 -264.570471 
L 237.239574 -264.470833 
L 233.671941 -264.470833 
L 230.104309 -264.470833 
L 226.536676 -264.470833 
L 222.969044 -264.296467 
L 219.401412 -262.303716 
L 215.833779 -260.045057 
L 212.266147 -262.303716 
L 208.698515 -262.15426 
L 205.130882 -261.431888 
L 201.56325 -260.036962 
L 197.995618 -244.56823 
L 194.427985 -243.77113 
L 190.860353 -243.77113 
L 187.29272 -244.478556 
L 183.725088 -243.77113 
L 180.157456 -242.874392 
L 176.589823 -243.77113 
L 173.022191 -228.588856 
L 169.454559 -228.476764 
L 165.886926 -226.478408 
L 162.319294 -226.279133 
L 158.751661 -226.1851 
L 155.184029 -227.355841 
L 151.616397 -224.54108 
L 148.048764 -224.331841 
L 144.481132 -221.153403 
L 140.9135 -220.979037 
L 137.345867 -218.986286 
L 133.778235 -218.863607 
L 130.210603 -209.470899 
L 126.64297 -209.470899 
L 123.075338 -209.047439 
L 119.507705 -209.02253 
L 115.940073 -208.474523 
L 112.372441 -207.029779 
L 108.804808 -205.435578 
L 105.237176 -205.585034 
L 101.669544 -201.499894 
L 98.101911 -199.484724 
L 94.534279 -196.941476 
L 90.966646 -194.101805 
L 87.399014 -191.984507 
L 83.831382 -188.646649 
L 80.263749 -184.512313 
L 76.696117 -183.365858 
L 73.128485 -176.042497 
L 69.560852 -166.203288 
z
" id="m7a2e0c84f4" style="stroke:#98df8a;stroke-opacity:0.2;"/>
    </defs>
    <g clip-path="url(#p7416da86f5)">
     <use style="fill:#98df8a;fill-opacity:0.2;stroke:#98df8a;stroke-opacity:0.2;" x="0" xlink:href="#m7a2e0c84f4" y="325.986375"/>
    </g>
   </g>
   <g id="matplotlib.axis_1">
    <g id="xtick_1">
     <g id="line2d_1">
      <defs>
       <path d="M 0 0 
L 0 3.5 
" id="m1752ac3995" style="stroke:#000000;stroke-width:0.8;"/>
      </defs>
      <g>
       <use style="stroke:#000000;stroke-width:0.8;" x="69.560852" xlink:href="#m1752ac3995" y="288.430125"/>
      </g>
     </g>
     <g id="text_1">
      <!-- 15m -->
      <g transform="translate(58.32804 303.028562)scale(0.1 -0.1)">
       <defs>
        <path d="M 794 531 
L 1825 531 
L 1825 4091 
L 703 3866 
L 703 4441 
L 1819 4666 
L 2450 4666 
L 2450 531 
L 3481 531 
L 3481 0 
L 794 0 
L 794 531 
z
" id="DejaVuSans-31" transform="scale(0.015625)"/>
        <path d="M 691 4666 
L 3169 4666 
L 3169 4134 
L 1269 4134 
L 1269 2991 
Q 1406 3038 1543 3061 
Q 1681 3084 1819 3084 
Q 2600 3084 3056 2656 
Q 3513 2228 3513 1497 
Q 3513 744 3044 326 
Q 2575 -91 1722 -91 
Q 1428 -91 1123 -41 
Q 819 9 494 109 
L 494 744 
Q 775 591 1075 516 
Q 1375 441 1709 441 
Q 2250 441 2565 725 
Q 2881 1009 2881 1497 
Q 2881 1984 2565 2268 
Q 2250 2553 1709 2553 
Q 1456 2553 1204 2497 
Q 953 2441 691 2322 
L 691 4666 
z
" id="DejaVuSans-35" transform="scale(0.015625)"/>
        <path d="M 3328 2828 
Q 3544 3216 3844 3400 
Q 4144 3584 4550 3584 
Q 5097 3584 5394 3201 
Q 5691 2819 5691 2113 
L 5691 0 
L 5113 0 
L 5113 2094 
Q 5113 2597 4934 2840 
Q 4756 3084 4391 3084 
Q 3944 3084 3684 2787 
Q 3425 2491 3425 1978 
L 3425 0 
L 2847 0 
L 2847 2094 
Q 2847 2600 2669 2842 
Q 2491 3084 2119 3084 
Q 1678 3084 1418 2786 
Q 1159 2488 1159 1978 
L 1159 0 
L 581 0 
L 581 3500 
L 1159 3500 
L 1159 2956 
Q 1356 3278 1631 3431 
Q 1906 3584 2284 3584 
Q 2666 3584 2933 3390 
Q 3200 3197 3328 2828 
z
" id="DejaVuSans-6d" transform="scale(0.015625)"/>
       </defs>
       <use xlink:href="#DejaVuSans-31"/>
       <use x="63.623047" xlink:href="#DejaVuSans-35"/>
       <use x="127.246094" xlink:href="#DejaVuSans-6d"/>
      </g>
     </g>
    </g>
    <g id="xtick_2">
     <g id="line2d_2">
      <g>
       <use style="stroke:#000000;stroke-width:0.8;" x="124.264549" xlink:href="#m1752ac3995" y="288.430125"/>
      </g>
     </g>
     <g id="text_2">
      <!-- 4h:5m -->
      <g transform="translate(108.178611 303.028562)scale(0.1 -0.1)">
       <defs>
        <path d="M 2419 4116 
L 825 1625 
L 2419 1625 
L 2419 4116 
z
M 2253 4666 
L 3047 4666 
L 3047 1625 
L 3713 1625 
L 3713 1100 
L 3047 1100 
L 3047 0 
L 2419 0 
L 2419 1100 
L 313 1100 
L 313 1709 
L 2253 4666 
z
" id="DejaVuSans-34" transform="scale(0.015625)"/>
        <path d="M 3513 2113 
L 3513 0 
L 2938 0 
L 2938 2094 
Q 2938 2591 2744 2837 
Q 2550 3084 2163 3084 
Q 1697 3084 1428 2787 
Q 1159 2491 1159 1978 
L 1159 0 
L 581 0 
L 581 4863 
L 1159 4863 
L 1159 2956 
Q 1366 3272 1645 3428 
Q 1925 3584 2291 3584 
Q 2894 3584 3203 3211 
Q 3513 2838 3513 2113 
z
" id="DejaVuSans-68" transform="scale(0.015625)"/>
        <path d="M 750 794 
L 1409 794 
L 1409 0 
L 750 0 
L 750 794 
z
M 750 3309 
L 1409 3309 
L 1409 2516 
L 750 2516 
L 750 3309 
z
" id="DejaVuSans-3a" transform="scale(0.015625)"/>
       </defs>
       <use xlink:href="#DejaVuSans-34"/>
       <use x="63.623047" xlink:href="#DejaVuSans-68"/>
       <use x="127.001953" xlink:href="#DejaVuSans-3a"/>
       <use x="160.693359" xlink:href="#DejaVuSans-35"/>
       <use x="224.316406" xlink:href="#DejaVuSans-6d"/>
      </g>
     </g>
    </g>
    <g id="xtick_3">
     <g id="line2d_3">
      <g>
       <use style="stroke:#000000;stroke-width:0.8;" x="178.968245" xlink:href="#m1752ac3995" y="288.430125"/>
      </g>
     </g>
     <g id="text_3">
      <!-- 7h:55m -->
      <g transform="translate(159.701057 303.028562)scale(0.1 -0.1)">
       <defs>
        <path d="M 525 4666 
L 3525 4666 
L 3525 4397 
L 1831 0 
L 1172 0 
L 2766 4134 
L 525 4134 
L 525 4666 
z
" id="DejaVuSans-37" transform="scale(0.015625)"/>
       </defs>
       <use xlink:href="#DejaVuSans-37"/>
       <use x="63.623047" xlink:href="#DejaVuSans-68"/>
       <use x="127.001953" xlink:href="#DejaVuSans-3a"/>
       <use x="160.693359" xlink:href="#DejaVuSans-35"/>
       <use x="224.316406" xlink:href="#DejaVuSans-35"/>
       <use x="287.939453" xlink:href="#DejaVuSans-6d"/>
      </g>
     </g>
    </g>
    <g id="xtick_4">
     <g id="line2d_4">
      <g>
       <use style="stroke:#000000;stroke-width:0.8;" x="233.671941" xlink:href="#m1752ac3995" y="288.430125"/>
      </g>
     </g>
     <g id="text_4">
      <!-- 11h:45m -->
      <g transform="translate(211.223504 303.028562)scale(0.1 -0.1)">
       <use xlink:href="#DejaVuSans-31"/>
       <use x="63.623047" xlink:href="#DejaVuSans-31"/>
       <use x="127.246094" xlink:href="#DejaVuSans-68"/>
       <use x="190.625" xlink:href="#DejaVuSans-3a"/>
       <use x="224.316406" xlink:href="#DejaVuSans-34"/>
       <use x="287.939453" xlink:href="#DejaVuSans-35"/>
       <use x="351.5625" xlink:href="#DejaVuSans-6d"/>
      </g>
     </g>
    </g>
    <g id="xtick_5">
     <g id="line2d_5">
      <g>
       <use style="stroke:#000000;stroke-width:0.8;" x="288.375637" xlink:href="#m1752ac3995" y="288.430125"/>
      </g>
     </g>
     <g id="text_5">
      <!-- 15h:35m -->
      <g transform="translate(265.9272 303.028562)scale(0.1 -0.1)">
       <defs>
        <path d="M 2597 2516 
Q 3050 2419 3304 2112 
Q 3559 1806 3559 1356 
Q 3559 666 3084 287 
Q 2609 -91 1734 -91 
Q 1441 -91 1130 -33 
Q 819 25 488 141 
L 488 750 
Q 750 597 1062 519 
Q 1375 441 1716 441 
Q 2309 441 2620 675 
Q 2931 909 2931 1356 
Q 2931 1769 2642 2001 
Q 2353 2234 1838 2234 
L 1294 2234 
L 1294 2753 
L 1863 2753 
Q 2328 2753 2575 2939 
Q 2822 3125 2822 3475 
Q 2822 3834 2567 4026 
Q 2313 4219 1838 4219 
Q 1578 4219 1281 4162 
Q 984 4106 628 3988 
L 628 4550 
Q 988 4650 1302 4700 
Q 1616 4750 1894 4750 
Q 2613 4750 3031 4423 
Q 3450 4097 3450 3541 
Q 3450 3153 3228 2886 
Q 3006 2619 2597 2516 
z
" id="DejaVuSans-33" transform="scale(0.015625)"/>
       </defs>
       <use xlink:href="#DejaVuSans-31"/>
       <use x="63.623047" xlink:href="#DejaVuSans-35"/>
       <use x="127.246094" xlink:href="#DejaVuSans-68"/>
       <use x="190.625" xlink:href="#DejaVuSans-3a"/>
       <use x="224.316406" xlink:href="#DejaVuSans-33"/>
       <use x="287.939453" xlink:href="#DejaVuSans-35"/>
       <use x="351.5625" xlink:href="#DejaVuSans-6d"/>
      </g>
     </g>
    </g>
    <g id="xtick_6">
     <g id="line2d_6">
      <g>
       <use style="stroke:#000000;stroke-width:0.8;" x="343.079334" xlink:href="#m1752ac3995" y="288.430125"/>
      </g>
     </g>
     <g id="text_6">
      <!-- 19h:25m -->
      <g transform="translate(320.630896 303.028562)scale(0.1 -0.1)">
       <defs>
        <path d="M 703 97 
L 703 672 
Q 941 559 1184 500 
Q 1428 441 1663 441 
Q 2288 441 2617 861 
Q 2947 1281 2994 2138 
Q 2813 1869 2534 1725 
Q 2256 1581 1919 1581 
Q 1219 1581 811 2004 
Q 403 2428 403 3163 
Q 403 3881 828 4315 
Q 1253 4750 1959 4750 
Q 2769 4750 3195 4129 
Q 3622 3509 3622 2328 
Q 3622 1225 3098 567 
Q 2575 -91 1691 -91 
Q 1453 -91 1209 -44 
Q 966 3 703 97 
z
M 1959 2075 
Q 2384 2075 2632 2365 
Q 2881 2656 2881 3163 
Q 2881 3666 2632 3958 
Q 2384 4250 1959 4250 
Q 1534 4250 1286 3958 
Q 1038 3666 1038 3163 
Q 1038 2656 1286 2365 
Q 1534 2075 1959 2075 
z
" id="DejaVuSans-39" transform="scale(0.015625)"/>
        <path d="M 1228 531 
L 3431 531 
L 3431 0 
L 469 0 
L 469 531 
Q 828 903 1448 1529 
Q 2069 2156 2228 2338 
Q 2531 2678 2651 2914 
Q 2772 3150 2772 3378 
Q 2772 3750 2511 3984 
Q 2250 4219 1831 4219 
Q 1534 4219 1204 4116 
Q 875 4013 500 3803 
L 500 4441 
Q 881 4594 1212 4672 
Q 1544 4750 1819 4750 
Q 2544 4750 2975 4387 
Q 3406 4025 3406 3419 
Q 3406 3131 3298 2873 
Q 3191 2616 2906 2266 
Q 2828 2175 2409 1742 
Q 1991 1309 1228 531 
z
" id="DejaVuSans-32" transform="scale(0.015625)"/>
       </defs>
       <use xlink:href="#DejaVuSans-31"/>
       <use x="63.623047" xlink:href="#DejaVuSans-39"/>
       <use x="127.246094" xlink:href="#DejaVuSans-68"/>
       <use x="190.625" xlink:href="#DejaVuSans-3a"/>
       <use x="224.316406" xlink:href="#DejaVuSans-32"/>
       <use x="287.939453" xlink:href="#DejaVuSans-35"/>
       <use x="351.5625" xlink:href="#DejaVuSans-6d"/>
      </g>
     </g>
    </g>
    <g id="text_7">
     <!-- Time (hour:minute) -->
     <g transform="translate(183.481094 316.706687)scale(0.1 -0.1)">
      <defs>
       <path d="M -19 4666 
L 3928 4666 
L 3928 4134 
L 2272 4134 
L 2272 0 
L 1638 0 
L 1638 4134 
L -19 4134 
L -19 4666 
z
" id="DejaVuSans-54" transform="scale(0.015625)"/>
       <path d="M 603 3500 
L 1178 3500 
L 1178 0 
L 603 0 
L 603 3500 
z
M 603 4863 
L 1178 4863 
L 1178 4134 
L 603 4134 
L 603 4863 
z
" id="DejaVuSans-69" transform="scale(0.015625)"/>
       <path d="M 3597 1894 
L 3597 1613 
L 953 1613 
Q 991 1019 1311 708 
Q 1631 397 2203 397 
Q 2534 397 2845 478 
Q 3156 559 3463 722 
L 3463 178 
Q 3153 47 2828 -22 
Q 2503 -91 2169 -91 
Q 1331 -91 842 396 
Q 353 884 353 1716 
Q 353 2575 817 3079 
Q 1281 3584 2069 3584 
Q 2775 3584 3186 3129 
Q 3597 2675 3597 1894 
z
M 3022 2063 
Q 3016 2534 2758 2815 
Q 2500 3097 2075 3097 
Q 1594 3097 1305 2825 
Q 1016 2553 972 2059 
L 3022 2063 
z
" id="DejaVuSans-65" transform="scale(0.015625)"/>
       <path id="DejaVuSans-20" transform="scale(0.015625)"/>
       <path d="M 1984 4856 
Q 1566 4138 1362 3434 
Q 1159 2731 1159 2009 
Q 1159 1288 1364 580 
Q 1569 -128 1984 -844 
L 1484 -844 
Q 1016 -109 783 600 
Q 550 1309 550 2009 
Q 550 2706 781 3412 
Q 1013 4119 1484 4856 
L 1984 4856 
z
" id="DejaVuSans-28" transform="scale(0.015625)"/>
       <path d="M 1959 3097 
Q 1497 3097 1228 2736 
Q 959 2375 959 1747 
Q 959 1119 1226 758 
Q 1494 397 1959 397 
Q 2419 397 2687 759 
Q 2956 1122 2956 1747 
Q 2956 2369 2687 2733 
Q 2419 3097 1959 3097 
z
M 1959 3584 
Q 2709 3584 3137 3096 
Q 3566 2609 3566 1747 
Q 3566 888 3137 398 
Q 2709 -91 1959 -91 
Q 1206 -91 779 398 
Q 353 888 353 1747 
Q 353 2609 779 3096 
Q 1206 3584 1959 3584 
z
" id="DejaVuSans-6f" transform="scale(0.015625)"/>
       <path d="M 544 1381 
L 544 3500 
L 1119 3500 
L 1119 1403 
Q 1119 906 1312 657 
Q 1506 409 1894 409 
Q 2359 409 2629 706 
Q 2900 1003 2900 1516 
L 2900 3500 
L 3475 3500 
L 3475 0 
L 2900 0 
L 2900 538 
Q 2691 219 2414 64 
Q 2138 -91 1772 -91 
Q 1169 -91 856 284 
Q 544 659 544 1381 
z
M 1991 3584 
L 1991 3584 
z
" id="DejaVuSans-75" transform="scale(0.015625)"/>
       <path d="M 2631 2963 
Q 2534 3019 2420 3045 
Q 2306 3072 2169 3072 
Q 1681 3072 1420 2755 
Q 1159 2438 1159 1844 
L 1159 0 
L 581 0 
L 581 3500 
L 1159 3500 
L 1159 2956 
Q 1341 3275 1631 3429 
Q 1922 3584 2338 3584 
Q 2397 3584 2469 3576 
Q 2541 3569 2628 3553 
L 2631 2963 
z
" id="DejaVuSans-72" transform="scale(0.015625)"/>
       <path d="M 3513 2113 
L 3513 0 
L 2938 0 
L 2938 2094 
Q 2938 2591 2744 2837 
Q 2550 3084 2163 3084 
Q 1697 3084 1428 2787 
Q 1159 2491 1159 1978 
L 1159 0 
L 581 0 
L 581 3500 
L 1159 3500 
L 1159 2956 
Q 1366 3272 1645 3428 
Q 1925 3584 2291 3584 
Q 2894 3584 3203 3211 
Q 3513 2838 3513 2113 
z
" id="DejaVuSans-6e" transform="scale(0.015625)"/>
       <path d="M 1172 4494 
L 1172 3500 
L 2356 3500 
L 2356 3053 
L 1172 3053 
L 1172 1153 
Q 1172 725 1289 603 
Q 1406 481 1766 481 
L 2356 481 
L 2356 0 
L 1766 0 
Q 1100 0 847 248 
Q 594 497 594 1153 
L 594 3053 
L 172 3053 
L 172 3500 
L 594 3500 
L 594 4494 
L 1172 4494 
z
" id="DejaVuSans-74" transform="scale(0.015625)"/>
       <path d="M 513 4856 
L 1013 4856 
Q 1481 4119 1714 3412 
Q 1947 2706 1947 2009 
Q 1947 1309 1714 600 
Q 1481 -109 1013 -844 
L 513 -844 
Q 928 -128 1133 580 
Q 1338 1288 1338 2009 
Q 1338 2731 1133 3434 
Q 928 4138 513 4856 
z
" id="DejaVuSans-29" transform="scale(0.015625)"/>
      </defs>
      <use xlink:href="#DejaVuSans-54"/>
      <use x="57.958984" xlink:href="#DejaVuSans-69"/>
      <use x="85.742188" xlink:href="#DejaVuSans-6d"/>
      <use x="183.154297" xlink:href="#DejaVuSans-65"/>
      <use x="244.677734" xlink:href="#DejaVuSans-20"/>
      <use x="276.464844" xlink:href="#DejaVuSans-28"/>
      <use x="315.478516" xlink:href="#DejaVuSans-68"/>
      <use x="378.857422" xlink:href="#DejaVuSans-6f"/>
      <use x="440.039062" xlink:href="#DejaVuSans-75"/>
      <use x="503.417969" xlink:href="#DejaVuSans-72"/>
      <use x="542.78125" xlink:href="#DejaVuSans-3a"/>
      <use x="576.472656" xlink:href="#DejaVuSans-6d"/>
      <use x="673.884766" xlink:href="#DejaVuSans-69"/>
      <use x="701.667969" xlink:href="#DejaVuSans-6e"/>
      <use x="765.046875" xlink:href="#DejaVuSans-75"/>
      <use x="828.425781" xlink:href="#DejaVuSans-74"/>
      <use x="867.634766" xlink:href="#DejaVuSans-65"/>
      <use x="929.158203" xlink:href="#DejaVuSans-29"/>
     </g>
    </g>
   </g>
   <g id="matplotlib.axis_2">
    <g id="ytick_1">
     <g id="line2d_7">
      <defs>
       <path d="M 0 0 
L -3.5 0 
" id="m0deee2cd33" style="stroke:#000000;stroke-width:0.8;"/>
      </defs>
      <g>
       <use style="stroke:#000000;stroke-width:0.8;" x="53.328125" xlink:href="#m0deee2cd33" y="280.61854"/>
      </g>
     </g>
     <g id="text_8">
      <!-- 1000 -->
      <g transform="translate(20.878125 284.417759)scale(0.1 -0.1)">
       <defs>
        <path d="M 2034 4250 
Q 1547 4250 1301 3770 
Q 1056 3291 1056 2328 
Q 1056 1369 1301 889 
Q 1547 409 2034 409 
Q 2525 409 2770 889 
Q 3016 1369 3016 2328 
Q 3016 3291 2770 3770 
Q 2525 4250 2034 4250 
z
M 2034 4750 
Q 2819 4750 3233 4129 
Q 3647 3509 3647 2328 
Q 3647 1150 3233 529 
Q 2819 -91 2034 -91 
Q 1250 -91 836 529 
Q 422 1150 422 2328 
Q 422 3509 836 4129 
Q 1250 4750 2034 4750 
z
" id="DejaVuSans-30" transform="scale(0.015625)"/>
       </defs>
       <use xlink:href="#DejaVuSans-31"/>
       <use x="63.623047" xlink:href="#DejaVuSans-30"/>
       <use x="127.246094" xlink:href="#DejaVuSans-30"/>
       <use x="190.869141" xlink:href="#DejaVuSans-30"/>
      </g>
     </g>
    </g>
    <g id="ytick_2">
     <g id="line2d_8">
      <g>
       <use style="stroke:#000000;stroke-width:0.8;" x="53.328125" xlink:href="#m0deee2cd33" y="230.799759"/>
      </g>
     </g>
     <g id="text_9">
      <!-- 2000 -->
      <g transform="translate(20.878125 234.598978)scale(0.1 -0.1)">
       <use xlink:href="#DejaVuSans-32"/>
       <use x="63.623047" xlink:href="#DejaVuSans-30"/>
       <use x="127.246094" xlink:href="#DejaVuSans-30"/>
       <use x="190.869141" xlink:href="#DejaVuSans-30"/>
      </g>
     </g>
    </g>
    <g id="ytick_3">
     <g id="line2d_9">
      <g>
       <use style="stroke:#000000;stroke-width:0.8;" x="53.328125" xlink:href="#m0deee2cd33" y="180.980978"/>
      </g>
     </g>
     <g id="text_10">
      <!-- 3000 -->
      <g transform="translate(20.878125 184.780197)scale(0.1 -0.1)">
       <use xlink:href="#DejaVuSans-33"/>
       <use x="63.623047" xlink:href="#DejaVuSans-30"/>
       <use x="127.246094" xlink:href="#DejaVuSans-30"/>
       <use x="190.869141" xlink:href="#DejaVuSans-30"/>
      </g>
     </g>
    </g>
    <g id="ytick_4">
     <g id="line2d_10">
      <g>
       <use style="stroke:#000000;stroke-width:0.8;" x="53.328125" xlink:href="#m0deee2cd33" y="131.162197"/>
      </g>
     </g>
     <g id="text_11">
      <!-- 4000 -->
      <g transform="translate(20.878125 134.961416)scale(0.1 -0.1)">
       <use xlink:href="#DejaVuSans-34"/>
       <use x="63.623047" xlink:href="#DejaVuSans-30"/>
       <use x="127.246094" xlink:href="#DejaVuSans-30"/>
       <use x="190.869141" xlink:href="#DejaVuSans-30"/>
      </g>
     </g>
    </g>
    <g id="ytick_5">
     <g id="line2d_11">
      <g>
       <use style="stroke:#000000;stroke-width:0.8;" x="53.328125" xlink:href="#m0deee2cd33" y="81.343417"/>
      </g>
     </g>
     <g id="text_12">
      <!-- 5000 -->
      <g transform="translate(20.878125 85.142635)scale(0.1 -0.1)">
       <use xlink:href="#DejaVuSans-35"/>
       <use x="63.623047" xlink:href="#DejaVuSans-30"/>
       <use x="127.246094" xlink:href="#DejaVuSans-30"/>
       <use x="190.869141" xlink:href="#DejaVuSans-30"/>
      </g>
     </g>
    </g>
    <g id="ytick_6">
     <g id="line2d_12">
      <g>
       <use style="stroke:#000000;stroke-width:0.8;" x="53.328125" xlink:href="#m0deee2cd33" y="31.524636"/>
      </g>
     </g>
     <g id="text_13">
      <!-- 6000 -->
      <g transform="translate(20.878125 35.323854)scale(0.1 -0.1)">
       <defs>
        <path d="M 2113 2584 
Q 1688 2584 1439 2293 
Q 1191 2003 1191 1497 
Q 1191 994 1439 701 
Q 1688 409 2113 409 
Q 2538 409 2786 701 
Q 3034 994 3034 1497 
Q 3034 2003 2786 2293 
Q 2538 2584 2113 2584 
z
M 3366 4563 
L 3366 3988 
Q 3128 4100 2886 4159 
Q 2644 4219 2406 4219 
Q 1781 4219 1451 3797 
Q 1122 3375 1075 2522 
Q 1259 2794 1537 2939 
Q 1816 3084 2150 3084 
Q 2853 3084 3261 2657 
Q 3669 2231 3669 1497 
Q 3669 778 3244 343 
Q 2819 -91 2113 -91 
Q 1303 -91 875 529 
Q 447 1150 447 2328 
Q 447 3434 972 4092 
Q 1497 4750 2381 4750 
Q 2619 4750 2861 4703 
Q 3103 4656 3366 4563 
z
" id="DejaVuSans-36" transform="scale(0.015625)"/>
       </defs>
       <use xlink:href="#DejaVuSans-36"/>
       <use x="63.623047" xlink:href="#DejaVuSans-30"/>
       <use x="127.246094" xlink:href="#DejaVuSans-30"/>
       <use x="190.869141" xlink:href="#DejaVuSans-30"/>
      </g>
     </g>
    </g>
    <g id="text_14">
     <!-- Code region coverage -->
     <g transform="translate(14.798438 210.379594)rotate(-90)scale(0.1 -0.1)">
      <defs>
       <path d="M 4122 4306 
L 4122 3641 
Q 3803 3938 3442 4084 
Q 3081 4231 2675 4231 
Q 1875 4231 1450 3742 
Q 1025 3253 1025 2328 
Q 1025 1406 1450 917 
Q 1875 428 2675 428 
Q 3081 428 3442 575 
Q 3803 722 4122 1019 
L 4122 359 
Q 3791 134 3420 21 
Q 3050 -91 2638 -91 
Q 1578 -91 968 557 
Q 359 1206 359 2328 
Q 359 3453 968 4101 
Q 1578 4750 2638 4750 
Q 3056 4750 3426 4639 
Q 3797 4528 4122 4306 
z
" id="DejaVuSans-43" transform="scale(0.015625)"/>
       <path d="M 2906 2969 
L 2906 4863 
L 3481 4863 
L 3481 0 
L 2906 0 
L 2906 525 
Q 2725 213 2448 61 
Q 2172 -91 1784 -91 
Q 1150 -91 751 415 
Q 353 922 353 1747 
Q 353 2572 751 3078 
Q 1150 3584 1784 3584 
Q 2172 3584 2448 3432 
Q 2725 3281 2906 2969 
z
M 947 1747 
Q 947 1113 1208 752 
Q 1469 391 1925 391 
Q 2381 391 2643 752 
Q 2906 1113 2906 1747 
Q 2906 2381 2643 2742 
Q 2381 3103 1925 3103 
Q 1469 3103 1208 2742 
Q 947 2381 947 1747 
z
" id="DejaVuSans-64" transform="scale(0.015625)"/>
       <path d="M 2906 1791 
Q 2906 2416 2648 2759 
Q 2391 3103 1925 3103 
Q 1463 3103 1205 2759 
Q 947 2416 947 1791 
Q 947 1169 1205 825 
Q 1463 481 1925 481 
Q 2391 481 2648 825 
Q 2906 1169 2906 1791 
z
M 3481 434 
Q 3481 -459 3084 -895 
Q 2688 -1331 1869 -1331 
Q 1566 -1331 1297 -1286 
Q 1028 -1241 775 -1147 
L 775 -588 
Q 1028 -725 1275 -790 
Q 1522 -856 1778 -856 
Q 2344 -856 2625 -561 
Q 2906 -266 2906 331 
L 2906 616 
Q 2728 306 2450 153 
Q 2172 0 1784 0 
Q 1141 0 747 490 
Q 353 981 353 1791 
Q 353 2603 747 3093 
Q 1141 3584 1784 3584 
Q 2172 3584 2450 3431 
Q 2728 3278 2906 2969 
L 2906 3500 
L 3481 3500 
L 3481 434 
z
" id="DejaVuSans-67" transform="scale(0.015625)"/>
       <path d="M 3122 3366 
L 3122 2828 
Q 2878 2963 2633 3030 
Q 2388 3097 2138 3097 
Q 1578 3097 1268 2742 
Q 959 2388 959 1747 
Q 959 1106 1268 751 
Q 1578 397 2138 397 
Q 2388 397 2633 464 
Q 2878 531 3122 666 
L 3122 134 
Q 2881 22 2623 -34 
Q 2366 -91 2075 -91 
Q 1284 -91 818 406 
Q 353 903 353 1747 
Q 353 2603 823 3093 
Q 1294 3584 2113 3584 
Q 2378 3584 2631 3529 
Q 2884 3475 3122 3366 
z
" id="DejaVuSans-63" transform="scale(0.015625)"/>
       <path d="M 191 3500 
L 800 3500 
L 1894 563 
L 2988 3500 
L 3597 3500 
L 2284 0 
L 1503 0 
L 191 3500 
z
" id="DejaVuSans-76" transform="scale(0.015625)"/>
       <path d="M 2194 1759 
Q 1497 1759 1228 1600 
Q 959 1441 959 1056 
Q 959 750 1161 570 
Q 1363 391 1709 391 
Q 2188 391 2477 730 
Q 2766 1069 2766 1631 
L 2766 1759 
L 2194 1759 
z
M 3341 1997 
L 3341 0 
L 2766 0 
L 2766 531 
Q 2569 213 2275 61 
Q 1981 -91 1556 -91 
Q 1019 -91 701 211 
Q 384 513 384 1019 
Q 384 1609 779 1909 
Q 1175 2209 1959 2209 
L 2766 2209 
L 2766 2266 
Q 2766 2663 2505 2880 
Q 2244 3097 1772 3097 
Q 1472 3097 1187 3025 
Q 903 2953 641 2809 
L 641 3341 
Q 956 3463 1253 3523 
Q 1550 3584 1831 3584 
Q 2591 3584 2966 3190 
Q 3341 2797 3341 1997 
z
" id="DejaVuSans-61" transform="scale(0.015625)"/>
      </defs>
      <use xlink:href="#DejaVuSans-43"/>
      <use x="69.824219" xlink:href="#DejaVuSans-6f"/>
      <use x="131.005859" xlink:href="#DejaVuSans-64"/>
      <use x="194.482422" xlink:href="#DejaVuSans-65"/>
      <use x="256.005859" xlink:href="#DejaVuSans-20"/>
      <use x="287.792969" xlink:href="#DejaVuSans-72"/>
      <use x="326.65625" xlink:href="#DejaVuSans-65"/>
      <use x="388.179688" xlink:href="#DejaVuSans-67"/>
      <use x="451.65625" xlink:href="#DejaVuSans-69"/>
      <use x="479.439453" xlink:href="#DejaVuSans-6f"/>
      <use x="540.621094" xlink:href="#DejaVuSans-6e"/>
      <use x="604" xlink:href="#DejaVuSans-20"/>
      <use x="635.787109" xlink:href="#DejaVuSans-63"/>
      <use x="690.767578" xlink:href="#DejaVuSans-6f"/>
      <use x="751.949219" xlink:href="#DejaVuSans-76"/>
      <use x="811.128906" xlink:href="#DejaVuSans-65"/>
      <use x="872.652344" xlink:href="#DejaVuSans-72"/>
      <use x="913.765625" xlink:href="#DejaVuSans-61"/>
      <use x="975.044922" xlink:href="#DejaVuSans-67"/>
      <use x="1038.521484" xlink:href="#DejaVuSans-65"/>
     </g>
    </g>
   </g>
   <g id="line2d_13">
    <path clip-path="url(#p7416da86f5)" d="M 69.560852 276.334125 
L 73.128485 179.561143 
L 76.696117 165.188425 
L 80.263749 149.943878 
L 83.831382 145.858738 
L 87.399014 139.880484 
L 90.966646 134.624603 
L 94.534279 133.678046 
L 98.101911 130.713828 
L 101.669544 125.981044 
L 105.237176 125.457947 
L 108.804808 124.312115 
L 112.372441 121.123713 
L 115.940073 113.451621 
L 119.507705 111.683054 
L 123.075338 111.508688 
L 126.64297 110.487403 
L 130.210603 109.640484 
L 133.778235 109.491028 
L 137.345867 107.473367 
L 140.9135 106.900451 
L 144.481132 106.676267 
L 148.048764 101.320748 
L 151.616397 101.146382 
L 155.184029 100.573466 
L 158.751661 100.42401 
L 162.319294 100.349282 
L 165.886926 96.712511 
L 169.454559 96.712511 
L 173.022191 94.919034 
L 176.589823 93.001011 
L 180.157456 92.826646 
L 183.725088 91.606085 
L 187.29272 91.606085 
L 190.860353 89.065328 
L 194.427985 88.890962 
L 197.995618 88.16859 
L 201.56325 86.723845 
L 205.130882 86.624207 
L 208.698515 85.627832 
L 212.266147 82.613796 
L 215.833779 77.034092 
L 219.401412 77.034092 
L 222.969044 70.408194 
L 226.536676 70.408194 
L 230.104309 60.992445 
L 233.671941 59.896431 
L 237.239574 59.622428 
L 240.807206 59.622428 
L 244.374838 59.12424 
L 247.942471 59.074422 
L 251.510103 59.074422 
L 255.077735 59.074422 
L 258.645368 59.074422 
L 262.213 58.053137 
L 265.780632 57.554949 
L 269.348265 56.035476 
L 272.915897 55.587107 
L 276.48353 55.587107 
L 280.051162 55.487469 
L 283.618794 55.437651 
L 287.186427 55.437651 
L 290.754059 55.213466 
L 294.321691 52.19943 
L 297.889324 52.149611 
L 301.456956 52.149611 
L 305.024589 52.049973 
L 308.592221 52.049973 
L 312.159853 51.526876 
L 315.727486 51.427239 
L 319.295118 50.754685 
L 322.86275 50.754685 
L 326.430383 50.057222 
L 329.998015 50.032313 
L 333.565647 50.032313 
L 337.13328 49.907766 
L 340.700912 49.907766 
L 344.268545 49.907766 
L 347.836177 49.882856 
L 351.403809 46.520089 
L 354.971442 46.420451 
L 358.539074 46.196267 
L 362.106706 46.196267 
L 365.674339 46.171357 
L 369.241971 46.171357 
L 372.809604 46.171357 
L 376.377236 46.171357 
L 379.944868 38.872906 
L 383.512501 38.872906 
L 387.080133 38.872906 
L 390.647765 38.872906 
L 394.215398 38.872906 
" style="fill:none;stroke:#1f77b4;stroke-linecap:square;stroke-width:1.5;"/>
    <defs>
     <path d="M 0 3 
C 0.795609 3 1.55874 2.683901 2.12132 2.12132 
C 2.683901 1.55874 3 0.795609 3 0 
C 3 -0.795609 2.683901 -1.55874 2.12132 -2.12132 
C 1.55874 -2.683901 0.795609 -3 0 -3 
C -0.795609 -3 -1.55874 -2.683901 -2.12132 -2.12132 
C -2.683901 -1.55874 -3 -0.795609 -3 0 
C -3 0.795609 -2.683901 1.55874 -2.12132 2.12132 
C -1.55874 2.683901 -0.795609 3 0 3 
z
" id="m814167eac1" style="stroke:#ffffff;stroke-width:0.75;"/>
    </defs>
    <g clip-path="url(#p7416da86f5)">
     <use style="fill:#1f77b4;stroke:#ffffff;stroke-width:0.75;" x="69.560852" xlink:href="#m814167eac1" y="276.334125"/>
     <use style="fill:#1f77b4;stroke:#ffffff;stroke-width:0.75;" x="73.128485" xlink:href="#m814167eac1" y="179.561143"/>
     <use style="fill:#1f77b4;stroke:#ffffff;stroke-width:0.75;" x="76.696117" xlink:href="#m814167eac1" y="165.188425"/>
     <use style="fill:#1f77b4;stroke:#ffffff;stroke-width:0.75;" x="80.263749" xlink:href="#m814167eac1" y="149.943878"/>
     <use style="fill:#1f77b4;stroke:#ffffff;stroke-width:0.75;" x="83.831382" xlink:href="#m814167eac1" y="145.858738"/>
     <use style="fill:#1f77b4;stroke:#ffffff;stroke-width:0.75;" x="87.399014" xlink:href="#m814167eac1" y="139.880484"/>
     <use style="fill:#1f77b4;stroke:#ffffff;stroke-width:0.75;" x="90.966646" xlink:href="#m814167eac1" y="134.624603"/>
     <use style="fill:#1f77b4;stroke:#ffffff;stroke-width:0.75;" x="94.534279" xlink:href="#m814167eac1" y="133.678046"/>
     <use style="fill:#1f77b4;stroke:#ffffff;stroke-width:0.75;" x="98.101911" xlink:href="#m814167eac1" y="130.713828"/>
     <use style="fill:#1f77b4;stroke:#ffffff;stroke-width:0.75;" x="101.669544" xlink:href="#m814167eac1" y="125.981044"/>
     <use style="fill:#1f77b4;stroke:#ffffff;stroke-width:0.75;" x="105.237176" xlink:href="#m814167eac1" y="125.457947"/>
     <use style="fill:#1f77b4;stroke:#ffffff;stroke-width:0.75;" x="108.804808" xlink:href="#m814167eac1" y="124.312115"/>
     <use style="fill:#1f77b4;stroke:#ffffff;stroke-width:0.75;" x="112.372441" xlink:href="#m814167eac1" y="121.123713"/>
     <use style="fill:#1f77b4;stroke:#ffffff;stroke-width:0.75;" x="115.940073" xlink:href="#m814167eac1" y="113.451621"/>
     <use style="fill:#1f77b4;stroke:#ffffff;stroke-width:0.75;" x="119.507705" xlink:href="#m814167eac1" y="111.683054"/>
     <use style="fill:#1f77b4;stroke:#ffffff;stroke-width:0.75;" x="123.075338" xlink:href="#m814167eac1" y="111.508688"/>
     <use style="fill:#1f77b4;stroke:#ffffff;stroke-width:0.75;" x="126.64297" xlink:href="#m814167eac1" y="110.487403"/>
     <use style="fill:#1f77b4;stroke:#ffffff;stroke-width:0.75;" x="130.210603" xlink:href="#m814167eac1" y="109.640484"/>
     <use style="fill:#1f77b4;stroke:#ffffff;stroke-width:0.75;" x="133.778235" xlink:href="#m814167eac1" y="109.491028"/>
     <use style="fill:#1f77b4;stroke:#ffffff;stroke-width:0.75;" x="137.345867" xlink:href="#m814167eac1" y="107.473367"/>
     <use style="fill:#1f77b4;stroke:#ffffff;stroke-width:0.75;" x="140.9135" xlink:href="#m814167eac1" y="106.900451"/>
     <use style="fill:#1f77b4;stroke:#ffffff;stroke-width:0.75;" x="144.481132" xlink:href="#m814167eac1" y="106.676267"/>
     <use style="fill:#1f77b4;stroke:#ffffff;stroke-width:0.75;" x="148.048764" xlink:href="#m814167eac1" y="101.320748"/>
     <use style="fill:#1f77b4;stroke:#ffffff;stroke-width:0.75;" x="151.616397" xlink:href="#m814167eac1" y="101.146382"/>
     <use style="fill:#1f77b4;stroke:#ffffff;stroke-width:0.75;" x="155.184029" xlink:href="#m814167eac1" y="100.573466"/>
     <use style="fill:#1f77b4;stroke:#ffffff;stroke-width:0.75;" x="158.751661" xlink:href="#m814167eac1" y="100.42401"/>
     <use style="fill:#1f77b4;stroke:#ffffff;stroke-width:0.75;" x="162.319294" xlink:href="#m814167eac1" y="100.349282"/>
     <use style="fill:#1f77b4;stroke:#ffffff;stroke-width:0.75;" x="165.886926" xlink:href="#m814167eac1" y="96.712511"/>
     <use style="fill:#1f77b4;stroke:#ffffff;stroke-width:0.75;" x="169.454559" xlink:href="#m814167eac1" y="96.712511"/>
     <use style="fill:#1f77b4;stroke:#ffffff;stroke-width:0.75;" x="173.022191" xlink:href="#m814167eac1" y="94.919034"/>
     <use style="fill:#1f77b4;stroke:#ffffff;stroke-width:0.75;" x="176.589823" xlink:href="#m814167eac1" y="93.001011"/>
     <use style="fill:#1f77b4;stroke:#ffffff;stroke-width:0.75;" x="180.157456" xlink:href="#m814167eac1" y="92.826646"/>
     <use style="fill:#1f77b4;stroke:#ffffff;stroke-width:0.75;" x="183.725088" xlink:href="#m814167eac1" y="91.606085"/>
     <use style="fill:#1f77b4;stroke:#ffffff;stroke-width:0.75;" x="187.29272" xlink:href="#m814167eac1" y="91.606085"/>
     <use style="fill:#1f77b4;stroke:#ffffff;stroke-width:0.75;" x="190.860353" xlink:href="#m814167eac1" y="89.065328"/>
     <use style="fill:#1f77b4;stroke:#ffffff;stroke-width:0.75;" x="194.427985" xlink:href="#m814167eac1" y="88.890962"/>
     <use style="fill:#1f77b4;stroke:#ffffff;stroke-width:0.75;" x="197.995618" xlink:href="#m814167eac1" y="88.16859"/>
     <use style="fill:#1f77b4;stroke:#ffffff;stroke-width:0.75;" x="201.56325" xlink:href="#m814167eac1" y="86.723845"/>
     <use style="fill:#1f77b4;stroke:#ffffff;stroke-width:0.75;" x="205.130882" xlink:href="#m814167eac1" y="86.624207"/>
     <use style="fill:#1f77b4;stroke:#ffffff;stroke-width:0.75;" x="208.698515" xlink:href="#m814167eac1" y="85.627832"/>
     <use style="fill:#1f77b4;stroke:#ffffff;stroke-width:0.75;" x="212.266147" xlink:href="#m814167eac1" y="82.613796"/>
     <use style="fill:#1f77b4;stroke:#ffffff;stroke-width:0.75;" x="215.833779" xlink:href="#m814167eac1" y="77.034092"/>
     <use style="fill:#1f77b4;stroke:#ffffff;stroke-width:0.75;" x="219.401412" xlink:href="#m814167eac1" y="77.034092"/>
     <use style="fill:#1f77b4;stroke:#ffffff;stroke-width:0.75;" x="222.969044" xlink:href="#m814167eac1" y="70.408194"/>
     <use style="fill:#1f77b4;stroke:#ffffff;stroke-width:0.75;" x="226.536676" xlink:href="#m814167eac1" y="70.408194"/>
     <use style="fill:#1f77b4;stroke:#ffffff;stroke-width:0.75;" x="230.104309" xlink:href="#m814167eac1" y="60.992445"/>
     <use style="fill:#1f77b4;stroke:#ffffff;stroke-width:0.75;" x="233.671941" xlink:href="#m814167eac1" y="59.896431"/>
     <use style="fill:#1f77b4;stroke:#ffffff;stroke-width:0.75;" x="237.239574" xlink:href="#m814167eac1" y="59.622428"/>
     <use style="fill:#1f77b4;stroke:#ffffff;stroke-width:0.75;" x="240.807206" xlink:href="#m814167eac1" y="59.622428"/>
     <use style="fill:#1f77b4;stroke:#ffffff;stroke-width:0.75;" x="244.374838" xlink:href="#m814167eac1" y="59.12424"/>
     <use style="fill:#1f77b4;stroke:#ffffff;stroke-width:0.75;" x="247.942471" xlink:href="#m814167eac1" y="59.074422"/>
     <use style="fill:#1f77b4;stroke:#ffffff;stroke-width:0.75;" x="251.510103" xlink:href="#m814167eac1" y="59.074422"/>
     <use style="fill:#1f77b4;stroke:#ffffff;stroke-width:0.75;" x="255.077735" xlink:href="#m814167eac1" y="59.074422"/>
     <use style="fill:#1f77b4;stroke:#ffffff;stroke-width:0.75;" x="258.645368" xlink:href="#m814167eac1" y="59.074422"/>
     <use style="fill:#1f77b4;stroke:#ffffff;stroke-width:0.75;" x="262.213" xlink:href="#m814167eac1" y="58.053137"/>
     <use style="fill:#1f77b4;stroke:#ffffff;stroke-width:0.75;" x="265.780632" xlink:href="#m814167eac1" y="57.554949"/>
     <use style="fill:#1f77b4;stroke:#ffffff;stroke-width:0.75;" x="269.348265" xlink:href="#m814167eac1" y="56.035476"/>
     <use style="fill:#1f77b4;stroke:#ffffff;stroke-width:0.75;" x="272.915897" xlink:href="#m814167eac1" y="55.587107"/>
     <use style="fill:#1f77b4;stroke:#ffffff;stroke-width:0.75;" x="276.48353" xlink:href="#m814167eac1" y="55.587107"/>
     <use style="fill:#1f77b4;stroke:#ffffff;stroke-width:0.75;" x="280.051162" xlink:href="#m814167eac1" y="55.487469"/>
     <use style="fill:#1f77b4;stroke:#ffffff;stroke-width:0.75;" x="283.618794" xlink:href="#m814167eac1" y="55.437651"/>
     <use style="fill:#1f77b4;stroke:#ffffff;stroke-width:0.75;" x="287.186427" xlink:href="#m814167eac1" y="55.437651"/>
     <use style="fill:#1f77b4;stroke:#ffffff;stroke-width:0.75;" x="290.754059" xlink:href="#m814167eac1" y="55.213466"/>
     <use style="fill:#1f77b4;stroke:#ffffff;stroke-width:0.75;" x="294.321691" xlink:href="#m814167eac1" y="52.19943"/>
     <use style="fill:#1f77b4;stroke:#ffffff;stroke-width:0.75;" x="297.889324" xlink:href="#m814167eac1" y="52.149611"/>
     <use style="fill:#1f77b4;stroke:#ffffff;stroke-width:0.75;" x="301.456956" xlink:href="#m814167eac1" y="52.149611"/>
     <use style="fill:#1f77b4;stroke:#ffffff;stroke-width:0.75;" x="305.024589" xlink:href="#m814167eac1" y="52.049973"/>
     <use style="fill:#1f77b4;stroke:#ffffff;stroke-width:0.75;" x="308.592221" xlink:href="#m814167eac1" y="52.049973"/>
     <use style="fill:#1f77b4;stroke:#ffffff;stroke-width:0.75;" x="312.159853" xlink:href="#m814167eac1" y="51.526876"/>
     <use style="fill:#1f77b4;stroke:#ffffff;stroke-width:0.75;" x="315.727486" xlink:href="#m814167eac1" y="51.427239"/>
     <use style="fill:#1f77b4;stroke:#ffffff;stroke-width:0.75;" x="319.295118" xlink:href="#m814167eac1" y="50.754685"/>
     <use style="fill:#1f77b4;stroke:#ffffff;stroke-width:0.75;" x="322.86275" xlink:href="#m814167eac1" y="50.754685"/>
     <use style="fill:#1f77b4;stroke:#ffffff;stroke-width:0.75;" x="326.430383" xlink:href="#m814167eac1" y="50.057222"/>
     <use style="fill:#1f77b4;stroke:#ffffff;stroke-width:0.75;" x="329.998015" xlink:href="#m814167eac1" y="50.032313"/>
     <use style="fill:#1f77b4;stroke:#ffffff;stroke-width:0.75;" x="333.565647" xlink:href="#m814167eac1" y="50.032313"/>
     <use style="fill:#1f77b4;stroke:#ffffff;stroke-width:0.75;" x="337.13328" xlink:href="#m814167eac1" y="49.907766"/>
     <use style="fill:#1f77b4;stroke:#ffffff;stroke-width:0.75;" x="340.700912" xlink:href="#m814167eac1" y="49.907766"/>
     <use style="fill:#1f77b4;stroke:#ffffff;stroke-width:0.75;" x="344.268545" xlink:href="#m814167eac1" y="49.907766"/>
     <use style="fill:#1f77b4;stroke:#ffffff;stroke-width:0.75;" x="347.836177" xlink:href="#m814167eac1" y="49.882856"/>
     <use style="fill:#1f77b4;stroke:#ffffff;stroke-width:0.75;" x="351.403809" xlink:href="#m814167eac1" y="46.520089"/>
     <use style="fill:#1f77b4;stroke:#ffffff;stroke-width:0.75;" x="354.971442" xlink:href="#m814167eac1" y="46.420451"/>
     <use style="fill:#1f77b4;stroke:#ffffff;stroke-width:0.75;" x="358.539074" xlink:href="#m814167eac1" y="46.196267"/>
     <use style="fill:#1f77b4;stroke:#ffffff;stroke-width:0.75;" x="362.106706" xlink:href="#m814167eac1" y="46.196267"/>
     <use style="fill:#1f77b4;stroke:#ffffff;stroke-width:0.75;" x="365.674339" xlink:href="#m814167eac1" y="46.171357"/>
     <use style="fill:#1f77b4;stroke:#ffffff;stroke-width:0.75;" x="369.241971" xlink:href="#m814167eac1" y="46.171357"/>
     <use style="fill:#1f77b4;stroke:#ffffff;stroke-width:0.75;" x="372.809604" xlink:href="#m814167eac1" y="46.171357"/>
     <use style="fill:#1f77b4;stroke:#ffffff;stroke-width:0.75;" x="376.377236" xlink:href="#m814167eac1" y="46.171357"/>
     <use style="fill:#1f77b4;stroke:#ffffff;stroke-width:0.75;" x="379.944868" xlink:href="#m814167eac1" y="38.872906"/>
     <use style="fill:#1f77b4;stroke:#ffffff;stroke-width:0.75;" x="383.512501" xlink:href="#m814167eac1" y="38.872906"/>
     <use style="fill:#1f77b4;stroke:#ffffff;stroke-width:0.75;" x="387.080133" xlink:href="#m814167eac1" y="38.872906"/>
     <use style="fill:#1f77b4;stroke:#ffffff;stroke-width:0.75;" x="390.647765" xlink:href="#m814167eac1" y="38.872906"/>
     <use style="fill:#1f77b4;stroke:#ffffff;stroke-width:0.75;" x="394.215398" xlink:href="#m814167eac1" y="38.872906"/>
    </g>
   </g>
   <g id="line2d_14">
    <path clip-path="url(#p7416da86f5)" d="M 69.560852 276.334125 
L 73.128485 154.552115 
L 76.696117 149.644965 
L 80.263749 142.89452 
L 83.831382 140.154487 
L 87.399014 138.385921 
L 90.966646 137.240089 
L 94.534279 132.034026 
L 98.101911 131.934389 
L 101.669544 130.215641 
L 105.237176 128.770896 
L 108.804808 127.40088 
L 112.372441 127.151786 
L 115.940073 125.73195 
L 119.507705 122.020451 
L 123.075338 121.64681 
L 126.64297 120.002791 
L 130.210603 119.380056 
L 133.778235 119.255509 
L 137.345867 119.006415 
L 140.9135 117.013664 
L 144.481132 113.825262 
L 148.048764 110.761407 
L 151.616397 109.715212 
L 155.184029 107.946646 
L 158.751661 107.697552 
L 162.319294 107.697552 
L 165.886926 107.622824 
L 169.454559 106.925361 
L 173.022191 106.925361 
L 176.589823 106.750995 
L 180.157456 105.455707 
L 183.725088 103.786777 
L 187.29272 103.462955 
L 190.860353 103.089314 
L 194.427985 103.039496 
L 197.995618 102.267305 
L 201.56325 100.673104 
L 205.130882 100.673104 
L 208.698515 100.673104 
L 212.266147 100.374191 
L 215.833779 100.374191 
L 219.401412 98.281802 
L 222.969044 97.733796 
L 226.536676 97.733796 
L 230.104309 96.712511 
L 233.671941 96.712511 
L 237.239574 96.413598 
L 240.807206 96.413598 
L 244.374838 93.524109 
L 247.942471 93.524109 
L 251.510103 92.62737 
L 255.077735 86.723845 
L 258.645368 85.478375 
L 262.213 85.378738 
L 265.780632 81.19396 
L 269.348265 80.496497 
L 272.915897 76.660451 
L 276.48353 73.397321 
L 280.051162 70.433104 
L 283.618794 70.034553 
L 287.186427 69.910006 
L 290.754059 65.824866 
L 294.321691 64.654125 
L 297.889324 64.330303 
L 301.456956 64.230665 
L 305.024589 64.131028 
L 308.592221 64.081209 
L 312.159853 61.092082 
L 315.727486 61.042263 
L 319.295118 61.042263 
L 322.86275 60.170435 
L 326.430383 60.120616 
L 329.998015 60.120616 
L 333.565647 59.97116 
L 337.13328 59.746975 
L 340.700912 59.746975 
L 344.268545 59.697156 
L 347.836177 59.697156 
L 351.403809 59.697156 
L 354.971442 59.697156 
L 358.539074 59.622428 
L 362.106706 59.622428 
L 365.674339 59.398244 
L 369.241971 59.323515 
L 372.809604 58.999693 
L 376.377236 58.750599 
L 379.944868 58.576234 
L 383.512501 58.227502 
L 387.080133 58.227502 
L 390.647765 58.152774 
L 394.215398 58.152774 
" style="fill:none;stroke:#98df8a;stroke-linecap:square;stroke-width:1.5;"/>
    <defs>
     <path d="M -0 3 
L 3 -3 
L -3 -3 
z
" id="m27d5a57230" style="stroke:#ffffff;stroke-linejoin:miter;stroke-width:0.75;"/>
    </defs>
    <g clip-path="url(#p7416da86f5)">
     <use style="fill:#98df8a;stroke:#ffffff;stroke-linejoin:miter;stroke-width:0.75;" x="69.560852" xlink:href="#m27d5a57230" y="276.334125"/>
     <use style="fill:#98df8a;stroke:#ffffff;stroke-linejoin:miter;stroke-width:0.75;" x="73.128485" xlink:href="#m27d5a57230" y="154.552115"/>
     <use style="fill:#98df8a;stroke:#ffffff;stroke-linejoin:miter;stroke-width:0.75;" x="76.696117" xlink:href="#m27d5a57230" y="149.644965"/>
     <use style="fill:#98df8a;stroke:#ffffff;stroke-linejoin:miter;stroke-width:0.75;" x="80.263749" xlink:href="#m27d5a57230" y="142.89452"/>
     <use style="fill:#98df8a;stroke:#ffffff;stroke-linejoin:miter;stroke-width:0.75;" x="83.831382" xlink:href="#m27d5a57230" y="140.154487"/>
     <use style="fill:#98df8a;stroke:#ffffff;stroke-linejoin:miter;stroke-width:0.75;" x="87.399014" xlink:href="#m27d5a57230" y="138.385921"/>
     <use style="fill:#98df8a;stroke:#ffffff;stroke-linejoin:miter;stroke-width:0.75;" x="90.966646" xlink:href="#m27d5a57230" y="137.240089"/>
     <use style="fill:#98df8a;stroke:#ffffff;stroke-linejoin:miter;stroke-width:0.75;" x="94.534279" xlink:href="#m27d5a57230" y="132.034026"/>
     <use style="fill:#98df8a;stroke:#ffffff;stroke-linejoin:miter;stroke-width:0.75;" x="98.101911" xlink:href="#m27d5a57230" y="131.934389"/>
     <use style="fill:#98df8a;stroke:#ffffff;stroke-linejoin:miter;stroke-width:0.75;" x="101.669544" xlink:href="#m27d5a57230" y="130.215641"/>
     <use style="fill:#98df8a;stroke:#ffffff;stroke-linejoin:miter;stroke-width:0.75;" x="105.237176" xlink:href="#m27d5a57230" y="128.770896"/>
     <use style="fill:#98df8a;stroke:#ffffff;stroke-linejoin:miter;stroke-width:0.75;" x="108.804808" xlink:href="#m27d5a57230" y="127.40088"/>
     <use style="fill:#98df8a;stroke:#ffffff;stroke-linejoin:miter;stroke-width:0.75;" x="112.372441" xlink:href="#m27d5a57230" y="127.151786"/>
     <use style="fill:#98df8a;stroke:#ffffff;stroke-linejoin:miter;stroke-width:0.75;" x="115.940073" xlink:href="#m27d5a57230" y="125.73195"/>
     <use style="fill:#98df8a;stroke:#ffffff;stroke-linejoin:miter;stroke-width:0.75;" x="119.507705" xlink:href="#m27d5a57230" y="122.020451"/>
     <use style="fill:#98df8a;stroke:#ffffff;stroke-linejoin:miter;stroke-width:0.75;" x="123.075338" xlink:href="#m27d5a57230" y="121.64681"/>
     <use style="fill:#98df8a;stroke:#ffffff;stroke-linejoin:miter;stroke-width:0.75;" x="126.64297" xlink:href="#m27d5a57230" y="120.002791"/>
     <use style="fill:#98df8a;stroke:#ffffff;stroke-linejoin:miter;stroke-width:0.75;" x="130.210603" xlink:href="#m27d5a57230" y="119.380056"/>
     <use style="fill:#98df8a;stroke:#ffffff;stroke-linejoin:miter;stroke-width:0.75;" x="133.778235" xlink:href="#m27d5a57230" y="119.255509"/>
     <use style="fill:#98df8a;stroke:#ffffff;stroke-linejoin:miter;stroke-width:0.75;" x="137.345867" xlink:href="#m27d5a57230" y="119.006415"/>
     <use style="fill:#98df8a;stroke:#ffffff;stroke-linejoin:miter;stroke-width:0.75;" x="140.9135" xlink:href="#m27d5a57230" y="117.013664"/>
     <use style="fill:#98df8a;stroke:#ffffff;stroke-linejoin:miter;stroke-width:0.75;" x="144.481132" xlink:href="#m27d5a57230" y="113.825262"/>
     <use style="fill:#98df8a;stroke:#ffffff;stroke-linejoin:miter;stroke-width:0.75;" x="148.048764" xlink:href="#m27d5a57230" y="110.761407"/>
     <use style="fill:#98df8a;stroke:#ffffff;stroke-linejoin:miter;stroke-width:0.75;" x="151.616397" xlink:href="#m27d5a57230" y="109.715212"/>
     <use style="fill:#98df8a;stroke:#ffffff;stroke-linejoin:miter;stroke-width:0.75;" x="155.184029" xlink:href="#m27d5a57230" y="107.946646"/>
     <use style="fill:#98df8a;stroke:#ffffff;stroke-linejoin:miter;stroke-width:0.75;" x="158.751661" xlink:href="#m27d5a57230" y="107.697552"/>
     <use style="fill:#98df8a;stroke:#ffffff;stroke-linejoin:miter;stroke-width:0.75;" x="162.319294" xlink:href="#m27d5a57230" y="107.697552"/>
     <use style="fill:#98df8a;stroke:#ffffff;stroke-linejoin:miter;stroke-width:0.75;" x="165.886926" xlink:href="#m27d5a57230" y="107.622824"/>
     <use style="fill:#98df8a;stroke:#ffffff;stroke-linejoin:miter;stroke-width:0.75;" x="169.454559" xlink:href="#m27d5a57230" y="106.925361"/>
     <use style="fill:#98df8a;stroke:#ffffff;stroke-linejoin:miter;stroke-width:0.75;" x="173.022191" xlink:href="#m27d5a57230" y="106.925361"/>
     <use style="fill:#98df8a;stroke:#ffffff;stroke-linejoin:miter;stroke-width:0.75;" x="176.589823" xlink:href="#m27d5a57230" y="106.750995"/>
     <use style="fill:#98df8a;stroke:#ffffff;stroke-linejoin:miter;stroke-width:0.75;" x="180.157456" xlink:href="#m27d5a57230" y="105.455707"/>
     <use style="fill:#98df8a;stroke:#ffffff;stroke-linejoin:miter;stroke-width:0.75;" x="183.725088" xlink:href="#m27d5a57230" y="103.786777"/>
     <use style="fill:#98df8a;stroke:#ffffff;stroke-linejoin:miter;stroke-width:0.75;" x="187.29272" xlink:href="#m27d5a57230" y="103.462955"/>
     <use style="fill:#98df8a;stroke:#ffffff;stroke-linejoin:miter;stroke-width:0.75;" x="190.860353" xlink:href="#m27d5a57230" y="103.089314"/>
     <use style="fill:#98df8a;stroke:#ffffff;stroke-linejoin:miter;stroke-width:0.75;" x="194.427985" xlink:href="#m27d5a57230" y="103.039496"/>
     <use style="fill:#98df8a;stroke:#ffffff;stroke-linejoin:miter;stroke-width:0.75;" x="197.995618" xlink:href="#m27d5a57230" y="102.267305"/>
     <use style="fill:#98df8a;stroke:#ffffff;stroke-linejoin:miter;stroke-width:0.75;" x="201.56325" xlink:href="#m27d5a57230" y="100.673104"/>
     <use style="fill:#98df8a;stroke:#ffffff;stroke-linejoin:miter;stroke-width:0.75;" x="205.130882" xlink:href="#m27d5a57230" y="100.673104"/>
     <use style="fill:#98df8a;stroke:#ffffff;stroke-linejoin:miter;stroke-width:0.75;" x="208.698515" xlink:href="#m27d5a57230" y="100.673104"/>
     <use style="fill:#98df8a;stroke:#ffffff;stroke-linejoin:miter;stroke-width:0.75;" x="212.266147" xlink:href="#m27d5a57230" y="100.374191"/>
     <use style="fill:#98df8a;stroke:#ffffff;stroke-linejoin:miter;stroke-width:0.75;" x="215.833779" xlink:href="#m27d5a57230" y="100.374191"/>
     <use style="fill:#98df8a;stroke:#ffffff;stroke-linejoin:miter;stroke-width:0.75;" x="219.401412" xlink:href="#m27d5a57230" y="98.281802"/>
     <use style="fill:#98df8a;stroke:#ffffff;stroke-linejoin:miter;stroke-width:0.75;" x="222.969044" xlink:href="#m27d5a57230" y="97.733796"/>
     <use style="fill:#98df8a;stroke:#ffffff;stroke-linejoin:miter;stroke-width:0.75;" x="226.536676" xlink:href="#m27d5a57230" y="97.733796"/>
     <use style="fill:#98df8a;stroke:#ffffff;stroke-linejoin:miter;stroke-width:0.75;" x="230.104309" xlink:href="#m27d5a57230" y="96.712511"/>
     <use style="fill:#98df8a;stroke:#ffffff;stroke-linejoin:miter;stroke-width:0.75;" x="233.671941" xlink:href="#m27d5a57230" y="96.712511"/>
     <use style="fill:#98df8a;stroke:#ffffff;stroke-linejoin:miter;stroke-width:0.75;" x="237.239574" xlink:href="#m27d5a57230" y="96.413598"/>
     <use style="fill:#98df8a;stroke:#ffffff;stroke-linejoin:miter;stroke-width:0.75;" x="240.807206" xlink:href="#m27d5a57230" y="96.413598"/>
     <use style="fill:#98df8a;stroke:#ffffff;stroke-linejoin:miter;stroke-width:0.75;" x="244.374838" xlink:href="#m27d5a57230" y="93.524109"/>
     <use style="fill:#98df8a;stroke:#ffffff;stroke-linejoin:miter;stroke-width:0.75;" x="247.942471" xlink:href="#m27d5a57230" y="93.524109"/>
     <use style="fill:#98df8a;stroke:#ffffff;stroke-linejoin:miter;stroke-width:0.75;" x="251.510103" xlink:href="#m27d5a57230" y="92.62737"/>
     <use style="fill:#98df8a;stroke:#ffffff;stroke-linejoin:miter;stroke-width:0.75;" x="255.077735" xlink:href="#m27d5a57230" y="86.723845"/>
     <use style="fill:#98df8a;stroke:#ffffff;stroke-linejoin:miter;stroke-width:0.75;" x="258.645368" xlink:href="#m27d5a57230" y="85.478375"/>
     <use style="fill:#98df8a;stroke:#ffffff;stroke-linejoin:miter;stroke-width:0.75;" x="262.213" xlink:href="#m27d5a57230" y="85.378738"/>
     <use style="fill:#98df8a;stroke:#ffffff;stroke-linejoin:miter;stroke-width:0.75;" x="265.780632" xlink:href="#m27d5a57230" y="81.19396"/>
     <use style="fill:#98df8a;stroke:#ffffff;stroke-linejoin:miter;stroke-width:0.75;" x="269.348265" xlink:href="#m27d5a57230" y="80.496497"/>
     <use style="fill:#98df8a;stroke:#ffffff;stroke-linejoin:miter;stroke-width:0.75;" x="272.915897" xlink:href="#m27d5a57230" y="76.660451"/>
     <use style="fill:#98df8a;stroke:#ffffff;stroke-linejoin:miter;stroke-width:0.75;" x="276.48353" xlink:href="#m27d5a57230" y="73.397321"/>
     <use style="fill:#98df8a;stroke:#ffffff;stroke-linejoin:miter;stroke-width:0.75;" x="280.051162" xlink:href="#m27d5a57230" y="70.433104"/>
     <use style="fill:#98df8a;stroke:#ffffff;stroke-linejoin:miter;stroke-width:0.75;" x="283.618794" xlink:href="#m27d5a57230" y="70.034553"/>
     <use style="fill:#98df8a;stroke:#ffffff;stroke-linejoin:miter;stroke-width:0.75;" x="287.186427" xlink:href="#m27d5a57230" y="69.910006"/>
     <use style="fill:#98df8a;stroke:#ffffff;stroke-linejoin:miter;stroke-width:0.75;" x="290.754059" xlink:href="#m27d5a57230" y="65.824866"/>
     <use style="fill:#98df8a;stroke:#ffffff;stroke-linejoin:miter;stroke-width:0.75;" x="294.321691" xlink:href="#m27d5a57230" y="64.654125"/>
     <use style="fill:#98df8a;stroke:#ffffff;stroke-linejoin:miter;stroke-width:0.75;" x="297.889324" xlink:href="#m27d5a57230" y="64.330303"/>
     <use style="fill:#98df8a;stroke:#ffffff;stroke-linejoin:miter;stroke-width:0.75;" x="301.456956" xlink:href="#m27d5a57230" y="64.230665"/>
     <use style="fill:#98df8a;stroke:#ffffff;stroke-linejoin:miter;stroke-width:0.75;" x="305.024589" xlink:href="#m27d5a57230" y="64.131028"/>
     <use style="fill:#98df8a;stroke:#ffffff;stroke-linejoin:miter;stroke-width:0.75;" x="308.592221" xlink:href="#m27d5a57230" y="64.081209"/>
     <use style="fill:#98df8a;stroke:#ffffff;stroke-linejoin:miter;stroke-width:0.75;" x="312.159853" xlink:href="#m27d5a57230" y="61.092082"/>
     <use style="fill:#98df8a;stroke:#ffffff;stroke-linejoin:miter;stroke-width:0.75;" x="315.727486" xlink:href="#m27d5a57230" y="61.042263"/>
     <use style="fill:#98df8a;stroke:#ffffff;stroke-linejoin:miter;stroke-width:0.75;" x="319.295118" xlink:href="#m27d5a57230" y="61.042263"/>
     <use style="fill:#98df8a;stroke:#ffffff;stroke-linejoin:miter;stroke-width:0.75;" x="322.86275" xlink:href="#m27d5a57230" y="60.170435"/>
     <use style="fill:#98df8a;stroke:#ffffff;stroke-linejoin:miter;stroke-width:0.75;" x="326.430383" xlink:href="#m27d5a57230" y="60.120616"/>
     <use style="fill:#98df8a;stroke:#ffffff;stroke-linejoin:miter;stroke-width:0.75;" x="329.998015" xlink:href="#m27d5a57230" y="60.120616"/>
     <use style="fill:#98df8a;stroke:#ffffff;stroke-linejoin:miter;stroke-width:0.75;" x="333.565647" xlink:href="#m27d5a57230" y="59.97116"/>
     <use style="fill:#98df8a;stroke:#ffffff;stroke-linejoin:miter;stroke-width:0.75;" x="337.13328" xlink:href="#m27d5a57230" y="59.746975"/>
     <use style="fill:#98df8a;stroke:#ffffff;stroke-linejoin:miter;stroke-width:0.75;" x="340.700912" xlink:href="#m27d5a57230" y="59.746975"/>
     <use style="fill:#98df8a;stroke:#ffffff;stroke-linejoin:miter;stroke-width:0.75;" x="344.268545" xlink:href="#m27d5a57230" y="59.697156"/>
     <use style="fill:#98df8a;stroke:#ffffff;stroke-linejoin:miter;stroke-width:0.75;" x="347.836177" xlink:href="#m27d5a57230" y="59.697156"/>
     <use style="fill:#98df8a;stroke:#ffffff;stroke-linejoin:miter;stroke-width:0.75;" x="351.403809" xlink:href="#m27d5a57230" y="59.697156"/>
     <use style="fill:#98df8a;stroke:#ffffff;stroke-linejoin:miter;stroke-width:0.75;" x="354.971442" xlink:href="#m27d5a57230" y="59.697156"/>
     <use style="fill:#98df8a;stroke:#ffffff;stroke-linejoin:miter;stroke-width:0.75;" x="358.539074" xlink:href="#m27d5a57230" y="59.622428"/>
     <use style="fill:#98df8a;stroke:#ffffff;stroke-linejoin:miter;stroke-width:0.75;" x="362.106706" xlink:href="#m27d5a57230" y="59.622428"/>
     <use style="fill:#98df8a;stroke:#ffffff;stroke-linejoin:miter;stroke-width:0.75;" x="365.674339" xlink:href="#m27d5a57230" y="59.398244"/>
     <use style="fill:#98df8a;stroke:#ffffff;stroke-linejoin:miter;stroke-width:0.75;" x="369.241971" xlink:href="#m27d5a57230" y="59.323515"/>
     <use style="fill:#98df8a;stroke:#ffffff;stroke-linejoin:miter;stroke-width:0.75;" x="372.809604" xlink:href="#m27d5a57230" y="58.999693"/>
     <use style="fill:#98df8a;stroke:#ffffff;stroke-linejoin:miter;stroke-width:0.75;" x="376.377236" xlink:href="#m27d5a57230" y="58.750599"/>
     <use style="fill:#98df8a;stroke:#ffffff;stroke-linejoin:miter;stroke-width:0.75;" x="379.944868" xlink:href="#m27d5a57230" y="58.576234"/>
     <use style="fill:#98df8a;stroke:#ffffff;stroke-linejoin:miter;stroke-width:0.75;" x="383.512501" xlink:href="#m27d5a57230" y="58.227502"/>
     <use style="fill:#98df8a;stroke:#ffffff;stroke-linejoin:miter;stroke-width:0.75;" x="387.080133" xlink:href="#m27d5a57230" y="58.227502"/>
     <use style="fill:#98df8a;stroke:#ffffff;stroke-linejoin:miter;stroke-width:0.75;" x="390.647765" xlink:href="#m27d5a57230" y="58.152774"/>
     <use style="fill:#98df8a;stroke:#ffffff;stroke-linejoin:miter;stroke-width:0.75;" x="394.215398" xlink:href="#m27d5a57230" y="58.152774"/>
    </g>
   </g>
   <g id="line2d_15"/>
   <g id="line2d_16"/>
   <g id="patch_3">
    <path d="M 53.328125 280.61854 
L 53.328125 31.524636 
" style="fill:none;stroke:#000000;stroke-linecap:square;stroke-linejoin:miter;stroke-width:0.8;"/>
   </g>
   <g id="patch_4">
    <path d="M 69.560852 288.430125 
L 343.079334 288.430125 
" style="fill:none;stroke:#000000;stroke-linecap:square;stroke-linejoin:miter;stroke-width:0.8;"/>
   </g>
   <g id="text_15">
    <!-- tpm2_tpm2_execute_command_fuzzer (23h, 20 trials/fuzzer) -->
    <g transform="translate(49.405625 16.318125)scale(0.12 -0.12)">
     <defs>
      <path d="M 1159 525 
L 1159 -1331 
L 581 -1331 
L 581 3500 
L 1159 3500 
L 1159 2969 
Q 1341 3281 1617 3432 
Q 1894 3584 2278 3584 
Q 2916 3584 3314 3078 
Q 3713 2572 3713 1747 
Q 3713 922 3314 415 
Q 2916 -91 2278 -91 
Q 1894 -91 1617 61 
Q 1341 213 1159 525 
z
M 3116 1747 
Q 3116 2381 2855 2742 
Q 2594 3103 2138 3103 
Q 1681 3103 1420 2742 
Q 1159 2381 1159 1747 
Q 1159 1113 1420 752 
Q 1681 391 2138 391 
Q 2594 391 2855 752 
Q 3116 1113 3116 1747 
z
" id="DejaVuSans-70" transform="scale(0.015625)"/>
      <path d="M 3263 -1063 
L 3263 -1509 
L -63 -1509 
L -63 -1063 
L 3263 -1063 
z
" id="DejaVuSans-5f" transform="scale(0.015625)"/>
      <path d="M 3513 3500 
L 2247 1797 
L 3578 0 
L 2900 0 
L 1881 1375 
L 863 0 
L 184 0 
L 1544 1831 
L 300 3500 
L 978 3500 
L 1906 2253 
L 2834 3500 
L 3513 3500 
z
" id="DejaVuSans-78" transform="scale(0.015625)"/>
      <path d="M 2375 4863 
L 2375 4384 
L 1825 4384 
Q 1516 4384 1395 4259 
Q 1275 4134 1275 3809 
L 1275 3500 
L 2222 3500 
L 2222 3053 
L 1275 3053 
L 1275 0 
L 697 0 
L 697 3053 
L 147 3053 
L 147 3500 
L 697 3500 
L 697 3744 
Q 697 4328 969 4595 
Q 1241 4863 1831 4863 
L 2375 4863 
z
" id="DejaVuSans-66" transform="scale(0.015625)"/>
      <path d="M 353 3500 
L 3084 3500 
L 3084 2975 
L 922 459 
L 3084 459 
L 3084 0 
L 275 0 
L 275 525 
L 2438 3041 
L 353 3041 
L 353 3500 
z
" id="DejaVuSans-7a" transform="scale(0.015625)"/>
      <path d="M 750 794 
L 1409 794 
L 1409 256 
L 897 -744 
L 494 -744 
L 750 256 
L 750 794 
z
" id="DejaVuSans-2c" transform="scale(0.015625)"/>
      <path d="M 603 4863 
L 1178 4863 
L 1178 0 
L 603 0 
L 603 4863 
z
" id="DejaVuSans-6c" transform="scale(0.015625)"/>
      <path d="M 2834 3397 
L 2834 2853 
Q 2591 2978 2328 3040 
Q 2066 3103 1784 3103 
Q 1356 3103 1142 2972 
Q 928 2841 928 2578 
Q 928 2378 1081 2264 
Q 1234 2150 1697 2047 
L 1894 2003 
Q 2506 1872 2764 1633 
Q 3022 1394 3022 966 
Q 3022 478 2636 193 
Q 2250 -91 1575 -91 
Q 1294 -91 989 -36 
Q 684 19 347 128 
L 347 722 
Q 666 556 975 473 
Q 1284 391 1588 391 
Q 1994 391 2212 530 
Q 2431 669 2431 922 
Q 2431 1156 2273 1281 
Q 2116 1406 1581 1522 
L 1381 1569 
Q 847 1681 609 1914 
Q 372 2147 372 2553 
Q 372 3047 722 3315 
Q 1072 3584 1716 3584 
Q 2034 3584 2315 3537 
Q 2597 3491 2834 3397 
z
" id="DejaVuSans-73" transform="scale(0.015625)"/>
      <path d="M 1625 4666 
L 2156 4666 
L 531 -594 
L 0 -594 
L 1625 4666 
z
" id="DejaVuSans-2f" transform="scale(0.015625)"/>
     </defs>
     <use xlink:href="#DejaVuSans-74"/>
     <use x="39.208984" xlink:href="#DejaVuSans-70"/>
     <use x="102.685547" xlink:href="#DejaVuSans-6d"/>
     <use x="200.097656" xlink:href="#DejaVuSans-32"/>
     <use x="263.720703" xlink:href="#DejaVuSans-5f"/>
     <use x="313.720703" xlink:href="#DejaVuSans-74"/>
     <use x="352.929688" xlink:href="#DejaVuSans-70"/>
     <use x="416.40625" xlink:href="#DejaVuSans-6d"/>
     <use x="513.818359" xlink:href="#DejaVuSans-32"/>
     <use x="577.441406" xlink:href="#DejaVuSans-5f"/>
     <use x="627.441406" xlink:href="#DejaVuSans-65"/>
     <use x="687.214844" xlink:href="#DejaVuSans-78"/>
     <use x="743.269531" xlink:href="#DejaVuSans-65"/>
     <use x="804.792969" xlink:href="#DejaVuSans-63"/>
     <use x="859.773438" xlink:href="#DejaVuSans-75"/>
     <use x="923.152344" xlink:href="#DejaVuSans-74"/>
     <use x="962.361328" xlink:href="#DejaVuSans-65"/>
     <use x="1023.884766" xlink:href="#DejaVuSans-5f"/>
     <use x="1073.884766" xlink:href="#DejaVuSans-63"/>
     <use x="1128.865234" xlink:href="#DejaVuSans-6f"/>
     <use x="1190.046875" xlink:href="#DejaVuSans-6d"/>
     <use x="1287.458984" xlink:href="#DejaVuSans-6d"/>
     <use x="1384.871094" xlink:href="#DejaVuSans-61"/>
     <use x="1446.150391" xlink:href="#DejaVuSans-6e"/>
     <use x="1509.529297" xlink:href="#DejaVuSans-64"/>
     <use x="1573.005859" xlink:href="#DejaVuSans-5f"/>
     <use x="1623.005859" xlink:href="#DejaVuSans-66"/>
     <use x="1658.210938" xlink:href="#DejaVuSans-75"/>
     <use x="1721.589844" xlink:href="#DejaVuSans-7a"/>
     <use x="1774.080078" xlink:href="#DejaVuSans-7a"/>
     <use x="1826.570312" xlink:href="#DejaVuSans-65"/>
     <use x="1888.09375" xlink:href="#DejaVuSans-72"/>
     <use x="1929.207031" xlink:href="#DejaVuSans-20"/>
     <use x="1960.994141" xlink:href="#DejaVuSans-28"/>
     <use x="2000.007812" xlink:href="#DejaVuSans-32"/>
     <use x="2063.630859" xlink:href="#DejaVuSans-33"/>
     <use x="2127.253906" xlink:href="#DejaVuSans-68"/>
     <use x="2190.632812" xlink:href="#DejaVuSans-2c"/>
     <use x="2222.419922" xlink:href="#DejaVuSans-20"/>
     <use x="2254.207031" xlink:href="#DejaVuSans-32"/>
     <use x="2317.830078" xlink:href="#DejaVuSans-30"/>
     <use x="2381.453125" xlink:href="#DejaVuSans-20"/>
     <use x="2413.240234" xlink:href="#DejaVuSans-74"/>
     <use x="2452.449219" xlink:href="#DejaVuSans-72"/>
     <use x="2493.5625" xlink:href="#DejaVuSans-69"/>
     <use x="2521.345703" xlink:href="#DejaVuSans-61"/>
     <use x="2582.625" xlink:href="#DejaVuSans-6c"/>
     <use x="2610.408203" xlink:href="#DejaVuSans-73"/>
     <use x="2662.507812" xlink:href="#DejaVuSans-2f"/>
     <use x="2696.199219" xlink:href="#DejaVuSans-66"/>
     <use x="2731.404297" xlink:href="#DejaVuSans-75"/>
     <use x="2794.783203" xlink:href="#DejaVuSans-7a"/>
     <use x="2847.273438" xlink:href="#DejaVuSans-7a"/>
     <use x="2899.763672" xlink:href="#DejaVuSans-65"/>
     <use x="2961.287109" xlink:href="#DejaVuSans-72"/>
     <use x="3002.400391" xlink:href="#DejaVuSans-29"/>
    </g>
   </g>
   <g id="legend_1">
    <g id="line2d_17">
     <path d="M 414.448125 30.416562 
L 434.448125 30.416562 
" style="fill:none;stroke:#1f77b4;stroke-linecap:square;stroke-width:1.5;"/>
    </g>
    <g id="line2d_18">
     <defs>
      <path d="M 0 3 
C 0.795609 3 1.55874 2.683901 2.12132 2.12132 
C 2.683901 1.55874 3 0.795609 3 0 
C 3 -0.795609 2.683901 -1.55874 2.12132 -2.12132 
C 1.55874 -2.683901 0.795609 -3 0 -3 
C -0.795609 -3 -1.55874 -2.683901 -2.12132 -2.12132 
C -2.683901 -1.55874 -3 -0.795609 -3 0 
C -3 0.795609 -2.683901 1.55874 -2.12132 2.12132 
C -1.55874 2.683901 -0.795609 3 0 3 
z
" id="mcf384c4128" style="stroke:#1f77b4;"/>
     </defs>
     <g>
      <use style="fill:#1f77b4;stroke:#1f77b4;" x="424.448125" xlink:href="#mcf384c4128" y="30.416562"/>
     </g>
    </g>
    <g id="text_16">
     <!-- afl -->
     <g transform="translate(442.448125 33.916562)scale(0.1 -0.1)">
      <use xlink:href="#DejaVuSans-61"/>
      <use x="61.279297" xlink:href="#DejaVuSans-66"/>
      <use x="96.484375" xlink:href="#DejaVuSans-6c"/>
     </g>
    </g>
    <g id="line2d_19">
     <path d="M 414.448125 45.094688 
L 434.448125 45.094688 
" style="fill:none;stroke:#98df8a;stroke-linecap:square;stroke-width:1.5;"/>
    </g>
    <g id="line2d_20">
     <defs>
      <path d="M -0 3 
L 3 -3 
L -3 -3 
z
" id="mb9e3d146d0" style="stroke:#98df8a;stroke-linejoin:miter;"/>
     </defs>
     <g>
      <use style="fill:#98df8a;stroke:#98df8a;stroke-linejoin:miter;" x="424.448125" xlink:href="#mb9e3d146d0" y="45.094688"/>
     </g>
    </g>
    <g id="text_17">
     <!-- afl_edges -->
     <g transform="translate(442.448125 48.594688)scale(0.1 -0.1)">
      <use xlink:href="#DejaVuSans-61"/>
      <use x="61.279297" xlink:href="#DejaVuSans-66"/>
      <use x="96.484375" xlink:href="#DejaVuSans-6c"/>
      <use x="124.267578" xlink:href="#DejaVuSans-5f"/>
      <use x="174.267578" xlink:href="#DejaVuSans-65"/>
      <use x="235.791016" xlink:href="#DejaVuSans-64"/>
      <use x="299.267578" xlink:href="#DejaVuSans-67"/>
      <use x="362.744141" xlink:href="#DejaVuSans-65"/>
      <use x="424.267578" xlink:href="#DejaVuSans-73"/>
     </g>
    </g>
   </g>
  </g>
 </g>
 <defs>
  <clipPath id="p7416da86f5">
   <rect height="266.112" width="357.12" x="53.328125" y="22.318125"/>
  </clipPath>
 </defs>
</svg>
