<?xml version="1.0" encoding="utf-8" standalone="no"?>
<!DOCTYPE svg PUBLIC "-//W3C//DTD SVG 1.1//EN"
  "http://www.w3.org/Graphics/SVG/1.1/DTD/svg11.dtd">
<svg height="325.986375pt" version="1.1" viewBox="0 0 514.012187 325.986375" width="514.012187pt" xmlns="http://www.w3.org/2000/svg" xmlns:xlink="http://www.w3.org/1999/xlink">
 <metadata>
  <rdf:RDF xmlns:cc="http://creativecommons.org/ns#" xmlns:dc="http://purl.org/dc/elements/1.1/" xmlns:rdf="http://www.w3.org/1999/02/22-rdf-syntax-ns#">
   <cc:Work>
    <dc:type rdf:resource="http://purl.org/dc/dcmitype/StillImage"/>
    <dc:date>2022-06-02T16:17:15.340060</dc:date>
    <dc:format>image/svg+xml</dc:format>
    <dc:creator>
     <cc:Agent>
      <dc:title>Matplotlib v3.4.3, https://matplotlib.org/</dc:title>
     </cc:Agent>
    </dc:creator>
   </cc:Work>
  </rdf:RDF>
 </metadata>
 <defs>
  <style type="text/css">*{stroke-linecap:butt;stroke-linejoin:round;}</style>
 </defs>
 <g id="figure_1">
  <g id="patch_1">
   <path d="M 0 325.986375 
L 514.012187 325.986375 
L 514.012187 0 
L 0 0 
z
" style="fill:#ffffff;"/>
  </g>
  <g id="axes_1">
   <g id="patch_2">
    <path d="M 66.053125 288.430125 
L 423.173125 288.430125 
L 423.173125 22.318125 
L 66.053125 22.318125 
z
" style="fill:#ffffff;"/>
   </g>
   <g id="PolyCollection_1">
    <defs>
     <path d="M 82.285852 -56.469567 
L 82.285852 -49.65225 
L 132.052306 -69.190656 
L 161.163816 -86.528653 
L 181.81876 -97.666747 
L 197.83998 -109.423989 
L 210.930269 -117.340527 
L 221.997952 -122.097306 
L 231.585214 -124.748119 
L 240.041779 -127.542243 
L 247.606434 -129.515389 
L 254.449496 -136.037019 
L 260.696723 -138.532342 
L 266.443615 -140.245534 
L 271.764406 -146.767656 
L 276.717943 -149.620792 
L 281.351668 -156.278733 
L 285.704383 -159.146855 
L 289.808233 -159.874822 
L 293.690141 -161.036144 
L 297.372888 -164.779129 
L 300.875915 -160.799164 
L 304.21595 -167.353133 
L 307.40749 -170.053589 
L 310.463177 -172.518938 
L 313.394107 -179.81476 
L 316.210069 -180.377706 
L 318.919742 -187.281058 
L 321.530859 -188.127819 
L 324.05034 -190.473273 
L 326.484397 -192.595796 
L 328.838635 -192.8487 
L 331.118122 -199.440136 
L 333.32746 -200.087384 
L 335.470837 -202.17525 
L 337.552079 -201.150519 
L 339.574687 -205.411489 
L 341.541873 -208.654284 
L 343.456595 -209.958147 
L 345.321578 -211.909257 
L 347.139342 -212.414129 
L 348.912217 -213.497871 
L 350.642369 -213.826646 
L 352.331807 -214.211623 
L 353.982404 -220.85645 
L 355.595906 -221.495268 
L 357.173944 -224.13203 
L 358.718042 -227.632882 
L 360.229631 -227.812256 
L 361.710051 -227.857217 
L 363.160561 -228.330242 
L 364.582347 -231.540254 
L 365.976523 -231.660149 
L 367.344142 -231.731337 
L 368.686196 -232.840369 
L 370.003624 -235.007853 
L 371.297313 -236.618011 
L 372.568104 -236.009167 
L 373.816794 -238.536337 
L 375.044136 -239.817719 
L 376.250851 -240.399399 
L 377.437619 -240.992319 
L 378.605089 -242.046087 
L 379.753878 -242.176286 
L 380.884576 -242.252157 
L 381.997743 -242.342079 
L 383.093914 -244.177883 
L 384.1736 -245.436879 
L 385.237291 -245.753477 
L 386.285453 -245.858386 
L 387.318533 -244.268835 
L 388.336959 -247.237183 
L 389.341141 -247.750485 
L 390.331471 -247.83666 
L 391.308327 -248.162625 
L 392.272071 -249.788707 
L 393.223049 -250.187733 
L 394.161596 -254.420603 
L 395.088032 -253.980362 
L 396.002666 -254.685684 
L 396.905795 -254.744695 
L 397.797705 -254.810263 
L 398.678671 -254.929221 
L 399.548958 -255.505281 
L 400.408823 -255.686998 
L 401.258511 -256.809144 
L 402.098261 -258.874529 
L 402.928303 -258.953211 
L 403.748858 -260.344184 
L 404.560142 -261.319271 
L 405.36236 -261.245273 
L 406.155714 -262.558502 
L 406.940398 -262.826394 
L 406.940398 -291.57225 
L 406.940398 -291.57225 
L 406.155714 -289.742183 
L 405.36236 -290.348006 
L 404.560142 -289.258644 
L 403.748858 -289.082547 
L 402.928303 -288.809973 
L 402.098261 -288.444666 
L 401.258511 -288.25733 
L 400.408823 -287.882657 
L 399.548958 -287.643803 
L 398.678671 -287.150171 
L 397.797705 -287.112704 
L 396.905795 -286.046759 
L 396.002666 -282.22884 
L 395.088032 -281.496354 
L 394.161596 -281.627489 
L 393.223049 -281.179755 
L 392.272071 -280.958698 
L 391.308327 -280.072596 
L 390.331471 -279.727897 
L 389.341141 -278.561633 
L 388.336959 -278.422161 
L 387.318533 -277.459064 
L 386.285453 -277.350596 
L 385.237291 -276.347409 
L 384.1736 -275.80788 
L 383.093914 -274.298884 
L 381.997743 -275.256173 
L 380.884576 -270.917998 
L 379.753878 -270.689845 
L 378.605089 -270.278641 
L 377.437619 -267.442366 
L 376.250851 -265.942737 
L 375.044136 -267.397405 
L 373.816794 -262.155729 
L 372.568104 -259.548004 
L 371.297313 -257.768307 
L 370.003624 -255.795653 
L 368.686196 -253.424909 
L 367.344142 -251.061658 
L 365.976523 -253.231718 
L 364.582347 -248.881998 
L 363.160561 -252.1761 
L 361.710051 -248.726345 
L 360.229631 -242.678301 
L 358.718042 -244.07808 
L 357.173944 -240.753465 
L 355.595906 -238.130753 
L 353.982404 -242.514429 
L 352.331807 -236.628127 
L 350.642369 -238.319027 
L 348.912217 -236.676085 
L 347.139342 -233.953148 
L 345.321578 -230.14085 
L 343.456595 -230.990421 
L 341.541873 -229.600384 
L 339.574687 -230.269175 
L 337.552079 -229.051933 
L 335.470837 -228.194423 
L 333.32746 -227.507975 
L 331.118122 -225.513637 
L 328.838635 -223.104489 
L 326.484397 -221.917712 
L 324.05034 -221.752856 
L 321.530859 -221.555216 
L 318.919742 -221.38015 
L 316.210069 -217.621148 
L 313.394107 -216.185214 
L 310.463177 -215.79649 
L 307.40749 -215.558573 
L 304.21595 -215.161419 
L 300.875915 -214.250964 
L 297.372888 -213.265574 
L 293.690141 -207.191186 
L 289.808233 -204.89163 
L 285.704383 -197.245489 
L 281.351668 -194.221877 
L 276.717943 -193.592426 
L 271.764406 -190.724069 
L 266.443615 -182.529266 
L 260.696723 -180.540221 
L 254.449496 -172.897358 
L 247.606434 -165.764519 
L 240.041779 -161.060498 
L 231.585214 -153.865838 
L 221.997952 -145.396353 
L 210.930269 -139.040024 
L 197.83998 -128.736514 
L 181.81876 -117.408273 
L 161.163816 -102.482233 
L 132.052306 -83.099458 
L 82.285852 -56.469567 
z
" id="mea53fc6e17" style="stroke:#1f77b4;stroke-opacity:0.2;"/>
    </defs>
    <g clip-path="url(#p26f5eac0ea)">
     <use style="fill:#1f77b4;fill-opacity:0.2;stroke:#1f77b4;stroke-opacity:0.2;" x="0" xlink:href="#mea53fc6e17" y="325.986375"/>
    </g>
   </g>
   <g id="PolyCollection_2">
    <defs>
     <path d="M 82.285852 -67.983272 
L 82.285852 -64.706755 
L 132.052306 -88.487257 
L 161.163816 -101.069716 
L 181.81876 -111.745089 
L 197.83998 -115.482453 
L 210.930269 -122.560028 
L 221.997952 -129.727524 
L 231.585214 -135.162157 
L 240.041779 -136.958715 
L 247.606434 -138.689704 
L 254.449496 -146.954969 
L 260.696723 -154.368837 
L 266.443615 -155.70923 
L 271.764406 -156.28529 
L 276.717943 -158.784359 
L 281.351668 -163.375978 
L 285.704383 -164.431619 
L 289.808233 -164.65921 
L 293.690141 -169.846676 
L 297.372888 -174.328609 
L 300.875915 -177.585455 
L 304.21595 -178.29265 
L 307.40749 -185.783302 
L 310.463177 -186.524218 
L 313.394107 -187.004736 
L 316.210069 -187.131189 
L 318.919742 -190.967841 
L 321.530859 -191.953231 
L 324.05034 -196.484902 
L 326.484397 -197.237995 
L 328.838635 -198.441633 
L 331.118122 -199.300571 
L 333.32746 -198.881873 
L 335.470837 -198.973668 
L 337.552079 -199.207839 
L 339.574687 -201.615114 
L 341.541873 -203.405114 
L 343.456595 -203.835052 
L 345.321578 -205.027449 
L 347.139342 -206.545812 
L 348.912217 -206.82588 
L 350.642369 -207.785043 
L 352.331807 -208.149412 
L 353.982404 -208.599957 
L 355.595906 -210.235405 
L 357.173944 -214.996563 
L 358.718042 -212.689514 
L 360.229631 -215.236658 
L 361.710051 -215.617584 
L 363.160561 -216.405334 
L 364.582347 -217.210881 
L 365.976523 -218.744231 
L 367.344142 -217.027268 
L 368.686196 -221.351956 
L 370.003624 -221.905535 
L 371.297313 -223.605614 
L 372.568104 -223.673992 
L 373.816794 -228.264674 
L 375.044136 -229.247254 
L 376.250851 -230.797464 
L 377.437619 -231.012901 
L 378.605089 -232.772928 
L 379.753878 -233.703991 
L 380.884576 -234.079601 
L 381.997743 -234.516095 
L 383.093914 -235.467764 
L 384.1736 -235.656974 
L 385.237291 -236.242401 
L 386.285453 -237.605274 
L 387.318533 -237.707373 
L 388.336959 -238.085067 
L 389.341141 -238.57254 
L 390.331471 -238.860429 
L 391.308327 -239.362491 
L 392.272071 -239.530157 
L 393.223049 -239.622889 
L 394.161596 -239.670472 
L 395.088032 -239.8964 
L 396.002666 -240.029409 
L 396.905795 -239.651786 
L 397.797705 -240.189582 
L 398.678671 -239.817719 
L 399.548958 -240.359122 
L 400.408823 -240.383475 
L 401.258511 -240.560508 
L 402.098261 -243.895099 
L 402.928303 -244.024361 
L 403.748858 -244.467412 
L 404.560142 -244.572321 
L 405.36236 -245.976408 
L 406.155714 -246.145971 
L 406.940398 -248.958806 
L 406.940398 -263.722799 
L 406.940398 -263.722799 
L 406.155714 -263.634751 
L 405.36236 -263.326582 
L 404.560142 -260.042573 
L 403.748858 -260.338564 
L 402.928303 -258.636659 
L 402.098261 -258.246015 
L 401.258511 -258.202928 
L 400.408823 -257.577224 
L 399.548958 -257.429228 
L 398.678671 -257.107946 
L 397.797705 -257.021771 
L 396.905795 -255.80502 
L 396.002666 -255.649577 
L 395.088032 -255.528698 
L 394.161596 -259.075916 
L 393.223049 -254.815883 
L 392.272071 -254.370022 
L 391.308327 -254.107751 
L 390.331471 -254.538625 
L 389.341141 -253.597259 
L 388.336959 -253.46425 
L 387.318533 -252.584705 
L 386.285453 -251.479419 
L 385.237291 -251.189984 
L 384.1736 -250.850905 
L 383.093914 -250.308566 
L 381.997743 -249.987283 
L 380.884576 -249.736252 
L 379.753878 -249.473045 
L 378.605089 -247.415855 
L 377.437619 -247.284017 
L 376.250851 -251.026065 
L 375.044136 -246.518747 
L 373.816794 -245.623279 
L 372.568104 -245.176481 
L 371.297313 -244.740923 
L 370.003624 -244.268835 
L 368.686196 -245.958166 
L 367.344142 -243.523236 
L 365.976523 -243.096109 
L 364.582347 -242.430127 
L 363.160561 -240.619519 
L 361.710051 -241.986139 
L 360.229631 -241.746349 
L 358.718042 -241.461597 
L 357.173944 -241.231173 
L 355.595906 -242.662424 
L 353.982404 -240.705694 
L 352.331807 -240.111697 
L 350.642369 -239.139561 
L 348.912217 -240.361604 
L 347.139342 -238.225358 
L 345.321578 -239.172345 
L 343.456595 -237.517226 
L 341.541873 -236.628314 
L 339.574687 -235.377843 
L 337.552079 -234.232842 
L 335.470837 -231.300463 
L 333.32746 -230.484612 
L 331.118122 -229.830808 
L 328.838635 -229.941336 
L 326.484397 -228.530692 
L 324.05034 -228.007086 
L 321.530859 -226.789235 
L 318.919742 -226.381942 
L 316.210069 -225.820869 
L 313.394107 -224.7109 
L 310.463177 -224.51888 
L 307.40749 -223.087629 
L 304.21595 -222.187477 
L 300.875915 -221.861511 
L 297.372888 -220.903659 
L 293.690141 -220.214823 
L 289.808233 -217.564011 
L 285.704383 -214.757709 
L 281.351668 -213.119451 
L 276.717943 -210.407755 
L 271.764406 -207.356042 
L 266.443615 -204.678066 
L 260.696723 -202.73726 
L 254.449496 -197.974228 
L 247.606434 -193.665487 
L 240.041779 -186.852057 
L 231.585214 -173.43314 
L 221.997952 -165.321468 
L 210.930269 -159.337939 
L 197.83998 -148.95762 
L 181.81876 -120.163057 
L 161.163816 -115.653866 
L 132.052306 -94.633769 
L 82.285852 -67.983272 
z
" id="m3d81fbe305" style="stroke:#98df8a;stroke-opacity:0.2;"/>
    </defs>
    <g clip-path="url(#p26f5eac0ea)">
     <use style="fill:#98df8a;fill-opacity:0.2;stroke:#98df8a;stroke-opacity:0.2;" x="0" xlink:href="#m3d81fbe305" y="325.986375"/>
    </g>
   </g>
   <g id="matplotlib.axis_1">
    <g id="xtick_1">
     <g id="line2d_1">
      <defs>
       <path d="M 0 0 
L 0 3.5 
" id="m3622a553ad" style="stroke:#000000;stroke-width:0.8;"/>
      </defs>
      <g>
       <use style="stroke:#000000;stroke-width:0.8;" x="82.285852" xlink:href="#m3622a553ad" y="288.430125"/>
      </g>
     </g>
     <g id="text_1">
      <!-- 14m -->
      <g transform="translate(71.05304 303.028562)scale(0.1 -0.1)">
       <defs>
        <path d="M 794 531 
L 1825 531 
L 1825 4091 
L 703 3866 
L 703 4441 
L 1819 4666 
L 2450 4666 
L 2450 531 
L 3481 531 
L 3481 0 
L 794 0 
L 794 531 
z
" id="DejaVuSans-31" transform="scale(0.015625)"/>
        <path d="M 2419 4116 
L 825 1625 
L 2419 1625 
L 2419 4116 
z
M 2253 4666 
L 3047 4666 
L 3047 1625 
L 3713 1625 
L 3713 1100 
L 3047 1100 
L 3047 0 
L 2419 0 
L 2419 1100 
L 313 1100 
L 313 1709 
L 2253 4666 
z
" id="DejaVuSans-34" transform="scale(0.015625)"/>
        <path d="M 3328 2828 
Q 3544 3216 3844 3400 
Q 4144 3584 4550 3584 
Q 5097 3584 5394 3201 
Q 5691 2819 5691 2113 
L 5691 0 
L 5113 0 
L 5113 2094 
Q 5113 2597 4934 2840 
Q 4756 3084 4391 3084 
Q 3944 3084 3684 2787 
Q 3425 2491 3425 1978 
L 3425 0 
L 2847 0 
L 2847 2094 
Q 2847 2600 2669 2842 
Q 2491 3084 2119 3084 
Q 1678 3084 1418 2786 
Q 1159 2488 1159 1978 
L 1159 0 
L 581 0 
L 581 3500 
L 1159 3500 
L 1159 2956 
Q 1356 3278 1631 3431 
Q 1906 3584 2284 3584 
Q 2666 3584 2933 3390 
Q 3200 3197 3328 2828 
z
" id="DejaVuSans-6d" transform="scale(0.015625)"/>
       </defs>
       <use xlink:href="#DejaVuSans-31"/>
       <use x="63.623047" xlink:href="#DejaVuSans-34"/>
       <use x="127.246094" xlink:href="#DejaVuSans-6d"/>
      </g>
     </g>
    </g>
    <g id="xtick_2">
     <g id="line2d_2">
      <g>
       <use style="stroke:#000000;stroke-width:0.8;" x="147.216935" xlink:href="#m3622a553ad" y="288.430125"/>
      </g>
     </g>
     <g id="text_2">
      <!-- 37m -->
      <g transform="translate(135.984122 303.028562)scale(0.1 -0.1)">
       <defs>
        <path d="M 2597 2516 
Q 3050 2419 3304 2112 
Q 3559 1806 3559 1356 
Q 3559 666 3084 287 
Q 2609 -91 1734 -91 
Q 1441 -91 1130 -33 
Q 819 25 488 141 
L 488 750 
Q 750 597 1062 519 
Q 1375 441 1716 441 
Q 2309 441 2620 675 
Q 2931 909 2931 1356 
Q 2931 1769 2642 2001 
Q 2353 2234 1838 2234 
L 1294 2234 
L 1294 2753 
L 1863 2753 
Q 2328 2753 2575 2939 
Q 2822 3125 2822 3475 
Q 2822 3834 2567 4026 
Q 2313 4219 1838 4219 
Q 1578 4219 1281 4162 
Q 984 4106 628 3988 
L 628 4550 
Q 988 4650 1302 4700 
Q 1616 4750 1894 4750 
Q 2613 4750 3031 4423 
Q 3450 4097 3450 3541 
Q 3450 3153 3228 2886 
Q 3006 2619 2597 2516 
z
" id="DejaVuSans-33" transform="scale(0.015625)"/>
        <path d="M 525 4666 
L 3525 4666 
L 3525 4397 
L 1831 0 
L 1172 0 
L 2766 4134 
L 525 4134 
L 525 4666 
z
" id="DejaVuSans-37" transform="scale(0.015625)"/>
       </defs>
       <use xlink:href="#DejaVuSans-33"/>
       <use x="63.623047" xlink:href="#DejaVuSans-37"/>
       <use x="127.246094" xlink:href="#DejaVuSans-6d"/>
      </g>
     </g>
    </g>
    <g id="xtick_3">
     <g id="line2d_3">
      <g>
       <use style="stroke:#000000;stroke-width:0.8;" x="212.148017" xlink:href="#m3622a553ad" y="288.430125"/>
      </g>
     </g>
     <g id="text_3">
      <!-- 1h:31m -->
      <g transform="translate(192.88083 303.028562)scale(0.1 -0.1)">
       <defs>
        <path d="M 3513 2113 
L 3513 0 
L 2938 0 
L 2938 2094 
Q 2938 2591 2744 2837 
Q 2550 3084 2163 3084 
Q 1697 3084 1428 2787 
Q 1159 2491 1159 1978 
L 1159 0 
L 581 0 
L 581 4863 
L 1159 4863 
L 1159 2956 
Q 1366 3272 1645 3428 
Q 1925 3584 2291 3584 
Q 2894 3584 3203 3211 
Q 3513 2838 3513 2113 
z
" id="DejaVuSans-68" transform="scale(0.015625)"/>
        <path d="M 750 794 
L 1409 794 
L 1409 0 
L 750 0 
L 750 794 
z
M 750 3309 
L 1409 3309 
L 1409 2516 
L 750 2516 
L 750 3309 
z
" id="DejaVuSans-3a" transform="scale(0.015625)"/>
       </defs>
       <use xlink:href="#DejaVuSans-31"/>
       <use x="63.623047" xlink:href="#DejaVuSans-68"/>
       <use x="127.001953" xlink:href="#DejaVuSans-3a"/>
       <use x="160.693359" xlink:href="#DejaVuSans-33"/>
       <use x="224.316406" xlink:href="#DejaVuSans-31"/>
       <use x="287.939453" xlink:href="#DejaVuSans-6d"/>
      </g>
     </g>
    </g>
    <g id="xtick_4">
     <g id="line2d_4">
      <g>
       <use style="stroke:#000000;stroke-width:0.8;" x="277.0791" xlink:href="#m3622a553ad" y="288.430125"/>
      </g>
     </g>
     <g id="text_4">
      <!-- 3h:46m -->
      <g transform="translate(257.811912 303.028562)scale(0.1 -0.1)">
       <defs>
        <path d="M 2113 2584 
Q 1688 2584 1439 2293 
Q 1191 2003 1191 1497 
Q 1191 994 1439 701 
Q 1688 409 2113 409 
Q 2538 409 2786 701 
Q 3034 994 3034 1497 
Q 3034 2003 2786 2293 
Q 2538 2584 2113 2584 
z
M 3366 4563 
L 3366 3988 
Q 3128 4100 2886 4159 
Q 2644 4219 2406 4219 
Q 1781 4219 1451 3797 
Q 1122 3375 1075 2522 
Q 1259 2794 1537 2939 
Q 1816 3084 2150 3084 
Q 2853 3084 3261 2657 
Q 3669 2231 3669 1497 
Q 3669 778 3244 343 
Q 2819 -91 2113 -91 
Q 1303 -91 875 529 
Q 447 1150 447 2328 
Q 447 3434 972 4092 
Q 1497 4750 2381 4750 
Q 2619 4750 2861 4703 
Q 3103 4656 3366 4563 
z
" id="DejaVuSans-36" transform="scale(0.015625)"/>
       </defs>
       <use xlink:href="#DejaVuSans-33"/>
       <use x="63.623047" xlink:href="#DejaVuSans-68"/>
       <use x="127.001953" xlink:href="#DejaVuSans-3a"/>
       <use x="160.693359" xlink:href="#DejaVuSans-34"/>
       <use x="224.316406" xlink:href="#DejaVuSans-36"/>
       <use x="287.939453" xlink:href="#DejaVuSans-6d"/>
      </g>
     </g>
    </g>
    <g id="xtick_5">
     <g id="line2d_5">
      <g>
       <use style="stroke:#000000;stroke-width:0.8;" x="342.010182" xlink:href="#m3622a553ad" y="288.430125"/>
      </g>
     </g>
     <g id="text_5">
      <!-- 9h:18m -->
      <g transform="translate(322.742995 303.028562)scale(0.1 -0.1)">
       <defs>
        <path d="M 703 97 
L 703 672 
Q 941 559 1184 500 
Q 1428 441 1663 441 
Q 2288 441 2617 861 
Q 2947 1281 2994 2138 
Q 2813 1869 2534 1725 
Q 2256 1581 1919 1581 
Q 1219 1581 811 2004 
Q 403 2428 403 3163 
Q 403 3881 828 4315 
Q 1253 4750 1959 4750 
Q 2769 4750 3195 4129 
Q 3622 3509 3622 2328 
Q 3622 1225 3098 567 
Q 2575 -91 1691 -91 
Q 1453 -91 1209 -44 
Q 966 3 703 97 
z
M 1959 2075 
Q 2384 2075 2632 2365 
Q 2881 2656 2881 3163 
Q 2881 3666 2632 3958 
Q 2384 4250 1959 4250 
Q 1534 4250 1286 3958 
Q 1038 3666 1038 3163 
Q 1038 2656 1286 2365 
Q 1534 2075 1959 2075 
z
" id="DejaVuSans-39" transform="scale(0.015625)"/>
        <path d="M 2034 2216 
Q 1584 2216 1326 1975 
Q 1069 1734 1069 1313 
Q 1069 891 1326 650 
Q 1584 409 2034 409 
Q 2484 409 2743 651 
Q 3003 894 3003 1313 
Q 3003 1734 2745 1975 
Q 2488 2216 2034 2216 
z
M 1403 2484 
Q 997 2584 770 2862 
Q 544 3141 544 3541 
Q 544 4100 942 4425 
Q 1341 4750 2034 4750 
Q 2731 4750 3128 4425 
Q 3525 4100 3525 3541 
Q 3525 3141 3298 2862 
Q 3072 2584 2669 2484 
Q 3125 2378 3379 2068 
Q 3634 1759 3634 1313 
Q 3634 634 3220 271 
Q 2806 -91 2034 -91 
Q 1263 -91 848 271 
Q 434 634 434 1313 
Q 434 1759 690 2068 
Q 947 2378 1403 2484 
z
M 1172 3481 
Q 1172 3119 1398 2916 
Q 1625 2713 2034 2713 
Q 2441 2713 2670 2916 
Q 2900 3119 2900 3481 
Q 2900 3844 2670 4047 
Q 2441 4250 2034 4250 
Q 1625 4250 1398 4047 
Q 1172 3844 1172 3481 
z
" id="DejaVuSans-38" transform="scale(0.015625)"/>
       </defs>
       <use xlink:href="#DejaVuSans-39"/>
       <use x="63.623047" xlink:href="#DejaVuSans-68"/>
       <use x="127.001953" xlink:href="#DejaVuSans-3a"/>
       <use x="160.693359" xlink:href="#DejaVuSans-31"/>
       <use x="224.316406" xlink:href="#DejaVuSans-38"/>
       <use x="287.939453" xlink:href="#DejaVuSans-6d"/>
      </g>
     </g>
    </g>
    <g id="xtick_6">
     <g id="line2d_6">
      <g>
       <use style="stroke:#000000;stroke-width:0.8;" x="406.941265" xlink:href="#m3622a553ad" y="288.430125"/>
      </g>
     </g>
     <g id="text_6">
      <!-- 23h -->
      <g transform="translate(397.410015 303.028562)scale(0.1 -0.1)">
       <defs>
        <path d="M 1228 531 
L 3431 531 
L 3431 0 
L 469 0 
L 469 531 
Q 828 903 1448 1529 
Q 2069 2156 2228 2338 
Q 2531 2678 2651 2914 
Q 2772 3150 2772 3378 
Q 2772 3750 2511 3984 
Q 2250 4219 1831 4219 
Q 1534 4219 1204 4116 
Q 875 4013 500 3803 
L 500 4441 
Q 881 4594 1212 4672 
Q 1544 4750 1819 4750 
Q 2544 4750 2975 4387 
Q 3406 4025 3406 3419 
Q 3406 3131 3298 2873 
Q 3191 2616 2906 2266 
Q 2828 2175 2409 1742 
Q 1991 1309 1228 531 
z
" id="DejaVuSans-32" transform="scale(0.015625)"/>
       </defs>
       <use xlink:href="#DejaVuSans-32"/>
       <use x="63.623047" xlink:href="#DejaVuSans-33"/>
       <use x="127.246094" xlink:href="#DejaVuSans-68"/>
      </g>
     </g>
    </g>
    <g id="xtick_7">
     <g id="line2d_7">
      <defs>
       <path d="M 0 0 
L 0 2 
" id="m5172d8f8b8" style="stroke:#000000;stroke-width:0.6;"/>
      </defs>
      <g>
       <use style="stroke:#000000;stroke-width:0.6;" x="73.829288" xlink:href="#m5172d8f8b8" y="288.430125"/>
      </g>
     </g>
    </g>
    <g id="xtick_8">
     <g id="line2d_8">
      <g>
       <use style="stroke:#000000;stroke-width:0.6;" x="139.616961" xlink:href="#m5172d8f8b8" y="288.430125"/>
      </g>
     </g>
    </g>
    <g id="xtick_9">
     <g id="line2d_9">
      <g>
       <use style="stroke:#000000;stroke-width:0.6;" x="168.72847" xlink:href="#m5172d8f8b8" y="288.430125"/>
      </g>
     </g>
    </g>
    <g id="xtick_10">
     <g id="line2d_10">
      <g>
       <use style="stroke:#000000;stroke-width:0.6;" x="189.383415" xlink:href="#m5172d8f8b8" y="288.430125"/>
      </g>
     </g>
    </g>
    <g id="xtick_11">
     <g id="line2d_11">
      <g>
       <use style="stroke:#000000;stroke-width:0.6;" x="205.404635" xlink:href="#m5172d8f8b8" y="288.430125"/>
      </g>
     </g>
    </g>
    <g id="xtick_12">
     <g id="line2d_12">
      <g>
       <use style="stroke:#000000;stroke-width:0.6;" x="218.494924" xlink:href="#m5172d8f8b8" y="288.430125"/>
      </g>
     </g>
    </g>
    <g id="xtick_13">
     <g id="line2d_13">
      <g>
       <use style="stroke:#000000;stroke-width:0.6;" x="229.562607" xlink:href="#m5172d8f8b8" y="288.430125"/>
      </g>
     </g>
    </g>
    <g id="xtick_14">
     <g id="line2d_14">
      <g>
       <use style="stroke:#000000;stroke-width:0.6;" x="239.149869" xlink:href="#m5172d8f8b8" y="288.430125"/>
      </g>
     </g>
    </g>
    <g id="xtick_15">
     <g id="line2d_15">
      <g>
       <use style="stroke:#000000;stroke-width:0.6;" x="247.606434" xlink:href="#m5172d8f8b8" y="288.430125"/>
      </g>
     </g>
    </g>
    <g id="xtick_16">
     <g id="line2d_16">
      <g>
       <use style="stroke:#000000;stroke-width:0.6;" x="304.937543" xlink:href="#m5172d8f8b8" y="288.430125"/>
      </g>
     </g>
    </g>
    <g id="xtick_17">
     <g id="line2d_17">
      <g>
       <use style="stroke:#000000;stroke-width:0.6;" x="334.049052" xlink:href="#m5172d8f8b8" y="288.430125"/>
      </g>
     </g>
    </g>
    <g id="xtick_18">
     <g id="line2d_18">
      <g>
       <use style="stroke:#000000;stroke-width:0.6;" x="354.703996" xlink:href="#m5172d8f8b8" y="288.430125"/>
      </g>
     </g>
    </g>
    <g id="xtick_19">
     <g id="line2d_19">
      <g>
       <use style="stroke:#000000;stroke-width:0.6;" x="370.725216" xlink:href="#m5172d8f8b8" y="288.430125"/>
      </g>
     </g>
    </g>
    <g id="xtick_20">
     <g id="line2d_20">
      <g>
       <use style="stroke:#000000;stroke-width:0.6;" x="383.815506" xlink:href="#m5172d8f8b8" y="288.430125"/>
      </g>
     </g>
    </g>
    <g id="xtick_21">
     <g id="line2d_21">
      <g>
       <use style="stroke:#000000;stroke-width:0.6;" x="394.883188" xlink:href="#m5172d8f8b8" y="288.430125"/>
      </g>
     </g>
    </g>
    <g id="xtick_22">
     <g id="line2d_22">
      <g>
       <use style="stroke:#000000;stroke-width:0.6;" x="404.47045" xlink:href="#m5172d8f8b8" y="288.430125"/>
      </g>
     </g>
    </g>
    <g id="xtick_23">
     <g id="line2d_23">
      <g>
       <use style="stroke:#000000;stroke-width:0.6;" x="412.927015" xlink:href="#m5172d8f8b8" y="288.430125"/>
      </g>
     </g>
    </g>
    <g id="text_7">
     <!-- Time (hour:minute) -->
     <g transform="translate(196.206094 316.706687)scale(0.1 -0.1)">
      <defs>
       <path d="M -19 4666 
L 3928 4666 
L 3928 4134 
L 2272 4134 
L 2272 0 
L 1638 0 
L 1638 4134 
L -19 4134 
L -19 4666 
z
" id="DejaVuSans-54" transform="scale(0.015625)"/>
       <path d="M 603 3500 
L 1178 3500 
L 1178 0 
L 603 0 
L 603 3500 
z
M 603 4863 
L 1178 4863 
L 1178 4134 
L 603 4134 
L 603 4863 
z
" id="DejaVuSans-69" transform="scale(0.015625)"/>
       <path d="M 3597 1894 
L 3597 1613 
L 953 1613 
Q 991 1019 1311 708 
Q 1631 397 2203 397 
Q 2534 397 2845 478 
Q 3156 559 3463 722 
L 3463 178 
Q 3153 47 2828 -22 
Q 2503 -91 2169 -91 
Q 1331 -91 842 396 
Q 353 884 353 1716 
Q 353 2575 817 3079 
Q 1281 3584 2069 3584 
Q 2775 3584 3186 3129 
Q 3597 2675 3597 1894 
z
M 3022 2063 
Q 3016 2534 2758 2815 
Q 2500 3097 2075 3097 
Q 1594 3097 1305 2825 
Q 1016 2553 972 2059 
L 3022 2063 
z
" id="DejaVuSans-65" transform="scale(0.015625)"/>
       <path id="DejaVuSans-20" transform="scale(0.015625)"/>
       <path d="M 1984 4856 
Q 1566 4138 1362 3434 
Q 1159 2731 1159 2009 
Q 1159 1288 1364 580 
Q 1569 -128 1984 -844 
L 1484 -844 
Q 1016 -109 783 600 
Q 550 1309 550 2009 
Q 550 2706 781 3412 
Q 1013 4119 1484 4856 
L 1984 4856 
z
" id="DejaVuSans-28" transform="scale(0.015625)"/>
       <path d="M 1959 3097 
Q 1497 3097 1228 2736 
Q 959 2375 959 1747 
Q 959 1119 1226 758 
Q 1494 397 1959 397 
Q 2419 397 2687 759 
Q 2956 1122 2956 1747 
Q 2956 2369 2687 2733 
Q 2419 3097 1959 3097 
z
M 1959 3584 
Q 2709 3584 3137 3096 
Q 3566 2609 3566 1747 
Q 3566 888 3137 398 
Q 2709 -91 1959 -91 
Q 1206 -91 779 398 
Q 353 888 353 1747 
Q 353 2609 779 3096 
Q 1206 3584 1959 3584 
z
" id="DejaVuSans-6f" transform="scale(0.015625)"/>
       <path d="M 544 1381 
L 544 3500 
L 1119 3500 
L 1119 1403 
Q 1119 906 1312 657 
Q 1506 409 1894 409 
Q 2359 409 2629 706 
Q 2900 1003 2900 1516 
L 2900 3500 
L 3475 3500 
L 3475 0 
L 2900 0 
L 2900 538 
Q 2691 219 2414 64 
Q 2138 -91 1772 -91 
Q 1169 -91 856 284 
Q 544 659 544 1381 
z
M 1991 3584 
L 1991 3584 
z
" id="DejaVuSans-75" transform="scale(0.015625)"/>
       <path d="M 2631 2963 
Q 2534 3019 2420 3045 
Q 2306 3072 2169 3072 
Q 1681 3072 1420 2755 
Q 1159 2438 1159 1844 
L 1159 0 
L 581 0 
L 581 3500 
L 1159 3500 
L 1159 2956 
Q 1341 3275 1631 3429 
Q 1922 3584 2338 3584 
Q 2397 3584 2469 3576 
Q 2541 3569 2628 3553 
L 2631 2963 
z
" id="DejaVuSans-72" transform="scale(0.015625)"/>
       <path d="M 3513 2113 
L 3513 0 
L 2938 0 
L 2938 2094 
Q 2938 2591 2744 2837 
Q 2550 3084 2163 3084 
Q 1697 3084 1428 2787 
Q 1159 2491 1159 1978 
L 1159 0 
L 581 0 
L 581 3500 
L 1159 3500 
L 1159 2956 
Q 1366 3272 1645 3428 
Q 1925 3584 2291 3584 
Q 2894 3584 3203 3211 
Q 3513 2838 3513 2113 
z
" id="DejaVuSans-6e" transform="scale(0.015625)"/>
       <path d="M 1172 4494 
L 1172 3500 
L 2356 3500 
L 2356 3053 
L 1172 3053 
L 1172 1153 
Q 1172 725 1289 603 
Q 1406 481 1766 481 
L 2356 481 
L 2356 0 
L 1766 0 
Q 1100 0 847 248 
Q 594 497 594 1153 
L 594 3053 
L 172 3053 
L 172 3500 
L 594 3500 
L 594 4494 
L 1172 4494 
z
" id="DejaVuSans-74" transform="scale(0.015625)"/>
       <path d="M 513 4856 
L 1013 4856 
Q 1481 4119 1714 3412 
Q 1947 2706 1947 2009 
Q 1947 1309 1714 600 
Q 1481 -109 1013 -844 
L 513 -844 
Q 928 -128 1133 580 
Q 1338 1288 1338 2009 
Q 1338 2731 1133 3434 
Q 928 4138 513 4856 
z
" id="DejaVuSans-29" transform="scale(0.015625)"/>
      </defs>
      <use xlink:href="#DejaVuSans-54"/>
      <use x="57.958984" xlink:href="#DejaVuSans-69"/>
      <use x="85.742188" xlink:href="#DejaVuSans-6d"/>
      <use x="183.154297" xlink:href="#DejaVuSans-65"/>
      <use x="244.677734" xlink:href="#DejaVuSans-20"/>
      <use x="276.464844" xlink:href="#DejaVuSans-28"/>
      <use x="315.478516" xlink:href="#DejaVuSans-68"/>
      <use x="378.857422" xlink:href="#DejaVuSans-6f"/>
      <use x="440.039062" xlink:href="#DejaVuSans-75"/>
      <use x="503.417969" xlink:href="#DejaVuSans-72"/>
      <use x="542.78125" xlink:href="#DejaVuSans-3a"/>
      <use x="576.472656" xlink:href="#DejaVuSans-6d"/>
      <use x="673.884766" xlink:href="#DejaVuSans-69"/>
      <use x="701.667969" xlink:href="#DejaVuSans-6e"/>
      <use x="765.046875" xlink:href="#DejaVuSans-75"/>
      <use x="828.425781" xlink:href="#DejaVuSans-74"/>
      <use x="867.634766" xlink:href="#DejaVuSans-65"/>
      <use x="929.158203" xlink:href="#DejaVuSans-29"/>
     </g>
    </g>
   </g>
   <g id="matplotlib.axis_2">
    <g id="ytick_1">
     <g id="line2d_24">
      <defs>
       <path d="M 0 0 
L -3.5 0 
" id="mc58ff91ff2" style="stroke:#000000;stroke-width:0.8;"/>
      </defs>
      <g>
       <use style="stroke:#000000;stroke-width:0.8;" x="66.053125" xlink:href="#mc58ff91ff2" y="265.372923"/>
      </g>
     </g>
     <g id="text_8">
      <!-- 360000 -->
      <g transform="translate(20.878125 269.172142)scale(0.1 -0.1)">
       <defs>
        <path d="M 2034 4250 
Q 1547 4250 1301 3770 
Q 1056 3291 1056 2328 
Q 1056 1369 1301 889 
Q 1547 409 2034 409 
Q 2525 409 2770 889 
Q 3016 1369 3016 2328 
Q 3016 3291 2770 3770 
Q 2525 4250 2034 4250 
z
M 2034 4750 
Q 2819 4750 3233 4129 
Q 3647 3509 3647 2328 
Q 3647 1150 3233 529 
Q 2819 -91 2034 -91 
Q 1250 -91 836 529 
Q 422 1150 422 2328 
Q 422 3509 836 4129 
Q 1250 4750 2034 4750 
z
" id="DejaVuSans-30" transform="scale(0.015625)"/>
       </defs>
       <use xlink:href="#DejaVuSans-33"/>
       <use x="63.623047" xlink:href="#DejaVuSans-36"/>
       <use x="127.246094" xlink:href="#DejaVuSans-30"/>
       <use x="190.869141" xlink:href="#DejaVuSans-30"/>
       <use x="254.492188" xlink:href="#DejaVuSans-30"/>
       <use x="318.115234" xlink:href="#DejaVuSans-30"/>
      </g>
     </g>
    </g>
    <g id="ytick_2">
     <g id="line2d_25">
      <g>
       <use style="stroke:#000000;stroke-width:0.8;" x="66.053125" xlink:href="#mc58ff91ff2" y="227.905614"/>
      </g>
     </g>
     <g id="text_9">
      <!-- 380000 -->
      <g transform="translate(20.878125 231.704833)scale(0.1 -0.1)">
       <use xlink:href="#DejaVuSans-33"/>
       <use x="63.623047" xlink:href="#DejaVuSans-38"/>
       <use x="127.246094" xlink:href="#DejaVuSans-30"/>
       <use x="190.869141" xlink:href="#DejaVuSans-30"/>
       <use x="254.492188" xlink:href="#DejaVuSans-30"/>
       <use x="318.115234" xlink:href="#DejaVuSans-30"/>
      </g>
     </g>
    </g>
    <g id="ytick_3">
     <g id="line2d_26">
      <g>
       <use style="stroke:#000000;stroke-width:0.8;" x="66.053125" xlink:href="#mc58ff91ff2" y="190.438305"/>
      </g>
     </g>
     <g id="text_10">
      <!-- 400000 -->
      <g transform="translate(20.878125 194.237523)scale(0.1 -0.1)">
       <use xlink:href="#DejaVuSans-34"/>
       <use x="63.623047" xlink:href="#DejaVuSans-30"/>
       <use x="127.246094" xlink:href="#DejaVuSans-30"/>
       <use x="190.869141" xlink:href="#DejaVuSans-30"/>
       <use x="254.492188" xlink:href="#DejaVuSans-30"/>
       <use x="318.115234" xlink:href="#DejaVuSans-30"/>
      </g>
     </g>
    </g>
    <g id="ytick_4">
     <g id="line2d_27">
      <g>
       <use style="stroke:#000000;stroke-width:0.8;" x="66.053125" xlink:href="#mc58ff91ff2" y="152.970995"/>
      </g>
     </g>
     <g id="text_11">
      <!-- 420000 -->
      <g transform="translate(20.878125 156.770214)scale(0.1 -0.1)">
       <use xlink:href="#DejaVuSans-34"/>
       <use x="63.623047" xlink:href="#DejaVuSans-32"/>
       <use x="127.246094" xlink:href="#DejaVuSans-30"/>
       <use x="190.869141" xlink:href="#DejaVuSans-30"/>
       <use x="254.492188" xlink:href="#DejaVuSans-30"/>
       <use x="318.115234" xlink:href="#DejaVuSans-30"/>
      </g>
     </g>
    </g>
    <g id="ytick_5">
     <g id="line2d_28">
      <g>
       <use style="stroke:#000000;stroke-width:0.8;" x="66.053125" xlink:href="#mc58ff91ff2" y="115.503686"/>
      </g>
     </g>
     <g id="text_12">
      <!-- 440000 -->
      <g transform="translate(20.878125 119.302905)scale(0.1 -0.1)">
       <use xlink:href="#DejaVuSans-34"/>
       <use x="63.623047" xlink:href="#DejaVuSans-34"/>
       <use x="127.246094" xlink:href="#DejaVuSans-30"/>
       <use x="190.869141" xlink:href="#DejaVuSans-30"/>
       <use x="254.492188" xlink:href="#DejaVuSans-30"/>
       <use x="318.115234" xlink:href="#DejaVuSans-30"/>
      </g>
     </g>
    </g>
    <g id="ytick_6">
     <g id="line2d_29">
      <g>
       <use style="stroke:#000000;stroke-width:0.8;" x="66.053125" xlink:href="#mc58ff91ff2" y="78.036377"/>
      </g>
     </g>
     <g id="text_13">
      <!-- 460000 -->
      <g transform="translate(20.878125 81.835595)scale(0.1 -0.1)">
       <use xlink:href="#DejaVuSans-34"/>
       <use x="63.623047" xlink:href="#DejaVuSans-36"/>
       <use x="127.246094" xlink:href="#DejaVuSans-30"/>
       <use x="190.869141" xlink:href="#DejaVuSans-30"/>
       <use x="254.492188" xlink:href="#DejaVuSans-30"/>
       <use x="318.115234" xlink:href="#DejaVuSans-30"/>
      </g>
     </g>
    </g>
    <g id="ytick_7">
     <g id="line2d_30">
      <g>
       <use style="stroke:#000000;stroke-width:0.8;" x="66.053125" xlink:href="#mc58ff91ff2" y="40.569067"/>
      </g>
     </g>
     <g id="text_14">
      <!-- 480000 -->
      <g transform="translate(20.878125 44.368286)scale(0.1 -0.1)">
       <use xlink:href="#DejaVuSans-34"/>
       <use x="63.623047" xlink:href="#DejaVuSans-38"/>
       <use x="127.246094" xlink:href="#DejaVuSans-30"/>
       <use x="190.869141" xlink:href="#DejaVuSans-30"/>
       <use x="254.492188" xlink:href="#DejaVuSans-30"/>
       <use x="318.115234" xlink:href="#DejaVuSans-30"/>
      </g>
     </g>
    </g>
    <g id="text_15">
     <!-- Code region coverage -->
     <g transform="translate(14.798438 210.379594)rotate(-90)scale(0.1 -0.1)">
      <defs>
       <path d="M 4122 4306 
L 4122 3641 
Q 3803 3938 3442 4084 
Q 3081 4231 2675 4231 
Q 1875 4231 1450 3742 
Q 1025 3253 1025 2328 
Q 1025 1406 1450 917 
Q 1875 428 2675 428 
Q 3081 428 3442 575 
Q 3803 722 4122 1019 
L 4122 359 
Q 3791 134 3420 21 
Q 3050 -91 2638 -91 
Q 1578 -91 968 557 
Q 359 1206 359 2328 
Q 359 3453 968 4101 
Q 1578 4750 2638 4750 
Q 3056 4750 3426 4639 
Q 3797 4528 4122 4306 
z
" id="DejaVuSans-43" transform="scale(0.015625)"/>
       <path d="M 2906 2969 
L 2906 4863 
L 3481 4863 
L 3481 0 
L 2906 0 
L 2906 525 
Q 2725 213 2448 61 
Q 2172 -91 1784 -91 
Q 1150 -91 751 415 
Q 353 922 353 1747 
Q 353 2572 751 3078 
Q 1150 3584 1784 3584 
Q 2172 3584 2448 3432 
Q 2725 3281 2906 2969 
z
M 947 1747 
Q 947 1113 1208 752 
Q 1469 391 1925 391 
Q 2381 391 2643 752 
Q 2906 1113 2906 1747 
Q 2906 2381 2643 2742 
Q 2381 3103 1925 3103 
Q 1469 3103 1208 2742 
Q 947 2381 947 1747 
z
" id="DejaVuSans-64" transform="scale(0.015625)"/>
       <path d="M 2906 1791 
Q 2906 2416 2648 2759 
Q 2391 3103 1925 3103 
Q 1463 3103 1205 2759 
Q 947 2416 947 1791 
Q 947 1169 1205 825 
Q 1463 481 1925 481 
Q 2391 481 2648 825 
Q 2906 1169 2906 1791 
z
M 3481 434 
Q 3481 -459 3084 -895 
Q 2688 -1331 1869 -1331 
Q 1566 -1331 1297 -1286 
Q 1028 -1241 775 -1147 
L 775 -588 
Q 1028 -725 1275 -790 
Q 1522 -856 1778 -856 
Q 2344 -856 2625 -561 
Q 2906 -266 2906 331 
L 2906 616 
Q 2728 306 2450 153 
Q 2172 0 1784 0 
Q 1141 0 747 490 
Q 353 981 353 1791 
Q 353 2603 747 3093 
Q 1141 3584 1784 3584 
Q 2172 3584 2450 3431 
Q 2728 3278 2906 2969 
L 2906 3500 
L 3481 3500 
L 3481 434 
z
" id="DejaVuSans-67" transform="scale(0.015625)"/>
       <path d="M 3122 3366 
L 3122 2828 
Q 2878 2963 2633 3030 
Q 2388 3097 2138 3097 
Q 1578 3097 1268 2742 
Q 959 2388 959 1747 
Q 959 1106 1268 751 
Q 1578 397 2138 397 
Q 2388 397 2633 464 
Q 2878 531 3122 666 
L 3122 134 
Q 2881 22 2623 -34 
Q 2366 -91 2075 -91 
Q 1284 -91 818 406 
Q 353 903 353 1747 
Q 353 2603 823 3093 
Q 1294 3584 2113 3584 
Q 2378 3584 2631 3529 
Q 2884 3475 3122 3366 
z
" id="DejaVuSans-63" transform="scale(0.015625)"/>
       <path d="M 191 3500 
L 800 3500 
L 1894 563 
L 2988 3500 
L 3597 3500 
L 2284 0 
L 1503 0 
L 191 3500 
z
" id="DejaVuSans-76" transform="scale(0.015625)"/>
       <path d="M 2194 1759 
Q 1497 1759 1228 1600 
Q 959 1441 959 1056 
Q 959 750 1161 570 
Q 1363 391 1709 391 
Q 2188 391 2477 730 
Q 2766 1069 2766 1631 
L 2766 1759 
L 2194 1759 
z
M 3341 1997 
L 3341 0 
L 2766 0 
L 2766 531 
Q 2569 213 2275 61 
Q 1981 -91 1556 -91 
Q 1019 -91 701 211 
Q 384 513 384 1019 
Q 384 1609 779 1909 
Q 1175 2209 1959 2209 
L 2766 2209 
L 2766 2266 
Q 2766 2663 2505 2880 
Q 2244 3097 1772 3097 
Q 1472 3097 1187 3025 
Q 903 2953 641 2809 
L 641 3341 
Q 956 3463 1253 3523 
Q 1550 3584 1831 3584 
Q 2591 3584 2966 3190 
Q 3341 2797 3341 1997 
z
" id="DejaVuSans-61" transform="scale(0.015625)"/>
      </defs>
      <use xlink:href="#DejaVuSans-43"/>
      <use x="69.824219" xlink:href="#DejaVuSans-6f"/>
      <use x="131.005859" xlink:href="#DejaVuSans-64"/>
      <use x="194.482422" xlink:href="#DejaVuSans-65"/>
      <use x="256.005859" xlink:href="#DejaVuSans-20"/>
      <use x="287.792969" xlink:href="#DejaVuSans-72"/>
      <use x="326.65625" xlink:href="#DejaVuSans-65"/>
      <use x="388.179688" xlink:href="#DejaVuSans-67"/>
      <use x="451.65625" xlink:href="#DejaVuSans-69"/>
      <use x="479.439453" xlink:href="#DejaVuSans-6f"/>
      <use x="540.621094" xlink:href="#DejaVuSans-6e"/>
      <use x="604" xlink:href="#DejaVuSans-20"/>
      <use x="635.787109" xlink:href="#DejaVuSans-63"/>
      <use x="690.767578" xlink:href="#DejaVuSans-6f"/>
      <use x="751.949219" xlink:href="#DejaVuSans-76"/>
      <use x="811.128906" xlink:href="#DejaVuSans-65"/>
      <use x="872.652344" xlink:href="#DejaVuSans-72"/>
      <use x="913.765625" xlink:href="#DejaVuSans-61"/>
      <use x="975.044922" xlink:href="#DejaVuSans-67"/>
      <use x="1038.521484" xlink:href="#DejaVuSans-65"/>
     </g>
    </g>
   </g>
   <g id="line2d_31">
    <path clip-path="url(#p26f5eac0ea)" d="M 82.285852 273.725323 
L 132.052306 249.104617 
L 161.163816 231.325442 
L 181.81876 215.027163 
L 197.83998 208.370159 
L 210.930269 203.18843 
L 221.997952 195.326852 
L 231.585214 193.340148 
L 240.041779 186.640056 
L 247.606434 181.05368 
L 254.449496 175.96843 
L 260.696723 175.293081 
L 266.443615 172.755608 
L 271.764406 168.362566 
L 276.717943 164.861246 
L 281.351668 163.948917 
L 285.704383 159.386335 
L 289.808233 156.444215 
L 293.690141 149.242061 
L 297.372888 144.797502 
L 300.875915 143.566701 
L 304.21595 143.133016 
L 307.40749 139.738478 
L 310.463177 137.196321 
L 313.394107 132.511034 
L 316.210069 131.132237 
L 318.919742 124.806819 
L 321.530859 121.308309 
L 324.05034 119.881741 
L 326.484397 117.883797 
L 328.838635 115.425005 
L 331.118122 113.322152 
L 333.32746 112.248713 
L 335.470837 109.657849 
L 337.552079 106.778486 
L 339.574687 105.417486 
L 341.541873 104.469563 
L 343.456595 103.723027 
L 345.321578 102.817255 
L 347.139342 101.872142 
L 348.912217 100.013764 
L 350.642369 99.194166 
L 352.331807 97.544668 
L 353.982404 96.334474 
L 355.595906 94.936943 
L 357.173944 94.831098 
L 358.718042 94.619408 
L 360.229631 93.043907 
L 361.710051 91.011306 
L 363.160561 90.562635 
L 364.582347 87.718866 
L 365.976523 86.642618 
L 367.344142 85.841754 
L 368.686196 85.379033 
L 370.003624 83.283673 
L 371.297313 81.775614 
L 372.568104 80.78835 
L 373.816794 80.074598 
L 375.044136 79.936906 
L 376.250851 79.851668 
L 377.437619 79.003033 
L 378.605089 75.471739 
L 379.753878 75.013701 
L 380.884576 74.402984 
L 381.997743 73.818494 
L 383.093914 73.345469 
L 384.1736 72.858394 
L 385.237291 71.722198 
L 386.285453 69.262469 
L 387.318533 68.285509 
L 388.336959 67.925823 
L 389.341141 67.581124 
L 390.331471 66.386853 
L 391.308327 65.500752 
L 392.272071 64.636193 
L 393.223049 64.205319 
L 394.161596 64.026413 
L 395.088032 63.49063 
L 396.002666 62.033152 
L 396.905795 61.377474 
L 397.797705 61.205125 
L 398.678671 60.784554 
L 399.548958 60.313403 
L 400.408823 59.679268 
L 401.258511 59.472261 
L 402.098261 59.034831 
L 402.928303 54.296153 
L 403.748858 53.364153 
L 404.560142 52.941709 
L 405.36236 52.851788 
L 406.155714 52.609187 
L 406.940398 51.836424 
" style="fill:none;stroke:#1f77b4;stroke-linecap:square;stroke-width:1.5;"/>
    <defs>
     <path d="M 0 3 
C 0.795609 3 1.55874 2.683901 2.12132 2.12132 
C 2.683901 1.55874 3 0.795609 3 0 
C 3 -0.795609 2.683901 -1.55874 2.12132 -2.12132 
C 1.55874 -2.683901 0.795609 -3 0 -3 
C -0.795609 -3 -1.55874 -2.683901 -2.12132 -2.12132 
C -2.683901 -1.55874 -3 -0.795609 -3 0 
C -3 0.795609 -2.683901 1.55874 -2.12132 2.12132 
C -1.55874 2.683901 -0.795609 3 0 3 
z
" id="m1e2c7c2d2b" style="stroke:#ffffff;stroke-width:0.75;"/>
    </defs>
    <g clip-path="url(#p26f5eac0ea)">
     <use style="fill:#1f77b4;stroke:#ffffff;stroke-width:0.75;" x="82.285852" xlink:href="#m1e2c7c2d2b" y="273.725323"/>
     <use style="fill:#1f77b4;stroke:#ffffff;stroke-width:0.75;" x="132.052306" xlink:href="#m1e2c7c2d2b" y="249.104617"/>
     <use style="fill:#1f77b4;stroke:#ffffff;stroke-width:0.75;" x="161.163816" xlink:href="#m1e2c7c2d2b" y="231.325442"/>
     <use style="fill:#1f77b4;stroke:#ffffff;stroke-width:0.75;" x="181.81876" xlink:href="#m1e2c7c2d2b" y="215.027163"/>
     <use style="fill:#1f77b4;stroke:#ffffff;stroke-width:0.75;" x="197.83998" xlink:href="#m1e2c7c2d2b" y="208.370159"/>
     <use style="fill:#1f77b4;stroke:#ffffff;stroke-width:0.75;" x="210.930269" xlink:href="#m1e2c7c2d2b" y="203.18843"/>
     <use style="fill:#1f77b4;stroke:#ffffff;stroke-width:0.75;" x="221.997952" xlink:href="#m1e2c7c2d2b" y="195.326852"/>
     <use style="fill:#1f77b4;stroke:#ffffff;stroke-width:0.75;" x="231.585214" xlink:href="#m1e2c7c2d2b" y="193.340148"/>
     <use style="fill:#1f77b4;stroke:#ffffff;stroke-width:0.75;" x="240.041779" xlink:href="#m1e2c7c2d2b" y="186.640056"/>
     <use style="fill:#1f77b4;stroke:#ffffff;stroke-width:0.75;" x="247.606434" xlink:href="#m1e2c7c2d2b" y="181.05368"/>
     <use style="fill:#1f77b4;stroke:#ffffff;stroke-width:0.75;" x="254.449496" xlink:href="#m1e2c7c2d2b" y="175.96843"/>
     <use style="fill:#1f77b4;stroke:#ffffff;stroke-width:0.75;" x="260.696723" xlink:href="#m1e2c7c2d2b" y="175.293081"/>
     <use style="fill:#1f77b4;stroke:#ffffff;stroke-width:0.75;" x="266.443615" xlink:href="#m1e2c7c2d2b" y="172.755608"/>
     <use style="fill:#1f77b4;stroke:#ffffff;stroke-width:0.75;" x="271.764406" xlink:href="#m1e2c7c2d2b" y="168.362566"/>
     <use style="fill:#1f77b4;stroke:#ffffff;stroke-width:0.75;" x="276.717943" xlink:href="#m1e2c7c2d2b" y="164.861246"/>
     <use style="fill:#1f77b4;stroke:#ffffff;stroke-width:0.75;" x="281.351668" xlink:href="#m1e2c7c2d2b" y="163.948917"/>
     <use style="fill:#1f77b4;stroke:#ffffff;stroke-width:0.75;" x="285.704383" xlink:href="#m1e2c7c2d2b" y="159.386335"/>
     <use style="fill:#1f77b4;stroke:#ffffff;stroke-width:0.75;" x="289.808233" xlink:href="#m1e2c7c2d2b" y="156.444215"/>
     <use style="fill:#1f77b4;stroke:#ffffff;stroke-width:0.75;" x="293.690141" xlink:href="#m1e2c7c2d2b" y="149.242061"/>
     <use style="fill:#1f77b4;stroke:#ffffff;stroke-width:0.75;" x="297.372888" xlink:href="#m1e2c7c2d2b" y="144.797502"/>
     <use style="fill:#1f77b4;stroke:#ffffff;stroke-width:0.75;" x="300.875915" xlink:href="#m1e2c7c2d2b" y="143.566701"/>
     <use style="fill:#1f77b4;stroke:#ffffff;stroke-width:0.75;" x="304.21595" xlink:href="#m1e2c7c2d2b" y="143.133016"/>
     <use style="fill:#1f77b4;stroke:#ffffff;stroke-width:0.75;" x="307.40749" xlink:href="#m1e2c7c2d2b" y="139.738478"/>
     <use style="fill:#1f77b4;stroke:#ffffff;stroke-width:0.75;" x="310.463177" xlink:href="#m1e2c7c2d2b" y="137.196321"/>
     <use style="fill:#1f77b4;stroke:#ffffff;stroke-width:0.75;" x="313.394107" xlink:href="#m1e2c7c2d2b" y="132.511034"/>
     <use style="fill:#1f77b4;stroke:#ffffff;stroke-width:0.75;" x="316.210069" xlink:href="#m1e2c7c2d2b" y="131.132237"/>
     <use style="fill:#1f77b4;stroke:#ffffff;stroke-width:0.75;" x="318.919742" xlink:href="#m1e2c7c2d2b" y="124.806819"/>
     <use style="fill:#1f77b4;stroke:#ffffff;stroke-width:0.75;" x="321.530859" xlink:href="#m1e2c7c2d2b" y="121.308309"/>
     <use style="fill:#1f77b4;stroke:#ffffff;stroke-width:0.75;" x="324.05034" xlink:href="#m1e2c7c2d2b" y="119.881741"/>
     <use style="fill:#1f77b4;stroke:#ffffff;stroke-width:0.75;" x="326.484397" xlink:href="#m1e2c7c2d2b" y="117.883797"/>
     <use style="fill:#1f77b4;stroke:#ffffff;stroke-width:0.75;" x="328.838635" xlink:href="#m1e2c7c2d2b" y="115.425005"/>
     <use style="fill:#1f77b4;stroke:#ffffff;stroke-width:0.75;" x="331.118122" xlink:href="#m1e2c7c2d2b" y="113.322152"/>
     <use style="fill:#1f77b4;stroke:#ffffff;stroke-width:0.75;" x="333.32746" xlink:href="#m1e2c7c2d2b" y="112.248713"/>
     <use style="fill:#1f77b4;stroke:#ffffff;stroke-width:0.75;" x="335.470837" xlink:href="#m1e2c7c2d2b" y="109.657849"/>
     <use style="fill:#1f77b4;stroke:#ffffff;stroke-width:0.75;" x="337.552079" xlink:href="#m1e2c7c2d2b" y="106.778486"/>
     <use style="fill:#1f77b4;stroke:#ffffff;stroke-width:0.75;" x="339.574687" xlink:href="#m1e2c7c2d2b" y="105.417486"/>
     <use style="fill:#1f77b4;stroke:#ffffff;stroke-width:0.75;" x="341.541873" xlink:href="#m1e2c7c2d2b" y="104.469563"/>
     <use style="fill:#1f77b4;stroke:#ffffff;stroke-width:0.75;" x="343.456595" xlink:href="#m1e2c7c2d2b" y="103.723027"/>
     <use style="fill:#1f77b4;stroke:#ffffff;stroke-width:0.75;" x="345.321578" xlink:href="#m1e2c7c2d2b" y="102.817255"/>
     <use style="fill:#1f77b4;stroke:#ffffff;stroke-width:0.75;" x="347.139342" xlink:href="#m1e2c7c2d2b" y="101.872142"/>
     <use style="fill:#1f77b4;stroke:#ffffff;stroke-width:0.75;" x="348.912217" xlink:href="#m1e2c7c2d2b" y="100.013764"/>
     <use style="fill:#1f77b4;stroke:#ffffff;stroke-width:0.75;" x="350.642369" xlink:href="#m1e2c7c2d2b" y="99.194166"/>
     <use style="fill:#1f77b4;stroke:#ffffff;stroke-width:0.75;" x="352.331807" xlink:href="#m1e2c7c2d2b" y="97.544668"/>
     <use style="fill:#1f77b4;stroke:#ffffff;stroke-width:0.75;" x="353.982404" xlink:href="#m1e2c7c2d2b" y="96.334474"/>
     <use style="fill:#1f77b4;stroke:#ffffff;stroke-width:0.75;" x="355.595906" xlink:href="#m1e2c7c2d2b" y="94.936943"/>
     <use style="fill:#1f77b4;stroke:#ffffff;stroke-width:0.75;" x="357.173944" xlink:href="#m1e2c7c2d2b" y="94.831098"/>
     <use style="fill:#1f77b4;stroke:#ffffff;stroke-width:0.75;" x="358.718042" xlink:href="#m1e2c7c2d2b" y="94.619408"/>
     <use style="fill:#1f77b4;stroke:#ffffff;stroke-width:0.75;" x="360.229631" xlink:href="#m1e2c7c2d2b" y="93.043907"/>
     <use style="fill:#1f77b4;stroke:#ffffff;stroke-width:0.75;" x="361.710051" xlink:href="#m1e2c7c2d2b" y="91.011306"/>
     <use style="fill:#1f77b4;stroke:#ffffff;stroke-width:0.75;" x="363.160561" xlink:href="#m1e2c7c2d2b" y="90.562635"/>
     <use style="fill:#1f77b4;stroke:#ffffff;stroke-width:0.75;" x="364.582347" xlink:href="#m1e2c7c2d2b" y="87.718866"/>
     <use style="fill:#1f77b4;stroke:#ffffff;stroke-width:0.75;" x="365.976523" xlink:href="#m1e2c7c2d2b" y="86.642618"/>
     <use style="fill:#1f77b4;stroke:#ffffff;stroke-width:0.75;" x="367.344142" xlink:href="#m1e2c7c2d2b" y="85.841754"/>
     <use style="fill:#1f77b4;stroke:#ffffff;stroke-width:0.75;" x="368.686196" xlink:href="#m1e2c7c2d2b" y="85.379033"/>
     <use style="fill:#1f77b4;stroke:#ffffff;stroke-width:0.75;" x="370.003624" xlink:href="#m1e2c7c2d2b" y="83.283673"/>
     <use style="fill:#1f77b4;stroke:#ffffff;stroke-width:0.75;" x="371.297313" xlink:href="#m1e2c7c2d2b" y="81.775614"/>
     <use style="fill:#1f77b4;stroke:#ffffff;stroke-width:0.75;" x="372.568104" xlink:href="#m1e2c7c2d2b" y="80.78835"/>
     <use style="fill:#1f77b4;stroke:#ffffff;stroke-width:0.75;" x="373.816794" xlink:href="#m1e2c7c2d2b" y="80.074598"/>
     <use style="fill:#1f77b4;stroke:#ffffff;stroke-width:0.75;" x="375.044136" xlink:href="#m1e2c7c2d2b" y="79.936906"/>
     <use style="fill:#1f77b4;stroke:#ffffff;stroke-width:0.75;" x="376.250851" xlink:href="#m1e2c7c2d2b" y="79.851668"/>
     <use style="fill:#1f77b4;stroke:#ffffff;stroke-width:0.75;" x="377.437619" xlink:href="#m1e2c7c2d2b" y="79.003033"/>
     <use style="fill:#1f77b4;stroke:#ffffff;stroke-width:0.75;" x="378.605089" xlink:href="#m1e2c7c2d2b" y="75.471739"/>
     <use style="fill:#1f77b4;stroke:#ffffff;stroke-width:0.75;" x="379.753878" xlink:href="#m1e2c7c2d2b" y="75.013701"/>
     <use style="fill:#1f77b4;stroke:#ffffff;stroke-width:0.75;" x="380.884576" xlink:href="#m1e2c7c2d2b" y="74.402984"/>
     <use style="fill:#1f77b4;stroke:#ffffff;stroke-width:0.75;" x="381.997743" xlink:href="#m1e2c7c2d2b" y="73.818494"/>
     <use style="fill:#1f77b4;stroke:#ffffff;stroke-width:0.75;" x="383.093914" xlink:href="#m1e2c7c2d2b" y="73.345469"/>
     <use style="fill:#1f77b4;stroke:#ffffff;stroke-width:0.75;" x="384.1736" xlink:href="#m1e2c7c2d2b" y="72.858394"/>
     <use style="fill:#1f77b4;stroke:#ffffff;stroke-width:0.75;" x="385.237291" xlink:href="#m1e2c7c2d2b" y="71.722198"/>
     <use style="fill:#1f77b4;stroke:#ffffff;stroke-width:0.75;" x="386.285453" xlink:href="#m1e2c7c2d2b" y="69.262469"/>
     <use style="fill:#1f77b4;stroke:#ffffff;stroke-width:0.75;" x="387.318533" xlink:href="#m1e2c7c2d2b" y="68.285509"/>
     <use style="fill:#1f77b4;stroke:#ffffff;stroke-width:0.75;" x="388.336959" xlink:href="#m1e2c7c2d2b" y="67.925823"/>
     <use style="fill:#1f77b4;stroke:#ffffff;stroke-width:0.75;" x="389.341141" xlink:href="#m1e2c7c2d2b" y="67.581124"/>
     <use style="fill:#1f77b4;stroke:#ffffff;stroke-width:0.75;" x="390.331471" xlink:href="#m1e2c7c2d2b" y="66.386853"/>
     <use style="fill:#1f77b4;stroke:#ffffff;stroke-width:0.75;" x="391.308327" xlink:href="#m1e2c7c2d2b" y="65.500752"/>
     <use style="fill:#1f77b4;stroke:#ffffff;stroke-width:0.75;" x="392.272071" xlink:href="#m1e2c7c2d2b" y="64.636193"/>
     <use style="fill:#1f77b4;stroke:#ffffff;stroke-width:0.75;" x="393.223049" xlink:href="#m1e2c7c2d2b" y="64.205319"/>
     <use style="fill:#1f77b4;stroke:#ffffff;stroke-width:0.75;" x="394.161596" xlink:href="#m1e2c7c2d2b" y="64.026413"/>
     <use style="fill:#1f77b4;stroke:#ffffff;stroke-width:0.75;" x="395.088032" xlink:href="#m1e2c7c2d2b" y="63.49063"/>
     <use style="fill:#1f77b4;stroke:#ffffff;stroke-width:0.75;" x="396.002666" xlink:href="#m1e2c7c2d2b" y="62.033152"/>
     <use style="fill:#1f77b4;stroke:#ffffff;stroke-width:0.75;" x="396.905795" xlink:href="#m1e2c7c2d2b" y="61.377474"/>
     <use style="fill:#1f77b4;stroke:#ffffff;stroke-width:0.75;" x="397.797705" xlink:href="#m1e2c7c2d2b" y="61.205125"/>
     <use style="fill:#1f77b4;stroke:#ffffff;stroke-width:0.75;" x="398.678671" xlink:href="#m1e2c7c2d2b" y="60.784554"/>
     <use style="fill:#1f77b4;stroke:#ffffff;stroke-width:0.75;" x="399.548958" xlink:href="#m1e2c7c2d2b" y="60.313403"/>
     <use style="fill:#1f77b4;stroke:#ffffff;stroke-width:0.75;" x="400.408823" xlink:href="#m1e2c7c2d2b" y="59.679268"/>
     <use style="fill:#1f77b4;stroke:#ffffff;stroke-width:0.75;" x="401.258511" xlink:href="#m1e2c7c2d2b" y="59.472261"/>
     <use style="fill:#1f77b4;stroke:#ffffff;stroke-width:0.75;" x="402.098261" xlink:href="#m1e2c7c2d2b" y="59.034831"/>
     <use style="fill:#1f77b4;stroke:#ffffff;stroke-width:0.75;" x="402.928303" xlink:href="#m1e2c7c2d2b" y="54.296153"/>
     <use style="fill:#1f77b4;stroke:#ffffff;stroke-width:0.75;" x="403.748858" xlink:href="#m1e2c7c2d2b" y="53.364153"/>
     <use style="fill:#1f77b4;stroke:#ffffff;stroke-width:0.75;" x="404.560142" xlink:href="#m1e2c7c2d2b" y="52.941709"/>
     <use style="fill:#1f77b4;stroke:#ffffff;stroke-width:0.75;" x="405.36236" xlink:href="#m1e2c7c2d2b" y="52.851788"/>
     <use style="fill:#1f77b4;stroke:#ffffff;stroke-width:0.75;" x="406.155714" xlink:href="#m1e2c7c2d2b" y="52.609187"/>
     <use style="fill:#1f77b4;stroke:#ffffff;stroke-width:0.75;" x="406.940398" xlink:href="#m1e2c7c2d2b" y="51.836424"/>
    </g>
   </g>
   <g id="line2d_32">
    <path clip-path="url(#p26f5eac0ea)" d="M 82.285852 259.388457 
L 132.052306 235.545198 
L 161.163816 221.422833 
L 181.81876 210.467391 
L 197.83998 203.779477 
L 210.930269 184.714236 
L 221.997952 178.30358 
L 231.585214 164.016358 
L 240.041779 152.285343 
L 247.606434 140.750096 
L 254.449496 136.593098 
L 260.696723 134.5989 
L 266.443615 131.773865 
L 271.764406 129.75344 
L 276.717943 123.224762 
L 281.351668 120.562709 
L 285.704383 119.787136 
L 289.808233 118.747418 
L 293.690141 116.287689 
L 297.372888 115.95704 
L 300.875915 113.259394 
L 304.21595 112.561565 
L 307.40749 108.348366 
L 310.463177 106.358852 
L 313.394107 105.556115 
L 316.210069 105.07185 
L 318.919742 104.775859 
L 321.530859 104.411489 
L 324.05034 103.6687 
L 326.484397 103.33524 
L 328.838635 103.1376 
L 331.118122 102.997098 
L 333.32746 102.924037 
L 335.470837 99.455501 
L 337.552079 99.193229 
L 339.574687 98.902858 
L 341.541873 98.741748 
L 343.456595 98.579702 
L 345.321578 98.137588 
L 347.139342 98.017693 
L 348.912217 97.946505 
L 350.642369 97.746055 
L 352.331807 97.440696 
L 353.982404 97.269283 
L 355.595906 96.625782 
L 357.173944 96.149947 
L 358.718042 95.464295 
L 360.229631 95.145823 
L 361.710051 94.839528 
L 363.160561 94.15856 
L 364.582347 93.964666 
L 365.976523 93.723939 
L 367.344142 93.446681 
L 368.686196 92.244917 
L 370.003624 90.043713 
L 371.297313 89.760834 
L 372.568104 89.564131 
L 373.816794 89.319657 
L 375.044136 88.396088 
L 376.250851 87.654235 
L 377.437619 86.809347 
L 378.605089 86.408447 
L 379.753878 85.98694 
L 380.884576 85.715302 
L 381.997743 84.629686 
L 383.093914 84.437666 
L 384.1736 83.986185 
L 385.237291 83.619006 
L 386.285453 83.269623 
L 387.318533 83.056059 
L 388.336959 82.611135 
L 389.341141 81.890826 
L 390.331471 81.796221 
L 391.308327 81.619188 
L 392.272071 81.505849 
L 393.223049 81.111506 
L 394.161596 80.234771 
L 395.088032 79.490108 
L 396.002666 78.456947 
L 396.905795 77.951138 
L 397.797705 77.537125 
L 398.678671 76.802765 
L 399.548958 76.693174 
L 400.408823 76.580772 
L 401.258511 76.209845 
L 402.098261 76.11524 
L 402.928303 75.879196 
L 403.748858 75.450196 
L 404.560142 75.337794 
L 405.36236 75.261922 
L 406.155714 75.063346 
L 406.940398 71.808373 
" style="fill:none;stroke:#98df8a;stroke-linecap:square;stroke-width:1.5;"/>
    <defs>
     <path d="M -0 3 
L 3 -3 
L -3 -3 
z
" id="m2a26347a71" style="stroke:#ffffff;stroke-linejoin:miter;stroke-width:0.75;"/>
    </defs>
    <g clip-path="url(#p26f5eac0ea)">
     <use style="fill:#98df8a;stroke:#ffffff;stroke-linejoin:miter;stroke-width:0.75;" x="82.285852" xlink:href="#m2a26347a71" y="259.388457"/>
     <use style="fill:#98df8a;stroke:#ffffff;stroke-linejoin:miter;stroke-width:0.75;" x="132.052306" xlink:href="#m2a26347a71" y="235.545198"/>
     <use style="fill:#98df8a;stroke:#ffffff;stroke-linejoin:miter;stroke-width:0.75;" x="161.163816" xlink:href="#m2a26347a71" y="221.422833"/>
     <use style="fill:#98df8a;stroke:#ffffff;stroke-linejoin:miter;stroke-width:0.75;" x="181.81876" xlink:href="#m2a26347a71" y="210.467391"/>
     <use style="fill:#98df8a;stroke:#ffffff;stroke-linejoin:miter;stroke-width:0.75;" x="197.83998" xlink:href="#m2a26347a71" y="203.779477"/>
     <use style="fill:#98df8a;stroke:#ffffff;stroke-linejoin:miter;stroke-width:0.75;" x="210.930269" xlink:href="#m2a26347a71" y="184.714236"/>
     <use style="fill:#98df8a;stroke:#ffffff;stroke-linejoin:miter;stroke-width:0.75;" x="221.997952" xlink:href="#m2a26347a71" y="178.30358"/>
     <use style="fill:#98df8a;stroke:#ffffff;stroke-linejoin:miter;stroke-width:0.75;" x="231.585214" xlink:href="#m2a26347a71" y="164.016358"/>
     <use style="fill:#98df8a;stroke:#ffffff;stroke-linejoin:miter;stroke-width:0.75;" x="240.041779" xlink:href="#m2a26347a71" y="152.285343"/>
     <use style="fill:#98df8a;stroke:#ffffff;stroke-linejoin:miter;stroke-width:0.75;" x="247.606434" xlink:href="#m2a26347a71" y="140.750096"/>
     <use style="fill:#98df8a;stroke:#ffffff;stroke-linejoin:miter;stroke-width:0.75;" x="254.449496" xlink:href="#m2a26347a71" y="136.593098"/>
     <use style="fill:#98df8a;stroke:#ffffff;stroke-linejoin:miter;stroke-width:0.75;" x="260.696723" xlink:href="#m2a26347a71" y="134.5989"/>
     <use style="fill:#98df8a;stroke:#ffffff;stroke-linejoin:miter;stroke-width:0.75;" x="266.443615" xlink:href="#m2a26347a71" y="131.773865"/>
     <use style="fill:#98df8a;stroke:#ffffff;stroke-linejoin:miter;stroke-width:0.75;" x="271.764406" xlink:href="#m2a26347a71" y="129.75344"/>
     <use style="fill:#98df8a;stroke:#ffffff;stroke-linejoin:miter;stroke-width:0.75;" x="276.717943" xlink:href="#m2a26347a71" y="123.224762"/>
     <use style="fill:#98df8a;stroke:#ffffff;stroke-linejoin:miter;stroke-width:0.75;" x="281.351668" xlink:href="#m2a26347a71" y="120.562709"/>
     <use style="fill:#98df8a;stroke:#ffffff;stroke-linejoin:miter;stroke-width:0.75;" x="285.704383" xlink:href="#m2a26347a71" y="119.787136"/>
     <use style="fill:#98df8a;stroke:#ffffff;stroke-linejoin:miter;stroke-width:0.75;" x="289.808233" xlink:href="#m2a26347a71" y="118.747418"/>
     <use style="fill:#98df8a;stroke:#ffffff;stroke-linejoin:miter;stroke-width:0.75;" x="293.690141" xlink:href="#m2a26347a71" y="116.287689"/>
     <use style="fill:#98df8a;stroke:#ffffff;stroke-linejoin:miter;stroke-width:0.75;" x="297.372888" xlink:href="#m2a26347a71" y="115.95704"/>
     <use style="fill:#98df8a;stroke:#ffffff;stroke-linejoin:miter;stroke-width:0.75;" x="300.875915" xlink:href="#m2a26347a71" y="113.259394"/>
     <use style="fill:#98df8a;stroke:#ffffff;stroke-linejoin:miter;stroke-width:0.75;" x="304.21595" xlink:href="#m2a26347a71" y="112.561565"/>
     <use style="fill:#98df8a;stroke:#ffffff;stroke-linejoin:miter;stroke-width:0.75;" x="307.40749" xlink:href="#m2a26347a71" y="108.348366"/>
     <use style="fill:#98df8a;stroke:#ffffff;stroke-linejoin:miter;stroke-width:0.75;" x="310.463177" xlink:href="#m2a26347a71" y="106.358852"/>
     <use style="fill:#98df8a;stroke:#ffffff;stroke-linejoin:miter;stroke-width:0.75;" x="313.394107" xlink:href="#m2a26347a71" y="105.556115"/>
     <use style="fill:#98df8a;stroke:#ffffff;stroke-linejoin:miter;stroke-width:0.75;" x="316.210069" xlink:href="#m2a26347a71" y="105.07185"/>
     <use style="fill:#98df8a;stroke:#ffffff;stroke-linejoin:miter;stroke-width:0.75;" x="318.919742" xlink:href="#m2a26347a71" y="104.775859"/>
     <use style="fill:#98df8a;stroke:#ffffff;stroke-linejoin:miter;stroke-width:0.75;" x="321.530859" xlink:href="#m2a26347a71" y="104.411489"/>
     <use style="fill:#98df8a;stroke:#ffffff;stroke-linejoin:miter;stroke-width:0.75;" x="324.05034" xlink:href="#m2a26347a71" y="103.6687"/>
     <use style="fill:#98df8a;stroke:#ffffff;stroke-linejoin:miter;stroke-width:0.75;" x="326.484397" xlink:href="#m2a26347a71" y="103.33524"/>
     <use style="fill:#98df8a;stroke:#ffffff;stroke-linejoin:miter;stroke-width:0.75;" x="328.838635" xlink:href="#m2a26347a71" y="103.1376"/>
     <use style="fill:#98df8a;stroke:#ffffff;stroke-linejoin:miter;stroke-width:0.75;" x="331.118122" xlink:href="#m2a26347a71" y="102.997098"/>
     <use style="fill:#98df8a;stroke:#ffffff;stroke-linejoin:miter;stroke-width:0.75;" x="333.32746" xlink:href="#m2a26347a71" y="102.924037"/>
     <use style="fill:#98df8a;stroke:#ffffff;stroke-linejoin:miter;stroke-width:0.75;" x="335.470837" xlink:href="#m2a26347a71" y="99.455501"/>
     <use style="fill:#98df8a;stroke:#ffffff;stroke-linejoin:miter;stroke-width:0.75;" x="337.552079" xlink:href="#m2a26347a71" y="99.193229"/>
     <use style="fill:#98df8a;stroke:#ffffff;stroke-linejoin:miter;stroke-width:0.75;" x="339.574687" xlink:href="#m2a26347a71" y="98.902858"/>
     <use style="fill:#98df8a;stroke:#ffffff;stroke-linejoin:miter;stroke-width:0.75;" x="341.541873" xlink:href="#m2a26347a71" y="98.741748"/>
     <use style="fill:#98df8a;stroke:#ffffff;stroke-linejoin:miter;stroke-width:0.75;" x="343.456595" xlink:href="#m2a26347a71" y="98.579702"/>
     <use style="fill:#98df8a;stroke:#ffffff;stroke-linejoin:miter;stroke-width:0.75;" x="345.321578" xlink:href="#m2a26347a71" y="98.137588"/>
     <use style="fill:#98df8a;stroke:#ffffff;stroke-linejoin:miter;stroke-width:0.75;" x="347.139342" xlink:href="#m2a26347a71" y="98.017693"/>
     <use style="fill:#98df8a;stroke:#ffffff;stroke-linejoin:miter;stroke-width:0.75;" x="348.912217" xlink:href="#m2a26347a71" y="97.946505"/>
     <use style="fill:#98df8a;stroke:#ffffff;stroke-linejoin:miter;stroke-width:0.75;" x="350.642369" xlink:href="#m2a26347a71" y="97.746055"/>
     <use style="fill:#98df8a;stroke:#ffffff;stroke-linejoin:miter;stroke-width:0.75;" x="352.331807" xlink:href="#m2a26347a71" y="97.440696"/>
     <use style="fill:#98df8a;stroke:#ffffff;stroke-linejoin:miter;stroke-width:0.75;" x="353.982404" xlink:href="#m2a26347a71" y="97.269283"/>
     <use style="fill:#98df8a;stroke:#ffffff;stroke-linejoin:miter;stroke-width:0.75;" x="355.595906" xlink:href="#m2a26347a71" y="96.625782"/>
     <use style="fill:#98df8a;stroke:#ffffff;stroke-linejoin:miter;stroke-width:0.75;" x="357.173944" xlink:href="#m2a26347a71" y="96.149947"/>
     <use style="fill:#98df8a;stroke:#ffffff;stroke-linejoin:miter;stroke-width:0.75;" x="358.718042" xlink:href="#m2a26347a71" y="95.464295"/>
     <use style="fill:#98df8a;stroke:#ffffff;stroke-linejoin:miter;stroke-width:0.75;" x="360.229631" xlink:href="#m2a26347a71" y="95.145823"/>
     <use style="fill:#98df8a;stroke:#ffffff;stroke-linejoin:miter;stroke-width:0.75;" x="361.710051" xlink:href="#m2a26347a71" y="94.839528"/>
     <use style="fill:#98df8a;stroke:#ffffff;stroke-linejoin:miter;stroke-width:0.75;" x="363.160561" xlink:href="#m2a26347a71" y="94.15856"/>
     <use style="fill:#98df8a;stroke:#ffffff;stroke-linejoin:miter;stroke-width:0.75;" x="364.582347" xlink:href="#m2a26347a71" y="93.964666"/>
     <use style="fill:#98df8a;stroke:#ffffff;stroke-linejoin:miter;stroke-width:0.75;" x="365.976523" xlink:href="#m2a26347a71" y="93.723939"/>
     <use style="fill:#98df8a;stroke:#ffffff;stroke-linejoin:miter;stroke-width:0.75;" x="367.344142" xlink:href="#m2a26347a71" y="93.446681"/>
     <use style="fill:#98df8a;stroke:#ffffff;stroke-linejoin:miter;stroke-width:0.75;" x="368.686196" xlink:href="#m2a26347a71" y="92.244917"/>
     <use style="fill:#98df8a;stroke:#ffffff;stroke-linejoin:miter;stroke-width:0.75;" x="370.003624" xlink:href="#m2a26347a71" y="90.043713"/>
     <use style="fill:#98df8a;stroke:#ffffff;stroke-linejoin:miter;stroke-width:0.75;" x="371.297313" xlink:href="#m2a26347a71" y="89.760834"/>
     <use style="fill:#98df8a;stroke:#ffffff;stroke-linejoin:miter;stroke-width:0.75;" x="372.568104" xlink:href="#m2a26347a71" y="89.564131"/>
     <use style="fill:#98df8a;stroke:#ffffff;stroke-linejoin:miter;stroke-width:0.75;" x="373.816794" xlink:href="#m2a26347a71" y="89.319657"/>
     <use style="fill:#98df8a;stroke:#ffffff;stroke-linejoin:miter;stroke-width:0.75;" x="375.044136" xlink:href="#m2a26347a71" y="88.396088"/>
     <use style="fill:#98df8a;stroke:#ffffff;stroke-linejoin:miter;stroke-width:0.75;" x="376.250851" xlink:href="#m2a26347a71" y="87.654235"/>
     <use style="fill:#98df8a;stroke:#ffffff;stroke-linejoin:miter;stroke-width:0.75;" x="377.437619" xlink:href="#m2a26347a71" y="86.809347"/>
     <use style="fill:#98df8a;stroke:#ffffff;stroke-linejoin:miter;stroke-width:0.75;" x="378.605089" xlink:href="#m2a26347a71" y="86.408447"/>
     <use style="fill:#98df8a;stroke:#ffffff;stroke-linejoin:miter;stroke-width:0.75;" x="379.753878" xlink:href="#m2a26347a71" y="85.98694"/>
     <use style="fill:#98df8a;stroke:#ffffff;stroke-linejoin:miter;stroke-width:0.75;" x="380.884576" xlink:href="#m2a26347a71" y="85.715302"/>
     <use style="fill:#98df8a;stroke:#ffffff;stroke-linejoin:miter;stroke-width:0.75;" x="381.997743" xlink:href="#m2a26347a71" y="84.629686"/>
     <use style="fill:#98df8a;stroke:#ffffff;stroke-linejoin:miter;stroke-width:0.75;" x="383.093914" xlink:href="#m2a26347a71" y="84.437666"/>
     <use style="fill:#98df8a;stroke:#ffffff;stroke-linejoin:miter;stroke-width:0.75;" x="384.1736" xlink:href="#m2a26347a71" y="83.986185"/>
     <use style="fill:#98df8a;stroke:#ffffff;stroke-linejoin:miter;stroke-width:0.75;" x="385.237291" xlink:href="#m2a26347a71" y="83.619006"/>
     <use style="fill:#98df8a;stroke:#ffffff;stroke-linejoin:miter;stroke-width:0.75;" x="386.285453" xlink:href="#m2a26347a71" y="83.269623"/>
     <use style="fill:#98df8a;stroke:#ffffff;stroke-linejoin:miter;stroke-width:0.75;" x="387.318533" xlink:href="#m2a26347a71" y="83.056059"/>
     <use style="fill:#98df8a;stroke:#ffffff;stroke-linejoin:miter;stroke-width:0.75;" x="388.336959" xlink:href="#m2a26347a71" y="82.611135"/>
     <use style="fill:#98df8a;stroke:#ffffff;stroke-linejoin:miter;stroke-width:0.75;" x="389.341141" xlink:href="#m2a26347a71" y="81.890826"/>
     <use style="fill:#98df8a;stroke:#ffffff;stroke-linejoin:miter;stroke-width:0.75;" x="390.331471" xlink:href="#m2a26347a71" y="81.796221"/>
     <use style="fill:#98df8a;stroke:#ffffff;stroke-linejoin:miter;stroke-width:0.75;" x="391.308327" xlink:href="#m2a26347a71" y="81.619188"/>
     <use style="fill:#98df8a;stroke:#ffffff;stroke-linejoin:miter;stroke-width:0.75;" x="392.272071" xlink:href="#m2a26347a71" y="81.505849"/>
     <use style="fill:#98df8a;stroke:#ffffff;stroke-linejoin:miter;stroke-width:0.75;" x="393.223049" xlink:href="#m2a26347a71" y="81.111506"/>
     <use style="fill:#98df8a;stroke:#ffffff;stroke-linejoin:miter;stroke-width:0.75;" x="394.161596" xlink:href="#m2a26347a71" y="80.234771"/>
     <use style="fill:#98df8a;stroke:#ffffff;stroke-linejoin:miter;stroke-width:0.75;" x="395.088032" xlink:href="#m2a26347a71" y="79.490108"/>
     <use style="fill:#98df8a;stroke:#ffffff;stroke-linejoin:miter;stroke-width:0.75;" x="396.002666" xlink:href="#m2a26347a71" y="78.456947"/>
     <use style="fill:#98df8a;stroke:#ffffff;stroke-linejoin:miter;stroke-width:0.75;" x="396.905795" xlink:href="#m2a26347a71" y="77.951138"/>
     <use style="fill:#98df8a;stroke:#ffffff;stroke-linejoin:miter;stroke-width:0.75;" x="397.797705" xlink:href="#m2a26347a71" y="77.537125"/>
     <use style="fill:#98df8a;stroke:#ffffff;stroke-linejoin:miter;stroke-width:0.75;" x="398.678671" xlink:href="#m2a26347a71" y="76.802765"/>
     <use style="fill:#98df8a;stroke:#ffffff;stroke-linejoin:miter;stroke-width:0.75;" x="399.548958" xlink:href="#m2a26347a71" y="76.693174"/>
     <use style="fill:#98df8a;stroke:#ffffff;stroke-linejoin:miter;stroke-width:0.75;" x="400.408823" xlink:href="#m2a26347a71" y="76.580772"/>
     <use style="fill:#98df8a;stroke:#ffffff;stroke-linejoin:miter;stroke-width:0.75;" x="401.258511" xlink:href="#m2a26347a71" y="76.209845"/>
     <use style="fill:#98df8a;stroke:#ffffff;stroke-linejoin:miter;stroke-width:0.75;" x="402.098261" xlink:href="#m2a26347a71" y="76.11524"/>
     <use style="fill:#98df8a;stroke:#ffffff;stroke-linejoin:miter;stroke-width:0.75;" x="402.928303" xlink:href="#m2a26347a71" y="75.879196"/>
     <use style="fill:#98df8a;stroke:#ffffff;stroke-linejoin:miter;stroke-width:0.75;" x="403.748858" xlink:href="#m2a26347a71" y="75.450196"/>
     <use style="fill:#98df8a;stroke:#ffffff;stroke-linejoin:miter;stroke-width:0.75;" x="404.560142" xlink:href="#m2a26347a71" y="75.337794"/>
     <use style="fill:#98df8a;stroke:#ffffff;stroke-linejoin:miter;stroke-width:0.75;" x="405.36236" xlink:href="#m2a26347a71" y="75.261922"/>
     <use style="fill:#98df8a;stroke:#ffffff;stroke-linejoin:miter;stroke-width:0.75;" x="406.155714" xlink:href="#m2a26347a71" y="75.063346"/>
     <use style="fill:#98df8a;stroke:#ffffff;stroke-linejoin:miter;stroke-width:0.75;" x="406.940398" xlink:href="#m2a26347a71" y="71.808373"/>
    </g>
   </g>
   <g id="line2d_33"/>
   <g id="line2d_34"/>
   <g id="patch_3">
    <path d="M 66.053125 265.372923 
L 66.053125 40.569067 
" style="fill:none;stroke:#000000;stroke-linecap:square;stroke-linejoin:miter;stroke-width:0.8;"/>
   </g>
   <g id="patch_4">
    <path d="M 82.285852 288.430125 
L 406.941265 288.430125 
" style="fill:none;stroke:#000000;stroke-linecap:square;stroke-linejoin:miter;stroke-width:0.8;"/>
   </g>
   <g id="text_16">
    <!-- wireshark_fuzzshark_ip (23h, 20 trials/fuzzer) -->
    <g transform="translate(108.505938 16.318125)scale(0.12 -0.12)">
     <defs>
      <path d="M 269 3500 
L 844 3500 
L 1563 769 
L 2278 3500 
L 2956 3500 
L 3675 769 
L 4391 3500 
L 4966 3500 
L 4050 0 
L 3372 0 
L 2619 2869 
L 1863 0 
L 1184 0 
L 269 3500 
z
" id="DejaVuSans-77" transform="scale(0.015625)"/>
      <path d="M 2834 3397 
L 2834 2853 
Q 2591 2978 2328 3040 
Q 2066 3103 1784 3103 
Q 1356 3103 1142 2972 
Q 928 2841 928 2578 
Q 928 2378 1081 2264 
Q 1234 2150 1697 2047 
L 1894 2003 
Q 2506 1872 2764 1633 
Q 3022 1394 3022 966 
Q 3022 478 2636 193 
Q 2250 -91 1575 -91 
Q 1294 -91 989 -36 
Q 684 19 347 128 
L 347 722 
Q 666 556 975 473 
Q 1284 391 1588 391 
Q 1994 391 2212 530 
Q 2431 669 2431 922 
Q 2431 1156 2273 1281 
Q 2116 1406 1581 1522 
L 1381 1569 
Q 847 1681 609 1914 
Q 372 2147 372 2553 
Q 372 3047 722 3315 
Q 1072 3584 1716 3584 
Q 2034 3584 2315 3537 
Q 2597 3491 2834 3397 
z
" id="DejaVuSans-73" transform="scale(0.015625)"/>
      <path d="M 581 4863 
L 1159 4863 
L 1159 1991 
L 2875 3500 
L 3609 3500 
L 1753 1863 
L 3688 0 
L 2938 0 
L 1159 1709 
L 1159 0 
L 581 0 
L 581 4863 
z
" id="DejaVuSans-6b" transform="scale(0.015625)"/>
      <path d="M 3263 -1063 
L 3263 -1509 
L -63 -1509 
L -63 -1063 
L 3263 -1063 
z
" id="DejaVuSans-5f" transform="scale(0.015625)"/>
      <path d="M 2375 4863 
L 2375 4384 
L 1825 4384 
Q 1516 4384 1395 4259 
Q 1275 4134 1275 3809 
L 1275 3500 
L 2222 3500 
L 2222 3053 
L 1275 3053 
L 1275 0 
L 697 0 
L 697 3053 
L 147 3053 
L 147 3500 
L 697 3500 
L 697 3744 
Q 697 4328 969 4595 
Q 1241 4863 1831 4863 
L 2375 4863 
z
" id="DejaVuSans-66" transform="scale(0.015625)"/>
      <path d="M 353 3500 
L 3084 3500 
L 3084 2975 
L 922 459 
L 3084 459 
L 3084 0 
L 275 0 
L 275 525 
L 2438 3041 
L 353 3041 
L 353 3500 
z
" id="DejaVuSans-7a" transform="scale(0.015625)"/>
      <path d="M 1159 525 
L 1159 -1331 
L 581 -1331 
L 581 3500 
L 1159 3500 
L 1159 2969 
Q 1341 3281 1617 3432 
Q 1894 3584 2278 3584 
Q 2916 3584 3314 3078 
Q 3713 2572 3713 1747 
Q 3713 922 3314 415 
Q 2916 -91 2278 -91 
Q 1894 -91 1617 61 
Q 1341 213 1159 525 
z
M 3116 1747 
Q 3116 2381 2855 2742 
Q 2594 3103 2138 3103 
Q 1681 3103 1420 2742 
Q 1159 2381 1159 1747 
Q 1159 1113 1420 752 
Q 1681 391 2138 391 
Q 2594 391 2855 752 
Q 3116 1113 3116 1747 
z
" id="DejaVuSans-70" transform="scale(0.015625)"/>
      <path d="M 750 794 
L 1409 794 
L 1409 256 
L 897 -744 
L 494 -744 
L 750 256 
L 750 794 
z
" id="DejaVuSans-2c" transform="scale(0.015625)"/>
      <path d="M 603 4863 
L 1178 4863 
L 1178 0 
L 603 0 
L 603 4863 
z
" id="DejaVuSans-6c" transform="scale(0.015625)"/>
      <path d="M 1625 4666 
L 2156 4666 
L 531 -594 
L 0 -594 
L 1625 4666 
z
" id="DejaVuSans-2f" transform="scale(0.015625)"/>
     </defs>
     <use xlink:href="#DejaVuSans-77"/>
     <use x="81.787109" xlink:href="#DejaVuSans-69"/>
     <use x="109.570312" xlink:href="#DejaVuSans-72"/>
     <use x="148.433594" xlink:href="#DejaVuSans-65"/>
     <use x="209.957031" xlink:href="#DejaVuSans-73"/>
     <use x="262.056641" xlink:href="#DejaVuSans-68"/>
     <use x="325.435547" xlink:href="#DejaVuSans-61"/>
     <use x="386.714844" xlink:href="#DejaVuSans-72"/>
     <use x="427.828125" xlink:href="#DejaVuSans-6b"/>
     <use x="485.738281" xlink:href="#DejaVuSans-5f"/>
     <use x="535.738281" xlink:href="#DejaVuSans-66"/>
     <use x="570.943359" xlink:href="#DejaVuSans-75"/>
     <use x="634.322266" xlink:href="#DejaVuSans-7a"/>
     <use x="686.8125" xlink:href="#DejaVuSans-7a"/>
     <use x="739.302734" xlink:href="#DejaVuSans-73"/>
     <use x="791.402344" xlink:href="#DejaVuSans-68"/>
     <use x="854.78125" xlink:href="#DejaVuSans-61"/>
     <use x="916.060547" xlink:href="#DejaVuSans-72"/>
     <use x="957.173828" xlink:href="#DejaVuSans-6b"/>
     <use x="1015.083984" xlink:href="#DejaVuSans-5f"/>
     <use x="1065.083984" xlink:href="#DejaVuSans-69"/>
     <use x="1092.867188" xlink:href="#DejaVuSans-70"/>
     <use x="1156.34375" xlink:href="#DejaVuSans-20"/>
     <use x="1188.130859" xlink:href="#DejaVuSans-28"/>
     <use x="1227.144531" xlink:href="#DejaVuSans-32"/>
     <use x="1290.767578" xlink:href="#DejaVuSans-33"/>
     <use x="1354.390625" xlink:href="#DejaVuSans-68"/>
     <use x="1417.769531" xlink:href="#DejaVuSans-2c"/>
     <use x="1449.556641" xlink:href="#DejaVuSans-20"/>
     <use x="1481.34375" xlink:href="#DejaVuSans-32"/>
     <use x="1544.966797" xlink:href="#DejaVuSans-30"/>
     <use x="1608.589844" xlink:href="#DejaVuSans-20"/>
     <use x="1640.376953" xlink:href="#DejaVuSans-74"/>
     <use x="1679.585938" xlink:href="#DejaVuSans-72"/>
     <use x="1720.699219" xlink:href="#DejaVuSans-69"/>
     <use x="1748.482422" xlink:href="#DejaVuSans-61"/>
     <use x="1809.761719" xlink:href="#DejaVuSans-6c"/>
     <use x="1837.544922" xlink:href="#DejaVuSans-73"/>
     <use x="1889.644531" xlink:href="#DejaVuSans-2f"/>
     <use x="1923.335938" xlink:href="#DejaVuSans-66"/>
     <use x="1958.541016" xlink:href="#DejaVuSans-75"/>
     <use x="2021.919922" xlink:href="#DejaVuSans-7a"/>
     <use x="2074.410156" xlink:href="#DejaVuSans-7a"/>
     <use x="2126.900391" xlink:href="#DejaVuSans-65"/>
     <use x="2188.423828" xlink:href="#DejaVuSans-72"/>
     <use x="2229.537109" xlink:href="#DejaVuSans-29"/>
    </g>
   </g>
   <g id="legend_1">
    <g id="line2d_35">
     <path d="M 427.173125 30.416562 
L 447.173125 30.416562 
" style="fill:none;stroke:#1f77b4;stroke-linecap:square;stroke-width:1.5;"/>
    </g>
    <g id="line2d_36">
     <defs>
      <path d="M 0 3 
C 0.795609 3 1.55874 2.683901 2.12132 2.12132 
C 2.683901 1.55874 3 0.795609 3 0 
C 3 -0.795609 2.683901 -1.55874 2.12132 -2.12132 
C 1.55874 -2.683901 0.795609 -3 0 -3 
C -0.795609 -3 -1.55874 -2.683901 -2.12132 -2.12132 
C -2.683901 -1.55874 -3 -0.795609 -3 0 
C -3 0.795609 -2.683901 1.55874 -2.12132 2.12132 
C -1.55874 2.683901 -0.795609 3 0 3 
z
" id="m9669c21f4a" style="stroke:#1f77b4;"/>
     </defs>
     <g>
      <use style="fill:#1f77b4;stroke:#1f77b4;" x="437.173125" xlink:href="#m9669c21f4a" y="30.416562"/>
     </g>
    </g>
    <g id="text_17">
     <!-- afl -->
     <g transform="translate(455.173125 33.916562)scale(0.1 -0.1)">
      <use xlink:href="#DejaVuSans-61"/>
      <use x="61.279297" xlink:href="#DejaVuSans-66"/>
      <use x="96.484375" xlink:href="#DejaVuSans-6c"/>
     </g>
    </g>
    <g id="line2d_37">
     <path d="M 427.173125 45.094688 
L 447.173125 45.094688 
" style="fill:none;stroke:#98df8a;stroke-linecap:square;stroke-width:1.5;"/>
    </g>
    <g id="line2d_38">
     <defs>
      <path d="M -0 3 
L 3 -3 
L -3 -3 
z
" id="m52002cd00e" style="stroke:#98df8a;stroke-linejoin:miter;"/>
     </defs>
     <g>
      <use style="fill:#98df8a;stroke:#98df8a;stroke-linejoin:miter;" x="437.173125" xlink:href="#m52002cd00e" y="45.094688"/>
     </g>
    </g>
    <g id="text_18">
     <!-- afl_edges -->
     <g transform="translate(455.173125 48.594688)scale(0.1 -0.1)">
      <use xlink:href="#DejaVuSans-61"/>
      <use x="61.279297" xlink:href="#DejaVuSans-66"/>
      <use x="96.484375" xlink:href="#DejaVuSans-6c"/>
      <use x="124.267578" xlink:href="#DejaVuSans-5f"/>
      <use x="174.267578" xlink:href="#DejaVuSans-65"/>
      <use x="235.791016" xlink:href="#DejaVuSans-64"/>
      <use x="299.267578" xlink:href="#DejaVuSans-67"/>
      <use x="362.744141" xlink:href="#DejaVuSans-65"/>
      <use x="424.267578" xlink:href="#DejaVuSans-73"/>
     </g>
    </g>
   </g>
  </g>
 </g>
 <defs>
  <clipPath id="p26f5eac0ea">
   <rect height="266.112" width="357.12" x="66.053125" y="22.318125"/>
  </clipPath>
 </defs>
</svg>
