<?xml version="1.0" encoding="utf-8" standalone="no"?>
<!DOCTYPE svg PUBLIC "-//W3C//DTD SVG 1.1//EN"
  "http://www.w3.org/Graphics/SVG/1.1/DTD/svg11.dtd">
<svg height="325.986375pt" version="1.1" viewBox="0 0 507.649688 325.986375" width="507.649688pt" xmlns="http://www.w3.org/2000/svg" xmlns:xlink="http://www.w3.org/1999/xlink">
 <metadata>
  <rdf:RDF xmlns:cc="http://creativecommons.org/ns#" xmlns:dc="http://purl.org/dc/elements/1.1/" xmlns:rdf="http://www.w3.org/1999/02/22-rdf-syntax-ns#">
   <cc:Work>
    <dc:type rdf:resource="http://purl.org/dc/dcmitype/StillImage"/>
    <dc:date>2022-06-02T16:17:58.852823</dc:date>
    <dc:format>image/svg+xml</dc:format>
    <dc:creator>
     <cc:Agent>
      <dc:title>Matplotlib v3.4.3, https://matplotlib.org/</dc:title>
     </cc:Agent>
    </dc:creator>
   </cc:Work>
  </rdf:RDF>
 </metadata>
 <defs>
  <style type="text/css">*{stroke-linecap:butt;stroke-linejoin:round;}</style>
 </defs>
 <g id="figure_1">
  <g id="patch_1">
   <path d="M 0 325.986375 
L 507.649688 325.986375 
L 507.649688 0 
L 0 0 
z
" style="fill:#ffffff;"/>
  </g>
  <g id="axes_1">
   <g id="patch_2">
    <path d="M 59.690625 288.430125 
L 416.810625 288.430125 
L 416.810625 22.318125 
L 59.690625 22.318125 
z
" style="fill:#ffffff;"/>
   </g>
   <g id="PolyCollection_1">
    <defs>
     <path d="M 75.923352 -109.910369 
L 75.923352 -51.474007 
L 125.689806 -80.34185 
L 154.801316 -89.590771 
L 175.45626 -90.571717 
L 191.47748 -109.39654 
L 204.567769 -111.218297 
L 215.635452 -135.087987 
L 225.222714 -137.330149 
L 233.679279 -148.961368 
L 241.243934 -146.85934 
L 248.086996 -150.269296 
L 254.334223 -152.885152 
L 260.081115 -157.042495 
L 265.401906 -171.0093 
L 270.355443 -171.149435 
L 274.989168 -171.610713 
L 279.341883 -158.350423 
L 283.445733 -172.877768 
L 287.327641 -190.674934 
L 291.010388 -188.806465 
L 294.513415 -208.939217 
L 297.85345 -209.546469 
L 301.04499 -209.826739 
L 304.100677 -212.442596 
L 307.031607 -221.598093 
L 309.847569 -222.018498 
L 312.557242 -223.466562 
L 315.168359 -224.213949 
L 317.68784 -225.475166 
L 320.121897 -225.662013 
L 322.476135 -225.632818 
L 324.755622 -226.12913 
L 326.96496 -226.12913 
L 329.108337 -226.502823 
L 331.189579 -226.502823 
L 333.212187 -226.502823 
L 335.179373 -226.549535 
L 337.094095 -226.549535 
L 338.959078 -226.549535 
L 340.776842 -225.615301 
L 342.549717 -228.511427 
L 344.279869 -229.492374 
L 345.969307 -229.492374 
L 347.619904 -229.492374 
L 349.233406 -236.45242 
L 350.811444 -236.45242 
L 352.355542 -236.45242 
L 353.867131 -236.639267 
L 355.347551 -236.639267 
L 356.798061 -236.73269 
L 358.219847 -236.73269 
L 359.614023 -235.471474 
L 360.981642 -236.73269 
L 362.323696 -236.73269 
L 363.641124 -236.73269 
L 364.934813 -236.73269 
L 366.205604 -249.811972 
L 367.454294 -251.960711 
L 368.681636 -246.822422 
L 369.888351 -261.396479 
L 371.075119 -261.44319 
L 372.242589 -261.44319 
L 373.391378 -261.630037 
L 374.522076 -258.406929 
L 375.635243 -261.630037 
L 376.731414 -261.630037 
L 377.8111 -261.630037 
L 378.874791 -261.630037 
L 379.922953 -261.630037 
L 380.956033 -261.630037 
L 381.974459 -261.630037 
L 382.978641 -261.630037 
L 383.968971 -259.727702 
L 384.945827 -259.761568 
L 385.909571 -258.406929 
L 386.860549 -261.630037 
L 387.799096 -261.630037 
L 388.725532 -261.630037 
L 389.640166 -261.630037 
L 390.543295 -261.630037 
L 391.435205 -261.630037 
L 392.316171 -261.630037 
L 393.186458 -261.630037 
L 394.046323 -261.630037 
L 394.896011 -261.630037 
L 395.735761 -264.853146 
L 396.565803 -261.630037 
L 397.386358 -259.773246 
L 398.197642 -261.630037 
L 398.99986 -261.630037 
L 399.793214 -261.630037 
L 400.577898 -258.406929 
L 400.577898 -291.338691 
L 400.577898 -291.338691 
L 399.793214 -291.57225 
L 398.99986 -290.124187 
L 398.197642 -290.731439 
L 397.386358 -290.077475 
L 396.565803 -290.077475 
L 395.735761 -289.423511 
L 394.896011 -289.283376 
L 394.046323 -289.283376 
L 393.186458 -287.695177 
L 392.316171 -287.868011 
L 391.435205 -287.461619 
L 390.543295 -287.555042 
L 389.640166 -287.555042 
L 388.725532 -287.555042 
L 387.799096 -287.555042 
L 386.860549 -287.558545 
L 385.909571 -287.555042 
L 384.945827 -287.555042 
L 383.968971 -287.555042 
L 382.978641 -287.558545 
L 381.974459 -287.50833 
L 380.956033 -284.939186 
L 379.922953 -284.565492 
L 378.874791 -283.95824 
L 377.8111 -283.724681 
L 376.731414 -283.724681 
L 375.635243 -283.724681 
L 374.522076 -283.724681 
L 373.391378 -283.677969 
L 372.242589 -283.677969 
L 371.075119 -283.677969 
L 369.888351 -283.916199 
L 368.681636 -283.683808 
L 367.454294 -283.77256 
L 366.205604 -283.677969 
L 364.934813 -283.677969 
L 363.641124 -279.89432 
L 362.323696 -282.370041 
L 360.981642 -282.183194 
L 359.614023 -281.052771 
L 358.219847 -281.015401 
L 356.798061 -281.015401 
L 355.347551 -280.921978 
L 353.867131 -280.688419 
L 352.355542 -280.641707 
L 350.811444 -280.641707 
L 349.233406 -280.641707 
L 347.619904 -282.229906 
L 345.969307 -282.229906 
L 344.279869 -282.323329 
L 342.549717 -282.229906 
L 340.776842 -280.641707 
L 338.959078 -279.987743 
L 337.094095 -279.146932 
L 335.179373 -277.18504 
L 333.212187 -276.624499 
L 331.189579 -276.531076 
L 329.108337 -275.970535 
L 326.96496 -275.970535 
L 324.755622 -275.456706 
L 322.476135 -275.456706 
L 320.121897 -275.456706 
L 317.68784 -274.942878 
L 315.168359 -271.719769 
L 312.557242 -269.664453 
L 309.847569 -269.477606 
L 307.031607 -273.354679 
L 304.100677 -272.327021 
L 301.04499 -264.666299 
L 297.85345 -260.368821 
L 294.513415 -260.275397 
L 291.010388 -260.275397 
L 287.327641 -247.756656 
L 283.445733 -241.263727 
L 279.341883 -238.974853 
L 274.989168 -236.499132 
L 270.355443 -236.312285 
L 265.401906 -228.231157 
L 260.081115 -216.880209 
L 254.334223 -206.743766 
L 248.086996 -204.314756 
L 241.243934 -203.894351 
L 233.679279 -203.847639 
L 225.222714 -202.726558 
L 215.635452 -202.726558 
L 204.567769 -200.62453 
L 191.47748 -198.195521 
L 175.45626 -183.341194 
L 154.801316 -174.419255 
L 125.689806 -164.942615 
L 75.923352 -109.910369 
z
" id="me5792cdd30" style="stroke:#1f77b4;stroke-opacity:0.2;"/>
    </defs>
    <g clip-path="url(#pe8043d4d2e)">
     <use style="fill:#1f77b4;fill-opacity:0.2;stroke:#1f77b4;stroke-opacity:0.2;" x="0" xlink:href="#me5792cdd30" y="325.986375"/>
    </g>
   </g>
   <g id="PolyCollection_2">
    <defs>
     <path d="M 75.923352 -73.207803 
L 75.923352 -49.65225 
L 125.689806 -74.689732 
L 154.801316 -85.573563 
L 175.45626 -90.198023 
L 191.47748 -112.619649 
L 204.567769 -116.45001 
L 215.635452 -137.236726 
L 225.222714 -141.125476 
L 233.679279 -142.421727 
L 241.243934 -144.465365 
L 248.086996 -147.186322 
L 254.334223 -149.56862 
L 260.081115 -149.989025 
L 265.401906 -150.082449 
L 270.355443 -150.596278 
L 274.989168 -151.66948 
L 279.341883 -151.670647 
L 283.445733 -157.135919 
L 287.327641 -157.135919 
L 291.010388 -178.389751 
L 294.513415 -173.743103 
L 297.85345 -179.370698 
L 301.04499 -189.927546 
L 304.100677 -199.830431 
L 307.031607 -199.830431 
L 309.847569 -201.044936 
L 312.557242 -194.878989 
L 315.168359 -194.878989 
L 317.68784 -201.371918 
L 320.121897 -201.792323 
L 322.476135 -202.352864 
L 324.755622 -196.840881 
L 326.96496 -202.352864 
L 329.108337 -202.352864 
L 331.189579 -202.352864 
L 333.212187 -202.352864 
L 335.179373 -196.840881 
L 337.094095 -196.840881 
L 338.959078 -202.492999 
L 340.776842 -196.840881 
L 342.549717 -202.492999 
L 344.279869 -202.351696 
L 345.969307 -196.840881 
L 347.619904 -196.840881 
L 349.233406 -202.492999 
L 350.811444 -196.840881 
L 352.355542 -202.492999 
L 353.867131 -202.492999 
L 355.347551 -203.069889 
L 356.798061 -203.193675 
L 358.219847 -203.193675 
L 359.614023 -203.193675 
L 360.981642 -211.928767 
L 362.323696 -211.928767 
L 363.641124 -211.928767 
L 364.934813 -214.871605 
L 366.205604 -214.871605 
L 367.454294 -214.850585 
L 368.681636 -214.030794 
L 369.888351 -214.850585 
L 371.075119 -214.871605 
L 372.242589 -214.871605 
L 373.391378 -215.151875 
L 374.522076 -216.459804 
L 375.635243 -216.459804 
L 376.731414 -215.712416 
L 377.8111 -217.207191 
L 378.874791 -216.459804 
L 379.922953 -216.459804 
L 380.956033 -218.141426 
L 381.974459 -219.052304 
L 382.978641 -218.374984 
L 383.968971 -219.916471 
L 384.945827 -218.79539 
L 385.909571 -219.478549 
L 386.860549 -218.048002 
L 387.799096 -219.636201 
L 388.725532 -220.103318 
L 389.640166 -220.290165 
L 390.543295 -218.982236 
L 391.435205 -219.48322 
L 392.316171 -220.290165 
L 393.186458 -220.290165 
L 394.046323 -220.290165 
L 394.896011 -218.982236 
L 395.735761 -220.290165 
L 396.565803 -220.290165 
L 397.386358 -218.328272 
L 398.197642 -220.290165 
L 398.99986 -222.252057 
L 399.793214 -220.290165 
L 400.577898 -218.328272 
L 400.577898 -271.392787 
L 400.577898 -271.392787 
L 399.793214 -271.392787 
L 398.99986 -271.392787 
L 398.197642 -271.392787 
L 397.386358 -271.392787 
L 396.565803 -271.392787 
L 395.735761 -271.392787 
L 394.896011 -271.392787 
L 394.046323 -271.392787 
L 393.186458 -271.48621 
L 392.316171 -271.395122 
L 391.435205 -271.392787 
L 390.543295 -271.392787 
L 389.640166 -271.159228 
L 388.725532 -269.244048 
L 387.799096 -269.244048 
L 386.860549 -269.244048 
L 385.909571 -269.246383 
L 384.945827 -266.441344 
L 383.968971 -269.337471 
L 382.978641 -269.057201 
L 381.974459 -269.057201 
L 380.956033 -269.057201 
L 379.922953 -269.057201 
L 378.874791 -269.395861 
L 377.8111 -266.506741 
L 376.731414 -266.441344 
L 375.635243 -269.337471 
L 374.522076 -269.395861 
L 373.391378 -271.673057 
L 372.242589 -269.337471 
L 371.075119 -269.337471 
L 369.888351 -269.057201 
L 368.681636 -269.057201 
L 367.454294 -269.057201 
L 366.205604 -269.057201 
L 364.934813 -269.057201 
L 363.641124 -269.057201 
L 362.323696 -258.593775 
L 360.981642 -258.593775 
L 359.614023 -258.45364 
L 358.219847 -258.52254 
L 356.798061 -252.545775 
L 355.347551 -257.145712 
L 353.867131 -257.145712 
L 352.355542 -257.145712 
L 350.811444 -257.145712 
L 349.233406 -256.912153 
L 347.619904 -256.912153 
L 345.969307 -263.545218 
L 344.279869 -256.912153 
L 342.549717 -256.985724 
L 340.776842 -256.865442 
L 338.959078 -256.865442 
L 337.094095 -256.865442 
L 335.179373 -260.228686 
L 333.212187 -256.865442 
L 331.189579 -256.865442 
L 329.108337 -256.445036 
L 326.96496 -256.398325 
L 324.755622 -255.884496 
L 322.476135 -255.884496 
L 320.121897 -262.610983 
L 317.68784 -252.042457 
L 315.168359 -255.884496 
L 312.557242 -260.929361 
L 309.847569 -254.86618 
L 307.031607 -254.856838 
L 304.100677 -252.614675 
L 301.04499 -252.427828 
L 297.85345 -251.773864 
L 294.513415 -246.402016 
L 291.010388 -244.178538 
L 287.327641 -241.870979 
L 283.445733 -244.113142 
L 279.341883 -236.545843 
L 274.989168 -236.312285 
L 270.355443 -230.921752 
L 265.401906 -231.080572 
L 260.081115 -214.778182 
L 254.334223 -213.236695 
L 248.086996 -211.461649 
L 241.243934 -209.686604 
L 233.679279 -202.025882 
L 225.222714 -200.858089 
L 215.635452 -186.377456 
L 204.567769 -188.526195 
L 191.47748 -182.547095 
L 175.45626 -141.662661 
L 154.801316 -138.077537 
L 125.689806 -125.839066 
L 75.923352 -73.207803 
z
" id="m4f9692b93e" style="stroke:#98df8a;stroke-opacity:0.2;"/>
    </defs>
    <g clip-path="url(#pe8043d4d2e)">
     <use style="fill:#98df8a;fill-opacity:0.2;stroke:#98df8a;stroke-opacity:0.2;" x="0" xlink:href="#m4f9692b93e" y="325.986375"/>
    </g>
   </g>
   <g id="matplotlib.axis_1">
    <g id="xtick_1">
     <g id="line2d_1">
      <defs>
       <path d="M 0 0 
L 0 3.5 
" id="m70ab8ed745" style="stroke:#000000;stroke-width:0.8;"/>
      </defs>
      <g>
       <use style="stroke:#000000;stroke-width:0.8;" x="75.923352" xlink:href="#m70ab8ed745" y="288.430125"/>
      </g>
     </g>
     <g id="text_1">
      <!-- 14m -->
      <g transform="translate(64.69054 303.028562)scale(0.1 -0.1)">
       <defs>
        <path d="M 794 531 
L 1825 531 
L 1825 4091 
L 703 3866 
L 703 4441 
L 1819 4666 
L 2450 4666 
L 2450 531 
L 3481 531 
L 3481 0 
L 794 0 
L 794 531 
z
" id="DejaVuSans-31" transform="scale(0.015625)"/>
        <path d="M 2419 4116 
L 825 1625 
L 2419 1625 
L 2419 4116 
z
M 2253 4666 
L 3047 4666 
L 3047 1625 
L 3713 1625 
L 3713 1100 
L 3047 1100 
L 3047 0 
L 2419 0 
L 2419 1100 
L 313 1100 
L 313 1709 
L 2253 4666 
z
" id="DejaVuSans-34" transform="scale(0.015625)"/>
        <path d="M 3328 2828 
Q 3544 3216 3844 3400 
Q 4144 3584 4550 3584 
Q 5097 3584 5394 3201 
Q 5691 2819 5691 2113 
L 5691 0 
L 5113 0 
L 5113 2094 
Q 5113 2597 4934 2840 
Q 4756 3084 4391 3084 
Q 3944 3084 3684 2787 
Q 3425 2491 3425 1978 
L 3425 0 
L 2847 0 
L 2847 2094 
Q 2847 2600 2669 2842 
Q 2491 3084 2119 3084 
Q 1678 3084 1418 2786 
Q 1159 2488 1159 1978 
L 1159 0 
L 581 0 
L 581 3500 
L 1159 3500 
L 1159 2956 
Q 1356 3278 1631 3431 
Q 1906 3584 2284 3584 
Q 2666 3584 2933 3390 
Q 3200 3197 3328 2828 
z
" id="DejaVuSans-6d" transform="scale(0.015625)"/>
       </defs>
       <use xlink:href="#DejaVuSans-31"/>
       <use x="63.623047" xlink:href="#DejaVuSans-34"/>
       <use x="127.246094" xlink:href="#DejaVuSans-6d"/>
      </g>
     </g>
    </g>
    <g id="xtick_2">
     <g id="line2d_2">
      <g>
       <use style="stroke:#000000;stroke-width:0.8;" x="140.854435" xlink:href="#m70ab8ed745" y="288.430125"/>
      </g>
     </g>
     <g id="text_2">
      <!-- 37m -->
      <g transform="translate(129.621622 303.028562)scale(0.1 -0.1)">
       <defs>
        <path d="M 2597 2516 
Q 3050 2419 3304 2112 
Q 3559 1806 3559 1356 
Q 3559 666 3084 287 
Q 2609 -91 1734 -91 
Q 1441 -91 1130 -33 
Q 819 25 488 141 
L 488 750 
Q 750 597 1062 519 
Q 1375 441 1716 441 
Q 2309 441 2620 675 
Q 2931 909 2931 1356 
Q 2931 1769 2642 2001 
Q 2353 2234 1838 2234 
L 1294 2234 
L 1294 2753 
L 1863 2753 
Q 2328 2753 2575 2939 
Q 2822 3125 2822 3475 
Q 2822 3834 2567 4026 
Q 2313 4219 1838 4219 
Q 1578 4219 1281 4162 
Q 984 4106 628 3988 
L 628 4550 
Q 988 4650 1302 4700 
Q 1616 4750 1894 4750 
Q 2613 4750 3031 4423 
Q 3450 4097 3450 3541 
Q 3450 3153 3228 2886 
Q 3006 2619 2597 2516 
z
" id="DejaVuSans-33" transform="scale(0.015625)"/>
        <path d="M 525 4666 
L 3525 4666 
L 3525 4397 
L 1831 0 
L 1172 0 
L 2766 4134 
L 525 4134 
L 525 4666 
z
" id="DejaVuSans-37" transform="scale(0.015625)"/>
       </defs>
       <use xlink:href="#DejaVuSans-33"/>
       <use x="63.623047" xlink:href="#DejaVuSans-37"/>
       <use x="127.246094" xlink:href="#DejaVuSans-6d"/>
      </g>
     </g>
    </g>
    <g id="xtick_3">
     <g id="line2d_3">
      <g>
       <use style="stroke:#000000;stroke-width:0.8;" x="205.785517" xlink:href="#m70ab8ed745" y="288.430125"/>
      </g>
     </g>
     <g id="text_3">
      <!-- 1h:31m -->
      <g transform="translate(186.51833 303.028562)scale(0.1 -0.1)">
       <defs>
        <path d="M 3513 2113 
L 3513 0 
L 2938 0 
L 2938 2094 
Q 2938 2591 2744 2837 
Q 2550 3084 2163 3084 
Q 1697 3084 1428 2787 
Q 1159 2491 1159 1978 
L 1159 0 
L 581 0 
L 581 4863 
L 1159 4863 
L 1159 2956 
Q 1366 3272 1645 3428 
Q 1925 3584 2291 3584 
Q 2894 3584 3203 3211 
Q 3513 2838 3513 2113 
z
" id="DejaVuSans-68" transform="scale(0.015625)"/>
        <path d="M 750 794 
L 1409 794 
L 1409 0 
L 750 0 
L 750 794 
z
M 750 3309 
L 1409 3309 
L 1409 2516 
L 750 2516 
L 750 3309 
z
" id="DejaVuSans-3a" transform="scale(0.015625)"/>
       </defs>
       <use xlink:href="#DejaVuSans-31"/>
       <use x="63.623047" xlink:href="#DejaVuSans-68"/>
       <use x="127.001953" xlink:href="#DejaVuSans-3a"/>
       <use x="160.693359" xlink:href="#DejaVuSans-33"/>
       <use x="224.316406" xlink:href="#DejaVuSans-31"/>
       <use x="287.939453" xlink:href="#DejaVuSans-6d"/>
      </g>
     </g>
    </g>
    <g id="xtick_4">
     <g id="line2d_4">
      <g>
       <use style="stroke:#000000;stroke-width:0.8;" x="270.7166" xlink:href="#m70ab8ed745" y="288.430125"/>
      </g>
     </g>
     <g id="text_4">
      <!-- 3h:46m -->
      <g transform="translate(251.449412 303.028562)scale(0.1 -0.1)">
       <defs>
        <path d="M 2113 2584 
Q 1688 2584 1439 2293 
Q 1191 2003 1191 1497 
Q 1191 994 1439 701 
Q 1688 409 2113 409 
Q 2538 409 2786 701 
Q 3034 994 3034 1497 
Q 3034 2003 2786 2293 
Q 2538 2584 2113 2584 
z
M 3366 4563 
L 3366 3988 
Q 3128 4100 2886 4159 
Q 2644 4219 2406 4219 
Q 1781 4219 1451 3797 
Q 1122 3375 1075 2522 
Q 1259 2794 1537 2939 
Q 1816 3084 2150 3084 
Q 2853 3084 3261 2657 
Q 3669 2231 3669 1497 
Q 3669 778 3244 343 
Q 2819 -91 2113 -91 
Q 1303 -91 875 529 
Q 447 1150 447 2328 
Q 447 3434 972 4092 
Q 1497 4750 2381 4750 
Q 2619 4750 2861 4703 
Q 3103 4656 3366 4563 
z
" id="DejaVuSans-36" transform="scale(0.015625)"/>
       </defs>
       <use xlink:href="#DejaVuSans-33"/>
       <use x="63.623047" xlink:href="#DejaVuSans-68"/>
       <use x="127.001953" xlink:href="#DejaVuSans-3a"/>
       <use x="160.693359" xlink:href="#DejaVuSans-34"/>
       <use x="224.316406" xlink:href="#DejaVuSans-36"/>
       <use x="287.939453" xlink:href="#DejaVuSans-6d"/>
      </g>
     </g>
    </g>
    <g id="xtick_5">
     <g id="line2d_5">
      <g>
       <use style="stroke:#000000;stroke-width:0.8;" x="335.647682" xlink:href="#m70ab8ed745" y="288.430125"/>
      </g>
     </g>
     <g id="text_5">
      <!-- 9h:18m -->
      <g transform="translate(316.380495 303.028562)scale(0.1 -0.1)">
       <defs>
        <path d="M 703 97 
L 703 672 
Q 941 559 1184 500 
Q 1428 441 1663 441 
Q 2288 441 2617 861 
Q 2947 1281 2994 2138 
Q 2813 1869 2534 1725 
Q 2256 1581 1919 1581 
Q 1219 1581 811 2004 
Q 403 2428 403 3163 
Q 403 3881 828 4315 
Q 1253 4750 1959 4750 
Q 2769 4750 3195 4129 
Q 3622 3509 3622 2328 
Q 3622 1225 3098 567 
Q 2575 -91 1691 -91 
Q 1453 -91 1209 -44 
Q 966 3 703 97 
z
M 1959 2075 
Q 2384 2075 2632 2365 
Q 2881 2656 2881 3163 
Q 2881 3666 2632 3958 
Q 2384 4250 1959 4250 
Q 1534 4250 1286 3958 
Q 1038 3666 1038 3163 
Q 1038 2656 1286 2365 
Q 1534 2075 1959 2075 
z
" id="DejaVuSans-39" transform="scale(0.015625)"/>
        <path d="M 2034 2216 
Q 1584 2216 1326 1975 
Q 1069 1734 1069 1313 
Q 1069 891 1326 650 
Q 1584 409 2034 409 
Q 2484 409 2743 651 
Q 3003 894 3003 1313 
Q 3003 1734 2745 1975 
Q 2488 2216 2034 2216 
z
M 1403 2484 
Q 997 2584 770 2862 
Q 544 3141 544 3541 
Q 544 4100 942 4425 
Q 1341 4750 2034 4750 
Q 2731 4750 3128 4425 
Q 3525 4100 3525 3541 
Q 3525 3141 3298 2862 
Q 3072 2584 2669 2484 
Q 3125 2378 3379 2068 
Q 3634 1759 3634 1313 
Q 3634 634 3220 271 
Q 2806 -91 2034 -91 
Q 1263 -91 848 271 
Q 434 634 434 1313 
Q 434 1759 690 2068 
Q 947 2378 1403 2484 
z
M 1172 3481 
Q 1172 3119 1398 2916 
Q 1625 2713 2034 2713 
Q 2441 2713 2670 2916 
Q 2900 3119 2900 3481 
Q 2900 3844 2670 4047 
Q 2441 4250 2034 4250 
Q 1625 4250 1398 4047 
Q 1172 3844 1172 3481 
z
" id="DejaVuSans-38" transform="scale(0.015625)"/>
       </defs>
       <use xlink:href="#DejaVuSans-39"/>
       <use x="63.623047" xlink:href="#DejaVuSans-68"/>
       <use x="127.001953" xlink:href="#DejaVuSans-3a"/>
       <use x="160.693359" xlink:href="#DejaVuSans-31"/>
       <use x="224.316406" xlink:href="#DejaVuSans-38"/>
       <use x="287.939453" xlink:href="#DejaVuSans-6d"/>
      </g>
     </g>
    </g>
    <g id="xtick_6">
     <g id="line2d_6">
      <g>
       <use style="stroke:#000000;stroke-width:0.8;" x="400.578765" xlink:href="#m70ab8ed745" y="288.430125"/>
      </g>
     </g>
     <g id="text_6">
      <!-- 23h -->
      <g transform="translate(391.047515 303.028562)scale(0.1 -0.1)">
       <defs>
        <path d="M 1228 531 
L 3431 531 
L 3431 0 
L 469 0 
L 469 531 
Q 828 903 1448 1529 
Q 2069 2156 2228 2338 
Q 2531 2678 2651 2914 
Q 2772 3150 2772 3378 
Q 2772 3750 2511 3984 
Q 2250 4219 1831 4219 
Q 1534 4219 1204 4116 
Q 875 4013 500 3803 
L 500 4441 
Q 881 4594 1212 4672 
Q 1544 4750 1819 4750 
Q 2544 4750 2975 4387 
Q 3406 4025 3406 3419 
Q 3406 3131 3298 2873 
Q 3191 2616 2906 2266 
Q 2828 2175 2409 1742 
Q 1991 1309 1228 531 
z
" id="DejaVuSans-32" transform="scale(0.015625)"/>
       </defs>
       <use xlink:href="#DejaVuSans-32"/>
       <use x="63.623047" xlink:href="#DejaVuSans-33"/>
       <use x="127.246094" xlink:href="#DejaVuSans-68"/>
      </g>
     </g>
    </g>
    <g id="xtick_7">
     <g id="line2d_7">
      <defs>
       <path d="M 0 0 
L 0 2 
" id="m32b532c4d8" style="stroke:#000000;stroke-width:0.6;"/>
      </defs>
      <g>
       <use style="stroke:#000000;stroke-width:0.6;" x="67.466788" xlink:href="#m32b532c4d8" y="288.430125"/>
      </g>
     </g>
    </g>
    <g id="xtick_8">
     <g id="line2d_8">
      <g>
       <use style="stroke:#000000;stroke-width:0.6;" x="133.254461" xlink:href="#m32b532c4d8" y="288.430125"/>
      </g>
     </g>
    </g>
    <g id="xtick_9">
     <g id="line2d_9">
      <g>
       <use style="stroke:#000000;stroke-width:0.6;" x="162.36597" xlink:href="#m32b532c4d8" y="288.430125"/>
      </g>
     </g>
    </g>
    <g id="xtick_10">
     <g id="line2d_10">
      <g>
       <use style="stroke:#000000;stroke-width:0.6;" x="183.020915" xlink:href="#m32b532c4d8" y="288.430125"/>
      </g>
     </g>
    </g>
    <g id="xtick_11">
     <g id="line2d_11">
      <g>
       <use style="stroke:#000000;stroke-width:0.6;" x="199.042135" xlink:href="#m32b532c4d8" y="288.430125"/>
      </g>
     </g>
    </g>
    <g id="xtick_12">
     <g id="line2d_12">
      <g>
       <use style="stroke:#000000;stroke-width:0.6;" x="212.132424" xlink:href="#m32b532c4d8" y="288.430125"/>
      </g>
     </g>
    </g>
    <g id="xtick_13">
     <g id="line2d_13">
      <g>
       <use style="stroke:#000000;stroke-width:0.6;" x="223.200107" xlink:href="#m32b532c4d8" y="288.430125"/>
      </g>
     </g>
    </g>
    <g id="xtick_14">
     <g id="line2d_14">
      <g>
       <use style="stroke:#000000;stroke-width:0.6;" x="232.787369" xlink:href="#m32b532c4d8" y="288.430125"/>
      </g>
     </g>
    </g>
    <g id="xtick_15">
     <g id="line2d_15">
      <g>
       <use style="stroke:#000000;stroke-width:0.6;" x="241.243934" xlink:href="#m32b532c4d8" y="288.430125"/>
      </g>
     </g>
    </g>
    <g id="xtick_16">
     <g id="line2d_16">
      <g>
       <use style="stroke:#000000;stroke-width:0.6;" x="298.575043" xlink:href="#m32b532c4d8" y="288.430125"/>
      </g>
     </g>
    </g>
    <g id="xtick_17">
     <g id="line2d_17">
      <g>
       <use style="stroke:#000000;stroke-width:0.6;" x="327.686552" xlink:href="#m32b532c4d8" y="288.430125"/>
      </g>
     </g>
    </g>
    <g id="xtick_18">
     <g id="line2d_18">
      <g>
       <use style="stroke:#000000;stroke-width:0.6;" x="348.341496" xlink:href="#m32b532c4d8" y="288.430125"/>
      </g>
     </g>
    </g>
    <g id="xtick_19">
     <g id="line2d_19">
      <g>
       <use style="stroke:#000000;stroke-width:0.6;" x="364.362716" xlink:href="#m32b532c4d8" y="288.430125"/>
      </g>
     </g>
    </g>
    <g id="xtick_20">
     <g id="line2d_20">
      <g>
       <use style="stroke:#000000;stroke-width:0.6;" x="377.453006" xlink:href="#m32b532c4d8" y="288.430125"/>
      </g>
     </g>
    </g>
    <g id="xtick_21">
     <g id="line2d_21">
      <g>
       <use style="stroke:#000000;stroke-width:0.6;" x="388.520688" xlink:href="#m32b532c4d8" y="288.430125"/>
      </g>
     </g>
    </g>
    <g id="xtick_22">
     <g id="line2d_22">
      <g>
       <use style="stroke:#000000;stroke-width:0.6;" x="398.10795" xlink:href="#m32b532c4d8" y="288.430125"/>
      </g>
     </g>
    </g>
    <g id="xtick_23">
     <g id="line2d_23">
      <g>
       <use style="stroke:#000000;stroke-width:0.6;" x="406.564515" xlink:href="#m32b532c4d8" y="288.430125"/>
      </g>
     </g>
    </g>
    <g id="text_7">
     <!-- Time (hour:minute) -->
     <g transform="translate(189.843594 316.706687)scale(0.1 -0.1)">
      <defs>
       <path d="M -19 4666 
L 3928 4666 
L 3928 4134 
L 2272 4134 
L 2272 0 
L 1638 0 
L 1638 4134 
L -19 4134 
L -19 4666 
z
" id="DejaVuSans-54" transform="scale(0.015625)"/>
       <path d="M 603 3500 
L 1178 3500 
L 1178 0 
L 603 0 
L 603 3500 
z
M 603 4863 
L 1178 4863 
L 1178 4134 
L 603 4134 
L 603 4863 
z
" id="DejaVuSans-69" transform="scale(0.015625)"/>
       <path d="M 3597 1894 
L 3597 1613 
L 953 1613 
Q 991 1019 1311 708 
Q 1631 397 2203 397 
Q 2534 397 2845 478 
Q 3156 559 3463 722 
L 3463 178 
Q 3153 47 2828 -22 
Q 2503 -91 2169 -91 
Q 1331 -91 842 396 
Q 353 884 353 1716 
Q 353 2575 817 3079 
Q 1281 3584 2069 3584 
Q 2775 3584 3186 3129 
Q 3597 2675 3597 1894 
z
M 3022 2063 
Q 3016 2534 2758 2815 
Q 2500 3097 2075 3097 
Q 1594 3097 1305 2825 
Q 1016 2553 972 2059 
L 3022 2063 
z
" id="DejaVuSans-65" transform="scale(0.015625)"/>
       <path id="DejaVuSans-20" transform="scale(0.015625)"/>
       <path d="M 1984 4856 
Q 1566 4138 1362 3434 
Q 1159 2731 1159 2009 
Q 1159 1288 1364 580 
Q 1569 -128 1984 -844 
L 1484 -844 
Q 1016 -109 783 600 
Q 550 1309 550 2009 
Q 550 2706 781 3412 
Q 1013 4119 1484 4856 
L 1984 4856 
z
" id="DejaVuSans-28" transform="scale(0.015625)"/>
       <path d="M 1959 3097 
Q 1497 3097 1228 2736 
Q 959 2375 959 1747 
Q 959 1119 1226 758 
Q 1494 397 1959 397 
Q 2419 397 2687 759 
Q 2956 1122 2956 1747 
Q 2956 2369 2687 2733 
Q 2419 3097 1959 3097 
z
M 1959 3584 
Q 2709 3584 3137 3096 
Q 3566 2609 3566 1747 
Q 3566 888 3137 398 
Q 2709 -91 1959 -91 
Q 1206 -91 779 398 
Q 353 888 353 1747 
Q 353 2609 779 3096 
Q 1206 3584 1959 3584 
z
" id="DejaVuSans-6f" transform="scale(0.015625)"/>
       <path d="M 544 1381 
L 544 3500 
L 1119 3500 
L 1119 1403 
Q 1119 906 1312 657 
Q 1506 409 1894 409 
Q 2359 409 2629 706 
Q 2900 1003 2900 1516 
L 2900 3500 
L 3475 3500 
L 3475 0 
L 2900 0 
L 2900 538 
Q 2691 219 2414 64 
Q 2138 -91 1772 -91 
Q 1169 -91 856 284 
Q 544 659 544 1381 
z
M 1991 3584 
L 1991 3584 
z
" id="DejaVuSans-75" transform="scale(0.015625)"/>
       <path d="M 2631 2963 
Q 2534 3019 2420 3045 
Q 2306 3072 2169 3072 
Q 1681 3072 1420 2755 
Q 1159 2438 1159 1844 
L 1159 0 
L 581 0 
L 581 3500 
L 1159 3500 
L 1159 2956 
Q 1341 3275 1631 3429 
Q 1922 3584 2338 3584 
Q 2397 3584 2469 3576 
Q 2541 3569 2628 3553 
L 2631 2963 
z
" id="DejaVuSans-72" transform="scale(0.015625)"/>
       <path d="M 3513 2113 
L 3513 0 
L 2938 0 
L 2938 2094 
Q 2938 2591 2744 2837 
Q 2550 3084 2163 3084 
Q 1697 3084 1428 2787 
Q 1159 2491 1159 1978 
L 1159 0 
L 581 0 
L 581 3500 
L 1159 3500 
L 1159 2956 
Q 1366 3272 1645 3428 
Q 1925 3584 2291 3584 
Q 2894 3584 3203 3211 
Q 3513 2838 3513 2113 
z
" id="DejaVuSans-6e" transform="scale(0.015625)"/>
       <path d="M 1172 4494 
L 1172 3500 
L 2356 3500 
L 2356 3053 
L 1172 3053 
L 1172 1153 
Q 1172 725 1289 603 
Q 1406 481 1766 481 
L 2356 481 
L 2356 0 
L 1766 0 
Q 1100 0 847 248 
Q 594 497 594 1153 
L 594 3053 
L 172 3053 
L 172 3500 
L 594 3500 
L 594 4494 
L 1172 4494 
z
" id="DejaVuSans-74" transform="scale(0.015625)"/>
       <path d="M 513 4856 
L 1013 4856 
Q 1481 4119 1714 3412 
Q 1947 2706 1947 2009 
Q 1947 1309 1714 600 
Q 1481 -109 1013 -844 
L 513 -844 
Q 928 -128 1133 580 
Q 1338 1288 1338 2009 
Q 1338 2731 1133 3434 
Q 928 4138 513 4856 
z
" id="DejaVuSans-29" transform="scale(0.015625)"/>
      </defs>
      <use xlink:href="#DejaVuSans-54"/>
      <use x="57.958984" xlink:href="#DejaVuSans-69"/>
      <use x="85.742188" xlink:href="#DejaVuSans-6d"/>
      <use x="183.154297" xlink:href="#DejaVuSans-65"/>
      <use x="244.677734" xlink:href="#DejaVuSans-20"/>
      <use x="276.464844" xlink:href="#DejaVuSans-28"/>
      <use x="315.478516" xlink:href="#DejaVuSans-68"/>
      <use x="378.857422" xlink:href="#DejaVuSans-6f"/>
      <use x="440.039062" xlink:href="#DejaVuSans-75"/>
      <use x="503.417969" xlink:href="#DejaVuSans-72"/>
      <use x="542.78125" xlink:href="#DejaVuSans-3a"/>
      <use x="576.472656" xlink:href="#DejaVuSans-6d"/>
      <use x="673.884766" xlink:href="#DejaVuSans-69"/>
      <use x="701.667969" xlink:href="#DejaVuSans-6e"/>
      <use x="765.046875" xlink:href="#DejaVuSans-75"/>
      <use x="828.425781" xlink:href="#DejaVuSans-74"/>
      <use x="867.634766" xlink:href="#DejaVuSans-65"/>
      <use x="929.158203" xlink:href="#DejaVuSans-29"/>
     </g>
    </g>
   </g>
   <g id="matplotlib.axis_2">
    <g id="ytick_1">
     <g id="line2d_24">
      <defs>
       <path d="M 0 0 
L -3.5 0 
" id="mced2f7b72a" style="stroke:#000000;stroke-width:0.8;"/>
      </defs>
      <g>
       <use style="stroke:#000000;stroke-width:0.8;" x="59.690625" xlink:href="#mced2f7b72a" y="270.121466"/>
      </g>
     </g>
     <g id="text_8">
      <!-- 7500 -->
      <g transform="translate(27.240625 273.920685)scale(0.1 -0.1)">
       <defs>
        <path d="M 691 4666 
L 3169 4666 
L 3169 4134 
L 1269 4134 
L 1269 2991 
Q 1406 3038 1543 3061 
Q 1681 3084 1819 3084 
Q 2600 3084 3056 2656 
Q 3513 2228 3513 1497 
Q 3513 744 3044 326 
Q 2575 -91 1722 -91 
Q 1428 -91 1123 -41 
Q 819 9 494 109 
L 494 744 
Q 775 591 1075 516 
Q 1375 441 1709 441 
Q 2250 441 2565 725 
Q 2881 1009 2881 1497 
Q 2881 1984 2565 2268 
Q 2250 2553 1709 2553 
Q 1456 2553 1204 2497 
Q 953 2441 691 2322 
L 691 4666 
z
" id="DejaVuSans-35" transform="scale(0.015625)"/>
        <path d="M 2034 4250 
Q 1547 4250 1301 3770 
Q 1056 3291 1056 2328 
Q 1056 1369 1301 889 
Q 1547 409 2034 409 
Q 2525 409 2770 889 
Q 3016 1369 3016 2328 
Q 3016 3291 2770 3770 
Q 2525 4250 2034 4250 
z
M 2034 4750 
Q 2819 4750 3233 4129 
Q 3647 3509 3647 2328 
Q 3647 1150 3233 529 
Q 2819 -91 2034 -91 
Q 1250 -91 836 529 
Q 422 1150 422 2328 
Q 422 3509 836 4129 
Q 1250 4750 2034 4750 
z
" id="DejaVuSans-30" transform="scale(0.015625)"/>
       </defs>
       <use xlink:href="#DejaVuSans-37"/>
       <use x="63.623047" xlink:href="#DejaVuSans-35"/>
       <use x="127.246094" xlink:href="#DejaVuSans-30"/>
       <use x="190.869141" xlink:href="#DejaVuSans-30"/>
      </g>
     </g>
    </g>
    <g id="ytick_2">
     <g id="line2d_25">
      <g>
       <use style="stroke:#000000;stroke-width:0.8;" x="59.690625" xlink:href="#mced2f7b72a" y="223.409746"/>
      </g>
     </g>
     <g id="text_9">
      <!-- 8000 -->
      <g transform="translate(27.240625 227.208965)scale(0.1 -0.1)">
       <use xlink:href="#DejaVuSans-38"/>
       <use x="63.623047" xlink:href="#DejaVuSans-30"/>
       <use x="127.246094" xlink:href="#DejaVuSans-30"/>
       <use x="190.869141" xlink:href="#DejaVuSans-30"/>
      </g>
     </g>
    </g>
    <g id="ytick_3">
     <g id="line2d_26">
      <g>
       <use style="stroke:#000000;stroke-width:0.8;" x="59.690625" xlink:href="#mced2f7b72a" y="176.698025"/>
      </g>
     </g>
     <g id="text_10">
      <!-- 8500 -->
      <g transform="translate(27.240625 180.497244)scale(0.1 -0.1)">
       <use xlink:href="#DejaVuSans-38"/>
       <use x="63.623047" xlink:href="#DejaVuSans-35"/>
       <use x="127.246094" xlink:href="#DejaVuSans-30"/>
       <use x="190.869141" xlink:href="#DejaVuSans-30"/>
      </g>
     </g>
    </g>
    <g id="ytick_4">
     <g id="line2d_27">
      <g>
       <use style="stroke:#000000;stroke-width:0.8;" x="59.690625" xlink:href="#mced2f7b72a" y="129.986305"/>
      </g>
     </g>
     <g id="text_11">
      <!-- 9000 -->
      <g transform="translate(27.240625 133.785524)scale(0.1 -0.1)">
       <use xlink:href="#DejaVuSans-39"/>
       <use x="63.623047" xlink:href="#DejaVuSans-30"/>
       <use x="127.246094" xlink:href="#DejaVuSans-30"/>
       <use x="190.869141" xlink:href="#DejaVuSans-30"/>
      </g>
     </g>
    </g>
    <g id="ytick_5">
     <g id="line2d_28">
      <g>
       <use style="stroke:#000000;stroke-width:0.8;" x="59.690625" xlink:href="#mced2f7b72a" y="83.274585"/>
      </g>
     </g>
     <g id="text_12">
      <!-- 9500 -->
      <g transform="translate(27.240625 87.073803)scale(0.1 -0.1)">
       <use xlink:href="#DejaVuSans-39"/>
       <use x="63.623047" xlink:href="#DejaVuSans-35"/>
       <use x="127.246094" xlink:href="#DejaVuSans-30"/>
       <use x="190.869141" xlink:href="#DejaVuSans-30"/>
      </g>
     </g>
    </g>
    <g id="ytick_6">
     <g id="line2d_29">
      <g>
       <use style="stroke:#000000;stroke-width:0.8;" x="59.690625" xlink:href="#mced2f7b72a" y="36.562864"/>
      </g>
     </g>
     <g id="text_13">
      <!-- 10000 -->
      <g transform="translate(20.878125 40.362083)scale(0.1 -0.1)">
       <use xlink:href="#DejaVuSans-31"/>
       <use x="63.623047" xlink:href="#DejaVuSans-30"/>
       <use x="127.246094" xlink:href="#DejaVuSans-30"/>
       <use x="190.869141" xlink:href="#DejaVuSans-30"/>
       <use x="254.492188" xlink:href="#DejaVuSans-30"/>
      </g>
     </g>
    </g>
    <g id="text_14">
     <!-- Code region coverage -->
     <g transform="translate(14.798438 210.379594)rotate(-90)scale(0.1 -0.1)">
      <defs>
       <path d="M 4122 4306 
L 4122 3641 
Q 3803 3938 3442 4084 
Q 3081 4231 2675 4231 
Q 1875 4231 1450 3742 
Q 1025 3253 1025 2328 
Q 1025 1406 1450 917 
Q 1875 428 2675 428 
Q 3081 428 3442 575 
Q 3803 722 4122 1019 
L 4122 359 
Q 3791 134 3420 21 
Q 3050 -91 2638 -91 
Q 1578 -91 968 557 
Q 359 1206 359 2328 
Q 359 3453 968 4101 
Q 1578 4750 2638 4750 
Q 3056 4750 3426 4639 
Q 3797 4528 4122 4306 
z
" id="DejaVuSans-43" transform="scale(0.015625)"/>
       <path d="M 2906 2969 
L 2906 4863 
L 3481 4863 
L 3481 0 
L 2906 0 
L 2906 525 
Q 2725 213 2448 61 
Q 2172 -91 1784 -91 
Q 1150 -91 751 415 
Q 353 922 353 1747 
Q 353 2572 751 3078 
Q 1150 3584 1784 3584 
Q 2172 3584 2448 3432 
Q 2725 3281 2906 2969 
z
M 947 1747 
Q 947 1113 1208 752 
Q 1469 391 1925 391 
Q 2381 391 2643 752 
Q 2906 1113 2906 1747 
Q 2906 2381 2643 2742 
Q 2381 3103 1925 3103 
Q 1469 3103 1208 2742 
Q 947 2381 947 1747 
z
" id="DejaVuSans-64" transform="scale(0.015625)"/>
       <path d="M 2906 1791 
Q 2906 2416 2648 2759 
Q 2391 3103 1925 3103 
Q 1463 3103 1205 2759 
Q 947 2416 947 1791 
Q 947 1169 1205 825 
Q 1463 481 1925 481 
Q 2391 481 2648 825 
Q 2906 1169 2906 1791 
z
M 3481 434 
Q 3481 -459 3084 -895 
Q 2688 -1331 1869 -1331 
Q 1566 -1331 1297 -1286 
Q 1028 -1241 775 -1147 
L 775 -588 
Q 1028 -725 1275 -790 
Q 1522 -856 1778 -856 
Q 2344 -856 2625 -561 
Q 2906 -266 2906 331 
L 2906 616 
Q 2728 306 2450 153 
Q 2172 0 1784 0 
Q 1141 0 747 490 
Q 353 981 353 1791 
Q 353 2603 747 3093 
Q 1141 3584 1784 3584 
Q 2172 3584 2450 3431 
Q 2728 3278 2906 2969 
L 2906 3500 
L 3481 3500 
L 3481 434 
z
" id="DejaVuSans-67" transform="scale(0.015625)"/>
       <path d="M 3122 3366 
L 3122 2828 
Q 2878 2963 2633 3030 
Q 2388 3097 2138 3097 
Q 1578 3097 1268 2742 
Q 959 2388 959 1747 
Q 959 1106 1268 751 
Q 1578 397 2138 397 
Q 2388 397 2633 464 
Q 2878 531 3122 666 
L 3122 134 
Q 2881 22 2623 -34 
Q 2366 -91 2075 -91 
Q 1284 -91 818 406 
Q 353 903 353 1747 
Q 353 2603 823 3093 
Q 1294 3584 2113 3584 
Q 2378 3584 2631 3529 
Q 2884 3475 3122 3366 
z
" id="DejaVuSans-63" transform="scale(0.015625)"/>
       <path d="M 191 3500 
L 800 3500 
L 1894 563 
L 2988 3500 
L 3597 3500 
L 2284 0 
L 1503 0 
L 191 3500 
z
" id="DejaVuSans-76" transform="scale(0.015625)"/>
       <path d="M 2194 1759 
Q 1497 1759 1228 1600 
Q 959 1441 959 1056 
Q 959 750 1161 570 
Q 1363 391 1709 391 
Q 2188 391 2477 730 
Q 2766 1069 2766 1631 
L 2766 1759 
L 2194 1759 
z
M 3341 1997 
L 3341 0 
L 2766 0 
L 2766 531 
Q 2569 213 2275 61 
Q 1981 -91 1556 -91 
Q 1019 -91 701 211 
Q 384 513 384 1019 
Q 384 1609 779 1909 
Q 1175 2209 1959 2209 
L 2766 2209 
L 2766 2266 
Q 2766 2663 2505 2880 
Q 2244 3097 1772 3097 
Q 1472 3097 1187 3025 
Q 903 2953 641 2809 
L 641 3341 
Q 956 3463 1253 3523 
Q 1550 3584 1831 3584 
Q 2591 3584 2966 3190 
Q 3341 2797 3341 1997 
z
" id="DejaVuSans-61" transform="scale(0.015625)"/>
      </defs>
      <use xlink:href="#DejaVuSans-43"/>
      <use x="69.824219" xlink:href="#DejaVuSans-6f"/>
      <use x="131.005859" xlink:href="#DejaVuSans-64"/>
      <use x="194.482422" xlink:href="#DejaVuSans-65"/>
      <use x="256.005859" xlink:href="#DejaVuSans-20"/>
      <use x="287.792969" xlink:href="#DejaVuSans-72"/>
      <use x="326.65625" xlink:href="#DejaVuSans-65"/>
      <use x="388.179688" xlink:href="#DejaVuSans-67"/>
      <use x="451.65625" xlink:href="#DejaVuSans-69"/>
      <use x="479.439453" xlink:href="#DejaVuSans-6f"/>
      <use x="540.621094" xlink:href="#DejaVuSans-6e"/>
      <use x="604" xlink:href="#DejaVuSans-20"/>
      <use x="635.787109" xlink:href="#DejaVuSans-63"/>
      <use x="690.767578" xlink:href="#DejaVuSans-6f"/>
      <use x="751.949219" xlink:href="#DejaVuSans-76"/>
      <use x="811.128906" xlink:href="#DejaVuSans-65"/>
      <use x="872.652344" xlink:href="#DejaVuSans-72"/>
      <use x="913.765625" xlink:href="#DejaVuSans-61"/>
      <use x="975.044922" xlink:href="#DejaVuSans-67"/>
      <use x="1038.521484" xlink:href="#DejaVuSans-65"/>
     </g>
    </g>
   </g>
   <g id="line2d_30">
    <path clip-path="url(#pe8043d4d2e)" d="M 75.923352 250.12885 
L 125.689806 196.36366 
L 154.801316 189.31019 
L 175.45626 176.27762 
L 191.47748 167.962934 
L 204.567769 166.561582 
L 215.635452 148.951263 
L 225.222714 148.951263 
L 233.679279 148.717705 
L 241.243934 142.505046 
L 248.086996 141.944505 
L 254.334223 139.328649 
L 260.081115 136.292387 
L 265.401906 127.884278 
L 270.355443 127.697431 
L 274.989168 127.650719 
L 279.341883 118.44851 
L 283.445733 118.214951 
L 287.327641 117.514276 
L 291.010388 107.798238 
L 294.513415 105.13567 
L 297.85345 104.995535 
L 301.04499 104.995535 
L 304.100677 90.047784 
L 307.031607 90.001072 
L 309.847569 88.085892 
L 312.557242 88.03918 
L 315.168359 87.75891 
L 317.68784 87.431928 
L 320.121897 86.544405 
L 322.476135 86.544405 
L 324.755622 79.163953 
L 326.96496 79.117241 
L 329.108337 78.930395 
L 331.189579 60.712824 
L 333.212187 60.385842 
L 335.179373 60.385842 
L 337.094095 59.451607 
L 338.959078 59.171337 
L 340.776842 59.171337 
L 342.549717 59.077913 
L 344.279869 55.948228 
L 345.969307 55.71467 
L 347.619904 55.481111 
L 349.233406 55.294264 
L 350.811444 55.294264 
L 352.355542 55.294264 
L 353.867131 53.799489 
L 355.347551 53.659354 
L 356.798061 53.659354 
L 358.219847 53.472507 
L 359.614023 53.472507 
L 360.981642 53.379083 
L 362.323696 53.379083 
L 363.641124 53.379083 
L 364.934813 51.65075 
L 366.205604 51.463903 
L 367.454294 50.342822 
L 368.681636 49.875704 
L 369.888351 49.875704 
L 371.075119 49.595434 
L 372.242589 49.595434 
L 373.391378 49.408587 
L 374.522076 49.361876 
L 375.635243 49.361876 
L 376.731414 49.361876 
L 377.8111 46.325614 
L 378.874791 46.138767 
L 379.922953 46.138767 
L 380.956033 46.092055 
L 381.974459 45.578226 
L 382.978641 45.297956 
L 383.968971 45.111109 
L 384.945827 45.064397 
L 385.909571 44.924262 
L 386.860549 44.924262 
L 387.799096 44.924262 
L 388.725532 44.924262 
L 389.640166 44.784127 
L 390.543295 44.784127 
L 391.435205 44.784127 
L 392.316171 44.503857 
L 393.186458 44.503857 
L 394.046323 44.31701 
L 394.896011 44.31701 
L 395.735761 44.31701 
L 396.565803 44.31701 
L 397.386358 44.31701 
L 398.197642 44.31701 
L 398.99986 44.31701 
L 399.793214 44.31701 
L 400.577898 44.31701 
" style="fill:none;stroke:#1f77b4;stroke-linecap:square;stroke-width:1.5;"/>
    <defs>
     <path d="M 0 3 
C 0.795609 3 1.55874 2.683901 2.12132 2.12132 
C 2.683901 1.55874 3 0.795609 3 0 
C 3 -0.795609 2.683901 -1.55874 2.12132 -2.12132 
C 1.55874 -2.683901 0.795609 -3 0 -3 
C -0.795609 -3 -1.55874 -2.683901 -2.12132 -2.12132 
C -2.683901 -1.55874 -3 -0.795609 -3 0 
C -3 0.795609 -2.683901 1.55874 -2.12132 2.12132 
C -1.55874 2.683901 -0.795609 3 0 3 
z
" id="m69625ebfcd" style="stroke:#ffffff;stroke-width:0.75;"/>
    </defs>
    <g clip-path="url(#pe8043d4d2e)">
     <use style="fill:#1f77b4;stroke:#ffffff;stroke-width:0.75;" x="75.923352" xlink:href="#m69625ebfcd" y="250.12885"/>
     <use style="fill:#1f77b4;stroke:#ffffff;stroke-width:0.75;" x="125.689806" xlink:href="#m69625ebfcd" y="196.36366"/>
     <use style="fill:#1f77b4;stroke:#ffffff;stroke-width:0.75;" x="154.801316" xlink:href="#m69625ebfcd" y="189.31019"/>
     <use style="fill:#1f77b4;stroke:#ffffff;stroke-width:0.75;" x="175.45626" xlink:href="#m69625ebfcd" y="176.27762"/>
     <use style="fill:#1f77b4;stroke:#ffffff;stroke-width:0.75;" x="191.47748" xlink:href="#m69625ebfcd" y="167.962934"/>
     <use style="fill:#1f77b4;stroke:#ffffff;stroke-width:0.75;" x="204.567769" xlink:href="#m69625ebfcd" y="166.561582"/>
     <use style="fill:#1f77b4;stroke:#ffffff;stroke-width:0.75;" x="215.635452" xlink:href="#m69625ebfcd" y="148.951263"/>
     <use style="fill:#1f77b4;stroke:#ffffff;stroke-width:0.75;" x="225.222714" xlink:href="#m69625ebfcd" y="148.951263"/>
     <use style="fill:#1f77b4;stroke:#ffffff;stroke-width:0.75;" x="233.679279" xlink:href="#m69625ebfcd" y="148.717705"/>
     <use style="fill:#1f77b4;stroke:#ffffff;stroke-width:0.75;" x="241.243934" xlink:href="#m69625ebfcd" y="142.505046"/>
     <use style="fill:#1f77b4;stroke:#ffffff;stroke-width:0.75;" x="248.086996" xlink:href="#m69625ebfcd" y="141.944505"/>
     <use style="fill:#1f77b4;stroke:#ffffff;stroke-width:0.75;" x="254.334223" xlink:href="#m69625ebfcd" y="139.328649"/>
     <use style="fill:#1f77b4;stroke:#ffffff;stroke-width:0.75;" x="260.081115" xlink:href="#m69625ebfcd" y="136.292387"/>
     <use style="fill:#1f77b4;stroke:#ffffff;stroke-width:0.75;" x="265.401906" xlink:href="#m69625ebfcd" y="127.884278"/>
     <use style="fill:#1f77b4;stroke:#ffffff;stroke-width:0.75;" x="270.355443" xlink:href="#m69625ebfcd" y="127.697431"/>
     <use style="fill:#1f77b4;stroke:#ffffff;stroke-width:0.75;" x="274.989168" xlink:href="#m69625ebfcd" y="127.650719"/>
     <use style="fill:#1f77b4;stroke:#ffffff;stroke-width:0.75;" x="279.341883" xlink:href="#m69625ebfcd" y="118.44851"/>
     <use style="fill:#1f77b4;stroke:#ffffff;stroke-width:0.75;" x="283.445733" xlink:href="#m69625ebfcd" y="118.214951"/>
     <use style="fill:#1f77b4;stroke:#ffffff;stroke-width:0.75;" x="287.327641" xlink:href="#m69625ebfcd" y="117.514276"/>
     <use style="fill:#1f77b4;stroke:#ffffff;stroke-width:0.75;" x="291.010388" xlink:href="#m69625ebfcd" y="107.798238"/>
     <use style="fill:#1f77b4;stroke:#ffffff;stroke-width:0.75;" x="294.513415" xlink:href="#m69625ebfcd" y="105.13567"/>
     <use style="fill:#1f77b4;stroke:#ffffff;stroke-width:0.75;" x="297.85345" xlink:href="#m69625ebfcd" y="104.995535"/>
     <use style="fill:#1f77b4;stroke:#ffffff;stroke-width:0.75;" x="301.04499" xlink:href="#m69625ebfcd" y="104.995535"/>
     <use style="fill:#1f77b4;stroke:#ffffff;stroke-width:0.75;" x="304.100677" xlink:href="#m69625ebfcd" y="90.047784"/>
     <use style="fill:#1f77b4;stroke:#ffffff;stroke-width:0.75;" x="307.031607" xlink:href="#m69625ebfcd" y="90.001072"/>
     <use style="fill:#1f77b4;stroke:#ffffff;stroke-width:0.75;" x="309.847569" xlink:href="#m69625ebfcd" y="88.085892"/>
     <use style="fill:#1f77b4;stroke:#ffffff;stroke-width:0.75;" x="312.557242" xlink:href="#m69625ebfcd" y="88.03918"/>
     <use style="fill:#1f77b4;stroke:#ffffff;stroke-width:0.75;" x="315.168359" xlink:href="#m69625ebfcd" y="87.75891"/>
     <use style="fill:#1f77b4;stroke:#ffffff;stroke-width:0.75;" x="317.68784" xlink:href="#m69625ebfcd" y="87.431928"/>
     <use style="fill:#1f77b4;stroke:#ffffff;stroke-width:0.75;" x="320.121897" xlink:href="#m69625ebfcd" y="86.544405"/>
     <use style="fill:#1f77b4;stroke:#ffffff;stroke-width:0.75;" x="322.476135" xlink:href="#m69625ebfcd" y="86.544405"/>
     <use style="fill:#1f77b4;stroke:#ffffff;stroke-width:0.75;" x="324.755622" xlink:href="#m69625ebfcd" y="79.163953"/>
     <use style="fill:#1f77b4;stroke:#ffffff;stroke-width:0.75;" x="326.96496" xlink:href="#m69625ebfcd" y="79.117241"/>
     <use style="fill:#1f77b4;stroke:#ffffff;stroke-width:0.75;" x="329.108337" xlink:href="#m69625ebfcd" y="78.930395"/>
     <use style="fill:#1f77b4;stroke:#ffffff;stroke-width:0.75;" x="331.189579" xlink:href="#m69625ebfcd" y="60.712824"/>
     <use style="fill:#1f77b4;stroke:#ffffff;stroke-width:0.75;" x="333.212187" xlink:href="#m69625ebfcd" y="60.385842"/>
     <use style="fill:#1f77b4;stroke:#ffffff;stroke-width:0.75;" x="335.179373" xlink:href="#m69625ebfcd" y="60.385842"/>
     <use style="fill:#1f77b4;stroke:#ffffff;stroke-width:0.75;" x="337.094095" xlink:href="#m69625ebfcd" y="59.451607"/>
     <use style="fill:#1f77b4;stroke:#ffffff;stroke-width:0.75;" x="338.959078" xlink:href="#m69625ebfcd" y="59.171337"/>
     <use style="fill:#1f77b4;stroke:#ffffff;stroke-width:0.75;" x="340.776842" xlink:href="#m69625ebfcd" y="59.171337"/>
     <use style="fill:#1f77b4;stroke:#ffffff;stroke-width:0.75;" x="342.549717" xlink:href="#m69625ebfcd" y="59.077913"/>
     <use style="fill:#1f77b4;stroke:#ffffff;stroke-width:0.75;" x="344.279869" xlink:href="#m69625ebfcd" y="55.948228"/>
     <use style="fill:#1f77b4;stroke:#ffffff;stroke-width:0.75;" x="345.969307" xlink:href="#m69625ebfcd" y="55.71467"/>
     <use style="fill:#1f77b4;stroke:#ffffff;stroke-width:0.75;" x="347.619904" xlink:href="#m69625ebfcd" y="55.481111"/>
     <use style="fill:#1f77b4;stroke:#ffffff;stroke-width:0.75;" x="349.233406" xlink:href="#m69625ebfcd" y="55.294264"/>
     <use style="fill:#1f77b4;stroke:#ffffff;stroke-width:0.75;" x="350.811444" xlink:href="#m69625ebfcd" y="55.294264"/>
     <use style="fill:#1f77b4;stroke:#ffffff;stroke-width:0.75;" x="352.355542" xlink:href="#m69625ebfcd" y="55.294264"/>
     <use style="fill:#1f77b4;stroke:#ffffff;stroke-width:0.75;" x="353.867131" xlink:href="#m69625ebfcd" y="53.799489"/>
     <use style="fill:#1f77b4;stroke:#ffffff;stroke-width:0.75;" x="355.347551" xlink:href="#m69625ebfcd" y="53.659354"/>
     <use style="fill:#1f77b4;stroke:#ffffff;stroke-width:0.75;" x="356.798061" xlink:href="#m69625ebfcd" y="53.659354"/>
     <use style="fill:#1f77b4;stroke:#ffffff;stroke-width:0.75;" x="358.219847" xlink:href="#m69625ebfcd" y="53.472507"/>
     <use style="fill:#1f77b4;stroke:#ffffff;stroke-width:0.75;" x="359.614023" xlink:href="#m69625ebfcd" y="53.472507"/>
     <use style="fill:#1f77b4;stroke:#ffffff;stroke-width:0.75;" x="360.981642" xlink:href="#m69625ebfcd" y="53.379083"/>
     <use style="fill:#1f77b4;stroke:#ffffff;stroke-width:0.75;" x="362.323696" xlink:href="#m69625ebfcd" y="53.379083"/>
     <use style="fill:#1f77b4;stroke:#ffffff;stroke-width:0.75;" x="363.641124" xlink:href="#m69625ebfcd" y="53.379083"/>
     <use style="fill:#1f77b4;stroke:#ffffff;stroke-width:0.75;" x="364.934813" xlink:href="#m69625ebfcd" y="51.65075"/>
     <use style="fill:#1f77b4;stroke:#ffffff;stroke-width:0.75;" x="366.205604" xlink:href="#m69625ebfcd" y="51.463903"/>
     <use style="fill:#1f77b4;stroke:#ffffff;stroke-width:0.75;" x="367.454294" xlink:href="#m69625ebfcd" y="50.342822"/>
     <use style="fill:#1f77b4;stroke:#ffffff;stroke-width:0.75;" x="368.681636" xlink:href="#m69625ebfcd" y="49.875704"/>
     <use style="fill:#1f77b4;stroke:#ffffff;stroke-width:0.75;" x="369.888351" xlink:href="#m69625ebfcd" y="49.875704"/>
     <use style="fill:#1f77b4;stroke:#ffffff;stroke-width:0.75;" x="371.075119" xlink:href="#m69625ebfcd" y="49.595434"/>
     <use style="fill:#1f77b4;stroke:#ffffff;stroke-width:0.75;" x="372.242589" xlink:href="#m69625ebfcd" y="49.595434"/>
     <use style="fill:#1f77b4;stroke:#ffffff;stroke-width:0.75;" x="373.391378" xlink:href="#m69625ebfcd" y="49.408587"/>
     <use style="fill:#1f77b4;stroke:#ffffff;stroke-width:0.75;" x="374.522076" xlink:href="#m69625ebfcd" y="49.361876"/>
     <use style="fill:#1f77b4;stroke:#ffffff;stroke-width:0.75;" x="375.635243" xlink:href="#m69625ebfcd" y="49.361876"/>
     <use style="fill:#1f77b4;stroke:#ffffff;stroke-width:0.75;" x="376.731414" xlink:href="#m69625ebfcd" y="49.361876"/>
     <use style="fill:#1f77b4;stroke:#ffffff;stroke-width:0.75;" x="377.8111" xlink:href="#m69625ebfcd" y="46.325614"/>
     <use style="fill:#1f77b4;stroke:#ffffff;stroke-width:0.75;" x="378.874791" xlink:href="#m69625ebfcd" y="46.138767"/>
     <use style="fill:#1f77b4;stroke:#ffffff;stroke-width:0.75;" x="379.922953" xlink:href="#m69625ebfcd" y="46.138767"/>
     <use style="fill:#1f77b4;stroke:#ffffff;stroke-width:0.75;" x="380.956033" xlink:href="#m69625ebfcd" y="46.092055"/>
     <use style="fill:#1f77b4;stroke:#ffffff;stroke-width:0.75;" x="381.974459" xlink:href="#m69625ebfcd" y="45.578226"/>
     <use style="fill:#1f77b4;stroke:#ffffff;stroke-width:0.75;" x="382.978641" xlink:href="#m69625ebfcd" y="45.297956"/>
     <use style="fill:#1f77b4;stroke:#ffffff;stroke-width:0.75;" x="383.968971" xlink:href="#m69625ebfcd" y="45.111109"/>
     <use style="fill:#1f77b4;stroke:#ffffff;stroke-width:0.75;" x="384.945827" xlink:href="#m69625ebfcd" y="45.064397"/>
     <use style="fill:#1f77b4;stroke:#ffffff;stroke-width:0.75;" x="385.909571" xlink:href="#m69625ebfcd" y="44.924262"/>
     <use style="fill:#1f77b4;stroke:#ffffff;stroke-width:0.75;" x="386.860549" xlink:href="#m69625ebfcd" y="44.924262"/>
     <use style="fill:#1f77b4;stroke:#ffffff;stroke-width:0.75;" x="387.799096" xlink:href="#m69625ebfcd" y="44.924262"/>
     <use style="fill:#1f77b4;stroke:#ffffff;stroke-width:0.75;" x="388.725532" xlink:href="#m69625ebfcd" y="44.924262"/>
     <use style="fill:#1f77b4;stroke:#ffffff;stroke-width:0.75;" x="389.640166" xlink:href="#m69625ebfcd" y="44.784127"/>
     <use style="fill:#1f77b4;stroke:#ffffff;stroke-width:0.75;" x="390.543295" xlink:href="#m69625ebfcd" y="44.784127"/>
     <use style="fill:#1f77b4;stroke:#ffffff;stroke-width:0.75;" x="391.435205" xlink:href="#m69625ebfcd" y="44.784127"/>
     <use style="fill:#1f77b4;stroke:#ffffff;stroke-width:0.75;" x="392.316171" xlink:href="#m69625ebfcd" y="44.503857"/>
     <use style="fill:#1f77b4;stroke:#ffffff;stroke-width:0.75;" x="393.186458" xlink:href="#m69625ebfcd" y="44.503857"/>
     <use style="fill:#1f77b4;stroke:#ffffff;stroke-width:0.75;" x="394.046323" xlink:href="#m69625ebfcd" y="44.31701"/>
     <use style="fill:#1f77b4;stroke:#ffffff;stroke-width:0.75;" x="394.896011" xlink:href="#m69625ebfcd" y="44.31701"/>
     <use style="fill:#1f77b4;stroke:#ffffff;stroke-width:0.75;" x="395.735761" xlink:href="#m69625ebfcd" y="44.31701"/>
     <use style="fill:#1f77b4;stroke:#ffffff;stroke-width:0.75;" x="396.565803" xlink:href="#m69625ebfcd" y="44.31701"/>
     <use style="fill:#1f77b4;stroke:#ffffff;stroke-width:0.75;" x="397.386358" xlink:href="#m69625ebfcd" y="44.31701"/>
     <use style="fill:#1f77b4;stroke:#ffffff;stroke-width:0.75;" x="398.197642" xlink:href="#m69625ebfcd" y="44.31701"/>
     <use style="fill:#1f77b4;stroke:#ffffff;stroke-width:0.75;" x="398.99986" xlink:href="#m69625ebfcd" y="44.31701"/>
     <use style="fill:#1f77b4;stroke:#ffffff;stroke-width:0.75;" x="399.793214" xlink:href="#m69625ebfcd" y="44.31701"/>
     <use style="fill:#1f77b4;stroke:#ffffff;stroke-width:0.75;" x="400.577898" xlink:href="#m69625ebfcd" y="44.31701"/>
    </g>
   </g>
   <g id="line2d_31">
    <path clip-path="url(#pe8043d4d2e)" d="M 75.923352 257.135608 
L 125.689806 228.875017 
L 154.801316 205.752715 
L 175.45626 192.393163 
L 191.47748 189.403613 
L 204.567769 188.048973 
L 215.635452 181.836315 
L 225.222714 178.052665 
L 233.679279 174.455863 
L 241.243934 174.175592 
L 248.086996 169.691267 
L 254.334223 150.21248 
L 260.081115 149.885498 
L 265.401906 149.838786 
L 270.355443 127.837566 
L 274.989168 127.837566 
L 279.341883 127.837566 
L 283.445733 119.149186 
L 287.327641 118.962339 
L 291.010388 112.189139 
L 294.513415 112.142428 
L 297.85345 107.471256 
L 301.04499 103.640895 
L 304.100677 103.640895 
L 307.031607 103.640895 
L 309.847569 103.640895 
L 312.557242 103.640895 
L 315.168359 103.407336 
L 317.68784 103.407336 
L 320.121897 103.407336 
L 322.476135 103.407336 
L 324.755622 103.407336 
L 326.96496 103.407336 
L 329.108337 103.407336 
L 331.189579 99.576975 
L 333.212187 99.576975 
L 335.179373 99.576975 
L 337.094095 99.390128 
L 338.959078 99.390128 
L 340.776842 99.390128 
L 342.549717 99.203281 
L 344.279869 99.203281 
L 345.969307 99.016434 
L 347.619904 98.596029 
L 349.233406 98.36247 
L 350.811444 97.80193 
L 352.355542 97.80193 
L 353.867131 97.80193 
L 355.347551 97.80193 
L 356.798061 97.80193 
L 358.219847 97.80193 
L 359.614023 97.80193 
L 360.981642 94.765668 
L 362.323696 94.765668 
L 363.641124 90.421478 
L 364.934813 90.421478 
L 366.205604 90.234631 
L 367.454294 90.234631 
L 368.681636 90.234631 
L 369.888351 90.234631 
L 371.075119 90.234631 
L 372.242589 90.234631 
L 373.391378 90.234631 
L 374.522076 90.234631 
L 375.635243 90.234631 
L 376.731414 90.234631 
L 377.8111 90.234631 
L 378.874791 90.234631 
L 379.922953 90.234631 
L 380.956033 90.234631 
L 381.974459 90.234631 
L 382.978641 90.001072 
L 383.968971 90.001072 
L 384.945827 90.001072 
L 385.909571 90.001072 
L 386.860549 90.001072 
L 387.799096 90.001072 
L 388.725532 90.001072 
L 389.640166 90.001072 
L 390.543295 90.001072 
L 391.435205 90.001072 
L 392.316171 90.001072 
L 393.186458 90.001072 
L 394.046323 90.001072 
L 394.896011 90.001072 
L 395.735761 90.001072 
L 396.565803 89.814225 
L 397.386358 89.814225 
L 398.197642 89.814225 
L 398.99986 89.627379 
L 399.793214 89.627379 
L 400.577898 89.627379 
" style="fill:none;stroke:#98df8a;stroke-linecap:square;stroke-width:1.5;"/>
    <defs>
     <path d="M -0 3 
L 3 -3 
L -3 -3 
z
" id="mff843dc2ea" style="stroke:#ffffff;stroke-linejoin:miter;stroke-width:0.75;"/>
    </defs>
    <g clip-path="url(#pe8043d4d2e)">
     <use style="fill:#98df8a;stroke:#ffffff;stroke-linejoin:miter;stroke-width:0.75;" x="75.923352" xlink:href="#mff843dc2ea" y="257.135608"/>
     <use style="fill:#98df8a;stroke:#ffffff;stroke-linejoin:miter;stroke-width:0.75;" x="125.689806" xlink:href="#mff843dc2ea" y="228.875017"/>
     <use style="fill:#98df8a;stroke:#ffffff;stroke-linejoin:miter;stroke-width:0.75;" x="154.801316" xlink:href="#mff843dc2ea" y="205.752715"/>
     <use style="fill:#98df8a;stroke:#ffffff;stroke-linejoin:miter;stroke-width:0.75;" x="175.45626" xlink:href="#mff843dc2ea" y="192.393163"/>
     <use style="fill:#98df8a;stroke:#ffffff;stroke-linejoin:miter;stroke-width:0.75;" x="191.47748" xlink:href="#mff843dc2ea" y="189.403613"/>
     <use style="fill:#98df8a;stroke:#ffffff;stroke-linejoin:miter;stroke-width:0.75;" x="204.567769" xlink:href="#mff843dc2ea" y="188.048973"/>
     <use style="fill:#98df8a;stroke:#ffffff;stroke-linejoin:miter;stroke-width:0.75;" x="215.635452" xlink:href="#mff843dc2ea" y="181.836315"/>
     <use style="fill:#98df8a;stroke:#ffffff;stroke-linejoin:miter;stroke-width:0.75;" x="225.222714" xlink:href="#mff843dc2ea" y="178.052665"/>
     <use style="fill:#98df8a;stroke:#ffffff;stroke-linejoin:miter;stroke-width:0.75;" x="233.679279" xlink:href="#mff843dc2ea" y="174.455863"/>
     <use style="fill:#98df8a;stroke:#ffffff;stroke-linejoin:miter;stroke-width:0.75;" x="241.243934" xlink:href="#mff843dc2ea" y="174.175592"/>
     <use style="fill:#98df8a;stroke:#ffffff;stroke-linejoin:miter;stroke-width:0.75;" x="248.086996" xlink:href="#mff843dc2ea" y="169.691267"/>
     <use style="fill:#98df8a;stroke:#ffffff;stroke-linejoin:miter;stroke-width:0.75;" x="254.334223" xlink:href="#mff843dc2ea" y="150.21248"/>
     <use style="fill:#98df8a;stroke:#ffffff;stroke-linejoin:miter;stroke-width:0.75;" x="260.081115" xlink:href="#mff843dc2ea" y="149.885498"/>
     <use style="fill:#98df8a;stroke:#ffffff;stroke-linejoin:miter;stroke-width:0.75;" x="265.401906" xlink:href="#mff843dc2ea" y="149.838786"/>
     <use style="fill:#98df8a;stroke:#ffffff;stroke-linejoin:miter;stroke-width:0.75;" x="270.355443" xlink:href="#mff843dc2ea" y="127.837566"/>
     <use style="fill:#98df8a;stroke:#ffffff;stroke-linejoin:miter;stroke-width:0.75;" x="274.989168" xlink:href="#mff843dc2ea" y="127.837566"/>
     <use style="fill:#98df8a;stroke:#ffffff;stroke-linejoin:miter;stroke-width:0.75;" x="279.341883" xlink:href="#mff843dc2ea" y="127.837566"/>
     <use style="fill:#98df8a;stroke:#ffffff;stroke-linejoin:miter;stroke-width:0.75;" x="283.445733" xlink:href="#mff843dc2ea" y="119.149186"/>
     <use style="fill:#98df8a;stroke:#ffffff;stroke-linejoin:miter;stroke-width:0.75;" x="287.327641" xlink:href="#mff843dc2ea" y="118.962339"/>
     <use style="fill:#98df8a;stroke:#ffffff;stroke-linejoin:miter;stroke-width:0.75;" x="291.010388" xlink:href="#mff843dc2ea" y="112.189139"/>
     <use style="fill:#98df8a;stroke:#ffffff;stroke-linejoin:miter;stroke-width:0.75;" x="294.513415" xlink:href="#mff843dc2ea" y="112.142428"/>
     <use style="fill:#98df8a;stroke:#ffffff;stroke-linejoin:miter;stroke-width:0.75;" x="297.85345" xlink:href="#mff843dc2ea" y="107.471256"/>
     <use style="fill:#98df8a;stroke:#ffffff;stroke-linejoin:miter;stroke-width:0.75;" x="301.04499" xlink:href="#mff843dc2ea" y="103.640895"/>
     <use style="fill:#98df8a;stroke:#ffffff;stroke-linejoin:miter;stroke-width:0.75;" x="304.100677" xlink:href="#mff843dc2ea" y="103.640895"/>
     <use style="fill:#98df8a;stroke:#ffffff;stroke-linejoin:miter;stroke-width:0.75;" x="307.031607" xlink:href="#mff843dc2ea" y="103.640895"/>
     <use style="fill:#98df8a;stroke:#ffffff;stroke-linejoin:miter;stroke-width:0.75;" x="309.847569" xlink:href="#mff843dc2ea" y="103.640895"/>
     <use style="fill:#98df8a;stroke:#ffffff;stroke-linejoin:miter;stroke-width:0.75;" x="312.557242" xlink:href="#mff843dc2ea" y="103.640895"/>
     <use style="fill:#98df8a;stroke:#ffffff;stroke-linejoin:miter;stroke-width:0.75;" x="315.168359" xlink:href="#mff843dc2ea" y="103.407336"/>
     <use style="fill:#98df8a;stroke:#ffffff;stroke-linejoin:miter;stroke-width:0.75;" x="317.68784" xlink:href="#mff843dc2ea" y="103.407336"/>
     <use style="fill:#98df8a;stroke:#ffffff;stroke-linejoin:miter;stroke-width:0.75;" x="320.121897" xlink:href="#mff843dc2ea" y="103.407336"/>
     <use style="fill:#98df8a;stroke:#ffffff;stroke-linejoin:miter;stroke-width:0.75;" x="322.476135" xlink:href="#mff843dc2ea" y="103.407336"/>
     <use style="fill:#98df8a;stroke:#ffffff;stroke-linejoin:miter;stroke-width:0.75;" x="324.755622" xlink:href="#mff843dc2ea" y="103.407336"/>
     <use style="fill:#98df8a;stroke:#ffffff;stroke-linejoin:miter;stroke-width:0.75;" x="326.96496" xlink:href="#mff843dc2ea" y="103.407336"/>
     <use style="fill:#98df8a;stroke:#ffffff;stroke-linejoin:miter;stroke-width:0.75;" x="329.108337" xlink:href="#mff843dc2ea" y="103.407336"/>
     <use style="fill:#98df8a;stroke:#ffffff;stroke-linejoin:miter;stroke-width:0.75;" x="331.189579" xlink:href="#mff843dc2ea" y="99.576975"/>
     <use style="fill:#98df8a;stroke:#ffffff;stroke-linejoin:miter;stroke-width:0.75;" x="333.212187" xlink:href="#mff843dc2ea" y="99.576975"/>
     <use style="fill:#98df8a;stroke:#ffffff;stroke-linejoin:miter;stroke-width:0.75;" x="335.179373" xlink:href="#mff843dc2ea" y="99.576975"/>
     <use style="fill:#98df8a;stroke:#ffffff;stroke-linejoin:miter;stroke-width:0.75;" x="337.094095" xlink:href="#mff843dc2ea" y="99.390128"/>
     <use style="fill:#98df8a;stroke:#ffffff;stroke-linejoin:miter;stroke-width:0.75;" x="338.959078" xlink:href="#mff843dc2ea" y="99.390128"/>
     <use style="fill:#98df8a;stroke:#ffffff;stroke-linejoin:miter;stroke-width:0.75;" x="340.776842" xlink:href="#mff843dc2ea" y="99.390128"/>
     <use style="fill:#98df8a;stroke:#ffffff;stroke-linejoin:miter;stroke-width:0.75;" x="342.549717" xlink:href="#mff843dc2ea" y="99.203281"/>
     <use style="fill:#98df8a;stroke:#ffffff;stroke-linejoin:miter;stroke-width:0.75;" x="344.279869" xlink:href="#mff843dc2ea" y="99.203281"/>
     <use style="fill:#98df8a;stroke:#ffffff;stroke-linejoin:miter;stroke-width:0.75;" x="345.969307" xlink:href="#mff843dc2ea" y="99.016434"/>
     <use style="fill:#98df8a;stroke:#ffffff;stroke-linejoin:miter;stroke-width:0.75;" x="347.619904" xlink:href="#mff843dc2ea" y="98.596029"/>
     <use style="fill:#98df8a;stroke:#ffffff;stroke-linejoin:miter;stroke-width:0.75;" x="349.233406" xlink:href="#mff843dc2ea" y="98.36247"/>
     <use style="fill:#98df8a;stroke:#ffffff;stroke-linejoin:miter;stroke-width:0.75;" x="350.811444" xlink:href="#mff843dc2ea" y="97.80193"/>
     <use style="fill:#98df8a;stroke:#ffffff;stroke-linejoin:miter;stroke-width:0.75;" x="352.355542" xlink:href="#mff843dc2ea" y="97.80193"/>
     <use style="fill:#98df8a;stroke:#ffffff;stroke-linejoin:miter;stroke-width:0.75;" x="353.867131" xlink:href="#mff843dc2ea" y="97.80193"/>
     <use style="fill:#98df8a;stroke:#ffffff;stroke-linejoin:miter;stroke-width:0.75;" x="355.347551" xlink:href="#mff843dc2ea" y="97.80193"/>
     <use style="fill:#98df8a;stroke:#ffffff;stroke-linejoin:miter;stroke-width:0.75;" x="356.798061" xlink:href="#mff843dc2ea" y="97.80193"/>
     <use style="fill:#98df8a;stroke:#ffffff;stroke-linejoin:miter;stroke-width:0.75;" x="358.219847" xlink:href="#mff843dc2ea" y="97.80193"/>
     <use style="fill:#98df8a;stroke:#ffffff;stroke-linejoin:miter;stroke-width:0.75;" x="359.614023" xlink:href="#mff843dc2ea" y="97.80193"/>
     <use style="fill:#98df8a;stroke:#ffffff;stroke-linejoin:miter;stroke-width:0.75;" x="360.981642" xlink:href="#mff843dc2ea" y="94.765668"/>
     <use style="fill:#98df8a;stroke:#ffffff;stroke-linejoin:miter;stroke-width:0.75;" x="362.323696" xlink:href="#mff843dc2ea" y="94.765668"/>
     <use style="fill:#98df8a;stroke:#ffffff;stroke-linejoin:miter;stroke-width:0.75;" x="363.641124" xlink:href="#mff843dc2ea" y="90.421478"/>
     <use style="fill:#98df8a;stroke:#ffffff;stroke-linejoin:miter;stroke-width:0.75;" x="364.934813" xlink:href="#mff843dc2ea" y="90.421478"/>
     <use style="fill:#98df8a;stroke:#ffffff;stroke-linejoin:miter;stroke-width:0.75;" x="366.205604" xlink:href="#mff843dc2ea" y="90.234631"/>
     <use style="fill:#98df8a;stroke:#ffffff;stroke-linejoin:miter;stroke-width:0.75;" x="367.454294" xlink:href="#mff843dc2ea" y="90.234631"/>
     <use style="fill:#98df8a;stroke:#ffffff;stroke-linejoin:miter;stroke-width:0.75;" x="368.681636" xlink:href="#mff843dc2ea" y="90.234631"/>
     <use style="fill:#98df8a;stroke:#ffffff;stroke-linejoin:miter;stroke-width:0.75;" x="369.888351" xlink:href="#mff843dc2ea" y="90.234631"/>
     <use style="fill:#98df8a;stroke:#ffffff;stroke-linejoin:miter;stroke-width:0.75;" x="371.075119" xlink:href="#mff843dc2ea" y="90.234631"/>
     <use style="fill:#98df8a;stroke:#ffffff;stroke-linejoin:miter;stroke-width:0.75;" x="372.242589" xlink:href="#mff843dc2ea" y="90.234631"/>
     <use style="fill:#98df8a;stroke:#ffffff;stroke-linejoin:miter;stroke-width:0.75;" x="373.391378" xlink:href="#mff843dc2ea" y="90.234631"/>
     <use style="fill:#98df8a;stroke:#ffffff;stroke-linejoin:miter;stroke-width:0.75;" x="374.522076" xlink:href="#mff843dc2ea" y="90.234631"/>
     <use style="fill:#98df8a;stroke:#ffffff;stroke-linejoin:miter;stroke-width:0.75;" x="375.635243" xlink:href="#mff843dc2ea" y="90.234631"/>
     <use style="fill:#98df8a;stroke:#ffffff;stroke-linejoin:miter;stroke-width:0.75;" x="376.731414" xlink:href="#mff843dc2ea" y="90.234631"/>
     <use style="fill:#98df8a;stroke:#ffffff;stroke-linejoin:miter;stroke-width:0.75;" x="377.8111" xlink:href="#mff843dc2ea" y="90.234631"/>
     <use style="fill:#98df8a;stroke:#ffffff;stroke-linejoin:miter;stroke-width:0.75;" x="378.874791" xlink:href="#mff843dc2ea" y="90.234631"/>
     <use style="fill:#98df8a;stroke:#ffffff;stroke-linejoin:miter;stroke-width:0.75;" x="379.922953" xlink:href="#mff843dc2ea" y="90.234631"/>
     <use style="fill:#98df8a;stroke:#ffffff;stroke-linejoin:miter;stroke-width:0.75;" x="380.956033" xlink:href="#mff843dc2ea" y="90.234631"/>
     <use style="fill:#98df8a;stroke:#ffffff;stroke-linejoin:miter;stroke-width:0.75;" x="381.974459" xlink:href="#mff843dc2ea" y="90.234631"/>
     <use style="fill:#98df8a;stroke:#ffffff;stroke-linejoin:miter;stroke-width:0.75;" x="382.978641" xlink:href="#mff843dc2ea" y="90.001072"/>
     <use style="fill:#98df8a;stroke:#ffffff;stroke-linejoin:miter;stroke-width:0.75;" x="383.968971" xlink:href="#mff843dc2ea" y="90.001072"/>
     <use style="fill:#98df8a;stroke:#ffffff;stroke-linejoin:miter;stroke-width:0.75;" x="384.945827" xlink:href="#mff843dc2ea" y="90.001072"/>
     <use style="fill:#98df8a;stroke:#ffffff;stroke-linejoin:miter;stroke-width:0.75;" x="385.909571" xlink:href="#mff843dc2ea" y="90.001072"/>
     <use style="fill:#98df8a;stroke:#ffffff;stroke-linejoin:miter;stroke-width:0.75;" x="386.860549" xlink:href="#mff843dc2ea" y="90.001072"/>
     <use style="fill:#98df8a;stroke:#ffffff;stroke-linejoin:miter;stroke-width:0.75;" x="387.799096" xlink:href="#mff843dc2ea" y="90.001072"/>
     <use style="fill:#98df8a;stroke:#ffffff;stroke-linejoin:miter;stroke-width:0.75;" x="388.725532" xlink:href="#mff843dc2ea" y="90.001072"/>
     <use style="fill:#98df8a;stroke:#ffffff;stroke-linejoin:miter;stroke-width:0.75;" x="389.640166" xlink:href="#mff843dc2ea" y="90.001072"/>
     <use style="fill:#98df8a;stroke:#ffffff;stroke-linejoin:miter;stroke-width:0.75;" x="390.543295" xlink:href="#mff843dc2ea" y="90.001072"/>
     <use style="fill:#98df8a;stroke:#ffffff;stroke-linejoin:miter;stroke-width:0.75;" x="391.435205" xlink:href="#mff843dc2ea" y="90.001072"/>
     <use style="fill:#98df8a;stroke:#ffffff;stroke-linejoin:miter;stroke-width:0.75;" x="392.316171" xlink:href="#mff843dc2ea" y="90.001072"/>
     <use style="fill:#98df8a;stroke:#ffffff;stroke-linejoin:miter;stroke-width:0.75;" x="393.186458" xlink:href="#mff843dc2ea" y="90.001072"/>
     <use style="fill:#98df8a;stroke:#ffffff;stroke-linejoin:miter;stroke-width:0.75;" x="394.046323" xlink:href="#mff843dc2ea" y="90.001072"/>
     <use style="fill:#98df8a;stroke:#ffffff;stroke-linejoin:miter;stroke-width:0.75;" x="394.896011" xlink:href="#mff843dc2ea" y="90.001072"/>
     <use style="fill:#98df8a;stroke:#ffffff;stroke-linejoin:miter;stroke-width:0.75;" x="395.735761" xlink:href="#mff843dc2ea" y="90.001072"/>
     <use style="fill:#98df8a;stroke:#ffffff;stroke-linejoin:miter;stroke-width:0.75;" x="396.565803" xlink:href="#mff843dc2ea" y="89.814225"/>
     <use style="fill:#98df8a;stroke:#ffffff;stroke-linejoin:miter;stroke-width:0.75;" x="397.386358" xlink:href="#mff843dc2ea" y="89.814225"/>
     <use style="fill:#98df8a;stroke:#ffffff;stroke-linejoin:miter;stroke-width:0.75;" x="398.197642" xlink:href="#mff843dc2ea" y="89.814225"/>
     <use style="fill:#98df8a;stroke:#ffffff;stroke-linejoin:miter;stroke-width:0.75;" x="398.99986" xlink:href="#mff843dc2ea" y="89.627379"/>
     <use style="fill:#98df8a;stroke:#ffffff;stroke-linejoin:miter;stroke-width:0.75;" x="399.793214" xlink:href="#mff843dc2ea" y="89.627379"/>
     <use style="fill:#98df8a;stroke:#ffffff;stroke-linejoin:miter;stroke-width:0.75;" x="400.577898" xlink:href="#mff843dc2ea" y="89.627379"/>
    </g>
   </g>
   <g id="line2d_32"/>
   <g id="line2d_33"/>
   <g id="patch_3">
    <path d="M 59.690625 270.121466 
L 59.690625 36.562864 
" style="fill:none;stroke:#000000;stroke-linecap:square;stroke-linejoin:miter;stroke-width:0.8;"/>
   </g>
   <g id="patch_4">
    <path d="M 75.923352 288.430125 
L 400.578765 288.430125 
" style="fill:none;stroke:#000000;stroke-linecap:square;stroke-linejoin:miter;stroke-width:0.8;"/>
   </g>
   <g id="text_15">
    <!-- zstd_stream_decompress (23h, 20 trials/fuzzer) -->
    <g transform="translate(95.663438 16.318125)scale(0.12 -0.12)">
     <defs>
      <path d="M 353 3500 
L 3084 3500 
L 3084 2975 
L 922 459 
L 3084 459 
L 3084 0 
L 275 0 
L 275 525 
L 2438 3041 
L 353 3041 
L 353 3500 
z
" id="DejaVuSans-7a" transform="scale(0.015625)"/>
      <path d="M 2834 3397 
L 2834 2853 
Q 2591 2978 2328 3040 
Q 2066 3103 1784 3103 
Q 1356 3103 1142 2972 
Q 928 2841 928 2578 
Q 928 2378 1081 2264 
Q 1234 2150 1697 2047 
L 1894 2003 
Q 2506 1872 2764 1633 
Q 3022 1394 3022 966 
Q 3022 478 2636 193 
Q 2250 -91 1575 -91 
Q 1294 -91 989 -36 
Q 684 19 347 128 
L 347 722 
Q 666 556 975 473 
Q 1284 391 1588 391 
Q 1994 391 2212 530 
Q 2431 669 2431 922 
Q 2431 1156 2273 1281 
Q 2116 1406 1581 1522 
L 1381 1569 
Q 847 1681 609 1914 
Q 372 2147 372 2553 
Q 372 3047 722 3315 
Q 1072 3584 1716 3584 
Q 2034 3584 2315 3537 
Q 2597 3491 2834 3397 
z
" id="DejaVuSans-73" transform="scale(0.015625)"/>
      <path d="M 3263 -1063 
L 3263 -1509 
L -63 -1509 
L -63 -1063 
L 3263 -1063 
z
" id="DejaVuSans-5f" transform="scale(0.015625)"/>
      <path d="M 1159 525 
L 1159 -1331 
L 581 -1331 
L 581 3500 
L 1159 3500 
L 1159 2969 
Q 1341 3281 1617 3432 
Q 1894 3584 2278 3584 
Q 2916 3584 3314 3078 
Q 3713 2572 3713 1747 
Q 3713 922 3314 415 
Q 2916 -91 2278 -91 
Q 1894 -91 1617 61 
Q 1341 213 1159 525 
z
M 3116 1747 
Q 3116 2381 2855 2742 
Q 2594 3103 2138 3103 
Q 1681 3103 1420 2742 
Q 1159 2381 1159 1747 
Q 1159 1113 1420 752 
Q 1681 391 2138 391 
Q 2594 391 2855 752 
Q 3116 1113 3116 1747 
z
" id="DejaVuSans-70" transform="scale(0.015625)"/>
      <path d="M 750 794 
L 1409 794 
L 1409 256 
L 897 -744 
L 494 -744 
L 750 256 
L 750 794 
z
" id="DejaVuSans-2c" transform="scale(0.015625)"/>
      <path d="M 603 4863 
L 1178 4863 
L 1178 0 
L 603 0 
L 603 4863 
z
" id="DejaVuSans-6c" transform="scale(0.015625)"/>
      <path d="M 1625 4666 
L 2156 4666 
L 531 -594 
L 0 -594 
L 1625 4666 
z
" id="DejaVuSans-2f" transform="scale(0.015625)"/>
      <path d="M 2375 4863 
L 2375 4384 
L 1825 4384 
Q 1516 4384 1395 4259 
Q 1275 4134 1275 3809 
L 1275 3500 
L 2222 3500 
L 2222 3053 
L 1275 3053 
L 1275 0 
L 697 0 
L 697 3053 
L 147 3053 
L 147 3500 
L 697 3500 
L 697 3744 
Q 697 4328 969 4595 
Q 1241 4863 1831 4863 
L 2375 4863 
z
" id="DejaVuSans-66" transform="scale(0.015625)"/>
     </defs>
     <use xlink:href="#DejaVuSans-7a"/>
     <use x="52.490234" xlink:href="#DejaVuSans-73"/>
     <use x="104.589844" xlink:href="#DejaVuSans-74"/>
     <use x="143.798828" xlink:href="#DejaVuSans-64"/>
     <use x="207.275391" xlink:href="#DejaVuSans-5f"/>
     <use x="257.275391" xlink:href="#DejaVuSans-73"/>
     <use x="309.375" xlink:href="#DejaVuSans-74"/>
     <use x="348.583984" xlink:href="#DejaVuSans-72"/>
     <use x="387.447266" xlink:href="#DejaVuSans-65"/>
     <use x="448.970703" xlink:href="#DejaVuSans-61"/>
     <use x="510.25" xlink:href="#DejaVuSans-6d"/>
     <use x="607.662109" xlink:href="#DejaVuSans-5f"/>
     <use x="657.662109" xlink:href="#DejaVuSans-64"/>
     <use x="721.138672" xlink:href="#DejaVuSans-65"/>
     <use x="782.662109" xlink:href="#DejaVuSans-63"/>
     <use x="837.642578" xlink:href="#DejaVuSans-6f"/>
     <use x="898.824219" xlink:href="#DejaVuSans-6d"/>
     <use x="996.236328" xlink:href="#DejaVuSans-70"/>
     <use x="1059.712891" xlink:href="#DejaVuSans-72"/>
     <use x="1098.576172" xlink:href="#DejaVuSans-65"/>
     <use x="1160.099609" xlink:href="#DejaVuSans-73"/>
     <use x="1212.199219" xlink:href="#DejaVuSans-73"/>
     <use x="1264.298828" xlink:href="#DejaVuSans-20"/>
     <use x="1296.085938" xlink:href="#DejaVuSans-28"/>
     <use x="1335.099609" xlink:href="#DejaVuSans-32"/>
     <use x="1398.722656" xlink:href="#DejaVuSans-33"/>
     <use x="1462.345703" xlink:href="#DejaVuSans-68"/>
     <use x="1525.724609" xlink:href="#DejaVuSans-2c"/>
     <use x="1557.511719" xlink:href="#DejaVuSans-20"/>
     <use x="1589.298828" xlink:href="#DejaVuSans-32"/>
     <use x="1652.921875" xlink:href="#DejaVuSans-30"/>
     <use x="1716.544922" xlink:href="#DejaVuSans-20"/>
     <use x="1748.332031" xlink:href="#DejaVuSans-74"/>
     <use x="1787.541016" xlink:href="#DejaVuSans-72"/>
     <use x="1828.654297" xlink:href="#DejaVuSans-69"/>
     <use x="1856.4375" xlink:href="#DejaVuSans-61"/>
     <use x="1917.716797" xlink:href="#DejaVuSans-6c"/>
     <use x="1945.5" xlink:href="#DejaVuSans-73"/>
     <use x="1997.599609" xlink:href="#DejaVuSans-2f"/>
     <use x="2031.291016" xlink:href="#DejaVuSans-66"/>
     <use x="2066.496094" xlink:href="#DejaVuSans-75"/>
     <use x="2129.875" xlink:href="#DejaVuSans-7a"/>
     <use x="2182.365234" xlink:href="#DejaVuSans-7a"/>
     <use x="2234.855469" xlink:href="#DejaVuSans-65"/>
     <use x="2296.378906" xlink:href="#DejaVuSans-72"/>
     <use x="2337.492188" xlink:href="#DejaVuSans-29"/>
    </g>
   </g>
   <g id="legend_1">
    <g id="line2d_34">
     <path d="M 420.810625 30.416562 
L 440.810625 30.416562 
" style="fill:none;stroke:#1f77b4;stroke-linecap:square;stroke-width:1.5;"/>
    </g>
    <g id="line2d_35">
     <defs>
      <path d="M 0 3 
C 0.795609 3 1.55874 2.683901 2.12132 2.12132 
C 2.683901 1.55874 3 0.795609 3 0 
C 3 -0.795609 2.683901 -1.55874 2.12132 -2.12132 
C 1.55874 -2.683901 0.795609 -3 0 -3 
C -0.795609 -3 -1.55874 -2.683901 -2.12132 -2.12132 
C -2.683901 -1.55874 -3 -0.795609 -3 0 
C -3 0.795609 -2.683901 1.55874 -2.12132 2.12132 
C -1.55874 2.683901 -0.795609 3 0 3 
z
" id="mb783e6ad4a" style="stroke:#1f77b4;"/>
     </defs>
     <g>
      <use style="fill:#1f77b4;stroke:#1f77b4;" x="430.810625" xlink:href="#mb783e6ad4a" y="30.416562"/>
     </g>
    </g>
    <g id="text_16">
     <!-- afl -->
     <g transform="translate(448.810625 33.916562)scale(0.1 -0.1)">
      <use xlink:href="#DejaVuSans-61"/>
      <use x="61.279297" xlink:href="#DejaVuSans-66"/>
      <use x="96.484375" xlink:href="#DejaVuSans-6c"/>
     </g>
    </g>
    <g id="line2d_36">
     <path d="M 420.810625 45.094688 
L 440.810625 45.094688 
" style="fill:none;stroke:#98df8a;stroke-linecap:square;stroke-width:1.5;"/>
    </g>
    <g id="line2d_37">
     <defs>
      <path d="M -0 3 
L 3 -3 
L -3 -3 
z
" id="m65d6664f90" style="stroke:#98df8a;stroke-linejoin:miter;"/>
     </defs>
     <g>
      <use style="fill:#98df8a;stroke:#98df8a;stroke-linejoin:miter;" x="430.810625" xlink:href="#m65d6664f90" y="45.094688"/>
     </g>
    </g>
    <g id="text_17">
     <!-- afl_edges -->
     <g transform="translate(448.810625 48.594688)scale(0.1 -0.1)">
      <use xlink:href="#DejaVuSans-61"/>
      <use x="61.279297" xlink:href="#DejaVuSans-66"/>
      <use x="96.484375" xlink:href="#DejaVuSans-6c"/>
      <use x="124.267578" xlink:href="#DejaVuSans-5f"/>
      <use x="174.267578" xlink:href="#DejaVuSans-65"/>
      <use x="235.791016" xlink:href="#DejaVuSans-64"/>
      <use x="299.267578" xlink:href="#DejaVuSans-67"/>
      <use x="362.744141" xlink:href="#DejaVuSans-65"/>
      <use x="424.267578" xlink:href="#DejaVuSans-73"/>
     </g>
    </g>
   </g>
  </g>
 </g>
 <defs>
  <clipPath id="pe8043d4d2e">
   <rect height="266.112" width="357.12" x="59.690625" y="22.318125"/>
  </clipPath>
 </defs>
</svg>
