<?xml version="1.0" encoding="utf-8" standalone="no"?>
<!DOCTYPE svg PUBLIC "-//W3C//DTD SVG 1.1//EN"
  "http://www.w3.org/Graphics/SVG/1.1/DTD/svg11.dtd">
<svg height="325.986375pt" version="1.1" viewBox="0 0 536.718438 325.986375" width="536.718438pt" xmlns="http://www.w3.org/2000/svg" xmlns:xlink="http://www.w3.org/1999/xlink">
 <metadata>
  <rdf:RDF xmlns:cc="http://creativecommons.org/ns#" xmlns:dc="http://purl.org/dc/elements/1.1/" xmlns:rdf="http://www.w3.org/1999/02/22-rdf-syntax-ns#">
   <cc:Work>
    <dc:type rdf:resource="http://purl.org/dc/dcmitype/StillImage"/>
    <dc:date>2022-06-02T16:41:52.019656</dc:date>
    <dc:format>image/svg+xml</dc:format>
    <dc:creator>
     <cc:Agent>
      <dc:title>Matplotlib v3.4.3, https://matplotlib.org/</dc:title>
     </cc:Agent>
    </dc:creator>
   </cc:Work>
  </rdf:RDF>
 </metadata>
 <defs>
  <style type="text/css">*{stroke-linecap:butt;stroke-linejoin:round;}</style>
 </defs>
 <g id="figure_1">
  <g id="patch_1">
   <path d="M 0 325.986375 
L 536.718438 325.986375 
L 536.718438 0 
L 0 0 
z
" style="fill:#ffffff;"/>
  </g>
  <g id="axes_1">
   <g id="patch_2">
    <path d="M 59.690625 288.430125 
L 416.810625 288.430125 
L 416.810625 22.318125 
L 59.690625 22.318125 
z
" style="fill:#ffffff;"/>
   </g>
   <g id="PolyCollection_1">
    <defs>
     <path d="M 75.923352 -218.975336 
L 75.923352 -189.774489 
L 125.689806 -210.688256 
L 154.801316 -220.962144 
L 175.45626 -231.941872 
L 191.47748 -235.329902 
L 204.567769 -235.654065 
L 215.635452 -241.640631 
L 225.222714 -240.725654 
L 233.679279 -245.195972 
L 241.243934 -245.457394 
L 248.086996 -245.53582 
L 254.334223 -246.999784 
L 260.081115 -246.999784 
L 265.401906 -249.692432 
L 270.355443 -250.058422 
L 274.989168 -251.365533 
L 279.341883 -251.077969 
L 283.445733 -251.80995 
L 287.327641 -253.273914 
L 291.010388 -253.875185 
L 294.513415 -253.901327 
L 297.85345 -255.443717 
L 301.04499 -255.51953 
L 304.100677 -255.940419 
L 307.031607 -255.966562 
L 309.847569 -255.940419 
L 312.557242 -256.829255 
L 315.168359 -256.881539 
L 317.68784 -257.01225 
L 320.121897 -257.456668 
L 322.476135 -257.639663 
L 324.755622 -257.71809 
L 326.96496 -257.770374 
L 329.108337 -258.502356 
L 331.189579 -258.502356 
L 333.212187 -258.816062 
L 335.179373 -260.410737 
L 337.094095 -260.410737 
L 338.959078 -260.672159 
L 340.776842 -260.698301 
L 342.549717 -260.123173 
L 344.279869 -262.528256 
L 345.969307 -263.549763 
L 347.619904 -262.606683 
L 349.233406 -265.011766 
L 350.811444 -265.011766 
L 352.355542 -265.011766 
L 353.867131 -265.037908 
L 355.347551 -264.018362 
L 356.798061 -265.037908 
L 358.219847 -266.501872 
L 359.614023 -268.410253 
L 360.981642 -268.671675 
L 362.323696 -269.168377 
L 363.641124 -269.220661 
L 364.934813 -269.220661 
L 366.205604 -269.246804 
L 367.454294 -269.351373 
L 368.681636 -269.377515 
L 369.888351 -269.455941 
L 371.075119 -269.586652 
L 372.242589 -269.665079 
L 373.391378 -269.769648 
L 374.522076 -270.15786 
L 375.635243 -267.338422 
L 376.731414 -270.606199 
L 377.8111 -270.606199 
L 378.874791 -270.606199 
L 379.922953 -270.841478 
L 380.956033 -270.946047 
L 381.974459 -271.583264 
L 382.978641 -273.403415 
L 383.968971 -272.410011 
L 384.945827 -273.481842 
L 385.909571 -274.449103 
L 386.860549 -274.945805 
L 387.799096 -274.945805 
L 388.725532 -274.943845 
L 389.640166 -274.449103 
L 390.543295 -274.449103 
L 391.435205 -275.442507 
L 392.316171 -275.468649 
L 393.186458 -276.435911 
L 394.046323 -275.782356 
L 394.896011 -275.782356 
L 395.735761 -275.782356 
L 396.565803 -275.782356 
L 397.386358 -275.782356 
L 398.197642 -275.782356 
L 398.99986 -275.782356 
L 399.793214 -275.494792 
L 400.577898 -276.174489 
L 400.577898 -288.722749 
L 400.577898 -288.722749 
L 399.793214 -287.54635 
L 398.99986 -287.54635 
L 398.197642 -287.494065 
L 397.386358 -287.389497 
L 396.565803 -288.069194 
L 395.735761 -287.206501 
L 394.896011 -287.180359 
L 394.046323 -286.631373 
L 393.186458 -286.631373 
L 392.316171 -286.631373 
L 391.435205 -286.60523 
L 390.543295 -286.579088 
L 389.640166 -286.579088 
L 388.725532 -286.579088 
L 387.799096 -286.579088 
L 386.860549 -286.579088 
L 385.909571 -286.474519 
L 384.945827 -286.474519 
L 383.968971 -286.36995 
L 382.978641 -285.847106 
L 381.974459 -285.847106 
L 380.956033 -285.611826 
L 379.922953 -285.5334 
L 378.874791 -285.428831 
L 377.8111 -285.428831 
L 376.731414 -285.115124 
L 375.635243 -285.115124 
L 374.522076 -283.004795 
L 373.391378 -282.239481 
L 372.242589 -283.154459 
L 371.075119 -282.082628 
L 369.888351 -281.978059 
L 368.681636 -281.402931 
L 367.454294 -281.262416 
L 366.205604 -281.899633 
L 364.934813 -281.899633 
L 363.641124 -281.376789 
L 362.323696 -281.376789 
L 360.981642 -279.285412 
L 359.614023 -279.729829 
L 358.219847 -279.180843 
L 356.798061 -279.154701 
L 355.347551 -278.78871 
L 353.867131 -278.762568 
L 352.355542 -278.710283 
L 350.811444 -278.710283 
L 349.233406 -278.448861 
L 347.619904 -277.795306 
L 345.969307 -277.716879 
L 344.279869 -277.6195 
L 342.549717 -277.324746 
L 340.776842 -277.324746 
L 338.959078 -276.993394 
L 337.094095 -276.984898 
L 335.179373 -276.984898 
L 333.212187 -276.252916 
L 331.189579 -276.252916 
L 329.108337 -275.573218 
L 326.96496 -276.435911 
L 324.755622 -274.608571 
L 322.476135 -275.416365 
L 320.121897 -275.050374 
L 317.68784 -272.619149 
L 315.168359 -272.174731 
L 312.557242 -272.405436 
L 309.847569 -271.625745 
L 307.031607 -271.756456 
L 304.100677 -270.789194 
L 301.04499 -269.351373 
L 297.85345 -269.08995 
L 294.513415 -268.880813 
L 291.010388 -268.828528 
L 287.327641 -268.514822 
L 283.445733 -266.632583 
L 279.341883 -266.632583 
L 274.989168 -264.515064 
L 270.355443 -263.495518 
L 265.401906 -262.554398 
L 260.081115 -262.466168 
L 254.334223 -261.943978 
L 248.086996 -260.175457 
L 241.243934 -258.711494 
L 233.679279 -256.509666 
L 225.222714 -252.123657 
L 215.635452 -251.16097 
L 204.567769 -249.117303 
L 191.47748 -247.262513 
L 175.45626 -246.293944 
L 154.801316 -243.104595 
L 125.689806 -235.00051 
L 75.923352 -218.975336 
z
" id="m1de2f4a893" style="stroke:#1f77b4;stroke-opacity:0.2;"/>
    </defs>
    <g clip-path="url(#pa4e813a674)">
     <use style="fill:#1f77b4;fill-opacity:0.2;stroke:#1f77b4;stroke-opacity:0.2;" x="0" xlink:href="#m1de2f4a893" y="325.986375"/>
    </g>
   </g>
   <g id="PolyCollection_2">
    <defs>
     <path d="M 75.923352 -190.062053 
L 75.923352 -180.964565 
L 125.689806 -201.669194 
L 154.801316 -205.59314 
L 175.45626 -212.3875 
L 191.47748 -214.374307 
L 204.567769 -216.517969 
L 215.635452 -238.294429 
L 225.222714 -238.869557 
L 233.679279 -239.915245 
L 241.243934 -240.777938 
L 248.086996 -243.575155 
L 254.334223 -245.065261 
L 260.081115 -249.352583 
L 265.401906 -249.587863 
L 270.355443 -249.823143 
L 274.989168 -250.162991 
L 279.341883 -250.581267 
L 283.445733 -251.025684 
L 287.327641 -252.646501 
L 291.010388 -252.724928 
L 294.513415 -252.724928 
L 297.85345 -252.724928 
L 301.04499 -253.378483 
L 304.100677 -253.404625 
L 307.031607 -253.404625 
L 309.847569 -254.319602 
L 312.557242 -254.711736 
L 315.168359 -254.737878 
L 317.68784 -254.790162 
L 320.121897 -254.894731 
L 322.476135 -255.365291 
L 324.755622 -258.920631 
L 326.96496 -260.750586 
L 329.108337 -260.250616 
L 331.189579 -260.615953 
L 333.212187 -260.672159 
L 335.179373 -260.672159 
L 337.094095 -261.168861 
L 338.959078 -261.822416 
L 340.776842 -262.21455 
L 342.549717 -262.292976 
L 344.279869 -262.658967 
L 345.969307 -262.998816 
L 347.619904 -263.381799 
L 349.233406 -263.364807 
L 350.811444 -263.364807 
L 352.355542 -263.809224 
L 353.867131 -263.835366 
L 355.347551 -263.835366 
L 356.798061 -263.99222 
L 358.219847 -264.044504 
L 359.614023 -264.564734 
L 360.981642 -264.671917 
L 362.323696 -264.671917 
L 363.641124 -264.825503 
L 364.934813 -265.325472 
L 366.205604 -265.452916 
L 367.454294 -265.560752 
L 368.681636 -265.76989 
L 369.888351 -266.083596 
L 371.075119 -266.109739 
L 372.242589 -266.711009 
L 373.391378 -266.737152 
L 374.522076 -266.84172 
L 375.635243 -266.867863 
L 376.731414 -267.286138 
L 377.8111 -267.861267 
L 378.874791 -268.096547 
L 379.922953 -268.514822 
L 380.956033 -268.514822 
L 381.974459 -268.567106 
L 382.978641 -268.645533 
L 383.968971 -268.540964 
L 384.945827 -268.933097 
L 385.909571 -268.933097 
L 386.860549 -268.540964 
L 387.799096 -269.063808 
L 388.725532 -269.063808 
L 389.640166 -269.429799 
L 390.543295 -269.717363 
L 391.435205 -269.769648 
L 392.316171 -270.370919 
L 393.186458 -270.710767 
L 394.046323 -270.684625 
L 394.896011 -271.861025 
L 395.735761 -271.887167 
L 396.565803 -271.782598 
L 397.386358 -272.828286 
L 398.197642 -272.357727 
L 398.99986 -271.887167 
L 399.793214 -272.383869 
L 400.577898 -272.383869 
L 400.577898 -291.57225 
L 400.577898 -291.57225 
L 399.793214 -291.33697 
L 398.99986 -291.310828 
L 398.197642 -291.238937 
L 397.386358 -291.075548 
L 396.565803 -290.95464 
L 395.735761 -290.787984 
L 394.896011 -290.840268 
L 394.046323 -291.18796 
L 393.186458 -290.604988 
L 392.316171 -288.984171 
L 391.435205 -288.278332 
L 390.543295 -288.278332 
L 389.640166 -288.278332 
L 388.725532 -288.278332 
L 387.799096 -288.278332 
L 386.860549 -288.278332 
L 385.909571 -288.121478 
L 384.945827 -288.121478 
L 383.968971 -287.938483 
L 382.978641 -287.938483 
L 381.974459 -287.677061 
L 380.956033 -286.709799 
L 379.922953 -286.788226 
L 378.874791 -284.857624 
L 377.8111 -284.252432 
L 376.731414 -284.017152 
L 375.635243 -283.964867 
L 374.522076 -283.938725 
L 373.391378 -283.886441 
L 372.242589 -283.442023 
L 371.075119 -283.268177 
L 369.888351 -283.268177 
L 368.681636 -283.023748 
L 367.454294 -282.919179 
L 366.205604 -282.840752 
L 364.934813 -280.853944 
L 363.641124 -282.840752 
L 362.323696 -282.81461 
L 360.981642 -277.350888 
L 359.614023 -279.363839 
L 358.219847 -277.298604 
L 356.798061 -277.298604 
L 355.347551 -277.272462 
L 353.867131 -279.363839 
L 352.355542 -276.749618 
L 350.811444 -276.734586 
L 349.233406 -276.618907 
L 347.619904 -276.148347 
L 345.969307 -275.050374 
L 344.279869 -275.113769 
L 342.549717 -278.475003 
L 340.776842 -274.99809 
L 338.959078 -275.651645 
L 337.094095 -274.893521 
L 335.179373 -275.292189 
L 333.212187 -274.658241 
L 331.189579 -272.331584 
L 329.108337 -272.253158 
L 326.96496 -272.227016 
L 324.755622 -270.057212 
L 322.476135 -271.730314 
L 320.121897 -271.651887 
L 317.68784 -272.796916 
L 315.168359 -270.815336 
L 312.557242 -272.04402 
L 309.847569 -270.556528 
L 307.031607 -267.599845 
L 304.100677 -265.691463 
L 301.04499 -265.665321 
L 297.85345 -265.011766 
L 294.513415 -264.881055 
L 291.010388 -264.881055 
L 287.327641 -264.881055 
L 283.445733 -262.685109 
L 279.341883 -262.685109 
L 274.989168 -262.685109 
L 270.355443 -262.789678 
L 265.401906 -262.737394 
L 260.081115 -262.266834 
L 254.334223 -259.208196 
L 248.086996 -258.345503 
L 241.243934 -254.9993 
L 233.679279 -253.744474 
L 225.222714 -253.352341 
L 215.635452 -253.064776 
L 204.567769 -249.77478 
L 191.47748 -247.313491 
L 175.45626 -241.457636 
L 154.801316 -233.92868 
L 125.689806 -226.190586 
L 75.923352 -190.062053 
z
" id="m2b095283cf" style="stroke:#98df8a;stroke-opacity:0.2;"/>
    </defs>
    <g clip-path="url(#pa4e813a674)">
     <use style="fill:#98df8a;fill-opacity:0.2;stroke:#98df8a;stroke-opacity:0.2;" x="0" xlink:href="#m2b095283cf" y="325.986375"/>
    </g>
   </g>
   <g id="PolyCollection_3">
    <defs>
     <path d="M 75.923352 -51.299209 
L 75.923352 -49.65225 
L 125.689806 -50.070525 
L 154.801316 -50.096668 
L 175.45626 -50.148952 
L 191.47748 -50.227379 
L 204.567769 -50.802507 
L 215.635452 -50.802507 
L 225.222714 -50.907076 
L 233.679279 -50.985503 
L 241.243934 -50.985503 
L 248.086996 -51.037787 
L 254.334223 -51.037787 
L 260.081115 -51.636444 
L 265.401906 -51.482205 
L 270.355443 -51.874338 
L 274.989168 -52.031191 
L 279.341883 -52.031191 
L 283.445733 -52.031191 
L 287.327641 -52.266471 
L 291.010388 -52.266471 
L 294.513415 -52.266471 
L 297.85345 -52.342937 
L 301.04499 -52.344898 
L 304.100677 -52.632462 
L 307.031607 -52.632462 
L 309.847569 -53.756577 
L 312.557242 -53.807554 
L 315.168359 -53.861146 
L 317.68784 -53.861146 
L 320.121897 -54.697696 
L 322.476135 -54.906834 
L 324.755622 -55.011403 
L 326.96496 -55.011403 
L 329.108337 -55.037545 
L 331.189579 -55.037545 
L 333.212187 -55.037545 
L 335.179373 -55.037545 
L 337.094095 -55.037545 
L 338.959078 -55.194398 
L 340.776842 -55.194398 
L 342.549717 -55.194398 
L 344.279869 -55.194398 
L 345.969307 -55.194398 
L 347.619904 -55.22054 
L 349.233406 -55.795669 
L 350.811444 -56.68189 
L 352.355542 -56.76097 
L 353.867131 -56.684504 
L 355.347551 -56.684504 
L 356.798061 -56.63222 
L 358.219847 -56.841357 
L 359.614023 -56.783845 
L 360.981642 -56.8675 
L 362.323696 -56.893642 
L 363.641124 -57.181206 
L 364.934813 -57.181206 
L 366.205604 -57.10278 
L 367.454294 -57.181206 
L 368.681636 -57.181206 
L 369.888351 -57.181206 
L 371.075119 -57.181206 
L 372.242589 -57.860904 
L 373.391378 -57.808619 
L 374.522076 -57.808619 
L 375.635243 -57.808619 
L 376.731414 -57.730193 
L 377.8111 -57.808619 
L 378.874791 -57.808619 
L 379.922953 -57.806658 
L 380.956033 -57.808619 
L 381.974459 -58.063506 
L 382.978641 -58.139972 
L 383.968971 -58.671312 
L 384.945827 -58.514459 
L 385.909571 -58.357606 
L 386.860549 -58.697454 
L 387.799096 -59.037303 
L 388.725532 -58.697454 
L 389.640166 -58.697454 
L 390.543295 -58.697454 
L 391.435205 -58.697454 
L 392.316171 -58.775881 
L 393.186458 -58.828165 
L 394.046323 -58.985019 
L 394.896011 -59.037303 
L 395.735761 -59.037303 
L 396.565803 -59.220298 
L 397.386358 -59.351009 
L 398.197642 -59.351009 
L 398.99986 -59.377152 
L 399.793214 -60.135276 
L 400.577898 -60.135276 
L 400.577898 -75.167046 
L 400.577898 -75.167046 
L 399.793214 -75.167046 
L 398.99986 -74.095215 
L 398.197642 -74.774913 
L 397.386358 -74.74877 
L 396.565803 -74.670344 
L 395.735761 -74.618059 
L 394.896011 -74.957908 
L 394.046323 -74.618059 
L 393.186458 -74.618059 
L 392.316171 -73.467802 
L 391.435205 -74.618059 
L 390.543295 -74.513491 
L 389.640166 -74.513491 
L 388.725532 -74.513491 
L 387.799096 -74.513491 
L 386.860549 -74.513491 
L 385.909571 -74.513491 
L 384.945827 -74.513491 
L 383.968971 -74.513491 
L 382.978641 -70.853581 
L 381.974459 -70.853581 
L 380.956033 -70.873842 
L 379.922953 -70.420274 
L 378.874791 -70.330737 
L 377.8111 -70.330737 
L 376.731414 -70.252311 
L 375.635243 -70.252311 
L 374.522076 -69.964746 
L 373.391378 -69.834035 
L 372.242589 -69.375239 
L 371.075119 -69.834035 
L 369.888351 -69.781751 
L 368.681636 -69.677182 
L 367.454294 -68.866773 
L 366.205604 -68.878537 
L 364.934813 -68.814489 
L 363.641124 -68.814489 
L 362.323696 -68.330205 
L 360.981642 -69.337333 
L 359.614023 -68.662211 
L 358.219847 -68.631494 
L 356.798061 -68.641297 
L 355.347551 -68.213218 
L 353.867131 -68.23936 
L 352.355542 -68.213218 
L 350.811444 -68.187076 
L 349.233406 -68.187076 
L 347.619904 -67.245957 
L 345.969307 -68.187076 
L 344.279869 -67.219814 
L 342.549717 -67.141388 
L 340.776842 -66.670828 
L 338.959078 -66.670828 
L 337.094095 -66.513975 
L 335.179373 -66.513975 
L 333.212187 -68.187076 
L 331.189579 -66.310065 
L 329.108337 -63.716758 
L 326.96496 -63.716758 
L 324.755622 -63.429194 
L 322.476135 -63.220056 
L 320.121897 -63.220056 
L 317.68784 -63.220056 
L 315.168359 -62.017515 
L 312.557242 -60.605835 
L 309.847569 -60.449636 
L 307.031607 -60.448982 
L 304.100677 -61.703808 
L 301.04499 -61.076395 
L 297.85345 -60.004565 
L 294.513415 -60.004565 
L 291.010388 -59.821569 
L 287.327641 -58.226894 
L 283.445733 -57.887046 
L 279.341883 -57.913188 
L 274.989168 -57.70405 
L 270.355443 -55.874096 
L 265.401906 -57.573339 
L 260.081115 -55.351252 
L 254.334223 -55.142114 
L 248.086996 -55.301581 
L 241.243934 -54.593127 
L 233.679279 -55.142767 
L 225.222714 -54.488559 
L 215.635452 -55.011403 
L 204.567769 -54.070283 
L 191.47748 -53.312159 
L 175.45626 -53.024595 
L 154.801316 -52.580177 
L 125.689806 -52.083475 
L 75.923352 -51.299209 
z
" id="m61d07e19dc" style="stroke:#d62728;stroke-opacity:0.2;"/>
    </defs>
    <g clip-path="url(#pa4e813a674)">
     <use style="fill:#d62728;fill-opacity:0.2;stroke:#d62728;stroke-opacity:0.2;" x="0" xlink:href="#m61d07e19dc" y="325.986375"/>
    </g>
   </g>
   <g id="matplotlib.axis_1">
    <g id="xtick_1">
     <g id="line2d_1">
      <defs>
       <path d="M 0 0 
L 0 3.5 
" id="m4a7899eb40" style="stroke:#000000;stroke-width:0.8;"/>
      </defs>
      <g>
       <use style="stroke:#000000;stroke-width:0.8;" x="75.923352" xlink:href="#m4a7899eb40" y="288.430125"/>
      </g>
     </g>
     <g id="text_1">
      <!-- 14m -->
      <g transform="translate(64.69054 303.028562)scale(0.1 -0.1)">
       <defs>
        <path d="M 794 531 
L 1825 531 
L 1825 4091 
L 703 3866 
L 703 4441 
L 1819 4666 
L 2450 4666 
L 2450 531 
L 3481 531 
L 3481 0 
L 794 0 
L 794 531 
z
" id="DejaVuSans-31" transform="scale(0.015625)"/>
        <path d="M 2419 4116 
L 825 1625 
L 2419 1625 
L 2419 4116 
z
M 2253 4666 
L 3047 4666 
L 3047 1625 
L 3713 1625 
L 3713 1100 
L 3047 1100 
L 3047 0 
L 2419 0 
L 2419 1100 
L 313 1100 
L 313 1709 
L 2253 4666 
z
" id="DejaVuSans-34" transform="scale(0.015625)"/>
        <path d="M 3328 2828 
Q 3544 3216 3844 3400 
Q 4144 3584 4550 3584 
Q 5097 3584 5394 3201 
Q 5691 2819 5691 2113 
L 5691 0 
L 5113 0 
L 5113 2094 
Q 5113 2597 4934 2840 
Q 4756 3084 4391 3084 
Q 3944 3084 3684 2787 
Q 3425 2491 3425 1978 
L 3425 0 
L 2847 0 
L 2847 2094 
Q 2847 2600 2669 2842 
Q 2491 3084 2119 3084 
Q 1678 3084 1418 2786 
Q 1159 2488 1159 1978 
L 1159 0 
L 581 0 
L 581 3500 
L 1159 3500 
L 1159 2956 
Q 1356 3278 1631 3431 
Q 1906 3584 2284 3584 
Q 2666 3584 2933 3390 
Q 3200 3197 3328 2828 
z
" id="DejaVuSans-6d" transform="scale(0.015625)"/>
       </defs>
       <use xlink:href="#DejaVuSans-31"/>
       <use x="63.623047" xlink:href="#DejaVuSans-34"/>
       <use x="127.246094" xlink:href="#DejaVuSans-6d"/>
      </g>
     </g>
    </g>
    <g id="xtick_2">
     <g id="line2d_2">
      <g>
       <use style="stroke:#000000;stroke-width:0.8;" x="140.854435" xlink:href="#m4a7899eb40" y="288.430125"/>
      </g>
     </g>
     <g id="text_2">
      <!-- 37m -->
      <g transform="translate(129.621622 303.028562)scale(0.1 -0.1)">
       <defs>
        <path d="M 2597 2516 
Q 3050 2419 3304 2112 
Q 3559 1806 3559 1356 
Q 3559 666 3084 287 
Q 2609 -91 1734 -91 
Q 1441 -91 1130 -33 
Q 819 25 488 141 
L 488 750 
Q 750 597 1062 519 
Q 1375 441 1716 441 
Q 2309 441 2620 675 
Q 2931 909 2931 1356 
Q 2931 1769 2642 2001 
Q 2353 2234 1838 2234 
L 1294 2234 
L 1294 2753 
L 1863 2753 
Q 2328 2753 2575 2939 
Q 2822 3125 2822 3475 
Q 2822 3834 2567 4026 
Q 2313 4219 1838 4219 
Q 1578 4219 1281 4162 
Q 984 4106 628 3988 
L 628 4550 
Q 988 4650 1302 4700 
Q 1616 4750 1894 4750 
Q 2613 4750 3031 4423 
Q 3450 4097 3450 3541 
Q 3450 3153 3228 2886 
Q 3006 2619 2597 2516 
z
" id="DejaVuSans-33" transform="scale(0.015625)"/>
        <path d="M 525 4666 
L 3525 4666 
L 3525 4397 
L 1831 0 
L 1172 0 
L 2766 4134 
L 525 4134 
L 525 4666 
z
" id="DejaVuSans-37" transform="scale(0.015625)"/>
       </defs>
       <use xlink:href="#DejaVuSans-33"/>
       <use x="63.623047" xlink:href="#DejaVuSans-37"/>
       <use x="127.246094" xlink:href="#DejaVuSans-6d"/>
      </g>
     </g>
    </g>
    <g id="xtick_3">
     <g id="line2d_3">
      <g>
       <use style="stroke:#000000;stroke-width:0.8;" x="205.785517" xlink:href="#m4a7899eb40" y="288.430125"/>
      </g>
     </g>
     <g id="text_3">
      <!-- 1h:31m -->
      <g transform="translate(186.51833 303.028562)scale(0.1 -0.1)">
       <defs>
        <path d="M 3513 2113 
L 3513 0 
L 2938 0 
L 2938 2094 
Q 2938 2591 2744 2837 
Q 2550 3084 2163 3084 
Q 1697 3084 1428 2787 
Q 1159 2491 1159 1978 
L 1159 0 
L 581 0 
L 581 4863 
L 1159 4863 
L 1159 2956 
Q 1366 3272 1645 3428 
Q 1925 3584 2291 3584 
Q 2894 3584 3203 3211 
Q 3513 2838 3513 2113 
z
" id="DejaVuSans-68" transform="scale(0.015625)"/>
        <path d="M 750 794 
L 1409 794 
L 1409 0 
L 750 0 
L 750 794 
z
M 750 3309 
L 1409 3309 
L 1409 2516 
L 750 2516 
L 750 3309 
z
" id="DejaVuSans-3a" transform="scale(0.015625)"/>
       </defs>
       <use xlink:href="#DejaVuSans-31"/>
       <use x="63.623047" xlink:href="#DejaVuSans-68"/>
       <use x="127.001953" xlink:href="#DejaVuSans-3a"/>
       <use x="160.693359" xlink:href="#DejaVuSans-33"/>
       <use x="224.316406" xlink:href="#DejaVuSans-31"/>
       <use x="287.939453" xlink:href="#DejaVuSans-6d"/>
      </g>
     </g>
    </g>
    <g id="xtick_4">
     <g id="line2d_4">
      <g>
       <use style="stroke:#000000;stroke-width:0.8;" x="270.7166" xlink:href="#m4a7899eb40" y="288.430125"/>
      </g>
     </g>
     <g id="text_4">
      <!-- 3h:46m -->
      <g transform="translate(251.449412 303.028562)scale(0.1 -0.1)">
       <defs>
        <path d="M 2113 2584 
Q 1688 2584 1439 2293 
Q 1191 2003 1191 1497 
Q 1191 994 1439 701 
Q 1688 409 2113 409 
Q 2538 409 2786 701 
Q 3034 994 3034 1497 
Q 3034 2003 2786 2293 
Q 2538 2584 2113 2584 
z
M 3366 4563 
L 3366 3988 
Q 3128 4100 2886 4159 
Q 2644 4219 2406 4219 
Q 1781 4219 1451 3797 
Q 1122 3375 1075 2522 
Q 1259 2794 1537 2939 
Q 1816 3084 2150 3084 
Q 2853 3084 3261 2657 
Q 3669 2231 3669 1497 
Q 3669 778 3244 343 
Q 2819 -91 2113 -91 
Q 1303 -91 875 529 
Q 447 1150 447 2328 
Q 447 3434 972 4092 
Q 1497 4750 2381 4750 
Q 2619 4750 2861 4703 
Q 3103 4656 3366 4563 
z
" id="DejaVuSans-36" transform="scale(0.015625)"/>
       </defs>
       <use xlink:href="#DejaVuSans-33"/>
       <use x="63.623047" xlink:href="#DejaVuSans-68"/>
       <use x="127.001953" xlink:href="#DejaVuSans-3a"/>
       <use x="160.693359" xlink:href="#DejaVuSans-34"/>
       <use x="224.316406" xlink:href="#DejaVuSans-36"/>
       <use x="287.939453" xlink:href="#DejaVuSans-6d"/>
      </g>
     </g>
    </g>
    <g id="xtick_5">
     <g id="line2d_5">
      <g>
       <use style="stroke:#000000;stroke-width:0.8;" x="335.647682" xlink:href="#m4a7899eb40" y="288.430125"/>
      </g>
     </g>
     <g id="text_5">
      <!-- 9h:18m -->
      <g transform="translate(316.380495 303.028562)scale(0.1 -0.1)">
       <defs>
        <path d="M 703 97 
L 703 672 
Q 941 559 1184 500 
Q 1428 441 1663 441 
Q 2288 441 2617 861 
Q 2947 1281 2994 2138 
Q 2813 1869 2534 1725 
Q 2256 1581 1919 1581 
Q 1219 1581 811 2004 
Q 403 2428 403 3163 
Q 403 3881 828 4315 
Q 1253 4750 1959 4750 
Q 2769 4750 3195 4129 
Q 3622 3509 3622 2328 
Q 3622 1225 3098 567 
Q 2575 -91 1691 -91 
Q 1453 -91 1209 -44 
Q 966 3 703 97 
z
M 1959 2075 
Q 2384 2075 2632 2365 
Q 2881 2656 2881 3163 
Q 2881 3666 2632 3958 
Q 2384 4250 1959 4250 
Q 1534 4250 1286 3958 
Q 1038 3666 1038 3163 
Q 1038 2656 1286 2365 
Q 1534 2075 1959 2075 
z
" id="DejaVuSans-39" transform="scale(0.015625)"/>
        <path d="M 2034 2216 
Q 1584 2216 1326 1975 
Q 1069 1734 1069 1313 
Q 1069 891 1326 650 
Q 1584 409 2034 409 
Q 2484 409 2743 651 
Q 3003 894 3003 1313 
Q 3003 1734 2745 1975 
Q 2488 2216 2034 2216 
z
M 1403 2484 
Q 997 2584 770 2862 
Q 544 3141 544 3541 
Q 544 4100 942 4425 
Q 1341 4750 2034 4750 
Q 2731 4750 3128 4425 
Q 3525 4100 3525 3541 
Q 3525 3141 3298 2862 
Q 3072 2584 2669 2484 
Q 3125 2378 3379 2068 
Q 3634 1759 3634 1313 
Q 3634 634 3220 271 
Q 2806 -91 2034 -91 
Q 1263 -91 848 271 
Q 434 634 434 1313 
Q 434 1759 690 2068 
Q 947 2378 1403 2484 
z
M 1172 3481 
Q 1172 3119 1398 2916 
Q 1625 2713 2034 2713 
Q 2441 2713 2670 2916 
Q 2900 3119 2900 3481 
Q 2900 3844 2670 4047 
Q 2441 4250 2034 4250 
Q 1625 4250 1398 4047 
Q 1172 3844 1172 3481 
z
" id="DejaVuSans-38" transform="scale(0.015625)"/>
       </defs>
       <use xlink:href="#DejaVuSans-39"/>
       <use x="63.623047" xlink:href="#DejaVuSans-68"/>
       <use x="127.001953" xlink:href="#DejaVuSans-3a"/>
       <use x="160.693359" xlink:href="#DejaVuSans-31"/>
       <use x="224.316406" xlink:href="#DejaVuSans-38"/>
       <use x="287.939453" xlink:href="#DejaVuSans-6d"/>
      </g>
     </g>
    </g>
    <g id="xtick_6">
     <g id="line2d_6">
      <g>
       <use style="stroke:#000000;stroke-width:0.8;" x="400.578765" xlink:href="#m4a7899eb40" y="288.430125"/>
      </g>
     </g>
     <g id="text_6">
      <!-- 23h -->
      <g transform="translate(391.047515 303.028562)scale(0.1 -0.1)">
       <defs>
        <path d="M 1228 531 
L 3431 531 
L 3431 0 
L 469 0 
L 469 531 
Q 828 903 1448 1529 
Q 2069 2156 2228 2338 
Q 2531 2678 2651 2914 
Q 2772 3150 2772 3378 
Q 2772 3750 2511 3984 
Q 2250 4219 1831 4219 
Q 1534 4219 1204 4116 
Q 875 4013 500 3803 
L 500 4441 
Q 881 4594 1212 4672 
Q 1544 4750 1819 4750 
Q 2544 4750 2975 4387 
Q 3406 4025 3406 3419 
Q 3406 3131 3298 2873 
Q 3191 2616 2906 2266 
Q 2828 2175 2409 1742 
Q 1991 1309 1228 531 
z
" id="DejaVuSans-32" transform="scale(0.015625)"/>
       </defs>
       <use xlink:href="#DejaVuSans-32"/>
       <use x="63.623047" xlink:href="#DejaVuSans-33"/>
       <use x="127.246094" xlink:href="#DejaVuSans-68"/>
      </g>
     </g>
    </g>
    <g id="xtick_7">
     <g id="line2d_7">
      <defs>
       <path d="M 0 0 
L 0 2 
" id="md59234cb6a" style="stroke:#000000;stroke-width:0.6;"/>
      </defs>
      <g>
       <use style="stroke:#000000;stroke-width:0.6;" x="67.466788" xlink:href="#md59234cb6a" y="288.430125"/>
      </g>
     </g>
    </g>
    <g id="xtick_8">
     <g id="line2d_8">
      <g>
       <use style="stroke:#000000;stroke-width:0.6;" x="133.254461" xlink:href="#md59234cb6a" y="288.430125"/>
      </g>
     </g>
    </g>
    <g id="xtick_9">
     <g id="line2d_9">
      <g>
       <use style="stroke:#000000;stroke-width:0.6;" x="162.36597" xlink:href="#md59234cb6a" y="288.430125"/>
      </g>
     </g>
    </g>
    <g id="xtick_10">
     <g id="line2d_10">
      <g>
       <use style="stroke:#000000;stroke-width:0.6;" x="183.020915" xlink:href="#md59234cb6a" y="288.430125"/>
      </g>
     </g>
    </g>
    <g id="xtick_11">
     <g id="line2d_11">
      <g>
       <use style="stroke:#000000;stroke-width:0.6;" x="199.042135" xlink:href="#md59234cb6a" y="288.430125"/>
      </g>
     </g>
    </g>
    <g id="xtick_12">
     <g id="line2d_12">
      <g>
       <use style="stroke:#000000;stroke-width:0.6;" x="212.132424" xlink:href="#md59234cb6a" y="288.430125"/>
      </g>
     </g>
    </g>
    <g id="xtick_13">
     <g id="line2d_13">
      <g>
       <use style="stroke:#000000;stroke-width:0.6;" x="223.200107" xlink:href="#md59234cb6a" y="288.430125"/>
      </g>
     </g>
    </g>
    <g id="xtick_14">
     <g id="line2d_14">
      <g>
       <use style="stroke:#000000;stroke-width:0.6;" x="232.787369" xlink:href="#md59234cb6a" y="288.430125"/>
      </g>
     </g>
    </g>
    <g id="xtick_15">
     <g id="line2d_15">
      <g>
       <use style="stroke:#000000;stroke-width:0.6;" x="241.243934" xlink:href="#md59234cb6a" y="288.430125"/>
      </g>
     </g>
    </g>
    <g id="xtick_16">
     <g id="line2d_16">
      <g>
       <use style="stroke:#000000;stroke-width:0.6;" x="298.575043" xlink:href="#md59234cb6a" y="288.430125"/>
      </g>
     </g>
    </g>
    <g id="xtick_17">
     <g id="line2d_17">
      <g>
       <use style="stroke:#000000;stroke-width:0.6;" x="327.686552" xlink:href="#md59234cb6a" y="288.430125"/>
      </g>
     </g>
    </g>
    <g id="xtick_18">
     <g id="line2d_18">
      <g>
       <use style="stroke:#000000;stroke-width:0.6;" x="348.341496" xlink:href="#md59234cb6a" y="288.430125"/>
      </g>
     </g>
    </g>
    <g id="xtick_19">
     <g id="line2d_19">
      <g>
       <use style="stroke:#000000;stroke-width:0.6;" x="364.362716" xlink:href="#md59234cb6a" y="288.430125"/>
      </g>
     </g>
    </g>
    <g id="xtick_20">
     <g id="line2d_20">
      <g>
       <use style="stroke:#000000;stroke-width:0.6;" x="377.453006" xlink:href="#md59234cb6a" y="288.430125"/>
      </g>
     </g>
    </g>
    <g id="xtick_21">
     <g id="line2d_21">
      <g>
       <use style="stroke:#000000;stroke-width:0.6;" x="388.520688" xlink:href="#md59234cb6a" y="288.430125"/>
      </g>
     </g>
    </g>
    <g id="xtick_22">
     <g id="line2d_22">
      <g>
       <use style="stroke:#000000;stroke-width:0.6;" x="398.10795" xlink:href="#md59234cb6a" y="288.430125"/>
      </g>
     </g>
    </g>
    <g id="xtick_23">
     <g id="line2d_23">
      <g>
       <use style="stroke:#000000;stroke-width:0.6;" x="406.564515" xlink:href="#md59234cb6a" y="288.430125"/>
      </g>
     </g>
    </g>
    <g id="text_7">
     <!-- Time (hour:minute) -->
     <g transform="translate(189.843594 316.706687)scale(0.1 -0.1)">
      <defs>
       <path d="M -19 4666 
L 3928 4666 
L 3928 4134 
L 2272 4134 
L 2272 0 
L 1638 0 
L 1638 4134 
L -19 4134 
L -19 4666 
z
" id="DejaVuSans-54" transform="scale(0.015625)"/>
       <path d="M 603 3500 
L 1178 3500 
L 1178 0 
L 603 0 
L 603 3500 
z
M 603 4863 
L 1178 4863 
L 1178 4134 
L 603 4134 
L 603 4863 
z
" id="DejaVuSans-69" transform="scale(0.015625)"/>
       <path d="M 3597 1894 
L 3597 1613 
L 953 1613 
Q 991 1019 1311 708 
Q 1631 397 2203 397 
Q 2534 397 2845 478 
Q 3156 559 3463 722 
L 3463 178 
Q 3153 47 2828 -22 
Q 2503 -91 2169 -91 
Q 1331 -91 842 396 
Q 353 884 353 1716 
Q 353 2575 817 3079 
Q 1281 3584 2069 3584 
Q 2775 3584 3186 3129 
Q 3597 2675 3597 1894 
z
M 3022 2063 
Q 3016 2534 2758 2815 
Q 2500 3097 2075 3097 
Q 1594 3097 1305 2825 
Q 1016 2553 972 2059 
L 3022 2063 
z
" id="DejaVuSans-65" transform="scale(0.015625)"/>
       <path id="DejaVuSans-20" transform="scale(0.015625)"/>
       <path d="M 1984 4856 
Q 1566 4138 1362 3434 
Q 1159 2731 1159 2009 
Q 1159 1288 1364 580 
Q 1569 -128 1984 -844 
L 1484 -844 
Q 1016 -109 783 600 
Q 550 1309 550 2009 
Q 550 2706 781 3412 
Q 1013 4119 1484 4856 
L 1984 4856 
z
" id="DejaVuSans-28" transform="scale(0.015625)"/>
       <path d="M 1959 3097 
Q 1497 3097 1228 2736 
Q 959 2375 959 1747 
Q 959 1119 1226 758 
Q 1494 397 1959 397 
Q 2419 397 2687 759 
Q 2956 1122 2956 1747 
Q 2956 2369 2687 2733 
Q 2419 3097 1959 3097 
z
M 1959 3584 
Q 2709 3584 3137 3096 
Q 3566 2609 3566 1747 
Q 3566 888 3137 398 
Q 2709 -91 1959 -91 
Q 1206 -91 779 398 
Q 353 888 353 1747 
Q 353 2609 779 3096 
Q 1206 3584 1959 3584 
z
" id="DejaVuSans-6f" transform="scale(0.015625)"/>
       <path d="M 544 1381 
L 544 3500 
L 1119 3500 
L 1119 1403 
Q 1119 906 1312 657 
Q 1506 409 1894 409 
Q 2359 409 2629 706 
Q 2900 1003 2900 1516 
L 2900 3500 
L 3475 3500 
L 3475 0 
L 2900 0 
L 2900 538 
Q 2691 219 2414 64 
Q 2138 -91 1772 -91 
Q 1169 -91 856 284 
Q 544 659 544 1381 
z
M 1991 3584 
L 1991 3584 
z
" id="DejaVuSans-75" transform="scale(0.015625)"/>
       <path d="M 2631 2963 
Q 2534 3019 2420 3045 
Q 2306 3072 2169 3072 
Q 1681 3072 1420 2755 
Q 1159 2438 1159 1844 
L 1159 0 
L 581 0 
L 581 3500 
L 1159 3500 
L 1159 2956 
Q 1341 3275 1631 3429 
Q 1922 3584 2338 3584 
Q 2397 3584 2469 3576 
Q 2541 3569 2628 3553 
L 2631 2963 
z
" id="DejaVuSans-72" transform="scale(0.015625)"/>
       <path d="M 3513 2113 
L 3513 0 
L 2938 0 
L 2938 2094 
Q 2938 2591 2744 2837 
Q 2550 3084 2163 3084 
Q 1697 3084 1428 2787 
Q 1159 2491 1159 1978 
L 1159 0 
L 581 0 
L 581 3500 
L 1159 3500 
L 1159 2956 
Q 1366 3272 1645 3428 
Q 1925 3584 2291 3584 
Q 2894 3584 3203 3211 
Q 3513 2838 3513 2113 
z
" id="DejaVuSans-6e" transform="scale(0.015625)"/>
       <path d="M 1172 4494 
L 1172 3500 
L 2356 3500 
L 2356 3053 
L 1172 3053 
L 1172 1153 
Q 1172 725 1289 603 
Q 1406 481 1766 481 
L 2356 481 
L 2356 0 
L 1766 0 
Q 1100 0 847 248 
Q 594 497 594 1153 
L 594 3053 
L 172 3053 
L 172 3500 
L 594 3500 
L 594 4494 
L 1172 4494 
z
" id="DejaVuSans-74" transform="scale(0.015625)"/>
       <path d="M 513 4856 
L 1013 4856 
Q 1481 4119 1714 3412 
Q 1947 2706 1947 2009 
Q 1947 1309 1714 600 
Q 1481 -109 1013 -844 
L 513 -844 
Q 928 -128 1133 580 
Q 1338 1288 1338 2009 
Q 1338 2731 1133 3434 
Q 928 4138 513 4856 
z
" id="DejaVuSans-29" transform="scale(0.015625)"/>
      </defs>
      <use xlink:href="#DejaVuSans-54"/>
      <use x="57.958984" xlink:href="#DejaVuSans-69"/>
      <use x="85.742188" xlink:href="#DejaVuSans-6d"/>
      <use x="183.154297" xlink:href="#DejaVuSans-65"/>
      <use x="244.677734" xlink:href="#DejaVuSans-20"/>
      <use x="276.464844" xlink:href="#DejaVuSans-28"/>
      <use x="315.478516" xlink:href="#DejaVuSans-68"/>
      <use x="378.857422" xlink:href="#DejaVuSans-6f"/>
      <use x="440.039062" xlink:href="#DejaVuSans-75"/>
      <use x="503.417969" xlink:href="#DejaVuSans-72"/>
      <use x="542.78125" xlink:href="#DejaVuSans-3a"/>
      <use x="576.472656" xlink:href="#DejaVuSans-6d"/>
      <use x="673.884766" xlink:href="#DejaVuSans-69"/>
      <use x="701.667969" xlink:href="#DejaVuSans-6e"/>
      <use x="765.046875" xlink:href="#DejaVuSans-75"/>
      <use x="828.425781" xlink:href="#DejaVuSans-74"/>
      <use x="867.634766" xlink:href="#DejaVuSans-65"/>
      <use x="929.158203" xlink:href="#DejaVuSans-29"/>
     </g>
    </g>
   </g>
   <g id="matplotlib.axis_2">
    <g id="ytick_1">
     <g id="line2d_24">
      <defs>
       <path d="M 0 0 
L -3.5 0 
" id="mb1162d8261" style="stroke:#000000;stroke-width:0.8;"/>
      </defs>
      <g>
       <use style="stroke:#000000;stroke-width:0.8;" x="59.690625" xlink:href="#mb1162d8261" y="246.558149"/>
      </g>
     </g>
     <g id="text_8">
      <!-- 41000 -->
      <g transform="translate(20.878125 250.357368)scale(0.1 -0.1)">
       <defs>
        <path d="M 2034 4250 
Q 1547 4250 1301 3770 
Q 1056 3291 1056 2328 
Q 1056 1369 1301 889 
Q 1547 409 2034 409 
Q 2525 409 2770 889 
Q 3016 1369 3016 2328 
Q 3016 3291 2770 3770 
Q 2525 4250 2034 4250 
z
M 2034 4750 
Q 2819 4750 3233 4129 
Q 3647 3509 3647 2328 
Q 3647 1150 3233 529 
Q 2819 -91 2034 -91 
Q 1250 -91 836 529 
Q 422 1150 422 2328 
Q 422 3509 836 4129 
Q 1250 4750 2034 4750 
z
" id="DejaVuSans-30" transform="scale(0.015625)"/>
       </defs>
       <use xlink:href="#DejaVuSans-34"/>
       <use x="63.623047" xlink:href="#DejaVuSans-31"/>
       <use x="127.246094" xlink:href="#DejaVuSans-30"/>
       <use x="190.869141" xlink:href="#DejaVuSans-30"/>
       <use x="254.492188" xlink:href="#DejaVuSans-30"/>
      </g>
     </g>
    </g>
    <g id="ytick_2">
     <g id="line2d_25">
      <g>
       <use style="stroke:#000000;stroke-width:0.8;" x="59.690625" xlink:href="#mb1162d8261" y="194.273732"/>
      </g>
     </g>
     <g id="text_9">
      <!-- 42000 -->
      <g transform="translate(20.878125 198.07295)scale(0.1 -0.1)">
       <use xlink:href="#DejaVuSans-34"/>
       <use x="63.623047" xlink:href="#DejaVuSans-32"/>
       <use x="127.246094" xlink:href="#DejaVuSans-30"/>
       <use x="190.869141" xlink:href="#DejaVuSans-30"/>
       <use x="254.492188" xlink:href="#DejaVuSans-30"/>
      </g>
     </g>
    </g>
    <g id="ytick_3">
     <g id="line2d_26">
      <g>
       <use style="stroke:#000000;stroke-width:0.8;" x="59.690625" xlink:href="#mb1162d8261" y="141.989314"/>
      </g>
     </g>
     <g id="text_10">
      <!-- 43000 -->
      <g transform="translate(20.878125 145.788533)scale(0.1 -0.1)">
       <use xlink:href="#DejaVuSans-34"/>
       <use x="63.623047" xlink:href="#DejaVuSans-33"/>
       <use x="127.246094" xlink:href="#DejaVuSans-30"/>
       <use x="190.869141" xlink:href="#DejaVuSans-30"/>
       <use x="254.492188" xlink:href="#DejaVuSans-30"/>
      </g>
     </g>
    </g>
    <g id="ytick_4">
     <g id="line2d_27">
      <g>
       <use style="stroke:#000000;stroke-width:0.8;" x="59.690625" xlink:href="#mb1162d8261" y="89.704897"/>
      </g>
     </g>
     <g id="text_11">
      <!-- 44000 -->
      <g transform="translate(20.878125 93.504115)scale(0.1 -0.1)">
       <use xlink:href="#DejaVuSans-34"/>
       <use x="63.623047" xlink:href="#DejaVuSans-34"/>
       <use x="127.246094" xlink:href="#DejaVuSans-30"/>
       <use x="190.869141" xlink:href="#DejaVuSans-30"/>
       <use x="254.492188" xlink:href="#DejaVuSans-30"/>
      </g>
     </g>
    </g>
    <g id="ytick_5">
     <g id="line2d_28">
      <g>
       <use style="stroke:#000000;stroke-width:0.8;" x="59.690625" xlink:href="#mb1162d8261" y="37.420479"/>
      </g>
     </g>
     <g id="text_12">
      <!-- 45000 -->
      <g transform="translate(20.878125 41.219698)scale(0.1 -0.1)">
       <defs>
        <path d="M 691 4666 
L 3169 4666 
L 3169 4134 
L 1269 4134 
L 1269 2991 
Q 1406 3038 1543 3061 
Q 1681 3084 1819 3084 
Q 2600 3084 3056 2656 
Q 3513 2228 3513 1497 
Q 3513 744 3044 326 
Q 2575 -91 1722 -91 
Q 1428 -91 1123 -41 
Q 819 9 494 109 
L 494 744 
Q 775 591 1075 516 
Q 1375 441 1709 441 
Q 2250 441 2565 725 
Q 2881 1009 2881 1497 
Q 2881 1984 2565 2268 
Q 2250 2553 1709 2553 
Q 1456 2553 1204 2497 
Q 953 2441 691 2322 
L 691 4666 
z
" id="DejaVuSans-35" transform="scale(0.015625)"/>
       </defs>
       <use xlink:href="#DejaVuSans-34"/>
       <use x="63.623047" xlink:href="#DejaVuSans-35"/>
       <use x="127.246094" xlink:href="#DejaVuSans-30"/>
       <use x="190.869141" xlink:href="#DejaVuSans-30"/>
       <use x="254.492188" xlink:href="#DejaVuSans-30"/>
      </g>
     </g>
    </g>
    <g id="text_13">
     <!-- Code region coverage -->
     <g transform="translate(14.798438 210.379594)rotate(-90)scale(0.1 -0.1)">
      <defs>
       <path d="M 4122 4306 
L 4122 3641 
Q 3803 3938 3442 4084 
Q 3081 4231 2675 4231 
Q 1875 4231 1450 3742 
Q 1025 3253 1025 2328 
Q 1025 1406 1450 917 
Q 1875 428 2675 428 
Q 3081 428 3442 575 
Q 3803 722 4122 1019 
L 4122 359 
Q 3791 134 3420 21 
Q 3050 -91 2638 -91 
Q 1578 -91 968 557 
Q 359 1206 359 2328 
Q 359 3453 968 4101 
Q 1578 4750 2638 4750 
Q 3056 4750 3426 4639 
Q 3797 4528 4122 4306 
z
" id="DejaVuSans-43" transform="scale(0.015625)"/>
       <path d="M 2906 2969 
L 2906 4863 
L 3481 4863 
L 3481 0 
L 2906 0 
L 2906 525 
Q 2725 213 2448 61 
Q 2172 -91 1784 -91 
Q 1150 -91 751 415 
Q 353 922 353 1747 
Q 353 2572 751 3078 
Q 1150 3584 1784 3584 
Q 2172 3584 2448 3432 
Q 2725 3281 2906 2969 
z
M 947 1747 
Q 947 1113 1208 752 
Q 1469 391 1925 391 
Q 2381 391 2643 752 
Q 2906 1113 2906 1747 
Q 2906 2381 2643 2742 
Q 2381 3103 1925 3103 
Q 1469 3103 1208 2742 
Q 947 2381 947 1747 
z
" id="DejaVuSans-64" transform="scale(0.015625)"/>
       <path d="M 2906 1791 
Q 2906 2416 2648 2759 
Q 2391 3103 1925 3103 
Q 1463 3103 1205 2759 
Q 947 2416 947 1791 
Q 947 1169 1205 825 
Q 1463 481 1925 481 
Q 2391 481 2648 825 
Q 2906 1169 2906 1791 
z
M 3481 434 
Q 3481 -459 3084 -895 
Q 2688 -1331 1869 -1331 
Q 1566 -1331 1297 -1286 
Q 1028 -1241 775 -1147 
L 775 -588 
Q 1028 -725 1275 -790 
Q 1522 -856 1778 -856 
Q 2344 -856 2625 -561 
Q 2906 -266 2906 331 
L 2906 616 
Q 2728 306 2450 153 
Q 2172 0 1784 0 
Q 1141 0 747 490 
Q 353 981 353 1791 
Q 353 2603 747 3093 
Q 1141 3584 1784 3584 
Q 2172 3584 2450 3431 
Q 2728 3278 2906 2969 
L 2906 3500 
L 3481 3500 
L 3481 434 
z
" id="DejaVuSans-67" transform="scale(0.015625)"/>
       <path d="M 3122 3366 
L 3122 2828 
Q 2878 2963 2633 3030 
Q 2388 3097 2138 3097 
Q 1578 3097 1268 2742 
Q 959 2388 959 1747 
Q 959 1106 1268 751 
Q 1578 397 2138 397 
Q 2388 397 2633 464 
Q 2878 531 3122 666 
L 3122 134 
Q 2881 22 2623 -34 
Q 2366 -91 2075 -91 
Q 1284 -91 818 406 
Q 353 903 353 1747 
Q 353 2603 823 3093 
Q 1294 3584 2113 3584 
Q 2378 3584 2631 3529 
Q 2884 3475 3122 3366 
z
" id="DejaVuSans-63" transform="scale(0.015625)"/>
       <path d="M 191 3500 
L 800 3500 
L 1894 563 
L 2988 3500 
L 3597 3500 
L 2284 0 
L 1503 0 
L 191 3500 
z
" id="DejaVuSans-76" transform="scale(0.015625)"/>
       <path d="M 2194 1759 
Q 1497 1759 1228 1600 
Q 959 1441 959 1056 
Q 959 750 1161 570 
Q 1363 391 1709 391 
Q 2188 391 2477 730 
Q 2766 1069 2766 1631 
L 2766 1759 
L 2194 1759 
z
M 3341 1997 
L 3341 0 
L 2766 0 
L 2766 531 
Q 2569 213 2275 61 
Q 1981 -91 1556 -91 
Q 1019 -91 701 211 
Q 384 513 384 1019 
Q 384 1609 779 1909 
Q 1175 2209 1959 2209 
L 2766 2209 
L 2766 2266 
Q 2766 2663 2505 2880 
Q 2244 3097 1772 3097 
Q 1472 3097 1187 3025 
Q 903 2953 641 2809 
L 641 3341 
Q 956 3463 1253 3523 
Q 1550 3584 1831 3584 
Q 2591 3584 2966 3190 
Q 3341 2797 3341 1997 
z
" id="DejaVuSans-61" transform="scale(0.015625)"/>
      </defs>
      <use xlink:href="#DejaVuSans-43"/>
      <use x="69.824219" xlink:href="#DejaVuSans-6f"/>
      <use x="131.005859" xlink:href="#DejaVuSans-64"/>
      <use x="194.482422" xlink:href="#DejaVuSans-65"/>
      <use x="256.005859" xlink:href="#DejaVuSans-20"/>
      <use x="287.792969" xlink:href="#DejaVuSans-72"/>
      <use x="326.65625" xlink:href="#DejaVuSans-65"/>
      <use x="388.179688" xlink:href="#DejaVuSans-67"/>
      <use x="451.65625" xlink:href="#DejaVuSans-69"/>
      <use x="479.439453" xlink:href="#DejaVuSans-6f"/>
      <use x="540.621094" xlink:href="#DejaVuSans-6e"/>
      <use x="604" xlink:href="#DejaVuSans-20"/>
      <use x="635.787109" xlink:href="#DejaVuSans-63"/>
      <use x="690.767578" xlink:href="#DejaVuSans-6f"/>
      <use x="751.949219" xlink:href="#DejaVuSans-76"/>
      <use x="811.128906" xlink:href="#DejaVuSans-65"/>
      <use x="872.652344" xlink:href="#DejaVuSans-72"/>
      <use x="913.765625" xlink:href="#DejaVuSans-61"/>
      <use x="975.044922" xlink:href="#DejaVuSans-67"/>
      <use x="1038.521484" xlink:href="#DejaVuSans-65"/>
     </g>
    </g>
   </g>
   <g id="line2d_29">
    <path clip-path="url(#pa4e813a674)" d="M 75.923352 128.735214 
L 125.689806 98.540963 
L 154.801316 89.260479 
L 175.45626 81.992945 
L 191.47748 81.33939 
L 204.567769 79.823142 
L 215.635452 78.411462 
L 225.222714 77.862476 
L 233.679279 75.222113 
L 241.243934 74.620842 
L 248.086996 74.463989 
L 254.334223 72.869314 
L 260.081115 72.424897 
L 265.401906 70.751795 
L 270.355443 70.594942 
L 274.989168 67.327166 
L 279.341883 66.438331 
L 283.445733 66.203051 
L 287.327641 65.497211 
L 291.010388 65.235789 
L 294.513415 64.843656 
L 297.85345 64.843656 
L 301.04499 64.686803 
L 304.100677 62.673853 
L 307.031607 62.64771 
L 309.847569 62.64771 
L 312.557242 62.360146 
L 315.168359 62.360146 
L 317.68784 62.360146 
L 320.121897 58.543384 
L 322.476135 58.125108 
L 324.755622 57.889828 
L 326.96496 57.889828 
L 329.108337 57.262415 
L 331.189579 57.157847 
L 333.212187 57.131704 
L 335.179373 57.131704 
L 337.094095 56.896425 
L 338.959078 56.635002 
L 340.776842 56.37358 
L 342.549717 56.269012 
L 344.279869 53.785502 
L 345.969307 53.785502 
L 347.619904 53.680933 
L 349.233406 53.262658 
L 350.811444 52.373822 
L 352.355542 52.190827 
L 353.867131 52.1124 
L 355.347551 51.615698 
L 356.798061 51.537272 
L 358.219847 50.883717 
L 359.614023 50.622294 
L 360.981642 50.622294 
L 362.323696 49.315184 
L 363.641124 49.2629 
L 364.934813 49.001477 
L 366.205604 48.504776 
L 367.454294 48.452491 
L 368.681636 48.347922 
L 369.888351 48.347922 
L 371.075119 48.191069 
L 372.242589 47.093096 
L 373.391378 46.936243 
L 374.522076 46.77939 
L 375.635243 46.334972 
L 376.731414 46.204261 
L 377.8111 46.178119 
L 378.874791 46.07355 
L 379.922953 46.07355 
L 380.956033 46.07355 
L 381.974459 46.07355 
L 382.978641 46.07355 
L 383.968971 45.942839 
L 384.945827 45.864412 
L 385.909571 45.864412 
L 386.860549 45.707559 
L 387.799096 45.158573 
L 388.725532 45.027862 
L 389.640166 44.792582 
L 390.543295 44.348164 
L 391.435205 43.877605 
L 392.316171 43.877605 
L 393.186458 43.877605 
L 394.046323 43.616182 
L 394.896011 43.59004 
L 395.735761 43.537756 
L 396.565803 43.459329 
L 397.386358 43.093338 
L 398.197642 43.041054 
L 398.99986 42.570494 
L 399.793214 42.230645 
L 400.577898 42.230645 
" style="fill:none;stroke:#1f77b4;stroke-linecap:square;stroke-width:1.5;"/>
    <defs>
     <path d="M 0 3 
C 0.795609 3 1.55874 2.683901 2.12132 2.12132 
C 2.683901 1.55874 3 0.795609 3 0 
C 3 -0.795609 2.683901 -1.55874 2.12132 -2.12132 
C 1.55874 -2.683901 0.795609 -3 0 -3 
C -0.795609 -3 -1.55874 -2.683901 -2.12132 -2.12132 
C -2.683901 -1.55874 -3 -0.795609 -3 0 
C -3 0.795609 -2.683901 1.55874 -2.12132 2.12132 
C -1.55874 2.683901 -0.795609 3 0 3 
z
" id="m1f4bfd3f7f" style="stroke:#ffffff;stroke-width:0.75;"/>
    </defs>
    <g clip-path="url(#pa4e813a674)">
     <use style="fill:#1f77b4;stroke:#ffffff;stroke-width:0.75;" x="75.923352" xlink:href="#m1f4bfd3f7f" y="128.735214"/>
     <use style="fill:#1f77b4;stroke:#ffffff;stroke-width:0.75;" x="125.689806" xlink:href="#m1f4bfd3f7f" y="98.540963"/>
     <use style="fill:#1f77b4;stroke:#ffffff;stroke-width:0.75;" x="154.801316" xlink:href="#m1f4bfd3f7f" y="89.260479"/>
     <use style="fill:#1f77b4;stroke:#ffffff;stroke-width:0.75;" x="175.45626" xlink:href="#m1f4bfd3f7f" y="81.992945"/>
     <use style="fill:#1f77b4;stroke:#ffffff;stroke-width:0.75;" x="191.47748" xlink:href="#m1f4bfd3f7f" y="81.33939"/>
     <use style="fill:#1f77b4;stroke:#ffffff;stroke-width:0.75;" x="204.567769" xlink:href="#m1f4bfd3f7f" y="79.823142"/>
     <use style="fill:#1f77b4;stroke:#ffffff;stroke-width:0.75;" x="215.635452" xlink:href="#m1f4bfd3f7f" y="78.411462"/>
     <use style="fill:#1f77b4;stroke:#ffffff;stroke-width:0.75;" x="225.222714" xlink:href="#m1f4bfd3f7f" y="77.862476"/>
     <use style="fill:#1f77b4;stroke:#ffffff;stroke-width:0.75;" x="233.679279" xlink:href="#m1f4bfd3f7f" y="75.222113"/>
     <use style="fill:#1f77b4;stroke:#ffffff;stroke-width:0.75;" x="241.243934" xlink:href="#m1f4bfd3f7f" y="74.620842"/>
     <use style="fill:#1f77b4;stroke:#ffffff;stroke-width:0.75;" x="248.086996" xlink:href="#m1f4bfd3f7f" y="74.463989"/>
     <use style="fill:#1f77b4;stroke:#ffffff;stroke-width:0.75;" x="254.334223" xlink:href="#m1f4bfd3f7f" y="72.869314"/>
     <use style="fill:#1f77b4;stroke:#ffffff;stroke-width:0.75;" x="260.081115" xlink:href="#m1f4bfd3f7f" y="72.424897"/>
     <use style="fill:#1f77b4;stroke:#ffffff;stroke-width:0.75;" x="265.401906" xlink:href="#m1f4bfd3f7f" y="70.751795"/>
     <use style="fill:#1f77b4;stroke:#ffffff;stroke-width:0.75;" x="270.355443" xlink:href="#m1f4bfd3f7f" y="70.594942"/>
     <use style="fill:#1f77b4;stroke:#ffffff;stroke-width:0.75;" x="274.989168" xlink:href="#m1f4bfd3f7f" y="67.327166"/>
     <use style="fill:#1f77b4;stroke:#ffffff;stroke-width:0.75;" x="279.341883" xlink:href="#m1f4bfd3f7f" y="66.438331"/>
     <use style="fill:#1f77b4;stroke:#ffffff;stroke-width:0.75;" x="283.445733" xlink:href="#m1f4bfd3f7f" y="66.203051"/>
     <use style="fill:#1f77b4;stroke:#ffffff;stroke-width:0.75;" x="287.327641" xlink:href="#m1f4bfd3f7f" y="65.497211"/>
     <use style="fill:#1f77b4;stroke:#ffffff;stroke-width:0.75;" x="291.010388" xlink:href="#m1f4bfd3f7f" y="65.235789"/>
     <use style="fill:#1f77b4;stroke:#ffffff;stroke-width:0.75;" x="294.513415" xlink:href="#m1f4bfd3f7f" y="64.843656"/>
     <use style="fill:#1f77b4;stroke:#ffffff;stroke-width:0.75;" x="297.85345" xlink:href="#m1f4bfd3f7f" y="64.843656"/>
     <use style="fill:#1f77b4;stroke:#ffffff;stroke-width:0.75;" x="301.04499" xlink:href="#m1f4bfd3f7f" y="64.686803"/>
     <use style="fill:#1f77b4;stroke:#ffffff;stroke-width:0.75;" x="304.100677" xlink:href="#m1f4bfd3f7f" y="62.673853"/>
     <use style="fill:#1f77b4;stroke:#ffffff;stroke-width:0.75;" x="307.031607" xlink:href="#m1f4bfd3f7f" y="62.64771"/>
     <use style="fill:#1f77b4;stroke:#ffffff;stroke-width:0.75;" x="309.847569" xlink:href="#m1f4bfd3f7f" y="62.64771"/>
     <use style="fill:#1f77b4;stroke:#ffffff;stroke-width:0.75;" x="312.557242" xlink:href="#m1f4bfd3f7f" y="62.360146"/>
     <use style="fill:#1f77b4;stroke:#ffffff;stroke-width:0.75;" x="315.168359" xlink:href="#m1f4bfd3f7f" y="62.360146"/>
     <use style="fill:#1f77b4;stroke:#ffffff;stroke-width:0.75;" x="317.68784" xlink:href="#m1f4bfd3f7f" y="62.360146"/>
     <use style="fill:#1f77b4;stroke:#ffffff;stroke-width:0.75;" x="320.121897" xlink:href="#m1f4bfd3f7f" y="58.543384"/>
     <use style="fill:#1f77b4;stroke:#ffffff;stroke-width:0.75;" x="322.476135" xlink:href="#m1f4bfd3f7f" y="58.125108"/>
     <use style="fill:#1f77b4;stroke:#ffffff;stroke-width:0.75;" x="324.755622" xlink:href="#m1f4bfd3f7f" y="57.889828"/>
     <use style="fill:#1f77b4;stroke:#ffffff;stroke-width:0.75;" x="326.96496" xlink:href="#m1f4bfd3f7f" y="57.889828"/>
     <use style="fill:#1f77b4;stroke:#ffffff;stroke-width:0.75;" x="329.108337" xlink:href="#m1f4bfd3f7f" y="57.262415"/>
     <use style="fill:#1f77b4;stroke:#ffffff;stroke-width:0.75;" x="331.189579" xlink:href="#m1f4bfd3f7f" y="57.157847"/>
     <use style="fill:#1f77b4;stroke:#ffffff;stroke-width:0.75;" x="333.212187" xlink:href="#m1f4bfd3f7f" y="57.131704"/>
     <use style="fill:#1f77b4;stroke:#ffffff;stroke-width:0.75;" x="335.179373" xlink:href="#m1f4bfd3f7f" y="57.131704"/>
     <use style="fill:#1f77b4;stroke:#ffffff;stroke-width:0.75;" x="337.094095" xlink:href="#m1f4bfd3f7f" y="56.896425"/>
     <use style="fill:#1f77b4;stroke:#ffffff;stroke-width:0.75;" x="338.959078" xlink:href="#m1f4bfd3f7f" y="56.635002"/>
     <use style="fill:#1f77b4;stroke:#ffffff;stroke-width:0.75;" x="340.776842" xlink:href="#m1f4bfd3f7f" y="56.37358"/>
     <use style="fill:#1f77b4;stroke:#ffffff;stroke-width:0.75;" x="342.549717" xlink:href="#m1f4bfd3f7f" y="56.269012"/>
     <use style="fill:#1f77b4;stroke:#ffffff;stroke-width:0.75;" x="344.279869" xlink:href="#m1f4bfd3f7f" y="53.785502"/>
     <use style="fill:#1f77b4;stroke:#ffffff;stroke-width:0.75;" x="345.969307" xlink:href="#m1f4bfd3f7f" y="53.785502"/>
     <use style="fill:#1f77b4;stroke:#ffffff;stroke-width:0.75;" x="347.619904" xlink:href="#m1f4bfd3f7f" y="53.680933"/>
     <use style="fill:#1f77b4;stroke:#ffffff;stroke-width:0.75;" x="349.233406" xlink:href="#m1f4bfd3f7f" y="53.262658"/>
     <use style="fill:#1f77b4;stroke:#ffffff;stroke-width:0.75;" x="350.811444" xlink:href="#m1f4bfd3f7f" y="52.373822"/>
     <use style="fill:#1f77b4;stroke:#ffffff;stroke-width:0.75;" x="352.355542" xlink:href="#m1f4bfd3f7f" y="52.190827"/>
     <use style="fill:#1f77b4;stroke:#ffffff;stroke-width:0.75;" x="353.867131" xlink:href="#m1f4bfd3f7f" y="52.1124"/>
     <use style="fill:#1f77b4;stroke:#ffffff;stroke-width:0.75;" x="355.347551" xlink:href="#m1f4bfd3f7f" y="51.615698"/>
     <use style="fill:#1f77b4;stroke:#ffffff;stroke-width:0.75;" x="356.798061" xlink:href="#m1f4bfd3f7f" y="51.537272"/>
     <use style="fill:#1f77b4;stroke:#ffffff;stroke-width:0.75;" x="358.219847" xlink:href="#m1f4bfd3f7f" y="50.883717"/>
     <use style="fill:#1f77b4;stroke:#ffffff;stroke-width:0.75;" x="359.614023" xlink:href="#m1f4bfd3f7f" y="50.622294"/>
     <use style="fill:#1f77b4;stroke:#ffffff;stroke-width:0.75;" x="360.981642" xlink:href="#m1f4bfd3f7f" y="50.622294"/>
     <use style="fill:#1f77b4;stroke:#ffffff;stroke-width:0.75;" x="362.323696" xlink:href="#m1f4bfd3f7f" y="49.315184"/>
     <use style="fill:#1f77b4;stroke:#ffffff;stroke-width:0.75;" x="363.641124" xlink:href="#m1f4bfd3f7f" y="49.2629"/>
     <use style="fill:#1f77b4;stroke:#ffffff;stroke-width:0.75;" x="364.934813" xlink:href="#m1f4bfd3f7f" y="49.001477"/>
     <use style="fill:#1f77b4;stroke:#ffffff;stroke-width:0.75;" x="366.205604" xlink:href="#m1f4bfd3f7f" y="48.504776"/>
     <use style="fill:#1f77b4;stroke:#ffffff;stroke-width:0.75;" x="367.454294" xlink:href="#m1f4bfd3f7f" y="48.452491"/>
     <use style="fill:#1f77b4;stroke:#ffffff;stroke-width:0.75;" x="368.681636" xlink:href="#m1f4bfd3f7f" y="48.347922"/>
     <use style="fill:#1f77b4;stroke:#ffffff;stroke-width:0.75;" x="369.888351" xlink:href="#m1f4bfd3f7f" y="48.347922"/>
     <use style="fill:#1f77b4;stroke:#ffffff;stroke-width:0.75;" x="371.075119" xlink:href="#m1f4bfd3f7f" y="48.191069"/>
     <use style="fill:#1f77b4;stroke:#ffffff;stroke-width:0.75;" x="372.242589" xlink:href="#m1f4bfd3f7f" y="47.093096"/>
     <use style="fill:#1f77b4;stroke:#ffffff;stroke-width:0.75;" x="373.391378" xlink:href="#m1f4bfd3f7f" y="46.936243"/>
     <use style="fill:#1f77b4;stroke:#ffffff;stroke-width:0.75;" x="374.522076" xlink:href="#m1f4bfd3f7f" y="46.77939"/>
     <use style="fill:#1f77b4;stroke:#ffffff;stroke-width:0.75;" x="375.635243" xlink:href="#m1f4bfd3f7f" y="46.334972"/>
     <use style="fill:#1f77b4;stroke:#ffffff;stroke-width:0.75;" x="376.731414" xlink:href="#m1f4bfd3f7f" y="46.204261"/>
     <use style="fill:#1f77b4;stroke:#ffffff;stroke-width:0.75;" x="377.8111" xlink:href="#m1f4bfd3f7f" y="46.178119"/>
     <use style="fill:#1f77b4;stroke:#ffffff;stroke-width:0.75;" x="378.874791" xlink:href="#m1f4bfd3f7f" y="46.07355"/>
     <use style="fill:#1f77b4;stroke:#ffffff;stroke-width:0.75;" x="379.922953" xlink:href="#m1f4bfd3f7f" y="46.07355"/>
     <use style="fill:#1f77b4;stroke:#ffffff;stroke-width:0.75;" x="380.956033" xlink:href="#m1f4bfd3f7f" y="46.07355"/>
     <use style="fill:#1f77b4;stroke:#ffffff;stroke-width:0.75;" x="381.974459" xlink:href="#m1f4bfd3f7f" y="46.07355"/>
     <use style="fill:#1f77b4;stroke:#ffffff;stroke-width:0.75;" x="382.978641" xlink:href="#m1f4bfd3f7f" y="46.07355"/>
     <use style="fill:#1f77b4;stroke:#ffffff;stroke-width:0.75;" x="383.968971" xlink:href="#m1f4bfd3f7f" y="45.942839"/>
     <use style="fill:#1f77b4;stroke:#ffffff;stroke-width:0.75;" x="384.945827" xlink:href="#m1f4bfd3f7f" y="45.864412"/>
     <use style="fill:#1f77b4;stroke:#ffffff;stroke-width:0.75;" x="385.909571" xlink:href="#m1f4bfd3f7f" y="45.864412"/>
     <use style="fill:#1f77b4;stroke:#ffffff;stroke-width:0.75;" x="386.860549" xlink:href="#m1f4bfd3f7f" y="45.707559"/>
     <use style="fill:#1f77b4;stroke:#ffffff;stroke-width:0.75;" x="387.799096" xlink:href="#m1f4bfd3f7f" y="45.158573"/>
     <use style="fill:#1f77b4;stroke:#ffffff;stroke-width:0.75;" x="388.725532" xlink:href="#m1f4bfd3f7f" y="45.027862"/>
     <use style="fill:#1f77b4;stroke:#ffffff;stroke-width:0.75;" x="389.640166" xlink:href="#m1f4bfd3f7f" y="44.792582"/>
     <use style="fill:#1f77b4;stroke:#ffffff;stroke-width:0.75;" x="390.543295" xlink:href="#m1f4bfd3f7f" y="44.348164"/>
     <use style="fill:#1f77b4;stroke:#ffffff;stroke-width:0.75;" x="391.435205" xlink:href="#m1f4bfd3f7f" y="43.877605"/>
     <use style="fill:#1f77b4;stroke:#ffffff;stroke-width:0.75;" x="392.316171" xlink:href="#m1f4bfd3f7f" y="43.877605"/>
     <use style="fill:#1f77b4;stroke:#ffffff;stroke-width:0.75;" x="393.186458" xlink:href="#m1f4bfd3f7f" y="43.877605"/>
     <use style="fill:#1f77b4;stroke:#ffffff;stroke-width:0.75;" x="394.046323" xlink:href="#m1f4bfd3f7f" y="43.616182"/>
     <use style="fill:#1f77b4;stroke:#ffffff;stroke-width:0.75;" x="394.896011" xlink:href="#m1f4bfd3f7f" y="43.59004"/>
     <use style="fill:#1f77b4;stroke:#ffffff;stroke-width:0.75;" x="395.735761" xlink:href="#m1f4bfd3f7f" y="43.537756"/>
     <use style="fill:#1f77b4;stroke:#ffffff;stroke-width:0.75;" x="396.565803" xlink:href="#m1f4bfd3f7f" y="43.459329"/>
     <use style="fill:#1f77b4;stroke:#ffffff;stroke-width:0.75;" x="397.386358" xlink:href="#m1f4bfd3f7f" y="43.093338"/>
     <use style="fill:#1f77b4;stroke:#ffffff;stroke-width:0.75;" x="398.197642" xlink:href="#m1f4bfd3f7f" y="43.041054"/>
     <use style="fill:#1f77b4;stroke:#ffffff;stroke-width:0.75;" x="398.99986" xlink:href="#m1f4bfd3f7f" y="42.570494"/>
     <use style="fill:#1f77b4;stroke:#ffffff;stroke-width:0.75;" x="399.793214" xlink:href="#m1f4bfd3f7f" y="42.230645"/>
     <use style="fill:#1f77b4;stroke:#ffffff;stroke-width:0.75;" x="400.577898" xlink:href="#m1f4bfd3f7f" y="42.230645"/>
    </g>
   </g>
   <g id="line2d_30">
    <path clip-path="url(#pa4e813a674)" d="M 75.923352 140.420782 
L 125.689806 117.494064 
L 154.801316 107.847589 
L 175.45626 99.011523 
L 191.47748 87.012249 
L 204.567769 86.175698 
L 215.635452 81.443959 
L 225.222714 78.071614 
L 233.679279 77.444201 
L 241.243934 74.725411 
L 248.086996 73.679723 
L 254.334223 72.686319 
L 260.081115 71.457635 
L 265.401906 70.960933 
L 270.355443 70.516515 
L 274.989168 70.411946 
L 279.341883 69.496969 
L 283.445733 69.313974 
L 287.327641 66.830464 
L 291.010388 66.046198 
L 294.513415 65.810918 
L 297.85345 64.712945 
L 301.04499 63.510403 
L 304.100677 63.484261 
L 307.031607 63.301266 
L 309.847569 63.301266 
L 312.557242 63.301266 
L 315.168359 63.301266 
L 317.68784 63.301266 
L 320.121897 63.275123 
L 322.476135 62.778422 
L 324.755622 62.778422 
L 326.96496 62.699995 
L 329.108337 62.490857 
L 331.189579 62.255577 
L 333.212187 62.020297 
L 335.179373 62.020297 
L 337.094095 61.994155 
L 338.959078 61.288316 
L 340.776842 61.079178 
L 342.549717 60.63476 
L 344.279869 60.085774 
L 345.969307 60.085774 
L 347.619904 58.909375 
L 349.233406 58.726379 
L 350.811444 57.915971 
L 352.355542 57.105562 
L 353.867131 57.000993 
L 355.347551 56.948709 
L 356.798061 56.713429 
L 358.219847 56.661145 
L 359.614023 55.903021 
L 360.981642 55.903021 
L 362.323696 55.876878 
L 363.641124 55.615456 
L 364.934813 55.615456 
L 366.205604 55.484745 
L 367.454294 55.406319 
L 368.681636 55.380176 
L 369.888351 54.726621 
L 371.075119 54.674337 
L 372.242589 54.256061 
L 373.391378 54.229919 
L 374.522076 53.733217 
L 375.635243 52.426107 
L 376.731414 52.426107 
L 377.8111 51.929405 
L 378.874791 51.354276 
L 379.922953 51.354276 
L 380.956033 51.328134 
L 381.974459 51.301992 
L 382.978641 51.301992 
L 383.968971 51.04057 
L 384.945827 50.543868 
L 385.909571 50.047166 
L 386.860549 49.498179 
L 387.799096 49.498179 
L 388.725532 49.498179 
L 389.640166 49.498179 
L 390.543295 49.498179 
L 391.435205 48.661629 
L 392.316171 48.217211 
L 393.186458 45.60299 
L 394.046323 45.289284 
L 394.896011 44.949435 
L 395.735761 44.871009 
L 396.565803 44.844866 
L 397.386358 44.844866 
L 398.197642 44.844866 
L 398.99986 44.348164 
L 399.793214 44.29588 
L 400.577898 44.322022 
" style="fill:none;stroke:#98df8a;stroke-linecap:square;stroke-width:1.5;"/>
    <defs>
     <path d="M -0 3 
L 3 -3 
L -3 -3 
z
" id="mfc7e24d8a1" style="stroke:#ffffff;stroke-linejoin:miter;stroke-width:0.75;"/>
    </defs>
    <g clip-path="url(#pa4e813a674)">
     <use style="fill:#98df8a;stroke:#ffffff;stroke-linejoin:miter;stroke-width:0.75;" x="75.923352" xlink:href="#mfc7e24d8a1" y="140.420782"/>
     <use style="fill:#98df8a;stroke:#ffffff;stroke-linejoin:miter;stroke-width:0.75;" x="125.689806" xlink:href="#mfc7e24d8a1" y="117.494064"/>
     <use style="fill:#98df8a;stroke:#ffffff;stroke-linejoin:miter;stroke-width:0.75;" x="154.801316" xlink:href="#mfc7e24d8a1" y="107.847589"/>
     <use style="fill:#98df8a;stroke:#ffffff;stroke-linejoin:miter;stroke-width:0.75;" x="175.45626" xlink:href="#mfc7e24d8a1" y="99.011523"/>
     <use style="fill:#98df8a;stroke:#ffffff;stroke-linejoin:miter;stroke-width:0.75;" x="191.47748" xlink:href="#mfc7e24d8a1" y="87.012249"/>
     <use style="fill:#98df8a;stroke:#ffffff;stroke-linejoin:miter;stroke-width:0.75;" x="204.567769" xlink:href="#mfc7e24d8a1" y="86.175698"/>
     <use style="fill:#98df8a;stroke:#ffffff;stroke-linejoin:miter;stroke-width:0.75;" x="215.635452" xlink:href="#mfc7e24d8a1" y="81.443959"/>
     <use style="fill:#98df8a;stroke:#ffffff;stroke-linejoin:miter;stroke-width:0.75;" x="225.222714" xlink:href="#mfc7e24d8a1" y="78.071614"/>
     <use style="fill:#98df8a;stroke:#ffffff;stroke-linejoin:miter;stroke-width:0.75;" x="233.679279" xlink:href="#mfc7e24d8a1" y="77.444201"/>
     <use style="fill:#98df8a;stroke:#ffffff;stroke-linejoin:miter;stroke-width:0.75;" x="241.243934" xlink:href="#mfc7e24d8a1" y="74.725411"/>
     <use style="fill:#98df8a;stroke:#ffffff;stroke-linejoin:miter;stroke-width:0.75;" x="248.086996" xlink:href="#mfc7e24d8a1" y="73.679723"/>
     <use style="fill:#98df8a;stroke:#ffffff;stroke-linejoin:miter;stroke-width:0.75;" x="254.334223" xlink:href="#mfc7e24d8a1" y="72.686319"/>
     <use style="fill:#98df8a;stroke:#ffffff;stroke-linejoin:miter;stroke-width:0.75;" x="260.081115" xlink:href="#mfc7e24d8a1" y="71.457635"/>
     <use style="fill:#98df8a;stroke:#ffffff;stroke-linejoin:miter;stroke-width:0.75;" x="265.401906" xlink:href="#mfc7e24d8a1" y="70.960933"/>
     <use style="fill:#98df8a;stroke:#ffffff;stroke-linejoin:miter;stroke-width:0.75;" x="270.355443" xlink:href="#mfc7e24d8a1" y="70.516515"/>
     <use style="fill:#98df8a;stroke:#ffffff;stroke-linejoin:miter;stroke-width:0.75;" x="274.989168" xlink:href="#mfc7e24d8a1" y="70.411946"/>
     <use style="fill:#98df8a;stroke:#ffffff;stroke-linejoin:miter;stroke-width:0.75;" x="279.341883" xlink:href="#mfc7e24d8a1" y="69.496969"/>
     <use style="fill:#98df8a;stroke:#ffffff;stroke-linejoin:miter;stroke-width:0.75;" x="283.445733" xlink:href="#mfc7e24d8a1" y="69.313974"/>
     <use style="fill:#98df8a;stroke:#ffffff;stroke-linejoin:miter;stroke-width:0.75;" x="287.327641" xlink:href="#mfc7e24d8a1" y="66.830464"/>
     <use style="fill:#98df8a;stroke:#ffffff;stroke-linejoin:miter;stroke-width:0.75;" x="291.010388" xlink:href="#mfc7e24d8a1" y="66.046198"/>
     <use style="fill:#98df8a;stroke:#ffffff;stroke-linejoin:miter;stroke-width:0.75;" x="294.513415" xlink:href="#mfc7e24d8a1" y="65.810918"/>
     <use style="fill:#98df8a;stroke:#ffffff;stroke-linejoin:miter;stroke-width:0.75;" x="297.85345" xlink:href="#mfc7e24d8a1" y="64.712945"/>
     <use style="fill:#98df8a;stroke:#ffffff;stroke-linejoin:miter;stroke-width:0.75;" x="301.04499" xlink:href="#mfc7e24d8a1" y="63.510403"/>
     <use style="fill:#98df8a;stroke:#ffffff;stroke-linejoin:miter;stroke-width:0.75;" x="304.100677" xlink:href="#mfc7e24d8a1" y="63.484261"/>
     <use style="fill:#98df8a;stroke:#ffffff;stroke-linejoin:miter;stroke-width:0.75;" x="307.031607" xlink:href="#mfc7e24d8a1" y="63.301266"/>
     <use style="fill:#98df8a;stroke:#ffffff;stroke-linejoin:miter;stroke-width:0.75;" x="309.847569" xlink:href="#mfc7e24d8a1" y="63.301266"/>
     <use style="fill:#98df8a;stroke:#ffffff;stroke-linejoin:miter;stroke-width:0.75;" x="312.557242" xlink:href="#mfc7e24d8a1" y="63.301266"/>
     <use style="fill:#98df8a;stroke:#ffffff;stroke-linejoin:miter;stroke-width:0.75;" x="315.168359" xlink:href="#mfc7e24d8a1" y="63.301266"/>
     <use style="fill:#98df8a;stroke:#ffffff;stroke-linejoin:miter;stroke-width:0.75;" x="317.68784" xlink:href="#mfc7e24d8a1" y="63.301266"/>
     <use style="fill:#98df8a;stroke:#ffffff;stroke-linejoin:miter;stroke-width:0.75;" x="320.121897" xlink:href="#mfc7e24d8a1" y="63.275123"/>
     <use style="fill:#98df8a;stroke:#ffffff;stroke-linejoin:miter;stroke-width:0.75;" x="322.476135" xlink:href="#mfc7e24d8a1" y="62.778422"/>
     <use style="fill:#98df8a;stroke:#ffffff;stroke-linejoin:miter;stroke-width:0.75;" x="324.755622" xlink:href="#mfc7e24d8a1" y="62.778422"/>
     <use style="fill:#98df8a;stroke:#ffffff;stroke-linejoin:miter;stroke-width:0.75;" x="326.96496" xlink:href="#mfc7e24d8a1" y="62.699995"/>
     <use style="fill:#98df8a;stroke:#ffffff;stroke-linejoin:miter;stroke-width:0.75;" x="329.108337" xlink:href="#mfc7e24d8a1" y="62.490857"/>
     <use style="fill:#98df8a;stroke:#ffffff;stroke-linejoin:miter;stroke-width:0.75;" x="331.189579" xlink:href="#mfc7e24d8a1" y="62.255577"/>
     <use style="fill:#98df8a;stroke:#ffffff;stroke-linejoin:miter;stroke-width:0.75;" x="333.212187" xlink:href="#mfc7e24d8a1" y="62.020297"/>
     <use style="fill:#98df8a;stroke:#ffffff;stroke-linejoin:miter;stroke-width:0.75;" x="335.179373" xlink:href="#mfc7e24d8a1" y="62.020297"/>
     <use style="fill:#98df8a;stroke:#ffffff;stroke-linejoin:miter;stroke-width:0.75;" x="337.094095" xlink:href="#mfc7e24d8a1" y="61.994155"/>
     <use style="fill:#98df8a;stroke:#ffffff;stroke-linejoin:miter;stroke-width:0.75;" x="338.959078" xlink:href="#mfc7e24d8a1" y="61.288316"/>
     <use style="fill:#98df8a;stroke:#ffffff;stroke-linejoin:miter;stroke-width:0.75;" x="340.776842" xlink:href="#mfc7e24d8a1" y="61.079178"/>
     <use style="fill:#98df8a;stroke:#ffffff;stroke-linejoin:miter;stroke-width:0.75;" x="342.549717" xlink:href="#mfc7e24d8a1" y="60.63476"/>
     <use style="fill:#98df8a;stroke:#ffffff;stroke-linejoin:miter;stroke-width:0.75;" x="344.279869" xlink:href="#mfc7e24d8a1" y="60.085774"/>
     <use style="fill:#98df8a;stroke:#ffffff;stroke-linejoin:miter;stroke-width:0.75;" x="345.969307" xlink:href="#mfc7e24d8a1" y="60.085774"/>
     <use style="fill:#98df8a;stroke:#ffffff;stroke-linejoin:miter;stroke-width:0.75;" x="347.619904" xlink:href="#mfc7e24d8a1" y="58.909375"/>
     <use style="fill:#98df8a;stroke:#ffffff;stroke-linejoin:miter;stroke-width:0.75;" x="349.233406" xlink:href="#mfc7e24d8a1" y="58.726379"/>
     <use style="fill:#98df8a;stroke:#ffffff;stroke-linejoin:miter;stroke-width:0.75;" x="350.811444" xlink:href="#mfc7e24d8a1" y="57.915971"/>
     <use style="fill:#98df8a;stroke:#ffffff;stroke-linejoin:miter;stroke-width:0.75;" x="352.355542" xlink:href="#mfc7e24d8a1" y="57.105562"/>
     <use style="fill:#98df8a;stroke:#ffffff;stroke-linejoin:miter;stroke-width:0.75;" x="353.867131" xlink:href="#mfc7e24d8a1" y="57.000993"/>
     <use style="fill:#98df8a;stroke:#ffffff;stroke-linejoin:miter;stroke-width:0.75;" x="355.347551" xlink:href="#mfc7e24d8a1" y="56.948709"/>
     <use style="fill:#98df8a;stroke:#ffffff;stroke-linejoin:miter;stroke-width:0.75;" x="356.798061" xlink:href="#mfc7e24d8a1" y="56.713429"/>
     <use style="fill:#98df8a;stroke:#ffffff;stroke-linejoin:miter;stroke-width:0.75;" x="358.219847" xlink:href="#mfc7e24d8a1" y="56.661145"/>
     <use style="fill:#98df8a;stroke:#ffffff;stroke-linejoin:miter;stroke-width:0.75;" x="359.614023" xlink:href="#mfc7e24d8a1" y="55.903021"/>
     <use style="fill:#98df8a;stroke:#ffffff;stroke-linejoin:miter;stroke-width:0.75;" x="360.981642" xlink:href="#mfc7e24d8a1" y="55.903021"/>
     <use style="fill:#98df8a;stroke:#ffffff;stroke-linejoin:miter;stroke-width:0.75;" x="362.323696" xlink:href="#mfc7e24d8a1" y="55.876878"/>
     <use style="fill:#98df8a;stroke:#ffffff;stroke-linejoin:miter;stroke-width:0.75;" x="363.641124" xlink:href="#mfc7e24d8a1" y="55.615456"/>
     <use style="fill:#98df8a;stroke:#ffffff;stroke-linejoin:miter;stroke-width:0.75;" x="364.934813" xlink:href="#mfc7e24d8a1" y="55.615456"/>
     <use style="fill:#98df8a;stroke:#ffffff;stroke-linejoin:miter;stroke-width:0.75;" x="366.205604" xlink:href="#mfc7e24d8a1" y="55.484745"/>
     <use style="fill:#98df8a;stroke:#ffffff;stroke-linejoin:miter;stroke-width:0.75;" x="367.454294" xlink:href="#mfc7e24d8a1" y="55.406319"/>
     <use style="fill:#98df8a;stroke:#ffffff;stroke-linejoin:miter;stroke-width:0.75;" x="368.681636" xlink:href="#mfc7e24d8a1" y="55.380176"/>
     <use style="fill:#98df8a;stroke:#ffffff;stroke-linejoin:miter;stroke-width:0.75;" x="369.888351" xlink:href="#mfc7e24d8a1" y="54.726621"/>
     <use style="fill:#98df8a;stroke:#ffffff;stroke-linejoin:miter;stroke-width:0.75;" x="371.075119" xlink:href="#mfc7e24d8a1" y="54.674337"/>
     <use style="fill:#98df8a;stroke:#ffffff;stroke-linejoin:miter;stroke-width:0.75;" x="372.242589" xlink:href="#mfc7e24d8a1" y="54.256061"/>
     <use style="fill:#98df8a;stroke:#ffffff;stroke-linejoin:miter;stroke-width:0.75;" x="373.391378" xlink:href="#mfc7e24d8a1" y="54.229919"/>
     <use style="fill:#98df8a;stroke:#ffffff;stroke-linejoin:miter;stroke-width:0.75;" x="374.522076" xlink:href="#mfc7e24d8a1" y="53.733217"/>
     <use style="fill:#98df8a;stroke:#ffffff;stroke-linejoin:miter;stroke-width:0.75;" x="375.635243" xlink:href="#mfc7e24d8a1" y="52.426107"/>
     <use style="fill:#98df8a;stroke:#ffffff;stroke-linejoin:miter;stroke-width:0.75;" x="376.731414" xlink:href="#mfc7e24d8a1" y="52.426107"/>
     <use style="fill:#98df8a;stroke:#ffffff;stroke-linejoin:miter;stroke-width:0.75;" x="377.8111" xlink:href="#mfc7e24d8a1" y="51.929405"/>
     <use style="fill:#98df8a;stroke:#ffffff;stroke-linejoin:miter;stroke-width:0.75;" x="378.874791" xlink:href="#mfc7e24d8a1" y="51.354276"/>
     <use style="fill:#98df8a;stroke:#ffffff;stroke-linejoin:miter;stroke-width:0.75;" x="379.922953" xlink:href="#mfc7e24d8a1" y="51.354276"/>
     <use style="fill:#98df8a;stroke:#ffffff;stroke-linejoin:miter;stroke-width:0.75;" x="380.956033" xlink:href="#mfc7e24d8a1" y="51.328134"/>
     <use style="fill:#98df8a;stroke:#ffffff;stroke-linejoin:miter;stroke-width:0.75;" x="381.974459" xlink:href="#mfc7e24d8a1" y="51.301992"/>
     <use style="fill:#98df8a;stroke:#ffffff;stroke-linejoin:miter;stroke-width:0.75;" x="382.978641" xlink:href="#mfc7e24d8a1" y="51.301992"/>
     <use style="fill:#98df8a;stroke:#ffffff;stroke-linejoin:miter;stroke-width:0.75;" x="383.968971" xlink:href="#mfc7e24d8a1" y="51.04057"/>
     <use style="fill:#98df8a;stroke:#ffffff;stroke-linejoin:miter;stroke-width:0.75;" x="384.945827" xlink:href="#mfc7e24d8a1" y="50.543868"/>
     <use style="fill:#98df8a;stroke:#ffffff;stroke-linejoin:miter;stroke-width:0.75;" x="385.909571" xlink:href="#mfc7e24d8a1" y="50.047166"/>
     <use style="fill:#98df8a;stroke:#ffffff;stroke-linejoin:miter;stroke-width:0.75;" x="386.860549" xlink:href="#mfc7e24d8a1" y="49.498179"/>
     <use style="fill:#98df8a;stroke:#ffffff;stroke-linejoin:miter;stroke-width:0.75;" x="387.799096" xlink:href="#mfc7e24d8a1" y="49.498179"/>
     <use style="fill:#98df8a;stroke:#ffffff;stroke-linejoin:miter;stroke-width:0.75;" x="388.725532" xlink:href="#mfc7e24d8a1" y="49.498179"/>
     <use style="fill:#98df8a;stroke:#ffffff;stroke-linejoin:miter;stroke-width:0.75;" x="389.640166" xlink:href="#mfc7e24d8a1" y="49.498179"/>
     <use style="fill:#98df8a;stroke:#ffffff;stroke-linejoin:miter;stroke-width:0.75;" x="390.543295" xlink:href="#mfc7e24d8a1" y="49.498179"/>
     <use style="fill:#98df8a;stroke:#ffffff;stroke-linejoin:miter;stroke-width:0.75;" x="391.435205" xlink:href="#mfc7e24d8a1" y="48.661629"/>
     <use style="fill:#98df8a;stroke:#ffffff;stroke-linejoin:miter;stroke-width:0.75;" x="392.316171" xlink:href="#mfc7e24d8a1" y="48.217211"/>
     <use style="fill:#98df8a;stroke:#ffffff;stroke-linejoin:miter;stroke-width:0.75;" x="393.186458" xlink:href="#mfc7e24d8a1" y="45.60299"/>
     <use style="fill:#98df8a;stroke:#ffffff;stroke-linejoin:miter;stroke-width:0.75;" x="394.046323" xlink:href="#mfc7e24d8a1" y="45.289284"/>
     <use style="fill:#98df8a;stroke:#ffffff;stroke-linejoin:miter;stroke-width:0.75;" x="394.896011" xlink:href="#mfc7e24d8a1" y="44.949435"/>
     <use style="fill:#98df8a;stroke:#ffffff;stroke-linejoin:miter;stroke-width:0.75;" x="395.735761" xlink:href="#mfc7e24d8a1" y="44.871009"/>
     <use style="fill:#98df8a;stroke:#ffffff;stroke-linejoin:miter;stroke-width:0.75;" x="396.565803" xlink:href="#mfc7e24d8a1" y="44.844866"/>
     <use style="fill:#98df8a;stroke:#ffffff;stroke-linejoin:miter;stroke-width:0.75;" x="397.386358" xlink:href="#mfc7e24d8a1" y="44.844866"/>
     <use style="fill:#98df8a;stroke:#ffffff;stroke-linejoin:miter;stroke-width:0.75;" x="398.197642" xlink:href="#mfc7e24d8a1" y="44.844866"/>
     <use style="fill:#98df8a;stroke:#ffffff;stroke-linejoin:miter;stroke-width:0.75;" x="398.99986" xlink:href="#mfc7e24d8a1" y="44.348164"/>
     <use style="fill:#98df8a;stroke:#ffffff;stroke-linejoin:miter;stroke-width:0.75;" x="399.793214" xlink:href="#mfc7e24d8a1" y="44.29588"/>
     <use style="fill:#98df8a;stroke:#ffffff;stroke-linejoin:miter;stroke-width:0.75;" x="400.577898" xlink:href="#mfc7e24d8a1" y="44.322022"/>
    </g>
   </g>
   <g id="line2d_31">
    <path clip-path="url(#pa4e813a674)" d="M 75.923352 275.785139 
L 125.689806 275.131583 
L 154.801316 274.870161 
L 175.45626 274.608739 
L 191.47748 274.190464 
L 204.567769 273.981326 
L 215.635452 273.772189 
L 225.222714 273.772189 
L 233.679279 273.772189 
L 241.243934 273.772189 
L 248.086996 273.746046 
L 254.334223 273.746046 
L 260.081115 273.536909 
L 265.401906 273.510766 
L 270.355443 273.170918 
L 274.989168 272.308225 
L 279.341883 271.236394 
L 283.445733 270.818119 
L 287.327641 270.739692 
L 291.010388 270.582839 
L 294.513415 270.582839 
L 297.85345 270.556697 
L 301.04499 270.556697 
L 304.100677 270.425986 
L 307.031607 270.347559 
L 309.847569 269.484866 
L 312.557242 269.458724 
L 315.168359 269.380297 
L 317.68784 269.380297 
L 320.121897 269.380297 
L 322.476135 269.380297 
L 324.755622 269.380297 
L 326.96496 269.380297 
L 329.108337 269.354155 
L 331.189579 269.354155 
L 333.212187 268.517605 
L 335.179373 268.517605 
L 337.094095 268.517605 
L 338.959078 268.282325 
L 340.776842 268.282325 
L 342.549717 268.282325 
L 344.279869 268.256182 
L 345.969307 268.256182 
L 347.619904 268.256182 
L 349.233406 267.785623 
L 350.811444 267.759481 
L 352.355542 267.759481 
L 353.867131 267.707196 
L 355.347551 267.707196 
L 356.798061 266.68765 
L 358.219847 266.504655 
L 359.614023 266.504655 
L 360.981642 266.504655 
L 362.323696 266.504655 
L 363.641124 266.504655 
L 364.934813 266.45237 
L 366.205604 266.45237 
L 367.454294 266.45237 
L 368.681636 266.45237 
L 369.888351 266.086379 
L 371.075119 266.007953 
L 372.242589 266.007953 
L 373.391378 266.007953 
L 374.522076 266.007953 
L 375.635243 265.275971 
L 376.731414 264.831553 
L 377.8111 263.184594 
L 378.874791 263.184594 
L 379.922953 263.184594 
L 380.956033 263.106167 
L 381.974459 263.053883 
L 382.978641 263.027741 
L 383.968971 260.099813 
L 384.945827 260.099813 
L 385.909571 260.021387 
L 386.860549 259.733822 
L 387.799096 259.341689 
L 388.725532 259.341689 
L 389.640166 259.341689 
L 390.543295 259.341689 
L 391.435205 259.341689 
L 392.316171 259.341689 
L 393.186458 259.341689 
L 394.046323 259.315547 
L 394.896011 259.315547 
L 395.735761 257.354881 
L 396.565803 257.302597 
L 397.386358 257.276455 
L 398.197642 257.198028 
L 398.99986 256.021629 
L 399.793214 256.021629 
L 400.577898 256.021629 
" style="fill:none;stroke:#d62728;stroke-linecap:square;stroke-width:1.5;"/>
    <defs>
     <path d="M 0 -3 
L -3 3 
L 3 3 
z
" id="m0d27c22d52" style="stroke:#ffffff;stroke-linejoin:miter;stroke-width:0.75;"/>
    </defs>
    <g clip-path="url(#pa4e813a674)">
     <use style="fill:#d62728;stroke:#ffffff;stroke-linejoin:miter;stroke-width:0.75;" x="75.923352" xlink:href="#m0d27c22d52" y="275.785139"/>
     <use style="fill:#d62728;stroke:#ffffff;stroke-linejoin:miter;stroke-width:0.75;" x="125.689806" xlink:href="#m0d27c22d52" y="275.131583"/>
     <use style="fill:#d62728;stroke:#ffffff;stroke-linejoin:miter;stroke-width:0.75;" x="154.801316" xlink:href="#m0d27c22d52" y="274.870161"/>
     <use style="fill:#d62728;stroke:#ffffff;stroke-linejoin:miter;stroke-width:0.75;" x="175.45626" xlink:href="#m0d27c22d52" y="274.608739"/>
     <use style="fill:#d62728;stroke:#ffffff;stroke-linejoin:miter;stroke-width:0.75;" x="191.47748" xlink:href="#m0d27c22d52" y="274.190464"/>
     <use style="fill:#d62728;stroke:#ffffff;stroke-linejoin:miter;stroke-width:0.75;" x="204.567769" xlink:href="#m0d27c22d52" y="273.981326"/>
     <use style="fill:#d62728;stroke:#ffffff;stroke-linejoin:miter;stroke-width:0.75;" x="215.635452" xlink:href="#m0d27c22d52" y="273.772189"/>
     <use style="fill:#d62728;stroke:#ffffff;stroke-linejoin:miter;stroke-width:0.75;" x="225.222714" xlink:href="#m0d27c22d52" y="273.772189"/>
     <use style="fill:#d62728;stroke:#ffffff;stroke-linejoin:miter;stroke-width:0.75;" x="233.679279" xlink:href="#m0d27c22d52" y="273.772189"/>
     <use style="fill:#d62728;stroke:#ffffff;stroke-linejoin:miter;stroke-width:0.75;" x="241.243934" xlink:href="#m0d27c22d52" y="273.772189"/>
     <use style="fill:#d62728;stroke:#ffffff;stroke-linejoin:miter;stroke-width:0.75;" x="248.086996" xlink:href="#m0d27c22d52" y="273.746046"/>
     <use style="fill:#d62728;stroke:#ffffff;stroke-linejoin:miter;stroke-width:0.75;" x="254.334223" xlink:href="#m0d27c22d52" y="273.746046"/>
     <use style="fill:#d62728;stroke:#ffffff;stroke-linejoin:miter;stroke-width:0.75;" x="260.081115" xlink:href="#m0d27c22d52" y="273.536909"/>
     <use style="fill:#d62728;stroke:#ffffff;stroke-linejoin:miter;stroke-width:0.75;" x="265.401906" xlink:href="#m0d27c22d52" y="273.510766"/>
     <use style="fill:#d62728;stroke:#ffffff;stroke-linejoin:miter;stroke-width:0.75;" x="270.355443" xlink:href="#m0d27c22d52" y="273.170918"/>
     <use style="fill:#d62728;stroke:#ffffff;stroke-linejoin:miter;stroke-width:0.75;" x="274.989168" xlink:href="#m0d27c22d52" y="272.308225"/>
     <use style="fill:#d62728;stroke:#ffffff;stroke-linejoin:miter;stroke-width:0.75;" x="279.341883" xlink:href="#m0d27c22d52" y="271.236394"/>
     <use style="fill:#d62728;stroke:#ffffff;stroke-linejoin:miter;stroke-width:0.75;" x="283.445733" xlink:href="#m0d27c22d52" y="270.818119"/>
     <use style="fill:#d62728;stroke:#ffffff;stroke-linejoin:miter;stroke-width:0.75;" x="287.327641" xlink:href="#m0d27c22d52" y="270.739692"/>
     <use style="fill:#d62728;stroke:#ffffff;stroke-linejoin:miter;stroke-width:0.75;" x="291.010388" xlink:href="#m0d27c22d52" y="270.582839"/>
     <use style="fill:#d62728;stroke:#ffffff;stroke-linejoin:miter;stroke-width:0.75;" x="294.513415" xlink:href="#m0d27c22d52" y="270.582839"/>
     <use style="fill:#d62728;stroke:#ffffff;stroke-linejoin:miter;stroke-width:0.75;" x="297.85345" xlink:href="#m0d27c22d52" y="270.556697"/>
     <use style="fill:#d62728;stroke:#ffffff;stroke-linejoin:miter;stroke-width:0.75;" x="301.04499" xlink:href="#m0d27c22d52" y="270.556697"/>
     <use style="fill:#d62728;stroke:#ffffff;stroke-linejoin:miter;stroke-width:0.75;" x="304.100677" xlink:href="#m0d27c22d52" y="270.425986"/>
     <use style="fill:#d62728;stroke:#ffffff;stroke-linejoin:miter;stroke-width:0.75;" x="307.031607" xlink:href="#m0d27c22d52" y="270.347559"/>
     <use style="fill:#d62728;stroke:#ffffff;stroke-linejoin:miter;stroke-width:0.75;" x="309.847569" xlink:href="#m0d27c22d52" y="269.484866"/>
     <use style="fill:#d62728;stroke:#ffffff;stroke-linejoin:miter;stroke-width:0.75;" x="312.557242" xlink:href="#m0d27c22d52" y="269.458724"/>
     <use style="fill:#d62728;stroke:#ffffff;stroke-linejoin:miter;stroke-width:0.75;" x="315.168359" xlink:href="#m0d27c22d52" y="269.380297"/>
     <use style="fill:#d62728;stroke:#ffffff;stroke-linejoin:miter;stroke-width:0.75;" x="317.68784" xlink:href="#m0d27c22d52" y="269.380297"/>
     <use style="fill:#d62728;stroke:#ffffff;stroke-linejoin:miter;stroke-width:0.75;" x="320.121897" xlink:href="#m0d27c22d52" y="269.380297"/>
     <use style="fill:#d62728;stroke:#ffffff;stroke-linejoin:miter;stroke-width:0.75;" x="322.476135" xlink:href="#m0d27c22d52" y="269.380297"/>
     <use style="fill:#d62728;stroke:#ffffff;stroke-linejoin:miter;stroke-width:0.75;" x="324.755622" xlink:href="#m0d27c22d52" y="269.380297"/>
     <use style="fill:#d62728;stroke:#ffffff;stroke-linejoin:miter;stroke-width:0.75;" x="326.96496" xlink:href="#m0d27c22d52" y="269.380297"/>
     <use style="fill:#d62728;stroke:#ffffff;stroke-linejoin:miter;stroke-width:0.75;" x="329.108337" xlink:href="#m0d27c22d52" y="269.354155"/>
     <use style="fill:#d62728;stroke:#ffffff;stroke-linejoin:miter;stroke-width:0.75;" x="331.189579" xlink:href="#m0d27c22d52" y="269.354155"/>
     <use style="fill:#d62728;stroke:#ffffff;stroke-linejoin:miter;stroke-width:0.75;" x="333.212187" xlink:href="#m0d27c22d52" y="268.517605"/>
     <use style="fill:#d62728;stroke:#ffffff;stroke-linejoin:miter;stroke-width:0.75;" x="335.179373" xlink:href="#m0d27c22d52" y="268.517605"/>
     <use style="fill:#d62728;stroke:#ffffff;stroke-linejoin:miter;stroke-width:0.75;" x="337.094095" xlink:href="#m0d27c22d52" y="268.517605"/>
     <use style="fill:#d62728;stroke:#ffffff;stroke-linejoin:miter;stroke-width:0.75;" x="338.959078" xlink:href="#m0d27c22d52" y="268.282325"/>
     <use style="fill:#d62728;stroke:#ffffff;stroke-linejoin:miter;stroke-width:0.75;" x="340.776842" xlink:href="#m0d27c22d52" y="268.282325"/>
     <use style="fill:#d62728;stroke:#ffffff;stroke-linejoin:miter;stroke-width:0.75;" x="342.549717" xlink:href="#m0d27c22d52" y="268.282325"/>
     <use style="fill:#d62728;stroke:#ffffff;stroke-linejoin:miter;stroke-width:0.75;" x="344.279869" xlink:href="#m0d27c22d52" y="268.256182"/>
     <use style="fill:#d62728;stroke:#ffffff;stroke-linejoin:miter;stroke-width:0.75;" x="345.969307" xlink:href="#m0d27c22d52" y="268.256182"/>
     <use style="fill:#d62728;stroke:#ffffff;stroke-linejoin:miter;stroke-width:0.75;" x="347.619904" xlink:href="#m0d27c22d52" y="268.256182"/>
     <use style="fill:#d62728;stroke:#ffffff;stroke-linejoin:miter;stroke-width:0.75;" x="349.233406" xlink:href="#m0d27c22d52" y="267.785623"/>
     <use style="fill:#d62728;stroke:#ffffff;stroke-linejoin:miter;stroke-width:0.75;" x="350.811444" xlink:href="#m0d27c22d52" y="267.759481"/>
     <use style="fill:#d62728;stroke:#ffffff;stroke-linejoin:miter;stroke-width:0.75;" x="352.355542" xlink:href="#m0d27c22d52" y="267.759481"/>
     <use style="fill:#d62728;stroke:#ffffff;stroke-linejoin:miter;stroke-width:0.75;" x="353.867131" xlink:href="#m0d27c22d52" y="267.707196"/>
     <use style="fill:#d62728;stroke:#ffffff;stroke-linejoin:miter;stroke-width:0.75;" x="355.347551" xlink:href="#m0d27c22d52" y="267.707196"/>
     <use style="fill:#d62728;stroke:#ffffff;stroke-linejoin:miter;stroke-width:0.75;" x="356.798061" xlink:href="#m0d27c22d52" y="266.68765"/>
     <use style="fill:#d62728;stroke:#ffffff;stroke-linejoin:miter;stroke-width:0.75;" x="358.219847" xlink:href="#m0d27c22d52" y="266.504655"/>
     <use style="fill:#d62728;stroke:#ffffff;stroke-linejoin:miter;stroke-width:0.75;" x="359.614023" xlink:href="#m0d27c22d52" y="266.504655"/>
     <use style="fill:#d62728;stroke:#ffffff;stroke-linejoin:miter;stroke-width:0.75;" x="360.981642" xlink:href="#m0d27c22d52" y="266.504655"/>
     <use style="fill:#d62728;stroke:#ffffff;stroke-linejoin:miter;stroke-width:0.75;" x="362.323696" xlink:href="#m0d27c22d52" y="266.504655"/>
     <use style="fill:#d62728;stroke:#ffffff;stroke-linejoin:miter;stroke-width:0.75;" x="363.641124" xlink:href="#m0d27c22d52" y="266.504655"/>
     <use style="fill:#d62728;stroke:#ffffff;stroke-linejoin:miter;stroke-width:0.75;" x="364.934813" xlink:href="#m0d27c22d52" y="266.45237"/>
     <use style="fill:#d62728;stroke:#ffffff;stroke-linejoin:miter;stroke-width:0.75;" x="366.205604" xlink:href="#m0d27c22d52" y="266.45237"/>
     <use style="fill:#d62728;stroke:#ffffff;stroke-linejoin:miter;stroke-width:0.75;" x="367.454294" xlink:href="#m0d27c22d52" y="266.45237"/>
     <use style="fill:#d62728;stroke:#ffffff;stroke-linejoin:miter;stroke-width:0.75;" x="368.681636" xlink:href="#m0d27c22d52" y="266.45237"/>
     <use style="fill:#d62728;stroke:#ffffff;stroke-linejoin:miter;stroke-width:0.75;" x="369.888351" xlink:href="#m0d27c22d52" y="266.086379"/>
     <use style="fill:#d62728;stroke:#ffffff;stroke-linejoin:miter;stroke-width:0.75;" x="371.075119" xlink:href="#m0d27c22d52" y="266.007953"/>
     <use style="fill:#d62728;stroke:#ffffff;stroke-linejoin:miter;stroke-width:0.75;" x="372.242589" xlink:href="#m0d27c22d52" y="266.007953"/>
     <use style="fill:#d62728;stroke:#ffffff;stroke-linejoin:miter;stroke-width:0.75;" x="373.391378" xlink:href="#m0d27c22d52" y="266.007953"/>
     <use style="fill:#d62728;stroke:#ffffff;stroke-linejoin:miter;stroke-width:0.75;" x="374.522076" xlink:href="#m0d27c22d52" y="266.007953"/>
     <use style="fill:#d62728;stroke:#ffffff;stroke-linejoin:miter;stroke-width:0.75;" x="375.635243" xlink:href="#m0d27c22d52" y="265.275971"/>
     <use style="fill:#d62728;stroke:#ffffff;stroke-linejoin:miter;stroke-width:0.75;" x="376.731414" xlink:href="#m0d27c22d52" y="264.831553"/>
     <use style="fill:#d62728;stroke:#ffffff;stroke-linejoin:miter;stroke-width:0.75;" x="377.8111" xlink:href="#m0d27c22d52" y="263.184594"/>
     <use style="fill:#d62728;stroke:#ffffff;stroke-linejoin:miter;stroke-width:0.75;" x="378.874791" xlink:href="#m0d27c22d52" y="263.184594"/>
     <use style="fill:#d62728;stroke:#ffffff;stroke-linejoin:miter;stroke-width:0.75;" x="379.922953" xlink:href="#m0d27c22d52" y="263.184594"/>
     <use style="fill:#d62728;stroke:#ffffff;stroke-linejoin:miter;stroke-width:0.75;" x="380.956033" xlink:href="#m0d27c22d52" y="263.106167"/>
     <use style="fill:#d62728;stroke:#ffffff;stroke-linejoin:miter;stroke-width:0.75;" x="381.974459" xlink:href="#m0d27c22d52" y="263.053883"/>
     <use style="fill:#d62728;stroke:#ffffff;stroke-linejoin:miter;stroke-width:0.75;" x="382.978641" xlink:href="#m0d27c22d52" y="263.027741"/>
     <use style="fill:#d62728;stroke:#ffffff;stroke-linejoin:miter;stroke-width:0.75;" x="383.968971" xlink:href="#m0d27c22d52" y="260.099813"/>
     <use style="fill:#d62728;stroke:#ffffff;stroke-linejoin:miter;stroke-width:0.75;" x="384.945827" xlink:href="#m0d27c22d52" y="260.099813"/>
     <use style="fill:#d62728;stroke:#ffffff;stroke-linejoin:miter;stroke-width:0.75;" x="385.909571" xlink:href="#m0d27c22d52" y="260.021387"/>
     <use style="fill:#d62728;stroke:#ffffff;stroke-linejoin:miter;stroke-width:0.75;" x="386.860549" xlink:href="#m0d27c22d52" y="259.733822"/>
     <use style="fill:#d62728;stroke:#ffffff;stroke-linejoin:miter;stroke-width:0.75;" x="387.799096" xlink:href="#m0d27c22d52" y="259.341689"/>
     <use style="fill:#d62728;stroke:#ffffff;stroke-linejoin:miter;stroke-width:0.75;" x="388.725532" xlink:href="#m0d27c22d52" y="259.341689"/>
     <use style="fill:#d62728;stroke:#ffffff;stroke-linejoin:miter;stroke-width:0.75;" x="389.640166" xlink:href="#m0d27c22d52" y="259.341689"/>
     <use style="fill:#d62728;stroke:#ffffff;stroke-linejoin:miter;stroke-width:0.75;" x="390.543295" xlink:href="#m0d27c22d52" y="259.341689"/>
     <use style="fill:#d62728;stroke:#ffffff;stroke-linejoin:miter;stroke-width:0.75;" x="391.435205" xlink:href="#m0d27c22d52" y="259.341689"/>
     <use style="fill:#d62728;stroke:#ffffff;stroke-linejoin:miter;stroke-width:0.75;" x="392.316171" xlink:href="#m0d27c22d52" y="259.341689"/>
     <use style="fill:#d62728;stroke:#ffffff;stroke-linejoin:miter;stroke-width:0.75;" x="393.186458" xlink:href="#m0d27c22d52" y="259.341689"/>
     <use style="fill:#d62728;stroke:#ffffff;stroke-linejoin:miter;stroke-width:0.75;" x="394.046323" xlink:href="#m0d27c22d52" y="259.315547"/>
     <use style="fill:#d62728;stroke:#ffffff;stroke-linejoin:miter;stroke-width:0.75;" x="394.896011" xlink:href="#m0d27c22d52" y="259.315547"/>
     <use style="fill:#d62728;stroke:#ffffff;stroke-linejoin:miter;stroke-width:0.75;" x="395.735761" xlink:href="#m0d27c22d52" y="257.354881"/>
     <use style="fill:#d62728;stroke:#ffffff;stroke-linejoin:miter;stroke-width:0.75;" x="396.565803" xlink:href="#m0d27c22d52" y="257.302597"/>
     <use style="fill:#d62728;stroke:#ffffff;stroke-linejoin:miter;stroke-width:0.75;" x="397.386358" xlink:href="#m0d27c22d52" y="257.276455"/>
     <use style="fill:#d62728;stroke:#ffffff;stroke-linejoin:miter;stroke-width:0.75;" x="398.197642" xlink:href="#m0d27c22d52" y="257.198028"/>
     <use style="fill:#d62728;stroke:#ffffff;stroke-linejoin:miter;stroke-width:0.75;" x="398.99986" xlink:href="#m0d27c22d52" y="256.021629"/>
     <use style="fill:#d62728;stroke:#ffffff;stroke-linejoin:miter;stroke-width:0.75;" x="399.793214" xlink:href="#m0d27c22d52" y="256.021629"/>
     <use style="fill:#d62728;stroke:#ffffff;stroke-linejoin:miter;stroke-width:0.75;" x="400.577898" xlink:href="#m0d27c22d52" y="256.021629"/>
    </g>
   </g>
   <g id="line2d_32"/>
   <g id="line2d_33"/>
   <g id="line2d_34"/>
   <g id="patch_3">
    <path d="M 59.690625 246.558149 
L 59.690625 37.420479 
" style="fill:none;stroke:#000000;stroke-linecap:square;stroke-linejoin:miter;stroke-width:0.8;"/>
   </g>
   <g id="patch_4">
    <path d="M 75.923352 288.430125 
L 400.578765 288.430125 
" style="fill:none;stroke:#000000;stroke-linecap:square;stroke-linejoin:miter;stroke-width:0.8;"/>
   </g>
   <g id="text_14">
    <!-- php_php-fuzz-parser-2020-07-25 (23h, 20 trials/fuzzer) -->
    <g transform="translate(73.249688 16.318125)scale(0.12 -0.12)">
     <defs>
      <path d="M 1159 525 
L 1159 -1331 
L 581 -1331 
L 581 3500 
L 1159 3500 
L 1159 2969 
Q 1341 3281 1617 3432 
Q 1894 3584 2278 3584 
Q 2916 3584 3314 3078 
Q 3713 2572 3713 1747 
Q 3713 922 3314 415 
Q 2916 -91 2278 -91 
Q 1894 -91 1617 61 
Q 1341 213 1159 525 
z
M 3116 1747 
Q 3116 2381 2855 2742 
Q 2594 3103 2138 3103 
Q 1681 3103 1420 2742 
Q 1159 2381 1159 1747 
Q 1159 1113 1420 752 
Q 1681 391 2138 391 
Q 2594 391 2855 752 
Q 3116 1113 3116 1747 
z
" id="DejaVuSans-70" transform="scale(0.015625)"/>
      <path d="M 3263 -1063 
L 3263 -1509 
L -63 -1509 
L -63 -1063 
L 3263 -1063 
z
" id="DejaVuSans-5f" transform="scale(0.015625)"/>
      <path d="M 313 2009 
L 1997 2009 
L 1997 1497 
L 313 1497 
L 313 2009 
z
" id="DejaVuSans-2d" transform="scale(0.015625)"/>
      <path d="M 2375 4863 
L 2375 4384 
L 1825 4384 
Q 1516 4384 1395 4259 
Q 1275 4134 1275 3809 
L 1275 3500 
L 2222 3500 
L 2222 3053 
L 1275 3053 
L 1275 0 
L 697 0 
L 697 3053 
L 147 3053 
L 147 3500 
L 697 3500 
L 697 3744 
Q 697 4328 969 4595 
Q 1241 4863 1831 4863 
L 2375 4863 
z
" id="DejaVuSans-66" transform="scale(0.015625)"/>
      <path d="M 353 3500 
L 3084 3500 
L 3084 2975 
L 922 459 
L 3084 459 
L 3084 0 
L 275 0 
L 275 525 
L 2438 3041 
L 353 3041 
L 353 3500 
z
" id="DejaVuSans-7a" transform="scale(0.015625)"/>
      <path d="M 2834 3397 
L 2834 2853 
Q 2591 2978 2328 3040 
Q 2066 3103 1784 3103 
Q 1356 3103 1142 2972 
Q 928 2841 928 2578 
Q 928 2378 1081 2264 
Q 1234 2150 1697 2047 
L 1894 2003 
Q 2506 1872 2764 1633 
Q 3022 1394 3022 966 
Q 3022 478 2636 193 
Q 2250 -91 1575 -91 
Q 1294 -91 989 -36 
Q 684 19 347 128 
L 347 722 
Q 666 556 975 473 
Q 1284 391 1588 391 
Q 1994 391 2212 530 
Q 2431 669 2431 922 
Q 2431 1156 2273 1281 
Q 2116 1406 1581 1522 
L 1381 1569 
Q 847 1681 609 1914 
Q 372 2147 372 2553 
Q 372 3047 722 3315 
Q 1072 3584 1716 3584 
Q 2034 3584 2315 3537 
Q 2597 3491 2834 3397 
z
" id="DejaVuSans-73" transform="scale(0.015625)"/>
      <path d="M 750 794 
L 1409 794 
L 1409 256 
L 897 -744 
L 494 -744 
L 750 256 
L 750 794 
z
" id="DejaVuSans-2c" transform="scale(0.015625)"/>
      <path d="M 603 4863 
L 1178 4863 
L 1178 0 
L 603 0 
L 603 4863 
z
" id="DejaVuSans-6c" transform="scale(0.015625)"/>
      <path d="M 1625 4666 
L 2156 4666 
L 531 -594 
L 0 -594 
L 1625 4666 
z
" id="DejaVuSans-2f" transform="scale(0.015625)"/>
     </defs>
     <use xlink:href="#DejaVuSans-70"/>
     <use x="63.476562" xlink:href="#DejaVuSans-68"/>
     <use x="126.855469" xlink:href="#DejaVuSans-70"/>
     <use x="190.332031" xlink:href="#DejaVuSans-5f"/>
     <use x="240.332031" xlink:href="#DejaVuSans-70"/>
     <use x="303.808594" xlink:href="#DejaVuSans-68"/>
     <use x="367.1875" xlink:href="#DejaVuSans-70"/>
     <use x="430.664062" xlink:href="#DejaVuSans-2d"/>
     <use x="466.748047" xlink:href="#DejaVuSans-66"/>
     <use x="501.953125" xlink:href="#DejaVuSans-75"/>
     <use x="565.332031" xlink:href="#DejaVuSans-7a"/>
     <use x="617.822266" xlink:href="#DejaVuSans-7a"/>
     <use x="670.3125" xlink:href="#DejaVuSans-2d"/>
     <use x="706.396484" xlink:href="#DejaVuSans-70"/>
     <use x="769.873047" xlink:href="#DejaVuSans-61"/>
     <use x="831.152344" xlink:href="#DejaVuSans-72"/>
     <use x="872.265625" xlink:href="#DejaVuSans-73"/>
     <use x="924.365234" xlink:href="#DejaVuSans-65"/>
     <use x="985.888672" xlink:href="#DejaVuSans-72"/>
     <use x="1020.626953" xlink:href="#DejaVuSans-2d"/>
     <use x="1056.710938" xlink:href="#DejaVuSans-32"/>
     <use x="1120.333984" xlink:href="#DejaVuSans-30"/>
     <use x="1183.957031" xlink:href="#DejaVuSans-32"/>
     <use x="1247.580078" xlink:href="#DejaVuSans-30"/>
     <use x="1311.203125" xlink:href="#DejaVuSans-2d"/>
     <use x="1347.287109" xlink:href="#DejaVuSans-30"/>
     <use x="1410.910156" xlink:href="#DejaVuSans-37"/>
     <use x="1474.533203" xlink:href="#DejaVuSans-2d"/>
     <use x="1510.617188" xlink:href="#DejaVuSans-32"/>
     <use x="1574.240234" xlink:href="#DejaVuSans-35"/>
     <use x="1637.863281" xlink:href="#DejaVuSans-20"/>
     <use x="1669.650391" xlink:href="#DejaVuSans-28"/>
     <use x="1708.664062" xlink:href="#DejaVuSans-32"/>
     <use x="1772.287109" xlink:href="#DejaVuSans-33"/>
     <use x="1835.910156" xlink:href="#DejaVuSans-68"/>
     <use x="1899.289062" xlink:href="#DejaVuSans-2c"/>
     <use x="1931.076172" xlink:href="#DejaVuSans-20"/>
     <use x="1962.863281" xlink:href="#DejaVuSans-32"/>
     <use x="2026.486328" xlink:href="#DejaVuSans-30"/>
     <use x="2090.109375" xlink:href="#DejaVuSans-20"/>
     <use x="2121.896484" xlink:href="#DejaVuSans-74"/>
     <use x="2161.105469" xlink:href="#DejaVuSans-72"/>
     <use x="2202.21875" xlink:href="#DejaVuSans-69"/>
     <use x="2230.001953" xlink:href="#DejaVuSans-61"/>
     <use x="2291.28125" xlink:href="#DejaVuSans-6c"/>
     <use x="2319.064453" xlink:href="#DejaVuSans-73"/>
     <use x="2371.164062" xlink:href="#DejaVuSans-2f"/>
     <use x="2404.855469" xlink:href="#DejaVuSans-66"/>
     <use x="2440.060547" xlink:href="#DejaVuSans-75"/>
     <use x="2503.439453" xlink:href="#DejaVuSans-7a"/>
     <use x="2555.929688" xlink:href="#DejaVuSans-7a"/>
     <use x="2608.419922" xlink:href="#DejaVuSans-65"/>
     <use x="2669.943359" xlink:href="#DejaVuSans-72"/>
     <use x="2711.056641" xlink:href="#DejaVuSans-29"/>
    </g>
   </g>
   <g id="legend_1">
    <g id="line2d_35">
     <path d="M 420.810625 30.416562 
L 440.810625 30.416562 
" style="fill:none;stroke:#1f77b4;stroke-linecap:square;stroke-width:1.5;"/>
    </g>
    <g id="line2d_36">
     <defs>
      <path d="M 0 3 
C 0.795609 3 1.55874 2.683901 2.12132 2.12132 
C 2.683901 1.55874 3 0.795609 3 0 
C 3 -0.795609 2.683901 -1.55874 2.12132 -2.12132 
C 1.55874 -2.683901 0.795609 -3 0 -3 
C -0.795609 -3 -1.55874 -2.683901 -2.12132 -2.12132 
C -2.683901 -1.55874 -3 -0.795609 -3 0 
C -3 0.795609 -2.683901 1.55874 -2.12132 2.12132 
C -1.55874 2.683901 -0.795609 3 0 3 
z
" id="m0821114341" style="stroke:#1f77b4;"/>
     </defs>
     <g>
      <use style="fill:#1f77b4;stroke:#1f77b4;" x="430.810625" xlink:href="#m0821114341" y="30.416562"/>
     </g>
    </g>
    <g id="text_15">
     <!-- afl -->
     <g transform="translate(448.810625 33.916562)scale(0.1 -0.1)">
      <use xlink:href="#DejaVuSans-61"/>
      <use x="61.279297" xlink:href="#DejaVuSans-66"/>
      <use x="96.484375" xlink:href="#DejaVuSans-6c"/>
     </g>
    </g>
    <g id="line2d_37">
     <path d="M 420.810625 45.094688 
L 440.810625 45.094688 
" style="fill:none;stroke:#98df8a;stroke-linecap:square;stroke-width:1.5;"/>
    </g>
    <g id="line2d_38">
     <defs>
      <path d="M -0 3 
L 3 -3 
L -3 -3 
z
" id="mad191d681f" style="stroke:#98df8a;stroke-linejoin:miter;"/>
     </defs>
     <g>
      <use style="fill:#98df8a;stroke:#98df8a;stroke-linejoin:miter;" x="430.810625" xlink:href="#mad191d681f" y="45.094688"/>
     </g>
    </g>
    <g id="text_16">
     <!-- afl_fitness -->
     <g transform="translate(448.810625 48.594688)scale(0.1 -0.1)">
      <use xlink:href="#DejaVuSans-61"/>
      <use x="61.279297" xlink:href="#DejaVuSans-66"/>
      <use x="96.484375" xlink:href="#DejaVuSans-6c"/>
      <use x="124.267578" xlink:href="#DejaVuSans-5f"/>
      <use x="174.267578" xlink:href="#DejaVuSans-66"/>
      <use x="209.472656" xlink:href="#DejaVuSans-69"/>
      <use x="237.255859" xlink:href="#DejaVuSans-74"/>
      <use x="276.464844" xlink:href="#DejaVuSans-6e"/>
      <use x="339.84375" xlink:href="#DejaVuSans-65"/>
      <use x="401.367188" xlink:href="#DejaVuSans-73"/>
      <use x="453.466797" xlink:href="#DejaVuSans-73"/>
     </g>
    </g>
    <g id="line2d_39">
     <path d="M 420.810625 60.050937 
L 440.810625 60.050937 
" style="fill:none;stroke:#d62728;stroke-linecap:square;stroke-width:1.5;"/>
    </g>
    <g id="line2d_40">
     <defs>
      <path d="M 0 -3 
L -3 3 
L 3 3 
z
" id="m85cda63249" style="stroke:#d62728;stroke-linejoin:miter;"/>
     </defs>
     <g>
      <use style="fill:#d62728;stroke:#d62728;stroke-linejoin:miter;" x="430.810625" xlink:href="#m85cda63249" y="60.050937"/>
     </g>
    </g>
    <g id="text_17">
     <!-- afl_fitness_only -->
     <g transform="translate(448.810625 63.550937)scale(0.1 -0.1)">
      <defs>
       <path d="M 2059 -325 
Q 1816 -950 1584 -1140 
Q 1353 -1331 966 -1331 
L 506 -1331 
L 506 -850 
L 844 -850 
Q 1081 -850 1212 -737 
Q 1344 -625 1503 -206 
L 1606 56 
L 191 3500 
L 800 3500 
L 1894 763 
L 2988 3500 
L 3597 3500 
L 2059 -325 
z
" id="DejaVuSans-79" transform="scale(0.015625)"/>
      </defs>
      <use xlink:href="#DejaVuSans-61"/>
      <use x="61.279297" xlink:href="#DejaVuSans-66"/>
      <use x="96.484375" xlink:href="#DejaVuSans-6c"/>
      <use x="124.267578" xlink:href="#DejaVuSans-5f"/>
      <use x="174.267578" xlink:href="#DejaVuSans-66"/>
      <use x="209.472656" xlink:href="#DejaVuSans-69"/>
      <use x="237.255859" xlink:href="#DejaVuSans-74"/>
      <use x="276.464844" xlink:href="#DejaVuSans-6e"/>
      <use x="339.84375" xlink:href="#DejaVuSans-65"/>
      <use x="401.367188" xlink:href="#DejaVuSans-73"/>
      <use x="453.466797" xlink:href="#DejaVuSans-73"/>
      <use x="505.566406" xlink:href="#DejaVuSans-5f"/>
      <use x="555.566406" xlink:href="#DejaVuSans-6f"/>
      <use x="616.748047" xlink:href="#DejaVuSans-6e"/>
      <use x="680.126953" xlink:href="#DejaVuSans-6c"/>
      <use x="707.910156" xlink:href="#DejaVuSans-79"/>
     </g>
    </g>
   </g>
  </g>
 </g>
 <defs>
  <clipPath id="pa4e813a674">
   <rect height="266.112" width="357.12" x="59.690625" y="22.318125"/>
  </clipPath>
 </defs>
</svg>
