<?xml version="1.0" encoding="utf-8" standalone="no"?>
<!DOCTYPE svg PUBLIC "-//W3C//DTD SVG 1.1//EN"
  "http://www.w3.org/Graphics/SVG/1.1/DTD/svg11.dtd">
<svg height="325.986375pt" version="1.1" viewBox="0 0 536.718438 325.986375" width="536.718438pt" xmlns="http://www.w3.org/2000/svg" xmlns:xlink="http://www.w3.org/1999/xlink">
 <metadata>
  <rdf:RDF xmlns:cc="http://creativecommons.org/ns#" xmlns:dc="http://purl.org/dc/elements/1.1/" xmlns:rdf="http://www.w3.org/1999/02/22-rdf-syntax-ns#">
   <cc:Work>
    <dc:type rdf:resource="http://purl.org/dc/dcmitype/StillImage"/>
    <dc:date>2022-06-02T16:42:56.957135</dc:date>
    <dc:format>image/svg+xml</dc:format>
    <dc:creator>
     <cc:Agent>
      <dc:title>Matplotlib v3.4.3, https://matplotlib.org/</dc:title>
     </cc:Agent>
    </dc:creator>
   </cc:Work>
  </rdf:RDF>
 </metadata>
 <defs>
  <style type="text/css">*{stroke-linecap:butt;stroke-linejoin:round;}</style>
 </defs>
 <g id="figure_1">
  <g id="patch_1">
   <path d="M 0 325.986375 
L 536.718438 325.986375 
L 536.718438 0 
L 0 0 
z
" style="fill:#ffffff;"/>
  </g>
  <g id="axes_1">
   <g id="patch_2">
    <path d="M 59.690625 288.430125 
L 416.810625 288.430125 
L 416.810625 22.318125 
L 59.690625 22.318125 
z
" style="fill:#ffffff;"/>
   </g>
   <g id="PolyCollection_1">
    <defs>
     <path d="M 75.923352 -125.799449 
L 75.923352 -55.915078 
L 125.689806 -133.976363 
L 154.801316 -144.166811 
L 175.45626 -150.133747 
L 191.47748 -155.143028 
L 204.567769 -167.063396 
L 215.635452 -171.593848 
L 225.222714 -173.60861 
L 233.679279 -174.836375 
L 241.243934 -181.147086 
L 248.086996 -189.716884 
L 254.334223 -197.6728 
L 260.081115 -202.314978 
L 265.401906 -204.155398 
L 270.355443 -209.459342 
L 274.989168 -211.104546 
L 279.341883 -212.528753 
L 283.445733 -212.970749 
L 287.327641 -214.026627 
L 291.010388 -215.966495 
L 294.513415 -218.274693 
L 297.85345 -220.705667 
L 301.04499 -223.570656 
L 304.100677 -224.929178 
L 307.031607 -227.360152 
L 309.847569 -228.145921 
L 312.557242 -229.471907 
L 315.168359 -231.55788 
L 317.68784 -234.898628 
L 320.121897 -236.76483 
L 322.476135 -236.887607 
L 324.755622 -238.876586 
L 326.96496 -238.999362 
L 329.108337 -241.209339 
L 331.189579 -242.437104 
L 333.212187 -243.222873 
L 335.179373 -244.818967 
L 337.094095 -247.470939 
L 338.959078 -249.680916 
L 340.776842 -250.368464 
L 342.549717 -252.701217 
L 344.279869 -253.216878 
L 345.969307 -254.542864 
L 347.619904 -256.458177 
L 349.233406 -256.556398 
L 350.811444 -258.054272 
L 352.355542 -259.380257 
L 353.867131 -260.116916 
L 355.347551 -262.597001 
L 356.798061 -261.639345 
L 358.219847 -262.547891 
L 359.614023 -264.389538 
L 360.981642 -265.622827 
L 362.323696 -267.851834 
L 363.641124 -266.967844 
L 364.934813 -267.557171 
L 366.205604 -270.282809 
L 367.454294 -271.117689 
L 368.681636 -272.591007 
L 369.888351 -272.934781 
L 371.075119 -273.998639 
L 372.242589 -277.919506 
L 373.391378 -278.68072 
L 374.522076 -279.14727 
L 375.635243 -279.171826 
L 376.731414 -279.294602 
L 377.8111 -279.540155 
L 378.874791 -279.294602 
L 379.922953 -280.522367 
L 380.956033 -280.546922 
L 381.974459 -280.571478 
L 382.978641 -282.314904 
L 383.968971 -282.609567 
L 384.945827 -282.658678 
L 385.909571 -282.732344 
L 386.860549 -283.248005 
L 387.799096 -283.394723 
L 388.725532 -283.444447 
L 389.640166 -283.739111 
L 390.543295 -283.812777 
L 391.435205 -284.377548 
L 392.316171 -284.377548 
L 393.186458 -284.647657 
L 394.046323 -285.349324 
L 394.896011 -285.040541 
L 395.735761 -285.212428 
L 396.565803 -284.794988 
L 397.386358 -285.482537 
L 398.197642 -285.482537 
L 398.99986 -285.629868 
L 399.793214 -285.629868 
L 400.577898 -285.629868 
L 400.577898 -291.57225 
L 400.577898 -291.57225 
L 399.793214 -291.498584 
L 398.99986 -291.203921 
L 398.197642 -291.179365 
L 397.386358 -291.032033 
L 396.565803 -290.884702 
L 395.735761 -290.418151 
L 394.896011 -290.418151 
L 394.046323 -290.516372 
L 393.186458 -290.418151 
L 392.316171 -290.393596 
L 391.435205 -290.324227 
L 390.543295 -290.31993 
L 389.640166 -289.9516 
L 388.725532 -290.224164 
L 387.799096 -289.632382 
L 386.860549 -289.558716 
L 385.909571 -289.043055 
L 384.945827 -288.725063 
L 383.968971 -288.527393 
L 382.978641 -288.183619 
L 381.974459 -288.085398 
L 380.956033 -287.839845 
L 379.922953 -287.795032 
L 378.874791 -287.545182 
L 377.8111 -287.594292 
L 376.731414 -286.882189 
L 375.635243 -286.858247 
L 374.522076 -286.734857 
L 373.391378 -286.391083 
L 372.242589 -285.899977 
L 371.075119 -285.236984 
L 369.888351 -284.94232 
L 368.681636 -284.377548 
L 367.454294 -283.297115 
L 366.205604 -282.02024 
L 364.934813 -280.620588 
L 363.641124 -279.441934 
L 362.323696 -278.852607 
L 360.981642 -278.042282 
L 359.614023 -276.544409 
L 358.219847 -275.930527 
L 356.798061 -275.169313 
L 355.347551 -274.334432 
L 353.867131 -272.566451 
L 352.355542 -270.773915 
L 350.811444 -270.001651 
L 349.233406 -269.914479 
L 347.619904 -269.54615 
L 345.969307 -265.494526 
L 344.279869 -264.021208 
L 342.549717 -263.875104 
L 340.776842 -263.161773 
L 338.959078 -262.333032 
L 337.094095 -261.320126 
L 335.179373 -258.841883 
L 333.212187 -256.851062 
L 331.189579 -254.739307 
L 329.108337 -253.486987 
L 326.96496 -252.283777 
L 324.755622 -251.571673 
L 322.476135 -250.957791 
L 320.121897 -247.863824 
L 317.68784 -245.727513 
L 315.168359 -244.671635 
L 312.557242 -243.542092 
L 309.847569 -243.640313 
L 307.031607 -242.127707 
L 304.100677 -239.26947 
L 301.04499 -238.115371 
L 297.85345 -233.744529 
L 294.513415 -232.713206 
L 291.010388 -231.190778 
L 287.327641 -226.574383 
L 283.445733 -225.985055 
L 279.341883 -223.824189 
L 274.989168 -223.112086 
L 270.355443 -220.607446 
L 265.401906 -217.808142 
L 260.081115 -214.566843 
L 254.334223 -209.803116 
L 248.086996 -206.80737 
L 241.243934 -205.481384 
L 233.679279 -202.903078 
L 225.222714 -198.900564 
L 215.635452 -197.604045 
L 204.567769 -189.250333 
L 191.47748 -185.542484 
L 175.45626 -179.649213 
L 154.801316 -166.911153 
L 125.689806 -153.620599 
L 75.923352 -125.799449 
z
" id="md06a313664" style="stroke:#98df8a;stroke-opacity:0.2;"/>
    </defs>
    <g clip-path="url(#p0398817fbc)">
     <use style="fill:#98df8a;fill-opacity:0.2;stroke:#98df8a;stroke-opacity:0.2;" x="0" xlink:href="#md06a313664" y="325.986375"/>
    </g>
   </g>
   <g id="PolyCollection_2">
    <defs>
     <path d="M 75.923352 -138.003431 
L 75.923352 -119.537849 
L 125.689806 -129.359967 
L 154.801316 -145.640128 
L 175.45626 -153.645155 
L 191.47748 -169.041325 
L 204.567769 -177.979453 
L 215.635452 -182.153853 
L 225.222714 -185.591594 
L 233.679279 -187.727905 
L 241.243934 -193.36887 
L 248.086996 -199.634768 
L 254.334223 -203.369628 
L 260.081115 -207.052923 
L 265.401906 -209.36112 
L 270.355443 -211.227323 
L 274.989168 -211.227323 
L 279.341883 -215.205281 
L 283.445733 -217.464368 
L 287.327641 -218.765799 
L 291.010388 -220.361893 
L 294.513415 -221.736989 
L 297.85345 -222.940199 
L 301.04499 -225.101065 
L 304.100677 -227.3092 
L 307.031607 -228.01762 
L 309.847569 -229.594684 
L 312.557242 -232.025658 
L 315.168359 -233.00787 
L 317.68784 -234.358411 
L 320.121897 -234.849517 
L 322.476135 -235.708953 
L 324.755622 -237.403268 
L 326.96496 -237.943484 
L 329.108337 -242.633546 
L 331.189579 -244.303306 
L 333.212187 -244.548859 
L 335.179373 -245.580181 
L 337.094095 -248.232153 
L 338.959078 -249.509029 
L 340.776842 -250.809845 
L 342.549717 -251.326121 
L 344.279869 -251.615259 
L 345.969307 -252.94677 
L 347.619904 -255.967071 
L 349.233406 -256.212624 
L 350.811444 -256.924728 
L 352.355542 -259.183815 
L 353.867131 -259.404813 
L 355.347551 -260.632578 
L 356.798061 -261.516568 
L 358.219847 -263.235439 
L 359.614023 -263.407326 
L 360.981642 -263.726545 
L 362.323696 -264.610535 
L 363.641124 -266.034743 
L 364.934813 -268.023722 
L 366.205604 -268.981378 
L 367.454294 -269.693482 
L 368.681636 -272.046493 
L 369.888351 -274.285322 
L 371.075119 -273.892437 
L 372.242589 -275.316644 
L 373.391378 -276.151524 
L 374.522076 -277.109181 
L 375.635243 -277.723063 
L 376.731414 -277.745777 
L 377.8111 -278.705275 
L 378.874791 -279.122715 
L 379.922953 -279.466489 
L 380.956033 -279.883929 
L 381.974459 -280.104927 
L 382.978641 -280.841586 
L 383.968971 -281.136249 
L 384.945827 -282.339459 
L 385.909571 -282.143016 
L 386.860549 -282.585012 
L 387.799096 -282.585012 
L 388.725532 -282.634122 
L 389.640166 -282.658678 
L 390.543295 -282.560457 
L 391.435205 -283.321671 
L 392.316171 -283.370781 
L 393.186458 -283.027007 
L 394.046323 -283.665445 
L 394.896011 -284.402104 
L 395.735761 -284.819544 
L 396.565803 -284.844099 
L 397.386358 -284.254772 
L 398.197642 -285.433426 
L 398.99986 -285.507092 
L 399.793214 -285.507092 
L 400.577898 -285.703534 
L 400.577898 -290.393596 
L 400.577898 -290.393596 
L 399.793214 -290.393596 
L 398.99986 -290.393596 
L 398.197642 -290.270819 
L 397.386358 -289.853379 
L 396.565803 -289.927045 
L 395.735761 -289.511447 
L 394.896011 -289.53416 
L 394.046323 -289.264052 
L 393.186458 -288.774174 
L 392.316171 -289.018499 
L 391.435205 -288.797502 
L 390.543295 -288.478283 
L 389.640166 -288.404617 
L 388.725532 -288.380062 
L 387.799096 -288.011732 
L 386.860549 -287.913511 
L 385.909571 -287.569737 
L 384.945827 -287.520626 
L 383.968971 -287.422405 
L 382.978641 -287.348739 
L 381.974459 -286.882189 
L 380.956033 -286.808523 
L 379.922953 -285.899977 
L 378.874791 -285.605313 
L 377.8111 -285.187873 
L 376.731414 -285.187873 
L 375.635243 -285.163318 
L 374.522076 -285.040541 
L 373.391378 -284.230217 
L 372.242589 -283.837332 
L 371.075119 -283.076118 
L 369.888351 -282.634122 
L 368.681636 -282.044795 
L 367.454294 -279.098774 
L 366.205604 -278.778941 
L 364.934813 -276.470743 
L 363.641124 -274.50632 
L 362.323696 -274.113435 
L 360.981642 -273.818771 
L 359.614023 -273.253999 
L 358.219847 -272.419119 
L 356.798061 -271.829792 
L 355.347551 -270.356475 
L 353.867131 -269.988145 
L 352.355542 -267.45895 
L 350.811444 -266.20663 
L 349.233406 -265.531359 
L 347.619904 -266.967844 
L 345.969307 -264.045764 
L 344.279869 -263.652879 
L 342.549717 -263.038997 
L 340.776842 -262.400559 
L 338.959078 -262.326893 
L 337.094095 -260.534356 
L 335.179373 -257.759608 
L 333.212187 -256.900173 
L 331.189579 -256.924728 
L 329.108337 -254.98486 
L 326.96496 -255.279523 
L 324.755622 -254.174535 
L 322.476135 -251.890892 
L 320.121897 -251.768116 
L 317.68784 -248.35493 
L 315.168359 -246.758836 
L 312.557242 -244.868078 
L 309.847569 -243.345649 
L 307.031607 -240.644567 
L 304.100677 -240.202572 
L 301.04499 -236.126393 
L 297.85345 -235.217847 
L 294.513415 -233.867305 
L 291.010388 -231.436331 
L 287.327641 -231.362665 
L 283.445733 -229.864792 
L 279.341883 -227.777592 
L 274.989168 -224.217074 
L 270.355443 -220.460114 
L 265.401906 -217.464368 
L 260.081115 -215.622721 
L 254.334223 -212.209535 
L 248.086996 -209.704894 
L 241.243934 -204.327285 
L 233.679279 -199.072451 
L 225.222714 -195.611996 
L 215.635452 -193.915839 
L 204.567769 -190.281656 
L 191.47748 -184.41294 
L 175.45626 -175.474812 
L 154.801316 -171.545965 
L 125.689806 -157.353004 
L 75.923352 -138.003431 
z
" id="m989e434bce" style="stroke:#1f77b4;stroke-opacity:0.2;"/>
    </defs>
    <g clip-path="url(#p0398817fbc)">
     <use style="fill:#1f77b4;fill-opacity:0.2;stroke:#1f77b4;stroke-opacity:0.2;" x="0" xlink:href="#m989e434bce" y="325.986375"/>
    </g>
   </g>
   <g id="PolyCollection_3">
    <defs>
     <path d="M 75.923352 -54.711869 
L 75.923352 -49.65225 
L 125.689806 -52.649224 
L 154.801316 -60.309248 
L 175.45626 -89.801386 
L 191.47748 -118.579579 
L 204.567769 -123.196588 
L 215.635452 -127.346433 
L 225.222714 -130.931506 
L 233.679279 -132.11016 
L 241.243934 -131.790942 
L 248.086996 -137.266772 
L 254.334223 -139.059309 
L 260.081115 -139.57497 
L 265.401906 -139.820523 
L 270.355443 -140.164297 
L 274.989168 -141.588504 
L 279.341883 -143.209154 
L 283.445733 -145.320909 
L 287.327641 -146.180345 
L 291.010388 -146.941559 
L 294.513415 -147.211667 
L 297.85345 -148.2921 
L 301.04499 -150.182858 
L 304.100677 -151.017738 
L 307.031607 -151.484289 
L 309.847569 -152.613832 
L 312.557242 -152.785719 
L 315.168359 -153.203159 
L 317.68784 -153.620599 
L 320.121897 -154.676477 
L 322.476135 -155.118472 
L 324.755622 -155.118472 
L 326.96496 -155.437691 
L 329.108337 -157.132007 
L 331.189579 -157.500336 
L 333.212187 -158.67899 
L 335.179373 -160.34875 
L 337.094095 -162.460506 
L 338.959078 -163.172609 
L 340.776842 -164.523151 
L 342.549717 -165.603584 
L 344.279869 -166.487574 
L 345.969307 -166.92957 
L 347.619904 -167.297899 
L 349.233406 -167.666228 
L 350.811444 -169.286878 
L 352.355542 -169.286878 
L 353.867131 -169.286878 
L 355.347551 -169.335989 
L 356.798061 -169.360544 
L 358.219847 -169.360544 
L 359.614023 -169.360544 
L 360.981642 -169.360544 
L 362.323696 -169.385099 
L 363.641124 -169.458765 
L 364.934813 -169.48332 
L 366.205604 -169.532431 
L 367.454294 -169.532431 
L 368.681636 -169.532431 
L 369.888351 -169.581541 
L 371.075119 -169.630652 
L 372.242589 -169.679763 
L 373.391378 -169.728873 
L 374.522076 -169.998981 
L 375.635243 -169.998981 
L 376.731414 -170.048092 
L 377.8111 -170.170869 
L 378.874791 -170.097203 
L 379.922953 -170.170869 
L 380.956033 -170.391866 
L 381.974459 -170.391866 
L 382.978641 -170.391866 
L 383.968971 -170.490087 
L 384.945827 -170.170869 
L 385.909571 -170.490087 
L 386.860549 -170.490087 
L 387.799096 -170.637419 
L 388.725532 -170.637419 
L 389.640166 -170.711085 
L 390.543295 -170.711085 
L 391.435205 -170.711085 
L 392.316171 -170.882972 
L 393.186458 -171.374078 
L 394.046323 -171.374078 
L 394.896011 -171.52141 
L 395.735761 -171.840629 
L 396.565803 -171.545965 
L 397.386358 -171.840629 
L 398.197642 -172.110737 
L 398.99986 -172.110737 
L 399.793214 -172.110737 
L 400.577898 -172.110737 
L 400.577898 -177.046351 
L 400.577898 -177.046351 
L 399.793214 -177.070907 
L 398.99986 -176.997241 
L 398.197642 -176.972685 
L 397.386358 -176.678022 
L 396.565803 -176.678022 
L 395.735761 -176.678022 
L 394.896011 -176.162361 
L 394.046323 -176.162361 
L 393.186458 -176.162361 
L 392.316171 -176.358803 
L 391.435205 -176.137805 
L 390.543295 -176.14333 
L 389.640166 -176.309692 
L 388.725532 -176.137805 
L 387.799096 -176.015029 
L 386.860549 -175.965918 
L 385.909571 -175.892252 
L 384.945827 -175.892252 
L 383.968971 -175.892252 
L 382.978641 -175.867697 
L 381.974459 -175.720365 
L 380.956033 -175.818587 
L 379.922953 -175.672483 
L 378.874791 -175.573034 
L 377.8111 -175.450871 
L 376.731414 -175.425702 
L 375.635243 -175.302925 
L 374.522076 -175.180149 
L 373.391378 -174.664488 
L 372.242589 -174.664488 
L 371.075119 -174.639932 
L 369.888351 -174.885485 
L 368.681636 -174.639932 
L 367.454294 -174.639932 
L 366.205604 -174.517156 
L 364.934813 -174.296158 
L 363.641124 -174.468045 
L 362.323696 -174.468045 
L 360.981642 -174.124271 
L 359.614023 -174.124271 
L 358.219847 -174.075161 
L 356.798061 -174.075161 
L 355.347551 -174.075161 
L 353.867131 -174.02605 
L 352.355542 -173.510389 
L 350.811444 -173.142059 
L 349.233406 -172.454511 
L 347.619904 -171.668742 
L 345.969307 -170.784751 
L 344.279869 -169.409654 
L 342.549717 -168.601785 
L 340.776842 -167.420675 
L 338.959078 -166.56124 
L 337.094095 -164.940591 
L 335.179373 -162.952839 
L 333.212187 -161.871179 
L 331.189579 -160.397861 
L 329.108337 -159.685757 
L 326.96496 -159.440204 
L 324.755622 -158.703546 
L 322.476135 -158.065108 
L 320.121897 -157.868665 
L 317.68784 -157.181117 
L 315.168359 -156.469014 
L 312.557242 -155.609578 
L 309.847569 -154.995696 
L 307.031607 -154.701032 
L 304.100677 -154.651922 
L 301.04499 -153.080383 
L 297.85345 -152.098171 
L 294.513415 -150.968627 
L 291.010388 -150.772185 
L 287.327641 -150.256524 
L 283.445733 -150.256524 
L 279.341883 -149.470754 
L 274.989168 -147.45722 
L 270.355443 -146.450453 
L 265.401906 -145.468241 
L 260.081115 -143.335 
L 254.334223 -142.128721 
L 248.086996 -141.007772 
L 241.243934 -140.704514 
L 233.679279 -137.843822 
L 225.222714 -136.137229 
L 215.635452 -135.056796 
L 204.567769 -131.980017 
L 191.47748 -129.728297 
L 175.45626 -128.77064 
L 154.801316 -122.92648 
L 125.689806 -116.517548 
L 75.923352 -54.711869 
z
" id="me3165d2c57" style="stroke:#d62728;stroke-opacity:0.2;"/>
    </defs>
    <g clip-path="url(#p0398817fbc)">
     <use style="fill:#d62728;fill-opacity:0.2;stroke:#d62728;stroke-opacity:0.2;" x="0" xlink:href="#me3165d2c57" y="325.986375"/>
    </g>
   </g>
   <g id="matplotlib.axis_1">
    <g id="xtick_1">
     <g id="line2d_1">
      <defs>
       <path d="M 0 0 
L 0 3.5 
" id="mfe87f9dbca" style="stroke:#000000;stroke-width:0.8;"/>
      </defs>
      <g>
       <use style="stroke:#000000;stroke-width:0.8;" x="75.923352" xlink:href="#mfe87f9dbca" y="288.430125"/>
      </g>
     </g>
     <g id="text_1">
      <!-- 14m -->
      <g transform="translate(64.69054 303.028562)scale(0.1 -0.1)">
       <defs>
        <path d="M 794 531 
L 1825 531 
L 1825 4091 
L 703 3866 
L 703 4441 
L 1819 4666 
L 2450 4666 
L 2450 531 
L 3481 531 
L 3481 0 
L 794 0 
L 794 531 
z
" id="DejaVuSans-31" transform="scale(0.015625)"/>
        <path d="M 2419 4116 
L 825 1625 
L 2419 1625 
L 2419 4116 
z
M 2253 4666 
L 3047 4666 
L 3047 1625 
L 3713 1625 
L 3713 1100 
L 3047 1100 
L 3047 0 
L 2419 0 
L 2419 1100 
L 313 1100 
L 313 1709 
L 2253 4666 
z
" id="DejaVuSans-34" transform="scale(0.015625)"/>
        <path d="M 3328 2828 
Q 3544 3216 3844 3400 
Q 4144 3584 4550 3584 
Q 5097 3584 5394 3201 
Q 5691 2819 5691 2113 
L 5691 0 
L 5113 0 
L 5113 2094 
Q 5113 2597 4934 2840 
Q 4756 3084 4391 3084 
Q 3944 3084 3684 2787 
Q 3425 2491 3425 1978 
L 3425 0 
L 2847 0 
L 2847 2094 
Q 2847 2600 2669 2842 
Q 2491 3084 2119 3084 
Q 1678 3084 1418 2786 
Q 1159 2488 1159 1978 
L 1159 0 
L 581 0 
L 581 3500 
L 1159 3500 
L 1159 2956 
Q 1356 3278 1631 3431 
Q 1906 3584 2284 3584 
Q 2666 3584 2933 3390 
Q 3200 3197 3328 2828 
z
" id="DejaVuSans-6d" transform="scale(0.015625)"/>
       </defs>
       <use xlink:href="#DejaVuSans-31"/>
       <use x="63.623047" xlink:href="#DejaVuSans-34"/>
       <use x="127.246094" xlink:href="#DejaVuSans-6d"/>
      </g>
     </g>
    </g>
    <g id="xtick_2">
     <g id="line2d_2">
      <g>
       <use style="stroke:#000000;stroke-width:0.8;" x="140.854435" xlink:href="#mfe87f9dbca" y="288.430125"/>
      </g>
     </g>
     <g id="text_2">
      <!-- 37m -->
      <g transform="translate(129.621622 303.028562)scale(0.1 -0.1)">
       <defs>
        <path d="M 2597 2516 
Q 3050 2419 3304 2112 
Q 3559 1806 3559 1356 
Q 3559 666 3084 287 
Q 2609 -91 1734 -91 
Q 1441 -91 1130 -33 
Q 819 25 488 141 
L 488 750 
Q 750 597 1062 519 
Q 1375 441 1716 441 
Q 2309 441 2620 675 
Q 2931 909 2931 1356 
Q 2931 1769 2642 2001 
Q 2353 2234 1838 2234 
L 1294 2234 
L 1294 2753 
L 1863 2753 
Q 2328 2753 2575 2939 
Q 2822 3125 2822 3475 
Q 2822 3834 2567 4026 
Q 2313 4219 1838 4219 
Q 1578 4219 1281 4162 
Q 984 4106 628 3988 
L 628 4550 
Q 988 4650 1302 4700 
Q 1616 4750 1894 4750 
Q 2613 4750 3031 4423 
Q 3450 4097 3450 3541 
Q 3450 3153 3228 2886 
Q 3006 2619 2597 2516 
z
" id="DejaVuSans-33" transform="scale(0.015625)"/>
        <path d="M 525 4666 
L 3525 4666 
L 3525 4397 
L 1831 0 
L 1172 0 
L 2766 4134 
L 525 4134 
L 525 4666 
z
" id="DejaVuSans-37" transform="scale(0.015625)"/>
       </defs>
       <use xlink:href="#DejaVuSans-33"/>
       <use x="63.623047" xlink:href="#DejaVuSans-37"/>
       <use x="127.246094" xlink:href="#DejaVuSans-6d"/>
      </g>
     </g>
    </g>
    <g id="xtick_3">
     <g id="line2d_3">
      <g>
       <use style="stroke:#000000;stroke-width:0.8;" x="205.785517" xlink:href="#mfe87f9dbca" y="288.430125"/>
      </g>
     </g>
     <g id="text_3">
      <!-- 1h:31m -->
      <g transform="translate(186.51833 303.028562)scale(0.1 -0.1)">
       <defs>
        <path d="M 3513 2113 
L 3513 0 
L 2938 0 
L 2938 2094 
Q 2938 2591 2744 2837 
Q 2550 3084 2163 3084 
Q 1697 3084 1428 2787 
Q 1159 2491 1159 1978 
L 1159 0 
L 581 0 
L 581 4863 
L 1159 4863 
L 1159 2956 
Q 1366 3272 1645 3428 
Q 1925 3584 2291 3584 
Q 2894 3584 3203 3211 
Q 3513 2838 3513 2113 
z
" id="DejaVuSans-68" transform="scale(0.015625)"/>
        <path d="M 750 794 
L 1409 794 
L 1409 0 
L 750 0 
L 750 794 
z
M 750 3309 
L 1409 3309 
L 1409 2516 
L 750 2516 
L 750 3309 
z
" id="DejaVuSans-3a" transform="scale(0.015625)"/>
       </defs>
       <use xlink:href="#DejaVuSans-31"/>
       <use x="63.623047" xlink:href="#DejaVuSans-68"/>
       <use x="127.001953" xlink:href="#DejaVuSans-3a"/>
       <use x="160.693359" xlink:href="#DejaVuSans-33"/>
       <use x="224.316406" xlink:href="#DejaVuSans-31"/>
       <use x="287.939453" xlink:href="#DejaVuSans-6d"/>
      </g>
     </g>
    </g>
    <g id="xtick_4">
     <g id="line2d_4">
      <g>
       <use style="stroke:#000000;stroke-width:0.8;" x="270.7166" xlink:href="#mfe87f9dbca" y="288.430125"/>
      </g>
     </g>
     <g id="text_4">
      <!-- 3h:46m -->
      <g transform="translate(251.449412 303.028562)scale(0.1 -0.1)">
       <defs>
        <path d="M 2113 2584 
Q 1688 2584 1439 2293 
Q 1191 2003 1191 1497 
Q 1191 994 1439 701 
Q 1688 409 2113 409 
Q 2538 409 2786 701 
Q 3034 994 3034 1497 
Q 3034 2003 2786 2293 
Q 2538 2584 2113 2584 
z
M 3366 4563 
L 3366 3988 
Q 3128 4100 2886 4159 
Q 2644 4219 2406 4219 
Q 1781 4219 1451 3797 
Q 1122 3375 1075 2522 
Q 1259 2794 1537 2939 
Q 1816 3084 2150 3084 
Q 2853 3084 3261 2657 
Q 3669 2231 3669 1497 
Q 3669 778 3244 343 
Q 2819 -91 2113 -91 
Q 1303 -91 875 529 
Q 447 1150 447 2328 
Q 447 3434 972 4092 
Q 1497 4750 2381 4750 
Q 2619 4750 2861 4703 
Q 3103 4656 3366 4563 
z
" id="DejaVuSans-36" transform="scale(0.015625)"/>
       </defs>
       <use xlink:href="#DejaVuSans-33"/>
       <use x="63.623047" xlink:href="#DejaVuSans-68"/>
       <use x="127.001953" xlink:href="#DejaVuSans-3a"/>
       <use x="160.693359" xlink:href="#DejaVuSans-34"/>
       <use x="224.316406" xlink:href="#DejaVuSans-36"/>
       <use x="287.939453" xlink:href="#DejaVuSans-6d"/>
      </g>
     </g>
    </g>
    <g id="xtick_5">
     <g id="line2d_5">
      <g>
       <use style="stroke:#000000;stroke-width:0.8;" x="335.647682" xlink:href="#mfe87f9dbca" y="288.430125"/>
      </g>
     </g>
     <g id="text_5">
      <!-- 9h:18m -->
      <g transform="translate(316.380495 303.028562)scale(0.1 -0.1)">
       <defs>
        <path d="M 703 97 
L 703 672 
Q 941 559 1184 500 
Q 1428 441 1663 441 
Q 2288 441 2617 861 
Q 2947 1281 2994 2138 
Q 2813 1869 2534 1725 
Q 2256 1581 1919 1581 
Q 1219 1581 811 2004 
Q 403 2428 403 3163 
Q 403 3881 828 4315 
Q 1253 4750 1959 4750 
Q 2769 4750 3195 4129 
Q 3622 3509 3622 2328 
Q 3622 1225 3098 567 
Q 2575 -91 1691 -91 
Q 1453 -91 1209 -44 
Q 966 3 703 97 
z
M 1959 2075 
Q 2384 2075 2632 2365 
Q 2881 2656 2881 3163 
Q 2881 3666 2632 3958 
Q 2384 4250 1959 4250 
Q 1534 4250 1286 3958 
Q 1038 3666 1038 3163 
Q 1038 2656 1286 2365 
Q 1534 2075 1959 2075 
z
" id="DejaVuSans-39" transform="scale(0.015625)"/>
        <path d="M 2034 2216 
Q 1584 2216 1326 1975 
Q 1069 1734 1069 1313 
Q 1069 891 1326 650 
Q 1584 409 2034 409 
Q 2484 409 2743 651 
Q 3003 894 3003 1313 
Q 3003 1734 2745 1975 
Q 2488 2216 2034 2216 
z
M 1403 2484 
Q 997 2584 770 2862 
Q 544 3141 544 3541 
Q 544 4100 942 4425 
Q 1341 4750 2034 4750 
Q 2731 4750 3128 4425 
Q 3525 4100 3525 3541 
Q 3525 3141 3298 2862 
Q 3072 2584 2669 2484 
Q 3125 2378 3379 2068 
Q 3634 1759 3634 1313 
Q 3634 634 3220 271 
Q 2806 -91 2034 -91 
Q 1263 -91 848 271 
Q 434 634 434 1313 
Q 434 1759 690 2068 
Q 947 2378 1403 2484 
z
M 1172 3481 
Q 1172 3119 1398 2916 
Q 1625 2713 2034 2713 
Q 2441 2713 2670 2916 
Q 2900 3119 2900 3481 
Q 2900 3844 2670 4047 
Q 2441 4250 2034 4250 
Q 1625 4250 1398 4047 
Q 1172 3844 1172 3481 
z
" id="DejaVuSans-38" transform="scale(0.015625)"/>
       </defs>
       <use xlink:href="#DejaVuSans-39"/>
       <use x="63.623047" xlink:href="#DejaVuSans-68"/>
       <use x="127.001953" xlink:href="#DejaVuSans-3a"/>
       <use x="160.693359" xlink:href="#DejaVuSans-31"/>
       <use x="224.316406" xlink:href="#DejaVuSans-38"/>
       <use x="287.939453" xlink:href="#DejaVuSans-6d"/>
      </g>
     </g>
    </g>
    <g id="xtick_6">
     <g id="line2d_6">
      <g>
       <use style="stroke:#000000;stroke-width:0.8;" x="400.578765" xlink:href="#mfe87f9dbca" y="288.430125"/>
      </g>
     </g>
     <g id="text_6">
      <!-- 23h -->
      <g transform="translate(391.047515 303.028562)scale(0.1 -0.1)">
       <defs>
        <path d="M 1228 531 
L 3431 531 
L 3431 0 
L 469 0 
L 469 531 
Q 828 903 1448 1529 
Q 2069 2156 2228 2338 
Q 2531 2678 2651 2914 
Q 2772 3150 2772 3378 
Q 2772 3750 2511 3984 
Q 2250 4219 1831 4219 
Q 1534 4219 1204 4116 
Q 875 4013 500 3803 
L 500 4441 
Q 881 4594 1212 4672 
Q 1544 4750 1819 4750 
Q 2544 4750 2975 4387 
Q 3406 4025 3406 3419 
Q 3406 3131 3298 2873 
Q 3191 2616 2906 2266 
Q 2828 2175 2409 1742 
Q 1991 1309 1228 531 
z
" id="DejaVuSans-32" transform="scale(0.015625)"/>
       </defs>
       <use xlink:href="#DejaVuSans-32"/>
       <use x="63.623047" xlink:href="#DejaVuSans-33"/>
       <use x="127.246094" xlink:href="#DejaVuSans-68"/>
      </g>
     </g>
    </g>
    <g id="xtick_7">
     <g id="line2d_7">
      <defs>
       <path d="M 0 0 
L 0 2 
" id="m7b5d8f9842" style="stroke:#000000;stroke-width:0.6;"/>
      </defs>
      <g>
       <use style="stroke:#000000;stroke-width:0.6;" x="67.466788" xlink:href="#m7b5d8f9842" y="288.430125"/>
      </g>
     </g>
    </g>
    <g id="xtick_8">
     <g id="line2d_8">
      <g>
       <use style="stroke:#000000;stroke-width:0.6;" x="133.254461" xlink:href="#m7b5d8f9842" y="288.430125"/>
      </g>
     </g>
    </g>
    <g id="xtick_9">
     <g id="line2d_9">
      <g>
       <use style="stroke:#000000;stroke-width:0.6;" x="162.36597" xlink:href="#m7b5d8f9842" y="288.430125"/>
      </g>
     </g>
    </g>
    <g id="xtick_10">
     <g id="line2d_10">
      <g>
       <use style="stroke:#000000;stroke-width:0.6;" x="183.020915" xlink:href="#m7b5d8f9842" y="288.430125"/>
      </g>
     </g>
    </g>
    <g id="xtick_11">
     <g id="line2d_11">
      <g>
       <use style="stroke:#000000;stroke-width:0.6;" x="199.042135" xlink:href="#m7b5d8f9842" y="288.430125"/>
      </g>
     </g>
    </g>
    <g id="xtick_12">
     <g id="line2d_12">
      <g>
       <use style="stroke:#000000;stroke-width:0.6;" x="212.132424" xlink:href="#m7b5d8f9842" y="288.430125"/>
      </g>
     </g>
    </g>
    <g id="xtick_13">
     <g id="line2d_13">
      <g>
       <use style="stroke:#000000;stroke-width:0.6;" x="223.200107" xlink:href="#m7b5d8f9842" y="288.430125"/>
      </g>
     </g>
    </g>
    <g id="xtick_14">
     <g id="line2d_14">
      <g>
       <use style="stroke:#000000;stroke-width:0.6;" x="232.787369" xlink:href="#m7b5d8f9842" y="288.430125"/>
      </g>
     </g>
    </g>
    <g id="xtick_15">
     <g id="line2d_15">
      <g>
       <use style="stroke:#000000;stroke-width:0.6;" x="241.243934" xlink:href="#m7b5d8f9842" y="288.430125"/>
      </g>
     </g>
    </g>
    <g id="xtick_16">
     <g id="line2d_16">
      <g>
       <use style="stroke:#000000;stroke-width:0.6;" x="298.575043" xlink:href="#m7b5d8f9842" y="288.430125"/>
      </g>
     </g>
    </g>
    <g id="xtick_17">
     <g id="line2d_17">
      <g>
       <use style="stroke:#000000;stroke-width:0.6;" x="327.686552" xlink:href="#m7b5d8f9842" y="288.430125"/>
      </g>
     </g>
    </g>
    <g id="xtick_18">
     <g id="line2d_18">
      <g>
       <use style="stroke:#000000;stroke-width:0.6;" x="348.341496" xlink:href="#m7b5d8f9842" y="288.430125"/>
      </g>
     </g>
    </g>
    <g id="xtick_19">
     <g id="line2d_19">
      <g>
       <use style="stroke:#000000;stroke-width:0.6;" x="364.362716" xlink:href="#m7b5d8f9842" y="288.430125"/>
      </g>
     </g>
    </g>
    <g id="xtick_20">
     <g id="line2d_20">
      <g>
       <use style="stroke:#000000;stroke-width:0.6;" x="377.453006" xlink:href="#m7b5d8f9842" y="288.430125"/>
      </g>
     </g>
    </g>
    <g id="xtick_21">
     <g id="line2d_21">
      <g>
       <use style="stroke:#000000;stroke-width:0.6;" x="388.520688" xlink:href="#m7b5d8f9842" y="288.430125"/>
      </g>
     </g>
    </g>
    <g id="xtick_22">
     <g id="line2d_22">
      <g>
       <use style="stroke:#000000;stroke-width:0.6;" x="398.10795" xlink:href="#m7b5d8f9842" y="288.430125"/>
      </g>
     </g>
    </g>
    <g id="xtick_23">
     <g id="line2d_23">
      <g>
       <use style="stroke:#000000;stroke-width:0.6;" x="406.564515" xlink:href="#m7b5d8f9842" y="288.430125"/>
      </g>
     </g>
    </g>
    <g id="text_7">
     <!-- Time (hour:minute) -->
     <g transform="translate(189.843594 316.706687)scale(0.1 -0.1)">
      <defs>
       <path d="M -19 4666 
L 3928 4666 
L 3928 4134 
L 2272 4134 
L 2272 0 
L 1638 0 
L 1638 4134 
L -19 4134 
L -19 4666 
z
" id="DejaVuSans-54" transform="scale(0.015625)"/>
       <path d="M 603 3500 
L 1178 3500 
L 1178 0 
L 603 0 
L 603 3500 
z
M 603 4863 
L 1178 4863 
L 1178 4134 
L 603 4134 
L 603 4863 
z
" id="DejaVuSans-69" transform="scale(0.015625)"/>
       <path d="M 3597 1894 
L 3597 1613 
L 953 1613 
Q 991 1019 1311 708 
Q 1631 397 2203 397 
Q 2534 397 2845 478 
Q 3156 559 3463 722 
L 3463 178 
Q 3153 47 2828 -22 
Q 2503 -91 2169 -91 
Q 1331 -91 842 396 
Q 353 884 353 1716 
Q 353 2575 817 3079 
Q 1281 3584 2069 3584 
Q 2775 3584 3186 3129 
Q 3597 2675 3597 1894 
z
M 3022 2063 
Q 3016 2534 2758 2815 
Q 2500 3097 2075 3097 
Q 1594 3097 1305 2825 
Q 1016 2553 972 2059 
L 3022 2063 
z
" id="DejaVuSans-65" transform="scale(0.015625)"/>
       <path id="DejaVuSans-20" transform="scale(0.015625)"/>
       <path d="M 1984 4856 
Q 1566 4138 1362 3434 
Q 1159 2731 1159 2009 
Q 1159 1288 1364 580 
Q 1569 -128 1984 -844 
L 1484 -844 
Q 1016 -109 783 600 
Q 550 1309 550 2009 
Q 550 2706 781 3412 
Q 1013 4119 1484 4856 
L 1984 4856 
z
" id="DejaVuSans-28" transform="scale(0.015625)"/>
       <path d="M 1959 3097 
Q 1497 3097 1228 2736 
Q 959 2375 959 1747 
Q 959 1119 1226 758 
Q 1494 397 1959 397 
Q 2419 397 2687 759 
Q 2956 1122 2956 1747 
Q 2956 2369 2687 2733 
Q 2419 3097 1959 3097 
z
M 1959 3584 
Q 2709 3584 3137 3096 
Q 3566 2609 3566 1747 
Q 3566 888 3137 398 
Q 2709 -91 1959 -91 
Q 1206 -91 779 398 
Q 353 888 353 1747 
Q 353 2609 779 3096 
Q 1206 3584 1959 3584 
z
" id="DejaVuSans-6f" transform="scale(0.015625)"/>
       <path d="M 544 1381 
L 544 3500 
L 1119 3500 
L 1119 1403 
Q 1119 906 1312 657 
Q 1506 409 1894 409 
Q 2359 409 2629 706 
Q 2900 1003 2900 1516 
L 2900 3500 
L 3475 3500 
L 3475 0 
L 2900 0 
L 2900 538 
Q 2691 219 2414 64 
Q 2138 -91 1772 -91 
Q 1169 -91 856 284 
Q 544 659 544 1381 
z
M 1991 3584 
L 1991 3584 
z
" id="DejaVuSans-75" transform="scale(0.015625)"/>
       <path d="M 2631 2963 
Q 2534 3019 2420 3045 
Q 2306 3072 2169 3072 
Q 1681 3072 1420 2755 
Q 1159 2438 1159 1844 
L 1159 0 
L 581 0 
L 581 3500 
L 1159 3500 
L 1159 2956 
Q 1341 3275 1631 3429 
Q 1922 3584 2338 3584 
Q 2397 3584 2469 3576 
Q 2541 3569 2628 3553 
L 2631 2963 
z
" id="DejaVuSans-72" transform="scale(0.015625)"/>
       <path d="M 3513 2113 
L 3513 0 
L 2938 0 
L 2938 2094 
Q 2938 2591 2744 2837 
Q 2550 3084 2163 3084 
Q 1697 3084 1428 2787 
Q 1159 2491 1159 1978 
L 1159 0 
L 581 0 
L 581 3500 
L 1159 3500 
L 1159 2956 
Q 1366 3272 1645 3428 
Q 1925 3584 2291 3584 
Q 2894 3584 3203 3211 
Q 3513 2838 3513 2113 
z
" id="DejaVuSans-6e" transform="scale(0.015625)"/>
       <path d="M 1172 4494 
L 1172 3500 
L 2356 3500 
L 2356 3053 
L 1172 3053 
L 1172 1153 
Q 1172 725 1289 603 
Q 1406 481 1766 481 
L 2356 481 
L 2356 0 
L 1766 0 
Q 1100 0 847 248 
Q 594 497 594 1153 
L 594 3053 
L 172 3053 
L 172 3500 
L 594 3500 
L 594 4494 
L 1172 4494 
z
" id="DejaVuSans-74" transform="scale(0.015625)"/>
       <path d="M 513 4856 
L 1013 4856 
Q 1481 4119 1714 3412 
Q 1947 2706 1947 2009 
Q 1947 1309 1714 600 
Q 1481 -109 1013 -844 
L 513 -844 
Q 928 -128 1133 580 
Q 1338 1288 1338 2009 
Q 1338 2731 1133 3434 
Q 928 4138 513 4856 
z
" id="DejaVuSans-29" transform="scale(0.015625)"/>
      </defs>
      <use xlink:href="#DejaVuSans-54"/>
      <use x="57.958984" xlink:href="#DejaVuSans-69"/>
      <use x="85.742188" xlink:href="#DejaVuSans-6d"/>
      <use x="183.154297" xlink:href="#DejaVuSans-65"/>
      <use x="244.677734" xlink:href="#DejaVuSans-20"/>
      <use x="276.464844" xlink:href="#DejaVuSans-28"/>
      <use x="315.478516" xlink:href="#DejaVuSans-68"/>
      <use x="378.857422" xlink:href="#DejaVuSans-6f"/>
      <use x="440.039062" xlink:href="#DejaVuSans-75"/>
      <use x="503.417969" xlink:href="#DejaVuSans-72"/>
      <use x="542.78125" xlink:href="#DejaVuSans-3a"/>
      <use x="576.472656" xlink:href="#DejaVuSans-6d"/>
      <use x="673.884766" xlink:href="#DejaVuSans-69"/>
      <use x="701.667969" xlink:href="#DejaVuSans-6e"/>
      <use x="765.046875" xlink:href="#DejaVuSans-75"/>
      <use x="828.425781" xlink:href="#DejaVuSans-74"/>
      <use x="867.634766" xlink:href="#DejaVuSans-65"/>
      <use x="929.158203" xlink:href="#DejaVuSans-29"/>
     </g>
    </g>
   </g>
   <g id="matplotlib.axis_2">
    <g id="ytick_1">
     <g id="line2d_24">
      <defs>
       <path d="M 0 0 
L -3.5 0 
" id="m046895818c" style="stroke:#000000;stroke-width:0.8;"/>
      </defs>
      <g>
       <use style="stroke:#000000;stroke-width:0.8;" x="59.690625" xlink:href="#m046895818c" y="245.196782"/>
      </g>
     </g>
     <g id="text_8">
      <!-- 34000 -->
      <g transform="translate(20.878125 248.996001)scale(0.1 -0.1)">
       <defs>
        <path d="M 2034 4250 
Q 1547 4250 1301 3770 
Q 1056 3291 1056 2328 
Q 1056 1369 1301 889 
Q 1547 409 2034 409 
Q 2525 409 2770 889 
Q 3016 1369 3016 2328 
Q 3016 3291 2770 3770 
Q 2525 4250 2034 4250 
z
M 2034 4750 
Q 2819 4750 3233 4129 
Q 3647 3509 3647 2328 
Q 3647 1150 3233 529 
Q 2819 -91 2034 -91 
Q 1250 -91 836 529 
Q 422 1150 422 2328 
Q 422 3509 836 4129 
Q 1250 4750 2034 4750 
z
" id="DejaVuSans-30" transform="scale(0.015625)"/>
       </defs>
       <use xlink:href="#DejaVuSans-33"/>
       <use x="63.623047" xlink:href="#DejaVuSans-34"/>
       <use x="127.246094" xlink:href="#DejaVuSans-30"/>
       <use x="190.869141" xlink:href="#DejaVuSans-30"/>
       <use x="254.492188" xlink:href="#DejaVuSans-30"/>
      </g>
     </g>
    </g>
    <g id="ytick_2">
     <g id="line2d_25">
      <g>
       <use style="stroke:#000000;stroke-width:0.8;" x="59.690625" xlink:href="#m046895818c" y="196.086191"/>
      </g>
     </g>
     <g id="text_9">
      <!-- 35000 -->
      <g transform="translate(20.878125 199.88541)scale(0.1 -0.1)">
       <defs>
        <path d="M 691 4666 
L 3169 4666 
L 3169 4134 
L 1269 4134 
L 1269 2991 
Q 1406 3038 1543 3061 
Q 1681 3084 1819 3084 
Q 2600 3084 3056 2656 
Q 3513 2228 3513 1497 
Q 3513 744 3044 326 
Q 2575 -91 1722 -91 
Q 1428 -91 1123 -41 
Q 819 9 494 109 
L 494 744 
Q 775 591 1075 516 
Q 1375 441 1709 441 
Q 2250 441 2565 725 
Q 2881 1009 2881 1497 
Q 2881 1984 2565 2268 
Q 2250 2553 1709 2553 
Q 1456 2553 1204 2497 
Q 953 2441 691 2322 
L 691 4666 
z
" id="DejaVuSans-35" transform="scale(0.015625)"/>
       </defs>
       <use xlink:href="#DejaVuSans-33"/>
       <use x="63.623047" xlink:href="#DejaVuSans-35"/>
       <use x="127.246094" xlink:href="#DejaVuSans-30"/>
       <use x="190.869141" xlink:href="#DejaVuSans-30"/>
       <use x="254.492188" xlink:href="#DejaVuSans-30"/>
      </g>
     </g>
    </g>
    <g id="ytick_3">
     <g id="line2d_26">
      <g>
       <use style="stroke:#000000;stroke-width:0.8;" x="59.690625" xlink:href="#m046895818c" y="146.9756"/>
      </g>
     </g>
     <g id="text_10">
      <!-- 36000 -->
      <g transform="translate(20.878125 150.774819)scale(0.1 -0.1)">
       <use xlink:href="#DejaVuSans-33"/>
       <use x="63.623047" xlink:href="#DejaVuSans-36"/>
       <use x="127.246094" xlink:href="#DejaVuSans-30"/>
       <use x="190.869141" xlink:href="#DejaVuSans-30"/>
       <use x="254.492188" xlink:href="#DejaVuSans-30"/>
      </g>
     </g>
    </g>
    <g id="ytick_4">
     <g id="line2d_27">
      <g>
       <use style="stroke:#000000;stroke-width:0.8;" x="59.690625" xlink:href="#m046895818c" y="97.865009"/>
      </g>
     </g>
     <g id="text_11">
      <!-- 37000 -->
      <g transform="translate(20.878125 101.664228)scale(0.1 -0.1)">
       <use xlink:href="#DejaVuSans-33"/>
       <use x="63.623047" xlink:href="#DejaVuSans-37"/>
       <use x="127.246094" xlink:href="#DejaVuSans-30"/>
       <use x="190.869141" xlink:href="#DejaVuSans-30"/>
       <use x="254.492188" xlink:href="#DejaVuSans-30"/>
      </g>
     </g>
    </g>
    <g id="ytick_5">
     <g id="line2d_28">
      <g>
       <use style="stroke:#000000;stroke-width:0.8;" x="59.690625" xlink:href="#m046895818c" y="48.754418"/>
      </g>
     </g>
     <g id="text_12">
      <!-- 38000 -->
      <g transform="translate(20.878125 52.553636)scale(0.1 -0.1)">
       <use xlink:href="#DejaVuSans-33"/>
       <use x="63.623047" xlink:href="#DejaVuSans-38"/>
       <use x="127.246094" xlink:href="#DejaVuSans-30"/>
       <use x="190.869141" xlink:href="#DejaVuSans-30"/>
       <use x="254.492188" xlink:href="#DejaVuSans-30"/>
      </g>
     </g>
    </g>
    <g id="text_13">
     <!-- Code region coverage -->
     <g transform="translate(14.798438 210.379594)rotate(-90)scale(0.1 -0.1)">
      <defs>
       <path d="M 4122 4306 
L 4122 3641 
Q 3803 3938 3442 4084 
Q 3081 4231 2675 4231 
Q 1875 4231 1450 3742 
Q 1025 3253 1025 2328 
Q 1025 1406 1450 917 
Q 1875 428 2675 428 
Q 3081 428 3442 575 
Q 3803 722 4122 1019 
L 4122 359 
Q 3791 134 3420 21 
Q 3050 -91 2638 -91 
Q 1578 -91 968 557 
Q 359 1206 359 2328 
Q 359 3453 968 4101 
Q 1578 4750 2638 4750 
Q 3056 4750 3426 4639 
Q 3797 4528 4122 4306 
z
" id="DejaVuSans-43" transform="scale(0.015625)"/>
       <path d="M 2906 2969 
L 2906 4863 
L 3481 4863 
L 3481 0 
L 2906 0 
L 2906 525 
Q 2725 213 2448 61 
Q 2172 -91 1784 -91 
Q 1150 -91 751 415 
Q 353 922 353 1747 
Q 353 2572 751 3078 
Q 1150 3584 1784 3584 
Q 2172 3584 2448 3432 
Q 2725 3281 2906 2969 
z
M 947 1747 
Q 947 1113 1208 752 
Q 1469 391 1925 391 
Q 2381 391 2643 752 
Q 2906 1113 2906 1747 
Q 2906 2381 2643 2742 
Q 2381 3103 1925 3103 
Q 1469 3103 1208 2742 
Q 947 2381 947 1747 
z
" id="DejaVuSans-64" transform="scale(0.015625)"/>
       <path d="M 2906 1791 
Q 2906 2416 2648 2759 
Q 2391 3103 1925 3103 
Q 1463 3103 1205 2759 
Q 947 2416 947 1791 
Q 947 1169 1205 825 
Q 1463 481 1925 481 
Q 2391 481 2648 825 
Q 2906 1169 2906 1791 
z
M 3481 434 
Q 3481 -459 3084 -895 
Q 2688 -1331 1869 -1331 
Q 1566 -1331 1297 -1286 
Q 1028 -1241 775 -1147 
L 775 -588 
Q 1028 -725 1275 -790 
Q 1522 -856 1778 -856 
Q 2344 -856 2625 -561 
Q 2906 -266 2906 331 
L 2906 616 
Q 2728 306 2450 153 
Q 2172 0 1784 0 
Q 1141 0 747 490 
Q 353 981 353 1791 
Q 353 2603 747 3093 
Q 1141 3584 1784 3584 
Q 2172 3584 2450 3431 
Q 2728 3278 2906 2969 
L 2906 3500 
L 3481 3500 
L 3481 434 
z
" id="DejaVuSans-67" transform="scale(0.015625)"/>
       <path d="M 3122 3366 
L 3122 2828 
Q 2878 2963 2633 3030 
Q 2388 3097 2138 3097 
Q 1578 3097 1268 2742 
Q 959 2388 959 1747 
Q 959 1106 1268 751 
Q 1578 397 2138 397 
Q 2388 397 2633 464 
Q 2878 531 3122 666 
L 3122 134 
Q 2881 22 2623 -34 
Q 2366 -91 2075 -91 
Q 1284 -91 818 406 
Q 353 903 353 1747 
Q 353 2603 823 3093 
Q 1294 3584 2113 3584 
Q 2378 3584 2631 3529 
Q 2884 3475 3122 3366 
z
" id="DejaVuSans-63" transform="scale(0.015625)"/>
       <path d="M 191 3500 
L 800 3500 
L 1894 563 
L 2988 3500 
L 3597 3500 
L 2284 0 
L 1503 0 
L 191 3500 
z
" id="DejaVuSans-76" transform="scale(0.015625)"/>
       <path d="M 2194 1759 
Q 1497 1759 1228 1600 
Q 959 1441 959 1056 
Q 959 750 1161 570 
Q 1363 391 1709 391 
Q 2188 391 2477 730 
Q 2766 1069 2766 1631 
L 2766 1759 
L 2194 1759 
z
M 3341 1997 
L 3341 0 
L 2766 0 
L 2766 531 
Q 2569 213 2275 61 
Q 1981 -91 1556 -91 
Q 1019 -91 701 211 
Q 384 513 384 1019 
Q 384 1609 779 1909 
Q 1175 2209 1959 2209 
L 2766 2209 
L 2766 2266 
Q 2766 2663 2505 2880 
Q 2244 3097 1772 3097 
Q 1472 3097 1187 3025 
Q 903 2953 641 2809 
L 641 3341 
Q 956 3463 1253 3523 
Q 1550 3584 1831 3584 
Q 2591 3584 2966 3190 
Q 3341 2797 3341 1997 
z
" id="DejaVuSans-61" transform="scale(0.015625)"/>
      </defs>
      <use xlink:href="#DejaVuSans-43"/>
      <use x="69.824219" xlink:href="#DejaVuSans-6f"/>
      <use x="131.005859" xlink:href="#DejaVuSans-64"/>
      <use x="194.482422" xlink:href="#DejaVuSans-65"/>
      <use x="256.005859" xlink:href="#DejaVuSans-20"/>
      <use x="287.792969" xlink:href="#DejaVuSans-72"/>
      <use x="326.65625" xlink:href="#DejaVuSans-65"/>
      <use x="388.179688" xlink:href="#DejaVuSans-67"/>
      <use x="451.65625" xlink:href="#DejaVuSans-69"/>
      <use x="479.439453" xlink:href="#DejaVuSans-6f"/>
      <use x="540.621094" xlink:href="#DejaVuSans-6e"/>
      <use x="604" xlink:href="#DejaVuSans-20"/>
      <use x="635.787109" xlink:href="#DejaVuSans-63"/>
      <use x="690.767578" xlink:href="#DejaVuSans-6f"/>
      <use x="751.949219" xlink:href="#DejaVuSans-76"/>
      <use x="811.128906" xlink:href="#DejaVuSans-65"/>
      <use x="872.652344" xlink:href="#DejaVuSans-72"/>
      <use x="913.765625" xlink:href="#DejaVuSans-61"/>
      <use x="975.044922" xlink:href="#DejaVuSans-67"/>
      <use x="1038.521484" xlink:href="#DejaVuSans-65"/>
     </g>
    </g>
   </g>
   <g id="line2d_29">
    <path clip-path="url(#p0398817fbc)" d="M 75.923352 231.912367 
L 125.689806 179.044816 
L 154.801316 174.477531 
L 175.45626 166.865389 
L 191.47748 161.512335 
L 204.567769 153.065313 
L 215.635452 149.136466 
L 225.222714 146.803713 
L 233.679279 139.756343 
L 241.243934 135.581943 
L 248.086996 127.429585 
L 254.334223 122.665857 
L 260.081115 119.670111 
L 265.401906 115.053716 
L 270.355443 113.212069 
L 274.989168 110.928426 
L 279.341883 110.216323 
L 283.445733 108.792115 
L 287.327641 105.919146 
L 291.010388 102.604181 
L 294.513415 100.394204 
L 297.85345 99.829432 
L 301.04499 95.188482 
L 304.100677 92.855729 
L 307.031607 91.554298 
L 309.847569 89.393432 
L 312.557242 88.190222 
L 315.168359 87.379898 
L 317.68784 84.850702 
L 320.121897 83.721159 
L 322.476135 80.627191 
L 324.755622 80.013309 
L 326.96496 78.981987 
L 329.108337 77.361337 
L 331.189579 76.305459 
L 333.212187 75.274137 
L 335.179373 72.64672 
L 337.094095 72.425723 
L 338.959078 68.226767 
L 340.776842 67.686551 
L 342.549717 66.164122 
L 344.279869 65.427463 
L 345.969307 65.231021 
L 347.619904 64.224254 
L 349.233406 62.996489 
L 350.811444 62.873713 
L 352.355542 60.786512 
L 353.867131 59.264084 
L 355.347551 59.239529 
L 356.798061 57.29966 
L 358.219847 55.433458 
L 359.614023 53.96014 
L 360.981642 53.49359 
L 362.323696 52.585044 
L 363.641124 51.701053 
L 364.934813 49.392855 
L 366.205604 46.888215 
L 367.454294 45.709561 
L 368.681636 44.899236 
L 369.888351 44.580017 
L 371.075119 44.555462 
L 372.242589 44.481796 
L 373.391378 44.383575 
L 374.522076 44.260799 
L 375.635243 43.303142 
L 376.731414 43.082144 
L 377.8111 40.896723 
L 378.874791 39.988177 
L 379.922953 39.988177 
L 380.956033 39.791735 
L 381.974459 39.742624 
L 382.978641 39.300629 
L 383.968971 39.251518 
L 384.945827 39.251518 
L 385.909571 39.030521 
L 386.860549 38.735857 
L 387.799096 38.686746 
L 388.725532 38.686746 
L 389.640166 38.686746 
L 390.543295 38.293862 
L 391.435205 38.293862 
L 392.316171 38.244751 
L 393.186458 38.244751 
L 394.046323 38.14653 
L 394.896011 38.097419 
L 395.735761 38.072864 
L 396.565803 37.188873 
L 397.386358 36.992431 
L 398.197642 36.746878 
L 398.99986 36.722323 
L 399.793214 36.722323 
L 400.577898 36.673212 
" style="fill:none;stroke:#98df8a;stroke-linecap:square;stroke-width:1.5;"/>
    <defs>
     <path d="M -0 3 
L 3 -3 
L -3 -3 
z
" id="m0b3bb4cb19" style="stroke:#ffffff;stroke-linejoin:miter;stroke-width:0.75;"/>
    </defs>
    <g clip-path="url(#p0398817fbc)">
     <use style="fill:#98df8a;stroke:#ffffff;stroke-linejoin:miter;stroke-width:0.75;" x="75.923352" xlink:href="#m0b3bb4cb19" y="231.912367"/>
     <use style="fill:#98df8a;stroke:#ffffff;stroke-linejoin:miter;stroke-width:0.75;" x="125.689806" xlink:href="#m0b3bb4cb19" y="179.044816"/>
     <use style="fill:#98df8a;stroke:#ffffff;stroke-linejoin:miter;stroke-width:0.75;" x="154.801316" xlink:href="#m0b3bb4cb19" y="174.477531"/>
     <use style="fill:#98df8a;stroke:#ffffff;stroke-linejoin:miter;stroke-width:0.75;" x="175.45626" xlink:href="#m0b3bb4cb19" y="166.865389"/>
     <use style="fill:#98df8a;stroke:#ffffff;stroke-linejoin:miter;stroke-width:0.75;" x="191.47748" xlink:href="#m0b3bb4cb19" y="161.512335"/>
     <use style="fill:#98df8a;stroke:#ffffff;stroke-linejoin:miter;stroke-width:0.75;" x="204.567769" xlink:href="#m0b3bb4cb19" y="153.065313"/>
     <use style="fill:#98df8a;stroke:#ffffff;stroke-linejoin:miter;stroke-width:0.75;" x="215.635452" xlink:href="#m0b3bb4cb19" y="149.136466"/>
     <use style="fill:#98df8a;stroke:#ffffff;stroke-linejoin:miter;stroke-width:0.75;" x="225.222714" xlink:href="#m0b3bb4cb19" y="146.803713"/>
     <use style="fill:#98df8a;stroke:#ffffff;stroke-linejoin:miter;stroke-width:0.75;" x="233.679279" xlink:href="#m0b3bb4cb19" y="139.756343"/>
     <use style="fill:#98df8a;stroke:#ffffff;stroke-linejoin:miter;stroke-width:0.75;" x="241.243934" xlink:href="#m0b3bb4cb19" y="135.581943"/>
     <use style="fill:#98df8a;stroke:#ffffff;stroke-linejoin:miter;stroke-width:0.75;" x="248.086996" xlink:href="#m0b3bb4cb19" y="127.429585"/>
     <use style="fill:#98df8a;stroke:#ffffff;stroke-linejoin:miter;stroke-width:0.75;" x="254.334223" xlink:href="#m0b3bb4cb19" y="122.665857"/>
     <use style="fill:#98df8a;stroke:#ffffff;stroke-linejoin:miter;stroke-width:0.75;" x="260.081115" xlink:href="#m0b3bb4cb19" y="119.670111"/>
     <use style="fill:#98df8a;stroke:#ffffff;stroke-linejoin:miter;stroke-width:0.75;" x="265.401906" xlink:href="#m0b3bb4cb19" y="115.053716"/>
     <use style="fill:#98df8a;stroke:#ffffff;stroke-linejoin:miter;stroke-width:0.75;" x="270.355443" xlink:href="#m0b3bb4cb19" y="113.212069"/>
     <use style="fill:#98df8a;stroke:#ffffff;stroke-linejoin:miter;stroke-width:0.75;" x="274.989168" xlink:href="#m0b3bb4cb19" y="110.928426"/>
     <use style="fill:#98df8a;stroke:#ffffff;stroke-linejoin:miter;stroke-width:0.75;" x="279.341883" xlink:href="#m0b3bb4cb19" y="110.216323"/>
     <use style="fill:#98df8a;stroke:#ffffff;stroke-linejoin:miter;stroke-width:0.75;" x="283.445733" xlink:href="#m0b3bb4cb19" y="108.792115"/>
     <use style="fill:#98df8a;stroke:#ffffff;stroke-linejoin:miter;stroke-width:0.75;" x="287.327641" xlink:href="#m0b3bb4cb19" y="105.919146"/>
     <use style="fill:#98df8a;stroke:#ffffff;stroke-linejoin:miter;stroke-width:0.75;" x="291.010388" xlink:href="#m0b3bb4cb19" y="102.604181"/>
     <use style="fill:#98df8a;stroke:#ffffff;stroke-linejoin:miter;stroke-width:0.75;" x="294.513415" xlink:href="#m0b3bb4cb19" y="100.394204"/>
     <use style="fill:#98df8a;stroke:#ffffff;stroke-linejoin:miter;stroke-width:0.75;" x="297.85345" xlink:href="#m0b3bb4cb19" y="99.829432"/>
     <use style="fill:#98df8a;stroke:#ffffff;stroke-linejoin:miter;stroke-width:0.75;" x="301.04499" xlink:href="#m0b3bb4cb19" y="95.188482"/>
     <use style="fill:#98df8a;stroke:#ffffff;stroke-linejoin:miter;stroke-width:0.75;" x="304.100677" xlink:href="#m0b3bb4cb19" y="92.855729"/>
     <use style="fill:#98df8a;stroke:#ffffff;stroke-linejoin:miter;stroke-width:0.75;" x="307.031607" xlink:href="#m0b3bb4cb19" y="91.554298"/>
     <use style="fill:#98df8a;stroke:#ffffff;stroke-linejoin:miter;stroke-width:0.75;" x="309.847569" xlink:href="#m0b3bb4cb19" y="89.393432"/>
     <use style="fill:#98df8a;stroke:#ffffff;stroke-linejoin:miter;stroke-width:0.75;" x="312.557242" xlink:href="#m0b3bb4cb19" y="88.190222"/>
     <use style="fill:#98df8a;stroke:#ffffff;stroke-linejoin:miter;stroke-width:0.75;" x="315.168359" xlink:href="#m0b3bb4cb19" y="87.379898"/>
     <use style="fill:#98df8a;stroke:#ffffff;stroke-linejoin:miter;stroke-width:0.75;" x="317.68784" xlink:href="#m0b3bb4cb19" y="84.850702"/>
     <use style="fill:#98df8a;stroke:#ffffff;stroke-linejoin:miter;stroke-width:0.75;" x="320.121897" xlink:href="#m0b3bb4cb19" y="83.721159"/>
     <use style="fill:#98df8a;stroke:#ffffff;stroke-linejoin:miter;stroke-width:0.75;" x="322.476135" xlink:href="#m0b3bb4cb19" y="80.627191"/>
     <use style="fill:#98df8a;stroke:#ffffff;stroke-linejoin:miter;stroke-width:0.75;" x="324.755622" xlink:href="#m0b3bb4cb19" y="80.013309"/>
     <use style="fill:#98df8a;stroke:#ffffff;stroke-linejoin:miter;stroke-width:0.75;" x="326.96496" xlink:href="#m0b3bb4cb19" y="78.981987"/>
     <use style="fill:#98df8a;stroke:#ffffff;stroke-linejoin:miter;stroke-width:0.75;" x="329.108337" xlink:href="#m0b3bb4cb19" y="77.361337"/>
     <use style="fill:#98df8a;stroke:#ffffff;stroke-linejoin:miter;stroke-width:0.75;" x="331.189579" xlink:href="#m0b3bb4cb19" y="76.305459"/>
     <use style="fill:#98df8a;stroke:#ffffff;stroke-linejoin:miter;stroke-width:0.75;" x="333.212187" xlink:href="#m0b3bb4cb19" y="75.274137"/>
     <use style="fill:#98df8a;stroke:#ffffff;stroke-linejoin:miter;stroke-width:0.75;" x="335.179373" xlink:href="#m0b3bb4cb19" y="72.64672"/>
     <use style="fill:#98df8a;stroke:#ffffff;stroke-linejoin:miter;stroke-width:0.75;" x="337.094095" xlink:href="#m0b3bb4cb19" y="72.425723"/>
     <use style="fill:#98df8a;stroke:#ffffff;stroke-linejoin:miter;stroke-width:0.75;" x="338.959078" xlink:href="#m0b3bb4cb19" y="68.226767"/>
     <use style="fill:#98df8a;stroke:#ffffff;stroke-linejoin:miter;stroke-width:0.75;" x="340.776842" xlink:href="#m0b3bb4cb19" y="67.686551"/>
     <use style="fill:#98df8a;stroke:#ffffff;stroke-linejoin:miter;stroke-width:0.75;" x="342.549717" xlink:href="#m0b3bb4cb19" y="66.164122"/>
     <use style="fill:#98df8a;stroke:#ffffff;stroke-linejoin:miter;stroke-width:0.75;" x="344.279869" xlink:href="#m0b3bb4cb19" y="65.427463"/>
     <use style="fill:#98df8a;stroke:#ffffff;stroke-linejoin:miter;stroke-width:0.75;" x="345.969307" xlink:href="#m0b3bb4cb19" y="65.231021"/>
     <use style="fill:#98df8a;stroke:#ffffff;stroke-linejoin:miter;stroke-width:0.75;" x="347.619904" xlink:href="#m0b3bb4cb19" y="64.224254"/>
     <use style="fill:#98df8a;stroke:#ffffff;stroke-linejoin:miter;stroke-width:0.75;" x="349.233406" xlink:href="#m0b3bb4cb19" y="62.996489"/>
     <use style="fill:#98df8a;stroke:#ffffff;stroke-linejoin:miter;stroke-width:0.75;" x="350.811444" xlink:href="#m0b3bb4cb19" y="62.873713"/>
     <use style="fill:#98df8a;stroke:#ffffff;stroke-linejoin:miter;stroke-width:0.75;" x="352.355542" xlink:href="#m0b3bb4cb19" y="60.786512"/>
     <use style="fill:#98df8a;stroke:#ffffff;stroke-linejoin:miter;stroke-width:0.75;" x="353.867131" xlink:href="#m0b3bb4cb19" y="59.264084"/>
     <use style="fill:#98df8a;stroke:#ffffff;stroke-linejoin:miter;stroke-width:0.75;" x="355.347551" xlink:href="#m0b3bb4cb19" y="59.239529"/>
     <use style="fill:#98df8a;stroke:#ffffff;stroke-linejoin:miter;stroke-width:0.75;" x="356.798061" xlink:href="#m0b3bb4cb19" y="57.29966"/>
     <use style="fill:#98df8a;stroke:#ffffff;stroke-linejoin:miter;stroke-width:0.75;" x="358.219847" xlink:href="#m0b3bb4cb19" y="55.433458"/>
     <use style="fill:#98df8a;stroke:#ffffff;stroke-linejoin:miter;stroke-width:0.75;" x="359.614023" xlink:href="#m0b3bb4cb19" y="53.96014"/>
     <use style="fill:#98df8a;stroke:#ffffff;stroke-linejoin:miter;stroke-width:0.75;" x="360.981642" xlink:href="#m0b3bb4cb19" y="53.49359"/>
     <use style="fill:#98df8a;stroke:#ffffff;stroke-linejoin:miter;stroke-width:0.75;" x="362.323696" xlink:href="#m0b3bb4cb19" y="52.585044"/>
     <use style="fill:#98df8a;stroke:#ffffff;stroke-linejoin:miter;stroke-width:0.75;" x="363.641124" xlink:href="#m0b3bb4cb19" y="51.701053"/>
     <use style="fill:#98df8a;stroke:#ffffff;stroke-linejoin:miter;stroke-width:0.75;" x="364.934813" xlink:href="#m0b3bb4cb19" y="49.392855"/>
     <use style="fill:#98df8a;stroke:#ffffff;stroke-linejoin:miter;stroke-width:0.75;" x="366.205604" xlink:href="#m0b3bb4cb19" y="46.888215"/>
     <use style="fill:#98df8a;stroke:#ffffff;stroke-linejoin:miter;stroke-width:0.75;" x="367.454294" xlink:href="#m0b3bb4cb19" y="45.709561"/>
     <use style="fill:#98df8a;stroke:#ffffff;stroke-linejoin:miter;stroke-width:0.75;" x="368.681636" xlink:href="#m0b3bb4cb19" y="44.899236"/>
     <use style="fill:#98df8a;stroke:#ffffff;stroke-linejoin:miter;stroke-width:0.75;" x="369.888351" xlink:href="#m0b3bb4cb19" y="44.580017"/>
     <use style="fill:#98df8a;stroke:#ffffff;stroke-linejoin:miter;stroke-width:0.75;" x="371.075119" xlink:href="#m0b3bb4cb19" y="44.555462"/>
     <use style="fill:#98df8a;stroke:#ffffff;stroke-linejoin:miter;stroke-width:0.75;" x="372.242589" xlink:href="#m0b3bb4cb19" y="44.481796"/>
     <use style="fill:#98df8a;stroke:#ffffff;stroke-linejoin:miter;stroke-width:0.75;" x="373.391378" xlink:href="#m0b3bb4cb19" y="44.383575"/>
     <use style="fill:#98df8a;stroke:#ffffff;stroke-linejoin:miter;stroke-width:0.75;" x="374.522076" xlink:href="#m0b3bb4cb19" y="44.260799"/>
     <use style="fill:#98df8a;stroke:#ffffff;stroke-linejoin:miter;stroke-width:0.75;" x="375.635243" xlink:href="#m0b3bb4cb19" y="43.303142"/>
     <use style="fill:#98df8a;stroke:#ffffff;stroke-linejoin:miter;stroke-width:0.75;" x="376.731414" xlink:href="#m0b3bb4cb19" y="43.082144"/>
     <use style="fill:#98df8a;stroke:#ffffff;stroke-linejoin:miter;stroke-width:0.75;" x="377.8111" xlink:href="#m0b3bb4cb19" y="40.896723"/>
     <use style="fill:#98df8a;stroke:#ffffff;stroke-linejoin:miter;stroke-width:0.75;" x="378.874791" xlink:href="#m0b3bb4cb19" y="39.988177"/>
     <use style="fill:#98df8a;stroke:#ffffff;stroke-linejoin:miter;stroke-width:0.75;" x="379.922953" xlink:href="#m0b3bb4cb19" y="39.988177"/>
     <use style="fill:#98df8a;stroke:#ffffff;stroke-linejoin:miter;stroke-width:0.75;" x="380.956033" xlink:href="#m0b3bb4cb19" y="39.791735"/>
     <use style="fill:#98df8a;stroke:#ffffff;stroke-linejoin:miter;stroke-width:0.75;" x="381.974459" xlink:href="#m0b3bb4cb19" y="39.742624"/>
     <use style="fill:#98df8a;stroke:#ffffff;stroke-linejoin:miter;stroke-width:0.75;" x="382.978641" xlink:href="#m0b3bb4cb19" y="39.300629"/>
     <use style="fill:#98df8a;stroke:#ffffff;stroke-linejoin:miter;stroke-width:0.75;" x="383.968971" xlink:href="#m0b3bb4cb19" y="39.251518"/>
     <use style="fill:#98df8a;stroke:#ffffff;stroke-linejoin:miter;stroke-width:0.75;" x="384.945827" xlink:href="#m0b3bb4cb19" y="39.251518"/>
     <use style="fill:#98df8a;stroke:#ffffff;stroke-linejoin:miter;stroke-width:0.75;" x="385.909571" xlink:href="#m0b3bb4cb19" y="39.030521"/>
     <use style="fill:#98df8a;stroke:#ffffff;stroke-linejoin:miter;stroke-width:0.75;" x="386.860549" xlink:href="#m0b3bb4cb19" y="38.735857"/>
     <use style="fill:#98df8a;stroke:#ffffff;stroke-linejoin:miter;stroke-width:0.75;" x="387.799096" xlink:href="#m0b3bb4cb19" y="38.686746"/>
     <use style="fill:#98df8a;stroke:#ffffff;stroke-linejoin:miter;stroke-width:0.75;" x="388.725532" xlink:href="#m0b3bb4cb19" y="38.686746"/>
     <use style="fill:#98df8a;stroke:#ffffff;stroke-linejoin:miter;stroke-width:0.75;" x="389.640166" xlink:href="#m0b3bb4cb19" y="38.686746"/>
     <use style="fill:#98df8a;stroke:#ffffff;stroke-linejoin:miter;stroke-width:0.75;" x="390.543295" xlink:href="#m0b3bb4cb19" y="38.293862"/>
     <use style="fill:#98df8a;stroke:#ffffff;stroke-linejoin:miter;stroke-width:0.75;" x="391.435205" xlink:href="#m0b3bb4cb19" y="38.293862"/>
     <use style="fill:#98df8a;stroke:#ffffff;stroke-linejoin:miter;stroke-width:0.75;" x="392.316171" xlink:href="#m0b3bb4cb19" y="38.244751"/>
     <use style="fill:#98df8a;stroke:#ffffff;stroke-linejoin:miter;stroke-width:0.75;" x="393.186458" xlink:href="#m0b3bb4cb19" y="38.244751"/>
     <use style="fill:#98df8a;stroke:#ffffff;stroke-linejoin:miter;stroke-width:0.75;" x="394.046323" xlink:href="#m0b3bb4cb19" y="38.14653"/>
     <use style="fill:#98df8a;stroke:#ffffff;stroke-linejoin:miter;stroke-width:0.75;" x="394.896011" xlink:href="#m0b3bb4cb19" y="38.097419"/>
     <use style="fill:#98df8a;stroke:#ffffff;stroke-linejoin:miter;stroke-width:0.75;" x="395.735761" xlink:href="#m0b3bb4cb19" y="38.072864"/>
     <use style="fill:#98df8a;stroke:#ffffff;stroke-linejoin:miter;stroke-width:0.75;" x="396.565803" xlink:href="#m0b3bb4cb19" y="37.188873"/>
     <use style="fill:#98df8a;stroke:#ffffff;stroke-linejoin:miter;stroke-width:0.75;" x="397.386358" xlink:href="#m0b3bb4cb19" y="36.992431"/>
     <use style="fill:#98df8a;stroke:#ffffff;stroke-linejoin:miter;stroke-width:0.75;" x="398.197642" xlink:href="#m0b3bb4cb19" y="36.746878"/>
     <use style="fill:#98df8a;stroke:#ffffff;stroke-linejoin:miter;stroke-width:0.75;" x="398.99986" xlink:href="#m0b3bb4cb19" y="36.722323"/>
     <use style="fill:#98df8a;stroke:#ffffff;stroke-linejoin:miter;stroke-width:0.75;" x="399.793214" xlink:href="#m0b3bb4cb19" y="36.722323"/>
     <use style="fill:#98df8a;stroke:#ffffff;stroke-linejoin:miter;stroke-width:0.75;" x="400.577898" xlink:href="#m0b3bb4cb19" y="36.673212"/>
    </g>
   </g>
   <g id="line2d_30">
    <path clip-path="url(#p0398817fbc)" d="M 75.923352 195.324977 
L 125.689806 179.290369 
L 154.801316 166.177841 
L 175.45626 160.996674 
L 191.47748 150.511563 
L 204.567769 141.54888 
L 215.635452 138.896908 
L 225.222714 134.08407 
L 233.679279 131.432098 
L 241.243934 128.878347 
L 248.086996 121.60998 
L 254.334223 116.919918 
L 260.081115 111.566864 
L 265.401906 110.560097 
L 270.355443 109.234111 
L 274.989168 106.606694 
L 279.341883 106.140143 
L 283.445733 103.709169 
L 287.327641 102.751513 
L 291.010388 99.706656 
L 294.513415 95.704143 
L 297.85345 94.279936 
L 301.04499 93.174947 
L 304.100677 92.855729 
L 307.031607 91.3333 
L 309.847569 89.761761 
L 312.557242 86.397686 
L 315.168359 85.980246 
L 317.68784 83.966712 
L 320.121897 81.707624 
L 322.476135 80.136085 
L 324.755622 79.890532 
L 326.96496 77.361337 
L 329.108337 76.551012 
L 331.189579 75.175916 
L 333.212187 74.365591 
L 335.179373 73.186937 
L 337.094095 72.253836 
L 338.959078 70.878739 
L 340.776842 68.717873 
L 342.549717 68.398654 
L 344.279869 67.711106 
L 345.969307 66.557007 
L 347.619904 65.1328 
L 349.233406 63.266597 
L 350.811444 63.143821 
L 352.355542 62.579049 
L 353.867131 61.37584 
L 355.347551 60.221741 
L 356.798061 59.558748 
L 358.219847 58.699312 
L 359.614023 58.208206 
L 360.981642 57.741656 
L 362.323696 57.176884 
L 363.641124 56.41567 
L 364.934813 54.033806 
L 366.205604 52.069383 
L 367.454294 51.259058 
L 368.681636 48.901749 
L 369.888351 48.165091 
L 371.075119 47.870427 
L 372.242589 47.796761 
L 373.391378 47.428432 
L 374.522076 45.341232 
L 375.635243 44.481796 
L 376.731414 44.064356 
L 377.8111 43.917024 
L 378.874791 42.885702 
L 379.922953 42.861147 
L 380.956033 42.615594 
L 381.974459 42.468262 
L 382.978641 42.468262 
L 383.968971 42.394596 
L 384.945827 42.149043 
L 385.909571 41.952601 
L 386.860549 41.461495 
L 387.799096 41.363274 
L 388.725532 41.338718 
L 389.640166 41.314163 
L 390.543295 41.265052 
L 391.435205 40.773947 
L 392.316171 40.577504 
L 393.186458 40.577504 
L 394.046323 40.454728 
L 394.896011 39.718069 
L 395.735761 39.619848 
L 396.565803 39.300629 
L 397.386358 39.300629 
L 398.197642 39.276074 
L 398.99986 39.251518 
L 399.793214 39.177852 
L 400.577898 38.956855 
" style="fill:none;stroke:#1f77b4;stroke-linecap:square;stroke-width:1.5;"/>
    <defs>
     <path d="M 0 3 
C 0.795609 3 1.55874 2.683901 2.12132 2.12132 
C 2.683901 1.55874 3 0.795609 3 0 
C 3 -0.795609 2.683901 -1.55874 2.12132 -2.12132 
C 1.55874 -2.683901 0.795609 -3 0 -3 
C -0.795609 -3 -1.55874 -2.683901 -2.12132 -2.12132 
C -2.683901 -1.55874 -3 -0.795609 -3 0 
C -3 0.795609 -2.683901 1.55874 -2.12132 2.12132 
C -1.55874 2.683901 -0.795609 3 0 3 
z
" id="m0fb99ac32c" style="stroke:#ffffff;stroke-width:0.75;"/>
    </defs>
    <g clip-path="url(#p0398817fbc)">
     <use style="fill:#1f77b4;stroke:#ffffff;stroke-width:0.75;" x="75.923352" xlink:href="#m0fb99ac32c" y="195.324977"/>
     <use style="fill:#1f77b4;stroke:#ffffff;stroke-width:0.75;" x="125.689806" xlink:href="#m0fb99ac32c" y="179.290369"/>
     <use style="fill:#1f77b4;stroke:#ffffff;stroke-width:0.75;" x="154.801316" xlink:href="#m0fb99ac32c" y="166.177841"/>
     <use style="fill:#1f77b4;stroke:#ffffff;stroke-width:0.75;" x="175.45626" xlink:href="#m0fb99ac32c" y="160.996674"/>
     <use style="fill:#1f77b4;stroke:#ffffff;stroke-width:0.75;" x="191.47748" xlink:href="#m0fb99ac32c" y="150.511563"/>
     <use style="fill:#1f77b4;stroke:#ffffff;stroke-width:0.75;" x="204.567769" xlink:href="#m0fb99ac32c" y="141.54888"/>
     <use style="fill:#1f77b4;stroke:#ffffff;stroke-width:0.75;" x="215.635452" xlink:href="#m0fb99ac32c" y="138.896908"/>
     <use style="fill:#1f77b4;stroke:#ffffff;stroke-width:0.75;" x="225.222714" xlink:href="#m0fb99ac32c" y="134.08407"/>
     <use style="fill:#1f77b4;stroke:#ffffff;stroke-width:0.75;" x="233.679279" xlink:href="#m0fb99ac32c" y="131.432098"/>
     <use style="fill:#1f77b4;stroke:#ffffff;stroke-width:0.75;" x="241.243934" xlink:href="#m0fb99ac32c" y="128.878347"/>
     <use style="fill:#1f77b4;stroke:#ffffff;stroke-width:0.75;" x="248.086996" xlink:href="#m0fb99ac32c" y="121.60998"/>
     <use style="fill:#1f77b4;stroke:#ffffff;stroke-width:0.75;" x="254.334223" xlink:href="#m0fb99ac32c" y="116.919918"/>
     <use style="fill:#1f77b4;stroke:#ffffff;stroke-width:0.75;" x="260.081115" xlink:href="#m0fb99ac32c" y="111.566864"/>
     <use style="fill:#1f77b4;stroke:#ffffff;stroke-width:0.75;" x="265.401906" xlink:href="#m0fb99ac32c" y="110.560097"/>
     <use style="fill:#1f77b4;stroke:#ffffff;stroke-width:0.75;" x="270.355443" xlink:href="#m0fb99ac32c" y="109.234111"/>
     <use style="fill:#1f77b4;stroke:#ffffff;stroke-width:0.75;" x="274.989168" xlink:href="#m0fb99ac32c" y="106.606694"/>
     <use style="fill:#1f77b4;stroke:#ffffff;stroke-width:0.75;" x="279.341883" xlink:href="#m0fb99ac32c" y="106.140143"/>
     <use style="fill:#1f77b4;stroke:#ffffff;stroke-width:0.75;" x="283.445733" xlink:href="#m0fb99ac32c" y="103.709169"/>
     <use style="fill:#1f77b4;stroke:#ffffff;stroke-width:0.75;" x="287.327641" xlink:href="#m0fb99ac32c" y="102.751513"/>
     <use style="fill:#1f77b4;stroke:#ffffff;stroke-width:0.75;" x="291.010388" xlink:href="#m0fb99ac32c" y="99.706656"/>
     <use style="fill:#1f77b4;stroke:#ffffff;stroke-width:0.75;" x="294.513415" xlink:href="#m0fb99ac32c" y="95.704143"/>
     <use style="fill:#1f77b4;stroke:#ffffff;stroke-width:0.75;" x="297.85345" xlink:href="#m0fb99ac32c" y="94.279936"/>
     <use style="fill:#1f77b4;stroke:#ffffff;stroke-width:0.75;" x="301.04499" xlink:href="#m0fb99ac32c" y="93.174947"/>
     <use style="fill:#1f77b4;stroke:#ffffff;stroke-width:0.75;" x="304.100677" xlink:href="#m0fb99ac32c" y="92.855729"/>
     <use style="fill:#1f77b4;stroke:#ffffff;stroke-width:0.75;" x="307.031607" xlink:href="#m0fb99ac32c" y="91.3333"/>
     <use style="fill:#1f77b4;stroke:#ffffff;stroke-width:0.75;" x="309.847569" xlink:href="#m0fb99ac32c" y="89.761761"/>
     <use style="fill:#1f77b4;stroke:#ffffff;stroke-width:0.75;" x="312.557242" xlink:href="#m0fb99ac32c" y="86.397686"/>
     <use style="fill:#1f77b4;stroke:#ffffff;stroke-width:0.75;" x="315.168359" xlink:href="#m0fb99ac32c" y="85.980246"/>
     <use style="fill:#1f77b4;stroke:#ffffff;stroke-width:0.75;" x="317.68784" xlink:href="#m0fb99ac32c" y="83.966712"/>
     <use style="fill:#1f77b4;stroke:#ffffff;stroke-width:0.75;" x="320.121897" xlink:href="#m0fb99ac32c" y="81.707624"/>
     <use style="fill:#1f77b4;stroke:#ffffff;stroke-width:0.75;" x="322.476135" xlink:href="#m0fb99ac32c" y="80.136085"/>
     <use style="fill:#1f77b4;stroke:#ffffff;stroke-width:0.75;" x="324.755622" xlink:href="#m0fb99ac32c" y="79.890532"/>
     <use style="fill:#1f77b4;stroke:#ffffff;stroke-width:0.75;" x="326.96496" xlink:href="#m0fb99ac32c" y="77.361337"/>
     <use style="fill:#1f77b4;stroke:#ffffff;stroke-width:0.75;" x="329.108337" xlink:href="#m0fb99ac32c" y="76.551012"/>
     <use style="fill:#1f77b4;stroke:#ffffff;stroke-width:0.75;" x="331.189579" xlink:href="#m0fb99ac32c" y="75.175916"/>
     <use style="fill:#1f77b4;stroke:#ffffff;stroke-width:0.75;" x="333.212187" xlink:href="#m0fb99ac32c" y="74.365591"/>
     <use style="fill:#1f77b4;stroke:#ffffff;stroke-width:0.75;" x="335.179373" xlink:href="#m0fb99ac32c" y="73.186937"/>
     <use style="fill:#1f77b4;stroke:#ffffff;stroke-width:0.75;" x="337.094095" xlink:href="#m0fb99ac32c" y="72.253836"/>
     <use style="fill:#1f77b4;stroke:#ffffff;stroke-width:0.75;" x="338.959078" xlink:href="#m0fb99ac32c" y="70.878739"/>
     <use style="fill:#1f77b4;stroke:#ffffff;stroke-width:0.75;" x="340.776842" xlink:href="#m0fb99ac32c" y="68.717873"/>
     <use style="fill:#1f77b4;stroke:#ffffff;stroke-width:0.75;" x="342.549717" xlink:href="#m0fb99ac32c" y="68.398654"/>
     <use style="fill:#1f77b4;stroke:#ffffff;stroke-width:0.75;" x="344.279869" xlink:href="#m0fb99ac32c" y="67.711106"/>
     <use style="fill:#1f77b4;stroke:#ffffff;stroke-width:0.75;" x="345.969307" xlink:href="#m0fb99ac32c" y="66.557007"/>
     <use style="fill:#1f77b4;stroke:#ffffff;stroke-width:0.75;" x="347.619904" xlink:href="#m0fb99ac32c" y="65.1328"/>
     <use style="fill:#1f77b4;stroke:#ffffff;stroke-width:0.75;" x="349.233406" xlink:href="#m0fb99ac32c" y="63.266597"/>
     <use style="fill:#1f77b4;stroke:#ffffff;stroke-width:0.75;" x="350.811444" xlink:href="#m0fb99ac32c" y="63.143821"/>
     <use style="fill:#1f77b4;stroke:#ffffff;stroke-width:0.75;" x="352.355542" xlink:href="#m0fb99ac32c" y="62.579049"/>
     <use style="fill:#1f77b4;stroke:#ffffff;stroke-width:0.75;" x="353.867131" xlink:href="#m0fb99ac32c" y="61.37584"/>
     <use style="fill:#1f77b4;stroke:#ffffff;stroke-width:0.75;" x="355.347551" xlink:href="#m0fb99ac32c" y="60.221741"/>
     <use style="fill:#1f77b4;stroke:#ffffff;stroke-width:0.75;" x="356.798061" xlink:href="#m0fb99ac32c" y="59.558748"/>
     <use style="fill:#1f77b4;stroke:#ffffff;stroke-width:0.75;" x="358.219847" xlink:href="#m0fb99ac32c" y="58.699312"/>
     <use style="fill:#1f77b4;stroke:#ffffff;stroke-width:0.75;" x="359.614023" xlink:href="#m0fb99ac32c" y="58.208206"/>
     <use style="fill:#1f77b4;stroke:#ffffff;stroke-width:0.75;" x="360.981642" xlink:href="#m0fb99ac32c" y="57.741656"/>
     <use style="fill:#1f77b4;stroke:#ffffff;stroke-width:0.75;" x="362.323696" xlink:href="#m0fb99ac32c" y="57.176884"/>
     <use style="fill:#1f77b4;stroke:#ffffff;stroke-width:0.75;" x="363.641124" xlink:href="#m0fb99ac32c" y="56.41567"/>
     <use style="fill:#1f77b4;stroke:#ffffff;stroke-width:0.75;" x="364.934813" xlink:href="#m0fb99ac32c" y="54.033806"/>
     <use style="fill:#1f77b4;stroke:#ffffff;stroke-width:0.75;" x="366.205604" xlink:href="#m0fb99ac32c" y="52.069383"/>
     <use style="fill:#1f77b4;stroke:#ffffff;stroke-width:0.75;" x="367.454294" xlink:href="#m0fb99ac32c" y="51.259058"/>
     <use style="fill:#1f77b4;stroke:#ffffff;stroke-width:0.75;" x="368.681636" xlink:href="#m0fb99ac32c" y="48.901749"/>
     <use style="fill:#1f77b4;stroke:#ffffff;stroke-width:0.75;" x="369.888351" xlink:href="#m0fb99ac32c" y="48.165091"/>
     <use style="fill:#1f77b4;stroke:#ffffff;stroke-width:0.75;" x="371.075119" xlink:href="#m0fb99ac32c" y="47.870427"/>
     <use style="fill:#1f77b4;stroke:#ffffff;stroke-width:0.75;" x="372.242589" xlink:href="#m0fb99ac32c" y="47.796761"/>
     <use style="fill:#1f77b4;stroke:#ffffff;stroke-width:0.75;" x="373.391378" xlink:href="#m0fb99ac32c" y="47.428432"/>
     <use style="fill:#1f77b4;stroke:#ffffff;stroke-width:0.75;" x="374.522076" xlink:href="#m0fb99ac32c" y="45.341232"/>
     <use style="fill:#1f77b4;stroke:#ffffff;stroke-width:0.75;" x="375.635243" xlink:href="#m0fb99ac32c" y="44.481796"/>
     <use style="fill:#1f77b4;stroke:#ffffff;stroke-width:0.75;" x="376.731414" xlink:href="#m0fb99ac32c" y="44.064356"/>
     <use style="fill:#1f77b4;stroke:#ffffff;stroke-width:0.75;" x="377.8111" xlink:href="#m0fb99ac32c" y="43.917024"/>
     <use style="fill:#1f77b4;stroke:#ffffff;stroke-width:0.75;" x="378.874791" xlink:href="#m0fb99ac32c" y="42.885702"/>
     <use style="fill:#1f77b4;stroke:#ffffff;stroke-width:0.75;" x="379.922953" xlink:href="#m0fb99ac32c" y="42.861147"/>
     <use style="fill:#1f77b4;stroke:#ffffff;stroke-width:0.75;" x="380.956033" xlink:href="#m0fb99ac32c" y="42.615594"/>
     <use style="fill:#1f77b4;stroke:#ffffff;stroke-width:0.75;" x="381.974459" xlink:href="#m0fb99ac32c" y="42.468262"/>
     <use style="fill:#1f77b4;stroke:#ffffff;stroke-width:0.75;" x="382.978641" xlink:href="#m0fb99ac32c" y="42.468262"/>
     <use style="fill:#1f77b4;stroke:#ffffff;stroke-width:0.75;" x="383.968971" xlink:href="#m0fb99ac32c" y="42.394596"/>
     <use style="fill:#1f77b4;stroke:#ffffff;stroke-width:0.75;" x="384.945827" xlink:href="#m0fb99ac32c" y="42.149043"/>
     <use style="fill:#1f77b4;stroke:#ffffff;stroke-width:0.75;" x="385.909571" xlink:href="#m0fb99ac32c" y="41.952601"/>
     <use style="fill:#1f77b4;stroke:#ffffff;stroke-width:0.75;" x="386.860549" xlink:href="#m0fb99ac32c" y="41.461495"/>
     <use style="fill:#1f77b4;stroke:#ffffff;stroke-width:0.75;" x="387.799096" xlink:href="#m0fb99ac32c" y="41.363274"/>
     <use style="fill:#1f77b4;stroke:#ffffff;stroke-width:0.75;" x="388.725532" xlink:href="#m0fb99ac32c" y="41.338718"/>
     <use style="fill:#1f77b4;stroke:#ffffff;stroke-width:0.75;" x="389.640166" xlink:href="#m0fb99ac32c" y="41.314163"/>
     <use style="fill:#1f77b4;stroke:#ffffff;stroke-width:0.75;" x="390.543295" xlink:href="#m0fb99ac32c" y="41.265052"/>
     <use style="fill:#1f77b4;stroke:#ffffff;stroke-width:0.75;" x="391.435205" xlink:href="#m0fb99ac32c" y="40.773947"/>
     <use style="fill:#1f77b4;stroke:#ffffff;stroke-width:0.75;" x="392.316171" xlink:href="#m0fb99ac32c" y="40.577504"/>
     <use style="fill:#1f77b4;stroke:#ffffff;stroke-width:0.75;" x="393.186458" xlink:href="#m0fb99ac32c" y="40.577504"/>
     <use style="fill:#1f77b4;stroke:#ffffff;stroke-width:0.75;" x="394.046323" xlink:href="#m0fb99ac32c" y="40.454728"/>
     <use style="fill:#1f77b4;stroke:#ffffff;stroke-width:0.75;" x="394.896011" xlink:href="#m0fb99ac32c" y="39.718069"/>
     <use style="fill:#1f77b4;stroke:#ffffff;stroke-width:0.75;" x="395.735761" xlink:href="#m0fb99ac32c" y="39.619848"/>
     <use style="fill:#1f77b4;stroke:#ffffff;stroke-width:0.75;" x="396.565803" xlink:href="#m0fb99ac32c" y="39.300629"/>
     <use style="fill:#1f77b4;stroke:#ffffff;stroke-width:0.75;" x="397.386358" xlink:href="#m0fb99ac32c" y="39.300629"/>
     <use style="fill:#1f77b4;stroke:#ffffff;stroke-width:0.75;" x="398.197642" xlink:href="#m0fb99ac32c" y="39.276074"/>
     <use style="fill:#1f77b4;stroke:#ffffff;stroke-width:0.75;" x="398.99986" xlink:href="#m0fb99ac32c" y="39.251518"/>
     <use style="fill:#1f77b4;stroke:#ffffff;stroke-width:0.75;" x="399.793214" xlink:href="#m0fb99ac32c" y="39.177852"/>
     <use style="fill:#1f77b4;stroke:#ffffff;stroke-width:0.75;" x="400.577898" xlink:href="#m0fb99ac32c" y="38.956855"/>
    </g>
   </g>
   <g id="line2d_31">
    <path clip-path="url(#p0398817fbc)" d="M 75.923352 275.154243 
L 125.689806 242.667587 
L 154.801316 213.741449 
L 175.45626 205.908309 
L 191.47748 203.231782 
L 204.567769 196.012525 
L 215.635452 193.876215 
L 225.222714 192.034567 
L 233.679279 190.757692 
L 241.243934 189.112487 
L 248.086996 186.951621 
L 254.334223 185.920299 
L 260.081115 184.029541 
L 265.401906 183.022774 
L 270.355443 182.998219 
L 274.989168 181.549456 
L 279.341883 179.830586 
L 283.445733 179.314924 
L 287.327641 177.964383 
L 291.010388 176.859395 
L 294.513415 176.761174 
L 297.85345 175.63163 
L 301.04499 174.256533 
L 304.100677 173.446209 
L 307.031607 173.12699 
L 309.847569 172.586773 
L 312.557242 172.513107 
L 315.168359 171.285343 
L 317.68784 170.597794 
L 320.121897 169.812025 
L 322.476135 169.37003 
L 324.755622 168.829813 
L 326.96496 167.577493 
L 329.108337 167.160053 
L 331.189579 166.49706 
L 333.212187 165.735846 
L 335.179373 163.697756 
L 337.094095 162.690989 
L 338.959078 160.70201 
L 340.776842 159.572467 
L 342.549717 158.98314 
L 344.279869 157.534377 
L 345.969307 156.822274 
L 347.619904 155.741841 
L 349.233406 155.398066 
L 350.811444 155.201624 
L 352.355542 155.103403 
L 353.867131 154.735073 
L 355.347551 154.735073 
L 356.798061 154.735073 
L 358.219847 154.612297 
L 359.614023 154.563186 
L 360.981642 154.563186 
L 362.323696 154.538631 
L 363.641124 154.538631 
L 364.934813 154.514076 
L 366.205604 154.514076 
L 367.454294 154.48952 
L 368.681636 154.48952 
L 369.888351 154.48952 
L 371.075119 154.145746 
L 372.242589 154.145746 
L 373.391378 154.145746 
L 374.522076 154.02297 
L 375.635243 154.02297 
L 376.731414 154.02297 
L 377.8111 153.973859 
L 378.874791 153.851083 
L 379.922953 153.851083 
L 380.956033 153.851083 
L 381.974459 153.851083 
L 382.978641 153.335422 
L 383.968971 153.335422 
L 384.945827 153.286311 
L 385.909571 153.089869 
L 386.860549 153.040758 
L 387.799096 152.868871 
L 388.725532 152.623318 
L 389.640166 152.451431 
L 390.543295 152.451431 
L 391.435205 152.451431 
L 392.316171 152.40232 
L 393.186458 152.40232 
L 394.046323 152.377765 
L 394.896011 152.35321 
L 395.735761 152.35321 
L 396.565803 152.205878 
L 397.386358 152.205878 
L 398.197642 152.205878 
L 398.99986 152.205878 
L 399.793214 152.156767 
L 400.577898 152.156767 
" style="fill:none;stroke:#d62728;stroke-linecap:square;stroke-width:1.5;"/>
    <defs>
     <path d="M 0 -3 
L -3 3 
L 3 3 
z
" id="m9c684d78e1" style="stroke:#ffffff;stroke-linejoin:miter;stroke-width:0.75;"/>
    </defs>
    <g clip-path="url(#p0398817fbc)">
     <use style="fill:#d62728;stroke:#ffffff;stroke-linejoin:miter;stroke-width:0.75;" x="75.923352" xlink:href="#m9c684d78e1" y="275.154243"/>
     <use style="fill:#d62728;stroke:#ffffff;stroke-linejoin:miter;stroke-width:0.75;" x="125.689806" xlink:href="#m9c684d78e1" y="242.667587"/>
     <use style="fill:#d62728;stroke:#ffffff;stroke-linejoin:miter;stroke-width:0.75;" x="154.801316" xlink:href="#m9c684d78e1" y="213.741449"/>
     <use style="fill:#d62728;stroke:#ffffff;stroke-linejoin:miter;stroke-width:0.75;" x="175.45626" xlink:href="#m9c684d78e1" y="205.908309"/>
     <use style="fill:#d62728;stroke:#ffffff;stroke-linejoin:miter;stroke-width:0.75;" x="191.47748" xlink:href="#m9c684d78e1" y="203.231782"/>
     <use style="fill:#d62728;stroke:#ffffff;stroke-linejoin:miter;stroke-width:0.75;" x="204.567769" xlink:href="#m9c684d78e1" y="196.012525"/>
     <use style="fill:#d62728;stroke:#ffffff;stroke-linejoin:miter;stroke-width:0.75;" x="215.635452" xlink:href="#m9c684d78e1" y="193.876215"/>
     <use style="fill:#d62728;stroke:#ffffff;stroke-linejoin:miter;stroke-width:0.75;" x="225.222714" xlink:href="#m9c684d78e1" y="192.034567"/>
     <use style="fill:#d62728;stroke:#ffffff;stroke-linejoin:miter;stroke-width:0.75;" x="233.679279" xlink:href="#m9c684d78e1" y="190.757692"/>
     <use style="fill:#d62728;stroke:#ffffff;stroke-linejoin:miter;stroke-width:0.75;" x="241.243934" xlink:href="#m9c684d78e1" y="189.112487"/>
     <use style="fill:#d62728;stroke:#ffffff;stroke-linejoin:miter;stroke-width:0.75;" x="248.086996" xlink:href="#m9c684d78e1" y="186.951621"/>
     <use style="fill:#d62728;stroke:#ffffff;stroke-linejoin:miter;stroke-width:0.75;" x="254.334223" xlink:href="#m9c684d78e1" y="185.920299"/>
     <use style="fill:#d62728;stroke:#ffffff;stroke-linejoin:miter;stroke-width:0.75;" x="260.081115" xlink:href="#m9c684d78e1" y="184.029541"/>
     <use style="fill:#d62728;stroke:#ffffff;stroke-linejoin:miter;stroke-width:0.75;" x="265.401906" xlink:href="#m9c684d78e1" y="183.022774"/>
     <use style="fill:#d62728;stroke:#ffffff;stroke-linejoin:miter;stroke-width:0.75;" x="270.355443" xlink:href="#m9c684d78e1" y="182.998219"/>
     <use style="fill:#d62728;stroke:#ffffff;stroke-linejoin:miter;stroke-width:0.75;" x="274.989168" xlink:href="#m9c684d78e1" y="181.549456"/>
     <use style="fill:#d62728;stroke:#ffffff;stroke-linejoin:miter;stroke-width:0.75;" x="279.341883" xlink:href="#m9c684d78e1" y="179.830586"/>
     <use style="fill:#d62728;stroke:#ffffff;stroke-linejoin:miter;stroke-width:0.75;" x="283.445733" xlink:href="#m9c684d78e1" y="179.314924"/>
     <use style="fill:#d62728;stroke:#ffffff;stroke-linejoin:miter;stroke-width:0.75;" x="287.327641" xlink:href="#m9c684d78e1" y="177.964383"/>
     <use style="fill:#d62728;stroke:#ffffff;stroke-linejoin:miter;stroke-width:0.75;" x="291.010388" xlink:href="#m9c684d78e1" y="176.859395"/>
     <use style="fill:#d62728;stroke:#ffffff;stroke-linejoin:miter;stroke-width:0.75;" x="294.513415" xlink:href="#m9c684d78e1" y="176.761174"/>
     <use style="fill:#d62728;stroke:#ffffff;stroke-linejoin:miter;stroke-width:0.75;" x="297.85345" xlink:href="#m9c684d78e1" y="175.63163"/>
     <use style="fill:#d62728;stroke:#ffffff;stroke-linejoin:miter;stroke-width:0.75;" x="301.04499" xlink:href="#m9c684d78e1" y="174.256533"/>
     <use style="fill:#d62728;stroke:#ffffff;stroke-linejoin:miter;stroke-width:0.75;" x="304.100677" xlink:href="#m9c684d78e1" y="173.446209"/>
     <use style="fill:#d62728;stroke:#ffffff;stroke-linejoin:miter;stroke-width:0.75;" x="307.031607" xlink:href="#m9c684d78e1" y="173.12699"/>
     <use style="fill:#d62728;stroke:#ffffff;stroke-linejoin:miter;stroke-width:0.75;" x="309.847569" xlink:href="#m9c684d78e1" y="172.586773"/>
     <use style="fill:#d62728;stroke:#ffffff;stroke-linejoin:miter;stroke-width:0.75;" x="312.557242" xlink:href="#m9c684d78e1" y="172.513107"/>
     <use style="fill:#d62728;stroke:#ffffff;stroke-linejoin:miter;stroke-width:0.75;" x="315.168359" xlink:href="#m9c684d78e1" y="171.285343"/>
     <use style="fill:#d62728;stroke:#ffffff;stroke-linejoin:miter;stroke-width:0.75;" x="317.68784" xlink:href="#m9c684d78e1" y="170.597794"/>
     <use style="fill:#d62728;stroke:#ffffff;stroke-linejoin:miter;stroke-width:0.75;" x="320.121897" xlink:href="#m9c684d78e1" y="169.812025"/>
     <use style="fill:#d62728;stroke:#ffffff;stroke-linejoin:miter;stroke-width:0.75;" x="322.476135" xlink:href="#m9c684d78e1" y="169.37003"/>
     <use style="fill:#d62728;stroke:#ffffff;stroke-linejoin:miter;stroke-width:0.75;" x="324.755622" xlink:href="#m9c684d78e1" y="168.829813"/>
     <use style="fill:#d62728;stroke:#ffffff;stroke-linejoin:miter;stroke-width:0.75;" x="326.96496" xlink:href="#m9c684d78e1" y="167.577493"/>
     <use style="fill:#d62728;stroke:#ffffff;stroke-linejoin:miter;stroke-width:0.75;" x="329.108337" xlink:href="#m9c684d78e1" y="167.160053"/>
     <use style="fill:#d62728;stroke:#ffffff;stroke-linejoin:miter;stroke-width:0.75;" x="331.189579" xlink:href="#m9c684d78e1" y="166.49706"/>
     <use style="fill:#d62728;stroke:#ffffff;stroke-linejoin:miter;stroke-width:0.75;" x="333.212187" xlink:href="#m9c684d78e1" y="165.735846"/>
     <use style="fill:#d62728;stroke:#ffffff;stroke-linejoin:miter;stroke-width:0.75;" x="335.179373" xlink:href="#m9c684d78e1" y="163.697756"/>
     <use style="fill:#d62728;stroke:#ffffff;stroke-linejoin:miter;stroke-width:0.75;" x="337.094095" xlink:href="#m9c684d78e1" y="162.690989"/>
     <use style="fill:#d62728;stroke:#ffffff;stroke-linejoin:miter;stroke-width:0.75;" x="338.959078" xlink:href="#m9c684d78e1" y="160.70201"/>
     <use style="fill:#d62728;stroke:#ffffff;stroke-linejoin:miter;stroke-width:0.75;" x="340.776842" xlink:href="#m9c684d78e1" y="159.572467"/>
     <use style="fill:#d62728;stroke:#ffffff;stroke-linejoin:miter;stroke-width:0.75;" x="342.549717" xlink:href="#m9c684d78e1" y="158.98314"/>
     <use style="fill:#d62728;stroke:#ffffff;stroke-linejoin:miter;stroke-width:0.75;" x="344.279869" xlink:href="#m9c684d78e1" y="157.534377"/>
     <use style="fill:#d62728;stroke:#ffffff;stroke-linejoin:miter;stroke-width:0.75;" x="345.969307" xlink:href="#m9c684d78e1" y="156.822274"/>
     <use style="fill:#d62728;stroke:#ffffff;stroke-linejoin:miter;stroke-width:0.75;" x="347.619904" xlink:href="#m9c684d78e1" y="155.741841"/>
     <use style="fill:#d62728;stroke:#ffffff;stroke-linejoin:miter;stroke-width:0.75;" x="349.233406" xlink:href="#m9c684d78e1" y="155.398066"/>
     <use style="fill:#d62728;stroke:#ffffff;stroke-linejoin:miter;stroke-width:0.75;" x="350.811444" xlink:href="#m9c684d78e1" y="155.201624"/>
     <use style="fill:#d62728;stroke:#ffffff;stroke-linejoin:miter;stroke-width:0.75;" x="352.355542" xlink:href="#m9c684d78e1" y="155.103403"/>
     <use style="fill:#d62728;stroke:#ffffff;stroke-linejoin:miter;stroke-width:0.75;" x="353.867131" xlink:href="#m9c684d78e1" y="154.735073"/>
     <use style="fill:#d62728;stroke:#ffffff;stroke-linejoin:miter;stroke-width:0.75;" x="355.347551" xlink:href="#m9c684d78e1" y="154.735073"/>
     <use style="fill:#d62728;stroke:#ffffff;stroke-linejoin:miter;stroke-width:0.75;" x="356.798061" xlink:href="#m9c684d78e1" y="154.735073"/>
     <use style="fill:#d62728;stroke:#ffffff;stroke-linejoin:miter;stroke-width:0.75;" x="358.219847" xlink:href="#m9c684d78e1" y="154.612297"/>
     <use style="fill:#d62728;stroke:#ffffff;stroke-linejoin:miter;stroke-width:0.75;" x="359.614023" xlink:href="#m9c684d78e1" y="154.563186"/>
     <use style="fill:#d62728;stroke:#ffffff;stroke-linejoin:miter;stroke-width:0.75;" x="360.981642" xlink:href="#m9c684d78e1" y="154.563186"/>
     <use style="fill:#d62728;stroke:#ffffff;stroke-linejoin:miter;stroke-width:0.75;" x="362.323696" xlink:href="#m9c684d78e1" y="154.538631"/>
     <use style="fill:#d62728;stroke:#ffffff;stroke-linejoin:miter;stroke-width:0.75;" x="363.641124" xlink:href="#m9c684d78e1" y="154.538631"/>
     <use style="fill:#d62728;stroke:#ffffff;stroke-linejoin:miter;stroke-width:0.75;" x="364.934813" xlink:href="#m9c684d78e1" y="154.514076"/>
     <use style="fill:#d62728;stroke:#ffffff;stroke-linejoin:miter;stroke-width:0.75;" x="366.205604" xlink:href="#m9c684d78e1" y="154.514076"/>
     <use style="fill:#d62728;stroke:#ffffff;stroke-linejoin:miter;stroke-width:0.75;" x="367.454294" xlink:href="#m9c684d78e1" y="154.48952"/>
     <use style="fill:#d62728;stroke:#ffffff;stroke-linejoin:miter;stroke-width:0.75;" x="368.681636" xlink:href="#m9c684d78e1" y="154.48952"/>
     <use style="fill:#d62728;stroke:#ffffff;stroke-linejoin:miter;stroke-width:0.75;" x="369.888351" xlink:href="#m9c684d78e1" y="154.48952"/>
     <use style="fill:#d62728;stroke:#ffffff;stroke-linejoin:miter;stroke-width:0.75;" x="371.075119" xlink:href="#m9c684d78e1" y="154.145746"/>
     <use style="fill:#d62728;stroke:#ffffff;stroke-linejoin:miter;stroke-width:0.75;" x="372.242589" xlink:href="#m9c684d78e1" y="154.145746"/>
     <use style="fill:#d62728;stroke:#ffffff;stroke-linejoin:miter;stroke-width:0.75;" x="373.391378" xlink:href="#m9c684d78e1" y="154.145746"/>
     <use style="fill:#d62728;stroke:#ffffff;stroke-linejoin:miter;stroke-width:0.75;" x="374.522076" xlink:href="#m9c684d78e1" y="154.02297"/>
     <use style="fill:#d62728;stroke:#ffffff;stroke-linejoin:miter;stroke-width:0.75;" x="375.635243" xlink:href="#m9c684d78e1" y="154.02297"/>
     <use style="fill:#d62728;stroke:#ffffff;stroke-linejoin:miter;stroke-width:0.75;" x="376.731414" xlink:href="#m9c684d78e1" y="154.02297"/>
     <use style="fill:#d62728;stroke:#ffffff;stroke-linejoin:miter;stroke-width:0.75;" x="377.8111" xlink:href="#m9c684d78e1" y="153.973859"/>
     <use style="fill:#d62728;stroke:#ffffff;stroke-linejoin:miter;stroke-width:0.75;" x="378.874791" xlink:href="#m9c684d78e1" y="153.851083"/>
     <use style="fill:#d62728;stroke:#ffffff;stroke-linejoin:miter;stroke-width:0.75;" x="379.922953" xlink:href="#m9c684d78e1" y="153.851083"/>
     <use style="fill:#d62728;stroke:#ffffff;stroke-linejoin:miter;stroke-width:0.75;" x="380.956033" xlink:href="#m9c684d78e1" y="153.851083"/>
     <use style="fill:#d62728;stroke:#ffffff;stroke-linejoin:miter;stroke-width:0.75;" x="381.974459" xlink:href="#m9c684d78e1" y="153.851083"/>
     <use style="fill:#d62728;stroke:#ffffff;stroke-linejoin:miter;stroke-width:0.75;" x="382.978641" xlink:href="#m9c684d78e1" y="153.335422"/>
     <use style="fill:#d62728;stroke:#ffffff;stroke-linejoin:miter;stroke-width:0.75;" x="383.968971" xlink:href="#m9c684d78e1" y="153.335422"/>
     <use style="fill:#d62728;stroke:#ffffff;stroke-linejoin:miter;stroke-width:0.75;" x="384.945827" xlink:href="#m9c684d78e1" y="153.286311"/>
     <use style="fill:#d62728;stroke:#ffffff;stroke-linejoin:miter;stroke-width:0.75;" x="385.909571" xlink:href="#m9c684d78e1" y="153.089869"/>
     <use style="fill:#d62728;stroke:#ffffff;stroke-linejoin:miter;stroke-width:0.75;" x="386.860549" xlink:href="#m9c684d78e1" y="153.040758"/>
     <use style="fill:#d62728;stroke:#ffffff;stroke-linejoin:miter;stroke-width:0.75;" x="387.799096" xlink:href="#m9c684d78e1" y="152.868871"/>
     <use style="fill:#d62728;stroke:#ffffff;stroke-linejoin:miter;stroke-width:0.75;" x="388.725532" xlink:href="#m9c684d78e1" y="152.623318"/>
     <use style="fill:#d62728;stroke:#ffffff;stroke-linejoin:miter;stroke-width:0.75;" x="389.640166" xlink:href="#m9c684d78e1" y="152.451431"/>
     <use style="fill:#d62728;stroke:#ffffff;stroke-linejoin:miter;stroke-width:0.75;" x="390.543295" xlink:href="#m9c684d78e1" y="152.451431"/>
     <use style="fill:#d62728;stroke:#ffffff;stroke-linejoin:miter;stroke-width:0.75;" x="391.435205" xlink:href="#m9c684d78e1" y="152.451431"/>
     <use style="fill:#d62728;stroke:#ffffff;stroke-linejoin:miter;stroke-width:0.75;" x="392.316171" xlink:href="#m9c684d78e1" y="152.40232"/>
     <use style="fill:#d62728;stroke:#ffffff;stroke-linejoin:miter;stroke-width:0.75;" x="393.186458" xlink:href="#m9c684d78e1" y="152.40232"/>
     <use style="fill:#d62728;stroke:#ffffff;stroke-linejoin:miter;stroke-width:0.75;" x="394.046323" xlink:href="#m9c684d78e1" y="152.377765"/>
     <use style="fill:#d62728;stroke:#ffffff;stroke-linejoin:miter;stroke-width:0.75;" x="394.896011" xlink:href="#m9c684d78e1" y="152.35321"/>
     <use style="fill:#d62728;stroke:#ffffff;stroke-linejoin:miter;stroke-width:0.75;" x="395.735761" xlink:href="#m9c684d78e1" y="152.35321"/>
     <use style="fill:#d62728;stroke:#ffffff;stroke-linejoin:miter;stroke-width:0.75;" x="396.565803" xlink:href="#m9c684d78e1" y="152.205878"/>
     <use style="fill:#d62728;stroke:#ffffff;stroke-linejoin:miter;stroke-width:0.75;" x="397.386358" xlink:href="#m9c684d78e1" y="152.205878"/>
     <use style="fill:#d62728;stroke:#ffffff;stroke-linejoin:miter;stroke-width:0.75;" x="398.197642" xlink:href="#m9c684d78e1" y="152.205878"/>
     <use style="fill:#d62728;stroke:#ffffff;stroke-linejoin:miter;stroke-width:0.75;" x="398.99986" xlink:href="#m9c684d78e1" y="152.205878"/>
     <use style="fill:#d62728;stroke:#ffffff;stroke-linejoin:miter;stroke-width:0.75;" x="399.793214" xlink:href="#m9c684d78e1" y="152.156767"/>
     <use style="fill:#d62728;stroke:#ffffff;stroke-linejoin:miter;stroke-width:0.75;" x="400.577898" xlink:href="#m9c684d78e1" y="152.156767"/>
    </g>
   </g>
   <g id="line2d_32"/>
   <g id="line2d_33"/>
   <g id="line2d_34"/>
   <g id="patch_3">
    <path d="M 59.690625 245.196782 
L 59.690625 48.754418 
" style="fill:none;stroke:#000000;stroke-linecap:square;stroke-linejoin:miter;stroke-width:0.8;"/>
   </g>
   <g id="patch_4">
    <path d="M 75.923352 288.430125 
L 400.578765 288.430125 
" style="fill:none;stroke:#000000;stroke-linecap:square;stroke-linejoin:miter;stroke-width:0.8;"/>
   </g>
   <g id="text_14">
    <!-- poppler_pdf_fuzzer (23h, 20 trials/fuzzer) -->
    <g transform="translate(114.495938 16.318125)scale(0.12 -0.12)">
     <defs>
      <path d="M 1159 525 
L 1159 -1331 
L 581 -1331 
L 581 3500 
L 1159 3500 
L 1159 2969 
Q 1341 3281 1617 3432 
Q 1894 3584 2278 3584 
Q 2916 3584 3314 3078 
Q 3713 2572 3713 1747 
Q 3713 922 3314 415 
Q 2916 -91 2278 -91 
Q 1894 -91 1617 61 
Q 1341 213 1159 525 
z
M 3116 1747 
Q 3116 2381 2855 2742 
Q 2594 3103 2138 3103 
Q 1681 3103 1420 2742 
Q 1159 2381 1159 1747 
Q 1159 1113 1420 752 
Q 1681 391 2138 391 
Q 2594 391 2855 752 
Q 3116 1113 3116 1747 
z
" id="DejaVuSans-70" transform="scale(0.015625)"/>
      <path d="M 603 4863 
L 1178 4863 
L 1178 0 
L 603 0 
L 603 4863 
z
" id="DejaVuSans-6c" transform="scale(0.015625)"/>
      <path d="M 3263 -1063 
L 3263 -1509 
L -63 -1509 
L -63 -1063 
L 3263 -1063 
z
" id="DejaVuSans-5f" transform="scale(0.015625)"/>
      <path d="M 2375 4863 
L 2375 4384 
L 1825 4384 
Q 1516 4384 1395 4259 
Q 1275 4134 1275 3809 
L 1275 3500 
L 2222 3500 
L 2222 3053 
L 1275 3053 
L 1275 0 
L 697 0 
L 697 3053 
L 147 3053 
L 147 3500 
L 697 3500 
L 697 3744 
Q 697 4328 969 4595 
Q 1241 4863 1831 4863 
L 2375 4863 
z
" id="DejaVuSans-66" transform="scale(0.015625)"/>
      <path d="M 353 3500 
L 3084 3500 
L 3084 2975 
L 922 459 
L 3084 459 
L 3084 0 
L 275 0 
L 275 525 
L 2438 3041 
L 353 3041 
L 353 3500 
z
" id="DejaVuSans-7a" transform="scale(0.015625)"/>
      <path d="M 750 794 
L 1409 794 
L 1409 256 
L 897 -744 
L 494 -744 
L 750 256 
L 750 794 
z
" id="DejaVuSans-2c" transform="scale(0.015625)"/>
      <path d="M 2834 3397 
L 2834 2853 
Q 2591 2978 2328 3040 
Q 2066 3103 1784 3103 
Q 1356 3103 1142 2972 
Q 928 2841 928 2578 
Q 928 2378 1081 2264 
Q 1234 2150 1697 2047 
L 1894 2003 
Q 2506 1872 2764 1633 
Q 3022 1394 3022 966 
Q 3022 478 2636 193 
Q 2250 -91 1575 -91 
Q 1294 -91 989 -36 
Q 684 19 347 128 
L 347 722 
Q 666 556 975 473 
Q 1284 391 1588 391 
Q 1994 391 2212 530 
Q 2431 669 2431 922 
Q 2431 1156 2273 1281 
Q 2116 1406 1581 1522 
L 1381 1569 
Q 847 1681 609 1914 
Q 372 2147 372 2553 
Q 372 3047 722 3315 
Q 1072 3584 1716 3584 
Q 2034 3584 2315 3537 
Q 2597 3491 2834 3397 
z
" id="DejaVuSans-73" transform="scale(0.015625)"/>
      <path d="M 1625 4666 
L 2156 4666 
L 531 -594 
L 0 -594 
L 1625 4666 
z
" id="DejaVuSans-2f" transform="scale(0.015625)"/>
     </defs>
     <use xlink:href="#DejaVuSans-70"/>
     <use x="63.476562" xlink:href="#DejaVuSans-6f"/>
     <use x="124.658203" xlink:href="#DejaVuSans-70"/>
     <use x="188.134766" xlink:href="#DejaVuSans-70"/>
     <use x="251.611328" xlink:href="#DejaVuSans-6c"/>
     <use x="279.394531" xlink:href="#DejaVuSans-65"/>
     <use x="340.917969" xlink:href="#DejaVuSans-72"/>
     <use x="382.03125" xlink:href="#DejaVuSans-5f"/>
     <use x="432.03125" xlink:href="#DejaVuSans-70"/>
     <use x="495.507812" xlink:href="#DejaVuSans-64"/>
     <use x="558.984375" xlink:href="#DejaVuSans-66"/>
     <use x="594.189453" xlink:href="#DejaVuSans-5f"/>
     <use x="644.189453" xlink:href="#DejaVuSans-66"/>
     <use x="679.394531" xlink:href="#DejaVuSans-75"/>
     <use x="742.773438" xlink:href="#DejaVuSans-7a"/>
     <use x="795.263672" xlink:href="#DejaVuSans-7a"/>
     <use x="847.753906" xlink:href="#DejaVuSans-65"/>
     <use x="909.277344" xlink:href="#DejaVuSans-72"/>
     <use x="950.390625" xlink:href="#DejaVuSans-20"/>
     <use x="982.177734" xlink:href="#DejaVuSans-28"/>
     <use x="1021.191406" xlink:href="#DejaVuSans-32"/>
     <use x="1084.814453" xlink:href="#DejaVuSans-33"/>
     <use x="1148.4375" xlink:href="#DejaVuSans-68"/>
     <use x="1211.816406" xlink:href="#DejaVuSans-2c"/>
     <use x="1243.603516" xlink:href="#DejaVuSans-20"/>
     <use x="1275.390625" xlink:href="#DejaVuSans-32"/>
     <use x="1339.013672" xlink:href="#DejaVuSans-30"/>
     <use x="1402.636719" xlink:href="#DejaVuSans-20"/>
     <use x="1434.423828" xlink:href="#DejaVuSans-74"/>
     <use x="1473.632812" xlink:href="#DejaVuSans-72"/>
     <use x="1514.746094" xlink:href="#DejaVuSans-69"/>
     <use x="1542.529297" xlink:href="#DejaVuSans-61"/>
     <use x="1603.808594" xlink:href="#DejaVuSans-6c"/>
     <use x="1631.591797" xlink:href="#DejaVuSans-73"/>
     <use x="1683.691406" xlink:href="#DejaVuSans-2f"/>
     <use x="1717.382812" xlink:href="#DejaVuSans-66"/>
     <use x="1752.587891" xlink:href="#DejaVuSans-75"/>
     <use x="1815.966797" xlink:href="#DejaVuSans-7a"/>
     <use x="1868.457031" xlink:href="#DejaVuSans-7a"/>
     <use x="1920.947266" xlink:href="#DejaVuSans-65"/>
     <use x="1982.470703" xlink:href="#DejaVuSans-72"/>
     <use x="2023.583984" xlink:href="#DejaVuSans-29"/>
    </g>
   </g>
   <g id="legend_1">
    <g id="line2d_35">
     <path d="M 420.810625 30.416562 
L 440.810625 30.416562 
" style="fill:none;stroke:#98df8a;stroke-linecap:square;stroke-width:1.5;"/>
    </g>
    <g id="line2d_36">
     <defs>
      <path d="M -0 3 
L 3 -3 
L -3 -3 
z
" id="mcdb561c6ef" style="stroke:#98df8a;stroke-linejoin:miter;"/>
     </defs>
     <g>
      <use style="fill:#98df8a;stroke:#98df8a;stroke-linejoin:miter;" x="430.810625" xlink:href="#mcdb561c6ef" y="30.416562"/>
     </g>
    </g>
    <g id="text_15">
     <!-- afl_fitness -->
     <g transform="translate(448.810625 33.916562)scale(0.1 -0.1)">
      <use xlink:href="#DejaVuSans-61"/>
      <use x="61.279297" xlink:href="#DejaVuSans-66"/>
      <use x="96.484375" xlink:href="#DejaVuSans-6c"/>
      <use x="124.267578" xlink:href="#DejaVuSans-5f"/>
      <use x="174.267578" xlink:href="#DejaVuSans-66"/>
      <use x="209.472656" xlink:href="#DejaVuSans-69"/>
      <use x="237.255859" xlink:href="#DejaVuSans-74"/>
      <use x="276.464844" xlink:href="#DejaVuSans-6e"/>
      <use x="339.84375" xlink:href="#DejaVuSans-65"/>
      <use x="401.367188" xlink:href="#DejaVuSans-73"/>
      <use x="453.466797" xlink:href="#DejaVuSans-73"/>
     </g>
    </g>
    <g id="line2d_37">
     <path d="M 420.810625 45.372813 
L 440.810625 45.372813 
" style="fill:none;stroke:#1f77b4;stroke-linecap:square;stroke-width:1.5;"/>
    </g>
    <g id="line2d_38">
     <defs>
      <path d="M 0 3 
C 0.795609 3 1.55874 2.683901 2.12132 2.12132 
C 2.683901 1.55874 3 0.795609 3 0 
C 3 -0.795609 2.683901 -1.55874 2.12132 -2.12132 
C 1.55874 -2.683901 0.795609 -3 0 -3 
C -0.795609 -3 -1.55874 -2.683901 -2.12132 -2.12132 
C -2.683901 -1.55874 -3 -0.795609 -3 0 
C -3 0.795609 -2.683901 1.55874 -2.12132 2.12132 
C -1.55874 2.683901 -0.795609 3 0 3 
z
" id="m218dae850f" style="stroke:#1f77b4;"/>
     </defs>
     <g>
      <use style="fill:#1f77b4;stroke:#1f77b4;" x="430.810625" xlink:href="#m218dae850f" y="45.372813"/>
     </g>
    </g>
    <g id="text_16">
     <!-- afl -->
     <g transform="translate(448.810625 48.872813)scale(0.1 -0.1)">
      <use xlink:href="#DejaVuSans-61"/>
      <use x="61.279297" xlink:href="#DejaVuSans-66"/>
      <use x="96.484375" xlink:href="#DejaVuSans-6c"/>
     </g>
    </g>
    <g id="line2d_39">
     <path d="M 420.810625 60.050937 
L 440.810625 60.050937 
" style="fill:none;stroke:#d62728;stroke-linecap:square;stroke-width:1.5;"/>
    </g>
    <g id="line2d_40">
     <defs>
      <path d="M 0 -3 
L -3 3 
L 3 3 
z
" id="m0d462f2268" style="stroke:#d62728;stroke-linejoin:miter;"/>
     </defs>
     <g>
      <use style="fill:#d62728;stroke:#d62728;stroke-linejoin:miter;" x="430.810625" xlink:href="#m0d462f2268" y="60.050937"/>
     </g>
    </g>
    <g id="text_17">
     <!-- afl_fitness_only -->
     <g transform="translate(448.810625 63.550937)scale(0.1 -0.1)">
      <defs>
       <path d="M 2059 -325 
Q 1816 -950 1584 -1140 
Q 1353 -1331 966 -1331 
L 506 -1331 
L 506 -850 
L 844 -850 
Q 1081 -850 1212 -737 
Q 1344 -625 1503 -206 
L 1606 56 
L 191 3500 
L 800 3500 
L 1894 763 
L 2988 3500 
L 3597 3500 
L 2059 -325 
z
" id="DejaVuSans-79" transform="scale(0.015625)"/>
      </defs>
      <use xlink:href="#DejaVuSans-61"/>
      <use x="61.279297" xlink:href="#DejaVuSans-66"/>
      <use x="96.484375" xlink:href="#DejaVuSans-6c"/>
      <use x="124.267578" xlink:href="#DejaVuSans-5f"/>
      <use x="174.267578" xlink:href="#DejaVuSans-66"/>
      <use x="209.472656" xlink:href="#DejaVuSans-69"/>
      <use x="237.255859" xlink:href="#DejaVuSans-74"/>
      <use x="276.464844" xlink:href="#DejaVuSans-6e"/>
      <use x="339.84375" xlink:href="#DejaVuSans-65"/>
      <use x="401.367188" xlink:href="#DejaVuSans-73"/>
      <use x="453.466797" xlink:href="#DejaVuSans-73"/>
      <use x="505.566406" xlink:href="#DejaVuSans-5f"/>
      <use x="555.566406" xlink:href="#DejaVuSans-6f"/>
      <use x="616.748047" xlink:href="#DejaVuSans-6e"/>
      <use x="680.126953" xlink:href="#DejaVuSans-6c"/>
      <use x="707.910156" xlink:href="#DejaVuSans-79"/>
     </g>
    </g>
   </g>
  </g>
 </g>
 <defs>
  <clipPath id="p0398817fbc">
   <rect height="266.112" width="357.12" x="59.690625" y="22.318125"/>
  </clipPath>
 </defs>
</svg>
