<?xml version="1.0" encoding="utf-8" standalone="no"?>
<!DOCTYPE svg PUBLIC "-//W3C//DTD SVG 1.1//EN"
  "http://www.w3.org/Graphics/SVG/1.1/DTD/svg11.dtd">
<svg height="325.986375pt" version="1.1" viewBox="0 0 536.718438 325.986375" width="536.718438pt" xmlns="http://www.w3.org/2000/svg" xmlns:xlink="http://www.w3.org/1999/xlink">
 <metadata>
  <rdf:RDF xmlns:cc="http://creativecommons.org/ns#" xmlns:dc="http://purl.org/dc/elements/1.1/" xmlns:rdf="http://www.w3.org/1999/02/22-rdf-syntax-ns#">
   <cc:Work>
    <dc:type rdf:resource="http://purl.org/dc/dcmitype/StillImage"/>
    <dc:date>2022-06-02T16:42:41.071717</dc:date>
    <dc:format>image/svg+xml</dc:format>
    <dc:creator>
     <cc:Agent>
      <dc:title>Matplotlib v3.4.3, https://matplotlib.org/</dc:title>
     </cc:Agent>
    </dc:creator>
   </cc:Work>
  </rdf:RDF>
 </metadata>
 <defs>
  <style type="text/css">*{stroke-linecap:butt;stroke-linejoin:round;}</style>
 </defs>
 <g id="figure_1">
  <g id="patch_1">
   <path d="M 0 325.986375 
L 536.718438 325.986375 
L 536.718438 0 
L 0 0 
z
" style="fill:#ffffff;"/>
  </g>
  <g id="axes_1">
   <g id="patch_2">
    <path d="M 59.690625 288.430125 
L 416.810625 288.430125 
L 416.810625 22.318125 
L 59.690625 22.318125 
z
" style="fill:#ffffff;"/>
   </g>
   <g id="PolyCollection_1">
    <defs>
     <path d="M 75.923352 -125.473204 
L 75.923352 -55.961712 
L 79.490985 -136.069786 
L 83.058617 -144.19598 
L 86.626249 -149.277921 
L 90.193882 -155.170026 
L 93.761514 -166.561428 
L 97.329146 -171.71702 
L 100.896779 -174.294815 
L 104.464411 -175.767842 
L 108.032044 -181.046185 
L 111.599676 -189.73704 
L 115.167308 -197.690154 
L 118.734941 -202.355964 
L 122.302573 -204.172697 
L 125.870205 -209.131885 
L 129.437838 -211.12047 
L 133.00547 -212.274341 
L 136.573103 -212.986303 
L 140.140735 -214.041972 
L 143.708367 -215.416796 
L 147.276 -218.289197 
L 150.843632 -220.717236 
L 154.411264 -223.272936 
L 157.978897 -224.942366 
L 161.546529 -227.372859 
L 165.114161 -227.790216 
L 168.681794 -230.22071 
L 172.249426 -231.570984 
L 175.817059 -234.909843 
L 179.384691 -236.775676 
L 182.952323 -236.898428 
L 186.519956 -238.887014 
L 190.087588 -239.034316 
L 193.65522 -242.057089 
L 197.222853 -242.470763 
L 200.790485 -243.232441 
L 204.358118 -244.828219 
L 207.92575 -247.479666 
L 211.493382 -249.689206 
L 215.061015 -250.376618 
L 218.628647 -252.708909 
L 222.196279 -253.224468 
L 225.763912 -254.550192 
L 229.331544 -256.465126 
L 232.899176 -256.563328 
L 236.466809 -258.060904 
L 240.034441 -259.386628 
L 243.602074 -260.123141 
L 247.169706 -261.154259 
L 250.737338 -261.645268 
L 254.304971 -262.89734 
L 257.872603 -264.394917 
L 261.440235 -264.885926 
L 265.007868 -266.82541 
L 268.5755 -266.972713 
L 272.143132 -267.561923 
L 275.710765 -270.287022 
L 279.278397 -269.231353 
L 282.84603 -272.594763 
L 286.413662 -272.938469 
L 289.981294 -274.018688 
L 293.548927 -277.701253 
L 297.116559 -278.779018 
L 300.684191 -279.149729 
L 304.251824 -279.17428 
L 307.819456 -279.493435 
L 311.387089 -279.788041 
L 314.954721 -280.107196 
L 318.522353 -280.524554 
L 322.089986 -280.549104 
L 325.657618 -280.573655 
L 329.22525 -282.316735 
L 332.792883 -282.611341 
L 336.360515 -282.905946 
L 339.928147 -282.734093 
L 343.49578 -283.249652 
L 347.063412 -283.519707 
L 350.631045 -283.446056 
L 354.198677 -283.740661 
L 357.766309 -283.814312 
L 361.333942 -284.378972 
L 364.901574 -284.378972 
L 368.469206 -284.649027 
L 372.036839 -284.943632 
L 375.604471 -285.041834 
L 379.172104 -285.213687 
L 382.739736 -285.213687 
L 386.307368 -285.483742 
L 389.875001 -285.483742 
L 393.442633 -285.629817 
L 397.010265 -285.631044 
L 400.577898 -285.629817 
L 400.577898 -291.57225 
L 400.577898 -291.57225 
L 397.010265 -291.498599 
L 393.442633 -291.207062 
L 389.875001 -291.179443 
L 386.307368 -291.03214 
L 382.739736 -290.98304 
L 379.172104 -290.418379 
L 375.604471 -290.418379 
L 372.036839 -290.418379 
L 368.469206 -290.418379 
L 364.901574 -290.497555 
L 361.333942 -290.320178 
L 357.766309 -290.320178 
L 354.198677 -290.320178 
L 350.631045 -290.221976 
L 347.063412 -289.734036 
L 343.49578 -289.559114 
L 339.928147 -288.995682 
L 336.360515 -288.7735 
L 332.792883 -288.527996 
L 329.22525 -288.18429 
L 325.657618 -288.086088 
L 322.089986 -287.840584 
L 318.522353 -287.791483 
L 314.954721 -287.545978 
L 311.387089 -287.521428 
L 307.819456 -286.883117 
L 304.251824 -286.886185 
L 300.684191 -286.735814 
L 297.116559 -286.392108 
L 293.548927 -285.901099 
L 289.981294 -285.238237 
L 286.413662 -284.943632 
L 282.84603 -284.378972 
L 279.278397 -283.298753 
L 275.710765 -282.02213 
L 272.143132 -280.89281 
L 268.5755 -279.74385 
L 265.007868 -278.855124 
L 261.440235 -278.04496 
L 257.872603 -276.547383 
L 254.304971 -275.933622 
L 250.737338 -275.319861 
L 247.169706 -274.337844 
L 243.602074 -272.815717 
L 240.034441 -270.77803 
L 236.466809 -269.992416 
L 232.899176 -269.918765 
L 229.331544 -269.550509 
L 225.763912 -265.499687 
L 222.196279 -264.032184 
L 218.628647 -262.823689 
L 215.061015 -262.578185 
L 211.493382 -262.33268 
L 207.92575 -261.326112 
L 204.358118 -258.527363 
L 200.790485 -256.857933 
L 197.222853 -254.746595 
L 193.65522 -253.494523 
L 190.087588 -251.972396 
L 186.519956 -251.579589 
L 182.952323 -250.965828 
L 179.384691 -247.455116 
L 175.817059 -245.736585 
L 172.249426 -244.680917 
L 168.681794 -243.551596 
L 165.114161 -242.839634 
L 161.546529 -242.520478 
L 157.978897 -239.279821 
L 154.411264 -238.12595 
L 150.843632 -233.755972 
L 147.276 -232.724854 
L 143.708367 -231.202727 
L 140.140735 -226.587245 
L 136.573103 -226.422757 
L 133.00547 -223.837596 
L 129.437838 -223.125633 
L 125.870205 -220.621489 
L 122.302573 -217.822739 
L 118.734941 -214.595584 
L 115.167308 -209.819297 
L 111.599676 -206.824144 
L 108.032044 -205.921915 
L 104.464411 -202.920624 
L 100.896779 -199.262609 
L 97.329146 -197.61773 
L 93.761514 -189.270582 
L 90.193882 -185.686218 
L 86.626249 -179.425857 
L 83.058617 -166.880584 
L 79.490985 -154.408962 
L 75.923352 -125.473204 
z
" id="m1fe8910372" style="stroke:#98df8a;stroke-opacity:0.2;"/>
    </defs>
    <g clip-path="url(#p0008057d10)">
     <use style="fill:#98df8a;fill-opacity:0.2;stroke:#98df8a;stroke-opacity:0.2;" x="0" xlink:href="#m1fe8910372" y="325.986375"/>
    </g>
   </g>
   <g id="PolyCollection_2">
    <defs>
     <path d="M 75.923352 -138.232679 
L 75.923352 -119.571893 
L 79.490985 -132.982569 
L 83.058617 -145.50636 
L 86.626249 -153.672449 
L 90.193882 -169.065573 
L 93.761514 -177.707326 
L 97.329146 -182.112902 
L 100.896779 -185.170659 
L 104.464411 -187.748455 
L 108.032044 -190.32625 
L 111.599676 -198.591769 
L 115.167308 -203.387083 
L 118.734941 -207.143299 
L 122.302573 -208.935481 
L 125.870205 -211.243222 
L 129.437838 -213.133606 
L 133.00547 -215.217938 
L 136.573103 -217.47535 
L 140.140735 -218.780206 
L 143.708367 -220.523287 
L 147.276 -222.020864 
L 150.843632 -222.95378 
L 154.411264 -225.114219 
L 157.978897 -226.341741 
L 161.546529 -228.035721 
L 165.114161 -229.606949 
L 168.681794 -232.037442 
L 172.249426 -233.761496 
L 175.817059 -234.369733 
L 179.384691 -234.76254 
L 182.952323 -236.063713 
L 186.519956 -237.413987 
L 190.087588 -241.096553 
L 193.65522 -242.64323 
L 197.222853 -244.31266 
L 200.790485 -244.558164 
L 204.358118 -245.589283 
L 207.92575 -247.651519 
L 211.493382 -249.475003 
L 215.061015 -250.818526 
L 218.628647 -251.334085 
L 222.196279 -251.65324 
L 225.763912 -252.954414 
L 229.331544 -256.12142 
L 232.899176 -256.746228 
L 236.466809 -256.675032 
L 240.034441 -259.190224 
L 243.602074 -258.96927 
L 247.169706 -260.6387 
L 250.737338 -261.522516 
L 254.304971 -263.241046 
L 257.872603 -263.412899 
L 261.440235 -263.706891 
L 265.007868 -264.272165 
L 268.5755 -266.028748 
L 272.143132 -268.028382 
L 275.710765 -268.985849 
L 279.278397 -269.697811 
L 282.84603 -272.22221 
L 286.413662 -274.288743 
L 289.981294 -274.337844 
L 293.548927 -275.319861 
L 297.116559 -276.154576 
L 300.684191 -277.112043 
L 304.251824 -277.676703 
L 307.819456 -277.774905 
L 311.387089 -278.707821 
L 314.954721 -279.125179 
L 318.522353 -279.493435 
L 322.089986 -279.886242 
L 325.657618 -280.107196 
L 329.22525 -280.843709 
L 332.792883 -281.134018 
L 336.360515 -282.365836 
L 339.928147 -282.414937 
L 343.49578 -282.488589 
L 347.063412 -282.58679 
L 350.631045 -282.635891 
L 354.198677 -282.783194 
L 357.766309 -283.102349 
L 361.333942 -283.323303 
L 364.901574 -283.028698 
L 368.469206 -283.372404 
L 372.036839 -283.667009 
L 375.604471 -283.568808 
L 379.172104 -284.207119 
L 382.739736 -284.84543 
L 386.307368 -284.84543 
L 389.875001 -285.483742 
L 393.442633 -285.508292 
L 397.010265 -285.508292 
L 400.577898 -285.704696 
L 400.577898 -290.345956 
L 400.577898 -290.345956 
L 397.010265 -290.393829 
L 393.442633 -290.395057 
L 389.875001 -290.271077 
L 386.307368 -290.074673 
L 382.739736 -289.927371 
L 379.172104 -289.90282 
L 375.604471 -289.534564 
L 372.036839 -289.264509 
L 368.469206 -289.117206 
L 364.901574 -289.019005 
L 361.333942 -288.798051 
L 357.766309 -288.478895 
L 354.198677 -288.405244 
L 350.631045 -288.380693 
L 347.063412 -288.012437 
L 343.49578 -287.914235 
L 339.928147 -287.57237 
L 336.360515 -287.521428 
L 332.792883 -287.423226 
L 329.22525 -287.349575 
L 325.657618 -286.883117 
L 322.089986 -286.809465 
L 318.522353 -285.901099 
L 314.954721 -285.778347 
L 311.387089 -285.189137 
L 307.819456 -285.189137 
L 304.251824 -285.090935 
L 300.684191 -285.041834 
L 297.116559 -284.23167 
L 293.548927 -283.838863 
L 289.981294 -283.077799 
L 286.413662 -282.684992 
L 282.84603 -282.046681 
L 279.278397 -278.977876 
L 275.710765 -278.781473 
L 272.143132 -276.818665 
L 268.5755 -274.509697 
L 265.007868 -274.11689 
L 261.440235 -273.822285 
L 257.872603 -273.257624 
L 254.304971 -272.42291 
L 250.737338 -271.917784 
L 247.169706 -269.894215 
L 243.602074 -269.722362 
L 240.034441 -267.463721 
L 236.466809 -266.211649 
L 232.899176 -265.524237 
L 229.331544 -266.972713 
L 225.763912 -264.051211 
L 222.196279 -263.511101 
L 218.628647 -262.381781 
L 215.061015 -262.406332 
L 211.493382 -262.33268 
L 207.92575 -260.540498 
L 204.358118 -257.766299 
L 200.790485 -256.907034 
L 197.222853 -256.219622 
L 193.65522 -255.777714 
L 190.087588 -254.869348 
L 186.519956 -253.101716 
L 182.952323 -251.898745 
L 179.384691 -251.775993 
L 175.817059 -248.363482 
L 172.249426 -246.767704 
L 168.681794 -244.87732 
L 165.114161 -243.355193 
L 161.546529 -240.826498 
L 157.978897 -240.433691 
L 154.411264 -236.137365 
L 150.843632 -235.228999 
L 147.276 -233.878725 
L 143.708367 -232.160194 
L 140.140735 -230.736269 
L 136.573103 -229.877003 
L 133.00547 -227.790216 
L 129.437838 -224.230403 
L 125.870205 -220.474186 
L 122.302573 -217.135327 
L 118.734941 -215.63775 
L 115.167308 -212.22524 
L 111.599676 -209.328288 
L 108.032044 -204.34455 
L 104.464411 -199.090756 
L 100.896779 -195.702796 
L 97.329146 -193.935165 
L 93.761514 -189.663389 
L 90.193882 -184.434146 
L 86.626249 -174.491219 
L 83.058617 -171.569717 
L 79.490985 -157.404115 
L 75.923352 -138.232679 
z
" id="m351ec841f4" style="stroke:#1f77b4;stroke-opacity:0.2;"/>
    </defs>
    <g clip-path="url(#p0008057d10)">
     <use style="fill:#1f77b4;fill-opacity:0.2;stroke:#1f77b4;stroke-opacity:0.2;" x="0" xlink:href="#m351ec841f4" y="325.986375"/>
    </g>
   </g>
   <g id="PolyCollection_3">
    <defs>
     <path d="M 75.923352 -54.758741 
L 75.923352 -49.65225 
L 79.490985 -52.647403 
L 83.058617 -60.35624 
L 86.626249 -89.841314 
L 90.193882 -118.614426 
L 93.761514 -123.008954 
L 97.329146 -127.378932 
L 100.896779 -130.963295 
L 104.464411 -132.141716 
L 108.032044 -132.534523 
L 111.599676 -137.297308 
L 115.167308 -139.08949 
L 118.734941 -139.605049 
L 122.302573 -139.899654 
L 125.870205 -140.096058 
L 129.437838 -141.61082 
L 133.00547 -143.287614 
L 136.573103 -145.398952 
L 140.140735 -146.209116 
L 143.708367 -146.97018 
L 147.276 -147.240235 
L 150.843632 -147.828831 
L 154.411264 -150.210837 
L 157.978897 -151.045552 
L 161.546529 -151.831166 
L 165.114161 -152.641331 
L 168.681794 -152.813184 
L 172.249426 -153.230541 
L 175.817059 -153.7461 
L 179.384691 -154.703567 
L 182.952323 -155.145475 
L 186.519956 -154.752668 
L 190.087588 -155.464631 
L 193.65522 -157.13406 
L 197.222853 -157.379565 
L 200.790485 -158.705288 
L 204.358118 -160.374718 
L 207.92575 -162.486056 
L 211.493382 -163.317702 
L 215.061015 -164.548292 
L 218.628647 -165.800364 
L 222.196279 -166.512327 
L 225.763912 -166.954235 
L 229.331544 -167.445244 
L 232.899176 -167.690748 
L 236.466809 -169.311077 
L 240.034441 -169.311077 
L 243.602074 -169.311077 
L 247.169706 -169.360178 
L 250.737338 -169.384728 
L 254.304971 -169.384728 
L 257.872603 -169.384728 
L 261.440235 -169.384728 
L 265.007868 -169.409279 
L 268.5755 -169.55474 
L 272.143132 -169.50748 
L 275.710765 -169.556581 
L 279.278397 -169.556581 
L 282.84603 -169.556581 
L 286.413662 -169.605682 
L 289.981294 -169.654783 
L 293.548927 -169.703884 
L 297.116559 -169.751757 
L 300.684191 -170.02304 
L 304.251824 -169.998489 
L 307.819456 -170.04759 
L 311.387089 -170.04759 
L 314.954721 -170.121241 
L 318.522353 -170.194893 
L 322.089986 -170.415847 
L 325.657618 -170.46372 
L 329.22525 -170.415847 
L 332.792883 -170.514048 
L 336.360515 -170.514048 
L 339.928147 -170.391296 
L 343.49578 -170.514048 
L 347.063412 -170.661351 
L 350.631045 -170.489498 
L 354.198677 -170.489498 
L 357.766309 -170.735002 
L 361.333942 -170.735002 
L 364.901574 -170.906855 
L 368.469206 -171.397864 
L 372.036839 -171.397864 
L 375.604471 -171.545167 
L 379.172104 -171.864322 
L 382.739736 -171.765507 
L 386.307368 -171.864322 
L 389.875001 -172.109827 
L 393.442633 -172.109827 
L 397.010265 -172.134377 
L 400.577898 -172.134377 
L 400.577898 -177.069015 
L 400.577898 -177.069015 
L 397.010265 -177.069015 
L 393.442633 -177.020528 
L 389.875001 -176.995363 
L 386.307368 -176.700758 
L 382.739736 -176.700758 
L 379.172104 -176.700758 
L 375.604471 -176.185199 
L 372.036839 -176.185199 
L 368.469206 -176.185199 
L 364.901574 -176.381603 
L 361.333942 -176.160649 
L 357.766309 -176.160649 
L 354.198677 -176.381603 
L 350.631045 -176.160649 
L 347.063412 -175.988796 
L 343.49578 -175.988796 
L 339.928147 -176.037896 
L 336.360515 -175.915144 
L 332.792883 -175.915144 
L 329.22525 -175.890594 
L 325.657618 -175.841493 
L 322.089986 -175.841493 
L 318.522353 -175.595989 
L 314.954721 -175.452369 
L 311.387089 -175.448686 
L 307.819456 -175.448686 
L 304.251824 -175.325934 
L 300.684191 -175.203182 
L 297.116559 -174.687622 
L 293.548927 -174.687622 
L 289.981294 -174.663072 
L 286.413662 -174.908576 
L 282.84603 -174.663072 
L 279.278397 -174.663072 
L 275.710765 -174.663072 
L 272.143132 -174.491219 
L 268.5755 -174.491219 
L 265.007868 -174.491219 
L 261.440235 -174.075703 
L 257.872603 -174.147513 
L 254.304971 -174.172063 
L 250.737338 -174.175746 
L 247.169706 -174.098412 
L 243.602074 -174.049311 
L 240.034441 -173.361899 
L 236.466809 -173.165495 
L 232.899176 -172.478083 
L 229.331544 -171.692469 
L 225.763912 -170.808653 
L 222.196279 -169.360178 
L 218.628647 -168.623665 
L 215.061015 -167.543445 
L 211.493382 -166.708731 
L 207.92575 -164.966877 
L 204.358118 -163.026165 
L 200.790485 -161.848972 
L 197.222853 -160.423819 
L 193.65522 -159.711856 
L 190.087588 -159.466352 
L 186.519956 -158.73168 
L 182.952323 -158.165179 
L 179.384691 -157.895124 
L 175.817059 -157.428666 
L 172.249426 -156.397547 
L 168.681794 -155.636484 
L 165.114161 -155.022723 
L 161.546529 -154.777219 
L 157.978897 -154.752668 
L 154.411264 -152.813184 
L 150.843632 -152.125771 
L 147.276 -150.9228 
L 143.708367 -150.849149 
L 140.140735 -150.284489 
L 136.573103 -150.284489 
L 133.00547 -149.498875 
L 129.437838 -147.485739 
L 125.870205 -146.356419 
L 122.302573 -145.497154 
L 118.734941 -143.361266 
L 115.167308 -142.305597 
L 111.599676 -141.37268 
L 108.032044 -140.832571 
L 104.464411 -138.363411 
L 100.896779 -136.167988 
L 97.329146 -135.038668 
L 93.761514 -131.994414 
L 90.193882 -129.760324 
L 86.626249 -127.403482 
L 83.058617 -122.959853 
L 79.490985 -116.552189 
L 75.923352 -54.758741 
z
" id="m1bb39ccb1a" style="stroke:#d62728;stroke-opacity:0.2;"/>
    </defs>
    <g clip-path="url(#p0008057d10)">
     <use style="fill:#d62728;fill-opacity:0.2;stroke:#d62728;stroke-opacity:0.2;" x="0" xlink:href="#m1bb39ccb1a" y="325.986375"/>
    </g>
   </g>
   <g id="matplotlib.axis_1">
    <g id="xtick_1">
     <g id="line2d_1">
      <defs>
       <path d="M 0 0 
L 0 3.5 
" id="m00c7605d35" style="stroke:#000000;stroke-width:0.8;"/>
      </defs>
      <g>
       <use style="stroke:#000000;stroke-width:0.8;" x="75.923352" xlink:href="#m00c7605d35" y="288.430125"/>
      </g>
     </g>
     <g id="text_1">
      <!-- 15m -->
      <g transform="translate(64.69054 303.028562)scale(0.1 -0.1)">
       <defs>
        <path d="M 794 531 
L 1825 531 
L 1825 4091 
L 703 3866 
L 703 4441 
L 1819 4666 
L 2450 4666 
L 2450 531 
L 3481 531 
L 3481 0 
L 794 0 
L 794 531 
z
" id="DejaVuSans-31" transform="scale(0.015625)"/>
        <path d="M 691 4666 
L 3169 4666 
L 3169 4134 
L 1269 4134 
L 1269 2991 
Q 1406 3038 1543 3061 
Q 1681 3084 1819 3084 
Q 2600 3084 3056 2656 
Q 3513 2228 3513 1497 
Q 3513 744 3044 326 
Q 2575 -91 1722 -91 
Q 1428 -91 1123 -41 
Q 819 9 494 109 
L 494 744 
Q 775 591 1075 516 
Q 1375 441 1709 441 
Q 2250 441 2565 725 
Q 2881 1009 2881 1497 
Q 2881 1984 2565 2268 
Q 2250 2553 1709 2553 
Q 1456 2553 1204 2497 
Q 953 2441 691 2322 
L 691 4666 
z
" id="DejaVuSans-35" transform="scale(0.015625)"/>
        <path d="M 3328 2828 
Q 3544 3216 3844 3400 
Q 4144 3584 4550 3584 
Q 5097 3584 5394 3201 
Q 5691 2819 5691 2113 
L 5691 0 
L 5113 0 
L 5113 2094 
Q 5113 2597 4934 2840 
Q 4756 3084 4391 3084 
Q 3944 3084 3684 2787 
Q 3425 2491 3425 1978 
L 3425 0 
L 2847 0 
L 2847 2094 
Q 2847 2600 2669 2842 
Q 2491 3084 2119 3084 
Q 1678 3084 1418 2786 
Q 1159 2488 1159 1978 
L 1159 0 
L 581 0 
L 581 3500 
L 1159 3500 
L 1159 2956 
Q 1356 3278 1631 3431 
Q 1906 3584 2284 3584 
Q 2666 3584 2933 3390 
Q 3200 3197 3328 2828 
z
" id="DejaVuSans-6d" transform="scale(0.015625)"/>
       </defs>
       <use xlink:href="#DejaVuSans-31"/>
       <use x="63.623047" xlink:href="#DejaVuSans-35"/>
       <use x="127.246094" xlink:href="#DejaVuSans-6d"/>
      </g>
     </g>
    </g>
    <g id="xtick_2">
     <g id="line2d_2">
      <g>
       <use style="stroke:#000000;stroke-width:0.8;" x="130.627049" xlink:href="#m00c7605d35" y="288.430125"/>
      </g>
     </g>
     <g id="text_2">
      <!-- 4h:5m -->
      <g transform="translate(114.541111 303.028562)scale(0.1 -0.1)">
       <defs>
        <path d="M 2419 4116 
L 825 1625 
L 2419 1625 
L 2419 4116 
z
M 2253 4666 
L 3047 4666 
L 3047 1625 
L 3713 1625 
L 3713 1100 
L 3047 1100 
L 3047 0 
L 2419 0 
L 2419 1100 
L 313 1100 
L 313 1709 
L 2253 4666 
z
" id="DejaVuSans-34" transform="scale(0.015625)"/>
        <path d="M 3513 2113 
L 3513 0 
L 2938 0 
L 2938 2094 
Q 2938 2591 2744 2837 
Q 2550 3084 2163 3084 
Q 1697 3084 1428 2787 
Q 1159 2491 1159 1978 
L 1159 0 
L 581 0 
L 581 4863 
L 1159 4863 
L 1159 2956 
Q 1366 3272 1645 3428 
Q 1925 3584 2291 3584 
Q 2894 3584 3203 3211 
Q 3513 2838 3513 2113 
z
" id="DejaVuSans-68" transform="scale(0.015625)"/>
        <path d="M 750 794 
L 1409 794 
L 1409 0 
L 750 0 
L 750 794 
z
M 750 3309 
L 1409 3309 
L 1409 2516 
L 750 2516 
L 750 3309 
z
" id="DejaVuSans-3a" transform="scale(0.015625)"/>
       </defs>
       <use xlink:href="#DejaVuSans-34"/>
       <use x="63.623047" xlink:href="#DejaVuSans-68"/>
       <use x="127.001953" xlink:href="#DejaVuSans-3a"/>
       <use x="160.693359" xlink:href="#DejaVuSans-35"/>
       <use x="224.316406" xlink:href="#DejaVuSans-6d"/>
      </g>
     </g>
    </g>
    <g id="xtick_3">
     <g id="line2d_3">
      <g>
       <use style="stroke:#000000;stroke-width:0.8;" x="185.330745" xlink:href="#m00c7605d35" y="288.430125"/>
      </g>
     </g>
     <g id="text_3">
      <!-- 7h:55m -->
      <g transform="translate(166.063557 303.028562)scale(0.1 -0.1)">
       <defs>
        <path d="M 525 4666 
L 3525 4666 
L 3525 4397 
L 1831 0 
L 1172 0 
L 2766 4134 
L 525 4134 
L 525 4666 
z
" id="DejaVuSans-37" transform="scale(0.015625)"/>
       </defs>
       <use xlink:href="#DejaVuSans-37"/>
       <use x="63.623047" xlink:href="#DejaVuSans-68"/>
       <use x="127.001953" xlink:href="#DejaVuSans-3a"/>
       <use x="160.693359" xlink:href="#DejaVuSans-35"/>
       <use x="224.316406" xlink:href="#DejaVuSans-35"/>
       <use x="287.939453" xlink:href="#DejaVuSans-6d"/>
      </g>
     </g>
    </g>
    <g id="xtick_4">
     <g id="line2d_4">
      <g>
       <use style="stroke:#000000;stroke-width:0.8;" x="240.034441" xlink:href="#m00c7605d35" y="288.430125"/>
      </g>
     </g>
     <g id="text_4">
      <!-- 11h:45m -->
      <g transform="translate(217.586004 303.028562)scale(0.1 -0.1)">
       <use xlink:href="#DejaVuSans-31"/>
       <use x="63.623047" xlink:href="#DejaVuSans-31"/>
       <use x="127.246094" xlink:href="#DejaVuSans-68"/>
       <use x="190.625" xlink:href="#DejaVuSans-3a"/>
       <use x="224.316406" xlink:href="#DejaVuSans-34"/>
       <use x="287.939453" xlink:href="#DejaVuSans-35"/>
       <use x="351.5625" xlink:href="#DejaVuSans-6d"/>
      </g>
     </g>
    </g>
    <g id="xtick_5">
     <g id="line2d_5">
      <g>
       <use style="stroke:#000000;stroke-width:0.8;" x="294.738137" xlink:href="#m00c7605d35" y="288.430125"/>
      </g>
     </g>
     <g id="text_5">
      <!-- 15h:35m -->
      <g transform="translate(272.2897 303.028562)scale(0.1 -0.1)">
       <defs>
        <path d="M 2597 2516 
Q 3050 2419 3304 2112 
Q 3559 1806 3559 1356 
Q 3559 666 3084 287 
Q 2609 -91 1734 -91 
Q 1441 -91 1130 -33 
Q 819 25 488 141 
L 488 750 
Q 750 597 1062 519 
Q 1375 441 1716 441 
Q 2309 441 2620 675 
Q 2931 909 2931 1356 
Q 2931 1769 2642 2001 
Q 2353 2234 1838 2234 
L 1294 2234 
L 1294 2753 
L 1863 2753 
Q 2328 2753 2575 2939 
Q 2822 3125 2822 3475 
Q 2822 3834 2567 4026 
Q 2313 4219 1838 4219 
Q 1578 4219 1281 4162 
Q 984 4106 628 3988 
L 628 4550 
Q 988 4650 1302 4700 
Q 1616 4750 1894 4750 
Q 2613 4750 3031 4423 
Q 3450 4097 3450 3541 
Q 3450 3153 3228 2886 
Q 3006 2619 2597 2516 
z
" id="DejaVuSans-33" transform="scale(0.015625)"/>
       </defs>
       <use xlink:href="#DejaVuSans-31"/>
       <use x="63.623047" xlink:href="#DejaVuSans-35"/>
       <use x="127.246094" xlink:href="#DejaVuSans-68"/>
       <use x="190.625" xlink:href="#DejaVuSans-3a"/>
       <use x="224.316406" xlink:href="#DejaVuSans-33"/>
       <use x="287.939453" xlink:href="#DejaVuSans-35"/>
       <use x="351.5625" xlink:href="#DejaVuSans-6d"/>
      </g>
     </g>
    </g>
    <g id="xtick_6">
     <g id="line2d_6">
      <g>
       <use style="stroke:#000000;stroke-width:0.8;" x="349.441834" xlink:href="#m00c7605d35" y="288.430125"/>
      </g>
     </g>
     <g id="text_6">
      <!-- 19h:25m -->
      <g transform="translate(326.993396 303.028562)scale(0.1 -0.1)">
       <defs>
        <path d="M 703 97 
L 703 672 
Q 941 559 1184 500 
Q 1428 441 1663 441 
Q 2288 441 2617 861 
Q 2947 1281 2994 2138 
Q 2813 1869 2534 1725 
Q 2256 1581 1919 1581 
Q 1219 1581 811 2004 
Q 403 2428 403 3163 
Q 403 3881 828 4315 
Q 1253 4750 1959 4750 
Q 2769 4750 3195 4129 
Q 3622 3509 3622 2328 
Q 3622 1225 3098 567 
Q 2575 -91 1691 -91 
Q 1453 -91 1209 -44 
Q 966 3 703 97 
z
M 1959 2075 
Q 2384 2075 2632 2365 
Q 2881 2656 2881 3163 
Q 2881 3666 2632 3958 
Q 2384 4250 1959 4250 
Q 1534 4250 1286 3958 
Q 1038 3666 1038 3163 
Q 1038 2656 1286 2365 
Q 1534 2075 1959 2075 
z
" id="DejaVuSans-39" transform="scale(0.015625)"/>
        <path d="M 1228 531 
L 3431 531 
L 3431 0 
L 469 0 
L 469 531 
Q 828 903 1448 1529 
Q 2069 2156 2228 2338 
Q 2531 2678 2651 2914 
Q 2772 3150 2772 3378 
Q 2772 3750 2511 3984 
Q 2250 4219 1831 4219 
Q 1534 4219 1204 4116 
Q 875 4013 500 3803 
L 500 4441 
Q 881 4594 1212 4672 
Q 1544 4750 1819 4750 
Q 2544 4750 2975 4387 
Q 3406 4025 3406 3419 
Q 3406 3131 3298 2873 
Q 3191 2616 2906 2266 
Q 2828 2175 2409 1742 
Q 1991 1309 1228 531 
z
" id="DejaVuSans-32" transform="scale(0.015625)"/>
       </defs>
       <use xlink:href="#DejaVuSans-31"/>
       <use x="63.623047" xlink:href="#DejaVuSans-39"/>
       <use x="127.246094" xlink:href="#DejaVuSans-68"/>
       <use x="190.625" xlink:href="#DejaVuSans-3a"/>
       <use x="224.316406" xlink:href="#DejaVuSans-32"/>
       <use x="287.939453" xlink:href="#DejaVuSans-35"/>
       <use x="351.5625" xlink:href="#DejaVuSans-6d"/>
      </g>
     </g>
    </g>
    <g id="text_7">
     <!-- Time (hour:minute) -->
     <g transform="translate(189.843594 316.706687)scale(0.1 -0.1)">
      <defs>
       <path d="M -19 4666 
L 3928 4666 
L 3928 4134 
L 2272 4134 
L 2272 0 
L 1638 0 
L 1638 4134 
L -19 4134 
L -19 4666 
z
" id="DejaVuSans-54" transform="scale(0.015625)"/>
       <path d="M 603 3500 
L 1178 3500 
L 1178 0 
L 603 0 
L 603 3500 
z
M 603 4863 
L 1178 4863 
L 1178 4134 
L 603 4134 
L 603 4863 
z
" id="DejaVuSans-69" transform="scale(0.015625)"/>
       <path d="M 3597 1894 
L 3597 1613 
L 953 1613 
Q 991 1019 1311 708 
Q 1631 397 2203 397 
Q 2534 397 2845 478 
Q 3156 559 3463 722 
L 3463 178 
Q 3153 47 2828 -22 
Q 2503 -91 2169 -91 
Q 1331 -91 842 396 
Q 353 884 353 1716 
Q 353 2575 817 3079 
Q 1281 3584 2069 3584 
Q 2775 3584 3186 3129 
Q 3597 2675 3597 1894 
z
M 3022 2063 
Q 3016 2534 2758 2815 
Q 2500 3097 2075 3097 
Q 1594 3097 1305 2825 
Q 1016 2553 972 2059 
L 3022 2063 
z
" id="DejaVuSans-65" transform="scale(0.015625)"/>
       <path id="DejaVuSans-20" transform="scale(0.015625)"/>
       <path d="M 1984 4856 
Q 1566 4138 1362 3434 
Q 1159 2731 1159 2009 
Q 1159 1288 1364 580 
Q 1569 -128 1984 -844 
L 1484 -844 
Q 1016 -109 783 600 
Q 550 1309 550 2009 
Q 550 2706 781 3412 
Q 1013 4119 1484 4856 
L 1984 4856 
z
" id="DejaVuSans-28" transform="scale(0.015625)"/>
       <path d="M 1959 3097 
Q 1497 3097 1228 2736 
Q 959 2375 959 1747 
Q 959 1119 1226 758 
Q 1494 397 1959 397 
Q 2419 397 2687 759 
Q 2956 1122 2956 1747 
Q 2956 2369 2687 2733 
Q 2419 3097 1959 3097 
z
M 1959 3584 
Q 2709 3584 3137 3096 
Q 3566 2609 3566 1747 
Q 3566 888 3137 398 
Q 2709 -91 1959 -91 
Q 1206 -91 779 398 
Q 353 888 353 1747 
Q 353 2609 779 3096 
Q 1206 3584 1959 3584 
z
" id="DejaVuSans-6f" transform="scale(0.015625)"/>
       <path d="M 544 1381 
L 544 3500 
L 1119 3500 
L 1119 1403 
Q 1119 906 1312 657 
Q 1506 409 1894 409 
Q 2359 409 2629 706 
Q 2900 1003 2900 1516 
L 2900 3500 
L 3475 3500 
L 3475 0 
L 2900 0 
L 2900 538 
Q 2691 219 2414 64 
Q 2138 -91 1772 -91 
Q 1169 -91 856 284 
Q 544 659 544 1381 
z
M 1991 3584 
L 1991 3584 
z
" id="DejaVuSans-75" transform="scale(0.015625)"/>
       <path d="M 2631 2963 
Q 2534 3019 2420 3045 
Q 2306 3072 2169 3072 
Q 1681 3072 1420 2755 
Q 1159 2438 1159 1844 
L 1159 0 
L 581 0 
L 581 3500 
L 1159 3500 
L 1159 2956 
Q 1341 3275 1631 3429 
Q 1922 3584 2338 3584 
Q 2397 3584 2469 3576 
Q 2541 3569 2628 3553 
L 2631 2963 
z
" id="DejaVuSans-72" transform="scale(0.015625)"/>
       <path d="M 3513 2113 
L 3513 0 
L 2938 0 
L 2938 2094 
Q 2938 2591 2744 2837 
Q 2550 3084 2163 3084 
Q 1697 3084 1428 2787 
Q 1159 2491 1159 1978 
L 1159 0 
L 581 0 
L 581 3500 
L 1159 3500 
L 1159 2956 
Q 1366 3272 1645 3428 
Q 1925 3584 2291 3584 
Q 2894 3584 3203 3211 
Q 3513 2838 3513 2113 
z
" id="DejaVuSans-6e" transform="scale(0.015625)"/>
       <path d="M 1172 4494 
L 1172 3500 
L 2356 3500 
L 2356 3053 
L 1172 3053 
L 1172 1153 
Q 1172 725 1289 603 
Q 1406 481 1766 481 
L 2356 481 
L 2356 0 
L 1766 0 
Q 1100 0 847 248 
Q 594 497 594 1153 
L 594 3053 
L 172 3053 
L 172 3500 
L 594 3500 
L 594 4494 
L 1172 4494 
z
" id="DejaVuSans-74" transform="scale(0.015625)"/>
       <path d="M 513 4856 
L 1013 4856 
Q 1481 4119 1714 3412 
Q 1947 2706 1947 2009 
Q 1947 1309 1714 600 
Q 1481 -109 1013 -844 
L 513 -844 
Q 928 -128 1133 580 
Q 1338 1288 1338 2009 
Q 1338 2731 1133 3434 
Q 928 4138 513 4856 
z
" id="DejaVuSans-29" transform="scale(0.015625)"/>
      </defs>
      <use xlink:href="#DejaVuSans-54"/>
      <use x="57.958984" xlink:href="#DejaVuSans-69"/>
      <use x="85.742188" xlink:href="#DejaVuSans-6d"/>
      <use x="183.154297" xlink:href="#DejaVuSans-65"/>
      <use x="244.677734" xlink:href="#DejaVuSans-20"/>
      <use x="276.464844" xlink:href="#DejaVuSans-28"/>
      <use x="315.478516" xlink:href="#DejaVuSans-68"/>
      <use x="378.857422" xlink:href="#DejaVuSans-6f"/>
      <use x="440.039062" xlink:href="#DejaVuSans-75"/>
      <use x="503.417969" xlink:href="#DejaVuSans-72"/>
      <use x="542.78125" xlink:href="#DejaVuSans-3a"/>
      <use x="576.472656" xlink:href="#DejaVuSans-6d"/>
      <use x="673.884766" xlink:href="#DejaVuSans-69"/>
      <use x="701.667969" xlink:href="#DejaVuSans-6e"/>
      <use x="765.046875" xlink:href="#DejaVuSans-75"/>
      <use x="828.425781" xlink:href="#DejaVuSans-74"/>
      <use x="867.634766" xlink:href="#DejaVuSans-65"/>
      <use x="929.158203" xlink:href="#DejaVuSans-29"/>
     </g>
    </g>
   </g>
   <g id="matplotlib.axis_2">
    <g id="ytick_1">
     <g id="line2d_7">
      <defs>
       <path d="M 0 0 
L -3.5 0 
" id="m4543e51c4f" style="stroke:#000000;stroke-width:0.8;"/>
      </defs>
      <g>
       <use style="stroke:#000000;stroke-width:0.8;" x="59.690625" xlink:href="#m4543e51c4f" y="245.155071"/>
      </g>
     </g>
     <g id="text_8">
      <!-- 34000 -->
      <g transform="translate(20.878125 248.95429)scale(0.1 -0.1)">
       <defs>
        <path d="M 2034 4250 
Q 1547 4250 1301 3770 
Q 1056 3291 1056 2328 
Q 1056 1369 1301 889 
Q 1547 409 2034 409 
Q 2525 409 2770 889 
Q 3016 1369 3016 2328 
Q 3016 3291 2770 3770 
Q 2525 4250 2034 4250 
z
M 2034 4750 
Q 2819 4750 3233 4129 
Q 3647 3509 3647 2328 
Q 3647 1150 3233 529 
Q 2819 -91 2034 -91 
Q 1250 -91 836 529 
Q 422 1150 422 2328 
Q 422 3509 836 4129 
Q 1250 4750 2034 4750 
z
" id="DejaVuSans-30" transform="scale(0.015625)"/>
       </defs>
       <use xlink:href="#DejaVuSans-33"/>
       <use x="63.623047" xlink:href="#DejaVuSans-34"/>
       <use x="127.246094" xlink:href="#DejaVuSans-30"/>
       <use x="190.869141" xlink:href="#DejaVuSans-30"/>
       <use x="254.492188" xlink:href="#DejaVuSans-30"/>
      </g>
     </g>
    </g>
    <g id="ytick_2">
     <g id="line2d_8">
      <g>
       <use style="stroke:#000000;stroke-width:0.8;" x="59.690625" xlink:href="#m4543e51c4f" y="196.054198"/>
      </g>
     </g>
     <g id="text_9">
      <!-- 35000 -->
      <g transform="translate(20.878125 199.853417)scale(0.1 -0.1)">
       <use xlink:href="#DejaVuSans-33"/>
       <use x="63.623047" xlink:href="#DejaVuSans-35"/>
       <use x="127.246094" xlink:href="#DejaVuSans-30"/>
       <use x="190.869141" xlink:href="#DejaVuSans-30"/>
       <use x="254.492188" xlink:href="#DejaVuSans-30"/>
      </g>
     </g>
    </g>
    <g id="ytick_3">
     <g id="line2d_9">
      <g>
       <use style="stroke:#000000;stroke-width:0.8;" x="59.690625" xlink:href="#m4543e51c4f" y="146.953325"/>
      </g>
     </g>
     <g id="text_10">
      <!-- 36000 -->
      <g transform="translate(20.878125 150.752544)scale(0.1 -0.1)">
       <defs>
        <path d="M 2113 2584 
Q 1688 2584 1439 2293 
Q 1191 2003 1191 1497 
Q 1191 994 1439 701 
Q 1688 409 2113 409 
Q 2538 409 2786 701 
Q 3034 994 3034 1497 
Q 3034 2003 2786 2293 
Q 2538 2584 2113 2584 
z
M 3366 4563 
L 3366 3988 
Q 3128 4100 2886 4159 
Q 2644 4219 2406 4219 
Q 1781 4219 1451 3797 
Q 1122 3375 1075 2522 
Q 1259 2794 1537 2939 
Q 1816 3084 2150 3084 
Q 2853 3084 3261 2657 
Q 3669 2231 3669 1497 
Q 3669 778 3244 343 
Q 2819 -91 2113 -91 
Q 1303 -91 875 529 
Q 447 1150 447 2328 
Q 447 3434 972 4092 
Q 1497 4750 2381 4750 
Q 2619 4750 2861 4703 
Q 3103 4656 3366 4563 
z
" id="DejaVuSans-36" transform="scale(0.015625)"/>
       </defs>
       <use xlink:href="#DejaVuSans-33"/>
       <use x="63.623047" xlink:href="#DejaVuSans-36"/>
       <use x="127.246094" xlink:href="#DejaVuSans-30"/>
       <use x="190.869141" xlink:href="#DejaVuSans-30"/>
       <use x="254.492188" xlink:href="#DejaVuSans-30"/>
      </g>
     </g>
    </g>
    <g id="ytick_4">
     <g id="line2d_10">
      <g>
       <use style="stroke:#000000;stroke-width:0.8;" x="59.690625" xlink:href="#m4543e51c4f" y="97.852453"/>
      </g>
     </g>
     <g id="text_11">
      <!-- 37000 -->
      <g transform="translate(20.878125 101.651671)scale(0.1 -0.1)">
       <use xlink:href="#DejaVuSans-33"/>
       <use x="63.623047" xlink:href="#DejaVuSans-37"/>
       <use x="127.246094" xlink:href="#DejaVuSans-30"/>
       <use x="190.869141" xlink:href="#DejaVuSans-30"/>
       <use x="254.492188" xlink:href="#DejaVuSans-30"/>
      </g>
     </g>
    </g>
    <g id="ytick_5">
     <g id="line2d_11">
      <g>
       <use style="stroke:#000000;stroke-width:0.8;" x="59.690625" xlink:href="#m4543e51c4f" y="48.75158"/>
      </g>
     </g>
     <g id="text_12">
      <!-- 38000 -->
      <g transform="translate(20.878125 52.550799)scale(0.1 -0.1)">
       <defs>
        <path d="M 2034 2216 
Q 1584 2216 1326 1975 
Q 1069 1734 1069 1313 
Q 1069 891 1326 650 
Q 1584 409 2034 409 
Q 2484 409 2743 651 
Q 3003 894 3003 1313 
Q 3003 1734 2745 1975 
Q 2488 2216 2034 2216 
z
M 1403 2484 
Q 997 2584 770 2862 
Q 544 3141 544 3541 
Q 544 4100 942 4425 
Q 1341 4750 2034 4750 
Q 2731 4750 3128 4425 
Q 3525 4100 3525 3541 
Q 3525 3141 3298 2862 
Q 3072 2584 2669 2484 
Q 3125 2378 3379 2068 
Q 3634 1759 3634 1313 
Q 3634 634 3220 271 
Q 2806 -91 2034 -91 
Q 1263 -91 848 271 
Q 434 634 434 1313 
Q 434 1759 690 2068 
Q 947 2378 1403 2484 
z
M 1172 3481 
Q 1172 3119 1398 2916 
Q 1625 2713 2034 2713 
Q 2441 2713 2670 2916 
Q 2900 3119 2900 3481 
Q 2900 3844 2670 4047 
Q 2441 4250 2034 4250 
Q 1625 4250 1398 4047 
Q 1172 3844 1172 3481 
z
" id="DejaVuSans-38" transform="scale(0.015625)"/>
       </defs>
       <use xlink:href="#DejaVuSans-33"/>
       <use x="63.623047" xlink:href="#DejaVuSans-38"/>
       <use x="127.246094" xlink:href="#DejaVuSans-30"/>
       <use x="190.869141" xlink:href="#DejaVuSans-30"/>
       <use x="254.492188" xlink:href="#DejaVuSans-30"/>
      </g>
     </g>
    </g>
    <g id="text_13">
     <!-- Code region coverage -->
     <g transform="translate(14.798438 210.379594)rotate(-90)scale(0.1 -0.1)">
      <defs>
       <path d="M 4122 4306 
L 4122 3641 
Q 3803 3938 3442 4084 
Q 3081 4231 2675 4231 
Q 1875 4231 1450 3742 
Q 1025 3253 1025 2328 
Q 1025 1406 1450 917 
Q 1875 428 2675 428 
Q 3081 428 3442 575 
Q 3803 722 4122 1019 
L 4122 359 
Q 3791 134 3420 21 
Q 3050 -91 2638 -91 
Q 1578 -91 968 557 
Q 359 1206 359 2328 
Q 359 3453 968 4101 
Q 1578 4750 2638 4750 
Q 3056 4750 3426 4639 
Q 3797 4528 4122 4306 
z
" id="DejaVuSans-43" transform="scale(0.015625)"/>
       <path d="M 2906 2969 
L 2906 4863 
L 3481 4863 
L 3481 0 
L 2906 0 
L 2906 525 
Q 2725 213 2448 61 
Q 2172 -91 1784 -91 
Q 1150 -91 751 415 
Q 353 922 353 1747 
Q 353 2572 751 3078 
Q 1150 3584 1784 3584 
Q 2172 3584 2448 3432 
Q 2725 3281 2906 2969 
z
M 947 1747 
Q 947 1113 1208 752 
Q 1469 391 1925 391 
Q 2381 391 2643 752 
Q 2906 1113 2906 1747 
Q 2906 2381 2643 2742 
Q 2381 3103 1925 3103 
Q 1469 3103 1208 2742 
Q 947 2381 947 1747 
z
" id="DejaVuSans-64" transform="scale(0.015625)"/>
       <path d="M 2906 1791 
Q 2906 2416 2648 2759 
Q 2391 3103 1925 3103 
Q 1463 3103 1205 2759 
Q 947 2416 947 1791 
Q 947 1169 1205 825 
Q 1463 481 1925 481 
Q 2391 481 2648 825 
Q 2906 1169 2906 1791 
z
M 3481 434 
Q 3481 -459 3084 -895 
Q 2688 -1331 1869 -1331 
Q 1566 -1331 1297 -1286 
Q 1028 -1241 775 -1147 
L 775 -588 
Q 1028 -725 1275 -790 
Q 1522 -856 1778 -856 
Q 2344 -856 2625 -561 
Q 2906 -266 2906 331 
L 2906 616 
Q 2728 306 2450 153 
Q 2172 0 1784 0 
Q 1141 0 747 490 
Q 353 981 353 1791 
Q 353 2603 747 3093 
Q 1141 3584 1784 3584 
Q 2172 3584 2450 3431 
Q 2728 3278 2906 2969 
L 2906 3500 
L 3481 3500 
L 3481 434 
z
" id="DejaVuSans-67" transform="scale(0.015625)"/>
       <path d="M 3122 3366 
L 3122 2828 
Q 2878 2963 2633 3030 
Q 2388 3097 2138 3097 
Q 1578 3097 1268 2742 
Q 959 2388 959 1747 
Q 959 1106 1268 751 
Q 1578 397 2138 397 
Q 2388 397 2633 464 
Q 2878 531 3122 666 
L 3122 134 
Q 2881 22 2623 -34 
Q 2366 -91 2075 -91 
Q 1284 -91 818 406 
Q 353 903 353 1747 
Q 353 2603 823 3093 
Q 1294 3584 2113 3584 
Q 2378 3584 2631 3529 
Q 2884 3475 3122 3366 
z
" id="DejaVuSans-63" transform="scale(0.015625)"/>
       <path d="M 191 3500 
L 800 3500 
L 1894 563 
L 2988 3500 
L 3597 3500 
L 2284 0 
L 1503 0 
L 191 3500 
z
" id="DejaVuSans-76" transform="scale(0.015625)"/>
       <path d="M 2194 1759 
Q 1497 1759 1228 1600 
Q 959 1441 959 1056 
Q 959 750 1161 570 
Q 1363 391 1709 391 
Q 2188 391 2477 730 
Q 2766 1069 2766 1631 
L 2766 1759 
L 2194 1759 
z
M 3341 1997 
L 3341 0 
L 2766 0 
L 2766 531 
Q 2569 213 2275 61 
Q 1981 -91 1556 -91 
Q 1019 -91 701 211 
Q 384 513 384 1019 
Q 384 1609 779 1909 
Q 1175 2209 1959 2209 
L 2766 2209 
L 2766 2266 
Q 2766 2663 2505 2880 
Q 2244 3097 1772 3097 
Q 1472 3097 1187 3025 
Q 903 2953 641 2809 
L 641 3341 
Q 956 3463 1253 3523 
Q 1550 3584 1831 3584 
Q 2591 3584 2966 3190 
Q 3341 2797 3341 1997 
z
" id="DejaVuSans-61" transform="scale(0.015625)"/>
      </defs>
      <use xlink:href="#DejaVuSans-43"/>
      <use x="69.824219" xlink:href="#DejaVuSans-6f"/>
      <use x="131.005859" xlink:href="#DejaVuSans-64"/>
      <use x="194.482422" xlink:href="#DejaVuSans-65"/>
      <use x="256.005859" xlink:href="#DejaVuSans-20"/>
      <use x="287.792969" xlink:href="#DejaVuSans-72"/>
      <use x="326.65625" xlink:href="#DejaVuSans-65"/>
      <use x="388.179688" xlink:href="#DejaVuSans-67"/>
      <use x="451.65625" xlink:href="#DejaVuSans-69"/>
      <use x="479.439453" xlink:href="#DejaVuSans-6f"/>
      <use x="540.621094" xlink:href="#DejaVuSans-6e"/>
      <use x="604" xlink:href="#DejaVuSans-20"/>
      <use x="635.787109" xlink:href="#DejaVuSans-63"/>
      <use x="690.767578" xlink:href="#DejaVuSans-6f"/>
      <use x="751.949219" xlink:href="#DejaVuSans-76"/>
      <use x="811.128906" xlink:href="#DejaVuSans-65"/>
      <use x="872.652344" xlink:href="#DejaVuSans-72"/>
      <use x="913.765625" xlink:href="#DejaVuSans-61"/>
      <use x="975.044922" xlink:href="#DejaVuSans-67"/>
      <use x="1038.521484" xlink:href="#DejaVuSans-65"/>
     </g>
    </g>
   </g>
   <g id="line2d_12">
    <path clip-path="url(#p0008057d10)" d="M 75.923352 231.873285 
L 79.490985 179.016195 
L 83.058617 174.449814 
L 86.626249 166.839179 
L 90.193882 161.487184 
L 93.761514 153.041834 
L 97.329146 149.113764 
L 100.896779 146.781472 
L 104.464411 139.735497 
L 108.032044 135.561923 
L 111.599676 127.411178 
L 115.167308 122.648393 
L 118.734941 119.65324 
L 122.302573 115.037758 
L 125.870205 113.196475 
L 129.437838 110.913285 
L 133.00547 110.201322 
L 136.573103 108.777397 
L 140.140735 105.904996 
L 143.708367 102.590687 
L 147.276 100.381148 
L 150.843632 99.816487 
L 154.411264 95.176455 
L 157.978897 92.844164 
L 161.546529 91.54299 
L 165.114161 89.382552 
L 168.681794 88.179581 
L 172.249426 87.369416 
L 175.817059 84.840721 
L 179.384691 83.711401 
L 182.952323 80.618046 
L 186.519956 80.004285 
L 190.087588 78.973167 
L 193.65522 77.352838 
L 197.222853 76.297169 
L 200.790485 75.266051 
L 204.358118 72.639154 
L 207.92575 72.418201 
L 211.493382 68.220076 
L 215.061015 67.679966 
L 218.628647 66.157839 
L 222.196279 65.421326 
L 225.763912 65.224923 
L 229.331544 64.218355 
L 232.899176 62.990833 
L 236.466809 62.868081 
L 240.034441 60.781294 
L 243.602074 59.259167 
L 247.169706 59.234616 
L 250.737338 57.295132 
L 254.304971 55.429299 
L 257.872603 53.956272 
L 261.440235 53.489814 
L 265.007868 52.581448 
L 268.5755 51.697632 
L 272.143132 49.389891 
L 275.710765 46.885747 
L 279.278397 45.707326 
L 282.84603 44.897161 
L 286.413662 44.578006 
L 289.981294 44.553455 
L 293.548927 44.479804 
L 297.116559 44.381602 
L 300.684191 44.25885 
L 304.251824 43.301383 
L 307.819456 43.080429 
L 311.387089 40.89544 
L 314.954721 39.987074 
L 318.522353 39.987074 
L 322.089986 39.790671 
L 325.657618 39.74157 
L 329.22525 39.299662 
L 332.792883 39.250561 
L 336.360515 39.250561 
L 339.928147 39.029607 
L 343.49578 38.735002 
L 347.063412 38.685901 
L 350.631045 38.685901 
L 354.198677 38.685901 
L 357.766309 38.293094 
L 361.333942 38.293094 
L 364.901574 38.243993 
L 368.469206 38.243993 
L 372.036839 38.145791 
L 375.604471 38.09669 
L 379.172104 38.07214 
L 382.739736 37.188324 
L 386.307368 36.991921 
L 389.875001 36.746416 
L 393.442633 36.721866 
L 397.010265 36.721866 
L 400.577898 36.672765 
" style="fill:none;stroke:#98df8a;stroke-linecap:square;stroke-width:1.5;"/>
    <defs>
     <path d="M -0 3 
L 3 -3 
L -3 -3 
z
" id="mb002ab56ec" style="stroke:#ffffff;stroke-linejoin:miter;stroke-width:0.75;"/>
    </defs>
    <g clip-path="url(#p0008057d10)">
     <use style="fill:#98df8a;stroke:#ffffff;stroke-linejoin:miter;stroke-width:0.75;" x="75.923352" xlink:href="#mb002ab56ec" y="231.873285"/>
     <use style="fill:#98df8a;stroke:#ffffff;stroke-linejoin:miter;stroke-width:0.75;" x="79.490985" xlink:href="#mb002ab56ec" y="179.016195"/>
     <use style="fill:#98df8a;stroke:#ffffff;stroke-linejoin:miter;stroke-width:0.75;" x="83.058617" xlink:href="#mb002ab56ec" y="174.449814"/>
     <use style="fill:#98df8a;stroke:#ffffff;stroke-linejoin:miter;stroke-width:0.75;" x="86.626249" xlink:href="#mb002ab56ec" y="166.839179"/>
     <use style="fill:#98df8a;stroke:#ffffff;stroke-linejoin:miter;stroke-width:0.75;" x="90.193882" xlink:href="#mb002ab56ec" y="161.487184"/>
     <use style="fill:#98df8a;stroke:#ffffff;stroke-linejoin:miter;stroke-width:0.75;" x="93.761514" xlink:href="#mb002ab56ec" y="153.041834"/>
     <use style="fill:#98df8a;stroke:#ffffff;stroke-linejoin:miter;stroke-width:0.75;" x="97.329146" xlink:href="#mb002ab56ec" y="149.113764"/>
     <use style="fill:#98df8a;stroke:#ffffff;stroke-linejoin:miter;stroke-width:0.75;" x="100.896779" xlink:href="#mb002ab56ec" y="146.781472"/>
     <use style="fill:#98df8a;stroke:#ffffff;stroke-linejoin:miter;stroke-width:0.75;" x="104.464411" xlink:href="#mb002ab56ec" y="139.735497"/>
     <use style="fill:#98df8a;stroke:#ffffff;stroke-linejoin:miter;stroke-width:0.75;" x="108.032044" xlink:href="#mb002ab56ec" y="135.561923"/>
     <use style="fill:#98df8a;stroke:#ffffff;stroke-linejoin:miter;stroke-width:0.75;" x="111.599676" xlink:href="#mb002ab56ec" y="127.411178"/>
     <use style="fill:#98df8a;stroke:#ffffff;stroke-linejoin:miter;stroke-width:0.75;" x="115.167308" xlink:href="#mb002ab56ec" y="122.648393"/>
     <use style="fill:#98df8a;stroke:#ffffff;stroke-linejoin:miter;stroke-width:0.75;" x="118.734941" xlink:href="#mb002ab56ec" y="119.65324"/>
     <use style="fill:#98df8a;stroke:#ffffff;stroke-linejoin:miter;stroke-width:0.75;" x="122.302573" xlink:href="#mb002ab56ec" y="115.037758"/>
     <use style="fill:#98df8a;stroke:#ffffff;stroke-linejoin:miter;stroke-width:0.75;" x="125.870205" xlink:href="#mb002ab56ec" y="113.196475"/>
     <use style="fill:#98df8a;stroke:#ffffff;stroke-linejoin:miter;stroke-width:0.75;" x="129.437838" xlink:href="#mb002ab56ec" y="110.913285"/>
     <use style="fill:#98df8a;stroke:#ffffff;stroke-linejoin:miter;stroke-width:0.75;" x="133.00547" xlink:href="#mb002ab56ec" y="110.201322"/>
     <use style="fill:#98df8a;stroke:#ffffff;stroke-linejoin:miter;stroke-width:0.75;" x="136.573103" xlink:href="#mb002ab56ec" y="108.777397"/>
     <use style="fill:#98df8a;stroke:#ffffff;stroke-linejoin:miter;stroke-width:0.75;" x="140.140735" xlink:href="#mb002ab56ec" y="105.904996"/>
     <use style="fill:#98df8a;stroke:#ffffff;stroke-linejoin:miter;stroke-width:0.75;" x="143.708367" xlink:href="#mb002ab56ec" y="102.590687"/>
     <use style="fill:#98df8a;stroke:#ffffff;stroke-linejoin:miter;stroke-width:0.75;" x="147.276" xlink:href="#mb002ab56ec" y="100.381148"/>
     <use style="fill:#98df8a;stroke:#ffffff;stroke-linejoin:miter;stroke-width:0.75;" x="150.843632" xlink:href="#mb002ab56ec" y="99.816487"/>
     <use style="fill:#98df8a;stroke:#ffffff;stroke-linejoin:miter;stroke-width:0.75;" x="154.411264" xlink:href="#mb002ab56ec" y="95.176455"/>
     <use style="fill:#98df8a;stroke:#ffffff;stroke-linejoin:miter;stroke-width:0.75;" x="157.978897" xlink:href="#mb002ab56ec" y="92.844164"/>
     <use style="fill:#98df8a;stroke:#ffffff;stroke-linejoin:miter;stroke-width:0.75;" x="161.546529" xlink:href="#mb002ab56ec" y="91.54299"/>
     <use style="fill:#98df8a;stroke:#ffffff;stroke-linejoin:miter;stroke-width:0.75;" x="165.114161" xlink:href="#mb002ab56ec" y="89.382552"/>
     <use style="fill:#98df8a;stroke:#ffffff;stroke-linejoin:miter;stroke-width:0.75;" x="168.681794" xlink:href="#mb002ab56ec" y="88.179581"/>
     <use style="fill:#98df8a;stroke:#ffffff;stroke-linejoin:miter;stroke-width:0.75;" x="172.249426" xlink:href="#mb002ab56ec" y="87.369416"/>
     <use style="fill:#98df8a;stroke:#ffffff;stroke-linejoin:miter;stroke-width:0.75;" x="175.817059" xlink:href="#mb002ab56ec" y="84.840721"/>
     <use style="fill:#98df8a;stroke:#ffffff;stroke-linejoin:miter;stroke-width:0.75;" x="179.384691" xlink:href="#mb002ab56ec" y="83.711401"/>
     <use style="fill:#98df8a;stroke:#ffffff;stroke-linejoin:miter;stroke-width:0.75;" x="182.952323" xlink:href="#mb002ab56ec" y="80.618046"/>
     <use style="fill:#98df8a;stroke:#ffffff;stroke-linejoin:miter;stroke-width:0.75;" x="186.519956" xlink:href="#mb002ab56ec" y="80.004285"/>
     <use style="fill:#98df8a;stroke:#ffffff;stroke-linejoin:miter;stroke-width:0.75;" x="190.087588" xlink:href="#mb002ab56ec" y="78.973167"/>
     <use style="fill:#98df8a;stroke:#ffffff;stroke-linejoin:miter;stroke-width:0.75;" x="193.65522" xlink:href="#mb002ab56ec" y="77.352838"/>
     <use style="fill:#98df8a;stroke:#ffffff;stroke-linejoin:miter;stroke-width:0.75;" x="197.222853" xlink:href="#mb002ab56ec" y="76.297169"/>
     <use style="fill:#98df8a;stroke:#ffffff;stroke-linejoin:miter;stroke-width:0.75;" x="200.790485" xlink:href="#mb002ab56ec" y="75.266051"/>
     <use style="fill:#98df8a;stroke:#ffffff;stroke-linejoin:miter;stroke-width:0.75;" x="204.358118" xlink:href="#mb002ab56ec" y="72.639154"/>
     <use style="fill:#98df8a;stroke:#ffffff;stroke-linejoin:miter;stroke-width:0.75;" x="207.92575" xlink:href="#mb002ab56ec" y="72.418201"/>
     <use style="fill:#98df8a;stroke:#ffffff;stroke-linejoin:miter;stroke-width:0.75;" x="211.493382" xlink:href="#mb002ab56ec" y="68.220076"/>
     <use style="fill:#98df8a;stroke:#ffffff;stroke-linejoin:miter;stroke-width:0.75;" x="215.061015" xlink:href="#mb002ab56ec" y="67.679966"/>
     <use style="fill:#98df8a;stroke:#ffffff;stroke-linejoin:miter;stroke-width:0.75;" x="218.628647" xlink:href="#mb002ab56ec" y="66.157839"/>
     <use style="fill:#98df8a;stroke:#ffffff;stroke-linejoin:miter;stroke-width:0.75;" x="222.196279" xlink:href="#mb002ab56ec" y="65.421326"/>
     <use style="fill:#98df8a;stroke:#ffffff;stroke-linejoin:miter;stroke-width:0.75;" x="225.763912" xlink:href="#mb002ab56ec" y="65.224923"/>
     <use style="fill:#98df8a;stroke:#ffffff;stroke-linejoin:miter;stroke-width:0.75;" x="229.331544" xlink:href="#mb002ab56ec" y="64.218355"/>
     <use style="fill:#98df8a;stroke:#ffffff;stroke-linejoin:miter;stroke-width:0.75;" x="232.899176" xlink:href="#mb002ab56ec" y="62.990833"/>
     <use style="fill:#98df8a;stroke:#ffffff;stroke-linejoin:miter;stroke-width:0.75;" x="236.466809" xlink:href="#mb002ab56ec" y="62.868081"/>
     <use style="fill:#98df8a;stroke:#ffffff;stroke-linejoin:miter;stroke-width:0.75;" x="240.034441" xlink:href="#mb002ab56ec" y="60.781294"/>
     <use style="fill:#98df8a;stroke:#ffffff;stroke-linejoin:miter;stroke-width:0.75;" x="243.602074" xlink:href="#mb002ab56ec" y="59.259167"/>
     <use style="fill:#98df8a;stroke:#ffffff;stroke-linejoin:miter;stroke-width:0.75;" x="247.169706" xlink:href="#mb002ab56ec" y="59.234616"/>
     <use style="fill:#98df8a;stroke:#ffffff;stroke-linejoin:miter;stroke-width:0.75;" x="250.737338" xlink:href="#mb002ab56ec" y="57.295132"/>
     <use style="fill:#98df8a;stroke:#ffffff;stroke-linejoin:miter;stroke-width:0.75;" x="254.304971" xlink:href="#mb002ab56ec" y="55.429299"/>
     <use style="fill:#98df8a;stroke:#ffffff;stroke-linejoin:miter;stroke-width:0.75;" x="257.872603" xlink:href="#mb002ab56ec" y="53.956272"/>
     <use style="fill:#98df8a;stroke:#ffffff;stroke-linejoin:miter;stroke-width:0.75;" x="261.440235" xlink:href="#mb002ab56ec" y="53.489814"/>
     <use style="fill:#98df8a;stroke:#ffffff;stroke-linejoin:miter;stroke-width:0.75;" x="265.007868" xlink:href="#mb002ab56ec" y="52.581448"/>
     <use style="fill:#98df8a;stroke:#ffffff;stroke-linejoin:miter;stroke-width:0.75;" x="268.5755" xlink:href="#mb002ab56ec" y="51.697632"/>
     <use style="fill:#98df8a;stroke:#ffffff;stroke-linejoin:miter;stroke-width:0.75;" x="272.143132" xlink:href="#mb002ab56ec" y="49.389891"/>
     <use style="fill:#98df8a;stroke:#ffffff;stroke-linejoin:miter;stroke-width:0.75;" x="275.710765" xlink:href="#mb002ab56ec" y="46.885747"/>
     <use style="fill:#98df8a;stroke:#ffffff;stroke-linejoin:miter;stroke-width:0.75;" x="279.278397" xlink:href="#mb002ab56ec" y="45.707326"/>
     <use style="fill:#98df8a;stroke:#ffffff;stroke-linejoin:miter;stroke-width:0.75;" x="282.84603" xlink:href="#mb002ab56ec" y="44.897161"/>
     <use style="fill:#98df8a;stroke:#ffffff;stroke-linejoin:miter;stroke-width:0.75;" x="286.413662" xlink:href="#mb002ab56ec" y="44.578006"/>
     <use style="fill:#98df8a;stroke:#ffffff;stroke-linejoin:miter;stroke-width:0.75;" x="289.981294" xlink:href="#mb002ab56ec" y="44.553455"/>
     <use style="fill:#98df8a;stroke:#ffffff;stroke-linejoin:miter;stroke-width:0.75;" x="293.548927" xlink:href="#mb002ab56ec" y="44.479804"/>
     <use style="fill:#98df8a;stroke:#ffffff;stroke-linejoin:miter;stroke-width:0.75;" x="297.116559" xlink:href="#mb002ab56ec" y="44.381602"/>
     <use style="fill:#98df8a;stroke:#ffffff;stroke-linejoin:miter;stroke-width:0.75;" x="300.684191" xlink:href="#mb002ab56ec" y="44.25885"/>
     <use style="fill:#98df8a;stroke:#ffffff;stroke-linejoin:miter;stroke-width:0.75;" x="304.251824" xlink:href="#mb002ab56ec" y="43.301383"/>
     <use style="fill:#98df8a;stroke:#ffffff;stroke-linejoin:miter;stroke-width:0.75;" x="307.819456" xlink:href="#mb002ab56ec" y="43.080429"/>
     <use style="fill:#98df8a;stroke:#ffffff;stroke-linejoin:miter;stroke-width:0.75;" x="311.387089" xlink:href="#mb002ab56ec" y="40.89544"/>
     <use style="fill:#98df8a;stroke:#ffffff;stroke-linejoin:miter;stroke-width:0.75;" x="314.954721" xlink:href="#mb002ab56ec" y="39.987074"/>
     <use style="fill:#98df8a;stroke:#ffffff;stroke-linejoin:miter;stroke-width:0.75;" x="318.522353" xlink:href="#mb002ab56ec" y="39.987074"/>
     <use style="fill:#98df8a;stroke:#ffffff;stroke-linejoin:miter;stroke-width:0.75;" x="322.089986" xlink:href="#mb002ab56ec" y="39.790671"/>
     <use style="fill:#98df8a;stroke:#ffffff;stroke-linejoin:miter;stroke-width:0.75;" x="325.657618" xlink:href="#mb002ab56ec" y="39.74157"/>
     <use style="fill:#98df8a;stroke:#ffffff;stroke-linejoin:miter;stroke-width:0.75;" x="329.22525" xlink:href="#mb002ab56ec" y="39.299662"/>
     <use style="fill:#98df8a;stroke:#ffffff;stroke-linejoin:miter;stroke-width:0.75;" x="332.792883" xlink:href="#mb002ab56ec" y="39.250561"/>
     <use style="fill:#98df8a;stroke:#ffffff;stroke-linejoin:miter;stroke-width:0.75;" x="336.360515" xlink:href="#mb002ab56ec" y="39.250561"/>
     <use style="fill:#98df8a;stroke:#ffffff;stroke-linejoin:miter;stroke-width:0.75;" x="339.928147" xlink:href="#mb002ab56ec" y="39.029607"/>
     <use style="fill:#98df8a;stroke:#ffffff;stroke-linejoin:miter;stroke-width:0.75;" x="343.49578" xlink:href="#mb002ab56ec" y="38.735002"/>
     <use style="fill:#98df8a;stroke:#ffffff;stroke-linejoin:miter;stroke-width:0.75;" x="347.063412" xlink:href="#mb002ab56ec" y="38.685901"/>
     <use style="fill:#98df8a;stroke:#ffffff;stroke-linejoin:miter;stroke-width:0.75;" x="350.631045" xlink:href="#mb002ab56ec" y="38.685901"/>
     <use style="fill:#98df8a;stroke:#ffffff;stroke-linejoin:miter;stroke-width:0.75;" x="354.198677" xlink:href="#mb002ab56ec" y="38.685901"/>
     <use style="fill:#98df8a;stroke:#ffffff;stroke-linejoin:miter;stroke-width:0.75;" x="357.766309" xlink:href="#mb002ab56ec" y="38.293094"/>
     <use style="fill:#98df8a;stroke:#ffffff;stroke-linejoin:miter;stroke-width:0.75;" x="361.333942" xlink:href="#mb002ab56ec" y="38.293094"/>
     <use style="fill:#98df8a;stroke:#ffffff;stroke-linejoin:miter;stroke-width:0.75;" x="364.901574" xlink:href="#mb002ab56ec" y="38.243993"/>
     <use style="fill:#98df8a;stroke:#ffffff;stroke-linejoin:miter;stroke-width:0.75;" x="368.469206" xlink:href="#mb002ab56ec" y="38.243993"/>
     <use style="fill:#98df8a;stroke:#ffffff;stroke-linejoin:miter;stroke-width:0.75;" x="372.036839" xlink:href="#mb002ab56ec" y="38.145791"/>
     <use style="fill:#98df8a;stroke:#ffffff;stroke-linejoin:miter;stroke-width:0.75;" x="375.604471" xlink:href="#mb002ab56ec" y="38.09669"/>
     <use style="fill:#98df8a;stroke:#ffffff;stroke-linejoin:miter;stroke-width:0.75;" x="379.172104" xlink:href="#mb002ab56ec" y="38.07214"/>
     <use style="fill:#98df8a;stroke:#ffffff;stroke-linejoin:miter;stroke-width:0.75;" x="382.739736" xlink:href="#mb002ab56ec" y="37.188324"/>
     <use style="fill:#98df8a;stroke:#ffffff;stroke-linejoin:miter;stroke-width:0.75;" x="386.307368" xlink:href="#mb002ab56ec" y="36.991921"/>
     <use style="fill:#98df8a;stroke:#ffffff;stroke-linejoin:miter;stroke-width:0.75;" x="389.875001" xlink:href="#mb002ab56ec" y="36.746416"/>
     <use style="fill:#98df8a;stroke:#ffffff;stroke-linejoin:miter;stroke-width:0.75;" x="393.442633" xlink:href="#mb002ab56ec" y="36.721866"/>
     <use style="fill:#98df8a;stroke:#ffffff;stroke-linejoin:miter;stroke-width:0.75;" x="397.010265" xlink:href="#mb002ab56ec" y="36.721866"/>
     <use style="fill:#98df8a;stroke:#ffffff;stroke-linejoin:miter;stroke-width:0.75;" x="400.577898" xlink:href="#mb002ab56ec" y="36.672765"/>
    </g>
   </g>
   <g id="line2d_13">
    <path clip-path="url(#p0008057d10)" d="M 75.923352 195.293135 
L 79.490985 179.2617 
L 83.058617 166.151767 
L 86.626249 160.971624 
L 90.193882 150.488588 
L 93.761514 141.527679 
L 97.329146 138.876232 
L 100.896779 134.064346 
L 104.464411 131.412899 
L 108.032044 128.859654 
L 111.599676 121.592725 
L 115.167308 116.903591 
L 118.734941 111.551596 
L 122.302573 110.545028 
L 125.870205 109.219305 
L 129.437838 106.592408 
L 133.00547 106.12595 
L 136.573103 103.695456 
L 140.140735 102.737989 
L 143.708367 99.693735 
L 147.276 95.692014 
L 150.843632 94.268089 
L 154.411264 93.163319 
L 157.978897 92.844164 
L 161.546529 91.322037 
L 165.114161 89.750809 
L 168.681794 86.387399 
L 172.249426 85.970041 
L 175.817059 83.956906 
L 179.384691 81.698265 
L 182.952323 80.127038 
L 186.519956 79.881533 
L 190.087588 77.352838 
L 193.65522 76.542674 
L 197.222853 75.167849 
L 200.790485 74.357685 
L 204.358118 73.179264 
L 207.92575 72.246347 
L 211.493382 70.871523 
L 215.061015 68.711085 
L 218.628647 68.391929 
L 222.196279 67.704517 
L 225.763912 66.550646 
L 229.331544 65.126721 
L 232.899176 63.260888 
L 236.466809 63.138136 
L 240.034441 62.573476 
L 243.602074 61.370504 
L 247.169706 60.216634 
L 250.737338 59.553772 
L 254.304971 58.694507 
L 257.872603 58.203498 
L 261.440235 57.73704 
L 265.007868 57.17238 
L 268.5755 56.411316 
L 272.143132 54.029924 
L 275.710765 52.065889 
L 279.278397 51.255724 
L 282.84603 48.898882 
L 286.413662 48.162369 
L 289.981294 47.867764 
L 293.548927 47.794113 
L 297.116559 47.425856 
L 300.684191 45.339069 
L 304.251824 44.479804 
L 307.819456 44.062446 
L 311.387089 43.915144 
L 314.954721 42.884026 
L 318.522353 42.859475 
L 322.089986 42.613971 
L 325.657618 42.466668 
L 329.22525 42.466668 
L 332.792883 42.393017 
L 336.360515 42.147512 
L 339.928147 41.951109 
L 343.49578 41.4601 
L 347.063412 41.361898 
L 350.631045 41.337348 
L 354.198677 41.312798 
L 357.766309 41.263697 
L 361.333942 40.772688 
L 364.901574 40.576285 
L 368.469206 40.576285 
L 372.036839 40.453532 
L 375.604471 39.717019 
L 379.172104 39.618818 
L 382.739736 39.299662 
L 386.307368 39.299662 
L 389.875001 39.275111 
L 393.442633 39.250561 
L 397.010265 39.17691 
L 400.577898 38.955956 
" style="fill:none;stroke:#1f77b4;stroke-linecap:square;stroke-width:1.5;"/>
    <defs>
     <path d="M 0 3 
C 0.795609 3 1.55874 2.683901 2.12132 2.12132 
C 2.683901 1.55874 3 0.795609 3 0 
C 3 -0.795609 2.683901 -1.55874 2.12132 -2.12132 
C 1.55874 -2.683901 0.795609 -3 0 -3 
C -0.795609 -3 -1.55874 -2.683901 -2.12132 -2.12132 
C -2.683901 -1.55874 -3 -0.795609 -3 0 
C -3 0.795609 -2.683901 1.55874 -2.12132 2.12132 
C -1.55874 2.683901 -0.795609 3 0 3 
z
" id="me4b1149e3f" style="stroke:#ffffff;stroke-width:0.75;"/>
    </defs>
    <g clip-path="url(#p0008057d10)">
     <use style="fill:#1f77b4;stroke:#ffffff;stroke-width:0.75;" x="75.923352" xlink:href="#me4b1149e3f" y="195.293135"/>
     <use style="fill:#1f77b4;stroke:#ffffff;stroke-width:0.75;" x="79.490985" xlink:href="#me4b1149e3f" y="179.2617"/>
     <use style="fill:#1f77b4;stroke:#ffffff;stroke-width:0.75;" x="83.058617" xlink:href="#me4b1149e3f" y="166.151767"/>
     <use style="fill:#1f77b4;stroke:#ffffff;stroke-width:0.75;" x="86.626249" xlink:href="#me4b1149e3f" y="160.971624"/>
     <use style="fill:#1f77b4;stroke:#ffffff;stroke-width:0.75;" x="90.193882" xlink:href="#me4b1149e3f" y="150.488588"/>
     <use style="fill:#1f77b4;stroke:#ffffff;stroke-width:0.75;" x="93.761514" xlink:href="#me4b1149e3f" y="141.527679"/>
     <use style="fill:#1f77b4;stroke:#ffffff;stroke-width:0.75;" x="97.329146" xlink:href="#me4b1149e3f" y="138.876232"/>
     <use style="fill:#1f77b4;stroke:#ffffff;stroke-width:0.75;" x="100.896779" xlink:href="#me4b1149e3f" y="134.064346"/>
     <use style="fill:#1f77b4;stroke:#ffffff;stroke-width:0.75;" x="104.464411" xlink:href="#me4b1149e3f" y="131.412899"/>
     <use style="fill:#1f77b4;stroke:#ffffff;stroke-width:0.75;" x="108.032044" xlink:href="#me4b1149e3f" y="128.859654"/>
     <use style="fill:#1f77b4;stroke:#ffffff;stroke-width:0.75;" x="111.599676" xlink:href="#me4b1149e3f" y="121.592725"/>
     <use style="fill:#1f77b4;stroke:#ffffff;stroke-width:0.75;" x="115.167308" xlink:href="#me4b1149e3f" y="116.903591"/>
     <use style="fill:#1f77b4;stroke:#ffffff;stroke-width:0.75;" x="118.734941" xlink:href="#me4b1149e3f" y="111.551596"/>
     <use style="fill:#1f77b4;stroke:#ffffff;stroke-width:0.75;" x="122.302573" xlink:href="#me4b1149e3f" y="110.545028"/>
     <use style="fill:#1f77b4;stroke:#ffffff;stroke-width:0.75;" x="125.870205" xlink:href="#me4b1149e3f" y="109.219305"/>
     <use style="fill:#1f77b4;stroke:#ffffff;stroke-width:0.75;" x="129.437838" xlink:href="#me4b1149e3f" y="106.592408"/>
     <use style="fill:#1f77b4;stroke:#ffffff;stroke-width:0.75;" x="133.00547" xlink:href="#me4b1149e3f" y="106.12595"/>
     <use style="fill:#1f77b4;stroke:#ffffff;stroke-width:0.75;" x="136.573103" xlink:href="#me4b1149e3f" y="103.695456"/>
     <use style="fill:#1f77b4;stroke:#ffffff;stroke-width:0.75;" x="140.140735" xlink:href="#me4b1149e3f" y="102.737989"/>
     <use style="fill:#1f77b4;stroke:#ffffff;stroke-width:0.75;" x="143.708367" xlink:href="#me4b1149e3f" y="99.693735"/>
     <use style="fill:#1f77b4;stroke:#ffffff;stroke-width:0.75;" x="147.276" xlink:href="#me4b1149e3f" y="95.692014"/>
     <use style="fill:#1f77b4;stroke:#ffffff;stroke-width:0.75;" x="150.843632" xlink:href="#me4b1149e3f" y="94.268089"/>
     <use style="fill:#1f77b4;stroke:#ffffff;stroke-width:0.75;" x="154.411264" xlink:href="#me4b1149e3f" y="93.163319"/>
     <use style="fill:#1f77b4;stroke:#ffffff;stroke-width:0.75;" x="157.978897" xlink:href="#me4b1149e3f" y="92.844164"/>
     <use style="fill:#1f77b4;stroke:#ffffff;stroke-width:0.75;" x="161.546529" xlink:href="#me4b1149e3f" y="91.322037"/>
     <use style="fill:#1f77b4;stroke:#ffffff;stroke-width:0.75;" x="165.114161" xlink:href="#me4b1149e3f" y="89.750809"/>
     <use style="fill:#1f77b4;stroke:#ffffff;stroke-width:0.75;" x="168.681794" xlink:href="#me4b1149e3f" y="86.387399"/>
     <use style="fill:#1f77b4;stroke:#ffffff;stroke-width:0.75;" x="172.249426" xlink:href="#me4b1149e3f" y="85.970041"/>
     <use style="fill:#1f77b4;stroke:#ffffff;stroke-width:0.75;" x="175.817059" xlink:href="#me4b1149e3f" y="83.956906"/>
     <use style="fill:#1f77b4;stroke:#ffffff;stroke-width:0.75;" x="179.384691" xlink:href="#me4b1149e3f" y="81.698265"/>
     <use style="fill:#1f77b4;stroke:#ffffff;stroke-width:0.75;" x="182.952323" xlink:href="#me4b1149e3f" y="80.127038"/>
     <use style="fill:#1f77b4;stroke:#ffffff;stroke-width:0.75;" x="186.519956" xlink:href="#me4b1149e3f" y="79.881533"/>
     <use style="fill:#1f77b4;stroke:#ffffff;stroke-width:0.75;" x="190.087588" xlink:href="#me4b1149e3f" y="77.352838"/>
     <use style="fill:#1f77b4;stroke:#ffffff;stroke-width:0.75;" x="193.65522" xlink:href="#me4b1149e3f" y="76.542674"/>
     <use style="fill:#1f77b4;stroke:#ffffff;stroke-width:0.75;" x="197.222853" xlink:href="#me4b1149e3f" y="75.167849"/>
     <use style="fill:#1f77b4;stroke:#ffffff;stroke-width:0.75;" x="200.790485" xlink:href="#me4b1149e3f" y="74.357685"/>
     <use style="fill:#1f77b4;stroke:#ffffff;stroke-width:0.75;" x="204.358118" xlink:href="#me4b1149e3f" y="73.179264"/>
     <use style="fill:#1f77b4;stroke:#ffffff;stroke-width:0.75;" x="207.92575" xlink:href="#me4b1149e3f" y="72.246347"/>
     <use style="fill:#1f77b4;stroke:#ffffff;stroke-width:0.75;" x="211.493382" xlink:href="#me4b1149e3f" y="70.871523"/>
     <use style="fill:#1f77b4;stroke:#ffffff;stroke-width:0.75;" x="215.061015" xlink:href="#me4b1149e3f" y="68.711085"/>
     <use style="fill:#1f77b4;stroke:#ffffff;stroke-width:0.75;" x="218.628647" xlink:href="#me4b1149e3f" y="68.391929"/>
     <use style="fill:#1f77b4;stroke:#ffffff;stroke-width:0.75;" x="222.196279" xlink:href="#me4b1149e3f" y="67.704517"/>
     <use style="fill:#1f77b4;stroke:#ffffff;stroke-width:0.75;" x="225.763912" xlink:href="#me4b1149e3f" y="66.550646"/>
     <use style="fill:#1f77b4;stroke:#ffffff;stroke-width:0.75;" x="229.331544" xlink:href="#me4b1149e3f" y="65.126721"/>
     <use style="fill:#1f77b4;stroke:#ffffff;stroke-width:0.75;" x="232.899176" xlink:href="#me4b1149e3f" y="63.260888"/>
     <use style="fill:#1f77b4;stroke:#ffffff;stroke-width:0.75;" x="236.466809" xlink:href="#me4b1149e3f" y="63.138136"/>
     <use style="fill:#1f77b4;stroke:#ffffff;stroke-width:0.75;" x="240.034441" xlink:href="#me4b1149e3f" y="62.573476"/>
     <use style="fill:#1f77b4;stroke:#ffffff;stroke-width:0.75;" x="243.602074" xlink:href="#me4b1149e3f" y="61.370504"/>
     <use style="fill:#1f77b4;stroke:#ffffff;stroke-width:0.75;" x="247.169706" xlink:href="#me4b1149e3f" y="60.216634"/>
     <use style="fill:#1f77b4;stroke:#ffffff;stroke-width:0.75;" x="250.737338" xlink:href="#me4b1149e3f" y="59.553772"/>
     <use style="fill:#1f77b4;stroke:#ffffff;stroke-width:0.75;" x="254.304971" xlink:href="#me4b1149e3f" y="58.694507"/>
     <use style="fill:#1f77b4;stroke:#ffffff;stroke-width:0.75;" x="257.872603" xlink:href="#me4b1149e3f" y="58.203498"/>
     <use style="fill:#1f77b4;stroke:#ffffff;stroke-width:0.75;" x="261.440235" xlink:href="#me4b1149e3f" y="57.73704"/>
     <use style="fill:#1f77b4;stroke:#ffffff;stroke-width:0.75;" x="265.007868" xlink:href="#me4b1149e3f" y="57.17238"/>
     <use style="fill:#1f77b4;stroke:#ffffff;stroke-width:0.75;" x="268.5755" xlink:href="#me4b1149e3f" y="56.411316"/>
     <use style="fill:#1f77b4;stroke:#ffffff;stroke-width:0.75;" x="272.143132" xlink:href="#me4b1149e3f" y="54.029924"/>
     <use style="fill:#1f77b4;stroke:#ffffff;stroke-width:0.75;" x="275.710765" xlink:href="#me4b1149e3f" y="52.065889"/>
     <use style="fill:#1f77b4;stroke:#ffffff;stroke-width:0.75;" x="279.278397" xlink:href="#me4b1149e3f" y="51.255724"/>
     <use style="fill:#1f77b4;stroke:#ffffff;stroke-width:0.75;" x="282.84603" xlink:href="#me4b1149e3f" y="48.898882"/>
     <use style="fill:#1f77b4;stroke:#ffffff;stroke-width:0.75;" x="286.413662" xlink:href="#me4b1149e3f" y="48.162369"/>
     <use style="fill:#1f77b4;stroke:#ffffff;stroke-width:0.75;" x="289.981294" xlink:href="#me4b1149e3f" y="47.867764"/>
     <use style="fill:#1f77b4;stroke:#ffffff;stroke-width:0.75;" x="293.548927" xlink:href="#me4b1149e3f" y="47.794113"/>
     <use style="fill:#1f77b4;stroke:#ffffff;stroke-width:0.75;" x="297.116559" xlink:href="#me4b1149e3f" y="47.425856"/>
     <use style="fill:#1f77b4;stroke:#ffffff;stroke-width:0.75;" x="300.684191" xlink:href="#me4b1149e3f" y="45.339069"/>
     <use style="fill:#1f77b4;stroke:#ffffff;stroke-width:0.75;" x="304.251824" xlink:href="#me4b1149e3f" y="44.479804"/>
     <use style="fill:#1f77b4;stroke:#ffffff;stroke-width:0.75;" x="307.819456" xlink:href="#me4b1149e3f" y="44.062446"/>
     <use style="fill:#1f77b4;stroke:#ffffff;stroke-width:0.75;" x="311.387089" xlink:href="#me4b1149e3f" y="43.915144"/>
     <use style="fill:#1f77b4;stroke:#ffffff;stroke-width:0.75;" x="314.954721" xlink:href="#me4b1149e3f" y="42.884026"/>
     <use style="fill:#1f77b4;stroke:#ffffff;stroke-width:0.75;" x="318.522353" xlink:href="#me4b1149e3f" y="42.859475"/>
     <use style="fill:#1f77b4;stroke:#ffffff;stroke-width:0.75;" x="322.089986" xlink:href="#me4b1149e3f" y="42.613971"/>
     <use style="fill:#1f77b4;stroke:#ffffff;stroke-width:0.75;" x="325.657618" xlink:href="#me4b1149e3f" y="42.466668"/>
     <use style="fill:#1f77b4;stroke:#ffffff;stroke-width:0.75;" x="329.22525" xlink:href="#me4b1149e3f" y="42.466668"/>
     <use style="fill:#1f77b4;stroke:#ffffff;stroke-width:0.75;" x="332.792883" xlink:href="#me4b1149e3f" y="42.393017"/>
     <use style="fill:#1f77b4;stroke:#ffffff;stroke-width:0.75;" x="336.360515" xlink:href="#me4b1149e3f" y="42.147512"/>
     <use style="fill:#1f77b4;stroke:#ffffff;stroke-width:0.75;" x="339.928147" xlink:href="#me4b1149e3f" y="41.951109"/>
     <use style="fill:#1f77b4;stroke:#ffffff;stroke-width:0.75;" x="343.49578" xlink:href="#me4b1149e3f" y="41.4601"/>
     <use style="fill:#1f77b4;stroke:#ffffff;stroke-width:0.75;" x="347.063412" xlink:href="#me4b1149e3f" y="41.361898"/>
     <use style="fill:#1f77b4;stroke:#ffffff;stroke-width:0.75;" x="350.631045" xlink:href="#me4b1149e3f" y="41.337348"/>
     <use style="fill:#1f77b4;stroke:#ffffff;stroke-width:0.75;" x="354.198677" xlink:href="#me4b1149e3f" y="41.312798"/>
     <use style="fill:#1f77b4;stroke:#ffffff;stroke-width:0.75;" x="357.766309" xlink:href="#me4b1149e3f" y="41.263697"/>
     <use style="fill:#1f77b4;stroke:#ffffff;stroke-width:0.75;" x="361.333942" xlink:href="#me4b1149e3f" y="40.772688"/>
     <use style="fill:#1f77b4;stroke:#ffffff;stroke-width:0.75;" x="364.901574" xlink:href="#me4b1149e3f" y="40.576285"/>
     <use style="fill:#1f77b4;stroke:#ffffff;stroke-width:0.75;" x="368.469206" xlink:href="#me4b1149e3f" y="40.576285"/>
     <use style="fill:#1f77b4;stroke:#ffffff;stroke-width:0.75;" x="372.036839" xlink:href="#me4b1149e3f" y="40.453532"/>
     <use style="fill:#1f77b4;stroke:#ffffff;stroke-width:0.75;" x="375.604471" xlink:href="#me4b1149e3f" y="39.717019"/>
     <use style="fill:#1f77b4;stroke:#ffffff;stroke-width:0.75;" x="379.172104" xlink:href="#me4b1149e3f" y="39.618818"/>
     <use style="fill:#1f77b4;stroke:#ffffff;stroke-width:0.75;" x="382.739736" xlink:href="#me4b1149e3f" y="39.299662"/>
     <use style="fill:#1f77b4;stroke:#ffffff;stroke-width:0.75;" x="386.307368" xlink:href="#me4b1149e3f" y="39.299662"/>
     <use style="fill:#1f77b4;stroke:#ffffff;stroke-width:0.75;" x="389.875001" xlink:href="#me4b1149e3f" y="39.275111"/>
     <use style="fill:#1f77b4;stroke:#ffffff;stroke-width:0.75;" x="393.442633" xlink:href="#me4b1149e3f" y="39.250561"/>
     <use style="fill:#1f77b4;stroke:#ffffff;stroke-width:0.75;" x="397.010265" xlink:href="#me4b1149e3f" y="39.17691"/>
     <use style="fill:#1f77b4;stroke:#ffffff;stroke-width:0.75;" x="400.577898" xlink:href="#me4b1149e3f" y="38.955956"/>
    </g>
   </g>
   <g id="line2d_14">
    <path clip-path="url(#p0008057d10)" d="M 75.923352 275.106603 
L 79.490985 242.626376 
L 83.058617 213.705962 
L 86.626249 205.874373 
L 90.193882 203.198375 
L 93.761514 195.980547 
L 97.329146 193.844659 
L 100.896779 192.003376 
L 104.464411 190.726753 
L 108.032044 189.081874 
L 111.599676 186.921436 
L 115.167308 185.890317 
L 118.734941 183.999934 
L 122.302573 182.993366 
L 125.870205 182.968815 
L 129.437838 181.52034 
L 133.00547 179.801809 
L 136.573103 179.28625 
L 140.140735 177.935976 
L 143.708367 176.831206 
L 147.276 176.733005 
L 150.843632 175.603685 
L 154.411264 174.22886 
L 157.978897 173.418696 
L 161.546529 173.09954 
L 165.114161 172.55943 
L 168.681794 172.485779 
L 172.249426 171.258257 
L 175.817059 170.570845 
L 179.384691 169.785231 
L 182.952323 169.343323 
L 186.519956 168.803214 
L 190.087588 167.551141 
L 193.65522 167.133784 
L 197.222853 166.470922 
L 200.790485 165.709859 
L 204.358118 163.672172 
L 207.92575 162.665605 
L 211.493382 160.677019 
L 215.061015 159.547699 
L 218.628647 158.958489 
L 222.196279 157.510013 
L 225.763912 156.79805 
L 229.331544 155.717831 
L 232.899176 155.374125 
L 236.466809 155.177722 
L 240.034441 155.07952 
L 243.602074 154.711263 
L 247.169706 154.711263 
L 250.737338 154.711263 
L 254.304971 154.588511 
L 257.872603 154.53941 
L 261.440235 154.53941 
L 265.007868 154.51486 
L 268.5755 154.51486 
L 272.143132 154.490309 
L 275.710765 154.490309 
L 279.278397 154.465759 
L 282.84603 154.465759 
L 286.413662 154.465759 
L 289.981294 154.122053 
L 293.548927 154.122053 
L 297.116559 154.122053 
L 300.684191 153.999301 
L 304.251824 153.999301 
L 307.819456 153.999301 
L 311.387089 153.9502 
L 314.954721 153.827448 
L 318.522353 153.827448 
L 322.089986 153.827448 
L 325.657618 153.827448 
L 329.22525 153.311888 
L 332.792883 153.311888 
L 336.360515 153.262787 
L 339.928147 153.066384 
L 343.49578 153.017283 
L 347.063412 152.84543 
L 350.631045 152.599926 
L 354.198677 152.428073 
L 357.766309 152.428073 
L 361.333942 152.428073 
L 364.901574 152.378972 
L 368.469206 152.378972 
L 372.036839 152.354421 
L 375.604471 152.329871 
L 379.172104 152.329871 
L 382.739736 152.182568 
L 386.307368 152.182568 
L 389.875001 152.182568 
L 393.442633 152.182568 
L 397.010265 152.133467 
L 400.577898 152.133467 
" style="fill:none;stroke:#d62728;stroke-linecap:square;stroke-width:1.5;"/>
    <defs>
     <path d="M 0 -3 
L -3 3 
L 3 3 
z
" id="m2b1b469797" style="stroke:#ffffff;stroke-linejoin:miter;stroke-width:0.75;"/>
    </defs>
    <g clip-path="url(#p0008057d10)">
     <use style="fill:#d62728;stroke:#ffffff;stroke-linejoin:miter;stroke-width:0.75;" x="75.923352" xlink:href="#m2b1b469797" y="275.106603"/>
     <use style="fill:#d62728;stroke:#ffffff;stroke-linejoin:miter;stroke-width:0.75;" x="79.490985" xlink:href="#m2b1b469797" y="242.626376"/>
     <use style="fill:#d62728;stroke:#ffffff;stroke-linejoin:miter;stroke-width:0.75;" x="83.058617" xlink:href="#m2b1b469797" y="213.705962"/>
     <use style="fill:#d62728;stroke:#ffffff;stroke-linejoin:miter;stroke-width:0.75;" x="86.626249" xlink:href="#m2b1b469797" y="205.874373"/>
     <use style="fill:#d62728;stroke:#ffffff;stroke-linejoin:miter;stroke-width:0.75;" x="90.193882" xlink:href="#m2b1b469797" y="203.198375"/>
     <use style="fill:#d62728;stroke:#ffffff;stroke-linejoin:miter;stroke-width:0.75;" x="93.761514" xlink:href="#m2b1b469797" y="195.980547"/>
     <use style="fill:#d62728;stroke:#ffffff;stroke-linejoin:miter;stroke-width:0.75;" x="97.329146" xlink:href="#m2b1b469797" y="193.844659"/>
     <use style="fill:#d62728;stroke:#ffffff;stroke-linejoin:miter;stroke-width:0.75;" x="100.896779" xlink:href="#m2b1b469797" y="192.003376"/>
     <use style="fill:#d62728;stroke:#ffffff;stroke-linejoin:miter;stroke-width:0.75;" x="104.464411" xlink:href="#m2b1b469797" y="190.726753"/>
     <use style="fill:#d62728;stroke:#ffffff;stroke-linejoin:miter;stroke-width:0.75;" x="108.032044" xlink:href="#m2b1b469797" y="189.081874"/>
     <use style="fill:#d62728;stroke:#ffffff;stroke-linejoin:miter;stroke-width:0.75;" x="111.599676" xlink:href="#m2b1b469797" y="186.921436"/>
     <use style="fill:#d62728;stroke:#ffffff;stroke-linejoin:miter;stroke-width:0.75;" x="115.167308" xlink:href="#m2b1b469797" y="185.890317"/>
     <use style="fill:#d62728;stroke:#ffffff;stroke-linejoin:miter;stroke-width:0.75;" x="118.734941" xlink:href="#m2b1b469797" y="183.999934"/>
     <use style="fill:#d62728;stroke:#ffffff;stroke-linejoin:miter;stroke-width:0.75;" x="122.302573" xlink:href="#m2b1b469797" y="182.993366"/>
     <use style="fill:#d62728;stroke:#ffffff;stroke-linejoin:miter;stroke-width:0.75;" x="125.870205" xlink:href="#m2b1b469797" y="182.968815"/>
     <use style="fill:#d62728;stroke:#ffffff;stroke-linejoin:miter;stroke-width:0.75;" x="129.437838" xlink:href="#m2b1b469797" y="181.52034"/>
     <use style="fill:#d62728;stroke:#ffffff;stroke-linejoin:miter;stroke-width:0.75;" x="133.00547" xlink:href="#m2b1b469797" y="179.801809"/>
     <use style="fill:#d62728;stroke:#ffffff;stroke-linejoin:miter;stroke-width:0.75;" x="136.573103" xlink:href="#m2b1b469797" y="179.28625"/>
     <use style="fill:#d62728;stroke:#ffffff;stroke-linejoin:miter;stroke-width:0.75;" x="140.140735" xlink:href="#m2b1b469797" y="177.935976"/>
     <use style="fill:#d62728;stroke:#ffffff;stroke-linejoin:miter;stroke-width:0.75;" x="143.708367" xlink:href="#m2b1b469797" y="176.831206"/>
     <use style="fill:#d62728;stroke:#ffffff;stroke-linejoin:miter;stroke-width:0.75;" x="147.276" xlink:href="#m2b1b469797" y="176.733005"/>
     <use style="fill:#d62728;stroke:#ffffff;stroke-linejoin:miter;stroke-width:0.75;" x="150.843632" xlink:href="#m2b1b469797" y="175.603685"/>
     <use style="fill:#d62728;stroke:#ffffff;stroke-linejoin:miter;stroke-width:0.75;" x="154.411264" xlink:href="#m2b1b469797" y="174.22886"/>
     <use style="fill:#d62728;stroke:#ffffff;stroke-linejoin:miter;stroke-width:0.75;" x="157.978897" xlink:href="#m2b1b469797" y="173.418696"/>
     <use style="fill:#d62728;stroke:#ffffff;stroke-linejoin:miter;stroke-width:0.75;" x="161.546529" xlink:href="#m2b1b469797" y="173.09954"/>
     <use style="fill:#d62728;stroke:#ffffff;stroke-linejoin:miter;stroke-width:0.75;" x="165.114161" xlink:href="#m2b1b469797" y="172.55943"/>
     <use style="fill:#d62728;stroke:#ffffff;stroke-linejoin:miter;stroke-width:0.75;" x="168.681794" xlink:href="#m2b1b469797" y="172.485779"/>
     <use style="fill:#d62728;stroke:#ffffff;stroke-linejoin:miter;stroke-width:0.75;" x="172.249426" xlink:href="#m2b1b469797" y="171.258257"/>
     <use style="fill:#d62728;stroke:#ffffff;stroke-linejoin:miter;stroke-width:0.75;" x="175.817059" xlink:href="#m2b1b469797" y="170.570845"/>
     <use style="fill:#d62728;stroke:#ffffff;stroke-linejoin:miter;stroke-width:0.75;" x="179.384691" xlink:href="#m2b1b469797" y="169.785231"/>
     <use style="fill:#d62728;stroke:#ffffff;stroke-linejoin:miter;stroke-width:0.75;" x="182.952323" xlink:href="#m2b1b469797" y="169.343323"/>
     <use style="fill:#d62728;stroke:#ffffff;stroke-linejoin:miter;stroke-width:0.75;" x="186.519956" xlink:href="#m2b1b469797" y="168.803214"/>
     <use style="fill:#d62728;stroke:#ffffff;stroke-linejoin:miter;stroke-width:0.75;" x="190.087588" xlink:href="#m2b1b469797" y="167.551141"/>
     <use style="fill:#d62728;stroke:#ffffff;stroke-linejoin:miter;stroke-width:0.75;" x="193.65522" xlink:href="#m2b1b469797" y="167.133784"/>
     <use style="fill:#d62728;stroke:#ffffff;stroke-linejoin:miter;stroke-width:0.75;" x="197.222853" xlink:href="#m2b1b469797" y="166.470922"/>
     <use style="fill:#d62728;stroke:#ffffff;stroke-linejoin:miter;stroke-width:0.75;" x="200.790485" xlink:href="#m2b1b469797" y="165.709859"/>
     <use style="fill:#d62728;stroke:#ffffff;stroke-linejoin:miter;stroke-width:0.75;" x="204.358118" xlink:href="#m2b1b469797" y="163.672172"/>
     <use style="fill:#d62728;stroke:#ffffff;stroke-linejoin:miter;stroke-width:0.75;" x="207.92575" xlink:href="#m2b1b469797" y="162.665605"/>
     <use style="fill:#d62728;stroke:#ffffff;stroke-linejoin:miter;stroke-width:0.75;" x="211.493382" xlink:href="#m2b1b469797" y="160.677019"/>
     <use style="fill:#d62728;stroke:#ffffff;stroke-linejoin:miter;stroke-width:0.75;" x="215.061015" xlink:href="#m2b1b469797" y="159.547699"/>
     <use style="fill:#d62728;stroke:#ffffff;stroke-linejoin:miter;stroke-width:0.75;" x="218.628647" xlink:href="#m2b1b469797" y="158.958489"/>
     <use style="fill:#d62728;stroke:#ffffff;stroke-linejoin:miter;stroke-width:0.75;" x="222.196279" xlink:href="#m2b1b469797" y="157.510013"/>
     <use style="fill:#d62728;stroke:#ffffff;stroke-linejoin:miter;stroke-width:0.75;" x="225.763912" xlink:href="#m2b1b469797" y="156.79805"/>
     <use style="fill:#d62728;stroke:#ffffff;stroke-linejoin:miter;stroke-width:0.75;" x="229.331544" xlink:href="#m2b1b469797" y="155.717831"/>
     <use style="fill:#d62728;stroke:#ffffff;stroke-linejoin:miter;stroke-width:0.75;" x="232.899176" xlink:href="#m2b1b469797" y="155.374125"/>
     <use style="fill:#d62728;stroke:#ffffff;stroke-linejoin:miter;stroke-width:0.75;" x="236.466809" xlink:href="#m2b1b469797" y="155.177722"/>
     <use style="fill:#d62728;stroke:#ffffff;stroke-linejoin:miter;stroke-width:0.75;" x="240.034441" xlink:href="#m2b1b469797" y="155.07952"/>
     <use style="fill:#d62728;stroke:#ffffff;stroke-linejoin:miter;stroke-width:0.75;" x="243.602074" xlink:href="#m2b1b469797" y="154.711263"/>
     <use style="fill:#d62728;stroke:#ffffff;stroke-linejoin:miter;stroke-width:0.75;" x="247.169706" xlink:href="#m2b1b469797" y="154.711263"/>
     <use style="fill:#d62728;stroke:#ffffff;stroke-linejoin:miter;stroke-width:0.75;" x="250.737338" xlink:href="#m2b1b469797" y="154.711263"/>
     <use style="fill:#d62728;stroke:#ffffff;stroke-linejoin:miter;stroke-width:0.75;" x="254.304971" xlink:href="#m2b1b469797" y="154.588511"/>
     <use style="fill:#d62728;stroke:#ffffff;stroke-linejoin:miter;stroke-width:0.75;" x="257.872603" xlink:href="#m2b1b469797" y="154.53941"/>
     <use style="fill:#d62728;stroke:#ffffff;stroke-linejoin:miter;stroke-width:0.75;" x="261.440235" xlink:href="#m2b1b469797" y="154.53941"/>
     <use style="fill:#d62728;stroke:#ffffff;stroke-linejoin:miter;stroke-width:0.75;" x="265.007868" xlink:href="#m2b1b469797" y="154.51486"/>
     <use style="fill:#d62728;stroke:#ffffff;stroke-linejoin:miter;stroke-width:0.75;" x="268.5755" xlink:href="#m2b1b469797" y="154.51486"/>
     <use style="fill:#d62728;stroke:#ffffff;stroke-linejoin:miter;stroke-width:0.75;" x="272.143132" xlink:href="#m2b1b469797" y="154.490309"/>
     <use style="fill:#d62728;stroke:#ffffff;stroke-linejoin:miter;stroke-width:0.75;" x="275.710765" xlink:href="#m2b1b469797" y="154.490309"/>
     <use style="fill:#d62728;stroke:#ffffff;stroke-linejoin:miter;stroke-width:0.75;" x="279.278397" xlink:href="#m2b1b469797" y="154.465759"/>
     <use style="fill:#d62728;stroke:#ffffff;stroke-linejoin:miter;stroke-width:0.75;" x="282.84603" xlink:href="#m2b1b469797" y="154.465759"/>
     <use style="fill:#d62728;stroke:#ffffff;stroke-linejoin:miter;stroke-width:0.75;" x="286.413662" xlink:href="#m2b1b469797" y="154.465759"/>
     <use style="fill:#d62728;stroke:#ffffff;stroke-linejoin:miter;stroke-width:0.75;" x="289.981294" xlink:href="#m2b1b469797" y="154.122053"/>
     <use style="fill:#d62728;stroke:#ffffff;stroke-linejoin:miter;stroke-width:0.75;" x="293.548927" xlink:href="#m2b1b469797" y="154.122053"/>
     <use style="fill:#d62728;stroke:#ffffff;stroke-linejoin:miter;stroke-width:0.75;" x="297.116559" xlink:href="#m2b1b469797" y="154.122053"/>
     <use style="fill:#d62728;stroke:#ffffff;stroke-linejoin:miter;stroke-width:0.75;" x="300.684191" xlink:href="#m2b1b469797" y="153.999301"/>
     <use style="fill:#d62728;stroke:#ffffff;stroke-linejoin:miter;stroke-width:0.75;" x="304.251824" xlink:href="#m2b1b469797" y="153.999301"/>
     <use style="fill:#d62728;stroke:#ffffff;stroke-linejoin:miter;stroke-width:0.75;" x="307.819456" xlink:href="#m2b1b469797" y="153.999301"/>
     <use style="fill:#d62728;stroke:#ffffff;stroke-linejoin:miter;stroke-width:0.75;" x="311.387089" xlink:href="#m2b1b469797" y="153.9502"/>
     <use style="fill:#d62728;stroke:#ffffff;stroke-linejoin:miter;stroke-width:0.75;" x="314.954721" xlink:href="#m2b1b469797" y="153.827448"/>
     <use style="fill:#d62728;stroke:#ffffff;stroke-linejoin:miter;stroke-width:0.75;" x="318.522353" xlink:href="#m2b1b469797" y="153.827448"/>
     <use style="fill:#d62728;stroke:#ffffff;stroke-linejoin:miter;stroke-width:0.75;" x="322.089986" xlink:href="#m2b1b469797" y="153.827448"/>
     <use style="fill:#d62728;stroke:#ffffff;stroke-linejoin:miter;stroke-width:0.75;" x="325.657618" xlink:href="#m2b1b469797" y="153.827448"/>
     <use style="fill:#d62728;stroke:#ffffff;stroke-linejoin:miter;stroke-width:0.75;" x="329.22525" xlink:href="#m2b1b469797" y="153.311888"/>
     <use style="fill:#d62728;stroke:#ffffff;stroke-linejoin:miter;stroke-width:0.75;" x="332.792883" xlink:href="#m2b1b469797" y="153.311888"/>
     <use style="fill:#d62728;stroke:#ffffff;stroke-linejoin:miter;stroke-width:0.75;" x="336.360515" xlink:href="#m2b1b469797" y="153.262787"/>
     <use style="fill:#d62728;stroke:#ffffff;stroke-linejoin:miter;stroke-width:0.75;" x="339.928147" xlink:href="#m2b1b469797" y="153.066384"/>
     <use style="fill:#d62728;stroke:#ffffff;stroke-linejoin:miter;stroke-width:0.75;" x="343.49578" xlink:href="#m2b1b469797" y="153.017283"/>
     <use style="fill:#d62728;stroke:#ffffff;stroke-linejoin:miter;stroke-width:0.75;" x="347.063412" xlink:href="#m2b1b469797" y="152.84543"/>
     <use style="fill:#d62728;stroke:#ffffff;stroke-linejoin:miter;stroke-width:0.75;" x="350.631045" xlink:href="#m2b1b469797" y="152.599926"/>
     <use style="fill:#d62728;stroke:#ffffff;stroke-linejoin:miter;stroke-width:0.75;" x="354.198677" xlink:href="#m2b1b469797" y="152.428073"/>
     <use style="fill:#d62728;stroke:#ffffff;stroke-linejoin:miter;stroke-width:0.75;" x="357.766309" xlink:href="#m2b1b469797" y="152.428073"/>
     <use style="fill:#d62728;stroke:#ffffff;stroke-linejoin:miter;stroke-width:0.75;" x="361.333942" xlink:href="#m2b1b469797" y="152.428073"/>
     <use style="fill:#d62728;stroke:#ffffff;stroke-linejoin:miter;stroke-width:0.75;" x="364.901574" xlink:href="#m2b1b469797" y="152.378972"/>
     <use style="fill:#d62728;stroke:#ffffff;stroke-linejoin:miter;stroke-width:0.75;" x="368.469206" xlink:href="#m2b1b469797" y="152.378972"/>
     <use style="fill:#d62728;stroke:#ffffff;stroke-linejoin:miter;stroke-width:0.75;" x="372.036839" xlink:href="#m2b1b469797" y="152.354421"/>
     <use style="fill:#d62728;stroke:#ffffff;stroke-linejoin:miter;stroke-width:0.75;" x="375.604471" xlink:href="#m2b1b469797" y="152.329871"/>
     <use style="fill:#d62728;stroke:#ffffff;stroke-linejoin:miter;stroke-width:0.75;" x="379.172104" xlink:href="#m2b1b469797" y="152.329871"/>
     <use style="fill:#d62728;stroke:#ffffff;stroke-linejoin:miter;stroke-width:0.75;" x="382.739736" xlink:href="#m2b1b469797" y="152.182568"/>
     <use style="fill:#d62728;stroke:#ffffff;stroke-linejoin:miter;stroke-width:0.75;" x="386.307368" xlink:href="#m2b1b469797" y="152.182568"/>
     <use style="fill:#d62728;stroke:#ffffff;stroke-linejoin:miter;stroke-width:0.75;" x="389.875001" xlink:href="#m2b1b469797" y="152.182568"/>
     <use style="fill:#d62728;stroke:#ffffff;stroke-linejoin:miter;stroke-width:0.75;" x="393.442633" xlink:href="#m2b1b469797" y="152.182568"/>
     <use style="fill:#d62728;stroke:#ffffff;stroke-linejoin:miter;stroke-width:0.75;" x="397.010265" xlink:href="#m2b1b469797" y="152.133467"/>
     <use style="fill:#d62728;stroke:#ffffff;stroke-linejoin:miter;stroke-width:0.75;" x="400.577898" xlink:href="#m2b1b469797" y="152.133467"/>
    </g>
   </g>
   <g id="line2d_15"/>
   <g id="line2d_16"/>
   <g id="line2d_17"/>
   <g id="patch_3">
    <path d="M 59.690625 245.155071 
L 59.690625 48.75158 
" style="fill:none;stroke:#000000;stroke-linecap:square;stroke-linejoin:miter;stroke-width:0.8;"/>
   </g>
   <g id="patch_4">
    <path d="M 75.923352 288.430125 
L 349.441834 288.430125 
" style="fill:none;stroke:#000000;stroke-linecap:square;stroke-linejoin:miter;stroke-width:0.8;"/>
   </g>
   <g id="text_14">
    <!-- poppler_pdf_fuzzer (23h, 20 trials/fuzzer) -->
    <g transform="translate(114.495938 16.318125)scale(0.12 -0.12)">
     <defs>
      <path d="M 1159 525 
L 1159 -1331 
L 581 -1331 
L 581 3500 
L 1159 3500 
L 1159 2969 
Q 1341 3281 1617 3432 
Q 1894 3584 2278 3584 
Q 2916 3584 3314 3078 
Q 3713 2572 3713 1747 
Q 3713 922 3314 415 
Q 2916 -91 2278 -91 
Q 1894 -91 1617 61 
Q 1341 213 1159 525 
z
M 3116 1747 
Q 3116 2381 2855 2742 
Q 2594 3103 2138 3103 
Q 1681 3103 1420 2742 
Q 1159 2381 1159 1747 
Q 1159 1113 1420 752 
Q 1681 391 2138 391 
Q 2594 391 2855 752 
Q 3116 1113 3116 1747 
z
" id="DejaVuSans-70" transform="scale(0.015625)"/>
      <path d="M 603 4863 
L 1178 4863 
L 1178 0 
L 603 0 
L 603 4863 
z
" id="DejaVuSans-6c" transform="scale(0.015625)"/>
      <path d="M 3263 -1063 
L 3263 -1509 
L -63 -1509 
L -63 -1063 
L 3263 -1063 
z
" id="DejaVuSans-5f" transform="scale(0.015625)"/>
      <path d="M 2375 4863 
L 2375 4384 
L 1825 4384 
Q 1516 4384 1395 4259 
Q 1275 4134 1275 3809 
L 1275 3500 
L 2222 3500 
L 2222 3053 
L 1275 3053 
L 1275 0 
L 697 0 
L 697 3053 
L 147 3053 
L 147 3500 
L 697 3500 
L 697 3744 
Q 697 4328 969 4595 
Q 1241 4863 1831 4863 
L 2375 4863 
z
" id="DejaVuSans-66" transform="scale(0.015625)"/>
      <path d="M 353 3500 
L 3084 3500 
L 3084 2975 
L 922 459 
L 3084 459 
L 3084 0 
L 275 0 
L 275 525 
L 2438 3041 
L 353 3041 
L 353 3500 
z
" id="DejaVuSans-7a" transform="scale(0.015625)"/>
      <path d="M 750 794 
L 1409 794 
L 1409 256 
L 897 -744 
L 494 -744 
L 750 256 
L 750 794 
z
" id="DejaVuSans-2c" transform="scale(0.015625)"/>
      <path d="M 2834 3397 
L 2834 2853 
Q 2591 2978 2328 3040 
Q 2066 3103 1784 3103 
Q 1356 3103 1142 2972 
Q 928 2841 928 2578 
Q 928 2378 1081 2264 
Q 1234 2150 1697 2047 
L 1894 2003 
Q 2506 1872 2764 1633 
Q 3022 1394 3022 966 
Q 3022 478 2636 193 
Q 2250 -91 1575 -91 
Q 1294 -91 989 -36 
Q 684 19 347 128 
L 347 722 
Q 666 556 975 473 
Q 1284 391 1588 391 
Q 1994 391 2212 530 
Q 2431 669 2431 922 
Q 2431 1156 2273 1281 
Q 2116 1406 1581 1522 
L 1381 1569 
Q 847 1681 609 1914 
Q 372 2147 372 2553 
Q 372 3047 722 3315 
Q 1072 3584 1716 3584 
Q 2034 3584 2315 3537 
Q 2597 3491 2834 3397 
z
" id="DejaVuSans-73" transform="scale(0.015625)"/>
      <path d="M 1625 4666 
L 2156 4666 
L 531 -594 
L 0 -594 
L 1625 4666 
z
" id="DejaVuSans-2f" transform="scale(0.015625)"/>
     </defs>
     <use xlink:href="#DejaVuSans-70"/>
     <use x="63.476562" xlink:href="#DejaVuSans-6f"/>
     <use x="124.658203" xlink:href="#DejaVuSans-70"/>
     <use x="188.134766" xlink:href="#DejaVuSans-70"/>
     <use x="251.611328" xlink:href="#DejaVuSans-6c"/>
     <use x="279.394531" xlink:href="#DejaVuSans-65"/>
     <use x="340.917969" xlink:href="#DejaVuSans-72"/>
     <use x="382.03125" xlink:href="#DejaVuSans-5f"/>
     <use x="432.03125" xlink:href="#DejaVuSans-70"/>
     <use x="495.507812" xlink:href="#DejaVuSans-64"/>
     <use x="558.984375" xlink:href="#DejaVuSans-66"/>
     <use x="594.189453" xlink:href="#DejaVuSans-5f"/>
     <use x="644.189453" xlink:href="#DejaVuSans-66"/>
     <use x="679.394531" xlink:href="#DejaVuSans-75"/>
     <use x="742.773438" xlink:href="#DejaVuSans-7a"/>
     <use x="795.263672" xlink:href="#DejaVuSans-7a"/>
     <use x="847.753906" xlink:href="#DejaVuSans-65"/>
     <use x="909.277344" xlink:href="#DejaVuSans-72"/>
     <use x="950.390625" xlink:href="#DejaVuSans-20"/>
     <use x="982.177734" xlink:href="#DejaVuSans-28"/>
     <use x="1021.191406" xlink:href="#DejaVuSans-32"/>
     <use x="1084.814453" xlink:href="#DejaVuSans-33"/>
     <use x="1148.4375" xlink:href="#DejaVuSans-68"/>
     <use x="1211.816406" xlink:href="#DejaVuSans-2c"/>
     <use x="1243.603516" xlink:href="#DejaVuSans-20"/>
     <use x="1275.390625" xlink:href="#DejaVuSans-32"/>
     <use x="1339.013672" xlink:href="#DejaVuSans-30"/>
     <use x="1402.636719" xlink:href="#DejaVuSans-20"/>
     <use x="1434.423828" xlink:href="#DejaVuSans-74"/>
     <use x="1473.632812" xlink:href="#DejaVuSans-72"/>
     <use x="1514.746094" xlink:href="#DejaVuSans-69"/>
     <use x="1542.529297" xlink:href="#DejaVuSans-61"/>
     <use x="1603.808594" xlink:href="#DejaVuSans-6c"/>
     <use x="1631.591797" xlink:href="#DejaVuSans-73"/>
     <use x="1683.691406" xlink:href="#DejaVuSans-2f"/>
     <use x="1717.382812" xlink:href="#DejaVuSans-66"/>
     <use x="1752.587891" xlink:href="#DejaVuSans-75"/>
     <use x="1815.966797" xlink:href="#DejaVuSans-7a"/>
     <use x="1868.457031" xlink:href="#DejaVuSans-7a"/>
     <use x="1920.947266" xlink:href="#DejaVuSans-65"/>
     <use x="1982.470703" xlink:href="#DejaVuSans-72"/>
     <use x="2023.583984" xlink:href="#DejaVuSans-29"/>
    </g>
   </g>
   <g id="legend_1">
    <g id="line2d_18">
     <path d="M 420.810625 30.416562 
L 440.810625 30.416562 
" style="fill:none;stroke:#98df8a;stroke-linecap:square;stroke-width:1.5;"/>
    </g>
    <g id="line2d_19">
     <defs>
      <path d="M -0 3 
L 3 -3 
L -3 -3 
z
" id="m2ceb37efb5" style="stroke:#98df8a;stroke-linejoin:miter;"/>
     </defs>
     <g>
      <use style="fill:#98df8a;stroke:#98df8a;stroke-linejoin:miter;" x="430.810625" xlink:href="#m2ceb37efb5" y="30.416562"/>
     </g>
    </g>
    <g id="text_15">
     <!-- afl_fitness -->
     <g transform="translate(448.810625 33.916562)scale(0.1 -0.1)">
      <use xlink:href="#DejaVuSans-61"/>
      <use x="61.279297" xlink:href="#DejaVuSans-66"/>
      <use x="96.484375" xlink:href="#DejaVuSans-6c"/>
      <use x="124.267578" xlink:href="#DejaVuSans-5f"/>
      <use x="174.267578" xlink:href="#DejaVuSans-66"/>
      <use x="209.472656" xlink:href="#DejaVuSans-69"/>
      <use x="237.255859" xlink:href="#DejaVuSans-74"/>
      <use x="276.464844" xlink:href="#DejaVuSans-6e"/>
      <use x="339.84375" xlink:href="#DejaVuSans-65"/>
      <use x="401.367188" xlink:href="#DejaVuSans-73"/>
      <use x="453.466797" xlink:href="#DejaVuSans-73"/>
     </g>
    </g>
    <g id="line2d_20">
     <path d="M 420.810625 45.372813 
L 440.810625 45.372813 
" style="fill:none;stroke:#1f77b4;stroke-linecap:square;stroke-width:1.5;"/>
    </g>
    <g id="line2d_21">
     <defs>
      <path d="M 0 3 
C 0.795609 3 1.55874 2.683901 2.12132 2.12132 
C 2.683901 1.55874 3 0.795609 3 0 
C 3 -0.795609 2.683901 -1.55874 2.12132 -2.12132 
C 1.55874 -2.683901 0.795609 -3 0 -3 
C -0.795609 -3 -1.55874 -2.683901 -2.12132 -2.12132 
C -2.683901 -1.55874 -3 -0.795609 -3 0 
C -3 0.795609 -2.683901 1.55874 -2.12132 2.12132 
C -1.55874 2.683901 -0.795609 3 0 3 
z
" id="m60884934ba" style="stroke:#1f77b4;"/>
     </defs>
     <g>
      <use style="fill:#1f77b4;stroke:#1f77b4;" x="430.810625" xlink:href="#m60884934ba" y="45.372813"/>
     </g>
    </g>
    <g id="text_16">
     <!-- afl -->
     <g transform="translate(448.810625 48.872813)scale(0.1 -0.1)">
      <use xlink:href="#DejaVuSans-61"/>
      <use x="61.279297" xlink:href="#DejaVuSans-66"/>
      <use x="96.484375" xlink:href="#DejaVuSans-6c"/>
     </g>
    </g>
    <g id="line2d_22">
     <path d="M 420.810625 60.050937 
L 440.810625 60.050937 
" style="fill:none;stroke:#d62728;stroke-linecap:square;stroke-width:1.5;"/>
    </g>
    <g id="line2d_23">
     <defs>
      <path d="M 0 -3 
L -3 3 
L 3 3 
z
" id="m0de19de1ee" style="stroke:#d62728;stroke-linejoin:miter;"/>
     </defs>
     <g>
      <use style="fill:#d62728;stroke:#d62728;stroke-linejoin:miter;" x="430.810625" xlink:href="#m0de19de1ee" y="60.050937"/>
     </g>
    </g>
    <g id="text_17">
     <!-- afl_fitness_only -->
     <g transform="translate(448.810625 63.550937)scale(0.1 -0.1)">
      <defs>
       <path d="M 2059 -325 
Q 1816 -950 1584 -1140 
Q 1353 -1331 966 -1331 
L 506 -1331 
L 506 -850 
L 844 -850 
Q 1081 -850 1212 -737 
Q 1344 -625 1503 -206 
L 1606 56 
L 191 3500 
L 800 3500 
L 1894 763 
L 2988 3500 
L 3597 3500 
L 2059 -325 
z
" id="DejaVuSans-79" transform="scale(0.015625)"/>
      </defs>
      <use xlink:href="#DejaVuSans-61"/>
      <use x="61.279297" xlink:href="#DejaVuSans-66"/>
      <use x="96.484375" xlink:href="#DejaVuSans-6c"/>
      <use x="124.267578" xlink:href="#DejaVuSans-5f"/>
      <use x="174.267578" xlink:href="#DejaVuSans-66"/>
      <use x="209.472656" xlink:href="#DejaVuSans-69"/>
      <use x="237.255859" xlink:href="#DejaVuSans-74"/>
      <use x="276.464844" xlink:href="#DejaVuSans-6e"/>
      <use x="339.84375" xlink:href="#DejaVuSans-65"/>
      <use x="401.367188" xlink:href="#DejaVuSans-73"/>
      <use x="453.466797" xlink:href="#DejaVuSans-73"/>
      <use x="505.566406" xlink:href="#DejaVuSans-5f"/>
      <use x="555.566406" xlink:href="#DejaVuSans-6f"/>
      <use x="616.748047" xlink:href="#DejaVuSans-6e"/>
      <use x="680.126953" xlink:href="#DejaVuSans-6c"/>
      <use x="707.910156" xlink:href="#DejaVuSans-79"/>
     </g>
    </g>
   </g>
  </g>
 </g>
 <defs>
  <clipPath id="p0008057d10">
   <rect height="266.112" width="357.12" x="59.690625" y="22.318125"/>
  </clipPath>
 </defs>
</svg>
