<?xml version="1.0" encoding="utf-8" standalone="no"?>
<!DOCTYPE svg PUBLIC "-//W3C//DTD SVG 1.1//EN"
  "http://www.w3.org/Graphics/SVG/1.1/DTD/svg11.dtd">
<svg height="325.986375pt" version="1.1" viewBox="0 0 536.718438 325.986375" width="536.718438pt" xmlns="http://www.w3.org/2000/svg" xmlns:xlink="http://www.w3.org/1999/xlink">
 <metadata>
  <rdf:RDF xmlns:cc="http://creativecommons.org/ns#" xmlns:dc="http://purl.org/dc/elements/1.1/" xmlns:rdf="http://www.w3.org/1999/02/22-rdf-syntax-ns#">
   <cc:Work>
    <dc:type rdf:resource="http://purl.org/dc/dcmitype/StillImage"/>
    <dc:date>2022-06-02T16:48:20.374317</dc:date>
    <dc:format>image/svg+xml</dc:format>
    <dc:creator>
     <cc:Agent>
      <dc:title>Matplotlib v3.4.3, https://matplotlib.org/</dc:title>
     </cc:Agent>
    </dc:creator>
   </cc:Work>
  </rdf:RDF>
 </metadata>
 <defs>
  <style type="text/css">*{stroke-linecap:butt;stroke-linejoin:round;}</style>
 </defs>
 <g id="figure_1">
  <g id="patch_1">
   <path d="M 0 325.986375 
L 536.718438 325.986375 
L 536.718438 0 
L 0 0 
z
" style="fill:#ffffff;"/>
  </g>
  <g id="axes_1">
   <g id="patch_2">
    <path d="M 59.690625 288.430125 
L 416.810625 288.430125 
L 416.810625 22.318125 
L 59.690625 22.318125 
z
" style="fill:#ffffff;"/>
   </g>
   <g id="PolyCollection_1">
    <defs>
     <path d="M 75.923352 -246.960015 
L 75.923352 -210.03625 
L 125.689806 -240.025897 
L 154.801316 -242.687544 
L 175.45626 -242.898368 
L 191.47748 -243.293662 
L 204.567769 -247.378368 
L 215.635452 -248.669662 
L 225.222714 -251.225897 
L 233.679279 -251.25225 
L 241.243934 -251.278603 
L 248.086996 -260.844721 
L 254.334223 -267.248485 
L 260.081115 -272.387309 
L 265.401906 -272.624485 
L 270.355443 -272.75625 
L 274.989168 -273.125191 
L 279.341883 -273.125191 
L 283.445733 -273.151544 
L 287.327641 -273.388721 
L 291.010388 -273.704956 
L 294.513415 -274.205662 
L 297.85345 -274.258368 
L 301.04499 -274.284721 
L 304.100677 -274.574603 
L 307.031607 -274.653662 
L 309.847569 -274.917191 
L 312.557242 -275.068062 
L 315.168359 -275.259779 
L 317.68784 -277.23625 
L 320.121897 -276.603779 
L 322.476135 -277.262603 
L 324.755622 -277.315309 
L 326.96496 -278.764721 
L 329.108337 -278.791074 
L 331.189579 -278.817426 
L 333.212187 -280.583074 
L 335.179373 -280.363685 
L 337.094095 -280.583074 
L 338.959078 -280.609426 
L 340.776842 -280.658838 
L 342.549717 -280.662132 
L 344.279869 -280.919732 
L 345.969307 -280.688485 
L 347.619904 -280.583074 
L 349.233406 -282.058838 
L 350.811444 -282.401426 
L 352.355542 -282.401426 
L 353.867131 -282.506838 
L 355.347551 -282.401426 
L 356.798061 -282.401426 
L 358.219847 -282.401426 
L 359.614023 -282.401426 
L 360.981642 -282.401426 
L 362.323696 -282.902132 
L 363.641124 -282.717662 
L 364.934813 -282.717662 
L 366.205604 -282.717662 
L 367.454294 -282.609615 
L 368.681636 -282.717662 
L 369.888351 -282.61225 
L 371.075119 -282.717662 
L 372.242589 -282.717662 
L 373.391378 -283.033897 
L 374.522076 -283.033897 
L 375.635243 -283.033897 
L 376.731414 -283.244721 
L 377.8111 -283.244721 
L 378.874791 -283.771779 
L 379.922953 -283.481897 
L 380.956033 -283.481897 
L 381.974459 -284.746838 
L 382.978641 -284.773191 
L 383.968971 -285.010368 
L 384.945827 -286.907779 
L 385.909571 -287.583074 
L 386.860549 -287.856485 
L 387.799096 -287.882838 
L 388.725532 -287.672015 
L 389.640166 -287.935544 
L 390.543295 -287.935544 
L 391.435205 -288.199074 
L 392.316171 -288.712956 
L 393.186458 -288.726132 
L 394.046323 -288.250462 
L 394.896011 -288.726132 
L 395.735761 -288.726132 
L 396.565803 -288.726132 
L 397.386358 -288.726132 
L 398.197642 -288.726132 
L 398.99986 -288.304485 
L 399.793214 -288.752485 
L 400.577898 -288.778838 
L 400.577898 -291.045191 
L 400.577898 -291.045191 
L 399.793214 -291.045191 
L 398.99986 -291.57225 
L 398.197642 -291.57225 
L 397.386358 -291.045191 
L 396.565803 -291.045191 
L 395.735761 -291.026744 
L 394.896011 -291.018838 
L 394.046323 -291.519544 
L 393.186458 -291.018838 
L 392.316171 -291.018838 
L 391.435205 -291.519544 
L 390.543295 -291.018838 
L 389.640166 -291.02345 
L 388.725532 -290.966132 
L 387.799096 -291.018838 
L 386.860549 -290.860721 
L 385.909571 -290.834368 
L 384.945827 -290.835026 
L 383.968971 -290.834368 
L 382.978641 -291.071544 
L 381.974459 -291.071544 
L 380.956033 -290.834368 
L 379.922953 -289.832956 
L 378.874791 -289.595779 
L 377.8111 -289.437662 
L 376.731414 -289.411309 
L 375.635243 -289.411309 
L 374.522076 -289.411309 
L 373.391378 -289.438321 
L 372.242589 -289.411309 
L 371.075119 -289.200485 
L 369.888351 -289.042368 
L 368.681636 -289.042368 
L 367.454294 -289.042368 
L 366.205604 -289.042368 
L 364.934813 -288.726132 
L 363.641124 -288.726132 
L 362.323696 -288.726132 
L 360.981642 -288.304485 
L 359.614023 -288.278791 
L 358.219847 -288.251779 
L 356.798061 -288.251779 
L 355.347551 -288.251779 
L 353.867131 -288.226085 
L 352.355542 -288.093662 
L 350.811444 -287.592956 
L 349.233406 -287.54025 
L 347.619904 -287.54025 
L 345.969307 -287.462509 
L 344.279869 -287.434838 
L 342.549717 -287.434838 
L 340.776842 -287.434838 
L 338.959078 -287.09225 
L 337.094095 -286.934132 
L 335.179373 -286.566509 
L 333.212187 -286.539497 
L 331.189579 -286.512485 
L 329.108337 -286.152768 
L 326.96496 -286.143544 
L 324.755622 -286.090838 
L 322.476135 -284.008956 
L 320.121897 -282.137897 
L 317.68784 -282.006132 
L 315.168359 -281.347309 
L 312.557242 -281.454038 
L 309.847569 -281.320956 
L 307.031607 -281.320956 
L 304.100677 -281.320956 
L 301.04499 -281.270885 
L 297.85345 -281.400015 
L 294.513415 -281.241897 
L 291.010388 -281.083779 
L 287.327641 -281.004721 
L 283.445733 -281.031074 
L 279.341883 -280.978368 
L 274.989168 -280.793897 
L 270.355443 -280.187779 
L 265.401906 -280.083026 
L 260.081115 -279.950603 
L 254.334223 -279.215356 
L 248.086996 -278.896485 
L 241.243934 -276.682838 
L 233.679279 -276.603779 
L 225.222714 -275.338838 
L 215.635452 -274.126603 
L 204.567769 -273.573191 
L 191.47748 -270.753426 
L 175.45626 -269.725662 
L 154.801316 -265.820156 
L 125.689806 -260.001426 
L 75.923352 -246.960015 
z
" id="mcc1b8142b5" style="stroke:#1f77b4;stroke-opacity:0.2;"/>
    </defs>
    <g clip-path="url(#pdc3be376dd)">
     <use style="fill:#1f77b4;fill-opacity:0.2;stroke:#1f77b4;stroke-opacity:0.2;" x="0" xlink:href="#mcc1b8142b5" y="325.986375"/>
    </g>
   </g>
   <g id="PolyCollection_2">
    <defs>
     <path d="M 75.923352 -233.78025 
L 75.923352 -218.073897 
L 125.689806 -235.203309 
L 154.801316 -236.679074 
L 175.45626 -239.841426 
L 191.47748 -238.866368 
L 204.567769 -245.112015 
L 215.635452 -245.665426 
L 225.222714 -246.350603 
L 233.679279 -248.643309 
L 241.243934 -248.854132 
L 248.086996 -248.959544 
L 254.334223 -249.934603 
L 260.081115 -249.354838 
L 265.401906 -249.486603 
L 270.355443 -251.146838 
L 274.989168 -253.307779 
L 279.341883 -262.373191 
L 283.445733 -265.983544 
L 287.327641 -270.410838 
L 291.010388 -272.571779 
L 294.513415 -273.072485 
L 297.85345 -272.387309 
L 301.04499 -272.993426 
L 304.100677 -272.983544 
L 307.031607 -273.046132 
L 309.847569 -273.20425 
L 312.557242 -274.337426 
L 315.168359 -274.943544 
L 317.68784 -276.313897 
L 320.121897 -276.893662 
L 322.476135 -276.893662 
L 324.755622 -277.051779 
L 326.96496 -277.130838 
L 329.108337 -277.130838 
L 331.189579 -277.130838 
L 333.212187 -277.157191 
L 335.179373 -277.234274 
L 337.094095 -278.237662 
L 338.959078 -280.856485 
L 340.776842 -281.795309 
L 342.549717 -281.795309 
L 344.279869 -281.979779 
L 345.969307 -282.006132 
L 347.619904 -282.032485 
L 349.233406 -282.032485 
L 350.811444 -282.216956 
L 352.355542 -282.269662 
L 353.867131 -280.97705 
L 355.347551 -282.269662 
L 356.798061 -282.744015 
L 358.219847 -282.744015 
L 359.614023 -283.086603 
L 360.981642 -283.086603 
L 362.323696 -283.086603 
L 363.641124 -283.481897 
L 364.934813 -284.008956 
L 366.205604 -284.008956 
L 367.454294 -284.114368 
L 368.681636 -284.114368 
L 369.888351 -284.061662 
L 371.075119 -284.167074 
L 372.242589 -284.377897 
L 373.391378 -284.364062 
L 374.522076 -284.509662 
L 375.635243 -284.509662 
L 376.731414 -284.799544 
L 377.8111 -284.799544 
L 378.874791 -284.799544 
L 379.922953 -284.799544 
L 380.956033 -284.799544 
L 381.974459 -284.799544 
L 382.978641 -284.799544 
L 383.968971 -284.799544 
L 384.945827 -284.79625 
L 385.909571 -285.142132 
L 386.860549 -284.799544 
L 387.799096 -284.799544 
L 388.725532 -285.010368 
L 389.640166 -285.194838 
L 390.543295 -285.194838 
L 391.435205 -285.194838 
L 392.316171 -285.194838 
L 393.186458 -285.221191 
L 394.046323 -285.221191 
L 394.896011 -285.221191 
L 395.735761 -285.221191 
L 396.565803 -285.221191 
L 397.386358 -285.458368 
L 398.197642 -285.458368 
L 398.99986 -285.24425 
L 399.793214 -285.326603 
L 400.577898 -285.326603 
L 400.577898 -290.360015 
L 400.577898 -290.360015 
L 399.793214 -290.67625 
L 398.99986 -290.360015 
L 398.197642 -290.360015 
L 397.386358 -290.360015 
L 396.565803 -290.360015 
L 395.735761 -290.254603 
L 394.896011 -290.465426 
L 394.046323 -290.465426 
L 393.186458 -290.122838 
L 392.316171 -290.149191 
L 391.435205 -290.096485 
L 390.543295 -290.149191 
L 389.640166 -290.096485 
L 388.725532 -290.096485 
L 387.799096 -290.149191 
L 386.860549 -290.096485 
L 385.909571 -290.017426 
L 384.945827 -290.017426 
L 383.968971 -290.018085 
L 382.978641 -289.964721 
L 381.974459 -290.149191 
L 380.956033 -290.017426 
L 379.922953 -290.046415 
L 378.874791 -290.017426 
L 377.8111 -290.017426 
L 376.731414 -290.017426 
L 375.635243 -290.149191 
L 374.522076 -290.149191 
L 373.391378 -289.808579 
L 372.242589 -289.806603 
L 371.075119 -289.806603 
L 369.888351 -289.727544 
L 368.681636 -289.753897 
L 367.454294 -289.753897 
L 366.205604 -289.753897 
L 364.934813 -289.674838 
L 363.641124 -289.622132 
L 362.323696 -289.622132 
L 360.981642 -289.622132 
L 359.614023 -289.622132 
L 358.219847 -289.622132 
L 356.798061 -289.622132 
L 355.347551 -289.569426 
L 353.867131 -289.464015 
L 352.355542 -289.516721 
L 350.811444 -289.516721 
L 349.233406 -289.464015 
L 347.619904 -289.306556 
L 345.969307 -289.305897 
L 344.279869 -289.147779 
L 342.549717 -289.042368 
L 340.776842 -288.014603 
L 338.959078 -288.014603 
L 337.094095 -286.565191 
L 335.179373 -286.802368 
L 333.212187 -286.038132 
L 331.189579 -285.721897 
L 329.108337 -285.590132 
L 326.96496 -285.405662 
L 324.755622 -285.273897 
L 322.476135 -285.30025 
L 320.121897 -284.90825 
L 317.68784 -284.694132 
L 315.168359 -284.008956 
L 312.557242 -283.798132 
L 309.847569 -283.640015 
L 307.031607 -283.613662 
L 304.100677 -282.575356 
L 301.04499 -282.322368 
L 297.85345 -282.269662 
L 294.513415 -280.767544 
L 291.010388 -279.660721 
L 287.327641 -279.634368 
L 283.445733 -278.211309 
L 279.341883 -278.188909 
L 274.989168 -276.313897 
L 270.355443 -276.050368 
L 265.401906 -275.602368 
L 260.081115 -275.180721 
L 254.334223 -275.180721 
L 248.086996 -274.890838 
L 241.243934 -274.469191 
L 233.679279 -273.863074 
L 225.222714 -272.344485 
L 215.635452 -271.965662 
L 204.567769 -271.016956 
L 191.47748 -267.38025 
L 175.45626 -266.747779 
L 154.801316 -260.370368 
L 125.689806 -245.612721 
L 75.923352 -233.78025 
z
" id="m08ea2c8918" style="stroke:#98df8a;stroke-opacity:0.2;"/>
    </defs>
    <g clip-path="url(#pdc3be376dd)">
     <use style="fill:#98df8a;fill-opacity:0.2;stroke:#98df8a;stroke-opacity:0.2;" x="0" xlink:href="#m08ea2c8918" y="325.986375"/>
    </g>
   </g>
   <g id="PolyCollection_3">
    <defs>
     <path d="M 75.923352 -85.334132 
L 75.923352 -49.65225 
L 125.689806 -49.968485 
L 154.801316 -50.047544 
L 175.45626 -50.047544 
L 191.47748 -50.047544 
L 204.567769 -50.073897 
L 215.635452 -50.073897 
L 225.222714 -50.073897 
L 233.679279 -50.073897 
L 241.243934 -50.073897 
L 248.086996 -52.313897 
L 254.334223 -52.313897 
L 260.081115 -52.313897 
L 265.401906 -62.248956 
L 270.355443 -64.488956 
L 274.989168 -64.488956 
L 279.341883 -54.553897 
L 283.445733 -64.488956 
L 287.327641 -64.441521 
L 291.010388 -64.488956 
L 294.513415 -64.488956 
L 297.85345 -64.488956 
L 301.04499 -64.488956 
L 304.100677 -64.726132 
L 307.031607 -64.726132 
L 309.847569 -76.795779 
L 312.557242 -76.795779 
L 315.168359 -76.795779 
L 317.68784 -76.795779 
L 320.121897 -74.424015 
L 322.476135 -76.795779 
L 324.755622 -76.795779 
L 326.96496 -76.795779 
L 329.108337 -76.795779 
L 331.189579 -76.795779 
L 333.212187 -76.795779 
L 335.179373 -76.795779 
L 337.094095 -76.795779 
L 338.959078 -79.167544 
L 340.776842 -81.354838 
L 342.549717 -81.354838 
L 344.279869 -81.354838 
L 345.969307 -82.751544 
L 347.619904 -82.751544 
L 349.233406 -82.751544 
L 350.811444 -82.751544 
L 352.355542 -82.751544 
L 353.867131 -81.960956 
L 355.347551 -82.751544 
L 356.798061 -83.034179 
L 358.219847 -82.751544 
L 359.614023 -83.489426 
L 360.981642 -83.489426 
L 362.323696 -83.489426 
L 363.641124 -83.489426 
L 364.934813 -83.489426 
L 366.205604 -83.489426 
L 367.454294 -83.436721 
L 368.681636 -83.489426 
L 369.888351 -83.489426 
L 371.075119 -83.489426 
L 372.242589 -83.489426 
L 373.391378 -83.489426 
L 374.522076 -83.489426 
L 375.635243 -83.489426 
L 376.731414 -83.436721 
L 377.8111 -83.489426 
L 378.874791 -83.489426 
L 379.922953 -83.489426 
L 380.956033 -83.436721 
L 381.974459 -83.489426 
L 382.978641 -83.489426 
L 383.968971 -83.489426 
L 384.945827 -83.621191 
L 385.909571 -83.70025 
L 386.860549 -83.621191 
L 387.799096 -83.542132 
L 388.725532 -83.619215 
L 389.640166 -83.621191 
L 390.543295 -83.621191 
L 391.435205 -83.621191 
L 392.316171 -83.542132 
L 393.186458 -83.621191 
L 394.046323 -83.621191 
L 394.896011 -83.621191 
L 395.735761 -83.621191 
L 396.565803 -83.621191 
L 397.386358 -83.621191 
L 398.197642 -83.621191 
L 398.99986 -83.621191 
L 399.793214 -83.621191 
L 400.577898 -83.621191 
L 400.577898 -97.456485 
L 400.577898 -97.456485 
L 399.793214 -97.456485 
L 398.99986 -97.245662 
L 398.197642 -97.456485 
L 397.386358 -97.456485 
L 396.565803 -97.456485 
L 395.735761 -97.456485 
L 394.896011 -97.456485 
L 394.046323 -97.456485 
L 393.186458 -97.456485 
L 392.316171 -97.456485 
L 391.435205 -97.456485 
L 390.543295 -97.456485 
L 389.640166 -97.667309 
L 388.725532 -97.456485 
L 387.799096 -97.456485 
L 386.860549 -97.456485 
L 385.909571 -97.456485 
L 384.945827 -97.456485 
L 383.968971 -97.456485 
L 382.978641 -97.456485 
L 381.974459 -97.456485 
L 380.956033 -97.456485 
L 379.922953 -97.614603 
L 378.874791 -97.615921 
L 377.8111 -97.456485 
L 376.731414 -97.456485 
L 375.635243 -97.615921 
L 374.522076 -97.456485 
L 373.391378 -97.456485 
L 372.242589 -97.456485 
L 371.075119 -97.667309 
L 369.888351 -97.615921 
L 368.681636 -97.456485 
L 367.454294 -97.456485 
L 366.205604 -97.456485 
L 364.934813 -97.667309 
L 363.641124 -97.456485 
L 362.323696 -97.456485 
L 360.981642 -97.456485 
L 359.614023 -97.456485 
L 358.219847 -97.456485 
L 356.798061 -97.456485 
L 355.347551 -97.456485 
L 353.867131 -97.456485 
L 352.355542 -97.456485 
L 350.811444 -97.245662 
L 349.233406 -97.245662 
L 347.619904 -96.929426 
L 345.969307 -96.929426 
L 344.279869 -96.722556 
L 342.549717 -95.793615 
L 340.776842 -96.665897 
L 338.959078 -95.216485 
L 337.094095 -95.062321 
L 335.179373 -95.216485 
L 333.212187 -95.216485 
L 331.189579 -94.715779 
L 329.108337 -93.740721 
L 326.96496 -94.715779 
L 324.755622 -93.740721 
L 322.476135 -93.740721 
L 320.121897 -93.753897 
L 317.68784 -93.753897 
L 315.168359 -93.740721 
L 312.557242 -94.584015 
L 309.847569 -93.761803 
L 307.031607 -92.449426 
L 304.100677 -92.66025 
L 301.04499 -92.662885 
L 297.85345 -92.449426 
L 294.513415 -92.449426 
L 291.010388 -92.454697 
L 287.327641 -92.449426 
L 283.445733 -91.790603 
L 279.341883 -91.790603 
L 274.989168 -91.790603 
L 270.355443 -91.790603 
L 265.401906 -91.790603 
L 260.081115 -91.026368 
L 254.334223 -91.026368 
L 248.086996 -90.615262 
L 241.243934 -86.757191 
L 233.679279 -86.809897 
L 225.222714 -86.809897 
L 215.635452 -86.757191 
L 204.567769 -86.757191 
L 191.47748 -86.758509 
L 175.45626 -86.704485 
L 154.801316 -85.834838 
L 125.689806 -85.755779 
L 75.923352 -85.334132 
z
" id="m881c06e53f" style="stroke:#d62728;stroke-opacity:0.2;"/>
    </defs>
    <g clip-path="url(#pdc3be376dd)">
     <use style="fill:#d62728;fill-opacity:0.2;stroke:#d62728;stroke-opacity:0.2;" x="0" xlink:href="#m881c06e53f" y="325.986375"/>
    </g>
   </g>
   <g id="matplotlib.axis_1">
    <g id="xtick_1">
     <g id="line2d_1">
      <defs>
       <path d="M 0 0 
L 0 3.5 
" id="mb59a4247d0" style="stroke:#000000;stroke-width:0.8;"/>
      </defs>
      <g>
       <use style="stroke:#000000;stroke-width:0.8;" x="75.923352" xlink:href="#mb59a4247d0" y="288.430125"/>
      </g>
     </g>
     <g id="text_1">
      <!-- 14m -->
      <g transform="translate(64.69054 303.028562)scale(0.1 -0.1)">
       <defs>
        <path d="M 794 531 
L 1825 531 
L 1825 4091 
L 703 3866 
L 703 4441 
L 1819 4666 
L 2450 4666 
L 2450 531 
L 3481 531 
L 3481 0 
L 794 0 
L 794 531 
z
" id="DejaVuSans-31" transform="scale(0.015625)"/>
        <path d="M 2419 4116 
L 825 1625 
L 2419 1625 
L 2419 4116 
z
M 2253 4666 
L 3047 4666 
L 3047 1625 
L 3713 1625 
L 3713 1100 
L 3047 1100 
L 3047 0 
L 2419 0 
L 2419 1100 
L 313 1100 
L 313 1709 
L 2253 4666 
z
" id="DejaVuSans-34" transform="scale(0.015625)"/>
        <path d="M 3328 2828 
Q 3544 3216 3844 3400 
Q 4144 3584 4550 3584 
Q 5097 3584 5394 3201 
Q 5691 2819 5691 2113 
L 5691 0 
L 5113 0 
L 5113 2094 
Q 5113 2597 4934 2840 
Q 4756 3084 4391 3084 
Q 3944 3084 3684 2787 
Q 3425 2491 3425 1978 
L 3425 0 
L 2847 0 
L 2847 2094 
Q 2847 2600 2669 2842 
Q 2491 3084 2119 3084 
Q 1678 3084 1418 2786 
Q 1159 2488 1159 1978 
L 1159 0 
L 581 0 
L 581 3500 
L 1159 3500 
L 1159 2956 
Q 1356 3278 1631 3431 
Q 1906 3584 2284 3584 
Q 2666 3584 2933 3390 
Q 3200 3197 3328 2828 
z
" id="DejaVuSans-6d" transform="scale(0.015625)"/>
       </defs>
       <use xlink:href="#DejaVuSans-31"/>
       <use x="63.623047" xlink:href="#DejaVuSans-34"/>
       <use x="127.246094" xlink:href="#DejaVuSans-6d"/>
      </g>
     </g>
    </g>
    <g id="xtick_2">
     <g id="line2d_2">
      <g>
       <use style="stroke:#000000;stroke-width:0.8;" x="140.854435" xlink:href="#mb59a4247d0" y="288.430125"/>
      </g>
     </g>
     <g id="text_2">
      <!-- 37m -->
      <g transform="translate(129.621622 303.028562)scale(0.1 -0.1)">
       <defs>
        <path d="M 2597 2516 
Q 3050 2419 3304 2112 
Q 3559 1806 3559 1356 
Q 3559 666 3084 287 
Q 2609 -91 1734 -91 
Q 1441 -91 1130 -33 
Q 819 25 488 141 
L 488 750 
Q 750 597 1062 519 
Q 1375 441 1716 441 
Q 2309 441 2620 675 
Q 2931 909 2931 1356 
Q 2931 1769 2642 2001 
Q 2353 2234 1838 2234 
L 1294 2234 
L 1294 2753 
L 1863 2753 
Q 2328 2753 2575 2939 
Q 2822 3125 2822 3475 
Q 2822 3834 2567 4026 
Q 2313 4219 1838 4219 
Q 1578 4219 1281 4162 
Q 984 4106 628 3988 
L 628 4550 
Q 988 4650 1302 4700 
Q 1616 4750 1894 4750 
Q 2613 4750 3031 4423 
Q 3450 4097 3450 3541 
Q 3450 3153 3228 2886 
Q 3006 2619 2597 2516 
z
" id="DejaVuSans-33" transform="scale(0.015625)"/>
        <path d="M 525 4666 
L 3525 4666 
L 3525 4397 
L 1831 0 
L 1172 0 
L 2766 4134 
L 525 4134 
L 525 4666 
z
" id="DejaVuSans-37" transform="scale(0.015625)"/>
       </defs>
       <use xlink:href="#DejaVuSans-33"/>
       <use x="63.623047" xlink:href="#DejaVuSans-37"/>
       <use x="127.246094" xlink:href="#DejaVuSans-6d"/>
      </g>
     </g>
    </g>
    <g id="xtick_3">
     <g id="line2d_3">
      <g>
       <use style="stroke:#000000;stroke-width:0.8;" x="205.785517" xlink:href="#mb59a4247d0" y="288.430125"/>
      </g>
     </g>
     <g id="text_3">
      <!-- 1h:31m -->
      <g transform="translate(186.51833 303.028562)scale(0.1 -0.1)">
       <defs>
        <path d="M 3513 2113 
L 3513 0 
L 2938 0 
L 2938 2094 
Q 2938 2591 2744 2837 
Q 2550 3084 2163 3084 
Q 1697 3084 1428 2787 
Q 1159 2491 1159 1978 
L 1159 0 
L 581 0 
L 581 4863 
L 1159 4863 
L 1159 2956 
Q 1366 3272 1645 3428 
Q 1925 3584 2291 3584 
Q 2894 3584 3203 3211 
Q 3513 2838 3513 2113 
z
" id="DejaVuSans-68" transform="scale(0.015625)"/>
        <path d="M 750 794 
L 1409 794 
L 1409 0 
L 750 0 
L 750 794 
z
M 750 3309 
L 1409 3309 
L 1409 2516 
L 750 2516 
L 750 3309 
z
" id="DejaVuSans-3a" transform="scale(0.015625)"/>
       </defs>
       <use xlink:href="#DejaVuSans-31"/>
       <use x="63.623047" xlink:href="#DejaVuSans-68"/>
       <use x="127.001953" xlink:href="#DejaVuSans-3a"/>
       <use x="160.693359" xlink:href="#DejaVuSans-33"/>
       <use x="224.316406" xlink:href="#DejaVuSans-31"/>
       <use x="287.939453" xlink:href="#DejaVuSans-6d"/>
      </g>
     </g>
    </g>
    <g id="xtick_4">
     <g id="line2d_4">
      <g>
       <use style="stroke:#000000;stroke-width:0.8;" x="270.7166" xlink:href="#mb59a4247d0" y="288.430125"/>
      </g>
     </g>
     <g id="text_4">
      <!-- 3h:46m -->
      <g transform="translate(251.449412 303.028562)scale(0.1 -0.1)">
       <defs>
        <path d="M 2113 2584 
Q 1688 2584 1439 2293 
Q 1191 2003 1191 1497 
Q 1191 994 1439 701 
Q 1688 409 2113 409 
Q 2538 409 2786 701 
Q 3034 994 3034 1497 
Q 3034 2003 2786 2293 
Q 2538 2584 2113 2584 
z
M 3366 4563 
L 3366 3988 
Q 3128 4100 2886 4159 
Q 2644 4219 2406 4219 
Q 1781 4219 1451 3797 
Q 1122 3375 1075 2522 
Q 1259 2794 1537 2939 
Q 1816 3084 2150 3084 
Q 2853 3084 3261 2657 
Q 3669 2231 3669 1497 
Q 3669 778 3244 343 
Q 2819 -91 2113 -91 
Q 1303 -91 875 529 
Q 447 1150 447 2328 
Q 447 3434 972 4092 
Q 1497 4750 2381 4750 
Q 2619 4750 2861 4703 
Q 3103 4656 3366 4563 
z
" id="DejaVuSans-36" transform="scale(0.015625)"/>
       </defs>
       <use xlink:href="#DejaVuSans-33"/>
       <use x="63.623047" xlink:href="#DejaVuSans-68"/>
       <use x="127.001953" xlink:href="#DejaVuSans-3a"/>
       <use x="160.693359" xlink:href="#DejaVuSans-34"/>
       <use x="224.316406" xlink:href="#DejaVuSans-36"/>
       <use x="287.939453" xlink:href="#DejaVuSans-6d"/>
      </g>
     </g>
    </g>
    <g id="xtick_5">
     <g id="line2d_5">
      <g>
       <use style="stroke:#000000;stroke-width:0.8;" x="335.647682" xlink:href="#mb59a4247d0" y="288.430125"/>
      </g>
     </g>
     <g id="text_5">
      <!-- 9h:18m -->
      <g transform="translate(316.380495 303.028562)scale(0.1 -0.1)">
       <defs>
        <path d="M 703 97 
L 703 672 
Q 941 559 1184 500 
Q 1428 441 1663 441 
Q 2288 441 2617 861 
Q 2947 1281 2994 2138 
Q 2813 1869 2534 1725 
Q 2256 1581 1919 1581 
Q 1219 1581 811 2004 
Q 403 2428 403 3163 
Q 403 3881 828 4315 
Q 1253 4750 1959 4750 
Q 2769 4750 3195 4129 
Q 3622 3509 3622 2328 
Q 3622 1225 3098 567 
Q 2575 -91 1691 -91 
Q 1453 -91 1209 -44 
Q 966 3 703 97 
z
M 1959 2075 
Q 2384 2075 2632 2365 
Q 2881 2656 2881 3163 
Q 2881 3666 2632 3958 
Q 2384 4250 1959 4250 
Q 1534 4250 1286 3958 
Q 1038 3666 1038 3163 
Q 1038 2656 1286 2365 
Q 1534 2075 1959 2075 
z
" id="DejaVuSans-39" transform="scale(0.015625)"/>
        <path d="M 2034 2216 
Q 1584 2216 1326 1975 
Q 1069 1734 1069 1313 
Q 1069 891 1326 650 
Q 1584 409 2034 409 
Q 2484 409 2743 651 
Q 3003 894 3003 1313 
Q 3003 1734 2745 1975 
Q 2488 2216 2034 2216 
z
M 1403 2484 
Q 997 2584 770 2862 
Q 544 3141 544 3541 
Q 544 4100 942 4425 
Q 1341 4750 2034 4750 
Q 2731 4750 3128 4425 
Q 3525 4100 3525 3541 
Q 3525 3141 3298 2862 
Q 3072 2584 2669 2484 
Q 3125 2378 3379 2068 
Q 3634 1759 3634 1313 
Q 3634 634 3220 271 
Q 2806 -91 2034 -91 
Q 1263 -91 848 271 
Q 434 634 434 1313 
Q 434 1759 690 2068 
Q 947 2378 1403 2484 
z
M 1172 3481 
Q 1172 3119 1398 2916 
Q 1625 2713 2034 2713 
Q 2441 2713 2670 2916 
Q 2900 3119 2900 3481 
Q 2900 3844 2670 4047 
Q 2441 4250 2034 4250 
Q 1625 4250 1398 4047 
Q 1172 3844 1172 3481 
z
" id="DejaVuSans-38" transform="scale(0.015625)"/>
       </defs>
       <use xlink:href="#DejaVuSans-39"/>
       <use x="63.623047" xlink:href="#DejaVuSans-68"/>
       <use x="127.001953" xlink:href="#DejaVuSans-3a"/>
       <use x="160.693359" xlink:href="#DejaVuSans-31"/>
       <use x="224.316406" xlink:href="#DejaVuSans-38"/>
       <use x="287.939453" xlink:href="#DejaVuSans-6d"/>
      </g>
     </g>
    </g>
    <g id="xtick_6">
     <g id="line2d_6">
      <g>
       <use style="stroke:#000000;stroke-width:0.8;" x="400.578765" xlink:href="#mb59a4247d0" y="288.430125"/>
      </g>
     </g>
     <g id="text_6">
      <!-- 23h -->
      <g transform="translate(391.047515 303.028562)scale(0.1 -0.1)">
       <defs>
        <path d="M 1228 531 
L 3431 531 
L 3431 0 
L 469 0 
L 469 531 
Q 828 903 1448 1529 
Q 2069 2156 2228 2338 
Q 2531 2678 2651 2914 
Q 2772 3150 2772 3378 
Q 2772 3750 2511 3984 
Q 2250 4219 1831 4219 
Q 1534 4219 1204 4116 
Q 875 4013 500 3803 
L 500 4441 
Q 881 4594 1212 4672 
Q 1544 4750 1819 4750 
Q 2544 4750 2975 4387 
Q 3406 4025 3406 3419 
Q 3406 3131 3298 2873 
Q 3191 2616 2906 2266 
Q 2828 2175 2409 1742 
Q 1991 1309 1228 531 
z
" id="DejaVuSans-32" transform="scale(0.015625)"/>
       </defs>
       <use xlink:href="#DejaVuSans-32"/>
       <use x="63.623047" xlink:href="#DejaVuSans-33"/>
       <use x="127.246094" xlink:href="#DejaVuSans-68"/>
      </g>
     </g>
    </g>
    <g id="xtick_7">
     <g id="line2d_7">
      <defs>
       <path d="M 0 0 
L 0 2 
" id="mbabf30903c" style="stroke:#000000;stroke-width:0.6;"/>
      </defs>
      <g>
       <use style="stroke:#000000;stroke-width:0.6;" x="67.466788" xlink:href="#mbabf30903c" y="288.430125"/>
      </g>
     </g>
    </g>
    <g id="xtick_8">
     <g id="line2d_8">
      <g>
       <use style="stroke:#000000;stroke-width:0.6;" x="133.254461" xlink:href="#mbabf30903c" y="288.430125"/>
      </g>
     </g>
    </g>
    <g id="xtick_9">
     <g id="line2d_9">
      <g>
       <use style="stroke:#000000;stroke-width:0.6;" x="162.36597" xlink:href="#mbabf30903c" y="288.430125"/>
      </g>
     </g>
    </g>
    <g id="xtick_10">
     <g id="line2d_10">
      <g>
       <use style="stroke:#000000;stroke-width:0.6;" x="183.020915" xlink:href="#mbabf30903c" y="288.430125"/>
      </g>
     </g>
    </g>
    <g id="xtick_11">
     <g id="line2d_11">
      <g>
       <use style="stroke:#000000;stroke-width:0.6;" x="199.042135" xlink:href="#mbabf30903c" y="288.430125"/>
      </g>
     </g>
    </g>
    <g id="xtick_12">
     <g id="line2d_12">
      <g>
       <use style="stroke:#000000;stroke-width:0.6;" x="212.132424" xlink:href="#mbabf30903c" y="288.430125"/>
      </g>
     </g>
    </g>
    <g id="xtick_13">
     <g id="line2d_13">
      <g>
       <use style="stroke:#000000;stroke-width:0.6;" x="223.200107" xlink:href="#mbabf30903c" y="288.430125"/>
      </g>
     </g>
    </g>
    <g id="xtick_14">
     <g id="line2d_14">
      <g>
       <use style="stroke:#000000;stroke-width:0.6;" x="232.787369" xlink:href="#mbabf30903c" y="288.430125"/>
      </g>
     </g>
    </g>
    <g id="xtick_15">
     <g id="line2d_15">
      <g>
       <use style="stroke:#000000;stroke-width:0.6;" x="241.243934" xlink:href="#mbabf30903c" y="288.430125"/>
      </g>
     </g>
    </g>
    <g id="xtick_16">
     <g id="line2d_16">
      <g>
       <use style="stroke:#000000;stroke-width:0.6;" x="298.575043" xlink:href="#mbabf30903c" y="288.430125"/>
      </g>
     </g>
    </g>
    <g id="xtick_17">
     <g id="line2d_17">
      <g>
       <use style="stroke:#000000;stroke-width:0.6;" x="327.686552" xlink:href="#mbabf30903c" y="288.430125"/>
      </g>
     </g>
    </g>
    <g id="xtick_18">
     <g id="line2d_18">
      <g>
       <use style="stroke:#000000;stroke-width:0.6;" x="348.341496" xlink:href="#mbabf30903c" y="288.430125"/>
      </g>
     </g>
    </g>
    <g id="xtick_19">
     <g id="line2d_19">
      <g>
       <use style="stroke:#000000;stroke-width:0.6;" x="364.362716" xlink:href="#mbabf30903c" y="288.430125"/>
      </g>
     </g>
    </g>
    <g id="xtick_20">
     <g id="line2d_20">
      <g>
       <use style="stroke:#000000;stroke-width:0.6;" x="377.453006" xlink:href="#mbabf30903c" y="288.430125"/>
      </g>
     </g>
    </g>
    <g id="xtick_21">
     <g id="line2d_21">
      <g>
       <use style="stroke:#000000;stroke-width:0.6;" x="388.520688" xlink:href="#mbabf30903c" y="288.430125"/>
      </g>
     </g>
    </g>
    <g id="xtick_22">
     <g id="line2d_22">
      <g>
       <use style="stroke:#000000;stroke-width:0.6;" x="398.10795" xlink:href="#mbabf30903c" y="288.430125"/>
      </g>
     </g>
    </g>
    <g id="xtick_23">
     <g id="line2d_23">
      <g>
       <use style="stroke:#000000;stroke-width:0.6;" x="406.564515" xlink:href="#mbabf30903c" y="288.430125"/>
      </g>
     </g>
    </g>
    <g id="text_7">
     <!-- Time (hour:minute) -->
     <g transform="translate(189.843594 316.706687)scale(0.1 -0.1)">
      <defs>
       <path d="M -19 4666 
L 3928 4666 
L 3928 4134 
L 2272 4134 
L 2272 0 
L 1638 0 
L 1638 4134 
L -19 4134 
L -19 4666 
z
" id="DejaVuSans-54" transform="scale(0.015625)"/>
       <path d="M 603 3500 
L 1178 3500 
L 1178 0 
L 603 0 
L 603 3500 
z
M 603 4863 
L 1178 4863 
L 1178 4134 
L 603 4134 
L 603 4863 
z
" id="DejaVuSans-69" transform="scale(0.015625)"/>
       <path d="M 3597 1894 
L 3597 1613 
L 953 1613 
Q 991 1019 1311 708 
Q 1631 397 2203 397 
Q 2534 397 2845 478 
Q 3156 559 3463 722 
L 3463 178 
Q 3153 47 2828 -22 
Q 2503 -91 2169 -91 
Q 1331 -91 842 396 
Q 353 884 353 1716 
Q 353 2575 817 3079 
Q 1281 3584 2069 3584 
Q 2775 3584 3186 3129 
Q 3597 2675 3597 1894 
z
M 3022 2063 
Q 3016 2534 2758 2815 
Q 2500 3097 2075 3097 
Q 1594 3097 1305 2825 
Q 1016 2553 972 2059 
L 3022 2063 
z
" id="DejaVuSans-65" transform="scale(0.015625)"/>
       <path id="DejaVuSans-20" transform="scale(0.015625)"/>
       <path d="M 1984 4856 
Q 1566 4138 1362 3434 
Q 1159 2731 1159 2009 
Q 1159 1288 1364 580 
Q 1569 -128 1984 -844 
L 1484 -844 
Q 1016 -109 783 600 
Q 550 1309 550 2009 
Q 550 2706 781 3412 
Q 1013 4119 1484 4856 
L 1984 4856 
z
" id="DejaVuSans-28" transform="scale(0.015625)"/>
       <path d="M 1959 3097 
Q 1497 3097 1228 2736 
Q 959 2375 959 1747 
Q 959 1119 1226 758 
Q 1494 397 1959 397 
Q 2419 397 2687 759 
Q 2956 1122 2956 1747 
Q 2956 2369 2687 2733 
Q 2419 3097 1959 3097 
z
M 1959 3584 
Q 2709 3584 3137 3096 
Q 3566 2609 3566 1747 
Q 3566 888 3137 398 
Q 2709 -91 1959 -91 
Q 1206 -91 779 398 
Q 353 888 353 1747 
Q 353 2609 779 3096 
Q 1206 3584 1959 3584 
z
" id="DejaVuSans-6f" transform="scale(0.015625)"/>
       <path d="M 544 1381 
L 544 3500 
L 1119 3500 
L 1119 1403 
Q 1119 906 1312 657 
Q 1506 409 1894 409 
Q 2359 409 2629 706 
Q 2900 1003 2900 1516 
L 2900 3500 
L 3475 3500 
L 3475 0 
L 2900 0 
L 2900 538 
Q 2691 219 2414 64 
Q 2138 -91 1772 -91 
Q 1169 -91 856 284 
Q 544 659 544 1381 
z
M 1991 3584 
L 1991 3584 
z
" id="DejaVuSans-75" transform="scale(0.015625)"/>
       <path d="M 2631 2963 
Q 2534 3019 2420 3045 
Q 2306 3072 2169 3072 
Q 1681 3072 1420 2755 
Q 1159 2438 1159 1844 
L 1159 0 
L 581 0 
L 581 3500 
L 1159 3500 
L 1159 2956 
Q 1341 3275 1631 3429 
Q 1922 3584 2338 3584 
Q 2397 3584 2469 3576 
Q 2541 3569 2628 3553 
L 2631 2963 
z
" id="DejaVuSans-72" transform="scale(0.015625)"/>
       <path d="M 3513 2113 
L 3513 0 
L 2938 0 
L 2938 2094 
Q 2938 2591 2744 2837 
Q 2550 3084 2163 3084 
Q 1697 3084 1428 2787 
Q 1159 2491 1159 1978 
L 1159 0 
L 581 0 
L 581 3500 
L 1159 3500 
L 1159 2956 
Q 1366 3272 1645 3428 
Q 1925 3584 2291 3584 
Q 2894 3584 3203 3211 
Q 3513 2838 3513 2113 
z
" id="DejaVuSans-6e" transform="scale(0.015625)"/>
       <path d="M 1172 4494 
L 1172 3500 
L 2356 3500 
L 2356 3053 
L 1172 3053 
L 1172 1153 
Q 1172 725 1289 603 
Q 1406 481 1766 481 
L 2356 481 
L 2356 0 
L 1766 0 
Q 1100 0 847 248 
Q 594 497 594 1153 
L 594 3053 
L 172 3053 
L 172 3500 
L 594 3500 
L 594 4494 
L 1172 4494 
z
" id="DejaVuSans-74" transform="scale(0.015625)"/>
       <path d="M 513 4856 
L 1013 4856 
Q 1481 4119 1714 3412 
Q 1947 2706 1947 2009 
Q 1947 1309 1714 600 
Q 1481 -109 1013 -844 
L 513 -844 
Q 928 -128 1133 580 
Q 1338 1288 1338 2009 
Q 1338 2731 1133 3434 
Q 928 4138 513 4856 
z
" id="DejaVuSans-29" transform="scale(0.015625)"/>
      </defs>
      <use xlink:href="#DejaVuSans-54"/>
      <use x="57.958984" xlink:href="#DejaVuSans-69"/>
      <use x="85.742188" xlink:href="#DejaVuSans-6d"/>
      <use x="183.154297" xlink:href="#DejaVuSans-65"/>
      <use x="244.677734" xlink:href="#DejaVuSans-20"/>
      <use x="276.464844" xlink:href="#DejaVuSans-28"/>
      <use x="315.478516" xlink:href="#DejaVuSans-68"/>
      <use x="378.857422" xlink:href="#DejaVuSans-6f"/>
      <use x="440.039062" xlink:href="#DejaVuSans-75"/>
      <use x="503.417969" xlink:href="#DejaVuSans-72"/>
      <use x="542.78125" xlink:href="#DejaVuSans-3a"/>
      <use x="576.472656" xlink:href="#DejaVuSans-6d"/>
      <use x="673.884766" xlink:href="#DejaVuSans-69"/>
      <use x="701.667969" xlink:href="#DejaVuSans-6e"/>
      <use x="765.046875" xlink:href="#DejaVuSans-75"/>
      <use x="828.425781" xlink:href="#DejaVuSans-74"/>
      <use x="867.634766" xlink:href="#DejaVuSans-65"/>
      <use x="929.158203" xlink:href="#DejaVuSans-29"/>
     </g>
    </g>
   </g>
   <g id="matplotlib.axis_2">
    <g id="ytick_1">
     <g id="line2d_24">
      <defs>
       <path d="M 0 0 
L -3.5 0 
" id="m3b7ccf0e71" style="stroke:#000000;stroke-width:0.8;"/>
      </defs>
      <g>
       <use style="stroke:#000000;stroke-width:0.8;" x="59.690625" xlink:href="#m3b7ccf0e71" y="276.228713"/>
      </g>
     </g>
     <g id="text_8">
      <!-- 9000 -->
      <g transform="translate(27.240625 280.027932)scale(0.1 -0.1)">
       <defs>
        <path d="M 2034 4250 
Q 1547 4250 1301 3770 
Q 1056 3291 1056 2328 
Q 1056 1369 1301 889 
Q 1547 409 2034 409 
Q 2525 409 2770 889 
Q 3016 1369 3016 2328 
Q 3016 3291 2770 3770 
Q 2525 4250 2034 4250 
z
M 2034 4750 
Q 2819 4750 3233 4129 
Q 3647 3509 3647 2328 
Q 3647 1150 3233 529 
Q 2819 -91 2034 -91 
Q 1250 -91 836 529 
Q 422 1150 422 2328 
Q 422 3509 836 4129 
Q 1250 4750 2034 4750 
z
" id="DejaVuSans-30" transform="scale(0.015625)"/>
       </defs>
       <use xlink:href="#DejaVuSans-39"/>
       <use x="63.623047" xlink:href="#DejaVuSans-30"/>
       <use x="127.246094" xlink:href="#DejaVuSans-30"/>
       <use x="190.869141" xlink:href="#DejaVuSans-30"/>
      </g>
     </g>
    </g>
    <g id="ytick_2">
     <g id="line2d_25">
      <g>
       <use style="stroke:#000000;stroke-width:0.8;" x="59.690625" xlink:href="#m3b7ccf0e71" y="223.522831"/>
      </g>
     </g>
     <g id="text_9">
      <!-- 10000 -->
      <g transform="translate(20.878125 227.32205)scale(0.1 -0.1)">
       <use xlink:href="#DejaVuSans-31"/>
       <use x="63.623047" xlink:href="#DejaVuSans-30"/>
       <use x="127.246094" xlink:href="#DejaVuSans-30"/>
       <use x="190.869141" xlink:href="#DejaVuSans-30"/>
       <use x="254.492188" xlink:href="#DejaVuSans-30"/>
      </g>
     </g>
    </g>
    <g id="ytick_3">
     <g id="line2d_26">
      <g>
       <use style="stroke:#000000;stroke-width:0.8;" x="59.690625" xlink:href="#m3b7ccf0e71" y="170.816949"/>
      </g>
     </g>
     <g id="text_10">
      <!-- 11000 -->
      <g transform="translate(20.878125 174.616167)scale(0.1 -0.1)">
       <use xlink:href="#DejaVuSans-31"/>
       <use x="63.623047" xlink:href="#DejaVuSans-31"/>
       <use x="127.246094" xlink:href="#DejaVuSans-30"/>
       <use x="190.869141" xlink:href="#DejaVuSans-30"/>
       <use x="254.492188" xlink:href="#DejaVuSans-30"/>
      </g>
     </g>
    </g>
    <g id="ytick_4">
     <g id="line2d_27">
      <g>
       <use style="stroke:#000000;stroke-width:0.8;" x="59.690625" xlink:href="#m3b7ccf0e71" y="118.111066"/>
      </g>
     </g>
     <g id="text_11">
      <!-- 12000 -->
      <g transform="translate(20.878125 121.910285)scale(0.1 -0.1)">
       <use xlink:href="#DejaVuSans-31"/>
       <use x="63.623047" xlink:href="#DejaVuSans-32"/>
       <use x="127.246094" xlink:href="#DejaVuSans-30"/>
       <use x="190.869141" xlink:href="#DejaVuSans-30"/>
       <use x="254.492188" xlink:href="#DejaVuSans-30"/>
      </g>
     </g>
    </g>
    <g id="ytick_5">
     <g id="line2d_28">
      <g>
       <use style="stroke:#000000;stroke-width:0.8;" x="59.690625" xlink:href="#m3b7ccf0e71" y="65.405184"/>
      </g>
     </g>
     <g id="text_12">
      <!-- 13000 -->
      <g transform="translate(20.878125 69.204403)scale(0.1 -0.1)">
       <use xlink:href="#DejaVuSans-31"/>
       <use x="63.623047" xlink:href="#DejaVuSans-33"/>
       <use x="127.246094" xlink:href="#DejaVuSans-30"/>
       <use x="190.869141" xlink:href="#DejaVuSans-30"/>
       <use x="254.492188" xlink:href="#DejaVuSans-30"/>
      </g>
     </g>
    </g>
    <g id="text_13">
     <!-- Code region coverage -->
     <g transform="translate(14.798438 210.379594)rotate(-90)scale(0.1 -0.1)">
      <defs>
       <path d="M 4122 4306 
L 4122 3641 
Q 3803 3938 3442 4084 
Q 3081 4231 2675 4231 
Q 1875 4231 1450 3742 
Q 1025 3253 1025 2328 
Q 1025 1406 1450 917 
Q 1875 428 2675 428 
Q 3081 428 3442 575 
Q 3803 722 4122 1019 
L 4122 359 
Q 3791 134 3420 21 
Q 3050 -91 2638 -91 
Q 1578 -91 968 557 
Q 359 1206 359 2328 
Q 359 3453 968 4101 
Q 1578 4750 2638 4750 
Q 3056 4750 3426 4639 
Q 3797 4528 4122 4306 
z
" id="DejaVuSans-43" transform="scale(0.015625)"/>
       <path d="M 2906 2969 
L 2906 4863 
L 3481 4863 
L 3481 0 
L 2906 0 
L 2906 525 
Q 2725 213 2448 61 
Q 2172 -91 1784 -91 
Q 1150 -91 751 415 
Q 353 922 353 1747 
Q 353 2572 751 3078 
Q 1150 3584 1784 3584 
Q 2172 3584 2448 3432 
Q 2725 3281 2906 2969 
z
M 947 1747 
Q 947 1113 1208 752 
Q 1469 391 1925 391 
Q 2381 391 2643 752 
Q 2906 1113 2906 1747 
Q 2906 2381 2643 2742 
Q 2381 3103 1925 3103 
Q 1469 3103 1208 2742 
Q 947 2381 947 1747 
z
" id="DejaVuSans-64" transform="scale(0.015625)"/>
       <path d="M 2906 1791 
Q 2906 2416 2648 2759 
Q 2391 3103 1925 3103 
Q 1463 3103 1205 2759 
Q 947 2416 947 1791 
Q 947 1169 1205 825 
Q 1463 481 1925 481 
Q 2391 481 2648 825 
Q 2906 1169 2906 1791 
z
M 3481 434 
Q 3481 -459 3084 -895 
Q 2688 -1331 1869 -1331 
Q 1566 -1331 1297 -1286 
Q 1028 -1241 775 -1147 
L 775 -588 
Q 1028 -725 1275 -790 
Q 1522 -856 1778 -856 
Q 2344 -856 2625 -561 
Q 2906 -266 2906 331 
L 2906 616 
Q 2728 306 2450 153 
Q 2172 0 1784 0 
Q 1141 0 747 490 
Q 353 981 353 1791 
Q 353 2603 747 3093 
Q 1141 3584 1784 3584 
Q 2172 3584 2450 3431 
Q 2728 3278 2906 2969 
L 2906 3500 
L 3481 3500 
L 3481 434 
z
" id="DejaVuSans-67" transform="scale(0.015625)"/>
       <path d="M 3122 3366 
L 3122 2828 
Q 2878 2963 2633 3030 
Q 2388 3097 2138 3097 
Q 1578 3097 1268 2742 
Q 959 2388 959 1747 
Q 959 1106 1268 751 
Q 1578 397 2138 397 
Q 2388 397 2633 464 
Q 2878 531 3122 666 
L 3122 134 
Q 2881 22 2623 -34 
Q 2366 -91 2075 -91 
Q 1284 -91 818 406 
Q 353 903 353 1747 
Q 353 2603 823 3093 
Q 1294 3584 2113 3584 
Q 2378 3584 2631 3529 
Q 2884 3475 3122 3366 
z
" id="DejaVuSans-63" transform="scale(0.015625)"/>
       <path d="M 191 3500 
L 800 3500 
L 1894 563 
L 2988 3500 
L 3597 3500 
L 2284 0 
L 1503 0 
L 191 3500 
z
" id="DejaVuSans-76" transform="scale(0.015625)"/>
       <path d="M 2194 1759 
Q 1497 1759 1228 1600 
Q 959 1441 959 1056 
Q 959 750 1161 570 
Q 1363 391 1709 391 
Q 2188 391 2477 730 
Q 2766 1069 2766 1631 
L 2766 1759 
L 2194 1759 
z
M 3341 1997 
L 3341 0 
L 2766 0 
L 2766 531 
Q 2569 213 2275 61 
Q 1981 -91 1556 -91 
Q 1019 -91 701 211 
Q 384 513 384 1019 
Q 384 1609 779 1909 
Q 1175 2209 1959 2209 
L 2766 2209 
L 2766 2266 
Q 2766 2663 2505 2880 
Q 2244 3097 1772 3097 
Q 1472 3097 1187 3025 
Q 903 2953 641 2809 
L 641 3341 
Q 956 3463 1253 3523 
Q 1550 3584 1831 3584 
Q 2591 3584 2966 3190 
Q 3341 2797 3341 1997 
z
" id="DejaVuSans-61" transform="scale(0.015625)"/>
      </defs>
      <use xlink:href="#DejaVuSans-43"/>
      <use x="69.824219" xlink:href="#DejaVuSans-6f"/>
      <use x="131.005859" xlink:href="#DejaVuSans-64"/>
      <use x="194.482422" xlink:href="#DejaVuSans-65"/>
      <use x="256.005859" xlink:href="#DejaVuSans-20"/>
      <use x="287.792969" xlink:href="#DejaVuSans-72"/>
      <use x="326.65625" xlink:href="#DejaVuSans-65"/>
      <use x="388.179688" xlink:href="#DejaVuSans-67"/>
      <use x="451.65625" xlink:href="#DejaVuSans-69"/>
      <use x="479.439453" xlink:href="#DejaVuSans-6f"/>
      <use x="540.621094" xlink:href="#DejaVuSans-6e"/>
      <use x="604" xlink:href="#DejaVuSans-20"/>
      <use x="635.787109" xlink:href="#DejaVuSans-63"/>
      <use x="690.767578" xlink:href="#DejaVuSans-6f"/>
      <use x="751.949219" xlink:href="#DejaVuSans-76"/>
      <use x="811.128906" xlink:href="#DejaVuSans-65"/>
      <use x="872.652344" xlink:href="#DejaVuSans-72"/>
      <use x="913.765625" xlink:href="#DejaVuSans-61"/>
      <use x="975.044922" xlink:href="#DejaVuSans-67"/>
      <use x="1038.521484" xlink:href="#DejaVuSans-65"/>
     </g>
    </g>
   </g>
   <g id="line2d_29">
    <path clip-path="url(#pdc3be376dd)" d="M 75.923352 89.20189 
L 125.689806 77.395772 
L 154.801316 65.510596 
L 175.45626 63.296949 
L 191.47748 61.215066 
L 204.567769 58.079066 
L 215.635452 55.865419 
L 225.222714 55.680949 
L 233.679279 54.943066 
L 241.243934 54.811301 
L 248.086996 52.386831 
L 254.334223 51.886125 
L 260.081115 51.042831 
L 265.401906 51.042831 
L 270.355443 49.830596 
L 274.989168 49.593419 
L 279.341883 49.408949 
L 283.445733 48.671066 
L 287.327641 48.644713 
L 291.010388 48.302125 
L 294.513415 48.144007 
L 297.85345 47.564243 
L 301.04499 47.53789 
L 304.100677 47.379772 
L 307.031607 47.379772 
L 309.847569 47.353419 
L 312.557242 46.64189 
L 315.168359 46.589184 
L 317.68784 45.245184 
L 320.121897 44.823537 
L 322.476135 44.270125 
L 324.755622 43.927537 
L 326.96496 43.901184 
L 329.108337 43.848478 
L 331.189579 43.795772 
L 333.212187 43.374125 
L 335.179373 43.374125 
L 337.094095 43.374125 
L 338.959078 43.374125 
L 340.776842 43.374125 
L 342.549717 43.374125 
L 344.279869 43.374125 
L 345.969307 43.295066 
L 347.619904 43.295066 
L 349.233406 42.978831 
L 350.811444 41.371301 
L 352.355542 41.371301 
L 353.867131 40.844243 
L 355.347551 40.844243 
L 356.798061 40.791537 
L 358.219847 40.791537 
L 359.614023 40.132713 
L 360.981642 40.132713 
L 362.323696 40.027301 
L 363.641124 39.948243 
L 364.934813 39.394831 
L 366.205604 39.342125 
L 367.454294 39.289419 
L 368.681636 39.236713 
L 369.888351 39.236713 
L 371.075119 39.21036 
L 372.242589 38.709654 
L 373.391378 38.709654 
L 374.522076 38.57789 
L 375.635243 38.498831 
L 376.731414 36.97036 
L 377.8111 36.97036 
L 378.874791 36.838596 
L 379.922953 36.654125 
L 380.956033 36.654125 
L 381.974459 36.575066 
L 382.978641 36.575066 
L 383.968971 36.575066 
L 384.945827 36.575066 
L 385.909571 36.469654 
L 386.860549 36.469654 
L 387.799096 36.153419 
L 388.725532 36.153419 
L 389.640166 36.153419 
L 390.543295 36.153419 
L 391.435205 36.127066 
L 392.316171 36.07436 
L 393.186458 36.07436 
L 394.046323 36.048007 
L 394.896011 36.048007 
L 395.735761 36.048007 
L 396.565803 36.048007 
L 397.386358 36.048007 
L 398.197642 35.810831 
L 398.99986 35.810831 
L 399.793214 35.810831 
L 400.577898 35.810831 
" style="fill:none;stroke:#1f77b4;stroke-linecap:square;stroke-width:1.5;"/>
    <defs>
     <path d="M 0 3 
C 0.795609 3 1.55874 2.683901 2.12132 2.12132 
C 2.683901 1.55874 3 0.795609 3 0 
C 3 -0.795609 2.683901 -1.55874 2.12132 -2.12132 
C 1.55874 -2.683901 0.795609 -3 0 -3 
C -0.795609 -3 -1.55874 -2.683901 -2.12132 -2.12132 
C -2.683901 -1.55874 -3 -0.795609 -3 0 
C -3 0.795609 -2.683901 1.55874 -2.12132 2.12132 
C -1.55874 2.683901 -0.795609 3 0 3 
z
" id="maf07726203" style="stroke:#ffffff;stroke-width:0.75;"/>
    </defs>
    <g clip-path="url(#pdc3be376dd)">
     <use style="fill:#1f77b4;stroke:#ffffff;stroke-width:0.75;" x="75.923352" xlink:href="#maf07726203" y="89.20189"/>
     <use style="fill:#1f77b4;stroke:#ffffff;stroke-width:0.75;" x="125.689806" xlink:href="#maf07726203" y="77.395772"/>
     <use style="fill:#1f77b4;stroke:#ffffff;stroke-width:0.75;" x="154.801316" xlink:href="#maf07726203" y="65.510596"/>
     <use style="fill:#1f77b4;stroke:#ffffff;stroke-width:0.75;" x="175.45626" xlink:href="#maf07726203" y="63.296949"/>
     <use style="fill:#1f77b4;stroke:#ffffff;stroke-width:0.75;" x="191.47748" xlink:href="#maf07726203" y="61.215066"/>
     <use style="fill:#1f77b4;stroke:#ffffff;stroke-width:0.75;" x="204.567769" xlink:href="#maf07726203" y="58.079066"/>
     <use style="fill:#1f77b4;stroke:#ffffff;stroke-width:0.75;" x="215.635452" xlink:href="#maf07726203" y="55.865419"/>
     <use style="fill:#1f77b4;stroke:#ffffff;stroke-width:0.75;" x="225.222714" xlink:href="#maf07726203" y="55.680949"/>
     <use style="fill:#1f77b4;stroke:#ffffff;stroke-width:0.75;" x="233.679279" xlink:href="#maf07726203" y="54.943066"/>
     <use style="fill:#1f77b4;stroke:#ffffff;stroke-width:0.75;" x="241.243934" xlink:href="#maf07726203" y="54.811301"/>
     <use style="fill:#1f77b4;stroke:#ffffff;stroke-width:0.75;" x="248.086996" xlink:href="#maf07726203" y="52.386831"/>
     <use style="fill:#1f77b4;stroke:#ffffff;stroke-width:0.75;" x="254.334223" xlink:href="#maf07726203" y="51.886125"/>
     <use style="fill:#1f77b4;stroke:#ffffff;stroke-width:0.75;" x="260.081115" xlink:href="#maf07726203" y="51.042831"/>
     <use style="fill:#1f77b4;stroke:#ffffff;stroke-width:0.75;" x="265.401906" xlink:href="#maf07726203" y="51.042831"/>
     <use style="fill:#1f77b4;stroke:#ffffff;stroke-width:0.75;" x="270.355443" xlink:href="#maf07726203" y="49.830596"/>
     <use style="fill:#1f77b4;stroke:#ffffff;stroke-width:0.75;" x="274.989168" xlink:href="#maf07726203" y="49.593419"/>
     <use style="fill:#1f77b4;stroke:#ffffff;stroke-width:0.75;" x="279.341883" xlink:href="#maf07726203" y="49.408949"/>
     <use style="fill:#1f77b4;stroke:#ffffff;stroke-width:0.75;" x="283.445733" xlink:href="#maf07726203" y="48.671066"/>
     <use style="fill:#1f77b4;stroke:#ffffff;stroke-width:0.75;" x="287.327641" xlink:href="#maf07726203" y="48.644713"/>
     <use style="fill:#1f77b4;stroke:#ffffff;stroke-width:0.75;" x="291.010388" xlink:href="#maf07726203" y="48.302125"/>
     <use style="fill:#1f77b4;stroke:#ffffff;stroke-width:0.75;" x="294.513415" xlink:href="#maf07726203" y="48.144007"/>
     <use style="fill:#1f77b4;stroke:#ffffff;stroke-width:0.75;" x="297.85345" xlink:href="#maf07726203" y="47.564243"/>
     <use style="fill:#1f77b4;stroke:#ffffff;stroke-width:0.75;" x="301.04499" xlink:href="#maf07726203" y="47.53789"/>
     <use style="fill:#1f77b4;stroke:#ffffff;stroke-width:0.75;" x="304.100677" xlink:href="#maf07726203" y="47.379772"/>
     <use style="fill:#1f77b4;stroke:#ffffff;stroke-width:0.75;" x="307.031607" xlink:href="#maf07726203" y="47.379772"/>
     <use style="fill:#1f77b4;stroke:#ffffff;stroke-width:0.75;" x="309.847569" xlink:href="#maf07726203" y="47.353419"/>
     <use style="fill:#1f77b4;stroke:#ffffff;stroke-width:0.75;" x="312.557242" xlink:href="#maf07726203" y="46.64189"/>
     <use style="fill:#1f77b4;stroke:#ffffff;stroke-width:0.75;" x="315.168359" xlink:href="#maf07726203" y="46.589184"/>
     <use style="fill:#1f77b4;stroke:#ffffff;stroke-width:0.75;" x="317.68784" xlink:href="#maf07726203" y="45.245184"/>
     <use style="fill:#1f77b4;stroke:#ffffff;stroke-width:0.75;" x="320.121897" xlink:href="#maf07726203" y="44.823537"/>
     <use style="fill:#1f77b4;stroke:#ffffff;stroke-width:0.75;" x="322.476135" xlink:href="#maf07726203" y="44.270125"/>
     <use style="fill:#1f77b4;stroke:#ffffff;stroke-width:0.75;" x="324.755622" xlink:href="#maf07726203" y="43.927537"/>
     <use style="fill:#1f77b4;stroke:#ffffff;stroke-width:0.75;" x="326.96496" xlink:href="#maf07726203" y="43.901184"/>
     <use style="fill:#1f77b4;stroke:#ffffff;stroke-width:0.75;" x="329.108337" xlink:href="#maf07726203" y="43.848478"/>
     <use style="fill:#1f77b4;stroke:#ffffff;stroke-width:0.75;" x="331.189579" xlink:href="#maf07726203" y="43.795772"/>
     <use style="fill:#1f77b4;stroke:#ffffff;stroke-width:0.75;" x="333.212187" xlink:href="#maf07726203" y="43.374125"/>
     <use style="fill:#1f77b4;stroke:#ffffff;stroke-width:0.75;" x="335.179373" xlink:href="#maf07726203" y="43.374125"/>
     <use style="fill:#1f77b4;stroke:#ffffff;stroke-width:0.75;" x="337.094095" xlink:href="#maf07726203" y="43.374125"/>
     <use style="fill:#1f77b4;stroke:#ffffff;stroke-width:0.75;" x="338.959078" xlink:href="#maf07726203" y="43.374125"/>
     <use style="fill:#1f77b4;stroke:#ffffff;stroke-width:0.75;" x="340.776842" xlink:href="#maf07726203" y="43.374125"/>
     <use style="fill:#1f77b4;stroke:#ffffff;stroke-width:0.75;" x="342.549717" xlink:href="#maf07726203" y="43.374125"/>
     <use style="fill:#1f77b4;stroke:#ffffff;stroke-width:0.75;" x="344.279869" xlink:href="#maf07726203" y="43.374125"/>
     <use style="fill:#1f77b4;stroke:#ffffff;stroke-width:0.75;" x="345.969307" xlink:href="#maf07726203" y="43.295066"/>
     <use style="fill:#1f77b4;stroke:#ffffff;stroke-width:0.75;" x="347.619904" xlink:href="#maf07726203" y="43.295066"/>
     <use style="fill:#1f77b4;stroke:#ffffff;stroke-width:0.75;" x="349.233406" xlink:href="#maf07726203" y="42.978831"/>
     <use style="fill:#1f77b4;stroke:#ffffff;stroke-width:0.75;" x="350.811444" xlink:href="#maf07726203" y="41.371301"/>
     <use style="fill:#1f77b4;stroke:#ffffff;stroke-width:0.75;" x="352.355542" xlink:href="#maf07726203" y="41.371301"/>
     <use style="fill:#1f77b4;stroke:#ffffff;stroke-width:0.75;" x="353.867131" xlink:href="#maf07726203" y="40.844243"/>
     <use style="fill:#1f77b4;stroke:#ffffff;stroke-width:0.75;" x="355.347551" xlink:href="#maf07726203" y="40.844243"/>
     <use style="fill:#1f77b4;stroke:#ffffff;stroke-width:0.75;" x="356.798061" xlink:href="#maf07726203" y="40.791537"/>
     <use style="fill:#1f77b4;stroke:#ffffff;stroke-width:0.75;" x="358.219847" xlink:href="#maf07726203" y="40.791537"/>
     <use style="fill:#1f77b4;stroke:#ffffff;stroke-width:0.75;" x="359.614023" xlink:href="#maf07726203" y="40.132713"/>
     <use style="fill:#1f77b4;stroke:#ffffff;stroke-width:0.75;" x="360.981642" xlink:href="#maf07726203" y="40.132713"/>
     <use style="fill:#1f77b4;stroke:#ffffff;stroke-width:0.75;" x="362.323696" xlink:href="#maf07726203" y="40.027301"/>
     <use style="fill:#1f77b4;stroke:#ffffff;stroke-width:0.75;" x="363.641124" xlink:href="#maf07726203" y="39.948243"/>
     <use style="fill:#1f77b4;stroke:#ffffff;stroke-width:0.75;" x="364.934813" xlink:href="#maf07726203" y="39.394831"/>
     <use style="fill:#1f77b4;stroke:#ffffff;stroke-width:0.75;" x="366.205604" xlink:href="#maf07726203" y="39.342125"/>
     <use style="fill:#1f77b4;stroke:#ffffff;stroke-width:0.75;" x="367.454294" xlink:href="#maf07726203" y="39.289419"/>
     <use style="fill:#1f77b4;stroke:#ffffff;stroke-width:0.75;" x="368.681636" xlink:href="#maf07726203" y="39.236713"/>
     <use style="fill:#1f77b4;stroke:#ffffff;stroke-width:0.75;" x="369.888351" xlink:href="#maf07726203" y="39.236713"/>
     <use style="fill:#1f77b4;stroke:#ffffff;stroke-width:0.75;" x="371.075119" xlink:href="#maf07726203" y="39.21036"/>
     <use style="fill:#1f77b4;stroke:#ffffff;stroke-width:0.75;" x="372.242589" xlink:href="#maf07726203" y="38.709654"/>
     <use style="fill:#1f77b4;stroke:#ffffff;stroke-width:0.75;" x="373.391378" xlink:href="#maf07726203" y="38.709654"/>
     <use style="fill:#1f77b4;stroke:#ffffff;stroke-width:0.75;" x="374.522076" xlink:href="#maf07726203" y="38.57789"/>
     <use style="fill:#1f77b4;stroke:#ffffff;stroke-width:0.75;" x="375.635243" xlink:href="#maf07726203" y="38.498831"/>
     <use style="fill:#1f77b4;stroke:#ffffff;stroke-width:0.75;" x="376.731414" xlink:href="#maf07726203" y="36.97036"/>
     <use style="fill:#1f77b4;stroke:#ffffff;stroke-width:0.75;" x="377.8111" xlink:href="#maf07726203" y="36.97036"/>
     <use style="fill:#1f77b4;stroke:#ffffff;stroke-width:0.75;" x="378.874791" xlink:href="#maf07726203" y="36.838596"/>
     <use style="fill:#1f77b4;stroke:#ffffff;stroke-width:0.75;" x="379.922953" xlink:href="#maf07726203" y="36.654125"/>
     <use style="fill:#1f77b4;stroke:#ffffff;stroke-width:0.75;" x="380.956033" xlink:href="#maf07726203" y="36.654125"/>
     <use style="fill:#1f77b4;stroke:#ffffff;stroke-width:0.75;" x="381.974459" xlink:href="#maf07726203" y="36.575066"/>
     <use style="fill:#1f77b4;stroke:#ffffff;stroke-width:0.75;" x="382.978641" xlink:href="#maf07726203" y="36.575066"/>
     <use style="fill:#1f77b4;stroke:#ffffff;stroke-width:0.75;" x="383.968971" xlink:href="#maf07726203" y="36.575066"/>
     <use style="fill:#1f77b4;stroke:#ffffff;stroke-width:0.75;" x="384.945827" xlink:href="#maf07726203" y="36.575066"/>
     <use style="fill:#1f77b4;stroke:#ffffff;stroke-width:0.75;" x="385.909571" xlink:href="#maf07726203" y="36.469654"/>
     <use style="fill:#1f77b4;stroke:#ffffff;stroke-width:0.75;" x="386.860549" xlink:href="#maf07726203" y="36.469654"/>
     <use style="fill:#1f77b4;stroke:#ffffff;stroke-width:0.75;" x="387.799096" xlink:href="#maf07726203" y="36.153419"/>
     <use style="fill:#1f77b4;stroke:#ffffff;stroke-width:0.75;" x="388.725532" xlink:href="#maf07726203" y="36.153419"/>
     <use style="fill:#1f77b4;stroke:#ffffff;stroke-width:0.75;" x="389.640166" xlink:href="#maf07726203" y="36.153419"/>
     <use style="fill:#1f77b4;stroke:#ffffff;stroke-width:0.75;" x="390.543295" xlink:href="#maf07726203" y="36.153419"/>
     <use style="fill:#1f77b4;stroke:#ffffff;stroke-width:0.75;" x="391.435205" xlink:href="#maf07726203" y="36.127066"/>
     <use style="fill:#1f77b4;stroke:#ffffff;stroke-width:0.75;" x="392.316171" xlink:href="#maf07726203" y="36.07436"/>
     <use style="fill:#1f77b4;stroke:#ffffff;stroke-width:0.75;" x="393.186458" xlink:href="#maf07726203" y="36.07436"/>
     <use style="fill:#1f77b4;stroke:#ffffff;stroke-width:0.75;" x="394.046323" xlink:href="#maf07726203" y="36.048007"/>
     <use style="fill:#1f77b4;stroke:#ffffff;stroke-width:0.75;" x="394.896011" xlink:href="#maf07726203" y="36.048007"/>
     <use style="fill:#1f77b4;stroke:#ffffff;stroke-width:0.75;" x="395.735761" xlink:href="#maf07726203" y="36.048007"/>
     <use style="fill:#1f77b4;stroke:#ffffff;stroke-width:0.75;" x="396.565803" xlink:href="#maf07726203" y="36.048007"/>
     <use style="fill:#1f77b4;stroke:#ffffff;stroke-width:0.75;" x="397.386358" xlink:href="#maf07726203" y="36.048007"/>
     <use style="fill:#1f77b4;stroke:#ffffff;stroke-width:0.75;" x="398.197642" xlink:href="#maf07726203" y="35.810831"/>
     <use style="fill:#1f77b4;stroke:#ffffff;stroke-width:0.75;" x="398.99986" xlink:href="#maf07726203" y="35.810831"/>
     <use style="fill:#1f77b4;stroke:#ffffff;stroke-width:0.75;" x="399.793214" xlink:href="#maf07726203" y="35.810831"/>
     <use style="fill:#1f77b4;stroke:#ffffff;stroke-width:0.75;" x="400.577898" xlink:href="#maf07726203" y="35.810831"/>
    </g>
   </g>
   <g id="line2d_30">
    <path clip-path="url(#pdc3be376dd)" d="M 75.923352 98.240949 
L 125.689806 86.224007 
L 154.801316 85.670596 
L 175.45626 72.678596 
L 191.47748 72.415066 
L 204.567769 72.36236 
L 215.635452 72.230596 
L 225.222714 69.147301 
L 233.679279 69.068243 
L 241.243934 67.618831 
L 248.086996 62.242831 
L 254.334223 62.111066 
L 260.081115 60.187301 
L 265.401906 59.81836 
L 270.355443 57.84189 
L 274.989168 55.60189 
L 279.341883 52.044243 
L 283.445733 52.044243 
L 287.327641 51.174596 
L 291.010388 51.174596 
L 294.513415 49.646125 
L 297.85345 49.646125 
L 301.04499 49.646125 
L 304.100677 49.646125 
L 307.031607 49.593419 
L 309.847569 49.593419 
L 312.557242 48.460243 
L 315.168359 46.536478 
L 317.68784 45.666831 
L 320.121897 45.666831 
L 322.476135 43.637654 
L 324.755622 43.584949 
L 326.96496 43.558596 
L 329.108337 43.189654 
L 331.189579 43.189654 
L 333.212187 43.189654 
L 335.179373 42.873419 
L 337.094095 42.214596 
L 338.959078 40.870596 
L 340.776842 40.870596 
L 342.549717 40.870596 
L 344.279869 40.870596 
L 345.969307 40.870596 
L 347.619904 40.870596 
L 349.233406 40.027301 
L 350.811444 40.027301 
L 352.355542 39.632007 
L 353.867131 39.632007 
L 355.347551 39.632007 
L 356.798061 39.263066 
L 358.219847 38.446125 
L 359.614023 38.446125 
L 360.981642 38.446125 
L 362.323696 38.446125 
L 363.641124 38.288007 
L 364.934813 38.288007 
L 366.205604 38.288007 
L 367.454294 38.288007 
L 368.681636 38.288007 
L 369.888351 38.261654 
L 371.075119 38.261654 
L 372.242589 38.156243 
L 373.391378 38.156243 
L 374.522076 38.156243 
L 375.635243 38.156243 
L 376.731414 37.787301 
L 377.8111 37.787301 
L 378.874791 37.787301 
L 379.922953 37.787301 
L 380.956033 37.787301 
L 381.974459 37.787301 
L 382.978641 37.550125 
L 383.968971 37.471066 
L 384.945827 37.471066 
L 385.909571 37.471066 
L 386.860549 37.471066 
L 387.799096 37.471066 
L 388.725532 37.471066 
L 389.640166 37.471066 
L 390.543295 37.471066 
L 391.435205 37.471066 
L 392.316171 37.471066 
L 393.186458 37.471066 
L 394.046323 37.471066 
L 394.896011 37.471066 
L 395.735761 37.471066 
L 396.565803 37.471066 
L 397.386358 37.392007 
L 398.197642 37.392007 
L 398.99986 37.392007 
L 399.793214 37.392007 
L 400.577898 37.392007 
" style="fill:none;stroke:#98df8a;stroke-linecap:square;stroke-width:1.5;"/>
    <defs>
     <path d="M -0 3 
L 3 -3 
L -3 -3 
z
" id="mc63d75bd1d" style="stroke:#ffffff;stroke-linejoin:miter;stroke-width:0.75;"/>
    </defs>
    <g clip-path="url(#pdc3be376dd)">
     <use style="fill:#98df8a;stroke:#ffffff;stroke-linejoin:miter;stroke-width:0.75;" x="75.923352" xlink:href="#mc63d75bd1d" y="98.240949"/>
     <use style="fill:#98df8a;stroke:#ffffff;stroke-linejoin:miter;stroke-width:0.75;" x="125.689806" xlink:href="#mc63d75bd1d" y="86.224007"/>
     <use style="fill:#98df8a;stroke:#ffffff;stroke-linejoin:miter;stroke-width:0.75;" x="154.801316" xlink:href="#mc63d75bd1d" y="85.670596"/>
     <use style="fill:#98df8a;stroke:#ffffff;stroke-linejoin:miter;stroke-width:0.75;" x="175.45626" xlink:href="#mc63d75bd1d" y="72.678596"/>
     <use style="fill:#98df8a;stroke:#ffffff;stroke-linejoin:miter;stroke-width:0.75;" x="191.47748" xlink:href="#mc63d75bd1d" y="72.415066"/>
     <use style="fill:#98df8a;stroke:#ffffff;stroke-linejoin:miter;stroke-width:0.75;" x="204.567769" xlink:href="#mc63d75bd1d" y="72.36236"/>
     <use style="fill:#98df8a;stroke:#ffffff;stroke-linejoin:miter;stroke-width:0.75;" x="215.635452" xlink:href="#mc63d75bd1d" y="72.230596"/>
     <use style="fill:#98df8a;stroke:#ffffff;stroke-linejoin:miter;stroke-width:0.75;" x="225.222714" xlink:href="#mc63d75bd1d" y="69.147301"/>
     <use style="fill:#98df8a;stroke:#ffffff;stroke-linejoin:miter;stroke-width:0.75;" x="233.679279" xlink:href="#mc63d75bd1d" y="69.068243"/>
     <use style="fill:#98df8a;stroke:#ffffff;stroke-linejoin:miter;stroke-width:0.75;" x="241.243934" xlink:href="#mc63d75bd1d" y="67.618831"/>
     <use style="fill:#98df8a;stroke:#ffffff;stroke-linejoin:miter;stroke-width:0.75;" x="248.086996" xlink:href="#mc63d75bd1d" y="62.242831"/>
     <use style="fill:#98df8a;stroke:#ffffff;stroke-linejoin:miter;stroke-width:0.75;" x="254.334223" xlink:href="#mc63d75bd1d" y="62.111066"/>
     <use style="fill:#98df8a;stroke:#ffffff;stroke-linejoin:miter;stroke-width:0.75;" x="260.081115" xlink:href="#mc63d75bd1d" y="60.187301"/>
     <use style="fill:#98df8a;stroke:#ffffff;stroke-linejoin:miter;stroke-width:0.75;" x="265.401906" xlink:href="#mc63d75bd1d" y="59.81836"/>
     <use style="fill:#98df8a;stroke:#ffffff;stroke-linejoin:miter;stroke-width:0.75;" x="270.355443" xlink:href="#mc63d75bd1d" y="57.84189"/>
     <use style="fill:#98df8a;stroke:#ffffff;stroke-linejoin:miter;stroke-width:0.75;" x="274.989168" xlink:href="#mc63d75bd1d" y="55.60189"/>
     <use style="fill:#98df8a;stroke:#ffffff;stroke-linejoin:miter;stroke-width:0.75;" x="279.341883" xlink:href="#mc63d75bd1d" y="52.044243"/>
     <use style="fill:#98df8a;stroke:#ffffff;stroke-linejoin:miter;stroke-width:0.75;" x="283.445733" xlink:href="#mc63d75bd1d" y="52.044243"/>
     <use style="fill:#98df8a;stroke:#ffffff;stroke-linejoin:miter;stroke-width:0.75;" x="287.327641" xlink:href="#mc63d75bd1d" y="51.174596"/>
     <use style="fill:#98df8a;stroke:#ffffff;stroke-linejoin:miter;stroke-width:0.75;" x="291.010388" xlink:href="#mc63d75bd1d" y="51.174596"/>
     <use style="fill:#98df8a;stroke:#ffffff;stroke-linejoin:miter;stroke-width:0.75;" x="294.513415" xlink:href="#mc63d75bd1d" y="49.646125"/>
     <use style="fill:#98df8a;stroke:#ffffff;stroke-linejoin:miter;stroke-width:0.75;" x="297.85345" xlink:href="#mc63d75bd1d" y="49.646125"/>
     <use style="fill:#98df8a;stroke:#ffffff;stroke-linejoin:miter;stroke-width:0.75;" x="301.04499" xlink:href="#mc63d75bd1d" y="49.646125"/>
     <use style="fill:#98df8a;stroke:#ffffff;stroke-linejoin:miter;stroke-width:0.75;" x="304.100677" xlink:href="#mc63d75bd1d" y="49.646125"/>
     <use style="fill:#98df8a;stroke:#ffffff;stroke-linejoin:miter;stroke-width:0.75;" x="307.031607" xlink:href="#mc63d75bd1d" y="49.593419"/>
     <use style="fill:#98df8a;stroke:#ffffff;stroke-linejoin:miter;stroke-width:0.75;" x="309.847569" xlink:href="#mc63d75bd1d" y="49.593419"/>
     <use style="fill:#98df8a;stroke:#ffffff;stroke-linejoin:miter;stroke-width:0.75;" x="312.557242" xlink:href="#mc63d75bd1d" y="48.460243"/>
     <use style="fill:#98df8a;stroke:#ffffff;stroke-linejoin:miter;stroke-width:0.75;" x="315.168359" xlink:href="#mc63d75bd1d" y="46.536478"/>
     <use style="fill:#98df8a;stroke:#ffffff;stroke-linejoin:miter;stroke-width:0.75;" x="317.68784" xlink:href="#mc63d75bd1d" y="45.666831"/>
     <use style="fill:#98df8a;stroke:#ffffff;stroke-linejoin:miter;stroke-width:0.75;" x="320.121897" xlink:href="#mc63d75bd1d" y="45.666831"/>
     <use style="fill:#98df8a;stroke:#ffffff;stroke-linejoin:miter;stroke-width:0.75;" x="322.476135" xlink:href="#mc63d75bd1d" y="43.637654"/>
     <use style="fill:#98df8a;stroke:#ffffff;stroke-linejoin:miter;stroke-width:0.75;" x="324.755622" xlink:href="#mc63d75bd1d" y="43.584949"/>
     <use style="fill:#98df8a;stroke:#ffffff;stroke-linejoin:miter;stroke-width:0.75;" x="326.96496" xlink:href="#mc63d75bd1d" y="43.558596"/>
     <use style="fill:#98df8a;stroke:#ffffff;stroke-linejoin:miter;stroke-width:0.75;" x="329.108337" xlink:href="#mc63d75bd1d" y="43.189654"/>
     <use style="fill:#98df8a;stroke:#ffffff;stroke-linejoin:miter;stroke-width:0.75;" x="331.189579" xlink:href="#mc63d75bd1d" y="43.189654"/>
     <use style="fill:#98df8a;stroke:#ffffff;stroke-linejoin:miter;stroke-width:0.75;" x="333.212187" xlink:href="#mc63d75bd1d" y="43.189654"/>
     <use style="fill:#98df8a;stroke:#ffffff;stroke-linejoin:miter;stroke-width:0.75;" x="335.179373" xlink:href="#mc63d75bd1d" y="42.873419"/>
     <use style="fill:#98df8a;stroke:#ffffff;stroke-linejoin:miter;stroke-width:0.75;" x="337.094095" xlink:href="#mc63d75bd1d" y="42.214596"/>
     <use style="fill:#98df8a;stroke:#ffffff;stroke-linejoin:miter;stroke-width:0.75;" x="338.959078" xlink:href="#mc63d75bd1d" y="40.870596"/>
     <use style="fill:#98df8a;stroke:#ffffff;stroke-linejoin:miter;stroke-width:0.75;" x="340.776842" xlink:href="#mc63d75bd1d" y="40.870596"/>
     <use style="fill:#98df8a;stroke:#ffffff;stroke-linejoin:miter;stroke-width:0.75;" x="342.549717" xlink:href="#mc63d75bd1d" y="40.870596"/>
     <use style="fill:#98df8a;stroke:#ffffff;stroke-linejoin:miter;stroke-width:0.75;" x="344.279869" xlink:href="#mc63d75bd1d" y="40.870596"/>
     <use style="fill:#98df8a;stroke:#ffffff;stroke-linejoin:miter;stroke-width:0.75;" x="345.969307" xlink:href="#mc63d75bd1d" y="40.870596"/>
     <use style="fill:#98df8a;stroke:#ffffff;stroke-linejoin:miter;stroke-width:0.75;" x="347.619904" xlink:href="#mc63d75bd1d" y="40.870596"/>
     <use style="fill:#98df8a;stroke:#ffffff;stroke-linejoin:miter;stroke-width:0.75;" x="349.233406" xlink:href="#mc63d75bd1d" y="40.027301"/>
     <use style="fill:#98df8a;stroke:#ffffff;stroke-linejoin:miter;stroke-width:0.75;" x="350.811444" xlink:href="#mc63d75bd1d" y="40.027301"/>
     <use style="fill:#98df8a;stroke:#ffffff;stroke-linejoin:miter;stroke-width:0.75;" x="352.355542" xlink:href="#mc63d75bd1d" y="39.632007"/>
     <use style="fill:#98df8a;stroke:#ffffff;stroke-linejoin:miter;stroke-width:0.75;" x="353.867131" xlink:href="#mc63d75bd1d" y="39.632007"/>
     <use style="fill:#98df8a;stroke:#ffffff;stroke-linejoin:miter;stroke-width:0.75;" x="355.347551" xlink:href="#mc63d75bd1d" y="39.632007"/>
     <use style="fill:#98df8a;stroke:#ffffff;stroke-linejoin:miter;stroke-width:0.75;" x="356.798061" xlink:href="#mc63d75bd1d" y="39.263066"/>
     <use style="fill:#98df8a;stroke:#ffffff;stroke-linejoin:miter;stroke-width:0.75;" x="358.219847" xlink:href="#mc63d75bd1d" y="38.446125"/>
     <use style="fill:#98df8a;stroke:#ffffff;stroke-linejoin:miter;stroke-width:0.75;" x="359.614023" xlink:href="#mc63d75bd1d" y="38.446125"/>
     <use style="fill:#98df8a;stroke:#ffffff;stroke-linejoin:miter;stroke-width:0.75;" x="360.981642" xlink:href="#mc63d75bd1d" y="38.446125"/>
     <use style="fill:#98df8a;stroke:#ffffff;stroke-linejoin:miter;stroke-width:0.75;" x="362.323696" xlink:href="#mc63d75bd1d" y="38.446125"/>
     <use style="fill:#98df8a;stroke:#ffffff;stroke-linejoin:miter;stroke-width:0.75;" x="363.641124" xlink:href="#mc63d75bd1d" y="38.288007"/>
     <use style="fill:#98df8a;stroke:#ffffff;stroke-linejoin:miter;stroke-width:0.75;" x="364.934813" xlink:href="#mc63d75bd1d" y="38.288007"/>
     <use style="fill:#98df8a;stroke:#ffffff;stroke-linejoin:miter;stroke-width:0.75;" x="366.205604" xlink:href="#mc63d75bd1d" y="38.288007"/>
     <use style="fill:#98df8a;stroke:#ffffff;stroke-linejoin:miter;stroke-width:0.75;" x="367.454294" xlink:href="#mc63d75bd1d" y="38.288007"/>
     <use style="fill:#98df8a;stroke:#ffffff;stroke-linejoin:miter;stroke-width:0.75;" x="368.681636" xlink:href="#mc63d75bd1d" y="38.288007"/>
     <use style="fill:#98df8a;stroke:#ffffff;stroke-linejoin:miter;stroke-width:0.75;" x="369.888351" xlink:href="#mc63d75bd1d" y="38.261654"/>
     <use style="fill:#98df8a;stroke:#ffffff;stroke-linejoin:miter;stroke-width:0.75;" x="371.075119" xlink:href="#mc63d75bd1d" y="38.261654"/>
     <use style="fill:#98df8a;stroke:#ffffff;stroke-linejoin:miter;stroke-width:0.75;" x="372.242589" xlink:href="#mc63d75bd1d" y="38.156243"/>
     <use style="fill:#98df8a;stroke:#ffffff;stroke-linejoin:miter;stroke-width:0.75;" x="373.391378" xlink:href="#mc63d75bd1d" y="38.156243"/>
     <use style="fill:#98df8a;stroke:#ffffff;stroke-linejoin:miter;stroke-width:0.75;" x="374.522076" xlink:href="#mc63d75bd1d" y="38.156243"/>
     <use style="fill:#98df8a;stroke:#ffffff;stroke-linejoin:miter;stroke-width:0.75;" x="375.635243" xlink:href="#mc63d75bd1d" y="38.156243"/>
     <use style="fill:#98df8a;stroke:#ffffff;stroke-linejoin:miter;stroke-width:0.75;" x="376.731414" xlink:href="#mc63d75bd1d" y="37.787301"/>
     <use style="fill:#98df8a;stroke:#ffffff;stroke-linejoin:miter;stroke-width:0.75;" x="377.8111" xlink:href="#mc63d75bd1d" y="37.787301"/>
     <use style="fill:#98df8a;stroke:#ffffff;stroke-linejoin:miter;stroke-width:0.75;" x="378.874791" xlink:href="#mc63d75bd1d" y="37.787301"/>
     <use style="fill:#98df8a;stroke:#ffffff;stroke-linejoin:miter;stroke-width:0.75;" x="379.922953" xlink:href="#mc63d75bd1d" y="37.787301"/>
     <use style="fill:#98df8a;stroke:#ffffff;stroke-linejoin:miter;stroke-width:0.75;" x="380.956033" xlink:href="#mc63d75bd1d" y="37.787301"/>
     <use style="fill:#98df8a;stroke:#ffffff;stroke-linejoin:miter;stroke-width:0.75;" x="381.974459" xlink:href="#mc63d75bd1d" y="37.787301"/>
     <use style="fill:#98df8a;stroke:#ffffff;stroke-linejoin:miter;stroke-width:0.75;" x="382.978641" xlink:href="#mc63d75bd1d" y="37.550125"/>
     <use style="fill:#98df8a;stroke:#ffffff;stroke-linejoin:miter;stroke-width:0.75;" x="383.968971" xlink:href="#mc63d75bd1d" y="37.471066"/>
     <use style="fill:#98df8a;stroke:#ffffff;stroke-linejoin:miter;stroke-width:0.75;" x="384.945827" xlink:href="#mc63d75bd1d" y="37.471066"/>
     <use style="fill:#98df8a;stroke:#ffffff;stroke-linejoin:miter;stroke-width:0.75;" x="385.909571" xlink:href="#mc63d75bd1d" y="37.471066"/>
     <use style="fill:#98df8a;stroke:#ffffff;stroke-linejoin:miter;stroke-width:0.75;" x="386.860549" xlink:href="#mc63d75bd1d" y="37.471066"/>
     <use style="fill:#98df8a;stroke:#ffffff;stroke-linejoin:miter;stroke-width:0.75;" x="387.799096" xlink:href="#mc63d75bd1d" y="37.471066"/>
     <use style="fill:#98df8a;stroke:#ffffff;stroke-linejoin:miter;stroke-width:0.75;" x="388.725532" xlink:href="#mc63d75bd1d" y="37.471066"/>
     <use style="fill:#98df8a;stroke:#ffffff;stroke-linejoin:miter;stroke-width:0.75;" x="389.640166" xlink:href="#mc63d75bd1d" y="37.471066"/>
     <use style="fill:#98df8a;stroke:#ffffff;stroke-linejoin:miter;stroke-width:0.75;" x="390.543295" xlink:href="#mc63d75bd1d" y="37.471066"/>
     <use style="fill:#98df8a;stroke:#ffffff;stroke-linejoin:miter;stroke-width:0.75;" x="391.435205" xlink:href="#mc63d75bd1d" y="37.471066"/>
     <use style="fill:#98df8a;stroke:#ffffff;stroke-linejoin:miter;stroke-width:0.75;" x="392.316171" xlink:href="#mc63d75bd1d" y="37.471066"/>
     <use style="fill:#98df8a;stroke:#ffffff;stroke-linejoin:miter;stroke-width:0.75;" x="393.186458" xlink:href="#mc63d75bd1d" y="37.471066"/>
     <use style="fill:#98df8a;stroke:#ffffff;stroke-linejoin:miter;stroke-width:0.75;" x="394.046323" xlink:href="#mc63d75bd1d" y="37.471066"/>
     <use style="fill:#98df8a;stroke:#ffffff;stroke-linejoin:miter;stroke-width:0.75;" x="394.896011" xlink:href="#mc63d75bd1d" y="37.471066"/>
     <use style="fill:#98df8a;stroke:#ffffff;stroke-linejoin:miter;stroke-width:0.75;" x="395.735761" xlink:href="#mc63d75bd1d" y="37.471066"/>
     <use style="fill:#98df8a;stroke:#ffffff;stroke-linejoin:miter;stroke-width:0.75;" x="396.565803" xlink:href="#mc63d75bd1d" y="37.471066"/>
     <use style="fill:#98df8a;stroke:#ffffff;stroke-linejoin:miter;stroke-width:0.75;" x="397.386358" xlink:href="#mc63d75bd1d" y="37.392007"/>
     <use style="fill:#98df8a;stroke:#ffffff;stroke-linejoin:miter;stroke-width:0.75;" x="398.197642" xlink:href="#mc63d75bd1d" y="37.392007"/>
     <use style="fill:#98df8a;stroke:#ffffff;stroke-linejoin:miter;stroke-width:0.75;" x="398.99986" xlink:href="#mc63d75bd1d" y="37.392007"/>
     <use style="fill:#98df8a;stroke:#ffffff;stroke-linejoin:miter;stroke-width:0.75;" x="399.793214" xlink:href="#mc63d75bd1d" y="37.392007"/>
     <use style="fill:#98df8a;stroke:#ffffff;stroke-linejoin:miter;stroke-width:0.75;" x="400.577898" xlink:href="#mc63d75bd1d" y="37.392007"/>
    </g>
   </g>
   <g id="line2d_31">
    <path clip-path="url(#pdc3be376dd)" d="M 75.923352 262.551537 
L 125.689806 250.21836 
L 154.801316 248.663537 
L 175.45626 244.921419 
L 191.47748 244.921419 
L 204.567769 244.921419 
L 215.635452 244.921419 
L 225.222714 244.921419 
L 233.679279 244.921419 
L 241.243934 244.921419 
L 248.086996 242.60236 
L 254.334223 242.60236 
L 260.081115 242.60236 
L 265.401906 242.15436 
L 270.355443 242.15436 
L 274.989168 242.15436 
L 279.341883 242.15436 
L 283.445733 242.15436 
L 287.327641 242.15436 
L 291.010388 242.15436 
L 294.513415 242.15436 
L 297.85345 242.15436 
L 301.04499 242.15436 
L 304.100677 242.15436 
L 307.031607 242.15436 
L 309.847569 240.520478 
L 312.557242 238.860243 
L 315.168359 238.860243 
L 317.68784 238.860243 
L 320.121897 238.860243 
L 322.476135 238.860243 
L 324.755622 238.860243 
L 326.96496 238.860243 
L 329.108337 238.860243 
L 331.189579 238.860243 
L 333.212187 238.860243 
L 335.179373 238.860243 
L 337.094095 238.860243 
L 338.959078 238.860243 
L 340.776842 236.962831 
L 342.549717 236.962831 
L 344.279869 236.962831 
L 345.969307 236.962831 
L 347.619904 236.962831 
L 349.233406 236.962831 
L 350.811444 236.962831 
L 352.355542 236.962831 
L 353.867131 236.962831 
L 355.347551 236.962831 
L 356.798061 236.962831 
L 358.219847 236.962831 
L 359.614023 236.962831 
L 360.981642 236.962831 
L 362.323696 236.962831 
L 363.641124 236.962831 
L 364.934813 236.962831 
L 366.205604 236.962831 
L 367.454294 236.962831 
L 368.681636 236.962831 
L 369.888351 236.962831 
L 371.075119 236.962831 
L 372.242589 236.962831 
L 373.391378 236.962831 
L 374.522076 236.962831 
L 375.635243 236.962831 
L 376.731414 236.962831 
L 377.8111 236.962831 
L 378.874791 236.962831 
L 379.922953 236.962831 
L 380.956033 236.962831 
L 381.974459 236.962831 
L 382.978641 236.962831 
L 383.968971 236.962831 
L 384.945827 236.962831 
L 385.909571 236.962831 
L 386.860549 236.962831 
L 387.799096 236.962831 
L 388.725532 236.962831 
L 389.640166 236.962831 
L 390.543295 236.962831 
L 391.435205 236.962831 
L 392.316171 236.962831 
L 393.186458 236.962831 
L 394.046323 236.962831 
L 394.896011 236.962831 
L 395.735761 236.962831 
L 396.565803 236.962831 
L 397.386358 236.962831 
L 398.197642 236.962831 
L 398.99986 236.962831 
L 399.793214 236.962831 
L 400.577898 236.962831 
" style="fill:none;stroke:#d62728;stroke-linecap:square;stroke-width:1.5;"/>
    <defs>
     <path d="M 0 -3 
L -3 3 
L 3 3 
z
" id="m7afdc17dfc" style="stroke:#ffffff;stroke-linejoin:miter;stroke-width:0.75;"/>
    </defs>
    <g clip-path="url(#pdc3be376dd)">
     <use style="fill:#d62728;stroke:#ffffff;stroke-linejoin:miter;stroke-width:0.75;" x="75.923352" xlink:href="#m7afdc17dfc" y="262.551537"/>
     <use style="fill:#d62728;stroke:#ffffff;stroke-linejoin:miter;stroke-width:0.75;" x="125.689806" xlink:href="#m7afdc17dfc" y="250.21836"/>
     <use style="fill:#d62728;stroke:#ffffff;stroke-linejoin:miter;stroke-width:0.75;" x="154.801316" xlink:href="#m7afdc17dfc" y="248.663537"/>
     <use style="fill:#d62728;stroke:#ffffff;stroke-linejoin:miter;stroke-width:0.75;" x="175.45626" xlink:href="#m7afdc17dfc" y="244.921419"/>
     <use style="fill:#d62728;stroke:#ffffff;stroke-linejoin:miter;stroke-width:0.75;" x="191.47748" xlink:href="#m7afdc17dfc" y="244.921419"/>
     <use style="fill:#d62728;stroke:#ffffff;stroke-linejoin:miter;stroke-width:0.75;" x="204.567769" xlink:href="#m7afdc17dfc" y="244.921419"/>
     <use style="fill:#d62728;stroke:#ffffff;stroke-linejoin:miter;stroke-width:0.75;" x="215.635452" xlink:href="#m7afdc17dfc" y="244.921419"/>
     <use style="fill:#d62728;stroke:#ffffff;stroke-linejoin:miter;stroke-width:0.75;" x="225.222714" xlink:href="#m7afdc17dfc" y="244.921419"/>
     <use style="fill:#d62728;stroke:#ffffff;stroke-linejoin:miter;stroke-width:0.75;" x="233.679279" xlink:href="#m7afdc17dfc" y="244.921419"/>
     <use style="fill:#d62728;stroke:#ffffff;stroke-linejoin:miter;stroke-width:0.75;" x="241.243934" xlink:href="#m7afdc17dfc" y="244.921419"/>
     <use style="fill:#d62728;stroke:#ffffff;stroke-linejoin:miter;stroke-width:0.75;" x="248.086996" xlink:href="#m7afdc17dfc" y="242.60236"/>
     <use style="fill:#d62728;stroke:#ffffff;stroke-linejoin:miter;stroke-width:0.75;" x="254.334223" xlink:href="#m7afdc17dfc" y="242.60236"/>
     <use style="fill:#d62728;stroke:#ffffff;stroke-linejoin:miter;stroke-width:0.75;" x="260.081115" xlink:href="#m7afdc17dfc" y="242.60236"/>
     <use style="fill:#d62728;stroke:#ffffff;stroke-linejoin:miter;stroke-width:0.75;" x="265.401906" xlink:href="#m7afdc17dfc" y="242.15436"/>
     <use style="fill:#d62728;stroke:#ffffff;stroke-linejoin:miter;stroke-width:0.75;" x="270.355443" xlink:href="#m7afdc17dfc" y="242.15436"/>
     <use style="fill:#d62728;stroke:#ffffff;stroke-linejoin:miter;stroke-width:0.75;" x="274.989168" xlink:href="#m7afdc17dfc" y="242.15436"/>
     <use style="fill:#d62728;stroke:#ffffff;stroke-linejoin:miter;stroke-width:0.75;" x="279.341883" xlink:href="#m7afdc17dfc" y="242.15436"/>
     <use style="fill:#d62728;stroke:#ffffff;stroke-linejoin:miter;stroke-width:0.75;" x="283.445733" xlink:href="#m7afdc17dfc" y="242.15436"/>
     <use style="fill:#d62728;stroke:#ffffff;stroke-linejoin:miter;stroke-width:0.75;" x="287.327641" xlink:href="#m7afdc17dfc" y="242.15436"/>
     <use style="fill:#d62728;stroke:#ffffff;stroke-linejoin:miter;stroke-width:0.75;" x="291.010388" xlink:href="#m7afdc17dfc" y="242.15436"/>
     <use style="fill:#d62728;stroke:#ffffff;stroke-linejoin:miter;stroke-width:0.75;" x="294.513415" xlink:href="#m7afdc17dfc" y="242.15436"/>
     <use style="fill:#d62728;stroke:#ffffff;stroke-linejoin:miter;stroke-width:0.75;" x="297.85345" xlink:href="#m7afdc17dfc" y="242.15436"/>
     <use style="fill:#d62728;stroke:#ffffff;stroke-linejoin:miter;stroke-width:0.75;" x="301.04499" xlink:href="#m7afdc17dfc" y="242.15436"/>
     <use style="fill:#d62728;stroke:#ffffff;stroke-linejoin:miter;stroke-width:0.75;" x="304.100677" xlink:href="#m7afdc17dfc" y="242.15436"/>
     <use style="fill:#d62728;stroke:#ffffff;stroke-linejoin:miter;stroke-width:0.75;" x="307.031607" xlink:href="#m7afdc17dfc" y="242.15436"/>
     <use style="fill:#d62728;stroke:#ffffff;stroke-linejoin:miter;stroke-width:0.75;" x="309.847569" xlink:href="#m7afdc17dfc" y="240.520478"/>
     <use style="fill:#d62728;stroke:#ffffff;stroke-linejoin:miter;stroke-width:0.75;" x="312.557242" xlink:href="#m7afdc17dfc" y="238.860243"/>
     <use style="fill:#d62728;stroke:#ffffff;stroke-linejoin:miter;stroke-width:0.75;" x="315.168359" xlink:href="#m7afdc17dfc" y="238.860243"/>
     <use style="fill:#d62728;stroke:#ffffff;stroke-linejoin:miter;stroke-width:0.75;" x="317.68784" xlink:href="#m7afdc17dfc" y="238.860243"/>
     <use style="fill:#d62728;stroke:#ffffff;stroke-linejoin:miter;stroke-width:0.75;" x="320.121897" xlink:href="#m7afdc17dfc" y="238.860243"/>
     <use style="fill:#d62728;stroke:#ffffff;stroke-linejoin:miter;stroke-width:0.75;" x="322.476135" xlink:href="#m7afdc17dfc" y="238.860243"/>
     <use style="fill:#d62728;stroke:#ffffff;stroke-linejoin:miter;stroke-width:0.75;" x="324.755622" xlink:href="#m7afdc17dfc" y="238.860243"/>
     <use style="fill:#d62728;stroke:#ffffff;stroke-linejoin:miter;stroke-width:0.75;" x="326.96496" xlink:href="#m7afdc17dfc" y="238.860243"/>
     <use style="fill:#d62728;stroke:#ffffff;stroke-linejoin:miter;stroke-width:0.75;" x="329.108337" xlink:href="#m7afdc17dfc" y="238.860243"/>
     <use style="fill:#d62728;stroke:#ffffff;stroke-linejoin:miter;stroke-width:0.75;" x="331.189579" xlink:href="#m7afdc17dfc" y="238.860243"/>
     <use style="fill:#d62728;stroke:#ffffff;stroke-linejoin:miter;stroke-width:0.75;" x="333.212187" xlink:href="#m7afdc17dfc" y="238.860243"/>
     <use style="fill:#d62728;stroke:#ffffff;stroke-linejoin:miter;stroke-width:0.75;" x="335.179373" xlink:href="#m7afdc17dfc" y="238.860243"/>
     <use style="fill:#d62728;stroke:#ffffff;stroke-linejoin:miter;stroke-width:0.75;" x="337.094095" xlink:href="#m7afdc17dfc" y="238.860243"/>
     <use style="fill:#d62728;stroke:#ffffff;stroke-linejoin:miter;stroke-width:0.75;" x="338.959078" xlink:href="#m7afdc17dfc" y="238.860243"/>
     <use style="fill:#d62728;stroke:#ffffff;stroke-linejoin:miter;stroke-width:0.75;" x="340.776842" xlink:href="#m7afdc17dfc" y="236.962831"/>
     <use style="fill:#d62728;stroke:#ffffff;stroke-linejoin:miter;stroke-width:0.75;" x="342.549717" xlink:href="#m7afdc17dfc" y="236.962831"/>
     <use style="fill:#d62728;stroke:#ffffff;stroke-linejoin:miter;stroke-width:0.75;" x="344.279869" xlink:href="#m7afdc17dfc" y="236.962831"/>
     <use style="fill:#d62728;stroke:#ffffff;stroke-linejoin:miter;stroke-width:0.75;" x="345.969307" xlink:href="#m7afdc17dfc" y="236.962831"/>
     <use style="fill:#d62728;stroke:#ffffff;stroke-linejoin:miter;stroke-width:0.75;" x="347.619904" xlink:href="#m7afdc17dfc" y="236.962831"/>
     <use style="fill:#d62728;stroke:#ffffff;stroke-linejoin:miter;stroke-width:0.75;" x="349.233406" xlink:href="#m7afdc17dfc" y="236.962831"/>
     <use style="fill:#d62728;stroke:#ffffff;stroke-linejoin:miter;stroke-width:0.75;" x="350.811444" xlink:href="#m7afdc17dfc" y="236.962831"/>
     <use style="fill:#d62728;stroke:#ffffff;stroke-linejoin:miter;stroke-width:0.75;" x="352.355542" xlink:href="#m7afdc17dfc" y="236.962831"/>
     <use style="fill:#d62728;stroke:#ffffff;stroke-linejoin:miter;stroke-width:0.75;" x="353.867131" xlink:href="#m7afdc17dfc" y="236.962831"/>
     <use style="fill:#d62728;stroke:#ffffff;stroke-linejoin:miter;stroke-width:0.75;" x="355.347551" xlink:href="#m7afdc17dfc" y="236.962831"/>
     <use style="fill:#d62728;stroke:#ffffff;stroke-linejoin:miter;stroke-width:0.75;" x="356.798061" xlink:href="#m7afdc17dfc" y="236.962831"/>
     <use style="fill:#d62728;stroke:#ffffff;stroke-linejoin:miter;stroke-width:0.75;" x="358.219847" xlink:href="#m7afdc17dfc" y="236.962831"/>
     <use style="fill:#d62728;stroke:#ffffff;stroke-linejoin:miter;stroke-width:0.75;" x="359.614023" xlink:href="#m7afdc17dfc" y="236.962831"/>
     <use style="fill:#d62728;stroke:#ffffff;stroke-linejoin:miter;stroke-width:0.75;" x="360.981642" xlink:href="#m7afdc17dfc" y="236.962831"/>
     <use style="fill:#d62728;stroke:#ffffff;stroke-linejoin:miter;stroke-width:0.75;" x="362.323696" xlink:href="#m7afdc17dfc" y="236.962831"/>
     <use style="fill:#d62728;stroke:#ffffff;stroke-linejoin:miter;stroke-width:0.75;" x="363.641124" xlink:href="#m7afdc17dfc" y="236.962831"/>
     <use style="fill:#d62728;stroke:#ffffff;stroke-linejoin:miter;stroke-width:0.75;" x="364.934813" xlink:href="#m7afdc17dfc" y="236.962831"/>
     <use style="fill:#d62728;stroke:#ffffff;stroke-linejoin:miter;stroke-width:0.75;" x="366.205604" xlink:href="#m7afdc17dfc" y="236.962831"/>
     <use style="fill:#d62728;stroke:#ffffff;stroke-linejoin:miter;stroke-width:0.75;" x="367.454294" xlink:href="#m7afdc17dfc" y="236.962831"/>
     <use style="fill:#d62728;stroke:#ffffff;stroke-linejoin:miter;stroke-width:0.75;" x="368.681636" xlink:href="#m7afdc17dfc" y="236.962831"/>
     <use style="fill:#d62728;stroke:#ffffff;stroke-linejoin:miter;stroke-width:0.75;" x="369.888351" xlink:href="#m7afdc17dfc" y="236.962831"/>
     <use style="fill:#d62728;stroke:#ffffff;stroke-linejoin:miter;stroke-width:0.75;" x="371.075119" xlink:href="#m7afdc17dfc" y="236.962831"/>
     <use style="fill:#d62728;stroke:#ffffff;stroke-linejoin:miter;stroke-width:0.75;" x="372.242589" xlink:href="#m7afdc17dfc" y="236.962831"/>
     <use style="fill:#d62728;stroke:#ffffff;stroke-linejoin:miter;stroke-width:0.75;" x="373.391378" xlink:href="#m7afdc17dfc" y="236.962831"/>
     <use style="fill:#d62728;stroke:#ffffff;stroke-linejoin:miter;stroke-width:0.75;" x="374.522076" xlink:href="#m7afdc17dfc" y="236.962831"/>
     <use style="fill:#d62728;stroke:#ffffff;stroke-linejoin:miter;stroke-width:0.75;" x="375.635243" xlink:href="#m7afdc17dfc" y="236.962831"/>
     <use style="fill:#d62728;stroke:#ffffff;stroke-linejoin:miter;stroke-width:0.75;" x="376.731414" xlink:href="#m7afdc17dfc" y="236.962831"/>
     <use style="fill:#d62728;stroke:#ffffff;stroke-linejoin:miter;stroke-width:0.75;" x="377.8111" xlink:href="#m7afdc17dfc" y="236.962831"/>
     <use style="fill:#d62728;stroke:#ffffff;stroke-linejoin:miter;stroke-width:0.75;" x="378.874791" xlink:href="#m7afdc17dfc" y="236.962831"/>
     <use style="fill:#d62728;stroke:#ffffff;stroke-linejoin:miter;stroke-width:0.75;" x="379.922953" xlink:href="#m7afdc17dfc" y="236.962831"/>
     <use style="fill:#d62728;stroke:#ffffff;stroke-linejoin:miter;stroke-width:0.75;" x="380.956033" xlink:href="#m7afdc17dfc" y="236.962831"/>
     <use style="fill:#d62728;stroke:#ffffff;stroke-linejoin:miter;stroke-width:0.75;" x="381.974459" xlink:href="#m7afdc17dfc" y="236.962831"/>
     <use style="fill:#d62728;stroke:#ffffff;stroke-linejoin:miter;stroke-width:0.75;" x="382.978641" xlink:href="#m7afdc17dfc" y="236.962831"/>
     <use style="fill:#d62728;stroke:#ffffff;stroke-linejoin:miter;stroke-width:0.75;" x="383.968971" xlink:href="#m7afdc17dfc" y="236.962831"/>
     <use style="fill:#d62728;stroke:#ffffff;stroke-linejoin:miter;stroke-width:0.75;" x="384.945827" xlink:href="#m7afdc17dfc" y="236.962831"/>
     <use style="fill:#d62728;stroke:#ffffff;stroke-linejoin:miter;stroke-width:0.75;" x="385.909571" xlink:href="#m7afdc17dfc" y="236.962831"/>
     <use style="fill:#d62728;stroke:#ffffff;stroke-linejoin:miter;stroke-width:0.75;" x="386.860549" xlink:href="#m7afdc17dfc" y="236.962831"/>
     <use style="fill:#d62728;stroke:#ffffff;stroke-linejoin:miter;stroke-width:0.75;" x="387.799096" xlink:href="#m7afdc17dfc" y="236.962831"/>
     <use style="fill:#d62728;stroke:#ffffff;stroke-linejoin:miter;stroke-width:0.75;" x="388.725532" xlink:href="#m7afdc17dfc" y="236.962831"/>
     <use style="fill:#d62728;stroke:#ffffff;stroke-linejoin:miter;stroke-width:0.75;" x="389.640166" xlink:href="#m7afdc17dfc" y="236.962831"/>
     <use style="fill:#d62728;stroke:#ffffff;stroke-linejoin:miter;stroke-width:0.75;" x="390.543295" xlink:href="#m7afdc17dfc" y="236.962831"/>
     <use style="fill:#d62728;stroke:#ffffff;stroke-linejoin:miter;stroke-width:0.75;" x="391.435205" xlink:href="#m7afdc17dfc" y="236.962831"/>
     <use style="fill:#d62728;stroke:#ffffff;stroke-linejoin:miter;stroke-width:0.75;" x="392.316171" xlink:href="#m7afdc17dfc" y="236.962831"/>
     <use style="fill:#d62728;stroke:#ffffff;stroke-linejoin:miter;stroke-width:0.75;" x="393.186458" xlink:href="#m7afdc17dfc" y="236.962831"/>
     <use style="fill:#d62728;stroke:#ffffff;stroke-linejoin:miter;stroke-width:0.75;" x="394.046323" xlink:href="#m7afdc17dfc" y="236.962831"/>
     <use style="fill:#d62728;stroke:#ffffff;stroke-linejoin:miter;stroke-width:0.75;" x="394.896011" xlink:href="#m7afdc17dfc" y="236.962831"/>
     <use style="fill:#d62728;stroke:#ffffff;stroke-linejoin:miter;stroke-width:0.75;" x="395.735761" xlink:href="#m7afdc17dfc" y="236.962831"/>
     <use style="fill:#d62728;stroke:#ffffff;stroke-linejoin:miter;stroke-width:0.75;" x="396.565803" xlink:href="#m7afdc17dfc" y="236.962831"/>
     <use style="fill:#d62728;stroke:#ffffff;stroke-linejoin:miter;stroke-width:0.75;" x="397.386358" xlink:href="#m7afdc17dfc" y="236.962831"/>
     <use style="fill:#d62728;stroke:#ffffff;stroke-linejoin:miter;stroke-width:0.75;" x="398.197642" xlink:href="#m7afdc17dfc" y="236.962831"/>
     <use style="fill:#d62728;stroke:#ffffff;stroke-linejoin:miter;stroke-width:0.75;" x="398.99986" xlink:href="#m7afdc17dfc" y="236.962831"/>
     <use style="fill:#d62728;stroke:#ffffff;stroke-linejoin:miter;stroke-width:0.75;" x="399.793214" xlink:href="#m7afdc17dfc" y="236.962831"/>
     <use style="fill:#d62728;stroke:#ffffff;stroke-linejoin:miter;stroke-width:0.75;" x="400.577898" xlink:href="#m7afdc17dfc" y="236.962831"/>
    </g>
   </g>
   <g id="line2d_32"/>
   <g id="line2d_33"/>
   <g id="line2d_34"/>
   <g id="patch_3">
    <path d="M 59.690625 276.228713 
L 59.690625 65.405184 
" style="fill:none;stroke:#000000;stroke-linecap:square;stroke-linejoin:miter;stroke-width:0.8;"/>
   </g>
   <g id="patch_4">
    <path d="M 75.923352 288.430125 
L 400.578765 288.430125 
" style="fill:none;stroke:#000000;stroke-linecap:square;stroke-linejoin:miter;stroke-width:0.8;"/>
   </g>
   <g id="text_14">
    <!-- usrsctp_fuzzer_connect (23h, 20 trials/fuzzer) -->
    <g transform="translate(101.250938 16.318125)scale(0.12 -0.12)">
     <defs>
      <path d="M 2834 3397 
L 2834 2853 
Q 2591 2978 2328 3040 
Q 2066 3103 1784 3103 
Q 1356 3103 1142 2972 
Q 928 2841 928 2578 
Q 928 2378 1081 2264 
Q 1234 2150 1697 2047 
L 1894 2003 
Q 2506 1872 2764 1633 
Q 3022 1394 3022 966 
Q 3022 478 2636 193 
Q 2250 -91 1575 -91 
Q 1294 -91 989 -36 
Q 684 19 347 128 
L 347 722 
Q 666 556 975 473 
Q 1284 391 1588 391 
Q 1994 391 2212 530 
Q 2431 669 2431 922 
Q 2431 1156 2273 1281 
Q 2116 1406 1581 1522 
L 1381 1569 
Q 847 1681 609 1914 
Q 372 2147 372 2553 
Q 372 3047 722 3315 
Q 1072 3584 1716 3584 
Q 2034 3584 2315 3537 
Q 2597 3491 2834 3397 
z
" id="DejaVuSans-73" transform="scale(0.015625)"/>
      <path d="M 1159 525 
L 1159 -1331 
L 581 -1331 
L 581 3500 
L 1159 3500 
L 1159 2969 
Q 1341 3281 1617 3432 
Q 1894 3584 2278 3584 
Q 2916 3584 3314 3078 
Q 3713 2572 3713 1747 
Q 3713 922 3314 415 
Q 2916 -91 2278 -91 
Q 1894 -91 1617 61 
Q 1341 213 1159 525 
z
M 3116 1747 
Q 3116 2381 2855 2742 
Q 2594 3103 2138 3103 
Q 1681 3103 1420 2742 
Q 1159 2381 1159 1747 
Q 1159 1113 1420 752 
Q 1681 391 2138 391 
Q 2594 391 2855 752 
Q 3116 1113 3116 1747 
z
" id="DejaVuSans-70" transform="scale(0.015625)"/>
      <path d="M 3263 -1063 
L 3263 -1509 
L -63 -1509 
L -63 -1063 
L 3263 -1063 
z
" id="DejaVuSans-5f" transform="scale(0.015625)"/>
      <path d="M 2375 4863 
L 2375 4384 
L 1825 4384 
Q 1516 4384 1395 4259 
Q 1275 4134 1275 3809 
L 1275 3500 
L 2222 3500 
L 2222 3053 
L 1275 3053 
L 1275 0 
L 697 0 
L 697 3053 
L 147 3053 
L 147 3500 
L 697 3500 
L 697 3744 
Q 697 4328 969 4595 
Q 1241 4863 1831 4863 
L 2375 4863 
z
" id="DejaVuSans-66" transform="scale(0.015625)"/>
      <path d="M 353 3500 
L 3084 3500 
L 3084 2975 
L 922 459 
L 3084 459 
L 3084 0 
L 275 0 
L 275 525 
L 2438 3041 
L 353 3041 
L 353 3500 
z
" id="DejaVuSans-7a" transform="scale(0.015625)"/>
      <path d="M 750 794 
L 1409 794 
L 1409 256 
L 897 -744 
L 494 -744 
L 750 256 
L 750 794 
z
" id="DejaVuSans-2c" transform="scale(0.015625)"/>
      <path d="M 603 4863 
L 1178 4863 
L 1178 0 
L 603 0 
L 603 4863 
z
" id="DejaVuSans-6c" transform="scale(0.015625)"/>
      <path d="M 1625 4666 
L 2156 4666 
L 531 -594 
L 0 -594 
L 1625 4666 
z
" id="DejaVuSans-2f" transform="scale(0.015625)"/>
     </defs>
     <use xlink:href="#DejaVuSans-75"/>
     <use x="63.378906" xlink:href="#DejaVuSans-73"/>
     <use x="115.478516" xlink:href="#DejaVuSans-72"/>
     <use x="156.591797" xlink:href="#DejaVuSans-73"/>
     <use x="208.691406" xlink:href="#DejaVuSans-63"/>
     <use x="263.671875" xlink:href="#DejaVuSans-74"/>
     <use x="302.880859" xlink:href="#DejaVuSans-70"/>
     <use x="366.357422" xlink:href="#DejaVuSans-5f"/>
     <use x="416.357422" xlink:href="#DejaVuSans-66"/>
     <use x="451.5625" xlink:href="#DejaVuSans-75"/>
     <use x="514.941406" xlink:href="#DejaVuSans-7a"/>
     <use x="567.431641" xlink:href="#DejaVuSans-7a"/>
     <use x="619.921875" xlink:href="#DejaVuSans-65"/>
     <use x="681.445312" xlink:href="#DejaVuSans-72"/>
     <use x="722.558594" xlink:href="#DejaVuSans-5f"/>
     <use x="772.558594" xlink:href="#DejaVuSans-63"/>
     <use x="827.539062" xlink:href="#DejaVuSans-6f"/>
     <use x="888.720703" xlink:href="#DejaVuSans-6e"/>
     <use x="952.099609" xlink:href="#DejaVuSans-6e"/>
     <use x="1015.478516" xlink:href="#DejaVuSans-65"/>
     <use x="1077.001953" xlink:href="#DejaVuSans-63"/>
     <use x="1131.982422" xlink:href="#DejaVuSans-74"/>
     <use x="1171.191406" xlink:href="#DejaVuSans-20"/>
     <use x="1202.978516" xlink:href="#DejaVuSans-28"/>
     <use x="1241.992188" xlink:href="#DejaVuSans-32"/>
     <use x="1305.615234" xlink:href="#DejaVuSans-33"/>
     <use x="1369.238281" xlink:href="#DejaVuSans-68"/>
     <use x="1432.617188" xlink:href="#DejaVuSans-2c"/>
     <use x="1464.404297" xlink:href="#DejaVuSans-20"/>
     <use x="1496.191406" xlink:href="#DejaVuSans-32"/>
     <use x="1559.814453" xlink:href="#DejaVuSans-30"/>
     <use x="1623.4375" xlink:href="#DejaVuSans-20"/>
     <use x="1655.224609" xlink:href="#DejaVuSans-74"/>
     <use x="1694.433594" xlink:href="#DejaVuSans-72"/>
     <use x="1735.546875" xlink:href="#DejaVuSans-69"/>
     <use x="1763.330078" xlink:href="#DejaVuSans-61"/>
     <use x="1824.609375" xlink:href="#DejaVuSans-6c"/>
     <use x="1852.392578" xlink:href="#DejaVuSans-73"/>
     <use x="1904.492188" xlink:href="#DejaVuSans-2f"/>
     <use x="1938.183594" xlink:href="#DejaVuSans-66"/>
     <use x="1973.388672" xlink:href="#DejaVuSans-75"/>
     <use x="2036.767578" xlink:href="#DejaVuSans-7a"/>
     <use x="2089.257812" xlink:href="#DejaVuSans-7a"/>
     <use x="2141.748047" xlink:href="#DejaVuSans-65"/>
     <use x="2203.271484" xlink:href="#DejaVuSans-72"/>
     <use x="2244.384766" xlink:href="#DejaVuSans-29"/>
    </g>
   </g>
   <g id="legend_1">
    <g id="line2d_35">
     <path d="M 420.810625 30.416562 
L 440.810625 30.416562 
" style="fill:none;stroke:#1f77b4;stroke-linecap:square;stroke-width:1.5;"/>
    </g>
    <g id="line2d_36">
     <defs>
      <path d="M 0 3 
C 0.795609 3 1.55874 2.683901 2.12132 2.12132 
C 2.683901 1.55874 3 0.795609 3 0 
C 3 -0.795609 2.683901 -1.55874 2.12132 -2.12132 
C 1.55874 -2.683901 0.795609 -3 0 -3 
C -0.795609 -3 -1.55874 -2.683901 -2.12132 -2.12132 
C -2.683901 -1.55874 -3 -0.795609 -3 0 
C -3 0.795609 -2.683901 1.55874 -2.12132 2.12132 
C -1.55874 2.683901 -0.795609 3 0 3 
z
" id="mf6b9bcb8c9" style="stroke:#1f77b4;"/>
     </defs>
     <g>
      <use style="fill:#1f77b4;stroke:#1f77b4;" x="430.810625" xlink:href="#mf6b9bcb8c9" y="30.416562"/>
     </g>
    </g>
    <g id="text_15">
     <!-- afl -->
     <g transform="translate(448.810625 33.916562)scale(0.1 -0.1)">
      <use xlink:href="#DejaVuSans-61"/>
      <use x="61.279297" xlink:href="#DejaVuSans-66"/>
      <use x="96.484375" xlink:href="#DejaVuSans-6c"/>
     </g>
    </g>
    <g id="line2d_37">
     <path d="M 420.810625 45.094688 
L 440.810625 45.094688 
" style="fill:none;stroke:#98df8a;stroke-linecap:square;stroke-width:1.5;"/>
    </g>
    <g id="line2d_38">
     <defs>
      <path d="M -0 3 
L 3 -3 
L -3 -3 
z
" id="m9f466aff50" style="stroke:#98df8a;stroke-linejoin:miter;"/>
     </defs>
     <g>
      <use style="fill:#98df8a;stroke:#98df8a;stroke-linejoin:miter;" x="430.810625" xlink:href="#m9f466aff50" y="45.094688"/>
     </g>
    </g>
    <g id="text_16">
     <!-- afl_fitness -->
     <g transform="translate(448.810625 48.594688)scale(0.1 -0.1)">
      <use xlink:href="#DejaVuSans-61"/>
      <use x="61.279297" xlink:href="#DejaVuSans-66"/>
      <use x="96.484375" xlink:href="#DejaVuSans-6c"/>
      <use x="124.267578" xlink:href="#DejaVuSans-5f"/>
      <use x="174.267578" xlink:href="#DejaVuSans-66"/>
      <use x="209.472656" xlink:href="#DejaVuSans-69"/>
      <use x="237.255859" xlink:href="#DejaVuSans-74"/>
      <use x="276.464844" xlink:href="#DejaVuSans-6e"/>
      <use x="339.84375" xlink:href="#DejaVuSans-65"/>
      <use x="401.367188" xlink:href="#DejaVuSans-73"/>
      <use x="453.466797" xlink:href="#DejaVuSans-73"/>
     </g>
    </g>
    <g id="line2d_39">
     <path d="M 420.810625 60.050937 
L 440.810625 60.050937 
" style="fill:none;stroke:#d62728;stroke-linecap:square;stroke-width:1.5;"/>
    </g>
    <g id="line2d_40">
     <defs>
      <path d="M 0 -3 
L -3 3 
L 3 3 
z
" id="m5929489b19" style="stroke:#d62728;stroke-linejoin:miter;"/>
     </defs>
     <g>
      <use style="fill:#d62728;stroke:#d62728;stroke-linejoin:miter;" x="430.810625" xlink:href="#m5929489b19" y="60.050937"/>
     </g>
    </g>
    <g id="text_17">
     <!-- afl_fitness_only -->
     <g transform="translate(448.810625 63.550937)scale(0.1 -0.1)">
      <defs>
       <path d="M 2059 -325 
Q 1816 -950 1584 -1140 
Q 1353 -1331 966 -1331 
L 506 -1331 
L 506 -850 
L 844 -850 
Q 1081 -850 1212 -737 
Q 1344 -625 1503 -206 
L 1606 56 
L 191 3500 
L 800 3500 
L 1894 763 
L 2988 3500 
L 3597 3500 
L 2059 -325 
z
" id="DejaVuSans-79" transform="scale(0.015625)"/>
      </defs>
      <use xlink:href="#DejaVuSans-61"/>
      <use x="61.279297" xlink:href="#DejaVuSans-66"/>
      <use x="96.484375" xlink:href="#DejaVuSans-6c"/>
      <use x="124.267578" xlink:href="#DejaVuSans-5f"/>
      <use x="174.267578" xlink:href="#DejaVuSans-66"/>
      <use x="209.472656" xlink:href="#DejaVuSans-69"/>
      <use x="237.255859" xlink:href="#DejaVuSans-74"/>
      <use x="276.464844" xlink:href="#DejaVuSans-6e"/>
      <use x="339.84375" xlink:href="#DejaVuSans-65"/>
      <use x="401.367188" xlink:href="#DejaVuSans-73"/>
      <use x="453.466797" xlink:href="#DejaVuSans-73"/>
      <use x="505.566406" xlink:href="#DejaVuSans-5f"/>
      <use x="555.566406" xlink:href="#DejaVuSans-6f"/>
      <use x="616.748047" xlink:href="#DejaVuSans-6e"/>
      <use x="680.126953" xlink:href="#DejaVuSans-6c"/>
      <use x="707.910156" xlink:href="#DejaVuSans-79"/>
     </g>
    </g>
   </g>
  </g>
 </g>
 <defs>
  <clipPath id="pdc3be376dd">
   <rect height="266.112" width="357.12" x="59.690625" y="22.318125"/>
  </clipPath>
 </defs>
</svg>
