<?xml version="1.0" encoding="utf-8" standalone="no"?>
<!DOCTYPE svg PUBLIC "-//W3C//DTD SVG 1.1//EN"
  "http://www.w3.org/Graphics/SVG/1.1/DTD/svg11.dtd">
<svg height="325.986375pt" version="1.1" viewBox="0 0 536.718438 325.986375" width="536.718438pt" xmlns="http://www.w3.org/2000/svg" xmlns:xlink="http://www.w3.org/1999/xlink">
 <metadata>
  <rdf:RDF xmlns:cc="http://creativecommons.org/ns#" xmlns:dc="http://purl.org/dc/elements/1.1/" xmlns:rdf="http://www.w3.org/1999/02/22-rdf-syntax-ns#">
   <cc:Work>
    <dc:type rdf:resource="http://purl.org/dc/dcmitype/StillImage"/>
    <dc:date>2022-06-02T16:50:14.164073</dc:date>
    <dc:format>image/svg+xml</dc:format>
    <dc:creator>
     <cc:Agent>
      <dc:title>Matplotlib v3.4.3, https://matplotlib.org/</dc:title>
     </cc:Agent>
    </dc:creator>
   </cc:Work>
  </rdf:RDF>
 </metadata>
 <defs>
  <style type="text/css">*{stroke-linecap:butt;stroke-linejoin:round;}</style>
 </defs>
 <g id="figure_1">
  <g id="patch_1">
   <path d="M 0 325.986375 
L 536.718438 325.986375 
L 536.718438 0 
L 0 0 
z
" style="fill:#ffffff;"/>
  </g>
  <g id="axes_1">
   <g id="patch_2">
    <path d="M 59.690625 288.430125 
L 416.810625 288.430125 
L 416.810625 22.318125 
L 59.690625 22.318125 
z
" style="fill:#ffffff;"/>
   </g>
   <g id="PolyCollection_1">
    <defs>
     <path d="M 75.923352 -200.26761 
L 75.923352 -179.05705 
L 79.490985 -188.12905 
L 83.058617 -200.69545 
L 86.626249 -209.00585 
L 90.193882 -210.32745 
L 93.761514 -212.26673 
L 97.329146 -215.16585 
L 100.896779 -220.34025 
L 104.464411 -220.29545 
L 108.032044 -221.99785 
L 111.599676 -222.08745 
L 115.167308 -224.76201 
L 118.734941 -224.82025 
L 122.302573 -226.02985 
L 125.870205 -228.98665 
L 129.437838 -228.98665 
L 133.00547 -228.98665 
L 136.573103 -229.92745 
L 140.140735 -230.73385 
L 143.708367 -230.84585 
L 147.276 -235.52745 
L 150.843632 -237.72265 
L 154.411264 -237.76409 
L 157.978897 -239.78345 
L 161.546529 -248.60961 
L 165.114161 -248.65385 
L 168.681794 -249.53361 
L 172.249426 -249.39305 
L 175.817059 -249.10185 
L 179.384691 -249.52745 
L 182.952323 -252.39465 
L 186.519956 -252.39465 
L 190.087588 -254.32105 
L 193.65522 -254.54505 
L 197.222853 -255.46345 
L 200.790485 -255.46345 
L 204.358118 -255.50713 
L 207.92575 -255.41865 
L 211.493382 -255.50825 
L 215.061015 -255.46345 
L 218.628647 -255.64265 
L 222.196279 -255.70985 
L 225.763912 -255.70985 
L 229.331544 -256.96425 
L 232.899176 -258.62185 
L 236.466809 -259.06929 
L 240.034441 -259.06985 
L 243.602074 -259.06985 
L 247.169706 -260.28673 
L 250.737338 -259.85385 
L 254.304971 -259.85385 
L 257.872603 -260.63113 
L 261.440235 -260.69497 
L 265.007868 -260.70001 
L 268.5755 -261.73433 
L 272.143132 -261.95945 
L 275.710765 -261.95945 
L 279.278397 -261.95945 
L 282.84603 -261.95945 
L 286.413662 -262.85545 
L 289.981294 -262.85545 
L 293.548927 -262.85545 
L 297.116559 -262.84761 
L 300.684191 -262.94505 
L 304.251824 -262.94505 
L 307.819456 -262.94505 
L 311.387089 -262.93721 
L 314.954721 -266.79785 
L 318.522353 -272.35305 
L 322.089986 -273.67465 
L 325.657618 -273.87625 
L 329.22525 -273.96585 
L 332.792883 -273.95969 
L 336.360515 -273.96585 
L 339.928147 -273.96585 
L 343.49578 -280.50665 
L 347.063412 -280.50665 
L 350.631045 -280.50665 
L 354.198677 -281.98505 
L 357.766309 -280.50665 
L 361.333942 -280.50665 
L 364.901574 -282.16425 
L 368.469206 -282.12281 
L 372.036839 -282.16425 
L 375.604471 -282.18665 
L 379.172104 -282.16425 
L 382.739736 -280.50665 
L 386.307368 -282.16425 
L 389.875001 -282.16425 
L 393.442633 -282.16425 
L 397.010265 -282.18665 
L 400.577898 -282.16425 
L 400.577898 -291.14721 
L 400.577898 -291.14721 
L 397.010265 -291.16905 
L 393.442633 -290.81065 
L 389.875001 -290.96745 
L 386.307368 -290.90025 
L 382.739736 -290.92265 
L 379.172104 -290.90025 
L 375.604471 -290.90025 
L 372.036839 -290.90025 
L 368.469206 -290.90025 
L 364.901574 -290.81065 
L 361.333942 -290.92265 
L 357.766309 -290.81065 
L 354.198677 -290.72105 
L 350.631045 -290.72105 
L 347.063412 -290.54185 
L 343.49578 -290.51945 
L 339.928147 -290.51945 
L 336.360515 -290.49705 
L 332.792883 -290.18345 
L 329.22525 -290.16105 
L 325.657618 -290.40745 
L 322.089986 -289.86985 
L 318.522353 -289.86985 
L 314.954721 -288.70505 
L 311.387089 -287.31625 
L 307.819456 -287.24905 
L 304.251824 -287.24905 
L 300.684191 -287.22665 
L 297.116559 -287.06985 
L 293.548927 -287.07377 
L 289.981294 -287.07377 
L 286.413662 -287.04745 
L 282.84603 -286.82345 
L 279.278397 -286.75625 
L 275.710765 -286.82345 
L 272.143132 -286.77865 
L 268.5755 -286.77865 
L 265.007868 -285.70345 
L 261.440235 -286.08425 
L 257.872603 -285.65865 
L 254.304971 -284.51625 
L 250.737338 -284.49385 
L 247.169706 -284.40425 
L 243.602074 -286.50985 
L 240.034441 -285.38985 
L 236.466809 -283.84425 
L 232.899176 -283.50825 
L 229.331544 -283.37385 
L 225.763912 -283.41865 
L 222.196279 -283.41865 
L 218.628647 -282.56745 
L 215.061015 -282.47785 
L 211.493382 -282.47785 
L 207.92575 -270.82985 
L 204.358118 -271.00905 
L 200.790485 -270.31465 
L 197.222853 -261.78025 
L 193.65522 -260.74985 
L 190.087588 -261.13065 
L 186.519956 -260.54825 
L 182.952323 -260.14505 
L 179.384691 -259.76425 
L 175.817059 -259.98825 
L 172.249426 -259.36105 
L 168.681794 -259.18185 
L 165.114161 -258.89065 
L 161.546529 -258.57705 
L 157.978897 -258.57705 
L 154.411264 -258.42025 
L 150.843632 -258.37545 
L 147.276 -258.24105 
L 143.708367 -257.59145 
L 140.140735 -256.82985 
L 136.573103 -255.03785 
L 133.00547 -253.17865 
L 129.437838 -253.35785 
L 125.870205 -253.35785 
L 122.302573 -252.01385 
L 118.734941 -250.91625 
L 115.167308 -250.91625 
L 111.599676 -240.14185 
L 108.032044 -239.44745 
L 104.464411 -239.50569 
L 100.896779 -239.15625 
L 97.329146 -238.44337 
L 93.761514 -228.76265 
L 90.193882 -226.94825 
L 86.626249 -226.52265 
L 83.058617 -223.81225 
L 79.490985 -214.18025 
L 75.923352 -200.26761 
z
" id="m981308a227" style="stroke:#1f77b4;stroke-opacity:0.2;"/>
    </defs>
    <g clip-path="url(#pf6219498c9)">
     <use style="fill:#1f77b4;fill-opacity:0.2;stroke:#1f77b4;stroke-opacity:0.2;" x="0" xlink:href="#m981308a227" y="325.986375"/>
    </g>
   </g>
   <g id="PolyCollection_2">
    <defs>
     <path d="M 75.923352 -211.80585 
L 75.923352 -169.82825 
L 79.490985 -189.02505 
L 83.058617 -195.45385 
L 86.626249 -209.63305 
L 90.193882 -210.64105 
L 93.761514 -211.08905 
L 97.329146 -211.08905 
L 100.896779 -211.98393 
L 104.464411 -224.45401 
L 108.032044 -225.60425 
L 111.599676 -225.89545 
L 115.167308 -226.07465 
L 118.734941 -226.63465 
L 122.302573 -226.63465 
L 125.870205 -226.63465 
L 129.437838 -226.94825 
L 133.00547 -228.71785 
L 136.573103 -228.89705 
L 140.140735 -229.14345 
L 143.708367 -230.59945 
L 147.276 -230.68905 
L 150.843632 -230.68905 
L 154.411264 -230.80105 
L 157.978897 -233.15305 
L 161.546529 -233.15305 
L 165.114161 -233.84633 
L 168.681794 -233.86985 
L 172.249426 -233.98185 
L 175.817059 -234.00425 
L 179.384691 -234.00425 
L 182.952323 -234.09385 
L 186.519956 -234.11625 
L 190.087588 -246.01065 
L 193.65522 -246.01065 
L 197.222853 -246.50345 
L 200.790485 -246.52585 
L 204.358118 -243.72585 
L 207.92575 -247.22025 
L 211.493382 -252.21545 
L 215.061015 -252.86505 
L 218.628647 -254.72425 
L 222.196279 -257.61385 
L 225.763912 -257.68105 
L 229.331544 -257.78969 
L 232.899176 -257.81545 
L 236.466809 -258.58713 
L 240.034441 -259.62985 
L 243.602074 -259.49545 
L 247.169706 -259.49545 
L 250.737338 -262.42985 
L 254.304971 -260.07785 
L 257.872603 -262.87785 
L 261.440235 -262.87785 
L 265.007868 -262.87785 
L 268.5755 -263.21385 
L 272.143132 -263.21385 
L 275.710765 -263.21385 
L 279.278397 -265.07305 
L 282.84603 -263.21385 
L 286.413662 -262.72105 
L 289.981294 -263.21385 
L 293.548927 -263.21385 
L 297.116559 -263.21385 
L 300.684191 -263.37065 
L 304.251824 -260.92905 
L 307.819456 -263.37065 
L 311.387089 -263.37065 
L 314.954721 -263.37065 
L 318.522353 -263.43785 
L 322.089986 -263.43785 
L 325.657618 -263.43785 
L 329.22525 -264.22185 
L 332.792883 -264.22185 
L 336.360515 -264.28905 
L 339.928147 -266.23785 
L 343.49578 -266.32745 
L 347.063412 -266.52905 
L 350.631045 -269.37385 
L 354.198677 -269.59785 
L 357.766309 -270.26985 
L 361.333942 -271.79305 
L 364.901574 -271.79305 
L 368.469206 -271.79305 
L 372.036839 -271.79305 
L 375.604471 -271.86025 
L 379.172104 -272.17385 
L 382.739736 -279.49361 
L 386.307368 -282.02985 
L 389.875001 -282.02985 
L 393.442633 -282.02985 
L 397.010265 -282.07465 
L 400.577898 -282.09705 
L 400.577898 -291.57225 
L 400.577898 -291.57225 
L 397.010265 -291.57225 
L 393.442633 -291.48265 
L 389.875001 -291.48265 
L 386.307368 -291.48265 
L 382.739736 -291.52745 
L 379.172104 -291.39305 
L 375.604471 -291.39305 
L 372.036839 -291.39305 
L 368.469206 -291.07945 
L 364.901574 -290.76585 
L 361.333942 -290.90025 
L 357.766309 -290.76585 
L 354.198677 -290.76585 
L 350.631045 -290.67625 
L 347.063412 -290.76585 
L 343.49578 -290.76585 
L 339.928147 -290.67625 
L 336.360515 -290.76585 
L 332.792883 -290.76585 
L 329.22525 -290.76585 
L 325.657618 -290.76585 
L 322.089986 -290.76585 
L 318.522353 -289.89225 
L 314.954721 -289.89841 
L 311.387089 -289.89225 
L 307.819456 -289.86985 
L 304.251824 -289.86985 
L 300.684191 -289.60105 
L 297.116559 -289.86985 
L 293.548927 -289.86985 
L 289.981294 -289.57865 
L 286.413662 -289.55625 
L 282.84603 -289.95945 
L 279.278397 -288.74985 
L 275.710765 -288.12265 
L 272.143132 -288.05545 
L 268.5755 -288.05545 
L 265.007868 -287.87625 
L 261.440235 -287.04745 
L 257.872603 -287.62985 
L 254.304971 -287.56265 
L 250.737338 -286.33065 
L 247.169706 -286.33065 
L 243.602074 -286.33065 
L 240.034441 -286.20129 
L 236.466809 -283.64825 
L 232.899176 -282.97065 
L 229.331544 -282.97065 
L 225.763912 -282.88105 
L 222.196279 -282.45545 
L 218.628647 -282.45545 
L 215.061015 -282.38825 
L 211.493382 -276.49705 
L 207.92575 -276.25065 
L 204.358118 -276.18345 
L 200.790485 -273.69705 
L 197.222853 -273.54025 
L 193.65522 -273.42825 
L 190.087588 -273.11465 
L 186.519956 -273.83145 
L 182.952323 -266.84993 
L 179.384691 -267.33545 
L 175.817059 -267.02185 
L 172.249426 -267.02185 
L 168.681794 -266.93225 
L 165.114161 -266.68585 
L 161.546529 -256.69545 
L 157.978897 -256.69545 
L 154.411264 -256.80745 
L 150.843632 -256.06825 
L 147.276 -256.62825 
L 143.708367 -256.06825 
L 140.140735 -254.99025 
L 136.573103 -256.62825 
L 133.00547 -254.32105 
L 129.437838 -254.32105 
L 125.870205 -253.76105 
L 122.302573 -253.71625 
L 118.734941 -253.71625 
L 115.167308 -253.75153 
L 111.599676 -250.62505 
L 108.032044 -252.21545 
L 104.464411 -247.28745 
L 100.896779 -246.74985 
L 97.329146 -246.74985 
L 93.761514 -246.63785 
L 90.193882 -253.13385 
L 86.626249 -245.92105 
L 83.058617 -237.29705 
L 79.490985 -234.25065 
L 75.923352 -211.80585 
z
" id="m6a0547ba0e" style="stroke:#98df8a;stroke-opacity:0.2;"/>
    </defs>
    <g clip-path="url(#pf6219498c9)">
     <use style="fill:#98df8a;fill-opacity:0.2;stroke:#98df8a;stroke-opacity:0.2;" x="0" xlink:href="#m6a0547ba0e" y="325.986375"/>
    </g>
   </g>
   <g id="PolyCollection_3">
    <defs>
     <path d="M 75.923352 -51.22025 
L 75.923352 -49.65225 
L 79.490985 -50.16745 
L 83.058617 -50.21113 
L 86.626249 -50.45865 
L 90.193882 -50.36905 
L 93.761514 -50.54825 
L 97.329146 -50.59305 
L 100.896779 -50.59305 
L 104.464411 -50.59305 
L 108.032044 -50.59305 
L 111.599676 -50.86185 
L 115.167308 -50.86185 
L 118.734941 -50.81705 
L 122.302573 -50.81705 
L 125.870205 -50.88425 
L 129.437838 -50.88369 
L 133.00547 -50.88425 
L 136.573103 -50.88425 
L 140.140735 -50.88425 
L 143.708367 -50.88425 
L 147.276 -51.13065 
L 150.843632 -51.13065 
L 154.411264 -51.13065 
L 157.978897 -51.13065 
L 161.546529 -51.24265 
L 165.114161 -51.48905 
L 168.681794 -51.48905 
L 172.249426 -51.64305 
L 175.817059 -51.57865 
L 179.384691 -51.71305 
L 182.952323 -51.80265 
L 186.519956 -51.80265 
L 190.087588 -51.89225 
L 193.65522 -51.84745 
L 197.222853 -51.84745 
L 200.790485 -51.91297 
L 204.358118 -51.91465 
L 207.92575 -51.91297 
L 211.493382 -52.09385 
L 215.061015 -51.98185 
L 218.628647 -52.09385 
L 222.196279 -52.09385 
L 225.763912 -51.98185 
L 229.331544 -52.18345 
L 232.899176 -52.18345 
L 236.466809 -52.18345 
L 240.034441 -52.18345 
L 243.602074 -52.16105 
L 247.169706 -52.18345 
L 250.737338 -52.20529 
L 254.304971 -52.18345 
L 257.872603 -52.18345 
L 261.440235 -52.16105 
L 265.007868 -52.16105 
L 268.5755 -52.18345 
L 272.143132 -52.18345 
L 275.710765 -52.18345 
L 279.278397 -52.18345 
L 282.84603 -52.18345 
L 286.413662 -52.20529 
L 289.981294 -52.18345 
L 293.548927 -52.16105 
L 297.116559 -52.18345 
L 300.684191 -52.31785 
L 304.251824 -52.36097 
L 307.819456 -52.36265 
L 311.387089 -52.36265 
L 314.954721 -52.36265 
L 318.522353 -52.29545 
L 322.089986 -52.40633 
L 325.657618 -52.29545 
L 329.22525 -52.29545 
L 332.792883 -52.42817 
L 336.360515 -52.36265 
L 339.928147 -52.29545 
L 343.49578 -52.36265 
L 347.063412 -52.36265 
L 350.631045 -52.36265 
L 354.198677 -52.36265 
L 357.766309 -52.36265 
L 361.333942 -52.36265 
L 364.901574 -52.42985 
L 368.469206 -52.36265 
L 372.036839 -52.29545 
L 375.604471 -52.36265 
L 379.172104 -52.36265 
L 382.739736 -52.36265 
L 386.307368 -52.36265 
L 389.875001 -52.36265 
L 393.442633 -52.36265 
L 397.010265 -52.36265 
L 400.577898 -52.38505 
L 400.577898 -60.18025 
L 400.577898 -60.18025 
L 397.010265 -60.18025 
L 393.442633 -60.19201 
L 389.875001 -59.53065 
L 386.307368 -59.53065 
L 382.739736 -59.53065 
L 379.172104 -59.53065 
L 375.604471 -59.53065 
L 372.036839 -58.89729 
L 368.469206 -59.53065 
L 364.901574 -59.53065 
L 361.333942 -59.53065 
L 357.766309 -60.18025 
L 354.198677 -59.53065 
L 350.631045 -59.35145 
L 347.063412 -59.35145 
L 343.49578 -60.18025 
L 339.928147 -59.37217 
L 336.360515 -59.35145 
L 332.792883 -59.35145 
L 329.22525 -60.18025 
L 325.657618 -59.37217 
L 322.089986 -59.35145 
L 318.522353 -59.35145 
L 314.954721 -59.35145 
L 311.387089 -59.35145 
L 307.819456 -59.35145 
L 304.251824 -59.35145 
L 300.684191 -59.35145 
L 297.116559 -59.35145 
L 293.548927 -60.18025 
L 289.981294 -60.18025 
L 286.413662 -59.35145 
L 282.84603 -60.18025 
L 279.278397 -59.35145 
L 275.710765 -59.01545 
L 272.143132 -59.01545 
L 268.5755 -59.01545 
L 265.007868 -59.01545 
L 261.440235 -59.01545 
L 257.872603 -59.02777 
L 254.304971 -59.50825 
L 250.737338 -59.01545 
L 247.169706 -59.01545 
L 243.602074 -59.01545 
L 240.034441 -59.50825 
L 236.466809 -59.50825 
L 232.899176 -60.10465 
L 229.331544 -59.01545 
L 225.763912 -59.01545 
L 222.196279 -59.01545 
L 218.628647 -58.92585 
L 215.061015 -58.92585 
L 211.493382 -58.92585 
L 207.92575 -58.92585 
L 204.358118 -58.92585 
L 200.790485 -57.60425 
L 197.222853 -57.60425 
L 193.65522 -58.18665 
L 190.087588 -57.60425 
L 186.519956 -57.60425 
L 182.952323 -57.60425 
L 179.384691 -57.60425 
L 175.817059 -57.60425 
L 172.249426 -57.60425 
L 168.681794 -57.94025 
L 165.114161 -57.60425 
L 161.546529 -57.85065 
L 157.978897 -57.60425 
L 154.411264 -57.60425 
L 150.843632 -57.60425 
L 147.276 -57.51465 
L 143.708367 -57.51465 
L 140.140735 -57.51465 
L 136.573103 -56.84265 
L 133.00547 -56.86505 
L 129.437838 -56.84265 
L 125.870205 -56.84265 
L 122.302573 -56.84265 
L 118.734941 -56.84265 
L 115.167308 -56.84265 
L 111.599676 -56.86505 
L 108.032044 -56.75305 
L 104.464411 -56.64105 
L 100.896779 -56.82025 
L 97.329146 -56.64105 
L 93.761514 -54.66985 
L 90.193882 -54.66985 
L 86.626249 -54.84905 
L 83.058617 -52.81065 
L 79.490985 -52.81233 
L 75.923352 -51.22025 
z
" id="m72fd889c23" style="stroke:#d62728;stroke-opacity:0.2;"/>
    </defs>
    <g clip-path="url(#pf6219498c9)">
     <use style="fill:#d62728;fill-opacity:0.2;stroke:#d62728;stroke-opacity:0.2;" x="0" xlink:href="#m72fd889c23" y="325.986375"/>
    </g>
   </g>
   <g id="matplotlib.axis_1">
    <g id="xtick_1">
     <g id="line2d_1">
      <defs>
       <path d="M 0 0 
L 0 3.5 
" id="m2023fb7e34" style="stroke:#000000;stroke-width:0.8;"/>
      </defs>
      <g>
       <use style="stroke:#000000;stroke-width:0.8;" x="75.923352" xlink:href="#m2023fb7e34" y="288.430125"/>
      </g>
     </g>
     <g id="text_1">
      <!-- 15m -->
      <g transform="translate(64.69054 303.028562)scale(0.1 -0.1)">
       <defs>
        <path d="M 794 531 
L 1825 531 
L 1825 4091 
L 703 3866 
L 703 4441 
L 1819 4666 
L 2450 4666 
L 2450 531 
L 3481 531 
L 3481 0 
L 794 0 
L 794 531 
z
" id="DejaVuSans-31" transform="scale(0.015625)"/>
        <path d="M 691 4666 
L 3169 4666 
L 3169 4134 
L 1269 4134 
L 1269 2991 
Q 1406 3038 1543 3061 
Q 1681 3084 1819 3084 
Q 2600 3084 3056 2656 
Q 3513 2228 3513 1497 
Q 3513 744 3044 326 
Q 2575 -91 1722 -91 
Q 1428 -91 1123 -41 
Q 819 9 494 109 
L 494 744 
Q 775 591 1075 516 
Q 1375 441 1709 441 
Q 2250 441 2565 725 
Q 2881 1009 2881 1497 
Q 2881 1984 2565 2268 
Q 2250 2553 1709 2553 
Q 1456 2553 1204 2497 
Q 953 2441 691 2322 
L 691 4666 
z
" id="DejaVuSans-35" transform="scale(0.015625)"/>
        <path d="M 3328 2828 
Q 3544 3216 3844 3400 
Q 4144 3584 4550 3584 
Q 5097 3584 5394 3201 
Q 5691 2819 5691 2113 
L 5691 0 
L 5113 0 
L 5113 2094 
Q 5113 2597 4934 2840 
Q 4756 3084 4391 3084 
Q 3944 3084 3684 2787 
Q 3425 2491 3425 1978 
L 3425 0 
L 2847 0 
L 2847 2094 
Q 2847 2600 2669 2842 
Q 2491 3084 2119 3084 
Q 1678 3084 1418 2786 
Q 1159 2488 1159 1978 
L 1159 0 
L 581 0 
L 581 3500 
L 1159 3500 
L 1159 2956 
Q 1356 3278 1631 3431 
Q 1906 3584 2284 3584 
Q 2666 3584 2933 3390 
Q 3200 3197 3328 2828 
z
" id="DejaVuSans-6d" transform="scale(0.015625)"/>
       </defs>
       <use xlink:href="#DejaVuSans-31"/>
       <use x="63.623047" xlink:href="#DejaVuSans-35"/>
       <use x="127.246094" xlink:href="#DejaVuSans-6d"/>
      </g>
     </g>
    </g>
    <g id="xtick_2">
     <g id="line2d_2">
      <g>
       <use style="stroke:#000000;stroke-width:0.8;" x="130.627049" xlink:href="#m2023fb7e34" y="288.430125"/>
      </g>
     </g>
     <g id="text_2">
      <!-- 4h:5m -->
      <g transform="translate(114.541111 303.028562)scale(0.1 -0.1)">
       <defs>
        <path d="M 2419 4116 
L 825 1625 
L 2419 1625 
L 2419 4116 
z
M 2253 4666 
L 3047 4666 
L 3047 1625 
L 3713 1625 
L 3713 1100 
L 3047 1100 
L 3047 0 
L 2419 0 
L 2419 1100 
L 313 1100 
L 313 1709 
L 2253 4666 
z
" id="DejaVuSans-34" transform="scale(0.015625)"/>
        <path d="M 3513 2113 
L 3513 0 
L 2938 0 
L 2938 2094 
Q 2938 2591 2744 2837 
Q 2550 3084 2163 3084 
Q 1697 3084 1428 2787 
Q 1159 2491 1159 1978 
L 1159 0 
L 581 0 
L 581 4863 
L 1159 4863 
L 1159 2956 
Q 1366 3272 1645 3428 
Q 1925 3584 2291 3584 
Q 2894 3584 3203 3211 
Q 3513 2838 3513 2113 
z
" id="DejaVuSans-68" transform="scale(0.015625)"/>
        <path d="M 750 794 
L 1409 794 
L 1409 0 
L 750 0 
L 750 794 
z
M 750 3309 
L 1409 3309 
L 1409 2516 
L 750 2516 
L 750 3309 
z
" id="DejaVuSans-3a" transform="scale(0.015625)"/>
       </defs>
       <use xlink:href="#DejaVuSans-34"/>
       <use x="63.623047" xlink:href="#DejaVuSans-68"/>
       <use x="127.001953" xlink:href="#DejaVuSans-3a"/>
       <use x="160.693359" xlink:href="#DejaVuSans-35"/>
       <use x="224.316406" xlink:href="#DejaVuSans-6d"/>
      </g>
     </g>
    </g>
    <g id="xtick_3">
     <g id="line2d_3">
      <g>
       <use style="stroke:#000000;stroke-width:0.8;" x="185.330745" xlink:href="#m2023fb7e34" y="288.430125"/>
      </g>
     </g>
     <g id="text_3">
      <!-- 7h:55m -->
      <g transform="translate(166.063557 303.028562)scale(0.1 -0.1)">
       <defs>
        <path d="M 525 4666 
L 3525 4666 
L 3525 4397 
L 1831 0 
L 1172 0 
L 2766 4134 
L 525 4134 
L 525 4666 
z
" id="DejaVuSans-37" transform="scale(0.015625)"/>
       </defs>
       <use xlink:href="#DejaVuSans-37"/>
       <use x="63.623047" xlink:href="#DejaVuSans-68"/>
       <use x="127.001953" xlink:href="#DejaVuSans-3a"/>
       <use x="160.693359" xlink:href="#DejaVuSans-35"/>
       <use x="224.316406" xlink:href="#DejaVuSans-35"/>
       <use x="287.939453" xlink:href="#DejaVuSans-6d"/>
      </g>
     </g>
    </g>
    <g id="xtick_4">
     <g id="line2d_4">
      <g>
       <use style="stroke:#000000;stroke-width:0.8;" x="240.034441" xlink:href="#m2023fb7e34" y="288.430125"/>
      </g>
     </g>
     <g id="text_4">
      <!-- 11h:45m -->
      <g transform="translate(217.586004 303.028562)scale(0.1 -0.1)">
       <use xlink:href="#DejaVuSans-31"/>
       <use x="63.623047" xlink:href="#DejaVuSans-31"/>
       <use x="127.246094" xlink:href="#DejaVuSans-68"/>
       <use x="190.625" xlink:href="#DejaVuSans-3a"/>
       <use x="224.316406" xlink:href="#DejaVuSans-34"/>
       <use x="287.939453" xlink:href="#DejaVuSans-35"/>
       <use x="351.5625" xlink:href="#DejaVuSans-6d"/>
      </g>
     </g>
    </g>
    <g id="xtick_5">
     <g id="line2d_5">
      <g>
       <use style="stroke:#000000;stroke-width:0.8;" x="294.738137" xlink:href="#m2023fb7e34" y="288.430125"/>
      </g>
     </g>
     <g id="text_5">
      <!-- 15h:35m -->
      <g transform="translate(272.2897 303.028562)scale(0.1 -0.1)">
       <defs>
        <path d="M 2597 2516 
Q 3050 2419 3304 2112 
Q 3559 1806 3559 1356 
Q 3559 666 3084 287 
Q 2609 -91 1734 -91 
Q 1441 -91 1130 -33 
Q 819 25 488 141 
L 488 750 
Q 750 597 1062 519 
Q 1375 441 1716 441 
Q 2309 441 2620 675 
Q 2931 909 2931 1356 
Q 2931 1769 2642 2001 
Q 2353 2234 1838 2234 
L 1294 2234 
L 1294 2753 
L 1863 2753 
Q 2328 2753 2575 2939 
Q 2822 3125 2822 3475 
Q 2822 3834 2567 4026 
Q 2313 4219 1838 4219 
Q 1578 4219 1281 4162 
Q 984 4106 628 3988 
L 628 4550 
Q 988 4650 1302 4700 
Q 1616 4750 1894 4750 
Q 2613 4750 3031 4423 
Q 3450 4097 3450 3541 
Q 3450 3153 3228 2886 
Q 3006 2619 2597 2516 
z
" id="DejaVuSans-33" transform="scale(0.015625)"/>
       </defs>
       <use xlink:href="#DejaVuSans-31"/>
       <use x="63.623047" xlink:href="#DejaVuSans-35"/>
       <use x="127.246094" xlink:href="#DejaVuSans-68"/>
       <use x="190.625" xlink:href="#DejaVuSans-3a"/>
       <use x="224.316406" xlink:href="#DejaVuSans-33"/>
       <use x="287.939453" xlink:href="#DejaVuSans-35"/>
       <use x="351.5625" xlink:href="#DejaVuSans-6d"/>
      </g>
     </g>
    </g>
    <g id="xtick_6">
     <g id="line2d_6">
      <g>
       <use style="stroke:#000000;stroke-width:0.8;" x="349.441834" xlink:href="#m2023fb7e34" y="288.430125"/>
      </g>
     </g>
     <g id="text_6">
      <!-- 19h:25m -->
      <g transform="translate(326.993396 303.028562)scale(0.1 -0.1)">
       <defs>
        <path d="M 703 97 
L 703 672 
Q 941 559 1184 500 
Q 1428 441 1663 441 
Q 2288 441 2617 861 
Q 2947 1281 2994 2138 
Q 2813 1869 2534 1725 
Q 2256 1581 1919 1581 
Q 1219 1581 811 2004 
Q 403 2428 403 3163 
Q 403 3881 828 4315 
Q 1253 4750 1959 4750 
Q 2769 4750 3195 4129 
Q 3622 3509 3622 2328 
Q 3622 1225 3098 567 
Q 2575 -91 1691 -91 
Q 1453 -91 1209 -44 
Q 966 3 703 97 
z
M 1959 2075 
Q 2384 2075 2632 2365 
Q 2881 2656 2881 3163 
Q 2881 3666 2632 3958 
Q 2384 4250 1959 4250 
Q 1534 4250 1286 3958 
Q 1038 3666 1038 3163 
Q 1038 2656 1286 2365 
Q 1534 2075 1959 2075 
z
" id="DejaVuSans-39" transform="scale(0.015625)"/>
        <path d="M 1228 531 
L 3431 531 
L 3431 0 
L 469 0 
L 469 531 
Q 828 903 1448 1529 
Q 2069 2156 2228 2338 
Q 2531 2678 2651 2914 
Q 2772 3150 2772 3378 
Q 2772 3750 2511 3984 
Q 2250 4219 1831 4219 
Q 1534 4219 1204 4116 
Q 875 4013 500 3803 
L 500 4441 
Q 881 4594 1212 4672 
Q 1544 4750 1819 4750 
Q 2544 4750 2975 4387 
Q 3406 4025 3406 3419 
Q 3406 3131 3298 2873 
Q 3191 2616 2906 2266 
Q 2828 2175 2409 1742 
Q 1991 1309 1228 531 
z
" id="DejaVuSans-32" transform="scale(0.015625)"/>
       </defs>
       <use xlink:href="#DejaVuSans-31"/>
       <use x="63.623047" xlink:href="#DejaVuSans-39"/>
       <use x="127.246094" xlink:href="#DejaVuSans-68"/>
       <use x="190.625" xlink:href="#DejaVuSans-3a"/>
       <use x="224.316406" xlink:href="#DejaVuSans-32"/>
       <use x="287.939453" xlink:href="#DejaVuSans-35"/>
       <use x="351.5625" xlink:href="#DejaVuSans-6d"/>
      </g>
     </g>
    </g>
    <g id="text_7">
     <!-- Time (hour:minute) -->
     <g transform="translate(189.843594 316.706687)scale(0.1 -0.1)">
      <defs>
       <path d="M -19 4666 
L 3928 4666 
L 3928 4134 
L 2272 4134 
L 2272 0 
L 1638 0 
L 1638 4134 
L -19 4134 
L -19 4666 
z
" id="DejaVuSans-54" transform="scale(0.015625)"/>
       <path d="M 603 3500 
L 1178 3500 
L 1178 0 
L 603 0 
L 603 3500 
z
M 603 4863 
L 1178 4863 
L 1178 4134 
L 603 4134 
L 603 4863 
z
" id="DejaVuSans-69" transform="scale(0.015625)"/>
       <path d="M 3597 1894 
L 3597 1613 
L 953 1613 
Q 991 1019 1311 708 
Q 1631 397 2203 397 
Q 2534 397 2845 478 
Q 3156 559 3463 722 
L 3463 178 
Q 3153 47 2828 -22 
Q 2503 -91 2169 -91 
Q 1331 -91 842 396 
Q 353 884 353 1716 
Q 353 2575 817 3079 
Q 1281 3584 2069 3584 
Q 2775 3584 3186 3129 
Q 3597 2675 3597 1894 
z
M 3022 2063 
Q 3016 2534 2758 2815 
Q 2500 3097 2075 3097 
Q 1594 3097 1305 2825 
Q 1016 2553 972 2059 
L 3022 2063 
z
" id="DejaVuSans-65" transform="scale(0.015625)"/>
       <path id="DejaVuSans-20" transform="scale(0.015625)"/>
       <path d="M 1984 4856 
Q 1566 4138 1362 3434 
Q 1159 2731 1159 2009 
Q 1159 1288 1364 580 
Q 1569 -128 1984 -844 
L 1484 -844 
Q 1016 -109 783 600 
Q 550 1309 550 2009 
Q 550 2706 781 3412 
Q 1013 4119 1484 4856 
L 1984 4856 
z
" id="DejaVuSans-28" transform="scale(0.015625)"/>
       <path d="M 1959 3097 
Q 1497 3097 1228 2736 
Q 959 2375 959 1747 
Q 959 1119 1226 758 
Q 1494 397 1959 397 
Q 2419 397 2687 759 
Q 2956 1122 2956 1747 
Q 2956 2369 2687 2733 
Q 2419 3097 1959 3097 
z
M 1959 3584 
Q 2709 3584 3137 3096 
Q 3566 2609 3566 1747 
Q 3566 888 3137 398 
Q 2709 -91 1959 -91 
Q 1206 -91 779 398 
Q 353 888 353 1747 
Q 353 2609 779 3096 
Q 1206 3584 1959 3584 
z
" id="DejaVuSans-6f" transform="scale(0.015625)"/>
       <path d="M 544 1381 
L 544 3500 
L 1119 3500 
L 1119 1403 
Q 1119 906 1312 657 
Q 1506 409 1894 409 
Q 2359 409 2629 706 
Q 2900 1003 2900 1516 
L 2900 3500 
L 3475 3500 
L 3475 0 
L 2900 0 
L 2900 538 
Q 2691 219 2414 64 
Q 2138 -91 1772 -91 
Q 1169 -91 856 284 
Q 544 659 544 1381 
z
M 1991 3584 
L 1991 3584 
z
" id="DejaVuSans-75" transform="scale(0.015625)"/>
       <path d="M 2631 2963 
Q 2534 3019 2420 3045 
Q 2306 3072 2169 3072 
Q 1681 3072 1420 2755 
Q 1159 2438 1159 1844 
L 1159 0 
L 581 0 
L 581 3500 
L 1159 3500 
L 1159 2956 
Q 1341 3275 1631 3429 
Q 1922 3584 2338 3584 
Q 2397 3584 2469 3576 
Q 2541 3569 2628 3553 
L 2631 2963 
z
" id="DejaVuSans-72" transform="scale(0.015625)"/>
       <path d="M 3513 2113 
L 3513 0 
L 2938 0 
L 2938 2094 
Q 2938 2591 2744 2837 
Q 2550 3084 2163 3084 
Q 1697 3084 1428 2787 
Q 1159 2491 1159 1978 
L 1159 0 
L 581 0 
L 581 3500 
L 1159 3500 
L 1159 2956 
Q 1366 3272 1645 3428 
Q 1925 3584 2291 3584 
Q 2894 3584 3203 3211 
Q 3513 2838 3513 2113 
z
" id="DejaVuSans-6e" transform="scale(0.015625)"/>
       <path d="M 1172 4494 
L 1172 3500 
L 2356 3500 
L 2356 3053 
L 1172 3053 
L 1172 1153 
Q 1172 725 1289 603 
Q 1406 481 1766 481 
L 2356 481 
L 2356 0 
L 1766 0 
Q 1100 0 847 248 
Q 594 497 594 1153 
L 594 3053 
L 172 3053 
L 172 3500 
L 594 3500 
L 594 4494 
L 1172 4494 
z
" id="DejaVuSans-74" transform="scale(0.015625)"/>
       <path d="M 513 4856 
L 1013 4856 
Q 1481 4119 1714 3412 
Q 1947 2706 1947 2009 
Q 1947 1309 1714 600 
Q 1481 -109 1013 -844 
L 513 -844 
Q 928 -128 1133 580 
Q 1338 1288 1338 2009 
Q 1338 2731 1133 3434 
Q 928 4138 513 4856 
z
" id="DejaVuSans-29" transform="scale(0.015625)"/>
      </defs>
      <use xlink:href="#DejaVuSans-54"/>
      <use x="57.958984" xlink:href="#DejaVuSans-69"/>
      <use x="85.742188" xlink:href="#DejaVuSans-6d"/>
      <use x="183.154297" xlink:href="#DejaVuSans-65"/>
      <use x="244.677734" xlink:href="#DejaVuSans-20"/>
      <use x="276.464844" xlink:href="#DejaVuSans-28"/>
      <use x="315.478516" xlink:href="#DejaVuSans-68"/>
      <use x="378.857422" xlink:href="#DejaVuSans-6f"/>
      <use x="440.039062" xlink:href="#DejaVuSans-75"/>
      <use x="503.417969" xlink:href="#DejaVuSans-72"/>
      <use x="542.78125" xlink:href="#DejaVuSans-3a"/>
      <use x="576.472656" xlink:href="#DejaVuSans-6d"/>
      <use x="673.884766" xlink:href="#DejaVuSans-69"/>
      <use x="701.667969" xlink:href="#DejaVuSans-6e"/>
      <use x="765.046875" xlink:href="#DejaVuSans-75"/>
      <use x="828.425781" xlink:href="#DejaVuSans-74"/>
      <use x="867.634766" xlink:href="#DejaVuSans-65"/>
      <use x="929.158203" xlink:href="#DejaVuSans-29"/>
     </g>
    </g>
   </g>
   <g id="matplotlib.axis_2">
    <g id="ytick_1">
     <g id="line2d_7">
      <defs>
       <path d="M 0 0 
L -3.5 0 
" id="m151c79c59d" style="stroke:#000000;stroke-width:0.8;"/>
      </defs>
      <g>
       <use style="stroke:#000000;stroke-width:0.8;" x="59.690625" xlink:href="#m151c79c59d" y="257.921325"/>
      </g>
     </g>
     <g id="text_8">
      <!-- 5000 -->
      <g transform="translate(27.240625 261.720544)scale(0.1 -0.1)">
       <defs>
        <path d="M 2034 4250 
Q 1547 4250 1301 3770 
Q 1056 3291 1056 2328 
Q 1056 1369 1301 889 
Q 1547 409 2034 409 
Q 2525 409 2770 889 
Q 3016 1369 3016 2328 
Q 3016 3291 2770 3770 
Q 2525 4250 2034 4250 
z
M 2034 4750 
Q 2819 4750 3233 4129 
Q 3647 3509 3647 2328 
Q 3647 1150 3233 529 
Q 2819 -91 2034 -91 
Q 1250 -91 836 529 
Q 422 1150 422 2328 
Q 422 3509 836 4129 
Q 1250 4750 2034 4750 
z
" id="DejaVuSans-30" transform="scale(0.015625)"/>
       </defs>
       <use xlink:href="#DejaVuSans-35"/>
       <use x="63.623047" xlink:href="#DejaVuSans-30"/>
       <use x="127.246094" xlink:href="#DejaVuSans-30"/>
       <use x="190.869141" xlink:href="#DejaVuSans-30"/>
      </g>
     </g>
    </g>
    <g id="ytick_2">
     <g id="line2d_8">
      <g>
       <use style="stroke:#000000;stroke-width:0.8;" x="59.690625" xlink:href="#m151c79c59d" y="213.121325"/>
      </g>
     </g>
     <g id="text_9">
      <!-- 6000 -->
      <g transform="translate(27.240625 216.920544)scale(0.1 -0.1)">
       <defs>
        <path d="M 2113 2584 
Q 1688 2584 1439 2293 
Q 1191 2003 1191 1497 
Q 1191 994 1439 701 
Q 1688 409 2113 409 
Q 2538 409 2786 701 
Q 3034 994 3034 1497 
Q 3034 2003 2786 2293 
Q 2538 2584 2113 2584 
z
M 3366 4563 
L 3366 3988 
Q 3128 4100 2886 4159 
Q 2644 4219 2406 4219 
Q 1781 4219 1451 3797 
Q 1122 3375 1075 2522 
Q 1259 2794 1537 2939 
Q 1816 3084 2150 3084 
Q 2853 3084 3261 2657 
Q 3669 2231 3669 1497 
Q 3669 778 3244 343 
Q 2819 -91 2113 -91 
Q 1303 -91 875 529 
Q 447 1150 447 2328 
Q 447 3434 972 4092 
Q 1497 4750 2381 4750 
Q 2619 4750 2861 4703 
Q 3103 4656 3366 4563 
z
" id="DejaVuSans-36" transform="scale(0.015625)"/>
       </defs>
       <use xlink:href="#DejaVuSans-36"/>
       <use x="63.623047" xlink:href="#DejaVuSans-30"/>
       <use x="127.246094" xlink:href="#DejaVuSans-30"/>
       <use x="190.869141" xlink:href="#DejaVuSans-30"/>
      </g>
     </g>
    </g>
    <g id="ytick_3">
     <g id="line2d_9">
      <g>
       <use style="stroke:#000000;stroke-width:0.8;" x="59.690625" xlink:href="#m151c79c59d" y="168.321325"/>
      </g>
     </g>
     <g id="text_10">
      <!-- 7000 -->
      <g transform="translate(27.240625 172.120544)scale(0.1 -0.1)">
       <use xlink:href="#DejaVuSans-37"/>
       <use x="63.623047" xlink:href="#DejaVuSans-30"/>
       <use x="127.246094" xlink:href="#DejaVuSans-30"/>
       <use x="190.869141" xlink:href="#DejaVuSans-30"/>
      </g>
     </g>
    </g>
    <g id="ytick_4">
     <g id="line2d_10">
      <g>
       <use style="stroke:#000000;stroke-width:0.8;" x="59.690625" xlink:href="#m151c79c59d" y="123.521325"/>
      </g>
     </g>
     <g id="text_11">
      <!-- 8000 -->
      <g transform="translate(27.240625 127.320544)scale(0.1 -0.1)">
       <defs>
        <path d="M 2034 2216 
Q 1584 2216 1326 1975 
Q 1069 1734 1069 1313 
Q 1069 891 1326 650 
Q 1584 409 2034 409 
Q 2484 409 2743 651 
Q 3003 894 3003 1313 
Q 3003 1734 2745 1975 
Q 2488 2216 2034 2216 
z
M 1403 2484 
Q 997 2584 770 2862 
Q 544 3141 544 3541 
Q 544 4100 942 4425 
Q 1341 4750 2034 4750 
Q 2731 4750 3128 4425 
Q 3525 4100 3525 3541 
Q 3525 3141 3298 2862 
Q 3072 2584 2669 2484 
Q 3125 2378 3379 2068 
Q 3634 1759 3634 1313 
Q 3634 634 3220 271 
Q 2806 -91 2034 -91 
Q 1263 -91 848 271 
Q 434 634 434 1313 
Q 434 1759 690 2068 
Q 947 2378 1403 2484 
z
M 1172 3481 
Q 1172 3119 1398 2916 
Q 1625 2713 2034 2713 
Q 2441 2713 2670 2916 
Q 2900 3119 2900 3481 
Q 2900 3844 2670 4047 
Q 2441 4250 2034 4250 
Q 1625 4250 1398 4047 
Q 1172 3844 1172 3481 
z
" id="DejaVuSans-38" transform="scale(0.015625)"/>
       </defs>
       <use xlink:href="#DejaVuSans-38"/>
       <use x="63.623047" xlink:href="#DejaVuSans-30"/>
       <use x="127.246094" xlink:href="#DejaVuSans-30"/>
       <use x="190.869141" xlink:href="#DejaVuSans-30"/>
      </g>
     </g>
    </g>
    <g id="ytick_5">
     <g id="line2d_11">
      <g>
       <use style="stroke:#000000;stroke-width:0.8;" x="59.690625" xlink:href="#m151c79c59d" y="78.721325"/>
      </g>
     </g>
     <g id="text_12">
      <!-- 9000 -->
      <g transform="translate(27.240625 82.520544)scale(0.1 -0.1)">
       <use xlink:href="#DejaVuSans-39"/>
       <use x="63.623047" xlink:href="#DejaVuSans-30"/>
       <use x="127.246094" xlink:href="#DejaVuSans-30"/>
       <use x="190.869141" xlink:href="#DejaVuSans-30"/>
      </g>
     </g>
    </g>
    <g id="ytick_6">
     <g id="line2d_12">
      <g>
       <use style="stroke:#000000;stroke-width:0.8;" x="59.690625" xlink:href="#m151c79c59d" y="33.921325"/>
      </g>
     </g>
     <g id="text_13">
      <!-- 10000 -->
      <g transform="translate(20.878125 37.720544)scale(0.1 -0.1)">
       <use xlink:href="#DejaVuSans-31"/>
       <use x="63.623047" xlink:href="#DejaVuSans-30"/>
       <use x="127.246094" xlink:href="#DejaVuSans-30"/>
       <use x="190.869141" xlink:href="#DejaVuSans-30"/>
       <use x="254.492188" xlink:href="#DejaVuSans-30"/>
      </g>
     </g>
    </g>
    <g id="text_14">
     <!-- Code region coverage -->
     <g transform="translate(14.798438 210.379594)rotate(-90)scale(0.1 -0.1)">
      <defs>
       <path d="M 4122 4306 
L 4122 3641 
Q 3803 3938 3442 4084 
Q 3081 4231 2675 4231 
Q 1875 4231 1450 3742 
Q 1025 3253 1025 2328 
Q 1025 1406 1450 917 
Q 1875 428 2675 428 
Q 3081 428 3442 575 
Q 3803 722 4122 1019 
L 4122 359 
Q 3791 134 3420 21 
Q 3050 -91 2638 -91 
Q 1578 -91 968 557 
Q 359 1206 359 2328 
Q 359 3453 968 4101 
Q 1578 4750 2638 4750 
Q 3056 4750 3426 4639 
Q 3797 4528 4122 4306 
z
" id="DejaVuSans-43" transform="scale(0.015625)"/>
       <path d="M 2906 2969 
L 2906 4863 
L 3481 4863 
L 3481 0 
L 2906 0 
L 2906 525 
Q 2725 213 2448 61 
Q 2172 -91 1784 -91 
Q 1150 -91 751 415 
Q 353 922 353 1747 
Q 353 2572 751 3078 
Q 1150 3584 1784 3584 
Q 2172 3584 2448 3432 
Q 2725 3281 2906 2969 
z
M 947 1747 
Q 947 1113 1208 752 
Q 1469 391 1925 391 
Q 2381 391 2643 752 
Q 2906 1113 2906 1747 
Q 2906 2381 2643 2742 
Q 2381 3103 1925 3103 
Q 1469 3103 1208 2742 
Q 947 2381 947 1747 
z
" id="DejaVuSans-64" transform="scale(0.015625)"/>
       <path d="M 2906 1791 
Q 2906 2416 2648 2759 
Q 2391 3103 1925 3103 
Q 1463 3103 1205 2759 
Q 947 2416 947 1791 
Q 947 1169 1205 825 
Q 1463 481 1925 481 
Q 2391 481 2648 825 
Q 2906 1169 2906 1791 
z
M 3481 434 
Q 3481 -459 3084 -895 
Q 2688 -1331 1869 -1331 
Q 1566 -1331 1297 -1286 
Q 1028 -1241 775 -1147 
L 775 -588 
Q 1028 -725 1275 -790 
Q 1522 -856 1778 -856 
Q 2344 -856 2625 -561 
Q 2906 -266 2906 331 
L 2906 616 
Q 2728 306 2450 153 
Q 2172 0 1784 0 
Q 1141 0 747 490 
Q 353 981 353 1791 
Q 353 2603 747 3093 
Q 1141 3584 1784 3584 
Q 2172 3584 2450 3431 
Q 2728 3278 2906 2969 
L 2906 3500 
L 3481 3500 
L 3481 434 
z
" id="DejaVuSans-67" transform="scale(0.015625)"/>
       <path d="M 3122 3366 
L 3122 2828 
Q 2878 2963 2633 3030 
Q 2388 3097 2138 3097 
Q 1578 3097 1268 2742 
Q 959 2388 959 1747 
Q 959 1106 1268 751 
Q 1578 397 2138 397 
Q 2388 397 2633 464 
Q 2878 531 3122 666 
L 3122 134 
Q 2881 22 2623 -34 
Q 2366 -91 2075 -91 
Q 1284 -91 818 406 
Q 353 903 353 1747 
Q 353 2603 823 3093 
Q 1294 3584 2113 3584 
Q 2378 3584 2631 3529 
Q 2884 3475 3122 3366 
z
" id="DejaVuSans-63" transform="scale(0.015625)"/>
       <path d="M 191 3500 
L 800 3500 
L 1894 563 
L 2988 3500 
L 3597 3500 
L 2284 0 
L 1503 0 
L 191 3500 
z
" id="DejaVuSans-76" transform="scale(0.015625)"/>
       <path d="M 2194 1759 
Q 1497 1759 1228 1600 
Q 959 1441 959 1056 
Q 959 750 1161 570 
Q 1363 391 1709 391 
Q 2188 391 2477 730 
Q 2766 1069 2766 1631 
L 2766 1759 
L 2194 1759 
z
M 3341 1997 
L 3341 0 
L 2766 0 
L 2766 531 
Q 2569 213 2275 61 
Q 1981 -91 1556 -91 
Q 1019 -91 701 211 
Q 384 513 384 1019 
Q 384 1609 779 1909 
Q 1175 2209 1959 2209 
L 2766 2209 
L 2766 2266 
Q 2766 2663 2505 2880 
Q 2244 3097 1772 3097 
Q 1472 3097 1187 3025 
Q 903 2953 641 2809 
L 641 3341 
Q 956 3463 1253 3523 
Q 1550 3584 1831 3584 
Q 2591 3584 2966 3190 
Q 3341 2797 3341 1997 
z
" id="DejaVuSans-61" transform="scale(0.015625)"/>
      </defs>
      <use xlink:href="#DejaVuSans-43"/>
      <use x="69.824219" xlink:href="#DejaVuSans-6f"/>
      <use x="131.005859" xlink:href="#DejaVuSans-64"/>
      <use x="194.482422" xlink:href="#DejaVuSans-65"/>
      <use x="256.005859" xlink:href="#DejaVuSans-20"/>
      <use x="287.792969" xlink:href="#DejaVuSans-72"/>
      <use x="326.65625" xlink:href="#DejaVuSans-65"/>
      <use x="388.179688" xlink:href="#DejaVuSans-67"/>
      <use x="451.65625" xlink:href="#DejaVuSans-69"/>
      <use x="479.439453" xlink:href="#DejaVuSans-6f"/>
      <use x="540.621094" xlink:href="#DejaVuSans-6e"/>
      <use x="604" xlink:href="#DejaVuSans-20"/>
      <use x="635.787109" xlink:href="#DejaVuSans-63"/>
      <use x="690.767578" xlink:href="#DejaVuSans-6f"/>
      <use x="751.949219" xlink:href="#DejaVuSans-76"/>
      <use x="811.128906" xlink:href="#DejaVuSans-65"/>
      <use x="872.652344" xlink:href="#DejaVuSans-72"/>
      <use x="913.765625" xlink:href="#DejaVuSans-61"/>
      <use x="975.044922" xlink:href="#DejaVuSans-67"/>
      <use x="1038.521484" xlink:href="#DejaVuSans-65"/>
     </g>
    </g>
   </g>
   <g id="line2d_13">
    <path clip-path="url(#pf6219498c9)" d="M 75.923352 145.338925 
L 79.490985 123.185325 
L 83.058617 114.247725 
L 86.626249 107.908525 
L 90.193882 104.414125 
L 93.761514 100.830125 
L 97.329146 98.970925 
L 100.896779 98.657325 
L 104.464411 98.231725 
L 108.032044 98.052525 
L 111.599676 97.850925 
L 115.167308 96.954925 
L 118.734941 96.730925 
L 122.302573 96.103725 
L 125.870205 91.242925 
L 129.437838 91.130925 
L 133.00547 91.130925 
L 136.573103 83.313325 
L 140.140735 72.606125 
L 143.708367 72.449325 
L 147.276 71.754925 
L 150.843632 71.732525 
L 154.411264 71.306925 
L 157.978897 71.284525 
L 161.546529 71.284525 
L 165.114161 70.791725 
L 168.681794 70.612525 
L 172.249426 70.612525 
L 175.817059 70.455725 
L 179.384691 70.455725 
L 182.952323 70.433325 
L 186.519956 70.298925 
L 190.087588 69.066925 
L 193.65522 68.910125 
L 197.222853 67.543725 
L 200.790485 67.543725 
L 204.358118 67.543725 
L 207.92575 67.454125 
L 211.493382 65.348525 
L 215.061015 65.281325 
L 218.628647 64.407725 
L 222.196279 64.407725 
L 225.763912 64.318125 
L 229.331544 64.161325 
L 232.899176 64.161325 
L 236.466809 64.161325 
L 240.034441 64.161325 
L 243.602074 64.116525 
L 247.169706 63.847725 
L 250.737338 63.847725 
L 254.304971 63.847725 
L 257.872603 55.671725 
L 261.440235 55.649325 
L 265.007868 55.559725 
L 268.5755 46.756525 
L 272.143132 44.158125 
L 275.710765 43.620525 
L 279.278397 42.791725 
L 282.84603 42.791725 
L 286.413662 42.545325 
L 289.981294 42.545325 
L 293.548927 42.545325 
L 297.116559 42.545325 
L 300.684191 42.545325 
L 304.251824 42.545325 
L 307.819456 42.545325 
L 311.387089 42.545325 
L 314.954721 41.492525 
L 318.522353 40.596525 
L 322.089986 40.574125 
L 325.657618 40.574125 
L 329.22525 40.574125 
L 332.792883 40.574125 
L 336.360515 40.484525 
L 339.928147 40.484525 
L 343.49578 40.484525 
L 347.063412 40.484525 
L 350.631045 40.238125 
L 354.198677 40.238125 
L 357.766309 40.215725 
L 361.333942 40.215725 
L 364.901574 39.386925 
L 368.469206 39.386925 
L 372.036839 39.386925 
L 375.604471 39.386925 
L 379.172104 39.386925 
L 382.739736 39.185325 
L 386.307368 39.185325 
L 389.875001 39.185325 
L 393.442633 39.185325 
L 397.010265 39.185325 
L 400.577898 39.185325 
" style="fill:none;stroke:#1f77b4;stroke-linecap:square;stroke-width:1.5;"/>
    <defs>
     <path d="M 0 3 
C 0.795609 3 1.55874 2.683901 2.12132 2.12132 
C 2.683901 1.55874 3 0.795609 3 0 
C 3 -0.795609 2.683901 -1.55874 2.12132 -2.12132 
C 1.55874 -2.683901 0.795609 -3 0 -3 
C -0.795609 -3 -1.55874 -2.683901 -2.12132 -2.12132 
C -2.683901 -1.55874 -3 -0.795609 -3 0 
C -3 0.795609 -2.683901 1.55874 -2.12132 2.12132 
C -1.55874 2.683901 -0.795609 3 0 3 
z
" id="m62d681a44e" style="stroke:#ffffff;stroke-width:0.75;"/>
    </defs>
    <g clip-path="url(#pf6219498c9)">
     <use style="fill:#1f77b4;stroke:#ffffff;stroke-width:0.75;" x="75.923352" xlink:href="#m62d681a44e" y="145.338925"/>
     <use style="fill:#1f77b4;stroke:#ffffff;stroke-width:0.75;" x="79.490985" xlink:href="#m62d681a44e" y="123.185325"/>
     <use style="fill:#1f77b4;stroke:#ffffff;stroke-width:0.75;" x="83.058617" xlink:href="#m62d681a44e" y="114.247725"/>
     <use style="fill:#1f77b4;stroke:#ffffff;stroke-width:0.75;" x="86.626249" xlink:href="#m62d681a44e" y="107.908525"/>
     <use style="fill:#1f77b4;stroke:#ffffff;stroke-width:0.75;" x="90.193882" xlink:href="#m62d681a44e" y="104.414125"/>
     <use style="fill:#1f77b4;stroke:#ffffff;stroke-width:0.75;" x="93.761514" xlink:href="#m62d681a44e" y="100.830125"/>
     <use style="fill:#1f77b4;stroke:#ffffff;stroke-width:0.75;" x="97.329146" xlink:href="#m62d681a44e" y="98.970925"/>
     <use style="fill:#1f77b4;stroke:#ffffff;stroke-width:0.75;" x="100.896779" xlink:href="#m62d681a44e" y="98.657325"/>
     <use style="fill:#1f77b4;stroke:#ffffff;stroke-width:0.75;" x="104.464411" xlink:href="#m62d681a44e" y="98.231725"/>
     <use style="fill:#1f77b4;stroke:#ffffff;stroke-width:0.75;" x="108.032044" xlink:href="#m62d681a44e" y="98.052525"/>
     <use style="fill:#1f77b4;stroke:#ffffff;stroke-width:0.75;" x="111.599676" xlink:href="#m62d681a44e" y="97.850925"/>
     <use style="fill:#1f77b4;stroke:#ffffff;stroke-width:0.75;" x="115.167308" xlink:href="#m62d681a44e" y="96.954925"/>
     <use style="fill:#1f77b4;stroke:#ffffff;stroke-width:0.75;" x="118.734941" xlink:href="#m62d681a44e" y="96.730925"/>
     <use style="fill:#1f77b4;stroke:#ffffff;stroke-width:0.75;" x="122.302573" xlink:href="#m62d681a44e" y="96.103725"/>
     <use style="fill:#1f77b4;stroke:#ffffff;stroke-width:0.75;" x="125.870205" xlink:href="#m62d681a44e" y="91.242925"/>
     <use style="fill:#1f77b4;stroke:#ffffff;stroke-width:0.75;" x="129.437838" xlink:href="#m62d681a44e" y="91.130925"/>
     <use style="fill:#1f77b4;stroke:#ffffff;stroke-width:0.75;" x="133.00547" xlink:href="#m62d681a44e" y="91.130925"/>
     <use style="fill:#1f77b4;stroke:#ffffff;stroke-width:0.75;" x="136.573103" xlink:href="#m62d681a44e" y="83.313325"/>
     <use style="fill:#1f77b4;stroke:#ffffff;stroke-width:0.75;" x="140.140735" xlink:href="#m62d681a44e" y="72.606125"/>
     <use style="fill:#1f77b4;stroke:#ffffff;stroke-width:0.75;" x="143.708367" xlink:href="#m62d681a44e" y="72.449325"/>
     <use style="fill:#1f77b4;stroke:#ffffff;stroke-width:0.75;" x="147.276" xlink:href="#m62d681a44e" y="71.754925"/>
     <use style="fill:#1f77b4;stroke:#ffffff;stroke-width:0.75;" x="150.843632" xlink:href="#m62d681a44e" y="71.732525"/>
     <use style="fill:#1f77b4;stroke:#ffffff;stroke-width:0.75;" x="154.411264" xlink:href="#m62d681a44e" y="71.306925"/>
     <use style="fill:#1f77b4;stroke:#ffffff;stroke-width:0.75;" x="157.978897" xlink:href="#m62d681a44e" y="71.284525"/>
     <use style="fill:#1f77b4;stroke:#ffffff;stroke-width:0.75;" x="161.546529" xlink:href="#m62d681a44e" y="71.284525"/>
     <use style="fill:#1f77b4;stroke:#ffffff;stroke-width:0.75;" x="165.114161" xlink:href="#m62d681a44e" y="70.791725"/>
     <use style="fill:#1f77b4;stroke:#ffffff;stroke-width:0.75;" x="168.681794" xlink:href="#m62d681a44e" y="70.612525"/>
     <use style="fill:#1f77b4;stroke:#ffffff;stroke-width:0.75;" x="172.249426" xlink:href="#m62d681a44e" y="70.612525"/>
     <use style="fill:#1f77b4;stroke:#ffffff;stroke-width:0.75;" x="175.817059" xlink:href="#m62d681a44e" y="70.455725"/>
     <use style="fill:#1f77b4;stroke:#ffffff;stroke-width:0.75;" x="179.384691" xlink:href="#m62d681a44e" y="70.455725"/>
     <use style="fill:#1f77b4;stroke:#ffffff;stroke-width:0.75;" x="182.952323" xlink:href="#m62d681a44e" y="70.433325"/>
     <use style="fill:#1f77b4;stroke:#ffffff;stroke-width:0.75;" x="186.519956" xlink:href="#m62d681a44e" y="70.298925"/>
     <use style="fill:#1f77b4;stroke:#ffffff;stroke-width:0.75;" x="190.087588" xlink:href="#m62d681a44e" y="69.066925"/>
     <use style="fill:#1f77b4;stroke:#ffffff;stroke-width:0.75;" x="193.65522" xlink:href="#m62d681a44e" y="68.910125"/>
     <use style="fill:#1f77b4;stroke:#ffffff;stroke-width:0.75;" x="197.222853" xlink:href="#m62d681a44e" y="67.543725"/>
     <use style="fill:#1f77b4;stroke:#ffffff;stroke-width:0.75;" x="200.790485" xlink:href="#m62d681a44e" y="67.543725"/>
     <use style="fill:#1f77b4;stroke:#ffffff;stroke-width:0.75;" x="204.358118" xlink:href="#m62d681a44e" y="67.543725"/>
     <use style="fill:#1f77b4;stroke:#ffffff;stroke-width:0.75;" x="207.92575" xlink:href="#m62d681a44e" y="67.454125"/>
     <use style="fill:#1f77b4;stroke:#ffffff;stroke-width:0.75;" x="211.493382" xlink:href="#m62d681a44e" y="65.348525"/>
     <use style="fill:#1f77b4;stroke:#ffffff;stroke-width:0.75;" x="215.061015" xlink:href="#m62d681a44e" y="65.281325"/>
     <use style="fill:#1f77b4;stroke:#ffffff;stroke-width:0.75;" x="218.628647" xlink:href="#m62d681a44e" y="64.407725"/>
     <use style="fill:#1f77b4;stroke:#ffffff;stroke-width:0.75;" x="222.196279" xlink:href="#m62d681a44e" y="64.407725"/>
     <use style="fill:#1f77b4;stroke:#ffffff;stroke-width:0.75;" x="225.763912" xlink:href="#m62d681a44e" y="64.318125"/>
     <use style="fill:#1f77b4;stroke:#ffffff;stroke-width:0.75;" x="229.331544" xlink:href="#m62d681a44e" y="64.161325"/>
     <use style="fill:#1f77b4;stroke:#ffffff;stroke-width:0.75;" x="232.899176" xlink:href="#m62d681a44e" y="64.161325"/>
     <use style="fill:#1f77b4;stroke:#ffffff;stroke-width:0.75;" x="236.466809" xlink:href="#m62d681a44e" y="64.161325"/>
     <use style="fill:#1f77b4;stroke:#ffffff;stroke-width:0.75;" x="240.034441" xlink:href="#m62d681a44e" y="64.161325"/>
     <use style="fill:#1f77b4;stroke:#ffffff;stroke-width:0.75;" x="243.602074" xlink:href="#m62d681a44e" y="64.116525"/>
     <use style="fill:#1f77b4;stroke:#ffffff;stroke-width:0.75;" x="247.169706" xlink:href="#m62d681a44e" y="63.847725"/>
     <use style="fill:#1f77b4;stroke:#ffffff;stroke-width:0.75;" x="250.737338" xlink:href="#m62d681a44e" y="63.847725"/>
     <use style="fill:#1f77b4;stroke:#ffffff;stroke-width:0.75;" x="254.304971" xlink:href="#m62d681a44e" y="63.847725"/>
     <use style="fill:#1f77b4;stroke:#ffffff;stroke-width:0.75;" x="257.872603" xlink:href="#m62d681a44e" y="55.671725"/>
     <use style="fill:#1f77b4;stroke:#ffffff;stroke-width:0.75;" x="261.440235" xlink:href="#m62d681a44e" y="55.649325"/>
     <use style="fill:#1f77b4;stroke:#ffffff;stroke-width:0.75;" x="265.007868" xlink:href="#m62d681a44e" y="55.559725"/>
     <use style="fill:#1f77b4;stroke:#ffffff;stroke-width:0.75;" x="268.5755" xlink:href="#m62d681a44e" y="46.756525"/>
     <use style="fill:#1f77b4;stroke:#ffffff;stroke-width:0.75;" x="272.143132" xlink:href="#m62d681a44e" y="44.158125"/>
     <use style="fill:#1f77b4;stroke:#ffffff;stroke-width:0.75;" x="275.710765" xlink:href="#m62d681a44e" y="43.620525"/>
     <use style="fill:#1f77b4;stroke:#ffffff;stroke-width:0.75;" x="279.278397" xlink:href="#m62d681a44e" y="42.791725"/>
     <use style="fill:#1f77b4;stroke:#ffffff;stroke-width:0.75;" x="282.84603" xlink:href="#m62d681a44e" y="42.791725"/>
     <use style="fill:#1f77b4;stroke:#ffffff;stroke-width:0.75;" x="286.413662" xlink:href="#m62d681a44e" y="42.545325"/>
     <use style="fill:#1f77b4;stroke:#ffffff;stroke-width:0.75;" x="289.981294" xlink:href="#m62d681a44e" y="42.545325"/>
     <use style="fill:#1f77b4;stroke:#ffffff;stroke-width:0.75;" x="293.548927" xlink:href="#m62d681a44e" y="42.545325"/>
     <use style="fill:#1f77b4;stroke:#ffffff;stroke-width:0.75;" x="297.116559" xlink:href="#m62d681a44e" y="42.545325"/>
     <use style="fill:#1f77b4;stroke:#ffffff;stroke-width:0.75;" x="300.684191" xlink:href="#m62d681a44e" y="42.545325"/>
     <use style="fill:#1f77b4;stroke:#ffffff;stroke-width:0.75;" x="304.251824" xlink:href="#m62d681a44e" y="42.545325"/>
     <use style="fill:#1f77b4;stroke:#ffffff;stroke-width:0.75;" x="307.819456" xlink:href="#m62d681a44e" y="42.545325"/>
     <use style="fill:#1f77b4;stroke:#ffffff;stroke-width:0.75;" x="311.387089" xlink:href="#m62d681a44e" y="42.545325"/>
     <use style="fill:#1f77b4;stroke:#ffffff;stroke-width:0.75;" x="314.954721" xlink:href="#m62d681a44e" y="41.492525"/>
     <use style="fill:#1f77b4;stroke:#ffffff;stroke-width:0.75;" x="318.522353" xlink:href="#m62d681a44e" y="40.596525"/>
     <use style="fill:#1f77b4;stroke:#ffffff;stroke-width:0.75;" x="322.089986" xlink:href="#m62d681a44e" y="40.574125"/>
     <use style="fill:#1f77b4;stroke:#ffffff;stroke-width:0.75;" x="325.657618" xlink:href="#m62d681a44e" y="40.574125"/>
     <use style="fill:#1f77b4;stroke:#ffffff;stroke-width:0.75;" x="329.22525" xlink:href="#m62d681a44e" y="40.574125"/>
     <use style="fill:#1f77b4;stroke:#ffffff;stroke-width:0.75;" x="332.792883" xlink:href="#m62d681a44e" y="40.574125"/>
     <use style="fill:#1f77b4;stroke:#ffffff;stroke-width:0.75;" x="336.360515" xlink:href="#m62d681a44e" y="40.484525"/>
     <use style="fill:#1f77b4;stroke:#ffffff;stroke-width:0.75;" x="339.928147" xlink:href="#m62d681a44e" y="40.484525"/>
     <use style="fill:#1f77b4;stroke:#ffffff;stroke-width:0.75;" x="343.49578" xlink:href="#m62d681a44e" y="40.484525"/>
     <use style="fill:#1f77b4;stroke:#ffffff;stroke-width:0.75;" x="347.063412" xlink:href="#m62d681a44e" y="40.484525"/>
     <use style="fill:#1f77b4;stroke:#ffffff;stroke-width:0.75;" x="350.631045" xlink:href="#m62d681a44e" y="40.238125"/>
     <use style="fill:#1f77b4;stroke:#ffffff;stroke-width:0.75;" x="354.198677" xlink:href="#m62d681a44e" y="40.238125"/>
     <use style="fill:#1f77b4;stroke:#ffffff;stroke-width:0.75;" x="357.766309" xlink:href="#m62d681a44e" y="40.215725"/>
     <use style="fill:#1f77b4;stroke:#ffffff;stroke-width:0.75;" x="361.333942" xlink:href="#m62d681a44e" y="40.215725"/>
     <use style="fill:#1f77b4;stroke:#ffffff;stroke-width:0.75;" x="364.901574" xlink:href="#m62d681a44e" y="39.386925"/>
     <use style="fill:#1f77b4;stroke:#ffffff;stroke-width:0.75;" x="368.469206" xlink:href="#m62d681a44e" y="39.386925"/>
     <use style="fill:#1f77b4;stroke:#ffffff;stroke-width:0.75;" x="372.036839" xlink:href="#m62d681a44e" y="39.386925"/>
     <use style="fill:#1f77b4;stroke:#ffffff;stroke-width:0.75;" x="375.604471" xlink:href="#m62d681a44e" y="39.386925"/>
     <use style="fill:#1f77b4;stroke:#ffffff;stroke-width:0.75;" x="379.172104" xlink:href="#m62d681a44e" y="39.386925"/>
     <use style="fill:#1f77b4;stroke:#ffffff;stroke-width:0.75;" x="382.739736" xlink:href="#m62d681a44e" y="39.185325"/>
     <use style="fill:#1f77b4;stroke:#ffffff;stroke-width:0.75;" x="386.307368" xlink:href="#m62d681a44e" y="39.185325"/>
     <use style="fill:#1f77b4;stroke:#ffffff;stroke-width:0.75;" x="389.875001" xlink:href="#m62d681a44e" y="39.185325"/>
     <use style="fill:#1f77b4;stroke:#ffffff;stroke-width:0.75;" x="393.442633" xlink:href="#m62d681a44e" y="39.185325"/>
     <use style="fill:#1f77b4;stroke:#ffffff;stroke-width:0.75;" x="397.010265" xlink:href="#m62d681a44e" y="39.185325"/>
     <use style="fill:#1f77b4;stroke:#ffffff;stroke-width:0.75;" x="400.577898" xlink:href="#m62d681a44e" y="39.185325"/>
    </g>
   </g>
   <g id="line2d_14">
    <path clip-path="url(#pf6219498c9)" d="M 75.923352 136.804525 
L 79.490985 129.658925 
L 83.058617 114.046125 
L 86.626249 102.286125 
L 90.193882 100.158125 
L 93.761514 100.023725 
L 97.329146 99.665325 
L 100.896779 99.665325 
L 104.464411 99.284525 
L 108.032044 95.230125 
L 111.599676 95.185325 
L 115.167308 91.937325 
L 118.734941 91.310125 
L 122.302573 91.242925 
L 125.870205 91.220525 
L 129.437838 91.198125 
L 133.00547 90.145325 
L 136.573103 90.033325 
L 140.140735 90.033325 
L 143.708367 81.991725 
L 147.276 81.879725 
L 150.843632 77.802925 
L 154.411264 77.780525 
L 157.978897 76.458925 
L 161.546529 76.212525 
L 165.114161 76.145325 
L 168.681794 76.033325 
L 172.249426 75.876525 
L 175.817059 75.786925 
L 179.384691 75.764525 
L 182.952323 75.742125 
L 186.519956 73.726125 
L 190.087588 70.612525 
L 193.65522 70.612525 
L 197.222853 70.410925 
L 200.790485 70.343725 
L 204.358118 70.254125 
L 207.92575 69.895725 
L 211.493382 69.246125 
L 215.061015 68.641325 
L 218.628647 67.722925 
L 222.196279 62.727725 
L 225.763912 62.593325 
L 229.331544 61.854125 
L 232.899176 61.764525 
L 236.466809 57.284525 
L 240.034441 49.489325 
L 243.602074 49.422125 
L 247.169706 49.422125 
L 250.737338 44.516525 
L 254.304971 44.426925 
L 257.872603 44.426925 
L 261.440235 44.404525 
L 265.007868 44.404525 
L 268.5755 44.404525 
L 272.143132 44.382125 
L 275.710765 44.382125 
L 279.278397 44.382125 
L 282.84603 44.382125 
L 286.413662 44.382125 
L 289.981294 44.382125 
L 293.548927 44.382125 
L 297.116559 43.038125 
L 300.684191 42.948525 
L 304.251824 42.858925 
L 307.819456 42.791725 
L 311.387089 42.791725 
L 314.954721 42.657325 
L 318.522353 42.567725 
L 322.089986 40.506925 
L 325.657618 40.506925 
L 329.22525 40.417325 
L 332.792883 40.394925 
L 336.360515 40.282925 
L 339.928147 40.282925 
L 343.49578 40.282925 
L 347.063412 40.282925 
L 350.631045 40.282925 
L 354.198677 40.282925 
L 357.766309 40.282925 
L 361.333942 40.282925 
L 364.901574 40.215725 
L 368.469206 40.215725 
L 372.036839 40.215725 
L 375.604471 39.588525 
L 379.172104 39.588525 
L 382.739736 38.244525 
L 386.307368 37.729325 
L 389.875001 37.729325 
L 393.442633 37.236525 
L 397.010265 37.236525 
L 400.577898 37.236525 
" style="fill:none;stroke:#98df8a;stroke-linecap:square;stroke-width:1.5;"/>
    <defs>
     <path d="M -0 3 
L 3 -3 
L -3 -3 
z
" id="m841ab02e36" style="stroke:#ffffff;stroke-linejoin:miter;stroke-width:0.75;"/>
    </defs>
    <g clip-path="url(#pf6219498c9)">
     <use style="fill:#98df8a;stroke:#ffffff;stroke-linejoin:miter;stroke-width:0.75;" x="75.923352" xlink:href="#m841ab02e36" y="136.804525"/>
     <use style="fill:#98df8a;stroke:#ffffff;stroke-linejoin:miter;stroke-width:0.75;" x="79.490985" xlink:href="#m841ab02e36" y="129.658925"/>
     <use style="fill:#98df8a;stroke:#ffffff;stroke-linejoin:miter;stroke-width:0.75;" x="83.058617" xlink:href="#m841ab02e36" y="114.046125"/>
     <use style="fill:#98df8a;stroke:#ffffff;stroke-linejoin:miter;stroke-width:0.75;" x="86.626249" xlink:href="#m841ab02e36" y="102.286125"/>
     <use style="fill:#98df8a;stroke:#ffffff;stroke-linejoin:miter;stroke-width:0.75;" x="90.193882" xlink:href="#m841ab02e36" y="100.158125"/>
     <use style="fill:#98df8a;stroke:#ffffff;stroke-linejoin:miter;stroke-width:0.75;" x="93.761514" xlink:href="#m841ab02e36" y="100.023725"/>
     <use style="fill:#98df8a;stroke:#ffffff;stroke-linejoin:miter;stroke-width:0.75;" x="97.329146" xlink:href="#m841ab02e36" y="99.665325"/>
     <use style="fill:#98df8a;stroke:#ffffff;stroke-linejoin:miter;stroke-width:0.75;" x="100.896779" xlink:href="#m841ab02e36" y="99.665325"/>
     <use style="fill:#98df8a;stroke:#ffffff;stroke-linejoin:miter;stroke-width:0.75;" x="104.464411" xlink:href="#m841ab02e36" y="99.284525"/>
     <use style="fill:#98df8a;stroke:#ffffff;stroke-linejoin:miter;stroke-width:0.75;" x="108.032044" xlink:href="#m841ab02e36" y="95.230125"/>
     <use style="fill:#98df8a;stroke:#ffffff;stroke-linejoin:miter;stroke-width:0.75;" x="111.599676" xlink:href="#m841ab02e36" y="95.185325"/>
     <use style="fill:#98df8a;stroke:#ffffff;stroke-linejoin:miter;stroke-width:0.75;" x="115.167308" xlink:href="#m841ab02e36" y="91.937325"/>
     <use style="fill:#98df8a;stroke:#ffffff;stroke-linejoin:miter;stroke-width:0.75;" x="118.734941" xlink:href="#m841ab02e36" y="91.310125"/>
     <use style="fill:#98df8a;stroke:#ffffff;stroke-linejoin:miter;stroke-width:0.75;" x="122.302573" xlink:href="#m841ab02e36" y="91.242925"/>
     <use style="fill:#98df8a;stroke:#ffffff;stroke-linejoin:miter;stroke-width:0.75;" x="125.870205" xlink:href="#m841ab02e36" y="91.220525"/>
     <use style="fill:#98df8a;stroke:#ffffff;stroke-linejoin:miter;stroke-width:0.75;" x="129.437838" xlink:href="#m841ab02e36" y="91.198125"/>
     <use style="fill:#98df8a;stroke:#ffffff;stroke-linejoin:miter;stroke-width:0.75;" x="133.00547" xlink:href="#m841ab02e36" y="90.145325"/>
     <use style="fill:#98df8a;stroke:#ffffff;stroke-linejoin:miter;stroke-width:0.75;" x="136.573103" xlink:href="#m841ab02e36" y="90.033325"/>
     <use style="fill:#98df8a;stroke:#ffffff;stroke-linejoin:miter;stroke-width:0.75;" x="140.140735" xlink:href="#m841ab02e36" y="90.033325"/>
     <use style="fill:#98df8a;stroke:#ffffff;stroke-linejoin:miter;stroke-width:0.75;" x="143.708367" xlink:href="#m841ab02e36" y="81.991725"/>
     <use style="fill:#98df8a;stroke:#ffffff;stroke-linejoin:miter;stroke-width:0.75;" x="147.276" xlink:href="#m841ab02e36" y="81.879725"/>
     <use style="fill:#98df8a;stroke:#ffffff;stroke-linejoin:miter;stroke-width:0.75;" x="150.843632" xlink:href="#m841ab02e36" y="77.802925"/>
     <use style="fill:#98df8a;stroke:#ffffff;stroke-linejoin:miter;stroke-width:0.75;" x="154.411264" xlink:href="#m841ab02e36" y="77.780525"/>
     <use style="fill:#98df8a;stroke:#ffffff;stroke-linejoin:miter;stroke-width:0.75;" x="157.978897" xlink:href="#m841ab02e36" y="76.458925"/>
     <use style="fill:#98df8a;stroke:#ffffff;stroke-linejoin:miter;stroke-width:0.75;" x="161.546529" xlink:href="#m841ab02e36" y="76.212525"/>
     <use style="fill:#98df8a;stroke:#ffffff;stroke-linejoin:miter;stroke-width:0.75;" x="165.114161" xlink:href="#m841ab02e36" y="76.145325"/>
     <use style="fill:#98df8a;stroke:#ffffff;stroke-linejoin:miter;stroke-width:0.75;" x="168.681794" xlink:href="#m841ab02e36" y="76.033325"/>
     <use style="fill:#98df8a;stroke:#ffffff;stroke-linejoin:miter;stroke-width:0.75;" x="172.249426" xlink:href="#m841ab02e36" y="75.876525"/>
     <use style="fill:#98df8a;stroke:#ffffff;stroke-linejoin:miter;stroke-width:0.75;" x="175.817059" xlink:href="#m841ab02e36" y="75.786925"/>
     <use style="fill:#98df8a;stroke:#ffffff;stroke-linejoin:miter;stroke-width:0.75;" x="179.384691" xlink:href="#m841ab02e36" y="75.764525"/>
     <use style="fill:#98df8a;stroke:#ffffff;stroke-linejoin:miter;stroke-width:0.75;" x="182.952323" xlink:href="#m841ab02e36" y="75.742125"/>
     <use style="fill:#98df8a;stroke:#ffffff;stroke-linejoin:miter;stroke-width:0.75;" x="186.519956" xlink:href="#m841ab02e36" y="73.726125"/>
     <use style="fill:#98df8a;stroke:#ffffff;stroke-linejoin:miter;stroke-width:0.75;" x="190.087588" xlink:href="#m841ab02e36" y="70.612525"/>
     <use style="fill:#98df8a;stroke:#ffffff;stroke-linejoin:miter;stroke-width:0.75;" x="193.65522" xlink:href="#m841ab02e36" y="70.612525"/>
     <use style="fill:#98df8a;stroke:#ffffff;stroke-linejoin:miter;stroke-width:0.75;" x="197.222853" xlink:href="#m841ab02e36" y="70.410925"/>
     <use style="fill:#98df8a;stroke:#ffffff;stroke-linejoin:miter;stroke-width:0.75;" x="200.790485" xlink:href="#m841ab02e36" y="70.343725"/>
     <use style="fill:#98df8a;stroke:#ffffff;stroke-linejoin:miter;stroke-width:0.75;" x="204.358118" xlink:href="#m841ab02e36" y="70.254125"/>
     <use style="fill:#98df8a;stroke:#ffffff;stroke-linejoin:miter;stroke-width:0.75;" x="207.92575" xlink:href="#m841ab02e36" y="69.895725"/>
     <use style="fill:#98df8a;stroke:#ffffff;stroke-linejoin:miter;stroke-width:0.75;" x="211.493382" xlink:href="#m841ab02e36" y="69.246125"/>
     <use style="fill:#98df8a;stroke:#ffffff;stroke-linejoin:miter;stroke-width:0.75;" x="215.061015" xlink:href="#m841ab02e36" y="68.641325"/>
     <use style="fill:#98df8a;stroke:#ffffff;stroke-linejoin:miter;stroke-width:0.75;" x="218.628647" xlink:href="#m841ab02e36" y="67.722925"/>
     <use style="fill:#98df8a;stroke:#ffffff;stroke-linejoin:miter;stroke-width:0.75;" x="222.196279" xlink:href="#m841ab02e36" y="62.727725"/>
     <use style="fill:#98df8a;stroke:#ffffff;stroke-linejoin:miter;stroke-width:0.75;" x="225.763912" xlink:href="#m841ab02e36" y="62.593325"/>
     <use style="fill:#98df8a;stroke:#ffffff;stroke-linejoin:miter;stroke-width:0.75;" x="229.331544" xlink:href="#m841ab02e36" y="61.854125"/>
     <use style="fill:#98df8a;stroke:#ffffff;stroke-linejoin:miter;stroke-width:0.75;" x="232.899176" xlink:href="#m841ab02e36" y="61.764525"/>
     <use style="fill:#98df8a;stroke:#ffffff;stroke-linejoin:miter;stroke-width:0.75;" x="236.466809" xlink:href="#m841ab02e36" y="57.284525"/>
     <use style="fill:#98df8a;stroke:#ffffff;stroke-linejoin:miter;stroke-width:0.75;" x="240.034441" xlink:href="#m841ab02e36" y="49.489325"/>
     <use style="fill:#98df8a;stroke:#ffffff;stroke-linejoin:miter;stroke-width:0.75;" x="243.602074" xlink:href="#m841ab02e36" y="49.422125"/>
     <use style="fill:#98df8a;stroke:#ffffff;stroke-linejoin:miter;stroke-width:0.75;" x="247.169706" xlink:href="#m841ab02e36" y="49.422125"/>
     <use style="fill:#98df8a;stroke:#ffffff;stroke-linejoin:miter;stroke-width:0.75;" x="250.737338" xlink:href="#m841ab02e36" y="44.516525"/>
     <use style="fill:#98df8a;stroke:#ffffff;stroke-linejoin:miter;stroke-width:0.75;" x="254.304971" xlink:href="#m841ab02e36" y="44.426925"/>
     <use style="fill:#98df8a;stroke:#ffffff;stroke-linejoin:miter;stroke-width:0.75;" x="257.872603" xlink:href="#m841ab02e36" y="44.426925"/>
     <use style="fill:#98df8a;stroke:#ffffff;stroke-linejoin:miter;stroke-width:0.75;" x="261.440235" xlink:href="#m841ab02e36" y="44.404525"/>
     <use style="fill:#98df8a;stroke:#ffffff;stroke-linejoin:miter;stroke-width:0.75;" x="265.007868" xlink:href="#m841ab02e36" y="44.404525"/>
     <use style="fill:#98df8a;stroke:#ffffff;stroke-linejoin:miter;stroke-width:0.75;" x="268.5755" xlink:href="#m841ab02e36" y="44.404525"/>
     <use style="fill:#98df8a;stroke:#ffffff;stroke-linejoin:miter;stroke-width:0.75;" x="272.143132" xlink:href="#m841ab02e36" y="44.382125"/>
     <use style="fill:#98df8a;stroke:#ffffff;stroke-linejoin:miter;stroke-width:0.75;" x="275.710765" xlink:href="#m841ab02e36" y="44.382125"/>
     <use style="fill:#98df8a;stroke:#ffffff;stroke-linejoin:miter;stroke-width:0.75;" x="279.278397" xlink:href="#m841ab02e36" y="44.382125"/>
     <use style="fill:#98df8a;stroke:#ffffff;stroke-linejoin:miter;stroke-width:0.75;" x="282.84603" xlink:href="#m841ab02e36" y="44.382125"/>
     <use style="fill:#98df8a;stroke:#ffffff;stroke-linejoin:miter;stroke-width:0.75;" x="286.413662" xlink:href="#m841ab02e36" y="44.382125"/>
     <use style="fill:#98df8a;stroke:#ffffff;stroke-linejoin:miter;stroke-width:0.75;" x="289.981294" xlink:href="#m841ab02e36" y="44.382125"/>
     <use style="fill:#98df8a;stroke:#ffffff;stroke-linejoin:miter;stroke-width:0.75;" x="293.548927" xlink:href="#m841ab02e36" y="44.382125"/>
     <use style="fill:#98df8a;stroke:#ffffff;stroke-linejoin:miter;stroke-width:0.75;" x="297.116559" xlink:href="#m841ab02e36" y="43.038125"/>
     <use style="fill:#98df8a;stroke:#ffffff;stroke-linejoin:miter;stroke-width:0.75;" x="300.684191" xlink:href="#m841ab02e36" y="42.948525"/>
     <use style="fill:#98df8a;stroke:#ffffff;stroke-linejoin:miter;stroke-width:0.75;" x="304.251824" xlink:href="#m841ab02e36" y="42.858925"/>
     <use style="fill:#98df8a;stroke:#ffffff;stroke-linejoin:miter;stroke-width:0.75;" x="307.819456" xlink:href="#m841ab02e36" y="42.791725"/>
     <use style="fill:#98df8a;stroke:#ffffff;stroke-linejoin:miter;stroke-width:0.75;" x="311.387089" xlink:href="#m841ab02e36" y="42.791725"/>
     <use style="fill:#98df8a;stroke:#ffffff;stroke-linejoin:miter;stroke-width:0.75;" x="314.954721" xlink:href="#m841ab02e36" y="42.657325"/>
     <use style="fill:#98df8a;stroke:#ffffff;stroke-linejoin:miter;stroke-width:0.75;" x="318.522353" xlink:href="#m841ab02e36" y="42.567725"/>
     <use style="fill:#98df8a;stroke:#ffffff;stroke-linejoin:miter;stroke-width:0.75;" x="322.089986" xlink:href="#m841ab02e36" y="40.506925"/>
     <use style="fill:#98df8a;stroke:#ffffff;stroke-linejoin:miter;stroke-width:0.75;" x="325.657618" xlink:href="#m841ab02e36" y="40.506925"/>
     <use style="fill:#98df8a;stroke:#ffffff;stroke-linejoin:miter;stroke-width:0.75;" x="329.22525" xlink:href="#m841ab02e36" y="40.417325"/>
     <use style="fill:#98df8a;stroke:#ffffff;stroke-linejoin:miter;stroke-width:0.75;" x="332.792883" xlink:href="#m841ab02e36" y="40.394925"/>
     <use style="fill:#98df8a;stroke:#ffffff;stroke-linejoin:miter;stroke-width:0.75;" x="336.360515" xlink:href="#m841ab02e36" y="40.282925"/>
     <use style="fill:#98df8a;stroke:#ffffff;stroke-linejoin:miter;stroke-width:0.75;" x="339.928147" xlink:href="#m841ab02e36" y="40.282925"/>
     <use style="fill:#98df8a;stroke:#ffffff;stroke-linejoin:miter;stroke-width:0.75;" x="343.49578" xlink:href="#m841ab02e36" y="40.282925"/>
     <use style="fill:#98df8a;stroke:#ffffff;stroke-linejoin:miter;stroke-width:0.75;" x="347.063412" xlink:href="#m841ab02e36" y="40.282925"/>
     <use style="fill:#98df8a;stroke:#ffffff;stroke-linejoin:miter;stroke-width:0.75;" x="350.631045" xlink:href="#m841ab02e36" y="40.282925"/>
     <use style="fill:#98df8a;stroke:#ffffff;stroke-linejoin:miter;stroke-width:0.75;" x="354.198677" xlink:href="#m841ab02e36" y="40.282925"/>
     <use style="fill:#98df8a;stroke:#ffffff;stroke-linejoin:miter;stroke-width:0.75;" x="357.766309" xlink:href="#m841ab02e36" y="40.282925"/>
     <use style="fill:#98df8a;stroke:#ffffff;stroke-linejoin:miter;stroke-width:0.75;" x="361.333942" xlink:href="#m841ab02e36" y="40.282925"/>
     <use style="fill:#98df8a;stroke:#ffffff;stroke-linejoin:miter;stroke-width:0.75;" x="364.901574" xlink:href="#m841ab02e36" y="40.215725"/>
     <use style="fill:#98df8a;stroke:#ffffff;stroke-linejoin:miter;stroke-width:0.75;" x="368.469206" xlink:href="#m841ab02e36" y="40.215725"/>
     <use style="fill:#98df8a;stroke:#ffffff;stroke-linejoin:miter;stroke-width:0.75;" x="372.036839" xlink:href="#m841ab02e36" y="40.215725"/>
     <use style="fill:#98df8a;stroke:#ffffff;stroke-linejoin:miter;stroke-width:0.75;" x="375.604471" xlink:href="#m841ab02e36" y="39.588525"/>
     <use style="fill:#98df8a;stroke:#ffffff;stroke-linejoin:miter;stroke-width:0.75;" x="379.172104" xlink:href="#m841ab02e36" y="39.588525"/>
     <use style="fill:#98df8a;stroke:#ffffff;stroke-linejoin:miter;stroke-width:0.75;" x="382.739736" xlink:href="#m841ab02e36" y="38.244525"/>
     <use style="fill:#98df8a;stroke:#ffffff;stroke-linejoin:miter;stroke-width:0.75;" x="386.307368" xlink:href="#m841ab02e36" y="37.729325"/>
     <use style="fill:#98df8a;stroke:#ffffff;stroke-linejoin:miter;stroke-width:0.75;" x="389.875001" xlink:href="#m841ab02e36" y="37.729325"/>
     <use style="fill:#98df8a;stroke:#ffffff;stroke-linejoin:miter;stroke-width:0.75;" x="393.442633" xlink:href="#m841ab02e36" y="37.236525"/>
     <use style="fill:#98df8a;stroke:#ffffff;stroke-linejoin:miter;stroke-width:0.75;" x="397.010265" xlink:href="#m841ab02e36" y="37.236525"/>
     <use style="fill:#98df8a;stroke:#ffffff;stroke-linejoin:miter;stroke-width:0.75;" x="400.577898" xlink:href="#m841ab02e36" y="37.236525"/>
    </g>
   </g>
   <g id="line2d_15">
    <path clip-path="url(#pf6219498c9)" d="M 75.923352 275.550125 
L 79.490985 275.034925 
L 83.058617 274.967725 
L 86.626249 274.721325 
L 90.193882 274.698925 
L 93.761514 274.631725 
L 97.329146 274.430125 
L 100.896779 274.430125 
L 104.464411 274.430125 
L 108.032044 274.430125 
L 111.599676 274.407725 
L 115.167308 274.407725 
L 118.734941 274.407725 
L 122.302573 274.071725 
L 125.870205 274.071725 
L 129.437838 274.049325 
L 133.00547 273.310125 
L 136.573103 273.310125 
L 140.140735 273.220525 
L 143.708367 273.220525 
L 147.276 273.220525 
L 150.843632 273.220525 
L 154.411264 273.220525 
L 157.978897 273.220525 
L 161.546529 273.220525 
L 165.114161 273.220525 
L 168.681794 273.220525 
L 172.249426 273.220525 
L 175.817059 273.220525 
L 179.384691 273.220525 
L 182.952323 273.130925 
L 186.519956 273.130925 
L 190.087588 273.130925 
L 193.65522 273.130925 
L 197.222853 273.130925 
L 200.790485 273.130925 
L 204.358118 273.108525 
L 207.92575 272.884525 
L 211.493382 272.884525 
L 215.061015 272.884525 
L 218.628647 272.884525 
L 222.196279 272.794925 
L 225.763912 272.794925 
L 229.331544 272.772525 
L 232.899176 272.772525 
L 236.466809 272.772525 
L 240.034441 272.772525 
L 243.602074 272.772525 
L 247.169706 272.772525 
L 250.737338 272.772525 
L 254.304971 272.772525 
L 257.872603 272.772525 
L 261.440235 272.772525 
L 265.007868 272.772525 
L 268.5755 272.772525 
L 272.143132 272.772525 
L 275.710765 272.772525 
L 279.278397 272.772525 
L 282.84603 272.772525 
L 286.413662 272.772525 
L 289.981294 272.772525 
L 293.548927 272.772525 
L 297.116559 272.772525 
L 300.684191 272.772525 
L 304.251824 272.772525 
L 307.819456 272.772525 
L 311.387089 272.772525 
L 314.954721 272.772525 
L 318.522353 272.772525 
L 322.089986 272.772525 
L 325.657618 272.772525 
L 329.22525 272.772525 
L 332.792883 272.772525 
L 336.360515 272.772525 
L 339.928147 272.772525 
L 343.49578 272.772525 
L 347.063412 272.772525 
L 350.631045 272.772525 
L 354.198677 272.772525 
L 357.766309 272.772525 
L 361.333942 272.772525 
L 364.901574 272.772525 
L 368.469206 272.772525 
L 372.036839 272.772525 
L 375.604471 272.772525 
L 379.172104 272.772525 
L 382.739736 272.772525 
L 386.307368 272.772525 
L 389.875001 272.615725 
L 393.442633 272.615725 
L 397.010265 272.279725 
L 400.577898 272.279725 
" style="fill:none;stroke:#d62728;stroke-linecap:square;stroke-width:1.5;"/>
    <defs>
     <path d="M 0 -3 
L -3 3 
L 3 3 
z
" id="m051fd2f182" style="stroke:#ffffff;stroke-linejoin:miter;stroke-width:0.75;"/>
    </defs>
    <g clip-path="url(#pf6219498c9)">
     <use style="fill:#d62728;stroke:#ffffff;stroke-linejoin:miter;stroke-width:0.75;" x="75.923352" xlink:href="#m051fd2f182" y="275.550125"/>
     <use style="fill:#d62728;stroke:#ffffff;stroke-linejoin:miter;stroke-width:0.75;" x="79.490985" xlink:href="#m051fd2f182" y="275.034925"/>
     <use style="fill:#d62728;stroke:#ffffff;stroke-linejoin:miter;stroke-width:0.75;" x="83.058617" xlink:href="#m051fd2f182" y="274.967725"/>
     <use style="fill:#d62728;stroke:#ffffff;stroke-linejoin:miter;stroke-width:0.75;" x="86.626249" xlink:href="#m051fd2f182" y="274.721325"/>
     <use style="fill:#d62728;stroke:#ffffff;stroke-linejoin:miter;stroke-width:0.75;" x="90.193882" xlink:href="#m051fd2f182" y="274.698925"/>
     <use style="fill:#d62728;stroke:#ffffff;stroke-linejoin:miter;stroke-width:0.75;" x="93.761514" xlink:href="#m051fd2f182" y="274.631725"/>
     <use style="fill:#d62728;stroke:#ffffff;stroke-linejoin:miter;stroke-width:0.75;" x="97.329146" xlink:href="#m051fd2f182" y="274.430125"/>
     <use style="fill:#d62728;stroke:#ffffff;stroke-linejoin:miter;stroke-width:0.75;" x="100.896779" xlink:href="#m051fd2f182" y="274.430125"/>
     <use style="fill:#d62728;stroke:#ffffff;stroke-linejoin:miter;stroke-width:0.75;" x="104.464411" xlink:href="#m051fd2f182" y="274.430125"/>
     <use style="fill:#d62728;stroke:#ffffff;stroke-linejoin:miter;stroke-width:0.75;" x="108.032044" xlink:href="#m051fd2f182" y="274.430125"/>
     <use style="fill:#d62728;stroke:#ffffff;stroke-linejoin:miter;stroke-width:0.75;" x="111.599676" xlink:href="#m051fd2f182" y="274.407725"/>
     <use style="fill:#d62728;stroke:#ffffff;stroke-linejoin:miter;stroke-width:0.75;" x="115.167308" xlink:href="#m051fd2f182" y="274.407725"/>
     <use style="fill:#d62728;stroke:#ffffff;stroke-linejoin:miter;stroke-width:0.75;" x="118.734941" xlink:href="#m051fd2f182" y="274.407725"/>
     <use style="fill:#d62728;stroke:#ffffff;stroke-linejoin:miter;stroke-width:0.75;" x="122.302573" xlink:href="#m051fd2f182" y="274.071725"/>
     <use style="fill:#d62728;stroke:#ffffff;stroke-linejoin:miter;stroke-width:0.75;" x="125.870205" xlink:href="#m051fd2f182" y="274.071725"/>
     <use style="fill:#d62728;stroke:#ffffff;stroke-linejoin:miter;stroke-width:0.75;" x="129.437838" xlink:href="#m051fd2f182" y="274.049325"/>
     <use style="fill:#d62728;stroke:#ffffff;stroke-linejoin:miter;stroke-width:0.75;" x="133.00547" xlink:href="#m051fd2f182" y="273.310125"/>
     <use style="fill:#d62728;stroke:#ffffff;stroke-linejoin:miter;stroke-width:0.75;" x="136.573103" xlink:href="#m051fd2f182" y="273.310125"/>
     <use style="fill:#d62728;stroke:#ffffff;stroke-linejoin:miter;stroke-width:0.75;" x="140.140735" xlink:href="#m051fd2f182" y="273.220525"/>
     <use style="fill:#d62728;stroke:#ffffff;stroke-linejoin:miter;stroke-width:0.75;" x="143.708367" xlink:href="#m051fd2f182" y="273.220525"/>
     <use style="fill:#d62728;stroke:#ffffff;stroke-linejoin:miter;stroke-width:0.75;" x="147.276" xlink:href="#m051fd2f182" y="273.220525"/>
     <use style="fill:#d62728;stroke:#ffffff;stroke-linejoin:miter;stroke-width:0.75;" x="150.843632" xlink:href="#m051fd2f182" y="273.220525"/>
     <use style="fill:#d62728;stroke:#ffffff;stroke-linejoin:miter;stroke-width:0.75;" x="154.411264" xlink:href="#m051fd2f182" y="273.220525"/>
     <use style="fill:#d62728;stroke:#ffffff;stroke-linejoin:miter;stroke-width:0.75;" x="157.978897" xlink:href="#m051fd2f182" y="273.220525"/>
     <use style="fill:#d62728;stroke:#ffffff;stroke-linejoin:miter;stroke-width:0.75;" x="161.546529" xlink:href="#m051fd2f182" y="273.220525"/>
     <use style="fill:#d62728;stroke:#ffffff;stroke-linejoin:miter;stroke-width:0.75;" x="165.114161" xlink:href="#m051fd2f182" y="273.220525"/>
     <use style="fill:#d62728;stroke:#ffffff;stroke-linejoin:miter;stroke-width:0.75;" x="168.681794" xlink:href="#m051fd2f182" y="273.220525"/>
     <use style="fill:#d62728;stroke:#ffffff;stroke-linejoin:miter;stroke-width:0.75;" x="172.249426" xlink:href="#m051fd2f182" y="273.220525"/>
     <use style="fill:#d62728;stroke:#ffffff;stroke-linejoin:miter;stroke-width:0.75;" x="175.817059" xlink:href="#m051fd2f182" y="273.220525"/>
     <use style="fill:#d62728;stroke:#ffffff;stroke-linejoin:miter;stroke-width:0.75;" x="179.384691" xlink:href="#m051fd2f182" y="273.220525"/>
     <use style="fill:#d62728;stroke:#ffffff;stroke-linejoin:miter;stroke-width:0.75;" x="182.952323" xlink:href="#m051fd2f182" y="273.130925"/>
     <use style="fill:#d62728;stroke:#ffffff;stroke-linejoin:miter;stroke-width:0.75;" x="186.519956" xlink:href="#m051fd2f182" y="273.130925"/>
     <use style="fill:#d62728;stroke:#ffffff;stroke-linejoin:miter;stroke-width:0.75;" x="190.087588" xlink:href="#m051fd2f182" y="273.130925"/>
     <use style="fill:#d62728;stroke:#ffffff;stroke-linejoin:miter;stroke-width:0.75;" x="193.65522" xlink:href="#m051fd2f182" y="273.130925"/>
     <use style="fill:#d62728;stroke:#ffffff;stroke-linejoin:miter;stroke-width:0.75;" x="197.222853" xlink:href="#m051fd2f182" y="273.130925"/>
     <use style="fill:#d62728;stroke:#ffffff;stroke-linejoin:miter;stroke-width:0.75;" x="200.790485" xlink:href="#m051fd2f182" y="273.130925"/>
     <use style="fill:#d62728;stroke:#ffffff;stroke-linejoin:miter;stroke-width:0.75;" x="204.358118" xlink:href="#m051fd2f182" y="273.108525"/>
     <use style="fill:#d62728;stroke:#ffffff;stroke-linejoin:miter;stroke-width:0.75;" x="207.92575" xlink:href="#m051fd2f182" y="272.884525"/>
     <use style="fill:#d62728;stroke:#ffffff;stroke-linejoin:miter;stroke-width:0.75;" x="211.493382" xlink:href="#m051fd2f182" y="272.884525"/>
     <use style="fill:#d62728;stroke:#ffffff;stroke-linejoin:miter;stroke-width:0.75;" x="215.061015" xlink:href="#m051fd2f182" y="272.884525"/>
     <use style="fill:#d62728;stroke:#ffffff;stroke-linejoin:miter;stroke-width:0.75;" x="218.628647" xlink:href="#m051fd2f182" y="272.884525"/>
     <use style="fill:#d62728;stroke:#ffffff;stroke-linejoin:miter;stroke-width:0.75;" x="222.196279" xlink:href="#m051fd2f182" y="272.794925"/>
     <use style="fill:#d62728;stroke:#ffffff;stroke-linejoin:miter;stroke-width:0.75;" x="225.763912" xlink:href="#m051fd2f182" y="272.794925"/>
     <use style="fill:#d62728;stroke:#ffffff;stroke-linejoin:miter;stroke-width:0.75;" x="229.331544" xlink:href="#m051fd2f182" y="272.772525"/>
     <use style="fill:#d62728;stroke:#ffffff;stroke-linejoin:miter;stroke-width:0.75;" x="232.899176" xlink:href="#m051fd2f182" y="272.772525"/>
     <use style="fill:#d62728;stroke:#ffffff;stroke-linejoin:miter;stroke-width:0.75;" x="236.466809" xlink:href="#m051fd2f182" y="272.772525"/>
     <use style="fill:#d62728;stroke:#ffffff;stroke-linejoin:miter;stroke-width:0.75;" x="240.034441" xlink:href="#m051fd2f182" y="272.772525"/>
     <use style="fill:#d62728;stroke:#ffffff;stroke-linejoin:miter;stroke-width:0.75;" x="243.602074" xlink:href="#m051fd2f182" y="272.772525"/>
     <use style="fill:#d62728;stroke:#ffffff;stroke-linejoin:miter;stroke-width:0.75;" x="247.169706" xlink:href="#m051fd2f182" y="272.772525"/>
     <use style="fill:#d62728;stroke:#ffffff;stroke-linejoin:miter;stroke-width:0.75;" x="250.737338" xlink:href="#m051fd2f182" y="272.772525"/>
     <use style="fill:#d62728;stroke:#ffffff;stroke-linejoin:miter;stroke-width:0.75;" x="254.304971" xlink:href="#m051fd2f182" y="272.772525"/>
     <use style="fill:#d62728;stroke:#ffffff;stroke-linejoin:miter;stroke-width:0.75;" x="257.872603" xlink:href="#m051fd2f182" y="272.772525"/>
     <use style="fill:#d62728;stroke:#ffffff;stroke-linejoin:miter;stroke-width:0.75;" x="261.440235" xlink:href="#m051fd2f182" y="272.772525"/>
     <use style="fill:#d62728;stroke:#ffffff;stroke-linejoin:miter;stroke-width:0.75;" x="265.007868" xlink:href="#m051fd2f182" y="272.772525"/>
     <use style="fill:#d62728;stroke:#ffffff;stroke-linejoin:miter;stroke-width:0.75;" x="268.5755" xlink:href="#m051fd2f182" y="272.772525"/>
     <use style="fill:#d62728;stroke:#ffffff;stroke-linejoin:miter;stroke-width:0.75;" x="272.143132" xlink:href="#m051fd2f182" y="272.772525"/>
     <use style="fill:#d62728;stroke:#ffffff;stroke-linejoin:miter;stroke-width:0.75;" x="275.710765" xlink:href="#m051fd2f182" y="272.772525"/>
     <use style="fill:#d62728;stroke:#ffffff;stroke-linejoin:miter;stroke-width:0.75;" x="279.278397" xlink:href="#m051fd2f182" y="272.772525"/>
     <use style="fill:#d62728;stroke:#ffffff;stroke-linejoin:miter;stroke-width:0.75;" x="282.84603" xlink:href="#m051fd2f182" y="272.772525"/>
     <use style="fill:#d62728;stroke:#ffffff;stroke-linejoin:miter;stroke-width:0.75;" x="286.413662" xlink:href="#m051fd2f182" y="272.772525"/>
     <use style="fill:#d62728;stroke:#ffffff;stroke-linejoin:miter;stroke-width:0.75;" x="289.981294" xlink:href="#m051fd2f182" y="272.772525"/>
     <use style="fill:#d62728;stroke:#ffffff;stroke-linejoin:miter;stroke-width:0.75;" x="293.548927" xlink:href="#m051fd2f182" y="272.772525"/>
     <use style="fill:#d62728;stroke:#ffffff;stroke-linejoin:miter;stroke-width:0.75;" x="297.116559" xlink:href="#m051fd2f182" y="272.772525"/>
     <use style="fill:#d62728;stroke:#ffffff;stroke-linejoin:miter;stroke-width:0.75;" x="300.684191" xlink:href="#m051fd2f182" y="272.772525"/>
     <use style="fill:#d62728;stroke:#ffffff;stroke-linejoin:miter;stroke-width:0.75;" x="304.251824" xlink:href="#m051fd2f182" y="272.772525"/>
     <use style="fill:#d62728;stroke:#ffffff;stroke-linejoin:miter;stroke-width:0.75;" x="307.819456" xlink:href="#m051fd2f182" y="272.772525"/>
     <use style="fill:#d62728;stroke:#ffffff;stroke-linejoin:miter;stroke-width:0.75;" x="311.387089" xlink:href="#m051fd2f182" y="272.772525"/>
     <use style="fill:#d62728;stroke:#ffffff;stroke-linejoin:miter;stroke-width:0.75;" x="314.954721" xlink:href="#m051fd2f182" y="272.772525"/>
     <use style="fill:#d62728;stroke:#ffffff;stroke-linejoin:miter;stroke-width:0.75;" x="318.522353" xlink:href="#m051fd2f182" y="272.772525"/>
     <use style="fill:#d62728;stroke:#ffffff;stroke-linejoin:miter;stroke-width:0.75;" x="322.089986" xlink:href="#m051fd2f182" y="272.772525"/>
     <use style="fill:#d62728;stroke:#ffffff;stroke-linejoin:miter;stroke-width:0.75;" x="325.657618" xlink:href="#m051fd2f182" y="272.772525"/>
     <use style="fill:#d62728;stroke:#ffffff;stroke-linejoin:miter;stroke-width:0.75;" x="329.22525" xlink:href="#m051fd2f182" y="272.772525"/>
     <use style="fill:#d62728;stroke:#ffffff;stroke-linejoin:miter;stroke-width:0.75;" x="332.792883" xlink:href="#m051fd2f182" y="272.772525"/>
     <use style="fill:#d62728;stroke:#ffffff;stroke-linejoin:miter;stroke-width:0.75;" x="336.360515" xlink:href="#m051fd2f182" y="272.772525"/>
     <use style="fill:#d62728;stroke:#ffffff;stroke-linejoin:miter;stroke-width:0.75;" x="339.928147" xlink:href="#m051fd2f182" y="272.772525"/>
     <use style="fill:#d62728;stroke:#ffffff;stroke-linejoin:miter;stroke-width:0.75;" x="343.49578" xlink:href="#m051fd2f182" y="272.772525"/>
     <use style="fill:#d62728;stroke:#ffffff;stroke-linejoin:miter;stroke-width:0.75;" x="347.063412" xlink:href="#m051fd2f182" y="272.772525"/>
     <use style="fill:#d62728;stroke:#ffffff;stroke-linejoin:miter;stroke-width:0.75;" x="350.631045" xlink:href="#m051fd2f182" y="272.772525"/>
     <use style="fill:#d62728;stroke:#ffffff;stroke-linejoin:miter;stroke-width:0.75;" x="354.198677" xlink:href="#m051fd2f182" y="272.772525"/>
     <use style="fill:#d62728;stroke:#ffffff;stroke-linejoin:miter;stroke-width:0.75;" x="357.766309" xlink:href="#m051fd2f182" y="272.772525"/>
     <use style="fill:#d62728;stroke:#ffffff;stroke-linejoin:miter;stroke-width:0.75;" x="361.333942" xlink:href="#m051fd2f182" y="272.772525"/>
     <use style="fill:#d62728;stroke:#ffffff;stroke-linejoin:miter;stroke-width:0.75;" x="364.901574" xlink:href="#m051fd2f182" y="272.772525"/>
     <use style="fill:#d62728;stroke:#ffffff;stroke-linejoin:miter;stroke-width:0.75;" x="368.469206" xlink:href="#m051fd2f182" y="272.772525"/>
     <use style="fill:#d62728;stroke:#ffffff;stroke-linejoin:miter;stroke-width:0.75;" x="372.036839" xlink:href="#m051fd2f182" y="272.772525"/>
     <use style="fill:#d62728;stroke:#ffffff;stroke-linejoin:miter;stroke-width:0.75;" x="375.604471" xlink:href="#m051fd2f182" y="272.772525"/>
     <use style="fill:#d62728;stroke:#ffffff;stroke-linejoin:miter;stroke-width:0.75;" x="379.172104" xlink:href="#m051fd2f182" y="272.772525"/>
     <use style="fill:#d62728;stroke:#ffffff;stroke-linejoin:miter;stroke-width:0.75;" x="382.739736" xlink:href="#m051fd2f182" y="272.772525"/>
     <use style="fill:#d62728;stroke:#ffffff;stroke-linejoin:miter;stroke-width:0.75;" x="386.307368" xlink:href="#m051fd2f182" y="272.772525"/>
     <use style="fill:#d62728;stroke:#ffffff;stroke-linejoin:miter;stroke-width:0.75;" x="389.875001" xlink:href="#m051fd2f182" y="272.615725"/>
     <use style="fill:#d62728;stroke:#ffffff;stroke-linejoin:miter;stroke-width:0.75;" x="393.442633" xlink:href="#m051fd2f182" y="272.615725"/>
     <use style="fill:#d62728;stroke:#ffffff;stroke-linejoin:miter;stroke-width:0.75;" x="397.010265" xlink:href="#m051fd2f182" y="272.279725"/>
     <use style="fill:#d62728;stroke:#ffffff;stroke-linejoin:miter;stroke-width:0.75;" x="400.577898" xlink:href="#m051fd2f182" y="272.279725"/>
    </g>
   </g>
   <g id="line2d_16"/>
   <g id="line2d_17"/>
   <g id="line2d_18"/>
   <g id="patch_3">
    <path d="M 59.690625 257.921325 
L 59.690625 33.921325 
" style="fill:none;stroke:#000000;stroke-linecap:square;stroke-linejoin:miter;stroke-width:0.8;"/>
   </g>
   <g id="patch_4">
    <path d="M 75.923352 288.430125 
L 349.441834 288.430125 
" style="fill:none;stroke:#000000;stroke-linecap:square;stroke-linejoin:miter;stroke-width:0.8;"/>
   </g>
   <g id="text_15">
    <!-- zstd_stream_decompress (23h, 20 trials/fuzzer) -->
    <g transform="translate(95.663438 16.318125)scale(0.12 -0.12)">
     <defs>
      <path d="M 353 3500 
L 3084 3500 
L 3084 2975 
L 922 459 
L 3084 459 
L 3084 0 
L 275 0 
L 275 525 
L 2438 3041 
L 353 3041 
L 353 3500 
z
" id="DejaVuSans-7a" transform="scale(0.015625)"/>
      <path d="M 2834 3397 
L 2834 2853 
Q 2591 2978 2328 3040 
Q 2066 3103 1784 3103 
Q 1356 3103 1142 2972 
Q 928 2841 928 2578 
Q 928 2378 1081 2264 
Q 1234 2150 1697 2047 
L 1894 2003 
Q 2506 1872 2764 1633 
Q 3022 1394 3022 966 
Q 3022 478 2636 193 
Q 2250 -91 1575 -91 
Q 1294 -91 989 -36 
Q 684 19 347 128 
L 347 722 
Q 666 556 975 473 
Q 1284 391 1588 391 
Q 1994 391 2212 530 
Q 2431 669 2431 922 
Q 2431 1156 2273 1281 
Q 2116 1406 1581 1522 
L 1381 1569 
Q 847 1681 609 1914 
Q 372 2147 372 2553 
Q 372 3047 722 3315 
Q 1072 3584 1716 3584 
Q 2034 3584 2315 3537 
Q 2597 3491 2834 3397 
z
" id="DejaVuSans-73" transform="scale(0.015625)"/>
      <path d="M 3263 -1063 
L 3263 -1509 
L -63 -1509 
L -63 -1063 
L 3263 -1063 
z
" id="DejaVuSans-5f" transform="scale(0.015625)"/>
      <path d="M 1159 525 
L 1159 -1331 
L 581 -1331 
L 581 3500 
L 1159 3500 
L 1159 2969 
Q 1341 3281 1617 3432 
Q 1894 3584 2278 3584 
Q 2916 3584 3314 3078 
Q 3713 2572 3713 1747 
Q 3713 922 3314 415 
Q 2916 -91 2278 -91 
Q 1894 -91 1617 61 
Q 1341 213 1159 525 
z
M 3116 1747 
Q 3116 2381 2855 2742 
Q 2594 3103 2138 3103 
Q 1681 3103 1420 2742 
Q 1159 2381 1159 1747 
Q 1159 1113 1420 752 
Q 1681 391 2138 391 
Q 2594 391 2855 752 
Q 3116 1113 3116 1747 
z
" id="DejaVuSans-70" transform="scale(0.015625)"/>
      <path d="M 750 794 
L 1409 794 
L 1409 256 
L 897 -744 
L 494 -744 
L 750 256 
L 750 794 
z
" id="DejaVuSans-2c" transform="scale(0.015625)"/>
      <path d="M 603 4863 
L 1178 4863 
L 1178 0 
L 603 0 
L 603 4863 
z
" id="DejaVuSans-6c" transform="scale(0.015625)"/>
      <path d="M 1625 4666 
L 2156 4666 
L 531 -594 
L 0 -594 
L 1625 4666 
z
" id="DejaVuSans-2f" transform="scale(0.015625)"/>
      <path d="M 2375 4863 
L 2375 4384 
L 1825 4384 
Q 1516 4384 1395 4259 
Q 1275 4134 1275 3809 
L 1275 3500 
L 2222 3500 
L 2222 3053 
L 1275 3053 
L 1275 0 
L 697 0 
L 697 3053 
L 147 3053 
L 147 3500 
L 697 3500 
L 697 3744 
Q 697 4328 969 4595 
Q 1241 4863 1831 4863 
L 2375 4863 
z
" id="DejaVuSans-66" transform="scale(0.015625)"/>
     </defs>
     <use xlink:href="#DejaVuSans-7a"/>
     <use x="52.490234" xlink:href="#DejaVuSans-73"/>
     <use x="104.589844" xlink:href="#DejaVuSans-74"/>
     <use x="143.798828" xlink:href="#DejaVuSans-64"/>
     <use x="207.275391" xlink:href="#DejaVuSans-5f"/>
     <use x="257.275391" xlink:href="#DejaVuSans-73"/>
     <use x="309.375" xlink:href="#DejaVuSans-74"/>
     <use x="348.583984" xlink:href="#DejaVuSans-72"/>
     <use x="387.447266" xlink:href="#DejaVuSans-65"/>
     <use x="448.970703" xlink:href="#DejaVuSans-61"/>
     <use x="510.25" xlink:href="#DejaVuSans-6d"/>
     <use x="607.662109" xlink:href="#DejaVuSans-5f"/>
     <use x="657.662109" xlink:href="#DejaVuSans-64"/>
     <use x="721.138672" xlink:href="#DejaVuSans-65"/>
     <use x="782.662109" xlink:href="#DejaVuSans-63"/>
     <use x="837.642578" xlink:href="#DejaVuSans-6f"/>
     <use x="898.824219" xlink:href="#DejaVuSans-6d"/>
     <use x="996.236328" xlink:href="#DejaVuSans-70"/>
     <use x="1059.712891" xlink:href="#DejaVuSans-72"/>
     <use x="1098.576172" xlink:href="#DejaVuSans-65"/>
     <use x="1160.099609" xlink:href="#DejaVuSans-73"/>
     <use x="1212.199219" xlink:href="#DejaVuSans-73"/>
     <use x="1264.298828" xlink:href="#DejaVuSans-20"/>
     <use x="1296.085938" xlink:href="#DejaVuSans-28"/>
     <use x="1335.099609" xlink:href="#DejaVuSans-32"/>
     <use x="1398.722656" xlink:href="#DejaVuSans-33"/>
     <use x="1462.345703" xlink:href="#DejaVuSans-68"/>
     <use x="1525.724609" xlink:href="#DejaVuSans-2c"/>
     <use x="1557.511719" xlink:href="#DejaVuSans-20"/>
     <use x="1589.298828" xlink:href="#DejaVuSans-32"/>
     <use x="1652.921875" xlink:href="#DejaVuSans-30"/>
     <use x="1716.544922" xlink:href="#DejaVuSans-20"/>
     <use x="1748.332031" xlink:href="#DejaVuSans-74"/>
     <use x="1787.541016" xlink:href="#DejaVuSans-72"/>
     <use x="1828.654297" xlink:href="#DejaVuSans-69"/>
     <use x="1856.4375" xlink:href="#DejaVuSans-61"/>
     <use x="1917.716797" xlink:href="#DejaVuSans-6c"/>
     <use x="1945.5" xlink:href="#DejaVuSans-73"/>
     <use x="1997.599609" xlink:href="#DejaVuSans-2f"/>
     <use x="2031.291016" xlink:href="#DejaVuSans-66"/>
     <use x="2066.496094" xlink:href="#DejaVuSans-75"/>
     <use x="2129.875" xlink:href="#DejaVuSans-7a"/>
     <use x="2182.365234" xlink:href="#DejaVuSans-7a"/>
     <use x="2234.855469" xlink:href="#DejaVuSans-65"/>
     <use x="2296.378906" xlink:href="#DejaVuSans-72"/>
     <use x="2337.492188" xlink:href="#DejaVuSans-29"/>
    </g>
   </g>
   <g id="legend_1">
    <g id="line2d_19">
     <path d="M 420.810625 30.416562 
L 440.810625 30.416562 
" style="fill:none;stroke:#1f77b4;stroke-linecap:square;stroke-width:1.5;"/>
    </g>
    <g id="line2d_20">
     <defs>
      <path d="M 0 3 
C 0.795609 3 1.55874 2.683901 2.12132 2.12132 
C 2.683901 1.55874 3 0.795609 3 0 
C 3 -0.795609 2.683901 -1.55874 2.12132 -2.12132 
C 1.55874 -2.683901 0.795609 -3 0 -3 
C -0.795609 -3 -1.55874 -2.683901 -2.12132 -2.12132 
C -2.683901 -1.55874 -3 -0.795609 -3 0 
C -3 0.795609 -2.683901 1.55874 -2.12132 2.12132 
C -1.55874 2.683901 -0.795609 3 0 3 
z
" id="mdc24e0c601" style="stroke:#1f77b4;"/>
     </defs>
     <g>
      <use style="fill:#1f77b4;stroke:#1f77b4;" x="430.810625" xlink:href="#mdc24e0c601" y="30.416562"/>
     </g>
    </g>
    <g id="text_16">
     <!-- afl -->
     <g transform="translate(448.810625 33.916562)scale(0.1 -0.1)">
      <use xlink:href="#DejaVuSans-61"/>
      <use x="61.279297" xlink:href="#DejaVuSans-66"/>
      <use x="96.484375" xlink:href="#DejaVuSans-6c"/>
     </g>
    </g>
    <g id="line2d_21">
     <path d="M 420.810625 45.094688 
L 440.810625 45.094688 
" style="fill:none;stroke:#98df8a;stroke-linecap:square;stroke-width:1.5;"/>
    </g>
    <g id="line2d_22">
     <defs>
      <path d="M -0 3 
L 3 -3 
L -3 -3 
z
" id="m823916e17f" style="stroke:#98df8a;stroke-linejoin:miter;"/>
     </defs>
     <g>
      <use style="fill:#98df8a;stroke:#98df8a;stroke-linejoin:miter;" x="430.810625" xlink:href="#m823916e17f" y="45.094688"/>
     </g>
    </g>
    <g id="text_17">
     <!-- afl_fitness -->
     <g transform="translate(448.810625 48.594688)scale(0.1 -0.1)">
      <use xlink:href="#DejaVuSans-61"/>
      <use x="61.279297" xlink:href="#DejaVuSans-66"/>
      <use x="96.484375" xlink:href="#DejaVuSans-6c"/>
      <use x="124.267578" xlink:href="#DejaVuSans-5f"/>
      <use x="174.267578" xlink:href="#DejaVuSans-66"/>
      <use x="209.472656" xlink:href="#DejaVuSans-69"/>
      <use x="237.255859" xlink:href="#DejaVuSans-74"/>
      <use x="276.464844" xlink:href="#DejaVuSans-6e"/>
      <use x="339.84375" xlink:href="#DejaVuSans-65"/>
      <use x="401.367188" xlink:href="#DejaVuSans-73"/>
      <use x="453.466797" xlink:href="#DejaVuSans-73"/>
     </g>
    </g>
    <g id="line2d_23">
     <path d="M 420.810625 60.050937 
L 440.810625 60.050937 
" style="fill:none;stroke:#d62728;stroke-linecap:square;stroke-width:1.5;"/>
    </g>
    <g id="line2d_24">
     <defs>
      <path d="M 0 -3 
L -3 3 
L 3 3 
z
" id="m82612116b3" style="stroke:#d62728;stroke-linejoin:miter;"/>
     </defs>
     <g>
      <use style="fill:#d62728;stroke:#d62728;stroke-linejoin:miter;" x="430.810625" xlink:href="#m82612116b3" y="60.050937"/>
     </g>
    </g>
    <g id="text_18">
     <!-- afl_fitness_only -->
     <g transform="translate(448.810625 63.550937)scale(0.1 -0.1)">
      <defs>
       <path d="M 2059 -325 
Q 1816 -950 1584 -1140 
Q 1353 -1331 966 -1331 
L 506 -1331 
L 506 -850 
L 844 -850 
Q 1081 -850 1212 -737 
Q 1344 -625 1503 -206 
L 1606 56 
L 191 3500 
L 800 3500 
L 1894 763 
L 2988 3500 
L 3597 3500 
L 2059 -325 
z
" id="DejaVuSans-79" transform="scale(0.015625)"/>
      </defs>
      <use xlink:href="#DejaVuSans-61"/>
      <use x="61.279297" xlink:href="#DejaVuSans-66"/>
      <use x="96.484375" xlink:href="#DejaVuSans-6c"/>
      <use x="124.267578" xlink:href="#DejaVuSans-5f"/>
      <use x="174.267578" xlink:href="#DejaVuSans-66"/>
      <use x="209.472656" xlink:href="#DejaVuSans-69"/>
      <use x="237.255859" xlink:href="#DejaVuSans-74"/>
      <use x="276.464844" xlink:href="#DejaVuSans-6e"/>
      <use x="339.84375" xlink:href="#DejaVuSans-65"/>
      <use x="401.367188" xlink:href="#DejaVuSans-73"/>
      <use x="453.466797" xlink:href="#DejaVuSans-73"/>
      <use x="505.566406" xlink:href="#DejaVuSans-5f"/>
      <use x="555.566406" xlink:href="#DejaVuSans-6f"/>
      <use x="616.748047" xlink:href="#DejaVuSans-6e"/>
      <use x="680.126953" xlink:href="#DejaVuSans-6c"/>
      <use x="707.910156" xlink:href="#DejaVuSans-79"/>
     </g>
    </g>
   </g>
  </g>
 </g>
 <defs>
  <clipPath id="pf6219498c9">
   <rect height="266.112" width="357.12" x="59.690625" y="22.318125"/>
  </clipPath>
 </defs>
</svg>
