<?xml version="1.0" encoding="utf-8" standalone="no"?>
<!DOCTYPE svg PUBLIC "-//W3C//DTD SVG 1.1//EN"
  "http://www.w3.org/Graphics/SVG/1.1/DTD/svg11.dtd">
<svg height="325.986375pt" version="1.1" viewBox="0 0 549.127812 325.986375" width="549.127812pt" xmlns="http://www.w3.org/2000/svg" xmlns:xlink="http://www.w3.org/1999/xlink">
 <metadata>
  <rdf:RDF xmlns:cc="http://creativecommons.org/ns#" xmlns:dc="http://purl.org/dc/elements/1.1/" xmlns:rdf="http://www.w3.org/1999/02/22-rdf-syntax-ns#">
   <cc:Work>
    <dc:type rdf:resource="http://purl.org/dc/dcmitype/StillImage"/>
    <dc:date>2022-06-03T13:49:32.222801</dc:date>
    <dc:format>image/svg+xml</dc:format>
    <dc:creator>
     <cc:Agent>
      <dc:title>Matplotlib v3.4.3, https://matplotlib.org/</dc:title>
     </cc:Agent>
    </dc:creator>
   </cc:Work>
  </rdf:RDF>
 </metadata>
 <defs>
  <style type="text/css">*{stroke-linecap:butt;stroke-linejoin:round;}</style>
 </defs>
 <g id="figure_1">
  <g id="patch_1">
   <path d="M 0 325.986375 
L 549.127812 325.986375 
L 549.127812 0 
L 0 0 
z
" style="fill:#ffffff;"/>
  </g>
  <g id="axes_1">
   <g id="patch_2">
    <path d="M 53.328125 288.430125 
L 410.448125 288.430125 
L 410.448125 22.318125 
L 53.328125 22.318125 
z
" style="fill:#ffffff;"/>
   </g>
   <g id="PolyCollection_1">
    <defs>
     <path d="M 69.560852 -206.573331 
L 69.560852 -70.720358 
L 73.128485 -101.959277 
L 76.696117 -205.120358 
L 80.263749 -254.521439 
L 83.831382 -256.700899 
L 87.399014 -256.700899 
L 90.966646 -257.427385 
L 94.534279 -258.153872 
L 98.101911 -258.153872 
L 101.669544 -258.153872 
L 105.237176 -258.517115 
L 108.804808 -258.153872 
L 112.372441 -258.153872 
L 115.940073 -258.880358 
L 119.507705 -259.970088 
L 123.075338 -272.665439 
L 126.64297 -259.606845 
L 130.210603 -259.606845 
L 133.778235 -259.606845 
L 137.345867 -273.410088 
L 140.9135 -272.683601 
L 144.481132 -285.033872 
L 148.048764 -285.033872 
L 151.616397 -286.123601 
L 155.184029 -285.033872 
L 158.751661 -285.760358 
L 162.319294 -285.760358 
L 165.886926 -287.213331 
L 169.454559 -286.486845 
L 173.022191 -287.213331 
L 176.589823 -287.213331 
L 180.157456 -286.486845 
L 183.725088 -285.760358 
L 187.29272 -285.760358 
L 190.860353 -286.486845 
L 194.427985 -286.486845 
L 197.995618 -286.486845 
L 201.56325 -287.213331 
L 205.130882 -287.213331 
L 208.698515 -287.213331 
L 212.266147 -287.213331 
L 215.833779 -287.213331 
L 219.401412 -287.213331 
L 222.969044 -287.213331 
L 226.536676 -287.213331 
L 230.104309 -287.213331 
L 233.671941 -287.213331 
L 237.239574 -287.213331 
L 240.807206 -287.213331 
L 244.374838 -287.213331 
L 247.942471 -287.213331 
L 251.510103 -287.213331 
L 255.077735 -287.213331 
L 258.645368 -287.213331 
L 262.213 -287.213331 
L 265.780632 -287.213331 
L 269.348265 -287.213331 
L 272.915897 -287.213331 
L 276.48353 -287.213331 
L 280.051162 -287.213331 
L 283.618794 -287.213331 
L 287.186427 -287.213331 
L 290.754059 -287.213331 
L 294.321691 -287.213331 
L 297.889324 -287.213331 
L 301.456956 -287.213331 
L 305.024589 -287.213331 
L 308.592221 -287.213331 
L 312.159853 -287.213331 
L 315.727486 -287.213331 
L 319.295118 -287.213331 
L 322.86275 -287.213331 
L 326.430383 -287.213331 
L 329.998015 -287.213331 
L 333.565647 -287.213331 
L 337.13328 -287.213331 
L 340.700912 -287.213331 
L 344.268545 -287.213331 
L 347.836177 -287.213331 
L 351.403809 -287.213331 
L 354.971442 -287.213331 
L 358.539074 -287.213331 
L 362.106706 -287.213331 
L 365.674339 -287.213331 
L 369.241971 -287.213331 
L 372.809604 -287.213331 
L 376.377236 -287.213331 
L 379.944868 -287.213331 
L 383.512501 -287.213331 
L 387.080133 -287.213331 
L 390.647765 -287.213331 
L 394.215398 -287.213331 
L 394.215398 -290.48252 
L 394.215398 -290.48252 
L 390.647765 -290.48252 
L 387.080133 -290.48252 
L 383.512501 -290.845764 
L 379.944868 -290.845764 
L 376.377236 -290.845764 
L 372.809604 -290.845764 
L 369.241971 -290.119277 
L 365.674339 -290.119277 
L 362.106706 -290.119277 
L 358.539074 -290.119277 
L 354.971442 -289.756034 
L 351.403809 -289.392791 
L 347.836177 -289.392791 
L 344.268545 -289.392791 
L 340.700912 -289.392791 
L 337.13328 -289.392791 
L 333.565647 -289.029547 
L 329.998015 -289.029547 
L 326.430383 -289.029547 
L 322.86275 -289.392791 
L 319.295118 -288.666304 
L 315.727486 -289.392791 
L 312.159853 -289.392791 
L 308.592221 -289.392791 
L 305.024589 -289.029547 
L 301.456956 -288.666304 
L 297.889324 -288.666304 
L 294.321691 -289.029547 
L 290.754059 -288.666304 
L 287.186427 -288.666304 
L 283.618794 -288.666304 
L 280.051162 -288.666304 
L 276.48353 -288.666304 
L 272.915897 -288.666304 
L 269.348265 -288.666304 
L 265.780632 -288.666304 
L 262.213 -288.666304 
L 258.645368 -288.666304 
L 255.077735 -288.666304 
L 251.510103 -289.029547 
L 247.942471 -288.666304 
L 244.374838 -288.666304 
L 240.807206 -288.666304 
L 237.239574 -287.939818 
L 233.671941 -287.939818 
L 230.104309 -287.939818 
L 226.536676 -287.939818 
L 222.969044 -287.939818 
L 219.401412 -287.939818 
L 215.833779 -287.939818 
L 212.266147 -287.939818 
L 208.698515 -287.939818 
L 205.130882 -287.939818 
L 201.56325 -287.939818 
L 197.995618 -287.939818 
L 194.427985 -287.939818 
L 190.860353 -287.939818 
L 187.29272 -287.939818 
L 183.725088 -287.939818 
L 180.157456 -287.939818 
L 176.589823 -287.939818 
L 173.022191 -287.939818 
L 169.454559 -287.939818 
L 165.886926 -287.939818 
L 162.319294 -287.939818 
L 158.751661 -287.939818 
L 155.184029 -287.939818 
L 151.616397 -287.939818 
L 148.048764 -287.939818 
L 144.481132 -287.939818 
L 140.9135 -287.939818 
L 137.345867 -287.576574 
L 133.778235 -287.939818 
L 130.210603 -287.213331 
L 126.64297 -287.213331 
L 123.075338 -287.213331 
L 119.507705 -287.213331 
L 115.940073 -287.213331 
L 112.372441 -286.486845 
L 108.804808 -286.486845 
L 105.237176 -286.123601 
L 101.669544 -285.760358 
L 98.101911 -285.033872 
L 94.534279 -282.491169 
L 90.966646 -259.606845 
L 87.399014 -258.880358 
L 83.831382 -257.790628 
L 80.263749 -256.700899 
L 76.696117 -255.974412 
L 73.128485 -247.983061 
L 69.560852 -206.573331 
z
" id="md40814efef" style="stroke:#98df8a;stroke-opacity:0.2;"/>
    </defs>
    <g clip-path="url(#pcc2b104bfa)">
     <use style="fill:#98df8a;fill-opacity:0.2;stroke:#98df8a;stroke-opacity:0.2;" x="0" xlink:href="#md40814efef" y="325.986375"/>
    </g>
   </g>
   <g id="PolyCollection_2">
    <defs>
     <path d="M 69.560852 -160.078196 
L 69.560852 -49.65225 
L 73.128485 -88.156034 
L 76.696117 -165.890088 
L 80.263749 -213.838196 
L 83.831382 -255.247926 
L 87.399014 -256.700899 
L 90.966646 -256.700899 
L 94.534279 -257.427385 
L 98.101911 -257.427385 
L 101.669544 -257.427385 
L 105.237176 -257.427385 
L 108.804808 -257.427385 
L 112.372441 -258.153872 
L 115.940073 -258.153872 
L 119.507705 -258.153872 
L 123.075338 -258.153872 
L 126.64297 -258.153872 
L 130.210603 -258.153872 
L 133.778235 -258.880358 
L 137.345867 -258.880358 
L 140.9135 -258.880358 
L 144.481132 -258.880358 
L 148.048764 -258.880358 
L 151.616397 -258.880358 
L 155.184029 -258.880358 
L 158.751661 -258.880358 
L 162.319294 -259.606845 
L 165.886926 -259.606845 
L 169.454559 -259.606845 
L 173.022191 -259.606845 
L 176.589823 -259.606845 
L 180.157456 -259.606845 
L 183.725088 -259.606845 
L 187.29272 -259.606845 
L 190.860353 -259.606845 
L 194.427985 -259.606845 
L 197.995618 -259.606845 
L 201.56325 -259.606845 
L 205.130882 -259.606845 
L 208.698515 -260.333331 
L 212.266147 -260.333331 
L 215.833779 -260.333331 
L 219.401412 -261.059818 
L 222.969044 -261.059818 
L 226.536676 -261.059818 
L 230.104309 -261.059818 
L 233.671941 -261.059818 
L 237.239574 -261.059818 
L 240.807206 -261.059818 
L 244.374838 -261.059818 
L 247.942471 -261.768142 
L 251.510103 -261.786304 
L 255.077735 -261.059818 
L 258.645368 -261.059818 
L 262.213 -261.059818 
L 265.780632 -261.059818 
L 269.348265 -261.059818 
L 272.915897 -261.059818 
L 276.48353 -261.059818 
L 280.051162 -261.059818 
L 283.618794 -261.059818 
L 287.186427 -261.059818 
L 290.754059 -261.059818 
L 294.321691 -261.059818 
L 297.889324 -261.059818 
L 301.456956 -261.786304 
L 305.024589 -261.786304 
L 308.592221 -261.786304 
L 312.159853 -261.786304 
L 315.727486 -261.786304 
L 319.295118 -261.786304 
L 322.86275 -261.786304 
L 326.430383 -261.786304 
L 329.998015 -261.786304 
L 333.565647 -261.786304 
L 337.13328 -261.786304 
L 340.700912 -261.786304 
L 344.268545 -261.786304 
L 347.836177 -261.786304 
L 351.403809 -261.786304 
L 354.971442 -261.786304 
L 358.539074 -261.786304 
L 362.106706 -261.786304 
L 365.674339 -261.786304 
L 369.241971 -261.786304 
L 372.809604 -261.786304 
L 376.377236 -261.786304 
L 379.944868 -261.786304 
L 383.512501 -263.965764 
L 387.080133 -263.965764 
L 390.647765 -263.965764 
L 394.215398 -263.965764 
L 394.215398 -291.57225 
L 394.215398 -291.57225 
L 390.647765 -291.57225 
L 387.080133 -291.57225 
L 383.512501 -291.209007 
L 379.944868 -290.845764 
L 376.377236 -290.845764 
L 372.809604 -290.845764 
L 369.241971 -290.845764 
L 365.674339 -290.845764 
L 362.106706 -290.845764 
L 358.539074 -290.845764 
L 354.971442 -290.845764 
L 351.403809 -290.845764 
L 347.836177 -290.845764 
L 344.268545 -290.845764 
L 340.700912 -290.845764 
L 337.13328 -290.845764 
L 333.565647 -290.119277 
L 329.998015 -290.119277 
L 326.430383 -290.119277 
L 322.86275 -290.119277 
L 319.295118 -289.392791 
L 315.727486 -290.119277 
L 312.159853 -289.392791 
L 308.592221 -289.392791 
L 305.024589 -289.392791 
L 301.456956 -289.392791 
L 297.889324 -289.392791 
L 294.321691 -289.392791 
L 290.754059 -288.666304 
L 287.186427 -288.666304 
L 283.618794 -288.666304 
L 280.051162 -288.666304 
L 276.48353 -288.666304 
L 272.915897 -288.666304 
L 269.348265 -288.666304 
L 265.780632 -288.666304 
L 262.213 -288.666304 
L 258.645368 -288.666304 
L 255.077735 -288.666304 
L 251.510103 -288.666304 
L 247.942471 -288.666304 
L 244.374838 -288.666304 
L 240.807206 -288.666304 
L 237.239574 -288.666304 
L 233.671941 -288.666304 
L 230.104309 -288.666304 
L 226.536676 -288.666304 
L 222.969044 -288.666304 
L 219.401412 -288.666304 
L 215.833779 -288.666304 
L 212.266147 -288.666304 
L 208.698515 -288.666304 
L 205.130882 -288.666304 
L 201.56325 -288.666304 
L 197.995618 -288.666304 
L 194.427985 -288.666304 
L 190.860353 -288.666304 
L 187.29272 -288.666304 
L 183.725088 -288.666304 
L 180.157456 -288.666304 
L 176.589823 -288.666304 
L 173.022191 -288.666304 
L 169.454559 -288.666304 
L 165.886926 -288.666304 
L 162.319294 -288.666304 
L 158.751661 -288.666304 
L 155.184029 -287.939818 
L 151.616397 -286.486845 
L 148.048764 -286.486845 
L 144.481132 -286.486845 
L 140.9135 -286.486845 
L 137.345867 -286.486845 
L 133.778235 -286.486845 
L 130.210603 -285.760358 
L 126.64297 -285.760358 
L 123.075338 -285.760358 
L 119.507705 -285.033872 
L 115.940073 -284.307385 
L 112.372441 -280.674953 
L 108.804808 -274.136574 
L 105.237176 -274.136574 
L 101.669544 -261.786304 
L 98.101911 -261.786304 
L 94.534279 -261.786304 
L 90.966646 -258.880358 
L 87.399014 -260.333331 
L 83.831382 -260.333331 
L 80.263749 -258.880358 
L 76.696117 -256.700899 
L 73.128485 -189.864142 
L 69.560852 -160.078196 
z
" id="m818d69cc4b" style="stroke:#1f77b4;stroke-opacity:0.2;"/>
    </defs>
    <g clip-path="url(#pcc2b104bfa)">
     <use style="fill:#1f77b4;fill-opacity:0.2;stroke:#1f77b4;stroke-opacity:0.2;" x="0" xlink:href="#m818d69cc4b" y="325.986375"/>
    </g>
   </g>
   <g id="matplotlib.axis_1">
    <g id="xtick_1">
     <g id="line2d_1">
      <defs>
       <path d="M 0 0 
L 0 3.5 
" id="mfe9b933980" style="stroke:#000000;stroke-width:0.8;"/>
      </defs>
      <g>
       <use style="stroke:#000000;stroke-width:0.8;" x="69.560852" xlink:href="#mfe9b933980" y="288.430125"/>
      </g>
     </g>
     <g id="text_1">
      <!-- 15m -->
      <g transform="translate(58.32804 303.028562)scale(0.1 -0.1)">
       <defs>
        <path d="M 794 531 
L 1825 531 
L 1825 4091 
L 703 3866 
L 703 4441 
L 1819 4666 
L 2450 4666 
L 2450 531 
L 3481 531 
L 3481 0 
L 794 0 
L 794 531 
z
" id="DejaVuSans-31" transform="scale(0.015625)"/>
        <path d="M 691 4666 
L 3169 4666 
L 3169 4134 
L 1269 4134 
L 1269 2991 
Q 1406 3038 1543 3061 
Q 1681 3084 1819 3084 
Q 2600 3084 3056 2656 
Q 3513 2228 3513 1497 
Q 3513 744 3044 326 
Q 2575 -91 1722 -91 
Q 1428 -91 1123 -41 
Q 819 9 494 109 
L 494 744 
Q 775 591 1075 516 
Q 1375 441 1709 441 
Q 2250 441 2565 725 
Q 2881 1009 2881 1497 
Q 2881 1984 2565 2268 
Q 2250 2553 1709 2553 
Q 1456 2553 1204 2497 
Q 953 2441 691 2322 
L 691 4666 
z
" id="DejaVuSans-35" transform="scale(0.015625)"/>
        <path d="M 3328 2828 
Q 3544 3216 3844 3400 
Q 4144 3584 4550 3584 
Q 5097 3584 5394 3201 
Q 5691 2819 5691 2113 
L 5691 0 
L 5113 0 
L 5113 2094 
Q 5113 2597 4934 2840 
Q 4756 3084 4391 3084 
Q 3944 3084 3684 2787 
Q 3425 2491 3425 1978 
L 3425 0 
L 2847 0 
L 2847 2094 
Q 2847 2600 2669 2842 
Q 2491 3084 2119 3084 
Q 1678 3084 1418 2786 
Q 1159 2488 1159 1978 
L 1159 0 
L 581 0 
L 581 3500 
L 1159 3500 
L 1159 2956 
Q 1356 3278 1631 3431 
Q 1906 3584 2284 3584 
Q 2666 3584 2933 3390 
Q 3200 3197 3328 2828 
z
" id="DejaVuSans-6d" transform="scale(0.015625)"/>
       </defs>
       <use xlink:href="#DejaVuSans-31"/>
       <use x="63.623047" xlink:href="#DejaVuSans-35"/>
       <use x="127.246094" xlink:href="#DejaVuSans-6d"/>
      </g>
     </g>
    </g>
    <g id="xtick_2">
     <g id="line2d_2">
      <g>
       <use style="stroke:#000000;stroke-width:0.8;" x="124.264549" xlink:href="#mfe9b933980" y="288.430125"/>
      </g>
     </g>
     <g id="text_2">
      <!-- 4h:5m -->
      <g transform="translate(108.178611 303.028562)scale(0.1 -0.1)">
       <defs>
        <path d="M 2419 4116 
L 825 1625 
L 2419 1625 
L 2419 4116 
z
M 2253 4666 
L 3047 4666 
L 3047 1625 
L 3713 1625 
L 3713 1100 
L 3047 1100 
L 3047 0 
L 2419 0 
L 2419 1100 
L 313 1100 
L 313 1709 
L 2253 4666 
z
" id="DejaVuSans-34" transform="scale(0.015625)"/>
        <path d="M 3513 2113 
L 3513 0 
L 2938 0 
L 2938 2094 
Q 2938 2591 2744 2837 
Q 2550 3084 2163 3084 
Q 1697 3084 1428 2787 
Q 1159 2491 1159 1978 
L 1159 0 
L 581 0 
L 581 4863 
L 1159 4863 
L 1159 2956 
Q 1366 3272 1645 3428 
Q 1925 3584 2291 3584 
Q 2894 3584 3203 3211 
Q 3513 2838 3513 2113 
z
" id="DejaVuSans-68" transform="scale(0.015625)"/>
        <path d="M 750 794 
L 1409 794 
L 1409 0 
L 750 0 
L 750 794 
z
M 750 3309 
L 1409 3309 
L 1409 2516 
L 750 2516 
L 750 3309 
z
" id="DejaVuSans-3a" transform="scale(0.015625)"/>
       </defs>
       <use xlink:href="#DejaVuSans-34"/>
       <use x="63.623047" xlink:href="#DejaVuSans-68"/>
       <use x="127.001953" xlink:href="#DejaVuSans-3a"/>
       <use x="160.693359" xlink:href="#DejaVuSans-35"/>
       <use x="224.316406" xlink:href="#DejaVuSans-6d"/>
      </g>
     </g>
    </g>
    <g id="xtick_3">
     <g id="line2d_3">
      <g>
       <use style="stroke:#000000;stroke-width:0.8;" x="178.968245" xlink:href="#mfe9b933980" y="288.430125"/>
      </g>
     </g>
     <g id="text_3">
      <!-- 7h:55m -->
      <g transform="translate(159.701057 303.028562)scale(0.1 -0.1)">
       <defs>
        <path d="M 525 4666 
L 3525 4666 
L 3525 4397 
L 1831 0 
L 1172 0 
L 2766 4134 
L 525 4134 
L 525 4666 
z
" id="DejaVuSans-37" transform="scale(0.015625)"/>
       </defs>
       <use xlink:href="#DejaVuSans-37"/>
       <use x="63.623047" xlink:href="#DejaVuSans-68"/>
       <use x="127.001953" xlink:href="#DejaVuSans-3a"/>
       <use x="160.693359" xlink:href="#DejaVuSans-35"/>
       <use x="224.316406" xlink:href="#DejaVuSans-35"/>
       <use x="287.939453" xlink:href="#DejaVuSans-6d"/>
      </g>
     </g>
    </g>
    <g id="xtick_4">
     <g id="line2d_4">
      <g>
       <use style="stroke:#000000;stroke-width:0.8;" x="233.671941" xlink:href="#mfe9b933980" y="288.430125"/>
      </g>
     </g>
     <g id="text_4">
      <!-- 11h:45m -->
      <g transform="translate(211.223504 303.028562)scale(0.1 -0.1)">
       <use xlink:href="#DejaVuSans-31"/>
       <use x="63.623047" xlink:href="#DejaVuSans-31"/>
       <use x="127.246094" xlink:href="#DejaVuSans-68"/>
       <use x="190.625" xlink:href="#DejaVuSans-3a"/>
       <use x="224.316406" xlink:href="#DejaVuSans-34"/>
       <use x="287.939453" xlink:href="#DejaVuSans-35"/>
       <use x="351.5625" xlink:href="#DejaVuSans-6d"/>
      </g>
     </g>
    </g>
    <g id="xtick_5">
     <g id="line2d_5">
      <g>
       <use style="stroke:#000000;stroke-width:0.8;" x="288.375637" xlink:href="#mfe9b933980" y="288.430125"/>
      </g>
     </g>
     <g id="text_5">
      <!-- 15h:35m -->
      <g transform="translate(265.9272 303.028562)scale(0.1 -0.1)">
       <defs>
        <path d="M 2597 2516 
Q 3050 2419 3304 2112 
Q 3559 1806 3559 1356 
Q 3559 666 3084 287 
Q 2609 -91 1734 -91 
Q 1441 -91 1130 -33 
Q 819 25 488 141 
L 488 750 
Q 750 597 1062 519 
Q 1375 441 1716 441 
Q 2309 441 2620 675 
Q 2931 909 2931 1356 
Q 2931 1769 2642 2001 
Q 2353 2234 1838 2234 
L 1294 2234 
L 1294 2753 
L 1863 2753 
Q 2328 2753 2575 2939 
Q 2822 3125 2822 3475 
Q 2822 3834 2567 4026 
Q 2313 4219 1838 4219 
Q 1578 4219 1281 4162 
Q 984 4106 628 3988 
L 628 4550 
Q 988 4650 1302 4700 
Q 1616 4750 1894 4750 
Q 2613 4750 3031 4423 
Q 3450 4097 3450 3541 
Q 3450 3153 3228 2886 
Q 3006 2619 2597 2516 
z
" id="DejaVuSans-33" transform="scale(0.015625)"/>
       </defs>
       <use xlink:href="#DejaVuSans-31"/>
       <use x="63.623047" xlink:href="#DejaVuSans-35"/>
       <use x="127.246094" xlink:href="#DejaVuSans-68"/>
       <use x="190.625" xlink:href="#DejaVuSans-3a"/>
       <use x="224.316406" xlink:href="#DejaVuSans-33"/>
       <use x="287.939453" xlink:href="#DejaVuSans-35"/>
       <use x="351.5625" xlink:href="#DejaVuSans-6d"/>
      </g>
     </g>
    </g>
    <g id="xtick_6">
     <g id="line2d_6">
      <g>
       <use style="stroke:#000000;stroke-width:0.8;" x="343.079334" xlink:href="#mfe9b933980" y="288.430125"/>
      </g>
     </g>
     <g id="text_6">
      <!-- 19h:25m -->
      <g transform="translate(320.630896 303.028562)scale(0.1 -0.1)">
       <defs>
        <path d="M 703 97 
L 703 672 
Q 941 559 1184 500 
Q 1428 441 1663 441 
Q 2288 441 2617 861 
Q 2947 1281 2994 2138 
Q 2813 1869 2534 1725 
Q 2256 1581 1919 1581 
Q 1219 1581 811 2004 
Q 403 2428 403 3163 
Q 403 3881 828 4315 
Q 1253 4750 1959 4750 
Q 2769 4750 3195 4129 
Q 3622 3509 3622 2328 
Q 3622 1225 3098 567 
Q 2575 -91 1691 -91 
Q 1453 -91 1209 -44 
Q 966 3 703 97 
z
M 1959 2075 
Q 2384 2075 2632 2365 
Q 2881 2656 2881 3163 
Q 2881 3666 2632 3958 
Q 2384 4250 1959 4250 
Q 1534 4250 1286 3958 
Q 1038 3666 1038 3163 
Q 1038 2656 1286 2365 
Q 1534 2075 1959 2075 
z
" id="DejaVuSans-39" transform="scale(0.015625)"/>
        <path d="M 1228 531 
L 3431 531 
L 3431 0 
L 469 0 
L 469 531 
Q 828 903 1448 1529 
Q 2069 2156 2228 2338 
Q 2531 2678 2651 2914 
Q 2772 3150 2772 3378 
Q 2772 3750 2511 3984 
Q 2250 4219 1831 4219 
Q 1534 4219 1204 4116 
Q 875 4013 500 3803 
L 500 4441 
Q 881 4594 1212 4672 
Q 1544 4750 1819 4750 
Q 2544 4750 2975 4387 
Q 3406 4025 3406 3419 
Q 3406 3131 3298 2873 
Q 3191 2616 2906 2266 
Q 2828 2175 2409 1742 
Q 1991 1309 1228 531 
z
" id="DejaVuSans-32" transform="scale(0.015625)"/>
       </defs>
       <use xlink:href="#DejaVuSans-31"/>
       <use x="63.623047" xlink:href="#DejaVuSans-39"/>
       <use x="127.246094" xlink:href="#DejaVuSans-68"/>
       <use x="190.625" xlink:href="#DejaVuSans-3a"/>
       <use x="224.316406" xlink:href="#DejaVuSans-32"/>
       <use x="287.939453" xlink:href="#DejaVuSans-35"/>
       <use x="351.5625" xlink:href="#DejaVuSans-6d"/>
      </g>
     </g>
    </g>
    <g id="text_7">
     <!-- Time (hour:minute) -->
     <g transform="translate(183.481094 316.706687)scale(0.1 -0.1)">
      <defs>
       <path d="M -19 4666 
L 3928 4666 
L 3928 4134 
L 2272 4134 
L 2272 0 
L 1638 0 
L 1638 4134 
L -19 4134 
L -19 4666 
z
" id="DejaVuSans-54" transform="scale(0.015625)"/>
       <path d="M 603 3500 
L 1178 3500 
L 1178 0 
L 603 0 
L 603 3500 
z
M 603 4863 
L 1178 4863 
L 1178 4134 
L 603 4134 
L 603 4863 
z
" id="DejaVuSans-69" transform="scale(0.015625)"/>
       <path d="M 3597 1894 
L 3597 1613 
L 953 1613 
Q 991 1019 1311 708 
Q 1631 397 2203 397 
Q 2534 397 2845 478 
Q 3156 559 3463 722 
L 3463 178 
Q 3153 47 2828 -22 
Q 2503 -91 2169 -91 
Q 1331 -91 842 396 
Q 353 884 353 1716 
Q 353 2575 817 3079 
Q 1281 3584 2069 3584 
Q 2775 3584 3186 3129 
Q 3597 2675 3597 1894 
z
M 3022 2063 
Q 3016 2534 2758 2815 
Q 2500 3097 2075 3097 
Q 1594 3097 1305 2825 
Q 1016 2553 972 2059 
L 3022 2063 
z
" id="DejaVuSans-65" transform="scale(0.015625)"/>
       <path id="DejaVuSans-20" transform="scale(0.015625)"/>
       <path d="M 1984 4856 
Q 1566 4138 1362 3434 
Q 1159 2731 1159 2009 
Q 1159 1288 1364 580 
Q 1569 -128 1984 -844 
L 1484 -844 
Q 1016 -109 783 600 
Q 550 1309 550 2009 
Q 550 2706 781 3412 
Q 1013 4119 1484 4856 
L 1984 4856 
z
" id="DejaVuSans-28" transform="scale(0.015625)"/>
       <path d="M 1959 3097 
Q 1497 3097 1228 2736 
Q 959 2375 959 1747 
Q 959 1119 1226 758 
Q 1494 397 1959 397 
Q 2419 397 2687 759 
Q 2956 1122 2956 1747 
Q 2956 2369 2687 2733 
Q 2419 3097 1959 3097 
z
M 1959 3584 
Q 2709 3584 3137 3096 
Q 3566 2609 3566 1747 
Q 3566 888 3137 398 
Q 2709 -91 1959 -91 
Q 1206 -91 779 398 
Q 353 888 353 1747 
Q 353 2609 779 3096 
Q 1206 3584 1959 3584 
z
" id="DejaVuSans-6f" transform="scale(0.015625)"/>
       <path d="M 544 1381 
L 544 3500 
L 1119 3500 
L 1119 1403 
Q 1119 906 1312 657 
Q 1506 409 1894 409 
Q 2359 409 2629 706 
Q 2900 1003 2900 1516 
L 2900 3500 
L 3475 3500 
L 3475 0 
L 2900 0 
L 2900 538 
Q 2691 219 2414 64 
Q 2138 -91 1772 -91 
Q 1169 -91 856 284 
Q 544 659 544 1381 
z
M 1991 3584 
L 1991 3584 
z
" id="DejaVuSans-75" transform="scale(0.015625)"/>
       <path d="M 2631 2963 
Q 2534 3019 2420 3045 
Q 2306 3072 2169 3072 
Q 1681 3072 1420 2755 
Q 1159 2438 1159 1844 
L 1159 0 
L 581 0 
L 581 3500 
L 1159 3500 
L 1159 2956 
Q 1341 3275 1631 3429 
Q 1922 3584 2338 3584 
Q 2397 3584 2469 3576 
Q 2541 3569 2628 3553 
L 2631 2963 
z
" id="DejaVuSans-72" transform="scale(0.015625)"/>
       <path d="M 3513 2113 
L 3513 0 
L 2938 0 
L 2938 2094 
Q 2938 2591 2744 2837 
Q 2550 3084 2163 3084 
Q 1697 3084 1428 2787 
Q 1159 2491 1159 1978 
L 1159 0 
L 581 0 
L 581 3500 
L 1159 3500 
L 1159 2956 
Q 1366 3272 1645 3428 
Q 1925 3584 2291 3584 
Q 2894 3584 3203 3211 
Q 3513 2838 3513 2113 
z
" id="DejaVuSans-6e" transform="scale(0.015625)"/>
       <path d="M 1172 4494 
L 1172 3500 
L 2356 3500 
L 2356 3053 
L 1172 3053 
L 1172 1153 
Q 1172 725 1289 603 
Q 1406 481 1766 481 
L 2356 481 
L 2356 0 
L 1766 0 
Q 1100 0 847 248 
Q 594 497 594 1153 
L 594 3053 
L 172 3053 
L 172 3500 
L 594 3500 
L 594 4494 
L 1172 4494 
z
" id="DejaVuSans-74" transform="scale(0.015625)"/>
       <path d="M 513 4856 
L 1013 4856 
Q 1481 4119 1714 3412 
Q 1947 2706 1947 2009 
Q 1947 1309 1714 600 
Q 1481 -109 1013 -844 
L 513 -844 
Q 928 -128 1133 580 
Q 1338 1288 1338 2009 
Q 1338 2731 1133 3434 
Q 928 4138 513 4856 
z
" id="DejaVuSans-29" transform="scale(0.015625)"/>
      </defs>
      <use xlink:href="#DejaVuSans-54"/>
      <use x="57.958984" xlink:href="#DejaVuSans-69"/>
      <use x="85.742188" xlink:href="#DejaVuSans-6d"/>
      <use x="183.154297" xlink:href="#DejaVuSans-65"/>
      <use x="244.677734" xlink:href="#DejaVuSans-20"/>
      <use x="276.464844" xlink:href="#DejaVuSans-28"/>
      <use x="315.478516" xlink:href="#DejaVuSans-68"/>
      <use x="378.857422" xlink:href="#DejaVuSans-6f"/>
      <use x="440.039062" xlink:href="#DejaVuSans-75"/>
      <use x="503.417969" xlink:href="#DejaVuSans-72"/>
      <use x="542.78125" xlink:href="#DejaVuSans-3a"/>
      <use x="576.472656" xlink:href="#DejaVuSans-6d"/>
      <use x="673.884766" xlink:href="#DejaVuSans-69"/>
      <use x="701.667969" xlink:href="#DejaVuSans-6e"/>
      <use x="765.046875" xlink:href="#DejaVuSans-75"/>
      <use x="828.425781" xlink:href="#DejaVuSans-74"/>
      <use x="867.634766" xlink:href="#DejaVuSans-65"/>
      <use x="929.158203" xlink:href="#DejaVuSans-29"/>
     </g>
    </g>
   </g>
   <g id="matplotlib.axis_2">
    <g id="ytick_1">
     <g id="line2d_7">
      <defs>
       <path d="M 0 0 
L -3.5 0 
" id="me9c54c1c44" style="stroke:#000000;stroke-width:0.8;"/>
      </defs>
      <g>
       <use style="stroke:#000000;stroke-width:0.8;" x="53.328125" xlink:href="#me9c54c1c44" y="279.966557"/>
      </g>
     </g>
     <g id="text_8">
      <!-- 5200 -->
      <g transform="translate(20.878125 283.765776)scale(0.1 -0.1)">
       <defs>
        <path d="M 2034 4250 
Q 1547 4250 1301 3770 
Q 1056 3291 1056 2328 
Q 1056 1369 1301 889 
Q 1547 409 2034 409 
Q 2525 409 2770 889 
Q 3016 1369 3016 2328 
Q 3016 3291 2770 3770 
Q 2525 4250 2034 4250 
z
M 2034 4750 
Q 2819 4750 3233 4129 
Q 3647 3509 3647 2328 
Q 3647 1150 3233 529 
Q 2819 -91 2034 -91 
Q 1250 -91 836 529 
Q 422 1150 422 2328 
Q 422 3509 836 4129 
Q 1250 4750 2034 4750 
z
" id="DejaVuSans-30" transform="scale(0.015625)"/>
       </defs>
       <use xlink:href="#DejaVuSans-35"/>
       <use x="63.623047" xlink:href="#DejaVuSans-32"/>
       <use x="127.246094" xlink:href="#DejaVuSans-30"/>
       <use x="190.869141" xlink:href="#DejaVuSans-30"/>
      </g>
     </g>
    </g>
    <g id="ytick_2">
     <g id="line2d_8">
      <g>
       <use style="stroke:#000000;stroke-width:0.8;" x="53.328125" xlink:href="#me9c54c1c44" y="243.642233"/>
      </g>
     </g>
     <g id="text_9">
      <!-- 5250 -->
      <g transform="translate(20.878125 247.441452)scale(0.1 -0.1)">
       <use xlink:href="#DejaVuSans-35"/>
       <use x="63.623047" xlink:href="#DejaVuSans-32"/>
       <use x="127.246094" xlink:href="#DejaVuSans-35"/>
       <use x="190.869141" xlink:href="#DejaVuSans-30"/>
      </g>
     </g>
    </g>
    <g id="ytick_3">
     <g id="line2d_9">
      <g>
       <use style="stroke:#000000;stroke-width:0.8;" x="53.328125" xlink:href="#me9c54c1c44" y="207.317909"/>
      </g>
     </g>
     <g id="text_10">
      <!-- 5300 -->
      <g transform="translate(20.878125 211.117128)scale(0.1 -0.1)">
       <use xlink:href="#DejaVuSans-35"/>
       <use x="63.623047" xlink:href="#DejaVuSans-33"/>
       <use x="127.246094" xlink:href="#DejaVuSans-30"/>
       <use x="190.869141" xlink:href="#DejaVuSans-30"/>
      </g>
     </g>
    </g>
    <g id="ytick_4">
     <g id="line2d_10">
      <g>
       <use style="stroke:#000000;stroke-width:0.8;" x="53.328125" xlink:href="#me9c54c1c44" y="170.993584"/>
      </g>
     </g>
     <g id="text_11">
      <!-- 5350 -->
      <g transform="translate(20.878125 174.792803)scale(0.1 -0.1)">
       <use xlink:href="#DejaVuSans-35"/>
       <use x="63.623047" xlink:href="#DejaVuSans-33"/>
       <use x="127.246094" xlink:href="#DejaVuSans-35"/>
       <use x="190.869141" xlink:href="#DejaVuSans-30"/>
      </g>
     </g>
    </g>
    <g id="ytick_5">
     <g id="line2d_11">
      <g>
       <use style="stroke:#000000;stroke-width:0.8;" x="53.328125" xlink:href="#me9c54c1c44" y="134.66926"/>
      </g>
     </g>
     <g id="text_12">
      <!-- 5400 -->
      <g transform="translate(20.878125 138.468479)scale(0.1 -0.1)">
       <use xlink:href="#DejaVuSans-35"/>
       <use x="63.623047" xlink:href="#DejaVuSans-34"/>
       <use x="127.246094" xlink:href="#DejaVuSans-30"/>
       <use x="190.869141" xlink:href="#DejaVuSans-30"/>
      </g>
     </g>
    </g>
    <g id="ytick_6">
     <g id="line2d_12">
      <g>
       <use style="stroke:#000000;stroke-width:0.8;" x="53.328125" xlink:href="#me9c54c1c44" y="98.344936"/>
      </g>
     </g>
     <g id="text_13">
      <!-- 5450 -->
      <g transform="translate(20.878125 102.144155)scale(0.1 -0.1)">
       <use xlink:href="#DejaVuSans-35"/>
       <use x="63.623047" xlink:href="#DejaVuSans-34"/>
       <use x="127.246094" xlink:href="#DejaVuSans-35"/>
       <use x="190.869141" xlink:href="#DejaVuSans-30"/>
      </g>
     </g>
    </g>
    <g id="ytick_7">
     <g id="line2d_13">
      <g>
       <use style="stroke:#000000;stroke-width:0.8;" x="53.328125" xlink:href="#me9c54c1c44" y="62.020611"/>
      </g>
     </g>
     <g id="text_14">
      <!-- 5500 -->
      <g transform="translate(20.878125 65.81983)scale(0.1 -0.1)">
       <use xlink:href="#DejaVuSans-35"/>
       <use x="63.623047" xlink:href="#DejaVuSans-35"/>
       <use x="127.246094" xlink:href="#DejaVuSans-30"/>
       <use x="190.869141" xlink:href="#DejaVuSans-30"/>
      </g>
     </g>
    </g>
    <g id="ytick_8">
     <g id="line2d_14">
      <g>
       <use style="stroke:#000000;stroke-width:0.8;" x="53.328125" xlink:href="#me9c54c1c44" y="25.696287"/>
      </g>
     </g>
     <g id="text_15">
      <!-- 5550 -->
      <g transform="translate(20.878125 29.495506)scale(0.1 -0.1)">
       <use xlink:href="#DejaVuSans-35"/>
       <use x="63.623047" xlink:href="#DejaVuSans-35"/>
       <use x="127.246094" xlink:href="#DejaVuSans-35"/>
       <use x="190.869141" xlink:href="#DejaVuSans-30"/>
      </g>
     </g>
    </g>
    <g id="text_16">
     <!-- Code region coverage -->
     <g transform="translate(14.798438 210.379594)rotate(-90)scale(0.1 -0.1)">
      <defs>
       <path d="M 4122 4306 
L 4122 3641 
Q 3803 3938 3442 4084 
Q 3081 4231 2675 4231 
Q 1875 4231 1450 3742 
Q 1025 3253 1025 2328 
Q 1025 1406 1450 917 
Q 1875 428 2675 428 
Q 3081 428 3442 575 
Q 3803 722 4122 1019 
L 4122 359 
Q 3791 134 3420 21 
Q 3050 -91 2638 -91 
Q 1578 -91 968 557 
Q 359 1206 359 2328 
Q 359 3453 968 4101 
Q 1578 4750 2638 4750 
Q 3056 4750 3426 4639 
Q 3797 4528 4122 4306 
z
" id="DejaVuSans-43" transform="scale(0.015625)"/>
       <path d="M 2906 2969 
L 2906 4863 
L 3481 4863 
L 3481 0 
L 2906 0 
L 2906 525 
Q 2725 213 2448 61 
Q 2172 -91 1784 -91 
Q 1150 -91 751 415 
Q 353 922 353 1747 
Q 353 2572 751 3078 
Q 1150 3584 1784 3584 
Q 2172 3584 2448 3432 
Q 2725 3281 2906 2969 
z
M 947 1747 
Q 947 1113 1208 752 
Q 1469 391 1925 391 
Q 2381 391 2643 752 
Q 2906 1113 2906 1747 
Q 2906 2381 2643 2742 
Q 2381 3103 1925 3103 
Q 1469 3103 1208 2742 
Q 947 2381 947 1747 
z
" id="DejaVuSans-64" transform="scale(0.015625)"/>
       <path d="M 2906 1791 
Q 2906 2416 2648 2759 
Q 2391 3103 1925 3103 
Q 1463 3103 1205 2759 
Q 947 2416 947 1791 
Q 947 1169 1205 825 
Q 1463 481 1925 481 
Q 2391 481 2648 825 
Q 2906 1169 2906 1791 
z
M 3481 434 
Q 3481 -459 3084 -895 
Q 2688 -1331 1869 -1331 
Q 1566 -1331 1297 -1286 
Q 1028 -1241 775 -1147 
L 775 -588 
Q 1028 -725 1275 -790 
Q 1522 -856 1778 -856 
Q 2344 -856 2625 -561 
Q 2906 -266 2906 331 
L 2906 616 
Q 2728 306 2450 153 
Q 2172 0 1784 0 
Q 1141 0 747 490 
Q 353 981 353 1791 
Q 353 2603 747 3093 
Q 1141 3584 1784 3584 
Q 2172 3584 2450 3431 
Q 2728 3278 2906 2969 
L 2906 3500 
L 3481 3500 
L 3481 434 
z
" id="DejaVuSans-67" transform="scale(0.015625)"/>
       <path d="M 3122 3366 
L 3122 2828 
Q 2878 2963 2633 3030 
Q 2388 3097 2138 3097 
Q 1578 3097 1268 2742 
Q 959 2388 959 1747 
Q 959 1106 1268 751 
Q 1578 397 2138 397 
Q 2388 397 2633 464 
Q 2878 531 3122 666 
L 3122 134 
Q 2881 22 2623 -34 
Q 2366 -91 2075 -91 
Q 1284 -91 818 406 
Q 353 903 353 1747 
Q 353 2603 823 3093 
Q 1294 3584 2113 3584 
Q 2378 3584 2631 3529 
Q 2884 3475 3122 3366 
z
" id="DejaVuSans-63" transform="scale(0.015625)"/>
       <path d="M 191 3500 
L 800 3500 
L 1894 563 
L 2988 3500 
L 3597 3500 
L 2284 0 
L 1503 0 
L 191 3500 
z
" id="DejaVuSans-76" transform="scale(0.015625)"/>
       <path d="M 2194 1759 
Q 1497 1759 1228 1600 
Q 959 1441 959 1056 
Q 959 750 1161 570 
Q 1363 391 1709 391 
Q 2188 391 2477 730 
Q 2766 1069 2766 1631 
L 2766 1759 
L 2194 1759 
z
M 3341 1997 
L 3341 0 
L 2766 0 
L 2766 531 
Q 2569 213 2275 61 
Q 1981 -91 1556 -91 
Q 1019 -91 701 211 
Q 384 513 384 1019 
Q 384 1609 779 1909 
Q 1175 2209 1959 2209 
L 2766 2209 
L 2766 2266 
Q 2766 2663 2505 2880 
Q 2244 3097 1772 3097 
Q 1472 3097 1187 3025 
Q 903 2953 641 2809 
L 641 3341 
Q 956 3463 1253 3523 
Q 1550 3584 1831 3584 
Q 2591 3584 2966 3190 
Q 3341 2797 3341 1997 
z
" id="DejaVuSans-61" transform="scale(0.015625)"/>
      </defs>
      <use xlink:href="#DejaVuSans-43"/>
      <use x="69.824219" xlink:href="#DejaVuSans-6f"/>
      <use x="131.005859" xlink:href="#DejaVuSans-64"/>
      <use x="194.482422" xlink:href="#DejaVuSans-65"/>
      <use x="256.005859" xlink:href="#DejaVuSans-20"/>
      <use x="287.792969" xlink:href="#DejaVuSans-72"/>
      <use x="326.65625" xlink:href="#DejaVuSans-65"/>
      <use x="388.179688" xlink:href="#DejaVuSans-67"/>
      <use x="451.65625" xlink:href="#DejaVuSans-69"/>
      <use x="479.439453" xlink:href="#DejaVuSans-6f"/>
      <use x="540.621094" xlink:href="#DejaVuSans-6e"/>
      <use x="604" xlink:href="#DejaVuSans-20"/>
      <use x="635.787109" xlink:href="#DejaVuSans-63"/>
      <use x="690.767578" xlink:href="#DejaVuSans-6f"/>
      <use x="751.949219" xlink:href="#DejaVuSans-76"/>
      <use x="811.128906" xlink:href="#DejaVuSans-65"/>
      <use x="872.652344" xlink:href="#DejaVuSans-72"/>
      <use x="913.765625" xlink:href="#DejaVuSans-61"/>
      <use x="975.044922" xlink:href="#DejaVuSans-67"/>
      <use x="1038.521484" xlink:href="#DejaVuSans-65"/>
     </g>
    </g>
   </g>
   <g id="line2d_15">
    <path clip-path="url(#pcc2b104bfa)" d="M 69.560852 225.480071 
L 73.128485 119.413044 
L 76.696117 75.823855 
L 80.263749 70.011963 
L 83.831382 69.285476 
L 87.399014 68.195747 
L 90.966646 67.832503 
L 94.534279 66.742774 
L 98.101911 66.37953 
L 101.669544 66.37953 
L 105.237176 66.37953 
L 108.804808 40.952503 
L 112.372441 40.952503 
L 115.940073 39.862774 
L 119.507705 39.49953 
L 123.075338 39.49953 
L 126.64297 39.49953 
L 130.210603 39.49953 
L 133.778235 38.773044 
L 137.345867 39.136287 
L 140.9135 38.773044 
L 144.481132 38.773044 
L 148.048764 38.773044 
L 151.616397 38.773044 
L 155.184029 38.773044 
L 158.751661 38.773044 
L 162.319294 38.773044 
L 165.886926 38.046557 
L 169.454559 38.046557 
L 173.022191 38.046557 
L 176.589823 38.046557 
L 180.157456 38.409801 
L 183.725088 38.046557 
L 187.29272 38.046557 
L 190.860353 38.409801 
L 194.427985 38.409801 
L 197.995618 38.409801 
L 201.56325 38.409801 
L 205.130882 38.046557 
L 208.698515 38.046557 
L 212.266147 38.046557 
L 215.833779 38.046557 
L 219.401412 38.046557 
L 222.969044 38.409801 
L 226.536676 38.409801 
L 230.104309 38.046557 
L 233.671941 38.046557 
L 237.239574 38.046557 
L 240.807206 38.046557 
L 244.374838 38.046557 
L 247.942471 38.046557 
L 251.510103 37.683314 
L 255.077735 38.046557 
L 258.645368 38.046557 
L 262.213 38.046557 
L 265.780632 38.046557 
L 269.348265 38.046557 
L 272.915897 38.046557 
L 276.48353 38.046557 
L 280.051162 38.046557 
L 283.618794 38.046557 
L 287.186427 38.046557 
L 290.754059 38.046557 
L 294.321691 37.683314 
L 297.889324 38.046557 
L 301.456956 38.046557 
L 305.024589 38.046557 
L 308.592221 38.046557 
L 312.159853 38.046557 
L 315.727486 38.046557 
L 319.295118 38.046557 
L 322.86275 38.046557 
L 326.430383 38.046557 
L 329.998015 38.046557 
L 333.565647 38.046557 
L 337.13328 38.046557 
L 340.700912 38.046557 
L 344.268545 38.046557 
L 347.836177 38.046557 
L 351.403809 38.046557 
L 354.971442 38.046557 
L 358.539074 38.046557 
L 362.106706 38.046557 
L 365.674339 38.046557 
L 369.241971 38.046557 
L 372.809604 36.593584 
L 376.377236 36.593584 
L 379.944868 36.593584 
L 383.512501 36.593584 
L 387.080133 37.320071 
L 390.647765 37.320071 
L 394.215398 37.320071 
" style="fill:none;stroke:#98df8a;stroke-linecap:square;stroke-width:1.5;"/>
    <defs>
     <path d="M -0 3 
L 3 -3 
L -3 -3 
z
" id="mcbc41a0d0a" style="stroke:#ffffff;stroke-linejoin:miter;stroke-width:0.75;"/>
    </defs>
    <g clip-path="url(#pcc2b104bfa)">
     <use style="fill:#98df8a;stroke:#ffffff;stroke-linejoin:miter;stroke-width:0.75;" x="69.560852" xlink:href="#mcbc41a0d0a" y="225.480071"/>
     <use style="fill:#98df8a;stroke:#ffffff;stroke-linejoin:miter;stroke-width:0.75;" x="73.128485" xlink:href="#mcbc41a0d0a" y="119.413044"/>
     <use style="fill:#98df8a;stroke:#ffffff;stroke-linejoin:miter;stroke-width:0.75;" x="76.696117" xlink:href="#mcbc41a0d0a" y="75.823855"/>
     <use style="fill:#98df8a;stroke:#ffffff;stroke-linejoin:miter;stroke-width:0.75;" x="80.263749" xlink:href="#mcbc41a0d0a" y="70.011963"/>
     <use style="fill:#98df8a;stroke:#ffffff;stroke-linejoin:miter;stroke-width:0.75;" x="83.831382" xlink:href="#mcbc41a0d0a" y="69.285476"/>
     <use style="fill:#98df8a;stroke:#ffffff;stroke-linejoin:miter;stroke-width:0.75;" x="87.399014" xlink:href="#mcbc41a0d0a" y="68.195747"/>
     <use style="fill:#98df8a;stroke:#ffffff;stroke-linejoin:miter;stroke-width:0.75;" x="90.966646" xlink:href="#mcbc41a0d0a" y="67.832503"/>
     <use style="fill:#98df8a;stroke:#ffffff;stroke-linejoin:miter;stroke-width:0.75;" x="94.534279" xlink:href="#mcbc41a0d0a" y="66.742774"/>
     <use style="fill:#98df8a;stroke:#ffffff;stroke-linejoin:miter;stroke-width:0.75;" x="98.101911" xlink:href="#mcbc41a0d0a" y="66.37953"/>
     <use style="fill:#98df8a;stroke:#ffffff;stroke-linejoin:miter;stroke-width:0.75;" x="101.669544" xlink:href="#mcbc41a0d0a" y="66.37953"/>
     <use style="fill:#98df8a;stroke:#ffffff;stroke-linejoin:miter;stroke-width:0.75;" x="105.237176" xlink:href="#mcbc41a0d0a" y="66.37953"/>
     <use style="fill:#98df8a;stroke:#ffffff;stroke-linejoin:miter;stroke-width:0.75;" x="108.804808" xlink:href="#mcbc41a0d0a" y="40.952503"/>
     <use style="fill:#98df8a;stroke:#ffffff;stroke-linejoin:miter;stroke-width:0.75;" x="112.372441" xlink:href="#mcbc41a0d0a" y="40.952503"/>
     <use style="fill:#98df8a;stroke:#ffffff;stroke-linejoin:miter;stroke-width:0.75;" x="115.940073" xlink:href="#mcbc41a0d0a" y="39.862774"/>
     <use style="fill:#98df8a;stroke:#ffffff;stroke-linejoin:miter;stroke-width:0.75;" x="119.507705" xlink:href="#mcbc41a0d0a" y="39.49953"/>
     <use style="fill:#98df8a;stroke:#ffffff;stroke-linejoin:miter;stroke-width:0.75;" x="123.075338" xlink:href="#mcbc41a0d0a" y="39.49953"/>
     <use style="fill:#98df8a;stroke:#ffffff;stroke-linejoin:miter;stroke-width:0.75;" x="126.64297" xlink:href="#mcbc41a0d0a" y="39.49953"/>
     <use style="fill:#98df8a;stroke:#ffffff;stroke-linejoin:miter;stroke-width:0.75;" x="130.210603" xlink:href="#mcbc41a0d0a" y="39.49953"/>
     <use style="fill:#98df8a;stroke:#ffffff;stroke-linejoin:miter;stroke-width:0.75;" x="133.778235" xlink:href="#mcbc41a0d0a" y="38.773044"/>
     <use style="fill:#98df8a;stroke:#ffffff;stroke-linejoin:miter;stroke-width:0.75;" x="137.345867" xlink:href="#mcbc41a0d0a" y="39.136287"/>
     <use style="fill:#98df8a;stroke:#ffffff;stroke-linejoin:miter;stroke-width:0.75;" x="140.9135" xlink:href="#mcbc41a0d0a" y="38.773044"/>
     <use style="fill:#98df8a;stroke:#ffffff;stroke-linejoin:miter;stroke-width:0.75;" x="144.481132" xlink:href="#mcbc41a0d0a" y="38.773044"/>
     <use style="fill:#98df8a;stroke:#ffffff;stroke-linejoin:miter;stroke-width:0.75;" x="148.048764" xlink:href="#mcbc41a0d0a" y="38.773044"/>
     <use style="fill:#98df8a;stroke:#ffffff;stroke-linejoin:miter;stroke-width:0.75;" x="151.616397" xlink:href="#mcbc41a0d0a" y="38.773044"/>
     <use style="fill:#98df8a;stroke:#ffffff;stroke-linejoin:miter;stroke-width:0.75;" x="155.184029" xlink:href="#mcbc41a0d0a" y="38.773044"/>
     <use style="fill:#98df8a;stroke:#ffffff;stroke-linejoin:miter;stroke-width:0.75;" x="158.751661" xlink:href="#mcbc41a0d0a" y="38.773044"/>
     <use style="fill:#98df8a;stroke:#ffffff;stroke-linejoin:miter;stroke-width:0.75;" x="162.319294" xlink:href="#mcbc41a0d0a" y="38.773044"/>
     <use style="fill:#98df8a;stroke:#ffffff;stroke-linejoin:miter;stroke-width:0.75;" x="165.886926" xlink:href="#mcbc41a0d0a" y="38.046557"/>
     <use style="fill:#98df8a;stroke:#ffffff;stroke-linejoin:miter;stroke-width:0.75;" x="169.454559" xlink:href="#mcbc41a0d0a" y="38.046557"/>
     <use style="fill:#98df8a;stroke:#ffffff;stroke-linejoin:miter;stroke-width:0.75;" x="173.022191" xlink:href="#mcbc41a0d0a" y="38.046557"/>
     <use style="fill:#98df8a;stroke:#ffffff;stroke-linejoin:miter;stroke-width:0.75;" x="176.589823" xlink:href="#mcbc41a0d0a" y="38.046557"/>
     <use style="fill:#98df8a;stroke:#ffffff;stroke-linejoin:miter;stroke-width:0.75;" x="180.157456" xlink:href="#mcbc41a0d0a" y="38.409801"/>
     <use style="fill:#98df8a;stroke:#ffffff;stroke-linejoin:miter;stroke-width:0.75;" x="183.725088" xlink:href="#mcbc41a0d0a" y="38.046557"/>
     <use style="fill:#98df8a;stroke:#ffffff;stroke-linejoin:miter;stroke-width:0.75;" x="187.29272" xlink:href="#mcbc41a0d0a" y="38.046557"/>
     <use style="fill:#98df8a;stroke:#ffffff;stroke-linejoin:miter;stroke-width:0.75;" x="190.860353" xlink:href="#mcbc41a0d0a" y="38.409801"/>
     <use style="fill:#98df8a;stroke:#ffffff;stroke-linejoin:miter;stroke-width:0.75;" x="194.427985" xlink:href="#mcbc41a0d0a" y="38.409801"/>
     <use style="fill:#98df8a;stroke:#ffffff;stroke-linejoin:miter;stroke-width:0.75;" x="197.995618" xlink:href="#mcbc41a0d0a" y="38.409801"/>
     <use style="fill:#98df8a;stroke:#ffffff;stroke-linejoin:miter;stroke-width:0.75;" x="201.56325" xlink:href="#mcbc41a0d0a" y="38.409801"/>
     <use style="fill:#98df8a;stroke:#ffffff;stroke-linejoin:miter;stroke-width:0.75;" x="205.130882" xlink:href="#mcbc41a0d0a" y="38.046557"/>
     <use style="fill:#98df8a;stroke:#ffffff;stroke-linejoin:miter;stroke-width:0.75;" x="208.698515" xlink:href="#mcbc41a0d0a" y="38.046557"/>
     <use style="fill:#98df8a;stroke:#ffffff;stroke-linejoin:miter;stroke-width:0.75;" x="212.266147" xlink:href="#mcbc41a0d0a" y="38.046557"/>
     <use style="fill:#98df8a;stroke:#ffffff;stroke-linejoin:miter;stroke-width:0.75;" x="215.833779" xlink:href="#mcbc41a0d0a" y="38.046557"/>
     <use style="fill:#98df8a;stroke:#ffffff;stroke-linejoin:miter;stroke-width:0.75;" x="219.401412" xlink:href="#mcbc41a0d0a" y="38.046557"/>
     <use style="fill:#98df8a;stroke:#ffffff;stroke-linejoin:miter;stroke-width:0.75;" x="222.969044" xlink:href="#mcbc41a0d0a" y="38.409801"/>
     <use style="fill:#98df8a;stroke:#ffffff;stroke-linejoin:miter;stroke-width:0.75;" x="226.536676" xlink:href="#mcbc41a0d0a" y="38.409801"/>
     <use style="fill:#98df8a;stroke:#ffffff;stroke-linejoin:miter;stroke-width:0.75;" x="230.104309" xlink:href="#mcbc41a0d0a" y="38.046557"/>
     <use style="fill:#98df8a;stroke:#ffffff;stroke-linejoin:miter;stroke-width:0.75;" x="233.671941" xlink:href="#mcbc41a0d0a" y="38.046557"/>
     <use style="fill:#98df8a;stroke:#ffffff;stroke-linejoin:miter;stroke-width:0.75;" x="237.239574" xlink:href="#mcbc41a0d0a" y="38.046557"/>
     <use style="fill:#98df8a;stroke:#ffffff;stroke-linejoin:miter;stroke-width:0.75;" x="240.807206" xlink:href="#mcbc41a0d0a" y="38.046557"/>
     <use style="fill:#98df8a;stroke:#ffffff;stroke-linejoin:miter;stroke-width:0.75;" x="244.374838" xlink:href="#mcbc41a0d0a" y="38.046557"/>
     <use style="fill:#98df8a;stroke:#ffffff;stroke-linejoin:miter;stroke-width:0.75;" x="247.942471" xlink:href="#mcbc41a0d0a" y="38.046557"/>
     <use style="fill:#98df8a;stroke:#ffffff;stroke-linejoin:miter;stroke-width:0.75;" x="251.510103" xlink:href="#mcbc41a0d0a" y="37.683314"/>
     <use style="fill:#98df8a;stroke:#ffffff;stroke-linejoin:miter;stroke-width:0.75;" x="255.077735" xlink:href="#mcbc41a0d0a" y="38.046557"/>
     <use style="fill:#98df8a;stroke:#ffffff;stroke-linejoin:miter;stroke-width:0.75;" x="258.645368" xlink:href="#mcbc41a0d0a" y="38.046557"/>
     <use style="fill:#98df8a;stroke:#ffffff;stroke-linejoin:miter;stroke-width:0.75;" x="262.213" xlink:href="#mcbc41a0d0a" y="38.046557"/>
     <use style="fill:#98df8a;stroke:#ffffff;stroke-linejoin:miter;stroke-width:0.75;" x="265.780632" xlink:href="#mcbc41a0d0a" y="38.046557"/>
     <use style="fill:#98df8a;stroke:#ffffff;stroke-linejoin:miter;stroke-width:0.75;" x="269.348265" xlink:href="#mcbc41a0d0a" y="38.046557"/>
     <use style="fill:#98df8a;stroke:#ffffff;stroke-linejoin:miter;stroke-width:0.75;" x="272.915897" xlink:href="#mcbc41a0d0a" y="38.046557"/>
     <use style="fill:#98df8a;stroke:#ffffff;stroke-linejoin:miter;stroke-width:0.75;" x="276.48353" xlink:href="#mcbc41a0d0a" y="38.046557"/>
     <use style="fill:#98df8a;stroke:#ffffff;stroke-linejoin:miter;stroke-width:0.75;" x="280.051162" xlink:href="#mcbc41a0d0a" y="38.046557"/>
     <use style="fill:#98df8a;stroke:#ffffff;stroke-linejoin:miter;stroke-width:0.75;" x="283.618794" xlink:href="#mcbc41a0d0a" y="38.046557"/>
     <use style="fill:#98df8a;stroke:#ffffff;stroke-linejoin:miter;stroke-width:0.75;" x="287.186427" xlink:href="#mcbc41a0d0a" y="38.046557"/>
     <use style="fill:#98df8a;stroke:#ffffff;stroke-linejoin:miter;stroke-width:0.75;" x="290.754059" xlink:href="#mcbc41a0d0a" y="38.046557"/>
     <use style="fill:#98df8a;stroke:#ffffff;stroke-linejoin:miter;stroke-width:0.75;" x="294.321691" xlink:href="#mcbc41a0d0a" y="37.683314"/>
     <use style="fill:#98df8a;stroke:#ffffff;stroke-linejoin:miter;stroke-width:0.75;" x="297.889324" xlink:href="#mcbc41a0d0a" y="38.046557"/>
     <use style="fill:#98df8a;stroke:#ffffff;stroke-linejoin:miter;stroke-width:0.75;" x="301.456956" xlink:href="#mcbc41a0d0a" y="38.046557"/>
     <use style="fill:#98df8a;stroke:#ffffff;stroke-linejoin:miter;stroke-width:0.75;" x="305.024589" xlink:href="#mcbc41a0d0a" y="38.046557"/>
     <use style="fill:#98df8a;stroke:#ffffff;stroke-linejoin:miter;stroke-width:0.75;" x="308.592221" xlink:href="#mcbc41a0d0a" y="38.046557"/>
     <use style="fill:#98df8a;stroke:#ffffff;stroke-linejoin:miter;stroke-width:0.75;" x="312.159853" xlink:href="#mcbc41a0d0a" y="38.046557"/>
     <use style="fill:#98df8a;stroke:#ffffff;stroke-linejoin:miter;stroke-width:0.75;" x="315.727486" xlink:href="#mcbc41a0d0a" y="38.046557"/>
     <use style="fill:#98df8a;stroke:#ffffff;stroke-linejoin:miter;stroke-width:0.75;" x="319.295118" xlink:href="#mcbc41a0d0a" y="38.046557"/>
     <use style="fill:#98df8a;stroke:#ffffff;stroke-linejoin:miter;stroke-width:0.75;" x="322.86275" xlink:href="#mcbc41a0d0a" y="38.046557"/>
     <use style="fill:#98df8a;stroke:#ffffff;stroke-linejoin:miter;stroke-width:0.75;" x="326.430383" xlink:href="#mcbc41a0d0a" y="38.046557"/>
     <use style="fill:#98df8a;stroke:#ffffff;stroke-linejoin:miter;stroke-width:0.75;" x="329.998015" xlink:href="#mcbc41a0d0a" y="38.046557"/>
     <use style="fill:#98df8a;stroke:#ffffff;stroke-linejoin:miter;stroke-width:0.75;" x="333.565647" xlink:href="#mcbc41a0d0a" y="38.046557"/>
     <use style="fill:#98df8a;stroke:#ffffff;stroke-linejoin:miter;stroke-width:0.75;" x="337.13328" xlink:href="#mcbc41a0d0a" y="38.046557"/>
     <use style="fill:#98df8a;stroke:#ffffff;stroke-linejoin:miter;stroke-width:0.75;" x="340.700912" xlink:href="#mcbc41a0d0a" y="38.046557"/>
     <use style="fill:#98df8a;stroke:#ffffff;stroke-linejoin:miter;stroke-width:0.75;" x="344.268545" xlink:href="#mcbc41a0d0a" y="38.046557"/>
     <use style="fill:#98df8a;stroke:#ffffff;stroke-linejoin:miter;stroke-width:0.75;" x="347.836177" xlink:href="#mcbc41a0d0a" y="38.046557"/>
     <use style="fill:#98df8a;stroke:#ffffff;stroke-linejoin:miter;stroke-width:0.75;" x="351.403809" xlink:href="#mcbc41a0d0a" y="38.046557"/>
     <use style="fill:#98df8a;stroke:#ffffff;stroke-linejoin:miter;stroke-width:0.75;" x="354.971442" xlink:href="#mcbc41a0d0a" y="38.046557"/>
     <use style="fill:#98df8a;stroke:#ffffff;stroke-linejoin:miter;stroke-width:0.75;" x="358.539074" xlink:href="#mcbc41a0d0a" y="38.046557"/>
     <use style="fill:#98df8a;stroke:#ffffff;stroke-linejoin:miter;stroke-width:0.75;" x="362.106706" xlink:href="#mcbc41a0d0a" y="38.046557"/>
     <use style="fill:#98df8a;stroke:#ffffff;stroke-linejoin:miter;stroke-width:0.75;" x="365.674339" xlink:href="#mcbc41a0d0a" y="38.046557"/>
     <use style="fill:#98df8a;stroke:#ffffff;stroke-linejoin:miter;stroke-width:0.75;" x="369.241971" xlink:href="#mcbc41a0d0a" y="38.046557"/>
     <use style="fill:#98df8a;stroke:#ffffff;stroke-linejoin:miter;stroke-width:0.75;" x="372.809604" xlink:href="#mcbc41a0d0a" y="36.593584"/>
     <use style="fill:#98df8a;stroke:#ffffff;stroke-linejoin:miter;stroke-width:0.75;" x="376.377236" xlink:href="#mcbc41a0d0a" y="36.593584"/>
     <use style="fill:#98df8a;stroke:#ffffff;stroke-linejoin:miter;stroke-width:0.75;" x="379.944868" xlink:href="#mcbc41a0d0a" y="36.593584"/>
     <use style="fill:#98df8a;stroke:#ffffff;stroke-linejoin:miter;stroke-width:0.75;" x="383.512501" xlink:href="#mcbc41a0d0a" y="36.593584"/>
     <use style="fill:#98df8a;stroke:#ffffff;stroke-linejoin:miter;stroke-width:0.75;" x="387.080133" xlink:href="#mcbc41a0d0a" y="37.320071"/>
     <use style="fill:#98df8a;stroke:#ffffff;stroke-linejoin:miter;stroke-width:0.75;" x="390.647765" xlink:href="#mcbc41a0d0a" y="37.320071"/>
     <use style="fill:#98df8a;stroke:#ffffff;stroke-linejoin:miter;stroke-width:0.75;" x="394.215398" xlink:href="#mcbc41a0d0a" y="37.320071"/>
    </g>
   </g>
   <g id="line2d_16">
    <path clip-path="url(#pcc2b104bfa)" d="M 69.560852 231.291963 
L 73.128485 230.565476 
L 76.696117 111.421693 
L 80.263749 70.011963 
L 83.831382 69.285476 
L 87.399014 68.55899 
L 90.966646 67.832503 
L 94.534279 67.832503 
L 98.101911 67.832503 
L 101.669544 67.832503 
L 105.237176 67.832503 
L 108.804808 67.106017 
L 112.372441 66.37953 
L 115.940073 66.37953 
L 119.507705 64.926557 
L 123.075338 64.926557 
L 126.64297 64.926557 
L 130.210603 64.200071 
L 133.778235 64.200071 
L 137.345867 64.200071 
L 140.9135 64.200071 
L 144.481132 64.200071 
L 148.048764 64.200071 
L 151.616397 64.200071 
L 155.184029 64.200071 
L 158.751661 64.200071 
L 162.319294 64.200071 
L 165.886926 64.200071 
L 169.454559 64.200071 
L 173.022191 64.200071 
L 176.589823 64.200071 
L 180.157456 64.200071 
L 183.725088 64.200071 
L 187.29272 64.200071 
L 190.860353 64.200071 
L 194.427985 64.200071 
L 197.995618 64.200071 
L 201.56325 64.200071 
L 205.130882 64.200071 
L 208.698515 64.200071 
L 212.266147 63.473584 
L 215.833779 63.473584 
L 219.401412 40.226017 
L 222.969044 40.226017 
L 226.536676 40.226017 
L 230.104309 40.226017 
L 233.671941 40.226017 
L 237.239574 40.226017 
L 240.807206 40.226017 
L 244.374838 39.49953 
L 247.942471 39.49953 
L 251.510103 39.49953 
L 255.077735 39.49953 
L 258.645368 39.49953 
L 262.213 38.773044 
L 265.780632 38.773044 
L 269.348265 38.773044 
L 272.915897 38.773044 
L 276.48353 38.773044 
L 280.051162 38.773044 
L 283.618794 38.773044 
L 287.186427 38.773044 
L 290.754059 38.773044 
L 294.321691 38.046557 
L 297.889324 38.046557 
L 301.456956 38.046557 
L 305.024589 38.046557 
L 308.592221 38.046557 
L 312.159853 38.046557 
L 315.727486 38.046557 
L 319.295118 38.046557 
L 322.86275 38.046557 
L 326.430383 38.046557 
L 329.998015 38.046557 
L 333.565647 38.046557 
L 337.13328 38.046557 
L 340.700912 37.320071 
L 344.268545 37.320071 
L 347.836177 37.320071 
L 351.403809 37.320071 
L 354.971442 37.320071 
L 358.539074 37.320071 
L 362.106706 37.320071 
L 365.674339 37.320071 
L 369.241971 37.320071 
L 372.809604 37.320071 
L 376.377236 37.320071 
L 379.944868 37.320071 
L 383.512501 37.320071 
L 387.080133 37.320071 
L 390.647765 37.320071 
L 394.215398 37.320071 
" style="fill:none;stroke:#1f77b4;stroke-linecap:square;stroke-width:1.5;"/>
    <defs>
     <path d="M 0 3 
C 0.795609 3 1.55874 2.683901 2.12132 2.12132 
C 2.683901 1.55874 3 0.795609 3 0 
C 3 -0.795609 2.683901 -1.55874 2.12132 -2.12132 
C 1.55874 -2.683901 0.795609 -3 0 -3 
C -0.795609 -3 -1.55874 -2.683901 -2.12132 -2.12132 
C -2.683901 -1.55874 -3 -0.795609 -3 0 
C -3 0.795609 -2.683901 1.55874 -2.12132 2.12132 
C -1.55874 2.683901 -0.795609 3 0 3 
z
" id="mddcef29d26" style="stroke:#ffffff;stroke-width:0.75;"/>
    </defs>
    <g clip-path="url(#pcc2b104bfa)">
     <use style="fill:#1f77b4;stroke:#ffffff;stroke-width:0.75;" x="69.560852" xlink:href="#mddcef29d26" y="231.291963"/>
     <use style="fill:#1f77b4;stroke:#ffffff;stroke-width:0.75;" x="73.128485" xlink:href="#mddcef29d26" y="230.565476"/>
     <use style="fill:#1f77b4;stroke:#ffffff;stroke-width:0.75;" x="76.696117" xlink:href="#mddcef29d26" y="111.421693"/>
     <use style="fill:#1f77b4;stroke:#ffffff;stroke-width:0.75;" x="80.263749" xlink:href="#mddcef29d26" y="70.011963"/>
     <use style="fill:#1f77b4;stroke:#ffffff;stroke-width:0.75;" x="83.831382" xlink:href="#mddcef29d26" y="69.285476"/>
     <use style="fill:#1f77b4;stroke:#ffffff;stroke-width:0.75;" x="87.399014" xlink:href="#mddcef29d26" y="68.55899"/>
     <use style="fill:#1f77b4;stroke:#ffffff;stroke-width:0.75;" x="90.966646" xlink:href="#mddcef29d26" y="67.832503"/>
     <use style="fill:#1f77b4;stroke:#ffffff;stroke-width:0.75;" x="94.534279" xlink:href="#mddcef29d26" y="67.832503"/>
     <use style="fill:#1f77b4;stroke:#ffffff;stroke-width:0.75;" x="98.101911" xlink:href="#mddcef29d26" y="67.832503"/>
     <use style="fill:#1f77b4;stroke:#ffffff;stroke-width:0.75;" x="101.669544" xlink:href="#mddcef29d26" y="67.832503"/>
     <use style="fill:#1f77b4;stroke:#ffffff;stroke-width:0.75;" x="105.237176" xlink:href="#mddcef29d26" y="67.832503"/>
     <use style="fill:#1f77b4;stroke:#ffffff;stroke-width:0.75;" x="108.804808" xlink:href="#mddcef29d26" y="67.106017"/>
     <use style="fill:#1f77b4;stroke:#ffffff;stroke-width:0.75;" x="112.372441" xlink:href="#mddcef29d26" y="66.37953"/>
     <use style="fill:#1f77b4;stroke:#ffffff;stroke-width:0.75;" x="115.940073" xlink:href="#mddcef29d26" y="66.37953"/>
     <use style="fill:#1f77b4;stroke:#ffffff;stroke-width:0.75;" x="119.507705" xlink:href="#mddcef29d26" y="64.926557"/>
     <use style="fill:#1f77b4;stroke:#ffffff;stroke-width:0.75;" x="123.075338" xlink:href="#mddcef29d26" y="64.926557"/>
     <use style="fill:#1f77b4;stroke:#ffffff;stroke-width:0.75;" x="126.64297" xlink:href="#mddcef29d26" y="64.926557"/>
     <use style="fill:#1f77b4;stroke:#ffffff;stroke-width:0.75;" x="130.210603" xlink:href="#mddcef29d26" y="64.200071"/>
     <use style="fill:#1f77b4;stroke:#ffffff;stroke-width:0.75;" x="133.778235" xlink:href="#mddcef29d26" y="64.200071"/>
     <use style="fill:#1f77b4;stroke:#ffffff;stroke-width:0.75;" x="137.345867" xlink:href="#mddcef29d26" y="64.200071"/>
     <use style="fill:#1f77b4;stroke:#ffffff;stroke-width:0.75;" x="140.9135" xlink:href="#mddcef29d26" y="64.200071"/>
     <use style="fill:#1f77b4;stroke:#ffffff;stroke-width:0.75;" x="144.481132" xlink:href="#mddcef29d26" y="64.200071"/>
     <use style="fill:#1f77b4;stroke:#ffffff;stroke-width:0.75;" x="148.048764" xlink:href="#mddcef29d26" y="64.200071"/>
     <use style="fill:#1f77b4;stroke:#ffffff;stroke-width:0.75;" x="151.616397" xlink:href="#mddcef29d26" y="64.200071"/>
     <use style="fill:#1f77b4;stroke:#ffffff;stroke-width:0.75;" x="155.184029" xlink:href="#mddcef29d26" y="64.200071"/>
     <use style="fill:#1f77b4;stroke:#ffffff;stroke-width:0.75;" x="158.751661" xlink:href="#mddcef29d26" y="64.200071"/>
     <use style="fill:#1f77b4;stroke:#ffffff;stroke-width:0.75;" x="162.319294" xlink:href="#mddcef29d26" y="64.200071"/>
     <use style="fill:#1f77b4;stroke:#ffffff;stroke-width:0.75;" x="165.886926" xlink:href="#mddcef29d26" y="64.200071"/>
     <use style="fill:#1f77b4;stroke:#ffffff;stroke-width:0.75;" x="169.454559" xlink:href="#mddcef29d26" y="64.200071"/>
     <use style="fill:#1f77b4;stroke:#ffffff;stroke-width:0.75;" x="173.022191" xlink:href="#mddcef29d26" y="64.200071"/>
     <use style="fill:#1f77b4;stroke:#ffffff;stroke-width:0.75;" x="176.589823" xlink:href="#mddcef29d26" y="64.200071"/>
     <use style="fill:#1f77b4;stroke:#ffffff;stroke-width:0.75;" x="180.157456" xlink:href="#mddcef29d26" y="64.200071"/>
     <use style="fill:#1f77b4;stroke:#ffffff;stroke-width:0.75;" x="183.725088" xlink:href="#mddcef29d26" y="64.200071"/>
     <use style="fill:#1f77b4;stroke:#ffffff;stroke-width:0.75;" x="187.29272" xlink:href="#mddcef29d26" y="64.200071"/>
     <use style="fill:#1f77b4;stroke:#ffffff;stroke-width:0.75;" x="190.860353" xlink:href="#mddcef29d26" y="64.200071"/>
     <use style="fill:#1f77b4;stroke:#ffffff;stroke-width:0.75;" x="194.427985" xlink:href="#mddcef29d26" y="64.200071"/>
     <use style="fill:#1f77b4;stroke:#ffffff;stroke-width:0.75;" x="197.995618" xlink:href="#mddcef29d26" y="64.200071"/>
     <use style="fill:#1f77b4;stroke:#ffffff;stroke-width:0.75;" x="201.56325" xlink:href="#mddcef29d26" y="64.200071"/>
     <use style="fill:#1f77b4;stroke:#ffffff;stroke-width:0.75;" x="205.130882" xlink:href="#mddcef29d26" y="64.200071"/>
     <use style="fill:#1f77b4;stroke:#ffffff;stroke-width:0.75;" x="208.698515" xlink:href="#mddcef29d26" y="64.200071"/>
     <use style="fill:#1f77b4;stroke:#ffffff;stroke-width:0.75;" x="212.266147" xlink:href="#mddcef29d26" y="63.473584"/>
     <use style="fill:#1f77b4;stroke:#ffffff;stroke-width:0.75;" x="215.833779" xlink:href="#mddcef29d26" y="63.473584"/>
     <use style="fill:#1f77b4;stroke:#ffffff;stroke-width:0.75;" x="219.401412" xlink:href="#mddcef29d26" y="40.226017"/>
     <use style="fill:#1f77b4;stroke:#ffffff;stroke-width:0.75;" x="222.969044" xlink:href="#mddcef29d26" y="40.226017"/>
     <use style="fill:#1f77b4;stroke:#ffffff;stroke-width:0.75;" x="226.536676" xlink:href="#mddcef29d26" y="40.226017"/>
     <use style="fill:#1f77b4;stroke:#ffffff;stroke-width:0.75;" x="230.104309" xlink:href="#mddcef29d26" y="40.226017"/>
     <use style="fill:#1f77b4;stroke:#ffffff;stroke-width:0.75;" x="233.671941" xlink:href="#mddcef29d26" y="40.226017"/>
     <use style="fill:#1f77b4;stroke:#ffffff;stroke-width:0.75;" x="237.239574" xlink:href="#mddcef29d26" y="40.226017"/>
     <use style="fill:#1f77b4;stroke:#ffffff;stroke-width:0.75;" x="240.807206" xlink:href="#mddcef29d26" y="40.226017"/>
     <use style="fill:#1f77b4;stroke:#ffffff;stroke-width:0.75;" x="244.374838" xlink:href="#mddcef29d26" y="39.49953"/>
     <use style="fill:#1f77b4;stroke:#ffffff;stroke-width:0.75;" x="247.942471" xlink:href="#mddcef29d26" y="39.49953"/>
     <use style="fill:#1f77b4;stroke:#ffffff;stroke-width:0.75;" x="251.510103" xlink:href="#mddcef29d26" y="39.49953"/>
     <use style="fill:#1f77b4;stroke:#ffffff;stroke-width:0.75;" x="255.077735" xlink:href="#mddcef29d26" y="39.49953"/>
     <use style="fill:#1f77b4;stroke:#ffffff;stroke-width:0.75;" x="258.645368" xlink:href="#mddcef29d26" y="39.49953"/>
     <use style="fill:#1f77b4;stroke:#ffffff;stroke-width:0.75;" x="262.213" xlink:href="#mddcef29d26" y="38.773044"/>
     <use style="fill:#1f77b4;stroke:#ffffff;stroke-width:0.75;" x="265.780632" xlink:href="#mddcef29d26" y="38.773044"/>
     <use style="fill:#1f77b4;stroke:#ffffff;stroke-width:0.75;" x="269.348265" xlink:href="#mddcef29d26" y="38.773044"/>
     <use style="fill:#1f77b4;stroke:#ffffff;stroke-width:0.75;" x="272.915897" xlink:href="#mddcef29d26" y="38.773044"/>
     <use style="fill:#1f77b4;stroke:#ffffff;stroke-width:0.75;" x="276.48353" xlink:href="#mddcef29d26" y="38.773044"/>
     <use style="fill:#1f77b4;stroke:#ffffff;stroke-width:0.75;" x="280.051162" xlink:href="#mddcef29d26" y="38.773044"/>
     <use style="fill:#1f77b4;stroke:#ffffff;stroke-width:0.75;" x="283.618794" xlink:href="#mddcef29d26" y="38.773044"/>
     <use style="fill:#1f77b4;stroke:#ffffff;stroke-width:0.75;" x="287.186427" xlink:href="#mddcef29d26" y="38.773044"/>
     <use style="fill:#1f77b4;stroke:#ffffff;stroke-width:0.75;" x="290.754059" xlink:href="#mddcef29d26" y="38.773044"/>
     <use style="fill:#1f77b4;stroke:#ffffff;stroke-width:0.75;" x="294.321691" xlink:href="#mddcef29d26" y="38.046557"/>
     <use style="fill:#1f77b4;stroke:#ffffff;stroke-width:0.75;" x="297.889324" xlink:href="#mddcef29d26" y="38.046557"/>
     <use style="fill:#1f77b4;stroke:#ffffff;stroke-width:0.75;" x="301.456956" xlink:href="#mddcef29d26" y="38.046557"/>
     <use style="fill:#1f77b4;stroke:#ffffff;stroke-width:0.75;" x="305.024589" xlink:href="#mddcef29d26" y="38.046557"/>
     <use style="fill:#1f77b4;stroke:#ffffff;stroke-width:0.75;" x="308.592221" xlink:href="#mddcef29d26" y="38.046557"/>
     <use style="fill:#1f77b4;stroke:#ffffff;stroke-width:0.75;" x="312.159853" xlink:href="#mddcef29d26" y="38.046557"/>
     <use style="fill:#1f77b4;stroke:#ffffff;stroke-width:0.75;" x="315.727486" xlink:href="#mddcef29d26" y="38.046557"/>
     <use style="fill:#1f77b4;stroke:#ffffff;stroke-width:0.75;" x="319.295118" xlink:href="#mddcef29d26" y="38.046557"/>
     <use style="fill:#1f77b4;stroke:#ffffff;stroke-width:0.75;" x="322.86275" xlink:href="#mddcef29d26" y="38.046557"/>
     <use style="fill:#1f77b4;stroke:#ffffff;stroke-width:0.75;" x="326.430383" xlink:href="#mddcef29d26" y="38.046557"/>
     <use style="fill:#1f77b4;stroke:#ffffff;stroke-width:0.75;" x="329.998015" xlink:href="#mddcef29d26" y="38.046557"/>
     <use style="fill:#1f77b4;stroke:#ffffff;stroke-width:0.75;" x="333.565647" xlink:href="#mddcef29d26" y="38.046557"/>
     <use style="fill:#1f77b4;stroke:#ffffff;stroke-width:0.75;" x="337.13328" xlink:href="#mddcef29d26" y="38.046557"/>
     <use style="fill:#1f77b4;stroke:#ffffff;stroke-width:0.75;" x="340.700912" xlink:href="#mddcef29d26" y="37.320071"/>
     <use style="fill:#1f77b4;stroke:#ffffff;stroke-width:0.75;" x="344.268545" xlink:href="#mddcef29d26" y="37.320071"/>
     <use style="fill:#1f77b4;stroke:#ffffff;stroke-width:0.75;" x="347.836177" xlink:href="#mddcef29d26" y="37.320071"/>
     <use style="fill:#1f77b4;stroke:#ffffff;stroke-width:0.75;" x="351.403809" xlink:href="#mddcef29d26" y="37.320071"/>
     <use style="fill:#1f77b4;stroke:#ffffff;stroke-width:0.75;" x="354.971442" xlink:href="#mddcef29d26" y="37.320071"/>
     <use style="fill:#1f77b4;stroke:#ffffff;stroke-width:0.75;" x="358.539074" xlink:href="#mddcef29d26" y="37.320071"/>
     <use style="fill:#1f77b4;stroke:#ffffff;stroke-width:0.75;" x="362.106706" xlink:href="#mddcef29d26" y="37.320071"/>
     <use style="fill:#1f77b4;stroke:#ffffff;stroke-width:0.75;" x="365.674339" xlink:href="#mddcef29d26" y="37.320071"/>
     <use style="fill:#1f77b4;stroke:#ffffff;stroke-width:0.75;" x="369.241971" xlink:href="#mddcef29d26" y="37.320071"/>
     <use style="fill:#1f77b4;stroke:#ffffff;stroke-width:0.75;" x="372.809604" xlink:href="#mddcef29d26" y="37.320071"/>
     <use style="fill:#1f77b4;stroke:#ffffff;stroke-width:0.75;" x="376.377236" xlink:href="#mddcef29d26" y="37.320071"/>
     <use style="fill:#1f77b4;stroke:#ffffff;stroke-width:0.75;" x="379.944868" xlink:href="#mddcef29d26" y="37.320071"/>
     <use style="fill:#1f77b4;stroke:#ffffff;stroke-width:0.75;" x="383.512501" xlink:href="#mddcef29d26" y="37.320071"/>
     <use style="fill:#1f77b4;stroke:#ffffff;stroke-width:0.75;" x="387.080133" xlink:href="#mddcef29d26" y="37.320071"/>
     <use style="fill:#1f77b4;stroke:#ffffff;stroke-width:0.75;" x="390.647765" xlink:href="#mddcef29d26" y="37.320071"/>
     <use style="fill:#1f77b4;stroke:#ffffff;stroke-width:0.75;" x="394.215398" xlink:href="#mddcef29d26" y="37.320071"/>
    </g>
   </g>
   <g id="line2d_17"/>
   <g id="line2d_18"/>
   <g id="patch_3">
    <path d="M 53.328125 279.966557 
L 53.328125 25.696287 
" style="fill:none;stroke:#000000;stroke-linecap:square;stroke-linejoin:miter;stroke-width:0.8;"/>
   </g>
   <g id="patch_4">
    <path d="M 69.560852 288.430125 
L 343.079334 288.430125 
" style="fill:none;stroke:#000000;stroke-linecap:square;stroke-linejoin:miter;stroke-width:0.8;"/>
   </g>
   <g id="text_17">
    <!-- aspell_aspell_fuzzer (23h, 16 trials/fuzzer) -->
    <g transform="translate(105.513125 16.318125)scale(0.12 -0.12)">
     <defs>
      <path d="M 2834 3397 
L 2834 2853 
Q 2591 2978 2328 3040 
Q 2066 3103 1784 3103 
Q 1356 3103 1142 2972 
Q 928 2841 928 2578 
Q 928 2378 1081 2264 
Q 1234 2150 1697 2047 
L 1894 2003 
Q 2506 1872 2764 1633 
Q 3022 1394 3022 966 
Q 3022 478 2636 193 
Q 2250 -91 1575 -91 
Q 1294 -91 989 -36 
Q 684 19 347 128 
L 347 722 
Q 666 556 975 473 
Q 1284 391 1588 391 
Q 1994 391 2212 530 
Q 2431 669 2431 922 
Q 2431 1156 2273 1281 
Q 2116 1406 1581 1522 
L 1381 1569 
Q 847 1681 609 1914 
Q 372 2147 372 2553 
Q 372 3047 722 3315 
Q 1072 3584 1716 3584 
Q 2034 3584 2315 3537 
Q 2597 3491 2834 3397 
z
" id="DejaVuSans-73" transform="scale(0.015625)"/>
      <path d="M 1159 525 
L 1159 -1331 
L 581 -1331 
L 581 3500 
L 1159 3500 
L 1159 2969 
Q 1341 3281 1617 3432 
Q 1894 3584 2278 3584 
Q 2916 3584 3314 3078 
Q 3713 2572 3713 1747 
Q 3713 922 3314 415 
Q 2916 -91 2278 -91 
Q 1894 -91 1617 61 
Q 1341 213 1159 525 
z
M 3116 1747 
Q 3116 2381 2855 2742 
Q 2594 3103 2138 3103 
Q 1681 3103 1420 2742 
Q 1159 2381 1159 1747 
Q 1159 1113 1420 752 
Q 1681 391 2138 391 
Q 2594 391 2855 752 
Q 3116 1113 3116 1747 
z
" id="DejaVuSans-70" transform="scale(0.015625)"/>
      <path d="M 603 4863 
L 1178 4863 
L 1178 0 
L 603 0 
L 603 4863 
z
" id="DejaVuSans-6c" transform="scale(0.015625)"/>
      <path d="M 3263 -1063 
L 3263 -1509 
L -63 -1509 
L -63 -1063 
L 3263 -1063 
z
" id="DejaVuSans-5f" transform="scale(0.015625)"/>
      <path d="M 2375 4863 
L 2375 4384 
L 1825 4384 
Q 1516 4384 1395 4259 
Q 1275 4134 1275 3809 
L 1275 3500 
L 2222 3500 
L 2222 3053 
L 1275 3053 
L 1275 0 
L 697 0 
L 697 3053 
L 147 3053 
L 147 3500 
L 697 3500 
L 697 3744 
Q 697 4328 969 4595 
Q 1241 4863 1831 4863 
L 2375 4863 
z
" id="DejaVuSans-66" transform="scale(0.015625)"/>
      <path d="M 353 3500 
L 3084 3500 
L 3084 2975 
L 922 459 
L 3084 459 
L 3084 0 
L 275 0 
L 275 525 
L 2438 3041 
L 353 3041 
L 353 3500 
z
" id="DejaVuSans-7a" transform="scale(0.015625)"/>
      <path d="M 750 794 
L 1409 794 
L 1409 256 
L 897 -744 
L 494 -744 
L 750 256 
L 750 794 
z
" id="DejaVuSans-2c" transform="scale(0.015625)"/>
      <path d="M 2113 2584 
Q 1688 2584 1439 2293 
Q 1191 2003 1191 1497 
Q 1191 994 1439 701 
Q 1688 409 2113 409 
Q 2538 409 2786 701 
Q 3034 994 3034 1497 
Q 3034 2003 2786 2293 
Q 2538 2584 2113 2584 
z
M 3366 4563 
L 3366 3988 
Q 3128 4100 2886 4159 
Q 2644 4219 2406 4219 
Q 1781 4219 1451 3797 
Q 1122 3375 1075 2522 
Q 1259 2794 1537 2939 
Q 1816 3084 2150 3084 
Q 2853 3084 3261 2657 
Q 3669 2231 3669 1497 
Q 3669 778 3244 343 
Q 2819 -91 2113 -91 
Q 1303 -91 875 529 
Q 447 1150 447 2328 
Q 447 3434 972 4092 
Q 1497 4750 2381 4750 
Q 2619 4750 2861 4703 
Q 3103 4656 3366 4563 
z
" id="DejaVuSans-36" transform="scale(0.015625)"/>
      <path d="M 1625 4666 
L 2156 4666 
L 531 -594 
L 0 -594 
L 1625 4666 
z
" id="DejaVuSans-2f" transform="scale(0.015625)"/>
     </defs>
     <use xlink:href="#DejaVuSans-61"/>
     <use x="61.279297" xlink:href="#DejaVuSans-73"/>
     <use x="113.378906" xlink:href="#DejaVuSans-70"/>
     <use x="176.855469" xlink:href="#DejaVuSans-65"/>
     <use x="238.378906" xlink:href="#DejaVuSans-6c"/>
     <use x="266.162109" xlink:href="#DejaVuSans-6c"/>
     <use x="293.945312" xlink:href="#DejaVuSans-5f"/>
     <use x="343.945312" xlink:href="#DejaVuSans-61"/>
     <use x="405.224609" xlink:href="#DejaVuSans-73"/>
     <use x="457.324219" xlink:href="#DejaVuSans-70"/>
     <use x="520.800781" xlink:href="#DejaVuSans-65"/>
     <use x="582.324219" xlink:href="#DejaVuSans-6c"/>
     <use x="610.107422" xlink:href="#DejaVuSans-6c"/>
     <use x="637.890625" xlink:href="#DejaVuSans-5f"/>
     <use x="687.890625" xlink:href="#DejaVuSans-66"/>
     <use x="723.095703" xlink:href="#DejaVuSans-75"/>
     <use x="786.474609" xlink:href="#DejaVuSans-7a"/>
     <use x="838.964844" xlink:href="#DejaVuSans-7a"/>
     <use x="891.455078" xlink:href="#DejaVuSans-65"/>
     <use x="952.978516" xlink:href="#DejaVuSans-72"/>
     <use x="994.091797" xlink:href="#DejaVuSans-20"/>
     <use x="1025.878906" xlink:href="#DejaVuSans-28"/>
     <use x="1064.892578" xlink:href="#DejaVuSans-32"/>
     <use x="1128.515625" xlink:href="#DejaVuSans-33"/>
     <use x="1192.138672" xlink:href="#DejaVuSans-68"/>
     <use x="1255.517578" xlink:href="#DejaVuSans-2c"/>
     <use x="1287.304688" xlink:href="#DejaVuSans-20"/>
     <use x="1319.091797" xlink:href="#DejaVuSans-31"/>
     <use x="1382.714844" xlink:href="#DejaVuSans-36"/>
     <use x="1446.337891" xlink:href="#DejaVuSans-20"/>
     <use x="1478.125" xlink:href="#DejaVuSans-74"/>
     <use x="1517.333984" xlink:href="#DejaVuSans-72"/>
     <use x="1558.447266" xlink:href="#DejaVuSans-69"/>
     <use x="1586.230469" xlink:href="#DejaVuSans-61"/>
     <use x="1647.509766" xlink:href="#DejaVuSans-6c"/>
     <use x="1675.292969" xlink:href="#DejaVuSans-73"/>
     <use x="1727.392578" xlink:href="#DejaVuSans-2f"/>
     <use x="1761.083984" xlink:href="#DejaVuSans-66"/>
     <use x="1796.289062" xlink:href="#DejaVuSans-75"/>
     <use x="1859.667969" xlink:href="#DejaVuSans-7a"/>
     <use x="1912.158203" xlink:href="#DejaVuSans-7a"/>
     <use x="1964.648438" xlink:href="#DejaVuSans-65"/>
     <use x="2026.171875" xlink:href="#DejaVuSans-72"/>
     <use x="2067.285156" xlink:href="#DejaVuSans-29"/>
    </g>
   </g>
   <g id="legend_1">
    <g id="line2d_19">
     <path d="M 414.448125 30.416562 
L 434.448125 30.416562 
" style="fill:none;stroke:#98df8a;stroke-linecap:square;stroke-width:1.5;"/>
    </g>
    <g id="line2d_20">
     <defs>
      <path d="M -0 3 
L 3 -3 
L -3 -3 
z
" id="m725ed4005e" style="stroke:#98df8a;stroke-linejoin:miter;"/>
     </defs>
     <g>
      <use style="fill:#98df8a;stroke:#98df8a;stroke-linejoin:miter;" x="424.448125" xlink:href="#m725ed4005e" y="30.416562"/>
     </g>
    </g>
    <g id="text_18">
     <!-- afl_double_timeout -->
     <g transform="translate(442.448125 33.916562)scale(0.1 -0.1)">
      <defs>
       <path d="M 3116 1747 
Q 3116 2381 2855 2742 
Q 2594 3103 2138 3103 
Q 1681 3103 1420 2742 
Q 1159 2381 1159 1747 
Q 1159 1113 1420 752 
Q 1681 391 2138 391 
Q 2594 391 2855 752 
Q 3116 1113 3116 1747 
z
M 1159 2969 
Q 1341 3281 1617 3432 
Q 1894 3584 2278 3584 
Q 2916 3584 3314 3078 
Q 3713 2572 3713 1747 
Q 3713 922 3314 415 
Q 2916 -91 2278 -91 
Q 1894 -91 1617 61 
Q 1341 213 1159 525 
L 1159 0 
L 581 0 
L 581 4863 
L 1159 4863 
L 1159 2969 
z
" id="DejaVuSans-62" transform="scale(0.015625)"/>
      </defs>
      <use xlink:href="#DejaVuSans-61"/>
      <use x="61.279297" xlink:href="#DejaVuSans-66"/>
      <use x="96.484375" xlink:href="#DejaVuSans-6c"/>
      <use x="124.267578" xlink:href="#DejaVuSans-5f"/>
      <use x="174.267578" xlink:href="#DejaVuSans-64"/>
      <use x="237.744141" xlink:href="#DejaVuSans-6f"/>
      <use x="298.925781" xlink:href="#DejaVuSans-75"/>
      <use x="362.304688" xlink:href="#DejaVuSans-62"/>
      <use x="425.78125" xlink:href="#DejaVuSans-6c"/>
      <use x="453.564453" xlink:href="#DejaVuSans-65"/>
      <use x="515.087891" xlink:href="#DejaVuSans-5f"/>
      <use x="565.087891" xlink:href="#DejaVuSans-74"/>
      <use x="604.296875" xlink:href="#DejaVuSans-69"/>
      <use x="632.080078" xlink:href="#DejaVuSans-6d"/>
      <use x="729.492188" xlink:href="#DejaVuSans-65"/>
      <use x="791.015625" xlink:href="#DejaVuSans-6f"/>
      <use x="852.197266" xlink:href="#DejaVuSans-75"/>
      <use x="915.576172" xlink:href="#DejaVuSans-74"/>
     </g>
    </g>
    <g id="line2d_21">
     <path d="M 414.448125 45.372813 
L 434.448125 45.372813 
" style="fill:none;stroke:#1f77b4;stroke-linecap:square;stroke-width:1.5;"/>
    </g>
    <g id="line2d_22">
     <defs>
      <path d="M 0 3 
C 0.795609 3 1.55874 2.683901 2.12132 2.12132 
C 2.683901 1.55874 3 0.795609 3 0 
C 3 -0.795609 2.683901 -1.55874 2.12132 -2.12132 
C 1.55874 -2.683901 0.795609 -3 0 -3 
C -0.795609 -3 -1.55874 -2.683901 -2.12132 -2.12132 
C -2.683901 -1.55874 -3 -0.795609 -3 0 
C -3 0.795609 -2.683901 1.55874 -2.12132 2.12132 
C -1.55874 2.683901 -0.795609 3 0 3 
z
" id="m800a6f890c" style="stroke:#1f77b4;"/>
     </defs>
     <g>
      <use style="fill:#1f77b4;stroke:#1f77b4;" x="424.448125" xlink:href="#m800a6f890c" y="45.372813"/>
     </g>
    </g>
    <g id="text_19">
     <!-- afl -->
     <g transform="translate(442.448125 48.872813)scale(0.1 -0.1)">
      <use xlink:href="#DejaVuSans-61"/>
      <use x="61.279297" xlink:href="#DejaVuSans-66"/>
      <use x="96.484375" xlink:href="#DejaVuSans-6c"/>
     </g>
    </g>
   </g>
  </g>
 </g>
 <defs>
  <clipPath id="pcc2b104bfa">
   <rect height="266.112" width="357.12" x="53.328125" y="22.318125"/>
  </clipPath>
 </defs>
</svg>
