<?xml version="1.0" encoding="utf-8" standalone="no"?>
<!DOCTYPE svg PUBLIC "-//W3C//DTD SVG 1.1//EN"
  "http://www.w3.org/Graphics/SVG/1.1/DTD/svg11.dtd">
<svg height="325.986375pt" version="1.1" viewBox="0 0 549.127812 325.986375" width="549.127812pt" xmlns="http://www.w3.org/2000/svg" xmlns:xlink="http://www.w3.org/1999/xlink">
 <metadata>
  <rdf:RDF xmlns:cc="http://creativecommons.org/ns#" xmlns:dc="http://purl.org/dc/elements/1.1/" xmlns:rdf="http://www.w3.org/1999/02/22-rdf-syntax-ns#">
   <cc:Work>
    <dc:type rdf:resource="http://purl.org/dc/dcmitype/StillImage"/>
    <dc:date>2022-06-03T13:51:00.171225</dc:date>
    <dc:format>image/svg+xml</dc:format>
    <dc:creator>
     <cc:Agent>
      <dc:title>Matplotlib v3.4.3, https://matplotlib.org/</dc:title>
     </cc:Agent>
    </dc:creator>
   </cc:Work>
  </rdf:RDF>
 </metadata>
 <defs>
  <style type="text/css">*{stroke-linecap:butt;stroke-linejoin:round;}</style>
 </defs>
 <g id="figure_1">
  <g id="patch_1">
   <path d="M 0 325.986375 
L 549.127812 325.986375 
L 549.127812 0 
L 0 0 
z
" style="fill:#ffffff;"/>
  </g>
  <g id="axes_1">
   <g id="patch_2">
    <path d="M 53.328125 288.430125 
L 410.448125 288.430125 
L 410.448125 22.318125 
L 53.328125 22.318125 
z
" style="fill:#ffffff;"/>
   </g>
   <g id="PolyCollection_1">
    <defs>
     <path d="M 69.560852 -64.51694 
L 69.560852 -52.262081 
L 73.128485 -72.459905 
L 76.696117 -76.544858 
L 80.263749 -79.381631 
L 83.831382 -81.651049 
L 87.399014 -84.028265 
L 90.966646 -85.736002 
L 94.534279 -87.665008 
L 98.101911 -88.686246 
L 101.669544 -88.913188 
L 105.237176 -90.274839 
L 108.804808 -90.274839 
L 112.372441 -91.182606 
L 115.940073 -92.203845 
L 119.507705 -92.317316 
L 123.075338 -93.111612 
L 126.64297 -93.678967 
L 130.210603 -94.019379 
L 133.778235 -93.905909 
L 137.345867 -94.13285 
L 140.9135 -94.586734 
L 144.481132 -96.288798 
L 148.048764 -96.288798 
L 151.616397 -98.444745 
L 155.184029 -98.671687 
L 158.751661 -102.302757 
L 162.319294 -163.577053 
L 165.886926 -202.837991 
L 169.454559 -236.425383 
L 173.022191 -236.425383 
L 176.589823 -236.425383 
L 180.157456 -236.538854 
L 183.725088 -236.538854 
L 187.29272 -237.534561 
L 190.860353 -237.560092 
L 194.427985 -240.056453 
L 197.995618 -240.396865 
L 201.56325 -240.737278 
L 205.130882 -240.96422 
L 208.698515 -241.418104 
L 212.266147 -242.098929 
L 215.833779 -242.325871 
L 219.401412 -243.687522 
L 222.969044 -243.687522 
L 226.536676 -248.680242 
L 230.104309 -248.680242 
L 233.671941 -254.921143 
L 237.239574 -254.921143 
L 240.807206 -254.921143 
L 244.374838 -254.921143 
L 247.942471 -254.921143 
L 251.510103 -256.623207 
L 255.077735 -256.623207 
L 258.645368 -256.96362 
L 262.213 -256.96362 
L 265.780632 -256.96362 
L 269.348265 -257.077091 
L 272.915897 -257.304032 
L 276.48353 -256.96362 
L 280.051162 -257.304032 
L 283.618794 -257.304032 
L 287.186427 -256.96362 
L 290.754059 -257.304032 
L 294.321691 -256.96362 
L 297.889324 -257.304032 
L 301.456956 -256.96362 
L 305.024589 -257.984858 
L 308.592221 -257.984858 
L 312.159853 -257.984858 
L 315.727486 -257.984858 
L 319.295118 -257.984858 
L 322.86275 -257.984858 
L 326.430383 -257.984858 
L 329.998015 -257.984858 
L 333.565647 -257.304032 
L 337.13328 -257.304032 
L 340.700912 -257.304032 
L 344.268545 -257.304032 
L 347.836177 -258.665683 
L 351.403809 -258.665683 
L 354.971442 -258.665683 
L 358.539074 -258.665683 
L 362.106706 -258.665683 
L 365.674339 -258.665683 
L 369.241971 -258.665683 
L 372.809604 -258.665683 
L 376.377236 -258.665683 
L 379.944868 -258.552212 
L 383.512501 -258.665683 
L 387.080133 -258.665683 
L 390.647765 -258.665683 
L 394.215398 -258.552212 
L 394.215398 -286.919942 
L 394.215398 -286.919942 
L 390.647765 -288.622006 
L 387.080133 -288.622006 
L 383.512501 -288.622006 
L 379.944868 -288.622006 
L 376.377236 -288.622006 
L 372.809604 -284.990937 
L 369.241971 -284.990937 
L 365.674339 -284.990937 
L 362.106706 -284.990937 
L 358.539074 -284.990937 
L 354.971442 -284.763995 
L 351.403809 -284.763995 
L 347.836177 -284.763995 
L 344.268545 -284.763995 
L 340.700912 -284.763995 
L 337.13328 -284.763995 
L 333.565647 -284.763995 
L 329.998015 -284.763995 
L 326.430383 -284.763995 
L 322.86275 -284.763995 
L 319.295118 -284.763995 
L 315.727486 -284.763995 
L 312.159853 -284.763995 
L 308.592221 -284.763995 
L 305.024589 -284.763995 
L 301.456956 -284.763995 
L 297.889324 -284.763995 
L 294.321691 -284.763995 
L 290.754059 -284.763995 
L 287.186427 -284.650524 
L 283.618794 -284.537053 
L 280.051162 -280.679042 
L 276.48353 -280.679042 
L 272.915897 -280.679042 
L 269.348265 -280.679042 
L 265.780632 -282.721518 
L 262.213 -280.679042 
L 258.645368 -282.721518 
L 255.077735 -280.4521 
L 251.510103 -281.246396 
L 247.942471 -280.4521 
L 244.374838 -280.4521 
L 240.807206 -280.4521 
L 237.239574 -275.459379 
L 233.671941 -273.416903 
L 230.104309 -270.466659 
L 226.536676 -270.245391 
L 222.969044 -268.129158 
L 219.401412 -268.08377 
L 215.833779 -270.466659 
L 212.266147 -270.466659 
L 208.698515 -267.516415 
L 205.130882 -267.516415 
L 201.56325 -265.473939 
L 197.995618 -265.473939 
L 194.427985 -262.864107 
L 190.860353 -262.637166 
L 187.29272 -262.637166 
L 183.725088 -262.410224 
L 180.157456 -261.615927 
L 176.589823 -260.481218 
L 173.022191 -260.481218 
L 169.454559 -257.984858 
L 165.886926 -257.644445 
L 162.319294 -255.148085 
L 158.751661 -252.424783 
L 155.184029 -251.871612 
L 151.616397 -246.410824 
L 148.048764 -245.616528 
L 144.481132 -239.148685 
L 140.9135 -237.560092 
L 137.345867 -235.063732 
L 133.778235 -233.702081 
L 130.210603 -233.248197 
L 126.64297 -233.361668 
L 123.075338 -229.880948 
L 119.507705 -229.84407 
L 115.940073 -215.773676 
L 112.372441 -170.498779 
L 108.804808 -161.874989 
L 105.237176 -142.017578 
L 101.669544 -114.217203 
L 98.101911 -90.955665 
L 94.534279 -90.161368 
L 90.966646 -88.572775 
L 87.399014 -87.894787 
L 83.831382 -85.39559 
L 80.263749 -83.0127 
L 76.696117 -79.841188 
L 73.128485 -76.204445 
L 69.560852 -64.51694 
z
" id="mcc574761a9" style="stroke:#98df8a;stroke-opacity:0.2;"/>
    </defs>
    <g clip-path="url(#pab97d7ebec)">
     <use style="fill:#98df8a;fill-opacity:0.2;stroke:#98df8a;stroke-opacity:0.2;" x="0" xlink:href="#mcc574761a9" y="325.986375"/>
    </g>
   </g>
   <g id="PolyCollection_2">
    <defs>
     <path d="M 69.560852 -62.587935 
L 69.560852 -49.65225 
L 73.128485 -68.942306 
L 76.696117 -74.615852 
L 80.263749 -79.154689 
L 83.831382 -83.0127 
L 87.399014 -83.239642 
L 90.966646 -84.828235 
L 94.534279 -85.736002 
L 98.101911 -86.870712 
L 101.669544 -86.870712 
L 105.237176 -87.543027 
L 108.804808 -89.026659 
L 112.372441 -90.93297 
L 115.940073 -90.955665 
L 119.507705 -91.863432 
L 123.075338 -94.813676 
L 126.64297 -91.863432 
L 130.210603 -95.040618 
L 133.778235 -95.26756 
L 137.345867 -95.494501 
L 140.9135 -95.494501 
L 144.481132 -95.494501 
L 148.048764 -95.378194 
L 151.616397 -95.494501 
L 155.184029 -95.494501 
L 158.751661 -95.937038 
L 162.319294 -95.948385 
L 165.886926 -95.948385 
L 169.454559 -96.856152 
L 173.022191 -96.856152 
L 176.589823 -96.856152 
L 180.157456 -96.856152 
L 183.725088 -96.847642 
L 187.29272 -97.077421 
L 190.860353 -97.077421 
L 194.427985 -96.856152 
L 197.995618 -97.310036 
L 201.56325 -97.310036 
L 205.130882 -96.856152 
L 208.698515 -97.536978 
L 212.266147 -96.856152 
L 215.833779 -99.465984 
L 219.401412 -99.465984 
L 222.969044 -101.168047 
L 226.536676 -98.217803 
L 230.104309 -98.217803 
L 233.671941 -125.904708 
L 237.239574 -126.925946 
L 240.807206 -151.951957 
L 244.374838 -153.835575 
L 247.942471 -159.4921 
L 251.510103 -239.602569 
L 255.077735 -159.4921 
L 258.645368 -159.4921 
L 262.213 -239.829511 
L 265.780632 -244.595289 
L 269.348265 -244.26055 
L 272.915897 -240.056453 
L 276.48353 -253.446021 
L 280.051162 -253.446021 
L 283.618794 -255.488498 
L 287.186427 -255.488498 
L 290.754059 -255.488498 
L 294.321691 -255.601969 
L 297.889324 -240.737278 
L 301.456956 -240.737278 
L 305.024589 -255.715439 
L 308.592221 -240.737278 
L 312.159853 -257.304032 
L 315.727486 -257.304032 
L 319.295118 -257.530974 
L 322.86275 -257.530974 
L 326.430383 -257.530974 
L 329.998015 -257.077091 
L 333.565647 -257.530974 
L 337.13328 -258.438742 
L 340.700912 -258.438742 
L 344.268545 -258.438742 
L 347.836177 -258.779154 
L 351.403809 -258.549376 
L 354.971442 -258.665683 
L 358.539074 -259.346509 
L 362.106706 -260.010314 
L 365.674339 -259.573451 
L 369.241971 -259.346509 
L 372.809604 -259.800393 
L 376.377236 -259.800393 
L 379.944868 -260.027334 
L 383.512501 -260.027334 
L 387.080133 -265.020055 
L 390.647765 -265.020055 
L 394.215398 -260.027334 
L 394.215398 -291.57225 
L 394.215398 -291.57225 
L 390.647765 -284.083169 
L 387.080133 -283.969698 
L 383.512501 -283.198096 
L 379.944868 -284.083169 
L 376.377236 -284.083169 
L 372.809604 -284.111537 
L 369.241971 -284.083169 
L 365.674339 -284.083169 
L 362.106706 -284.537053 
L 358.539074 -284.083169 
L 354.971442 -284.537053 
L 351.403809 -284.537053 
L 347.836177 -284.537053 
L 344.268545 -284.537053 
L 340.700912 -284.083169 
L 337.13328 -282.976828 
L 333.565647 -282.94846 
L 329.998015 -284.083169 
L 326.430383 -283.515815 
L 322.86275 -276.310411 
L 319.295118 -282.94846 
L 315.727486 -282.94846 
L 312.159853 -275.232438 
L 308.592221 -267.516415 
L 305.024589 -267.516415 
L 301.456956 -263.431462 
L 297.889324 -263.431462 
L 294.321691 -263.431462 
L 290.754059 -263.431462 
L 287.186427 -262.750636 
L 283.618794 -262.069811 
L 280.051162 -262.069811 
L 276.48353 -266.154764 
L 272.915897 -260.594689 
L 269.348265 -261.615927 
L 265.780632 -259.913864 
L 262.213 -259.692595 
L 258.645368 -257.304032 
L 255.077735 -257.304032 
L 251.510103 -255.766501 
L 247.942471 -257.757916 
L 244.374838 -255.766501 
L 240.807206 -257.757916 
L 237.239574 -257.304032 
L 233.671941 -257.304032 
L 230.104309 -255.715439 
L 226.536676 -257.304032 
L 222.969044 -255.261556 
L 219.401412 -257.304032 
L 215.833779 -256.055852 
L 212.266147 -255.261556 
L 208.698515 -255.261556 
L 205.130882 -252.765196 
L 201.56325 -252.765196 
L 197.995618 -252.765196 
L 194.427985 -255.261556 
L 190.860353 -255.261556 
L 187.29272 -252.765196 
L 183.725088 -252.765196 
L 180.157456 -252.765196 
L 176.589823 -246.864708 
L 173.022191 -249.814952 
L 169.454559 -246.890239 
L 165.886926 -243.46058 
L 162.319294 -237.333151 
L 158.751661 -237.333151 
L 155.184029 -234.155965 
L 151.616397 -233.934697 
L 148.048764 -234.155965 
L 144.481132 -234.155965 
L 140.9135 -234.155965 
L 137.345867 -185.618779 
L 133.778235 -230.978779 
L 130.210603 -149.960543 
L 126.64297 -230.978779 
L 123.075338 -149.960543 
L 119.507705 -149.506659 
L 115.940073 -149.279717 
L 112.372441 -149.279717 
L 108.804808 -149.123695 
L 105.237176 -148.825833 
L 101.669544 -146.783357 
L 98.101911 -141.563695 
L 94.534279 -91.182606 
L 90.966646 -90.955665 
L 87.399014 -88.118892 
L 83.831382 -87.097653 
L 80.263749 -84.828235 
L 76.696117 -81.197166 
L 73.128485 -74.842794 
L 69.560852 -62.587935 
z
" id="m170b2070ef" style="stroke:#1f77b4;stroke-opacity:0.2;"/>
    </defs>
    <g clip-path="url(#pab97d7ebec)">
     <use style="fill:#1f77b4;fill-opacity:0.2;stroke:#1f77b4;stroke-opacity:0.2;" x="0" xlink:href="#m170b2070ef" y="325.986375"/>
    </g>
   </g>
   <g id="matplotlib.axis_1">
    <g id="xtick_1">
     <g id="line2d_1">
      <defs>
       <path d="M 0 0 
L 0 3.5 
" id="mde060f4eea" style="stroke:#000000;stroke-width:0.8;"/>
      </defs>
      <g>
       <use style="stroke:#000000;stroke-width:0.8;" x="69.560852" xlink:href="#mde060f4eea" y="288.430125"/>
      </g>
     </g>
     <g id="text_1">
      <!-- 15m -->
      <g transform="translate(58.32804 303.028562)scale(0.1 -0.1)">
       <defs>
        <path d="M 794 531 
L 1825 531 
L 1825 4091 
L 703 3866 
L 703 4441 
L 1819 4666 
L 2450 4666 
L 2450 531 
L 3481 531 
L 3481 0 
L 794 0 
L 794 531 
z
" id="DejaVuSans-31" transform="scale(0.015625)"/>
        <path d="M 691 4666 
L 3169 4666 
L 3169 4134 
L 1269 4134 
L 1269 2991 
Q 1406 3038 1543 3061 
Q 1681 3084 1819 3084 
Q 2600 3084 3056 2656 
Q 3513 2228 3513 1497 
Q 3513 744 3044 326 
Q 2575 -91 1722 -91 
Q 1428 -91 1123 -41 
Q 819 9 494 109 
L 494 744 
Q 775 591 1075 516 
Q 1375 441 1709 441 
Q 2250 441 2565 725 
Q 2881 1009 2881 1497 
Q 2881 1984 2565 2268 
Q 2250 2553 1709 2553 
Q 1456 2553 1204 2497 
Q 953 2441 691 2322 
L 691 4666 
z
" id="DejaVuSans-35" transform="scale(0.015625)"/>
        <path d="M 3328 2828 
Q 3544 3216 3844 3400 
Q 4144 3584 4550 3584 
Q 5097 3584 5394 3201 
Q 5691 2819 5691 2113 
L 5691 0 
L 5113 0 
L 5113 2094 
Q 5113 2597 4934 2840 
Q 4756 3084 4391 3084 
Q 3944 3084 3684 2787 
Q 3425 2491 3425 1978 
L 3425 0 
L 2847 0 
L 2847 2094 
Q 2847 2600 2669 2842 
Q 2491 3084 2119 3084 
Q 1678 3084 1418 2786 
Q 1159 2488 1159 1978 
L 1159 0 
L 581 0 
L 581 3500 
L 1159 3500 
L 1159 2956 
Q 1356 3278 1631 3431 
Q 1906 3584 2284 3584 
Q 2666 3584 2933 3390 
Q 3200 3197 3328 2828 
z
" id="DejaVuSans-6d" transform="scale(0.015625)"/>
       </defs>
       <use xlink:href="#DejaVuSans-31"/>
       <use x="63.623047" xlink:href="#DejaVuSans-35"/>
       <use x="127.246094" xlink:href="#DejaVuSans-6d"/>
      </g>
     </g>
    </g>
    <g id="xtick_2">
     <g id="line2d_2">
      <g>
       <use style="stroke:#000000;stroke-width:0.8;" x="124.264549" xlink:href="#mde060f4eea" y="288.430125"/>
      </g>
     </g>
     <g id="text_2">
      <!-- 4h:5m -->
      <g transform="translate(108.178611 303.028562)scale(0.1 -0.1)">
       <defs>
        <path d="M 2419 4116 
L 825 1625 
L 2419 1625 
L 2419 4116 
z
M 2253 4666 
L 3047 4666 
L 3047 1625 
L 3713 1625 
L 3713 1100 
L 3047 1100 
L 3047 0 
L 2419 0 
L 2419 1100 
L 313 1100 
L 313 1709 
L 2253 4666 
z
" id="DejaVuSans-34" transform="scale(0.015625)"/>
        <path d="M 3513 2113 
L 3513 0 
L 2938 0 
L 2938 2094 
Q 2938 2591 2744 2837 
Q 2550 3084 2163 3084 
Q 1697 3084 1428 2787 
Q 1159 2491 1159 1978 
L 1159 0 
L 581 0 
L 581 4863 
L 1159 4863 
L 1159 2956 
Q 1366 3272 1645 3428 
Q 1925 3584 2291 3584 
Q 2894 3584 3203 3211 
Q 3513 2838 3513 2113 
z
" id="DejaVuSans-68" transform="scale(0.015625)"/>
        <path d="M 750 794 
L 1409 794 
L 1409 0 
L 750 0 
L 750 794 
z
M 750 3309 
L 1409 3309 
L 1409 2516 
L 750 2516 
L 750 3309 
z
" id="DejaVuSans-3a" transform="scale(0.015625)"/>
       </defs>
       <use xlink:href="#DejaVuSans-34"/>
       <use x="63.623047" xlink:href="#DejaVuSans-68"/>
       <use x="127.001953" xlink:href="#DejaVuSans-3a"/>
       <use x="160.693359" xlink:href="#DejaVuSans-35"/>
       <use x="224.316406" xlink:href="#DejaVuSans-6d"/>
      </g>
     </g>
    </g>
    <g id="xtick_3">
     <g id="line2d_3">
      <g>
       <use style="stroke:#000000;stroke-width:0.8;" x="178.968245" xlink:href="#mde060f4eea" y="288.430125"/>
      </g>
     </g>
     <g id="text_3">
      <!-- 7h:55m -->
      <g transform="translate(159.701057 303.028562)scale(0.1 -0.1)">
       <defs>
        <path d="M 525 4666 
L 3525 4666 
L 3525 4397 
L 1831 0 
L 1172 0 
L 2766 4134 
L 525 4134 
L 525 4666 
z
" id="DejaVuSans-37" transform="scale(0.015625)"/>
       </defs>
       <use xlink:href="#DejaVuSans-37"/>
       <use x="63.623047" xlink:href="#DejaVuSans-68"/>
       <use x="127.001953" xlink:href="#DejaVuSans-3a"/>
       <use x="160.693359" xlink:href="#DejaVuSans-35"/>
       <use x="224.316406" xlink:href="#DejaVuSans-35"/>
       <use x="287.939453" xlink:href="#DejaVuSans-6d"/>
      </g>
     </g>
    </g>
    <g id="xtick_4">
     <g id="line2d_4">
      <g>
       <use style="stroke:#000000;stroke-width:0.8;" x="233.671941" xlink:href="#mde060f4eea" y="288.430125"/>
      </g>
     </g>
     <g id="text_4">
      <!-- 11h:45m -->
      <g transform="translate(211.223504 303.028562)scale(0.1 -0.1)">
       <use xlink:href="#DejaVuSans-31"/>
       <use x="63.623047" xlink:href="#DejaVuSans-31"/>
       <use x="127.246094" xlink:href="#DejaVuSans-68"/>
       <use x="190.625" xlink:href="#DejaVuSans-3a"/>
       <use x="224.316406" xlink:href="#DejaVuSans-34"/>
       <use x="287.939453" xlink:href="#DejaVuSans-35"/>
       <use x="351.5625" xlink:href="#DejaVuSans-6d"/>
      </g>
     </g>
    </g>
    <g id="xtick_5">
     <g id="line2d_5">
      <g>
       <use style="stroke:#000000;stroke-width:0.8;" x="288.375637" xlink:href="#mde060f4eea" y="288.430125"/>
      </g>
     </g>
     <g id="text_5">
      <!-- 15h:35m -->
      <g transform="translate(265.9272 303.028562)scale(0.1 -0.1)">
       <defs>
        <path d="M 2597 2516 
Q 3050 2419 3304 2112 
Q 3559 1806 3559 1356 
Q 3559 666 3084 287 
Q 2609 -91 1734 -91 
Q 1441 -91 1130 -33 
Q 819 25 488 141 
L 488 750 
Q 750 597 1062 519 
Q 1375 441 1716 441 
Q 2309 441 2620 675 
Q 2931 909 2931 1356 
Q 2931 1769 2642 2001 
Q 2353 2234 1838 2234 
L 1294 2234 
L 1294 2753 
L 1863 2753 
Q 2328 2753 2575 2939 
Q 2822 3125 2822 3475 
Q 2822 3834 2567 4026 
Q 2313 4219 1838 4219 
Q 1578 4219 1281 4162 
Q 984 4106 628 3988 
L 628 4550 
Q 988 4650 1302 4700 
Q 1616 4750 1894 4750 
Q 2613 4750 3031 4423 
Q 3450 4097 3450 3541 
Q 3450 3153 3228 2886 
Q 3006 2619 2597 2516 
z
" id="DejaVuSans-33" transform="scale(0.015625)"/>
       </defs>
       <use xlink:href="#DejaVuSans-31"/>
       <use x="63.623047" xlink:href="#DejaVuSans-35"/>
       <use x="127.246094" xlink:href="#DejaVuSans-68"/>
       <use x="190.625" xlink:href="#DejaVuSans-3a"/>
       <use x="224.316406" xlink:href="#DejaVuSans-33"/>
       <use x="287.939453" xlink:href="#DejaVuSans-35"/>
       <use x="351.5625" xlink:href="#DejaVuSans-6d"/>
      </g>
     </g>
    </g>
    <g id="xtick_6">
     <g id="line2d_6">
      <g>
       <use style="stroke:#000000;stroke-width:0.8;" x="343.079334" xlink:href="#mde060f4eea" y="288.430125"/>
      </g>
     </g>
     <g id="text_6">
      <!-- 19h:25m -->
      <g transform="translate(320.630896 303.028562)scale(0.1 -0.1)">
       <defs>
        <path d="M 703 97 
L 703 672 
Q 941 559 1184 500 
Q 1428 441 1663 441 
Q 2288 441 2617 861 
Q 2947 1281 2994 2138 
Q 2813 1869 2534 1725 
Q 2256 1581 1919 1581 
Q 1219 1581 811 2004 
Q 403 2428 403 3163 
Q 403 3881 828 4315 
Q 1253 4750 1959 4750 
Q 2769 4750 3195 4129 
Q 3622 3509 3622 2328 
Q 3622 1225 3098 567 
Q 2575 -91 1691 -91 
Q 1453 -91 1209 -44 
Q 966 3 703 97 
z
M 1959 2075 
Q 2384 2075 2632 2365 
Q 2881 2656 2881 3163 
Q 2881 3666 2632 3958 
Q 2384 4250 1959 4250 
Q 1534 4250 1286 3958 
Q 1038 3666 1038 3163 
Q 1038 2656 1286 2365 
Q 1534 2075 1959 2075 
z
" id="DejaVuSans-39" transform="scale(0.015625)"/>
        <path d="M 1228 531 
L 3431 531 
L 3431 0 
L 469 0 
L 469 531 
Q 828 903 1448 1529 
Q 2069 2156 2228 2338 
Q 2531 2678 2651 2914 
Q 2772 3150 2772 3378 
Q 2772 3750 2511 3984 
Q 2250 4219 1831 4219 
Q 1534 4219 1204 4116 
Q 875 4013 500 3803 
L 500 4441 
Q 881 4594 1212 4672 
Q 1544 4750 1819 4750 
Q 2544 4750 2975 4387 
Q 3406 4025 3406 3419 
Q 3406 3131 3298 2873 
Q 3191 2616 2906 2266 
Q 2828 2175 2409 1742 
Q 1991 1309 1228 531 
z
" id="DejaVuSans-32" transform="scale(0.015625)"/>
       </defs>
       <use xlink:href="#DejaVuSans-31"/>
       <use x="63.623047" xlink:href="#DejaVuSans-39"/>
       <use x="127.246094" xlink:href="#DejaVuSans-68"/>
       <use x="190.625" xlink:href="#DejaVuSans-3a"/>
       <use x="224.316406" xlink:href="#DejaVuSans-32"/>
       <use x="287.939453" xlink:href="#DejaVuSans-35"/>
       <use x="351.5625" xlink:href="#DejaVuSans-6d"/>
      </g>
     </g>
    </g>
    <g id="text_7">
     <!-- Time (hour:minute) -->
     <g transform="translate(183.481094 316.706687)scale(0.1 -0.1)">
      <defs>
       <path d="M -19 4666 
L 3928 4666 
L 3928 4134 
L 2272 4134 
L 2272 0 
L 1638 0 
L 1638 4134 
L -19 4134 
L -19 4666 
z
" id="DejaVuSans-54" transform="scale(0.015625)"/>
       <path d="M 603 3500 
L 1178 3500 
L 1178 0 
L 603 0 
L 603 3500 
z
M 603 4863 
L 1178 4863 
L 1178 4134 
L 603 4134 
L 603 4863 
z
" id="DejaVuSans-69" transform="scale(0.015625)"/>
       <path d="M 3597 1894 
L 3597 1613 
L 953 1613 
Q 991 1019 1311 708 
Q 1631 397 2203 397 
Q 2534 397 2845 478 
Q 3156 559 3463 722 
L 3463 178 
Q 3153 47 2828 -22 
Q 2503 -91 2169 -91 
Q 1331 -91 842 396 
Q 353 884 353 1716 
Q 353 2575 817 3079 
Q 1281 3584 2069 3584 
Q 2775 3584 3186 3129 
Q 3597 2675 3597 1894 
z
M 3022 2063 
Q 3016 2534 2758 2815 
Q 2500 3097 2075 3097 
Q 1594 3097 1305 2825 
Q 1016 2553 972 2059 
L 3022 2063 
z
" id="DejaVuSans-65" transform="scale(0.015625)"/>
       <path id="DejaVuSans-20" transform="scale(0.015625)"/>
       <path d="M 1984 4856 
Q 1566 4138 1362 3434 
Q 1159 2731 1159 2009 
Q 1159 1288 1364 580 
Q 1569 -128 1984 -844 
L 1484 -844 
Q 1016 -109 783 600 
Q 550 1309 550 2009 
Q 550 2706 781 3412 
Q 1013 4119 1484 4856 
L 1984 4856 
z
" id="DejaVuSans-28" transform="scale(0.015625)"/>
       <path d="M 1959 3097 
Q 1497 3097 1228 2736 
Q 959 2375 959 1747 
Q 959 1119 1226 758 
Q 1494 397 1959 397 
Q 2419 397 2687 759 
Q 2956 1122 2956 1747 
Q 2956 2369 2687 2733 
Q 2419 3097 1959 3097 
z
M 1959 3584 
Q 2709 3584 3137 3096 
Q 3566 2609 3566 1747 
Q 3566 888 3137 398 
Q 2709 -91 1959 -91 
Q 1206 -91 779 398 
Q 353 888 353 1747 
Q 353 2609 779 3096 
Q 1206 3584 1959 3584 
z
" id="DejaVuSans-6f" transform="scale(0.015625)"/>
       <path d="M 544 1381 
L 544 3500 
L 1119 3500 
L 1119 1403 
Q 1119 906 1312 657 
Q 1506 409 1894 409 
Q 2359 409 2629 706 
Q 2900 1003 2900 1516 
L 2900 3500 
L 3475 3500 
L 3475 0 
L 2900 0 
L 2900 538 
Q 2691 219 2414 64 
Q 2138 -91 1772 -91 
Q 1169 -91 856 284 
Q 544 659 544 1381 
z
M 1991 3584 
L 1991 3584 
z
" id="DejaVuSans-75" transform="scale(0.015625)"/>
       <path d="M 2631 2963 
Q 2534 3019 2420 3045 
Q 2306 3072 2169 3072 
Q 1681 3072 1420 2755 
Q 1159 2438 1159 1844 
L 1159 0 
L 581 0 
L 581 3500 
L 1159 3500 
L 1159 2956 
Q 1341 3275 1631 3429 
Q 1922 3584 2338 3584 
Q 2397 3584 2469 3576 
Q 2541 3569 2628 3553 
L 2631 2963 
z
" id="DejaVuSans-72" transform="scale(0.015625)"/>
       <path d="M 3513 2113 
L 3513 0 
L 2938 0 
L 2938 2094 
Q 2938 2591 2744 2837 
Q 2550 3084 2163 3084 
Q 1697 3084 1428 2787 
Q 1159 2491 1159 1978 
L 1159 0 
L 581 0 
L 581 3500 
L 1159 3500 
L 1159 2956 
Q 1366 3272 1645 3428 
Q 1925 3584 2291 3584 
Q 2894 3584 3203 3211 
Q 3513 2838 3513 2113 
z
" id="DejaVuSans-6e" transform="scale(0.015625)"/>
       <path d="M 1172 4494 
L 1172 3500 
L 2356 3500 
L 2356 3053 
L 1172 3053 
L 1172 1153 
Q 1172 725 1289 603 
Q 1406 481 1766 481 
L 2356 481 
L 2356 0 
L 1766 0 
Q 1100 0 847 248 
Q 594 497 594 1153 
L 594 3053 
L 172 3053 
L 172 3500 
L 594 3500 
L 594 4494 
L 1172 4494 
z
" id="DejaVuSans-74" transform="scale(0.015625)"/>
       <path d="M 513 4856 
L 1013 4856 
Q 1481 4119 1714 3412 
Q 1947 2706 1947 2009 
Q 1947 1309 1714 600 
Q 1481 -109 1013 -844 
L 513 -844 
Q 928 -128 1133 580 
Q 1338 1288 1338 2009 
Q 1338 2731 1133 3434 
Q 928 4138 513 4856 
z
" id="DejaVuSans-29" transform="scale(0.015625)"/>
      </defs>
      <use xlink:href="#DejaVuSans-54"/>
      <use x="57.958984" xlink:href="#DejaVuSans-69"/>
      <use x="85.742188" xlink:href="#DejaVuSans-6d"/>
      <use x="183.154297" xlink:href="#DejaVuSans-65"/>
      <use x="244.677734" xlink:href="#DejaVuSans-20"/>
      <use x="276.464844" xlink:href="#DejaVuSans-28"/>
      <use x="315.478516" xlink:href="#DejaVuSans-68"/>
      <use x="378.857422" xlink:href="#DejaVuSans-6f"/>
      <use x="440.039062" xlink:href="#DejaVuSans-75"/>
      <use x="503.417969" xlink:href="#DejaVuSans-72"/>
      <use x="542.78125" xlink:href="#DejaVuSans-3a"/>
      <use x="576.472656" xlink:href="#DejaVuSans-6d"/>
      <use x="673.884766" xlink:href="#DejaVuSans-69"/>
      <use x="701.667969" xlink:href="#DejaVuSans-6e"/>
      <use x="765.046875" xlink:href="#DejaVuSans-75"/>
      <use x="828.425781" xlink:href="#DejaVuSans-74"/>
      <use x="867.634766" xlink:href="#DejaVuSans-65"/>
      <use x="929.158203" xlink:href="#DejaVuSans-29"/>
     </g>
    </g>
   </g>
   <g id="matplotlib.axis_2">
    <g id="ytick_1">
     <g id="line2d_7">
      <defs>
       <path d="M 0 0 
L -3.5 0 
" id="m02a1510e39" style="stroke:#000000;stroke-width:0.8;"/>
      </defs>
      <g>
       <use style="stroke:#000000;stroke-width:0.8;" x="53.328125" xlink:href="#m02a1510e39" y="264.079266"/>
      </g>
     </g>
     <g id="text_8">
      <!-- 2800 -->
      <g transform="translate(20.878125 267.878484)scale(0.1 -0.1)">
       <defs>
        <path d="M 2034 2216 
Q 1584 2216 1326 1975 
Q 1069 1734 1069 1313 
Q 1069 891 1326 650 
Q 1584 409 2034 409 
Q 2484 409 2743 651 
Q 3003 894 3003 1313 
Q 3003 1734 2745 1975 
Q 2488 2216 2034 2216 
z
M 1403 2484 
Q 997 2584 770 2862 
Q 544 3141 544 3541 
Q 544 4100 942 4425 
Q 1341 4750 2034 4750 
Q 2731 4750 3128 4425 
Q 3525 4100 3525 3541 
Q 3525 3141 3298 2862 
Q 3072 2584 2669 2484 
Q 3125 2378 3379 2068 
Q 3634 1759 3634 1313 
Q 3634 634 3220 271 
Q 2806 -91 2034 -91 
Q 1263 -91 848 271 
Q 434 634 434 1313 
Q 434 1759 690 2068 
Q 947 2378 1403 2484 
z
M 1172 3481 
Q 1172 3119 1398 2916 
Q 1625 2713 2034 2713 
Q 2441 2713 2670 2916 
Q 2900 3119 2900 3481 
Q 2900 3844 2670 4047 
Q 2441 4250 2034 4250 
Q 1625 4250 1398 4047 
Q 1172 3844 1172 3481 
z
" id="DejaVuSans-38" transform="scale(0.015625)"/>
        <path d="M 2034 4250 
Q 1547 4250 1301 3770 
Q 1056 3291 1056 2328 
Q 1056 1369 1301 889 
Q 1547 409 2034 409 
Q 2525 409 2770 889 
Q 3016 1369 3016 2328 
Q 3016 3291 2770 3770 
Q 2525 4250 2034 4250 
z
M 2034 4750 
Q 2819 4750 3233 4129 
Q 3647 3509 3647 2328 
Q 3647 1150 3233 529 
Q 2819 -91 2034 -91 
Q 1250 -91 836 529 
Q 422 1150 422 2328 
Q 422 3509 836 4129 
Q 1250 4750 2034 4750 
z
" id="DejaVuSans-30" transform="scale(0.015625)"/>
       </defs>
       <use xlink:href="#DejaVuSans-32"/>
       <use x="63.623047" xlink:href="#DejaVuSans-38"/>
       <use x="127.246094" xlink:href="#DejaVuSans-30"/>
       <use x="190.869141" xlink:href="#DejaVuSans-30"/>
      </g>
     </g>
    </g>
    <g id="ytick_2">
     <g id="line2d_8">
      <g>
       <use style="stroke:#000000;stroke-width:0.8;" x="53.328125" xlink:href="#m02a1510e39" y="218.690898"/>
      </g>
     </g>
     <g id="text_9">
      <!-- 3000 -->
      <g transform="translate(20.878125 222.490117)scale(0.1 -0.1)">
       <use xlink:href="#DejaVuSans-33"/>
       <use x="63.623047" xlink:href="#DejaVuSans-30"/>
       <use x="127.246094" xlink:href="#DejaVuSans-30"/>
       <use x="190.869141" xlink:href="#DejaVuSans-30"/>
      </g>
     </g>
    </g>
    <g id="ytick_3">
     <g id="line2d_9">
      <g>
       <use style="stroke:#000000;stroke-width:0.8;" x="53.328125" xlink:href="#m02a1510e39" y="173.30253"/>
      </g>
     </g>
     <g id="text_10">
      <!-- 3200 -->
      <g transform="translate(20.878125 177.101749)scale(0.1 -0.1)">
       <use xlink:href="#DejaVuSans-33"/>
       <use x="63.623047" xlink:href="#DejaVuSans-32"/>
       <use x="127.246094" xlink:href="#DejaVuSans-30"/>
       <use x="190.869141" xlink:href="#DejaVuSans-30"/>
      </g>
     </g>
    </g>
    <g id="ytick_4">
     <g id="line2d_10">
      <g>
       <use style="stroke:#000000;stroke-width:0.8;" x="53.328125" xlink:href="#m02a1510e39" y="127.914163"/>
      </g>
     </g>
     <g id="text_11">
      <!-- 3400 -->
      <g transform="translate(20.878125 131.713381)scale(0.1 -0.1)">
       <use xlink:href="#DejaVuSans-33"/>
       <use x="63.623047" xlink:href="#DejaVuSans-34"/>
       <use x="127.246094" xlink:href="#DejaVuSans-30"/>
       <use x="190.869141" xlink:href="#DejaVuSans-30"/>
      </g>
     </g>
    </g>
    <g id="ytick_5">
     <g id="line2d_11">
      <g>
       <use style="stroke:#000000;stroke-width:0.8;" x="53.328125" xlink:href="#m02a1510e39" y="82.525795"/>
      </g>
     </g>
     <g id="text_12">
      <!-- 3600 -->
      <g transform="translate(20.878125 86.325014)scale(0.1 -0.1)">
       <defs>
        <path d="M 2113 2584 
Q 1688 2584 1439 2293 
Q 1191 2003 1191 1497 
Q 1191 994 1439 701 
Q 1688 409 2113 409 
Q 2538 409 2786 701 
Q 3034 994 3034 1497 
Q 3034 2003 2786 2293 
Q 2538 2584 2113 2584 
z
M 3366 4563 
L 3366 3988 
Q 3128 4100 2886 4159 
Q 2644 4219 2406 4219 
Q 1781 4219 1451 3797 
Q 1122 3375 1075 2522 
Q 1259 2794 1537 2939 
Q 1816 3084 2150 3084 
Q 2853 3084 3261 2657 
Q 3669 2231 3669 1497 
Q 3669 778 3244 343 
Q 2819 -91 2113 -91 
Q 1303 -91 875 529 
Q 447 1150 447 2328 
Q 447 3434 972 4092 
Q 1497 4750 2381 4750 
Q 2619 4750 2861 4703 
Q 3103 4656 3366 4563 
z
" id="DejaVuSans-36" transform="scale(0.015625)"/>
       </defs>
       <use xlink:href="#DejaVuSans-33"/>
       <use x="63.623047" xlink:href="#DejaVuSans-36"/>
       <use x="127.246094" xlink:href="#DejaVuSans-30"/>
       <use x="190.869141" xlink:href="#DejaVuSans-30"/>
      </g>
     </g>
    </g>
    <g id="ytick_6">
     <g id="line2d_12">
      <g>
       <use style="stroke:#000000;stroke-width:0.8;" x="53.328125" xlink:href="#m02a1510e39" y="37.137427"/>
      </g>
     </g>
     <g id="text_13">
      <!-- 3800 -->
      <g transform="translate(20.878125 40.936646)scale(0.1 -0.1)">
       <use xlink:href="#DejaVuSans-33"/>
       <use x="63.623047" xlink:href="#DejaVuSans-38"/>
       <use x="127.246094" xlink:href="#DejaVuSans-30"/>
       <use x="190.869141" xlink:href="#DejaVuSans-30"/>
      </g>
     </g>
    </g>
    <g id="text_14">
     <!-- Code region coverage -->
     <g transform="translate(14.798438 210.379594)rotate(-90)scale(0.1 -0.1)">
      <defs>
       <path d="M 4122 4306 
L 4122 3641 
Q 3803 3938 3442 4084 
Q 3081 4231 2675 4231 
Q 1875 4231 1450 3742 
Q 1025 3253 1025 2328 
Q 1025 1406 1450 917 
Q 1875 428 2675 428 
Q 3081 428 3442 575 
Q 3803 722 4122 1019 
L 4122 359 
Q 3791 134 3420 21 
Q 3050 -91 2638 -91 
Q 1578 -91 968 557 
Q 359 1206 359 2328 
Q 359 3453 968 4101 
Q 1578 4750 2638 4750 
Q 3056 4750 3426 4639 
Q 3797 4528 4122 4306 
z
" id="DejaVuSans-43" transform="scale(0.015625)"/>
       <path d="M 2906 2969 
L 2906 4863 
L 3481 4863 
L 3481 0 
L 2906 0 
L 2906 525 
Q 2725 213 2448 61 
Q 2172 -91 1784 -91 
Q 1150 -91 751 415 
Q 353 922 353 1747 
Q 353 2572 751 3078 
Q 1150 3584 1784 3584 
Q 2172 3584 2448 3432 
Q 2725 3281 2906 2969 
z
M 947 1747 
Q 947 1113 1208 752 
Q 1469 391 1925 391 
Q 2381 391 2643 752 
Q 2906 1113 2906 1747 
Q 2906 2381 2643 2742 
Q 2381 3103 1925 3103 
Q 1469 3103 1208 2742 
Q 947 2381 947 1747 
z
" id="DejaVuSans-64" transform="scale(0.015625)"/>
       <path d="M 2906 1791 
Q 2906 2416 2648 2759 
Q 2391 3103 1925 3103 
Q 1463 3103 1205 2759 
Q 947 2416 947 1791 
Q 947 1169 1205 825 
Q 1463 481 1925 481 
Q 2391 481 2648 825 
Q 2906 1169 2906 1791 
z
M 3481 434 
Q 3481 -459 3084 -895 
Q 2688 -1331 1869 -1331 
Q 1566 -1331 1297 -1286 
Q 1028 -1241 775 -1147 
L 775 -588 
Q 1028 -725 1275 -790 
Q 1522 -856 1778 -856 
Q 2344 -856 2625 -561 
Q 2906 -266 2906 331 
L 2906 616 
Q 2728 306 2450 153 
Q 2172 0 1784 0 
Q 1141 0 747 490 
Q 353 981 353 1791 
Q 353 2603 747 3093 
Q 1141 3584 1784 3584 
Q 2172 3584 2450 3431 
Q 2728 3278 2906 2969 
L 2906 3500 
L 3481 3500 
L 3481 434 
z
" id="DejaVuSans-67" transform="scale(0.015625)"/>
       <path d="M 3122 3366 
L 3122 2828 
Q 2878 2963 2633 3030 
Q 2388 3097 2138 3097 
Q 1578 3097 1268 2742 
Q 959 2388 959 1747 
Q 959 1106 1268 751 
Q 1578 397 2138 397 
Q 2388 397 2633 464 
Q 2878 531 3122 666 
L 3122 134 
Q 2881 22 2623 -34 
Q 2366 -91 2075 -91 
Q 1284 -91 818 406 
Q 353 903 353 1747 
Q 353 2603 823 3093 
Q 1294 3584 2113 3584 
Q 2378 3584 2631 3529 
Q 2884 3475 3122 3366 
z
" id="DejaVuSans-63" transform="scale(0.015625)"/>
       <path d="M 191 3500 
L 800 3500 
L 1894 563 
L 2988 3500 
L 3597 3500 
L 2284 0 
L 1503 0 
L 191 3500 
z
" id="DejaVuSans-76" transform="scale(0.015625)"/>
       <path d="M 2194 1759 
Q 1497 1759 1228 1600 
Q 959 1441 959 1056 
Q 959 750 1161 570 
Q 1363 391 1709 391 
Q 2188 391 2477 730 
Q 2766 1069 2766 1631 
L 2766 1759 
L 2194 1759 
z
M 3341 1997 
L 3341 0 
L 2766 0 
L 2766 531 
Q 2569 213 2275 61 
Q 1981 -91 1556 -91 
Q 1019 -91 701 211 
Q 384 513 384 1019 
Q 384 1609 779 1909 
Q 1175 2209 1959 2209 
L 2766 2209 
L 2766 2266 
Q 2766 2663 2505 2880 
Q 2244 3097 1772 3097 
Q 1472 3097 1187 3025 
Q 903 2953 641 2809 
L 641 3341 
Q 956 3463 1253 3523 
Q 1550 3584 1831 3584 
Q 2591 3584 2966 3190 
Q 3341 2797 3341 1997 
z
" id="DejaVuSans-61" transform="scale(0.015625)"/>
      </defs>
      <use xlink:href="#DejaVuSans-43"/>
      <use x="69.824219" xlink:href="#DejaVuSans-6f"/>
      <use x="131.005859" xlink:href="#DejaVuSans-64"/>
      <use x="194.482422" xlink:href="#DejaVuSans-65"/>
      <use x="256.005859" xlink:href="#DejaVuSans-20"/>
      <use x="287.792969" xlink:href="#DejaVuSans-72"/>
      <use x="326.65625" xlink:href="#DejaVuSans-65"/>
      <use x="388.179688" xlink:href="#DejaVuSans-67"/>
      <use x="451.65625" xlink:href="#DejaVuSans-69"/>
      <use x="479.439453" xlink:href="#DejaVuSans-6f"/>
      <use x="540.621094" xlink:href="#DejaVuSans-6e"/>
      <use x="604" xlink:href="#DejaVuSans-20"/>
      <use x="635.787109" xlink:href="#DejaVuSans-63"/>
      <use x="690.767578" xlink:href="#DejaVuSans-6f"/>
      <use x="751.949219" xlink:href="#DejaVuSans-76"/>
      <use x="811.128906" xlink:href="#DejaVuSans-65"/>
      <use x="872.652344" xlink:href="#DejaVuSans-72"/>
      <use x="913.765625" xlink:href="#DejaVuSans-61"/>
      <use x="975.044922" xlink:href="#DejaVuSans-67"/>
      <use x="1038.521484" xlink:href="#DejaVuSans-65"/>
     </g>
    </g>
   </g>
   <g id="line2d_13">
    <path clip-path="url(#pab97d7ebec)" d="M 69.560852 268.391161 
L 73.128485 250.916639 
L 76.696117 246.831686 
L 80.263749 244.675739 
L 83.831382 242.065907 
L 87.399014 239.342605 
L 90.966646 238.548309 
L 94.534279 237.4136 
L 98.101911 236.505832 
L 101.669544 235.711536 
L 105.237176 233.78253 
L 108.804808 233.555588 
L 112.372441 232.307408 
L 115.940073 227.768572 
L 119.507705 208.478515 
L 123.075338 155.374125 
L 126.64297 155.260654 
L 130.210603 104.652624 
L 133.778235 110.439641 
L 137.345867 95.007596 
L 140.9135 94.553712 
L 144.481132 92.170823 
L 148.048764 91.376527 
L 151.616397 91.036114 
L 155.184029 91.036114 
L 158.751661 88.312812 
L 162.319294 86.951161 
L 165.886926 81.504557 
L 169.454559 75.263656 
L 173.022191 71.859528 
L 176.589823 71.859528 
L 180.157456 71.859528 
L 183.725088 71.746057 
L 187.29272 71.632587 
L 190.860353 71.632587 
L 194.427985 71.178703 
L 197.995618 70.724819 
L 201.56325 69.817052 
L 205.130882 69.817052 
L 208.698515 69.817052 
L 212.266147 69.817052 
L 215.833779 69.817052 
L 219.401412 69.817052 
L 222.969044 68.795814 
L 226.536676 67.774575 
L 230.104309 67.774575 
L 233.671941 67.661104 
L 237.239574 67.661104 
L 240.807206 66.980279 
L 244.374838 66.980279 
L 247.942471 66.980279 
L 251.510103 66.980279 
L 255.077735 66.980279 
L 258.645368 66.639866 
L 262.213 66.639866 
L 265.780632 66.639866 
L 269.348265 66.639866 
L 272.915897 66.639866 
L 276.48353 65.84557 
L 280.051162 62.101029 
L 283.618794 62.101029 
L 287.186427 62.101029 
L 290.754059 57.108309 
L 294.321691 56.767896 
L 297.889324 56.767896 
L 301.456956 56.314012 
L 305.024589 56.314012 
L 308.592221 56.314012 
L 312.159853 56.314012 
L 315.727486 56.314012 
L 319.295118 56.314012 
L 322.86275 56.314012 
L 326.430383 56.314012 
L 329.998015 56.314012 
L 333.565647 48.938403 
L 337.13328 48.938403 
L 340.700912 48.938403 
L 344.268545 48.938403 
L 347.836177 48.938403 
L 351.403809 48.938403 
L 354.971442 48.938403 
L 358.539074 48.938403 
L 362.106706 48.938403 
L 365.674339 48.938403 
L 369.241971 48.938403 
L 372.809604 48.938403 
L 376.377236 45.080391 
L 379.944868 45.080391 
L 383.512501 45.080391 
L 387.080133 45.080391 
L 390.647765 45.080391 
L 394.215398 45.080391 
" style="fill:none;stroke:#98df8a;stroke-linecap:square;stroke-width:1.5;"/>
    <defs>
     <path d="M -0 3 
L 3 -3 
L -3 -3 
z
" id="m94e788e66d" style="stroke:#ffffff;stroke-linejoin:miter;stroke-width:0.75;"/>
    </defs>
    <g clip-path="url(#pab97d7ebec)">
     <use style="fill:#98df8a;stroke:#ffffff;stroke-linejoin:miter;stroke-width:0.75;" x="69.560852" xlink:href="#m94e788e66d" y="268.391161"/>
     <use style="fill:#98df8a;stroke:#ffffff;stroke-linejoin:miter;stroke-width:0.75;" x="73.128485" xlink:href="#m94e788e66d" y="250.916639"/>
     <use style="fill:#98df8a;stroke:#ffffff;stroke-linejoin:miter;stroke-width:0.75;" x="76.696117" xlink:href="#m94e788e66d" y="246.831686"/>
     <use style="fill:#98df8a;stroke:#ffffff;stroke-linejoin:miter;stroke-width:0.75;" x="80.263749" xlink:href="#m94e788e66d" y="244.675739"/>
     <use style="fill:#98df8a;stroke:#ffffff;stroke-linejoin:miter;stroke-width:0.75;" x="83.831382" xlink:href="#m94e788e66d" y="242.065907"/>
     <use style="fill:#98df8a;stroke:#ffffff;stroke-linejoin:miter;stroke-width:0.75;" x="87.399014" xlink:href="#m94e788e66d" y="239.342605"/>
     <use style="fill:#98df8a;stroke:#ffffff;stroke-linejoin:miter;stroke-width:0.75;" x="90.966646" xlink:href="#m94e788e66d" y="238.548309"/>
     <use style="fill:#98df8a;stroke:#ffffff;stroke-linejoin:miter;stroke-width:0.75;" x="94.534279" xlink:href="#m94e788e66d" y="237.4136"/>
     <use style="fill:#98df8a;stroke:#ffffff;stroke-linejoin:miter;stroke-width:0.75;" x="98.101911" xlink:href="#m94e788e66d" y="236.505832"/>
     <use style="fill:#98df8a;stroke:#ffffff;stroke-linejoin:miter;stroke-width:0.75;" x="101.669544" xlink:href="#m94e788e66d" y="235.711536"/>
     <use style="fill:#98df8a;stroke:#ffffff;stroke-linejoin:miter;stroke-width:0.75;" x="105.237176" xlink:href="#m94e788e66d" y="233.78253"/>
     <use style="fill:#98df8a;stroke:#ffffff;stroke-linejoin:miter;stroke-width:0.75;" x="108.804808" xlink:href="#m94e788e66d" y="233.555588"/>
     <use style="fill:#98df8a;stroke:#ffffff;stroke-linejoin:miter;stroke-width:0.75;" x="112.372441" xlink:href="#m94e788e66d" y="232.307408"/>
     <use style="fill:#98df8a;stroke:#ffffff;stroke-linejoin:miter;stroke-width:0.75;" x="115.940073" xlink:href="#m94e788e66d" y="227.768572"/>
     <use style="fill:#98df8a;stroke:#ffffff;stroke-linejoin:miter;stroke-width:0.75;" x="119.507705" xlink:href="#m94e788e66d" y="208.478515"/>
     <use style="fill:#98df8a;stroke:#ffffff;stroke-linejoin:miter;stroke-width:0.75;" x="123.075338" xlink:href="#m94e788e66d" y="155.374125"/>
     <use style="fill:#98df8a;stroke:#ffffff;stroke-linejoin:miter;stroke-width:0.75;" x="126.64297" xlink:href="#m94e788e66d" y="155.260654"/>
     <use style="fill:#98df8a;stroke:#ffffff;stroke-linejoin:miter;stroke-width:0.75;" x="130.210603" xlink:href="#m94e788e66d" y="104.652624"/>
     <use style="fill:#98df8a;stroke:#ffffff;stroke-linejoin:miter;stroke-width:0.75;" x="133.778235" xlink:href="#m94e788e66d" y="110.439641"/>
     <use style="fill:#98df8a;stroke:#ffffff;stroke-linejoin:miter;stroke-width:0.75;" x="137.345867" xlink:href="#m94e788e66d" y="95.007596"/>
     <use style="fill:#98df8a;stroke:#ffffff;stroke-linejoin:miter;stroke-width:0.75;" x="140.9135" xlink:href="#m94e788e66d" y="94.553712"/>
     <use style="fill:#98df8a;stroke:#ffffff;stroke-linejoin:miter;stroke-width:0.75;" x="144.481132" xlink:href="#m94e788e66d" y="92.170823"/>
     <use style="fill:#98df8a;stroke:#ffffff;stroke-linejoin:miter;stroke-width:0.75;" x="148.048764" xlink:href="#m94e788e66d" y="91.376527"/>
     <use style="fill:#98df8a;stroke:#ffffff;stroke-linejoin:miter;stroke-width:0.75;" x="151.616397" xlink:href="#m94e788e66d" y="91.036114"/>
     <use style="fill:#98df8a;stroke:#ffffff;stroke-linejoin:miter;stroke-width:0.75;" x="155.184029" xlink:href="#m94e788e66d" y="91.036114"/>
     <use style="fill:#98df8a;stroke:#ffffff;stroke-linejoin:miter;stroke-width:0.75;" x="158.751661" xlink:href="#m94e788e66d" y="88.312812"/>
     <use style="fill:#98df8a;stroke:#ffffff;stroke-linejoin:miter;stroke-width:0.75;" x="162.319294" xlink:href="#m94e788e66d" y="86.951161"/>
     <use style="fill:#98df8a;stroke:#ffffff;stroke-linejoin:miter;stroke-width:0.75;" x="165.886926" xlink:href="#m94e788e66d" y="81.504557"/>
     <use style="fill:#98df8a;stroke:#ffffff;stroke-linejoin:miter;stroke-width:0.75;" x="169.454559" xlink:href="#m94e788e66d" y="75.263656"/>
     <use style="fill:#98df8a;stroke:#ffffff;stroke-linejoin:miter;stroke-width:0.75;" x="173.022191" xlink:href="#m94e788e66d" y="71.859528"/>
     <use style="fill:#98df8a;stroke:#ffffff;stroke-linejoin:miter;stroke-width:0.75;" x="176.589823" xlink:href="#m94e788e66d" y="71.859528"/>
     <use style="fill:#98df8a;stroke:#ffffff;stroke-linejoin:miter;stroke-width:0.75;" x="180.157456" xlink:href="#m94e788e66d" y="71.859528"/>
     <use style="fill:#98df8a;stroke:#ffffff;stroke-linejoin:miter;stroke-width:0.75;" x="183.725088" xlink:href="#m94e788e66d" y="71.746057"/>
     <use style="fill:#98df8a;stroke:#ffffff;stroke-linejoin:miter;stroke-width:0.75;" x="187.29272" xlink:href="#m94e788e66d" y="71.632587"/>
     <use style="fill:#98df8a;stroke:#ffffff;stroke-linejoin:miter;stroke-width:0.75;" x="190.860353" xlink:href="#m94e788e66d" y="71.632587"/>
     <use style="fill:#98df8a;stroke:#ffffff;stroke-linejoin:miter;stroke-width:0.75;" x="194.427985" xlink:href="#m94e788e66d" y="71.178703"/>
     <use style="fill:#98df8a;stroke:#ffffff;stroke-linejoin:miter;stroke-width:0.75;" x="197.995618" xlink:href="#m94e788e66d" y="70.724819"/>
     <use style="fill:#98df8a;stroke:#ffffff;stroke-linejoin:miter;stroke-width:0.75;" x="201.56325" xlink:href="#m94e788e66d" y="69.817052"/>
     <use style="fill:#98df8a;stroke:#ffffff;stroke-linejoin:miter;stroke-width:0.75;" x="205.130882" xlink:href="#m94e788e66d" y="69.817052"/>
     <use style="fill:#98df8a;stroke:#ffffff;stroke-linejoin:miter;stroke-width:0.75;" x="208.698515" xlink:href="#m94e788e66d" y="69.817052"/>
     <use style="fill:#98df8a;stroke:#ffffff;stroke-linejoin:miter;stroke-width:0.75;" x="212.266147" xlink:href="#m94e788e66d" y="69.817052"/>
     <use style="fill:#98df8a;stroke:#ffffff;stroke-linejoin:miter;stroke-width:0.75;" x="215.833779" xlink:href="#m94e788e66d" y="69.817052"/>
     <use style="fill:#98df8a;stroke:#ffffff;stroke-linejoin:miter;stroke-width:0.75;" x="219.401412" xlink:href="#m94e788e66d" y="69.817052"/>
     <use style="fill:#98df8a;stroke:#ffffff;stroke-linejoin:miter;stroke-width:0.75;" x="222.969044" xlink:href="#m94e788e66d" y="68.795814"/>
     <use style="fill:#98df8a;stroke:#ffffff;stroke-linejoin:miter;stroke-width:0.75;" x="226.536676" xlink:href="#m94e788e66d" y="67.774575"/>
     <use style="fill:#98df8a;stroke:#ffffff;stroke-linejoin:miter;stroke-width:0.75;" x="230.104309" xlink:href="#m94e788e66d" y="67.774575"/>
     <use style="fill:#98df8a;stroke:#ffffff;stroke-linejoin:miter;stroke-width:0.75;" x="233.671941" xlink:href="#m94e788e66d" y="67.661104"/>
     <use style="fill:#98df8a;stroke:#ffffff;stroke-linejoin:miter;stroke-width:0.75;" x="237.239574" xlink:href="#m94e788e66d" y="67.661104"/>
     <use style="fill:#98df8a;stroke:#ffffff;stroke-linejoin:miter;stroke-width:0.75;" x="240.807206" xlink:href="#m94e788e66d" y="66.980279"/>
     <use style="fill:#98df8a;stroke:#ffffff;stroke-linejoin:miter;stroke-width:0.75;" x="244.374838" xlink:href="#m94e788e66d" y="66.980279"/>
     <use style="fill:#98df8a;stroke:#ffffff;stroke-linejoin:miter;stroke-width:0.75;" x="247.942471" xlink:href="#m94e788e66d" y="66.980279"/>
     <use style="fill:#98df8a;stroke:#ffffff;stroke-linejoin:miter;stroke-width:0.75;" x="251.510103" xlink:href="#m94e788e66d" y="66.980279"/>
     <use style="fill:#98df8a;stroke:#ffffff;stroke-linejoin:miter;stroke-width:0.75;" x="255.077735" xlink:href="#m94e788e66d" y="66.980279"/>
     <use style="fill:#98df8a;stroke:#ffffff;stroke-linejoin:miter;stroke-width:0.75;" x="258.645368" xlink:href="#m94e788e66d" y="66.639866"/>
     <use style="fill:#98df8a;stroke:#ffffff;stroke-linejoin:miter;stroke-width:0.75;" x="262.213" xlink:href="#m94e788e66d" y="66.639866"/>
     <use style="fill:#98df8a;stroke:#ffffff;stroke-linejoin:miter;stroke-width:0.75;" x="265.780632" xlink:href="#m94e788e66d" y="66.639866"/>
     <use style="fill:#98df8a;stroke:#ffffff;stroke-linejoin:miter;stroke-width:0.75;" x="269.348265" xlink:href="#m94e788e66d" y="66.639866"/>
     <use style="fill:#98df8a;stroke:#ffffff;stroke-linejoin:miter;stroke-width:0.75;" x="272.915897" xlink:href="#m94e788e66d" y="66.639866"/>
     <use style="fill:#98df8a;stroke:#ffffff;stroke-linejoin:miter;stroke-width:0.75;" x="276.48353" xlink:href="#m94e788e66d" y="65.84557"/>
     <use style="fill:#98df8a;stroke:#ffffff;stroke-linejoin:miter;stroke-width:0.75;" x="280.051162" xlink:href="#m94e788e66d" y="62.101029"/>
     <use style="fill:#98df8a;stroke:#ffffff;stroke-linejoin:miter;stroke-width:0.75;" x="283.618794" xlink:href="#m94e788e66d" y="62.101029"/>
     <use style="fill:#98df8a;stroke:#ffffff;stroke-linejoin:miter;stroke-width:0.75;" x="287.186427" xlink:href="#m94e788e66d" y="62.101029"/>
     <use style="fill:#98df8a;stroke:#ffffff;stroke-linejoin:miter;stroke-width:0.75;" x="290.754059" xlink:href="#m94e788e66d" y="57.108309"/>
     <use style="fill:#98df8a;stroke:#ffffff;stroke-linejoin:miter;stroke-width:0.75;" x="294.321691" xlink:href="#m94e788e66d" y="56.767896"/>
     <use style="fill:#98df8a;stroke:#ffffff;stroke-linejoin:miter;stroke-width:0.75;" x="297.889324" xlink:href="#m94e788e66d" y="56.767896"/>
     <use style="fill:#98df8a;stroke:#ffffff;stroke-linejoin:miter;stroke-width:0.75;" x="301.456956" xlink:href="#m94e788e66d" y="56.314012"/>
     <use style="fill:#98df8a;stroke:#ffffff;stroke-linejoin:miter;stroke-width:0.75;" x="305.024589" xlink:href="#m94e788e66d" y="56.314012"/>
     <use style="fill:#98df8a;stroke:#ffffff;stroke-linejoin:miter;stroke-width:0.75;" x="308.592221" xlink:href="#m94e788e66d" y="56.314012"/>
     <use style="fill:#98df8a;stroke:#ffffff;stroke-linejoin:miter;stroke-width:0.75;" x="312.159853" xlink:href="#m94e788e66d" y="56.314012"/>
     <use style="fill:#98df8a;stroke:#ffffff;stroke-linejoin:miter;stroke-width:0.75;" x="315.727486" xlink:href="#m94e788e66d" y="56.314012"/>
     <use style="fill:#98df8a;stroke:#ffffff;stroke-linejoin:miter;stroke-width:0.75;" x="319.295118" xlink:href="#m94e788e66d" y="56.314012"/>
     <use style="fill:#98df8a;stroke:#ffffff;stroke-linejoin:miter;stroke-width:0.75;" x="322.86275" xlink:href="#m94e788e66d" y="56.314012"/>
     <use style="fill:#98df8a;stroke:#ffffff;stroke-linejoin:miter;stroke-width:0.75;" x="326.430383" xlink:href="#m94e788e66d" y="56.314012"/>
     <use style="fill:#98df8a;stroke:#ffffff;stroke-linejoin:miter;stroke-width:0.75;" x="329.998015" xlink:href="#m94e788e66d" y="56.314012"/>
     <use style="fill:#98df8a;stroke:#ffffff;stroke-linejoin:miter;stroke-width:0.75;" x="333.565647" xlink:href="#m94e788e66d" y="48.938403"/>
     <use style="fill:#98df8a;stroke:#ffffff;stroke-linejoin:miter;stroke-width:0.75;" x="337.13328" xlink:href="#m94e788e66d" y="48.938403"/>
     <use style="fill:#98df8a;stroke:#ffffff;stroke-linejoin:miter;stroke-width:0.75;" x="340.700912" xlink:href="#m94e788e66d" y="48.938403"/>
     <use style="fill:#98df8a;stroke:#ffffff;stroke-linejoin:miter;stroke-width:0.75;" x="344.268545" xlink:href="#m94e788e66d" y="48.938403"/>
     <use style="fill:#98df8a;stroke:#ffffff;stroke-linejoin:miter;stroke-width:0.75;" x="347.836177" xlink:href="#m94e788e66d" y="48.938403"/>
     <use style="fill:#98df8a;stroke:#ffffff;stroke-linejoin:miter;stroke-width:0.75;" x="351.403809" xlink:href="#m94e788e66d" y="48.938403"/>
     <use style="fill:#98df8a;stroke:#ffffff;stroke-linejoin:miter;stroke-width:0.75;" x="354.971442" xlink:href="#m94e788e66d" y="48.938403"/>
     <use style="fill:#98df8a;stroke:#ffffff;stroke-linejoin:miter;stroke-width:0.75;" x="358.539074" xlink:href="#m94e788e66d" y="48.938403"/>
     <use style="fill:#98df8a;stroke:#ffffff;stroke-linejoin:miter;stroke-width:0.75;" x="362.106706" xlink:href="#m94e788e66d" y="48.938403"/>
     <use style="fill:#98df8a;stroke:#ffffff;stroke-linejoin:miter;stroke-width:0.75;" x="365.674339" xlink:href="#m94e788e66d" y="48.938403"/>
     <use style="fill:#98df8a;stroke:#ffffff;stroke-linejoin:miter;stroke-width:0.75;" x="369.241971" xlink:href="#m94e788e66d" y="48.938403"/>
     <use style="fill:#98df8a;stroke:#ffffff;stroke-linejoin:miter;stroke-width:0.75;" x="372.809604" xlink:href="#m94e788e66d" y="48.938403"/>
     <use style="fill:#98df8a;stroke:#ffffff;stroke-linejoin:miter;stroke-width:0.75;" x="376.377236" xlink:href="#m94e788e66d" y="45.080391"/>
     <use style="fill:#98df8a;stroke:#ffffff;stroke-linejoin:miter;stroke-width:0.75;" x="379.944868" xlink:href="#m94e788e66d" y="45.080391"/>
     <use style="fill:#98df8a;stroke:#ffffff;stroke-linejoin:miter;stroke-width:0.75;" x="383.512501" xlink:href="#m94e788e66d" y="45.080391"/>
     <use style="fill:#98df8a;stroke:#ffffff;stroke-linejoin:miter;stroke-width:0.75;" x="387.080133" xlink:href="#m94e788e66d" y="45.080391"/>
     <use style="fill:#98df8a;stroke:#ffffff;stroke-linejoin:miter;stroke-width:0.75;" x="390.647765" xlink:href="#m94e788e66d" y="45.080391"/>
     <use style="fill:#98df8a;stroke:#ffffff;stroke-linejoin:miter;stroke-width:0.75;" x="394.215398" xlink:href="#m94e788e66d" y="45.080391"/>
    </g>
   </g>
   <g id="line2d_14">
    <path clip-path="url(#pab97d7ebec)" d="M 69.560852 269.298928 
L 73.128485 253.412999 
L 76.696117 246.377802 
L 80.263749 243.427558 
L 83.831382 242.746733 
L 87.399014 241.15814 
L 90.966646 239.456076 
L 94.534279 237.4136 
L 98.101911 236.846245 
L 101.669544 236.846245 
L 105.237176 233.896001 
L 108.804808 233.101705 
L 112.372441 230.945757 
L 115.940073 230.718815 
L 119.507705 230.03799 
L 123.075338 230.03799 
L 126.64297 230.03799 
L 130.210603 230.03799 
L 133.778235 230.03799 
L 137.345867 229.357164 
L 140.9135 176.025832 
L 144.481132 176.025832 
L 148.048764 175.79889 
L 151.616397 176.025832 
L 155.184029 176.025832 
L 158.751661 176.025832 
L 162.319294 176.025832 
L 165.886926 175.118065 
L 169.454559 171.486996 
L 173.022191 171.486996 
L 176.589823 171.486996 
L 180.157456 171.486996 
L 183.725088 171.486996 
L 187.29272 171.373525 
L 190.860353 171.373525 
L 194.427985 171.373525 
L 197.995618 170.579228 
L 201.56325 170.579228 
L 205.130882 90.241817 
L 208.698515 130.297052 
L 212.266147 90.014875 
L 215.833779 130.297052 
L 219.401412 130.297052 
L 222.969044 90.014875 
L 226.536676 90.014875 
L 230.104309 90.014875 
L 233.671941 81.618027 
L 237.239574 81.391086 
L 240.807206 81.391086 
L 244.374838 85.476039 
L 247.942471 78.2139 
L 251.510103 78.2139 
L 255.077735 73.221179 
L 258.645368 73.221179 
L 262.213 71.746057 
L 265.780632 70.497877 
L 269.348265 69.476639 
L 272.915897 69.476639 
L 276.48353 68.455401 
L 280.051162 68.455401 
L 283.618794 68.455401 
L 287.186427 68.455401 
L 290.754059 68.34193 
L 294.321691 68.34193 
L 297.889324 68.455401 
L 301.456956 68.228459 
L 305.024589 68.228459 
L 308.592221 68.228459 
L 312.159853 63.122268 
L 315.727486 63.122268 
L 319.295118 63.122268 
L 322.86275 62.327971 
L 326.430383 60.739378 
L 329.998015 60.739378 
L 333.565647 60.739378 
L 337.13328 60.058553 
L 340.700912 60.058553 
L 344.268545 54.498478 
L 347.836177 54.498478 
L 351.403809 54.498478 
L 354.971442 54.498478 
L 358.539074 60.058553 
L 362.106706 60.058553 
L 365.674339 60.398966 
L 369.241971 60.058553 
L 372.809604 60.058553 
L 376.377236 45.761217 
L 379.944868 52.909885 
L 383.512501 47.122868 
L 387.080133 46.442042 
L 390.647765 47.122868 
L 394.215398 58.46996 
" style="fill:none;stroke:#1f77b4;stroke-linecap:square;stroke-width:1.5;"/>
    <defs>
     <path d="M 0 3 
C 0.795609 3 1.55874 2.683901 2.12132 2.12132 
C 2.683901 1.55874 3 0.795609 3 0 
C 3 -0.795609 2.683901 -1.55874 2.12132 -2.12132 
C 1.55874 -2.683901 0.795609 -3 0 -3 
C -0.795609 -3 -1.55874 -2.683901 -2.12132 -2.12132 
C -2.683901 -1.55874 -3 -0.795609 -3 0 
C -3 0.795609 -2.683901 1.55874 -2.12132 2.12132 
C -1.55874 2.683901 -0.795609 3 0 3 
z
" id="m83b5c71103" style="stroke:#ffffff;stroke-width:0.75;"/>
    </defs>
    <g clip-path="url(#pab97d7ebec)">
     <use style="fill:#1f77b4;stroke:#ffffff;stroke-width:0.75;" x="69.560852" xlink:href="#m83b5c71103" y="269.298928"/>
     <use style="fill:#1f77b4;stroke:#ffffff;stroke-width:0.75;" x="73.128485" xlink:href="#m83b5c71103" y="253.412999"/>
     <use style="fill:#1f77b4;stroke:#ffffff;stroke-width:0.75;" x="76.696117" xlink:href="#m83b5c71103" y="246.377802"/>
     <use style="fill:#1f77b4;stroke:#ffffff;stroke-width:0.75;" x="80.263749" xlink:href="#m83b5c71103" y="243.427558"/>
     <use style="fill:#1f77b4;stroke:#ffffff;stroke-width:0.75;" x="83.831382" xlink:href="#m83b5c71103" y="242.746733"/>
     <use style="fill:#1f77b4;stroke:#ffffff;stroke-width:0.75;" x="87.399014" xlink:href="#m83b5c71103" y="241.15814"/>
     <use style="fill:#1f77b4;stroke:#ffffff;stroke-width:0.75;" x="90.966646" xlink:href="#m83b5c71103" y="239.456076"/>
     <use style="fill:#1f77b4;stroke:#ffffff;stroke-width:0.75;" x="94.534279" xlink:href="#m83b5c71103" y="237.4136"/>
     <use style="fill:#1f77b4;stroke:#ffffff;stroke-width:0.75;" x="98.101911" xlink:href="#m83b5c71103" y="236.846245"/>
     <use style="fill:#1f77b4;stroke:#ffffff;stroke-width:0.75;" x="101.669544" xlink:href="#m83b5c71103" y="236.846245"/>
     <use style="fill:#1f77b4;stroke:#ffffff;stroke-width:0.75;" x="105.237176" xlink:href="#m83b5c71103" y="233.896001"/>
     <use style="fill:#1f77b4;stroke:#ffffff;stroke-width:0.75;" x="108.804808" xlink:href="#m83b5c71103" y="233.101705"/>
     <use style="fill:#1f77b4;stroke:#ffffff;stroke-width:0.75;" x="112.372441" xlink:href="#m83b5c71103" y="230.945757"/>
     <use style="fill:#1f77b4;stroke:#ffffff;stroke-width:0.75;" x="115.940073" xlink:href="#m83b5c71103" y="230.718815"/>
     <use style="fill:#1f77b4;stroke:#ffffff;stroke-width:0.75;" x="119.507705" xlink:href="#m83b5c71103" y="230.03799"/>
     <use style="fill:#1f77b4;stroke:#ffffff;stroke-width:0.75;" x="123.075338" xlink:href="#m83b5c71103" y="230.03799"/>
     <use style="fill:#1f77b4;stroke:#ffffff;stroke-width:0.75;" x="126.64297" xlink:href="#m83b5c71103" y="230.03799"/>
     <use style="fill:#1f77b4;stroke:#ffffff;stroke-width:0.75;" x="130.210603" xlink:href="#m83b5c71103" y="230.03799"/>
     <use style="fill:#1f77b4;stroke:#ffffff;stroke-width:0.75;" x="133.778235" xlink:href="#m83b5c71103" y="230.03799"/>
     <use style="fill:#1f77b4;stroke:#ffffff;stroke-width:0.75;" x="137.345867" xlink:href="#m83b5c71103" y="229.357164"/>
     <use style="fill:#1f77b4;stroke:#ffffff;stroke-width:0.75;" x="140.9135" xlink:href="#m83b5c71103" y="176.025832"/>
     <use style="fill:#1f77b4;stroke:#ffffff;stroke-width:0.75;" x="144.481132" xlink:href="#m83b5c71103" y="176.025832"/>
     <use style="fill:#1f77b4;stroke:#ffffff;stroke-width:0.75;" x="148.048764" xlink:href="#m83b5c71103" y="175.79889"/>
     <use style="fill:#1f77b4;stroke:#ffffff;stroke-width:0.75;" x="151.616397" xlink:href="#m83b5c71103" y="176.025832"/>
     <use style="fill:#1f77b4;stroke:#ffffff;stroke-width:0.75;" x="155.184029" xlink:href="#m83b5c71103" y="176.025832"/>
     <use style="fill:#1f77b4;stroke:#ffffff;stroke-width:0.75;" x="158.751661" xlink:href="#m83b5c71103" y="176.025832"/>
     <use style="fill:#1f77b4;stroke:#ffffff;stroke-width:0.75;" x="162.319294" xlink:href="#m83b5c71103" y="176.025832"/>
     <use style="fill:#1f77b4;stroke:#ffffff;stroke-width:0.75;" x="165.886926" xlink:href="#m83b5c71103" y="175.118065"/>
     <use style="fill:#1f77b4;stroke:#ffffff;stroke-width:0.75;" x="169.454559" xlink:href="#m83b5c71103" y="171.486996"/>
     <use style="fill:#1f77b4;stroke:#ffffff;stroke-width:0.75;" x="173.022191" xlink:href="#m83b5c71103" y="171.486996"/>
     <use style="fill:#1f77b4;stroke:#ffffff;stroke-width:0.75;" x="176.589823" xlink:href="#m83b5c71103" y="171.486996"/>
     <use style="fill:#1f77b4;stroke:#ffffff;stroke-width:0.75;" x="180.157456" xlink:href="#m83b5c71103" y="171.486996"/>
     <use style="fill:#1f77b4;stroke:#ffffff;stroke-width:0.75;" x="183.725088" xlink:href="#m83b5c71103" y="171.486996"/>
     <use style="fill:#1f77b4;stroke:#ffffff;stroke-width:0.75;" x="187.29272" xlink:href="#m83b5c71103" y="171.373525"/>
     <use style="fill:#1f77b4;stroke:#ffffff;stroke-width:0.75;" x="190.860353" xlink:href="#m83b5c71103" y="171.373525"/>
     <use style="fill:#1f77b4;stroke:#ffffff;stroke-width:0.75;" x="194.427985" xlink:href="#m83b5c71103" y="171.373525"/>
     <use style="fill:#1f77b4;stroke:#ffffff;stroke-width:0.75;" x="197.995618" xlink:href="#m83b5c71103" y="170.579228"/>
     <use style="fill:#1f77b4;stroke:#ffffff;stroke-width:0.75;" x="201.56325" xlink:href="#m83b5c71103" y="170.579228"/>
     <use style="fill:#1f77b4;stroke:#ffffff;stroke-width:0.75;" x="205.130882" xlink:href="#m83b5c71103" y="90.241817"/>
     <use style="fill:#1f77b4;stroke:#ffffff;stroke-width:0.75;" x="208.698515" xlink:href="#m83b5c71103" y="130.297052"/>
     <use style="fill:#1f77b4;stroke:#ffffff;stroke-width:0.75;" x="212.266147" xlink:href="#m83b5c71103" y="90.014875"/>
     <use style="fill:#1f77b4;stroke:#ffffff;stroke-width:0.75;" x="215.833779" xlink:href="#m83b5c71103" y="130.297052"/>
     <use style="fill:#1f77b4;stroke:#ffffff;stroke-width:0.75;" x="219.401412" xlink:href="#m83b5c71103" y="130.297052"/>
     <use style="fill:#1f77b4;stroke:#ffffff;stroke-width:0.75;" x="222.969044" xlink:href="#m83b5c71103" y="90.014875"/>
     <use style="fill:#1f77b4;stroke:#ffffff;stroke-width:0.75;" x="226.536676" xlink:href="#m83b5c71103" y="90.014875"/>
     <use style="fill:#1f77b4;stroke:#ffffff;stroke-width:0.75;" x="230.104309" xlink:href="#m83b5c71103" y="90.014875"/>
     <use style="fill:#1f77b4;stroke:#ffffff;stroke-width:0.75;" x="233.671941" xlink:href="#m83b5c71103" y="81.618027"/>
     <use style="fill:#1f77b4;stroke:#ffffff;stroke-width:0.75;" x="237.239574" xlink:href="#m83b5c71103" y="81.391086"/>
     <use style="fill:#1f77b4;stroke:#ffffff;stroke-width:0.75;" x="240.807206" xlink:href="#m83b5c71103" y="81.391086"/>
     <use style="fill:#1f77b4;stroke:#ffffff;stroke-width:0.75;" x="244.374838" xlink:href="#m83b5c71103" y="85.476039"/>
     <use style="fill:#1f77b4;stroke:#ffffff;stroke-width:0.75;" x="247.942471" xlink:href="#m83b5c71103" y="78.2139"/>
     <use style="fill:#1f77b4;stroke:#ffffff;stroke-width:0.75;" x="251.510103" xlink:href="#m83b5c71103" y="78.2139"/>
     <use style="fill:#1f77b4;stroke:#ffffff;stroke-width:0.75;" x="255.077735" xlink:href="#m83b5c71103" y="73.221179"/>
     <use style="fill:#1f77b4;stroke:#ffffff;stroke-width:0.75;" x="258.645368" xlink:href="#m83b5c71103" y="73.221179"/>
     <use style="fill:#1f77b4;stroke:#ffffff;stroke-width:0.75;" x="262.213" xlink:href="#m83b5c71103" y="71.746057"/>
     <use style="fill:#1f77b4;stroke:#ffffff;stroke-width:0.75;" x="265.780632" xlink:href="#m83b5c71103" y="70.497877"/>
     <use style="fill:#1f77b4;stroke:#ffffff;stroke-width:0.75;" x="269.348265" xlink:href="#m83b5c71103" y="69.476639"/>
     <use style="fill:#1f77b4;stroke:#ffffff;stroke-width:0.75;" x="272.915897" xlink:href="#m83b5c71103" y="69.476639"/>
     <use style="fill:#1f77b4;stroke:#ffffff;stroke-width:0.75;" x="276.48353" xlink:href="#m83b5c71103" y="68.455401"/>
     <use style="fill:#1f77b4;stroke:#ffffff;stroke-width:0.75;" x="280.051162" xlink:href="#m83b5c71103" y="68.455401"/>
     <use style="fill:#1f77b4;stroke:#ffffff;stroke-width:0.75;" x="283.618794" xlink:href="#m83b5c71103" y="68.455401"/>
     <use style="fill:#1f77b4;stroke:#ffffff;stroke-width:0.75;" x="287.186427" xlink:href="#m83b5c71103" y="68.455401"/>
     <use style="fill:#1f77b4;stroke:#ffffff;stroke-width:0.75;" x="290.754059" xlink:href="#m83b5c71103" y="68.34193"/>
     <use style="fill:#1f77b4;stroke:#ffffff;stroke-width:0.75;" x="294.321691" xlink:href="#m83b5c71103" y="68.34193"/>
     <use style="fill:#1f77b4;stroke:#ffffff;stroke-width:0.75;" x="297.889324" xlink:href="#m83b5c71103" y="68.455401"/>
     <use style="fill:#1f77b4;stroke:#ffffff;stroke-width:0.75;" x="301.456956" xlink:href="#m83b5c71103" y="68.228459"/>
     <use style="fill:#1f77b4;stroke:#ffffff;stroke-width:0.75;" x="305.024589" xlink:href="#m83b5c71103" y="68.228459"/>
     <use style="fill:#1f77b4;stroke:#ffffff;stroke-width:0.75;" x="308.592221" xlink:href="#m83b5c71103" y="68.228459"/>
     <use style="fill:#1f77b4;stroke:#ffffff;stroke-width:0.75;" x="312.159853" xlink:href="#m83b5c71103" y="63.122268"/>
     <use style="fill:#1f77b4;stroke:#ffffff;stroke-width:0.75;" x="315.727486" xlink:href="#m83b5c71103" y="63.122268"/>
     <use style="fill:#1f77b4;stroke:#ffffff;stroke-width:0.75;" x="319.295118" xlink:href="#m83b5c71103" y="63.122268"/>
     <use style="fill:#1f77b4;stroke:#ffffff;stroke-width:0.75;" x="322.86275" xlink:href="#m83b5c71103" y="62.327971"/>
     <use style="fill:#1f77b4;stroke:#ffffff;stroke-width:0.75;" x="326.430383" xlink:href="#m83b5c71103" y="60.739378"/>
     <use style="fill:#1f77b4;stroke:#ffffff;stroke-width:0.75;" x="329.998015" xlink:href="#m83b5c71103" y="60.739378"/>
     <use style="fill:#1f77b4;stroke:#ffffff;stroke-width:0.75;" x="333.565647" xlink:href="#m83b5c71103" y="60.739378"/>
     <use style="fill:#1f77b4;stroke:#ffffff;stroke-width:0.75;" x="337.13328" xlink:href="#m83b5c71103" y="60.058553"/>
     <use style="fill:#1f77b4;stroke:#ffffff;stroke-width:0.75;" x="340.700912" xlink:href="#m83b5c71103" y="60.058553"/>
     <use style="fill:#1f77b4;stroke:#ffffff;stroke-width:0.75;" x="344.268545" xlink:href="#m83b5c71103" y="54.498478"/>
     <use style="fill:#1f77b4;stroke:#ffffff;stroke-width:0.75;" x="347.836177" xlink:href="#m83b5c71103" y="54.498478"/>
     <use style="fill:#1f77b4;stroke:#ffffff;stroke-width:0.75;" x="351.403809" xlink:href="#m83b5c71103" y="54.498478"/>
     <use style="fill:#1f77b4;stroke:#ffffff;stroke-width:0.75;" x="354.971442" xlink:href="#m83b5c71103" y="54.498478"/>
     <use style="fill:#1f77b4;stroke:#ffffff;stroke-width:0.75;" x="358.539074" xlink:href="#m83b5c71103" y="60.058553"/>
     <use style="fill:#1f77b4;stroke:#ffffff;stroke-width:0.75;" x="362.106706" xlink:href="#m83b5c71103" y="60.058553"/>
     <use style="fill:#1f77b4;stroke:#ffffff;stroke-width:0.75;" x="365.674339" xlink:href="#m83b5c71103" y="60.398966"/>
     <use style="fill:#1f77b4;stroke:#ffffff;stroke-width:0.75;" x="369.241971" xlink:href="#m83b5c71103" y="60.058553"/>
     <use style="fill:#1f77b4;stroke:#ffffff;stroke-width:0.75;" x="372.809604" xlink:href="#m83b5c71103" y="60.058553"/>
     <use style="fill:#1f77b4;stroke:#ffffff;stroke-width:0.75;" x="376.377236" xlink:href="#m83b5c71103" y="45.761217"/>
     <use style="fill:#1f77b4;stroke:#ffffff;stroke-width:0.75;" x="379.944868" xlink:href="#m83b5c71103" y="52.909885"/>
     <use style="fill:#1f77b4;stroke:#ffffff;stroke-width:0.75;" x="383.512501" xlink:href="#m83b5c71103" y="47.122868"/>
     <use style="fill:#1f77b4;stroke:#ffffff;stroke-width:0.75;" x="387.080133" xlink:href="#m83b5c71103" y="46.442042"/>
     <use style="fill:#1f77b4;stroke:#ffffff;stroke-width:0.75;" x="390.647765" xlink:href="#m83b5c71103" y="47.122868"/>
     <use style="fill:#1f77b4;stroke:#ffffff;stroke-width:0.75;" x="394.215398" xlink:href="#m83b5c71103" y="58.46996"/>
    </g>
   </g>
   <g id="line2d_15"/>
   <g id="line2d_16"/>
   <g id="patch_3">
    <path d="M 53.328125 264.079266 
L 53.328125 37.137427 
" style="fill:none;stroke:#000000;stroke-linecap:square;stroke-linejoin:miter;stroke-width:0.8;"/>
   </g>
   <g id="patch_4">
    <path d="M 69.560852 288.430125 
L 343.079334 288.430125 
" style="fill:none;stroke:#000000;stroke-linecap:square;stroke-linejoin:miter;stroke-width:0.8;"/>
   </g>
   <g id="text_15">
    <!-- file_magic_fuzzer (23h, 11 trials/fuzzer) -->
    <g transform="translate(113.353438 16.318125)scale(0.12 -0.12)">
     <defs>
      <path d="M 2375 4863 
L 2375 4384 
L 1825 4384 
Q 1516 4384 1395 4259 
Q 1275 4134 1275 3809 
L 1275 3500 
L 2222 3500 
L 2222 3053 
L 1275 3053 
L 1275 0 
L 697 0 
L 697 3053 
L 147 3053 
L 147 3500 
L 697 3500 
L 697 3744 
Q 697 4328 969 4595 
Q 1241 4863 1831 4863 
L 2375 4863 
z
" id="DejaVuSans-66" transform="scale(0.015625)"/>
      <path d="M 603 4863 
L 1178 4863 
L 1178 0 
L 603 0 
L 603 4863 
z
" id="DejaVuSans-6c" transform="scale(0.015625)"/>
      <path d="M 3263 -1063 
L 3263 -1509 
L -63 -1509 
L -63 -1063 
L 3263 -1063 
z
" id="DejaVuSans-5f" transform="scale(0.015625)"/>
      <path d="M 353 3500 
L 3084 3500 
L 3084 2975 
L 922 459 
L 3084 459 
L 3084 0 
L 275 0 
L 275 525 
L 2438 3041 
L 353 3041 
L 353 3500 
z
" id="DejaVuSans-7a" transform="scale(0.015625)"/>
      <path d="M 750 794 
L 1409 794 
L 1409 256 
L 897 -744 
L 494 -744 
L 750 256 
L 750 794 
z
" id="DejaVuSans-2c" transform="scale(0.015625)"/>
      <path d="M 2834 3397 
L 2834 2853 
Q 2591 2978 2328 3040 
Q 2066 3103 1784 3103 
Q 1356 3103 1142 2972 
Q 928 2841 928 2578 
Q 928 2378 1081 2264 
Q 1234 2150 1697 2047 
L 1894 2003 
Q 2506 1872 2764 1633 
Q 3022 1394 3022 966 
Q 3022 478 2636 193 
Q 2250 -91 1575 -91 
Q 1294 -91 989 -36 
Q 684 19 347 128 
L 347 722 
Q 666 556 975 473 
Q 1284 391 1588 391 
Q 1994 391 2212 530 
Q 2431 669 2431 922 
Q 2431 1156 2273 1281 
Q 2116 1406 1581 1522 
L 1381 1569 
Q 847 1681 609 1914 
Q 372 2147 372 2553 
Q 372 3047 722 3315 
Q 1072 3584 1716 3584 
Q 2034 3584 2315 3537 
Q 2597 3491 2834 3397 
z
" id="DejaVuSans-73" transform="scale(0.015625)"/>
      <path d="M 1625 4666 
L 2156 4666 
L 531 -594 
L 0 -594 
L 1625 4666 
z
" id="DejaVuSans-2f" transform="scale(0.015625)"/>
     </defs>
     <use xlink:href="#DejaVuSans-66"/>
     <use x="35.205078" xlink:href="#DejaVuSans-69"/>
     <use x="62.988281" xlink:href="#DejaVuSans-6c"/>
     <use x="90.771484" xlink:href="#DejaVuSans-65"/>
     <use x="152.294922" xlink:href="#DejaVuSans-5f"/>
     <use x="202.294922" xlink:href="#DejaVuSans-6d"/>
     <use x="299.707031" xlink:href="#DejaVuSans-61"/>
     <use x="360.986328" xlink:href="#DejaVuSans-67"/>
     <use x="424.462891" xlink:href="#DejaVuSans-69"/>
     <use x="452.246094" xlink:href="#DejaVuSans-63"/>
     <use x="507.226562" xlink:href="#DejaVuSans-5f"/>
     <use x="557.226562" xlink:href="#DejaVuSans-66"/>
     <use x="592.431641" xlink:href="#DejaVuSans-75"/>
     <use x="655.810547" xlink:href="#DejaVuSans-7a"/>
     <use x="708.300781" xlink:href="#DejaVuSans-7a"/>
     <use x="760.791016" xlink:href="#DejaVuSans-65"/>
     <use x="822.314453" xlink:href="#DejaVuSans-72"/>
     <use x="863.427734" xlink:href="#DejaVuSans-20"/>
     <use x="895.214844" xlink:href="#DejaVuSans-28"/>
     <use x="934.228516" xlink:href="#DejaVuSans-32"/>
     <use x="997.851562" xlink:href="#DejaVuSans-33"/>
     <use x="1061.474609" xlink:href="#DejaVuSans-68"/>
     <use x="1124.853516" xlink:href="#DejaVuSans-2c"/>
     <use x="1156.640625" xlink:href="#DejaVuSans-20"/>
     <use x="1188.427734" xlink:href="#DejaVuSans-31"/>
     <use x="1252.050781" xlink:href="#DejaVuSans-31"/>
     <use x="1315.673828" xlink:href="#DejaVuSans-20"/>
     <use x="1347.460938" xlink:href="#DejaVuSans-74"/>
     <use x="1386.669922" xlink:href="#DejaVuSans-72"/>
     <use x="1427.783203" xlink:href="#DejaVuSans-69"/>
     <use x="1455.566406" xlink:href="#DejaVuSans-61"/>
     <use x="1516.845703" xlink:href="#DejaVuSans-6c"/>
     <use x="1544.628906" xlink:href="#DejaVuSans-73"/>
     <use x="1596.728516" xlink:href="#DejaVuSans-2f"/>
     <use x="1630.419922" xlink:href="#DejaVuSans-66"/>
     <use x="1665.625" xlink:href="#DejaVuSans-75"/>
     <use x="1729.003906" xlink:href="#DejaVuSans-7a"/>
     <use x="1781.494141" xlink:href="#DejaVuSans-7a"/>
     <use x="1833.984375" xlink:href="#DejaVuSans-65"/>
     <use x="1895.507812" xlink:href="#DejaVuSans-72"/>
     <use x="1936.621094" xlink:href="#DejaVuSans-29"/>
    </g>
   </g>
   <g id="legend_1">
    <g id="line2d_17">
     <path d="M 414.448125 30.416562 
L 434.448125 30.416562 
" style="fill:none;stroke:#98df8a;stroke-linecap:square;stroke-width:1.5;"/>
    </g>
    <g id="line2d_18">
     <defs>
      <path d="M -0 3 
L 3 -3 
L -3 -3 
z
" id="m36df9b9c4e" style="stroke:#98df8a;stroke-linejoin:miter;"/>
     </defs>
     <g>
      <use style="fill:#98df8a;stroke:#98df8a;stroke-linejoin:miter;" x="424.448125" xlink:href="#m36df9b9c4e" y="30.416562"/>
     </g>
    </g>
    <g id="text_16">
     <!-- afl_double_timeout -->
     <g transform="translate(442.448125 33.916562)scale(0.1 -0.1)">
      <defs>
       <path d="M 3116 1747 
Q 3116 2381 2855 2742 
Q 2594 3103 2138 3103 
Q 1681 3103 1420 2742 
Q 1159 2381 1159 1747 
Q 1159 1113 1420 752 
Q 1681 391 2138 391 
Q 2594 391 2855 752 
Q 3116 1113 3116 1747 
z
M 1159 2969 
Q 1341 3281 1617 3432 
Q 1894 3584 2278 3584 
Q 2916 3584 3314 3078 
Q 3713 2572 3713 1747 
Q 3713 922 3314 415 
Q 2916 -91 2278 -91 
Q 1894 -91 1617 61 
Q 1341 213 1159 525 
L 1159 0 
L 581 0 
L 581 4863 
L 1159 4863 
L 1159 2969 
z
" id="DejaVuSans-62" transform="scale(0.015625)"/>
      </defs>
      <use xlink:href="#DejaVuSans-61"/>
      <use x="61.279297" xlink:href="#DejaVuSans-66"/>
      <use x="96.484375" xlink:href="#DejaVuSans-6c"/>
      <use x="124.267578" xlink:href="#DejaVuSans-5f"/>
      <use x="174.267578" xlink:href="#DejaVuSans-64"/>
      <use x="237.744141" xlink:href="#DejaVuSans-6f"/>
      <use x="298.925781" xlink:href="#DejaVuSans-75"/>
      <use x="362.304688" xlink:href="#DejaVuSans-62"/>
      <use x="425.78125" xlink:href="#DejaVuSans-6c"/>
      <use x="453.564453" xlink:href="#DejaVuSans-65"/>
      <use x="515.087891" xlink:href="#DejaVuSans-5f"/>
      <use x="565.087891" xlink:href="#DejaVuSans-74"/>
      <use x="604.296875" xlink:href="#DejaVuSans-69"/>
      <use x="632.080078" xlink:href="#DejaVuSans-6d"/>
      <use x="729.492188" xlink:href="#DejaVuSans-65"/>
      <use x="791.015625" xlink:href="#DejaVuSans-6f"/>
      <use x="852.197266" xlink:href="#DejaVuSans-75"/>
      <use x="915.576172" xlink:href="#DejaVuSans-74"/>
     </g>
    </g>
    <g id="line2d_19">
     <path d="M 414.448125 45.372813 
L 434.448125 45.372813 
" style="fill:none;stroke:#1f77b4;stroke-linecap:square;stroke-width:1.5;"/>
    </g>
    <g id="line2d_20">
     <defs>
      <path d="M 0 3 
C 0.795609 3 1.55874 2.683901 2.12132 2.12132 
C 2.683901 1.55874 3 0.795609 3 0 
C 3 -0.795609 2.683901 -1.55874 2.12132 -2.12132 
C 1.55874 -2.683901 0.795609 -3 0 -3 
C -0.795609 -3 -1.55874 -2.683901 -2.12132 -2.12132 
C -2.683901 -1.55874 -3 -0.795609 -3 0 
C -3 0.795609 -2.683901 1.55874 -2.12132 2.12132 
C -1.55874 2.683901 -0.795609 3 0 3 
z
" id="mae43350496" style="stroke:#1f77b4;"/>
     </defs>
     <g>
      <use style="fill:#1f77b4;stroke:#1f77b4;" x="424.448125" xlink:href="#mae43350496" y="45.372813"/>
     </g>
    </g>
    <g id="text_17">
     <!-- afl -->
     <g transform="translate(442.448125 48.872813)scale(0.1 -0.1)">
      <use xlink:href="#DejaVuSans-61"/>
      <use x="61.279297" xlink:href="#DejaVuSans-66"/>
      <use x="96.484375" xlink:href="#DejaVuSans-6c"/>
     </g>
    </g>
   </g>
  </g>
 </g>
 <defs>
  <clipPath id="pab97d7ebec">
   <rect height="266.112" width="357.12" x="53.328125" y="22.318125"/>
  </clipPath>
 </defs>
</svg>
