<?xml version="1.0" encoding="utf-8" standalone="no"?>
<!DOCTYPE svg PUBLIC "-//W3C//DTD SVG 1.1//EN"
  "http://www.w3.org/Graphics/SVG/1.1/DTD/svg11.dtd">
<svg height="325.986375pt" version="1.1" viewBox="0 0 555.490312 325.986375" width="555.490312pt" xmlns="http://www.w3.org/2000/svg" xmlns:xlink="http://www.w3.org/1999/xlink">
 <metadata>
  <rdf:RDF xmlns:cc="http://creativecommons.org/ns#" xmlns:dc="http://purl.org/dc/elements/1.1/" xmlns:rdf="http://www.w3.org/1999/02/22-rdf-syntax-ns#">
   <cc:Work>
    <dc:type rdf:resource="http://purl.org/dc/dcmitype/StillImage"/>
    <dc:date>2022-06-03T13:55:25.109456</dc:date>
    <dc:format>image/svg+xml</dc:format>
    <dc:creator>
     <cc:Agent>
      <dc:title>Matplotlib v3.4.3, https://matplotlib.org/</dc:title>
     </cc:Agent>
    </dc:creator>
   </cc:Work>
  </rdf:RDF>
 </metadata>
 <defs>
  <style type="text/css">*{stroke-linecap:butt;stroke-linejoin:round;}</style>
 </defs>
 <g id="figure_1">
  <g id="patch_1">
   <path d="M 0 325.986375 
L 555.490312 325.986375 
L 555.490312 0 
L 0 0 
z
" style="fill:#ffffff;"/>
  </g>
  <g id="axes_1">
   <g id="patch_2">
    <path d="M 59.690625 288.430125 
L 416.810625 288.430125 
L 416.810625 22.318125 
L 59.690625 22.318125 
z
" style="fill:#ffffff;"/>
   </g>
   <g id="PolyCollection_1">
    <defs>
     <path d="M 75.923352 -120.398603 
L 75.923352 -83.055037 
L 79.490985 -131.564141 
L 83.058617 -161.745499 
L 86.626249 -179.666657 
L 90.193882 -183.075743 
L 93.761514 -184.921028 
L 97.329146 -201.028178 
L 100.896779 -204.7813 
L 104.464411 -208.034006 
L 108.032044 -214.320485 
L 111.599676 -214.445589 
L 115.167308 -222.92139 
L 118.734941 -225.110712 
L 122.302573 -227.018549 
L 125.870205 -238.449933 
L 129.437838 -235.119037 
L 133.00547 -235.96349 
L 136.573103 -237.621119 
L 140.140735 -246.80884 
L 143.708367 -254.056666 
L 147.276 -254.072304 
L 150.843632 -258.232015 
L 154.411264 -259.232847 
L 157.978897 -263.479349 
L 161.546529 -262.032051 
L 165.114161 -261.140684 
L 168.681794 -261.484721 
L 172.249426 -262.548105 
L 175.817059 -265.488051 
L 179.384691 -264.799979 
L 182.952323 -266.582712 
L 186.519956 -266.144847 
L 190.087588 -266.582712 
L 193.65522 -266.707816 
L 197.222853 -267.69301 
L 200.790485 -267.333336 
L 204.358118 -268.531207 
L 207.92575 -269.991798 
L 211.493382 -271.524322 
L 215.061015 -269.428829 
L 218.628647 -271.670538 
L 222.196279 -269.522657 
L 225.763912 -270.242006 
L 229.331544 -270.83625 
L 232.899176 -271.508684 
L 236.466809 -271.899635 
L 240.034441 -272.384413 
L 243.602074 -272.556431 
L 247.169706 -272.775363 
L 250.737338 -273.244503 
L 254.304971 -273.859859 
L 257.872603 -276.497209 
L 261.440235 -273.963852 
L 265.007868 -273.960724 
L 268.5755 -274.182784 
L 272.143132 -274.120232 
L 275.710765 -277.404214 
L 279.278397 -277.466766 
L 282.84603 -277.989075 
L 286.413662 -277.466766 
L 289.981294 -277.466766 
L 293.548927 -277.466766 
L 297.116559 -277.466766 
L 300.684191 -277.810802 
L 304.251824 -277.873354 
L 307.819456 -277.935906 
L 311.387089 -277.935906 
L 314.954721 -277.935906 
L 318.522353 -277.935906 
L 322.089986 -277.935906 
L 325.657618 -277.935906 
L 329.22525 -277.998458 
L 332.792883 -278.53015 
L 336.360515 -278.623979 
L 339.928147 -278.936739 
L 343.49578 -279.061843 
L 347.063412 -279.061843 
L 350.631045 -279.218223 
L 354.198677 -279.718639 
L 357.766309 -279.718639 
L 361.333942 -279.718639 
L 364.901574 -279.718639 
L 368.469206 -279.718639 
L 372.036839 -279.718639 
L 375.604471 -280.375436 
L 379.172104 -280.375436 
L 382.739736 -281.219888 
L 386.307368 -281.407544 
L 389.875001 -279.749915 
L 393.442633 -279.749915 
L 397.010265 -281.43882 
L 400.577898 -281.814132 
L 400.577898 -291.509698 
L 400.577898 -291.509698 
L 397.010265 -291.509698 
L 393.442633 -291.509698 
L 389.875001 -291.509698 
L 386.307368 -291.509698 
L 382.739736 -291.509698 
L 379.172104 -291.57225 
L 375.604471 -291.509698 
L 372.036839 -291.509698 
L 368.469206 -291.509698 
L 364.901574 -291.478422 
L 361.333942 -291.41587 
L 357.766309 -291.41587 
L 354.198677 -291.41587 
L 350.631045 -290.727798 
L 347.063412 -291.509698 
L 343.49578 -291.509698 
L 339.928147 -290.508865 
L 336.360515 -290.102277 
L 332.792883 -289.852069 
L 329.22525 -289.476757 
L 325.657618 -289.351653 
L 322.089986 -290.071001 
L 318.522353 -289.257825 
L 314.954721 -290.071001 
L 311.387089 -290.071001 
L 307.819456 -285.801825 
L 304.251824 -284.941734 
L 300.684191 -287.912956 
L 297.116559 -284.159834 
L 293.548927 -286.036395 
L 289.981294 -287.912956 
L 286.413662 -287.099779 
L 282.84603 -283.799378 
L 279.278397 -286.787019 
L 275.710765 -286.787019 
L 272.143132 -282.533481 
L 268.5755 -286.787019 
L 265.007868 -282.502205 
L 261.440235 -286.787019 
L 257.872603 -288.084974 
L 254.304971 -283.815798 
L 250.737338 -286.568087 
L 247.169706 -286.442983 
L 243.602074 -283.847074 
L 240.034441 -282.220721 
L 236.466809 -281.845408 
L 232.899176 -280.598277 
L 229.331544 -280.594368 
L 225.763912 -280.875852 
L 222.196279 -280.565046 
L 218.628647 -284.284938 
L 215.061015 -280.125227 
L 211.493382 -280.250331 
L 207.92575 -282.658585 
L 204.358118 -279.937571 
L 200.790485 -280.125227 
L 197.222853 -282.830603 
L 193.65522 -279.718639 
L 190.087588 -278.968015 
L 186.519956 -278.905463 
L 182.952323 -281.90796 
L 179.384691 -278.21739 
L 175.817059 -278.21739 
L 172.249426 -278.21739 
L 168.681794 -274.558096 
L 165.114161 -278.154838 
L 161.546529 -278.968015 
L 157.978897 -278.107924 
L 154.411264 -276.153173 
L 150.843632 -274.120232 
L 147.276 -275.15234 
L 143.708367 -276.121897 
L 140.140735 -271.164648 
L 136.573103 -268.865861 
L 133.00547 -268.146512 
L 129.437838 -264.518494 
L 125.870205 -266.035381 
L 122.302573 -264.362114 
L 118.734941 -263.45511 
L 115.167308 -259.139019 
L 111.599676 -258.008391 
L 108.032044 -256.011417 
L 104.464411 -253.47806 
L 100.896779 -247.723273 
L 97.329146 -245.064811 
L 93.761514 -241.217861 
L 90.193882 -234.149481 
L 86.626249 -230.208702 
L 83.058617 -215.446422 
L 79.490985 -168.938983 
L 75.923352 -120.398603 
z
" id="ma4f9e16a10" style="stroke:#98df8a;stroke-opacity:0.2;"/>
    </defs>
    <g clip-path="url(#pac1ab44aef)">
     <use style="fill:#98df8a;fill-opacity:0.2;stroke:#98df8a;stroke-opacity:0.2;" x="0" xlink:href="#ma4f9e16a10" y="325.986375"/>
    </g>
   </g>
   <g id="PolyCollection_2">
    <defs>
     <path d="M 75.923352 -106.512051 
L 75.923352 -49.65225 
L 79.490985 -88.747273 
L 83.058617 -116.082512 
L 86.626249 -140.196322 
L 90.193882 -163.747164 
L 93.761514 -166.655834 
L 97.329146 -175.788431 
L 100.896779 -176.007363 
L 104.464411 -182.012359 
L 108.032044 -191.410802 
L 111.599676 -199.550777 
L 115.167308 -206.501481 
L 118.734941 -211.724576 
L 122.302573 -213.288377 
L 125.870205 -222.671182 
L 129.437838 -225.767508 
L 133.00547 -229.52063 
L 136.573103 -231.365915 
L 140.140735 -244.032702 
L 143.708367 -249.513825 
L 147.276 -252.85254 
L 150.843632 -254.322512 
L 154.411264 -244.986621 
L 157.978897 -255.417173 
L 161.546529 -249.975146 
L 165.114161 -255.573553 
L 168.681794 -257.070111 
L 172.249426 -247.926567 
L 175.817059 -258.484569 
L 179.384691 -254.150494 
L 182.952323 -256.324178 
L 186.519956 -253.696601 
L 190.087588 -240.217028 
L 193.65522 -258.294567 
L 197.222853 -259.201571 
L 200.790485 -257.76092 
L 204.358118 -260.640268 
L 207.92575 -264.143182 
L 211.493382 -271.034853 
L 215.061015 -268.224702 
L 218.628647 -264.143182 
L 222.196279 -264.143182 
L 225.763912 -268.318531 
L 229.331544 -268.535117 
L 232.899176 -264.299562 
L 236.466809 -269.304898 
L 240.034441 -264.518494 
L 243.602074 -265.550603 
L 247.169706 -266.051019 
L 250.737338 -271.336666 
L 254.304971 -272.667461 
L 257.872603 -268.944051 
L 261.440235 -271.430494 
L 265.007868 -272.712811 
L 268.5755 -270.355772 
L 272.143132 -270.36711 
L 275.710765 -271.242838 
L 279.278397 -272.274947 
L 282.84603 -274.464268 
L 286.413662 -274.440811 
L 289.981294 -271.69634 
L 293.548927 -274.464268 
L 297.116559 -274.026404 
L 300.684191 -268.959689 
L 304.251824 -269.460105 
L 307.819456 -269.553933 
L 311.387089 -269.553933 
L 314.954721 -274.464268 
L 318.522353 -275.246169 
L 322.089986 -272.650259 
L 325.657618 -275.496377 
L 329.22525 -274.589372 
L 332.792883 -274.651924 
L 336.360515 -274.651924 
L 339.928147 -274.745752 
L 343.49578 -274.933408 
L 347.063412 -274.99596 
L 350.631045 -270.99263 
L 354.198677 -275.684033 
L 357.766309 -275.67465 
L 361.333942 -275.652757 
L 364.901574 -275.684033 
L 368.469206 -275.684033 
L 372.036839 -271.493046 
L 375.604471 -277.247834 
L 379.172104 -275.684033 
L 382.739736 -275.684033 
L 386.307368 -275.684033 
L 389.875001 -275.684033 
L 393.442633 -277.404214 
L 397.010265 -275.871689 
L 400.577898 -275.934241 
L 400.577898 -289.351653 
L 400.577898 -289.351653 
L 397.010265 -288.710494 
L 393.442633 -289.351653 
L 389.875001 -290.164829 
L 386.307368 -288.66358 
L 382.739736 -285.473426 
L 379.172104 -287.600196 
L 375.604471 -287.600196 
L 372.036839 -284.472594 
L 368.469206 -287.381264 
L 364.901574 -286.862864 
L 361.333942 -285.801825 
L 357.766309 -287.287436 
L 354.198677 -287.287436 
L 350.631045 -284.066006 
L 347.063412 -285.191942 
L 343.49578 -286.255327 
L 339.928147 -284.89482 
L 336.360515 -286.036395 
L 332.792883 -283.753245 
L 329.22525 -284.159834 
L 325.657618 -282.439653 
L 322.089986 -282.377101 
L 318.522353 -282.377101 
L 314.954721 -283.066346 
L 311.387089 -282.377101 
L 307.819456 -282.251997 
L 304.251824 -282.251997 
L 300.684191 -282.158169 
L 297.116559 -282.095617 
L 293.548927 -281.90796 
L 289.981294 -281.344992 
L 286.413662 -281.344992 
L 282.84603 -281.344992 
L 279.278397 -281.157336 
L 275.710765 -281.12606 
L 272.143132 -280.875852 
L 268.5755 -280.750748 
L 265.007868 -280.688196 
L 261.440235 -280.706179 
L 257.872603 -280.688196 
L 254.304971 -280.563092 
L 250.737338 -280.156503 
L 247.169706 -278.686531 
L 243.602074 -277.90463 
L 240.034441 -277.27911 
L 236.466809 -278.733445 
L 232.899176 -277.654422 
L 229.331544 -275.965517 
L 225.763912 -276.043707 
L 222.196279 -274.870856 
L 218.628647 -274.745752 
L 215.061015 -277.419852 
L 211.493382 -276.903798 
L 207.92575 -276.903798 
L 204.358118 -274.464268 
L 200.790485 -274.714476 
L 197.222853 -274.698838 
L 193.65522 -275.371273 
L 190.087588 -273.74492 
L 186.519956 -273.74492 
L 182.952323 -273.870024 
L 179.384691 -273.400883 
L 175.817059 -272.900467 
L 172.249426 -271.117734 
L 168.681794 -271.117734 
L 165.114161 -270.148178 
L 161.546529 -268.865861 
L 157.978897 -268.490549 
L 154.411264 -267.958856 
L 150.843632 -267.489716 
L 147.276 -267.208232 
L 143.708367 -266.269951 
L 140.140735 -265.801593 
L 136.573103 -264.721788 
L 133.00547 -262.485553 
L 129.437838 -261.046856 
L 125.870205 -260.921752 
L 122.302573 -258.920087 
L 118.734941 -254.541445 
L 115.167308 -251.789155 
L 111.599676 -247.598169 
L 108.032044 -247.441788 
L 104.464411 -241.124033 
L 100.896779 -237.377166 
L 97.329146 -227.112377 
L 93.761514 -223.797119 
L 90.193882 -215.258766 
L 86.626249 -190.550712 
L 83.058617 -183.451055 
L 79.490985 -142.072883 
L 75.923352 -106.512051 
z
" id="m3a94eeb4e2" style="stroke:#1f77b4;stroke-opacity:0.2;"/>
    </defs>
    <g clip-path="url(#pac1ab44aef)">
     <use style="fill:#1f77b4;fill-opacity:0.2;stroke:#1f77b4;stroke-opacity:0.2;" x="0" xlink:href="#m3a94eeb4e2" y="325.986375"/>
    </g>
   </g>
   <g id="matplotlib.axis_1">
    <g id="xtick_1">
     <g id="line2d_1">
      <defs>
       <path d="M 0 0 
L 0 3.5 
" id="m9862ffd7e2" style="stroke:#000000;stroke-width:0.8;"/>
      </defs>
      <g>
       <use style="stroke:#000000;stroke-width:0.8;" x="75.923352" xlink:href="#m9862ffd7e2" y="288.430125"/>
      </g>
     </g>
     <g id="text_1">
      <!-- 15m -->
      <g transform="translate(64.69054 303.028562)scale(0.1 -0.1)">
       <defs>
        <path d="M 794 531 
L 1825 531 
L 1825 4091 
L 703 3866 
L 703 4441 
L 1819 4666 
L 2450 4666 
L 2450 531 
L 3481 531 
L 3481 0 
L 794 0 
L 794 531 
z
" id="DejaVuSans-31" transform="scale(0.015625)"/>
        <path d="M 691 4666 
L 3169 4666 
L 3169 4134 
L 1269 4134 
L 1269 2991 
Q 1406 3038 1543 3061 
Q 1681 3084 1819 3084 
Q 2600 3084 3056 2656 
Q 3513 2228 3513 1497 
Q 3513 744 3044 326 
Q 2575 -91 1722 -91 
Q 1428 -91 1123 -41 
Q 819 9 494 109 
L 494 744 
Q 775 591 1075 516 
Q 1375 441 1709 441 
Q 2250 441 2565 725 
Q 2881 1009 2881 1497 
Q 2881 1984 2565 2268 
Q 2250 2553 1709 2553 
Q 1456 2553 1204 2497 
Q 953 2441 691 2322 
L 691 4666 
z
" id="DejaVuSans-35" transform="scale(0.015625)"/>
        <path d="M 3328 2828 
Q 3544 3216 3844 3400 
Q 4144 3584 4550 3584 
Q 5097 3584 5394 3201 
Q 5691 2819 5691 2113 
L 5691 0 
L 5113 0 
L 5113 2094 
Q 5113 2597 4934 2840 
Q 4756 3084 4391 3084 
Q 3944 3084 3684 2787 
Q 3425 2491 3425 1978 
L 3425 0 
L 2847 0 
L 2847 2094 
Q 2847 2600 2669 2842 
Q 2491 3084 2119 3084 
Q 1678 3084 1418 2786 
Q 1159 2488 1159 1978 
L 1159 0 
L 581 0 
L 581 3500 
L 1159 3500 
L 1159 2956 
Q 1356 3278 1631 3431 
Q 1906 3584 2284 3584 
Q 2666 3584 2933 3390 
Q 3200 3197 3328 2828 
z
" id="DejaVuSans-6d" transform="scale(0.015625)"/>
       </defs>
       <use xlink:href="#DejaVuSans-31"/>
       <use x="63.623047" xlink:href="#DejaVuSans-35"/>
       <use x="127.246094" xlink:href="#DejaVuSans-6d"/>
      </g>
     </g>
    </g>
    <g id="xtick_2">
     <g id="line2d_2">
      <g>
       <use style="stroke:#000000;stroke-width:0.8;" x="130.627049" xlink:href="#m9862ffd7e2" y="288.430125"/>
      </g>
     </g>
     <g id="text_2">
      <!-- 4h:5m -->
      <g transform="translate(114.541111 303.028562)scale(0.1 -0.1)">
       <defs>
        <path d="M 2419 4116 
L 825 1625 
L 2419 1625 
L 2419 4116 
z
M 2253 4666 
L 3047 4666 
L 3047 1625 
L 3713 1625 
L 3713 1100 
L 3047 1100 
L 3047 0 
L 2419 0 
L 2419 1100 
L 313 1100 
L 313 1709 
L 2253 4666 
z
" id="DejaVuSans-34" transform="scale(0.015625)"/>
        <path d="M 3513 2113 
L 3513 0 
L 2938 0 
L 2938 2094 
Q 2938 2591 2744 2837 
Q 2550 3084 2163 3084 
Q 1697 3084 1428 2787 
Q 1159 2491 1159 1978 
L 1159 0 
L 581 0 
L 581 4863 
L 1159 4863 
L 1159 2956 
Q 1366 3272 1645 3428 
Q 1925 3584 2291 3584 
Q 2894 3584 3203 3211 
Q 3513 2838 3513 2113 
z
" id="DejaVuSans-68" transform="scale(0.015625)"/>
        <path d="M 750 794 
L 1409 794 
L 1409 0 
L 750 0 
L 750 794 
z
M 750 3309 
L 1409 3309 
L 1409 2516 
L 750 2516 
L 750 3309 
z
" id="DejaVuSans-3a" transform="scale(0.015625)"/>
       </defs>
       <use xlink:href="#DejaVuSans-34"/>
       <use x="63.623047" xlink:href="#DejaVuSans-68"/>
       <use x="127.001953" xlink:href="#DejaVuSans-3a"/>
       <use x="160.693359" xlink:href="#DejaVuSans-35"/>
       <use x="224.316406" xlink:href="#DejaVuSans-6d"/>
      </g>
     </g>
    </g>
    <g id="xtick_3">
     <g id="line2d_3">
      <g>
       <use style="stroke:#000000;stroke-width:0.8;" x="185.330745" xlink:href="#m9862ffd7e2" y="288.430125"/>
      </g>
     </g>
     <g id="text_3">
      <!-- 7h:55m -->
      <g transform="translate(166.063557 303.028562)scale(0.1 -0.1)">
       <defs>
        <path d="M 525 4666 
L 3525 4666 
L 3525 4397 
L 1831 0 
L 1172 0 
L 2766 4134 
L 525 4134 
L 525 4666 
z
" id="DejaVuSans-37" transform="scale(0.015625)"/>
       </defs>
       <use xlink:href="#DejaVuSans-37"/>
       <use x="63.623047" xlink:href="#DejaVuSans-68"/>
       <use x="127.001953" xlink:href="#DejaVuSans-3a"/>
       <use x="160.693359" xlink:href="#DejaVuSans-35"/>
       <use x="224.316406" xlink:href="#DejaVuSans-35"/>
       <use x="287.939453" xlink:href="#DejaVuSans-6d"/>
      </g>
     </g>
    </g>
    <g id="xtick_4">
     <g id="line2d_4">
      <g>
       <use style="stroke:#000000;stroke-width:0.8;" x="240.034441" xlink:href="#m9862ffd7e2" y="288.430125"/>
      </g>
     </g>
     <g id="text_4">
      <!-- 11h:45m -->
      <g transform="translate(217.586004 303.028562)scale(0.1 -0.1)">
       <use xlink:href="#DejaVuSans-31"/>
       <use x="63.623047" xlink:href="#DejaVuSans-31"/>
       <use x="127.246094" xlink:href="#DejaVuSans-68"/>
       <use x="190.625" xlink:href="#DejaVuSans-3a"/>
       <use x="224.316406" xlink:href="#DejaVuSans-34"/>
       <use x="287.939453" xlink:href="#DejaVuSans-35"/>
       <use x="351.5625" xlink:href="#DejaVuSans-6d"/>
      </g>
     </g>
    </g>
    <g id="xtick_5">
     <g id="line2d_5">
      <g>
       <use style="stroke:#000000;stroke-width:0.8;" x="294.738137" xlink:href="#m9862ffd7e2" y="288.430125"/>
      </g>
     </g>
     <g id="text_5">
      <!-- 15h:35m -->
      <g transform="translate(272.2897 303.028562)scale(0.1 -0.1)">
       <defs>
        <path d="M 2597 2516 
Q 3050 2419 3304 2112 
Q 3559 1806 3559 1356 
Q 3559 666 3084 287 
Q 2609 -91 1734 -91 
Q 1441 -91 1130 -33 
Q 819 25 488 141 
L 488 750 
Q 750 597 1062 519 
Q 1375 441 1716 441 
Q 2309 441 2620 675 
Q 2931 909 2931 1356 
Q 2931 1769 2642 2001 
Q 2353 2234 1838 2234 
L 1294 2234 
L 1294 2753 
L 1863 2753 
Q 2328 2753 2575 2939 
Q 2822 3125 2822 3475 
Q 2822 3834 2567 4026 
Q 2313 4219 1838 4219 
Q 1578 4219 1281 4162 
Q 984 4106 628 3988 
L 628 4550 
Q 988 4650 1302 4700 
Q 1616 4750 1894 4750 
Q 2613 4750 3031 4423 
Q 3450 4097 3450 3541 
Q 3450 3153 3228 2886 
Q 3006 2619 2597 2516 
z
" id="DejaVuSans-33" transform="scale(0.015625)"/>
       </defs>
       <use xlink:href="#DejaVuSans-31"/>
       <use x="63.623047" xlink:href="#DejaVuSans-35"/>
       <use x="127.246094" xlink:href="#DejaVuSans-68"/>
       <use x="190.625" xlink:href="#DejaVuSans-3a"/>
       <use x="224.316406" xlink:href="#DejaVuSans-33"/>
       <use x="287.939453" xlink:href="#DejaVuSans-35"/>
       <use x="351.5625" xlink:href="#DejaVuSans-6d"/>
      </g>
     </g>
    </g>
    <g id="xtick_6">
     <g id="line2d_6">
      <g>
       <use style="stroke:#000000;stroke-width:0.8;" x="349.441834" xlink:href="#m9862ffd7e2" y="288.430125"/>
      </g>
     </g>
     <g id="text_6">
      <!-- 19h:25m -->
      <g transform="translate(326.993396 303.028562)scale(0.1 -0.1)">
       <defs>
        <path d="M 703 97 
L 703 672 
Q 941 559 1184 500 
Q 1428 441 1663 441 
Q 2288 441 2617 861 
Q 2947 1281 2994 2138 
Q 2813 1869 2534 1725 
Q 2256 1581 1919 1581 
Q 1219 1581 811 2004 
Q 403 2428 403 3163 
Q 403 3881 828 4315 
Q 1253 4750 1959 4750 
Q 2769 4750 3195 4129 
Q 3622 3509 3622 2328 
Q 3622 1225 3098 567 
Q 2575 -91 1691 -91 
Q 1453 -91 1209 -44 
Q 966 3 703 97 
z
M 1959 2075 
Q 2384 2075 2632 2365 
Q 2881 2656 2881 3163 
Q 2881 3666 2632 3958 
Q 2384 4250 1959 4250 
Q 1534 4250 1286 3958 
Q 1038 3666 1038 3163 
Q 1038 2656 1286 2365 
Q 1534 2075 1959 2075 
z
" id="DejaVuSans-39" transform="scale(0.015625)"/>
        <path d="M 1228 531 
L 3431 531 
L 3431 0 
L 469 0 
L 469 531 
Q 828 903 1448 1529 
Q 2069 2156 2228 2338 
Q 2531 2678 2651 2914 
Q 2772 3150 2772 3378 
Q 2772 3750 2511 3984 
Q 2250 4219 1831 4219 
Q 1534 4219 1204 4116 
Q 875 4013 500 3803 
L 500 4441 
Q 881 4594 1212 4672 
Q 1544 4750 1819 4750 
Q 2544 4750 2975 4387 
Q 3406 4025 3406 3419 
Q 3406 3131 3298 2873 
Q 3191 2616 2906 2266 
Q 2828 2175 2409 1742 
Q 1991 1309 1228 531 
z
" id="DejaVuSans-32" transform="scale(0.015625)"/>
       </defs>
       <use xlink:href="#DejaVuSans-31"/>
       <use x="63.623047" xlink:href="#DejaVuSans-39"/>
       <use x="127.246094" xlink:href="#DejaVuSans-68"/>
       <use x="190.625" xlink:href="#DejaVuSans-3a"/>
       <use x="224.316406" xlink:href="#DejaVuSans-32"/>
       <use x="287.939453" xlink:href="#DejaVuSans-35"/>
       <use x="351.5625" xlink:href="#DejaVuSans-6d"/>
      </g>
     </g>
    </g>
    <g id="text_7">
     <!-- Time (hour:minute) -->
     <g transform="translate(189.843594 316.706687)scale(0.1 -0.1)">
      <defs>
       <path d="M -19 4666 
L 3928 4666 
L 3928 4134 
L 2272 4134 
L 2272 0 
L 1638 0 
L 1638 4134 
L -19 4134 
L -19 4666 
z
" id="DejaVuSans-54" transform="scale(0.015625)"/>
       <path d="M 603 3500 
L 1178 3500 
L 1178 0 
L 603 0 
L 603 3500 
z
M 603 4863 
L 1178 4863 
L 1178 4134 
L 603 4134 
L 603 4863 
z
" id="DejaVuSans-69" transform="scale(0.015625)"/>
       <path d="M 3597 1894 
L 3597 1613 
L 953 1613 
Q 991 1019 1311 708 
Q 1631 397 2203 397 
Q 2534 397 2845 478 
Q 3156 559 3463 722 
L 3463 178 
Q 3153 47 2828 -22 
Q 2503 -91 2169 -91 
Q 1331 -91 842 396 
Q 353 884 353 1716 
Q 353 2575 817 3079 
Q 1281 3584 2069 3584 
Q 2775 3584 3186 3129 
Q 3597 2675 3597 1894 
z
M 3022 2063 
Q 3016 2534 2758 2815 
Q 2500 3097 2075 3097 
Q 1594 3097 1305 2825 
Q 1016 2553 972 2059 
L 3022 2063 
z
" id="DejaVuSans-65" transform="scale(0.015625)"/>
       <path id="DejaVuSans-20" transform="scale(0.015625)"/>
       <path d="M 1984 4856 
Q 1566 4138 1362 3434 
Q 1159 2731 1159 2009 
Q 1159 1288 1364 580 
Q 1569 -128 1984 -844 
L 1484 -844 
Q 1016 -109 783 600 
Q 550 1309 550 2009 
Q 550 2706 781 3412 
Q 1013 4119 1484 4856 
L 1984 4856 
z
" id="DejaVuSans-28" transform="scale(0.015625)"/>
       <path d="M 1959 3097 
Q 1497 3097 1228 2736 
Q 959 2375 959 1747 
Q 959 1119 1226 758 
Q 1494 397 1959 397 
Q 2419 397 2687 759 
Q 2956 1122 2956 1747 
Q 2956 2369 2687 2733 
Q 2419 3097 1959 3097 
z
M 1959 3584 
Q 2709 3584 3137 3096 
Q 3566 2609 3566 1747 
Q 3566 888 3137 398 
Q 2709 -91 1959 -91 
Q 1206 -91 779 398 
Q 353 888 353 1747 
Q 353 2609 779 3096 
Q 1206 3584 1959 3584 
z
" id="DejaVuSans-6f" transform="scale(0.015625)"/>
       <path d="M 544 1381 
L 544 3500 
L 1119 3500 
L 1119 1403 
Q 1119 906 1312 657 
Q 1506 409 1894 409 
Q 2359 409 2629 706 
Q 2900 1003 2900 1516 
L 2900 3500 
L 3475 3500 
L 3475 0 
L 2900 0 
L 2900 538 
Q 2691 219 2414 64 
Q 2138 -91 1772 -91 
Q 1169 -91 856 284 
Q 544 659 544 1381 
z
M 1991 3584 
L 1991 3584 
z
" id="DejaVuSans-75" transform="scale(0.015625)"/>
       <path d="M 2631 2963 
Q 2534 3019 2420 3045 
Q 2306 3072 2169 3072 
Q 1681 3072 1420 2755 
Q 1159 2438 1159 1844 
L 1159 0 
L 581 0 
L 581 3500 
L 1159 3500 
L 1159 2956 
Q 1341 3275 1631 3429 
Q 1922 3584 2338 3584 
Q 2397 3584 2469 3576 
Q 2541 3569 2628 3553 
L 2631 2963 
z
" id="DejaVuSans-72" transform="scale(0.015625)"/>
       <path d="M 3513 2113 
L 3513 0 
L 2938 0 
L 2938 2094 
Q 2938 2591 2744 2837 
Q 2550 3084 2163 3084 
Q 1697 3084 1428 2787 
Q 1159 2491 1159 1978 
L 1159 0 
L 581 0 
L 581 3500 
L 1159 3500 
L 1159 2956 
Q 1366 3272 1645 3428 
Q 1925 3584 2291 3584 
Q 2894 3584 3203 3211 
Q 3513 2838 3513 2113 
z
" id="DejaVuSans-6e" transform="scale(0.015625)"/>
       <path d="M 1172 4494 
L 1172 3500 
L 2356 3500 
L 2356 3053 
L 1172 3053 
L 1172 1153 
Q 1172 725 1289 603 
Q 1406 481 1766 481 
L 2356 481 
L 2356 0 
L 1766 0 
Q 1100 0 847 248 
Q 594 497 594 1153 
L 594 3053 
L 172 3053 
L 172 3500 
L 594 3500 
L 594 4494 
L 1172 4494 
z
" id="DejaVuSans-74" transform="scale(0.015625)"/>
       <path d="M 513 4856 
L 1013 4856 
Q 1481 4119 1714 3412 
Q 1947 2706 1947 2009 
Q 1947 1309 1714 600 
Q 1481 -109 1013 -844 
L 513 -844 
Q 928 -128 1133 580 
Q 1338 1288 1338 2009 
Q 1338 2731 1133 3434 
Q 928 4138 513 4856 
z
" id="DejaVuSans-29" transform="scale(0.015625)"/>
      </defs>
      <use xlink:href="#DejaVuSans-54"/>
      <use x="57.958984" xlink:href="#DejaVuSans-69"/>
      <use x="85.742188" xlink:href="#DejaVuSans-6d"/>
      <use x="183.154297" xlink:href="#DejaVuSans-65"/>
      <use x="244.677734" xlink:href="#DejaVuSans-20"/>
      <use x="276.464844" xlink:href="#DejaVuSans-28"/>
      <use x="315.478516" xlink:href="#DejaVuSans-68"/>
      <use x="378.857422" xlink:href="#DejaVuSans-6f"/>
      <use x="440.039062" xlink:href="#DejaVuSans-75"/>
      <use x="503.417969" xlink:href="#DejaVuSans-72"/>
      <use x="542.78125" xlink:href="#DejaVuSans-3a"/>
      <use x="576.472656" xlink:href="#DejaVuSans-6d"/>
      <use x="673.884766" xlink:href="#DejaVuSans-69"/>
      <use x="701.667969" xlink:href="#DejaVuSans-6e"/>
      <use x="765.046875" xlink:href="#DejaVuSans-75"/>
      <use x="828.425781" xlink:href="#DejaVuSans-74"/>
      <use x="867.634766" xlink:href="#DejaVuSans-65"/>
      <use x="929.158203" xlink:href="#DejaVuSans-29"/>
     </g>
    </g>
   </g>
   <g id="matplotlib.axis_2">
    <g id="ytick_1">
     <g id="line2d_7">
      <defs>
       <path d="M 0 0 
L -3.5 0 
" id="m90c610052f" style="stroke:#000000;stroke-width:0.8;"/>
      </defs>
      <g>
       <use style="stroke:#000000;stroke-width:0.8;" x="59.690625" xlink:href="#m90c610052f" y="277.084749"/>
      </g>
     </g>
     <g id="text_8">
      <!-- 13000 -->
      <g transform="translate(20.878125 280.883968)scale(0.1 -0.1)">
       <defs>
        <path d="M 2034 4250 
Q 1547 4250 1301 3770 
Q 1056 3291 1056 2328 
Q 1056 1369 1301 889 
Q 1547 409 2034 409 
Q 2525 409 2770 889 
Q 3016 1369 3016 2328 
Q 3016 3291 2770 3770 
Q 2525 4250 2034 4250 
z
M 2034 4750 
Q 2819 4750 3233 4129 
Q 3647 3509 3647 2328 
Q 3647 1150 3233 529 
Q 2819 -91 2034 -91 
Q 1250 -91 836 529 
Q 422 1150 422 2328 
Q 422 3509 836 4129 
Q 1250 4750 2034 4750 
z
" id="DejaVuSans-30" transform="scale(0.015625)"/>
       </defs>
       <use xlink:href="#DejaVuSans-31"/>
       <use x="63.623047" xlink:href="#DejaVuSans-33"/>
       <use x="127.246094" xlink:href="#DejaVuSans-30"/>
       <use x="190.869141" xlink:href="#DejaVuSans-30"/>
       <use x="254.492188" xlink:href="#DejaVuSans-30"/>
      </g>
     </g>
    </g>
    <g id="ytick_2">
     <g id="line2d_8">
      <g>
       <use style="stroke:#000000;stroke-width:0.8;" x="59.690625" xlink:href="#m90c610052f" y="245.808731"/>
      </g>
     </g>
     <g id="text_9">
      <!-- 14000 -->
      <g transform="translate(20.878125 249.60795)scale(0.1 -0.1)">
       <use xlink:href="#DejaVuSans-31"/>
       <use x="63.623047" xlink:href="#DejaVuSans-34"/>
       <use x="127.246094" xlink:href="#DejaVuSans-30"/>
       <use x="190.869141" xlink:href="#DejaVuSans-30"/>
       <use x="254.492188" xlink:href="#DejaVuSans-30"/>
      </g>
     </g>
    </g>
    <g id="ytick_3">
     <g id="line2d_9">
      <g>
       <use style="stroke:#000000;stroke-width:0.8;" x="59.690625" xlink:href="#m90c610052f" y="214.532713"/>
      </g>
     </g>
     <g id="text_10">
      <!-- 15000 -->
      <g transform="translate(20.878125 218.331932)scale(0.1 -0.1)">
       <use xlink:href="#DejaVuSans-31"/>
       <use x="63.623047" xlink:href="#DejaVuSans-35"/>
       <use x="127.246094" xlink:href="#DejaVuSans-30"/>
       <use x="190.869141" xlink:href="#DejaVuSans-30"/>
       <use x="254.492188" xlink:href="#DejaVuSans-30"/>
      </g>
     </g>
    </g>
    <g id="ytick_4">
     <g id="line2d_10">
      <g>
       <use style="stroke:#000000;stroke-width:0.8;" x="59.690625" xlink:href="#m90c610052f" y="183.256695"/>
      </g>
     </g>
     <g id="text_11">
      <!-- 16000 -->
      <g transform="translate(20.878125 187.055914)scale(0.1 -0.1)">
       <defs>
        <path d="M 2113 2584 
Q 1688 2584 1439 2293 
Q 1191 2003 1191 1497 
Q 1191 994 1439 701 
Q 1688 409 2113 409 
Q 2538 409 2786 701 
Q 3034 994 3034 1497 
Q 3034 2003 2786 2293 
Q 2538 2584 2113 2584 
z
M 3366 4563 
L 3366 3988 
Q 3128 4100 2886 4159 
Q 2644 4219 2406 4219 
Q 1781 4219 1451 3797 
Q 1122 3375 1075 2522 
Q 1259 2794 1537 2939 
Q 1816 3084 2150 3084 
Q 2853 3084 3261 2657 
Q 3669 2231 3669 1497 
Q 3669 778 3244 343 
Q 2819 -91 2113 -91 
Q 1303 -91 875 529 
Q 447 1150 447 2328 
Q 447 3434 972 4092 
Q 1497 4750 2381 4750 
Q 2619 4750 2861 4703 
Q 3103 4656 3366 4563 
z
" id="DejaVuSans-36" transform="scale(0.015625)"/>
       </defs>
       <use xlink:href="#DejaVuSans-31"/>
       <use x="63.623047" xlink:href="#DejaVuSans-36"/>
       <use x="127.246094" xlink:href="#DejaVuSans-30"/>
       <use x="190.869141" xlink:href="#DejaVuSans-30"/>
       <use x="254.492188" xlink:href="#DejaVuSans-30"/>
      </g>
     </g>
    </g>
    <g id="ytick_5">
     <g id="line2d_11">
      <g>
       <use style="stroke:#000000;stroke-width:0.8;" x="59.690625" xlink:href="#m90c610052f" y="151.980677"/>
      </g>
     </g>
     <g id="text_12">
      <!-- 17000 -->
      <g transform="translate(20.878125 155.779896)scale(0.1 -0.1)">
       <use xlink:href="#DejaVuSans-31"/>
       <use x="63.623047" xlink:href="#DejaVuSans-37"/>
       <use x="127.246094" xlink:href="#DejaVuSans-30"/>
       <use x="190.869141" xlink:href="#DejaVuSans-30"/>
       <use x="254.492188" xlink:href="#DejaVuSans-30"/>
      </g>
     </g>
    </g>
    <g id="ytick_6">
     <g id="line2d_12">
      <g>
       <use style="stroke:#000000;stroke-width:0.8;" x="59.690625" xlink:href="#m90c610052f" y="120.704659"/>
      </g>
     </g>
     <g id="text_13">
      <!-- 18000 -->
      <g transform="translate(20.878125 124.503878)scale(0.1 -0.1)">
       <defs>
        <path d="M 2034 2216 
Q 1584 2216 1326 1975 
Q 1069 1734 1069 1313 
Q 1069 891 1326 650 
Q 1584 409 2034 409 
Q 2484 409 2743 651 
Q 3003 894 3003 1313 
Q 3003 1734 2745 1975 
Q 2488 2216 2034 2216 
z
M 1403 2484 
Q 997 2584 770 2862 
Q 544 3141 544 3541 
Q 544 4100 942 4425 
Q 1341 4750 2034 4750 
Q 2731 4750 3128 4425 
Q 3525 4100 3525 3541 
Q 3525 3141 3298 2862 
Q 3072 2584 2669 2484 
Q 3125 2378 3379 2068 
Q 3634 1759 3634 1313 
Q 3634 634 3220 271 
Q 2806 -91 2034 -91 
Q 1263 -91 848 271 
Q 434 634 434 1313 
Q 434 1759 690 2068 
Q 947 2378 1403 2484 
z
M 1172 3481 
Q 1172 3119 1398 2916 
Q 1625 2713 2034 2713 
Q 2441 2713 2670 2916 
Q 2900 3119 2900 3481 
Q 2900 3844 2670 4047 
Q 2441 4250 2034 4250 
Q 1625 4250 1398 4047 
Q 1172 3844 1172 3481 
z
" id="DejaVuSans-38" transform="scale(0.015625)"/>
       </defs>
       <use xlink:href="#DejaVuSans-31"/>
       <use x="63.623047" xlink:href="#DejaVuSans-38"/>
       <use x="127.246094" xlink:href="#DejaVuSans-30"/>
       <use x="190.869141" xlink:href="#DejaVuSans-30"/>
       <use x="254.492188" xlink:href="#DejaVuSans-30"/>
      </g>
     </g>
    </g>
    <g id="ytick_7">
     <g id="line2d_13">
      <g>
       <use style="stroke:#000000;stroke-width:0.8;" x="59.690625" xlink:href="#m90c610052f" y="89.428641"/>
      </g>
     </g>
     <g id="text_14">
      <!-- 19000 -->
      <g transform="translate(20.878125 93.22786)scale(0.1 -0.1)">
       <use xlink:href="#DejaVuSans-31"/>
       <use x="63.623047" xlink:href="#DejaVuSans-39"/>
       <use x="127.246094" xlink:href="#DejaVuSans-30"/>
       <use x="190.869141" xlink:href="#DejaVuSans-30"/>
       <use x="254.492188" xlink:href="#DejaVuSans-30"/>
      </g>
     </g>
    </g>
    <g id="ytick_8">
     <g id="line2d_14">
      <g>
       <use style="stroke:#000000;stroke-width:0.8;" x="59.690625" xlink:href="#m90c610052f" y="58.152623"/>
      </g>
     </g>
     <g id="text_15">
      <!-- 20000 -->
      <g transform="translate(20.878125 61.951841)scale(0.1 -0.1)">
       <use xlink:href="#DejaVuSans-32"/>
       <use x="63.623047" xlink:href="#DejaVuSans-30"/>
       <use x="127.246094" xlink:href="#DejaVuSans-30"/>
       <use x="190.869141" xlink:href="#DejaVuSans-30"/>
       <use x="254.492188" xlink:href="#DejaVuSans-30"/>
      </g>
     </g>
    </g>
    <g id="ytick_9">
     <g id="line2d_15">
      <g>
       <use style="stroke:#000000;stroke-width:0.8;" x="59.690625" xlink:href="#m90c610052f" y="26.876605"/>
      </g>
     </g>
     <g id="text_16">
      <!-- 21000 -->
      <g transform="translate(20.878125 30.675823)scale(0.1 -0.1)">
       <use xlink:href="#DejaVuSans-32"/>
       <use x="63.623047" xlink:href="#DejaVuSans-31"/>
       <use x="127.246094" xlink:href="#DejaVuSans-30"/>
       <use x="190.869141" xlink:href="#DejaVuSans-30"/>
       <use x="254.492188" xlink:href="#DejaVuSans-30"/>
      </g>
     </g>
    </g>
    <g id="text_17">
     <!-- Code region coverage -->
     <g transform="translate(14.798438 210.379594)rotate(-90)scale(0.1 -0.1)">
      <defs>
       <path d="M 4122 4306 
L 4122 3641 
Q 3803 3938 3442 4084 
Q 3081 4231 2675 4231 
Q 1875 4231 1450 3742 
Q 1025 3253 1025 2328 
Q 1025 1406 1450 917 
Q 1875 428 2675 428 
Q 3081 428 3442 575 
Q 3803 722 4122 1019 
L 4122 359 
Q 3791 134 3420 21 
Q 3050 -91 2638 -91 
Q 1578 -91 968 557 
Q 359 1206 359 2328 
Q 359 3453 968 4101 
Q 1578 4750 2638 4750 
Q 3056 4750 3426 4639 
Q 3797 4528 4122 4306 
z
" id="DejaVuSans-43" transform="scale(0.015625)"/>
       <path d="M 2906 2969 
L 2906 4863 
L 3481 4863 
L 3481 0 
L 2906 0 
L 2906 525 
Q 2725 213 2448 61 
Q 2172 -91 1784 -91 
Q 1150 -91 751 415 
Q 353 922 353 1747 
Q 353 2572 751 3078 
Q 1150 3584 1784 3584 
Q 2172 3584 2448 3432 
Q 2725 3281 2906 2969 
z
M 947 1747 
Q 947 1113 1208 752 
Q 1469 391 1925 391 
Q 2381 391 2643 752 
Q 2906 1113 2906 1747 
Q 2906 2381 2643 2742 
Q 2381 3103 1925 3103 
Q 1469 3103 1208 2742 
Q 947 2381 947 1747 
z
" id="DejaVuSans-64" transform="scale(0.015625)"/>
       <path d="M 2906 1791 
Q 2906 2416 2648 2759 
Q 2391 3103 1925 3103 
Q 1463 3103 1205 2759 
Q 947 2416 947 1791 
Q 947 1169 1205 825 
Q 1463 481 1925 481 
Q 2391 481 2648 825 
Q 2906 1169 2906 1791 
z
M 3481 434 
Q 3481 -459 3084 -895 
Q 2688 -1331 1869 -1331 
Q 1566 -1331 1297 -1286 
Q 1028 -1241 775 -1147 
L 775 -588 
Q 1028 -725 1275 -790 
Q 1522 -856 1778 -856 
Q 2344 -856 2625 -561 
Q 2906 -266 2906 331 
L 2906 616 
Q 2728 306 2450 153 
Q 2172 0 1784 0 
Q 1141 0 747 490 
Q 353 981 353 1791 
Q 353 2603 747 3093 
Q 1141 3584 1784 3584 
Q 2172 3584 2450 3431 
Q 2728 3278 2906 2969 
L 2906 3500 
L 3481 3500 
L 3481 434 
z
" id="DejaVuSans-67" transform="scale(0.015625)"/>
       <path d="M 3122 3366 
L 3122 2828 
Q 2878 2963 2633 3030 
Q 2388 3097 2138 3097 
Q 1578 3097 1268 2742 
Q 959 2388 959 1747 
Q 959 1106 1268 751 
Q 1578 397 2138 397 
Q 2388 397 2633 464 
Q 2878 531 3122 666 
L 3122 134 
Q 2881 22 2623 -34 
Q 2366 -91 2075 -91 
Q 1284 -91 818 406 
Q 353 903 353 1747 
Q 353 2603 823 3093 
Q 1294 3584 2113 3584 
Q 2378 3584 2631 3529 
Q 2884 3475 3122 3366 
z
" id="DejaVuSans-63" transform="scale(0.015625)"/>
       <path d="M 191 3500 
L 800 3500 
L 1894 563 
L 2988 3500 
L 3597 3500 
L 2284 0 
L 1503 0 
L 191 3500 
z
" id="DejaVuSans-76" transform="scale(0.015625)"/>
       <path d="M 2194 1759 
Q 1497 1759 1228 1600 
Q 959 1441 959 1056 
Q 959 750 1161 570 
Q 1363 391 1709 391 
Q 2188 391 2477 730 
Q 2766 1069 2766 1631 
L 2766 1759 
L 2194 1759 
z
M 3341 1997 
L 3341 0 
L 2766 0 
L 2766 531 
Q 2569 213 2275 61 
Q 1981 -91 1556 -91 
Q 1019 -91 701 211 
Q 384 513 384 1019 
Q 384 1609 779 1909 
Q 1175 2209 1959 2209 
L 2766 2209 
L 2766 2266 
Q 2766 2663 2505 2880 
Q 2244 3097 1772 3097 
Q 1472 3097 1187 3025 
Q 903 2953 641 2809 
L 641 3341 
Q 956 3463 1253 3523 
Q 1550 3584 1831 3584 
Q 2591 3584 2966 3190 
Q 3341 2797 3341 1997 
z
" id="DejaVuSans-61" transform="scale(0.015625)"/>
      </defs>
      <use xlink:href="#DejaVuSans-43"/>
      <use x="69.824219" xlink:href="#DejaVuSans-6f"/>
      <use x="131.005859" xlink:href="#DejaVuSans-64"/>
      <use x="194.482422" xlink:href="#DejaVuSans-65"/>
      <use x="256.005859" xlink:href="#DejaVuSans-20"/>
      <use x="287.792969" xlink:href="#DejaVuSans-72"/>
      <use x="326.65625" xlink:href="#DejaVuSans-65"/>
      <use x="388.179688" xlink:href="#DejaVuSans-67"/>
      <use x="451.65625" xlink:href="#DejaVuSans-69"/>
      <use x="479.439453" xlink:href="#DejaVuSans-6f"/>
      <use x="540.621094" xlink:href="#DejaVuSans-6e"/>
      <use x="604" xlink:href="#DejaVuSans-20"/>
      <use x="635.787109" xlink:href="#DejaVuSans-63"/>
      <use x="690.767578" xlink:href="#DejaVuSans-6f"/>
      <use x="751.949219" xlink:href="#DejaVuSans-76"/>
      <use x="811.128906" xlink:href="#DejaVuSans-65"/>
      <use x="872.652344" xlink:href="#DejaVuSans-72"/>
      <use x="913.765625" xlink:href="#DejaVuSans-61"/>
      <use x="975.044922" xlink:href="#DejaVuSans-67"/>
      <use x="1038.521484" xlink:href="#DejaVuSans-65"/>
     </g>
    </g>
   </g>
   <g id="line2d_16">
    <path clip-path="url(#pac1ab44aef)" d="M 75.923352 229.310632 
L 79.490985 183.866577 
L 83.058617 151.511537 
L 86.626249 129.680876 
L 90.193882 117.889817 
L 93.761514 102.439464 
L 97.329146 92.962831 
L 100.896779 89.803953 
L 104.464411 81.797292 
L 108.032044 77.168442 
L 111.599676 76.151971 
L 115.167308 75.244967 
L 118.734941 71.538758 
L 122.302573 71.585673 
L 125.870205 68.770831 
L 129.437838 62.781473 
L 133.00547 62.844025 
L 136.573103 62.578179 
L 140.140735 61.921383 
L 143.708367 58.856333 
L 147.276 59.403663 
L 150.843632 59.200369 
L 154.411264 58.934523 
L 157.978897 57.38636 
L 161.546529 56.932858 
L 165.114161 55.431609 
L 168.681794 55.728731 
L 172.249426 54.743537 
L 175.817059 54.180568 
L 179.384691 53.085908 
L 182.952323 52.304007 
L 186.519956 51.709763 
L 190.087588 51.209347 
L 193.65522 49.238958 
L 197.222853 48.597799 
L 200.790485 49.238958 
L 204.358118 50.23979 
L 207.92575 47.831537 
L 211.493382 47.675157 
L 215.061015 49.53608 
L 218.628647 47.299844 
L 222.196279 48.926197 
L 225.763912 46.987084 
L 229.331544 48.253763 
L 232.899176 48.144297 
L 236.466809 46.893256 
L 240.034441 48.019193 
L 243.602074 46.830704 
L 247.169706 46.830704 
L 250.737338 45.673492 
L 254.304971 46.31465 
L 257.872603 45.376369 
L 261.440235 45.423283 
L 265.007868 45.532749 
L 268.5755 45.204351 
L 272.143132 45.642215 
L 275.710765 45.204351 
L 279.278397 45.204351 
L 282.84603 45.345093 
L 286.413662 45.204351 
L 289.981294 45.110523 
L 293.548927 44.578831 
L 297.116559 45.047971 
L 300.684191 43.734378 
L 304.251824 43.296514 
L 307.819456 43.124496 
L 311.387089 42.514614 
L 314.954721 42.483338 
L 318.522353 42.577166 
L 322.089986 42.201854 
L 325.657618 42.373872 
L 329.22525 42.31132 
L 332.792883 42.31132 
L 336.360515 42.014197 
L 339.928147 42.014197 
L 343.49578 42.014197 
L 347.063412 41.920369 
L 350.631045 41.920369 
L 354.198677 42.170577 
L 357.766309 42.076749 
L 361.333942 41.857817 
L 364.901574 40.200188 
L 368.469206 40.075084 
L 372.036839 40.059446 
L 375.604471 38.730215 
L 379.172104 38.636387 
L 382.739736 39.433926 
L 386.307368 37.698107 
L 389.875001 41.107193 
L 393.442633 40.450396 
L 397.010265 37.385347 
L 400.577898 38.917872 
" style="fill:none;stroke:#98df8a;stroke-linecap:square;stroke-width:1.5;"/>
    <defs>
     <path d="M -0 3 
L 3 -3 
L -3 -3 
z
" id="m4b688da233" style="stroke:#ffffff;stroke-linejoin:miter;stroke-width:0.75;"/>
    </defs>
    <g clip-path="url(#pac1ab44aef)">
     <use style="fill:#98df8a;stroke:#ffffff;stroke-linejoin:miter;stroke-width:0.75;" x="75.923352" xlink:href="#m4b688da233" y="229.310632"/>
     <use style="fill:#98df8a;stroke:#ffffff;stroke-linejoin:miter;stroke-width:0.75;" x="79.490985" xlink:href="#m4b688da233" y="183.866577"/>
     <use style="fill:#98df8a;stroke:#ffffff;stroke-linejoin:miter;stroke-width:0.75;" x="83.058617" xlink:href="#m4b688da233" y="151.511537"/>
     <use style="fill:#98df8a;stroke:#ffffff;stroke-linejoin:miter;stroke-width:0.75;" x="86.626249" xlink:href="#m4b688da233" y="129.680876"/>
     <use style="fill:#98df8a;stroke:#ffffff;stroke-linejoin:miter;stroke-width:0.75;" x="90.193882" xlink:href="#m4b688da233" y="117.889817"/>
     <use style="fill:#98df8a;stroke:#ffffff;stroke-linejoin:miter;stroke-width:0.75;" x="93.761514" xlink:href="#m4b688da233" y="102.439464"/>
     <use style="fill:#98df8a;stroke:#ffffff;stroke-linejoin:miter;stroke-width:0.75;" x="97.329146" xlink:href="#m4b688da233" y="92.962831"/>
     <use style="fill:#98df8a;stroke:#ffffff;stroke-linejoin:miter;stroke-width:0.75;" x="100.896779" xlink:href="#m4b688da233" y="89.803953"/>
     <use style="fill:#98df8a;stroke:#ffffff;stroke-linejoin:miter;stroke-width:0.75;" x="104.464411" xlink:href="#m4b688da233" y="81.797292"/>
     <use style="fill:#98df8a;stroke:#ffffff;stroke-linejoin:miter;stroke-width:0.75;" x="108.032044" xlink:href="#m4b688da233" y="77.168442"/>
     <use style="fill:#98df8a;stroke:#ffffff;stroke-linejoin:miter;stroke-width:0.75;" x="111.599676" xlink:href="#m4b688da233" y="76.151971"/>
     <use style="fill:#98df8a;stroke:#ffffff;stroke-linejoin:miter;stroke-width:0.75;" x="115.167308" xlink:href="#m4b688da233" y="75.244967"/>
     <use style="fill:#98df8a;stroke:#ffffff;stroke-linejoin:miter;stroke-width:0.75;" x="118.734941" xlink:href="#m4b688da233" y="71.538758"/>
     <use style="fill:#98df8a;stroke:#ffffff;stroke-linejoin:miter;stroke-width:0.75;" x="122.302573" xlink:href="#m4b688da233" y="71.585673"/>
     <use style="fill:#98df8a;stroke:#ffffff;stroke-linejoin:miter;stroke-width:0.75;" x="125.870205" xlink:href="#m4b688da233" y="68.770831"/>
     <use style="fill:#98df8a;stroke:#ffffff;stroke-linejoin:miter;stroke-width:0.75;" x="129.437838" xlink:href="#m4b688da233" y="62.781473"/>
     <use style="fill:#98df8a;stroke:#ffffff;stroke-linejoin:miter;stroke-width:0.75;" x="133.00547" xlink:href="#m4b688da233" y="62.844025"/>
     <use style="fill:#98df8a;stroke:#ffffff;stroke-linejoin:miter;stroke-width:0.75;" x="136.573103" xlink:href="#m4b688da233" y="62.578179"/>
     <use style="fill:#98df8a;stroke:#ffffff;stroke-linejoin:miter;stroke-width:0.75;" x="140.140735" xlink:href="#m4b688da233" y="61.921383"/>
     <use style="fill:#98df8a;stroke:#ffffff;stroke-linejoin:miter;stroke-width:0.75;" x="143.708367" xlink:href="#m4b688da233" y="58.856333"/>
     <use style="fill:#98df8a;stroke:#ffffff;stroke-linejoin:miter;stroke-width:0.75;" x="147.276" xlink:href="#m4b688da233" y="59.403663"/>
     <use style="fill:#98df8a;stroke:#ffffff;stroke-linejoin:miter;stroke-width:0.75;" x="150.843632" xlink:href="#m4b688da233" y="59.200369"/>
     <use style="fill:#98df8a;stroke:#ffffff;stroke-linejoin:miter;stroke-width:0.75;" x="154.411264" xlink:href="#m4b688da233" y="58.934523"/>
     <use style="fill:#98df8a;stroke:#ffffff;stroke-linejoin:miter;stroke-width:0.75;" x="157.978897" xlink:href="#m4b688da233" y="57.38636"/>
     <use style="fill:#98df8a;stroke:#ffffff;stroke-linejoin:miter;stroke-width:0.75;" x="161.546529" xlink:href="#m4b688da233" y="56.932858"/>
     <use style="fill:#98df8a;stroke:#ffffff;stroke-linejoin:miter;stroke-width:0.75;" x="165.114161" xlink:href="#m4b688da233" y="55.431609"/>
     <use style="fill:#98df8a;stroke:#ffffff;stroke-linejoin:miter;stroke-width:0.75;" x="168.681794" xlink:href="#m4b688da233" y="55.728731"/>
     <use style="fill:#98df8a;stroke:#ffffff;stroke-linejoin:miter;stroke-width:0.75;" x="172.249426" xlink:href="#m4b688da233" y="54.743537"/>
     <use style="fill:#98df8a;stroke:#ffffff;stroke-linejoin:miter;stroke-width:0.75;" x="175.817059" xlink:href="#m4b688da233" y="54.180568"/>
     <use style="fill:#98df8a;stroke:#ffffff;stroke-linejoin:miter;stroke-width:0.75;" x="179.384691" xlink:href="#m4b688da233" y="53.085908"/>
     <use style="fill:#98df8a;stroke:#ffffff;stroke-linejoin:miter;stroke-width:0.75;" x="182.952323" xlink:href="#m4b688da233" y="52.304007"/>
     <use style="fill:#98df8a;stroke:#ffffff;stroke-linejoin:miter;stroke-width:0.75;" x="186.519956" xlink:href="#m4b688da233" y="51.709763"/>
     <use style="fill:#98df8a;stroke:#ffffff;stroke-linejoin:miter;stroke-width:0.75;" x="190.087588" xlink:href="#m4b688da233" y="51.209347"/>
     <use style="fill:#98df8a;stroke:#ffffff;stroke-linejoin:miter;stroke-width:0.75;" x="193.65522" xlink:href="#m4b688da233" y="49.238958"/>
     <use style="fill:#98df8a;stroke:#ffffff;stroke-linejoin:miter;stroke-width:0.75;" x="197.222853" xlink:href="#m4b688da233" y="48.597799"/>
     <use style="fill:#98df8a;stroke:#ffffff;stroke-linejoin:miter;stroke-width:0.75;" x="200.790485" xlink:href="#m4b688da233" y="49.238958"/>
     <use style="fill:#98df8a;stroke:#ffffff;stroke-linejoin:miter;stroke-width:0.75;" x="204.358118" xlink:href="#m4b688da233" y="50.23979"/>
     <use style="fill:#98df8a;stroke:#ffffff;stroke-linejoin:miter;stroke-width:0.75;" x="207.92575" xlink:href="#m4b688da233" y="47.831537"/>
     <use style="fill:#98df8a;stroke:#ffffff;stroke-linejoin:miter;stroke-width:0.75;" x="211.493382" xlink:href="#m4b688da233" y="47.675157"/>
     <use style="fill:#98df8a;stroke:#ffffff;stroke-linejoin:miter;stroke-width:0.75;" x="215.061015" xlink:href="#m4b688da233" y="49.53608"/>
     <use style="fill:#98df8a;stroke:#ffffff;stroke-linejoin:miter;stroke-width:0.75;" x="218.628647" xlink:href="#m4b688da233" y="47.299844"/>
     <use style="fill:#98df8a;stroke:#ffffff;stroke-linejoin:miter;stroke-width:0.75;" x="222.196279" xlink:href="#m4b688da233" y="48.926197"/>
     <use style="fill:#98df8a;stroke:#ffffff;stroke-linejoin:miter;stroke-width:0.75;" x="225.763912" xlink:href="#m4b688da233" y="46.987084"/>
     <use style="fill:#98df8a;stroke:#ffffff;stroke-linejoin:miter;stroke-width:0.75;" x="229.331544" xlink:href="#m4b688da233" y="48.253763"/>
     <use style="fill:#98df8a;stroke:#ffffff;stroke-linejoin:miter;stroke-width:0.75;" x="232.899176" xlink:href="#m4b688da233" y="48.144297"/>
     <use style="fill:#98df8a;stroke:#ffffff;stroke-linejoin:miter;stroke-width:0.75;" x="236.466809" xlink:href="#m4b688da233" y="46.893256"/>
     <use style="fill:#98df8a;stroke:#ffffff;stroke-linejoin:miter;stroke-width:0.75;" x="240.034441" xlink:href="#m4b688da233" y="48.019193"/>
     <use style="fill:#98df8a;stroke:#ffffff;stroke-linejoin:miter;stroke-width:0.75;" x="243.602074" xlink:href="#m4b688da233" y="46.830704"/>
     <use style="fill:#98df8a;stroke:#ffffff;stroke-linejoin:miter;stroke-width:0.75;" x="247.169706" xlink:href="#m4b688da233" y="46.830704"/>
     <use style="fill:#98df8a;stroke:#ffffff;stroke-linejoin:miter;stroke-width:0.75;" x="250.737338" xlink:href="#m4b688da233" y="45.673492"/>
     <use style="fill:#98df8a;stroke:#ffffff;stroke-linejoin:miter;stroke-width:0.75;" x="254.304971" xlink:href="#m4b688da233" y="46.31465"/>
     <use style="fill:#98df8a;stroke:#ffffff;stroke-linejoin:miter;stroke-width:0.75;" x="257.872603" xlink:href="#m4b688da233" y="45.376369"/>
     <use style="fill:#98df8a;stroke:#ffffff;stroke-linejoin:miter;stroke-width:0.75;" x="261.440235" xlink:href="#m4b688da233" y="45.423283"/>
     <use style="fill:#98df8a;stroke:#ffffff;stroke-linejoin:miter;stroke-width:0.75;" x="265.007868" xlink:href="#m4b688da233" y="45.532749"/>
     <use style="fill:#98df8a;stroke:#ffffff;stroke-linejoin:miter;stroke-width:0.75;" x="268.5755" xlink:href="#m4b688da233" y="45.204351"/>
     <use style="fill:#98df8a;stroke:#ffffff;stroke-linejoin:miter;stroke-width:0.75;" x="272.143132" xlink:href="#m4b688da233" y="45.642215"/>
     <use style="fill:#98df8a;stroke:#ffffff;stroke-linejoin:miter;stroke-width:0.75;" x="275.710765" xlink:href="#m4b688da233" y="45.204351"/>
     <use style="fill:#98df8a;stroke:#ffffff;stroke-linejoin:miter;stroke-width:0.75;" x="279.278397" xlink:href="#m4b688da233" y="45.204351"/>
     <use style="fill:#98df8a;stroke:#ffffff;stroke-linejoin:miter;stroke-width:0.75;" x="282.84603" xlink:href="#m4b688da233" y="45.345093"/>
     <use style="fill:#98df8a;stroke:#ffffff;stroke-linejoin:miter;stroke-width:0.75;" x="286.413662" xlink:href="#m4b688da233" y="45.204351"/>
     <use style="fill:#98df8a;stroke:#ffffff;stroke-linejoin:miter;stroke-width:0.75;" x="289.981294" xlink:href="#m4b688da233" y="45.110523"/>
     <use style="fill:#98df8a;stroke:#ffffff;stroke-linejoin:miter;stroke-width:0.75;" x="293.548927" xlink:href="#m4b688da233" y="44.578831"/>
     <use style="fill:#98df8a;stroke:#ffffff;stroke-linejoin:miter;stroke-width:0.75;" x="297.116559" xlink:href="#m4b688da233" y="45.047971"/>
     <use style="fill:#98df8a;stroke:#ffffff;stroke-linejoin:miter;stroke-width:0.75;" x="300.684191" xlink:href="#m4b688da233" y="43.734378"/>
     <use style="fill:#98df8a;stroke:#ffffff;stroke-linejoin:miter;stroke-width:0.75;" x="304.251824" xlink:href="#m4b688da233" y="43.296514"/>
     <use style="fill:#98df8a;stroke:#ffffff;stroke-linejoin:miter;stroke-width:0.75;" x="307.819456" xlink:href="#m4b688da233" y="43.124496"/>
     <use style="fill:#98df8a;stroke:#ffffff;stroke-linejoin:miter;stroke-width:0.75;" x="311.387089" xlink:href="#m4b688da233" y="42.514614"/>
     <use style="fill:#98df8a;stroke:#ffffff;stroke-linejoin:miter;stroke-width:0.75;" x="314.954721" xlink:href="#m4b688da233" y="42.483338"/>
     <use style="fill:#98df8a;stroke:#ffffff;stroke-linejoin:miter;stroke-width:0.75;" x="318.522353" xlink:href="#m4b688da233" y="42.577166"/>
     <use style="fill:#98df8a;stroke:#ffffff;stroke-linejoin:miter;stroke-width:0.75;" x="322.089986" xlink:href="#m4b688da233" y="42.201854"/>
     <use style="fill:#98df8a;stroke:#ffffff;stroke-linejoin:miter;stroke-width:0.75;" x="325.657618" xlink:href="#m4b688da233" y="42.373872"/>
     <use style="fill:#98df8a;stroke:#ffffff;stroke-linejoin:miter;stroke-width:0.75;" x="329.22525" xlink:href="#m4b688da233" y="42.31132"/>
     <use style="fill:#98df8a;stroke:#ffffff;stroke-linejoin:miter;stroke-width:0.75;" x="332.792883" xlink:href="#m4b688da233" y="42.31132"/>
     <use style="fill:#98df8a;stroke:#ffffff;stroke-linejoin:miter;stroke-width:0.75;" x="336.360515" xlink:href="#m4b688da233" y="42.014197"/>
     <use style="fill:#98df8a;stroke:#ffffff;stroke-linejoin:miter;stroke-width:0.75;" x="339.928147" xlink:href="#m4b688da233" y="42.014197"/>
     <use style="fill:#98df8a;stroke:#ffffff;stroke-linejoin:miter;stroke-width:0.75;" x="343.49578" xlink:href="#m4b688da233" y="42.014197"/>
     <use style="fill:#98df8a;stroke:#ffffff;stroke-linejoin:miter;stroke-width:0.75;" x="347.063412" xlink:href="#m4b688da233" y="41.920369"/>
     <use style="fill:#98df8a;stroke:#ffffff;stroke-linejoin:miter;stroke-width:0.75;" x="350.631045" xlink:href="#m4b688da233" y="41.920369"/>
     <use style="fill:#98df8a;stroke:#ffffff;stroke-linejoin:miter;stroke-width:0.75;" x="354.198677" xlink:href="#m4b688da233" y="42.170577"/>
     <use style="fill:#98df8a;stroke:#ffffff;stroke-linejoin:miter;stroke-width:0.75;" x="357.766309" xlink:href="#m4b688da233" y="42.076749"/>
     <use style="fill:#98df8a;stroke:#ffffff;stroke-linejoin:miter;stroke-width:0.75;" x="361.333942" xlink:href="#m4b688da233" y="41.857817"/>
     <use style="fill:#98df8a;stroke:#ffffff;stroke-linejoin:miter;stroke-width:0.75;" x="364.901574" xlink:href="#m4b688da233" y="40.200188"/>
     <use style="fill:#98df8a;stroke:#ffffff;stroke-linejoin:miter;stroke-width:0.75;" x="368.469206" xlink:href="#m4b688da233" y="40.075084"/>
     <use style="fill:#98df8a;stroke:#ffffff;stroke-linejoin:miter;stroke-width:0.75;" x="372.036839" xlink:href="#m4b688da233" y="40.059446"/>
     <use style="fill:#98df8a;stroke:#ffffff;stroke-linejoin:miter;stroke-width:0.75;" x="375.604471" xlink:href="#m4b688da233" y="38.730215"/>
     <use style="fill:#98df8a;stroke:#ffffff;stroke-linejoin:miter;stroke-width:0.75;" x="379.172104" xlink:href="#m4b688da233" y="38.636387"/>
     <use style="fill:#98df8a;stroke:#ffffff;stroke-linejoin:miter;stroke-width:0.75;" x="382.739736" xlink:href="#m4b688da233" y="39.433926"/>
     <use style="fill:#98df8a;stroke:#ffffff;stroke-linejoin:miter;stroke-width:0.75;" x="386.307368" xlink:href="#m4b688da233" y="37.698107"/>
     <use style="fill:#98df8a;stroke:#ffffff;stroke-linejoin:miter;stroke-width:0.75;" x="389.875001" xlink:href="#m4b688da233" y="41.107193"/>
     <use style="fill:#98df8a;stroke:#ffffff;stroke-linejoin:miter;stroke-width:0.75;" x="393.442633" xlink:href="#m4b688da233" y="40.450396"/>
     <use style="fill:#98df8a;stroke:#ffffff;stroke-linejoin:miter;stroke-width:0.75;" x="397.010265" xlink:href="#m4b688da233" y="37.385347"/>
     <use style="fill:#98df8a;stroke:#ffffff;stroke-linejoin:miter;stroke-width:0.75;" x="400.577898" xlink:href="#m4b688da233" y="38.917872"/>
    </g>
   </g>
   <g id="line2d_17">
    <path clip-path="url(#pac1ab44aef)" d="M 75.923352 240.851482 
L 79.490985 196.345709 
L 83.058617 171.324894 
L 86.626249 157.92312 
L 90.193882 131.917111 
L 93.761514 117.749075 
L 97.329146 112.041202 
L 100.896779 100.906939 
L 104.464411 97.669872 
L 108.032044 94.07313 
L 111.599676 98.748894 
L 115.167308 89.022053 
L 118.734941 81.984949 
L 122.302573 77.277908 
L 125.870205 79.607971 
L 129.437838 74.556894 
L 133.00547 73.5717 
L 136.573103 67.504152 
L 140.140735 64.564206 
L 143.708367 64.470378 
L 147.276 62.640731 
L 150.843632 63.12551 
L 154.411264 61.405329 
L 157.978897 59.622596 
L 161.546529 59.262921 
L 165.114161 58.950161 
L 168.681794 58.121347 
L 172.249426 57.558378 
L 175.817059 55.212677 
L 179.384691 56.307338 
L 182.952323 55.822559 
L 186.519956 56.041492 
L 190.087588 56.119682 
L 193.65522 54.806089 
L 197.222853 55.197039 
L 200.790485 54.524605 
L 204.358118 54.399501 
L 207.92575 53.961636 
L 211.493382 53.805256 
L 215.061015 53.414306 
L 218.628647 53.273564 
L 222.196279 53.179736 
L 225.763912 52.788786 
L 229.331544 52.538577 
L 232.899176 52.022523 
L 236.466809 50.662016 
L 240.034441 50.677654 
L 243.602074 50.818396 
L 247.169706 50.427446 
L 250.737338 50.47436 
L 254.304971 49.739374 
L 257.872603 50.00522 
L 261.440235 49.238958 
L 265.007868 49.801926 
L 268.5755 49.880116 
L 272.143132 49.567356 
L 275.710765 48.738541 
L 279.278397 48.738541 
L 282.84603 48.675989 
L 286.413662 48.675989 
L 289.981294 49.45789 
L 293.548927 48.675989 
L 297.116559 49.3797 
L 300.684191 50.208514 
L 304.251824 50.47436 
L 307.819456 50.208514 
L 311.387089 50.208514 
L 314.954721 49.3797 
L 318.522353 48.519609 
L 322.089986 47.956641 
L 325.657618 47.862813 
L 329.22525 47.815899 
L 332.792883 47.831537 
L 336.360515 46.62741 
L 339.928147 46.439754 
L 343.49578 46.439754 
L 347.063412 46.408478 
L 350.631045 47.706433 
L 354.198677 43.656188 
L 357.766309 45.016695 
L 361.333942 46.111356 
L 364.901574 45.986252 
L 368.469206 45.954976 
L 372.036839 46.86198 
L 375.604471 44.891591 
L 379.172104 45.814234 
L 382.739736 46.830704 
L 386.307368 45.76732 
L 389.875001 45.76732 
L 393.442633 42.608442 
L 397.010265 45.76732 
L 400.577898 45.76732 
" style="fill:none;stroke:#1f77b4;stroke-linecap:square;stroke-width:1.5;"/>
    <defs>
     <path d="M 0 3 
C 0.795609 3 1.55874 2.683901 2.12132 2.12132 
C 2.683901 1.55874 3 0.795609 3 0 
C 3 -0.795609 2.683901 -1.55874 2.12132 -2.12132 
C 1.55874 -2.683901 0.795609 -3 0 -3 
C -0.795609 -3 -1.55874 -2.683901 -2.12132 -2.12132 
C -2.683901 -1.55874 -3 -0.795609 -3 0 
C -3 0.795609 -2.683901 1.55874 -2.12132 2.12132 
C -1.55874 2.683901 -0.795609 3 0 3 
z
" id="m3ed9369c36" style="stroke:#ffffff;stroke-width:0.75;"/>
    </defs>
    <g clip-path="url(#pac1ab44aef)">
     <use style="fill:#1f77b4;stroke:#ffffff;stroke-width:0.75;" x="75.923352" xlink:href="#m3ed9369c36" y="240.851482"/>
     <use style="fill:#1f77b4;stroke:#ffffff;stroke-width:0.75;" x="79.490985" xlink:href="#m3ed9369c36" y="196.345709"/>
     <use style="fill:#1f77b4;stroke:#ffffff;stroke-width:0.75;" x="83.058617" xlink:href="#m3ed9369c36" y="171.324894"/>
     <use style="fill:#1f77b4;stroke:#ffffff;stroke-width:0.75;" x="86.626249" xlink:href="#m3ed9369c36" y="157.92312"/>
     <use style="fill:#1f77b4;stroke:#ffffff;stroke-width:0.75;" x="90.193882" xlink:href="#m3ed9369c36" y="131.917111"/>
     <use style="fill:#1f77b4;stroke:#ffffff;stroke-width:0.75;" x="93.761514" xlink:href="#m3ed9369c36" y="117.749075"/>
     <use style="fill:#1f77b4;stroke:#ffffff;stroke-width:0.75;" x="97.329146" xlink:href="#m3ed9369c36" y="112.041202"/>
     <use style="fill:#1f77b4;stroke:#ffffff;stroke-width:0.75;" x="100.896779" xlink:href="#m3ed9369c36" y="100.906939"/>
     <use style="fill:#1f77b4;stroke:#ffffff;stroke-width:0.75;" x="104.464411" xlink:href="#m3ed9369c36" y="97.669872"/>
     <use style="fill:#1f77b4;stroke:#ffffff;stroke-width:0.75;" x="108.032044" xlink:href="#m3ed9369c36" y="94.07313"/>
     <use style="fill:#1f77b4;stroke:#ffffff;stroke-width:0.75;" x="111.599676" xlink:href="#m3ed9369c36" y="98.748894"/>
     <use style="fill:#1f77b4;stroke:#ffffff;stroke-width:0.75;" x="115.167308" xlink:href="#m3ed9369c36" y="89.022053"/>
     <use style="fill:#1f77b4;stroke:#ffffff;stroke-width:0.75;" x="118.734941" xlink:href="#m3ed9369c36" y="81.984949"/>
     <use style="fill:#1f77b4;stroke:#ffffff;stroke-width:0.75;" x="122.302573" xlink:href="#m3ed9369c36" y="77.277908"/>
     <use style="fill:#1f77b4;stroke:#ffffff;stroke-width:0.75;" x="125.870205" xlink:href="#m3ed9369c36" y="79.607971"/>
     <use style="fill:#1f77b4;stroke:#ffffff;stroke-width:0.75;" x="129.437838" xlink:href="#m3ed9369c36" y="74.556894"/>
     <use style="fill:#1f77b4;stroke:#ffffff;stroke-width:0.75;" x="133.00547" xlink:href="#m3ed9369c36" y="73.5717"/>
     <use style="fill:#1f77b4;stroke:#ffffff;stroke-width:0.75;" x="136.573103" xlink:href="#m3ed9369c36" y="67.504152"/>
     <use style="fill:#1f77b4;stroke:#ffffff;stroke-width:0.75;" x="140.140735" xlink:href="#m3ed9369c36" y="64.564206"/>
     <use style="fill:#1f77b4;stroke:#ffffff;stroke-width:0.75;" x="143.708367" xlink:href="#m3ed9369c36" y="64.470378"/>
     <use style="fill:#1f77b4;stroke:#ffffff;stroke-width:0.75;" x="147.276" xlink:href="#m3ed9369c36" y="62.640731"/>
     <use style="fill:#1f77b4;stroke:#ffffff;stroke-width:0.75;" x="150.843632" xlink:href="#m3ed9369c36" y="63.12551"/>
     <use style="fill:#1f77b4;stroke:#ffffff;stroke-width:0.75;" x="154.411264" xlink:href="#m3ed9369c36" y="61.405329"/>
     <use style="fill:#1f77b4;stroke:#ffffff;stroke-width:0.75;" x="157.978897" xlink:href="#m3ed9369c36" y="59.622596"/>
     <use style="fill:#1f77b4;stroke:#ffffff;stroke-width:0.75;" x="161.546529" xlink:href="#m3ed9369c36" y="59.262921"/>
     <use style="fill:#1f77b4;stroke:#ffffff;stroke-width:0.75;" x="165.114161" xlink:href="#m3ed9369c36" y="58.950161"/>
     <use style="fill:#1f77b4;stroke:#ffffff;stroke-width:0.75;" x="168.681794" xlink:href="#m3ed9369c36" y="58.121347"/>
     <use style="fill:#1f77b4;stroke:#ffffff;stroke-width:0.75;" x="172.249426" xlink:href="#m3ed9369c36" y="57.558378"/>
     <use style="fill:#1f77b4;stroke:#ffffff;stroke-width:0.75;" x="175.817059" xlink:href="#m3ed9369c36" y="55.212677"/>
     <use style="fill:#1f77b4;stroke:#ffffff;stroke-width:0.75;" x="179.384691" xlink:href="#m3ed9369c36" y="56.307338"/>
     <use style="fill:#1f77b4;stroke:#ffffff;stroke-width:0.75;" x="182.952323" xlink:href="#m3ed9369c36" y="55.822559"/>
     <use style="fill:#1f77b4;stroke:#ffffff;stroke-width:0.75;" x="186.519956" xlink:href="#m3ed9369c36" y="56.041492"/>
     <use style="fill:#1f77b4;stroke:#ffffff;stroke-width:0.75;" x="190.087588" xlink:href="#m3ed9369c36" y="56.119682"/>
     <use style="fill:#1f77b4;stroke:#ffffff;stroke-width:0.75;" x="193.65522" xlink:href="#m3ed9369c36" y="54.806089"/>
     <use style="fill:#1f77b4;stroke:#ffffff;stroke-width:0.75;" x="197.222853" xlink:href="#m3ed9369c36" y="55.197039"/>
     <use style="fill:#1f77b4;stroke:#ffffff;stroke-width:0.75;" x="200.790485" xlink:href="#m3ed9369c36" y="54.524605"/>
     <use style="fill:#1f77b4;stroke:#ffffff;stroke-width:0.75;" x="204.358118" xlink:href="#m3ed9369c36" y="54.399501"/>
     <use style="fill:#1f77b4;stroke:#ffffff;stroke-width:0.75;" x="207.92575" xlink:href="#m3ed9369c36" y="53.961636"/>
     <use style="fill:#1f77b4;stroke:#ffffff;stroke-width:0.75;" x="211.493382" xlink:href="#m3ed9369c36" y="53.805256"/>
     <use style="fill:#1f77b4;stroke:#ffffff;stroke-width:0.75;" x="215.061015" xlink:href="#m3ed9369c36" y="53.414306"/>
     <use style="fill:#1f77b4;stroke:#ffffff;stroke-width:0.75;" x="218.628647" xlink:href="#m3ed9369c36" y="53.273564"/>
     <use style="fill:#1f77b4;stroke:#ffffff;stroke-width:0.75;" x="222.196279" xlink:href="#m3ed9369c36" y="53.179736"/>
     <use style="fill:#1f77b4;stroke:#ffffff;stroke-width:0.75;" x="225.763912" xlink:href="#m3ed9369c36" y="52.788786"/>
     <use style="fill:#1f77b4;stroke:#ffffff;stroke-width:0.75;" x="229.331544" xlink:href="#m3ed9369c36" y="52.538577"/>
     <use style="fill:#1f77b4;stroke:#ffffff;stroke-width:0.75;" x="232.899176" xlink:href="#m3ed9369c36" y="52.022523"/>
     <use style="fill:#1f77b4;stroke:#ffffff;stroke-width:0.75;" x="236.466809" xlink:href="#m3ed9369c36" y="50.662016"/>
     <use style="fill:#1f77b4;stroke:#ffffff;stroke-width:0.75;" x="240.034441" xlink:href="#m3ed9369c36" y="50.677654"/>
     <use style="fill:#1f77b4;stroke:#ffffff;stroke-width:0.75;" x="243.602074" xlink:href="#m3ed9369c36" y="50.818396"/>
     <use style="fill:#1f77b4;stroke:#ffffff;stroke-width:0.75;" x="247.169706" xlink:href="#m3ed9369c36" y="50.427446"/>
     <use style="fill:#1f77b4;stroke:#ffffff;stroke-width:0.75;" x="250.737338" xlink:href="#m3ed9369c36" y="50.47436"/>
     <use style="fill:#1f77b4;stroke:#ffffff;stroke-width:0.75;" x="254.304971" xlink:href="#m3ed9369c36" y="49.739374"/>
     <use style="fill:#1f77b4;stroke:#ffffff;stroke-width:0.75;" x="257.872603" xlink:href="#m3ed9369c36" y="50.00522"/>
     <use style="fill:#1f77b4;stroke:#ffffff;stroke-width:0.75;" x="261.440235" xlink:href="#m3ed9369c36" y="49.238958"/>
     <use style="fill:#1f77b4;stroke:#ffffff;stroke-width:0.75;" x="265.007868" xlink:href="#m3ed9369c36" y="49.801926"/>
     <use style="fill:#1f77b4;stroke:#ffffff;stroke-width:0.75;" x="268.5755" xlink:href="#m3ed9369c36" y="49.880116"/>
     <use style="fill:#1f77b4;stroke:#ffffff;stroke-width:0.75;" x="272.143132" xlink:href="#m3ed9369c36" y="49.567356"/>
     <use style="fill:#1f77b4;stroke:#ffffff;stroke-width:0.75;" x="275.710765" xlink:href="#m3ed9369c36" y="48.738541"/>
     <use style="fill:#1f77b4;stroke:#ffffff;stroke-width:0.75;" x="279.278397" xlink:href="#m3ed9369c36" y="48.738541"/>
     <use style="fill:#1f77b4;stroke:#ffffff;stroke-width:0.75;" x="282.84603" xlink:href="#m3ed9369c36" y="48.675989"/>
     <use style="fill:#1f77b4;stroke:#ffffff;stroke-width:0.75;" x="286.413662" xlink:href="#m3ed9369c36" y="48.675989"/>
     <use style="fill:#1f77b4;stroke:#ffffff;stroke-width:0.75;" x="289.981294" xlink:href="#m3ed9369c36" y="49.45789"/>
     <use style="fill:#1f77b4;stroke:#ffffff;stroke-width:0.75;" x="293.548927" xlink:href="#m3ed9369c36" y="48.675989"/>
     <use style="fill:#1f77b4;stroke:#ffffff;stroke-width:0.75;" x="297.116559" xlink:href="#m3ed9369c36" y="49.3797"/>
     <use style="fill:#1f77b4;stroke:#ffffff;stroke-width:0.75;" x="300.684191" xlink:href="#m3ed9369c36" y="50.208514"/>
     <use style="fill:#1f77b4;stroke:#ffffff;stroke-width:0.75;" x="304.251824" xlink:href="#m3ed9369c36" y="50.47436"/>
     <use style="fill:#1f77b4;stroke:#ffffff;stroke-width:0.75;" x="307.819456" xlink:href="#m3ed9369c36" y="50.208514"/>
     <use style="fill:#1f77b4;stroke:#ffffff;stroke-width:0.75;" x="311.387089" xlink:href="#m3ed9369c36" y="50.208514"/>
     <use style="fill:#1f77b4;stroke:#ffffff;stroke-width:0.75;" x="314.954721" xlink:href="#m3ed9369c36" y="49.3797"/>
     <use style="fill:#1f77b4;stroke:#ffffff;stroke-width:0.75;" x="318.522353" xlink:href="#m3ed9369c36" y="48.519609"/>
     <use style="fill:#1f77b4;stroke:#ffffff;stroke-width:0.75;" x="322.089986" xlink:href="#m3ed9369c36" y="47.956641"/>
     <use style="fill:#1f77b4;stroke:#ffffff;stroke-width:0.75;" x="325.657618" xlink:href="#m3ed9369c36" y="47.862813"/>
     <use style="fill:#1f77b4;stroke:#ffffff;stroke-width:0.75;" x="329.22525" xlink:href="#m3ed9369c36" y="47.815899"/>
     <use style="fill:#1f77b4;stroke:#ffffff;stroke-width:0.75;" x="332.792883" xlink:href="#m3ed9369c36" y="47.831537"/>
     <use style="fill:#1f77b4;stroke:#ffffff;stroke-width:0.75;" x="336.360515" xlink:href="#m3ed9369c36" y="46.62741"/>
     <use style="fill:#1f77b4;stroke:#ffffff;stroke-width:0.75;" x="339.928147" xlink:href="#m3ed9369c36" y="46.439754"/>
     <use style="fill:#1f77b4;stroke:#ffffff;stroke-width:0.75;" x="343.49578" xlink:href="#m3ed9369c36" y="46.439754"/>
     <use style="fill:#1f77b4;stroke:#ffffff;stroke-width:0.75;" x="347.063412" xlink:href="#m3ed9369c36" y="46.408478"/>
     <use style="fill:#1f77b4;stroke:#ffffff;stroke-width:0.75;" x="350.631045" xlink:href="#m3ed9369c36" y="47.706433"/>
     <use style="fill:#1f77b4;stroke:#ffffff;stroke-width:0.75;" x="354.198677" xlink:href="#m3ed9369c36" y="43.656188"/>
     <use style="fill:#1f77b4;stroke:#ffffff;stroke-width:0.75;" x="357.766309" xlink:href="#m3ed9369c36" y="45.016695"/>
     <use style="fill:#1f77b4;stroke:#ffffff;stroke-width:0.75;" x="361.333942" xlink:href="#m3ed9369c36" y="46.111356"/>
     <use style="fill:#1f77b4;stroke:#ffffff;stroke-width:0.75;" x="364.901574" xlink:href="#m3ed9369c36" y="45.986252"/>
     <use style="fill:#1f77b4;stroke:#ffffff;stroke-width:0.75;" x="368.469206" xlink:href="#m3ed9369c36" y="45.954976"/>
     <use style="fill:#1f77b4;stroke:#ffffff;stroke-width:0.75;" x="372.036839" xlink:href="#m3ed9369c36" y="46.86198"/>
     <use style="fill:#1f77b4;stroke:#ffffff;stroke-width:0.75;" x="375.604471" xlink:href="#m3ed9369c36" y="44.891591"/>
     <use style="fill:#1f77b4;stroke:#ffffff;stroke-width:0.75;" x="379.172104" xlink:href="#m3ed9369c36" y="45.814234"/>
     <use style="fill:#1f77b4;stroke:#ffffff;stroke-width:0.75;" x="382.739736" xlink:href="#m3ed9369c36" y="46.830704"/>
     <use style="fill:#1f77b4;stroke:#ffffff;stroke-width:0.75;" x="386.307368" xlink:href="#m3ed9369c36" y="45.76732"/>
     <use style="fill:#1f77b4;stroke:#ffffff;stroke-width:0.75;" x="389.875001" xlink:href="#m3ed9369c36" y="45.76732"/>
     <use style="fill:#1f77b4;stroke:#ffffff;stroke-width:0.75;" x="393.442633" xlink:href="#m3ed9369c36" y="42.608442"/>
     <use style="fill:#1f77b4;stroke:#ffffff;stroke-width:0.75;" x="397.010265" xlink:href="#m3ed9369c36" y="45.76732"/>
     <use style="fill:#1f77b4;stroke:#ffffff;stroke-width:0.75;" x="400.577898" xlink:href="#m3ed9369c36" y="45.76732"/>
    </g>
   </g>
   <g id="line2d_18"/>
   <g id="line2d_19"/>
   <g id="patch_3">
    <path d="M 59.690625 277.084749 
L 59.690625 26.876605 
" style="fill:none;stroke:#000000;stroke-linecap:square;stroke-linejoin:miter;stroke-width:0.8;"/>
   </g>
   <g id="patch_4">
    <path d="M 75.923352 288.430125 
L 349.441834 288.430125 
" style="fill:none;stroke:#000000;stroke-linecap:square;stroke-linejoin:miter;stroke-width:0.8;"/>
   </g>
   <g id="text_18">
    <!-- libxml2_libxml2_xml_reader_for_file_fuzzer (23h, 14 trials/fuzzer) -->
    <g transform="translate(42.98625 16.318125)scale(0.12 -0.12)">
     <defs>
      <path d="M 603 4863 
L 1178 4863 
L 1178 0 
L 603 0 
L 603 4863 
z
" id="DejaVuSans-6c" transform="scale(0.015625)"/>
      <path d="M 3116 1747 
Q 3116 2381 2855 2742 
Q 2594 3103 2138 3103 
Q 1681 3103 1420 2742 
Q 1159 2381 1159 1747 
Q 1159 1113 1420 752 
Q 1681 391 2138 391 
Q 2594 391 2855 752 
Q 3116 1113 3116 1747 
z
M 1159 2969 
Q 1341 3281 1617 3432 
Q 1894 3584 2278 3584 
Q 2916 3584 3314 3078 
Q 3713 2572 3713 1747 
Q 3713 922 3314 415 
Q 2916 -91 2278 -91 
Q 1894 -91 1617 61 
Q 1341 213 1159 525 
L 1159 0 
L 581 0 
L 581 4863 
L 1159 4863 
L 1159 2969 
z
" id="DejaVuSans-62" transform="scale(0.015625)"/>
      <path d="M 3513 3500 
L 2247 1797 
L 3578 0 
L 2900 0 
L 1881 1375 
L 863 0 
L 184 0 
L 1544 1831 
L 300 3500 
L 978 3500 
L 1906 2253 
L 2834 3500 
L 3513 3500 
z
" id="DejaVuSans-78" transform="scale(0.015625)"/>
      <path d="M 3263 -1063 
L 3263 -1509 
L -63 -1509 
L -63 -1063 
L 3263 -1063 
z
" id="DejaVuSans-5f" transform="scale(0.015625)"/>
      <path d="M 2375 4863 
L 2375 4384 
L 1825 4384 
Q 1516 4384 1395 4259 
Q 1275 4134 1275 3809 
L 1275 3500 
L 2222 3500 
L 2222 3053 
L 1275 3053 
L 1275 0 
L 697 0 
L 697 3053 
L 147 3053 
L 147 3500 
L 697 3500 
L 697 3744 
Q 697 4328 969 4595 
Q 1241 4863 1831 4863 
L 2375 4863 
z
" id="DejaVuSans-66" transform="scale(0.015625)"/>
      <path d="M 353 3500 
L 3084 3500 
L 3084 2975 
L 922 459 
L 3084 459 
L 3084 0 
L 275 0 
L 275 525 
L 2438 3041 
L 353 3041 
L 353 3500 
z
" id="DejaVuSans-7a" transform="scale(0.015625)"/>
      <path d="M 750 794 
L 1409 794 
L 1409 256 
L 897 -744 
L 494 -744 
L 750 256 
L 750 794 
z
" id="DejaVuSans-2c" transform="scale(0.015625)"/>
      <path d="M 2834 3397 
L 2834 2853 
Q 2591 2978 2328 3040 
Q 2066 3103 1784 3103 
Q 1356 3103 1142 2972 
Q 928 2841 928 2578 
Q 928 2378 1081 2264 
Q 1234 2150 1697 2047 
L 1894 2003 
Q 2506 1872 2764 1633 
Q 3022 1394 3022 966 
Q 3022 478 2636 193 
Q 2250 -91 1575 -91 
Q 1294 -91 989 -36 
Q 684 19 347 128 
L 347 722 
Q 666 556 975 473 
Q 1284 391 1588 391 
Q 1994 391 2212 530 
Q 2431 669 2431 922 
Q 2431 1156 2273 1281 
Q 2116 1406 1581 1522 
L 1381 1569 
Q 847 1681 609 1914 
Q 372 2147 372 2553 
Q 372 3047 722 3315 
Q 1072 3584 1716 3584 
Q 2034 3584 2315 3537 
Q 2597 3491 2834 3397 
z
" id="DejaVuSans-73" transform="scale(0.015625)"/>
      <path d="M 1625 4666 
L 2156 4666 
L 531 -594 
L 0 -594 
L 1625 4666 
z
" id="DejaVuSans-2f" transform="scale(0.015625)"/>
     </defs>
     <use xlink:href="#DejaVuSans-6c"/>
     <use x="27.783203" xlink:href="#DejaVuSans-69"/>
     <use x="55.566406" xlink:href="#DejaVuSans-62"/>
     <use x="119.042969" xlink:href="#DejaVuSans-78"/>
     <use x="178.222656" xlink:href="#DejaVuSans-6d"/>
     <use x="275.634766" xlink:href="#DejaVuSans-6c"/>
     <use x="303.417969" xlink:href="#DejaVuSans-32"/>
     <use x="367.041016" xlink:href="#DejaVuSans-5f"/>
     <use x="417.041016" xlink:href="#DejaVuSans-6c"/>
     <use x="444.824219" xlink:href="#DejaVuSans-69"/>
     <use x="472.607422" xlink:href="#DejaVuSans-62"/>
     <use x="536.083984" xlink:href="#DejaVuSans-78"/>
     <use x="595.263672" xlink:href="#DejaVuSans-6d"/>
     <use x="692.675781" xlink:href="#DejaVuSans-6c"/>
     <use x="720.458984" xlink:href="#DejaVuSans-32"/>
     <use x="784.082031" xlink:href="#DejaVuSans-5f"/>
     <use x="834.082031" xlink:href="#DejaVuSans-78"/>
     <use x="893.261719" xlink:href="#DejaVuSans-6d"/>
     <use x="990.673828" xlink:href="#DejaVuSans-6c"/>
     <use x="1018.457031" xlink:href="#DejaVuSans-5f"/>
     <use x="1068.457031" xlink:href="#DejaVuSans-72"/>
     <use x="1107.320312" xlink:href="#DejaVuSans-65"/>
     <use x="1168.84375" xlink:href="#DejaVuSans-61"/>
     <use x="1230.123047" xlink:href="#DejaVuSans-64"/>
     <use x="1293.599609" xlink:href="#DejaVuSans-65"/>
     <use x="1355.123047" xlink:href="#DejaVuSans-72"/>
     <use x="1396.236328" xlink:href="#DejaVuSans-5f"/>
     <use x="1446.236328" xlink:href="#DejaVuSans-66"/>
     <use x="1481.441406" xlink:href="#DejaVuSans-6f"/>
     <use x="1542.623047" xlink:href="#DejaVuSans-72"/>
     <use x="1583.736328" xlink:href="#DejaVuSans-5f"/>
     <use x="1633.736328" xlink:href="#DejaVuSans-66"/>
     <use x="1668.941406" xlink:href="#DejaVuSans-69"/>
     <use x="1696.724609" xlink:href="#DejaVuSans-6c"/>
     <use x="1724.507812" xlink:href="#DejaVuSans-65"/>
     <use x="1786.03125" xlink:href="#DejaVuSans-5f"/>
     <use x="1836.03125" xlink:href="#DejaVuSans-66"/>
     <use x="1871.236328" xlink:href="#DejaVuSans-75"/>
     <use x="1934.615234" xlink:href="#DejaVuSans-7a"/>
     <use x="1987.105469" xlink:href="#DejaVuSans-7a"/>
     <use x="2039.595703" xlink:href="#DejaVuSans-65"/>
     <use x="2101.119141" xlink:href="#DejaVuSans-72"/>
     <use x="2142.232422" xlink:href="#DejaVuSans-20"/>
     <use x="2174.019531" xlink:href="#DejaVuSans-28"/>
     <use x="2213.033203" xlink:href="#DejaVuSans-32"/>
     <use x="2276.65625" xlink:href="#DejaVuSans-33"/>
     <use x="2340.279297" xlink:href="#DejaVuSans-68"/>
     <use x="2403.658203" xlink:href="#DejaVuSans-2c"/>
     <use x="2435.445312" xlink:href="#DejaVuSans-20"/>
     <use x="2467.232422" xlink:href="#DejaVuSans-31"/>
     <use x="2530.855469" xlink:href="#DejaVuSans-34"/>
     <use x="2594.478516" xlink:href="#DejaVuSans-20"/>
     <use x="2626.265625" xlink:href="#DejaVuSans-74"/>
     <use x="2665.474609" xlink:href="#DejaVuSans-72"/>
     <use x="2706.587891" xlink:href="#DejaVuSans-69"/>
     <use x="2734.371094" xlink:href="#DejaVuSans-61"/>
     <use x="2795.650391" xlink:href="#DejaVuSans-6c"/>
     <use x="2823.433594" xlink:href="#DejaVuSans-73"/>
     <use x="2875.533203" xlink:href="#DejaVuSans-2f"/>
     <use x="2909.224609" xlink:href="#DejaVuSans-66"/>
     <use x="2944.429688" xlink:href="#DejaVuSans-75"/>
     <use x="3007.808594" xlink:href="#DejaVuSans-7a"/>
     <use x="3060.298828" xlink:href="#DejaVuSans-7a"/>
     <use x="3112.789062" xlink:href="#DejaVuSans-65"/>
     <use x="3174.3125" xlink:href="#DejaVuSans-72"/>
     <use x="3215.425781" xlink:href="#DejaVuSans-29"/>
    </g>
   </g>
   <g id="legend_1">
    <g id="line2d_20">
     <path d="M 420.810625 30.416562 
L 440.810625 30.416562 
" style="fill:none;stroke:#98df8a;stroke-linecap:square;stroke-width:1.5;"/>
    </g>
    <g id="line2d_21">
     <defs>
      <path d="M -0 3 
L 3 -3 
L -3 -3 
z
" id="m2afef5b9b6" style="stroke:#98df8a;stroke-linejoin:miter;"/>
     </defs>
     <g>
      <use style="fill:#98df8a;stroke:#98df8a;stroke-linejoin:miter;" x="430.810625" xlink:href="#m2afef5b9b6" y="30.416562"/>
     </g>
    </g>
    <g id="text_19">
     <!-- afl_double_timeout -->
     <g transform="translate(448.810625 33.916562)scale(0.1 -0.1)">
      <use xlink:href="#DejaVuSans-61"/>
      <use x="61.279297" xlink:href="#DejaVuSans-66"/>
      <use x="96.484375" xlink:href="#DejaVuSans-6c"/>
      <use x="124.267578" xlink:href="#DejaVuSans-5f"/>
      <use x="174.267578" xlink:href="#DejaVuSans-64"/>
      <use x="237.744141" xlink:href="#DejaVuSans-6f"/>
      <use x="298.925781" xlink:href="#DejaVuSans-75"/>
      <use x="362.304688" xlink:href="#DejaVuSans-62"/>
      <use x="425.78125" xlink:href="#DejaVuSans-6c"/>
      <use x="453.564453" xlink:href="#DejaVuSans-65"/>
      <use x="515.087891" xlink:href="#DejaVuSans-5f"/>
      <use x="565.087891" xlink:href="#DejaVuSans-74"/>
      <use x="604.296875" xlink:href="#DejaVuSans-69"/>
      <use x="632.080078" xlink:href="#DejaVuSans-6d"/>
      <use x="729.492188" xlink:href="#DejaVuSans-65"/>
      <use x="791.015625" xlink:href="#DejaVuSans-6f"/>
      <use x="852.197266" xlink:href="#DejaVuSans-75"/>
      <use x="915.576172" xlink:href="#DejaVuSans-74"/>
     </g>
    </g>
    <g id="line2d_22">
     <path d="M 420.810625 45.372813 
L 440.810625 45.372813 
" style="fill:none;stroke:#1f77b4;stroke-linecap:square;stroke-width:1.5;"/>
    </g>
    <g id="line2d_23">
     <defs>
      <path d="M 0 3 
C 0.795609 3 1.55874 2.683901 2.12132 2.12132 
C 2.683901 1.55874 3 0.795609 3 0 
C 3 -0.795609 2.683901 -1.55874 2.12132 -2.12132 
C 1.55874 -2.683901 0.795609 -3 0 -3 
C -0.795609 -3 -1.55874 -2.683901 -2.12132 -2.12132 
C -2.683901 -1.55874 -3 -0.795609 -3 0 
C -3 0.795609 -2.683901 1.55874 -2.12132 2.12132 
C -1.55874 2.683901 -0.795609 3 0 3 
z
" id="m45a278f00e" style="stroke:#1f77b4;"/>
     </defs>
     <g>
      <use style="fill:#1f77b4;stroke:#1f77b4;" x="430.810625" xlink:href="#m45a278f00e" y="45.372813"/>
     </g>
    </g>
    <g id="text_20">
     <!-- afl -->
     <g transform="translate(448.810625 48.872813)scale(0.1 -0.1)">
      <use xlink:href="#DejaVuSans-61"/>
      <use x="61.279297" xlink:href="#DejaVuSans-66"/>
      <use x="96.484375" xlink:href="#DejaVuSans-6c"/>
     </g>
    </g>
   </g>
  </g>
 </g>
 <defs>
  <clipPath id="pac1ab44aef">
   <rect height="266.112" width="357.12" x="59.690625" y="22.318125"/>
  </clipPath>
 </defs>
</svg>
