<?xml version="1.0" encoding="utf-8" standalone="no"?>
<!DOCTYPE svg PUBLIC "-//W3C//DTD SVG 1.1//EN"
  "http://www.w3.org/Graphics/SVG/1.1/DTD/svg11.dtd">
<svg height="325.986375pt" version="1.1" viewBox="0 0 561.852812 325.986375" width="561.852812pt" xmlns="http://www.w3.org/2000/svg" xmlns:xlink="http://www.w3.org/1999/xlink">
 <metadata>
  <rdf:RDF xmlns:cc="http://creativecommons.org/ns#" xmlns:dc="http://purl.org/dc/elements/1.1/" xmlns:rdf="http://www.w3.org/1999/02/22-rdf-syntax-ns#">
   <cc:Work>
    <dc:type rdf:resource="http://purl.org/dc/dcmitype/StillImage"/>
    <dc:date>2022-06-03T13:59:47.243703</dc:date>
    <dc:format>image/svg+xml</dc:format>
    <dc:creator>
     <cc:Agent>
      <dc:title>Matplotlib v3.4.3, https://matplotlib.org/</dc:title>
     </cc:Agent>
    </dc:creator>
   </cc:Work>
  </rdf:RDF>
 </metadata>
 <defs>
  <style type="text/css">*{stroke-linecap:butt;stroke-linejoin:round;}</style>
 </defs>
 <g id="figure_1">
  <g id="patch_1">
   <path d="M 0 325.986375 
L 561.852812 325.986375 
L 561.852812 0 
L 0 0 
z
" style="fill:#ffffff;"/>
  </g>
  <g id="axes_1">
   <g id="patch_2">
    <path d="M 66.053125 288.430125 
L 423.173125 288.430125 
L 423.173125 22.318125 
L 66.053125 22.318125 
z
" style="fill:#ffffff;"/>
   </g>
   <g id="PolyCollection_1">
    <defs>
     <path d="M 82.285852 -61.044708 
L 82.285852 -49.851571 
L 132.052306 -74.99097 
L 161.163816 -114.319555 
L 181.81876 -140.156578 
L 197.83998 -153.685511 
L 210.930269 -168.946049 
L 221.997952 -180.612573 
L 231.585214 -192.291556 
L 240.041779 -202.145503 
L 247.606434 -208.635903 
L 254.449496 -212.933768 
L 260.696723 -216.154053 
L 266.443615 -219.686945 
L 271.764406 -220.003445 
L 276.717943 -222.102548 
L 281.351668 -224.301311 
L 285.704383 -225.048766 
L 289.808233 -225.74639 
L 293.690141 -224.687496 
L 297.372888 -224.780928 
L 300.875915 -224.949105 
L 304.21595 -225.353977 
L 307.40749 -230.274721 
L 310.463177 -227.702231 
L 313.394107 -230.623534 
L 316.210069 -226.475159 
L 318.919742 -226.929861 
L 321.530859 -231.726029 
L 324.05034 -232.367595 
L 326.484397 -232.535772 
L 328.838635 -228.680151 
L 331.118122 -233.506218 
L 333.32746 -234.030682 
L 335.470837 -232.246133 
L 337.552079 -235.052204 
L 339.574687 -232.728865 
L 341.541873 -230.256035 
L 343.456595 -235.439634 
L 345.321578 -233.224054 
L 347.139342 -233.39846 
L 348.912217 -233.706785 
L 350.642369 -231.732258 
L 352.331807 -236.534656 
L 353.982404 -231.962723 
L 355.595906 -234.715849 
L 357.173944 -232.143358 
L 358.718042 -235.314046 
L 360.229631 -235.186123 
L 361.710051 -239.057316 
L 363.160561 -239.269095 
L 364.582347 -236.09864 
L 365.976523 -239.381213 
L 367.344142 -236.543999 
L 368.686196 -233.635154 
L 370.003624 -233.980852 
L 371.297313 -237.300797 
L 372.568104 -234.398181 
L 373.816794 -234.404409 
L 375.044136 -234.75945 
L 376.250851 -235.095805 
L 377.437619 -235.170551 
L 378.605089 -237.989078 
L 379.753878 -235.270211 
L 380.884576 -238.397064 
L 381.997743 -235.519363 
L 383.093914 -238.724076 
L 384.1736 -235.99898 
L 385.237291 -239.044858 
L 386.285453 -238.77702 
L 387.318533 -236.25436 
L 388.336959 -242.906709 
L 389.341141 -236.45991 
L 390.331471 -236.603173 
L 391.308327 -243.317809 
L 392.272071 -240.206528 
L 393.223049 -243.479757 
L 394.161596 -243.496108 
L 395.088032 -243.940688 
L 396.002666 -243.940688 
L 396.905795 -240.703352 
L 397.797705 -243.965603 
L 398.678671 -240.717289 
L 399.548958 -237.817787 
L 400.408823 -244.301958 
L 401.258511 -244.314415 
L 402.098261 -244.414076 
L 402.928303 -238.06071 
L 403.748858 -238.06071 
L 404.560142 -238.06071 
L 405.36236 -244.850091 
L 406.155714 -244.850091 
L 406.940398 -244.850091 
L 406.940398 -285.225112 
L 406.940398 -285.225112 
L 406.155714 -285.225112 
L 405.36236 -285.225112 
L 404.560142 -284.988418 
L 403.748858 -279.381962 
L 402.928303 -284.321938 
L 402.098261 -284.191133 
L 401.258511 -280.628265 
L 400.408823 -266.370563 
L 399.548958 -283.773804 
L 398.678671 -283.767575 
L 397.797705 -266.121411 
L 396.905795 -278.987212 
L 396.002666 -283.431221 
L 395.088032 -290.07734 
L 394.161596 -283.412534 
L 393.223049 -283.113708 
L 392.272071 -283.001434 
L 391.308327 -279.413651 
L 390.331471 -282.770969 
L 389.341141 -281.226229 
L 388.336959 -282.76474 
L 387.318533 -281.135911 
L 386.285453 -282.627707 
L 385.237291 -291.57225 
L 384.1736 -281.733875 
L 383.093914 -279.556913 
L 381.997743 -282.266437 
L 380.884576 -287.492392 
L 379.753878 -268.108396 
L 378.605089 -281.824193 
L 377.437619 -274.798117 
L 376.250851 -273.272063 
L 375.044136 -279.226787 
L 373.816794 -270.961182 
L 372.568104 -278.241782 
L 371.297313 -270.437963 
L 370.003624 -283.730203 
L 368.686196 -260.873655 
L 367.344142 -269.304323 
L 365.976523 -258.472456 
L 364.582347 -269.223349 
L 363.160561 -269.185976 
L 361.710051 -278.423273 
L 360.229631 -276.286798 
L 358.718042 -269.16729 
L 357.173944 -268.712588 
L 355.595906 -272.832933 
L 353.982404 -268.625385 
L 352.331807 -268.569326 
L 350.642369 -282.316267 
L 348.912217 -268.257887 
L 347.139342 -282.023514 
L 345.321578 -267.473059 
L 343.456595 -281.344576 
L 341.541873 -254.373912 
L 339.574687 -280.802671 
L 337.552079 -266.837722 
L 335.470837 -266.576113 
L 333.32746 -266.202386 
L 331.118122 -258.385253 
L 328.838635 -249.858039 
L 326.484397 -264.89434 
L 324.05034 -251.328656 
L 321.530859 -250.991679 
L 318.919742 -254.601263 
L 316.210069 -256.715938 
L 313.394107 -251.947798 
L 310.463177 -252.293496 
L 307.40749 -258.266906 
L 304.21595 -247.397667 
L 300.875915 -248.842746 
L 297.372888 -247.223261 
L 293.690141 -247.192117 
L 289.808233 -246.743644 
L 285.704383 -246.407289 
L 281.351668 -244.590039 
L 276.717943 -240.820064 
L 271.764406 -235.818345 
L 266.443615 -234.643284 
L 260.696723 -235.12072 
L 254.449496 -222.818859 
L 247.606434 -218.670484 
L 240.041779 -209.423845 
L 231.585214 -198.308568 
L 221.997952 -186.542382 
L 210.930269 -174.421155 
L 197.83998 -160.736502 
L 181.81876 -145.469737 
L 161.163816 -122.367152 
L 132.052306 -85.138683 
L 82.285852 -61.044708 
z
" id="m61de6e2df0" style="stroke:#98df8a;stroke-opacity:0.2;"/>
    </defs>
    <g clip-path="url(#p437b185ff1)">
     <use style="fill:#98df8a;fill-opacity:0.2;stroke:#98df8a;stroke-opacity:0.2;" x="0" xlink:href="#m61de6e2df0" y="325.986375"/>
    </g>
   </g>
   <g id="PolyCollection_2">
    <defs>
     <path d="M 82.285852 -57.544128 
L 82.285852 -49.65225 
L 132.052306 -76.816006 
L 161.163816 -114.466087 
L 181.81876 -137.658833 
L 197.83998 -156.071138 
L 210.930269 -168.995879 
L 221.997952 -182.873624 
L 231.585214 -195.025995 
L 240.041779 -200.541589 
L 247.606434 -203.03622 
L 254.449496 -211.164792 
L 260.696723 -215.232192 
L 266.443615 -216.010791 
L 271.764406 -216.091765 
L 276.717943 -217.680107 
L 281.351668 -217.829598 
L 285.704383 -218.857348 
L 289.808233 -222.027802 
L 293.690141 -221.043653 
L 297.372888 -222.345471 
L 300.875915 -222.227124 
L 304.21595 -223.454195 
L 307.40749 -223.952499 
L 310.463177 -223.323391 
L 313.394107 -225.167113 
L 316.210069 -225.877195 
L 318.919742 -224.077075 
L 321.530859 -224.239023 
L 324.05034 -224.4072 
L 326.484397 -227.558969 
L 328.838635 -227.945154 
L 331.118122 -221.19003 
L 333.32746 -228.474601 
L 335.470837 -228.754896 
L 337.552079 -231.685153 
L 339.574687 -229.19714 
L 341.541873 -229.464978 
L 343.456595 -238.178356 
L 345.321578 -247.154744 
L 347.139342 -247.160973 
L 348.912217 -230.119001 
L 350.642369 -230.305865 
L 352.331807 -225.216943 
L 353.982404 -230.841541 
L 355.595906 -231.022176 
L 357.173944 -226.992149 
L 358.718042 -231.844376 
L 360.229631 -231.894207 
L 361.710051 -229.340403 
L 363.160561 -232.267934 
L 364.582347 -229.795104 
L 365.976523 -232.429883 
L 367.344142 -229.900994 
L 368.686196 -230.539445 
L 370.003624 -232.596814 
L 371.297313 -232.80361 
L 372.568104 -232.865898 
L 373.816794 -232.897042 
L 375.044136 -231.685542 
L 376.250851 -231.735373 
L 377.437619 -231.754059 
L 378.605089 -231.856834 
L 379.753878 -241.305909 
L 380.884576 -233.513692 
L 381.997743 -233.519921 
L 383.093914 -230.318323 
L 384.1736 -233.762844 
L 385.237291 -233.962165 
L 386.285453 -233.993309 
L 387.318533 -241.663909 
L 388.336959 -234.186402 
L 389.341141 -243.857144 
L 390.331471 -234.560129 
L 391.308327 -234.560129 
L 392.272071 -230.542559 
L 393.223049 -234.616188 
L 394.161596 -234.622417 
L 395.088032 -234.634875 
L 396.002666 -240.782691 
L 396.905795 -234.666019 
L 397.797705 -234.666019 
L 398.678671 -234.678476 
L 399.548958 -241.309024 
L 400.408823 -241.160156 
L 401.258511 -242.638871 
L 402.098261 -242.663786 
L 402.928303 -235.612795 
L 403.748858 -241.321248 
L 404.560142 -235.675083 
L 405.36236 -242.803934 
L 406.155714 -236.073725 
L 406.940398 -241.910102 
L 406.940398 -275.411653 
L 406.940398 -275.411653 
L 406.155714 -278.87634 
L 405.36236 -278.787657 
L 404.560142 -280.033415 
L 403.748858 -278.143522 
L 402.928303 -275.950443 
L 402.098261 -277.473382 
L 401.258511 -277.389294 
L 400.408823 -278.971407 
L 399.548958 -273.555473 
L 398.678671 -275.327564 
L 397.797705 -275.122014 
L 396.905795 -274.847947 
L 396.002666 -277.314548 
L 395.088032 -274.685999 
L 394.161596 -274.52405 
L 393.223049 -277.165057 
L 392.272071 -274.218839 
L 391.308327 -274.21261 
L 390.331471 -274.094263 
L 389.341141 -273.838883 
L 388.336959 -273.452698 
L 387.318533 -274.788774 
L 386.285453 -271.939102 
L 385.237291 -270.674657 
L 384.1736 -276.567093 
L 383.093914 -276.467433 
L 381.997743 -272.84469 
L 380.884576 -275.701291 
L 379.753878 -275.5518 
L 378.605089 -271.204105 
L 377.437619 -278.69734 
L 376.250851 -270.092265 
L 375.044136 -269.724767 
L 373.816794 -274.661083 
L 372.568104 -274.661083 
L 371.297313 -264.196715 
L 370.003624 -263.661039 
L 368.686196 -267.644351 
L 367.344142 -267.507317 
L 365.976523 -262.813924 
L 364.582347 -266.996556 
L 363.160561 -262.26579 
L 361.710051 -266.348762 
L 360.229631 -261.537021 
L 358.718042 -261.480962 
L 357.173944 -265.274296 
L 355.595906 -260.839397 
L 353.982404 -260.534186 
L 352.331807 -259.235483 
L 350.642369 -260.353551 
L 348.912217 -260.141772 
L 347.139342 -259.736901 
L 345.321578 -259.711986 
L 343.456595 -259.506436 
L 341.541873 -259.238598 
L 339.574687 -259.27597 
L 337.552079 -259.163852 
L 335.470837 -258.011526 
L 333.32746 -257.706315 
L 331.118122 -259.958023 
L 328.838635 -257.550595 
L 326.484397 -255.681958 
L 324.05034 -255.389205 
L 321.530859 -254.585691 
L 318.919742 -254.211964 
L 316.210069 -253.670059 
L 313.394107 -253.900524 
L 310.463177 -256.840513 
L 307.40749 -253.688745 
L 304.21595 -250.972993 
L 300.875915 -250.941849 
L 297.372888 -246.980338 
L 293.690141 -243.230606 
L 289.808233 -252.73574 
L 285.704383 -244.893693 
L 281.351668 -241.913684 
L 276.717943 -241.374426 
L 271.764406 -238.963884 
L 266.443615 -236.600136 
L 260.696723 -233.519921 
L 254.449496 -227.920238 
L 247.606434 -221.01251 
L 240.041779 -213.755968 
L 231.585214 -202.961474 
L 221.997952 -189.202076 
L 210.930269 -175.754117 
L 197.83998 -161.770482 
L 181.81876 -146.858757 
L 161.163816 -123.935639 
L 132.052306 -82.913992 
L 82.285852 -57.544128 
z
" id="m72c177cca0" style="stroke:#1f77b4;stroke-opacity:0.2;"/>
    </defs>
    <g clip-path="url(#p437b185ff1)">
     <use style="fill:#1f77b4;fill-opacity:0.2;stroke:#1f77b4;stroke-opacity:0.2;" x="0" xlink:href="#m72c177cca0" y="325.986375"/>
    </g>
   </g>
   <g id="matplotlib.axis_1">
    <g id="xtick_1">
     <g id="line2d_1">
      <defs>
       <path d="M 0 0 
L 0 3.5 
" id="m0634c19a3d" style="stroke:#000000;stroke-width:0.8;"/>
      </defs>
      <g>
       <use style="stroke:#000000;stroke-width:0.8;" x="82.285852" xlink:href="#m0634c19a3d" y="288.430125"/>
      </g>
     </g>
     <g id="text_1">
      <!-- 14m -->
      <g transform="translate(71.05304 303.028562)scale(0.1 -0.1)">
       <defs>
        <path d="M 794 531 
L 1825 531 
L 1825 4091 
L 703 3866 
L 703 4441 
L 1819 4666 
L 2450 4666 
L 2450 531 
L 3481 531 
L 3481 0 
L 794 0 
L 794 531 
z
" id="DejaVuSans-31" transform="scale(0.015625)"/>
        <path d="M 2419 4116 
L 825 1625 
L 2419 1625 
L 2419 4116 
z
M 2253 4666 
L 3047 4666 
L 3047 1625 
L 3713 1625 
L 3713 1100 
L 3047 1100 
L 3047 0 
L 2419 0 
L 2419 1100 
L 313 1100 
L 313 1709 
L 2253 4666 
z
" id="DejaVuSans-34" transform="scale(0.015625)"/>
        <path d="M 3328 2828 
Q 3544 3216 3844 3400 
Q 4144 3584 4550 3584 
Q 5097 3584 5394 3201 
Q 5691 2819 5691 2113 
L 5691 0 
L 5113 0 
L 5113 2094 
Q 5113 2597 4934 2840 
Q 4756 3084 4391 3084 
Q 3944 3084 3684 2787 
Q 3425 2491 3425 1978 
L 3425 0 
L 2847 0 
L 2847 2094 
Q 2847 2600 2669 2842 
Q 2491 3084 2119 3084 
Q 1678 3084 1418 2786 
Q 1159 2488 1159 1978 
L 1159 0 
L 581 0 
L 581 3500 
L 1159 3500 
L 1159 2956 
Q 1356 3278 1631 3431 
Q 1906 3584 2284 3584 
Q 2666 3584 2933 3390 
Q 3200 3197 3328 2828 
z
" id="DejaVuSans-6d" transform="scale(0.015625)"/>
       </defs>
       <use xlink:href="#DejaVuSans-31"/>
       <use x="63.623047" xlink:href="#DejaVuSans-34"/>
       <use x="127.246094" xlink:href="#DejaVuSans-6d"/>
      </g>
     </g>
    </g>
    <g id="xtick_2">
     <g id="line2d_2">
      <g>
       <use style="stroke:#000000;stroke-width:0.8;" x="147.216935" xlink:href="#m0634c19a3d" y="288.430125"/>
      </g>
     </g>
     <g id="text_2">
      <!-- 37m -->
      <g transform="translate(135.984122 303.028562)scale(0.1 -0.1)">
       <defs>
        <path d="M 2597 2516 
Q 3050 2419 3304 2112 
Q 3559 1806 3559 1356 
Q 3559 666 3084 287 
Q 2609 -91 1734 -91 
Q 1441 -91 1130 -33 
Q 819 25 488 141 
L 488 750 
Q 750 597 1062 519 
Q 1375 441 1716 441 
Q 2309 441 2620 675 
Q 2931 909 2931 1356 
Q 2931 1769 2642 2001 
Q 2353 2234 1838 2234 
L 1294 2234 
L 1294 2753 
L 1863 2753 
Q 2328 2753 2575 2939 
Q 2822 3125 2822 3475 
Q 2822 3834 2567 4026 
Q 2313 4219 1838 4219 
Q 1578 4219 1281 4162 
Q 984 4106 628 3988 
L 628 4550 
Q 988 4650 1302 4700 
Q 1616 4750 1894 4750 
Q 2613 4750 3031 4423 
Q 3450 4097 3450 3541 
Q 3450 3153 3228 2886 
Q 3006 2619 2597 2516 
z
" id="DejaVuSans-33" transform="scale(0.015625)"/>
        <path d="M 525 4666 
L 3525 4666 
L 3525 4397 
L 1831 0 
L 1172 0 
L 2766 4134 
L 525 4134 
L 525 4666 
z
" id="DejaVuSans-37" transform="scale(0.015625)"/>
       </defs>
       <use xlink:href="#DejaVuSans-33"/>
       <use x="63.623047" xlink:href="#DejaVuSans-37"/>
       <use x="127.246094" xlink:href="#DejaVuSans-6d"/>
      </g>
     </g>
    </g>
    <g id="xtick_3">
     <g id="line2d_3">
      <g>
       <use style="stroke:#000000;stroke-width:0.8;" x="212.148017" xlink:href="#m0634c19a3d" y="288.430125"/>
      </g>
     </g>
     <g id="text_3">
      <!-- 1h:31m -->
      <g transform="translate(192.88083 303.028562)scale(0.1 -0.1)">
       <defs>
        <path d="M 3513 2113 
L 3513 0 
L 2938 0 
L 2938 2094 
Q 2938 2591 2744 2837 
Q 2550 3084 2163 3084 
Q 1697 3084 1428 2787 
Q 1159 2491 1159 1978 
L 1159 0 
L 581 0 
L 581 4863 
L 1159 4863 
L 1159 2956 
Q 1366 3272 1645 3428 
Q 1925 3584 2291 3584 
Q 2894 3584 3203 3211 
Q 3513 2838 3513 2113 
z
" id="DejaVuSans-68" transform="scale(0.015625)"/>
        <path d="M 750 794 
L 1409 794 
L 1409 0 
L 750 0 
L 750 794 
z
M 750 3309 
L 1409 3309 
L 1409 2516 
L 750 2516 
L 750 3309 
z
" id="DejaVuSans-3a" transform="scale(0.015625)"/>
       </defs>
       <use xlink:href="#DejaVuSans-31"/>
       <use x="63.623047" xlink:href="#DejaVuSans-68"/>
       <use x="127.001953" xlink:href="#DejaVuSans-3a"/>
       <use x="160.693359" xlink:href="#DejaVuSans-33"/>
       <use x="224.316406" xlink:href="#DejaVuSans-31"/>
       <use x="287.939453" xlink:href="#DejaVuSans-6d"/>
      </g>
     </g>
    </g>
    <g id="xtick_4">
     <g id="line2d_4">
      <g>
       <use style="stroke:#000000;stroke-width:0.8;" x="277.0791" xlink:href="#m0634c19a3d" y="288.430125"/>
      </g>
     </g>
     <g id="text_4">
      <!-- 3h:46m -->
      <g transform="translate(257.811912 303.028562)scale(0.1 -0.1)">
       <defs>
        <path d="M 2113 2584 
Q 1688 2584 1439 2293 
Q 1191 2003 1191 1497 
Q 1191 994 1439 701 
Q 1688 409 2113 409 
Q 2538 409 2786 701 
Q 3034 994 3034 1497 
Q 3034 2003 2786 2293 
Q 2538 2584 2113 2584 
z
M 3366 4563 
L 3366 3988 
Q 3128 4100 2886 4159 
Q 2644 4219 2406 4219 
Q 1781 4219 1451 3797 
Q 1122 3375 1075 2522 
Q 1259 2794 1537 2939 
Q 1816 3084 2150 3084 
Q 2853 3084 3261 2657 
Q 3669 2231 3669 1497 
Q 3669 778 3244 343 
Q 2819 -91 2113 -91 
Q 1303 -91 875 529 
Q 447 1150 447 2328 
Q 447 3434 972 4092 
Q 1497 4750 2381 4750 
Q 2619 4750 2861 4703 
Q 3103 4656 3366 4563 
z
" id="DejaVuSans-36" transform="scale(0.015625)"/>
       </defs>
       <use xlink:href="#DejaVuSans-33"/>
       <use x="63.623047" xlink:href="#DejaVuSans-68"/>
       <use x="127.001953" xlink:href="#DejaVuSans-3a"/>
       <use x="160.693359" xlink:href="#DejaVuSans-34"/>
       <use x="224.316406" xlink:href="#DejaVuSans-36"/>
       <use x="287.939453" xlink:href="#DejaVuSans-6d"/>
      </g>
     </g>
    </g>
    <g id="xtick_5">
     <g id="line2d_5">
      <g>
       <use style="stroke:#000000;stroke-width:0.8;" x="342.010182" xlink:href="#m0634c19a3d" y="288.430125"/>
      </g>
     </g>
     <g id="text_5">
      <!-- 9h:18m -->
      <g transform="translate(322.742995 303.028562)scale(0.1 -0.1)">
       <defs>
        <path d="M 703 97 
L 703 672 
Q 941 559 1184 500 
Q 1428 441 1663 441 
Q 2288 441 2617 861 
Q 2947 1281 2994 2138 
Q 2813 1869 2534 1725 
Q 2256 1581 1919 1581 
Q 1219 1581 811 2004 
Q 403 2428 403 3163 
Q 403 3881 828 4315 
Q 1253 4750 1959 4750 
Q 2769 4750 3195 4129 
Q 3622 3509 3622 2328 
Q 3622 1225 3098 567 
Q 2575 -91 1691 -91 
Q 1453 -91 1209 -44 
Q 966 3 703 97 
z
M 1959 2075 
Q 2384 2075 2632 2365 
Q 2881 2656 2881 3163 
Q 2881 3666 2632 3958 
Q 2384 4250 1959 4250 
Q 1534 4250 1286 3958 
Q 1038 3666 1038 3163 
Q 1038 2656 1286 2365 
Q 1534 2075 1959 2075 
z
" id="DejaVuSans-39" transform="scale(0.015625)"/>
        <path d="M 2034 2216 
Q 1584 2216 1326 1975 
Q 1069 1734 1069 1313 
Q 1069 891 1326 650 
Q 1584 409 2034 409 
Q 2484 409 2743 651 
Q 3003 894 3003 1313 
Q 3003 1734 2745 1975 
Q 2488 2216 2034 2216 
z
M 1403 2484 
Q 997 2584 770 2862 
Q 544 3141 544 3541 
Q 544 4100 942 4425 
Q 1341 4750 2034 4750 
Q 2731 4750 3128 4425 
Q 3525 4100 3525 3541 
Q 3525 3141 3298 2862 
Q 3072 2584 2669 2484 
Q 3125 2378 3379 2068 
Q 3634 1759 3634 1313 
Q 3634 634 3220 271 
Q 2806 -91 2034 -91 
Q 1263 -91 848 271 
Q 434 634 434 1313 
Q 434 1759 690 2068 
Q 947 2378 1403 2484 
z
M 1172 3481 
Q 1172 3119 1398 2916 
Q 1625 2713 2034 2713 
Q 2441 2713 2670 2916 
Q 2900 3119 2900 3481 
Q 2900 3844 2670 4047 
Q 2441 4250 2034 4250 
Q 1625 4250 1398 4047 
Q 1172 3844 1172 3481 
z
" id="DejaVuSans-38" transform="scale(0.015625)"/>
       </defs>
       <use xlink:href="#DejaVuSans-39"/>
       <use x="63.623047" xlink:href="#DejaVuSans-68"/>
       <use x="127.001953" xlink:href="#DejaVuSans-3a"/>
       <use x="160.693359" xlink:href="#DejaVuSans-31"/>
       <use x="224.316406" xlink:href="#DejaVuSans-38"/>
       <use x="287.939453" xlink:href="#DejaVuSans-6d"/>
      </g>
     </g>
    </g>
    <g id="xtick_6">
     <g id="line2d_6">
      <g>
       <use style="stroke:#000000;stroke-width:0.8;" x="406.941265" xlink:href="#m0634c19a3d" y="288.430125"/>
      </g>
     </g>
     <g id="text_6">
      <!-- 23h -->
      <g transform="translate(397.410015 303.028562)scale(0.1 -0.1)">
       <defs>
        <path d="M 1228 531 
L 3431 531 
L 3431 0 
L 469 0 
L 469 531 
Q 828 903 1448 1529 
Q 2069 2156 2228 2338 
Q 2531 2678 2651 2914 
Q 2772 3150 2772 3378 
Q 2772 3750 2511 3984 
Q 2250 4219 1831 4219 
Q 1534 4219 1204 4116 
Q 875 4013 500 3803 
L 500 4441 
Q 881 4594 1212 4672 
Q 1544 4750 1819 4750 
Q 2544 4750 2975 4387 
Q 3406 4025 3406 3419 
Q 3406 3131 3298 2873 
Q 3191 2616 2906 2266 
Q 2828 2175 2409 1742 
Q 1991 1309 1228 531 
z
" id="DejaVuSans-32" transform="scale(0.015625)"/>
       </defs>
       <use xlink:href="#DejaVuSans-32"/>
       <use x="63.623047" xlink:href="#DejaVuSans-33"/>
       <use x="127.246094" xlink:href="#DejaVuSans-68"/>
      </g>
     </g>
    </g>
    <g id="xtick_7">
     <g id="line2d_7">
      <defs>
       <path d="M 0 0 
L 0 2 
" id="me974b82c0f" style="stroke:#000000;stroke-width:0.6;"/>
      </defs>
      <g>
       <use style="stroke:#000000;stroke-width:0.6;" x="73.829288" xlink:href="#me974b82c0f" y="288.430125"/>
      </g>
     </g>
    </g>
    <g id="xtick_8">
     <g id="line2d_8">
      <g>
       <use style="stroke:#000000;stroke-width:0.6;" x="139.616961" xlink:href="#me974b82c0f" y="288.430125"/>
      </g>
     </g>
    </g>
    <g id="xtick_9">
     <g id="line2d_9">
      <g>
       <use style="stroke:#000000;stroke-width:0.6;" x="168.72847" xlink:href="#me974b82c0f" y="288.430125"/>
      </g>
     </g>
    </g>
    <g id="xtick_10">
     <g id="line2d_10">
      <g>
       <use style="stroke:#000000;stroke-width:0.6;" x="189.383415" xlink:href="#me974b82c0f" y="288.430125"/>
      </g>
     </g>
    </g>
    <g id="xtick_11">
     <g id="line2d_11">
      <g>
       <use style="stroke:#000000;stroke-width:0.6;" x="205.404635" xlink:href="#me974b82c0f" y="288.430125"/>
      </g>
     </g>
    </g>
    <g id="xtick_12">
     <g id="line2d_12">
      <g>
       <use style="stroke:#000000;stroke-width:0.6;" x="218.494924" xlink:href="#me974b82c0f" y="288.430125"/>
      </g>
     </g>
    </g>
    <g id="xtick_13">
     <g id="line2d_13">
      <g>
       <use style="stroke:#000000;stroke-width:0.6;" x="229.562607" xlink:href="#me974b82c0f" y="288.430125"/>
      </g>
     </g>
    </g>
    <g id="xtick_14">
     <g id="line2d_14">
      <g>
       <use style="stroke:#000000;stroke-width:0.6;" x="239.149869" xlink:href="#me974b82c0f" y="288.430125"/>
      </g>
     </g>
    </g>
    <g id="xtick_15">
     <g id="line2d_15">
      <g>
       <use style="stroke:#000000;stroke-width:0.6;" x="247.606434" xlink:href="#me974b82c0f" y="288.430125"/>
      </g>
     </g>
    </g>
    <g id="xtick_16">
     <g id="line2d_16">
      <g>
       <use style="stroke:#000000;stroke-width:0.6;" x="304.937543" xlink:href="#me974b82c0f" y="288.430125"/>
      </g>
     </g>
    </g>
    <g id="xtick_17">
     <g id="line2d_17">
      <g>
       <use style="stroke:#000000;stroke-width:0.6;" x="334.049052" xlink:href="#me974b82c0f" y="288.430125"/>
      </g>
     </g>
    </g>
    <g id="xtick_18">
     <g id="line2d_18">
      <g>
       <use style="stroke:#000000;stroke-width:0.6;" x="354.703996" xlink:href="#me974b82c0f" y="288.430125"/>
      </g>
     </g>
    </g>
    <g id="xtick_19">
     <g id="line2d_19">
      <g>
       <use style="stroke:#000000;stroke-width:0.6;" x="370.725216" xlink:href="#me974b82c0f" y="288.430125"/>
      </g>
     </g>
    </g>
    <g id="xtick_20">
     <g id="line2d_20">
      <g>
       <use style="stroke:#000000;stroke-width:0.6;" x="383.815506" xlink:href="#me974b82c0f" y="288.430125"/>
      </g>
     </g>
    </g>
    <g id="xtick_21">
     <g id="line2d_21">
      <g>
       <use style="stroke:#000000;stroke-width:0.6;" x="394.883188" xlink:href="#me974b82c0f" y="288.430125"/>
      </g>
     </g>
    </g>
    <g id="xtick_22">
     <g id="line2d_22">
      <g>
       <use style="stroke:#000000;stroke-width:0.6;" x="404.47045" xlink:href="#me974b82c0f" y="288.430125"/>
      </g>
     </g>
    </g>
    <g id="xtick_23">
     <g id="line2d_23">
      <g>
       <use style="stroke:#000000;stroke-width:0.6;" x="412.927015" xlink:href="#me974b82c0f" y="288.430125"/>
      </g>
     </g>
    </g>
    <g id="text_7">
     <!-- Time (hour:minute) -->
     <g transform="translate(196.206094 316.706687)scale(0.1 -0.1)">
      <defs>
       <path d="M -19 4666 
L 3928 4666 
L 3928 4134 
L 2272 4134 
L 2272 0 
L 1638 0 
L 1638 4134 
L -19 4134 
L -19 4666 
z
" id="DejaVuSans-54" transform="scale(0.015625)"/>
       <path d="M 603 3500 
L 1178 3500 
L 1178 0 
L 603 0 
L 603 3500 
z
M 603 4863 
L 1178 4863 
L 1178 4134 
L 603 4134 
L 603 4863 
z
" id="DejaVuSans-69" transform="scale(0.015625)"/>
       <path d="M 3597 1894 
L 3597 1613 
L 953 1613 
Q 991 1019 1311 708 
Q 1631 397 2203 397 
Q 2534 397 2845 478 
Q 3156 559 3463 722 
L 3463 178 
Q 3153 47 2828 -22 
Q 2503 -91 2169 -91 
Q 1331 -91 842 396 
Q 353 884 353 1716 
Q 353 2575 817 3079 
Q 1281 3584 2069 3584 
Q 2775 3584 3186 3129 
Q 3597 2675 3597 1894 
z
M 3022 2063 
Q 3016 2534 2758 2815 
Q 2500 3097 2075 3097 
Q 1594 3097 1305 2825 
Q 1016 2553 972 2059 
L 3022 2063 
z
" id="DejaVuSans-65" transform="scale(0.015625)"/>
       <path id="DejaVuSans-20" transform="scale(0.015625)"/>
       <path d="M 1984 4856 
Q 1566 4138 1362 3434 
Q 1159 2731 1159 2009 
Q 1159 1288 1364 580 
Q 1569 -128 1984 -844 
L 1484 -844 
Q 1016 -109 783 600 
Q 550 1309 550 2009 
Q 550 2706 781 3412 
Q 1013 4119 1484 4856 
L 1984 4856 
z
" id="DejaVuSans-28" transform="scale(0.015625)"/>
       <path d="M 1959 3097 
Q 1497 3097 1228 2736 
Q 959 2375 959 1747 
Q 959 1119 1226 758 
Q 1494 397 1959 397 
Q 2419 397 2687 759 
Q 2956 1122 2956 1747 
Q 2956 2369 2687 2733 
Q 2419 3097 1959 3097 
z
M 1959 3584 
Q 2709 3584 3137 3096 
Q 3566 2609 3566 1747 
Q 3566 888 3137 398 
Q 2709 -91 1959 -91 
Q 1206 -91 779 398 
Q 353 888 353 1747 
Q 353 2609 779 3096 
Q 1206 3584 1959 3584 
z
" id="DejaVuSans-6f" transform="scale(0.015625)"/>
       <path d="M 544 1381 
L 544 3500 
L 1119 3500 
L 1119 1403 
Q 1119 906 1312 657 
Q 1506 409 1894 409 
Q 2359 409 2629 706 
Q 2900 1003 2900 1516 
L 2900 3500 
L 3475 3500 
L 3475 0 
L 2900 0 
L 2900 538 
Q 2691 219 2414 64 
Q 2138 -91 1772 -91 
Q 1169 -91 856 284 
Q 544 659 544 1381 
z
M 1991 3584 
L 1991 3584 
z
" id="DejaVuSans-75" transform="scale(0.015625)"/>
       <path d="M 2631 2963 
Q 2534 3019 2420 3045 
Q 2306 3072 2169 3072 
Q 1681 3072 1420 2755 
Q 1159 2438 1159 1844 
L 1159 0 
L 581 0 
L 581 3500 
L 1159 3500 
L 1159 2956 
Q 1341 3275 1631 3429 
Q 1922 3584 2338 3584 
Q 2397 3584 2469 3576 
Q 2541 3569 2628 3553 
L 2631 2963 
z
" id="DejaVuSans-72" transform="scale(0.015625)"/>
       <path d="M 3513 2113 
L 3513 0 
L 2938 0 
L 2938 2094 
Q 2938 2591 2744 2837 
Q 2550 3084 2163 3084 
Q 1697 3084 1428 2787 
Q 1159 2491 1159 1978 
L 1159 0 
L 581 0 
L 581 3500 
L 1159 3500 
L 1159 2956 
Q 1366 3272 1645 3428 
Q 1925 3584 2291 3584 
Q 2894 3584 3203 3211 
Q 3513 2838 3513 2113 
z
" id="DejaVuSans-6e" transform="scale(0.015625)"/>
       <path d="M 1172 4494 
L 1172 3500 
L 2356 3500 
L 2356 3053 
L 1172 3053 
L 1172 1153 
Q 1172 725 1289 603 
Q 1406 481 1766 481 
L 2356 481 
L 2356 0 
L 1766 0 
Q 1100 0 847 248 
Q 594 497 594 1153 
L 594 3053 
L 172 3053 
L 172 3500 
L 594 3500 
L 594 4494 
L 1172 4494 
z
" id="DejaVuSans-74" transform="scale(0.015625)"/>
       <path d="M 513 4856 
L 1013 4856 
Q 1481 4119 1714 3412 
Q 1947 2706 1947 2009 
Q 1947 1309 1714 600 
Q 1481 -109 1013 -844 
L 513 -844 
Q 928 -128 1133 580 
Q 1338 1288 1338 2009 
Q 1338 2731 1133 3434 
Q 928 4138 513 4856 
z
" id="DejaVuSans-29" transform="scale(0.015625)"/>
      </defs>
      <use xlink:href="#DejaVuSans-54"/>
      <use x="57.958984" xlink:href="#DejaVuSans-69"/>
      <use x="85.742188" xlink:href="#DejaVuSans-6d"/>
      <use x="183.154297" xlink:href="#DejaVuSans-65"/>
      <use x="244.677734" xlink:href="#DejaVuSans-20"/>
      <use x="276.464844" xlink:href="#DejaVuSans-28"/>
      <use x="315.478516" xlink:href="#DejaVuSans-68"/>
      <use x="378.857422" xlink:href="#DejaVuSans-6f"/>
      <use x="440.039062" xlink:href="#DejaVuSans-75"/>
      <use x="503.417969" xlink:href="#DejaVuSans-72"/>
      <use x="542.78125" xlink:href="#DejaVuSans-3a"/>
      <use x="576.472656" xlink:href="#DejaVuSans-6d"/>
      <use x="673.884766" xlink:href="#DejaVuSans-69"/>
      <use x="701.667969" xlink:href="#DejaVuSans-6e"/>
      <use x="765.046875" xlink:href="#DejaVuSans-75"/>
      <use x="828.425781" xlink:href="#DejaVuSans-74"/>
      <use x="867.634766" xlink:href="#DejaVuSans-65"/>
      <use x="929.158203" xlink:href="#DejaVuSans-29"/>
     </g>
    </g>
   </g>
   <g id="matplotlib.axis_2">
    <g id="ytick_1">
     <g id="line2d_24">
      <defs>
       <path d="M 0 0 
L -3.5 0 
" id="m51a99204f0" style="stroke:#000000;stroke-width:0.8;"/>
      </defs>
      <g>
       <use style="stroke:#000000;stroke-width:0.8;" x="66.053125" xlink:href="#m51a99204f0" y="271.083254"/>
      </g>
     </g>
     <g id="text_8">
      <!-- 145000 -->
      <g transform="translate(20.878125 274.882473)scale(0.1 -0.1)">
       <defs>
        <path d="M 691 4666 
L 3169 4666 
L 3169 4134 
L 1269 4134 
L 1269 2991 
Q 1406 3038 1543 3061 
Q 1681 3084 1819 3084 
Q 2600 3084 3056 2656 
Q 3513 2228 3513 1497 
Q 3513 744 3044 326 
Q 2575 -91 1722 -91 
Q 1428 -91 1123 -41 
Q 819 9 494 109 
L 494 744 
Q 775 591 1075 516 
Q 1375 441 1709 441 
Q 2250 441 2565 725 
Q 2881 1009 2881 1497 
Q 2881 1984 2565 2268 
Q 2250 2553 1709 2553 
Q 1456 2553 1204 2497 
Q 953 2441 691 2322 
L 691 4666 
z
" id="DejaVuSans-35" transform="scale(0.015625)"/>
        <path d="M 2034 4250 
Q 1547 4250 1301 3770 
Q 1056 3291 1056 2328 
Q 1056 1369 1301 889 
Q 1547 409 2034 409 
Q 2525 409 2770 889 
Q 3016 1369 3016 2328 
Q 3016 3291 2770 3770 
Q 2525 4250 2034 4250 
z
M 2034 4750 
Q 2819 4750 3233 4129 
Q 3647 3509 3647 2328 
Q 3647 1150 3233 529 
Q 2819 -91 2034 -91 
Q 1250 -91 836 529 
Q 422 1150 422 2328 
Q 422 3509 836 4129 
Q 1250 4750 2034 4750 
z
" id="DejaVuSans-30" transform="scale(0.015625)"/>
       </defs>
       <use xlink:href="#DejaVuSans-31"/>
       <use x="63.623047" xlink:href="#DejaVuSans-34"/>
       <use x="127.246094" xlink:href="#DejaVuSans-35"/>
       <use x="190.869141" xlink:href="#DejaVuSans-30"/>
       <use x="254.492188" xlink:href="#DejaVuSans-30"/>
       <use x="318.115234" xlink:href="#DejaVuSans-30"/>
      </g>
     </g>
    </g>
    <g id="ytick_2">
     <g id="line2d_25">
      <g>
       <use style="stroke:#000000;stroke-width:0.8;" x="66.053125" xlink:href="#m51a99204f0" y="239.939301"/>
      </g>
     </g>
     <g id="text_9">
      <!-- 150000 -->
      <g transform="translate(20.878125 243.73852)scale(0.1 -0.1)">
       <use xlink:href="#DejaVuSans-31"/>
       <use x="63.623047" xlink:href="#DejaVuSans-35"/>
       <use x="127.246094" xlink:href="#DejaVuSans-30"/>
       <use x="190.869141" xlink:href="#DejaVuSans-30"/>
       <use x="254.492188" xlink:href="#DejaVuSans-30"/>
       <use x="318.115234" xlink:href="#DejaVuSans-30"/>
      </g>
     </g>
    </g>
    <g id="ytick_3">
     <g id="line2d_26">
      <g>
       <use style="stroke:#000000;stroke-width:0.8;" x="66.053125" xlink:href="#m51a99204f0" y="208.795348"/>
      </g>
     </g>
     <g id="text_10">
      <!-- 155000 -->
      <g transform="translate(20.878125 212.594567)scale(0.1 -0.1)">
       <use xlink:href="#DejaVuSans-31"/>
       <use x="63.623047" xlink:href="#DejaVuSans-35"/>
       <use x="127.246094" xlink:href="#DejaVuSans-35"/>
       <use x="190.869141" xlink:href="#DejaVuSans-30"/>
       <use x="254.492188" xlink:href="#DejaVuSans-30"/>
       <use x="318.115234" xlink:href="#DejaVuSans-30"/>
      </g>
     </g>
    </g>
    <g id="ytick_4">
     <g id="line2d_27">
      <g>
       <use style="stroke:#000000;stroke-width:0.8;" x="66.053125" xlink:href="#m51a99204f0" y="177.651395"/>
      </g>
     </g>
     <g id="text_11">
      <!-- 160000 -->
      <g transform="translate(20.878125 181.450614)scale(0.1 -0.1)">
       <use xlink:href="#DejaVuSans-31"/>
       <use x="63.623047" xlink:href="#DejaVuSans-36"/>
       <use x="127.246094" xlink:href="#DejaVuSans-30"/>
       <use x="190.869141" xlink:href="#DejaVuSans-30"/>
       <use x="254.492188" xlink:href="#DejaVuSans-30"/>
       <use x="318.115234" xlink:href="#DejaVuSans-30"/>
      </g>
     </g>
    </g>
    <g id="ytick_5">
     <g id="line2d_28">
      <g>
       <use style="stroke:#000000;stroke-width:0.8;" x="66.053125" xlink:href="#m51a99204f0" y="146.507442"/>
      </g>
     </g>
     <g id="text_12">
      <!-- 165000 -->
      <g transform="translate(20.878125 150.30666)scale(0.1 -0.1)">
       <use xlink:href="#DejaVuSans-31"/>
       <use x="63.623047" xlink:href="#DejaVuSans-36"/>
       <use x="127.246094" xlink:href="#DejaVuSans-35"/>
       <use x="190.869141" xlink:href="#DejaVuSans-30"/>
       <use x="254.492188" xlink:href="#DejaVuSans-30"/>
       <use x="318.115234" xlink:href="#DejaVuSans-30"/>
      </g>
     </g>
    </g>
    <g id="ytick_6">
     <g id="line2d_29">
      <g>
       <use style="stroke:#000000;stroke-width:0.8;" x="66.053125" xlink:href="#m51a99204f0" y="115.363488"/>
      </g>
     </g>
     <g id="text_13">
      <!-- 170000 -->
      <g transform="translate(20.878125 119.162707)scale(0.1 -0.1)">
       <use xlink:href="#DejaVuSans-31"/>
       <use x="63.623047" xlink:href="#DejaVuSans-37"/>
       <use x="127.246094" xlink:href="#DejaVuSans-30"/>
       <use x="190.869141" xlink:href="#DejaVuSans-30"/>
       <use x="254.492188" xlink:href="#DejaVuSans-30"/>
       <use x="318.115234" xlink:href="#DejaVuSans-30"/>
      </g>
     </g>
    </g>
    <g id="ytick_7">
     <g id="line2d_30">
      <g>
       <use style="stroke:#000000;stroke-width:0.8;" x="66.053125" xlink:href="#m51a99204f0" y="84.219535"/>
      </g>
     </g>
     <g id="text_14">
      <!-- 175000 -->
      <g transform="translate(20.878125 88.018754)scale(0.1 -0.1)">
       <use xlink:href="#DejaVuSans-31"/>
       <use x="63.623047" xlink:href="#DejaVuSans-37"/>
       <use x="127.246094" xlink:href="#DejaVuSans-35"/>
       <use x="190.869141" xlink:href="#DejaVuSans-30"/>
       <use x="254.492188" xlink:href="#DejaVuSans-30"/>
       <use x="318.115234" xlink:href="#DejaVuSans-30"/>
      </g>
     </g>
    </g>
    <g id="ytick_8">
     <g id="line2d_31">
      <g>
       <use style="stroke:#000000;stroke-width:0.8;" x="66.053125" xlink:href="#m51a99204f0" y="53.075582"/>
      </g>
     </g>
     <g id="text_15">
      <!-- 180000 -->
      <g transform="translate(20.878125 56.874801)scale(0.1 -0.1)">
       <use xlink:href="#DejaVuSans-31"/>
       <use x="63.623047" xlink:href="#DejaVuSans-38"/>
       <use x="127.246094" xlink:href="#DejaVuSans-30"/>
       <use x="190.869141" xlink:href="#DejaVuSans-30"/>
       <use x="254.492188" xlink:href="#DejaVuSans-30"/>
       <use x="318.115234" xlink:href="#DejaVuSans-30"/>
      </g>
     </g>
    </g>
    <g id="text_16">
     <!-- Code region coverage -->
     <g transform="translate(14.798438 210.379594)rotate(-90)scale(0.1 -0.1)">
      <defs>
       <path d="M 4122 4306 
L 4122 3641 
Q 3803 3938 3442 4084 
Q 3081 4231 2675 4231 
Q 1875 4231 1450 3742 
Q 1025 3253 1025 2328 
Q 1025 1406 1450 917 
Q 1875 428 2675 428 
Q 3081 428 3442 575 
Q 3803 722 4122 1019 
L 4122 359 
Q 3791 134 3420 21 
Q 3050 -91 2638 -91 
Q 1578 -91 968 557 
Q 359 1206 359 2328 
Q 359 3453 968 4101 
Q 1578 4750 2638 4750 
Q 3056 4750 3426 4639 
Q 3797 4528 4122 4306 
z
" id="DejaVuSans-43" transform="scale(0.015625)"/>
       <path d="M 2906 2969 
L 2906 4863 
L 3481 4863 
L 3481 0 
L 2906 0 
L 2906 525 
Q 2725 213 2448 61 
Q 2172 -91 1784 -91 
Q 1150 -91 751 415 
Q 353 922 353 1747 
Q 353 2572 751 3078 
Q 1150 3584 1784 3584 
Q 2172 3584 2448 3432 
Q 2725 3281 2906 2969 
z
M 947 1747 
Q 947 1113 1208 752 
Q 1469 391 1925 391 
Q 2381 391 2643 752 
Q 2906 1113 2906 1747 
Q 2906 2381 2643 2742 
Q 2381 3103 1925 3103 
Q 1469 3103 1208 2742 
Q 947 2381 947 1747 
z
" id="DejaVuSans-64" transform="scale(0.015625)"/>
       <path d="M 2906 1791 
Q 2906 2416 2648 2759 
Q 2391 3103 1925 3103 
Q 1463 3103 1205 2759 
Q 947 2416 947 1791 
Q 947 1169 1205 825 
Q 1463 481 1925 481 
Q 2391 481 2648 825 
Q 2906 1169 2906 1791 
z
M 3481 434 
Q 3481 -459 3084 -895 
Q 2688 -1331 1869 -1331 
Q 1566 -1331 1297 -1286 
Q 1028 -1241 775 -1147 
L 775 -588 
Q 1028 -725 1275 -790 
Q 1522 -856 1778 -856 
Q 2344 -856 2625 -561 
Q 2906 -266 2906 331 
L 2906 616 
Q 2728 306 2450 153 
Q 2172 0 1784 0 
Q 1141 0 747 490 
Q 353 981 353 1791 
Q 353 2603 747 3093 
Q 1141 3584 1784 3584 
Q 2172 3584 2450 3431 
Q 2728 3278 2906 2969 
L 2906 3500 
L 3481 3500 
L 3481 434 
z
" id="DejaVuSans-67" transform="scale(0.015625)"/>
       <path d="M 3122 3366 
L 3122 2828 
Q 2878 2963 2633 3030 
Q 2388 3097 2138 3097 
Q 1578 3097 1268 2742 
Q 959 2388 959 1747 
Q 959 1106 1268 751 
Q 1578 397 2138 397 
Q 2388 397 2633 464 
Q 2878 531 3122 666 
L 3122 134 
Q 2881 22 2623 -34 
Q 2366 -91 2075 -91 
Q 1284 -91 818 406 
Q 353 903 353 1747 
Q 353 2603 823 3093 
Q 1294 3584 2113 3584 
Q 2378 3584 2631 3529 
Q 2884 3475 3122 3366 
z
" id="DejaVuSans-63" transform="scale(0.015625)"/>
       <path d="M 191 3500 
L 800 3500 
L 1894 563 
L 2988 3500 
L 3597 3500 
L 2284 0 
L 1503 0 
L 191 3500 
z
" id="DejaVuSans-76" transform="scale(0.015625)"/>
       <path d="M 2194 1759 
Q 1497 1759 1228 1600 
Q 959 1441 959 1056 
Q 959 750 1161 570 
Q 1363 391 1709 391 
Q 2188 391 2477 730 
Q 2766 1069 2766 1631 
L 2766 1759 
L 2194 1759 
z
M 3341 1997 
L 3341 0 
L 2766 0 
L 2766 531 
Q 2569 213 2275 61 
Q 1981 -91 1556 -91 
Q 1019 -91 701 211 
Q 384 513 384 1019 
Q 384 1609 779 1909 
Q 1175 2209 1959 2209 
L 2766 2209 
L 2766 2266 
Q 2766 2663 2505 2880 
Q 2244 3097 1772 3097 
Q 1472 3097 1187 3025 
Q 903 2953 641 2809 
L 641 3341 
Q 956 3463 1253 3523 
Q 1550 3584 1831 3584 
Q 2591 3584 2966 3190 
Q 3341 2797 3341 1997 
z
" id="DejaVuSans-61" transform="scale(0.015625)"/>
      </defs>
      <use xlink:href="#DejaVuSans-43"/>
      <use x="69.824219" xlink:href="#DejaVuSans-6f"/>
      <use x="131.005859" xlink:href="#DejaVuSans-64"/>
      <use x="194.482422" xlink:href="#DejaVuSans-65"/>
      <use x="256.005859" xlink:href="#DejaVuSans-20"/>
      <use x="287.792969" xlink:href="#DejaVuSans-72"/>
      <use x="326.65625" xlink:href="#DejaVuSans-65"/>
      <use x="388.179688" xlink:href="#DejaVuSans-67"/>
      <use x="451.65625" xlink:href="#DejaVuSans-69"/>
      <use x="479.439453" xlink:href="#DejaVuSans-6f"/>
      <use x="540.621094" xlink:href="#DejaVuSans-6e"/>
      <use x="604" xlink:href="#DejaVuSans-20"/>
      <use x="635.787109" xlink:href="#DejaVuSans-63"/>
      <use x="690.767578" xlink:href="#DejaVuSans-6f"/>
      <use x="751.949219" xlink:href="#DejaVuSans-76"/>
      <use x="811.128906" xlink:href="#DejaVuSans-65"/>
      <use x="872.652344" xlink:href="#DejaVuSans-72"/>
      <use x="913.765625" xlink:href="#DejaVuSans-61"/>
      <use x="975.044922" xlink:href="#DejaVuSans-67"/>
      <use x="1038.521484" xlink:href="#DejaVuSans-65"/>
     </g>
    </g>
   </g>
   <g id="line2d_32">
    <path clip-path="url(#p437b185ff1)" d="M 82.285852 268.710085 
L 132.052306 243.486598 
L 161.163816 206.310061 
L 181.81876 182.05515 
L 197.83998 166.626435 
L 210.930269 153.278137 
L 221.997952 142.109915 
L 231.585214 131.496056 
L 240.041779 121.63588 
L 247.606434 113.933981 
L 254.449496 109.94444 
L 260.696723 105.503313 
L 266.443615 98.309059 
L 271.764406 95.873602 
L 276.717943 91.912091 
L 281.351668 90.772223 
L 285.704383 88.747866 
L 289.808233 87.533252 
L 293.690141 88.561002 
L 297.372888 87.925665 
L 300.875915 86.399612 
L 304.21595 81.802764 
L 307.40749 78.903262 
L 310.463177 82.674795 
L 313.394107 81.531812 
L 316.210069 78.327099 
L 318.919742 82.394499 
L 321.530859 84.910931 
L 324.05034 84.848643 
L 326.484397 78.134007 
L 328.838635 84.587034 
L 331.118122 84.306738 
L 333.32746 76.947422 
L 335.470837 81.220372 
L 337.552079 76.860219 
L 339.574687 80.229995 
L 341.541873 80.155249 
L 343.456595 77.193459 
L 345.321578 79.541713 
L 347.139342 79.211587 
L 348.912217 78.959321 
L 350.642369 78.700827 
L 352.331807 76.439776 
L 353.982404 78.112206 
L 355.595906 77.878626 
L 357.173944 79.86561 
L 358.718042 77.685534 
L 360.229631 77.582759 
L 361.710051 75.228276 
L 363.160561 75.499228 
L 364.582347 76.424204 
L 365.976523 75.449398 
L 367.344142 76.156366 
L 368.686196 79.600887 
L 370.003624 76.041133 
L 371.297313 75.595774 
L 372.568104 75.433826 
L 373.816794 78.495276 
L 375.044136 74.929294 
L 376.250851 74.876349 
L 377.437619 74.876349 
L 378.605089 74.539994 
L 379.753878 77.67619 
L 380.884576 73.786311 
L 381.997743 74.814061 
L 383.093914 73.546502 
L 384.1736 73.446842 
L 385.237291 73.222605 
L 386.285453 73.004597 
L 387.318533 72.926738 
L 388.336959 71.257422 
L 389.341141 72.699387 
L 390.331471 73.63682 
L 391.308327 70.609627 
L 392.272071 71.793098 
L 393.223049 70.422764 
L 394.161596 70.39162 
L 395.088032 70.372933 
L 396.002666 69.656622 
L 396.905795 70.902381 
L 397.797705 71.649835 
L 398.678671 70.506852 
L 399.548958 69.625479 
L 400.408823 71.00827 
L 401.258511 68.619529 
L 402.098261 68.470038 
L 402.928303 70.017892 
L 403.748858 69.423043 
L 404.560142 68.597728 
L 405.36236 68.37972 
L 406.155714 68.018451 
L 406.940398 67.414258 
" style="fill:none;stroke:#98df8a;stroke-linecap:square;stroke-width:1.5;"/>
    <defs>
     <path d="M -0 3 
L 3 -3 
L -3 -3 
z
" id="ma9ea65b0bd" style="stroke:#ffffff;stroke-linejoin:miter;stroke-width:0.75;"/>
    </defs>
    <g clip-path="url(#p437b185ff1)">
     <use style="fill:#98df8a;stroke:#ffffff;stroke-linejoin:miter;stroke-width:0.75;" x="82.285852" xlink:href="#ma9ea65b0bd" y="268.710085"/>
     <use style="fill:#98df8a;stroke:#ffffff;stroke-linejoin:miter;stroke-width:0.75;" x="132.052306" xlink:href="#ma9ea65b0bd" y="243.486598"/>
     <use style="fill:#98df8a;stroke:#ffffff;stroke-linejoin:miter;stroke-width:0.75;" x="161.163816" xlink:href="#ma9ea65b0bd" y="206.310061"/>
     <use style="fill:#98df8a;stroke:#ffffff;stroke-linejoin:miter;stroke-width:0.75;" x="181.81876" xlink:href="#ma9ea65b0bd" y="182.05515"/>
     <use style="fill:#98df8a;stroke:#ffffff;stroke-linejoin:miter;stroke-width:0.75;" x="197.83998" xlink:href="#ma9ea65b0bd" y="166.626435"/>
     <use style="fill:#98df8a;stroke:#ffffff;stroke-linejoin:miter;stroke-width:0.75;" x="210.930269" xlink:href="#ma9ea65b0bd" y="153.278137"/>
     <use style="fill:#98df8a;stroke:#ffffff;stroke-linejoin:miter;stroke-width:0.75;" x="221.997952" xlink:href="#ma9ea65b0bd" y="142.109915"/>
     <use style="fill:#98df8a;stroke:#ffffff;stroke-linejoin:miter;stroke-width:0.75;" x="231.585214" xlink:href="#ma9ea65b0bd" y="131.496056"/>
     <use style="fill:#98df8a;stroke:#ffffff;stroke-linejoin:miter;stroke-width:0.75;" x="240.041779" xlink:href="#ma9ea65b0bd" y="121.63588"/>
     <use style="fill:#98df8a;stroke:#ffffff;stroke-linejoin:miter;stroke-width:0.75;" x="247.606434" xlink:href="#ma9ea65b0bd" y="113.933981"/>
     <use style="fill:#98df8a;stroke:#ffffff;stroke-linejoin:miter;stroke-width:0.75;" x="254.449496" xlink:href="#ma9ea65b0bd" y="109.94444"/>
     <use style="fill:#98df8a;stroke:#ffffff;stroke-linejoin:miter;stroke-width:0.75;" x="260.696723" xlink:href="#ma9ea65b0bd" y="105.503313"/>
     <use style="fill:#98df8a;stroke:#ffffff;stroke-linejoin:miter;stroke-width:0.75;" x="266.443615" xlink:href="#ma9ea65b0bd" y="98.309059"/>
     <use style="fill:#98df8a;stroke:#ffffff;stroke-linejoin:miter;stroke-width:0.75;" x="271.764406" xlink:href="#ma9ea65b0bd" y="95.873602"/>
     <use style="fill:#98df8a;stroke:#ffffff;stroke-linejoin:miter;stroke-width:0.75;" x="276.717943" xlink:href="#ma9ea65b0bd" y="91.912091"/>
     <use style="fill:#98df8a;stroke:#ffffff;stroke-linejoin:miter;stroke-width:0.75;" x="281.351668" xlink:href="#ma9ea65b0bd" y="90.772223"/>
     <use style="fill:#98df8a;stroke:#ffffff;stroke-linejoin:miter;stroke-width:0.75;" x="285.704383" xlink:href="#ma9ea65b0bd" y="88.747866"/>
     <use style="fill:#98df8a;stroke:#ffffff;stroke-linejoin:miter;stroke-width:0.75;" x="289.808233" xlink:href="#ma9ea65b0bd" y="87.533252"/>
     <use style="fill:#98df8a;stroke:#ffffff;stroke-linejoin:miter;stroke-width:0.75;" x="293.690141" xlink:href="#ma9ea65b0bd" y="88.561002"/>
     <use style="fill:#98df8a;stroke:#ffffff;stroke-linejoin:miter;stroke-width:0.75;" x="297.372888" xlink:href="#ma9ea65b0bd" y="87.925665"/>
     <use style="fill:#98df8a;stroke:#ffffff;stroke-linejoin:miter;stroke-width:0.75;" x="300.875915" xlink:href="#ma9ea65b0bd" y="86.399612"/>
     <use style="fill:#98df8a;stroke:#ffffff;stroke-linejoin:miter;stroke-width:0.75;" x="304.21595" xlink:href="#ma9ea65b0bd" y="81.802764"/>
     <use style="fill:#98df8a;stroke:#ffffff;stroke-linejoin:miter;stroke-width:0.75;" x="307.40749" xlink:href="#ma9ea65b0bd" y="78.903262"/>
     <use style="fill:#98df8a;stroke:#ffffff;stroke-linejoin:miter;stroke-width:0.75;" x="310.463177" xlink:href="#ma9ea65b0bd" y="82.674795"/>
     <use style="fill:#98df8a;stroke:#ffffff;stroke-linejoin:miter;stroke-width:0.75;" x="313.394107" xlink:href="#ma9ea65b0bd" y="81.531812"/>
     <use style="fill:#98df8a;stroke:#ffffff;stroke-linejoin:miter;stroke-width:0.75;" x="316.210069" xlink:href="#ma9ea65b0bd" y="78.327099"/>
     <use style="fill:#98df8a;stroke:#ffffff;stroke-linejoin:miter;stroke-width:0.75;" x="318.919742" xlink:href="#ma9ea65b0bd" y="82.394499"/>
     <use style="fill:#98df8a;stroke:#ffffff;stroke-linejoin:miter;stroke-width:0.75;" x="321.530859" xlink:href="#ma9ea65b0bd" y="84.910931"/>
     <use style="fill:#98df8a;stroke:#ffffff;stroke-linejoin:miter;stroke-width:0.75;" x="324.05034" xlink:href="#ma9ea65b0bd" y="84.848643"/>
     <use style="fill:#98df8a;stroke:#ffffff;stroke-linejoin:miter;stroke-width:0.75;" x="326.484397" xlink:href="#ma9ea65b0bd" y="78.134007"/>
     <use style="fill:#98df8a;stroke:#ffffff;stroke-linejoin:miter;stroke-width:0.75;" x="328.838635" xlink:href="#ma9ea65b0bd" y="84.587034"/>
     <use style="fill:#98df8a;stroke:#ffffff;stroke-linejoin:miter;stroke-width:0.75;" x="331.118122" xlink:href="#ma9ea65b0bd" y="84.306738"/>
     <use style="fill:#98df8a;stroke:#ffffff;stroke-linejoin:miter;stroke-width:0.75;" x="333.32746" xlink:href="#ma9ea65b0bd" y="76.947422"/>
     <use style="fill:#98df8a;stroke:#ffffff;stroke-linejoin:miter;stroke-width:0.75;" x="335.470837" xlink:href="#ma9ea65b0bd" y="81.220372"/>
     <use style="fill:#98df8a;stroke:#ffffff;stroke-linejoin:miter;stroke-width:0.75;" x="337.552079" xlink:href="#ma9ea65b0bd" y="76.860219"/>
     <use style="fill:#98df8a;stroke:#ffffff;stroke-linejoin:miter;stroke-width:0.75;" x="339.574687" xlink:href="#ma9ea65b0bd" y="80.229995"/>
     <use style="fill:#98df8a;stroke:#ffffff;stroke-linejoin:miter;stroke-width:0.75;" x="341.541873" xlink:href="#ma9ea65b0bd" y="80.155249"/>
     <use style="fill:#98df8a;stroke:#ffffff;stroke-linejoin:miter;stroke-width:0.75;" x="343.456595" xlink:href="#ma9ea65b0bd" y="77.193459"/>
     <use style="fill:#98df8a;stroke:#ffffff;stroke-linejoin:miter;stroke-width:0.75;" x="345.321578" xlink:href="#ma9ea65b0bd" y="79.541713"/>
     <use style="fill:#98df8a;stroke:#ffffff;stroke-linejoin:miter;stroke-width:0.75;" x="347.139342" xlink:href="#ma9ea65b0bd" y="79.211587"/>
     <use style="fill:#98df8a;stroke:#ffffff;stroke-linejoin:miter;stroke-width:0.75;" x="348.912217" xlink:href="#ma9ea65b0bd" y="78.959321"/>
     <use style="fill:#98df8a;stroke:#ffffff;stroke-linejoin:miter;stroke-width:0.75;" x="350.642369" xlink:href="#ma9ea65b0bd" y="78.700827"/>
     <use style="fill:#98df8a;stroke:#ffffff;stroke-linejoin:miter;stroke-width:0.75;" x="352.331807" xlink:href="#ma9ea65b0bd" y="76.439776"/>
     <use style="fill:#98df8a;stroke:#ffffff;stroke-linejoin:miter;stroke-width:0.75;" x="353.982404" xlink:href="#ma9ea65b0bd" y="78.112206"/>
     <use style="fill:#98df8a;stroke:#ffffff;stroke-linejoin:miter;stroke-width:0.75;" x="355.595906" xlink:href="#ma9ea65b0bd" y="77.878626"/>
     <use style="fill:#98df8a;stroke:#ffffff;stroke-linejoin:miter;stroke-width:0.75;" x="357.173944" xlink:href="#ma9ea65b0bd" y="79.86561"/>
     <use style="fill:#98df8a;stroke:#ffffff;stroke-linejoin:miter;stroke-width:0.75;" x="358.718042" xlink:href="#ma9ea65b0bd" y="77.685534"/>
     <use style="fill:#98df8a;stroke:#ffffff;stroke-linejoin:miter;stroke-width:0.75;" x="360.229631" xlink:href="#ma9ea65b0bd" y="77.582759"/>
     <use style="fill:#98df8a;stroke:#ffffff;stroke-linejoin:miter;stroke-width:0.75;" x="361.710051" xlink:href="#ma9ea65b0bd" y="75.228276"/>
     <use style="fill:#98df8a;stroke:#ffffff;stroke-linejoin:miter;stroke-width:0.75;" x="363.160561" xlink:href="#ma9ea65b0bd" y="75.499228"/>
     <use style="fill:#98df8a;stroke:#ffffff;stroke-linejoin:miter;stroke-width:0.75;" x="364.582347" xlink:href="#ma9ea65b0bd" y="76.424204"/>
     <use style="fill:#98df8a;stroke:#ffffff;stroke-linejoin:miter;stroke-width:0.75;" x="365.976523" xlink:href="#ma9ea65b0bd" y="75.449398"/>
     <use style="fill:#98df8a;stroke:#ffffff;stroke-linejoin:miter;stroke-width:0.75;" x="367.344142" xlink:href="#ma9ea65b0bd" y="76.156366"/>
     <use style="fill:#98df8a;stroke:#ffffff;stroke-linejoin:miter;stroke-width:0.75;" x="368.686196" xlink:href="#ma9ea65b0bd" y="79.600887"/>
     <use style="fill:#98df8a;stroke:#ffffff;stroke-linejoin:miter;stroke-width:0.75;" x="370.003624" xlink:href="#ma9ea65b0bd" y="76.041133"/>
     <use style="fill:#98df8a;stroke:#ffffff;stroke-linejoin:miter;stroke-width:0.75;" x="371.297313" xlink:href="#ma9ea65b0bd" y="75.595774"/>
     <use style="fill:#98df8a;stroke:#ffffff;stroke-linejoin:miter;stroke-width:0.75;" x="372.568104" xlink:href="#ma9ea65b0bd" y="75.433826"/>
     <use style="fill:#98df8a;stroke:#ffffff;stroke-linejoin:miter;stroke-width:0.75;" x="373.816794" xlink:href="#ma9ea65b0bd" y="78.495276"/>
     <use style="fill:#98df8a;stroke:#ffffff;stroke-linejoin:miter;stroke-width:0.75;" x="375.044136" xlink:href="#ma9ea65b0bd" y="74.929294"/>
     <use style="fill:#98df8a;stroke:#ffffff;stroke-linejoin:miter;stroke-width:0.75;" x="376.250851" xlink:href="#ma9ea65b0bd" y="74.876349"/>
     <use style="fill:#98df8a;stroke:#ffffff;stroke-linejoin:miter;stroke-width:0.75;" x="377.437619" xlink:href="#ma9ea65b0bd" y="74.876349"/>
     <use style="fill:#98df8a;stroke:#ffffff;stroke-linejoin:miter;stroke-width:0.75;" x="378.605089" xlink:href="#ma9ea65b0bd" y="74.539994"/>
     <use style="fill:#98df8a;stroke:#ffffff;stroke-linejoin:miter;stroke-width:0.75;" x="379.753878" xlink:href="#ma9ea65b0bd" y="77.67619"/>
     <use style="fill:#98df8a;stroke:#ffffff;stroke-linejoin:miter;stroke-width:0.75;" x="380.884576" xlink:href="#ma9ea65b0bd" y="73.786311"/>
     <use style="fill:#98df8a;stroke:#ffffff;stroke-linejoin:miter;stroke-width:0.75;" x="381.997743" xlink:href="#ma9ea65b0bd" y="74.814061"/>
     <use style="fill:#98df8a;stroke:#ffffff;stroke-linejoin:miter;stroke-width:0.75;" x="383.093914" xlink:href="#ma9ea65b0bd" y="73.546502"/>
     <use style="fill:#98df8a;stroke:#ffffff;stroke-linejoin:miter;stroke-width:0.75;" x="384.1736" xlink:href="#ma9ea65b0bd" y="73.446842"/>
     <use style="fill:#98df8a;stroke:#ffffff;stroke-linejoin:miter;stroke-width:0.75;" x="385.237291" xlink:href="#ma9ea65b0bd" y="73.222605"/>
     <use style="fill:#98df8a;stroke:#ffffff;stroke-linejoin:miter;stroke-width:0.75;" x="386.285453" xlink:href="#ma9ea65b0bd" y="73.004597"/>
     <use style="fill:#98df8a;stroke:#ffffff;stroke-linejoin:miter;stroke-width:0.75;" x="387.318533" xlink:href="#ma9ea65b0bd" y="72.926738"/>
     <use style="fill:#98df8a;stroke:#ffffff;stroke-linejoin:miter;stroke-width:0.75;" x="388.336959" xlink:href="#ma9ea65b0bd" y="71.257422"/>
     <use style="fill:#98df8a;stroke:#ffffff;stroke-linejoin:miter;stroke-width:0.75;" x="389.341141" xlink:href="#ma9ea65b0bd" y="72.699387"/>
     <use style="fill:#98df8a;stroke:#ffffff;stroke-linejoin:miter;stroke-width:0.75;" x="390.331471" xlink:href="#ma9ea65b0bd" y="73.63682"/>
     <use style="fill:#98df8a;stroke:#ffffff;stroke-linejoin:miter;stroke-width:0.75;" x="391.308327" xlink:href="#ma9ea65b0bd" y="70.609627"/>
     <use style="fill:#98df8a;stroke:#ffffff;stroke-linejoin:miter;stroke-width:0.75;" x="392.272071" xlink:href="#ma9ea65b0bd" y="71.793098"/>
     <use style="fill:#98df8a;stroke:#ffffff;stroke-linejoin:miter;stroke-width:0.75;" x="393.223049" xlink:href="#ma9ea65b0bd" y="70.422764"/>
     <use style="fill:#98df8a;stroke:#ffffff;stroke-linejoin:miter;stroke-width:0.75;" x="394.161596" xlink:href="#ma9ea65b0bd" y="70.39162"/>
     <use style="fill:#98df8a;stroke:#ffffff;stroke-linejoin:miter;stroke-width:0.75;" x="395.088032" xlink:href="#ma9ea65b0bd" y="70.372933"/>
     <use style="fill:#98df8a;stroke:#ffffff;stroke-linejoin:miter;stroke-width:0.75;" x="396.002666" xlink:href="#ma9ea65b0bd" y="69.656622"/>
     <use style="fill:#98df8a;stroke:#ffffff;stroke-linejoin:miter;stroke-width:0.75;" x="396.905795" xlink:href="#ma9ea65b0bd" y="70.902381"/>
     <use style="fill:#98df8a;stroke:#ffffff;stroke-linejoin:miter;stroke-width:0.75;" x="397.797705" xlink:href="#ma9ea65b0bd" y="71.649835"/>
     <use style="fill:#98df8a;stroke:#ffffff;stroke-linejoin:miter;stroke-width:0.75;" x="398.678671" xlink:href="#ma9ea65b0bd" y="70.506852"/>
     <use style="fill:#98df8a;stroke:#ffffff;stroke-linejoin:miter;stroke-width:0.75;" x="399.548958" xlink:href="#ma9ea65b0bd" y="69.625479"/>
     <use style="fill:#98df8a;stroke:#ffffff;stroke-linejoin:miter;stroke-width:0.75;" x="400.408823" xlink:href="#ma9ea65b0bd" y="71.00827"/>
     <use style="fill:#98df8a;stroke:#ffffff;stroke-linejoin:miter;stroke-width:0.75;" x="401.258511" xlink:href="#ma9ea65b0bd" y="68.619529"/>
     <use style="fill:#98df8a;stroke:#ffffff;stroke-linejoin:miter;stroke-width:0.75;" x="402.098261" xlink:href="#ma9ea65b0bd" y="68.470038"/>
     <use style="fill:#98df8a;stroke:#ffffff;stroke-linejoin:miter;stroke-width:0.75;" x="402.928303" xlink:href="#ma9ea65b0bd" y="70.017892"/>
     <use style="fill:#98df8a;stroke:#ffffff;stroke-linejoin:miter;stroke-width:0.75;" x="403.748858" xlink:href="#ma9ea65b0bd" y="69.423043"/>
     <use style="fill:#98df8a;stroke:#ffffff;stroke-linejoin:miter;stroke-width:0.75;" x="404.560142" xlink:href="#ma9ea65b0bd" y="68.597728"/>
     <use style="fill:#98df8a;stroke:#ffffff;stroke-linejoin:miter;stroke-width:0.75;" x="405.36236" xlink:href="#ma9ea65b0bd" y="68.37972"/>
     <use style="fill:#98df8a;stroke:#ffffff;stroke-linejoin:miter;stroke-width:0.75;" x="406.155714" xlink:href="#ma9ea65b0bd" y="68.018451"/>
     <use style="fill:#98df8a;stroke:#ffffff;stroke-linejoin:miter;stroke-width:0.75;" x="406.940398" xlink:href="#ma9ea65b0bd" y="67.414258"/>
    </g>
   </g>
   <g id="line2d_33">
    <path clip-path="url(#p437b185ff1)" d="M 82.285852 271.288805 
L 132.052306 246.174321 
L 161.163816 206.6215 
L 181.81876 182.964553 
L 197.83998 168.152489 
L 210.930269 154.822877 
L 221.997952 139.2509 
L 231.585214 126.519252 
L 240.041779 116.699564 
L 247.606434 111.563926 
L 254.449496 104.989437 
L 260.696723 100.361446 
L 266.443615 97.050844 
L 271.764406 95.250723 
L 276.717943 92.207959 
L 281.351668 90.787795 
L 285.704383 89.520236 
L 289.808233 86.374697 
L 293.690141 86.58959 
L 297.372888 83.739918 
L 300.875915 84.051358 
L 304.21595 81.136284 
L 307.40749 80.731412 
L 310.463177 85.434149 
L 313.394107 80.731412 
L 316.210069 82.927061 
L 318.919742 85.072879 
L 321.530859 84.96699 
L 324.05034 81.911768 
L 326.484397 79.317477 
L 328.838635 78.395616 
L 331.118122 80.87156 
L 333.32746 78.233667 
L 335.470837 78.059261 
L 337.552079 75.383995 
L 339.574687 70.254586 
L 341.541873 72.363032 
L 343.456595 70.584712 
L 345.321578 70.528653 
L 347.139342 70.111324 
L 348.912217 71.674751 
L 350.642369 71.494116 
L 352.331807 73.235063 
L 353.982404 70.970897 
L 355.595906 70.603399 
L 357.173944 73.344067 
L 358.718042 70.179841 
L 360.229631 70.086409 
L 361.710051 72.774132 
L 363.160561 75.530372 
L 364.582347 69.787427 
L 365.976523 68.143026 
L 367.344142 69.650394 
L 368.686196 71.540832 
L 370.003624 68.105654 
L 371.297313 67.893875 
L 372.568104 67.775528 
L 373.816794 67.420487 
L 375.044136 70.475708 
L 376.250851 68.298746 
L 377.437619 67.900104 
L 378.605089 69.834143 
L 379.753878 63.832703 
L 380.884576 65.938034 
L 381.997743 69.500903 
L 383.093914 73.051313 
L 384.1736 65.520705 
L 385.237291 65.308927 
L 386.285453 65.29024 
L 387.318533 59.425834 
L 388.336959 64.960114 
L 389.341141 62.714635 
L 390.331471 64.742107 
L 391.308327 64.667361 
L 392.272071 64.567701 
L 393.223049 60.120344 
L 394.161596 64.461811 
L 395.088032 64.368379 
L 396.002666 62.032583 
L 396.905795 64.150372 
L 397.797705 64.144143 
L 398.678671 64.144143 
L 399.548958 61.549851 
L 400.408823 61.515593 
L 401.258511 61.325615 
L 402.098261 61.188582 
L 402.928303 64.063168 
L 403.748858 60.849113 
L 404.560142 60.817969 
L 405.36236 60.786825 
L 406.155714 60.665363 
L 406.940398 60.5003 
" style="fill:none;stroke:#1f77b4;stroke-linecap:square;stroke-width:1.5;"/>
    <defs>
     <path d="M 0 3 
C 0.795609 3 1.55874 2.683901 2.12132 2.12132 
C 2.683901 1.55874 3 0.795609 3 0 
C 3 -0.795609 2.683901 -1.55874 2.12132 -2.12132 
C 1.55874 -2.683901 0.795609 -3 0 -3 
C -0.795609 -3 -1.55874 -2.683901 -2.12132 -2.12132 
C -2.683901 -1.55874 -3 -0.795609 -3 0 
C -3 0.795609 -2.683901 1.55874 -2.12132 2.12132 
C -1.55874 2.683901 -0.795609 3 0 3 
z
" id="ma1488f11e5" style="stroke:#ffffff;stroke-width:0.75;"/>
    </defs>
    <g clip-path="url(#p437b185ff1)">
     <use style="fill:#1f77b4;stroke:#ffffff;stroke-width:0.75;" x="82.285852" xlink:href="#ma1488f11e5" y="271.288805"/>
     <use style="fill:#1f77b4;stroke:#ffffff;stroke-width:0.75;" x="132.052306" xlink:href="#ma1488f11e5" y="246.174321"/>
     <use style="fill:#1f77b4;stroke:#ffffff;stroke-width:0.75;" x="161.163816" xlink:href="#ma1488f11e5" y="206.6215"/>
     <use style="fill:#1f77b4;stroke:#ffffff;stroke-width:0.75;" x="181.81876" xlink:href="#ma1488f11e5" y="182.964553"/>
     <use style="fill:#1f77b4;stroke:#ffffff;stroke-width:0.75;" x="197.83998" xlink:href="#ma1488f11e5" y="168.152489"/>
     <use style="fill:#1f77b4;stroke:#ffffff;stroke-width:0.75;" x="210.930269" xlink:href="#ma1488f11e5" y="154.822877"/>
     <use style="fill:#1f77b4;stroke:#ffffff;stroke-width:0.75;" x="221.997952" xlink:href="#ma1488f11e5" y="139.2509"/>
     <use style="fill:#1f77b4;stroke:#ffffff;stroke-width:0.75;" x="231.585214" xlink:href="#ma1488f11e5" y="126.519252"/>
     <use style="fill:#1f77b4;stroke:#ffffff;stroke-width:0.75;" x="240.041779" xlink:href="#ma1488f11e5" y="116.699564"/>
     <use style="fill:#1f77b4;stroke:#ffffff;stroke-width:0.75;" x="247.606434" xlink:href="#ma1488f11e5" y="111.563926"/>
     <use style="fill:#1f77b4;stroke:#ffffff;stroke-width:0.75;" x="254.449496" xlink:href="#ma1488f11e5" y="104.989437"/>
     <use style="fill:#1f77b4;stroke:#ffffff;stroke-width:0.75;" x="260.696723" xlink:href="#ma1488f11e5" y="100.361446"/>
     <use style="fill:#1f77b4;stroke:#ffffff;stroke-width:0.75;" x="266.443615" xlink:href="#ma1488f11e5" y="97.050844"/>
     <use style="fill:#1f77b4;stroke:#ffffff;stroke-width:0.75;" x="271.764406" xlink:href="#ma1488f11e5" y="95.250723"/>
     <use style="fill:#1f77b4;stroke:#ffffff;stroke-width:0.75;" x="276.717943" xlink:href="#ma1488f11e5" y="92.207959"/>
     <use style="fill:#1f77b4;stroke:#ffffff;stroke-width:0.75;" x="281.351668" xlink:href="#ma1488f11e5" y="90.787795"/>
     <use style="fill:#1f77b4;stroke:#ffffff;stroke-width:0.75;" x="285.704383" xlink:href="#ma1488f11e5" y="89.520236"/>
     <use style="fill:#1f77b4;stroke:#ffffff;stroke-width:0.75;" x="289.808233" xlink:href="#ma1488f11e5" y="86.374697"/>
     <use style="fill:#1f77b4;stroke:#ffffff;stroke-width:0.75;" x="293.690141" xlink:href="#ma1488f11e5" y="86.58959"/>
     <use style="fill:#1f77b4;stroke:#ffffff;stroke-width:0.75;" x="297.372888" xlink:href="#ma1488f11e5" y="83.739918"/>
     <use style="fill:#1f77b4;stroke:#ffffff;stroke-width:0.75;" x="300.875915" xlink:href="#ma1488f11e5" y="84.051358"/>
     <use style="fill:#1f77b4;stroke:#ffffff;stroke-width:0.75;" x="304.21595" xlink:href="#ma1488f11e5" y="81.136284"/>
     <use style="fill:#1f77b4;stroke:#ffffff;stroke-width:0.75;" x="307.40749" xlink:href="#ma1488f11e5" y="80.731412"/>
     <use style="fill:#1f77b4;stroke:#ffffff;stroke-width:0.75;" x="310.463177" xlink:href="#ma1488f11e5" y="85.434149"/>
     <use style="fill:#1f77b4;stroke:#ffffff;stroke-width:0.75;" x="313.394107" xlink:href="#ma1488f11e5" y="80.731412"/>
     <use style="fill:#1f77b4;stroke:#ffffff;stroke-width:0.75;" x="316.210069" xlink:href="#ma1488f11e5" y="82.927061"/>
     <use style="fill:#1f77b4;stroke:#ffffff;stroke-width:0.75;" x="318.919742" xlink:href="#ma1488f11e5" y="85.072879"/>
     <use style="fill:#1f77b4;stroke:#ffffff;stroke-width:0.75;" x="321.530859" xlink:href="#ma1488f11e5" y="84.96699"/>
     <use style="fill:#1f77b4;stroke:#ffffff;stroke-width:0.75;" x="324.05034" xlink:href="#ma1488f11e5" y="81.911768"/>
     <use style="fill:#1f77b4;stroke:#ffffff;stroke-width:0.75;" x="326.484397" xlink:href="#ma1488f11e5" y="79.317477"/>
     <use style="fill:#1f77b4;stroke:#ffffff;stroke-width:0.75;" x="328.838635" xlink:href="#ma1488f11e5" y="78.395616"/>
     <use style="fill:#1f77b4;stroke:#ffffff;stroke-width:0.75;" x="331.118122" xlink:href="#ma1488f11e5" y="80.87156"/>
     <use style="fill:#1f77b4;stroke:#ffffff;stroke-width:0.75;" x="333.32746" xlink:href="#ma1488f11e5" y="78.233667"/>
     <use style="fill:#1f77b4;stroke:#ffffff;stroke-width:0.75;" x="335.470837" xlink:href="#ma1488f11e5" y="78.059261"/>
     <use style="fill:#1f77b4;stroke:#ffffff;stroke-width:0.75;" x="337.552079" xlink:href="#ma1488f11e5" y="75.383995"/>
     <use style="fill:#1f77b4;stroke:#ffffff;stroke-width:0.75;" x="339.574687" xlink:href="#ma1488f11e5" y="70.254586"/>
     <use style="fill:#1f77b4;stroke:#ffffff;stroke-width:0.75;" x="341.541873" xlink:href="#ma1488f11e5" y="72.363032"/>
     <use style="fill:#1f77b4;stroke:#ffffff;stroke-width:0.75;" x="343.456595" xlink:href="#ma1488f11e5" y="70.584712"/>
     <use style="fill:#1f77b4;stroke:#ffffff;stroke-width:0.75;" x="345.321578" xlink:href="#ma1488f11e5" y="70.528653"/>
     <use style="fill:#1f77b4;stroke:#ffffff;stroke-width:0.75;" x="347.139342" xlink:href="#ma1488f11e5" y="70.111324"/>
     <use style="fill:#1f77b4;stroke:#ffffff;stroke-width:0.75;" x="348.912217" xlink:href="#ma1488f11e5" y="71.674751"/>
     <use style="fill:#1f77b4;stroke:#ffffff;stroke-width:0.75;" x="350.642369" xlink:href="#ma1488f11e5" y="71.494116"/>
     <use style="fill:#1f77b4;stroke:#ffffff;stroke-width:0.75;" x="352.331807" xlink:href="#ma1488f11e5" y="73.235063"/>
     <use style="fill:#1f77b4;stroke:#ffffff;stroke-width:0.75;" x="353.982404" xlink:href="#ma1488f11e5" y="70.970897"/>
     <use style="fill:#1f77b4;stroke:#ffffff;stroke-width:0.75;" x="355.595906" xlink:href="#ma1488f11e5" y="70.603399"/>
     <use style="fill:#1f77b4;stroke:#ffffff;stroke-width:0.75;" x="357.173944" xlink:href="#ma1488f11e5" y="73.344067"/>
     <use style="fill:#1f77b4;stroke:#ffffff;stroke-width:0.75;" x="358.718042" xlink:href="#ma1488f11e5" y="70.179841"/>
     <use style="fill:#1f77b4;stroke:#ffffff;stroke-width:0.75;" x="360.229631" xlink:href="#ma1488f11e5" y="70.086409"/>
     <use style="fill:#1f77b4;stroke:#ffffff;stroke-width:0.75;" x="361.710051" xlink:href="#ma1488f11e5" y="72.774132"/>
     <use style="fill:#1f77b4;stroke:#ffffff;stroke-width:0.75;" x="363.160561" xlink:href="#ma1488f11e5" y="75.530372"/>
     <use style="fill:#1f77b4;stroke:#ffffff;stroke-width:0.75;" x="364.582347" xlink:href="#ma1488f11e5" y="69.787427"/>
     <use style="fill:#1f77b4;stroke:#ffffff;stroke-width:0.75;" x="365.976523" xlink:href="#ma1488f11e5" y="68.143026"/>
     <use style="fill:#1f77b4;stroke:#ffffff;stroke-width:0.75;" x="367.344142" xlink:href="#ma1488f11e5" y="69.650394"/>
     <use style="fill:#1f77b4;stroke:#ffffff;stroke-width:0.75;" x="368.686196" xlink:href="#ma1488f11e5" y="71.540832"/>
     <use style="fill:#1f77b4;stroke:#ffffff;stroke-width:0.75;" x="370.003624" xlink:href="#ma1488f11e5" y="68.105654"/>
     <use style="fill:#1f77b4;stroke:#ffffff;stroke-width:0.75;" x="371.297313" xlink:href="#ma1488f11e5" y="67.893875"/>
     <use style="fill:#1f77b4;stroke:#ffffff;stroke-width:0.75;" x="372.568104" xlink:href="#ma1488f11e5" y="67.775528"/>
     <use style="fill:#1f77b4;stroke:#ffffff;stroke-width:0.75;" x="373.816794" xlink:href="#ma1488f11e5" y="67.420487"/>
     <use style="fill:#1f77b4;stroke:#ffffff;stroke-width:0.75;" x="375.044136" xlink:href="#ma1488f11e5" y="70.475708"/>
     <use style="fill:#1f77b4;stroke:#ffffff;stroke-width:0.75;" x="376.250851" xlink:href="#ma1488f11e5" y="68.298746"/>
     <use style="fill:#1f77b4;stroke:#ffffff;stroke-width:0.75;" x="377.437619" xlink:href="#ma1488f11e5" y="67.900104"/>
     <use style="fill:#1f77b4;stroke:#ffffff;stroke-width:0.75;" x="378.605089" xlink:href="#ma1488f11e5" y="69.834143"/>
     <use style="fill:#1f77b4;stroke:#ffffff;stroke-width:0.75;" x="379.753878" xlink:href="#ma1488f11e5" y="63.832703"/>
     <use style="fill:#1f77b4;stroke:#ffffff;stroke-width:0.75;" x="380.884576" xlink:href="#ma1488f11e5" y="65.938034"/>
     <use style="fill:#1f77b4;stroke:#ffffff;stroke-width:0.75;" x="381.997743" xlink:href="#ma1488f11e5" y="69.500903"/>
     <use style="fill:#1f77b4;stroke:#ffffff;stroke-width:0.75;" x="383.093914" xlink:href="#ma1488f11e5" y="73.051313"/>
     <use style="fill:#1f77b4;stroke:#ffffff;stroke-width:0.75;" x="384.1736" xlink:href="#ma1488f11e5" y="65.520705"/>
     <use style="fill:#1f77b4;stroke:#ffffff;stroke-width:0.75;" x="385.237291" xlink:href="#ma1488f11e5" y="65.308927"/>
     <use style="fill:#1f77b4;stroke:#ffffff;stroke-width:0.75;" x="386.285453" xlink:href="#ma1488f11e5" y="65.29024"/>
     <use style="fill:#1f77b4;stroke:#ffffff;stroke-width:0.75;" x="387.318533" xlink:href="#ma1488f11e5" y="59.425834"/>
     <use style="fill:#1f77b4;stroke:#ffffff;stroke-width:0.75;" x="388.336959" xlink:href="#ma1488f11e5" y="64.960114"/>
     <use style="fill:#1f77b4;stroke:#ffffff;stroke-width:0.75;" x="389.341141" xlink:href="#ma1488f11e5" y="62.714635"/>
     <use style="fill:#1f77b4;stroke:#ffffff;stroke-width:0.75;" x="390.331471" xlink:href="#ma1488f11e5" y="64.742107"/>
     <use style="fill:#1f77b4;stroke:#ffffff;stroke-width:0.75;" x="391.308327" xlink:href="#ma1488f11e5" y="64.667361"/>
     <use style="fill:#1f77b4;stroke:#ffffff;stroke-width:0.75;" x="392.272071" xlink:href="#ma1488f11e5" y="64.567701"/>
     <use style="fill:#1f77b4;stroke:#ffffff;stroke-width:0.75;" x="393.223049" xlink:href="#ma1488f11e5" y="60.120344"/>
     <use style="fill:#1f77b4;stroke:#ffffff;stroke-width:0.75;" x="394.161596" xlink:href="#ma1488f11e5" y="64.461811"/>
     <use style="fill:#1f77b4;stroke:#ffffff;stroke-width:0.75;" x="395.088032" xlink:href="#ma1488f11e5" y="64.368379"/>
     <use style="fill:#1f77b4;stroke:#ffffff;stroke-width:0.75;" x="396.002666" xlink:href="#ma1488f11e5" y="62.032583"/>
     <use style="fill:#1f77b4;stroke:#ffffff;stroke-width:0.75;" x="396.905795" xlink:href="#ma1488f11e5" y="64.150372"/>
     <use style="fill:#1f77b4;stroke:#ffffff;stroke-width:0.75;" x="397.797705" xlink:href="#ma1488f11e5" y="64.144143"/>
     <use style="fill:#1f77b4;stroke:#ffffff;stroke-width:0.75;" x="398.678671" xlink:href="#ma1488f11e5" y="64.144143"/>
     <use style="fill:#1f77b4;stroke:#ffffff;stroke-width:0.75;" x="399.548958" xlink:href="#ma1488f11e5" y="61.549851"/>
     <use style="fill:#1f77b4;stroke:#ffffff;stroke-width:0.75;" x="400.408823" xlink:href="#ma1488f11e5" y="61.515593"/>
     <use style="fill:#1f77b4;stroke:#ffffff;stroke-width:0.75;" x="401.258511" xlink:href="#ma1488f11e5" y="61.325615"/>
     <use style="fill:#1f77b4;stroke:#ffffff;stroke-width:0.75;" x="402.098261" xlink:href="#ma1488f11e5" y="61.188582"/>
     <use style="fill:#1f77b4;stroke:#ffffff;stroke-width:0.75;" x="402.928303" xlink:href="#ma1488f11e5" y="64.063168"/>
     <use style="fill:#1f77b4;stroke:#ffffff;stroke-width:0.75;" x="403.748858" xlink:href="#ma1488f11e5" y="60.849113"/>
     <use style="fill:#1f77b4;stroke:#ffffff;stroke-width:0.75;" x="404.560142" xlink:href="#ma1488f11e5" y="60.817969"/>
     <use style="fill:#1f77b4;stroke:#ffffff;stroke-width:0.75;" x="405.36236" xlink:href="#ma1488f11e5" y="60.786825"/>
     <use style="fill:#1f77b4;stroke:#ffffff;stroke-width:0.75;" x="406.155714" xlink:href="#ma1488f11e5" y="60.665363"/>
     <use style="fill:#1f77b4;stroke:#ffffff;stroke-width:0.75;" x="406.940398" xlink:href="#ma1488f11e5" y="60.5003"/>
    </g>
   </g>
   <g id="line2d_34"/>
   <g id="line2d_35"/>
   <g id="patch_3">
    <path d="M 66.053125 271.083254 
L 66.053125 53.075582 
" style="fill:none;stroke:#000000;stroke-linecap:square;stroke-linejoin:miter;stroke-width:0.8;"/>
   </g>
   <g id="patch_4">
    <path d="M 82.285852 288.430125 
L 406.941265 288.430125 
" style="fill:none;stroke:#000000;stroke-linecap:square;stroke-linejoin:miter;stroke-width:0.8;"/>
   </g>
   <g id="text_17">
    <!-- php_php-fuzz-execute (23h, 14 trials/fuzzer) -->
    <g transform="translate(111.712188 16.318125)scale(0.12 -0.12)">
     <defs>
      <path d="M 1159 525 
L 1159 -1331 
L 581 -1331 
L 581 3500 
L 1159 3500 
L 1159 2969 
Q 1341 3281 1617 3432 
Q 1894 3584 2278 3584 
Q 2916 3584 3314 3078 
Q 3713 2572 3713 1747 
Q 3713 922 3314 415 
Q 2916 -91 2278 -91 
Q 1894 -91 1617 61 
Q 1341 213 1159 525 
z
M 3116 1747 
Q 3116 2381 2855 2742 
Q 2594 3103 2138 3103 
Q 1681 3103 1420 2742 
Q 1159 2381 1159 1747 
Q 1159 1113 1420 752 
Q 1681 391 2138 391 
Q 2594 391 2855 752 
Q 3116 1113 3116 1747 
z
" id="DejaVuSans-70" transform="scale(0.015625)"/>
      <path d="M 3263 -1063 
L 3263 -1509 
L -63 -1509 
L -63 -1063 
L 3263 -1063 
z
" id="DejaVuSans-5f" transform="scale(0.015625)"/>
      <path d="M 313 2009 
L 1997 2009 
L 1997 1497 
L 313 1497 
L 313 2009 
z
" id="DejaVuSans-2d" transform="scale(0.015625)"/>
      <path d="M 2375 4863 
L 2375 4384 
L 1825 4384 
Q 1516 4384 1395 4259 
Q 1275 4134 1275 3809 
L 1275 3500 
L 2222 3500 
L 2222 3053 
L 1275 3053 
L 1275 0 
L 697 0 
L 697 3053 
L 147 3053 
L 147 3500 
L 697 3500 
L 697 3744 
Q 697 4328 969 4595 
Q 1241 4863 1831 4863 
L 2375 4863 
z
" id="DejaVuSans-66" transform="scale(0.015625)"/>
      <path d="M 353 3500 
L 3084 3500 
L 3084 2975 
L 922 459 
L 3084 459 
L 3084 0 
L 275 0 
L 275 525 
L 2438 3041 
L 353 3041 
L 353 3500 
z
" id="DejaVuSans-7a" transform="scale(0.015625)"/>
      <path d="M 3513 3500 
L 2247 1797 
L 3578 0 
L 2900 0 
L 1881 1375 
L 863 0 
L 184 0 
L 1544 1831 
L 300 3500 
L 978 3500 
L 1906 2253 
L 2834 3500 
L 3513 3500 
z
" id="DejaVuSans-78" transform="scale(0.015625)"/>
      <path d="M 750 794 
L 1409 794 
L 1409 256 
L 897 -744 
L 494 -744 
L 750 256 
L 750 794 
z
" id="DejaVuSans-2c" transform="scale(0.015625)"/>
      <path d="M 603 4863 
L 1178 4863 
L 1178 0 
L 603 0 
L 603 4863 
z
" id="DejaVuSans-6c" transform="scale(0.015625)"/>
      <path d="M 2834 3397 
L 2834 2853 
Q 2591 2978 2328 3040 
Q 2066 3103 1784 3103 
Q 1356 3103 1142 2972 
Q 928 2841 928 2578 
Q 928 2378 1081 2264 
Q 1234 2150 1697 2047 
L 1894 2003 
Q 2506 1872 2764 1633 
Q 3022 1394 3022 966 
Q 3022 478 2636 193 
Q 2250 -91 1575 -91 
Q 1294 -91 989 -36 
Q 684 19 347 128 
L 347 722 
Q 666 556 975 473 
Q 1284 391 1588 391 
Q 1994 391 2212 530 
Q 2431 669 2431 922 
Q 2431 1156 2273 1281 
Q 2116 1406 1581 1522 
L 1381 1569 
Q 847 1681 609 1914 
Q 372 2147 372 2553 
Q 372 3047 722 3315 
Q 1072 3584 1716 3584 
Q 2034 3584 2315 3537 
Q 2597 3491 2834 3397 
z
" id="DejaVuSans-73" transform="scale(0.015625)"/>
      <path d="M 1625 4666 
L 2156 4666 
L 531 -594 
L 0 -594 
L 1625 4666 
z
" id="DejaVuSans-2f" transform="scale(0.015625)"/>
     </defs>
     <use xlink:href="#DejaVuSans-70"/>
     <use x="63.476562" xlink:href="#DejaVuSans-68"/>
     <use x="126.855469" xlink:href="#DejaVuSans-70"/>
     <use x="190.332031" xlink:href="#DejaVuSans-5f"/>
     <use x="240.332031" xlink:href="#DejaVuSans-70"/>
     <use x="303.808594" xlink:href="#DejaVuSans-68"/>
     <use x="367.1875" xlink:href="#DejaVuSans-70"/>
     <use x="430.664062" xlink:href="#DejaVuSans-2d"/>
     <use x="466.748047" xlink:href="#DejaVuSans-66"/>
     <use x="501.953125" xlink:href="#DejaVuSans-75"/>
     <use x="565.332031" xlink:href="#DejaVuSans-7a"/>
     <use x="617.822266" xlink:href="#DejaVuSans-7a"/>
     <use x="670.3125" xlink:href="#DejaVuSans-2d"/>
     <use x="706.396484" xlink:href="#DejaVuSans-65"/>
     <use x="766.169922" xlink:href="#DejaVuSans-78"/>
     <use x="822.224609" xlink:href="#DejaVuSans-65"/>
     <use x="883.748047" xlink:href="#DejaVuSans-63"/>
     <use x="938.728516" xlink:href="#DejaVuSans-75"/>
     <use x="1002.107422" xlink:href="#DejaVuSans-74"/>
     <use x="1041.316406" xlink:href="#DejaVuSans-65"/>
     <use x="1102.839844" xlink:href="#DejaVuSans-20"/>
     <use x="1134.626953" xlink:href="#DejaVuSans-28"/>
     <use x="1173.640625" xlink:href="#DejaVuSans-32"/>
     <use x="1237.263672" xlink:href="#DejaVuSans-33"/>
     <use x="1300.886719" xlink:href="#DejaVuSans-68"/>
     <use x="1364.265625" xlink:href="#DejaVuSans-2c"/>
     <use x="1396.052734" xlink:href="#DejaVuSans-20"/>
     <use x="1427.839844" xlink:href="#DejaVuSans-31"/>
     <use x="1491.462891" xlink:href="#DejaVuSans-34"/>
     <use x="1555.085938" xlink:href="#DejaVuSans-20"/>
     <use x="1586.873047" xlink:href="#DejaVuSans-74"/>
     <use x="1626.082031" xlink:href="#DejaVuSans-72"/>
     <use x="1667.195312" xlink:href="#DejaVuSans-69"/>
     <use x="1694.978516" xlink:href="#DejaVuSans-61"/>
     <use x="1756.257812" xlink:href="#DejaVuSans-6c"/>
     <use x="1784.041016" xlink:href="#DejaVuSans-73"/>
     <use x="1836.140625" xlink:href="#DejaVuSans-2f"/>
     <use x="1869.832031" xlink:href="#DejaVuSans-66"/>
     <use x="1905.037109" xlink:href="#DejaVuSans-75"/>
     <use x="1968.416016" xlink:href="#DejaVuSans-7a"/>
     <use x="2020.90625" xlink:href="#DejaVuSans-7a"/>
     <use x="2073.396484" xlink:href="#DejaVuSans-65"/>
     <use x="2134.919922" xlink:href="#DejaVuSans-72"/>
     <use x="2176.033203" xlink:href="#DejaVuSans-29"/>
    </g>
   </g>
   <g id="legend_1">
    <g id="line2d_36">
     <path d="M 427.173125 30.416562 
L 447.173125 30.416562 
" style="fill:none;stroke:#98df8a;stroke-linecap:square;stroke-width:1.5;"/>
    </g>
    <g id="line2d_37">
     <defs>
      <path d="M -0 3 
L 3 -3 
L -3 -3 
z
" id="mfa681e79c2" style="stroke:#98df8a;stroke-linejoin:miter;"/>
     </defs>
     <g>
      <use style="fill:#98df8a;stroke:#98df8a;stroke-linejoin:miter;" x="437.173125" xlink:href="#mfa681e79c2" y="30.416562"/>
     </g>
    </g>
    <g id="text_18">
     <!-- afl_double_timeout -->
     <g transform="translate(455.173125 33.916562)scale(0.1 -0.1)">
      <defs>
       <path d="M 3116 1747 
Q 3116 2381 2855 2742 
Q 2594 3103 2138 3103 
Q 1681 3103 1420 2742 
Q 1159 2381 1159 1747 
Q 1159 1113 1420 752 
Q 1681 391 2138 391 
Q 2594 391 2855 752 
Q 3116 1113 3116 1747 
z
M 1159 2969 
Q 1341 3281 1617 3432 
Q 1894 3584 2278 3584 
Q 2916 3584 3314 3078 
Q 3713 2572 3713 1747 
Q 3713 922 3314 415 
Q 2916 -91 2278 -91 
Q 1894 -91 1617 61 
Q 1341 213 1159 525 
L 1159 0 
L 581 0 
L 581 4863 
L 1159 4863 
L 1159 2969 
z
" id="DejaVuSans-62" transform="scale(0.015625)"/>
      </defs>
      <use xlink:href="#DejaVuSans-61"/>
      <use x="61.279297" xlink:href="#DejaVuSans-66"/>
      <use x="96.484375" xlink:href="#DejaVuSans-6c"/>
      <use x="124.267578" xlink:href="#DejaVuSans-5f"/>
      <use x="174.267578" xlink:href="#DejaVuSans-64"/>
      <use x="237.744141" xlink:href="#DejaVuSans-6f"/>
      <use x="298.925781" xlink:href="#DejaVuSans-75"/>
      <use x="362.304688" xlink:href="#DejaVuSans-62"/>
      <use x="425.78125" xlink:href="#DejaVuSans-6c"/>
      <use x="453.564453" xlink:href="#DejaVuSans-65"/>
      <use x="515.087891" xlink:href="#DejaVuSans-5f"/>
      <use x="565.087891" xlink:href="#DejaVuSans-74"/>
      <use x="604.296875" xlink:href="#DejaVuSans-69"/>
      <use x="632.080078" xlink:href="#DejaVuSans-6d"/>
      <use x="729.492188" xlink:href="#DejaVuSans-65"/>
      <use x="791.015625" xlink:href="#DejaVuSans-6f"/>
      <use x="852.197266" xlink:href="#DejaVuSans-75"/>
      <use x="915.576172" xlink:href="#DejaVuSans-74"/>
     </g>
    </g>
    <g id="line2d_38">
     <path d="M 427.173125 45.372813 
L 447.173125 45.372813 
" style="fill:none;stroke:#1f77b4;stroke-linecap:square;stroke-width:1.5;"/>
    </g>
    <g id="line2d_39">
     <defs>
      <path d="M 0 3 
C 0.795609 3 1.55874 2.683901 2.12132 2.12132 
C 2.683901 1.55874 3 0.795609 3 0 
C 3 -0.795609 2.683901 -1.55874 2.12132 -2.12132 
C 1.55874 -2.683901 0.795609 -3 0 -3 
C -0.795609 -3 -1.55874 -2.683901 -2.12132 -2.12132 
C -2.683901 -1.55874 -3 -0.795609 -3 0 
C -3 0.795609 -2.683901 1.55874 -2.12132 2.12132 
C -1.55874 2.683901 -0.795609 3 0 3 
z
" id="m604a7ea5dc" style="stroke:#1f77b4;"/>
     </defs>
     <g>
      <use style="fill:#1f77b4;stroke:#1f77b4;" x="437.173125" xlink:href="#m604a7ea5dc" y="45.372813"/>
     </g>
    </g>
    <g id="text_19">
     <!-- afl -->
     <g transform="translate(455.173125 48.872813)scale(0.1 -0.1)">
      <use xlink:href="#DejaVuSans-61"/>
      <use x="61.279297" xlink:href="#DejaVuSans-66"/>
      <use x="96.484375" xlink:href="#DejaVuSans-6c"/>
     </g>
    </g>
   </g>
  </g>
 </g>
 <defs>
  <clipPath id="p437b185ff1">
   <rect height="266.112" width="357.12" x="66.053125" y="22.318125"/>
  </clipPath>
 </defs>
</svg>
