<?xml version="1.0" encoding="utf-8" standalone="no"?>
<!DOCTYPE svg PUBLIC "-//W3C//DTD SVG 1.1//EN"
  "http://www.w3.org/Graphics/SVG/1.1/DTD/svg11.dtd">
<svg height="325.986375pt" version="1.1" viewBox="0 0 536.402812 325.986375" width="536.402812pt" xmlns="http://www.w3.org/2000/svg" xmlns:xlink="http://www.w3.org/1999/xlink">
 <metadata>
  <rdf:RDF xmlns:cc="http://creativecommons.org/ns#" xmlns:dc="http://purl.org/dc/elements/1.1/" xmlns:rdf="http://www.w3.org/1999/02/22-rdf-syntax-ns#">
   <cc:Work>
    <dc:type rdf:resource="http://purl.org/dc/dcmitype/StillImage"/>
    <dc:date>2022-06-03T14:01:26.043641</dc:date>
    <dc:format>image/svg+xml</dc:format>
    <dc:creator>
     <cc:Agent>
      <dc:title>Matplotlib v3.4.3, https://matplotlib.org/</dc:title>
     </cc:Agent>
    </dc:creator>
   </cc:Work>
  </rdf:RDF>
 </metadata>
 <defs>
  <style type="text/css">*{stroke-linecap:butt;stroke-linejoin:round;}</style>
 </defs>
 <g id="figure_1">
  <g id="patch_1">
   <path d="M 0 325.986375 
L 536.402812 325.986375 
L 536.402812 0 
L 0 0 
z
" style="fill:#ffffff;"/>
  </g>
  <g id="axes_1">
   <g id="patch_2">
    <path d="M 40.603125 288.430125 
L 397.723125 288.430125 
L 397.723125 22.318125 
L 40.603125 22.318125 
z
" style="fill:#ffffff;"/>
   </g>
   <g id="PolyCollection_1">
    <defs>
     <path d="M 56.835852 -65.78025 
L 56.835852 -49.65225 
L 60.403485 -49.65225 
L 63.971117 -49.65225 
L 67.538749 -49.65225 
L 71.106382 -49.65225 
L 74.674014 -65.78025 
L 78.241646 -81.90825 
L 81.809279 -81.90825 
L 85.376911 -81.90825 
L 88.944544 -81.90825 
L 92.512176 -81.90825 
L 96.079808 -81.90825 
L 99.647441 -81.90825 
L 103.215073 -98.03625 
L 106.782705 -98.03625 
L 110.350338 -98.03625 
L 113.91797 -98.03625 
L 117.485603 -114.16425 
L 121.053235 -114.16425 
L 124.620867 -114.16425 
L 128.1885 -114.16425 
L 131.756132 -114.16425 
L 135.323764 -114.16425 
L 138.891397 -114.16425 
L 142.459029 -130.29225 
L 146.026661 -130.29225 
L 149.594294 -130.29225 
L 153.161926 -130.29225 
L 156.729559 -130.29225 
L 160.297191 -138.35625 
L 163.864823 -146.42025 
L 167.432456 -146.42025 
L 171.000088 -146.42025 
L 174.56772 -146.42025 
L 178.135353 -146.42025 
L 181.702985 -162.54825 
L 185.270618 -162.54825 
L 188.83825 -162.54825 
L 192.405882 -162.54825 
L 195.973515 -162.54825 
L 199.541147 -162.54825 
L 203.108779 -162.54825 
L 206.676412 -178.67625 
L 210.244044 -162.54825 
L 213.811676 -162.54825 
L 217.379309 -178.67625 
L 220.946941 -178.67625 
L 224.514574 -178.67625 
L 228.082206 -178.67625 
L 231.649838 -178.67625 
L 235.217471 -210.93225 
L 238.785103 -210.93225 
L 242.352735 -194.80425 
L 245.920368 -210.93225 
L 249.488 -210.93225 
L 253.055632 -210.93225 
L 256.623265 -218.99625 
L 260.190897 -227.06025 
L 263.75853 -227.06025 
L 267.326162 -243.18825 
L 270.893794 -235.12425 
L 274.461427 -227.06025 
L 278.029059 -235.12425 
L 281.596691 -243.18825 
L 285.164324 -243.18825 
L 288.731956 -235.12425 
L 292.299589 -243.18825 
L 295.867221 -243.18825 
L 299.434853 -235.12425 
L 303.002486 -243.18825 
L 306.570118 -243.18825 
L 310.13775 -243.18825 
L 313.705383 -243.18825 
L 317.273015 -243.18825 
L 320.840647 -235.12425 
L 324.40828 -243.18825 
L 327.975912 -243.18825 
L 331.543545 -243.18825 
L 335.111177 -243.18825 
L 338.678809 -259.31625 
L 342.246442 -243.18825 
L 345.814074 -259.31625 
L 349.381706 -259.31625 
L 352.949339 -251.25225 
L 356.516971 -259.31625 
L 360.084604 -243.18825 
L 363.652236 -235.12425 
L 367.219868 -243.18825 
L 370.787501 -227.06025 
L 374.355133 -243.18825 
L 377.922765 -227.06025 
L 381.490398 -243.18825 
L 381.490398 -275.44425 
L 381.490398 -275.44425 
L 377.922765 -275.44425 
L 374.355133 -275.44425 
L 370.787501 -275.44425 
L 367.219868 -275.44425 
L 363.652236 -275.44425 
L 360.084604 -275.44425 
L 356.516971 -283.50825 
L 352.949339 -275.44425 
L 349.381706 -291.57225 
L 345.814074 -275.44425 
L 342.246442 -275.44425 
L 338.678809 -275.44425 
L 335.111177 -275.44425 
L 331.543545 -275.44425 
L 327.975912 -275.44425 
L 324.40828 -275.44425 
L 320.840647 -275.44425 
L 317.273015 -275.44425 
L 313.705383 -275.44425 
L 310.13775 -275.44425 
L 306.570118 -275.44425 
L 303.002486 -267.38025 
L 299.434853 -259.31625 
L 295.867221 -259.31625 
L 292.299589 -259.31625 
L 288.731956 -259.31625 
L 285.164324 -259.31625 
L 281.596691 -259.31625 
L 278.029059 -259.31625 
L 274.461427 -259.31625 
L 270.893794 -259.31625 
L 267.326162 -259.31625 
L 263.75853 -259.31625 
L 260.190897 -259.31625 
L 256.623265 -259.31625 
L 253.055632 -259.31625 
L 249.488 -259.31625 
L 245.920368 -259.31625 
L 242.352735 -259.31625 
L 238.785103 -259.31625 
L 235.217471 -259.31625 
L 231.649838 -259.31625 
L 228.082206 -259.31625 
L 224.514574 -259.31625 
L 220.946941 -259.31625 
L 217.379309 -243.18825 
L 213.811676 -243.18825 
L 210.244044 -243.18825 
L 206.676412 -243.18825 
L 203.108779 -243.18825 
L 199.541147 -227.06025 
L 195.973515 -227.06025 
L 192.405882 -227.06025 
L 188.83825 -227.06025 
L 185.270618 -227.06025 
L 181.702985 -227.06025 
L 178.135353 -210.93225 
L 174.56772 -210.93225 
L 171.000088 -202.86825 
L 167.432456 -210.93225 
L 163.864823 -194.80425 
L 160.297191 -194.80425 
L 156.729559 -194.80425 
L 153.161926 -186.74025 
L 149.594294 -178.67625 
L 146.026661 -170.61225 
L 142.459029 -194.80425 
L 138.891397 -162.54825 
L 135.323764 -178.67625 
L 131.756132 -162.54825 
L 128.1885 -162.54825 
L 124.620867 -162.54825 
L 121.053235 -178.67625 
L 117.485603 -146.42025 
L 113.91797 -146.42025 
L 110.350338 -154.48425 
L 106.782705 -146.42025 
L 103.215073 -130.29225 
L 99.647441 -130.29225 
L 96.079808 -130.29225 
L 92.512176 -130.29225 
L 88.944544 -130.29225 
L 85.376911 -114.16425 
L 81.809279 -114.16425 
L 78.241646 -114.16425 
L 74.674014 -98.03625 
L 71.106382 -98.03625 
L 67.538749 -98.03625 
L 63.971117 -82.31145 
L 60.403485 -81.90825 
L 56.835852 -65.78025 
z
" id="m5b00098009" style="stroke:#1f77b4;stroke-opacity:0.2;"/>
    </defs>
    <g clip-path="url(#pf8ef851bdd)">
     <use style="fill:#1f77b4;fill-opacity:0.2;stroke:#1f77b4;stroke-opacity:0.2;" x="0" xlink:href="#m5b00098009" y="325.986375"/>
    </g>
   </g>
   <g id="PolyCollection_2">
    <defs>
     <path d="M 56.835852 -49.65225 
L 56.835852 -49.65225 
L 60.403485 -49.65225 
L 63.971117 -49.65225 
L 67.538749 -65.78025 
L 71.106382 -65.78025 
L 74.674014 -65.78025 
L 78.241646 -73.84425 
L 81.809279 -81.90825 
L 85.376911 -81.90825 
L 88.944544 -81.90825 
L 92.512176 -81.90825 
L 96.079808 -81.90825 
L 99.647441 -98.03625 
L 103.215073 -81.90825 
L 106.782705 -81.90825 
L 110.350338 -98.03625 
L 113.91797 -98.03625 
L 117.485603 -114.16425 
L 121.053235 -113.76105 
L 124.620867 -98.03625 
L 128.1885 -122.22825 
L 131.756132 -130.29225 
L 135.323764 -114.16425 
L 138.891397 -114.16425 
L 142.459029 -114.16425 
L 146.026661 -146.42025 
L 149.594294 -162.54825 
L 153.161926 -138.35625 
L 156.729559 -130.29225 
L 160.297191 -130.29225 
L 163.864823 -130.29225 
L 167.432456 -122.22825 
L 171.000088 -130.29225 
L 174.56772 -130.29225 
L 178.135353 -130.29225 
L 181.702985 -130.29225 
L 185.270618 -130.29225 
L 188.83825 -130.29225 
L 192.405882 -138.35625 
L 195.973515 -146.42025 
L 199.541147 -146.42025 
L 203.108779 -178.67625 
L 206.676412 -162.54825 
L 210.244044 -146.42025 
L 213.811676 -162.54825 
L 217.379309 -178.67625 
L 220.946941 -178.67625 
L 224.514574 -170.61225 
L 228.082206 -178.67625 
L 231.649838 -178.67625 
L 235.217471 -178.67625 
L 238.785103 -178.67625 
L 242.352735 -186.74025 
L 245.920368 -194.80425 
L 249.488 -186.74025 
L 253.055632 -194.80425 
L 256.623265 -210.93225 
L 260.190897 -210.93225 
L 263.75853 -227.06025 
L 267.326162 -210.93225 
L 270.893794 -227.06025 
L 274.461427 -227.06025 
L 278.029059 -227.06025 
L 281.596691 -227.06025 
L 285.164324 -227.06025 
L 288.731956 -227.06025 
L 292.299589 -227.06025 
L 295.867221 -227.06025 
L 299.434853 -227.06025 
L 303.002486 -210.93225 
L 306.570118 -227.06025 
L 310.13775 -227.06025 
L 313.705383 -227.06025 
L 317.273015 -227.06025 
L 320.840647 -218.99625 
L 324.40828 -227.06025 
L 327.975912 -227.06025 
L 331.543545 -227.06025 
L 335.111177 -210.93225 
L 338.678809 -226.65705 
L 342.246442 -210.93225 
L 345.814074 -227.06025 
L 349.381706 -227.06025 
L 352.949339 -227.06025 
L 356.516971 -218.99625 
L 360.084604 -210.93225 
L 363.652236 -227.06025 
L 367.219868 -218.79465 
L 370.787501 -210.93225 
L 374.355133 -210.93225 
L 377.922765 -210.93225 
L 381.490398 -210.93225 
L 381.490398 -259.71945 
L 381.490398 -259.71945 
L 377.922765 -267.38025 
L 374.355133 -259.31625 
L 370.787501 -267.38025 
L 367.219868 -259.31625 
L 363.652236 -259.71945 
L 360.084604 -259.31625 
L 356.516971 -259.31625 
L 352.949339 -259.31625 
L 349.381706 -275.44425 
L 345.814074 -259.31625 
L 342.246442 -275.44425 
L 338.678809 -259.31625 
L 335.111177 -259.31625 
L 331.543545 -259.31625 
L 327.975912 -275.44425 
L 324.40828 -275.44425 
L 320.840647 -259.31625 
L 317.273015 -267.38025 
L 313.705383 -267.38025 
L 310.13775 -259.31625 
L 306.570118 -259.31625 
L 303.002486 -251.25225 
L 299.434853 -251.45385 
L 295.867221 -259.31625 
L 292.299589 -259.31625 
L 288.731956 -243.18825 
L 285.164324 -243.18825 
L 281.596691 -251.25225 
L 278.029059 -243.18825 
L 274.461427 -243.18825 
L 270.893794 -251.25225 
L 267.326162 -243.18825 
L 263.75853 -243.18825 
L 260.190897 -243.18825 
L 256.623265 -243.18825 
L 253.055632 -243.18825 
L 249.488 -235.12425 
L 245.920368 -227.26185 
L 242.352735 -235.12425 
L 238.785103 -227.06025 
L 235.217471 -227.06025 
L 231.649838 -227.06025 
L 228.082206 -227.06025 
L 224.514574 -227.06025 
L 220.946941 -227.06025 
L 217.379309 -227.06025 
L 213.811676 -227.06025 
L 210.244044 -227.06025 
L 206.676412 -227.06025 
L 203.108779 -227.06025 
L 199.541147 -210.93225 
L 195.973515 -210.93225 
L 192.405882 -210.93225 
L 188.83825 -210.93225 
L 185.270618 -210.93225 
L 181.702985 -210.93225 
L 178.135353 -210.93225 
L 174.56772 -211.13385 
L 171.000088 -210.93225 
L 167.432456 -194.80425 
L 163.864823 -210.93225 
L 160.297191 -194.80425 
L 156.729559 -194.80425 
L 153.161926 -194.80425 
L 149.594294 -194.80425 
L 146.026661 -194.80425 
L 142.459029 -194.80425 
L 138.891397 -178.67625 
L 135.323764 -178.67625 
L 131.756132 -162.54825 
L 128.1885 -162.54825 
L 124.620867 -162.54825 
L 121.053235 -162.54825 
L 117.485603 -178.67625 
L 113.91797 -162.54825 
L 110.350338 -162.54825 
L 106.782705 -162.54825 
L 103.215073 -146.42025 
L 99.647441 -162.54825 
L 96.079808 -130.29225 
L 92.512176 -130.29225 
L 88.944544 -130.29225 
L 85.376911 -122.22825 
L 81.809279 -98.03625 
L 78.241646 -98.03625 
L 74.674014 -98.03625 
L 71.106382 -98.03625 
L 67.538749 -81.90825 
L 63.971117 -65.78025 
L 60.403485 -65.78025 
L 56.835852 -49.65225 
z
" id="mc95dcee60a" style="stroke:#98df8a;stroke-opacity:0.2;"/>
    </defs>
    <g clip-path="url(#pf8ef851bdd)">
     <use style="fill:#98df8a;fill-opacity:0.2;stroke:#98df8a;stroke-opacity:0.2;" x="0" xlink:href="#mc95dcee60a" y="325.986375"/>
    </g>
   </g>
   <g id="matplotlib.axis_1">
    <g id="xtick_1">
     <g id="line2d_1">
      <defs>
       <path d="M 0 0 
L 0 3.5 
" id="m29b917d23e" style="stroke:#000000;stroke-width:0.8;"/>
      </defs>
      <g>
       <use style="stroke:#000000;stroke-width:0.8;" x="56.835852" xlink:href="#m29b917d23e" y="288.430125"/>
      </g>
     </g>
     <g id="text_1">
      <!-- 15m -->
      <g transform="translate(45.60304 303.028562)scale(0.1 -0.1)">
       <defs>
        <path d="M 794 531 
L 1825 531 
L 1825 4091 
L 703 3866 
L 703 4441 
L 1819 4666 
L 2450 4666 
L 2450 531 
L 3481 531 
L 3481 0 
L 794 0 
L 794 531 
z
" id="DejaVuSans-31" transform="scale(0.015625)"/>
        <path d="M 691 4666 
L 3169 4666 
L 3169 4134 
L 1269 4134 
L 1269 2991 
Q 1406 3038 1543 3061 
Q 1681 3084 1819 3084 
Q 2600 3084 3056 2656 
Q 3513 2228 3513 1497 
Q 3513 744 3044 326 
Q 2575 -91 1722 -91 
Q 1428 -91 1123 -41 
Q 819 9 494 109 
L 494 744 
Q 775 591 1075 516 
Q 1375 441 1709 441 
Q 2250 441 2565 725 
Q 2881 1009 2881 1497 
Q 2881 1984 2565 2268 
Q 2250 2553 1709 2553 
Q 1456 2553 1204 2497 
Q 953 2441 691 2322 
L 691 4666 
z
" id="DejaVuSans-35" transform="scale(0.015625)"/>
        <path d="M 3328 2828 
Q 3544 3216 3844 3400 
Q 4144 3584 4550 3584 
Q 5097 3584 5394 3201 
Q 5691 2819 5691 2113 
L 5691 0 
L 5113 0 
L 5113 2094 
Q 5113 2597 4934 2840 
Q 4756 3084 4391 3084 
Q 3944 3084 3684 2787 
Q 3425 2491 3425 1978 
L 3425 0 
L 2847 0 
L 2847 2094 
Q 2847 2600 2669 2842 
Q 2491 3084 2119 3084 
Q 1678 3084 1418 2786 
Q 1159 2488 1159 1978 
L 1159 0 
L 581 0 
L 581 3500 
L 1159 3500 
L 1159 2956 
Q 1356 3278 1631 3431 
Q 1906 3584 2284 3584 
Q 2666 3584 2933 3390 
Q 3200 3197 3328 2828 
z
" id="DejaVuSans-6d" transform="scale(0.015625)"/>
       </defs>
       <use xlink:href="#DejaVuSans-31"/>
       <use x="63.623047" xlink:href="#DejaVuSans-35"/>
       <use x="127.246094" xlink:href="#DejaVuSans-6d"/>
      </g>
     </g>
    </g>
    <g id="xtick_2">
     <g id="line2d_2">
      <g>
       <use style="stroke:#000000;stroke-width:0.8;" x="111.539549" xlink:href="#m29b917d23e" y="288.430125"/>
      </g>
     </g>
     <g id="text_2">
      <!-- 4h:5m -->
      <g transform="translate(95.453611 303.028562)scale(0.1 -0.1)">
       <defs>
        <path d="M 2419 4116 
L 825 1625 
L 2419 1625 
L 2419 4116 
z
M 2253 4666 
L 3047 4666 
L 3047 1625 
L 3713 1625 
L 3713 1100 
L 3047 1100 
L 3047 0 
L 2419 0 
L 2419 1100 
L 313 1100 
L 313 1709 
L 2253 4666 
z
" id="DejaVuSans-34" transform="scale(0.015625)"/>
        <path d="M 3513 2113 
L 3513 0 
L 2938 0 
L 2938 2094 
Q 2938 2591 2744 2837 
Q 2550 3084 2163 3084 
Q 1697 3084 1428 2787 
Q 1159 2491 1159 1978 
L 1159 0 
L 581 0 
L 581 4863 
L 1159 4863 
L 1159 2956 
Q 1366 3272 1645 3428 
Q 1925 3584 2291 3584 
Q 2894 3584 3203 3211 
Q 3513 2838 3513 2113 
z
" id="DejaVuSans-68" transform="scale(0.015625)"/>
        <path d="M 750 794 
L 1409 794 
L 1409 0 
L 750 0 
L 750 794 
z
M 750 3309 
L 1409 3309 
L 1409 2516 
L 750 2516 
L 750 3309 
z
" id="DejaVuSans-3a" transform="scale(0.015625)"/>
       </defs>
       <use xlink:href="#DejaVuSans-34"/>
       <use x="63.623047" xlink:href="#DejaVuSans-68"/>
       <use x="127.001953" xlink:href="#DejaVuSans-3a"/>
       <use x="160.693359" xlink:href="#DejaVuSans-35"/>
       <use x="224.316406" xlink:href="#DejaVuSans-6d"/>
      </g>
     </g>
    </g>
    <g id="xtick_3">
     <g id="line2d_3">
      <g>
       <use style="stroke:#000000;stroke-width:0.8;" x="166.243245" xlink:href="#m29b917d23e" y="288.430125"/>
      </g>
     </g>
     <g id="text_3">
      <!-- 7h:55m -->
      <g transform="translate(146.976057 303.028562)scale(0.1 -0.1)">
       <defs>
        <path d="M 525 4666 
L 3525 4666 
L 3525 4397 
L 1831 0 
L 1172 0 
L 2766 4134 
L 525 4134 
L 525 4666 
z
" id="DejaVuSans-37" transform="scale(0.015625)"/>
       </defs>
       <use xlink:href="#DejaVuSans-37"/>
       <use x="63.623047" xlink:href="#DejaVuSans-68"/>
       <use x="127.001953" xlink:href="#DejaVuSans-3a"/>
       <use x="160.693359" xlink:href="#DejaVuSans-35"/>
       <use x="224.316406" xlink:href="#DejaVuSans-35"/>
       <use x="287.939453" xlink:href="#DejaVuSans-6d"/>
      </g>
     </g>
    </g>
    <g id="xtick_4">
     <g id="line2d_4">
      <g>
       <use style="stroke:#000000;stroke-width:0.8;" x="220.946941" xlink:href="#m29b917d23e" y="288.430125"/>
      </g>
     </g>
     <g id="text_4">
      <!-- 11h:45m -->
      <g transform="translate(198.498504 303.028562)scale(0.1 -0.1)">
       <use xlink:href="#DejaVuSans-31"/>
       <use x="63.623047" xlink:href="#DejaVuSans-31"/>
       <use x="127.246094" xlink:href="#DejaVuSans-68"/>
       <use x="190.625" xlink:href="#DejaVuSans-3a"/>
       <use x="224.316406" xlink:href="#DejaVuSans-34"/>
       <use x="287.939453" xlink:href="#DejaVuSans-35"/>
       <use x="351.5625" xlink:href="#DejaVuSans-6d"/>
      </g>
     </g>
    </g>
    <g id="xtick_5">
     <g id="line2d_5">
      <g>
       <use style="stroke:#000000;stroke-width:0.8;" x="275.650637" xlink:href="#m29b917d23e" y="288.430125"/>
      </g>
     </g>
     <g id="text_5">
      <!-- 15h:35m -->
      <g transform="translate(253.2022 303.028562)scale(0.1 -0.1)">
       <defs>
        <path d="M 2597 2516 
Q 3050 2419 3304 2112 
Q 3559 1806 3559 1356 
Q 3559 666 3084 287 
Q 2609 -91 1734 -91 
Q 1441 -91 1130 -33 
Q 819 25 488 141 
L 488 750 
Q 750 597 1062 519 
Q 1375 441 1716 441 
Q 2309 441 2620 675 
Q 2931 909 2931 1356 
Q 2931 1769 2642 2001 
Q 2353 2234 1838 2234 
L 1294 2234 
L 1294 2753 
L 1863 2753 
Q 2328 2753 2575 2939 
Q 2822 3125 2822 3475 
Q 2822 3834 2567 4026 
Q 2313 4219 1838 4219 
Q 1578 4219 1281 4162 
Q 984 4106 628 3988 
L 628 4550 
Q 988 4650 1302 4700 
Q 1616 4750 1894 4750 
Q 2613 4750 3031 4423 
Q 3450 4097 3450 3541 
Q 3450 3153 3228 2886 
Q 3006 2619 2597 2516 
z
" id="DejaVuSans-33" transform="scale(0.015625)"/>
       </defs>
       <use xlink:href="#DejaVuSans-31"/>
       <use x="63.623047" xlink:href="#DejaVuSans-35"/>
       <use x="127.246094" xlink:href="#DejaVuSans-68"/>
       <use x="190.625" xlink:href="#DejaVuSans-3a"/>
       <use x="224.316406" xlink:href="#DejaVuSans-33"/>
       <use x="287.939453" xlink:href="#DejaVuSans-35"/>
       <use x="351.5625" xlink:href="#DejaVuSans-6d"/>
      </g>
     </g>
    </g>
    <g id="xtick_6">
     <g id="line2d_6">
      <g>
       <use style="stroke:#000000;stroke-width:0.8;" x="330.354334" xlink:href="#m29b917d23e" y="288.430125"/>
      </g>
     </g>
     <g id="text_6">
      <!-- 19h:25m -->
      <g transform="translate(307.905896 303.028562)scale(0.1 -0.1)">
       <defs>
        <path d="M 703 97 
L 703 672 
Q 941 559 1184 500 
Q 1428 441 1663 441 
Q 2288 441 2617 861 
Q 2947 1281 2994 2138 
Q 2813 1869 2534 1725 
Q 2256 1581 1919 1581 
Q 1219 1581 811 2004 
Q 403 2428 403 3163 
Q 403 3881 828 4315 
Q 1253 4750 1959 4750 
Q 2769 4750 3195 4129 
Q 3622 3509 3622 2328 
Q 3622 1225 3098 567 
Q 2575 -91 1691 -91 
Q 1453 -91 1209 -44 
Q 966 3 703 97 
z
M 1959 2075 
Q 2384 2075 2632 2365 
Q 2881 2656 2881 3163 
Q 2881 3666 2632 3958 
Q 2384 4250 1959 4250 
Q 1534 4250 1286 3958 
Q 1038 3666 1038 3163 
Q 1038 2656 1286 2365 
Q 1534 2075 1959 2075 
z
" id="DejaVuSans-39" transform="scale(0.015625)"/>
        <path d="M 1228 531 
L 3431 531 
L 3431 0 
L 469 0 
L 469 531 
Q 828 903 1448 1529 
Q 2069 2156 2228 2338 
Q 2531 2678 2651 2914 
Q 2772 3150 2772 3378 
Q 2772 3750 2511 3984 
Q 2250 4219 1831 4219 
Q 1534 4219 1204 4116 
Q 875 4013 500 3803 
L 500 4441 
Q 881 4594 1212 4672 
Q 1544 4750 1819 4750 
Q 2544 4750 2975 4387 
Q 3406 4025 3406 3419 
Q 3406 3131 3298 2873 
Q 3191 2616 2906 2266 
Q 2828 2175 2409 1742 
Q 1991 1309 1228 531 
z
" id="DejaVuSans-32" transform="scale(0.015625)"/>
       </defs>
       <use xlink:href="#DejaVuSans-31"/>
       <use x="63.623047" xlink:href="#DejaVuSans-39"/>
       <use x="127.246094" xlink:href="#DejaVuSans-68"/>
       <use x="190.625" xlink:href="#DejaVuSans-3a"/>
       <use x="224.316406" xlink:href="#DejaVuSans-32"/>
       <use x="287.939453" xlink:href="#DejaVuSans-35"/>
       <use x="351.5625" xlink:href="#DejaVuSans-6d"/>
      </g>
     </g>
    </g>
    <g id="text_7">
     <!-- Time (hour:minute) -->
     <g transform="translate(170.756094 316.706687)scale(0.1 -0.1)">
      <defs>
       <path d="M -19 4666 
L 3928 4666 
L 3928 4134 
L 2272 4134 
L 2272 0 
L 1638 0 
L 1638 4134 
L -19 4134 
L -19 4666 
z
" id="DejaVuSans-54" transform="scale(0.015625)"/>
       <path d="M 603 3500 
L 1178 3500 
L 1178 0 
L 603 0 
L 603 3500 
z
M 603 4863 
L 1178 4863 
L 1178 4134 
L 603 4134 
L 603 4863 
z
" id="DejaVuSans-69" transform="scale(0.015625)"/>
       <path d="M 3597 1894 
L 3597 1613 
L 953 1613 
Q 991 1019 1311 708 
Q 1631 397 2203 397 
Q 2534 397 2845 478 
Q 3156 559 3463 722 
L 3463 178 
Q 3153 47 2828 -22 
Q 2503 -91 2169 -91 
Q 1331 -91 842 396 
Q 353 884 353 1716 
Q 353 2575 817 3079 
Q 1281 3584 2069 3584 
Q 2775 3584 3186 3129 
Q 3597 2675 3597 1894 
z
M 3022 2063 
Q 3016 2534 2758 2815 
Q 2500 3097 2075 3097 
Q 1594 3097 1305 2825 
Q 1016 2553 972 2059 
L 3022 2063 
z
" id="DejaVuSans-65" transform="scale(0.015625)"/>
       <path id="DejaVuSans-20" transform="scale(0.015625)"/>
       <path d="M 1984 4856 
Q 1566 4138 1362 3434 
Q 1159 2731 1159 2009 
Q 1159 1288 1364 580 
Q 1569 -128 1984 -844 
L 1484 -844 
Q 1016 -109 783 600 
Q 550 1309 550 2009 
Q 550 2706 781 3412 
Q 1013 4119 1484 4856 
L 1984 4856 
z
" id="DejaVuSans-28" transform="scale(0.015625)"/>
       <path d="M 1959 3097 
Q 1497 3097 1228 2736 
Q 959 2375 959 1747 
Q 959 1119 1226 758 
Q 1494 397 1959 397 
Q 2419 397 2687 759 
Q 2956 1122 2956 1747 
Q 2956 2369 2687 2733 
Q 2419 3097 1959 3097 
z
M 1959 3584 
Q 2709 3584 3137 3096 
Q 3566 2609 3566 1747 
Q 3566 888 3137 398 
Q 2709 -91 1959 -91 
Q 1206 -91 779 398 
Q 353 888 353 1747 
Q 353 2609 779 3096 
Q 1206 3584 1959 3584 
z
" id="DejaVuSans-6f" transform="scale(0.015625)"/>
       <path d="M 544 1381 
L 544 3500 
L 1119 3500 
L 1119 1403 
Q 1119 906 1312 657 
Q 1506 409 1894 409 
Q 2359 409 2629 706 
Q 2900 1003 2900 1516 
L 2900 3500 
L 3475 3500 
L 3475 0 
L 2900 0 
L 2900 538 
Q 2691 219 2414 64 
Q 2138 -91 1772 -91 
Q 1169 -91 856 284 
Q 544 659 544 1381 
z
M 1991 3584 
L 1991 3584 
z
" id="DejaVuSans-75" transform="scale(0.015625)"/>
       <path d="M 2631 2963 
Q 2534 3019 2420 3045 
Q 2306 3072 2169 3072 
Q 1681 3072 1420 2755 
Q 1159 2438 1159 1844 
L 1159 0 
L 581 0 
L 581 3500 
L 1159 3500 
L 1159 2956 
Q 1341 3275 1631 3429 
Q 1922 3584 2338 3584 
Q 2397 3584 2469 3576 
Q 2541 3569 2628 3553 
L 2631 2963 
z
" id="DejaVuSans-72" transform="scale(0.015625)"/>
       <path d="M 3513 2113 
L 3513 0 
L 2938 0 
L 2938 2094 
Q 2938 2591 2744 2837 
Q 2550 3084 2163 3084 
Q 1697 3084 1428 2787 
Q 1159 2491 1159 1978 
L 1159 0 
L 581 0 
L 581 3500 
L 1159 3500 
L 1159 2956 
Q 1366 3272 1645 3428 
Q 1925 3584 2291 3584 
Q 2894 3584 3203 3211 
Q 3513 2838 3513 2113 
z
" id="DejaVuSans-6e" transform="scale(0.015625)"/>
       <path d="M 1172 4494 
L 1172 3500 
L 2356 3500 
L 2356 3053 
L 1172 3053 
L 1172 1153 
Q 1172 725 1289 603 
Q 1406 481 1766 481 
L 2356 481 
L 2356 0 
L 1766 0 
Q 1100 0 847 248 
Q 594 497 594 1153 
L 594 3053 
L 172 3053 
L 172 3500 
L 594 3500 
L 594 4494 
L 1172 4494 
z
" id="DejaVuSans-74" transform="scale(0.015625)"/>
       <path d="M 513 4856 
L 1013 4856 
Q 1481 4119 1714 3412 
Q 1947 2706 1947 2009 
Q 1947 1309 1714 600 
Q 1481 -109 1013 -844 
L 513 -844 
Q 928 -128 1133 580 
Q 1338 1288 1338 2009 
Q 1338 2731 1133 3434 
Q 928 4138 513 4856 
z
" id="DejaVuSans-29" transform="scale(0.015625)"/>
      </defs>
      <use xlink:href="#DejaVuSans-54"/>
      <use x="57.958984" xlink:href="#DejaVuSans-69"/>
      <use x="85.742188" xlink:href="#DejaVuSans-6d"/>
      <use x="183.154297" xlink:href="#DejaVuSans-65"/>
      <use x="244.677734" xlink:href="#DejaVuSans-20"/>
      <use x="276.464844" xlink:href="#DejaVuSans-28"/>
      <use x="315.478516" xlink:href="#DejaVuSans-68"/>
      <use x="378.857422" xlink:href="#DejaVuSans-6f"/>
      <use x="440.039062" xlink:href="#DejaVuSans-75"/>
      <use x="503.417969" xlink:href="#DejaVuSans-72"/>
      <use x="542.78125" xlink:href="#DejaVuSans-3a"/>
      <use x="576.472656" xlink:href="#DejaVuSans-6d"/>
      <use x="673.884766" xlink:href="#DejaVuSans-69"/>
      <use x="701.667969" xlink:href="#DejaVuSans-6e"/>
      <use x="765.046875" xlink:href="#DejaVuSans-75"/>
      <use x="828.425781" xlink:href="#DejaVuSans-74"/>
      <use x="867.634766" xlink:href="#DejaVuSans-65"/>
      <use x="929.158203" xlink:href="#DejaVuSans-29"/>
     </g>
    </g>
   </g>
   <g id="matplotlib.axis_2">
    <g id="ytick_1">
     <g id="line2d_7">
      <defs>
       <path d="M 0 0 
L -3.5 0 
" id="m9b76692679" style="stroke:#000000;stroke-width:0.8;"/>
      </defs>
      <g>
       <use style="stroke:#000000;stroke-width:0.8;" x="40.603125" xlink:href="#m9b76692679" y="260.206125"/>
      </g>
     </g>
     <g id="text_8">
      <!-- 2 -->
      <g transform="translate(27.240625 264.005344)scale(0.1 -0.1)">
       <use xlink:href="#DejaVuSans-32"/>
      </g>
     </g>
    </g>
    <g id="ytick_2">
     <g id="line2d_8">
      <g>
       <use style="stroke:#000000;stroke-width:0.8;" x="40.603125" xlink:href="#m9b76692679" y="227.950125"/>
      </g>
     </g>
     <g id="text_9">
      <!-- 4 -->
      <g transform="translate(27.240625 231.749344)scale(0.1 -0.1)">
       <use xlink:href="#DejaVuSans-34"/>
      </g>
     </g>
    </g>
    <g id="ytick_3">
     <g id="line2d_9">
      <g>
       <use style="stroke:#000000;stroke-width:0.8;" x="40.603125" xlink:href="#m9b76692679" y="195.694125"/>
      </g>
     </g>
     <g id="text_10">
      <!-- 6 -->
      <g transform="translate(27.240625 199.493344)scale(0.1 -0.1)">
       <defs>
        <path d="M 2113 2584 
Q 1688 2584 1439 2293 
Q 1191 2003 1191 1497 
Q 1191 994 1439 701 
Q 1688 409 2113 409 
Q 2538 409 2786 701 
Q 3034 994 3034 1497 
Q 3034 2003 2786 2293 
Q 2538 2584 2113 2584 
z
M 3366 4563 
L 3366 3988 
Q 3128 4100 2886 4159 
Q 2644 4219 2406 4219 
Q 1781 4219 1451 3797 
Q 1122 3375 1075 2522 
Q 1259 2794 1537 2939 
Q 1816 3084 2150 3084 
Q 2853 3084 3261 2657 
Q 3669 2231 3669 1497 
Q 3669 778 3244 343 
Q 2819 -91 2113 -91 
Q 1303 -91 875 529 
Q 447 1150 447 2328 
Q 447 3434 972 4092 
Q 1497 4750 2381 4750 
Q 2619 4750 2861 4703 
Q 3103 4656 3366 4563 
z
" id="DejaVuSans-36" transform="scale(0.015625)"/>
       </defs>
       <use xlink:href="#DejaVuSans-36"/>
      </g>
     </g>
    </g>
    <g id="ytick_4">
     <g id="line2d_10">
      <g>
       <use style="stroke:#000000;stroke-width:0.8;" x="40.603125" xlink:href="#m9b76692679" y="163.438125"/>
      </g>
     </g>
     <g id="text_11">
      <!-- 8 -->
      <g transform="translate(27.240625 167.237344)scale(0.1 -0.1)">
       <defs>
        <path d="M 2034 2216 
Q 1584 2216 1326 1975 
Q 1069 1734 1069 1313 
Q 1069 891 1326 650 
Q 1584 409 2034 409 
Q 2484 409 2743 651 
Q 3003 894 3003 1313 
Q 3003 1734 2745 1975 
Q 2488 2216 2034 2216 
z
M 1403 2484 
Q 997 2584 770 2862 
Q 544 3141 544 3541 
Q 544 4100 942 4425 
Q 1341 4750 2034 4750 
Q 2731 4750 3128 4425 
Q 3525 4100 3525 3541 
Q 3525 3141 3298 2862 
Q 3072 2584 2669 2484 
Q 3125 2378 3379 2068 
Q 3634 1759 3634 1313 
Q 3634 634 3220 271 
Q 2806 -91 2034 -91 
Q 1263 -91 848 271 
Q 434 634 434 1313 
Q 434 1759 690 2068 
Q 947 2378 1403 2484 
z
M 1172 3481 
Q 1172 3119 1398 2916 
Q 1625 2713 2034 2713 
Q 2441 2713 2670 2916 
Q 2900 3119 2900 3481 
Q 2900 3844 2670 4047 
Q 2441 4250 2034 4250 
Q 1625 4250 1398 4047 
Q 1172 3844 1172 3481 
z
" id="DejaVuSans-38" transform="scale(0.015625)"/>
       </defs>
       <use xlink:href="#DejaVuSans-38"/>
      </g>
     </g>
    </g>
    <g id="ytick_5">
     <g id="line2d_11">
      <g>
       <use style="stroke:#000000;stroke-width:0.8;" x="40.603125" xlink:href="#m9b76692679" y="131.182125"/>
      </g>
     </g>
     <g id="text_12">
      <!-- 10 -->
      <g transform="translate(20.878125 134.981344)scale(0.1 -0.1)">
       <defs>
        <path d="M 2034 4250 
Q 1547 4250 1301 3770 
Q 1056 3291 1056 2328 
Q 1056 1369 1301 889 
Q 1547 409 2034 409 
Q 2525 409 2770 889 
Q 3016 1369 3016 2328 
Q 3016 3291 2770 3770 
Q 2525 4250 2034 4250 
z
M 2034 4750 
Q 2819 4750 3233 4129 
Q 3647 3509 3647 2328 
Q 3647 1150 3233 529 
Q 2819 -91 2034 -91 
Q 1250 -91 836 529 
Q 422 1150 422 2328 
Q 422 3509 836 4129 
Q 1250 4750 2034 4750 
z
" id="DejaVuSans-30" transform="scale(0.015625)"/>
       </defs>
       <use xlink:href="#DejaVuSans-31"/>
       <use x="63.623047" xlink:href="#DejaVuSans-30"/>
      </g>
     </g>
    </g>
    <g id="ytick_6">
     <g id="line2d_12">
      <g>
       <use style="stroke:#000000;stroke-width:0.8;" x="40.603125" xlink:href="#m9b76692679" y="98.926125"/>
      </g>
     </g>
     <g id="text_13">
      <!-- 12 -->
      <g transform="translate(20.878125 102.725344)scale(0.1 -0.1)">
       <use xlink:href="#DejaVuSans-31"/>
       <use x="63.623047" xlink:href="#DejaVuSans-32"/>
      </g>
     </g>
    </g>
    <g id="ytick_7">
     <g id="line2d_13">
      <g>
       <use style="stroke:#000000;stroke-width:0.8;" x="40.603125" xlink:href="#m9b76692679" y="66.670125"/>
      </g>
     </g>
     <g id="text_14">
      <!-- 14 -->
      <g transform="translate(20.878125 70.469344)scale(0.1 -0.1)">
       <use xlink:href="#DejaVuSans-31"/>
       <use x="63.623047" xlink:href="#DejaVuSans-34"/>
      </g>
     </g>
    </g>
    <g id="ytick_8">
     <g id="line2d_14">
      <g>
       <use style="stroke:#000000;stroke-width:0.8;" x="40.603125" xlink:href="#m9b76692679" y="34.414125"/>
      </g>
     </g>
     <g id="text_15">
      <!-- 16 -->
      <g transform="translate(20.878125 38.213344)scale(0.1 -0.1)">
       <use xlink:href="#DejaVuSans-31"/>
       <use x="63.623047" xlink:href="#DejaVuSans-36"/>
      </g>
     </g>
    </g>
    <g id="text_16">
     <!-- Bug coverage -->
     <g transform="translate(14.798438 189.951469)rotate(-90)scale(0.1 -0.1)">
      <defs>
       <path d="M 1259 2228 
L 1259 519 
L 2272 519 
Q 2781 519 3026 730 
Q 3272 941 3272 1375 
Q 3272 1813 3026 2020 
Q 2781 2228 2272 2228 
L 1259 2228 
z
M 1259 4147 
L 1259 2741 
L 2194 2741 
Q 2656 2741 2882 2914 
Q 3109 3088 3109 3444 
Q 3109 3797 2882 3972 
Q 2656 4147 2194 4147 
L 1259 4147 
z
M 628 4666 
L 2241 4666 
Q 2963 4666 3353 4366 
Q 3744 4066 3744 3513 
Q 3744 3084 3544 2831 
Q 3344 2578 2956 2516 
Q 3422 2416 3680 2098 
Q 3938 1781 3938 1306 
Q 3938 681 3513 340 
Q 3088 0 2303 0 
L 628 0 
L 628 4666 
z
" id="DejaVuSans-42" transform="scale(0.015625)"/>
       <path d="M 2906 1791 
Q 2906 2416 2648 2759 
Q 2391 3103 1925 3103 
Q 1463 3103 1205 2759 
Q 947 2416 947 1791 
Q 947 1169 1205 825 
Q 1463 481 1925 481 
Q 2391 481 2648 825 
Q 2906 1169 2906 1791 
z
M 3481 434 
Q 3481 -459 3084 -895 
Q 2688 -1331 1869 -1331 
Q 1566 -1331 1297 -1286 
Q 1028 -1241 775 -1147 
L 775 -588 
Q 1028 -725 1275 -790 
Q 1522 -856 1778 -856 
Q 2344 -856 2625 -561 
Q 2906 -266 2906 331 
L 2906 616 
Q 2728 306 2450 153 
Q 2172 0 1784 0 
Q 1141 0 747 490 
Q 353 981 353 1791 
Q 353 2603 747 3093 
Q 1141 3584 1784 3584 
Q 2172 3584 2450 3431 
Q 2728 3278 2906 2969 
L 2906 3500 
L 3481 3500 
L 3481 434 
z
" id="DejaVuSans-67" transform="scale(0.015625)"/>
       <path d="M 3122 3366 
L 3122 2828 
Q 2878 2963 2633 3030 
Q 2388 3097 2138 3097 
Q 1578 3097 1268 2742 
Q 959 2388 959 1747 
Q 959 1106 1268 751 
Q 1578 397 2138 397 
Q 2388 397 2633 464 
Q 2878 531 3122 666 
L 3122 134 
Q 2881 22 2623 -34 
Q 2366 -91 2075 -91 
Q 1284 -91 818 406 
Q 353 903 353 1747 
Q 353 2603 823 3093 
Q 1294 3584 2113 3584 
Q 2378 3584 2631 3529 
Q 2884 3475 3122 3366 
z
" id="DejaVuSans-63" transform="scale(0.015625)"/>
       <path d="M 191 3500 
L 800 3500 
L 1894 563 
L 2988 3500 
L 3597 3500 
L 2284 0 
L 1503 0 
L 191 3500 
z
" id="DejaVuSans-76" transform="scale(0.015625)"/>
       <path d="M 2194 1759 
Q 1497 1759 1228 1600 
Q 959 1441 959 1056 
Q 959 750 1161 570 
Q 1363 391 1709 391 
Q 2188 391 2477 730 
Q 2766 1069 2766 1631 
L 2766 1759 
L 2194 1759 
z
M 3341 1997 
L 3341 0 
L 2766 0 
L 2766 531 
Q 2569 213 2275 61 
Q 1981 -91 1556 -91 
Q 1019 -91 701 211 
Q 384 513 384 1019 
Q 384 1609 779 1909 
Q 1175 2209 1959 2209 
L 2766 2209 
L 2766 2266 
Q 2766 2663 2505 2880 
Q 2244 3097 1772 3097 
Q 1472 3097 1187 3025 
Q 903 2953 641 2809 
L 641 3341 
Q 956 3463 1253 3523 
Q 1550 3584 1831 3584 
Q 2591 3584 2966 3190 
Q 3341 2797 3341 1997 
z
" id="DejaVuSans-61" transform="scale(0.015625)"/>
      </defs>
      <use xlink:href="#DejaVuSans-42"/>
      <use x="68.603516" xlink:href="#DejaVuSans-75"/>
      <use x="131.982422" xlink:href="#DejaVuSans-67"/>
      <use x="195.458984" xlink:href="#DejaVuSans-20"/>
      <use x="227.246094" xlink:href="#DejaVuSans-63"/>
      <use x="282.226562" xlink:href="#DejaVuSans-6f"/>
      <use x="343.408203" xlink:href="#DejaVuSans-76"/>
      <use x="402.587891" xlink:href="#DejaVuSans-65"/>
      <use x="464.111328" xlink:href="#DejaVuSans-72"/>
      <use x="505.224609" xlink:href="#DejaVuSans-61"/>
      <use x="566.503906" xlink:href="#DejaVuSans-67"/>
      <use x="629.980469" xlink:href="#DejaVuSans-65"/>
     </g>
    </g>
   </g>
   <g id="line2d_15">
    <path clip-path="url(#pf8ef851bdd)" d="M 56.835852 276.334125 
L 60.403485 260.206125 
L 63.971117 260.206125 
L 67.538749 244.078125 
L 71.106382 244.078125 
L 74.674014 244.078125 
L 78.241646 227.950125 
L 81.809279 236.014125 
L 85.376911 227.950125 
L 88.944544 211.822125 
L 92.512176 211.822125 
L 96.079808 219.886125 
L 99.647441 227.950125 
L 103.215073 211.822125 
L 106.782705 219.886125 
L 110.350338 211.822125 
L 113.91797 211.822125 
L 117.485603 195.694125 
L 121.053235 195.694125 
L 124.620867 195.694125 
L 128.1885 195.694125 
L 131.756132 195.694125 
L 135.323764 195.694125 
L 138.891397 187.630125 
L 142.459029 179.566125 
L 146.026661 179.566125 
L 149.594294 179.566125 
L 153.161926 179.566125 
L 156.729559 171.502125 
L 160.297191 171.502125 
L 163.864823 147.310125 
L 167.432456 163.438125 
L 171.000088 163.438125 
L 174.56772 131.182125 
L 178.135353 147.310125 
L 181.702985 139.246125 
L 185.270618 131.182125 
L 188.83825 131.182125 
L 192.405882 131.182125 
L 195.973515 131.182125 
L 199.541147 131.182125 
L 203.108779 131.182125 
L 206.676412 131.182125 
L 210.244044 131.182125 
L 213.811676 131.182125 
L 217.379309 98.926125 
L 220.946941 98.926125 
L 224.514574 90.862125 
L 228.082206 98.926125 
L 231.649838 98.926125 
L 235.217471 82.798125 
L 238.785103 82.798125 
L 242.352735 82.798125 
L 245.920368 82.798125 
L 249.488 74.734125 
L 253.055632 82.798125 
L 256.623265 74.734125 
L 260.190897 82.798125 
L 263.75853 82.798125 
L 267.326162 82.798125 
L 270.893794 74.734125 
L 274.461427 74.734125 
L 278.029059 74.734125 
L 281.596691 74.734125 
L 285.164324 74.734125 
L 288.731956 74.734125 
L 292.299589 66.670125 
L 295.867221 66.670125 
L 299.434853 74.734125 
L 303.002486 66.670125 
L 306.570118 66.670125 
L 310.13775 66.670125 
L 313.705383 66.670125 
L 317.273015 66.670125 
L 320.840647 66.670125 
L 324.40828 66.670125 
L 327.975912 66.670125 
L 331.543545 66.670125 
L 335.111177 66.670125 
L 338.678809 50.542125 
L 342.246442 58.606125 
L 345.814074 50.542125 
L 349.381706 50.542125 
L 352.949339 58.606125 
L 356.516971 58.606125 
L 360.084604 66.670125 
L 363.652236 58.606125 
L 367.219868 66.670125 
L 370.787501 66.670125 
L 374.355133 66.670125 
L 377.922765 66.670125 
L 381.490398 66.670125 
" style="fill:none;stroke:#1f77b4;stroke-linecap:square;stroke-width:1.5;"/>
    <defs>
     <path d="M 0 3 
C 0.795609 3 1.55874 2.683901 2.12132 2.12132 
C 2.683901 1.55874 3 0.795609 3 0 
C 3 -0.795609 2.683901 -1.55874 2.12132 -2.12132 
C 1.55874 -2.683901 0.795609 -3 0 -3 
C -0.795609 -3 -1.55874 -2.683901 -2.12132 -2.12132 
C -2.683901 -1.55874 -3 -0.795609 -3 0 
C -3 0.795609 -2.683901 1.55874 -2.12132 2.12132 
C -1.55874 2.683901 -0.795609 3 0 3 
z
" id="m4ad6f29f97" style="stroke:#ffffff;stroke-width:0.75;"/>
    </defs>
    <g clip-path="url(#pf8ef851bdd)">
     <use style="fill:#1f77b4;stroke:#ffffff;stroke-width:0.75;" x="56.835852" xlink:href="#m4ad6f29f97" y="276.334125"/>
     <use style="fill:#1f77b4;stroke:#ffffff;stroke-width:0.75;" x="60.403485" xlink:href="#m4ad6f29f97" y="260.206125"/>
     <use style="fill:#1f77b4;stroke:#ffffff;stroke-width:0.75;" x="63.971117" xlink:href="#m4ad6f29f97" y="260.206125"/>
     <use style="fill:#1f77b4;stroke:#ffffff;stroke-width:0.75;" x="67.538749" xlink:href="#m4ad6f29f97" y="244.078125"/>
     <use style="fill:#1f77b4;stroke:#ffffff;stroke-width:0.75;" x="71.106382" xlink:href="#m4ad6f29f97" y="244.078125"/>
     <use style="fill:#1f77b4;stroke:#ffffff;stroke-width:0.75;" x="74.674014" xlink:href="#m4ad6f29f97" y="244.078125"/>
     <use style="fill:#1f77b4;stroke:#ffffff;stroke-width:0.75;" x="78.241646" xlink:href="#m4ad6f29f97" y="227.950125"/>
     <use style="fill:#1f77b4;stroke:#ffffff;stroke-width:0.75;" x="81.809279" xlink:href="#m4ad6f29f97" y="236.014125"/>
     <use style="fill:#1f77b4;stroke:#ffffff;stroke-width:0.75;" x="85.376911" xlink:href="#m4ad6f29f97" y="227.950125"/>
     <use style="fill:#1f77b4;stroke:#ffffff;stroke-width:0.75;" x="88.944544" xlink:href="#m4ad6f29f97" y="211.822125"/>
     <use style="fill:#1f77b4;stroke:#ffffff;stroke-width:0.75;" x="92.512176" xlink:href="#m4ad6f29f97" y="211.822125"/>
     <use style="fill:#1f77b4;stroke:#ffffff;stroke-width:0.75;" x="96.079808" xlink:href="#m4ad6f29f97" y="219.886125"/>
     <use style="fill:#1f77b4;stroke:#ffffff;stroke-width:0.75;" x="99.647441" xlink:href="#m4ad6f29f97" y="227.950125"/>
     <use style="fill:#1f77b4;stroke:#ffffff;stroke-width:0.75;" x="103.215073" xlink:href="#m4ad6f29f97" y="211.822125"/>
     <use style="fill:#1f77b4;stroke:#ffffff;stroke-width:0.75;" x="106.782705" xlink:href="#m4ad6f29f97" y="219.886125"/>
     <use style="fill:#1f77b4;stroke:#ffffff;stroke-width:0.75;" x="110.350338" xlink:href="#m4ad6f29f97" y="211.822125"/>
     <use style="fill:#1f77b4;stroke:#ffffff;stroke-width:0.75;" x="113.91797" xlink:href="#m4ad6f29f97" y="211.822125"/>
     <use style="fill:#1f77b4;stroke:#ffffff;stroke-width:0.75;" x="117.485603" xlink:href="#m4ad6f29f97" y="195.694125"/>
     <use style="fill:#1f77b4;stroke:#ffffff;stroke-width:0.75;" x="121.053235" xlink:href="#m4ad6f29f97" y="195.694125"/>
     <use style="fill:#1f77b4;stroke:#ffffff;stroke-width:0.75;" x="124.620867" xlink:href="#m4ad6f29f97" y="195.694125"/>
     <use style="fill:#1f77b4;stroke:#ffffff;stroke-width:0.75;" x="128.1885" xlink:href="#m4ad6f29f97" y="195.694125"/>
     <use style="fill:#1f77b4;stroke:#ffffff;stroke-width:0.75;" x="131.756132" xlink:href="#m4ad6f29f97" y="195.694125"/>
     <use style="fill:#1f77b4;stroke:#ffffff;stroke-width:0.75;" x="135.323764" xlink:href="#m4ad6f29f97" y="195.694125"/>
     <use style="fill:#1f77b4;stroke:#ffffff;stroke-width:0.75;" x="138.891397" xlink:href="#m4ad6f29f97" y="187.630125"/>
     <use style="fill:#1f77b4;stroke:#ffffff;stroke-width:0.75;" x="142.459029" xlink:href="#m4ad6f29f97" y="179.566125"/>
     <use style="fill:#1f77b4;stroke:#ffffff;stroke-width:0.75;" x="146.026661" xlink:href="#m4ad6f29f97" y="179.566125"/>
     <use style="fill:#1f77b4;stroke:#ffffff;stroke-width:0.75;" x="149.594294" xlink:href="#m4ad6f29f97" y="179.566125"/>
     <use style="fill:#1f77b4;stroke:#ffffff;stroke-width:0.75;" x="153.161926" xlink:href="#m4ad6f29f97" y="179.566125"/>
     <use style="fill:#1f77b4;stroke:#ffffff;stroke-width:0.75;" x="156.729559" xlink:href="#m4ad6f29f97" y="171.502125"/>
     <use style="fill:#1f77b4;stroke:#ffffff;stroke-width:0.75;" x="160.297191" xlink:href="#m4ad6f29f97" y="171.502125"/>
     <use style="fill:#1f77b4;stroke:#ffffff;stroke-width:0.75;" x="163.864823" xlink:href="#m4ad6f29f97" y="147.310125"/>
     <use style="fill:#1f77b4;stroke:#ffffff;stroke-width:0.75;" x="167.432456" xlink:href="#m4ad6f29f97" y="163.438125"/>
     <use style="fill:#1f77b4;stroke:#ffffff;stroke-width:0.75;" x="171.000088" xlink:href="#m4ad6f29f97" y="163.438125"/>
     <use style="fill:#1f77b4;stroke:#ffffff;stroke-width:0.75;" x="174.56772" xlink:href="#m4ad6f29f97" y="131.182125"/>
     <use style="fill:#1f77b4;stroke:#ffffff;stroke-width:0.75;" x="178.135353" xlink:href="#m4ad6f29f97" y="147.310125"/>
     <use style="fill:#1f77b4;stroke:#ffffff;stroke-width:0.75;" x="181.702985" xlink:href="#m4ad6f29f97" y="139.246125"/>
     <use style="fill:#1f77b4;stroke:#ffffff;stroke-width:0.75;" x="185.270618" xlink:href="#m4ad6f29f97" y="131.182125"/>
     <use style="fill:#1f77b4;stroke:#ffffff;stroke-width:0.75;" x="188.83825" xlink:href="#m4ad6f29f97" y="131.182125"/>
     <use style="fill:#1f77b4;stroke:#ffffff;stroke-width:0.75;" x="192.405882" xlink:href="#m4ad6f29f97" y="131.182125"/>
     <use style="fill:#1f77b4;stroke:#ffffff;stroke-width:0.75;" x="195.973515" xlink:href="#m4ad6f29f97" y="131.182125"/>
     <use style="fill:#1f77b4;stroke:#ffffff;stroke-width:0.75;" x="199.541147" xlink:href="#m4ad6f29f97" y="131.182125"/>
     <use style="fill:#1f77b4;stroke:#ffffff;stroke-width:0.75;" x="203.108779" xlink:href="#m4ad6f29f97" y="131.182125"/>
     <use style="fill:#1f77b4;stroke:#ffffff;stroke-width:0.75;" x="206.676412" xlink:href="#m4ad6f29f97" y="131.182125"/>
     <use style="fill:#1f77b4;stroke:#ffffff;stroke-width:0.75;" x="210.244044" xlink:href="#m4ad6f29f97" y="131.182125"/>
     <use style="fill:#1f77b4;stroke:#ffffff;stroke-width:0.75;" x="213.811676" xlink:href="#m4ad6f29f97" y="131.182125"/>
     <use style="fill:#1f77b4;stroke:#ffffff;stroke-width:0.75;" x="217.379309" xlink:href="#m4ad6f29f97" y="98.926125"/>
     <use style="fill:#1f77b4;stroke:#ffffff;stroke-width:0.75;" x="220.946941" xlink:href="#m4ad6f29f97" y="98.926125"/>
     <use style="fill:#1f77b4;stroke:#ffffff;stroke-width:0.75;" x="224.514574" xlink:href="#m4ad6f29f97" y="90.862125"/>
     <use style="fill:#1f77b4;stroke:#ffffff;stroke-width:0.75;" x="228.082206" xlink:href="#m4ad6f29f97" y="98.926125"/>
     <use style="fill:#1f77b4;stroke:#ffffff;stroke-width:0.75;" x="231.649838" xlink:href="#m4ad6f29f97" y="98.926125"/>
     <use style="fill:#1f77b4;stroke:#ffffff;stroke-width:0.75;" x="235.217471" xlink:href="#m4ad6f29f97" y="82.798125"/>
     <use style="fill:#1f77b4;stroke:#ffffff;stroke-width:0.75;" x="238.785103" xlink:href="#m4ad6f29f97" y="82.798125"/>
     <use style="fill:#1f77b4;stroke:#ffffff;stroke-width:0.75;" x="242.352735" xlink:href="#m4ad6f29f97" y="82.798125"/>
     <use style="fill:#1f77b4;stroke:#ffffff;stroke-width:0.75;" x="245.920368" xlink:href="#m4ad6f29f97" y="82.798125"/>
     <use style="fill:#1f77b4;stroke:#ffffff;stroke-width:0.75;" x="249.488" xlink:href="#m4ad6f29f97" y="74.734125"/>
     <use style="fill:#1f77b4;stroke:#ffffff;stroke-width:0.75;" x="253.055632" xlink:href="#m4ad6f29f97" y="82.798125"/>
     <use style="fill:#1f77b4;stroke:#ffffff;stroke-width:0.75;" x="256.623265" xlink:href="#m4ad6f29f97" y="74.734125"/>
     <use style="fill:#1f77b4;stroke:#ffffff;stroke-width:0.75;" x="260.190897" xlink:href="#m4ad6f29f97" y="82.798125"/>
     <use style="fill:#1f77b4;stroke:#ffffff;stroke-width:0.75;" x="263.75853" xlink:href="#m4ad6f29f97" y="82.798125"/>
     <use style="fill:#1f77b4;stroke:#ffffff;stroke-width:0.75;" x="267.326162" xlink:href="#m4ad6f29f97" y="82.798125"/>
     <use style="fill:#1f77b4;stroke:#ffffff;stroke-width:0.75;" x="270.893794" xlink:href="#m4ad6f29f97" y="74.734125"/>
     <use style="fill:#1f77b4;stroke:#ffffff;stroke-width:0.75;" x="274.461427" xlink:href="#m4ad6f29f97" y="74.734125"/>
     <use style="fill:#1f77b4;stroke:#ffffff;stroke-width:0.75;" x="278.029059" xlink:href="#m4ad6f29f97" y="74.734125"/>
     <use style="fill:#1f77b4;stroke:#ffffff;stroke-width:0.75;" x="281.596691" xlink:href="#m4ad6f29f97" y="74.734125"/>
     <use style="fill:#1f77b4;stroke:#ffffff;stroke-width:0.75;" x="285.164324" xlink:href="#m4ad6f29f97" y="74.734125"/>
     <use style="fill:#1f77b4;stroke:#ffffff;stroke-width:0.75;" x="288.731956" xlink:href="#m4ad6f29f97" y="74.734125"/>
     <use style="fill:#1f77b4;stroke:#ffffff;stroke-width:0.75;" x="292.299589" xlink:href="#m4ad6f29f97" y="66.670125"/>
     <use style="fill:#1f77b4;stroke:#ffffff;stroke-width:0.75;" x="295.867221" xlink:href="#m4ad6f29f97" y="66.670125"/>
     <use style="fill:#1f77b4;stroke:#ffffff;stroke-width:0.75;" x="299.434853" xlink:href="#m4ad6f29f97" y="74.734125"/>
     <use style="fill:#1f77b4;stroke:#ffffff;stroke-width:0.75;" x="303.002486" xlink:href="#m4ad6f29f97" y="66.670125"/>
     <use style="fill:#1f77b4;stroke:#ffffff;stroke-width:0.75;" x="306.570118" xlink:href="#m4ad6f29f97" y="66.670125"/>
     <use style="fill:#1f77b4;stroke:#ffffff;stroke-width:0.75;" x="310.13775" xlink:href="#m4ad6f29f97" y="66.670125"/>
     <use style="fill:#1f77b4;stroke:#ffffff;stroke-width:0.75;" x="313.705383" xlink:href="#m4ad6f29f97" y="66.670125"/>
     <use style="fill:#1f77b4;stroke:#ffffff;stroke-width:0.75;" x="317.273015" xlink:href="#m4ad6f29f97" y="66.670125"/>
     <use style="fill:#1f77b4;stroke:#ffffff;stroke-width:0.75;" x="320.840647" xlink:href="#m4ad6f29f97" y="66.670125"/>
     <use style="fill:#1f77b4;stroke:#ffffff;stroke-width:0.75;" x="324.40828" xlink:href="#m4ad6f29f97" y="66.670125"/>
     <use style="fill:#1f77b4;stroke:#ffffff;stroke-width:0.75;" x="327.975912" xlink:href="#m4ad6f29f97" y="66.670125"/>
     <use style="fill:#1f77b4;stroke:#ffffff;stroke-width:0.75;" x="331.543545" xlink:href="#m4ad6f29f97" y="66.670125"/>
     <use style="fill:#1f77b4;stroke:#ffffff;stroke-width:0.75;" x="335.111177" xlink:href="#m4ad6f29f97" y="66.670125"/>
     <use style="fill:#1f77b4;stroke:#ffffff;stroke-width:0.75;" x="338.678809" xlink:href="#m4ad6f29f97" y="50.542125"/>
     <use style="fill:#1f77b4;stroke:#ffffff;stroke-width:0.75;" x="342.246442" xlink:href="#m4ad6f29f97" y="58.606125"/>
     <use style="fill:#1f77b4;stroke:#ffffff;stroke-width:0.75;" x="345.814074" xlink:href="#m4ad6f29f97" y="50.542125"/>
     <use style="fill:#1f77b4;stroke:#ffffff;stroke-width:0.75;" x="349.381706" xlink:href="#m4ad6f29f97" y="50.542125"/>
     <use style="fill:#1f77b4;stroke:#ffffff;stroke-width:0.75;" x="352.949339" xlink:href="#m4ad6f29f97" y="58.606125"/>
     <use style="fill:#1f77b4;stroke:#ffffff;stroke-width:0.75;" x="356.516971" xlink:href="#m4ad6f29f97" y="58.606125"/>
     <use style="fill:#1f77b4;stroke:#ffffff;stroke-width:0.75;" x="360.084604" xlink:href="#m4ad6f29f97" y="66.670125"/>
     <use style="fill:#1f77b4;stroke:#ffffff;stroke-width:0.75;" x="363.652236" xlink:href="#m4ad6f29f97" y="58.606125"/>
     <use style="fill:#1f77b4;stroke:#ffffff;stroke-width:0.75;" x="367.219868" xlink:href="#m4ad6f29f97" y="66.670125"/>
     <use style="fill:#1f77b4;stroke:#ffffff;stroke-width:0.75;" x="370.787501" xlink:href="#m4ad6f29f97" y="66.670125"/>
     <use style="fill:#1f77b4;stroke:#ffffff;stroke-width:0.75;" x="374.355133" xlink:href="#m4ad6f29f97" y="66.670125"/>
     <use style="fill:#1f77b4;stroke:#ffffff;stroke-width:0.75;" x="377.922765" xlink:href="#m4ad6f29f97" y="66.670125"/>
     <use style="fill:#1f77b4;stroke:#ffffff;stroke-width:0.75;" x="381.490398" xlink:href="#m4ad6f29f97" y="66.670125"/>
    </g>
   </g>
   <g id="line2d_16">
    <path clip-path="url(#pf8ef851bdd)" d="M 56.835852 276.334125 
L 60.403485 276.334125 
L 63.971117 268.270125 
L 67.538749 260.206125 
L 71.106382 260.206125 
L 74.674014 244.078125 
L 78.241646 244.078125 
L 81.809279 244.078125 
L 85.376911 244.078125 
L 88.944544 227.950125 
L 92.512176 227.950125 
L 96.079808 227.950125 
L 99.647441 211.822125 
L 103.215073 211.822125 
L 106.782705 203.758125 
L 110.350338 195.694125 
L 113.91797 195.694125 
L 117.485603 195.694125 
L 121.053235 195.694125 
L 124.620867 195.694125 
L 128.1885 179.566125 
L 131.756132 179.566125 
L 135.323764 163.438125 
L 138.891397 163.438125 
L 142.459029 163.438125 
L 146.026661 163.438125 
L 149.594294 147.310125 
L 153.161926 155.374125 
L 156.729559 155.374125 
L 160.297191 147.310125 
L 163.864823 147.310125 
L 167.432456 147.310125 
L 171.000088 147.310125 
L 174.56772 139.246125 
L 178.135353 147.310125 
L 181.702985 147.310125 
L 185.270618 147.310125 
L 188.83825 147.310125 
L 192.405882 139.246125 
L 195.973515 139.246125 
L 199.541147 131.182125 
L 203.108779 131.182125 
L 206.676412 131.182125 
L 210.244044 131.182125 
L 213.811676 131.182125 
L 217.379309 131.182125 
L 220.946941 123.118125 
L 224.514574 131.182125 
L 228.082206 115.054125 
L 231.649838 115.054125 
L 235.217471 115.054125 
L 238.785103 98.926125 
L 242.352735 98.926125 
L 245.920368 98.926125 
L 249.488 98.926125 
L 253.055632 98.926125 
L 256.623265 98.926125 
L 260.190897 98.926125 
L 263.75853 98.926125 
L 267.326162 98.926125 
L 270.893794 98.926125 
L 274.461427 98.926125 
L 278.029059 98.926125 
L 281.596691 90.862125 
L 285.164324 98.926125 
L 288.731956 82.798125 
L 292.299589 82.798125 
L 295.867221 82.798125 
L 299.434853 82.798125 
L 303.002486 90.862125 
L 306.570118 82.798125 
L 310.13775 82.798125 
L 313.705383 82.798125 
L 317.273015 82.798125 
L 320.840647 90.862125 
L 324.40828 82.798125 
L 327.975912 82.798125 
L 331.543545 82.798125 
L 335.111177 98.926125 
L 338.678809 82.798125 
L 342.246442 82.798125 
L 345.814074 82.798125 
L 349.381706 82.798125 
L 352.949339 82.798125 
L 356.516971 82.798125 
L 360.084604 82.798125 
L 363.652236 82.798125 
L 367.219868 82.798125 
L 370.787501 82.798125 
L 374.355133 82.798125 
L 377.922765 82.798125 
L 381.490398 82.798125 
" style="fill:none;stroke:#98df8a;stroke-linecap:square;stroke-width:1.5;"/>
    <defs>
     <path d="M -0 3 
L 3 -3 
L -3 -3 
z
" id="md64ebfeba9" style="stroke:#ffffff;stroke-linejoin:miter;stroke-width:0.75;"/>
    </defs>
    <g clip-path="url(#pf8ef851bdd)">
     <use style="fill:#98df8a;stroke:#ffffff;stroke-linejoin:miter;stroke-width:0.75;" x="56.835852" xlink:href="#md64ebfeba9" y="276.334125"/>
     <use style="fill:#98df8a;stroke:#ffffff;stroke-linejoin:miter;stroke-width:0.75;" x="60.403485" xlink:href="#md64ebfeba9" y="276.334125"/>
     <use style="fill:#98df8a;stroke:#ffffff;stroke-linejoin:miter;stroke-width:0.75;" x="63.971117" xlink:href="#md64ebfeba9" y="268.270125"/>
     <use style="fill:#98df8a;stroke:#ffffff;stroke-linejoin:miter;stroke-width:0.75;" x="67.538749" xlink:href="#md64ebfeba9" y="260.206125"/>
     <use style="fill:#98df8a;stroke:#ffffff;stroke-linejoin:miter;stroke-width:0.75;" x="71.106382" xlink:href="#md64ebfeba9" y="260.206125"/>
     <use style="fill:#98df8a;stroke:#ffffff;stroke-linejoin:miter;stroke-width:0.75;" x="74.674014" xlink:href="#md64ebfeba9" y="244.078125"/>
     <use style="fill:#98df8a;stroke:#ffffff;stroke-linejoin:miter;stroke-width:0.75;" x="78.241646" xlink:href="#md64ebfeba9" y="244.078125"/>
     <use style="fill:#98df8a;stroke:#ffffff;stroke-linejoin:miter;stroke-width:0.75;" x="81.809279" xlink:href="#md64ebfeba9" y="244.078125"/>
     <use style="fill:#98df8a;stroke:#ffffff;stroke-linejoin:miter;stroke-width:0.75;" x="85.376911" xlink:href="#md64ebfeba9" y="244.078125"/>
     <use style="fill:#98df8a;stroke:#ffffff;stroke-linejoin:miter;stroke-width:0.75;" x="88.944544" xlink:href="#md64ebfeba9" y="227.950125"/>
     <use style="fill:#98df8a;stroke:#ffffff;stroke-linejoin:miter;stroke-width:0.75;" x="92.512176" xlink:href="#md64ebfeba9" y="227.950125"/>
     <use style="fill:#98df8a;stroke:#ffffff;stroke-linejoin:miter;stroke-width:0.75;" x="96.079808" xlink:href="#md64ebfeba9" y="227.950125"/>
     <use style="fill:#98df8a;stroke:#ffffff;stroke-linejoin:miter;stroke-width:0.75;" x="99.647441" xlink:href="#md64ebfeba9" y="211.822125"/>
     <use style="fill:#98df8a;stroke:#ffffff;stroke-linejoin:miter;stroke-width:0.75;" x="103.215073" xlink:href="#md64ebfeba9" y="211.822125"/>
     <use style="fill:#98df8a;stroke:#ffffff;stroke-linejoin:miter;stroke-width:0.75;" x="106.782705" xlink:href="#md64ebfeba9" y="203.758125"/>
     <use style="fill:#98df8a;stroke:#ffffff;stroke-linejoin:miter;stroke-width:0.75;" x="110.350338" xlink:href="#md64ebfeba9" y="195.694125"/>
     <use style="fill:#98df8a;stroke:#ffffff;stroke-linejoin:miter;stroke-width:0.75;" x="113.91797" xlink:href="#md64ebfeba9" y="195.694125"/>
     <use style="fill:#98df8a;stroke:#ffffff;stroke-linejoin:miter;stroke-width:0.75;" x="117.485603" xlink:href="#md64ebfeba9" y="195.694125"/>
     <use style="fill:#98df8a;stroke:#ffffff;stroke-linejoin:miter;stroke-width:0.75;" x="121.053235" xlink:href="#md64ebfeba9" y="195.694125"/>
     <use style="fill:#98df8a;stroke:#ffffff;stroke-linejoin:miter;stroke-width:0.75;" x="124.620867" xlink:href="#md64ebfeba9" y="195.694125"/>
     <use style="fill:#98df8a;stroke:#ffffff;stroke-linejoin:miter;stroke-width:0.75;" x="128.1885" xlink:href="#md64ebfeba9" y="179.566125"/>
     <use style="fill:#98df8a;stroke:#ffffff;stroke-linejoin:miter;stroke-width:0.75;" x="131.756132" xlink:href="#md64ebfeba9" y="179.566125"/>
     <use style="fill:#98df8a;stroke:#ffffff;stroke-linejoin:miter;stroke-width:0.75;" x="135.323764" xlink:href="#md64ebfeba9" y="163.438125"/>
     <use style="fill:#98df8a;stroke:#ffffff;stroke-linejoin:miter;stroke-width:0.75;" x="138.891397" xlink:href="#md64ebfeba9" y="163.438125"/>
     <use style="fill:#98df8a;stroke:#ffffff;stroke-linejoin:miter;stroke-width:0.75;" x="142.459029" xlink:href="#md64ebfeba9" y="163.438125"/>
     <use style="fill:#98df8a;stroke:#ffffff;stroke-linejoin:miter;stroke-width:0.75;" x="146.026661" xlink:href="#md64ebfeba9" y="163.438125"/>
     <use style="fill:#98df8a;stroke:#ffffff;stroke-linejoin:miter;stroke-width:0.75;" x="149.594294" xlink:href="#md64ebfeba9" y="147.310125"/>
     <use style="fill:#98df8a;stroke:#ffffff;stroke-linejoin:miter;stroke-width:0.75;" x="153.161926" xlink:href="#md64ebfeba9" y="155.374125"/>
     <use style="fill:#98df8a;stroke:#ffffff;stroke-linejoin:miter;stroke-width:0.75;" x="156.729559" xlink:href="#md64ebfeba9" y="155.374125"/>
     <use style="fill:#98df8a;stroke:#ffffff;stroke-linejoin:miter;stroke-width:0.75;" x="160.297191" xlink:href="#md64ebfeba9" y="147.310125"/>
     <use style="fill:#98df8a;stroke:#ffffff;stroke-linejoin:miter;stroke-width:0.75;" x="163.864823" xlink:href="#md64ebfeba9" y="147.310125"/>
     <use style="fill:#98df8a;stroke:#ffffff;stroke-linejoin:miter;stroke-width:0.75;" x="167.432456" xlink:href="#md64ebfeba9" y="147.310125"/>
     <use style="fill:#98df8a;stroke:#ffffff;stroke-linejoin:miter;stroke-width:0.75;" x="171.000088" xlink:href="#md64ebfeba9" y="147.310125"/>
     <use style="fill:#98df8a;stroke:#ffffff;stroke-linejoin:miter;stroke-width:0.75;" x="174.56772" xlink:href="#md64ebfeba9" y="139.246125"/>
     <use style="fill:#98df8a;stroke:#ffffff;stroke-linejoin:miter;stroke-width:0.75;" x="178.135353" xlink:href="#md64ebfeba9" y="147.310125"/>
     <use style="fill:#98df8a;stroke:#ffffff;stroke-linejoin:miter;stroke-width:0.75;" x="181.702985" xlink:href="#md64ebfeba9" y="147.310125"/>
     <use style="fill:#98df8a;stroke:#ffffff;stroke-linejoin:miter;stroke-width:0.75;" x="185.270618" xlink:href="#md64ebfeba9" y="147.310125"/>
     <use style="fill:#98df8a;stroke:#ffffff;stroke-linejoin:miter;stroke-width:0.75;" x="188.83825" xlink:href="#md64ebfeba9" y="147.310125"/>
     <use style="fill:#98df8a;stroke:#ffffff;stroke-linejoin:miter;stroke-width:0.75;" x="192.405882" xlink:href="#md64ebfeba9" y="139.246125"/>
     <use style="fill:#98df8a;stroke:#ffffff;stroke-linejoin:miter;stroke-width:0.75;" x="195.973515" xlink:href="#md64ebfeba9" y="139.246125"/>
     <use style="fill:#98df8a;stroke:#ffffff;stroke-linejoin:miter;stroke-width:0.75;" x="199.541147" xlink:href="#md64ebfeba9" y="131.182125"/>
     <use style="fill:#98df8a;stroke:#ffffff;stroke-linejoin:miter;stroke-width:0.75;" x="203.108779" xlink:href="#md64ebfeba9" y="131.182125"/>
     <use style="fill:#98df8a;stroke:#ffffff;stroke-linejoin:miter;stroke-width:0.75;" x="206.676412" xlink:href="#md64ebfeba9" y="131.182125"/>
     <use style="fill:#98df8a;stroke:#ffffff;stroke-linejoin:miter;stroke-width:0.75;" x="210.244044" xlink:href="#md64ebfeba9" y="131.182125"/>
     <use style="fill:#98df8a;stroke:#ffffff;stroke-linejoin:miter;stroke-width:0.75;" x="213.811676" xlink:href="#md64ebfeba9" y="131.182125"/>
     <use style="fill:#98df8a;stroke:#ffffff;stroke-linejoin:miter;stroke-width:0.75;" x="217.379309" xlink:href="#md64ebfeba9" y="131.182125"/>
     <use style="fill:#98df8a;stroke:#ffffff;stroke-linejoin:miter;stroke-width:0.75;" x="220.946941" xlink:href="#md64ebfeba9" y="123.118125"/>
     <use style="fill:#98df8a;stroke:#ffffff;stroke-linejoin:miter;stroke-width:0.75;" x="224.514574" xlink:href="#md64ebfeba9" y="131.182125"/>
     <use style="fill:#98df8a;stroke:#ffffff;stroke-linejoin:miter;stroke-width:0.75;" x="228.082206" xlink:href="#md64ebfeba9" y="115.054125"/>
     <use style="fill:#98df8a;stroke:#ffffff;stroke-linejoin:miter;stroke-width:0.75;" x="231.649838" xlink:href="#md64ebfeba9" y="115.054125"/>
     <use style="fill:#98df8a;stroke:#ffffff;stroke-linejoin:miter;stroke-width:0.75;" x="235.217471" xlink:href="#md64ebfeba9" y="115.054125"/>
     <use style="fill:#98df8a;stroke:#ffffff;stroke-linejoin:miter;stroke-width:0.75;" x="238.785103" xlink:href="#md64ebfeba9" y="98.926125"/>
     <use style="fill:#98df8a;stroke:#ffffff;stroke-linejoin:miter;stroke-width:0.75;" x="242.352735" xlink:href="#md64ebfeba9" y="98.926125"/>
     <use style="fill:#98df8a;stroke:#ffffff;stroke-linejoin:miter;stroke-width:0.75;" x="245.920368" xlink:href="#md64ebfeba9" y="98.926125"/>
     <use style="fill:#98df8a;stroke:#ffffff;stroke-linejoin:miter;stroke-width:0.75;" x="249.488" xlink:href="#md64ebfeba9" y="98.926125"/>
     <use style="fill:#98df8a;stroke:#ffffff;stroke-linejoin:miter;stroke-width:0.75;" x="253.055632" xlink:href="#md64ebfeba9" y="98.926125"/>
     <use style="fill:#98df8a;stroke:#ffffff;stroke-linejoin:miter;stroke-width:0.75;" x="256.623265" xlink:href="#md64ebfeba9" y="98.926125"/>
     <use style="fill:#98df8a;stroke:#ffffff;stroke-linejoin:miter;stroke-width:0.75;" x="260.190897" xlink:href="#md64ebfeba9" y="98.926125"/>
     <use style="fill:#98df8a;stroke:#ffffff;stroke-linejoin:miter;stroke-width:0.75;" x="263.75853" xlink:href="#md64ebfeba9" y="98.926125"/>
     <use style="fill:#98df8a;stroke:#ffffff;stroke-linejoin:miter;stroke-width:0.75;" x="267.326162" xlink:href="#md64ebfeba9" y="98.926125"/>
     <use style="fill:#98df8a;stroke:#ffffff;stroke-linejoin:miter;stroke-width:0.75;" x="270.893794" xlink:href="#md64ebfeba9" y="98.926125"/>
     <use style="fill:#98df8a;stroke:#ffffff;stroke-linejoin:miter;stroke-width:0.75;" x="274.461427" xlink:href="#md64ebfeba9" y="98.926125"/>
     <use style="fill:#98df8a;stroke:#ffffff;stroke-linejoin:miter;stroke-width:0.75;" x="278.029059" xlink:href="#md64ebfeba9" y="98.926125"/>
     <use style="fill:#98df8a;stroke:#ffffff;stroke-linejoin:miter;stroke-width:0.75;" x="281.596691" xlink:href="#md64ebfeba9" y="90.862125"/>
     <use style="fill:#98df8a;stroke:#ffffff;stroke-linejoin:miter;stroke-width:0.75;" x="285.164324" xlink:href="#md64ebfeba9" y="98.926125"/>
     <use style="fill:#98df8a;stroke:#ffffff;stroke-linejoin:miter;stroke-width:0.75;" x="288.731956" xlink:href="#md64ebfeba9" y="82.798125"/>
     <use style="fill:#98df8a;stroke:#ffffff;stroke-linejoin:miter;stroke-width:0.75;" x="292.299589" xlink:href="#md64ebfeba9" y="82.798125"/>
     <use style="fill:#98df8a;stroke:#ffffff;stroke-linejoin:miter;stroke-width:0.75;" x="295.867221" xlink:href="#md64ebfeba9" y="82.798125"/>
     <use style="fill:#98df8a;stroke:#ffffff;stroke-linejoin:miter;stroke-width:0.75;" x="299.434853" xlink:href="#md64ebfeba9" y="82.798125"/>
     <use style="fill:#98df8a;stroke:#ffffff;stroke-linejoin:miter;stroke-width:0.75;" x="303.002486" xlink:href="#md64ebfeba9" y="90.862125"/>
     <use style="fill:#98df8a;stroke:#ffffff;stroke-linejoin:miter;stroke-width:0.75;" x="306.570118" xlink:href="#md64ebfeba9" y="82.798125"/>
     <use style="fill:#98df8a;stroke:#ffffff;stroke-linejoin:miter;stroke-width:0.75;" x="310.13775" xlink:href="#md64ebfeba9" y="82.798125"/>
     <use style="fill:#98df8a;stroke:#ffffff;stroke-linejoin:miter;stroke-width:0.75;" x="313.705383" xlink:href="#md64ebfeba9" y="82.798125"/>
     <use style="fill:#98df8a;stroke:#ffffff;stroke-linejoin:miter;stroke-width:0.75;" x="317.273015" xlink:href="#md64ebfeba9" y="82.798125"/>
     <use style="fill:#98df8a;stroke:#ffffff;stroke-linejoin:miter;stroke-width:0.75;" x="320.840647" xlink:href="#md64ebfeba9" y="90.862125"/>
     <use style="fill:#98df8a;stroke:#ffffff;stroke-linejoin:miter;stroke-width:0.75;" x="324.40828" xlink:href="#md64ebfeba9" y="82.798125"/>
     <use style="fill:#98df8a;stroke:#ffffff;stroke-linejoin:miter;stroke-width:0.75;" x="327.975912" xlink:href="#md64ebfeba9" y="82.798125"/>
     <use style="fill:#98df8a;stroke:#ffffff;stroke-linejoin:miter;stroke-width:0.75;" x="331.543545" xlink:href="#md64ebfeba9" y="82.798125"/>
     <use style="fill:#98df8a;stroke:#ffffff;stroke-linejoin:miter;stroke-width:0.75;" x="335.111177" xlink:href="#md64ebfeba9" y="98.926125"/>
     <use style="fill:#98df8a;stroke:#ffffff;stroke-linejoin:miter;stroke-width:0.75;" x="338.678809" xlink:href="#md64ebfeba9" y="82.798125"/>
     <use style="fill:#98df8a;stroke:#ffffff;stroke-linejoin:miter;stroke-width:0.75;" x="342.246442" xlink:href="#md64ebfeba9" y="82.798125"/>
     <use style="fill:#98df8a;stroke:#ffffff;stroke-linejoin:miter;stroke-width:0.75;" x="345.814074" xlink:href="#md64ebfeba9" y="82.798125"/>
     <use style="fill:#98df8a;stroke:#ffffff;stroke-linejoin:miter;stroke-width:0.75;" x="349.381706" xlink:href="#md64ebfeba9" y="82.798125"/>
     <use style="fill:#98df8a;stroke:#ffffff;stroke-linejoin:miter;stroke-width:0.75;" x="352.949339" xlink:href="#md64ebfeba9" y="82.798125"/>
     <use style="fill:#98df8a;stroke:#ffffff;stroke-linejoin:miter;stroke-width:0.75;" x="356.516971" xlink:href="#md64ebfeba9" y="82.798125"/>
     <use style="fill:#98df8a;stroke:#ffffff;stroke-linejoin:miter;stroke-width:0.75;" x="360.084604" xlink:href="#md64ebfeba9" y="82.798125"/>
     <use style="fill:#98df8a;stroke:#ffffff;stroke-linejoin:miter;stroke-width:0.75;" x="363.652236" xlink:href="#md64ebfeba9" y="82.798125"/>
     <use style="fill:#98df8a;stroke:#ffffff;stroke-linejoin:miter;stroke-width:0.75;" x="367.219868" xlink:href="#md64ebfeba9" y="82.798125"/>
     <use style="fill:#98df8a;stroke:#ffffff;stroke-linejoin:miter;stroke-width:0.75;" x="370.787501" xlink:href="#md64ebfeba9" y="82.798125"/>
     <use style="fill:#98df8a;stroke:#ffffff;stroke-linejoin:miter;stroke-width:0.75;" x="374.355133" xlink:href="#md64ebfeba9" y="82.798125"/>
     <use style="fill:#98df8a;stroke:#ffffff;stroke-linejoin:miter;stroke-width:0.75;" x="377.922765" xlink:href="#md64ebfeba9" y="82.798125"/>
     <use style="fill:#98df8a;stroke:#ffffff;stroke-linejoin:miter;stroke-width:0.75;" x="381.490398" xlink:href="#md64ebfeba9" y="82.798125"/>
    </g>
   </g>
   <g id="line2d_17"/>
   <g id="line2d_18"/>
   <g id="patch_3">
    <path d="M 40.603125 260.206125 
L 40.603125 34.414125 
" style="fill:none;stroke:#000000;stroke-linecap:square;stroke-linejoin:miter;stroke-width:0.8;"/>
   </g>
   <g id="patch_4">
    <path d="M 56.835852 288.430125 
L 330.354334 288.430125 
" style="fill:none;stroke:#000000;stroke-linecap:square;stroke-linejoin:miter;stroke-width:0.8;"/>
   </g>
   <g id="text_17">
    <!-- poppler_pdf_fuzzer (23h, 15 trials/fuzzer) -->
    <g transform="translate(95.408438 16.318125)scale(0.12 -0.12)">
     <defs>
      <path d="M 1159 525 
L 1159 -1331 
L 581 -1331 
L 581 3500 
L 1159 3500 
L 1159 2969 
Q 1341 3281 1617 3432 
Q 1894 3584 2278 3584 
Q 2916 3584 3314 3078 
Q 3713 2572 3713 1747 
Q 3713 922 3314 415 
Q 2916 -91 2278 -91 
Q 1894 -91 1617 61 
Q 1341 213 1159 525 
z
M 3116 1747 
Q 3116 2381 2855 2742 
Q 2594 3103 2138 3103 
Q 1681 3103 1420 2742 
Q 1159 2381 1159 1747 
Q 1159 1113 1420 752 
Q 1681 391 2138 391 
Q 2594 391 2855 752 
Q 3116 1113 3116 1747 
z
" id="DejaVuSans-70" transform="scale(0.015625)"/>
      <path d="M 603 4863 
L 1178 4863 
L 1178 0 
L 603 0 
L 603 4863 
z
" id="DejaVuSans-6c" transform="scale(0.015625)"/>
      <path d="M 3263 -1063 
L 3263 -1509 
L -63 -1509 
L -63 -1063 
L 3263 -1063 
z
" id="DejaVuSans-5f" transform="scale(0.015625)"/>
      <path d="M 2906 2969 
L 2906 4863 
L 3481 4863 
L 3481 0 
L 2906 0 
L 2906 525 
Q 2725 213 2448 61 
Q 2172 -91 1784 -91 
Q 1150 -91 751 415 
Q 353 922 353 1747 
Q 353 2572 751 3078 
Q 1150 3584 1784 3584 
Q 2172 3584 2448 3432 
Q 2725 3281 2906 2969 
z
M 947 1747 
Q 947 1113 1208 752 
Q 1469 391 1925 391 
Q 2381 391 2643 752 
Q 2906 1113 2906 1747 
Q 2906 2381 2643 2742 
Q 2381 3103 1925 3103 
Q 1469 3103 1208 2742 
Q 947 2381 947 1747 
z
" id="DejaVuSans-64" transform="scale(0.015625)"/>
      <path d="M 2375 4863 
L 2375 4384 
L 1825 4384 
Q 1516 4384 1395 4259 
Q 1275 4134 1275 3809 
L 1275 3500 
L 2222 3500 
L 2222 3053 
L 1275 3053 
L 1275 0 
L 697 0 
L 697 3053 
L 147 3053 
L 147 3500 
L 697 3500 
L 697 3744 
Q 697 4328 969 4595 
Q 1241 4863 1831 4863 
L 2375 4863 
z
" id="DejaVuSans-66" transform="scale(0.015625)"/>
      <path d="M 353 3500 
L 3084 3500 
L 3084 2975 
L 922 459 
L 3084 459 
L 3084 0 
L 275 0 
L 275 525 
L 2438 3041 
L 353 3041 
L 353 3500 
z
" id="DejaVuSans-7a" transform="scale(0.015625)"/>
      <path d="M 750 794 
L 1409 794 
L 1409 256 
L 897 -744 
L 494 -744 
L 750 256 
L 750 794 
z
" id="DejaVuSans-2c" transform="scale(0.015625)"/>
      <path d="M 2834 3397 
L 2834 2853 
Q 2591 2978 2328 3040 
Q 2066 3103 1784 3103 
Q 1356 3103 1142 2972 
Q 928 2841 928 2578 
Q 928 2378 1081 2264 
Q 1234 2150 1697 2047 
L 1894 2003 
Q 2506 1872 2764 1633 
Q 3022 1394 3022 966 
Q 3022 478 2636 193 
Q 2250 -91 1575 -91 
Q 1294 -91 989 -36 
Q 684 19 347 128 
L 347 722 
Q 666 556 975 473 
Q 1284 391 1588 391 
Q 1994 391 2212 530 
Q 2431 669 2431 922 
Q 2431 1156 2273 1281 
Q 2116 1406 1581 1522 
L 1381 1569 
Q 847 1681 609 1914 
Q 372 2147 372 2553 
Q 372 3047 722 3315 
Q 1072 3584 1716 3584 
Q 2034 3584 2315 3537 
Q 2597 3491 2834 3397 
z
" id="DejaVuSans-73" transform="scale(0.015625)"/>
      <path d="M 1625 4666 
L 2156 4666 
L 531 -594 
L 0 -594 
L 1625 4666 
z
" id="DejaVuSans-2f" transform="scale(0.015625)"/>
     </defs>
     <use xlink:href="#DejaVuSans-70"/>
     <use x="63.476562" xlink:href="#DejaVuSans-6f"/>
     <use x="124.658203" xlink:href="#DejaVuSans-70"/>
     <use x="188.134766" xlink:href="#DejaVuSans-70"/>
     <use x="251.611328" xlink:href="#DejaVuSans-6c"/>
     <use x="279.394531" xlink:href="#DejaVuSans-65"/>
     <use x="340.917969" xlink:href="#DejaVuSans-72"/>
     <use x="382.03125" xlink:href="#DejaVuSans-5f"/>
     <use x="432.03125" xlink:href="#DejaVuSans-70"/>
     <use x="495.507812" xlink:href="#DejaVuSans-64"/>
     <use x="558.984375" xlink:href="#DejaVuSans-66"/>
     <use x="594.189453" xlink:href="#DejaVuSans-5f"/>
     <use x="644.189453" xlink:href="#DejaVuSans-66"/>
     <use x="679.394531" xlink:href="#DejaVuSans-75"/>
     <use x="742.773438" xlink:href="#DejaVuSans-7a"/>
     <use x="795.263672" xlink:href="#DejaVuSans-7a"/>
     <use x="847.753906" xlink:href="#DejaVuSans-65"/>
     <use x="909.277344" xlink:href="#DejaVuSans-72"/>
     <use x="950.390625" xlink:href="#DejaVuSans-20"/>
     <use x="982.177734" xlink:href="#DejaVuSans-28"/>
     <use x="1021.191406" xlink:href="#DejaVuSans-32"/>
     <use x="1084.814453" xlink:href="#DejaVuSans-33"/>
     <use x="1148.4375" xlink:href="#DejaVuSans-68"/>
     <use x="1211.816406" xlink:href="#DejaVuSans-2c"/>
     <use x="1243.603516" xlink:href="#DejaVuSans-20"/>
     <use x="1275.390625" xlink:href="#DejaVuSans-31"/>
     <use x="1339.013672" xlink:href="#DejaVuSans-35"/>
     <use x="1402.636719" xlink:href="#DejaVuSans-20"/>
     <use x="1434.423828" xlink:href="#DejaVuSans-74"/>
     <use x="1473.632812" xlink:href="#DejaVuSans-72"/>
     <use x="1514.746094" xlink:href="#DejaVuSans-69"/>
     <use x="1542.529297" xlink:href="#DejaVuSans-61"/>
     <use x="1603.808594" xlink:href="#DejaVuSans-6c"/>
     <use x="1631.591797" xlink:href="#DejaVuSans-73"/>
     <use x="1683.691406" xlink:href="#DejaVuSans-2f"/>
     <use x="1717.382812" xlink:href="#DejaVuSans-66"/>
     <use x="1752.587891" xlink:href="#DejaVuSans-75"/>
     <use x="1815.966797" xlink:href="#DejaVuSans-7a"/>
     <use x="1868.457031" xlink:href="#DejaVuSans-7a"/>
     <use x="1920.947266" xlink:href="#DejaVuSans-65"/>
     <use x="1982.470703" xlink:href="#DejaVuSans-72"/>
     <use x="2023.583984" xlink:href="#DejaVuSans-29"/>
    </g>
   </g>
   <g id="legend_1">
    <g id="line2d_19">
     <path d="M 401.723125 30.416562 
L 421.723125 30.416562 
" style="fill:none;stroke:#1f77b4;stroke-linecap:square;stroke-width:1.5;"/>
    </g>
    <g id="line2d_20">
     <defs>
      <path d="M 0 3 
C 0.795609 3 1.55874 2.683901 2.12132 2.12132 
C 2.683901 1.55874 3 0.795609 3 0 
C 3 -0.795609 2.683901 -1.55874 2.12132 -2.12132 
C 1.55874 -2.683901 0.795609 -3 0 -3 
C -0.795609 -3 -1.55874 -2.683901 -2.12132 -2.12132 
C -2.683901 -1.55874 -3 -0.795609 -3 0 
C -3 0.795609 -2.683901 1.55874 -2.12132 2.12132 
C -1.55874 2.683901 -0.795609 3 0 3 
z
" id="m4b50170789" style="stroke:#1f77b4;"/>
     </defs>
     <g>
      <use style="fill:#1f77b4;stroke:#1f77b4;" x="411.723125" xlink:href="#m4b50170789" y="30.416562"/>
     </g>
    </g>
    <g id="text_18">
     <!-- afl -->
     <g transform="translate(429.723125 33.916562)scale(0.1 -0.1)">
      <use xlink:href="#DejaVuSans-61"/>
      <use x="61.279297" xlink:href="#DejaVuSans-66"/>
      <use x="96.484375" xlink:href="#DejaVuSans-6c"/>
     </g>
    </g>
    <g id="line2d_21">
     <path d="M 401.723125 45.094688 
L 421.723125 45.094688 
" style="fill:none;stroke:#98df8a;stroke-linecap:square;stroke-width:1.5;"/>
    </g>
    <g id="line2d_22">
     <defs>
      <path d="M -0 3 
L 3 -3 
L -3 -3 
z
" id="mf85af1121d" style="stroke:#98df8a;stroke-linejoin:miter;"/>
     </defs>
     <g>
      <use style="fill:#98df8a;stroke:#98df8a;stroke-linejoin:miter;" x="411.723125" xlink:href="#mf85af1121d" y="45.094688"/>
     </g>
    </g>
    <g id="text_19">
     <!-- afl_double_timeout -->
     <g transform="translate(429.723125 48.594688)scale(0.1 -0.1)">
      <defs>
       <path d="M 3116 1747 
Q 3116 2381 2855 2742 
Q 2594 3103 2138 3103 
Q 1681 3103 1420 2742 
Q 1159 2381 1159 1747 
Q 1159 1113 1420 752 
Q 1681 391 2138 391 
Q 2594 391 2855 752 
Q 3116 1113 3116 1747 
z
M 1159 2969 
Q 1341 3281 1617 3432 
Q 1894 3584 2278 3584 
Q 2916 3584 3314 3078 
Q 3713 2572 3713 1747 
Q 3713 922 3314 415 
Q 2916 -91 2278 -91 
Q 1894 -91 1617 61 
Q 1341 213 1159 525 
L 1159 0 
L 581 0 
L 581 4863 
L 1159 4863 
L 1159 2969 
z
" id="DejaVuSans-62" transform="scale(0.015625)"/>
      </defs>
      <use xlink:href="#DejaVuSans-61"/>
      <use x="61.279297" xlink:href="#DejaVuSans-66"/>
      <use x="96.484375" xlink:href="#DejaVuSans-6c"/>
      <use x="124.267578" xlink:href="#DejaVuSans-5f"/>
      <use x="174.267578" xlink:href="#DejaVuSans-64"/>
      <use x="237.744141" xlink:href="#DejaVuSans-6f"/>
      <use x="298.925781" xlink:href="#DejaVuSans-75"/>
      <use x="362.304688" xlink:href="#DejaVuSans-62"/>
      <use x="425.78125" xlink:href="#DejaVuSans-6c"/>
      <use x="453.564453" xlink:href="#DejaVuSans-65"/>
      <use x="515.087891" xlink:href="#DejaVuSans-5f"/>
      <use x="565.087891" xlink:href="#DejaVuSans-74"/>
      <use x="604.296875" xlink:href="#DejaVuSans-69"/>
      <use x="632.080078" xlink:href="#DejaVuSans-6d"/>
      <use x="729.492188" xlink:href="#DejaVuSans-65"/>
      <use x="791.015625" xlink:href="#DejaVuSans-6f"/>
      <use x="852.197266" xlink:href="#DejaVuSans-75"/>
      <use x="915.576172" xlink:href="#DejaVuSans-74"/>
     </g>
    </g>
   </g>
  </g>
 </g>
 <defs>
  <clipPath id="pf8ef851bdd">
   <rect height="266.112" width="357.12" x="40.603125" y="22.318125"/>
  </clipPath>
 </defs>
</svg>
