<?xml version="1.0" encoding="utf-8" standalone="no"?>
<!DOCTYPE svg PUBLIC "-//W3C//DTD SVG 1.1//EN"
  "http://www.w3.org/Graphics/SVG/1.1/DTD/svg11.dtd">
<svg height="325.986375pt" version="1.1" viewBox="0 0 533.395 325.986375" width="533.395pt" xmlns="http://www.w3.org/2000/svg" xmlns:xlink="http://www.w3.org/1999/xlink">
 <metadata>
  <rdf:RDF xmlns:cc="http://creativecommons.org/ns#" xmlns:dc="http://purl.org/dc/elements/1.1/" xmlns:rdf="http://www.w3.org/1999/02/22-rdf-syntax-ns#">
   <cc:Work>
    <dc:type rdf:resource="http://purl.org/dc/dcmitype/StillImage"/>
    <dc:date>2022-05-24T15:28:59.256682</dc:date>
    <dc:format>image/svg+xml</dc:format>
    <dc:creator>
     <cc:Agent>
      <dc:title>Matplotlib v3.4.3, https://matplotlib.org/</dc:title>
     </cc:Agent>
    </dc:creator>
   </cc:Work>
  </rdf:RDF>
 </metadata>
 <defs>
  <style type="text/css">*{stroke-linecap:butt;stroke-linejoin:round;}</style>
 </defs>
 <g id="figure_1">
  <g id="patch_1">
   <path d="M 0 325.986375 
L 533.395 325.986375 
L 533.395 0 
L 0 0 
z
" style="fill:#ffffff;"/>
  </g>
  <g id="axes_1">
   <g id="patch_2">
    <path d="M 53.328125 288.430125 
L 410.448125 288.430125 
L 410.448125 22.318125 
L 53.328125 22.318125 
z
" style="fill:#ffffff;"/>
   </g>
   <g id="PolyCollection_1">
    <defs>
     <path d="M 69.560852 -86.927745 
L 69.560852 -49.65225 
L 73.128485 -80.397731 
L 76.696117 -103.796946 
L 80.263749 -122.570736 
L 83.831382 -132.093672 
L 87.399014 -145.153699 
L 90.966646 -148.962874 
L 94.534279 -153.860384 
L 98.101911 -162.567069 
L 101.669544 -162.567069 
L 105.237176 -168.280831 
L 108.804808 -170.185418 
L 112.372441 -174.266677 
L 115.940073 -179.436271 
L 119.507705 -182.701278 
L 123.075338 -185.541154 
L 126.64297 -185.966285 
L 130.210603 -189.503375 
L 133.778235 -191.680047 
L 137.345867 -192.224214 
L 140.9135 -197.121725 
L 144.481132 -200.114648 
L 148.048764 -201.049936 
L 151.616397 -202.019235 
L 155.184029 -203.379654 
L 158.751661 -203.379654 
L 162.319294 -208.549248 
L 165.886926 -206.916745 
L 169.454559 -208.821332 
L 173.022191 -211.542171 
L 176.589823 -214.26301 
L 180.157456 -214.26301 
L 183.725088 -218.072185 
L 187.29272 -223.785947 
L 190.860353 -223.649905 
L 194.427985 -228.955541 
L 197.995618 -233.989093 
L 201.56325 -232.764716 
L 205.130882 -232.764716 
L 208.698515 -240.383065 
L 212.266147 -240.383065 
L 215.833779 -240.383065 
L 219.401412 -239.430771 
L 222.969044 -239.430771 
L 226.536676 -240.110981 
L 230.104309 -240.791191 
L 233.671941 -241.063275 
L 237.239574 -246.913079 
L 240.807206 -248.001414 
L 244.374838 -248.273498 
L 247.942471 -248.817666 
L 251.510103 -251.402463 
L 255.077735 -251.266421 
L 258.645368 -252.626841 
L 262.213 -251.810589 
L 265.780632 -254.123302 
L 269.348265 -256.708099 
L 272.915897 -256.980183 
L 276.48353 -256.980183 
L 280.051162 -256.844141 
L 283.618794 -257.796435 
L 287.186427 -258.612686 
L 290.754059 -259.973106 
L 294.321691 -259.973106 
L 297.889324 -260.24519 
L 301.456956 -260.24519 
L 305.024589 -260.9254 
L 308.592221 -261.602208 
L 312.159853 -264.190406 
L 315.727486 -264.598532 
L 319.295118 -265.278742 
L 322.86275 -266.775203 
L 326.430383 -266.775203 
L 329.998015 -267.047287 
L 333.565647 -266.775203 
L 337.13328 -268.135623 
L 340.700912 -268.135623 
L 344.268545 -268.135623 
L 347.836177 -268.951875 
L 351.403809 -268.951875 
L 354.971442 -270.312294 
L 358.539074 -268.407707 
L 362.106706 -271.944798 
L 365.674339 -270.584378 
L 369.241971 -270.584378 
L 372.809604 -270.584378 
L 376.377236 -270.584378 
L 379.944868 -271.40063 
L 383.512501 -270.584378 
L 387.080133 -270.584378 
L 390.647765 -267.863539 
L 394.215398 -270.856462 
L 394.215398 -291.57225 
L 394.215398 -291.57225 
L 390.647765 -291.262755 
L 387.080133 -291.262755 
L 383.512501 -291.262755 
L 379.944868 -288.677957 
L 376.377236 -287.725664 
L 372.809604 -289.630251 
L 369.241971 -289.630251 
L 365.674339 -289.358167 
L 362.106706 -288.541916 
L 358.539074 -287.45358 
L 354.971442 -288.269832 
L 351.403809 -288.269832 
L 347.836177 -288.269832 
L 344.268545 -288.269832 
L 340.700912 -286.09316 
L 337.13328 -284.732741 
L 333.565647 -284.732741 
L 329.998015 -284.732741 
L 326.430383 -284.732741 
L 322.86275 -284.732741 
L 319.295118 -284.460657 
L 315.727486 -281.603776 
L 312.159853 -281.603776 
L 308.592221 -281.603776 
L 305.024589 -279.563147 
L 301.456956 -283.644405 
L 297.889324 -279.563147 
L 294.321691 -283.372321 
L 290.754059 -283.372321 
L 287.186427 -279.658376 
L 283.618794 -280.137924 
L 280.051162 -279.018979 
L 276.48353 -280.651482 
L 272.915897 -280.651482 
L 269.348265 -280.651482 
L 265.780632 -278.882937 
L 262.213 -279.018979 
L 258.645368 -275.753972 
L 255.077735 -278.474811 
L 251.510103 -270.992504 
L 247.942471 -271.944798 
L 244.374838 -271.672714 
L 240.807206 -262.421861 
L 237.239574 -271.40063 
L 233.671941 -271.40063 
L 230.104309 -269.768126 
L 226.536676 -268.043795 
L 222.969044 -265.550826 
L 219.401412 -269.496042 
L 215.833779 -269.223959 
L 212.266147 -265.414784 
L 208.698515 -253.171008 
L 205.130882 -256.303374 
L 201.56325 -253.171008 
L 197.995618 -249.76996 
L 194.427985 -252.898924 
L 190.860353 -248.001414 
L 187.29272 -247.72933 
L 183.725088 -240.110981 
L 180.157456 -237.118058 
L 176.589823 -234.941387 
L 173.022191 -235.485555 
L 169.454559 -233.0368 
L 165.886926 -232.764716 
L 162.319294 -232.764716 
L 158.751661 -230.860128 
L 155.184029 -230.588045 
L 151.616397 -228.275331 
L 148.048764 -223.785947 
L 144.481132 -223.785947 
L 140.9135 -222.153444 
L 137.345867 -221.609276 
L 133.778235 -216.439682 
L 130.210603 -207.460913 
L 126.64297 -202.019235 
L 123.075338 -197.81894 
L 119.507705 -198.482144 
L 115.940073 -196.033389 
L 112.372441 -194.809011 
L 108.804808 -185.694201 
L 105.237176 -180.538211 
L 101.669544 -179.980439 
L 98.101911 -175.89918 
L 94.534279 -161.478734 
L 90.966646 -157.941643 
L 87.399014 -151.411629 
L 83.831382 -142.43286 
L 80.263749 -134.542427 
L 76.696117 -128.012414 
L 73.128485 -109.238624 
L 69.560852 -86.927745 
z
" id="mcf03356ab0" style="stroke:#98df8a;stroke-opacity:0.2;"/>
    </defs>
    <g clip-path="url(#p7768a2cbf2)">
     <use style="fill:#98df8a;fill-opacity:0.2;stroke:#98df8a;stroke-opacity:0.2;" x="0" xlink:href="#mcf03356ab0" y="325.986375"/>
    </g>
   </g>
   <g id="PolyCollection_2">
    <defs>
     <path d="M 69.560852 -76.316472 
L 69.560852 -64.344781 
L 73.128485 -92.369423 
L 76.696117 -103.796946 
L 80.263749 -113.319883 
L 83.831382 -118.761561 
L 87.399014 -134.783902 
L 90.966646 -133.454092 
L 94.534279 -144.881616 
L 98.101911 -152.908091 
L 101.669544 -159.84623 
L 105.237176 -165.832076 
L 108.804808 -172.090006 
L 112.372441 -175.082929 
L 115.940073 -178.347935 
L 119.507705 -179.973637 
L 123.075338 -182.15711 
L 126.64297 -184.333781 
L 130.210603 -186.510452 
L 133.778235 -188.006914 
L 137.345867 -188.142956 
L 140.9135 -196.441515 
L 144.481132 -196.713599 
L 148.048764 -197.937976 
L 151.616397 -199.026312 
L 155.184029 -200.658815 
L 158.751661 -207.188829 
L 162.319294 -208.277165 
L 165.886926 -206.236535 
L 169.454559 -209.093416 
L 173.022191 -209.093416 
L 176.589823 -209.093416 
L 180.157456 -213.990927 
L 183.725088 -210.453836 
L 187.29272 -220.725003 
L 190.860353 -218.881635 
L 194.427985 -221.065108 
L 197.995618 -223.241779 
L 201.56325 -223.241779 
L 205.130882 -227.595122 
L 208.698515 -227.050954 
L 212.266147 -228.955541 
L 215.833779 -230.043877 
L 219.401412 -232.03349 
L 222.969044 -230.043877 
L 226.536676 -234.941387 
L 230.104309 -236.437848 
L 233.671941 -237.118058 
L 237.239574 -237.118058 
L 240.807206 -239.294729 
L 244.374838 -239.294729 
L 247.942471 -240.110981 
L 251.510103 -245.008491 
L 255.077735 -245.008491 
L 258.645368 -247.185163 
L 262.213 -248.545582 
L 265.780632 -247.865372 
L 269.348265 -248.817666 
L 272.915897 -250.984134 
L 276.48353 -250.994337 
L 280.051162 -251.402463 
L 283.618794 -251.402463 
L 287.186427 -251.810589 
L 290.754059 -251.810589 
L 294.321691 -253.715176 
L 297.889324 -253.715176 
L 301.456956 -252.898924 
L 305.024589 -255.34768 
L 308.592221 -254.936153 
L 312.159853 -254.803512 
L 315.727486 -256.163931 
L 319.295118 -256.708099 
L 322.86275 -257.796435 
L 326.430383 -256.163931 
L 329.998015 -257.932477 
L 333.565647 -257.796435 
L 337.13328 -257.796435 
L 340.700912 -259.973106 
L 344.268545 -262.149777 
L 347.836177 -262.149777 
L 351.403809 -262.149777 
L 354.971442 -261.061441 
L 358.539074 -259.973106 
L 362.106706 -262.149777 
L 365.674339 -263.238113 
L 369.241971 -263.238113 
L 372.809604 -263.238113 
L 376.377236 -263.238113 
L 379.944868 -264.326448 
L 383.512501 -260.768951 
L 387.080133 -259.973106 
L 390.647765 -263.238113 
L 394.215398 -263.238113 
L 394.215398 -282.283986 
L 394.215398 -282.283986 
L 390.647765 -276.570224 
L 387.080133 -276.570224 
L 383.512501 -276.304942 
L 379.944868 -276.570224 
L 376.377236 -275.209804 
L 372.809604 -273.849385 
L 369.241971 -273.577301 
L 365.674339 -268.679791 
L 362.106706 -268.679791 
L 358.539074 -268.679791 
L 354.971442 -268.679791 
L 351.403809 -268.679791 
L 347.836177 -268.679791 
L 344.268545 -268.543749 
L 340.700912 -268.679791 
L 337.13328 -268.679791 
L 333.565647 -266.775203 
L 329.998015 -265.979358 
L 326.430383 -266.775203 
L 322.86275 -266.775203 
L 319.295118 -266.111999 
L 315.727486 -264.652949 
L 312.159853 -266.775203 
L 308.592221 -266.775203 
L 305.024589 -265.1427 
L 301.456956 -259.156854 
L 297.889324 -258.612686 
L 294.321691 -258.612686 
L 290.754059 -258.626291 
L 287.186427 -258.612686 
L 283.618794 -255.898649 
L 280.051162 -255.619763 
L 276.48353 -256.436015 
L 272.915897 -255.891847 
L 269.348265 -255.619763 
L 265.780632 -255.619763 
L 262.213 -255.755805 
L 258.645368 -255.34768 
L 255.077735 -254.803512 
L 251.510103 -252.898924 
L 247.942471 -252.898924 
L 244.374838 -251.266421 
L 240.807206 -253.443092 
L 237.239574 -245.280575 
L 233.671941 -247.872174 
L 230.104309 -247.185163 
L 226.536676 -241.743484 
L 222.969044 -241.471401 
L 219.401412 -240.519107 
L 215.833779 -238.478478 
L 212.266147 -236.036525 
L 208.698515 -239.294729 
L 205.130882 -239.308334 
L 201.56325 -237.93431 
L 197.995618 -234.941387 
L 194.427985 -234.941387 
L 190.860353 -232.900758 
L 187.29272 -230.588045 
L 183.725088 -234.125135 
L 180.157456 -232.220548 
L 176.589823 -229.907835 
L 173.022191 -225.41845 
L 169.454559 -225.41845 
L 165.886926 -220.52094 
L 162.319294 -221.065108 
L 158.751661 -220.52094 
L 155.184029 -212.086339 
L 151.616397 -212.086339 
L 148.048764 -209.3655 
L 144.481132 -206.100493 
L 140.9135 -206.508619 
L 137.345867 -204.195906 
L 133.778235 -202.563403 
L 130.210603 -200.658815 
L 126.64297 -198.482144 
L 123.075338 -197.937976 
L 119.507705 -191.680047 
L 115.940073 -185.422117 
L 112.372441 -185.150033 
L 108.804808 -179.164187 
L 105.237176 -175.082929 
L 101.669544 -172.36209 
L 98.101911 -170.729586 
L 94.534279 -164.879782 
L 90.966646 -156.853307 
L 87.399014 -150.595377 
L 83.831382 -136.038889 
L 80.263749 -122.026568 
L 76.696117 -116.58489 
L 73.128485 -97.947143 
L 69.560852 -76.316472 
z
" id="m7b92ceac69" style="stroke:#1f77b4;stroke-opacity:0.2;"/>
    </defs>
    <g clip-path="url(#p7768a2cbf2)">
     <use style="fill:#1f77b4;fill-opacity:0.2;stroke:#1f77b4;stroke-opacity:0.2;" x="0" xlink:href="#m7b92ceac69" y="325.986375"/>
    </g>
   </g>
   <g id="PolyCollection_3">
    <defs>
     <path d="M 69.560852 -78.765227 
L 69.560852 -58.086851 
L 73.128485 -77.404808 
L 76.696117 -97.539017 
L 80.263749 -109.238624 
L 83.831382 -113.591967 
L 87.399014 -126.876463 
L 90.966646 -132.093672 
L 94.534279 -139.712021 
L 98.101911 -144.065364 
L 101.669544 -148.418706 
L 105.237176 -154.94872 
L 108.804808 -157.669559 
L 112.372441 -162.294985 
L 115.940073 -165.015824 
L 119.507705 -167.328537 
L 123.075338 -168.008747 
L 126.64297 -173.450425 
L 130.210603 -173.722509 
L 133.778235 -175.355013 
L 137.345867 -176.171264 
L 140.9135 -178.616618 
L 144.481132 -180.252523 
L 148.048764 -181.748984 
L 151.616397 -182.973362 
L 155.184029 -183.789613 
L 158.751661 -182.973362 
L 162.319294 -185.150033 
L 165.886926 -186.238369 
L 169.454559 -186.238369 
L 173.022191 -187.326704 
L 176.589823 -188.959208 
L 180.157456 -189.503375 
L 183.725088 -190.319627 
L 187.29272 -190.591711 
L 190.860353 -192.496298 
L 194.427985 -193.448592 
L 197.995618 -194.67297 
L 201.56325 -196.033389 
L 205.130882 -197.665892 
L 208.698515 -198.754228 
L 212.266147 -199.026312 
L 215.833779 -199.57048 
L 219.401412 -199.57048 
L 222.969044 -201.475067 
L 226.536676 -201.475067 
L 230.104309 -205.284242 
L 233.671941 -205.189012 
L 237.239574 -201.475067 
L 240.807206 -205.556326 
L 244.374838 -204.876116 
L 247.942471 -205.556326 
L 251.510103 -205.556326 
L 255.077735 -205.556326 
L 258.645368 -204.876116 
L 262.213 -207.460913 
L 265.780632 -207.460913 
L 269.348265 -207.460913 
L 272.915897 -207.460913 
L 276.48353 -209.3655 
L 280.051162 -207.460913 
L 283.618794 -208.821332 
L 287.186427 -211.270088 
L 290.754059 -211.242879 
L 294.321691 -210.181752 
L 297.889324 -211.542171 
L 301.456956 -211.270088 
L 305.024589 -211.814255 
L 308.592221 -212.358423 
L 312.159853 -212.358423 
L 315.727486 -215.487388 
L 319.295118 -216.157395 
L 322.86275 -214.807178 
L 326.430383 -216.30364 
L 329.998015 -214.807178 
L 333.565647 -215.895514 
L 337.13328 -217.800101 
L 340.700912 -217.255933 
L 344.268545 -218.344269 
L 347.836177 -219.160521 
L 351.403809 -219.160521 
L 354.971442 -218.888437 
L 358.539074 -219.160521 
L 362.106706 -220.52094 
L 365.674339 -220.510737 
L 369.241971 -219.84073 
L 372.809604 -220.52094 
L 376.377236 -218.888437 
L 379.944868 -220.52094 
L 383.512501 -220.52094 
L 387.080133 -221.065108 
L 390.647765 -221.065108 
L 394.215398 -219.84073 
L 394.215398 -228.003247 
L 394.215398 -228.003247 
L 390.647765 -228.139289 
L 387.080133 -228.139289 
L 383.512501 -227.323038 
L 379.944868 -226.506786 
L 376.377236 -226.506786 
L 372.809604 -227.323038 
L 369.241971 -226.506786 
L 365.674339 -226.506786 
L 362.106706 -226.506786 
L 358.539074 -225.41845 
L 354.971442 -225.41845 
L 351.403809 -225.146366 
L 347.836177 -223.513863 
L 344.268545 -223.241779 
L 340.700912 -223.105737 
L 337.13328 -223.241779 
L 333.565647 -221.609276 
L 329.998015 -223.241779 
L 326.430383 -223.241779 
L 322.86275 -222.153444 
L 319.295118 -221.078712 
L 315.727486 -220.799826 
L 312.159853 -220.793024 
L 308.592221 -221.065108 
L 305.024589 -220.793024 
L 301.456956 -220.793024 
L 297.889324 -220.248856 
L 294.321691 -219.160521 
L 290.754059 -219.160521 
L 287.186427 -220.793024 
L 283.618794 -218.616353 
L 280.051162 -218.616353 
L 276.48353 -213.446759 
L 272.915897 -214.26301 
L 269.348265 -215.351346 
L 265.780632 -213.718843 
L 262.213 -213.718843 
L 258.645368 -211.542171 
L 255.077735 -212.127152 
L 251.510103 -211.953698 
L 247.942471 -211.814255 
L 244.374838 -211.814255 
L 240.807206 -211.814255 
L 237.239574 -211.814255 
L 233.671941 -211.814255 
L 230.104309 -210.181752 
L 226.536676 -209.637584 
L 222.969044 -209.637584 
L 219.401412 -209.637584 
L 215.833779 -208.569655 
L 212.266147 -209.3655 
L 208.698515 -205.828409 
L 205.130882 -205.012158 
L 201.56325 -205.012158 
L 197.995618 -205.284242 
L 194.427985 -204.059864 
L 190.860353 -202.835487 
L 187.29272 -202.563403 
L 183.725088 -203.651738 
L 180.157456 -199.842564 
L 176.589823 -198.21006 
L 173.022191 -199.57048 
L 169.454559 -196.305473 
L 165.886926 -199.57048 
L 162.319294 -193.064273 
L 158.751661 -193.040466 
L 155.184029 -192.224214 
L 151.616397 -193.448592 
L 148.048764 -190.867196 
L 144.481132 -188.693926 
L 140.9135 -188.687124 
L 137.345867 -188.41504 
L 133.778235 -184.877949 
L 130.210603 -184.061697 
L 126.64297 -179.980439 
L 123.075338 -178.347935 
L 119.507705 -177.395642 
L 115.940073 -173.450425 
L 112.372441 -172.090006 
L 108.804808 -168.008747 
L 105.237176 -166.920412 
L 101.669544 -162.567069 
L 98.101911 -158.485811 
L 94.534279 -155.492888 
L 90.966646 -148.418706 
L 87.399014 -142.160777 
L 83.831382 -133.454092 
L 80.263749 -126.651994 
L 76.696117 -109.782792 
L 73.128485 -103.024908 
L 69.560852 -78.765227 
z
" id="m6af12b233f" style="stroke:#d62728;stroke-opacity:0.2;"/>
    </defs>
    <g clip-path="url(#p7768a2cbf2)">
     <use style="fill:#d62728;fill-opacity:0.2;stroke:#d62728;stroke-opacity:0.2;" x="0" xlink:href="#m6af12b233f" y="325.986375"/>
    </g>
   </g>
   <g id="matplotlib.axis_1">
    <g id="xtick_1">
     <g id="line2d_1">
      <defs>
       <path d="M 0 0 
L 0 3.5 
" id="m24a9d9ddfd" style="stroke:#000000;stroke-width:0.8;"/>
      </defs>
      <g>
       <use style="stroke:#000000;stroke-width:0.8;" x="69.560852" xlink:href="#m24a9d9ddfd" y="288.430125"/>
      </g>
     </g>
     <g id="text_1">
      <!-- 15m -->
      <g transform="translate(58.32804 303.028562)scale(0.1 -0.1)">
       <defs>
        <path d="M 794 531 
L 1825 531 
L 1825 4091 
L 703 3866 
L 703 4441 
L 1819 4666 
L 2450 4666 
L 2450 531 
L 3481 531 
L 3481 0 
L 794 0 
L 794 531 
z
" id="DejaVuSans-31" transform="scale(0.015625)"/>
        <path d="M 691 4666 
L 3169 4666 
L 3169 4134 
L 1269 4134 
L 1269 2991 
Q 1406 3038 1543 3061 
Q 1681 3084 1819 3084 
Q 2600 3084 3056 2656 
Q 3513 2228 3513 1497 
Q 3513 744 3044 326 
Q 2575 -91 1722 -91 
Q 1428 -91 1123 -41 
Q 819 9 494 109 
L 494 744 
Q 775 591 1075 516 
Q 1375 441 1709 441 
Q 2250 441 2565 725 
Q 2881 1009 2881 1497 
Q 2881 1984 2565 2268 
Q 2250 2553 1709 2553 
Q 1456 2553 1204 2497 
Q 953 2441 691 2322 
L 691 4666 
z
" id="DejaVuSans-35" transform="scale(0.015625)"/>
        <path d="M 3328 2828 
Q 3544 3216 3844 3400 
Q 4144 3584 4550 3584 
Q 5097 3584 5394 3201 
Q 5691 2819 5691 2113 
L 5691 0 
L 5113 0 
L 5113 2094 
Q 5113 2597 4934 2840 
Q 4756 3084 4391 3084 
Q 3944 3084 3684 2787 
Q 3425 2491 3425 1978 
L 3425 0 
L 2847 0 
L 2847 2094 
Q 2847 2600 2669 2842 
Q 2491 3084 2119 3084 
Q 1678 3084 1418 2786 
Q 1159 2488 1159 1978 
L 1159 0 
L 581 0 
L 581 3500 
L 1159 3500 
L 1159 2956 
Q 1356 3278 1631 3431 
Q 1906 3584 2284 3584 
Q 2666 3584 2933 3390 
Q 3200 3197 3328 2828 
z
" id="DejaVuSans-6d" transform="scale(0.015625)"/>
       </defs>
       <use xlink:href="#DejaVuSans-31"/>
       <use x="63.623047" xlink:href="#DejaVuSans-35"/>
       <use x="127.246094" xlink:href="#DejaVuSans-6d"/>
      </g>
     </g>
    </g>
    <g id="xtick_2">
     <g id="line2d_2">
      <g>
       <use style="stroke:#000000;stroke-width:0.8;" x="124.264549" xlink:href="#m24a9d9ddfd" y="288.430125"/>
      </g>
     </g>
     <g id="text_2">
      <!-- 4h:5m -->
      <g transform="translate(108.178611 303.028562)scale(0.1 -0.1)">
       <defs>
        <path d="M 2419 4116 
L 825 1625 
L 2419 1625 
L 2419 4116 
z
M 2253 4666 
L 3047 4666 
L 3047 1625 
L 3713 1625 
L 3713 1100 
L 3047 1100 
L 3047 0 
L 2419 0 
L 2419 1100 
L 313 1100 
L 313 1709 
L 2253 4666 
z
" id="DejaVuSans-34" transform="scale(0.015625)"/>
        <path d="M 3513 2113 
L 3513 0 
L 2938 0 
L 2938 2094 
Q 2938 2591 2744 2837 
Q 2550 3084 2163 3084 
Q 1697 3084 1428 2787 
Q 1159 2491 1159 1978 
L 1159 0 
L 581 0 
L 581 4863 
L 1159 4863 
L 1159 2956 
Q 1366 3272 1645 3428 
Q 1925 3584 2291 3584 
Q 2894 3584 3203 3211 
Q 3513 2838 3513 2113 
z
" id="DejaVuSans-68" transform="scale(0.015625)"/>
        <path d="M 750 794 
L 1409 794 
L 1409 0 
L 750 0 
L 750 794 
z
M 750 3309 
L 1409 3309 
L 1409 2516 
L 750 2516 
L 750 3309 
z
" id="DejaVuSans-3a" transform="scale(0.015625)"/>
       </defs>
       <use xlink:href="#DejaVuSans-34"/>
       <use x="63.623047" xlink:href="#DejaVuSans-68"/>
       <use x="127.001953" xlink:href="#DejaVuSans-3a"/>
       <use x="160.693359" xlink:href="#DejaVuSans-35"/>
       <use x="224.316406" xlink:href="#DejaVuSans-6d"/>
      </g>
     </g>
    </g>
    <g id="xtick_3">
     <g id="line2d_3">
      <g>
       <use style="stroke:#000000;stroke-width:0.8;" x="178.968245" xlink:href="#m24a9d9ddfd" y="288.430125"/>
      </g>
     </g>
     <g id="text_3">
      <!-- 7h:55m -->
      <g transform="translate(159.701057 303.028562)scale(0.1 -0.1)">
       <defs>
        <path d="M 525 4666 
L 3525 4666 
L 3525 4397 
L 1831 0 
L 1172 0 
L 2766 4134 
L 525 4134 
L 525 4666 
z
" id="DejaVuSans-37" transform="scale(0.015625)"/>
       </defs>
       <use xlink:href="#DejaVuSans-37"/>
       <use x="63.623047" xlink:href="#DejaVuSans-68"/>
       <use x="127.001953" xlink:href="#DejaVuSans-3a"/>
       <use x="160.693359" xlink:href="#DejaVuSans-35"/>
       <use x="224.316406" xlink:href="#DejaVuSans-35"/>
       <use x="287.939453" xlink:href="#DejaVuSans-6d"/>
      </g>
     </g>
    </g>
    <g id="xtick_4">
     <g id="line2d_4">
      <g>
       <use style="stroke:#000000;stroke-width:0.8;" x="233.671941" xlink:href="#m24a9d9ddfd" y="288.430125"/>
      </g>
     </g>
     <g id="text_4">
      <!-- 11h:45m -->
      <g transform="translate(211.223504 303.028562)scale(0.1 -0.1)">
       <use xlink:href="#DejaVuSans-31"/>
       <use x="63.623047" xlink:href="#DejaVuSans-31"/>
       <use x="127.246094" xlink:href="#DejaVuSans-68"/>
       <use x="190.625" xlink:href="#DejaVuSans-3a"/>
       <use x="224.316406" xlink:href="#DejaVuSans-34"/>
       <use x="287.939453" xlink:href="#DejaVuSans-35"/>
       <use x="351.5625" xlink:href="#DejaVuSans-6d"/>
      </g>
     </g>
    </g>
    <g id="xtick_5">
     <g id="line2d_5">
      <g>
       <use style="stroke:#000000;stroke-width:0.8;" x="288.375637" xlink:href="#m24a9d9ddfd" y="288.430125"/>
      </g>
     </g>
     <g id="text_5">
      <!-- 15h:35m -->
      <g transform="translate(265.9272 303.028562)scale(0.1 -0.1)">
       <defs>
        <path d="M 2597 2516 
Q 3050 2419 3304 2112 
Q 3559 1806 3559 1356 
Q 3559 666 3084 287 
Q 2609 -91 1734 -91 
Q 1441 -91 1130 -33 
Q 819 25 488 141 
L 488 750 
Q 750 597 1062 519 
Q 1375 441 1716 441 
Q 2309 441 2620 675 
Q 2931 909 2931 1356 
Q 2931 1769 2642 2001 
Q 2353 2234 1838 2234 
L 1294 2234 
L 1294 2753 
L 1863 2753 
Q 2328 2753 2575 2939 
Q 2822 3125 2822 3475 
Q 2822 3834 2567 4026 
Q 2313 4219 1838 4219 
Q 1578 4219 1281 4162 
Q 984 4106 628 3988 
L 628 4550 
Q 988 4650 1302 4700 
Q 1616 4750 1894 4750 
Q 2613 4750 3031 4423 
Q 3450 4097 3450 3541 
Q 3450 3153 3228 2886 
Q 3006 2619 2597 2516 
z
" id="DejaVuSans-33" transform="scale(0.015625)"/>
       </defs>
       <use xlink:href="#DejaVuSans-31"/>
       <use x="63.623047" xlink:href="#DejaVuSans-35"/>
       <use x="127.246094" xlink:href="#DejaVuSans-68"/>
       <use x="190.625" xlink:href="#DejaVuSans-3a"/>
       <use x="224.316406" xlink:href="#DejaVuSans-33"/>
       <use x="287.939453" xlink:href="#DejaVuSans-35"/>
       <use x="351.5625" xlink:href="#DejaVuSans-6d"/>
      </g>
     </g>
    </g>
    <g id="xtick_6">
     <g id="line2d_6">
      <g>
       <use style="stroke:#000000;stroke-width:0.8;" x="343.079334" xlink:href="#m24a9d9ddfd" y="288.430125"/>
      </g>
     </g>
     <g id="text_6">
      <!-- 19h:25m -->
      <g transform="translate(320.630896 303.028562)scale(0.1 -0.1)">
       <defs>
        <path d="M 703 97 
L 703 672 
Q 941 559 1184 500 
Q 1428 441 1663 441 
Q 2288 441 2617 861 
Q 2947 1281 2994 2138 
Q 2813 1869 2534 1725 
Q 2256 1581 1919 1581 
Q 1219 1581 811 2004 
Q 403 2428 403 3163 
Q 403 3881 828 4315 
Q 1253 4750 1959 4750 
Q 2769 4750 3195 4129 
Q 3622 3509 3622 2328 
Q 3622 1225 3098 567 
Q 2575 -91 1691 -91 
Q 1453 -91 1209 -44 
Q 966 3 703 97 
z
M 1959 2075 
Q 2384 2075 2632 2365 
Q 2881 2656 2881 3163 
Q 2881 3666 2632 3958 
Q 2384 4250 1959 4250 
Q 1534 4250 1286 3958 
Q 1038 3666 1038 3163 
Q 1038 2656 1286 2365 
Q 1534 2075 1959 2075 
z
" id="DejaVuSans-39" transform="scale(0.015625)"/>
        <path d="M 1228 531 
L 3431 531 
L 3431 0 
L 469 0 
L 469 531 
Q 828 903 1448 1529 
Q 2069 2156 2228 2338 
Q 2531 2678 2651 2914 
Q 2772 3150 2772 3378 
Q 2772 3750 2511 3984 
Q 2250 4219 1831 4219 
Q 1534 4219 1204 4116 
Q 875 4013 500 3803 
L 500 4441 
Q 881 4594 1212 4672 
Q 1544 4750 1819 4750 
Q 2544 4750 2975 4387 
Q 3406 4025 3406 3419 
Q 3406 3131 3298 2873 
Q 3191 2616 2906 2266 
Q 2828 2175 2409 1742 
Q 1991 1309 1228 531 
z
" id="DejaVuSans-32" transform="scale(0.015625)"/>
       </defs>
       <use xlink:href="#DejaVuSans-31"/>
       <use x="63.623047" xlink:href="#DejaVuSans-39"/>
       <use x="127.246094" xlink:href="#DejaVuSans-68"/>
       <use x="190.625" xlink:href="#DejaVuSans-3a"/>
       <use x="224.316406" xlink:href="#DejaVuSans-32"/>
       <use x="287.939453" xlink:href="#DejaVuSans-35"/>
       <use x="351.5625" xlink:href="#DejaVuSans-6d"/>
      </g>
     </g>
    </g>
    <g id="text_7">
     <!-- Time (hour:minute) -->
     <g transform="translate(183.481094 316.706687)scale(0.1 -0.1)">
      <defs>
       <path d="M -19 4666 
L 3928 4666 
L 3928 4134 
L 2272 4134 
L 2272 0 
L 1638 0 
L 1638 4134 
L -19 4134 
L -19 4666 
z
" id="DejaVuSans-54" transform="scale(0.015625)"/>
       <path d="M 603 3500 
L 1178 3500 
L 1178 0 
L 603 0 
L 603 3500 
z
M 603 4863 
L 1178 4863 
L 1178 4134 
L 603 4134 
L 603 4863 
z
" id="DejaVuSans-69" transform="scale(0.015625)"/>
       <path d="M 3597 1894 
L 3597 1613 
L 953 1613 
Q 991 1019 1311 708 
Q 1631 397 2203 397 
Q 2534 397 2845 478 
Q 3156 559 3463 722 
L 3463 178 
Q 3153 47 2828 -22 
Q 2503 -91 2169 -91 
Q 1331 -91 842 396 
Q 353 884 353 1716 
Q 353 2575 817 3079 
Q 1281 3584 2069 3584 
Q 2775 3584 3186 3129 
Q 3597 2675 3597 1894 
z
M 3022 2063 
Q 3016 2534 2758 2815 
Q 2500 3097 2075 3097 
Q 1594 3097 1305 2825 
Q 1016 2553 972 2059 
L 3022 2063 
z
" id="DejaVuSans-65" transform="scale(0.015625)"/>
       <path id="DejaVuSans-20" transform="scale(0.015625)"/>
       <path d="M 1984 4856 
Q 1566 4138 1362 3434 
Q 1159 2731 1159 2009 
Q 1159 1288 1364 580 
Q 1569 -128 1984 -844 
L 1484 -844 
Q 1016 -109 783 600 
Q 550 1309 550 2009 
Q 550 2706 781 3412 
Q 1013 4119 1484 4856 
L 1984 4856 
z
" id="DejaVuSans-28" transform="scale(0.015625)"/>
       <path d="M 1959 3097 
Q 1497 3097 1228 2736 
Q 959 2375 959 1747 
Q 959 1119 1226 758 
Q 1494 397 1959 397 
Q 2419 397 2687 759 
Q 2956 1122 2956 1747 
Q 2956 2369 2687 2733 
Q 2419 3097 1959 3097 
z
M 1959 3584 
Q 2709 3584 3137 3096 
Q 3566 2609 3566 1747 
Q 3566 888 3137 398 
Q 2709 -91 1959 -91 
Q 1206 -91 779 398 
Q 353 888 353 1747 
Q 353 2609 779 3096 
Q 1206 3584 1959 3584 
z
" id="DejaVuSans-6f" transform="scale(0.015625)"/>
       <path d="M 544 1381 
L 544 3500 
L 1119 3500 
L 1119 1403 
Q 1119 906 1312 657 
Q 1506 409 1894 409 
Q 2359 409 2629 706 
Q 2900 1003 2900 1516 
L 2900 3500 
L 3475 3500 
L 3475 0 
L 2900 0 
L 2900 538 
Q 2691 219 2414 64 
Q 2138 -91 1772 -91 
Q 1169 -91 856 284 
Q 544 659 544 1381 
z
M 1991 3584 
L 1991 3584 
z
" id="DejaVuSans-75" transform="scale(0.015625)"/>
       <path d="M 2631 2963 
Q 2534 3019 2420 3045 
Q 2306 3072 2169 3072 
Q 1681 3072 1420 2755 
Q 1159 2438 1159 1844 
L 1159 0 
L 581 0 
L 581 3500 
L 1159 3500 
L 1159 2956 
Q 1341 3275 1631 3429 
Q 1922 3584 2338 3584 
Q 2397 3584 2469 3576 
Q 2541 3569 2628 3553 
L 2631 2963 
z
" id="DejaVuSans-72" transform="scale(0.015625)"/>
       <path d="M 3513 2113 
L 3513 0 
L 2938 0 
L 2938 2094 
Q 2938 2591 2744 2837 
Q 2550 3084 2163 3084 
Q 1697 3084 1428 2787 
Q 1159 2491 1159 1978 
L 1159 0 
L 581 0 
L 581 3500 
L 1159 3500 
L 1159 2956 
Q 1366 3272 1645 3428 
Q 1925 3584 2291 3584 
Q 2894 3584 3203 3211 
Q 3513 2838 3513 2113 
z
" id="DejaVuSans-6e" transform="scale(0.015625)"/>
       <path d="M 1172 4494 
L 1172 3500 
L 2356 3500 
L 2356 3053 
L 1172 3053 
L 1172 1153 
Q 1172 725 1289 603 
Q 1406 481 1766 481 
L 2356 481 
L 2356 0 
L 1766 0 
Q 1100 0 847 248 
Q 594 497 594 1153 
L 594 3053 
L 172 3053 
L 172 3500 
L 594 3500 
L 594 4494 
L 1172 4494 
z
" id="DejaVuSans-74" transform="scale(0.015625)"/>
       <path d="M 513 4856 
L 1013 4856 
Q 1481 4119 1714 3412 
Q 1947 2706 1947 2009 
Q 1947 1309 1714 600 
Q 1481 -109 1013 -844 
L 513 -844 
Q 928 -128 1133 580 
Q 1338 1288 1338 2009 
Q 1338 2731 1133 3434 
Q 928 4138 513 4856 
z
" id="DejaVuSans-29" transform="scale(0.015625)"/>
      </defs>
      <use xlink:href="#DejaVuSans-54"/>
      <use x="57.958984" xlink:href="#DejaVuSans-69"/>
      <use x="85.742188" xlink:href="#DejaVuSans-6d"/>
      <use x="183.154297" xlink:href="#DejaVuSans-65"/>
      <use x="244.677734" xlink:href="#DejaVuSans-20"/>
      <use x="276.464844" xlink:href="#DejaVuSans-28"/>
      <use x="315.478516" xlink:href="#DejaVuSans-68"/>
      <use x="378.857422" xlink:href="#DejaVuSans-6f"/>
      <use x="440.039062" xlink:href="#DejaVuSans-75"/>
      <use x="503.417969" xlink:href="#DejaVuSans-72"/>
      <use x="542.78125" xlink:href="#DejaVuSans-3a"/>
      <use x="576.472656" xlink:href="#DejaVuSans-6d"/>
      <use x="673.884766" xlink:href="#DejaVuSans-69"/>
      <use x="701.667969" xlink:href="#DejaVuSans-6e"/>
      <use x="765.046875" xlink:href="#DejaVuSans-75"/>
      <use x="828.425781" xlink:href="#DejaVuSans-74"/>
      <use x="867.634766" xlink:href="#DejaVuSans-65"/>
      <use x="929.158203" xlink:href="#DejaVuSans-29"/>
     </g>
    </g>
   </g>
   <g id="matplotlib.axis_2">
    <g id="ytick_1">
     <g id="line2d_7">
      <defs>
       <path d="M 0 0 
L -3.5 0 
" id="m8dd89831b7" style="stroke:#000000;stroke-width:0.8;"/>
      </defs>
      <g>
       <use style="stroke:#000000;stroke-width:0.8;" x="53.328125" xlink:href="#m8dd89831b7" y="242.595721"/>
      </g>
     </g>
     <g id="text_8">
      <!-- 4400 -->
      <g transform="translate(20.878125 246.39494)scale(0.1 -0.1)">
       <defs>
        <path d="M 2034 4250 
Q 1547 4250 1301 3770 
Q 1056 3291 1056 2328 
Q 1056 1369 1301 889 
Q 1547 409 2034 409 
Q 2525 409 2770 889 
Q 3016 1369 3016 2328 
Q 3016 3291 2770 3770 
Q 2525 4250 2034 4250 
z
M 2034 4750 
Q 2819 4750 3233 4129 
Q 3647 3509 3647 2328 
Q 3647 1150 3233 529 
Q 2819 -91 2034 -91 
Q 1250 -91 836 529 
Q 422 1150 422 2328 
Q 422 3509 836 4129 
Q 1250 4750 2034 4750 
z
" id="DejaVuSans-30" transform="scale(0.015625)"/>
       </defs>
       <use xlink:href="#DejaVuSans-34"/>
       <use x="63.623047" xlink:href="#DejaVuSans-34"/>
       <use x="127.246094" xlink:href="#DejaVuSans-30"/>
       <use x="190.869141" xlink:href="#DejaVuSans-30"/>
      </g>
     </g>
    </g>
    <g id="ytick_2">
     <g id="line2d_8">
      <g>
       <use style="stroke:#000000;stroke-width:0.8;" x="53.328125" xlink:href="#m8dd89831b7" y="188.178941"/>
      </g>
     </g>
     <g id="text_9">
      <!-- 4600 -->
      <g transform="translate(20.878125 191.97816)scale(0.1 -0.1)">
       <defs>
        <path d="M 2113 2584 
Q 1688 2584 1439 2293 
Q 1191 2003 1191 1497 
Q 1191 994 1439 701 
Q 1688 409 2113 409 
Q 2538 409 2786 701 
Q 3034 994 3034 1497 
Q 3034 2003 2786 2293 
Q 2538 2584 2113 2584 
z
M 3366 4563 
L 3366 3988 
Q 3128 4100 2886 4159 
Q 2644 4219 2406 4219 
Q 1781 4219 1451 3797 
Q 1122 3375 1075 2522 
Q 1259 2794 1537 2939 
Q 1816 3084 2150 3084 
Q 2853 3084 3261 2657 
Q 3669 2231 3669 1497 
Q 3669 778 3244 343 
Q 2819 -91 2113 -91 
Q 1303 -91 875 529 
Q 447 1150 447 2328 
Q 447 3434 972 4092 
Q 1497 4750 2381 4750 
Q 2619 4750 2861 4703 
Q 3103 4656 3366 4563 
z
" id="DejaVuSans-36" transform="scale(0.015625)"/>
       </defs>
       <use xlink:href="#DejaVuSans-34"/>
       <use x="63.623047" xlink:href="#DejaVuSans-36"/>
       <use x="127.246094" xlink:href="#DejaVuSans-30"/>
       <use x="190.869141" xlink:href="#DejaVuSans-30"/>
      </g>
     </g>
    </g>
    <g id="ytick_3">
     <g id="line2d_9">
      <g>
       <use style="stroke:#000000;stroke-width:0.8;" x="53.328125" xlink:href="#m8dd89831b7" y="133.762161"/>
      </g>
     </g>
     <g id="text_10">
      <!-- 4800 -->
      <g transform="translate(20.878125 137.561379)scale(0.1 -0.1)">
       <defs>
        <path d="M 2034 2216 
Q 1584 2216 1326 1975 
Q 1069 1734 1069 1313 
Q 1069 891 1326 650 
Q 1584 409 2034 409 
Q 2484 409 2743 651 
Q 3003 894 3003 1313 
Q 3003 1734 2745 1975 
Q 2488 2216 2034 2216 
z
M 1403 2484 
Q 997 2584 770 2862 
Q 544 3141 544 3541 
Q 544 4100 942 4425 
Q 1341 4750 2034 4750 
Q 2731 4750 3128 4425 
Q 3525 4100 3525 3541 
Q 3525 3141 3298 2862 
Q 3072 2584 2669 2484 
Q 3125 2378 3379 2068 
Q 3634 1759 3634 1313 
Q 3634 634 3220 271 
Q 2806 -91 2034 -91 
Q 1263 -91 848 271 
Q 434 634 434 1313 
Q 434 1759 690 2068 
Q 947 2378 1403 2484 
z
M 1172 3481 
Q 1172 3119 1398 2916 
Q 1625 2713 2034 2713 
Q 2441 2713 2670 2916 
Q 2900 3119 2900 3481 
Q 2900 3844 2670 4047 
Q 2441 4250 2034 4250 
Q 1625 4250 1398 4047 
Q 1172 3844 1172 3481 
z
" id="DejaVuSans-38" transform="scale(0.015625)"/>
       </defs>
       <use xlink:href="#DejaVuSans-34"/>
       <use x="63.623047" xlink:href="#DejaVuSans-38"/>
       <use x="127.246094" xlink:href="#DejaVuSans-30"/>
       <use x="190.869141" xlink:href="#DejaVuSans-30"/>
      </g>
     </g>
    </g>
    <g id="ytick_4">
     <g id="line2d_10">
      <g>
       <use style="stroke:#000000;stroke-width:0.8;" x="53.328125" xlink:href="#m8dd89831b7" y="79.34538"/>
      </g>
     </g>
     <g id="text_11">
      <!-- 5000 -->
      <g transform="translate(20.878125 83.144599)scale(0.1 -0.1)">
       <use xlink:href="#DejaVuSans-35"/>
       <use x="63.623047" xlink:href="#DejaVuSans-30"/>
       <use x="127.246094" xlink:href="#DejaVuSans-30"/>
       <use x="190.869141" xlink:href="#DejaVuSans-30"/>
      </g>
     </g>
    </g>
    <g id="ytick_5">
     <g id="line2d_11">
      <g>
       <use style="stroke:#000000;stroke-width:0.8;" x="53.328125" xlink:href="#m8dd89831b7" y="24.9286"/>
      </g>
     </g>
     <g id="text_12">
      <!-- 5200 -->
      <g transform="translate(20.878125 28.727819)scale(0.1 -0.1)">
       <use xlink:href="#DejaVuSans-35"/>
       <use x="63.623047" xlink:href="#DejaVuSans-32"/>
       <use x="127.246094" xlink:href="#DejaVuSans-30"/>
       <use x="190.869141" xlink:href="#DejaVuSans-30"/>
      </g>
     </g>
    </g>
    <g id="text_13">
     <!-- Code region coverage -->
     <g transform="translate(14.798438 210.379594)rotate(-90)scale(0.1 -0.1)">
      <defs>
       <path d="M 4122 4306 
L 4122 3641 
Q 3803 3938 3442 4084 
Q 3081 4231 2675 4231 
Q 1875 4231 1450 3742 
Q 1025 3253 1025 2328 
Q 1025 1406 1450 917 
Q 1875 428 2675 428 
Q 3081 428 3442 575 
Q 3803 722 4122 1019 
L 4122 359 
Q 3791 134 3420 21 
Q 3050 -91 2638 -91 
Q 1578 -91 968 557 
Q 359 1206 359 2328 
Q 359 3453 968 4101 
Q 1578 4750 2638 4750 
Q 3056 4750 3426 4639 
Q 3797 4528 4122 4306 
z
" id="DejaVuSans-43" transform="scale(0.015625)"/>
       <path d="M 2906 2969 
L 2906 4863 
L 3481 4863 
L 3481 0 
L 2906 0 
L 2906 525 
Q 2725 213 2448 61 
Q 2172 -91 1784 -91 
Q 1150 -91 751 415 
Q 353 922 353 1747 
Q 353 2572 751 3078 
Q 1150 3584 1784 3584 
Q 2172 3584 2448 3432 
Q 2725 3281 2906 2969 
z
M 947 1747 
Q 947 1113 1208 752 
Q 1469 391 1925 391 
Q 2381 391 2643 752 
Q 2906 1113 2906 1747 
Q 2906 2381 2643 2742 
Q 2381 3103 1925 3103 
Q 1469 3103 1208 2742 
Q 947 2381 947 1747 
z
" id="DejaVuSans-64" transform="scale(0.015625)"/>
       <path d="M 2906 1791 
Q 2906 2416 2648 2759 
Q 2391 3103 1925 3103 
Q 1463 3103 1205 2759 
Q 947 2416 947 1791 
Q 947 1169 1205 825 
Q 1463 481 1925 481 
Q 2391 481 2648 825 
Q 2906 1169 2906 1791 
z
M 3481 434 
Q 3481 -459 3084 -895 
Q 2688 -1331 1869 -1331 
Q 1566 -1331 1297 -1286 
Q 1028 -1241 775 -1147 
L 775 -588 
Q 1028 -725 1275 -790 
Q 1522 -856 1778 -856 
Q 2344 -856 2625 -561 
Q 2906 -266 2906 331 
L 2906 616 
Q 2728 306 2450 153 
Q 2172 0 1784 0 
Q 1141 0 747 490 
Q 353 981 353 1791 
Q 353 2603 747 3093 
Q 1141 3584 1784 3584 
Q 2172 3584 2450 3431 
Q 2728 3278 2906 2969 
L 2906 3500 
L 3481 3500 
L 3481 434 
z
" id="DejaVuSans-67" transform="scale(0.015625)"/>
       <path d="M 3122 3366 
L 3122 2828 
Q 2878 2963 2633 3030 
Q 2388 3097 2138 3097 
Q 1578 3097 1268 2742 
Q 959 2388 959 1747 
Q 959 1106 1268 751 
Q 1578 397 2138 397 
Q 2388 397 2633 464 
Q 2878 531 3122 666 
L 3122 134 
Q 2881 22 2623 -34 
Q 2366 -91 2075 -91 
Q 1284 -91 818 406 
Q 353 903 353 1747 
Q 353 2603 823 3093 
Q 1294 3584 2113 3584 
Q 2378 3584 2631 3529 
Q 2884 3475 3122 3366 
z
" id="DejaVuSans-63" transform="scale(0.015625)"/>
       <path d="M 191 3500 
L 800 3500 
L 1894 563 
L 2988 3500 
L 3597 3500 
L 2284 0 
L 1503 0 
L 191 3500 
z
" id="DejaVuSans-76" transform="scale(0.015625)"/>
       <path d="M 2194 1759 
Q 1497 1759 1228 1600 
Q 959 1441 959 1056 
Q 959 750 1161 570 
Q 1363 391 1709 391 
Q 2188 391 2477 730 
Q 2766 1069 2766 1631 
L 2766 1759 
L 2194 1759 
z
M 3341 1997 
L 3341 0 
L 2766 0 
L 2766 531 
Q 2569 213 2275 61 
Q 1981 -91 1556 -91 
Q 1019 -91 701 211 
Q 384 513 384 1019 
Q 384 1609 779 1909 
Q 1175 2209 1959 2209 
L 2766 2209 
L 2766 2266 
Q 2766 2663 2505 2880 
Q 2244 3097 1772 3097 
Q 1472 3097 1187 3025 
Q 903 2953 641 2809 
L 641 3341 
Q 956 3463 1253 3523 
Q 1550 3584 1831 3584 
Q 2591 3584 2966 3190 
Q 3341 2797 3341 1997 
z
" id="DejaVuSans-61" transform="scale(0.015625)"/>
      </defs>
      <use xlink:href="#DejaVuSans-43"/>
      <use x="69.824219" xlink:href="#DejaVuSans-6f"/>
      <use x="131.005859" xlink:href="#DejaVuSans-64"/>
      <use x="194.482422" xlink:href="#DejaVuSans-65"/>
      <use x="256.005859" xlink:href="#DejaVuSans-20"/>
      <use x="287.792969" xlink:href="#DejaVuSans-72"/>
      <use x="326.65625" xlink:href="#DejaVuSans-65"/>
      <use x="388.179688" xlink:href="#DejaVuSans-67"/>
      <use x="451.65625" xlink:href="#DejaVuSans-69"/>
      <use x="479.439453" xlink:href="#DejaVuSans-6f"/>
      <use x="540.621094" xlink:href="#DejaVuSans-6e"/>
      <use x="604" xlink:href="#DejaVuSans-20"/>
      <use x="635.787109" xlink:href="#DejaVuSans-63"/>
      <use x="690.767578" xlink:href="#DejaVuSans-6f"/>
      <use x="751.949219" xlink:href="#DejaVuSans-76"/>
      <use x="811.128906" xlink:href="#DejaVuSans-65"/>
      <use x="872.652344" xlink:href="#DejaVuSans-72"/>
      <use x="913.765625" xlink:href="#DejaVuSans-61"/>
      <use x="975.044922" xlink:href="#DejaVuSans-67"/>
      <use x="1038.521484" xlink:href="#DejaVuSans-65"/>
     </g>
    </g>
   </g>
   <g id="line2d_12">
    <path clip-path="url(#p7768a2cbf2)" d="M 69.560852 253.479077 
L 73.128485 239.05863 
L 76.696117 202.327304 
L 80.263749 197.973961 
L 83.831382 186.274354 
L 87.399014 176.887459 
L 90.966646 174.438704 
L 94.534279 166.548271 
L 98.101911 156.75325 
L 101.669544 152.263866 
L 105.237176 149.543027 
L 108.804808 147.910523 
L 112.372441 143.149055 
L 115.940073 143.013013 
L 119.507705 139.203839 
L 123.075338 137.027167 
L 126.64297 135.666748 
L 130.210603 135.12258 
L 133.778235 125.32756 
L 137.345867 124.783392 
L 140.9135 117.301085 
L 144.481132 115.804623 
L 148.048764 110.907113 
L 151.616397 112.675658 
L 155.184029 111.723365 
L 158.751661 108.186274 
L 162.319294 103.560848 
L 165.886926 100.159799 
L 169.454559 95.39833 
L 173.022191 97.847086 
L 176.589823 95.126247 
L 180.157456 93.493743 
L 183.725088 91.044988 
L 187.29272 88.324149 
L 190.860353 88.052065 
L 194.427985 80.7058 
L 197.995618 81.249968 
L 201.56325 78.801212 
L 205.130882 78.801212 
L 208.698515 77.168709 
L 212.266147 76.896625 
L 215.833779 76.896625 
L 219.401412 76.352457 
L 222.969044 76.216415 
L 226.536676 74.311828 
L 230.104309 74.992038 
L 233.671941 74.583912 
L 237.239574 71.999115 
L 240.807206 71.046821 
L 244.374838 70.094528 
L 247.942471 70.094528 
L 251.510103 70.094528 
L 255.077735 69.55036 
L 258.645368 68.462024 
L 262.213 67.101605 
L 265.780632 67.781814 
L 269.348265 65.469101 
L 272.915897 65.469101 
L 276.48353 64.380766 
L 280.051162 65.060975 
L 283.618794 62.068053 
L 287.186427 64.380766 
L 290.754059 60.843675 
L 294.321691 60.843675 
L 297.889324 59.891381 
L 301.456956 60.571591 
L 305.024589 61.523885 
L 308.592221 57.986794 
L 312.159853 55.265955 
L 315.727486 52.953242 
L 319.295118 52.953242 
L 322.86275 52.409074 
L 326.430383 52.409074 
L 329.998015 52.8172 
L 333.565647 52.409074 
L 337.13328 52.8172 
L 340.700912 52.953242 
L 344.268545 52.409074 
L 347.836177 52.409074 
L 351.403809 52.409074 
L 354.971442 52.409074 
L 358.539074 52.681158 
L 362.106706 52.409074 
L 365.674339 52.409074 
L 369.241971 52.681158 
L 372.809604 51.048655 
L 376.377236 52.13699 
L 379.944868 49.552193 
L 383.512501 48.327816 
L 387.080133 48.055732 
L 390.647765 48.055732 
L 394.215398 43.566347 
" style="fill:none;stroke:#98df8a;stroke-linecap:square;stroke-width:1.5;"/>
    <defs>
     <path d="M -0 3 
L 3 -3 
L -3 -3 
z
" id="mbb0ddb8c82" style="stroke:#ffffff;stroke-linejoin:miter;stroke-width:0.75;"/>
    </defs>
    <g clip-path="url(#p7768a2cbf2)">
     <use style="fill:#98df8a;stroke:#ffffff;stroke-linejoin:miter;stroke-width:0.75;" x="69.560852" xlink:href="#mbb0ddb8c82" y="253.479077"/>
     <use style="fill:#98df8a;stroke:#ffffff;stroke-linejoin:miter;stroke-width:0.75;" x="73.128485" xlink:href="#mbb0ddb8c82" y="239.05863"/>
     <use style="fill:#98df8a;stroke:#ffffff;stroke-linejoin:miter;stroke-width:0.75;" x="76.696117" xlink:href="#mbb0ddb8c82" y="202.327304"/>
     <use style="fill:#98df8a;stroke:#ffffff;stroke-linejoin:miter;stroke-width:0.75;" x="80.263749" xlink:href="#mbb0ddb8c82" y="197.973961"/>
     <use style="fill:#98df8a;stroke:#ffffff;stroke-linejoin:miter;stroke-width:0.75;" x="83.831382" xlink:href="#mbb0ddb8c82" y="186.274354"/>
     <use style="fill:#98df8a;stroke:#ffffff;stroke-linejoin:miter;stroke-width:0.75;" x="87.399014" xlink:href="#mbb0ddb8c82" y="176.887459"/>
     <use style="fill:#98df8a;stroke:#ffffff;stroke-linejoin:miter;stroke-width:0.75;" x="90.966646" xlink:href="#mbb0ddb8c82" y="174.438704"/>
     <use style="fill:#98df8a;stroke:#ffffff;stroke-linejoin:miter;stroke-width:0.75;" x="94.534279" xlink:href="#mbb0ddb8c82" y="166.548271"/>
     <use style="fill:#98df8a;stroke:#ffffff;stroke-linejoin:miter;stroke-width:0.75;" x="98.101911" xlink:href="#mbb0ddb8c82" y="156.75325"/>
     <use style="fill:#98df8a;stroke:#ffffff;stroke-linejoin:miter;stroke-width:0.75;" x="101.669544" xlink:href="#mbb0ddb8c82" y="152.263866"/>
     <use style="fill:#98df8a;stroke:#ffffff;stroke-linejoin:miter;stroke-width:0.75;" x="105.237176" xlink:href="#mbb0ddb8c82" y="149.543027"/>
     <use style="fill:#98df8a;stroke:#ffffff;stroke-linejoin:miter;stroke-width:0.75;" x="108.804808" xlink:href="#mbb0ddb8c82" y="147.910523"/>
     <use style="fill:#98df8a;stroke:#ffffff;stroke-linejoin:miter;stroke-width:0.75;" x="112.372441" xlink:href="#mbb0ddb8c82" y="143.149055"/>
     <use style="fill:#98df8a;stroke:#ffffff;stroke-linejoin:miter;stroke-width:0.75;" x="115.940073" xlink:href="#mbb0ddb8c82" y="143.013013"/>
     <use style="fill:#98df8a;stroke:#ffffff;stroke-linejoin:miter;stroke-width:0.75;" x="119.507705" xlink:href="#mbb0ddb8c82" y="139.203839"/>
     <use style="fill:#98df8a;stroke:#ffffff;stroke-linejoin:miter;stroke-width:0.75;" x="123.075338" xlink:href="#mbb0ddb8c82" y="137.027167"/>
     <use style="fill:#98df8a;stroke:#ffffff;stroke-linejoin:miter;stroke-width:0.75;" x="126.64297" xlink:href="#mbb0ddb8c82" y="135.666748"/>
     <use style="fill:#98df8a;stroke:#ffffff;stroke-linejoin:miter;stroke-width:0.75;" x="130.210603" xlink:href="#mbb0ddb8c82" y="135.12258"/>
     <use style="fill:#98df8a;stroke:#ffffff;stroke-linejoin:miter;stroke-width:0.75;" x="133.778235" xlink:href="#mbb0ddb8c82" y="125.32756"/>
     <use style="fill:#98df8a;stroke:#ffffff;stroke-linejoin:miter;stroke-width:0.75;" x="137.345867" xlink:href="#mbb0ddb8c82" y="124.783392"/>
     <use style="fill:#98df8a;stroke:#ffffff;stroke-linejoin:miter;stroke-width:0.75;" x="140.9135" xlink:href="#mbb0ddb8c82" y="117.301085"/>
     <use style="fill:#98df8a;stroke:#ffffff;stroke-linejoin:miter;stroke-width:0.75;" x="144.481132" xlink:href="#mbb0ddb8c82" y="115.804623"/>
     <use style="fill:#98df8a;stroke:#ffffff;stroke-linejoin:miter;stroke-width:0.75;" x="148.048764" xlink:href="#mbb0ddb8c82" y="110.907113"/>
     <use style="fill:#98df8a;stroke:#ffffff;stroke-linejoin:miter;stroke-width:0.75;" x="151.616397" xlink:href="#mbb0ddb8c82" y="112.675658"/>
     <use style="fill:#98df8a;stroke:#ffffff;stroke-linejoin:miter;stroke-width:0.75;" x="155.184029" xlink:href="#mbb0ddb8c82" y="111.723365"/>
     <use style="fill:#98df8a;stroke:#ffffff;stroke-linejoin:miter;stroke-width:0.75;" x="158.751661" xlink:href="#mbb0ddb8c82" y="108.186274"/>
     <use style="fill:#98df8a;stroke:#ffffff;stroke-linejoin:miter;stroke-width:0.75;" x="162.319294" xlink:href="#mbb0ddb8c82" y="103.560848"/>
     <use style="fill:#98df8a;stroke:#ffffff;stroke-linejoin:miter;stroke-width:0.75;" x="165.886926" xlink:href="#mbb0ddb8c82" y="100.159799"/>
     <use style="fill:#98df8a;stroke:#ffffff;stroke-linejoin:miter;stroke-width:0.75;" x="169.454559" xlink:href="#mbb0ddb8c82" y="95.39833"/>
     <use style="fill:#98df8a;stroke:#ffffff;stroke-linejoin:miter;stroke-width:0.75;" x="173.022191" xlink:href="#mbb0ddb8c82" y="97.847086"/>
     <use style="fill:#98df8a;stroke:#ffffff;stroke-linejoin:miter;stroke-width:0.75;" x="176.589823" xlink:href="#mbb0ddb8c82" y="95.126247"/>
     <use style="fill:#98df8a;stroke:#ffffff;stroke-linejoin:miter;stroke-width:0.75;" x="180.157456" xlink:href="#mbb0ddb8c82" y="93.493743"/>
     <use style="fill:#98df8a;stroke:#ffffff;stroke-linejoin:miter;stroke-width:0.75;" x="183.725088" xlink:href="#mbb0ddb8c82" y="91.044988"/>
     <use style="fill:#98df8a;stroke:#ffffff;stroke-linejoin:miter;stroke-width:0.75;" x="187.29272" xlink:href="#mbb0ddb8c82" y="88.324149"/>
     <use style="fill:#98df8a;stroke:#ffffff;stroke-linejoin:miter;stroke-width:0.75;" x="190.860353" xlink:href="#mbb0ddb8c82" y="88.052065"/>
     <use style="fill:#98df8a;stroke:#ffffff;stroke-linejoin:miter;stroke-width:0.75;" x="194.427985" xlink:href="#mbb0ddb8c82" y="80.7058"/>
     <use style="fill:#98df8a;stroke:#ffffff;stroke-linejoin:miter;stroke-width:0.75;" x="197.995618" xlink:href="#mbb0ddb8c82" y="81.249968"/>
     <use style="fill:#98df8a;stroke:#ffffff;stroke-linejoin:miter;stroke-width:0.75;" x="201.56325" xlink:href="#mbb0ddb8c82" y="78.801212"/>
     <use style="fill:#98df8a;stroke:#ffffff;stroke-linejoin:miter;stroke-width:0.75;" x="205.130882" xlink:href="#mbb0ddb8c82" y="78.801212"/>
     <use style="fill:#98df8a;stroke:#ffffff;stroke-linejoin:miter;stroke-width:0.75;" x="208.698515" xlink:href="#mbb0ddb8c82" y="77.168709"/>
     <use style="fill:#98df8a;stroke:#ffffff;stroke-linejoin:miter;stroke-width:0.75;" x="212.266147" xlink:href="#mbb0ddb8c82" y="76.896625"/>
     <use style="fill:#98df8a;stroke:#ffffff;stroke-linejoin:miter;stroke-width:0.75;" x="215.833779" xlink:href="#mbb0ddb8c82" y="76.896625"/>
     <use style="fill:#98df8a;stroke:#ffffff;stroke-linejoin:miter;stroke-width:0.75;" x="219.401412" xlink:href="#mbb0ddb8c82" y="76.352457"/>
     <use style="fill:#98df8a;stroke:#ffffff;stroke-linejoin:miter;stroke-width:0.75;" x="222.969044" xlink:href="#mbb0ddb8c82" y="76.216415"/>
     <use style="fill:#98df8a;stroke:#ffffff;stroke-linejoin:miter;stroke-width:0.75;" x="226.536676" xlink:href="#mbb0ddb8c82" y="74.311828"/>
     <use style="fill:#98df8a;stroke:#ffffff;stroke-linejoin:miter;stroke-width:0.75;" x="230.104309" xlink:href="#mbb0ddb8c82" y="74.992038"/>
     <use style="fill:#98df8a;stroke:#ffffff;stroke-linejoin:miter;stroke-width:0.75;" x="233.671941" xlink:href="#mbb0ddb8c82" y="74.583912"/>
     <use style="fill:#98df8a;stroke:#ffffff;stroke-linejoin:miter;stroke-width:0.75;" x="237.239574" xlink:href="#mbb0ddb8c82" y="71.999115"/>
     <use style="fill:#98df8a;stroke:#ffffff;stroke-linejoin:miter;stroke-width:0.75;" x="240.807206" xlink:href="#mbb0ddb8c82" y="71.046821"/>
     <use style="fill:#98df8a;stroke:#ffffff;stroke-linejoin:miter;stroke-width:0.75;" x="244.374838" xlink:href="#mbb0ddb8c82" y="70.094528"/>
     <use style="fill:#98df8a;stroke:#ffffff;stroke-linejoin:miter;stroke-width:0.75;" x="247.942471" xlink:href="#mbb0ddb8c82" y="70.094528"/>
     <use style="fill:#98df8a;stroke:#ffffff;stroke-linejoin:miter;stroke-width:0.75;" x="251.510103" xlink:href="#mbb0ddb8c82" y="70.094528"/>
     <use style="fill:#98df8a;stroke:#ffffff;stroke-linejoin:miter;stroke-width:0.75;" x="255.077735" xlink:href="#mbb0ddb8c82" y="69.55036"/>
     <use style="fill:#98df8a;stroke:#ffffff;stroke-linejoin:miter;stroke-width:0.75;" x="258.645368" xlink:href="#mbb0ddb8c82" y="68.462024"/>
     <use style="fill:#98df8a;stroke:#ffffff;stroke-linejoin:miter;stroke-width:0.75;" x="262.213" xlink:href="#mbb0ddb8c82" y="67.101605"/>
     <use style="fill:#98df8a;stroke:#ffffff;stroke-linejoin:miter;stroke-width:0.75;" x="265.780632" xlink:href="#mbb0ddb8c82" y="67.781814"/>
     <use style="fill:#98df8a;stroke:#ffffff;stroke-linejoin:miter;stroke-width:0.75;" x="269.348265" xlink:href="#mbb0ddb8c82" y="65.469101"/>
     <use style="fill:#98df8a;stroke:#ffffff;stroke-linejoin:miter;stroke-width:0.75;" x="272.915897" xlink:href="#mbb0ddb8c82" y="65.469101"/>
     <use style="fill:#98df8a;stroke:#ffffff;stroke-linejoin:miter;stroke-width:0.75;" x="276.48353" xlink:href="#mbb0ddb8c82" y="64.380766"/>
     <use style="fill:#98df8a;stroke:#ffffff;stroke-linejoin:miter;stroke-width:0.75;" x="280.051162" xlink:href="#mbb0ddb8c82" y="65.060975"/>
     <use style="fill:#98df8a;stroke:#ffffff;stroke-linejoin:miter;stroke-width:0.75;" x="283.618794" xlink:href="#mbb0ddb8c82" y="62.068053"/>
     <use style="fill:#98df8a;stroke:#ffffff;stroke-linejoin:miter;stroke-width:0.75;" x="287.186427" xlink:href="#mbb0ddb8c82" y="64.380766"/>
     <use style="fill:#98df8a;stroke:#ffffff;stroke-linejoin:miter;stroke-width:0.75;" x="290.754059" xlink:href="#mbb0ddb8c82" y="60.843675"/>
     <use style="fill:#98df8a;stroke:#ffffff;stroke-linejoin:miter;stroke-width:0.75;" x="294.321691" xlink:href="#mbb0ddb8c82" y="60.843675"/>
     <use style="fill:#98df8a;stroke:#ffffff;stroke-linejoin:miter;stroke-width:0.75;" x="297.889324" xlink:href="#mbb0ddb8c82" y="59.891381"/>
     <use style="fill:#98df8a;stroke:#ffffff;stroke-linejoin:miter;stroke-width:0.75;" x="301.456956" xlink:href="#mbb0ddb8c82" y="60.571591"/>
     <use style="fill:#98df8a;stroke:#ffffff;stroke-linejoin:miter;stroke-width:0.75;" x="305.024589" xlink:href="#mbb0ddb8c82" y="61.523885"/>
     <use style="fill:#98df8a;stroke:#ffffff;stroke-linejoin:miter;stroke-width:0.75;" x="308.592221" xlink:href="#mbb0ddb8c82" y="57.986794"/>
     <use style="fill:#98df8a;stroke:#ffffff;stroke-linejoin:miter;stroke-width:0.75;" x="312.159853" xlink:href="#mbb0ddb8c82" y="55.265955"/>
     <use style="fill:#98df8a;stroke:#ffffff;stroke-linejoin:miter;stroke-width:0.75;" x="315.727486" xlink:href="#mbb0ddb8c82" y="52.953242"/>
     <use style="fill:#98df8a;stroke:#ffffff;stroke-linejoin:miter;stroke-width:0.75;" x="319.295118" xlink:href="#mbb0ddb8c82" y="52.953242"/>
     <use style="fill:#98df8a;stroke:#ffffff;stroke-linejoin:miter;stroke-width:0.75;" x="322.86275" xlink:href="#mbb0ddb8c82" y="52.409074"/>
     <use style="fill:#98df8a;stroke:#ffffff;stroke-linejoin:miter;stroke-width:0.75;" x="326.430383" xlink:href="#mbb0ddb8c82" y="52.409074"/>
     <use style="fill:#98df8a;stroke:#ffffff;stroke-linejoin:miter;stroke-width:0.75;" x="329.998015" xlink:href="#mbb0ddb8c82" y="52.8172"/>
     <use style="fill:#98df8a;stroke:#ffffff;stroke-linejoin:miter;stroke-width:0.75;" x="333.565647" xlink:href="#mbb0ddb8c82" y="52.409074"/>
     <use style="fill:#98df8a;stroke:#ffffff;stroke-linejoin:miter;stroke-width:0.75;" x="337.13328" xlink:href="#mbb0ddb8c82" y="52.8172"/>
     <use style="fill:#98df8a;stroke:#ffffff;stroke-linejoin:miter;stroke-width:0.75;" x="340.700912" xlink:href="#mbb0ddb8c82" y="52.953242"/>
     <use style="fill:#98df8a;stroke:#ffffff;stroke-linejoin:miter;stroke-width:0.75;" x="344.268545" xlink:href="#mbb0ddb8c82" y="52.409074"/>
     <use style="fill:#98df8a;stroke:#ffffff;stroke-linejoin:miter;stroke-width:0.75;" x="347.836177" xlink:href="#mbb0ddb8c82" y="52.409074"/>
     <use style="fill:#98df8a;stroke:#ffffff;stroke-linejoin:miter;stroke-width:0.75;" x="351.403809" xlink:href="#mbb0ddb8c82" y="52.409074"/>
     <use style="fill:#98df8a;stroke:#ffffff;stroke-linejoin:miter;stroke-width:0.75;" x="354.971442" xlink:href="#mbb0ddb8c82" y="52.409074"/>
     <use style="fill:#98df8a;stroke:#ffffff;stroke-linejoin:miter;stroke-width:0.75;" x="358.539074" xlink:href="#mbb0ddb8c82" y="52.681158"/>
     <use style="fill:#98df8a;stroke:#ffffff;stroke-linejoin:miter;stroke-width:0.75;" x="362.106706" xlink:href="#mbb0ddb8c82" y="52.409074"/>
     <use style="fill:#98df8a;stroke:#ffffff;stroke-linejoin:miter;stroke-width:0.75;" x="365.674339" xlink:href="#mbb0ddb8c82" y="52.409074"/>
     <use style="fill:#98df8a;stroke:#ffffff;stroke-linejoin:miter;stroke-width:0.75;" x="369.241971" xlink:href="#mbb0ddb8c82" y="52.681158"/>
     <use style="fill:#98df8a;stroke:#ffffff;stroke-linejoin:miter;stroke-width:0.75;" x="372.809604" xlink:href="#mbb0ddb8c82" y="51.048655"/>
     <use style="fill:#98df8a;stroke:#ffffff;stroke-linejoin:miter;stroke-width:0.75;" x="376.377236" xlink:href="#mbb0ddb8c82" y="52.13699"/>
     <use style="fill:#98df8a;stroke:#ffffff;stroke-linejoin:miter;stroke-width:0.75;" x="379.944868" xlink:href="#mbb0ddb8c82" y="49.552193"/>
     <use style="fill:#98df8a;stroke:#ffffff;stroke-linejoin:miter;stroke-width:0.75;" x="383.512501" xlink:href="#mbb0ddb8c82" y="48.327816"/>
     <use style="fill:#98df8a;stroke:#ffffff;stroke-linejoin:miter;stroke-width:0.75;" x="387.080133" xlink:href="#mbb0ddb8c82" y="48.055732"/>
     <use style="fill:#98df8a;stroke:#ffffff;stroke-linejoin:miter;stroke-width:0.75;" x="390.647765" xlink:href="#mbb0ddb8c82" y="48.055732"/>
     <use style="fill:#98df8a;stroke:#ffffff;stroke-linejoin:miter;stroke-width:0.75;" x="394.215398" xlink:href="#mbb0ddb8c82" y="43.566347"/>
    </g>
   </g>
   <g id="line2d_13">
    <path clip-path="url(#p7768a2cbf2)" d="M 69.560852 253.615119 
L 73.128485 230.351946 
L 76.696117 211.85024 
L 80.263749 207.496898 
L 83.831382 196.749584 
L 87.399014 182.737263 
L 90.966646 183.281431 
L 94.534279 170.493487 
L 98.101911 164.3716 
L 101.669544 160.698467 
L 105.237176 153.080118 
L 108.804808 149.406985 
L 112.372441 148.726775 
L 115.940073 146.27802 
L 119.507705 142.332803 
L 123.075338 142.06072 
L 126.64297 139.067797 
L 130.210603 138.931755 
L 133.778235 132.809867 
L 137.345867 134.034244 
L 140.9135 125.735686 
L 144.481132 124.919434 
L 148.048764 121.790469 
L 151.616397 120.566091 
L 155.184029 118.525462 
L 158.751661 114.17212 
L 162.319294 115.260455 
L 165.886926 114.716287 
L 169.454559 112.539616 
L 173.022191 109.002526 
L 176.589823 108.322316 
L 180.157456 105.465435 
L 183.725088 104.105015 
L 187.29272 104.105015 
L 190.860353 104.105015 
L 194.427985 101.65626 
L 197.995618 101.928344 
L 201.56325 96.622708 
L 205.130882 94.037911 
L 208.698515 93.357701 
L 212.266147 93.357701 
L 215.833779 90.228736 
L 219.401412 89.004359 
L 222.969044 88.868317 
L 226.536676 87.779981 
L 230.104309 86.28352 
L 233.671941 85.60331 
L 237.239574 83.154555 
L 240.807206 81.522052 
L 244.374838 81.522052 
L 247.942471 80.977884 
L 251.510103 79.073296 
L 255.077735 77.168709 
L 258.645368 76.896625 
L 262.213 73.903702 
L 265.780632 75.12808 
L 269.348265 73.76766 
L 272.915897 72.407241 
L 276.48353 72.407241 
L 280.051162 72.543283 
L 283.618794 72.271199 
L 287.186427 70.910779 
L 290.754059 71.182863 
L 294.321691 70.094528 
L 297.889324 68.87015 
L 301.456956 68.734108 
L 305.024589 66.965563 
L 308.592221 66.557437 
L 312.159853 66.829521 
L 315.727486 66.557437 
L 319.295118 66.421395 
L 322.86275 66.557437 
L 326.430383 66.557437 
L 329.998015 66.285353 
L 333.565647 66.285353 
L 337.13328 66.013269 
L 340.700912 61.659927 
L 344.268545 61.523885 
L 347.836177 61.659927 
L 351.403809 61.659927 
L 354.971442 61.115759 
L 358.539074 60.843675 
L 362.106706 60.843675 
L 365.674339 60.843675 
L 369.241971 60.843675 
L 372.809604 54.313661 
L 376.377236 54.313661 
L 379.944868 53.769494 
L 383.512501 57.578668 
L 387.080133 54.313661 
L 390.647765 54.313661 
L 394.215398 54.313661 
" style="fill:none;stroke:#1f77b4;stroke-linecap:square;stroke-width:1.5;"/>
    <defs>
     <path d="M 0 3 
C 0.795609 3 1.55874 2.683901 2.12132 2.12132 
C 2.683901 1.55874 3 0.795609 3 0 
C 3 -0.795609 2.683901 -1.55874 2.12132 -2.12132 
C 1.55874 -2.683901 0.795609 -3 0 -3 
C -0.795609 -3 -1.55874 -2.683901 -2.12132 -2.12132 
C -2.683901 -1.55874 -3 -0.795609 -3 0 
C -3 0.795609 -2.683901 1.55874 -2.12132 2.12132 
C -1.55874 2.683901 -0.795609 3 0 3 
z
" id="m362edc62dd" style="stroke:#ffffff;stroke-width:0.75;"/>
    </defs>
    <g clip-path="url(#p7768a2cbf2)">
     <use style="fill:#1f77b4;stroke:#ffffff;stroke-width:0.75;" x="69.560852" xlink:href="#m362edc62dd" y="253.615119"/>
     <use style="fill:#1f77b4;stroke:#ffffff;stroke-width:0.75;" x="73.128485" xlink:href="#m362edc62dd" y="230.351946"/>
     <use style="fill:#1f77b4;stroke:#ffffff;stroke-width:0.75;" x="76.696117" xlink:href="#m362edc62dd" y="211.85024"/>
     <use style="fill:#1f77b4;stroke:#ffffff;stroke-width:0.75;" x="80.263749" xlink:href="#m362edc62dd" y="207.496898"/>
     <use style="fill:#1f77b4;stroke:#ffffff;stroke-width:0.75;" x="83.831382" xlink:href="#m362edc62dd" y="196.749584"/>
     <use style="fill:#1f77b4;stroke:#ffffff;stroke-width:0.75;" x="87.399014" xlink:href="#m362edc62dd" y="182.737263"/>
     <use style="fill:#1f77b4;stroke:#ffffff;stroke-width:0.75;" x="90.966646" xlink:href="#m362edc62dd" y="183.281431"/>
     <use style="fill:#1f77b4;stroke:#ffffff;stroke-width:0.75;" x="94.534279" xlink:href="#m362edc62dd" y="170.493487"/>
     <use style="fill:#1f77b4;stroke:#ffffff;stroke-width:0.75;" x="98.101911" xlink:href="#m362edc62dd" y="164.3716"/>
     <use style="fill:#1f77b4;stroke:#ffffff;stroke-width:0.75;" x="101.669544" xlink:href="#m362edc62dd" y="160.698467"/>
     <use style="fill:#1f77b4;stroke:#ffffff;stroke-width:0.75;" x="105.237176" xlink:href="#m362edc62dd" y="153.080118"/>
     <use style="fill:#1f77b4;stroke:#ffffff;stroke-width:0.75;" x="108.804808" xlink:href="#m362edc62dd" y="149.406985"/>
     <use style="fill:#1f77b4;stroke:#ffffff;stroke-width:0.75;" x="112.372441" xlink:href="#m362edc62dd" y="148.726775"/>
     <use style="fill:#1f77b4;stroke:#ffffff;stroke-width:0.75;" x="115.940073" xlink:href="#m362edc62dd" y="146.27802"/>
     <use style="fill:#1f77b4;stroke:#ffffff;stroke-width:0.75;" x="119.507705" xlink:href="#m362edc62dd" y="142.332803"/>
     <use style="fill:#1f77b4;stroke:#ffffff;stroke-width:0.75;" x="123.075338" xlink:href="#m362edc62dd" y="142.06072"/>
     <use style="fill:#1f77b4;stroke:#ffffff;stroke-width:0.75;" x="126.64297" xlink:href="#m362edc62dd" y="139.067797"/>
     <use style="fill:#1f77b4;stroke:#ffffff;stroke-width:0.75;" x="130.210603" xlink:href="#m362edc62dd" y="138.931755"/>
     <use style="fill:#1f77b4;stroke:#ffffff;stroke-width:0.75;" x="133.778235" xlink:href="#m362edc62dd" y="132.809867"/>
     <use style="fill:#1f77b4;stroke:#ffffff;stroke-width:0.75;" x="137.345867" xlink:href="#m362edc62dd" y="134.034244"/>
     <use style="fill:#1f77b4;stroke:#ffffff;stroke-width:0.75;" x="140.9135" xlink:href="#m362edc62dd" y="125.735686"/>
     <use style="fill:#1f77b4;stroke:#ffffff;stroke-width:0.75;" x="144.481132" xlink:href="#m362edc62dd" y="124.919434"/>
     <use style="fill:#1f77b4;stroke:#ffffff;stroke-width:0.75;" x="148.048764" xlink:href="#m362edc62dd" y="121.790469"/>
     <use style="fill:#1f77b4;stroke:#ffffff;stroke-width:0.75;" x="151.616397" xlink:href="#m362edc62dd" y="120.566091"/>
     <use style="fill:#1f77b4;stroke:#ffffff;stroke-width:0.75;" x="155.184029" xlink:href="#m362edc62dd" y="118.525462"/>
     <use style="fill:#1f77b4;stroke:#ffffff;stroke-width:0.75;" x="158.751661" xlink:href="#m362edc62dd" y="114.17212"/>
     <use style="fill:#1f77b4;stroke:#ffffff;stroke-width:0.75;" x="162.319294" xlink:href="#m362edc62dd" y="115.260455"/>
     <use style="fill:#1f77b4;stroke:#ffffff;stroke-width:0.75;" x="165.886926" xlink:href="#m362edc62dd" y="114.716287"/>
     <use style="fill:#1f77b4;stroke:#ffffff;stroke-width:0.75;" x="169.454559" xlink:href="#m362edc62dd" y="112.539616"/>
     <use style="fill:#1f77b4;stroke:#ffffff;stroke-width:0.75;" x="173.022191" xlink:href="#m362edc62dd" y="109.002526"/>
     <use style="fill:#1f77b4;stroke:#ffffff;stroke-width:0.75;" x="176.589823" xlink:href="#m362edc62dd" y="108.322316"/>
     <use style="fill:#1f77b4;stroke:#ffffff;stroke-width:0.75;" x="180.157456" xlink:href="#m362edc62dd" y="105.465435"/>
     <use style="fill:#1f77b4;stroke:#ffffff;stroke-width:0.75;" x="183.725088" xlink:href="#m362edc62dd" y="104.105015"/>
     <use style="fill:#1f77b4;stroke:#ffffff;stroke-width:0.75;" x="187.29272" xlink:href="#m362edc62dd" y="104.105015"/>
     <use style="fill:#1f77b4;stroke:#ffffff;stroke-width:0.75;" x="190.860353" xlink:href="#m362edc62dd" y="104.105015"/>
     <use style="fill:#1f77b4;stroke:#ffffff;stroke-width:0.75;" x="194.427985" xlink:href="#m362edc62dd" y="101.65626"/>
     <use style="fill:#1f77b4;stroke:#ffffff;stroke-width:0.75;" x="197.995618" xlink:href="#m362edc62dd" y="101.928344"/>
     <use style="fill:#1f77b4;stroke:#ffffff;stroke-width:0.75;" x="201.56325" xlink:href="#m362edc62dd" y="96.622708"/>
     <use style="fill:#1f77b4;stroke:#ffffff;stroke-width:0.75;" x="205.130882" xlink:href="#m362edc62dd" y="94.037911"/>
     <use style="fill:#1f77b4;stroke:#ffffff;stroke-width:0.75;" x="208.698515" xlink:href="#m362edc62dd" y="93.357701"/>
     <use style="fill:#1f77b4;stroke:#ffffff;stroke-width:0.75;" x="212.266147" xlink:href="#m362edc62dd" y="93.357701"/>
     <use style="fill:#1f77b4;stroke:#ffffff;stroke-width:0.75;" x="215.833779" xlink:href="#m362edc62dd" y="90.228736"/>
     <use style="fill:#1f77b4;stroke:#ffffff;stroke-width:0.75;" x="219.401412" xlink:href="#m362edc62dd" y="89.004359"/>
     <use style="fill:#1f77b4;stroke:#ffffff;stroke-width:0.75;" x="222.969044" xlink:href="#m362edc62dd" y="88.868317"/>
     <use style="fill:#1f77b4;stroke:#ffffff;stroke-width:0.75;" x="226.536676" xlink:href="#m362edc62dd" y="87.779981"/>
     <use style="fill:#1f77b4;stroke:#ffffff;stroke-width:0.75;" x="230.104309" xlink:href="#m362edc62dd" y="86.28352"/>
     <use style="fill:#1f77b4;stroke:#ffffff;stroke-width:0.75;" x="233.671941" xlink:href="#m362edc62dd" y="85.60331"/>
     <use style="fill:#1f77b4;stroke:#ffffff;stroke-width:0.75;" x="237.239574" xlink:href="#m362edc62dd" y="83.154555"/>
     <use style="fill:#1f77b4;stroke:#ffffff;stroke-width:0.75;" x="240.807206" xlink:href="#m362edc62dd" y="81.522052"/>
     <use style="fill:#1f77b4;stroke:#ffffff;stroke-width:0.75;" x="244.374838" xlink:href="#m362edc62dd" y="81.522052"/>
     <use style="fill:#1f77b4;stroke:#ffffff;stroke-width:0.75;" x="247.942471" xlink:href="#m362edc62dd" y="80.977884"/>
     <use style="fill:#1f77b4;stroke:#ffffff;stroke-width:0.75;" x="251.510103" xlink:href="#m362edc62dd" y="79.073296"/>
     <use style="fill:#1f77b4;stroke:#ffffff;stroke-width:0.75;" x="255.077735" xlink:href="#m362edc62dd" y="77.168709"/>
     <use style="fill:#1f77b4;stroke:#ffffff;stroke-width:0.75;" x="258.645368" xlink:href="#m362edc62dd" y="76.896625"/>
     <use style="fill:#1f77b4;stroke:#ffffff;stroke-width:0.75;" x="262.213" xlink:href="#m362edc62dd" y="73.903702"/>
     <use style="fill:#1f77b4;stroke:#ffffff;stroke-width:0.75;" x="265.780632" xlink:href="#m362edc62dd" y="75.12808"/>
     <use style="fill:#1f77b4;stroke:#ffffff;stroke-width:0.75;" x="269.348265" xlink:href="#m362edc62dd" y="73.76766"/>
     <use style="fill:#1f77b4;stroke:#ffffff;stroke-width:0.75;" x="272.915897" xlink:href="#m362edc62dd" y="72.407241"/>
     <use style="fill:#1f77b4;stroke:#ffffff;stroke-width:0.75;" x="276.48353" xlink:href="#m362edc62dd" y="72.407241"/>
     <use style="fill:#1f77b4;stroke:#ffffff;stroke-width:0.75;" x="280.051162" xlink:href="#m362edc62dd" y="72.543283"/>
     <use style="fill:#1f77b4;stroke:#ffffff;stroke-width:0.75;" x="283.618794" xlink:href="#m362edc62dd" y="72.271199"/>
     <use style="fill:#1f77b4;stroke:#ffffff;stroke-width:0.75;" x="287.186427" xlink:href="#m362edc62dd" y="70.910779"/>
     <use style="fill:#1f77b4;stroke:#ffffff;stroke-width:0.75;" x="290.754059" xlink:href="#m362edc62dd" y="71.182863"/>
     <use style="fill:#1f77b4;stroke:#ffffff;stroke-width:0.75;" x="294.321691" xlink:href="#m362edc62dd" y="70.094528"/>
     <use style="fill:#1f77b4;stroke:#ffffff;stroke-width:0.75;" x="297.889324" xlink:href="#m362edc62dd" y="68.87015"/>
     <use style="fill:#1f77b4;stroke:#ffffff;stroke-width:0.75;" x="301.456956" xlink:href="#m362edc62dd" y="68.734108"/>
     <use style="fill:#1f77b4;stroke:#ffffff;stroke-width:0.75;" x="305.024589" xlink:href="#m362edc62dd" y="66.965563"/>
     <use style="fill:#1f77b4;stroke:#ffffff;stroke-width:0.75;" x="308.592221" xlink:href="#m362edc62dd" y="66.557437"/>
     <use style="fill:#1f77b4;stroke:#ffffff;stroke-width:0.75;" x="312.159853" xlink:href="#m362edc62dd" y="66.829521"/>
     <use style="fill:#1f77b4;stroke:#ffffff;stroke-width:0.75;" x="315.727486" xlink:href="#m362edc62dd" y="66.557437"/>
     <use style="fill:#1f77b4;stroke:#ffffff;stroke-width:0.75;" x="319.295118" xlink:href="#m362edc62dd" y="66.421395"/>
     <use style="fill:#1f77b4;stroke:#ffffff;stroke-width:0.75;" x="322.86275" xlink:href="#m362edc62dd" y="66.557437"/>
     <use style="fill:#1f77b4;stroke:#ffffff;stroke-width:0.75;" x="326.430383" xlink:href="#m362edc62dd" y="66.557437"/>
     <use style="fill:#1f77b4;stroke:#ffffff;stroke-width:0.75;" x="329.998015" xlink:href="#m362edc62dd" y="66.285353"/>
     <use style="fill:#1f77b4;stroke:#ffffff;stroke-width:0.75;" x="333.565647" xlink:href="#m362edc62dd" y="66.285353"/>
     <use style="fill:#1f77b4;stroke:#ffffff;stroke-width:0.75;" x="337.13328" xlink:href="#m362edc62dd" y="66.013269"/>
     <use style="fill:#1f77b4;stroke:#ffffff;stroke-width:0.75;" x="340.700912" xlink:href="#m362edc62dd" y="61.659927"/>
     <use style="fill:#1f77b4;stroke:#ffffff;stroke-width:0.75;" x="344.268545" xlink:href="#m362edc62dd" y="61.523885"/>
     <use style="fill:#1f77b4;stroke:#ffffff;stroke-width:0.75;" x="347.836177" xlink:href="#m362edc62dd" y="61.659927"/>
     <use style="fill:#1f77b4;stroke:#ffffff;stroke-width:0.75;" x="351.403809" xlink:href="#m362edc62dd" y="61.659927"/>
     <use style="fill:#1f77b4;stroke:#ffffff;stroke-width:0.75;" x="354.971442" xlink:href="#m362edc62dd" y="61.115759"/>
     <use style="fill:#1f77b4;stroke:#ffffff;stroke-width:0.75;" x="358.539074" xlink:href="#m362edc62dd" y="60.843675"/>
     <use style="fill:#1f77b4;stroke:#ffffff;stroke-width:0.75;" x="362.106706" xlink:href="#m362edc62dd" y="60.843675"/>
     <use style="fill:#1f77b4;stroke:#ffffff;stroke-width:0.75;" x="365.674339" xlink:href="#m362edc62dd" y="60.843675"/>
     <use style="fill:#1f77b4;stroke:#ffffff;stroke-width:0.75;" x="369.241971" xlink:href="#m362edc62dd" y="60.843675"/>
     <use style="fill:#1f77b4;stroke:#ffffff;stroke-width:0.75;" x="372.809604" xlink:href="#m362edc62dd" y="54.313661"/>
     <use style="fill:#1f77b4;stroke:#ffffff;stroke-width:0.75;" x="376.377236" xlink:href="#m362edc62dd" y="54.313661"/>
     <use style="fill:#1f77b4;stroke:#ffffff;stroke-width:0.75;" x="379.944868" xlink:href="#m362edc62dd" y="53.769494"/>
     <use style="fill:#1f77b4;stroke:#ffffff;stroke-width:0.75;" x="383.512501" xlink:href="#m362edc62dd" y="57.578668"/>
     <use style="fill:#1f77b4;stroke:#ffffff;stroke-width:0.75;" x="387.080133" xlink:href="#m362edc62dd" y="54.313661"/>
     <use style="fill:#1f77b4;stroke:#ffffff;stroke-width:0.75;" x="390.647765" xlink:href="#m362edc62dd" y="54.313661"/>
     <use style="fill:#1f77b4;stroke:#ffffff;stroke-width:0.75;" x="394.215398" xlink:href="#m362edc62dd" y="54.313661"/>
    </g>
   </g>
   <g id="line2d_14">
    <path clip-path="url(#p7768a2cbf2)" d="M 69.560852 261.641594 
L 73.128485 226.542771 
L 76.696117 221.917345 
L 80.263749 210.761905 
L 83.831382 199.470423 
L 87.399014 195.525206 
L 90.966646 184.097682 
L 94.534279 179.200172 
L 98.101911 175.254956 
L 101.669544 171.173697 
L 105.237176 165.868061 
L 108.804808 161.786802 
L 112.372441 156.889292 
L 115.940073 154.440537 
L 119.507705 152.399908 
L 123.075338 151.991782 
L 126.64297 150.359279 
L 130.210603 146.27802 
L 133.778235 146.141978 
L 137.345867 141.38051 
L 140.9135 142.332803 
L 144.481132 142.196762 
L 148.048764 141.38051 
L 151.616397 140.564258 
L 155.184029 139.748006 
L 158.751661 139.203839 
L 162.319294 138.115503 
L 165.886926 137.299251 
L 169.454559 135.666748 
L 173.022191 135.666748 
L 176.589823 136.074874 
L 180.157456 135.666748 
L 183.725088 133.217993 
L 187.29272 128.320483 
L 190.860353 130.633196 
L 194.427985 130.22507 
L 197.995618 127.776315 
L 201.56325 125.32756 
L 205.130882 125.32756 
L 208.698515 124.511308 
L 212.266147 124.511308 
L 215.833779 120.430049 
L 219.401412 120.430049 
L 222.969044 120.021924 
L 226.536676 119.613798 
L 230.104309 118.253378 
L 233.671941 116.076707 
L 237.239574 118.253378 
L 240.807206 117.029001 
L 244.374838 117.029001 
L 247.942471 116.348791 
L 251.510103 117.029001 
L 255.077735 115.804623 
L 258.645368 116.620875 
L 262.213 115.668581 
L 265.780632 116.076707 
L 269.348265 114.988371 
L 272.915897 114.716287 
L 276.48353 114.444204 
L 280.051162 114.17212 
L 283.618794 114.17212 
L 287.186427 113.627952 
L 290.754059 111.723365 
L 294.321691 110.907113 
L 297.889324 108.050232 
L 301.456956 108.050232 
L 305.024589 107.91419 
L 308.592221 107.91419 
L 312.159853 107.642106 
L 315.727486 107.642106 
L 319.295118 107.370022 
L 322.86275 107.370022 
L 326.430383 106.55377 
L 329.998015 107.370022 
L 333.565647 107.370022 
L 337.13328 106.009603 
L 340.700912 106.009603 
L 344.268545 106.009603 
L 347.836177 104.377099 
L 351.403809 103.832931 
L 354.971442 104.105015 
L 358.539074 104.377099 
L 362.106706 103.01668 
L 365.674339 102.33647 
L 369.241971 102.064386 
L 372.809604 101.65626 
L 376.377236 102.472512 
L 379.944868 101.65626 
L 383.512501 100.567925 
L 387.080133 99.751673 
L 390.647765 99.479589 
L 394.215398 102.200428 
" style="fill:none;stroke:#d62728;stroke-linecap:square;stroke-width:1.5;"/>
    <defs>
     <path d="M 0 -3 
L -3 3 
L 3 3 
z
" id="mac4be4e42d" style="stroke:#ffffff;stroke-linejoin:miter;stroke-width:0.75;"/>
    </defs>
    <g clip-path="url(#p7768a2cbf2)">
     <use style="fill:#d62728;stroke:#ffffff;stroke-linejoin:miter;stroke-width:0.75;" x="69.560852" xlink:href="#mac4be4e42d" y="261.641594"/>
     <use style="fill:#d62728;stroke:#ffffff;stroke-linejoin:miter;stroke-width:0.75;" x="73.128485" xlink:href="#mac4be4e42d" y="226.542771"/>
     <use style="fill:#d62728;stroke:#ffffff;stroke-linejoin:miter;stroke-width:0.75;" x="76.696117" xlink:href="#mac4be4e42d" y="221.917345"/>
     <use style="fill:#d62728;stroke:#ffffff;stroke-linejoin:miter;stroke-width:0.75;" x="80.263749" xlink:href="#mac4be4e42d" y="210.761905"/>
     <use style="fill:#d62728;stroke:#ffffff;stroke-linejoin:miter;stroke-width:0.75;" x="83.831382" xlink:href="#mac4be4e42d" y="199.470423"/>
     <use style="fill:#d62728;stroke:#ffffff;stroke-linejoin:miter;stroke-width:0.75;" x="87.399014" xlink:href="#mac4be4e42d" y="195.525206"/>
     <use style="fill:#d62728;stroke:#ffffff;stroke-linejoin:miter;stroke-width:0.75;" x="90.966646" xlink:href="#mac4be4e42d" y="184.097682"/>
     <use style="fill:#d62728;stroke:#ffffff;stroke-linejoin:miter;stroke-width:0.75;" x="94.534279" xlink:href="#mac4be4e42d" y="179.200172"/>
     <use style="fill:#d62728;stroke:#ffffff;stroke-linejoin:miter;stroke-width:0.75;" x="98.101911" xlink:href="#mac4be4e42d" y="175.254956"/>
     <use style="fill:#d62728;stroke:#ffffff;stroke-linejoin:miter;stroke-width:0.75;" x="101.669544" xlink:href="#mac4be4e42d" y="171.173697"/>
     <use style="fill:#d62728;stroke:#ffffff;stroke-linejoin:miter;stroke-width:0.75;" x="105.237176" xlink:href="#mac4be4e42d" y="165.868061"/>
     <use style="fill:#d62728;stroke:#ffffff;stroke-linejoin:miter;stroke-width:0.75;" x="108.804808" xlink:href="#mac4be4e42d" y="161.786802"/>
     <use style="fill:#d62728;stroke:#ffffff;stroke-linejoin:miter;stroke-width:0.75;" x="112.372441" xlink:href="#mac4be4e42d" y="156.889292"/>
     <use style="fill:#d62728;stroke:#ffffff;stroke-linejoin:miter;stroke-width:0.75;" x="115.940073" xlink:href="#mac4be4e42d" y="154.440537"/>
     <use style="fill:#d62728;stroke:#ffffff;stroke-linejoin:miter;stroke-width:0.75;" x="119.507705" xlink:href="#mac4be4e42d" y="152.399908"/>
     <use style="fill:#d62728;stroke:#ffffff;stroke-linejoin:miter;stroke-width:0.75;" x="123.075338" xlink:href="#mac4be4e42d" y="151.991782"/>
     <use style="fill:#d62728;stroke:#ffffff;stroke-linejoin:miter;stroke-width:0.75;" x="126.64297" xlink:href="#mac4be4e42d" y="150.359279"/>
     <use style="fill:#d62728;stroke:#ffffff;stroke-linejoin:miter;stroke-width:0.75;" x="130.210603" xlink:href="#mac4be4e42d" y="146.27802"/>
     <use style="fill:#d62728;stroke:#ffffff;stroke-linejoin:miter;stroke-width:0.75;" x="133.778235" xlink:href="#mac4be4e42d" y="146.141978"/>
     <use style="fill:#d62728;stroke:#ffffff;stroke-linejoin:miter;stroke-width:0.75;" x="137.345867" xlink:href="#mac4be4e42d" y="141.38051"/>
     <use style="fill:#d62728;stroke:#ffffff;stroke-linejoin:miter;stroke-width:0.75;" x="140.9135" xlink:href="#mac4be4e42d" y="142.332803"/>
     <use style="fill:#d62728;stroke:#ffffff;stroke-linejoin:miter;stroke-width:0.75;" x="144.481132" xlink:href="#mac4be4e42d" y="142.196762"/>
     <use style="fill:#d62728;stroke:#ffffff;stroke-linejoin:miter;stroke-width:0.75;" x="148.048764" xlink:href="#mac4be4e42d" y="141.38051"/>
     <use style="fill:#d62728;stroke:#ffffff;stroke-linejoin:miter;stroke-width:0.75;" x="151.616397" xlink:href="#mac4be4e42d" y="140.564258"/>
     <use style="fill:#d62728;stroke:#ffffff;stroke-linejoin:miter;stroke-width:0.75;" x="155.184029" xlink:href="#mac4be4e42d" y="139.748006"/>
     <use style="fill:#d62728;stroke:#ffffff;stroke-linejoin:miter;stroke-width:0.75;" x="158.751661" xlink:href="#mac4be4e42d" y="139.203839"/>
     <use style="fill:#d62728;stroke:#ffffff;stroke-linejoin:miter;stroke-width:0.75;" x="162.319294" xlink:href="#mac4be4e42d" y="138.115503"/>
     <use style="fill:#d62728;stroke:#ffffff;stroke-linejoin:miter;stroke-width:0.75;" x="165.886926" xlink:href="#mac4be4e42d" y="137.299251"/>
     <use style="fill:#d62728;stroke:#ffffff;stroke-linejoin:miter;stroke-width:0.75;" x="169.454559" xlink:href="#mac4be4e42d" y="135.666748"/>
     <use style="fill:#d62728;stroke:#ffffff;stroke-linejoin:miter;stroke-width:0.75;" x="173.022191" xlink:href="#mac4be4e42d" y="135.666748"/>
     <use style="fill:#d62728;stroke:#ffffff;stroke-linejoin:miter;stroke-width:0.75;" x="176.589823" xlink:href="#mac4be4e42d" y="136.074874"/>
     <use style="fill:#d62728;stroke:#ffffff;stroke-linejoin:miter;stroke-width:0.75;" x="180.157456" xlink:href="#mac4be4e42d" y="135.666748"/>
     <use style="fill:#d62728;stroke:#ffffff;stroke-linejoin:miter;stroke-width:0.75;" x="183.725088" xlink:href="#mac4be4e42d" y="133.217993"/>
     <use style="fill:#d62728;stroke:#ffffff;stroke-linejoin:miter;stroke-width:0.75;" x="187.29272" xlink:href="#mac4be4e42d" y="128.320483"/>
     <use style="fill:#d62728;stroke:#ffffff;stroke-linejoin:miter;stroke-width:0.75;" x="190.860353" xlink:href="#mac4be4e42d" y="130.633196"/>
     <use style="fill:#d62728;stroke:#ffffff;stroke-linejoin:miter;stroke-width:0.75;" x="194.427985" xlink:href="#mac4be4e42d" y="130.22507"/>
     <use style="fill:#d62728;stroke:#ffffff;stroke-linejoin:miter;stroke-width:0.75;" x="197.995618" xlink:href="#mac4be4e42d" y="127.776315"/>
     <use style="fill:#d62728;stroke:#ffffff;stroke-linejoin:miter;stroke-width:0.75;" x="201.56325" xlink:href="#mac4be4e42d" y="125.32756"/>
     <use style="fill:#d62728;stroke:#ffffff;stroke-linejoin:miter;stroke-width:0.75;" x="205.130882" xlink:href="#mac4be4e42d" y="125.32756"/>
     <use style="fill:#d62728;stroke:#ffffff;stroke-linejoin:miter;stroke-width:0.75;" x="208.698515" xlink:href="#mac4be4e42d" y="124.511308"/>
     <use style="fill:#d62728;stroke:#ffffff;stroke-linejoin:miter;stroke-width:0.75;" x="212.266147" xlink:href="#mac4be4e42d" y="124.511308"/>
     <use style="fill:#d62728;stroke:#ffffff;stroke-linejoin:miter;stroke-width:0.75;" x="215.833779" xlink:href="#mac4be4e42d" y="120.430049"/>
     <use style="fill:#d62728;stroke:#ffffff;stroke-linejoin:miter;stroke-width:0.75;" x="219.401412" xlink:href="#mac4be4e42d" y="120.430049"/>
     <use style="fill:#d62728;stroke:#ffffff;stroke-linejoin:miter;stroke-width:0.75;" x="222.969044" xlink:href="#mac4be4e42d" y="120.021924"/>
     <use style="fill:#d62728;stroke:#ffffff;stroke-linejoin:miter;stroke-width:0.75;" x="226.536676" xlink:href="#mac4be4e42d" y="119.613798"/>
     <use style="fill:#d62728;stroke:#ffffff;stroke-linejoin:miter;stroke-width:0.75;" x="230.104309" xlink:href="#mac4be4e42d" y="118.253378"/>
     <use style="fill:#d62728;stroke:#ffffff;stroke-linejoin:miter;stroke-width:0.75;" x="233.671941" xlink:href="#mac4be4e42d" y="116.076707"/>
     <use style="fill:#d62728;stroke:#ffffff;stroke-linejoin:miter;stroke-width:0.75;" x="237.239574" xlink:href="#mac4be4e42d" y="118.253378"/>
     <use style="fill:#d62728;stroke:#ffffff;stroke-linejoin:miter;stroke-width:0.75;" x="240.807206" xlink:href="#mac4be4e42d" y="117.029001"/>
     <use style="fill:#d62728;stroke:#ffffff;stroke-linejoin:miter;stroke-width:0.75;" x="244.374838" xlink:href="#mac4be4e42d" y="117.029001"/>
     <use style="fill:#d62728;stroke:#ffffff;stroke-linejoin:miter;stroke-width:0.75;" x="247.942471" xlink:href="#mac4be4e42d" y="116.348791"/>
     <use style="fill:#d62728;stroke:#ffffff;stroke-linejoin:miter;stroke-width:0.75;" x="251.510103" xlink:href="#mac4be4e42d" y="117.029001"/>
     <use style="fill:#d62728;stroke:#ffffff;stroke-linejoin:miter;stroke-width:0.75;" x="255.077735" xlink:href="#mac4be4e42d" y="115.804623"/>
     <use style="fill:#d62728;stroke:#ffffff;stroke-linejoin:miter;stroke-width:0.75;" x="258.645368" xlink:href="#mac4be4e42d" y="116.620875"/>
     <use style="fill:#d62728;stroke:#ffffff;stroke-linejoin:miter;stroke-width:0.75;" x="262.213" xlink:href="#mac4be4e42d" y="115.668581"/>
     <use style="fill:#d62728;stroke:#ffffff;stroke-linejoin:miter;stroke-width:0.75;" x="265.780632" xlink:href="#mac4be4e42d" y="116.076707"/>
     <use style="fill:#d62728;stroke:#ffffff;stroke-linejoin:miter;stroke-width:0.75;" x="269.348265" xlink:href="#mac4be4e42d" y="114.988371"/>
     <use style="fill:#d62728;stroke:#ffffff;stroke-linejoin:miter;stroke-width:0.75;" x="272.915897" xlink:href="#mac4be4e42d" y="114.716287"/>
     <use style="fill:#d62728;stroke:#ffffff;stroke-linejoin:miter;stroke-width:0.75;" x="276.48353" xlink:href="#mac4be4e42d" y="114.444204"/>
     <use style="fill:#d62728;stroke:#ffffff;stroke-linejoin:miter;stroke-width:0.75;" x="280.051162" xlink:href="#mac4be4e42d" y="114.17212"/>
     <use style="fill:#d62728;stroke:#ffffff;stroke-linejoin:miter;stroke-width:0.75;" x="283.618794" xlink:href="#mac4be4e42d" y="114.17212"/>
     <use style="fill:#d62728;stroke:#ffffff;stroke-linejoin:miter;stroke-width:0.75;" x="287.186427" xlink:href="#mac4be4e42d" y="113.627952"/>
     <use style="fill:#d62728;stroke:#ffffff;stroke-linejoin:miter;stroke-width:0.75;" x="290.754059" xlink:href="#mac4be4e42d" y="111.723365"/>
     <use style="fill:#d62728;stroke:#ffffff;stroke-linejoin:miter;stroke-width:0.75;" x="294.321691" xlink:href="#mac4be4e42d" y="110.907113"/>
     <use style="fill:#d62728;stroke:#ffffff;stroke-linejoin:miter;stroke-width:0.75;" x="297.889324" xlink:href="#mac4be4e42d" y="108.050232"/>
     <use style="fill:#d62728;stroke:#ffffff;stroke-linejoin:miter;stroke-width:0.75;" x="301.456956" xlink:href="#mac4be4e42d" y="108.050232"/>
     <use style="fill:#d62728;stroke:#ffffff;stroke-linejoin:miter;stroke-width:0.75;" x="305.024589" xlink:href="#mac4be4e42d" y="107.91419"/>
     <use style="fill:#d62728;stroke:#ffffff;stroke-linejoin:miter;stroke-width:0.75;" x="308.592221" xlink:href="#mac4be4e42d" y="107.91419"/>
     <use style="fill:#d62728;stroke:#ffffff;stroke-linejoin:miter;stroke-width:0.75;" x="312.159853" xlink:href="#mac4be4e42d" y="107.642106"/>
     <use style="fill:#d62728;stroke:#ffffff;stroke-linejoin:miter;stroke-width:0.75;" x="315.727486" xlink:href="#mac4be4e42d" y="107.642106"/>
     <use style="fill:#d62728;stroke:#ffffff;stroke-linejoin:miter;stroke-width:0.75;" x="319.295118" xlink:href="#mac4be4e42d" y="107.370022"/>
     <use style="fill:#d62728;stroke:#ffffff;stroke-linejoin:miter;stroke-width:0.75;" x="322.86275" xlink:href="#mac4be4e42d" y="107.370022"/>
     <use style="fill:#d62728;stroke:#ffffff;stroke-linejoin:miter;stroke-width:0.75;" x="326.430383" xlink:href="#mac4be4e42d" y="106.55377"/>
     <use style="fill:#d62728;stroke:#ffffff;stroke-linejoin:miter;stroke-width:0.75;" x="329.998015" xlink:href="#mac4be4e42d" y="107.370022"/>
     <use style="fill:#d62728;stroke:#ffffff;stroke-linejoin:miter;stroke-width:0.75;" x="333.565647" xlink:href="#mac4be4e42d" y="107.370022"/>
     <use style="fill:#d62728;stroke:#ffffff;stroke-linejoin:miter;stroke-width:0.75;" x="337.13328" xlink:href="#mac4be4e42d" y="106.009603"/>
     <use style="fill:#d62728;stroke:#ffffff;stroke-linejoin:miter;stroke-width:0.75;" x="340.700912" xlink:href="#mac4be4e42d" y="106.009603"/>
     <use style="fill:#d62728;stroke:#ffffff;stroke-linejoin:miter;stroke-width:0.75;" x="344.268545" xlink:href="#mac4be4e42d" y="106.009603"/>
     <use style="fill:#d62728;stroke:#ffffff;stroke-linejoin:miter;stroke-width:0.75;" x="347.836177" xlink:href="#mac4be4e42d" y="104.377099"/>
     <use style="fill:#d62728;stroke:#ffffff;stroke-linejoin:miter;stroke-width:0.75;" x="351.403809" xlink:href="#mac4be4e42d" y="103.832931"/>
     <use style="fill:#d62728;stroke:#ffffff;stroke-linejoin:miter;stroke-width:0.75;" x="354.971442" xlink:href="#mac4be4e42d" y="104.105015"/>
     <use style="fill:#d62728;stroke:#ffffff;stroke-linejoin:miter;stroke-width:0.75;" x="358.539074" xlink:href="#mac4be4e42d" y="104.377099"/>
     <use style="fill:#d62728;stroke:#ffffff;stroke-linejoin:miter;stroke-width:0.75;" x="362.106706" xlink:href="#mac4be4e42d" y="103.01668"/>
     <use style="fill:#d62728;stroke:#ffffff;stroke-linejoin:miter;stroke-width:0.75;" x="365.674339" xlink:href="#mac4be4e42d" y="102.33647"/>
     <use style="fill:#d62728;stroke:#ffffff;stroke-linejoin:miter;stroke-width:0.75;" x="369.241971" xlink:href="#mac4be4e42d" y="102.064386"/>
     <use style="fill:#d62728;stroke:#ffffff;stroke-linejoin:miter;stroke-width:0.75;" x="372.809604" xlink:href="#mac4be4e42d" y="101.65626"/>
     <use style="fill:#d62728;stroke:#ffffff;stroke-linejoin:miter;stroke-width:0.75;" x="376.377236" xlink:href="#mac4be4e42d" y="102.472512"/>
     <use style="fill:#d62728;stroke:#ffffff;stroke-linejoin:miter;stroke-width:0.75;" x="379.944868" xlink:href="#mac4be4e42d" y="101.65626"/>
     <use style="fill:#d62728;stroke:#ffffff;stroke-linejoin:miter;stroke-width:0.75;" x="383.512501" xlink:href="#mac4be4e42d" y="100.567925"/>
     <use style="fill:#d62728;stroke:#ffffff;stroke-linejoin:miter;stroke-width:0.75;" x="387.080133" xlink:href="#mac4be4e42d" y="99.751673"/>
     <use style="fill:#d62728;stroke:#ffffff;stroke-linejoin:miter;stroke-width:0.75;" x="390.647765" xlink:href="#mac4be4e42d" y="99.479589"/>
     <use style="fill:#d62728;stroke:#ffffff;stroke-linejoin:miter;stroke-width:0.75;" x="394.215398" xlink:href="#mac4be4e42d" y="102.200428"/>
    </g>
   </g>
   <g id="line2d_15"/>
   <g id="line2d_16"/>
   <g id="line2d_17"/>
   <g id="patch_3">
    <path d="M 53.328125 242.595721 
L 53.328125 24.9286 
" style="fill:none;stroke:#000000;stroke-linecap:square;stroke-linejoin:miter;stroke-width:0.8;"/>
   </g>
   <g id="patch_4">
    <path d="M 69.560852 288.430125 
L 343.079334 288.430125 
" style="fill:none;stroke:#000000;stroke-linecap:square;stroke-linejoin:miter;stroke-width:0.8;"/>
   </g>
   <g id="text_14">
    <!-- arrow_parquet-arrow-fuzz (23h, 11 trials/fuzzer) -->
    <g transform="translate(88.217188 16.318125)scale(0.12 -0.12)">
     <defs>
      <path d="M 269 3500 
L 844 3500 
L 1563 769 
L 2278 3500 
L 2956 3500 
L 3675 769 
L 4391 3500 
L 4966 3500 
L 4050 0 
L 3372 0 
L 2619 2869 
L 1863 0 
L 1184 0 
L 269 3500 
z
" id="DejaVuSans-77" transform="scale(0.015625)"/>
      <path d="M 3263 -1063 
L 3263 -1509 
L -63 -1509 
L -63 -1063 
L 3263 -1063 
z
" id="DejaVuSans-5f" transform="scale(0.015625)"/>
      <path d="M 1159 525 
L 1159 -1331 
L 581 -1331 
L 581 3500 
L 1159 3500 
L 1159 2969 
Q 1341 3281 1617 3432 
Q 1894 3584 2278 3584 
Q 2916 3584 3314 3078 
Q 3713 2572 3713 1747 
Q 3713 922 3314 415 
Q 2916 -91 2278 -91 
Q 1894 -91 1617 61 
Q 1341 213 1159 525 
z
M 3116 1747 
Q 3116 2381 2855 2742 
Q 2594 3103 2138 3103 
Q 1681 3103 1420 2742 
Q 1159 2381 1159 1747 
Q 1159 1113 1420 752 
Q 1681 391 2138 391 
Q 2594 391 2855 752 
Q 3116 1113 3116 1747 
z
" id="DejaVuSans-70" transform="scale(0.015625)"/>
      <path d="M 947 1747 
Q 947 1113 1208 752 
Q 1469 391 1925 391 
Q 2381 391 2643 752 
Q 2906 1113 2906 1747 
Q 2906 2381 2643 2742 
Q 2381 3103 1925 3103 
Q 1469 3103 1208 2742 
Q 947 2381 947 1747 
z
M 2906 525 
Q 2725 213 2448 61 
Q 2172 -91 1784 -91 
Q 1150 -91 751 415 
Q 353 922 353 1747 
Q 353 2572 751 3078 
Q 1150 3584 1784 3584 
Q 2172 3584 2448 3432 
Q 2725 3281 2906 2969 
L 2906 3500 
L 3481 3500 
L 3481 -1331 
L 2906 -1331 
L 2906 525 
z
" id="DejaVuSans-71" transform="scale(0.015625)"/>
      <path d="M 313 2009 
L 1997 2009 
L 1997 1497 
L 313 1497 
L 313 2009 
z
" id="DejaVuSans-2d" transform="scale(0.015625)"/>
      <path d="M 2375 4863 
L 2375 4384 
L 1825 4384 
Q 1516 4384 1395 4259 
Q 1275 4134 1275 3809 
L 1275 3500 
L 2222 3500 
L 2222 3053 
L 1275 3053 
L 1275 0 
L 697 0 
L 697 3053 
L 147 3053 
L 147 3500 
L 697 3500 
L 697 3744 
Q 697 4328 969 4595 
Q 1241 4863 1831 4863 
L 2375 4863 
z
" id="DejaVuSans-66" transform="scale(0.015625)"/>
      <path d="M 353 3500 
L 3084 3500 
L 3084 2975 
L 922 459 
L 3084 459 
L 3084 0 
L 275 0 
L 275 525 
L 2438 3041 
L 353 3041 
L 353 3500 
z
" id="DejaVuSans-7a" transform="scale(0.015625)"/>
      <path d="M 750 794 
L 1409 794 
L 1409 256 
L 897 -744 
L 494 -744 
L 750 256 
L 750 794 
z
" id="DejaVuSans-2c" transform="scale(0.015625)"/>
      <path d="M 603 4863 
L 1178 4863 
L 1178 0 
L 603 0 
L 603 4863 
z
" id="DejaVuSans-6c" transform="scale(0.015625)"/>
      <path d="M 2834 3397 
L 2834 2853 
Q 2591 2978 2328 3040 
Q 2066 3103 1784 3103 
Q 1356 3103 1142 2972 
Q 928 2841 928 2578 
Q 928 2378 1081 2264 
Q 1234 2150 1697 2047 
L 1894 2003 
Q 2506 1872 2764 1633 
Q 3022 1394 3022 966 
Q 3022 478 2636 193 
Q 2250 -91 1575 -91 
Q 1294 -91 989 -36 
Q 684 19 347 128 
L 347 722 
Q 666 556 975 473 
Q 1284 391 1588 391 
Q 1994 391 2212 530 
Q 2431 669 2431 922 
Q 2431 1156 2273 1281 
Q 2116 1406 1581 1522 
L 1381 1569 
Q 847 1681 609 1914 
Q 372 2147 372 2553 
Q 372 3047 722 3315 
Q 1072 3584 1716 3584 
Q 2034 3584 2315 3537 
Q 2597 3491 2834 3397 
z
" id="DejaVuSans-73" transform="scale(0.015625)"/>
      <path d="M 1625 4666 
L 2156 4666 
L 531 -594 
L 0 -594 
L 1625 4666 
z
" id="DejaVuSans-2f" transform="scale(0.015625)"/>
     </defs>
     <use xlink:href="#DejaVuSans-61"/>
     <use x="61.279297" xlink:href="#DejaVuSans-72"/>
     <use x="100.642578" xlink:href="#DejaVuSans-72"/>
     <use x="139.505859" xlink:href="#DejaVuSans-6f"/>
     <use x="200.6875" xlink:href="#DejaVuSans-77"/>
     <use x="282.474609" xlink:href="#DejaVuSans-5f"/>
     <use x="332.474609" xlink:href="#DejaVuSans-70"/>
     <use x="395.951172" xlink:href="#DejaVuSans-61"/>
     <use x="457.230469" xlink:href="#DejaVuSans-72"/>
     <use x="496.59375" xlink:href="#DejaVuSans-71"/>
     <use x="560.070312" xlink:href="#DejaVuSans-75"/>
     <use x="623.449219" xlink:href="#DejaVuSans-65"/>
     <use x="684.972656" xlink:href="#DejaVuSans-74"/>
     <use x="724.181641" xlink:href="#DejaVuSans-2d"/>
     <use x="760.265625" xlink:href="#DejaVuSans-61"/>
     <use x="821.544922" xlink:href="#DejaVuSans-72"/>
     <use x="860.908203" xlink:href="#DejaVuSans-72"/>
     <use x="899.771484" xlink:href="#DejaVuSans-6f"/>
     <use x="960.953125" xlink:href="#DejaVuSans-77"/>
     <use x="1042.740234" xlink:href="#DejaVuSans-2d"/>
     <use x="1078.824219" xlink:href="#DejaVuSans-66"/>
     <use x="1114.029297" xlink:href="#DejaVuSans-75"/>
     <use x="1177.408203" xlink:href="#DejaVuSans-7a"/>
     <use x="1229.898438" xlink:href="#DejaVuSans-7a"/>
     <use x="1282.388672" xlink:href="#DejaVuSans-20"/>
     <use x="1314.175781" xlink:href="#DejaVuSans-28"/>
     <use x="1353.189453" xlink:href="#DejaVuSans-32"/>
     <use x="1416.8125" xlink:href="#DejaVuSans-33"/>
     <use x="1480.435547" xlink:href="#DejaVuSans-68"/>
     <use x="1543.814453" xlink:href="#DejaVuSans-2c"/>
     <use x="1575.601562" xlink:href="#DejaVuSans-20"/>
     <use x="1607.388672" xlink:href="#DejaVuSans-31"/>
     <use x="1671.011719" xlink:href="#DejaVuSans-31"/>
     <use x="1734.634766" xlink:href="#DejaVuSans-20"/>
     <use x="1766.421875" xlink:href="#DejaVuSans-74"/>
     <use x="1805.630859" xlink:href="#DejaVuSans-72"/>
     <use x="1846.744141" xlink:href="#DejaVuSans-69"/>
     <use x="1874.527344" xlink:href="#DejaVuSans-61"/>
     <use x="1935.806641" xlink:href="#DejaVuSans-6c"/>
     <use x="1963.589844" xlink:href="#DejaVuSans-73"/>
     <use x="2015.689453" xlink:href="#DejaVuSans-2f"/>
     <use x="2049.380859" xlink:href="#DejaVuSans-66"/>
     <use x="2084.585938" xlink:href="#DejaVuSans-75"/>
     <use x="2147.964844" xlink:href="#DejaVuSans-7a"/>
     <use x="2200.455078" xlink:href="#DejaVuSans-7a"/>
     <use x="2252.945312" xlink:href="#DejaVuSans-65"/>
     <use x="2314.46875" xlink:href="#DejaVuSans-72"/>
     <use x="2355.582031" xlink:href="#DejaVuSans-29"/>
    </g>
   </g>
   <g id="legend_1">
    <g id="line2d_18">
     <path d="M 414.448125 30.416562 
L 434.448125 30.416562 
" style="fill:none;stroke:#98df8a;stroke-linecap:square;stroke-width:1.5;"/>
    </g>
    <g id="line2d_19">
     <defs>
      <path d="M -0 3 
L 3 -3 
L -3 -3 
z
" id="m5881614360" style="stroke:#98df8a;stroke-linejoin:miter;"/>
     </defs>
     <g>
      <use style="fill:#98df8a;stroke:#98df8a;stroke-linejoin:miter;" x="424.448125" xlink:href="#m5881614360" y="30.416562"/>
     </g>
    </g>
    <g id="text_15">
     <!-- afl_no_favfactor -->
     <g transform="translate(442.448125 33.916562)scale(0.1 -0.1)">
      <use xlink:href="#DejaVuSans-61"/>
      <use x="61.279297" xlink:href="#DejaVuSans-66"/>
      <use x="96.484375" xlink:href="#DejaVuSans-6c"/>
      <use x="124.267578" xlink:href="#DejaVuSans-5f"/>
      <use x="174.267578" xlink:href="#DejaVuSans-6e"/>
      <use x="237.646484" xlink:href="#DejaVuSans-6f"/>
      <use x="298.828125" xlink:href="#DejaVuSans-5f"/>
      <use x="348.828125" xlink:href="#DejaVuSans-66"/>
      <use x="384.033203" xlink:href="#DejaVuSans-61"/>
      <use x="445.3125" xlink:href="#DejaVuSans-76"/>
      <use x="504.492188" xlink:href="#DejaVuSans-66"/>
      <use x="539.697266" xlink:href="#DejaVuSans-61"/>
      <use x="600.976562" xlink:href="#DejaVuSans-63"/>
      <use x="655.957031" xlink:href="#DejaVuSans-74"/>
      <use x="695.166016" xlink:href="#DejaVuSans-6f"/>
      <use x="756.347656" xlink:href="#DejaVuSans-72"/>
     </g>
    </g>
    <g id="line2d_20">
     <path d="M 414.448125 45.372813 
L 434.448125 45.372813 
" style="fill:none;stroke:#1f77b4;stroke-linecap:square;stroke-width:1.5;"/>
    </g>
    <g id="line2d_21">
     <defs>
      <path d="M 0 3 
C 0.795609 3 1.55874 2.683901 2.12132 2.12132 
C 2.683901 1.55874 3 0.795609 3 0 
C 3 -0.795609 2.683901 -1.55874 2.12132 -2.12132 
C 1.55874 -2.683901 0.795609 -3 0 -3 
C -0.795609 -3 -1.55874 -2.683901 -2.12132 -2.12132 
C -2.683901 -1.55874 -3 -0.795609 -3 0 
C -3 0.795609 -2.683901 1.55874 -2.12132 2.12132 
C -1.55874 2.683901 -0.795609 3 0 3 
z
" id="me415533570" style="stroke:#1f77b4;"/>
     </defs>
     <g>
      <use style="fill:#1f77b4;stroke:#1f77b4;" x="424.448125" xlink:href="#me415533570" y="45.372813"/>
     </g>
    </g>
    <g id="text_16">
     <!-- afl -->
     <g transform="translate(442.448125 48.872813)scale(0.1 -0.1)">
      <use xlink:href="#DejaVuSans-61"/>
      <use x="61.279297" xlink:href="#DejaVuSans-66"/>
      <use x="96.484375" xlink:href="#DejaVuSans-6c"/>
     </g>
    </g>
    <g id="line2d_22">
     <path d="M 414.448125 60.050937 
L 434.448125 60.050937 
" style="fill:none;stroke:#d62728;stroke-linecap:square;stroke-width:1.5;"/>
    </g>
    <g id="line2d_23">
     <defs>
      <path d="M 0 -3 
L -3 3 
L 3 3 
z
" id="me25103b93f" style="stroke:#d62728;stroke-linejoin:miter;"/>
     </defs>
     <g>
      <use style="fill:#d62728;stroke:#d62728;stroke-linejoin:miter;" x="424.448125" xlink:href="#me25103b93f" y="60.050937"/>
     </g>
    </g>
    <g id="text_17">
     <!-- afl_no_favored -->
     <g transform="translate(442.448125 63.550937)scale(0.1 -0.1)">
      <use xlink:href="#DejaVuSans-61"/>
      <use x="61.279297" xlink:href="#DejaVuSans-66"/>
      <use x="96.484375" xlink:href="#DejaVuSans-6c"/>
      <use x="124.267578" xlink:href="#DejaVuSans-5f"/>
      <use x="174.267578" xlink:href="#DejaVuSans-6e"/>
      <use x="237.646484" xlink:href="#DejaVuSans-6f"/>
      <use x="298.828125" xlink:href="#DejaVuSans-5f"/>
      <use x="348.828125" xlink:href="#DejaVuSans-66"/>
      <use x="384.033203" xlink:href="#DejaVuSans-61"/>
      <use x="445.3125" xlink:href="#DejaVuSans-76"/>
      <use x="504.492188" xlink:href="#DejaVuSans-6f"/>
      <use x="565.673828" xlink:href="#DejaVuSans-72"/>
      <use x="604.537109" xlink:href="#DejaVuSans-65"/>
      <use x="666.060547" xlink:href="#DejaVuSans-64"/>
     </g>
    </g>
   </g>
  </g>
 </g>
 <defs>
  <clipPath id="p7768a2cbf2">
   <rect height="266.112" width="357.12" x="53.328125" y="22.318125"/>
  </clipPath>
 </defs>
</svg>
