<?xml version="1.0" encoding="utf-8" standalone="no"?>
<!DOCTYPE svg PUBLIC "-//W3C//DTD SVG 1.1//EN"
  "http://www.w3.org/Graphics/SVG/1.1/DTD/svg11.dtd">
<svg height="325.986375pt" version="1.1" viewBox="0 0 520.67 325.986375" width="520.67pt" xmlns="http://www.w3.org/2000/svg" xmlns:xlink="http://www.w3.org/1999/xlink">
 <metadata>
  <rdf:RDF xmlns:cc="http://creativecommons.org/ns#" xmlns:dc="http://purl.org/dc/elements/1.1/" xmlns:rdf="http://www.w3.org/1999/02/22-rdf-syntax-ns#">
   <cc:Work>
    <dc:type rdf:resource="http://purl.org/dc/dcmitype/StillImage"/>
    <dc:date>2022-05-24T15:29:32.501902</dc:date>
    <dc:format>image/svg+xml</dc:format>
    <dc:creator>
     <cc:Agent>
      <dc:title>Matplotlib v3.4.3, https://matplotlib.org/</dc:title>
     </cc:Agent>
    </dc:creator>
   </cc:Work>
  </rdf:RDF>
 </metadata>
 <defs>
  <style type="text/css">*{stroke-linecap:butt;stroke-linejoin:round;}</style>
 </defs>
 <g id="figure_1">
  <g id="patch_1">
   <path d="M 0 325.986375 
L 520.67 325.986375 
L 520.67 0 
L 0 0 
z
" style="fill:#ffffff;"/>
  </g>
  <g id="axes_1">
   <g id="patch_2">
    <path d="M 40.603125 288.430125 
L 397.723125 288.430125 
L 397.723125 22.318125 
L 40.603125 22.318125 
z
" style="fill:#ffffff;"/>
   </g>
   <g id="PolyCollection_1">
    <defs>
     <path d="M 56.835852 -91.942283 
L 56.835852 -49.65225 
L 60.403485 -81.435442 
L 63.971117 -91.942283 
L 67.538749 -91.942283 
L 71.106382 -102.449123 
L 74.674014 -102.449123 
L 78.241646 -123.462804 
L 81.809279 -128.716224 
L 85.376911 -139.091729 
L 88.944544 -144.476485 
L 92.512176 -154.983325 
L 96.079808 -165.490165 
L 99.647441 -165.490165 
L 103.215073 -165.490165 
L 106.782705 -165.490165 
L 110.350338 -144.476485 
L 113.91797 -144.476485 
L 117.485603 -165.490165 
L 121.053235 -160.236745 
L 124.620867 -165.490165 
L 128.1885 -165.490165 
L 131.756132 -175.997006 
L 135.323764 -165.490165 
L 138.891397 -165.490165 
L 142.459029 -186.503846 
L 146.026661 -165.490165 
L 149.594294 -186.503846 
L 153.161926 -202.264107 
L 156.729559 -186.503846 
L 160.297191 -197.010686 
L 163.864823 -197.010686 
L 167.432456 -186.503846 
L 171.000088 -186.503846 
L 174.56772 -197.010686 
L 178.135353 -207.517527 
L 181.702985 -207.517527 
L 185.270618 -218.024367 
L 188.83825 -207.517527 
L 192.405882 -202.264107 
L 195.973515 -202.264107 
L 199.541147 -218.024367 
L 203.108779 -217.761696 
L 206.676412 -223.277787 
L 210.244044 -218.024367 
L 213.811676 -218.024367 
L 217.379309 -212.770947 
L 220.946941 -228.531208 
L 224.514574 -218.024367 
L 228.082206 -228.531208 
L 231.649838 -228.531208 
L 235.217471 -207.517527 
L 238.785103 -228.531208 
L 242.352735 -228.531208 
L 245.920368 -228.531208 
L 249.488 -223.277787 
L 253.055632 -233.784628 
L 256.623265 -233.784628 
L 260.190897 -228.531208 
L 263.75853 -228.531208 
L 267.326162 -228.531208 
L 270.893794 -228.531208 
L 274.461427 -228.531208 
L 278.029059 -228.531208 
L 281.596691 -233.784628 
L 285.164324 -228.531208 
L 288.731956 -228.531208 
L 292.299589 -228.531208 
L 295.867221 -239.038048 
L 299.434853 -239.038048 
L 303.002486 -239.038048 
L 306.570118 -239.038048 
L 310.13775 -239.038048 
L 313.705383 -228.531208 
L 317.273015 -249.544888 
L 320.840647 -249.544888 
L 324.40828 -239.038048 
L 327.975912 -249.544888 
L 331.543545 -249.544888 
L 335.111177 -249.544888 
L 338.678809 -249.544888 
L 342.246442 -249.544888 
L 345.814074 -249.544888 
L 349.381706 -249.282217 
L 352.949339 -249.544888 
L 356.516971 -249.544888 
L 360.084604 -249.544888 
L 363.652236 -260.051729 
L 367.219868 -249.544888 
L 370.787501 -260.051729 
L 374.355133 -239.038048 
L 377.922765 -260.051729 
L 381.490398 -239.038048 
L 381.490398 -281.06541 
L 381.490398 -281.06541 
L 377.922765 -281.06541 
L 374.355133 -281.06541 
L 370.787501 -275.811989 
L 367.219868 -281.06541 
L 363.652236 -281.06541 
L 360.084604 -281.06541 
L 356.516971 -281.06541 
L 352.949339 -281.06541 
L 349.381706 -281.06541 
L 345.814074 -281.06541 
L 342.246442 -281.06541 
L 338.678809 -281.06541 
L 335.111177 -281.06541 
L 331.543545 -275.811989 
L 327.975912 -275.811989 
L 324.40828 -281.06541 
L 320.840647 -281.06541 
L 317.273015 -281.06541 
L 313.705383 -270.558569 
L 310.13775 -281.06541 
L 306.570118 -275.811989 
L 303.002486 -270.558569 
L 299.434853 -270.558569 
L 295.867221 -281.06541 
L 292.299589 -270.558569 
L 288.731956 -275.811989 
L 285.164324 -270.558569 
L 281.596691 -275.811989 
L 278.029059 -281.06541 
L 274.461427 -270.689905 
L 270.893794 -275.811989 
L 267.326162 -275.811989 
L 263.75853 -270.558569 
L 260.190897 -270.558569 
L 256.623265 -281.06541 
L 253.055632 -275.811989 
L 249.488 -275.811989 
L 245.920368 -265.436485 
L 242.352735 -270.558569 
L 238.785103 -260.051729 
L 235.217471 -260.3144 
L 231.649838 -270.558569 
L 228.082206 -270.558569 
L 224.514574 -260.051729 
L 220.946941 -265.305149 
L 217.379309 -270.558569 
L 213.811676 -270.558569 
L 210.244044 -270.558569 
L 206.676412 -260.051729 
L 203.108779 -260.051729 
L 199.541147 -260.051729 
L 195.973515 -260.051729 
L 192.405882 -249.544888 
L 188.83825 -249.544888 
L 185.270618 -239.038048 
L 181.702985 -239.038048 
L 178.135353 -239.038048 
L 174.56772 -239.038048 
L 171.000088 -239.038048 
L 167.432456 -228.531208 
L 163.864823 -233.784628 
L 160.297191 -228.531208 
L 156.729559 -218.024367 
L 153.161926 -223.277787 
L 149.594294 -218.024367 
L 146.026661 -218.024367 
L 142.459029 -218.024367 
L 138.891397 -218.024367 
L 135.323764 -218.024367 
L 131.756132 -218.024367 
L 128.1885 -212.902283 
L 124.620867 -207.517527 
L 121.053235 -207.517527 
L 117.485603 -207.517527 
L 113.91797 -207.517527 
L 110.350338 -207.517527 
L 106.782705 -197.010686 
L 103.215073 -197.010686 
L 99.647441 -197.010686 
L 96.079808 -197.010686 
L 92.512176 -197.010686 
L 88.944544 -197.010686 
L 85.376911 -186.503846 
L 81.809279 -175.997006 
L 78.241646 -165.490165 
L 74.674014 -165.490165 
L 71.106382 -149.729905 
L 67.538749 -144.476485 
L 63.971117 -144.476485 
L 60.403485 -123.462804 
L 56.835852 -91.942283 
z
" id="mc6c123e66c" style="stroke:#1f77b4;stroke-opacity:0.2;"/>
    </defs>
    <g clip-path="url(#pe466f3beb3)">
     <use style="fill:#1f77b4;fill-opacity:0.2;stroke:#1f77b4;stroke-opacity:0.2;" x="0" xlink:href="#mc6c123e66c" y="325.986375"/>
    </g>
   </g>
   <g id="PolyCollection_2">
    <defs>
     <path d="M 56.835852 -81.435442 
L 56.835852 -49.914921 
L 60.403485 -81.435442 
L 63.971117 -91.942283 
L 67.538749 -91.942283 
L 71.106382 -133.969644 
L 74.674014 -112.955963 
L 78.241646 -128.716224 
L 81.809279 -128.716224 
L 85.376911 -133.969644 
L 88.944544 -144.476485 
L 92.512176 -154.983325 
L 96.079808 -144.476485 
L 99.647441 -144.476485 
L 103.215073 -154.983325 
L 106.782705 -144.476485 
L 110.350338 -165.490165 
L 113.91797 -165.490165 
L 117.485603 -175.734335 
L 121.053235 -175.997006 
L 124.620867 -175.997006 
L 128.1885 -175.997006 
L 131.756132 -175.997006 
L 135.323764 -175.997006 
L 138.891397 -175.997006 
L 142.459029 -181.11909 
L 146.026661 -197.010686 
L 149.594294 -186.503846 
L 153.161926 -186.503846 
L 156.729559 -175.997006 
L 160.297191 -197.010686 
L 163.864823 -175.997006 
L 167.432456 -197.010686 
L 171.000088 -186.503846 
L 174.56772 -186.503846 
L 178.135353 -197.010686 
L 181.702985 -197.010686 
L 185.270618 -181.250426 
L 188.83825 -197.010686 
L 192.405882 -197.010686 
L 195.973515 -197.010686 
L 199.541147 -207.517527 
L 203.108779 -207.517527 
L 206.676412 -207.517527 
L 210.244044 -207.517527 
L 213.811676 -207.517527 
L 217.379309 -218.024367 
L 220.946941 -218.024367 
L 224.514574 -218.024367 
L 228.082206 -212.770947 
L 231.649838 -218.024367 
L 235.217471 -218.024367 
L 238.785103 -212.770947 
L 242.352735 -218.024367 
L 245.920368 -212.770947 
L 249.488 -218.024367 
L 253.055632 -218.024367 
L 256.623265 -218.024367 
L 260.190897 -218.024367 
L 263.75853 -228.531208 
L 267.326162 -223.277787 
L 270.893794 -223.277787 
L 274.461427 -228.531208 
L 278.029059 -228.531208 
L 281.596691 -228.531208 
L 285.164324 -223.277787 
L 288.731956 -228.531208 
L 292.299589 -228.531208 
L 295.867221 -228.531208 
L 299.434853 -228.531208 
L 303.002486 -233.784628 
L 306.570118 -233.784628 
L 310.13775 -239.038048 
L 313.705383 -239.038048 
L 317.273015 -233.784628 
L 320.840647 -239.038048 
L 324.40828 -233.784628 
L 327.975912 -228.531208 
L 331.543545 -239.038048 
L 335.111177 -239.038048 
L 338.678809 -239.038048 
L 342.246442 -239.038048 
L 345.814074 -239.038048 
L 349.381706 -239.038048 
L 352.949339 -239.038048 
L 356.516971 -186.503846 
L 360.084604 -239.038048 
L 363.652236 -239.038048 
L 367.219868 -212.770947 
L 370.787501 -239.038048 
L 374.355133 -239.038048 
L 377.922765 -239.038048 
L 381.490398 -238.644042 
L 381.490398 -281.06541 
L 381.490398 -281.06541 
L 377.922765 -291.57225 
L 374.355133 -291.57225 
L 370.787501 -291.57225 
L 367.219868 -286.31883 
L 363.652236 -291.57225 
L 360.084604 -291.57225 
L 356.516971 -281.06541 
L 352.949339 -291.57225 
L 349.381706 -281.06541 
L 345.814074 -281.06541 
L 342.246442 -291.57225 
L 338.678809 -291.57225 
L 335.111177 -291.57225 
L 331.543545 -291.57225 
L 327.975912 -270.558569 
L 324.40828 -281.06541 
L 320.840647 -291.57225 
L 317.273015 -281.06541 
L 313.705383 -291.57225 
L 310.13775 -291.57225 
L 306.570118 -281.06541 
L 303.002486 -281.06541 
L 299.434853 -281.06541 
L 295.867221 -275.943325 
L 292.299589 -281.06541 
L 288.731956 -291.57225 
L 285.164324 -275.811989 
L 281.596691 -281.06541 
L 278.029059 -281.06541 
L 274.461427 -281.06541 
L 270.893794 -275.811989 
L 267.326162 -270.558569 
L 263.75853 -281.06541 
L 260.190897 -281.06541 
L 256.623265 -281.06541 
L 253.055632 -275.811989 
L 249.488 -281.06541 
L 245.920368 -275.811989 
L 242.352735 -281.06541 
L 238.785103 -270.558569 
L 235.217471 -281.06541 
L 231.649838 -281.06541 
L 228.082206 -270.558569 
L 224.514574 -270.558569 
L 220.946941 -270.558569 
L 217.379309 -270.558569 
L 213.811676 -265.305149 
L 210.244044 -260.051729 
L 206.676412 -260.051729 
L 203.108779 -260.051729 
L 199.541147 -249.544888 
L 195.973515 -260.051729 
L 192.405882 -260.051729 
L 188.83825 -254.798309 
L 185.270618 -249.544888 
L 181.702985 -249.544888 
L 178.135353 -249.544888 
L 174.56772 -249.544888 
L 171.000088 -249.544888 
L 167.432456 -239.038048 
L 163.864823 -239.038048 
L 160.297191 -239.038048 
L 156.729559 -228.793879 
L 153.161926 -239.038048 
L 149.594294 -239.038048 
L 146.026661 -228.531208 
L 142.459029 -223.277787 
L 138.891397 -228.531208 
L 135.323764 -228.531208 
L 131.756132 -228.531208 
L 128.1885 -228.531208 
L 124.620867 -228.531208 
L 121.053235 -228.531208 
L 117.485603 -218.287038 
L 113.91797 -207.517527 
L 110.350338 -207.517527 
L 106.782705 -207.517527 
L 103.215073 -202.395442 
L 99.647441 -207.517527 
L 96.079808 -197.010686 
L 92.512176 -186.503846 
L 88.944544 -176.128341 
L 85.376911 -170.874921 
L 81.809279 -165.490165 
L 78.241646 -155.11466 
L 74.674014 -154.983325 
L 71.106382 -144.476485 
L 67.538749 -144.476485 
L 63.971117 -123.462804 
L 60.403485 -112.955963 
L 56.835852 -81.435442 
z
" id="m58922c9da9" style="stroke:#98df8a;stroke-opacity:0.2;"/>
    </defs>
    <g clip-path="url(#pe466f3beb3)">
     <use style="fill:#98df8a;fill-opacity:0.2;stroke:#98df8a;stroke-opacity:0.2;" x="0" xlink:href="#m58922c9da9" y="325.986375"/>
    </g>
   </g>
   <g id="PolyCollection_3">
    <defs>
     <path d="M 56.835852 -91.942283 
L 56.835852 -60.421761 
L 60.403485 -81.435442 
L 63.971117 -91.942283 
L 67.538749 -81.435442 
L 71.106382 -112.955963 
L 74.674014 -112.955963 
L 78.241646 -123.462804 
L 81.809279 -123.462804 
L 85.376911 -133.969644 
L 88.944544 -139.223064 
L 92.512176 -133.969644 
L 96.079808 -133.969644 
L 99.647441 -133.969644 
L 103.215073 -154.983325 
L 106.782705 -144.345149 
L 110.350338 -144.476485 
L 113.91797 -154.983325 
L 117.485603 -154.983325 
L 121.053235 -149.729905 
L 124.620867 -154.983325 
L 128.1885 -154.983325 
L 131.756132 -165.490165 
L 135.323764 -170.743586 
L 138.891397 -160.236745 
L 142.459029 -165.490165 
L 146.026661 -165.490165 
L 149.594294 -170.743586 
L 153.161926 -175.997006 
L 156.729559 -165.490165 
L 160.297191 -165.490165 
L 163.864823 -175.997006 
L 167.432456 -175.997006 
L 171.000088 -186.241175 
L 174.56772 -165.490165 
L 178.135353 -186.503846 
L 181.702985 -191.757266 
L 185.270618 -186.503846 
L 188.83825 -186.503846 
L 192.405882 -191.625931 
L 195.973515 -186.503846 
L 199.541147 -197.010686 
L 203.108779 -197.010686 
L 206.676412 -197.010686 
L 210.244044 -197.010686 
L 213.811676 -186.503846 
L 217.379309 -186.503846 
L 220.946941 -197.010686 
L 224.514574 -186.503846 
L 228.082206 -196.879351 
L 231.649838 -197.010686 
L 235.217471 -197.010686 
L 238.785103 -197.010686 
L 242.352735 -197.010686 
L 245.920368 -197.010686 
L 249.488 -197.010686 
L 253.055632 -197.010686 
L 256.623265 -197.010686 
L 260.190897 -197.010686 
L 263.75853 -207.254856 
L 267.326162 -207.517527 
L 270.893794 -197.010686 
L 274.461427 -197.010686 
L 278.029059 -207.517527 
L 281.596691 -197.010686 
L 285.164324 -197.010686 
L 288.731956 -197.010686 
L 292.299589 -197.010686 
L 295.867221 -197.010686 
L 299.434853 -197.010686 
L 303.002486 -197.010686 
L 306.570118 -197.010686 
L 310.13775 -197.010686 
L 313.705383 -197.010686 
L 317.273015 -197.010686 
L 320.840647 -197.010686 
L 324.40828 -202.264107 
L 327.975912 -197.010686 
L 331.543545 -197.010686 
L 335.111177 -197.010686 
L 338.678809 -197.010686 
L 342.246442 -207.517527 
L 345.814074 -207.517527 
L 349.381706 -207.517527 
L 352.949339 -207.517527 
L 356.516971 -207.517527 
L 360.084604 -207.517527 
L 363.652236 -217.761696 
L 367.219868 -207.517527 
L 370.787501 -207.517527 
L 374.355133 -207.517527 
L 377.922765 -207.517527 
L 381.490398 -207.517527 
L 381.490398 -249.544888 
L 381.490398 -249.544888 
L 377.922765 -249.544888 
L 374.355133 -249.544888 
L 370.787501 -249.544888 
L 367.219868 -249.544888 
L 363.652236 -249.544888 
L 360.084604 -239.038048 
L 356.516971 -244.291468 
L 352.949339 -239.169384 
L 349.381706 -239.038048 
L 345.814074 -239.038048 
L 342.246442 -239.038048 
L 338.678809 -239.038048 
L 335.111177 -233.784628 
L 331.543545 -239.038048 
L 327.975912 -233.784628 
L 324.40828 -239.038048 
L 320.840647 -239.038048 
L 317.273015 -228.531208 
L 313.705383 -233.784628 
L 310.13775 -228.531208 
L 306.570118 -239.038048 
L 303.002486 -228.531208 
L 299.434853 -228.531208 
L 295.867221 -228.531208 
L 292.299589 -228.531208 
L 288.731956 -228.531208 
L 285.164324 -228.531208 
L 281.596691 -228.531208 
L 278.029059 -228.531208 
L 274.461427 -228.793879 
L 270.893794 -228.531208 
L 267.326162 -228.531208 
L 263.75853 -228.793879 
L 260.190897 -218.024367 
L 256.623265 -218.024367 
L 253.055632 -218.024367 
L 249.488 -218.024367 
L 245.920368 -218.024367 
L 242.352735 -218.024367 
L 238.785103 -218.024367 
L 235.217471 -218.024367 
L 231.649838 -218.024367 
L 228.082206 -218.024367 
L 224.514574 -218.024367 
L 220.946941 -218.024367 
L 217.379309 -218.024367 
L 213.811676 -218.024367 
L 210.244044 -218.024367 
L 206.676412 -218.024367 
L 203.108779 -218.024367 
L 199.541147 -218.024367 
L 195.973515 -218.024367 
L 192.405882 -218.024367 
L 188.83825 -218.024367 
L 185.270618 -218.024367 
L 181.702985 -218.024367 
L 178.135353 -218.024367 
L 174.56772 -218.024367 
L 171.000088 -207.517527 
L 167.432456 -207.517527 
L 163.864823 -218.024367 
L 160.297191 -207.517527 
L 156.729559 -218.024367 
L 153.161926 -207.517527 
L 149.594294 -207.517527 
L 146.026661 -197.010686 
L 142.459029 -207.517527 
L 138.891397 -202.264107 
L 135.323764 -207.517527 
L 131.756132 -202.264107 
L 128.1885 -202.264107 
L 124.620867 -197.010686 
L 121.053235 -197.010686 
L 117.485603 -197.010686 
L 113.91797 -197.010686 
L 110.350338 -197.010686 
L 106.782705 -186.503846 
L 103.215073 -197.010686 
L 99.647441 -186.503846 
L 96.079808 -175.997006 
L 92.512176 -175.997006 
L 88.944544 -175.997006 
L 85.376911 -165.490165 
L 81.809279 -154.983325 
L 78.241646 -149.729905 
L 74.674014 -144.476485 
L 71.106382 -133.969644 
L 67.538749 -123.462804 
L 63.971117 -123.462804 
L 60.403485 -102.449123 
L 56.835852 -91.942283 
z
" id="m7574c255dd" style="stroke:#d62728;stroke-opacity:0.2;"/>
    </defs>
    <g clip-path="url(#pe466f3beb3)">
     <use style="fill:#d62728;fill-opacity:0.2;stroke:#d62728;stroke-opacity:0.2;" x="0" xlink:href="#m7574c255dd" y="325.986375"/>
    </g>
   </g>
   <g id="matplotlib.axis_1">
    <g id="xtick_1">
     <g id="line2d_1">
      <defs>
       <path d="M 0 0 
L 0 3.5 
" id="m65e8d4a49e" style="stroke:#000000;stroke-width:0.8;"/>
      </defs>
      <g>
       <use style="stroke:#000000;stroke-width:0.8;" x="56.835852" xlink:href="#m65e8d4a49e" y="288.430125"/>
      </g>
     </g>
     <g id="text_1">
      <!-- 15m -->
      <g transform="translate(45.60304 303.028562)scale(0.1 -0.1)">
       <defs>
        <path d="M 794 531 
L 1825 531 
L 1825 4091 
L 703 3866 
L 703 4441 
L 1819 4666 
L 2450 4666 
L 2450 531 
L 3481 531 
L 3481 0 
L 794 0 
L 794 531 
z
" id="DejaVuSans-31" transform="scale(0.015625)"/>
        <path d="M 691 4666 
L 3169 4666 
L 3169 4134 
L 1269 4134 
L 1269 2991 
Q 1406 3038 1543 3061 
Q 1681 3084 1819 3084 
Q 2600 3084 3056 2656 
Q 3513 2228 3513 1497 
Q 3513 744 3044 326 
Q 2575 -91 1722 -91 
Q 1428 -91 1123 -41 
Q 819 9 494 109 
L 494 744 
Q 775 591 1075 516 
Q 1375 441 1709 441 
Q 2250 441 2565 725 
Q 2881 1009 2881 1497 
Q 2881 1984 2565 2268 
Q 2250 2553 1709 2553 
Q 1456 2553 1204 2497 
Q 953 2441 691 2322 
L 691 4666 
z
" id="DejaVuSans-35" transform="scale(0.015625)"/>
        <path d="M 3328 2828 
Q 3544 3216 3844 3400 
Q 4144 3584 4550 3584 
Q 5097 3584 5394 3201 
Q 5691 2819 5691 2113 
L 5691 0 
L 5113 0 
L 5113 2094 
Q 5113 2597 4934 2840 
Q 4756 3084 4391 3084 
Q 3944 3084 3684 2787 
Q 3425 2491 3425 1978 
L 3425 0 
L 2847 0 
L 2847 2094 
Q 2847 2600 2669 2842 
Q 2491 3084 2119 3084 
Q 1678 3084 1418 2786 
Q 1159 2488 1159 1978 
L 1159 0 
L 581 0 
L 581 3500 
L 1159 3500 
L 1159 2956 
Q 1356 3278 1631 3431 
Q 1906 3584 2284 3584 
Q 2666 3584 2933 3390 
Q 3200 3197 3328 2828 
z
" id="DejaVuSans-6d" transform="scale(0.015625)"/>
       </defs>
       <use xlink:href="#DejaVuSans-31"/>
       <use x="63.623047" xlink:href="#DejaVuSans-35"/>
       <use x="127.246094" xlink:href="#DejaVuSans-6d"/>
      </g>
     </g>
    </g>
    <g id="xtick_2">
     <g id="line2d_2">
      <g>
       <use style="stroke:#000000;stroke-width:0.8;" x="111.539549" xlink:href="#m65e8d4a49e" y="288.430125"/>
      </g>
     </g>
     <g id="text_2">
      <!-- 4h:5m -->
      <g transform="translate(95.453611 303.028562)scale(0.1 -0.1)">
       <defs>
        <path d="M 2419 4116 
L 825 1625 
L 2419 1625 
L 2419 4116 
z
M 2253 4666 
L 3047 4666 
L 3047 1625 
L 3713 1625 
L 3713 1100 
L 3047 1100 
L 3047 0 
L 2419 0 
L 2419 1100 
L 313 1100 
L 313 1709 
L 2253 4666 
z
" id="DejaVuSans-34" transform="scale(0.015625)"/>
        <path d="M 3513 2113 
L 3513 0 
L 2938 0 
L 2938 2094 
Q 2938 2591 2744 2837 
Q 2550 3084 2163 3084 
Q 1697 3084 1428 2787 
Q 1159 2491 1159 1978 
L 1159 0 
L 581 0 
L 581 4863 
L 1159 4863 
L 1159 2956 
Q 1366 3272 1645 3428 
Q 1925 3584 2291 3584 
Q 2894 3584 3203 3211 
Q 3513 2838 3513 2113 
z
" id="DejaVuSans-68" transform="scale(0.015625)"/>
        <path d="M 750 794 
L 1409 794 
L 1409 0 
L 750 0 
L 750 794 
z
M 750 3309 
L 1409 3309 
L 1409 2516 
L 750 2516 
L 750 3309 
z
" id="DejaVuSans-3a" transform="scale(0.015625)"/>
       </defs>
       <use xlink:href="#DejaVuSans-34"/>
       <use x="63.623047" xlink:href="#DejaVuSans-68"/>
       <use x="127.001953" xlink:href="#DejaVuSans-3a"/>
       <use x="160.693359" xlink:href="#DejaVuSans-35"/>
       <use x="224.316406" xlink:href="#DejaVuSans-6d"/>
      </g>
     </g>
    </g>
    <g id="xtick_3">
     <g id="line2d_3">
      <g>
       <use style="stroke:#000000;stroke-width:0.8;" x="166.243245" xlink:href="#m65e8d4a49e" y="288.430125"/>
      </g>
     </g>
     <g id="text_3">
      <!-- 7h:55m -->
      <g transform="translate(146.976057 303.028562)scale(0.1 -0.1)">
       <defs>
        <path d="M 525 4666 
L 3525 4666 
L 3525 4397 
L 1831 0 
L 1172 0 
L 2766 4134 
L 525 4134 
L 525 4666 
z
" id="DejaVuSans-37" transform="scale(0.015625)"/>
       </defs>
       <use xlink:href="#DejaVuSans-37"/>
       <use x="63.623047" xlink:href="#DejaVuSans-68"/>
       <use x="127.001953" xlink:href="#DejaVuSans-3a"/>
       <use x="160.693359" xlink:href="#DejaVuSans-35"/>
       <use x="224.316406" xlink:href="#DejaVuSans-35"/>
       <use x="287.939453" xlink:href="#DejaVuSans-6d"/>
      </g>
     </g>
    </g>
    <g id="xtick_4">
     <g id="line2d_4">
      <g>
       <use style="stroke:#000000;stroke-width:0.8;" x="220.946941" xlink:href="#m65e8d4a49e" y="288.430125"/>
      </g>
     </g>
     <g id="text_4">
      <!-- 11h:45m -->
      <g transform="translate(198.498504 303.028562)scale(0.1 -0.1)">
       <use xlink:href="#DejaVuSans-31"/>
       <use x="63.623047" xlink:href="#DejaVuSans-31"/>
       <use x="127.246094" xlink:href="#DejaVuSans-68"/>
       <use x="190.625" xlink:href="#DejaVuSans-3a"/>
       <use x="224.316406" xlink:href="#DejaVuSans-34"/>
       <use x="287.939453" xlink:href="#DejaVuSans-35"/>
       <use x="351.5625" xlink:href="#DejaVuSans-6d"/>
      </g>
     </g>
    </g>
    <g id="xtick_5">
     <g id="line2d_5">
      <g>
       <use style="stroke:#000000;stroke-width:0.8;" x="275.650637" xlink:href="#m65e8d4a49e" y="288.430125"/>
      </g>
     </g>
     <g id="text_5">
      <!-- 15h:35m -->
      <g transform="translate(253.2022 303.028562)scale(0.1 -0.1)">
       <defs>
        <path d="M 2597 2516 
Q 3050 2419 3304 2112 
Q 3559 1806 3559 1356 
Q 3559 666 3084 287 
Q 2609 -91 1734 -91 
Q 1441 -91 1130 -33 
Q 819 25 488 141 
L 488 750 
Q 750 597 1062 519 
Q 1375 441 1716 441 
Q 2309 441 2620 675 
Q 2931 909 2931 1356 
Q 2931 1769 2642 2001 
Q 2353 2234 1838 2234 
L 1294 2234 
L 1294 2753 
L 1863 2753 
Q 2328 2753 2575 2939 
Q 2822 3125 2822 3475 
Q 2822 3834 2567 4026 
Q 2313 4219 1838 4219 
Q 1578 4219 1281 4162 
Q 984 4106 628 3988 
L 628 4550 
Q 988 4650 1302 4700 
Q 1616 4750 1894 4750 
Q 2613 4750 3031 4423 
Q 3450 4097 3450 3541 
Q 3450 3153 3228 2886 
Q 3006 2619 2597 2516 
z
" id="DejaVuSans-33" transform="scale(0.015625)"/>
       </defs>
       <use xlink:href="#DejaVuSans-31"/>
       <use x="63.623047" xlink:href="#DejaVuSans-35"/>
       <use x="127.246094" xlink:href="#DejaVuSans-68"/>
       <use x="190.625" xlink:href="#DejaVuSans-3a"/>
       <use x="224.316406" xlink:href="#DejaVuSans-33"/>
       <use x="287.939453" xlink:href="#DejaVuSans-35"/>
       <use x="351.5625" xlink:href="#DejaVuSans-6d"/>
      </g>
     </g>
    </g>
    <g id="xtick_6">
     <g id="line2d_6">
      <g>
       <use style="stroke:#000000;stroke-width:0.8;" x="330.354334" xlink:href="#m65e8d4a49e" y="288.430125"/>
      </g>
     </g>
     <g id="text_6">
      <!-- 19h:25m -->
      <g transform="translate(307.905896 303.028562)scale(0.1 -0.1)">
       <defs>
        <path d="M 703 97 
L 703 672 
Q 941 559 1184 500 
Q 1428 441 1663 441 
Q 2288 441 2617 861 
Q 2947 1281 2994 2138 
Q 2813 1869 2534 1725 
Q 2256 1581 1919 1581 
Q 1219 1581 811 2004 
Q 403 2428 403 3163 
Q 403 3881 828 4315 
Q 1253 4750 1959 4750 
Q 2769 4750 3195 4129 
Q 3622 3509 3622 2328 
Q 3622 1225 3098 567 
Q 2575 -91 1691 -91 
Q 1453 -91 1209 -44 
Q 966 3 703 97 
z
M 1959 2075 
Q 2384 2075 2632 2365 
Q 2881 2656 2881 3163 
Q 2881 3666 2632 3958 
Q 2384 4250 1959 4250 
Q 1534 4250 1286 3958 
Q 1038 3666 1038 3163 
Q 1038 2656 1286 2365 
Q 1534 2075 1959 2075 
z
" id="DejaVuSans-39" transform="scale(0.015625)"/>
        <path d="M 1228 531 
L 3431 531 
L 3431 0 
L 469 0 
L 469 531 
Q 828 903 1448 1529 
Q 2069 2156 2228 2338 
Q 2531 2678 2651 2914 
Q 2772 3150 2772 3378 
Q 2772 3750 2511 3984 
Q 2250 4219 1831 4219 
Q 1534 4219 1204 4116 
Q 875 4013 500 3803 
L 500 4441 
Q 881 4594 1212 4672 
Q 1544 4750 1819 4750 
Q 2544 4750 2975 4387 
Q 3406 4025 3406 3419 
Q 3406 3131 3298 2873 
Q 3191 2616 2906 2266 
Q 2828 2175 2409 1742 
Q 1991 1309 1228 531 
z
" id="DejaVuSans-32" transform="scale(0.015625)"/>
       </defs>
       <use xlink:href="#DejaVuSans-31"/>
       <use x="63.623047" xlink:href="#DejaVuSans-39"/>
       <use x="127.246094" xlink:href="#DejaVuSans-68"/>
       <use x="190.625" xlink:href="#DejaVuSans-3a"/>
       <use x="224.316406" xlink:href="#DejaVuSans-32"/>
       <use x="287.939453" xlink:href="#DejaVuSans-35"/>
       <use x="351.5625" xlink:href="#DejaVuSans-6d"/>
      </g>
     </g>
    </g>
    <g id="text_7">
     <!-- Time (hour:minute) -->
     <g transform="translate(170.756094 316.706687)scale(0.1 -0.1)">
      <defs>
       <path d="M -19 4666 
L 3928 4666 
L 3928 4134 
L 2272 4134 
L 2272 0 
L 1638 0 
L 1638 4134 
L -19 4134 
L -19 4666 
z
" id="DejaVuSans-54" transform="scale(0.015625)"/>
       <path d="M 603 3500 
L 1178 3500 
L 1178 0 
L 603 0 
L 603 3500 
z
M 603 4863 
L 1178 4863 
L 1178 4134 
L 603 4134 
L 603 4863 
z
" id="DejaVuSans-69" transform="scale(0.015625)"/>
       <path d="M 3597 1894 
L 3597 1613 
L 953 1613 
Q 991 1019 1311 708 
Q 1631 397 2203 397 
Q 2534 397 2845 478 
Q 3156 559 3463 722 
L 3463 178 
Q 3153 47 2828 -22 
Q 2503 -91 2169 -91 
Q 1331 -91 842 396 
Q 353 884 353 1716 
Q 353 2575 817 3079 
Q 1281 3584 2069 3584 
Q 2775 3584 3186 3129 
Q 3597 2675 3597 1894 
z
M 3022 2063 
Q 3016 2534 2758 2815 
Q 2500 3097 2075 3097 
Q 1594 3097 1305 2825 
Q 1016 2553 972 2059 
L 3022 2063 
z
" id="DejaVuSans-65" transform="scale(0.015625)"/>
       <path id="DejaVuSans-20" transform="scale(0.015625)"/>
       <path d="M 1984 4856 
Q 1566 4138 1362 3434 
Q 1159 2731 1159 2009 
Q 1159 1288 1364 580 
Q 1569 -128 1984 -844 
L 1484 -844 
Q 1016 -109 783 600 
Q 550 1309 550 2009 
Q 550 2706 781 3412 
Q 1013 4119 1484 4856 
L 1984 4856 
z
" id="DejaVuSans-28" transform="scale(0.015625)"/>
       <path d="M 1959 3097 
Q 1497 3097 1228 2736 
Q 959 2375 959 1747 
Q 959 1119 1226 758 
Q 1494 397 1959 397 
Q 2419 397 2687 759 
Q 2956 1122 2956 1747 
Q 2956 2369 2687 2733 
Q 2419 3097 1959 3097 
z
M 1959 3584 
Q 2709 3584 3137 3096 
Q 3566 2609 3566 1747 
Q 3566 888 3137 398 
Q 2709 -91 1959 -91 
Q 1206 -91 779 398 
Q 353 888 353 1747 
Q 353 2609 779 3096 
Q 1206 3584 1959 3584 
z
" id="DejaVuSans-6f" transform="scale(0.015625)"/>
       <path d="M 544 1381 
L 544 3500 
L 1119 3500 
L 1119 1403 
Q 1119 906 1312 657 
Q 1506 409 1894 409 
Q 2359 409 2629 706 
Q 2900 1003 2900 1516 
L 2900 3500 
L 3475 3500 
L 3475 0 
L 2900 0 
L 2900 538 
Q 2691 219 2414 64 
Q 2138 -91 1772 -91 
Q 1169 -91 856 284 
Q 544 659 544 1381 
z
M 1991 3584 
L 1991 3584 
z
" id="DejaVuSans-75" transform="scale(0.015625)"/>
       <path d="M 2631 2963 
Q 2534 3019 2420 3045 
Q 2306 3072 2169 3072 
Q 1681 3072 1420 2755 
Q 1159 2438 1159 1844 
L 1159 0 
L 581 0 
L 581 3500 
L 1159 3500 
L 1159 2956 
Q 1341 3275 1631 3429 
Q 1922 3584 2338 3584 
Q 2397 3584 2469 3576 
Q 2541 3569 2628 3553 
L 2631 2963 
z
" id="DejaVuSans-72" transform="scale(0.015625)"/>
       <path d="M 3513 2113 
L 3513 0 
L 2938 0 
L 2938 2094 
Q 2938 2591 2744 2837 
Q 2550 3084 2163 3084 
Q 1697 3084 1428 2787 
Q 1159 2491 1159 1978 
L 1159 0 
L 581 0 
L 581 3500 
L 1159 3500 
L 1159 2956 
Q 1366 3272 1645 3428 
Q 1925 3584 2291 3584 
Q 2894 3584 3203 3211 
Q 3513 2838 3513 2113 
z
" id="DejaVuSans-6e" transform="scale(0.015625)"/>
       <path d="M 1172 4494 
L 1172 3500 
L 2356 3500 
L 2356 3053 
L 1172 3053 
L 1172 1153 
Q 1172 725 1289 603 
Q 1406 481 1766 481 
L 2356 481 
L 2356 0 
L 1766 0 
Q 1100 0 847 248 
Q 594 497 594 1153 
L 594 3053 
L 172 3053 
L 172 3500 
L 594 3500 
L 594 4494 
L 1172 4494 
z
" id="DejaVuSans-74" transform="scale(0.015625)"/>
       <path d="M 513 4856 
L 1013 4856 
Q 1481 4119 1714 3412 
Q 1947 2706 1947 2009 
Q 1947 1309 1714 600 
Q 1481 -109 1013 -844 
L 513 -844 
Q 928 -128 1133 580 
Q 1338 1288 1338 2009 
Q 1338 2731 1133 3434 
Q 928 4138 513 4856 
z
" id="DejaVuSans-29" transform="scale(0.015625)"/>
      </defs>
      <use xlink:href="#DejaVuSans-54"/>
      <use x="57.958984" xlink:href="#DejaVuSans-69"/>
      <use x="85.742188" xlink:href="#DejaVuSans-6d"/>
      <use x="183.154297" xlink:href="#DejaVuSans-65"/>
      <use x="244.677734" xlink:href="#DejaVuSans-20"/>
      <use x="276.464844" xlink:href="#DejaVuSans-28"/>
      <use x="315.478516" xlink:href="#DejaVuSans-68"/>
      <use x="378.857422" xlink:href="#DejaVuSans-6f"/>
      <use x="440.039062" xlink:href="#DejaVuSans-75"/>
      <use x="503.417969" xlink:href="#DejaVuSans-72"/>
      <use x="542.78125" xlink:href="#DejaVuSans-3a"/>
      <use x="576.472656" xlink:href="#DejaVuSans-6d"/>
      <use x="673.884766" xlink:href="#DejaVuSans-69"/>
      <use x="701.667969" xlink:href="#DejaVuSans-6e"/>
      <use x="765.046875" xlink:href="#DejaVuSans-75"/>
      <use x="828.425781" xlink:href="#DejaVuSans-74"/>
      <use x="867.634766" xlink:href="#DejaVuSans-65"/>
      <use x="929.158203" xlink:href="#DejaVuSans-29"/>
     </g>
    </g>
   </g>
   <g id="matplotlib.axis_2">
    <g id="ytick_1">
     <g id="line2d_7">
      <defs>
       <path d="M 0 0 
L -3.5 0 
" id="m6932f003e4" style="stroke:#000000;stroke-width:0.8;"/>
      </defs>
      <g>
       <use style="stroke:#000000;stroke-width:0.8;" x="40.603125" xlink:href="#m6932f003e4" y="286.578294"/>
      </g>
     </g>
     <g id="text_8">
      <!-- 20 -->
      <g transform="translate(20.878125 290.377513)scale(0.1 -0.1)">
       <defs>
        <path d="M 2034 4250 
Q 1547 4250 1301 3770 
Q 1056 3291 1056 2328 
Q 1056 1369 1301 889 
Q 1547 409 2034 409 
Q 2525 409 2770 889 
Q 3016 1369 3016 2328 
Q 3016 3291 2770 3770 
Q 2525 4250 2034 4250 
z
M 2034 4750 
Q 2819 4750 3233 4129 
Q 3647 3509 3647 2328 
Q 3647 1150 3233 529 
Q 2819 -91 2034 -91 
Q 1250 -91 836 529 
Q 422 1150 422 2328 
Q 422 3509 836 4129 
Q 1250 4750 2034 4750 
z
" id="DejaVuSans-30" transform="scale(0.015625)"/>
       </defs>
       <use xlink:href="#DejaVuSans-32"/>
       <use x="63.623047" xlink:href="#DejaVuSans-30"/>
      </g>
     </g>
    </g>
    <g id="ytick_2">
     <g id="line2d_8">
      <g>
       <use style="stroke:#000000;stroke-width:0.8;" x="40.603125" xlink:href="#m6932f003e4" y="234.044092"/>
      </g>
     </g>
     <g id="text_9">
      <!-- 25 -->
      <g transform="translate(20.878125 237.843311)scale(0.1 -0.1)">
       <use xlink:href="#DejaVuSans-32"/>
       <use x="63.623047" xlink:href="#DejaVuSans-35"/>
      </g>
     </g>
    </g>
    <g id="ytick_3">
     <g id="line2d_9">
      <g>
       <use style="stroke:#000000;stroke-width:0.8;" x="40.603125" xlink:href="#m6932f003e4" y="181.50989"/>
      </g>
     </g>
     <g id="text_10">
      <!-- 30 -->
      <g transform="translate(20.878125 185.309109)scale(0.1 -0.1)">
       <use xlink:href="#DejaVuSans-33"/>
       <use x="63.623047" xlink:href="#DejaVuSans-30"/>
      </g>
     </g>
    </g>
    <g id="ytick_4">
     <g id="line2d_10">
      <g>
       <use style="stroke:#000000;stroke-width:0.8;" x="40.603125" xlink:href="#m6932f003e4" y="128.975689"/>
      </g>
     </g>
     <g id="text_11">
      <!-- 35 -->
      <g transform="translate(20.878125 132.774907)scale(0.1 -0.1)">
       <use xlink:href="#DejaVuSans-33"/>
       <use x="63.623047" xlink:href="#DejaVuSans-35"/>
      </g>
     </g>
    </g>
    <g id="ytick_5">
     <g id="line2d_11">
      <g>
       <use style="stroke:#000000;stroke-width:0.8;" x="40.603125" xlink:href="#m6932f003e4" y="76.441487"/>
      </g>
     </g>
     <g id="text_12">
      <!-- 40 -->
      <g transform="translate(20.878125 80.240705)scale(0.1 -0.1)">
       <use xlink:href="#DejaVuSans-34"/>
       <use x="63.623047" xlink:href="#DejaVuSans-30"/>
      </g>
     </g>
    </g>
    <g id="ytick_6">
     <g id="line2d_12">
      <g>
       <use style="stroke:#000000;stroke-width:0.8;" x="40.603125" xlink:href="#m6932f003e4" y="23.907285"/>
      </g>
     </g>
     <g id="text_13">
      <!-- 45 -->
      <g transform="translate(20.878125 27.706503)scale(0.1 -0.1)">
       <use xlink:href="#DejaVuSans-34"/>
       <use x="63.623047" xlink:href="#DejaVuSans-35"/>
      </g>
     </g>
    </g>
    <g id="text_14">
     <!-- Bug coverage -->
     <g transform="translate(14.798438 189.951469)rotate(-90)scale(0.1 -0.1)">
      <defs>
       <path d="M 1259 2228 
L 1259 519 
L 2272 519 
Q 2781 519 3026 730 
Q 3272 941 3272 1375 
Q 3272 1813 3026 2020 
Q 2781 2228 2272 2228 
L 1259 2228 
z
M 1259 4147 
L 1259 2741 
L 2194 2741 
Q 2656 2741 2882 2914 
Q 3109 3088 3109 3444 
Q 3109 3797 2882 3972 
Q 2656 4147 2194 4147 
L 1259 4147 
z
M 628 4666 
L 2241 4666 
Q 2963 4666 3353 4366 
Q 3744 4066 3744 3513 
Q 3744 3084 3544 2831 
Q 3344 2578 2956 2516 
Q 3422 2416 3680 2098 
Q 3938 1781 3938 1306 
Q 3938 681 3513 340 
Q 3088 0 2303 0 
L 628 0 
L 628 4666 
z
" id="DejaVuSans-42" transform="scale(0.015625)"/>
       <path d="M 2906 1791 
Q 2906 2416 2648 2759 
Q 2391 3103 1925 3103 
Q 1463 3103 1205 2759 
Q 947 2416 947 1791 
Q 947 1169 1205 825 
Q 1463 481 1925 481 
Q 2391 481 2648 825 
Q 2906 1169 2906 1791 
z
M 3481 434 
Q 3481 -459 3084 -895 
Q 2688 -1331 1869 -1331 
Q 1566 -1331 1297 -1286 
Q 1028 -1241 775 -1147 
L 775 -588 
Q 1028 -725 1275 -790 
Q 1522 -856 1778 -856 
Q 2344 -856 2625 -561 
Q 2906 -266 2906 331 
L 2906 616 
Q 2728 306 2450 153 
Q 2172 0 1784 0 
Q 1141 0 747 490 
Q 353 981 353 1791 
Q 353 2603 747 3093 
Q 1141 3584 1784 3584 
Q 2172 3584 2450 3431 
Q 2728 3278 2906 2969 
L 2906 3500 
L 3481 3500 
L 3481 434 
z
" id="DejaVuSans-67" transform="scale(0.015625)"/>
       <path d="M 3122 3366 
L 3122 2828 
Q 2878 2963 2633 3030 
Q 2388 3097 2138 3097 
Q 1578 3097 1268 2742 
Q 959 2388 959 1747 
Q 959 1106 1268 751 
Q 1578 397 2138 397 
Q 2388 397 2633 464 
Q 2878 531 3122 666 
L 3122 134 
Q 2881 22 2623 -34 
Q 2366 -91 2075 -91 
Q 1284 -91 818 406 
Q 353 903 353 1747 
Q 353 2603 823 3093 
Q 1294 3584 2113 3584 
Q 2378 3584 2631 3529 
Q 2884 3475 3122 3366 
z
" id="DejaVuSans-63" transform="scale(0.015625)"/>
       <path d="M 191 3500 
L 800 3500 
L 1894 563 
L 2988 3500 
L 3597 3500 
L 2284 0 
L 1503 0 
L 191 3500 
z
" id="DejaVuSans-76" transform="scale(0.015625)"/>
       <path d="M 2194 1759 
Q 1497 1759 1228 1600 
Q 959 1441 959 1056 
Q 959 750 1161 570 
Q 1363 391 1709 391 
Q 2188 391 2477 730 
Q 2766 1069 2766 1631 
L 2766 1759 
L 2194 1759 
z
M 3341 1997 
L 3341 0 
L 2766 0 
L 2766 531 
Q 2569 213 2275 61 
Q 1981 -91 1556 -91 
Q 1019 -91 701 211 
Q 384 513 384 1019 
Q 384 1609 779 1909 
Q 1175 2209 1959 2209 
L 2766 2209 
L 2766 2266 
Q 2766 2663 2505 2880 
Q 2244 3097 1772 3097 
Q 1472 3097 1187 3025 
Q 903 2953 641 2809 
L 641 3341 
Q 956 3463 1253 3523 
Q 1550 3584 1831 3584 
Q 2591 3584 2966 3190 
Q 3341 2797 3341 1997 
z
" id="DejaVuSans-61" transform="scale(0.015625)"/>
      </defs>
      <use xlink:href="#DejaVuSans-42"/>
      <use x="68.603516" xlink:href="#DejaVuSans-75"/>
      <use x="131.982422" xlink:href="#DejaVuSans-67"/>
      <use x="195.458984" xlink:href="#DejaVuSans-20"/>
      <use x="227.246094" xlink:href="#DejaVuSans-63"/>
      <use x="282.226562" xlink:href="#DejaVuSans-6f"/>
      <use x="343.408203" xlink:href="#DejaVuSans-76"/>
      <use x="402.587891" xlink:href="#DejaVuSans-65"/>
      <use x="464.111328" xlink:href="#DejaVuSans-72"/>
      <use x="505.224609" xlink:href="#DejaVuSans-61"/>
      <use x="566.503906" xlink:href="#DejaVuSans-67"/>
      <use x="629.980469" xlink:href="#DejaVuSans-65"/>
     </g>
    </g>
   </g>
   <g id="line2d_13">
    <path clip-path="url(#pe466f3beb3)" d="M 56.835852 255.057773 
L 60.403485 223.537252 
L 63.971117 202.523571 
L 67.538749 213.030412 
L 71.106382 186.763311 
L 74.674014 181.50989 
L 78.241646 171.00305 
L 81.809279 160.49621 
L 85.376911 160.49621 
L 88.944544 160.49621 
L 92.512176 160.49621 
L 96.079808 160.49621 
L 99.647441 149.989369 
L 103.215073 139.482529 
L 106.782705 139.482529 
L 110.350338 134.229109 
L 113.91797 128.975689 
L 117.485603 118.468848 
L 121.053235 123.722268 
L 124.620867 118.468848 
L 128.1885 123.722268 
L 131.756132 118.468848 
L 135.323764 123.722268 
L 138.891397 123.722268 
L 142.459029 107.962008 
L 146.026661 128.975689 
L 149.594294 107.962008 
L 153.161926 107.962008 
L 156.729559 107.962008 
L 160.297191 107.962008 
L 163.864823 107.962008 
L 167.432456 107.962008 
L 171.000088 118.468848 
L 174.56772 107.962008 
L 178.135353 107.962008 
L 181.702985 97.455167 
L 185.270618 97.455167 
L 188.83825 97.455167 
L 192.405882 92.201747 
L 195.973515 81.694907 
L 199.541147 92.201747 
L 203.108779 97.455167 
L 206.676412 86.948327 
L 210.244044 86.948327 
L 213.811676 86.948327 
L 217.379309 81.694907 
L 220.946941 81.694907 
L 224.514574 86.948327 
L 228.082206 81.694907 
L 231.649838 86.948327 
L 235.217471 86.948327 
L 238.785103 86.948327 
L 242.352735 86.948327 
L 245.920368 76.441487 
L 249.488 76.441487 
L 253.055632 76.441487 
L 256.623265 76.441487 
L 260.190897 86.948327 
L 263.75853 86.948327 
L 267.326162 86.948327 
L 270.893794 76.441487 
L 274.461427 86.948327 
L 278.029059 76.441487 
L 281.596691 71.188066 
L 285.164324 71.188066 
L 288.731956 71.188066 
L 292.299589 71.188066 
L 295.867221 65.934646 
L 299.434853 65.934646 
L 303.002486 65.934646 
L 306.570118 65.934646 
L 310.13775 65.934646 
L 313.705383 65.934646 
L 317.273015 60.681226 
L 320.840647 60.681226 
L 324.40828 65.934646 
L 327.975912 60.681226 
L 331.543545 60.681226 
L 335.111177 65.934646 
L 338.678809 65.934646 
L 342.246442 65.934646 
L 345.814074 65.934646 
L 349.381706 65.934646 
L 352.949339 65.934646 
L 356.516971 65.934646 
L 360.084604 65.934646 
L 363.652236 65.934646 
L 367.219868 65.934646 
L 370.787501 65.934646 
L 374.355133 65.934646 
L 377.922765 55.427806 
L 381.490398 65.934646 
" style="fill:none;stroke:#1f77b4;stroke-linecap:square;stroke-width:1.5;"/>
    <defs>
     <path d="M 0 3 
C 0.795609 3 1.55874 2.683901 2.12132 2.12132 
C 2.683901 1.55874 3 0.795609 3 0 
C 3 -0.795609 2.683901 -1.55874 2.12132 -2.12132 
C 1.55874 -2.683901 0.795609 -3 0 -3 
C -0.795609 -3 -1.55874 -2.683901 -2.12132 -2.12132 
C -2.683901 -1.55874 -3 -0.795609 -3 0 
C -3 0.795609 -2.683901 1.55874 -2.12132 2.12132 
C -1.55874 2.683901 -0.795609 3 0 3 
z
" id="m37e2f1d16e" style="stroke:#ffffff;stroke-width:0.75;"/>
    </defs>
    <g clip-path="url(#pe466f3beb3)">
     <use style="fill:#1f77b4;stroke:#ffffff;stroke-width:0.75;" x="56.835852" xlink:href="#m37e2f1d16e" y="255.057773"/>
     <use style="fill:#1f77b4;stroke:#ffffff;stroke-width:0.75;" x="60.403485" xlink:href="#m37e2f1d16e" y="223.537252"/>
     <use style="fill:#1f77b4;stroke:#ffffff;stroke-width:0.75;" x="63.971117" xlink:href="#m37e2f1d16e" y="202.523571"/>
     <use style="fill:#1f77b4;stroke:#ffffff;stroke-width:0.75;" x="67.538749" xlink:href="#m37e2f1d16e" y="213.030412"/>
     <use style="fill:#1f77b4;stroke:#ffffff;stroke-width:0.75;" x="71.106382" xlink:href="#m37e2f1d16e" y="186.763311"/>
     <use style="fill:#1f77b4;stroke:#ffffff;stroke-width:0.75;" x="74.674014" xlink:href="#m37e2f1d16e" y="181.50989"/>
     <use style="fill:#1f77b4;stroke:#ffffff;stroke-width:0.75;" x="78.241646" xlink:href="#m37e2f1d16e" y="171.00305"/>
     <use style="fill:#1f77b4;stroke:#ffffff;stroke-width:0.75;" x="81.809279" xlink:href="#m37e2f1d16e" y="160.49621"/>
     <use style="fill:#1f77b4;stroke:#ffffff;stroke-width:0.75;" x="85.376911" xlink:href="#m37e2f1d16e" y="160.49621"/>
     <use style="fill:#1f77b4;stroke:#ffffff;stroke-width:0.75;" x="88.944544" xlink:href="#m37e2f1d16e" y="160.49621"/>
     <use style="fill:#1f77b4;stroke:#ffffff;stroke-width:0.75;" x="92.512176" xlink:href="#m37e2f1d16e" y="160.49621"/>
     <use style="fill:#1f77b4;stroke:#ffffff;stroke-width:0.75;" x="96.079808" xlink:href="#m37e2f1d16e" y="160.49621"/>
     <use style="fill:#1f77b4;stroke:#ffffff;stroke-width:0.75;" x="99.647441" xlink:href="#m37e2f1d16e" y="149.989369"/>
     <use style="fill:#1f77b4;stroke:#ffffff;stroke-width:0.75;" x="103.215073" xlink:href="#m37e2f1d16e" y="139.482529"/>
     <use style="fill:#1f77b4;stroke:#ffffff;stroke-width:0.75;" x="106.782705" xlink:href="#m37e2f1d16e" y="139.482529"/>
     <use style="fill:#1f77b4;stroke:#ffffff;stroke-width:0.75;" x="110.350338" xlink:href="#m37e2f1d16e" y="134.229109"/>
     <use style="fill:#1f77b4;stroke:#ffffff;stroke-width:0.75;" x="113.91797" xlink:href="#m37e2f1d16e" y="128.975689"/>
     <use style="fill:#1f77b4;stroke:#ffffff;stroke-width:0.75;" x="117.485603" xlink:href="#m37e2f1d16e" y="118.468848"/>
     <use style="fill:#1f77b4;stroke:#ffffff;stroke-width:0.75;" x="121.053235" xlink:href="#m37e2f1d16e" y="123.722268"/>
     <use style="fill:#1f77b4;stroke:#ffffff;stroke-width:0.75;" x="124.620867" xlink:href="#m37e2f1d16e" y="118.468848"/>
     <use style="fill:#1f77b4;stroke:#ffffff;stroke-width:0.75;" x="128.1885" xlink:href="#m37e2f1d16e" y="123.722268"/>
     <use style="fill:#1f77b4;stroke:#ffffff;stroke-width:0.75;" x="131.756132" xlink:href="#m37e2f1d16e" y="118.468848"/>
     <use style="fill:#1f77b4;stroke:#ffffff;stroke-width:0.75;" x="135.323764" xlink:href="#m37e2f1d16e" y="123.722268"/>
     <use style="fill:#1f77b4;stroke:#ffffff;stroke-width:0.75;" x="138.891397" xlink:href="#m37e2f1d16e" y="123.722268"/>
     <use style="fill:#1f77b4;stroke:#ffffff;stroke-width:0.75;" x="142.459029" xlink:href="#m37e2f1d16e" y="107.962008"/>
     <use style="fill:#1f77b4;stroke:#ffffff;stroke-width:0.75;" x="146.026661" xlink:href="#m37e2f1d16e" y="128.975689"/>
     <use style="fill:#1f77b4;stroke:#ffffff;stroke-width:0.75;" x="149.594294" xlink:href="#m37e2f1d16e" y="107.962008"/>
     <use style="fill:#1f77b4;stroke:#ffffff;stroke-width:0.75;" x="153.161926" xlink:href="#m37e2f1d16e" y="107.962008"/>
     <use style="fill:#1f77b4;stroke:#ffffff;stroke-width:0.75;" x="156.729559" xlink:href="#m37e2f1d16e" y="107.962008"/>
     <use style="fill:#1f77b4;stroke:#ffffff;stroke-width:0.75;" x="160.297191" xlink:href="#m37e2f1d16e" y="107.962008"/>
     <use style="fill:#1f77b4;stroke:#ffffff;stroke-width:0.75;" x="163.864823" xlink:href="#m37e2f1d16e" y="107.962008"/>
     <use style="fill:#1f77b4;stroke:#ffffff;stroke-width:0.75;" x="167.432456" xlink:href="#m37e2f1d16e" y="107.962008"/>
     <use style="fill:#1f77b4;stroke:#ffffff;stroke-width:0.75;" x="171.000088" xlink:href="#m37e2f1d16e" y="118.468848"/>
     <use style="fill:#1f77b4;stroke:#ffffff;stroke-width:0.75;" x="174.56772" xlink:href="#m37e2f1d16e" y="107.962008"/>
     <use style="fill:#1f77b4;stroke:#ffffff;stroke-width:0.75;" x="178.135353" xlink:href="#m37e2f1d16e" y="107.962008"/>
     <use style="fill:#1f77b4;stroke:#ffffff;stroke-width:0.75;" x="181.702985" xlink:href="#m37e2f1d16e" y="97.455167"/>
     <use style="fill:#1f77b4;stroke:#ffffff;stroke-width:0.75;" x="185.270618" xlink:href="#m37e2f1d16e" y="97.455167"/>
     <use style="fill:#1f77b4;stroke:#ffffff;stroke-width:0.75;" x="188.83825" xlink:href="#m37e2f1d16e" y="97.455167"/>
     <use style="fill:#1f77b4;stroke:#ffffff;stroke-width:0.75;" x="192.405882" xlink:href="#m37e2f1d16e" y="92.201747"/>
     <use style="fill:#1f77b4;stroke:#ffffff;stroke-width:0.75;" x="195.973515" xlink:href="#m37e2f1d16e" y="81.694907"/>
     <use style="fill:#1f77b4;stroke:#ffffff;stroke-width:0.75;" x="199.541147" xlink:href="#m37e2f1d16e" y="92.201747"/>
     <use style="fill:#1f77b4;stroke:#ffffff;stroke-width:0.75;" x="203.108779" xlink:href="#m37e2f1d16e" y="97.455167"/>
     <use style="fill:#1f77b4;stroke:#ffffff;stroke-width:0.75;" x="206.676412" xlink:href="#m37e2f1d16e" y="86.948327"/>
     <use style="fill:#1f77b4;stroke:#ffffff;stroke-width:0.75;" x="210.244044" xlink:href="#m37e2f1d16e" y="86.948327"/>
     <use style="fill:#1f77b4;stroke:#ffffff;stroke-width:0.75;" x="213.811676" xlink:href="#m37e2f1d16e" y="86.948327"/>
     <use style="fill:#1f77b4;stroke:#ffffff;stroke-width:0.75;" x="217.379309" xlink:href="#m37e2f1d16e" y="81.694907"/>
     <use style="fill:#1f77b4;stroke:#ffffff;stroke-width:0.75;" x="220.946941" xlink:href="#m37e2f1d16e" y="81.694907"/>
     <use style="fill:#1f77b4;stroke:#ffffff;stroke-width:0.75;" x="224.514574" xlink:href="#m37e2f1d16e" y="86.948327"/>
     <use style="fill:#1f77b4;stroke:#ffffff;stroke-width:0.75;" x="228.082206" xlink:href="#m37e2f1d16e" y="81.694907"/>
     <use style="fill:#1f77b4;stroke:#ffffff;stroke-width:0.75;" x="231.649838" xlink:href="#m37e2f1d16e" y="86.948327"/>
     <use style="fill:#1f77b4;stroke:#ffffff;stroke-width:0.75;" x="235.217471" xlink:href="#m37e2f1d16e" y="86.948327"/>
     <use style="fill:#1f77b4;stroke:#ffffff;stroke-width:0.75;" x="238.785103" xlink:href="#m37e2f1d16e" y="86.948327"/>
     <use style="fill:#1f77b4;stroke:#ffffff;stroke-width:0.75;" x="242.352735" xlink:href="#m37e2f1d16e" y="86.948327"/>
     <use style="fill:#1f77b4;stroke:#ffffff;stroke-width:0.75;" x="245.920368" xlink:href="#m37e2f1d16e" y="76.441487"/>
     <use style="fill:#1f77b4;stroke:#ffffff;stroke-width:0.75;" x="249.488" xlink:href="#m37e2f1d16e" y="76.441487"/>
     <use style="fill:#1f77b4;stroke:#ffffff;stroke-width:0.75;" x="253.055632" xlink:href="#m37e2f1d16e" y="76.441487"/>
     <use style="fill:#1f77b4;stroke:#ffffff;stroke-width:0.75;" x="256.623265" xlink:href="#m37e2f1d16e" y="76.441487"/>
     <use style="fill:#1f77b4;stroke:#ffffff;stroke-width:0.75;" x="260.190897" xlink:href="#m37e2f1d16e" y="86.948327"/>
     <use style="fill:#1f77b4;stroke:#ffffff;stroke-width:0.75;" x="263.75853" xlink:href="#m37e2f1d16e" y="86.948327"/>
     <use style="fill:#1f77b4;stroke:#ffffff;stroke-width:0.75;" x="267.326162" xlink:href="#m37e2f1d16e" y="86.948327"/>
     <use style="fill:#1f77b4;stroke:#ffffff;stroke-width:0.75;" x="270.893794" xlink:href="#m37e2f1d16e" y="76.441487"/>
     <use style="fill:#1f77b4;stroke:#ffffff;stroke-width:0.75;" x="274.461427" xlink:href="#m37e2f1d16e" y="86.948327"/>
     <use style="fill:#1f77b4;stroke:#ffffff;stroke-width:0.75;" x="278.029059" xlink:href="#m37e2f1d16e" y="76.441487"/>
     <use style="fill:#1f77b4;stroke:#ffffff;stroke-width:0.75;" x="281.596691" xlink:href="#m37e2f1d16e" y="71.188066"/>
     <use style="fill:#1f77b4;stroke:#ffffff;stroke-width:0.75;" x="285.164324" xlink:href="#m37e2f1d16e" y="71.188066"/>
     <use style="fill:#1f77b4;stroke:#ffffff;stroke-width:0.75;" x="288.731956" xlink:href="#m37e2f1d16e" y="71.188066"/>
     <use style="fill:#1f77b4;stroke:#ffffff;stroke-width:0.75;" x="292.299589" xlink:href="#m37e2f1d16e" y="71.188066"/>
     <use style="fill:#1f77b4;stroke:#ffffff;stroke-width:0.75;" x="295.867221" xlink:href="#m37e2f1d16e" y="65.934646"/>
     <use style="fill:#1f77b4;stroke:#ffffff;stroke-width:0.75;" x="299.434853" xlink:href="#m37e2f1d16e" y="65.934646"/>
     <use style="fill:#1f77b4;stroke:#ffffff;stroke-width:0.75;" x="303.002486" xlink:href="#m37e2f1d16e" y="65.934646"/>
     <use style="fill:#1f77b4;stroke:#ffffff;stroke-width:0.75;" x="306.570118" xlink:href="#m37e2f1d16e" y="65.934646"/>
     <use style="fill:#1f77b4;stroke:#ffffff;stroke-width:0.75;" x="310.13775" xlink:href="#m37e2f1d16e" y="65.934646"/>
     <use style="fill:#1f77b4;stroke:#ffffff;stroke-width:0.75;" x="313.705383" xlink:href="#m37e2f1d16e" y="65.934646"/>
     <use style="fill:#1f77b4;stroke:#ffffff;stroke-width:0.75;" x="317.273015" xlink:href="#m37e2f1d16e" y="60.681226"/>
     <use style="fill:#1f77b4;stroke:#ffffff;stroke-width:0.75;" x="320.840647" xlink:href="#m37e2f1d16e" y="60.681226"/>
     <use style="fill:#1f77b4;stroke:#ffffff;stroke-width:0.75;" x="324.40828" xlink:href="#m37e2f1d16e" y="65.934646"/>
     <use style="fill:#1f77b4;stroke:#ffffff;stroke-width:0.75;" x="327.975912" xlink:href="#m37e2f1d16e" y="60.681226"/>
     <use style="fill:#1f77b4;stroke:#ffffff;stroke-width:0.75;" x="331.543545" xlink:href="#m37e2f1d16e" y="60.681226"/>
     <use style="fill:#1f77b4;stroke:#ffffff;stroke-width:0.75;" x="335.111177" xlink:href="#m37e2f1d16e" y="65.934646"/>
     <use style="fill:#1f77b4;stroke:#ffffff;stroke-width:0.75;" x="338.678809" xlink:href="#m37e2f1d16e" y="65.934646"/>
     <use style="fill:#1f77b4;stroke:#ffffff;stroke-width:0.75;" x="342.246442" xlink:href="#m37e2f1d16e" y="65.934646"/>
     <use style="fill:#1f77b4;stroke:#ffffff;stroke-width:0.75;" x="345.814074" xlink:href="#m37e2f1d16e" y="65.934646"/>
     <use style="fill:#1f77b4;stroke:#ffffff;stroke-width:0.75;" x="349.381706" xlink:href="#m37e2f1d16e" y="65.934646"/>
     <use style="fill:#1f77b4;stroke:#ffffff;stroke-width:0.75;" x="352.949339" xlink:href="#m37e2f1d16e" y="65.934646"/>
     <use style="fill:#1f77b4;stroke:#ffffff;stroke-width:0.75;" x="356.516971" xlink:href="#m37e2f1d16e" y="65.934646"/>
     <use style="fill:#1f77b4;stroke:#ffffff;stroke-width:0.75;" x="360.084604" xlink:href="#m37e2f1d16e" y="65.934646"/>
     <use style="fill:#1f77b4;stroke:#ffffff;stroke-width:0.75;" x="363.652236" xlink:href="#m37e2f1d16e" y="65.934646"/>
     <use style="fill:#1f77b4;stroke:#ffffff;stroke-width:0.75;" x="367.219868" xlink:href="#m37e2f1d16e" y="65.934646"/>
     <use style="fill:#1f77b4;stroke:#ffffff;stroke-width:0.75;" x="370.787501" xlink:href="#m37e2f1d16e" y="65.934646"/>
     <use style="fill:#1f77b4;stroke:#ffffff;stroke-width:0.75;" x="374.355133" xlink:href="#m37e2f1d16e" y="65.934646"/>
     <use style="fill:#1f77b4;stroke:#ffffff;stroke-width:0.75;" x="377.922765" xlink:href="#m37e2f1d16e" y="55.427806"/>
     <use style="fill:#1f77b4;stroke:#ffffff;stroke-width:0.75;" x="381.490398" xlink:href="#m37e2f1d16e" y="65.934646"/>
    </g>
   </g>
   <g id="line2d_14">
    <path clip-path="url(#pe466f3beb3)" d="M 56.835852 255.057773 
L 60.403485 223.537252 
L 63.971117 213.030412 
L 67.538749 192.016731 
L 71.106382 181.50989 
L 74.674014 181.50989 
L 78.241646 176.25647 
L 81.809279 171.00305 
L 85.376911 171.00305 
L 88.944544 171.00305 
L 92.512176 160.49621 
L 96.079808 149.989369 
L 99.647441 149.989369 
L 103.215073 149.989369 
L 106.782705 139.482529 
L 110.350338 139.482529 
L 113.91797 139.482529 
L 117.485603 128.975689 
L 121.053235 128.975689 
L 124.620867 118.468848 
L 128.1885 128.975689 
L 131.756132 139.482529 
L 135.323764 123.722268 
L 138.891397 118.468848 
L 142.459029 118.468848 
L 146.026661 107.962008 
L 149.594294 113.215428 
L 153.161926 113.215428 
L 156.729559 118.468848 
L 160.297191 118.468848 
L 163.864823 107.962008 
L 167.432456 102.708588 
L 171.000088 107.962008 
L 174.56772 107.962008 
L 178.135353 102.708588 
L 181.702985 102.708588 
L 185.270618 113.215428 
L 188.83825 97.455167 
L 192.405882 92.201747 
L 195.973515 97.455167 
L 199.541147 97.455167 
L 203.108779 97.455167 
L 206.676412 86.948327 
L 210.244044 76.441487 
L 213.811676 86.948327 
L 217.379309 76.441487 
L 220.946941 76.441487 
L 224.514574 76.441487 
L 228.082206 86.948327 
L 231.649838 76.441487 
L 235.217471 76.441487 
L 238.785103 86.948327 
L 242.352735 76.441487 
L 245.920368 86.948327 
L 249.488 76.441487 
L 253.055632 86.948327 
L 256.623265 76.441487 
L 260.190897 76.441487 
L 263.75853 76.441487 
L 267.326162 76.441487 
L 270.893794 76.441487 
L 274.461427 76.441487 
L 278.029059 76.441487 
L 281.596691 76.441487 
L 285.164324 76.441487 
L 288.731956 65.934646 
L 292.299589 71.188066 
L 295.867221 71.188066 
L 299.434853 71.188066 
L 303.002486 71.188066 
L 306.570118 65.934646 
L 310.13775 65.934646 
L 313.705383 65.934646 
L 317.273015 65.934646 
L 320.840647 65.934646 
L 324.40828 65.934646 
L 327.975912 65.934646 
L 331.543545 65.934646 
L 335.111177 65.934646 
L 338.678809 65.934646 
L 342.246442 65.934646 
L 345.814074 60.681226 
L 349.381706 65.934646 
L 352.949339 55.427806 
L 356.516971 71.188066 
L 360.084604 44.920965 
L 363.652236 65.934646 
L 367.219868 65.934646 
L 370.787501 44.920965 
L 374.355133 65.934646 
L 377.922765 65.934646 
L 381.490398 60.681226 
" style="fill:none;stroke:#98df8a;stroke-linecap:square;stroke-width:1.5;"/>
    <defs>
     <path d="M -0 3 
L 3 -3 
L -3 -3 
z
" id="m36edc081af" style="stroke:#ffffff;stroke-linejoin:miter;stroke-width:0.75;"/>
    </defs>
    <g clip-path="url(#pe466f3beb3)">
     <use style="fill:#98df8a;stroke:#ffffff;stroke-linejoin:miter;stroke-width:0.75;" x="56.835852" xlink:href="#m36edc081af" y="255.057773"/>
     <use style="fill:#98df8a;stroke:#ffffff;stroke-linejoin:miter;stroke-width:0.75;" x="60.403485" xlink:href="#m36edc081af" y="223.537252"/>
     <use style="fill:#98df8a;stroke:#ffffff;stroke-linejoin:miter;stroke-width:0.75;" x="63.971117" xlink:href="#m36edc081af" y="213.030412"/>
     <use style="fill:#98df8a;stroke:#ffffff;stroke-linejoin:miter;stroke-width:0.75;" x="67.538749" xlink:href="#m36edc081af" y="192.016731"/>
     <use style="fill:#98df8a;stroke:#ffffff;stroke-linejoin:miter;stroke-width:0.75;" x="71.106382" xlink:href="#m36edc081af" y="181.50989"/>
     <use style="fill:#98df8a;stroke:#ffffff;stroke-linejoin:miter;stroke-width:0.75;" x="74.674014" xlink:href="#m36edc081af" y="181.50989"/>
     <use style="fill:#98df8a;stroke:#ffffff;stroke-linejoin:miter;stroke-width:0.75;" x="78.241646" xlink:href="#m36edc081af" y="176.25647"/>
     <use style="fill:#98df8a;stroke:#ffffff;stroke-linejoin:miter;stroke-width:0.75;" x="81.809279" xlink:href="#m36edc081af" y="171.00305"/>
     <use style="fill:#98df8a;stroke:#ffffff;stroke-linejoin:miter;stroke-width:0.75;" x="85.376911" xlink:href="#m36edc081af" y="171.00305"/>
     <use style="fill:#98df8a;stroke:#ffffff;stroke-linejoin:miter;stroke-width:0.75;" x="88.944544" xlink:href="#m36edc081af" y="171.00305"/>
     <use style="fill:#98df8a;stroke:#ffffff;stroke-linejoin:miter;stroke-width:0.75;" x="92.512176" xlink:href="#m36edc081af" y="160.49621"/>
     <use style="fill:#98df8a;stroke:#ffffff;stroke-linejoin:miter;stroke-width:0.75;" x="96.079808" xlink:href="#m36edc081af" y="149.989369"/>
     <use style="fill:#98df8a;stroke:#ffffff;stroke-linejoin:miter;stroke-width:0.75;" x="99.647441" xlink:href="#m36edc081af" y="149.989369"/>
     <use style="fill:#98df8a;stroke:#ffffff;stroke-linejoin:miter;stroke-width:0.75;" x="103.215073" xlink:href="#m36edc081af" y="149.989369"/>
     <use style="fill:#98df8a;stroke:#ffffff;stroke-linejoin:miter;stroke-width:0.75;" x="106.782705" xlink:href="#m36edc081af" y="139.482529"/>
     <use style="fill:#98df8a;stroke:#ffffff;stroke-linejoin:miter;stroke-width:0.75;" x="110.350338" xlink:href="#m36edc081af" y="139.482529"/>
     <use style="fill:#98df8a;stroke:#ffffff;stroke-linejoin:miter;stroke-width:0.75;" x="113.91797" xlink:href="#m36edc081af" y="139.482529"/>
     <use style="fill:#98df8a;stroke:#ffffff;stroke-linejoin:miter;stroke-width:0.75;" x="117.485603" xlink:href="#m36edc081af" y="128.975689"/>
     <use style="fill:#98df8a;stroke:#ffffff;stroke-linejoin:miter;stroke-width:0.75;" x="121.053235" xlink:href="#m36edc081af" y="128.975689"/>
     <use style="fill:#98df8a;stroke:#ffffff;stroke-linejoin:miter;stroke-width:0.75;" x="124.620867" xlink:href="#m36edc081af" y="118.468848"/>
     <use style="fill:#98df8a;stroke:#ffffff;stroke-linejoin:miter;stroke-width:0.75;" x="128.1885" xlink:href="#m36edc081af" y="128.975689"/>
     <use style="fill:#98df8a;stroke:#ffffff;stroke-linejoin:miter;stroke-width:0.75;" x="131.756132" xlink:href="#m36edc081af" y="139.482529"/>
     <use style="fill:#98df8a;stroke:#ffffff;stroke-linejoin:miter;stroke-width:0.75;" x="135.323764" xlink:href="#m36edc081af" y="123.722268"/>
     <use style="fill:#98df8a;stroke:#ffffff;stroke-linejoin:miter;stroke-width:0.75;" x="138.891397" xlink:href="#m36edc081af" y="118.468848"/>
     <use style="fill:#98df8a;stroke:#ffffff;stroke-linejoin:miter;stroke-width:0.75;" x="142.459029" xlink:href="#m36edc081af" y="118.468848"/>
     <use style="fill:#98df8a;stroke:#ffffff;stroke-linejoin:miter;stroke-width:0.75;" x="146.026661" xlink:href="#m36edc081af" y="107.962008"/>
     <use style="fill:#98df8a;stroke:#ffffff;stroke-linejoin:miter;stroke-width:0.75;" x="149.594294" xlink:href="#m36edc081af" y="113.215428"/>
     <use style="fill:#98df8a;stroke:#ffffff;stroke-linejoin:miter;stroke-width:0.75;" x="153.161926" xlink:href="#m36edc081af" y="113.215428"/>
     <use style="fill:#98df8a;stroke:#ffffff;stroke-linejoin:miter;stroke-width:0.75;" x="156.729559" xlink:href="#m36edc081af" y="118.468848"/>
     <use style="fill:#98df8a;stroke:#ffffff;stroke-linejoin:miter;stroke-width:0.75;" x="160.297191" xlink:href="#m36edc081af" y="118.468848"/>
     <use style="fill:#98df8a;stroke:#ffffff;stroke-linejoin:miter;stroke-width:0.75;" x="163.864823" xlink:href="#m36edc081af" y="107.962008"/>
     <use style="fill:#98df8a;stroke:#ffffff;stroke-linejoin:miter;stroke-width:0.75;" x="167.432456" xlink:href="#m36edc081af" y="102.708588"/>
     <use style="fill:#98df8a;stroke:#ffffff;stroke-linejoin:miter;stroke-width:0.75;" x="171.000088" xlink:href="#m36edc081af" y="107.962008"/>
     <use style="fill:#98df8a;stroke:#ffffff;stroke-linejoin:miter;stroke-width:0.75;" x="174.56772" xlink:href="#m36edc081af" y="107.962008"/>
     <use style="fill:#98df8a;stroke:#ffffff;stroke-linejoin:miter;stroke-width:0.75;" x="178.135353" xlink:href="#m36edc081af" y="102.708588"/>
     <use style="fill:#98df8a;stroke:#ffffff;stroke-linejoin:miter;stroke-width:0.75;" x="181.702985" xlink:href="#m36edc081af" y="102.708588"/>
     <use style="fill:#98df8a;stroke:#ffffff;stroke-linejoin:miter;stroke-width:0.75;" x="185.270618" xlink:href="#m36edc081af" y="113.215428"/>
     <use style="fill:#98df8a;stroke:#ffffff;stroke-linejoin:miter;stroke-width:0.75;" x="188.83825" xlink:href="#m36edc081af" y="97.455167"/>
     <use style="fill:#98df8a;stroke:#ffffff;stroke-linejoin:miter;stroke-width:0.75;" x="192.405882" xlink:href="#m36edc081af" y="92.201747"/>
     <use style="fill:#98df8a;stroke:#ffffff;stroke-linejoin:miter;stroke-width:0.75;" x="195.973515" xlink:href="#m36edc081af" y="97.455167"/>
     <use style="fill:#98df8a;stroke:#ffffff;stroke-linejoin:miter;stroke-width:0.75;" x="199.541147" xlink:href="#m36edc081af" y="97.455167"/>
     <use style="fill:#98df8a;stroke:#ffffff;stroke-linejoin:miter;stroke-width:0.75;" x="203.108779" xlink:href="#m36edc081af" y="97.455167"/>
     <use style="fill:#98df8a;stroke:#ffffff;stroke-linejoin:miter;stroke-width:0.75;" x="206.676412" xlink:href="#m36edc081af" y="86.948327"/>
     <use style="fill:#98df8a;stroke:#ffffff;stroke-linejoin:miter;stroke-width:0.75;" x="210.244044" xlink:href="#m36edc081af" y="76.441487"/>
     <use style="fill:#98df8a;stroke:#ffffff;stroke-linejoin:miter;stroke-width:0.75;" x="213.811676" xlink:href="#m36edc081af" y="86.948327"/>
     <use style="fill:#98df8a;stroke:#ffffff;stroke-linejoin:miter;stroke-width:0.75;" x="217.379309" xlink:href="#m36edc081af" y="76.441487"/>
     <use style="fill:#98df8a;stroke:#ffffff;stroke-linejoin:miter;stroke-width:0.75;" x="220.946941" xlink:href="#m36edc081af" y="76.441487"/>
     <use style="fill:#98df8a;stroke:#ffffff;stroke-linejoin:miter;stroke-width:0.75;" x="224.514574" xlink:href="#m36edc081af" y="76.441487"/>
     <use style="fill:#98df8a;stroke:#ffffff;stroke-linejoin:miter;stroke-width:0.75;" x="228.082206" xlink:href="#m36edc081af" y="86.948327"/>
     <use style="fill:#98df8a;stroke:#ffffff;stroke-linejoin:miter;stroke-width:0.75;" x="231.649838" xlink:href="#m36edc081af" y="76.441487"/>
     <use style="fill:#98df8a;stroke:#ffffff;stroke-linejoin:miter;stroke-width:0.75;" x="235.217471" xlink:href="#m36edc081af" y="76.441487"/>
     <use style="fill:#98df8a;stroke:#ffffff;stroke-linejoin:miter;stroke-width:0.75;" x="238.785103" xlink:href="#m36edc081af" y="86.948327"/>
     <use style="fill:#98df8a;stroke:#ffffff;stroke-linejoin:miter;stroke-width:0.75;" x="242.352735" xlink:href="#m36edc081af" y="76.441487"/>
     <use style="fill:#98df8a;stroke:#ffffff;stroke-linejoin:miter;stroke-width:0.75;" x="245.920368" xlink:href="#m36edc081af" y="86.948327"/>
     <use style="fill:#98df8a;stroke:#ffffff;stroke-linejoin:miter;stroke-width:0.75;" x="249.488" xlink:href="#m36edc081af" y="76.441487"/>
     <use style="fill:#98df8a;stroke:#ffffff;stroke-linejoin:miter;stroke-width:0.75;" x="253.055632" xlink:href="#m36edc081af" y="86.948327"/>
     <use style="fill:#98df8a;stroke:#ffffff;stroke-linejoin:miter;stroke-width:0.75;" x="256.623265" xlink:href="#m36edc081af" y="76.441487"/>
     <use style="fill:#98df8a;stroke:#ffffff;stroke-linejoin:miter;stroke-width:0.75;" x="260.190897" xlink:href="#m36edc081af" y="76.441487"/>
     <use style="fill:#98df8a;stroke:#ffffff;stroke-linejoin:miter;stroke-width:0.75;" x="263.75853" xlink:href="#m36edc081af" y="76.441487"/>
     <use style="fill:#98df8a;stroke:#ffffff;stroke-linejoin:miter;stroke-width:0.75;" x="267.326162" xlink:href="#m36edc081af" y="76.441487"/>
     <use style="fill:#98df8a;stroke:#ffffff;stroke-linejoin:miter;stroke-width:0.75;" x="270.893794" xlink:href="#m36edc081af" y="76.441487"/>
     <use style="fill:#98df8a;stroke:#ffffff;stroke-linejoin:miter;stroke-width:0.75;" x="274.461427" xlink:href="#m36edc081af" y="76.441487"/>
     <use style="fill:#98df8a;stroke:#ffffff;stroke-linejoin:miter;stroke-width:0.75;" x="278.029059" xlink:href="#m36edc081af" y="76.441487"/>
     <use style="fill:#98df8a;stroke:#ffffff;stroke-linejoin:miter;stroke-width:0.75;" x="281.596691" xlink:href="#m36edc081af" y="76.441487"/>
     <use style="fill:#98df8a;stroke:#ffffff;stroke-linejoin:miter;stroke-width:0.75;" x="285.164324" xlink:href="#m36edc081af" y="76.441487"/>
     <use style="fill:#98df8a;stroke:#ffffff;stroke-linejoin:miter;stroke-width:0.75;" x="288.731956" xlink:href="#m36edc081af" y="65.934646"/>
     <use style="fill:#98df8a;stroke:#ffffff;stroke-linejoin:miter;stroke-width:0.75;" x="292.299589" xlink:href="#m36edc081af" y="71.188066"/>
     <use style="fill:#98df8a;stroke:#ffffff;stroke-linejoin:miter;stroke-width:0.75;" x="295.867221" xlink:href="#m36edc081af" y="71.188066"/>
     <use style="fill:#98df8a;stroke:#ffffff;stroke-linejoin:miter;stroke-width:0.75;" x="299.434853" xlink:href="#m36edc081af" y="71.188066"/>
     <use style="fill:#98df8a;stroke:#ffffff;stroke-linejoin:miter;stroke-width:0.75;" x="303.002486" xlink:href="#m36edc081af" y="71.188066"/>
     <use style="fill:#98df8a;stroke:#ffffff;stroke-linejoin:miter;stroke-width:0.75;" x="306.570118" xlink:href="#m36edc081af" y="65.934646"/>
     <use style="fill:#98df8a;stroke:#ffffff;stroke-linejoin:miter;stroke-width:0.75;" x="310.13775" xlink:href="#m36edc081af" y="65.934646"/>
     <use style="fill:#98df8a;stroke:#ffffff;stroke-linejoin:miter;stroke-width:0.75;" x="313.705383" xlink:href="#m36edc081af" y="65.934646"/>
     <use style="fill:#98df8a;stroke:#ffffff;stroke-linejoin:miter;stroke-width:0.75;" x="317.273015" xlink:href="#m36edc081af" y="65.934646"/>
     <use style="fill:#98df8a;stroke:#ffffff;stroke-linejoin:miter;stroke-width:0.75;" x="320.840647" xlink:href="#m36edc081af" y="65.934646"/>
     <use style="fill:#98df8a;stroke:#ffffff;stroke-linejoin:miter;stroke-width:0.75;" x="324.40828" xlink:href="#m36edc081af" y="65.934646"/>
     <use style="fill:#98df8a;stroke:#ffffff;stroke-linejoin:miter;stroke-width:0.75;" x="327.975912" xlink:href="#m36edc081af" y="65.934646"/>
     <use style="fill:#98df8a;stroke:#ffffff;stroke-linejoin:miter;stroke-width:0.75;" x="331.543545" xlink:href="#m36edc081af" y="65.934646"/>
     <use style="fill:#98df8a;stroke:#ffffff;stroke-linejoin:miter;stroke-width:0.75;" x="335.111177" xlink:href="#m36edc081af" y="65.934646"/>
     <use style="fill:#98df8a;stroke:#ffffff;stroke-linejoin:miter;stroke-width:0.75;" x="338.678809" xlink:href="#m36edc081af" y="65.934646"/>
     <use style="fill:#98df8a;stroke:#ffffff;stroke-linejoin:miter;stroke-width:0.75;" x="342.246442" xlink:href="#m36edc081af" y="65.934646"/>
     <use style="fill:#98df8a;stroke:#ffffff;stroke-linejoin:miter;stroke-width:0.75;" x="345.814074" xlink:href="#m36edc081af" y="60.681226"/>
     <use style="fill:#98df8a;stroke:#ffffff;stroke-linejoin:miter;stroke-width:0.75;" x="349.381706" xlink:href="#m36edc081af" y="65.934646"/>
     <use style="fill:#98df8a;stroke:#ffffff;stroke-linejoin:miter;stroke-width:0.75;" x="352.949339" xlink:href="#m36edc081af" y="55.427806"/>
     <use style="fill:#98df8a;stroke:#ffffff;stroke-linejoin:miter;stroke-width:0.75;" x="356.516971" xlink:href="#m36edc081af" y="71.188066"/>
     <use style="fill:#98df8a;stroke:#ffffff;stroke-linejoin:miter;stroke-width:0.75;" x="360.084604" xlink:href="#m36edc081af" y="44.920965"/>
     <use style="fill:#98df8a;stroke:#ffffff;stroke-linejoin:miter;stroke-width:0.75;" x="363.652236" xlink:href="#m36edc081af" y="65.934646"/>
     <use style="fill:#98df8a;stroke:#ffffff;stroke-linejoin:miter;stroke-width:0.75;" x="367.219868" xlink:href="#m36edc081af" y="65.934646"/>
     <use style="fill:#98df8a;stroke:#ffffff;stroke-linejoin:miter;stroke-width:0.75;" x="370.787501" xlink:href="#m36edc081af" y="44.920965"/>
     <use style="fill:#98df8a;stroke:#ffffff;stroke-linejoin:miter;stroke-width:0.75;" x="374.355133" xlink:href="#m36edc081af" y="65.934646"/>
     <use style="fill:#98df8a;stroke:#ffffff;stroke-linejoin:miter;stroke-width:0.75;" x="377.922765" xlink:href="#m36edc081af" y="65.934646"/>
     <use style="fill:#98df8a;stroke:#ffffff;stroke-linejoin:miter;stroke-width:0.75;" x="381.490398" xlink:href="#m36edc081af" y="60.681226"/>
    </g>
   </g>
   <g id="line2d_15">
    <path clip-path="url(#pe466f3beb3)" d="M 56.835852 255.057773 
L 60.403485 234.044092 
L 63.971117 223.537252 
L 67.538749 223.537252 
L 71.106382 202.523571 
L 74.674014 197.270151 
L 78.241646 186.763311 
L 81.809279 181.50989 
L 85.376911 181.50989 
L 88.944544 171.00305 
L 92.512176 171.00305 
L 96.079808 171.00305 
L 99.647441 171.00305 
L 103.215073 160.49621 
L 106.782705 160.49621 
L 110.350338 149.989369 
L 113.91797 149.989369 
L 117.485603 149.989369 
L 121.053235 149.989369 
L 124.620867 139.482529 
L 128.1885 139.482529 
L 131.756132 134.229109 
L 135.323764 134.229109 
L 138.891397 139.482529 
L 142.459029 139.482529 
L 146.026661 139.482529 
L 149.594294 134.229109 
L 153.161926 139.482529 
L 156.729559 139.482529 
L 160.297191 139.482529 
L 163.864823 128.975689 
L 167.432456 128.975689 
L 171.000088 128.975689 
L 174.56772 128.975689 
L 178.135353 128.975689 
L 181.702985 128.975689 
L 185.270618 128.975689 
L 188.83825 128.975689 
L 192.405882 128.975689 
L 195.973515 128.975689 
L 199.541147 128.975689 
L 203.108779 128.975689 
L 206.676412 118.468848 
L 210.244044 118.468848 
L 213.811676 118.468848 
L 217.379309 118.468848 
L 220.946941 107.962008 
L 224.514574 107.962008 
L 228.082206 107.962008 
L 231.649838 107.962008 
L 235.217471 107.962008 
L 238.785103 107.962008 
L 242.352735 107.962008 
L 245.920368 107.962008 
L 249.488 107.962008 
L 253.055632 107.962008 
L 256.623265 107.962008 
L 260.190897 107.962008 
L 263.75853 107.962008 
L 267.326162 107.962008 
L 270.893794 107.962008 
L 274.461427 107.962008 
L 278.029059 107.962008 
L 281.596691 107.962008 
L 285.164324 107.962008 
L 288.731956 107.962008 
L 292.299589 107.962008 
L 295.867221 107.962008 
L 299.434853 107.962008 
L 303.002486 107.962008 
L 306.570118 107.962008 
L 310.13775 107.962008 
L 313.705383 107.962008 
L 317.273015 107.962008 
L 320.840647 107.962008 
L 324.40828 102.708588 
L 327.975912 107.962008 
L 331.543545 107.962008 
L 335.111177 107.962008 
L 338.678809 107.962008 
L 342.246442 102.708588 
L 345.814074 107.962008 
L 349.381706 107.962008 
L 352.949339 102.708588 
L 356.516971 102.708588 
L 360.084604 107.962008 
L 363.652236 97.455167 
L 367.219868 97.455167 
L 370.787501 97.455167 
L 374.355133 97.455167 
L 377.922765 97.455167 
L 381.490398 97.455167 
" style="fill:none;stroke:#d62728;stroke-linecap:square;stroke-width:1.5;"/>
    <defs>
     <path d="M 0 -3 
L -3 3 
L 3 3 
z
" id="mb4c6ec36b7" style="stroke:#ffffff;stroke-linejoin:miter;stroke-width:0.75;"/>
    </defs>
    <g clip-path="url(#pe466f3beb3)">
     <use style="fill:#d62728;stroke:#ffffff;stroke-linejoin:miter;stroke-width:0.75;" x="56.835852" xlink:href="#mb4c6ec36b7" y="255.057773"/>
     <use style="fill:#d62728;stroke:#ffffff;stroke-linejoin:miter;stroke-width:0.75;" x="60.403485" xlink:href="#mb4c6ec36b7" y="234.044092"/>
     <use style="fill:#d62728;stroke:#ffffff;stroke-linejoin:miter;stroke-width:0.75;" x="63.971117" xlink:href="#mb4c6ec36b7" y="223.537252"/>
     <use style="fill:#d62728;stroke:#ffffff;stroke-linejoin:miter;stroke-width:0.75;" x="67.538749" xlink:href="#mb4c6ec36b7" y="223.537252"/>
     <use style="fill:#d62728;stroke:#ffffff;stroke-linejoin:miter;stroke-width:0.75;" x="71.106382" xlink:href="#mb4c6ec36b7" y="202.523571"/>
     <use style="fill:#d62728;stroke:#ffffff;stroke-linejoin:miter;stroke-width:0.75;" x="74.674014" xlink:href="#mb4c6ec36b7" y="197.270151"/>
     <use style="fill:#d62728;stroke:#ffffff;stroke-linejoin:miter;stroke-width:0.75;" x="78.241646" xlink:href="#mb4c6ec36b7" y="186.763311"/>
     <use style="fill:#d62728;stroke:#ffffff;stroke-linejoin:miter;stroke-width:0.75;" x="81.809279" xlink:href="#mb4c6ec36b7" y="181.50989"/>
     <use style="fill:#d62728;stroke:#ffffff;stroke-linejoin:miter;stroke-width:0.75;" x="85.376911" xlink:href="#mb4c6ec36b7" y="181.50989"/>
     <use style="fill:#d62728;stroke:#ffffff;stroke-linejoin:miter;stroke-width:0.75;" x="88.944544" xlink:href="#mb4c6ec36b7" y="171.00305"/>
     <use style="fill:#d62728;stroke:#ffffff;stroke-linejoin:miter;stroke-width:0.75;" x="92.512176" xlink:href="#mb4c6ec36b7" y="171.00305"/>
     <use style="fill:#d62728;stroke:#ffffff;stroke-linejoin:miter;stroke-width:0.75;" x="96.079808" xlink:href="#mb4c6ec36b7" y="171.00305"/>
     <use style="fill:#d62728;stroke:#ffffff;stroke-linejoin:miter;stroke-width:0.75;" x="99.647441" xlink:href="#mb4c6ec36b7" y="171.00305"/>
     <use style="fill:#d62728;stroke:#ffffff;stroke-linejoin:miter;stroke-width:0.75;" x="103.215073" xlink:href="#mb4c6ec36b7" y="160.49621"/>
     <use style="fill:#d62728;stroke:#ffffff;stroke-linejoin:miter;stroke-width:0.75;" x="106.782705" xlink:href="#mb4c6ec36b7" y="160.49621"/>
     <use style="fill:#d62728;stroke:#ffffff;stroke-linejoin:miter;stroke-width:0.75;" x="110.350338" xlink:href="#mb4c6ec36b7" y="149.989369"/>
     <use style="fill:#d62728;stroke:#ffffff;stroke-linejoin:miter;stroke-width:0.75;" x="113.91797" xlink:href="#mb4c6ec36b7" y="149.989369"/>
     <use style="fill:#d62728;stroke:#ffffff;stroke-linejoin:miter;stroke-width:0.75;" x="117.485603" xlink:href="#mb4c6ec36b7" y="149.989369"/>
     <use style="fill:#d62728;stroke:#ffffff;stroke-linejoin:miter;stroke-width:0.75;" x="121.053235" xlink:href="#mb4c6ec36b7" y="149.989369"/>
     <use style="fill:#d62728;stroke:#ffffff;stroke-linejoin:miter;stroke-width:0.75;" x="124.620867" xlink:href="#mb4c6ec36b7" y="139.482529"/>
     <use style="fill:#d62728;stroke:#ffffff;stroke-linejoin:miter;stroke-width:0.75;" x="128.1885" xlink:href="#mb4c6ec36b7" y="139.482529"/>
     <use style="fill:#d62728;stroke:#ffffff;stroke-linejoin:miter;stroke-width:0.75;" x="131.756132" xlink:href="#mb4c6ec36b7" y="134.229109"/>
     <use style="fill:#d62728;stroke:#ffffff;stroke-linejoin:miter;stroke-width:0.75;" x="135.323764" xlink:href="#mb4c6ec36b7" y="134.229109"/>
     <use style="fill:#d62728;stroke:#ffffff;stroke-linejoin:miter;stroke-width:0.75;" x="138.891397" xlink:href="#mb4c6ec36b7" y="139.482529"/>
     <use style="fill:#d62728;stroke:#ffffff;stroke-linejoin:miter;stroke-width:0.75;" x="142.459029" xlink:href="#mb4c6ec36b7" y="139.482529"/>
     <use style="fill:#d62728;stroke:#ffffff;stroke-linejoin:miter;stroke-width:0.75;" x="146.026661" xlink:href="#mb4c6ec36b7" y="139.482529"/>
     <use style="fill:#d62728;stroke:#ffffff;stroke-linejoin:miter;stroke-width:0.75;" x="149.594294" xlink:href="#mb4c6ec36b7" y="134.229109"/>
     <use style="fill:#d62728;stroke:#ffffff;stroke-linejoin:miter;stroke-width:0.75;" x="153.161926" xlink:href="#mb4c6ec36b7" y="139.482529"/>
     <use style="fill:#d62728;stroke:#ffffff;stroke-linejoin:miter;stroke-width:0.75;" x="156.729559" xlink:href="#mb4c6ec36b7" y="139.482529"/>
     <use style="fill:#d62728;stroke:#ffffff;stroke-linejoin:miter;stroke-width:0.75;" x="160.297191" xlink:href="#mb4c6ec36b7" y="139.482529"/>
     <use style="fill:#d62728;stroke:#ffffff;stroke-linejoin:miter;stroke-width:0.75;" x="163.864823" xlink:href="#mb4c6ec36b7" y="128.975689"/>
     <use style="fill:#d62728;stroke:#ffffff;stroke-linejoin:miter;stroke-width:0.75;" x="167.432456" xlink:href="#mb4c6ec36b7" y="128.975689"/>
     <use style="fill:#d62728;stroke:#ffffff;stroke-linejoin:miter;stroke-width:0.75;" x="171.000088" xlink:href="#mb4c6ec36b7" y="128.975689"/>
     <use style="fill:#d62728;stroke:#ffffff;stroke-linejoin:miter;stroke-width:0.75;" x="174.56772" xlink:href="#mb4c6ec36b7" y="128.975689"/>
     <use style="fill:#d62728;stroke:#ffffff;stroke-linejoin:miter;stroke-width:0.75;" x="178.135353" xlink:href="#mb4c6ec36b7" y="128.975689"/>
     <use style="fill:#d62728;stroke:#ffffff;stroke-linejoin:miter;stroke-width:0.75;" x="181.702985" xlink:href="#mb4c6ec36b7" y="128.975689"/>
     <use style="fill:#d62728;stroke:#ffffff;stroke-linejoin:miter;stroke-width:0.75;" x="185.270618" xlink:href="#mb4c6ec36b7" y="128.975689"/>
     <use style="fill:#d62728;stroke:#ffffff;stroke-linejoin:miter;stroke-width:0.75;" x="188.83825" xlink:href="#mb4c6ec36b7" y="128.975689"/>
     <use style="fill:#d62728;stroke:#ffffff;stroke-linejoin:miter;stroke-width:0.75;" x="192.405882" xlink:href="#mb4c6ec36b7" y="128.975689"/>
     <use style="fill:#d62728;stroke:#ffffff;stroke-linejoin:miter;stroke-width:0.75;" x="195.973515" xlink:href="#mb4c6ec36b7" y="128.975689"/>
     <use style="fill:#d62728;stroke:#ffffff;stroke-linejoin:miter;stroke-width:0.75;" x="199.541147" xlink:href="#mb4c6ec36b7" y="128.975689"/>
     <use style="fill:#d62728;stroke:#ffffff;stroke-linejoin:miter;stroke-width:0.75;" x="203.108779" xlink:href="#mb4c6ec36b7" y="128.975689"/>
     <use style="fill:#d62728;stroke:#ffffff;stroke-linejoin:miter;stroke-width:0.75;" x="206.676412" xlink:href="#mb4c6ec36b7" y="118.468848"/>
     <use style="fill:#d62728;stroke:#ffffff;stroke-linejoin:miter;stroke-width:0.75;" x="210.244044" xlink:href="#mb4c6ec36b7" y="118.468848"/>
     <use style="fill:#d62728;stroke:#ffffff;stroke-linejoin:miter;stroke-width:0.75;" x="213.811676" xlink:href="#mb4c6ec36b7" y="118.468848"/>
     <use style="fill:#d62728;stroke:#ffffff;stroke-linejoin:miter;stroke-width:0.75;" x="217.379309" xlink:href="#mb4c6ec36b7" y="118.468848"/>
     <use style="fill:#d62728;stroke:#ffffff;stroke-linejoin:miter;stroke-width:0.75;" x="220.946941" xlink:href="#mb4c6ec36b7" y="107.962008"/>
     <use style="fill:#d62728;stroke:#ffffff;stroke-linejoin:miter;stroke-width:0.75;" x="224.514574" xlink:href="#mb4c6ec36b7" y="107.962008"/>
     <use style="fill:#d62728;stroke:#ffffff;stroke-linejoin:miter;stroke-width:0.75;" x="228.082206" xlink:href="#mb4c6ec36b7" y="107.962008"/>
     <use style="fill:#d62728;stroke:#ffffff;stroke-linejoin:miter;stroke-width:0.75;" x="231.649838" xlink:href="#mb4c6ec36b7" y="107.962008"/>
     <use style="fill:#d62728;stroke:#ffffff;stroke-linejoin:miter;stroke-width:0.75;" x="235.217471" xlink:href="#mb4c6ec36b7" y="107.962008"/>
     <use style="fill:#d62728;stroke:#ffffff;stroke-linejoin:miter;stroke-width:0.75;" x="238.785103" xlink:href="#mb4c6ec36b7" y="107.962008"/>
     <use style="fill:#d62728;stroke:#ffffff;stroke-linejoin:miter;stroke-width:0.75;" x="242.352735" xlink:href="#mb4c6ec36b7" y="107.962008"/>
     <use style="fill:#d62728;stroke:#ffffff;stroke-linejoin:miter;stroke-width:0.75;" x="245.920368" xlink:href="#mb4c6ec36b7" y="107.962008"/>
     <use style="fill:#d62728;stroke:#ffffff;stroke-linejoin:miter;stroke-width:0.75;" x="249.488" xlink:href="#mb4c6ec36b7" y="107.962008"/>
     <use style="fill:#d62728;stroke:#ffffff;stroke-linejoin:miter;stroke-width:0.75;" x="253.055632" xlink:href="#mb4c6ec36b7" y="107.962008"/>
     <use style="fill:#d62728;stroke:#ffffff;stroke-linejoin:miter;stroke-width:0.75;" x="256.623265" xlink:href="#mb4c6ec36b7" y="107.962008"/>
     <use style="fill:#d62728;stroke:#ffffff;stroke-linejoin:miter;stroke-width:0.75;" x="260.190897" xlink:href="#mb4c6ec36b7" y="107.962008"/>
     <use style="fill:#d62728;stroke:#ffffff;stroke-linejoin:miter;stroke-width:0.75;" x="263.75853" xlink:href="#mb4c6ec36b7" y="107.962008"/>
     <use style="fill:#d62728;stroke:#ffffff;stroke-linejoin:miter;stroke-width:0.75;" x="267.326162" xlink:href="#mb4c6ec36b7" y="107.962008"/>
     <use style="fill:#d62728;stroke:#ffffff;stroke-linejoin:miter;stroke-width:0.75;" x="270.893794" xlink:href="#mb4c6ec36b7" y="107.962008"/>
     <use style="fill:#d62728;stroke:#ffffff;stroke-linejoin:miter;stroke-width:0.75;" x="274.461427" xlink:href="#mb4c6ec36b7" y="107.962008"/>
     <use style="fill:#d62728;stroke:#ffffff;stroke-linejoin:miter;stroke-width:0.75;" x="278.029059" xlink:href="#mb4c6ec36b7" y="107.962008"/>
     <use style="fill:#d62728;stroke:#ffffff;stroke-linejoin:miter;stroke-width:0.75;" x="281.596691" xlink:href="#mb4c6ec36b7" y="107.962008"/>
     <use style="fill:#d62728;stroke:#ffffff;stroke-linejoin:miter;stroke-width:0.75;" x="285.164324" xlink:href="#mb4c6ec36b7" y="107.962008"/>
     <use style="fill:#d62728;stroke:#ffffff;stroke-linejoin:miter;stroke-width:0.75;" x="288.731956" xlink:href="#mb4c6ec36b7" y="107.962008"/>
     <use style="fill:#d62728;stroke:#ffffff;stroke-linejoin:miter;stroke-width:0.75;" x="292.299589" xlink:href="#mb4c6ec36b7" y="107.962008"/>
     <use style="fill:#d62728;stroke:#ffffff;stroke-linejoin:miter;stroke-width:0.75;" x="295.867221" xlink:href="#mb4c6ec36b7" y="107.962008"/>
     <use style="fill:#d62728;stroke:#ffffff;stroke-linejoin:miter;stroke-width:0.75;" x="299.434853" xlink:href="#mb4c6ec36b7" y="107.962008"/>
     <use style="fill:#d62728;stroke:#ffffff;stroke-linejoin:miter;stroke-width:0.75;" x="303.002486" xlink:href="#mb4c6ec36b7" y="107.962008"/>
     <use style="fill:#d62728;stroke:#ffffff;stroke-linejoin:miter;stroke-width:0.75;" x="306.570118" xlink:href="#mb4c6ec36b7" y="107.962008"/>
     <use style="fill:#d62728;stroke:#ffffff;stroke-linejoin:miter;stroke-width:0.75;" x="310.13775" xlink:href="#mb4c6ec36b7" y="107.962008"/>
     <use style="fill:#d62728;stroke:#ffffff;stroke-linejoin:miter;stroke-width:0.75;" x="313.705383" xlink:href="#mb4c6ec36b7" y="107.962008"/>
     <use style="fill:#d62728;stroke:#ffffff;stroke-linejoin:miter;stroke-width:0.75;" x="317.273015" xlink:href="#mb4c6ec36b7" y="107.962008"/>
     <use style="fill:#d62728;stroke:#ffffff;stroke-linejoin:miter;stroke-width:0.75;" x="320.840647" xlink:href="#mb4c6ec36b7" y="107.962008"/>
     <use style="fill:#d62728;stroke:#ffffff;stroke-linejoin:miter;stroke-width:0.75;" x="324.40828" xlink:href="#mb4c6ec36b7" y="102.708588"/>
     <use style="fill:#d62728;stroke:#ffffff;stroke-linejoin:miter;stroke-width:0.75;" x="327.975912" xlink:href="#mb4c6ec36b7" y="107.962008"/>
     <use style="fill:#d62728;stroke:#ffffff;stroke-linejoin:miter;stroke-width:0.75;" x="331.543545" xlink:href="#mb4c6ec36b7" y="107.962008"/>
     <use style="fill:#d62728;stroke:#ffffff;stroke-linejoin:miter;stroke-width:0.75;" x="335.111177" xlink:href="#mb4c6ec36b7" y="107.962008"/>
     <use style="fill:#d62728;stroke:#ffffff;stroke-linejoin:miter;stroke-width:0.75;" x="338.678809" xlink:href="#mb4c6ec36b7" y="107.962008"/>
     <use style="fill:#d62728;stroke:#ffffff;stroke-linejoin:miter;stroke-width:0.75;" x="342.246442" xlink:href="#mb4c6ec36b7" y="102.708588"/>
     <use style="fill:#d62728;stroke:#ffffff;stroke-linejoin:miter;stroke-width:0.75;" x="345.814074" xlink:href="#mb4c6ec36b7" y="107.962008"/>
     <use style="fill:#d62728;stroke:#ffffff;stroke-linejoin:miter;stroke-width:0.75;" x="349.381706" xlink:href="#mb4c6ec36b7" y="107.962008"/>
     <use style="fill:#d62728;stroke:#ffffff;stroke-linejoin:miter;stroke-width:0.75;" x="352.949339" xlink:href="#mb4c6ec36b7" y="102.708588"/>
     <use style="fill:#d62728;stroke:#ffffff;stroke-linejoin:miter;stroke-width:0.75;" x="356.516971" xlink:href="#mb4c6ec36b7" y="102.708588"/>
     <use style="fill:#d62728;stroke:#ffffff;stroke-linejoin:miter;stroke-width:0.75;" x="360.084604" xlink:href="#mb4c6ec36b7" y="107.962008"/>
     <use style="fill:#d62728;stroke:#ffffff;stroke-linejoin:miter;stroke-width:0.75;" x="363.652236" xlink:href="#mb4c6ec36b7" y="97.455167"/>
     <use style="fill:#d62728;stroke:#ffffff;stroke-linejoin:miter;stroke-width:0.75;" x="367.219868" xlink:href="#mb4c6ec36b7" y="97.455167"/>
     <use style="fill:#d62728;stroke:#ffffff;stroke-linejoin:miter;stroke-width:0.75;" x="370.787501" xlink:href="#mb4c6ec36b7" y="97.455167"/>
     <use style="fill:#d62728;stroke:#ffffff;stroke-linejoin:miter;stroke-width:0.75;" x="374.355133" xlink:href="#mb4c6ec36b7" y="97.455167"/>
     <use style="fill:#d62728;stroke:#ffffff;stroke-linejoin:miter;stroke-width:0.75;" x="377.922765" xlink:href="#mb4c6ec36b7" y="97.455167"/>
     <use style="fill:#d62728;stroke:#ffffff;stroke-linejoin:miter;stroke-width:0.75;" x="381.490398" xlink:href="#mb4c6ec36b7" y="97.455167"/>
    </g>
   </g>
   <g id="line2d_16"/>
   <g id="line2d_17"/>
   <g id="line2d_18"/>
   <g id="patch_3">
    <path d="M 40.603125 286.578294 
L 40.603125 23.907285 
" style="fill:none;stroke:#000000;stroke-linecap:square;stroke-linejoin:miter;stroke-width:0.8;"/>
   </g>
   <g id="patch_4">
    <path d="M 56.835852 288.430125 
L 330.354334 288.430125 
" style="fill:none;stroke:#000000;stroke-linecap:square;stroke-linejoin:miter;stroke-width:0.8;"/>
   </g>
   <g id="text_15">
    <!-- arrow_parquet-arrow-fuzz (23h, 11 trials/fuzzer) -->
    <g transform="translate(75.492188 16.318125)scale(0.12 -0.12)">
     <defs>
      <path d="M 269 3500 
L 844 3500 
L 1563 769 
L 2278 3500 
L 2956 3500 
L 3675 769 
L 4391 3500 
L 4966 3500 
L 4050 0 
L 3372 0 
L 2619 2869 
L 1863 0 
L 1184 0 
L 269 3500 
z
" id="DejaVuSans-77" transform="scale(0.015625)"/>
      <path d="M 3263 -1063 
L 3263 -1509 
L -63 -1509 
L -63 -1063 
L 3263 -1063 
z
" id="DejaVuSans-5f" transform="scale(0.015625)"/>
      <path d="M 1159 525 
L 1159 -1331 
L 581 -1331 
L 581 3500 
L 1159 3500 
L 1159 2969 
Q 1341 3281 1617 3432 
Q 1894 3584 2278 3584 
Q 2916 3584 3314 3078 
Q 3713 2572 3713 1747 
Q 3713 922 3314 415 
Q 2916 -91 2278 -91 
Q 1894 -91 1617 61 
Q 1341 213 1159 525 
z
M 3116 1747 
Q 3116 2381 2855 2742 
Q 2594 3103 2138 3103 
Q 1681 3103 1420 2742 
Q 1159 2381 1159 1747 
Q 1159 1113 1420 752 
Q 1681 391 2138 391 
Q 2594 391 2855 752 
Q 3116 1113 3116 1747 
z
" id="DejaVuSans-70" transform="scale(0.015625)"/>
      <path d="M 947 1747 
Q 947 1113 1208 752 
Q 1469 391 1925 391 
Q 2381 391 2643 752 
Q 2906 1113 2906 1747 
Q 2906 2381 2643 2742 
Q 2381 3103 1925 3103 
Q 1469 3103 1208 2742 
Q 947 2381 947 1747 
z
M 2906 525 
Q 2725 213 2448 61 
Q 2172 -91 1784 -91 
Q 1150 -91 751 415 
Q 353 922 353 1747 
Q 353 2572 751 3078 
Q 1150 3584 1784 3584 
Q 2172 3584 2448 3432 
Q 2725 3281 2906 2969 
L 2906 3500 
L 3481 3500 
L 3481 -1331 
L 2906 -1331 
L 2906 525 
z
" id="DejaVuSans-71" transform="scale(0.015625)"/>
      <path d="M 313 2009 
L 1997 2009 
L 1997 1497 
L 313 1497 
L 313 2009 
z
" id="DejaVuSans-2d" transform="scale(0.015625)"/>
      <path d="M 2375 4863 
L 2375 4384 
L 1825 4384 
Q 1516 4384 1395 4259 
Q 1275 4134 1275 3809 
L 1275 3500 
L 2222 3500 
L 2222 3053 
L 1275 3053 
L 1275 0 
L 697 0 
L 697 3053 
L 147 3053 
L 147 3500 
L 697 3500 
L 697 3744 
Q 697 4328 969 4595 
Q 1241 4863 1831 4863 
L 2375 4863 
z
" id="DejaVuSans-66" transform="scale(0.015625)"/>
      <path d="M 353 3500 
L 3084 3500 
L 3084 2975 
L 922 459 
L 3084 459 
L 3084 0 
L 275 0 
L 275 525 
L 2438 3041 
L 353 3041 
L 353 3500 
z
" id="DejaVuSans-7a" transform="scale(0.015625)"/>
      <path d="M 750 794 
L 1409 794 
L 1409 256 
L 897 -744 
L 494 -744 
L 750 256 
L 750 794 
z
" id="DejaVuSans-2c" transform="scale(0.015625)"/>
      <path d="M 603 4863 
L 1178 4863 
L 1178 0 
L 603 0 
L 603 4863 
z
" id="DejaVuSans-6c" transform="scale(0.015625)"/>
      <path d="M 2834 3397 
L 2834 2853 
Q 2591 2978 2328 3040 
Q 2066 3103 1784 3103 
Q 1356 3103 1142 2972 
Q 928 2841 928 2578 
Q 928 2378 1081 2264 
Q 1234 2150 1697 2047 
L 1894 2003 
Q 2506 1872 2764 1633 
Q 3022 1394 3022 966 
Q 3022 478 2636 193 
Q 2250 -91 1575 -91 
Q 1294 -91 989 -36 
Q 684 19 347 128 
L 347 722 
Q 666 556 975 473 
Q 1284 391 1588 391 
Q 1994 391 2212 530 
Q 2431 669 2431 922 
Q 2431 1156 2273 1281 
Q 2116 1406 1581 1522 
L 1381 1569 
Q 847 1681 609 1914 
Q 372 2147 372 2553 
Q 372 3047 722 3315 
Q 1072 3584 1716 3584 
Q 2034 3584 2315 3537 
Q 2597 3491 2834 3397 
z
" id="DejaVuSans-73" transform="scale(0.015625)"/>
      <path d="M 1625 4666 
L 2156 4666 
L 531 -594 
L 0 -594 
L 1625 4666 
z
" id="DejaVuSans-2f" transform="scale(0.015625)"/>
     </defs>
     <use xlink:href="#DejaVuSans-61"/>
     <use x="61.279297" xlink:href="#DejaVuSans-72"/>
     <use x="100.642578" xlink:href="#DejaVuSans-72"/>
     <use x="139.505859" xlink:href="#DejaVuSans-6f"/>
     <use x="200.6875" xlink:href="#DejaVuSans-77"/>
     <use x="282.474609" xlink:href="#DejaVuSans-5f"/>
     <use x="332.474609" xlink:href="#DejaVuSans-70"/>
     <use x="395.951172" xlink:href="#DejaVuSans-61"/>
     <use x="457.230469" xlink:href="#DejaVuSans-72"/>
     <use x="496.59375" xlink:href="#DejaVuSans-71"/>
     <use x="560.070312" xlink:href="#DejaVuSans-75"/>
     <use x="623.449219" xlink:href="#DejaVuSans-65"/>
     <use x="684.972656" xlink:href="#DejaVuSans-74"/>
     <use x="724.181641" xlink:href="#DejaVuSans-2d"/>
     <use x="760.265625" xlink:href="#DejaVuSans-61"/>
     <use x="821.544922" xlink:href="#DejaVuSans-72"/>
     <use x="860.908203" xlink:href="#DejaVuSans-72"/>
     <use x="899.771484" xlink:href="#DejaVuSans-6f"/>
     <use x="960.953125" xlink:href="#DejaVuSans-77"/>
     <use x="1042.740234" xlink:href="#DejaVuSans-2d"/>
     <use x="1078.824219" xlink:href="#DejaVuSans-66"/>
     <use x="1114.029297" xlink:href="#DejaVuSans-75"/>
     <use x="1177.408203" xlink:href="#DejaVuSans-7a"/>
     <use x="1229.898438" xlink:href="#DejaVuSans-7a"/>
     <use x="1282.388672" xlink:href="#DejaVuSans-20"/>
     <use x="1314.175781" xlink:href="#DejaVuSans-28"/>
     <use x="1353.189453" xlink:href="#DejaVuSans-32"/>
     <use x="1416.8125" xlink:href="#DejaVuSans-33"/>
     <use x="1480.435547" xlink:href="#DejaVuSans-68"/>
     <use x="1543.814453" xlink:href="#DejaVuSans-2c"/>
     <use x="1575.601562" xlink:href="#DejaVuSans-20"/>
     <use x="1607.388672" xlink:href="#DejaVuSans-31"/>
     <use x="1671.011719" xlink:href="#DejaVuSans-31"/>
     <use x="1734.634766" xlink:href="#DejaVuSans-20"/>
     <use x="1766.421875" xlink:href="#DejaVuSans-74"/>
     <use x="1805.630859" xlink:href="#DejaVuSans-72"/>
     <use x="1846.744141" xlink:href="#DejaVuSans-69"/>
     <use x="1874.527344" xlink:href="#DejaVuSans-61"/>
     <use x="1935.806641" xlink:href="#DejaVuSans-6c"/>
     <use x="1963.589844" xlink:href="#DejaVuSans-73"/>
     <use x="2015.689453" xlink:href="#DejaVuSans-2f"/>
     <use x="2049.380859" xlink:href="#DejaVuSans-66"/>
     <use x="2084.585938" xlink:href="#DejaVuSans-75"/>
     <use x="2147.964844" xlink:href="#DejaVuSans-7a"/>
     <use x="2200.455078" xlink:href="#DejaVuSans-7a"/>
     <use x="2252.945312" xlink:href="#DejaVuSans-65"/>
     <use x="2314.46875" xlink:href="#DejaVuSans-72"/>
     <use x="2355.582031" xlink:href="#DejaVuSans-29"/>
    </g>
   </g>
   <g id="legend_1">
    <g id="line2d_19">
     <path d="M 401.723125 30.416562 
L 421.723125 30.416562 
" style="fill:none;stroke:#1f77b4;stroke-linecap:square;stroke-width:1.5;"/>
    </g>
    <g id="line2d_20">
     <defs>
      <path d="M 0 3 
C 0.795609 3 1.55874 2.683901 2.12132 2.12132 
C 2.683901 1.55874 3 0.795609 3 0 
C 3 -0.795609 2.683901 -1.55874 2.12132 -2.12132 
C 1.55874 -2.683901 0.795609 -3 0 -3 
C -0.795609 -3 -1.55874 -2.683901 -2.12132 -2.12132 
C -2.683901 -1.55874 -3 -0.795609 -3 0 
C -3 0.795609 -2.683901 1.55874 -2.12132 2.12132 
C -1.55874 2.683901 -0.795609 3 0 3 
z
" id="mc642e53aaa" style="stroke:#1f77b4;"/>
     </defs>
     <g>
      <use style="fill:#1f77b4;stroke:#1f77b4;" x="411.723125" xlink:href="#mc642e53aaa" y="30.416562"/>
     </g>
    </g>
    <g id="text_16">
     <!-- afl -->
     <g transform="translate(429.723125 33.916562)scale(0.1 -0.1)">
      <use xlink:href="#DejaVuSans-61"/>
      <use x="61.279297" xlink:href="#DejaVuSans-66"/>
      <use x="96.484375" xlink:href="#DejaVuSans-6c"/>
     </g>
    </g>
    <g id="line2d_21">
     <path d="M 401.723125 45.094688 
L 421.723125 45.094688 
" style="fill:none;stroke:#98df8a;stroke-linecap:square;stroke-width:1.5;"/>
    </g>
    <g id="line2d_22">
     <defs>
      <path d="M -0 3 
L 3 -3 
L -3 -3 
z
" id="mbe1c574ab9" style="stroke:#98df8a;stroke-linejoin:miter;"/>
     </defs>
     <g>
      <use style="fill:#98df8a;stroke:#98df8a;stroke-linejoin:miter;" x="411.723125" xlink:href="#mbe1c574ab9" y="45.094688"/>
     </g>
    </g>
    <g id="text_17">
     <!-- afl_no_favfactor -->
     <g transform="translate(429.723125 48.594688)scale(0.1 -0.1)">
      <use xlink:href="#DejaVuSans-61"/>
      <use x="61.279297" xlink:href="#DejaVuSans-66"/>
      <use x="96.484375" xlink:href="#DejaVuSans-6c"/>
      <use x="124.267578" xlink:href="#DejaVuSans-5f"/>
      <use x="174.267578" xlink:href="#DejaVuSans-6e"/>
      <use x="237.646484" xlink:href="#DejaVuSans-6f"/>
      <use x="298.828125" xlink:href="#DejaVuSans-5f"/>
      <use x="348.828125" xlink:href="#DejaVuSans-66"/>
      <use x="384.033203" xlink:href="#DejaVuSans-61"/>
      <use x="445.3125" xlink:href="#DejaVuSans-76"/>
      <use x="504.492188" xlink:href="#DejaVuSans-66"/>
      <use x="539.697266" xlink:href="#DejaVuSans-61"/>
      <use x="600.976562" xlink:href="#DejaVuSans-63"/>
      <use x="655.957031" xlink:href="#DejaVuSans-74"/>
      <use x="695.166016" xlink:href="#DejaVuSans-6f"/>
      <use x="756.347656" xlink:href="#DejaVuSans-72"/>
     </g>
    </g>
    <g id="line2d_23">
     <path d="M 401.723125 60.050937 
L 421.723125 60.050937 
" style="fill:none;stroke:#d62728;stroke-linecap:square;stroke-width:1.5;"/>
    </g>
    <g id="line2d_24">
     <defs>
      <path d="M 0 -3 
L -3 3 
L 3 3 
z
" id="m6afcda3271" style="stroke:#d62728;stroke-linejoin:miter;"/>
     </defs>
     <g>
      <use style="fill:#d62728;stroke:#d62728;stroke-linejoin:miter;" x="411.723125" xlink:href="#m6afcda3271" y="60.050937"/>
     </g>
    </g>
    <g id="text_18">
     <!-- afl_no_favored -->
     <g transform="translate(429.723125 63.550937)scale(0.1 -0.1)">
      <defs>
       <path d="M 2906 2969 
L 2906 4863 
L 3481 4863 
L 3481 0 
L 2906 0 
L 2906 525 
Q 2725 213 2448 61 
Q 2172 -91 1784 -91 
Q 1150 -91 751 415 
Q 353 922 353 1747 
Q 353 2572 751 3078 
Q 1150 3584 1784 3584 
Q 2172 3584 2448 3432 
Q 2725 3281 2906 2969 
z
M 947 1747 
Q 947 1113 1208 752 
Q 1469 391 1925 391 
Q 2381 391 2643 752 
Q 2906 1113 2906 1747 
Q 2906 2381 2643 2742 
Q 2381 3103 1925 3103 
Q 1469 3103 1208 2742 
Q 947 2381 947 1747 
z
" id="DejaVuSans-64" transform="scale(0.015625)"/>
      </defs>
      <use xlink:href="#DejaVuSans-61"/>
      <use x="61.279297" xlink:href="#DejaVuSans-66"/>
      <use x="96.484375" xlink:href="#DejaVuSans-6c"/>
      <use x="124.267578" xlink:href="#DejaVuSans-5f"/>
      <use x="174.267578" xlink:href="#DejaVuSans-6e"/>
      <use x="237.646484" xlink:href="#DejaVuSans-6f"/>
      <use x="298.828125" xlink:href="#DejaVuSans-5f"/>
      <use x="348.828125" xlink:href="#DejaVuSans-66"/>
      <use x="384.033203" xlink:href="#DejaVuSans-61"/>
      <use x="445.3125" xlink:href="#DejaVuSans-76"/>
      <use x="504.492188" xlink:href="#DejaVuSans-6f"/>
      <use x="565.673828" xlink:href="#DejaVuSans-72"/>
      <use x="604.537109" xlink:href="#DejaVuSans-65"/>
      <use x="666.060547" xlink:href="#DejaVuSans-64"/>
     </g>
    </g>
   </g>
  </g>
 </g>
 <defs>
  <clipPath id="pe466f3beb3">
   <rect height="266.112" width="357.12" x="40.603125" y="22.318125"/>
  </clipPath>
 </defs>
</svg>
