<?xml version="1.0" encoding="utf-8" standalone="no"?>
<!DOCTYPE svg PUBLIC "-//W3C//DTD SVG 1.1//EN"
  "http://www.w3.org/Graphics/SVG/1.1/DTD/svg11.dtd">
<svg height="325.986375pt" version="1.1" viewBox="0 0 533.395 325.986375" width="533.395pt" xmlns="http://www.w3.org/2000/svg" xmlns:xlink="http://www.w3.org/1999/xlink">
 <metadata>
  <rdf:RDF xmlns:cc="http://creativecommons.org/ns#" xmlns:dc="http://purl.org/dc/elements/1.1/" xmlns:rdf="http://www.w3.org/1999/02/22-rdf-syntax-ns#">
   <cc:Work>
    <dc:type rdf:resource="http://purl.org/dc/dcmitype/StillImage"/>
    <dc:date>2022-05-24T15:30:23.150155</dc:date>
    <dc:format>image/svg+xml</dc:format>
    <dc:creator>
     <cc:Agent>
      <dc:title>Matplotlib v3.4.3, https://matplotlib.org/</dc:title>
     </cc:Agent>
    </dc:creator>
   </cc:Work>
  </rdf:RDF>
 </metadata>
 <defs>
  <style type="text/css">*{stroke-linecap:butt;stroke-linejoin:round;}</style>
 </defs>
 <g id="figure_1">
  <g id="patch_1">
   <path d="M 0 325.986375 
L 533.395 325.986375 
L 533.395 0 
L 0 0 
z
" style="fill:#ffffff;"/>
  </g>
  <g id="axes_1">
   <g id="patch_2">
    <path d="M 53.328125 288.430125 
L 410.448125 288.430125 
L 410.448125 22.318125 
L 53.328125 22.318125 
z
" style="fill:#ffffff;"/>
   </g>
   <g id="PolyCollection_1">
    <defs>
     <path d="M 69.560852 -197.453518 
L 69.560852 -92.877149 
L 119.327306 -98.454555 
L 148.438816 -209.305506 
L 169.09376 -256.71346 
L 185.11498 -258.107812 
L 198.205269 -258.107812 
L 209.272952 -258.804988 
L 218.860214 -258.804988 
L 227.316779 -258.804988 
L 234.881434 -259.502164 
L 241.724496 -259.502164 
L 247.971723 -259.850751 
L 253.718615 -260.547927 
L 259.039406 -260.896515 
L 263.992943 -260.896515 
L 268.626668 -260.896515 
L 272.979383 -260.896515 
L 277.083233 -262.290867 
L 280.965141 -262.988043 
L 284.647888 -262.988043 
L 288.150915 -262.988043 
L 291.49095 -262.988043 
L 294.68249 -262.988043 
L 297.738177 -262.988043 
L 300.669107 -262.988043 
L 303.485069 -262.988043 
L 306.194742 -262.988043 
L 308.805859 -263.685218 
L 311.32534 -264.364965 
L 313.759397 -263.685218 
L 316.113635 -263.685218 
L 318.393122 -262.988043 
L 320.60246 -262.988043 
L 322.745837 -262.988043 
L 324.827079 -262.988043 
L 326.849687 -262.988043 
L 328.816873 -262.988043 
L 330.731595 -263.33663 
L 332.596578 -263.685218 
L 334.414342 -263.685218 
L 336.187217 -281.811789 
L 337.917369 -282.160377 
L 339.606807 -281.811789 
L 341.257404 -281.811789 
L 342.870906 -282.508965 
L 344.448944 -282.508965 
L 345.993042 -282.508965 
L 347.504631 -282.508965 
L 348.985051 -282.508965 
L 350.435561 -282.508965 
L 351.857347 -284.600492 
L 353.251523 -284.600492 
L 354.619142 -284.600492 
L 355.961196 -284.600492 
L 357.278624 -282.508965 
L 358.572313 -282.508965 
L 359.843104 -282.508965 
L 361.091794 -282.508965 
L 362.319136 -282.508965 
L 363.525851 -282.508965 
L 364.712619 -282.508965 
L 365.880089 -282.508965 
L 367.028878 -284.600492 
L 368.159576 -284.600492 
L 369.272743 -282.508965 
L 370.368914 -282.508965 
L 371.4486 -282.508965 
L 372.512291 -284.600492 
L 373.560453 -282.508965 
L 374.593533 -282.508965 
L 375.611959 -284.600492 
L 376.616141 -282.508965 
L 377.606471 -282.508965 
L 378.583327 -282.508965 
L 379.547071 -282.508965 
L 380.498049 -282.508965 
L 381.436596 -282.508965 
L 382.363032 -282.508965 
L 383.277666 -282.508965 
L 384.180795 -287.040607 
L 385.072705 -286.692019 
L 385.953671 -287.040607 
L 386.823958 -286.692019 
L 387.683823 -286.692019 
L 388.533511 -286.692019 
L 389.373261 -287.040607 
L 390.203303 -287.040607 
L 391.023858 -287.040607 
L 391.835142 -286.692019 
L 392.63736 -286.692019 
L 393.430714 -286.692019 
L 394.215398 -286.692019 
L 394.215398 -290.177898 
L 394.215398 -290.177898 
L 393.430714 -290.177898 
L 392.63736 -290.177898 
L 391.835142 -290.177898 
L 391.023858 -290.177898 
L 390.203303 -290.177898 
L 389.373261 -290.177898 
L 388.533511 -290.177898 
L 387.683823 -290.177898 
L 386.823958 -290.177898 
L 385.953671 -290.177898 
L 385.072705 -290.177898 
L 384.180795 -290.177898 
L 383.277666 -290.177898 
L 382.363032 -290.177898 
L 381.436596 -290.177898 
L 380.498049 -290.177898 
L 379.547071 -290.177898 
L 378.583327 -290.177898 
L 377.606471 -290.177898 
L 376.616141 -290.177898 
L 375.611959 -290.177898 
L 374.593533 -290.177898 
L 373.560453 -290.177898 
L 372.512291 -290.177898 
L 371.4486 -290.177898 
L 370.368914 -290.177898 
L 369.272743 -290.177898 
L 368.159576 -289.829311 
L 367.028878 -289.829311 
L 365.880089 -290.177898 
L 364.712619 -290.177898 
L 363.525851 -290.177898 
L 362.319136 -290.177898 
L 361.091794 -290.177898 
L 359.843104 -290.177898 
L 358.572313 -290.177898 
L 357.278624 -290.177898 
L 355.961196 -289.829311 
L 354.619142 -289.829311 
L 353.251523 -289.829311 
L 351.857347 -289.829311 
L 350.435561 -290.177898 
L 348.985051 -289.480723 
L 347.504631 -289.480723 
L 345.993042 -289.480723 
L 344.448944 -289.480723 
L 342.870906 -289.480723 
L 341.257404 -289.480723 
L 339.606807 -289.480723 
L 337.917369 -289.132135 
L 336.187217 -289.132135 
L 334.414342 -288.434959 
L 332.596578 -288.783547 
L 330.731595 -288.086371 
L 328.816873 -287.389195 
L 326.849687 -287.389195 
L 324.827079 -287.389195 
L 322.745837 -287.389195 
L 320.60246 -287.389195 
L 318.393122 -287.389195 
L 316.113635 -288.086371 
L 313.759397 -288.086371 
L 311.32534 -288.086371 
L 308.805859 -288.086371 
L 306.194742 -287.389195 
L 303.485069 -287.389195 
L 300.669107 -287.389195 
L 297.738177 -287.389195 
L 294.68249 -287.389195 
L 291.49095 -287.389195 
L 288.150915 -287.389195 
L 284.647888 -287.389195 
L 280.965141 -287.389195 
L 277.083233 -287.389195 
L 272.979383 -286.692019 
L 268.626668 -286.692019 
L 263.992943 -286.692019 
L 259.039406 -286.692019 
L 253.718615 -286.692019 
L 247.971723 -285.646256 
L 241.724496 -285.297668 
L 234.881434 -276.234383 
L 227.316779 -261.593691 
L 218.860214 -260.896515 
L 209.272952 -260.199339 
L 198.205269 -258.804988 
L 185.11498 -258.804988 
L 169.09376 -258.804988 
L 148.438816 -258.107812 
L 119.327306 -251.83323 
L 69.560852 -197.453518 
z
" id="me64d39f1f0" style="stroke:#98df8a;stroke-opacity:0.2;"/>
    </defs>
    <g clip-path="url(#p30a3939a52)">
     <use style="fill:#98df8a;fill-opacity:0.2;stroke:#98df8a;stroke-opacity:0.2;" x="0" xlink:href="#me64d39f1f0" y="325.986375"/>
    </g>
   </g>
   <g id="PolyCollection_2">
    <defs>
     <path d="M 69.560852 -165.383432 
L 69.560852 -59.412711 
L 119.327306 -96.363028 
L 148.438816 -170.960838 
L 169.09376 -216.97444 
L 185.11498 -256.71346 
L 198.205269 -258.107812 
L 209.272952 -258.107812 
L 218.860214 -258.804988 
L 227.316779 -258.804988 
L 234.881434 -258.804988 
L 241.724496 -258.804988 
L 247.971723 -258.804988 
L 253.718615 -259.502164 
L 259.039406 -259.502164 
L 263.992943 -259.502164 
L 268.626668 -259.502164 
L 272.979383 -259.502164 
L 277.083233 -259.502164 
L 280.965141 -260.199339 
L 284.647888 -260.199339 
L 288.150915 -260.199339 
L 291.49095 -260.199339 
L 294.68249 -260.199339 
L 297.738177 -260.199339 
L 300.669107 -260.199339 
L 303.485069 -260.199339 
L 306.194742 -260.896515 
L 308.805859 -260.896515 
L 311.32534 -260.896515 
L 313.759397 -260.896515 
L 316.113635 -260.896515 
L 318.393122 -260.896515 
L 320.60246 -260.896515 
L 322.745837 -260.896515 
L 324.827079 -260.896515 
L 326.849687 -260.896515 
L 328.816873 -260.896515 
L 330.731595 -260.896515 
L 332.596578 -260.896515 
L 334.414342 -261.593691 
L 336.187217 -261.593691 
L 337.917369 -261.593691 
L 339.606807 -262.290867 
L 341.257404 -262.290867 
L 342.870906 -262.290867 
L 344.448944 -262.290867 
L 345.993042 -262.290867 
L 347.504631 -262.290867 
L 348.985051 -262.290867 
L 350.435561 -262.290867 
L 351.857347 -262.290867 
L 353.251523 -262.290867 
L 354.619142 -262.290867 
L 355.961196 -262.970613 
L 357.278624 -262.290867 
L 358.572313 -262.290867 
L 359.843104 -262.290867 
L 361.091794 -262.290867 
L 362.319136 -262.988043 
L 363.525851 -262.290867 
L 364.712619 -262.290867 
L 365.880089 -262.290867 
L 367.028878 -262.290867 
L 368.159576 -262.290867 
L 369.272743 -262.290867 
L 370.368914 -262.988043 
L 371.4486 -262.988043 
L 372.512291 -262.988043 
L 373.560453 -262.988043 
L 374.593533 -262.988043 
L 375.611959 -262.988043 
L 376.616141 -262.988043 
L 377.606471 -262.988043 
L 378.583327 -262.988043 
L 379.547071 -262.988043 
L 380.498049 -262.988043 
L 381.436596 -262.988043 
L 382.363032 -262.988043 
L 383.277666 -262.988043 
L 384.180795 -262.988043 
L 385.072705 -262.988043 
L 385.953671 -262.988043 
L 386.823958 -262.988043 
L 387.683823 -262.988043 
L 388.533511 -265.07957 
L 389.373261 -262.988043 
L 390.203303 -262.988043 
L 391.023858 -262.988043 
L 391.835142 -265.07957 
L 392.63736 -265.07957 
L 393.430714 -274.596019 
L 394.215398 -265.07957 
L 394.215398 -291.57225 
L 394.215398 -291.57225 
L 393.430714 -291.57225 
L 392.63736 -291.57225 
L 391.835142 -290.875074 
L 391.023858 -290.875074 
L 390.203303 -290.875074 
L 389.373261 -290.875074 
L 388.533511 -290.875074 
L 387.683823 -290.875074 
L 386.823958 -290.875074 
L 385.953671 -290.875074 
L 385.072705 -290.875074 
L 384.180795 -290.875074 
L 383.277666 -290.875074 
L 382.363032 -290.875074 
L 381.436596 -290.875074 
L 380.498049 -290.875074 
L 379.547071 -290.177898 
L 378.583327 -290.177898 
L 377.606471 -290.177898 
L 376.616141 -290.177898 
L 375.611959 -290.177898 
L 374.593533 -290.177898 
L 373.560453 -289.480723 
L 372.512291 -289.480723 
L 371.4486 -289.480723 
L 370.368914 -289.480723 
L 369.272743 -289.480723 
L 368.159576 -289.480723 
L 367.028878 -288.783547 
L 365.880089 -288.783547 
L 364.712619 -288.783547 
L 363.525851 -288.783547 
L 362.319136 -288.783547 
L 361.091794 -288.783547 
L 359.843104 -288.783547 
L 358.572313 -288.783547 
L 357.278624 -288.783547 
L 355.961196 -288.783547 
L 354.619142 -288.783547 
L 353.251523 -288.783547 
L 351.857347 -288.783547 
L 350.435561 -288.783547 
L 348.985051 -288.783547 
L 347.504631 -288.783547 
L 345.993042 -288.783547 
L 344.448944 -288.783547 
L 342.870906 -288.783547 
L 341.257404 -288.783547 
L 339.606807 -288.783547 
L 337.917369 -288.783547 
L 336.187217 -288.783547 
L 334.414342 -288.783547 
L 332.596578 -288.783547 
L 330.731595 -288.783547 
L 328.816873 -288.783547 
L 326.849687 -288.783547 
L 324.827079 -288.783547 
L 322.745837 -286.744308 
L 320.60246 -288.783547 
L 318.393122 -288.783547 
L 316.113635 -288.783547 
L 313.759397 -288.783547 
L 311.32534 -288.783547 
L 308.805859 -288.783547 
L 306.194742 -288.783547 
L 303.485069 -288.783547 
L 300.669107 -288.086371 
L 297.738177 -286.692019 
L 294.68249 -286.692019 
L 291.49095 -286.692019 
L 288.150915 -286.692019 
L 284.647888 -286.692019 
L 280.965141 -286.692019 
L 277.083233 -285.994844 
L 272.979383 -285.994844 
L 268.626668 -285.994844 
L 263.992943 -285.297668 
L 259.039406 -284.600492 
L 253.718615 -281.114613 
L 247.971723 -274.840031 
L 241.724496 -274.840031 
L 234.881434 -262.988043 
L 227.316779 -262.988043 
L 218.860214 -262.988043 
L 209.272952 -261.593691 
L 198.205269 -261.593691 
L 185.11498 -261.593691 
L 169.09376 -260.199339 
L 148.438816 -258.107812 
L 119.327306 -193.967639 
L 69.560852 -165.383432 
z
" id="mb3421a31ed" style="stroke:#1f77b4;stroke-opacity:0.2;"/>
    </defs>
    <g clip-path="url(#p30a3939a52)">
     <use style="fill:#1f77b4;fill-opacity:0.2;stroke:#1f77b4;stroke-opacity:0.2;" x="0" xlink:href="#mb3421a31ed" y="325.986375"/>
    </g>
   </g>
   <g id="PolyCollection_3">
    <defs>
     <path d="M 69.560852 -106.820665 
L 69.560852 -49.65225 
L 119.327306 -97.060204 
L 148.438816 -106.123489 
L 169.09376 -219.763143 
L 185.11498 -254.621933 
L 198.205269 -256.71346 
L 209.272952 -258.107812 
L 218.860214 -258.804988 
L 227.316779 -258.804988 
L 234.881434 -258.804988 
L 241.724496 -259.153576 
L 247.971723 -259.153576 
L 253.718615 -259.502164 
L 259.039406 -259.502164 
L 263.992943 -259.502164 
L 268.626668 -259.502164 
L 272.979383 -259.502164 
L 277.083233 -259.502164 
L 280.965141 -259.502164 
L 284.647888 -259.502164 
L 288.150915 -259.502164 
L 291.49095 -259.502164 
L 294.68249 -260.199339 
L 297.738177 -260.199339 
L 300.669107 -260.199339 
L 303.485069 -260.199339 
L 306.194742 -260.199339 
L 308.805859 -260.199339 
L 311.32534 -260.199339 
L 313.759397 -260.199339 
L 316.113635 -260.199339 
L 318.393122 -260.199339 
L 320.60246 -260.199339 
L 322.745837 -260.199339 
L 324.827079 -260.199339 
L 326.849687 -260.199339 
L 328.816873 -260.199339 
L 330.731595 -260.199339 
L 332.596578 -260.199339 
L 334.414342 -260.199339 
L 336.187217 -260.199339 
L 337.917369 -260.199339 
L 339.606807 -260.199339 
L 341.257404 -260.199339 
L 342.870906 -260.199339 
L 344.448944 -260.199339 
L 345.993042 -260.199339 
L 347.504631 -260.199339 
L 348.985051 -260.199339 
L 350.435561 -260.199339 
L 351.857347 -260.199339 
L 353.251523 -260.199339 
L 354.619142 -260.199339 
L 355.961196 -260.199339 
L 357.278624 -260.199339 
L 358.572313 -260.199339 
L 359.843104 -260.199339 
L 361.091794 -260.199339 
L 362.319136 -260.199339 
L 363.525851 -260.199339 
L 364.712619 -260.199339 
L 365.880089 -260.199339 
L 367.028878 -260.199339 
L 368.159576 -260.199339 
L 369.272743 -260.199339 
L 370.368914 -260.199339 
L 371.4486 -260.547927 
L 372.512291 -260.199339 
L 373.560453 -260.547927 
L 374.593533 -260.199339 
L 375.611959 -260.199339 
L 376.616141 -260.199339 
L 377.606471 -260.539213 
L 378.583327 -260.199339 
L 379.547071 -260.199339 
L 380.498049 -260.199339 
L 381.436596 -260.199339 
L 382.363032 -260.547927 
L 383.277666 -260.896515 
L 384.180795 -260.896515 
L 385.072705 -260.896515 
L 385.953671 -260.896515 
L 386.823958 -260.547927 
L 387.683823 -260.896515 
L 388.533511 -260.896515 
L 389.373261 -260.896515 
L 390.203303 -261.236388 
L 391.023858 -260.896515 
L 391.835142 -260.896515 
L 392.63736 -260.896515 
L 393.430714 -260.896515 
L 394.215398 -260.896515 
L 394.215398 -287.389195 
L 394.215398 -287.389195 
L 393.430714 -288.086371 
L 392.63736 -287.406625 
L 391.835142 -287.389195 
L 391.023858 -287.389195 
L 390.203303 -287.389195 
L 389.373261 -287.737783 
L 388.533511 -287.737783 
L 387.683823 -287.389195 
L 386.823958 -287.389195 
L 385.953671 -287.389195 
L 385.072705 -287.389195 
L 384.180795 -287.389195 
L 383.277666 -287.389195 
L 382.363032 -287.737783 
L 381.436596 -287.389195 
L 380.498049 -287.389195 
L 379.547071 -287.389195 
L 378.583327 -287.389195 
L 377.606471 -287.39791 
L 376.616141 -287.389195 
L 375.611959 -287.39791 
L 374.593533 -287.737783 
L 373.560453 -287.389195 
L 372.512291 -287.389195 
L 371.4486 -287.389195 
L 370.368914 -287.389195 
L 369.272743 -287.389195 
L 368.159576 -287.737783 
L 367.028878 -287.389195 
L 365.880089 -287.389195 
L 364.712619 -287.389195 
L 363.525851 -287.389195 
L 362.319136 -287.389195 
L 361.091794 -287.389195 
L 359.843104 -287.389195 
L 358.572313 -287.389195 
L 357.278624 -287.389195 
L 355.961196 -287.389195 
L 354.619142 -287.389195 
L 353.251523 -287.389195 
L 351.857347 -287.389195 
L 350.435561 -287.389195 
L 348.985051 -287.389195 
L 347.504631 -287.389195 
L 345.993042 -287.389195 
L 344.448944 -287.389195 
L 342.870906 -287.389195 
L 341.257404 -287.389195 
L 339.606807 -287.389195 
L 337.917369 -287.389195 
L 336.187217 -287.737783 
L 334.414342 -287.389195 
L 332.596578 -287.389195 
L 330.731595 -287.389195 
L 328.816873 -287.389195 
L 326.849687 -287.389195 
L 324.827079 -287.389195 
L 322.745837 -287.389195 
L 320.60246 -287.389195 
L 318.393122 -286.692019 
L 316.113635 -286.343432 
L 313.759397 -286.692019 
L 311.32534 -286.343432 
L 308.805859 -285.994844 
L 306.194742 -286.003558 
L 303.485069 -286.012273 
L 300.669107 -286.692019 
L 297.738177 -285.994844 
L 294.68249 -285.994844 
L 291.49095 -285.994844 
L 288.150915 -285.994844 
L 284.647888 -268.216861 
L 280.965141 -268.216861 
L 277.083233 -262.430302 
L 272.979383 -260.199339 
L 268.626668 -261.245103 
L 263.992943 -262.290867 
L 259.039406 -262.290867 
L 253.718615 -259.850751 
L 247.971723 -259.850751 
L 241.724496 -259.510878 
L 234.881434 -259.502164 
L 227.316779 -259.502164 
L 218.860214 -259.502164 
L 209.272952 -259.502164 
L 198.205269 -259.502164 
L 185.11498 -258.804988 
L 169.09376 -256.71346 
L 148.438816 -256.016285 
L 119.327306 -200.242221 
L 69.560852 -106.820665 
z
" id="m5819ed18c4" style="stroke:#d62728;stroke-opacity:0.2;"/>
    </defs>
    <g clip-path="url(#p30a3939a52)">
     <use style="fill:#d62728;fill-opacity:0.2;stroke:#d62728;stroke-opacity:0.2;" x="0" xlink:href="#m5819ed18c4" y="325.986375"/>
    </g>
   </g>
   <g id="matplotlib.axis_1">
    <g id="xtick_1">
     <g id="line2d_1">
      <defs>
       <path d="M 0 0 
L 0 3.5 
" id="mbd67f34333" style="stroke:#000000;stroke-width:0.8;"/>
      </defs>
      <g>
       <use style="stroke:#000000;stroke-width:0.8;" x="69.560852" xlink:href="#mbd67f34333" y="288.430125"/>
      </g>
     </g>
     <g id="text_1">
      <!-- 14m -->
      <g transform="translate(58.32804 303.028562)scale(0.1 -0.1)">
       <defs>
        <path d="M 794 531 
L 1825 531 
L 1825 4091 
L 703 3866 
L 703 4441 
L 1819 4666 
L 2450 4666 
L 2450 531 
L 3481 531 
L 3481 0 
L 794 0 
L 794 531 
z
" id="DejaVuSans-31" transform="scale(0.015625)"/>
        <path d="M 2419 4116 
L 825 1625 
L 2419 1625 
L 2419 4116 
z
M 2253 4666 
L 3047 4666 
L 3047 1625 
L 3713 1625 
L 3713 1100 
L 3047 1100 
L 3047 0 
L 2419 0 
L 2419 1100 
L 313 1100 
L 313 1709 
L 2253 4666 
z
" id="DejaVuSans-34" transform="scale(0.015625)"/>
        <path d="M 3328 2828 
Q 3544 3216 3844 3400 
Q 4144 3584 4550 3584 
Q 5097 3584 5394 3201 
Q 5691 2819 5691 2113 
L 5691 0 
L 5113 0 
L 5113 2094 
Q 5113 2597 4934 2840 
Q 4756 3084 4391 3084 
Q 3944 3084 3684 2787 
Q 3425 2491 3425 1978 
L 3425 0 
L 2847 0 
L 2847 2094 
Q 2847 2600 2669 2842 
Q 2491 3084 2119 3084 
Q 1678 3084 1418 2786 
Q 1159 2488 1159 1978 
L 1159 0 
L 581 0 
L 581 3500 
L 1159 3500 
L 1159 2956 
Q 1356 3278 1631 3431 
Q 1906 3584 2284 3584 
Q 2666 3584 2933 3390 
Q 3200 3197 3328 2828 
z
" id="DejaVuSans-6d" transform="scale(0.015625)"/>
       </defs>
       <use xlink:href="#DejaVuSans-31"/>
       <use x="63.623047" xlink:href="#DejaVuSans-34"/>
       <use x="127.246094" xlink:href="#DejaVuSans-6d"/>
      </g>
     </g>
    </g>
    <g id="xtick_2">
     <g id="line2d_2">
      <g>
       <use style="stroke:#000000;stroke-width:0.8;" x="134.491935" xlink:href="#mbd67f34333" y="288.430125"/>
      </g>
     </g>
     <g id="text_2">
      <!-- 37m -->
      <g transform="translate(123.259122 303.028562)scale(0.1 -0.1)">
       <defs>
        <path d="M 2597 2516 
Q 3050 2419 3304 2112 
Q 3559 1806 3559 1356 
Q 3559 666 3084 287 
Q 2609 -91 1734 -91 
Q 1441 -91 1130 -33 
Q 819 25 488 141 
L 488 750 
Q 750 597 1062 519 
Q 1375 441 1716 441 
Q 2309 441 2620 675 
Q 2931 909 2931 1356 
Q 2931 1769 2642 2001 
Q 2353 2234 1838 2234 
L 1294 2234 
L 1294 2753 
L 1863 2753 
Q 2328 2753 2575 2939 
Q 2822 3125 2822 3475 
Q 2822 3834 2567 4026 
Q 2313 4219 1838 4219 
Q 1578 4219 1281 4162 
Q 984 4106 628 3988 
L 628 4550 
Q 988 4650 1302 4700 
Q 1616 4750 1894 4750 
Q 2613 4750 3031 4423 
Q 3450 4097 3450 3541 
Q 3450 3153 3228 2886 
Q 3006 2619 2597 2516 
z
" id="DejaVuSans-33" transform="scale(0.015625)"/>
        <path d="M 525 4666 
L 3525 4666 
L 3525 4397 
L 1831 0 
L 1172 0 
L 2766 4134 
L 525 4134 
L 525 4666 
z
" id="DejaVuSans-37" transform="scale(0.015625)"/>
       </defs>
       <use xlink:href="#DejaVuSans-33"/>
       <use x="63.623047" xlink:href="#DejaVuSans-37"/>
       <use x="127.246094" xlink:href="#DejaVuSans-6d"/>
      </g>
     </g>
    </g>
    <g id="xtick_3">
     <g id="line2d_3">
      <g>
       <use style="stroke:#000000;stroke-width:0.8;" x="199.423017" xlink:href="#mbd67f34333" y="288.430125"/>
      </g>
     </g>
     <g id="text_3">
      <!-- 1h:31m -->
      <g transform="translate(180.15583 303.028562)scale(0.1 -0.1)">
       <defs>
        <path d="M 3513 2113 
L 3513 0 
L 2938 0 
L 2938 2094 
Q 2938 2591 2744 2837 
Q 2550 3084 2163 3084 
Q 1697 3084 1428 2787 
Q 1159 2491 1159 1978 
L 1159 0 
L 581 0 
L 581 4863 
L 1159 4863 
L 1159 2956 
Q 1366 3272 1645 3428 
Q 1925 3584 2291 3584 
Q 2894 3584 3203 3211 
Q 3513 2838 3513 2113 
z
" id="DejaVuSans-68" transform="scale(0.015625)"/>
        <path d="M 750 794 
L 1409 794 
L 1409 0 
L 750 0 
L 750 794 
z
M 750 3309 
L 1409 3309 
L 1409 2516 
L 750 2516 
L 750 3309 
z
" id="DejaVuSans-3a" transform="scale(0.015625)"/>
       </defs>
       <use xlink:href="#DejaVuSans-31"/>
       <use x="63.623047" xlink:href="#DejaVuSans-68"/>
       <use x="127.001953" xlink:href="#DejaVuSans-3a"/>
       <use x="160.693359" xlink:href="#DejaVuSans-33"/>
       <use x="224.316406" xlink:href="#DejaVuSans-31"/>
       <use x="287.939453" xlink:href="#DejaVuSans-6d"/>
      </g>
     </g>
    </g>
    <g id="xtick_4">
     <g id="line2d_4">
      <g>
       <use style="stroke:#000000;stroke-width:0.8;" x="264.3541" xlink:href="#mbd67f34333" y="288.430125"/>
      </g>
     </g>
     <g id="text_4">
      <!-- 3h:46m -->
      <g transform="translate(245.086912 303.028562)scale(0.1 -0.1)">
       <defs>
        <path d="M 2113 2584 
Q 1688 2584 1439 2293 
Q 1191 2003 1191 1497 
Q 1191 994 1439 701 
Q 1688 409 2113 409 
Q 2538 409 2786 701 
Q 3034 994 3034 1497 
Q 3034 2003 2786 2293 
Q 2538 2584 2113 2584 
z
M 3366 4563 
L 3366 3988 
Q 3128 4100 2886 4159 
Q 2644 4219 2406 4219 
Q 1781 4219 1451 3797 
Q 1122 3375 1075 2522 
Q 1259 2794 1537 2939 
Q 1816 3084 2150 3084 
Q 2853 3084 3261 2657 
Q 3669 2231 3669 1497 
Q 3669 778 3244 343 
Q 2819 -91 2113 -91 
Q 1303 -91 875 529 
Q 447 1150 447 2328 
Q 447 3434 972 4092 
Q 1497 4750 2381 4750 
Q 2619 4750 2861 4703 
Q 3103 4656 3366 4563 
z
" id="DejaVuSans-36" transform="scale(0.015625)"/>
       </defs>
       <use xlink:href="#DejaVuSans-33"/>
       <use x="63.623047" xlink:href="#DejaVuSans-68"/>
       <use x="127.001953" xlink:href="#DejaVuSans-3a"/>
       <use x="160.693359" xlink:href="#DejaVuSans-34"/>
       <use x="224.316406" xlink:href="#DejaVuSans-36"/>
       <use x="287.939453" xlink:href="#DejaVuSans-6d"/>
      </g>
     </g>
    </g>
    <g id="xtick_5">
     <g id="line2d_5">
      <g>
       <use style="stroke:#000000;stroke-width:0.8;" x="329.285182" xlink:href="#mbd67f34333" y="288.430125"/>
      </g>
     </g>
     <g id="text_5">
      <!-- 9h:18m -->
      <g transform="translate(310.017995 303.028562)scale(0.1 -0.1)">
       <defs>
        <path d="M 703 97 
L 703 672 
Q 941 559 1184 500 
Q 1428 441 1663 441 
Q 2288 441 2617 861 
Q 2947 1281 2994 2138 
Q 2813 1869 2534 1725 
Q 2256 1581 1919 1581 
Q 1219 1581 811 2004 
Q 403 2428 403 3163 
Q 403 3881 828 4315 
Q 1253 4750 1959 4750 
Q 2769 4750 3195 4129 
Q 3622 3509 3622 2328 
Q 3622 1225 3098 567 
Q 2575 -91 1691 -91 
Q 1453 -91 1209 -44 
Q 966 3 703 97 
z
M 1959 2075 
Q 2384 2075 2632 2365 
Q 2881 2656 2881 3163 
Q 2881 3666 2632 3958 
Q 2384 4250 1959 4250 
Q 1534 4250 1286 3958 
Q 1038 3666 1038 3163 
Q 1038 2656 1286 2365 
Q 1534 2075 1959 2075 
z
" id="DejaVuSans-39" transform="scale(0.015625)"/>
        <path d="M 2034 2216 
Q 1584 2216 1326 1975 
Q 1069 1734 1069 1313 
Q 1069 891 1326 650 
Q 1584 409 2034 409 
Q 2484 409 2743 651 
Q 3003 894 3003 1313 
Q 3003 1734 2745 1975 
Q 2488 2216 2034 2216 
z
M 1403 2484 
Q 997 2584 770 2862 
Q 544 3141 544 3541 
Q 544 4100 942 4425 
Q 1341 4750 2034 4750 
Q 2731 4750 3128 4425 
Q 3525 4100 3525 3541 
Q 3525 3141 3298 2862 
Q 3072 2584 2669 2484 
Q 3125 2378 3379 2068 
Q 3634 1759 3634 1313 
Q 3634 634 3220 271 
Q 2806 -91 2034 -91 
Q 1263 -91 848 271 
Q 434 634 434 1313 
Q 434 1759 690 2068 
Q 947 2378 1403 2484 
z
M 1172 3481 
Q 1172 3119 1398 2916 
Q 1625 2713 2034 2713 
Q 2441 2713 2670 2916 
Q 2900 3119 2900 3481 
Q 2900 3844 2670 4047 
Q 2441 4250 2034 4250 
Q 1625 4250 1398 4047 
Q 1172 3844 1172 3481 
z
" id="DejaVuSans-38" transform="scale(0.015625)"/>
       </defs>
       <use xlink:href="#DejaVuSans-39"/>
       <use x="63.623047" xlink:href="#DejaVuSans-68"/>
       <use x="127.001953" xlink:href="#DejaVuSans-3a"/>
       <use x="160.693359" xlink:href="#DejaVuSans-31"/>
       <use x="224.316406" xlink:href="#DejaVuSans-38"/>
       <use x="287.939453" xlink:href="#DejaVuSans-6d"/>
      </g>
     </g>
    </g>
    <g id="xtick_6">
     <g id="line2d_6">
      <g>
       <use style="stroke:#000000;stroke-width:0.8;" x="394.216265" xlink:href="#mbd67f34333" y="288.430125"/>
      </g>
     </g>
     <g id="text_6">
      <!-- 23h -->
      <g transform="translate(384.685015 303.028562)scale(0.1 -0.1)">
       <defs>
        <path d="M 1228 531 
L 3431 531 
L 3431 0 
L 469 0 
L 469 531 
Q 828 903 1448 1529 
Q 2069 2156 2228 2338 
Q 2531 2678 2651 2914 
Q 2772 3150 2772 3378 
Q 2772 3750 2511 3984 
Q 2250 4219 1831 4219 
Q 1534 4219 1204 4116 
Q 875 4013 500 3803 
L 500 4441 
Q 881 4594 1212 4672 
Q 1544 4750 1819 4750 
Q 2544 4750 2975 4387 
Q 3406 4025 3406 3419 
Q 3406 3131 3298 2873 
Q 3191 2616 2906 2266 
Q 2828 2175 2409 1742 
Q 1991 1309 1228 531 
z
" id="DejaVuSans-32" transform="scale(0.015625)"/>
       </defs>
       <use xlink:href="#DejaVuSans-32"/>
       <use x="63.623047" xlink:href="#DejaVuSans-33"/>
       <use x="127.246094" xlink:href="#DejaVuSans-68"/>
      </g>
     </g>
    </g>
    <g id="xtick_7">
     <g id="line2d_7">
      <defs>
       <path d="M 0 0 
L 0 2 
" id="m388232688c" style="stroke:#000000;stroke-width:0.6;"/>
      </defs>
      <g>
       <use style="stroke:#000000;stroke-width:0.6;" x="61.104288" xlink:href="#m388232688c" y="288.430125"/>
      </g>
     </g>
    </g>
    <g id="xtick_8">
     <g id="line2d_8">
      <g>
       <use style="stroke:#000000;stroke-width:0.6;" x="126.891961" xlink:href="#m388232688c" y="288.430125"/>
      </g>
     </g>
    </g>
    <g id="xtick_9">
     <g id="line2d_9">
      <g>
       <use style="stroke:#000000;stroke-width:0.6;" x="156.00347" xlink:href="#m388232688c" y="288.430125"/>
      </g>
     </g>
    </g>
    <g id="xtick_10">
     <g id="line2d_10">
      <g>
       <use style="stroke:#000000;stroke-width:0.6;" x="176.658415" xlink:href="#m388232688c" y="288.430125"/>
      </g>
     </g>
    </g>
    <g id="xtick_11">
     <g id="line2d_11">
      <g>
       <use style="stroke:#000000;stroke-width:0.6;" x="192.679635" xlink:href="#m388232688c" y="288.430125"/>
      </g>
     </g>
    </g>
    <g id="xtick_12">
     <g id="line2d_12">
      <g>
       <use style="stroke:#000000;stroke-width:0.6;" x="205.769924" xlink:href="#m388232688c" y="288.430125"/>
      </g>
     </g>
    </g>
    <g id="xtick_13">
     <g id="line2d_13">
      <g>
       <use style="stroke:#000000;stroke-width:0.6;" x="216.837607" xlink:href="#m388232688c" y="288.430125"/>
      </g>
     </g>
    </g>
    <g id="xtick_14">
     <g id="line2d_14">
      <g>
       <use style="stroke:#000000;stroke-width:0.6;" x="226.424869" xlink:href="#m388232688c" y="288.430125"/>
      </g>
     </g>
    </g>
    <g id="xtick_15">
     <g id="line2d_15">
      <g>
       <use style="stroke:#000000;stroke-width:0.6;" x="234.881434" xlink:href="#m388232688c" y="288.430125"/>
      </g>
     </g>
    </g>
    <g id="xtick_16">
     <g id="line2d_16">
      <g>
       <use style="stroke:#000000;stroke-width:0.6;" x="292.212543" xlink:href="#m388232688c" y="288.430125"/>
      </g>
     </g>
    </g>
    <g id="xtick_17">
     <g id="line2d_17">
      <g>
       <use style="stroke:#000000;stroke-width:0.6;" x="321.324052" xlink:href="#m388232688c" y="288.430125"/>
      </g>
     </g>
    </g>
    <g id="xtick_18">
     <g id="line2d_18">
      <g>
       <use style="stroke:#000000;stroke-width:0.6;" x="341.978996" xlink:href="#m388232688c" y="288.430125"/>
      </g>
     </g>
    </g>
    <g id="xtick_19">
     <g id="line2d_19">
      <g>
       <use style="stroke:#000000;stroke-width:0.6;" x="358.000216" xlink:href="#m388232688c" y="288.430125"/>
      </g>
     </g>
    </g>
    <g id="xtick_20">
     <g id="line2d_20">
      <g>
       <use style="stroke:#000000;stroke-width:0.6;" x="371.090506" xlink:href="#m388232688c" y="288.430125"/>
      </g>
     </g>
    </g>
    <g id="xtick_21">
     <g id="line2d_21">
      <g>
       <use style="stroke:#000000;stroke-width:0.6;" x="382.158188" xlink:href="#m388232688c" y="288.430125"/>
      </g>
     </g>
    </g>
    <g id="xtick_22">
     <g id="line2d_22">
      <g>
       <use style="stroke:#000000;stroke-width:0.6;" x="391.74545" xlink:href="#m388232688c" y="288.430125"/>
      </g>
     </g>
    </g>
    <g id="xtick_23">
     <g id="line2d_23">
      <g>
       <use style="stroke:#000000;stroke-width:0.6;" x="400.202015" xlink:href="#m388232688c" y="288.430125"/>
      </g>
     </g>
    </g>
    <g id="text_7">
     <!-- Time (hour:minute) -->
     <g transform="translate(183.481094 316.706687)scale(0.1 -0.1)">
      <defs>
       <path d="M -19 4666 
L 3928 4666 
L 3928 4134 
L 2272 4134 
L 2272 0 
L 1638 0 
L 1638 4134 
L -19 4134 
L -19 4666 
z
" id="DejaVuSans-54" transform="scale(0.015625)"/>
       <path d="M 603 3500 
L 1178 3500 
L 1178 0 
L 603 0 
L 603 3500 
z
M 603 4863 
L 1178 4863 
L 1178 4134 
L 603 4134 
L 603 4863 
z
" id="DejaVuSans-69" transform="scale(0.015625)"/>
       <path d="M 3597 1894 
L 3597 1613 
L 953 1613 
Q 991 1019 1311 708 
Q 1631 397 2203 397 
Q 2534 397 2845 478 
Q 3156 559 3463 722 
L 3463 178 
Q 3153 47 2828 -22 
Q 2503 -91 2169 -91 
Q 1331 -91 842 396 
Q 353 884 353 1716 
Q 353 2575 817 3079 
Q 1281 3584 2069 3584 
Q 2775 3584 3186 3129 
Q 3597 2675 3597 1894 
z
M 3022 2063 
Q 3016 2534 2758 2815 
Q 2500 3097 2075 3097 
Q 1594 3097 1305 2825 
Q 1016 2553 972 2059 
L 3022 2063 
z
" id="DejaVuSans-65" transform="scale(0.015625)"/>
       <path id="DejaVuSans-20" transform="scale(0.015625)"/>
       <path d="M 1984 4856 
Q 1566 4138 1362 3434 
Q 1159 2731 1159 2009 
Q 1159 1288 1364 580 
Q 1569 -128 1984 -844 
L 1484 -844 
Q 1016 -109 783 600 
Q 550 1309 550 2009 
Q 550 2706 781 3412 
Q 1013 4119 1484 4856 
L 1984 4856 
z
" id="DejaVuSans-28" transform="scale(0.015625)"/>
       <path d="M 1959 3097 
Q 1497 3097 1228 2736 
Q 959 2375 959 1747 
Q 959 1119 1226 758 
Q 1494 397 1959 397 
Q 2419 397 2687 759 
Q 2956 1122 2956 1747 
Q 2956 2369 2687 2733 
Q 2419 3097 1959 3097 
z
M 1959 3584 
Q 2709 3584 3137 3096 
Q 3566 2609 3566 1747 
Q 3566 888 3137 398 
Q 2709 -91 1959 -91 
Q 1206 -91 779 398 
Q 353 888 353 1747 
Q 353 2609 779 3096 
Q 1206 3584 1959 3584 
z
" id="DejaVuSans-6f" transform="scale(0.015625)"/>
       <path d="M 544 1381 
L 544 3500 
L 1119 3500 
L 1119 1403 
Q 1119 906 1312 657 
Q 1506 409 1894 409 
Q 2359 409 2629 706 
Q 2900 1003 2900 1516 
L 2900 3500 
L 3475 3500 
L 3475 0 
L 2900 0 
L 2900 538 
Q 2691 219 2414 64 
Q 2138 -91 1772 -91 
Q 1169 -91 856 284 
Q 544 659 544 1381 
z
M 1991 3584 
L 1991 3584 
z
" id="DejaVuSans-75" transform="scale(0.015625)"/>
       <path d="M 2631 2963 
Q 2534 3019 2420 3045 
Q 2306 3072 2169 3072 
Q 1681 3072 1420 2755 
Q 1159 2438 1159 1844 
L 1159 0 
L 581 0 
L 581 3500 
L 1159 3500 
L 1159 2956 
Q 1341 3275 1631 3429 
Q 1922 3584 2338 3584 
Q 2397 3584 2469 3576 
Q 2541 3569 2628 3553 
L 2631 2963 
z
" id="DejaVuSans-72" transform="scale(0.015625)"/>
       <path d="M 3513 2113 
L 3513 0 
L 2938 0 
L 2938 2094 
Q 2938 2591 2744 2837 
Q 2550 3084 2163 3084 
Q 1697 3084 1428 2787 
Q 1159 2491 1159 1978 
L 1159 0 
L 581 0 
L 581 3500 
L 1159 3500 
L 1159 2956 
Q 1366 3272 1645 3428 
Q 1925 3584 2291 3584 
Q 2894 3584 3203 3211 
Q 3513 2838 3513 2113 
z
" id="DejaVuSans-6e" transform="scale(0.015625)"/>
       <path d="M 1172 4494 
L 1172 3500 
L 2356 3500 
L 2356 3053 
L 1172 3053 
L 1172 1153 
Q 1172 725 1289 603 
Q 1406 481 1766 481 
L 2356 481 
L 2356 0 
L 1766 0 
Q 1100 0 847 248 
Q 594 497 594 1153 
L 594 3053 
L 172 3053 
L 172 3500 
L 594 3500 
L 594 4494 
L 1172 4494 
z
" id="DejaVuSans-74" transform="scale(0.015625)"/>
       <path d="M 513 4856 
L 1013 4856 
Q 1481 4119 1714 3412 
Q 1947 2706 1947 2009 
Q 1947 1309 1714 600 
Q 1481 -109 1013 -844 
L 513 -844 
Q 928 -128 1133 580 
Q 1338 1288 1338 2009 
Q 1338 2731 1133 3434 
Q 928 4138 513 4856 
z
" id="DejaVuSans-29" transform="scale(0.015625)"/>
      </defs>
      <use xlink:href="#DejaVuSans-54"/>
      <use x="57.958984" xlink:href="#DejaVuSans-69"/>
      <use x="85.742188" xlink:href="#DejaVuSans-6d"/>
      <use x="183.154297" xlink:href="#DejaVuSans-65"/>
      <use x="244.677734" xlink:href="#DejaVuSans-20"/>
      <use x="276.464844" xlink:href="#DejaVuSans-28"/>
      <use x="315.478516" xlink:href="#DejaVuSans-68"/>
      <use x="378.857422" xlink:href="#DejaVuSans-6f"/>
      <use x="440.039062" xlink:href="#DejaVuSans-75"/>
      <use x="503.417969" xlink:href="#DejaVuSans-72"/>
      <use x="542.78125" xlink:href="#DejaVuSans-3a"/>
      <use x="576.472656" xlink:href="#DejaVuSans-6d"/>
      <use x="673.884766" xlink:href="#DejaVuSans-69"/>
      <use x="701.667969" xlink:href="#DejaVuSans-6e"/>
      <use x="765.046875" xlink:href="#DejaVuSans-75"/>
      <use x="828.425781" xlink:href="#DejaVuSans-74"/>
      <use x="867.634766" xlink:href="#DejaVuSans-65"/>
      <use x="929.158203" xlink:href="#DejaVuSans-29"/>
     </g>
    </g>
   </g>
   <g id="matplotlib.axis_2">
    <g id="ytick_1">
     <g id="line2d_24">
      <defs>
       <path d="M 0 0 
L -3.5 0 
" id="m3863d45b3a" style="stroke:#000000;stroke-width:0.8;"/>
      </defs>
      <g>
       <use style="stroke:#000000;stroke-width:0.8;" x="53.328125" xlink:href="#m3863d45b3a" y="270.059543"/>
      </g>
     </g>
     <g id="text_8">
      <!-- 5200 -->
      <g transform="translate(20.878125 273.858762)scale(0.1 -0.1)">
       <defs>
        <path d="M 691 4666 
L 3169 4666 
L 3169 4134 
L 1269 4134 
L 1269 2991 
Q 1406 3038 1543 3061 
Q 1681 3084 1819 3084 
Q 2600 3084 3056 2656 
Q 3513 2228 3513 1497 
Q 3513 744 3044 326 
Q 2575 -91 1722 -91 
Q 1428 -91 1123 -41 
Q 819 9 494 109 
L 494 744 
Q 775 591 1075 516 
Q 1375 441 1709 441 
Q 2250 441 2565 725 
Q 2881 1009 2881 1497 
Q 2881 1984 2565 2268 
Q 2250 2553 1709 2553 
Q 1456 2553 1204 2497 
Q 953 2441 691 2322 
L 691 4666 
z
" id="DejaVuSans-35" transform="scale(0.015625)"/>
        <path d="M 2034 4250 
Q 1547 4250 1301 3770 
Q 1056 3291 1056 2328 
Q 1056 1369 1301 889 
Q 1547 409 2034 409 
Q 2525 409 2770 889 
Q 3016 1369 3016 2328 
Q 3016 3291 2770 3770 
Q 2525 4250 2034 4250 
z
M 2034 4750 
Q 2819 4750 3233 4129 
Q 3647 3509 3647 2328 
Q 3647 1150 3233 529 
Q 2819 -91 2034 -91 
Q 1250 -91 836 529 
Q 422 1150 422 2328 
Q 422 3509 836 4129 
Q 1250 4750 2034 4750 
z
" id="DejaVuSans-30" transform="scale(0.015625)"/>
       </defs>
       <use xlink:href="#DejaVuSans-35"/>
       <use x="63.623047" xlink:href="#DejaVuSans-32"/>
       <use x="127.246094" xlink:href="#DejaVuSans-30"/>
       <use x="190.869141" xlink:href="#DejaVuSans-30"/>
      </g>
     </g>
    </g>
    <g id="ytick_2">
     <g id="line2d_25">
      <g>
       <use style="stroke:#000000;stroke-width:0.8;" x="53.328125" xlink:href="#m3863d45b3a" y="235.200753"/>
      </g>
     </g>
     <g id="text_9">
      <!-- 5250 -->
      <g transform="translate(20.878125 238.999972)scale(0.1 -0.1)">
       <use xlink:href="#DejaVuSans-35"/>
       <use x="63.623047" xlink:href="#DejaVuSans-32"/>
       <use x="127.246094" xlink:href="#DejaVuSans-35"/>
       <use x="190.869141" xlink:href="#DejaVuSans-30"/>
      </g>
     </g>
    </g>
    <g id="ytick_3">
     <g id="line2d_26">
      <g>
       <use style="stroke:#000000;stroke-width:0.8;" x="53.328125" xlink:href="#m3863d45b3a" y="200.341964"/>
      </g>
     </g>
     <g id="text_10">
      <!-- 5300 -->
      <g transform="translate(20.878125 204.141182)scale(0.1 -0.1)">
       <use xlink:href="#DejaVuSans-35"/>
       <use x="63.623047" xlink:href="#DejaVuSans-33"/>
       <use x="127.246094" xlink:href="#DejaVuSans-30"/>
       <use x="190.869141" xlink:href="#DejaVuSans-30"/>
      </g>
     </g>
    </g>
    <g id="ytick_4">
     <g id="line2d_27">
      <g>
       <use style="stroke:#000000;stroke-width:0.8;" x="53.328125" xlink:href="#m3863d45b3a" y="165.483174"/>
      </g>
     </g>
     <g id="text_11">
      <!-- 5350 -->
      <g transform="translate(20.878125 169.282393)scale(0.1 -0.1)">
       <use xlink:href="#DejaVuSans-35"/>
       <use x="63.623047" xlink:href="#DejaVuSans-33"/>
       <use x="127.246094" xlink:href="#DejaVuSans-35"/>
       <use x="190.869141" xlink:href="#DejaVuSans-30"/>
      </g>
     </g>
    </g>
    <g id="ytick_5">
     <g id="line2d_28">
      <g>
       <use style="stroke:#000000;stroke-width:0.8;" x="53.328125" xlink:href="#m3863d45b3a" y="130.624384"/>
      </g>
     </g>
     <g id="text_12">
      <!-- 5400 -->
      <g transform="translate(20.878125 134.423603)scale(0.1 -0.1)">
       <use xlink:href="#DejaVuSans-35"/>
       <use x="63.623047" xlink:href="#DejaVuSans-34"/>
       <use x="127.246094" xlink:href="#DejaVuSans-30"/>
       <use x="190.869141" xlink:href="#DejaVuSans-30"/>
      </g>
     </g>
    </g>
    <g id="ytick_6">
     <g id="line2d_29">
      <g>
       <use style="stroke:#000000;stroke-width:0.8;" x="53.328125" xlink:href="#m3863d45b3a" y="95.765595"/>
      </g>
     </g>
     <g id="text_13">
      <!-- 5450 -->
      <g transform="translate(20.878125 99.564813)scale(0.1 -0.1)">
       <use xlink:href="#DejaVuSans-35"/>
       <use x="63.623047" xlink:href="#DejaVuSans-34"/>
       <use x="127.246094" xlink:href="#DejaVuSans-35"/>
       <use x="190.869141" xlink:href="#DejaVuSans-30"/>
      </g>
     </g>
    </g>
    <g id="ytick_7">
     <g id="line2d_30">
      <g>
       <use style="stroke:#000000;stroke-width:0.8;" x="53.328125" xlink:href="#m3863d45b3a" y="60.906805"/>
      </g>
     </g>
     <g id="text_14">
      <!-- 5500 -->
      <g transform="translate(20.878125 64.706024)scale(0.1 -0.1)">
       <use xlink:href="#DejaVuSans-35"/>
       <use x="63.623047" xlink:href="#DejaVuSans-35"/>
       <use x="127.246094" xlink:href="#DejaVuSans-30"/>
       <use x="190.869141" xlink:href="#DejaVuSans-30"/>
      </g>
     </g>
    </g>
    <g id="ytick_8">
     <g id="line2d_31">
      <g>
       <use style="stroke:#000000;stroke-width:0.8;" x="53.328125" xlink:href="#m3863d45b3a" y="26.048015"/>
      </g>
     </g>
     <g id="text_15">
      <!-- 5550 -->
      <g transform="translate(20.878125 29.847234)scale(0.1 -0.1)">
       <use xlink:href="#DejaVuSans-35"/>
       <use x="63.623047" xlink:href="#DejaVuSans-35"/>
       <use x="127.246094" xlink:href="#DejaVuSans-35"/>
       <use x="190.869141" xlink:href="#DejaVuSans-30"/>
      </g>
     </g>
    </g>
    <g id="text_16">
     <!-- Code region coverage -->
     <g transform="translate(14.798438 210.379594)rotate(-90)scale(0.1 -0.1)">
      <defs>
       <path d="M 4122 4306 
L 4122 3641 
Q 3803 3938 3442 4084 
Q 3081 4231 2675 4231 
Q 1875 4231 1450 3742 
Q 1025 3253 1025 2328 
Q 1025 1406 1450 917 
Q 1875 428 2675 428 
Q 3081 428 3442 575 
Q 3803 722 4122 1019 
L 4122 359 
Q 3791 134 3420 21 
Q 3050 -91 2638 -91 
Q 1578 -91 968 557 
Q 359 1206 359 2328 
Q 359 3453 968 4101 
Q 1578 4750 2638 4750 
Q 3056 4750 3426 4639 
Q 3797 4528 4122 4306 
z
" id="DejaVuSans-43" transform="scale(0.015625)"/>
       <path d="M 2906 2969 
L 2906 4863 
L 3481 4863 
L 3481 0 
L 2906 0 
L 2906 525 
Q 2725 213 2448 61 
Q 2172 -91 1784 -91 
Q 1150 -91 751 415 
Q 353 922 353 1747 
Q 353 2572 751 3078 
Q 1150 3584 1784 3584 
Q 2172 3584 2448 3432 
Q 2725 3281 2906 2969 
z
M 947 1747 
Q 947 1113 1208 752 
Q 1469 391 1925 391 
Q 2381 391 2643 752 
Q 2906 1113 2906 1747 
Q 2906 2381 2643 2742 
Q 2381 3103 1925 3103 
Q 1469 3103 1208 2742 
Q 947 2381 947 1747 
z
" id="DejaVuSans-64" transform="scale(0.015625)"/>
       <path d="M 2906 1791 
Q 2906 2416 2648 2759 
Q 2391 3103 1925 3103 
Q 1463 3103 1205 2759 
Q 947 2416 947 1791 
Q 947 1169 1205 825 
Q 1463 481 1925 481 
Q 2391 481 2648 825 
Q 2906 1169 2906 1791 
z
M 3481 434 
Q 3481 -459 3084 -895 
Q 2688 -1331 1869 -1331 
Q 1566 -1331 1297 -1286 
Q 1028 -1241 775 -1147 
L 775 -588 
Q 1028 -725 1275 -790 
Q 1522 -856 1778 -856 
Q 2344 -856 2625 -561 
Q 2906 -266 2906 331 
L 2906 616 
Q 2728 306 2450 153 
Q 2172 0 1784 0 
Q 1141 0 747 490 
Q 353 981 353 1791 
Q 353 2603 747 3093 
Q 1141 3584 1784 3584 
Q 2172 3584 2450 3431 
Q 2728 3278 2906 2969 
L 2906 3500 
L 3481 3500 
L 3481 434 
z
" id="DejaVuSans-67" transform="scale(0.015625)"/>
       <path d="M 3122 3366 
L 3122 2828 
Q 2878 2963 2633 3030 
Q 2388 3097 2138 3097 
Q 1578 3097 1268 2742 
Q 959 2388 959 1747 
Q 959 1106 1268 751 
Q 1578 397 2138 397 
Q 2388 397 2633 464 
Q 2878 531 3122 666 
L 3122 134 
Q 2881 22 2623 -34 
Q 2366 -91 2075 -91 
Q 1284 -91 818 406 
Q 353 903 353 1747 
Q 353 2603 823 3093 
Q 1294 3584 2113 3584 
Q 2378 3584 2631 3529 
Q 2884 3475 3122 3366 
z
" id="DejaVuSans-63" transform="scale(0.015625)"/>
       <path d="M 191 3500 
L 800 3500 
L 1894 563 
L 2988 3500 
L 3597 3500 
L 2284 0 
L 1503 0 
L 191 3500 
z
" id="DejaVuSans-76" transform="scale(0.015625)"/>
       <path d="M 2194 1759 
Q 1497 1759 1228 1600 
Q 959 1441 959 1056 
Q 959 750 1161 570 
Q 1363 391 1709 391 
Q 2188 391 2477 730 
Q 2766 1069 2766 1631 
L 2766 1759 
L 2194 1759 
z
M 3341 1997 
L 3341 0 
L 2766 0 
L 2766 531 
Q 2569 213 2275 61 
Q 1981 -91 1556 -91 
Q 1019 -91 701 211 
Q 384 513 384 1019 
Q 384 1609 779 1909 
Q 1175 2209 1959 2209 
L 2766 2209 
L 2766 2266 
Q 2766 2663 2505 2880 
Q 2244 3097 1772 3097 
Q 1472 3097 1187 3025 
Q 903 2953 641 2809 
L 641 3341 
Q 956 3463 1253 3523 
Q 1550 3584 1831 3584 
Q 2591 3584 2966 3190 
Q 3341 2797 3341 1997 
z
" id="DejaVuSans-61" transform="scale(0.015625)"/>
      </defs>
      <use xlink:href="#DejaVuSans-43"/>
      <use x="69.824219" xlink:href="#DejaVuSans-6f"/>
      <use x="131.005859" xlink:href="#DejaVuSans-64"/>
      <use x="194.482422" xlink:href="#DejaVuSans-65"/>
      <use x="256.005859" xlink:href="#DejaVuSans-20"/>
      <use x="287.792969" xlink:href="#DejaVuSans-72"/>
      <use x="326.65625" xlink:href="#DejaVuSans-65"/>
      <use x="388.179688" xlink:href="#DejaVuSans-67"/>
      <use x="451.65625" xlink:href="#DejaVuSans-69"/>
      <use x="479.439453" xlink:href="#DejaVuSans-6f"/>
      <use x="540.621094" xlink:href="#DejaVuSans-6e"/>
      <use x="604" xlink:href="#DejaVuSans-20"/>
      <use x="635.787109" xlink:href="#DejaVuSans-63"/>
      <use x="690.767578" xlink:href="#DejaVuSans-6f"/>
      <use x="751.949219" xlink:href="#DejaVuSans-76"/>
      <use x="811.128906" xlink:href="#DejaVuSans-65"/>
      <use x="872.652344" xlink:href="#DejaVuSans-72"/>
      <use x="913.765625" xlink:href="#DejaVuSans-61"/>
      <use x="975.044922" xlink:href="#DejaVuSans-67"/>
      <use x="1038.521484" xlink:href="#DejaVuSans-65"/>
     </g>
    </g>
   </g>
   <g id="line2d_32">
    <path clip-path="url(#p30a3939a52)" d="M 69.560852 228.926171 
L 119.327306 118.07522 
L 148.438816 71.364442 
L 169.09376 68.575739 
L 185.11498 67.878563 
L 198.205269 67.878563 
L 209.272952 66.484211 
L 218.860214 66.484211 
L 227.316779 65.787036 
L 234.881434 65.787036 
L 241.724496 65.08986 
L 247.971723 65.08986 
L 253.718615 64.392684 
L 259.039406 63.695508 
L 263.992943 63.695508 
L 268.626668 39.294356 
L 272.979383 39.294356 
L 277.083233 39.294356 
L 280.965141 39.294356 
L 284.647888 39.294356 
L 288.150915 39.294356 
L 291.49095 39.294356 
L 294.68249 39.294356 
L 297.738177 39.294356 
L 300.669107 39.294356 
L 303.485069 39.294356 
L 306.194742 39.294356 
L 308.805859 38.59718 
L 311.32534 38.59718 
L 313.759397 38.59718 
L 316.113635 38.59718 
L 318.393122 38.59718 
L 320.60246 38.59718 
L 322.745837 38.59718 
L 324.827079 38.59718 
L 326.849687 38.59718 
L 328.816873 38.59718 
L 330.731595 38.59718 
L 332.596578 38.59718 
L 334.414342 38.59718 
L 336.187217 38.59718 
L 337.917369 38.59718 
L 339.606807 38.59718 
L 341.257404 38.59718 
L 342.870906 38.59718 
L 344.448944 38.59718 
L 345.993042 38.59718 
L 347.504631 38.59718 
L 348.985051 38.59718 
L 350.435561 38.59718 
L 351.857347 38.59718 
L 353.251523 38.59718 
L 354.619142 38.59718 
L 355.961196 38.59718 
L 357.278624 38.59718 
L 358.572313 38.59718 
L 359.843104 38.59718 
L 361.091794 38.59718 
L 362.319136 38.59718 
L 363.525851 38.59718 
L 364.712619 38.59718 
L 365.880089 38.59718 
L 367.028878 38.248592 
L 368.159576 38.248592 
L 369.272743 38.59718 
L 370.368914 38.59718 
L 371.4486 38.59718 
L 372.512291 38.248592 
L 373.560453 38.248592 
L 374.593533 38.248592 
L 375.611959 38.248592 
L 376.616141 38.59718 
L 377.606471 38.59718 
L 378.583327 38.59718 
L 379.547071 38.59718 
L 380.498049 38.59718 
L 381.436596 38.59718 
L 382.363032 38.59718 
L 383.277666 38.59718 
L 384.180795 36.85424 
L 385.072705 36.85424 
L 385.953671 36.85424 
L 386.823958 36.505652 
L 387.683823 36.505652 
L 388.533511 36.505652 
L 389.373261 36.85424 
L 390.203303 36.85424 
L 391.023858 36.85424 
L 391.835142 36.505652 
L 392.63736 36.505652 
L 393.430714 36.505652 
L 394.215398 36.505652 
" style="fill:none;stroke:#98df8a;stroke-linecap:square;stroke-width:1.5;"/>
    <defs>
     <path d="M -0 3 
L 3 -3 
L -3 -3 
z
" id="m77f40039f7" style="stroke:#ffffff;stroke-linejoin:miter;stroke-width:0.75;"/>
    </defs>
    <g clip-path="url(#p30a3939a52)">
     <use style="fill:#98df8a;stroke:#ffffff;stroke-linejoin:miter;stroke-width:0.75;" x="69.560852" xlink:href="#m77f40039f7" y="228.926171"/>
     <use style="fill:#98df8a;stroke:#ffffff;stroke-linejoin:miter;stroke-width:0.75;" x="119.327306" xlink:href="#m77f40039f7" y="118.07522"/>
     <use style="fill:#98df8a;stroke:#ffffff;stroke-linejoin:miter;stroke-width:0.75;" x="148.438816" xlink:href="#m77f40039f7" y="71.364442"/>
     <use style="fill:#98df8a;stroke:#ffffff;stroke-linejoin:miter;stroke-width:0.75;" x="169.09376" xlink:href="#m77f40039f7" y="68.575739"/>
     <use style="fill:#98df8a;stroke:#ffffff;stroke-linejoin:miter;stroke-width:0.75;" x="185.11498" xlink:href="#m77f40039f7" y="67.878563"/>
     <use style="fill:#98df8a;stroke:#ffffff;stroke-linejoin:miter;stroke-width:0.75;" x="198.205269" xlink:href="#m77f40039f7" y="67.878563"/>
     <use style="fill:#98df8a;stroke:#ffffff;stroke-linejoin:miter;stroke-width:0.75;" x="209.272952" xlink:href="#m77f40039f7" y="66.484211"/>
     <use style="fill:#98df8a;stroke:#ffffff;stroke-linejoin:miter;stroke-width:0.75;" x="218.860214" xlink:href="#m77f40039f7" y="66.484211"/>
     <use style="fill:#98df8a;stroke:#ffffff;stroke-linejoin:miter;stroke-width:0.75;" x="227.316779" xlink:href="#m77f40039f7" y="65.787036"/>
     <use style="fill:#98df8a;stroke:#ffffff;stroke-linejoin:miter;stroke-width:0.75;" x="234.881434" xlink:href="#m77f40039f7" y="65.787036"/>
     <use style="fill:#98df8a;stroke:#ffffff;stroke-linejoin:miter;stroke-width:0.75;" x="241.724496" xlink:href="#m77f40039f7" y="65.08986"/>
     <use style="fill:#98df8a;stroke:#ffffff;stroke-linejoin:miter;stroke-width:0.75;" x="247.971723" xlink:href="#m77f40039f7" y="65.08986"/>
     <use style="fill:#98df8a;stroke:#ffffff;stroke-linejoin:miter;stroke-width:0.75;" x="253.718615" xlink:href="#m77f40039f7" y="64.392684"/>
     <use style="fill:#98df8a;stroke:#ffffff;stroke-linejoin:miter;stroke-width:0.75;" x="259.039406" xlink:href="#m77f40039f7" y="63.695508"/>
     <use style="fill:#98df8a;stroke:#ffffff;stroke-linejoin:miter;stroke-width:0.75;" x="263.992943" xlink:href="#m77f40039f7" y="63.695508"/>
     <use style="fill:#98df8a;stroke:#ffffff;stroke-linejoin:miter;stroke-width:0.75;" x="268.626668" xlink:href="#m77f40039f7" y="39.294356"/>
     <use style="fill:#98df8a;stroke:#ffffff;stroke-linejoin:miter;stroke-width:0.75;" x="272.979383" xlink:href="#m77f40039f7" y="39.294356"/>
     <use style="fill:#98df8a;stroke:#ffffff;stroke-linejoin:miter;stroke-width:0.75;" x="277.083233" xlink:href="#m77f40039f7" y="39.294356"/>
     <use style="fill:#98df8a;stroke:#ffffff;stroke-linejoin:miter;stroke-width:0.75;" x="280.965141" xlink:href="#m77f40039f7" y="39.294356"/>
     <use style="fill:#98df8a;stroke:#ffffff;stroke-linejoin:miter;stroke-width:0.75;" x="284.647888" xlink:href="#m77f40039f7" y="39.294356"/>
     <use style="fill:#98df8a;stroke:#ffffff;stroke-linejoin:miter;stroke-width:0.75;" x="288.150915" xlink:href="#m77f40039f7" y="39.294356"/>
     <use style="fill:#98df8a;stroke:#ffffff;stroke-linejoin:miter;stroke-width:0.75;" x="291.49095" xlink:href="#m77f40039f7" y="39.294356"/>
     <use style="fill:#98df8a;stroke:#ffffff;stroke-linejoin:miter;stroke-width:0.75;" x="294.68249" xlink:href="#m77f40039f7" y="39.294356"/>
     <use style="fill:#98df8a;stroke:#ffffff;stroke-linejoin:miter;stroke-width:0.75;" x="297.738177" xlink:href="#m77f40039f7" y="39.294356"/>
     <use style="fill:#98df8a;stroke:#ffffff;stroke-linejoin:miter;stroke-width:0.75;" x="300.669107" xlink:href="#m77f40039f7" y="39.294356"/>
     <use style="fill:#98df8a;stroke:#ffffff;stroke-linejoin:miter;stroke-width:0.75;" x="303.485069" xlink:href="#m77f40039f7" y="39.294356"/>
     <use style="fill:#98df8a;stroke:#ffffff;stroke-linejoin:miter;stroke-width:0.75;" x="306.194742" xlink:href="#m77f40039f7" y="39.294356"/>
     <use style="fill:#98df8a;stroke:#ffffff;stroke-linejoin:miter;stroke-width:0.75;" x="308.805859" xlink:href="#m77f40039f7" y="38.59718"/>
     <use style="fill:#98df8a;stroke:#ffffff;stroke-linejoin:miter;stroke-width:0.75;" x="311.32534" xlink:href="#m77f40039f7" y="38.59718"/>
     <use style="fill:#98df8a;stroke:#ffffff;stroke-linejoin:miter;stroke-width:0.75;" x="313.759397" xlink:href="#m77f40039f7" y="38.59718"/>
     <use style="fill:#98df8a;stroke:#ffffff;stroke-linejoin:miter;stroke-width:0.75;" x="316.113635" xlink:href="#m77f40039f7" y="38.59718"/>
     <use style="fill:#98df8a;stroke:#ffffff;stroke-linejoin:miter;stroke-width:0.75;" x="318.393122" xlink:href="#m77f40039f7" y="38.59718"/>
     <use style="fill:#98df8a;stroke:#ffffff;stroke-linejoin:miter;stroke-width:0.75;" x="320.60246" xlink:href="#m77f40039f7" y="38.59718"/>
     <use style="fill:#98df8a;stroke:#ffffff;stroke-linejoin:miter;stroke-width:0.75;" x="322.745837" xlink:href="#m77f40039f7" y="38.59718"/>
     <use style="fill:#98df8a;stroke:#ffffff;stroke-linejoin:miter;stroke-width:0.75;" x="324.827079" xlink:href="#m77f40039f7" y="38.59718"/>
     <use style="fill:#98df8a;stroke:#ffffff;stroke-linejoin:miter;stroke-width:0.75;" x="326.849687" xlink:href="#m77f40039f7" y="38.59718"/>
     <use style="fill:#98df8a;stroke:#ffffff;stroke-linejoin:miter;stroke-width:0.75;" x="328.816873" xlink:href="#m77f40039f7" y="38.59718"/>
     <use style="fill:#98df8a;stroke:#ffffff;stroke-linejoin:miter;stroke-width:0.75;" x="330.731595" xlink:href="#m77f40039f7" y="38.59718"/>
     <use style="fill:#98df8a;stroke:#ffffff;stroke-linejoin:miter;stroke-width:0.75;" x="332.596578" xlink:href="#m77f40039f7" y="38.59718"/>
     <use style="fill:#98df8a;stroke:#ffffff;stroke-linejoin:miter;stroke-width:0.75;" x="334.414342" xlink:href="#m77f40039f7" y="38.59718"/>
     <use style="fill:#98df8a;stroke:#ffffff;stroke-linejoin:miter;stroke-width:0.75;" x="336.187217" xlink:href="#m77f40039f7" y="38.59718"/>
     <use style="fill:#98df8a;stroke:#ffffff;stroke-linejoin:miter;stroke-width:0.75;" x="337.917369" xlink:href="#m77f40039f7" y="38.59718"/>
     <use style="fill:#98df8a;stroke:#ffffff;stroke-linejoin:miter;stroke-width:0.75;" x="339.606807" xlink:href="#m77f40039f7" y="38.59718"/>
     <use style="fill:#98df8a;stroke:#ffffff;stroke-linejoin:miter;stroke-width:0.75;" x="341.257404" xlink:href="#m77f40039f7" y="38.59718"/>
     <use style="fill:#98df8a;stroke:#ffffff;stroke-linejoin:miter;stroke-width:0.75;" x="342.870906" xlink:href="#m77f40039f7" y="38.59718"/>
     <use style="fill:#98df8a;stroke:#ffffff;stroke-linejoin:miter;stroke-width:0.75;" x="344.448944" xlink:href="#m77f40039f7" y="38.59718"/>
     <use style="fill:#98df8a;stroke:#ffffff;stroke-linejoin:miter;stroke-width:0.75;" x="345.993042" xlink:href="#m77f40039f7" y="38.59718"/>
     <use style="fill:#98df8a;stroke:#ffffff;stroke-linejoin:miter;stroke-width:0.75;" x="347.504631" xlink:href="#m77f40039f7" y="38.59718"/>
     <use style="fill:#98df8a;stroke:#ffffff;stroke-linejoin:miter;stroke-width:0.75;" x="348.985051" xlink:href="#m77f40039f7" y="38.59718"/>
     <use style="fill:#98df8a;stroke:#ffffff;stroke-linejoin:miter;stroke-width:0.75;" x="350.435561" xlink:href="#m77f40039f7" y="38.59718"/>
     <use style="fill:#98df8a;stroke:#ffffff;stroke-linejoin:miter;stroke-width:0.75;" x="351.857347" xlink:href="#m77f40039f7" y="38.59718"/>
     <use style="fill:#98df8a;stroke:#ffffff;stroke-linejoin:miter;stroke-width:0.75;" x="353.251523" xlink:href="#m77f40039f7" y="38.59718"/>
     <use style="fill:#98df8a;stroke:#ffffff;stroke-linejoin:miter;stroke-width:0.75;" x="354.619142" xlink:href="#m77f40039f7" y="38.59718"/>
     <use style="fill:#98df8a;stroke:#ffffff;stroke-linejoin:miter;stroke-width:0.75;" x="355.961196" xlink:href="#m77f40039f7" y="38.59718"/>
     <use style="fill:#98df8a;stroke:#ffffff;stroke-linejoin:miter;stroke-width:0.75;" x="357.278624" xlink:href="#m77f40039f7" y="38.59718"/>
     <use style="fill:#98df8a;stroke:#ffffff;stroke-linejoin:miter;stroke-width:0.75;" x="358.572313" xlink:href="#m77f40039f7" y="38.59718"/>
     <use style="fill:#98df8a;stroke:#ffffff;stroke-linejoin:miter;stroke-width:0.75;" x="359.843104" xlink:href="#m77f40039f7" y="38.59718"/>
     <use style="fill:#98df8a;stroke:#ffffff;stroke-linejoin:miter;stroke-width:0.75;" x="361.091794" xlink:href="#m77f40039f7" y="38.59718"/>
     <use style="fill:#98df8a;stroke:#ffffff;stroke-linejoin:miter;stroke-width:0.75;" x="362.319136" xlink:href="#m77f40039f7" y="38.59718"/>
     <use style="fill:#98df8a;stroke:#ffffff;stroke-linejoin:miter;stroke-width:0.75;" x="363.525851" xlink:href="#m77f40039f7" y="38.59718"/>
     <use style="fill:#98df8a;stroke:#ffffff;stroke-linejoin:miter;stroke-width:0.75;" x="364.712619" xlink:href="#m77f40039f7" y="38.59718"/>
     <use style="fill:#98df8a;stroke:#ffffff;stroke-linejoin:miter;stroke-width:0.75;" x="365.880089" xlink:href="#m77f40039f7" y="38.59718"/>
     <use style="fill:#98df8a;stroke:#ffffff;stroke-linejoin:miter;stroke-width:0.75;" x="367.028878" xlink:href="#m77f40039f7" y="38.248592"/>
     <use style="fill:#98df8a;stroke:#ffffff;stroke-linejoin:miter;stroke-width:0.75;" x="368.159576" xlink:href="#m77f40039f7" y="38.248592"/>
     <use style="fill:#98df8a;stroke:#ffffff;stroke-linejoin:miter;stroke-width:0.75;" x="369.272743" xlink:href="#m77f40039f7" y="38.59718"/>
     <use style="fill:#98df8a;stroke:#ffffff;stroke-linejoin:miter;stroke-width:0.75;" x="370.368914" xlink:href="#m77f40039f7" y="38.59718"/>
     <use style="fill:#98df8a;stroke:#ffffff;stroke-linejoin:miter;stroke-width:0.75;" x="371.4486" xlink:href="#m77f40039f7" y="38.59718"/>
     <use style="fill:#98df8a;stroke:#ffffff;stroke-linejoin:miter;stroke-width:0.75;" x="372.512291" xlink:href="#m77f40039f7" y="38.248592"/>
     <use style="fill:#98df8a;stroke:#ffffff;stroke-linejoin:miter;stroke-width:0.75;" x="373.560453" xlink:href="#m77f40039f7" y="38.248592"/>
     <use style="fill:#98df8a;stroke:#ffffff;stroke-linejoin:miter;stroke-width:0.75;" x="374.593533" xlink:href="#m77f40039f7" y="38.248592"/>
     <use style="fill:#98df8a;stroke:#ffffff;stroke-linejoin:miter;stroke-width:0.75;" x="375.611959" xlink:href="#m77f40039f7" y="38.248592"/>
     <use style="fill:#98df8a;stroke:#ffffff;stroke-linejoin:miter;stroke-width:0.75;" x="376.616141" xlink:href="#m77f40039f7" y="38.59718"/>
     <use style="fill:#98df8a;stroke:#ffffff;stroke-linejoin:miter;stroke-width:0.75;" x="377.606471" xlink:href="#m77f40039f7" y="38.59718"/>
     <use style="fill:#98df8a;stroke:#ffffff;stroke-linejoin:miter;stroke-width:0.75;" x="378.583327" xlink:href="#m77f40039f7" y="38.59718"/>
     <use style="fill:#98df8a;stroke:#ffffff;stroke-linejoin:miter;stroke-width:0.75;" x="379.547071" xlink:href="#m77f40039f7" y="38.59718"/>
     <use style="fill:#98df8a;stroke:#ffffff;stroke-linejoin:miter;stroke-width:0.75;" x="380.498049" xlink:href="#m77f40039f7" y="38.59718"/>
     <use style="fill:#98df8a;stroke:#ffffff;stroke-linejoin:miter;stroke-width:0.75;" x="381.436596" xlink:href="#m77f40039f7" y="38.59718"/>
     <use style="fill:#98df8a;stroke:#ffffff;stroke-linejoin:miter;stroke-width:0.75;" x="382.363032" xlink:href="#m77f40039f7" y="38.59718"/>
     <use style="fill:#98df8a;stroke:#ffffff;stroke-linejoin:miter;stroke-width:0.75;" x="383.277666" xlink:href="#m77f40039f7" y="38.59718"/>
     <use style="fill:#98df8a;stroke:#ffffff;stroke-linejoin:miter;stroke-width:0.75;" x="384.180795" xlink:href="#m77f40039f7" y="36.85424"/>
     <use style="fill:#98df8a;stroke:#ffffff;stroke-linejoin:miter;stroke-width:0.75;" x="385.072705" xlink:href="#m77f40039f7" y="36.85424"/>
     <use style="fill:#98df8a;stroke:#ffffff;stroke-linejoin:miter;stroke-width:0.75;" x="385.953671" xlink:href="#m77f40039f7" y="36.85424"/>
     <use style="fill:#98df8a;stroke:#ffffff;stroke-linejoin:miter;stroke-width:0.75;" x="386.823958" xlink:href="#m77f40039f7" y="36.505652"/>
     <use style="fill:#98df8a;stroke:#ffffff;stroke-linejoin:miter;stroke-width:0.75;" x="387.683823" xlink:href="#m77f40039f7" y="36.505652"/>
     <use style="fill:#98df8a;stroke:#ffffff;stroke-linejoin:miter;stroke-width:0.75;" x="388.533511" xlink:href="#m77f40039f7" y="36.505652"/>
     <use style="fill:#98df8a;stroke:#ffffff;stroke-linejoin:miter;stroke-width:0.75;" x="389.373261" xlink:href="#m77f40039f7" y="36.85424"/>
     <use style="fill:#98df8a;stroke:#ffffff;stroke-linejoin:miter;stroke-width:0.75;" x="390.203303" xlink:href="#m77f40039f7" y="36.85424"/>
     <use style="fill:#98df8a;stroke:#ffffff;stroke-linejoin:miter;stroke-width:0.75;" x="391.023858" xlink:href="#m77f40039f7" y="36.85424"/>
     <use style="fill:#98df8a;stroke:#ffffff;stroke-linejoin:miter;stroke-width:0.75;" x="391.835142" xlink:href="#m77f40039f7" y="36.505652"/>
     <use style="fill:#98df8a;stroke:#ffffff;stroke-linejoin:miter;stroke-width:0.75;" x="392.63736" xlink:href="#m77f40039f7" y="36.505652"/>
     <use style="fill:#98df8a;stroke:#ffffff;stroke-linejoin:miter;stroke-width:0.75;" x="393.430714" xlink:href="#m77f40039f7" y="36.505652"/>
     <use style="fill:#98df8a;stroke:#ffffff;stroke-linejoin:miter;stroke-width:0.75;" x="394.215398" xlink:href="#m77f40039f7" y="36.505652"/>
    </g>
   </g>
   <g id="line2d_33">
    <path clip-path="url(#p30a3939a52)" d="M 69.560852 223.348765 
L 119.327306 222.651589 
L 148.438816 108.314759 
L 169.09376 68.575739 
L 185.11498 67.878563 
L 198.205269 67.181387 
L 209.272952 66.484211 
L 218.860214 66.484211 
L 227.316779 66.484211 
L 234.881434 66.484211 
L 241.724496 66.484211 
L 247.971723 65.787036 
L 253.718615 65.08986 
L 259.039406 65.08986 
L 263.992943 63.695508 
L 268.626668 63.695508 
L 272.979383 63.695508 
L 277.083233 62.998332 
L 280.965141 62.998332 
L 284.647888 62.998332 
L 288.150915 62.998332 
L 291.49095 62.998332 
L 294.68249 62.998332 
L 297.738177 62.998332 
L 300.669107 62.998332 
L 303.485069 62.998332 
L 306.194742 62.998332 
L 308.805859 62.998332 
L 311.32534 62.998332 
L 313.759397 62.998332 
L 316.113635 62.998332 
L 318.393122 62.998332 
L 320.60246 62.998332 
L 322.745837 62.998332 
L 324.827079 62.998332 
L 326.849687 62.998332 
L 328.816873 62.998332 
L 330.731595 62.998332 
L 332.596578 62.998332 
L 334.414342 62.998332 
L 336.187217 62.301157 
L 337.917369 62.301157 
L 339.606807 39.991531 
L 341.257404 39.991531 
L 342.870906 39.991531 
L 344.448944 39.991531 
L 345.993042 39.991531 
L 347.504631 39.991531 
L 348.985051 39.991531 
L 350.435561 39.294356 
L 351.857347 39.294356 
L 353.251523 39.294356 
L 354.619142 39.294356 
L 355.961196 39.294356 
L 357.278624 38.59718 
L 358.572313 38.59718 
L 359.843104 38.59718 
L 361.091794 38.59718 
L 362.319136 38.59718 
L 363.525851 38.59718 
L 364.712619 38.59718 
L 365.880089 38.59718 
L 367.028878 38.59718 
L 368.159576 37.900004 
L 369.272743 37.900004 
L 370.368914 37.900004 
L 371.4486 37.900004 
L 372.512291 37.900004 
L 373.560453 37.900004 
L 374.593533 37.900004 
L 375.611959 37.900004 
L 376.616141 37.900004 
L 377.606471 37.900004 
L 378.583327 37.900004 
L 379.547071 37.900004 
L 380.498049 37.900004 
L 381.436596 37.202828 
L 382.363032 37.202828 
L 383.277666 37.202828 
L 384.180795 37.202828 
L 385.072705 37.202828 
L 385.953671 37.202828 
L 386.823958 37.202828 
L 387.683823 37.202828 
L 388.533511 37.202828 
L 389.373261 37.202828 
L 390.203303 37.202828 
L 391.023858 37.202828 
L 391.835142 37.202828 
L 392.63736 37.202828 
L 393.430714 37.202828 
L 394.215398 37.202828 
" style="fill:none;stroke:#1f77b4;stroke-linecap:square;stroke-width:1.5;"/>
    <defs>
     <path d="M 0 3 
C 0.795609 3 1.55874 2.683901 2.12132 2.12132 
C 2.683901 1.55874 3 0.795609 3 0 
C 3 -0.795609 2.683901 -1.55874 2.12132 -2.12132 
C 1.55874 -2.683901 0.795609 -3 0 -3 
C -0.795609 -3 -1.55874 -2.683901 -2.12132 -2.12132 
C -2.683901 -1.55874 -3 -0.795609 -3 0 
C -3 0.795609 -2.683901 1.55874 -2.12132 2.12132 
C -1.55874 2.683901 -0.795609 3 0 3 
z
" id="m8f193af2fd" style="stroke:#ffffff;stroke-width:0.75;"/>
    </defs>
    <g clip-path="url(#p30a3939a52)">
     <use style="fill:#1f77b4;stroke:#ffffff;stroke-width:0.75;" x="69.560852" xlink:href="#m8f193af2fd" y="223.348765"/>
     <use style="fill:#1f77b4;stroke:#ffffff;stroke-width:0.75;" x="119.327306" xlink:href="#m8f193af2fd" y="222.651589"/>
     <use style="fill:#1f77b4;stroke:#ffffff;stroke-width:0.75;" x="148.438816" xlink:href="#m8f193af2fd" y="108.314759"/>
     <use style="fill:#1f77b4;stroke:#ffffff;stroke-width:0.75;" x="169.09376" xlink:href="#m8f193af2fd" y="68.575739"/>
     <use style="fill:#1f77b4;stroke:#ffffff;stroke-width:0.75;" x="185.11498" xlink:href="#m8f193af2fd" y="67.878563"/>
     <use style="fill:#1f77b4;stroke:#ffffff;stroke-width:0.75;" x="198.205269" xlink:href="#m8f193af2fd" y="67.181387"/>
     <use style="fill:#1f77b4;stroke:#ffffff;stroke-width:0.75;" x="209.272952" xlink:href="#m8f193af2fd" y="66.484211"/>
     <use style="fill:#1f77b4;stroke:#ffffff;stroke-width:0.75;" x="218.860214" xlink:href="#m8f193af2fd" y="66.484211"/>
     <use style="fill:#1f77b4;stroke:#ffffff;stroke-width:0.75;" x="227.316779" xlink:href="#m8f193af2fd" y="66.484211"/>
     <use style="fill:#1f77b4;stroke:#ffffff;stroke-width:0.75;" x="234.881434" xlink:href="#m8f193af2fd" y="66.484211"/>
     <use style="fill:#1f77b4;stroke:#ffffff;stroke-width:0.75;" x="241.724496" xlink:href="#m8f193af2fd" y="66.484211"/>
     <use style="fill:#1f77b4;stroke:#ffffff;stroke-width:0.75;" x="247.971723" xlink:href="#m8f193af2fd" y="65.787036"/>
     <use style="fill:#1f77b4;stroke:#ffffff;stroke-width:0.75;" x="253.718615" xlink:href="#m8f193af2fd" y="65.08986"/>
     <use style="fill:#1f77b4;stroke:#ffffff;stroke-width:0.75;" x="259.039406" xlink:href="#m8f193af2fd" y="65.08986"/>
     <use style="fill:#1f77b4;stroke:#ffffff;stroke-width:0.75;" x="263.992943" xlink:href="#m8f193af2fd" y="63.695508"/>
     <use style="fill:#1f77b4;stroke:#ffffff;stroke-width:0.75;" x="268.626668" xlink:href="#m8f193af2fd" y="63.695508"/>
     <use style="fill:#1f77b4;stroke:#ffffff;stroke-width:0.75;" x="272.979383" xlink:href="#m8f193af2fd" y="63.695508"/>
     <use style="fill:#1f77b4;stroke:#ffffff;stroke-width:0.75;" x="277.083233" xlink:href="#m8f193af2fd" y="62.998332"/>
     <use style="fill:#1f77b4;stroke:#ffffff;stroke-width:0.75;" x="280.965141" xlink:href="#m8f193af2fd" y="62.998332"/>
     <use style="fill:#1f77b4;stroke:#ffffff;stroke-width:0.75;" x="284.647888" xlink:href="#m8f193af2fd" y="62.998332"/>
     <use style="fill:#1f77b4;stroke:#ffffff;stroke-width:0.75;" x="288.150915" xlink:href="#m8f193af2fd" y="62.998332"/>
     <use style="fill:#1f77b4;stroke:#ffffff;stroke-width:0.75;" x="291.49095" xlink:href="#m8f193af2fd" y="62.998332"/>
     <use style="fill:#1f77b4;stroke:#ffffff;stroke-width:0.75;" x="294.68249" xlink:href="#m8f193af2fd" y="62.998332"/>
     <use style="fill:#1f77b4;stroke:#ffffff;stroke-width:0.75;" x="297.738177" xlink:href="#m8f193af2fd" y="62.998332"/>
     <use style="fill:#1f77b4;stroke:#ffffff;stroke-width:0.75;" x="300.669107" xlink:href="#m8f193af2fd" y="62.998332"/>
     <use style="fill:#1f77b4;stroke:#ffffff;stroke-width:0.75;" x="303.485069" xlink:href="#m8f193af2fd" y="62.998332"/>
     <use style="fill:#1f77b4;stroke:#ffffff;stroke-width:0.75;" x="306.194742" xlink:href="#m8f193af2fd" y="62.998332"/>
     <use style="fill:#1f77b4;stroke:#ffffff;stroke-width:0.75;" x="308.805859" xlink:href="#m8f193af2fd" y="62.998332"/>
     <use style="fill:#1f77b4;stroke:#ffffff;stroke-width:0.75;" x="311.32534" xlink:href="#m8f193af2fd" y="62.998332"/>
     <use style="fill:#1f77b4;stroke:#ffffff;stroke-width:0.75;" x="313.759397" xlink:href="#m8f193af2fd" y="62.998332"/>
     <use style="fill:#1f77b4;stroke:#ffffff;stroke-width:0.75;" x="316.113635" xlink:href="#m8f193af2fd" y="62.998332"/>
     <use style="fill:#1f77b4;stroke:#ffffff;stroke-width:0.75;" x="318.393122" xlink:href="#m8f193af2fd" y="62.998332"/>
     <use style="fill:#1f77b4;stroke:#ffffff;stroke-width:0.75;" x="320.60246" xlink:href="#m8f193af2fd" y="62.998332"/>
     <use style="fill:#1f77b4;stroke:#ffffff;stroke-width:0.75;" x="322.745837" xlink:href="#m8f193af2fd" y="62.998332"/>
     <use style="fill:#1f77b4;stroke:#ffffff;stroke-width:0.75;" x="324.827079" xlink:href="#m8f193af2fd" y="62.998332"/>
     <use style="fill:#1f77b4;stroke:#ffffff;stroke-width:0.75;" x="326.849687" xlink:href="#m8f193af2fd" y="62.998332"/>
     <use style="fill:#1f77b4;stroke:#ffffff;stroke-width:0.75;" x="328.816873" xlink:href="#m8f193af2fd" y="62.998332"/>
     <use style="fill:#1f77b4;stroke:#ffffff;stroke-width:0.75;" x="330.731595" xlink:href="#m8f193af2fd" y="62.998332"/>
     <use style="fill:#1f77b4;stroke:#ffffff;stroke-width:0.75;" x="332.596578" xlink:href="#m8f193af2fd" y="62.998332"/>
     <use style="fill:#1f77b4;stroke:#ffffff;stroke-width:0.75;" x="334.414342" xlink:href="#m8f193af2fd" y="62.998332"/>
     <use style="fill:#1f77b4;stroke:#ffffff;stroke-width:0.75;" x="336.187217" xlink:href="#m8f193af2fd" y="62.301157"/>
     <use style="fill:#1f77b4;stroke:#ffffff;stroke-width:0.75;" x="337.917369" xlink:href="#m8f193af2fd" y="62.301157"/>
     <use style="fill:#1f77b4;stroke:#ffffff;stroke-width:0.75;" x="339.606807" xlink:href="#m8f193af2fd" y="39.991531"/>
     <use style="fill:#1f77b4;stroke:#ffffff;stroke-width:0.75;" x="341.257404" xlink:href="#m8f193af2fd" y="39.991531"/>
     <use style="fill:#1f77b4;stroke:#ffffff;stroke-width:0.75;" x="342.870906" xlink:href="#m8f193af2fd" y="39.991531"/>
     <use style="fill:#1f77b4;stroke:#ffffff;stroke-width:0.75;" x="344.448944" xlink:href="#m8f193af2fd" y="39.991531"/>
     <use style="fill:#1f77b4;stroke:#ffffff;stroke-width:0.75;" x="345.993042" xlink:href="#m8f193af2fd" y="39.991531"/>
     <use style="fill:#1f77b4;stroke:#ffffff;stroke-width:0.75;" x="347.504631" xlink:href="#m8f193af2fd" y="39.991531"/>
     <use style="fill:#1f77b4;stroke:#ffffff;stroke-width:0.75;" x="348.985051" xlink:href="#m8f193af2fd" y="39.991531"/>
     <use style="fill:#1f77b4;stroke:#ffffff;stroke-width:0.75;" x="350.435561" xlink:href="#m8f193af2fd" y="39.294356"/>
     <use style="fill:#1f77b4;stroke:#ffffff;stroke-width:0.75;" x="351.857347" xlink:href="#m8f193af2fd" y="39.294356"/>
     <use style="fill:#1f77b4;stroke:#ffffff;stroke-width:0.75;" x="353.251523" xlink:href="#m8f193af2fd" y="39.294356"/>
     <use style="fill:#1f77b4;stroke:#ffffff;stroke-width:0.75;" x="354.619142" xlink:href="#m8f193af2fd" y="39.294356"/>
     <use style="fill:#1f77b4;stroke:#ffffff;stroke-width:0.75;" x="355.961196" xlink:href="#m8f193af2fd" y="39.294356"/>
     <use style="fill:#1f77b4;stroke:#ffffff;stroke-width:0.75;" x="357.278624" xlink:href="#m8f193af2fd" y="38.59718"/>
     <use style="fill:#1f77b4;stroke:#ffffff;stroke-width:0.75;" x="358.572313" xlink:href="#m8f193af2fd" y="38.59718"/>
     <use style="fill:#1f77b4;stroke:#ffffff;stroke-width:0.75;" x="359.843104" xlink:href="#m8f193af2fd" y="38.59718"/>
     <use style="fill:#1f77b4;stroke:#ffffff;stroke-width:0.75;" x="361.091794" xlink:href="#m8f193af2fd" y="38.59718"/>
     <use style="fill:#1f77b4;stroke:#ffffff;stroke-width:0.75;" x="362.319136" xlink:href="#m8f193af2fd" y="38.59718"/>
     <use style="fill:#1f77b4;stroke:#ffffff;stroke-width:0.75;" x="363.525851" xlink:href="#m8f193af2fd" y="38.59718"/>
     <use style="fill:#1f77b4;stroke:#ffffff;stroke-width:0.75;" x="364.712619" xlink:href="#m8f193af2fd" y="38.59718"/>
     <use style="fill:#1f77b4;stroke:#ffffff;stroke-width:0.75;" x="365.880089" xlink:href="#m8f193af2fd" y="38.59718"/>
     <use style="fill:#1f77b4;stroke:#ffffff;stroke-width:0.75;" x="367.028878" xlink:href="#m8f193af2fd" y="38.59718"/>
     <use style="fill:#1f77b4;stroke:#ffffff;stroke-width:0.75;" x="368.159576" xlink:href="#m8f193af2fd" y="37.900004"/>
     <use style="fill:#1f77b4;stroke:#ffffff;stroke-width:0.75;" x="369.272743" xlink:href="#m8f193af2fd" y="37.900004"/>
     <use style="fill:#1f77b4;stroke:#ffffff;stroke-width:0.75;" x="370.368914" xlink:href="#m8f193af2fd" y="37.900004"/>
     <use style="fill:#1f77b4;stroke:#ffffff;stroke-width:0.75;" x="371.4486" xlink:href="#m8f193af2fd" y="37.900004"/>
     <use style="fill:#1f77b4;stroke:#ffffff;stroke-width:0.75;" x="372.512291" xlink:href="#m8f193af2fd" y="37.900004"/>
     <use style="fill:#1f77b4;stroke:#ffffff;stroke-width:0.75;" x="373.560453" xlink:href="#m8f193af2fd" y="37.900004"/>
     <use style="fill:#1f77b4;stroke:#ffffff;stroke-width:0.75;" x="374.593533" xlink:href="#m8f193af2fd" y="37.900004"/>
     <use style="fill:#1f77b4;stroke:#ffffff;stroke-width:0.75;" x="375.611959" xlink:href="#m8f193af2fd" y="37.900004"/>
     <use style="fill:#1f77b4;stroke:#ffffff;stroke-width:0.75;" x="376.616141" xlink:href="#m8f193af2fd" y="37.900004"/>
     <use style="fill:#1f77b4;stroke:#ffffff;stroke-width:0.75;" x="377.606471" xlink:href="#m8f193af2fd" y="37.900004"/>
     <use style="fill:#1f77b4;stroke:#ffffff;stroke-width:0.75;" x="378.583327" xlink:href="#m8f193af2fd" y="37.900004"/>
     <use style="fill:#1f77b4;stroke:#ffffff;stroke-width:0.75;" x="379.547071" xlink:href="#m8f193af2fd" y="37.900004"/>
     <use style="fill:#1f77b4;stroke:#ffffff;stroke-width:0.75;" x="380.498049" xlink:href="#m8f193af2fd" y="37.900004"/>
     <use style="fill:#1f77b4;stroke:#ffffff;stroke-width:0.75;" x="381.436596" xlink:href="#m8f193af2fd" y="37.202828"/>
     <use style="fill:#1f77b4;stroke:#ffffff;stroke-width:0.75;" x="382.363032" xlink:href="#m8f193af2fd" y="37.202828"/>
     <use style="fill:#1f77b4;stroke:#ffffff;stroke-width:0.75;" x="383.277666" xlink:href="#m8f193af2fd" y="37.202828"/>
     <use style="fill:#1f77b4;stroke:#ffffff;stroke-width:0.75;" x="384.180795" xlink:href="#m8f193af2fd" y="37.202828"/>
     <use style="fill:#1f77b4;stroke:#ffffff;stroke-width:0.75;" x="385.072705" xlink:href="#m8f193af2fd" y="37.202828"/>
     <use style="fill:#1f77b4;stroke:#ffffff;stroke-width:0.75;" x="385.953671" xlink:href="#m8f193af2fd" y="37.202828"/>
     <use style="fill:#1f77b4;stroke:#ffffff;stroke-width:0.75;" x="386.823958" xlink:href="#m8f193af2fd" y="37.202828"/>
     <use style="fill:#1f77b4;stroke:#ffffff;stroke-width:0.75;" x="387.683823" xlink:href="#m8f193af2fd" y="37.202828"/>
     <use style="fill:#1f77b4;stroke:#ffffff;stroke-width:0.75;" x="388.533511" xlink:href="#m8f193af2fd" y="37.202828"/>
     <use style="fill:#1f77b4;stroke:#ffffff;stroke-width:0.75;" x="389.373261" xlink:href="#m8f193af2fd" y="37.202828"/>
     <use style="fill:#1f77b4;stroke:#ffffff;stroke-width:0.75;" x="390.203303" xlink:href="#m8f193af2fd" y="37.202828"/>
     <use style="fill:#1f77b4;stroke:#ffffff;stroke-width:0.75;" x="391.023858" xlink:href="#m8f193af2fd" y="37.202828"/>
     <use style="fill:#1f77b4;stroke:#ffffff;stroke-width:0.75;" x="391.835142" xlink:href="#m8f193af2fd" y="37.202828"/>
     <use style="fill:#1f77b4;stroke:#ffffff;stroke-width:0.75;" x="392.63736" xlink:href="#m8f193af2fd" y="37.202828"/>
     <use style="fill:#1f77b4;stroke:#ffffff;stroke-width:0.75;" x="393.430714" xlink:href="#m8f193af2fd" y="37.202828"/>
     <use style="fill:#1f77b4;stroke:#ffffff;stroke-width:0.75;" x="394.215398" xlink:href="#m8f193af2fd" y="37.202828"/>
    </g>
   </g>
   <g id="line2d_34">
    <path clip-path="url(#p30a3939a52)" d="M 69.560852 247.40133 
L 119.327306 219.16571 
L 148.438816 110.406286 
L 169.09376 71.015854 
L 185.11498 68.575739 
L 198.205269 68.227151 
L 209.272952 67.181387 
L 218.860214 66.484211 
L 227.316779 66.484211 
L 234.881434 66.484211 
L 241.724496 66.484211 
L 247.971723 66.484211 
L 253.718615 66.484211 
L 259.039406 66.484211 
L 263.992943 66.484211 
L 268.626668 66.484211 
L 272.979383 66.484211 
L 277.083233 65.787036 
L 280.965141 65.787036 
L 284.647888 65.787036 
L 288.150915 65.787036 
L 291.49095 65.787036 
L 294.68249 65.08986 
L 297.738177 50.449168 
L 300.669107 49.751992 
L 303.485069 49.751992 
L 306.194742 57.420926 
L 308.805859 56.375162 
L 311.32534 56.375162 
L 313.759397 56.026575 
L 316.113635 56.026575 
L 318.393122 55.677987 
L 320.60246 52.889284 
L 322.745837 52.889284 
L 324.827079 52.889284 
L 326.849687 41.385883 
L 328.816873 41.037295 
L 330.731595 41.037295 
L 332.596578 41.037295 
L 334.414342 41.037295 
L 336.187217 41.037295 
L 337.917369 40.688707 
L 339.606807 39.991531 
L 341.257404 39.991531 
L 342.870906 39.991531 
L 344.448944 39.991531 
L 345.993042 39.991531 
L 347.504631 39.991531 
L 348.985051 40.688707 
L 350.435561 40.688707 
L 351.857347 40.688707 
L 353.251523 40.688707 
L 354.619142 40.688707 
L 355.961196 40.688707 
L 357.278624 40.688707 
L 358.572313 40.688707 
L 359.843104 40.688707 
L 361.091794 40.688707 
L 362.319136 39.991531 
L 363.525851 39.991531 
L 364.712619 39.991531 
L 365.880089 39.991531 
L 367.028878 39.991531 
L 368.159576 40.688707 
L 369.272743 40.688707 
L 370.368914 40.688707 
L 371.4486 40.688707 
L 372.512291 40.688707 
L 373.560453 40.688707 
L 374.593533 40.688707 
L 375.611959 40.688707 
L 376.616141 40.688707 
L 377.606471 40.688707 
L 378.583327 39.991531 
L 379.547071 39.991531 
L 380.498049 39.991531 
L 381.436596 40.688707 
L 382.363032 40.688707 
L 383.277666 40.688707 
L 384.180795 39.991531 
L 385.072705 39.991531 
L 385.953671 40.688707 
L 386.823958 40.688707 
L 387.683823 40.688707 
L 388.533511 40.688707 
L 389.373261 40.688707 
L 390.203303 40.688707 
L 391.023858 39.991531 
L 391.835142 39.991531 
L 392.63736 39.991531 
L 393.430714 39.991531 
L 394.215398 40.688707 
" style="fill:none;stroke:#d62728;stroke-linecap:square;stroke-width:1.5;"/>
    <defs>
     <path d="M 0 -3 
L -3 3 
L 3 3 
z
" id="mfcf9ecb8ee" style="stroke:#ffffff;stroke-linejoin:miter;stroke-width:0.75;"/>
    </defs>
    <g clip-path="url(#p30a3939a52)">
     <use style="fill:#d62728;stroke:#ffffff;stroke-linejoin:miter;stroke-width:0.75;" x="69.560852" xlink:href="#mfcf9ecb8ee" y="247.40133"/>
     <use style="fill:#d62728;stroke:#ffffff;stroke-linejoin:miter;stroke-width:0.75;" x="119.327306" xlink:href="#mfcf9ecb8ee" y="219.16571"/>
     <use style="fill:#d62728;stroke:#ffffff;stroke-linejoin:miter;stroke-width:0.75;" x="148.438816" xlink:href="#mfcf9ecb8ee" y="110.406286"/>
     <use style="fill:#d62728;stroke:#ffffff;stroke-linejoin:miter;stroke-width:0.75;" x="169.09376" xlink:href="#mfcf9ecb8ee" y="71.015854"/>
     <use style="fill:#d62728;stroke:#ffffff;stroke-linejoin:miter;stroke-width:0.75;" x="185.11498" xlink:href="#mfcf9ecb8ee" y="68.575739"/>
     <use style="fill:#d62728;stroke:#ffffff;stroke-linejoin:miter;stroke-width:0.75;" x="198.205269" xlink:href="#mfcf9ecb8ee" y="68.227151"/>
     <use style="fill:#d62728;stroke:#ffffff;stroke-linejoin:miter;stroke-width:0.75;" x="209.272952" xlink:href="#mfcf9ecb8ee" y="67.181387"/>
     <use style="fill:#d62728;stroke:#ffffff;stroke-linejoin:miter;stroke-width:0.75;" x="218.860214" xlink:href="#mfcf9ecb8ee" y="66.484211"/>
     <use style="fill:#d62728;stroke:#ffffff;stroke-linejoin:miter;stroke-width:0.75;" x="227.316779" xlink:href="#mfcf9ecb8ee" y="66.484211"/>
     <use style="fill:#d62728;stroke:#ffffff;stroke-linejoin:miter;stroke-width:0.75;" x="234.881434" xlink:href="#mfcf9ecb8ee" y="66.484211"/>
     <use style="fill:#d62728;stroke:#ffffff;stroke-linejoin:miter;stroke-width:0.75;" x="241.724496" xlink:href="#mfcf9ecb8ee" y="66.484211"/>
     <use style="fill:#d62728;stroke:#ffffff;stroke-linejoin:miter;stroke-width:0.75;" x="247.971723" xlink:href="#mfcf9ecb8ee" y="66.484211"/>
     <use style="fill:#d62728;stroke:#ffffff;stroke-linejoin:miter;stroke-width:0.75;" x="253.718615" xlink:href="#mfcf9ecb8ee" y="66.484211"/>
     <use style="fill:#d62728;stroke:#ffffff;stroke-linejoin:miter;stroke-width:0.75;" x="259.039406" xlink:href="#mfcf9ecb8ee" y="66.484211"/>
     <use style="fill:#d62728;stroke:#ffffff;stroke-linejoin:miter;stroke-width:0.75;" x="263.992943" xlink:href="#mfcf9ecb8ee" y="66.484211"/>
     <use style="fill:#d62728;stroke:#ffffff;stroke-linejoin:miter;stroke-width:0.75;" x="268.626668" xlink:href="#mfcf9ecb8ee" y="66.484211"/>
     <use style="fill:#d62728;stroke:#ffffff;stroke-linejoin:miter;stroke-width:0.75;" x="272.979383" xlink:href="#mfcf9ecb8ee" y="66.484211"/>
     <use style="fill:#d62728;stroke:#ffffff;stroke-linejoin:miter;stroke-width:0.75;" x="277.083233" xlink:href="#mfcf9ecb8ee" y="65.787036"/>
     <use style="fill:#d62728;stroke:#ffffff;stroke-linejoin:miter;stroke-width:0.75;" x="280.965141" xlink:href="#mfcf9ecb8ee" y="65.787036"/>
     <use style="fill:#d62728;stroke:#ffffff;stroke-linejoin:miter;stroke-width:0.75;" x="284.647888" xlink:href="#mfcf9ecb8ee" y="65.787036"/>
     <use style="fill:#d62728;stroke:#ffffff;stroke-linejoin:miter;stroke-width:0.75;" x="288.150915" xlink:href="#mfcf9ecb8ee" y="65.787036"/>
     <use style="fill:#d62728;stroke:#ffffff;stroke-linejoin:miter;stroke-width:0.75;" x="291.49095" xlink:href="#mfcf9ecb8ee" y="65.787036"/>
     <use style="fill:#d62728;stroke:#ffffff;stroke-linejoin:miter;stroke-width:0.75;" x="294.68249" xlink:href="#mfcf9ecb8ee" y="65.08986"/>
     <use style="fill:#d62728;stroke:#ffffff;stroke-linejoin:miter;stroke-width:0.75;" x="297.738177" xlink:href="#mfcf9ecb8ee" y="50.449168"/>
     <use style="fill:#d62728;stroke:#ffffff;stroke-linejoin:miter;stroke-width:0.75;" x="300.669107" xlink:href="#mfcf9ecb8ee" y="49.751992"/>
     <use style="fill:#d62728;stroke:#ffffff;stroke-linejoin:miter;stroke-width:0.75;" x="303.485069" xlink:href="#mfcf9ecb8ee" y="49.751992"/>
     <use style="fill:#d62728;stroke:#ffffff;stroke-linejoin:miter;stroke-width:0.75;" x="306.194742" xlink:href="#mfcf9ecb8ee" y="57.420926"/>
     <use style="fill:#d62728;stroke:#ffffff;stroke-linejoin:miter;stroke-width:0.75;" x="308.805859" xlink:href="#mfcf9ecb8ee" y="56.375162"/>
     <use style="fill:#d62728;stroke:#ffffff;stroke-linejoin:miter;stroke-width:0.75;" x="311.32534" xlink:href="#mfcf9ecb8ee" y="56.375162"/>
     <use style="fill:#d62728;stroke:#ffffff;stroke-linejoin:miter;stroke-width:0.75;" x="313.759397" xlink:href="#mfcf9ecb8ee" y="56.026575"/>
     <use style="fill:#d62728;stroke:#ffffff;stroke-linejoin:miter;stroke-width:0.75;" x="316.113635" xlink:href="#mfcf9ecb8ee" y="56.026575"/>
     <use style="fill:#d62728;stroke:#ffffff;stroke-linejoin:miter;stroke-width:0.75;" x="318.393122" xlink:href="#mfcf9ecb8ee" y="55.677987"/>
     <use style="fill:#d62728;stroke:#ffffff;stroke-linejoin:miter;stroke-width:0.75;" x="320.60246" xlink:href="#mfcf9ecb8ee" y="52.889284"/>
     <use style="fill:#d62728;stroke:#ffffff;stroke-linejoin:miter;stroke-width:0.75;" x="322.745837" xlink:href="#mfcf9ecb8ee" y="52.889284"/>
     <use style="fill:#d62728;stroke:#ffffff;stroke-linejoin:miter;stroke-width:0.75;" x="324.827079" xlink:href="#mfcf9ecb8ee" y="52.889284"/>
     <use style="fill:#d62728;stroke:#ffffff;stroke-linejoin:miter;stroke-width:0.75;" x="326.849687" xlink:href="#mfcf9ecb8ee" y="41.385883"/>
     <use style="fill:#d62728;stroke:#ffffff;stroke-linejoin:miter;stroke-width:0.75;" x="328.816873" xlink:href="#mfcf9ecb8ee" y="41.037295"/>
     <use style="fill:#d62728;stroke:#ffffff;stroke-linejoin:miter;stroke-width:0.75;" x="330.731595" xlink:href="#mfcf9ecb8ee" y="41.037295"/>
     <use style="fill:#d62728;stroke:#ffffff;stroke-linejoin:miter;stroke-width:0.75;" x="332.596578" xlink:href="#mfcf9ecb8ee" y="41.037295"/>
     <use style="fill:#d62728;stroke:#ffffff;stroke-linejoin:miter;stroke-width:0.75;" x="334.414342" xlink:href="#mfcf9ecb8ee" y="41.037295"/>
     <use style="fill:#d62728;stroke:#ffffff;stroke-linejoin:miter;stroke-width:0.75;" x="336.187217" xlink:href="#mfcf9ecb8ee" y="41.037295"/>
     <use style="fill:#d62728;stroke:#ffffff;stroke-linejoin:miter;stroke-width:0.75;" x="337.917369" xlink:href="#mfcf9ecb8ee" y="40.688707"/>
     <use style="fill:#d62728;stroke:#ffffff;stroke-linejoin:miter;stroke-width:0.75;" x="339.606807" xlink:href="#mfcf9ecb8ee" y="39.991531"/>
     <use style="fill:#d62728;stroke:#ffffff;stroke-linejoin:miter;stroke-width:0.75;" x="341.257404" xlink:href="#mfcf9ecb8ee" y="39.991531"/>
     <use style="fill:#d62728;stroke:#ffffff;stroke-linejoin:miter;stroke-width:0.75;" x="342.870906" xlink:href="#mfcf9ecb8ee" y="39.991531"/>
     <use style="fill:#d62728;stroke:#ffffff;stroke-linejoin:miter;stroke-width:0.75;" x="344.448944" xlink:href="#mfcf9ecb8ee" y="39.991531"/>
     <use style="fill:#d62728;stroke:#ffffff;stroke-linejoin:miter;stroke-width:0.75;" x="345.993042" xlink:href="#mfcf9ecb8ee" y="39.991531"/>
     <use style="fill:#d62728;stroke:#ffffff;stroke-linejoin:miter;stroke-width:0.75;" x="347.504631" xlink:href="#mfcf9ecb8ee" y="39.991531"/>
     <use style="fill:#d62728;stroke:#ffffff;stroke-linejoin:miter;stroke-width:0.75;" x="348.985051" xlink:href="#mfcf9ecb8ee" y="40.688707"/>
     <use style="fill:#d62728;stroke:#ffffff;stroke-linejoin:miter;stroke-width:0.75;" x="350.435561" xlink:href="#mfcf9ecb8ee" y="40.688707"/>
     <use style="fill:#d62728;stroke:#ffffff;stroke-linejoin:miter;stroke-width:0.75;" x="351.857347" xlink:href="#mfcf9ecb8ee" y="40.688707"/>
     <use style="fill:#d62728;stroke:#ffffff;stroke-linejoin:miter;stroke-width:0.75;" x="353.251523" xlink:href="#mfcf9ecb8ee" y="40.688707"/>
     <use style="fill:#d62728;stroke:#ffffff;stroke-linejoin:miter;stroke-width:0.75;" x="354.619142" xlink:href="#mfcf9ecb8ee" y="40.688707"/>
     <use style="fill:#d62728;stroke:#ffffff;stroke-linejoin:miter;stroke-width:0.75;" x="355.961196" xlink:href="#mfcf9ecb8ee" y="40.688707"/>
     <use style="fill:#d62728;stroke:#ffffff;stroke-linejoin:miter;stroke-width:0.75;" x="357.278624" xlink:href="#mfcf9ecb8ee" y="40.688707"/>
     <use style="fill:#d62728;stroke:#ffffff;stroke-linejoin:miter;stroke-width:0.75;" x="358.572313" xlink:href="#mfcf9ecb8ee" y="40.688707"/>
     <use style="fill:#d62728;stroke:#ffffff;stroke-linejoin:miter;stroke-width:0.75;" x="359.843104" xlink:href="#mfcf9ecb8ee" y="40.688707"/>
     <use style="fill:#d62728;stroke:#ffffff;stroke-linejoin:miter;stroke-width:0.75;" x="361.091794" xlink:href="#mfcf9ecb8ee" y="40.688707"/>
     <use style="fill:#d62728;stroke:#ffffff;stroke-linejoin:miter;stroke-width:0.75;" x="362.319136" xlink:href="#mfcf9ecb8ee" y="39.991531"/>
     <use style="fill:#d62728;stroke:#ffffff;stroke-linejoin:miter;stroke-width:0.75;" x="363.525851" xlink:href="#mfcf9ecb8ee" y="39.991531"/>
     <use style="fill:#d62728;stroke:#ffffff;stroke-linejoin:miter;stroke-width:0.75;" x="364.712619" xlink:href="#mfcf9ecb8ee" y="39.991531"/>
     <use style="fill:#d62728;stroke:#ffffff;stroke-linejoin:miter;stroke-width:0.75;" x="365.880089" xlink:href="#mfcf9ecb8ee" y="39.991531"/>
     <use style="fill:#d62728;stroke:#ffffff;stroke-linejoin:miter;stroke-width:0.75;" x="367.028878" xlink:href="#mfcf9ecb8ee" y="39.991531"/>
     <use style="fill:#d62728;stroke:#ffffff;stroke-linejoin:miter;stroke-width:0.75;" x="368.159576" xlink:href="#mfcf9ecb8ee" y="40.688707"/>
     <use style="fill:#d62728;stroke:#ffffff;stroke-linejoin:miter;stroke-width:0.75;" x="369.272743" xlink:href="#mfcf9ecb8ee" y="40.688707"/>
     <use style="fill:#d62728;stroke:#ffffff;stroke-linejoin:miter;stroke-width:0.75;" x="370.368914" xlink:href="#mfcf9ecb8ee" y="40.688707"/>
     <use style="fill:#d62728;stroke:#ffffff;stroke-linejoin:miter;stroke-width:0.75;" x="371.4486" xlink:href="#mfcf9ecb8ee" y="40.688707"/>
     <use style="fill:#d62728;stroke:#ffffff;stroke-linejoin:miter;stroke-width:0.75;" x="372.512291" xlink:href="#mfcf9ecb8ee" y="40.688707"/>
     <use style="fill:#d62728;stroke:#ffffff;stroke-linejoin:miter;stroke-width:0.75;" x="373.560453" xlink:href="#mfcf9ecb8ee" y="40.688707"/>
     <use style="fill:#d62728;stroke:#ffffff;stroke-linejoin:miter;stroke-width:0.75;" x="374.593533" xlink:href="#mfcf9ecb8ee" y="40.688707"/>
     <use style="fill:#d62728;stroke:#ffffff;stroke-linejoin:miter;stroke-width:0.75;" x="375.611959" xlink:href="#mfcf9ecb8ee" y="40.688707"/>
     <use style="fill:#d62728;stroke:#ffffff;stroke-linejoin:miter;stroke-width:0.75;" x="376.616141" xlink:href="#mfcf9ecb8ee" y="40.688707"/>
     <use style="fill:#d62728;stroke:#ffffff;stroke-linejoin:miter;stroke-width:0.75;" x="377.606471" xlink:href="#mfcf9ecb8ee" y="40.688707"/>
     <use style="fill:#d62728;stroke:#ffffff;stroke-linejoin:miter;stroke-width:0.75;" x="378.583327" xlink:href="#mfcf9ecb8ee" y="39.991531"/>
     <use style="fill:#d62728;stroke:#ffffff;stroke-linejoin:miter;stroke-width:0.75;" x="379.547071" xlink:href="#mfcf9ecb8ee" y="39.991531"/>
     <use style="fill:#d62728;stroke:#ffffff;stroke-linejoin:miter;stroke-width:0.75;" x="380.498049" xlink:href="#mfcf9ecb8ee" y="39.991531"/>
     <use style="fill:#d62728;stroke:#ffffff;stroke-linejoin:miter;stroke-width:0.75;" x="381.436596" xlink:href="#mfcf9ecb8ee" y="40.688707"/>
     <use style="fill:#d62728;stroke:#ffffff;stroke-linejoin:miter;stroke-width:0.75;" x="382.363032" xlink:href="#mfcf9ecb8ee" y="40.688707"/>
     <use style="fill:#d62728;stroke:#ffffff;stroke-linejoin:miter;stroke-width:0.75;" x="383.277666" xlink:href="#mfcf9ecb8ee" y="40.688707"/>
     <use style="fill:#d62728;stroke:#ffffff;stroke-linejoin:miter;stroke-width:0.75;" x="384.180795" xlink:href="#mfcf9ecb8ee" y="39.991531"/>
     <use style="fill:#d62728;stroke:#ffffff;stroke-linejoin:miter;stroke-width:0.75;" x="385.072705" xlink:href="#mfcf9ecb8ee" y="39.991531"/>
     <use style="fill:#d62728;stroke:#ffffff;stroke-linejoin:miter;stroke-width:0.75;" x="385.953671" xlink:href="#mfcf9ecb8ee" y="40.688707"/>
     <use style="fill:#d62728;stroke:#ffffff;stroke-linejoin:miter;stroke-width:0.75;" x="386.823958" xlink:href="#mfcf9ecb8ee" y="40.688707"/>
     <use style="fill:#d62728;stroke:#ffffff;stroke-linejoin:miter;stroke-width:0.75;" x="387.683823" xlink:href="#mfcf9ecb8ee" y="40.688707"/>
     <use style="fill:#d62728;stroke:#ffffff;stroke-linejoin:miter;stroke-width:0.75;" x="388.533511" xlink:href="#mfcf9ecb8ee" y="40.688707"/>
     <use style="fill:#d62728;stroke:#ffffff;stroke-linejoin:miter;stroke-width:0.75;" x="389.373261" xlink:href="#mfcf9ecb8ee" y="40.688707"/>
     <use style="fill:#d62728;stroke:#ffffff;stroke-linejoin:miter;stroke-width:0.75;" x="390.203303" xlink:href="#mfcf9ecb8ee" y="40.688707"/>
     <use style="fill:#d62728;stroke:#ffffff;stroke-linejoin:miter;stroke-width:0.75;" x="391.023858" xlink:href="#mfcf9ecb8ee" y="39.991531"/>
     <use style="fill:#d62728;stroke:#ffffff;stroke-linejoin:miter;stroke-width:0.75;" x="391.835142" xlink:href="#mfcf9ecb8ee" y="39.991531"/>
     <use style="fill:#d62728;stroke:#ffffff;stroke-linejoin:miter;stroke-width:0.75;" x="392.63736" xlink:href="#mfcf9ecb8ee" y="39.991531"/>
     <use style="fill:#d62728;stroke:#ffffff;stroke-linejoin:miter;stroke-width:0.75;" x="393.430714" xlink:href="#mfcf9ecb8ee" y="39.991531"/>
     <use style="fill:#d62728;stroke:#ffffff;stroke-linejoin:miter;stroke-width:0.75;" x="394.215398" xlink:href="#mfcf9ecb8ee" y="40.688707"/>
    </g>
   </g>
   <g id="line2d_35"/>
   <g id="line2d_36"/>
   <g id="line2d_37"/>
   <g id="patch_3">
    <path d="M 53.328125 270.059543 
L 53.328125 26.048015 
" style="fill:none;stroke:#000000;stroke-linecap:square;stroke-linejoin:miter;stroke-width:0.8;"/>
   </g>
   <g id="patch_4">
    <path d="M 69.560852 288.430125 
L 394.216265 288.430125 
" style="fill:none;stroke:#000000;stroke-linecap:square;stroke-linejoin:miter;stroke-width:0.8;"/>
   </g>
   <g id="text_17">
    <!-- aspell_aspell_fuzzer (23h, 16 trials/fuzzer) -->
    <g transform="translate(105.513125 16.318125)scale(0.12 -0.12)">
     <defs>
      <path d="M 2834 3397 
L 2834 2853 
Q 2591 2978 2328 3040 
Q 2066 3103 1784 3103 
Q 1356 3103 1142 2972 
Q 928 2841 928 2578 
Q 928 2378 1081 2264 
Q 1234 2150 1697 2047 
L 1894 2003 
Q 2506 1872 2764 1633 
Q 3022 1394 3022 966 
Q 3022 478 2636 193 
Q 2250 -91 1575 -91 
Q 1294 -91 989 -36 
Q 684 19 347 128 
L 347 722 
Q 666 556 975 473 
Q 1284 391 1588 391 
Q 1994 391 2212 530 
Q 2431 669 2431 922 
Q 2431 1156 2273 1281 
Q 2116 1406 1581 1522 
L 1381 1569 
Q 847 1681 609 1914 
Q 372 2147 372 2553 
Q 372 3047 722 3315 
Q 1072 3584 1716 3584 
Q 2034 3584 2315 3537 
Q 2597 3491 2834 3397 
z
" id="DejaVuSans-73" transform="scale(0.015625)"/>
      <path d="M 1159 525 
L 1159 -1331 
L 581 -1331 
L 581 3500 
L 1159 3500 
L 1159 2969 
Q 1341 3281 1617 3432 
Q 1894 3584 2278 3584 
Q 2916 3584 3314 3078 
Q 3713 2572 3713 1747 
Q 3713 922 3314 415 
Q 2916 -91 2278 -91 
Q 1894 -91 1617 61 
Q 1341 213 1159 525 
z
M 3116 1747 
Q 3116 2381 2855 2742 
Q 2594 3103 2138 3103 
Q 1681 3103 1420 2742 
Q 1159 2381 1159 1747 
Q 1159 1113 1420 752 
Q 1681 391 2138 391 
Q 2594 391 2855 752 
Q 3116 1113 3116 1747 
z
" id="DejaVuSans-70" transform="scale(0.015625)"/>
      <path d="M 603 4863 
L 1178 4863 
L 1178 0 
L 603 0 
L 603 4863 
z
" id="DejaVuSans-6c" transform="scale(0.015625)"/>
      <path d="M 3263 -1063 
L 3263 -1509 
L -63 -1509 
L -63 -1063 
L 3263 -1063 
z
" id="DejaVuSans-5f" transform="scale(0.015625)"/>
      <path d="M 2375 4863 
L 2375 4384 
L 1825 4384 
Q 1516 4384 1395 4259 
Q 1275 4134 1275 3809 
L 1275 3500 
L 2222 3500 
L 2222 3053 
L 1275 3053 
L 1275 0 
L 697 0 
L 697 3053 
L 147 3053 
L 147 3500 
L 697 3500 
L 697 3744 
Q 697 4328 969 4595 
Q 1241 4863 1831 4863 
L 2375 4863 
z
" id="DejaVuSans-66" transform="scale(0.015625)"/>
      <path d="M 353 3500 
L 3084 3500 
L 3084 2975 
L 922 459 
L 3084 459 
L 3084 0 
L 275 0 
L 275 525 
L 2438 3041 
L 353 3041 
L 353 3500 
z
" id="DejaVuSans-7a" transform="scale(0.015625)"/>
      <path d="M 750 794 
L 1409 794 
L 1409 256 
L 897 -744 
L 494 -744 
L 750 256 
L 750 794 
z
" id="DejaVuSans-2c" transform="scale(0.015625)"/>
      <path d="M 1625 4666 
L 2156 4666 
L 531 -594 
L 0 -594 
L 1625 4666 
z
" id="DejaVuSans-2f" transform="scale(0.015625)"/>
     </defs>
     <use xlink:href="#DejaVuSans-61"/>
     <use x="61.279297" xlink:href="#DejaVuSans-73"/>
     <use x="113.378906" xlink:href="#DejaVuSans-70"/>
     <use x="176.855469" xlink:href="#DejaVuSans-65"/>
     <use x="238.378906" xlink:href="#DejaVuSans-6c"/>
     <use x="266.162109" xlink:href="#DejaVuSans-6c"/>
     <use x="293.945312" xlink:href="#DejaVuSans-5f"/>
     <use x="343.945312" xlink:href="#DejaVuSans-61"/>
     <use x="405.224609" xlink:href="#DejaVuSans-73"/>
     <use x="457.324219" xlink:href="#DejaVuSans-70"/>
     <use x="520.800781" xlink:href="#DejaVuSans-65"/>
     <use x="582.324219" xlink:href="#DejaVuSans-6c"/>
     <use x="610.107422" xlink:href="#DejaVuSans-6c"/>
     <use x="637.890625" xlink:href="#DejaVuSans-5f"/>
     <use x="687.890625" xlink:href="#DejaVuSans-66"/>
     <use x="723.095703" xlink:href="#DejaVuSans-75"/>
     <use x="786.474609" xlink:href="#DejaVuSans-7a"/>
     <use x="838.964844" xlink:href="#DejaVuSans-7a"/>
     <use x="891.455078" xlink:href="#DejaVuSans-65"/>
     <use x="952.978516" xlink:href="#DejaVuSans-72"/>
     <use x="994.091797" xlink:href="#DejaVuSans-20"/>
     <use x="1025.878906" xlink:href="#DejaVuSans-28"/>
     <use x="1064.892578" xlink:href="#DejaVuSans-32"/>
     <use x="1128.515625" xlink:href="#DejaVuSans-33"/>
     <use x="1192.138672" xlink:href="#DejaVuSans-68"/>
     <use x="1255.517578" xlink:href="#DejaVuSans-2c"/>
     <use x="1287.304688" xlink:href="#DejaVuSans-20"/>
     <use x="1319.091797" xlink:href="#DejaVuSans-31"/>
     <use x="1382.714844" xlink:href="#DejaVuSans-36"/>
     <use x="1446.337891" xlink:href="#DejaVuSans-20"/>
     <use x="1478.125" xlink:href="#DejaVuSans-74"/>
     <use x="1517.333984" xlink:href="#DejaVuSans-72"/>
     <use x="1558.447266" xlink:href="#DejaVuSans-69"/>
     <use x="1586.230469" xlink:href="#DejaVuSans-61"/>
     <use x="1647.509766" xlink:href="#DejaVuSans-6c"/>
     <use x="1675.292969" xlink:href="#DejaVuSans-73"/>
     <use x="1727.392578" xlink:href="#DejaVuSans-2f"/>
     <use x="1761.083984" xlink:href="#DejaVuSans-66"/>
     <use x="1796.289062" xlink:href="#DejaVuSans-75"/>
     <use x="1859.667969" xlink:href="#DejaVuSans-7a"/>
     <use x="1912.158203" xlink:href="#DejaVuSans-7a"/>
     <use x="1964.648438" xlink:href="#DejaVuSans-65"/>
     <use x="2026.171875" xlink:href="#DejaVuSans-72"/>
     <use x="2067.285156" xlink:href="#DejaVuSans-29"/>
    </g>
   </g>
   <g id="legend_1">
    <g id="line2d_38">
     <path d="M 414.448125 30.416562 
L 434.448125 30.416562 
" style="fill:none;stroke:#98df8a;stroke-linecap:square;stroke-width:1.5;"/>
    </g>
    <g id="line2d_39">
     <defs>
      <path d="M -0 3 
L 3 -3 
L -3 -3 
z
" id="mb9f9297334" style="stroke:#98df8a;stroke-linejoin:miter;"/>
     </defs>
     <g>
      <use style="fill:#98df8a;stroke:#98df8a;stroke-linejoin:miter;" x="424.448125" xlink:href="#mb9f9297334" y="30.416562"/>
     </g>
    </g>
    <g id="text_18">
     <!-- afl_no_favfactor -->
     <g transform="translate(442.448125 33.916562)scale(0.1 -0.1)">
      <use xlink:href="#DejaVuSans-61"/>
      <use x="61.279297" xlink:href="#DejaVuSans-66"/>
      <use x="96.484375" xlink:href="#DejaVuSans-6c"/>
      <use x="124.267578" xlink:href="#DejaVuSans-5f"/>
      <use x="174.267578" xlink:href="#DejaVuSans-6e"/>
      <use x="237.646484" xlink:href="#DejaVuSans-6f"/>
      <use x="298.828125" xlink:href="#DejaVuSans-5f"/>
      <use x="348.828125" xlink:href="#DejaVuSans-66"/>
      <use x="384.033203" xlink:href="#DejaVuSans-61"/>
      <use x="445.3125" xlink:href="#DejaVuSans-76"/>
      <use x="504.492188" xlink:href="#DejaVuSans-66"/>
      <use x="539.697266" xlink:href="#DejaVuSans-61"/>
      <use x="600.976562" xlink:href="#DejaVuSans-63"/>
      <use x="655.957031" xlink:href="#DejaVuSans-74"/>
      <use x="695.166016" xlink:href="#DejaVuSans-6f"/>
      <use x="756.347656" xlink:href="#DejaVuSans-72"/>
     </g>
    </g>
    <g id="line2d_40">
     <path d="M 414.448125 45.372813 
L 434.448125 45.372813 
" style="fill:none;stroke:#1f77b4;stroke-linecap:square;stroke-width:1.5;"/>
    </g>
    <g id="line2d_41">
     <defs>
      <path d="M 0 3 
C 0.795609 3 1.55874 2.683901 2.12132 2.12132 
C 2.683901 1.55874 3 0.795609 3 0 
C 3 -0.795609 2.683901 -1.55874 2.12132 -2.12132 
C 1.55874 -2.683901 0.795609 -3 0 -3 
C -0.795609 -3 -1.55874 -2.683901 -2.12132 -2.12132 
C -2.683901 -1.55874 -3 -0.795609 -3 0 
C -3 0.795609 -2.683901 1.55874 -2.12132 2.12132 
C -1.55874 2.683901 -0.795609 3 0 3 
z
" id="m24c19d8a55" style="stroke:#1f77b4;"/>
     </defs>
     <g>
      <use style="fill:#1f77b4;stroke:#1f77b4;" x="424.448125" xlink:href="#m24c19d8a55" y="45.372813"/>
     </g>
    </g>
    <g id="text_19">
     <!-- afl -->
     <g transform="translate(442.448125 48.872813)scale(0.1 -0.1)">
      <use xlink:href="#DejaVuSans-61"/>
      <use x="61.279297" xlink:href="#DejaVuSans-66"/>
      <use x="96.484375" xlink:href="#DejaVuSans-6c"/>
     </g>
    </g>
    <g id="line2d_42">
     <path d="M 414.448125 60.050937 
L 434.448125 60.050937 
" style="fill:none;stroke:#d62728;stroke-linecap:square;stroke-width:1.5;"/>
    </g>
    <g id="line2d_43">
     <defs>
      <path d="M 0 -3 
L -3 3 
L 3 3 
z
" id="mf8797662da" style="stroke:#d62728;stroke-linejoin:miter;"/>
     </defs>
     <g>
      <use style="fill:#d62728;stroke:#d62728;stroke-linejoin:miter;" x="424.448125" xlink:href="#mf8797662da" y="60.050937"/>
     </g>
    </g>
    <g id="text_20">
     <!-- afl_no_favored -->
     <g transform="translate(442.448125 63.550937)scale(0.1 -0.1)">
      <use xlink:href="#DejaVuSans-61"/>
      <use x="61.279297" xlink:href="#DejaVuSans-66"/>
      <use x="96.484375" xlink:href="#DejaVuSans-6c"/>
      <use x="124.267578" xlink:href="#DejaVuSans-5f"/>
      <use x="174.267578" xlink:href="#DejaVuSans-6e"/>
      <use x="237.646484" xlink:href="#DejaVuSans-6f"/>
      <use x="298.828125" xlink:href="#DejaVuSans-5f"/>
      <use x="348.828125" xlink:href="#DejaVuSans-66"/>
      <use x="384.033203" xlink:href="#DejaVuSans-61"/>
      <use x="445.3125" xlink:href="#DejaVuSans-76"/>
      <use x="504.492188" xlink:href="#DejaVuSans-6f"/>
      <use x="565.673828" xlink:href="#DejaVuSans-72"/>
      <use x="604.537109" xlink:href="#DejaVuSans-65"/>
      <use x="666.060547" xlink:href="#DejaVuSans-64"/>
     </g>
    </g>
   </g>
  </g>
 </g>
 <defs>
  <clipPath id="p30a3939a52">
   <rect height="266.112" width="357.12" x="53.328125" y="22.318125"/>
  </clipPath>
 </defs>
</svg>
