<?xml version="1.0" encoding="utf-8" standalone="no"?>
<!DOCTYPE svg PUBLIC "-//W3C//DTD SVG 1.1//EN"
  "http://www.w3.org/Graphics/SVG/1.1/DTD/svg11.dtd">
<svg height="325.986375pt" version="1.1" viewBox="0 0 533.395 325.986375" width="533.395pt" xmlns="http://www.w3.org/2000/svg" xmlns:xlink="http://www.w3.org/1999/xlink">
 <metadata>
  <rdf:RDF xmlns:cc="http://creativecommons.org/ns#" xmlns:dc="http://purl.org/dc/elements/1.1/" xmlns:rdf="http://www.w3.org/1999/02/22-rdf-syntax-ns#">
   <cc:Work>
    <dc:type rdf:resource="http://purl.org/dc/dcmitype/StillImage"/>
    <dc:date>2022-05-24T15:34:35.366123</dc:date>
    <dc:format>image/svg+xml</dc:format>
    <dc:creator>
     <cc:Agent>
      <dc:title>Matplotlib v3.4.3, https://matplotlib.org/</dc:title>
     </cc:Agent>
    </dc:creator>
   </cc:Work>
  </rdf:RDF>
 </metadata>
 <defs>
  <style type="text/css">*{stroke-linecap:butt;stroke-linejoin:round;}</style>
 </defs>
 <g id="figure_1">
  <g id="patch_1">
   <path d="M 0 325.986375 
L 533.395 325.986375 
L 533.395 0 
L 0 0 
z
" style="fill:#ffffff;"/>
  </g>
  <g id="axes_1">
   <g id="patch_2">
    <path d="M 53.328125 288.430125 
L 410.448125 288.430125 
L 410.448125 22.318125 
L 53.328125 22.318125 
z
" style="fill:#ffffff;"/>
   </g>
   <g id="PolyCollection_1">
    <defs>
     <path d="M 69.560852 -119.253465 
L 69.560852 -49.65225 
L 73.128485 -99.654883 
L 76.696117 -104.904503 
L 80.263749 -129.708959 
L 83.831382 -150.431835 
L 87.399014 -159.850528 
L 90.966646 -167.287491 
L 94.534279 -175.511896 
L 98.101911 -175.511896 
L 101.669544 -180.236554 
L 105.237176 -188.023491 
L 108.804808 -189.831328 
L 112.372441 -190.123339 
L 115.940073 -190.123339 
L 119.507705 -192.748149 
L 123.075338 -192.748149 
L 126.64297 -192.748149 
L 130.210603 -192.748149 
L 133.778235 -192.737212 
L 137.345867 -192.748149 
L 140.9135 -192.31068 
L 144.481132 -190.51706 
L 148.048764 -190.604554 
L 151.616397 -190.604554 
L 155.184029 -192.923136 
L 158.751661 -192.923136 
L 162.319294 -193.01063 
L 165.886926 -193.01063 
L 169.454559 -190.823288 
L 173.022191 -192.835642 
L 176.589823 -194.060554 
L 180.157456 -194.060554 
L 183.725088 -194.053992 
L 187.29272 -201.847491 
L 190.860353 -201.934984 
L 194.427985 -218.908756 
L 197.995618 -224.158377 
L 201.56325 -225.558275 
L 205.130882 -231.15787 
L 208.698515 -238.244858 
L 212.266147 -239.076047 
L 215.833779 -240.169718 
L 219.401412 -240.344706 
L 222.969044 -242.007085 
L 226.536676 -241.307136 
L 230.104309 -241.350883 
L 233.671941 -242.094579 
L 237.239574 -242.094579 
L 240.807206 -241.744604 
L 244.374838 -242.444554 
L 247.942471 -243.494478 
L 251.510103 -243.494478 
L 255.077735 -243.494478 
L 258.645368 -243.494478 
L 262.213 -243.494478 
L 265.780632 -243.669465 
L 269.348265 -243.844453 
L 272.915897 -243.844453 
L 276.48353 -243.844453 
L 280.051162 -243.669465 
L 283.618794 -243.844453 
L 287.186427 -243.888199 
L 290.754059 -244.063187 
L 294.321691 -244.281921 
L 297.889324 -244.281921 
L 301.456956 -244.456908 
L 305.024589 -244.15068 
L 308.592221 -244.15068 
L 312.159853 -246.031794 
L 315.727486 -248.350377 
L 319.295118 -248.875339 
L 322.86275 -248.875339 
L 326.430383 -251.718883 
L 329.998015 -251.718883 
L 333.565647 -251.718883 
L 337.13328 -249.706528 
L 340.700912 -254.999896 
L 344.268545 -254.431187 
L 347.836177 -254.431187 
L 351.403809 -255.262377 
L 354.971442 -258.105921 
L 358.539074 -258.105921 
L 362.106706 -258.105921 
L 365.674339 -258.105921 
L 369.241971 -258.105921 
L 372.809604 -258.149668 
L 376.377236 -258.980858 
L 379.944868 -260.337009 
L 383.512501 -259.768301 
L 387.080133 -259.768301 
L 390.647765 -260.902437 
L 394.215398 -264.230478 
L 394.215398 -289.516149 
L 394.215398 -289.516149 
L 390.647765 -288.378731 
L 387.080133 -288.378731 
L 383.512501 -287.241313 
L 379.944868 -287.635035 
L 376.377236 -287.066326 
L 372.809604 -287.591288 
L 369.241971 -288.203744 
L 365.674339 -288.203744 
L 362.106706 -288.203744 
L 358.539074 -288.203744 
L 354.971442 -286.585111 
L 351.403809 -286.191389 
L 347.836177 -286.191389 
L 344.268545 -286.541364 
L 340.700912 -285.163339 
L 337.13328 -285.710174 
L 333.565647 -286.366377 
L 329.998015 -286.366377 
L 326.430383 -286.366377 
L 322.86275 -282.779136 
L 319.295118 -284.572756 
L 315.727486 -282.779136 
L 312.159853 -282.779136 
L 308.592221 -282.779136 
L 305.024589 -284.441516 
L 301.456956 -286.103896 
L 297.889324 -286.103896 
L 294.321691 -286.103896 
L 290.754059 -282.779136 
L 287.186427 -282.779136 
L 283.618794 -282.779136 
L 280.051162 -273.382316 
L 276.48353 -282.779136 
L 272.915897 -282.779136 
L 269.348265 -282.779136 
L 265.780632 -273.679794 
L 262.213 -269.742579 
L 258.645368 -272.979845 
L 255.077735 -272.979845 
L 251.510103 -272.979845 
L 247.942471 -272.979845 
L 244.374838 -268.298934 
L 240.807206 -265.995663 
L 237.239574 -268.298934 
L 233.671941 -261.518174 
L 230.104309 -261.080706 
L 226.536676 -261.036959 
L 222.969044 -263.268047 
L 219.401412 -263.268047 
L 215.833779 -263.268047 
L 212.266147 -261.036959 
L 208.698515 -258.80587 
L 205.130882 -252.987541 
L 201.56325 -250.581465 
L 197.995618 -250.056503 
L 194.427985 -250.056503 
L 190.860353 -250.056503 
L 187.29272 -250.056503 
L 183.725088 -248.131642 
L 180.157456 -250.056503 
L 176.589823 -250.056503 
L 173.022191 -249.094073 
L 169.454559 -249.094073 
L 165.886926 -250.056503 
L 162.319294 -250.056503 
L 158.751661 -250.056503 
L 155.184029 -250.056503 
L 151.616397 -243.625718 
L 148.048764 -242.488301 
L 144.481132 -238.180331 
L 140.9135 -242.472989 
L 137.345867 -241.175896 
L 133.778235 -241.175896 
L 130.210603 -250.056503 
L 126.64297 -250.056503 
L 123.075338 -250.056503 
L 119.507705 -250.056503 
L 115.940073 -243.100756 
L 112.372441 -241.744604 
L 108.804808 -224.960037 
L 105.237176 -226.039491 
L 101.669544 -223.020959 
L 98.101911 -216.677668 
L 94.534279 -212.477972 
L 90.966646 -203.072402 
L 87.399014 -197.122832 
L 83.831382 -183.303207 
L 80.263749 -173.280807 
L 76.696117 -156.350782 
L 73.128485 -148.21387 
L 69.560852 -119.253465 
z
" id="m3792e9e95a" style="stroke:#d62728;stroke-opacity:0.2;"/>
    </defs>
    <g clip-path="url(#pee0f362156)">
     <use style="fill:#d62728;fill-opacity:0.2;stroke:#d62728;stroke-opacity:0.2;" x="0" xlink:href="#m3792e9e95a" y="325.986375"/>
    </g>
   </g>
   <g id="PolyCollection_2">
    <defs>
     <path d="M 69.560852 -141.564351 
L 69.560852 -116.847389 
L 73.128485 -140.864402 
L 76.696117 -161.731642 
L 80.263749 -169.425617 
L 83.831382 -172.843339 
L 87.399014 -173.937009 
L 90.966646 -174.636959 
L 94.534279 -181.330225 
L 98.101911 -181.023997 
L 101.669544 -184.917465 
L 105.237176 -186.273617 
L 108.804808 -186.620311 
L 112.372441 -188.067237 
L 115.940073 -187.804756 
L 119.507705 -188.898427 
L 123.075338 -190.381445 
L 126.64297 -190.210832 
L 130.210603 -190.210832 
L 133.778235 -192.31068 
L 137.345867 -193.885566 
L 140.9135 -196.072908 
L 144.481132 -196.072908 
L 148.048764 -196.335389 
L 151.616397 -196.335389 
L 155.184029 -196.860351 
L 158.751661 -197.997769 
L 162.319294 -197.981364 
L 165.886926 -198.085263 
L 169.454559 -199.92263 
L 173.022191 -199.703896 
L 176.589823 -201.541263 
L 180.157456 -201.541263 
L 183.725088 -201.541263 
L 187.29272 -201.803744 
L 190.860353 -202.277303 
L 194.427985 -201.978731 
L 197.995618 -204.472301 
L 201.56325 -204.122326 
L 205.130882 -209.021972 
L 208.698515 -209.021972 
L 212.266147 -218.850792 
L 215.833779 -213.965364 
L 219.401412 -214.009111 
L 222.969044 -214.009111 
L 226.536676 -214.184098 
L 230.104309 -214.184098 
L 233.671941 -214.184098 
L 237.239574 -219.346225 
L 240.807206 -216.659075 
L 244.374838 -219.365911 
L 247.942471 -219.433718 
L 251.510103 -215.146528 
L 255.077735 -215.321516 
L 258.645368 -221.122346 
L 262.213 -221.203278 
L 265.780632 -221.271085 
L 269.348265 -216.108959 
L 272.915897 -221.271085 
L 276.48353 -221.271085 
L 280.051162 -221.271085 
L 283.618794 -228.708047 
L 287.186427 -228.883035 
L 290.754059 -228.883035 
L 294.321691 -234.088908 
L 297.889324 -234.053911 
L 301.456956 -229.138954 
L 305.024589 -230.151693 
L 308.592221 -221.271085 
L 312.159853 -221.271085 
L 315.727486 -221.271085 
L 319.295118 -221.271085 
L 322.86275 -229.906711 
L 326.430383 -230.151693 
L 329.998015 -228.883035 
L 333.565647 -231.98906 
L 337.13328 -233.126478 
L 340.700912 -233.126478 
L 344.268545 -233.126478 
L 347.836177 -233.126478 
L 351.403809 -236.582478 
L 354.971442 -234.378731 
L 358.539074 -234.36342 
L 362.106706 -234.526377 
L 365.674339 -233.257718 
L 369.241971 -233.257718 
L 372.809604 -235.475683 
L 376.377236 -235.838782 
L 379.944868 -235.838782 
L 383.512501 -250.35945 
L 387.080133 -248.525364 
L 390.647765 -247.825415 
L 394.215398 -247.825415 
L 394.215398 -290.128604 
L 394.215398 -290.128604 
L 390.647765 -291.57225 
L 387.080133 -291.528503 
L 383.512501 -290.784807 
L 379.944868 -288.247491 
L 376.377236 -286.978832 
L 372.809604 -287.009455 
L 369.241971 -287.985009 
L 365.674339 -287.766275 
L 362.106706 -288.247491 
L 358.539074 -288.028756 
L 354.971442 -286.716351 
L 351.403809 -283.347845 
L 347.836177 -280.416807 
L 344.268545 -277.966984 
L 340.700912 -276.175551 
L 337.13328 -276.175551 
L 333.565647 -276.129617 
L 329.998015 -271.535106 
L 326.430383 -270.442528 
L 322.86275 -270.442528 
L 319.295118 -274.904706 
L 315.727486 -274.904706 
L 312.159853 -274.904706 
L 308.592221 -274.904706 
L 305.024589 -268.174255 
L 301.456956 -270.136301 
L 297.889324 -268.16988 
L 294.321691 -269.961313 
L 290.754059 -267.249009 
L 287.186427 -269.17387 
L 283.618794 -269.17387 
L 280.051162 -266.685769 
L 276.48353 -268.605161 
L 272.915897 -266.636554 
L 269.348265 -268.517668 
L 265.780632 -268.386427 
L 262.213 -264.317972 
L 258.645368 -267.423997 
L 255.077735 -264.317972 
L 251.510103 -264.317972 
L 247.942471 -266.024098 
L 244.374838 -265.192908 
L 240.807206 -263.955966 
L 237.239574 -265.149161 
L 233.671941 -262.931197 
L 230.104309 -261.459116 
L 226.536676 -263.399288 
L 222.969044 -263.049313 
L 219.401412 -262.96182 
L 215.833779 -262.086883 
L 212.266147 -262.086883 
L 208.698515 -253.118782 
L 205.130882 -250.800199 
L 201.56325 -248.481617 
L 197.995618 -245.506832 
L 194.427985 -243.319491 
L 190.860353 -245.68182 
L 187.29272 -245.288098 
L 183.725088 -245.074832 
L 180.157456 -242.59548 
L 176.589823 -245.244351 
L 173.022191 -245.244351 
L 169.454559 -245.025617 
L 165.886926 -243.888199 
L 162.319294 -244.806883 
L 158.751661 -244.500655 
L 155.184029 -246.994225 
L 151.616397 -246.994225 
L 148.048764 -246.994225 
L 144.481132 -239.775997 
L 140.9135 -236.519045 
L 137.345867 -236.494984 
L 133.778235 -230.769617 
L 130.210603 -230.676655 
L 126.64297 -224.333364 
L 123.075338 -225.295794 
L 119.507705 -223.310782 
L 115.940073 -223.108453 
L 112.372441 -222.627237 
L 108.804808 -220.921111 
L 105.237176 -219.871187 
L 101.669544 -213.571642 
L 98.101911 -203.999835 
L 94.534279 -201.410022 
L 90.966646 -186.011136 
L 87.399014 -183.386326 
L 83.831382 -182.336402 
L 80.263749 -178.311693 
L 76.696117 -176.430579 
L 73.128485 -166.32506 
L 69.560852 -141.564351 
z
" id="mf0b2af7efd" style="stroke:#98df8a;stroke-opacity:0.2;"/>
    </defs>
    <g clip-path="url(#pee0f362156)">
     <use style="fill:#98df8a;fill-opacity:0.2;stroke:#98df8a;stroke-opacity:0.2;" x="0" xlink:href="#mf0b2af7efd" y="325.986375"/>
    </g>
   </g>
   <g id="PolyCollection_3">
    <defs>
     <path d="M 69.560852 -158.58187 
L 69.560852 -78.918883 
L 73.128485 -144.145415 
L 76.696117 -152.50106 
L 80.263749 -158.494377 
L 83.831382 -163.087794 
L 87.399014 -177.086782 
L 90.966646 -179.974073 
L 94.534279 -181.636453 
L 98.101911 -181.879247 
L 101.669544 -182.336402 
L 105.237176 -182.073921 
L 108.804808 -182.073921 
L 112.372441 -185.442427 
L 115.940073 -185.573668 
L 119.507705 -187.411035 
L 123.075338 -187.411035 
L 126.64297 -187.411035 
L 130.210603 -189.510883 
L 133.778235 -189.510883 
L 137.345867 -189.510883 
L 140.9135 -188.198478 
L 144.481132 -189.510883 
L 148.048764 -189.248402 
L 151.616397 -190.604554 
L 155.184029 -190.604554 
L 158.751661 -191.304503 
L 162.319294 -193.01063 
L 165.886926 -195.985415 
L 169.454559 -195.985415 
L 173.022191 -190.035845 
L 176.589823 -190.123339 
L 180.157456 -196.59787 
L 183.725088 -203.072402 
L 187.29272 -203.072402 
L 190.860353 -195.329212 
L 194.427985 -195.504199 
L 197.995618 -195.941668 
L 201.56325 -198.849739 
L 205.130882 -204.559794 
L 208.698515 -206.265921 
L 212.266147 -206.265921 
L 215.833779 -204.734782 
L 219.401412 -196.685364 
L 222.969044 -200.447592 
L 226.536676 -204.20982 
L 230.104309 -204.20982 
L 233.671941 -201.759997 
L 237.239574 -204.822275 
L 240.807206 -204.909769 
L 244.374838 -204.909769 
L 247.942471 -198.697718 
L 251.510103 -198.697718 
L 255.077735 -198.697718 
L 258.645368 -204.909769 
L 262.213 -204.909769 
L 265.780632 -208.234528 
L 269.348265 -206.572149 
L 272.915897 -205.17225 
L 276.48353 -198.697718 
L 280.051162 -198.697718 
L 283.618794 -202.022478 
L 287.186427 -203.506589 
L 290.754059 -202.022478 
L 294.321691 -202.022478 
L 297.889324 -205.347237 
L 301.456956 -205.347237 
L 305.024589 -206.878377 
L 308.592221 -206.878377 
L 312.159853 -203.515339 
L 315.727486 -198.697718 
L 319.295118 -199.572655 
L 322.86275 -202.459946 
L 326.430383 -205.347237 
L 329.998015 -205.347237 
L 333.565647 -205.347237 
L 337.13328 -202.634934 
L 340.700912 -205.347237 
L 344.268545 -202.634934 
L 347.836177 -205.347237 
L 351.403809 -206.747136 
L 354.971442 -199.92263 
L 358.539074 -199.92263 
L 362.106706 -203.334883 
L 365.674339 -206.747136 
L 369.241971 -206.747136 
L 372.809604 -207.534579 
L 376.377236 -207.534579 
L 379.944868 -207.534579 
L 383.512501 -201.060047 
L 387.080133 -204.297313 
L 390.647765 -216.021465 
L 394.215398 -208.540756 
L 394.215398 -276.335227 
L 394.215398 -276.335227 
L 390.647765 -276.304604 
L 387.080133 -276.304604 
L 383.512501 -276.304604 
L 379.944868 -276.304604 
L 376.377236 -276.304604 
L 372.809604 -276.304604 
L 369.241971 -276.304604 
L 365.674339 -276.217111 
L 362.106706 -267.38025 
L 358.539074 -276.042123 
L 354.971442 -276.042123 
L 351.403809 -266.680301 
L 347.836177 -274.817212 
L 344.268545 -276.08587 
L 340.700912 -276.217111 
L 337.13328 -275.517161 
L 333.565647 -274.817212 
L 329.998015 -274.817212 
L 326.430383 -274.817212 
L 322.86275 -274.948453 
L 319.295118 -272.717364 
L 315.727486 -272.717364 
L 312.159853 -273.986022 
L 308.592221 -273.986022 
L 305.024589 -273.986022 
L 301.456956 -273.986022 
L 297.889324 -274.729718 
L 294.321691 -273.198579 
L 290.754059 -262.043136 
L 287.186427 -262.043136 
L 283.618794 -261.43068 
L 280.051162 -270.792503 
L 276.48353 -270.267541 
L 272.915897 -269.917566 
L 269.348265 -271.886174 
L 265.780632 -274.379744 
L 262.213 -274.379744 
L 258.645368 -268.255187 
L 255.077735 -253.468756 
L 251.510103 -252.681313 
L 247.942471 -252.681313 
L 244.374838 -252.681313 
L 240.807206 -252.681313 
L 237.239574 -267.817718 
L 233.671941 -263.71864 
L 230.104309 -252.681313 
L 226.536676 -252.681313 
L 222.969044 -244.719389 
L 219.401412 -252.681313 
L 215.833779 -267.030275 
L 212.266147 -278.929415 
L 208.698515 -278.929415 
L 205.130882 -266.067845 
L 201.56325 -265.192908 
L 197.995618 -254.824908 
L 194.427985 -254.824908 
L 190.860353 -254.649921 
L 187.29272 -265.630377 
L 183.725088 -264.492959 
L 180.157456 -264.230478 
L 176.589823 -264.055491 
L 173.022191 -262.043136 
L 169.454559 -262.043136 
L 165.886926 -252.72506 
L 162.319294 -243.406984 
L 158.751661 -252.59382 
L 155.184029 -252.59382 
L 151.616397 -247.47544 
L 148.048764 -247.169212 
L 144.481132 -241.832098 
L 140.9135 -241.832098 
L 137.345867 -237.93863 
L 133.778235 -236.011582 
L 130.210603 -235.357566 
L 126.64297 -227.308149 
L 123.075338 -227.220655 
L 119.507705 -227.220655 
L 115.940073 -231.070377 
L 112.372441 -231.070377 
L 108.804808 -226.958174 
L 105.237176 -226.958174 
L 101.669544 -197.735288 
L 98.101911 -225.90825 
L 94.534279 -212.346731 
L 90.966646 -208.846984 
L 87.399014 -194.847997 
L 83.831382 -194.585516 
L 80.263749 -189.335896 
L 76.696117 -179.099136 
L 73.128485 -174.243237 
L 69.560852 -158.58187 
z
" id="mb31b748a24" style="stroke:#1f77b4;stroke-opacity:0.2;"/>
    </defs>
    <g clip-path="url(#pee0f362156)">
     <use style="fill:#1f77b4;fill-opacity:0.2;stroke:#1f77b4;stroke-opacity:0.2;" x="0" xlink:href="#mb31b748a24" y="325.986375"/>
    </g>
   </g>
   <g id="matplotlib.axis_1">
    <g id="xtick_1">
     <g id="line2d_1">
      <defs>
       <path d="M 0 0 
L 0 3.5 
" id="mbc6ca0001e" style="stroke:#000000;stroke-width:0.8;"/>
      </defs>
      <g>
       <use style="stroke:#000000;stroke-width:0.8;" x="69.560852" xlink:href="#mbc6ca0001e" y="288.430125"/>
      </g>
     </g>
     <g id="text_1">
      <!-- 15m -->
      <g transform="translate(58.32804 303.028562)scale(0.1 -0.1)">
       <defs>
        <path d="M 794 531 
L 1825 531 
L 1825 4091 
L 703 3866 
L 703 4441 
L 1819 4666 
L 2450 4666 
L 2450 531 
L 3481 531 
L 3481 0 
L 794 0 
L 794 531 
z
" id="DejaVuSans-31" transform="scale(0.015625)"/>
        <path d="M 691 4666 
L 3169 4666 
L 3169 4134 
L 1269 4134 
L 1269 2991 
Q 1406 3038 1543 3061 
Q 1681 3084 1819 3084 
Q 2600 3084 3056 2656 
Q 3513 2228 3513 1497 
Q 3513 744 3044 326 
Q 2575 -91 1722 -91 
Q 1428 -91 1123 -41 
Q 819 9 494 109 
L 494 744 
Q 775 591 1075 516 
Q 1375 441 1709 441 
Q 2250 441 2565 725 
Q 2881 1009 2881 1497 
Q 2881 1984 2565 2268 
Q 2250 2553 1709 2553 
Q 1456 2553 1204 2497 
Q 953 2441 691 2322 
L 691 4666 
z
" id="DejaVuSans-35" transform="scale(0.015625)"/>
        <path d="M 3328 2828 
Q 3544 3216 3844 3400 
Q 4144 3584 4550 3584 
Q 5097 3584 5394 3201 
Q 5691 2819 5691 2113 
L 5691 0 
L 5113 0 
L 5113 2094 
Q 5113 2597 4934 2840 
Q 4756 3084 4391 3084 
Q 3944 3084 3684 2787 
Q 3425 2491 3425 1978 
L 3425 0 
L 2847 0 
L 2847 2094 
Q 2847 2600 2669 2842 
Q 2491 3084 2119 3084 
Q 1678 3084 1418 2786 
Q 1159 2488 1159 1978 
L 1159 0 
L 581 0 
L 581 3500 
L 1159 3500 
L 1159 2956 
Q 1356 3278 1631 3431 
Q 1906 3584 2284 3584 
Q 2666 3584 2933 3390 
Q 3200 3197 3328 2828 
z
" id="DejaVuSans-6d" transform="scale(0.015625)"/>
       </defs>
       <use xlink:href="#DejaVuSans-31"/>
       <use x="63.623047" xlink:href="#DejaVuSans-35"/>
       <use x="127.246094" xlink:href="#DejaVuSans-6d"/>
      </g>
     </g>
    </g>
    <g id="xtick_2">
     <g id="line2d_2">
      <g>
       <use style="stroke:#000000;stroke-width:0.8;" x="124.264549" xlink:href="#mbc6ca0001e" y="288.430125"/>
      </g>
     </g>
     <g id="text_2">
      <!-- 4h:5m -->
      <g transform="translate(108.178611 303.028562)scale(0.1 -0.1)">
       <defs>
        <path d="M 2419 4116 
L 825 1625 
L 2419 1625 
L 2419 4116 
z
M 2253 4666 
L 3047 4666 
L 3047 1625 
L 3713 1625 
L 3713 1100 
L 3047 1100 
L 3047 0 
L 2419 0 
L 2419 1100 
L 313 1100 
L 313 1709 
L 2253 4666 
z
" id="DejaVuSans-34" transform="scale(0.015625)"/>
        <path d="M 3513 2113 
L 3513 0 
L 2938 0 
L 2938 2094 
Q 2938 2591 2744 2837 
Q 2550 3084 2163 3084 
Q 1697 3084 1428 2787 
Q 1159 2491 1159 1978 
L 1159 0 
L 581 0 
L 581 4863 
L 1159 4863 
L 1159 2956 
Q 1366 3272 1645 3428 
Q 1925 3584 2291 3584 
Q 2894 3584 3203 3211 
Q 3513 2838 3513 2113 
z
" id="DejaVuSans-68" transform="scale(0.015625)"/>
        <path d="M 750 794 
L 1409 794 
L 1409 0 
L 750 0 
L 750 794 
z
M 750 3309 
L 1409 3309 
L 1409 2516 
L 750 2516 
L 750 3309 
z
" id="DejaVuSans-3a" transform="scale(0.015625)"/>
       </defs>
       <use xlink:href="#DejaVuSans-34"/>
       <use x="63.623047" xlink:href="#DejaVuSans-68"/>
       <use x="127.001953" xlink:href="#DejaVuSans-3a"/>
       <use x="160.693359" xlink:href="#DejaVuSans-35"/>
       <use x="224.316406" xlink:href="#DejaVuSans-6d"/>
      </g>
     </g>
    </g>
    <g id="xtick_3">
     <g id="line2d_3">
      <g>
       <use style="stroke:#000000;stroke-width:0.8;" x="178.968245" xlink:href="#mbc6ca0001e" y="288.430125"/>
      </g>
     </g>
     <g id="text_3">
      <!-- 7h:55m -->
      <g transform="translate(159.701057 303.028562)scale(0.1 -0.1)">
       <defs>
        <path d="M 525 4666 
L 3525 4666 
L 3525 4397 
L 1831 0 
L 1172 0 
L 2766 4134 
L 525 4134 
L 525 4666 
z
" id="DejaVuSans-37" transform="scale(0.015625)"/>
       </defs>
       <use xlink:href="#DejaVuSans-37"/>
       <use x="63.623047" xlink:href="#DejaVuSans-68"/>
       <use x="127.001953" xlink:href="#DejaVuSans-3a"/>
       <use x="160.693359" xlink:href="#DejaVuSans-35"/>
       <use x="224.316406" xlink:href="#DejaVuSans-35"/>
       <use x="287.939453" xlink:href="#DejaVuSans-6d"/>
      </g>
     </g>
    </g>
    <g id="xtick_4">
     <g id="line2d_4">
      <g>
       <use style="stroke:#000000;stroke-width:0.8;" x="233.671941" xlink:href="#mbc6ca0001e" y="288.430125"/>
      </g>
     </g>
     <g id="text_4">
      <!-- 11h:45m -->
      <g transform="translate(211.223504 303.028562)scale(0.1 -0.1)">
       <use xlink:href="#DejaVuSans-31"/>
       <use x="63.623047" xlink:href="#DejaVuSans-31"/>
       <use x="127.246094" xlink:href="#DejaVuSans-68"/>
       <use x="190.625" xlink:href="#DejaVuSans-3a"/>
       <use x="224.316406" xlink:href="#DejaVuSans-34"/>
       <use x="287.939453" xlink:href="#DejaVuSans-35"/>
       <use x="351.5625" xlink:href="#DejaVuSans-6d"/>
      </g>
     </g>
    </g>
    <g id="xtick_5">
     <g id="line2d_5">
      <g>
       <use style="stroke:#000000;stroke-width:0.8;" x="288.375637" xlink:href="#mbc6ca0001e" y="288.430125"/>
      </g>
     </g>
     <g id="text_5">
      <!-- 15h:35m -->
      <g transform="translate(265.9272 303.028562)scale(0.1 -0.1)">
       <defs>
        <path d="M 2597 2516 
Q 3050 2419 3304 2112 
Q 3559 1806 3559 1356 
Q 3559 666 3084 287 
Q 2609 -91 1734 -91 
Q 1441 -91 1130 -33 
Q 819 25 488 141 
L 488 750 
Q 750 597 1062 519 
Q 1375 441 1716 441 
Q 2309 441 2620 675 
Q 2931 909 2931 1356 
Q 2931 1769 2642 2001 
Q 2353 2234 1838 2234 
L 1294 2234 
L 1294 2753 
L 1863 2753 
Q 2328 2753 2575 2939 
Q 2822 3125 2822 3475 
Q 2822 3834 2567 4026 
Q 2313 4219 1838 4219 
Q 1578 4219 1281 4162 
Q 984 4106 628 3988 
L 628 4550 
Q 988 4650 1302 4700 
Q 1616 4750 1894 4750 
Q 2613 4750 3031 4423 
Q 3450 4097 3450 3541 
Q 3450 3153 3228 2886 
Q 3006 2619 2597 2516 
z
" id="DejaVuSans-33" transform="scale(0.015625)"/>
       </defs>
       <use xlink:href="#DejaVuSans-31"/>
       <use x="63.623047" xlink:href="#DejaVuSans-35"/>
       <use x="127.246094" xlink:href="#DejaVuSans-68"/>
       <use x="190.625" xlink:href="#DejaVuSans-3a"/>
       <use x="224.316406" xlink:href="#DejaVuSans-33"/>
       <use x="287.939453" xlink:href="#DejaVuSans-35"/>
       <use x="351.5625" xlink:href="#DejaVuSans-6d"/>
      </g>
     </g>
    </g>
    <g id="xtick_6">
     <g id="line2d_6">
      <g>
       <use style="stroke:#000000;stroke-width:0.8;" x="343.079334" xlink:href="#mbc6ca0001e" y="288.430125"/>
      </g>
     </g>
     <g id="text_6">
      <!-- 19h:25m -->
      <g transform="translate(320.630896 303.028562)scale(0.1 -0.1)">
       <defs>
        <path d="M 703 97 
L 703 672 
Q 941 559 1184 500 
Q 1428 441 1663 441 
Q 2288 441 2617 861 
Q 2947 1281 2994 2138 
Q 2813 1869 2534 1725 
Q 2256 1581 1919 1581 
Q 1219 1581 811 2004 
Q 403 2428 403 3163 
Q 403 3881 828 4315 
Q 1253 4750 1959 4750 
Q 2769 4750 3195 4129 
Q 3622 3509 3622 2328 
Q 3622 1225 3098 567 
Q 2575 -91 1691 -91 
Q 1453 -91 1209 -44 
Q 966 3 703 97 
z
M 1959 2075 
Q 2384 2075 2632 2365 
Q 2881 2656 2881 3163 
Q 2881 3666 2632 3958 
Q 2384 4250 1959 4250 
Q 1534 4250 1286 3958 
Q 1038 3666 1038 3163 
Q 1038 2656 1286 2365 
Q 1534 2075 1959 2075 
z
" id="DejaVuSans-39" transform="scale(0.015625)"/>
        <path d="M 1228 531 
L 3431 531 
L 3431 0 
L 469 0 
L 469 531 
Q 828 903 1448 1529 
Q 2069 2156 2228 2338 
Q 2531 2678 2651 2914 
Q 2772 3150 2772 3378 
Q 2772 3750 2511 3984 
Q 2250 4219 1831 4219 
Q 1534 4219 1204 4116 
Q 875 4013 500 3803 
L 500 4441 
Q 881 4594 1212 4672 
Q 1544 4750 1819 4750 
Q 2544 4750 2975 4387 
Q 3406 4025 3406 3419 
Q 3406 3131 3298 2873 
Q 3191 2616 2906 2266 
Q 2828 2175 2409 1742 
Q 1991 1309 1228 531 
z
" id="DejaVuSans-32" transform="scale(0.015625)"/>
       </defs>
       <use xlink:href="#DejaVuSans-31"/>
       <use x="63.623047" xlink:href="#DejaVuSans-39"/>
       <use x="127.246094" xlink:href="#DejaVuSans-68"/>
       <use x="190.625" xlink:href="#DejaVuSans-3a"/>
       <use x="224.316406" xlink:href="#DejaVuSans-32"/>
       <use x="287.939453" xlink:href="#DejaVuSans-35"/>
       <use x="351.5625" xlink:href="#DejaVuSans-6d"/>
      </g>
     </g>
    </g>
    <g id="text_7">
     <!-- Time (hour:minute) -->
     <g transform="translate(183.481094 316.706687)scale(0.1 -0.1)">
      <defs>
       <path d="M -19 4666 
L 3928 4666 
L 3928 4134 
L 2272 4134 
L 2272 0 
L 1638 0 
L 1638 4134 
L -19 4134 
L -19 4666 
z
" id="DejaVuSans-54" transform="scale(0.015625)"/>
       <path d="M 603 3500 
L 1178 3500 
L 1178 0 
L 603 0 
L 603 3500 
z
M 603 4863 
L 1178 4863 
L 1178 4134 
L 603 4134 
L 603 4863 
z
" id="DejaVuSans-69" transform="scale(0.015625)"/>
       <path d="M 3597 1894 
L 3597 1613 
L 953 1613 
Q 991 1019 1311 708 
Q 1631 397 2203 397 
Q 2534 397 2845 478 
Q 3156 559 3463 722 
L 3463 178 
Q 3153 47 2828 -22 
Q 2503 -91 2169 -91 
Q 1331 -91 842 396 
Q 353 884 353 1716 
Q 353 2575 817 3079 
Q 1281 3584 2069 3584 
Q 2775 3584 3186 3129 
Q 3597 2675 3597 1894 
z
M 3022 2063 
Q 3016 2534 2758 2815 
Q 2500 3097 2075 3097 
Q 1594 3097 1305 2825 
Q 1016 2553 972 2059 
L 3022 2063 
z
" id="DejaVuSans-65" transform="scale(0.015625)"/>
       <path id="DejaVuSans-20" transform="scale(0.015625)"/>
       <path d="M 1984 4856 
Q 1566 4138 1362 3434 
Q 1159 2731 1159 2009 
Q 1159 1288 1364 580 
Q 1569 -128 1984 -844 
L 1484 -844 
Q 1016 -109 783 600 
Q 550 1309 550 2009 
Q 550 2706 781 3412 
Q 1013 4119 1484 4856 
L 1984 4856 
z
" id="DejaVuSans-28" transform="scale(0.015625)"/>
       <path d="M 1959 3097 
Q 1497 3097 1228 2736 
Q 959 2375 959 1747 
Q 959 1119 1226 758 
Q 1494 397 1959 397 
Q 2419 397 2687 759 
Q 2956 1122 2956 1747 
Q 2956 2369 2687 2733 
Q 2419 3097 1959 3097 
z
M 1959 3584 
Q 2709 3584 3137 3096 
Q 3566 2609 3566 1747 
Q 3566 888 3137 398 
Q 2709 -91 1959 -91 
Q 1206 -91 779 398 
Q 353 888 353 1747 
Q 353 2609 779 3096 
Q 1206 3584 1959 3584 
z
" id="DejaVuSans-6f" transform="scale(0.015625)"/>
       <path d="M 544 1381 
L 544 3500 
L 1119 3500 
L 1119 1403 
Q 1119 906 1312 657 
Q 1506 409 1894 409 
Q 2359 409 2629 706 
Q 2900 1003 2900 1516 
L 2900 3500 
L 3475 3500 
L 3475 0 
L 2900 0 
L 2900 538 
Q 2691 219 2414 64 
Q 2138 -91 1772 -91 
Q 1169 -91 856 284 
Q 544 659 544 1381 
z
M 1991 3584 
L 1991 3584 
z
" id="DejaVuSans-75" transform="scale(0.015625)"/>
       <path d="M 2631 2963 
Q 2534 3019 2420 3045 
Q 2306 3072 2169 3072 
Q 1681 3072 1420 2755 
Q 1159 2438 1159 1844 
L 1159 0 
L 581 0 
L 581 3500 
L 1159 3500 
L 1159 2956 
Q 1341 3275 1631 3429 
Q 1922 3584 2338 3584 
Q 2397 3584 2469 3576 
Q 2541 3569 2628 3553 
L 2631 2963 
z
" id="DejaVuSans-72" transform="scale(0.015625)"/>
       <path d="M 3513 2113 
L 3513 0 
L 2938 0 
L 2938 2094 
Q 2938 2591 2744 2837 
Q 2550 3084 2163 3084 
Q 1697 3084 1428 2787 
Q 1159 2491 1159 1978 
L 1159 0 
L 581 0 
L 581 3500 
L 1159 3500 
L 1159 2956 
Q 1366 3272 1645 3428 
Q 1925 3584 2291 3584 
Q 2894 3584 3203 3211 
Q 3513 2838 3513 2113 
z
" id="DejaVuSans-6e" transform="scale(0.015625)"/>
       <path d="M 1172 4494 
L 1172 3500 
L 2356 3500 
L 2356 3053 
L 1172 3053 
L 1172 1153 
Q 1172 725 1289 603 
Q 1406 481 1766 481 
L 2356 481 
L 2356 0 
L 1766 0 
Q 1100 0 847 248 
Q 594 497 594 1153 
L 594 3053 
L 172 3053 
L 172 3500 
L 594 3500 
L 594 4494 
L 1172 4494 
z
" id="DejaVuSans-74" transform="scale(0.015625)"/>
       <path d="M 513 4856 
L 1013 4856 
Q 1481 4119 1714 3412 
Q 1947 2706 1947 2009 
Q 1947 1309 1714 600 
Q 1481 -109 1013 -844 
L 513 -844 
Q 928 -128 1133 580 
Q 1338 1288 1338 2009 
Q 1338 2731 1133 3434 
Q 928 4138 513 4856 
z
" id="DejaVuSans-29" transform="scale(0.015625)"/>
      </defs>
      <use xlink:href="#DejaVuSans-54"/>
      <use x="57.958984" xlink:href="#DejaVuSans-69"/>
      <use x="85.742188" xlink:href="#DejaVuSans-6d"/>
      <use x="183.154297" xlink:href="#DejaVuSans-65"/>
      <use x="244.677734" xlink:href="#DejaVuSans-20"/>
      <use x="276.464844" xlink:href="#DejaVuSans-28"/>
      <use x="315.478516" xlink:href="#DejaVuSans-68"/>
      <use x="378.857422" xlink:href="#DejaVuSans-6f"/>
      <use x="440.039062" xlink:href="#DejaVuSans-75"/>
      <use x="503.417969" xlink:href="#DejaVuSans-72"/>
      <use x="542.78125" xlink:href="#DejaVuSans-3a"/>
      <use x="576.472656" xlink:href="#DejaVuSans-6d"/>
      <use x="673.884766" xlink:href="#DejaVuSans-69"/>
      <use x="701.667969" xlink:href="#DejaVuSans-6e"/>
      <use x="765.046875" xlink:href="#DejaVuSans-75"/>
      <use x="828.425781" xlink:href="#DejaVuSans-74"/>
      <use x="867.634766" xlink:href="#DejaVuSans-65"/>
      <use x="929.158203" xlink:href="#DejaVuSans-29"/>
     </g>
    </g>
   </g>
   <g id="matplotlib.axis_2">
    <g id="ytick_1">
     <g id="line2d_7">
      <defs>
       <path d="M 0 0 
L -3.5 0 
" id="m9c12198aed" style="stroke:#000000;stroke-width:0.8;"/>
      </defs>
      <g>
       <use style="stroke:#000000;stroke-width:0.8;" x="53.328125" xlink:href="#m9c12198aed" y="278.127745"/>
      </g>
     </g>
     <g id="text_8">
      <!-- 3500 -->
      <g transform="translate(20.878125 281.926964)scale(0.1 -0.1)">
       <defs>
        <path d="M 2034 4250 
Q 1547 4250 1301 3770 
Q 1056 3291 1056 2328 
Q 1056 1369 1301 889 
Q 1547 409 2034 409 
Q 2525 409 2770 889 
Q 3016 1369 3016 2328 
Q 3016 3291 2770 3770 
Q 2525 4250 2034 4250 
z
M 2034 4750 
Q 2819 4750 3233 4129 
Q 3647 3509 3647 2328 
Q 3647 1150 3233 529 
Q 2819 -91 2034 -91 
Q 1250 -91 836 529 
Q 422 1150 422 2328 
Q 422 3509 836 4129 
Q 1250 4750 2034 4750 
z
" id="DejaVuSans-30" transform="scale(0.015625)"/>
       </defs>
       <use xlink:href="#DejaVuSans-33"/>
       <use x="63.623047" xlink:href="#DejaVuSans-35"/>
       <use x="127.246094" xlink:href="#DejaVuSans-30"/>
       <use x="190.869141" xlink:href="#DejaVuSans-30"/>
      </g>
     </g>
    </g>
    <g id="ytick_2">
     <g id="line2d_8">
      <g>
       <use style="stroke:#000000;stroke-width:0.8;" x="53.328125" xlink:href="#m9c12198aed" y="234.38091"/>
      </g>
     </g>
     <g id="text_9">
      <!-- 4000 -->
      <g transform="translate(20.878125 238.180129)scale(0.1 -0.1)">
       <use xlink:href="#DejaVuSans-34"/>
       <use x="63.623047" xlink:href="#DejaVuSans-30"/>
       <use x="127.246094" xlink:href="#DejaVuSans-30"/>
       <use x="190.869141" xlink:href="#DejaVuSans-30"/>
      </g>
     </g>
    </g>
    <g id="ytick_3">
     <g id="line2d_9">
      <g>
       <use style="stroke:#000000;stroke-width:0.8;" x="53.328125" xlink:href="#m9c12198aed" y="190.634074"/>
      </g>
     </g>
     <g id="text_10">
      <!-- 4500 -->
      <g transform="translate(20.878125 194.433293)scale(0.1 -0.1)">
       <use xlink:href="#DejaVuSans-34"/>
       <use x="63.623047" xlink:href="#DejaVuSans-35"/>
       <use x="127.246094" xlink:href="#DejaVuSans-30"/>
       <use x="190.869141" xlink:href="#DejaVuSans-30"/>
      </g>
     </g>
    </g>
    <g id="ytick_4">
     <g id="line2d_10">
      <g>
       <use style="stroke:#000000;stroke-width:0.8;" x="53.328125" xlink:href="#m9c12198aed" y="146.887239"/>
      </g>
     </g>
     <g id="text_11">
      <!-- 5000 -->
      <g transform="translate(20.878125 150.686458)scale(0.1 -0.1)">
       <use xlink:href="#DejaVuSans-35"/>
       <use x="63.623047" xlink:href="#DejaVuSans-30"/>
       <use x="127.246094" xlink:href="#DejaVuSans-30"/>
       <use x="190.869141" xlink:href="#DejaVuSans-30"/>
      </g>
     </g>
    </g>
    <g id="ytick_5">
     <g id="line2d_11">
      <g>
       <use style="stroke:#000000;stroke-width:0.8;" x="53.328125" xlink:href="#m9c12198aed" y="103.140403"/>
      </g>
     </g>
     <g id="text_12">
      <!-- 5500 -->
      <g transform="translate(20.878125 106.939622)scale(0.1 -0.1)">
       <use xlink:href="#DejaVuSans-35"/>
       <use x="63.623047" xlink:href="#DejaVuSans-35"/>
       <use x="127.246094" xlink:href="#DejaVuSans-30"/>
       <use x="190.869141" xlink:href="#DejaVuSans-30"/>
      </g>
     </g>
    </g>
    <g id="ytick_6">
     <g id="line2d_12">
      <g>
       <use style="stroke:#000000;stroke-width:0.8;" x="53.328125" xlink:href="#m9c12198aed" y="59.393568"/>
      </g>
     </g>
     <g id="text_13">
      <!-- 6000 -->
      <g transform="translate(20.878125 63.192787)scale(0.1 -0.1)">
       <defs>
        <path d="M 2113 2584 
Q 1688 2584 1439 2293 
Q 1191 2003 1191 1497 
Q 1191 994 1439 701 
Q 1688 409 2113 409 
Q 2538 409 2786 701 
Q 3034 994 3034 1497 
Q 3034 2003 2786 2293 
Q 2538 2584 2113 2584 
z
M 3366 4563 
L 3366 3988 
Q 3128 4100 2886 4159 
Q 2644 4219 2406 4219 
Q 1781 4219 1451 3797 
Q 1122 3375 1075 2522 
Q 1259 2794 1537 2939 
Q 1816 3084 2150 3084 
Q 2853 3084 3261 2657 
Q 3669 2231 3669 1497 
Q 3669 778 3244 343 
Q 2819 -91 2113 -91 
Q 1303 -91 875 529 
Q 447 1150 447 2328 
Q 447 3434 972 4092 
Q 1497 4750 2381 4750 
Q 2619 4750 2861 4703 
Q 3103 4656 3366 4563 
z
" id="DejaVuSans-36" transform="scale(0.015625)"/>
       </defs>
       <use xlink:href="#DejaVuSans-36"/>
       <use x="63.623047" xlink:href="#DejaVuSans-30"/>
       <use x="127.246094" xlink:href="#DejaVuSans-30"/>
       <use x="190.869141" xlink:href="#DejaVuSans-30"/>
      </g>
     </g>
    </g>
    <g id="text_14">
     <!-- Code region coverage -->
     <g transform="translate(14.798438 210.379594)rotate(-90)scale(0.1 -0.1)">
      <defs>
       <path d="M 4122 4306 
L 4122 3641 
Q 3803 3938 3442 4084 
Q 3081 4231 2675 4231 
Q 1875 4231 1450 3742 
Q 1025 3253 1025 2328 
Q 1025 1406 1450 917 
Q 1875 428 2675 428 
Q 3081 428 3442 575 
Q 3803 722 4122 1019 
L 4122 359 
Q 3791 134 3420 21 
Q 3050 -91 2638 -91 
Q 1578 -91 968 557 
Q 359 1206 359 2328 
Q 359 3453 968 4101 
Q 1578 4750 2638 4750 
Q 3056 4750 3426 4639 
Q 3797 4528 4122 4306 
z
" id="DejaVuSans-43" transform="scale(0.015625)"/>
       <path d="M 2906 2969 
L 2906 4863 
L 3481 4863 
L 3481 0 
L 2906 0 
L 2906 525 
Q 2725 213 2448 61 
Q 2172 -91 1784 -91 
Q 1150 -91 751 415 
Q 353 922 353 1747 
Q 353 2572 751 3078 
Q 1150 3584 1784 3584 
Q 2172 3584 2448 3432 
Q 2725 3281 2906 2969 
z
M 947 1747 
Q 947 1113 1208 752 
Q 1469 391 1925 391 
Q 2381 391 2643 752 
Q 2906 1113 2906 1747 
Q 2906 2381 2643 2742 
Q 2381 3103 1925 3103 
Q 1469 3103 1208 2742 
Q 947 2381 947 1747 
z
" id="DejaVuSans-64" transform="scale(0.015625)"/>
       <path d="M 2906 1791 
Q 2906 2416 2648 2759 
Q 2391 3103 1925 3103 
Q 1463 3103 1205 2759 
Q 947 2416 947 1791 
Q 947 1169 1205 825 
Q 1463 481 1925 481 
Q 2391 481 2648 825 
Q 2906 1169 2906 1791 
z
M 3481 434 
Q 3481 -459 3084 -895 
Q 2688 -1331 1869 -1331 
Q 1566 -1331 1297 -1286 
Q 1028 -1241 775 -1147 
L 775 -588 
Q 1028 -725 1275 -790 
Q 1522 -856 1778 -856 
Q 2344 -856 2625 -561 
Q 2906 -266 2906 331 
L 2906 616 
Q 2728 306 2450 153 
Q 2172 0 1784 0 
Q 1141 0 747 490 
Q 353 981 353 1791 
Q 353 2603 747 3093 
Q 1141 3584 1784 3584 
Q 2172 3584 2450 3431 
Q 2728 3278 2906 2969 
L 2906 3500 
L 3481 3500 
L 3481 434 
z
" id="DejaVuSans-67" transform="scale(0.015625)"/>
       <path d="M 3122 3366 
L 3122 2828 
Q 2878 2963 2633 3030 
Q 2388 3097 2138 3097 
Q 1578 3097 1268 2742 
Q 959 2388 959 1747 
Q 959 1106 1268 751 
Q 1578 397 2138 397 
Q 2388 397 2633 464 
Q 2878 531 3122 666 
L 3122 134 
Q 2881 22 2623 -34 
Q 2366 -91 2075 -91 
Q 1284 -91 818 406 
Q 353 903 353 1747 
Q 353 2603 823 3093 
Q 1294 3584 2113 3584 
Q 2378 3584 2631 3529 
Q 2884 3475 3122 3366 
z
" id="DejaVuSans-63" transform="scale(0.015625)"/>
       <path d="M 191 3500 
L 800 3500 
L 1894 563 
L 2988 3500 
L 3597 3500 
L 2284 0 
L 1503 0 
L 191 3500 
z
" id="DejaVuSans-76" transform="scale(0.015625)"/>
       <path d="M 2194 1759 
Q 1497 1759 1228 1600 
Q 959 1441 959 1056 
Q 959 750 1161 570 
Q 1363 391 1709 391 
Q 2188 391 2477 730 
Q 2766 1069 2766 1631 
L 2766 1759 
L 2194 1759 
z
M 3341 1997 
L 3341 0 
L 2766 0 
L 2766 531 
Q 2569 213 2275 61 
Q 1981 -91 1556 -91 
Q 1019 -91 701 211 
Q 384 513 384 1019 
Q 384 1609 779 1909 
Q 1175 2209 1959 2209 
L 2766 2209 
L 2766 2266 
Q 2766 2663 2505 2880 
Q 2244 3097 1772 3097 
Q 1472 3097 1187 3025 
Q 903 2953 641 2809 
L 641 3341 
Q 956 3463 1253 3523 
Q 1550 3584 1831 3584 
Q 2591 3584 2966 3190 
Q 3341 2797 3341 1997 
z
" id="DejaVuSans-61" transform="scale(0.015625)"/>
      </defs>
      <use xlink:href="#DejaVuSans-43"/>
      <use x="69.824219" xlink:href="#DejaVuSans-6f"/>
      <use x="131.005859" xlink:href="#DejaVuSans-64"/>
      <use x="194.482422" xlink:href="#DejaVuSans-65"/>
      <use x="256.005859" xlink:href="#DejaVuSans-20"/>
      <use x="287.792969" xlink:href="#DejaVuSans-72"/>
      <use x="326.65625" xlink:href="#DejaVuSans-65"/>
      <use x="388.179688" xlink:href="#DejaVuSans-67"/>
      <use x="451.65625" xlink:href="#DejaVuSans-69"/>
      <use x="479.439453" xlink:href="#DejaVuSans-6f"/>
      <use x="540.621094" xlink:href="#DejaVuSans-6e"/>
      <use x="604" xlink:href="#DejaVuSans-20"/>
      <use x="635.787109" xlink:href="#DejaVuSans-63"/>
      <use x="690.767578" xlink:href="#DejaVuSans-6f"/>
      <use x="751.949219" xlink:href="#DejaVuSans-76"/>
      <use x="811.128906" xlink:href="#DejaVuSans-65"/>
      <use x="872.652344" xlink:href="#DejaVuSans-72"/>
      <use x="913.765625" xlink:href="#DejaVuSans-61"/>
      <use x="975.044922" xlink:href="#DejaVuSans-67"/>
      <use x="1038.521484" xlink:href="#DejaVuSans-65"/>
     </g>
    </g>
   </g>
   <g id="line2d_13">
    <path clip-path="url(#pee0f362156)" d="M 69.560852 235.080859 
L 73.128485 183.722074 
L 76.696117 175.060201 
L 80.263749 170.685517 
L 83.831382 158.961366 
L 87.399014 156.774024 
L 90.966646 141.025163 
L 94.534279 136.519239 
L 98.101911 130.088454 
L 101.669544 129.650986 
L 105.237176 123.78891 
L 108.804808 122.476505 
L 112.372441 116.220707 
L 115.940073 108.696252 
L 119.507705 101.827998 
L 123.075338 101.827998 
L 126.64297 101.827998 
L 130.210603 101.827998 
L 133.778235 108.040049 
L 137.345867 108.040049 
L 140.9135 108.040049 
L 144.481132 108.040049 
L 148.048764 108.040049 
L 151.616397 107.865062 
L 155.184029 101.827998 
L 158.751661 101.827998 
L 162.319294 101.827998 
L 165.886926 101.827998 
L 169.454559 107.821315 
L 173.022191 107.821315 
L 176.589823 101.827998 
L 180.157456 101.827998 
L 183.725088 107.821315 
L 187.29272 100.253112 
L 190.860353 95.090986 
L 194.427985 94.303543 
L 197.995618 87.741517 
L 201.56325 85.116707 
L 205.130882 81.179492 
L 208.698515 77.504758 
L 212.266147 77.504758 
L 215.833779 77.154783 
L 219.401412 75.929872 
L 222.969044 75.754884 
L 226.536676 76.454834 
L 230.104309 75.40491 
L 233.671941 74.792454 
L 237.239574 74.792454 
L 240.807206 74.792454 
L 244.374838 74.529973 
L 247.942471 74.005011 
L 251.510103 74.005011 
L 255.077735 74.005011 
L 258.645368 74.005011 
L 262.213 74.005011 
L 265.780632 74.005011 
L 269.348265 74.005011 
L 272.915897 73.655036 
L 276.48353 72.517619 
L 280.051162 73.261315 
L 283.618794 69.717821 
L 287.186427 69.017872 
L 290.754059 69.017872 
L 294.321691 66.918024 
L 297.889324 66.918024 
L 301.456956 66.918024 
L 305.024589 68.449163 
L 308.592221 68.449163 
L 312.159853 68.449163 
L 315.727486 65.518125 
L 319.295118 64.380707 
L 322.86275 64.030733 
L 326.430383 61.143441 
L 329.998015 61.143441 
L 333.565647 61.143441 
L 337.13328 62.018378 
L 340.700912 60.705973 
L 344.268545 60.705973 
L 347.836177 60.705973 
L 351.403809 60.705973 
L 354.971442 60.705973 
L 358.539074 60.355998 
L 362.106706 59.568555 
L 365.674339 59.568555 
L 369.241971 59.393568 
L 372.809604 59.656049 
L 376.377236 59.656049 
L 379.944868 59.656049 
L 383.512501 59.656049 
L 387.080133 59.656049 
L 390.647765 59.656049 
L 394.215398 59.393568 
" style="fill:none;stroke:#d62728;stroke-linecap:square;stroke-width:1.5;"/>
    <defs>
     <path d="M 0 -3 
L -3 3 
L 3 3 
z
" id="m551eaacf47" style="stroke:#ffffff;stroke-linejoin:miter;stroke-width:0.75;"/>
    </defs>
    <g clip-path="url(#pee0f362156)">
     <use style="fill:#d62728;stroke:#ffffff;stroke-linejoin:miter;stroke-width:0.75;" x="69.560852" xlink:href="#m551eaacf47" y="235.080859"/>
     <use style="fill:#d62728;stroke:#ffffff;stroke-linejoin:miter;stroke-width:0.75;" x="73.128485" xlink:href="#m551eaacf47" y="183.722074"/>
     <use style="fill:#d62728;stroke:#ffffff;stroke-linejoin:miter;stroke-width:0.75;" x="76.696117" xlink:href="#m551eaacf47" y="175.060201"/>
     <use style="fill:#d62728;stroke:#ffffff;stroke-linejoin:miter;stroke-width:0.75;" x="80.263749" xlink:href="#m551eaacf47" y="170.685517"/>
     <use style="fill:#d62728;stroke:#ffffff;stroke-linejoin:miter;stroke-width:0.75;" x="83.831382" xlink:href="#m551eaacf47" y="158.961366"/>
     <use style="fill:#d62728;stroke:#ffffff;stroke-linejoin:miter;stroke-width:0.75;" x="87.399014" xlink:href="#m551eaacf47" y="156.774024"/>
     <use style="fill:#d62728;stroke:#ffffff;stroke-linejoin:miter;stroke-width:0.75;" x="90.966646" xlink:href="#m551eaacf47" y="141.025163"/>
     <use style="fill:#d62728;stroke:#ffffff;stroke-linejoin:miter;stroke-width:0.75;" x="94.534279" xlink:href="#m551eaacf47" y="136.519239"/>
     <use style="fill:#d62728;stroke:#ffffff;stroke-linejoin:miter;stroke-width:0.75;" x="98.101911" xlink:href="#m551eaacf47" y="130.088454"/>
     <use style="fill:#d62728;stroke:#ffffff;stroke-linejoin:miter;stroke-width:0.75;" x="101.669544" xlink:href="#m551eaacf47" y="129.650986"/>
     <use style="fill:#d62728;stroke:#ffffff;stroke-linejoin:miter;stroke-width:0.75;" x="105.237176" xlink:href="#m551eaacf47" y="123.78891"/>
     <use style="fill:#d62728;stroke:#ffffff;stroke-linejoin:miter;stroke-width:0.75;" x="108.804808" xlink:href="#m551eaacf47" y="122.476505"/>
     <use style="fill:#d62728;stroke:#ffffff;stroke-linejoin:miter;stroke-width:0.75;" x="112.372441" xlink:href="#m551eaacf47" y="116.220707"/>
     <use style="fill:#d62728;stroke:#ffffff;stroke-linejoin:miter;stroke-width:0.75;" x="115.940073" xlink:href="#m551eaacf47" y="108.696252"/>
     <use style="fill:#d62728;stroke:#ffffff;stroke-linejoin:miter;stroke-width:0.75;" x="119.507705" xlink:href="#m551eaacf47" y="101.827998"/>
     <use style="fill:#d62728;stroke:#ffffff;stroke-linejoin:miter;stroke-width:0.75;" x="123.075338" xlink:href="#m551eaacf47" y="101.827998"/>
     <use style="fill:#d62728;stroke:#ffffff;stroke-linejoin:miter;stroke-width:0.75;" x="126.64297" xlink:href="#m551eaacf47" y="101.827998"/>
     <use style="fill:#d62728;stroke:#ffffff;stroke-linejoin:miter;stroke-width:0.75;" x="130.210603" xlink:href="#m551eaacf47" y="101.827998"/>
     <use style="fill:#d62728;stroke:#ffffff;stroke-linejoin:miter;stroke-width:0.75;" x="133.778235" xlink:href="#m551eaacf47" y="108.040049"/>
     <use style="fill:#d62728;stroke:#ffffff;stroke-linejoin:miter;stroke-width:0.75;" x="137.345867" xlink:href="#m551eaacf47" y="108.040049"/>
     <use style="fill:#d62728;stroke:#ffffff;stroke-linejoin:miter;stroke-width:0.75;" x="140.9135" xlink:href="#m551eaacf47" y="108.040049"/>
     <use style="fill:#d62728;stroke:#ffffff;stroke-linejoin:miter;stroke-width:0.75;" x="144.481132" xlink:href="#m551eaacf47" y="108.040049"/>
     <use style="fill:#d62728;stroke:#ffffff;stroke-linejoin:miter;stroke-width:0.75;" x="148.048764" xlink:href="#m551eaacf47" y="108.040049"/>
     <use style="fill:#d62728;stroke:#ffffff;stroke-linejoin:miter;stroke-width:0.75;" x="151.616397" xlink:href="#m551eaacf47" y="107.865062"/>
     <use style="fill:#d62728;stroke:#ffffff;stroke-linejoin:miter;stroke-width:0.75;" x="155.184029" xlink:href="#m551eaacf47" y="101.827998"/>
     <use style="fill:#d62728;stroke:#ffffff;stroke-linejoin:miter;stroke-width:0.75;" x="158.751661" xlink:href="#m551eaacf47" y="101.827998"/>
     <use style="fill:#d62728;stroke:#ffffff;stroke-linejoin:miter;stroke-width:0.75;" x="162.319294" xlink:href="#m551eaacf47" y="101.827998"/>
     <use style="fill:#d62728;stroke:#ffffff;stroke-linejoin:miter;stroke-width:0.75;" x="165.886926" xlink:href="#m551eaacf47" y="101.827998"/>
     <use style="fill:#d62728;stroke:#ffffff;stroke-linejoin:miter;stroke-width:0.75;" x="169.454559" xlink:href="#m551eaacf47" y="107.821315"/>
     <use style="fill:#d62728;stroke:#ffffff;stroke-linejoin:miter;stroke-width:0.75;" x="173.022191" xlink:href="#m551eaacf47" y="107.821315"/>
     <use style="fill:#d62728;stroke:#ffffff;stroke-linejoin:miter;stroke-width:0.75;" x="176.589823" xlink:href="#m551eaacf47" y="101.827998"/>
     <use style="fill:#d62728;stroke:#ffffff;stroke-linejoin:miter;stroke-width:0.75;" x="180.157456" xlink:href="#m551eaacf47" y="101.827998"/>
     <use style="fill:#d62728;stroke:#ffffff;stroke-linejoin:miter;stroke-width:0.75;" x="183.725088" xlink:href="#m551eaacf47" y="107.821315"/>
     <use style="fill:#d62728;stroke:#ffffff;stroke-linejoin:miter;stroke-width:0.75;" x="187.29272" xlink:href="#m551eaacf47" y="100.253112"/>
     <use style="fill:#d62728;stroke:#ffffff;stroke-linejoin:miter;stroke-width:0.75;" x="190.860353" xlink:href="#m551eaacf47" y="95.090986"/>
     <use style="fill:#d62728;stroke:#ffffff;stroke-linejoin:miter;stroke-width:0.75;" x="194.427985" xlink:href="#m551eaacf47" y="94.303543"/>
     <use style="fill:#d62728;stroke:#ffffff;stroke-linejoin:miter;stroke-width:0.75;" x="197.995618" xlink:href="#m551eaacf47" y="87.741517"/>
     <use style="fill:#d62728;stroke:#ffffff;stroke-linejoin:miter;stroke-width:0.75;" x="201.56325" xlink:href="#m551eaacf47" y="85.116707"/>
     <use style="fill:#d62728;stroke:#ffffff;stroke-linejoin:miter;stroke-width:0.75;" x="205.130882" xlink:href="#m551eaacf47" y="81.179492"/>
     <use style="fill:#d62728;stroke:#ffffff;stroke-linejoin:miter;stroke-width:0.75;" x="208.698515" xlink:href="#m551eaacf47" y="77.504758"/>
     <use style="fill:#d62728;stroke:#ffffff;stroke-linejoin:miter;stroke-width:0.75;" x="212.266147" xlink:href="#m551eaacf47" y="77.504758"/>
     <use style="fill:#d62728;stroke:#ffffff;stroke-linejoin:miter;stroke-width:0.75;" x="215.833779" xlink:href="#m551eaacf47" y="77.154783"/>
     <use style="fill:#d62728;stroke:#ffffff;stroke-linejoin:miter;stroke-width:0.75;" x="219.401412" xlink:href="#m551eaacf47" y="75.929872"/>
     <use style="fill:#d62728;stroke:#ffffff;stroke-linejoin:miter;stroke-width:0.75;" x="222.969044" xlink:href="#m551eaacf47" y="75.754884"/>
     <use style="fill:#d62728;stroke:#ffffff;stroke-linejoin:miter;stroke-width:0.75;" x="226.536676" xlink:href="#m551eaacf47" y="76.454834"/>
     <use style="fill:#d62728;stroke:#ffffff;stroke-linejoin:miter;stroke-width:0.75;" x="230.104309" xlink:href="#m551eaacf47" y="75.40491"/>
     <use style="fill:#d62728;stroke:#ffffff;stroke-linejoin:miter;stroke-width:0.75;" x="233.671941" xlink:href="#m551eaacf47" y="74.792454"/>
     <use style="fill:#d62728;stroke:#ffffff;stroke-linejoin:miter;stroke-width:0.75;" x="237.239574" xlink:href="#m551eaacf47" y="74.792454"/>
     <use style="fill:#d62728;stroke:#ffffff;stroke-linejoin:miter;stroke-width:0.75;" x="240.807206" xlink:href="#m551eaacf47" y="74.792454"/>
     <use style="fill:#d62728;stroke:#ffffff;stroke-linejoin:miter;stroke-width:0.75;" x="244.374838" xlink:href="#m551eaacf47" y="74.529973"/>
     <use style="fill:#d62728;stroke:#ffffff;stroke-linejoin:miter;stroke-width:0.75;" x="247.942471" xlink:href="#m551eaacf47" y="74.005011"/>
     <use style="fill:#d62728;stroke:#ffffff;stroke-linejoin:miter;stroke-width:0.75;" x="251.510103" xlink:href="#m551eaacf47" y="74.005011"/>
     <use style="fill:#d62728;stroke:#ffffff;stroke-linejoin:miter;stroke-width:0.75;" x="255.077735" xlink:href="#m551eaacf47" y="74.005011"/>
     <use style="fill:#d62728;stroke:#ffffff;stroke-linejoin:miter;stroke-width:0.75;" x="258.645368" xlink:href="#m551eaacf47" y="74.005011"/>
     <use style="fill:#d62728;stroke:#ffffff;stroke-linejoin:miter;stroke-width:0.75;" x="262.213" xlink:href="#m551eaacf47" y="74.005011"/>
     <use style="fill:#d62728;stroke:#ffffff;stroke-linejoin:miter;stroke-width:0.75;" x="265.780632" xlink:href="#m551eaacf47" y="74.005011"/>
     <use style="fill:#d62728;stroke:#ffffff;stroke-linejoin:miter;stroke-width:0.75;" x="269.348265" xlink:href="#m551eaacf47" y="74.005011"/>
     <use style="fill:#d62728;stroke:#ffffff;stroke-linejoin:miter;stroke-width:0.75;" x="272.915897" xlink:href="#m551eaacf47" y="73.655036"/>
     <use style="fill:#d62728;stroke:#ffffff;stroke-linejoin:miter;stroke-width:0.75;" x="276.48353" xlink:href="#m551eaacf47" y="72.517619"/>
     <use style="fill:#d62728;stroke:#ffffff;stroke-linejoin:miter;stroke-width:0.75;" x="280.051162" xlink:href="#m551eaacf47" y="73.261315"/>
     <use style="fill:#d62728;stroke:#ffffff;stroke-linejoin:miter;stroke-width:0.75;" x="283.618794" xlink:href="#m551eaacf47" y="69.717821"/>
     <use style="fill:#d62728;stroke:#ffffff;stroke-linejoin:miter;stroke-width:0.75;" x="287.186427" xlink:href="#m551eaacf47" y="69.017872"/>
     <use style="fill:#d62728;stroke:#ffffff;stroke-linejoin:miter;stroke-width:0.75;" x="290.754059" xlink:href="#m551eaacf47" y="69.017872"/>
     <use style="fill:#d62728;stroke:#ffffff;stroke-linejoin:miter;stroke-width:0.75;" x="294.321691" xlink:href="#m551eaacf47" y="66.918024"/>
     <use style="fill:#d62728;stroke:#ffffff;stroke-linejoin:miter;stroke-width:0.75;" x="297.889324" xlink:href="#m551eaacf47" y="66.918024"/>
     <use style="fill:#d62728;stroke:#ffffff;stroke-linejoin:miter;stroke-width:0.75;" x="301.456956" xlink:href="#m551eaacf47" y="66.918024"/>
     <use style="fill:#d62728;stroke:#ffffff;stroke-linejoin:miter;stroke-width:0.75;" x="305.024589" xlink:href="#m551eaacf47" y="68.449163"/>
     <use style="fill:#d62728;stroke:#ffffff;stroke-linejoin:miter;stroke-width:0.75;" x="308.592221" xlink:href="#m551eaacf47" y="68.449163"/>
     <use style="fill:#d62728;stroke:#ffffff;stroke-linejoin:miter;stroke-width:0.75;" x="312.159853" xlink:href="#m551eaacf47" y="68.449163"/>
     <use style="fill:#d62728;stroke:#ffffff;stroke-linejoin:miter;stroke-width:0.75;" x="315.727486" xlink:href="#m551eaacf47" y="65.518125"/>
     <use style="fill:#d62728;stroke:#ffffff;stroke-linejoin:miter;stroke-width:0.75;" x="319.295118" xlink:href="#m551eaacf47" y="64.380707"/>
     <use style="fill:#d62728;stroke:#ffffff;stroke-linejoin:miter;stroke-width:0.75;" x="322.86275" xlink:href="#m551eaacf47" y="64.030733"/>
     <use style="fill:#d62728;stroke:#ffffff;stroke-linejoin:miter;stroke-width:0.75;" x="326.430383" xlink:href="#m551eaacf47" y="61.143441"/>
     <use style="fill:#d62728;stroke:#ffffff;stroke-linejoin:miter;stroke-width:0.75;" x="329.998015" xlink:href="#m551eaacf47" y="61.143441"/>
     <use style="fill:#d62728;stroke:#ffffff;stroke-linejoin:miter;stroke-width:0.75;" x="333.565647" xlink:href="#m551eaacf47" y="61.143441"/>
     <use style="fill:#d62728;stroke:#ffffff;stroke-linejoin:miter;stroke-width:0.75;" x="337.13328" xlink:href="#m551eaacf47" y="62.018378"/>
     <use style="fill:#d62728;stroke:#ffffff;stroke-linejoin:miter;stroke-width:0.75;" x="340.700912" xlink:href="#m551eaacf47" y="60.705973"/>
     <use style="fill:#d62728;stroke:#ffffff;stroke-linejoin:miter;stroke-width:0.75;" x="344.268545" xlink:href="#m551eaacf47" y="60.705973"/>
     <use style="fill:#d62728;stroke:#ffffff;stroke-linejoin:miter;stroke-width:0.75;" x="347.836177" xlink:href="#m551eaacf47" y="60.705973"/>
     <use style="fill:#d62728;stroke:#ffffff;stroke-linejoin:miter;stroke-width:0.75;" x="351.403809" xlink:href="#m551eaacf47" y="60.705973"/>
     <use style="fill:#d62728;stroke:#ffffff;stroke-linejoin:miter;stroke-width:0.75;" x="354.971442" xlink:href="#m551eaacf47" y="60.705973"/>
     <use style="fill:#d62728;stroke:#ffffff;stroke-linejoin:miter;stroke-width:0.75;" x="358.539074" xlink:href="#m551eaacf47" y="60.355998"/>
     <use style="fill:#d62728;stroke:#ffffff;stroke-linejoin:miter;stroke-width:0.75;" x="362.106706" xlink:href="#m551eaacf47" y="59.568555"/>
     <use style="fill:#d62728;stroke:#ffffff;stroke-linejoin:miter;stroke-width:0.75;" x="365.674339" xlink:href="#m551eaacf47" y="59.568555"/>
     <use style="fill:#d62728;stroke:#ffffff;stroke-linejoin:miter;stroke-width:0.75;" x="369.241971" xlink:href="#m551eaacf47" y="59.393568"/>
     <use style="fill:#d62728;stroke:#ffffff;stroke-linejoin:miter;stroke-width:0.75;" x="372.809604" xlink:href="#m551eaacf47" y="59.656049"/>
     <use style="fill:#d62728;stroke:#ffffff;stroke-linejoin:miter;stroke-width:0.75;" x="376.377236" xlink:href="#m551eaacf47" y="59.656049"/>
     <use style="fill:#d62728;stroke:#ffffff;stroke-linejoin:miter;stroke-width:0.75;" x="379.944868" xlink:href="#m551eaacf47" y="59.656049"/>
     <use style="fill:#d62728;stroke:#ffffff;stroke-linejoin:miter;stroke-width:0.75;" x="383.512501" xlink:href="#m551eaacf47" y="59.656049"/>
     <use style="fill:#d62728;stroke:#ffffff;stroke-linejoin:miter;stroke-width:0.75;" x="387.080133" xlink:href="#m551eaacf47" y="59.656049"/>
     <use style="fill:#d62728;stroke:#ffffff;stroke-linejoin:miter;stroke-width:0.75;" x="390.647765" xlink:href="#m551eaacf47" y="59.656049"/>
     <use style="fill:#d62728;stroke:#ffffff;stroke-linejoin:miter;stroke-width:0.75;" x="394.215398" xlink:href="#m551eaacf47" y="59.393568"/>
    </g>
   </g>
   <g id="line2d_14">
    <path clip-path="url(#pee0f362156)" d="M 69.560852 190.2841 
L 73.128485 167.929467 
L 76.696117 156.599036 
L 80.263749 152.093112 
L 83.831382 151.480657 
L 87.399014 150.780707 
L 90.966646 143.081264 
L 94.534279 140.281467 
L 98.101911 140.281467 
L 101.669544 137.394176 
L 105.237176 137.306682 
L 108.804808 135.11934 
L 112.372441 130.919644 
L 115.940073 130.919644 
L 119.507705 130.919644 
L 123.075338 129.694733 
L 126.64297 129.694733 
L 130.210603 118.408049 
L 133.778235 118.408049 
L 137.345867 118.233062 
L 140.9135 106.158935 
L 144.481132 105.021517 
L 148.048764 100.778074 
L 151.616397 95.790935 
L 155.184029 93.778581 
L 158.751661 101.521771 
L 162.319294 101.25929 
L 165.886926 101.25929 
L 169.454559 101.171796 
L 173.022191 101.171796 
L 176.589823 100.821821 
L 180.157456 100.778074 
L 183.725088 100.471847 
L 187.29272 100.471847 
L 190.860353 100.471847 
L 194.427985 100.4281 
L 197.995618 95.353467 
L 201.56325 90.453821 
L 205.130882 90.016353 
L 208.698515 90.016353 
L 212.266147 84.285517 
L 215.833779 84.285517 
L 219.401412 83.366834 
L 222.969044 82.798125 
L 226.536676 82.798125 
L 230.104309 82.229416 
L 233.671941 82.229416 
L 237.239574 82.229416 
L 240.807206 82.229416 
L 244.374838 82.229416 
L 247.942471 82.010682 
L 251.510103 82.010682 
L 255.077735 81.748201 
L 258.645368 81.748201 
L 262.213 81.748201 
L 265.780632 81.704454 
L 269.348265 81.704454 
L 272.915897 81.573214 
L 276.48353 81.135745 
L 280.051162 81.135745 
L 283.618794 81.048252 
L 287.186427 77.023543 
L 290.754059 76.761062 
L 294.321691 76.673568 
L 297.889324 76.673568 
L 301.456956 76.673568 
L 305.024589 76.673568 
L 308.592221 74.267492 
L 312.159853 74.267492 
L 315.727486 74.267492 
L 319.295118 74.267492 
L 322.86275 75.53615 
L 326.430383 75.53615 
L 329.998015 75.53615 
L 333.565647 67.049264 
L 337.13328 67.049264 
L 340.700912 67.049264 
L 344.268545 67.005517 
L 347.836177 67.005517 
L 351.403809 67.005517 
L 354.971442 66.874277 
L 358.539074 66.874277 
L 362.106706 66.874277 
L 365.674339 66.874277 
L 369.241971 66.874277 
L 372.809604 66.874277 
L 376.377236 66.83053 
L 379.944868 66.83053 
L 383.512501 59.743543 
L 387.080133 59.743543 
L 390.647765 59.743543 
L 394.215398 59.656049 
" style="fill:none;stroke:#98df8a;stroke-linecap:square;stroke-width:1.5;"/>
    <defs>
     <path d="M -0 3 
L 3 -3 
L -3 -3 
z
" id="m2998c0989d" style="stroke:#ffffff;stroke-linejoin:miter;stroke-width:0.75;"/>
    </defs>
    <g clip-path="url(#pee0f362156)">
     <use style="fill:#98df8a;stroke:#ffffff;stroke-linejoin:miter;stroke-width:0.75;" x="69.560852" xlink:href="#m2998c0989d" y="190.2841"/>
     <use style="fill:#98df8a;stroke:#ffffff;stroke-linejoin:miter;stroke-width:0.75;" x="73.128485" xlink:href="#m2998c0989d" y="167.929467"/>
     <use style="fill:#98df8a;stroke:#ffffff;stroke-linejoin:miter;stroke-width:0.75;" x="76.696117" xlink:href="#m2998c0989d" y="156.599036"/>
     <use style="fill:#98df8a;stroke:#ffffff;stroke-linejoin:miter;stroke-width:0.75;" x="80.263749" xlink:href="#m2998c0989d" y="152.093112"/>
     <use style="fill:#98df8a;stroke:#ffffff;stroke-linejoin:miter;stroke-width:0.75;" x="83.831382" xlink:href="#m2998c0989d" y="151.480657"/>
     <use style="fill:#98df8a;stroke:#ffffff;stroke-linejoin:miter;stroke-width:0.75;" x="87.399014" xlink:href="#m2998c0989d" y="150.780707"/>
     <use style="fill:#98df8a;stroke:#ffffff;stroke-linejoin:miter;stroke-width:0.75;" x="90.966646" xlink:href="#m2998c0989d" y="143.081264"/>
     <use style="fill:#98df8a;stroke:#ffffff;stroke-linejoin:miter;stroke-width:0.75;" x="94.534279" xlink:href="#m2998c0989d" y="140.281467"/>
     <use style="fill:#98df8a;stroke:#ffffff;stroke-linejoin:miter;stroke-width:0.75;" x="98.101911" xlink:href="#m2998c0989d" y="140.281467"/>
     <use style="fill:#98df8a;stroke:#ffffff;stroke-linejoin:miter;stroke-width:0.75;" x="101.669544" xlink:href="#m2998c0989d" y="137.394176"/>
     <use style="fill:#98df8a;stroke:#ffffff;stroke-linejoin:miter;stroke-width:0.75;" x="105.237176" xlink:href="#m2998c0989d" y="137.306682"/>
     <use style="fill:#98df8a;stroke:#ffffff;stroke-linejoin:miter;stroke-width:0.75;" x="108.804808" xlink:href="#m2998c0989d" y="135.11934"/>
     <use style="fill:#98df8a;stroke:#ffffff;stroke-linejoin:miter;stroke-width:0.75;" x="112.372441" xlink:href="#m2998c0989d" y="130.919644"/>
     <use style="fill:#98df8a;stroke:#ffffff;stroke-linejoin:miter;stroke-width:0.75;" x="115.940073" xlink:href="#m2998c0989d" y="130.919644"/>
     <use style="fill:#98df8a;stroke:#ffffff;stroke-linejoin:miter;stroke-width:0.75;" x="119.507705" xlink:href="#m2998c0989d" y="130.919644"/>
     <use style="fill:#98df8a;stroke:#ffffff;stroke-linejoin:miter;stroke-width:0.75;" x="123.075338" xlink:href="#m2998c0989d" y="129.694733"/>
     <use style="fill:#98df8a;stroke:#ffffff;stroke-linejoin:miter;stroke-width:0.75;" x="126.64297" xlink:href="#m2998c0989d" y="129.694733"/>
     <use style="fill:#98df8a;stroke:#ffffff;stroke-linejoin:miter;stroke-width:0.75;" x="130.210603" xlink:href="#m2998c0989d" y="118.408049"/>
     <use style="fill:#98df8a;stroke:#ffffff;stroke-linejoin:miter;stroke-width:0.75;" x="133.778235" xlink:href="#m2998c0989d" y="118.408049"/>
     <use style="fill:#98df8a;stroke:#ffffff;stroke-linejoin:miter;stroke-width:0.75;" x="137.345867" xlink:href="#m2998c0989d" y="118.233062"/>
     <use style="fill:#98df8a;stroke:#ffffff;stroke-linejoin:miter;stroke-width:0.75;" x="140.9135" xlink:href="#m2998c0989d" y="106.158935"/>
     <use style="fill:#98df8a;stroke:#ffffff;stroke-linejoin:miter;stroke-width:0.75;" x="144.481132" xlink:href="#m2998c0989d" y="105.021517"/>
     <use style="fill:#98df8a;stroke:#ffffff;stroke-linejoin:miter;stroke-width:0.75;" x="148.048764" xlink:href="#m2998c0989d" y="100.778074"/>
     <use style="fill:#98df8a;stroke:#ffffff;stroke-linejoin:miter;stroke-width:0.75;" x="151.616397" xlink:href="#m2998c0989d" y="95.790935"/>
     <use style="fill:#98df8a;stroke:#ffffff;stroke-linejoin:miter;stroke-width:0.75;" x="155.184029" xlink:href="#m2998c0989d" y="93.778581"/>
     <use style="fill:#98df8a;stroke:#ffffff;stroke-linejoin:miter;stroke-width:0.75;" x="158.751661" xlink:href="#m2998c0989d" y="101.521771"/>
     <use style="fill:#98df8a;stroke:#ffffff;stroke-linejoin:miter;stroke-width:0.75;" x="162.319294" xlink:href="#m2998c0989d" y="101.25929"/>
     <use style="fill:#98df8a;stroke:#ffffff;stroke-linejoin:miter;stroke-width:0.75;" x="165.886926" xlink:href="#m2998c0989d" y="101.25929"/>
     <use style="fill:#98df8a;stroke:#ffffff;stroke-linejoin:miter;stroke-width:0.75;" x="169.454559" xlink:href="#m2998c0989d" y="101.171796"/>
     <use style="fill:#98df8a;stroke:#ffffff;stroke-linejoin:miter;stroke-width:0.75;" x="173.022191" xlink:href="#m2998c0989d" y="101.171796"/>
     <use style="fill:#98df8a;stroke:#ffffff;stroke-linejoin:miter;stroke-width:0.75;" x="176.589823" xlink:href="#m2998c0989d" y="100.821821"/>
     <use style="fill:#98df8a;stroke:#ffffff;stroke-linejoin:miter;stroke-width:0.75;" x="180.157456" xlink:href="#m2998c0989d" y="100.778074"/>
     <use style="fill:#98df8a;stroke:#ffffff;stroke-linejoin:miter;stroke-width:0.75;" x="183.725088" xlink:href="#m2998c0989d" y="100.471847"/>
     <use style="fill:#98df8a;stroke:#ffffff;stroke-linejoin:miter;stroke-width:0.75;" x="187.29272" xlink:href="#m2998c0989d" y="100.471847"/>
     <use style="fill:#98df8a;stroke:#ffffff;stroke-linejoin:miter;stroke-width:0.75;" x="190.860353" xlink:href="#m2998c0989d" y="100.471847"/>
     <use style="fill:#98df8a;stroke:#ffffff;stroke-linejoin:miter;stroke-width:0.75;" x="194.427985" xlink:href="#m2998c0989d" y="100.4281"/>
     <use style="fill:#98df8a;stroke:#ffffff;stroke-linejoin:miter;stroke-width:0.75;" x="197.995618" xlink:href="#m2998c0989d" y="95.353467"/>
     <use style="fill:#98df8a;stroke:#ffffff;stroke-linejoin:miter;stroke-width:0.75;" x="201.56325" xlink:href="#m2998c0989d" y="90.453821"/>
     <use style="fill:#98df8a;stroke:#ffffff;stroke-linejoin:miter;stroke-width:0.75;" x="205.130882" xlink:href="#m2998c0989d" y="90.016353"/>
     <use style="fill:#98df8a;stroke:#ffffff;stroke-linejoin:miter;stroke-width:0.75;" x="208.698515" xlink:href="#m2998c0989d" y="90.016353"/>
     <use style="fill:#98df8a;stroke:#ffffff;stroke-linejoin:miter;stroke-width:0.75;" x="212.266147" xlink:href="#m2998c0989d" y="84.285517"/>
     <use style="fill:#98df8a;stroke:#ffffff;stroke-linejoin:miter;stroke-width:0.75;" x="215.833779" xlink:href="#m2998c0989d" y="84.285517"/>
     <use style="fill:#98df8a;stroke:#ffffff;stroke-linejoin:miter;stroke-width:0.75;" x="219.401412" xlink:href="#m2998c0989d" y="83.366834"/>
     <use style="fill:#98df8a;stroke:#ffffff;stroke-linejoin:miter;stroke-width:0.75;" x="222.969044" xlink:href="#m2998c0989d" y="82.798125"/>
     <use style="fill:#98df8a;stroke:#ffffff;stroke-linejoin:miter;stroke-width:0.75;" x="226.536676" xlink:href="#m2998c0989d" y="82.798125"/>
     <use style="fill:#98df8a;stroke:#ffffff;stroke-linejoin:miter;stroke-width:0.75;" x="230.104309" xlink:href="#m2998c0989d" y="82.229416"/>
     <use style="fill:#98df8a;stroke:#ffffff;stroke-linejoin:miter;stroke-width:0.75;" x="233.671941" xlink:href="#m2998c0989d" y="82.229416"/>
     <use style="fill:#98df8a;stroke:#ffffff;stroke-linejoin:miter;stroke-width:0.75;" x="237.239574" xlink:href="#m2998c0989d" y="82.229416"/>
     <use style="fill:#98df8a;stroke:#ffffff;stroke-linejoin:miter;stroke-width:0.75;" x="240.807206" xlink:href="#m2998c0989d" y="82.229416"/>
     <use style="fill:#98df8a;stroke:#ffffff;stroke-linejoin:miter;stroke-width:0.75;" x="244.374838" xlink:href="#m2998c0989d" y="82.229416"/>
     <use style="fill:#98df8a;stroke:#ffffff;stroke-linejoin:miter;stroke-width:0.75;" x="247.942471" xlink:href="#m2998c0989d" y="82.010682"/>
     <use style="fill:#98df8a;stroke:#ffffff;stroke-linejoin:miter;stroke-width:0.75;" x="251.510103" xlink:href="#m2998c0989d" y="82.010682"/>
     <use style="fill:#98df8a;stroke:#ffffff;stroke-linejoin:miter;stroke-width:0.75;" x="255.077735" xlink:href="#m2998c0989d" y="81.748201"/>
     <use style="fill:#98df8a;stroke:#ffffff;stroke-linejoin:miter;stroke-width:0.75;" x="258.645368" xlink:href="#m2998c0989d" y="81.748201"/>
     <use style="fill:#98df8a;stroke:#ffffff;stroke-linejoin:miter;stroke-width:0.75;" x="262.213" xlink:href="#m2998c0989d" y="81.748201"/>
     <use style="fill:#98df8a;stroke:#ffffff;stroke-linejoin:miter;stroke-width:0.75;" x="265.780632" xlink:href="#m2998c0989d" y="81.704454"/>
     <use style="fill:#98df8a;stroke:#ffffff;stroke-linejoin:miter;stroke-width:0.75;" x="269.348265" xlink:href="#m2998c0989d" y="81.704454"/>
     <use style="fill:#98df8a;stroke:#ffffff;stroke-linejoin:miter;stroke-width:0.75;" x="272.915897" xlink:href="#m2998c0989d" y="81.573214"/>
     <use style="fill:#98df8a;stroke:#ffffff;stroke-linejoin:miter;stroke-width:0.75;" x="276.48353" xlink:href="#m2998c0989d" y="81.135745"/>
     <use style="fill:#98df8a;stroke:#ffffff;stroke-linejoin:miter;stroke-width:0.75;" x="280.051162" xlink:href="#m2998c0989d" y="81.135745"/>
     <use style="fill:#98df8a;stroke:#ffffff;stroke-linejoin:miter;stroke-width:0.75;" x="283.618794" xlink:href="#m2998c0989d" y="81.048252"/>
     <use style="fill:#98df8a;stroke:#ffffff;stroke-linejoin:miter;stroke-width:0.75;" x="287.186427" xlink:href="#m2998c0989d" y="77.023543"/>
     <use style="fill:#98df8a;stroke:#ffffff;stroke-linejoin:miter;stroke-width:0.75;" x="290.754059" xlink:href="#m2998c0989d" y="76.761062"/>
     <use style="fill:#98df8a;stroke:#ffffff;stroke-linejoin:miter;stroke-width:0.75;" x="294.321691" xlink:href="#m2998c0989d" y="76.673568"/>
     <use style="fill:#98df8a;stroke:#ffffff;stroke-linejoin:miter;stroke-width:0.75;" x="297.889324" xlink:href="#m2998c0989d" y="76.673568"/>
     <use style="fill:#98df8a;stroke:#ffffff;stroke-linejoin:miter;stroke-width:0.75;" x="301.456956" xlink:href="#m2998c0989d" y="76.673568"/>
     <use style="fill:#98df8a;stroke:#ffffff;stroke-linejoin:miter;stroke-width:0.75;" x="305.024589" xlink:href="#m2998c0989d" y="76.673568"/>
     <use style="fill:#98df8a;stroke:#ffffff;stroke-linejoin:miter;stroke-width:0.75;" x="308.592221" xlink:href="#m2998c0989d" y="74.267492"/>
     <use style="fill:#98df8a;stroke:#ffffff;stroke-linejoin:miter;stroke-width:0.75;" x="312.159853" xlink:href="#m2998c0989d" y="74.267492"/>
     <use style="fill:#98df8a;stroke:#ffffff;stroke-linejoin:miter;stroke-width:0.75;" x="315.727486" xlink:href="#m2998c0989d" y="74.267492"/>
     <use style="fill:#98df8a;stroke:#ffffff;stroke-linejoin:miter;stroke-width:0.75;" x="319.295118" xlink:href="#m2998c0989d" y="74.267492"/>
     <use style="fill:#98df8a;stroke:#ffffff;stroke-linejoin:miter;stroke-width:0.75;" x="322.86275" xlink:href="#m2998c0989d" y="75.53615"/>
     <use style="fill:#98df8a;stroke:#ffffff;stroke-linejoin:miter;stroke-width:0.75;" x="326.430383" xlink:href="#m2998c0989d" y="75.53615"/>
     <use style="fill:#98df8a;stroke:#ffffff;stroke-linejoin:miter;stroke-width:0.75;" x="329.998015" xlink:href="#m2998c0989d" y="75.53615"/>
     <use style="fill:#98df8a;stroke:#ffffff;stroke-linejoin:miter;stroke-width:0.75;" x="333.565647" xlink:href="#m2998c0989d" y="67.049264"/>
     <use style="fill:#98df8a;stroke:#ffffff;stroke-linejoin:miter;stroke-width:0.75;" x="337.13328" xlink:href="#m2998c0989d" y="67.049264"/>
     <use style="fill:#98df8a;stroke:#ffffff;stroke-linejoin:miter;stroke-width:0.75;" x="340.700912" xlink:href="#m2998c0989d" y="67.049264"/>
     <use style="fill:#98df8a;stroke:#ffffff;stroke-linejoin:miter;stroke-width:0.75;" x="344.268545" xlink:href="#m2998c0989d" y="67.005517"/>
     <use style="fill:#98df8a;stroke:#ffffff;stroke-linejoin:miter;stroke-width:0.75;" x="347.836177" xlink:href="#m2998c0989d" y="67.005517"/>
     <use style="fill:#98df8a;stroke:#ffffff;stroke-linejoin:miter;stroke-width:0.75;" x="351.403809" xlink:href="#m2998c0989d" y="67.005517"/>
     <use style="fill:#98df8a;stroke:#ffffff;stroke-linejoin:miter;stroke-width:0.75;" x="354.971442" xlink:href="#m2998c0989d" y="66.874277"/>
     <use style="fill:#98df8a;stroke:#ffffff;stroke-linejoin:miter;stroke-width:0.75;" x="358.539074" xlink:href="#m2998c0989d" y="66.874277"/>
     <use style="fill:#98df8a;stroke:#ffffff;stroke-linejoin:miter;stroke-width:0.75;" x="362.106706" xlink:href="#m2998c0989d" y="66.874277"/>
     <use style="fill:#98df8a;stroke:#ffffff;stroke-linejoin:miter;stroke-width:0.75;" x="365.674339" xlink:href="#m2998c0989d" y="66.874277"/>
     <use style="fill:#98df8a;stroke:#ffffff;stroke-linejoin:miter;stroke-width:0.75;" x="369.241971" xlink:href="#m2998c0989d" y="66.874277"/>
     <use style="fill:#98df8a;stroke:#ffffff;stroke-linejoin:miter;stroke-width:0.75;" x="372.809604" xlink:href="#m2998c0989d" y="66.874277"/>
     <use style="fill:#98df8a;stroke:#ffffff;stroke-linejoin:miter;stroke-width:0.75;" x="376.377236" xlink:href="#m2998c0989d" y="66.83053"/>
     <use style="fill:#98df8a;stroke:#ffffff;stroke-linejoin:miter;stroke-width:0.75;" x="379.944868" xlink:href="#m2998c0989d" y="66.83053"/>
     <use style="fill:#98df8a;stroke:#ffffff;stroke-linejoin:miter;stroke-width:0.75;" x="383.512501" xlink:href="#m2998c0989d" y="59.743543"/>
     <use style="fill:#98df8a;stroke:#ffffff;stroke-linejoin:miter;stroke-width:0.75;" x="387.080133" xlink:href="#m2998c0989d" y="59.743543"/>
     <use style="fill:#98df8a;stroke:#ffffff;stroke-linejoin:miter;stroke-width:0.75;" x="390.647765" xlink:href="#m2998c0989d" y="59.743543"/>
     <use style="fill:#98df8a;stroke:#ffffff;stroke-linejoin:miter;stroke-width:0.75;" x="394.215398" xlink:href="#m2998c0989d" y="59.656049"/>
    </g>
   </g>
   <g id="line2d_15">
    <path clip-path="url(#pee0f362156)" d="M 69.560852 186.609366 
L 73.128485 166.748302 
L 76.696117 158.786378 
L 80.263749 154.06172 
L 83.831382 146.274783 
L 87.399014 144.65615 
L 90.966646 137.000454 
L 94.534279 136.737973 
L 98.101911 134.463138 
L 101.669544 134.463138 
L 105.237176 133.238226 
L 108.804808 128.251087 
L 112.372441 130.438429 
L 115.940073 129.519745 
L 119.507705 132.013315 
L 123.075338 132.013315 
L 126.64297 132.013315 
L 130.210603 125.45129 
L 133.778235 124.007644 
L 137.345867 122.432758 
L 140.9135 122.826479 
L 144.481132 122.826479 
L 148.048764 123.08896 
L 151.616397 122.870226 
L 155.184029 122.870226 
L 158.751661 122.870226 
L 162.319294 123.001467 
L 165.886926 122.651492 
L 169.454559 122.301517 
L 173.022191 122.301517 
L 176.589823 119.939188 
L 180.157456 115.127036 
L 183.725088 111.62729 
L 187.29272 110.139897 
L 190.860353 119.064252 
L 194.427985 116.789416 
L 197.995618 116.789416 
L 201.56325 112.764707 
L 205.130882 109.96491 
L 208.698515 103.009163 
L 212.266147 100.953062 
L 215.833779 109.527441 
L 219.401412 112.764707 
L 222.969044 115.170783 
L 226.536676 112.327239 
L 230.104309 111.014834 
L 233.671941 110.09615 
L 237.239574 109.26496 
L 240.807206 109.26496 
L 244.374838 109.26496 
L 247.942471 110.052403 
L 251.510103 110.052403 
L 255.077735 110.052403 
L 258.645368 108.827492 
L 262.213 108.827492 
L 265.780632 88.091492 
L 269.348265 97.365821 
L 272.915897 107.427593 
L 276.48353 107.427593 
L 280.051162 107.427593 
L 283.618794 107.121366 
L 287.186427 107.077619 
L 290.754059 107.077619 
L 294.321691 106.771391 
L 297.889324 106.64015 
L 301.456956 93.909821 
L 305.024589 93.691087 
L 308.592221 93.691087 
L 312.159853 106.115188 
L 315.727486 106.902631 
L 319.295118 106.902631 
L 322.86275 97.672049 
L 326.430383 91.066277 
L 329.998015 91.066277 
L 333.565647 90.978783 
L 337.13328 97.628302 
L 340.700912 90.978783 
L 344.268545 97.628302 
L 347.836177 78.99215 
L 351.403809 89.972606 
L 354.971442 104.277821 
L 358.539074 104.277821 
L 362.106706 89.447644 
L 365.674339 74.617467 
L 369.241971 74.617467 
L 372.809604 87.654024 
L 376.377236 100.690581 
L 379.944868 100.603087 
L 383.512501 104.102834 
L 387.080133 89.36015 
L 390.647765 74.617467 
L 394.215398 89.141416 
" style="fill:none;stroke:#1f77b4;stroke-linecap:square;stroke-width:1.5;"/>
    <defs>
     <path d="M 0 3 
C 0.795609 3 1.55874 2.683901 2.12132 2.12132 
C 2.683901 1.55874 3 0.795609 3 0 
C 3 -0.795609 2.683901 -1.55874 2.12132 -2.12132 
C 1.55874 -2.683901 0.795609 -3 0 -3 
C -0.795609 -3 -1.55874 -2.683901 -2.12132 -2.12132 
C -2.683901 -1.55874 -3 -0.795609 -3 0 
C -3 0.795609 -2.683901 1.55874 -2.12132 2.12132 
C -1.55874 2.683901 -0.795609 3 0 3 
z
" id="mc10680cfd8" style="stroke:#ffffff;stroke-width:0.75;"/>
    </defs>
    <g clip-path="url(#pee0f362156)">
     <use style="fill:#1f77b4;stroke:#ffffff;stroke-width:0.75;" x="69.560852" xlink:href="#mc10680cfd8" y="186.609366"/>
     <use style="fill:#1f77b4;stroke:#ffffff;stroke-width:0.75;" x="73.128485" xlink:href="#mc10680cfd8" y="166.748302"/>
     <use style="fill:#1f77b4;stroke:#ffffff;stroke-width:0.75;" x="76.696117" xlink:href="#mc10680cfd8" y="158.786378"/>
     <use style="fill:#1f77b4;stroke:#ffffff;stroke-width:0.75;" x="80.263749" xlink:href="#mc10680cfd8" y="154.06172"/>
     <use style="fill:#1f77b4;stroke:#ffffff;stroke-width:0.75;" x="83.831382" xlink:href="#mc10680cfd8" y="146.274783"/>
     <use style="fill:#1f77b4;stroke:#ffffff;stroke-width:0.75;" x="87.399014" xlink:href="#mc10680cfd8" y="144.65615"/>
     <use style="fill:#1f77b4;stroke:#ffffff;stroke-width:0.75;" x="90.966646" xlink:href="#mc10680cfd8" y="137.000454"/>
     <use style="fill:#1f77b4;stroke:#ffffff;stroke-width:0.75;" x="94.534279" xlink:href="#mc10680cfd8" y="136.737973"/>
     <use style="fill:#1f77b4;stroke:#ffffff;stroke-width:0.75;" x="98.101911" xlink:href="#mc10680cfd8" y="134.463138"/>
     <use style="fill:#1f77b4;stroke:#ffffff;stroke-width:0.75;" x="101.669544" xlink:href="#mc10680cfd8" y="134.463138"/>
     <use style="fill:#1f77b4;stroke:#ffffff;stroke-width:0.75;" x="105.237176" xlink:href="#mc10680cfd8" y="133.238226"/>
     <use style="fill:#1f77b4;stroke:#ffffff;stroke-width:0.75;" x="108.804808" xlink:href="#mc10680cfd8" y="128.251087"/>
     <use style="fill:#1f77b4;stroke:#ffffff;stroke-width:0.75;" x="112.372441" xlink:href="#mc10680cfd8" y="130.438429"/>
     <use style="fill:#1f77b4;stroke:#ffffff;stroke-width:0.75;" x="115.940073" xlink:href="#mc10680cfd8" y="129.519745"/>
     <use style="fill:#1f77b4;stroke:#ffffff;stroke-width:0.75;" x="119.507705" xlink:href="#mc10680cfd8" y="132.013315"/>
     <use style="fill:#1f77b4;stroke:#ffffff;stroke-width:0.75;" x="123.075338" xlink:href="#mc10680cfd8" y="132.013315"/>
     <use style="fill:#1f77b4;stroke:#ffffff;stroke-width:0.75;" x="126.64297" xlink:href="#mc10680cfd8" y="132.013315"/>
     <use style="fill:#1f77b4;stroke:#ffffff;stroke-width:0.75;" x="130.210603" xlink:href="#mc10680cfd8" y="125.45129"/>
     <use style="fill:#1f77b4;stroke:#ffffff;stroke-width:0.75;" x="133.778235" xlink:href="#mc10680cfd8" y="124.007644"/>
     <use style="fill:#1f77b4;stroke:#ffffff;stroke-width:0.75;" x="137.345867" xlink:href="#mc10680cfd8" y="122.432758"/>
     <use style="fill:#1f77b4;stroke:#ffffff;stroke-width:0.75;" x="140.9135" xlink:href="#mc10680cfd8" y="122.826479"/>
     <use style="fill:#1f77b4;stroke:#ffffff;stroke-width:0.75;" x="144.481132" xlink:href="#mc10680cfd8" y="122.826479"/>
     <use style="fill:#1f77b4;stroke:#ffffff;stroke-width:0.75;" x="148.048764" xlink:href="#mc10680cfd8" y="123.08896"/>
     <use style="fill:#1f77b4;stroke:#ffffff;stroke-width:0.75;" x="151.616397" xlink:href="#mc10680cfd8" y="122.870226"/>
     <use style="fill:#1f77b4;stroke:#ffffff;stroke-width:0.75;" x="155.184029" xlink:href="#mc10680cfd8" y="122.870226"/>
     <use style="fill:#1f77b4;stroke:#ffffff;stroke-width:0.75;" x="158.751661" xlink:href="#mc10680cfd8" y="122.870226"/>
     <use style="fill:#1f77b4;stroke:#ffffff;stroke-width:0.75;" x="162.319294" xlink:href="#mc10680cfd8" y="123.001467"/>
     <use style="fill:#1f77b4;stroke:#ffffff;stroke-width:0.75;" x="165.886926" xlink:href="#mc10680cfd8" y="122.651492"/>
     <use style="fill:#1f77b4;stroke:#ffffff;stroke-width:0.75;" x="169.454559" xlink:href="#mc10680cfd8" y="122.301517"/>
     <use style="fill:#1f77b4;stroke:#ffffff;stroke-width:0.75;" x="173.022191" xlink:href="#mc10680cfd8" y="122.301517"/>
     <use style="fill:#1f77b4;stroke:#ffffff;stroke-width:0.75;" x="176.589823" xlink:href="#mc10680cfd8" y="119.939188"/>
     <use style="fill:#1f77b4;stroke:#ffffff;stroke-width:0.75;" x="180.157456" xlink:href="#mc10680cfd8" y="115.127036"/>
     <use style="fill:#1f77b4;stroke:#ffffff;stroke-width:0.75;" x="183.725088" xlink:href="#mc10680cfd8" y="111.62729"/>
     <use style="fill:#1f77b4;stroke:#ffffff;stroke-width:0.75;" x="187.29272" xlink:href="#mc10680cfd8" y="110.139897"/>
     <use style="fill:#1f77b4;stroke:#ffffff;stroke-width:0.75;" x="190.860353" xlink:href="#mc10680cfd8" y="119.064252"/>
     <use style="fill:#1f77b4;stroke:#ffffff;stroke-width:0.75;" x="194.427985" xlink:href="#mc10680cfd8" y="116.789416"/>
     <use style="fill:#1f77b4;stroke:#ffffff;stroke-width:0.75;" x="197.995618" xlink:href="#mc10680cfd8" y="116.789416"/>
     <use style="fill:#1f77b4;stroke:#ffffff;stroke-width:0.75;" x="201.56325" xlink:href="#mc10680cfd8" y="112.764707"/>
     <use style="fill:#1f77b4;stroke:#ffffff;stroke-width:0.75;" x="205.130882" xlink:href="#mc10680cfd8" y="109.96491"/>
     <use style="fill:#1f77b4;stroke:#ffffff;stroke-width:0.75;" x="208.698515" xlink:href="#mc10680cfd8" y="103.009163"/>
     <use style="fill:#1f77b4;stroke:#ffffff;stroke-width:0.75;" x="212.266147" xlink:href="#mc10680cfd8" y="100.953062"/>
     <use style="fill:#1f77b4;stroke:#ffffff;stroke-width:0.75;" x="215.833779" xlink:href="#mc10680cfd8" y="109.527441"/>
     <use style="fill:#1f77b4;stroke:#ffffff;stroke-width:0.75;" x="219.401412" xlink:href="#mc10680cfd8" y="112.764707"/>
     <use style="fill:#1f77b4;stroke:#ffffff;stroke-width:0.75;" x="222.969044" xlink:href="#mc10680cfd8" y="115.170783"/>
     <use style="fill:#1f77b4;stroke:#ffffff;stroke-width:0.75;" x="226.536676" xlink:href="#mc10680cfd8" y="112.327239"/>
     <use style="fill:#1f77b4;stroke:#ffffff;stroke-width:0.75;" x="230.104309" xlink:href="#mc10680cfd8" y="111.014834"/>
     <use style="fill:#1f77b4;stroke:#ffffff;stroke-width:0.75;" x="233.671941" xlink:href="#mc10680cfd8" y="110.09615"/>
     <use style="fill:#1f77b4;stroke:#ffffff;stroke-width:0.75;" x="237.239574" xlink:href="#mc10680cfd8" y="109.26496"/>
     <use style="fill:#1f77b4;stroke:#ffffff;stroke-width:0.75;" x="240.807206" xlink:href="#mc10680cfd8" y="109.26496"/>
     <use style="fill:#1f77b4;stroke:#ffffff;stroke-width:0.75;" x="244.374838" xlink:href="#mc10680cfd8" y="109.26496"/>
     <use style="fill:#1f77b4;stroke:#ffffff;stroke-width:0.75;" x="247.942471" xlink:href="#mc10680cfd8" y="110.052403"/>
     <use style="fill:#1f77b4;stroke:#ffffff;stroke-width:0.75;" x="251.510103" xlink:href="#mc10680cfd8" y="110.052403"/>
     <use style="fill:#1f77b4;stroke:#ffffff;stroke-width:0.75;" x="255.077735" xlink:href="#mc10680cfd8" y="110.052403"/>
     <use style="fill:#1f77b4;stroke:#ffffff;stroke-width:0.75;" x="258.645368" xlink:href="#mc10680cfd8" y="108.827492"/>
     <use style="fill:#1f77b4;stroke:#ffffff;stroke-width:0.75;" x="262.213" xlink:href="#mc10680cfd8" y="108.827492"/>
     <use style="fill:#1f77b4;stroke:#ffffff;stroke-width:0.75;" x="265.780632" xlink:href="#mc10680cfd8" y="88.091492"/>
     <use style="fill:#1f77b4;stroke:#ffffff;stroke-width:0.75;" x="269.348265" xlink:href="#mc10680cfd8" y="97.365821"/>
     <use style="fill:#1f77b4;stroke:#ffffff;stroke-width:0.75;" x="272.915897" xlink:href="#mc10680cfd8" y="107.427593"/>
     <use style="fill:#1f77b4;stroke:#ffffff;stroke-width:0.75;" x="276.48353" xlink:href="#mc10680cfd8" y="107.427593"/>
     <use style="fill:#1f77b4;stroke:#ffffff;stroke-width:0.75;" x="280.051162" xlink:href="#mc10680cfd8" y="107.427593"/>
     <use style="fill:#1f77b4;stroke:#ffffff;stroke-width:0.75;" x="283.618794" xlink:href="#mc10680cfd8" y="107.121366"/>
     <use style="fill:#1f77b4;stroke:#ffffff;stroke-width:0.75;" x="287.186427" xlink:href="#mc10680cfd8" y="107.077619"/>
     <use style="fill:#1f77b4;stroke:#ffffff;stroke-width:0.75;" x="290.754059" xlink:href="#mc10680cfd8" y="107.077619"/>
     <use style="fill:#1f77b4;stroke:#ffffff;stroke-width:0.75;" x="294.321691" xlink:href="#mc10680cfd8" y="106.771391"/>
     <use style="fill:#1f77b4;stroke:#ffffff;stroke-width:0.75;" x="297.889324" xlink:href="#mc10680cfd8" y="106.64015"/>
     <use style="fill:#1f77b4;stroke:#ffffff;stroke-width:0.75;" x="301.456956" xlink:href="#mc10680cfd8" y="93.909821"/>
     <use style="fill:#1f77b4;stroke:#ffffff;stroke-width:0.75;" x="305.024589" xlink:href="#mc10680cfd8" y="93.691087"/>
     <use style="fill:#1f77b4;stroke:#ffffff;stroke-width:0.75;" x="308.592221" xlink:href="#mc10680cfd8" y="93.691087"/>
     <use style="fill:#1f77b4;stroke:#ffffff;stroke-width:0.75;" x="312.159853" xlink:href="#mc10680cfd8" y="106.115188"/>
     <use style="fill:#1f77b4;stroke:#ffffff;stroke-width:0.75;" x="315.727486" xlink:href="#mc10680cfd8" y="106.902631"/>
     <use style="fill:#1f77b4;stroke:#ffffff;stroke-width:0.75;" x="319.295118" xlink:href="#mc10680cfd8" y="106.902631"/>
     <use style="fill:#1f77b4;stroke:#ffffff;stroke-width:0.75;" x="322.86275" xlink:href="#mc10680cfd8" y="97.672049"/>
     <use style="fill:#1f77b4;stroke:#ffffff;stroke-width:0.75;" x="326.430383" xlink:href="#mc10680cfd8" y="91.066277"/>
     <use style="fill:#1f77b4;stroke:#ffffff;stroke-width:0.75;" x="329.998015" xlink:href="#mc10680cfd8" y="91.066277"/>
     <use style="fill:#1f77b4;stroke:#ffffff;stroke-width:0.75;" x="333.565647" xlink:href="#mc10680cfd8" y="90.978783"/>
     <use style="fill:#1f77b4;stroke:#ffffff;stroke-width:0.75;" x="337.13328" xlink:href="#mc10680cfd8" y="97.628302"/>
     <use style="fill:#1f77b4;stroke:#ffffff;stroke-width:0.75;" x="340.700912" xlink:href="#mc10680cfd8" y="90.978783"/>
     <use style="fill:#1f77b4;stroke:#ffffff;stroke-width:0.75;" x="344.268545" xlink:href="#mc10680cfd8" y="97.628302"/>
     <use style="fill:#1f77b4;stroke:#ffffff;stroke-width:0.75;" x="347.836177" xlink:href="#mc10680cfd8" y="78.99215"/>
     <use style="fill:#1f77b4;stroke:#ffffff;stroke-width:0.75;" x="351.403809" xlink:href="#mc10680cfd8" y="89.972606"/>
     <use style="fill:#1f77b4;stroke:#ffffff;stroke-width:0.75;" x="354.971442" xlink:href="#mc10680cfd8" y="104.277821"/>
     <use style="fill:#1f77b4;stroke:#ffffff;stroke-width:0.75;" x="358.539074" xlink:href="#mc10680cfd8" y="104.277821"/>
     <use style="fill:#1f77b4;stroke:#ffffff;stroke-width:0.75;" x="362.106706" xlink:href="#mc10680cfd8" y="89.447644"/>
     <use style="fill:#1f77b4;stroke:#ffffff;stroke-width:0.75;" x="365.674339" xlink:href="#mc10680cfd8" y="74.617467"/>
     <use style="fill:#1f77b4;stroke:#ffffff;stroke-width:0.75;" x="369.241971" xlink:href="#mc10680cfd8" y="74.617467"/>
     <use style="fill:#1f77b4;stroke:#ffffff;stroke-width:0.75;" x="372.809604" xlink:href="#mc10680cfd8" y="87.654024"/>
     <use style="fill:#1f77b4;stroke:#ffffff;stroke-width:0.75;" x="376.377236" xlink:href="#mc10680cfd8" y="100.690581"/>
     <use style="fill:#1f77b4;stroke:#ffffff;stroke-width:0.75;" x="379.944868" xlink:href="#mc10680cfd8" y="100.603087"/>
     <use style="fill:#1f77b4;stroke:#ffffff;stroke-width:0.75;" x="383.512501" xlink:href="#mc10680cfd8" y="104.102834"/>
     <use style="fill:#1f77b4;stroke:#ffffff;stroke-width:0.75;" x="387.080133" xlink:href="#mc10680cfd8" y="89.36015"/>
     <use style="fill:#1f77b4;stroke:#ffffff;stroke-width:0.75;" x="390.647765" xlink:href="#mc10680cfd8" y="74.617467"/>
     <use style="fill:#1f77b4;stroke:#ffffff;stroke-width:0.75;" x="394.215398" xlink:href="#mc10680cfd8" y="89.141416"/>
    </g>
   </g>
   <g id="line2d_16"/>
   <g id="line2d_17"/>
   <g id="line2d_18"/>
   <g id="patch_3">
    <path d="M 53.328125 278.127745 
L 53.328125 59.393568 
" style="fill:none;stroke:#000000;stroke-linecap:square;stroke-linejoin:miter;stroke-width:0.8;"/>
   </g>
   <g id="patch_4">
    <path d="M 69.560852 288.430125 
L 343.079334 288.430125 
" style="fill:none;stroke:#000000;stroke-linecap:square;stroke-linejoin:miter;stroke-width:0.8;"/>
   </g>
   <g id="text_15">
    <!-- libarchive_libarchive_fuzzer (23h, 12 trials/fuzzer) -->
    <g transform="translate(82.461875 16.318125)scale(0.12 -0.12)">
     <defs>
      <path d="M 603 4863 
L 1178 4863 
L 1178 0 
L 603 0 
L 603 4863 
z
" id="DejaVuSans-6c" transform="scale(0.015625)"/>
      <path d="M 3116 1747 
Q 3116 2381 2855 2742 
Q 2594 3103 2138 3103 
Q 1681 3103 1420 2742 
Q 1159 2381 1159 1747 
Q 1159 1113 1420 752 
Q 1681 391 2138 391 
Q 2594 391 2855 752 
Q 3116 1113 3116 1747 
z
M 1159 2969 
Q 1341 3281 1617 3432 
Q 1894 3584 2278 3584 
Q 2916 3584 3314 3078 
Q 3713 2572 3713 1747 
Q 3713 922 3314 415 
Q 2916 -91 2278 -91 
Q 1894 -91 1617 61 
Q 1341 213 1159 525 
L 1159 0 
L 581 0 
L 581 4863 
L 1159 4863 
L 1159 2969 
z
" id="DejaVuSans-62" transform="scale(0.015625)"/>
      <path d="M 3263 -1063 
L 3263 -1509 
L -63 -1509 
L -63 -1063 
L 3263 -1063 
z
" id="DejaVuSans-5f" transform="scale(0.015625)"/>
      <path d="M 2375 4863 
L 2375 4384 
L 1825 4384 
Q 1516 4384 1395 4259 
Q 1275 4134 1275 3809 
L 1275 3500 
L 2222 3500 
L 2222 3053 
L 1275 3053 
L 1275 0 
L 697 0 
L 697 3053 
L 147 3053 
L 147 3500 
L 697 3500 
L 697 3744 
Q 697 4328 969 4595 
Q 1241 4863 1831 4863 
L 2375 4863 
z
" id="DejaVuSans-66" transform="scale(0.015625)"/>
      <path d="M 353 3500 
L 3084 3500 
L 3084 2975 
L 922 459 
L 3084 459 
L 3084 0 
L 275 0 
L 275 525 
L 2438 3041 
L 353 3041 
L 353 3500 
z
" id="DejaVuSans-7a" transform="scale(0.015625)"/>
      <path d="M 750 794 
L 1409 794 
L 1409 256 
L 897 -744 
L 494 -744 
L 750 256 
L 750 794 
z
" id="DejaVuSans-2c" transform="scale(0.015625)"/>
      <path d="M 2834 3397 
L 2834 2853 
Q 2591 2978 2328 3040 
Q 2066 3103 1784 3103 
Q 1356 3103 1142 2972 
Q 928 2841 928 2578 
Q 928 2378 1081 2264 
Q 1234 2150 1697 2047 
L 1894 2003 
Q 2506 1872 2764 1633 
Q 3022 1394 3022 966 
Q 3022 478 2636 193 
Q 2250 -91 1575 -91 
Q 1294 -91 989 -36 
Q 684 19 347 128 
L 347 722 
Q 666 556 975 473 
Q 1284 391 1588 391 
Q 1994 391 2212 530 
Q 2431 669 2431 922 
Q 2431 1156 2273 1281 
Q 2116 1406 1581 1522 
L 1381 1569 
Q 847 1681 609 1914 
Q 372 2147 372 2553 
Q 372 3047 722 3315 
Q 1072 3584 1716 3584 
Q 2034 3584 2315 3537 
Q 2597 3491 2834 3397 
z
" id="DejaVuSans-73" transform="scale(0.015625)"/>
      <path d="M 1625 4666 
L 2156 4666 
L 531 -594 
L 0 -594 
L 1625 4666 
z
" id="DejaVuSans-2f" transform="scale(0.015625)"/>
     </defs>
     <use xlink:href="#DejaVuSans-6c"/>
     <use x="27.783203" xlink:href="#DejaVuSans-69"/>
     <use x="55.566406" xlink:href="#DejaVuSans-62"/>
     <use x="119.042969" xlink:href="#DejaVuSans-61"/>
     <use x="180.322266" xlink:href="#DejaVuSans-72"/>
     <use x="219.185547" xlink:href="#DejaVuSans-63"/>
     <use x="274.166016" xlink:href="#DejaVuSans-68"/>
     <use x="337.544922" xlink:href="#DejaVuSans-69"/>
     <use x="365.328125" xlink:href="#DejaVuSans-76"/>
     <use x="424.507812" xlink:href="#DejaVuSans-65"/>
     <use x="486.03125" xlink:href="#DejaVuSans-5f"/>
     <use x="536.03125" xlink:href="#DejaVuSans-6c"/>
     <use x="563.814453" xlink:href="#DejaVuSans-69"/>
     <use x="591.597656" xlink:href="#DejaVuSans-62"/>
     <use x="655.074219" xlink:href="#DejaVuSans-61"/>
     <use x="716.353516" xlink:href="#DejaVuSans-72"/>
     <use x="755.216797" xlink:href="#DejaVuSans-63"/>
     <use x="810.197266" xlink:href="#DejaVuSans-68"/>
     <use x="873.576172" xlink:href="#DejaVuSans-69"/>
     <use x="901.359375" xlink:href="#DejaVuSans-76"/>
     <use x="960.539062" xlink:href="#DejaVuSans-65"/>
     <use x="1022.0625" xlink:href="#DejaVuSans-5f"/>
     <use x="1072.0625" xlink:href="#DejaVuSans-66"/>
     <use x="1107.267578" xlink:href="#DejaVuSans-75"/>
     <use x="1170.646484" xlink:href="#DejaVuSans-7a"/>
     <use x="1223.136719" xlink:href="#DejaVuSans-7a"/>
     <use x="1275.626953" xlink:href="#DejaVuSans-65"/>
     <use x="1337.150391" xlink:href="#DejaVuSans-72"/>
     <use x="1378.263672" xlink:href="#DejaVuSans-20"/>
     <use x="1410.050781" xlink:href="#DejaVuSans-28"/>
     <use x="1449.064453" xlink:href="#DejaVuSans-32"/>
     <use x="1512.6875" xlink:href="#DejaVuSans-33"/>
     <use x="1576.310547" xlink:href="#DejaVuSans-68"/>
     <use x="1639.689453" xlink:href="#DejaVuSans-2c"/>
     <use x="1671.476562" xlink:href="#DejaVuSans-20"/>
     <use x="1703.263672" xlink:href="#DejaVuSans-31"/>
     <use x="1766.886719" xlink:href="#DejaVuSans-32"/>
     <use x="1830.509766" xlink:href="#DejaVuSans-20"/>
     <use x="1862.296875" xlink:href="#DejaVuSans-74"/>
     <use x="1901.505859" xlink:href="#DejaVuSans-72"/>
     <use x="1942.619141" xlink:href="#DejaVuSans-69"/>
     <use x="1970.402344" xlink:href="#DejaVuSans-61"/>
     <use x="2031.681641" xlink:href="#DejaVuSans-6c"/>
     <use x="2059.464844" xlink:href="#DejaVuSans-73"/>
     <use x="2111.564453" xlink:href="#DejaVuSans-2f"/>
     <use x="2145.255859" xlink:href="#DejaVuSans-66"/>
     <use x="2180.460938" xlink:href="#DejaVuSans-75"/>
     <use x="2243.839844" xlink:href="#DejaVuSans-7a"/>
     <use x="2296.330078" xlink:href="#DejaVuSans-7a"/>
     <use x="2348.820312" xlink:href="#DejaVuSans-65"/>
     <use x="2410.34375" xlink:href="#DejaVuSans-72"/>
     <use x="2451.457031" xlink:href="#DejaVuSans-29"/>
    </g>
   </g>
   <g id="legend_1">
    <g id="line2d_19">
     <path d="M 414.448125 30.416562 
L 434.448125 30.416562 
" style="fill:none;stroke:#d62728;stroke-linecap:square;stroke-width:1.5;"/>
    </g>
    <g id="line2d_20">
     <defs>
      <path d="M 0 -3 
L -3 3 
L 3 3 
z
" id="m79afc0b246" style="stroke:#d62728;stroke-linejoin:miter;"/>
     </defs>
     <g>
      <use style="fill:#d62728;stroke:#d62728;stroke-linejoin:miter;" x="424.448125" xlink:href="#m79afc0b246" y="30.416562"/>
     </g>
    </g>
    <g id="text_16">
     <!-- afl_no_favored -->
     <g transform="translate(442.448125 33.916562)scale(0.1 -0.1)">
      <use xlink:href="#DejaVuSans-61"/>
      <use x="61.279297" xlink:href="#DejaVuSans-66"/>
      <use x="96.484375" xlink:href="#DejaVuSans-6c"/>
      <use x="124.267578" xlink:href="#DejaVuSans-5f"/>
      <use x="174.267578" xlink:href="#DejaVuSans-6e"/>
      <use x="237.646484" xlink:href="#DejaVuSans-6f"/>
      <use x="298.828125" xlink:href="#DejaVuSans-5f"/>
      <use x="348.828125" xlink:href="#DejaVuSans-66"/>
      <use x="384.033203" xlink:href="#DejaVuSans-61"/>
      <use x="445.3125" xlink:href="#DejaVuSans-76"/>
      <use x="504.492188" xlink:href="#DejaVuSans-6f"/>
      <use x="565.673828" xlink:href="#DejaVuSans-72"/>
      <use x="604.537109" xlink:href="#DejaVuSans-65"/>
      <use x="666.060547" xlink:href="#DejaVuSans-64"/>
     </g>
    </g>
    <g id="line2d_21">
     <path d="M 414.448125 45.372813 
L 434.448125 45.372813 
" style="fill:none;stroke:#98df8a;stroke-linecap:square;stroke-width:1.5;"/>
    </g>
    <g id="line2d_22">
     <defs>
      <path d="M -0 3 
L 3 -3 
L -3 -3 
z
" id="m01cc6ee8d4" style="stroke:#98df8a;stroke-linejoin:miter;"/>
     </defs>
     <g>
      <use style="fill:#98df8a;stroke:#98df8a;stroke-linejoin:miter;" x="424.448125" xlink:href="#m01cc6ee8d4" y="45.372813"/>
     </g>
    </g>
    <g id="text_17">
     <!-- afl_no_favfactor -->
     <g transform="translate(442.448125 48.872813)scale(0.1 -0.1)">
      <use xlink:href="#DejaVuSans-61"/>
      <use x="61.279297" xlink:href="#DejaVuSans-66"/>
      <use x="96.484375" xlink:href="#DejaVuSans-6c"/>
      <use x="124.267578" xlink:href="#DejaVuSans-5f"/>
      <use x="174.267578" xlink:href="#DejaVuSans-6e"/>
      <use x="237.646484" xlink:href="#DejaVuSans-6f"/>
      <use x="298.828125" xlink:href="#DejaVuSans-5f"/>
      <use x="348.828125" xlink:href="#DejaVuSans-66"/>
      <use x="384.033203" xlink:href="#DejaVuSans-61"/>
      <use x="445.3125" xlink:href="#DejaVuSans-76"/>
      <use x="504.492188" xlink:href="#DejaVuSans-66"/>
      <use x="539.697266" xlink:href="#DejaVuSans-61"/>
      <use x="600.976562" xlink:href="#DejaVuSans-63"/>
      <use x="655.957031" xlink:href="#DejaVuSans-74"/>
      <use x="695.166016" xlink:href="#DejaVuSans-6f"/>
      <use x="756.347656" xlink:href="#DejaVuSans-72"/>
     </g>
    </g>
    <g id="line2d_23">
     <path d="M 414.448125 60.329063 
L 434.448125 60.329063 
" style="fill:none;stroke:#1f77b4;stroke-linecap:square;stroke-width:1.5;"/>
    </g>
    <g id="line2d_24">
     <defs>
      <path d="M 0 3 
C 0.795609 3 1.55874 2.683901 2.12132 2.12132 
C 2.683901 1.55874 3 0.795609 3 0 
C 3 -0.795609 2.683901 -1.55874 2.12132 -2.12132 
C 1.55874 -2.683901 0.795609 -3 0 -3 
C -0.795609 -3 -1.55874 -2.683901 -2.12132 -2.12132 
C -2.683901 -1.55874 -3 -0.795609 -3 0 
C -3 0.795609 -2.683901 1.55874 -2.12132 2.12132 
C -1.55874 2.683901 -0.795609 3 0 3 
z
" id="maf734ec4c6" style="stroke:#1f77b4;"/>
     </defs>
     <g>
      <use style="fill:#1f77b4;stroke:#1f77b4;" x="424.448125" xlink:href="#maf734ec4c6" y="60.329063"/>
     </g>
    </g>
    <g id="text_18">
     <!-- afl -->
     <g transform="translate(442.448125 63.829063)scale(0.1 -0.1)">
      <use xlink:href="#DejaVuSans-61"/>
      <use x="61.279297" xlink:href="#DejaVuSans-66"/>
      <use x="96.484375" xlink:href="#DejaVuSans-6c"/>
     </g>
    </g>
   </g>
  </g>
 </g>
 <defs>
  <clipPath id="pee0f362156">
   <rect height="266.112" width="357.12" x="53.328125" y="22.318125"/>
  </clipPath>
 </defs>
</svg>
