<?xml version="1.0" encoding="utf-8" standalone="no"?>
<!DOCTYPE svg PUBLIC "-//W3C//DTD SVG 1.1//EN"
  "http://www.w3.org/Graphics/SVG/1.1/DTD/svg11.dtd">
<svg height="325.986375pt" version="1.1" viewBox="0 0 533.395 325.986375" width="533.395pt" xmlns="http://www.w3.org/2000/svg" xmlns:xlink="http://www.w3.org/1999/xlink">
 <metadata>
  <rdf:RDF xmlns:cc="http://creativecommons.org/ns#" xmlns:dc="http://purl.org/dc/elements/1.1/" xmlns:rdf="http://www.w3.org/1999/02/22-rdf-syntax-ns#">
   <cc:Work>
    <dc:type rdf:resource="http://purl.org/dc/dcmitype/StillImage"/>
    <dc:date>2022-05-24T15:37:58.319362</dc:date>
    <dc:format>image/svg+xml</dc:format>
    <dc:creator>
     <cc:Agent>
      <dc:title>Matplotlib v3.4.3, https://matplotlib.org/</dc:title>
     </cc:Agent>
    </dc:creator>
   </cc:Work>
  </rdf:RDF>
 </metadata>
 <defs>
  <style type="text/css">*{stroke-linecap:butt;stroke-linejoin:round;}</style>
 </defs>
 <g id="figure_1">
  <g id="patch_1">
   <path d="M 0 325.986375 
L 533.395 325.986375 
L 533.395 0 
L 0 0 
z
" style="fill:#ffffff;"/>
  </g>
  <g id="axes_1">
   <g id="patch_2">
    <path d="M 53.328125 288.430125 
L 410.448125 288.430125 
L 410.448125 22.318125 
L 53.328125 22.318125 
z
" style="fill:#ffffff;"/>
   </g>
   <g id="PolyCollection_1">
    <defs>
     <path d="M 69.560852 -202.09499 
L 69.560852 -188.839099 
L 73.128485 -212.036908 
L 76.696117 -225.292798 
L 80.263749 -231.920743 
L 83.831382 -238.548688 
L 87.399014 -241.862661 
L 90.966646 -241.862661 
L 94.534279 -251.804579 
L 98.101911 -255.118551 
L 101.669544 -258.432524 
L 105.237176 -261.746497 
L 108.804808 -261.746497 
L 112.372441 -261.746497 
L 115.940073 -261.746497 
L 119.507705 -265.060469 
L 123.075338 -265.060469 
L 126.64297 -265.060469 
L 130.210603 -265.060469 
L 133.778235 -265.060469 
L 137.345867 -265.060469 
L 140.9135 -265.060469 
L 144.481132 -265.060469 
L 148.048764 -265.060469 
L 151.616397 -268.374442 
L 155.184029 -268.374442 
L 158.751661 -268.374442 
L 162.319294 -268.374442 
L 165.886926 -268.374442 
L 169.454559 -268.374442 
L 173.022191 -268.374442 
L 176.589823 -268.374442 
L 180.157456 -271.688414 
L 183.725088 -271.688414 
L 187.29272 -270.031428 
L 190.860353 -271.688414 
L 194.427985 -271.688414 
L 197.995618 -271.688414 
L 201.56325 -271.688414 
L 205.130882 -271.688414 
L 208.698515 -270.031428 
L 212.266147 -268.374442 
L 215.833779 -271.688414 
L 219.401412 -271.688414 
L 222.969044 -271.688414 
L 226.536676 -271.688414 
L 230.104309 -271.688414 
L 233.671941 -271.688414 
L 237.239574 -278.274935 
L 240.807206 -276.659373 
L 244.374838 -276.659373 
L 247.942471 -278.31636 
L 251.510103 -276.659373 
L 255.077735 -278.274935 
L 258.645368 -276.659373 
L 262.213 -278.31636 
L 265.780632 -278.31636 
L 269.348265 -278.31636 
L 272.915897 -278.31636 
L 276.48353 -279.973346 
L 280.051162 -278.31636 
L 283.618794 -278.31636 
L 287.186427 -279.973346 
L 290.754059 -279.973346 
L 294.321691 -279.973346 
L 297.889324 -283.287318 
L 301.456956 -283.287318 
L 305.024589 -284.944305 
L 308.592221 -283.287318 
L 312.159853 -283.287318 
L 315.727486 -283.287318 
L 319.295118 -283.287318 
L 322.86275 -284.944305 
L 326.430383 -283.287318 
L 329.998015 -283.287318 
L 333.565647 -283.287318 
L 337.13328 -286.601291 
L 340.700912 -284.944305 
L 344.268545 -286.601291 
L 347.836177 -286.601291 
L 351.403809 -286.601291 
L 354.971442 -286.601291 
L 358.539074 -286.601291 
L 362.106706 -286.601291 
L 365.674339 -286.601291 
L 369.241971 -286.601291 
L 372.809604 -284.944305 
L 376.377236 -286.601291 
L 379.944868 -286.601291 
L 383.512501 -286.601291 
L 387.080133 -284.944305 
L 390.647765 -284.944305 
L 394.215398 -286.601291 
L 394.215398 -291.57225 
L 394.215398 -291.57225 
L 390.647765 -291.57225 
L 387.080133 -291.57225 
L 383.512501 -291.57225 
L 379.944868 -291.57225 
L 376.377236 -291.57225 
L 372.809604 -291.57225 
L 369.241971 -291.57225 
L 365.674339 -291.57225 
L 362.106706 -291.57225 
L 358.539074 -291.57225 
L 354.971442 -291.57225 
L 351.403809 -291.57225 
L 347.836177 -291.57225 
L 344.268545 -291.57225 
L 340.700912 -291.57225 
L 337.13328 -291.57225 
L 333.565647 -291.57225 
L 329.998015 -291.57225 
L 326.430383 -291.57225 
L 322.86275 -291.57225 
L 319.295118 -291.57225 
L 315.727486 -291.57225 
L 312.159853 -291.57225 
L 308.592221 -291.57225 
L 305.024589 -291.57225 
L 301.456956 -291.57225 
L 297.889324 -291.57225 
L 294.321691 -289.915264 
L 290.754059 -289.915264 
L 287.186427 -289.915264 
L 283.618794 -291.57225 
L 280.051162 -291.57225 
L 276.48353 -289.915264 
L 272.915897 -289.915264 
L 269.348265 -289.915264 
L 265.780632 -289.915264 
L 262.213 -289.915264 
L 258.645368 -289.915264 
L 255.077735 -289.915264 
L 251.510103 -289.915264 
L 247.942471 -289.915264 
L 244.374838 -289.915264 
L 240.807206 -289.915264 
L 237.239574 -289.915264 
L 233.671941 -288.258277 
L 230.104309 -284.944305 
L 226.536676 -284.944305 
L 222.969044 -284.944305 
L 219.401412 -284.944305 
L 215.833779 -284.944305 
L 212.266147 -284.944305 
L 208.698515 -284.944305 
L 205.130882 -284.944305 
L 201.56325 -284.944305 
L 197.995618 -284.944305 
L 194.427985 -284.944305 
L 190.860353 -284.944305 
L 187.29272 -284.944305 
L 183.725088 -284.944305 
L 180.157456 -284.944305 
L 176.589823 -284.944305 
L 173.022191 -284.944305 
L 169.454559 -284.944305 
L 165.886926 -284.944305 
L 162.319294 -284.944305 
L 158.751661 -284.944305 
L 155.184029 -284.944305 
L 151.616397 -284.944305 
L 148.048764 -284.944305 
L 144.481132 -284.944305 
L 140.9135 -284.944305 
L 137.345867 -284.944305 
L 133.778235 -284.944305 
L 130.210603 -278.31636 
L 126.64297 -278.31636 
L 123.075338 -278.31636 
L 119.507705 -278.31636 
L 115.940073 -278.31636 
L 112.372441 -278.31636 
L 108.804808 -275.002387 
L 105.237176 -271.688414 
L 101.669544 -271.688414 
L 98.101911 -261.746497 
L 94.534279 -261.746497 
L 90.966646 -258.432524 
L 87.399014 -255.118551 
L 83.831382 -251.804579 
L 80.263749 -251.804579 
L 76.696117 -231.920743 
L 73.128485 -228.606771 
L 69.560852 -202.09499 
z
" id="m16ebb03e2f" style="stroke:#98df8a;stroke-opacity:0.2;"/>
    </defs>
    <g clip-path="url(#pa94a3e80bd)">
     <use style="fill:#98df8a;fill-opacity:0.2;stroke:#98df8a;stroke-opacity:0.2;" x="0" xlink:href="#m16ebb03e2f" y="325.986375"/>
    </g>
   </g>
   <g id="PolyCollection_2">
    <defs>
     <path d="M 69.560852 -218.664853 
L 69.560852 -185.525127 
L 73.128485 -205.408962 
L 76.696117 -208.722935 
L 80.263749 -218.664853 
L 83.831382 -231.920743 
L 87.399014 -235.234716 
L 90.966646 -238.548688 
L 94.534279 -245.176634 
L 98.101911 -245.176634 
L 101.669544 -245.176634 
L 105.237176 -246.83362 
L 108.804808 -248.490606 
L 112.372441 -256.775538 
L 115.940073 -261.746497 
L 119.507705 -265.060469 
L 123.075338 -265.060469 
L 126.64297 -265.060469 
L 130.210603 -265.060469 
L 133.778235 -265.060469 
L 137.345867 -265.060469 
L 140.9135 -265.060469 
L 144.481132 -268.374442 
L 148.048764 -270.031428 
L 151.616397 -271.688414 
L 155.184029 -275.002387 
L 158.751661 -273.345401 
L 162.319294 -274.960962 
L 165.886926 -275.002387 
L 169.454559 -275.002387 
L 173.022191 -273.345401 
L 176.589823 -274.960962 
L 180.157456 -273.345401 
L 183.725088 -273.345401 
L 187.29272 -275.002387 
L 190.860353 -275.002387 
L 194.427985 -275.002387 
L 197.995618 -276.659373 
L 201.56325 -278.31636 
L 205.130882 -278.31636 
L 208.698515 -278.31636 
L 212.266147 -278.31636 
L 215.833779 -278.31636 
L 219.401412 -278.31636 
L 222.969044 -279.973346 
L 226.536676 -279.973346 
L 230.104309 -279.973346 
L 233.671941 -279.973346 
L 237.239574 -278.31636 
L 240.807206 -279.973346 
L 244.374838 -279.973346 
L 247.942471 -278.31636 
L 251.510103 -279.973346 
L 255.077735 -279.973346 
L 258.645368 -279.973346 
L 262.213 -281.630332 
L 265.780632 -281.630332 
L 269.348265 -281.630332 
L 272.915897 -283.287318 
L 276.48353 -281.630332 
L 280.051162 -281.630332 
L 283.618794 -283.287318 
L 287.186427 -283.287318 
L 290.754059 -283.287318 
L 294.321691 -281.630332 
L 297.889324 -281.630332 
L 301.456956 -281.630332 
L 305.024589 -284.944305 
L 308.592221 -284.944305 
L 312.159853 -284.944305 
L 315.727486 -284.944305 
L 319.295118 -284.944305 
L 322.86275 -283.287318 
L 326.430383 -283.287318 
L 329.998015 -283.287318 
L 333.565647 -283.287318 
L 337.13328 -283.287318 
L 340.700912 -284.944305 
L 344.268545 -284.944305 
L 347.836177 -284.944305 
L 351.403809 -284.944305 
L 354.971442 -284.944305 
L 358.539074 -284.944305 
L 362.106706 -284.944305 
L 365.674339 -284.944305 
L 369.241971 -284.944305 
L 372.809604 -284.944305 
L 376.377236 -284.944305 
L 379.944868 -284.944305 
L 383.512501 -284.944305 
L 387.080133 -284.944305 
L 390.647765 -284.944305 
L 394.215398 -284.944305 
L 394.215398 -291.57225 
L 394.215398 -291.57225 
L 390.647765 -291.57225 
L 387.080133 -291.57225 
L 383.512501 -291.57225 
L 379.944868 -291.57225 
L 376.377236 -291.57225 
L 372.809604 -291.57225 
L 369.241971 -291.57225 
L 365.674339 -291.57225 
L 362.106706 -291.57225 
L 358.539074 -291.57225 
L 354.971442 -291.57225 
L 351.403809 -291.57225 
L 347.836177 -291.57225 
L 344.268545 -291.57225 
L 340.700912 -291.57225 
L 337.13328 -291.57225 
L 333.565647 -291.57225 
L 329.998015 -291.57225 
L 326.430383 -291.57225 
L 322.86275 -291.57225 
L 319.295118 -291.57225 
L 315.727486 -291.57225 
L 312.159853 -291.57225 
L 308.592221 -291.57225 
L 305.024589 -291.57225 
L 301.456956 -291.57225 
L 297.889324 -291.57225 
L 294.321691 -291.57225 
L 290.754059 -291.57225 
L 287.186427 -291.57225 
L 283.618794 -291.57225 
L 280.051162 -291.57225 
L 276.48353 -291.57225 
L 272.915897 -291.57225 
L 269.348265 -291.57225 
L 265.780632 -291.57225 
L 262.213 -291.57225 
L 258.645368 -291.57225 
L 255.077735 -291.57225 
L 251.510103 -291.57225 
L 247.942471 -291.57225 
L 244.374838 -291.57225 
L 240.807206 -291.57225 
L 237.239574 -291.57225 
L 233.671941 -291.57225 
L 230.104309 -291.57225 
L 226.536676 -291.57225 
L 222.969044 -291.57225 
L 219.401412 -289.915264 
L 215.833779 -289.915264 
L 212.266147 -289.915264 
L 208.698515 -289.915264 
L 205.130882 -289.915264 
L 201.56325 -289.915264 
L 197.995618 -289.915264 
L 194.427985 -289.915264 
L 190.860353 -288.258277 
L 187.29272 -288.258277 
L 183.725088 -288.258277 
L 180.157456 -288.258277 
L 176.589823 -288.258277 
L 173.022191 -288.258277 
L 169.454559 -288.258277 
L 165.886926 -288.258277 
L 162.319294 -288.258277 
L 158.751661 -288.258277 
L 155.184029 -288.258277 
L 151.616397 -288.258277 
L 148.048764 -286.601291 
L 144.481132 -286.601291 
L 140.9135 -284.944305 
L 137.345867 -284.944305 
L 133.778235 -284.944305 
L 130.210603 -284.944305 
L 126.64297 -284.944305 
L 123.075338 -278.31636 
L 119.507705 -279.973346 
L 115.940073 -279.973346 
L 112.372441 -279.973346 
L 108.804808 -278.31636 
L 105.237176 -278.357784 
L 101.669544 -279.973346 
L 98.101911 -278.31636 
L 94.534279 -271.688414 
L 90.966646 -265.060469 
L 87.399014 -263.403483 
L 83.831382 -250.147592 
L 80.263749 -245.176634 
L 76.696117 -235.234716 
L 73.128485 -228.606771 
L 69.560852 -218.664853 
z
" id="m81cb702fdf" style="stroke:#1f77b4;stroke-opacity:0.2;"/>
    </defs>
    <g clip-path="url(#pa94a3e80bd)">
     <use style="fill:#1f77b4;fill-opacity:0.2;stroke:#1f77b4;stroke-opacity:0.2;" x="0" xlink:href="#m81cb702fdf" y="325.986375"/>
    </g>
   </g>
   <g id="PolyCollection_3">
    <defs>
     <path d="M 69.560852 -69.536086 
L 69.560852 -49.65225 
L 73.128485 -155.699373 
L 76.696117 -178.897182 
L 80.263749 -215.35088 
L 83.831382 -225.292798 
L 87.399014 -231.920743 
L 90.966646 -230.263757 
L 94.534279 -231.920743 
L 98.101911 -235.193291 
L 101.669544 -235.234716 
L 105.237176 -235.234716 
L 108.804808 -238.548688 
L 112.372441 -238.548688 
L 115.940073 -240.205675 
L 119.507705 -241.862661 
L 123.075338 -241.862661 
L 126.64297 -245.176634 
L 130.210603 -250.147592 
L 133.778235 -251.804579 
L 137.345867 -258.432524 
L 140.9135 -258.432524 
L 144.481132 -258.432524 
L 148.048764 -258.432524 
L 151.616397 -258.432524 
L 155.184029 -261.746497 
L 158.751661 -268.374442 
L 162.319294 -268.374442 
L 165.886926 -265.060469 
L 169.454559 -265.060469 
L 173.022191 -268.374442 
L 176.589823 -268.374442 
L 180.157456 -268.374442 
L 183.725088 -273.345401 
L 187.29272 -275.002387 
L 190.860353 -275.002387 
L 194.427985 -275.002387 
L 197.995618 -275.002387 
L 201.56325 -276.617949 
L 205.130882 -275.002387 
L 208.698515 -278.31636 
L 212.266147 -278.31636 
L 215.833779 -278.23351 
L 219.401412 -278.31636 
L 222.969044 -278.31636 
L 226.536676 -275.002387 
L 230.104309 -275.002387 
L 233.671941 -275.002387 
L 237.239574 -275.002387 
L 240.807206 -275.002387 
L 244.374838 -278.31636 
L 247.942471 -278.31636 
L 251.510103 -275.002387 
L 255.077735 -275.002387 
L 258.645368 -275.002387 
L 262.213 -278.31636 
L 265.780632 -278.31636 
L 269.348265 -279.973346 
L 272.915897 -278.31636 
L 276.48353 -278.31636 
L 280.051162 -278.31636 
L 283.618794 -278.31636 
L 287.186427 -278.31636 
L 290.754059 -281.630332 
L 294.321691 -281.630332 
L 297.889324 -281.630332 
L 301.456956 -281.630332 
L 305.024589 -281.630332 
L 308.592221 -281.630332 
L 312.159853 -281.630332 
L 315.727486 -281.630332 
L 319.295118 -281.630332 
L 322.86275 -281.630332 
L 326.430383 -284.944305 
L 329.998015 -283.287318 
L 333.565647 -281.630332 
L 337.13328 -281.630332 
L 340.700912 -281.630332 
L 344.268545 -281.630332 
L 347.836177 -281.630332 
L 351.403809 -284.944305 
L 354.971442 -284.944305 
L 358.539074 -284.944305 
L 362.106706 -284.944305 
L 365.674339 -284.944305 
L 369.241971 -284.944305 
L 372.809604 -283.287318 
L 376.377236 -284.944305 
L 379.944868 -284.944305 
L 383.512501 -284.944305 
L 387.080133 -284.944305 
L 390.647765 -284.944305 
L 394.215398 -283.287318 
L 394.215398 -288.258277 
L 394.215398 -288.258277 
L 390.647765 -288.258277 
L 387.080133 -288.258277 
L 383.512501 -289.915264 
L 379.944868 -288.258277 
L 376.377236 -288.341127 
L 372.809604 -288.258277 
L 369.241971 -288.258277 
L 365.674339 -288.258277 
L 362.106706 -288.258277 
L 358.539074 -288.258277 
L 354.971442 -288.258277 
L 351.403809 -289.915264 
L 347.836177 -289.915264 
L 344.268545 -288.258277 
L 340.700912 -288.258277 
L 337.13328 -288.258277 
L 333.565647 -289.915264 
L 329.998015 -288.258277 
L 326.430383 -288.258277 
L 322.86275 -288.258277 
L 319.295118 -288.258277 
L 315.727486 -288.258277 
L 312.159853 -288.258277 
L 308.592221 -288.258277 
L 305.024589 -288.258277 
L 301.456956 -288.258277 
L 297.889324 -288.258277 
L 294.321691 -284.944305 
L 290.754059 -284.944305 
L 287.186427 -286.601291 
L 283.618794 -284.944305 
L 280.051162 -284.944305 
L 276.48353 -284.944305 
L 272.915897 -284.944305 
L 269.348265 -284.944305 
L 265.780632 -284.944305 
L 262.213 -284.944305 
L 258.645368 -284.944305 
L 255.077735 -284.944305 
L 251.510103 -284.944305 
L 247.942471 -284.944305 
L 244.374838 -284.944305 
L 240.807206 -284.944305 
L 237.239574 -284.944305 
L 233.671941 -284.944305 
L 230.104309 -284.944305 
L 226.536676 -284.944305 
L 222.969044 -284.944305 
L 219.401412 -284.944305 
L 215.833779 -284.944305 
L 212.266147 -284.944305 
L 208.698515 -284.944305 
L 205.130882 -284.944305 
L 201.56325 -284.944305 
L 197.995618 -284.944305 
L 194.427985 -284.944305 
L 190.860353 -284.944305 
L 187.29272 -284.944305 
L 183.725088 -284.944305 
L 180.157456 -284.944305 
L 176.589823 -281.630332 
L 173.022191 -275.085236 
L 169.454559 -278.31636 
L 165.886926 -275.085236 
L 162.319294 -278.31636 
L 158.751661 -275.002387 
L 155.184029 -271.688414 
L 151.616397 -271.688414 
L 148.048764 -265.060469 
L 144.481132 -265.060469 
L 140.9135 -265.060469 
L 137.345867 -265.060469 
L 133.778235 -261.746497 
L 130.210603 -261.746497 
L 126.64297 -261.746497 
L 123.075338 -258.432524 
L 119.507705 -258.432524 
L 115.940073 -258.432524 
L 112.372441 -255.118551 
L 108.804808 -255.118551 
L 105.237176 -248.490606 
L 101.669544 -248.490606 
L 98.101911 -246.83362 
L 94.534279 -246.83362 
L 90.966646 -245.176634 
L 87.399014 -241.862661 
L 83.831382 -241.862661 
L 80.263749 -230.263757 
L 76.696117 -198.781017 
L 73.128485 -175.583209 
L 69.560852 -69.536086 
z
" id="m0fb659716d" style="stroke:#d62728;stroke-opacity:0.2;"/>
    </defs>
    <g clip-path="url(#pa94a3e80bd)">
     <use style="fill:#d62728;fill-opacity:0.2;stroke:#d62728;stroke-opacity:0.2;" x="0" xlink:href="#m0fb659716d" y="325.986375"/>
    </g>
   </g>
   <g id="matplotlib.axis_1">
    <g id="xtick_1">
     <g id="line2d_1">
      <defs>
       <path d="M 0 0 
L 0 3.5 
" id="m98632d9dde" style="stroke:#000000;stroke-width:0.8;"/>
      </defs>
      <g>
       <use style="stroke:#000000;stroke-width:0.8;" x="69.560852" xlink:href="#m98632d9dde" y="288.430125"/>
      </g>
     </g>
     <g id="text_1">
      <!-- 15m -->
      <g transform="translate(58.32804 303.028562)scale(0.1 -0.1)">
       <defs>
        <path d="M 794 531 
L 1825 531 
L 1825 4091 
L 703 3866 
L 703 4441 
L 1819 4666 
L 2450 4666 
L 2450 531 
L 3481 531 
L 3481 0 
L 794 0 
L 794 531 
z
" id="DejaVuSans-31" transform="scale(0.015625)"/>
        <path d="M 691 4666 
L 3169 4666 
L 3169 4134 
L 1269 4134 
L 1269 2991 
Q 1406 3038 1543 3061 
Q 1681 3084 1819 3084 
Q 2600 3084 3056 2656 
Q 3513 2228 3513 1497 
Q 3513 744 3044 326 
Q 2575 -91 1722 -91 
Q 1428 -91 1123 -41 
Q 819 9 494 109 
L 494 744 
Q 775 591 1075 516 
Q 1375 441 1709 441 
Q 2250 441 2565 725 
Q 2881 1009 2881 1497 
Q 2881 1984 2565 2268 
Q 2250 2553 1709 2553 
Q 1456 2553 1204 2497 
Q 953 2441 691 2322 
L 691 4666 
z
" id="DejaVuSans-35" transform="scale(0.015625)"/>
        <path d="M 3328 2828 
Q 3544 3216 3844 3400 
Q 4144 3584 4550 3584 
Q 5097 3584 5394 3201 
Q 5691 2819 5691 2113 
L 5691 0 
L 5113 0 
L 5113 2094 
Q 5113 2597 4934 2840 
Q 4756 3084 4391 3084 
Q 3944 3084 3684 2787 
Q 3425 2491 3425 1978 
L 3425 0 
L 2847 0 
L 2847 2094 
Q 2847 2600 2669 2842 
Q 2491 3084 2119 3084 
Q 1678 3084 1418 2786 
Q 1159 2488 1159 1978 
L 1159 0 
L 581 0 
L 581 3500 
L 1159 3500 
L 1159 2956 
Q 1356 3278 1631 3431 
Q 1906 3584 2284 3584 
Q 2666 3584 2933 3390 
Q 3200 3197 3328 2828 
z
" id="DejaVuSans-6d" transform="scale(0.015625)"/>
       </defs>
       <use xlink:href="#DejaVuSans-31"/>
       <use x="63.623047" xlink:href="#DejaVuSans-35"/>
       <use x="127.246094" xlink:href="#DejaVuSans-6d"/>
      </g>
     </g>
    </g>
    <g id="xtick_2">
     <g id="line2d_2">
      <g>
       <use style="stroke:#000000;stroke-width:0.8;" x="124.264549" xlink:href="#m98632d9dde" y="288.430125"/>
      </g>
     </g>
     <g id="text_2">
      <!-- 4h:5m -->
      <g transform="translate(108.178611 303.028562)scale(0.1 -0.1)">
       <defs>
        <path d="M 2419 4116 
L 825 1625 
L 2419 1625 
L 2419 4116 
z
M 2253 4666 
L 3047 4666 
L 3047 1625 
L 3713 1625 
L 3713 1100 
L 3047 1100 
L 3047 0 
L 2419 0 
L 2419 1100 
L 313 1100 
L 313 1709 
L 2253 4666 
z
" id="DejaVuSans-34" transform="scale(0.015625)"/>
        <path d="M 3513 2113 
L 3513 0 
L 2938 0 
L 2938 2094 
Q 2938 2591 2744 2837 
Q 2550 3084 2163 3084 
Q 1697 3084 1428 2787 
Q 1159 2491 1159 1978 
L 1159 0 
L 581 0 
L 581 4863 
L 1159 4863 
L 1159 2956 
Q 1366 3272 1645 3428 
Q 1925 3584 2291 3584 
Q 2894 3584 3203 3211 
Q 3513 2838 3513 2113 
z
" id="DejaVuSans-68" transform="scale(0.015625)"/>
        <path d="M 750 794 
L 1409 794 
L 1409 0 
L 750 0 
L 750 794 
z
M 750 3309 
L 1409 3309 
L 1409 2516 
L 750 2516 
L 750 3309 
z
" id="DejaVuSans-3a" transform="scale(0.015625)"/>
       </defs>
       <use xlink:href="#DejaVuSans-34"/>
       <use x="63.623047" xlink:href="#DejaVuSans-68"/>
       <use x="127.001953" xlink:href="#DejaVuSans-3a"/>
       <use x="160.693359" xlink:href="#DejaVuSans-35"/>
       <use x="224.316406" xlink:href="#DejaVuSans-6d"/>
      </g>
     </g>
    </g>
    <g id="xtick_3">
     <g id="line2d_3">
      <g>
       <use style="stroke:#000000;stroke-width:0.8;" x="178.968245" xlink:href="#m98632d9dde" y="288.430125"/>
      </g>
     </g>
     <g id="text_3">
      <!-- 7h:55m -->
      <g transform="translate(159.701057 303.028562)scale(0.1 -0.1)">
       <defs>
        <path d="M 525 4666 
L 3525 4666 
L 3525 4397 
L 1831 0 
L 1172 0 
L 2766 4134 
L 525 4134 
L 525 4666 
z
" id="DejaVuSans-37" transform="scale(0.015625)"/>
       </defs>
       <use xlink:href="#DejaVuSans-37"/>
       <use x="63.623047" xlink:href="#DejaVuSans-68"/>
       <use x="127.001953" xlink:href="#DejaVuSans-3a"/>
       <use x="160.693359" xlink:href="#DejaVuSans-35"/>
       <use x="224.316406" xlink:href="#DejaVuSans-35"/>
       <use x="287.939453" xlink:href="#DejaVuSans-6d"/>
      </g>
     </g>
    </g>
    <g id="xtick_4">
     <g id="line2d_4">
      <g>
       <use style="stroke:#000000;stroke-width:0.8;" x="233.671941" xlink:href="#m98632d9dde" y="288.430125"/>
      </g>
     </g>
     <g id="text_4">
      <!-- 11h:45m -->
      <g transform="translate(211.223504 303.028562)scale(0.1 -0.1)">
       <use xlink:href="#DejaVuSans-31"/>
       <use x="63.623047" xlink:href="#DejaVuSans-31"/>
       <use x="127.246094" xlink:href="#DejaVuSans-68"/>
       <use x="190.625" xlink:href="#DejaVuSans-3a"/>
       <use x="224.316406" xlink:href="#DejaVuSans-34"/>
       <use x="287.939453" xlink:href="#DejaVuSans-35"/>
       <use x="351.5625" xlink:href="#DejaVuSans-6d"/>
      </g>
     </g>
    </g>
    <g id="xtick_5">
     <g id="line2d_5">
      <g>
       <use style="stroke:#000000;stroke-width:0.8;" x="288.375637" xlink:href="#m98632d9dde" y="288.430125"/>
      </g>
     </g>
     <g id="text_5">
      <!-- 15h:35m -->
      <g transform="translate(265.9272 303.028562)scale(0.1 -0.1)">
       <defs>
        <path d="M 2597 2516 
Q 3050 2419 3304 2112 
Q 3559 1806 3559 1356 
Q 3559 666 3084 287 
Q 2609 -91 1734 -91 
Q 1441 -91 1130 -33 
Q 819 25 488 141 
L 488 750 
Q 750 597 1062 519 
Q 1375 441 1716 441 
Q 2309 441 2620 675 
Q 2931 909 2931 1356 
Q 2931 1769 2642 2001 
Q 2353 2234 1838 2234 
L 1294 2234 
L 1294 2753 
L 1863 2753 
Q 2328 2753 2575 2939 
Q 2822 3125 2822 3475 
Q 2822 3834 2567 4026 
Q 2313 4219 1838 4219 
Q 1578 4219 1281 4162 
Q 984 4106 628 3988 
L 628 4550 
Q 988 4650 1302 4700 
Q 1616 4750 1894 4750 
Q 2613 4750 3031 4423 
Q 3450 4097 3450 3541 
Q 3450 3153 3228 2886 
Q 3006 2619 2597 2516 
z
" id="DejaVuSans-33" transform="scale(0.015625)"/>
       </defs>
       <use xlink:href="#DejaVuSans-31"/>
       <use x="63.623047" xlink:href="#DejaVuSans-35"/>
       <use x="127.246094" xlink:href="#DejaVuSans-68"/>
       <use x="190.625" xlink:href="#DejaVuSans-3a"/>
       <use x="224.316406" xlink:href="#DejaVuSans-33"/>
       <use x="287.939453" xlink:href="#DejaVuSans-35"/>
       <use x="351.5625" xlink:href="#DejaVuSans-6d"/>
      </g>
     </g>
    </g>
    <g id="xtick_6">
     <g id="line2d_6">
      <g>
       <use style="stroke:#000000;stroke-width:0.8;" x="343.079334" xlink:href="#m98632d9dde" y="288.430125"/>
      </g>
     </g>
     <g id="text_6">
      <!-- 19h:25m -->
      <g transform="translate(320.630896 303.028562)scale(0.1 -0.1)">
       <defs>
        <path d="M 703 97 
L 703 672 
Q 941 559 1184 500 
Q 1428 441 1663 441 
Q 2288 441 2617 861 
Q 2947 1281 2994 2138 
Q 2813 1869 2534 1725 
Q 2256 1581 1919 1581 
Q 1219 1581 811 2004 
Q 403 2428 403 3163 
Q 403 3881 828 4315 
Q 1253 4750 1959 4750 
Q 2769 4750 3195 4129 
Q 3622 3509 3622 2328 
Q 3622 1225 3098 567 
Q 2575 -91 1691 -91 
Q 1453 -91 1209 -44 
Q 966 3 703 97 
z
M 1959 2075 
Q 2384 2075 2632 2365 
Q 2881 2656 2881 3163 
Q 2881 3666 2632 3958 
Q 2384 4250 1959 4250 
Q 1534 4250 1286 3958 
Q 1038 3666 1038 3163 
Q 1038 2656 1286 2365 
Q 1534 2075 1959 2075 
z
" id="DejaVuSans-39" transform="scale(0.015625)"/>
        <path d="M 1228 531 
L 3431 531 
L 3431 0 
L 469 0 
L 469 531 
Q 828 903 1448 1529 
Q 2069 2156 2228 2338 
Q 2531 2678 2651 2914 
Q 2772 3150 2772 3378 
Q 2772 3750 2511 3984 
Q 2250 4219 1831 4219 
Q 1534 4219 1204 4116 
Q 875 4013 500 3803 
L 500 4441 
Q 881 4594 1212 4672 
Q 1544 4750 1819 4750 
Q 2544 4750 2975 4387 
Q 3406 4025 3406 3419 
Q 3406 3131 3298 2873 
Q 3191 2616 2906 2266 
Q 2828 2175 2409 1742 
Q 1991 1309 1228 531 
z
" id="DejaVuSans-32" transform="scale(0.015625)"/>
       </defs>
       <use xlink:href="#DejaVuSans-31"/>
       <use x="63.623047" xlink:href="#DejaVuSans-39"/>
       <use x="127.246094" xlink:href="#DejaVuSans-68"/>
       <use x="190.625" xlink:href="#DejaVuSans-3a"/>
       <use x="224.316406" xlink:href="#DejaVuSans-32"/>
       <use x="287.939453" xlink:href="#DejaVuSans-35"/>
       <use x="351.5625" xlink:href="#DejaVuSans-6d"/>
      </g>
     </g>
    </g>
    <g id="text_7">
     <!-- Time (hour:minute) -->
     <g transform="translate(183.481094 316.706687)scale(0.1 -0.1)">
      <defs>
       <path d="M -19 4666 
L 3928 4666 
L 3928 4134 
L 2272 4134 
L 2272 0 
L 1638 0 
L 1638 4134 
L -19 4134 
L -19 4666 
z
" id="DejaVuSans-54" transform="scale(0.015625)"/>
       <path d="M 603 3500 
L 1178 3500 
L 1178 0 
L 603 0 
L 603 3500 
z
M 603 4863 
L 1178 4863 
L 1178 4134 
L 603 4134 
L 603 4863 
z
" id="DejaVuSans-69" transform="scale(0.015625)"/>
       <path d="M 3597 1894 
L 3597 1613 
L 953 1613 
Q 991 1019 1311 708 
Q 1631 397 2203 397 
Q 2534 397 2845 478 
Q 3156 559 3463 722 
L 3463 178 
Q 3153 47 2828 -22 
Q 2503 -91 2169 -91 
Q 1331 -91 842 396 
Q 353 884 353 1716 
Q 353 2575 817 3079 
Q 1281 3584 2069 3584 
Q 2775 3584 3186 3129 
Q 3597 2675 3597 1894 
z
M 3022 2063 
Q 3016 2534 2758 2815 
Q 2500 3097 2075 3097 
Q 1594 3097 1305 2825 
Q 1016 2553 972 2059 
L 3022 2063 
z
" id="DejaVuSans-65" transform="scale(0.015625)"/>
       <path id="DejaVuSans-20" transform="scale(0.015625)"/>
       <path d="M 1984 4856 
Q 1566 4138 1362 3434 
Q 1159 2731 1159 2009 
Q 1159 1288 1364 580 
Q 1569 -128 1984 -844 
L 1484 -844 
Q 1016 -109 783 600 
Q 550 1309 550 2009 
Q 550 2706 781 3412 
Q 1013 4119 1484 4856 
L 1984 4856 
z
" id="DejaVuSans-28" transform="scale(0.015625)"/>
       <path d="M 1959 3097 
Q 1497 3097 1228 2736 
Q 959 2375 959 1747 
Q 959 1119 1226 758 
Q 1494 397 1959 397 
Q 2419 397 2687 759 
Q 2956 1122 2956 1747 
Q 2956 2369 2687 2733 
Q 2419 3097 1959 3097 
z
M 1959 3584 
Q 2709 3584 3137 3096 
Q 3566 2609 3566 1747 
Q 3566 888 3137 398 
Q 2709 -91 1959 -91 
Q 1206 -91 779 398 
Q 353 888 353 1747 
Q 353 2609 779 3096 
Q 1206 3584 1959 3584 
z
" id="DejaVuSans-6f" transform="scale(0.015625)"/>
       <path d="M 544 1381 
L 544 3500 
L 1119 3500 
L 1119 1403 
Q 1119 906 1312 657 
Q 1506 409 1894 409 
Q 2359 409 2629 706 
Q 2900 1003 2900 1516 
L 2900 3500 
L 3475 3500 
L 3475 0 
L 2900 0 
L 2900 538 
Q 2691 219 2414 64 
Q 2138 -91 1772 -91 
Q 1169 -91 856 284 
Q 544 659 544 1381 
z
M 1991 3584 
L 1991 3584 
z
" id="DejaVuSans-75" transform="scale(0.015625)"/>
       <path d="M 2631 2963 
Q 2534 3019 2420 3045 
Q 2306 3072 2169 3072 
Q 1681 3072 1420 2755 
Q 1159 2438 1159 1844 
L 1159 0 
L 581 0 
L 581 3500 
L 1159 3500 
L 1159 2956 
Q 1341 3275 1631 3429 
Q 1922 3584 2338 3584 
Q 2397 3584 2469 3576 
Q 2541 3569 2628 3553 
L 2631 2963 
z
" id="DejaVuSans-72" transform="scale(0.015625)"/>
       <path d="M 3513 2113 
L 3513 0 
L 2938 0 
L 2938 2094 
Q 2938 2591 2744 2837 
Q 2550 3084 2163 3084 
Q 1697 3084 1428 2787 
Q 1159 2491 1159 1978 
L 1159 0 
L 581 0 
L 581 3500 
L 1159 3500 
L 1159 2956 
Q 1366 3272 1645 3428 
Q 1925 3584 2291 3584 
Q 2894 3584 3203 3211 
Q 3513 2838 3513 2113 
z
" id="DejaVuSans-6e" transform="scale(0.015625)"/>
       <path d="M 1172 4494 
L 1172 3500 
L 2356 3500 
L 2356 3053 
L 1172 3053 
L 1172 1153 
Q 1172 725 1289 603 
Q 1406 481 1766 481 
L 2356 481 
L 2356 0 
L 1766 0 
Q 1100 0 847 248 
Q 594 497 594 1153 
L 594 3053 
L 172 3053 
L 172 3500 
L 594 3500 
L 594 4494 
L 1172 4494 
z
" id="DejaVuSans-74" transform="scale(0.015625)"/>
       <path d="M 513 4856 
L 1013 4856 
Q 1481 4119 1714 3412 
Q 1947 2706 1947 2009 
Q 1947 1309 1714 600 
Q 1481 -109 1013 -844 
L 513 -844 
Q 928 -128 1133 580 
Q 1338 1288 1338 2009 
Q 1338 2731 1133 3434 
Q 928 4138 513 4856 
z
" id="DejaVuSans-29" transform="scale(0.015625)"/>
      </defs>
      <use xlink:href="#DejaVuSans-54"/>
      <use x="57.958984" xlink:href="#DejaVuSans-69"/>
      <use x="85.742188" xlink:href="#DejaVuSans-6d"/>
      <use x="183.154297" xlink:href="#DejaVuSans-65"/>
      <use x="244.677734" xlink:href="#DejaVuSans-20"/>
      <use x="276.464844" xlink:href="#DejaVuSans-28"/>
      <use x="315.478516" xlink:href="#DejaVuSans-68"/>
      <use x="378.857422" xlink:href="#DejaVuSans-6f"/>
      <use x="440.039062" xlink:href="#DejaVuSans-75"/>
      <use x="503.417969" xlink:href="#DejaVuSans-72"/>
      <use x="542.78125" xlink:href="#DejaVuSans-3a"/>
      <use x="576.472656" xlink:href="#DejaVuSans-6d"/>
      <use x="673.884766" xlink:href="#DejaVuSans-69"/>
      <use x="701.667969" xlink:href="#DejaVuSans-6e"/>
      <use x="765.046875" xlink:href="#DejaVuSans-75"/>
      <use x="828.425781" xlink:href="#DejaVuSans-74"/>
      <use x="867.634766" xlink:href="#DejaVuSans-65"/>
      <use x="929.158203" xlink:href="#DejaVuSans-29"/>
     </g>
    </g>
   </g>
   <g id="matplotlib.axis_2">
    <g id="ytick_1">
     <g id="line2d_7">
      <defs>
       <path d="M 0 0 
L -3.5 0 
" id="mf6a4d5faa2" style="stroke:#000000;stroke-width:0.8;"/>
      </defs>
      <g>
       <use style="stroke:#000000;stroke-width:0.8;" x="53.328125" xlink:href="#mf6a4d5faa2" y="259.764262"/>
      </g>
     </g>
     <g id="text_8">
      <!-- 6510 -->
      <g transform="translate(20.878125 263.563481)scale(0.1 -0.1)">
       <defs>
        <path d="M 2113 2584 
Q 1688 2584 1439 2293 
Q 1191 2003 1191 1497 
Q 1191 994 1439 701 
Q 1688 409 2113 409 
Q 2538 409 2786 701 
Q 3034 994 3034 1497 
Q 3034 2003 2786 2293 
Q 2538 2584 2113 2584 
z
M 3366 4563 
L 3366 3988 
Q 3128 4100 2886 4159 
Q 2644 4219 2406 4219 
Q 1781 4219 1451 3797 
Q 1122 3375 1075 2522 
Q 1259 2794 1537 2939 
Q 1816 3084 2150 3084 
Q 2853 3084 3261 2657 
Q 3669 2231 3669 1497 
Q 3669 778 3244 343 
Q 2819 -91 2113 -91 
Q 1303 -91 875 529 
Q 447 1150 447 2328 
Q 447 3434 972 4092 
Q 1497 4750 2381 4750 
Q 2619 4750 2861 4703 
Q 3103 4656 3366 4563 
z
" id="DejaVuSans-36" transform="scale(0.015625)"/>
        <path d="M 2034 4250 
Q 1547 4250 1301 3770 
Q 1056 3291 1056 2328 
Q 1056 1369 1301 889 
Q 1547 409 2034 409 
Q 2525 409 2770 889 
Q 3016 1369 3016 2328 
Q 3016 3291 2770 3770 
Q 2525 4250 2034 4250 
z
M 2034 4750 
Q 2819 4750 3233 4129 
Q 3647 3509 3647 2328 
Q 3647 1150 3233 529 
Q 2819 -91 2034 -91 
Q 1250 -91 836 529 
Q 422 1150 422 2328 
Q 422 3509 836 4129 
Q 1250 4750 2034 4750 
z
" id="DejaVuSans-30" transform="scale(0.015625)"/>
       </defs>
       <use xlink:href="#DejaVuSans-36"/>
       <use x="63.623047" xlink:href="#DejaVuSans-35"/>
       <use x="127.246094" xlink:href="#DejaVuSans-31"/>
       <use x="190.869141" xlink:href="#DejaVuSans-30"/>
      </g>
     </g>
    </g>
    <g id="ytick_2">
     <g id="line2d_8">
      <g>
       <use style="stroke:#000000;stroke-width:0.8;" x="53.328125" xlink:href="#mf6a4d5faa2" y="226.624536"/>
      </g>
     </g>
     <g id="text_9">
      <!-- 6520 -->
      <g transform="translate(20.878125 230.423755)scale(0.1 -0.1)">
       <use xlink:href="#DejaVuSans-36"/>
       <use x="63.623047" xlink:href="#DejaVuSans-35"/>
       <use x="127.246094" xlink:href="#DejaVuSans-32"/>
       <use x="190.869141" xlink:href="#DejaVuSans-30"/>
      </g>
     </g>
    </g>
    <g id="ytick_3">
     <g id="line2d_9">
      <g>
       <use style="stroke:#000000;stroke-width:0.8;" x="53.328125" xlink:href="#mf6a4d5faa2" y="193.48481"/>
      </g>
     </g>
     <g id="text_10">
      <!-- 6530 -->
      <g transform="translate(20.878125 197.284029)scale(0.1 -0.1)">
       <use xlink:href="#DejaVuSans-36"/>
       <use x="63.623047" xlink:href="#DejaVuSans-35"/>
       <use x="127.246094" xlink:href="#DejaVuSans-33"/>
       <use x="190.869141" xlink:href="#DejaVuSans-30"/>
      </g>
     </g>
    </g>
    <g id="ytick_4">
     <g id="line2d_10">
      <g>
       <use style="stroke:#000000;stroke-width:0.8;" x="53.328125" xlink:href="#mf6a4d5faa2" y="160.345084"/>
      </g>
     </g>
     <g id="text_11">
      <!-- 6540 -->
      <g transform="translate(20.878125 164.144303)scale(0.1 -0.1)">
       <use xlink:href="#DejaVuSans-36"/>
       <use x="63.623047" xlink:href="#DejaVuSans-35"/>
       <use x="127.246094" xlink:href="#DejaVuSans-34"/>
       <use x="190.869141" xlink:href="#DejaVuSans-30"/>
      </g>
     </g>
    </g>
    <g id="ytick_5">
     <g id="line2d_11">
      <g>
       <use style="stroke:#000000;stroke-width:0.8;" x="53.328125" xlink:href="#mf6a4d5faa2" y="127.205358"/>
      </g>
     </g>
     <g id="text_12">
      <!-- 6550 -->
      <g transform="translate(20.878125 131.004577)scale(0.1 -0.1)">
       <use xlink:href="#DejaVuSans-36"/>
       <use x="63.623047" xlink:href="#DejaVuSans-35"/>
       <use x="127.246094" xlink:href="#DejaVuSans-35"/>
       <use x="190.869141" xlink:href="#DejaVuSans-30"/>
      </g>
     </g>
    </g>
    <g id="ytick_6">
     <g id="line2d_12">
      <g>
       <use style="stroke:#000000;stroke-width:0.8;" x="53.328125" xlink:href="#mf6a4d5faa2" y="94.065632"/>
      </g>
     </g>
     <g id="text_13">
      <!-- 6560 -->
      <g transform="translate(20.878125 97.864851)scale(0.1 -0.1)">
       <use xlink:href="#DejaVuSans-36"/>
       <use x="63.623047" xlink:href="#DejaVuSans-35"/>
       <use x="127.246094" xlink:href="#DejaVuSans-36"/>
       <use x="190.869141" xlink:href="#DejaVuSans-30"/>
      </g>
     </g>
    </g>
    <g id="ytick_7">
     <g id="line2d_13">
      <g>
       <use style="stroke:#000000;stroke-width:0.8;" x="53.328125" xlink:href="#mf6a4d5faa2" y="60.925906"/>
      </g>
     </g>
     <g id="text_14">
      <!-- 6570 -->
      <g transform="translate(20.878125 64.725125)scale(0.1 -0.1)">
       <use xlink:href="#DejaVuSans-36"/>
       <use x="63.623047" xlink:href="#DejaVuSans-35"/>
       <use x="127.246094" xlink:href="#DejaVuSans-37"/>
       <use x="190.869141" xlink:href="#DejaVuSans-30"/>
      </g>
     </g>
    </g>
    <g id="ytick_8">
     <g id="line2d_14">
      <g>
       <use style="stroke:#000000;stroke-width:0.8;" x="53.328125" xlink:href="#mf6a4d5faa2" y="27.78618"/>
      </g>
     </g>
     <g id="text_15">
      <!-- 6580 -->
      <g transform="translate(20.878125 31.585399)scale(0.1 -0.1)">
       <defs>
        <path d="M 2034 2216 
Q 1584 2216 1326 1975 
Q 1069 1734 1069 1313 
Q 1069 891 1326 650 
Q 1584 409 2034 409 
Q 2484 409 2743 651 
Q 3003 894 3003 1313 
Q 3003 1734 2745 1975 
Q 2488 2216 2034 2216 
z
M 1403 2484 
Q 997 2584 770 2862 
Q 544 3141 544 3541 
Q 544 4100 942 4425 
Q 1341 4750 2034 4750 
Q 2731 4750 3128 4425 
Q 3525 4100 3525 3541 
Q 3525 3141 3298 2862 
Q 3072 2584 2669 2484 
Q 3125 2378 3379 2068 
Q 3634 1759 3634 1313 
Q 3634 634 3220 271 
Q 2806 -91 2034 -91 
Q 1263 -91 848 271 
Q 434 634 434 1313 
Q 434 1759 690 2068 
Q 947 2378 1403 2484 
z
M 1172 3481 
Q 1172 3119 1398 2916 
Q 1625 2713 2034 2713 
Q 2441 2713 2670 2916 
Q 2900 3119 2900 3481 
Q 2900 3844 2670 4047 
Q 2441 4250 2034 4250 
Q 1625 4250 1398 4047 
Q 1172 3844 1172 3481 
z
" id="DejaVuSans-38" transform="scale(0.015625)"/>
       </defs>
       <use xlink:href="#DejaVuSans-36"/>
       <use x="63.623047" xlink:href="#DejaVuSans-35"/>
       <use x="127.246094" xlink:href="#DejaVuSans-38"/>
       <use x="190.869141" xlink:href="#DejaVuSans-30"/>
      </g>
     </g>
    </g>
    <g id="text_16">
     <!-- Code region coverage -->
     <g transform="translate(14.798438 210.379594)rotate(-90)scale(0.1 -0.1)">
      <defs>
       <path d="M 4122 4306 
L 4122 3641 
Q 3803 3938 3442 4084 
Q 3081 4231 2675 4231 
Q 1875 4231 1450 3742 
Q 1025 3253 1025 2328 
Q 1025 1406 1450 917 
Q 1875 428 2675 428 
Q 3081 428 3442 575 
Q 3803 722 4122 1019 
L 4122 359 
Q 3791 134 3420 21 
Q 3050 -91 2638 -91 
Q 1578 -91 968 557 
Q 359 1206 359 2328 
Q 359 3453 968 4101 
Q 1578 4750 2638 4750 
Q 3056 4750 3426 4639 
Q 3797 4528 4122 4306 
z
" id="DejaVuSans-43" transform="scale(0.015625)"/>
       <path d="M 2906 2969 
L 2906 4863 
L 3481 4863 
L 3481 0 
L 2906 0 
L 2906 525 
Q 2725 213 2448 61 
Q 2172 -91 1784 -91 
Q 1150 -91 751 415 
Q 353 922 353 1747 
Q 353 2572 751 3078 
Q 1150 3584 1784 3584 
Q 2172 3584 2448 3432 
Q 2725 3281 2906 2969 
z
M 947 1747 
Q 947 1113 1208 752 
Q 1469 391 1925 391 
Q 2381 391 2643 752 
Q 2906 1113 2906 1747 
Q 2906 2381 2643 2742 
Q 2381 3103 1925 3103 
Q 1469 3103 1208 2742 
Q 947 2381 947 1747 
z
" id="DejaVuSans-64" transform="scale(0.015625)"/>
       <path d="M 2906 1791 
Q 2906 2416 2648 2759 
Q 2391 3103 1925 3103 
Q 1463 3103 1205 2759 
Q 947 2416 947 1791 
Q 947 1169 1205 825 
Q 1463 481 1925 481 
Q 2391 481 2648 825 
Q 2906 1169 2906 1791 
z
M 3481 434 
Q 3481 -459 3084 -895 
Q 2688 -1331 1869 -1331 
Q 1566 -1331 1297 -1286 
Q 1028 -1241 775 -1147 
L 775 -588 
Q 1028 -725 1275 -790 
Q 1522 -856 1778 -856 
Q 2344 -856 2625 -561 
Q 2906 -266 2906 331 
L 2906 616 
Q 2728 306 2450 153 
Q 2172 0 1784 0 
Q 1141 0 747 490 
Q 353 981 353 1791 
Q 353 2603 747 3093 
Q 1141 3584 1784 3584 
Q 2172 3584 2450 3431 
Q 2728 3278 2906 2969 
L 2906 3500 
L 3481 3500 
L 3481 434 
z
" id="DejaVuSans-67" transform="scale(0.015625)"/>
       <path d="M 3122 3366 
L 3122 2828 
Q 2878 2963 2633 3030 
Q 2388 3097 2138 3097 
Q 1578 3097 1268 2742 
Q 959 2388 959 1747 
Q 959 1106 1268 751 
Q 1578 397 2138 397 
Q 2388 397 2633 464 
Q 2878 531 3122 666 
L 3122 134 
Q 2881 22 2623 -34 
Q 2366 -91 2075 -91 
Q 1284 -91 818 406 
Q 353 903 353 1747 
Q 353 2603 823 3093 
Q 1294 3584 2113 3584 
Q 2378 3584 2631 3529 
Q 2884 3475 3122 3366 
z
" id="DejaVuSans-63" transform="scale(0.015625)"/>
       <path d="M 191 3500 
L 800 3500 
L 1894 563 
L 2988 3500 
L 3597 3500 
L 2284 0 
L 1503 0 
L 191 3500 
z
" id="DejaVuSans-76" transform="scale(0.015625)"/>
       <path d="M 2194 1759 
Q 1497 1759 1228 1600 
Q 959 1441 959 1056 
Q 959 750 1161 570 
Q 1363 391 1709 391 
Q 2188 391 2477 730 
Q 2766 1069 2766 1631 
L 2766 1759 
L 2194 1759 
z
M 3341 1997 
L 3341 0 
L 2766 0 
L 2766 531 
Q 2569 213 2275 61 
Q 1981 -91 1556 -91 
Q 1019 -91 701 211 
Q 384 513 384 1019 
Q 384 1609 779 1909 
Q 1175 2209 1959 2209 
L 2766 2209 
L 2766 2266 
Q 2766 2663 2505 2880 
Q 2244 3097 1772 3097 
Q 1472 3097 1187 3025 
Q 903 2953 641 2809 
L 641 3341 
Q 956 3463 1253 3523 
Q 1550 3584 1831 3584 
Q 2591 3584 2966 3190 
Q 3341 2797 3341 1997 
z
" id="DejaVuSans-61" transform="scale(0.015625)"/>
      </defs>
      <use xlink:href="#DejaVuSans-43"/>
      <use x="69.824219" xlink:href="#DejaVuSans-6f"/>
      <use x="131.005859" xlink:href="#DejaVuSans-64"/>
      <use x="194.482422" xlink:href="#DejaVuSans-65"/>
      <use x="256.005859" xlink:href="#DejaVuSans-20"/>
      <use x="287.792969" xlink:href="#DejaVuSans-72"/>
      <use x="326.65625" xlink:href="#DejaVuSans-65"/>
      <use x="388.179688" xlink:href="#DejaVuSans-67"/>
      <use x="451.65625" xlink:href="#DejaVuSans-69"/>
      <use x="479.439453" xlink:href="#DejaVuSans-6f"/>
      <use x="540.621094" xlink:href="#DejaVuSans-6e"/>
      <use x="604" xlink:href="#DejaVuSans-20"/>
      <use x="635.787109" xlink:href="#DejaVuSans-63"/>
      <use x="690.767578" xlink:href="#DejaVuSans-6f"/>
      <use x="751.949219" xlink:href="#DejaVuSans-76"/>
      <use x="811.128906" xlink:href="#DejaVuSans-65"/>
      <use x="872.652344" xlink:href="#DejaVuSans-72"/>
      <use x="913.765625" xlink:href="#DejaVuSans-61"/>
      <use x="975.044922" xlink:href="#DejaVuSans-67"/>
      <use x="1038.521484" xlink:href="#DejaVuSans-65"/>
     </g>
    </g>
   </g>
   <g id="line2d_15">
    <path clip-path="url(#pa94a3e80bd)" d="M 69.560852 133.833303 
L 73.128485 107.321522 
L 76.696117 94.065632 
L 80.263749 89.094673 
L 83.831382 84.123714 
L 87.399014 80.809741 
L 90.966646 74.181796 
L 94.534279 70.867824 
L 98.101911 67.553851 
L 101.669544 64.239878 
L 105.237176 60.925906 
L 108.804808 57.611933 
L 112.372441 54.297961 
L 115.940073 54.297961 
L 119.507705 54.297961 
L 123.075338 54.297961 
L 126.64297 54.297961 
L 130.210603 50.983988 
L 133.778235 47.670015 
L 137.345867 47.670015 
L 140.9135 47.670015 
L 144.481132 47.670015 
L 148.048764 47.670015 
L 151.616397 47.670015 
L 155.184029 47.670015 
L 158.751661 47.670015 
L 162.319294 47.670015 
L 165.886926 47.670015 
L 169.454559 47.670015 
L 173.022191 47.670015 
L 176.589823 47.670015 
L 180.157456 47.670015 
L 183.725088 47.670015 
L 187.29272 47.670015 
L 190.860353 47.670015 
L 194.427985 47.670015 
L 197.995618 47.670015 
L 201.56325 47.670015 
L 205.130882 47.670015 
L 208.698515 47.670015 
L 212.266147 50.983988 
L 215.833779 47.670015 
L 219.401412 47.670015 
L 222.969044 46.013029 
L 226.536676 46.013029 
L 230.104309 46.013029 
L 233.671941 44.356043 
L 237.239574 41.04207 
L 240.807206 41.04207 
L 244.374838 41.04207 
L 247.942471 41.04207 
L 251.510103 41.04207 
L 255.077735 41.04207 
L 258.645368 41.04207 
L 262.213 41.04207 
L 265.780632 41.04207 
L 269.348265 41.04207 
L 272.915897 41.04207 
L 276.48353 41.04207 
L 280.051162 41.04207 
L 283.618794 41.04207 
L 287.186427 39.385084 
L 290.754059 37.728098 
L 294.321691 37.728098 
L 297.889324 37.728098 
L 301.456956 37.728098 
L 305.024589 37.728098 
L 308.592221 37.728098 
L 312.159853 37.728098 
L 315.727486 37.728098 
L 319.295118 37.728098 
L 322.86275 37.728098 
L 326.430383 37.728098 
L 329.998015 37.728098 
L 333.565647 37.728098 
L 337.13328 37.728098 
L 340.700912 37.728098 
L 344.268545 37.728098 
L 347.836177 37.728098 
L 351.403809 37.728098 
L 354.971442 37.728098 
L 358.539074 37.728098 
L 362.106706 37.728098 
L 365.674339 37.728098 
L 369.241971 37.728098 
L 372.809604 37.728098 
L 376.377236 37.728098 
L 379.944868 37.728098 
L 383.512501 37.728098 
L 387.080133 37.728098 
L 390.647765 37.728098 
L 394.215398 36.071111 
" style="fill:none;stroke:#98df8a;stroke-linecap:square;stroke-width:1.5;"/>
    <defs>
     <path d="M -0 3 
L 3 -3 
L -3 -3 
z
" id="m388bc56ac7" style="stroke:#ffffff;stroke-linejoin:miter;stroke-width:0.75;"/>
    </defs>
    <g clip-path="url(#pa94a3e80bd)">
     <use style="fill:#98df8a;stroke:#ffffff;stroke-linejoin:miter;stroke-width:0.75;" x="69.560852" xlink:href="#m388bc56ac7" y="133.833303"/>
     <use style="fill:#98df8a;stroke:#ffffff;stroke-linejoin:miter;stroke-width:0.75;" x="73.128485" xlink:href="#m388bc56ac7" y="107.321522"/>
     <use style="fill:#98df8a;stroke:#ffffff;stroke-linejoin:miter;stroke-width:0.75;" x="76.696117" xlink:href="#m388bc56ac7" y="94.065632"/>
     <use style="fill:#98df8a;stroke:#ffffff;stroke-linejoin:miter;stroke-width:0.75;" x="80.263749" xlink:href="#m388bc56ac7" y="89.094673"/>
     <use style="fill:#98df8a;stroke:#ffffff;stroke-linejoin:miter;stroke-width:0.75;" x="83.831382" xlink:href="#m388bc56ac7" y="84.123714"/>
     <use style="fill:#98df8a;stroke:#ffffff;stroke-linejoin:miter;stroke-width:0.75;" x="87.399014" xlink:href="#m388bc56ac7" y="80.809741"/>
     <use style="fill:#98df8a;stroke:#ffffff;stroke-linejoin:miter;stroke-width:0.75;" x="90.966646" xlink:href="#m388bc56ac7" y="74.181796"/>
     <use style="fill:#98df8a;stroke:#ffffff;stroke-linejoin:miter;stroke-width:0.75;" x="94.534279" xlink:href="#m388bc56ac7" y="70.867824"/>
     <use style="fill:#98df8a;stroke:#ffffff;stroke-linejoin:miter;stroke-width:0.75;" x="98.101911" xlink:href="#m388bc56ac7" y="67.553851"/>
     <use style="fill:#98df8a;stroke:#ffffff;stroke-linejoin:miter;stroke-width:0.75;" x="101.669544" xlink:href="#m388bc56ac7" y="64.239878"/>
     <use style="fill:#98df8a;stroke:#ffffff;stroke-linejoin:miter;stroke-width:0.75;" x="105.237176" xlink:href="#m388bc56ac7" y="60.925906"/>
     <use style="fill:#98df8a;stroke:#ffffff;stroke-linejoin:miter;stroke-width:0.75;" x="108.804808" xlink:href="#m388bc56ac7" y="57.611933"/>
     <use style="fill:#98df8a;stroke:#ffffff;stroke-linejoin:miter;stroke-width:0.75;" x="112.372441" xlink:href="#m388bc56ac7" y="54.297961"/>
     <use style="fill:#98df8a;stroke:#ffffff;stroke-linejoin:miter;stroke-width:0.75;" x="115.940073" xlink:href="#m388bc56ac7" y="54.297961"/>
     <use style="fill:#98df8a;stroke:#ffffff;stroke-linejoin:miter;stroke-width:0.75;" x="119.507705" xlink:href="#m388bc56ac7" y="54.297961"/>
     <use style="fill:#98df8a;stroke:#ffffff;stroke-linejoin:miter;stroke-width:0.75;" x="123.075338" xlink:href="#m388bc56ac7" y="54.297961"/>
     <use style="fill:#98df8a;stroke:#ffffff;stroke-linejoin:miter;stroke-width:0.75;" x="126.64297" xlink:href="#m388bc56ac7" y="54.297961"/>
     <use style="fill:#98df8a;stroke:#ffffff;stroke-linejoin:miter;stroke-width:0.75;" x="130.210603" xlink:href="#m388bc56ac7" y="50.983988"/>
     <use style="fill:#98df8a;stroke:#ffffff;stroke-linejoin:miter;stroke-width:0.75;" x="133.778235" xlink:href="#m388bc56ac7" y="47.670015"/>
     <use style="fill:#98df8a;stroke:#ffffff;stroke-linejoin:miter;stroke-width:0.75;" x="137.345867" xlink:href="#m388bc56ac7" y="47.670015"/>
     <use style="fill:#98df8a;stroke:#ffffff;stroke-linejoin:miter;stroke-width:0.75;" x="140.9135" xlink:href="#m388bc56ac7" y="47.670015"/>
     <use style="fill:#98df8a;stroke:#ffffff;stroke-linejoin:miter;stroke-width:0.75;" x="144.481132" xlink:href="#m388bc56ac7" y="47.670015"/>
     <use style="fill:#98df8a;stroke:#ffffff;stroke-linejoin:miter;stroke-width:0.75;" x="148.048764" xlink:href="#m388bc56ac7" y="47.670015"/>
     <use style="fill:#98df8a;stroke:#ffffff;stroke-linejoin:miter;stroke-width:0.75;" x="151.616397" xlink:href="#m388bc56ac7" y="47.670015"/>
     <use style="fill:#98df8a;stroke:#ffffff;stroke-linejoin:miter;stroke-width:0.75;" x="155.184029" xlink:href="#m388bc56ac7" y="47.670015"/>
     <use style="fill:#98df8a;stroke:#ffffff;stroke-linejoin:miter;stroke-width:0.75;" x="158.751661" xlink:href="#m388bc56ac7" y="47.670015"/>
     <use style="fill:#98df8a;stroke:#ffffff;stroke-linejoin:miter;stroke-width:0.75;" x="162.319294" xlink:href="#m388bc56ac7" y="47.670015"/>
     <use style="fill:#98df8a;stroke:#ffffff;stroke-linejoin:miter;stroke-width:0.75;" x="165.886926" xlink:href="#m388bc56ac7" y="47.670015"/>
     <use style="fill:#98df8a;stroke:#ffffff;stroke-linejoin:miter;stroke-width:0.75;" x="169.454559" xlink:href="#m388bc56ac7" y="47.670015"/>
     <use style="fill:#98df8a;stroke:#ffffff;stroke-linejoin:miter;stroke-width:0.75;" x="173.022191" xlink:href="#m388bc56ac7" y="47.670015"/>
     <use style="fill:#98df8a;stroke:#ffffff;stroke-linejoin:miter;stroke-width:0.75;" x="176.589823" xlink:href="#m388bc56ac7" y="47.670015"/>
     <use style="fill:#98df8a;stroke:#ffffff;stroke-linejoin:miter;stroke-width:0.75;" x="180.157456" xlink:href="#m388bc56ac7" y="47.670015"/>
     <use style="fill:#98df8a;stroke:#ffffff;stroke-linejoin:miter;stroke-width:0.75;" x="183.725088" xlink:href="#m388bc56ac7" y="47.670015"/>
     <use style="fill:#98df8a;stroke:#ffffff;stroke-linejoin:miter;stroke-width:0.75;" x="187.29272" xlink:href="#m388bc56ac7" y="47.670015"/>
     <use style="fill:#98df8a;stroke:#ffffff;stroke-linejoin:miter;stroke-width:0.75;" x="190.860353" xlink:href="#m388bc56ac7" y="47.670015"/>
     <use style="fill:#98df8a;stroke:#ffffff;stroke-linejoin:miter;stroke-width:0.75;" x="194.427985" xlink:href="#m388bc56ac7" y="47.670015"/>
     <use style="fill:#98df8a;stroke:#ffffff;stroke-linejoin:miter;stroke-width:0.75;" x="197.995618" xlink:href="#m388bc56ac7" y="47.670015"/>
     <use style="fill:#98df8a;stroke:#ffffff;stroke-linejoin:miter;stroke-width:0.75;" x="201.56325" xlink:href="#m388bc56ac7" y="47.670015"/>
     <use style="fill:#98df8a;stroke:#ffffff;stroke-linejoin:miter;stroke-width:0.75;" x="205.130882" xlink:href="#m388bc56ac7" y="47.670015"/>
     <use style="fill:#98df8a;stroke:#ffffff;stroke-linejoin:miter;stroke-width:0.75;" x="208.698515" xlink:href="#m388bc56ac7" y="47.670015"/>
     <use style="fill:#98df8a;stroke:#ffffff;stroke-linejoin:miter;stroke-width:0.75;" x="212.266147" xlink:href="#m388bc56ac7" y="50.983988"/>
     <use style="fill:#98df8a;stroke:#ffffff;stroke-linejoin:miter;stroke-width:0.75;" x="215.833779" xlink:href="#m388bc56ac7" y="47.670015"/>
     <use style="fill:#98df8a;stroke:#ffffff;stroke-linejoin:miter;stroke-width:0.75;" x="219.401412" xlink:href="#m388bc56ac7" y="47.670015"/>
     <use style="fill:#98df8a;stroke:#ffffff;stroke-linejoin:miter;stroke-width:0.75;" x="222.969044" xlink:href="#m388bc56ac7" y="46.013029"/>
     <use style="fill:#98df8a;stroke:#ffffff;stroke-linejoin:miter;stroke-width:0.75;" x="226.536676" xlink:href="#m388bc56ac7" y="46.013029"/>
     <use style="fill:#98df8a;stroke:#ffffff;stroke-linejoin:miter;stroke-width:0.75;" x="230.104309" xlink:href="#m388bc56ac7" y="46.013029"/>
     <use style="fill:#98df8a;stroke:#ffffff;stroke-linejoin:miter;stroke-width:0.75;" x="233.671941" xlink:href="#m388bc56ac7" y="44.356043"/>
     <use style="fill:#98df8a;stroke:#ffffff;stroke-linejoin:miter;stroke-width:0.75;" x="237.239574" xlink:href="#m388bc56ac7" y="41.04207"/>
     <use style="fill:#98df8a;stroke:#ffffff;stroke-linejoin:miter;stroke-width:0.75;" x="240.807206" xlink:href="#m388bc56ac7" y="41.04207"/>
     <use style="fill:#98df8a;stroke:#ffffff;stroke-linejoin:miter;stroke-width:0.75;" x="244.374838" xlink:href="#m388bc56ac7" y="41.04207"/>
     <use style="fill:#98df8a;stroke:#ffffff;stroke-linejoin:miter;stroke-width:0.75;" x="247.942471" xlink:href="#m388bc56ac7" y="41.04207"/>
     <use style="fill:#98df8a;stroke:#ffffff;stroke-linejoin:miter;stroke-width:0.75;" x="251.510103" xlink:href="#m388bc56ac7" y="41.04207"/>
     <use style="fill:#98df8a;stroke:#ffffff;stroke-linejoin:miter;stroke-width:0.75;" x="255.077735" xlink:href="#m388bc56ac7" y="41.04207"/>
     <use style="fill:#98df8a;stroke:#ffffff;stroke-linejoin:miter;stroke-width:0.75;" x="258.645368" xlink:href="#m388bc56ac7" y="41.04207"/>
     <use style="fill:#98df8a;stroke:#ffffff;stroke-linejoin:miter;stroke-width:0.75;" x="262.213" xlink:href="#m388bc56ac7" y="41.04207"/>
     <use style="fill:#98df8a;stroke:#ffffff;stroke-linejoin:miter;stroke-width:0.75;" x="265.780632" xlink:href="#m388bc56ac7" y="41.04207"/>
     <use style="fill:#98df8a;stroke:#ffffff;stroke-linejoin:miter;stroke-width:0.75;" x="269.348265" xlink:href="#m388bc56ac7" y="41.04207"/>
     <use style="fill:#98df8a;stroke:#ffffff;stroke-linejoin:miter;stroke-width:0.75;" x="272.915897" xlink:href="#m388bc56ac7" y="41.04207"/>
     <use style="fill:#98df8a;stroke:#ffffff;stroke-linejoin:miter;stroke-width:0.75;" x="276.48353" xlink:href="#m388bc56ac7" y="41.04207"/>
     <use style="fill:#98df8a;stroke:#ffffff;stroke-linejoin:miter;stroke-width:0.75;" x="280.051162" xlink:href="#m388bc56ac7" y="41.04207"/>
     <use style="fill:#98df8a;stroke:#ffffff;stroke-linejoin:miter;stroke-width:0.75;" x="283.618794" xlink:href="#m388bc56ac7" y="41.04207"/>
     <use style="fill:#98df8a;stroke:#ffffff;stroke-linejoin:miter;stroke-width:0.75;" x="287.186427" xlink:href="#m388bc56ac7" y="39.385084"/>
     <use style="fill:#98df8a;stroke:#ffffff;stroke-linejoin:miter;stroke-width:0.75;" x="290.754059" xlink:href="#m388bc56ac7" y="37.728098"/>
     <use style="fill:#98df8a;stroke:#ffffff;stroke-linejoin:miter;stroke-width:0.75;" x="294.321691" xlink:href="#m388bc56ac7" y="37.728098"/>
     <use style="fill:#98df8a;stroke:#ffffff;stroke-linejoin:miter;stroke-width:0.75;" x="297.889324" xlink:href="#m388bc56ac7" y="37.728098"/>
     <use style="fill:#98df8a;stroke:#ffffff;stroke-linejoin:miter;stroke-width:0.75;" x="301.456956" xlink:href="#m388bc56ac7" y="37.728098"/>
     <use style="fill:#98df8a;stroke:#ffffff;stroke-linejoin:miter;stroke-width:0.75;" x="305.024589" xlink:href="#m388bc56ac7" y="37.728098"/>
     <use style="fill:#98df8a;stroke:#ffffff;stroke-linejoin:miter;stroke-width:0.75;" x="308.592221" xlink:href="#m388bc56ac7" y="37.728098"/>
     <use style="fill:#98df8a;stroke:#ffffff;stroke-linejoin:miter;stroke-width:0.75;" x="312.159853" xlink:href="#m388bc56ac7" y="37.728098"/>
     <use style="fill:#98df8a;stroke:#ffffff;stroke-linejoin:miter;stroke-width:0.75;" x="315.727486" xlink:href="#m388bc56ac7" y="37.728098"/>
     <use style="fill:#98df8a;stroke:#ffffff;stroke-linejoin:miter;stroke-width:0.75;" x="319.295118" xlink:href="#m388bc56ac7" y="37.728098"/>
     <use style="fill:#98df8a;stroke:#ffffff;stroke-linejoin:miter;stroke-width:0.75;" x="322.86275" xlink:href="#m388bc56ac7" y="37.728098"/>
     <use style="fill:#98df8a;stroke:#ffffff;stroke-linejoin:miter;stroke-width:0.75;" x="326.430383" xlink:href="#m388bc56ac7" y="37.728098"/>
     <use style="fill:#98df8a;stroke:#ffffff;stroke-linejoin:miter;stroke-width:0.75;" x="329.998015" xlink:href="#m388bc56ac7" y="37.728098"/>
     <use style="fill:#98df8a;stroke:#ffffff;stroke-linejoin:miter;stroke-width:0.75;" x="333.565647" xlink:href="#m388bc56ac7" y="37.728098"/>
     <use style="fill:#98df8a;stroke:#ffffff;stroke-linejoin:miter;stroke-width:0.75;" x="337.13328" xlink:href="#m388bc56ac7" y="37.728098"/>
     <use style="fill:#98df8a;stroke:#ffffff;stroke-linejoin:miter;stroke-width:0.75;" x="340.700912" xlink:href="#m388bc56ac7" y="37.728098"/>
     <use style="fill:#98df8a;stroke:#ffffff;stroke-linejoin:miter;stroke-width:0.75;" x="344.268545" xlink:href="#m388bc56ac7" y="37.728098"/>
     <use style="fill:#98df8a;stroke:#ffffff;stroke-linejoin:miter;stroke-width:0.75;" x="347.836177" xlink:href="#m388bc56ac7" y="37.728098"/>
     <use style="fill:#98df8a;stroke:#ffffff;stroke-linejoin:miter;stroke-width:0.75;" x="351.403809" xlink:href="#m388bc56ac7" y="37.728098"/>
     <use style="fill:#98df8a;stroke:#ffffff;stroke-linejoin:miter;stroke-width:0.75;" x="354.971442" xlink:href="#m388bc56ac7" y="37.728098"/>
     <use style="fill:#98df8a;stroke:#ffffff;stroke-linejoin:miter;stroke-width:0.75;" x="358.539074" xlink:href="#m388bc56ac7" y="37.728098"/>
     <use style="fill:#98df8a;stroke:#ffffff;stroke-linejoin:miter;stroke-width:0.75;" x="362.106706" xlink:href="#m388bc56ac7" y="37.728098"/>
     <use style="fill:#98df8a;stroke:#ffffff;stroke-linejoin:miter;stroke-width:0.75;" x="365.674339" xlink:href="#m388bc56ac7" y="37.728098"/>
     <use style="fill:#98df8a;stroke:#ffffff;stroke-linejoin:miter;stroke-width:0.75;" x="369.241971" xlink:href="#m388bc56ac7" y="37.728098"/>
     <use style="fill:#98df8a;stroke:#ffffff;stroke-linejoin:miter;stroke-width:0.75;" x="372.809604" xlink:href="#m388bc56ac7" y="37.728098"/>
     <use style="fill:#98df8a;stroke:#ffffff;stroke-linejoin:miter;stroke-width:0.75;" x="376.377236" xlink:href="#m388bc56ac7" y="37.728098"/>
     <use style="fill:#98df8a;stroke:#ffffff;stroke-linejoin:miter;stroke-width:0.75;" x="379.944868" xlink:href="#m388bc56ac7" y="37.728098"/>
     <use style="fill:#98df8a;stroke:#ffffff;stroke-linejoin:miter;stroke-width:0.75;" x="383.512501" xlink:href="#m388bc56ac7" y="37.728098"/>
     <use style="fill:#98df8a;stroke:#ffffff;stroke-linejoin:miter;stroke-width:0.75;" x="387.080133" xlink:href="#m388bc56ac7" y="37.728098"/>
     <use style="fill:#98df8a;stroke:#ffffff;stroke-linejoin:miter;stroke-width:0.75;" x="390.647765" xlink:href="#m388bc56ac7" y="37.728098"/>
     <use style="fill:#98df8a;stroke:#ffffff;stroke-linejoin:miter;stroke-width:0.75;" x="394.215398" xlink:href="#m388bc56ac7" y="36.071111"/>
    </g>
   </g>
   <g id="line2d_16">
    <path clip-path="url(#pa94a3e80bd)" d="M 69.560852 123.891385 
L 73.128485 110.635495 
L 76.696117 97.379604 
L 80.263749 90.751659 
L 83.831382 89.094673 
L 87.399014 82.466728 
L 90.966646 74.181796 
L 94.534279 67.553851 
L 98.101911 64.239878 
L 101.669544 59.26892 
L 105.237176 59.26892 
L 108.804808 59.26892 
L 112.372441 54.297961 
L 115.940073 52.640974 
L 119.507705 50.983988 
L 123.075338 50.983988 
L 126.64297 47.670015 
L 130.210603 50.983988 
L 133.778235 44.356043 
L 137.345867 44.356043 
L 140.9135 44.356043 
L 144.481132 44.356043 
L 148.048764 44.356043 
L 151.616397 44.356043 
L 155.184029 44.356043 
L 158.751661 42.699057 
L 162.319294 42.699057 
L 165.886926 44.356043 
L 169.454559 44.356043 
L 173.022191 42.699057 
L 176.589823 42.699057 
L 180.157456 42.699057 
L 183.725088 42.699057 
L 187.29272 44.356043 
L 190.860353 44.356043 
L 194.427985 42.699057 
L 197.995618 42.699057 
L 201.56325 41.04207 
L 205.130882 41.04207 
L 208.698515 41.04207 
L 212.266147 41.04207 
L 215.833779 41.04207 
L 219.401412 41.04207 
L 222.969044 41.04207 
L 226.536676 41.04207 
L 230.104309 41.04207 
L 233.671941 41.04207 
L 237.239574 41.04207 
L 240.807206 41.04207 
L 244.374838 41.04207 
L 247.942471 41.04207 
L 251.510103 41.04207 
L 255.077735 41.04207 
L 258.645368 41.04207 
L 262.213 41.04207 
L 265.780632 41.04207 
L 269.348265 41.04207 
L 272.915897 39.385084 
L 276.48353 41.04207 
L 280.051162 41.04207 
L 283.618794 39.385084 
L 287.186427 39.385084 
L 290.754059 39.385084 
L 294.321691 41.04207 
L 297.889324 41.04207 
L 301.456956 41.04207 
L 305.024589 37.728098 
L 308.592221 37.728098 
L 312.159853 37.728098 
L 315.727486 37.728098 
L 319.295118 37.728098 
L 322.86275 39.385084 
L 326.430383 39.385084 
L 329.998015 39.385084 
L 333.565647 39.385084 
L 337.13328 39.385084 
L 340.700912 37.728098 
L 344.268545 37.728098 
L 347.836177 39.385084 
L 351.403809 39.385084 
L 354.971442 37.728098 
L 358.539074 37.728098 
L 362.106706 37.728098 
L 365.674339 39.385084 
L 369.241971 39.385084 
L 372.809604 37.728098 
L 376.377236 37.728098 
L 379.944868 37.728098 
L 383.512501 37.728098 
L 387.080133 37.728098 
L 390.647765 37.728098 
L 394.215398 37.728098 
" style="fill:none;stroke:#1f77b4;stroke-linecap:square;stroke-width:1.5;"/>
    <defs>
     <path d="M 0 3 
C 0.795609 3 1.55874 2.683901 2.12132 2.12132 
C 2.683901 1.55874 3 0.795609 3 0 
C 3 -0.795609 2.683901 -1.55874 2.12132 -2.12132 
C 1.55874 -2.683901 0.795609 -3 0 -3 
C -0.795609 -3 -1.55874 -2.683901 -2.12132 -2.12132 
C -2.683901 -1.55874 -3 -0.795609 -3 0 
C -3 0.795609 -2.683901 1.55874 -2.12132 2.12132 
C -1.55874 2.683901 -0.795609 3 0 3 
z
" id="m1e0d636b41" style="stroke:#ffffff;stroke-width:0.75;"/>
    </defs>
    <g clip-path="url(#pa94a3e80bd)">
     <use style="fill:#1f77b4;stroke:#ffffff;stroke-width:0.75;" x="69.560852" xlink:href="#m1e0d636b41" y="123.891385"/>
     <use style="fill:#1f77b4;stroke:#ffffff;stroke-width:0.75;" x="73.128485" xlink:href="#m1e0d636b41" y="110.635495"/>
     <use style="fill:#1f77b4;stroke:#ffffff;stroke-width:0.75;" x="76.696117" xlink:href="#m1e0d636b41" y="97.379604"/>
     <use style="fill:#1f77b4;stroke:#ffffff;stroke-width:0.75;" x="80.263749" xlink:href="#m1e0d636b41" y="90.751659"/>
     <use style="fill:#1f77b4;stroke:#ffffff;stroke-width:0.75;" x="83.831382" xlink:href="#m1e0d636b41" y="89.094673"/>
     <use style="fill:#1f77b4;stroke:#ffffff;stroke-width:0.75;" x="87.399014" xlink:href="#m1e0d636b41" y="82.466728"/>
     <use style="fill:#1f77b4;stroke:#ffffff;stroke-width:0.75;" x="90.966646" xlink:href="#m1e0d636b41" y="74.181796"/>
     <use style="fill:#1f77b4;stroke:#ffffff;stroke-width:0.75;" x="94.534279" xlink:href="#m1e0d636b41" y="67.553851"/>
     <use style="fill:#1f77b4;stroke:#ffffff;stroke-width:0.75;" x="98.101911" xlink:href="#m1e0d636b41" y="64.239878"/>
     <use style="fill:#1f77b4;stroke:#ffffff;stroke-width:0.75;" x="101.669544" xlink:href="#m1e0d636b41" y="59.26892"/>
     <use style="fill:#1f77b4;stroke:#ffffff;stroke-width:0.75;" x="105.237176" xlink:href="#m1e0d636b41" y="59.26892"/>
     <use style="fill:#1f77b4;stroke:#ffffff;stroke-width:0.75;" x="108.804808" xlink:href="#m1e0d636b41" y="59.26892"/>
     <use style="fill:#1f77b4;stroke:#ffffff;stroke-width:0.75;" x="112.372441" xlink:href="#m1e0d636b41" y="54.297961"/>
     <use style="fill:#1f77b4;stroke:#ffffff;stroke-width:0.75;" x="115.940073" xlink:href="#m1e0d636b41" y="52.640974"/>
     <use style="fill:#1f77b4;stroke:#ffffff;stroke-width:0.75;" x="119.507705" xlink:href="#m1e0d636b41" y="50.983988"/>
     <use style="fill:#1f77b4;stroke:#ffffff;stroke-width:0.75;" x="123.075338" xlink:href="#m1e0d636b41" y="50.983988"/>
     <use style="fill:#1f77b4;stroke:#ffffff;stroke-width:0.75;" x="126.64297" xlink:href="#m1e0d636b41" y="47.670015"/>
     <use style="fill:#1f77b4;stroke:#ffffff;stroke-width:0.75;" x="130.210603" xlink:href="#m1e0d636b41" y="50.983988"/>
     <use style="fill:#1f77b4;stroke:#ffffff;stroke-width:0.75;" x="133.778235" xlink:href="#m1e0d636b41" y="44.356043"/>
     <use style="fill:#1f77b4;stroke:#ffffff;stroke-width:0.75;" x="137.345867" xlink:href="#m1e0d636b41" y="44.356043"/>
     <use style="fill:#1f77b4;stroke:#ffffff;stroke-width:0.75;" x="140.9135" xlink:href="#m1e0d636b41" y="44.356043"/>
     <use style="fill:#1f77b4;stroke:#ffffff;stroke-width:0.75;" x="144.481132" xlink:href="#m1e0d636b41" y="44.356043"/>
     <use style="fill:#1f77b4;stroke:#ffffff;stroke-width:0.75;" x="148.048764" xlink:href="#m1e0d636b41" y="44.356043"/>
     <use style="fill:#1f77b4;stroke:#ffffff;stroke-width:0.75;" x="151.616397" xlink:href="#m1e0d636b41" y="44.356043"/>
     <use style="fill:#1f77b4;stroke:#ffffff;stroke-width:0.75;" x="155.184029" xlink:href="#m1e0d636b41" y="44.356043"/>
     <use style="fill:#1f77b4;stroke:#ffffff;stroke-width:0.75;" x="158.751661" xlink:href="#m1e0d636b41" y="42.699057"/>
     <use style="fill:#1f77b4;stroke:#ffffff;stroke-width:0.75;" x="162.319294" xlink:href="#m1e0d636b41" y="42.699057"/>
     <use style="fill:#1f77b4;stroke:#ffffff;stroke-width:0.75;" x="165.886926" xlink:href="#m1e0d636b41" y="44.356043"/>
     <use style="fill:#1f77b4;stroke:#ffffff;stroke-width:0.75;" x="169.454559" xlink:href="#m1e0d636b41" y="44.356043"/>
     <use style="fill:#1f77b4;stroke:#ffffff;stroke-width:0.75;" x="173.022191" xlink:href="#m1e0d636b41" y="42.699057"/>
     <use style="fill:#1f77b4;stroke:#ffffff;stroke-width:0.75;" x="176.589823" xlink:href="#m1e0d636b41" y="42.699057"/>
     <use style="fill:#1f77b4;stroke:#ffffff;stroke-width:0.75;" x="180.157456" xlink:href="#m1e0d636b41" y="42.699057"/>
     <use style="fill:#1f77b4;stroke:#ffffff;stroke-width:0.75;" x="183.725088" xlink:href="#m1e0d636b41" y="42.699057"/>
     <use style="fill:#1f77b4;stroke:#ffffff;stroke-width:0.75;" x="187.29272" xlink:href="#m1e0d636b41" y="44.356043"/>
     <use style="fill:#1f77b4;stroke:#ffffff;stroke-width:0.75;" x="190.860353" xlink:href="#m1e0d636b41" y="44.356043"/>
     <use style="fill:#1f77b4;stroke:#ffffff;stroke-width:0.75;" x="194.427985" xlink:href="#m1e0d636b41" y="42.699057"/>
     <use style="fill:#1f77b4;stroke:#ffffff;stroke-width:0.75;" x="197.995618" xlink:href="#m1e0d636b41" y="42.699057"/>
     <use style="fill:#1f77b4;stroke:#ffffff;stroke-width:0.75;" x="201.56325" xlink:href="#m1e0d636b41" y="41.04207"/>
     <use style="fill:#1f77b4;stroke:#ffffff;stroke-width:0.75;" x="205.130882" xlink:href="#m1e0d636b41" y="41.04207"/>
     <use style="fill:#1f77b4;stroke:#ffffff;stroke-width:0.75;" x="208.698515" xlink:href="#m1e0d636b41" y="41.04207"/>
     <use style="fill:#1f77b4;stroke:#ffffff;stroke-width:0.75;" x="212.266147" xlink:href="#m1e0d636b41" y="41.04207"/>
     <use style="fill:#1f77b4;stroke:#ffffff;stroke-width:0.75;" x="215.833779" xlink:href="#m1e0d636b41" y="41.04207"/>
     <use style="fill:#1f77b4;stroke:#ffffff;stroke-width:0.75;" x="219.401412" xlink:href="#m1e0d636b41" y="41.04207"/>
     <use style="fill:#1f77b4;stroke:#ffffff;stroke-width:0.75;" x="222.969044" xlink:href="#m1e0d636b41" y="41.04207"/>
     <use style="fill:#1f77b4;stroke:#ffffff;stroke-width:0.75;" x="226.536676" xlink:href="#m1e0d636b41" y="41.04207"/>
     <use style="fill:#1f77b4;stroke:#ffffff;stroke-width:0.75;" x="230.104309" xlink:href="#m1e0d636b41" y="41.04207"/>
     <use style="fill:#1f77b4;stroke:#ffffff;stroke-width:0.75;" x="233.671941" xlink:href="#m1e0d636b41" y="41.04207"/>
     <use style="fill:#1f77b4;stroke:#ffffff;stroke-width:0.75;" x="237.239574" xlink:href="#m1e0d636b41" y="41.04207"/>
     <use style="fill:#1f77b4;stroke:#ffffff;stroke-width:0.75;" x="240.807206" xlink:href="#m1e0d636b41" y="41.04207"/>
     <use style="fill:#1f77b4;stroke:#ffffff;stroke-width:0.75;" x="244.374838" xlink:href="#m1e0d636b41" y="41.04207"/>
     <use style="fill:#1f77b4;stroke:#ffffff;stroke-width:0.75;" x="247.942471" xlink:href="#m1e0d636b41" y="41.04207"/>
     <use style="fill:#1f77b4;stroke:#ffffff;stroke-width:0.75;" x="251.510103" xlink:href="#m1e0d636b41" y="41.04207"/>
     <use style="fill:#1f77b4;stroke:#ffffff;stroke-width:0.75;" x="255.077735" xlink:href="#m1e0d636b41" y="41.04207"/>
     <use style="fill:#1f77b4;stroke:#ffffff;stroke-width:0.75;" x="258.645368" xlink:href="#m1e0d636b41" y="41.04207"/>
     <use style="fill:#1f77b4;stroke:#ffffff;stroke-width:0.75;" x="262.213" xlink:href="#m1e0d636b41" y="41.04207"/>
     <use style="fill:#1f77b4;stroke:#ffffff;stroke-width:0.75;" x="265.780632" xlink:href="#m1e0d636b41" y="41.04207"/>
     <use style="fill:#1f77b4;stroke:#ffffff;stroke-width:0.75;" x="269.348265" xlink:href="#m1e0d636b41" y="41.04207"/>
     <use style="fill:#1f77b4;stroke:#ffffff;stroke-width:0.75;" x="272.915897" xlink:href="#m1e0d636b41" y="39.385084"/>
     <use style="fill:#1f77b4;stroke:#ffffff;stroke-width:0.75;" x="276.48353" xlink:href="#m1e0d636b41" y="41.04207"/>
     <use style="fill:#1f77b4;stroke:#ffffff;stroke-width:0.75;" x="280.051162" xlink:href="#m1e0d636b41" y="41.04207"/>
     <use style="fill:#1f77b4;stroke:#ffffff;stroke-width:0.75;" x="283.618794" xlink:href="#m1e0d636b41" y="39.385084"/>
     <use style="fill:#1f77b4;stroke:#ffffff;stroke-width:0.75;" x="287.186427" xlink:href="#m1e0d636b41" y="39.385084"/>
     <use style="fill:#1f77b4;stroke:#ffffff;stroke-width:0.75;" x="290.754059" xlink:href="#m1e0d636b41" y="39.385084"/>
     <use style="fill:#1f77b4;stroke:#ffffff;stroke-width:0.75;" x="294.321691" xlink:href="#m1e0d636b41" y="41.04207"/>
     <use style="fill:#1f77b4;stroke:#ffffff;stroke-width:0.75;" x="297.889324" xlink:href="#m1e0d636b41" y="41.04207"/>
     <use style="fill:#1f77b4;stroke:#ffffff;stroke-width:0.75;" x="301.456956" xlink:href="#m1e0d636b41" y="41.04207"/>
     <use style="fill:#1f77b4;stroke:#ffffff;stroke-width:0.75;" x="305.024589" xlink:href="#m1e0d636b41" y="37.728098"/>
     <use style="fill:#1f77b4;stroke:#ffffff;stroke-width:0.75;" x="308.592221" xlink:href="#m1e0d636b41" y="37.728098"/>
     <use style="fill:#1f77b4;stroke:#ffffff;stroke-width:0.75;" x="312.159853" xlink:href="#m1e0d636b41" y="37.728098"/>
     <use style="fill:#1f77b4;stroke:#ffffff;stroke-width:0.75;" x="315.727486" xlink:href="#m1e0d636b41" y="37.728098"/>
     <use style="fill:#1f77b4;stroke:#ffffff;stroke-width:0.75;" x="319.295118" xlink:href="#m1e0d636b41" y="37.728098"/>
     <use style="fill:#1f77b4;stroke:#ffffff;stroke-width:0.75;" x="322.86275" xlink:href="#m1e0d636b41" y="39.385084"/>
     <use style="fill:#1f77b4;stroke:#ffffff;stroke-width:0.75;" x="326.430383" xlink:href="#m1e0d636b41" y="39.385084"/>
     <use style="fill:#1f77b4;stroke:#ffffff;stroke-width:0.75;" x="329.998015" xlink:href="#m1e0d636b41" y="39.385084"/>
     <use style="fill:#1f77b4;stroke:#ffffff;stroke-width:0.75;" x="333.565647" xlink:href="#m1e0d636b41" y="39.385084"/>
     <use style="fill:#1f77b4;stroke:#ffffff;stroke-width:0.75;" x="337.13328" xlink:href="#m1e0d636b41" y="39.385084"/>
     <use style="fill:#1f77b4;stroke:#ffffff;stroke-width:0.75;" x="340.700912" xlink:href="#m1e0d636b41" y="37.728098"/>
     <use style="fill:#1f77b4;stroke:#ffffff;stroke-width:0.75;" x="344.268545" xlink:href="#m1e0d636b41" y="37.728098"/>
     <use style="fill:#1f77b4;stroke:#ffffff;stroke-width:0.75;" x="347.836177" xlink:href="#m1e0d636b41" y="39.385084"/>
     <use style="fill:#1f77b4;stroke:#ffffff;stroke-width:0.75;" x="351.403809" xlink:href="#m1e0d636b41" y="39.385084"/>
     <use style="fill:#1f77b4;stroke:#ffffff;stroke-width:0.75;" x="354.971442" xlink:href="#m1e0d636b41" y="37.728098"/>
     <use style="fill:#1f77b4;stroke:#ffffff;stroke-width:0.75;" x="358.539074" xlink:href="#m1e0d636b41" y="37.728098"/>
     <use style="fill:#1f77b4;stroke:#ffffff;stroke-width:0.75;" x="362.106706" xlink:href="#m1e0d636b41" y="37.728098"/>
     <use style="fill:#1f77b4;stroke:#ffffff;stroke-width:0.75;" x="365.674339" xlink:href="#m1e0d636b41" y="39.385084"/>
     <use style="fill:#1f77b4;stroke:#ffffff;stroke-width:0.75;" x="369.241971" xlink:href="#m1e0d636b41" y="39.385084"/>
     <use style="fill:#1f77b4;stroke:#ffffff;stroke-width:0.75;" x="372.809604" xlink:href="#m1e0d636b41" y="37.728098"/>
     <use style="fill:#1f77b4;stroke:#ffffff;stroke-width:0.75;" x="376.377236" xlink:href="#m1e0d636b41" y="37.728098"/>
     <use style="fill:#1f77b4;stroke:#ffffff;stroke-width:0.75;" x="379.944868" xlink:href="#m1e0d636b41" y="37.728098"/>
     <use style="fill:#1f77b4;stroke:#ffffff;stroke-width:0.75;" x="383.512501" xlink:href="#m1e0d636b41" y="37.728098"/>
     <use style="fill:#1f77b4;stroke:#ffffff;stroke-width:0.75;" x="387.080133" xlink:href="#m1e0d636b41" y="37.728098"/>
     <use style="fill:#1f77b4;stroke:#ffffff;stroke-width:0.75;" x="390.647765" xlink:href="#m1e0d636b41" y="37.728098"/>
     <use style="fill:#1f77b4;stroke:#ffffff;stroke-width:0.75;" x="394.215398" xlink:href="#m1e0d636b41" y="37.728098"/>
    </g>
   </g>
   <g id="line2d_17">
    <path clip-path="url(#pa94a3e80bd)" d="M 69.560852 266.392207 
L 73.128485 160.345084 
L 76.696117 140.461248 
L 80.263749 100.693577 
L 83.831382 97.379604 
L 87.399014 87.437687 
L 90.966646 87.437687 
L 94.534279 87.437687 
L 98.101911 87.437687 
L 101.669544 87.437687 
L 105.237176 87.437687 
L 108.804808 84.123714 
L 112.372441 84.123714 
L 115.940073 79.152755 
L 119.507705 70.867824 
L 123.075338 70.867824 
L 126.64297 69.210837 
L 130.210603 67.553851 
L 133.778235 67.553851 
L 137.345867 67.553851 
L 140.9135 67.553851 
L 144.481132 65.896865 
L 148.048764 64.239878 
L 151.616397 64.239878 
L 155.184029 57.611933 
L 158.751661 54.297961 
L 162.319294 54.297961 
L 165.886926 54.297961 
L 169.454559 54.297961 
L 173.022191 54.297961 
L 176.589823 52.640974 
L 180.157456 47.670015 
L 183.725088 47.670015 
L 187.29272 47.670015 
L 190.860353 47.670015 
L 194.427985 44.356043 
L 197.995618 44.356043 
L 201.56325 44.356043 
L 205.130882 44.356043 
L 208.698515 42.699057 
L 212.266147 42.699057 
L 215.833779 44.356043 
L 219.401412 41.04207 
L 222.969044 42.699057 
L 226.536676 44.356043 
L 230.104309 44.356043 
L 233.671941 44.356043 
L 237.239574 41.04207 
L 240.807206 42.699057 
L 244.374838 44.356043 
L 247.942471 42.699057 
L 251.510103 44.356043 
L 255.077735 44.356043 
L 258.645368 44.356043 
L 262.213 41.04207 
L 265.780632 41.04207 
L 269.348265 41.04207 
L 272.915897 41.04207 
L 276.48353 42.699057 
L 280.051162 41.04207 
L 283.618794 41.04207 
L 287.186427 41.04207 
L 290.754059 41.04207 
L 294.321691 41.04207 
L 297.889324 41.04207 
L 301.456956 41.04207 
L 305.024589 41.04207 
L 308.592221 41.04207 
L 312.159853 41.04207 
L 315.727486 41.04207 
L 319.295118 41.04207 
L 322.86275 41.04207 
L 326.430383 41.04207 
L 329.998015 41.04207 
L 333.565647 41.04207 
L 337.13328 41.04207 
L 340.700912 41.04207 
L 344.268545 41.04207 
L 347.836177 41.04207 
L 351.403809 39.385084 
L 354.971442 41.04207 
L 358.539074 41.04207 
L 362.106706 41.04207 
L 365.674339 41.04207 
L 369.241971 41.04207 
L 372.809604 41.04207 
L 376.377236 37.728098 
L 379.944868 39.385084 
L 383.512501 39.385084 
L 387.080133 41.04207 
L 390.647765 41.04207 
L 394.215398 41.04207 
" style="fill:none;stroke:#d62728;stroke-linecap:square;stroke-width:1.5;"/>
    <defs>
     <path d="M 0 -3 
L -3 3 
L 3 3 
z
" id="m32f63e5d80" style="stroke:#ffffff;stroke-linejoin:miter;stroke-width:0.75;"/>
    </defs>
    <g clip-path="url(#pa94a3e80bd)">
     <use style="fill:#d62728;stroke:#ffffff;stroke-linejoin:miter;stroke-width:0.75;" x="69.560852" xlink:href="#m32f63e5d80" y="266.392207"/>
     <use style="fill:#d62728;stroke:#ffffff;stroke-linejoin:miter;stroke-width:0.75;" x="73.128485" xlink:href="#m32f63e5d80" y="160.345084"/>
     <use style="fill:#d62728;stroke:#ffffff;stroke-linejoin:miter;stroke-width:0.75;" x="76.696117" xlink:href="#m32f63e5d80" y="140.461248"/>
     <use style="fill:#d62728;stroke:#ffffff;stroke-linejoin:miter;stroke-width:0.75;" x="80.263749" xlink:href="#m32f63e5d80" y="100.693577"/>
     <use style="fill:#d62728;stroke:#ffffff;stroke-linejoin:miter;stroke-width:0.75;" x="83.831382" xlink:href="#m32f63e5d80" y="97.379604"/>
     <use style="fill:#d62728;stroke:#ffffff;stroke-linejoin:miter;stroke-width:0.75;" x="87.399014" xlink:href="#m32f63e5d80" y="87.437687"/>
     <use style="fill:#d62728;stroke:#ffffff;stroke-linejoin:miter;stroke-width:0.75;" x="90.966646" xlink:href="#m32f63e5d80" y="87.437687"/>
     <use style="fill:#d62728;stroke:#ffffff;stroke-linejoin:miter;stroke-width:0.75;" x="94.534279" xlink:href="#m32f63e5d80" y="87.437687"/>
     <use style="fill:#d62728;stroke:#ffffff;stroke-linejoin:miter;stroke-width:0.75;" x="98.101911" xlink:href="#m32f63e5d80" y="87.437687"/>
     <use style="fill:#d62728;stroke:#ffffff;stroke-linejoin:miter;stroke-width:0.75;" x="101.669544" xlink:href="#m32f63e5d80" y="87.437687"/>
     <use style="fill:#d62728;stroke:#ffffff;stroke-linejoin:miter;stroke-width:0.75;" x="105.237176" xlink:href="#m32f63e5d80" y="87.437687"/>
     <use style="fill:#d62728;stroke:#ffffff;stroke-linejoin:miter;stroke-width:0.75;" x="108.804808" xlink:href="#m32f63e5d80" y="84.123714"/>
     <use style="fill:#d62728;stroke:#ffffff;stroke-linejoin:miter;stroke-width:0.75;" x="112.372441" xlink:href="#m32f63e5d80" y="84.123714"/>
     <use style="fill:#d62728;stroke:#ffffff;stroke-linejoin:miter;stroke-width:0.75;" x="115.940073" xlink:href="#m32f63e5d80" y="79.152755"/>
     <use style="fill:#d62728;stroke:#ffffff;stroke-linejoin:miter;stroke-width:0.75;" x="119.507705" xlink:href="#m32f63e5d80" y="70.867824"/>
     <use style="fill:#d62728;stroke:#ffffff;stroke-linejoin:miter;stroke-width:0.75;" x="123.075338" xlink:href="#m32f63e5d80" y="70.867824"/>
     <use style="fill:#d62728;stroke:#ffffff;stroke-linejoin:miter;stroke-width:0.75;" x="126.64297" xlink:href="#m32f63e5d80" y="69.210837"/>
     <use style="fill:#d62728;stroke:#ffffff;stroke-linejoin:miter;stroke-width:0.75;" x="130.210603" xlink:href="#m32f63e5d80" y="67.553851"/>
     <use style="fill:#d62728;stroke:#ffffff;stroke-linejoin:miter;stroke-width:0.75;" x="133.778235" xlink:href="#m32f63e5d80" y="67.553851"/>
     <use style="fill:#d62728;stroke:#ffffff;stroke-linejoin:miter;stroke-width:0.75;" x="137.345867" xlink:href="#m32f63e5d80" y="67.553851"/>
     <use style="fill:#d62728;stroke:#ffffff;stroke-linejoin:miter;stroke-width:0.75;" x="140.9135" xlink:href="#m32f63e5d80" y="67.553851"/>
     <use style="fill:#d62728;stroke:#ffffff;stroke-linejoin:miter;stroke-width:0.75;" x="144.481132" xlink:href="#m32f63e5d80" y="65.896865"/>
     <use style="fill:#d62728;stroke:#ffffff;stroke-linejoin:miter;stroke-width:0.75;" x="148.048764" xlink:href="#m32f63e5d80" y="64.239878"/>
     <use style="fill:#d62728;stroke:#ffffff;stroke-linejoin:miter;stroke-width:0.75;" x="151.616397" xlink:href="#m32f63e5d80" y="64.239878"/>
     <use style="fill:#d62728;stroke:#ffffff;stroke-linejoin:miter;stroke-width:0.75;" x="155.184029" xlink:href="#m32f63e5d80" y="57.611933"/>
     <use style="fill:#d62728;stroke:#ffffff;stroke-linejoin:miter;stroke-width:0.75;" x="158.751661" xlink:href="#m32f63e5d80" y="54.297961"/>
     <use style="fill:#d62728;stroke:#ffffff;stroke-linejoin:miter;stroke-width:0.75;" x="162.319294" xlink:href="#m32f63e5d80" y="54.297961"/>
     <use style="fill:#d62728;stroke:#ffffff;stroke-linejoin:miter;stroke-width:0.75;" x="165.886926" xlink:href="#m32f63e5d80" y="54.297961"/>
     <use style="fill:#d62728;stroke:#ffffff;stroke-linejoin:miter;stroke-width:0.75;" x="169.454559" xlink:href="#m32f63e5d80" y="54.297961"/>
     <use style="fill:#d62728;stroke:#ffffff;stroke-linejoin:miter;stroke-width:0.75;" x="173.022191" xlink:href="#m32f63e5d80" y="54.297961"/>
     <use style="fill:#d62728;stroke:#ffffff;stroke-linejoin:miter;stroke-width:0.75;" x="176.589823" xlink:href="#m32f63e5d80" y="52.640974"/>
     <use style="fill:#d62728;stroke:#ffffff;stroke-linejoin:miter;stroke-width:0.75;" x="180.157456" xlink:href="#m32f63e5d80" y="47.670015"/>
     <use style="fill:#d62728;stroke:#ffffff;stroke-linejoin:miter;stroke-width:0.75;" x="183.725088" xlink:href="#m32f63e5d80" y="47.670015"/>
     <use style="fill:#d62728;stroke:#ffffff;stroke-linejoin:miter;stroke-width:0.75;" x="187.29272" xlink:href="#m32f63e5d80" y="47.670015"/>
     <use style="fill:#d62728;stroke:#ffffff;stroke-linejoin:miter;stroke-width:0.75;" x="190.860353" xlink:href="#m32f63e5d80" y="47.670015"/>
     <use style="fill:#d62728;stroke:#ffffff;stroke-linejoin:miter;stroke-width:0.75;" x="194.427985" xlink:href="#m32f63e5d80" y="44.356043"/>
     <use style="fill:#d62728;stroke:#ffffff;stroke-linejoin:miter;stroke-width:0.75;" x="197.995618" xlink:href="#m32f63e5d80" y="44.356043"/>
     <use style="fill:#d62728;stroke:#ffffff;stroke-linejoin:miter;stroke-width:0.75;" x="201.56325" xlink:href="#m32f63e5d80" y="44.356043"/>
     <use style="fill:#d62728;stroke:#ffffff;stroke-linejoin:miter;stroke-width:0.75;" x="205.130882" xlink:href="#m32f63e5d80" y="44.356043"/>
     <use style="fill:#d62728;stroke:#ffffff;stroke-linejoin:miter;stroke-width:0.75;" x="208.698515" xlink:href="#m32f63e5d80" y="42.699057"/>
     <use style="fill:#d62728;stroke:#ffffff;stroke-linejoin:miter;stroke-width:0.75;" x="212.266147" xlink:href="#m32f63e5d80" y="42.699057"/>
     <use style="fill:#d62728;stroke:#ffffff;stroke-linejoin:miter;stroke-width:0.75;" x="215.833779" xlink:href="#m32f63e5d80" y="44.356043"/>
     <use style="fill:#d62728;stroke:#ffffff;stroke-linejoin:miter;stroke-width:0.75;" x="219.401412" xlink:href="#m32f63e5d80" y="41.04207"/>
     <use style="fill:#d62728;stroke:#ffffff;stroke-linejoin:miter;stroke-width:0.75;" x="222.969044" xlink:href="#m32f63e5d80" y="42.699057"/>
     <use style="fill:#d62728;stroke:#ffffff;stroke-linejoin:miter;stroke-width:0.75;" x="226.536676" xlink:href="#m32f63e5d80" y="44.356043"/>
     <use style="fill:#d62728;stroke:#ffffff;stroke-linejoin:miter;stroke-width:0.75;" x="230.104309" xlink:href="#m32f63e5d80" y="44.356043"/>
     <use style="fill:#d62728;stroke:#ffffff;stroke-linejoin:miter;stroke-width:0.75;" x="233.671941" xlink:href="#m32f63e5d80" y="44.356043"/>
     <use style="fill:#d62728;stroke:#ffffff;stroke-linejoin:miter;stroke-width:0.75;" x="237.239574" xlink:href="#m32f63e5d80" y="41.04207"/>
     <use style="fill:#d62728;stroke:#ffffff;stroke-linejoin:miter;stroke-width:0.75;" x="240.807206" xlink:href="#m32f63e5d80" y="42.699057"/>
     <use style="fill:#d62728;stroke:#ffffff;stroke-linejoin:miter;stroke-width:0.75;" x="244.374838" xlink:href="#m32f63e5d80" y="44.356043"/>
     <use style="fill:#d62728;stroke:#ffffff;stroke-linejoin:miter;stroke-width:0.75;" x="247.942471" xlink:href="#m32f63e5d80" y="42.699057"/>
     <use style="fill:#d62728;stroke:#ffffff;stroke-linejoin:miter;stroke-width:0.75;" x="251.510103" xlink:href="#m32f63e5d80" y="44.356043"/>
     <use style="fill:#d62728;stroke:#ffffff;stroke-linejoin:miter;stroke-width:0.75;" x="255.077735" xlink:href="#m32f63e5d80" y="44.356043"/>
     <use style="fill:#d62728;stroke:#ffffff;stroke-linejoin:miter;stroke-width:0.75;" x="258.645368" xlink:href="#m32f63e5d80" y="44.356043"/>
     <use style="fill:#d62728;stroke:#ffffff;stroke-linejoin:miter;stroke-width:0.75;" x="262.213" xlink:href="#m32f63e5d80" y="41.04207"/>
     <use style="fill:#d62728;stroke:#ffffff;stroke-linejoin:miter;stroke-width:0.75;" x="265.780632" xlink:href="#m32f63e5d80" y="41.04207"/>
     <use style="fill:#d62728;stroke:#ffffff;stroke-linejoin:miter;stroke-width:0.75;" x="269.348265" xlink:href="#m32f63e5d80" y="41.04207"/>
     <use style="fill:#d62728;stroke:#ffffff;stroke-linejoin:miter;stroke-width:0.75;" x="272.915897" xlink:href="#m32f63e5d80" y="41.04207"/>
     <use style="fill:#d62728;stroke:#ffffff;stroke-linejoin:miter;stroke-width:0.75;" x="276.48353" xlink:href="#m32f63e5d80" y="42.699057"/>
     <use style="fill:#d62728;stroke:#ffffff;stroke-linejoin:miter;stroke-width:0.75;" x="280.051162" xlink:href="#m32f63e5d80" y="41.04207"/>
     <use style="fill:#d62728;stroke:#ffffff;stroke-linejoin:miter;stroke-width:0.75;" x="283.618794" xlink:href="#m32f63e5d80" y="41.04207"/>
     <use style="fill:#d62728;stroke:#ffffff;stroke-linejoin:miter;stroke-width:0.75;" x="287.186427" xlink:href="#m32f63e5d80" y="41.04207"/>
     <use style="fill:#d62728;stroke:#ffffff;stroke-linejoin:miter;stroke-width:0.75;" x="290.754059" xlink:href="#m32f63e5d80" y="41.04207"/>
     <use style="fill:#d62728;stroke:#ffffff;stroke-linejoin:miter;stroke-width:0.75;" x="294.321691" xlink:href="#m32f63e5d80" y="41.04207"/>
     <use style="fill:#d62728;stroke:#ffffff;stroke-linejoin:miter;stroke-width:0.75;" x="297.889324" xlink:href="#m32f63e5d80" y="41.04207"/>
     <use style="fill:#d62728;stroke:#ffffff;stroke-linejoin:miter;stroke-width:0.75;" x="301.456956" xlink:href="#m32f63e5d80" y="41.04207"/>
     <use style="fill:#d62728;stroke:#ffffff;stroke-linejoin:miter;stroke-width:0.75;" x="305.024589" xlink:href="#m32f63e5d80" y="41.04207"/>
     <use style="fill:#d62728;stroke:#ffffff;stroke-linejoin:miter;stroke-width:0.75;" x="308.592221" xlink:href="#m32f63e5d80" y="41.04207"/>
     <use style="fill:#d62728;stroke:#ffffff;stroke-linejoin:miter;stroke-width:0.75;" x="312.159853" xlink:href="#m32f63e5d80" y="41.04207"/>
     <use style="fill:#d62728;stroke:#ffffff;stroke-linejoin:miter;stroke-width:0.75;" x="315.727486" xlink:href="#m32f63e5d80" y="41.04207"/>
     <use style="fill:#d62728;stroke:#ffffff;stroke-linejoin:miter;stroke-width:0.75;" x="319.295118" xlink:href="#m32f63e5d80" y="41.04207"/>
     <use style="fill:#d62728;stroke:#ffffff;stroke-linejoin:miter;stroke-width:0.75;" x="322.86275" xlink:href="#m32f63e5d80" y="41.04207"/>
     <use style="fill:#d62728;stroke:#ffffff;stroke-linejoin:miter;stroke-width:0.75;" x="326.430383" xlink:href="#m32f63e5d80" y="41.04207"/>
     <use style="fill:#d62728;stroke:#ffffff;stroke-linejoin:miter;stroke-width:0.75;" x="329.998015" xlink:href="#m32f63e5d80" y="41.04207"/>
     <use style="fill:#d62728;stroke:#ffffff;stroke-linejoin:miter;stroke-width:0.75;" x="333.565647" xlink:href="#m32f63e5d80" y="41.04207"/>
     <use style="fill:#d62728;stroke:#ffffff;stroke-linejoin:miter;stroke-width:0.75;" x="337.13328" xlink:href="#m32f63e5d80" y="41.04207"/>
     <use style="fill:#d62728;stroke:#ffffff;stroke-linejoin:miter;stroke-width:0.75;" x="340.700912" xlink:href="#m32f63e5d80" y="41.04207"/>
     <use style="fill:#d62728;stroke:#ffffff;stroke-linejoin:miter;stroke-width:0.75;" x="344.268545" xlink:href="#m32f63e5d80" y="41.04207"/>
     <use style="fill:#d62728;stroke:#ffffff;stroke-linejoin:miter;stroke-width:0.75;" x="347.836177" xlink:href="#m32f63e5d80" y="41.04207"/>
     <use style="fill:#d62728;stroke:#ffffff;stroke-linejoin:miter;stroke-width:0.75;" x="351.403809" xlink:href="#m32f63e5d80" y="39.385084"/>
     <use style="fill:#d62728;stroke:#ffffff;stroke-linejoin:miter;stroke-width:0.75;" x="354.971442" xlink:href="#m32f63e5d80" y="41.04207"/>
     <use style="fill:#d62728;stroke:#ffffff;stroke-linejoin:miter;stroke-width:0.75;" x="358.539074" xlink:href="#m32f63e5d80" y="41.04207"/>
     <use style="fill:#d62728;stroke:#ffffff;stroke-linejoin:miter;stroke-width:0.75;" x="362.106706" xlink:href="#m32f63e5d80" y="41.04207"/>
     <use style="fill:#d62728;stroke:#ffffff;stroke-linejoin:miter;stroke-width:0.75;" x="365.674339" xlink:href="#m32f63e5d80" y="41.04207"/>
     <use style="fill:#d62728;stroke:#ffffff;stroke-linejoin:miter;stroke-width:0.75;" x="369.241971" xlink:href="#m32f63e5d80" y="41.04207"/>
     <use style="fill:#d62728;stroke:#ffffff;stroke-linejoin:miter;stroke-width:0.75;" x="372.809604" xlink:href="#m32f63e5d80" y="41.04207"/>
     <use style="fill:#d62728;stroke:#ffffff;stroke-linejoin:miter;stroke-width:0.75;" x="376.377236" xlink:href="#m32f63e5d80" y="37.728098"/>
     <use style="fill:#d62728;stroke:#ffffff;stroke-linejoin:miter;stroke-width:0.75;" x="379.944868" xlink:href="#m32f63e5d80" y="39.385084"/>
     <use style="fill:#d62728;stroke:#ffffff;stroke-linejoin:miter;stroke-width:0.75;" x="383.512501" xlink:href="#m32f63e5d80" y="39.385084"/>
     <use style="fill:#d62728;stroke:#ffffff;stroke-linejoin:miter;stroke-width:0.75;" x="387.080133" xlink:href="#m32f63e5d80" y="41.04207"/>
     <use style="fill:#d62728;stroke:#ffffff;stroke-linejoin:miter;stroke-width:0.75;" x="390.647765" xlink:href="#m32f63e5d80" y="41.04207"/>
     <use style="fill:#d62728;stroke:#ffffff;stroke-linejoin:miter;stroke-width:0.75;" x="394.215398" xlink:href="#m32f63e5d80" y="41.04207"/>
    </g>
   </g>
   <g id="line2d_18"/>
   <g id="line2d_19"/>
   <g id="line2d_20"/>
   <g id="patch_3">
    <path d="M 53.328125 259.764262 
L 53.328125 27.78618 
" style="fill:none;stroke:#000000;stroke-linecap:square;stroke-linejoin:miter;stroke-width:0.8;"/>
   </g>
   <g id="patch_4">
    <path d="M 69.560852 288.430125 
L 343.079334 288.430125 
" style="fill:none;stroke:#000000;stroke-linecap:square;stroke-linejoin:miter;stroke-width:0.8;"/>
   </g>
   <g id="text_17">
    <!-- libhtp_fuzz_htp (23h, 16 trials/fuzzer) -->
    <g transform="translate(119.875625 16.318125)scale(0.12 -0.12)">
     <defs>
      <path d="M 603 4863 
L 1178 4863 
L 1178 0 
L 603 0 
L 603 4863 
z
" id="DejaVuSans-6c" transform="scale(0.015625)"/>
      <path d="M 3116 1747 
Q 3116 2381 2855 2742 
Q 2594 3103 2138 3103 
Q 1681 3103 1420 2742 
Q 1159 2381 1159 1747 
Q 1159 1113 1420 752 
Q 1681 391 2138 391 
Q 2594 391 2855 752 
Q 3116 1113 3116 1747 
z
M 1159 2969 
Q 1341 3281 1617 3432 
Q 1894 3584 2278 3584 
Q 2916 3584 3314 3078 
Q 3713 2572 3713 1747 
Q 3713 922 3314 415 
Q 2916 -91 2278 -91 
Q 1894 -91 1617 61 
Q 1341 213 1159 525 
L 1159 0 
L 581 0 
L 581 4863 
L 1159 4863 
L 1159 2969 
z
" id="DejaVuSans-62" transform="scale(0.015625)"/>
      <path d="M 1159 525 
L 1159 -1331 
L 581 -1331 
L 581 3500 
L 1159 3500 
L 1159 2969 
Q 1341 3281 1617 3432 
Q 1894 3584 2278 3584 
Q 2916 3584 3314 3078 
Q 3713 2572 3713 1747 
Q 3713 922 3314 415 
Q 2916 -91 2278 -91 
Q 1894 -91 1617 61 
Q 1341 213 1159 525 
z
M 3116 1747 
Q 3116 2381 2855 2742 
Q 2594 3103 2138 3103 
Q 1681 3103 1420 2742 
Q 1159 2381 1159 1747 
Q 1159 1113 1420 752 
Q 1681 391 2138 391 
Q 2594 391 2855 752 
Q 3116 1113 3116 1747 
z
" id="DejaVuSans-70" transform="scale(0.015625)"/>
      <path d="M 3263 -1063 
L 3263 -1509 
L -63 -1509 
L -63 -1063 
L 3263 -1063 
z
" id="DejaVuSans-5f" transform="scale(0.015625)"/>
      <path d="M 2375 4863 
L 2375 4384 
L 1825 4384 
Q 1516 4384 1395 4259 
Q 1275 4134 1275 3809 
L 1275 3500 
L 2222 3500 
L 2222 3053 
L 1275 3053 
L 1275 0 
L 697 0 
L 697 3053 
L 147 3053 
L 147 3500 
L 697 3500 
L 697 3744 
Q 697 4328 969 4595 
Q 1241 4863 1831 4863 
L 2375 4863 
z
" id="DejaVuSans-66" transform="scale(0.015625)"/>
      <path d="M 353 3500 
L 3084 3500 
L 3084 2975 
L 922 459 
L 3084 459 
L 3084 0 
L 275 0 
L 275 525 
L 2438 3041 
L 353 3041 
L 353 3500 
z
" id="DejaVuSans-7a" transform="scale(0.015625)"/>
      <path d="M 750 794 
L 1409 794 
L 1409 256 
L 897 -744 
L 494 -744 
L 750 256 
L 750 794 
z
" id="DejaVuSans-2c" transform="scale(0.015625)"/>
      <path d="M 2834 3397 
L 2834 2853 
Q 2591 2978 2328 3040 
Q 2066 3103 1784 3103 
Q 1356 3103 1142 2972 
Q 928 2841 928 2578 
Q 928 2378 1081 2264 
Q 1234 2150 1697 2047 
L 1894 2003 
Q 2506 1872 2764 1633 
Q 3022 1394 3022 966 
Q 3022 478 2636 193 
Q 2250 -91 1575 -91 
Q 1294 -91 989 -36 
Q 684 19 347 128 
L 347 722 
Q 666 556 975 473 
Q 1284 391 1588 391 
Q 1994 391 2212 530 
Q 2431 669 2431 922 
Q 2431 1156 2273 1281 
Q 2116 1406 1581 1522 
L 1381 1569 
Q 847 1681 609 1914 
Q 372 2147 372 2553 
Q 372 3047 722 3315 
Q 1072 3584 1716 3584 
Q 2034 3584 2315 3537 
Q 2597 3491 2834 3397 
z
" id="DejaVuSans-73" transform="scale(0.015625)"/>
      <path d="M 1625 4666 
L 2156 4666 
L 531 -594 
L 0 -594 
L 1625 4666 
z
" id="DejaVuSans-2f" transform="scale(0.015625)"/>
     </defs>
     <use xlink:href="#DejaVuSans-6c"/>
     <use x="27.783203" xlink:href="#DejaVuSans-69"/>
     <use x="55.566406" xlink:href="#DejaVuSans-62"/>
     <use x="119.042969" xlink:href="#DejaVuSans-68"/>
     <use x="182.421875" xlink:href="#DejaVuSans-74"/>
     <use x="221.630859" xlink:href="#DejaVuSans-70"/>
     <use x="285.107422" xlink:href="#DejaVuSans-5f"/>
     <use x="335.107422" xlink:href="#DejaVuSans-66"/>
     <use x="370.3125" xlink:href="#DejaVuSans-75"/>
     <use x="433.691406" xlink:href="#DejaVuSans-7a"/>
     <use x="486.181641" xlink:href="#DejaVuSans-7a"/>
     <use x="538.671875" xlink:href="#DejaVuSans-5f"/>
     <use x="588.671875" xlink:href="#DejaVuSans-68"/>
     <use x="652.050781" xlink:href="#DejaVuSans-74"/>
     <use x="691.259766" xlink:href="#DejaVuSans-70"/>
     <use x="754.736328" xlink:href="#DejaVuSans-20"/>
     <use x="786.523438" xlink:href="#DejaVuSans-28"/>
     <use x="825.537109" xlink:href="#DejaVuSans-32"/>
     <use x="889.160156" xlink:href="#DejaVuSans-33"/>
     <use x="952.783203" xlink:href="#DejaVuSans-68"/>
     <use x="1016.162109" xlink:href="#DejaVuSans-2c"/>
     <use x="1047.949219" xlink:href="#DejaVuSans-20"/>
     <use x="1079.736328" xlink:href="#DejaVuSans-31"/>
     <use x="1143.359375" xlink:href="#DejaVuSans-36"/>
     <use x="1206.982422" xlink:href="#DejaVuSans-20"/>
     <use x="1238.769531" xlink:href="#DejaVuSans-74"/>
     <use x="1277.978516" xlink:href="#DejaVuSans-72"/>
     <use x="1319.091797" xlink:href="#DejaVuSans-69"/>
     <use x="1346.875" xlink:href="#DejaVuSans-61"/>
     <use x="1408.154297" xlink:href="#DejaVuSans-6c"/>
     <use x="1435.9375" xlink:href="#DejaVuSans-73"/>
     <use x="1488.037109" xlink:href="#DejaVuSans-2f"/>
     <use x="1521.728516" xlink:href="#DejaVuSans-66"/>
     <use x="1556.933594" xlink:href="#DejaVuSans-75"/>
     <use x="1620.3125" xlink:href="#DejaVuSans-7a"/>
     <use x="1672.802734" xlink:href="#DejaVuSans-7a"/>
     <use x="1725.292969" xlink:href="#DejaVuSans-65"/>
     <use x="1786.816406" xlink:href="#DejaVuSans-72"/>
     <use x="1827.929688" xlink:href="#DejaVuSans-29"/>
    </g>
   </g>
   <g id="legend_1">
    <g id="line2d_21">
     <path d="M 414.448125 30.416562 
L 434.448125 30.416562 
" style="fill:none;stroke:#98df8a;stroke-linecap:square;stroke-width:1.5;"/>
    </g>
    <g id="line2d_22">
     <defs>
      <path d="M -0 3 
L 3 -3 
L -3 -3 
z
" id="m21acfd9d4f" style="stroke:#98df8a;stroke-linejoin:miter;"/>
     </defs>
     <g>
      <use style="fill:#98df8a;stroke:#98df8a;stroke-linejoin:miter;" x="424.448125" xlink:href="#m21acfd9d4f" y="30.416562"/>
     </g>
    </g>
    <g id="text_18">
     <!-- afl_no_favfactor -->
     <g transform="translate(442.448125 33.916562)scale(0.1 -0.1)">
      <use xlink:href="#DejaVuSans-61"/>
      <use x="61.279297" xlink:href="#DejaVuSans-66"/>
      <use x="96.484375" xlink:href="#DejaVuSans-6c"/>
      <use x="124.267578" xlink:href="#DejaVuSans-5f"/>
      <use x="174.267578" xlink:href="#DejaVuSans-6e"/>
      <use x="237.646484" xlink:href="#DejaVuSans-6f"/>
      <use x="298.828125" xlink:href="#DejaVuSans-5f"/>
      <use x="348.828125" xlink:href="#DejaVuSans-66"/>
      <use x="384.033203" xlink:href="#DejaVuSans-61"/>
      <use x="445.3125" xlink:href="#DejaVuSans-76"/>
      <use x="504.492188" xlink:href="#DejaVuSans-66"/>
      <use x="539.697266" xlink:href="#DejaVuSans-61"/>
      <use x="600.976562" xlink:href="#DejaVuSans-63"/>
      <use x="655.957031" xlink:href="#DejaVuSans-74"/>
      <use x="695.166016" xlink:href="#DejaVuSans-6f"/>
      <use x="756.347656" xlink:href="#DejaVuSans-72"/>
     </g>
    </g>
    <g id="line2d_23">
     <path d="M 414.448125 45.372813 
L 434.448125 45.372813 
" style="fill:none;stroke:#1f77b4;stroke-linecap:square;stroke-width:1.5;"/>
    </g>
    <g id="line2d_24">
     <defs>
      <path d="M 0 3 
C 0.795609 3 1.55874 2.683901 2.12132 2.12132 
C 2.683901 1.55874 3 0.795609 3 0 
C 3 -0.795609 2.683901 -1.55874 2.12132 -2.12132 
C 1.55874 -2.683901 0.795609 -3 0 -3 
C -0.795609 -3 -1.55874 -2.683901 -2.12132 -2.12132 
C -2.683901 -1.55874 -3 -0.795609 -3 0 
C -3 0.795609 -2.683901 1.55874 -2.12132 2.12132 
C -1.55874 2.683901 -0.795609 3 0 3 
z
" id="ma430b62434" style="stroke:#1f77b4;"/>
     </defs>
     <g>
      <use style="fill:#1f77b4;stroke:#1f77b4;" x="424.448125" xlink:href="#ma430b62434" y="45.372813"/>
     </g>
    </g>
    <g id="text_19">
     <!-- afl -->
     <g transform="translate(442.448125 48.872813)scale(0.1 -0.1)">
      <use xlink:href="#DejaVuSans-61"/>
      <use x="61.279297" xlink:href="#DejaVuSans-66"/>
      <use x="96.484375" xlink:href="#DejaVuSans-6c"/>
     </g>
    </g>
    <g id="line2d_25">
     <path d="M 414.448125 60.050937 
L 434.448125 60.050937 
" style="fill:none;stroke:#d62728;stroke-linecap:square;stroke-width:1.5;"/>
    </g>
    <g id="line2d_26">
     <defs>
      <path d="M 0 -3 
L -3 3 
L 3 3 
z
" id="m6d838043b8" style="stroke:#d62728;stroke-linejoin:miter;"/>
     </defs>
     <g>
      <use style="fill:#d62728;stroke:#d62728;stroke-linejoin:miter;" x="424.448125" xlink:href="#m6d838043b8" y="60.050937"/>
     </g>
    </g>
    <g id="text_20">
     <!-- afl_no_favored -->
     <g transform="translate(442.448125 63.550937)scale(0.1 -0.1)">
      <use xlink:href="#DejaVuSans-61"/>
      <use x="61.279297" xlink:href="#DejaVuSans-66"/>
      <use x="96.484375" xlink:href="#DejaVuSans-6c"/>
      <use x="124.267578" xlink:href="#DejaVuSans-5f"/>
      <use x="174.267578" xlink:href="#DejaVuSans-6e"/>
      <use x="237.646484" xlink:href="#DejaVuSans-6f"/>
      <use x="298.828125" xlink:href="#DejaVuSans-5f"/>
      <use x="348.828125" xlink:href="#DejaVuSans-66"/>
      <use x="384.033203" xlink:href="#DejaVuSans-61"/>
      <use x="445.3125" xlink:href="#DejaVuSans-76"/>
      <use x="504.492188" xlink:href="#DejaVuSans-6f"/>
      <use x="565.673828" xlink:href="#DejaVuSans-72"/>
      <use x="604.537109" xlink:href="#DejaVuSans-65"/>
      <use x="666.060547" xlink:href="#DejaVuSans-64"/>
     </g>
    </g>
   </g>
  </g>
 </g>
 <defs>
  <clipPath id="pa94a3e80bd">
   <rect height="266.112" width="357.12" x="53.328125" y="22.318125"/>
  </clipPath>
 </defs>
</svg>
