<?xml version="1.0" encoding="utf-8" standalone="no"?>
<!DOCTYPE svg PUBLIC "-//W3C//DTD SVG 1.1//EN"
  "http://www.w3.org/Graphics/SVG/1.1/DTD/svg11.dtd">
<svg height="325.986375pt" version="1.1" viewBox="0 0 539.7575 325.986375" width="539.7575pt" xmlns="http://www.w3.org/2000/svg" xmlns:xlink="http://www.w3.org/1999/xlink">
 <metadata>
  <rdf:RDF xmlns:cc="http://creativecommons.org/ns#" xmlns:dc="http://purl.org/dc/elements/1.1/" xmlns:rdf="http://www.w3.org/1999/02/22-rdf-syntax-ns#">
   <cc:Work>
    <dc:type rdf:resource="http://purl.org/dc/dcmitype/StillImage"/>
    <dc:date>2022-05-24T15:41:19.948555</dc:date>
    <dc:format>image/svg+xml</dc:format>
    <dc:creator>
     <cc:Agent>
      <dc:title>Matplotlib v3.4.3, https://matplotlib.org/</dc:title>
     </cc:Agent>
    </dc:creator>
   </cc:Work>
  </rdf:RDF>
 </metadata>
 <defs>
  <style type="text/css">*{stroke-linecap:butt;stroke-linejoin:round;}</style>
 </defs>
 <g id="figure_1">
  <g id="patch_1">
   <path d="M 0 325.986375 
L 539.7575 325.986375 
L 539.7575 0 
L 0 0 
z
" style="fill:#ffffff;"/>
  </g>
  <g id="axes_1">
   <g id="patch_2">
    <path d="M 59.690625 288.430125 
L 416.810625 288.430125 
L 416.810625 22.318125 
L 59.690625 22.318125 
z
" style="fill:#ffffff;"/>
   </g>
   <g id="PolyCollection_1">
    <defs>
     <path d="M 75.923352 -68.902154 
L 75.923352 -49.65225 
L 80.628491 -68.129952 
L 85.333629 -87.379856 
L 90.038767 -94.164206 
L 94.743906 -102.93422 
L 99.449044 -105.885136 
L 104.154182 -110.214986 
L 108.859321 -111.483604 
L 113.564459 -111.593919 
L 118.269597 -111.814548 
L 122.974736 -115.289459 
L 127.679874 -118.874685 
L 132.385012 -121.411922 
L 137.090151 -122.790855 
L 141.795289 -131.94697 
L 146.500427 -133.712004 
L 151.205566 -137.131758 
L 155.910704 -140.772141 
L 160.615842 -144.743468 
L 165.320981 -149.597312 
L 170.026119 -152.851593 
L 174.731257 -155.168201 
L 179.436396 -159.029213 
L 184.141534 -161.235506 
L 188.846672 -163.166012 
L 193.551811 -165.427462 
L 198.256949 -167.578597 
L 202.962087 -179.547736 
L 207.667226 -185.118625 
L 212.372364 -189.862154 
L 217.077502 -192.01329 
L 221.782641 -194.026532 
L 226.487779 -196.646504 
L 231.192917 -201.693399 
L 235.898056 -204.338193 
L 240.603194 -206.574822 
L 245.308333 -207.126395 
L 250.013471 -210.297941 
L 254.718609 -209.443002 
L 259.423748 -212.476655 
L 264.128886 -217.165027 
L 268.834024 -220.088365 
L 273.539163 -223.866641 
L 278.244301 -224.50095 
L 282.949439 -224.50095 
L 287.654578 -231.450773 
L 292.359716 -231.450773 
L 297.064854 -228.00344 
L 301.769993 -229.892578 
L 306.475131 -229.382373 
L 311.180269 -228.868031 
L 315.885408 -229.933946 
L 320.590546 -237.297448 
L 325.295684 -232.912442 
L 330.000823 -227.313974 
L 334.705961 -227.479446 
L 339.411099 -236.44251 
L 344.116238 -238.723265 
L 348.821376 -239.614056 
L 353.526514 -238.979747 
L 358.231653 -241.820348 
L 362.936791 -242.039599 
L 367.641929 -243.199281 
L 372.347068 -244.850554 
L 377.052206 -244.440321 
L 381.757344 -245.874411 
L 386.462483 -252.07961 
L 391.167621 -246.977558 
L 395.872759 -249.349323 
L 400.577898 -243.309596 
L 400.577898 -264.159063 
L 400.577898 -264.159063 
L 395.872759 -288.648912 
L 391.167621 -287.378225 
L 386.462483 -291.57225 
L 381.757344 -274.377645 
L 377.052206 -271.026149 
L 372.347068 -270.949618 
L 367.641929 -276.266094 
L 362.936791 -269.233536 
L 358.231653 -270.269115 
L 353.526514 -273.122127 
L 348.821376 -272.514017 
L 344.116238 -271.936245 
L 339.411099 -273.039391 
L 334.705961 -264.21422 
L 330.000823 -261.511511 
L 325.295684 -265.896518 
L 320.590546 -270.17121 
L 315.885408 -265.372524 
L 311.180269 -268.516491 
L 306.475131 -264.22732 
L 301.769993 -265.317366 
L 297.064854 -265.317366 
L 292.359716 -266.530827 
L 287.654578 -265.427681 
L 282.949439 -264.655478 
L 278.244301 -263.055916 
L 273.539163 -259.581005 
L 268.834024 -258.505437 
L 264.128886 -252.631183 
L 259.423748 -247.170608 
L 254.718609 -244.412742 
L 250.013471 -232.313295 
L 245.308333 -229.272058 
L 240.603194 -222.267079 
L 235.898056 -220.157312 
L 231.192917 -217.826915 
L 226.487779 -212.283604 
L 221.782641 -207.126395 
L 217.077502 -204.368529 
L 212.372364 -198.79764 
L 207.667226 -197.473864 
L 202.962087 -191.795418 
L 198.256949 -188.979637 
L 193.551811 -186.111457 
L 188.846672 -182.250444 
L 184.141534 -175.686723 
L 179.436396 -172.515177 
L 174.731257 -166.530608 
L 170.026119 -159.029213 
L 165.320981 -155.995561 
L 160.615842 -151.776026 
L 155.910704 -147.77712 
L 151.205566 -143.750636 
L 146.500427 -142.923276 
L 141.795289 -138.31764 
L 137.090151 -131.064452 
L 132.385012 -130.457722 
L 127.679874 -130.457722 
L 122.974736 -127.479227 
L 118.269597 -123.342428 
L 113.564459 -124.997147 
L 108.859321 -118.15764 
L 104.154182 -116.613235 
L 99.449044 -113.965684 
L 94.743906 -110.54593 
L 90.038767 -105.472835 
L 85.333629 -97.528803 
L 80.628491 -86.05608 
L 75.923352 -68.902154 
z
" id="ma146d7c795" style="stroke:#98df8a;stroke-opacity:0.2;"/>
    </defs>
    <g clip-path="url(#pcaa169ae5d)">
     <use style="fill:#98df8a;fill-opacity:0.2;stroke:#98df8a;stroke-opacity:0.2;" x="0" xlink:href="#ma146d7c795" y="325.986375"/>
    </g>
   </g>
   <g id="PolyCollection_2">
    <defs>
     <path d="M 75.923352 -54.506094 
L 75.923352 -51.054625 
L 80.628491 -60.711292 
L 85.333629 -71.439391 
L 90.038767 -84.677147 
L 94.743906 -97.749432 
L 99.449044 -103.871894 
L 104.154182 -105.140513 
L 108.859321 -107.208912 
L 113.564459 -108.229323 
L 118.269597 -108.615424 
L 122.974736 -107.898379 
L 127.679874 -110.601087 
L 132.385012 -118.626477 
L 137.090151 -122.699156 
L 141.795289 -125.300513 
L 146.500427 -129.133946 
L 151.205566 -131.809076 
L 155.910704 -135.311566 
L 160.615842 -142.564753 
L 165.320981 -146.618816 
L 170.026119 -149.100896 
L 174.731257 -154.892414 
L 179.436396 -158.422483 
L 184.141534 -163.386641 
L 188.846672 -168.019856 
L 193.551811 -171.384452 
L 198.256949 -171.770554 
L 202.962087 -174.142318 
L 207.667226 -178.825864 
L 212.372364 -180.209623 
L 217.077502 -182.029815 
L 221.782641 -185.173782 
L 226.487779 -187.821333 
L 231.192917 -189.089952 
L 235.898056 -190.027626 
L 240.603194 -193.778324 
L 245.308333 -192.344234 
L 250.013471 -193.888639 
L 254.718609 -196.150089 
L 259.423748 -198.687325 
L 264.128886 -202.051922 
L 268.834024 -205.030417 
L 273.539163 -207.84344 
L 278.244301 -209.939418 
L 282.949439 -212.697284 
L 287.654578 -213.1937 
L 292.359716 -214.793262 
L 297.064854 -217.165027 
L 301.769993 -218.213016 
L 306.475131 -219.481634 
L 311.180269 -219.922893 
L 315.885408 -220.308994 
L 320.590546 -221.356983 
L 325.295684 -222.515287 
L 330.000823 -222.680759 
L 334.705961 -222.074028 
L 339.411099 -223.232332 
L 344.116238 -223.728748 
L 348.821376 -225.965377 
L 353.526514 -226.183249 
L 358.231653 -227.433941 
L 362.936791 -227.83521 
L 367.641929 -225.438625 
L 372.347068 -224.473372 
L 377.052206 -223.839063 
L 381.757344 -223.839063 
L 386.462483 -223.839063 
L 391.167621 -224.445793 
L 395.872759 -227.700075 
L 400.577898 -229.189323 
L 400.577898 -248.549541 
L 400.577898 -248.549541 
L 395.872759 -248.218597 
L 391.167621 -248.218597 
L 386.462483 -247.501552 
L 381.757344 -247.501552 
L 377.052206 -247.501552 
L 372.347068 -254.644425 
L 367.641929 -261.676983 
L 362.936791 -257.926286 
L 358.231653 -256.988611 
L 353.526514 -256.60251 
L 348.821376 -251.362565 
L 344.116238 -250.705503 
L 339.411099 -249.294165 
L 334.705961 -245.736518 
L 330.000823 -256.050937 
L 325.295684 -255.719993 
L 320.590546 -247.33608 
L 315.885408 -244.633372 
L 311.180269 -245.736518 
L 306.475131 -245.07463 
L 301.769993 -245.019473 
L 297.064854 -236.139145 
L 292.359716 -236.083987 
L 287.654578 -231.450773 
L 282.949439 -234.898105 
L 278.244301 -233.794959 
L 273.539163 -225.217996 
L 268.834024 -226.045355 
L 264.128886 -220.915725 
L 259.423748 -218.378488 
L 254.718609 -216.117038 
L 250.013471 -213.000649 
L 245.308333 -208.6708 
L 240.603194 -211.263194 
L 235.898056 -208.615643 
L 231.192917 -206.905766 
L 226.487779 -203.541169 
L 221.782641 -201.776135 
L 217.077502 -195.874302 
L 212.372364 -193.612852 
L 207.667226 -190.008321 
L 202.962087 -186.332086 
L 198.256949 -184.732524 
L 193.551811 -179.492578 
L 188.846672 -176.679555 
L 184.141534 -170.832879 
L 179.436396 -169.012688 
L 174.731257 -163.579692 
L 170.026119 -160.242674 
L 165.320981 -154.616628 
L 160.615842 -149.43184 
L 155.910704 -145.681142 
L 151.205566 -142.730225 
L 146.500427 -141.489186 
L 141.795289 -138.427955 
L 137.090151 -130.816245 
L 132.385012 -129.437312 
L 127.679874 -126.045136 
L 122.974736 -122.68054 
L 118.269597 -119.122893 
L 113.564459 -117.771539 
L 108.859321 -116.08924 
L 104.154182 -113.63474 
L 99.449044 -112.145492 
L 94.743906 -109.608255 
L 90.038767 -101.831074 
L 85.333629 -91.240868 
L 80.628491 -70.418981 
L 75.923352 -54.506094 
z
" id="m641908cc0c" style="stroke:#1f77b4;stroke-opacity:0.2;"/>
    </defs>
    <g clip-path="url(#pcaa169ae5d)">
     <use style="fill:#1f77b4;fill-opacity:0.2;stroke:#1f77b4;stroke-opacity:0.2;" x="0" xlink:href="#m641908cc0c" y="325.986375"/>
    </g>
   </g>
   <g id="PolyCollection_3">
    <defs>
     <path d="M 75.923352 -69.674357 
L 75.923352 -53.182318 
L 80.628491 -67.799008 
L 85.333629 -77.230909 
L 90.038767 -84.125574 
L 94.743906 -90.275615 
L 99.449044 -91.737284 
L 104.154182 -93.66779 
L 108.859321 -100.286669 
L 113.564459 -109.553098 
L 118.269597 -114.489678 
L 122.974736 -119.812359 
L 127.679874 -118.378269 
L 132.385012 -119.150472 
L 137.090151 -119.371101 
L 141.795289 -120.198461 
L 146.500427 -119.371101 
L 151.205566 -119.481416 
L 155.910704 -124.197366 
L 160.615842 -127.037968 
L 165.320981 -127.589541 
L 170.026119 -127.589541 
L 174.731257 -130.568037 
L 179.436396 -128.085957 
L 184.141534 -128.306587 
L 188.846672 -128.306587 
L 193.551811 -128.306587 
L 198.256949 -130.595615 
L 202.962087 -128.306587 
L 207.667226 -128.472058 
L 212.372364 -132.333071 
L 217.077502 -134.732414 
L 221.782641 -131.505711 
L 226.487779 -131.505711 
L 231.192917 -131.505711 
L 235.898056 -132.498543 
L 240.603194 -132.498543 
L 245.308333 -132.994959 
L 250.013471 -132.994959 
L 254.718609 -132.994959 
L 259.423748 -135.038537 
L 264.128886 -141.323714 
L 268.834024 -141.323714 
L 273.539163 -138.73132 
L 278.244301 -144.879292 
L 282.949439 -134.925465 
L 287.654578 -141.764972 
L 292.359716 -146.425766 
L 297.064854 -147.556491 
L 301.769993 -146.729131 
L 306.475131 -137.738488 
L 311.180269 -139.227736 
L 315.885408 -140.441197 
L 320.590546 -144.302209 
L 325.295684 -141.544343 
L 330.000823 -144.302209 
L 334.705961 -141.654658 
L 339.411099 -141.82013 
L 344.116238 -150.86593 
L 348.821376 -141.82013 
L 353.526514 -150.562565 
L 358.231653 -153.95474 
L 362.936791 -160.242674 
L 367.641929 -142.868119 
L 372.347068 -150.066149 
L 377.052206 -143.86095 
L 381.757344 -149.156053 
L 386.462483 -160.794247 
L 391.167621 -160.794247 
L 395.872759 -160.794247 
L 400.577898 -160.794247 
L 400.577898 -200.397202 
L 400.577898 -200.397202 
L 395.872759 -183.57422 
L 391.167621 -202.162236 
L 386.462483 -200.121416 
L 381.757344 -202.107079 
L 377.052206 -198.632168 
L 372.347068 -194.495369 
L 367.641929 -185.173782 
L 362.936791 -190.193098 
L 358.231653 -173.535588 
L 353.526514 -179.327106 
L 348.821376 -186.607872 
L 344.116238 -183.022647 
L 339.411099 -199.569842 
L 334.705961 -182.581388 
L 330.000823 -195.322729 
L 325.295684 -181.147298 
L 320.590546 -171.329295 
L 315.885408 -180.650882 
L 311.180269 -180.650882 
L 306.475131 -179.988994 
L 301.769993 -171.218981 
L 297.064854 -171.218981 
L 292.359716 -174.280212 
L 287.654578 -179.906258 
L 282.949439 -193.392223 
L 278.244301 -178.058488 
L 273.539163 -167.688912 
L 268.834024 -167.606176 
L 264.128886 -166.833974 
L 259.423748 -177.010499 
L 254.718609 -176.955342 
L 250.013471 -175.521251 
L 245.308333 -187.26976 
L 240.603194 -187.26976 
L 235.898056 -173.976846 
L 231.192917 -160.518461 
L 226.487779 -160.187517 
L 221.782641 -169.564261 
L 217.077502 -169.278132 
L 212.372364 -169.17816 
L 207.667226 -165.868721 
L 202.962087 -165.976967 
L 198.256949 -161.666422 
L 193.551811 -164.489788 
L 188.846672 -153.182537 
L 184.141534 -151.69329 
L 179.436396 -153.292852 
L 174.731257 -172.26697 
L 170.026119 -169.067845 
L 165.320981 -157.539965 
L 160.615842 -146.848409 
L 155.910704 -144.936518 
L 151.205566 -153.678953 
L 146.500427 -145.295041 
L 141.795289 -143.092195 
L 137.090151 -143.971265 
L 132.385012 -137.407544 
L 127.679874 -139.613837 
L 122.974736 -135.504617 
L 118.269597 -131.781498 
L 113.564459 -126.37608 
L 108.859321 -113.965684 
L 104.154182 -112.310964 
L 99.449044 -111.98002 
L 94.743906 -104.230417 
L 90.038767 -101.720759 
L 85.333629 -93.336846 
L 80.628491 -83.739473 
L 75.923352 -69.674357 
z
" id="m5a3112d227" style="stroke:#d62728;stroke-opacity:0.2;"/>
    </defs>
    <g clip-path="url(#pcaa169ae5d)">
     <use style="fill:#d62728;fill-opacity:0.2;stroke:#d62728;stroke-opacity:0.2;" x="0" xlink:href="#m5a3112d227" y="325.986375"/>
    </g>
   </g>
   <g id="matplotlib.axis_1">
    <g id="xtick_1">
     <g id="line2d_1">
      <defs>
       <path d="M 0 0 
L 0 3.5 
" id="me891a6db6e" style="stroke:#000000;stroke-width:0.8;"/>
      </defs>
      <g>
       <use style="stroke:#000000;stroke-width:0.8;" x="75.923352" xlink:href="#me891a6db6e" y="288.430125"/>
      </g>
     </g>
     <g id="text_1">
      <!-- 15m -->
      <g transform="translate(64.69054 303.028562)scale(0.1 -0.1)">
       <defs>
        <path d="M 794 531 
L 1825 531 
L 1825 4091 
L 703 3866 
L 703 4441 
L 1819 4666 
L 2450 4666 
L 2450 531 
L 3481 531 
L 3481 0 
L 794 0 
L 794 531 
z
" id="DejaVuSans-31" transform="scale(0.015625)"/>
        <path d="M 691 4666 
L 3169 4666 
L 3169 4134 
L 1269 4134 
L 1269 2991 
Q 1406 3038 1543 3061 
Q 1681 3084 1819 3084 
Q 2600 3084 3056 2656 
Q 3513 2228 3513 1497 
Q 3513 744 3044 326 
Q 2575 -91 1722 -91 
Q 1428 -91 1123 -41 
Q 819 9 494 109 
L 494 744 
Q 775 591 1075 516 
Q 1375 441 1709 441 
Q 2250 441 2565 725 
Q 2881 1009 2881 1497 
Q 2881 1984 2565 2268 
Q 2250 2553 1709 2553 
Q 1456 2553 1204 2497 
Q 953 2441 691 2322 
L 691 4666 
z
" id="DejaVuSans-35" transform="scale(0.015625)"/>
        <path d="M 3328 2828 
Q 3544 3216 3844 3400 
Q 4144 3584 4550 3584 
Q 5097 3584 5394 3201 
Q 5691 2819 5691 2113 
L 5691 0 
L 5113 0 
L 5113 2094 
Q 5113 2597 4934 2840 
Q 4756 3084 4391 3084 
Q 3944 3084 3684 2787 
Q 3425 2491 3425 1978 
L 3425 0 
L 2847 0 
L 2847 2094 
Q 2847 2600 2669 2842 
Q 2491 3084 2119 3084 
Q 1678 3084 1418 2786 
Q 1159 2488 1159 1978 
L 1159 0 
L 581 0 
L 581 3500 
L 1159 3500 
L 1159 2956 
Q 1356 3278 1631 3431 
Q 1906 3584 2284 3584 
Q 2666 3584 2933 3390 
Q 3200 3197 3328 2828 
z
" id="DejaVuSans-6d" transform="scale(0.015625)"/>
       </defs>
       <use xlink:href="#DejaVuSans-31"/>
       <use x="63.623047" xlink:href="#DejaVuSans-35"/>
       <use x="127.246094" xlink:href="#DejaVuSans-6d"/>
      </g>
     </g>
    </g>
    <g id="xtick_2">
     <g id="line2d_2">
      <g>
       <use style="stroke:#000000;stroke-width:0.8;" x="130.816633" xlink:href="#me891a6db6e" y="288.430125"/>
      </g>
     </g>
     <g id="text_2">
      <!-- 3h:10m -->
      <g transform="translate(111.549445 303.028562)scale(0.1 -0.1)">
       <defs>
        <path d="M 2597 2516 
Q 3050 2419 3304 2112 
Q 3559 1806 3559 1356 
Q 3559 666 3084 287 
Q 2609 -91 1734 -91 
Q 1441 -91 1130 -33 
Q 819 25 488 141 
L 488 750 
Q 750 597 1062 519 
Q 1375 441 1716 441 
Q 2309 441 2620 675 
Q 2931 909 2931 1356 
Q 2931 1769 2642 2001 
Q 2353 2234 1838 2234 
L 1294 2234 
L 1294 2753 
L 1863 2753 
Q 2328 2753 2575 2939 
Q 2822 3125 2822 3475 
Q 2822 3834 2567 4026 
Q 2313 4219 1838 4219 
Q 1578 4219 1281 4162 
Q 984 4106 628 3988 
L 628 4550 
Q 988 4650 1302 4700 
Q 1616 4750 1894 4750 
Q 2613 4750 3031 4423 
Q 3450 4097 3450 3541 
Q 3450 3153 3228 2886 
Q 3006 2619 2597 2516 
z
" id="DejaVuSans-33" transform="scale(0.015625)"/>
        <path d="M 3513 2113 
L 3513 0 
L 2938 0 
L 2938 2094 
Q 2938 2591 2744 2837 
Q 2550 3084 2163 3084 
Q 1697 3084 1428 2787 
Q 1159 2491 1159 1978 
L 1159 0 
L 581 0 
L 581 4863 
L 1159 4863 
L 1159 2956 
Q 1366 3272 1645 3428 
Q 1925 3584 2291 3584 
Q 2894 3584 3203 3211 
Q 3513 2838 3513 2113 
z
" id="DejaVuSans-68" transform="scale(0.015625)"/>
        <path d="M 750 794 
L 1409 794 
L 1409 0 
L 750 0 
L 750 794 
z
M 750 3309 
L 1409 3309 
L 1409 2516 
L 750 2516 
L 750 3309 
z
" id="DejaVuSans-3a" transform="scale(0.015625)"/>
        <path d="M 2034 4250 
Q 1547 4250 1301 3770 
Q 1056 3291 1056 2328 
Q 1056 1369 1301 889 
Q 1547 409 2034 409 
Q 2525 409 2770 889 
Q 3016 1369 3016 2328 
Q 3016 3291 2770 3770 
Q 2525 4250 2034 4250 
z
M 2034 4750 
Q 2819 4750 3233 4129 
Q 3647 3509 3647 2328 
Q 3647 1150 3233 529 
Q 2819 -91 2034 -91 
Q 1250 -91 836 529 
Q 422 1150 422 2328 
Q 422 3509 836 4129 
Q 1250 4750 2034 4750 
z
" id="DejaVuSans-30" transform="scale(0.015625)"/>
       </defs>
       <use xlink:href="#DejaVuSans-33"/>
       <use x="63.623047" xlink:href="#DejaVuSans-68"/>
       <use x="127.001953" xlink:href="#DejaVuSans-3a"/>
       <use x="160.693359" xlink:href="#DejaVuSans-31"/>
       <use x="224.316406" xlink:href="#DejaVuSans-30"/>
       <use x="287.939453" xlink:href="#DejaVuSans-6d"/>
      </g>
     </g>
    </g>
    <g id="xtick_3">
     <g id="line2d_3">
      <g>
       <use style="stroke:#000000;stroke-width:0.8;" x="185.709914" xlink:href="#me891a6db6e" y="288.430125"/>
      </g>
     </g>
     <g id="text_3">
      <!-- 6h:5m -->
      <g transform="translate(169.623976 303.028562)scale(0.1 -0.1)">
       <defs>
        <path d="M 2113 2584 
Q 1688 2584 1439 2293 
Q 1191 2003 1191 1497 
Q 1191 994 1439 701 
Q 1688 409 2113 409 
Q 2538 409 2786 701 
Q 3034 994 3034 1497 
Q 3034 2003 2786 2293 
Q 2538 2584 2113 2584 
z
M 3366 4563 
L 3366 3988 
Q 3128 4100 2886 4159 
Q 2644 4219 2406 4219 
Q 1781 4219 1451 3797 
Q 1122 3375 1075 2522 
Q 1259 2794 1537 2939 
Q 1816 3084 2150 3084 
Q 2853 3084 3261 2657 
Q 3669 2231 3669 1497 
Q 3669 778 3244 343 
Q 2819 -91 2113 -91 
Q 1303 -91 875 529 
Q 447 1150 447 2328 
Q 447 3434 972 4092 
Q 1497 4750 2381 4750 
Q 2619 4750 2861 4703 
Q 3103 4656 3366 4563 
z
" id="DejaVuSans-36" transform="scale(0.015625)"/>
       </defs>
       <use xlink:href="#DejaVuSans-36"/>
       <use x="63.623047" xlink:href="#DejaVuSans-68"/>
       <use x="127.001953" xlink:href="#DejaVuSans-3a"/>
       <use x="160.693359" xlink:href="#DejaVuSans-35"/>
       <use x="224.316406" xlink:href="#DejaVuSans-6d"/>
      </g>
     </g>
    </g>
    <g id="xtick_4">
     <g id="line2d_4">
      <g>
       <use style="stroke:#000000;stroke-width:0.8;" x="240.603194" xlink:href="#me891a6db6e" y="288.430125"/>
      </g>
     </g>
     <g id="text_4">
      <!-- 9h -->
      <g transform="translate(234.253194 303.028562)scale(0.1 -0.1)">
       <defs>
        <path d="M 703 97 
L 703 672 
Q 941 559 1184 500 
Q 1428 441 1663 441 
Q 2288 441 2617 861 
Q 2947 1281 2994 2138 
Q 2813 1869 2534 1725 
Q 2256 1581 1919 1581 
Q 1219 1581 811 2004 
Q 403 2428 403 3163 
Q 403 3881 828 4315 
Q 1253 4750 1959 4750 
Q 2769 4750 3195 4129 
Q 3622 3509 3622 2328 
Q 3622 1225 3098 567 
Q 2575 -91 1691 -91 
Q 1453 -91 1209 -44 
Q 966 3 703 97 
z
M 1959 2075 
Q 2384 2075 2632 2365 
Q 2881 2656 2881 3163 
Q 2881 3666 2632 3958 
Q 2384 4250 1959 4250 
Q 1534 4250 1286 3958 
Q 1038 3666 1038 3163 
Q 1038 2656 1286 2365 
Q 1534 2075 1959 2075 
z
" id="DejaVuSans-39" transform="scale(0.015625)"/>
       </defs>
       <use xlink:href="#DejaVuSans-39"/>
       <use x="63.623047" xlink:href="#DejaVuSans-68"/>
      </g>
     </g>
    </g>
    <g id="xtick_5">
     <g id="line2d_5">
      <g>
       <use style="stroke:#000000;stroke-width:0.8;" x="295.496475" xlink:href="#me891a6db6e" y="288.430125"/>
      </g>
     </g>
     <g id="text_5">
      <!-- 11h:55m -->
      <g transform="translate(273.048037 303.028562)scale(0.1 -0.1)">
       <use xlink:href="#DejaVuSans-31"/>
       <use x="63.623047" xlink:href="#DejaVuSans-31"/>
       <use x="127.246094" xlink:href="#DejaVuSans-68"/>
       <use x="190.625" xlink:href="#DejaVuSans-3a"/>
       <use x="224.316406" xlink:href="#DejaVuSans-35"/>
       <use x="287.939453" xlink:href="#DejaVuSans-35"/>
       <use x="351.5625" xlink:href="#DejaVuSans-6d"/>
      </g>
     </g>
    </g>
    <g id="xtick_6">
     <g id="line2d_6">
      <g>
       <use style="stroke:#000000;stroke-width:0.8;" x="350.389755" xlink:href="#me891a6db6e" y="288.430125"/>
      </g>
     </g>
     <g id="text_6">
      <!-- 14h:50m -->
      <g transform="translate(327.941318 303.028562)scale(0.1 -0.1)">
       <defs>
        <path d="M 2419 4116 
L 825 1625 
L 2419 1625 
L 2419 4116 
z
M 2253 4666 
L 3047 4666 
L 3047 1625 
L 3713 1625 
L 3713 1100 
L 3047 1100 
L 3047 0 
L 2419 0 
L 2419 1100 
L 313 1100 
L 313 1709 
L 2253 4666 
z
" id="DejaVuSans-34" transform="scale(0.015625)"/>
       </defs>
       <use xlink:href="#DejaVuSans-31"/>
       <use x="63.623047" xlink:href="#DejaVuSans-34"/>
       <use x="127.246094" xlink:href="#DejaVuSans-68"/>
       <use x="190.625" xlink:href="#DejaVuSans-3a"/>
       <use x="224.316406" xlink:href="#DejaVuSans-35"/>
       <use x="287.939453" xlink:href="#DejaVuSans-30"/>
       <use x="351.5625" xlink:href="#DejaVuSans-6d"/>
      </g>
     </g>
    </g>
    <g id="text_7">
     <!-- Time (hour:minute) -->
     <g transform="translate(189.843594 316.706687)scale(0.1 -0.1)">
      <defs>
       <path d="M -19 4666 
L 3928 4666 
L 3928 4134 
L 2272 4134 
L 2272 0 
L 1638 0 
L 1638 4134 
L -19 4134 
L -19 4666 
z
" id="DejaVuSans-54" transform="scale(0.015625)"/>
       <path d="M 603 3500 
L 1178 3500 
L 1178 0 
L 603 0 
L 603 3500 
z
M 603 4863 
L 1178 4863 
L 1178 4134 
L 603 4134 
L 603 4863 
z
" id="DejaVuSans-69" transform="scale(0.015625)"/>
       <path d="M 3597 1894 
L 3597 1613 
L 953 1613 
Q 991 1019 1311 708 
Q 1631 397 2203 397 
Q 2534 397 2845 478 
Q 3156 559 3463 722 
L 3463 178 
Q 3153 47 2828 -22 
Q 2503 -91 2169 -91 
Q 1331 -91 842 396 
Q 353 884 353 1716 
Q 353 2575 817 3079 
Q 1281 3584 2069 3584 
Q 2775 3584 3186 3129 
Q 3597 2675 3597 1894 
z
M 3022 2063 
Q 3016 2534 2758 2815 
Q 2500 3097 2075 3097 
Q 1594 3097 1305 2825 
Q 1016 2553 972 2059 
L 3022 2063 
z
" id="DejaVuSans-65" transform="scale(0.015625)"/>
       <path id="DejaVuSans-20" transform="scale(0.015625)"/>
       <path d="M 1984 4856 
Q 1566 4138 1362 3434 
Q 1159 2731 1159 2009 
Q 1159 1288 1364 580 
Q 1569 -128 1984 -844 
L 1484 -844 
Q 1016 -109 783 600 
Q 550 1309 550 2009 
Q 550 2706 781 3412 
Q 1013 4119 1484 4856 
L 1984 4856 
z
" id="DejaVuSans-28" transform="scale(0.015625)"/>
       <path d="M 1959 3097 
Q 1497 3097 1228 2736 
Q 959 2375 959 1747 
Q 959 1119 1226 758 
Q 1494 397 1959 397 
Q 2419 397 2687 759 
Q 2956 1122 2956 1747 
Q 2956 2369 2687 2733 
Q 2419 3097 1959 3097 
z
M 1959 3584 
Q 2709 3584 3137 3096 
Q 3566 2609 3566 1747 
Q 3566 888 3137 398 
Q 2709 -91 1959 -91 
Q 1206 -91 779 398 
Q 353 888 353 1747 
Q 353 2609 779 3096 
Q 1206 3584 1959 3584 
z
" id="DejaVuSans-6f" transform="scale(0.015625)"/>
       <path d="M 544 1381 
L 544 3500 
L 1119 3500 
L 1119 1403 
Q 1119 906 1312 657 
Q 1506 409 1894 409 
Q 2359 409 2629 706 
Q 2900 1003 2900 1516 
L 2900 3500 
L 3475 3500 
L 3475 0 
L 2900 0 
L 2900 538 
Q 2691 219 2414 64 
Q 2138 -91 1772 -91 
Q 1169 -91 856 284 
Q 544 659 544 1381 
z
M 1991 3584 
L 1991 3584 
z
" id="DejaVuSans-75" transform="scale(0.015625)"/>
       <path d="M 2631 2963 
Q 2534 3019 2420 3045 
Q 2306 3072 2169 3072 
Q 1681 3072 1420 2755 
Q 1159 2438 1159 1844 
L 1159 0 
L 581 0 
L 581 3500 
L 1159 3500 
L 1159 2956 
Q 1341 3275 1631 3429 
Q 1922 3584 2338 3584 
Q 2397 3584 2469 3576 
Q 2541 3569 2628 3553 
L 2631 2963 
z
" id="DejaVuSans-72" transform="scale(0.015625)"/>
       <path d="M 3513 2113 
L 3513 0 
L 2938 0 
L 2938 2094 
Q 2938 2591 2744 2837 
Q 2550 3084 2163 3084 
Q 1697 3084 1428 2787 
Q 1159 2491 1159 1978 
L 1159 0 
L 581 0 
L 581 3500 
L 1159 3500 
L 1159 2956 
Q 1366 3272 1645 3428 
Q 1925 3584 2291 3584 
Q 2894 3584 3203 3211 
Q 3513 2838 3513 2113 
z
" id="DejaVuSans-6e" transform="scale(0.015625)"/>
       <path d="M 1172 4494 
L 1172 3500 
L 2356 3500 
L 2356 3053 
L 1172 3053 
L 1172 1153 
Q 1172 725 1289 603 
Q 1406 481 1766 481 
L 2356 481 
L 2356 0 
L 1766 0 
Q 1100 0 847 248 
Q 594 497 594 1153 
L 594 3053 
L 172 3053 
L 172 3500 
L 594 3500 
L 594 4494 
L 1172 4494 
z
" id="DejaVuSans-74" transform="scale(0.015625)"/>
       <path d="M 513 4856 
L 1013 4856 
Q 1481 4119 1714 3412 
Q 1947 2706 1947 2009 
Q 1947 1309 1714 600 
Q 1481 -109 1013 -844 
L 513 -844 
Q 928 -128 1133 580 
Q 1338 1288 1338 2009 
Q 1338 2731 1133 3434 
Q 928 4138 513 4856 
z
" id="DejaVuSans-29" transform="scale(0.015625)"/>
      </defs>
      <use xlink:href="#DejaVuSans-54"/>
      <use x="57.958984" xlink:href="#DejaVuSans-69"/>
      <use x="85.742188" xlink:href="#DejaVuSans-6d"/>
      <use x="183.154297" xlink:href="#DejaVuSans-65"/>
      <use x="244.677734" xlink:href="#DejaVuSans-20"/>
      <use x="276.464844" xlink:href="#DejaVuSans-28"/>
      <use x="315.478516" xlink:href="#DejaVuSans-68"/>
      <use x="378.857422" xlink:href="#DejaVuSans-6f"/>
      <use x="440.039062" xlink:href="#DejaVuSans-75"/>
      <use x="503.417969" xlink:href="#DejaVuSans-72"/>
      <use x="542.78125" xlink:href="#DejaVuSans-3a"/>
      <use x="576.472656" xlink:href="#DejaVuSans-6d"/>
      <use x="673.884766" xlink:href="#DejaVuSans-69"/>
      <use x="701.667969" xlink:href="#DejaVuSans-6e"/>
      <use x="765.046875" xlink:href="#DejaVuSans-75"/>
      <use x="828.425781" xlink:href="#DejaVuSans-74"/>
      <use x="867.634766" xlink:href="#DejaVuSans-65"/>
      <use x="929.158203" xlink:href="#DejaVuSans-29"/>
     </g>
    </g>
   </g>
   <g id="matplotlib.axis_2">
    <g id="ytick_1">
     <g id="line2d_7">
      <defs>
       <path d="M 0 0 
L -3.5 0 
" id="m1bdafe9a9e" style="stroke:#000000;stroke-width:0.8;"/>
      </defs>
      <g>
       <use style="stroke:#000000;stroke-width:0.8;" x="59.690625" xlink:href="#m1bdafe9a9e" y="253.829939"/>
      </g>
     </g>
     <g id="text_8">
      <!-- 13000 -->
      <g transform="translate(20.878125 257.629158)scale(0.1 -0.1)">
       <use xlink:href="#DejaVuSans-31"/>
       <use x="63.623047" xlink:href="#DejaVuSans-33"/>
       <use x="127.246094" xlink:href="#DejaVuSans-30"/>
       <use x="190.869141" xlink:href="#DejaVuSans-30"/>
       <use x="254.492188" xlink:href="#DejaVuSans-30"/>
      </g>
     </g>
    </g>
    <g id="ytick_2">
     <g id="line2d_8">
      <g>
       <use style="stroke:#000000;stroke-width:0.8;" x="59.690625" xlink:href="#m1bdafe9a9e" y="198.67262"/>
      </g>
     </g>
     <g id="text_9">
      <!-- 14000 -->
      <g transform="translate(20.878125 202.471839)scale(0.1 -0.1)">
       <use xlink:href="#DejaVuSans-31"/>
       <use x="63.623047" xlink:href="#DejaVuSans-34"/>
       <use x="127.246094" xlink:href="#DejaVuSans-30"/>
       <use x="190.869141" xlink:href="#DejaVuSans-30"/>
       <use x="254.492188" xlink:href="#DejaVuSans-30"/>
      </g>
     </g>
    </g>
    <g id="ytick_3">
     <g id="line2d_9">
      <g>
       <use style="stroke:#000000;stroke-width:0.8;" x="59.690625" xlink:href="#m1bdafe9a9e" y="143.515301"/>
      </g>
     </g>
     <g id="text_10">
      <!-- 15000 -->
      <g transform="translate(20.878125 147.31452)scale(0.1 -0.1)">
       <use xlink:href="#DejaVuSans-31"/>
       <use x="63.623047" xlink:href="#DejaVuSans-35"/>
       <use x="127.246094" xlink:href="#DejaVuSans-30"/>
       <use x="190.869141" xlink:href="#DejaVuSans-30"/>
       <use x="254.492188" xlink:href="#DejaVuSans-30"/>
      </g>
     </g>
    </g>
    <g id="ytick_4">
     <g id="line2d_10">
      <g>
       <use style="stroke:#000000;stroke-width:0.8;" x="59.690625" xlink:href="#m1bdafe9a9e" y="88.357983"/>
      </g>
     </g>
     <g id="text_11">
      <!-- 16000 -->
      <g transform="translate(20.878125 92.157201)scale(0.1 -0.1)">
       <use xlink:href="#DejaVuSans-31"/>
       <use x="63.623047" xlink:href="#DejaVuSans-36"/>
       <use x="127.246094" xlink:href="#DejaVuSans-30"/>
       <use x="190.869141" xlink:href="#DejaVuSans-30"/>
       <use x="254.492188" xlink:href="#DejaVuSans-30"/>
      </g>
     </g>
    </g>
    <g id="ytick_5">
     <g id="line2d_11">
      <g>
       <use style="stroke:#000000;stroke-width:0.8;" x="59.690625" xlink:href="#m1bdafe9a9e" y="33.200664"/>
      </g>
     </g>
     <g id="text_12">
      <!-- 17000 -->
      <g transform="translate(20.878125 36.999883)scale(0.1 -0.1)">
       <defs>
        <path d="M 525 4666 
L 3525 4666 
L 3525 4397 
L 1831 0 
L 1172 0 
L 2766 4134 
L 525 4134 
L 525 4666 
z
" id="DejaVuSans-37" transform="scale(0.015625)"/>
       </defs>
       <use xlink:href="#DejaVuSans-31"/>
       <use x="63.623047" xlink:href="#DejaVuSans-37"/>
       <use x="127.246094" xlink:href="#DejaVuSans-30"/>
       <use x="190.869141" xlink:href="#DejaVuSans-30"/>
       <use x="254.492188" xlink:href="#DejaVuSans-30"/>
      </g>
     </g>
    </g>
    <g id="text_13">
     <!-- Code region coverage -->
     <g transform="translate(14.798438 210.379594)rotate(-90)scale(0.1 -0.1)">
      <defs>
       <path d="M 4122 4306 
L 4122 3641 
Q 3803 3938 3442 4084 
Q 3081 4231 2675 4231 
Q 1875 4231 1450 3742 
Q 1025 3253 1025 2328 
Q 1025 1406 1450 917 
Q 1875 428 2675 428 
Q 3081 428 3442 575 
Q 3803 722 4122 1019 
L 4122 359 
Q 3791 134 3420 21 
Q 3050 -91 2638 -91 
Q 1578 -91 968 557 
Q 359 1206 359 2328 
Q 359 3453 968 4101 
Q 1578 4750 2638 4750 
Q 3056 4750 3426 4639 
Q 3797 4528 4122 4306 
z
" id="DejaVuSans-43" transform="scale(0.015625)"/>
       <path d="M 2906 2969 
L 2906 4863 
L 3481 4863 
L 3481 0 
L 2906 0 
L 2906 525 
Q 2725 213 2448 61 
Q 2172 -91 1784 -91 
Q 1150 -91 751 415 
Q 353 922 353 1747 
Q 353 2572 751 3078 
Q 1150 3584 1784 3584 
Q 2172 3584 2448 3432 
Q 2725 3281 2906 2969 
z
M 947 1747 
Q 947 1113 1208 752 
Q 1469 391 1925 391 
Q 2381 391 2643 752 
Q 2906 1113 2906 1747 
Q 2906 2381 2643 2742 
Q 2381 3103 1925 3103 
Q 1469 3103 1208 2742 
Q 947 2381 947 1747 
z
" id="DejaVuSans-64" transform="scale(0.015625)"/>
       <path d="M 2906 1791 
Q 2906 2416 2648 2759 
Q 2391 3103 1925 3103 
Q 1463 3103 1205 2759 
Q 947 2416 947 1791 
Q 947 1169 1205 825 
Q 1463 481 1925 481 
Q 2391 481 2648 825 
Q 2906 1169 2906 1791 
z
M 3481 434 
Q 3481 -459 3084 -895 
Q 2688 -1331 1869 -1331 
Q 1566 -1331 1297 -1286 
Q 1028 -1241 775 -1147 
L 775 -588 
Q 1028 -725 1275 -790 
Q 1522 -856 1778 -856 
Q 2344 -856 2625 -561 
Q 2906 -266 2906 331 
L 2906 616 
Q 2728 306 2450 153 
Q 2172 0 1784 0 
Q 1141 0 747 490 
Q 353 981 353 1791 
Q 353 2603 747 3093 
Q 1141 3584 1784 3584 
Q 2172 3584 2450 3431 
Q 2728 3278 2906 2969 
L 2906 3500 
L 3481 3500 
L 3481 434 
z
" id="DejaVuSans-67" transform="scale(0.015625)"/>
       <path d="M 3122 3366 
L 3122 2828 
Q 2878 2963 2633 3030 
Q 2388 3097 2138 3097 
Q 1578 3097 1268 2742 
Q 959 2388 959 1747 
Q 959 1106 1268 751 
Q 1578 397 2138 397 
Q 2388 397 2633 464 
Q 2878 531 3122 666 
L 3122 134 
Q 2881 22 2623 -34 
Q 2366 -91 2075 -91 
Q 1284 -91 818 406 
Q 353 903 353 1747 
Q 353 2603 823 3093 
Q 1294 3584 2113 3584 
Q 2378 3584 2631 3529 
Q 2884 3475 3122 3366 
z
" id="DejaVuSans-63" transform="scale(0.015625)"/>
       <path d="M 191 3500 
L 800 3500 
L 1894 563 
L 2988 3500 
L 3597 3500 
L 2284 0 
L 1503 0 
L 191 3500 
z
" id="DejaVuSans-76" transform="scale(0.015625)"/>
       <path d="M 2194 1759 
Q 1497 1759 1228 1600 
Q 959 1441 959 1056 
Q 959 750 1161 570 
Q 1363 391 1709 391 
Q 2188 391 2477 730 
Q 2766 1069 2766 1631 
L 2766 1759 
L 2194 1759 
z
M 3341 1997 
L 3341 0 
L 2766 0 
L 2766 531 
Q 2569 213 2275 61 
Q 1981 -91 1556 -91 
Q 1019 -91 701 211 
Q 384 513 384 1019 
Q 384 1609 779 1909 
Q 1175 2209 1959 2209 
L 2766 2209 
L 2766 2266 
Q 2766 2663 2505 2880 
Q 2244 3097 1772 3097 
Q 1472 3097 1187 3025 
Q 903 2953 641 2809 
L 641 3341 
Q 956 3463 1253 3523 
Q 1550 3584 1831 3584 
Q 2591 3584 2966 3190 
Q 3341 2797 3341 1997 
z
" id="DejaVuSans-61" transform="scale(0.015625)"/>
      </defs>
      <use xlink:href="#DejaVuSans-43"/>
      <use x="69.824219" xlink:href="#DejaVuSans-6f"/>
      <use x="131.005859" xlink:href="#DejaVuSans-64"/>
      <use x="194.482422" xlink:href="#DejaVuSans-65"/>
      <use x="256.005859" xlink:href="#DejaVuSans-20"/>
      <use x="287.792969" xlink:href="#DejaVuSans-72"/>
      <use x="326.65625" xlink:href="#DejaVuSans-65"/>
      <use x="388.179688" xlink:href="#DejaVuSans-67"/>
      <use x="451.65625" xlink:href="#DejaVuSans-69"/>
      <use x="479.439453" xlink:href="#DejaVuSans-6f"/>
      <use x="540.621094" xlink:href="#DejaVuSans-6e"/>
      <use x="604" xlink:href="#DejaVuSans-20"/>
      <use x="635.787109" xlink:href="#DejaVuSans-63"/>
      <use x="690.767578" xlink:href="#DejaVuSans-6f"/>
      <use x="751.949219" xlink:href="#DejaVuSans-76"/>
      <use x="811.128906" xlink:href="#DejaVuSans-65"/>
      <use x="872.652344" xlink:href="#DejaVuSans-72"/>
      <use x="913.765625" xlink:href="#DejaVuSans-61"/>
      <use x="975.044922" xlink:href="#DejaVuSans-67"/>
      <use x="1038.521484" xlink:href="#DejaVuSans-65"/>
     </g>
    </g>
   </g>
   <g id="line2d_12">
    <path clip-path="url(#pcaa169ae5d)" d="M 75.923352 270.983865 
L 80.628491 247.955685 
L 85.333629 234.855821 
L 90.038767 225.313605 
L 94.743906 218.998092 
L 99.449044 216.929693 
L 104.154182 214.613085 
L 108.859321 213.178995 
L 113.564459 208.600938 
L 118.269597 209.262825 
L 122.974736 206.504959 
L 127.679874 202.092374 
L 132.385012 201.540801 
L 137.090151 200.603126 
L 141.795289 192.30195 
L 146.500427 189.020089 
L 151.205566 184.221403 
L 155.910704 180.305233 
L 160.615842 176.196013 
L 165.320981 172.472894 
L 170.026119 171.149118 
L 174.731257 168.777353 
L 179.436396 164.971498 
L 184.141534 160.393441 
L 188.846672 156.036013 
L 193.551811 145.280336 
L 198.256949 141.750267 
L 202.962087 137.392839 
L 207.667226 134.800445 
L 212.372364 132.814782 
L 217.077502 131.270377 
L 221.782641 126.912949 
L 226.487779 122.886464 
L 231.192917 118.473879 
L 235.898056 114.778338 
L 240.603194 111.827422 
L 245.308333 105.236122 
L 250.013471 101.044166 
L 254.718609 103.471088 
L 259.423748 102.257627 
L 264.128886 94.894125 
L 268.834024 91.584686 
L 273.539163 89.130185 
L 278.244301 88.302825 
L 282.949439 87.778831 
L 287.654578 83.338667 
L 292.359716 83.338667 
L 297.064854 82.621622 
L 301.769993 83.228352 
L 306.475131 85.655274 
L 311.180269 84.662442 
L 315.885408 83.697189 
L 320.590546 80.1947 
L 325.295684 80.884166 
L 330.000823 82.676779 
L 334.705961 80.1947 
L 339.411099 78.677873 
L 344.116238 77.878092 
L 348.821376 77.822935 
L 353.526514 76.69221 
L 358.231653 75.45117 
L 362.936791 75.202962 
L 367.641929 73.382771 
L 372.347068 72.16931 
L 377.052206 72.16931 
L 381.757344 70.211225 
L 386.462483 71.038585 
L 391.167621 69.190814 
L 395.872759 68.335876 
L 400.577898 67.398202 
" style="fill:none;stroke:#98df8a;stroke-linecap:square;stroke-width:1.5;"/>
    <defs>
     <path d="M -0 3 
L 3 -3 
L -3 -3 
z
" id="m41d58b38e8" style="stroke:#ffffff;stroke-linejoin:miter;stroke-width:0.75;"/>
    </defs>
    <g clip-path="url(#pcaa169ae5d)">
     <use style="fill:#98df8a;stroke:#ffffff;stroke-linejoin:miter;stroke-width:0.75;" x="75.923352" xlink:href="#m41d58b38e8" y="270.983865"/>
     <use style="fill:#98df8a;stroke:#ffffff;stroke-linejoin:miter;stroke-width:0.75;" x="80.628491" xlink:href="#m41d58b38e8" y="247.955685"/>
     <use style="fill:#98df8a;stroke:#ffffff;stroke-linejoin:miter;stroke-width:0.75;" x="85.333629" xlink:href="#m41d58b38e8" y="234.855821"/>
     <use style="fill:#98df8a;stroke:#ffffff;stroke-linejoin:miter;stroke-width:0.75;" x="90.038767" xlink:href="#m41d58b38e8" y="225.313605"/>
     <use style="fill:#98df8a;stroke:#ffffff;stroke-linejoin:miter;stroke-width:0.75;" x="94.743906" xlink:href="#m41d58b38e8" y="218.998092"/>
     <use style="fill:#98df8a;stroke:#ffffff;stroke-linejoin:miter;stroke-width:0.75;" x="99.449044" xlink:href="#m41d58b38e8" y="216.929693"/>
     <use style="fill:#98df8a;stroke:#ffffff;stroke-linejoin:miter;stroke-width:0.75;" x="104.154182" xlink:href="#m41d58b38e8" y="214.613085"/>
     <use style="fill:#98df8a;stroke:#ffffff;stroke-linejoin:miter;stroke-width:0.75;" x="108.859321" xlink:href="#m41d58b38e8" y="213.178995"/>
     <use style="fill:#98df8a;stroke:#ffffff;stroke-linejoin:miter;stroke-width:0.75;" x="113.564459" xlink:href="#m41d58b38e8" y="208.600938"/>
     <use style="fill:#98df8a;stroke:#ffffff;stroke-linejoin:miter;stroke-width:0.75;" x="118.269597" xlink:href="#m41d58b38e8" y="209.262825"/>
     <use style="fill:#98df8a;stroke:#ffffff;stroke-linejoin:miter;stroke-width:0.75;" x="122.974736" xlink:href="#m41d58b38e8" y="206.504959"/>
     <use style="fill:#98df8a;stroke:#ffffff;stroke-linejoin:miter;stroke-width:0.75;" x="127.679874" xlink:href="#m41d58b38e8" y="202.092374"/>
     <use style="fill:#98df8a;stroke:#ffffff;stroke-linejoin:miter;stroke-width:0.75;" x="132.385012" xlink:href="#m41d58b38e8" y="201.540801"/>
     <use style="fill:#98df8a;stroke:#ffffff;stroke-linejoin:miter;stroke-width:0.75;" x="137.090151" xlink:href="#m41d58b38e8" y="200.603126"/>
     <use style="fill:#98df8a;stroke:#ffffff;stroke-linejoin:miter;stroke-width:0.75;" x="141.795289" xlink:href="#m41d58b38e8" y="192.30195"/>
     <use style="fill:#98df8a;stroke:#ffffff;stroke-linejoin:miter;stroke-width:0.75;" x="146.500427" xlink:href="#m41d58b38e8" y="189.020089"/>
     <use style="fill:#98df8a;stroke:#ffffff;stroke-linejoin:miter;stroke-width:0.75;" x="151.205566" xlink:href="#m41d58b38e8" y="184.221403"/>
     <use style="fill:#98df8a;stroke:#ffffff;stroke-linejoin:miter;stroke-width:0.75;" x="155.910704" xlink:href="#m41d58b38e8" y="180.305233"/>
     <use style="fill:#98df8a;stroke:#ffffff;stroke-linejoin:miter;stroke-width:0.75;" x="160.615842" xlink:href="#m41d58b38e8" y="176.196013"/>
     <use style="fill:#98df8a;stroke:#ffffff;stroke-linejoin:miter;stroke-width:0.75;" x="165.320981" xlink:href="#m41d58b38e8" y="172.472894"/>
     <use style="fill:#98df8a;stroke:#ffffff;stroke-linejoin:miter;stroke-width:0.75;" x="170.026119" xlink:href="#m41d58b38e8" y="171.149118"/>
     <use style="fill:#98df8a;stroke:#ffffff;stroke-linejoin:miter;stroke-width:0.75;" x="174.731257" xlink:href="#m41d58b38e8" y="168.777353"/>
     <use style="fill:#98df8a;stroke:#ffffff;stroke-linejoin:miter;stroke-width:0.75;" x="179.436396" xlink:href="#m41d58b38e8" y="164.971498"/>
     <use style="fill:#98df8a;stroke:#ffffff;stroke-linejoin:miter;stroke-width:0.75;" x="184.141534" xlink:href="#m41d58b38e8" y="160.393441"/>
     <use style="fill:#98df8a;stroke:#ffffff;stroke-linejoin:miter;stroke-width:0.75;" x="188.846672" xlink:href="#m41d58b38e8" y="156.036013"/>
     <use style="fill:#98df8a;stroke:#ffffff;stroke-linejoin:miter;stroke-width:0.75;" x="193.551811" xlink:href="#m41d58b38e8" y="145.280336"/>
     <use style="fill:#98df8a;stroke:#ffffff;stroke-linejoin:miter;stroke-width:0.75;" x="198.256949" xlink:href="#m41d58b38e8" y="141.750267"/>
     <use style="fill:#98df8a;stroke:#ffffff;stroke-linejoin:miter;stroke-width:0.75;" x="202.962087" xlink:href="#m41d58b38e8" y="137.392839"/>
     <use style="fill:#98df8a;stroke:#ffffff;stroke-linejoin:miter;stroke-width:0.75;" x="207.667226" xlink:href="#m41d58b38e8" y="134.800445"/>
     <use style="fill:#98df8a;stroke:#ffffff;stroke-linejoin:miter;stroke-width:0.75;" x="212.372364" xlink:href="#m41d58b38e8" y="132.814782"/>
     <use style="fill:#98df8a;stroke:#ffffff;stroke-linejoin:miter;stroke-width:0.75;" x="217.077502" xlink:href="#m41d58b38e8" y="131.270377"/>
     <use style="fill:#98df8a;stroke:#ffffff;stroke-linejoin:miter;stroke-width:0.75;" x="221.782641" xlink:href="#m41d58b38e8" y="126.912949"/>
     <use style="fill:#98df8a;stroke:#ffffff;stroke-linejoin:miter;stroke-width:0.75;" x="226.487779" xlink:href="#m41d58b38e8" y="122.886464"/>
     <use style="fill:#98df8a;stroke:#ffffff;stroke-linejoin:miter;stroke-width:0.75;" x="231.192917" xlink:href="#m41d58b38e8" y="118.473879"/>
     <use style="fill:#98df8a;stroke:#ffffff;stroke-linejoin:miter;stroke-width:0.75;" x="235.898056" xlink:href="#m41d58b38e8" y="114.778338"/>
     <use style="fill:#98df8a;stroke:#ffffff;stroke-linejoin:miter;stroke-width:0.75;" x="240.603194" xlink:href="#m41d58b38e8" y="111.827422"/>
     <use style="fill:#98df8a;stroke:#ffffff;stroke-linejoin:miter;stroke-width:0.75;" x="245.308333" xlink:href="#m41d58b38e8" y="105.236122"/>
     <use style="fill:#98df8a;stroke:#ffffff;stroke-linejoin:miter;stroke-width:0.75;" x="250.013471" xlink:href="#m41d58b38e8" y="101.044166"/>
     <use style="fill:#98df8a;stroke:#ffffff;stroke-linejoin:miter;stroke-width:0.75;" x="254.718609" xlink:href="#m41d58b38e8" y="103.471088"/>
     <use style="fill:#98df8a;stroke:#ffffff;stroke-linejoin:miter;stroke-width:0.75;" x="259.423748" xlink:href="#m41d58b38e8" y="102.257627"/>
     <use style="fill:#98df8a;stroke:#ffffff;stroke-linejoin:miter;stroke-width:0.75;" x="264.128886" xlink:href="#m41d58b38e8" y="94.894125"/>
     <use style="fill:#98df8a;stroke:#ffffff;stroke-linejoin:miter;stroke-width:0.75;" x="268.834024" xlink:href="#m41d58b38e8" y="91.584686"/>
     <use style="fill:#98df8a;stroke:#ffffff;stroke-linejoin:miter;stroke-width:0.75;" x="273.539163" xlink:href="#m41d58b38e8" y="89.130185"/>
     <use style="fill:#98df8a;stroke:#ffffff;stroke-linejoin:miter;stroke-width:0.75;" x="278.244301" xlink:href="#m41d58b38e8" y="88.302825"/>
     <use style="fill:#98df8a;stroke:#ffffff;stroke-linejoin:miter;stroke-width:0.75;" x="282.949439" xlink:href="#m41d58b38e8" y="87.778831"/>
     <use style="fill:#98df8a;stroke:#ffffff;stroke-linejoin:miter;stroke-width:0.75;" x="287.654578" xlink:href="#m41d58b38e8" y="83.338667"/>
     <use style="fill:#98df8a;stroke:#ffffff;stroke-linejoin:miter;stroke-width:0.75;" x="292.359716" xlink:href="#m41d58b38e8" y="83.338667"/>
     <use style="fill:#98df8a;stroke:#ffffff;stroke-linejoin:miter;stroke-width:0.75;" x="297.064854" xlink:href="#m41d58b38e8" y="82.621622"/>
     <use style="fill:#98df8a;stroke:#ffffff;stroke-linejoin:miter;stroke-width:0.75;" x="301.769993" xlink:href="#m41d58b38e8" y="83.228352"/>
     <use style="fill:#98df8a;stroke:#ffffff;stroke-linejoin:miter;stroke-width:0.75;" x="306.475131" xlink:href="#m41d58b38e8" y="85.655274"/>
     <use style="fill:#98df8a;stroke:#ffffff;stroke-linejoin:miter;stroke-width:0.75;" x="311.180269" xlink:href="#m41d58b38e8" y="84.662442"/>
     <use style="fill:#98df8a;stroke:#ffffff;stroke-linejoin:miter;stroke-width:0.75;" x="315.885408" xlink:href="#m41d58b38e8" y="83.697189"/>
     <use style="fill:#98df8a;stroke:#ffffff;stroke-linejoin:miter;stroke-width:0.75;" x="320.590546" xlink:href="#m41d58b38e8" y="80.1947"/>
     <use style="fill:#98df8a;stroke:#ffffff;stroke-linejoin:miter;stroke-width:0.75;" x="325.295684" xlink:href="#m41d58b38e8" y="80.884166"/>
     <use style="fill:#98df8a;stroke:#ffffff;stroke-linejoin:miter;stroke-width:0.75;" x="330.000823" xlink:href="#m41d58b38e8" y="82.676779"/>
     <use style="fill:#98df8a;stroke:#ffffff;stroke-linejoin:miter;stroke-width:0.75;" x="334.705961" xlink:href="#m41d58b38e8" y="80.1947"/>
     <use style="fill:#98df8a;stroke:#ffffff;stroke-linejoin:miter;stroke-width:0.75;" x="339.411099" xlink:href="#m41d58b38e8" y="78.677873"/>
     <use style="fill:#98df8a;stroke:#ffffff;stroke-linejoin:miter;stroke-width:0.75;" x="344.116238" xlink:href="#m41d58b38e8" y="77.878092"/>
     <use style="fill:#98df8a;stroke:#ffffff;stroke-linejoin:miter;stroke-width:0.75;" x="348.821376" xlink:href="#m41d58b38e8" y="77.822935"/>
     <use style="fill:#98df8a;stroke:#ffffff;stroke-linejoin:miter;stroke-width:0.75;" x="353.526514" xlink:href="#m41d58b38e8" y="76.69221"/>
     <use style="fill:#98df8a;stroke:#ffffff;stroke-linejoin:miter;stroke-width:0.75;" x="358.231653" xlink:href="#m41d58b38e8" y="75.45117"/>
     <use style="fill:#98df8a;stroke:#ffffff;stroke-linejoin:miter;stroke-width:0.75;" x="362.936791" xlink:href="#m41d58b38e8" y="75.202962"/>
     <use style="fill:#98df8a;stroke:#ffffff;stroke-linejoin:miter;stroke-width:0.75;" x="367.641929" xlink:href="#m41d58b38e8" y="73.382771"/>
     <use style="fill:#98df8a;stroke:#ffffff;stroke-linejoin:miter;stroke-width:0.75;" x="372.347068" xlink:href="#m41d58b38e8" y="72.16931"/>
     <use style="fill:#98df8a;stroke:#ffffff;stroke-linejoin:miter;stroke-width:0.75;" x="377.052206" xlink:href="#m41d58b38e8" y="72.16931"/>
     <use style="fill:#98df8a;stroke:#ffffff;stroke-linejoin:miter;stroke-width:0.75;" x="381.757344" xlink:href="#m41d58b38e8" y="70.211225"/>
     <use style="fill:#98df8a;stroke:#ffffff;stroke-linejoin:miter;stroke-width:0.75;" x="386.462483" xlink:href="#m41d58b38e8" y="71.038585"/>
     <use style="fill:#98df8a;stroke:#ffffff;stroke-linejoin:miter;stroke-width:0.75;" x="391.167621" xlink:href="#m41d58b38e8" y="69.190814"/>
     <use style="fill:#98df8a;stroke:#ffffff;stroke-linejoin:miter;stroke-width:0.75;" x="395.872759" xlink:href="#m41d58b38e8" y="68.335876"/>
     <use style="fill:#98df8a;stroke:#ffffff;stroke-linejoin:miter;stroke-width:0.75;" x="400.577898" xlink:href="#m41d58b38e8" y="67.398202"/>
    </g>
   </g>
   <g id="line2d_13">
    <path clip-path="url(#pcaa169ae5d)" d="M 75.923352 273.521102 
L 80.628491 260.890076 
L 85.333629 244.894453 
L 90.038767 230.443236 
L 94.743906 222.224795 
L 99.449044 215.385288 
L 104.154182 214.116669 
L 108.859321 212.296478 
L 113.564459 210.834809 
L 118.269597 209.180089 
L 122.974736 206.063701 
L 127.679874 202.202689 
L 132.385012 202.368161 
L 137.090151 198.203783 
L 141.795289 196.273277 
L 146.500427 195.032237 
L 151.205566 189.930185 
L 155.910704 186.151909 
L 160.615842 182.290897 
L 165.320981 177.106109 
L 170.026119 170.156286 
L 174.731257 165.633386 
L 179.436396 164.254453 
L 184.141534 157.883783 
L 188.846672 151.402798 
L 193.551811 148.47946 
L 198.256949 148.093359 
L 202.962087 143.404987 
L 207.667226 141.970897 
L 212.372364 139.709446 
L 217.077502 131.82195 
L 221.782641 128.071252 
L 226.487779 128.071252 
L 231.192917 127.409364 
L 235.898056 126.030431 
L 240.603194 123.18983 
L 245.308333 119.797654 
L 250.013471 119.521868 
L 254.718609 117.729255 
L 259.423748 115.633277 
L 264.128886 113.785507 
L 268.834024 113.785507 
L 273.539163 112.020472 
L 278.244301 111.744686 
L 282.949439 109.345343 
L 287.654578 108.904084 
L 292.359716 105.953167 
L 297.064854 104.850021 
L 301.769993 103.857189 
L 306.475131 104.132976 
L 311.180269 98.534508 
L 315.885408 97.707148 
L 320.590546 97.514098 
L 325.295684 96.631581 
L 330.000823 93.653085 
L 334.705961 93.653085 
L 339.411099 93.790979 
L 344.116238 92.053523 
L 348.821376 90.06786 
L 353.526514 90.06786 
L 358.231653 88.275247 
L 362.936791 88.220089 
L 367.641929 91.446793 
L 372.347068 91.198585 
L 377.052206 91.391635 
L 381.757344 90.619433 
L 386.462483 89.902388 
L 391.167621 89.736916 
L 395.872759 88.247668 
L 400.577898 88.964713 
" style="fill:none;stroke:#1f77b4;stroke-linecap:square;stroke-width:1.5;"/>
    <defs>
     <path d="M 0 3 
C 0.795609 3 1.55874 2.683901 2.12132 2.12132 
C 2.683901 1.55874 3 0.795609 3 0 
C 3 -0.795609 2.683901 -1.55874 2.12132 -2.12132 
C 1.55874 -2.683901 0.795609 -3 0 -3 
C -0.795609 -3 -1.55874 -2.683901 -2.12132 -2.12132 
C -2.683901 -1.55874 -3 -0.795609 -3 0 
C -3 0.795609 -2.683901 1.55874 -2.12132 2.12132 
C -1.55874 2.683901 -0.795609 3 0 3 
z
" id="mc39007b5e9" style="stroke:#ffffff;stroke-width:0.75;"/>
    </defs>
    <g clip-path="url(#pcaa169ae5d)">
     <use style="fill:#1f77b4;stroke:#ffffff;stroke-width:0.75;" x="75.923352" xlink:href="#mc39007b5e9" y="273.521102"/>
     <use style="fill:#1f77b4;stroke:#ffffff;stroke-width:0.75;" x="80.628491" xlink:href="#mc39007b5e9" y="260.890076"/>
     <use style="fill:#1f77b4;stroke:#ffffff;stroke-width:0.75;" x="85.333629" xlink:href="#mc39007b5e9" y="244.894453"/>
     <use style="fill:#1f77b4;stroke:#ffffff;stroke-width:0.75;" x="90.038767" xlink:href="#mc39007b5e9" y="230.443236"/>
     <use style="fill:#1f77b4;stroke:#ffffff;stroke-width:0.75;" x="94.743906" xlink:href="#mc39007b5e9" y="222.224795"/>
     <use style="fill:#1f77b4;stroke:#ffffff;stroke-width:0.75;" x="99.449044" xlink:href="#mc39007b5e9" y="215.385288"/>
     <use style="fill:#1f77b4;stroke:#ffffff;stroke-width:0.75;" x="104.154182" xlink:href="#mc39007b5e9" y="214.116669"/>
     <use style="fill:#1f77b4;stroke:#ffffff;stroke-width:0.75;" x="108.859321" xlink:href="#mc39007b5e9" y="212.296478"/>
     <use style="fill:#1f77b4;stroke:#ffffff;stroke-width:0.75;" x="113.564459" xlink:href="#mc39007b5e9" y="210.834809"/>
     <use style="fill:#1f77b4;stroke:#ffffff;stroke-width:0.75;" x="118.269597" xlink:href="#mc39007b5e9" y="209.180089"/>
     <use style="fill:#1f77b4;stroke:#ffffff;stroke-width:0.75;" x="122.974736" xlink:href="#mc39007b5e9" y="206.063701"/>
     <use style="fill:#1f77b4;stroke:#ffffff;stroke-width:0.75;" x="127.679874" xlink:href="#mc39007b5e9" y="202.202689"/>
     <use style="fill:#1f77b4;stroke:#ffffff;stroke-width:0.75;" x="132.385012" xlink:href="#mc39007b5e9" y="202.368161"/>
     <use style="fill:#1f77b4;stroke:#ffffff;stroke-width:0.75;" x="137.090151" xlink:href="#mc39007b5e9" y="198.203783"/>
     <use style="fill:#1f77b4;stroke:#ffffff;stroke-width:0.75;" x="141.795289" xlink:href="#mc39007b5e9" y="196.273277"/>
     <use style="fill:#1f77b4;stroke:#ffffff;stroke-width:0.75;" x="146.500427" xlink:href="#mc39007b5e9" y="195.032237"/>
     <use style="fill:#1f77b4;stroke:#ffffff;stroke-width:0.75;" x="151.205566" xlink:href="#mc39007b5e9" y="189.930185"/>
     <use style="fill:#1f77b4;stroke:#ffffff;stroke-width:0.75;" x="155.910704" xlink:href="#mc39007b5e9" y="186.151909"/>
     <use style="fill:#1f77b4;stroke:#ffffff;stroke-width:0.75;" x="160.615842" xlink:href="#mc39007b5e9" y="182.290897"/>
     <use style="fill:#1f77b4;stroke:#ffffff;stroke-width:0.75;" x="165.320981" xlink:href="#mc39007b5e9" y="177.106109"/>
     <use style="fill:#1f77b4;stroke:#ffffff;stroke-width:0.75;" x="170.026119" xlink:href="#mc39007b5e9" y="170.156286"/>
     <use style="fill:#1f77b4;stroke:#ffffff;stroke-width:0.75;" x="174.731257" xlink:href="#mc39007b5e9" y="165.633386"/>
     <use style="fill:#1f77b4;stroke:#ffffff;stroke-width:0.75;" x="179.436396" xlink:href="#mc39007b5e9" y="164.254453"/>
     <use style="fill:#1f77b4;stroke:#ffffff;stroke-width:0.75;" x="184.141534" xlink:href="#mc39007b5e9" y="157.883783"/>
     <use style="fill:#1f77b4;stroke:#ffffff;stroke-width:0.75;" x="188.846672" xlink:href="#mc39007b5e9" y="151.402798"/>
     <use style="fill:#1f77b4;stroke:#ffffff;stroke-width:0.75;" x="193.551811" xlink:href="#mc39007b5e9" y="148.47946"/>
     <use style="fill:#1f77b4;stroke:#ffffff;stroke-width:0.75;" x="198.256949" xlink:href="#mc39007b5e9" y="148.093359"/>
     <use style="fill:#1f77b4;stroke:#ffffff;stroke-width:0.75;" x="202.962087" xlink:href="#mc39007b5e9" y="143.404987"/>
     <use style="fill:#1f77b4;stroke:#ffffff;stroke-width:0.75;" x="207.667226" xlink:href="#mc39007b5e9" y="141.970897"/>
     <use style="fill:#1f77b4;stroke:#ffffff;stroke-width:0.75;" x="212.372364" xlink:href="#mc39007b5e9" y="139.709446"/>
     <use style="fill:#1f77b4;stroke:#ffffff;stroke-width:0.75;" x="217.077502" xlink:href="#mc39007b5e9" y="131.82195"/>
     <use style="fill:#1f77b4;stroke:#ffffff;stroke-width:0.75;" x="221.782641" xlink:href="#mc39007b5e9" y="128.071252"/>
     <use style="fill:#1f77b4;stroke:#ffffff;stroke-width:0.75;" x="226.487779" xlink:href="#mc39007b5e9" y="128.071252"/>
     <use style="fill:#1f77b4;stroke:#ffffff;stroke-width:0.75;" x="231.192917" xlink:href="#mc39007b5e9" y="127.409364"/>
     <use style="fill:#1f77b4;stroke:#ffffff;stroke-width:0.75;" x="235.898056" xlink:href="#mc39007b5e9" y="126.030431"/>
     <use style="fill:#1f77b4;stroke:#ffffff;stroke-width:0.75;" x="240.603194" xlink:href="#mc39007b5e9" y="123.18983"/>
     <use style="fill:#1f77b4;stroke:#ffffff;stroke-width:0.75;" x="245.308333" xlink:href="#mc39007b5e9" y="119.797654"/>
     <use style="fill:#1f77b4;stroke:#ffffff;stroke-width:0.75;" x="250.013471" xlink:href="#mc39007b5e9" y="119.521868"/>
     <use style="fill:#1f77b4;stroke:#ffffff;stroke-width:0.75;" x="254.718609" xlink:href="#mc39007b5e9" y="117.729255"/>
     <use style="fill:#1f77b4;stroke:#ffffff;stroke-width:0.75;" x="259.423748" xlink:href="#mc39007b5e9" y="115.633277"/>
     <use style="fill:#1f77b4;stroke:#ffffff;stroke-width:0.75;" x="264.128886" xlink:href="#mc39007b5e9" y="113.785507"/>
     <use style="fill:#1f77b4;stroke:#ffffff;stroke-width:0.75;" x="268.834024" xlink:href="#mc39007b5e9" y="113.785507"/>
     <use style="fill:#1f77b4;stroke:#ffffff;stroke-width:0.75;" x="273.539163" xlink:href="#mc39007b5e9" y="112.020472"/>
     <use style="fill:#1f77b4;stroke:#ffffff;stroke-width:0.75;" x="278.244301" xlink:href="#mc39007b5e9" y="111.744686"/>
     <use style="fill:#1f77b4;stroke:#ffffff;stroke-width:0.75;" x="282.949439" xlink:href="#mc39007b5e9" y="109.345343"/>
     <use style="fill:#1f77b4;stroke:#ffffff;stroke-width:0.75;" x="287.654578" xlink:href="#mc39007b5e9" y="108.904084"/>
     <use style="fill:#1f77b4;stroke:#ffffff;stroke-width:0.75;" x="292.359716" xlink:href="#mc39007b5e9" y="105.953167"/>
     <use style="fill:#1f77b4;stroke:#ffffff;stroke-width:0.75;" x="297.064854" xlink:href="#mc39007b5e9" y="104.850021"/>
     <use style="fill:#1f77b4;stroke:#ffffff;stroke-width:0.75;" x="301.769993" xlink:href="#mc39007b5e9" y="103.857189"/>
     <use style="fill:#1f77b4;stroke:#ffffff;stroke-width:0.75;" x="306.475131" xlink:href="#mc39007b5e9" y="104.132976"/>
     <use style="fill:#1f77b4;stroke:#ffffff;stroke-width:0.75;" x="311.180269" xlink:href="#mc39007b5e9" y="98.534508"/>
     <use style="fill:#1f77b4;stroke:#ffffff;stroke-width:0.75;" x="315.885408" xlink:href="#mc39007b5e9" y="97.707148"/>
     <use style="fill:#1f77b4;stroke:#ffffff;stroke-width:0.75;" x="320.590546" xlink:href="#mc39007b5e9" y="97.514098"/>
     <use style="fill:#1f77b4;stroke:#ffffff;stroke-width:0.75;" x="325.295684" xlink:href="#mc39007b5e9" y="96.631581"/>
     <use style="fill:#1f77b4;stroke:#ffffff;stroke-width:0.75;" x="330.000823" xlink:href="#mc39007b5e9" y="93.653085"/>
     <use style="fill:#1f77b4;stroke:#ffffff;stroke-width:0.75;" x="334.705961" xlink:href="#mc39007b5e9" y="93.653085"/>
     <use style="fill:#1f77b4;stroke:#ffffff;stroke-width:0.75;" x="339.411099" xlink:href="#mc39007b5e9" y="93.790979"/>
     <use style="fill:#1f77b4;stroke:#ffffff;stroke-width:0.75;" x="344.116238" xlink:href="#mc39007b5e9" y="92.053523"/>
     <use style="fill:#1f77b4;stroke:#ffffff;stroke-width:0.75;" x="348.821376" xlink:href="#mc39007b5e9" y="90.06786"/>
     <use style="fill:#1f77b4;stroke:#ffffff;stroke-width:0.75;" x="353.526514" xlink:href="#mc39007b5e9" y="90.06786"/>
     <use style="fill:#1f77b4;stroke:#ffffff;stroke-width:0.75;" x="358.231653" xlink:href="#mc39007b5e9" y="88.275247"/>
     <use style="fill:#1f77b4;stroke:#ffffff;stroke-width:0.75;" x="362.936791" xlink:href="#mc39007b5e9" y="88.220089"/>
     <use style="fill:#1f77b4;stroke:#ffffff;stroke-width:0.75;" x="367.641929" xlink:href="#mc39007b5e9" y="91.446793"/>
     <use style="fill:#1f77b4;stroke:#ffffff;stroke-width:0.75;" x="372.347068" xlink:href="#mc39007b5e9" y="91.198585"/>
     <use style="fill:#1f77b4;stroke:#ffffff;stroke-width:0.75;" x="377.052206" xlink:href="#mc39007b5e9" y="91.391635"/>
     <use style="fill:#1f77b4;stroke:#ffffff;stroke-width:0.75;" x="381.757344" xlink:href="#mc39007b5e9" y="90.619433"/>
     <use style="fill:#1f77b4;stroke:#ffffff;stroke-width:0.75;" x="386.462483" xlink:href="#mc39007b5e9" y="89.902388"/>
     <use style="fill:#1f77b4;stroke:#ffffff;stroke-width:0.75;" x="391.167621" xlink:href="#mc39007b5e9" y="89.736916"/>
     <use style="fill:#1f77b4;stroke:#ffffff;stroke-width:0.75;" x="395.872759" xlink:href="#mc39007b5e9" y="88.247668"/>
     <use style="fill:#1f77b4;stroke:#ffffff;stroke-width:0.75;" x="400.577898" xlink:href="#mc39007b5e9" y="88.964713"/>
    </g>
   </g>
   <g id="line2d_14">
    <path clip-path="url(#pcaa169ae5d)" d="M 75.923352 261.938065 
L 80.628491 245.059925 
L 85.333629 242.246902 
L 90.038767 240.481868 
L 94.743906 233.201102 
L 99.449044 224.265616 
L 104.154182 218.198311 
L 108.859321 213.509939 
L 113.564459 206.28433 
L 118.269597 202.17511 
L 122.974736 195.501074 
L 127.679874 193.156888 
L 132.385012 192.770787 
L 137.090151 191.88827 
L 141.795289 191.309118 
L 146.500427 191.309118 
L 151.205566 191.005753 
L 155.910704 196.328434 
L 160.615842 193.12931 
L 165.320981 191.557326 
L 170.026119 189.847449 
L 174.731257 189.461348 
L 179.436396 189.516505 
L 184.141534 189.268297 
L 188.846672 188.909775 
L 193.551811 181.242907 
L 198.256949 176.168434 
L 202.962087 183.835301 
L 207.667226 188.027258 
L 212.372364 183.476779 
L 217.077502 182.01511 
L 221.782641 178.429884 
L 226.487779 178.429884 
L 231.192917 178.429884 
L 235.898056 178.374727 
L 240.603194 178.209255 
L 245.308333 171.783427 
L 250.013471 178.154098 
L 254.718609 169.494399 
L 259.423748 172.55563 
L 264.128886 171.231854 
L 268.834024 168.749775 
L 273.539163 172.886574 
L 278.244301 168.749775 
L 282.949439 169.439241 
L 287.654578 166.846847 
L 292.359716 164.806027 
L 297.064854 164.364768 
L 301.769993 169.218612 
L 306.475131 174.679187 
L 311.180269 164.750869 
L 315.885408 162.434262 
L 320.590546 164.750869 
L 325.295684 168.749775 
L 330.000823 164.750869 
L 334.705961 162.323947 
L 339.411099 162.323947 
L 344.116238 164.475083 
L 348.821376 168.22578 
L 353.526514 164.999077 
L 358.231653 161.882689 
L 362.936791 154.105507 
L 367.641929 157.221895 
L 372.347068 157.221895 
L 377.052206 156.201485 
L 381.757344 151.402798 
L 386.462483 149.30682 
L 391.167621 150.079022 
L 395.872759 150.079022 
L 400.577898 152.478366 
" style="fill:none;stroke:#d62728;stroke-linecap:square;stroke-width:1.5;"/>
    <defs>
     <path d="M 0 -3 
L -3 3 
L 3 3 
z
" id="mfc0151bd94" style="stroke:#ffffff;stroke-linejoin:miter;stroke-width:0.75;"/>
    </defs>
    <g clip-path="url(#pcaa169ae5d)">
     <use style="fill:#d62728;stroke:#ffffff;stroke-linejoin:miter;stroke-width:0.75;" x="75.923352" xlink:href="#mfc0151bd94" y="261.938065"/>
     <use style="fill:#d62728;stroke:#ffffff;stroke-linejoin:miter;stroke-width:0.75;" x="80.628491" xlink:href="#mfc0151bd94" y="245.059925"/>
     <use style="fill:#d62728;stroke:#ffffff;stroke-linejoin:miter;stroke-width:0.75;" x="85.333629" xlink:href="#mfc0151bd94" y="242.246902"/>
     <use style="fill:#d62728;stroke:#ffffff;stroke-linejoin:miter;stroke-width:0.75;" x="90.038767" xlink:href="#mfc0151bd94" y="240.481868"/>
     <use style="fill:#d62728;stroke:#ffffff;stroke-linejoin:miter;stroke-width:0.75;" x="94.743906" xlink:href="#mfc0151bd94" y="233.201102"/>
     <use style="fill:#d62728;stroke:#ffffff;stroke-linejoin:miter;stroke-width:0.75;" x="99.449044" xlink:href="#mfc0151bd94" y="224.265616"/>
     <use style="fill:#d62728;stroke:#ffffff;stroke-linejoin:miter;stroke-width:0.75;" x="104.154182" xlink:href="#mfc0151bd94" y="218.198311"/>
     <use style="fill:#d62728;stroke:#ffffff;stroke-linejoin:miter;stroke-width:0.75;" x="108.859321" xlink:href="#mfc0151bd94" y="213.509939"/>
     <use style="fill:#d62728;stroke:#ffffff;stroke-linejoin:miter;stroke-width:0.75;" x="113.564459" xlink:href="#mfc0151bd94" y="206.28433"/>
     <use style="fill:#d62728;stroke:#ffffff;stroke-linejoin:miter;stroke-width:0.75;" x="118.269597" xlink:href="#mfc0151bd94" y="202.17511"/>
     <use style="fill:#d62728;stroke:#ffffff;stroke-linejoin:miter;stroke-width:0.75;" x="122.974736" xlink:href="#mfc0151bd94" y="195.501074"/>
     <use style="fill:#d62728;stroke:#ffffff;stroke-linejoin:miter;stroke-width:0.75;" x="127.679874" xlink:href="#mfc0151bd94" y="193.156888"/>
     <use style="fill:#d62728;stroke:#ffffff;stroke-linejoin:miter;stroke-width:0.75;" x="132.385012" xlink:href="#mfc0151bd94" y="192.770787"/>
     <use style="fill:#d62728;stroke:#ffffff;stroke-linejoin:miter;stroke-width:0.75;" x="137.090151" xlink:href="#mfc0151bd94" y="191.88827"/>
     <use style="fill:#d62728;stroke:#ffffff;stroke-linejoin:miter;stroke-width:0.75;" x="141.795289" xlink:href="#mfc0151bd94" y="191.309118"/>
     <use style="fill:#d62728;stroke:#ffffff;stroke-linejoin:miter;stroke-width:0.75;" x="146.500427" xlink:href="#mfc0151bd94" y="191.309118"/>
     <use style="fill:#d62728;stroke:#ffffff;stroke-linejoin:miter;stroke-width:0.75;" x="151.205566" xlink:href="#mfc0151bd94" y="191.005753"/>
     <use style="fill:#d62728;stroke:#ffffff;stroke-linejoin:miter;stroke-width:0.75;" x="155.910704" xlink:href="#mfc0151bd94" y="196.328434"/>
     <use style="fill:#d62728;stroke:#ffffff;stroke-linejoin:miter;stroke-width:0.75;" x="160.615842" xlink:href="#mfc0151bd94" y="193.12931"/>
     <use style="fill:#d62728;stroke:#ffffff;stroke-linejoin:miter;stroke-width:0.75;" x="165.320981" xlink:href="#mfc0151bd94" y="191.557326"/>
     <use style="fill:#d62728;stroke:#ffffff;stroke-linejoin:miter;stroke-width:0.75;" x="170.026119" xlink:href="#mfc0151bd94" y="189.847449"/>
     <use style="fill:#d62728;stroke:#ffffff;stroke-linejoin:miter;stroke-width:0.75;" x="174.731257" xlink:href="#mfc0151bd94" y="189.461348"/>
     <use style="fill:#d62728;stroke:#ffffff;stroke-linejoin:miter;stroke-width:0.75;" x="179.436396" xlink:href="#mfc0151bd94" y="189.516505"/>
     <use style="fill:#d62728;stroke:#ffffff;stroke-linejoin:miter;stroke-width:0.75;" x="184.141534" xlink:href="#mfc0151bd94" y="189.268297"/>
     <use style="fill:#d62728;stroke:#ffffff;stroke-linejoin:miter;stroke-width:0.75;" x="188.846672" xlink:href="#mfc0151bd94" y="188.909775"/>
     <use style="fill:#d62728;stroke:#ffffff;stroke-linejoin:miter;stroke-width:0.75;" x="193.551811" xlink:href="#mfc0151bd94" y="181.242907"/>
     <use style="fill:#d62728;stroke:#ffffff;stroke-linejoin:miter;stroke-width:0.75;" x="198.256949" xlink:href="#mfc0151bd94" y="176.168434"/>
     <use style="fill:#d62728;stroke:#ffffff;stroke-linejoin:miter;stroke-width:0.75;" x="202.962087" xlink:href="#mfc0151bd94" y="183.835301"/>
     <use style="fill:#d62728;stroke:#ffffff;stroke-linejoin:miter;stroke-width:0.75;" x="207.667226" xlink:href="#mfc0151bd94" y="188.027258"/>
     <use style="fill:#d62728;stroke:#ffffff;stroke-linejoin:miter;stroke-width:0.75;" x="212.372364" xlink:href="#mfc0151bd94" y="183.476779"/>
     <use style="fill:#d62728;stroke:#ffffff;stroke-linejoin:miter;stroke-width:0.75;" x="217.077502" xlink:href="#mfc0151bd94" y="182.01511"/>
     <use style="fill:#d62728;stroke:#ffffff;stroke-linejoin:miter;stroke-width:0.75;" x="221.782641" xlink:href="#mfc0151bd94" y="178.429884"/>
     <use style="fill:#d62728;stroke:#ffffff;stroke-linejoin:miter;stroke-width:0.75;" x="226.487779" xlink:href="#mfc0151bd94" y="178.429884"/>
     <use style="fill:#d62728;stroke:#ffffff;stroke-linejoin:miter;stroke-width:0.75;" x="231.192917" xlink:href="#mfc0151bd94" y="178.429884"/>
     <use style="fill:#d62728;stroke:#ffffff;stroke-linejoin:miter;stroke-width:0.75;" x="235.898056" xlink:href="#mfc0151bd94" y="178.374727"/>
     <use style="fill:#d62728;stroke:#ffffff;stroke-linejoin:miter;stroke-width:0.75;" x="240.603194" xlink:href="#mfc0151bd94" y="178.209255"/>
     <use style="fill:#d62728;stroke:#ffffff;stroke-linejoin:miter;stroke-width:0.75;" x="245.308333" xlink:href="#mfc0151bd94" y="171.783427"/>
     <use style="fill:#d62728;stroke:#ffffff;stroke-linejoin:miter;stroke-width:0.75;" x="250.013471" xlink:href="#mfc0151bd94" y="178.154098"/>
     <use style="fill:#d62728;stroke:#ffffff;stroke-linejoin:miter;stroke-width:0.75;" x="254.718609" xlink:href="#mfc0151bd94" y="169.494399"/>
     <use style="fill:#d62728;stroke:#ffffff;stroke-linejoin:miter;stroke-width:0.75;" x="259.423748" xlink:href="#mfc0151bd94" y="172.55563"/>
     <use style="fill:#d62728;stroke:#ffffff;stroke-linejoin:miter;stroke-width:0.75;" x="264.128886" xlink:href="#mfc0151bd94" y="171.231854"/>
     <use style="fill:#d62728;stroke:#ffffff;stroke-linejoin:miter;stroke-width:0.75;" x="268.834024" xlink:href="#mfc0151bd94" y="168.749775"/>
     <use style="fill:#d62728;stroke:#ffffff;stroke-linejoin:miter;stroke-width:0.75;" x="273.539163" xlink:href="#mfc0151bd94" y="172.886574"/>
     <use style="fill:#d62728;stroke:#ffffff;stroke-linejoin:miter;stroke-width:0.75;" x="278.244301" xlink:href="#mfc0151bd94" y="168.749775"/>
     <use style="fill:#d62728;stroke:#ffffff;stroke-linejoin:miter;stroke-width:0.75;" x="282.949439" xlink:href="#mfc0151bd94" y="169.439241"/>
     <use style="fill:#d62728;stroke:#ffffff;stroke-linejoin:miter;stroke-width:0.75;" x="287.654578" xlink:href="#mfc0151bd94" y="166.846847"/>
     <use style="fill:#d62728;stroke:#ffffff;stroke-linejoin:miter;stroke-width:0.75;" x="292.359716" xlink:href="#mfc0151bd94" y="164.806027"/>
     <use style="fill:#d62728;stroke:#ffffff;stroke-linejoin:miter;stroke-width:0.75;" x="297.064854" xlink:href="#mfc0151bd94" y="164.364768"/>
     <use style="fill:#d62728;stroke:#ffffff;stroke-linejoin:miter;stroke-width:0.75;" x="301.769993" xlink:href="#mfc0151bd94" y="169.218612"/>
     <use style="fill:#d62728;stroke:#ffffff;stroke-linejoin:miter;stroke-width:0.75;" x="306.475131" xlink:href="#mfc0151bd94" y="174.679187"/>
     <use style="fill:#d62728;stroke:#ffffff;stroke-linejoin:miter;stroke-width:0.75;" x="311.180269" xlink:href="#mfc0151bd94" y="164.750869"/>
     <use style="fill:#d62728;stroke:#ffffff;stroke-linejoin:miter;stroke-width:0.75;" x="315.885408" xlink:href="#mfc0151bd94" y="162.434262"/>
     <use style="fill:#d62728;stroke:#ffffff;stroke-linejoin:miter;stroke-width:0.75;" x="320.590546" xlink:href="#mfc0151bd94" y="164.750869"/>
     <use style="fill:#d62728;stroke:#ffffff;stroke-linejoin:miter;stroke-width:0.75;" x="325.295684" xlink:href="#mfc0151bd94" y="168.749775"/>
     <use style="fill:#d62728;stroke:#ffffff;stroke-linejoin:miter;stroke-width:0.75;" x="330.000823" xlink:href="#mfc0151bd94" y="164.750869"/>
     <use style="fill:#d62728;stroke:#ffffff;stroke-linejoin:miter;stroke-width:0.75;" x="334.705961" xlink:href="#mfc0151bd94" y="162.323947"/>
     <use style="fill:#d62728;stroke:#ffffff;stroke-linejoin:miter;stroke-width:0.75;" x="339.411099" xlink:href="#mfc0151bd94" y="162.323947"/>
     <use style="fill:#d62728;stroke:#ffffff;stroke-linejoin:miter;stroke-width:0.75;" x="344.116238" xlink:href="#mfc0151bd94" y="164.475083"/>
     <use style="fill:#d62728;stroke:#ffffff;stroke-linejoin:miter;stroke-width:0.75;" x="348.821376" xlink:href="#mfc0151bd94" y="168.22578"/>
     <use style="fill:#d62728;stroke:#ffffff;stroke-linejoin:miter;stroke-width:0.75;" x="353.526514" xlink:href="#mfc0151bd94" y="164.999077"/>
     <use style="fill:#d62728;stroke:#ffffff;stroke-linejoin:miter;stroke-width:0.75;" x="358.231653" xlink:href="#mfc0151bd94" y="161.882689"/>
     <use style="fill:#d62728;stroke:#ffffff;stroke-linejoin:miter;stroke-width:0.75;" x="362.936791" xlink:href="#mfc0151bd94" y="154.105507"/>
     <use style="fill:#d62728;stroke:#ffffff;stroke-linejoin:miter;stroke-width:0.75;" x="367.641929" xlink:href="#mfc0151bd94" y="157.221895"/>
     <use style="fill:#d62728;stroke:#ffffff;stroke-linejoin:miter;stroke-width:0.75;" x="372.347068" xlink:href="#mfc0151bd94" y="157.221895"/>
     <use style="fill:#d62728;stroke:#ffffff;stroke-linejoin:miter;stroke-width:0.75;" x="377.052206" xlink:href="#mfc0151bd94" y="156.201485"/>
     <use style="fill:#d62728;stroke:#ffffff;stroke-linejoin:miter;stroke-width:0.75;" x="381.757344" xlink:href="#mfc0151bd94" y="151.402798"/>
     <use style="fill:#d62728;stroke:#ffffff;stroke-linejoin:miter;stroke-width:0.75;" x="386.462483" xlink:href="#mfc0151bd94" y="149.30682"/>
     <use style="fill:#d62728;stroke:#ffffff;stroke-linejoin:miter;stroke-width:0.75;" x="391.167621" xlink:href="#mfc0151bd94" y="150.079022"/>
     <use style="fill:#d62728;stroke:#ffffff;stroke-linejoin:miter;stroke-width:0.75;" x="395.872759" xlink:href="#mfc0151bd94" y="150.079022"/>
     <use style="fill:#d62728;stroke:#ffffff;stroke-linejoin:miter;stroke-width:0.75;" x="400.577898" xlink:href="#mfc0151bd94" y="152.478366"/>
    </g>
   </g>
   <g id="line2d_15"/>
   <g id="line2d_16"/>
   <g id="line2d_17"/>
   <g id="patch_3">
    <path d="M 59.690625 253.829939 
L 59.690625 33.200664 
" style="fill:none;stroke:#000000;stroke-linecap:square;stroke-linejoin:miter;stroke-width:0.8;"/>
   </g>
   <g id="patch_4">
    <path d="M 75.923352 288.430125 
L 350.389755 288.430125 
" style="fill:none;stroke:#000000;stroke-linecap:square;stroke-linejoin:miter;stroke-width:0.8;"/>
   </g>
   <g id="text_14">
    <!-- mruby-2018-05-23 (17h:30m, 8 trials/fuzzer) -->
    <g transform="translate(103.435313 16.318125)scale(0.12 -0.12)">
     <defs>
      <path d="M 3116 1747 
Q 3116 2381 2855 2742 
Q 2594 3103 2138 3103 
Q 1681 3103 1420 2742 
Q 1159 2381 1159 1747 
Q 1159 1113 1420 752 
Q 1681 391 2138 391 
Q 2594 391 2855 752 
Q 3116 1113 3116 1747 
z
M 1159 2969 
Q 1341 3281 1617 3432 
Q 1894 3584 2278 3584 
Q 2916 3584 3314 3078 
Q 3713 2572 3713 1747 
Q 3713 922 3314 415 
Q 2916 -91 2278 -91 
Q 1894 -91 1617 61 
Q 1341 213 1159 525 
L 1159 0 
L 581 0 
L 581 4863 
L 1159 4863 
L 1159 2969 
z
" id="DejaVuSans-62" transform="scale(0.015625)"/>
      <path d="M 2059 -325 
Q 1816 -950 1584 -1140 
Q 1353 -1331 966 -1331 
L 506 -1331 
L 506 -850 
L 844 -850 
Q 1081 -850 1212 -737 
Q 1344 -625 1503 -206 
L 1606 56 
L 191 3500 
L 800 3500 
L 1894 763 
L 2988 3500 
L 3597 3500 
L 2059 -325 
z
" id="DejaVuSans-79" transform="scale(0.015625)"/>
      <path d="M 313 2009 
L 1997 2009 
L 1997 1497 
L 313 1497 
L 313 2009 
z
" id="DejaVuSans-2d" transform="scale(0.015625)"/>
      <path d="M 1228 531 
L 3431 531 
L 3431 0 
L 469 0 
L 469 531 
Q 828 903 1448 1529 
Q 2069 2156 2228 2338 
Q 2531 2678 2651 2914 
Q 2772 3150 2772 3378 
Q 2772 3750 2511 3984 
Q 2250 4219 1831 4219 
Q 1534 4219 1204 4116 
Q 875 4013 500 3803 
L 500 4441 
Q 881 4594 1212 4672 
Q 1544 4750 1819 4750 
Q 2544 4750 2975 4387 
Q 3406 4025 3406 3419 
Q 3406 3131 3298 2873 
Q 3191 2616 2906 2266 
Q 2828 2175 2409 1742 
Q 1991 1309 1228 531 
z
" id="DejaVuSans-32" transform="scale(0.015625)"/>
      <path d="M 2034 2216 
Q 1584 2216 1326 1975 
Q 1069 1734 1069 1313 
Q 1069 891 1326 650 
Q 1584 409 2034 409 
Q 2484 409 2743 651 
Q 3003 894 3003 1313 
Q 3003 1734 2745 1975 
Q 2488 2216 2034 2216 
z
M 1403 2484 
Q 997 2584 770 2862 
Q 544 3141 544 3541 
Q 544 4100 942 4425 
Q 1341 4750 2034 4750 
Q 2731 4750 3128 4425 
Q 3525 4100 3525 3541 
Q 3525 3141 3298 2862 
Q 3072 2584 2669 2484 
Q 3125 2378 3379 2068 
Q 3634 1759 3634 1313 
Q 3634 634 3220 271 
Q 2806 -91 2034 -91 
Q 1263 -91 848 271 
Q 434 634 434 1313 
Q 434 1759 690 2068 
Q 947 2378 1403 2484 
z
M 1172 3481 
Q 1172 3119 1398 2916 
Q 1625 2713 2034 2713 
Q 2441 2713 2670 2916 
Q 2900 3119 2900 3481 
Q 2900 3844 2670 4047 
Q 2441 4250 2034 4250 
Q 1625 4250 1398 4047 
Q 1172 3844 1172 3481 
z
" id="DejaVuSans-38" transform="scale(0.015625)"/>
      <path d="M 750 794 
L 1409 794 
L 1409 256 
L 897 -744 
L 494 -744 
L 750 256 
L 750 794 
z
" id="DejaVuSans-2c" transform="scale(0.015625)"/>
      <path d="M 603 4863 
L 1178 4863 
L 1178 0 
L 603 0 
L 603 4863 
z
" id="DejaVuSans-6c" transform="scale(0.015625)"/>
      <path d="M 2834 3397 
L 2834 2853 
Q 2591 2978 2328 3040 
Q 2066 3103 1784 3103 
Q 1356 3103 1142 2972 
Q 928 2841 928 2578 
Q 928 2378 1081 2264 
Q 1234 2150 1697 2047 
L 1894 2003 
Q 2506 1872 2764 1633 
Q 3022 1394 3022 966 
Q 3022 478 2636 193 
Q 2250 -91 1575 -91 
Q 1294 -91 989 -36 
Q 684 19 347 128 
L 347 722 
Q 666 556 975 473 
Q 1284 391 1588 391 
Q 1994 391 2212 530 
Q 2431 669 2431 922 
Q 2431 1156 2273 1281 
Q 2116 1406 1581 1522 
L 1381 1569 
Q 847 1681 609 1914 
Q 372 2147 372 2553 
Q 372 3047 722 3315 
Q 1072 3584 1716 3584 
Q 2034 3584 2315 3537 
Q 2597 3491 2834 3397 
z
" id="DejaVuSans-73" transform="scale(0.015625)"/>
      <path d="M 1625 4666 
L 2156 4666 
L 531 -594 
L 0 -594 
L 1625 4666 
z
" id="DejaVuSans-2f" transform="scale(0.015625)"/>
      <path d="M 2375 4863 
L 2375 4384 
L 1825 4384 
Q 1516 4384 1395 4259 
Q 1275 4134 1275 3809 
L 1275 3500 
L 2222 3500 
L 2222 3053 
L 1275 3053 
L 1275 0 
L 697 0 
L 697 3053 
L 147 3053 
L 147 3500 
L 697 3500 
L 697 3744 
Q 697 4328 969 4595 
Q 1241 4863 1831 4863 
L 2375 4863 
z
" id="DejaVuSans-66" transform="scale(0.015625)"/>
      <path d="M 353 3500 
L 3084 3500 
L 3084 2975 
L 922 459 
L 3084 459 
L 3084 0 
L 275 0 
L 275 525 
L 2438 3041 
L 353 3041 
L 353 3500 
z
" id="DejaVuSans-7a" transform="scale(0.015625)"/>
     </defs>
     <use xlink:href="#DejaVuSans-6d"/>
     <use x="97.412109" xlink:href="#DejaVuSans-72"/>
     <use x="138.525391" xlink:href="#DejaVuSans-75"/>
     <use x="201.904297" xlink:href="#DejaVuSans-62"/>
     <use x="265.380859" xlink:href="#DejaVuSans-79"/>
     <use x="322.810547" xlink:href="#DejaVuSans-2d"/>
     <use x="358.894531" xlink:href="#DejaVuSans-32"/>
     <use x="422.517578" xlink:href="#DejaVuSans-30"/>
     <use x="486.140625" xlink:href="#DejaVuSans-31"/>
     <use x="549.763672" xlink:href="#DejaVuSans-38"/>
     <use x="613.386719" xlink:href="#DejaVuSans-2d"/>
     <use x="649.470703" xlink:href="#DejaVuSans-30"/>
     <use x="713.09375" xlink:href="#DejaVuSans-35"/>
     <use x="776.716797" xlink:href="#DejaVuSans-2d"/>
     <use x="812.800781" xlink:href="#DejaVuSans-32"/>
     <use x="876.423828" xlink:href="#DejaVuSans-33"/>
     <use x="940.046875" xlink:href="#DejaVuSans-20"/>
     <use x="971.833984" xlink:href="#DejaVuSans-28"/>
     <use x="1010.847656" xlink:href="#DejaVuSans-31"/>
     <use x="1074.470703" xlink:href="#DejaVuSans-37"/>
     <use x="1138.09375" xlink:href="#DejaVuSans-68"/>
     <use x="1201.472656" xlink:href="#DejaVuSans-3a"/>
     <use x="1235.164062" xlink:href="#DejaVuSans-33"/>
     <use x="1298.787109" xlink:href="#DejaVuSans-30"/>
     <use x="1362.410156" xlink:href="#DejaVuSans-6d"/>
     <use x="1459.822266" xlink:href="#DejaVuSans-2c"/>
     <use x="1491.609375" xlink:href="#DejaVuSans-20"/>
     <use x="1523.396484" xlink:href="#DejaVuSans-38"/>
     <use x="1587.019531" xlink:href="#DejaVuSans-20"/>
     <use x="1618.806641" xlink:href="#DejaVuSans-74"/>
     <use x="1658.015625" xlink:href="#DejaVuSans-72"/>
     <use x="1699.128906" xlink:href="#DejaVuSans-69"/>
     <use x="1726.912109" xlink:href="#DejaVuSans-61"/>
     <use x="1788.191406" xlink:href="#DejaVuSans-6c"/>
     <use x="1815.974609" xlink:href="#DejaVuSans-73"/>
     <use x="1868.074219" xlink:href="#DejaVuSans-2f"/>
     <use x="1901.765625" xlink:href="#DejaVuSans-66"/>
     <use x="1936.970703" xlink:href="#DejaVuSans-75"/>
     <use x="2000.349609" xlink:href="#DejaVuSans-7a"/>
     <use x="2052.839844" xlink:href="#DejaVuSans-7a"/>
     <use x="2105.330078" xlink:href="#DejaVuSans-65"/>
     <use x="2166.853516" xlink:href="#DejaVuSans-72"/>
     <use x="2207.966797" xlink:href="#DejaVuSans-29"/>
    </g>
   </g>
   <g id="legend_1">
    <g id="line2d_18">
     <path d="M 420.810625 30.416562 
L 440.810625 30.416562 
" style="fill:none;stroke:#98df8a;stroke-linecap:square;stroke-width:1.5;"/>
    </g>
    <g id="line2d_19">
     <defs>
      <path d="M -0 3 
L 3 -3 
L -3 -3 
z
" id="m39c5038a99" style="stroke:#98df8a;stroke-linejoin:miter;"/>
     </defs>
     <g>
      <use style="fill:#98df8a;stroke:#98df8a;stroke-linejoin:miter;" x="430.810625" xlink:href="#m39c5038a99" y="30.416562"/>
     </g>
    </g>
    <g id="text_15">
     <!-- afl_no_favfactor -->
     <g transform="translate(448.810625 33.916562)scale(0.1 -0.1)">
      <defs>
       <path d="M 3263 -1063 
L 3263 -1509 
L -63 -1509 
L -63 -1063 
L 3263 -1063 
z
" id="DejaVuSans-5f" transform="scale(0.015625)"/>
      </defs>
      <use xlink:href="#DejaVuSans-61"/>
      <use x="61.279297" xlink:href="#DejaVuSans-66"/>
      <use x="96.484375" xlink:href="#DejaVuSans-6c"/>
      <use x="124.267578" xlink:href="#DejaVuSans-5f"/>
      <use x="174.267578" xlink:href="#DejaVuSans-6e"/>
      <use x="237.646484" xlink:href="#DejaVuSans-6f"/>
      <use x="298.828125" xlink:href="#DejaVuSans-5f"/>
      <use x="348.828125" xlink:href="#DejaVuSans-66"/>
      <use x="384.033203" xlink:href="#DejaVuSans-61"/>
      <use x="445.3125" xlink:href="#DejaVuSans-76"/>
      <use x="504.492188" xlink:href="#DejaVuSans-66"/>
      <use x="539.697266" xlink:href="#DejaVuSans-61"/>
      <use x="600.976562" xlink:href="#DejaVuSans-63"/>
      <use x="655.957031" xlink:href="#DejaVuSans-74"/>
      <use x="695.166016" xlink:href="#DejaVuSans-6f"/>
      <use x="756.347656" xlink:href="#DejaVuSans-72"/>
     </g>
    </g>
    <g id="line2d_20">
     <path d="M 420.810625 45.372813 
L 440.810625 45.372813 
" style="fill:none;stroke:#1f77b4;stroke-linecap:square;stroke-width:1.5;"/>
    </g>
    <g id="line2d_21">
     <defs>
      <path d="M 0 3 
C 0.795609 3 1.55874 2.683901 2.12132 2.12132 
C 2.683901 1.55874 3 0.795609 3 0 
C 3 -0.795609 2.683901 -1.55874 2.12132 -2.12132 
C 1.55874 -2.683901 0.795609 -3 0 -3 
C -0.795609 -3 -1.55874 -2.683901 -2.12132 -2.12132 
C -2.683901 -1.55874 -3 -0.795609 -3 0 
C -3 0.795609 -2.683901 1.55874 -2.12132 2.12132 
C -1.55874 2.683901 -0.795609 3 0 3 
z
" id="m78c2cef27d" style="stroke:#1f77b4;"/>
     </defs>
     <g>
      <use style="fill:#1f77b4;stroke:#1f77b4;" x="430.810625" xlink:href="#m78c2cef27d" y="45.372813"/>
     </g>
    </g>
    <g id="text_16">
     <!-- afl -->
     <g transform="translate(448.810625 48.872813)scale(0.1 -0.1)">
      <use xlink:href="#DejaVuSans-61"/>
      <use x="61.279297" xlink:href="#DejaVuSans-66"/>
      <use x="96.484375" xlink:href="#DejaVuSans-6c"/>
     </g>
    </g>
    <g id="line2d_22">
     <path d="M 420.810625 60.050937 
L 440.810625 60.050937 
" style="fill:none;stroke:#d62728;stroke-linecap:square;stroke-width:1.5;"/>
    </g>
    <g id="line2d_23">
     <defs>
      <path d="M 0 -3 
L -3 3 
L 3 3 
z
" id="m45f5b564f7" style="stroke:#d62728;stroke-linejoin:miter;"/>
     </defs>
     <g>
      <use style="fill:#d62728;stroke:#d62728;stroke-linejoin:miter;" x="430.810625" xlink:href="#m45f5b564f7" y="60.050937"/>
     </g>
    </g>
    <g id="text_17">
     <!-- afl_no_favored -->
     <g transform="translate(448.810625 63.550937)scale(0.1 -0.1)">
      <use xlink:href="#DejaVuSans-61"/>
      <use x="61.279297" xlink:href="#DejaVuSans-66"/>
      <use x="96.484375" xlink:href="#DejaVuSans-6c"/>
      <use x="124.267578" xlink:href="#DejaVuSans-5f"/>
      <use x="174.267578" xlink:href="#DejaVuSans-6e"/>
      <use x="237.646484" xlink:href="#DejaVuSans-6f"/>
      <use x="298.828125" xlink:href="#DejaVuSans-5f"/>
      <use x="348.828125" xlink:href="#DejaVuSans-66"/>
      <use x="384.033203" xlink:href="#DejaVuSans-61"/>
      <use x="445.3125" xlink:href="#DejaVuSans-76"/>
      <use x="504.492188" xlink:href="#DejaVuSans-6f"/>
      <use x="565.673828" xlink:href="#DejaVuSans-72"/>
      <use x="604.537109" xlink:href="#DejaVuSans-65"/>
      <use x="666.060547" xlink:href="#DejaVuSans-64"/>
     </g>
    </g>
   </g>
  </g>
 </g>
 <defs>
  <clipPath id="pcaa169ae5d">
   <rect height="266.112" width="357.12" x="59.690625" y="22.318125"/>
  </clipPath>
 </defs>
</svg>
