<?xml version="1.0" encoding="utf-8" standalone="no"?>
<!DOCTYPE svg PUBLIC "-//W3C//DTD SVG 1.1//EN"
  "http://www.w3.org/Graphics/SVG/1.1/DTD/svg11.dtd">
<svg height="325.986375pt" version="1.1" viewBox="0 0 533.395 325.986375" width="533.395pt" xmlns="http://www.w3.org/2000/svg" xmlns:xlink="http://www.w3.org/1999/xlink">
 <metadata>
  <rdf:RDF xmlns:cc="http://creativecommons.org/ns#" xmlns:dc="http://purl.org/dc/elements/1.1/" xmlns:rdf="http://www.w3.org/1999/02/22-rdf-syntax-ns#">
   <cc:Work>
    <dc:type rdf:resource="http://purl.org/dc/dcmitype/StillImage"/>
    <dc:date>2022-05-24T15:43:40.298560</dc:date>
    <dc:format>image/svg+xml</dc:format>
    <dc:creator>
     <cc:Agent>
      <dc:title>Matplotlib v3.4.3, https://matplotlib.org/</dc:title>
     </cc:Agent>
    </dc:creator>
   </cc:Work>
  </rdf:RDF>
 </metadata>
 <defs>
  <style type="text/css">*{stroke-linecap:butt;stroke-linejoin:round;}</style>
 </defs>
 <g id="figure_1">
  <g id="patch_1">
   <path d="M 0 325.986375 
L 533.395 325.986375 
L 533.395 0 
L 0 0 
z
" style="fill:#ffffff;"/>
  </g>
  <g id="axes_1">
   <g id="patch_2">
    <path d="M 53.328125 288.430125 
L 410.448125 288.430125 
L 410.448125 22.318125 
L 53.328125 22.318125 
z
" style="fill:#ffffff;"/>
   </g>
   <g id="PolyCollection_1">
    <defs>
     <path d="M 69.560852 -97.225345 
L 69.560852 -77.763624 
L 119.327306 -133.851222 
L 148.438816 -137.905747 
L 169.09376 -138.3112 
L 185.11498 -146.825703 
L 198.205269 -154.934753 
L 209.272952 -157.502619 
L 218.860214 -171.963758 
L 227.316779 -172.639513 
L 234.881434 -175.342529 
L 241.724496 -182.235222 
L 247.971723 -185.07339 
L 253.718615 -190.884876 
L 259.039406 -190.884876 
L 263.992943 -201.696943 
L 268.626668 -213.725367 
L 272.979383 -220.648469 
L 277.083233 -221.023513 
L 280.965141 -227.240451 
L 284.647888 -230.21377 
L 288.150915 -230.21377 
L 291.49095 -230.21377 
L 294.68249 -230.484071 
L 297.738177 -230.484071 
L 300.669107 -231.565278 
L 303.485069 -236.430708 
L 306.194742 -238.998574 
L 308.805859 -243.053099 
L 311.32534 -243.053099 
L 313.759397 -243.458552 
L 316.113635 -244.81006 
L 318.393122 -244.81006 
L 320.60246 -245.215513 
L 322.745837 -245.215513 
L 324.827079 -249.945792 
L 326.849687 -250.216094 
L 328.816873 -250.486395 
L 330.731595 -254.676071 
L 332.596578 -254.676071 
L 334.414342 -254.676071 
L 336.187217 -255.622127 
L 337.917369 -258.189993 
L 339.606807 -258.189993 
L 341.257404 -258.189993 
L 342.870906 -258.189993 
L 344.448944 -258.189993 
L 345.993042 -258.189993 
L 347.504631 -258.189993 
L 348.985051 -260.622708 
L 350.435561 -260.622708 
L 351.857347 -260.622708 
L 353.251523 -260.622708 
L 354.619142 -260.622708 
L 355.961196 -260.622708 
L 357.278624 -261.028161 
L 358.572313 -261.839066 
L 359.843104 -262.785122 
L 361.091794 -262.785122 
L 362.319136 -262.785122 
L 363.525851 -262.785122 
L 364.712619 -263.190574 
L 365.880089 -263.325725 
L 367.028878 -263.596027 
L 368.159576 -264.406932 
L 369.272743 -264.542082 
L 370.368914 -264.542082 
L 371.4486 -264.542082 
L 372.512291 -266.028742 
L 373.560453 -266.028742 
L 374.593533 -266.434194 
L 375.611959 -266.434194 
L 376.616141 -266.434194 
L 377.606471 -266.434194 
L 378.583327 -266.434194 
L 379.547071 -266.569345 
L 380.498049 -266.569345 
L 381.436596 -269.137211 
L 382.363032 -269.137211 
L 383.277666 -269.137211 
L 384.180795 -269.677814 
L 385.072705 -273.732339 
L 385.953671 -273.732339 
L 386.823958 -273.732339 
L 387.683823 -273.732339 
L 388.533511 -274.272943 
L 389.373261 -272.238923 
L 390.203303 -271.975378 
L 391.023858 -272.313256 
L 391.835142 -272.98901 
L 392.63736 -273.462038 
L 393.430714 -272.98901 
L 394.215398 -272.98901 
L 394.215398 -291.301948 
L 394.215398 -291.301948 
L 393.430714 -291.301948 
L 392.63736 -290.964071 
L 391.835142 -289.139535 
L 391.023858 -288.666507 
L 390.203303 -288.32863 
L 389.373261 -288.32863 
L 388.533511 -289.004384 
L 387.683823 -289.004384 
L 386.823958 -288.32863 
L 385.953671 -288.32863 
L 385.072705 -288.32863 
L 384.180795 -286.301367 
L 383.277666 -286.166216 
L 382.363032 -286.166216 
L 381.436596 -286.166216 
L 380.498049 -286.166216 
L 379.547071 -286.166216 
L 378.583327 -286.166216 
L 377.606471 -285.895915 
L 376.616141 -285.895915 
L 375.611959 -285.625613 
L 374.593533 -285.625613 
L 373.560453 -285.490462 
L 372.512291 -282.111691 
L 371.4486 -276.705658 
L 370.368914 -276.705658 
L 369.272743 -276.705658 
L 368.159576 -276.029904 
L 367.028878 -276.029904 
L 365.880089 -276.029904 
L 364.712619 -276.029904 
L 363.525851 -276.029904 
L 362.319136 -276.029904 
L 361.091794 -273.326887 
L 359.843104 -273.326887 
L 358.572313 -273.326887 
L 357.278624 -271.975378 
L 355.961196 -271.975378 
L 354.619142 -271.569926 
L 353.251523 -271.164473 
L 351.857347 -270.083267 
L 350.435561 -270.083267 
L 348.985051 -270.083267 
L 347.504631 -267.245099 
L 345.993042 -267.245099 
L 344.448944 -266.028742 
L 342.870906 -265.082686 
L 341.257404 -265.082686 
L 339.606807 -265.082686 
L 337.917369 -263.866328 
L 336.187217 -263.866328 
L 334.414342 -263.596027 
L 332.596578 -263.596027 
L 330.731595 -263.460876 
L 328.816873 -263.190574 
L 326.849687 -263.190574 
L 324.827079 -262.379669 
L 322.745837 -261.703915 
L 320.60246 -260.487557 
L 318.393122 -259.136049 
L 316.113635 -256.838485 
L 313.759397 -256.568183 
L 311.32534 -255.622127 
L 308.805859 -255.486976 
L 306.194742 -254.811222 
L 303.485069 -254.811222 
L 300.669107 -254.54092 
L 297.738177 -254.54092 
L 294.68249 -251.026999 
L 291.49095 -251.026999 
L 288.150915 -251.026999 
L 284.647888 -250.756697 
L 280.965141 -250.621546 
L 277.083233 -242.512496 
L 272.979383 -240.214932 
L 268.626668 -240.214932 
L 263.992943 -233.322239 
L 259.039406 -231.565278 
L 253.718615 -231.159825 
L 247.971723 -228.72711 
L 241.724496 -228.72711 
L 234.881434 -222.23987 
L 227.316779 -217.509591 
L 218.860214 -214.401122 
L 209.272952 -212.779311 
L 198.205269 -211.833256 
L 185.11498 -173.315267 
L 169.09376 -165.071066 
L 148.438816 -152.231736 
L 119.327306 -145.474194 
L 69.560852 -97.225345 
z
" id="m2a9aca6f81" style="stroke:#1f77b4;stroke-opacity:0.2;"/>
    </defs>
    <g clip-path="url(#pb1bf98ac0d)">
     <use style="fill:#1f77b4;fill-opacity:0.2;stroke:#1f77b4;stroke-opacity:0.2;" x="0" xlink:href="#m2a9aca6f81" y="325.986375"/>
    </g>
   </g>
   <g id="PolyCollection_2">
    <defs>
     <path d="M 69.560852 -65.059446 
L 69.560852 -49.65225 
L 119.327306 -96.955043 
L 148.438816 -122.363401 
L 169.09376 -144.663289 
L 185.11498 -159.124429 
L 198.205269 -165.881971 
L 209.272952 -170.477099 
L 218.860214 -171.828608 
L 227.316779 -171.828608 
L 234.881434 -172.774663 
L 241.724496 -173.044965 
L 247.971723 -173.044965 
L 253.718615 -173.991021 
L 259.039406 -174.396473 
L 263.992943 -174.396473 
L 268.626668 -174.396473 
L 272.979383 -174.396473 
L 277.083233 -174.396473 
L 280.965141 -174.396473 
L 284.647888 -174.396473 
L 288.150915 -174.937077 
L 291.49095 -179.261904 
L 294.68249 -181.559468 
L 297.738177 -181.559468 
L 300.669107 -186.560049 
L 303.485069 -186.560049 
L 306.194742 -186.560049 
L 308.805859 -192.101233 
L 311.32534 -193.452742 
L 313.759397 -193.587892 
L 316.113635 -193.858194 
L 318.393122 -194.128496 
L 320.60246 -194.128496 
L 322.745837 -203.318753 
L 324.827079 -203.318753 
L 326.849687 -203.318753 
L 328.816873 -203.318753 
L 330.731595 -203.318753 
L 332.596578 -203.589054 
L 334.414342 -203.724205 
L 336.187217 -203.724205 
L 337.917369 -203.724205 
L 339.606807 -204.264809 
L 341.257404 -207.77873 
L 342.870906 -222.23987 
L 344.448944 -223.591378 
L 345.993042 -227.645904 
L 347.504631 -232.105881 
L 348.985051 -232.105881 
L 350.435561 -232.105881 
L 351.857347 -232.105881 
L 353.251523 -233.322239 
L 354.619142 -233.45739 
L 355.961196 -233.45739 
L 357.278624 -235.349501 
L 358.572313 -235.349501 
L 359.843104 -237.241613 
L 361.091794 -243.728853 
L 362.319136 -243.728853 
L 363.525851 -243.728853 
L 364.712619 -243.728853 
L 365.880089 -243.728853 
L 367.028878 -243.728853 
L 368.159576 -243.728853 
L 369.272743 -245.485814 
L 370.368914 -245.485814 
L 371.4486 -245.485814 
L 372.512291 -245.485814 
L 373.560453 -245.756116 
L 374.593533 -245.756116 
L 375.611959 -245.756116 
L 376.616141 -249.405189 
L 377.606471 -249.405189 
L 378.583327 -249.405189 
L 379.547071 -249.405189 
L 380.498049 -249.540339 
L 381.436596 -250.621546 
L 382.363032 -256.433032 
L 383.277666 -256.568183 
L 384.180795 -256.568183 
L 385.072705 -256.568183 
L 385.953671 -256.568183 
L 386.823958 -257.514239 
L 387.683823 -263.055423 
L 388.533511 -266.163892 
L 389.373261 -266.163892 
L 390.203303 -266.163892 
L 391.023858 -266.163892 
L 391.835142 -266.299043 
L 392.63736 -266.299043 
L 393.430714 -266.299043 
L 394.215398 -266.299043 
L 394.215398 -289.95044 
L 394.215398 -289.95044 
L 393.430714 -283.328049 
L 392.63736 -283.328049 
L 391.835142 -283.328049 
L 391.023858 -283.192898 
L 390.203303 -283.192898 
L 389.373261 -277.11111 
L 388.533511 -275.759602 
L 387.683823 -275.759602 
L 386.823958 -275.759602 
L 385.953671 -275.759602 
L 385.072705 -274.408094 
L 384.180795 -274.408094 
L 383.277666 -272.380831 
L 382.363032 -272.380831 
L 381.436596 -269.272362 
L 380.498049 -269.272362 
L 379.547071 -269.272362 
L 378.583327 -269.00206 
L 377.606471 -268.596608 
L 376.616141 -266.839647 
L 375.611959 -266.704496 
L 374.593533 -266.704496 
L 373.560453 -266.704496 
L 372.512291 -266.704496 
L 371.4486 -266.028742 
L 370.368914 -266.028742 
L 369.272743 -265.75844 
L 368.159576 -265.75844 
L 367.028878 -261.703915 
L 365.880089 -259.946954 
L 364.712619 -259.946954 
L 363.525851 -259.946954 
L 362.319136 -259.811803 
L 361.091794 -259.811803 
L 359.843104 -259.541501 
L 358.572313 -259.541501 
L 357.278624 -259.541501 
L 355.961196 -259.541501 
L 354.619142 -259.541501 
L 353.251523 -259.000898 
L 351.857347 -259.000898 
L 350.435561 -259.000898 
L 348.985051 -259.000898 
L 347.504631 -257.64939 
L 345.993042 -257.64939 
L 344.448944 -257.514239 
L 342.870906 -257.108786 
L 341.257404 -257.108786 
L 339.606807 -256.838485 
L 337.917369 -249.405189 
L 336.187217 -242.647647 
L 334.414342 -242.647647 
L 332.596578 -240.620384 
L 330.731595 -237.917367 
L 328.816873 -235.619803 
L 326.849687 -232.916786 
L 324.827079 -230.754373 
L 322.745837 -230.21377 
L 320.60246 -227.781054 
L 318.393122 -225.888943 
L 316.113635 -219.536853 
L 313.759397 -219.536853 
L 311.32534 -218.99625 
L 308.805859 -212.779311 
L 306.194742 -212.779311 
L 303.485069 -212.644161 
L 300.669107 -202.102395 
L 297.738177 -202.102395 
L 294.68249 -200.345434 
L 291.49095 -199.804831 
L 288.150915 -199.804831 
L 284.647888 -199.804831 
L 280.965141 -199.804831 
L 277.083233 -194.398797 
L 272.979383 -194.398797 
L 268.626668 -194.398797 
L 263.992943 -194.398797 
L 259.039406 -194.398797 
L 253.718615 -194.398797 
L 247.971723 -194.398797 
L 241.724496 -194.398797 
L 234.881434 -191.966082 
L 227.316779 -191.56063 
L 218.860214 -188.181859 
L 209.272952 -186.965501 
L 198.205269 -176.423736 
L 185.11498 -167.774082 
L 169.09376 -153.718395 
L 148.438816 -137.635446 
L 119.327306 -109.929524 
L 69.560852 -65.059446 
z
" id="maf9ff92d50" style="stroke:#d62728;stroke-opacity:0.2;"/>
    </defs>
    <g clip-path="url(#pb1bf98ac0d)">
     <use style="fill:#d62728;fill-opacity:0.2;stroke:#d62728;stroke-opacity:0.2;" x="0" xlink:href="#maf9ff92d50" y="325.986375"/>
    </g>
   </g>
   <g id="PolyCollection_3">
    <defs>
     <path d="M 69.560852 -96.144138 
L 69.560852 -60.464317 
L 119.327306 -126.553077 
L 148.438816 -137.094842 
L 169.09376 -141.419669 
L 185.11498 -150.745077 
L 198.205269 -162.638351 
L 209.272952 -174.666775 
L 218.860214 -187.370954 
L 227.316779 -187.776406 
L 234.881434 -189.127915 
L 241.724496 -189.533367 
L 247.971723 -195.615155 
L 253.718615 -197.912719 
L 259.039406 -198.183021 
L 263.992943 -198.858775 
L 268.626668 -198.858775 
L 272.979383 -199.534529 
L 277.083233 -216.968987 
L 280.965141 -217.712317 
L 284.647888 -215.75263 
L 288.150915 -221.766842 
L 291.49095 -222.037144 
L 294.68249 -223.253501 
L 297.738177 -226.429546 
L 300.669107 -226.564697 
L 303.485069 -230.686797 
L 306.194742 -230.754373 
L 308.805859 -234.944049 
L 311.32534 -235.619803 
L 313.759397 -235.619803 
L 316.113635 -236.565859 
L 318.393122 -236.836161 
L 320.60246 -236.836161 
L 322.745837 -239.2013 
L 324.827079 -240.485233 
L 326.849687 -241.836742 
L 328.816873 -242.917948 
L 330.731595 -242.647647 
L 332.596578 -242.647647 
L 334.414342 -242.917948 
L 336.187217 -242.917948 
L 337.917369 -243.053099 
L 339.606807 -243.053099 
L 341.257404 -247.087352 
L 342.870906 -247.242775 
L 344.448944 -247.918529 
L 345.993042 -247.918529 
L 347.504631 -247.918529 
L 348.985051 -248.729434 
L 350.435561 -248.729434 
L 351.857347 -251.2973 
L 353.251523 -251.432451 
L 354.619142 -252.783959 
L 355.961196 -252.783959 
L 357.278624 -252.783959 
L 358.572313 -252.783959 
L 359.843104 -252.783959 
L 361.091794 -252.783959 
L 362.319136 -252.783959 
L 363.525851 -252.783959 
L 364.712619 -252.783959 
L 365.880089 -252.91911 
L 367.028878 -252.91911 
L 368.159576 -252.91911 
L 369.272743 -252.91911 
L 370.368914 -252.91911 
L 371.4486 -252.91911 
L 372.512291 -255.081524 
L 373.560453 -255.081524 
L 374.593533 -255.216675 
L 375.611959 -256.297881 
L 376.616141 -256.703334 
L 377.606471 -256.703334 
L 378.583327 -256.838485 
L 379.547071 -256.838485 
L 380.498049 -256.838485 
L 381.436596 -256.838485 
L 382.363032 -258.865747 
L 383.277666 -258.189993 
L 384.180795 -259.136049 
L 385.072705 -259.136049 
L 385.953671 -260.487557 
L 386.823958 -261.028161 
L 387.683823 -261.703915 
L 388.533511 -261.366038 
L 389.373261 -261.028161 
L 390.203303 -261.028161 
L 391.023858 -261.839066 
L 391.835142 -265.352987 
L 392.63736 -265.75844 
L 393.430714 -264.001479 
L 394.215398 -262.244518 
L 394.215398 -291.57225 
L 394.215398 -291.57225 
L 393.430714 -290.896496 
L 392.63736 -291.437099 
L 391.835142 -290.220742 
L 391.023858 -290.220742 
L 390.203303 -290.220742 
L 389.373261 -289.544987 
L 388.533511 -285.895915 
L 387.683823 -285.895915 
L 386.823958 -289.004384 
L 385.953671 -288.463781 
L 385.072705 -288.463781 
L 384.180795 -288.463781 
L 383.277666 -285.895915 
L 382.363032 -285.895915 
L 381.436596 -288.463781 
L 380.498049 -285.956733 
L 379.547071 -288.32863 
L 378.583327 -283.598351 
L 377.606471 -283.4632 
L 376.616141 -283.4632 
L 375.611959 -283.4632 
L 374.593533 -283.4632 
L 373.560453 -283.4632 
L 372.512291 -283.328049 
L 371.4486 -283.328049 
L 370.368914 -283.057747 
L 369.272743 -283.057747 
L 368.159576 -283.057747 
L 367.028878 -283.057747 
L 365.880089 -283.057747 
L 364.712619 -283.057747 
L 363.525851 -276.165054 
L 362.319136 -272.921434 
L 361.091794 -274.272943 
L 359.843104 -274.272943 
L 358.572313 -276.029904 
L 357.278624 -271.299624 
L 355.961196 -272.380831 
L 354.619142 -272.380831 
L 353.251523 -272.380831 
L 351.857347 -270.218418 
L 350.435561 -265.893591 
L 348.985051 -265.893591 
L 347.504631 -265.893591 
L 345.993042 -265.893591 
L 344.448944 -265.75844 
L 342.870906 -265.75844 
L 341.257404 -265.75844 
L 339.606807 -264.001479 
L 337.917369 -264.001479 
L 336.187217 -260.082105 
L 334.414342 -260.082105 
L 332.596578 -259.548259 
L 330.731595 -259.811803 
L 328.816873 -259.811803 
L 326.849687 -259.811803 
L 324.827079 -259.835454 
L 322.745837 -260.757859 
L 320.60246 -259.811803 
L 318.393122 -259.541501 
L 316.113635 -259.541501 
L 313.759397 -257.919691 
L 311.32534 -257.919691 
L 308.805859 -255.757278 
L 306.194742 -254.473345 
L 303.485069 -252.851535 
L 300.669107 -251.432451 
L 297.738177 -248.477716 
L 294.68249 -249.810641 
L 291.49095 -248.05368 
L 288.150915 -246.783262 
L 284.647888 -243.999155 
L 280.965141 -243.864004 
L 277.083233 -243.593703 
L 272.979383 -243.593703 
L 268.626668 -243.728853 
L 263.992943 -243.593703 
L 259.039406 -243.593703 
L 253.718615 -241.701591 
L 247.971723 -236.971311 
L 241.724496 -235.484652 
L 234.881434 -235.214351 
L 227.316779 -234.673747 
L 218.860214 -228.591959 
L 209.272952 -214.198395 
L 198.205269 -202.778149 
L 185.11498 -198.723624 
L 169.09376 -174.801926 
L 148.438816 -151.150529 
L 119.327306 -136.843124 
L 69.560852 -96.144138 
z
" id="m5b7e192a52" style="stroke:#98df8a;stroke-opacity:0.2;"/>
    </defs>
    <g clip-path="url(#pb1bf98ac0d)">
     <use style="fill:#98df8a;fill-opacity:0.2;stroke:#98df8a;stroke-opacity:0.2;" x="0" xlink:href="#m5b7e192a52" y="325.986375"/>
    </g>
   </g>
   <g id="matplotlib.axis_1">
    <g id="xtick_1">
     <g id="line2d_1">
      <defs>
       <path d="M 0 0 
L 0 3.5 
" id="m540fc7c303" style="stroke:#000000;stroke-width:0.8;"/>
      </defs>
      <g>
       <use style="stroke:#000000;stroke-width:0.8;" x="69.560852" xlink:href="#m540fc7c303" y="288.430125"/>
      </g>
     </g>
     <g id="text_1">
      <!-- 14m -->
      <g transform="translate(58.32804 303.028562)scale(0.1 -0.1)">
       <defs>
        <path d="M 794 531 
L 1825 531 
L 1825 4091 
L 703 3866 
L 703 4441 
L 1819 4666 
L 2450 4666 
L 2450 531 
L 3481 531 
L 3481 0 
L 794 0 
L 794 531 
z
" id="DejaVuSans-31" transform="scale(0.015625)"/>
        <path d="M 2419 4116 
L 825 1625 
L 2419 1625 
L 2419 4116 
z
M 2253 4666 
L 3047 4666 
L 3047 1625 
L 3713 1625 
L 3713 1100 
L 3047 1100 
L 3047 0 
L 2419 0 
L 2419 1100 
L 313 1100 
L 313 1709 
L 2253 4666 
z
" id="DejaVuSans-34" transform="scale(0.015625)"/>
        <path d="M 3328 2828 
Q 3544 3216 3844 3400 
Q 4144 3584 4550 3584 
Q 5097 3584 5394 3201 
Q 5691 2819 5691 2113 
L 5691 0 
L 5113 0 
L 5113 2094 
Q 5113 2597 4934 2840 
Q 4756 3084 4391 3084 
Q 3944 3084 3684 2787 
Q 3425 2491 3425 1978 
L 3425 0 
L 2847 0 
L 2847 2094 
Q 2847 2600 2669 2842 
Q 2491 3084 2119 3084 
Q 1678 3084 1418 2786 
Q 1159 2488 1159 1978 
L 1159 0 
L 581 0 
L 581 3500 
L 1159 3500 
L 1159 2956 
Q 1356 3278 1631 3431 
Q 1906 3584 2284 3584 
Q 2666 3584 2933 3390 
Q 3200 3197 3328 2828 
z
" id="DejaVuSans-6d" transform="scale(0.015625)"/>
       </defs>
       <use xlink:href="#DejaVuSans-31"/>
       <use x="63.623047" xlink:href="#DejaVuSans-34"/>
       <use x="127.246094" xlink:href="#DejaVuSans-6d"/>
      </g>
     </g>
    </g>
    <g id="xtick_2">
     <g id="line2d_2">
      <g>
       <use style="stroke:#000000;stroke-width:0.8;" x="134.491935" xlink:href="#m540fc7c303" y="288.430125"/>
      </g>
     </g>
     <g id="text_2">
      <!-- 37m -->
      <g transform="translate(123.259122 303.028562)scale(0.1 -0.1)">
       <defs>
        <path d="M 2597 2516 
Q 3050 2419 3304 2112 
Q 3559 1806 3559 1356 
Q 3559 666 3084 287 
Q 2609 -91 1734 -91 
Q 1441 -91 1130 -33 
Q 819 25 488 141 
L 488 750 
Q 750 597 1062 519 
Q 1375 441 1716 441 
Q 2309 441 2620 675 
Q 2931 909 2931 1356 
Q 2931 1769 2642 2001 
Q 2353 2234 1838 2234 
L 1294 2234 
L 1294 2753 
L 1863 2753 
Q 2328 2753 2575 2939 
Q 2822 3125 2822 3475 
Q 2822 3834 2567 4026 
Q 2313 4219 1838 4219 
Q 1578 4219 1281 4162 
Q 984 4106 628 3988 
L 628 4550 
Q 988 4650 1302 4700 
Q 1616 4750 1894 4750 
Q 2613 4750 3031 4423 
Q 3450 4097 3450 3541 
Q 3450 3153 3228 2886 
Q 3006 2619 2597 2516 
z
" id="DejaVuSans-33" transform="scale(0.015625)"/>
        <path d="M 525 4666 
L 3525 4666 
L 3525 4397 
L 1831 0 
L 1172 0 
L 2766 4134 
L 525 4134 
L 525 4666 
z
" id="DejaVuSans-37" transform="scale(0.015625)"/>
       </defs>
       <use xlink:href="#DejaVuSans-33"/>
       <use x="63.623047" xlink:href="#DejaVuSans-37"/>
       <use x="127.246094" xlink:href="#DejaVuSans-6d"/>
      </g>
     </g>
    </g>
    <g id="xtick_3">
     <g id="line2d_3">
      <g>
       <use style="stroke:#000000;stroke-width:0.8;" x="199.423017" xlink:href="#m540fc7c303" y="288.430125"/>
      </g>
     </g>
     <g id="text_3">
      <!-- 1h:31m -->
      <g transform="translate(180.15583 303.028562)scale(0.1 -0.1)">
       <defs>
        <path d="M 3513 2113 
L 3513 0 
L 2938 0 
L 2938 2094 
Q 2938 2591 2744 2837 
Q 2550 3084 2163 3084 
Q 1697 3084 1428 2787 
Q 1159 2491 1159 1978 
L 1159 0 
L 581 0 
L 581 4863 
L 1159 4863 
L 1159 2956 
Q 1366 3272 1645 3428 
Q 1925 3584 2291 3584 
Q 2894 3584 3203 3211 
Q 3513 2838 3513 2113 
z
" id="DejaVuSans-68" transform="scale(0.015625)"/>
        <path d="M 750 794 
L 1409 794 
L 1409 0 
L 750 0 
L 750 794 
z
M 750 3309 
L 1409 3309 
L 1409 2516 
L 750 2516 
L 750 3309 
z
" id="DejaVuSans-3a" transform="scale(0.015625)"/>
       </defs>
       <use xlink:href="#DejaVuSans-31"/>
       <use x="63.623047" xlink:href="#DejaVuSans-68"/>
       <use x="127.001953" xlink:href="#DejaVuSans-3a"/>
       <use x="160.693359" xlink:href="#DejaVuSans-33"/>
       <use x="224.316406" xlink:href="#DejaVuSans-31"/>
       <use x="287.939453" xlink:href="#DejaVuSans-6d"/>
      </g>
     </g>
    </g>
    <g id="xtick_4">
     <g id="line2d_4">
      <g>
       <use style="stroke:#000000;stroke-width:0.8;" x="264.3541" xlink:href="#m540fc7c303" y="288.430125"/>
      </g>
     </g>
     <g id="text_4">
      <!-- 3h:46m -->
      <g transform="translate(245.086912 303.028562)scale(0.1 -0.1)">
       <defs>
        <path d="M 2113 2584 
Q 1688 2584 1439 2293 
Q 1191 2003 1191 1497 
Q 1191 994 1439 701 
Q 1688 409 2113 409 
Q 2538 409 2786 701 
Q 3034 994 3034 1497 
Q 3034 2003 2786 2293 
Q 2538 2584 2113 2584 
z
M 3366 4563 
L 3366 3988 
Q 3128 4100 2886 4159 
Q 2644 4219 2406 4219 
Q 1781 4219 1451 3797 
Q 1122 3375 1075 2522 
Q 1259 2794 1537 2939 
Q 1816 3084 2150 3084 
Q 2853 3084 3261 2657 
Q 3669 2231 3669 1497 
Q 3669 778 3244 343 
Q 2819 -91 2113 -91 
Q 1303 -91 875 529 
Q 447 1150 447 2328 
Q 447 3434 972 4092 
Q 1497 4750 2381 4750 
Q 2619 4750 2861 4703 
Q 3103 4656 3366 4563 
z
" id="DejaVuSans-36" transform="scale(0.015625)"/>
       </defs>
       <use xlink:href="#DejaVuSans-33"/>
       <use x="63.623047" xlink:href="#DejaVuSans-68"/>
       <use x="127.001953" xlink:href="#DejaVuSans-3a"/>
       <use x="160.693359" xlink:href="#DejaVuSans-34"/>
       <use x="224.316406" xlink:href="#DejaVuSans-36"/>
       <use x="287.939453" xlink:href="#DejaVuSans-6d"/>
      </g>
     </g>
    </g>
    <g id="xtick_5">
     <g id="line2d_5">
      <g>
       <use style="stroke:#000000;stroke-width:0.8;" x="329.285182" xlink:href="#m540fc7c303" y="288.430125"/>
      </g>
     </g>
     <g id="text_5">
      <!-- 9h:18m -->
      <g transform="translate(310.017995 303.028562)scale(0.1 -0.1)">
       <defs>
        <path d="M 703 97 
L 703 672 
Q 941 559 1184 500 
Q 1428 441 1663 441 
Q 2288 441 2617 861 
Q 2947 1281 2994 2138 
Q 2813 1869 2534 1725 
Q 2256 1581 1919 1581 
Q 1219 1581 811 2004 
Q 403 2428 403 3163 
Q 403 3881 828 4315 
Q 1253 4750 1959 4750 
Q 2769 4750 3195 4129 
Q 3622 3509 3622 2328 
Q 3622 1225 3098 567 
Q 2575 -91 1691 -91 
Q 1453 -91 1209 -44 
Q 966 3 703 97 
z
M 1959 2075 
Q 2384 2075 2632 2365 
Q 2881 2656 2881 3163 
Q 2881 3666 2632 3958 
Q 2384 4250 1959 4250 
Q 1534 4250 1286 3958 
Q 1038 3666 1038 3163 
Q 1038 2656 1286 2365 
Q 1534 2075 1959 2075 
z
" id="DejaVuSans-39" transform="scale(0.015625)"/>
        <path d="M 2034 2216 
Q 1584 2216 1326 1975 
Q 1069 1734 1069 1313 
Q 1069 891 1326 650 
Q 1584 409 2034 409 
Q 2484 409 2743 651 
Q 3003 894 3003 1313 
Q 3003 1734 2745 1975 
Q 2488 2216 2034 2216 
z
M 1403 2484 
Q 997 2584 770 2862 
Q 544 3141 544 3541 
Q 544 4100 942 4425 
Q 1341 4750 2034 4750 
Q 2731 4750 3128 4425 
Q 3525 4100 3525 3541 
Q 3525 3141 3298 2862 
Q 3072 2584 2669 2484 
Q 3125 2378 3379 2068 
Q 3634 1759 3634 1313 
Q 3634 634 3220 271 
Q 2806 -91 2034 -91 
Q 1263 -91 848 271 
Q 434 634 434 1313 
Q 434 1759 690 2068 
Q 947 2378 1403 2484 
z
M 1172 3481 
Q 1172 3119 1398 2916 
Q 1625 2713 2034 2713 
Q 2441 2713 2670 2916 
Q 2900 3119 2900 3481 
Q 2900 3844 2670 4047 
Q 2441 4250 2034 4250 
Q 1625 4250 1398 4047 
Q 1172 3844 1172 3481 
z
" id="DejaVuSans-38" transform="scale(0.015625)"/>
       </defs>
       <use xlink:href="#DejaVuSans-39"/>
       <use x="63.623047" xlink:href="#DejaVuSans-68"/>
       <use x="127.001953" xlink:href="#DejaVuSans-3a"/>
       <use x="160.693359" xlink:href="#DejaVuSans-31"/>
       <use x="224.316406" xlink:href="#DejaVuSans-38"/>
       <use x="287.939453" xlink:href="#DejaVuSans-6d"/>
      </g>
     </g>
    </g>
    <g id="xtick_6">
     <g id="line2d_6">
      <g>
       <use style="stroke:#000000;stroke-width:0.8;" x="394.216265" xlink:href="#m540fc7c303" y="288.430125"/>
      </g>
     </g>
     <g id="text_6">
      <!-- 23h -->
      <g transform="translate(384.685015 303.028562)scale(0.1 -0.1)">
       <defs>
        <path d="M 1228 531 
L 3431 531 
L 3431 0 
L 469 0 
L 469 531 
Q 828 903 1448 1529 
Q 2069 2156 2228 2338 
Q 2531 2678 2651 2914 
Q 2772 3150 2772 3378 
Q 2772 3750 2511 3984 
Q 2250 4219 1831 4219 
Q 1534 4219 1204 4116 
Q 875 4013 500 3803 
L 500 4441 
Q 881 4594 1212 4672 
Q 1544 4750 1819 4750 
Q 2544 4750 2975 4387 
Q 3406 4025 3406 3419 
Q 3406 3131 3298 2873 
Q 3191 2616 2906 2266 
Q 2828 2175 2409 1742 
Q 1991 1309 1228 531 
z
" id="DejaVuSans-32" transform="scale(0.015625)"/>
       </defs>
       <use xlink:href="#DejaVuSans-32"/>
       <use x="63.623047" xlink:href="#DejaVuSans-33"/>
       <use x="127.246094" xlink:href="#DejaVuSans-68"/>
      </g>
     </g>
    </g>
    <g id="xtick_7">
     <g id="line2d_7">
      <defs>
       <path d="M 0 0 
L 0 2 
" id="m5f3da5cdbe" style="stroke:#000000;stroke-width:0.6;"/>
      </defs>
      <g>
       <use style="stroke:#000000;stroke-width:0.6;" x="61.104288" xlink:href="#m5f3da5cdbe" y="288.430125"/>
      </g>
     </g>
    </g>
    <g id="xtick_8">
     <g id="line2d_8">
      <g>
       <use style="stroke:#000000;stroke-width:0.6;" x="126.891961" xlink:href="#m5f3da5cdbe" y="288.430125"/>
      </g>
     </g>
    </g>
    <g id="xtick_9">
     <g id="line2d_9">
      <g>
       <use style="stroke:#000000;stroke-width:0.6;" x="156.00347" xlink:href="#m5f3da5cdbe" y="288.430125"/>
      </g>
     </g>
    </g>
    <g id="xtick_10">
     <g id="line2d_10">
      <g>
       <use style="stroke:#000000;stroke-width:0.6;" x="176.658415" xlink:href="#m5f3da5cdbe" y="288.430125"/>
      </g>
     </g>
    </g>
    <g id="xtick_11">
     <g id="line2d_11">
      <g>
       <use style="stroke:#000000;stroke-width:0.6;" x="192.679635" xlink:href="#m5f3da5cdbe" y="288.430125"/>
      </g>
     </g>
    </g>
    <g id="xtick_12">
     <g id="line2d_12">
      <g>
       <use style="stroke:#000000;stroke-width:0.6;" x="205.769924" xlink:href="#m5f3da5cdbe" y="288.430125"/>
      </g>
     </g>
    </g>
    <g id="xtick_13">
     <g id="line2d_13">
      <g>
       <use style="stroke:#000000;stroke-width:0.6;" x="216.837607" xlink:href="#m5f3da5cdbe" y="288.430125"/>
      </g>
     </g>
    </g>
    <g id="xtick_14">
     <g id="line2d_14">
      <g>
       <use style="stroke:#000000;stroke-width:0.6;" x="226.424869" xlink:href="#m5f3da5cdbe" y="288.430125"/>
      </g>
     </g>
    </g>
    <g id="xtick_15">
     <g id="line2d_15">
      <g>
       <use style="stroke:#000000;stroke-width:0.6;" x="234.881434" xlink:href="#m5f3da5cdbe" y="288.430125"/>
      </g>
     </g>
    </g>
    <g id="xtick_16">
     <g id="line2d_16">
      <g>
       <use style="stroke:#000000;stroke-width:0.6;" x="292.212543" xlink:href="#m5f3da5cdbe" y="288.430125"/>
      </g>
     </g>
    </g>
    <g id="xtick_17">
     <g id="line2d_17">
      <g>
       <use style="stroke:#000000;stroke-width:0.6;" x="321.324052" xlink:href="#m5f3da5cdbe" y="288.430125"/>
      </g>
     </g>
    </g>
    <g id="xtick_18">
     <g id="line2d_18">
      <g>
       <use style="stroke:#000000;stroke-width:0.6;" x="341.978996" xlink:href="#m5f3da5cdbe" y="288.430125"/>
      </g>
     </g>
    </g>
    <g id="xtick_19">
     <g id="line2d_19">
      <g>
       <use style="stroke:#000000;stroke-width:0.6;" x="358.000216" xlink:href="#m5f3da5cdbe" y="288.430125"/>
      </g>
     </g>
    </g>
    <g id="xtick_20">
     <g id="line2d_20">
      <g>
       <use style="stroke:#000000;stroke-width:0.6;" x="371.090506" xlink:href="#m5f3da5cdbe" y="288.430125"/>
      </g>
     </g>
    </g>
    <g id="xtick_21">
     <g id="line2d_21">
      <g>
       <use style="stroke:#000000;stroke-width:0.6;" x="382.158188" xlink:href="#m5f3da5cdbe" y="288.430125"/>
      </g>
     </g>
    </g>
    <g id="xtick_22">
     <g id="line2d_22">
      <g>
       <use style="stroke:#000000;stroke-width:0.6;" x="391.74545" xlink:href="#m5f3da5cdbe" y="288.430125"/>
      </g>
     </g>
    </g>
    <g id="xtick_23">
     <g id="line2d_23">
      <g>
       <use style="stroke:#000000;stroke-width:0.6;" x="400.202015" xlink:href="#m5f3da5cdbe" y="288.430125"/>
      </g>
     </g>
    </g>
    <g id="text_7">
     <!-- Time (hour:minute) -->
     <g transform="translate(183.481094 316.706687)scale(0.1 -0.1)">
      <defs>
       <path d="M -19 4666 
L 3928 4666 
L 3928 4134 
L 2272 4134 
L 2272 0 
L 1638 0 
L 1638 4134 
L -19 4134 
L -19 4666 
z
" id="DejaVuSans-54" transform="scale(0.015625)"/>
       <path d="M 603 3500 
L 1178 3500 
L 1178 0 
L 603 0 
L 603 3500 
z
M 603 4863 
L 1178 4863 
L 1178 4134 
L 603 4134 
L 603 4863 
z
" id="DejaVuSans-69" transform="scale(0.015625)"/>
       <path d="M 3597 1894 
L 3597 1613 
L 953 1613 
Q 991 1019 1311 708 
Q 1631 397 2203 397 
Q 2534 397 2845 478 
Q 3156 559 3463 722 
L 3463 178 
Q 3153 47 2828 -22 
Q 2503 -91 2169 -91 
Q 1331 -91 842 396 
Q 353 884 353 1716 
Q 353 2575 817 3079 
Q 1281 3584 2069 3584 
Q 2775 3584 3186 3129 
Q 3597 2675 3597 1894 
z
M 3022 2063 
Q 3016 2534 2758 2815 
Q 2500 3097 2075 3097 
Q 1594 3097 1305 2825 
Q 1016 2553 972 2059 
L 3022 2063 
z
" id="DejaVuSans-65" transform="scale(0.015625)"/>
       <path id="DejaVuSans-20" transform="scale(0.015625)"/>
       <path d="M 1984 4856 
Q 1566 4138 1362 3434 
Q 1159 2731 1159 2009 
Q 1159 1288 1364 580 
Q 1569 -128 1984 -844 
L 1484 -844 
Q 1016 -109 783 600 
Q 550 1309 550 2009 
Q 550 2706 781 3412 
Q 1013 4119 1484 4856 
L 1984 4856 
z
" id="DejaVuSans-28" transform="scale(0.015625)"/>
       <path d="M 1959 3097 
Q 1497 3097 1228 2736 
Q 959 2375 959 1747 
Q 959 1119 1226 758 
Q 1494 397 1959 397 
Q 2419 397 2687 759 
Q 2956 1122 2956 1747 
Q 2956 2369 2687 2733 
Q 2419 3097 1959 3097 
z
M 1959 3584 
Q 2709 3584 3137 3096 
Q 3566 2609 3566 1747 
Q 3566 888 3137 398 
Q 2709 -91 1959 -91 
Q 1206 -91 779 398 
Q 353 888 353 1747 
Q 353 2609 779 3096 
Q 1206 3584 1959 3584 
z
" id="DejaVuSans-6f" transform="scale(0.015625)"/>
       <path d="M 544 1381 
L 544 3500 
L 1119 3500 
L 1119 1403 
Q 1119 906 1312 657 
Q 1506 409 1894 409 
Q 2359 409 2629 706 
Q 2900 1003 2900 1516 
L 2900 3500 
L 3475 3500 
L 3475 0 
L 2900 0 
L 2900 538 
Q 2691 219 2414 64 
Q 2138 -91 1772 -91 
Q 1169 -91 856 284 
Q 544 659 544 1381 
z
M 1991 3584 
L 1991 3584 
z
" id="DejaVuSans-75" transform="scale(0.015625)"/>
       <path d="M 2631 2963 
Q 2534 3019 2420 3045 
Q 2306 3072 2169 3072 
Q 1681 3072 1420 2755 
Q 1159 2438 1159 1844 
L 1159 0 
L 581 0 
L 581 3500 
L 1159 3500 
L 1159 2956 
Q 1341 3275 1631 3429 
Q 1922 3584 2338 3584 
Q 2397 3584 2469 3576 
Q 2541 3569 2628 3553 
L 2631 2963 
z
" id="DejaVuSans-72" transform="scale(0.015625)"/>
       <path d="M 3513 2113 
L 3513 0 
L 2938 0 
L 2938 2094 
Q 2938 2591 2744 2837 
Q 2550 3084 2163 3084 
Q 1697 3084 1428 2787 
Q 1159 2491 1159 1978 
L 1159 0 
L 581 0 
L 581 3500 
L 1159 3500 
L 1159 2956 
Q 1366 3272 1645 3428 
Q 1925 3584 2291 3584 
Q 2894 3584 3203 3211 
Q 3513 2838 3513 2113 
z
" id="DejaVuSans-6e" transform="scale(0.015625)"/>
       <path d="M 1172 4494 
L 1172 3500 
L 2356 3500 
L 2356 3053 
L 1172 3053 
L 1172 1153 
Q 1172 725 1289 603 
Q 1406 481 1766 481 
L 2356 481 
L 2356 0 
L 1766 0 
Q 1100 0 847 248 
Q 594 497 594 1153 
L 594 3053 
L 172 3053 
L 172 3500 
L 594 3500 
L 594 4494 
L 1172 4494 
z
" id="DejaVuSans-74" transform="scale(0.015625)"/>
       <path d="M 513 4856 
L 1013 4856 
Q 1481 4119 1714 3412 
Q 1947 2706 1947 2009 
Q 1947 1309 1714 600 
Q 1481 -109 1013 -844 
L 513 -844 
Q 928 -128 1133 580 
Q 1338 1288 1338 2009 
Q 1338 2731 1133 3434 
Q 928 4138 513 4856 
z
" id="DejaVuSans-29" transform="scale(0.015625)"/>
      </defs>
      <use xlink:href="#DejaVuSans-54"/>
      <use x="57.958984" xlink:href="#DejaVuSans-69"/>
      <use x="85.742188" xlink:href="#DejaVuSans-6d"/>
      <use x="183.154297" xlink:href="#DejaVuSans-65"/>
      <use x="244.677734" xlink:href="#DejaVuSans-20"/>
      <use x="276.464844" xlink:href="#DejaVuSans-28"/>
      <use x="315.478516" xlink:href="#DejaVuSans-68"/>
      <use x="378.857422" xlink:href="#DejaVuSans-6f"/>
      <use x="440.039062" xlink:href="#DejaVuSans-75"/>
      <use x="503.417969" xlink:href="#DejaVuSans-72"/>
      <use x="542.78125" xlink:href="#DejaVuSans-3a"/>
      <use x="576.472656" xlink:href="#DejaVuSans-6d"/>
      <use x="673.884766" xlink:href="#DejaVuSans-69"/>
      <use x="701.667969" xlink:href="#DejaVuSans-6e"/>
      <use x="765.046875" xlink:href="#DejaVuSans-75"/>
      <use x="828.425781" xlink:href="#DejaVuSans-74"/>
      <use x="867.634766" xlink:href="#DejaVuSans-65"/>
      <use x="929.158203" xlink:href="#DejaVuSans-29"/>
     </g>
    </g>
   </g>
   <g id="matplotlib.axis_2">
    <g id="ytick_1">
     <g id="line2d_24">
      <defs>
       <path d="M 0 0 
L -3.5 0 
" id="mac77127643" style="stroke:#000000;stroke-width:0.8;"/>
      </defs>
      <g>
       <use style="stroke:#000000;stroke-width:0.8;" x="53.328125" xlink:href="#mac77127643" y="282.956516"/>
      </g>
     </g>
     <g id="text_8">
      <!-- 5500 -->
      <g transform="translate(20.878125 286.755735)scale(0.1 -0.1)">
       <defs>
        <path d="M 691 4666 
L 3169 4666 
L 3169 4134 
L 1269 4134 
L 1269 2991 
Q 1406 3038 1543 3061 
Q 1681 3084 1819 3084 
Q 2600 3084 3056 2656 
Q 3513 2228 3513 1497 
Q 3513 744 3044 326 
Q 2575 -91 1722 -91 
Q 1428 -91 1123 -41 
Q 819 9 494 109 
L 494 744 
Q 775 591 1075 516 
Q 1375 441 1709 441 
Q 2250 441 2565 725 
Q 2881 1009 2881 1497 
Q 2881 1984 2565 2268 
Q 2250 2553 1709 2553 
Q 1456 2553 1204 2497 
Q 953 2441 691 2322 
L 691 4666 
z
" id="DejaVuSans-35" transform="scale(0.015625)"/>
        <path d="M 2034 4250 
Q 1547 4250 1301 3770 
Q 1056 3291 1056 2328 
Q 1056 1369 1301 889 
Q 1547 409 2034 409 
Q 2525 409 2770 889 
Q 3016 1369 3016 2328 
Q 3016 3291 2770 3770 
Q 2525 4250 2034 4250 
z
M 2034 4750 
Q 2819 4750 3233 4129 
Q 3647 3509 3647 2328 
Q 3647 1150 3233 529 
Q 2819 -91 2034 -91 
Q 1250 -91 836 529 
Q 422 1150 422 2328 
Q 422 3509 836 4129 
Q 1250 4750 2034 4750 
z
" id="DejaVuSans-30" transform="scale(0.015625)"/>
       </defs>
       <use xlink:href="#DejaVuSans-35"/>
       <use x="63.623047" xlink:href="#DejaVuSans-35"/>
       <use x="127.246094" xlink:href="#DejaVuSans-30"/>
       <use x="190.869141" xlink:href="#DejaVuSans-30"/>
      </g>
     </g>
    </g>
    <g id="ytick_2">
     <g id="line2d_25">
      <g>
       <use style="stroke:#000000;stroke-width:0.8;" x="53.328125" xlink:href="#mac77127643" y="249.168807"/>
      </g>
     </g>
     <g id="text_9">
      <!-- 5750 -->
      <g transform="translate(20.878125 252.968025)scale(0.1 -0.1)">
       <use xlink:href="#DejaVuSans-35"/>
       <use x="63.623047" xlink:href="#DejaVuSans-37"/>
       <use x="127.246094" xlink:href="#DejaVuSans-35"/>
       <use x="190.869141" xlink:href="#DejaVuSans-30"/>
      </g>
     </g>
    </g>
    <g id="ytick_3">
     <g id="line2d_26">
      <g>
       <use style="stroke:#000000;stroke-width:0.8;" x="53.328125" xlink:href="#mac77127643" y="215.381097"/>
      </g>
     </g>
     <g id="text_10">
      <!-- 6000 -->
      <g transform="translate(20.878125 219.180316)scale(0.1 -0.1)">
       <use xlink:href="#DejaVuSans-36"/>
       <use x="63.623047" xlink:href="#DejaVuSans-30"/>
       <use x="127.246094" xlink:href="#DejaVuSans-30"/>
       <use x="190.869141" xlink:href="#DejaVuSans-30"/>
      </g>
     </g>
    </g>
    <g id="ytick_4">
     <g id="line2d_27">
      <g>
       <use style="stroke:#000000;stroke-width:0.8;" x="53.328125" xlink:href="#mac77127643" y="181.593388"/>
      </g>
     </g>
     <g id="text_11">
      <!-- 6250 -->
      <g transform="translate(20.878125 185.392606)scale(0.1 -0.1)">
       <use xlink:href="#DejaVuSans-36"/>
       <use x="63.623047" xlink:href="#DejaVuSans-32"/>
       <use x="127.246094" xlink:href="#DejaVuSans-35"/>
       <use x="190.869141" xlink:href="#DejaVuSans-30"/>
      </g>
     </g>
    </g>
    <g id="ytick_5">
     <g id="line2d_28">
      <g>
       <use style="stroke:#000000;stroke-width:0.8;" x="53.328125" xlink:href="#mac77127643" y="147.805678"/>
      </g>
     </g>
     <g id="text_12">
      <!-- 6500 -->
      <g transform="translate(20.878125 151.604897)scale(0.1 -0.1)">
       <use xlink:href="#DejaVuSans-36"/>
       <use x="63.623047" xlink:href="#DejaVuSans-35"/>
       <use x="127.246094" xlink:href="#DejaVuSans-30"/>
       <use x="190.869141" xlink:href="#DejaVuSans-30"/>
      </g>
     </g>
    </g>
    <g id="ytick_6">
     <g id="line2d_29">
      <g>
       <use style="stroke:#000000;stroke-width:0.8;" x="53.328125" xlink:href="#mac77127643" y="114.017969"/>
      </g>
     </g>
     <g id="text_13">
      <!-- 6750 -->
      <g transform="translate(20.878125 117.817187)scale(0.1 -0.1)">
       <use xlink:href="#DejaVuSans-36"/>
       <use x="63.623047" xlink:href="#DejaVuSans-37"/>
       <use x="127.246094" xlink:href="#DejaVuSans-35"/>
       <use x="190.869141" xlink:href="#DejaVuSans-30"/>
      </g>
     </g>
    </g>
    <g id="ytick_7">
     <g id="line2d_30">
      <g>
       <use style="stroke:#000000;stroke-width:0.8;" x="53.328125" xlink:href="#mac77127643" y="80.230259"/>
      </g>
     </g>
     <g id="text_14">
      <!-- 7000 -->
      <g transform="translate(20.878125 84.029478)scale(0.1 -0.1)">
       <use xlink:href="#DejaVuSans-37"/>
       <use x="63.623047" xlink:href="#DejaVuSans-30"/>
       <use x="127.246094" xlink:href="#DejaVuSans-30"/>
       <use x="190.869141" xlink:href="#DejaVuSans-30"/>
      </g>
     </g>
    </g>
    <g id="ytick_8">
     <g id="line2d_31">
      <g>
       <use style="stroke:#000000;stroke-width:0.8;" x="53.328125" xlink:href="#mac77127643" y="46.44255"/>
      </g>
     </g>
     <g id="text_15">
      <!-- 7250 -->
      <g transform="translate(20.878125 50.241768)scale(0.1 -0.1)">
       <use xlink:href="#DejaVuSans-37"/>
       <use x="63.623047" xlink:href="#DejaVuSans-32"/>
       <use x="127.246094" xlink:href="#DejaVuSans-35"/>
       <use x="190.869141" xlink:href="#DejaVuSans-30"/>
      </g>
     </g>
    </g>
    <g id="text_16">
     <!-- Code region coverage -->
     <g transform="translate(14.798438 210.379594)rotate(-90)scale(0.1 -0.1)">
      <defs>
       <path d="M 4122 4306 
L 4122 3641 
Q 3803 3938 3442 4084 
Q 3081 4231 2675 4231 
Q 1875 4231 1450 3742 
Q 1025 3253 1025 2328 
Q 1025 1406 1450 917 
Q 1875 428 2675 428 
Q 3081 428 3442 575 
Q 3803 722 4122 1019 
L 4122 359 
Q 3791 134 3420 21 
Q 3050 -91 2638 -91 
Q 1578 -91 968 557 
Q 359 1206 359 2328 
Q 359 3453 968 4101 
Q 1578 4750 2638 4750 
Q 3056 4750 3426 4639 
Q 3797 4528 4122 4306 
z
" id="DejaVuSans-43" transform="scale(0.015625)"/>
       <path d="M 2906 2969 
L 2906 4863 
L 3481 4863 
L 3481 0 
L 2906 0 
L 2906 525 
Q 2725 213 2448 61 
Q 2172 -91 1784 -91 
Q 1150 -91 751 415 
Q 353 922 353 1747 
Q 353 2572 751 3078 
Q 1150 3584 1784 3584 
Q 2172 3584 2448 3432 
Q 2725 3281 2906 2969 
z
M 947 1747 
Q 947 1113 1208 752 
Q 1469 391 1925 391 
Q 2381 391 2643 752 
Q 2906 1113 2906 1747 
Q 2906 2381 2643 2742 
Q 2381 3103 1925 3103 
Q 1469 3103 1208 2742 
Q 947 2381 947 1747 
z
" id="DejaVuSans-64" transform="scale(0.015625)"/>
       <path d="M 2906 1791 
Q 2906 2416 2648 2759 
Q 2391 3103 1925 3103 
Q 1463 3103 1205 2759 
Q 947 2416 947 1791 
Q 947 1169 1205 825 
Q 1463 481 1925 481 
Q 2391 481 2648 825 
Q 2906 1169 2906 1791 
z
M 3481 434 
Q 3481 -459 3084 -895 
Q 2688 -1331 1869 -1331 
Q 1566 -1331 1297 -1286 
Q 1028 -1241 775 -1147 
L 775 -588 
Q 1028 -725 1275 -790 
Q 1522 -856 1778 -856 
Q 2344 -856 2625 -561 
Q 2906 -266 2906 331 
L 2906 616 
Q 2728 306 2450 153 
Q 2172 0 1784 0 
Q 1141 0 747 490 
Q 353 981 353 1791 
Q 353 2603 747 3093 
Q 1141 3584 1784 3584 
Q 2172 3584 2450 3431 
Q 2728 3278 2906 2969 
L 2906 3500 
L 3481 3500 
L 3481 434 
z
" id="DejaVuSans-67" transform="scale(0.015625)"/>
       <path d="M 3122 3366 
L 3122 2828 
Q 2878 2963 2633 3030 
Q 2388 3097 2138 3097 
Q 1578 3097 1268 2742 
Q 959 2388 959 1747 
Q 959 1106 1268 751 
Q 1578 397 2138 397 
Q 2388 397 2633 464 
Q 2878 531 3122 666 
L 3122 134 
Q 2881 22 2623 -34 
Q 2366 -91 2075 -91 
Q 1284 -91 818 406 
Q 353 903 353 1747 
Q 353 2603 823 3093 
Q 1294 3584 2113 3584 
Q 2378 3584 2631 3529 
Q 2884 3475 3122 3366 
z
" id="DejaVuSans-63" transform="scale(0.015625)"/>
       <path d="M 191 3500 
L 800 3500 
L 1894 563 
L 2988 3500 
L 3597 3500 
L 2284 0 
L 1503 0 
L 191 3500 
z
" id="DejaVuSans-76" transform="scale(0.015625)"/>
       <path d="M 2194 1759 
Q 1497 1759 1228 1600 
Q 959 1441 959 1056 
Q 959 750 1161 570 
Q 1363 391 1709 391 
Q 2188 391 2477 730 
Q 2766 1069 2766 1631 
L 2766 1759 
L 2194 1759 
z
M 3341 1997 
L 3341 0 
L 2766 0 
L 2766 531 
Q 2569 213 2275 61 
Q 1981 -91 1556 -91 
Q 1019 -91 701 211 
Q 384 513 384 1019 
Q 384 1609 779 1909 
Q 1175 2209 1959 2209 
L 2766 2209 
L 2766 2266 
Q 2766 2663 2505 2880 
Q 2244 3097 1772 3097 
Q 1472 3097 1187 3025 
Q 903 2953 641 2809 
L 641 3341 
Q 956 3463 1253 3523 
Q 1550 3584 1831 3584 
Q 2591 3584 2966 3190 
Q 3341 2797 3341 1997 
z
" id="DejaVuSans-61" transform="scale(0.015625)"/>
      </defs>
      <use xlink:href="#DejaVuSans-43"/>
      <use x="69.824219" xlink:href="#DejaVuSans-6f"/>
      <use x="131.005859" xlink:href="#DejaVuSans-64"/>
      <use x="194.482422" xlink:href="#DejaVuSans-65"/>
      <use x="256.005859" xlink:href="#DejaVuSans-20"/>
      <use x="287.792969" xlink:href="#DejaVuSans-72"/>
      <use x="326.65625" xlink:href="#DejaVuSans-65"/>
      <use x="388.179688" xlink:href="#DejaVuSans-67"/>
      <use x="451.65625" xlink:href="#DejaVuSans-69"/>
      <use x="479.439453" xlink:href="#DejaVuSans-6f"/>
      <use x="540.621094" xlink:href="#DejaVuSans-6e"/>
      <use x="604" xlink:href="#DejaVuSans-20"/>
      <use x="635.787109" xlink:href="#DejaVuSans-63"/>
      <use x="690.767578" xlink:href="#DejaVuSans-6f"/>
      <use x="751.949219" xlink:href="#DejaVuSans-76"/>
      <use x="811.128906" xlink:href="#DejaVuSans-65"/>
      <use x="872.652344" xlink:href="#DejaVuSans-72"/>
      <use x="913.765625" xlink:href="#DejaVuSans-61"/>
      <use x="975.044922" xlink:href="#DejaVuSans-67"/>
      <use x="1038.521484" xlink:href="#DejaVuSans-65"/>
     </g>
    </g>
   </g>
   <g id="line2d_32">
    <path clip-path="url(#pb1bf98ac0d)" d="M 69.560852 238.221589 
L 119.327306 186.053365 
L 148.438816 179.566125 
L 169.09376 175.5116 
L 185.11498 171.457075 
L 198.205269 163.348024 
L 209.272952 153.482013 
L 218.860214 142.264494 
L 227.316779 126.046393 
L 234.881434 124.154281 
L 241.724496 116.856136 
L 247.971723 116.720985 
L 253.718615 107.395578 
L 259.039406 107.395578 
L 263.992943 106.449522 
L 268.626668 98.475622 
L 272.979383 96.042907 
L 277.083233 95.907756 
L 280.965141 91.582929 
L 284.647888 86.312047 
L 288.150915 85.771443 
L 291.49095 84.284784 
L 294.68249 84.284784 
L 297.738177 84.284784 
L 300.669107 83.744181 
L 303.485069 83.744181 
L 306.194742 79.419354 
L 308.805859 78.202997 
L 311.32534 76.040583 
L 313.759397 76.040583 
L 316.113635 72.121209 
L 318.393122 71.310304 
L 320.60246 71.310304 
L 322.745837 69.283041 
L 324.827079 69.283041 
L 326.849687 67.931533 
L 328.816873 66.580024 
L 330.731595 66.580024 
L 332.596578 66.444874 
L 334.414342 66.444874 
L 336.187217 63.877008 
L 337.917369 63.877008 
L 339.606807 63.471555 
L 341.257404 63.471555 
L 342.870906 63.471555 
L 344.448944 63.336404 
L 345.993042 62.120047 
L 347.504631 62.120047 
L 348.985051 61.984896 
L 350.435561 61.984896 
L 351.857347 61.984896 
L 353.251523 61.579443 
L 354.619142 61.579443 
L 355.961196 61.579443 
L 357.278624 61.579443 
L 358.572313 61.309142 
L 359.843104 58.065522 
L 361.091794 58.065522 
L 362.319136 58.065522 
L 363.525851 58.065522 
L 364.712619 58.065522 
L 365.880089 58.065522 
L 367.028878 57.660069 
L 368.159576 57.660069 
L 369.272743 55.632807 
L 370.368914 55.497656 
L 371.4486 52.794639 
L 372.512291 52.794639 
L 373.560453 52.794639 
L 374.593533 49.956471 
L 375.611959 49.956471 
L 376.616141 49.956471 
L 377.606471 49.956471 
L 378.583327 49.956471 
L 379.547071 49.956471 
L 380.498049 49.956471 
L 381.436596 49.956471 
L 382.363032 49.956471 
L 383.277666 49.956471 
L 384.180795 49.956471 
L 385.072705 47.794058 
L 385.953671 47.794058 
L 386.823958 47.794058 
L 387.683823 47.794058 
L 388.533511 47.794058 
L 389.373261 48.267086 
L 390.203303 48.267086 
L 391.023858 48.267086 
L 391.835142 45.428918 
L 392.63736 44.009834 
L 393.430714 43.671957 
L 394.215398 43.604382 
" style="fill:none;stroke:#1f77b4;stroke-linecap:square;stroke-width:1.5;"/>
    <defs>
     <path d="M 0 3 
C 0.795609 3 1.55874 2.683901 2.12132 2.12132 
C 2.683901 1.55874 3 0.795609 3 0 
C 3 -0.795609 2.683901 -1.55874 2.12132 -2.12132 
C 1.55874 -2.683901 0.795609 -3 0 -3 
C -0.795609 -3 -1.55874 -2.683901 -2.12132 -2.12132 
C -2.683901 -1.55874 -3 -0.795609 -3 0 
C -3 0.795609 -2.683901 1.55874 -2.12132 2.12132 
C -1.55874 2.683901 -0.795609 3 0 3 
z
" id="mfa8c3dd135" style="stroke:#ffffff;stroke-width:0.75;"/>
    </defs>
    <g clip-path="url(#pb1bf98ac0d)">
     <use style="fill:#1f77b4;stroke:#ffffff;stroke-width:0.75;" x="69.560852" xlink:href="#mfa8c3dd135" y="238.221589"/>
     <use style="fill:#1f77b4;stroke:#ffffff;stroke-width:0.75;" x="119.327306" xlink:href="#mfa8c3dd135" y="186.053365"/>
     <use style="fill:#1f77b4;stroke:#ffffff;stroke-width:0.75;" x="148.438816" xlink:href="#mfa8c3dd135" y="179.566125"/>
     <use style="fill:#1f77b4;stroke:#ffffff;stroke-width:0.75;" x="169.09376" xlink:href="#mfa8c3dd135" y="175.5116"/>
     <use style="fill:#1f77b4;stroke:#ffffff;stroke-width:0.75;" x="185.11498" xlink:href="#mfa8c3dd135" y="171.457075"/>
     <use style="fill:#1f77b4;stroke:#ffffff;stroke-width:0.75;" x="198.205269" xlink:href="#mfa8c3dd135" y="163.348024"/>
     <use style="fill:#1f77b4;stroke:#ffffff;stroke-width:0.75;" x="209.272952" xlink:href="#mfa8c3dd135" y="153.482013"/>
     <use style="fill:#1f77b4;stroke:#ffffff;stroke-width:0.75;" x="218.860214" xlink:href="#mfa8c3dd135" y="142.264494"/>
     <use style="fill:#1f77b4;stroke:#ffffff;stroke-width:0.75;" x="227.316779" xlink:href="#mfa8c3dd135" y="126.046393"/>
     <use style="fill:#1f77b4;stroke:#ffffff;stroke-width:0.75;" x="234.881434" xlink:href="#mfa8c3dd135" y="124.154281"/>
     <use style="fill:#1f77b4;stroke:#ffffff;stroke-width:0.75;" x="241.724496" xlink:href="#mfa8c3dd135" y="116.856136"/>
     <use style="fill:#1f77b4;stroke:#ffffff;stroke-width:0.75;" x="247.971723" xlink:href="#mfa8c3dd135" y="116.720985"/>
     <use style="fill:#1f77b4;stroke:#ffffff;stroke-width:0.75;" x="253.718615" xlink:href="#mfa8c3dd135" y="107.395578"/>
     <use style="fill:#1f77b4;stroke:#ffffff;stroke-width:0.75;" x="259.039406" xlink:href="#mfa8c3dd135" y="107.395578"/>
     <use style="fill:#1f77b4;stroke:#ffffff;stroke-width:0.75;" x="263.992943" xlink:href="#mfa8c3dd135" y="106.449522"/>
     <use style="fill:#1f77b4;stroke:#ffffff;stroke-width:0.75;" x="268.626668" xlink:href="#mfa8c3dd135" y="98.475622"/>
     <use style="fill:#1f77b4;stroke:#ffffff;stroke-width:0.75;" x="272.979383" xlink:href="#mfa8c3dd135" y="96.042907"/>
     <use style="fill:#1f77b4;stroke:#ffffff;stroke-width:0.75;" x="277.083233" xlink:href="#mfa8c3dd135" y="95.907756"/>
     <use style="fill:#1f77b4;stroke:#ffffff;stroke-width:0.75;" x="280.965141" xlink:href="#mfa8c3dd135" y="91.582929"/>
     <use style="fill:#1f77b4;stroke:#ffffff;stroke-width:0.75;" x="284.647888" xlink:href="#mfa8c3dd135" y="86.312047"/>
     <use style="fill:#1f77b4;stroke:#ffffff;stroke-width:0.75;" x="288.150915" xlink:href="#mfa8c3dd135" y="85.771443"/>
     <use style="fill:#1f77b4;stroke:#ffffff;stroke-width:0.75;" x="291.49095" xlink:href="#mfa8c3dd135" y="84.284784"/>
     <use style="fill:#1f77b4;stroke:#ffffff;stroke-width:0.75;" x="294.68249" xlink:href="#mfa8c3dd135" y="84.284784"/>
     <use style="fill:#1f77b4;stroke:#ffffff;stroke-width:0.75;" x="297.738177" xlink:href="#mfa8c3dd135" y="84.284784"/>
     <use style="fill:#1f77b4;stroke:#ffffff;stroke-width:0.75;" x="300.669107" xlink:href="#mfa8c3dd135" y="83.744181"/>
     <use style="fill:#1f77b4;stroke:#ffffff;stroke-width:0.75;" x="303.485069" xlink:href="#mfa8c3dd135" y="83.744181"/>
     <use style="fill:#1f77b4;stroke:#ffffff;stroke-width:0.75;" x="306.194742" xlink:href="#mfa8c3dd135" y="79.419354"/>
     <use style="fill:#1f77b4;stroke:#ffffff;stroke-width:0.75;" x="308.805859" xlink:href="#mfa8c3dd135" y="78.202997"/>
     <use style="fill:#1f77b4;stroke:#ffffff;stroke-width:0.75;" x="311.32534" xlink:href="#mfa8c3dd135" y="76.040583"/>
     <use style="fill:#1f77b4;stroke:#ffffff;stroke-width:0.75;" x="313.759397" xlink:href="#mfa8c3dd135" y="76.040583"/>
     <use style="fill:#1f77b4;stroke:#ffffff;stroke-width:0.75;" x="316.113635" xlink:href="#mfa8c3dd135" y="72.121209"/>
     <use style="fill:#1f77b4;stroke:#ffffff;stroke-width:0.75;" x="318.393122" xlink:href="#mfa8c3dd135" y="71.310304"/>
     <use style="fill:#1f77b4;stroke:#ffffff;stroke-width:0.75;" x="320.60246" xlink:href="#mfa8c3dd135" y="71.310304"/>
     <use style="fill:#1f77b4;stroke:#ffffff;stroke-width:0.75;" x="322.745837" xlink:href="#mfa8c3dd135" y="69.283041"/>
     <use style="fill:#1f77b4;stroke:#ffffff;stroke-width:0.75;" x="324.827079" xlink:href="#mfa8c3dd135" y="69.283041"/>
     <use style="fill:#1f77b4;stroke:#ffffff;stroke-width:0.75;" x="326.849687" xlink:href="#mfa8c3dd135" y="67.931533"/>
     <use style="fill:#1f77b4;stroke:#ffffff;stroke-width:0.75;" x="328.816873" xlink:href="#mfa8c3dd135" y="66.580024"/>
     <use style="fill:#1f77b4;stroke:#ffffff;stroke-width:0.75;" x="330.731595" xlink:href="#mfa8c3dd135" y="66.580024"/>
     <use style="fill:#1f77b4;stroke:#ffffff;stroke-width:0.75;" x="332.596578" xlink:href="#mfa8c3dd135" y="66.444874"/>
     <use style="fill:#1f77b4;stroke:#ffffff;stroke-width:0.75;" x="334.414342" xlink:href="#mfa8c3dd135" y="66.444874"/>
     <use style="fill:#1f77b4;stroke:#ffffff;stroke-width:0.75;" x="336.187217" xlink:href="#mfa8c3dd135" y="63.877008"/>
     <use style="fill:#1f77b4;stroke:#ffffff;stroke-width:0.75;" x="337.917369" xlink:href="#mfa8c3dd135" y="63.877008"/>
     <use style="fill:#1f77b4;stroke:#ffffff;stroke-width:0.75;" x="339.606807" xlink:href="#mfa8c3dd135" y="63.471555"/>
     <use style="fill:#1f77b4;stroke:#ffffff;stroke-width:0.75;" x="341.257404" xlink:href="#mfa8c3dd135" y="63.471555"/>
     <use style="fill:#1f77b4;stroke:#ffffff;stroke-width:0.75;" x="342.870906" xlink:href="#mfa8c3dd135" y="63.471555"/>
     <use style="fill:#1f77b4;stroke:#ffffff;stroke-width:0.75;" x="344.448944" xlink:href="#mfa8c3dd135" y="63.336404"/>
     <use style="fill:#1f77b4;stroke:#ffffff;stroke-width:0.75;" x="345.993042" xlink:href="#mfa8c3dd135" y="62.120047"/>
     <use style="fill:#1f77b4;stroke:#ffffff;stroke-width:0.75;" x="347.504631" xlink:href="#mfa8c3dd135" y="62.120047"/>
     <use style="fill:#1f77b4;stroke:#ffffff;stroke-width:0.75;" x="348.985051" xlink:href="#mfa8c3dd135" y="61.984896"/>
     <use style="fill:#1f77b4;stroke:#ffffff;stroke-width:0.75;" x="350.435561" xlink:href="#mfa8c3dd135" y="61.984896"/>
     <use style="fill:#1f77b4;stroke:#ffffff;stroke-width:0.75;" x="351.857347" xlink:href="#mfa8c3dd135" y="61.984896"/>
     <use style="fill:#1f77b4;stroke:#ffffff;stroke-width:0.75;" x="353.251523" xlink:href="#mfa8c3dd135" y="61.579443"/>
     <use style="fill:#1f77b4;stroke:#ffffff;stroke-width:0.75;" x="354.619142" xlink:href="#mfa8c3dd135" y="61.579443"/>
     <use style="fill:#1f77b4;stroke:#ffffff;stroke-width:0.75;" x="355.961196" xlink:href="#mfa8c3dd135" y="61.579443"/>
     <use style="fill:#1f77b4;stroke:#ffffff;stroke-width:0.75;" x="357.278624" xlink:href="#mfa8c3dd135" y="61.579443"/>
     <use style="fill:#1f77b4;stroke:#ffffff;stroke-width:0.75;" x="358.572313" xlink:href="#mfa8c3dd135" y="61.309142"/>
     <use style="fill:#1f77b4;stroke:#ffffff;stroke-width:0.75;" x="359.843104" xlink:href="#mfa8c3dd135" y="58.065522"/>
     <use style="fill:#1f77b4;stroke:#ffffff;stroke-width:0.75;" x="361.091794" xlink:href="#mfa8c3dd135" y="58.065522"/>
     <use style="fill:#1f77b4;stroke:#ffffff;stroke-width:0.75;" x="362.319136" xlink:href="#mfa8c3dd135" y="58.065522"/>
     <use style="fill:#1f77b4;stroke:#ffffff;stroke-width:0.75;" x="363.525851" xlink:href="#mfa8c3dd135" y="58.065522"/>
     <use style="fill:#1f77b4;stroke:#ffffff;stroke-width:0.75;" x="364.712619" xlink:href="#mfa8c3dd135" y="58.065522"/>
     <use style="fill:#1f77b4;stroke:#ffffff;stroke-width:0.75;" x="365.880089" xlink:href="#mfa8c3dd135" y="58.065522"/>
     <use style="fill:#1f77b4;stroke:#ffffff;stroke-width:0.75;" x="367.028878" xlink:href="#mfa8c3dd135" y="57.660069"/>
     <use style="fill:#1f77b4;stroke:#ffffff;stroke-width:0.75;" x="368.159576" xlink:href="#mfa8c3dd135" y="57.660069"/>
     <use style="fill:#1f77b4;stroke:#ffffff;stroke-width:0.75;" x="369.272743" xlink:href="#mfa8c3dd135" y="55.632807"/>
     <use style="fill:#1f77b4;stroke:#ffffff;stroke-width:0.75;" x="370.368914" xlink:href="#mfa8c3dd135" y="55.497656"/>
     <use style="fill:#1f77b4;stroke:#ffffff;stroke-width:0.75;" x="371.4486" xlink:href="#mfa8c3dd135" y="52.794639"/>
     <use style="fill:#1f77b4;stroke:#ffffff;stroke-width:0.75;" x="372.512291" xlink:href="#mfa8c3dd135" y="52.794639"/>
     <use style="fill:#1f77b4;stroke:#ffffff;stroke-width:0.75;" x="373.560453" xlink:href="#mfa8c3dd135" y="52.794639"/>
     <use style="fill:#1f77b4;stroke:#ffffff;stroke-width:0.75;" x="374.593533" xlink:href="#mfa8c3dd135" y="49.956471"/>
     <use style="fill:#1f77b4;stroke:#ffffff;stroke-width:0.75;" x="375.611959" xlink:href="#mfa8c3dd135" y="49.956471"/>
     <use style="fill:#1f77b4;stroke:#ffffff;stroke-width:0.75;" x="376.616141" xlink:href="#mfa8c3dd135" y="49.956471"/>
     <use style="fill:#1f77b4;stroke:#ffffff;stroke-width:0.75;" x="377.606471" xlink:href="#mfa8c3dd135" y="49.956471"/>
     <use style="fill:#1f77b4;stroke:#ffffff;stroke-width:0.75;" x="378.583327" xlink:href="#mfa8c3dd135" y="49.956471"/>
     <use style="fill:#1f77b4;stroke:#ffffff;stroke-width:0.75;" x="379.547071" xlink:href="#mfa8c3dd135" y="49.956471"/>
     <use style="fill:#1f77b4;stroke:#ffffff;stroke-width:0.75;" x="380.498049" xlink:href="#mfa8c3dd135" y="49.956471"/>
     <use style="fill:#1f77b4;stroke:#ffffff;stroke-width:0.75;" x="381.436596" xlink:href="#mfa8c3dd135" y="49.956471"/>
     <use style="fill:#1f77b4;stroke:#ffffff;stroke-width:0.75;" x="382.363032" xlink:href="#mfa8c3dd135" y="49.956471"/>
     <use style="fill:#1f77b4;stroke:#ffffff;stroke-width:0.75;" x="383.277666" xlink:href="#mfa8c3dd135" y="49.956471"/>
     <use style="fill:#1f77b4;stroke:#ffffff;stroke-width:0.75;" x="384.180795" xlink:href="#mfa8c3dd135" y="49.956471"/>
     <use style="fill:#1f77b4;stroke:#ffffff;stroke-width:0.75;" x="385.072705" xlink:href="#mfa8c3dd135" y="47.794058"/>
     <use style="fill:#1f77b4;stroke:#ffffff;stroke-width:0.75;" x="385.953671" xlink:href="#mfa8c3dd135" y="47.794058"/>
     <use style="fill:#1f77b4;stroke:#ffffff;stroke-width:0.75;" x="386.823958" xlink:href="#mfa8c3dd135" y="47.794058"/>
     <use style="fill:#1f77b4;stroke:#ffffff;stroke-width:0.75;" x="387.683823" xlink:href="#mfa8c3dd135" y="47.794058"/>
     <use style="fill:#1f77b4;stroke:#ffffff;stroke-width:0.75;" x="388.533511" xlink:href="#mfa8c3dd135" y="47.794058"/>
     <use style="fill:#1f77b4;stroke:#ffffff;stroke-width:0.75;" x="389.373261" xlink:href="#mfa8c3dd135" y="48.267086"/>
     <use style="fill:#1f77b4;stroke:#ffffff;stroke-width:0.75;" x="390.203303" xlink:href="#mfa8c3dd135" y="48.267086"/>
     <use style="fill:#1f77b4;stroke:#ffffff;stroke-width:0.75;" x="391.023858" xlink:href="#mfa8c3dd135" y="48.267086"/>
     <use style="fill:#1f77b4;stroke:#ffffff;stroke-width:0.75;" x="391.835142" xlink:href="#mfa8c3dd135" y="45.428918"/>
     <use style="fill:#1f77b4;stroke:#ffffff;stroke-width:0.75;" x="392.63736" xlink:href="#mfa8c3dd135" y="44.009834"/>
     <use style="fill:#1f77b4;stroke:#ffffff;stroke-width:0.75;" x="393.430714" xlink:href="#mfa8c3dd135" y="43.671957"/>
     <use style="fill:#1f77b4;stroke:#ffffff;stroke-width:0.75;" x="394.215398" xlink:href="#mfa8c3dd135" y="43.604382"/>
    </g>
   </g>
   <g id="line2d_33">
    <path clip-path="url(#pb1bf98ac0d)" d="M 69.560852 273.360807 
L 119.327306 221.192583 
L 148.438816 198.892695 
L 169.09376 175.781902 
L 185.11498 162.537119 
L 198.205269 155.914728 
L 209.272952 149.427488 
L 218.860214 146.048717 
L 227.316779 145.102661 
L 234.881434 144.021455 
L 241.724496 141.048136 
L 247.971723 141.048136 
L 253.718615 141.048136 
L 259.039406 141.048136 
L 263.992943 141.048136 
L 268.626668 141.048136 
L 272.979383 141.048136 
L 277.083233 141.048136 
L 280.965141 138.074818 
L 284.647888 138.074818 
L 288.150915 137.263913 
L 291.49095 137.263913 
L 294.68249 130.37122 
L 297.738177 130.236069 
L 300.669107 129.290013 
L 303.485069 126.181544 
L 306.194742 125.776091 
L 308.805859 125.50579 
L 311.32534 125.50579 
L 313.759397 123.478527 
L 316.113635 115.639779 
L 318.393122 115.234326 
L 320.60246 114.828874 
L 322.745837 114.828874 
L 324.827079 114.423421 
L 326.849687 108.206483 
L 328.816873 108.206483 
L 330.731595 108.206483 
L 332.596578 107.395578 
L 334.414342 105.368315 
L 336.187217 95.096851 
L 337.917369 95.096851 
L 339.606807 93.745343 
L 341.257404 93.745343 
L 342.870906 90.501723 
L 344.448944 89.961119 
L 345.993042 89.150214 
L 347.504631 85.23084 
L 348.985051 82.662974 
L 350.435561 82.662974 
L 351.857347 82.662974 
L 353.251523 82.527823 
L 354.619142 81.98722 
L 355.961196 80.36541 
L 357.278624 80.36541 
L 358.572313 80.36541 
L 359.843104 80.36541 
L 361.091794 76.040583 
L 362.319136 72.661812 
L 363.525851 72.661812 
L 364.712619 72.661812 
L 365.880089 71.986058 
L 367.028878 71.580605 
L 368.159576 71.580605 
L 369.272743 71.580605 
L 370.368914 71.580605 
L 371.4486 71.580605 
L 372.512291 71.580605 
L 373.560453 71.580605 
L 374.593533 71.580605 
L 375.611959 71.580605 
L 376.616141 69.14789 
L 377.606471 63.336404 
L 378.583327 63.201253 
L 379.547071 63.201253 
L 380.498049 63.201253 
L 381.436596 62.930952 
L 382.363032 59.822483 
L 383.277666 59.822483 
L 384.180795 59.822483 
L 385.072705 59.822483 
L 385.953671 59.41703 
L 386.823958 59.41703 
L 387.683823 59.41703 
L 388.533511 58.065522 
L 389.373261 58.065522 
L 390.203303 58.065522 
L 391.023858 58.065522 
L 391.835142 58.065522 
L 392.63736 55.903108 
L 393.430714 54.416449 
L 394.215398 54.416449 
" style="fill:none;stroke:#d62728;stroke-linecap:square;stroke-width:1.5;"/>
    <defs>
     <path d="M 0 -3 
L -3 3 
L 3 3 
z
" id="m8a0b227c38" style="stroke:#ffffff;stroke-linejoin:miter;stroke-width:0.75;"/>
    </defs>
    <g clip-path="url(#pb1bf98ac0d)">
     <use style="fill:#d62728;stroke:#ffffff;stroke-linejoin:miter;stroke-width:0.75;" x="69.560852" xlink:href="#m8a0b227c38" y="273.360807"/>
     <use style="fill:#d62728;stroke:#ffffff;stroke-linejoin:miter;stroke-width:0.75;" x="119.327306" xlink:href="#m8a0b227c38" y="221.192583"/>
     <use style="fill:#d62728;stroke:#ffffff;stroke-linejoin:miter;stroke-width:0.75;" x="148.438816" xlink:href="#m8a0b227c38" y="198.892695"/>
     <use style="fill:#d62728;stroke:#ffffff;stroke-linejoin:miter;stroke-width:0.75;" x="169.09376" xlink:href="#m8a0b227c38" y="175.781902"/>
     <use style="fill:#d62728;stroke:#ffffff;stroke-linejoin:miter;stroke-width:0.75;" x="185.11498" xlink:href="#m8a0b227c38" y="162.537119"/>
     <use style="fill:#d62728;stroke:#ffffff;stroke-linejoin:miter;stroke-width:0.75;" x="198.205269" xlink:href="#m8a0b227c38" y="155.914728"/>
     <use style="fill:#d62728;stroke:#ffffff;stroke-linejoin:miter;stroke-width:0.75;" x="209.272952" xlink:href="#m8a0b227c38" y="149.427488"/>
     <use style="fill:#d62728;stroke:#ffffff;stroke-linejoin:miter;stroke-width:0.75;" x="218.860214" xlink:href="#m8a0b227c38" y="146.048717"/>
     <use style="fill:#d62728;stroke:#ffffff;stroke-linejoin:miter;stroke-width:0.75;" x="227.316779" xlink:href="#m8a0b227c38" y="145.102661"/>
     <use style="fill:#d62728;stroke:#ffffff;stroke-linejoin:miter;stroke-width:0.75;" x="234.881434" xlink:href="#m8a0b227c38" y="144.021455"/>
     <use style="fill:#d62728;stroke:#ffffff;stroke-linejoin:miter;stroke-width:0.75;" x="241.724496" xlink:href="#m8a0b227c38" y="141.048136"/>
     <use style="fill:#d62728;stroke:#ffffff;stroke-linejoin:miter;stroke-width:0.75;" x="247.971723" xlink:href="#m8a0b227c38" y="141.048136"/>
     <use style="fill:#d62728;stroke:#ffffff;stroke-linejoin:miter;stroke-width:0.75;" x="253.718615" xlink:href="#m8a0b227c38" y="141.048136"/>
     <use style="fill:#d62728;stroke:#ffffff;stroke-linejoin:miter;stroke-width:0.75;" x="259.039406" xlink:href="#m8a0b227c38" y="141.048136"/>
     <use style="fill:#d62728;stroke:#ffffff;stroke-linejoin:miter;stroke-width:0.75;" x="263.992943" xlink:href="#m8a0b227c38" y="141.048136"/>
     <use style="fill:#d62728;stroke:#ffffff;stroke-linejoin:miter;stroke-width:0.75;" x="268.626668" xlink:href="#m8a0b227c38" y="141.048136"/>
     <use style="fill:#d62728;stroke:#ffffff;stroke-linejoin:miter;stroke-width:0.75;" x="272.979383" xlink:href="#m8a0b227c38" y="141.048136"/>
     <use style="fill:#d62728;stroke:#ffffff;stroke-linejoin:miter;stroke-width:0.75;" x="277.083233" xlink:href="#m8a0b227c38" y="141.048136"/>
     <use style="fill:#d62728;stroke:#ffffff;stroke-linejoin:miter;stroke-width:0.75;" x="280.965141" xlink:href="#m8a0b227c38" y="138.074818"/>
     <use style="fill:#d62728;stroke:#ffffff;stroke-linejoin:miter;stroke-width:0.75;" x="284.647888" xlink:href="#m8a0b227c38" y="138.074818"/>
     <use style="fill:#d62728;stroke:#ffffff;stroke-linejoin:miter;stroke-width:0.75;" x="288.150915" xlink:href="#m8a0b227c38" y="137.263913"/>
     <use style="fill:#d62728;stroke:#ffffff;stroke-linejoin:miter;stroke-width:0.75;" x="291.49095" xlink:href="#m8a0b227c38" y="137.263913"/>
     <use style="fill:#d62728;stroke:#ffffff;stroke-linejoin:miter;stroke-width:0.75;" x="294.68249" xlink:href="#m8a0b227c38" y="130.37122"/>
     <use style="fill:#d62728;stroke:#ffffff;stroke-linejoin:miter;stroke-width:0.75;" x="297.738177" xlink:href="#m8a0b227c38" y="130.236069"/>
     <use style="fill:#d62728;stroke:#ffffff;stroke-linejoin:miter;stroke-width:0.75;" x="300.669107" xlink:href="#m8a0b227c38" y="129.290013"/>
     <use style="fill:#d62728;stroke:#ffffff;stroke-linejoin:miter;stroke-width:0.75;" x="303.485069" xlink:href="#m8a0b227c38" y="126.181544"/>
     <use style="fill:#d62728;stroke:#ffffff;stroke-linejoin:miter;stroke-width:0.75;" x="306.194742" xlink:href="#m8a0b227c38" y="125.776091"/>
     <use style="fill:#d62728;stroke:#ffffff;stroke-linejoin:miter;stroke-width:0.75;" x="308.805859" xlink:href="#m8a0b227c38" y="125.50579"/>
     <use style="fill:#d62728;stroke:#ffffff;stroke-linejoin:miter;stroke-width:0.75;" x="311.32534" xlink:href="#m8a0b227c38" y="125.50579"/>
     <use style="fill:#d62728;stroke:#ffffff;stroke-linejoin:miter;stroke-width:0.75;" x="313.759397" xlink:href="#m8a0b227c38" y="123.478527"/>
     <use style="fill:#d62728;stroke:#ffffff;stroke-linejoin:miter;stroke-width:0.75;" x="316.113635" xlink:href="#m8a0b227c38" y="115.639779"/>
     <use style="fill:#d62728;stroke:#ffffff;stroke-linejoin:miter;stroke-width:0.75;" x="318.393122" xlink:href="#m8a0b227c38" y="115.234326"/>
     <use style="fill:#d62728;stroke:#ffffff;stroke-linejoin:miter;stroke-width:0.75;" x="320.60246" xlink:href="#m8a0b227c38" y="114.828874"/>
     <use style="fill:#d62728;stroke:#ffffff;stroke-linejoin:miter;stroke-width:0.75;" x="322.745837" xlink:href="#m8a0b227c38" y="114.828874"/>
     <use style="fill:#d62728;stroke:#ffffff;stroke-linejoin:miter;stroke-width:0.75;" x="324.827079" xlink:href="#m8a0b227c38" y="114.423421"/>
     <use style="fill:#d62728;stroke:#ffffff;stroke-linejoin:miter;stroke-width:0.75;" x="326.849687" xlink:href="#m8a0b227c38" y="108.206483"/>
     <use style="fill:#d62728;stroke:#ffffff;stroke-linejoin:miter;stroke-width:0.75;" x="328.816873" xlink:href="#m8a0b227c38" y="108.206483"/>
     <use style="fill:#d62728;stroke:#ffffff;stroke-linejoin:miter;stroke-width:0.75;" x="330.731595" xlink:href="#m8a0b227c38" y="108.206483"/>
     <use style="fill:#d62728;stroke:#ffffff;stroke-linejoin:miter;stroke-width:0.75;" x="332.596578" xlink:href="#m8a0b227c38" y="107.395578"/>
     <use style="fill:#d62728;stroke:#ffffff;stroke-linejoin:miter;stroke-width:0.75;" x="334.414342" xlink:href="#m8a0b227c38" y="105.368315"/>
     <use style="fill:#d62728;stroke:#ffffff;stroke-linejoin:miter;stroke-width:0.75;" x="336.187217" xlink:href="#m8a0b227c38" y="95.096851"/>
     <use style="fill:#d62728;stroke:#ffffff;stroke-linejoin:miter;stroke-width:0.75;" x="337.917369" xlink:href="#m8a0b227c38" y="95.096851"/>
     <use style="fill:#d62728;stroke:#ffffff;stroke-linejoin:miter;stroke-width:0.75;" x="339.606807" xlink:href="#m8a0b227c38" y="93.745343"/>
     <use style="fill:#d62728;stroke:#ffffff;stroke-linejoin:miter;stroke-width:0.75;" x="341.257404" xlink:href="#m8a0b227c38" y="93.745343"/>
     <use style="fill:#d62728;stroke:#ffffff;stroke-linejoin:miter;stroke-width:0.75;" x="342.870906" xlink:href="#m8a0b227c38" y="90.501723"/>
     <use style="fill:#d62728;stroke:#ffffff;stroke-linejoin:miter;stroke-width:0.75;" x="344.448944" xlink:href="#m8a0b227c38" y="89.961119"/>
     <use style="fill:#d62728;stroke:#ffffff;stroke-linejoin:miter;stroke-width:0.75;" x="345.993042" xlink:href="#m8a0b227c38" y="89.150214"/>
     <use style="fill:#d62728;stroke:#ffffff;stroke-linejoin:miter;stroke-width:0.75;" x="347.504631" xlink:href="#m8a0b227c38" y="85.23084"/>
     <use style="fill:#d62728;stroke:#ffffff;stroke-linejoin:miter;stroke-width:0.75;" x="348.985051" xlink:href="#m8a0b227c38" y="82.662974"/>
     <use style="fill:#d62728;stroke:#ffffff;stroke-linejoin:miter;stroke-width:0.75;" x="350.435561" xlink:href="#m8a0b227c38" y="82.662974"/>
     <use style="fill:#d62728;stroke:#ffffff;stroke-linejoin:miter;stroke-width:0.75;" x="351.857347" xlink:href="#m8a0b227c38" y="82.662974"/>
     <use style="fill:#d62728;stroke:#ffffff;stroke-linejoin:miter;stroke-width:0.75;" x="353.251523" xlink:href="#m8a0b227c38" y="82.527823"/>
     <use style="fill:#d62728;stroke:#ffffff;stroke-linejoin:miter;stroke-width:0.75;" x="354.619142" xlink:href="#m8a0b227c38" y="81.98722"/>
     <use style="fill:#d62728;stroke:#ffffff;stroke-linejoin:miter;stroke-width:0.75;" x="355.961196" xlink:href="#m8a0b227c38" y="80.36541"/>
     <use style="fill:#d62728;stroke:#ffffff;stroke-linejoin:miter;stroke-width:0.75;" x="357.278624" xlink:href="#m8a0b227c38" y="80.36541"/>
     <use style="fill:#d62728;stroke:#ffffff;stroke-linejoin:miter;stroke-width:0.75;" x="358.572313" xlink:href="#m8a0b227c38" y="80.36541"/>
     <use style="fill:#d62728;stroke:#ffffff;stroke-linejoin:miter;stroke-width:0.75;" x="359.843104" xlink:href="#m8a0b227c38" y="80.36541"/>
     <use style="fill:#d62728;stroke:#ffffff;stroke-linejoin:miter;stroke-width:0.75;" x="361.091794" xlink:href="#m8a0b227c38" y="76.040583"/>
     <use style="fill:#d62728;stroke:#ffffff;stroke-linejoin:miter;stroke-width:0.75;" x="362.319136" xlink:href="#m8a0b227c38" y="72.661812"/>
     <use style="fill:#d62728;stroke:#ffffff;stroke-linejoin:miter;stroke-width:0.75;" x="363.525851" xlink:href="#m8a0b227c38" y="72.661812"/>
     <use style="fill:#d62728;stroke:#ffffff;stroke-linejoin:miter;stroke-width:0.75;" x="364.712619" xlink:href="#m8a0b227c38" y="72.661812"/>
     <use style="fill:#d62728;stroke:#ffffff;stroke-linejoin:miter;stroke-width:0.75;" x="365.880089" xlink:href="#m8a0b227c38" y="71.986058"/>
     <use style="fill:#d62728;stroke:#ffffff;stroke-linejoin:miter;stroke-width:0.75;" x="367.028878" xlink:href="#m8a0b227c38" y="71.580605"/>
     <use style="fill:#d62728;stroke:#ffffff;stroke-linejoin:miter;stroke-width:0.75;" x="368.159576" xlink:href="#m8a0b227c38" y="71.580605"/>
     <use style="fill:#d62728;stroke:#ffffff;stroke-linejoin:miter;stroke-width:0.75;" x="369.272743" xlink:href="#m8a0b227c38" y="71.580605"/>
     <use style="fill:#d62728;stroke:#ffffff;stroke-linejoin:miter;stroke-width:0.75;" x="370.368914" xlink:href="#m8a0b227c38" y="71.580605"/>
     <use style="fill:#d62728;stroke:#ffffff;stroke-linejoin:miter;stroke-width:0.75;" x="371.4486" xlink:href="#m8a0b227c38" y="71.580605"/>
     <use style="fill:#d62728;stroke:#ffffff;stroke-linejoin:miter;stroke-width:0.75;" x="372.512291" xlink:href="#m8a0b227c38" y="71.580605"/>
     <use style="fill:#d62728;stroke:#ffffff;stroke-linejoin:miter;stroke-width:0.75;" x="373.560453" xlink:href="#m8a0b227c38" y="71.580605"/>
     <use style="fill:#d62728;stroke:#ffffff;stroke-linejoin:miter;stroke-width:0.75;" x="374.593533" xlink:href="#m8a0b227c38" y="71.580605"/>
     <use style="fill:#d62728;stroke:#ffffff;stroke-linejoin:miter;stroke-width:0.75;" x="375.611959" xlink:href="#m8a0b227c38" y="71.580605"/>
     <use style="fill:#d62728;stroke:#ffffff;stroke-linejoin:miter;stroke-width:0.75;" x="376.616141" xlink:href="#m8a0b227c38" y="69.14789"/>
     <use style="fill:#d62728;stroke:#ffffff;stroke-linejoin:miter;stroke-width:0.75;" x="377.606471" xlink:href="#m8a0b227c38" y="63.336404"/>
     <use style="fill:#d62728;stroke:#ffffff;stroke-linejoin:miter;stroke-width:0.75;" x="378.583327" xlink:href="#m8a0b227c38" y="63.201253"/>
     <use style="fill:#d62728;stroke:#ffffff;stroke-linejoin:miter;stroke-width:0.75;" x="379.547071" xlink:href="#m8a0b227c38" y="63.201253"/>
     <use style="fill:#d62728;stroke:#ffffff;stroke-linejoin:miter;stroke-width:0.75;" x="380.498049" xlink:href="#m8a0b227c38" y="63.201253"/>
     <use style="fill:#d62728;stroke:#ffffff;stroke-linejoin:miter;stroke-width:0.75;" x="381.436596" xlink:href="#m8a0b227c38" y="62.930952"/>
     <use style="fill:#d62728;stroke:#ffffff;stroke-linejoin:miter;stroke-width:0.75;" x="382.363032" xlink:href="#m8a0b227c38" y="59.822483"/>
     <use style="fill:#d62728;stroke:#ffffff;stroke-linejoin:miter;stroke-width:0.75;" x="383.277666" xlink:href="#m8a0b227c38" y="59.822483"/>
     <use style="fill:#d62728;stroke:#ffffff;stroke-linejoin:miter;stroke-width:0.75;" x="384.180795" xlink:href="#m8a0b227c38" y="59.822483"/>
     <use style="fill:#d62728;stroke:#ffffff;stroke-linejoin:miter;stroke-width:0.75;" x="385.072705" xlink:href="#m8a0b227c38" y="59.822483"/>
     <use style="fill:#d62728;stroke:#ffffff;stroke-linejoin:miter;stroke-width:0.75;" x="385.953671" xlink:href="#m8a0b227c38" y="59.41703"/>
     <use style="fill:#d62728;stroke:#ffffff;stroke-linejoin:miter;stroke-width:0.75;" x="386.823958" xlink:href="#m8a0b227c38" y="59.41703"/>
     <use style="fill:#d62728;stroke:#ffffff;stroke-linejoin:miter;stroke-width:0.75;" x="387.683823" xlink:href="#m8a0b227c38" y="59.41703"/>
     <use style="fill:#d62728;stroke:#ffffff;stroke-linejoin:miter;stroke-width:0.75;" x="388.533511" xlink:href="#m8a0b227c38" y="58.065522"/>
     <use style="fill:#d62728;stroke:#ffffff;stroke-linejoin:miter;stroke-width:0.75;" x="389.373261" xlink:href="#m8a0b227c38" y="58.065522"/>
     <use style="fill:#d62728;stroke:#ffffff;stroke-linejoin:miter;stroke-width:0.75;" x="390.203303" xlink:href="#m8a0b227c38" y="58.065522"/>
     <use style="fill:#d62728;stroke:#ffffff;stroke-linejoin:miter;stroke-width:0.75;" x="391.023858" xlink:href="#m8a0b227c38" y="58.065522"/>
     <use style="fill:#d62728;stroke:#ffffff;stroke-linejoin:miter;stroke-width:0.75;" x="391.835142" xlink:href="#m8a0b227c38" y="58.065522"/>
     <use style="fill:#d62728;stroke:#ffffff;stroke-linejoin:miter;stroke-width:0.75;" x="392.63736" xlink:href="#m8a0b227c38" y="55.903108"/>
     <use style="fill:#d62728;stroke:#ffffff;stroke-linejoin:miter;stroke-width:0.75;" x="393.430714" xlink:href="#m8a0b227c38" y="54.416449"/>
     <use style="fill:#d62728;stroke:#ffffff;stroke-linejoin:miter;stroke-width:0.75;" x="394.215398" xlink:href="#m8a0b227c38" y="54.416449"/>
    </g>
   </g>
   <g id="line2d_34">
    <path clip-path="url(#pb1bf98ac0d)" d="M 69.560852 240.789455 
L 119.327306 192.878483 
L 148.438816 180.917633 
L 169.09376 160.374706 
L 185.11498 150.643846 
L 198.205269 143.142974 
L 209.272952 124.559734 
L 218.860214 117.261589 
L 227.316779 115.369477 
L 234.881434 111.585253 
L 241.724496 110.909499 
L 247.971723 110.504047 
L 253.718615 107.530728 
L 259.039406 107.530728 
L 263.992943 105.233164 
L 268.626668 97.394416 
L 272.979383 97.799868 
L 277.083233 92.055957 
L 280.965141 91.920807 
L 284.647888 91.042326 
L 288.150915 90.501723 
L 291.49095 89.082639 
L 294.68249 89.082639 
L 297.738177 88.271734 
L 300.669107 86.717499 
L 303.485069 81.852069 
L 306.194742 81.649343 
L 308.805859 85.906594 
L 311.32534 83.879332 
L 313.759397 83.879332 
L 316.113635 83.744181 
L 318.393122 83.744181 
L 320.60246 83.744181 
L 322.745837 83.879332 
L 324.827079 83.676605 
L 326.849687 76.581186 
L 328.816873 72.729388 
L 330.731595 75.770281 
L 332.596578 75.770281 
L 334.414342 75.770281 
L 336.187217 75.635131 
L 337.917369 75.635131 
L 339.606807 75.635131 
L 341.257404 74.216047 
L 342.870906 74.216047 
L 344.448944 72.796963 
L 345.993042 72.661812 
L 347.504631 72.661812 
L 348.985051 72.39151 
L 350.435561 72.39151 
L 351.857347 71.310304 
L 353.251523 71.310304 
L 354.619142 71.175153 
L 355.961196 70.904851 
L 357.278624 70.904851 
L 358.572313 70.904851 
L 359.843104 69.756069 
L 361.091794 69.283041 
L 362.319136 69.283041 
L 363.525851 69.958795 
L 364.712619 68.472136 
L 365.880089 68.472136 
L 367.028878 68.336985 
L 368.159576 68.201834 
L 369.272743 66.309723 
L 370.368914 64.687913 
L 371.4486 64.687913 
L 372.512291 64.687913 
L 373.560453 64.687913 
L 374.593533 64.552762 
L 375.611959 64.552762 
L 376.616141 52.254036 
L 377.606471 52.254036 
L 378.583327 52.18646 
L 379.547071 51.30798 
L 380.498049 51.172829 
L 381.436596 51.172829 
L 382.363032 50.902527 
L 383.277666 50.902527 
L 384.180795 51.172829 
L 385.072705 51.172829 
L 385.953671 51.037678 
L 386.823958 51.037678 
L 387.683823 50.767376 
L 388.533511 50.429499 
L 389.373261 50.497075 
L 390.203303 50.497075 
L 391.023858 50.497075 
L 391.835142 50.429499 
L 392.63736 50.294348 
L 393.430714 48.875265 
L 394.215398 50.497075 
" style="fill:none;stroke:#98df8a;stroke-linecap:square;stroke-width:1.5;"/>
    <defs>
     <path d="M -0 3 
L 3 -3 
L -3 -3 
z
" id="mabfbb88e63" style="stroke:#ffffff;stroke-linejoin:miter;stroke-width:0.75;"/>
    </defs>
    <g clip-path="url(#pb1bf98ac0d)">
     <use style="fill:#98df8a;stroke:#ffffff;stroke-linejoin:miter;stroke-width:0.75;" x="69.560852" xlink:href="#mabfbb88e63" y="240.789455"/>
     <use style="fill:#98df8a;stroke:#ffffff;stroke-linejoin:miter;stroke-width:0.75;" x="119.327306" xlink:href="#mabfbb88e63" y="192.878483"/>
     <use style="fill:#98df8a;stroke:#ffffff;stroke-linejoin:miter;stroke-width:0.75;" x="148.438816" xlink:href="#mabfbb88e63" y="180.917633"/>
     <use style="fill:#98df8a;stroke:#ffffff;stroke-linejoin:miter;stroke-width:0.75;" x="169.09376" xlink:href="#mabfbb88e63" y="160.374706"/>
     <use style="fill:#98df8a;stroke:#ffffff;stroke-linejoin:miter;stroke-width:0.75;" x="185.11498" xlink:href="#mabfbb88e63" y="150.643846"/>
     <use style="fill:#98df8a;stroke:#ffffff;stroke-linejoin:miter;stroke-width:0.75;" x="198.205269" xlink:href="#mabfbb88e63" y="143.142974"/>
     <use style="fill:#98df8a;stroke:#ffffff;stroke-linejoin:miter;stroke-width:0.75;" x="209.272952" xlink:href="#mabfbb88e63" y="124.559734"/>
     <use style="fill:#98df8a;stroke:#ffffff;stroke-linejoin:miter;stroke-width:0.75;" x="218.860214" xlink:href="#mabfbb88e63" y="117.261589"/>
     <use style="fill:#98df8a;stroke:#ffffff;stroke-linejoin:miter;stroke-width:0.75;" x="227.316779" xlink:href="#mabfbb88e63" y="115.369477"/>
     <use style="fill:#98df8a;stroke:#ffffff;stroke-linejoin:miter;stroke-width:0.75;" x="234.881434" xlink:href="#mabfbb88e63" y="111.585253"/>
     <use style="fill:#98df8a;stroke:#ffffff;stroke-linejoin:miter;stroke-width:0.75;" x="241.724496" xlink:href="#mabfbb88e63" y="110.909499"/>
     <use style="fill:#98df8a;stroke:#ffffff;stroke-linejoin:miter;stroke-width:0.75;" x="247.971723" xlink:href="#mabfbb88e63" y="110.504047"/>
     <use style="fill:#98df8a;stroke:#ffffff;stroke-linejoin:miter;stroke-width:0.75;" x="253.718615" xlink:href="#mabfbb88e63" y="107.530728"/>
     <use style="fill:#98df8a;stroke:#ffffff;stroke-linejoin:miter;stroke-width:0.75;" x="259.039406" xlink:href="#mabfbb88e63" y="107.530728"/>
     <use style="fill:#98df8a;stroke:#ffffff;stroke-linejoin:miter;stroke-width:0.75;" x="263.992943" xlink:href="#mabfbb88e63" y="105.233164"/>
     <use style="fill:#98df8a;stroke:#ffffff;stroke-linejoin:miter;stroke-width:0.75;" x="268.626668" xlink:href="#mabfbb88e63" y="97.394416"/>
     <use style="fill:#98df8a;stroke:#ffffff;stroke-linejoin:miter;stroke-width:0.75;" x="272.979383" xlink:href="#mabfbb88e63" y="97.799868"/>
     <use style="fill:#98df8a;stroke:#ffffff;stroke-linejoin:miter;stroke-width:0.75;" x="277.083233" xlink:href="#mabfbb88e63" y="92.055957"/>
     <use style="fill:#98df8a;stroke:#ffffff;stroke-linejoin:miter;stroke-width:0.75;" x="280.965141" xlink:href="#mabfbb88e63" y="91.920807"/>
     <use style="fill:#98df8a;stroke:#ffffff;stroke-linejoin:miter;stroke-width:0.75;" x="284.647888" xlink:href="#mabfbb88e63" y="91.042326"/>
     <use style="fill:#98df8a;stroke:#ffffff;stroke-linejoin:miter;stroke-width:0.75;" x="288.150915" xlink:href="#mabfbb88e63" y="90.501723"/>
     <use style="fill:#98df8a;stroke:#ffffff;stroke-linejoin:miter;stroke-width:0.75;" x="291.49095" xlink:href="#mabfbb88e63" y="89.082639"/>
     <use style="fill:#98df8a;stroke:#ffffff;stroke-linejoin:miter;stroke-width:0.75;" x="294.68249" xlink:href="#mabfbb88e63" y="89.082639"/>
     <use style="fill:#98df8a;stroke:#ffffff;stroke-linejoin:miter;stroke-width:0.75;" x="297.738177" xlink:href="#mabfbb88e63" y="88.271734"/>
     <use style="fill:#98df8a;stroke:#ffffff;stroke-linejoin:miter;stroke-width:0.75;" x="300.669107" xlink:href="#mabfbb88e63" y="86.717499"/>
     <use style="fill:#98df8a;stroke:#ffffff;stroke-linejoin:miter;stroke-width:0.75;" x="303.485069" xlink:href="#mabfbb88e63" y="81.852069"/>
     <use style="fill:#98df8a;stroke:#ffffff;stroke-linejoin:miter;stroke-width:0.75;" x="306.194742" xlink:href="#mabfbb88e63" y="81.649343"/>
     <use style="fill:#98df8a;stroke:#ffffff;stroke-linejoin:miter;stroke-width:0.75;" x="308.805859" xlink:href="#mabfbb88e63" y="85.906594"/>
     <use style="fill:#98df8a;stroke:#ffffff;stroke-linejoin:miter;stroke-width:0.75;" x="311.32534" xlink:href="#mabfbb88e63" y="83.879332"/>
     <use style="fill:#98df8a;stroke:#ffffff;stroke-linejoin:miter;stroke-width:0.75;" x="313.759397" xlink:href="#mabfbb88e63" y="83.879332"/>
     <use style="fill:#98df8a;stroke:#ffffff;stroke-linejoin:miter;stroke-width:0.75;" x="316.113635" xlink:href="#mabfbb88e63" y="83.744181"/>
     <use style="fill:#98df8a;stroke:#ffffff;stroke-linejoin:miter;stroke-width:0.75;" x="318.393122" xlink:href="#mabfbb88e63" y="83.744181"/>
     <use style="fill:#98df8a;stroke:#ffffff;stroke-linejoin:miter;stroke-width:0.75;" x="320.60246" xlink:href="#mabfbb88e63" y="83.744181"/>
     <use style="fill:#98df8a;stroke:#ffffff;stroke-linejoin:miter;stroke-width:0.75;" x="322.745837" xlink:href="#mabfbb88e63" y="83.879332"/>
     <use style="fill:#98df8a;stroke:#ffffff;stroke-linejoin:miter;stroke-width:0.75;" x="324.827079" xlink:href="#mabfbb88e63" y="83.676605"/>
     <use style="fill:#98df8a;stroke:#ffffff;stroke-linejoin:miter;stroke-width:0.75;" x="326.849687" xlink:href="#mabfbb88e63" y="76.581186"/>
     <use style="fill:#98df8a;stroke:#ffffff;stroke-linejoin:miter;stroke-width:0.75;" x="328.816873" xlink:href="#mabfbb88e63" y="72.729388"/>
     <use style="fill:#98df8a;stroke:#ffffff;stroke-linejoin:miter;stroke-width:0.75;" x="330.731595" xlink:href="#mabfbb88e63" y="75.770281"/>
     <use style="fill:#98df8a;stroke:#ffffff;stroke-linejoin:miter;stroke-width:0.75;" x="332.596578" xlink:href="#mabfbb88e63" y="75.770281"/>
     <use style="fill:#98df8a;stroke:#ffffff;stroke-linejoin:miter;stroke-width:0.75;" x="334.414342" xlink:href="#mabfbb88e63" y="75.770281"/>
     <use style="fill:#98df8a;stroke:#ffffff;stroke-linejoin:miter;stroke-width:0.75;" x="336.187217" xlink:href="#mabfbb88e63" y="75.635131"/>
     <use style="fill:#98df8a;stroke:#ffffff;stroke-linejoin:miter;stroke-width:0.75;" x="337.917369" xlink:href="#mabfbb88e63" y="75.635131"/>
     <use style="fill:#98df8a;stroke:#ffffff;stroke-linejoin:miter;stroke-width:0.75;" x="339.606807" xlink:href="#mabfbb88e63" y="75.635131"/>
     <use style="fill:#98df8a;stroke:#ffffff;stroke-linejoin:miter;stroke-width:0.75;" x="341.257404" xlink:href="#mabfbb88e63" y="74.216047"/>
     <use style="fill:#98df8a;stroke:#ffffff;stroke-linejoin:miter;stroke-width:0.75;" x="342.870906" xlink:href="#mabfbb88e63" y="74.216047"/>
     <use style="fill:#98df8a;stroke:#ffffff;stroke-linejoin:miter;stroke-width:0.75;" x="344.448944" xlink:href="#mabfbb88e63" y="72.796963"/>
     <use style="fill:#98df8a;stroke:#ffffff;stroke-linejoin:miter;stroke-width:0.75;" x="345.993042" xlink:href="#mabfbb88e63" y="72.661812"/>
     <use style="fill:#98df8a;stroke:#ffffff;stroke-linejoin:miter;stroke-width:0.75;" x="347.504631" xlink:href="#mabfbb88e63" y="72.661812"/>
     <use style="fill:#98df8a;stroke:#ffffff;stroke-linejoin:miter;stroke-width:0.75;" x="348.985051" xlink:href="#mabfbb88e63" y="72.39151"/>
     <use style="fill:#98df8a;stroke:#ffffff;stroke-linejoin:miter;stroke-width:0.75;" x="350.435561" xlink:href="#mabfbb88e63" y="72.39151"/>
     <use style="fill:#98df8a;stroke:#ffffff;stroke-linejoin:miter;stroke-width:0.75;" x="351.857347" xlink:href="#mabfbb88e63" y="71.310304"/>
     <use style="fill:#98df8a;stroke:#ffffff;stroke-linejoin:miter;stroke-width:0.75;" x="353.251523" xlink:href="#mabfbb88e63" y="71.310304"/>
     <use style="fill:#98df8a;stroke:#ffffff;stroke-linejoin:miter;stroke-width:0.75;" x="354.619142" xlink:href="#mabfbb88e63" y="71.175153"/>
     <use style="fill:#98df8a;stroke:#ffffff;stroke-linejoin:miter;stroke-width:0.75;" x="355.961196" xlink:href="#mabfbb88e63" y="70.904851"/>
     <use style="fill:#98df8a;stroke:#ffffff;stroke-linejoin:miter;stroke-width:0.75;" x="357.278624" xlink:href="#mabfbb88e63" y="70.904851"/>
     <use style="fill:#98df8a;stroke:#ffffff;stroke-linejoin:miter;stroke-width:0.75;" x="358.572313" xlink:href="#mabfbb88e63" y="70.904851"/>
     <use style="fill:#98df8a;stroke:#ffffff;stroke-linejoin:miter;stroke-width:0.75;" x="359.843104" xlink:href="#mabfbb88e63" y="69.756069"/>
     <use style="fill:#98df8a;stroke:#ffffff;stroke-linejoin:miter;stroke-width:0.75;" x="361.091794" xlink:href="#mabfbb88e63" y="69.283041"/>
     <use style="fill:#98df8a;stroke:#ffffff;stroke-linejoin:miter;stroke-width:0.75;" x="362.319136" xlink:href="#mabfbb88e63" y="69.283041"/>
     <use style="fill:#98df8a;stroke:#ffffff;stroke-linejoin:miter;stroke-width:0.75;" x="363.525851" xlink:href="#mabfbb88e63" y="69.958795"/>
     <use style="fill:#98df8a;stroke:#ffffff;stroke-linejoin:miter;stroke-width:0.75;" x="364.712619" xlink:href="#mabfbb88e63" y="68.472136"/>
     <use style="fill:#98df8a;stroke:#ffffff;stroke-linejoin:miter;stroke-width:0.75;" x="365.880089" xlink:href="#mabfbb88e63" y="68.472136"/>
     <use style="fill:#98df8a;stroke:#ffffff;stroke-linejoin:miter;stroke-width:0.75;" x="367.028878" xlink:href="#mabfbb88e63" y="68.336985"/>
     <use style="fill:#98df8a;stroke:#ffffff;stroke-linejoin:miter;stroke-width:0.75;" x="368.159576" xlink:href="#mabfbb88e63" y="68.201834"/>
     <use style="fill:#98df8a;stroke:#ffffff;stroke-linejoin:miter;stroke-width:0.75;" x="369.272743" xlink:href="#mabfbb88e63" y="66.309723"/>
     <use style="fill:#98df8a;stroke:#ffffff;stroke-linejoin:miter;stroke-width:0.75;" x="370.368914" xlink:href="#mabfbb88e63" y="64.687913"/>
     <use style="fill:#98df8a;stroke:#ffffff;stroke-linejoin:miter;stroke-width:0.75;" x="371.4486" xlink:href="#mabfbb88e63" y="64.687913"/>
     <use style="fill:#98df8a;stroke:#ffffff;stroke-linejoin:miter;stroke-width:0.75;" x="372.512291" xlink:href="#mabfbb88e63" y="64.687913"/>
     <use style="fill:#98df8a;stroke:#ffffff;stroke-linejoin:miter;stroke-width:0.75;" x="373.560453" xlink:href="#mabfbb88e63" y="64.687913"/>
     <use style="fill:#98df8a;stroke:#ffffff;stroke-linejoin:miter;stroke-width:0.75;" x="374.593533" xlink:href="#mabfbb88e63" y="64.552762"/>
     <use style="fill:#98df8a;stroke:#ffffff;stroke-linejoin:miter;stroke-width:0.75;" x="375.611959" xlink:href="#mabfbb88e63" y="64.552762"/>
     <use style="fill:#98df8a;stroke:#ffffff;stroke-linejoin:miter;stroke-width:0.75;" x="376.616141" xlink:href="#mabfbb88e63" y="52.254036"/>
     <use style="fill:#98df8a;stroke:#ffffff;stroke-linejoin:miter;stroke-width:0.75;" x="377.606471" xlink:href="#mabfbb88e63" y="52.254036"/>
     <use style="fill:#98df8a;stroke:#ffffff;stroke-linejoin:miter;stroke-width:0.75;" x="378.583327" xlink:href="#mabfbb88e63" y="52.18646"/>
     <use style="fill:#98df8a;stroke:#ffffff;stroke-linejoin:miter;stroke-width:0.75;" x="379.547071" xlink:href="#mabfbb88e63" y="51.30798"/>
     <use style="fill:#98df8a;stroke:#ffffff;stroke-linejoin:miter;stroke-width:0.75;" x="380.498049" xlink:href="#mabfbb88e63" y="51.172829"/>
     <use style="fill:#98df8a;stroke:#ffffff;stroke-linejoin:miter;stroke-width:0.75;" x="381.436596" xlink:href="#mabfbb88e63" y="51.172829"/>
     <use style="fill:#98df8a;stroke:#ffffff;stroke-linejoin:miter;stroke-width:0.75;" x="382.363032" xlink:href="#mabfbb88e63" y="50.902527"/>
     <use style="fill:#98df8a;stroke:#ffffff;stroke-linejoin:miter;stroke-width:0.75;" x="383.277666" xlink:href="#mabfbb88e63" y="50.902527"/>
     <use style="fill:#98df8a;stroke:#ffffff;stroke-linejoin:miter;stroke-width:0.75;" x="384.180795" xlink:href="#mabfbb88e63" y="51.172829"/>
     <use style="fill:#98df8a;stroke:#ffffff;stroke-linejoin:miter;stroke-width:0.75;" x="385.072705" xlink:href="#mabfbb88e63" y="51.172829"/>
     <use style="fill:#98df8a;stroke:#ffffff;stroke-linejoin:miter;stroke-width:0.75;" x="385.953671" xlink:href="#mabfbb88e63" y="51.037678"/>
     <use style="fill:#98df8a;stroke:#ffffff;stroke-linejoin:miter;stroke-width:0.75;" x="386.823958" xlink:href="#mabfbb88e63" y="51.037678"/>
     <use style="fill:#98df8a;stroke:#ffffff;stroke-linejoin:miter;stroke-width:0.75;" x="387.683823" xlink:href="#mabfbb88e63" y="50.767376"/>
     <use style="fill:#98df8a;stroke:#ffffff;stroke-linejoin:miter;stroke-width:0.75;" x="388.533511" xlink:href="#mabfbb88e63" y="50.429499"/>
     <use style="fill:#98df8a;stroke:#ffffff;stroke-linejoin:miter;stroke-width:0.75;" x="389.373261" xlink:href="#mabfbb88e63" y="50.497075"/>
     <use style="fill:#98df8a;stroke:#ffffff;stroke-linejoin:miter;stroke-width:0.75;" x="390.203303" xlink:href="#mabfbb88e63" y="50.497075"/>
     <use style="fill:#98df8a;stroke:#ffffff;stroke-linejoin:miter;stroke-width:0.75;" x="391.023858" xlink:href="#mabfbb88e63" y="50.497075"/>
     <use style="fill:#98df8a;stroke:#ffffff;stroke-linejoin:miter;stroke-width:0.75;" x="391.835142" xlink:href="#mabfbb88e63" y="50.429499"/>
     <use style="fill:#98df8a;stroke:#ffffff;stroke-linejoin:miter;stroke-width:0.75;" x="392.63736" xlink:href="#mabfbb88e63" y="50.294348"/>
     <use style="fill:#98df8a;stroke:#ffffff;stroke-linejoin:miter;stroke-width:0.75;" x="393.430714" xlink:href="#mabfbb88e63" y="48.875265"/>
     <use style="fill:#98df8a;stroke:#ffffff;stroke-linejoin:miter;stroke-width:0.75;" x="394.215398" xlink:href="#mabfbb88e63" y="50.497075"/>
    </g>
   </g>
   <g id="line2d_35"/>
   <g id="line2d_36"/>
   <g id="line2d_37"/>
   <g id="patch_3">
    <path d="M 53.328125 282.956516 
L 53.328125 46.44255 
" style="fill:none;stroke:#000000;stroke-linecap:square;stroke-linejoin:miter;stroke-width:0.8;"/>
   </g>
   <g id="patch_4">
    <path d="M 69.560852 288.430125 
L 394.216265 288.430125 
" style="fill:none;stroke:#000000;stroke-linecap:square;stroke-linejoin:miter;stroke-width:0.8;"/>
   </g>
   <g id="text_17">
    <!-- njs_njs_process_script_fuzzer (23h, 17 trials/fuzzer) -->
    <g transform="translate(77.824063 16.318125)scale(0.12 -0.12)">
     <defs>
      <path d="M 603 3500 
L 1178 3500 
L 1178 -63 
Q 1178 -731 923 -1031 
Q 669 -1331 103 -1331 
L -116 -1331 
L -116 -844 
L 38 -844 
Q 366 -844 484 -692 
Q 603 -541 603 -63 
L 603 3500 
z
M 603 4863 
L 1178 4863 
L 1178 4134 
L 603 4134 
L 603 4863 
z
" id="DejaVuSans-6a" transform="scale(0.015625)"/>
      <path d="M 2834 3397 
L 2834 2853 
Q 2591 2978 2328 3040 
Q 2066 3103 1784 3103 
Q 1356 3103 1142 2972 
Q 928 2841 928 2578 
Q 928 2378 1081 2264 
Q 1234 2150 1697 2047 
L 1894 2003 
Q 2506 1872 2764 1633 
Q 3022 1394 3022 966 
Q 3022 478 2636 193 
Q 2250 -91 1575 -91 
Q 1294 -91 989 -36 
Q 684 19 347 128 
L 347 722 
Q 666 556 975 473 
Q 1284 391 1588 391 
Q 1994 391 2212 530 
Q 2431 669 2431 922 
Q 2431 1156 2273 1281 
Q 2116 1406 1581 1522 
L 1381 1569 
Q 847 1681 609 1914 
Q 372 2147 372 2553 
Q 372 3047 722 3315 
Q 1072 3584 1716 3584 
Q 2034 3584 2315 3537 
Q 2597 3491 2834 3397 
z
" id="DejaVuSans-73" transform="scale(0.015625)"/>
      <path d="M 3263 -1063 
L 3263 -1509 
L -63 -1509 
L -63 -1063 
L 3263 -1063 
z
" id="DejaVuSans-5f" transform="scale(0.015625)"/>
      <path d="M 1159 525 
L 1159 -1331 
L 581 -1331 
L 581 3500 
L 1159 3500 
L 1159 2969 
Q 1341 3281 1617 3432 
Q 1894 3584 2278 3584 
Q 2916 3584 3314 3078 
Q 3713 2572 3713 1747 
Q 3713 922 3314 415 
Q 2916 -91 2278 -91 
Q 1894 -91 1617 61 
Q 1341 213 1159 525 
z
M 3116 1747 
Q 3116 2381 2855 2742 
Q 2594 3103 2138 3103 
Q 1681 3103 1420 2742 
Q 1159 2381 1159 1747 
Q 1159 1113 1420 752 
Q 1681 391 2138 391 
Q 2594 391 2855 752 
Q 3116 1113 3116 1747 
z
" id="DejaVuSans-70" transform="scale(0.015625)"/>
      <path d="M 2375 4863 
L 2375 4384 
L 1825 4384 
Q 1516 4384 1395 4259 
Q 1275 4134 1275 3809 
L 1275 3500 
L 2222 3500 
L 2222 3053 
L 1275 3053 
L 1275 0 
L 697 0 
L 697 3053 
L 147 3053 
L 147 3500 
L 697 3500 
L 697 3744 
Q 697 4328 969 4595 
Q 1241 4863 1831 4863 
L 2375 4863 
z
" id="DejaVuSans-66" transform="scale(0.015625)"/>
      <path d="M 353 3500 
L 3084 3500 
L 3084 2975 
L 922 459 
L 3084 459 
L 3084 0 
L 275 0 
L 275 525 
L 2438 3041 
L 353 3041 
L 353 3500 
z
" id="DejaVuSans-7a" transform="scale(0.015625)"/>
      <path d="M 750 794 
L 1409 794 
L 1409 256 
L 897 -744 
L 494 -744 
L 750 256 
L 750 794 
z
" id="DejaVuSans-2c" transform="scale(0.015625)"/>
      <path d="M 603 4863 
L 1178 4863 
L 1178 0 
L 603 0 
L 603 4863 
z
" id="DejaVuSans-6c" transform="scale(0.015625)"/>
      <path d="M 1625 4666 
L 2156 4666 
L 531 -594 
L 0 -594 
L 1625 4666 
z
" id="DejaVuSans-2f" transform="scale(0.015625)"/>
     </defs>
     <use xlink:href="#DejaVuSans-6e"/>
     <use x="63.378906" xlink:href="#DejaVuSans-6a"/>
     <use x="91.162109" xlink:href="#DejaVuSans-73"/>
     <use x="143.261719" xlink:href="#DejaVuSans-5f"/>
     <use x="193.261719" xlink:href="#DejaVuSans-6e"/>
     <use x="256.640625" xlink:href="#DejaVuSans-6a"/>
     <use x="284.423828" xlink:href="#DejaVuSans-73"/>
     <use x="336.523438" xlink:href="#DejaVuSans-5f"/>
     <use x="386.523438" xlink:href="#DejaVuSans-70"/>
     <use x="450" xlink:href="#DejaVuSans-72"/>
     <use x="488.863281" xlink:href="#DejaVuSans-6f"/>
     <use x="550.044922" xlink:href="#DejaVuSans-63"/>
     <use x="605.025391" xlink:href="#DejaVuSans-65"/>
     <use x="666.548828" xlink:href="#DejaVuSans-73"/>
     <use x="718.648438" xlink:href="#DejaVuSans-73"/>
     <use x="770.748047" xlink:href="#DejaVuSans-5f"/>
     <use x="820.748047" xlink:href="#DejaVuSans-73"/>
     <use x="872.847656" xlink:href="#DejaVuSans-63"/>
     <use x="927.828125" xlink:href="#DejaVuSans-72"/>
     <use x="968.941406" xlink:href="#DejaVuSans-69"/>
     <use x="996.724609" xlink:href="#DejaVuSans-70"/>
     <use x="1060.201172" xlink:href="#DejaVuSans-74"/>
     <use x="1099.410156" xlink:href="#DejaVuSans-5f"/>
     <use x="1149.410156" xlink:href="#DejaVuSans-66"/>
     <use x="1184.615234" xlink:href="#DejaVuSans-75"/>
     <use x="1247.994141" xlink:href="#DejaVuSans-7a"/>
     <use x="1300.484375" xlink:href="#DejaVuSans-7a"/>
     <use x="1352.974609" xlink:href="#DejaVuSans-65"/>
     <use x="1414.498047" xlink:href="#DejaVuSans-72"/>
     <use x="1455.611328" xlink:href="#DejaVuSans-20"/>
     <use x="1487.398438" xlink:href="#DejaVuSans-28"/>
     <use x="1526.412109" xlink:href="#DejaVuSans-32"/>
     <use x="1590.035156" xlink:href="#DejaVuSans-33"/>
     <use x="1653.658203" xlink:href="#DejaVuSans-68"/>
     <use x="1717.037109" xlink:href="#DejaVuSans-2c"/>
     <use x="1748.824219" xlink:href="#DejaVuSans-20"/>
     <use x="1780.611328" xlink:href="#DejaVuSans-31"/>
     <use x="1844.234375" xlink:href="#DejaVuSans-37"/>
     <use x="1907.857422" xlink:href="#DejaVuSans-20"/>
     <use x="1939.644531" xlink:href="#DejaVuSans-74"/>
     <use x="1978.853516" xlink:href="#DejaVuSans-72"/>
     <use x="2019.966797" xlink:href="#DejaVuSans-69"/>
     <use x="2047.75" xlink:href="#DejaVuSans-61"/>
     <use x="2109.029297" xlink:href="#DejaVuSans-6c"/>
     <use x="2136.8125" xlink:href="#DejaVuSans-73"/>
     <use x="2188.912109" xlink:href="#DejaVuSans-2f"/>
     <use x="2222.603516" xlink:href="#DejaVuSans-66"/>
     <use x="2257.808594" xlink:href="#DejaVuSans-75"/>
     <use x="2321.1875" xlink:href="#DejaVuSans-7a"/>
     <use x="2373.677734" xlink:href="#DejaVuSans-7a"/>
     <use x="2426.167969" xlink:href="#DejaVuSans-65"/>
     <use x="2487.691406" xlink:href="#DejaVuSans-72"/>
     <use x="2528.804688" xlink:href="#DejaVuSans-29"/>
    </g>
   </g>
   <g id="legend_1">
    <g id="line2d_38">
     <path d="M 414.448125 30.416562 
L 434.448125 30.416562 
" style="fill:none;stroke:#1f77b4;stroke-linecap:square;stroke-width:1.5;"/>
    </g>
    <g id="line2d_39">
     <defs>
      <path d="M 0 3 
C 0.795609 3 1.55874 2.683901 2.12132 2.12132 
C 2.683901 1.55874 3 0.795609 3 0 
C 3 -0.795609 2.683901 -1.55874 2.12132 -2.12132 
C 1.55874 -2.683901 0.795609 -3 0 -3 
C -0.795609 -3 -1.55874 -2.683901 -2.12132 -2.12132 
C -2.683901 -1.55874 -3 -0.795609 -3 0 
C -3 0.795609 -2.683901 1.55874 -2.12132 2.12132 
C -1.55874 2.683901 -0.795609 3 0 3 
z
" id="m3d531839fa" style="stroke:#1f77b4;"/>
     </defs>
     <g>
      <use style="fill:#1f77b4;stroke:#1f77b4;" x="424.448125" xlink:href="#m3d531839fa" y="30.416562"/>
     </g>
    </g>
    <g id="text_18">
     <!-- afl -->
     <g transform="translate(442.448125 33.916562)scale(0.1 -0.1)">
      <use xlink:href="#DejaVuSans-61"/>
      <use x="61.279297" xlink:href="#DejaVuSans-66"/>
      <use x="96.484375" xlink:href="#DejaVuSans-6c"/>
     </g>
    </g>
    <g id="line2d_40">
     <path d="M 414.448125 45.094688 
L 434.448125 45.094688 
" style="fill:none;stroke:#d62728;stroke-linecap:square;stroke-width:1.5;"/>
    </g>
    <g id="line2d_41">
     <defs>
      <path d="M 0 -3 
L -3 3 
L 3 3 
z
" id="m002e45d44e" style="stroke:#d62728;stroke-linejoin:miter;"/>
     </defs>
     <g>
      <use style="fill:#d62728;stroke:#d62728;stroke-linejoin:miter;" x="424.448125" xlink:href="#m002e45d44e" y="45.094688"/>
     </g>
    </g>
    <g id="text_19">
     <!-- afl_no_favored -->
     <g transform="translate(442.448125 48.594688)scale(0.1 -0.1)">
      <use xlink:href="#DejaVuSans-61"/>
      <use x="61.279297" xlink:href="#DejaVuSans-66"/>
      <use x="96.484375" xlink:href="#DejaVuSans-6c"/>
      <use x="124.267578" xlink:href="#DejaVuSans-5f"/>
      <use x="174.267578" xlink:href="#DejaVuSans-6e"/>
      <use x="237.646484" xlink:href="#DejaVuSans-6f"/>
      <use x="298.828125" xlink:href="#DejaVuSans-5f"/>
      <use x="348.828125" xlink:href="#DejaVuSans-66"/>
      <use x="384.033203" xlink:href="#DejaVuSans-61"/>
      <use x="445.3125" xlink:href="#DejaVuSans-76"/>
      <use x="504.492188" xlink:href="#DejaVuSans-6f"/>
      <use x="565.673828" xlink:href="#DejaVuSans-72"/>
      <use x="604.537109" xlink:href="#DejaVuSans-65"/>
      <use x="666.060547" xlink:href="#DejaVuSans-64"/>
     </g>
    </g>
    <g id="line2d_42">
     <path d="M 414.448125 60.050937 
L 434.448125 60.050937 
" style="fill:none;stroke:#98df8a;stroke-linecap:square;stroke-width:1.5;"/>
    </g>
    <g id="line2d_43">
     <defs>
      <path d="M -0 3 
L 3 -3 
L -3 -3 
z
" id="mf162018cee" style="stroke:#98df8a;stroke-linejoin:miter;"/>
     </defs>
     <g>
      <use style="fill:#98df8a;stroke:#98df8a;stroke-linejoin:miter;" x="424.448125" xlink:href="#mf162018cee" y="60.050937"/>
     </g>
    </g>
    <g id="text_20">
     <!-- afl_no_favfactor -->
     <g transform="translate(442.448125 63.550937)scale(0.1 -0.1)">
      <use xlink:href="#DejaVuSans-61"/>
      <use x="61.279297" xlink:href="#DejaVuSans-66"/>
      <use x="96.484375" xlink:href="#DejaVuSans-6c"/>
      <use x="124.267578" xlink:href="#DejaVuSans-5f"/>
      <use x="174.267578" xlink:href="#DejaVuSans-6e"/>
      <use x="237.646484" xlink:href="#DejaVuSans-6f"/>
      <use x="298.828125" xlink:href="#DejaVuSans-5f"/>
      <use x="348.828125" xlink:href="#DejaVuSans-66"/>
      <use x="384.033203" xlink:href="#DejaVuSans-61"/>
      <use x="445.3125" xlink:href="#DejaVuSans-76"/>
      <use x="504.492188" xlink:href="#DejaVuSans-66"/>
      <use x="539.697266" xlink:href="#DejaVuSans-61"/>
      <use x="600.976562" xlink:href="#DejaVuSans-63"/>
      <use x="655.957031" xlink:href="#DejaVuSans-74"/>
      <use x="695.166016" xlink:href="#DejaVuSans-6f"/>
      <use x="756.347656" xlink:href="#DejaVuSans-72"/>
     </g>
    </g>
   </g>
  </g>
 </g>
 <defs>
  <clipPath id="pb1bf98ac0d">
   <rect height="266.112" width="357.12" x="53.328125" y="22.318125"/>
  </clipPath>
 </defs>
</svg>
