<?xml version="1.0" encoding="utf-8" standalone="no"?>
<!DOCTYPE svg PUBLIC "-//W3C//DTD SVG 1.1//EN"
  "http://www.w3.org/Graphics/SVG/1.1/DTD/svg11.dtd">
<svg height="325.986375pt" version="1.1" viewBox="0 0 539.7575 325.986375" width="539.7575pt" xmlns="http://www.w3.org/2000/svg" xmlns:xlink="http://www.w3.org/1999/xlink">
 <metadata>
  <rdf:RDF xmlns:cc="http://creativecommons.org/ns#" xmlns:dc="http://purl.org/dc/elements/1.1/" xmlns:rdf="http://www.w3.org/1999/02/22-rdf-syntax-ns#">
   <cc:Work>
    <dc:type rdf:resource="http://purl.org/dc/dcmitype/StillImage"/>
    <dc:date>2022-05-24T15:46:47.439703</dc:date>
    <dc:format>image/svg+xml</dc:format>
    <dc:creator>
     <cc:Agent>
      <dc:title>Matplotlib v3.4.3, https://matplotlib.org/</dc:title>
     </cc:Agent>
    </dc:creator>
   </cc:Work>
  </rdf:RDF>
 </metadata>
 <defs>
  <style type="text/css">*{stroke-linecap:butt;stroke-linejoin:round;}</style>
 </defs>
 <g id="figure_1">
  <g id="patch_1">
   <path d="M 0 325.986375 
L 539.7575 325.986375 
L 539.7575 0 
L 0 0 
z
" style="fill:#ffffff;"/>
  </g>
  <g id="axes_1">
   <g id="patch_2">
    <path d="M 59.690625 288.430125 
L 416.810625 288.430125 
L 416.810625 22.318125 
L 59.690625 22.318125 
z
" style="fill:#ffffff;"/>
   </g>
   <g id="PolyCollection_1">
    <defs>
     <path d="M 75.923352 -102.279518 
L 75.923352 -77.367774 
L 79.490985 -94.287135 
L 83.058617 -108.574595 
L 86.626249 -113.247561 
L 90.193882 -117.061131 
L 93.761514 -117.544541 
L 97.329146 -123.990012 
L 100.896779 -124.634559 
L 104.464411 -130.811468 
L 108.032044 -131.998509 
L 111.599676 -142.896726 
L 115.167308 -145.797188 
L 118.734941 -124.312286 
L 122.302573 -136.988378 
L 125.870205 -126.997898 
L 129.437838 -151.598111 
L 133.00547 -127.427596 
L 136.573103 -181.676975 
L 140.140735 -158.849266 
L 143.708367 -166.691255 
L 147.276 -130.113209 
L 150.843632 -136.343831 
L 154.411264 -136.451255 
L 157.978897 -173.297863 
L 161.546529 -210.14447 
L 165.114161 -203.699 
L 168.681794 -203.699 
L 172.249426 -213.689479 
L 175.817059 -209.016513 
L 179.384691 -217.019639 
L 182.952323 -220.349799 
L 186.519956 -218.416158 
L 190.087588 -219.060705 
L 193.65522 -220.457223 
L 197.222853 -220.564648 
L 200.790485 -220.994346 
L 204.358118 -221.182339 
L 207.92575 -221.424044 
L 211.493382 -221.961167 
L 215.061015 -222.552001 
L 218.628647 -222.068591 
L 222.196279 -223.035412 
L 225.763912 -223.035412 
L 229.331544 -223.142836 
L 232.899176 -223.142836 
L 236.466809 -224.217081 
L 240.034441 -223.679959 
L 243.602074 -224.217081 
L 247.169706 -226.687845 
L 250.737338 -226.365571 
L 254.304971 -224.754204 
L 257.872603 -226.580421 
L 261.440235 -226.580421 
L 265.007868 -228.406637 
L 268.5755 -228.138076 
L 272.143132 -228.2455 
L 275.710765 -228.2455 
L 279.278397 -232.059071 
L 282.84603 -231.253387 
L 286.413662 -236.033778 
L 289.981294 -232.327632 
L 293.548927 -232.327632 
L 297.116559 -226.687845 
L 300.684191 -232.327632 
L 304.251824 -232.864754 
L 307.819456 -233.348165 
L 311.387089 -238.611966 
L 314.954721 -233.455589 
L 318.522353 -233.509302 
L 322.089986 -238.611966 
L 325.657618 -233.509302 
L 329.22525 -238.611966 
L 332.792883 -228.514062 
L 336.360515 -238.611966 
L 339.928147 -233.563014 
L 343.49578 -235.818929 
L 347.063412 -235.818929 
L 350.631045 -236.463476 
L 354.198677 -238.611966 
L 357.766309 -238.128556 
L 361.333942 -238.611966 
L 364.901574 -240.653032 
L 368.469206 -240.653032 
L 372.036839 -239.632499 
L 375.604471 -238.611966 
L 379.172104 -240.653032 
L 382.739736 -239.632499 
L 386.307368 -240.169621 
L 389.875001 -246.707746 
L 393.442633 -240.169621 
L 397.010265 -240.814168 
L 400.577898 -240.814168 
L 400.577898 -291.303689 
L 400.577898 -291.303689 
L 397.010265 -291.303689 
L 393.442633 -291.303689 
L 389.875001 -291.035127 
L 386.307368 -291.249976 
L 382.739736 -291.249976 
L 379.172104 -290.820278 
L 375.604471 -291.57225 
L 372.036839 -290.659142 
L 368.469206 -290.659142 
L 364.901574 -289.746033 
L 361.333942 -289.746033 
L 357.766309 -290.659142 
L 354.198677 -289.746033 
L 350.631045 -290.659142 
L 347.063412 -289.638609 
L 343.49578 -289.316335 
L 339.928147 -288.456939 
L 336.360515 -286.630722 
L 332.792883 -288.994062 
L 329.22525 -285.341628 
L 325.657618 -286.57701 
L 322.089986 -284.91193 
L 318.522353 -284.267383 
L 314.954721 -283.492584 
L 311.387089 -284.052534 
L 307.819456 -276.210545 
L 304.251824 -275.565998 
L 300.684191 -275.565998 
L 297.116559 -273.95463 
L 293.548927 -278.627596 
L 289.981294 -275.082587 
L 286.413662 -275.1363 
L 282.84603 -274.491753 
L 279.278397 -273.847206 
L 275.710765 -273.148946 
L 272.143132 -273.524932 
L 268.5755 -272.98781 
L 265.007868 -273.524932 
L 261.440235 -272.880385 
L 257.872603 -272.77296 
L 254.304971 -272.235838 
L 250.737338 -272.719248 
L 247.169706 -269.65765 
L 243.602074 -269.65765 
L 240.034441 -263.641877 
L 236.466809 -265.199532 
L 232.899176 -260.096868 
L 229.331544 -263.265891 
L 225.763912 -259.882019 
L 222.196279 -258.163227 
L 218.628647 -261.923085 
L 215.061015 -259.989444 
L 211.493382 -261.81566 
L 207.92575 -258.163227 
L 204.358118 -258.163227 
L 200.790485 -258.163227 
L 197.222853 -258.163227 
L 193.65522 -258.163227 
L 190.087588 -256.229586 
L 186.519956 -255.155341 
L 182.952323 -258.163227 
L 179.384691 -255.047916 
L 175.817059 -247.689337 
L 172.249426 -251.825181 
L 168.681794 -241.458715 
L 165.114161 -241.029017 
L 161.546529 -243.875767 
L 157.978897 -240.201849 
L 154.411264 -243.123795 
L 150.843632 -243.016371 
L 147.276 -242.801522 
L 143.708367 -238.987952 
L 140.140735 -238.826815 
L 136.573103 -236.785749 
L 133.00547 -236.785749 
L 129.437838 -234.314985 
L 125.870205 -231.736797 
L 122.302573 -217.234488 
L 118.734941 -224.539355 
L 115.167308 -224.539355 
L 111.599676 -224.539355 
L 108.032044 -202.678467 
L 104.464411 -200.691113 
L 100.896779 -199.831717 
L 97.329146 -198.811184 
L 93.761514 -198.757472 
L 90.193882 -197.03868 
L 86.626249 -186.511078 
L 83.058617 -179.313635 
L 79.490985 -160.084648 
L 75.923352 -102.279518 
z
" id="m6315482a17" style="stroke:#98df8a;stroke-opacity:0.2;"/>
    </defs>
    <g clip-path="url(#p2e2fae2361)">
     <use style="fill:#98df8a;fill-opacity:0.2;stroke:#98df8a;stroke-opacity:0.2;" x="0" xlink:href="#m6315482a17" y="325.986375"/>
    </g>
   </g>
   <g id="PolyCollection_2">
    <defs>
     <path d="M 75.923352 -139.996264 
L 75.923352 -85.102339 
L 79.490985 -114.966353 
L 83.058617 -119.907881 
L 86.626249 -149.019923 
L 90.193882 -158.580705 
L 93.761514 -156.485927 
L 97.329146 -165.294737 
L 100.896779 -162.125714 
L 104.464411 -172.438467 
L 108.032044 -175.983476 
L 111.599676 -177.659298 
L 115.167308 -174.372108 
L 118.734941 -176.735447 
L 122.302573 -178.23939 
L 125.870205 -183.825465 
L 129.437838 -181.032428 
L 133.00547 -183.127206 
L 136.573103 -181.032428 
L 140.140735 -181.032428 
L 143.708367 -178.23939 
L 147.276 -183.127206 
L 150.843632 -181.08614 
L 154.411264 -182.428946 
L 157.978897 -183.23463 
L 161.546529 -178.454239 
L 165.114161 -178.454239 
L 168.681794 -190.056087 
L 172.249426 -199.240882 
L 175.817059 -199.616868 
L 179.384691 -201.120811 
L 182.952323 -201.120811 
L 186.519956 -213.528342 
L 190.087588 -205.740065 
L 193.65522 -210.735305 
L 197.222853 -204.128698 
L 200.790485 -206.921735 
L 204.358118 -210.14447 
L 207.92575 -210.14447 
L 211.493382 -210.574168 
L 215.061015 -210.574168 
L 218.628647 -212.615234 
L 222.196279 -212.615234 
L 225.763912 -207.888556 
L 229.331544 -214.441451 
L 232.899176 -214.548875 
L 236.466809 -221.209195 
L 240.034441 -214.548875 
L 243.602074 -211.165003 
L 247.169706 -222.337152 
L 250.737338 -211.165003 
L 254.304971 -215.085998 
L 257.872603 -215.085998 
L 261.440235 -223.357685 
L 265.007868 -228.191788 
L 268.5755 -230.555127 
L 272.143132 -231.307099 
L 275.710765 -231.521948 
L 279.278397 -229.803156 
L 282.84603 -233.455589 
L 286.413662 -232.918467 
L 289.981294 -232.918467 
L 293.548927 -234.207561 
L 297.116559 -234.207561 
L 300.684191 -237.322872 
L 304.251824 -238.182268 
L 307.819456 -238.182268 
L 311.387089 -238.182268 
L 314.954721 -241.029017 
L 318.522353 -241.029017 
L 322.089986 -241.08273 
L 325.657618 -241.08273 
L 329.22525 -241.08273 
L 332.792883 -243.768342 
L 336.360515 -243.768342 
L 339.928147 -244.735163 
L 343.49578 -244.735163 
L 347.063412 -244.735163 
L 350.631045 -244.251753 
L 354.198677 -244.735163 
L 357.766309 -244.735163 
L 361.333942 -244.735163 
L 364.901574 -244.735163 
L 368.469206 -244.735163 
L 372.036839 -244.735163 
L 375.604471 -244.735163 
L 379.172104 -244.735163 
L 382.739736 -244.735163 
L 386.307368 -244.735163 
L 389.875001 -244.735163 
L 393.442633 -244.735163 
L 397.010265 -244.735163 
L 400.577898 -244.735163 
L 400.577898 -278.701451 
L 400.577898 -278.701451 
L 397.010265 -278.681309 
L 393.442633 -279.003582 
L 389.875001 -275.780847 
L 386.307368 -275.780847 
L 382.739736 -273.310083 
L 379.172104 -273.310083 
L 375.604471 -273.310083 
L 372.036839 -273.310083 
L 368.469206 -274.706602 
L 364.901574 -273.310083 
L 361.333942 -273.310083 
L 357.766309 -273.310083 
L 354.198677 -273.310083 
L 350.631045 -273.041522 
L 347.063412 -273.202659 
L 343.49578 -272.020989 
L 339.928147 -271.913564 
L 336.360515 -271.80614 
L 332.792883 -267.29431 
L 329.22525 -266.757188 
L 325.657618 -267.616584 
L 322.089986 -266.32749 
L 318.522353 -266.32749 
L 314.954721 -266.542339 
L 311.387089 -265.575518 
L 307.819456 -265.360669 
L 304.251824 -265.360669 
L 300.684191 -265.521806 
L 297.116559 -264.071575 
L 293.548927 -262.030509 
L 289.981294 -262.245358 
L 286.413662 -252.684577 
L 282.84603 -254.725643 
L 279.278397 -252.684577 
L 275.710765 -246.883653 
L 272.143132 -252.684577 
L 268.5755 -246.829941 
L 265.007868 -252.469728 
L 261.440235 -244.466602 
L 257.872603 -252.469728 
L 254.304971 -236.356051 
L 250.737338 -243.607206 
L 247.169706 -242.264399 
L 243.602074 -242.264399 
L 240.034441 -251.288058 
L 236.466809 -241.458715 
L 232.899176 -233.777863 
L 229.331544 -250.85836 
L 225.763912 -241.888413 
L 222.196279 -231.629373 
L 218.628647 -243.338644 
L 215.061015 -242.694097 
L 211.493382 -231.629373 
L 207.92575 -242.371824 
L 204.358118 -231.629373 
L 200.790485 -242.264399 
L 197.222853 -235.442943 
L 193.65522 -233.025891 
L 190.087588 -230.662552 
L 186.519956 -230.447703 
L 182.952323 -227.869515 
L 179.384691 -229.373458 
L 175.817059 -229.373458 
L 172.249426 -227.815802 
L 168.681794 -225.559888 
L 165.114161 -224.646779 
L 161.546529 -222.176016 
L 157.978897 -220.188662 
L 154.411264 -216.536229 
L 150.843632 -216.878644 
L 147.276 -215.354559 
L 143.708367 -216.160243 
L 140.140735 -214.548875 
L 136.573103 -217.664186 
L 133.00547 -214.978573 
L 129.437838 -214.011753 
L 125.870205 -215.247135 
L 122.302573 -214.441451 
L 118.734941 -211.648413 
L 115.167308 -214.441451 
L 111.599676 -216.267667 
L 108.032044 -208.855376 
L 104.464411 -214.441451 
L 100.896779 -214.441451 
L 97.329146 -207.781131 
L 93.761514 -202.678467 
L 90.193882 -198.013557 
L 86.626249 -192.741699 
L 83.058617 -169.645429 
L 79.490985 -161.696016 
L 75.923352 -139.996264 
z
" id="ma38d341704" style="stroke:#1f77b4;stroke-opacity:0.2;"/>
    </defs>
    <g clip-path="url(#p2e2fae2361)">
     <use style="fill:#1f77b4;fill-opacity:0.2;stroke:#1f77b4;stroke-opacity:0.2;" x="0" xlink:href="#ma38d341704" y="325.986375"/>
    </g>
   </g>
   <g id="PolyCollection_3">
    <defs>
     <path d="M 75.923352 -104.116477 
L 75.923352 -49.65225 
L 79.490985 -74.574737 
L 83.058617 -98.637827 
L 86.626249 -101.32344 
L 90.193882 -100.464044 
L 93.761514 -130.757756 
L 97.329146 -117.920527 
L 100.896779 -138.062623 
L 104.464411 -131.294879 
L 108.032044 -136.880953 
L 111.599676 -140.533387 
L 115.167308 -140.533387 
L 118.734941 -145.689763 
L 122.302573 -150.577579 
L 125.870205 -156.002516 
L 129.437838 -156.432214 
L 133.00547 -148.590225 
L 136.573103 -160.62177 
L 140.140735 -151.544399 
L 143.708367 -162.555412 
L 147.276 -162.662836 
L 150.843632 -156.32479 
L 154.411264 -163.092534 
L 157.978897 -163.092534 
L 161.546529 -163.092534 
L 165.114161 -163.307383 
L 168.681794 -163.414808 
L 172.249426 -163.522232 
L 175.817059 -163.522232 
L 179.384691 -177.326282 
L 182.952323 -165.026175 
L 186.519956 -167.067241 
L 190.087588 -192.04344 
L 193.65522 -167.28209 
L 197.222853 -167.819213 
L 200.790485 -191.452605 
L 204.358118 -191.452605 
L 207.92575 -191.452605 
L 211.493382 -191.452605 
L 215.061015 -194.567916 
L 218.628647 -191.56003 
L 222.196279 -194.567916 
L 225.763912 -194.567916 
L 229.331544 -194.567916 
L 232.899176 -194.138218 
L 236.466809 -199.616868 
L 240.034441 -199.18717 
L 243.602074 -204.416058 
L 247.169706 -196.286708 
L 250.737338 -204.66582 
L 254.304971 -204.66582 
L 257.872603 -217.664186 
L 261.440235 -211.165003 
L 265.007868 -211.165003 
L 268.5755 -221.172939 
L 272.143132 -211.165003 
L 275.710765 -206.655859 
L 279.278397 -204.66582 
L 282.84603 -204.442914 
L 286.413662 -204.66582 
L 289.981294 -204.66582 
L 293.548927 -200.207703 
L 297.116559 -211.165003 
L 300.684191 -200.207703 
L 304.251824 -200.207703 
L 307.819456 -211.05355 
L 311.387089 -204.66582 
L 314.954721 -204.66582 
L 318.522353 -204.66582 
L 322.089986 -211.165003 
L 325.657618 -200.959675 
L 329.22525 -217.341913 
L 332.792883 -204.773245 
L 336.360515 -204.773245 
L 339.928147 -204.773245 
L 343.49578 -206.693458 
L 347.063412 -217.664186 
L 350.631045 -212.29296 
L 354.198677 -206.921735 
L 357.766309 -212.29296 
L 361.333942 -206.921735 
L 364.901574 -206.921735 
L 368.469206 -217.664186 
L 372.036839 -217.664186 
L 375.604471 -217.664186 
L 379.172104 -203.269302 
L 382.739736 -212.29296 
L 386.307368 -212.29296 
L 389.875001 -206.921735 
L 393.442633 -211.648413 
L 397.010265 -209.822197 
L 400.577898 -215.247135 
L 400.577898 -252.469728 
L 400.577898 -252.469728 
L 397.010265 -252.254879 
L 393.442633 -253.221699 
L 389.875001 -253.221699 
L 386.307368 -253.221699 
L 382.739736 -252.254879 
L 379.172104 -254.134808 
L 375.604471 -262.889905 
L 372.036839 -253.221699 
L 368.469206 -253.221699 
L 364.901574 -253.221699 
L 361.333942 -252.254879 
L 357.766309 -257.411255 
L 354.198677 -251.825181 
L 350.631045 -253.221699 
L 347.063412 -253.221699 
L 343.49578 -253.221699 
L 339.928147 -253.221699 
L 336.360515 -253.221699 
L 332.792883 -253.221699 
L 329.22525 -251.825181 
L 325.657618 -252.254879 
L 322.089986 -257.411255 
L 318.522353 -252.04003 
L 314.954721 -251.288058 
L 311.387089 -251.288058 
L 307.819456 -251.288058 
L 304.251824 -256.444435 
L 300.684191 -251.126921 
L 297.116559 -261.278538 
L 293.548927 -251.126921 
L 289.981294 -251.13095 
L 286.413662 -251.288058 
L 282.84603 -251.288058 
L 279.278397 -251.288058 
L 275.710765 -253.543973 
L 272.143132 -251.180634 
L 268.5755 -260.84884 
L 265.007868 -250.643511 
L 261.440235 -251.073209 
L 257.872603 -250.106389 
L 254.304971 -250.106389 
L 250.737338 -244.842587 
L 247.169706 -244.842587 
L 243.602074 -249.998964 
L 240.034441 -246.883653 
L 236.466809 -250.106389 
L 232.899176 -247.420776 
L 229.331544 -249.998964 
L 225.763912 -249.354417 
L 222.196279 -244.842587 
L 218.628647 -244.842587 
L 215.061015 -250.213813 
L 211.493382 -244.520314 
L 207.92575 -247.098502 
L 204.358118 -246.776229 
L 200.790485 -244.627738 
L 197.222853 -246.991078 
L 193.65522 -244.627738 
L 190.087588 -246.991078 
L 186.519956 -244.950012 
L 182.952323 -241.08273 
L 179.384691 -237.967419 
L 175.817059 -223.733671 
L 172.249426 -223.741728 
L 168.681794 -215.510325 
L 165.114161 -207.888556 
L 161.546529 -215.196108 
L 157.978897 -213.759305 
L 154.411264 -193.815944 
L 150.843632 -204.236122 
L 147.276 -231.844222 
L 143.708367 -193.70852 
L 140.140735 -205.202943 
L 136.573103 -193.601095 
L 133.00547 -190.109799 
L 129.437838 -193.386246 
L 125.870205 -193.386246 
L 122.302573 -204.934381 
L 118.734941 -211.433564 
L 115.167308 -204.558396 
L 111.599676 -204.021273 
L 108.032044 -190.485785 
L 104.464411 -194.943902 
L 100.896779 -200.153991 
L 97.329146 -177.702268 
L 93.761514 -187.800172 
L 90.193882 -166.207845 
L 86.626249 -156.217365 
L 83.058617 -166.906104 
L 79.490985 -145.958325 
L 75.923352 -104.116477 
z
" id="m99f10a1b88" style="stroke:#d62728;stroke-opacity:0.2;"/>
    </defs>
    <g clip-path="url(#p2e2fae2361)">
     <use style="fill:#d62728;fill-opacity:0.2;stroke:#d62728;stroke-opacity:0.2;" x="0" xlink:href="#m99f10a1b88" y="325.986375"/>
    </g>
   </g>
   <g id="matplotlib.axis_1">
    <g id="xtick_1">
     <g id="line2d_1">
      <defs>
       <path d="M 0 0 
L 0 3.5 
" id="m3d902f40c3" style="stroke:#000000;stroke-width:0.8;"/>
      </defs>
      <g>
       <use style="stroke:#000000;stroke-width:0.8;" x="75.923352" xlink:href="#m3d902f40c3" y="288.430125"/>
      </g>
     </g>
     <g id="text_1">
      <!-- 15m -->
      <g transform="translate(64.69054 303.028562)scale(0.1 -0.1)">
       <defs>
        <path d="M 794 531 
L 1825 531 
L 1825 4091 
L 703 3866 
L 703 4441 
L 1819 4666 
L 2450 4666 
L 2450 531 
L 3481 531 
L 3481 0 
L 794 0 
L 794 531 
z
" id="DejaVuSans-31" transform="scale(0.015625)"/>
        <path d="M 691 4666 
L 3169 4666 
L 3169 4134 
L 1269 4134 
L 1269 2991 
Q 1406 3038 1543 3061 
Q 1681 3084 1819 3084 
Q 2600 3084 3056 2656 
Q 3513 2228 3513 1497 
Q 3513 744 3044 326 
Q 2575 -91 1722 -91 
Q 1428 -91 1123 -41 
Q 819 9 494 109 
L 494 744 
Q 775 591 1075 516 
Q 1375 441 1709 441 
Q 2250 441 2565 725 
Q 2881 1009 2881 1497 
Q 2881 1984 2565 2268 
Q 2250 2553 1709 2553 
Q 1456 2553 1204 2497 
Q 953 2441 691 2322 
L 691 4666 
z
" id="DejaVuSans-35" transform="scale(0.015625)"/>
        <path d="M 3328 2828 
Q 3544 3216 3844 3400 
Q 4144 3584 4550 3584 
Q 5097 3584 5394 3201 
Q 5691 2819 5691 2113 
L 5691 0 
L 5113 0 
L 5113 2094 
Q 5113 2597 4934 2840 
Q 4756 3084 4391 3084 
Q 3944 3084 3684 2787 
Q 3425 2491 3425 1978 
L 3425 0 
L 2847 0 
L 2847 2094 
Q 2847 2600 2669 2842 
Q 2491 3084 2119 3084 
Q 1678 3084 1418 2786 
Q 1159 2488 1159 1978 
L 1159 0 
L 581 0 
L 581 3500 
L 1159 3500 
L 1159 2956 
Q 1356 3278 1631 3431 
Q 1906 3584 2284 3584 
Q 2666 3584 2933 3390 
Q 3200 3197 3328 2828 
z
" id="DejaVuSans-6d" transform="scale(0.015625)"/>
       </defs>
       <use xlink:href="#DejaVuSans-31"/>
       <use x="63.623047" xlink:href="#DejaVuSans-35"/>
       <use x="127.246094" xlink:href="#DejaVuSans-6d"/>
      </g>
     </g>
    </g>
    <g id="xtick_2">
     <g id="line2d_2">
      <g>
       <use style="stroke:#000000;stroke-width:0.8;" x="130.627049" xlink:href="#m3d902f40c3" y="288.430125"/>
      </g>
     </g>
     <g id="text_2">
      <!-- 4h:5m -->
      <g transform="translate(114.541111 303.028562)scale(0.1 -0.1)">
       <defs>
        <path d="M 2419 4116 
L 825 1625 
L 2419 1625 
L 2419 4116 
z
M 2253 4666 
L 3047 4666 
L 3047 1625 
L 3713 1625 
L 3713 1100 
L 3047 1100 
L 3047 0 
L 2419 0 
L 2419 1100 
L 313 1100 
L 313 1709 
L 2253 4666 
z
" id="DejaVuSans-34" transform="scale(0.015625)"/>
        <path d="M 3513 2113 
L 3513 0 
L 2938 0 
L 2938 2094 
Q 2938 2591 2744 2837 
Q 2550 3084 2163 3084 
Q 1697 3084 1428 2787 
Q 1159 2491 1159 1978 
L 1159 0 
L 581 0 
L 581 4863 
L 1159 4863 
L 1159 2956 
Q 1366 3272 1645 3428 
Q 1925 3584 2291 3584 
Q 2894 3584 3203 3211 
Q 3513 2838 3513 2113 
z
" id="DejaVuSans-68" transform="scale(0.015625)"/>
        <path d="M 750 794 
L 1409 794 
L 1409 0 
L 750 0 
L 750 794 
z
M 750 3309 
L 1409 3309 
L 1409 2516 
L 750 2516 
L 750 3309 
z
" id="DejaVuSans-3a" transform="scale(0.015625)"/>
       </defs>
       <use xlink:href="#DejaVuSans-34"/>
       <use x="63.623047" xlink:href="#DejaVuSans-68"/>
       <use x="127.001953" xlink:href="#DejaVuSans-3a"/>
       <use x="160.693359" xlink:href="#DejaVuSans-35"/>
       <use x="224.316406" xlink:href="#DejaVuSans-6d"/>
      </g>
     </g>
    </g>
    <g id="xtick_3">
     <g id="line2d_3">
      <g>
       <use style="stroke:#000000;stroke-width:0.8;" x="185.330745" xlink:href="#m3d902f40c3" y="288.430125"/>
      </g>
     </g>
     <g id="text_3">
      <!-- 7h:55m -->
      <g transform="translate(166.063557 303.028562)scale(0.1 -0.1)">
       <defs>
        <path d="M 525 4666 
L 3525 4666 
L 3525 4397 
L 1831 0 
L 1172 0 
L 2766 4134 
L 525 4134 
L 525 4666 
z
" id="DejaVuSans-37" transform="scale(0.015625)"/>
       </defs>
       <use xlink:href="#DejaVuSans-37"/>
       <use x="63.623047" xlink:href="#DejaVuSans-68"/>
       <use x="127.001953" xlink:href="#DejaVuSans-3a"/>
       <use x="160.693359" xlink:href="#DejaVuSans-35"/>
       <use x="224.316406" xlink:href="#DejaVuSans-35"/>
       <use x="287.939453" xlink:href="#DejaVuSans-6d"/>
      </g>
     </g>
    </g>
    <g id="xtick_4">
     <g id="line2d_4">
      <g>
       <use style="stroke:#000000;stroke-width:0.8;" x="240.034441" xlink:href="#m3d902f40c3" y="288.430125"/>
      </g>
     </g>
     <g id="text_4">
      <!-- 11h:45m -->
      <g transform="translate(217.586004 303.028562)scale(0.1 -0.1)">
       <use xlink:href="#DejaVuSans-31"/>
       <use x="63.623047" xlink:href="#DejaVuSans-31"/>
       <use x="127.246094" xlink:href="#DejaVuSans-68"/>
       <use x="190.625" xlink:href="#DejaVuSans-3a"/>
       <use x="224.316406" xlink:href="#DejaVuSans-34"/>
       <use x="287.939453" xlink:href="#DejaVuSans-35"/>
       <use x="351.5625" xlink:href="#DejaVuSans-6d"/>
      </g>
     </g>
    </g>
    <g id="xtick_5">
     <g id="line2d_5">
      <g>
       <use style="stroke:#000000;stroke-width:0.8;" x="294.738137" xlink:href="#m3d902f40c3" y="288.430125"/>
      </g>
     </g>
     <g id="text_5">
      <!-- 15h:35m -->
      <g transform="translate(272.2897 303.028562)scale(0.1 -0.1)">
       <defs>
        <path d="M 2597 2516 
Q 3050 2419 3304 2112 
Q 3559 1806 3559 1356 
Q 3559 666 3084 287 
Q 2609 -91 1734 -91 
Q 1441 -91 1130 -33 
Q 819 25 488 141 
L 488 750 
Q 750 597 1062 519 
Q 1375 441 1716 441 
Q 2309 441 2620 675 
Q 2931 909 2931 1356 
Q 2931 1769 2642 2001 
Q 2353 2234 1838 2234 
L 1294 2234 
L 1294 2753 
L 1863 2753 
Q 2328 2753 2575 2939 
Q 2822 3125 2822 3475 
Q 2822 3834 2567 4026 
Q 2313 4219 1838 4219 
Q 1578 4219 1281 4162 
Q 984 4106 628 3988 
L 628 4550 
Q 988 4650 1302 4700 
Q 1616 4750 1894 4750 
Q 2613 4750 3031 4423 
Q 3450 4097 3450 3541 
Q 3450 3153 3228 2886 
Q 3006 2619 2597 2516 
z
" id="DejaVuSans-33" transform="scale(0.015625)"/>
       </defs>
       <use xlink:href="#DejaVuSans-31"/>
       <use x="63.623047" xlink:href="#DejaVuSans-35"/>
       <use x="127.246094" xlink:href="#DejaVuSans-68"/>
       <use x="190.625" xlink:href="#DejaVuSans-3a"/>
       <use x="224.316406" xlink:href="#DejaVuSans-33"/>
       <use x="287.939453" xlink:href="#DejaVuSans-35"/>
       <use x="351.5625" xlink:href="#DejaVuSans-6d"/>
      </g>
     </g>
    </g>
    <g id="xtick_6">
     <g id="line2d_6">
      <g>
       <use style="stroke:#000000;stroke-width:0.8;" x="349.441834" xlink:href="#m3d902f40c3" y="288.430125"/>
      </g>
     </g>
     <g id="text_6">
      <!-- 19h:25m -->
      <g transform="translate(326.993396 303.028562)scale(0.1 -0.1)">
       <defs>
        <path d="M 703 97 
L 703 672 
Q 941 559 1184 500 
Q 1428 441 1663 441 
Q 2288 441 2617 861 
Q 2947 1281 2994 2138 
Q 2813 1869 2534 1725 
Q 2256 1581 1919 1581 
Q 1219 1581 811 2004 
Q 403 2428 403 3163 
Q 403 3881 828 4315 
Q 1253 4750 1959 4750 
Q 2769 4750 3195 4129 
Q 3622 3509 3622 2328 
Q 3622 1225 3098 567 
Q 2575 -91 1691 -91 
Q 1453 -91 1209 -44 
Q 966 3 703 97 
z
M 1959 2075 
Q 2384 2075 2632 2365 
Q 2881 2656 2881 3163 
Q 2881 3666 2632 3958 
Q 2384 4250 1959 4250 
Q 1534 4250 1286 3958 
Q 1038 3666 1038 3163 
Q 1038 2656 1286 2365 
Q 1534 2075 1959 2075 
z
" id="DejaVuSans-39" transform="scale(0.015625)"/>
        <path d="M 1228 531 
L 3431 531 
L 3431 0 
L 469 0 
L 469 531 
Q 828 903 1448 1529 
Q 2069 2156 2228 2338 
Q 2531 2678 2651 2914 
Q 2772 3150 2772 3378 
Q 2772 3750 2511 3984 
Q 2250 4219 1831 4219 
Q 1534 4219 1204 4116 
Q 875 4013 500 3803 
L 500 4441 
Q 881 4594 1212 4672 
Q 1544 4750 1819 4750 
Q 2544 4750 2975 4387 
Q 3406 4025 3406 3419 
Q 3406 3131 3298 2873 
Q 3191 2616 2906 2266 
Q 2828 2175 2409 1742 
Q 1991 1309 1228 531 
z
" id="DejaVuSans-32" transform="scale(0.015625)"/>
       </defs>
       <use xlink:href="#DejaVuSans-31"/>
       <use x="63.623047" xlink:href="#DejaVuSans-39"/>
       <use x="127.246094" xlink:href="#DejaVuSans-68"/>
       <use x="190.625" xlink:href="#DejaVuSans-3a"/>
       <use x="224.316406" xlink:href="#DejaVuSans-32"/>
       <use x="287.939453" xlink:href="#DejaVuSans-35"/>
       <use x="351.5625" xlink:href="#DejaVuSans-6d"/>
      </g>
     </g>
    </g>
    <g id="text_7">
     <!-- Time (hour:minute) -->
     <g transform="translate(189.843594 316.706687)scale(0.1 -0.1)">
      <defs>
       <path d="M -19 4666 
L 3928 4666 
L 3928 4134 
L 2272 4134 
L 2272 0 
L 1638 0 
L 1638 4134 
L -19 4134 
L -19 4666 
z
" id="DejaVuSans-54" transform="scale(0.015625)"/>
       <path d="M 603 3500 
L 1178 3500 
L 1178 0 
L 603 0 
L 603 3500 
z
M 603 4863 
L 1178 4863 
L 1178 4134 
L 603 4134 
L 603 4863 
z
" id="DejaVuSans-69" transform="scale(0.015625)"/>
       <path d="M 3597 1894 
L 3597 1613 
L 953 1613 
Q 991 1019 1311 708 
Q 1631 397 2203 397 
Q 2534 397 2845 478 
Q 3156 559 3463 722 
L 3463 178 
Q 3153 47 2828 -22 
Q 2503 -91 2169 -91 
Q 1331 -91 842 396 
Q 353 884 353 1716 
Q 353 2575 817 3079 
Q 1281 3584 2069 3584 
Q 2775 3584 3186 3129 
Q 3597 2675 3597 1894 
z
M 3022 2063 
Q 3016 2534 2758 2815 
Q 2500 3097 2075 3097 
Q 1594 3097 1305 2825 
Q 1016 2553 972 2059 
L 3022 2063 
z
" id="DejaVuSans-65" transform="scale(0.015625)"/>
       <path id="DejaVuSans-20" transform="scale(0.015625)"/>
       <path d="M 1984 4856 
Q 1566 4138 1362 3434 
Q 1159 2731 1159 2009 
Q 1159 1288 1364 580 
Q 1569 -128 1984 -844 
L 1484 -844 
Q 1016 -109 783 600 
Q 550 1309 550 2009 
Q 550 2706 781 3412 
Q 1013 4119 1484 4856 
L 1984 4856 
z
" id="DejaVuSans-28" transform="scale(0.015625)"/>
       <path d="M 1959 3097 
Q 1497 3097 1228 2736 
Q 959 2375 959 1747 
Q 959 1119 1226 758 
Q 1494 397 1959 397 
Q 2419 397 2687 759 
Q 2956 1122 2956 1747 
Q 2956 2369 2687 2733 
Q 2419 3097 1959 3097 
z
M 1959 3584 
Q 2709 3584 3137 3096 
Q 3566 2609 3566 1747 
Q 3566 888 3137 398 
Q 2709 -91 1959 -91 
Q 1206 -91 779 398 
Q 353 888 353 1747 
Q 353 2609 779 3096 
Q 1206 3584 1959 3584 
z
" id="DejaVuSans-6f" transform="scale(0.015625)"/>
       <path d="M 544 1381 
L 544 3500 
L 1119 3500 
L 1119 1403 
Q 1119 906 1312 657 
Q 1506 409 1894 409 
Q 2359 409 2629 706 
Q 2900 1003 2900 1516 
L 2900 3500 
L 3475 3500 
L 3475 0 
L 2900 0 
L 2900 538 
Q 2691 219 2414 64 
Q 2138 -91 1772 -91 
Q 1169 -91 856 284 
Q 544 659 544 1381 
z
M 1991 3584 
L 1991 3584 
z
" id="DejaVuSans-75" transform="scale(0.015625)"/>
       <path d="M 2631 2963 
Q 2534 3019 2420 3045 
Q 2306 3072 2169 3072 
Q 1681 3072 1420 2755 
Q 1159 2438 1159 1844 
L 1159 0 
L 581 0 
L 581 3500 
L 1159 3500 
L 1159 2956 
Q 1341 3275 1631 3429 
Q 1922 3584 2338 3584 
Q 2397 3584 2469 3576 
Q 2541 3569 2628 3553 
L 2631 2963 
z
" id="DejaVuSans-72" transform="scale(0.015625)"/>
       <path d="M 3513 2113 
L 3513 0 
L 2938 0 
L 2938 2094 
Q 2938 2591 2744 2837 
Q 2550 3084 2163 3084 
Q 1697 3084 1428 2787 
Q 1159 2491 1159 1978 
L 1159 0 
L 581 0 
L 581 3500 
L 1159 3500 
L 1159 2956 
Q 1366 3272 1645 3428 
Q 1925 3584 2291 3584 
Q 2894 3584 3203 3211 
Q 3513 2838 3513 2113 
z
" id="DejaVuSans-6e" transform="scale(0.015625)"/>
       <path d="M 1172 4494 
L 1172 3500 
L 2356 3500 
L 2356 3053 
L 1172 3053 
L 1172 1153 
Q 1172 725 1289 603 
Q 1406 481 1766 481 
L 2356 481 
L 2356 0 
L 1766 0 
Q 1100 0 847 248 
Q 594 497 594 1153 
L 594 3053 
L 172 3053 
L 172 3500 
L 594 3500 
L 594 4494 
L 1172 4494 
z
" id="DejaVuSans-74" transform="scale(0.015625)"/>
       <path d="M 513 4856 
L 1013 4856 
Q 1481 4119 1714 3412 
Q 1947 2706 1947 2009 
Q 1947 1309 1714 600 
Q 1481 -109 1013 -844 
L 513 -844 
Q 928 -128 1133 580 
Q 1338 1288 1338 2009 
Q 1338 2731 1133 3434 
Q 928 4138 513 4856 
z
" id="DejaVuSans-29" transform="scale(0.015625)"/>
      </defs>
      <use xlink:href="#DejaVuSans-54"/>
      <use x="57.958984" xlink:href="#DejaVuSans-69"/>
      <use x="85.742188" xlink:href="#DejaVuSans-6d"/>
      <use x="183.154297" xlink:href="#DejaVuSans-65"/>
      <use x="244.677734" xlink:href="#DejaVuSans-20"/>
      <use x="276.464844" xlink:href="#DejaVuSans-28"/>
      <use x="315.478516" xlink:href="#DejaVuSans-68"/>
      <use x="378.857422" xlink:href="#DejaVuSans-6f"/>
      <use x="440.039062" xlink:href="#DejaVuSans-75"/>
      <use x="503.417969" xlink:href="#DejaVuSans-72"/>
      <use x="542.78125" xlink:href="#DejaVuSans-3a"/>
      <use x="576.472656" xlink:href="#DejaVuSans-6d"/>
      <use x="673.884766" xlink:href="#DejaVuSans-69"/>
      <use x="701.667969" xlink:href="#DejaVuSans-6e"/>
      <use x="765.046875" xlink:href="#DejaVuSans-75"/>
      <use x="828.425781" xlink:href="#DejaVuSans-74"/>
      <use x="867.634766" xlink:href="#DejaVuSans-65"/>
      <use x="929.158203" xlink:href="#DejaVuSans-29"/>
     </g>
    </g>
   </g>
   <g id="matplotlib.axis_2">
    <g id="ytick_1">
     <g id="line2d_7">
      <defs>
       <path d="M 0 0 
L -3.5 0 
" id="m8278a8faab" style="stroke:#000000;stroke-width:0.8;"/>
      </defs>
      <g>
       <use style="stroke:#000000;stroke-width:0.8;" x="59.690625" xlink:href="#m8278a8faab" y="269.673805"/>
      </g>
     </g>
     <g id="text_8">
      <!-- 43000 -->
      <g transform="translate(20.878125 273.473024)scale(0.1 -0.1)">
       <defs>
        <path d="M 2034 4250 
Q 1547 4250 1301 3770 
Q 1056 3291 1056 2328 
Q 1056 1369 1301 889 
Q 1547 409 2034 409 
Q 2525 409 2770 889 
Q 3016 1369 3016 2328 
Q 3016 3291 2770 3770 
Q 2525 4250 2034 4250 
z
M 2034 4750 
Q 2819 4750 3233 4129 
Q 3647 3509 3647 2328 
Q 3647 1150 3233 529 
Q 2819 -91 2034 -91 
Q 1250 -91 836 529 
Q 422 1150 422 2328 
Q 422 3509 836 4129 
Q 1250 4750 2034 4750 
z
" id="DejaVuSans-30" transform="scale(0.015625)"/>
       </defs>
       <use xlink:href="#DejaVuSans-34"/>
       <use x="63.623047" xlink:href="#DejaVuSans-33"/>
       <use x="127.246094" xlink:href="#DejaVuSans-30"/>
       <use x="190.869141" xlink:href="#DejaVuSans-30"/>
       <use x="254.492188" xlink:href="#DejaVuSans-30"/>
      </g>
     </g>
    </g>
    <g id="ytick_2">
     <g id="line2d_8">
      <g>
       <use style="stroke:#000000;stroke-width:0.8;" x="59.690625" xlink:href="#m8278a8faab" y="215.96155"/>
      </g>
     </g>
     <g id="text_9">
      <!-- 43500 -->
      <g transform="translate(20.878125 219.760768)scale(0.1 -0.1)">
       <use xlink:href="#DejaVuSans-34"/>
       <use x="63.623047" xlink:href="#DejaVuSans-33"/>
       <use x="127.246094" xlink:href="#DejaVuSans-35"/>
       <use x="190.869141" xlink:href="#DejaVuSans-30"/>
       <use x="254.492188" xlink:href="#DejaVuSans-30"/>
      </g>
     </g>
    </g>
    <g id="ytick_3">
     <g id="line2d_9">
      <g>
       <use style="stroke:#000000;stroke-width:0.8;" x="59.690625" xlink:href="#m8278a8faab" y="162.249294"/>
      </g>
     </g>
     <g id="text_10">
      <!-- 44000 -->
      <g transform="translate(20.878125 166.048512)scale(0.1 -0.1)">
       <use xlink:href="#DejaVuSans-34"/>
       <use x="63.623047" xlink:href="#DejaVuSans-34"/>
       <use x="127.246094" xlink:href="#DejaVuSans-30"/>
       <use x="190.869141" xlink:href="#DejaVuSans-30"/>
       <use x="254.492188" xlink:href="#DejaVuSans-30"/>
      </g>
     </g>
    </g>
    <g id="ytick_4">
     <g id="line2d_10">
      <g>
       <use style="stroke:#000000;stroke-width:0.8;" x="59.690625" xlink:href="#m8278a8faab" y="108.537038"/>
      </g>
     </g>
     <g id="text_11">
      <!-- 44500 -->
      <g transform="translate(20.878125 112.336257)scale(0.1 -0.1)">
       <use xlink:href="#DejaVuSans-34"/>
       <use x="63.623047" xlink:href="#DejaVuSans-34"/>
       <use x="127.246094" xlink:href="#DejaVuSans-35"/>
       <use x="190.869141" xlink:href="#DejaVuSans-30"/>
       <use x="254.492188" xlink:href="#DejaVuSans-30"/>
      </g>
     </g>
    </g>
    <g id="ytick_5">
     <g id="line2d_11">
      <g>
       <use style="stroke:#000000;stroke-width:0.8;" x="59.690625" xlink:href="#m8278a8faab" y="54.824782"/>
      </g>
     </g>
     <g id="text_12">
      <!-- 45000 -->
      <g transform="translate(20.878125 58.624001)scale(0.1 -0.1)">
       <use xlink:href="#DejaVuSans-34"/>
       <use x="63.623047" xlink:href="#DejaVuSans-35"/>
       <use x="127.246094" xlink:href="#DejaVuSans-30"/>
       <use x="190.869141" xlink:href="#DejaVuSans-30"/>
       <use x="254.492188" xlink:href="#DejaVuSans-30"/>
      </g>
     </g>
    </g>
    <g id="text_13">
     <!-- Code region coverage -->
     <g transform="translate(14.798438 210.379594)rotate(-90)scale(0.1 -0.1)">
      <defs>
       <path d="M 4122 4306 
L 4122 3641 
Q 3803 3938 3442 4084 
Q 3081 4231 2675 4231 
Q 1875 4231 1450 3742 
Q 1025 3253 1025 2328 
Q 1025 1406 1450 917 
Q 1875 428 2675 428 
Q 3081 428 3442 575 
Q 3803 722 4122 1019 
L 4122 359 
Q 3791 134 3420 21 
Q 3050 -91 2638 -91 
Q 1578 -91 968 557 
Q 359 1206 359 2328 
Q 359 3453 968 4101 
Q 1578 4750 2638 4750 
Q 3056 4750 3426 4639 
Q 3797 4528 4122 4306 
z
" id="DejaVuSans-43" transform="scale(0.015625)"/>
       <path d="M 2906 2969 
L 2906 4863 
L 3481 4863 
L 3481 0 
L 2906 0 
L 2906 525 
Q 2725 213 2448 61 
Q 2172 -91 1784 -91 
Q 1150 -91 751 415 
Q 353 922 353 1747 
Q 353 2572 751 3078 
Q 1150 3584 1784 3584 
Q 2172 3584 2448 3432 
Q 2725 3281 2906 2969 
z
M 947 1747 
Q 947 1113 1208 752 
Q 1469 391 1925 391 
Q 2381 391 2643 752 
Q 2906 1113 2906 1747 
Q 2906 2381 2643 2742 
Q 2381 3103 1925 3103 
Q 1469 3103 1208 2742 
Q 947 2381 947 1747 
z
" id="DejaVuSans-64" transform="scale(0.015625)"/>
       <path d="M 2906 1791 
Q 2906 2416 2648 2759 
Q 2391 3103 1925 3103 
Q 1463 3103 1205 2759 
Q 947 2416 947 1791 
Q 947 1169 1205 825 
Q 1463 481 1925 481 
Q 2391 481 2648 825 
Q 2906 1169 2906 1791 
z
M 3481 434 
Q 3481 -459 3084 -895 
Q 2688 -1331 1869 -1331 
Q 1566 -1331 1297 -1286 
Q 1028 -1241 775 -1147 
L 775 -588 
Q 1028 -725 1275 -790 
Q 1522 -856 1778 -856 
Q 2344 -856 2625 -561 
Q 2906 -266 2906 331 
L 2906 616 
Q 2728 306 2450 153 
Q 2172 0 1784 0 
Q 1141 0 747 490 
Q 353 981 353 1791 
Q 353 2603 747 3093 
Q 1141 3584 1784 3584 
Q 2172 3584 2450 3431 
Q 2728 3278 2906 2969 
L 2906 3500 
L 3481 3500 
L 3481 434 
z
" id="DejaVuSans-67" transform="scale(0.015625)"/>
       <path d="M 3122 3366 
L 3122 2828 
Q 2878 2963 2633 3030 
Q 2388 3097 2138 3097 
Q 1578 3097 1268 2742 
Q 959 2388 959 1747 
Q 959 1106 1268 751 
Q 1578 397 2138 397 
Q 2388 397 2633 464 
Q 2878 531 3122 666 
L 3122 134 
Q 2881 22 2623 -34 
Q 2366 -91 2075 -91 
Q 1284 -91 818 406 
Q 353 903 353 1747 
Q 353 2603 823 3093 
Q 1294 3584 2113 3584 
Q 2378 3584 2631 3529 
Q 2884 3475 3122 3366 
z
" id="DejaVuSans-63" transform="scale(0.015625)"/>
       <path d="M 191 3500 
L 800 3500 
L 1894 563 
L 2988 3500 
L 3597 3500 
L 2284 0 
L 1503 0 
L 191 3500 
z
" id="DejaVuSans-76" transform="scale(0.015625)"/>
       <path d="M 2194 1759 
Q 1497 1759 1228 1600 
Q 959 1441 959 1056 
Q 959 750 1161 570 
Q 1363 391 1709 391 
Q 2188 391 2477 730 
Q 2766 1069 2766 1631 
L 2766 1759 
L 2194 1759 
z
M 3341 1997 
L 3341 0 
L 2766 0 
L 2766 531 
Q 2569 213 2275 61 
Q 1981 -91 1556 -91 
Q 1019 -91 701 211 
Q 384 513 384 1019 
Q 384 1609 779 1909 
Q 1175 2209 1959 2209 
L 2766 2209 
L 2766 2266 
Q 2766 2663 2505 2880 
Q 2244 3097 1772 3097 
Q 1472 3097 1187 3025 
Q 903 2953 641 2809 
L 641 3341 
Q 956 3463 1253 3523 
Q 1550 3584 1831 3584 
Q 2591 3584 2966 3190 
Q 3341 2797 3341 1997 
z
" id="DejaVuSans-61" transform="scale(0.015625)"/>
      </defs>
      <use xlink:href="#DejaVuSans-43"/>
      <use x="69.824219" xlink:href="#DejaVuSans-6f"/>
      <use x="131.005859" xlink:href="#DejaVuSans-64"/>
      <use x="194.482422" xlink:href="#DejaVuSans-65"/>
      <use x="256.005859" xlink:href="#DejaVuSans-20"/>
      <use x="287.792969" xlink:href="#DejaVuSans-72"/>
      <use x="326.65625" xlink:href="#DejaVuSans-65"/>
      <use x="388.179688" xlink:href="#DejaVuSans-67"/>
      <use x="451.65625" xlink:href="#DejaVuSans-69"/>
      <use x="479.439453" xlink:href="#DejaVuSans-6f"/>
      <use x="540.621094" xlink:href="#DejaVuSans-6e"/>
      <use x="604" xlink:href="#DejaVuSans-20"/>
      <use x="635.787109" xlink:href="#DejaVuSans-63"/>
      <use x="690.767578" xlink:href="#DejaVuSans-6f"/>
      <use x="751.949219" xlink:href="#DejaVuSans-76"/>
      <use x="811.128906" xlink:href="#DejaVuSans-65"/>
      <use x="872.652344" xlink:href="#DejaVuSans-72"/>
      <use x="913.765625" xlink:href="#DejaVuSans-61"/>
      <use x="975.044922" xlink:href="#DejaVuSans-67"/>
      <use x="1038.521484" xlink:href="#DejaVuSans-65"/>
     </g>
    </g>
   </g>
   <g id="line2d_12">
    <path clip-path="url(#p2e2fae2361)" d="M 75.923352 243.999347 
L 79.490985 217.734054 
L 83.058617 205.863645 
L 86.626249 190.179667 
L 90.193882 191.039063 
L 93.761514 170.520981 
L 97.329146 170.359844 
L 100.896779 169.76901 
L 104.464411 144.470537 
L 108.032044 143.664853 
L 111.599676 130.559063 
L 115.167308 130.129365 
L 118.734941 141.301514 
L 122.302573 131.579596 
L 125.870205 121.965102 
L 129.437838 115.627056 
L 133.00547 114.660235 
L 136.573103 114.123113 
L 140.140735 114.982509 
L 143.708367 113.210004 
L 147.276 109.396434 
L 150.843632 109.396434 
L 154.411264 106.603397 
L 157.978897 110.363255 
L 161.546529 106.066274 
L 165.114161 109.28901 
L 168.681794 109.235297 
L 172.249426 106.066274 
L 175.817059 106.710821 
L 179.384691 104.347482 
L 182.952323 101.232171 
L 186.519956 103.810359 
L 190.087588 103.810359 
L 193.65522 103.165812 
L 197.222853 102.413841 
L 200.790485 101.232171 
L 204.358118 101.232171 
L 207.92575 98.439134 
L 211.493382 93.121621 
L 215.061015 92.262224 
L 218.628647 91.510253 
L 222.196279 90.48972 
L 225.763912 89.630324 
L 229.331544 88.932065 
L 232.899176 88.770928 
L 236.466809 82.86258 
L 240.034441 88.770928 
L 243.602074 88.770928 
L 247.169706 83.614551 
L 250.737338 85.655617 
L 254.304971 83.399702 
L 257.872603 85.225919 
L 261.440235 85.064782 
L 265.007868 82.755155 
L 268.5755 84.742509 
L 272.143132 84.420235 
L 275.710765 83.8294 
L 279.278397 80.821514 
L 282.84603 65.298672 
L 286.413662 61.592526 
L 289.981294 63.848441 
L 293.548927 63.848441 
L 297.116559 66.856327 
L 300.684191 63.472455 
L 304.251824 63.472455 
L 307.819456 63.257606 
L 311.387089 51.602047 
L 314.954721 54.878494 
L 318.522353 54.717358 
L 322.089986 49.453557 
L 325.657618 53.804249 
L 329.22525 49.453557 
L 332.792883 56.43615 
L 336.360515 48.594161 
L 339.928147 52.300306 
L 343.49578 52.246594 
L 347.063412 52.139169 
L 350.631045 52.139169 
L 354.198677 48.164462 
L 357.766309 50.635226 
L 361.333942 48.164462 
L 364.901574 52.998565 
L 368.469206 50.366665 
L 372.036839 49.829542 
L 375.604471 51.92432 
L 379.172104 47.090217 
L 382.739736 49.453557 
L 386.307368 49.453557 
L 389.875001 49.453557 
L 393.442633 49.453557 
L 397.010265 49.399844 
L 400.577898 49.29242 
" style="fill:none;stroke:#98df8a;stroke-linecap:square;stroke-width:1.5;"/>
    <defs>
     <path d="M -0 3 
L 3 -3 
L -3 -3 
z
" id="m41fca69cbf" style="stroke:#ffffff;stroke-linejoin:miter;stroke-width:0.75;"/>
    </defs>
    <g clip-path="url(#p2e2fae2361)">
     <use style="fill:#98df8a;stroke:#ffffff;stroke-linejoin:miter;stroke-width:0.75;" x="75.923352" xlink:href="#m41fca69cbf" y="243.999347"/>
     <use style="fill:#98df8a;stroke:#ffffff;stroke-linejoin:miter;stroke-width:0.75;" x="79.490985" xlink:href="#m41fca69cbf" y="217.734054"/>
     <use style="fill:#98df8a;stroke:#ffffff;stroke-linejoin:miter;stroke-width:0.75;" x="83.058617" xlink:href="#m41fca69cbf" y="205.863645"/>
     <use style="fill:#98df8a;stroke:#ffffff;stroke-linejoin:miter;stroke-width:0.75;" x="86.626249" xlink:href="#m41fca69cbf" y="190.179667"/>
     <use style="fill:#98df8a;stroke:#ffffff;stroke-linejoin:miter;stroke-width:0.75;" x="90.193882" xlink:href="#m41fca69cbf" y="191.039063"/>
     <use style="fill:#98df8a;stroke:#ffffff;stroke-linejoin:miter;stroke-width:0.75;" x="93.761514" xlink:href="#m41fca69cbf" y="170.520981"/>
     <use style="fill:#98df8a;stroke:#ffffff;stroke-linejoin:miter;stroke-width:0.75;" x="97.329146" xlink:href="#m41fca69cbf" y="170.359844"/>
     <use style="fill:#98df8a;stroke:#ffffff;stroke-linejoin:miter;stroke-width:0.75;" x="100.896779" xlink:href="#m41fca69cbf" y="169.76901"/>
     <use style="fill:#98df8a;stroke:#ffffff;stroke-linejoin:miter;stroke-width:0.75;" x="104.464411" xlink:href="#m41fca69cbf" y="144.470537"/>
     <use style="fill:#98df8a;stroke:#ffffff;stroke-linejoin:miter;stroke-width:0.75;" x="108.032044" xlink:href="#m41fca69cbf" y="143.664853"/>
     <use style="fill:#98df8a;stroke:#ffffff;stroke-linejoin:miter;stroke-width:0.75;" x="111.599676" xlink:href="#m41fca69cbf" y="130.559063"/>
     <use style="fill:#98df8a;stroke:#ffffff;stroke-linejoin:miter;stroke-width:0.75;" x="115.167308" xlink:href="#m41fca69cbf" y="130.129365"/>
     <use style="fill:#98df8a;stroke:#ffffff;stroke-linejoin:miter;stroke-width:0.75;" x="118.734941" xlink:href="#m41fca69cbf" y="141.301514"/>
     <use style="fill:#98df8a;stroke:#ffffff;stroke-linejoin:miter;stroke-width:0.75;" x="122.302573" xlink:href="#m41fca69cbf" y="131.579596"/>
     <use style="fill:#98df8a;stroke:#ffffff;stroke-linejoin:miter;stroke-width:0.75;" x="125.870205" xlink:href="#m41fca69cbf" y="121.965102"/>
     <use style="fill:#98df8a;stroke:#ffffff;stroke-linejoin:miter;stroke-width:0.75;" x="129.437838" xlink:href="#m41fca69cbf" y="115.627056"/>
     <use style="fill:#98df8a;stroke:#ffffff;stroke-linejoin:miter;stroke-width:0.75;" x="133.00547" xlink:href="#m41fca69cbf" y="114.660235"/>
     <use style="fill:#98df8a;stroke:#ffffff;stroke-linejoin:miter;stroke-width:0.75;" x="136.573103" xlink:href="#m41fca69cbf" y="114.123113"/>
     <use style="fill:#98df8a;stroke:#ffffff;stroke-linejoin:miter;stroke-width:0.75;" x="140.140735" xlink:href="#m41fca69cbf" y="114.982509"/>
     <use style="fill:#98df8a;stroke:#ffffff;stroke-linejoin:miter;stroke-width:0.75;" x="143.708367" xlink:href="#m41fca69cbf" y="113.210004"/>
     <use style="fill:#98df8a;stroke:#ffffff;stroke-linejoin:miter;stroke-width:0.75;" x="147.276" xlink:href="#m41fca69cbf" y="109.396434"/>
     <use style="fill:#98df8a;stroke:#ffffff;stroke-linejoin:miter;stroke-width:0.75;" x="150.843632" xlink:href="#m41fca69cbf" y="109.396434"/>
     <use style="fill:#98df8a;stroke:#ffffff;stroke-linejoin:miter;stroke-width:0.75;" x="154.411264" xlink:href="#m41fca69cbf" y="106.603397"/>
     <use style="fill:#98df8a;stroke:#ffffff;stroke-linejoin:miter;stroke-width:0.75;" x="157.978897" xlink:href="#m41fca69cbf" y="110.363255"/>
     <use style="fill:#98df8a;stroke:#ffffff;stroke-linejoin:miter;stroke-width:0.75;" x="161.546529" xlink:href="#m41fca69cbf" y="106.066274"/>
     <use style="fill:#98df8a;stroke:#ffffff;stroke-linejoin:miter;stroke-width:0.75;" x="165.114161" xlink:href="#m41fca69cbf" y="109.28901"/>
     <use style="fill:#98df8a;stroke:#ffffff;stroke-linejoin:miter;stroke-width:0.75;" x="168.681794" xlink:href="#m41fca69cbf" y="109.235297"/>
     <use style="fill:#98df8a;stroke:#ffffff;stroke-linejoin:miter;stroke-width:0.75;" x="172.249426" xlink:href="#m41fca69cbf" y="106.066274"/>
     <use style="fill:#98df8a;stroke:#ffffff;stroke-linejoin:miter;stroke-width:0.75;" x="175.817059" xlink:href="#m41fca69cbf" y="106.710821"/>
     <use style="fill:#98df8a;stroke:#ffffff;stroke-linejoin:miter;stroke-width:0.75;" x="179.384691" xlink:href="#m41fca69cbf" y="104.347482"/>
     <use style="fill:#98df8a;stroke:#ffffff;stroke-linejoin:miter;stroke-width:0.75;" x="182.952323" xlink:href="#m41fca69cbf" y="101.232171"/>
     <use style="fill:#98df8a;stroke:#ffffff;stroke-linejoin:miter;stroke-width:0.75;" x="186.519956" xlink:href="#m41fca69cbf" y="103.810359"/>
     <use style="fill:#98df8a;stroke:#ffffff;stroke-linejoin:miter;stroke-width:0.75;" x="190.087588" xlink:href="#m41fca69cbf" y="103.810359"/>
     <use style="fill:#98df8a;stroke:#ffffff;stroke-linejoin:miter;stroke-width:0.75;" x="193.65522" xlink:href="#m41fca69cbf" y="103.165812"/>
     <use style="fill:#98df8a;stroke:#ffffff;stroke-linejoin:miter;stroke-width:0.75;" x="197.222853" xlink:href="#m41fca69cbf" y="102.413841"/>
     <use style="fill:#98df8a;stroke:#ffffff;stroke-linejoin:miter;stroke-width:0.75;" x="200.790485" xlink:href="#m41fca69cbf" y="101.232171"/>
     <use style="fill:#98df8a;stroke:#ffffff;stroke-linejoin:miter;stroke-width:0.75;" x="204.358118" xlink:href="#m41fca69cbf" y="101.232171"/>
     <use style="fill:#98df8a;stroke:#ffffff;stroke-linejoin:miter;stroke-width:0.75;" x="207.92575" xlink:href="#m41fca69cbf" y="98.439134"/>
     <use style="fill:#98df8a;stroke:#ffffff;stroke-linejoin:miter;stroke-width:0.75;" x="211.493382" xlink:href="#m41fca69cbf" y="93.121621"/>
     <use style="fill:#98df8a;stroke:#ffffff;stroke-linejoin:miter;stroke-width:0.75;" x="215.061015" xlink:href="#m41fca69cbf" y="92.262224"/>
     <use style="fill:#98df8a;stroke:#ffffff;stroke-linejoin:miter;stroke-width:0.75;" x="218.628647" xlink:href="#m41fca69cbf" y="91.510253"/>
     <use style="fill:#98df8a;stroke:#ffffff;stroke-linejoin:miter;stroke-width:0.75;" x="222.196279" xlink:href="#m41fca69cbf" y="90.48972"/>
     <use style="fill:#98df8a;stroke:#ffffff;stroke-linejoin:miter;stroke-width:0.75;" x="225.763912" xlink:href="#m41fca69cbf" y="89.630324"/>
     <use style="fill:#98df8a;stroke:#ffffff;stroke-linejoin:miter;stroke-width:0.75;" x="229.331544" xlink:href="#m41fca69cbf" y="88.932065"/>
     <use style="fill:#98df8a;stroke:#ffffff;stroke-linejoin:miter;stroke-width:0.75;" x="232.899176" xlink:href="#m41fca69cbf" y="88.770928"/>
     <use style="fill:#98df8a;stroke:#ffffff;stroke-linejoin:miter;stroke-width:0.75;" x="236.466809" xlink:href="#m41fca69cbf" y="82.86258"/>
     <use style="fill:#98df8a;stroke:#ffffff;stroke-linejoin:miter;stroke-width:0.75;" x="240.034441" xlink:href="#m41fca69cbf" y="88.770928"/>
     <use style="fill:#98df8a;stroke:#ffffff;stroke-linejoin:miter;stroke-width:0.75;" x="243.602074" xlink:href="#m41fca69cbf" y="88.770928"/>
     <use style="fill:#98df8a;stroke:#ffffff;stroke-linejoin:miter;stroke-width:0.75;" x="247.169706" xlink:href="#m41fca69cbf" y="83.614551"/>
     <use style="fill:#98df8a;stroke:#ffffff;stroke-linejoin:miter;stroke-width:0.75;" x="250.737338" xlink:href="#m41fca69cbf" y="85.655617"/>
     <use style="fill:#98df8a;stroke:#ffffff;stroke-linejoin:miter;stroke-width:0.75;" x="254.304971" xlink:href="#m41fca69cbf" y="83.399702"/>
     <use style="fill:#98df8a;stroke:#ffffff;stroke-linejoin:miter;stroke-width:0.75;" x="257.872603" xlink:href="#m41fca69cbf" y="85.225919"/>
     <use style="fill:#98df8a;stroke:#ffffff;stroke-linejoin:miter;stroke-width:0.75;" x="261.440235" xlink:href="#m41fca69cbf" y="85.064782"/>
     <use style="fill:#98df8a;stroke:#ffffff;stroke-linejoin:miter;stroke-width:0.75;" x="265.007868" xlink:href="#m41fca69cbf" y="82.755155"/>
     <use style="fill:#98df8a;stroke:#ffffff;stroke-linejoin:miter;stroke-width:0.75;" x="268.5755" xlink:href="#m41fca69cbf" y="84.742509"/>
     <use style="fill:#98df8a;stroke:#ffffff;stroke-linejoin:miter;stroke-width:0.75;" x="272.143132" xlink:href="#m41fca69cbf" y="84.420235"/>
     <use style="fill:#98df8a;stroke:#ffffff;stroke-linejoin:miter;stroke-width:0.75;" x="275.710765" xlink:href="#m41fca69cbf" y="83.8294"/>
     <use style="fill:#98df8a;stroke:#ffffff;stroke-linejoin:miter;stroke-width:0.75;" x="279.278397" xlink:href="#m41fca69cbf" y="80.821514"/>
     <use style="fill:#98df8a;stroke:#ffffff;stroke-linejoin:miter;stroke-width:0.75;" x="282.84603" xlink:href="#m41fca69cbf" y="65.298672"/>
     <use style="fill:#98df8a;stroke:#ffffff;stroke-linejoin:miter;stroke-width:0.75;" x="286.413662" xlink:href="#m41fca69cbf" y="61.592526"/>
     <use style="fill:#98df8a;stroke:#ffffff;stroke-linejoin:miter;stroke-width:0.75;" x="289.981294" xlink:href="#m41fca69cbf" y="63.848441"/>
     <use style="fill:#98df8a;stroke:#ffffff;stroke-linejoin:miter;stroke-width:0.75;" x="293.548927" xlink:href="#m41fca69cbf" y="63.848441"/>
     <use style="fill:#98df8a;stroke:#ffffff;stroke-linejoin:miter;stroke-width:0.75;" x="297.116559" xlink:href="#m41fca69cbf" y="66.856327"/>
     <use style="fill:#98df8a;stroke:#ffffff;stroke-linejoin:miter;stroke-width:0.75;" x="300.684191" xlink:href="#m41fca69cbf" y="63.472455"/>
     <use style="fill:#98df8a;stroke:#ffffff;stroke-linejoin:miter;stroke-width:0.75;" x="304.251824" xlink:href="#m41fca69cbf" y="63.472455"/>
     <use style="fill:#98df8a;stroke:#ffffff;stroke-linejoin:miter;stroke-width:0.75;" x="307.819456" xlink:href="#m41fca69cbf" y="63.257606"/>
     <use style="fill:#98df8a;stroke:#ffffff;stroke-linejoin:miter;stroke-width:0.75;" x="311.387089" xlink:href="#m41fca69cbf" y="51.602047"/>
     <use style="fill:#98df8a;stroke:#ffffff;stroke-linejoin:miter;stroke-width:0.75;" x="314.954721" xlink:href="#m41fca69cbf" y="54.878494"/>
     <use style="fill:#98df8a;stroke:#ffffff;stroke-linejoin:miter;stroke-width:0.75;" x="318.522353" xlink:href="#m41fca69cbf" y="54.717358"/>
     <use style="fill:#98df8a;stroke:#ffffff;stroke-linejoin:miter;stroke-width:0.75;" x="322.089986" xlink:href="#m41fca69cbf" y="49.453557"/>
     <use style="fill:#98df8a;stroke:#ffffff;stroke-linejoin:miter;stroke-width:0.75;" x="325.657618" xlink:href="#m41fca69cbf" y="53.804249"/>
     <use style="fill:#98df8a;stroke:#ffffff;stroke-linejoin:miter;stroke-width:0.75;" x="329.22525" xlink:href="#m41fca69cbf" y="49.453557"/>
     <use style="fill:#98df8a;stroke:#ffffff;stroke-linejoin:miter;stroke-width:0.75;" x="332.792883" xlink:href="#m41fca69cbf" y="56.43615"/>
     <use style="fill:#98df8a;stroke:#ffffff;stroke-linejoin:miter;stroke-width:0.75;" x="336.360515" xlink:href="#m41fca69cbf" y="48.594161"/>
     <use style="fill:#98df8a;stroke:#ffffff;stroke-linejoin:miter;stroke-width:0.75;" x="339.928147" xlink:href="#m41fca69cbf" y="52.300306"/>
     <use style="fill:#98df8a;stroke:#ffffff;stroke-linejoin:miter;stroke-width:0.75;" x="343.49578" xlink:href="#m41fca69cbf" y="52.246594"/>
     <use style="fill:#98df8a;stroke:#ffffff;stroke-linejoin:miter;stroke-width:0.75;" x="347.063412" xlink:href="#m41fca69cbf" y="52.139169"/>
     <use style="fill:#98df8a;stroke:#ffffff;stroke-linejoin:miter;stroke-width:0.75;" x="350.631045" xlink:href="#m41fca69cbf" y="52.139169"/>
     <use style="fill:#98df8a;stroke:#ffffff;stroke-linejoin:miter;stroke-width:0.75;" x="354.198677" xlink:href="#m41fca69cbf" y="48.164462"/>
     <use style="fill:#98df8a;stroke:#ffffff;stroke-linejoin:miter;stroke-width:0.75;" x="357.766309" xlink:href="#m41fca69cbf" y="50.635226"/>
     <use style="fill:#98df8a;stroke:#ffffff;stroke-linejoin:miter;stroke-width:0.75;" x="361.333942" xlink:href="#m41fca69cbf" y="48.164462"/>
     <use style="fill:#98df8a;stroke:#ffffff;stroke-linejoin:miter;stroke-width:0.75;" x="364.901574" xlink:href="#m41fca69cbf" y="52.998565"/>
     <use style="fill:#98df8a;stroke:#ffffff;stroke-linejoin:miter;stroke-width:0.75;" x="368.469206" xlink:href="#m41fca69cbf" y="50.366665"/>
     <use style="fill:#98df8a;stroke:#ffffff;stroke-linejoin:miter;stroke-width:0.75;" x="372.036839" xlink:href="#m41fca69cbf" y="49.829542"/>
     <use style="fill:#98df8a;stroke:#ffffff;stroke-linejoin:miter;stroke-width:0.75;" x="375.604471" xlink:href="#m41fca69cbf" y="51.92432"/>
     <use style="fill:#98df8a;stroke:#ffffff;stroke-linejoin:miter;stroke-width:0.75;" x="379.172104" xlink:href="#m41fca69cbf" y="47.090217"/>
     <use style="fill:#98df8a;stroke:#ffffff;stroke-linejoin:miter;stroke-width:0.75;" x="382.739736" xlink:href="#m41fca69cbf" y="49.453557"/>
     <use style="fill:#98df8a;stroke:#ffffff;stroke-linejoin:miter;stroke-width:0.75;" x="386.307368" xlink:href="#m41fca69cbf" y="49.453557"/>
     <use style="fill:#98df8a;stroke:#ffffff;stroke-linejoin:miter;stroke-width:0.75;" x="389.875001" xlink:href="#m41fca69cbf" y="49.453557"/>
     <use style="fill:#98df8a;stroke:#ffffff;stroke-linejoin:miter;stroke-width:0.75;" x="393.442633" xlink:href="#m41fca69cbf" y="49.453557"/>
     <use style="fill:#98df8a;stroke:#ffffff;stroke-linejoin:miter;stroke-width:0.75;" x="397.010265" xlink:href="#m41fca69cbf" y="49.399844"/>
     <use style="fill:#98df8a;stroke:#ffffff;stroke-linejoin:miter;stroke-width:0.75;" x="400.577898" xlink:href="#m41fca69cbf" y="49.29242"/>
    </g>
   </g>
   <g id="line2d_13">
    <path clip-path="url(#p2e2fae2361)" d="M 75.923352 211.127446 
L 79.490985 176.751603 
L 83.058617 161.175049 
L 86.626249 155.588974 
L 90.193882 151.45313 
L 93.761514 150.378885 
L 97.329146 144.846523 
L 100.896779 143.664853 
L 104.464411 138.938175 
L 108.032044 139.797571 
L 111.599676 131.848157 
L 115.167308 137.756505 
L 118.734941 137.595368 
L 122.302573 125.832384 
L 125.870205 121.91139 
L 129.437838 130.397926 
L 133.00547 130.344214 
L 136.573103 121.91139 
L 140.140735 127.87345 
L 143.708367 125.72496 
L 147.276 127.551177 
L 150.843632 120.944569 
L 154.411264 127.282615 
L 157.978897 118.58123 
L 161.546529 125.72496 
L 165.114161 121.535404 
L 168.681794 109.127873 
L 172.249426 104.562331 
L 175.817059 105.099454 
L 179.384691 103.165812 
L 182.952323 102.091567 
L 186.519956 100.426487 
L 190.087588 99.943077 
L 193.65522 99.78194 
L 197.222853 99.78194 
L 200.790485 98.224285 
L 204.358118 98.653983 
L 207.92575 98.224285 
L 211.493382 98.009436 
L 215.061015 98.009436 
L 218.628647 96.183219 
L 222.196279 96.612917 
L 225.763912 95.48496 
L 229.331544 94.679276 
L 232.899176 96.290644 
L 236.466809 95.108974 
L 240.034441 94.679276 
L 243.602074 94.840413 
L 247.169706 94.464427 
L 250.737338 93.873592 
L 254.304971 93.282757 
L 257.872603 90.811994 
L 261.440235 91.778814 
L 265.007868 90.704569 
L 268.5755 90.650857 
L 272.143132 90.00631 
L 275.710765 89.254338 
L 279.278397 89.952597 
L 282.84603 85.655617 
L 286.413662 86.353876 
L 289.981294 85.763042 
L 293.548927 85.01107 
L 297.116559 84.796221 
L 300.684191 81.466061 
L 304.251824 76.846807 
L 307.819456 76.846807 
L 311.387089 71.797855 
L 314.954721 68.736256 
L 318.522353 68.57512 
L 322.089986 70.831034 
L 325.657618 65.459809 
L 329.22525 68.037997 
L 332.792883 68.037997 
L 336.360515 64.707837 
L 339.928147 61.807375 
L 343.49578 61.592526 
L 347.063412 61.592526 
L 350.631045 61.646239 
L 354.198677 59.658885 
L 357.766309 60.625706 
L 361.333942 60.518281 
L 364.901574 60.518281 
L 368.469206 60.088583 
L 372.036839 60.088583 
L 375.604471 60.088583 
L 379.172104 60.088583 
L 382.739736 59.282899 
L 386.307368 58.745777 
L 389.875001 58.154942 
L 393.442633 56.167589 
L 397.010265 58.262367 
L 400.577898 56.113876 
" style="fill:none;stroke:#1f77b4;stroke-linecap:square;stroke-width:1.5;"/>
    <defs>
     <path d="M 0 3 
C 0.795609 3 1.55874 2.683901 2.12132 2.12132 
C 2.683901 1.55874 3 0.795609 3 0 
C 3 -0.795609 2.683901 -1.55874 2.12132 -2.12132 
C 1.55874 -2.683901 0.795609 -3 0 -3 
C -0.795609 -3 -1.55874 -2.683901 -2.12132 -2.12132 
C -2.683901 -1.55874 -3 -0.795609 -3 0 
C -3 0.795609 -2.683901 1.55874 -2.12132 2.12132 
C -1.55874 2.683901 -0.795609 3 0 3 
z
" id="mbdece85e51" style="stroke:#ffffff;stroke-width:0.75;"/>
    </defs>
    <g clip-path="url(#p2e2fae2361)">
     <use style="fill:#1f77b4;stroke:#ffffff;stroke-width:0.75;" x="75.923352" xlink:href="#mbdece85e51" y="211.127446"/>
     <use style="fill:#1f77b4;stroke:#ffffff;stroke-width:0.75;" x="79.490985" xlink:href="#mbdece85e51" y="176.751603"/>
     <use style="fill:#1f77b4;stroke:#ffffff;stroke-width:0.75;" x="83.058617" xlink:href="#mbdece85e51" y="161.175049"/>
     <use style="fill:#1f77b4;stroke:#ffffff;stroke-width:0.75;" x="86.626249" xlink:href="#mbdece85e51" y="155.588974"/>
     <use style="fill:#1f77b4;stroke:#ffffff;stroke-width:0.75;" x="90.193882" xlink:href="#mbdece85e51" y="151.45313"/>
     <use style="fill:#1f77b4;stroke:#ffffff;stroke-width:0.75;" x="93.761514" xlink:href="#mbdece85e51" y="150.378885"/>
     <use style="fill:#1f77b4;stroke:#ffffff;stroke-width:0.75;" x="97.329146" xlink:href="#mbdece85e51" y="144.846523"/>
     <use style="fill:#1f77b4;stroke:#ffffff;stroke-width:0.75;" x="100.896779" xlink:href="#mbdece85e51" y="143.664853"/>
     <use style="fill:#1f77b4;stroke:#ffffff;stroke-width:0.75;" x="104.464411" xlink:href="#mbdece85e51" y="138.938175"/>
     <use style="fill:#1f77b4;stroke:#ffffff;stroke-width:0.75;" x="108.032044" xlink:href="#mbdece85e51" y="139.797571"/>
     <use style="fill:#1f77b4;stroke:#ffffff;stroke-width:0.75;" x="111.599676" xlink:href="#mbdece85e51" y="131.848157"/>
     <use style="fill:#1f77b4;stroke:#ffffff;stroke-width:0.75;" x="115.167308" xlink:href="#mbdece85e51" y="137.756505"/>
     <use style="fill:#1f77b4;stroke:#ffffff;stroke-width:0.75;" x="118.734941" xlink:href="#mbdece85e51" y="137.595368"/>
     <use style="fill:#1f77b4;stroke:#ffffff;stroke-width:0.75;" x="122.302573" xlink:href="#mbdece85e51" y="125.832384"/>
     <use style="fill:#1f77b4;stroke:#ffffff;stroke-width:0.75;" x="125.870205" xlink:href="#mbdece85e51" y="121.91139"/>
     <use style="fill:#1f77b4;stroke:#ffffff;stroke-width:0.75;" x="129.437838" xlink:href="#mbdece85e51" y="130.397926"/>
     <use style="fill:#1f77b4;stroke:#ffffff;stroke-width:0.75;" x="133.00547" xlink:href="#mbdece85e51" y="130.344214"/>
     <use style="fill:#1f77b4;stroke:#ffffff;stroke-width:0.75;" x="136.573103" xlink:href="#mbdece85e51" y="121.91139"/>
     <use style="fill:#1f77b4;stroke:#ffffff;stroke-width:0.75;" x="140.140735" xlink:href="#mbdece85e51" y="127.87345"/>
     <use style="fill:#1f77b4;stroke:#ffffff;stroke-width:0.75;" x="143.708367" xlink:href="#mbdece85e51" y="125.72496"/>
     <use style="fill:#1f77b4;stroke:#ffffff;stroke-width:0.75;" x="147.276" xlink:href="#mbdece85e51" y="127.551177"/>
     <use style="fill:#1f77b4;stroke:#ffffff;stroke-width:0.75;" x="150.843632" xlink:href="#mbdece85e51" y="120.944569"/>
     <use style="fill:#1f77b4;stroke:#ffffff;stroke-width:0.75;" x="154.411264" xlink:href="#mbdece85e51" y="127.282615"/>
     <use style="fill:#1f77b4;stroke:#ffffff;stroke-width:0.75;" x="157.978897" xlink:href="#mbdece85e51" y="118.58123"/>
     <use style="fill:#1f77b4;stroke:#ffffff;stroke-width:0.75;" x="161.546529" xlink:href="#mbdece85e51" y="125.72496"/>
     <use style="fill:#1f77b4;stroke:#ffffff;stroke-width:0.75;" x="165.114161" xlink:href="#mbdece85e51" y="121.535404"/>
     <use style="fill:#1f77b4;stroke:#ffffff;stroke-width:0.75;" x="168.681794" xlink:href="#mbdece85e51" y="109.127873"/>
     <use style="fill:#1f77b4;stroke:#ffffff;stroke-width:0.75;" x="172.249426" xlink:href="#mbdece85e51" y="104.562331"/>
     <use style="fill:#1f77b4;stroke:#ffffff;stroke-width:0.75;" x="175.817059" xlink:href="#mbdece85e51" y="105.099454"/>
     <use style="fill:#1f77b4;stroke:#ffffff;stroke-width:0.75;" x="179.384691" xlink:href="#mbdece85e51" y="103.165812"/>
     <use style="fill:#1f77b4;stroke:#ffffff;stroke-width:0.75;" x="182.952323" xlink:href="#mbdece85e51" y="102.091567"/>
     <use style="fill:#1f77b4;stroke:#ffffff;stroke-width:0.75;" x="186.519956" xlink:href="#mbdece85e51" y="100.426487"/>
     <use style="fill:#1f77b4;stroke:#ffffff;stroke-width:0.75;" x="190.087588" xlink:href="#mbdece85e51" y="99.943077"/>
     <use style="fill:#1f77b4;stroke:#ffffff;stroke-width:0.75;" x="193.65522" xlink:href="#mbdece85e51" y="99.78194"/>
     <use style="fill:#1f77b4;stroke:#ffffff;stroke-width:0.75;" x="197.222853" xlink:href="#mbdece85e51" y="99.78194"/>
     <use style="fill:#1f77b4;stroke:#ffffff;stroke-width:0.75;" x="200.790485" xlink:href="#mbdece85e51" y="98.224285"/>
     <use style="fill:#1f77b4;stroke:#ffffff;stroke-width:0.75;" x="204.358118" xlink:href="#mbdece85e51" y="98.653983"/>
     <use style="fill:#1f77b4;stroke:#ffffff;stroke-width:0.75;" x="207.92575" xlink:href="#mbdece85e51" y="98.224285"/>
     <use style="fill:#1f77b4;stroke:#ffffff;stroke-width:0.75;" x="211.493382" xlink:href="#mbdece85e51" y="98.009436"/>
     <use style="fill:#1f77b4;stroke:#ffffff;stroke-width:0.75;" x="215.061015" xlink:href="#mbdece85e51" y="98.009436"/>
     <use style="fill:#1f77b4;stroke:#ffffff;stroke-width:0.75;" x="218.628647" xlink:href="#mbdece85e51" y="96.183219"/>
     <use style="fill:#1f77b4;stroke:#ffffff;stroke-width:0.75;" x="222.196279" xlink:href="#mbdece85e51" y="96.612917"/>
     <use style="fill:#1f77b4;stroke:#ffffff;stroke-width:0.75;" x="225.763912" xlink:href="#mbdece85e51" y="95.48496"/>
     <use style="fill:#1f77b4;stroke:#ffffff;stroke-width:0.75;" x="229.331544" xlink:href="#mbdece85e51" y="94.679276"/>
     <use style="fill:#1f77b4;stroke:#ffffff;stroke-width:0.75;" x="232.899176" xlink:href="#mbdece85e51" y="96.290644"/>
     <use style="fill:#1f77b4;stroke:#ffffff;stroke-width:0.75;" x="236.466809" xlink:href="#mbdece85e51" y="95.108974"/>
     <use style="fill:#1f77b4;stroke:#ffffff;stroke-width:0.75;" x="240.034441" xlink:href="#mbdece85e51" y="94.679276"/>
     <use style="fill:#1f77b4;stroke:#ffffff;stroke-width:0.75;" x="243.602074" xlink:href="#mbdece85e51" y="94.840413"/>
     <use style="fill:#1f77b4;stroke:#ffffff;stroke-width:0.75;" x="247.169706" xlink:href="#mbdece85e51" y="94.464427"/>
     <use style="fill:#1f77b4;stroke:#ffffff;stroke-width:0.75;" x="250.737338" xlink:href="#mbdece85e51" y="93.873592"/>
     <use style="fill:#1f77b4;stroke:#ffffff;stroke-width:0.75;" x="254.304971" xlink:href="#mbdece85e51" y="93.282757"/>
     <use style="fill:#1f77b4;stroke:#ffffff;stroke-width:0.75;" x="257.872603" xlink:href="#mbdece85e51" y="90.811994"/>
     <use style="fill:#1f77b4;stroke:#ffffff;stroke-width:0.75;" x="261.440235" xlink:href="#mbdece85e51" y="91.778814"/>
     <use style="fill:#1f77b4;stroke:#ffffff;stroke-width:0.75;" x="265.007868" xlink:href="#mbdece85e51" y="90.704569"/>
     <use style="fill:#1f77b4;stroke:#ffffff;stroke-width:0.75;" x="268.5755" xlink:href="#mbdece85e51" y="90.650857"/>
     <use style="fill:#1f77b4;stroke:#ffffff;stroke-width:0.75;" x="272.143132" xlink:href="#mbdece85e51" y="90.00631"/>
     <use style="fill:#1f77b4;stroke:#ffffff;stroke-width:0.75;" x="275.710765" xlink:href="#mbdece85e51" y="89.254338"/>
     <use style="fill:#1f77b4;stroke:#ffffff;stroke-width:0.75;" x="279.278397" xlink:href="#mbdece85e51" y="89.952597"/>
     <use style="fill:#1f77b4;stroke:#ffffff;stroke-width:0.75;" x="282.84603" xlink:href="#mbdece85e51" y="85.655617"/>
     <use style="fill:#1f77b4;stroke:#ffffff;stroke-width:0.75;" x="286.413662" xlink:href="#mbdece85e51" y="86.353876"/>
     <use style="fill:#1f77b4;stroke:#ffffff;stroke-width:0.75;" x="289.981294" xlink:href="#mbdece85e51" y="85.763042"/>
     <use style="fill:#1f77b4;stroke:#ffffff;stroke-width:0.75;" x="293.548927" xlink:href="#mbdece85e51" y="85.01107"/>
     <use style="fill:#1f77b4;stroke:#ffffff;stroke-width:0.75;" x="297.116559" xlink:href="#mbdece85e51" y="84.796221"/>
     <use style="fill:#1f77b4;stroke:#ffffff;stroke-width:0.75;" x="300.684191" xlink:href="#mbdece85e51" y="81.466061"/>
     <use style="fill:#1f77b4;stroke:#ffffff;stroke-width:0.75;" x="304.251824" xlink:href="#mbdece85e51" y="76.846807"/>
     <use style="fill:#1f77b4;stroke:#ffffff;stroke-width:0.75;" x="307.819456" xlink:href="#mbdece85e51" y="76.846807"/>
     <use style="fill:#1f77b4;stroke:#ffffff;stroke-width:0.75;" x="311.387089" xlink:href="#mbdece85e51" y="71.797855"/>
     <use style="fill:#1f77b4;stroke:#ffffff;stroke-width:0.75;" x="314.954721" xlink:href="#mbdece85e51" y="68.736256"/>
     <use style="fill:#1f77b4;stroke:#ffffff;stroke-width:0.75;" x="318.522353" xlink:href="#mbdece85e51" y="68.57512"/>
     <use style="fill:#1f77b4;stroke:#ffffff;stroke-width:0.75;" x="322.089986" xlink:href="#mbdece85e51" y="70.831034"/>
     <use style="fill:#1f77b4;stroke:#ffffff;stroke-width:0.75;" x="325.657618" xlink:href="#mbdece85e51" y="65.459809"/>
     <use style="fill:#1f77b4;stroke:#ffffff;stroke-width:0.75;" x="329.22525" xlink:href="#mbdece85e51" y="68.037997"/>
     <use style="fill:#1f77b4;stroke:#ffffff;stroke-width:0.75;" x="332.792883" xlink:href="#mbdece85e51" y="68.037997"/>
     <use style="fill:#1f77b4;stroke:#ffffff;stroke-width:0.75;" x="336.360515" xlink:href="#mbdece85e51" y="64.707837"/>
     <use style="fill:#1f77b4;stroke:#ffffff;stroke-width:0.75;" x="339.928147" xlink:href="#mbdece85e51" y="61.807375"/>
     <use style="fill:#1f77b4;stroke:#ffffff;stroke-width:0.75;" x="343.49578" xlink:href="#mbdece85e51" y="61.592526"/>
     <use style="fill:#1f77b4;stroke:#ffffff;stroke-width:0.75;" x="347.063412" xlink:href="#mbdece85e51" y="61.592526"/>
     <use style="fill:#1f77b4;stroke:#ffffff;stroke-width:0.75;" x="350.631045" xlink:href="#mbdece85e51" y="61.646239"/>
     <use style="fill:#1f77b4;stroke:#ffffff;stroke-width:0.75;" x="354.198677" xlink:href="#mbdece85e51" y="59.658885"/>
     <use style="fill:#1f77b4;stroke:#ffffff;stroke-width:0.75;" x="357.766309" xlink:href="#mbdece85e51" y="60.625706"/>
     <use style="fill:#1f77b4;stroke:#ffffff;stroke-width:0.75;" x="361.333942" xlink:href="#mbdece85e51" y="60.518281"/>
     <use style="fill:#1f77b4;stroke:#ffffff;stroke-width:0.75;" x="364.901574" xlink:href="#mbdece85e51" y="60.518281"/>
     <use style="fill:#1f77b4;stroke:#ffffff;stroke-width:0.75;" x="368.469206" xlink:href="#mbdece85e51" y="60.088583"/>
     <use style="fill:#1f77b4;stroke:#ffffff;stroke-width:0.75;" x="372.036839" xlink:href="#mbdece85e51" y="60.088583"/>
     <use style="fill:#1f77b4;stroke:#ffffff;stroke-width:0.75;" x="375.604471" xlink:href="#mbdece85e51" y="60.088583"/>
     <use style="fill:#1f77b4;stroke:#ffffff;stroke-width:0.75;" x="379.172104" xlink:href="#mbdece85e51" y="60.088583"/>
     <use style="fill:#1f77b4;stroke:#ffffff;stroke-width:0.75;" x="382.739736" xlink:href="#mbdece85e51" y="59.282899"/>
     <use style="fill:#1f77b4;stroke:#ffffff;stroke-width:0.75;" x="386.307368" xlink:href="#mbdece85e51" y="58.745777"/>
     <use style="fill:#1f77b4;stroke:#ffffff;stroke-width:0.75;" x="389.875001" xlink:href="#mbdece85e51" y="58.154942"/>
     <use style="fill:#1f77b4;stroke:#ffffff;stroke-width:0.75;" x="393.442633" xlink:href="#mbdece85e51" y="56.167589"/>
     <use style="fill:#1f77b4;stroke:#ffffff;stroke-width:0.75;" x="397.010265" xlink:href="#mbdece85e51" y="58.262367"/>
     <use style="fill:#1f77b4;stroke:#ffffff;stroke-width:0.75;" x="400.577898" xlink:href="#mbdece85e51" y="56.113876"/>
    </g>
   </g>
   <g id="line2d_14">
    <path clip-path="url(#p2e2fae2361)" d="M 75.923352 250.229969 
L 79.490985 217.572917 
L 83.058617 189.105422 
L 86.626249 190.609365 
L 90.193882 192.220732 
L 93.761514 157.522615 
L 97.329146 172.40091 
L 100.896779 150.808583 
L 104.464411 161.121336 
L 108.032044 162.893841 
L 111.599676 145.705919 
L 115.167308 140.97924 
L 118.734941 140.280981 
L 122.302573 144.846523 
L 125.870205 148.928654 
L 129.437838 146.457891 
L 133.00547 151.882828 
L 136.573103 146.243042 
L 140.140735 142.64432 
L 143.708367 146.243042 
L 147.276 141.032953 
L 150.843632 141.032953 
L 154.411264 145.920768 
L 157.978897 139.045599 
L 161.546529 134.963468 
L 165.114161 134.963468 
L 168.681794 134.856043 
L 172.249426 134.909756 
L 175.817059 134.694907 
L 179.384691 121.965102 
L 182.952323 132.976114 
L 186.519956 131.633308 
L 190.087588 110.040981 
L 193.65522 131.633308 
L 197.222853 107.247944 
L 200.790485 112.189471 
L 204.358118 105.206878 
L 207.92575 105.905137 
L 211.493382 105.636576 
L 215.061015 82.647731 
L 218.628647 108.751887 
L 222.196279 101.876718 
L 225.763912 100.372775 
L 229.331544 88.126381 
L 232.899176 93.390182 
L 236.466809 84.581372 
L 240.034441 98.492846 
L 243.602074 86.944711 
L 247.169706 98.976256 
L 250.737338 89.630324 
L 254.304971 81.627198 
L 257.872603 82.218033 
L 261.440235 84.581372 
L 265.007868 84.581372 
L 268.5755 81.627198 
L 272.143132 84.581372 
L 275.710765 84.581372 
L 279.278397 86.837287 
L 282.84603 86.837287 
L 286.413662 86.837287 
L 289.981294 84.259098 
L 293.548927 87.320697 
L 297.116559 83.775688 
L 300.684191 87.320697 
L 304.251824 83.775688 
L 307.819456 83.775688 
L 311.387089 86.837287 
L 314.954721 86.837287 
L 318.522353 86.837287 
L 322.089986 83.775688 
L 325.657618 87.15956 
L 329.22525 80.714089 
L 332.792883 86.837287 
L 336.360515 86.837287 
L 339.928147 86.837287 
L 343.49578 86.837287 
L 347.063412 80.714089 
L 350.631045 83.775688 
L 354.198677 86.837287 
L 357.766309 83.775688 
L 361.333942 83.775688 
L 364.901574 86.837287 
L 368.469206 80.606665 
L 372.036839 80.606665 
L 375.604471 80.606665 
L 379.172104 83.721976 
L 382.739736 83.721976 
L 386.307368 83.721976 
L 389.875001 80.606665 
L 393.442633 86.837287 
L 397.010265 87.15956 
L 400.577898 83.560839 
" style="fill:none;stroke:#d62728;stroke-linecap:square;stroke-width:1.5;"/>
    <defs>
     <path d="M 0 -3 
L -3 3 
L 3 3 
z
" id="m4dd998ad18" style="stroke:#ffffff;stroke-linejoin:miter;stroke-width:0.75;"/>
    </defs>
    <g clip-path="url(#p2e2fae2361)">
     <use style="fill:#d62728;stroke:#ffffff;stroke-linejoin:miter;stroke-width:0.75;" x="75.923352" xlink:href="#m4dd998ad18" y="250.229969"/>
     <use style="fill:#d62728;stroke:#ffffff;stroke-linejoin:miter;stroke-width:0.75;" x="79.490985" xlink:href="#m4dd998ad18" y="217.572917"/>
     <use style="fill:#d62728;stroke:#ffffff;stroke-linejoin:miter;stroke-width:0.75;" x="83.058617" xlink:href="#m4dd998ad18" y="189.105422"/>
     <use style="fill:#d62728;stroke:#ffffff;stroke-linejoin:miter;stroke-width:0.75;" x="86.626249" xlink:href="#m4dd998ad18" y="190.609365"/>
     <use style="fill:#d62728;stroke:#ffffff;stroke-linejoin:miter;stroke-width:0.75;" x="90.193882" xlink:href="#m4dd998ad18" y="192.220732"/>
     <use style="fill:#d62728;stroke:#ffffff;stroke-linejoin:miter;stroke-width:0.75;" x="93.761514" xlink:href="#m4dd998ad18" y="157.522615"/>
     <use style="fill:#d62728;stroke:#ffffff;stroke-linejoin:miter;stroke-width:0.75;" x="97.329146" xlink:href="#m4dd998ad18" y="172.40091"/>
     <use style="fill:#d62728;stroke:#ffffff;stroke-linejoin:miter;stroke-width:0.75;" x="100.896779" xlink:href="#m4dd998ad18" y="150.808583"/>
     <use style="fill:#d62728;stroke:#ffffff;stroke-linejoin:miter;stroke-width:0.75;" x="104.464411" xlink:href="#m4dd998ad18" y="161.121336"/>
     <use style="fill:#d62728;stroke:#ffffff;stroke-linejoin:miter;stroke-width:0.75;" x="108.032044" xlink:href="#m4dd998ad18" y="162.893841"/>
     <use style="fill:#d62728;stroke:#ffffff;stroke-linejoin:miter;stroke-width:0.75;" x="111.599676" xlink:href="#m4dd998ad18" y="145.705919"/>
     <use style="fill:#d62728;stroke:#ffffff;stroke-linejoin:miter;stroke-width:0.75;" x="115.167308" xlink:href="#m4dd998ad18" y="140.97924"/>
     <use style="fill:#d62728;stroke:#ffffff;stroke-linejoin:miter;stroke-width:0.75;" x="118.734941" xlink:href="#m4dd998ad18" y="140.280981"/>
     <use style="fill:#d62728;stroke:#ffffff;stroke-linejoin:miter;stroke-width:0.75;" x="122.302573" xlink:href="#m4dd998ad18" y="144.846523"/>
     <use style="fill:#d62728;stroke:#ffffff;stroke-linejoin:miter;stroke-width:0.75;" x="125.870205" xlink:href="#m4dd998ad18" y="148.928654"/>
     <use style="fill:#d62728;stroke:#ffffff;stroke-linejoin:miter;stroke-width:0.75;" x="129.437838" xlink:href="#m4dd998ad18" y="146.457891"/>
     <use style="fill:#d62728;stroke:#ffffff;stroke-linejoin:miter;stroke-width:0.75;" x="133.00547" xlink:href="#m4dd998ad18" y="151.882828"/>
     <use style="fill:#d62728;stroke:#ffffff;stroke-linejoin:miter;stroke-width:0.75;" x="136.573103" xlink:href="#m4dd998ad18" y="146.243042"/>
     <use style="fill:#d62728;stroke:#ffffff;stroke-linejoin:miter;stroke-width:0.75;" x="140.140735" xlink:href="#m4dd998ad18" y="142.64432"/>
     <use style="fill:#d62728;stroke:#ffffff;stroke-linejoin:miter;stroke-width:0.75;" x="143.708367" xlink:href="#m4dd998ad18" y="146.243042"/>
     <use style="fill:#d62728;stroke:#ffffff;stroke-linejoin:miter;stroke-width:0.75;" x="147.276" xlink:href="#m4dd998ad18" y="141.032953"/>
     <use style="fill:#d62728;stroke:#ffffff;stroke-linejoin:miter;stroke-width:0.75;" x="150.843632" xlink:href="#m4dd998ad18" y="141.032953"/>
     <use style="fill:#d62728;stroke:#ffffff;stroke-linejoin:miter;stroke-width:0.75;" x="154.411264" xlink:href="#m4dd998ad18" y="145.920768"/>
     <use style="fill:#d62728;stroke:#ffffff;stroke-linejoin:miter;stroke-width:0.75;" x="157.978897" xlink:href="#m4dd998ad18" y="139.045599"/>
     <use style="fill:#d62728;stroke:#ffffff;stroke-linejoin:miter;stroke-width:0.75;" x="161.546529" xlink:href="#m4dd998ad18" y="134.963468"/>
     <use style="fill:#d62728;stroke:#ffffff;stroke-linejoin:miter;stroke-width:0.75;" x="165.114161" xlink:href="#m4dd998ad18" y="134.963468"/>
     <use style="fill:#d62728;stroke:#ffffff;stroke-linejoin:miter;stroke-width:0.75;" x="168.681794" xlink:href="#m4dd998ad18" y="134.856043"/>
     <use style="fill:#d62728;stroke:#ffffff;stroke-linejoin:miter;stroke-width:0.75;" x="172.249426" xlink:href="#m4dd998ad18" y="134.909756"/>
     <use style="fill:#d62728;stroke:#ffffff;stroke-linejoin:miter;stroke-width:0.75;" x="175.817059" xlink:href="#m4dd998ad18" y="134.694907"/>
     <use style="fill:#d62728;stroke:#ffffff;stroke-linejoin:miter;stroke-width:0.75;" x="179.384691" xlink:href="#m4dd998ad18" y="121.965102"/>
     <use style="fill:#d62728;stroke:#ffffff;stroke-linejoin:miter;stroke-width:0.75;" x="182.952323" xlink:href="#m4dd998ad18" y="132.976114"/>
     <use style="fill:#d62728;stroke:#ffffff;stroke-linejoin:miter;stroke-width:0.75;" x="186.519956" xlink:href="#m4dd998ad18" y="131.633308"/>
     <use style="fill:#d62728;stroke:#ffffff;stroke-linejoin:miter;stroke-width:0.75;" x="190.087588" xlink:href="#m4dd998ad18" y="110.040981"/>
     <use style="fill:#d62728;stroke:#ffffff;stroke-linejoin:miter;stroke-width:0.75;" x="193.65522" xlink:href="#m4dd998ad18" y="131.633308"/>
     <use style="fill:#d62728;stroke:#ffffff;stroke-linejoin:miter;stroke-width:0.75;" x="197.222853" xlink:href="#m4dd998ad18" y="107.247944"/>
     <use style="fill:#d62728;stroke:#ffffff;stroke-linejoin:miter;stroke-width:0.75;" x="200.790485" xlink:href="#m4dd998ad18" y="112.189471"/>
     <use style="fill:#d62728;stroke:#ffffff;stroke-linejoin:miter;stroke-width:0.75;" x="204.358118" xlink:href="#m4dd998ad18" y="105.206878"/>
     <use style="fill:#d62728;stroke:#ffffff;stroke-linejoin:miter;stroke-width:0.75;" x="207.92575" xlink:href="#m4dd998ad18" y="105.905137"/>
     <use style="fill:#d62728;stroke:#ffffff;stroke-linejoin:miter;stroke-width:0.75;" x="211.493382" xlink:href="#m4dd998ad18" y="105.636576"/>
     <use style="fill:#d62728;stroke:#ffffff;stroke-linejoin:miter;stroke-width:0.75;" x="215.061015" xlink:href="#m4dd998ad18" y="82.647731"/>
     <use style="fill:#d62728;stroke:#ffffff;stroke-linejoin:miter;stroke-width:0.75;" x="218.628647" xlink:href="#m4dd998ad18" y="108.751887"/>
     <use style="fill:#d62728;stroke:#ffffff;stroke-linejoin:miter;stroke-width:0.75;" x="222.196279" xlink:href="#m4dd998ad18" y="101.876718"/>
     <use style="fill:#d62728;stroke:#ffffff;stroke-linejoin:miter;stroke-width:0.75;" x="225.763912" xlink:href="#m4dd998ad18" y="100.372775"/>
     <use style="fill:#d62728;stroke:#ffffff;stroke-linejoin:miter;stroke-width:0.75;" x="229.331544" xlink:href="#m4dd998ad18" y="88.126381"/>
     <use style="fill:#d62728;stroke:#ffffff;stroke-linejoin:miter;stroke-width:0.75;" x="232.899176" xlink:href="#m4dd998ad18" y="93.390182"/>
     <use style="fill:#d62728;stroke:#ffffff;stroke-linejoin:miter;stroke-width:0.75;" x="236.466809" xlink:href="#m4dd998ad18" y="84.581372"/>
     <use style="fill:#d62728;stroke:#ffffff;stroke-linejoin:miter;stroke-width:0.75;" x="240.034441" xlink:href="#m4dd998ad18" y="98.492846"/>
     <use style="fill:#d62728;stroke:#ffffff;stroke-linejoin:miter;stroke-width:0.75;" x="243.602074" xlink:href="#m4dd998ad18" y="86.944711"/>
     <use style="fill:#d62728;stroke:#ffffff;stroke-linejoin:miter;stroke-width:0.75;" x="247.169706" xlink:href="#m4dd998ad18" y="98.976256"/>
     <use style="fill:#d62728;stroke:#ffffff;stroke-linejoin:miter;stroke-width:0.75;" x="250.737338" xlink:href="#m4dd998ad18" y="89.630324"/>
     <use style="fill:#d62728;stroke:#ffffff;stroke-linejoin:miter;stroke-width:0.75;" x="254.304971" xlink:href="#m4dd998ad18" y="81.627198"/>
     <use style="fill:#d62728;stroke:#ffffff;stroke-linejoin:miter;stroke-width:0.75;" x="257.872603" xlink:href="#m4dd998ad18" y="82.218033"/>
     <use style="fill:#d62728;stroke:#ffffff;stroke-linejoin:miter;stroke-width:0.75;" x="261.440235" xlink:href="#m4dd998ad18" y="84.581372"/>
     <use style="fill:#d62728;stroke:#ffffff;stroke-linejoin:miter;stroke-width:0.75;" x="265.007868" xlink:href="#m4dd998ad18" y="84.581372"/>
     <use style="fill:#d62728;stroke:#ffffff;stroke-linejoin:miter;stroke-width:0.75;" x="268.5755" xlink:href="#m4dd998ad18" y="81.627198"/>
     <use style="fill:#d62728;stroke:#ffffff;stroke-linejoin:miter;stroke-width:0.75;" x="272.143132" xlink:href="#m4dd998ad18" y="84.581372"/>
     <use style="fill:#d62728;stroke:#ffffff;stroke-linejoin:miter;stroke-width:0.75;" x="275.710765" xlink:href="#m4dd998ad18" y="84.581372"/>
     <use style="fill:#d62728;stroke:#ffffff;stroke-linejoin:miter;stroke-width:0.75;" x="279.278397" xlink:href="#m4dd998ad18" y="86.837287"/>
     <use style="fill:#d62728;stroke:#ffffff;stroke-linejoin:miter;stroke-width:0.75;" x="282.84603" xlink:href="#m4dd998ad18" y="86.837287"/>
     <use style="fill:#d62728;stroke:#ffffff;stroke-linejoin:miter;stroke-width:0.75;" x="286.413662" xlink:href="#m4dd998ad18" y="86.837287"/>
     <use style="fill:#d62728;stroke:#ffffff;stroke-linejoin:miter;stroke-width:0.75;" x="289.981294" xlink:href="#m4dd998ad18" y="84.259098"/>
     <use style="fill:#d62728;stroke:#ffffff;stroke-linejoin:miter;stroke-width:0.75;" x="293.548927" xlink:href="#m4dd998ad18" y="87.320697"/>
     <use style="fill:#d62728;stroke:#ffffff;stroke-linejoin:miter;stroke-width:0.75;" x="297.116559" xlink:href="#m4dd998ad18" y="83.775688"/>
     <use style="fill:#d62728;stroke:#ffffff;stroke-linejoin:miter;stroke-width:0.75;" x="300.684191" xlink:href="#m4dd998ad18" y="87.320697"/>
     <use style="fill:#d62728;stroke:#ffffff;stroke-linejoin:miter;stroke-width:0.75;" x="304.251824" xlink:href="#m4dd998ad18" y="83.775688"/>
     <use style="fill:#d62728;stroke:#ffffff;stroke-linejoin:miter;stroke-width:0.75;" x="307.819456" xlink:href="#m4dd998ad18" y="83.775688"/>
     <use style="fill:#d62728;stroke:#ffffff;stroke-linejoin:miter;stroke-width:0.75;" x="311.387089" xlink:href="#m4dd998ad18" y="86.837287"/>
     <use style="fill:#d62728;stroke:#ffffff;stroke-linejoin:miter;stroke-width:0.75;" x="314.954721" xlink:href="#m4dd998ad18" y="86.837287"/>
     <use style="fill:#d62728;stroke:#ffffff;stroke-linejoin:miter;stroke-width:0.75;" x="318.522353" xlink:href="#m4dd998ad18" y="86.837287"/>
     <use style="fill:#d62728;stroke:#ffffff;stroke-linejoin:miter;stroke-width:0.75;" x="322.089986" xlink:href="#m4dd998ad18" y="83.775688"/>
     <use style="fill:#d62728;stroke:#ffffff;stroke-linejoin:miter;stroke-width:0.75;" x="325.657618" xlink:href="#m4dd998ad18" y="87.15956"/>
     <use style="fill:#d62728;stroke:#ffffff;stroke-linejoin:miter;stroke-width:0.75;" x="329.22525" xlink:href="#m4dd998ad18" y="80.714089"/>
     <use style="fill:#d62728;stroke:#ffffff;stroke-linejoin:miter;stroke-width:0.75;" x="332.792883" xlink:href="#m4dd998ad18" y="86.837287"/>
     <use style="fill:#d62728;stroke:#ffffff;stroke-linejoin:miter;stroke-width:0.75;" x="336.360515" xlink:href="#m4dd998ad18" y="86.837287"/>
     <use style="fill:#d62728;stroke:#ffffff;stroke-linejoin:miter;stroke-width:0.75;" x="339.928147" xlink:href="#m4dd998ad18" y="86.837287"/>
     <use style="fill:#d62728;stroke:#ffffff;stroke-linejoin:miter;stroke-width:0.75;" x="343.49578" xlink:href="#m4dd998ad18" y="86.837287"/>
     <use style="fill:#d62728;stroke:#ffffff;stroke-linejoin:miter;stroke-width:0.75;" x="347.063412" xlink:href="#m4dd998ad18" y="80.714089"/>
     <use style="fill:#d62728;stroke:#ffffff;stroke-linejoin:miter;stroke-width:0.75;" x="350.631045" xlink:href="#m4dd998ad18" y="83.775688"/>
     <use style="fill:#d62728;stroke:#ffffff;stroke-linejoin:miter;stroke-width:0.75;" x="354.198677" xlink:href="#m4dd998ad18" y="86.837287"/>
     <use style="fill:#d62728;stroke:#ffffff;stroke-linejoin:miter;stroke-width:0.75;" x="357.766309" xlink:href="#m4dd998ad18" y="83.775688"/>
     <use style="fill:#d62728;stroke:#ffffff;stroke-linejoin:miter;stroke-width:0.75;" x="361.333942" xlink:href="#m4dd998ad18" y="83.775688"/>
     <use style="fill:#d62728;stroke:#ffffff;stroke-linejoin:miter;stroke-width:0.75;" x="364.901574" xlink:href="#m4dd998ad18" y="86.837287"/>
     <use style="fill:#d62728;stroke:#ffffff;stroke-linejoin:miter;stroke-width:0.75;" x="368.469206" xlink:href="#m4dd998ad18" y="80.606665"/>
     <use style="fill:#d62728;stroke:#ffffff;stroke-linejoin:miter;stroke-width:0.75;" x="372.036839" xlink:href="#m4dd998ad18" y="80.606665"/>
     <use style="fill:#d62728;stroke:#ffffff;stroke-linejoin:miter;stroke-width:0.75;" x="375.604471" xlink:href="#m4dd998ad18" y="80.606665"/>
     <use style="fill:#d62728;stroke:#ffffff;stroke-linejoin:miter;stroke-width:0.75;" x="379.172104" xlink:href="#m4dd998ad18" y="83.721976"/>
     <use style="fill:#d62728;stroke:#ffffff;stroke-linejoin:miter;stroke-width:0.75;" x="382.739736" xlink:href="#m4dd998ad18" y="83.721976"/>
     <use style="fill:#d62728;stroke:#ffffff;stroke-linejoin:miter;stroke-width:0.75;" x="386.307368" xlink:href="#m4dd998ad18" y="83.721976"/>
     <use style="fill:#d62728;stroke:#ffffff;stroke-linejoin:miter;stroke-width:0.75;" x="389.875001" xlink:href="#m4dd998ad18" y="80.606665"/>
     <use style="fill:#d62728;stroke:#ffffff;stroke-linejoin:miter;stroke-width:0.75;" x="393.442633" xlink:href="#m4dd998ad18" y="86.837287"/>
     <use style="fill:#d62728;stroke:#ffffff;stroke-linejoin:miter;stroke-width:0.75;" x="397.010265" xlink:href="#m4dd998ad18" y="87.15956"/>
     <use style="fill:#d62728;stroke:#ffffff;stroke-linejoin:miter;stroke-width:0.75;" x="400.577898" xlink:href="#m4dd998ad18" y="83.560839"/>
    </g>
   </g>
   <g id="line2d_15"/>
   <g id="line2d_16"/>
   <g id="line2d_17"/>
   <g id="patch_3">
    <path d="M 59.690625 269.673805 
L 59.690625 54.824782 
" style="fill:none;stroke:#000000;stroke-linecap:square;stroke-linejoin:miter;stroke-width:0.8;"/>
   </g>
   <g id="patch_4">
    <path d="M 75.923352 288.430125 
L 349.441834 288.430125 
" style="fill:none;stroke:#000000;stroke-linecap:square;stroke-linejoin:miter;stroke-width:0.8;"/>
   </g>
   <g id="text_14">
    <!-- php_php-fuzz-parser-2020-07-25 (23h, 12 trials/fuzzer) -->
    <g transform="translate(73.249688 16.318125)scale(0.12 -0.12)">
     <defs>
      <path d="M 1159 525 
L 1159 -1331 
L 581 -1331 
L 581 3500 
L 1159 3500 
L 1159 2969 
Q 1341 3281 1617 3432 
Q 1894 3584 2278 3584 
Q 2916 3584 3314 3078 
Q 3713 2572 3713 1747 
Q 3713 922 3314 415 
Q 2916 -91 2278 -91 
Q 1894 -91 1617 61 
Q 1341 213 1159 525 
z
M 3116 1747 
Q 3116 2381 2855 2742 
Q 2594 3103 2138 3103 
Q 1681 3103 1420 2742 
Q 1159 2381 1159 1747 
Q 1159 1113 1420 752 
Q 1681 391 2138 391 
Q 2594 391 2855 752 
Q 3116 1113 3116 1747 
z
" id="DejaVuSans-70" transform="scale(0.015625)"/>
      <path d="M 3263 -1063 
L 3263 -1509 
L -63 -1509 
L -63 -1063 
L 3263 -1063 
z
" id="DejaVuSans-5f" transform="scale(0.015625)"/>
      <path d="M 313 2009 
L 1997 2009 
L 1997 1497 
L 313 1497 
L 313 2009 
z
" id="DejaVuSans-2d" transform="scale(0.015625)"/>
      <path d="M 2375 4863 
L 2375 4384 
L 1825 4384 
Q 1516 4384 1395 4259 
Q 1275 4134 1275 3809 
L 1275 3500 
L 2222 3500 
L 2222 3053 
L 1275 3053 
L 1275 0 
L 697 0 
L 697 3053 
L 147 3053 
L 147 3500 
L 697 3500 
L 697 3744 
Q 697 4328 969 4595 
Q 1241 4863 1831 4863 
L 2375 4863 
z
" id="DejaVuSans-66" transform="scale(0.015625)"/>
      <path d="M 353 3500 
L 3084 3500 
L 3084 2975 
L 922 459 
L 3084 459 
L 3084 0 
L 275 0 
L 275 525 
L 2438 3041 
L 353 3041 
L 353 3500 
z
" id="DejaVuSans-7a" transform="scale(0.015625)"/>
      <path d="M 2834 3397 
L 2834 2853 
Q 2591 2978 2328 3040 
Q 2066 3103 1784 3103 
Q 1356 3103 1142 2972 
Q 928 2841 928 2578 
Q 928 2378 1081 2264 
Q 1234 2150 1697 2047 
L 1894 2003 
Q 2506 1872 2764 1633 
Q 3022 1394 3022 966 
Q 3022 478 2636 193 
Q 2250 -91 1575 -91 
Q 1294 -91 989 -36 
Q 684 19 347 128 
L 347 722 
Q 666 556 975 473 
Q 1284 391 1588 391 
Q 1994 391 2212 530 
Q 2431 669 2431 922 
Q 2431 1156 2273 1281 
Q 2116 1406 1581 1522 
L 1381 1569 
Q 847 1681 609 1914 
Q 372 2147 372 2553 
Q 372 3047 722 3315 
Q 1072 3584 1716 3584 
Q 2034 3584 2315 3537 
Q 2597 3491 2834 3397 
z
" id="DejaVuSans-73" transform="scale(0.015625)"/>
      <path d="M 750 794 
L 1409 794 
L 1409 256 
L 897 -744 
L 494 -744 
L 750 256 
L 750 794 
z
" id="DejaVuSans-2c" transform="scale(0.015625)"/>
      <path d="M 603 4863 
L 1178 4863 
L 1178 0 
L 603 0 
L 603 4863 
z
" id="DejaVuSans-6c" transform="scale(0.015625)"/>
      <path d="M 1625 4666 
L 2156 4666 
L 531 -594 
L 0 -594 
L 1625 4666 
z
" id="DejaVuSans-2f" transform="scale(0.015625)"/>
     </defs>
     <use xlink:href="#DejaVuSans-70"/>
     <use x="63.476562" xlink:href="#DejaVuSans-68"/>
     <use x="126.855469" xlink:href="#DejaVuSans-70"/>
     <use x="190.332031" xlink:href="#DejaVuSans-5f"/>
     <use x="240.332031" xlink:href="#DejaVuSans-70"/>
     <use x="303.808594" xlink:href="#DejaVuSans-68"/>
     <use x="367.1875" xlink:href="#DejaVuSans-70"/>
     <use x="430.664062" xlink:href="#DejaVuSans-2d"/>
     <use x="466.748047" xlink:href="#DejaVuSans-66"/>
     <use x="501.953125" xlink:href="#DejaVuSans-75"/>
     <use x="565.332031" xlink:href="#DejaVuSans-7a"/>
     <use x="617.822266" xlink:href="#DejaVuSans-7a"/>
     <use x="670.3125" xlink:href="#DejaVuSans-2d"/>
     <use x="706.396484" xlink:href="#DejaVuSans-70"/>
     <use x="769.873047" xlink:href="#DejaVuSans-61"/>
     <use x="831.152344" xlink:href="#DejaVuSans-72"/>
     <use x="872.265625" xlink:href="#DejaVuSans-73"/>
     <use x="924.365234" xlink:href="#DejaVuSans-65"/>
     <use x="985.888672" xlink:href="#DejaVuSans-72"/>
     <use x="1020.626953" xlink:href="#DejaVuSans-2d"/>
     <use x="1056.710938" xlink:href="#DejaVuSans-32"/>
     <use x="1120.333984" xlink:href="#DejaVuSans-30"/>
     <use x="1183.957031" xlink:href="#DejaVuSans-32"/>
     <use x="1247.580078" xlink:href="#DejaVuSans-30"/>
     <use x="1311.203125" xlink:href="#DejaVuSans-2d"/>
     <use x="1347.287109" xlink:href="#DejaVuSans-30"/>
     <use x="1410.910156" xlink:href="#DejaVuSans-37"/>
     <use x="1474.533203" xlink:href="#DejaVuSans-2d"/>
     <use x="1510.617188" xlink:href="#DejaVuSans-32"/>
     <use x="1574.240234" xlink:href="#DejaVuSans-35"/>
     <use x="1637.863281" xlink:href="#DejaVuSans-20"/>
     <use x="1669.650391" xlink:href="#DejaVuSans-28"/>
     <use x="1708.664062" xlink:href="#DejaVuSans-32"/>
     <use x="1772.287109" xlink:href="#DejaVuSans-33"/>
     <use x="1835.910156" xlink:href="#DejaVuSans-68"/>
     <use x="1899.289062" xlink:href="#DejaVuSans-2c"/>
     <use x="1931.076172" xlink:href="#DejaVuSans-20"/>
     <use x="1962.863281" xlink:href="#DejaVuSans-31"/>
     <use x="2026.486328" xlink:href="#DejaVuSans-32"/>
     <use x="2090.109375" xlink:href="#DejaVuSans-20"/>
     <use x="2121.896484" xlink:href="#DejaVuSans-74"/>
     <use x="2161.105469" xlink:href="#DejaVuSans-72"/>
     <use x="2202.21875" xlink:href="#DejaVuSans-69"/>
     <use x="2230.001953" xlink:href="#DejaVuSans-61"/>
     <use x="2291.28125" xlink:href="#DejaVuSans-6c"/>
     <use x="2319.064453" xlink:href="#DejaVuSans-73"/>
     <use x="2371.164062" xlink:href="#DejaVuSans-2f"/>
     <use x="2404.855469" xlink:href="#DejaVuSans-66"/>
     <use x="2440.060547" xlink:href="#DejaVuSans-75"/>
     <use x="2503.439453" xlink:href="#DejaVuSans-7a"/>
     <use x="2555.929688" xlink:href="#DejaVuSans-7a"/>
     <use x="2608.419922" xlink:href="#DejaVuSans-65"/>
     <use x="2669.943359" xlink:href="#DejaVuSans-72"/>
     <use x="2711.056641" xlink:href="#DejaVuSans-29"/>
    </g>
   </g>
   <g id="legend_1">
    <g id="line2d_18">
     <path d="M 420.810625 30.416562 
L 440.810625 30.416562 
" style="fill:none;stroke:#98df8a;stroke-linecap:square;stroke-width:1.5;"/>
    </g>
    <g id="line2d_19">
     <defs>
      <path d="M -0 3 
L 3 -3 
L -3 -3 
z
" id="maa178941c8" style="stroke:#98df8a;stroke-linejoin:miter;"/>
     </defs>
     <g>
      <use style="fill:#98df8a;stroke:#98df8a;stroke-linejoin:miter;" x="430.810625" xlink:href="#maa178941c8" y="30.416562"/>
     </g>
    </g>
    <g id="text_15">
     <!-- afl_no_favfactor -->
     <g transform="translate(448.810625 33.916562)scale(0.1 -0.1)">
      <use xlink:href="#DejaVuSans-61"/>
      <use x="61.279297" xlink:href="#DejaVuSans-66"/>
      <use x="96.484375" xlink:href="#DejaVuSans-6c"/>
      <use x="124.267578" xlink:href="#DejaVuSans-5f"/>
      <use x="174.267578" xlink:href="#DejaVuSans-6e"/>
      <use x="237.646484" xlink:href="#DejaVuSans-6f"/>
      <use x="298.828125" xlink:href="#DejaVuSans-5f"/>
      <use x="348.828125" xlink:href="#DejaVuSans-66"/>
      <use x="384.033203" xlink:href="#DejaVuSans-61"/>
      <use x="445.3125" xlink:href="#DejaVuSans-76"/>
      <use x="504.492188" xlink:href="#DejaVuSans-66"/>
      <use x="539.697266" xlink:href="#DejaVuSans-61"/>
      <use x="600.976562" xlink:href="#DejaVuSans-63"/>
      <use x="655.957031" xlink:href="#DejaVuSans-74"/>
      <use x="695.166016" xlink:href="#DejaVuSans-6f"/>
      <use x="756.347656" xlink:href="#DejaVuSans-72"/>
     </g>
    </g>
    <g id="line2d_20">
     <path d="M 420.810625 45.372813 
L 440.810625 45.372813 
" style="fill:none;stroke:#1f77b4;stroke-linecap:square;stroke-width:1.5;"/>
    </g>
    <g id="line2d_21">
     <defs>
      <path d="M 0 3 
C 0.795609 3 1.55874 2.683901 2.12132 2.12132 
C 2.683901 1.55874 3 0.795609 3 0 
C 3 -0.795609 2.683901 -1.55874 2.12132 -2.12132 
C 1.55874 -2.683901 0.795609 -3 0 -3 
C -0.795609 -3 -1.55874 -2.683901 -2.12132 -2.12132 
C -2.683901 -1.55874 -3 -0.795609 -3 0 
C -3 0.795609 -2.683901 1.55874 -2.12132 2.12132 
C -1.55874 2.683901 -0.795609 3 0 3 
z
" id="m37b074541f" style="stroke:#1f77b4;"/>
     </defs>
     <g>
      <use style="fill:#1f77b4;stroke:#1f77b4;" x="430.810625" xlink:href="#m37b074541f" y="45.372813"/>
     </g>
    </g>
    <g id="text_16">
     <!-- afl -->
     <g transform="translate(448.810625 48.872813)scale(0.1 -0.1)">
      <use xlink:href="#DejaVuSans-61"/>
      <use x="61.279297" xlink:href="#DejaVuSans-66"/>
      <use x="96.484375" xlink:href="#DejaVuSans-6c"/>
     </g>
    </g>
    <g id="line2d_22">
     <path d="M 420.810625 60.050937 
L 440.810625 60.050937 
" style="fill:none;stroke:#d62728;stroke-linecap:square;stroke-width:1.5;"/>
    </g>
    <g id="line2d_23">
     <defs>
      <path d="M 0 -3 
L -3 3 
L 3 3 
z
" id="m3c47631ade" style="stroke:#d62728;stroke-linejoin:miter;"/>
     </defs>
     <g>
      <use style="fill:#d62728;stroke:#d62728;stroke-linejoin:miter;" x="430.810625" xlink:href="#m3c47631ade" y="60.050937"/>
     </g>
    </g>
    <g id="text_17">
     <!-- afl_no_favored -->
     <g transform="translate(448.810625 63.550937)scale(0.1 -0.1)">
      <use xlink:href="#DejaVuSans-61"/>
      <use x="61.279297" xlink:href="#DejaVuSans-66"/>
      <use x="96.484375" xlink:href="#DejaVuSans-6c"/>
      <use x="124.267578" xlink:href="#DejaVuSans-5f"/>
      <use x="174.267578" xlink:href="#DejaVuSans-6e"/>
      <use x="237.646484" xlink:href="#DejaVuSans-6f"/>
      <use x="298.828125" xlink:href="#DejaVuSans-5f"/>
      <use x="348.828125" xlink:href="#DejaVuSans-66"/>
      <use x="384.033203" xlink:href="#DejaVuSans-61"/>
      <use x="445.3125" xlink:href="#DejaVuSans-76"/>
      <use x="504.492188" xlink:href="#DejaVuSans-6f"/>
      <use x="565.673828" xlink:href="#DejaVuSans-72"/>
      <use x="604.537109" xlink:href="#DejaVuSans-65"/>
      <use x="666.060547" xlink:href="#DejaVuSans-64"/>
     </g>
    </g>
   </g>
  </g>
 </g>
 <defs>
  <clipPath id="p2e2fae2361">
   <rect height="266.112" width="357.12" x="59.690625" y="22.318125"/>
  </clipPath>
 </defs>
</svg>
