<?xml version="1.0" encoding="utf-8" standalone="no"?>
<!DOCTYPE svg PUBLIC "-//W3C//DTD SVG 1.1//EN"
  "http://www.w3.org/Graphics/SVG/1.1/DTD/svg11.dtd">
<svg height="325.986375pt" version="1.1" viewBox="0 0 539.7575 325.986375" width="539.7575pt" xmlns="http://www.w3.org/2000/svg" xmlns:xlink="http://www.w3.org/1999/xlink">
 <metadata>
  <rdf:RDF xmlns:cc="http://creativecommons.org/ns#" xmlns:dc="http://purl.org/dc/elements/1.1/" xmlns:rdf="http://www.w3.org/1999/02/22-rdf-syntax-ns#">
   <cc:Work>
    <dc:type rdf:resource="http://purl.org/dc/dcmitype/StillImage"/>
    <dc:date>2022-05-24T15:47:56.632732</dc:date>
    <dc:format>image/svg+xml</dc:format>
    <dc:creator>
     <cc:Agent>
      <dc:title>Matplotlib v3.4.3, https://matplotlib.org/</dc:title>
     </cc:Agent>
    </dc:creator>
   </cc:Work>
  </rdf:RDF>
 </metadata>
 <defs>
  <style type="text/css">*{stroke-linecap:butt;stroke-linejoin:round;}</style>
 </defs>
 <g id="figure_1">
  <g id="patch_1">
   <path d="M 0 325.986375 
L 539.7575 325.986375 
L 539.7575 0 
L 0 0 
z
" style="fill:#ffffff;"/>
  </g>
  <g id="axes_1">
   <g id="patch_2">
    <path d="M 59.690625 288.430125 
L 416.810625 288.430125 
L 416.810625 22.318125 
L 59.690625 22.318125 
z
" style="fill:#ffffff;"/>
   </g>
   <g id="PolyCollection_1">
    <defs>
     <path d="M 75.923352 -70.833572 
L 75.923352 -52.383175 
L 79.490985 -81.557448 
L 83.058617 -89.816831 
L 86.626249 -101.006964 
L 90.193882 -116.126964 
L 93.761514 -122.188285 
L 97.329146 -133.977889 
L 100.896779 -138.571338 
L 104.464411 -141.071633 
L 108.032044 -143.90247 
L 111.599676 -147.532602 
L 115.167308 -154.926083 
L 118.734941 -163.984761 
L 122.302573 -170.479034 
L 125.870205 -173.642911 
L 129.437838 -178.205554 
L 133.00547 -180.403616 
L 136.573103 -180.903175 
L 140.140735 -185.599034 
L 143.708367 -187.66388 
L 147.276 -190.528021 
L 150.843632 -193.325554 
L 154.411264 -194.624409 
L 157.978897 -198.787404 
L 161.546529 -201.549135 
L 165.114161 -201.385113 
L 168.681794 -205.115157 
L 172.249426 -206.447316 
L 175.817059 -207.712867 
L 179.384691 -208.645378 
L 182.952323 -209.178241 
L 186.519956 -211.243087 
L 190.087588 -214.04062 
L 193.65522 -214.173836 
L 197.222853 -216.838153 
L 200.790485 -217.171193 
L 204.358118 -217.637448 
L 207.92575 -217.970488 
L 211.493382 -218.703175 
L 215.061015 -223.898594 
L 218.628647 -227.695246 
L 222.196279 -228.694365 
L 225.763912 -232.624232 
L 229.331544 -233.889783 
L 232.899176 -236.221061 
L 236.466809 -236.5541 
L 240.034441 -238.219298 
L 243.602074 -241.949343 
L 247.169706 -243.148285 
L 250.737338 -244.746876 
L 254.304971 -245.079915 
L 257.872603 -246.944937 
L 261.440235 -247.411193 
L 265.007868 -247.544409 
L 268.5755 -248.077272 
L 272.143132 -250.475157 
L 275.710765 -252.206964 
L 279.278397 -252.939651 
L 282.84603 -257.13595 
L 286.413662 -259.134188 
L 289.981294 -260.000091 
L 293.548927 -259.334012 
L 297.116559 -260.932602 
L 300.684191 -261.598682 
L 304.251824 -262.731017 
L 307.819456 -262.864232 
L 311.387089 -263.130664 
L 314.954721 -263.197272 
L 318.522353 -263.26388 
L 322.089986 -265.661765 
L 325.657618 -265.661765 
L 329.22525 -266.394453 
L 332.792883 -266.594276 
L 336.360515 -269.391809 
L 339.928147 -271.789695 
L 343.49578 -271.789695 
L 347.063412 -272.056127 
L 350.631045 -272.189343 
L 354.198677 -273.121854 
L 357.766309 -273.188461 
L 361.333942 -273.588109 
L 364.901574 -273.987757 
L 368.469206 -274.45318 
L 372.036839 -275.453131 
L 375.604471 -275.852779 
L 379.172104 -275.852779 
L 382.739736 -276.11921 
L 386.307368 -277.451369 
L 389.875001 -277.384761 
L 393.442633 -278.368893 
L 397.010265 -278.38388 
L 400.577898 -280.182294 
L 400.577898 -291.57225 
L 400.577898 -291.57225 
L 397.010265 -291.57225 
L 393.442633 -291.23921 
L 389.875001 -291.172602 
L 386.307368 -287.442558 
L 382.739736 -285.211193 
L 379.172104 -286.709871 
L 375.604471 -286.709871 
L 372.036839 -286.177008 
L 368.469206 -285.77736 
L 364.901574 -285.710752 
L 361.333942 -285.710752 
L 357.766309 -283.912338 
L 354.198677 -283.179651 
L 350.631045 -281.980708 
L 347.063412 -281.980708 
L 343.49578 -281.9141 
L 339.928147 -280.581942 
L 336.360515 -280.382118 
L 332.792883 -280.182294 
L 329.22525 -279.516215 
L 325.657618 -279.516215 
L 322.089986 -279.382999 
L 318.522353 -278.650312 
L 314.954721 -278.117448 
L 311.387089 -277.984232 
L 307.819456 -276.78529 
L 304.251824 -276.385642 
L 300.684191 -274.254188 
L 297.116559 -275.319915 
L 293.548927 -274.120972 
L 289.981294 -273.787933 
L 286.413662 -272.522382 
L 282.84603 -270.9904 
L 279.278397 -270.723968 
L 275.710765 -269.991281 
L 272.143132 -267.926435 
L 268.5755 -267.926435 
L 265.007868 -267.46018 
L 261.440235 -264.529431 
L 257.872603 -262.797624 
L 254.304971 -258.468109 
L 250.737338 -258.401501 
L 247.169706 -255.404144 
L 243.602074 -255.137713 
L 240.034441 -254.538241 
L 236.466809 -253.272691 
L 232.899176 -252.406787 
L 229.331544 -251.074629 
L 225.763912 -249.009783 
L 222.196279 -247.81084 
L 218.628647 -247.277977 
L 215.061015 -246.412074 
L 211.493382 -244.813483 
L 207.92575 -241.549695 
L 204.358118 -240.550576 
L 200.790485 -240.483968 
L 197.222853 -239.018594 
L 193.65522 -238.685554 
L 190.087588 -233.956391 
L 186.519956 -232.957272 
L 182.952323 -232.890664 
L 179.384691 -228.228109 
L 175.817059 -227.029166 
L 172.249426 -225.830224 
L 168.681794 -223.831986 
L 165.114161 -223.498946 
L 161.546529 -218.470047 
L 157.978897 -217.90388 
L 154.411264 -216.371898 
L 150.843632 -214.173836 
L 147.276 -213.008197 
L 143.708367 -205.414893 
L 140.140735 -200.918858 
L 136.573103 -196.82247 
L 133.00547 -192.743567 
L 129.437838 -189.329078 
L 125.870205 -185.099475 
L 122.302573 -183.80062 
L 118.734941 -177.439563 
L 115.167308 -173.110047 
L 111.599676 -170.678858 
L 108.032044 -169.18018 
L 104.464411 -167.481677 
L 100.896779 -164.084673 
L 97.329146 -155.092602 
L 93.761514 -143.302999 
L 90.193882 -134.111105 
L 86.626249 -129.11551 
L 83.058617 -118.991105 
L 79.490985 -98.675686 
L 75.923352 -70.833572 
z
" id="m0bb6e6ec2f" style="stroke:#d62728;stroke-opacity:0.2;"/>
    </defs>
    <g clip-path="url(#p15d0d083ea)">
     <use style="fill:#d62728;fill-opacity:0.2;stroke:#d62728;stroke-opacity:0.2;" x="0" xlink:href="#m0bb6e6ec2f" y="325.986375"/>
    </g>
   </g>
   <g id="PolyCollection_2">
    <defs>
     <path d="M 75.923352 -67.436567 
L 75.923352 -51.91692 
L 79.490985 -67.569783 
L 83.058617 -78.426876 
L 86.626249 -83.622294 
L 90.193882 -116.133624 
L 93.761514 -117.658946 
L 97.329146 -123.986699 
L 100.896779 -137.707933 
L 104.464411 -143.502823 
L 108.032044 -139.772779 
L 111.599676 -157.612047 
L 115.167308 -148.631633 
L 118.734941 -170.27921 
L 122.302573 -174.209078 
L 125.870205 -176.673572 
L 129.437838 -176.940003 
L 133.00547 -179.404497 
L 136.573103 -180.536831 
L 140.140735 -187.144338 
L 143.708367 -189.528902 
L 147.276 -195.632686 
L 150.843632 -195.812528 
L 154.411264 -204.915334 
L 157.978897 -213.70758 
L 161.546529 -207.979298 
L 165.114161 -212.075686 
L 168.681794 -216.122118 
L 172.249426 -209.511281 
L 175.817059 -215.172955 
L 179.384691 -217.371017 
L 182.952323 -218.636567 
L 186.519956 -219.169431 
L 190.087588 -221.101061 
L 193.65522 -223.232514 
L 197.222853 -226.481316 
L 200.790485 -226.925091 
L 204.358118 -227.195686 
L 207.92575 -226.762735 
L 211.493382 -229.860003 
L 215.061015 -231.491898 
L 218.628647 -232.024761 
L 222.196279 -233.689959 
L 225.763912 -236.021237 
L 229.331544 -236.154453 
L 232.899176 -237.886259 
L 236.466809 -239.884497 
L 240.034441 -243.281501 
L 243.602074 -243.015069 
L 247.169706 -244.28062 
L 250.737338 -249.243743 
L 254.304971 -246.678506 
L 257.872603 -250.674981 
L 261.440235 -254.005378 
L 265.007868 -248.010664 
L 268.5755 -255.270928 
L 272.143132 -255.470752 
L 275.710765 -260.066699 
L 279.278397 -260.466347 
L 282.84603 -261.199034 
L 286.413662 -262.864232 
L 289.981294 -262.564497 
L 293.548927 -262.531193 
L 297.116559 -262.597801 
L 300.684191 -262.664409 
L 304.251824 -263.59692 
L 307.819456 -264.396215 
L 311.387089 -264.396215 
L 314.954721 -264.929078 
L 318.522353 -264.929078 
L 322.089986 -264.995686 
L 325.657618 -264.995686 
L 329.22525 -265.894893 
L 332.792883 -266.727492 
L 336.360515 -265.894893 
L 339.928147 -265.062294 
L 343.49578 -265.628461 
L 347.063412 -266.860708 
L 350.631045 -265.395334 
L 354.198677 -265.994805 
L 357.766309 -266.494365 
L 361.333942 -266.660884 
L 364.901574 -267.726611 
L 368.469206 -266.327845 
L 372.036839 -268.85395 
L 375.604471 -269.721519 
L 379.172104 -270.157801 
L 382.739736 -273.321677 
L 386.307368 -270.957096 
L 389.875001 -271.523263 
L 393.442633 -276.185818 
L 397.010265 -268.925554 
L 400.577898 -272.653933 
L 400.577898 -279.482911 
L 400.577898 -279.482911 
L 397.010265 -279.649431 
L 393.442633 -279.649431 
L 389.875001 -279.649431 
L 386.307368 -279.129889 
L 382.739736 -278.583704 
L 379.172104 -279.649431 
L 375.604471 -278.517096 
L 372.036839 -278.38388 
L 368.469206 -278.450488 
L 364.901574 -278.320602 
L 361.333942 -278.450488 
L 357.766309 -278.450488 
L 354.198677 -278.450488 
L 350.631045 -278.450488 
L 347.063412 -278.317272 
L 343.49578 -278.450488 
L 339.928147 -278.317272 
L 336.360515 -278.250664 
L 332.792883 -278.055836 
L 329.22525 -277.88432 
L 325.657618 -277.651193 
L 322.089986 -277.651193 
L 318.522353 -277.651193 
L 314.954721 -274.054365 
L 311.387089 -273.721325 
L 307.819456 -274.021061 
L 304.251824 -273.521501 
L 300.684191 -273.321677 
L 297.116559 -273.454893 
L 293.548927 -273.388285 
L 289.981294 -272.788814 
L 286.413662 -272.722206 
L 282.84603 -271.460818 
L 279.278397 -270.057889 
L 275.710765 -271.057008 
L 272.143132 -271.723087 
L 268.5755 -271.723087 
L 265.007868 -269.724849 
L 261.440235 -267.726611 
L 257.872603 -267.660003 
L 254.304971 -266.7941 
L 250.737338 -265.661765 
L 247.169706 -263.91747 
L 243.602074 -262.664409 
L 240.034441 -261.802669 
L 236.466809 -261.032514 
L 232.899176 -260.399739 
L 229.331544 -258.93603 
L 225.763912 -257.868638 
L 222.196279 -256.469871 
L 218.628647 -256.403263 
L 215.061015 -254.804673 
L 211.493382 -252.206964 
L 207.92575 -253.738946 
L 204.358118 -252.209461 
L 200.790485 -247.677624 
L 197.222853 -247.411193 
L 193.65522 -245.146523 
L 190.087588 -243.747757 
L 186.519956 -242.315686 
L 182.952323 -241.483087 
L 179.384691 -238.718858 
L 175.817059 -240.883616 
L 172.249426 -236.287669 
L 168.681794 -234.555862 
L 165.114161 -232.890664 
L 161.546529 -227.06247 
L 157.978897 -222.033572 
L 154.411264 -225.363968 
L 150.843632 -221.500708 
L 147.276 -220.901237 
L 143.708367 -216.089646 
L 140.140735 -214.107228 
L 136.573103 -214.573483 
L 133.00547 -209.511281 
L 129.437838 -210.863422 
L 125.870205 -213.840796 
L 122.302573 -203.316743 
L 118.734941 -203.716391 
L 115.167308 -198.720796 
L 111.599676 -189.92855 
L 108.032044 -178.671809 
L 104.464411 -173.742823 
L 100.896779 -172.410664 
L 97.329146 -158.889254 
L 93.761514 -148.964673 
L 90.193882 -144.368726 
L 86.626249 -129.048902 
L 83.058617 -119.45736 
L 79.490985 -104.936831 
L 75.923352 -67.436567 
z
" id="m4698775b65" style="stroke:#98df8a;stroke-opacity:0.2;"/>
    </defs>
    <g clip-path="url(#p15d0d083ea)">
     <use style="fill:#98df8a;fill-opacity:0.2;stroke:#98df8a;stroke-opacity:0.2;" x="0" xlink:href="#m4698775b65" y="325.986375"/>
    </g>
   </g>
   <g id="PolyCollection_3">
    <defs>
     <path d="M 75.923352 -70.508858 
L 75.923352 -49.65225 
L 79.490985 -73.364673 
L 83.058617 -83.089431 
L 86.626249 -89.950047 
L 90.193882 -113.396039 
L 93.761514 -120.256655 
L 97.329146 -137.241677 
L 100.896779 -137.308285 
L 104.464411 -143.969078 
L 108.032044 -156.358153 
L 111.599676 -149.564144 
L 115.167308 -158.887589 
L 118.734941 -157.890135 
L 122.302573 -164.48432 
L 125.870205 -169.080268 
L 129.437838 -173.776127 
L 133.00547 -174.408902 
L 136.573103 -183.933836 
L 140.140735 -184.466699 
L 143.708367 -184.533307 
L 147.276 -187.99692 
L 150.843632 -188.063528 
L 154.411264 -188.529783 
L 157.978897 -190.061765 
L 161.546529 -191.793572 
L 165.114161 -195.383739 
L 168.681794 -196.289607 
L 172.249426 -202.917096 
L 175.817059 -203.916215 
L 179.384691 -206.780356 
L 182.952323 -206.98018 
L 186.519956 -212.841677 
L 190.087588 -214.04062 
L 193.65522 -219.50247 
L 197.222853 -225.963439 
L 200.790485 -226.137453 
L 204.358118 -219.569078 
L 207.92575 -225.330664 
L 211.493382 -227.453792 
L 215.061015 -232.357801 
L 218.628647 -224.697889 
L 222.196279 -233.656655 
L 225.763912 -243.081677 
L 229.331544 -240.550576 
L 232.899176 -242.68203 
L 236.466809 -246.483677 
L 240.034441 -243.614541 
L 243.602074 -246.478682 
L 247.169706 -246.944937 
L 250.737338 -247.144761 
L 254.304971 -250.07551 
L 257.872603 -256.936127 
L 261.440235 -251.807316 
L 265.007868 -260.133307 
L 268.5755 -258.588836 
L 272.143132 -256.802911 
L 275.710765 -262.464585 
L 279.278397 -260.499651 
L 282.84603 -262.463752 
L 286.413662 -262.464585 
L 289.981294 -261.532074 
L 293.548927 -263.929959 
L 297.116559 -264.196391 
L 300.684191 -264.196391 
L 304.251824 -264.262999 
L 307.819456 -265.595157 
L 311.387089 -265.595157 
L 314.954721 -265.595157 
L 318.522353 -267.227052 
L 322.089986 -266.527669 
L 325.657618 -266.764127 
L 329.22525 -266.764127 
L 332.792883 -265.861589 
L 336.360515 -266.7941 
L 339.928147 -268.292779 
L 343.49578 -265.861589 
L 347.063412 -265.861589 
L 350.631045 -266.594276 
L 354.198677 -266.7941 
L 357.766309 -266.594276 
L 361.333942 -266.7941 
L 364.901574 -272.056127 
L 368.469206 -272.189343 
L 372.036839 -269.791457 
L 375.604471 -272.189343 
L 379.172104 -271.523263 
L 382.739736 -269.891369 
L 386.307368 -271.922911 
L 389.875001 -272.222646 
L 393.442633 -272.189343 
L 397.010265 -272.489078 
L 400.577898 -272.58899 
L 400.577898 -283.113043 
L 400.577898 -283.113043 
L 397.010265 -281.9141 
L 393.442633 -283.113043 
L 389.875001 -281.581061 
L 386.307368 -282.047316 
L 382.739736 -281.847492 
L 379.172104 -280.448726 
L 375.604471 -280.448726 
L 372.036839 -279.849254 
L 368.469206 -279.382999 
L 364.901574 -279.516215 
L 361.333942 -276.856893 
L 357.766309 -276.652074 
L 354.198677 -278.983351 
L 350.631045 -274.52062 
L 347.063412 -274.85366 
L 343.49578 -274.787052 
L 339.928147 -274.653836 
L 336.360515 -274.394065 
L 332.792883 -274.587228 
L 329.22525 -274.587228 
L 325.657618 -273.521501 
L 322.089986 -274.320796 
L 318.522353 -273.454893 
L 314.954721 -272.988638 
L 311.387089 -273.454893 
L 307.819456 -272.855422 
L 304.251824 -272.58899 
L 300.684191 -272.522382 
L 297.116559 -272.189343 
L 293.548927 -270.257713 
L 289.981294 -269.991281 
L 286.413662 -269.724849 
L 282.84603 -269.591633 
L 279.278397 -269.458417 
L 275.710765 -269.191986 
L 272.143132 -267.526787 
L 268.5755 -266.161325 
L 265.007868 -265.595157 
L 261.440235 -265.52855 
L 257.872603 -265.52855 
L 254.304971 -265.262118 
L 250.737338 -263.929959 
L 247.169706 -262.797624 
L 243.602074 -259.334012 
L 240.034441 -259.134188 
L 236.466809 -255.337536 
L 232.899176 -252.873043 
L 229.331544 -252.873043 
L 225.763912 -251.685757 
L 222.196279 -251.074629 
L 218.628647 -251.807316 
L 215.061015 -250.674981 
L 211.493382 -248.343704 
L 207.92575 -247.277977 
L 204.358118 -246.29218 
L 200.790485 -246.012426 
L 197.222853 -244.882589 
L 193.65522 -244.28062 
L 190.087588 -237.719739 
L 186.519956 -235.088726 
L 182.952323 -239.418241 
L 179.384691 -235.688197 
L 175.817059 -233.956391 
L 172.249426 -232.357801 
L 168.681794 -230.359563 
L 165.114161 -230.559387 
L 161.546529 -225.430576 
L 157.978897 -222.499827 
L 154.411264 -217.171193 
L 150.843632 -218.336831 
L 147.276 -212.775069 
L 143.708367 -214.806611 
L 140.140735 -209.444673 
L 136.573103 -208.045906 
L 133.00547 -212.508638 
L 129.437838 -205.381589 
L 125.870205 -202.983704 
L 122.302573 -196.922382 
L 118.734941 -187.397448 
L 115.167308 -180.337008 
L 111.599676 -178.671809 
L 108.032044 -176.806787 
L 104.464411 -172.477272 
L 100.896779 -169.679739 
L 97.329146 -165.083792 
L 93.761514 -155.935193 
L 90.193882 -140.37225 
L 86.626249 -132.445906 
L 83.058617 -125.052426 
L 79.490985 -103.471457 
L 75.923352 -70.508858 
z
" id="mcdcda03785" style="stroke:#1f77b4;stroke-opacity:0.2;"/>
    </defs>
    <g clip-path="url(#p15d0d083ea)">
     <use style="fill:#1f77b4;fill-opacity:0.2;stroke:#1f77b4;stroke-opacity:0.2;" x="0" xlink:href="#mcdcda03785" y="325.986375"/>
    </g>
   </g>
   <g id="matplotlib.axis_1">
    <g id="xtick_1">
     <g id="line2d_1">
      <defs>
       <path d="M 0 0 
L 0 3.5 
" id="m47fe509bcd" style="stroke:#000000;stroke-width:0.8;"/>
      </defs>
      <g>
       <use style="stroke:#000000;stroke-width:0.8;" x="75.923352" xlink:href="#m47fe509bcd" y="288.430125"/>
      </g>
     </g>
     <g id="text_1">
      <!-- 15m -->
      <g transform="translate(64.69054 303.028562)scale(0.1 -0.1)">
       <defs>
        <path d="M 794 531 
L 1825 531 
L 1825 4091 
L 703 3866 
L 703 4441 
L 1819 4666 
L 2450 4666 
L 2450 531 
L 3481 531 
L 3481 0 
L 794 0 
L 794 531 
z
" id="DejaVuSans-31" transform="scale(0.015625)"/>
        <path d="M 691 4666 
L 3169 4666 
L 3169 4134 
L 1269 4134 
L 1269 2991 
Q 1406 3038 1543 3061 
Q 1681 3084 1819 3084 
Q 2600 3084 3056 2656 
Q 3513 2228 3513 1497 
Q 3513 744 3044 326 
Q 2575 -91 1722 -91 
Q 1428 -91 1123 -41 
Q 819 9 494 109 
L 494 744 
Q 775 591 1075 516 
Q 1375 441 1709 441 
Q 2250 441 2565 725 
Q 2881 1009 2881 1497 
Q 2881 1984 2565 2268 
Q 2250 2553 1709 2553 
Q 1456 2553 1204 2497 
Q 953 2441 691 2322 
L 691 4666 
z
" id="DejaVuSans-35" transform="scale(0.015625)"/>
        <path d="M 3328 2828 
Q 3544 3216 3844 3400 
Q 4144 3584 4550 3584 
Q 5097 3584 5394 3201 
Q 5691 2819 5691 2113 
L 5691 0 
L 5113 0 
L 5113 2094 
Q 5113 2597 4934 2840 
Q 4756 3084 4391 3084 
Q 3944 3084 3684 2787 
Q 3425 2491 3425 1978 
L 3425 0 
L 2847 0 
L 2847 2094 
Q 2847 2600 2669 2842 
Q 2491 3084 2119 3084 
Q 1678 3084 1418 2786 
Q 1159 2488 1159 1978 
L 1159 0 
L 581 0 
L 581 3500 
L 1159 3500 
L 1159 2956 
Q 1356 3278 1631 3431 
Q 1906 3584 2284 3584 
Q 2666 3584 2933 3390 
Q 3200 3197 3328 2828 
z
" id="DejaVuSans-6d" transform="scale(0.015625)"/>
       </defs>
       <use xlink:href="#DejaVuSans-31"/>
       <use x="63.623047" xlink:href="#DejaVuSans-35"/>
       <use x="127.246094" xlink:href="#DejaVuSans-6d"/>
      </g>
     </g>
    </g>
    <g id="xtick_2">
     <g id="line2d_2">
      <g>
       <use style="stroke:#000000;stroke-width:0.8;" x="130.627049" xlink:href="#m47fe509bcd" y="288.430125"/>
      </g>
     </g>
     <g id="text_2">
      <!-- 4h:5m -->
      <g transform="translate(114.541111 303.028562)scale(0.1 -0.1)">
       <defs>
        <path d="M 2419 4116 
L 825 1625 
L 2419 1625 
L 2419 4116 
z
M 2253 4666 
L 3047 4666 
L 3047 1625 
L 3713 1625 
L 3713 1100 
L 3047 1100 
L 3047 0 
L 2419 0 
L 2419 1100 
L 313 1100 
L 313 1709 
L 2253 4666 
z
" id="DejaVuSans-34" transform="scale(0.015625)"/>
        <path d="M 3513 2113 
L 3513 0 
L 2938 0 
L 2938 2094 
Q 2938 2591 2744 2837 
Q 2550 3084 2163 3084 
Q 1697 3084 1428 2787 
Q 1159 2491 1159 1978 
L 1159 0 
L 581 0 
L 581 4863 
L 1159 4863 
L 1159 2956 
Q 1366 3272 1645 3428 
Q 1925 3584 2291 3584 
Q 2894 3584 3203 3211 
Q 3513 2838 3513 2113 
z
" id="DejaVuSans-68" transform="scale(0.015625)"/>
        <path d="M 750 794 
L 1409 794 
L 1409 0 
L 750 0 
L 750 794 
z
M 750 3309 
L 1409 3309 
L 1409 2516 
L 750 2516 
L 750 3309 
z
" id="DejaVuSans-3a" transform="scale(0.015625)"/>
       </defs>
       <use xlink:href="#DejaVuSans-34"/>
       <use x="63.623047" xlink:href="#DejaVuSans-68"/>
       <use x="127.001953" xlink:href="#DejaVuSans-3a"/>
       <use x="160.693359" xlink:href="#DejaVuSans-35"/>
       <use x="224.316406" xlink:href="#DejaVuSans-6d"/>
      </g>
     </g>
    </g>
    <g id="xtick_3">
     <g id="line2d_3">
      <g>
       <use style="stroke:#000000;stroke-width:0.8;" x="185.330745" xlink:href="#m47fe509bcd" y="288.430125"/>
      </g>
     </g>
     <g id="text_3">
      <!-- 7h:55m -->
      <g transform="translate(166.063557 303.028562)scale(0.1 -0.1)">
       <defs>
        <path d="M 525 4666 
L 3525 4666 
L 3525 4397 
L 1831 0 
L 1172 0 
L 2766 4134 
L 525 4134 
L 525 4666 
z
" id="DejaVuSans-37" transform="scale(0.015625)"/>
       </defs>
       <use xlink:href="#DejaVuSans-37"/>
       <use x="63.623047" xlink:href="#DejaVuSans-68"/>
       <use x="127.001953" xlink:href="#DejaVuSans-3a"/>
       <use x="160.693359" xlink:href="#DejaVuSans-35"/>
       <use x="224.316406" xlink:href="#DejaVuSans-35"/>
       <use x="287.939453" xlink:href="#DejaVuSans-6d"/>
      </g>
     </g>
    </g>
    <g id="xtick_4">
     <g id="line2d_4">
      <g>
       <use style="stroke:#000000;stroke-width:0.8;" x="240.034441" xlink:href="#m47fe509bcd" y="288.430125"/>
      </g>
     </g>
     <g id="text_4">
      <!-- 11h:45m -->
      <g transform="translate(217.586004 303.028562)scale(0.1 -0.1)">
       <use xlink:href="#DejaVuSans-31"/>
       <use x="63.623047" xlink:href="#DejaVuSans-31"/>
       <use x="127.246094" xlink:href="#DejaVuSans-68"/>
       <use x="190.625" xlink:href="#DejaVuSans-3a"/>
       <use x="224.316406" xlink:href="#DejaVuSans-34"/>
       <use x="287.939453" xlink:href="#DejaVuSans-35"/>
       <use x="351.5625" xlink:href="#DejaVuSans-6d"/>
      </g>
     </g>
    </g>
    <g id="xtick_5">
     <g id="line2d_5">
      <g>
       <use style="stroke:#000000;stroke-width:0.8;" x="294.738137" xlink:href="#m47fe509bcd" y="288.430125"/>
      </g>
     </g>
     <g id="text_5">
      <!-- 15h:35m -->
      <g transform="translate(272.2897 303.028562)scale(0.1 -0.1)">
       <defs>
        <path d="M 2597 2516 
Q 3050 2419 3304 2112 
Q 3559 1806 3559 1356 
Q 3559 666 3084 287 
Q 2609 -91 1734 -91 
Q 1441 -91 1130 -33 
Q 819 25 488 141 
L 488 750 
Q 750 597 1062 519 
Q 1375 441 1716 441 
Q 2309 441 2620 675 
Q 2931 909 2931 1356 
Q 2931 1769 2642 2001 
Q 2353 2234 1838 2234 
L 1294 2234 
L 1294 2753 
L 1863 2753 
Q 2328 2753 2575 2939 
Q 2822 3125 2822 3475 
Q 2822 3834 2567 4026 
Q 2313 4219 1838 4219 
Q 1578 4219 1281 4162 
Q 984 4106 628 3988 
L 628 4550 
Q 988 4650 1302 4700 
Q 1616 4750 1894 4750 
Q 2613 4750 3031 4423 
Q 3450 4097 3450 3541 
Q 3450 3153 3228 2886 
Q 3006 2619 2597 2516 
z
" id="DejaVuSans-33" transform="scale(0.015625)"/>
       </defs>
       <use xlink:href="#DejaVuSans-31"/>
       <use x="63.623047" xlink:href="#DejaVuSans-35"/>
       <use x="127.246094" xlink:href="#DejaVuSans-68"/>
       <use x="190.625" xlink:href="#DejaVuSans-3a"/>
       <use x="224.316406" xlink:href="#DejaVuSans-33"/>
       <use x="287.939453" xlink:href="#DejaVuSans-35"/>
       <use x="351.5625" xlink:href="#DejaVuSans-6d"/>
      </g>
     </g>
    </g>
    <g id="xtick_6">
     <g id="line2d_6">
      <g>
       <use style="stroke:#000000;stroke-width:0.8;" x="349.441834" xlink:href="#m47fe509bcd" y="288.430125"/>
      </g>
     </g>
     <g id="text_6">
      <!-- 19h:25m -->
      <g transform="translate(326.993396 303.028562)scale(0.1 -0.1)">
       <defs>
        <path d="M 703 97 
L 703 672 
Q 941 559 1184 500 
Q 1428 441 1663 441 
Q 2288 441 2617 861 
Q 2947 1281 2994 2138 
Q 2813 1869 2534 1725 
Q 2256 1581 1919 1581 
Q 1219 1581 811 2004 
Q 403 2428 403 3163 
Q 403 3881 828 4315 
Q 1253 4750 1959 4750 
Q 2769 4750 3195 4129 
Q 3622 3509 3622 2328 
Q 3622 1225 3098 567 
Q 2575 -91 1691 -91 
Q 1453 -91 1209 -44 
Q 966 3 703 97 
z
M 1959 2075 
Q 2384 2075 2632 2365 
Q 2881 2656 2881 3163 
Q 2881 3666 2632 3958 
Q 2384 4250 1959 4250 
Q 1534 4250 1286 3958 
Q 1038 3666 1038 3163 
Q 1038 2656 1286 2365 
Q 1534 2075 1959 2075 
z
" id="DejaVuSans-39" transform="scale(0.015625)"/>
        <path d="M 1228 531 
L 3431 531 
L 3431 0 
L 469 0 
L 469 531 
Q 828 903 1448 1529 
Q 2069 2156 2228 2338 
Q 2531 2678 2651 2914 
Q 2772 3150 2772 3378 
Q 2772 3750 2511 3984 
Q 2250 4219 1831 4219 
Q 1534 4219 1204 4116 
Q 875 4013 500 3803 
L 500 4441 
Q 881 4594 1212 4672 
Q 1544 4750 1819 4750 
Q 2544 4750 2975 4387 
Q 3406 4025 3406 3419 
Q 3406 3131 3298 2873 
Q 3191 2616 2906 2266 
Q 2828 2175 2409 1742 
Q 1991 1309 1228 531 
z
" id="DejaVuSans-32" transform="scale(0.015625)"/>
       </defs>
       <use xlink:href="#DejaVuSans-31"/>
       <use x="63.623047" xlink:href="#DejaVuSans-39"/>
       <use x="127.246094" xlink:href="#DejaVuSans-68"/>
       <use x="190.625" xlink:href="#DejaVuSans-3a"/>
       <use x="224.316406" xlink:href="#DejaVuSans-32"/>
       <use x="287.939453" xlink:href="#DejaVuSans-35"/>
       <use x="351.5625" xlink:href="#DejaVuSans-6d"/>
      </g>
     </g>
    </g>
    <g id="text_7">
     <!-- Time (hour:minute) -->
     <g transform="translate(189.843594 316.706687)scale(0.1 -0.1)">
      <defs>
       <path d="M -19 4666 
L 3928 4666 
L 3928 4134 
L 2272 4134 
L 2272 0 
L 1638 0 
L 1638 4134 
L -19 4134 
L -19 4666 
z
" id="DejaVuSans-54" transform="scale(0.015625)"/>
       <path d="M 603 3500 
L 1178 3500 
L 1178 0 
L 603 0 
L 603 3500 
z
M 603 4863 
L 1178 4863 
L 1178 4134 
L 603 4134 
L 603 4863 
z
" id="DejaVuSans-69" transform="scale(0.015625)"/>
       <path d="M 3597 1894 
L 3597 1613 
L 953 1613 
Q 991 1019 1311 708 
Q 1631 397 2203 397 
Q 2534 397 2845 478 
Q 3156 559 3463 722 
L 3463 178 
Q 3153 47 2828 -22 
Q 2503 -91 2169 -91 
Q 1331 -91 842 396 
Q 353 884 353 1716 
Q 353 2575 817 3079 
Q 1281 3584 2069 3584 
Q 2775 3584 3186 3129 
Q 3597 2675 3597 1894 
z
M 3022 2063 
Q 3016 2534 2758 2815 
Q 2500 3097 2075 3097 
Q 1594 3097 1305 2825 
Q 1016 2553 972 2059 
L 3022 2063 
z
" id="DejaVuSans-65" transform="scale(0.015625)"/>
       <path id="DejaVuSans-20" transform="scale(0.015625)"/>
       <path d="M 1984 4856 
Q 1566 4138 1362 3434 
Q 1159 2731 1159 2009 
Q 1159 1288 1364 580 
Q 1569 -128 1984 -844 
L 1484 -844 
Q 1016 -109 783 600 
Q 550 1309 550 2009 
Q 550 2706 781 3412 
Q 1013 4119 1484 4856 
L 1984 4856 
z
" id="DejaVuSans-28" transform="scale(0.015625)"/>
       <path d="M 1959 3097 
Q 1497 3097 1228 2736 
Q 959 2375 959 1747 
Q 959 1119 1226 758 
Q 1494 397 1959 397 
Q 2419 397 2687 759 
Q 2956 1122 2956 1747 
Q 2956 2369 2687 2733 
Q 2419 3097 1959 3097 
z
M 1959 3584 
Q 2709 3584 3137 3096 
Q 3566 2609 3566 1747 
Q 3566 888 3137 398 
Q 2709 -91 1959 -91 
Q 1206 -91 779 398 
Q 353 888 353 1747 
Q 353 2609 779 3096 
Q 1206 3584 1959 3584 
z
" id="DejaVuSans-6f" transform="scale(0.015625)"/>
       <path d="M 544 1381 
L 544 3500 
L 1119 3500 
L 1119 1403 
Q 1119 906 1312 657 
Q 1506 409 1894 409 
Q 2359 409 2629 706 
Q 2900 1003 2900 1516 
L 2900 3500 
L 3475 3500 
L 3475 0 
L 2900 0 
L 2900 538 
Q 2691 219 2414 64 
Q 2138 -91 1772 -91 
Q 1169 -91 856 284 
Q 544 659 544 1381 
z
M 1991 3584 
L 1991 3584 
z
" id="DejaVuSans-75" transform="scale(0.015625)"/>
       <path d="M 2631 2963 
Q 2534 3019 2420 3045 
Q 2306 3072 2169 3072 
Q 1681 3072 1420 2755 
Q 1159 2438 1159 1844 
L 1159 0 
L 581 0 
L 581 3500 
L 1159 3500 
L 1159 2956 
Q 1341 3275 1631 3429 
Q 1922 3584 2338 3584 
Q 2397 3584 2469 3576 
Q 2541 3569 2628 3553 
L 2631 2963 
z
" id="DejaVuSans-72" transform="scale(0.015625)"/>
       <path d="M 3513 2113 
L 3513 0 
L 2938 0 
L 2938 2094 
Q 2938 2591 2744 2837 
Q 2550 3084 2163 3084 
Q 1697 3084 1428 2787 
Q 1159 2491 1159 1978 
L 1159 0 
L 581 0 
L 581 3500 
L 1159 3500 
L 1159 2956 
Q 1366 3272 1645 3428 
Q 1925 3584 2291 3584 
Q 2894 3584 3203 3211 
Q 3513 2838 3513 2113 
z
" id="DejaVuSans-6e" transform="scale(0.015625)"/>
       <path d="M 1172 4494 
L 1172 3500 
L 2356 3500 
L 2356 3053 
L 1172 3053 
L 1172 1153 
Q 1172 725 1289 603 
Q 1406 481 1766 481 
L 2356 481 
L 2356 0 
L 1766 0 
Q 1100 0 847 248 
Q 594 497 594 1153 
L 594 3053 
L 172 3053 
L 172 3500 
L 594 3500 
L 594 4494 
L 1172 4494 
z
" id="DejaVuSans-74" transform="scale(0.015625)"/>
       <path d="M 513 4856 
L 1013 4856 
Q 1481 4119 1714 3412 
Q 1947 2706 1947 2009 
Q 1947 1309 1714 600 
Q 1481 -109 1013 -844 
L 513 -844 
Q 928 -128 1133 580 
Q 1338 1288 1338 2009 
Q 1338 2731 1133 3434 
Q 928 4138 513 4856 
z
" id="DejaVuSans-29" transform="scale(0.015625)"/>
      </defs>
      <use xlink:href="#DejaVuSans-54"/>
      <use x="57.958984" xlink:href="#DejaVuSans-69"/>
      <use x="85.742188" xlink:href="#DejaVuSans-6d"/>
      <use x="183.154297" xlink:href="#DejaVuSans-65"/>
      <use x="244.677734" xlink:href="#DejaVuSans-20"/>
      <use x="276.464844" xlink:href="#DejaVuSans-28"/>
      <use x="315.478516" xlink:href="#DejaVuSans-68"/>
      <use x="378.857422" xlink:href="#DejaVuSans-6f"/>
      <use x="440.039062" xlink:href="#DejaVuSans-75"/>
      <use x="503.417969" xlink:href="#DejaVuSans-72"/>
      <use x="542.78125" xlink:href="#DejaVuSans-3a"/>
      <use x="576.472656" xlink:href="#DejaVuSans-6d"/>
      <use x="673.884766" xlink:href="#DejaVuSans-69"/>
      <use x="701.667969" xlink:href="#DejaVuSans-6e"/>
      <use x="765.046875" xlink:href="#DejaVuSans-75"/>
      <use x="828.425781" xlink:href="#DejaVuSans-74"/>
      <use x="867.634766" xlink:href="#DejaVuSans-65"/>
      <use x="929.158203" xlink:href="#DejaVuSans-29"/>
     </g>
    </g>
   </g>
   <g id="matplotlib.axis_2">
    <g id="ytick_1">
     <g id="line2d_7">
      <defs>
       <path d="M 0 0 
L -3.5 0 
" id="m6ae9b0c7a8" style="stroke:#000000;stroke-width:0.8;"/>
      </defs>
      <g>
       <use style="stroke:#000000;stroke-width:0.8;" x="59.690625" xlink:href="#m6ae9b0c7a8" y="266.009896"/>
      </g>
     </g>
     <g id="text_8">
      <!-- 35500 -->
      <g transform="translate(20.878125 269.809115)scale(0.1 -0.1)">
       <defs>
        <path d="M 2034 4250 
Q 1547 4250 1301 3770 
Q 1056 3291 1056 2328 
Q 1056 1369 1301 889 
Q 1547 409 2034 409 
Q 2525 409 2770 889 
Q 3016 1369 3016 2328 
Q 3016 3291 2770 3770 
Q 2525 4250 2034 4250 
z
M 2034 4750 
Q 2819 4750 3233 4129 
Q 3647 3509 3647 2328 
Q 3647 1150 3233 529 
Q 2819 -91 2034 -91 
Q 1250 -91 836 529 
Q 422 1150 422 2328 
Q 422 3509 836 4129 
Q 1250 4750 2034 4750 
z
" id="DejaVuSans-30" transform="scale(0.015625)"/>
       </defs>
       <use xlink:href="#DejaVuSans-33"/>
       <use x="63.623047" xlink:href="#DejaVuSans-35"/>
       <use x="127.246094" xlink:href="#DejaVuSans-35"/>
       <use x="190.869141" xlink:href="#DejaVuSans-30"/>
       <use x="254.492188" xlink:href="#DejaVuSans-30"/>
      </g>
     </g>
    </g>
    <g id="ytick_2">
     <g id="line2d_8">
      <g>
       <use style="stroke:#000000;stroke-width:0.8;" x="59.690625" xlink:href="#m6ae9b0c7a8" y="232.705931"/>
      </g>
     </g>
     <g id="text_9">
      <!-- 36000 -->
      <g transform="translate(20.878125 236.50515)scale(0.1 -0.1)">
       <defs>
        <path d="M 2113 2584 
Q 1688 2584 1439 2293 
Q 1191 2003 1191 1497 
Q 1191 994 1439 701 
Q 1688 409 2113 409 
Q 2538 409 2786 701 
Q 3034 994 3034 1497 
Q 3034 2003 2786 2293 
Q 2538 2584 2113 2584 
z
M 3366 4563 
L 3366 3988 
Q 3128 4100 2886 4159 
Q 2644 4219 2406 4219 
Q 1781 4219 1451 3797 
Q 1122 3375 1075 2522 
Q 1259 2794 1537 2939 
Q 1816 3084 2150 3084 
Q 2853 3084 3261 2657 
Q 3669 2231 3669 1497 
Q 3669 778 3244 343 
Q 2819 -91 2113 -91 
Q 1303 -91 875 529 
Q 447 1150 447 2328 
Q 447 3434 972 4092 
Q 1497 4750 2381 4750 
Q 2619 4750 2861 4703 
Q 3103 4656 3366 4563 
z
" id="DejaVuSans-36" transform="scale(0.015625)"/>
       </defs>
       <use xlink:href="#DejaVuSans-33"/>
       <use x="63.623047" xlink:href="#DejaVuSans-36"/>
       <use x="127.246094" xlink:href="#DejaVuSans-30"/>
       <use x="190.869141" xlink:href="#DejaVuSans-30"/>
       <use x="254.492188" xlink:href="#DejaVuSans-30"/>
      </g>
     </g>
    </g>
    <g id="ytick_3">
     <g id="line2d_9">
      <g>
       <use style="stroke:#000000;stroke-width:0.8;" x="59.690625" xlink:href="#m6ae9b0c7a8" y="199.401966"/>
      </g>
     </g>
     <g id="text_10">
      <!-- 36500 -->
      <g transform="translate(20.878125 203.201185)scale(0.1 -0.1)">
       <use xlink:href="#DejaVuSans-33"/>
       <use x="63.623047" xlink:href="#DejaVuSans-36"/>
       <use x="127.246094" xlink:href="#DejaVuSans-35"/>
       <use x="190.869141" xlink:href="#DejaVuSans-30"/>
       <use x="254.492188" xlink:href="#DejaVuSans-30"/>
      </g>
     </g>
    </g>
    <g id="ytick_4">
     <g id="line2d_10">
      <g>
       <use style="stroke:#000000;stroke-width:0.8;" x="59.690625" xlink:href="#m6ae9b0c7a8" y="166.098002"/>
      </g>
     </g>
     <g id="text_11">
      <!-- 37000 -->
      <g transform="translate(20.878125 169.89722)scale(0.1 -0.1)">
       <use xlink:href="#DejaVuSans-33"/>
       <use x="63.623047" xlink:href="#DejaVuSans-37"/>
       <use x="127.246094" xlink:href="#DejaVuSans-30"/>
       <use x="190.869141" xlink:href="#DejaVuSans-30"/>
       <use x="254.492188" xlink:href="#DejaVuSans-30"/>
      </g>
     </g>
    </g>
    <g id="ytick_5">
     <g id="line2d_11">
      <g>
       <use style="stroke:#000000;stroke-width:0.8;" x="59.690625" xlink:href="#m6ae9b0c7a8" y="132.794037"/>
      </g>
     </g>
     <g id="text_12">
      <!-- 37500 -->
      <g transform="translate(20.878125 136.593256)scale(0.1 -0.1)">
       <use xlink:href="#DejaVuSans-33"/>
       <use x="63.623047" xlink:href="#DejaVuSans-37"/>
       <use x="127.246094" xlink:href="#DejaVuSans-35"/>
       <use x="190.869141" xlink:href="#DejaVuSans-30"/>
       <use x="254.492188" xlink:href="#DejaVuSans-30"/>
      </g>
     </g>
    </g>
    <g id="ytick_6">
     <g id="line2d_12">
      <g>
       <use style="stroke:#000000;stroke-width:0.8;" x="59.690625" xlink:href="#m6ae9b0c7a8" y="99.490072"/>
      </g>
     </g>
     <g id="text_13">
      <!-- 38000 -->
      <g transform="translate(20.878125 103.289291)scale(0.1 -0.1)">
       <defs>
        <path d="M 2034 2216 
Q 1584 2216 1326 1975 
Q 1069 1734 1069 1313 
Q 1069 891 1326 650 
Q 1584 409 2034 409 
Q 2484 409 2743 651 
Q 3003 894 3003 1313 
Q 3003 1734 2745 1975 
Q 2488 2216 2034 2216 
z
M 1403 2484 
Q 997 2584 770 2862 
Q 544 3141 544 3541 
Q 544 4100 942 4425 
Q 1341 4750 2034 4750 
Q 2731 4750 3128 4425 
Q 3525 4100 3525 3541 
Q 3525 3141 3298 2862 
Q 3072 2584 2669 2484 
Q 3125 2378 3379 2068 
Q 3634 1759 3634 1313 
Q 3634 634 3220 271 
Q 2806 -91 2034 -91 
Q 1263 -91 848 271 
Q 434 634 434 1313 
Q 434 1759 690 2068 
Q 947 2378 1403 2484 
z
M 1172 3481 
Q 1172 3119 1398 2916 
Q 1625 2713 2034 2713 
Q 2441 2713 2670 2916 
Q 2900 3119 2900 3481 
Q 2900 3844 2670 4047 
Q 2441 4250 2034 4250 
Q 1625 4250 1398 4047 
Q 1172 3844 1172 3481 
z
" id="DejaVuSans-38" transform="scale(0.015625)"/>
       </defs>
       <use xlink:href="#DejaVuSans-33"/>
       <use x="63.623047" xlink:href="#DejaVuSans-38"/>
       <use x="127.246094" xlink:href="#DejaVuSans-30"/>
       <use x="190.869141" xlink:href="#DejaVuSans-30"/>
       <use x="254.492188" xlink:href="#DejaVuSans-30"/>
      </g>
     </g>
    </g>
    <g id="ytick_7">
     <g id="line2d_13">
      <g>
       <use style="stroke:#000000;stroke-width:0.8;" x="59.690625" xlink:href="#m6ae9b0c7a8" y="66.186107"/>
      </g>
     </g>
     <g id="text_14">
      <!-- 38500 -->
      <g transform="translate(20.878125 69.985326)scale(0.1 -0.1)">
       <use xlink:href="#DejaVuSans-33"/>
       <use x="63.623047" xlink:href="#DejaVuSans-38"/>
       <use x="127.246094" xlink:href="#DejaVuSans-35"/>
       <use x="190.869141" xlink:href="#DejaVuSans-30"/>
       <use x="254.492188" xlink:href="#DejaVuSans-30"/>
      </g>
     </g>
    </g>
    <g id="ytick_8">
     <g id="line2d_14">
      <g>
       <use style="stroke:#000000;stroke-width:0.8;" x="59.690625" xlink:href="#m6ae9b0c7a8" y="32.882143"/>
      </g>
     </g>
     <g id="text_15">
      <!-- 39000 -->
      <g transform="translate(20.878125 36.681361)scale(0.1 -0.1)">
       <use xlink:href="#DejaVuSans-33"/>
       <use x="63.623047" xlink:href="#DejaVuSans-39"/>
       <use x="127.246094" xlink:href="#DejaVuSans-30"/>
       <use x="190.869141" xlink:href="#DejaVuSans-30"/>
       <use x="254.492188" xlink:href="#DejaVuSans-30"/>
      </g>
     </g>
    </g>
    <g id="text_16">
     <!-- Code region coverage -->
     <g transform="translate(14.798438 210.379594)rotate(-90)scale(0.1 -0.1)">
      <defs>
       <path d="M 4122 4306 
L 4122 3641 
Q 3803 3938 3442 4084 
Q 3081 4231 2675 4231 
Q 1875 4231 1450 3742 
Q 1025 3253 1025 2328 
Q 1025 1406 1450 917 
Q 1875 428 2675 428 
Q 3081 428 3442 575 
Q 3803 722 4122 1019 
L 4122 359 
Q 3791 134 3420 21 
Q 3050 -91 2638 -91 
Q 1578 -91 968 557 
Q 359 1206 359 2328 
Q 359 3453 968 4101 
Q 1578 4750 2638 4750 
Q 3056 4750 3426 4639 
Q 3797 4528 4122 4306 
z
" id="DejaVuSans-43" transform="scale(0.015625)"/>
       <path d="M 2906 2969 
L 2906 4863 
L 3481 4863 
L 3481 0 
L 2906 0 
L 2906 525 
Q 2725 213 2448 61 
Q 2172 -91 1784 -91 
Q 1150 -91 751 415 
Q 353 922 353 1747 
Q 353 2572 751 3078 
Q 1150 3584 1784 3584 
Q 2172 3584 2448 3432 
Q 2725 3281 2906 2969 
z
M 947 1747 
Q 947 1113 1208 752 
Q 1469 391 1925 391 
Q 2381 391 2643 752 
Q 2906 1113 2906 1747 
Q 2906 2381 2643 2742 
Q 2381 3103 1925 3103 
Q 1469 3103 1208 2742 
Q 947 2381 947 1747 
z
" id="DejaVuSans-64" transform="scale(0.015625)"/>
       <path d="M 2906 1791 
Q 2906 2416 2648 2759 
Q 2391 3103 1925 3103 
Q 1463 3103 1205 2759 
Q 947 2416 947 1791 
Q 947 1169 1205 825 
Q 1463 481 1925 481 
Q 2391 481 2648 825 
Q 2906 1169 2906 1791 
z
M 3481 434 
Q 3481 -459 3084 -895 
Q 2688 -1331 1869 -1331 
Q 1566 -1331 1297 -1286 
Q 1028 -1241 775 -1147 
L 775 -588 
Q 1028 -725 1275 -790 
Q 1522 -856 1778 -856 
Q 2344 -856 2625 -561 
Q 2906 -266 2906 331 
L 2906 616 
Q 2728 306 2450 153 
Q 2172 0 1784 0 
Q 1141 0 747 490 
Q 353 981 353 1791 
Q 353 2603 747 3093 
Q 1141 3584 1784 3584 
Q 2172 3584 2450 3431 
Q 2728 3278 2906 2969 
L 2906 3500 
L 3481 3500 
L 3481 434 
z
" id="DejaVuSans-67" transform="scale(0.015625)"/>
       <path d="M 3122 3366 
L 3122 2828 
Q 2878 2963 2633 3030 
Q 2388 3097 2138 3097 
Q 1578 3097 1268 2742 
Q 959 2388 959 1747 
Q 959 1106 1268 751 
Q 1578 397 2138 397 
Q 2388 397 2633 464 
Q 2878 531 3122 666 
L 3122 134 
Q 2881 22 2623 -34 
Q 2366 -91 2075 -91 
Q 1284 -91 818 406 
Q 353 903 353 1747 
Q 353 2603 823 3093 
Q 1294 3584 2113 3584 
Q 2378 3584 2631 3529 
Q 2884 3475 3122 3366 
z
" id="DejaVuSans-63" transform="scale(0.015625)"/>
       <path d="M 191 3500 
L 800 3500 
L 1894 563 
L 2988 3500 
L 3597 3500 
L 2284 0 
L 1503 0 
L 191 3500 
z
" id="DejaVuSans-76" transform="scale(0.015625)"/>
       <path d="M 2194 1759 
Q 1497 1759 1228 1600 
Q 959 1441 959 1056 
Q 959 750 1161 570 
Q 1363 391 1709 391 
Q 2188 391 2477 730 
Q 2766 1069 2766 1631 
L 2766 1759 
L 2194 1759 
z
M 3341 1997 
L 3341 0 
L 2766 0 
L 2766 531 
Q 2569 213 2275 61 
Q 1981 -91 1556 -91 
Q 1019 -91 701 211 
Q 384 513 384 1019 
Q 384 1609 779 1909 
Q 1175 2209 1959 2209 
L 2766 2209 
L 2766 2266 
Q 2766 2663 2505 2880 
Q 2244 3097 1772 3097 
Q 1472 3097 1187 3025 
Q 903 2953 641 2809 
L 641 3341 
Q 956 3463 1253 3523 
Q 1550 3584 1831 3584 
Q 2591 3584 2966 3190 
Q 3341 2797 3341 1997 
z
" id="DejaVuSans-61" transform="scale(0.015625)"/>
      </defs>
      <use xlink:href="#DejaVuSans-43"/>
      <use x="69.824219" xlink:href="#DejaVuSans-6f"/>
      <use x="131.005859" xlink:href="#DejaVuSans-64"/>
      <use x="194.482422" xlink:href="#DejaVuSans-65"/>
      <use x="256.005859" xlink:href="#DejaVuSans-20"/>
      <use x="287.792969" xlink:href="#DejaVuSans-72"/>
      <use x="326.65625" xlink:href="#DejaVuSans-65"/>
      <use x="388.179688" xlink:href="#DejaVuSans-67"/>
      <use x="451.65625" xlink:href="#DejaVuSans-69"/>
      <use x="479.439453" xlink:href="#DejaVuSans-6f"/>
      <use x="540.621094" xlink:href="#DejaVuSans-6e"/>
      <use x="604" xlink:href="#DejaVuSans-20"/>
      <use x="635.787109" xlink:href="#DejaVuSans-63"/>
      <use x="690.767578" xlink:href="#DejaVuSans-6f"/>
      <use x="751.949219" xlink:href="#DejaVuSans-76"/>
      <use x="811.128906" xlink:href="#DejaVuSans-65"/>
      <use x="872.652344" xlink:href="#DejaVuSans-72"/>
      <use x="913.765625" xlink:href="#DejaVuSans-61"/>
      <use x="975.044922" xlink:href="#DejaVuSans-67"/>
      <use x="1038.521484" xlink:href="#DejaVuSans-65"/>
     </g>
    </g>
   </g>
   <g id="line2d_15">
    <path clip-path="url(#p15d0d083ea)" d="M 75.923352 261.014301 
L 79.490985 239.83298 
L 83.058617 224.513156 
L 86.626249 213.722671 
L 90.193882 197.536944 
L 93.761514 193.540469 
L 97.329146 184.615006 
L 100.896779 174.623817 
L 104.464411 167.26364 
L 108.032044 162.501173 
L 111.599676 160.469632 
L 115.167308 155.440733 
L 118.734941 152.942936 
L 122.302573 151.710689 
L 125.870205 148.480204 
L 129.437838 142.751922 
L 133.00547 139.921085 
L 136.573103 134.126195 
L 140.140735 132.794037 
L 143.708367 131.595094 
L 147.276 130.029808 
L 150.843632 125.200733 
L 154.411264 122.269984 
L 157.978897 120.13853 
L 161.546529 118.87298 
L 165.114161 113.877385 
L 168.681794 110.946636 
L 172.249426 107.549632 
L 175.817059 105.751218 
L 179.384691 104.285843 
L 182.952323 103.819588 
L 186.519956 100.489191 
L 190.087588 99.956328 
L 193.65522 99.823112 
L 197.222853 99.490072 
L 200.790485 98.091306 
L 204.358118 92.629455 
L 207.92575 92.429632 
L 211.493382 91.83016 
L 215.061015 89.099235 
L 218.628647 88.033508 
L 222.196279 87.034389 
L 225.763912 85.835447 
L 229.331544 83.237737 
L 232.899176 81.239499 
L 236.466809 78.508574 
L 240.034441 76.71016 
L 243.602074 76.576944 
L 247.169706 72.380645 
L 250.737338 71.048486 
L 254.304971 69.583112 
L 257.872603 69.516504 
L 261.440235 66.785579 
L 265.007868 66.319323 
L 268.5755 66.319323 
L 272.143132 65.45342 
L 275.710765 65.253596 
L 279.278397 64.987165 
L 282.84603 64.720733 
L 286.413662 64.321085 
L 289.981294 63.921438 
L 293.548927 63.85483 
L 297.116559 60.058178 
L 300.684191 58.592803 
L 304.251824 58.326372 
L 307.819456 58.259764 
L 311.387089 58.259764 
L 314.954721 57.993332 
L 318.522353 57.127429 
L 322.089986 56.061702 
L 325.657618 53.663817 
L 329.22525 52.997737 
L 332.792883 52.331658 
L 336.360515 50.999499 
L 339.928147 50.932892 
L 343.49578 50.733068 
L 347.063412 49.800557 
L 350.631045 49.800557 
L 354.198677 49.700645 
L 357.766309 48.801438 
L 361.333942 48.768134 
L 364.901574 46.8032 
L 368.469206 46.8032 
L 372.036839 46.103817 
L 375.604471 45.171306 
L 379.172104 45.670865 
L 382.739736 45.304521 
L 386.307368 44.105579 
L 389.875001 43.872451 
L 393.442633 43.639323 
L 397.010265 43.406195 
L 400.577898 42.906636 
" style="fill:none;stroke:#d62728;stroke-linecap:square;stroke-width:1.5;"/>
    <defs>
     <path d="M 0 -3 
L -3 3 
L 3 3 
z
" id="m0af2954fde" style="stroke:#ffffff;stroke-linejoin:miter;stroke-width:0.75;"/>
    </defs>
    <g clip-path="url(#p15d0d083ea)">
     <use style="fill:#d62728;stroke:#ffffff;stroke-linejoin:miter;stroke-width:0.75;" x="75.923352" xlink:href="#m0af2954fde" y="261.014301"/>
     <use style="fill:#d62728;stroke:#ffffff;stroke-linejoin:miter;stroke-width:0.75;" x="79.490985" xlink:href="#m0af2954fde" y="239.83298"/>
     <use style="fill:#d62728;stroke:#ffffff;stroke-linejoin:miter;stroke-width:0.75;" x="83.058617" xlink:href="#m0af2954fde" y="224.513156"/>
     <use style="fill:#d62728;stroke:#ffffff;stroke-linejoin:miter;stroke-width:0.75;" x="86.626249" xlink:href="#m0af2954fde" y="213.722671"/>
     <use style="fill:#d62728;stroke:#ffffff;stroke-linejoin:miter;stroke-width:0.75;" x="90.193882" xlink:href="#m0af2954fde" y="197.536944"/>
     <use style="fill:#d62728;stroke:#ffffff;stroke-linejoin:miter;stroke-width:0.75;" x="93.761514" xlink:href="#m0af2954fde" y="193.540469"/>
     <use style="fill:#d62728;stroke:#ffffff;stroke-linejoin:miter;stroke-width:0.75;" x="97.329146" xlink:href="#m0af2954fde" y="184.615006"/>
     <use style="fill:#d62728;stroke:#ffffff;stroke-linejoin:miter;stroke-width:0.75;" x="100.896779" xlink:href="#m0af2954fde" y="174.623817"/>
     <use style="fill:#d62728;stroke:#ffffff;stroke-linejoin:miter;stroke-width:0.75;" x="104.464411" xlink:href="#m0af2954fde" y="167.26364"/>
     <use style="fill:#d62728;stroke:#ffffff;stroke-linejoin:miter;stroke-width:0.75;" x="108.032044" xlink:href="#m0af2954fde" y="162.501173"/>
     <use style="fill:#d62728;stroke:#ffffff;stroke-linejoin:miter;stroke-width:0.75;" x="111.599676" xlink:href="#m0af2954fde" y="160.469632"/>
     <use style="fill:#d62728;stroke:#ffffff;stroke-linejoin:miter;stroke-width:0.75;" x="115.167308" xlink:href="#m0af2954fde" y="155.440733"/>
     <use style="fill:#d62728;stroke:#ffffff;stroke-linejoin:miter;stroke-width:0.75;" x="118.734941" xlink:href="#m0af2954fde" y="152.942936"/>
     <use style="fill:#d62728;stroke:#ffffff;stroke-linejoin:miter;stroke-width:0.75;" x="122.302573" xlink:href="#m0af2954fde" y="151.710689"/>
     <use style="fill:#d62728;stroke:#ffffff;stroke-linejoin:miter;stroke-width:0.75;" x="125.870205" xlink:href="#m0af2954fde" y="148.480204"/>
     <use style="fill:#d62728;stroke:#ffffff;stroke-linejoin:miter;stroke-width:0.75;" x="129.437838" xlink:href="#m0af2954fde" y="142.751922"/>
     <use style="fill:#d62728;stroke:#ffffff;stroke-linejoin:miter;stroke-width:0.75;" x="133.00547" xlink:href="#m0af2954fde" y="139.921085"/>
     <use style="fill:#d62728;stroke:#ffffff;stroke-linejoin:miter;stroke-width:0.75;" x="136.573103" xlink:href="#m0af2954fde" y="134.126195"/>
     <use style="fill:#d62728;stroke:#ffffff;stroke-linejoin:miter;stroke-width:0.75;" x="140.140735" xlink:href="#m0af2954fde" y="132.794037"/>
     <use style="fill:#d62728;stroke:#ffffff;stroke-linejoin:miter;stroke-width:0.75;" x="143.708367" xlink:href="#m0af2954fde" y="131.595094"/>
     <use style="fill:#d62728;stroke:#ffffff;stroke-linejoin:miter;stroke-width:0.75;" x="147.276" xlink:href="#m0af2954fde" y="130.029808"/>
     <use style="fill:#d62728;stroke:#ffffff;stroke-linejoin:miter;stroke-width:0.75;" x="150.843632" xlink:href="#m0af2954fde" y="125.200733"/>
     <use style="fill:#d62728;stroke:#ffffff;stroke-linejoin:miter;stroke-width:0.75;" x="154.411264" xlink:href="#m0af2954fde" y="122.269984"/>
     <use style="fill:#d62728;stroke:#ffffff;stroke-linejoin:miter;stroke-width:0.75;" x="157.978897" xlink:href="#m0af2954fde" y="120.13853"/>
     <use style="fill:#d62728;stroke:#ffffff;stroke-linejoin:miter;stroke-width:0.75;" x="161.546529" xlink:href="#m0af2954fde" y="118.87298"/>
     <use style="fill:#d62728;stroke:#ffffff;stroke-linejoin:miter;stroke-width:0.75;" x="165.114161" xlink:href="#m0af2954fde" y="113.877385"/>
     <use style="fill:#d62728;stroke:#ffffff;stroke-linejoin:miter;stroke-width:0.75;" x="168.681794" xlink:href="#m0af2954fde" y="110.946636"/>
     <use style="fill:#d62728;stroke:#ffffff;stroke-linejoin:miter;stroke-width:0.75;" x="172.249426" xlink:href="#m0af2954fde" y="107.549632"/>
     <use style="fill:#d62728;stroke:#ffffff;stroke-linejoin:miter;stroke-width:0.75;" x="175.817059" xlink:href="#m0af2954fde" y="105.751218"/>
     <use style="fill:#d62728;stroke:#ffffff;stroke-linejoin:miter;stroke-width:0.75;" x="179.384691" xlink:href="#m0af2954fde" y="104.285843"/>
     <use style="fill:#d62728;stroke:#ffffff;stroke-linejoin:miter;stroke-width:0.75;" x="182.952323" xlink:href="#m0af2954fde" y="103.819588"/>
     <use style="fill:#d62728;stroke:#ffffff;stroke-linejoin:miter;stroke-width:0.75;" x="186.519956" xlink:href="#m0af2954fde" y="100.489191"/>
     <use style="fill:#d62728;stroke:#ffffff;stroke-linejoin:miter;stroke-width:0.75;" x="190.087588" xlink:href="#m0af2954fde" y="99.956328"/>
     <use style="fill:#d62728;stroke:#ffffff;stroke-linejoin:miter;stroke-width:0.75;" x="193.65522" xlink:href="#m0af2954fde" y="99.823112"/>
     <use style="fill:#d62728;stroke:#ffffff;stroke-linejoin:miter;stroke-width:0.75;" x="197.222853" xlink:href="#m0af2954fde" y="99.490072"/>
     <use style="fill:#d62728;stroke:#ffffff;stroke-linejoin:miter;stroke-width:0.75;" x="200.790485" xlink:href="#m0af2954fde" y="98.091306"/>
     <use style="fill:#d62728;stroke:#ffffff;stroke-linejoin:miter;stroke-width:0.75;" x="204.358118" xlink:href="#m0af2954fde" y="92.629455"/>
     <use style="fill:#d62728;stroke:#ffffff;stroke-linejoin:miter;stroke-width:0.75;" x="207.92575" xlink:href="#m0af2954fde" y="92.429632"/>
     <use style="fill:#d62728;stroke:#ffffff;stroke-linejoin:miter;stroke-width:0.75;" x="211.493382" xlink:href="#m0af2954fde" y="91.83016"/>
     <use style="fill:#d62728;stroke:#ffffff;stroke-linejoin:miter;stroke-width:0.75;" x="215.061015" xlink:href="#m0af2954fde" y="89.099235"/>
     <use style="fill:#d62728;stroke:#ffffff;stroke-linejoin:miter;stroke-width:0.75;" x="218.628647" xlink:href="#m0af2954fde" y="88.033508"/>
     <use style="fill:#d62728;stroke:#ffffff;stroke-linejoin:miter;stroke-width:0.75;" x="222.196279" xlink:href="#m0af2954fde" y="87.034389"/>
     <use style="fill:#d62728;stroke:#ffffff;stroke-linejoin:miter;stroke-width:0.75;" x="225.763912" xlink:href="#m0af2954fde" y="85.835447"/>
     <use style="fill:#d62728;stroke:#ffffff;stroke-linejoin:miter;stroke-width:0.75;" x="229.331544" xlink:href="#m0af2954fde" y="83.237737"/>
     <use style="fill:#d62728;stroke:#ffffff;stroke-linejoin:miter;stroke-width:0.75;" x="232.899176" xlink:href="#m0af2954fde" y="81.239499"/>
     <use style="fill:#d62728;stroke:#ffffff;stroke-linejoin:miter;stroke-width:0.75;" x="236.466809" xlink:href="#m0af2954fde" y="78.508574"/>
     <use style="fill:#d62728;stroke:#ffffff;stroke-linejoin:miter;stroke-width:0.75;" x="240.034441" xlink:href="#m0af2954fde" y="76.71016"/>
     <use style="fill:#d62728;stroke:#ffffff;stroke-linejoin:miter;stroke-width:0.75;" x="243.602074" xlink:href="#m0af2954fde" y="76.576944"/>
     <use style="fill:#d62728;stroke:#ffffff;stroke-linejoin:miter;stroke-width:0.75;" x="247.169706" xlink:href="#m0af2954fde" y="72.380645"/>
     <use style="fill:#d62728;stroke:#ffffff;stroke-linejoin:miter;stroke-width:0.75;" x="250.737338" xlink:href="#m0af2954fde" y="71.048486"/>
     <use style="fill:#d62728;stroke:#ffffff;stroke-linejoin:miter;stroke-width:0.75;" x="254.304971" xlink:href="#m0af2954fde" y="69.583112"/>
     <use style="fill:#d62728;stroke:#ffffff;stroke-linejoin:miter;stroke-width:0.75;" x="257.872603" xlink:href="#m0af2954fde" y="69.516504"/>
     <use style="fill:#d62728;stroke:#ffffff;stroke-linejoin:miter;stroke-width:0.75;" x="261.440235" xlink:href="#m0af2954fde" y="66.785579"/>
     <use style="fill:#d62728;stroke:#ffffff;stroke-linejoin:miter;stroke-width:0.75;" x="265.007868" xlink:href="#m0af2954fde" y="66.319323"/>
     <use style="fill:#d62728;stroke:#ffffff;stroke-linejoin:miter;stroke-width:0.75;" x="268.5755" xlink:href="#m0af2954fde" y="66.319323"/>
     <use style="fill:#d62728;stroke:#ffffff;stroke-linejoin:miter;stroke-width:0.75;" x="272.143132" xlink:href="#m0af2954fde" y="65.45342"/>
     <use style="fill:#d62728;stroke:#ffffff;stroke-linejoin:miter;stroke-width:0.75;" x="275.710765" xlink:href="#m0af2954fde" y="65.253596"/>
     <use style="fill:#d62728;stroke:#ffffff;stroke-linejoin:miter;stroke-width:0.75;" x="279.278397" xlink:href="#m0af2954fde" y="64.987165"/>
     <use style="fill:#d62728;stroke:#ffffff;stroke-linejoin:miter;stroke-width:0.75;" x="282.84603" xlink:href="#m0af2954fde" y="64.720733"/>
     <use style="fill:#d62728;stroke:#ffffff;stroke-linejoin:miter;stroke-width:0.75;" x="286.413662" xlink:href="#m0af2954fde" y="64.321085"/>
     <use style="fill:#d62728;stroke:#ffffff;stroke-linejoin:miter;stroke-width:0.75;" x="289.981294" xlink:href="#m0af2954fde" y="63.921438"/>
     <use style="fill:#d62728;stroke:#ffffff;stroke-linejoin:miter;stroke-width:0.75;" x="293.548927" xlink:href="#m0af2954fde" y="63.85483"/>
     <use style="fill:#d62728;stroke:#ffffff;stroke-linejoin:miter;stroke-width:0.75;" x="297.116559" xlink:href="#m0af2954fde" y="60.058178"/>
     <use style="fill:#d62728;stroke:#ffffff;stroke-linejoin:miter;stroke-width:0.75;" x="300.684191" xlink:href="#m0af2954fde" y="58.592803"/>
     <use style="fill:#d62728;stroke:#ffffff;stroke-linejoin:miter;stroke-width:0.75;" x="304.251824" xlink:href="#m0af2954fde" y="58.326372"/>
     <use style="fill:#d62728;stroke:#ffffff;stroke-linejoin:miter;stroke-width:0.75;" x="307.819456" xlink:href="#m0af2954fde" y="58.259764"/>
     <use style="fill:#d62728;stroke:#ffffff;stroke-linejoin:miter;stroke-width:0.75;" x="311.387089" xlink:href="#m0af2954fde" y="58.259764"/>
     <use style="fill:#d62728;stroke:#ffffff;stroke-linejoin:miter;stroke-width:0.75;" x="314.954721" xlink:href="#m0af2954fde" y="57.993332"/>
     <use style="fill:#d62728;stroke:#ffffff;stroke-linejoin:miter;stroke-width:0.75;" x="318.522353" xlink:href="#m0af2954fde" y="57.127429"/>
     <use style="fill:#d62728;stroke:#ffffff;stroke-linejoin:miter;stroke-width:0.75;" x="322.089986" xlink:href="#m0af2954fde" y="56.061702"/>
     <use style="fill:#d62728;stroke:#ffffff;stroke-linejoin:miter;stroke-width:0.75;" x="325.657618" xlink:href="#m0af2954fde" y="53.663817"/>
     <use style="fill:#d62728;stroke:#ffffff;stroke-linejoin:miter;stroke-width:0.75;" x="329.22525" xlink:href="#m0af2954fde" y="52.997737"/>
     <use style="fill:#d62728;stroke:#ffffff;stroke-linejoin:miter;stroke-width:0.75;" x="332.792883" xlink:href="#m0af2954fde" y="52.331658"/>
     <use style="fill:#d62728;stroke:#ffffff;stroke-linejoin:miter;stroke-width:0.75;" x="336.360515" xlink:href="#m0af2954fde" y="50.999499"/>
     <use style="fill:#d62728;stroke:#ffffff;stroke-linejoin:miter;stroke-width:0.75;" x="339.928147" xlink:href="#m0af2954fde" y="50.932892"/>
     <use style="fill:#d62728;stroke:#ffffff;stroke-linejoin:miter;stroke-width:0.75;" x="343.49578" xlink:href="#m0af2954fde" y="50.733068"/>
     <use style="fill:#d62728;stroke:#ffffff;stroke-linejoin:miter;stroke-width:0.75;" x="347.063412" xlink:href="#m0af2954fde" y="49.800557"/>
     <use style="fill:#d62728;stroke:#ffffff;stroke-linejoin:miter;stroke-width:0.75;" x="350.631045" xlink:href="#m0af2954fde" y="49.800557"/>
     <use style="fill:#d62728;stroke:#ffffff;stroke-linejoin:miter;stroke-width:0.75;" x="354.198677" xlink:href="#m0af2954fde" y="49.700645"/>
     <use style="fill:#d62728;stroke:#ffffff;stroke-linejoin:miter;stroke-width:0.75;" x="357.766309" xlink:href="#m0af2954fde" y="48.801438"/>
     <use style="fill:#d62728;stroke:#ffffff;stroke-linejoin:miter;stroke-width:0.75;" x="361.333942" xlink:href="#m0af2954fde" y="48.768134"/>
     <use style="fill:#d62728;stroke:#ffffff;stroke-linejoin:miter;stroke-width:0.75;" x="364.901574" xlink:href="#m0af2954fde" y="46.8032"/>
     <use style="fill:#d62728;stroke:#ffffff;stroke-linejoin:miter;stroke-width:0.75;" x="368.469206" xlink:href="#m0af2954fde" y="46.8032"/>
     <use style="fill:#d62728;stroke:#ffffff;stroke-linejoin:miter;stroke-width:0.75;" x="372.036839" xlink:href="#m0af2954fde" y="46.103817"/>
     <use style="fill:#d62728;stroke:#ffffff;stroke-linejoin:miter;stroke-width:0.75;" x="375.604471" xlink:href="#m0af2954fde" y="45.171306"/>
     <use style="fill:#d62728;stroke:#ffffff;stroke-linejoin:miter;stroke-width:0.75;" x="379.172104" xlink:href="#m0af2954fde" y="45.670865"/>
     <use style="fill:#d62728;stroke:#ffffff;stroke-linejoin:miter;stroke-width:0.75;" x="382.739736" xlink:href="#m0af2954fde" y="45.304521"/>
     <use style="fill:#d62728;stroke:#ffffff;stroke-linejoin:miter;stroke-width:0.75;" x="386.307368" xlink:href="#m0af2954fde" y="44.105579"/>
     <use style="fill:#d62728;stroke:#ffffff;stroke-linejoin:miter;stroke-width:0.75;" x="389.875001" xlink:href="#m0af2954fde" y="43.872451"/>
     <use style="fill:#d62728;stroke:#ffffff;stroke-linejoin:miter;stroke-width:0.75;" x="393.442633" xlink:href="#m0af2954fde" y="43.639323"/>
     <use style="fill:#d62728;stroke:#ffffff;stroke-linejoin:miter;stroke-width:0.75;" x="397.010265" xlink:href="#m0af2954fde" y="43.406195"/>
     <use style="fill:#d62728;stroke:#ffffff;stroke-linejoin:miter;stroke-width:0.75;" x="400.577898" xlink:href="#m0af2954fde" y="42.906636"/>
    </g>
   </g>
   <g id="line2d_16">
    <path clip-path="url(#p15d0d083ea)" d="M 75.923352 264.477914 
L 79.490985 233.70505 
L 83.058617 220.716504 
L 86.626249 207.32831 
L 90.193882 200.800733 
L 93.761514 188.544874 
L 97.329146 182.55016 
L 100.896779 175.090072 
L 104.464411 162.867517 
L 108.032044 157.838618 
L 111.599676 153.942055 
L 115.167308 155.707165 
L 118.734941 150.578354 
L 122.302573 143.784345 
L 125.870205 141.752803 
L 129.437838 141.353156 
L 133.00547 130.262936 
L 136.573103 123.402319 
L 140.140735 122.23668 
L 143.708367 117.574125 
L 147.276 115.575887 
L 150.843632 113.977297 
L 154.411264 112.212187 
L 157.978897 109.281438 
L 161.546529 108.049191 
L 165.114161 106.883552 
L 168.681794 104.086019 
L 172.249426 100.955447 
L 175.817059 94.361262 
L 179.384691 94.794213 
L 182.952323 92.762671 
L 186.519956 91.197385 
L 190.087588 92.629455 
L 193.65522 86.335006 
L 197.222853 88.499764 
L 200.790485 84.969544 
L 204.358118 84.10364 
L 207.92575 83.071218 
L 211.493382 82.438442 
L 215.061015 78.042319 
L 218.628647 73.17994 
L 222.196279 73.51298 
L 225.763912 72.180821 
L 229.331544 70.682143 
L 232.899176 69.283376 
L 236.466809 69.283376 
L 240.034441 69.116856 
L 243.602074 69.383288 
L 247.169706 66.852187 
L 250.737338 64.820645 
L 254.304971 63.788222 
L 257.872603 63.488486 
L 261.440235 63.255358 
L 265.007868 63.055535 
L 268.5755 62.655887 
L 272.143132 62.389455 
L 275.710765 62.023112 
L 279.278397 61.59016 
L 282.84603 61.623464 
L 286.413662 61.057297 
L 289.981294 61.257121 
L 293.548927 59.059059 
L 297.116559 58.659411 
L 300.684191 60.191394 
L 304.251824 58.692715 
L 307.819456 58.626107 
L 311.387089 56.46135 
L 314.954721 56.095006 
L 318.522353 55.728662 
L 322.089986 54.995975 
L 325.657618 55.129191 
L 329.22525 55.129191 
L 332.792883 54.263288 
L 336.360515 54.896063 
L 339.928147 55.329015 
L 343.49578 53.996856 
L 347.063412 53.996856 
L 350.631045 53.497297 
L 354.198677 53.497297 
L 357.766309 53.497297 
L 361.333942 53.264169 
L 364.901574 52.997737 
L 368.469206 52.065226 
L 372.036839 50.566548 
L 375.604471 50.566548 
L 379.172104 48.73483 
L 382.739736 49.067869 
L 386.307368 48.73483 
L 389.875001 48.73483 
L 393.442633 49.067869 
L 397.010265 48.73483 
L 400.577898 48.701526 
" style="fill:none;stroke:#98df8a;stroke-linecap:square;stroke-width:1.5;"/>
    <defs>
     <path d="M -0 3 
L 3 -3 
L -3 -3 
z
" id="m6b1fb8139d" style="stroke:#ffffff;stroke-linejoin:miter;stroke-width:0.75;"/>
    </defs>
    <g clip-path="url(#p15d0d083ea)">
     <use style="fill:#98df8a;stroke:#ffffff;stroke-linejoin:miter;stroke-width:0.75;" x="75.923352" xlink:href="#m6b1fb8139d" y="264.477914"/>
     <use style="fill:#98df8a;stroke:#ffffff;stroke-linejoin:miter;stroke-width:0.75;" x="79.490985" xlink:href="#m6b1fb8139d" y="233.70505"/>
     <use style="fill:#98df8a;stroke:#ffffff;stroke-linejoin:miter;stroke-width:0.75;" x="83.058617" xlink:href="#m6b1fb8139d" y="220.716504"/>
     <use style="fill:#98df8a;stroke:#ffffff;stroke-linejoin:miter;stroke-width:0.75;" x="86.626249" xlink:href="#m6b1fb8139d" y="207.32831"/>
     <use style="fill:#98df8a;stroke:#ffffff;stroke-linejoin:miter;stroke-width:0.75;" x="90.193882" xlink:href="#m6b1fb8139d" y="200.800733"/>
     <use style="fill:#98df8a;stroke:#ffffff;stroke-linejoin:miter;stroke-width:0.75;" x="93.761514" xlink:href="#m6b1fb8139d" y="188.544874"/>
     <use style="fill:#98df8a;stroke:#ffffff;stroke-linejoin:miter;stroke-width:0.75;" x="97.329146" xlink:href="#m6b1fb8139d" y="182.55016"/>
     <use style="fill:#98df8a;stroke:#ffffff;stroke-linejoin:miter;stroke-width:0.75;" x="100.896779" xlink:href="#m6b1fb8139d" y="175.090072"/>
     <use style="fill:#98df8a;stroke:#ffffff;stroke-linejoin:miter;stroke-width:0.75;" x="104.464411" xlink:href="#m6b1fb8139d" y="162.867517"/>
     <use style="fill:#98df8a;stroke:#ffffff;stroke-linejoin:miter;stroke-width:0.75;" x="108.032044" xlink:href="#m6b1fb8139d" y="157.838618"/>
     <use style="fill:#98df8a;stroke:#ffffff;stroke-linejoin:miter;stroke-width:0.75;" x="111.599676" xlink:href="#m6b1fb8139d" y="153.942055"/>
     <use style="fill:#98df8a;stroke:#ffffff;stroke-linejoin:miter;stroke-width:0.75;" x="115.167308" xlink:href="#m6b1fb8139d" y="155.707165"/>
     <use style="fill:#98df8a;stroke:#ffffff;stroke-linejoin:miter;stroke-width:0.75;" x="118.734941" xlink:href="#m6b1fb8139d" y="150.578354"/>
     <use style="fill:#98df8a;stroke:#ffffff;stroke-linejoin:miter;stroke-width:0.75;" x="122.302573" xlink:href="#m6b1fb8139d" y="143.784345"/>
     <use style="fill:#98df8a;stroke:#ffffff;stroke-linejoin:miter;stroke-width:0.75;" x="125.870205" xlink:href="#m6b1fb8139d" y="141.752803"/>
     <use style="fill:#98df8a;stroke:#ffffff;stroke-linejoin:miter;stroke-width:0.75;" x="129.437838" xlink:href="#m6b1fb8139d" y="141.353156"/>
     <use style="fill:#98df8a;stroke:#ffffff;stroke-linejoin:miter;stroke-width:0.75;" x="133.00547" xlink:href="#m6b1fb8139d" y="130.262936"/>
     <use style="fill:#98df8a;stroke:#ffffff;stroke-linejoin:miter;stroke-width:0.75;" x="136.573103" xlink:href="#m6b1fb8139d" y="123.402319"/>
     <use style="fill:#98df8a;stroke:#ffffff;stroke-linejoin:miter;stroke-width:0.75;" x="140.140735" xlink:href="#m6b1fb8139d" y="122.23668"/>
     <use style="fill:#98df8a;stroke:#ffffff;stroke-linejoin:miter;stroke-width:0.75;" x="143.708367" xlink:href="#m6b1fb8139d" y="117.574125"/>
     <use style="fill:#98df8a;stroke:#ffffff;stroke-linejoin:miter;stroke-width:0.75;" x="147.276" xlink:href="#m6b1fb8139d" y="115.575887"/>
     <use style="fill:#98df8a;stroke:#ffffff;stroke-linejoin:miter;stroke-width:0.75;" x="150.843632" xlink:href="#m6b1fb8139d" y="113.977297"/>
     <use style="fill:#98df8a;stroke:#ffffff;stroke-linejoin:miter;stroke-width:0.75;" x="154.411264" xlink:href="#m6b1fb8139d" y="112.212187"/>
     <use style="fill:#98df8a;stroke:#ffffff;stroke-linejoin:miter;stroke-width:0.75;" x="157.978897" xlink:href="#m6b1fb8139d" y="109.281438"/>
     <use style="fill:#98df8a;stroke:#ffffff;stroke-linejoin:miter;stroke-width:0.75;" x="161.546529" xlink:href="#m6b1fb8139d" y="108.049191"/>
     <use style="fill:#98df8a;stroke:#ffffff;stroke-linejoin:miter;stroke-width:0.75;" x="165.114161" xlink:href="#m6b1fb8139d" y="106.883552"/>
     <use style="fill:#98df8a;stroke:#ffffff;stroke-linejoin:miter;stroke-width:0.75;" x="168.681794" xlink:href="#m6b1fb8139d" y="104.086019"/>
     <use style="fill:#98df8a;stroke:#ffffff;stroke-linejoin:miter;stroke-width:0.75;" x="172.249426" xlink:href="#m6b1fb8139d" y="100.955447"/>
     <use style="fill:#98df8a;stroke:#ffffff;stroke-linejoin:miter;stroke-width:0.75;" x="175.817059" xlink:href="#m6b1fb8139d" y="94.361262"/>
     <use style="fill:#98df8a;stroke:#ffffff;stroke-linejoin:miter;stroke-width:0.75;" x="179.384691" xlink:href="#m6b1fb8139d" y="94.794213"/>
     <use style="fill:#98df8a;stroke:#ffffff;stroke-linejoin:miter;stroke-width:0.75;" x="182.952323" xlink:href="#m6b1fb8139d" y="92.762671"/>
     <use style="fill:#98df8a;stroke:#ffffff;stroke-linejoin:miter;stroke-width:0.75;" x="186.519956" xlink:href="#m6b1fb8139d" y="91.197385"/>
     <use style="fill:#98df8a;stroke:#ffffff;stroke-linejoin:miter;stroke-width:0.75;" x="190.087588" xlink:href="#m6b1fb8139d" y="92.629455"/>
     <use style="fill:#98df8a;stroke:#ffffff;stroke-linejoin:miter;stroke-width:0.75;" x="193.65522" xlink:href="#m6b1fb8139d" y="86.335006"/>
     <use style="fill:#98df8a;stroke:#ffffff;stroke-linejoin:miter;stroke-width:0.75;" x="197.222853" xlink:href="#m6b1fb8139d" y="88.499764"/>
     <use style="fill:#98df8a;stroke:#ffffff;stroke-linejoin:miter;stroke-width:0.75;" x="200.790485" xlink:href="#m6b1fb8139d" y="84.969544"/>
     <use style="fill:#98df8a;stroke:#ffffff;stroke-linejoin:miter;stroke-width:0.75;" x="204.358118" xlink:href="#m6b1fb8139d" y="84.10364"/>
     <use style="fill:#98df8a;stroke:#ffffff;stroke-linejoin:miter;stroke-width:0.75;" x="207.92575" xlink:href="#m6b1fb8139d" y="83.071218"/>
     <use style="fill:#98df8a;stroke:#ffffff;stroke-linejoin:miter;stroke-width:0.75;" x="211.493382" xlink:href="#m6b1fb8139d" y="82.438442"/>
     <use style="fill:#98df8a;stroke:#ffffff;stroke-linejoin:miter;stroke-width:0.75;" x="215.061015" xlink:href="#m6b1fb8139d" y="78.042319"/>
     <use style="fill:#98df8a;stroke:#ffffff;stroke-linejoin:miter;stroke-width:0.75;" x="218.628647" xlink:href="#m6b1fb8139d" y="73.17994"/>
     <use style="fill:#98df8a;stroke:#ffffff;stroke-linejoin:miter;stroke-width:0.75;" x="222.196279" xlink:href="#m6b1fb8139d" y="73.51298"/>
     <use style="fill:#98df8a;stroke:#ffffff;stroke-linejoin:miter;stroke-width:0.75;" x="225.763912" xlink:href="#m6b1fb8139d" y="72.180821"/>
     <use style="fill:#98df8a;stroke:#ffffff;stroke-linejoin:miter;stroke-width:0.75;" x="229.331544" xlink:href="#m6b1fb8139d" y="70.682143"/>
     <use style="fill:#98df8a;stroke:#ffffff;stroke-linejoin:miter;stroke-width:0.75;" x="232.899176" xlink:href="#m6b1fb8139d" y="69.283376"/>
     <use style="fill:#98df8a;stroke:#ffffff;stroke-linejoin:miter;stroke-width:0.75;" x="236.466809" xlink:href="#m6b1fb8139d" y="69.283376"/>
     <use style="fill:#98df8a;stroke:#ffffff;stroke-linejoin:miter;stroke-width:0.75;" x="240.034441" xlink:href="#m6b1fb8139d" y="69.116856"/>
     <use style="fill:#98df8a;stroke:#ffffff;stroke-linejoin:miter;stroke-width:0.75;" x="243.602074" xlink:href="#m6b1fb8139d" y="69.383288"/>
     <use style="fill:#98df8a;stroke:#ffffff;stroke-linejoin:miter;stroke-width:0.75;" x="247.169706" xlink:href="#m6b1fb8139d" y="66.852187"/>
     <use style="fill:#98df8a;stroke:#ffffff;stroke-linejoin:miter;stroke-width:0.75;" x="250.737338" xlink:href="#m6b1fb8139d" y="64.820645"/>
     <use style="fill:#98df8a;stroke:#ffffff;stroke-linejoin:miter;stroke-width:0.75;" x="254.304971" xlink:href="#m6b1fb8139d" y="63.788222"/>
     <use style="fill:#98df8a;stroke:#ffffff;stroke-linejoin:miter;stroke-width:0.75;" x="257.872603" xlink:href="#m6b1fb8139d" y="63.488486"/>
     <use style="fill:#98df8a;stroke:#ffffff;stroke-linejoin:miter;stroke-width:0.75;" x="261.440235" xlink:href="#m6b1fb8139d" y="63.255358"/>
     <use style="fill:#98df8a;stroke:#ffffff;stroke-linejoin:miter;stroke-width:0.75;" x="265.007868" xlink:href="#m6b1fb8139d" y="63.055535"/>
     <use style="fill:#98df8a;stroke:#ffffff;stroke-linejoin:miter;stroke-width:0.75;" x="268.5755" xlink:href="#m6b1fb8139d" y="62.655887"/>
     <use style="fill:#98df8a;stroke:#ffffff;stroke-linejoin:miter;stroke-width:0.75;" x="272.143132" xlink:href="#m6b1fb8139d" y="62.389455"/>
     <use style="fill:#98df8a;stroke:#ffffff;stroke-linejoin:miter;stroke-width:0.75;" x="275.710765" xlink:href="#m6b1fb8139d" y="62.023112"/>
     <use style="fill:#98df8a;stroke:#ffffff;stroke-linejoin:miter;stroke-width:0.75;" x="279.278397" xlink:href="#m6b1fb8139d" y="61.59016"/>
     <use style="fill:#98df8a;stroke:#ffffff;stroke-linejoin:miter;stroke-width:0.75;" x="282.84603" xlink:href="#m6b1fb8139d" y="61.623464"/>
     <use style="fill:#98df8a;stroke:#ffffff;stroke-linejoin:miter;stroke-width:0.75;" x="286.413662" xlink:href="#m6b1fb8139d" y="61.057297"/>
     <use style="fill:#98df8a;stroke:#ffffff;stroke-linejoin:miter;stroke-width:0.75;" x="289.981294" xlink:href="#m6b1fb8139d" y="61.257121"/>
     <use style="fill:#98df8a;stroke:#ffffff;stroke-linejoin:miter;stroke-width:0.75;" x="293.548927" xlink:href="#m6b1fb8139d" y="59.059059"/>
     <use style="fill:#98df8a;stroke:#ffffff;stroke-linejoin:miter;stroke-width:0.75;" x="297.116559" xlink:href="#m6b1fb8139d" y="58.659411"/>
     <use style="fill:#98df8a;stroke:#ffffff;stroke-linejoin:miter;stroke-width:0.75;" x="300.684191" xlink:href="#m6b1fb8139d" y="60.191394"/>
     <use style="fill:#98df8a;stroke:#ffffff;stroke-linejoin:miter;stroke-width:0.75;" x="304.251824" xlink:href="#m6b1fb8139d" y="58.692715"/>
     <use style="fill:#98df8a;stroke:#ffffff;stroke-linejoin:miter;stroke-width:0.75;" x="307.819456" xlink:href="#m6b1fb8139d" y="58.626107"/>
     <use style="fill:#98df8a;stroke:#ffffff;stroke-linejoin:miter;stroke-width:0.75;" x="311.387089" xlink:href="#m6b1fb8139d" y="56.46135"/>
     <use style="fill:#98df8a;stroke:#ffffff;stroke-linejoin:miter;stroke-width:0.75;" x="314.954721" xlink:href="#m6b1fb8139d" y="56.095006"/>
     <use style="fill:#98df8a;stroke:#ffffff;stroke-linejoin:miter;stroke-width:0.75;" x="318.522353" xlink:href="#m6b1fb8139d" y="55.728662"/>
     <use style="fill:#98df8a;stroke:#ffffff;stroke-linejoin:miter;stroke-width:0.75;" x="322.089986" xlink:href="#m6b1fb8139d" y="54.995975"/>
     <use style="fill:#98df8a;stroke:#ffffff;stroke-linejoin:miter;stroke-width:0.75;" x="325.657618" xlink:href="#m6b1fb8139d" y="55.129191"/>
     <use style="fill:#98df8a;stroke:#ffffff;stroke-linejoin:miter;stroke-width:0.75;" x="329.22525" xlink:href="#m6b1fb8139d" y="55.129191"/>
     <use style="fill:#98df8a;stroke:#ffffff;stroke-linejoin:miter;stroke-width:0.75;" x="332.792883" xlink:href="#m6b1fb8139d" y="54.263288"/>
     <use style="fill:#98df8a;stroke:#ffffff;stroke-linejoin:miter;stroke-width:0.75;" x="336.360515" xlink:href="#m6b1fb8139d" y="54.896063"/>
     <use style="fill:#98df8a;stroke:#ffffff;stroke-linejoin:miter;stroke-width:0.75;" x="339.928147" xlink:href="#m6b1fb8139d" y="55.329015"/>
     <use style="fill:#98df8a;stroke:#ffffff;stroke-linejoin:miter;stroke-width:0.75;" x="343.49578" xlink:href="#m6b1fb8139d" y="53.996856"/>
     <use style="fill:#98df8a;stroke:#ffffff;stroke-linejoin:miter;stroke-width:0.75;" x="347.063412" xlink:href="#m6b1fb8139d" y="53.996856"/>
     <use style="fill:#98df8a;stroke:#ffffff;stroke-linejoin:miter;stroke-width:0.75;" x="350.631045" xlink:href="#m6b1fb8139d" y="53.497297"/>
     <use style="fill:#98df8a;stroke:#ffffff;stroke-linejoin:miter;stroke-width:0.75;" x="354.198677" xlink:href="#m6b1fb8139d" y="53.497297"/>
     <use style="fill:#98df8a;stroke:#ffffff;stroke-linejoin:miter;stroke-width:0.75;" x="357.766309" xlink:href="#m6b1fb8139d" y="53.497297"/>
     <use style="fill:#98df8a;stroke:#ffffff;stroke-linejoin:miter;stroke-width:0.75;" x="361.333942" xlink:href="#m6b1fb8139d" y="53.264169"/>
     <use style="fill:#98df8a;stroke:#ffffff;stroke-linejoin:miter;stroke-width:0.75;" x="364.901574" xlink:href="#m6b1fb8139d" y="52.997737"/>
     <use style="fill:#98df8a;stroke:#ffffff;stroke-linejoin:miter;stroke-width:0.75;" x="368.469206" xlink:href="#m6b1fb8139d" y="52.065226"/>
     <use style="fill:#98df8a;stroke:#ffffff;stroke-linejoin:miter;stroke-width:0.75;" x="372.036839" xlink:href="#m6b1fb8139d" y="50.566548"/>
     <use style="fill:#98df8a;stroke:#ffffff;stroke-linejoin:miter;stroke-width:0.75;" x="375.604471" xlink:href="#m6b1fb8139d" y="50.566548"/>
     <use style="fill:#98df8a;stroke:#ffffff;stroke-linejoin:miter;stroke-width:0.75;" x="379.172104" xlink:href="#m6b1fb8139d" y="48.73483"/>
     <use style="fill:#98df8a;stroke:#ffffff;stroke-linejoin:miter;stroke-width:0.75;" x="382.739736" xlink:href="#m6b1fb8139d" y="49.067869"/>
     <use style="fill:#98df8a;stroke:#ffffff;stroke-linejoin:miter;stroke-width:0.75;" x="386.307368" xlink:href="#m6b1fb8139d" y="48.73483"/>
     <use style="fill:#98df8a;stroke:#ffffff;stroke-linejoin:miter;stroke-width:0.75;" x="389.875001" xlink:href="#m6b1fb8139d" y="48.73483"/>
     <use style="fill:#98df8a;stroke:#ffffff;stroke-linejoin:miter;stroke-width:0.75;" x="393.442633" xlink:href="#m6b1fb8139d" y="49.067869"/>
     <use style="fill:#98df8a;stroke:#ffffff;stroke-linejoin:miter;stroke-width:0.75;" x="397.010265" xlink:href="#m6b1fb8139d" y="48.73483"/>
     <use style="fill:#98df8a;stroke:#ffffff;stroke-linejoin:miter;stroke-width:0.75;" x="400.577898" xlink:href="#m6b1fb8139d" y="48.701526"/>
    </g>
   </g>
   <g id="line2d_17">
    <path clip-path="url(#p15d0d083ea)" d="M 75.923352 259.815358 
L 79.490985 227.643729 
L 83.058617 215.454477 
L 86.626249 200.267869 
L 90.193882 190.076856 
L 93.761514 187.612363 
L 97.329146 178.6869 
L 100.896779 168.795623 
L 104.464411 161.035799 
L 108.032044 158.10505 
L 111.599676 157.039323 
L 115.167308 151.04461 
L 118.734941 147.647605 
L 122.302573 146.182231 
L 125.870205 136.357561 
L 129.437838 126.499588 
L 133.00547 125.467165 
L 136.573103 124.468046 
L 140.140735 124.068398 
L 143.708367 120.338354 
L 147.276 125.433861 
L 150.843632 124.50135 
L 154.411264 112.478618 
L 157.978897 117.207781 
L 161.546529 107.416416 
L 165.114161 114.110513 
L 168.681794 105.384874 
L 172.249426 103.386636 
L 175.817059 101.954566 
L 179.384691 97.62505 
L 182.952323 96.159676 
L 186.519956 95.69342 
L 190.087588 97.025579 
L 193.65522 92.895887 
L 197.222853 92.096592 
L 200.790485 90.597914 
L 204.358118 90.098354 
L 207.92575 88.29994 
L 211.493382 86.501526 
L 215.061015 84.037032 
L 218.628647 81.172892 
L 222.196279 82.138706 
L 225.763912 75.910865 
L 229.331544 76.044081 
L 232.899176 74.911746 
L 236.466809 72.980116 
L 240.034441 73.17994 
L 243.602074 71.181702 
L 247.169706 71.115094 
L 250.737338 66.585755 
L 254.304971 66.319323 
L 257.872603 65.919676 
L 261.440235 64.853949 
L 265.007868 62.855711 
L 268.5755 63.155447 
L 272.143132 62.322847 
L 275.710765 60.591041 
L 279.278397 58.459588 
L 282.84603 58.39298 
L 286.413662 58.05994 
L 289.981294 58.259764 
L 293.548927 57.360557 
L 297.116559 56.194918 
L 300.684191 56.028398 
L 304.251824 55.595447 
L 307.819456 55.395623 
L 311.387089 54.796151 
L 314.954721 54.796151 
L 318.522353 55.029279 
L 322.089986 54.496416 
L 325.657618 54.796151 
L 329.22525 54.263288 
L 332.792883 54.263288 
L 336.360515 54.263288 
L 339.928147 53.86364 
L 343.49578 53.930248 
L 347.063412 53.930248 
L 350.631045 53.930248 
L 354.198677 51.832099 
L 357.766309 51.732187 
L 361.333942 52.797914 
L 364.901574 50.866284 
L 368.469206 50.866284 
L 372.036839 50.1669 
L 375.604471 49.567429 
L 379.172104 49.867165 
L 382.739736 49.700645 
L 386.307368 49.400909 
L 389.875001 49.467517 
L 393.442633 48.40179 
L 397.010265 48.801438 
L 400.577898 48.40179 
" style="fill:none;stroke:#1f77b4;stroke-linecap:square;stroke-width:1.5;"/>
    <defs>
     <path d="M 0 3 
C 0.795609 3 1.55874 2.683901 2.12132 2.12132 
C 2.683901 1.55874 3 0.795609 3 0 
C 3 -0.795609 2.683901 -1.55874 2.12132 -2.12132 
C 1.55874 -2.683901 0.795609 -3 0 -3 
C -0.795609 -3 -1.55874 -2.683901 -2.12132 -2.12132 
C -2.683901 -1.55874 -3 -0.795609 -3 0 
C -3 0.795609 -2.683901 1.55874 -2.12132 2.12132 
C -1.55874 2.683901 -0.795609 3 0 3 
z
" id="mbdea3bc400" style="stroke:#ffffff;stroke-width:0.75;"/>
    </defs>
    <g clip-path="url(#p15d0d083ea)">
     <use style="fill:#1f77b4;stroke:#ffffff;stroke-width:0.75;" x="75.923352" xlink:href="#mbdea3bc400" y="259.815358"/>
     <use style="fill:#1f77b4;stroke:#ffffff;stroke-width:0.75;" x="79.490985" xlink:href="#mbdea3bc400" y="227.643729"/>
     <use style="fill:#1f77b4;stroke:#ffffff;stroke-width:0.75;" x="83.058617" xlink:href="#mbdea3bc400" y="215.454477"/>
     <use style="fill:#1f77b4;stroke:#ffffff;stroke-width:0.75;" x="86.626249" xlink:href="#mbdea3bc400" y="200.267869"/>
     <use style="fill:#1f77b4;stroke:#ffffff;stroke-width:0.75;" x="90.193882" xlink:href="#mbdea3bc400" y="190.076856"/>
     <use style="fill:#1f77b4;stroke:#ffffff;stroke-width:0.75;" x="93.761514" xlink:href="#mbdea3bc400" y="187.612363"/>
     <use style="fill:#1f77b4;stroke:#ffffff;stroke-width:0.75;" x="97.329146" xlink:href="#mbdea3bc400" y="178.6869"/>
     <use style="fill:#1f77b4;stroke:#ffffff;stroke-width:0.75;" x="100.896779" xlink:href="#mbdea3bc400" y="168.795623"/>
     <use style="fill:#1f77b4;stroke:#ffffff;stroke-width:0.75;" x="104.464411" xlink:href="#mbdea3bc400" y="161.035799"/>
     <use style="fill:#1f77b4;stroke:#ffffff;stroke-width:0.75;" x="108.032044" xlink:href="#mbdea3bc400" y="158.10505"/>
     <use style="fill:#1f77b4;stroke:#ffffff;stroke-width:0.75;" x="111.599676" xlink:href="#mbdea3bc400" y="157.039323"/>
     <use style="fill:#1f77b4;stroke:#ffffff;stroke-width:0.75;" x="115.167308" xlink:href="#mbdea3bc400" y="151.04461"/>
     <use style="fill:#1f77b4;stroke:#ffffff;stroke-width:0.75;" x="118.734941" xlink:href="#mbdea3bc400" y="147.647605"/>
     <use style="fill:#1f77b4;stroke:#ffffff;stroke-width:0.75;" x="122.302573" xlink:href="#mbdea3bc400" y="146.182231"/>
     <use style="fill:#1f77b4;stroke:#ffffff;stroke-width:0.75;" x="125.870205" xlink:href="#mbdea3bc400" y="136.357561"/>
     <use style="fill:#1f77b4;stroke:#ffffff;stroke-width:0.75;" x="129.437838" xlink:href="#mbdea3bc400" y="126.499588"/>
     <use style="fill:#1f77b4;stroke:#ffffff;stroke-width:0.75;" x="133.00547" xlink:href="#mbdea3bc400" y="125.467165"/>
     <use style="fill:#1f77b4;stroke:#ffffff;stroke-width:0.75;" x="136.573103" xlink:href="#mbdea3bc400" y="124.468046"/>
     <use style="fill:#1f77b4;stroke:#ffffff;stroke-width:0.75;" x="140.140735" xlink:href="#mbdea3bc400" y="124.068398"/>
     <use style="fill:#1f77b4;stroke:#ffffff;stroke-width:0.75;" x="143.708367" xlink:href="#mbdea3bc400" y="120.338354"/>
     <use style="fill:#1f77b4;stroke:#ffffff;stroke-width:0.75;" x="147.276" xlink:href="#mbdea3bc400" y="125.433861"/>
     <use style="fill:#1f77b4;stroke:#ffffff;stroke-width:0.75;" x="150.843632" xlink:href="#mbdea3bc400" y="124.50135"/>
     <use style="fill:#1f77b4;stroke:#ffffff;stroke-width:0.75;" x="154.411264" xlink:href="#mbdea3bc400" y="112.478618"/>
     <use style="fill:#1f77b4;stroke:#ffffff;stroke-width:0.75;" x="157.978897" xlink:href="#mbdea3bc400" y="117.207781"/>
     <use style="fill:#1f77b4;stroke:#ffffff;stroke-width:0.75;" x="161.546529" xlink:href="#mbdea3bc400" y="107.416416"/>
     <use style="fill:#1f77b4;stroke:#ffffff;stroke-width:0.75;" x="165.114161" xlink:href="#mbdea3bc400" y="114.110513"/>
     <use style="fill:#1f77b4;stroke:#ffffff;stroke-width:0.75;" x="168.681794" xlink:href="#mbdea3bc400" y="105.384874"/>
     <use style="fill:#1f77b4;stroke:#ffffff;stroke-width:0.75;" x="172.249426" xlink:href="#mbdea3bc400" y="103.386636"/>
     <use style="fill:#1f77b4;stroke:#ffffff;stroke-width:0.75;" x="175.817059" xlink:href="#mbdea3bc400" y="101.954566"/>
     <use style="fill:#1f77b4;stroke:#ffffff;stroke-width:0.75;" x="179.384691" xlink:href="#mbdea3bc400" y="97.62505"/>
     <use style="fill:#1f77b4;stroke:#ffffff;stroke-width:0.75;" x="182.952323" xlink:href="#mbdea3bc400" y="96.159676"/>
     <use style="fill:#1f77b4;stroke:#ffffff;stroke-width:0.75;" x="186.519956" xlink:href="#mbdea3bc400" y="95.69342"/>
     <use style="fill:#1f77b4;stroke:#ffffff;stroke-width:0.75;" x="190.087588" xlink:href="#mbdea3bc400" y="97.025579"/>
     <use style="fill:#1f77b4;stroke:#ffffff;stroke-width:0.75;" x="193.65522" xlink:href="#mbdea3bc400" y="92.895887"/>
     <use style="fill:#1f77b4;stroke:#ffffff;stroke-width:0.75;" x="197.222853" xlink:href="#mbdea3bc400" y="92.096592"/>
     <use style="fill:#1f77b4;stroke:#ffffff;stroke-width:0.75;" x="200.790485" xlink:href="#mbdea3bc400" y="90.597914"/>
     <use style="fill:#1f77b4;stroke:#ffffff;stroke-width:0.75;" x="204.358118" xlink:href="#mbdea3bc400" y="90.098354"/>
     <use style="fill:#1f77b4;stroke:#ffffff;stroke-width:0.75;" x="207.92575" xlink:href="#mbdea3bc400" y="88.29994"/>
     <use style="fill:#1f77b4;stroke:#ffffff;stroke-width:0.75;" x="211.493382" xlink:href="#mbdea3bc400" y="86.501526"/>
     <use style="fill:#1f77b4;stroke:#ffffff;stroke-width:0.75;" x="215.061015" xlink:href="#mbdea3bc400" y="84.037032"/>
     <use style="fill:#1f77b4;stroke:#ffffff;stroke-width:0.75;" x="218.628647" xlink:href="#mbdea3bc400" y="81.172892"/>
     <use style="fill:#1f77b4;stroke:#ffffff;stroke-width:0.75;" x="222.196279" xlink:href="#mbdea3bc400" y="82.138706"/>
     <use style="fill:#1f77b4;stroke:#ffffff;stroke-width:0.75;" x="225.763912" xlink:href="#mbdea3bc400" y="75.910865"/>
     <use style="fill:#1f77b4;stroke:#ffffff;stroke-width:0.75;" x="229.331544" xlink:href="#mbdea3bc400" y="76.044081"/>
     <use style="fill:#1f77b4;stroke:#ffffff;stroke-width:0.75;" x="232.899176" xlink:href="#mbdea3bc400" y="74.911746"/>
     <use style="fill:#1f77b4;stroke:#ffffff;stroke-width:0.75;" x="236.466809" xlink:href="#mbdea3bc400" y="72.980116"/>
     <use style="fill:#1f77b4;stroke:#ffffff;stroke-width:0.75;" x="240.034441" xlink:href="#mbdea3bc400" y="73.17994"/>
     <use style="fill:#1f77b4;stroke:#ffffff;stroke-width:0.75;" x="243.602074" xlink:href="#mbdea3bc400" y="71.181702"/>
     <use style="fill:#1f77b4;stroke:#ffffff;stroke-width:0.75;" x="247.169706" xlink:href="#mbdea3bc400" y="71.115094"/>
     <use style="fill:#1f77b4;stroke:#ffffff;stroke-width:0.75;" x="250.737338" xlink:href="#mbdea3bc400" y="66.585755"/>
     <use style="fill:#1f77b4;stroke:#ffffff;stroke-width:0.75;" x="254.304971" xlink:href="#mbdea3bc400" y="66.319323"/>
     <use style="fill:#1f77b4;stroke:#ffffff;stroke-width:0.75;" x="257.872603" xlink:href="#mbdea3bc400" y="65.919676"/>
     <use style="fill:#1f77b4;stroke:#ffffff;stroke-width:0.75;" x="261.440235" xlink:href="#mbdea3bc400" y="64.853949"/>
     <use style="fill:#1f77b4;stroke:#ffffff;stroke-width:0.75;" x="265.007868" xlink:href="#mbdea3bc400" y="62.855711"/>
     <use style="fill:#1f77b4;stroke:#ffffff;stroke-width:0.75;" x="268.5755" xlink:href="#mbdea3bc400" y="63.155447"/>
     <use style="fill:#1f77b4;stroke:#ffffff;stroke-width:0.75;" x="272.143132" xlink:href="#mbdea3bc400" y="62.322847"/>
     <use style="fill:#1f77b4;stroke:#ffffff;stroke-width:0.75;" x="275.710765" xlink:href="#mbdea3bc400" y="60.591041"/>
     <use style="fill:#1f77b4;stroke:#ffffff;stroke-width:0.75;" x="279.278397" xlink:href="#mbdea3bc400" y="58.459588"/>
     <use style="fill:#1f77b4;stroke:#ffffff;stroke-width:0.75;" x="282.84603" xlink:href="#mbdea3bc400" y="58.39298"/>
     <use style="fill:#1f77b4;stroke:#ffffff;stroke-width:0.75;" x="286.413662" xlink:href="#mbdea3bc400" y="58.05994"/>
     <use style="fill:#1f77b4;stroke:#ffffff;stroke-width:0.75;" x="289.981294" xlink:href="#mbdea3bc400" y="58.259764"/>
     <use style="fill:#1f77b4;stroke:#ffffff;stroke-width:0.75;" x="293.548927" xlink:href="#mbdea3bc400" y="57.360557"/>
     <use style="fill:#1f77b4;stroke:#ffffff;stroke-width:0.75;" x="297.116559" xlink:href="#mbdea3bc400" y="56.194918"/>
     <use style="fill:#1f77b4;stroke:#ffffff;stroke-width:0.75;" x="300.684191" xlink:href="#mbdea3bc400" y="56.028398"/>
     <use style="fill:#1f77b4;stroke:#ffffff;stroke-width:0.75;" x="304.251824" xlink:href="#mbdea3bc400" y="55.595447"/>
     <use style="fill:#1f77b4;stroke:#ffffff;stroke-width:0.75;" x="307.819456" xlink:href="#mbdea3bc400" y="55.395623"/>
     <use style="fill:#1f77b4;stroke:#ffffff;stroke-width:0.75;" x="311.387089" xlink:href="#mbdea3bc400" y="54.796151"/>
     <use style="fill:#1f77b4;stroke:#ffffff;stroke-width:0.75;" x="314.954721" xlink:href="#mbdea3bc400" y="54.796151"/>
     <use style="fill:#1f77b4;stroke:#ffffff;stroke-width:0.75;" x="318.522353" xlink:href="#mbdea3bc400" y="55.029279"/>
     <use style="fill:#1f77b4;stroke:#ffffff;stroke-width:0.75;" x="322.089986" xlink:href="#mbdea3bc400" y="54.496416"/>
     <use style="fill:#1f77b4;stroke:#ffffff;stroke-width:0.75;" x="325.657618" xlink:href="#mbdea3bc400" y="54.796151"/>
     <use style="fill:#1f77b4;stroke:#ffffff;stroke-width:0.75;" x="329.22525" xlink:href="#mbdea3bc400" y="54.263288"/>
     <use style="fill:#1f77b4;stroke:#ffffff;stroke-width:0.75;" x="332.792883" xlink:href="#mbdea3bc400" y="54.263288"/>
     <use style="fill:#1f77b4;stroke:#ffffff;stroke-width:0.75;" x="336.360515" xlink:href="#mbdea3bc400" y="54.263288"/>
     <use style="fill:#1f77b4;stroke:#ffffff;stroke-width:0.75;" x="339.928147" xlink:href="#mbdea3bc400" y="53.86364"/>
     <use style="fill:#1f77b4;stroke:#ffffff;stroke-width:0.75;" x="343.49578" xlink:href="#mbdea3bc400" y="53.930248"/>
     <use style="fill:#1f77b4;stroke:#ffffff;stroke-width:0.75;" x="347.063412" xlink:href="#mbdea3bc400" y="53.930248"/>
     <use style="fill:#1f77b4;stroke:#ffffff;stroke-width:0.75;" x="350.631045" xlink:href="#mbdea3bc400" y="53.930248"/>
     <use style="fill:#1f77b4;stroke:#ffffff;stroke-width:0.75;" x="354.198677" xlink:href="#mbdea3bc400" y="51.832099"/>
     <use style="fill:#1f77b4;stroke:#ffffff;stroke-width:0.75;" x="357.766309" xlink:href="#mbdea3bc400" y="51.732187"/>
     <use style="fill:#1f77b4;stroke:#ffffff;stroke-width:0.75;" x="361.333942" xlink:href="#mbdea3bc400" y="52.797914"/>
     <use style="fill:#1f77b4;stroke:#ffffff;stroke-width:0.75;" x="364.901574" xlink:href="#mbdea3bc400" y="50.866284"/>
     <use style="fill:#1f77b4;stroke:#ffffff;stroke-width:0.75;" x="368.469206" xlink:href="#mbdea3bc400" y="50.866284"/>
     <use style="fill:#1f77b4;stroke:#ffffff;stroke-width:0.75;" x="372.036839" xlink:href="#mbdea3bc400" y="50.1669"/>
     <use style="fill:#1f77b4;stroke:#ffffff;stroke-width:0.75;" x="375.604471" xlink:href="#mbdea3bc400" y="49.567429"/>
     <use style="fill:#1f77b4;stroke:#ffffff;stroke-width:0.75;" x="379.172104" xlink:href="#mbdea3bc400" y="49.867165"/>
     <use style="fill:#1f77b4;stroke:#ffffff;stroke-width:0.75;" x="382.739736" xlink:href="#mbdea3bc400" y="49.700645"/>
     <use style="fill:#1f77b4;stroke:#ffffff;stroke-width:0.75;" x="386.307368" xlink:href="#mbdea3bc400" y="49.400909"/>
     <use style="fill:#1f77b4;stroke:#ffffff;stroke-width:0.75;" x="389.875001" xlink:href="#mbdea3bc400" y="49.467517"/>
     <use style="fill:#1f77b4;stroke:#ffffff;stroke-width:0.75;" x="393.442633" xlink:href="#mbdea3bc400" y="48.40179"/>
     <use style="fill:#1f77b4;stroke:#ffffff;stroke-width:0.75;" x="397.010265" xlink:href="#mbdea3bc400" y="48.801438"/>
     <use style="fill:#1f77b4;stroke:#ffffff;stroke-width:0.75;" x="400.577898" xlink:href="#mbdea3bc400" y="48.40179"/>
    </g>
   </g>
   <g id="line2d_18"/>
   <g id="line2d_19"/>
   <g id="line2d_20"/>
   <g id="patch_3">
    <path d="M 59.690625 266.009896 
L 59.690625 32.882143 
" style="fill:none;stroke:#000000;stroke-linecap:square;stroke-linejoin:miter;stroke-width:0.8;"/>
   </g>
   <g id="patch_4">
    <path d="M 75.923352 288.430125 
L 349.441834 288.430125 
" style="fill:none;stroke:#000000;stroke-linecap:square;stroke-linejoin:miter;stroke-width:0.8;"/>
   </g>
   <g id="text_17">
    <!-- poppler_pdf_fuzzer (23h, 14 trials/fuzzer) -->
    <g transform="translate(114.495938 16.318125)scale(0.12 -0.12)">
     <defs>
      <path d="M 1159 525 
L 1159 -1331 
L 581 -1331 
L 581 3500 
L 1159 3500 
L 1159 2969 
Q 1341 3281 1617 3432 
Q 1894 3584 2278 3584 
Q 2916 3584 3314 3078 
Q 3713 2572 3713 1747 
Q 3713 922 3314 415 
Q 2916 -91 2278 -91 
Q 1894 -91 1617 61 
Q 1341 213 1159 525 
z
M 3116 1747 
Q 3116 2381 2855 2742 
Q 2594 3103 2138 3103 
Q 1681 3103 1420 2742 
Q 1159 2381 1159 1747 
Q 1159 1113 1420 752 
Q 1681 391 2138 391 
Q 2594 391 2855 752 
Q 3116 1113 3116 1747 
z
" id="DejaVuSans-70" transform="scale(0.015625)"/>
      <path d="M 603 4863 
L 1178 4863 
L 1178 0 
L 603 0 
L 603 4863 
z
" id="DejaVuSans-6c" transform="scale(0.015625)"/>
      <path d="M 3263 -1063 
L 3263 -1509 
L -63 -1509 
L -63 -1063 
L 3263 -1063 
z
" id="DejaVuSans-5f" transform="scale(0.015625)"/>
      <path d="M 2375 4863 
L 2375 4384 
L 1825 4384 
Q 1516 4384 1395 4259 
Q 1275 4134 1275 3809 
L 1275 3500 
L 2222 3500 
L 2222 3053 
L 1275 3053 
L 1275 0 
L 697 0 
L 697 3053 
L 147 3053 
L 147 3500 
L 697 3500 
L 697 3744 
Q 697 4328 969 4595 
Q 1241 4863 1831 4863 
L 2375 4863 
z
" id="DejaVuSans-66" transform="scale(0.015625)"/>
      <path d="M 353 3500 
L 3084 3500 
L 3084 2975 
L 922 459 
L 3084 459 
L 3084 0 
L 275 0 
L 275 525 
L 2438 3041 
L 353 3041 
L 353 3500 
z
" id="DejaVuSans-7a" transform="scale(0.015625)"/>
      <path d="M 750 794 
L 1409 794 
L 1409 256 
L 897 -744 
L 494 -744 
L 750 256 
L 750 794 
z
" id="DejaVuSans-2c" transform="scale(0.015625)"/>
      <path d="M 2834 3397 
L 2834 2853 
Q 2591 2978 2328 3040 
Q 2066 3103 1784 3103 
Q 1356 3103 1142 2972 
Q 928 2841 928 2578 
Q 928 2378 1081 2264 
Q 1234 2150 1697 2047 
L 1894 2003 
Q 2506 1872 2764 1633 
Q 3022 1394 3022 966 
Q 3022 478 2636 193 
Q 2250 -91 1575 -91 
Q 1294 -91 989 -36 
Q 684 19 347 128 
L 347 722 
Q 666 556 975 473 
Q 1284 391 1588 391 
Q 1994 391 2212 530 
Q 2431 669 2431 922 
Q 2431 1156 2273 1281 
Q 2116 1406 1581 1522 
L 1381 1569 
Q 847 1681 609 1914 
Q 372 2147 372 2553 
Q 372 3047 722 3315 
Q 1072 3584 1716 3584 
Q 2034 3584 2315 3537 
Q 2597 3491 2834 3397 
z
" id="DejaVuSans-73" transform="scale(0.015625)"/>
      <path d="M 1625 4666 
L 2156 4666 
L 531 -594 
L 0 -594 
L 1625 4666 
z
" id="DejaVuSans-2f" transform="scale(0.015625)"/>
     </defs>
     <use xlink:href="#DejaVuSans-70"/>
     <use x="63.476562" xlink:href="#DejaVuSans-6f"/>
     <use x="124.658203" xlink:href="#DejaVuSans-70"/>
     <use x="188.134766" xlink:href="#DejaVuSans-70"/>
     <use x="251.611328" xlink:href="#DejaVuSans-6c"/>
     <use x="279.394531" xlink:href="#DejaVuSans-65"/>
     <use x="340.917969" xlink:href="#DejaVuSans-72"/>
     <use x="382.03125" xlink:href="#DejaVuSans-5f"/>
     <use x="432.03125" xlink:href="#DejaVuSans-70"/>
     <use x="495.507812" xlink:href="#DejaVuSans-64"/>
     <use x="558.984375" xlink:href="#DejaVuSans-66"/>
     <use x="594.189453" xlink:href="#DejaVuSans-5f"/>
     <use x="644.189453" xlink:href="#DejaVuSans-66"/>
     <use x="679.394531" xlink:href="#DejaVuSans-75"/>
     <use x="742.773438" xlink:href="#DejaVuSans-7a"/>
     <use x="795.263672" xlink:href="#DejaVuSans-7a"/>
     <use x="847.753906" xlink:href="#DejaVuSans-65"/>
     <use x="909.277344" xlink:href="#DejaVuSans-72"/>
     <use x="950.390625" xlink:href="#DejaVuSans-20"/>
     <use x="982.177734" xlink:href="#DejaVuSans-28"/>
     <use x="1021.191406" xlink:href="#DejaVuSans-32"/>
     <use x="1084.814453" xlink:href="#DejaVuSans-33"/>
     <use x="1148.4375" xlink:href="#DejaVuSans-68"/>
     <use x="1211.816406" xlink:href="#DejaVuSans-2c"/>
     <use x="1243.603516" xlink:href="#DejaVuSans-20"/>
     <use x="1275.390625" xlink:href="#DejaVuSans-31"/>
     <use x="1339.013672" xlink:href="#DejaVuSans-34"/>
     <use x="1402.636719" xlink:href="#DejaVuSans-20"/>
     <use x="1434.423828" xlink:href="#DejaVuSans-74"/>
     <use x="1473.632812" xlink:href="#DejaVuSans-72"/>
     <use x="1514.746094" xlink:href="#DejaVuSans-69"/>
     <use x="1542.529297" xlink:href="#DejaVuSans-61"/>
     <use x="1603.808594" xlink:href="#DejaVuSans-6c"/>
     <use x="1631.591797" xlink:href="#DejaVuSans-73"/>
     <use x="1683.691406" xlink:href="#DejaVuSans-2f"/>
     <use x="1717.382812" xlink:href="#DejaVuSans-66"/>
     <use x="1752.587891" xlink:href="#DejaVuSans-75"/>
     <use x="1815.966797" xlink:href="#DejaVuSans-7a"/>
     <use x="1868.457031" xlink:href="#DejaVuSans-7a"/>
     <use x="1920.947266" xlink:href="#DejaVuSans-65"/>
     <use x="1982.470703" xlink:href="#DejaVuSans-72"/>
     <use x="2023.583984" xlink:href="#DejaVuSans-29"/>
    </g>
   </g>
   <g id="legend_1">
    <g id="line2d_21">
     <path d="M 420.810625 30.416562 
L 440.810625 30.416562 
" style="fill:none;stroke:#d62728;stroke-linecap:square;stroke-width:1.5;"/>
    </g>
    <g id="line2d_22">
     <defs>
      <path d="M 0 -3 
L -3 3 
L 3 3 
z
" id="mb6aff96da3" style="stroke:#d62728;stroke-linejoin:miter;"/>
     </defs>
     <g>
      <use style="fill:#d62728;stroke:#d62728;stroke-linejoin:miter;" x="430.810625" xlink:href="#mb6aff96da3" y="30.416562"/>
     </g>
    </g>
    <g id="text_18">
     <!-- afl_no_favored -->
     <g transform="translate(448.810625 33.916562)scale(0.1 -0.1)">
      <use xlink:href="#DejaVuSans-61"/>
      <use x="61.279297" xlink:href="#DejaVuSans-66"/>
      <use x="96.484375" xlink:href="#DejaVuSans-6c"/>
      <use x="124.267578" xlink:href="#DejaVuSans-5f"/>
      <use x="174.267578" xlink:href="#DejaVuSans-6e"/>
      <use x="237.646484" xlink:href="#DejaVuSans-6f"/>
      <use x="298.828125" xlink:href="#DejaVuSans-5f"/>
      <use x="348.828125" xlink:href="#DejaVuSans-66"/>
      <use x="384.033203" xlink:href="#DejaVuSans-61"/>
      <use x="445.3125" xlink:href="#DejaVuSans-76"/>
      <use x="504.492188" xlink:href="#DejaVuSans-6f"/>
      <use x="565.673828" xlink:href="#DejaVuSans-72"/>
      <use x="604.537109" xlink:href="#DejaVuSans-65"/>
      <use x="666.060547" xlink:href="#DejaVuSans-64"/>
     </g>
    </g>
    <g id="line2d_23">
     <path d="M 420.810625 45.372813 
L 440.810625 45.372813 
" style="fill:none;stroke:#98df8a;stroke-linecap:square;stroke-width:1.5;"/>
    </g>
    <g id="line2d_24">
     <defs>
      <path d="M -0 3 
L 3 -3 
L -3 -3 
z
" id="m0e83df82ab" style="stroke:#98df8a;stroke-linejoin:miter;"/>
     </defs>
     <g>
      <use style="fill:#98df8a;stroke:#98df8a;stroke-linejoin:miter;" x="430.810625" xlink:href="#m0e83df82ab" y="45.372813"/>
     </g>
    </g>
    <g id="text_19">
     <!-- afl_no_favfactor -->
     <g transform="translate(448.810625 48.872813)scale(0.1 -0.1)">
      <use xlink:href="#DejaVuSans-61"/>
      <use x="61.279297" xlink:href="#DejaVuSans-66"/>
      <use x="96.484375" xlink:href="#DejaVuSans-6c"/>
      <use x="124.267578" xlink:href="#DejaVuSans-5f"/>
      <use x="174.267578" xlink:href="#DejaVuSans-6e"/>
      <use x="237.646484" xlink:href="#DejaVuSans-6f"/>
      <use x="298.828125" xlink:href="#DejaVuSans-5f"/>
      <use x="348.828125" xlink:href="#DejaVuSans-66"/>
      <use x="384.033203" xlink:href="#DejaVuSans-61"/>
      <use x="445.3125" xlink:href="#DejaVuSans-76"/>
      <use x="504.492188" xlink:href="#DejaVuSans-66"/>
      <use x="539.697266" xlink:href="#DejaVuSans-61"/>
      <use x="600.976562" xlink:href="#DejaVuSans-63"/>
      <use x="655.957031" xlink:href="#DejaVuSans-74"/>
      <use x="695.166016" xlink:href="#DejaVuSans-6f"/>
      <use x="756.347656" xlink:href="#DejaVuSans-72"/>
     </g>
    </g>
    <g id="line2d_25">
     <path d="M 420.810625 60.329063 
L 440.810625 60.329063 
" style="fill:none;stroke:#1f77b4;stroke-linecap:square;stroke-width:1.5;"/>
    </g>
    <g id="line2d_26">
     <defs>
      <path d="M 0 3 
C 0.795609 3 1.55874 2.683901 2.12132 2.12132 
C 2.683901 1.55874 3 0.795609 3 0 
C 3 -0.795609 2.683901 -1.55874 2.12132 -2.12132 
C 1.55874 -2.683901 0.795609 -3 0 -3 
C -0.795609 -3 -1.55874 -2.683901 -2.12132 -2.12132 
C -2.683901 -1.55874 -3 -0.795609 -3 0 
C -3 0.795609 -2.683901 1.55874 -2.12132 2.12132 
C -1.55874 2.683901 -0.795609 3 0 3 
z
" id="mfdbf01052c" style="stroke:#1f77b4;"/>
     </defs>
     <g>
      <use style="fill:#1f77b4;stroke:#1f77b4;" x="430.810625" xlink:href="#mfdbf01052c" y="60.329063"/>
     </g>
    </g>
    <g id="text_20">
     <!-- afl -->
     <g transform="translate(448.810625 63.829063)scale(0.1 -0.1)">
      <use xlink:href="#DejaVuSans-61"/>
      <use x="61.279297" xlink:href="#DejaVuSans-66"/>
      <use x="96.484375" xlink:href="#DejaVuSans-6c"/>
     </g>
    </g>
   </g>
  </g>
 </g>
 <defs>
  <clipPath id="p15d0d083ea">
   <rect height="266.112" width="357.12" x="59.690625" y="22.318125"/>
  </clipPath>
 </defs>
</svg>
