<?xml version="1.0" encoding="utf-8" standalone="no"?>
<!DOCTYPE svg PUBLIC "-//W3C//DTD SVG 1.1//EN"
  "http://www.w3.org/Graphics/SVG/1.1/DTD/svg11.dtd">
<svg height="325.986375pt" version="1.1" viewBox="0 0 533.395 325.986375" width="533.395pt" xmlns="http://www.w3.org/2000/svg" xmlns:xlink="http://www.w3.org/1999/xlink">
 <metadata>
  <rdf:RDF xmlns:cc="http://creativecommons.org/ns#" xmlns:dc="http://purl.org/dc/elements/1.1/" xmlns:rdf="http://www.w3.org/1999/02/22-rdf-syntax-ns#">
   <cc:Work>
    <dc:type rdf:resource="http://purl.org/dc/dcmitype/StillImage"/>
    <dc:date>2022-05-24T15:51:34.752057</dc:date>
    <dc:format>image/svg+xml</dc:format>
    <dc:creator>
     <cc:Agent>
      <dc:title>Matplotlib v3.4.3, https://matplotlib.org/</dc:title>
     </cc:Agent>
    </dc:creator>
   </cc:Work>
  </rdf:RDF>
 </metadata>
 <defs>
  <style type="text/css">*{stroke-linecap:butt;stroke-linejoin:round;}</style>
 </defs>
 <g id="figure_1">
  <g id="patch_1">
   <path d="M 0 325.986375 
L 533.395 325.986375 
L 533.395 0 
L 0 0 
z
" style="fill:#ffffff;"/>
  </g>
  <g id="axes_1">
   <g id="patch_2">
    <path d="M 53.328125 288.430125 
L 410.448125 288.430125 
L 410.448125 22.318125 
L 53.328125 22.318125 
z
" style="fill:#ffffff;"/>
   </g>
   <g id="PolyCollection_1">
    <defs>
     <path d="M 69.560852 -231.409374 
L 69.560852 -166.17252 
L 119.327306 -219.26807 
L 148.438816 -226.969643 
L 169.09376 -233.765149 
L 185.11498 -235.577284 
L 198.205269 -237.208205 
L 209.272952 -238.114272 
L 218.860214 -238.114272 
L 227.316779 -239.473374 
L 234.881434 -240.560654 
L 241.724496 -241.013688 
L 247.971723 -242.64461 
L 253.718615 -242.64461 
L 259.039406 -242.010362 
L 263.992943 -242.100969 
L 268.626668 -242.825823 
L 272.979383 -243.822497 
L 277.083233 -243.822497 
L 280.965141 -244.275531 
L 284.647888 -244.275531 
L 288.150915 -245.544025 
L 291.49095 -245.272205 
L 294.68249 -244.819171 
L 297.738177 -245.906452 
L 300.669107 -246.622246 
L 303.485069 -246.631306 
L 306.194742 -246.631306 
L 308.805859 -246.359486 
L 311.32534 -246.087666 
L 313.759397 -246.087666 
L 316.113635 -246.087666 
L 318.393122 -246.087666 
L 320.60246 -246.81252 
L 322.745837 -246.993733 
L 324.827079 -246.993733 
L 326.849687 -247.35163 
L 328.816873 -247.35616 
L 330.731595 -247.174947 
L 332.596578 -246.993733 
L 334.414342 -247.35616 
L 336.187217 -247.35616 
L 337.917369 -247.35616 
L 339.606807 -247.35616 
L 341.257404 -247.35616 
L 342.870906 -247.537374 
L 344.448944 -247.89527 
L 345.993042 -247.809194 
L 347.504631 -247.718587 
L 348.985051 -247.89527 
L 350.435561 -247.718587 
L 351.857347 -247.718587 
L 353.251523 -247.899801 
L 354.619142 -247.990407 
L 355.961196 -248.081014 
L 357.278624 -248.257697 
L 358.572313 -248.443441 
L 359.843104 -248.624654 
L 361.091794 -248.534048 
L 362.319136 -248.443441 
L 363.525851 -248.443441 
L 364.712619 -249.349508 
L 365.880089 -249.077688 
L 367.028878 -249.077688 
L 368.159576 -249.077688 
L 369.272743 -249.349508 
L 370.368914 -249.077688 
L 371.4486 -249.349508 
L 372.512291 -249.349508 
L 373.560453 -249.349508 
L 374.593533 -249.349508 
L 375.611959 -249.349508 
L 376.616141 -249.349508 
L 377.606471 -250.074362 
L 378.583327 -250.074362 
L 379.547071 -249.802542 
L 380.498049 -250.074362 
L 381.436596 -250.255576 
L 382.363032 -250.255576 
L 383.277666 -250.255576 
L 384.180795 -250.255576 
L 385.072705 -250.255576 
L 385.953671 -250.255576 
L 386.823958 -250.255576 
L 387.683823 -250.255576 
L 388.533511 -249.802542 
L 389.373261 -249.802542 
L 390.203303 -250.255576 
L 391.023858 -249.802542 
L 391.835142 -250.255576 
L 392.63736 -250.255576 
L 393.430714 -250.799216 
L 394.215398 -250.799216 
L 394.215398 -291.57225 
L 394.215398 -291.57225 
L 393.430714 -291.57225 
L 392.63736 -291.57225 
L 391.835142 -291.57225 
L 391.023858 -291.391037 
L 390.203303 -291.209823 
L 389.373261 -291.209823 
L 388.533511 -291.391037 
L 387.683823 -291.57225 
L 386.823958 -291.57225 
L 385.953671 -291.57225 
L 385.072705 -291.209823 
L 384.180795 -291.209823 
L 383.277666 -291.57225 
L 382.363032 -291.57225 
L 381.436596 -291.57225 
L 380.498049 -291.209823 
L 379.547071 -291.391037 
L 378.583327 -291.209823 
L 377.606471 -291.391037 
L 376.616141 -291.57225 
L 375.611959 -291.57225 
L 374.593533 -291.57225 
L 373.560453 -291.57225 
L 372.512291 -291.57225 
L 371.4486 -291.57225 
L 370.368914 -290.666183 
L 369.272743 -290.677508 
L 368.159576 -291.30043 
L 367.028878 -290.666183 
L 365.880089 -290.666183 
L 364.712619 -291.57225 
L 363.525851 -290.666183 
L 362.319136 -286.860699 
L 361.091794 -288.763441 
L 359.843104 -286.407666 
L 358.572313 -286.226452 
L 357.278624 -286.951306 
L 355.961196 -287.223126 
L 354.619142 -286.226452 
L 353.251523 -286.045239 
L 351.857347 -286.226452 
L 350.435561 -286.226452 
L 348.985051 -286.047504 
L 347.504631 -285.592205 
L 345.993042 -284.957958 
L 344.448944 -285.682812 
L 342.870906 -285.229778 
L 341.257404 -285.229778 
L 339.606807 -285.229778 
L 337.917369 -285.229778 
L 336.187217 -285.229778 
L 334.414342 -285.229778 
L 332.596578 -285.229778 
L 330.731595 -284.776744 
L 328.816873 -281.061868 
L 326.849687 -281.061868 
L 324.827079 -281.243081 
L 322.745837 -280.880654 
L 320.60246 -281.061868 
L 318.393122 -281.061868 
L 316.113635 -280.880654 
L 313.759397 -280.880654 
L 311.32534 -280.518228 
L 308.805859 -277.256385 
L 306.194742 -270.551486 
L 303.485069 -270.189059 
L 300.669107 -268.195711 
L 297.738177 -258.410183 
L 294.68249 -256.054407 
L 291.49095 -250.618003 
L 288.150915 -250.618003 
L 284.647888 -250.255576 
L 280.965141 -249.983756 
L 277.083233 -248.443441 
L 272.979383 -249.077688 
L 268.626668 -248.443441 
L 263.992943 -249.711935 
L 259.039406 -248.443441 
L 253.718615 -248.443441 
L 247.971723 -247.899801 
L 241.724496 -245.183863 
L 234.881434 -244.909778 
L 227.316779 -245.815846 
L 218.860214 -245.725239 
L 209.272952 -245.725239 
L 198.205269 -244.637958 
L 185.11498 -244.275531 
L 169.09376 -244.094317 
L 148.438816 -243.369463 
L 119.327306 -238.936529 
L 69.560852 -231.409374 
z
" id="m78235715d6" style="stroke:#1f77b4;stroke-opacity:0.2;"/>
    </defs>
    <g clip-path="url(#pc39366c629)">
     <use style="fill:#1f77b4;fill-opacity:0.2;stroke:#1f77b4;stroke-opacity:0.2;" x="0" xlink:href="#m78235715d6" y="325.986375"/>
    </g>
   </g>
   <g id="PolyCollection_2">
    <defs>
     <path d="M 69.560852 -240.651261 
L 69.560852 -232.224834 
L 119.327306 -237.751846 
L 148.438816 -239.745194 
L 169.09376 -241.919756 
L 185.11498 -243.007037 
L 198.205269 -243.550677 
L 209.272952 -244.275531 
L 218.860214 -244.275531 
L 227.316779 -244.637958 
L 234.881434 -245.181598 
L 241.724496 -244.637958 
L 247.971723 -245.000385 
L 253.718615 -245.090992 
L 259.039406 -246.268879 
L 263.992943 -246.268879 
L 268.626668 -246.268879 
L 272.979383 -246.631306 
L 277.083233 -246.631306 
L 280.965141 -246.81252 
L 284.647888 -246.721913 
L 288.150915 -247.174947 
L 291.49095 -247.174947 
L 294.68249 -247.174947 
L 297.738177 -247.174947 
L 300.669107 -247.174947 
L 303.485069 -247.174947 
L 306.194742 -247.174947 
L 308.805859 -247.174947 
L 311.32534 -247.174947 
L 313.759397 -247.174947 
L 316.113635 -247.174947 
L 318.393122 -247.899801 
L 320.60246 -248.262228 
L 322.745837 -248.262228 
L 324.827079 -248.262228 
L 326.849687 -248.443441 
L 328.816873 -248.262228 
L 330.731595 -248.262228 
L 332.596578 -248.987081 
L 334.414342 -248.987081 
L 336.187217 -249.168295 
L 337.917369 -249.349508 
L 339.606807 -249.168295 
L 341.257404 -248.987081 
L 342.870906 -249.349508 
L 344.448944 -248.987081 
L 345.993042 -248.987081 
L 347.504631 -248.987081 
L 348.985051 -248.987081 
L 350.435561 -248.987081 
L 351.857347 -248.987081 
L 353.251523 -248.987081 
L 354.619142 -249.168295 
L 355.961196 -249.168295 
L 357.278624 -249.168295 
L 358.572313 -249.349508 
L 359.843104 -248.987081 
L 361.091794 -248.987081 
L 362.319136 -248.987081 
L 363.525851 -249.349508 
L 364.712619 -248.987081 
L 365.880089 -249.168295 
L 367.028878 -249.168295 
L 368.159576 -249.349508 
L 369.272743 -249.893149 
L 370.368914 -249.893149 
L 371.4486 -249.349508 
L 372.512291 -250.409607 
L 373.560453 -249.349508 
L 374.593533 -249.349508 
L 375.611959 -249.349508 
L 376.616141 -249.349508 
L 377.606471 -250.436789 
L 378.583327 -250.436789 
L 379.547071 -252.883171 
L 380.498049 -252.883171 
L 381.436596 -252.701958 
L 382.363032 -252.701958 
L 383.277666 -250.436789 
L 384.180795 -250.436789 
L 385.072705 -250.436789 
L 385.953671 -252.973778 
L 386.823958 -252.973778 
L 387.683823 -252.973778 
L 388.533511 -254.147135 
L 389.373261 -253.970452 
L 390.203303 -254.147135 
L 391.023858 -254.151666 
L 391.835142 -254.151666 
L 392.63736 -253.970452 
L 393.430714 -252.973778 
L 394.215398 -252.973778 
L 394.215398 -286.317059 
L 394.215398 -286.317059 
L 393.430714 -286.317059 
L 392.63736 -286.317059 
L 391.835142 -286.317059 
L 391.023858 -286.317059 
L 390.203303 -286.317059 
L 389.373261 -286.317059 
L 388.533511 -286.317059 
L 387.683823 -286.317059 
L 386.823958 -286.317059 
L 385.953671 -286.317059 
L 385.072705 -286.317059 
L 384.180795 -286.317059 
L 383.277666 -286.317059 
L 382.363032 -286.317059 
L 381.436596 -286.317059 
L 380.498049 -286.317059 
L 379.547071 -286.317059 
L 378.583327 -286.317059 
L 377.606471 -286.317059 
L 376.616141 -286.317059 
L 375.611959 -286.317059 
L 374.593533 -286.317059 
L 373.560453 -286.317059 
L 372.512291 -286.317059 
L 371.4486 -286.317059 
L 370.368914 -285.682812 
L 369.272743 -283.78007 
L 368.159576 -285.048565 
L 367.028878 -285.048565 
L 365.880089 -285.048565 
L 364.712619 -285.048565 
L 363.525851 -284.867351 
L 362.319136 -284.867351 
L 361.091794 -284.867351 
L 359.843104 -284.867351 
L 358.572313 -283.78007 
L 357.278624 -283.78007 
L 355.961196 -284.233104 
L 354.619142 -283.598857 
L 353.251523 -284.867351 
L 351.857347 -284.686138 
L 350.435561 -283.598857 
L 348.985051 -283.598857 
L 347.504631 -283.598857 
L 345.993042 -283.598857 
L 344.448944 -283.417643 
L 342.870906 -283.417643 
L 341.257404 -283.417643 
L 339.606807 -282.149149 
L 337.917369 -282.058542 
L 336.187217 -279.88398 
L 334.414342 -275.625463 
L 332.596578 -275.625463 
L 330.731595 -275.625463 
L 328.816873 -275.625463 
L 326.849687 -276.712744 
L 324.827079 -276.712744 
L 322.745837 -276.712744 
L 320.60246 -275.652646 
L 318.393122 -275.625463 
L 316.113635 -266.564789 
L 313.759397 -266.021149 
L 311.32534 -250.618003 
L 308.805859 -250.618003 
L 306.194742 -253.245598 
L 303.485069 -253.245598 
L 300.669107 -253.154992 
L 297.738177 -250.255576 
L 294.68249 -249.802542 
L 291.49095 -249.802542 
L 288.150915 -249.349508 
L 284.647888 -249.168295 
L 280.965141 -249.168295 
L 277.083233 -249.349508 
L 272.979383 -248.987081 
L 268.626668 -248.987081 
L 263.992943 -248.987081 
L 259.039406 -248.987081 
L 253.718615 -247.809194 
L 247.971723 -247.809194 
L 241.724496 -247.718587 
L 234.881434 -247.174947 
L 227.316779 -246.450093 
L 218.860214 -246.450093 
L 209.272952 -246.450093 
L 198.205269 -246.087666 
L 185.11498 -245.000385 
L 169.09376 -243.550677 
L 148.438816 -243.007037 
L 119.327306 -242.282183 
L 69.560852 -240.651261 
z
" id="m563bd7ee7a" style="stroke:#98df8a;stroke-opacity:0.2;"/>
    </defs>
    <g clip-path="url(#pc39366c629)">
     <use style="fill:#98df8a;fill-opacity:0.2;stroke:#98df8a;stroke-opacity:0.2;" x="0" xlink:href="#m563bd7ee7a" y="325.986375"/>
    </g>
   </g>
   <g id="PolyCollection_3">
    <defs>
     <path d="M 69.560852 -205.314632 
L 69.560852 -49.65225 
L 119.327306 -208.576475 
L 148.438816 -219.979333 
L 169.09376 -224.342048 
L 185.11498 -224.342048 
L 198.205269 -229.959666 
L 209.272952 -231.49998 
L 218.860214 -232.315441 
L 227.316779 -233.221508 
L 234.881434 -233.402722 
L 241.724496 -233.402722 
L 247.971723 -236.120924 
L 253.718615 -236.655504 
L 259.039406 -236.302138 
L 263.992943 -238.295486 
L 268.626668 -238.114272 
L 272.979383 -238.657913 
L 277.083233 -240.560654 
L 280.965141 -240.832475 
L 284.647888 -242.100969 
L 288.150915 -243.369463 
L 291.49095 -243.369463 
L 294.68249 -243.369463 
L 297.738177 -244.094317 
L 300.669107 -245.088726 
L 303.485069 -245.181598 
L 306.194742 -245.181598 
L 308.805859 -245.362812 
L 311.32534 -245.362812 
L 313.759397 -245.362812 
L 316.113635 -245.725239 
L 318.393122 -245.453419 
L 320.60246 -245.725239 
L 322.745837 -245.725239 
L 324.827079 -245.725239 
L 326.849687 -245.725239 
L 328.816873 -245.725239 
L 330.731595 -245.725239 
L 332.596578 -246.450093 
L 334.414342 -246.81252 
L 336.187217 -246.81252 
L 337.917369 -247.709526 
L 339.606807 -247.718587 
L 341.257404 -247.082075 
L 342.870906 -247.174947 
L 344.448944 -247.35163 
L 345.993042 -247.718587 
L 347.504631 -247.718587 
L 348.985051 -247.718587 
L 350.435561 -247.718587 
L 351.857347 -248.081014 
L 353.251523 -247.990407 
L 354.619142 -248.081014 
L 355.961196 -248.081014 
L 357.278624 -248.081014 
L 358.572313 -248.078749 
L 359.843104 -247.990407 
L 361.091794 -247.990407 
L 362.319136 -248.081014 
L 363.525851 -247.990407 
L 364.712619 -248.081014 
L 365.880089 -247.990407 
L 367.028878 -248.078749 
L 368.159576 -248.081014 
L 369.272743 -248.081014 
L 370.368914 -248.081014 
L 371.4486 -248.081014 
L 372.512291 -248.081014 
L 373.560453 -248.081014 
L 374.593533 -248.081014 
L 375.611959 -248.081014 
L 376.616141 -248.081014 
L 377.606471 -248.081014 
L 378.583327 -248.081014 
L 379.547071 -248.081014 
L 380.498049 -248.081014 
L 381.436596 -248.262228 
L 382.363032 -248.259962 
L 383.277666 -248.171621 
L 384.180795 -248.262228 
L 385.072705 -248.443441 
L 385.953671 -248.443441 
L 386.823958 -248.443441 
L 387.683823 -248.352834 
L 388.533511 -248.352834 
L 389.373261 -248.443441 
L 390.203303 -248.443441 
L 391.023858 -248.352834 
L 391.835142 -248.352834 
L 392.63736 -248.443441 
L 393.430714 -248.443441 
L 394.215398 -248.715261 
L 394.215398 -255.510767 
L 394.215398 -255.510767 
L 393.430714 -255.510767 
L 392.63736 -255.510767 
L 391.835142 -255.510767 
L 391.023858 -255.510767 
L 390.203303 -255.329553 
L 389.373261 -252.883171 
L 388.533511 -255.329553 
L 387.683823 -255.329553 
L 386.823958 -255.329553 
L 385.953671 -255.329553 
L 385.072705 -255.329553 
L 384.180795 -255.42016 
L 383.277666 -255.329553 
L 382.363032 -255.329553 
L 381.436596 -255.329553 
L 380.498049 -255.42016 
L 379.547071 -255.329553 
L 378.583327 -255.329553 
L 377.606471 -255.329553 
L 376.616141 -255.329553 
L 375.611959 -255.329553 
L 374.593533 -255.329553 
L 373.560453 -255.329553 
L 372.512291 -255.329553 
L 371.4486 -255.329553 
L 370.368914 -254.785913 
L 369.272743 -254.785913 
L 368.159576 -254.785913 
L 367.028878 -254.785913 
L 365.880089 -254.785913 
L 364.712619 -254.785913 
L 363.525851 -254.785913 
L 362.319136 -252.520744 
L 361.091794 -254.785913 
L 359.843104 -254.785913 
L 358.572313 -254.785913 
L 357.278624 -254.785913 
L 355.961196 -254.785913 
L 354.619142 -254.788178 
L 353.251523 -254.785913 
L 351.857347 -254.785913 
L 350.435561 -249.625859 
L 348.985051 -249.530722 
L 347.504631 -249.802542 
L 345.993042 -249.530722 
L 344.448944 -249.621329 
L 342.870906 -249.530722 
L 341.257404 -249.621329 
L 339.606807 -249.530722 
L 337.917369 -249.530722 
L 336.187217 -249.349508 
L 334.414342 -249.349508 
L 332.596578 -249.349508 
L 330.731595 -249.349508 
L 328.816873 -249.349508 
L 326.849687 -249.258902 
L 324.827079 -249.168295 
L 322.745837 -249.168295 
L 320.60246 -248.987081 
L 318.393122 -248.805868 
L 316.113635 -248.805868 
L 313.759397 -248.805868 
L 311.32534 -248.805868 
L 308.805859 -248.805868 
L 306.194742 -248.805868 
L 303.485069 -248.62692 
L 300.669107 -248.534048 
L 297.738177 -248.443441 
L 294.68249 -248.081014 
L 291.49095 -247.899801 
L 288.150915 -247.446767 
L 284.647888 -246.721913 
L 280.965141 -246.450093 
L 277.083233 -246.450093 
L 272.979383 -244.819171 
L 268.626668 -244.640223 
L 263.992943 -244.366138 
L 259.039406 -243.822497 
L 253.718615 -243.46007 
L 247.971723 -242.282183 
L 241.724496 -241.376115 
L 234.881434 -240.832475 
L 227.316779 -240.832475 
L 218.860214 -238.476699 
L 209.272952 -237.389419 
L 198.205269 -236.120924 
L 185.11498 -235.12425 
L 169.09376 -233.583935 
L 148.438816 -231.590587 
L 119.327306 -224.342048 
L 69.560852 -205.314632 
z
" id="m4e34aa08cc" style="stroke:#d62728;stroke-opacity:0.2;"/>
    </defs>
    <g clip-path="url(#pc39366c629)">
     <use style="fill:#d62728;fill-opacity:0.2;stroke:#d62728;stroke-opacity:0.2;" x="0" xlink:href="#m4e34aa08cc" y="325.986375"/>
    </g>
   </g>
   <g id="matplotlib.axis_1">
    <g id="xtick_1">
     <g id="line2d_1">
      <defs>
       <path d="M 0 0 
L 0 3.5 
" id="m355a69bae1" style="stroke:#000000;stroke-width:0.8;"/>
      </defs>
      <g>
       <use style="stroke:#000000;stroke-width:0.8;" x="69.560852" xlink:href="#m355a69bae1" y="288.430125"/>
      </g>
     </g>
     <g id="text_1">
      <!-- 14m -->
      <g transform="translate(58.32804 303.028562)scale(0.1 -0.1)">
       <defs>
        <path d="M 794 531 
L 1825 531 
L 1825 4091 
L 703 3866 
L 703 4441 
L 1819 4666 
L 2450 4666 
L 2450 531 
L 3481 531 
L 3481 0 
L 794 0 
L 794 531 
z
" id="DejaVuSans-31" transform="scale(0.015625)"/>
        <path d="M 2419 4116 
L 825 1625 
L 2419 1625 
L 2419 4116 
z
M 2253 4666 
L 3047 4666 
L 3047 1625 
L 3713 1625 
L 3713 1100 
L 3047 1100 
L 3047 0 
L 2419 0 
L 2419 1100 
L 313 1100 
L 313 1709 
L 2253 4666 
z
" id="DejaVuSans-34" transform="scale(0.015625)"/>
        <path d="M 3328 2828 
Q 3544 3216 3844 3400 
Q 4144 3584 4550 3584 
Q 5097 3584 5394 3201 
Q 5691 2819 5691 2113 
L 5691 0 
L 5113 0 
L 5113 2094 
Q 5113 2597 4934 2840 
Q 4756 3084 4391 3084 
Q 3944 3084 3684 2787 
Q 3425 2491 3425 1978 
L 3425 0 
L 2847 0 
L 2847 2094 
Q 2847 2600 2669 2842 
Q 2491 3084 2119 3084 
Q 1678 3084 1418 2786 
Q 1159 2488 1159 1978 
L 1159 0 
L 581 0 
L 581 3500 
L 1159 3500 
L 1159 2956 
Q 1356 3278 1631 3431 
Q 1906 3584 2284 3584 
Q 2666 3584 2933 3390 
Q 3200 3197 3328 2828 
z
" id="DejaVuSans-6d" transform="scale(0.015625)"/>
       </defs>
       <use xlink:href="#DejaVuSans-31"/>
       <use x="63.623047" xlink:href="#DejaVuSans-34"/>
       <use x="127.246094" xlink:href="#DejaVuSans-6d"/>
      </g>
     </g>
    </g>
    <g id="xtick_2">
     <g id="line2d_2">
      <g>
       <use style="stroke:#000000;stroke-width:0.8;" x="134.491935" xlink:href="#m355a69bae1" y="288.430125"/>
      </g>
     </g>
     <g id="text_2">
      <!-- 37m -->
      <g transform="translate(123.259122 303.028562)scale(0.1 -0.1)">
       <defs>
        <path d="M 2597 2516 
Q 3050 2419 3304 2112 
Q 3559 1806 3559 1356 
Q 3559 666 3084 287 
Q 2609 -91 1734 -91 
Q 1441 -91 1130 -33 
Q 819 25 488 141 
L 488 750 
Q 750 597 1062 519 
Q 1375 441 1716 441 
Q 2309 441 2620 675 
Q 2931 909 2931 1356 
Q 2931 1769 2642 2001 
Q 2353 2234 1838 2234 
L 1294 2234 
L 1294 2753 
L 1863 2753 
Q 2328 2753 2575 2939 
Q 2822 3125 2822 3475 
Q 2822 3834 2567 4026 
Q 2313 4219 1838 4219 
Q 1578 4219 1281 4162 
Q 984 4106 628 3988 
L 628 4550 
Q 988 4650 1302 4700 
Q 1616 4750 1894 4750 
Q 2613 4750 3031 4423 
Q 3450 4097 3450 3541 
Q 3450 3153 3228 2886 
Q 3006 2619 2597 2516 
z
" id="DejaVuSans-33" transform="scale(0.015625)"/>
        <path d="M 525 4666 
L 3525 4666 
L 3525 4397 
L 1831 0 
L 1172 0 
L 2766 4134 
L 525 4134 
L 525 4666 
z
" id="DejaVuSans-37" transform="scale(0.015625)"/>
       </defs>
       <use xlink:href="#DejaVuSans-33"/>
       <use x="63.623047" xlink:href="#DejaVuSans-37"/>
       <use x="127.246094" xlink:href="#DejaVuSans-6d"/>
      </g>
     </g>
    </g>
    <g id="xtick_3">
     <g id="line2d_3">
      <g>
       <use style="stroke:#000000;stroke-width:0.8;" x="199.423017" xlink:href="#m355a69bae1" y="288.430125"/>
      </g>
     </g>
     <g id="text_3">
      <!-- 1h:31m -->
      <g transform="translate(180.15583 303.028562)scale(0.1 -0.1)">
       <defs>
        <path d="M 3513 2113 
L 3513 0 
L 2938 0 
L 2938 2094 
Q 2938 2591 2744 2837 
Q 2550 3084 2163 3084 
Q 1697 3084 1428 2787 
Q 1159 2491 1159 1978 
L 1159 0 
L 581 0 
L 581 4863 
L 1159 4863 
L 1159 2956 
Q 1366 3272 1645 3428 
Q 1925 3584 2291 3584 
Q 2894 3584 3203 3211 
Q 3513 2838 3513 2113 
z
" id="DejaVuSans-68" transform="scale(0.015625)"/>
        <path d="M 750 794 
L 1409 794 
L 1409 0 
L 750 0 
L 750 794 
z
M 750 3309 
L 1409 3309 
L 1409 2516 
L 750 2516 
L 750 3309 
z
" id="DejaVuSans-3a" transform="scale(0.015625)"/>
       </defs>
       <use xlink:href="#DejaVuSans-31"/>
       <use x="63.623047" xlink:href="#DejaVuSans-68"/>
       <use x="127.001953" xlink:href="#DejaVuSans-3a"/>
       <use x="160.693359" xlink:href="#DejaVuSans-33"/>
       <use x="224.316406" xlink:href="#DejaVuSans-31"/>
       <use x="287.939453" xlink:href="#DejaVuSans-6d"/>
      </g>
     </g>
    </g>
    <g id="xtick_4">
     <g id="line2d_4">
      <g>
       <use style="stroke:#000000;stroke-width:0.8;" x="264.3541" xlink:href="#m355a69bae1" y="288.430125"/>
      </g>
     </g>
     <g id="text_4">
      <!-- 3h:46m -->
      <g transform="translate(245.086912 303.028562)scale(0.1 -0.1)">
       <defs>
        <path d="M 2113 2584 
Q 1688 2584 1439 2293 
Q 1191 2003 1191 1497 
Q 1191 994 1439 701 
Q 1688 409 2113 409 
Q 2538 409 2786 701 
Q 3034 994 3034 1497 
Q 3034 2003 2786 2293 
Q 2538 2584 2113 2584 
z
M 3366 4563 
L 3366 3988 
Q 3128 4100 2886 4159 
Q 2644 4219 2406 4219 
Q 1781 4219 1451 3797 
Q 1122 3375 1075 2522 
Q 1259 2794 1537 2939 
Q 1816 3084 2150 3084 
Q 2853 3084 3261 2657 
Q 3669 2231 3669 1497 
Q 3669 778 3244 343 
Q 2819 -91 2113 -91 
Q 1303 -91 875 529 
Q 447 1150 447 2328 
Q 447 3434 972 4092 
Q 1497 4750 2381 4750 
Q 2619 4750 2861 4703 
Q 3103 4656 3366 4563 
z
" id="DejaVuSans-36" transform="scale(0.015625)"/>
       </defs>
       <use xlink:href="#DejaVuSans-33"/>
       <use x="63.623047" xlink:href="#DejaVuSans-68"/>
       <use x="127.001953" xlink:href="#DejaVuSans-3a"/>
       <use x="160.693359" xlink:href="#DejaVuSans-34"/>
       <use x="224.316406" xlink:href="#DejaVuSans-36"/>
       <use x="287.939453" xlink:href="#DejaVuSans-6d"/>
      </g>
     </g>
    </g>
    <g id="xtick_5">
     <g id="line2d_5">
      <g>
       <use style="stroke:#000000;stroke-width:0.8;" x="329.285182" xlink:href="#m355a69bae1" y="288.430125"/>
      </g>
     </g>
     <g id="text_5">
      <!-- 9h:18m -->
      <g transform="translate(310.017995 303.028562)scale(0.1 -0.1)">
       <defs>
        <path d="M 703 97 
L 703 672 
Q 941 559 1184 500 
Q 1428 441 1663 441 
Q 2288 441 2617 861 
Q 2947 1281 2994 2138 
Q 2813 1869 2534 1725 
Q 2256 1581 1919 1581 
Q 1219 1581 811 2004 
Q 403 2428 403 3163 
Q 403 3881 828 4315 
Q 1253 4750 1959 4750 
Q 2769 4750 3195 4129 
Q 3622 3509 3622 2328 
Q 3622 1225 3098 567 
Q 2575 -91 1691 -91 
Q 1453 -91 1209 -44 
Q 966 3 703 97 
z
M 1959 2075 
Q 2384 2075 2632 2365 
Q 2881 2656 2881 3163 
Q 2881 3666 2632 3958 
Q 2384 4250 1959 4250 
Q 1534 4250 1286 3958 
Q 1038 3666 1038 3163 
Q 1038 2656 1286 2365 
Q 1534 2075 1959 2075 
z
" id="DejaVuSans-39" transform="scale(0.015625)"/>
        <path d="M 2034 2216 
Q 1584 2216 1326 1975 
Q 1069 1734 1069 1313 
Q 1069 891 1326 650 
Q 1584 409 2034 409 
Q 2484 409 2743 651 
Q 3003 894 3003 1313 
Q 3003 1734 2745 1975 
Q 2488 2216 2034 2216 
z
M 1403 2484 
Q 997 2584 770 2862 
Q 544 3141 544 3541 
Q 544 4100 942 4425 
Q 1341 4750 2034 4750 
Q 2731 4750 3128 4425 
Q 3525 4100 3525 3541 
Q 3525 3141 3298 2862 
Q 3072 2584 2669 2484 
Q 3125 2378 3379 2068 
Q 3634 1759 3634 1313 
Q 3634 634 3220 271 
Q 2806 -91 2034 -91 
Q 1263 -91 848 271 
Q 434 634 434 1313 
Q 434 1759 690 2068 
Q 947 2378 1403 2484 
z
M 1172 3481 
Q 1172 3119 1398 2916 
Q 1625 2713 2034 2713 
Q 2441 2713 2670 2916 
Q 2900 3119 2900 3481 
Q 2900 3844 2670 4047 
Q 2441 4250 2034 4250 
Q 1625 4250 1398 4047 
Q 1172 3844 1172 3481 
z
" id="DejaVuSans-38" transform="scale(0.015625)"/>
       </defs>
       <use xlink:href="#DejaVuSans-39"/>
       <use x="63.623047" xlink:href="#DejaVuSans-68"/>
       <use x="127.001953" xlink:href="#DejaVuSans-3a"/>
       <use x="160.693359" xlink:href="#DejaVuSans-31"/>
       <use x="224.316406" xlink:href="#DejaVuSans-38"/>
       <use x="287.939453" xlink:href="#DejaVuSans-6d"/>
      </g>
     </g>
    </g>
    <g id="xtick_6">
     <g id="line2d_6">
      <g>
       <use style="stroke:#000000;stroke-width:0.8;" x="394.216265" xlink:href="#m355a69bae1" y="288.430125"/>
      </g>
     </g>
     <g id="text_6">
      <!-- 23h -->
      <g transform="translate(384.685015 303.028562)scale(0.1 -0.1)">
       <defs>
        <path d="M 1228 531 
L 3431 531 
L 3431 0 
L 469 0 
L 469 531 
Q 828 903 1448 1529 
Q 2069 2156 2228 2338 
Q 2531 2678 2651 2914 
Q 2772 3150 2772 3378 
Q 2772 3750 2511 3984 
Q 2250 4219 1831 4219 
Q 1534 4219 1204 4116 
Q 875 4013 500 3803 
L 500 4441 
Q 881 4594 1212 4672 
Q 1544 4750 1819 4750 
Q 2544 4750 2975 4387 
Q 3406 4025 3406 3419 
Q 3406 3131 3298 2873 
Q 3191 2616 2906 2266 
Q 2828 2175 2409 1742 
Q 1991 1309 1228 531 
z
" id="DejaVuSans-32" transform="scale(0.015625)"/>
       </defs>
       <use xlink:href="#DejaVuSans-32"/>
       <use x="63.623047" xlink:href="#DejaVuSans-33"/>
       <use x="127.246094" xlink:href="#DejaVuSans-68"/>
      </g>
     </g>
    </g>
    <g id="xtick_7">
     <g id="line2d_7">
      <defs>
       <path d="M 0 0 
L 0 2 
" id="mf8834dbf99" style="stroke:#000000;stroke-width:0.6;"/>
      </defs>
      <g>
       <use style="stroke:#000000;stroke-width:0.6;" x="61.104288" xlink:href="#mf8834dbf99" y="288.430125"/>
      </g>
     </g>
    </g>
    <g id="xtick_8">
     <g id="line2d_8">
      <g>
       <use style="stroke:#000000;stroke-width:0.6;" x="126.891961" xlink:href="#mf8834dbf99" y="288.430125"/>
      </g>
     </g>
    </g>
    <g id="xtick_9">
     <g id="line2d_9">
      <g>
       <use style="stroke:#000000;stroke-width:0.6;" x="156.00347" xlink:href="#mf8834dbf99" y="288.430125"/>
      </g>
     </g>
    </g>
    <g id="xtick_10">
     <g id="line2d_10">
      <g>
       <use style="stroke:#000000;stroke-width:0.6;" x="176.658415" xlink:href="#mf8834dbf99" y="288.430125"/>
      </g>
     </g>
    </g>
    <g id="xtick_11">
     <g id="line2d_11">
      <g>
       <use style="stroke:#000000;stroke-width:0.6;" x="192.679635" xlink:href="#mf8834dbf99" y="288.430125"/>
      </g>
     </g>
    </g>
    <g id="xtick_12">
     <g id="line2d_12">
      <g>
       <use style="stroke:#000000;stroke-width:0.6;" x="205.769924" xlink:href="#mf8834dbf99" y="288.430125"/>
      </g>
     </g>
    </g>
    <g id="xtick_13">
     <g id="line2d_13">
      <g>
       <use style="stroke:#000000;stroke-width:0.6;" x="216.837607" xlink:href="#mf8834dbf99" y="288.430125"/>
      </g>
     </g>
    </g>
    <g id="xtick_14">
     <g id="line2d_14">
      <g>
       <use style="stroke:#000000;stroke-width:0.6;" x="226.424869" xlink:href="#mf8834dbf99" y="288.430125"/>
      </g>
     </g>
    </g>
    <g id="xtick_15">
     <g id="line2d_15">
      <g>
       <use style="stroke:#000000;stroke-width:0.6;" x="234.881434" xlink:href="#mf8834dbf99" y="288.430125"/>
      </g>
     </g>
    </g>
    <g id="xtick_16">
     <g id="line2d_16">
      <g>
       <use style="stroke:#000000;stroke-width:0.6;" x="292.212543" xlink:href="#mf8834dbf99" y="288.430125"/>
      </g>
     </g>
    </g>
    <g id="xtick_17">
     <g id="line2d_17">
      <g>
       <use style="stroke:#000000;stroke-width:0.6;" x="321.324052" xlink:href="#mf8834dbf99" y="288.430125"/>
      </g>
     </g>
    </g>
    <g id="xtick_18">
     <g id="line2d_18">
      <g>
       <use style="stroke:#000000;stroke-width:0.6;" x="341.978996" xlink:href="#mf8834dbf99" y="288.430125"/>
      </g>
     </g>
    </g>
    <g id="xtick_19">
     <g id="line2d_19">
      <g>
       <use style="stroke:#000000;stroke-width:0.6;" x="358.000216" xlink:href="#mf8834dbf99" y="288.430125"/>
      </g>
     </g>
    </g>
    <g id="xtick_20">
     <g id="line2d_20">
      <g>
       <use style="stroke:#000000;stroke-width:0.6;" x="371.090506" xlink:href="#mf8834dbf99" y="288.430125"/>
      </g>
     </g>
    </g>
    <g id="xtick_21">
     <g id="line2d_21">
      <g>
       <use style="stroke:#000000;stroke-width:0.6;" x="382.158188" xlink:href="#mf8834dbf99" y="288.430125"/>
      </g>
     </g>
    </g>
    <g id="xtick_22">
     <g id="line2d_22">
      <g>
       <use style="stroke:#000000;stroke-width:0.6;" x="391.74545" xlink:href="#mf8834dbf99" y="288.430125"/>
      </g>
     </g>
    </g>
    <g id="xtick_23">
     <g id="line2d_23">
      <g>
       <use style="stroke:#000000;stroke-width:0.6;" x="400.202015" xlink:href="#mf8834dbf99" y="288.430125"/>
      </g>
     </g>
    </g>
    <g id="text_7">
     <!-- Time (hour:minute) -->
     <g transform="translate(183.481094 316.706687)scale(0.1 -0.1)">
      <defs>
       <path d="M -19 4666 
L 3928 4666 
L 3928 4134 
L 2272 4134 
L 2272 0 
L 1638 0 
L 1638 4134 
L -19 4134 
L -19 4666 
z
" id="DejaVuSans-54" transform="scale(0.015625)"/>
       <path d="M 603 3500 
L 1178 3500 
L 1178 0 
L 603 0 
L 603 3500 
z
M 603 4863 
L 1178 4863 
L 1178 4134 
L 603 4134 
L 603 4863 
z
" id="DejaVuSans-69" transform="scale(0.015625)"/>
       <path d="M 3597 1894 
L 3597 1613 
L 953 1613 
Q 991 1019 1311 708 
Q 1631 397 2203 397 
Q 2534 397 2845 478 
Q 3156 559 3463 722 
L 3463 178 
Q 3153 47 2828 -22 
Q 2503 -91 2169 -91 
Q 1331 -91 842 396 
Q 353 884 353 1716 
Q 353 2575 817 3079 
Q 1281 3584 2069 3584 
Q 2775 3584 3186 3129 
Q 3597 2675 3597 1894 
z
M 3022 2063 
Q 3016 2534 2758 2815 
Q 2500 3097 2075 3097 
Q 1594 3097 1305 2825 
Q 1016 2553 972 2059 
L 3022 2063 
z
" id="DejaVuSans-65" transform="scale(0.015625)"/>
       <path id="DejaVuSans-20" transform="scale(0.015625)"/>
       <path d="M 1984 4856 
Q 1566 4138 1362 3434 
Q 1159 2731 1159 2009 
Q 1159 1288 1364 580 
Q 1569 -128 1984 -844 
L 1484 -844 
Q 1016 -109 783 600 
Q 550 1309 550 2009 
Q 550 2706 781 3412 
Q 1013 4119 1484 4856 
L 1984 4856 
z
" id="DejaVuSans-28" transform="scale(0.015625)"/>
       <path d="M 1959 3097 
Q 1497 3097 1228 2736 
Q 959 2375 959 1747 
Q 959 1119 1226 758 
Q 1494 397 1959 397 
Q 2419 397 2687 759 
Q 2956 1122 2956 1747 
Q 2956 2369 2687 2733 
Q 2419 3097 1959 3097 
z
M 1959 3584 
Q 2709 3584 3137 3096 
Q 3566 2609 3566 1747 
Q 3566 888 3137 398 
Q 2709 -91 1959 -91 
Q 1206 -91 779 398 
Q 353 888 353 1747 
Q 353 2609 779 3096 
Q 1206 3584 1959 3584 
z
" id="DejaVuSans-6f" transform="scale(0.015625)"/>
       <path d="M 544 1381 
L 544 3500 
L 1119 3500 
L 1119 1403 
Q 1119 906 1312 657 
Q 1506 409 1894 409 
Q 2359 409 2629 706 
Q 2900 1003 2900 1516 
L 2900 3500 
L 3475 3500 
L 3475 0 
L 2900 0 
L 2900 538 
Q 2691 219 2414 64 
Q 2138 -91 1772 -91 
Q 1169 -91 856 284 
Q 544 659 544 1381 
z
M 1991 3584 
L 1991 3584 
z
" id="DejaVuSans-75" transform="scale(0.015625)"/>
       <path d="M 2631 2963 
Q 2534 3019 2420 3045 
Q 2306 3072 2169 3072 
Q 1681 3072 1420 2755 
Q 1159 2438 1159 1844 
L 1159 0 
L 581 0 
L 581 3500 
L 1159 3500 
L 1159 2956 
Q 1341 3275 1631 3429 
Q 1922 3584 2338 3584 
Q 2397 3584 2469 3576 
Q 2541 3569 2628 3553 
L 2631 2963 
z
" id="DejaVuSans-72" transform="scale(0.015625)"/>
       <path d="M 3513 2113 
L 3513 0 
L 2938 0 
L 2938 2094 
Q 2938 2591 2744 2837 
Q 2550 3084 2163 3084 
Q 1697 3084 1428 2787 
Q 1159 2491 1159 1978 
L 1159 0 
L 581 0 
L 581 3500 
L 1159 3500 
L 1159 2956 
Q 1366 3272 1645 3428 
Q 1925 3584 2291 3584 
Q 2894 3584 3203 3211 
Q 3513 2838 3513 2113 
z
" id="DejaVuSans-6e" transform="scale(0.015625)"/>
       <path d="M 1172 4494 
L 1172 3500 
L 2356 3500 
L 2356 3053 
L 1172 3053 
L 1172 1153 
Q 1172 725 1289 603 
Q 1406 481 1766 481 
L 2356 481 
L 2356 0 
L 1766 0 
Q 1100 0 847 248 
Q 594 497 594 1153 
L 594 3053 
L 172 3053 
L 172 3500 
L 594 3500 
L 594 4494 
L 1172 4494 
z
" id="DejaVuSans-74" transform="scale(0.015625)"/>
       <path d="M 513 4856 
L 1013 4856 
Q 1481 4119 1714 3412 
Q 1947 2706 1947 2009 
Q 1947 1309 1714 600 
Q 1481 -109 1013 -844 
L 513 -844 
Q 928 -128 1133 580 
Q 1338 1288 1338 2009 
Q 1338 2731 1133 3434 
Q 928 4138 513 4856 
z
" id="DejaVuSans-29" transform="scale(0.015625)"/>
      </defs>
      <use xlink:href="#DejaVuSans-54"/>
      <use x="57.958984" xlink:href="#DejaVuSans-69"/>
      <use x="85.742188" xlink:href="#DejaVuSans-6d"/>
      <use x="183.154297" xlink:href="#DejaVuSans-65"/>
      <use x="244.677734" xlink:href="#DejaVuSans-20"/>
      <use x="276.464844" xlink:href="#DejaVuSans-28"/>
      <use x="315.478516" xlink:href="#DejaVuSans-68"/>
      <use x="378.857422" xlink:href="#DejaVuSans-6f"/>
      <use x="440.039062" xlink:href="#DejaVuSans-75"/>
      <use x="503.417969" xlink:href="#DejaVuSans-72"/>
      <use x="542.78125" xlink:href="#DejaVuSans-3a"/>
      <use x="576.472656" xlink:href="#DejaVuSans-6d"/>
      <use x="673.884766" xlink:href="#DejaVuSans-69"/>
      <use x="701.667969" xlink:href="#DejaVuSans-6e"/>
      <use x="765.046875" xlink:href="#DejaVuSans-75"/>
      <use x="828.425781" xlink:href="#DejaVuSans-74"/>
      <use x="867.634766" xlink:href="#DejaVuSans-65"/>
      <use x="929.158203" xlink:href="#DejaVuSans-29"/>
     </g>
    </g>
   </g>
   <g id="matplotlib.axis_2">
    <g id="ytick_1">
     <g id="line2d_24">
      <defs>
       <path d="M 0 0 
L -3.5 0 
" id="mf3f155a3ca" style="stroke:#000000;stroke-width:0.8;"/>
      </defs>
      <g>
       <use style="stroke:#000000;stroke-width:0.8;" x="53.328125" xlink:href="#mf3f155a3ca" y="260.568552"/>
      </g>
     </g>
     <g id="text_8">
      <!-- 1400 -->
      <g transform="translate(20.878125 264.367771)scale(0.1 -0.1)">
       <defs>
        <path d="M 2034 4250 
Q 1547 4250 1301 3770 
Q 1056 3291 1056 2328 
Q 1056 1369 1301 889 
Q 1547 409 2034 409 
Q 2525 409 2770 889 
Q 3016 1369 3016 2328 
Q 3016 3291 2770 3770 
Q 2525 4250 2034 4250 
z
M 2034 4750 
Q 2819 4750 3233 4129 
Q 3647 3509 3647 2328 
Q 3647 1150 3233 529 
Q 2819 -91 2034 -91 
Q 1250 -91 836 529 
Q 422 1150 422 2328 
Q 422 3509 836 4129 
Q 1250 4750 2034 4750 
z
" id="DejaVuSans-30" transform="scale(0.015625)"/>
       </defs>
       <use xlink:href="#DejaVuSans-31"/>
       <use x="63.623047" xlink:href="#DejaVuSans-34"/>
       <use x="127.246094" xlink:href="#DejaVuSans-30"/>
       <use x="190.869141" xlink:href="#DejaVuSans-30"/>
      </g>
     </g>
    </g>
    <g id="ytick_2">
     <g id="line2d_25">
      <g>
       <use style="stroke:#000000;stroke-width:0.8;" x="53.328125" xlink:href="#mf3f155a3ca" y="224.325855"/>
      </g>
     </g>
     <g id="text_9">
      <!-- 1600 -->
      <g transform="translate(20.878125 228.125074)scale(0.1 -0.1)">
       <use xlink:href="#DejaVuSans-31"/>
       <use x="63.623047" xlink:href="#DejaVuSans-36"/>
       <use x="127.246094" xlink:href="#DejaVuSans-30"/>
       <use x="190.869141" xlink:href="#DejaVuSans-30"/>
      </g>
     </g>
    </g>
    <g id="ytick_3">
     <g id="line2d_26">
      <g>
       <use style="stroke:#000000;stroke-width:0.8;" x="53.328125" xlink:href="#mf3f155a3ca" y="188.083159"/>
      </g>
     </g>
     <g id="text_10">
      <!-- 1800 -->
      <g transform="translate(20.878125 191.882377)scale(0.1 -0.1)">
       <use xlink:href="#DejaVuSans-31"/>
       <use x="63.623047" xlink:href="#DejaVuSans-38"/>
       <use x="127.246094" xlink:href="#DejaVuSans-30"/>
       <use x="190.869141" xlink:href="#DejaVuSans-30"/>
      </g>
     </g>
    </g>
    <g id="ytick_4">
     <g id="line2d_27">
      <g>
       <use style="stroke:#000000;stroke-width:0.8;" x="53.328125" xlink:href="#mf3f155a3ca" y="151.840462"/>
      </g>
     </g>
     <g id="text_11">
      <!-- 2000 -->
      <g transform="translate(20.878125 155.639681)scale(0.1 -0.1)">
       <use xlink:href="#DejaVuSans-32"/>
       <use x="63.623047" xlink:href="#DejaVuSans-30"/>
       <use x="127.246094" xlink:href="#DejaVuSans-30"/>
       <use x="190.869141" xlink:href="#DejaVuSans-30"/>
      </g>
     </g>
    </g>
    <g id="ytick_5">
     <g id="line2d_28">
      <g>
       <use style="stroke:#000000;stroke-width:0.8;" x="53.328125" xlink:href="#mf3f155a3ca" y="115.597765"/>
      </g>
     </g>
     <g id="text_12">
      <!-- 2200 -->
      <g transform="translate(20.878125 119.396984)scale(0.1 -0.1)">
       <use xlink:href="#DejaVuSans-32"/>
       <use x="63.623047" xlink:href="#DejaVuSans-32"/>
       <use x="127.246094" xlink:href="#DejaVuSans-30"/>
       <use x="190.869141" xlink:href="#DejaVuSans-30"/>
      </g>
     </g>
    </g>
    <g id="ytick_6">
     <g id="line2d_29">
      <g>
       <use style="stroke:#000000;stroke-width:0.8;" x="53.328125" xlink:href="#mf3f155a3ca" y="79.355069"/>
      </g>
     </g>
     <g id="text_13">
      <!-- 2400 -->
      <g transform="translate(20.878125 83.154288)scale(0.1 -0.1)">
       <use xlink:href="#DejaVuSans-32"/>
       <use x="63.623047" xlink:href="#DejaVuSans-34"/>
       <use x="127.246094" xlink:href="#DejaVuSans-30"/>
       <use x="190.869141" xlink:href="#DejaVuSans-30"/>
      </g>
     </g>
    </g>
    <g id="ytick_7">
     <g id="line2d_30">
      <g>
       <use style="stroke:#000000;stroke-width:0.8;" x="53.328125" xlink:href="#mf3f155a3ca" y="43.112372"/>
      </g>
     </g>
     <g id="text_14">
      <!-- 2600 -->
      <g transform="translate(20.878125 46.911591)scale(0.1 -0.1)">
       <use xlink:href="#DejaVuSans-32"/>
       <use x="63.623047" xlink:href="#DejaVuSans-36"/>
       <use x="127.246094" xlink:href="#DejaVuSans-30"/>
       <use x="190.869141" xlink:href="#DejaVuSans-30"/>
      </g>
     </g>
    </g>
    <g id="text_15">
     <!-- Code region coverage -->
     <g transform="translate(14.798438 210.379594)rotate(-90)scale(0.1 -0.1)">
      <defs>
       <path d="M 4122 4306 
L 4122 3641 
Q 3803 3938 3442 4084 
Q 3081 4231 2675 4231 
Q 1875 4231 1450 3742 
Q 1025 3253 1025 2328 
Q 1025 1406 1450 917 
Q 1875 428 2675 428 
Q 3081 428 3442 575 
Q 3803 722 4122 1019 
L 4122 359 
Q 3791 134 3420 21 
Q 3050 -91 2638 -91 
Q 1578 -91 968 557 
Q 359 1206 359 2328 
Q 359 3453 968 4101 
Q 1578 4750 2638 4750 
Q 3056 4750 3426 4639 
Q 3797 4528 4122 4306 
z
" id="DejaVuSans-43" transform="scale(0.015625)"/>
       <path d="M 2906 2969 
L 2906 4863 
L 3481 4863 
L 3481 0 
L 2906 0 
L 2906 525 
Q 2725 213 2448 61 
Q 2172 -91 1784 -91 
Q 1150 -91 751 415 
Q 353 922 353 1747 
Q 353 2572 751 3078 
Q 1150 3584 1784 3584 
Q 2172 3584 2448 3432 
Q 2725 3281 2906 2969 
z
M 947 1747 
Q 947 1113 1208 752 
Q 1469 391 1925 391 
Q 2381 391 2643 752 
Q 2906 1113 2906 1747 
Q 2906 2381 2643 2742 
Q 2381 3103 1925 3103 
Q 1469 3103 1208 2742 
Q 947 2381 947 1747 
z
" id="DejaVuSans-64" transform="scale(0.015625)"/>
       <path d="M 2906 1791 
Q 2906 2416 2648 2759 
Q 2391 3103 1925 3103 
Q 1463 3103 1205 2759 
Q 947 2416 947 1791 
Q 947 1169 1205 825 
Q 1463 481 1925 481 
Q 2391 481 2648 825 
Q 2906 1169 2906 1791 
z
M 3481 434 
Q 3481 -459 3084 -895 
Q 2688 -1331 1869 -1331 
Q 1566 -1331 1297 -1286 
Q 1028 -1241 775 -1147 
L 775 -588 
Q 1028 -725 1275 -790 
Q 1522 -856 1778 -856 
Q 2344 -856 2625 -561 
Q 2906 -266 2906 331 
L 2906 616 
Q 2728 306 2450 153 
Q 2172 0 1784 0 
Q 1141 0 747 490 
Q 353 981 353 1791 
Q 353 2603 747 3093 
Q 1141 3584 1784 3584 
Q 2172 3584 2450 3431 
Q 2728 3278 2906 2969 
L 2906 3500 
L 3481 3500 
L 3481 434 
z
" id="DejaVuSans-67" transform="scale(0.015625)"/>
       <path d="M 3122 3366 
L 3122 2828 
Q 2878 2963 2633 3030 
Q 2388 3097 2138 3097 
Q 1578 3097 1268 2742 
Q 959 2388 959 1747 
Q 959 1106 1268 751 
Q 1578 397 2138 397 
Q 2388 397 2633 464 
Q 2878 531 3122 666 
L 3122 134 
Q 2881 22 2623 -34 
Q 2366 -91 2075 -91 
Q 1284 -91 818 406 
Q 353 903 353 1747 
Q 353 2603 823 3093 
Q 1294 3584 2113 3584 
Q 2378 3584 2631 3529 
Q 2884 3475 3122 3366 
z
" id="DejaVuSans-63" transform="scale(0.015625)"/>
       <path d="M 191 3500 
L 800 3500 
L 1894 563 
L 2988 3500 
L 3597 3500 
L 2284 0 
L 1503 0 
L 191 3500 
z
" id="DejaVuSans-76" transform="scale(0.015625)"/>
       <path d="M 2194 1759 
Q 1497 1759 1228 1600 
Q 959 1441 959 1056 
Q 959 750 1161 570 
Q 1363 391 1709 391 
Q 2188 391 2477 730 
Q 2766 1069 2766 1631 
L 2766 1759 
L 2194 1759 
z
M 3341 1997 
L 3341 0 
L 2766 0 
L 2766 531 
Q 2569 213 2275 61 
Q 1981 -91 1556 -91 
Q 1019 -91 701 211 
Q 384 513 384 1019 
Q 384 1609 779 1909 
Q 1175 2209 1959 2209 
L 2766 2209 
L 2766 2266 
Q 2766 2663 2505 2880 
Q 2244 3097 1772 3097 
Q 1472 3097 1187 3025 
Q 903 2953 641 2809 
L 641 3341 
Q 956 3463 1253 3523 
Q 1550 3584 1831 3584 
Q 2591 3584 2966 3190 
Q 3341 2797 3341 1997 
z
" id="DejaVuSans-61" transform="scale(0.015625)"/>
      </defs>
      <use xlink:href="#DejaVuSans-43"/>
      <use x="69.824219" xlink:href="#DejaVuSans-6f"/>
      <use x="131.005859" xlink:href="#DejaVuSans-64"/>
      <use x="194.482422" xlink:href="#DejaVuSans-65"/>
      <use x="256.005859" xlink:href="#DejaVuSans-20"/>
      <use x="287.792969" xlink:href="#DejaVuSans-72"/>
      <use x="326.65625" xlink:href="#DejaVuSans-65"/>
      <use x="388.179688" xlink:href="#DejaVuSans-67"/>
      <use x="451.65625" xlink:href="#DejaVuSans-69"/>
      <use x="479.439453" xlink:href="#DejaVuSans-6f"/>
      <use x="540.621094" xlink:href="#DejaVuSans-6e"/>
      <use x="604" xlink:href="#DejaVuSans-20"/>
      <use x="635.787109" xlink:href="#DejaVuSans-63"/>
      <use x="690.767578" xlink:href="#DejaVuSans-6f"/>
      <use x="751.949219" xlink:href="#DejaVuSans-76"/>
      <use x="811.128906" xlink:href="#DejaVuSans-65"/>
      <use x="872.652344" xlink:href="#DejaVuSans-72"/>
      <use x="913.765625" xlink:href="#DejaVuSans-61"/>
      <use x="975.044922" xlink:href="#DejaVuSans-67"/>
      <use x="1038.521484" xlink:href="#DejaVuSans-65"/>
     </g>
    </g>
   </g>
   <g id="line2d_31">
    <path clip-path="url(#pc39366c629)" d="M 69.560852 111.248642 
L 119.327306 93.127294 
L 148.438816 91.586979 
L 169.09376 85.878754 
L 185.11498 84.88208 
L 198.205269 85.697541 
L 209.272952 85.697541 
L 218.860214 84.066619 
L 227.316779 83.251159 
L 234.881434 83.069945 
L 241.724496 82.616912 
L 247.971723 81.892058 
L 253.718615 81.892058 
L 259.039406 81.620237 
L 263.992943 82.073271 
L 268.626668 81.076597 
L 272.979383 79.989316 
L 277.083233 79.989316 
L 280.965141 79.264462 
L 284.647888 79.264462 
L 288.150915 78.811428 
L 291.49095 79.083249 
L 294.68249 79.355069 
L 297.738177 78.811428 
L 300.669107 77.271114 
L 303.485069 77.542934 
L 306.194742 76.81808 
L 308.805859 76.999294 
L 311.32534 76.636867 
L 313.759397 76.636867 
L 316.113635 76.636867 
L 318.393122 76.636867 
L 320.60246 76.636867 
L 322.745837 76.636867 
L 324.827079 76.636867 
L 326.849687 71.925316 
L 328.816873 76.636867 
L 330.731595 76.999294 
L 332.596578 76.636867 
L 334.414342 76.636867 
L 336.187217 76.636867 
L 337.917369 76.636867 
L 339.606807 76.636867 
L 341.257404 76.636867 
L 342.870906 76.636867 
L 344.448944 76.636867 
L 345.993042 76.636867 
L 347.504631 76.636867 
L 348.985051 61.777361 
L 350.435561 61.052507 
L 351.857347 60.69008 
L 353.251523 60.055833 
L 354.619142 60.055833 
L 355.961196 59.965226 
L 357.278624 59.965226 
L 358.572313 73.375024 
L 359.843104 73.375024 
L 361.091794 73.375024 
L 362.319136 70.475608 
L 363.525851 70.475608 
L 364.712619 70.475608 
L 365.880089 70.928642 
L 367.028878 70.928642 
L 368.159576 70.928642 
L 369.272743 70.928642 
L 370.368914 70.928642 
L 371.4486 70.475608 
L 372.512291 70.475608 
L 373.560453 70.475608 
L 374.593533 70.475608 
L 375.611959 70.475608 
L 376.616141 70.475608 
L 377.606471 63.227069 
L 378.583327 63.227069 
L 379.547071 63.227069 
L 380.498049 63.227069 
L 381.436596 55.978529 
L 382.363032 55.978529 
L 383.277666 55.978529 
L 384.180795 55.978529 
L 385.072705 55.978529 
L 385.953671 55.978529 
L 386.823958 55.978529 
L 387.683823 55.978529 
L 388.533511 63.227069 
L 389.373261 63.227069 
L 390.203303 63.227069 
L 391.023858 63.227069 
L 391.835142 55.978529 
L 392.63736 45.649361 
L 393.430714 43.021765 
L 394.215398 43.021765 
" style="fill:none;stroke:#1f77b4;stroke-linecap:square;stroke-width:1.5;"/>
    <defs>
     <path d="M 0 3 
C 0.795609 3 1.55874 2.683901 2.12132 2.12132 
C 2.683901 1.55874 3 0.795609 3 0 
C 3 -0.795609 2.683901 -1.55874 2.12132 -2.12132 
C 1.55874 -2.683901 0.795609 -3 0 -3 
C -0.795609 -3 -1.55874 -2.683901 -2.12132 -2.12132 
C -2.683901 -1.55874 -3 -0.795609 -3 0 
C -3 0.795609 -2.683901 1.55874 -2.12132 2.12132 
C -1.55874 2.683901 -0.795609 3 0 3 
z
" id="mdeb4fa3bd1" style="stroke:#ffffff;stroke-width:0.75;"/>
    </defs>
    <g clip-path="url(#pc39366c629)">
     <use style="fill:#1f77b4;stroke:#ffffff;stroke-width:0.75;" x="69.560852" xlink:href="#mdeb4fa3bd1" y="111.248642"/>
     <use style="fill:#1f77b4;stroke:#ffffff;stroke-width:0.75;" x="119.327306" xlink:href="#mdeb4fa3bd1" y="93.127294"/>
     <use style="fill:#1f77b4;stroke:#ffffff;stroke-width:0.75;" x="148.438816" xlink:href="#mdeb4fa3bd1" y="91.586979"/>
     <use style="fill:#1f77b4;stroke:#ffffff;stroke-width:0.75;" x="169.09376" xlink:href="#mdeb4fa3bd1" y="85.878754"/>
     <use style="fill:#1f77b4;stroke:#ffffff;stroke-width:0.75;" x="185.11498" xlink:href="#mdeb4fa3bd1" y="84.88208"/>
     <use style="fill:#1f77b4;stroke:#ffffff;stroke-width:0.75;" x="198.205269" xlink:href="#mdeb4fa3bd1" y="85.697541"/>
     <use style="fill:#1f77b4;stroke:#ffffff;stroke-width:0.75;" x="209.272952" xlink:href="#mdeb4fa3bd1" y="85.697541"/>
     <use style="fill:#1f77b4;stroke:#ffffff;stroke-width:0.75;" x="218.860214" xlink:href="#mdeb4fa3bd1" y="84.066619"/>
     <use style="fill:#1f77b4;stroke:#ffffff;stroke-width:0.75;" x="227.316779" xlink:href="#mdeb4fa3bd1" y="83.251159"/>
     <use style="fill:#1f77b4;stroke:#ffffff;stroke-width:0.75;" x="234.881434" xlink:href="#mdeb4fa3bd1" y="83.069945"/>
     <use style="fill:#1f77b4;stroke:#ffffff;stroke-width:0.75;" x="241.724496" xlink:href="#mdeb4fa3bd1" y="82.616912"/>
     <use style="fill:#1f77b4;stroke:#ffffff;stroke-width:0.75;" x="247.971723" xlink:href="#mdeb4fa3bd1" y="81.892058"/>
     <use style="fill:#1f77b4;stroke:#ffffff;stroke-width:0.75;" x="253.718615" xlink:href="#mdeb4fa3bd1" y="81.892058"/>
     <use style="fill:#1f77b4;stroke:#ffffff;stroke-width:0.75;" x="259.039406" xlink:href="#mdeb4fa3bd1" y="81.620237"/>
     <use style="fill:#1f77b4;stroke:#ffffff;stroke-width:0.75;" x="263.992943" xlink:href="#mdeb4fa3bd1" y="82.073271"/>
     <use style="fill:#1f77b4;stroke:#ffffff;stroke-width:0.75;" x="268.626668" xlink:href="#mdeb4fa3bd1" y="81.076597"/>
     <use style="fill:#1f77b4;stroke:#ffffff;stroke-width:0.75;" x="272.979383" xlink:href="#mdeb4fa3bd1" y="79.989316"/>
     <use style="fill:#1f77b4;stroke:#ffffff;stroke-width:0.75;" x="277.083233" xlink:href="#mdeb4fa3bd1" y="79.989316"/>
     <use style="fill:#1f77b4;stroke:#ffffff;stroke-width:0.75;" x="280.965141" xlink:href="#mdeb4fa3bd1" y="79.264462"/>
     <use style="fill:#1f77b4;stroke:#ffffff;stroke-width:0.75;" x="284.647888" xlink:href="#mdeb4fa3bd1" y="79.264462"/>
     <use style="fill:#1f77b4;stroke:#ffffff;stroke-width:0.75;" x="288.150915" xlink:href="#mdeb4fa3bd1" y="78.811428"/>
     <use style="fill:#1f77b4;stroke:#ffffff;stroke-width:0.75;" x="291.49095" xlink:href="#mdeb4fa3bd1" y="79.083249"/>
     <use style="fill:#1f77b4;stroke:#ffffff;stroke-width:0.75;" x="294.68249" xlink:href="#mdeb4fa3bd1" y="79.355069"/>
     <use style="fill:#1f77b4;stroke:#ffffff;stroke-width:0.75;" x="297.738177" xlink:href="#mdeb4fa3bd1" y="78.811428"/>
     <use style="fill:#1f77b4;stroke:#ffffff;stroke-width:0.75;" x="300.669107" xlink:href="#mdeb4fa3bd1" y="77.271114"/>
     <use style="fill:#1f77b4;stroke:#ffffff;stroke-width:0.75;" x="303.485069" xlink:href="#mdeb4fa3bd1" y="77.542934"/>
     <use style="fill:#1f77b4;stroke:#ffffff;stroke-width:0.75;" x="306.194742" xlink:href="#mdeb4fa3bd1" y="76.81808"/>
     <use style="fill:#1f77b4;stroke:#ffffff;stroke-width:0.75;" x="308.805859" xlink:href="#mdeb4fa3bd1" y="76.999294"/>
     <use style="fill:#1f77b4;stroke:#ffffff;stroke-width:0.75;" x="311.32534" xlink:href="#mdeb4fa3bd1" y="76.636867"/>
     <use style="fill:#1f77b4;stroke:#ffffff;stroke-width:0.75;" x="313.759397" xlink:href="#mdeb4fa3bd1" y="76.636867"/>
     <use style="fill:#1f77b4;stroke:#ffffff;stroke-width:0.75;" x="316.113635" xlink:href="#mdeb4fa3bd1" y="76.636867"/>
     <use style="fill:#1f77b4;stroke:#ffffff;stroke-width:0.75;" x="318.393122" xlink:href="#mdeb4fa3bd1" y="76.636867"/>
     <use style="fill:#1f77b4;stroke:#ffffff;stroke-width:0.75;" x="320.60246" xlink:href="#mdeb4fa3bd1" y="76.636867"/>
     <use style="fill:#1f77b4;stroke:#ffffff;stroke-width:0.75;" x="322.745837" xlink:href="#mdeb4fa3bd1" y="76.636867"/>
     <use style="fill:#1f77b4;stroke:#ffffff;stroke-width:0.75;" x="324.827079" xlink:href="#mdeb4fa3bd1" y="76.636867"/>
     <use style="fill:#1f77b4;stroke:#ffffff;stroke-width:0.75;" x="326.849687" xlink:href="#mdeb4fa3bd1" y="71.925316"/>
     <use style="fill:#1f77b4;stroke:#ffffff;stroke-width:0.75;" x="328.816873" xlink:href="#mdeb4fa3bd1" y="76.636867"/>
     <use style="fill:#1f77b4;stroke:#ffffff;stroke-width:0.75;" x="330.731595" xlink:href="#mdeb4fa3bd1" y="76.999294"/>
     <use style="fill:#1f77b4;stroke:#ffffff;stroke-width:0.75;" x="332.596578" xlink:href="#mdeb4fa3bd1" y="76.636867"/>
     <use style="fill:#1f77b4;stroke:#ffffff;stroke-width:0.75;" x="334.414342" xlink:href="#mdeb4fa3bd1" y="76.636867"/>
     <use style="fill:#1f77b4;stroke:#ffffff;stroke-width:0.75;" x="336.187217" xlink:href="#mdeb4fa3bd1" y="76.636867"/>
     <use style="fill:#1f77b4;stroke:#ffffff;stroke-width:0.75;" x="337.917369" xlink:href="#mdeb4fa3bd1" y="76.636867"/>
     <use style="fill:#1f77b4;stroke:#ffffff;stroke-width:0.75;" x="339.606807" xlink:href="#mdeb4fa3bd1" y="76.636867"/>
     <use style="fill:#1f77b4;stroke:#ffffff;stroke-width:0.75;" x="341.257404" xlink:href="#mdeb4fa3bd1" y="76.636867"/>
     <use style="fill:#1f77b4;stroke:#ffffff;stroke-width:0.75;" x="342.870906" xlink:href="#mdeb4fa3bd1" y="76.636867"/>
     <use style="fill:#1f77b4;stroke:#ffffff;stroke-width:0.75;" x="344.448944" xlink:href="#mdeb4fa3bd1" y="76.636867"/>
     <use style="fill:#1f77b4;stroke:#ffffff;stroke-width:0.75;" x="345.993042" xlink:href="#mdeb4fa3bd1" y="76.636867"/>
     <use style="fill:#1f77b4;stroke:#ffffff;stroke-width:0.75;" x="347.504631" xlink:href="#mdeb4fa3bd1" y="76.636867"/>
     <use style="fill:#1f77b4;stroke:#ffffff;stroke-width:0.75;" x="348.985051" xlink:href="#mdeb4fa3bd1" y="61.777361"/>
     <use style="fill:#1f77b4;stroke:#ffffff;stroke-width:0.75;" x="350.435561" xlink:href="#mdeb4fa3bd1" y="61.052507"/>
     <use style="fill:#1f77b4;stroke:#ffffff;stroke-width:0.75;" x="351.857347" xlink:href="#mdeb4fa3bd1" y="60.69008"/>
     <use style="fill:#1f77b4;stroke:#ffffff;stroke-width:0.75;" x="353.251523" xlink:href="#mdeb4fa3bd1" y="60.055833"/>
     <use style="fill:#1f77b4;stroke:#ffffff;stroke-width:0.75;" x="354.619142" xlink:href="#mdeb4fa3bd1" y="60.055833"/>
     <use style="fill:#1f77b4;stroke:#ffffff;stroke-width:0.75;" x="355.961196" xlink:href="#mdeb4fa3bd1" y="59.965226"/>
     <use style="fill:#1f77b4;stroke:#ffffff;stroke-width:0.75;" x="357.278624" xlink:href="#mdeb4fa3bd1" y="59.965226"/>
     <use style="fill:#1f77b4;stroke:#ffffff;stroke-width:0.75;" x="358.572313" xlink:href="#mdeb4fa3bd1" y="73.375024"/>
     <use style="fill:#1f77b4;stroke:#ffffff;stroke-width:0.75;" x="359.843104" xlink:href="#mdeb4fa3bd1" y="73.375024"/>
     <use style="fill:#1f77b4;stroke:#ffffff;stroke-width:0.75;" x="361.091794" xlink:href="#mdeb4fa3bd1" y="73.375024"/>
     <use style="fill:#1f77b4;stroke:#ffffff;stroke-width:0.75;" x="362.319136" xlink:href="#mdeb4fa3bd1" y="70.475608"/>
     <use style="fill:#1f77b4;stroke:#ffffff;stroke-width:0.75;" x="363.525851" xlink:href="#mdeb4fa3bd1" y="70.475608"/>
     <use style="fill:#1f77b4;stroke:#ffffff;stroke-width:0.75;" x="364.712619" xlink:href="#mdeb4fa3bd1" y="70.475608"/>
     <use style="fill:#1f77b4;stroke:#ffffff;stroke-width:0.75;" x="365.880089" xlink:href="#mdeb4fa3bd1" y="70.928642"/>
     <use style="fill:#1f77b4;stroke:#ffffff;stroke-width:0.75;" x="367.028878" xlink:href="#mdeb4fa3bd1" y="70.928642"/>
     <use style="fill:#1f77b4;stroke:#ffffff;stroke-width:0.75;" x="368.159576" xlink:href="#mdeb4fa3bd1" y="70.928642"/>
     <use style="fill:#1f77b4;stroke:#ffffff;stroke-width:0.75;" x="369.272743" xlink:href="#mdeb4fa3bd1" y="70.928642"/>
     <use style="fill:#1f77b4;stroke:#ffffff;stroke-width:0.75;" x="370.368914" xlink:href="#mdeb4fa3bd1" y="70.928642"/>
     <use style="fill:#1f77b4;stroke:#ffffff;stroke-width:0.75;" x="371.4486" xlink:href="#mdeb4fa3bd1" y="70.475608"/>
     <use style="fill:#1f77b4;stroke:#ffffff;stroke-width:0.75;" x="372.512291" xlink:href="#mdeb4fa3bd1" y="70.475608"/>
     <use style="fill:#1f77b4;stroke:#ffffff;stroke-width:0.75;" x="373.560453" xlink:href="#mdeb4fa3bd1" y="70.475608"/>
     <use style="fill:#1f77b4;stroke:#ffffff;stroke-width:0.75;" x="374.593533" xlink:href="#mdeb4fa3bd1" y="70.475608"/>
     <use style="fill:#1f77b4;stroke:#ffffff;stroke-width:0.75;" x="375.611959" xlink:href="#mdeb4fa3bd1" y="70.475608"/>
     <use style="fill:#1f77b4;stroke:#ffffff;stroke-width:0.75;" x="376.616141" xlink:href="#mdeb4fa3bd1" y="70.475608"/>
     <use style="fill:#1f77b4;stroke:#ffffff;stroke-width:0.75;" x="377.606471" xlink:href="#mdeb4fa3bd1" y="63.227069"/>
     <use style="fill:#1f77b4;stroke:#ffffff;stroke-width:0.75;" x="378.583327" xlink:href="#mdeb4fa3bd1" y="63.227069"/>
     <use style="fill:#1f77b4;stroke:#ffffff;stroke-width:0.75;" x="379.547071" xlink:href="#mdeb4fa3bd1" y="63.227069"/>
     <use style="fill:#1f77b4;stroke:#ffffff;stroke-width:0.75;" x="380.498049" xlink:href="#mdeb4fa3bd1" y="63.227069"/>
     <use style="fill:#1f77b4;stroke:#ffffff;stroke-width:0.75;" x="381.436596" xlink:href="#mdeb4fa3bd1" y="55.978529"/>
     <use style="fill:#1f77b4;stroke:#ffffff;stroke-width:0.75;" x="382.363032" xlink:href="#mdeb4fa3bd1" y="55.978529"/>
     <use style="fill:#1f77b4;stroke:#ffffff;stroke-width:0.75;" x="383.277666" xlink:href="#mdeb4fa3bd1" y="55.978529"/>
     <use style="fill:#1f77b4;stroke:#ffffff;stroke-width:0.75;" x="384.180795" xlink:href="#mdeb4fa3bd1" y="55.978529"/>
     <use style="fill:#1f77b4;stroke:#ffffff;stroke-width:0.75;" x="385.072705" xlink:href="#mdeb4fa3bd1" y="55.978529"/>
     <use style="fill:#1f77b4;stroke:#ffffff;stroke-width:0.75;" x="385.953671" xlink:href="#mdeb4fa3bd1" y="55.978529"/>
     <use style="fill:#1f77b4;stroke:#ffffff;stroke-width:0.75;" x="386.823958" xlink:href="#mdeb4fa3bd1" y="55.978529"/>
     <use style="fill:#1f77b4;stroke:#ffffff;stroke-width:0.75;" x="387.683823" xlink:href="#mdeb4fa3bd1" y="55.978529"/>
     <use style="fill:#1f77b4;stroke:#ffffff;stroke-width:0.75;" x="388.533511" xlink:href="#mdeb4fa3bd1" y="63.227069"/>
     <use style="fill:#1f77b4;stroke:#ffffff;stroke-width:0.75;" x="389.373261" xlink:href="#mdeb4fa3bd1" y="63.227069"/>
     <use style="fill:#1f77b4;stroke:#ffffff;stroke-width:0.75;" x="390.203303" xlink:href="#mdeb4fa3bd1" y="63.227069"/>
     <use style="fill:#1f77b4;stroke:#ffffff;stroke-width:0.75;" x="391.023858" xlink:href="#mdeb4fa3bd1" y="63.227069"/>
     <use style="fill:#1f77b4;stroke:#ffffff;stroke-width:0.75;" x="391.835142" xlink:href="#mdeb4fa3bd1" y="55.978529"/>
     <use style="fill:#1f77b4;stroke:#ffffff;stroke-width:0.75;" x="392.63736" xlink:href="#mdeb4fa3bd1" y="45.649361"/>
     <use style="fill:#1f77b4;stroke:#ffffff;stroke-width:0.75;" x="393.430714" xlink:href="#mdeb4fa3bd1" y="43.021765"/>
     <use style="fill:#1f77b4;stroke:#ffffff;stroke-width:0.75;" x="394.215398" xlink:href="#mdeb4fa3bd1" y="43.021765"/>
    </g>
   </g>
   <g id="line2d_32">
    <path clip-path="url(#pc39366c629)" d="M 69.560852 89.412417 
L 119.327306 84.791473 
L 148.438816 84.247833 
L 169.09376 83.160552 
L 185.11498 82.435698 
L 198.205269 81.529631 
L 209.272952 80.98599 
L 218.860214 80.623563 
L 227.316779 80.261136 
L 234.881434 79.626889 
L 241.724496 79.626889 
L 247.971723 79.445676 
L 253.718615 79.173855 
L 259.039406 78.811428 
L 263.992943 78.811428 
L 268.626668 78.811428 
L 272.979383 78.449001 
L 277.083233 78.449001 
L 280.965141 78.267788 
L 284.647888 78.267788 
L 288.150915 77.905361 
L 291.49095 77.814754 
L 294.68249 77.814754 
L 297.738177 77.814754 
L 300.669107 77.814754 
L 303.485069 77.814754 
L 306.194742 77.724147 
L 308.805859 77.724147 
L 311.32534 77.724147 
L 313.759397 76.999294 
L 316.113635 76.999294 
L 318.393122 76.999294 
L 320.60246 76.636867 
L 322.745837 76.636867 
L 324.827079 76.636867 
L 326.849687 76.636867 
L 328.816873 76.636867 
L 330.731595 76.636867 
L 332.596578 69.388327 
L 334.414342 69.388327 
L 336.187217 66.670125 
L 337.917369 66.670125 
L 339.606807 66.670125 
L 341.257404 69.388327 
L 342.870906 69.388327 
L 344.448944 69.388327 
L 345.993042 69.388327 
L 347.504631 69.388327 
L 348.985051 69.388327 
L 350.435561 69.388327 
L 351.857347 69.388327 
L 353.251523 69.388327 
L 354.619142 66.670125 
L 355.961196 66.670125 
L 357.278624 66.670125 
L 358.572313 66.670125 
L 359.843104 69.388327 
L 361.091794 69.388327 
L 362.319136 69.388327 
L 363.525851 69.388327 
L 364.712619 69.388327 
L 365.880089 69.388327 
L 367.028878 69.388327 
L 368.159576 69.388327 
L 369.272743 66.670125 
L 370.368914 66.670125 
L 371.4486 69.388327 
L 372.512291 69.388327 
L 373.560453 69.388327 
L 374.593533 69.388327 
L 375.611959 69.388327 
L 376.616141 69.388327 
L 377.606471 69.388327 
L 378.583327 69.388327 
L 379.547071 66.670125 
L 380.498049 66.670125 
L 381.436596 66.670125 
L 382.363032 66.670125 
L 383.277666 69.388327 
L 384.180795 69.388327 
L 385.072705 69.388327 
L 385.953671 69.388327 
L 386.823958 69.388327 
L 387.683823 69.388327 
L 388.533511 66.670125 
L 389.373261 66.670125 
L 390.203303 66.670125 
L 391.023858 66.670125 
L 391.835142 66.670125 
L 392.63736 66.670125 
L 393.430714 69.388327 
L 394.215398 69.388327 
" style="fill:none;stroke:#98df8a;stroke-linecap:square;stroke-width:1.5;"/>
    <defs>
     <path d="M -0 3 
L 3 -3 
L -3 -3 
z
" id="m9682c6bc25" style="stroke:#ffffff;stroke-linejoin:miter;stroke-width:0.75;"/>
    </defs>
    <g clip-path="url(#pc39366c629)">
     <use style="fill:#98df8a;stroke:#ffffff;stroke-linejoin:miter;stroke-width:0.75;" x="69.560852" xlink:href="#m9682c6bc25" y="89.412417"/>
     <use style="fill:#98df8a;stroke:#ffffff;stroke-linejoin:miter;stroke-width:0.75;" x="119.327306" xlink:href="#m9682c6bc25" y="84.791473"/>
     <use style="fill:#98df8a;stroke:#ffffff;stroke-linejoin:miter;stroke-width:0.75;" x="148.438816" xlink:href="#m9682c6bc25" y="84.247833"/>
     <use style="fill:#98df8a;stroke:#ffffff;stroke-linejoin:miter;stroke-width:0.75;" x="169.09376" xlink:href="#m9682c6bc25" y="83.160552"/>
     <use style="fill:#98df8a;stroke:#ffffff;stroke-linejoin:miter;stroke-width:0.75;" x="185.11498" xlink:href="#m9682c6bc25" y="82.435698"/>
     <use style="fill:#98df8a;stroke:#ffffff;stroke-linejoin:miter;stroke-width:0.75;" x="198.205269" xlink:href="#m9682c6bc25" y="81.529631"/>
     <use style="fill:#98df8a;stroke:#ffffff;stroke-linejoin:miter;stroke-width:0.75;" x="209.272952" xlink:href="#m9682c6bc25" y="80.98599"/>
     <use style="fill:#98df8a;stroke:#ffffff;stroke-linejoin:miter;stroke-width:0.75;" x="218.860214" xlink:href="#m9682c6bc25" y="80.623563"/>
     <use style="fill:#98df8a;stroke:#ffffff;stroke-linejoin:miter;stroke-width:0.75;" x="227.316779" xlink:href="#m9682c6bc25" y="80.261136"/>
     <use style="fill:#98df8a;stroke:#ffffff;stroke-linejoin:miter;stroke-width:0.75;" x="234.881434" xlink:href="#m9682c6bc25" y="79.626889"/>
     <use style="fill:#98df8a;stroke:#ffffff;stroke-linejoin:miter;stroke-width:0.75;" x="241.724496" xlink:href="#m9682c6bc25" y="79.626889"/>
     <use style="fill:#98df8a;stroke:#ffffff;stroke-linejoin:miter;stroke-width:0.75;" x="247.971723" xlink:href="#m9682c6bc25" y="79.445676"/>
     <use style="fill:#98df8a;stroke:#ffffff;stroke-linejoin:miter;stroke-width:0.75;" x="253.718615" xlink:href="#m9682c6bc25" y="79.173855"/>
     <use style="fill:#98df8a;stroke:#ffffff;stroke-linejoin:miter;stroke-width:0.75;" x="259.039406" xlink:href="#m9682c6bc25" y="78.811428"/>
     <use style="fill:#98df8a;stroke:#ffffff;stroke-linejoin:miter;stroke-width:0.75;" x="263.992943" xlink:href="#m9682c6bc25" y="78.811428"/>
     <use style="fill:#98df8a;stroke:#ffffff;stroke-linejoin:miter;stroke-width:0.75;" x="268.626668" xlink:href="#m9682c6bc25" y="78.811428"/>
     <use style="fill:#98df8a;stroke:#ffffff;stroke-linejoin:miter;stroke-width:0.75;" x="272.979383" xlink:href="#m9682c6bc25" y="78.449001"/>
     <use style="fill:#98df8a;stroke:#ffffff;stroke-linejoin:miter;stroke-width:0.75;" x="277.083233" xlink:href="#m9682c6bc25" y="78.449001"/>
     <use style="fill:#98df8a;stroke:#ffffff;stroke-linejoin:miter;stroke-width:0.75;" x="280.965141" xlink:href="#m9682c6bc25" y="78.267788"/>
     <use style="fill:#98df8a;stroke:#ffffff;stroke-linejoin:miter;stroke-width:0.75;" x="284.647888" xlink:href="#m9682c6bc25" y="78.267788"/>
     <use style="fill:#98df8a;stroke:#ffffff;stroke-linejoin:miter;stroke-width:0.75;" x="288.150915" xlink:href="#m9682c6bc25" y="77.905361"/>
     <use style="fill:#98df8a;stroke:#ffffff;stroke-linejoin:miter;stroke-width:0.75;" x="291.49095" xlink:href="#m9682c6bc25" y="77.814754"/>
     <use style="fill:#98df8a;stroke:#ffffff;stroke-linejoin:miter;stroke-width:0.75;" x="294.68249" xlink:href="#m9682c6bc25" y="77.814754"/>
     <use style="fill:#98df8a;stroke:#ffffff;stroke-linejoin:miter;stroke-width:0.75;" x="297.738177" xlink:href="#m9682c6bc25" y="77.814754"/>
     <use style="fill:#98df8a;stroke:#ffffff;stroke-linejoin:miter;stroke-width:0.75;" x="300.669107" xlink:href="#m9682c6bc25" y="77.814754"/>
     <use style="fill:#98df8a;stroke:#ffffff;stroke-linejoin:miter;stroke-width:0.75;" x="303.485069" xlink:href="#m9682c6bc25" y="77.814754"/>
     <use style="fill:#98df8a;stroke:#ffffff;stroke-linejoin:miter;stroke-width:0.75;" x="306.194742" xlink:href="#m9682c6bc25" y="77.724147"/>
     <use style="fill:#98df8a;stroke:#ffffff;stroke-linejoin:miter;stroke-width:0.75;" x="308.805859" xlink:href="#m9682c6bc25" y="77.724147"/>
     <use style="fill:#98df8a;stroke:#ffffff;stroke-linejoin:miter;stroke-width:0.75;" x="311.32534" xlink:href="#m9682c6bc25" y="77.724147"/>
     <use style="fill:#98df8a;stroke:#ffffff;stroke-linejoin:miter;stroke-width:0.75;" x="313.759397" xlink:href="#m9682c6bc25" y="76.999294"/>
     <use style="fill:#98df8a;stroke:#ffffff;stroke-linejoin:miter;stroke-width:0.75;" x="316.113635" xlink:href="#m9682c6bc25" y="76.999294"/>
     <use style="fill:#98df8a;stroke:#ffffff;stroke-linejoin:miter;stroke-width:0.75;" x="318.393122" xlink:href="#m9682c6bc25" y="76.999294"/>
     <use style="fill:#98df8a;stroke:#ffffff;stroke-linejoin:miter;stroke-width:0.75;" x="320.60246" xlink:href="#m9682c6bc25" y="76.636867"/>
     <use style="fill:#98df8a;stroke:#ffffff;stroke-linejoin:miter;stroke-width:0.75;" x="322.745837" xlink:href="#m9682c6bc25" y="76.636867"/>
     <use style="fill:#98df8a;stroke:#ffffff;stroke-linejoin:miter;stroke-width:0.75;" x="324.827079" xlink:href="#m9682c6bc25" y="76.636867"/>
     <use style="fill:#98df8a;stroke:#ffffff;stroke-linejoin:miter;stroke-width:0.75;" x="326.849687" xlink:href="#m9682c6bc25" y="76.636867"/>
     <use style="fill:#98df8a;stroke:#ffffff;stroke-linejoin:miter;stroke-width:0.75;" x="328.816873" xlink:href="#m9682c6bc25" y="76.636867"/>
     <use style="fill:#98df8a;stroke:#ffffff;stroke-linejoin:miter;stroke-width:0.75;" x="330.731595" xlink:href="#m9682c6bc25" y="76.636867"/>
     <use style="fill:#98df8a;stroke:#ffffff;stroke-linejoin:miter;stroke-width:0.75;" x="332.596578" xlink:href="#m9682c6bc25" y="69.388327"/>
     <use style="fill:#98df8a;stroke:#ffffff;stroke-linejoin:miter;stroke-width:0.75;" x="334.414342" xlink:href="#m9682c6bc25" y="69.388327"/>
     <use style="fill:#98df8a;stroke:#ffffff;stroke-linejoin:miter;stroke-width:0.75;" x="336.187217" xlink:href="#m9682c6bc25" y="66.670125"/>
     <use style="fill:#98df8a;stroke:#ffffff;stroke-linejoin:miter;stroke-width:0.75;" x="337.917369" xlink:href="#m9682c6bc25" y="66.670125"/>
     <use style="fill:#98df8a;stroke:#ffffff;stroke-linejoin:miter;stroke-width:0.75;" x="339.606807" xlink:href="#m9682c6bc25" y="66.670125"/>
     <use style="fill:#98df8a;stroke:#ffffff;stroke-linejoin:miter;stroke-width:0.75;" x="341.257404" xlink:href="#m9682c6bc25" y="69.388327"/>
     <use style="fill:#98df8a;stroke:#ffffff;stroke-linejoin:miter;stroke-width:0.75;" x="342.870906" xlink:href="#m9682c6bc25" y="69.388327"/>
     <use style="fill:#98df8a;stroke:#ffffff;stroke-linejoin:miter;stroke-width:0.75;" x="344.448944" xlink:href="#m9682c6bc25" y="69.388327"/>
     <use style="fill:#98df8a;stroke:#ffffff;stroke-linejoin:miter;stroke-width:0.75;" x="345.993042" xlink:href="#m9682c6bc25" y="69.388327"/>
     <use style="fill:#98df8a;stroke:#ffffff;stroke-linejoin:miter;stroke-width:0.75;" x="347.504631" xlink:href="#m9682c6bc25" y="69.388327"/>
     <use style="fill:#98df8a;stroke:#ffffff;stroke-linejoin:miter;stroke-width:0.75;" x="348.985051" xlink:href="#m9682c6bc25" y="69.388327"/>
     <use style="fill:#98df8a;stroke:#ffffff;stroke-linejoin:miter;stroke-width:0.75;" x="350.435561" xlink:href="#m9682c6bc25" y="69.388327"/>
     <use style="fill:#98df8a;stroke:#ffffff;stroke-linejoin:miter;stroke-width:0.75;" x="351.857347" xlink:href="#m9682c6bc25" y="69.388327"/>
     <use style="fill:#98df8a;stroke:#ffffff;stroke-linejoin:miter;stroke-width:0.75;" x="353.251523" xlink:href="#m9682c6bc25" y="69.388327"/>
     <use style="fill:#98df8a;stroke:#ffffff;stroke-linejoin:miter;stroke-width:0.75;" x="354.619142" xlink:href="#m9682c6bc25" y="66.670125"/>
     <use style="fill:#98df8a;stroke:#ffffff;stroke-linejoin:miter;stroke-width:0.75;" x="355.961196" xlink:href="#m9682c6bc25" y="66.670125"/>
     <use style="fill:#98df8a;stroke:#ffffff;stroke-linejoin:miter;stroke-width:0.75;" x="357.278624" xlink:href="#m9682c6bc25" y="66.670125"/>
     <use style="fill:#98df8a;stroke:#ffffff;stroke-linejoin:miter;stroke-width:0.75;" x="358.572313" xlink:href="#m9682c6bc25" y="66.670125"/>
     <use style="fill:#98df8a;stroke:#ffffff;stroke-linejoin:miter;stroke-width:0.75;" x="359.843104" xlink:href="#m9682c6bc25" y="69.388327"/>
     <use style="fill:#98df8a;stroke:#ffffff;stroke-linejoin:miter;stroke-width:0.75;" x="361.091794" xlink:href="#m9682c6bc25" y="69.388327"/>
     <use style="fill:#98df8a;stroke:#ffffff;stroke-linejoin:miter;stroke-width:0.75;" x="362.319136" xlink:href="#m9682c6bc25" y="69.388327"/>
     <use style="fill:#98df8a;stroke:#ffffff;stroke-linejoin:miter;stroke-width:0.75;" x="363.525851" xlink:href="#m9682c6bc25" y="69.388327"/>
     <use style="fill:#98df8a;stroke:#ffffff;stroke-linejoin:miter;stroke-width:0.75;" x="364.712619" xlink:href="#m9682c6bc25" y="69.388327"/>
     <use style="fill:#98df8a;stroke:#ffffff;stroke-linejoin:miter;stroke-width:0.75;" x="365.880089" xlink:href="#m9682c6bc25" y="69.388327"/>
     <use style="fill:#98df8a;stroke:#ffffff;stroke-linejoin:miter;stroke-width:0.75;" x="367.028878" xlink:href="#m9682c6bc25" y="69.388327"/>
     <use style="fill:#98df8a;stroke:#ffffff;stroke-linejoin:miter;stroke-width:0.75;" x="368.159576" xlink:href="#m9682c6bc25" y="69.388327"/>
     <use style="fill:#98df8a;stroke:#ffffff;stroke-linejoin:miter;stroke-width:0.75;" x="369.272743" xlink:href="#m9682c6bc25" y="66.670125"/>
     <use style="fill:#98df8a;stroke:#ffffff;stroke-linejoin:miter;stroke-width:0.75;" x="370.368914" xlink:href="#m9682c6bc25" y="66.670125"/>
     <use style="fill:#98df8a;stroke:#ffffff;stroke-linejoin:miter;stroke-width:0.75;" x="371.4486" xlink:href="#m9682c6bc25" y="69.388327"/>
     <use style="fill:#98df8a;stroke:#ffffff;stroke-linejoin:miter;stroke-width:0.75;" x="372.512291" xlink:href="#m9682c6bc25" y="69.388327"/>
     <use style="fill:#98df8a;stroke:#ffffff;stroke-linejoin:miter;stroke-width:0.75;" x="373.560453" xlink:href="#m9682c6bc25" y="69.388327"/>
     <use style="fill:#98df8a;stroke:#ffffff;stroke-linejoin:miter;stroke-width:0.75;" x="374.593533" xlink:href="#m9682c6bc25" y="69.388327"/>
     <use style="fill:#98df8a;stroke:#ffffff;stroke-linejoin:miter;stroke-width:0.75;" x="375.611959" xlink:href="#m9682c6bc25" y="69.388327"/>
     <use style="fill:#98df8a;stroke:#ffffff;stroke-linejoin:miter;stroke-width:0.75;" x="376.616141" xlink:href="#m9682c6bc25" y="69.388327"/>
     <use style="fill:#98df8a;stroke:#ffffff;stroke-linejoin:miter;stroke-width:0.75;" x="377.606471" xlink:href="#m9682c6bc25" y="69.388327"/>
     <use style="fill:#98df8a;stroke:#ffffff;stroke-linejoin:miter;stroke-width:0.75;" x="378.583327" xlink:href="#m9682c6bc25" y="69.388327"/>
     <use style="fill:#98df8a;stroke:#ffffff;stroke-linejoin:miter;stroke-width:0.75;" x="379.547071" xlink:href="#m9682c6bc25" y="66.670125"/>
     <use style="fill:#98df8a;stroke:#ffffff;stroke-linejoin:miter;stroke-width:0.75;" x="380.498049" xlink:href="#m9682c6bc25" y="66.670125"/>
     <use style="fill:#98df8a;stroke:#ffffff;stroke-linejoin:miter;stroke-width:0.75;" x="381.436596" xlink:href="#m9682c6bc25" y="66.670125"/>
     <use style="fill:#98df8a;stroke:#ffffff;stroke-linejoin:miter;stroke-width:0.75;" x="382.363032" xlink:href="#m9682c6bc25" y="66.670125"/>
     <use style="fill:#98df8a;stroke:#ffffff;stroke-linejoin:miter;stroke-width:0.75;" x="383.277666" xlink:href="#m9682c6bc25" y="69.388327"/>
     <use style="fill:#98df8a;stroke:#ffffff;stroke-linejoin:miter;stroke-width:0.75;" x="384.180795" xlink:href="#m9682c6bc25" y="69.388327"/>
     <use style="fill:#98df8a;stroke:#ffffff;stroke-linejoin:miter;stroke-width:0.75;" x="385.072705" xlink:href="#m9682c6bc25" y="69.388327"/>
     <use style="fill:#98df8a;stroke:#ffffff;stroke-linejoin:miter;stroke-width:0.75;" x="385.953671" xlink:href="#m9682c6bc25" y="69.388327"/>
     <use style="fill:#98df8a;stroke:#ffffff;stroke-linejoin:miter;stroke-width:0.75;" x="386.823958" xlink:href="#m9682c6bc25" y="69.388327"/>
     <use style="fill:#98df8a;stroke:#ffffff;stroke-linejoin:miter;stroke-width:0.75;" x="387.683823" xlink:href="#m9682c6bc25" y="69.388327"/>
     <use style="fill:#98df8a;stroke:#ffffff;stroke-linejoin:miter;stroke-width:0.75;" x="388.533511" xlink:href="#m9682c6bc25" y="66.670125"/>
     <use style="fill:#98df8a;stroke:#ffffff;stroke-linejoin:miter;stroke-width:0.75;" x="389.373261" xlink:href="#m9682c6bc25" y="66.670125"/>
     <use style="fill:#98df8a;stroke:#ffffff;stroke-linejoin:miter;stroke-width:0.75;" x="390.203303" xlink:href="#m9682c6bc25" y="66.670125"/>
     <use style="fill:#98df8a;stroke:#ffffff;stroke-linejoin:miter;stroke-width:0.75;" x="391.023858" xlink:href="#m9682c6bc25" y="66.670125"/>
     <use style="fill:#98df8a;stroke:#ffffff;stroke-linejoin:miter;stroke-width:0.75;" x="391.835142" xlink:href="#m9682c6bc25" y="66.670125"/>
     <use style="fill:#98df8a;stroke:#ffffff;stroke-linejoin:miter;stroke-width:0.75;" x="392.63736" xlink:href="#m9682c6bc25" y="66.670125"/>
     <use style="fill:#98df8a;stroke:#ffffff;stroke-linejoin:miter;stroke-width:0.75;" x="393.430714" xlink:href="#m9682c6bc25" y="69.388327"/>
     <use style="fill:#98df8a;stroke:#ffffff;stroke-linejoin:miter;stroke-width:0.75;" x="394.215398" xlink:href="#m9682c6bc25" y="69.388327"/>
    </g>
   </g>
   <g id="line2d_33">
    <path clip-path="url(#pc39366c629)" d="M 69.560852 149.39408 
L 119.327306 109.3459 
L 148.438816 101.191294 
L 169.09376 96.117316 
L 185.11498 93.761541 
L 198.205269 92.583653 
L 209.272952 91.677586 
L 218.860214 90.137271 
L 227.316779 88.596956 
L 234.881434 88.143923 
L 241.724496 87.781496 
L 247.971723 87.781496 
L 253.718615 86.513001 
L 259.039406 86.331788 
L 263.992943 85.969361 
L 268.626668 83.976013 
L 272.979383 83.160552 
L 277.083233 82.798125 
L 280.965141 81.982664 
L 284.647888 81.348417 
L 288.150915 80.532956 
L 291.49095 80.532956 
L 294.68249 80.532956 
L 297.738177 80.532956 
L 300.669107 79.626889 
L 303.485069 79.445676 
L 306.194742 79.445676 
L 308.805859 79.264462 
L 311.32534 78.539608 
L 313.759397 78.449001 
L 316.113635 78.449001 
L 318.393122 77.814754 
L 320.60246 77.452327 
L 322.745837 77.452327 
L 324.827079 77.361721 
L 326.849687 77.361721 
L 328.816873 77.361721 
L 330.731595 77.361721 
L 332.596578 77.361721 
L 334.414342 76.999294 
L 336.187217 76.999294 
L 337.917369 76.999294 
L 339.606807 76.999294 
L 341.257404 76.999294 
L 342.870906 76.999294 
L 344.448944 76.999294 
L 345.993042 76.999294 
L 347.504631 76.999294 
L 348.985051 76.999294 
L 350.435561 76.999294 
L 351.857347 77.180507 
L 353.251523 76.999294 
L 354.619142 76.999294 
L 355.961196 76.999294 
L 357.278624 76.999294 
L 358.572313 76.999294 
L 359.843104 76.999294 
L 361.091794 76.999294 
L 362.319136 76.999294 
L 363.525851 76.999294 
L 364.712619 76.999294 
L 365.880089 76.999294 
L 367.028878 76.999294 
L 368.159576 76.999294 
L 369.272743 76.999294 
L 370.368914 76.999294 
L 371.4486 76.999294 
L 372.512291 76.999294 
L 373.560453 76.999294 
L 374.593533 76.999294 
L 375.611959 76.999294 
L 376.616141 76.999294 
L 377.606471 76.999294 
L 378.583327 76.999294 
L 379.547071 76.999294 
L 380.498049 76.999294 
L 381.436596 76.999294 
L 382.363032 76.999294 
L 383.277666 76.999294 
L 384.180795 76.999294 
L 385.072705 76.999294 
L 385.953671 76.999294 
L 386.823958 76.999294 
L 387.683823 76.999294 
L 388.533511 76.999294 
L 389.373261 76.455653 
L 390.203303 76.455653 
L 391.023858 76.455653 
L 391.835142 76.183833 
L 392.63736 76.183833 
L 393.430714 76.183833 
L 394.215398 76.183833 
" style="fill:none;stroke:#d62728;stroke-linecap:square;stroke-width:1.5;"/>
    <defs>
     <path d="M 0 -3 
L -3 3 
L 3 3 
z
" id="mddfe4085d4" style="stroke:#ffffff;stroke-linejoin:miter;stroke-width:0.75;"/>
    </defs>
    <g clip-path="url(#pc39366c629)">
     <use style="fill:#d62728;stroke:#ffffff;stroke-linejoin:miter;stroke-width:0.75;" x="69.560852" xlink:href="#mddfe4085d4" y="149.39408"/>
     <use style="fill:#d62728;stroke:#ffffff;stroke-linejoin:miter;stroke-width:0.75;" x="119.327306" xlink:href="#mddfe4085d4" y="109.3459"/>
     <use style="fill:#d62728;stroke:#ffffff;stroke-linejoin:miter;stroke-width:0.75;" x="148.438816" xlink:href="#mddfe4085d4" y="101.191294"/>
     <use style="fill:#d62728;stroke:#ffffff;stroke-linejoin:miter;stroke-width:0.75;" x="169.09376" xlink:href="#mddfe4085d4" y="96.117316"/>
     <use style="fill:#d62728;stroke:#ffffff;stroke-linejoin:miter;stroke-width:0.75;" x="185.11498" xlink:href="#mddfe4085d4" y="93.761541"/>
     <use style="fill:#d62728;stroke:#ffffff;stroke-linejoin:miter;stroke-width:0.75;" x="198.205269" xlink:href="#mddfe4085d4" y="92.583653"/>
     <use style="fill:#d62728;stroke:#ffffff;stroke-linejoin:miter;stroke-width:0.75;" x="209.272952" xlink:href="#mddfe4085d4" y="91.677586"/>
     <use style="fill:#d62728;stroke:#ffffff;stroke-linejoin:miter;stroke-width:0.75;" x="218.860214" xlink:href="#mddfe4085d4" y="90.137271"/>
     <use style="fill:#d62728;stroke:#ffffff;stroke-linejoin:miter;stroke-width:0.75;" x="227.316779" xlink:href="#mddfe4085d4" y="88.596956"/>
     <use style="fill:#d62728;stroke:#ffffff;stroke-linejoin:miter;stroke-width:0.75;" x="234.881434" xlink:href="#mddfe4085d4" y="88.143923"/>
     <use style="fill:#d62728;stroke:#ffffff;stroke-linejoin:miter;stroke-width:0.75;" x="241.724496" xlink:href="#mddfe4085d4" y="87.781496"/>
     <use style="fill:#d62728;stroke:#ffffff;stroke-linejoin:miter;stroke-width:0.75;" x="247.971723" xlink:href="#mddfe4085d4" y="87.781496"/>
     <use style="fill:#d62728;stroke:#ffffff;stroke-linejoin:miter;stroke-width:0.75;" x="253.718615" xlink:href="#mddfe4085d4" y="86.513001"/>
     <use style="fill:#d62728;stroke:#ffffff;stroke-linejoin:miter;stroke-width:0.75;" x="259.039406" xlink:href="#mddfe4085d4" y="86.331788"/>
     <use style="fill:#d62728;stroke:#ffffff;stroke-linejoin:miter;stroke-width:0.75;" x="263.992943" xlink:href="#mddfe4085d4" y="85.969361"/>
     <use style="fill:#d62728;stroke:#ffffff;stroke-linejoin:miter;stroke-width:0.75;" x="268.626668" xlink:href="#mddfe4085d4" y="83.976013"/>
     <use style="fill:#d62728;stroke:#ffffff;stroke-linejoin:miter;stroke-width:0.75;" x="272.979383" xlink:href="#mddfe4085d4" y="83.160552"/>
     <use style="fill:#d62728;stroke:#ffffff;stroke-linejoin:miter;stroke-width:0.75;" x="277.083233" xlink:href="#mddfe4085d4" y="82.798125"/>
     <use style="fill:#d62728;stroke:#ffffff;stroke-linejoin:miter;stroke-width:0.75;" x="280.965141" xlink:href="#mddfe4085d4" y="81.982664"/>
     <use style="fill:#d62728;stroke:#ffffff;stroke-linejoin:miter;stroke-width:0.75;" x="284.647888" xlink:href="#mddfe4085d4" y="81.348417"/>
     <use style="fill:#d62728;stroke:#ffffff;stroke-linejoin:miter;stroke-width:0.75;" x="288.150915" xlink:href="#mddfe4085d4" y="80.532956"/>
     <use style="fill:#d62728;stroke:#ffffff;stroke-linejoin:miter;stroke-width:0.75;" x="291.49095" xlink:href="#mddfe4085d4" y="80.532956"/>
     <use style="fill:#d62728;stroke:#ffffff;stroke-linejoin:miter;stroke-width:0.75;" x="294.68249" xlink:href="#mddfe4085d4" y="80.532956"/>
     <use style="fill:#d62728;stroke:#ffffff;stroke-linejoin:miter;stroke-width:0.75;" x="297.738177" xlink:href="#mddfe4085d4" y="80.532956"/>
     <use style="fill:#d62728;stroke:#ffffff;stroke-linejoin:miter;stroke-width:0.75;" x="300.669107" xlink:href="#mddfe4085d4" y="79.626889"/>
     <use style="fill:#d62728;stroke:#ffffff;stroke-linejoin:miter;stroke-width:0.75;" x="303.485069" xlink:href="#mddfe4085d4" y="79.445676"/>
     <use style="fill:#d62728;stroke:#ffffff;stroke-linejoin:miter;stroke-width:0.75;" x="306.194742" xlink:href="#mddfe4085d4" y="79.445676"/>
     <use style="fill:#d62728;stroke:#ffffff;stroke-linejoin:miter;stroke-width:0.75;" x="308.805859" xlink:href="#mddfe4085d4" y="79.264462"/>
     <use style="fill:#d62728;stroke:#ffffff;stroke-linejoin:miter;stroke-width:0.75;" x="311.32534" xlink:href="#mddfe4085d4" y="78.539608"/>
     <use style="fill:#d62728;stroke:#ffffff;stroke-linejoin:miter;stroke-width:0.75;" x="313.759397" xlink:href="#mddfe4085d4" y="78.449001"/>
     <use style="fill:#d62728;stroke:#ffffff;stroke-linejoin:miter;stroke-width:0.75;" x="316.113635" xlink:href="#mddfe4085d4" y="78.449001"/>
     <use style="fill:#d62728;stroke:#ffffff;stroke-linejoin:miter;stroke-width:0.75;" x="318.393122" xlink:href="#mddfe4085d4" y="77.814754"/>
     <use style="fill:#d62728;stroke:#ffffff;stroke-linejoin:miter;stroke-width:0.75;" x="320.60246" xlink:href="#mddfe4085d4" y="77.452327"/>
     <use style="fill:#d62728;stroke:#ffffff;stroke-linejoin:miter;stroke-width:0.75;" x="322.745837" xlink:href="#mddfe4085d4" y="77.452327"/>
     <use style="fill:#d62728;stroke:#ffffff;stroke-linejoin:miter;stroke-width:0.75;" x="324.827079" xlink:href="#mddfe4085d4" y="77.361721"/>
     <use style="fill:#d62728;stroke:#ffffff;stroke-linejoin:miter;stroke-width:0.75;" x="326.849687" xlink:href="#mddfe4085d4" y="77.361721"/>
     <use style="fill:#d62728;stroke:#ffffff;stroke-linejoin:miter;stroke-width:0.75;" x="328.816873" xlink:href="#mddfe4085d4" y="77.361721"/>
     <use style="fill:#d62728;stroke:#ffffff;stroke-linejoin:miter;stroke-width:0.75;" x="330.731595" xlink:href="#mddfe4085d4" y="77.361721"/>
     <use style="fill:#d62728;stroke:#ffffff;stroke-linejoin:miter;stroke-width:0.75;" x="332.596578" xlink:href="#mddfe4085d4" y="77.361721"/>
     <use style="fill:#d62728;stroke:#ffffff;stroke-linejoin:miter;stroke-width:0.75;" x="334.414342" xlink:href="#mddfe4085d4" y="76.999294"/>
     <use style="fill:#d62728;stroke:#ffffff;stroke-linejoin:miter;stroke-width:0.75;" x="336.187217" xlink:href="#mddfe4085d4" y="76.999294"/>
     <use style="fill:#d62728;stroke:#ffffff;stroke-linejoin:miter;stroke-width:0.75;" x="337.917369" xlink:href="#mddfe4085d4" y="76.999294"/>
     <use style="fill:#d62728;stroke:#ffffff;stroke-linejoin:miter;stroke-width:0.75;" x="339.606807" xlink:href="#mddfe4085d4" y="76.999294"/>
     <use style="fill:#d62728;stroke:#ffffff;stroke-linejoin:miter;stroke-width:0.75;" x="341.257404" xlink:href="#mddfe4085d4" y="76.999294"/>
     <use style="fill:#d62728;stroke:#ffffff;stroke-linejoin:miter;stroke-width:0.75;" x="342.870906" xlink:href="#mddfe4085d4" y="76.999294"/>
     <use style="fill:#d62728;stroke:#ffffff;stroke-linejoin:miter;stroke-width:0.75;" x="344.448944" xlink:href="#mddfe4085d4" y="76.999294"/>
     <use style="fill:#d62728;stroke:#ffffff;stroke-linejoin:miter;stroke-width:0.75;" x="345.993042" xlink:href="#mddfe4085d4" y="76.999294"/>
     <use style="fill:#d62728;stroke:#ffffff;stroke-linejoin:miter;stroke-width:0.75;" x="347.504631" xlink:href="#mddfe4085d4" y="76.999294"/>
     <use style="fill:#d62728;stroke:#ffffff;stroke-linejoin:miter;stroke-width:0.75;" x="348.985051" xlink:href="#mddfe4085d4" y="76.999294"/>
     <use style="fill:#d62728;stroke:#ffffff;stroke-linejoin:miter;stroke-width:0.75;" x="350.435561" xlink:href="#mddfe4085d4" y="76.999294"/>
     <use style="fill:#d62728;stroke:#ffffff;stroke-linejoin:miter;stroke-width:0.75;" x="351.857347" xlink:href="#mddfe4085d4" y="77.180507"/>
     <use style="fill:#d62728;stroke:#ffffff;stroke-linejoin:miter;stroke-width:0.75;" x="353.251523" xlink:href="#mddfe4085d4" y="76.999294"/>
     <use style="fill:#d62728;stroke:#ffffff;stroke-linejoin:miter;stroke-width:0.75;" x="354.619142" xlink:href="#mddfe4085d4" y="76.999294"/>
     <use style="fill:#d62728;stroke:#ffffff;stroke-linejoin:miter;stroke-width:0.75;" x="355.961196" xlink:href="#mddfe4085d4" y="76.999294"/>
     <use style="fill:#d62728;stroke:#ffffff;stroke-linejoin:miter;stroke-width:0.75;" x="357.278624" xlink:href="#mddfe4085d4" y="76.999294"/>
     <use style="fill:#d62728;stroke:#ffffff;stroke-linejoin:miter;stroke-width:0.75;" x="358.572313" xlink:href="#mddfe4085d4" y="76.999294"/>
     <use style="fill:#d62728;stroke:#ffffff;stroke-linejoin:miter;stroke-width:0.75;" x="359.843104" xlink:href="#mddfe4085d4" y="76.999294"/>
     <use style="fill:#d62728;stroke:#ffffff;stroke-linejoin:miter;stroke-width:0.75;" x="361.091794" xlink:href="#mddfe4085d4" y="76.999294"/>
     <use style="fill:#d62728;stroke:#ffffff;stroke-linejoin:miter;stroke-width:0.75;" x="362.319136" xlink:href="#mddfe4085d4" y="76.999294"/>
     <use style="fill:#d62728;stroke:#ffffff;stroke-linejoin:miter;stroke-width:0.75;" x="363.525851" xlink:href="#mddfe4085d4" y="76.999294"/>
     <use style="fill:#d62728;stroke:#ffffff;stroke-linejoin:miter;stroke-width:0.75;" x="364.712619" xlink:href="#mddfe4085d4" y="76.999294"/>
     <use style="fill:#d62728;stroke:#ffffff;stroke-linejoin:miter;stroke-width:0.75;" x="365.880089" xlink:href="#mddfe4085d4" y="76.999294"/>
     <use style="fill:#d62728;stroke:#ffffff;stroke-linejoin:miter;stroke-width:0.75;" x="367.028878" xlink:href="#mddfe4085d4" y="76.999294"/>
     <use style="fill:#d62728;stroke:#ffffff;stroke-linejoin:miter;stroke-width:0.75;" x="368.159576" xlink:href="#mddfe4085d4" y="76.999294"/>
     <use style="fill:#d62728;stroke:#ffffff;stroke-linejoin:miter;stroke-width:0.75;" x="369.272743" xlink:href="#mddfe4085d4" y="76.999294"/>
     <use style="fill:#d62728;stroke:#ffffff;stroke-linejoin:miter;stroke-width:0.75;" x="370.368914" xlink:href="#mddfe4085d4" y="76.999294"/>
     <use style="fill:#d62728;stroke:#ffffff;stroke-linejoin:miter;stroke-width:0.75;" x="371.4486" xlink:href="#mddfe4085d4" y="76.999294"/>
     <use style="fill:#d62728;stroke:#ffffff;stroke-linejoin:miter;stroke-width:0.75;" x="372.512291" xlink:href="#mddfe4085d4" y="76.999294"/>
     <use style="fill:#d62728;stroke:#ffffff;stroke-linejoin:miter;stroke-width:0.75;" x="373.560453" xlink:href="#mddfe4085d4" y="76.999294"/>
     <use style="fill:#d62728;stroke:#ffffff;stroke-linejoin:miter;stroke-width:0.75;" x="374.593533" xlink:href="#mddfe4085d4" y="76.999294"/>
     <use style="fill:#d62728;stroke:#ffffff;stroke-linejoin:miter;stroke-width:0.75;" x="375.611959" xlink:href="#mddfe4085d4" y="76.999294"/>
     <use style="fill:#d62728;stroke:#ffffff;stroke-linejoin:miter;stroke-width:0.75;" x="376.616141" xlink:href="#mddfe4085d4" y="76.999294"/>
     <use style="fill:#d62728;stroke:#ffffff;stroke-linejoin:miter;stroke-width:0.75;" x="377.606471" xlink:href="#mddfe4085d4" y="76.999294"/>
     <use style="fill:#d62728;stroke:#ffffff;stroke-linejoin:miter;stroke-width:0.75;" x="378.583327" xlink:href="#mddfe4085d4" y="76.999294"/>
     <use style="fill:#d62728;stroke:#ffffff;stroke-linejoin:miter;stroke-width:0.75;" x="379.547071" xlink:href="#mddfe4085d4" y="76.999294"/>
     <use style="fill:#d62728;stroke:#ffffff;stroke-linejoin:miter;stroke-width:0.75;" x="380.498049" xlink:href="#mddfe4085d4" y="76.999294"/>
     <use style="fill:#d62728;stroke:#ffffff;stroke-linejoin:miter;stroke-width:0.75;" x="381.436596" xlink:href="#mddfe4085d4" y="76.999294"/>
     <use style="fill:#d62728;stroke:#ffffff;stroke-linejoin:miter;stroke-width:0.75;" x="382.363032" xlink:href="#mddfe4085d4" y="76.999294"/>
     <use style="fill:#d62728;stroke:#ffffff;stroke-linejoin:miter;stroke-width:0.75;" x="383.277666" xlink:href="#mddfe4085d4" y="76.999294"/>
     <use style="fill:#d62728;stroke:#ffffff;stroke-linejoin:miter;stroke-width:0.75;" x="384.180795" xlink:href="#mddfe4085d4" y="76.999294"/>
     <use style="fill:#d62728;stroke:#ffffff;stroke-linejoin:miter;stroke-width:0.75;" x="385.072705" xlink:href="#mddfe4085d4" y="76.999294"/>
     <use style="fill:#d62728;stroke:#ffffff;stroke-linejoin:miter;stroke-width:0.75;" x="385.953671" xlink:href="#mddfe4085d4" y="76.999294"/>
     <use style="fill:#d62728;stroke:#ffffff;stroke-linejoin:miter;stroke-width:0.75;" x="386.823958" xlink:href="#mddfe4085d4" y="76.999294"/>
     <use style="fill:#d62728;stroke:#ffffff;stroke-linejoin:miter;stroke-width:0.75;" x="387.683823" xlink:href="#mddfe4085d4" y="76.999294"/>
     <use style="fill:#d62728;stroke:#ffffff;stroke-linejoin:miter;stroke-width:0.75;" x="388.533511" xlink:href="#mddfe4085d4" y="76.999294"/>
     <use style="fill:#d62728;stroke:#ffffff;stroke-linejoin:miter;stroke-width:0.75;" x="389.373261" xlink:href="#mddfe4085d4" y="76.455653"/>
     <use style="fill:#d62728;stroke:#ffffff;stroke-linejoin:miter;stroke-width:0.75;" x="390.203303" xlink:href="#mddfe4085d4" y="76.455653"/>
     <use style="fill:#d62728;stroke:#ffffff;stroke-linejoin:miter;stroke-width:0.75;" x="391.023858" xlink:href="#mddfe4085d4" y="76.455653"/>
     <use style="fill:#d62728;stroke:#ffffff;stroke-linejoin:miter;stroke-width:0.75;" x="391.835142" xlink:href="#mddfe4085d4" y="76.183833"/>
     <use style="fill:#d62728;stroke:#ffffff;stroke-linejoin:miter;stroke-width:0.75;" x="392.63736" xlink:href="#mddfe4085d4" y="76.183833"/>
     <use style="fill:#d62728;stroke:#ffffff;stroke-linejoin:miter;stroke-width:0.75;" x="393.430714" xlink:href="#mddfe4085d4" y="76.183833"/>
     <use style="fill:#d62728;stroke:#ffffff;stroke-linejoin:miter;stroke-width:0.75;" x="394.215398" xlink:href="#mddfe4085d4" y="76.183833"/>
    </g>
   </g>
   <g id="line2d_34"/>
   <g id="line2d_35"/>
   <g id="line2d_36"/>
   <g id="patch_3">
    <path d="M 53.328125 260.568552 
L 53.328125 43.112372 
" style="fill:none;stroke:#000000;stroke-linecap:square;stroke-linejoin:miter;stroke-width:0.8;"/>
   </g>
   <g id="patch_4">
    <path d="M 69.560852 288.430125 
L 394.216265 288.430125 
" style="fill:none;stroke:#000000;stroke-linecap:square;stroke-linejoin:miter;stroke-width:0.8;"/>
   </g>
   <g id="text_16">
    <!-- stb_stbi_read_fuzzer (23h, 16 trials/fuzzer) -->
    <g transform="translate(104.0375 16.318125)scale(0.12 -0.12)">
     <defs>
      <path d="M 2834 3397 
L 2834 2853 
Q 2591 2978 2328 3040 
Q 2066 3103 1784 3103 
Q 1356 3103 1142 2972 
Q 928 2841 928 2578 
Q 928 2378 1081 2264 
Q 1234 2150 1697 2047 
L 1894 2003 
Q 2506 1872 2764 1633 
Q 3022 1394 3022 966 
Q 3022 478 2636 193 
Q 2250 -91 1575 -91 
Q 1294 -91 989 -36 
Q 684 19 347 128 
L 347 722 
Q 666 556 975 473 
Q 1284 391 1588 391 
Q 1994 391 2212 530 
Q 2431 669 2431 922 
Q 2431 1156 2273 1281 
Q 2116 1406 1581 1522 
L 1381 1569 
Q 847 1681 609 1914 
Q 372 2147 372 2553 
Q 372 3047 722 3315 
Q 1072 3584 1716 3584 
Q 2034 3584 2315 3537 
Q 2597 3491 2834 3397 
z
" id="DejaVuSans-73" transform="scale(0.015625)"/>
      <path d="M 3116 1747 
Q 3116 2381 2855 2742 
Q 2594 3103 2138 3103 
Q 1681 3103 1420 2742 
Q 1159 2381 1159 1747 
Q 1159 1113 1420 752 
Q 1681 391 2138 391 
Q 2594 391 2855 752 
Q 3116 1113 3116 1747 
z
M 1159 2969 
Q 1341 3281 1617 3432 
Q 1894 3584 2278 3584 
Q 2916 3584 3314 3078 
Q 3713 2572 3713 1747 
Q 3713 922 3314 415 
Q 2916 -91 2278 -91 
Q 1894 -91 1617 61 
Q 1341 213 1159 525 
L 1159 0 
L 581 0 
L 581 4863 
L 1159 4863 
L 1159 2969 
z
" id="DejaVuSans-62" transform="scale(0.015625)"/>
      <path d="M 3263 -1063 
L 3263 -1509 
L -63 -1509 
L -63 -1063 
L 3263 -1063 
z
" id="DejaVuSans-5f" transform="scale(0.015625)"/>
      <path d="M 2375 4863 
L 2375 4384 
L 1825 4384 
Q 1516 4384 1395 4259 
Q 1275 4134 1275 3809 
L 1275 3500 
L 2222 3500 
L 2222 3053 
L 1275 3053 
L 1275 0 
L 697 0 
L 697 3053 
L 147 3053 
L 147 3500 
L 697 3500 
L 697 3744 
Q 697 4328 969 4595 
Q 1241 4863 1831 4863 
L 2375 4863 
z
" id="DejaVuSans-66" transform="scale(0.015625)"/>
      <path d="M 353 3500 
L 3084 3500 
L 3084 2975 
L 922 459 
L 3084 459 
L 3084 0 
L 275 0 
L 275 525 
L 2438 3041 
L 353 3041 
L 353 3500 
z
" id="DejaVuSans-7a" transform="scale(0.015625)"/>
      <path d="M 750 794 
L 1409 794 
L 1409 256 
L 897 -744 
L 494 -744 
L 750 256 
L 750 794 
z
" id="DejaVuSans-2c" transform="scale(0.015625)"/>
      <path d="M 603 4863 
L 1178 4863 
L 1178 0 
L 603 0 
L 603 4863 
z
" id="DejaVuSans-6c" transform="scale(0.015625)"/>
      <path d="M 1625 4666 
L 2156 4666 
L 531 -594 
L 0 -594 
L 1625 4666 
z
" id="DejaVuSans-2f" transform="scale(0.015625)"/>
     </defs>
     <use xlink:href="#DejaVuSans-73"/>
     <use x="52.099609" xlink:href="#DejaVuSans-74"/>
     <use x="91.308594" xlink:href="#DejaVuSans-62"/>
     <use x="154.785156" xlink:href="#DejaVuSans-5f"/>
     <use x="204.785156" xlink:href="#DejaVuSans-73"/>
     <use x="256.884766" xlink:href="#DejaVuSans-74"/>
     <use x="296.09375" xlink:href="#DejaVuSans-62"/>
     <use x="359.570312" xlink:href="#DejaVuSans-69"/>
     <use x="387.353516" xlink:href="#DejaVuSans-5f"/>
     <use x="437.353516" xlink:href="#DejaVuSans-72"/>
     <use x="476.216797" xlink:href="#DejaVuSans-65"/>
     <use x="537.740234" xlink:href="#DejaVuSans-61"/>
     <use x="599.019531" xlink:href="#DejaVuSans-64"/>
     <use x="662.496094" xlink:href="#DejaVuSans-5f"/>
     <use x="712.496094" xlink:href="#DejaVuSans-66"/>
     <use x="747.701172" xlink:href="#DejaVuSans-75"/>
     <use x="811.080078" xlink:href="#DejaVuSans-7a"/>
     <use x="863.570312" xlink:href="#DejaVuSans-7a"/>
     <use x="916.060547" xlink:href="#DejaVuSans-65"/>
     <use x="977.583984" xlink:href="#DejaVuSans-72"/>
     <use x="1018.697266" xlink:href="#DejaVuSans-20"/>
     <use x="1050.484375" xlink:href="#DejaVuSans-28"/>
     <use x="1089.498047" xlink:href="#DejaVuSans-32"/>
     <use x="1153.121094" xlink:href="#DejaVuSans-33"/>
     <use x="1216.744141" xlink:href="#DejaVuSans-68"/>
     <use x="1280.123047" xlink:href="#DejaVuSans-2c"/>
     <use x="1311.910156" xlink:href="#DejaVuSans-20"/>
     <use x="1343.697266" xlink:href="#DejaVuSans-31"/>
     <use x="1407.320312" xlink:href="#DejaVuSans-36"/>
     <use x="1470.943359" xlink:href="#DejaVuSans-20"/>
     <use x="1502.730469" xlink:href="#DejaVuSans-74"/>
     <use x="1541.939453" xlink:href="#DejaVuSans-72"/>
     <use x="1583.052734" xlink:href="#DejaVuSans-69"/>
     <use x="1610.835938" xlink:href="#DejaVuSans-61"/>
     <use x="1672.115234" xlink:href="#DejaVuSans-6c"/>
     <use x="1699.898438" xlink:href="#DejaVuSans-73"/>
     <use x="1751.998047" xlink:href="#DejaVuSans-2f"/>
     <use x="1785.689453" xlink:href="#DejaVuSans-66"/>
     <use x="1820.894531" xlink:href="#DejaVuSans-75"/>
     <use x="1884.273438" xlink:href="#DejaVuSans-7a"/>
     <use x="1936.763672" xlink:href="#DejaVuSans-7a"/>
     <use x="1989.253906" xlink:href="#DejaVuSans-65"/>
     <use x="2050.777344" xlink:href="#DejaVuSans-72"/>
     <use x="2091.890625" xlink:href="#DejaVuSans-29"/>
    </g>
   </g>
   <g id="legend_1">
    <g id="line2d_37">
     <path d="M 414.448125 30.416562 
L 434.448125 30.416562 
" style="fill:none;stroke:#1f77b4;stroke-linecap:square;stroke-width:1.5;"/>
    </g>
    <g id="line2d_38">
     <defs>
      <path d="M 0 3 
C 0.795609 3 1.55874 2.683901 2.12132 2.12132 
C 2.683901 1.55874 3 0.795609 3 0 
C 3 -0.795609 2.683901 -1.55874 2.12132 -2.12132 
C 1.55874 -2.683901 0.795609 -3 0 -3 
C -0.795609 -3 -1.55874 -2.683901 -2.12132 -2.12132 
C -2.683901 -1.55874 -3 -0.795609 -3 0 
C -3 0.795609 -2.683901 1.55874 -2.12132 2.12132 
C -1.55874 2.683901 -0.795609 3 0 3 
z
" id="m7b4143bf40" style="stroke:#1f77b4;"/>
     </defs>
     <g>
      <use style="fill:#1f77b4;stroke:#1f77b4;" x="424.448125" xlink:href="#m7b4143bf40" y="30.416562"/>
     </g>
    </g>
    <g id="text_17">
     <!-- afl -->
     <g transform="translate(442.448125 33.916562)scale(0.1 -0.1)">
      <use xlink:href="#DejaVuSans-61"/>
      <use x="61.279297" xlink:href="#DejaVuSans-66"/>
      <use x="96.484375" xlink:href="#DejaVuSans-6c"/>
     </g>
    </g>
    <g id="line2d_39">
     <path d="M 414.448125 45.094688 
L 434.448125 45.094688 
" style="fill:none;stroke:#98df8a;stroke-linecap:square;stroke-width:1.5;"/>
    </g>
    <g id="line2d_40">
     <defs>
      <path d="M -0 3 
L 3 -3 
L -3 -3 
z
" id="mf865f2da48" style="stroke:#98df8a;stroke-linejoin:miter;"/>
     </defs>
     <g>
      <use style="fill:#98df8a;stroke:#98df8a;stroke-linejoin:miter;" x="424.448125" xlink:href="#mf865f2da48" y="45.094688"/>
     </g>
    </g>
    <g id="text_18">
     <!-- afl_no_favfactor -->
     <g transform="translate(442.448125 48.594688)scale(0.1 -0.1)">
      <use xlink:href="#DejaVuSans-61"/>
      <use x="61.279297" xlink:href="#DejaVuSans-66"/>
      <use x="96.484375" xlink:href="#DejaVuSans-6c"/>
      <use x="124.267578" xlink:href="#DejaVuSans-5f"/>
      <use x="174.267578" xlink:href="#DejaVuSans-6e"/>
      <use x="237.646484" xlink:href="#DejaVuSans-6f"/>
      <use x="298.828125" xlink:href="#DejaVuSans-5f"/>
      <use x="348.828125" xlink:href="#DejaVuSans-66"/>
      <use x="384.033203" xlink:href="#DejaVuSans-61"/>
      <use x="445.3125" xlink:href="#DejaVuSans-76"/>
      <use x="504.492188" xlink:href="#DejaVuSans-66"/>
      <use x="539.697266" xlink:href="#DejaVuSans-61"/>
      <use x="600.976562" xlink:href="#DejaVuSans-63"/>
      <use x="655.957031" xlink:href="#DejaVuSans-74"/>
      <use x="695.166016" xlink:href="#DejaVuSans-6f"/>
      <use x="756.347656" xlink:href="#DejaVuSans-72"/>
     </g>
    </g>
    <g id="line2d_41">
     <path d="M 414.448125 60.050937 
L 434.448125 60.050937 
" style="fill:none;stroke:#d62728;stroke-linecap:square;stroke-width:1.5;"/>
    </g>
    <g id="line2d_42">
     <defs>
      <path d="M 0 -3 
L -3 3 
L 3 3 
z
" id="m328c2a471d" style="stroke:#d62728;stroke-linejoin:miter;"/>
     </defs>
     <g>
      <use style="fill:#d62728;stroke:#d62728;stroke-linejoin:miter;" x="424.448125" xlink:href="#m328c2a471d" y="60.050937"/>
     </g>
    </g>
    <g id="text_19">
     <!-- afl_no_favored -->
     <g transform="translate(442.448125 63.550937)scale(0.1 -0.1)">
      <use xlink:href="#DejaVuSans-61"/>
      <use x="61.279297" xlink:href="#DejaVuSans-66"/>
      <use x="96.484375" xlink:href="#DejaVuSans-6c"/>
      <use x="124.267578" xlink:href="#DejaVuSans-5f"/>
      <use x="174.267578" xlink:href="#DejaVuSans-6e"/>
      <use x="237.646484" xlink:href="#DejaVuSans-6f"/>
      <use x="298.828125" xlink:href="#DejaVuSans-5f"/>
      <use x="348.828125" xlink:href="#DejaVuSans-66"/>
      <use x="384.033203" xlink:href="#DejaVuSans-61"/>
      <use x="445.3125" xlink:href="#DejaVuSans-76"/>
      <use x="504.492188" xlink:href="#DejaVuSans-6f"/>
      <use x="565.673828" xlink:href="#DejaVuSans-72"/>
      <use x="604.537109" xlink:href="#DejaVuSans-65"/>
      <use x="666.060547" xlink:href="#DejaVuSans-64"/>
     </g>
    </g>
   </g>
  </g>
 </g>
 <defs>
  <clipPath id="pc39366c629">
   <rect height="266.112" width="357.12" x="53.328125" y="22.318125"/>
  </clipPath>
 </defs>
</svg>
