<?xml version="1.0" encoding="utf-8" standalone="no"?>
<!DOCTYPE svg PUBLIC "-//W3C//DTD SVG 1.1//EN"
  "http://www.w3.org/Graphics/SVG/1.1/DTD/svg11.dtd">
<svg height="325.986375pt" version="1.1" viewBox="0 0 539.7575 325.986375" width="539.7575pt" xmlns="http://www.w3.org/2000/svg" xmlns:xlink="http://www.w3.org/1999/xlink">
 <metadata>
  <rdf:RDF xmlns:cc="http://creativecommons.org/ns#" xmlns:dc="http://purl.org/dc/elements/1.1/" xmlns:rdf="http://www.w3.org/1999/02/22-rdf-syntax-ns#">
   <cc:Work>
    <dc:type rdf:resource="http://purl.org/dc/dcmitype/StillImage"/>
    <dc:date>2022-05-24T15:53:32.804310</dc:date>
    <dc:format>image/svg+xml</dc:format>
    <dc:creator>
     <cc:Agent>
      <dc:title>Matplotlib v3.4.3, https://matplotlib.org/</dc:title>
     </cc:Agent>
    </dc:creator>
   </cc:Work>
  </rdf:RDF>
 </metadata>
 <defs>
  <style type="text/css">*{stroke-linecap:butt;stroke-linejoin:round;}</style>
 </defs>
 <g id="figure_1">
  <g id="patch_1">
   <path d="M 0 325.986375 
L 539.7575 325.986375 
L 539.7575 0 
L 0 0 
z
" style="fill:#ffffff;"/>
  </g>
  <g id="axes_1">
   <g id="patch_2">
    <path d="M 59.690625 288.430125 
L 416.810625 288.430125 
L 416.810625 22.318125 
L 59.690625 22.318125 
z
" style="fill:#ffffff;"/>
   </g>
   <g id="PolyCollection_1">
    <defs>
     <path d="M 75.923352 -107.165307 
L 75.923352 -49.65225 
L 79.490985 -91.64591 
L 83.058617 -106.252401 
L 86.626249 -113.190484 
L 90.193882 -127.431812 
L 93.761514 -124.510514 
L 97.329146 -140.760235 
L 100.896779 -148.611224 
L 104.464411 -168.190768 
L 108.032044 -166.321593 
L 111.599676 -160.478997 
L 115.167308 -173.533548 
L 118.734941 -180.227429 
L 122.302573 -186.953261 
L 125.870205 -186.953261 
L 129.437838 -198.09071 
L 133.00547 -204.115888 
L 136.573103 -194.895541 
L 140.140735 -200.829427 
L 143.708367 -212.149458 
L 147.276 -212.106095 
L 150.843632 -213.153654 
L 154.411264 -217.535601 
L 157.978897 -217.992054 
L 161.546529 -227.12111 
L 165.114161 -227.12111 
L 168.681794 -228.581759 
L 172.249426 -228.581759 
L 175.817059 -222.739163 
L 179.384691 -228.764341 
L 182.952323 -229.859827 
L 186.519956 -230.772733 
L 190.087588 -229.951118 
L 193.65522 -230.955314 
L 197.222853 -235.15468 
L 200.790485 -240.449533 
L 204.358118 -240.084371 
L 207.92575 -242.549216 
L 211.493382 -241.818892 
L 215.061015 -243.535154 
L 218.628647 -243.553412 
L 222.196279 -242.914378 
L 225.763912 -244.466318 
L 229.331544 -244.466318 
L 232.899176 -244.466318 
L 236.466809 -244.466318 
L 240.034441 -244.466318 
L 243.602074 -245.287933 
L 247.169706 -245.287933 
L 250.737338 -245.744386 
L 254.304971 -248.756975 
L 257.872603 -247.022454 
L 261.440235 -250.674076 
L 265.007868 -250.674076 
L 268.5755 -251.940733 
L 272.143132 -251.952144 
L 275.710765 -251.495692 
L 279.278397 -252.682469 
L 282.84603 -253.230212 
L 286.413662 -253.230212 
L 289.981294 -253.501802 
L 293.548927 -253.321503 
L 297.116559 -255.056024 
L 300.684191 -255.147314 
L 304.251824 -255.147314 
L 307.819456 -255.147314 
L 311.387089 -255.414339 
L 314.954721 -255.147314 
L 318.522353 -255.147314 
L 322.089986 -255.147314 
L 325.657618 -255.147314 
L 329.22525 -257.794741 
L 332.792883 -257.155707 
L 336.360515 -257.155707 
L 339.928147 -257.246997 
L 343.49578 -257.787894 
L 347.063412 -261.713388 
L 350.631045 -261.720235 
L 354.198677 -261.720235 
L 357.766309 -263.180884 
L 361.333942 -261.720235 
L 364.901574 -263.144368 
L 368.469206 -263.26761 
L 372.036839 -263.089593 
L 375.604471 -263.26761 
L 379.172104 -263.089593 
L 382.739736 -268.384446 
L 386.307368 -268.384446 
L 389.875001 -268.384446 
L 393.442633 -268.384446 
L 397.010265 -268.384446 
L 400.577898 -269.114771 
L 400.577898 -291.57225 
L 400.577898 -291.57225 
L 397.010265 -282.260612 
L 393.442633 -282.260612 
L 389.875001 -282.260612 
L 386.307368 -282.260612 
L 382.739736 -282.260612 
L 379.172104 -286.73385 
L 375.604471 -286.73385 
L 372.036839 -286.73385 
L 368.469206 -286.73385 
L 364.901574 -286.73385 
L 361.333942 -286.642559 
L 357.766309 -286.73385 
L 354.198677 -286.73385 
L 350.631045 -282.315387 
L 347.063412 -285.18191 
L 343.49578 -279.978348 
L 339.928147 -280.34351 
L 336.360515 -279.978348 
L 332.792883 -279.613186 
L 329.22525 -279.065442 
L 325.657618 -276.235435 
L 322.089986 -276.235435 
L 318.522353 -272.675103 
L 314.954721 -272.492522 
L 311.387089 -272.309941 
L 307.819456 -272.583812 
L 304.251824 -272.492522 
L 300.684191 -272.492522 
L 297.116559 -272.136488 
L 293.548927 -270.694098 
L 289.981294 -270.301548 
L 286.413662 -269.945515 
L 282.84603 -269.114771 
L 279.278397 -270.301548 
L 275.710765 -269.206061 
L 272.143132 -267.654122 
L 268.5755 -265.73702 
L 265.007868 -265.73702 
L 261.440235 -265.280567 
L 257.872603 -265.280567 
L 254.304971 -265.280567 
L 250.737338 -265.371858 
L 247.169706 -265.371858 
L 243.602074 -265.280567 
L 240.034441 -265.280567 
L 236.466809 -265.463148 
L 232.899176 -265.280567 
L 229.331544 -265.280567 
L 225.763912 -265.280567 
L 222.196279 -264.732824 
L 218.628647 -264.18508 
L 215.061015 -264.18508 
L 211.493382 -264.198774 
L 207.92575 -264.18508 
L 204.358118 -264.198774 
L 200.790485 -264.18508 
L 197.222853 -264.18508 
L 193.65522 -264.198774 
L 190.087588 -264.732824 
L 186.519956 -258.538759 
L 182.952323 -258.433775 
L 179.384691 -257.612159 
L 175.817059 -258.068612 
L 172.249426 -258.525065 
L 168.681794 -258.525065 
L 165.114161 -256.15151 
L 161.546529 -256.15151 
L 157.978897 -253.595375 
L 154.411264 -249.213427 
L 150.843632 -245.379224 
L 147.276 -242.184054 
L 143.708367 -241.727601 
L 140.140735 -241.362439 
L 136.573103 -240.997276 
L 133.00547 -240.997276 
L 129.437838 -240.449533 
L 125.870205 -239.90179 
L 122.302573 -239.171465 
L 118.734941 -233.785322 
L 115.167308 -224.564975 
L 111.599676 -220.63948 
L 108.032044 -219.909156 
L 104.464411 -218.539797 
L 100.896779 -211.875586 
L 97.329146 -201.28588 
L 93.761514 -194.073925 
L 90.193882 -189.326816 
L 86.626249 -185.675193 
L 83.058617 -182.023571 
L 79.490985 -170.338378 
L 75.923352 -107.165307 
z
" id="me6687c1740" style="stroke:#1f77b4;stroke-opacity:0.2;"/>
    </defs>
    <g clip-path="url(#p7b2c532b77)">
     <use style="fill:#1f77b4;fill-opacity:0.2;stroke:#1f77b4;stroke-opacity:0.2;" x="0" xlink:href="#me6687c1740" y="325.986375"/>
    </g>
   </g>
   <g id="PolyCollection_2">
    <defs>
     <path d="M 75.923352 -145.689925 
L 75.923352 -73.935541 
L 79.490985 -104.974333 
L 83.058617 -123.962771 
L 86.626249 -134.004733 
L 90.193882 -133.822152 
L 93.761514 -138.197252 
L 97.329146 -141.125397 
L 100.896779 -141.125397 
L 104.464411 -146.602831 
L 108.032044 -152.628008 
L 111.599676 -179.102273 
L 115.167308 -179.650016 
L 118.734941 -179.832597 
L 122.302573 -179.832597 
L 125.870205 -220.183027 
L 129.437838 -222.19142 
L 133.00547 -222.921744 
L 136.573103 -229.677246 
L 140.140735 -229.677246 
L 143.708367 -229.859827 
L 147.276 -230.042408 
L 150.843632 -232.598544 
L 154.411264 -232.598544 
L 157.978897 -232.598544 
L 161.546529 -232.781125 
L 165.114161 -232.781125 
L 168.681794 -232.781125 
L 172.249426 -232.781125 
L 175.817059 -238.242584 
L 179.384691 -238.258559 
L 182.952323 -243.370831 
L 186.519956 -242.275344 
L 190.087588 -243.521461 
L 193.65522 -246.109548 
L 197.222853 -247.478907 
L 200.790485 -247.205035 
L 204.358118 -247.205035 
L 207.92575 -247.205035 
L 211.493382 -248.848265 
L 215.061015 -248.848265 
L 218.628647 -248.848265 
L 222.196279 -249.030846 
L 225.763912 -249.030846 
L 229.331544 -249.761171 
L 232.899176 -250.491495 
L 236.466809 -250.491495 
L 240.034441 -250.856658 
L 243.602074 -250.856658 
L 247.169706 -251.769563 
L 250.737338 -252.134725 
L 254.304971 -252.134725 
L 257.872603 -253.230212 
L 261.440235 -253.230212 
L 265.007868 -253.230212 
L 268.5755 -253.230212 
L 272.143132 -253.230212 
L 275.710765 -253.230212 
L 279.278397 -256.242801 
L 282.84603 -256.425382 
L 286.413662 -256.425382 
L 289.981294 -253.230212 
L 293.548927 -267.471541 
L 297.116559 -267.471541 
L 300.684191 -268.749608 
L 304.251824 -268.749608 
L 307.819456 -268.749608 
L 311.387089 -268.749608 
L 314.954721 -268.749608 
L 318.522353 -268.749608 
L 322.089986 -268.749608 
L 325.657618 -268.749608 
L 329.22525 -268.749608 
L 332.792883 -268.749608 
L 336.360515 -268.749608 
L 339.928147 -268.749608 
L 343.49578 -268.749608 
L 347.063412 -268.749608 
L 350.631045 -269.105642 
L 354.198677 -269.114771 
L 357.766309 -268.749608 
L 361.333942 -261.081201 
L 364.901574 -261.081201 
L 368.469206 -261.081201 
L 372.036839 -264.04358 
L 375.604471 -261.263782 
L 379.172104 -261.263782 
L 382.739736 -261.355073 
L 386.307368 -261.355073 
L 389.875001 -261.537654 
L 393.442633 -261.537654 
L 397.010265 -261.537654 
L 400.577898 -261.537654 
L 400.577898 -287.829337 
L 400.577898 -287.829337 
L 397.010265 -286.642559 
L 393.442633 -287.099012 
L 389.875001 -286.642559 
L 386.307368 -287.829337 
L 382.739736 -288.28579 
L 379.172104 -287.829337 
L 375.604471 -286.642559 
L 372.036839 -287.829337 
L 368.469206 -286.642559 
L 364.901574 -286.642559 
L 361.333942 -287.738046 
L 357.766309 -288.833533 
L 354.198677 -289.381276 
L 350.631045 -289.381276 
L 347.063412 -289.381276 
L 343.49578 -288.833533 
L 339.928147 -288.833533 
L 336.360515 -288.833533 
L 332.792883 -288.833533 
L 329.22525 -288.468371 
L 325.657618 -288.468371 
L 322.089986 -288.468371 
L 318.522353 -287.738046 
L 314.954721 -287.738046 
L 311.387089 -287.738046 
L 307.819456 -287.738046 
L 304.251824 -287.738046 
L 300.684191 -286.642559 
L 297.116559 -286.642559 
L 293.548927 -286.642559 
L 289.981294 -286.642559 
L 286.413662 -288.103208 
L 282.84603 -288.103208 
L 279.278397 -288.103208 
L 275.710765 -286.459978 
L 272.143132 -283.356099 
L 268.5755 -283.356099 
L 265.007868 -283.356099 
L 261.440235 -283.356099 
L 257.872603 -283.173518 
L 254.304971 -283.173518 
L 250.737338 -279.704476 
L 247.169706 -279.704476 
L 243.602074 -278.791571 
L 240.034441 -278.791571 
L 236.466809 -278.791571 
L 232.899176 -278.243827 
L 229.331544 -275.322529 
L 225.763912 -275.322529 
L 222.196279 -271.670907 
L 218.628647 -271.670907 
L 215.061015 -271.670907 
L 211.493382 -271.670907 
L 207.92575 -271.670907 
L 204.358118 -271.670907 
L 200.790485 -268.567027 
L 197.222853 -266.467344 
L 193.65522 -263.819918 
L 190.087588 -263.546046 
L 186.519956 -261.994107 
L 182.952323 -261.994107 
L 179.384691 -259.803133 
L 175.817059 -257.46153 
L 172.249426 -262.359269 
L 168.681794 -261.081201 
L 165.114161 -260.89862 
L 161.546529 -260.89862 
L 157.978897 -260.89862 
L 154.411264 -260.89862 
L 150.843632 -260.89862 
L 147.276 -259.620552 
L 143.708367 -255.786348 
L 140.140735 -255.786348 
L 136.573103 -253.960537 
L 133.00547 -247.935359 
L 129.437838 -246.109548 
L 125.870205 -246.109548 
L 122.302573 -246.109548 
L 118.734941 -242.823088 
L 115.167308 -241.727601 
L 111.599676 -241.727601 
L 108.032044 -238.075978 
L 104.464411 -237.893397 
L 100.896779 -235.15468 
L 97.329146 -225.112718 
L 93.761514 -225.843042 
L 90.193882 -225.569171 
L 86.626249 -218.357216 
L 83.058617 -211.236552 
L 79.490985 -187.501005 
L 75.923352 -145.689925 
z
" id="m29feb6512f" style="stroke:#98df8a;stroke-opacity:0.2;"/>
    </defs>
    <g clip-path="url(#p7b2c532b77)">
     <use style="fill:#98df8a;fill-opacity:0.2;stroke:#98df8a;stroke-opacity:0.2;" x="0" xlink:href="#m29feb6512f" y="325.986375"/>
    </g>
   </g>
   <g id="PolyCollection_3">
    <defs>
     <path d="M 75.923352 -138.934424 
L 75.923352 -56.772914 
L 79.490985 -87.994288 
L 83.058617 -100.044642 
L 86.626249 -124.327933 
L 90.193882 -124.327933 
L 93.761514 -127.796975 
L 97.329146 -131.083435 
L 100.896779 -131.448597 
L 104.464411 -131.631178 
L 108.032044 -134.735058 
L 111.599676 -141.855722 
L 115.167308 -142.768627 
L 118.734941 -142.768627 
L 122.302573 -142.768627 
L 125.870205 -142.768627 
L 129.437838 -148.428642 
L 133.00547 -212.149458 
L 136.573103 -216.166242 
L 140.140735 -216.896567 
L 143.708367 -216.896567 
L 147.276 -217.079148 
L 150.843632 -217.079148 
L 154.411264 -217.079148 
L 157.978897 -217.992054 
L 161.546529 -217.992054 
L 165.114161 -222.921744 
L 168.681794 -224.930137 
L 172.249426 -236.615329 
L 175.817059 -236.980492 
L 179.384691 -236.980492 
L 182.952323 -240.449533 
L 186.519956 -240.814695 
L 190.087588 -240.814695 
L 193.65522 -240.814695 
L 197.222853 -241.362439 
L 200.790485 -241.727601 
L 204.358118 -241.727601 
L 207.92575 -241.727601 
L 211.493382 -242.275344 
L 215.061015 -244.466318 
L 218.628647 -244.466318 
L 222.196279 -244.466318 
L 225.763912 -244.466318 
L 229.331544 -244.466318 
L 232.899176 -244.466318 
L 236.466809 -244.466318 
L 240.034441 -244.466318 
L 243.602074 -244.466318 
L 247.169706 -244.466318 
L 250.737338 -244.466318 
L 254.304971 -244.466318 
L 257.872603 -244.466318 
L 261.440235 -245.926967 
L 265.007868 -245.926967 
L 268.5755 -245.926967 
L 272.143132 -245.926967 
L 275.710765 -245.926967 
L 279.278397 -245.926967 
L 282.84603 -245.926967 
L 286.413662 -245.926967 
L 289.981294 -245.926967 
L 293.548927 -245.926967 
L 297.116559 -248.117941 
L 300.684191 -248.117941 
L 304.251824 -248.117941 
L 307.819456 -248.117941 
L 311.387089 -248.117941 
L 314.954721 -248.117941 
L 318.522353 -248.117941 
L 322.089986 -248.117941 
L 325.657618 -250.856658 
L 329.22525 -250.856658 
L 332.792883 -252.682469 
L 336.360515 -252.682469 
L 339.928147 -252.682469 
L 343.49578 -252.682469 
L 347.063412 -252.682469 
L 350.631045 -252.682469 
L 354.198677 -252.682469 
L 357.766309 -252.682469 
L 361.333942 -253.777956 
L 364.901574 -253.777956 
L 368.469206 -253.777956 
L 372.036839 -253.777956 
L 375.604471 -253.777956 
L 379.172104 -253.777956 
L 382.739736 -253.777956 
L 386.307368 -253.777956 
L 389.875001 -253.777956 
L 393.442633 -253.777956 
L 397.010265 -253.777956 
L 400.577898 -253.777956 
L 400.577898 -279.704476 
L 400.577898 -279.704476 
L 397.010265 -279.704476 
L 393.442633 -279.704476 
L 389.875001 -279.704476 
L 386.307368 -279.704476 
L 382.739736 -279.704476 
L 379.172104 -279.704476 
L 375.604471 -279.704476 
L 372.036839 -279.704476 
L 368.469206 -279.704476 
L 364.901574 -279.704476 
L 361.333942 -279.704476 
L 357.766309 -279.704476 
L 354.198677 -279.704476 
L 350.631045 -279.704476 
L 347.063412 -279.704476 
L 343.49578 -278.061246 
L 339.928147 -278.061246 
L 336.360515 -278.061246 
L 332.792883 -278.061246 
L 329.22525 -278.061246 
L 325.657618 -278.061246 
L 322.089986 -278.061246 
L 318.522353 -273.131556 
L 314.954721 -273.131556 
L 311.387089 -273.131556 
L 307.819456 -273.131556 
L 304.251824 -273.131556 
L 300.684191 -273.131556 
L 297.116559 -273.131556 
L 293.548927 -273.131556 
L 289.981294 -273.131556 
L 286.413662 -273.131556 
L 282.84603 -273.131556 
L 279.278397 -273.131556 
L 275.710765 -271.488325 
L 272.143132 -271.305744 
L 268.5755 -271.305744 
L 265.007868 -271.305744 
L 261.440235 -267.106378 
L 257.872603 -267.106378 
L 254.304971 -267.106378 
L 250.737338 -267.106378 
L 247.169706 -267.106378 
L 243.602074 -267.106378 
L 240.034441 -267.106378 
L 236.466809 -267.106378 
L 232.899176 -267.106378 
L 229.331544 -267.106378 
L 225.763912 -266.923797 
L 222.196279 -266.923797 
L 218.628647 -266.923797 
L 215.061015 -266.923797 
L 211.493382 -266.923797 
L 207.92575 -266.923797 
L 204.358118 -263.454756 
L 200.790485 -260.89862 
L 197.222853 -260.89862 
L 193.65522 -260.89862 
L 190.087588 -260.89862 
L 186.519956 -260.89862 
L 182.952323 -260.89862 
L 179.384691 -260.89862 
L 175.817059 -260.89862 
L 172.249426 -260.89862 
L 168.681794 -260.89862 
L 165.114161 -260.89862 
L 161.546529 -260.716039 
L 157.978897 -260.716039 
L 154.411264 -258.342484 
L 150.843632 -258.342484 
L 147.276 -258.342484 
L 143.708367 -255.603767 
L 140.140735 -255.603767 
L 136.573103 -254.690861 
L 133.00547 -254.690861 
L 129.437838 -254.690861 
L 125.870205 -254.690861 
L 122.302573 -253.595375 
L 118.734941 -252.317307 
L 115.167308 -246.839873 
L 111.599676 -246.109548 
L 108.032044 -234.059193 
L 104.464411 -233.146288 
L 100.896779 -225.660461 
L 97.329146 -214.888175 
L 93.761514 -214.340431 
L 90.193882 -214.340431 
L 86.626249 -209.228159 
L 83.058617 -192.613276 
L 79.490985 -182.206152 
L 75.923352 -138.934424 
z
" id="m871a2a8700" style="stroke:#d62728;stroke-opacity:0.2;"/>
    </defs>
    <g clip-path="url(#p7b2c532b77)">
     <use style="fill:#d62728;fill-opacity:0.2;stroke:#d62728;stroke-opacity:0.2;" x="0" xlink:href="#m871a2a8700" y="325.986375"/>
    </g>
   </g>
   <g id="matplotlib.axis_1">
    <g id="xtick_1">
     <g id="line2d_1">
      <defs>
       <path d="M 0 0 
L 0 3.5 
" id="m7984095660" style="stroke:#000000;stroke-width:0.8;"/>
      </defs>
      <g>
       <use style="stroke:#000000;stroke-width:0.8;" x="75.923352" xlink:href="#m7984095660" y="288.430125"/>
      </g>
     </g>
     <g id="text_1">
      <!-- 15m -->
      <g transform="translate(64.69054 303.028562)scale(0.1 -0.1)">
       <defs>
        <path d="M 794 531 
L 1825 531 
L 1825 4091 
L 703 3866 
L 703 4441 
L 1819 4666 
L 2450 4666 
L 2450 531 
L 3481 531 
L 3481 0 
L 794 0 
L 794 531 
z
" id="DejaVuSans-31" transform="scale(0.015625)"/>
        <path d="M 691 4666 
L 3169 4666 
L 3169 4134 
L 1269 4134 
L 1269 2991 
Q 1406 3038 1543 3061 
Q 1681 3084 1819 3084 
Q 2600 3084 3056 2656 
Q 3513 2228 3513 1497 
Q 3513 744 3044 326 
Q 2575 -91 1722 -91 
Q 1428 -91 1123 -41 
Q 819 9 494 109 
L 494 744 
Q 775 591 1075 516 
Q 1375 441 1709 441 
Q 2250 441 2565 725 
Q 2881 1009 2881 1497 
Q 2881 1984 2565 2268 
Q 2250 2553 1709 2553 
Q 1456 2553 1204 2497 
Q 953 2441 691 2322 
L 691 4666 
z
" id="DejaVuSans-35" transform="scale(0.015625)"/>
        <path d="M 3328 2828 
Q 3544 3216 3844 3400 
Q 4144 3584 4550 3584 
Q 5097 3584 5394 3201 
Q 5691 2819 5691 2113 
L 5691 0 
L 5113 0 
L 5113 2094 
Q 5113 2597 4934 2840 
Q 4756 3084 4391 3084 
Q 3944 3084 3684 2787 
Q 3425 2491 3425 1978 
L 3425 0 
L 2847 0 
L 2847 2094 
Q 2847 2600 2669 2842 
Q 2491 3084 2119 3084 
Q 1678 3084 1418 2786 
Q 1159 2488 1159 1978 
L 1159 0 
L 581 0 
L 581 3500 
L 1159 3500 
L 1159 2956 
Q 1356 3278 1631 3431 
Q 1906 3584 2284 3584 
Q 2666 3584 2933 3390 
Q 3200 3197 3328 2828 
z
" id="DejaVuSans-6d" transform="scale(0.015625)"/>
       </defs>
       <use xlink:href="#DejaVuSans-31"/>
       <use x="63.623047" xlink:href="#DejaVuSans-35"/>
       <use x="127.246094" xlink:href="#DejaVuSans-6d"/>
      </g>
     </g>
    </g>
    <g id="xtick_2">
     <g id="line2d_2">
      <g>
       <use style="stroke:#000000;stroke-width:0.8;" x="130.627049" xlink:href="#m7984095660" y="288.430125"/>
      </g>
     </g>
     <g id="text_2">
      <!-- 4h:5m -->
      <g transform="translate(114.541111 303.028562)scale(0.1 -0.1)">
       <defs>
        <path d="M 2419 4116 
L 825 1625 
L 2419 1625 
L 2419 4116 
z
M 2253 4666 
L 3047 4666 
L 3047 1625 
L 3713 1625 
L 3713 1100 
L 3047 1100 
L 3047 0 
L 2419 0 
L 2419 1100 
L 313 1100 
L 313 1709 
L 2253 4666 
z
" id="DejaVuSans-34" transform="scale(0.015625)"/>
        <path d="M 3513 2113 
L 3513 0 
L 2938 0 
L 2938 2094 
Q 2938 2591 2744 2837 
Q 2550 3084 2163 3084 
Q 1697 3084 1428 2787 
Q 1159 2491 1159 1978 
L 1159 0 
L 581 0 
L 581 4863 
L 1159 4863 
L 1159 2956 
Q 1366 3272 1645 3428 
Q 1925 3584 2291 3584 
Q 2894 3584 3203 3211 
Q 3513 2838 3513 2113 
z
" id="DejaVuSans-68" transform="scale(0.015625)"/>
        <path d="M 750 794 
L 1409 794 
L 1409 0 
L 750 0 
L 750 794 
z
M 750 3309 
L 1409 3309 
L 1409 2516 
L 750 2516 
L 750 3309 
z
" id="DejaVuSans-3a" transform="scale(0.015625)"/>
       </defs>
       <use xlink:href="#DejaVuSans-34"/>
       <use x="63.623047" xlink:href="#DejaVuSans-68"/>
       <use x="127.001953" xlink:href="#DejaVuSans-3a"/>
       <use x="160.693359" xlink:href="#DejaVuSans-35"/>
       <use x="224.316406" xlink:href="#DejaVuSans-6d"/>
      </g>
     </g>
    </g>
    <g id="xtick_3">
     <g id="line2d_3">
      <g>
       <use style="stroke:#000000;stroke-width:0.8;" x="185.330745" xlink:href="#m7984095660" y="288.430125"/>
      </g>
     </g>
     <g id="text_3">
      <!-- 7h:55m -->
      <g transform="translate(166.063557 303.028562)scale(0.1 -0.1)">
       <defs>
        <path d="M 525 4666 
L 3525 4666 
L 3525 4397 
L 1831 0 
L 1172 0 
L 2766 4134 
L 525 4134 
L 525 4666 
z
" id="DejaVuSans-37" transform="scale(0.015625)"/>
       </defs>
       <use xlink:href="#DejaVuSans-37"/>
       <use x="63.623047" xlink:href="#DejaVuSans-68"/>
       <use x="127.001953" xlink:href="#DejaVuSans-3a"/>
       <use x="160.693359" xlink:href="#DejaVuSans-35"/>
       <use x="224.316406" xlink:href="#DejaVuSans-35"/>
       <use x="287.939453" xlink:href="#DejaVuSans-6d"/>
      </g>
     </g>
    </g>
    <g id="xtick_4">
     <g id="line2d_4">
      <g>
       <use style="stroke:#000000;stroke-width:0.8;" x="240.034441" xlink:href="#m7984095660" y="288.430125"/>
      </g>
     </g>
     <g id="text_4">
      <!-- 11h:45m -->
      <g transform="translate(217.586004 303.028562)scale(0.1 -0.1)">
       <use xlink:href="#DejaVuSans-31"/>
       <use x="63.623047" xlink:href="#DejaVuSans-31"/>
       <use x="127.246094" xlink:href="#DejaVuSans-68"/>
       <use x="190.625" xlink:href="#DejaVuSans-3a"/>
       <use x="224.316406" xlink:href="#DejaVuSans-34"/>
       <use x="287.939453" xlink:href="#DejaVuSans-35"/>
       <use x="351.5625" xlink:href="#DejaVuSans-6d"/>
      </g>
     </g>
    </g>
    <g id="xtick_5">
     <g id="line2d_5">
      <g>
       <use style="stroke:#000000;stroke-width:0.8;" x="294.738137" xlink:href="#m7984095660" y="288.430125"/>
      </g>
     </g>
     <g id="text_5">
      <!-- 15h:35m -->
      <g transform="translate(272.2897 303.028562)scale(0.1 -0.1)">
       <defs>
        <path d="M 2597 2516 
Q 3050 2419 3304 2112 
Q 3559 1806 3559 1356 
Q 3559 666 3084 287 
Q 2609 -91 1734 -91 
Q 1441 -91 1130 -33 
Q 819 25 488 141 
L 488 750 
Q 750 597 1062 519 
Q 1375 441 1716 441 
Q 2309 441 2620 675 
Q 2931 909 2931 1356 
Q 2931 1769 2642 2001 
Q 2353 2234 1838 2234 
L 1294 2234 
L 1294 2753 
L 1863 2753 
Q 2328 2753 2575 2939 
Q 2822 3125 2822 3475 
Q 2822 3834 2567 4026 
Q 2313 4219 1838 4219 
Q 1578 4219 1281 4162 
Q 984 4106 628 3988 
L 628 4550 
Q 988 4650 1302 4700 
Q 1616 4750 1894 4750 
Q 2613 4750 3031 4423 
Q 3450 4097 3450 3541 
Q 3450 3153 3228 2886 
Q 3006 2619 2597 2516 
z
" id="DejaVuSans-33" transform="scale(0.015625)"/>
       </defs>
       <use xlink:href="#DejaVuSans-31"/>
       <use x="63.623047" xlink:href="#DejaVuSans-35"/>
       <use x="127.246094" xlink:href="#DejaVuSans-68"/>
       <use x="190.625" xlink:href="#DejaVuSans-3a"/>
       <use x="224.316406" xlink:href="#DejaVuSans-33"/>
       <use x="287.939453" xlink:href="#DejaVuSans-35"/>
       <use x="351.5625" xlink:href="#DejaVuSans-6d"/>
      </g>
     </g>
    </g>
    <g id="xtick_6">
     <g id="line2d_6">
      <g>
       <use style="stroke:#000000;stroke-width:0.8;" x="349.441834" xlink:href="#m7984095660" y="288.430125"/>
      </g>
     </g>
     <g id="text_6">
      <!-- 19h:25m -->
      <g transform="translate(326.993396 303.028562)scale(0.1 -0.1)">
       <defs>
        <path d="M 703 97 
L 703 672 
Q 941 559 1184 500 
Q 1428 441 1663 441 
Q 2288 441 2617 861 
Q 2947 1281 2994 2138 
Q 2813 1869 2534 1725 
Q 2256 1581 1919 1581 
Q 1219 1581 811 2004 
Q 403 2428 403 3163 
Q 403 3881 828 4315 
Q 1253 4750 1959 4750 
Q 2769 4750 3195 4129 
Q 3622 3509 3622 2328 
Q 3622 1225 3098 567 
Q 2575 -91 1691 -91 
Q 1453 -91 1209 -44 
Q 966 3 703 97 
z
M 1959 2075 
Q 2384 2075 2632 2365 
Q 2881 2656 2881 3163 
Q 2881 3666 2632 3958 
Q 2384 4250 1959 4250 
Q 1534 4250 1286 3958 
Q 1038 3666 1038 3163 
Q 1038 2656 1286 2365 
Q 1534 2075 1959 2075 
z
" id="DejaVuSans-39" transform="scale(0.015625)"/>
        <path d="M 1228 531 
L 3431 531 
L 3431 0 
L 469 0 
L 469 531 
Q 828 903 1448 1529 
Q 2069 2156 2228 2338 
Q 2531 2678 2651 2914 
Q 2772 3150 2772 3378 
Q 2772 3750 2511 3984 
Q 2250 4219 1831 4219 
Q 1534 4219 1204 4116 
Q 875 4013 500 3803 
L 500 4441 
Q 881 4594 1212 4672 
Q 1544 4750 1819 4750 
Q 2544 4750 2975 4387 
Q 3406 4025 3406 3419 
Q 3406 3131 3298 2873 
Q 3191 2616 2906 2266 
Q 2828 2175 2409 1742 
Q 1991 1309 1228 531 
z
" id="DejaVuSans-32" transform="scale(0.015625)"/>
       </defs>
       <use xlink:href="#DejaVuSans-31"/>
       <use x="63.623047" xlink:href="#DejaVuSans-39"/>
       <use x="127.246094" xlink:href="#DejaVuSans-68"/>
       <use x="190.625" xlink:href="#DejaVuSans-3a"/>
       <use x="224.316406" xlink:href="#DejaVuSans-32"/>
       <use x="287.939453" xlink:href="#DejaVuSans-35"/>
       <use x="351.5625" xlink:href="#DejaVuSans-6d"/>
      </g>
     </g>
    </g>
    <g id="text_7">
     <!-- Time (hour:minute) -->
     <g transform="translate(189.843594 316.706687)scale(0.1 -0.1)">
      <defs>
       <path d="M -19 4666 
L 3928 4666 
L 3928 4134 
L 2272 4134 
L 2272 0 
L 1638 0 
L 1638 4134 
L -19 4134 
L -19 4666 
z
" id="DejaVuSans-54" transform="scale(0.015625)"/>
       <path d="M 603 3500 
L 1178 3500 
L 1178 0 
L 603 0 
L 603 3500 
z
M 603 4863 
L 1178 4863 
L 1178 4134 
L 603 4134 
L 603 4863 
z
" id="DejaVuSans-69" transform="scale(0.015625)"/>
       <path d="M 3597 1894 
L 3597 1613 
L 953 1613 
Q 991 1019 1311 708 
Q 1631 397 2203 397 
Q 2534 397 2845 478 
Q 3156 559 3463 722 
L 3463 178 
Q 3153 47 2828 -22 
Q 2503 -91 2169 -91 
Q 1331 -91 842 396 
Q 353 884 353 1716 
Q 353 2575 817 3079 
Q 1281 3584 2069 3584 
Q 2775 3584 3186 3129 
Q 3597 2675 3597 1894 
z
M 3022 2063 
Q 3016 2534 2758 2815 
Q 2500 3097 2075 3097 
Q 1594 3097 1305 2825 
Q 1016 2553 972 2059 
L 3022 2063 
z
" id="DejaVuSans-65" transform="scale(0.015625)"/>
       <path id="DejaVuSans-20" transform="scale(0.015625)"/>
       <path d="M 1984 4856 
Q 1566 4138 1362 3434 
Q 1159 2731 1159 2009 
Q 1159 1288 1364 580 
Q 1569 -128 1984 -844 
L 1484 -844 
Q 1016 -109 783 600 
Q 550 1309 550 2009 
Q 550 2706 781 3412 
Q 1013 4119 1484 4856 
L 1984 4856 
z
" id="DejaVuSans-28" transform="scale(0.015625)"/>
       <path d="M 1959 3097 
Q 1497 3097 1228 2736 
Q 959 2375 959 1747 
Q 959 1119 1226 758 
Q 1494 397 1959 397 
Q 2419 397 2687 759 
Q 2956 1122 2956 1747 
Q 2956 2369 2687 2733 
Q 2419 3097 1959 3097 
z
M 1959 3584 
Q 2709 3584 3137 3096 
Q 3566 2609 3566 1747 
Q 3566 888 3137 398 
Q 2709 -91 1959 -91 
Q 1206 -91 779 398 
Q 353 888 353 1747 
Q 353 2609 779 3096 
Q 1206 3584 1959 3584 
z
" id="DejaVuSans-6f" transform="scale(0.015625)"/>
       <path d="M 544 1381 
L 544 3500 
L 1119 3500 
L 1119 1403 
Q 1119 906 1312 657 
Q 1506 409 1894 409 
Q 2359 409 2629 706 
Q 2900 1003 2900 1516 
L 2900 3500 
L 3475 3500 
L 3475 0 
L 2900 0 
L 2900 538 
Q 2691 219 2414 64 
Q 2138 -91 1772 -91 
Q 1169 -91 856 284 
Q 544 659 544 1381 
z
M 1991 3584 
L 1991 3584 
z
" id="DejaVuSans-75" transform="scale(0.015625)"/>
       <path d="M 2631 2963 
Q 2534 3019 2420 3045 
Q 2306 3072 2169 3072 
Q 1681 3072 1420 2755 
Q 1159 2438 1159 1844 
L 1159 0 
L 581 0 
L 581 3500 
L 1159 3500 
L 1159 2956 
Q 1341 3275 1631 3429 
Q 1922 3584 2338 3584 
Q 2397 3584 2469 3576 
Q 2541 3569 2628 3553 
L 2631 2963 
z
" id="DejaVuSans-72" transform="scale(0.015625)"/>
       <path d="M 3513 2113 
L 3513 0 
L 2938 0 
L 2938 2094 
Q 2938 2591 2744 2837 
Q 2550 3084 2163 3084 
Q 1697 3084 1428 2787 
Q 1159 2491 1159 1978 
L 1159 0 
L 581 0 
L 581 3500 
L 1159 3500 
L 1159 2956 
Q 1366 3272 1645 3428 
Q 1925 3584 2291 3584 
Q 2894 3584 3203 3211 
Q 3513 2838 3513 2113 
z
" id="DejaVuSans-6e" transform="scale(0.015625)"/>
       <path d="M 1172 4494 
L 1172 3500 
L 2356 3500 
L 2356 3053 
L 1172 3053 
L 1172 1153 
Q 1172 725 1289 603 
Q 1406 481 1766 481 
L 2356 481 
L 2356 0 
L 1766 0 
Q 1100 0 847 248 
Q 594 497 594 1153 
L 594 3053 
L 172 3053 
L 172 3500 
L 594 3500 
L 594 4494 
L 1172 4494 
z
" id="DejaVuSans-74" transform="scale(0.015625)"/>
       <path d="M 513 4856 
L 1013 4856 
Q 1481 4119 1714 3412 
Q 1947 2706 1947 2009 
Q 1947 1309 1714 600 
Q 1481 -109 1013 -844 
L 513 -844 
Q 928 -128 1133 580 
Q 1338 1288 1338 2009 
Q 1338 2731 1133 3434 
Q 928 4138 513 4856 
z
" id="DejaVuSans-29" transform="scale(0.015625)"/>
      </defs>
      <use xlink:href="#DejaVuSans-54"/>
      <use x="57.958984" xlink:href="#DejaVuSans-69"/>
      <use x="85.742188" xlink:href="#DejaVuSans-6d"/>
      <use x="183.154297" xlink:href="#DejaVuSans-65"/>
      <use x="244.677734" xlink:href="#DejaVuSans-20"/>
      <use x="276.464844" xlink:href="#DejaVuSans-28"/>
      <use x="315.478516" xlink:href="#DejaVuSans-68"/>
      <use x="378.857422" xlink:href="#DejaVuSans-6f"/>
      <use x="440.039062" xlink:href="#DejaVuSans-75"/>
      <use x="503.417969" xlink:href="#DejaVuSans-72"/>
      <use x="542.78125" xlink:href="#DejaVuSans-3a"/>
      <use x="576.472656" xlink:href="#DejaVuSans-6d"/>
      <use x="673.884766" xlink:href="#DejaVuSans-69"/>
      <use x="701.667969" xlink:href="#DejaVuSans-6e"/>
      <use x="765.046875" xlink:href="#DejaVuSans-75"/>
      <use x="828.425781" xlink:href="#DejaVuSans-74"/>
      <use x="867.634766" xlink:href="#DejaVuSans-65"/>
      <use x="929.158203" xlink:href="#DejaVuSans-29"/>
     </g>
    </g>
   </g>
   <g id="matplotlib.axis_2">
    <g id="ytick_1">
     <g id="line2d_7">
      <defs>
       <path d="M 0 0 
L -3.5 0 
" id="mf012c13242" style="stroke:#000000;stroke-width:0.8;"/>
      </defs>
      <g>
       <use style="stroke:#000000;stroke-width:0.8;" x="59.690625" xlink:href="#mf012c13242" y="258.441174"/>
      </g>
     </g>
     <g id="text_8">
      <!-- 12400 -->
      <g transform="translate(20.878125 262.240393)scale(0.1 -0.1)">
       <defs>
        <path d="M 2034 4250 
Q 1547 4250 1301 3770 
Q 1056 3291 1056 2328 
Q 1056 1369 1301 889 
Q 1547 409 2034 409 
Q 2525 409 2770 889 
Q 3016 1369 3016 2328 
Q 3016 3291 2770 3770 
Q 2525 4250 2034 4250 
z
M 2034 4750 
Q 2819 4750 3233 4129 
Q 3647 3509 3647 2328 
Q 3647 1150 3233 529 
Q 2819 -91 2034 -91 
Q 1250 -91 836 529 
Q 422 1150 422 2328 
Q 422 3509 836 4129 
Q 1250 4750 2034 4750 
z
" id="DejaVuSans-30" transform="scale(0.015625)"/>
       </defs>
       <use xlink:href="#DejaVuSans-31"/>
       <use x="63.623047" xlink:href="#DejaVuSans-32"/>
       <use x="127.246094" xlink:href="#DejaVuSans-34"/>
       <use x="190.869141" xlink:href="#DejaVuSans-30"/>
       <use x="254.492188" xlink:href="#DejaVuSans-30"/>
      </g>
     </g>
    </g>
    <g id="ytick_2">
     <g id="line2d_8">
      <g>
       <use style="stroke:#000000;stroke-width:0.8;" x="59.690625" xlink:href="#mf012c13242" y="221.924948"/>
      </g>
     </g>
     <g id="text_9">
      <!-- 12600 -->
      <g transform="translate(20.878125 225.724166)scale(0.1 -0.1)">
       <defs>
        <path d="M 2113 2584 
Q 1688 2584 1439 2293 
Q 1191 2003 1191 1497 
Q 1191 994 1439 701 
Q 1688 409 2113 409 
Q 2538 409 2786 701 
Q 3034 994 3034 1497 
Q 3034 2003 2786 2293 
Q 2538 2584 2113 2584 
z
M 3366 4563 
L 3366 3988 
Q 3128 4100 2886 4159 
Q 2644 4219 2406 4219 
Q 1781 4219 1451 3797 
Q 1122 3375 1075 2522 
Q 1259 2794 1537 2939 
Q 1816 3084 2150 3084 
Q 2853 3084 3261 2657 
Q 3669 2231 3669 1497 
Q 3669 778 3244 343 
Q 2819 -91 2113 -91 
Q 1303 -91 875 529 
Q 447 1150 447 2328 
Q 447 3434 972 4092 
Q 1497 4750 2381 4750 
Q 2619 4750 2861 4703 
Q 3103 4656 3366 4563 
z
" id="DejaVuSans-36" transform="scale(0.015625)"/>
       </defs>
       <use xlink:href="#DejaVuSans-31"/>
       <use x="63.623047" xlink:href="#DejaVuSans-32"/>
       <use x="127.246094" xlink:href="#DejaVuSans-36"/>
       <use x="190.869141" xlink:href="#DejaVuSans-30"/>
       <use x="254.492188" xlink:href="#DejaVuSans-30"/>
      </g>
     </g>
    </g>
    <g id="ytick_3">
     <g id="line2d_9">
      <g>
       <use style="stroke:#000000;stroke-width:0.8;" x="59.690625" xlink:href="#mf012c13242" y="185.408721"/>
      </g>
     </g>
     <g id="text_10">
      <!-- 12800 -->
      <g transform="translate(20.878125 189.20794)scale(0.1 -0.1)">
       <defs>
        <path d="M 2034 2216 
Q 1584 2216 1326 1975 
Q 1069 1734 1069 1313 
Q 1069 891 1326 650 
Q 1584 409 2034 409 
Q 2484 409 2743 651 
Q 3003 894 3003 1313 
Q 3003 1734 2745 1975 
Q 2488 2216 2034 2216 
z
M 1403 2484 
Q 997 2584 770 2862 
Q 544 3141 544 3541 
Q 544 4100 942 4425 
Q 1341 4750 2034 4750 
Q 2731 4750 3128 4425 
Q 3525 4100 3525 3541 
Q 3525 3141 3298 2862 
Q 3072 2584 2669 2484 
Q 3125 2378 3379 2068 
Q 3634 1759 3634 1313 
Q 3634 634 3220 271 
Q 2806 -91 2034 -91 
Q 1263 -91 848 271 
Q 434 634 434 1313 
Q 434 1759 690 2068 
Q 947 2378 1403 2484 
z
M 1172 3481 
Q 1172 3119 1398 2916 
Q 1625 2713 2034 2713 
Q 2441 2713 2670 2916 
Q 2900 3119 2900 3481 
Q 2900 3844 2670 4047 
Q 2441 4250 2034 4250 
Q 1625 4250 1398 4047 
Q 1172 3844 1172 3481 
z
" id="DejaVuSans-38" transform="scale(0.015625)"/>
       </defs>
       <use xlink:href="#DejaVuSans-31"/>
       <use x="63.623047" xlink:href="#DejaVuSans-32"/>
       <use x="127.246094" xlink:href="#DejaVuSans-38"/>
       <use x="190.869141" xlink:href="#DejaVuSans-30"/>
       <use x="254.492188" xlink:href="#DejaVuSans-30"/>
      </g>
     </g>
    </g>
    <g id="ytick_4">
     <g id="line2d_10">
      <g>
       <use style="stroke:#000000;stroke-width:0.8;" x="59.690625" xlink:href="#mf012c13242" y="148.892495"/>
      </g>
     </g>
     <g id="text_11">
      <!-- 13000 -->
      <g transform="translate(20.878125 152.691714)scale(0.1 -0.1)">
       <use xlink:href="#DejaVuSans-31"/>
       <use x="63.623047" xlink:href="#DejaVuSans-33"/>
       <use x="127.246094" xlink:href="#DejaVuSans-30"/>
       <use x="190.869141" xlink:href="#DejaVuSans-30"/>
       <use x="254.492188" xlink:href="#DejaVuSans-30"/>
      </g>
     </g>
    </g>
    <g id="ytick_5">
     <g id="line2d_11">
      <g>
       <use style="stroke:#000000;stroke-width:0.8;" x="59.690625" xlink:href="#mf012c13242" y="112.376268"/>
      </g>
     </g>
     <g id="text_12">
      <!-- 13200 -->
      <g transform="translate(20.878125 116.175487)scale(0.1 -0.1)">
       <use xlink:href="#DejaVuSans-31"/>
       <use x="63.623047" xlink:href="#DejaVuSans-33"/>
       <use x="127.246094" xlink:href="#DejaVuSans-32"/>
       <use x="190.869141" xlink:href="#DejaVuSans-30"/>
       <use x="254.492188" xlink:href="#DejaVuSans-30"/>
      </g>
     </g>
    </g>
    <g id="ytick_6">
     <g id="line2d_12">
      <g>
       <use style="stroke:#000000;stroke-width:0.8;" x="59.690625" xlink:href="#mf012c13242" y="75.860042"/>
      </g>
     </g>
     <g id="text_13">
      <!-- 13400 -->
      <g transform="translate(20.878125 79.659261)scale(0.1 -0.1)">
       <use xlink:href="#DejaVuSans-31"/>
       <use x="63.623047" xlink:href="#DejaVuSans-33"/>
       <use x="127.246094" xlink:href="#DejaVuSans-34"/>
       <use x="190.869141" xlink:href="#DejaVuSans-30"/>
       <use x="254.492188" xlink:href="#DejaVuSans-30"/>
      </g>
     </g>
    </g>
    <g id="ytick_7">
     <g id="line2d_13">
      <g>
       <use style="stroke:#000000;stroke-width:0.8;" x="59.690625" xlink:href="#mf012c13242" y="39.343816"/>
      </g>
     </g>
     <g id="text_14">
      <!-- 13600 -->
      <g transform="translate(20.878125 43.143034)scale(0.1 -0.1)">
       <use xlink:href="#DejaVuSans-31"/>
       <use x="63.623047" xlink:href="#DejaVuSans-33"/>
       <use x="127.246094" xlink:href="#DejaVuSans-36"/>
       <use x="190.869141" xlink:href="#DejaVuSans-30"/>
       <use x="254.492188" xlink:href="#DejaVuSans-30"/>
      </g>
     </g>
    </g>
    <g id="text_15">
     <!-- Code region coverage -->
     <g transform="translate(14.798438 210.379594)rotate(-90)scale(0.1 -0.1)">
      <defs>
       <path d="M 4122 4306 
L 4122 3641 
Q 3803 3938 3442 4084 
Q 3081 4231 2675 4231 
Q 1875 4231 1450 3742 
Q 1025 3253 1025 2328 
Q 1025 1406 1450 917 
Q 1875 428 2675 428 
Q 3081 428 3442 575 
Q 3803 722 4122 1019 
L 4122 359 
Q 3791 134 3420 21 
Q 3050 -91 2638 -91 
Q 1578 -91 968 557 
Q 359 1206 359 2328 
Q 359 3453 968 4101 
Q 1578 4750 2638 4750 
Q 3056 4750 3426 4639 
Q 3797 4528 4122 4306 
z
" id="DejaVuSans-43" transform="scale(0.015625)"/>
       <path d="M 2906 2969 
L 2906 4863 
L 3481 4863 
L 3481 0 
L 2906 0 
L 2906 525 
Q 2725 213 2448 61 
Q 2172 -91 1784 -91 
Q 1150 -91 751 415 
Q 353 922 353 1747 
Q 353 2572 751 3078 
Q 1150 3584 1784 3584 
Q 2172 3584 2448 3432 
Q 2725 3281 2906 2969 
z
M 947 1747 
Q 947 1113 1208 752 
Q 1469 391 1925 391 
Q 2381 391 2643 752 
Q 2906 1113 2906 1747 
Q 2906 2381 2643 2742 
Q 2381 3103 1925 3103 
Q 1469 3103 1208 2742 
Q 947 2381 947 1747 
z
" id="DejaVuSans-64" transform="scale(0.015625)"/>
       <path d="M 2906 1791 
Q 2906 2416 2648 2759 
Q 2391 3103 1925 3103 
Q 1463 3103 1205 2759 
Q 947 2416 947 1791 
Q 947 1169 1205 825 
Q 1463 481 1925 481 
Q 2391 481 2648 825 
Q 2906 1169 2906 1791 
z
M 3481 434 
Q 3481 -459 3084 -895 
Q 2688 -1331 1869 -1331 
Q 1566 -1331 1297 -1286 
Q 1028 -1241 775 -1147 
L 775 -588 
Q 1028 -725 1275 -790 
Q 1522 -856 1778 -856 
Q 2344 -856 2625 -561 
Q 2906 -266 2906 331 
L 2906 616 
Q 2728 306 2450 153 
Q 2172 0 1784 0 
Q 1141 0 747 490 
Q 353 981 353 1791 
Q 353 2603 747 3093 
Q 1141 3584 1784 3584 
Q 2172 3584 2450 3431 
Q 2728 3278 2906 2969 
L 2906 3500 
L 3481 3500 
L 3481 434 
z
" id="DejaVuSans-67" transform="scale(0.015625)"/>
       <path d="M 3122 3366 
L 3122 2828 
Q 2878 2963 2633 3030 
Q 2388 3097 2138 3097 
Q 1578 3097 1268 2742 
Q 959 2388 959 1747 
Q 959 1106 1268 751 
Q 1578 397 2138 397 
Q 2388 397 2633 464 
Q 2878 531 3122 666 
L 3122 134 
Q 2881 22 2623 -34 
Q 2366 -91 2075 -91 
Q 1284 -91 818 406 
Q 353 903 353 1747 
Q 353 2603 823 3093 
Q 1294 3584 2113 3584 
Q 2378 3584 2631 3529 
Q 2884 3475 3122 3366 
z
" id="DejaVuSans-63" transform="scale(0.015625)"/>
       <path d="M 191 3500 
L 800 3500 
L 1894 563 
L 2988 3500 
L 3597 3500 
L 2284 0 
L 1503 0 
L 191 3500 
z
" id="DejaVuSans-76" transform="scale(0.015625)"/>
       <path d="M 2194 1759 
Q 1497 1759 1228 1600 
Q 959 1441 959 1056 
Q 959 750 1161 570 
Q 1363 391 1709 391 
Q 2188 391 2477 730 
Q 2766 1069 2766 1631 
L 2766 1759 
L 2194 1759 
z
M 3341 1997 
L 3341 0 
L 2766 0 
L 2766 531 
Q 2569 213 2275 61 
Q 1981 -91 1556 -91 
Q 1019 -91 701 211 
Q 384 513 384 1019 
Q 384 1609 779 1909 
Q 1175 2209 1959 2209 
L 2766 2209 
L 2766 2266 
Q 2766 2663 2505 2880 
Q 2244 3097 1772 3097 
Q 1472 3097 1187 3025 
Q 903 2953 641 2809 
L 641 3341 
Q 956 3463 1253 3523 
Q 1550 3584 1831 3584 
Q 2591 3584 2966 3190 
Q 3341 2797 3341 1997 
z
" id="DejaVuSans-61" transform="scale(0.015625)"/>
      </defs>
      <use xlink:href="#DejaVuSans-43"/>
      <use x="69.824219" xlink:href="#DejaVuSans-6f"/>
      <use x="131.005859" xlink:href="#DejaVuSans-64"/>
      <use x="194.482422" xlink:href="#DejaVuSans-65"/>
      <use x="256.005859" xlink:href="#DejaVuSans-20"/>
      <use x="287.792969" xlink:href="#DejaVuSans-72"/>
      <use x="326.65625" xlink:href="#DejaVuSans-65"/>
      <use x="388.179688" xlink:href="#DejaVuSans-67"/>
      <use x="451.65625" xlink:href="#DejaVuSans-69"/>
      <use x="479.439453" xlink:href="#DejaVuSans-6f"/>
      <use x="540.621094" xlink:href="#DejaVuSans-6e"/>
      <use x="604" xlink:href="#DejaVuSans-20"/>
      <use x="635.787109" xlink:href="#DejaVuSans-63"/>
      <use x="690.767578" xlink:href="#DejaVuSans-6f"/>
      <use x="751.949219" xlink:href="#DejaVuSans-76"/>
      <use x="811.128906" xlink:href="#DejaVuSans-65"/>
      <use x="872.652344" xlink:href="#DejaVuSans-72"/>
      <use x="913.765625" xlink:href="#DejaVuSans-61"/>
      <use x="975.044922" xlink:href="#DejaVuSans-67"/>
      <use x="1038.521484" xlink:href="#DejaVuSans-65"/>
     </g>
    </g>
   </g>
   <g id="line2d_14">
    <path clip-path="url(#p7b2c532b77)" d="M 75.923352 255.337295 
L 79.490985 185.956465 
L 83.058617 152.178955 
L 86.626249 149.987982 
L 90.193882 148.344751 
L 93.761514 158.112842 
L 97.329146 143.23248 
L 100.896779 136.020525 
L 104.464411 126.161144 
L 108.032044 125.887272 
L 111.599676 124.609204 
L 115.167308 109.45497 
L 118.734941 106.442382 
L 122.302573 102.699468 
L 125.870205 100.508495 
L 129.437838 96.49171 
L 133.00547 96.49171 
L 136.573103 99.321717 
L 140.140735 99.321717 
L 143.708367 90.922985 
L 147.276 90.922985 
L 150.843632 90.831695 
L 154.411264 90.740404 
L 157.978897 90.10137 
L 161.546529 84.623936 
L 165.114161 80.972314 
L 168.681794 80.972314 
L 172.249426 80.972314 
L 175.817059 86.175876 
L 179.384691 86.175876 
L 182.952323 80.881023 
L 186.519956 80.881023 
L 190.087588 77.959725 
L 193.65522 77.959725 
L 197.222853 75.312299 
L 200.790485 73.395197 
L 204.358118 73.395197 
L 207.92575 73.395197 
L 211.493382 73.395197 
L 215.061015 72.938744 
L 218.628647 72.482291 
L 222.196279 72.482291 
L 225.763912 70.930351 
L 229.331544 70.930351 
L 232.899176 70.930351 
L 236.466809 70.930351 
L 240.034441 72.482291 
L 243.602074 72.025838 
L 247.169706 71.204223 
L 250.737338 71.204223 
L 254.304971 71.204223 
L 257.872603 71.112933 
L 261.440235 68.556797 
L 265.007868 68.556797 
L 268.5755 68.556797 
L 272.143132 65.726789 
L 275.710765 61.162261 
L 279.278397 61.162261 
L 282.84603 61.162261 
L 286.413662 61.162261 
L 289.981294 61.162261 
L 293.548927 61.162261 
L 297.116559 61.162261 
L 300.684191 61.07097 
L 304.251824 61.07097 
L 307.819456 61.07097 
L 311.387089 61.07097 
L 314.954721 61.07097 
L 318.522353 61.07097 
L 322.089986 59.701612 
L 325.657618 59.062578 
L 329.22525 57.145476 
L 332.792883 57.145476 
L 336.360515 57.145476 
L 339.928147 56.780314 
L 343.49578 56.780314 
L 347.063412 56.780314 
L 350.631045 56.780314 
L 354.198677 54.58934 
L 357.766309 54.58934 
L 361.333942 54.58934 
L 364.901574 54.58934 
L 368.469206 54.58934 
L 372.036839 54.58934 
L 375.604471 54.58934 
L 379.172104 54.58934 
L 382.739736 54.49805 
L 386.307368 54.49805 
L 389.875001 54.49805 
L 393.442633 54.49805 
L 397.010265 54.49805 
L 400.577898 54.132887 
" style="fill:none;stroke:#1f77b4;stroke-linecap:square;stroke-width:1.5;"/>
    <defs>
     <path d="M 0 3 
C 0.795609 3 1.55874 2.683901 2.12132 2.12132 
C 2.683901 1.55874 3 0.795609 3 0 
C 3 -0.795609 2.683901 -1.55874 2.12132 -2.12132 
C 1.55874 -2.683901 0.795609 -3 0 -3 
C -0.795609 -3 -1.55874 -2.683901 -2.12132 -2.12132 
C -2.683901 -1.55874 -3 -0.795609 -3 0 
C -3 0.795609 -2.683901 1.55874 -2.12132 2.12132 
C -1.55874 2.683901 -0.795609 3 0 3 
z
" id="m14ac93de5f" style="stroke:#ffffff;stroke-width:0.75;"/>
    </defs>
    <g clip-path="url(#p7b2c532b77)">
     <use style="fill:#1f77b4;stroke:#ffffff;stroke-width:0.75;" x="75.923352" xlink:href="#m14ac93de5f" y="255.337295"/>
     <use style="fill:#1f77b4;stroke:#ffffff;stroke-width:0.75;" x="79.490985" xlink:href="#m14ac93de5f" y="185.956465"/>
     <use style="fill:#1f77b4;stroke:#ffffff;stroke-width:0.75;" x="83.058617" xlink:href="#m14ac93de5f" y="152.178955"/>
     <use style="fill:#1f77b4;stroke:#ffffff;stroke-width:0.75;" x="86.626249" xlink:href="#m14ac93de5f" y="149.987982"/>
     <use style="fill:#1f77b4;stroke:#ffffff;stroke-width:0.75;" x="90.193882" xlink:href="#m14ac93de5f" y="148.344751"/>
     <use style="fill:#1f77b4;stroke:#ffffff;stroke-width:0.75;" x="93.761514" xlink:href="#m14ac93de5f" y="158.112842"/>
     <use style="fill:#1f77b4;stroke:#ffffff;stroke-width:0.75;" x="97.329146" xlink:href="#m14ac93de5f" y="143.23248"/>
     <use style="fill:#1f77b4;stroke:#ffffff;stroke-width:0.75;" x="100.896779" xlink:href="#m14ac93de5f" y="136.020525"/>
     <use style="fill:#1f77b4;stroke:#ffffff;stroke-width:0.75;" x="104.464411" xlink:href="#m14ac93de5f" y="126.161144"/>
     <use style="fill:#1f77b4;stroke:#ffffff;stroke-width:0.75;" x="108.032044" xlink:href="#m14ac93de5f" y="125.887272"/>
     <use style="fill:#1f77b4;stroke:#ffffff;stroke-width:0.75;" x="111.599676" xlink:href="#m14ac93de5f" y="124.609204"/>
     <use style="fill:#1f77b4;stroke:#ffffff;stroke-width:0.75;" x="115.167308" xlink:href="#m14ac93de5f" y="109.45497"/>
     <use style="fill:#1f77b4;stroke:#ffffff;stroke-width:0.75;" x="118.734941" xlink:href="#m14ac93de5f" y="106.442382"/>
     <use style="fill:#1f77b4;stroke:#ffffff;stroke-width:0.75;" x="122.302573" xlink:href="#m14ac93de5f" y="102.699468"/>
     <use style="fill:#1f77b4;stroke:#ffffff;stroke-width:0.75;" x="125.870205" xlink:href="#m14ac93de5f" y="100.508495"/>
     <use style="fill:#1f77b4;stroke:#ffffff;stroke-width:0.75;" x="129.437838" xlink:href="#m14ac93de5f" y="96.49171"/>
     <use style="fill:#1f77b4;stroke:#ffffff;stroke-width:0.75;" x="133.00547" xlink:href="#m14ac93de5f" y="96.49171"/>
     <use style="fill:#1f77b4;stroke:#ffffff;stroke-width:0.75;" x="136.573103" xlink:href="#m14ac93de5f" y="99.321717"/>
     <use style="fill:#1f77b4;stroke:#ffffff;stroke-width:0.75;" x="140.140735" xlink:href="#m14ac93de5f" y="99.321717"/>
     <use style="fill:#1f77b4;stroke:#ffffff;stroke-width:0.75;" x="143.708367" xlink:href="#m14ac93de5f" y="90.922985"/>
     <use style="fill:#1f77b4;stroke:#ffffff;stroke-width:0.75;" x="147.276" xlink:href="#m14ac93de5f" y="90.922985"/>
     <use style="fill:#1f77b4;stroke:#ffffff;stroke-width:0.75;" x="150.843632" xlink:href="#m14ac93de5f" y="90.831695"/>
     <use style="fill:#1f77b4;stroke:#ffffff;stroke-width:0.75;" x="154.411264" xlink:href="#m14ac93de5f" y="90.740404"/>
     <use style="fill:#1f77b4;stroke:#ffffff;stroke-width:0.75;" x="157.978897" xlink:href="#m14ac93de5f" y="90.10137"/>
     <use style="fill:#1f77b4;stroke:#ffffff;stroke-width:0.75;" x="161.546529" xlink:href="#m14ac93de5f" y="84.623936"/>
     <use style="fill:#1f77b4;stroke:#ffffff;stroke-width:0.75;" x="165.114161" xlink:href="#m14ac93de5f" y="80.972314"/>
     <use style="fill:#1f77b4;stroke:#ffffff;stroke-width:0.75;" x="168.681794" xlink:href="#m14ac93de5f" y="80.972314"/>
     <use style="fill:#1f77b4;stroke:#ffffff;stroke-width:0.75;" x="172.249426" xlink:href="#m14ac93de5f" y="80.972314"/>
     <use style="fill:#1f77b4;stroke:#ffffff;stroke-width:0.75;" x="175.817059" xlink:href="#m14ac93de5f" y="86.175876"/>
     <use style="fill:#1f77b4;stroke:#ffffff;stroke-width:0.75;" x="179.384691" xlink:href="#m14ac93de5f" y="86.175876"/>
     <use style="fill:#1f77b4;stroke:#ffffff;stroke-width:0.75;" x="182.952323" xlink:href="#m14ac93de5f" y="80.881023"/>
     <use style="fill:#1f77b4;stroke:#ffffff;stroke-width:0.75;" x="186.519956" xlink:href="#m14ac93de5f" y="80.881023"/>
     <use style="fill:#1f77b4;stroke:#ffffff;stroke-width:0.75;" x="190.087588" xlink:href="#m14ac93de5f" y="77.959725"/>
     <use style="fill:#1f77b4;stroke:#ffffff;stroke-width:0.75;" x="193.65522" xlink:href="#m14ac93de5f" y="77.959725"/>
     <use style="fill:#1f77b4;stroke:#ffffff;stroke-width:0.75;" x="197.222853" xlink:href="#m14ac93de5f" y="75.312299"/>
     <use style="fill:#1f77b4;stroke:#ffffff;stroke-width:0.75;" x="200.790485" xlink:href="#m14ac93de5f" y="73.395197"/>
     <use style="fill:#1f77b4;stroke:#ffffff;stroke-width:0.75;" x="204.358118" xlink:href="#m14ac93de5f" y="73.395197"/>
     <use style="fill:#1f77b4;stroke:#ffffff;stroke-width:0.75;" x="207.92575" xlink:href="#m14ac93de5f" y="73.395197"/>
     <use style="fill:#1f77b4;stroke:#ffffff;stroke-width:0.75;" x="211.493382" xlink:href="#m14ac93de5f" y="73.395197"/>
     <use style="fill:#1f77b4;stroke:#ffffff;stroke-width:0.75;" x="215.061015" xlink:href="#m14ac93de5f" y="72.938744"/>
     <use style="fill:#1f77b4;stroke:#ffffff;stroke-width:0.75;" x="218.628647" xlink:href="#m14ac93de5f" y="72.482291"/>
     <use style="fill:#1f77b4;stroke:#ffffff;stroke-width:0.75;" x="222.196279" xlink:href="#m14ac93de5f" y="72.482291"/>
     <use style="fill:#1f77b4;stroke:#ffffff;stroke-width:0.75;" x="225.763912" xlink:href="#m14ac93de5f" y="70.930351"/>
     <use style="fill:#1f77b4;stroke:#ffffff;stroke-width:0.75;" x="229.331544" xlink:href="#m14ac93de5f" y="70.930351"/>
     <use style="fill:#1f77b4;stroke:#ffffff;stroke-width:0.75;" x="232.899176" xlink:href="#m14ac93de5f" y="70.930351"/>
     <use style="fill:#1f77b4;stroke:#ffffff;stroke-width:0.75;" x="236.466809" xlink:href="#m14ac93de5f" y="70.930351"/>
     <use style="fill:#1f77b4;stroke:#ffffff;stroke-width:0.75;" x="240.034441" xlink:href="#m14ac93de5f" y="72.482291"/>
     <use style="fill:#1f77b4;stroke:#ffffff;stroke-width:0.75;" x="243.602074" xlink:href="#m14ac93de5f" y="72.025838"/>
     <use style="fill:#1f77b4;stroke:#ffffff;stroke-width:0.75;" x="247.169706" xlink:href="#m14ac93de5f" y="71.204223"/>
     <use style="fill:#1f77b4;stroke:#ffffff;stroke-width:0.75;" x="250.737338" xlink:href="#m14ac93de5f" y="71.204223"/>
     <use style="fill:#1f77b4;stroke:#ffffff;stroke-width:0.75;" x="254.304971" xlink:href="#m14ac93de5f" y="71.204223"/>
     <use style="fill:#1f77b4;stroke:#ffffff;stroke-width:0.75;" x="257.872603" xlink:href="#m14ac93de5f" y="71.112933"/>
     <use style="fill:#1f77b4;stroke:#ffffff;stroke-width:0.75;" x="261.440235" xlink:href="#m14ac93de5f" y="68.556797"/>
     <use style="fill:#1f77b4;stroke:#ffffff;stroke-width:0.75;" x="265.007868" xlink:href="#m14ac93de5f" y="68.556797"/>
     <use style="fill:#1f77b4;stroke:#ffffff;stroke-width:0.75;" x="268.5755" xlink:href="#m14ac93de5f" y="68.556797"/>
     <use style="fill:#1f77b4;stroke:#ffffff;stroke-width:0.75;" x="272.143132" xlink:href="#m14ac93de5f" y="65.726789"/>
     <use style="fill:#1f77b4;stroke:#ffffff;stroke-width:0.75;" x="275.710765" xlink:href="#m14ac93de5f" y="61.162261"/>
     <use style="fill:#1f77b4;stroke:#ffffff;stroke-width:0.75;" x="279.278397" xlink:href="#m14ac93de5f" y="61.162261"/>
     <use style="fill:#1f77b4;stroke:#ffffff;stroke-width:0.75;" x="282.84603" xlink:href="#m14ac93de5f" y="61.162261"/>
     <use style="fill:#1f77b4;stroke:#ffffff;stroke-width:0.75;" x="286.413662" xlink:href="#m14ac93de5f" y="61.162261"/>
     <use style="fill:#1f77b4;stroke:#ffffff;stroke-width:0.75;" x="289.981294" xlink:href="#m14ac93de5f" y="61.162261"/>
     <use style="fill:#1f77b4;stroke:#ffffff;stroke-width:0.75;" x="293.548927" xlink:href="#m14ac93de5f" y="61.162261"/>
     <use style="fill:#1f77b4;stroke:#ffffff;stroke-width:0.75;" x="297.116559" xlink:href="#m14ac93de5f" y="61.162261"/>
     <use style="fill:#1f77b4;stroke:#ffffff;stroke-width:0.75;" x="300.684191" xlink:href="#m14ac93de5f" y="61.07097"/>
     <use style="fill:#1f77b4;stroke:#ffffff;stroke-width:0.75;" x="304.251824" xlink:href="#m14ac93de5f" y="61.07097"/>
     <use style="fill:#1f77b4;stroke:#ffffff;stroke-width:0.75;" x="307.819456" xlink:href="#m14ac93de5f" y="61.07097"/>
     <use style="fill:#1f77b4;stroke:#ffffff;stroke-width:0.75;" x="311.387089" xlink:href="#m14ac93de5f" y="61.07097"/>
     <use style="fill:#1f77b4;stroke:#ffffff;stroke-width:0.75;" x="314.954721" xlink:href="#m14ac93de5f" y="61.07097"/>
     <use style="fill:#1f77b4;stroke:#ffffff;stroke-width:0.75;" x="318.522353" xlink:href="#m14ac93de5f" y="61.07097"/>
     <use style="fill:#1f77b4;stroke:#ffffff;stroke-width:0.75;" x="322.089986" xlink:href="#m14ac93de5f" y="59.701612"/>
     <use style="fill:#1f77b4;stroke:#ffffff;stroke-width:0.75;" x="325.657618" xlink:href="#m14ac93de5f" y="59.062578"/>
     <use style="fill:#1f77b4;stroke:#ffffff;stroke-width:0.75;" x="329.22525" xlink:href="#m14ac93de5f" y="57.145476"/>
     <use style="fill:#1f77b4;stroke:#ffffff;stroke-width:0.75;" x="332.792883" xlink:href="#m14ac93de5f" y="57.145476"/>
     <use style="fill:#1f77b4;stroke:#ffffff;stroke-width:0.75;" x="336.360515" xlink:href="#m14ac93de5f" y="57.145476"/>
     <use style="fill:#1f77b4;stroke:#ffffff;stroke-width:0.75;" x="339.928147" xlink:href="#m14ac93de5f" y="56.780314"/>
     <use style="fill:#1f77b4;stroke:#ffffff;stroke-width:0.75;" x="343.49578" xlink:href="#m14ac93de5f" y="56.780314"/>
     <use style="fill:#1f77b4;stroke:#ffffff;stroke-width:0.75;" x="347.063412" xlink:href="#m14ac93de5f" y="56.780314"/>
     <use style="fill:#1f77b4;stroke:#ffffff;stroke-width:0.75;" x="350.631045" xlink:href="#m14ac93de5f" y="56.780314"/>
     <use style="fill:#1f77b4;stroke:#ffffff;stroke-width:0.75;" x="354.198677" xlink:href="#m14ac93de5f" y="54.58934"/>
     <use style="fill:#1f77b4;stroke:#ffffff;stroke-width:0.75;" x="357.766309" xlink:href="#m14ac93de5f" y="54.58934"/>
     <use style="fill:#1f77b4;stroke:#ffffff;stroke-width:0.75;" x="361.333942" xlink:href="#m14ac93de5f" y="54.58934"/>
     <use style="fill:#1f77b4;stroke:#ffffff;stroke-width:0.75;" x="364.901574" xlink:href="#m14ac93de5f" y="54.58934"/>
     <use style="fill:#1f77b4;stroke:#ffffff;stroke-width:0.75;" x="368.469206" xlink:href="#m14ac93de5f" y="54.58934"/>
     <use style="fill:#1f77b4;stroke:#ffffff;stroke-width:0.75;" x="372.036839" xlink:href="#m14ac93de5f" y="54.58934"/>
     <use style="fill:#1f77b4;stroke:#ffffff;stroke-width:0.75;" x="375.604471" xlink:href="#m14ac93de5f" y="54.58934"/>
     <use style="fill:#1f77b4;stroke:#ffffff;stroke-width:0.75;" x="379.172104" xlink:href="#m14ac93de5f" y="54.58934"/>
     <use style="fill:#1f77b4;stroke:#ffffff;stroke-width:0.75;" x="382.739736" xlink:href="#m14ac93de5f" y="54.49805"/>
     <use style="fill:#1f77b4;stroke:#ffffff;stroke-width:0.75;" x="386.307368" xlink:href="#m14ac93de5f" y="54.49805"/>
     <use style="fill:#1f77b4;stroke:#ffffff;stroke-width:0.75;" x="389.875001" xlink:href="#m14ac93de5f" y="54.49805"/>
     <use style="fill:#1f77b4;stroke:#ffffff;stroke-width:0.75;" x="393.442633" xlink:href="#m14ac93de5f" y="54.49805"/>
     <use style="fill:#1f77b4;stroke:#ffffff;stroke-width:0.75;" x="397.010265" xlink:href="#m14ac93de5f" y="54.49805"/>
     <use style="fill:#1f77b4;stroke:#ffffff;stroke-width:0.75;" x="400.577898" xlink:href="#m14ac93de5f" y="54.132887"/>
    </g>
   </g>
   <g id="line2d_15">
    <path clip-path="url(#p7b2c532b77)" d="M 75.923352 229.228193 
L 79.490985 197.276495 
L 83.058617 164.22931 
L 86.626249 138.759242 
L 90.193882 128.078246 
L 93.761514 124.609204 
L 97.329146 119.679514 
L 100.896779 113.106593 
L 104.464411 110.915619 
L 108.032044 110.915619 
L 111.599676 105.985929 
L 115.167308 105.985929 
L 118.734941 105.985929 
L 122.302573 97.222034 
L 125.870205 90.466533 
L 129.437838 89.188465 
L 133.00547 88.092978 
L 136.573103 88.092978 
L 140.140735 85.719423 
L 143.708367 84.623936 
L 147.276 82.980706 
L 150.843632 81.520057 
L 154.411264 80.42457 
L 157.978897 80.42457 
L 161.546529 79.511665 
L 165.114161 79.511665 
L 168.681794 78.598759 
L 172.249426 77.503272 
L 175.817059 78.142306 
L 179.384691 77.959725 
L 182.952323 76.316495 
L 186.519956 75.58617 
L 190.087588 75.58617 
L 193.65522 74.764555 
L 197.222853 72.391 
L 200.790485 74.216812 
L 204.358118 74.216812 
L 207.92575 74.216812 
L 211.493382 73.669068 
L 215.061015 73.486487 
L 218.628647 61.801295 
L 222.196279 61.436133 
L 225.763912 57.419348 
L 229.331544 57.419348 
L 232.899176 54.315468 
L 236.466809 54.315468 
L 240.034441 54.315468 
L 243.602074 54.315468 
L 247.169706 54.315468 
L 250.737338 54.315468 
L 254.304971 54.315468 
L 257.872603 54.315468 
L 261.440235 54.315468 
L 265.007868 54.315468 
L 268.5755 54.315468 
L 272.143132 54.315468 
L 275.710765 54.315468 
L 279.278397 53.493853 
L 282.84603 53.493853 
L 286.413662 53.493853 
L 289.981294 54.315468 
L 293.548927 52.672238 
L 297.116559 52.672238 
L 300.684191 52.672238 
L 304.251824 52.672238 
L 307.819456 52.672238 
L 311.387089 52.672238 
L 314.954721 52.672238 
L 318.522353 52.307076 
L 322.089986 52.307076 
L 325.657618 51.211589 
L 329.22525 51.211589 
L 332.792883 51.029008 
L 336.360515 51.029008 
L 339.928147 51.029008 
L 343.49578 51.029008 
L 347.063412 48.472872 
L 350.631045 48.472872 
L 354.198677 48.016419 
L 357.766309 50.116102 
L 361.333942 50.572555 
L 364.901574 50.572555 
L 368.469206 50.572555 
L 372.036839 50.572555 
L 375.604471 50.572555 
L 379.172104 50.572555 
L 382.739736 50.572555 
L 386.307368 50.572555 
L 389.875001 50.572555 
L 393.442633 50.481265 
L 397.010265 50.481265 
L 400.577898 50.298683 
" style="fill:none;stroke:#98df8a;stroke-linecap:square;stroke-width:1.5;"/>
    <defs>
     <path d="M -0 3 
L 3 -3 
L -3 -3 
z
" id="mfabfaf7171" style="stroke:#ffffff;stroke-linejoin:miter;stroke-width:0.75;"/>
    </defs>
    <g clip-path="url(#p7b2c532b77)">
     <use style="fill:#98df8a;stroke:#ffffff;stroke-linejoin:miter;stroke-width:0.75;" x="75.923352" xlink:href="#mfabfaf7171" y="229.228193"/>
     <use style="fill:#98df8a;stroke:#ffffff;stroke-linejoin:miter;stroke-width:0.75;" x="79.490985" xlink:href="#mfabfaf7171" y="197.276495"/>
     <use style="fill:#98df8a;stroke:#ffffff;stroke-linejoin:miter;stroke-width:0.75;" x="83.058617" xlink:href="#mfabfaf7171" y="164.22931"/>
     <use style="fill:#98df8a;stroke:#ffffff;stroke-linejoin:miter;stroke-width:0.75;" x="86.626249" xlink:href="#mfabfaf7171" y="138.759242"/>
     <use style="fill:#98df8a;stroke:#ffffff;stroke-linejoin:miter;stroke-width:0.75;" x="90.193882" xlink:href="#mfabfaf7171" y="128.078246"/>
     <use style="fill:#98df8a;stroke:#ffffff;stroke-linejoin:miter;stroke-width:0.75;" x="93.761514" xlink:href="#mfabfaf7171" y="124.609204"/>
     <use style="fill:#98df8a;stroke:#ffffff;stroke-linejoin:miter;stroke-width:0.75;" x="97.329146" xlink:href="#mfabfaf7171" y="119.679514"/>
     <use style="fill:#98df8a;stroke:#ffffff;stroke-linejoin:miter;stroke-width:0.75;" x="100.896779" xlink:href="#mfabfaf7171" y="113.106593"/>
     <use style="fill:#98df8a;stroke:#ffffff;stroke-linejoin:miter;stroke-width:0.75;" x="104.464411" xlink:href="#mfabfaf7171" y="110.915619"/>
     <use style="fill:#98df8a;stroke:#ffffff;stroke-linejoin:miter;stroke-width:0.75;" x="108.032044" xlink:href="#mfabfaf7171" y="110.915619"/>
     <use style="fill:#98df8a;stroke:#ffffff;stroke-linejoin:miter;stroke-width:0.75;" x="111.599676" xlink:href="#mfabfaf7171" y="105.985929"/>
     <use style="fill:#98df8a;stroke:#ffffff;stroke-linejoin:miter;stroke-width:0.75;" x="115.167308" xlink:href="#mfabfaf7171" y="105.985929"/>
     <use style="fill:#98df8a;stroke:#ffffff;stroke-linejoin:miter;stroke-width:0.75;" x="118.734941" xlink:href="#mfabfaf7171" y="105.985929"/>
     <use style="fill:#98df8a;stroke:#ffffff;stroke-linejoin:miter;stroke-width:0.75;" x="122.302573" xlink:href="#mfabfaf7171" y="97.222034"/>
     <use style="fill:#98df8a;stroke:#ffffff;stroke-linejoin:miter;stroke-width:0.75;" x="125.870205" xlink:href="#mfabfaf7171" y="90.466533"/>
     <use style="fill:#98df8a;stroke:#ffffff;stroke-linejoin:miter;stroke-width:0.75;" x="129.437838" xlink:href="#mfabfaf7171" y="89.188465"/>
     <use style="fill:#98df8a;stroke:#ffffff;stroke-linejoin:miter;stroke-width:0.75;" x="133.00547" xlink:href="#mfabfaf7171" y="88.092978"/>
     <use style="fill:#98df8a;stroke:#ffffff;stroke-linejoin:miter;stroke-width:0.75;" x="136.573103" xlink:href="#mfabfaf7171" y="88.092978"/>
     <use style="fill:#98df8a;stroke:#ffffff;stroke-linejoin:miter;stroke-width:0.75;" x="140.140735" xlink:href="#mfabfaf7171" y="85.719423"/>
     <use style="fill:#98df8a;stroke:#ffffff;stroke-linejoin:miter;stroke-width:0.75;" x="143.708367" xlink:href="#mfabfaf7171" y="84.623936"/>
     <use style="fill:#98df8a;stroke:#ffffff;stroke-linejoin:miter;stroke-width:0.75;" x="147.276" xlink:href="#mfabfaf7171" y="82.980706"/>
     <use style="fill:#98df8a;stroke:#ffffff;stroke-linejoin:miter;stroke-width:0.75;" x="150.843632" xlink:href="#mfabfaf7171" y="81.520057"/>
     <use style="fill:#98df8a;stroke:#ffffff;stroke-linejoin:miter;stroke-width:0.75;" x="154.411264" xlink:href="#mfabfaf7171" y="80.42457"/>
     <use style="fill:#98df8a;stroke:#ffffff;stroke-linejoin:miter;stroke-width:0.75;" x="157.978897" xlink:href="#mfabfaf7171" y="80.42457"/>
     <use style="fill:#98df8a;stroke:#ffffff;stroke-linejoin:miter;stroke-width:0.75;" x="161.546529" xlink:href="#mfabfaf7171" y="79.511665"/>
     <use style="fill:#98df8a;stroke:#ffffff;stroke-linejoin:miter;stroke-width:0.75;" x="165.114161" xlink:href="#mfabfaf7171" y="79.511665"/>
     <use style="fill:#98df8a;stroke:#ffffff;stroke-linejoin:miter;stroke-width:0.75;" x="168.681794" xlink:href="#mfabfaf7171" y="78.598759"/>
     <use style="fill:#98df8a;stroke:#ffffff;stroke-linejoin:miter;stroke-width:0.75;" x="172.249426" xlink:href="#mfabfaf7171" y="77.503272"/>
     <use style="fill:#98df8a;stroke:#ffffff;stroke-linejoin:miter;stroke-width:0.75;" x="175.817059" xlink:href="#mfabfaf7171" y="78.142306"/>
     <use style="fill:#98df8a;stroke:#ffffff;stroke-linejoin:miter;stroke-width:0.75;" x="179.384691" xlink:href="#mfabfaf7171" y="77.959725"/>
     <use style="fill:#98df8a;stroke:#ffffff;stroke-linejoin:miter;stroke-width:0.75;" x="182.952323" xlink:href="#mfabfaf7171" y="76.316495"/>
     <use style="fill:#98df8a;stroke:#ffffff;stroke-linejoin:miter;stroke-width:0.75;" x="186.519956" xlink:href="#mfabfaf7171" y="75.58617"/>
     <use style="fill:#98df8a;stroke:#ffffff;stroke-linejoin:miter;stroke-width:0.75;" x="190.087588" xlink:href="#mfabfaf7171" y="75.58617"/>
     <use style="fill:#98df8a;stroke:#ffffff;stroke-linejoin:miter;stroke-width:0.75;" x="193.65522" xlink:href="#mfabfaf7171" y="74.764555"/>
     <use style="fill:#98df8a;stroke:#ffffff;stroke-linejoin:miter;stroke-width:0.75;" x="197.222853" xlink:href="#mfabfaf7171" y="72.391"/>
     <use style="fill:#98df8a;stroke:#ffffff;stroke-linejoin:miter;stroke-width:0.75;" x="200.790485" xlink:href="#mfabfaf7171" y="74.216812"/>
     <use style="fill:#98df8a;stroke:#ffffff;stroke-linejoin:miter;stroke-width:0.75;" x="204.358118" xlink:href="#mfabfaf7171" y="74.216812"/>
     <use style="fill:#98df8a;stroke:#ffffff;stroke-linejoin:miter;stroke-width:0.75;" x="207.92575" xlink:href="#mfabfaf7171" y="74.216812"/>
     <use style="fill:#98df8a;stroke:#ffffff;stroke-linejoin:miter;stroke-width:0.75;" x="211.493382" xlink:href="#mfabfaf7171" y="73.669068"/>
     <use style="fill:#98df8a;stroke:#ffffff;stroke-linejoin:miter;stroke-width:0.75;" x="215.061015" xlink:href="#mfabfaf7171" y="73.486487"/>
     <use style="fill:#98df8a;stroke:#ffffff;stroke-linejoin:miter;stroke-width:0.75;" x="218.628647" xlink:href="#mfabfaf7171" y="61.801295"/>
     <use style="fill:#98df8a;stroke:#ffffff;stroke-linejoin:miter;stroke-width:0.75;" x="222.196279" xlink:href="#mfabfaf7171" y="61.436133"/>
     <use style="fill:#98df8a;stroke:#ffffff;stroke-linejoin:miter;stroke-width:0.75;" x="225.763912" xlink:href="#mfabfaf7171" y="57.419348"/>
     <use style="fill:#98df8a;stroke:#ffffff;stroke-linejoin:miter;stroke-width:0.75;" x="229.331544" xlink:href="#mfabfaf7171" y="57.419348"/>
     <use style="fill:#98df8a;stroke:#ffffff;stroke-linejoin:miter;stroke-width:0.75;" x="232.899176" xlink:href="#mfabfaf7171" y="54.315468"/>
     <use style="fill:#98df8a;stroke:#ffffff;stroke-linejoin:miter;stroke-width:0.75;" x="236.466809" xlink:href="#mfabfaf7171" y="54.315468"/>
     <use style="fill:#98df8a;stroke:#ffffff;stroke-linejoin:miter;stroke-width:0.75;" x="240.034441" xlink:href="#mfabfaf7171" y="54.315468"/>
     <use style="fill:#98df8a;stroke:#ffffff;stroke-linejoin:miter;stroke-width:0.75;" x="243.602074" xlink:href="#mfabfaf7171" y="54.315468"/>
     <use style="fill:#98df8a;stroke:#ffffff;stroke-linejoin:miter;stroke-width:0.75;" x="247.169706" xlink:href="#mfabfaf7171" y="54.315468"/>
     <use style="fill:#98df8a;stroke:#ffffff;stroke-linejoin:miter;stroke-width:0.75;" x="250.737338" xlink:href="#mfabfaf7171" y="54.315468"/>
     <use style="fill:#98df8a;stroke:#ffffff;stroke-linejoin:miter;stroke-width:0.75;" x="254.304971" xlink:href="#mfabfaf7171" y="54.315468"/>
     <use style="fill:#98df8a;stroke:#ffffff;stroke-linejoin:miter;stroke-width:0.75;" x="257.872603" xlink:href="#mfabfaf7171" y="54.315468"/>
     <use style="fill:#98df8a;stroke:#ffffff;stroke-linejoin:miter;stroke-width:0.75;" x="261.440235" xlink:href="#mfabfaf7171" y="54.315468"/>
     <use style="fill:#98df8a;stroke:#ffffff;stroke-linejoin:miter;stroke-width:0.75;" x="265.007868" xlink:href="#mfabfaf7171" y="54.315468"/>
     <use style="fill:#98df8a;stroke:#ffffff;stroke-linejoin:miter;stroke-width:0.75;" x="268.5755" xlink:href="#mfabfaf7171" y="54.315468"/>
     <use style="fill:#98df8a;stroke:#ffffff;stroke-linejoin:miter;stroke-width:0.75;" x="272.143132" xlink:href="#mfabfaf7171" y="54.315468"/>
     <use style="fill:#98df8a;stroke:#ffffff;stroke-linejoin:miter;stroke-width:0.75;" x="275.710765" xlink:href="#mfabfaf7171" y="54.315468"/>
     <use style="fill:#98df8a;stroke:#ffffff;stroke-linejoin:miter;stroke-width:0.75;" x="279.278397" xlink:href="#mfabfaf7171" y="53.493853"/>
     <use style="fill:#98df8a;stroke:#ffffff;stroke-linejoin:miter;stroke-width:0.75;" x="282.84603" xlink:href="#mfabfaf7171" y="53.493853"/>
     <use style="fill:#98df8a;stroke:#ffffff;stroke-linejoin:miter;stroke-width:0.75;" x="286.413662" xlink:href="#mfabfaf7171" y="53.493853"/>
     <use style="fill:#98df8a;stroke:#ffffff;stroke-linejoin:miter;stroke-width:0.75;" x="289.981294" xlink:href="#mfabfaf7171" y="54.315468"/>
     <use style="fill:#98df8a;stroke:#ffffff;stroke-linejoin:miter;stroke-width:0.75;" x="293.548927" xlink:href="#mfabfaf7171" y="52.672238"/>
     <use style="fill:#98df8a;stroke:#ffffff;stroke-linejoin:miter;stroke-width:0.75;" x="297.116559" xlink:href="#mfabfaf7171" y="52.672238"/>
     <use style="fill:#98df8a;stroke:#ffffff;stroke-linejoin:miter;stroke-width:0.75;" x="300.684191" xlink:href="#mfabfaf7171" y="52.672238"/>
     <use style="fill:#98df8a;stroke:#ffffff;stroke-linejoin:miter;stroke-width:0.75;" x="304.251824" xlink:href="#mfabfaf7171" y="52.672238"/>
     <use style="fill:#98df8a;stroke:#ffffff;stroke-linejoin:miter;stroke-width:0.75;" x="307.819456" xlink:href="#mfabfaf7171" y="52.672238"/>
     <use style="fill:#98df8a;stroke:#ffffff;stroke-linejoin:miter;stroke-width:0.75;" x="311.387089" xlink:href="#mfabfaf7171" y="52.672238"/>
     <use style="fill:#98df8a;stroke:#ffffff;stroke-linejoin:miter;stroke-width:0.75;" x="314.954721" xlink:href="#mfabfaf7171" y="52.672238"/>
     <use style="fill:#98df8a;stroke:#ffffff;stroke-linejoin:miter;stroke-width:0.75;" x="318.522353" xlink:href="#mfabfaf7171" y="52.307076"/>
     <use style="fill:#98df8a;stroke:#ffffff;stroke-linejoin:miter;stroke-width:0.75;" x="322.089986" xlink:href="#mfabfaf7171" y="52.307076"/>
     <use style="fill:#98df8a;stroke:#ffffff;stroke-linejoin:miter;stroke-width:0.75;" x="325.657618" xlink:href="#mfabfaf7171" y="51.211589"/>
     <use style="fill:#98df8a;stroke:#ffffff;stroke-linejoin:miter;stroke-width:0.75;" x="329.22525" xlink:href="#mfabfaf7171" y="51.211589"/>
     <use style="fill:#98df8a;stroke:#ffffff;stroke-linejoin:miter;stroke-width:0.75;" x="332.792883" xlink:href="#mfabfaf7171" y="51.029008"/>
     <use style="fill:#98df8a;stroke:#ffffff;stroke-linejoin:miter;stroke-width:0.75;" x="336.360515" xlink:href="#mfabfaf7171" y="51.029008"/>
     <use style="fill:#98df8a;stroke:#ffffff;stroke-linejoin:miter;stroke-width:0.75;" x="339.928147" xlink:href="#mfabfaf7171" y="51.029008"/>
     <use style="fill:#98df8a;stroke:#ffffff;stroke-linejoin:miter;stroke-width:0.75;" x="343.49578" xlink:href="#mfabfaf7171" y="51.029008"/>
     <use style="fill:#98df8a;stroke:#ffffff;stroke-linejoin:miter;stroke-width:0.75;" x="347.063412" xlink:href="#mfabfaf7171" y="48.472872"/>
     <use style="fill:#98df8a;stroke:#ffffff;stroke-linejoin:miter;stroke-width:0.75;" x="350.631045" xlink:href="#mfabfaf7171" y="48.472872"/>
     <use style="fill:#98df8a;stroke:#ffffff;stroke-linejoin:miter;stroke-width:0.75;" x="354.198677" xlink:href="#mfabfaf7171" y="48.016419"/>
     <use style="fill:#98df8a;stroke:#ffffff;stroke-linejoin:miter;stroke-width:0.75;" x="357.766309" xlink:href="#mfabfaf7171" y="50.116102"/>
     <use style="fill:#98df8a;stroke:#ffffff;stroke-linejoin:miter;stroke-width:0.75;" x="361.333942" xlink:href="#mfabfaf7171" y="50.572555"/>
     <use style="fill:#98df8a;stroke:#ffffff;stroke-linejoin:miter;stroke-width:0.75;" x="364.901574" xlink:href="#mfabfaf7171" y="50.572555"/>
     <use style="fill:#98df8a;stroke:#ffffff;stroke-linejoin:miter;stroke-width:0.75;" x="368.469206" xlink:href="#mfabfaf7171" y="50.572555"/>
     <use style="fill:#98df8a;stroke:#ffffff;stroke-linejoin:miter;stroke-width:0.75;" x="372.036839" xlink:href="#mfabfaf7171" y="50.572555"/>
     <use style="fill:#98df8a;stroke:#ffffff;stroke-linejoin:miter;stroke-width:0.75;" x="375.604471" xlink:href="#mfabfaf7171" y="50.572555"/>
     <use style="fill:#98df8a;stroke:#ffffff;stroke-linejoin:miter;stroke-width:0.75;" x="379.172104" xlink:href="#mfabfaf7171" y="50.572555"/>
     <use style="fill:#98df8a;stroke:#ffffff;stroke-linejoin:miter;stroke-width:0.75;" x="382.739736" xlink:href="#mfabfaf7171" y="50.572555"/>
     <use style="fill:#98df8a;stroke:#ffffff;stroke-linejoin:miter;stroke-width:0.75;" x="386.307368" xlink:href="#mfabfaf7171" y="50.572555"/>
     <use style="fill:#98df8a;stroke:#ffffff;stroke-linejoin:miter;stroke-width:0.75;" x="389.875001" xlink:href="#mfabfaf7171" y="50.572555"/>
     <use style="fill:#98df8a;stroke:#ffffff;stroke-linejoin:miter;stroke-width:0.75;" x="393.442633" xlink:href="#mfabfaf7171" y="50.481265"/>
     <use style="fill:#98df8a;stroke:#ffffff;stroke-linejoin:miter;stroke-width:0.75;" x="397.010265" xlink:href="#mfabfaf7171" y="50.481265"/>
     <use style="fill:#98df8a;stroke:#ffffff;stroke-linejoin:miter;stroke-width:0.75;" x="400.577898" xlink:href="#mfabfaf7171" y="50.298683"/>
    </g>
   </g>
   <g id="line2d_16">
    <path clip-path="url(#p7b2c532b77)" d="M 75.923352 231.601748 
L 79.490985 168.063514 
L 83.058617 148.344751 
L 86.626249 139.398276 
L 90.193882 132.642774 
L 93.761514 128.625989 
L 97.329146 121.870487 
L 100.896779 114.20208 
L 104.464411 112.55885 
L 108.032044 110.733038 
L 111.599676 108.359483 
L 115.167308 105.073023 
L 118.734941 105.073023 
L 122.302573 105.073023 
L 125.870205 92.657506 
L 129.437838 92.657506 
L 133.00547 91.927182 
L 136.573103 91.7446 
L 140.140735 85.536842 
L 143.708367 85.536842 
L 147.276 85.536842 
L 150.843632 85.536842 
L 154.411264 85.536842 
L 157.978897 85.536842 
L 161.546529 85.536842 
L 165.114161 85.536842 
L 168.681794 85.536842 
L 172.249426 82.798125 
L 175.817059 82.0678 
L 179.384691 82.0678 
L 182.952323 79.876827 
L 186.519956 79.876827 
L 190.087588 79.511665 
L 193.65522 79.146502 
L 197.222853 79.146502 
L 200.790485 79.146502 
L 204.358118 79.146502 
L 207.92575 79.146502 
L 211.493382 79.146502 
L 215.061015 78.416178 
L 218.628647 75.860042 
L 222.196279 74.764555 
L 225.763912 74.764555 
L 229.331544 74.764555 
L 232.899176 74.764555 
L 236.466809 74.764555 
L 240.034441 74.764555 
L 243.602074 74.764555 
L 247.169706 74.764555 
L 250.737338 74.764555 
L 254.304971 74.764555 
L 257.872603 74.764555 
L 261.440235 74.034231 
L 265.007868 74.034231 
L 268.5755 74.034231 
L 272.143132 74.034231 
L 275.710765 74.034231 
L 279.278397 74.034231 
L 282.84603 74.034231 
L 286.413662 74.034231 
L 289.981294 74.034231 
L 293.548927 74.034231 
L 297.116559 68.921959 
L 300.684191 68.739378 
L 304.251824 68.739378 
L 307.819456 68.374216 
L 311.387089 68.374216 
L 314.954721 68.374216 
L 318.522353 68.374216 
L 322.089986 68.374216 
L 325.657618 60.340646 
L 329.22525 60.340646 
L 332.792883 60.340646 
L 336.360515 60.340646 
L 339.928147 60.340646 
L 343.49578 60.340646 
L 347.063412 60.340646 
L 350.631045 60.340646 
L 354.198677 60.340646 
L 357.766309 60.340646 
L 361.333942 60.340646 
L 364.901574 60.340646 
L 368.469206 60.340646 
L 372.036839 60.340646 
L 375.604471 60.340646 
L 379.172104 60.340646 
L 382.739736 60.340646 
L 386.307368 60.340646 
L 389.875001 60.340646 
L 393.442633 60.340646 
L 397.010265 60.340646 
L 400.577898 60.340646 
" style="fill:none;stroke:#d62728;stroke-linecap:square;stroke-width:1.5;"/>
    <defs>
     <path d="M 0 -3 
L -3 3 
L 3 3 
z
" id="m897fe8cb3c" style="stroke:#ffffff;stroke-linejoin:miter;stroke-width:0.75;"/>
    </defs>
    <g clip-path="url(#p7b2c532b77)">
     <use style="fill:#d62728;stroke:#ffffff;stroke-linejoin:miter;stroke-width:0.75;" x="75.923352" xlink:href="#m897fe8cb3c" y="231.601748"/>
     <use style="fill:#d62728;stroke:#ffffff;stroke-linejoin:miter;stroke-width:0.75;" x="79.490985" xlink:href="#m897fe8cb3c" y="168.063514"/>
     <use style="fill:#d62728;stroke:#ffffff;stroke-linejoin:miter;stroke-width:0.75;" x="83.058617" xlink:href="#m897fe8cb3c" y="148.344751"/>
     <use style="fill:#d62728;stroke:#ffffff;stroke-linejoin:miter;stroke-width:0.75;" x="86.626249" xlink:href="#m897fe8cb3c" y="139.398276"/>
     <use style="fill:#d62728;stroke:#ffffff;stroke-linejoin:miter;stroke-width:0.75;" x="90.193882" xlink:href="#m897fe8cb3c" y="132.642774"/>
     <use style="fill:#d62728;stroke:#ffffff;stroke-linejoin:miter;stroke-width:0.75;" x="93.761514" xlink:href="#m897fe8cb3c" y="128.625989"/>
     <use style="fill:#d62728;stroke:#ffffff;stroke-linejoin:miter;stroke-width:0.75;" x="97.329146" xlink:href="#m897fe8cb3c" y="121.870487"/>
     <use style="fill:#d62728;stroke:#ffffff;stroke-linejoin:miter;stroke-width:0.75;" x="100.896779" xlink:href="#m897fe8cb3c" y="114.20208"/>
     <use style="fill:#d62728;stroke:#ffffff;stroke-linejoin:miter;stroke-width:0.75;" x="104.464411" xlink:href="#m897fe8cb3c" y="112.55885"/>
     <use style="fill:#d62728;stroke:#ffffff;stroke-linejoin:miter;stroke-width:0.75;" x="108.032044" xlink:href="#m897fe8cb3c" y="110.733038"/>
     <use style="fill:#d62728;stroke:#ffffff;stroke-linejoin:miter;stroke-width:0.75;" x="111.599676" xlink:href="#m897fe8cb3c" y="108.359483"/>
     <use style="fill:#d62728;stroke:#ffffff;stroke-linejoin:miter;stroke-width:0.75;" x="115.167308" xlink:href="#m897fe8cb3c" y="105.073023"/>
     <use style="fill:#d62728;stroke:#ffffff;stroke-linejoin:miter;stroke-width:0.75;" x="118.734941" xlink:href="#m897fe8cb3c" y="105.073023"/>
     <use style="fill:#d62728;stroke:#ffffff;stroke-linejoin:miter;stroke-width:0.75;" x="122.302573" xlink:href="#m897fe8cb3c" y="105.073023"/>
     <use style="fill:#d62728;stroke:#ffffff;stroke-linejoin:miter;stroke-width:0.75;" x="125.870205" xlink:href="#m897fe8cb3c" y="92.657506"/>
     <use style="fill:#d62728;stroke:#ffffff;stroke-linejoin:miter;stroke-width:0.75;" x="129.437838" xlink:href="#m897fe8cb3c" y="92.657506"/>
     <use style="fill:#d62728;stroke:#ffffff;stroke-linejoin:miter;stroke-width:0.75;" x="133.00547" xlink:href="#m897fe8cb3c" y="91.927182"/>
     <use style="fill:#d62728;stroke:#ffffff;stroke-linejoin:miter;stroke-width:0.75;" x="136.573103" xlink:href="#m897fe8cb3c" y="91.7446"/>
     <use style="fill:#d62728;stroke:#ffffff;stroke-linejoin:miter;stroke-width:0.75;" x="140.140735" xlink:href="#m897fe8cb3c" y="85.536842"/>
     <use style="fill:#d62728;stroke:#ffffff;stroke-linejoin:miter;stroke-width:0.75;" x="143.708367" xlink:href="#m897fe8cb3c" y="85.536842"/>
     <use style="fill:#d62728;stroke:#ffffff;stroke-linejoin:miter;stroke-width:0.75;" x="147.276" xlink:href="#m897fe8cb3c" y="85.536842"/>
     <use style="fill:#d62728;stroke:#ffffff;stroke-linejoin:miter;stroke-width:0.75;" x="150.843632" xlink:href="#m897fe8cb3c" y="85.536842"/>
     <use style="fill:#d62728;stroke:#ffffff;stroke-linejoin:miter;stroke-width:0.75;" x="154.411264" xlink:href="#m897fe8cb3c" y="85.536842"/>
     <use style="fill:#d62728;stroke:#ffffff;stroke-linejoin:miter;stroke-width:0.75;" x="157.978897" xlink:href="#m897fe8cb3c" y="85.536842"/>
     <use style="fill:#d62728;stroke:#ffffff;stroke-linejoin:miter;stroke-width:0.75;" x="161.546529" xlink:href="#m897fe8cb3c" y="85.536842"/>
     <use style="fill:#d62728;stroke:#ffffff;stroke-linejoin:miter;stroke-width:0.75;" x="165.114161" xlink:href="#m897fe8cb3c" y="85.536842"/>
     <use style="fill:#d62728;stroke:#ffffff;stroke-linejoin:miter;stroke-width:0.75;" x="168.681794" xlink:href="#m897fe8cb3c" y="85.536842"/>
     <use style="fill:#d62728;stroke:#ffffff;stroke-linejoin:miter;stroke-width:0.75;" x="172.249426" xlink:href="#m897fe8cb3c" y="82.798125"/>
     <use style="fill:#d62728;stroke:#ffffff;stroke-linejoin:miter;stroke-width:0.75;" x="175.817059" xlink:href="#m897fe8cb3c" y="82.0678"/>
     <use style="fill:#d62728;stroke:#ffffff;stroke-linejoin:miter;stroke-width:0.75;" x="179.384691" xlink:href="#m897fe8cb3c" y="82.0678"/>
     <use style="fill:#d62728;stroke:#ffffff;stroke-linejoin:miter;stroke-width:0.75;" x="182.952323" xlink:href="#m897fe8cb3c" y="79.876827"/>
     <use style="fill:#d62728;stroke:#ffffff;stroke-linejoin:miter;stroke-width:0.75;" x="186.519956" xlink:href="#m897fe8cb3c" y="79.876827"/>
     <use style="fill:#d62728;stroke:#ffffff;stroke-linejoin:miter;stroke-width:0.75;" x="190.087588" xlink:href="#m897fe8cb3c" y="79.511665"/>
     <use style="fill:#d62728;stroke:#ffffff;stroke-linejoin:miter;stroke-width:0.75;" x="193.65522" xlink:href="#m897fe8cb3c" y="79.146502"/>
     <use style="fill:#d62728;stroke:#ffffff;stroke-linejoin:miter;stroke-width:0.75;" x="197.222853" xlink:href="#m897fe8cb3c" y="79.146502"/>
     <use style="fill:#d62728;stroke:#ffffff;stroke-linejoin:miter;stroke-width:0.75;" x="200.790485" xlink:href="#m897fe8cb3c" y="79.146502"/>
     <use style="fill:#d62728;stroke:#ffffff;stroke-linejoin:miter;stroke-width:0.75;" x="204.358118" xlink:href="#m897fe8cb3c" y="79.146502"/>
     <use style="fill:#d62728;stroke:#ffffff;stroke-linejoin:miter;stroke-width:0.75;" x="207.92575" xlink:href="#m897fe8cb3c" y="79.146502"/>
     <use style="fill:#d62728;stroke:#ffffff;stroke-linejoin:miter;stroke-width:0.75;" x="211.493382" xlink:href="#m897fe8cb3c" y="79.146502"/>
     <use style="fill:#d62728;stroke:#ffffff;stroke-linejoin:miter;stroke-width:0.75;" x="215.061015" xlink:href="#m897fe8cb3c" y="78.416178"/>
     <use style="fill:#d62728;stroke:#ffffff;stroke-linejoin:miter;stroke-width:0.75;" x="218.628647" xlink:href="#m897fe8cb3c" y="75.860042"/>
     <use style="fill:#d62728;stroke:#ffffff;stroke-linejoin:miter;stroke-width:0.75;" x="222.196279" xlink:href="#m897fe8cb3c" y="74.764555"/>
     <use style="fill:#d62728;stroke:#ffffff;stroke-linejoin:miter;stroke-width:0.75;" x="225.763912" xlink:href="#m897fe8cb3c" y="74.764555"/>
     <use style="fill:#d62728;stroke:#ffffff;stroke-linejoin:miter;stroke-width:0.75;" x="229.331544" xlink:href="#m897fe8cb3c" y="74.764555"/>
     <use style="fill:#d62728;stroke:#ffffff;stroke-linejoin:miter;stroke-width:0.75;" x="232.899176" xlink:href="#m897fe8cb3c" y="74.764555"/>
     <use style="fill:#d62728;stroke:#ffffff;stroke-linejoin:miter;stroke-width:0.75;" x="236.466809" xlink:href="#m897fe8cb3c" y="74.764555"/>
     <use style="fill:#d62728;stroke:#ffffff;stroke-linejoin:miter;stroke-width:0.75;" x="240.034441" xlink:href="#m897fe8cb3c" y="74.764555"/>
     <use style="fill:#d62728;stroke:#ffffff;stroke-linejoin:miter;stroke-width:0.75;" x="243.602074" xlink:href="#m897fe8cb3c" y="74.764555"/>
     <use style="fill:#d62728;stroke:#ffffff;stroke-linejoin:miter;stroke-width:0.75;" x="247.169706" xlink:href="#m897fe8cb3c" y="74.764555"/>
     <use style="fill:#d62728;stroke:#ffffff;stroke-linejoin:miter;stroke-width:0.75;" x="250.737338" xlink:href="#m897fe8cb3c" y="74.764555"/>
     <use style="fill:#d62728;stroke:#ffffff;stroke-linejoin:miter;stroke-width:0.75;" x="254.304971" xlink:href="#m897fe8cb3c" y="74.764555"/>
     <use style="fill:#d62728;stroke:#ffffff;stroke-linejoin:miter;stroke-width:0.75;" x="257.872603" xlink:href="#m897fe8cb3c" y="74.764555"/>
     <use style="fill:#d62728;stroke:#ffffff;stroke-linejoin:miter;stroke-width:0.75;" x="261.440235" xlink:href="#m897fe8cb3c" y="74.034231"/>
     <use style="fill:#d62728;stroke:#ffffff;stroke-linejoin:miter;stroke-width:0.75;" x="265.007868" xlink:href="#m897fe8cb3c" y="74.034231"/>
     <use style="fill:#d62728;stroke:#ffffff;stroke-linejoin:miter;stroke-width:0.75;" x="268.5755" xlink:href="#m897fe8cb3c" y="74.034231"/>
     <use style="fill:#d62728;stroke:#ffffff;stroke-linejoin:miter;stroke-width:0.75;" x="272.143132" xlink:href="#m897fe8cb3c" y="74.034231"/>
     <use style="fill:#d62728;stroke:#ffffff;stroke-linejoin:miter;stroke-width:0.75;" x="275.710765" xlink:href="#m897fe8cb3c" y="74.034231"/>
     <use style="fill:#d62728;stroke:#ffffff;stroke-linejoin:miter;stroke-width:0.75;" x="279.278397" xlink:href="#m897fe8cb3c" y="74.034231"/>
     <use style="fill:#d62728;stroke:#ffffff;stroke-linejoin:miter;stroke-width:0.75;" x="282.84603" xlink:href="#m897fe8cb3c" y="74.034231"/>
     <use style="fill:#d62728;stroke:#ffffff;stroke-linejoin:miter;stroke-width:0.75;" x="286.413662" xlink:href="#m897fe8cb3c" y="74.034231"/>
     <use style="fill:#d62728;stroke:#ffffff;stroke-linejoin:miter;stroke-width:0.75;" x="289.981294" xlink:href="#m897fe8cb3c" y="74.034231"/>
     <use style="fill:#d62728;stroke:#ffffff;stroke-linejoin:miter;stroke-width:0.75;" x="293.548927" xlink:href="#m897fe8cb3c" y="74.034231"/>
     <use style="fill:#d62728;stroke:#ffffff;stroke-linejoin:miter;stroke-width:0.75;" x="297.116559" xlink:href="#m897fe8cb3c" y="68.921959"/>
     <use style="fill:#d62728;stroke:#ffffff;stroke-linejoin:miter;stroke-width:0.75;" x="300.684191" xlink:href="#m897fe8cb3c" y="68.739378"/>
     <use style="fill:#d62728;stroke:#ffffff;stroke-linejoin:miter;stroke-width:0.75;" x="304.251824" xlink:href="#m897fe8cb3c" y="68.739378"/>
     <use style="fill:#d62728;stroke:#ffffff;stroke-linejoin:miter;stroke-width:0.75;" x="307.819456" xlink:href="#m897fe8cb3c" y="68.374216"/>
     <use style="fill:#d62728;stroke:#ffffff;stroke-linejoin:miter;stroke-width:0.75;" x="311.387089" xlink:href="#m897fe8cb3c" y="68.374216"/>
     <use style="fill:#d62728;stroke:#ffffff;stroke-linejoin:miter;stroke-width:0.75;" x="314.954721" xlink:href="#m897fe8cb3c" y="68.374216"/>
     <use style="fill:#d62728;stroke:#ffffff;stroke-linejoin:miter;stroke-width:0.75;" x="318.522353" xlink:href="#m897fe8cb3c" y="68.374216"/>
     <use style="fill:#d62728;stroke:#ffffff;stroke-linejoin:miter;stroke-width:0.75;" x="322.089986" xlink:href="#m897fe8cb3c" y="68.374216"/>
     <use style="fill:#d62728;stroke:#ffffff;stroke-linejoin:miter;stroke-width:0.75;" x="325.657618" xlink:href="#m897fe8cb3c" y="60.340646"/>
     <use style="fill:#d62728;stroke:#ffffff;stroke-linejoin:miter;stroke-width:0.75;" x="329.22525" xlink:href="#m897fe8cb3c" y="60.340646"/>
     <use style="fill:#d62728;stroke:#ffffff;stroke-linejoin:miter;stroke-width:0.75;" x="332.792883" xlink:href="#m897fe8cb3c" y="60.340646"/>
     <use style="fill:#d62728;stroke:#ffffff;stroke-linejoin:miter;stroke-width:0.75;" x="336.360515" xlink:href="#m897fe8cb3c" y="60.340646"/>
     <use style="fill:#d62728;stroke:#ffffff;stroke-linejoin:miter;stroke-width:0.75;" x="339.928147" xlink:href="#m897fe8cb3c" y="60.340646"/>
     <use style="fill:#d62728;stroke:#ffffff;stroke-linejoin:miter;stroke-width:0.75;" x="343.49578" xlink:href="#m897fe8cb3c" y="60.340646"/>
     <use style="fill:#d62728;stroke:#ffffff;stroke-linejoin:miter;stroke-width:0.75;" x="347.063412" xlink:href="#m897fe8cb3c" y="60.340646"/>
     <use style="fill:#d62728;stroke:#ffffff;stroke-linejoin:miter;stroke-width:0.75;" x="350.631045" xlink:href="#m897fe8cb3c" y="60.340646"/>
     <use style="fill:#d62728;stroke:#ffffff;stroke-linejoin:miter;stroke-width:0.75;" x="354.198677" xlink:href="#m897fe8cb3c" y="60.340646"/>
     <use style="fill:#d62728;stroke:#ffffff;stroke-linejoin:miter;stroke-width:0.75;" x="357.766309" xlink:href="#m897fe8cb3c" y="60.340646"/>
     <use style="fill:#d62728;stroke:#ffffff;stroke-linejoin:miter;stroke-width:0.75;" x="361.333942" xlink:href="#m897fe8cb3c" y="60.340646"/>
     <use style="fill:#d62728;stroke:#ffffff;stroke-linejoin:miter;stroke-width:0.75;" x="364.901574" xlink:href="#m897fe8cb3c" y="60.340646"/>
     <use style="fill:#d62728;stroke:#ffffff;stroke-linejoin:miter;stroke-width:0.75;" x="368.469206" xlink:href="#m897fe8cb3c" y="60.340646"/>
     <use style="fill:#d62728;stroke:#ffffff;stroke-linejoin:miter;stroke-width:0.75;" x="372.036839" xlink:href="#m897fe8cb3c" y="60.340646"/>
     <use style="fill:#d62728;stroke:#ffffff;stroke-linejoin:miter;stroke-width:0.75;" x="375.604471" xlink:href="#m897fe8cb3c" y="60.340646"/>
     <use style="fill:#d62728;stroke:#ffffff;stroke-linejoin:miter;stroke-width:0.75;" x="379.172104" xlink:href="#m897fe8cb3c" y="60.340646"/>
     <use style="fill:#d62728;stroke:#ffffff;stroke-linejoin:miter;stroke-width:0.75;" x="382.739736" xlink:href="#m897fe8cb3c" y="60.340646"/>
     <use style="fill:#d62728;stroke:#ffffff;stroke-linejoin:miter;stroke-width:0.75;" x="386.307368" xlink:href="#m897fe8cb3c" y="60.340646"/>
     <use style="fill:#d62728;stroke:#ffffff;stroke-linejoin:miter;stroke-width:0.75;" x="389.875001" xlink:href="#m897fe8cb3c" y="60.340646"/>
     <use style="fill:#d62728;stroke:#ffffff;stroke-linejoin:miter;stroke-width:0.75;" x="393.442633" xlink:href="#m897fe8cb3c" y="60.340646"/>
     <use style="fill:#d62728;stroke:#ffffff;stroke-linejoin:miter;stroke-width:0.75;" x="397.010265" xlink:href="#m897fe8cb3c" y="60.340646"/>
     <use style="fill:#d62728;stroke:#ffffff;stroke-linejoin:miter;stroke-width:0.75;" x="400.577898" xlink:href="#m897fe8cb3c" y="60.340646"/>
    </g>
   </g>
   <g id="line2d_17"/>
   <g id="line2d_18"/>
   <g id="line2d_19"/>
   <g id="patch_3">
    <path d="M 59.690625 258.441174 
L 59.690625 39.343816 
" style="fill:none;stroke:#000000;stroke-linecap:square;stroke-linejoin:miter;stroke-width:0.8;"/>
   </g>
   <g id="patch_4">
    <path d="M 75.923352 288.430125 
L 349.441834 288.430125 
" style="fill:none;stroke:#000000;stroke-linecap:square;stroke-linejoin:miter;stroke-width:0.8;"/>
   </g>
   <g id="text_16">
    <!-- usrsctp_fuzzer_connect (23h, 18 trials/fuzzer) -->
    <g transform="translate(101.250938 16.318125)scale(0.12 -0.12)">
     <defs>
      <path d="M 2834 3397 
L 2834 2853 
Q 2591 2978 2328 3040 
Q 2066 3103 1784 3103 
Q 1356 3103 1142 2972 
Q 928 2841 928 2578 
Q 928 2378 1081 2264 
Q 1234 2150 1697 2047 
L 1894 2003 
Q 2506 1872 2764 1633 
Q 3022 1394 3022 966 
Q 3022 478 2636 193 
Q 2250 -91 1575 -91 
Q 1294 -91 989 -36 
Q 684 19 347 128 
L 347 722 
Q 666 556 975 473 
Q 1284 391 1588 391 
Q 1994 391 2212 530 
Q 2431 669 2431 922 
Q 2431 1156 2273 1281 
Q 2116 1406 1581 1522 
L 1381 1569 
Q 847 1681 609 1914 
Q 372 2147 372 2553 
Q 372 3047 722 3315 
Q 1072 3584 1716 3584 
Q 2034 3584 2315 3537 
Q 2597 3491 2834 3397 
z
" id="DejaVuSans-73" transform="scale(0.015625)"/>
      <path d="M 1159 525 
L 1159 -1331 
L 581 -1331 
L 581 3500 
L 1159 3500 
L 1159 2969 
Q 1341 3281 1617 3432 
Q 1894 3584 2278 3584 
Q 2916 3584 3314 3078 
Q 3713 2572 3713 1747 
Q 3713 922 3314 415 
Q 2916 -91 2278 -91 
Q 1894 -91 1617 61 
Q 1341 213 1159 525 
z
M 3116 1747 
Q 3116 2381 2855 2742 
Q 2594 3103 2138 3103 
Q 1681 3103 1420 2742 
Q 1159 2381 1159 1747 
Q 1159 1113 1420 752 
Q 1681 391 2138 391 
Q 2594 391 2855 752 
Q 3116 1113 3116 1747 
z
" id="DejaVuSans-70" transform="scale(0.015625)"/>
      <path d="M 3263 -1063 
L 3263 -1509 
L -63 -1509 
L -63 -1063 
L 3263 -1063 
z
" id="DejaVuSans-5f" transform="scale(0.015625)"/>
      <path d="M 2375 4863 
L 2375 4384 
L 1825 4384 
Q 1516 4384 1395 4259 
Q 1275 4134 1275 3809 
L 1275 3500 
L 2222 3500 
L 2222 3053 
L 1275 3053 
L 1275 0 
L 697 0 
L 697 3053 
L 147 3053 
L 147 3500 
L 697 3500 
L 697 3744 
Q 697 4328 969 4595 
Q 1241 4863 1831 4863 
L 2375 4863 
z
" id="DejaVuSans-66" transform="scale(0.015625)"/>
      <path d="M 353 3500 
L 3084 3500 
L 3084 2975 
L 922 459 
L 3084 459 
L 3084 0 
L 275 0 
L 275 525 
L 2438 3041 
L 353 3041 
L 353 3500 
z
" id="DejaVuSans-7a" transform="scale(0.015625)"/>
      <path d="M 750 794 
L 1409 794 
L 1409 256 
L 897 -744 
L 494 -744 
L 750 256 
L 750 794 
z
" id="DejaVuSans-2c" transform="scale(0.015625)"/>
      <path d="M 603 4863 
L 1178 4863 
L 1178 0 
L 603 0 
L 603 4863 
z
" id="DejaVuSans-6c" transform="scale(0.015625)"/>
      <path d="M 1625 4666 
L 2156 4666 
L 531 -594 
L 0 -594 
L 1625 4666 
z
" id="DejaVuSans-2f" transform="scale(0.015625)"/>
     </defs>
     <use xlink:href="#DejaVuSans-75"/>
     <use x="63.378906" xlink:href="#DejaVuSans-73"/>
     <use x="115.478516" xlink:href="#DejaVuSans-72"/>
     <use x="156.591797" xlink:href="#DejaVuSans-73"/>
     <use x="208.691406" xlink:href="#DejaVuSans-63"/>
     <use x="263.671875" xlink:href="#DejaVuSans-74"/>
     <use x="302.880859" xlink:href="#DejaVuSans-70"/>
     <use x="366.357422" xlink:href="#DejaVuSans-5f"/>
     <use x="416.357422" xlink:href="#DejaVuSans-66"/>
     <use x="451.5625" xlink:href="#DejaVuSans-75"/>
     <use x="514.941406" xlink:href="#DejaVuSans-7a"/>
     <use x="567.431641" xlink:href="#DejaVuSans-7a"/>
     <use x="619.921875" xlink:href="#DejaVuSans-65"/>
     <use x="681.445312" xlink:href="#DejaVuSans-72"/>
     <use x="722.558594" xlink:href="#DejaVuSans-5f"/>
     <use x="772.558594" xlink:href="#DejaVuSans-63"/>
     <use x="827.539062" xlink:href="#DejaVuSans-6f"/>
     <use x="888.720703" xlink:href="#DejaVuSans-6e"/>
     <use x="952.099609" xlink:href="#DejaVuSans-6e"/>
     <use x="1015.478516" xlink:href="#DejaVuSans-65"/>
     <use x="1077.001953" xlink:href="#DejaVuSans-63"/>
     <use x="1131.982422" xlink:href="#DejaVuSans-74"/>
     <use x="1171.191406" xlink:href="#DejaVuSans-20"/>
     <use x="1202.978516" xlink:href="#DejaVuSans-28"/>
     <use x="1241.992188" xlink:href="#DejaVuSans-32"/>
     <use x="1305.615234" xlink:href="#DejaVuSans-33"/>
     <use x="1369.238281" xlink:href="#DejaVuSans-68"/>
     <use x="1432.617188" xlink:href="#DejaVuSans-2c"/>
     <use x="1464.404297" xlink:href="#DejaVuSans-20"/>
     <use x="1496.191406" xlink:href="#DejaVuSans-31"/>
     <use x="1559.814453" xlink:href="#DejaVuSans-38"/>
     <use x="1623.4375" xlink:href="#DejaVuSans-20"/>
     <use x="1655.224609" xlink:href="#DejaVuSans-74"/>
     <use x="1694.433594" xlink:href="#DejaVuSans-72"/>
     <use x="1735.546875" xlink:href="#DejaVuSans-69"/>
     <use x="1763.330078" xlink:href="#DejaVuSans-61"/>
     <use x="1824.609375" xlink:href="#DejaVuSans-6c"/>
     <use x="1852.392578" xlink:href="#DejaVuSans-73"/>
     <use x="1904.492188" xlink:href="#DejaVuSans-2f"/>
     <use x="1938.183594" xlink:href="#DejaVuSans-66"/>
     <use x="1973.388672" xlink:href="#DejaVuSans-75"/>
     <use x="2036.767578" xlink:href="#DejaVuSans-7a"/>
     <use x="2089.257812" xlink:href="#DejaVuSans-7a"/>
     <use x="2141.748047" xlink:href="#DejaVuSans-65"/>
     <use x="2203.271484" xlink:href="#DejaVuSans-72"/>
     <use x="2244.384766" xlink:href="#DejaVuSans-29"/>
    </g>
   </g>
   <g id="legend_1">
    <g id="line2d_20">
     <path d="M 420.810625 30.416562 
L 440.810625 30.416562 
" style="fill:none;stroke:#1f77b4;stroke-linecap:square;stroke-width:1.5;"/>
    </g>
    <g id="line2d_21">
     <defs>
      <path d="M 0 3 
C 0.795609 3 1.55874 2.683901 2.12132 2.12132 
C 2.683901 1.55874 3 0.795609 3 0 
C 3 -0.795609 2.683901 -1.55874 2.12132 -2.12132 
C 1.55874 -2.683901 0.795609 -3 0 -3 
C -0.795609 -3 -1.55874 -2.683901 -2.12132 -2.12132 
C -2.683901 -1.55874 -3 -0.795609 -3 0 
C -3 0.795609 -2.683901 1.55874 -2.12132 2.12132 
C -1.55874 2.683901 -0.795609 3 0 3 
z
" id="md664325d82" style="stroke:#1f77b4;"/>
     </defs>
     <g>
      <use style="fill:#1f77b4;stroke:#1f77b4;" x="430.810625" xlink:href="#md664325d82" y="30.416562"/>
     </g>
    </g>
    <g id="text_17">
     <!-- afl -->
     <g transform="translate(448.810625 33.916562)scale(0.1 -0.1)">
      <use xlink:href="#DejaVuSans-61"/>
      <use x="61.279297" xlink:href="#DejaVuSans-66"/>
      <use x="96.484375" xlink:href="#DejaVuSans-6c"/>
     </g>
    </g>
    <g id="line2d_22">
     <path d="M 420.810625 45.094688 
L 440.810625 45.094688 
" style="fill:none;stroke:#98df8a;stroke-linecap:square;stroke-width:1.5;"/>
    </g>
    <g id="line2d_23">
     <defs>
      <path d="M -0 3 
L 3 -3 
L -3 -3 
z
" id="mb255629b55" style="stroke:#98df8a;stroke-linejoin:miter;"/>
     </defs>
     <g>
      <use style="fill:#98df8a;stroke:#98df8a;stroke-linejoin:miter;" x="430.810625" xlink:href="#mb255629b55" y="45.094688"/>
     </g>
    </g>
    <g id="text_18">
     <!-- afl_no_favfactor -->
     <g transform="translate(448.810625 48.594688)scale(0.1 -0.1)">
      <use xlink:href="#DejaVuSans-61"/>
      <use x="61.279297" xlink:href="#DejaVuSans-66"/>
      <use x="96.484375" xlink:href="#DejaVuSans-6c"/>
      <use x="124.267578" xlink:href="#DejaVuSans-5f"/>
      <use x="174.267578" xlink:href="#DejaVuSans-6e"/>
      <use x="237.646484" xlink:href="#DejaVuSans-6f"/>
      <use x="298.828125" xlink:href="#DejaVuSans-5f"/>
      <use x="348.828125" xlink:href="#DejaVuSans-66"/>
      <use x="384.033203" xlink:href="#DejaVuSans-61"/>
      <use x="445.3125" xlink:href="#DejaVuSans-76"/>
      <use x="504.492188" xlink:href="#DejaVuSans-66"/>
      <use x="539.697266" xlink:href="#DejaVuSans-61"/>
      <use x="600.976562" xlink:href="#DejaVuSans-63"/>
      <use x="655.957031" xlink:href="#DejaVuSans-74"/>
      <use x="695.166016" xlink:href="#DejaVuSans-6f"/>
      <use x="756.347656" xlink:href="#DejaVuSans-72"/>
     </g>
    </g>
    <g id="line2d_24">
     <path d="M 420.810625 60.050937 
L 440.810625 60.050937 
" style="fill:none;stroke:#d62728;stroke-linecap:square;stroke-width:1.5;"/>
    </g>
    <g id="line2d_25">
     <defs>
      <path d="M 0 -3 
L -3 3 
L 3 3 
z
" id="me07d7220b0" style="stroke:#d62728;stroke-linejoin:miter;"/>
     </defs>
     <g>
      <use style="fill:#d62728;stroke:#d62728;stroke-linejoin:miter;" x="430.810625" xlink:href="#me07d7220b0" y="60.050937"/>
     </g>
    </g>
    <g id="text_19">
     <!-- afl_no_favored -->
     <g transform="translate(448.810625 63.550937)scale(0.1 -0.1)">
      <use xlink:href="#DejaVuSans-61"/>
      <use x="61.279297" xlink:href="#DejaVuSans-66"/>
      <use x="96.484375" xlink:href="#DejaVuSans-6c"/>
      <use x="124.267578" xlink:href="#DejaVuSans-5f"/>
      <use x="174.267578" xlink:href="#DejaVuSans-6e"/>
      <use x="237.646484" xlink:href="#DejaVuSans-6f"/>
      <use x="298.828125" xlink:href="#DejaVuSans-5f"/>
      <use x="348.828125" xlink:href="#DejaVuSans-66"/>
      <use x="384.033203" xlink:href="#DejaVuSans-61"/>
      <use x="445.3125" xlink:href="#DejaVuSans-76"/>
      <use x="504.492188" xlink:href="#DejaVuSans-6f"/>
      <use x="565.673828" xlink:href="#DejaVuSans-72"/>
      <use x="604.537109" xlink:href="#DejaVuSans-65"/>
      <use x="666.060547" xlink:href="#DejaVuSans-64"/>
     </g>
    </g>
   </g>
  </g>
 </g>
 <defs>
  <clipPath id="p7b2c532b77">
   <rect height="266.112" width="357.12" x="59.690625" y="22.318125"/>
  </clipPath>
 </defs>
</svg>
