<?xml version="1.0" encoding="utf-8" standalone="no"?>
<!DOCTYPE svg PUBLIC "-//W3C//DTD SVG 1.1//EN"
  "http://www.w3.org/Graphics/SVG/1.1/DTD/svg11.dtd">
<svg height="325.986375pt" version="1.1" viewBox="0 0 546.12 325.986375" width="546.12pt" xmlns="http://www.w3.org/2000/svg" xmlns:xlink="http://www.w3.org/1999/xlink">
 <metadata>
  <rdf:RDF xmlns:cc="http://creativecommons.org/ns#" xmlns:dc="http://purl.org/dc/elements/1.1/" xmlns:rdf="http://www.w3.org/1999/02/22-rdf-syntax-ns#">
   <cc:Work>
    <dc:type rdf:resource="http://purl.org/dc/dcmitype/StillImage"/>
    <dc:date>2022-05-24T15:54:56.849090</dc:date>
    <dc:format>image/svg+xml</dc:format>
    <dc:creator>
     <cc:Agent>
      <dc:title>Matplotlib v3.4.3, https://matplotlib.org/</dc:title>
     </cc:Agent>
    </dc:creator>
   </cc:Work>
  </rdf:RDF>
 </metadata>
 <defs>
  <style type="text/css">*{stroke-linecap:butt;stroke-linejoin:round;}</style>
 </defs>
 <g id="figure_1">
  <g id="patch_1">
   <path d="M 0 325.986375 
L 546.12 325.986375 
L 546.12 0 
L 0 0 
z
" style="fill:#ffffff;"/>
  </g>
  <g id="axes_1">
   <g id="patch_2">
    <path d="M 66.053125 288.430125 
L 423.173125 288.430125 
L 423.173125 22.318125 
L 66.053125 22.318125 
z
" style="fill:#ffffff;"/>
   </g>
   <g id="PolyCollection_1">
    <defs>
     <path d="M 82.285852 -57.190643 
L 82.285852 -49.65225 
L 132.052306 -73.184378 
L 161.163816 -90.643135 
L 181.81876 -104.409619 
L 197.83998 -114.654281 
L 210.930269 -124.13846 
L 221.997952 -133.409354 
L 231.585214 -140.605093 
L 240.041779 -147.384752 
L 247.606434 -156.623304 
L 254.449496 -161.965039 
L 260.696723 -168.548895 
L 266.443615 -174.188703 
L 271.764406 -180.085503 
L 276.717943 -182.73408 
L 281.351668 -185.630033 
L 285.704383 -189.477026 
L 289.808233 -193.06528 
L 293.690141 -198.059115 
L 297.372888 -201.996143 
L 300.875915 -203.261865 
L 304.21595 -205.211148 
L 307.40749 -207.559029 
L 310.463177 -209.333488 
L 313.394107 -211.190989 
L 316.210069 -213.610547 
L 318.919742 -216.891112 
L 321.530859 -218.104387 
L 324.05034 -220.452268 
L 326.484397 -222.946979 
L 328.838635 -226.57459 
L 331.118122 -229.015127 
L 333.32746 -229.822812 
L 335.470837 -231.249373 
L 337.552079 -231.217904 
L 339.574687 -231.789578 
L 341.541873 -232.931176 
L 343.456595 -234.360358 
L 345.321578 -236.587611 
L 347.139342 -238.68899 
L 348.912217 -241.016766 
L 350.642369 -240.977431 
L 352.331807 -241.744032 
L 353.982404 -242.097176 
L 355.595906 -242.133889 
L 357.173944 -243.424087 
L 358.718042 -247.147829 
L 360.229631 -248.368972 
L 361.710051 -250.649546 
L 363.160561 -252.84533 
L 364.582347 -253.38029 
L 365.976523 -256.118027 
L 367.344142 -253.698469 
L 368.686196 -256.806832 
L 370.003624 -257.871508 
L 371.297313 -259.579534 
L 372.568104 -259.128489 
L 373.816794 -259.598765 
L 375.044136 -261.661683 
L 376.250851 -261.347154 
L 377.437619 -261.995596 
L 378.605089 -261.944023 
L 379.753878 -262.240349 
L 380.884576 -263.544533 
L 381.997743 -264.422148 
L 383.093914 -264.430889 
L 384.1736 -265.274413 
L 385.237291 -264.589978 
L 386.285453 -264.745571 
L 387.318533 -265.387174 
L 388.336959 -267.441351 
L 389.341141 -268.406377 
L 390.331471 -269.158118 
L 391.308327 -268.986791 
L 392.272071 -268.408431 
L 393.223049 -270.308458 
L 394.161596 -269.563709 
L 395.088032 -272.173825 
L 396.002666 -272.373998 
L 396.905795 -272.805812 
L 397.797705 -273.78395 
L 398.678671 -273.687797 
L 399.548958 -273.762972 
L 400.408823 -273.818915 
L 401.258511 -272.301446 
L 402.098261 -273.997913 
L 402.928303 -274.303176 
L 403.748858 -277.965731 
L 404.560142 -277.126577 
L 405.36236 -273.422066 
L 406.155714 -278.039156 
L 406.940398 -276.026937 
L 406.940398 -288.831016 
L 406.940398 -288.831016 
L 406.155714 -287.659698 
L 405.36236 -288.280322 
L 404.560142 -287.062654 
L 403.748858 -285.810065 
L 402.928303 -285.392236 
L 402.098261 -285.06182 
L 401.258511 -284.257631 
L 400.408823 -284.215674 
L 399.548958 -283.948194 
L 398.678671 -284.093297 
L 397.797705 -285.593283 
L 396.905795 -283.627392 
L 396.002666 -283.067083 
L 395.088032 -279.831098 
L 394.161596 -282.477927 
L 393.223049 -280.390534 
L 392.272071 -280.494554 
L 391.308327 -281.28563 
L 390.331471 -279.11607 
L 389.341141 -277.761187 
L 388.336959 -277.778516 
L 387.318533 -277.740208 
L 386.285453 -278.940372 
L 385.237291 -275.243727 
L 384.1736 -276.120468 
L 383.093914 -275.297049 
L 381.997743 -273.644092 
L 380.884576 -273.188676 
L 379.753878 -273.084656 
L 378.605089 -273.309304 
L 377.437619 -272.303195 
L 376.250851 -271.606523 
L 375.044136 -269.735036 
L 373.816794 -268.570711 
L 372.568104 -267.198346 
L 371.297313 -265.898533 
L 370.003624 -265.203609 
L 368.686196 -265.00431 
L 367.344142 -264.210611 
L 365.976523 -264.873192 
L 364.582347 -264.060263 
L 363.160561 -263.490338 
L 361.710051 -262.997335 
L 360.229631 -260.558546 
L 358.718042 -259.109259 
L 357.173944 -257.796334 
L 355.595906 -253.080468 
L 353.982404 -254.354057 
L 352.331807 -254.701956 
L 350.642369 -253.746545 
L 348.912217 -252.163518 
L 347.139342 -248.866345 
L 345.321578 -245.215089 
L 343.456595 -244.257121 
L 341.541873 -243.934572 
L 339.574687 -241.126905 
L 337.552079 -240.908376 
L 335.470837 -239.689855 
L 333.32746 -237.025544 
L 331.118122 -234.579762 
L 328.838635 -232.256357 
L 326.484397 -229.960923 
L 324.05034 -228.658487 
L 321.530859 -228.097303 
L 318.919742 -224.174262 
L 316.210069 -223.022175 
L 313.394107 -224.955724 
L 310.463177 -216.884119 
L 307.40749 -213.342193 
L 304.21595 -211.504797 
L 300.875915 -210.328235 
L 297.372888 -208.482097 
L 293.690141 -205.233875 
L 289.808233 -205.200659 
L 285.704383 -199.288125 
L 281.351668 -194.938515 
L 276.717943 -191.983996 
L 271.764406 -187.716552 
L 266.443615 -182.609955 
L 260.696723 -179.129218 
L 254.449496 -174.943941 
L 247.606434 -171.166878 
L 240.041779 -163.449291 
L 231.585214 -156.442362 
L 221.997952 -147.746637 
L 210.930269 -137.971376 
L 197.83998 -125.722362 
L 181.81876 -114.703231 
L 161.163816 -101.045139 
L 132.052306 -81.095146 
L 82.285852 -57.190643 
z
" id="maf29c9cba3" style="stroke:#d62728;stroke-opacity:0.2;"/>
    </defs>
    <g clip-path="url(#p2351859ebe)">
     <use style="fill:#d62728;fill-opacity:0.2;stroke:#d62728;stroke-opacity:0.2;" x="0" xlink:href="#maf29c9cba3" y="325.986375"/>
    </g>
   </g>
   <g id="PolyCollection_2">
    <defs>
     <path d="M 82.285852 -74.923873 
L 82.285852 -60.205344 
L 132.052306 -91.586309 
L 161.163816 -108.668321 
L 181.81876 -119.186582 
L 197.83998 -128.269541 
L 210.930269 -138.578888 
L 221.997952 -139.157554 
L 231.585214 -141.127816 
L 240.041779 -147.271116 
L 247.606434 -152.676662 
L 254.449496 -156.165266 
L 260.696723 -159.637263 
L 266.443615 -157.676616 
L 271.764406 -164.735118 
L 276.717943 -163.706281 
L 281.351668 -168.220226 
L 285.704383 -168.795396 
L 289.808233 -172.568089 
L 293.690141 -169.221091 
L 297.372888 -180.265571 
L 300.875915 -177.02609 
L 304.21595 -186.805721 
L 307.40749 -181.928143 
L 310.463177 -184.73581 
L 313.394107 -182.340727 
L 316.210069 -182.630934 
L 318.919742 -183.760295 
L 321.530859 -197.983941 
L 324.05034 -202.539844 
L 326.484397 -203.006623 
L 328.838635 -209.506564 
L 331.118122 -203.389487 
L 333.32746 -209.749568 
L 335.470837 -208.364966 
L 337.552079 -215.156862 
L 339.574687 -219.090392 
L 341.541873 -218.016976 
L 343.456595 -218.490748 
L 345.321578 -222.532669 
L 347.139342 -223.340354 
L 348.912217 -223.440003 
L 350.642369 -226.186482 
L 352.331807 -231.595523 
L 353.982404 -231.668949 
L 355.595906 -231.934681 
L 357.173944 -234.4434 
L 358.718042 -234.67067 
L 360.229631 -234.726614 
L 361.710051 -234.828011 
L 363.160561 -234.904934 
L 364.582347 -238.765039 
L 365.976523 -238.070377 
L 367.344142 -242.140882 
L 368.686196 -233.925922 
L 370.003624 -242.392628 
L 371.297313 -239.852441 
L 372.568104 -241.065717 
L 373.816794 -242.819897 
L 375.044136 -241.931094 
L 376.250851 -244.439812 
L 377.437619 -242.667101 
L 378.605089 -247.259716 
L 379.753878 -245.848016 
L 380.884576 -248.768444 
L 381.997743 -248.993966 
L 383.093914 -249.133825 
L 384.1736 -246.4835 
L 385.237291 -249.618087 
L 386.285453 -250.691503 
L 387.318533 -251.583104 
L 388.336959 -251.738697 
L 389.341141 -253.154768 
L 390.331471 -256.661729 
L 391.308327 -256.61103 
L 392.272071 -258.714158 
L 393.223049 -261.077772 
L 394.161596 -259.027092 
L 395.088032 -259.332159 
L 396.002666 -261.532314 
L 396.905795 -261.076024 
L 397.797705 -263.370584 
L 398.678671 -263.222858 
L 399.548958 -264.019026 
L 400.408823 -264.245576 
L 401.258511 -264.920395 
L 402.098261 -268.158128 
L 402.928303 -268.275259 
L 403.748858 -268.943085 
L 404.560142 -273.147593 
L 405.36236 -271.955296 
L 406.155714 -272.481515 
L 406.940398 -273.13011 
L 406.940398 -281.391399 
L 406.940398 -281.391399 
L 406.155714 -279.869559 
L 405.36236 -280.112564 
L 404.560142 -279.719211 
L 403.748858 -280.130046 
L 402.928303 -280.114312 
L 402.098261 -278.666773 
L 401.258511 -278.504187 
L 400.408823 -278.524292 
L 399.548958 -278.505935 
L 398.678671 -277.771676 
L 397.797705 -276.392318 
L 396.905795 -277.689509 
L 396.002666 -276.792664 
L 395.088032 -275.189532 
L 394.161596 -274.226254 
L 393.223049 -272.838657 
L 392.272071 -273.145844 
L 391.308327 -272.651094 
L 390.331471 -272.085539 
L 389.341141 -272.196552 
L 388.336959 -269.487967 
L 387.318533 -268.852177 
L 386.285453 -268.311972 
L 385.237291 -267.932605 
L 384.1736 -269.95881 
L 383.093914 -269.180845 
L 381.997743 -267.724565 
L 380.884576 -267.644146 
L 379.753878 -268.08645 
L 378.605089 -265.488571 
L 377.437619 -267.113557 
L 376.250851 -264.951863 
L 375.044136 -266.759539 
L 373.816794 -265.96584 
L 372.568104 -264.728963 
L 371.297313 -263.978096 
L 370.003624 -262.17042 
L 368.686196 -261.336511 
L 367.344142 -259.394221 
L 365.976523 -258.219407 
L 364.582347 -256.667848 
L 363.160561 -255.273629 
L 361.710051 -254.243919 
L 360.229631 -249.153143 
L 358.718042 -251.813871 
L 357.173944 -251.535901 
L 355.595906 -251.361078 
L 353.982404 -251.08136 
L 352.331807 -248.09887 
L 350.642369 -245.663577 
L 348.912217 -243.238774 
L 347.139342 -241.868092 
L 345.321578 -240.374049 
L 343.456595 -246.992236 
L 341.541873 -243.198565 
L 339.574687 -238.501055 
L 337.552079 -241.224806 
L 335.470837 -240.341947 
L 333.32746 -228.263386 
L 331.118122 -227.634021 
L 328.838635 -234.452141 
L 326.484397 -221.537923 
L 324.05034 -227.398883 
L 321.530859 -230.131376 
L 318.919742 -226.58945 
L 316.210069 -220.084133 
L 313.394107 -218.520468 
L 310.463177 -220.020454 
L 307.40749 -209.947993 
L 304.21595 -211.632418 
L 300.875915 -211.461091 
L 297.372888 -211.261792 
L 293.690141 -205.116569 
L 289.808233 -210.6097 
L 285.704383 -209.917399 
L 281.351668 -200.712937 
L 276.717943 -200.648253 
L 271.764406 -193.132915 
L 266.443615 -189.458494 
L 260.696723 -190.408835 
L 254.449496 -184.015537 
L 247.606434 -172.702703 
L 240.041779 -166.580381 
L 231.585214 -161.090571 
L 221.997952 -165.049801 
L 210.930269 -155.645166 
L 197.83998 -140.155054 
L 181.81876 -129.077226 
L 161.163816 -118.792355 
L 132.052306 -101.671881 
L 82.285852 -74.923873 
z
" id="m3fbf2045b2" style="stroke:#98df8a;stroke-opacity:0.2;"/>
    </defs>
    <g clip-path="url(#p2351859ebe)">
     <use style="fill:#98df8a;fill-opacity:0.2;stroke:#98df8a;stroke-opacity:0.2;" x="0" xlink:href="#m3fbf2045b2" y="325.986375"/>
    </g>
   </g>
   <g id="PolyCollection_3">
    <defs>
     <path d="M 82.285852 -72.495573 
L 82.285852 -57.133825 
L 132.052306 -92.175464 
L 161.163816 -109.81866 
L 181.81876 -120.267866 
L 197.83998 -127.435633 
L 210.930269 -131.246787 
L 221.997952 -138.54742 
L 231.585214 -145.216939 
L 240.041779 -145.633019 
L 247.606434 -145.876024 
L 254.449496 -147.046468 
L 260.696723 -151.435414 
L 266.443615 -151.47912 
L 271.764406 -152.443272 
L 276.717943 -165.982484 
L 281.351668 -161.304446 
L 285.704383 -172.777877 
L 289.808233 -161.897731 
L 293.690141 -169.540144 
L 297.372888 -171.201274 
L 300.875915 -170.53052 
L 304.21595 -174.587301 
L 307.40749 -174.089054 
L 310.463177 -183.667638 
L 313.394107 -174.615273 
L 316.210069 -174.790097 
L 318.919742 -174.881005 
L 321.530859 -181.083746 
L 324.05034 -191.637845 
L 326.484397 -195.223477 
L 328.838635 -182.866946 
L 331.118122 -188.255009 
L 333.32746 -194.214745 
L 335.470837 -195.838856 
L 337.552079 -194.33887 
L 339.574687 -196.055637 
L 341.541873 -196.158783 
L 343.456595 -196.407033 
L 345.321578 -196.485703 
L 347.139342 -196.543395 
L 348.912217 -196.588849 
L 350.642369 -205.842261 
L 352.331807 -206.366732 
L 353.982404 -207.354048 
L 355.595906 -208.753074 
L 357.173944 -209.162161 
L 358.718042 -210.195369 
L 360.229631 -210.333479 
L 361.710051 -210.475086 
L 363.160561 -232.092022 
L 364.582347 -231.615628 
L 365.976523 -224.548385 
L 367.344142 -224.740691 
L 368.686196 -222.342111 
L 370.003624 -224.973206 
L 371.297313 -226.079839 
L 372.568104 -229.652359 
L 373.816794 -232.756352 
L 375.044136 -238.382175 
L 376.250851 -239.294754 
L 377.437619 -239.602443 
L 378.605089 -239.452095 
L 379.753878 -239.604192 
L 380.884576 -244.563937 
L 381.997743 -244.646104 
L 383.093914 -244.869004 
L 384.1736 -241.022011 
L 385.237291 -241.265016 
L 386.285453 -241.427602 
L 387.318533 -241.542985 
L 388.336959 -244.207297 
L 389.341141 -242.976539 
L 390.331471 -247.694153 
L 391.308327 -249.979971 
L 392.272071 -250.969473 
L 393.223049 -253.525394 
L 394.161596 -251.362826 
L 395.088032 -256.009637 
L 396.002666 -256.305089 
L 396.905795 -256.322571 
L 397.797705 -256.579562 
L 398.678671 -256.728162 
L 399.548958 -258.065562 
L 400.408823 -252.774526 
L 401.258511 -259.888972 
L 402.098261 -257.035851 
L 402.928303 -261.722391 
L 403.748858 -257.303331 
L 404.560142 -257.679202 
L 405.36236 -265.59423 
L 406.155714 -263.655546 
L 406.940398 -269.221055 
L 406.940398 -291.57225 
L 406.940398 -291.57225 
L 406.155714 -288.726122 
L 405.36236 -288.643955 
L 404.560142 -288.63871 
L 403.748858 -285.374754 
L 402.928303 -288.355496 
L 402.098261 -288.035569 
L 401.258511 -284.727907 
L 400.408823 -284.55505 
L 399.548958 -287.404456 
L 398.678671 -285.206049 
L 397.797705 -287.355505 
L 396.905795 -284.255883 
L 396.002666 -280.726195 
L 395.088032 -279.944733 
L 394.161596 -279.691239 
L 393.223049 -279.526905 
L 392.272071 -284.899234 
L 391.308327 -282.896149 
L 390.331471 -282.771631 
L 389.341141 -278.962924 
L 388.336959 -275.25072 
L 387.318533 -274.783941 
L 386.285453 -272.170329 
L 385.237291 -271.64848 
L 384.1736 -262.409928 
L 383.093914 -266.874922 
L 381.997743 -266.736812 
L 380.884576 -270.126641 
L 379.753878 -262.191399 
L 378.605089 -257.577804 
L 377.437619 -262.079512 
L 376.250851 -261.787556 
L 375.044136 -256.869769 
L 373.816794 -261.616229 
L 372.568104 -260.955396 
L 371.297313 -256.22467 
L 370.003624 -255.862785 
L 368.686196 -255.700199 
L 367.344142 -255.240413 
L 365.976523 -257.9292 
L 364.582347 -252.925749 
L 363.160561 -257.345289 
L 361.710051 -253.154768 
L 360.229631 -252.831344 
L 358.718042 -250.701993 
L 357.173944 -245.244001 
L 355.595906 -248.654809 
L 353.982404 -244.861137 
L 352.331807 -244.436316 
L 350.642369 -241.817458 
L 348.912217 -237.055264 
L 347.139342 -236.798273 
L 345.321578 -242.7178 
L 343.456595 -236.569254 
L 341.541873 -236.334991 
L 339.574687 -236.300026 
L 337.552079 -235.903176 
L 335.470837 -235.714367 
L 333.32746 -235.167169 
L 331.118122 -226.353438 
L 328.838635 -221.473238 
L 326.484397 -225.633362 
L 324.05034 -219.99423 
L 321.530859 -217.534463 
L 318.919742 -217.391981 
L 316.210069 -216.821182 
L 313.394107 -212.092248 
L 310.463177 -215.40686 
L 307.40749 -210.279284 
L 304.21595 -208.878357 
L 300.875915 -207.018824 
L 297.372888 -206.917426 
L 293.690141 -202.76871 
L 289.808233 -202.436698 
L 285.704383 -202.163973 
L 281.351668 -201.733907 
L 276.717943 -194.590616 
L 271.764406 -195.066136 
L 266.443615 -191.42019 
L 260.696723 -190.195551 
L 254.449496 -188.017249 
L 247.606434 -186.567961 
L 240.041779 -175.912464 
L 231.585214 -171.545371 
L 221.997952 -162.34965 
L 210.930269 -158.264023 
L 197.83998 -147.910971 
L 181.81876 -131.046614 
L 161.163816 -118.399002 
L 132.052306 -102.075724 
L 82.285852 -72.495573 
z
" id="mf4f1d07f50" style="stroke:#1f77b4;stroke-opacity:0.2;"/>
    </defs>
    <g clip-path="url(#p2351859ebe)">
     <use style="fill:#1f77b4;fill-opacity:0.2;stroke:#1f77b4;stroke-opacity:0.2;" x="0" xlink:href="#mf4f1d07f50" y="325.986375"/>
    </g>
   </g>
   <g id="matplotlib.axis_1">
    <g id="xtick_1">
     <g id="line2d_1">
      <defs>
       <path d="M 0 0 
L 0 3.5 
" id="mcc4eaf245e" style="stroke:#000000;stroke-width:0.8;"/>
      </defs>
      <g>
       <use style="stroke:#000000;stroke-width:0.8;" x="82.285852" xlink:href="#mcc4eaf245e" y="288.430125"/>
      </g>
     </g>
     <g id="text_1">
      <!-- 14m -->
      <g transform="translate(71.05304 303.028562)scale(0.1 -0.1)">
       <defs>
        <path d="M 794 531 
L 1825 531 
L 1825 4091 
L 703 3866 
L 703 4441 
L 1819 4666 
L 2450 4666 
L 2450 531 
L 3481 531 
L 3481 0 
L 794 0 
L 794 531 
z
" id="DejaVuSans-31" transform="scale(0.015625)"/>
        <path d="M 2419 4116 
L 825 1625 
L 2419 1625 
L 2419 4116 
z
M 2253 4666 
L 3047 4666 
L 3047 1625 
L 3713 1625 
L 3713 1100 
L 3047 1100 
L 3047 0 
L 2419 0 
L 2419 1100 
L 313 1100 
L 313 1709 
L 2253 4666 
z
" id="DejaVuSans-34" transform="scale(0.015625)"/>
        <path d="M 3328 2828 
Q 3544 3216 3844 3400 
Q 4144 3584 4550 3584 
Q 5097 3584 5394 3201 
Q 5691 2819 5691 2113 
L 5691 0 
L 5113 0 
L 5113 2094 
Q 5113 2597 4934 2840 
Q 4756 3084 4391 3084 
Q 3944 3084 3684 2787 
Q 3425 2491 3425 1978 
L 3425 0 
L 2847 0 
L 2847 2094 
Q 2847 2600 2669 2842 
Q 2491 3084 2119 3084 
Q 1678 3084 1418 2786 
Q 1159 2488 1159 1978 
L 1159 0 
L 581 0 
L 581 3500 
L 1159 3500 
L 1159 2956 
Q 1356 3278 1631 3431 
Q 1906 3584 2284 3584 
Q 2666 3584 2933 3390 
Q 3200 3197 3328 2828 
z
" id="DejaVuSans-6d" transform="scale(0.015625)"/>
       </defs>
       <use xlink:href="#DejaVuSans-31"/>
       <use x="63.623047" xlink:href="#DejaVuSans-34"/>
       <use x="127.246094" xlink:href="#DejaVuSans-6d"/>
      </g>
     </g>
    </g>
    <g id="xtick_2">
     <g id="line2d_2">
      <g>
       <use style="stroke:#000000;stroke-width:0.8;" x="147.216935" xlink:href="#mcc4eaf245e" y="288.430125"/>
      </g>
     </g>
     <g id="text_2">
      <!-- 37m -->
      <g transform="translate(135.984122 303.028562)scale(0.1 -0.1)">
       <defs>
        <path d="M 2597 2516 
Q 3050 2419 3304 2112 
Q 3559 1806 3559 1356 
Q 3559 666 3084 287 
Q 2609 -91 1734 -91 
Q 1441 -91 1130 -33 
Q 819 25 488 141 
L 488 750 
Q 750 597 1062 519 
Q 1375 441 1716 441 
Q 2309 441 2620 675 
Q 2931 909 2931 1356 
Q 2931 1769 2642 2001 
Q 2353 2234 1838 2234 
L 1294 2234 
L 1294 2753 
L 1863 2753 
Q 2328 2753 2575 2939 
Q 2822 3125 2822 3475 
Q 2822 3834 2567 4026 
Q 2313 4219 1838 4219 
Q 1578 4219 1281 4162 
Q 984 4106 628 3988 
L 628 4550 
Q 988 4650 1302 4700 
Q 1616 4750 1894 4750 
Q 2613 4750 3031 4423 
Q 3450 4097 3450 3541 
Q 3450 3153 3228 2886 
Q 3006 2619 2597 2516 
z
" id="DejaVuSans-33" transform="scale(0.015625)"/>
        <path d="M 525 4666 
L 3525 4666 
L 3525 4397 
L 1831 0 
L 1172 0 
L 2766 4134 
L 525 4134 
L 525 4666 
z
" id="DejaVuSans-37" transform="scale(0.015625)"/>
       </defs>
       <use xlink:href="#DejaVuSans-33"/>
       <use x="63.623047" xlink:href="#DejaVuSans-37"/>
       <use x="127.246094" xlink:href="#DejaVuSans-6d"/>
      </g>
     </g>
    </g>
    <g id="xtick_3">
     <g id="line2d_3">
      <g>
       <use style="stroke:#000000;stroke-width:0.8;" x="212.148017" xlink:href="#mcc4eaf245e" y="288.430125"/>
      </g>
     </g>
     <g id="text_3">
      <!-- 1h:31m -->
      <g transform="translate(192.88083 303.028562)scale(0.1 -0.1)">
       <defs>
        <path d="M 3513 2113 
L 3513 0 
L 2938 0 
L 2938 2094 
Q 2938 2591 2744 2837 
Q 2550 3084 2163 3084 
Q 1697 3084 1428 2787 
Q 1159 2491 1159 1978 
L 1159 0 
L 581 0 
L 581 4863 
L 1159 4863 
L 1159 2956 
Q 1366 3272 1645 3428 
Q 1925 3584 2291 3584 
Q 2894 3584 3203 3211 
Q 3513 2838 3513 2113 
z
" id="DejaVuSans-68" transform="scale(0.015625)"/>
        <path d="M 750 794 
L 1409 794 
L 1409 0 
L 750 0 
L 750 794 
z
M 750 3309 
L 1409 3309 
L 1409 2516 
L 750 2516 
L 750 3309 
z
" id="DejaVuSans-3a" transform="scale(0.015625)"/>
       </defs>
       <use xlink:href="#DejaVuSans-31"/>
       <use x="63.623047" xlink:href="#DejaVuSans-68"/>
       <use x="127.001953" xlink:href="#DejaVuSans-3a"/>
       <use x="160.693359" xlink:href="#DejaVuSans-33"/>
       <use x="224.316406" xlink:href="#DejaVuSans-31"/>
       <use x="287.939453" xlink:href="#DejaVuSans-6d"/>
      </g>
     </g>
    </g>
    <g id="xtick_4">
     <g id="line2d_4">
      <g>
       <use style="stroke:#000000;stroke-width:0.8;" x="277.0791" xlink:href="#mcc4eaf245e" y="288.430125"/>
      </g>
     </g>
     <g id="text_4">
      <!-- 3h:46m -->
      <g transform="translate(257.811912 303.028562)scale(0.1 -0.1)">
       <defs>
        <path d="M 2113 2584 
Q 1688 2584 1439 2293 
Q 1191 2003 1191 1497 
Q 1191 994 1439 701 
Q 1688 409 2113 409 
Q 2538 409 2786 701 
Q 3034 994 3034 1497 
Q 3034 2003 2786 2293 
Q 2538 2584 2113 2584 
z
M 3366 4563 
L 3366 3988 
Q 3128 4100 2886 4159 
Q 2644 4219 2406 4219 
Q 1781 4219 1451 3797 
Q 1122 3375 1075 2522 
Q 1259 2794 1537 2939 
Q 1816 3084 2150 3084 
Q 2853 3084 3261 2657 
Q 3669 2231 3669 1497 
Q 3669 778 3244 343 
Q 2819 -91 2113 -91 
Q 1303 -91 875 529 
Q 447 1150 447 2328 
Q 447 3434 972 4092 
Q 1497 4750 2381 4750 
Q 2619 4750 2861 4703 
Q 3103 4656 3366 4563 
z
" id="DejaVuSans-36" transform="scale(0.015625)"/>
       </defs>
       <use xlink:href="#DejaVuSans-33"/>
       <use x="63.623047" xlink:href="#DejaVuSans-68"/>
       <use x="127.001953" xlink:href="#DejaVuSans-3a"/>
       <use x="160.693359" xlink:href="#DejaVuSans-34"/>
       <use x="224.316406" xlink:href="#DejaVuSans-36"/>
       <use x="287.939453" xlink:href="#DejaVuSans-6d"/>
      </g>
     </g>
    </g>
    <g id="xtick_5">
     <g id="line2d_5">
      <g>
       <use style="stroke:#000000;stroke-width:0.8;" x="342.010182" xlink:href="#mcc4eaf245e" y="288.430125"/>
      </g>
     </g>
     <g id="text_5">
      <!-- 9h:18m -->
      <g transform="translate(322.742995 303.028562)scale(0.1 -0.1)">
       <defs>
        <path d="M 703 97 
L 703 672 
Q 941 559 1184 500 
Q 1428 441 1663 441 
Q 2288 441 2617 861 
Q 2947 1281 2994 2138 
Q 2813 1869 2534 1725 
Q 2256 1581 1919 1581 
Q 1219 1581 811 2004 
Q 403 2428 403 3163 
Q 403 3881 828 4315 
Q 1253 4750 1959 4750 
Q 2769 4750 3195 4129 
Q 3622 3509 3622 2328 
Q 3622 1225 3098 567 
Q 2575 -91 1691 -91 
Q 1453 -91 1209 -44 
Q 966 3 703 97 
z
M 1959 2075 
Q 2384 2075 2632 2365 
Q 2881 2656 2881 3163 
Q 2881 3666 2632 3958 
Q 2384 4250 1959 4250 
Q 1534 4250 1286 3958 
Q 1038 3666 1038 3163 
Q 1038 2656 1286 2365 
Q 1534 2075 1959 2075 
z
" id="DejaVuSans-39" transform="scale(0.015625)"/>
        <path d="M 2034 2216 
Q 1584 2216 1326 1975 
Q 1069 1734 1069 1313 
Q 1069 891 1326 650 
Q 1584 409 2034 409 
Q 2484 409 2743 651 
Q 3003 894 3003 1313 
Q 3003 1734 2745 1975 
Q 2488 2216 2034 2216 
z
M 1403 2484 
Q 997 2584 770 2862 
Q 544 3141 544 3541 
Q 544 4100 942 4425 
Q 1341 4750 2034 4750 
Q 2731 4750 3128 4425 
Q 3525 4100 3525 3541 
Q 3525 3141 3298 2862 
Q 3072 2584 2669 2484 
Q 3125 2378 3379 2068 
Q 3634 1759 3634 1313 
Q 3634 634 3220 271 
Q 2806 -91 2034 -91 
Q 1263 -91 848 271 
Q 434 634 434 1313 
Q 434 1759 690 2068 
Q 947 2378 1403 2484 
z
M 1172 3481 
Q 1172 3119 1398 2916 
Q 1625 2713 2034 2713 
Q 2441 2713 2670 2916 
Q 2900 3119 2900 3481 
Q 2900 3844 2670 4047 
Q 2441 4250 2034 4250 
Q 1625 4250 1398 4047 
Q 1172 3844 1172 3481 
z
" id="DejaVuSans-38" transform="scale(0.015625)"/>
       </defs>
       <use xlink:href="#DejaVuSans-39"/>
       <use x="63.623047" xlink:href="#DejaVuSans-68"/>
       <use x="127.001953" xlink:href="#DejaVuSans-3a"/>
       <use x="160.693359" xlink:href="#DejaVuSans-31"/>
       <use x="224.316406" xlink:href="#DejaVuSans-38"/>
       <use x="287.939453" xlink:href="#DejaVuSans-6d"/>
      </g>
     </g>
    </g>
    <g id="xtick_6">
     <g id="line2d_6">
      <g>
       <use style="stroke:#000000;stroke-width:0.8;" x="406.941265" xlink:href="#mcc4eaf245e" y="288.430125"/>
      </g>
     </g>
     <g id="text_6">
      <!-- 23h -->
      <g transform="translate(397.410015 303.028562)scale(0.1 -0.1)">
       <defs>
        <path d="M 1228 531 
L 3431 531 
L 3431 0 
L 469 0 
L 469 531 
Q 828 903 1448 1529 
Q 2069 2156 2228 2338 
Q 2531 2678 2651 2914 
Q 2772 3150 2772 3378 
Q 2772 3750 2511 3984 
Q 2250 4219 1831 4219 
Q 1534 4219 1204 4116 
Q 875 4013 500 3803 
L 500 4441 
Q 881 4594 1212 4672 
Q 1544 4750 1819 4750 
Q 2544 4750 2975 4387 
Q 3406 4025 3406 3419 
Q 3406 3131 3298 2873 
Q 3191 2616 2906 2266 
Q 2828 2175 2409 1742 
Q 1991 1309 1228 531 
z
" id="DejaVuSans-32" transform="scale(0.015625)"/>
       </defs>
       <use xlink:href="#DejaVuSans-32"/>
       <use x="63.623047" xlink:href="#DejaVuSans-33"/>
       <use x="127.246094" xlink:href="#DejaVuSans-68"/>
      </g>
     </g>
    </g>
    <g id="xtick_7">
     <g id="line2d_7">
      <defs>
       <path d="M 0 0 
L 0 2 
" id="m6b3b5b1b38" style="stroke:#000000;stroke-width:0.6;"/>
      </defs>
      <g>
       <use style="stroke:#000000;stroke-width:0.6;" x="73.829288" xlink:href="#m6b3b5b1b38" y="288.430125"/>
      </g>
     </g>
    </g>
    <g id="xtick_8">
     <g id="line2d_8">
      <g>
       <use style="stroke:#000000;stroke-width:0.6;" x="139.616961" xlink:href="#m6b3b5b1b38" y="288.430125"/>
      </g>
     </g>
    </g>
    <g id="xtick_9">
     <g id="line2d_9">
      <g>
       <use style="stroke:#000000;stroke-width:0.6;" x="168.72847" xlink:href="#m6b3b5b1b38" y="288.430125"/>
      </g>
     </g>
    </g>
    <g id="xtick_10">
     <g id="line2d_10">
      <g>
       <use style="stroke:#000000;stroke-width:0.6;" x="189.383415" xlink:href="#m6b3b5b1b38" y="288.430125"/>
      </g>
     </g>
    </g>
    <g id="xtick_11">
     <g id="line2d_11">
      <g>
       <use style="stroke:#000000;stroke-width:0.6;" x="205.404635" xlink:href="#m6b3b5b1b38" y="288.430125"/>
      </g>
     </g>
    </g>
    <g id="xtick_12">
     <g id="line2d_12">
      <g>
       <use style="stroke:#000000;stroke-width:0.6;" x="218.494924" xlink:href="#m6b3b5b1b38" y="288.430125"/>
      </g>
     </g>
    </g>
    <g id="xtick_13">
     <g id="line2d_13">
      <g>
       <use style="stroke:#000000;stroke-width:0.6;" x="229.562607" xlink:href="#m6b3b5b1b38" y="288.430125"/>
      </g>
     </g>
    </g>
    <g id="xtick_14">
     <g id="line2d_14">
      <g>
       <use style="stroke:#000000;stroke-width:0.6;" x="239.149869" xlink:href="#m6b3b5b1b38" y="288.430125"/>
      </g>
     </g>
    </g>
    <g id="xtick_15">
     <g id="line2d_15">
      <g>
       <use style="stroke:#000000;stroke-width:0.6;" x="247.606434" xlink:href="#m6b3b5b1b38" y="288.430125"/>
      </g>
     </g>
    </g>
    <g id="xtick_16">
     <g id="line2d_16">
      <g>
       <use style="stroke:#000000;stroke-width:0.6;" x="304.937543" xlink:href="#m6b3b5b1b38" y="288.430125"/>
      </g>
     </g>
    </g>
    <g id="xtick_17">
     <g id="line2d_17">
      <g>
       <use style="stroke:#000000;stroke-width:0.6;" x="334.049052" xlink:href="#m6b3b5b1b38" y="288.430125"/>
      </g>
     </g>
    </g>
    <g id="xtick_18">
     <g id="line2d_18">
      <g>
       <use style="stroke:#000000;stroke-width:0.6;" x="354.703996" xlink:href="#m6b3b5b1b38" y="288.430125"/>
      </g>
     </g>
    </g>
    <g id="xtick_19">
     <g id="line2d_19">
      <g>
       <use style="stroke:#000000;stroke-width:0.6;" x="370.725216" xlink:href="#m6b3b5b1b38" y="288.430125"/>
      </g>
     </g>
    </g>
    <g id="xtick_20">
     <g id="line2d_20">
      <g>
       <use style="stroke:#000000;stroke-width:0.6;" x="383.815506" xlink:href="#m6b3b5b1b38" y="288.430125"/>
      </g>
     </g>
    </g>
    <g id="xtick_21">
     <g id="line2d_21">
      <g>
       <use style="stroke:#000000;stroke-width:0.6;" x="394.883188" xlink:href="#m6b3b5b1b38" y="288.430125"/>
      </g>
     </g>
    </g>
    <g id="xtick_22">
     <g id="line2d_22">
      <g>
       <use style="stroke:#000000;stroke-width:0.6;" x="404.47045" xlink:href="#m6b3b5b1b38" y="288.430125"/>
      </g>
     </g>
    </g>
    <g id="xtick_23">
     <g id="line2d_23">
      <g>
       <use style="stroke:#000000;stroke-width:0.6;" x="412.927015" xlink:href="#m6b3b5b1b38" y="288.430125"/>
      </g>
     </g>
    </g>
    <g id="text_7">
     <!-- Time (hour:minute) -->
     <g transform="translate(196.206094 316.706687)scale(0.1 -0.1)">
      <defs>
       <path d="M -19 4666 
L 3928 4666 
L 3928 4134 
L 2272 4134 
L 2272 0 
L 1638 0 
L 1638 4134 
L -19 4134 
L -19 4666 
z
" id="DejaVuSans-54" transform="scale(0.015625)"/>
       <path d="M 603 3500 
L 1178 3500 
L 1178 0 
L 603 0 
L 603 3500 
z
M 603 4863 
L 1178 4863 
L 1178 4134 
L 603 4134 
L 603 4863 
z
" id="DejaVuSans-69" transform="scale(0.015625)"/>
       <path d="M 3597 1894 
L 3597 1613 
L 953 1613 
Q 991 1019 1311 708 
Q 1631 397 2203 397 
Q 2534 397 2845 478 
Q 3156 559 3463 722 
L 3463 178 
Q 3153 47 2828 -22 
Q 2503 -91 2169 -91 
Q 1331 -91 842 396 
Q 353 884 353 1716 
Q 353 2575 817 3079 
Q 1281 3584 2069 3584 
Q 2775 3584 3186 3129 
Q 3597 2675 3597 1894 
z
M 3022 2063 
Q 3016 2534 2758 2815 
Q 2500 3097 2075 3097 
Q 1594 3097 1305 2825 
Q 1016 2553 972 2059 
L 3022 2063 
z
" id="DejaVuSans-65" transform="scale(0.015625)"/>
       <path id="DejaVuSans-20" transform="scale(0.015625)"/>
       <path d="M 1984 4856 
Q 1566 4138 1362 3434 
Q 1159 2731 1159 2009 
Q 1159 1288 1364 580 
Q 1569 -128 1984 -844 
L 1484 -844 
Q 1016 -109 783 600 
Q 550 1309 550 2009 
Q 550 2706 781 3412 
Q 1013 4119 1484 4856 
L 1984 4856 
z
" id="DejaVuSans-28" transform="scale(0.015625)"/>
       <path d="M 1959 3097 
Q 1497 3097 1228 2736 
Q 959 2375 959 1747 
Q 959 1119 1226 758 
Q 1494 397 1959 397 
Q 2419 397 2687 759 
Q 2956 1122 2956 1747 
Q 2956 2369 2687 2733 
Q 2419 3097 1959 3097 
z
M 1959 3584 
Q 2709 3584 3137 3096 
Q 3566 2609 3566 1747 
Q 3566 888 3137 398 
Q 2709 -91 1959 -91 
Q 1206 -91 779 398 
Q 353 888 353 1747 
Q 353 2609 779 3096 
Q 1206 3584 1959 3584 
z
" id="DejaVuSans-6f" transform="scale(0.015625)"/>
       <path d="M 544 1381 
L 544 3500 
L 1119 3500 
L 1119 1403 
Q 1119 906 1312 657 
Q 1506 409 1894 409 
Q 2359 409 2629 706 
Q 2900 1003 2900 1516 
L 2900 3500 
L 3475 3500 
L 3475 0 
L 2900 0 
L 2900 538 
Q 2691 219 2414 64 
Q 2138 -91 1772 -91 
Q 1169 -91 856 284 
Q 544 659 544 1381 
z
M 1991 3584 
L 1991 3584 
z
" id="DejaVuSans-75" transform="scale(0.015625)"/>
       <path d="M 2631 2963 
Q 2534 3019 2420 3045 
Q 2306 3072 2169 3072 
Q 1681 3072 1420 2755 
Q 1159 2438 1159 1844 
L 1159 0 
L 581 0 
L 581 3500 
L 1159 3500 
L 1159 2956 
Q 1341 3275 1631 3429 
Q 1922 3584 2338 3584 
Q 2397 3584 2469 3576 
Q 2541 3569 2628 3553 
L 2631 2963 
z
" id="DejaVuSans-72" transform="scale(0.015625)"/>
       <path d="M 3513 2113 
L 3513 0 
L 2938 0 
L 2938 2094 
Q 2938 2591 2744 2837 
Q 2550 3084 2163 3084 
Q 1697 3084 1428 2787 
Q 1159 2491 1159 1978 
L 1159 0 
L 581 0 
L 581 3500 
L 1159 3500 
L 1159 2956 
Q 1366 3272 1645 3428 
Q 1925 3584 2291 3584 
Q 2894 3584 3203 3211 
Q 3513 2838 3513 2113 
z
" id="DejaVuSans-6e" transform="scale(0.015625)"/>
       <path d="M 1172 4494 
L 1172 3500 
L 2356 3500 
L 2356 3053 
L 1172 3053 
L 1172 1153 
Q 1172 725 1289 603 
Q 1406 481 1766 481 
L 2356 481 
L 2356 0 
L 1766 0 
Q 1100 0 847 248 
Q 594 497 594 1153 
L 594 3053 
L 172 3053 
L 172 3500 
L 594 3500 
L 594 4494 
L 1172 4494 
z
" id="DejaVuSans-74" transform="scale(0.015625)"/>
       <path d="M 513 4856 
L 1013 4856 
Q 1481 4119 1714 3412 
Q 1947 2706 1947 2009 
Q 1947 1309 1714 600 
Q 1481 -109 1013 -844 
L 513 -844 
Q 928 -128 1133 580 
Q 1338 1288 1338 2009 
Q 1338 2731 1133 3434 
Q 928 4138 513 4856 
z
" id="DejaVuSans-29" transform="scale(0.015625)"/>
      </defs>
      <use xlink:href="#DejaVuSans-54"/>
      <use x="57.958984" xlink:href="#DejaVuSans-69"/>
      <use x="85.742188" xlink:href="#DejaVuSans-6d"/>
      <use x="183.154297" xlink:href="#DejaVuSans-65"/>
      <use x="244.677734" xlink:href="#DejaVuSans-20"/>
      <use x="276.464844" xlink:href="#DejaVuSans-28"/>
      <use x="315.478516" xlink:href="#DejaVuSans-68"/>
      <use x="378.857422" xlink:href="#DejaVuSans-6f"/>
      <use x="440.039062" xlink:href="#DejaVuSans-75"/>
      <use x="503.417969" xlink:href="#DejaVuSans-72"/>
      <use x="542.78125" xlink:href="#DejaVuSans-3a"/>
      <use x="576.472656" xlink:href="#DejaVuSans-6d"/>
      <use x="673.884766" xlink:href="#DejaVuSans-69"/>
      <use x="701.667969" xlink:href="#DejaVuSans-6e"/>
      <use x="765.046875" xlink:href="#DejaVuSans-75"/>
      <use x="828.425781" xlink:href="#DejaVuSans-74"/>
      <use x="867.634766" xlink:href="#DejaVuSans-65"/>
      <use x="929.158203" xlink:href="#DejaVuSans-29"/>
     </g>
    </g>
   </g>
   <g id="matplotlib.axis_2">
    <g id="ytick_1">
     <g id="line2d_24">
      <defs>
       <path d="M 0 0 
L -3.5 0 
" id="mb055c7f35a" style="stroke:#000000;stroke-width:0.8;"/>
      </defs>
      <g>
       <use style="stroke:#000000;stroke-width:0.8;" x="66.053125" xlink:href="#mb055c7f35a" y="259.569418"/>
      </g>
     </g>
     <g id="text_8">
      <!-- 360000 -->
      <g transform="translate(20.878125 263.368636)scale(0.1 -0.1)">
       <defs>
        <path d="M 2034 4250 
Q 1547 4250 1301 3770 
Q 1056 3291 1056 2328 
Q 1056 1369 1301 889 
Q 1547 409 2034 409 
Q 2525 409 2770 889 
Q 3016 1369 3016 2328 
Q 3016 3291 2770 3770 
Q 2525 4250 2034 4250 
z
M 2034 4750 
Q 2819 4750 3233 4129 
Q 3647 3509 3647 2328 
Q 3647 1150 3233 529 
Q 2819 -91 2034 -91 
Q 1250 -91 836 529 
Q 422 1150 422 2328 
Q 422 3509 836 4129 
Q 1250 4750 2034 4750 
z
" id="DejaVuSans-30" transform="scale(0.015625)"/>
       </defs>
       <use xlink:href="#DejaVuSans-33"/>
       <use x="63.623047" xlink:href="#DejaVuSans-36"/>
       <use x="127.246094" xlink:href="#DejaVuSans-30"/>
       <use x="190.869141" xlink:href="#DejaVuSans-30"/>
       <use x="254.492188" xlink:href="#DejaVuSans-30"/>
       <use x="318.115234" xlink:href="#DejaVuSans-30"/>
      </g>
     </g>
    </g>
    <g id="ytick_2">
     <g id="line2d_25">
      <g>
       <use style="stroke:#000000;stroke-width:0.8;" x="66.053125" xlink:href="#mb055c7f35a" y="224.604701"/>
      </g>
     </g>
     <g id="text_9">
      <!-- 380000 -->
      <g transform="translate(20.878125 228.40392)scale(0.1 -0.1)">
       <use xlink:href="#DejaVuSans-33"/>
       <use x="63.623047" xlink:href="#DejaVuSans-38"/>
       <use x="127.246094" xlink:href="#DejaVuSans-30"/>
       <use x="190.869141" xlink:href="#DejaVuSans-30"/>
       <use x="254.492188" xlink:href="#DejaVuSans-30"/>
       <use x="318.115234" xlink:href="#DejaVuSans-30"/>
      </g>
     </g>
    </g>
    <g id="ytick_3">
     <g id="line2d_26">
      <g>
       <use style="stroke:#000000;stroke-width:0.8;" x="66.053125" xlink:href="#mb055c7f35a" y="189.639984"/>
      </g>
     </g>
     <g id="text_10">
      <!-- 400000 -->
      <g transform="translate(20.878125 193.439203)scale(0.1 -0.1)">
       <use xlink:href="#DejaVuSans-34"/>
       <use x="63.623047" xlink:href="#DejaVuSans-30"/>
       <use x="127.246094" xlink:href="#DejaVuSans-30"/>
       <use x="190.869141" xlink:href="#DejaVuSans-30"/>
       <use x="254.492188" xlink:href="#DejaVuSans-30"/>
       <use x="318.115234" xlink:href="#DejaVuSans-30"/>
      </g>
     </g>
    </g>
    <g id="ytick_4">
     <g id="line2d_27">
      <g>
       <use style="stroke:#000000;stroke-width:0.8;" x="66.053125" xlink:href="#mb055c7f35a" y="154.675268"/>
      </g>
     </g>
     <g id="text_11">
      <!-- 420000 -->
      <g transform="translate(20.878125 158.474486)scale(0.1 -0.1)">
       <use xlink:href="#DejaVuSans-34"/>
       <use x="63.623047" xlink:href="#DejaVuSans-32"/>
       <use x="127.246094" xlink:href="#DejaVuSans-30"/>
       <use x="190.869141" xlink:href="#DejaVuSans-30"/>
       <use x="254.492188" xlink:href="#DejaVuSans-30"/>
       <use x="318.115234" xlink:href="#DejaVuSans-30"/>
      </g>
     </g>
    </g>
    <g id="ytick_5">
     <g id="line2d_28">
      <g>
       <use style="stroke:#000000;stroke-width:0.8;" x="66.053125" xlink:href="#mb055c7f35a" y="119.710551"/>
      </g>
     </g>
     <g id="text_12">
      <!-- 440000 -->
      <g transform="translate(20.878125 123.50977)scale(0.1 -0.1)">
       <use xlink:href="#DejaVuSans-34"/>
       <use x="63.623047" xlink:href="#DejaVuSans-34"/>
       <use x="127.246094" xlink:href="#DejaVuSans-30"/>
       <use x="190.869141" xlink:href="#DejaVuSans-30"/>
       <use x="254.492188" xlink:href="#DejaVuSans-30"/>
       <use x="318.115234" xlink:href="#DejaVuSans-30"/>
      </g>
     </g>
    </g>
    <g id="ytick_6">
     <g id="line2d_29">
      <g>
       <use style="stroke:#000000;stroke-width:0.8;" x="66.053125" xlink:href="#mb055c7f35a" y="84.745835"/>
      </g>
     </g>
     <g id="text_13">
      <!-- 460000 -->
      <g transform="translate(20.878125 88.545053)scale(0.1 -0.1)">
       <use xlink:href="#DejaVuSans-34"/>
       <use x="63.623047" xlink:href="#DejaVuSans-36"/>
       <use x="127.246094" xlink:href="#DejaVuSans-30"/>
       <use x="190.869141" xlink:href="#DejaVuSans-30"/>
       <use x="254.492188" xlink:href="#DejaVuSans-30"/>
       <use x="318.115234" xlink:href="#DejaVuSans-30"/>
      </g>
     </g>
    </g>
    <g id="ytick_7">
     <g id="line2d_30">
      <g>
       <use style="stroke:#000000;stroke-width:0.8;" x="66.053125" xlink:href="#mb055c7f35a" y="49.781118"/>
      </g>
     </g>
     <g id="text_14">
      <!-- 480000 -->
      <g transform="translate(20.878125 53.580337)scale(0.1 -0.1)">
       <use xlink:href="#DejaVuSans-34"/>
       <use x="63.623047" xlink:href="#DejaVuSans-38"/>
       <use x="127.246094" xlink:href="#DejaVuSans-30"/>
       <use x="190.869141" xlink:href="#DejaVuSans-30"/>
       <use x="254.492188" xlink:href="#DejaVuSans-30"/>
       <use x="318.115234" xlink:href="#DejaVuSans-30"/>
      </g>
     </g>
    </g>
    <g id="text_15">
     <!-- Code region coverage -->
     <g transform="translate(14.798438 210.379594)rotate(-90)scale(0.1 -0.1)">
      <defs>
       <path d="M 4122 4306 
L 4122 3641 
Q 3803 3938 3442 4084 
Q 3081 4231 2675 4231 
Q 1875 4231 1450 3742 
Q 1025 3253 1025 2328 
Q 1025 1406 1450 917 
Q 1875 428 2675 428 
Q 3081 428 3442 575 
Q 3803 722 4122 1019 
L 4122 359 
Q 3791 134 3420 21 
Q 3050 -91 2638 -91 
Q 1578 -91 968 557 
Q 359 1206 359 2328 
Q 359 3453 968 4101 
Q 1578 4750 2638 4750 
Q 3056 4750 3426 4639 
Q 3797 4528 4122 4306 
z
" id="DejaVuSans-43" transform="scale(0.015625)"/>
       <path d="M 2906 2969 
L 2906 4863 
L 3481 4863 
L 3481 0 
L 2906 0 
L 2906 525 
Q 2725 213 2448 61 
Q 2172 -91 1784 -91 
Q 1150 -91 751 415 
Q 353 922 353 1747 
Q 353 2572 751 3078 
Q 1150 3584 1784 3584 
Q 2172 3584 2448 3432 
Q 2725 3281 2906 2969 
z
M 947 1747 
Q 947 1113 1208 752 
Q 1469 391 1925 391 
Q 2381 391 2643 752 
Q 2906 1113 2906 1747 
Q 2906 2381 2643 2742 
Q 2381 3103 1925 3103 
Q 1469 3103 1208 2742 
Q 947 2381 947 1747 
z
" id="DejaVuSans-64" transform="scale(0.015625)"/>
       <path d="M 2906 1791 
Q 2906 2416 2648 2759 
Q 2391 3103 1925 3103 
Q 1463 3103 1205 2759 
Q 947 2416 947 1791 
Q 947 1169 1205 825 
Q 1463 481 1925 481 
Q 2391 481 2648 825 
Q 2906 1169 2906 1791 
z
M 3481 434 
Q 3481 -459 3084 -895 
Q 2688 -1331 1869 -1331 
Q 1566 -1331 1297 -1286 
Q 1028 -1241 775 -1147 
L 775 -588 
Q 1028 -725 1275 -790 
Q 1522 -856 1778 -856 
Q 2344 -856 2625 -561 
Q 2906 -266 2906 331 
L 2906 616 
Q 2728 306 2450 153 
Q 2172 0 1784 0 
Q 1141 0 747 490 
Q 353 981 353 1791 
Q 353 2603 747 3093 
Q 1141 3584 1784 3584 
Q 2172 3584 2450 3431 
Q 2728 3278 2906 2969 
L 2906 3500 
L 3481 3500 
L 3481 434 
z
" id="DejaVuSans-67" transform="scale(0.015625)"/>
       <path d="M 3122 3366 
L 3122 2828 
Q 2878 2963 2633 3030 
Q 2388 3097 2138 3097 
Q 1578 3097 1268 2742 
Q 959 2388 959 1747 
Q 959 1106 1268 751 
Q 1578 397 2138 397 
Q 2388 397 2633 464 
Q 2878 531 3122 666 
L 3122 134 
Q 2881 22 2623 -34 
Q 2366 -91 2075 -91 
Q 1284 -91 818 406 
Q 353 903 353 1747 
Q 353 2603 823 3093 
Q 1294 3584 2113 3584 
Q 2378 3584 2631 3529 
Q 2884 3475 3122 3366 
z
" id="DejaVuSans-63" transform="scale(0.015625)"/>
       <path d="M 191 3500 
L 800 3500 
L 1894 563 
L 2988 3500 
L 3597 3500 
L 2284 0 
L 1503 0 
L 191 3500 
z
" id="DejaVuSans-76" transform="scale(0.015625)"/>
       <path d="M 2194 1759 
Q 1497 1759 1228 1600 
Q 959 1441 959 1056 
Q 959 750 1161 570 
Q 1363 391 1709 391 
Q 2188 391 2477 730 
Q 2766 1069 2766 1631 
L 2766 1759 
L 2194 1759 
z
M 3341 1997 
L 3341 0 
L 2766 0 
L 2766 531 
Q 2569 213 2275 61 
Q 1981 -91 1556 -91 
Q 1019 -91 701 211 
Q 384 513 384 1019 
Q 384 1609 779 1909 
Q 1175 2209 1959 2209 
L 2766 2209 
L 2766 2266 
Q 2766 2663 2505 2880 
Q 2244 3097 1772 3097 
Q 1472 3097 1187 3025 
Q 903 2953 641 2809 
L 641 3341 
Q 956 3463 1253 3523 
Q 1550 3584 1831 3584 
Q 2591 3584 2966 3190 
Q 3341 2797 3341 1997 
z
" id="DejaVuSans-61" transform="scale(0.015625)"/>
      </defs>
      <use xlink:href="#DejaVuSans-43"/>
      <use x="69.824219" xlink:href="#DejaVuSans-6f"/>
      <use x="131.005859" xlink:href="#DejaVuSans-64"/>
      <use x="194.482422" xlink:href="#DejaVuSans-65"/>
      <use x="256.005859" xlink:href="#DejaVuSans-20"/>
      <use x="287.792969" xlink:href="#DejaVuSans-72"/>
      <use x="326.65625" xlink:href="#DejaVuSans-65"/>
      <use x="388.179688" xlink:href="#DejaVuSans-67"/>
      <use x="451.65625" xlink:href="#DejaVuSans-69"/>
      <use x="479.439453" xlink:href="#DejaVuSans-6f"/>
      <use x="540.621094" xlink:href="#DejaVuSans-6e"/>
      <use x="604" xlink:href="#DejaVuSans-20"/>
      <use x="635.787109" xlink:href="#DejaVuSans-63"/>
      <use x="690.767578" xlink:href="#DejaVuSans-6f"/>
      <use x="751.949219" xlink:href="#DejaVuSans-76"/>
      <use x="811.128906" xlink:href="#DejaVuSans-65"/>
      <use x="872.652344" xlink:href="#DejaVuSans-72"/>
      <use x="913.765625" xlink:href="#DejaVuSans-61"/>
      <use x="975.044922" xlink:href="#DejaVuSans-67"/>
      <use x="1038.521484" xlink:href="#DejaVuSans-65"/>
     </g>
    </g>
   </g>
   <g id="line2d_31">
    <path clip-path="url(#p2351859ebe)" d="M 82.285852 272.8158 
L 132.052306 246.627228 
L 161.163816 232.111626 
L 181.81876 217.790952 
L 197.83998 205.48949 
L 210.930269 195.128571 
L 221.997952 181.491457 
L 231.585214 172.905871 
L 240.041779 169.093843 
L 247.606434 162.688307 
L 254.449496 154.510934 
L 260.696723 148.117635 
L 266.443615 144.072217 
L 271.764406 140.851967 
L 276.717943 139.958619 
L 281.351668 137.415809 
L 285.704383 133.581054 
L 289.808233 129.298751 
L 293.690141 124.880084 
L 297.372888 121.46578 
L 300.875915 118.236788 
L 304.21595 117.151134 
L 307.40749 116.707082 
L 310.463177 113.831234 
L 313.394107 110.702766 
L 316.210069 107.303321 
L 318.919742 108.268348 
L 321.530859 104.268384 
L 324.05034 102.419625 
L 326.484397 99.319128 
L 328.838635 97.813897 
L 331.118122 96.308666 
L 333.32746 95.350633 
L 335.470837 94.155714 
L 337.552079 91.94507 
L 339.574687 92.193319 
L 341.541873 89.737048 
L 343.456595 88.683736 
L 345.321578 87.06924 
L 347.139342 84.527305 
L 348.912217 81.273838 
L 350.642369 81.575409 
L 352.331807 81.027337 
L 353.982404 79.446932 
L 355.595906 77.084191 
L 357.173944 75.095573 
L 358.718042 74.130547 
L 360.229631 73.861318 
L 361.710051 71.02568 
L 363.160561 69.728489 
L 364.582347 69.534435 
L 365.976523 68.898077 
L 367.344142 69.046677 
L 368.686196 65.961915 
L 370.003624 65.291466 
L 371.297313 64.093925 
L 372.568104 61.725065 
L 373.816794 61.484683 
L 375.044136 60.343085 
L 376.250851 59.626308 
L 377.437619 58.445375 
L 378.605089 57.491712 
L 379.753878 60.147282 
L 380.884576 59.15341 
L 381.997743 58.130692 
L 383.093914 55.01184 
L 384.1736 52.046832 
L 385.237291 52.059069 
L 386.285453 51.306454 
L 387.318533 51.655227 
L 388.336959 53.673565 
L 389.341141 51.595787 
L 390.331471 50.931457 
L 391.308327 51.685821 
L 392.272071 51.754002 
L 393.223049 48.10456 
L 394.161596 50.498769 
L 395.088032 51.761869 
L 396.002666 49.846677 
L 396.905795 47.039884 
L 397.797705 46.937612 
L 398.678671 46.712964 
L 399.548958 46.562616 
L 400.408823 46.434995 
L 401.258511 47.353692 
L 402.098261 46.938486 
L 402.928303 45.590597 
L 403.748858 45.501437 
L 404.560142 43.355477 
L 405.36236 45.398291 
L 406.155714 42.32227 
L 406.940398 44.545152 
" style="fill:none;stroke:#d62728;stroke-linecap:square;stroke-width:1.5;"/>
    <defs>
     <path d="M 0 -3 
L -3 3 
L 3 3 
z
" id="mc79cb13791" style="stroke:#ffffff;stroke-linejoin:miter;stroke-width:0.75;"/>
    </defs>
    <g clip-path="url(#p2351859ebe)">
     <use style="fill:#d62728;stroke:#ffffff;stroke-linejoin:miter;stroke-width:0.75;" x="82.285852" xlink:href="#mc79cb13791" y="272.8158"/>
     <use style="fill:#d62728;stroke:#ffffff;stroke-linejoin:miter;stroke-width:0.75;" x="132.052306" xlink:href="#mc79cb13791" y="246.627228"/>
     <use style="fill:#d62728;stroke:#ffffff;stroke-linejoin:miter;stroke-width:0.75;" x="161.163816" xlink:href="#mc79cb13791" y="232.111626"/>
     <use style="fill:#d62728;stroke:#ffffff;stroke-linejoin:miter;stroke-width:0.75;" x="181.81876" xlink:href="#mc79cb13791" y="217.790952"/>
     <use style="fill:#d62728;stroke:#ffffff;stroke-linejoin:miter;stroke-width:0.75;" x="197.83998" xlink:href="#mc79cb13791" y="205.48949"/>
     <use style="fill:#d62728;stroke:#ffffff;stroke-linejoin:miter;stroke-width:0.75;" x="210.930269" xlink:href="#mc79cb13791" y="195.128571"/>
     <use style="fill:#d62728;stroke:#ffffff;stroke-linejoin:miter;stroke-width:0.75;" x="221.997952" xlink:href="#mc79cb13791" y="181.491457"/>
     <use style="fill:#d62728;stroke:#ffffff;stroke-linejoin:miter;stroke-width:0.75;" x="231.585214" xlink:href="#mc79cb13791" y="172.905871"/>
     <use style="fill:#d62728;stroke:#ffffff;stroke-linejoin:miter;stroke-width:0.75;" x="240.041779" xlink:href="#mc79cb13791" y="169.093843"/>
     <use style="fill:#d62728;stroke:#ffffff;stroke-linejoin:miter;stroke-width:0.75;" x="247.606434" xlink:href="#mc79cb13791" y="162.688307"/>
     <use style="fill:#d62728;stroke:#ffffff;stroke-linejoin:miter;stroke-width:0.75;" x="254.449496" xlink:href="#mc79cb13791" y="154.510934"/>
     <use style="fill:#d62728;stroke:#ffffff;stroke-linejoin:miter;stroke-width:0.75;" x="260.696723" xlink:href="#mc79cb13791" y="148.117635"/>
     <use style="fill:#d62728;stroke:#ffffff;stroke-linejoin:miter;stroke-width:0.75;" x="266.443615" xlink:href="#mc79cb13791" y="144.072217"/>
     <use style="fill:#d62728;stroke:#ffffff;stroke-linejoin:miter;stroke-width:0.75;" x="271.764406" xlink:href="#mc79cb13791" y="140.851967"/>
     <use style="fill:#d62728;stroke:#ffffff;stroke-linejoin:miter;stroke-width:0.75;" x="276.717943" xlink:href="#mc79cb13791" y="139.958619"/>
     <use style="fill:#d62728;stroke:#ffffff;stroke-linejoin:miter;stroke-width:0.75;" x="281.351668" xlink:href="#mc79cb13791" y="137.415809"/>
     <use style="fill:#d62728;stroke:#ffffff;stroke-linejoin:miter;stroke-width:0.75;" x="285.704383" xlink:href="#mc79cb13791" y="133.581054"/>
     <use style="fill:#d62728;stroke:#ffffff;stroke-linejoin:miter;stroke-width:0.75;" x="289.808233" xlink:href="#mc79cb13791" y="129.298751"/>
     <use style="fill:#d62728;stroke:#ffffff;stroke-linejoin:miter;stroke-width:0.75;" x="293.690141" xlink:href="#mc79cb13791" y="124.880084"/>
     <use style="fill:#d62728;stroke:#ffffff;stroke-linejoin:miter;stroke-width:0.75;" x="297.372888" xlink:href="#mc79cb13791" y="121.46578"/>
     <use style="fill:#d62728;stroke:#ffffff;stroke-linejoin:miter;stroke-width:0.75;" x="300.875915" xlink:href="#mc79cb13791" y="118.236788"/>
     <use style="fill:#d62728;stroke:#ffffff;stroke-linejoin:miter;stroke-width:0.75;" x="304.21595" xlink:href="#mc79cb13791" y="117.151134"/>
     <use style="fill:#d62728;stroke:#ffffff;stroke-linejoin:miter;stroke-width:0.75;" x="307.40749" xlink:href="#mc79cb13791" y="116.707082"/>
     <use style="fill:#d62728;stroke:#ffffff;stroke-linejoin:miter;stroke-width:0.75;" x="310.463177" xlink:href="#mc79cb13791" y="113.831234"/>
     <use style="fill:#d62728;stroke:#ffffff;stroke-linejoin:miter;stroke-width:0.75;" x="313.394107" xlink:href="#mc79cb13791" y="110.702766"/>
     <use style="fill:#d62728;stroke:#ffffff;stroke-linejoin:miter;stroke-width:0.75;" x="316.210069" xlink:href="#mc79cb13791" y="107.303321"/>
     <use style="fill:#d62728;stroke:#ffffff;stroke-linejoin:miter;stroke-width:0.75;" x="318.919742" xlink:href="#mc79cb13791" y="108.268348"/>
     <use style="fill:#d62728;stroke:#ffffff;stroke-linejoin:miter;stroke-width:0.75;" x="321.530859" xlink:href="#mc79cb13791" y="104.268384"/>
     <use style="fill:#d62728;stroke:#ffffff;stroke-linejoin:miter;stroke-width:0.75;" x="324.05034" xlink:href="#mc79cb13791" y="102.419625"/>
     <use style="fill:#d62728;stroke:#ffffff;stroke-linejoin:miter;stroke-width:0.75;" x="326.484397" xlink:href="#mc79cb13791" y="99.319128"/>
     <use style="fill:#d62728;stroke:#ffffff;stroke-linejoin:miter;stroke-width:0.75;" x="328.838635" xlink:href="#mc79cb13791" y="97.813897"/>
     <use style="fill:#d62728;stroke:#ffffff;stroke-linejoin:miter;stroke-width:0.75;" x="331.118122" xlink:href="#mc79cb13791" y="96.308666"/>
     <use style="fill:#d62728;stroke:#ffffff;stroke-linejoin:miter;stroke-width:0.75;" x="333.32746" xlink:href="#mc79cb13791" y="95.350633"/>
     <use style="fill:#d62728;stroke:#ffffff;stroke-linejoin:miter;stroke-width:0.75;" x="335.470837" xlink:href="#mc79cb13791" y="94.155714"/>
     <use style="fill:#d62728;stroke:#ffffff;stroke-linejoin:miter;stroke-width:0.75;" x="337.552079" xlink:href="#mc79cb13791" y="91.94507"/>
     <use style="fill:#d62728;stroke:#ffffff;stroke-linejoin:miter;stroke-width:0.75;" x="339.574687" xlink:href="#mc79cb13791" y="92.193319"/>
     <use style="fill:#d62728;stroke:#ffffff;stroke-linejoin:miter;stroke-width:0.75;" x="341.541873" xlink:href="#mc79cb13791" y="89.737048"/>
     <use style="fill:#d62728;stroke:#ffffff;stroke-linejoin:miter;stroke-width:0.75;" x="343.456595" xlink:href="#mc79cb13791" y="88.683736"/>
     <use style="fill:#d62728;stroke:#ffffff;stroke-linejoin:miter;stroke-width:0.75;" x="345.321578" xlink:href="#mc79cb13791" y="87.06924"/>
     <use style="fill:#d62728;stroke:#ffffff;stroke-linejoin:miter;stroke-width:0.75;" x="347.139342" xlink:href="#mc79cb13791" y="84.527305"/>
     <use style="fill:#d62728;stroke:#ffffff;stroke-linejoin:miter;stroke-width:0.75;" x="348.912217" xlink:href="#mc79cb13791" y="81.273838"/>
     <use style="fill:#d62728;stroke:#ffffff;stroke-linejoin:miter;stroke-width:0.75;" x="350.642369" xlink:href="#mc79cb13791" y="81.575409"/>
     <use style="fill:#d62728;stroke:#ffffff;stroke-linejoin:miter;stroke-width:0.75;" x="352.331807" xlink:href="#mc79cb13791" y="81.027337"/>
     <use style="fill:#d62728;stroke:#ffffff;stroke-linejoin:miter;stroke-width:0.75;" x="353.982404" xlink:href="#mc79cb13791" y="79.446932"/>
     <use style="fill:#d62728;stroke:#ffffff;stroke-linejoin:miter;stroke-width:0.75;" x="355.595906" xlink:href="#mc79cb13791" y="77.084191"/>
     <use style="fill:#d62728;stroke:#ffffff;stroke-linejoin:miter;stroke-width:0.75;" x="357.173944" xlink:href="#mc79cb13791" y="75.095573"/>
     <use style="fill:#d62728;stroke:#ffffff;stroke-linejoin:miter;stroke-width:0.75;" x="358.718042" xlink:href="#mc79cb13791" y="74.130547"/>
     <use style="fill:#d62728;stroke:#ffffff;stroke-linejoin:miter;stroke-width:0.75;" x="360.229631" xlink:href="#mc79cb13791" y="73.861318"/>
     <use style="fill:#d62728;stroke:#ffffff;stroke-linejoin:miter;stroke-width:0.75;" x="361.710051" xlink:href="#mc79cb13791" y="71.02568"/>
     <use style="fill:#d62728;stroke:#ffffff;stroke-linejoin:miter;stroke-width:0.75;" x="363.160561" xlink:href="#mc79cb13791" y="69.728489"/>
     <use style="fill:#d62728;stroke:#ffffff;stroke-linejoin:miter;stroke-width:0.75;" x="364.582347" xlink:href="#mc79cb13791" y="69.534435"/>
     <use style="fill:#d62728;stroke:#ffffff;stroke-linejoin:miter;stroke-width:0.75;" x="365.976523" xlink:href="#mc79cb13791" y="68.898077"/>
     <use style="fill:#d62728;stroke:#ffffff;stroke-linejoin:miter;stroke-width:0.75;" x="367.344142" xlink:href="#mc79cb13791" y="69.046677"/>
     <use style="fill:#d62728;stroke:#ffffff;stroke-linejoin:miter;stroke-width:0.75;" x="368.686196" xlink:href="#mc79cb13791" y="65.961915"/>
     <use style="fill:#d62728;stroke:#ffffff;stroke-linejoin:miter;stroke-width:0.75;" x="370.003624" xlink:href="#mc79cb13791" y="65.291466"/>
     <use style="fill:#d62728;stroke:#ffffff;stroke-linejoin:miter;stroke-width:0.75;" x="371.297313" xlink:href="#mc79cb13791" y="64.093925"/>
     <use style="fill:#d62728;stroke:#ffffff;stroke-linejoin:miter;stroke-width:0.75;" x="372.568104" xlink:href="#mc79cb13791" y="61.725065"/>
     <use style="fill:#d62728;stroke:#ffffff;stroke-linejoin:miter;stroke-width:0.75;" x="373.816794" xlink:href="#mc79cb13791" y="61.484683"/>
     <use style="fill:#d62728;stroke:#ffffff;stroke-linejoin:miter;stroke-width:0.75;" x="375.044136" xlink:href="#mc79cb13791" y="60.343085"/>
     <use style="fill:#d62728;stroke:#ffffff;stroke-linejoin:miter;stroke-width:0.75;" x="376.250851" xlink:href="#mc79cb13791" y="59.626308"/>
     <use style="fill:#d62728;stroke:#ffffff;stroke-linejoin:miter;stroke-width:0.75;" x="377.437619" xlink:href="#mc79cb13791" y="58.445375"/>
     <use style="fill:#d62728;stroke:#ffffff;stroke-linejoin:miter;stroke-width:0.75;" x="378.605089" xlink:href="#mc79cb13791" y="57.491712"/>
     <use style="fill:#d62728;stroke:#ffffff;stroke-linejoin:miter;stroke-width:0.75;" x="379.753878" xlink:href="#mc79cb13791" y="60.147282"/>
     <use style="fill:#d62728;stroke:#ffffff;stroke-linejoin:miter;stroke-width:0.75;" x="380.884576" xlink:href="#mc79cb13791" y="59.15341"/>
     <use style="fill:#d62728;stroke:#ffffff;stroke-linejoin:miter;stroke-width:0.75;" x="381.997743" xlink:href="#mc79cb13791" y="58.130692"/>
     <use style="fill:#d62728;stroke:#ffffff;stroke-linejoin:miter;stroke-width:0.75;" x="383.093914" xlink:href="#mc79cb13791" y="55.01184"/>
     <use style="fill:#d62728;stroke:#ffffff;stroke-linejoin:miter;stroke-width:0.75;" x="384.1736" xlink:href="#mc79cb13791" y="52.046832"/>
     <use style="fill:#d62728;stroke:#ffffff;stroke-linejoin:miter;stroke-width:0.75;" x="385.237291" xlink:href="#mc79cb13791" y="52.059069"/>
     <use style="fill:#d62728;stroke:#ffffff;stroke-linejoin:miter;stroke-width:0.75;" x="386.285453" xlink:href="#mc79cb13791" y="51.306454"/>
     <use style="fill:#d62728;stroke:#ffffff;stroke-linejoin:miter;stroke-width:0.75;" x="387.318533" xlink:href="#mc79cb13791" y="51.655227"/>
     <use style="fill:#d62728;stroke:#ffffff;stroke-linejoin:miter;stroke-width:0.75;" x="388.336959" xlink:href="#mc79cb13791" y="53.673565"/>
     <use style="fill:#d62728;stroke:#ffffff;stroke-linejoin:miter;stroke-width:0.75;" x="389.341141" xlink:href="#mc79cb13791" y="51.595787"/>
     <use style="fill:#d62728;stroke:#ffffff;stroke-linejoin:miter;stroke-width:0.75;" x="390.331471" xlink:href="#mc79cb13791" y="50.931457"/>
     <use style="fill:#d62728;stroke:#ffffff;stroke-linejoin:miter;stroke-width:0.75;" x="391.308327" xlink:href="#mc79cb13791" y="51.685821"/>
     <use style="fill:#d62728;stroke:#ffffff;stroke-linejoin:miter;stroke-width:0.75;" x="392.272071" xlink:href="#mc79cb13791" y="51.754002"/>
     <use style="fill:#d62728;stroke:#ffffff;stroke-linejoin:miter;stroke-width:0.75;" x="393.223049" xlink:href="#mc79cb13791" y="48.10456"/>
     <use style="fill:#d62728;stroke:#ffffff;stroke-linejoin:miter;stroke-width:0.75;" x="394.161596" xlink:href="#mc79cb13791" y="50.498769"/>
     <use style="fill:#d62728;stroke:#ffffff;stroke-linejoin:miter;stroke-width:0.75;" x="395.088032" xlink:href="#mc79cb13791" y="51.761869"/>
     <use style="fill:#d62728;stroke:#ffffff;stroke-linejoin:miter;stroke-width:0.75;" x="396.002666" xlink:href="#mc79cb13791" y="49.846677"/>
     <use style="fill:#d62728;stroke:#ffffff;stroke-linejoin:miter;stroke-width:0.75;" x="396.905795" xlink:href="#mc79cb13791" y="47.039884"/>
     <use style="fill:#d62728;stroke:#ffffff;stroke-linejoin:miter;stroke-width:0.75;" x="397.797705" xlink:href="#mc79cb13791" y="46.937612"/>
     <use style="fill:#d62728;stroke:#ffffff;stroke-linejoin:miter;stroke-width:0.75;" x="398.678671" xlink:href="#mc79cb13791" y="46.712964"/>
     <use style="fill:#d62728;stroke:#ffffff;stroke-linejoin:miter;stroke-width:0.75;" x="399.548958" xlink:href="#mc79cb13791" y="46.562616"/>
     <use style="fill:#d62728;stroke:#ffffff;stroke-linejoin:miter;stroke-width:0.75;" x="400.408823" xlink:href="#mc79cb13791" y="46.434995"/>
     <use style="fill:#d62728;stroke:#ffffff;stroke-linejoin:miter;stroke-width:0.75;" x="401.258511" xlink:href="#mc79cb13791" y="47.353692"/>
     <use style="fill:#d62728;stroke:#ffffff;stroke-linejoin:miter;stroke-width:0.75;" x="402.098261" xlink:href="#mc79cb13791" y="46.938486"/>
     <use style="fill:#d62728;stroke:#ffffff;stroke-linejoin:miter;stroke-width:0.75;" x="402.928303" xlink:href="#mc79cb13791" y="45.590597"/>
     <use style="fill:#d62728;stroke:#ffffff;stroke-linejoin:miter;stroke-width:0.75;" x="403.748858" xlink:href="#mc79cb13791" y="45.501437"/>
     <use style="fill:#d62728;stroke:#ffffff;stroke-linejoin:miter;stroke-width:0.75;" x="404.560142" xlink:href="#mc79cb13791" y="43.355477"/>
     <use style="fill:#d62728;stroke:#ffffff;stroke-linejoin:miter;stroke-width:0.75;" x="405.36236" xlink:href="#mc79cb13791" y="45.398291"/>
     <use style="fill:#d62728;stroke:#ffffff;stroke-linejoin:miter;stroke-width:0.75;" x="406.155714" xlink:href="#mc79cb13791" y="42.32227"/>
     <use style="fill:#d62728;stroke:#ffffff;stroke-linejoin:miter;stroke-width:0.75;" x="406.940398" xlink:href="#mc79cb13791" y="44.545152"/>
    </g>
   </g>
   <g id="line2d_32">
    <path clip-path="url(#p2351859ebe)" d="M 82.285852 257.319438 
L 132.052306 232.317917 
L 161.163816 211.781391 
L 181.81876 200.987783 
L 197.83998 190.127742 
L 210.930269 184.18374 
L 221.997952 182.963472 
L 231.585214 175.631371 
L 240.041779 172.717061 
L 247.606434 169.00206 
L 254.449496 164.107 
L 260.696723 161.631498 
L 266.443615 157.086959 
L 271.764406 148.317808 
L 276.717943 143.946344 
L 281.351668 144.102812 
L 285.704383 143.182365 
L 289.808233 140.315259 
L 293.690141 139.263695 
L 297.372888 130.79087 
L 300.875915 127.449117 
L 304.21595 123.641459 
L 307.40749 124.337257 
L 310.463177 121.790952 
L 313.394107 121.784833 
L 316.210069 119.518245 
L 318.919742 117.970182 
L 321.530859 115.942229 
L 324.05034 114.370565 
L 326.484397 111.039301 
L 328.838635 108.789322 
L 331.118122 107.465907 
L 333.32746 106.583048 
L 335.470837 101.936237 
L 337.552079 100.446741 
L 339.574687 100.250064 
L 341.541873 100.621564 
L 343.456595 96.871598 
L 345.321578 93.7982 
L 347.139342 91.598919 
L 348.912217 91.356788 
L 350.642369 91.055218 
L 352.331807 89.76502 
L 353.982404 88.31748 
L 355.595906 87.721332 
L 357.173944 84.160176 
L 358.718042 84.090246 
L 360.229631 79.973151 
L 361.710051 78.749386 
L 363.160561 78.618268 
L 364.582347 78.529982 
L 365.976523 78.315823 
L 367.344142 79.453925 
L 368.686196 79.245885 
L 370.003624 79.12176 
L 371.297313 79.0326 
L 372.568104 78.226663 
L 373.816794 76.714439 
L 375.044136 75.819342 
L 376.250851 73.291393 
L 377.437619 73.109577 
L 378.605089 71.240713 
L 379.753878 71.589486 
L 380.884576 68.969754 
L 381.997743 68.571157 
L 383.093914 67.275714 
L 384.1736 68.100007 
L 385.237291 67.150715 
L 386.285453 61.224196 
L 387.318533 59.081733 
L 388.336959 58.878937 
L 389.341141 57.843107 
L 390.331471 57.719857 
L 391.308327 57.086995 
L 392.272071 57.341364 
L 393.223049 57.278427 
L 394.161596 56.623713 
L 395.088032 56.97336 
L 396.002666 55.740854 
L 396.905795 55.964628 
L 397.797705 53.841396 
L 398.678671 53.537203 
L 399.548958 52.9699 
L 400.408823 51.270615 
L 401.258511 51.492641 
L 402.098261 49.345807 
L 402.928303 52.158719 
L 403.748858 50.947191 
L 404.560142 48.03463 
L 405.36236 47.475195 
L 406.155714 47.06873 
L 406.940398 46.60807 
" style="fill:none;stroke:#98df8a;stroke-linecap:square;stroke-width:1.5;"/>
    <defs>
     <path d="M -0 3 
L 3 -3 
L -3 -3 
z
" id="m21729185c8" style="stroke:#ffffff;stroke-linejoin:miter;stroke-width:0.75;"/>
    </defs>
    <g clip-path="url(#p2351859ebe)">
     <use style="fill:#98df8a;stroke:#ffffff;stroke-linejoin:miter;stroke-width:0.75;" x="82.285852" xlink:href="#m21729185c8" y="257.319438"/>
     <use style="fill:#98df8a;stroke:#ffffff;stroke-linejoin:miter;stroke-width:0.75;" x="132.052306" xlink:href="#m21729185c8" y="232.317917"/>
     <use style="fill:#98df8a;stroke:#ffffff;stroke-linejoin:miter;stroke-width:0.75;" x="161.163816" xlink:href="#m21729185c8" y="211.781391"/>
     <use style="fill:#98df8a;stroke:#ffffff;stroke-linejoin:miter;stroke-width:0.75;" x="181.81876" xlink:href="#m21729185c8" y="200.987783"/>
     <use style="fill:#98df8a;stroke:#ffffff;stroke-linejoin:miter;stroke-width:0.75;" x="197.83998" xlink:href="#m21729185c8" y="190.127742"/>
     <use style="fill:#98df8a;stroke:#ffffff;stroke-linejoin:miter;stroke-width:0.75;" x="210.930269" xlink:href="#m21729185c8" y="184.18374"/>
     <use style="fill:#98df8a;stroke:#ffffff;stroke-linejoin:miter;stroke-width:0.75;" x="221.997952" xlink:href="#m21729185c8" y="182.963472"/>
     <use style="fill:#98df8a;stroke:#ffffff;stroke-linejoin:miter;stroke-width:0.75;" x="231.585214" xlink:href="#m21729185c8" y="175.631371"/>
     <use style="fill:#98df8a;stroke:#ffffff;stroke-linejoin:miter;stroke-width:0.75;" x="240.041779" xlink:href="#m21729185c8" y="172.717061"/>
     <use style="fill:#98df8a;stroke:#ffffff;stroke-linejoin:miter;stroke-width:0.75;" x="247.606434" xlink:href="#m21729185c8" y="169.00206"/>
     <use style="fill:#98df8a;stroke:#ffffff;stroke-linejoin:miter;stroke-width:0.75;" x="254.449496" xlink:href="#m21729185c8" y="164.107"/>
     <use style="fill:#98df8a;stroke:#ffffff;stroke-linejoin:miter;stroke-width:0.75;" x="260.696723" xlink:href="#m21729185c8" y="161.631498"/>
     <use style="fill:#98df8a;stroke:#ffffff;stroke-linejoin:miter;stroke-width:0.75;" x="266.443615" xlink:href="#m21729185c8" y="157.086959"/>
     <use style="fill:#98df8a;stroke:#ffffff;stroke-linejoin:miter;stroke-width:0.75;" x="271.764406" xlink:href="#m21729185c8" y="148.317808"/>
     <use style="fill:#98df8a;stroke:#ffffff;stroke-linejoin:miter;stroke-width:0.75;" x="276.717943" xlink:href="#m21729185c8" y="143.946344"/>
     <use style="fill:#98df8a;stroke:#ffffff;stroke-linejoin:miter;stroke-width:0.75;" x="281.351668" xlink:href="#m21729185c8" y="144.102812"/>
     <use style="fill:#98df8a;stroke:#ffffff;stroke-linejoin:miter;stroke-width:0.75;" x="285.704383" xlink:href="#m21729185c8" y="143.182365"/>
     <use style="fill:#98df8a;stroke:#ffffff;stroke-linejoin:miter;stroke-width:0.75;" x="289.808233" xlink:href="#m21729185c8" y="140.315259"/>
     <use style="fill:#98df8a;stroke:#ffffff;stroke-linejoin:miter;stroke-width:0.75;" x="293.690141" xlink:href="#m21729185c8" y="139.263695"/>
     <use style="fill:#98df8a;stroke:#ffffff;stroke-linejoin:miter;stroke-width:0.75;" x="297.372888" xlink:href="#m21729185c8" y="130.79087"/>
     <use style="fill:#98df8a;stroke:#ffffff;stroke-linejoin:miter;stroke-width:0.75;" x="300.875915" xlink:href="#m21729185c8" y="127.449117"/>
     <use style="fill:#98df8a;stroke:#ffffff;stroke-linejoin:miter;stroke-width:0.75;" x="304.21595" xlink:href="#m21729185c8" y="123.641459"/>
     <use style="fill:#98df8a;stroke:#ffffff;stroke-linejoin:miter;stroke-width:0.75;" x="307.40749" xlink:href="#m21729185c8" y="124.337257"/>
     <use style="fill:#98df8a;stroke:#ffffff;stroke-linejoin:miter;stroke-width:0.75;" x="310.463177" xlink:href="#m21729185c8" y="121.790952"/>
     <use style="fill:#98df8a;stroke:#ffffff;stroke-linejoin:miter;stroke-width:0.75;" x="313.394107" xlink:href="#m21729185c8" y="121.784833"/>
     <use style="fill:#98df8a;stroke:#ffffff;stroke-linejoin:miter;stroke-width:0.75;" x="316.210069" xlink:href="#m21729185c8" y="119.518245"/>
     <use style="fill:#98df8a;stroke:#ffffff;stroke-linejoin:miter;stroke-width:0.75;" x="318.919742" xlink:href="#m21729185c8" y="117.970182"/>
     <use style="fill:#98df8a;stroke:#ffffff;stroke-linejoin:miter;stroke-width:0.75;" x="321.530859" xlink:href="#m21729185c8" y="115.942229"/>
     <use style="fill:#98df8a;stroke:#ffffff;stroke-linejoin:miter;stroke-width:0.75;" x="324.05034" xlink:href="#m21729185c8" y="114.370565"/>
     <use style="fill:#98df8a;stroke:#ffffff;stroke-linejoin:miter;stroke-width:0.75;" x="326.484397" xlink:href="#m21729185c8" y="111.039301"/>
     <use style="fill:#98df8a;stroke:#ffffff;stroke-linejoin:miter;stroke-width:0.75;" x="328.838635" xlink:href="#m21729185c8" y="108.789322"/>
     <use style="fill:#98df8a;stroke:#ffffff;stroke-linejoin:miter;stroke-width:0.75;" x="331.118122" xlink:href="#m21729185c8" y="107.465907"/>
     <use style="fill:#98df8a;stroke:#ffffff;stroke-linejoin:miter;stroke-width:0.75;" x="333.32746" xlink:href="#m21729185c8" y="106.583048"/>
     <use style="fill:#98df8a;stroke:#ffffff;stroke-linejoin:miter;stroke-width:0.75;" x="335.470837" xlink:href="#m21729185c8" y="101.936237"/>
     <use style="fill:#98df8a;stroke:#ffffff;stroke-linejoin:miter;stroke-width:0.75;" x="337.552079" xlink:href="#m21729185c8" y="100.446741"/>
     <use style="fill:#98df8a;stroke:#ffffff;stroke-linejoin:miter;stroke-width:0.75;" x="339.574687" xlink:href="#m21729185c8" y="100.250064"/>
     <use style="fill:#98df8a;stroke:#ffffff;stroke-linejoin:miter;stroke-width:0.75;" x="341.541873" xlink:href="#m21729185c8" y="100.621564"/>
     <use style="fill:#98df8a;stroke:#ffffff;stroke-linejoin:miter;stroke-width:0.75;" x="343.456595" xlink:href="#m21729185c8" y="96.871598"/>
     <use style="fill:#98df8a;stroke:#ffffff;stroke-linejoin:miter;stroke-width:0.75;" x="345.321578" xlink:href="#m21729185c8" y="93.7982"/>
     <use style="fill:#98df8a;stroke:#ffffff;stroke-linejoin:miter;stroke-width:0.75;" x="347.139342" xlink:href="#m21729185c8" y="91.598919"/>
     <use style="fill:#98df8a;stroke:#ffffff;stroke-linejoin:miter;stroke-width:0.75;" x="348.912217" xlink:href="#m21729185c8" y="91.356788"/>
     <use style="fill:#98df8a;stroke:#ffffff;stroke-linejoin:miter;stroke-width:0.75;" x="350.642369" xlink:href="#m21729185c8" y="91.055218"/>
     <use style="fill:#98df8a;stroke:#ffffff;stroke-linejoin:miter;stroke-width:0.75;" x="352.331807" xlink:href="#m21729185c8" y="89.76502"/>
     <use style="fill:#98df8a;stroke:#ffffff;stroke-linejoin:miter;stroke-width:0.75;" x="353.982404" xlink:href="#m21729185c8" y="88.31748"/>
     <use style="fill:#98df8a;stroke:#ffffff;stroke-linejoin:miter;stroke-width:0.75;" x="355.595906" xlink:href="#m21729185c8" y="87.721332"/>
     <use style="fill:#98df8a;stroke:#ffffff;stroke-linejoin:miter;stroke-width:0.75;" x="357.173944" xlink:href="#m21729185c8" y="84.160176"/>
     <use style="fill:#98df8a;stroke:#ffffff;stroke-linejoin:miter;stroke-width:0.75;" x="358.718042" xlink:href="#m21729185c8" y="84.090246"/>
     <use style="fill:#98df8a;stroke:#ffffff;stroke-linejoin:miter;stroke-width:0.75;" x="360.229631" xlink:href="#m21729185c8" y="79.973151"/>
     <use style="fill:#98df8a;stroke:#ffffff;stroke-linejoin:miter;stroke-width:0.75;" x="361.710051" xlink:href="#m21729185c8" y="78.749386"/>
     <use style="fill:#98df8a;stroke:#ffffff;stroke-linejoin:miter;stroke-width:0.75;" x="363.160561" xlink:href="#m21729185c8" y="78.618268"/>
     <use style="fill:#98df8a;stroke:#ffffff;stroke-linejoin:miter;stroke-width:0.75;" x="364.582347" xlink:href="#m21729185c8" y="78.529982"/>
     <use style="fill:#98df8a;stroke:#ffffff;stroke-linejoin:miter;stroke-width:0.75;" x="365.976523" xlink:href="#m21729185c8" y="78.315823"/>
     <use style="fill:#98df8a;stroke:#ffffff;stroke-linejoin:miter;stroke-width:0.75;" x="367.344142" xlink:href="#m21729185c8" y="79.453925"/>
     <use style="fill:#98df8a;stroke:#ffffff;stroke-linejoin:miter;stroke-width:0.75;" x="368.686196" xlink:href="#m21729185c8" y="79.245885"/>
     <use style="fill:#98df8a;stroke:#ffffff;stroke-linejoin:miter;stroke-width:0.75;" x="370.003624" xlink:href="#m21729185c8" y="79.12176"/>
     <use style="fill:#98df8a;stroke:#ffffff;stroke-linejoin:miter;stroke-width:0.75;" x="371.297313" xlink:href="#m21729185c8" y="79.0326"/>
     <use style="fill:#98df8a;stroke:#ffffff;stroke-linejoin:miter;stroke-width:0.75;" x="372.568104" xlink:href="#m21729185c8" y="78.226663"/>
     <use style="fill:#98df8a;stroke:#ffffff;stroke-linejoin:miter;stroke-width:0.75;" x="373.816794" xlink:href="#m21729185c8" y="76.714439"/>
     <use style="fill:#98df8a;stroke:#ffffff;stroke-linejoin:miter;stroke-width:0.75;" x="375.044136" xlink:href="#m21729185c8" y="75.819342"/>
     <use style="fill:#98df8a;stroke:#ffffff;stroke-linejoin:miter;stroke-width:0.75;" x="376.250851" xlink:href="#m21729185c8" y="73.291393"/>
     <use style="fill:#98df8a;stroke:#ffffff;stroke-linejoin:miter;stroke-width:0.75;" x="377.437619" xlink:href="#m21729185c8" y="73.109577"/>
     <use style="fill:#98df8a;stroke:#ffffff;stroke-linejoin:miter;stroke-width:0.75;" x="378.605089" xlink:href="#m21729185c8" y="71.240713"/>
     <use style="fill:#98df8a;stroke:#ffffff;stroke-linejoin:miter;stroke-width:0.75;" x="379.753878" xlink:href="#m21729185c8" y="71.589486"/>
     <use style="fill:#98df8a;stroke:#ffffff;stroke-linejoin:miter;stroke-width:0.75;" x="380.884576" xlink:href="#m21729185c8" y="68.969754"/>
     <use style="fill:#98df8a;stroke:#ffffff;stroke-linejoin:miter;stroke-width:0.75;" x="381.997743" xlink:href="#m21729185c8" y="68.571157"/>
     <use style="fill:#98df8a;stroke:#ffffff;stroke-linejoin:miter;stroke-width:0.75;" x="383.093914" xlink:href="#m21729185c8" y="67.275714"/>
     <use style="fill:#98df8a;stroke:#ffffff;stroke-linejoin:miter;stroke-width:0.75;" x="384.1736" xlink:href="#m21729185c8" y="68.100007"/>
     <use style="fill:#98df8a;stroke:#ffffff;stroke-linejoin:miter;stroke-width:0.75;" x="385.237291" xlink:href="#m21729185c8" y="67.150715"/>
     <use style="fill:#98df8a;stroke:#ffffff;stroke-linejoin:miter;stroke-width:0.75;" x="386.285453" xlink:href="#m21729185c8" y="61.224196"/>
     <use style="fill:#98df8a;stroke:#ffffff;stroke-linejoin:miter;stroke-width:0.75;" x="387.318533" xlink:href="#m21729185c8" y="59.081733"/>
     <use style="fill:#98df8a;stroke:#ffffff;stroke-linejoin:miter;stroke-width:0.75;" x="388.336959" xlink:href="#m21729185c8" y="58.878937"/>
     <use style="fill:#98df8a;stroke:#ffffff;stroke-linejoin:miter;stroke-width:0.75;" x="389.341141" xlink:href="#m21729185c8" y="57.843107"/>
     <use style="fill:#98df8a;stroke:#ffffff;stroke-linejoin:miter;stroke-width:0.75;" x="390.331471" xlink:href="#m21729185c8" y="57.719857"/>
     <use style="fill:#98df8a;stroke:#ffffff;stroke-linejoin:miter;stroke-width:0.75;" x="391.308327" xlink:href="#m21729185c8" y="57.086995"/>
     <use style="fill:#98df8a;stroke:#ffffff;stroke-linejoin:miter;stroke-width:0.75;" x="392.272071" xlink:href="#m21729185c8" y="57.341364"/>
     <use style="fill:#98df8a;stroke:#ffffff;stroke-linejoin:miter;stroke-width:0.75;" x="393.223049" xlink:href="#m21729185c8" y="57.278427"/>
     <use style="fill:#98df8a;stroke:#ffffff;stroke-linejoin:miter;stroke-width:0.75;" x="394.161596" xlink:href="#m21729185c8" y="56.623713"/>
     <use style="fill:#98df8a;stroke:#ffffff;stroke-linejoin:miter;stroke-width:0.75;" x="395.088032" xlink:href="#m21729185c8" y="56.97336"/>
     <use style="fill:#98df8a;stroke:#ffffff;stroke-linejoin:miter;stroke-width:0.75;" x="396.002666" xlink:href="#m21729185c8" y="55.740854"/>
     <use style="fill:#98df8a;stroke:#ffffff;stroke-linejoin:miter;stroke-width:0.75;" x="396.905795" xlink:href="#m21729185c8" y="55.964628"/>
     <use style="fill:#98df8a;stroke:#ffffff;stroke-linejoin:miter;stroke-width:0.75;" x="397.797705" xlink:href="#m21729185c8" y="53.841396"/>
     <use style="fill:#98df8a;stroke:#ffffff;stroke-linejoin:miter;stroke-width:0.75;" x="398.678671" xlink:href="#m21729185c8" y="53.537203"/>
     <use style="fill:#98df8a;stroke:#ffffff;stroke-linejoin:miter;stroke-width:0.75;" x="399.548958" xlink:href="#m21729185c8" y="52.9699"/>
     <use style="fill:#98df8a;stroke:#ffffff;stroke-linejoin:miter;stroke-width:0.75;" x="400.408823" xlink:href="#m21729185c8" y="51.270615"/>
     <use style="fill:#98df8a;stroke:#ffffff;stroke-linejoin:miter;stroke-width:0.75;" x="401.258511" xlink:href="#m21729185c8" y="51.492641"/>
     <use style="fill:#98df8a;stroke:#ffffff;stroke-linejoin:miter;stroke-width:0.75;" x="402.098261" xlink:href="#m21729185c8" y="49.345807"/>
     <use style="fill:#98df8a;stroke:#ffffff;stroke-linejoin:miter;stroke-width:0.75;" x="402.928303" xlink:href="#m21729185c8" y="52.158719"/>
     <use style="fill:#98df8a;stroke:#ffffff;stroke-linejoin:miter;stroke-width:0.75;" x="403.748858" xlink:href="#m21729185c8" y="50.947191"/>
     <use style="fill:#98df8a;stroke:#ffffff;stroke-linejoin:miter;stroke-width:0.75;" x="404.560142" xlink:href="#m21729185c8" y="48.03463"/>
     <use style="fill:#98df8a;stroke:#ffffff;stroke-linejoin:miter;stroke-width:0.75;" x="405.36236" xlink:href="#m21729185c8" y="47.475195"/>
     <use style="fill:#98df8a;stroke:#ffffff;stroke-linejoin:miter;stroke-width:0.75;" x="406.155714" xlink:href="#m21729185c8" y="47.06873"/>
     <use style="fill:#98df8a;stroke:#ffffff;stroke-linejoin:miter;stroke-width:0.75;" x="406.940398" xlink:href="#m21729185c8" y="46.60807"/>
    </g>
   </g>
   <g id="line2d_33">
    <path clip-path="url(#p2351859ebe)" d="M 82.285852 255.475049 
L 132.052306 229.136128 
L 161.163816 210.029659 
L 181.81876 199.832199 
L 197.83998 190.036834 
L 210.930269 177.909322 
L 221.997952 172.649754 
L 231.585214 171.746791 
L 240.041779 171.807979 
L 247.606434 171.280886 
L 254.449496 160.301091 
L 260.696723 152.049418 
L 266.443615 152.051166 
L 271.764406 151.085265 
L 276.717943 150.703276 
L 281.351668 142.449855 
L 285.704383 139.434148 
L 289.808233 137.830141 
L 293.690141 137.199028 
L 297.372888 136.932422 
L 300.875915 136.756725 
L 304.21595 133.106408 
L 307.40749 127.44125 
L 310.463177 117.961441 
L 313.394107 119.436078 
L 316.210069 119.187829 
L 318.919742 125.003335 
L 321.530859 124.788302 
L 324.05034 115.796251 
L 326.484397 109.178304 
L 328.838635 120.57855 
L 331.118122 120.079429 
L 333.32746 110.532313 
L 335.470837 107.861883 
L 337.552079 105.845293 
L 339.574687 105.584806 
L 341.541873 105.310333 
L 343.456595 103.593565 
L 345.321578 99.889053 
L 347.139342 105.044601 
L 348.912217 107.993875 
L 350.642369 101.566486 
L 352.331807 98.99046 
L 353.982404 96.551671 
L 355.595906 92.847159 
L 357.173944 91.466927 
L 358.718042 91.292978 
L 360.229631 89.887396 
L 361.710051 88.474822 
L 363.160561 85.436388 
L 364.582347 83.677662 
L 365.976523 83.279065 
L 367.344142 83.168052 
L 368.686196 83.109486 
L 370.003624 82.304423 
L 371.297313 79.291339 
L 372.568104 77.545725 
L 373.816794 77.182092 
L 375.044136 77.742402 
L 376.250851 77.670724 
L 377.437619 75.899761 
L 378.605089 75.247669 
L 379.753878 74.547501 
L 380.884576 73.244191 
L 381.997743 73.103458 
L 383.093914 72.881432 
L 384.1736 72.74944 
L 385.237291 73.693488 
L 386.285453 71.257321 
L 387.318533 69.853488 
L 388.336959 68.866608 
L 389.341141 68.158573 
L 390.331471 67.551935 
L 391.308327 64.74252 
L 392.272071 66.32817 
L 393.223049 65.291466 
L 394.161596 65.443563 
L 395.088032 62.835195 
L 396.002666 61.342201 
L 396.905795 62.029258 
L 397.797705 60.607068 
L 398.678671 59.995186 
L 399.548958 59.098341 
L 400.408823 59.309003 
L 401.258511 58.783658 
L 402.098261 58.300271 
L 402.928303 57.648179 
L 403.748858 57.482097 
L 404.560142 54.999602 
L 405.36236 51.581801 
L 406.155714 50.939324 
L 406.940398 51.242643 
" style="fill:none;stroke:#1f77b4;stroke-linecap:square;stroke-width:1.5;"/>
    <defs>
     <path d="M 0 3 
C 0.795609 3 1.55874 2.683901 2.12132 2.12132 
C 2.683901 1.55874 3 0.795609 3 0 
C 3 -0.795609 2.683901 -1.55874 2.12132 -2.12132 
C 1.55874 -2.683901 0.795609 -3 0 -3 
C -0.795609 -3 -1.55874 -2.683901 -2.12132 -2.12132 
C -2.683901 -1.55874 -3 -0.795609 -3 0 
C -3 0.795609 -2.683901 1.55874 -2.12132 2.12132 
C -1.55874 2.683901 -0.795609 3 0 3 
z
" id="mc2adac5eff" style="stroke:#ffffff;stroke-width:0.75;"/>
    </defs>
    <g clip-path="url(#p2351859ebe)">
     <use style="fill:#1f77b4;stroke:#ffffff;stroke-width:0.75;" x="82.285852" xlink:href="#mc2adac5eff" y="255.475049"/>
     <use style="fill:#1f77b4;stroke:#ffffff;stroke-width:0.75;" x="132.052306" xlink:href="#mc2adac5eff" y="229.136128"/>
     <use style="fill:#1f77b4;stroke:#ffffff;stroke-width:0.75;" x="161.163816" xlink:href="#mc2adac5eff" y="210.029659"/>
     <use style="fill:#1f77b4;stroke:#ffffff;stroke-width:0.75;" x="181.81876" xlink:href="#mc2adac5eff" y="199.832199"/>
     <use style="fill:#1f77b4;stroke:#ffffff;stroke-width:0.75;" x="197.83998" xlink:href="#mc2adac5eff" y="190.036834"/>
     <use style="fill:#1f77b4;stroke:#ffffff;stroke-width:0.75;" x="210.930269" xlink:href="#mc2adac5eff" y="177.909322"/>
     <use style="fill:#1f77b4;stroke:#ffffff;stroke-width:0.75;" x="221.997952" xlink:href="#mc2adac5eff" y="172.649754"/>
     <use style="fill:#1f77b4;stroke:#ffffff;stroke-width:0.75;" x="231.585214" xlink:href="#mc2adac5eff" y="171.746791"/>
     <use style="fill:#1f77b4;stroke:#ffffff;stroke-width:0.75;" x="240.041779" xlink:href="#mc2adac5eff" y="171.807979"/>
     <use style="fill:#1f77b4;stroke:#ffffff;stroke-width:0.75;" x="247.606434" xlink:href="#mc2adac5eff" y="171.280886"/>
     <use style="fill:#1f77b4;stroke:#ffffff;stroke-width:0.75;" x="254.449496" xlink:href="#mc2adac5eff" y="160.301091"/>
     <use style="fill:#1f77b4;stroke:#ffffff;stroke-width:0.75;" x="260.696723" xlink:href="#mc2adac5eff" y="152.049418"/>
     <use style="fill:#1f77b4;stroke:#ffffff;stroke-width:0.75;" x="266.443615" xlink:href="#mc2adac5eff" y="152.051166"/>
     <use style="fill:#1f77b4;stroke:#ffffff;stroke-width:0.75;" x="271.764406" xlink:href="#mc2adac5eff" y="151.085265"/>
     <use style="fill:#1f77b4;stroke:#ffffff;stroke-width:0.75;" x="276.717943" xlink:href="#mc2adac5eff" y="150.703276"/>
     <use style="fill:#1f77b4;stroke:#ffffff;stroke-width:0.75;" x="281.351668" xlink:href="#mc2adac5eff" y="142.449855"/>
     <use style="fill:#1f77b4;stroke:#ffffff;stroke-width:0.75;" x="285.704383" xlink:href="#mc2adac5eff" y="139.434148"/>
     <use style="fill:#1f77b4;stroke:#ffffff;stroke-width:0.75;" x="289.808233" xlink:href="#mc2adac5eff" y="137.830141"/>
     <use style="fill:#1f77b4;stroke:#ffffff;stroke-width:0.75;" x="293.690141" xlink:href="#mc2adac5eff" y="137.199028"/>
     <use style="fill:#1f77b4;stroke:#ffffff;stroke-width:0.75;" x="297.372888" xlink:href="#mc2adac5eff" y="136.932422"/>
     <use style="fill:#1f77b4;stroke:#ffffff;stroke-width:0.75;" x="300.875915" xlink:href="#mc2adac5eff" y="136.756725"/>
     <use style="fill:#1f77b4;stroke:#ffffff;stroke-width:0.75;" x="304.21595" xlink:href="#mc2adac5eff" y="133.106408"/>
     <use style="fill:#1f77b4;stroke:#ffffff;stroke-width:0.75;" x="307.40749" xlink:href="#mc2adac5eff" y="127.44125"/>
     <use style="fill:#1f77b4;stroke:#ffffff;stroke-width:0.75;" x="310.463177" xlink:href="#mc2adac5eff" y="117.961441"/>
     <use style="fill:#1f77b4;stroke:#ffffff;stroke-width:0.75;" x="313.394107" xlink:href="#mc2adac5eff" y="119.436078"/>
     <use style="fill:#1f77b4;stroke:#ffffff;stroke-width:0.75;" x="316.210069" xlink:href="#mc2adac5eff" y="119.187829"/>
     <use style="fill:#1f77b4;stroke:#ffffff;stroke-width:0.75;" x="318.919742" xlink:href="#mc2adac5eff" y="125.003335"/>
     <use style="fill:#1f77b4;stroke:#ffffff;stroke-width:0.75;" x="321.530859" xlink:href="#mc2adac5eff" y="124.788302"/>
     <use style="fill:#1f77b4;stroke:#ffffff;stroke-width:0.75;" x="324.05034" xlink:href="#mc2adac5eff" y="115.796251"/>
     <use style="fill:#1f77b4;stroke:#ffffff;stroke-width:0.75;" x="326.484397" xlink:href="#mc2adac5eff" y="109.178304"/>
     <use style="fill:#1f77b4;stroke:#ffffff;stroke-width:0.75;" x="328.838635" xlink:href="#mc2adac5eff" y="120.57855"/>
     <use style="fill:#1f77b4;stroke:#ffffff;stroke-width:0.75;" x="331.118122" xlink:href="#mc2adac5eff" y="120.079429"/>
     <use style="fill:#1f77b4;stroke:#ffffff;stroke-width:0.75;" x="333.32746" xlink:href="#mc2adac5eff" y="110.532313"/>
     <use style="fill:#1f77b4;stroke:#ffffff;stroke-width:0.75;" x="335.470837" xlink:href="#mc2adac5eff" y="107.861883"/>
     <use style="fill:#1f77b4;stroke:#ffffff;stroke-width:0.75;" x="337.552079" xlink:href="#mc2adac5eff" y="105.845293"/>
     <use style="fill:#1f77b4;stroke:#ffffff;stroke-width:0.75;" x="339.574687" xlink:href="#mc2adac5eff" y="105.584806"/>
     <use style="fill:#1f77b4;stroke:#ffffff;stroke-width:0.75;" x="341.541873" xlink:href="#mc2adac5eff" y="105.310333"/>
     <use style="fill:#1f77b4;stroke:#ffffff;stroke-width:0.75;" x="343.456595" xlink:href="#mc2adac5eff" y="103.593565"/>
     <use style="fill:#1f77b4;stroke:#ffffff;stroke-width:0.75;" x="345.321578" xlink:href="#mc2adac5eff" y="99.889053"/>
     <use style="fill:#1f77b4;stroke:#ffffff;stroke-width:0.75;" x="347.139342" xlink:href="#mc2adac5eff" y="105.044601"/>
     <use style="fill:#1f77b4;stroke:#ffffff;stroke-width:0.75;" x="348.912217" xlink:href="#mc2adac5eff" y="107.993875"/>
     <use style="fill:#1f77b4;stroke:#ffffff;stroke-width:0.75;" x="350.642369" xlink:href="#mc2adac5eff" y="101.566486"/>
     <use style="fill:#1f77b4;stroke:#ffffff;stroke-width:0.75;" x="352.331807" xlink:href="#mc2adac5eff" y="98.99046"/>
     <use style="fill:#1f77b4;stroke:#ffffff;stroke-width:0.75;" x="353.982404" xlink:href="#mc2adac5eff" y="96.551671"/>
     <use style="fill:#1f77b4;stroke:#ffffff;stroke-width:0.75;" x="355.595906" xlink:href="#mc2adac5eff" y="92.847159"/>
     <use style="fill:#1f77b4;stroke:#ffffff;stroke-width:0.75;" x="357.173944" xlink:href="#mc2adac5eff" y="91.466927"/>
     <use style="fill:#1f77b4;stroke:#ffffff;stroke-width:0.75;" x="358.718042" xlink:href="#mc2adac5eff" y="91.292978"/>
     <use style="fill:#1f77b4;stroke:#ffffff;stroke-width:0.75;" x="360.229631" xlink:href="#mc2adac5eff" y="89.887396"/>
     <use style="fill:#1f77b4;stroke:#ffffff;stroke-width:0.75;" x="361.710051" xlink:href="#mc2adac5eff" y="88.474822"/>
     <use style="fill:#1f77b4;stroke:#ffffff;stroke-width:0.75;" x="363.160561" xlink:href="#mc2adac5eff" y="85.436388"/>
     <use style="fill:#1f77b4;stroke:#ffffff;stroke-width:0.75;" x="364.582347" xlink:href="#mc2adac5eff" y="83.677662"/>
     <use style="fill:#1f77b4;stroke:#ffffff;stroke-width:0.75;" x="365.976523" xlink:href="#mc2adac5eff" y="83.279065"/>
     <use style="fill:#1f77b4;stroke:#ffffff;stroke-width:0.75;" x="367.344142" xlink:href="#mc2adac5eff" y="83.168052"/>
     <use style="fill:#1f77b4;stroke:#ffffff;stroke-width:0.75;" x="368.686196" xlink:href="#mc2adac5eff" y="83.109486"/>
     <use style="fill:#1f77b4;stroke:#ffffff;stroke-width:0.75;" x="370.003624" xlink:href="#mc2adac5eff" y="82.304423"/>
     <use style="fill:#1f77b4;stroke:#ffffff;stroke-width:0.75;" x="371.297313" xlink:href="#mc2adac5eff" y="79.291339"/>
     <use style="fill:#1f77b4;stroke:#ffffff;stroke-width:0.75;" x="372.568104" xlink:href="#mc2adac5eff" y="77.545725"/>
     <use style="fill:#1f77b4;stroke:#ffffff;stroke-width:0.75;" x="373.816794" xlink:href="#mc2adac5eff" y="77.182092"/>
     <use style="fill:#1f77b4;stroke:#ffffff;stroke-width:0.75;" x="375.044136" xlink:href="#mc2adac5eff" y="77.742402"/>
     <use style="fill:#1f77b4;stroke:#ffffff;stroke-width:0.75;" x="376.250851" xlink:href="#mc2adac5eff" y="77.670724"/>
     <use style="fill:#1f77b4;stroke:#ffffff;stroke-width:0.75;" x="377.437619" xlink:href="#mc2adac5eff" y="75.899761"/>
     <use style="fill:#1f77b4;stroke:#ffffff;stroke-width:0.75;" x="378.605089" xlink:href="#mc2adac5eff" y="75.247669"/>
     <use style="fill:#1f77b4;stroke:#ffffff;stroke-width:0.75;" x="379.753878" xlink:href="#mc2adac5eff" y="74.547501"/>
     <use style="fill:#1f77b4;stroke:#ffffff;stroke-width:0.75;" x="380.884576" xlink:href="#mc2adac5eff" y="73.244191"/>
     <use style="fill:#1f77b4;stroke:#ffffff;stroke-width:0.75;" x="381.997743" xlink:href="#mc2adac5eff" y="73.103458"/>
     <use style="fill:#1f77b4;stroke:#ffffff;stroke-width:0.75;" x="383.093914" xlink:href="#mc2adac5eff" y="72.881432"/>
     <use style="fill:#1f77b4;stroke:#ffffff;stroke-width:0.75;" x="384.1736" xlink:href="#mc2adac5eff" y="72.74944"/>
     <use style="fill:#1f77b4;stroke:#ffffff;stroke-width:0.75;" x="385.237291" xlink:href="#mc2adac5eff" y="73.693488"/>
     <use style="fill:#1f77b4;stroke:#ffffff;stroke-width:0.75;" x="386.285453" xlink:href="#mc2adac5eff" y="71.257321"/>
     <use style="fill:#1f77b4;stroke:#ffffff;stroke-width:0.75;" x="387.318533" xlink:href="#mc2adac5eff" y="69.853488"/>
     <use style="fill:#1f77b4;stroke:#ffffff;stroke-width:0.75;" x="388.336959" xlink:href="#mc2adac5eff" y="68.866608"/>
     <use style="fill:#1f77b4;stroke:#ffffff;stroke-width:0.75;" x="389.341141" xlink:href="#mc2adac5eff" y="68.158573"/>
     <use style="fill:#1f77b4;stroke:#ffffff;stroke-width:0.75;" x="390.331471" xlink:href="#mc2adac5eff" y="67.551935"/>
     <use style="fill:#1f77b4;stroke:#ffffff;stroke-width:0.75;" x="391.308327" xlink:href="#mc2adac5eff" y="64.74252"/>
     <use style="fill:#1f77b4;stroke:#ffffff;stroke-width:0.75;" x="392.272071" xlink:href="#mc2adac5eff" y="66.32817"/>
     <use style="fill:#1f77b4;stroke:#ffffff;stroke-width:0.75;" x="393.223049" xlink:href="#mc2adac5eff" y="65.291466"/>
     <use style="fill:#1f77b4;stroke:#ffffff;stroke-width:0.75;" x="394.161596" xlink:href="#mc2adac5eff" y="65.443563"/>
     <use style="fill:#1f77b4;stroke:#ffffff;stroke-width:0.75;" x="395.088032" xlink:href="#mc2adac5eff" y="62.835195"/>
     <use style="fill:#1f77b4;stroke:#ffffff;stroke-width:0.75;" x="396.002666" xlink:href="#mc2adac5eff" y="61.342201"/>
     <use style="fill:#1f77b4;stroke:#ffffff;stroke-width:0.75;" x="396.905795" xlink:href="#mc2adac5eff" y="62.029258"/>
     <use style="fill:#1f77b4;stroke:#ffffff;stroke-width:0.75;" x="397.797705" xlink:href="#mc2adac5eff" y="60.607068"/>
     <use style="fill:#1f77b4;stroke:#ffffff;stroke-width:0.75;" x="398.678671" xlink:href="#mc2adac5eff" y="59.995186"/>
     <use style="fill:#1f77b4;stroke:#ffffff;stroke-width:0.75;" x="399.548958" xlink:href="#mc2adac5eff" y="59.098341"/>
     <use style="fill:#1f77b4;stroke:#ffffff;stroke-width:0.75;" x="400.408823" xlink:href="#mc2adac5eff" y="59.309003"/>
     <use style="fill:#1f77b4;stroke:#ffffff;stroke-width:0.75;" x="401.258511" xlink:href="#mc2adac5eff" y="58.783658"/>
     <use style="fill:#1f77b4;stroke:#ffffff;stroke-width:0.75;" x="402.098261" xlink:href="#mc2adac5eff" y="58.300271"/>
     <use style="fill:#1f77b4;stroke:#ffffff;stroke-width:0.75;" x="402.928303" xlink:href="#mc2adac5eff" y="57.648179"/>
     <use style="fill:#1f77b4;stroke:#ffffff;stroke-width:0.75;" x="403.748858" xlink:href="#mc2adac5eff" y="57.482097"/>
     <use style="fill:#1f77b4;stroke:#ffffff;stroke-width:0.75;" x="404.560142" xlink:href="#mc2adac5eff" y="54.999602"/>
     <use style="fill:#1f77b4;stroke:#ffffff;stroke-width:0.75;" x="405.36236" xlink:href="#mc2adac5eff" y="51.581801"/>
     <use style="fill:#1f77b4;stroke:#ffffff;stroke-width:0.75;" x="406.155714" xlink:href="#mc2adac5eff" y="50.939324"/>
     <use style="fill:#1f77b4;stroke:#ffffff;stroke-width:0.75;" x="406.940398" xlink:href="#mc2adac5eff" y="51.242643"/>
    </g>
   </g>
   <g id="line2d_34"/>
   <g id="line2d_35"/>
   <g id="line2d_36"/>
   <g id="patch_3">
    <path d="M 66.053125 259.569418 
L 66.053125 49.781118 
" style="fill:none;stroke:#000000;stroke-linecap:square;stroke-linejoin:miter;stroke-width:0.8;"/>
   </g>
   <g id="patch_4">
    <path d="M 82.285852 288.430125 
L 406.941265 288.430125 
" style="fill:none;stroke:#000000;stroke-linecap:square;stroke-linejoin:miter;stroke-width:0.8;"/>
   </g>
   <g id="text_16">
    <!-- wireshark_fuzzshark_ip (23h, 11 trials/fuzzer) -->
    <g transform="translate(108.505938 16.318125)scale(0.12 -0.12)">
     <defs>
      <path d="M 269 3500 
L 844 3500 
L 1563 769 
L 2278 3500 
L 2956 3500 
L 3675 769 
L 4391 3500 
L 4966 3500 
L 4050 0 
L 3372 0 
L 2619 2869 
L 1863 0 
L 1184 0 
L 269 3500 
z
" id="DejaVuSans-77" transform="scale(0.015625)"/>
      <path d="M 2834 3397 
L 2834 2853 
Q 2591 2978 2328 3040 
Q 2066 3103 1784 3103 
Q 1356 3103 1142 2972 
Q 928 2841 928 2578 
Q 928 2378 1081 2264 
Q 1234 2150 1697 2047 
L 1894 2003 
Q 2506 1872 2764 1633 
Q 3022 1394 3022 966 
Q 3022 478 2636 193 
Q 2250 -91 1575 -91 
Q 1294 -91 989 -36 
Q 684 19 347 128 
L 347 722 
Q 666 556 975 473 
Q 1284 391 1588 391 
Q 1994 391 2212 530 
Q 2431 669 2431 922 
Q 2431 1156 2273 1281 
Q 2116 1406 1581 1522 
L 1381 1569 
Q 847 1681 609 1914 
Q 372 2147 372 2553 
Q 372 3047 722 3315 
Q 1072 3584 1716 3584 
Q 2034 3584 2315 3537 
Q 2597 3491 2834 3397 
z
" id="DejaVuSans-73" transform="scale(0.015625)"/>
      <path d="M 581 4863 
L 1159 4863 
L 1159 1991 
L 2875 3500 
L 3609 3500 
L 1753 1863 
L 3688 0 
L 2938 0 
L 1159 1709 
L 1159 0 
L 581 0 
L 581 4863 
z
" id="DejaVuSans-6b" transform="scale(0.015625)"/>
      <path d="M 3263 -1063 
L 3263 -1509 
L -63 -1509 
L -63 -1063 
L 3263 -1063 
z
" id="DejaVuSans-5f" transform="scale(0.015625)"/>
      <path d="M 2375 4863 
L 2375 4384 
L 1825 4384 
Q 1516 4384 1395 4259 
Q 1275 4134 1275 3809 
L 1275 3500 
L 2222 3500 
L 2222 3053 
L 1275 3053 
L 1275 0 
L 697 0 
L 697 3053 
L 147 3053 
L 147 3500 
L 697 3500 
L 697 3744 
Q 697 4328 969 4595 
Q 1241 4863 1831 4863 
L 2375 4863 
z
" id="DejaVuSans-66" transform="scale(0.015625)"/>
      <path d="M 353 3500 
L 3084 3500 
L 3084 2975 
L 922 459 
L 3084 459 
L 3084 0 
L 275 0 
L 275 525 
L 2438 3041 
L 353 3041 
L 353 3500 
z
" id="DejaVuSans-7a" transform="scale(0.015625)"/>
      <path d="M 1159 525 
L 1159 -1331 
L 581 -1331 
L 581 3500 
L 1159 3500 
L 1159 2969 
Q 1341 3281 1617 3432 
Q 1894 3584 2278 3584 
Q 2916 3584 3314 3078 
Q 3713 2572 3713 1747 
Q 3713 922 3314 415 
Q 2916 -91 2278 -91 
Q 1894 -91 1617 61 
Q 1341 213 1159 525 
z
M 3116 1747 
Q 3116 2381 2855 2742 
Q 2594 3103 2138 3103 
Q 1681 3103 1420 2742 
Q 1159 2381 1159 1747 
Q 1159 1113 1420 752 
Q 1681 391 2138 391 
Q 2594 391 2855 752 
Q 3116 1113 3116 1747 
z
" id="DejaVuSans-70" transform="scale(0.015625)"/>
      <path d="M 750 794 
L 1409 794 
L 1409 256 
L 897 -744 
L 494 -744 
L 750 256 
L 750 794 
z
" id="DejaVuSans-2c" transform="scale(0.015625)"/>
      <path d="M 603 4863 
L 1178 4863 
L 1178 0 
L 603 0 
L 603 4863 
z
" id="DejaVuSans-6c" transform="scale(0.015625)"/>
      <path d="M 1625 4666 
L 2156 4666 
L 531 -594 
L 0 -594 
L 1625 4666 
z
" id="DejaVuSans-2f" transform="scale(0.015625)"/>
     </defs>
     <use xlink:href="#DejaVuSans-77"/>
     <use x="81.787109" xlink:href="#DejaVuSans-69"/>
     <use x="109.570312" xlink:href="#DejaVuSans-72"/>
     <use x="148.433594" xlink:href="#DejaVuSans-65"/>
     <use x="209.957031" xlink:href="#DejaVuSans-73"/>
     <use x="262.056641" xlink:href="#DejaVuSans-68"/>
     <use x="325.435547" xlink:href="#DejaVuSans-61"/>
     <use x="386.714844" xlink:href="#DejaVuSans-72"/>
     <use x="427.828125" xlink:href="#DejaVuSans-6b"/>
     <use x="485.738281" xlink:href="#DejaVuSans-5f"/>
     <use x="535.738281" xlink:href="#DejaVuSans-66"/>
     <use x="570.943359" xlink:href="#DejaVuSans-75"/>
     <use x="634.322266" xlink:href="#DejaVuSans-7a"/>
     <use x="686.8125" xlink:href="#DejaVuSans-7a"/>
     <use x="739.302734" xlink:href="#DejaVuSans-73"/>
     <use x="791.402344" xlink:href="#DejaVuSans-68"/>
     <use x="854.78125" xlink:href="#DejaVuSans-61"/>
     <use x="916.060547" xlink:href="#DejaVuSans-72"/>
     <use x="957.173828" xlink:href="#DejaVuSans-6b"/>
     <use x="1015.083984" xlink:href="#DejaVuSans-5f"/>
     <use x="1065.083984" xlink:href="#DejaVuSans-69"/>
     <use x="1092.867188" xlink:href="#DejaVuSans-70"/>
     <use x="1156.34375" xlink:href="#DejaVuSans-20"/>
     <use x="1188.130859" xlink:href="#DejaVuSans-28"/>
     <use x="1227.144531" xlink:href="#DejaVuSans-32"/>
     <use x="1290.767578" xlink:href="#DejaVuSans-33"/>
     <use x="1354.390625" xlink:href="#DejaVuSans-68"/>
     <use x="1417.769531" xlink:href="#DejaVuSans-2c"/>
     <use x="1449.556641" xlink:href="#DejaVuSans-20"/>
     <use x="1481.34375" xlink:href="#DejaVuSans-31"/>
     <use x="1544.966797" xlink:href="#DejaVuSans-31"/>
     <use x="1608.589844" xlink:href="#DejaVuSans-20"/>
     <use x="1640.376953" xlink:href="#DejaVuSans-74"/>
     <use x="1679.585938" xlink:href="#DejaVuSans-72"/>
     <use x="1720.699219" xlink:href="#DejaVuSans-69"/>
     <use x="1748.482422" xlink:href="#DejaVuSans-61"/>
     <use x="1809.761719" xlink:href="#DejaVuSans-6c"/>
     <use x="1837.544922" xlink:href="#DejaVuSans-73"/>
     <use x="1889.644531" xlink:href="#DejaVuSans-2f"/>
     <use x="1923.335938" xlink:href="#DejaVuSans-66"/>
     <use x="1958.541016" xlink:href="#DejaVuSans-75"/>
     <use x="2021.919922" xlink:href="#DejaVuSans-7a"/>
     <use x="2074.410156" xlink:href="#DejaVuSans-7a"/>
     <use x="2126.900391" xlink:href="#DejaVuSans-65"/>
     <use x="2188.423828" xlink:href="#DejaVuSans-72"/>
     <use x="2229.537109" xlink:href="#DejaVuSans-29"/>
    </g>
   </g>
   <g id="legend_1">
    <g id="line2d_37">
     <path d="M 427.173125 30.416562 
L 447.173125 30.416562 
" style="fill:none;stroke:#d62728;stroke-linecap:square;stroke-width:1.5;"/>
    </g>
    <g id="line2d_38">
     <defs>
      <path d="M 0 -3 
L -3 3 
L 3 3 
z
" id="m719a137406" style="stroke:#d62728;stroke-linejoin:miter;"/>
     </defs>
     <g>
      <use style="fill:#d62728;stroke:#d62728;stroke-linejoin:miter;" x="437.173125" xlink:href="#m719a137406" y="30.416562"/>
     </g>
    </g>
    <g id="text_17">
     <!-- afl_no_favored -->
     <g transform="translate(455.173125 33.916562)scale(0.1 -0.1)">
      <use xlink:href="#DejaVuSans-61"/>
      <use x="61.279297" xlink:href="#DejaVuSans-66"/>
      <use x="96.484375" xlink:href="#DejaVuSans-6c"/>
      <use x="124.267578" xlink:href="#DejaVuSans-5f"/>
      <use x="174.267578" xlink:href="#DejaVuSans-6e"/>
      <use x="237.646484" xlink:href="#DejaVuSans-6f"/>
      <use x="298.828125" xlink:href="#DejaVuSans-5f"/>
      <use x="348.828125" xlink:href="#DejaVuSans-66"/>
      <use x="384.033203" xlink:href="#DejaVuSans-61"/>
      <use x="445.3125" xlink:href="#DejaVuSans-76"/>
      <use x="504.492188" xlink:href="#DejaVuSans-6f"/>
      <use x="565.673828" xlink:href="#DejaVuSans-72"/>
      <use x="604.537109" xlink:href="#DejaVuSans-65"/>
      <use x="666.060547" xlink:href="#DejaVuSans-64"/>
     </g>
    </g>
    <g id="line2d_39">
     <path d="M 427.173125 45.372813 
L 447.173125 45.372813 
" style="fill:none;stroke:#98df8a;stroke-linecap:square;stroke-width:1.5;"/>
    </g>
    <g id="line2d_40">
     <defs>
      <path d="M -0 3 
L 3 -3 
L -3 -3 
z
" id="m8d45038430" style="stroke:#98df8a;stroke-linejoin:miter;"/>
     </defs>
     <g>
      <use style="fill:#98df8a;stroke:#98df8a;stroke-linejoin:miter;" x="437.173125" xlink:href="#m8d45038430" y="45.372813"/>
     </g>
    </g>
    <g id="text_18">
     <!-- afl_no_favfactor -->
     <g transform="translate(455.173125 48.872813)scale(0.1 -0.1)">
      <use xlink:href="#DejaVuSans-61"/>
      <use x="61.279297" xlink:href="#DejaVuSans-66"/>
      <use x="96.484375" xlink:href="#DejaVuSans-6c"/>
      <use x="124.267578" xlink:href="#DejaVuSans-5f"/>
      <use x="174.267578" xlink:href="#DejaVuSans-6e"/>
      <use x="237.646484" xlink:href="#DejaVuSans-6f"/>
      <use x="298.828125" xlink:href="#DejaVuSans-5f"/>
      <use x="348.828125" xlink:href="#DejaVuSans-66"/>
      <use x="384.033203" xlink:href="#DejaVuSans-61"/>
      <use x="445.3125" xlink:href="#DejaVuSans-76"/>
      <use x="504.492188" xlink:href="#DejaVuSans-66"/>
      <use x="539.697266" xlink:href="#DejaVuSans-61"/>
      <use x="600.976562" xlink:href="#DejaVuSans-63"/>
      <use x="655.957031" xlink:href="#DejaVuSans-74"/>
      <use x="695.166016" xlink:href="#DejaVuSans-6f"/>
      <use x="756.347656" xlink:href="#DejaVuSans-72"/>
     </g>
    </g>
    <g id="line2d_41">
     <path d="M 427.173125 60.329063 
L 447.173125 60.329063 
" style="fill:none;stroke:#1f77b4;stroke-linecap:square;stroke-width:1.5;"/>
    </g>
    <g id="line2d_42">
     <defs>
      <path d="M 0 3 
C 0.795609 3 1.55874 2.683901 2.12132 2.12132 
C 2.683901 1.55874 3 0.795609 3 0 
C 3 -0.795609 2.683901 -1.55874 2.12132 -2.12132 
C 1.55874 -2.683901 0.795609 -3 0 -3 
C -0.795609 -3 -1.55874 -2.683901 -2.12132 -2.12132 
C -2.683901 -1.55874 -3 -0.795609 -3 0 
C -3 0.795609 -2.683901 1.55874 -2.12132 2.12132 
C -1.55874 2.683901 -0.795609 3 0 3 
z
" id="maf9c9687b4" style="stroke:#1f77b4;"/>
     </defs>
     <g>
      <use style="fill:#1f77b4;stroke:#1f77b4;" x="437.173125" xlink:href="#maf9c9687b4" y="60.329063"/>
     </g>
    </g>
    <g id="text_19">
     <!-- afl -->
     <g transform="translate(455.173125 63.829063)scale(0.1 -0.1)">
      <use xlink:href="#DejaVuSans-61"/>
      <use x="61.279297" xlink:href="#DejaVuSans-66"/>
      <use x="96.484375" xlink:href="#DejaVuSans-6c"/>
     </g>
    </g>
   </g>
  </g>
 </g>
 <defs>
  <clipPath id="p2351859ebe">
   <rect height="266.112" width="357.12" x="66.053125" y="22.318125"/>
  </clipPath>
 </defs>
</svg>
