<?xml version="1.0" encoding="utf-8" standalone="no"?>
<!DOCTYPE svg PUBLIC "-//W3C//DTD SVG 1.1//EN"
  "http://www.w3.org/Graphics/SVG/1.1/DTD/svg11.dtd">
<svg height="325.986375pt" version="1.1" viewBox="0 0 568.985625 325.986375" width="568.985625pt" xmlns="http://www.w3.org/2000/svg" xmlns:xlink="http://www.w3.org/1999/xlink">
 <metadata>
  <rdf:RDF xmlns:cc="http://creativecommons.org/ns#" xmlns:dc="http://purl.org/dc/elements/1.1/" xmlns:rdf="http://www.w3.org/1999/02/22-rdf-syntax-ns#">
   <cc:Work>
    <dc:type rdf:resource="http://purl.org/dc/dcmitype/StillImage"/>
    <dc:date>2022-07-21T16:07:38.072768</dc:date>
    <dc:format>image/svg+xml</dc:format>
    <dc:creator>
     <cc:Agent>
      <dc:title>Matplotlib v3.4.3, https://matplotlib.org/</dc:title>
     </cc:Agent>
    </dc:creator>
   </cc:Work>
  </rdf:RDF>
 </metadata>
 <defs>
  <style type="text/css">*{stroke-linecap:butt;stroke-linejoin:round;}</style>
 </defs>
 <g id="figure_1">
  <g id="patch_1">
   <path d="M 0 325.986375 
L 568.985625 325.986375 
L 568.985625 0 
L 0 0 
z
" style="fill:#ffffff;"/>
  </g>
  <g id="axes_1">
   <g id="patch_2">
    <path d="M 53.328125 288.430125 
L 410.448125 288.430125 
L 410.448125 22.318125 
L 53.328125 22.318125 
z
" style="fill:#ffffff;"/>
   </g>
   <g id="PolyCollection_1">
    <defs>
     <path d="M 69.560852 -192.422776 
L 69.560852 -49.65225 
L 119.327306 -195.013513 
L 148.438816 -200.557513 
L 169.09376 -206.805934 
L 185.11498 -209.930145 
L 198.205269 -212.641724 
L 209.272952 -214.645934 
L 218.860214 -219.361724 
L 227.316779 -222.309092 
L 234.881434 -223.782776 
L 241.724496 -226.081724 
L 247.971723 -228.262776 
L 253.718615 -229.264882 
L 259.039406 -231.210145 
L 263.992943 -232.389092 
L 268.626668 -238.991197 
L 272.979383 -240.170145 
L 277.083233 -242.704882 
L 280.965141 -242.056461 
L 284.647888 -246.182776 
L 288.150915 -249.542776 
L 291.49095 -250.839618 
L 294.68249 -252.304461 
L 297.738177 -252.658145 
L 300.669107 -254.081724 
L 303.485069 -255.201724 
L 306.194742 -257.618566 
L 308.805859 -258.208039 
L 311.32534 -258.325934 
L 313.759397 -258.208039 
L 316.113635 -258.443829 
L 318.393122 -258.797513 
L 320.60246 -261.273303 
L 322.745837 -264.043829 
L 324.827079 -265.930145 
L 326.849687 -267.285934 
L 328.816873 -267.698566 
L 330.731595 -268.111197 
L 332.596578 -268.818566 
L 334.414342 -269.820671 
L 336.187217 -270.056461 
L 337.917369 -270.469092 
L 339.606807 -270.822776 
L 341.257404 -270.999618 
L 342.870906 -271.176461 
L 344.448944 -271.294355 
L 345.993042 -272.709092 
L 347.504631 -273.65225 
L 348.985051 -274.064882 
L 350.435561 -273.770145 
L 351.857347 -274.300671 
L 353.251523 -274.77225 
L 354.619142 -276.128039 
L 355.961196 -276.713092 
L 357.278624 -277.01225 
L 358.572313 -277.187618 
L 359.843104 -277.955408 
L 361.091794 -278.014355 
L 362.319136 -278.014355 
L 363.525851 -278.368039 
L 364.712619 -278.073303 
L 365.880089 -278.426987 
L 367.028878 -279.25225 
L 368.159576 -280.254355 
L 369.272743 -281.197513 
L 370.368914 -280.608039 
L 371.4486 -281.786987 
L 372.512291 -281.904882 
L 373.560453 -281.904882 
L 374.593533 -282.022776 
L 375.611959 -281.433303 
L 376.616141 -282.317513 
L 377.606471 -282.548882 
L 378.583327 -282.789092 
L 379.547071 -282.789092 
L 380.498049 -282.789092 
L 381.436596 -282.906987 
L 382.363032 -283.024882 
L 383.277666 -283.319618 
L 384.180795 -283.378566 
L 385.072705 -283.378566 
L 385.953671 -283.378566 
L 386.823958 -283.963618 
L 387.683823 -284.144882 
L 388.533511 -284.321724 
L 389.373261 -284.321724 
L 390.203303 -285.029092 
L 391.023858 -285.029092 
L 391.835142 -285.205934 
L 392.63736 -285.205934 
L 393.430714 -285.677513 
L 394.215398 -285.677513 
L 394.215398 -291.57225 
L 394.215398 -291.57225 
L 393.430714 -290.864882 
L 392.63736 -290.864882 
L 391.835142 -290.746987 
L 391.023858 -290.629092 
L 390.203303 -290.629092 
L 389.373261 -290.45225 
L 388.533511 -290.393303 
L 387.683823 -289.921724 
L 386.823958 -289.862776 
L 385.953671 -289.687408 
L 385.072705 -289.685934 
L 384.180795 -289.33225 
L 383.277666 -288.153303 
L 382.363032 -288.094355 
L 381.436596 -288.094355 
L 380.498049 -287.862987 
L 379.547071 -286.508671 
L 378.583327 -286.508671 
L 377.606471 -286.443829 
L 376.616141 -286.271408 
L 375.611959 -286.031197 
L 374.593533 -285.795408 
L 373.560453 -285.441724 
L 372.512291 -284.734355 
L 371.4486 -284.144882 
L 370.368914 -284.026987 
L 369.272743 -283.614355 
L 368.159576 -283.503829 
L 367.028878 -283.496461 
L 365.880089 -283.496461 
L 364.712619 -283.024882 
L 363.525851 -282.848039 
L 362.319136 -282.789092 
L 361.091794 -282.494355 
L 359.843104 -282.435408 
L 358.572313 -282.204039 
L 357.278624 -282.258566 
L 355.961196 -281.845934 
L 354.619142 -281.728039 
L 353.251523 -280.608039 
L 351.857347 -280.201303 
L 350.435561 -278.957513 
L 348.985051 -278.431408 
L 347.504631 -278.191197 
L 345.993042 -277.189092 
L 344.448944 -277.248039 
L 342.870906 -276.717513 
L 341.257404 -275.833303 
L 339.606807 -274.952039 
L 337.917369 -274.713303 
L 336.187217 -274.359618 
L 334.414342 -273.946987 
L 332.596578 -273.298566 
L 330.731595 -273.121724 
L 328.816873 -272.001724 
L 326.849687 -271.648039 
L 324.827079 -271.117513 
L 322.745837 -270.233303 
L 320.60246 -269.231197 
L 318.393122 -268.464882 
L 316.113635 -268.170145 
L 313.759397 -266.578566 
L 311.32534 -265.753303 
L 308.805859 -265.045934 
L 306.194742 -262.864882 
L 303.485069 -262.570145 
L 300.669107 -262.276882 
L 297.738177 -260.742776 
L 294.68249 -257.97225 
L 291.49095 -256.616461 
L 288.150915 -256.557513 
L 284.647888 -251.605934 
L 280.965141 -250.957513 
L 277.083233 -250.073303 
L 272.979383 -247.715408 
L 268.626668 -246.949092 
L 263.992943 -244.296461 
L 259.039406 -241.17225 
L 253.718615 -238.991197 
L 247.971723 -237.045934 
L 241.724496 -236.279618 
L 234.881434 -233.214355 
L 227.316779 -229.618566 
L 218.860214 -226.022776 
L 209.272952 -221.601724 
L 198.205269 -220.835408 
L 185.11498 -217.239618 
L 169.09376 -213.702776 
L 148.438816 -208.223618 
L 119.327306 -200.262776 
L 69.560852 -192.422776 
z
" id="mde43734a06" style="stroke:#1f77b4;stroke-opacity:0.2;"/>
    </defs>
    <g clip-path="url(#p50cb8fde66)">
     <use style="fill:#1f77b4;fill-opacity:0.2;stroke:#1f77b4;stroke-opacity:0.2;" x="0" xlink:href="#mde43734a06" y="325.986375"/>
    </g>
   </g>
   <g id="PolyCollection_2">
    <defs>
     <path d="M 69.560852 -188.885934 
L 69.560852 -180.869092 
L 119.327306 -192.658566 
L 148.438816 -197.598355 
L 169.09376 -207.631197 
L 185.11498 -210.342776 
L 198.205269 -215.589092 
L 209.272952 -216.650145 
L 218.860214 -218.064882 
L 227.316779 -220.069092 
L 234.881434 -222.596461 
L 241.724496 -224.490145 
L 247.971723 -224.843829 
L 253.718615 -225.728039 
L 259.039406 -226.671197 
L 263.992943 -228.321724 
L 268.626668 -230.208039 
L 272.979383 -231.09225 
L 277.083233 -231.858566 
L 280.965141 -234.923829 
L 284.647888 -235.57225 
L 288.150915 -236.338566 
L 291.49095 -238.106987 
L 294.68249 -238.696461 
L 297.738177 -238.873303 
L 300.669107 -241.349092 
L 303.485069 -242.351197 
L 306.194742 -242.763829 
L 308.805859 -244.001724 
L 311.32534 -245.239618 
L 313.759397 -246.005934 
L 316.113635 -246.654355 
L 318.393122 -247.008039 
L 320.60246 -247.89225 
L 322.745837 -248.776461 
L 324.827079 -249.130145 
L 326.849687 -249.130145 
L 328.816873 -250.426987 
L 330.731595 -251.782776 
L 332.596578 -251.782776 
L 334.414342 -252.37225 
L 336.187217 -252.666987 
L 337.917369 -252.902776 
L 339.606807 -253.256461 
L 341.257404 -253.49225 
L 342.870906 -255.614355 
L 344.448944 -258.149092 
L 345.993042 -259.622776 
L 347.504631 -260.742776 
L 348.985051 -260.742776 
L 350.435561 -260.860671 
L 351.857347 -262.746987 
L 353.251523 -263.159618 
L 354.619142 -263.454355 
L 355.961196 -261.980671 
L 357.278624 -264.618566 
L 358.572313 -264.986987 
L 359.843104 -265.222776 
L 361.091794 -264.928039 
L 362.319136 -266.991197 
L 363.525851 -266.991197 
L 364.712619 -266.991197 
L 365.880089 -266.991197 
L 367.028878 -267.462776 
L 368.159576 -267.639618 
L 369.272743 -267.639618 
L 370.368914 -267.639618 
L 371.4486 -268.464882 
L 372.512291 -268.700671 
L 373.560453 -269.702776 
L 374.593533 -270.528039 
L 375.611959 -270.822776 
L 376.616141 -272.001724 
L 377.606471 -272.768039 
L 378.583327 -272.768039 
L 379.547071 -272.768039 
L 380.498049 -273.003829 
L 381.436596 -273.180671 
L 382.363032 -273.239618 
L 383.277666 -273.121724 
L 384.180795 -273.475408 
L 385.072705 -273.475408 
L 385.953671 -274.592461 
L 386.823958 -274.477513 
L 387.683823 -274.711829 
L 388.533511 -274.77225 
L 389.373261 -274.890145 
L 390.203303 -274.890145 
L 391.023858 -275.774355 
L 391.835142 -275.89225 
L 392.63736 -276.245934 
L 393.430714 -277.130145 
L 394.215398 -277.071197 
L 394.215398 -282.140671 
L 394.215398 -282.140671 
L 393.430714 -281.963829 
L 392.63736 -280.784882 
L 391.835142 -280.725934 
L 391.023858 -281.197513 
L 390.203303 -280.725934 
L 389.373261 -280.549092 
L 388.533511 -280.136461 
L 387.683823 -279.782776 
L 386.823958 -279.841724 
L 385.953671 -279.25225 
L 385.072705 -279.193303 
L 384.180795 -279.016461 
L 383.277666 -278.780671 
L 382.363032 -278.780671 
L 381.436596 -277.778566 
L 380.498049 -277.719618 
L 379.547071 -276.776461 
L 378.583327 -276.304882 
L 377.606471 -276.304882 
L 376.616141 -275.715408 
L 375.611959 -273.770145 
L 374.593533 -273.770145 
L 373.560453 -273.593303 
L 372.512291 -273.357513 
L 371.4486 -272.709092 
L 370.368914 -272.650145 
L 369.272743 -272.237513 
L 368.159576 -271.765934 
L 367.028878 -271.530145 
L 365.880089 -271.353303 
L 364.712619 -271.530145 
L 363.525851 -271.058566 
L 362.319136 -270.469092 
L 361.091794 -270.056461 
L 359.843104 -270.056461 
L 358.572313 -269.584882 
L 357.278624 -269.17225 
L 355.961196 -268.878987 
L 354.619142 -268.877513 
L 353.251523 -268.818566 
L 351.857347 -268.700671 
L 350.435561 -268.523829 
L 348.985051 -267.757513 
L 347.504631 -267.344882 
L 345.993042 -266.637513 
L 344.448944 -266.519618 
L 342.870906 -266.283829 
L 341.257404 -265.635408 
L 339.606807 -265.458566 
L 337.917369 -265.22425 
L 336.187217 -263.925934 
L 334.414342 -263.925934 
L 332.596578 -263.336461 
L 330.731595 -262.629092 
L 328.816873 -262.393303 
L 326.849687 -261.450145 
L 324.827079 -260.271197 
L 322.745837 -260.21225 
L 320.60246 -260.21225 
L 318.393122 -259.09225 
L 316.113635 -258.325934 
L 313.759397 -257.441724 
L 311.32534 -256.970145 
L 308.805859 -256.557513 
L 306.194742 -256.085934 
L 303.485069 -255.324039 
L 300.669107 -255.024882 
L 297.738177 -253.49225 
L 294.68249 -252.504882 
L 291.49095 -252.254355 
L 288.150915 -250.438776 
L 284.647888 -249.660671 
L 280.965141 -248.363829 
L 277.083233 -247.479618 
L 272.979383 -245.829092 
L 268.626668 -243.41225 
L 263.992943 -243.117513 
L 259.039406 -237.989092 
L 253.718615 -236.869092 
L 247.971723 -235.808039 
L 241.724496 -233.747829 
L 234.881434 -231.386987 
L 227.316779 -229.323829 
L 218.860214 -228.144882 
L 209.272952 -225.374355 
L 198.205269 -219.715408 
L 185.11498 -214.704882 
L 169.09376 -210.519618 
L 148.438816 -204.571829 
L 119.327306 -198.965934 
L 69.560852 -188.885934 
z
" id="m432cd46587" style="stroke:#98df8a;stroke-opacity:0.2;"/>
    </defs>
    <g clip-path="url(#p50cb8fde66)">
     <use style="fill:#98df8a;fill-opacity:0.2;stroke:#98df8a;stroke-opacity:0.2;" x="0" xlink:href="#m432cd46587" y="325.986375"/>
    </g>
   </g>
   <g id="PolyCollection_3">
    <defs>
     <path d="M 69.560852 -189.770145 
L 69.560852 -184.818566 
L 119.327306 -192.186987 
L 148.438816 -201.795408 
L 169.09376 -204.978566 
L 185.11498 -209.694355 
L 198.205269 -212.995408 
L 209.272952 -215.176461 
L 218.860214 -216.768039 
L 227.316779 -219.302776 
L 234.881434 -222.485934 
L 241.724496 -225.138566 
L 247.971723 -225.845934 
L 253.718615 -227.260671 
L 259.039406 -227.260671 
L 263.992943 -229.500671 
L 268.626668 -230.620671 
L 272.979383 -232.742776 
L 277.083233 -235.57225 
L 280.965141 -235.866987 
L 284.647888 -237.222776 
L 288.150915 -240.582776 
L 291.49095 -243.294355 
L 294.68249 -245.180671 
L 297.738177 -244.768039 
L 300.669107 -246.300671 
L 303.485069 -246.418566 
L 306.194742 -247.361724 
L 308.805859 -247.597513 
L 311.32534 -247.715408 
L 313.759397 -249.424882 
L 316.113635 -249.955408 
L 318.393122 -250.662776 
L 320.60246 -250.721724 
L 322.745837 -251.311197 
L 324.827079 -251.370145 
L 326.849687 -251.370145 
L 328.816873 -251.605934 
L 330.731595 -252.490145 
L 332.596578 -252.666987 
L 334.414342 -254.317513 
L 336.187217 -254.317513 
L 337.917369 -254.529724 
L 339.606807 -257.500671 
L 341.257404 -260.330145 
L 342.870906 -260.624882 
L 344.448944 -260.624882 
L 345.993042 -261.568039 
L 347.504631 -261.389724 
L 348.985051 -261.507618 
L 350.435561 -261.626987 
L 351.857347 -262.275408 
L 353.251523 -264.970776 
L 354.619142 -264.69225 
L 355.961196 -265.753303 
L 357.278624 -265.810776 
L 358.572313 -266.106987 
L 359.843104 -266.519618 
L 361.091794 -266.578566 
L 362.319136 -266.696461 
L 363.525851 -266.814355 
L 364.712619 -266.814355 
L 365.880089 -267.403829 
L 367.028878 -267.639618 
L 368.159576 -268.05225 
L 369.272743 -267.639618 
L 370.368914 -268.229092 
L 371.4486 -268.229092 
L 372.512291 -268.346987 
L 373.560453 -268.346987 
L 374.593533 -269.054355 
L 375.611959 -269.820671 
L 376.616141 -269.938566 
L 377.606471 -270.645934 
L 378.583327 -270.645934 
L 379.547071 -271.471197 
L 380.498049 -271.176461 
L 381.436596 -271.883829 
L 382.363032 -271.942776 
L 383.277666 -272.398145 
L 384.180795 -273.357513 
L 385.072705 -272.826987 
L 385.953671 -273.593303 
L 386.823958 -273.357513 
L 387.683823 -273.65225 
L 388.533511 -273.711197 
L 389.373261 -273.888039 
L 390.203303 -274.890145 
L 391.023858 -274.890145 
L 391.835142 -275.302776 
L 392.63736 -275.479618 
L 393.430714 -276.481724 
L 394.215398 -276.481724 
L 394.215398 -282.848039 
L 394.215398 -282.848039 
L 393.430714 -282.435408 
L 392.63736 -282.376461 
L 391.835142 -282.262987 
L 391.023858 -282.022776 
L 390.203303 -281.551197 
L 389.373261 -281.49225 
L 388.533511 -281.433303 
L 387.683823 -281.315408 
L 386.823958 -280.902776 
L 385.953671 -280.725934 
L 385.072705 -280.725934 
L 384.180795 -280.666987 
L 383.277666 -280.018566 
L 382.363032 -280.381092 
L 381.436596 -279.075408 
L 380.498049 -279.016461 
L 379.547071 -278.073303 
L 378.583327 -277.837513 
L 377.606471 -277.837513 
L 376.616141 -277.660671 
L 375.611959 -277.130145 
L 374.593533 -276.670355 
L 373.560453 -276.658566 
L 372.512291 -276.548039 
L 371.4486 -276.481724 
L 370.368914 -276.069092 
L 369.272743 -276.069092 
L 368.159576 -275.89225 
L 367.028878 -275.656461 
L 365.880089 -275.066987 
L 364.712619 -274.835618 
L 363.525851 -274.713303 
L 362.319136 -273.888039 
L 361.091794 -273.534355 
L 359.843104 -273.239618 
L 358.572313 -272.303829 
L 357.278624 -272.299408 
L 355.961196 -272.296461 
L 354.619142 -272.246355 
L 353.251523 -271.883829 
L 351.857347 -271.648039 
L 350.435561 -271.058566 
L 348.985051 -271.058566 
L 347.504631 -271.058566 
L 345.993042 -270.586987 
L 344.448944 -269.584882 
L 342.870906 -269.353513 
L 341.257404 -269.290145 
L 339.606807 -268.995408 
L 337.917369 -268.936461 
L 336.187217 -267.875408 
L 334.414342 -267.46425 
L 332.596578 -266.696461 
L 330.731595 -266.519618 
L 328.816873 -266.283829 
L 326.849687 -266.048039 
L 324.827079 -265.281724 
L 322.745837 -264.633303 
L 320.60246 -264.043829 
L 318.393122 -263.984882 
L 316.113635 -263.513303 
L 313.759397 -259.917513 
L 311.32534 -259.328039 
L 308.805859 -258.502776 
L 306.194742 -258.031197 
L 303.485069 -256.734355 
L 300.669107 -255.555408 
L 297.738177 -254.730145 
L 294.68249 -253.374355 
L 291.49095 -252.666987 
L 288.150915 -251.959618 
L 284.647888 -250.603829 
L 280.965141 -248.835408 
L 277.083233 -245.180671 
L 272.979383 -244.237513 
L 268.626668 -243.235408 
L 263.992943 -240.936461 
L 259.039406 -236.928039 
L 253.718615 -235.395408 
L 247.971723 -231.622776 
L 241.724496 -229.686355 
L 234.881434 -228.262776 
L 227.316779 -227.260671 
L 218.860214 -225.197513 
L 209.272952 -223.075408 
L 198.205269 -221.483829 
L 185.11498 -218.949092 
L 169.09376 -212.346987 
L 148.438816 -208.869092 
L 119.327306 -200.203829 
L 69.560852 -189.770145 
z
" id="m259f091cb7" style="stroke:#d62728;stroke-opacity:0.2;"/>
    </defs>
    <g clip-path="url(#p50cb8fde66)">
     <use style="fill:#d62728;fill-opacity:0.2;stroke:#d62728;stroke-opacity:0.2;" x="0" xlink:href="#m259f091cb7" y="325.986375"/>
    </g>
   </g>
   <g id="matplotlib.axis_1">
    <g id="xtick_1">
     <g id="line2d_1">
      <defs>
       <path d="M 0 0 
L 0 3.5 
" id="m0625e8c286" style="stroke:#000000;stroke-width:0.8;"/>
      </defs>
      <g>
       <use style="stroke:#000000;stroke-width:0.8;" x="69.560852" xlink:href="#m0625e8c286" y="288.430125"/>
      </g>
     </g>
     <g id="text_1">
      <!-- 14m -->
      <g transform="translate(58.32804 303.028562)scale(0.1 -0.1)">
       <defs>
        <path d="M 794 531 
L 1825 531 
L 1825 4091 
L 703 3866 
L 703 4441 
L 1819 4666 
L 2450 4666 
L 2450 531 
L 3481 531 
L 3481 0 
L 794 0 
L 794 531 
z
" id="DejaVuSans-31" transform="scale(0.015625)"/>
        <path d="M 2419 4116 
L 825 1625 
L 2419 1625 
L 2419 4116 
z
M 2253 4666 
L 3047 4666 
L 3047 1625 
L 3713 1625 
L 3713 1100 
L 3047 1100 
L 3047 0 
L 2419 0 
L 2419 1100 
L 313 1100 
L 313 1709 
L 2253 4666 
z
" id="DejaVuSans-34" transform="scale(0.015625)"/>
        <path d="M 3328 2828 
Q 3544 3216 3844 3400 
Q 4144 3584 4550 3584 
Q 5097 3584 5394 3201 
Q 5691 2819 5691 2113 
L 5691 0 
L 5113 0 
L 5113 2094 
Q 5113 2597 4934 2840 
Q 4756 3084 4391 3084 
Q 3944 3084 3684 2787 
Q 3425 2491 3425 1978 
L 3425 0 
L 2847 0 
L 2847 2094 
Q 2847 2600 2669 2842 
Q 2491 3084 2119 3084 
Q 1678 3084 1418 2786 
Q 1159 2488 1159 1978 
L 1159 0 
L 581 0 
L 581 3500 
L 1159 3500 
L 1159 2956 
Q 1356 3278 1631 3431 
Q 1906 3584 2284 3584 
Q 2666 3584 2933 3390 
Q 3200 3197 3328 2828 
z
" id="DejaVuSans-6d" transform="scale(0.015625)"/>
       </defs>
       <use xlink:href="#DejaVuSans-31"/>
       <use x="63.623047" xlink:href="#DejaVuSans-34"/>
       <use x="127.246094" xlink:href="#DejaVuSans-6d"/>
      </g>
     </g>
    </g>
    <g id="xtick_2">
     <g id="line2d_2">
      <g>
       <use style="stroke:#000000;stroke-width:0.8;" x="134.491935" xlink:href="#m0625e8c286" y="288.430125"/>
      </g>
     </g>
     <g id="text_2">
      <!-- 37m -->
      <g transform="translate(123.259122 303.028562)scale(0.1 -0.1)">
       <defs>
        <path d="M 2597 2516 
Q 3050 2419 3304 2112 
Q 3559 1806 3559 1356 
Q 3559 666 3084 287 
Q 2609 -91 1734 -91 
Q 1441 -91 1130 -33 
Q 819 25 488 141 
L 488 750 
Q 750 597 1062 519 
Q 1375 441 1716 441 
Q 2309 441 2620 675 
Q 2931 909 2931 1356 
Q 2931 1769 2642 2001 
Q 2353 2234 1838 2234 
L 1294 2234 
L 1294 2753 
L 1863 2753 
Q 2328 2753 2575 2939 
Q 2822 3125 2822 3475 
Q 2822 3834 2567 4026 
Q 2313 4219 1838 4219 
Q 1578 4219 1281 4162 
Q 984 4106 628 3988 
L 628 4550 
Q 988 4650 1302 4700 
Q 1616 4750 1894 4750 
Q 2613 4750 3031 4423 
Q 3450 4097 3450 3541 
Q 3450 3153 3228 2886 
Q 3006 2619 2597 2516 
z
" id="DejaVuSans-33" transform="scale(0.015625)"/>
        <path d="M 525 4666 
L 3525 4666 
L 3525 4397 
L 1831 0 
L 1172 0 
L 2766 4134 
L 525 4134 
L 525 4666 
z
" id="DejaVuSans-37" transform="scale(0.015625)"/>
       </defs>
       <use xlink:href="#DejaVuSans-33"/>
       <use x="63.623047" xlink:href="#DejaVuSans-37"/>
       <use x="127.246094" xlink:href="#DejaVuSans-6d"/>
      </g>
     </g>
    </g>
    <g id="xtick_3">
     <g id="line2d_3">
      <g>
       <use style="stroke:#000000;stroke-width:0.8;" x="199.423017" xlink:href="#m0625e8c286" y="288.430125"/>
      </g>
     </g>
     <g id="text_3">
      <!-- 1h:31m -->
      <g transform="translate(180.15583 303.028562)scale(0.1 -0.1)">
       <defs>
        <path d="M 3513 2113 
L 3513 0 
L 2938 0 
L 2938 2094 
Q 2938 2591 2744 2837 
Q 2550 3084 2163 3084 
Q 1697 3084 1428 2787 
Q 1159 2491 1159 1978 
L 1159 0 
L 581 0 
L 581 4863 
L 1159 4863 
L 1159 2956 
Q 1366 3272 1645 3428 
Q 1925 3584 2291 3584 
Q 2894 3584 3203 3211 
Q 3513 2838 3513 2113 
z
" id="DejaVuSans-68" transform="scale(0.015625)"/>
        <path d="M 750 794 
L 1409 794 
L 1409 0 
L 750 0 
L 750 794 
z
M 750 3309 
L 1409 3309 
L 1409 2516 
L 750 2516 
L 750 3309 
z
" id="DejaVuSans-3a" transform="scale(0.015625)"/>
       </defs>
       <use xlink:href="#DejaVuSans-31"/>
       <use x="63.623047" xlink:href="#DejaVuSans-68"/>
       <use x="127.001953" xlink:href="#DejaVuSans-3a"/>
       <use x="160.693359" xlink:href="#DejaVuSans-33"/>
       <use x="224.316406" xlink:href="#DejaVuSans-31"/>
       <use x="287.939453" xlink:href="#DejaVuSans-6d"/>
      </g>
     </g>
    </g>
    <g id="xtick_4">
     <g id="line2d_4">
      <g>
       <use style="stroke:#000000;stroke-width:0.8;" x="264.3541" xlink:href="#m0625e8c286" y="288.430125"/>
      </g>
     </g>
     <g id="text_4">
      <!-- 3h:46m -->
      <g transform="translate(245.086912 303.028562)scale(0.1 -0.1)">
       <defs>
        <path d="M 2113 2584 
Q 1688 2584 1439 2293 
Q 1191 2003 1191 1497 
Q 1191 994 1439 701 
Q 1688 409 2113 409 
Q 2538 409 2786 701 
Q 3034 994 3034 1497 
Q 3034 2003 2786 2293 
Q 2538 2584 2113 2584 
z
M 3366 4563 
L 3366 3988 
Q 3128 4100 2886 4159 
Q 2644 4219 2406 4219 
Q 1781 4219 1451 3797 
Q 1122 3375 1075 2522 
Q 1259 2794 1537 2939 
Q 1816 3084 2150 3084 
Q 2853 3084 3261 2657 
Q 3669 2231 3669 1497 
Q 3669 778 3244 343 
Q 2819 -91 2113 -91 
Q 1303 -91 875 529 
Q 447 1150 447 2328 
Q 447 3434 972 4092 
Q 1497 4750 2381 4750 
Q 2619 4750 2861 4703 
Q 3103 4656 3366 4563 
z
" id="DejaVuSans-36" transform="scale(0.015625)"/>
       </defs>
       <use xlink:href="#DejaVuSans-33"/>
       <use x="63.623047" xlink:href="#DejaVuSans-68"/>
       <use x="127.001953" xlink:href="#DejaVuSans-3a"/>
       <use x="160.693359" xlink:href="#DejaVuSans-34"/>
       <use x="224.316406" xlink:href="#DejaVuSans-36"/>
       <use x="287.939453" xlink:href="#DejaVuSans-6d"/>
      </g>
     </g>
    </g>
    <g id="xtick_5">
     <g id="line2d_5">
      <g>
       <use style="stroke:#000000;stroke-width:0.8;" x="329.285182" xlink:href="#m0625e8c286" y="288.430125"/>
      </g>
     </g>
     <g id="text_5">
      <!-- 9h:18m -->
      <g transform="translate(310.017995 303.028562)scale(0.1 -0.1)">
       <defs>
        <path d="M 703 97 
L 703 672 
Q 941 559 1184 500 
Q 1428 441 1663 441 
Q 2288 441 2617 861 
Q 2947 1281 2994 2138 
Q 2813 1869 2534 1725 
Q 2256 1581 1919 1581 
Q 1219 1581 811 2004 
Q 403 2428 403 3163 
Q 403 3881 828 4315 
Q 1253 4750 1959 4750 
Q 2769 4750 3195 4129 
Q 3622 3509 3622 2328 
Q 3622 1225 3098 567 
Q 2575 -91 1691 -91 
Q 1453 -91 1209 -44 
Q 966 3 703 97 
z
M 1959 2075 
Q 2384 2075 2632 2365 
Q 2881 2656 2881 3163 
Q 2881 3666 2632 3958 
Q 2384 4250 1959 4250 
Q 1534 4250 1286 3958 
Q 1038 3666 1038 3163 
Q 1038 2656 1286 2365 
Q 1534 2075 1959 2075 
z
" id="DejaVuSans-39" transform="scale(0.015625)"/>
        <path d="M 2034 2216 
Q 1584 2216 1326 1975 
Q 1069 1734 1069 1313 
Q 1069 891 1326 650 
Q 1584 409 2034 409 
Q 2484 409 2743 651 
Q 3003 894 3003 1313 
Q 3003 1734 2745 1975 
Q 2488 2216 2034 2216 
z
M 1403 2484 
Q 997 2584 770 2862 
Q 544 3141 544 3541 
Q 544 4100 942 4425 
Q 1341 4750 2034 4750 
Q 2731 4750 3128 4425 
Q 3525 4100 3525 3541 
Q 3525 3141 3298 2862 
Q 3072 2584 2669 2484 
Q 3125 2378 3379 2068 
Q 3634 1759 3634 1313 
Q 3634 634 3220 271 
Q 2806 -91 2034 -91 
Q 1263 -91 848 271 
Q 434 634 434 1313 
Q 434 1759 690 2068 
Q 947 2378 1403 2484 
z
M 1172 3481 
Q 1172 3119 1398 2916 
Q 1625 2713 2034 2713 
Q 2441 2713 2670 2916 
Q 2900 3119 2900 3481 
Q 2900 3844 2670 4047 
Q 2441 4250 2034 4250 
Q 1625 4250 1398 4047 
Q 1172 3844 1172 3481 
z
" id="DejaVuSans-38" transform="scale(0.015625)"/>
       </defs>
       <use xlink:href="#DejaVuSans-39"/>
       <use x="63.623047" xlink:href="#DejaVuSans-68"/>
       <use x="127.001953" xlink:href="#DejaVuSans-3a"/>
       <use x="160.693359" xlink:href="#DejaVuSans-31"/>
       <use x="224.316406" xlink:href="#DejaVuSans-38"/>
       <use x="287.939453" xlink:href="#DejaVuSans-6d"/>
      </g>
     </g>
    </g>
    <g id="xtick_6">
     <g id="line2d_6">
      <g>
       <use style="stroke:#000000;stroke-width:0.8;" x="394.216265" xlink:href="#m0625e8c286" y="288.430125"/>
      </g>
     </g>
     <g id="text_6">
      <!-- 23h -->
      <g transform="translate(384.685015 303.028562)scale(0.1 -0.1)">
       <defs>
        <path d="M 1228 531 
L 3431 531 
L 3431 0 
L 469 0 
L 469 531 
Q 828 903 1448 1529 
Q 2069 2156 2228 2338 
Q 2531 2678 2651 2914 
Q 2772 3150 2772 3378 
Q 2772 3750 2511 3984 
Q 2250 4219 1831 4219 
Q 1534 4219 1204 4116 
Q 875 4013 500 3803 
L 500 4441 
Q 881 4594 1212 4672 
Q 1544 4750 1819 4750 
Q 2544 4750 2975 4387 
Q 3406 4025 3406 3419 
Q 3406 3131 3298 2873 
Q 3191 2616 2906 2266 
Q 2828 2175 2409 1742 
Q 1991 1309 1228 531 
z
" id="DejaVuSans-32" transform="scale(0.015625)"/>
       </defs>
       <use xlink:href="#DejaVuSans-32"/>
       <use x="63.623047" xlink:href="#DejaVuSans-33"/>
       <use x="127.246094" xlink:href="#DejaVuSans-68"/>
      </g>
     </g>
    </g>
    <g id="xtick_7">
     <g id="line2d_7">
      <defs>
       <path d="M 0 0 
L 0 2 
" id="m0188e6d16b" style="stroke:#000000;stroke-width:0.6;"/>
      </defs>
      <g>
       <use style="stroke:#000000;stroke-width:0.6;" x="61.104288" xlink:href="#m0188e6d16b" y="288.430125"/>
      </g>
     </g>
    </g>
    <g id="xtick_8">
     <g id="line2d_8">
      <g>
       <use style="stroke:#000000;stroke-width:0.6;" x="126.891961" xlink:href="#m0188e6d16b" y="288.430125"/>
      </g>
     </g>
    </g>
    <g id="xtick_9">
     <g id="line2d_9">
      <g>
       <use style="stroke:#000000;stroke-width:0.6;" x="156.00347" xlink:href="#m0188e6d16b" y="288.430125"/>
      </g>
     </g>
    </g>
    <g id="xtick_10">
     <g id="line2d_10">
      <g>
       <use style="stroke:#000000;stroke-width:0.6;" x="176.658415" xlink:href="#m0188e6d16b" y="288.430125"/>
      </g>
     </g>
    </g>
    <g id="xtick_11">
     <g id="line2d_11">
      <g>
       <use style="stroke:#000000;stroke-width:0.6;" x="192.679635" xlink:href="#m0188e6d16b" y="288.430125"/>
      </g>
     </g>
    </g>
    <g id="xtick_12">
     <g id="line2d_12">
      <g>
       <use style="stroke:#000000;stroke-width:0.6;" x="205.769924" xlink:href="#m0188e6d16b" y="288.430125"/>
      </g>
     </g>
    </g>
    <g id="xtick_13">
     <g id="line2d_13">
      <g>
       <use style="stroke:#000000;stroke-width:0.6;" x="216.837607" xlink:href="#m0188e6d16b" y="288.430125"/>
      </g>
     </g>
    </g>
    <g id="xtick_14">
     <g id="line2d_14">
      <g>
       <use style="stroke:#000000;stroke-width:0.6;" x="226.424869" xlink:href="#m0188e6d16b" y="288.430125"/>
      </g>
     </g>
    </g>
    <g id="xtick_15">
     <g id="line2d_15">
      <g>
       <use style="stroke:#000000;stroke-width:0.6;" x="234.881434" xlink:href="#m0188e6d16b" y="288.430125"/>
      </g>
     </g>
    </g>
    <g id="xtick_16">
     <g id="line2d_16">
      <g>
       <use style="stroke:#000000;stroke-width:0.6;" x="292.212543" xlink:href="#m0188e6d16b" y="288.430125"/>
      </g>
     </g>
    </g>
    <g id="xtick_17">
     <g id="line2d_17">
      <g>
       <use style="stroke:#000000;stroke-width:0.6;" x="321.324052" xlink:href="#m0188e6d16b" y="288.430125"/>
      </g>
     </g>
    </g>
    <g id="xtick_18">
     <g id="line2d_18">
      <g>
       <use style="stroke:#000000;stroke-width:0.6;" x="341.978996" xlink:href="#m0188e6d16b" y="288.430125"/>
      </g>
     </g>
    </g>
    <g id="xtick_19">
     <g id="line2d_19">
      <g>
       <use style="stroke:#000000;stroke-width:0.6;" x="358.000216" xlink:href="#m0188e6d16b" y="288.430125"/>
      </g>
     </g>
    </g>
    <g id="xtick_20">
     <g id="line2d_20">
      <g>
       <use style="stroke:#000000;stroke-width:0.6;" x="371.090506" xlink:href="#m0188e6d16b" y="288.430125"/>
      </g>
     </g>
    </g>
    <g id="xtick_21">
     <g id="line2d_21">
      <g>
       <use style="stroke:#000000;stroke-width:0.6;" x="382.158188" xlink:href="#m0188e6d16b" y="288.430125"/>
      </g>
     </g>
    </g>
    <g id="xtick_22">
     <g id="line2d_22">
      <g>
       <use style="stroke:#000000;stroke-width:0.6;" x="391.74545" xlink:href="#m0188e6d16b" y="288.430125"/>
      </g>
     </g>
    </g>
    <g id="xtick_23">
     <g id="line2d_23">
      <g>
       <use style="stroke:#000000;stroke-width:0.6;" x="400.202015" xlink:href="#m0188e6d16b" y="288.430125"/>
      </g>
     </g>
    </g>
    <g id="text_7">
     <!-- Time (hour:minute) -->
     <g transform="translate(183.481094 316.706687)scale(0.1 -0.1)">
      <defs>
       <path d="M -19 4666 
L 3928 4666 
L 3928 4134 
L 2272 4134 
L 2272 0 
L 1638 0 
L 1638 4134 
L -19 4134 
L -19 4666 
z
" id="DejaVuSans-54" transform="scale(0.015625)"/>
       <path d="M 603 3500 
L 1178 3500 
L 1178 0 
L 603 0 
L 603 3500 
z
M 603 4863 
L 1178 4863 
L 1178 4134 
L 603 4134 
L 603 4863 
z
" id="DejaVuSans-69" transform="scale(0.015625)"/>
       <path d="M 3597 1894 
L 3597 1613 
L 953 1613 
Q 991 1019 1311 708 
Q 1631 397 2203 397 
Q 2534 397 2845 478 
Q 3156 559 3463 722 
L 3463 178 
Q 3153 47 2828 -22 
Q 2503 -91 2169 -91 
Q 1331 -91 842 396 
Q 353 884 353 1716 
Q 353 2575 817 3079 
Q 1281 3584 2069 3584 
Q 2775 3584 3186 3129 
Q 3597 2675 3597 1894 
z
M 3022 2063 
Q 3016 2534 2758 2815 
Q 2500 3097 2075 3097 
Q 1594 3097 1305 2825 
Q 1016 2553 972 2059 
L 3022 2063 
z
" id="DejaVuSans-65" transform="scale(0.015625)"/>
       <path id="DejaVuSans-20" transform="scale(0.015625)"/>
       <path d="M 1984 4856 
Q 1566 4138 1362 3434 
Q 1159 2731 1159 2009 
Q 1159 1288 1364 580 
Q 1569 -128 1984 -844 
L 1484 -844 
Q 1016 -109 783 600 
Q 550 1309 550 2009 
Q 550 2706 781 3412 
Q 1013 4119 1484 4856 
L 1984 4856 
z
" id="DejaVuSans-28" transform="scale(0.015625)"/>
       <path d="M 1959 3097 
Q 1497 3097 1228 2736 
Q 959 2375 959 1747 
Q 959 1119 1226 758 
Q 1494 397 1959 397 
Q 2419 397 2687 759 
Q 2956 1122 2956 1747 
Q 2956 2369 2687 2733 
Q 2419 3097 1959 3097 
z
M 1959 3584 
Q 2709 3584 3137 3096 
Q 3566 2609 3566 1747 
Q 3566 888 3137 398 
Q 2709 -91 1959 -91 
Q 1206 -91 779 398 
Q 353 888 353 1747 
Q 353 2609 779 3096 
Q 1206 3584 1959 3584 
z
" id="DejaVuSans-6f" transform="scale(0.015625)"/>
       <path d="M 544 1381 
L 544 3500 
L 1119 3500 
L 1119 1403 
Q 1119 906 1312 657 
Q 1506 409 1894 409 
Q 2359 409 2629 706 
Q 2900 1003 2900 1516 
L 2900 3500 
L 3475 3500 
L 3475 0 
L 2900 0 
L 2900 538 
Q 2691 219 2414 64 
Q 2138 -91 1772 -91 
Q 1169 -91 856 284 
Q 544 659 544 1381 
z
M 1991 3584 
L 1991 3584 
z
" id="DejaVuSans-75" transform="scale(0.015625)"/>
       <path d="M 2631 2963 
Q 2534 3019 2420 3045 
Q 2306 3072 2169 3072 
Q 1681 3072 1420 2755 
Q 1159 2438 1159 1844 
L 1159 0 
L 581 0 
L 581 3500 
L 1159 3500 
L 1159 2956 
Q 1341 3275 1631 3429 
Q 1922 3584 2338 3584 
Q 2397 3584 2469 3576 
Q 2541 3569 2628 3553 
L 2631 2963 
z
" id="DejaVuSans-72" transform="scale(0.015625)"/>
       <path d="M 3513 2113 
L 3513 0 
L 2938 0 
L 2938 2094 
Q 2938 2591 2744 2837 
Q 2550 3084 2163 3084 
Q 1697 3084 1428 2787 
Q 1159 2491 1159 1978 
L 1159 0 
L 581 0 
L 581 3500 
L 1159 3500 
L 1159 2956 
Q 1366 3272 1645 3428 
Q 1925 3584 2291 3584 
Q 2894 3584 3203 3211 
Q 3513 2838 3513 2113 
z
" id="DejaVuSans-6e" transform="scale(0.015625)"/>
       <path d="M 1172 4494 
L 1172 3500 
L 2356 3500 
L 2356 3053 
L 1172 3053 
L 1172 1153 
Q 1172 725 1289 603 
Q 1406 481 1766 481 
L 2356 481 
L 2356 0 
L 1766 0 
Q 1100 0 847 248 
Q 594 497 594 1153 
L 594 3053 
L 172 3053 
L 172 3500 
L 594 3500 
L 594 4494 
L 1172 4494 
z
" id="DejaVuSans-74" transform="scale(0.015625)"/>
       <path d="M 513 4856 
L 1013 4856 
Q 1481 4119 1714 3412 
Q 1947 2706 1947 2009 
Q 1947 1309 1714 600 
Q 1481 -109 1013 -844 
L 513 -844 
Q 928 -128 1133 580 
Q 1338 1288 1338 2009 
Q 1338 2731 1133 3434 
Q 928 4138 513 4856 
z
" id="DejaVuSans-29" transform="scale(0.015625)"/>
      </defs>
      <use xlink:href="#DejaVuSans-54"/>
      <use x="57.958984" xlink:href="#DejaVuSans-69"/>
      <use x="85.742188" xlink:href="#DejaVuSans-6d"/>
      <use x="183.154297" xlink:href="#DejaVuSans-65"/>
      <use x="244.677734" xlink:href="#DejaVuSans-20"/>
      <use x="276.464844" xlink:href="#DejaVuSans-28"/>
      <use x="315.478516" xlink:href="#DejaVuSans-68"/>
      <use x="378.857422" xlink:href="#DejaVuSans-6f"/>
      <use x="440.039062" xlink:href="#DejaVuSans-75"/>
      <use x="503.417969" xlink:href="#DejaVuSans-72"/>
      <use x="542.78125" xlink:href="#DejaVuSans-3a"/>
      <use x="576.472656" xlink:href="#DejaVuSans-6d"/>
      <use x="673.884766" xlink:href="#DejaVuSans-69"/>
      <use x="701.667969" xlink:href="#DejaVuSans-6e"/>
      <use x="765.046875" xlink:href="#DejaVuSans-75"/>
      <use x="828.425781" xlink:href="#DejaVuSans-74"/>
      <use x="867.634766" xlink:href="#DejaVuSans-65"/>
      <use x="929.158203" xlink:href="#DejaVuSans-29"/>
     </g>
    </g>
   </g>
   <g id="matplotlib.axis_2">
    <g id="ytick_1">
     <g id="line2d_24">
      <defs>
       <path d="M 0 0 
L -3.5 0 
" id="m6fd7379a8f" style="stroke:#000000;stroke-width:0.8;"/>
      </defs>
      <g>
       <use style="stroke:#000000;stroke-width:0.8;" x="53.328125" xlink:href="#m6fd7379a8f" y="241.908862"/>
      </g>
     </g>
     <g id="text_8">
      <!-- 1500 -->
      <g transform="translate(20.878125 245.708081)scale(0.1 -0.1)">
       <defs>
        <path d="M 691 4666 
L 3169 4666 
L 3169 4134 
L 1269 4134 
L 1269 2991 
Q 1406 3038 1543 3061 
Q 1681 3084 1819 3084 
Q 2600 3084 3056 2656 
Q 3513 2228 3513 1497 
Q 3513 744 3044 326 
Q 2575 -91 1722 -91 
Q 1428 -91 1123 -41 
Q 819 9 494 109 
L 494 744 
Q 775 591 1075 516 
Q 1375 441 1709 441 
Q 2250 441 2565 725 
Q 2881 1009 2881 1497 
Q 2881 1984 2565 2268 
Q 2250 2553 1709 2553 
Q 1456 2553 1204 2497 
Q 953 2441 691 2322 
L 691 4666 
z
" id="DejaVuSans-35" transform="scale(0.015625)"/>
        <path d="M 2034 4250 
Q 1547 4250 1301 3770 
Q 1056 3291 1056 2328 
Q 1056 1369 1301 889 
Q 1547 409 2034 409 
Q 2525 409 2770 889 
Q 3016 1369 3016 2328 
Q 3016 3291 2770 3770 
Q 2525 4250 2034 4250 
z
M 2034 4750 
Q 2819 4750 3233 4129 
Q 3647 3509 3647 2328 
Q 3647 1150 3233 529 
Q 2819 -91 2034 -91 
Q 1250 -91 836 529 
Q 422 1150 422 2328 
Q 422 3509 836 4129 
Q 1250 4750 2034 4750 
z
" id="DejaVuSans-30" transform="scale(0.015625)"/>
       </defs>
       <use xlink:href="#DejaVuSans-31"/>
       <use x="63.623047" xlink:href="#DejaVuSans-35"/>
       <use x="127.246094" xlink:href="#DejaVuSans-30"/>
       <use x="190.869141" xlink:href="#DejaVuSans-30"/>
      </g>
     </g>
    </g>
    <g id="ytick_2">
     <g id="line2d_25">
      <g>
       <use style="stroke:#000000;stroke-width:0.8;" x="53.328125" xlink:href="#m6fd7379a8f" y="182.961493"/>
      </g>
     </g>
     <g id="text_9">
      <!-- 2000 -->
      <g transform="translate(20.878125 186.760712)scale(0.1 -0.1)">
       <use xlink:href="#DejaVuSans-32"/>
       <use x="63.623047" xlink:href="#DejaVuSans-30"/>
       <use x="127.246094" xlink:href="#DejaVuSans-30"/>
       <use x="190.869141" xlink:href="#DejaVuSans-30"/>
      </g>
     </g>
    </g>
    <g id="ytick_3">
     <g id="line2d_26">
      <g>
       <use style="stroke:#000000;stroke-width:0.8;" x="53.328125" xlink:href="#m6fd7379a8f" y="124.014125"/>
      </g>
     </g>
     <g id="text_10">
      <!-- 2500 -->
      <g transform="translate(20.878125 127.813344)scale(0.1 -0.1)">
       <use xlink:href="#DejaVuSans-32"/>
       <use x="63.623047" xlink:href="#DejaVuSans-35"/>
       <use x="127.246094" xlink:href="#DejaVuSans-30"/>
       <use x="190.869141" xlink:href="#DejaVuSans-30"/>
      </g>
     </g>
    </g>
    <g id="ytick_4">
     <g id="line2d_27">
      <g>
       <use style="stroke:#000000;stroke-width:0.8;" x="53.328125" xlink:href="#m6fd7379a8f" y="65.066757"/>
      </g>
     </g>
     <g id="text_11">
      <!-- 3000 -->
      <g transform="translate(20.878125 68.865975)scale(0.1 -0.1)">
       <use xlink:href="#DejaVuSans-33"/>
       <use x="63.623047" xlink:href="#DejaVuSans-30"/>
       <use x="127.246094" xlink:href="#DejaVuSans-30"/>
       <use x="190.869141" xlink:href="#DejaVuSans-30"/>
      </g>
     </g>
    </g>
    <g id="text_12">
     <!-- Code region coverage -->
     <g transform="translate(14.798438 210.379594)rotate(-90)scale(0.1 -0.1)">
      <defs>
       <path d="M 4122 4306 
L 4122 3641 
Q 3803 3938 3442 4084 
Q 3081 4231 2675 4231 
Q 1875 4231 1450 3742 
Q 1025 3253 1025 2328 
Q 1025 1406 1450 917 
Q 1875 428 2675 428 
Q 3081 428 3442 575 
Q 3803 722 4122 1019 
L 4122 359 
Q 3791 134 3420 21 
Q 3050 -91 2638 -91 
Q 1578 -91 968 557 
Q 359 1206 359 2328 
Q 359 3453 968 4101 
Q 1578 4750 2638 4750 
Q 3056 4750 3426 4639 
Q 3797 4528 4122 4306 
z
" id="DejaVuSans-43" transform="scale(0.015625)"/>
       <path d="M 2906 2969 
L 2906 4863 
L 3481 4863 
L 3481 0 
L 2906 0 
L 2906 525 
Q 2725 213 2448 61 
Q 2172 -91 1784 -91 
Q 1150 -91 751 415 
Q 353 922 353 1747 
Q 353 2572 751 3078 
Q 1150 3584 1784 3584 
Q 2172 3584 2448 3432 
Q 2725 3281 2906 2969 
z
M 947 1747 
Q 947 1113 1208 752 
Q 1469 391 1925 391 
Q 2381 391 2643 752 
Q 2906 1113 2906 1747 
Q 2906 2381 2643 2742 
Q 2381 3103 1925 3103 
Q 1469 3103 1208 2742 
Q 947 2381 947 1747 
z
" id="DejaVuSans-64" transform="scale(0.015625)"/>
       <path d="M 2906 1791 
Q 2906 2416 2648 2759 
Q 2391 3103 1925 3103 
Q 1463 3103 1205 2759 
Q 947 2416 947 1791 
Q 947 1169 1205 825 
Q 1463 481 1925 481 
Q 2391 481 2648 825 
Q 2906 1169 2906 1791 
z
M 3481 434 
Q 3481 -459 3084 -895 
Q 2688 -1331 1869 -1331 
Q 1566 -1331 1297 -1286 
Q 1028 -1241 775 -1147 
L 775 -588 
Q 1028 -725 1275 -790 
Q 1522 -856 1778 -856 
Q 2344 -856 2625 -561 
Q 2906 -266 2906 331 
L 2906 616 
Q 2728 306 2450 153 
Q 2172 0 1784 0 
Q 1141 0 747 490 
Q 353 981 353 1791 
Q 353 2603 747 3093 
Q 1141 3584 1784 3584 
Q 2172 3584 2450 3431 
Q 2728 3278 2906 2969 
L 2906 3500 
L 3481 3500 
L 3481 434 
z
" id="DejaVuSans-67" transform="scale(0.015625)"/>
       <path d="M 3122 3366 
L 3122 2828 
Q 2878 2963 2633 3030 
Q 2388 3097 2138 3097 
Q 1578 3097 1268 2742 
Q 959 2388 959 1747 
Q 959 1106 1268 751 
Q 1578 397 2138 397 
Q 2388 397 2633 464 
Q 2878 531 3122 666 
L 3122 134 
Q 2881 22 2623 -34 
Q 2366 -91 2075 -91 
Q 1284 -91 818 406 
Q 353 903 353 1747 
Q 353 2603 823 3093 
Q 1294 3584 2113 3584 
Q 2378 3584 2631 3529 
Q 2884 3475 3122 3366 
z
" id="DejaVuSans-63" transform="scale(0.015625)"/>
       <path d="M 191 3500 
L 800 3500 
L 1894 563 
L 2988 3500 
L 3597 3500 
L 2284 0 
L 1503 0 
L 191 3500 
z
" id="DejaVuSans-76" transform="scale(0.015625)"/>
       <path d="M 2194 1759 
Q 1497 1759 1228 1600 
Q 959 1441 959 1056 
Q 959 750 1161 570 
Q 1363 391 1709 391 
Q 2188 391 2477 730 
Q 2766 1069 2766 1631 
L 2766 1759 
L 2194 1759 
z
M 3341 1997 
L 3341 0 
L 2766 0 
L 2766 531 
Q 2569 213 2275 61 
Q 1981 -91 1556 -91 
Q 1019 -91 701 211 
Q 384 513 384 1019 
Q 384 1609 779 1909 
Q 1175 2209 1959 2209 
L 2766 2209 
L 2766 2266 
Q 2766 2663 2505 2880 
Q 2244 3097 1772 3097 
Q 1472 3097 1187 3025 
Q 903 2953 641 2809 
L 641 3341 
Q 956 3463 1253 3523 
Q 1550 3584 1831 3584 
Q 2591 3584 2966 3190 
Q 3341 2797 3341 1997 
z
" id="DejaVuSans-61" transform="scale(0.015625)"/>
      </defs>
      <use xlink:href="#DejaVuSans-43"/>
      <use x="69.824219" xlink:href="#DejaVuSans-6f"/>
      <use x="131.005859" xlink:href="#DejaVuSans-64"/>
      <use x="194.482422" xlink:href="#DejaVuSans-65"/>
      <use x="256.005859" xlink:href="#DejaVuSans-20"/>
      <use x="287.792969" xlink:href="#DejaVuSans-72"/>
      <use x="326.65625" xlink:href="#DejaVuSans-65"/>
      <use x="388.179688" xlink:href="#DejaVuSans-67"/>
      <use x="451.65625" xlink:href="#DejaVuSans-69"/>
      <use x="479.439453" xlink:href="#DejaVuSans-6f"/>
      <use x="540.621094" xlink:href="#DejaVuSans-6e"/>
      <use x="604" xlink:href="#DejaVuSans-20"/>
      <use x="635.787109" xlink:href="#DejaVuSans-63"/>
      <use x="690.767578" xlink:href="#DejaVuSans-6f"/>
      <use x="751.949219" xlink:href="#DejaVuSans-76"/>
      <use x="811.128906" xlink:href="#DejaVuSans-65"/>
      <use x="872.652344" xlink:href="#DejaVuSans-72"/>
      <use x="913.765625" xlink:href="#DejaVuSans-61"/>
      <use x="975.044922" xlink:href="#DejaVuSans-67"/>
      <use x="1038.521484" xlink:href="#DejaVuSans-65"/>
     </g>
    </g>
   </g>
   <g id="line2d_28">
    <path clip-path="url(#p50cb8fde66)" d="M 69.560852 135.803599 
L 119.327306 127.904651 
L 148.438816 120.359388 
L 169.09376 116.05623 
L 185.11498 112.401493 
L 198.205269 108.334125 
L 209.272952 106.624651 
L 218.860214 103.205704 
L 227.316779 101.201493 
L 234.881434 99.197283 
L 241.724496 96.780441 
L 247.971723 93.479388 
L 253.718615 88.999388 
L 259.039406 87.820441 
L 263.992943 86.228862 
L 268.626668 84.283599 
L 272.979383 82.220441 
L 277.083233 79.744651 
L 280.965141 78.506757 
L 284.647888 76.384651 
L 288.150915 74.380441 
L 291.49095 73.555178 
L 294.68249 72.494125 
L 297.738177 70.902546 
L 300.669107 69.487809 
L 303.485069 66.422546 
L 306.194742 65.302546 
L 308.805859 64.182546 
L 311.32534 62.29623 
L 313.759397 61.353072 
L 316.113635 61.058336 
L 318.393122 59.348862 
L 320.60246 58.582546 
L 322.745837 58.228862 
L 324.827079 57.757283 
L 326.849687 57.226757 
L 328.816873 56.401493 
L 330.731595 54.69202 
L 332.596578 53.33623 
L 334.414342 53.277283 
L 336.187217 52.510967 
L 337.917369 52.039388 
L 339.606807 51.390967 
L 341.257404 51.273072 
L 342.870906 50.506757 
L 344.448944 50.506757 
L 345.993042 50.153072 
L 347.504631 49.917283 
L 348.985051 49.209914 
L 350.435561 49.09202 
L 351.857347 48.974125 
L 353.251523 48.266757 
L 354.619142 48.030967 
L 355.961196 47.677283 
L 357.278624 47.382546 
L 358.572313 46.910967 
L 359.843104 46.380441 
L 361.091794 46.321493 
L 362.319136 46.144651 
L 363.525851 45.555178 
L 364.712619 45.378336 
L 365.880089 44.965704 
L 367.028878 44.965704 
L 368.159576 44.022546 
L 369.272743 43.020441 
L 370.368914 42.843599 
L 371.4486 42.666757 
L 372.512291 42.430967 
L 373.560453 42.018336 
L 374.593533 41.664651 
L 375.611959 41.193072 
L 376.616141 40.426757 
L 377.606471 40.426757 
L 378.583327 40.190967 
L 379.547071 40.13202 
L 380.498049 39.89623 
L 381.436596 39.660441 
L 382.363032 39.660441 
L 383.277666 39.660441 
L 384.180795 38.245704 
L 385.072705 38.245704 
L 385.953671 38.186757 
L 386.823958 38.127809 
L 387.683823 38.127809 
L 388.533511 37.302546 
L 389.373261 37.302546 
L 390.203303 37.302546 
L 391.023858 37.302546 
L 391.835142 36.889914 
L 392.63736 36.830967 
L 393.430714 36.713072 
L 394.215398 37.243599 
" style="fill:none;stroke:#1f77b4;stroke-linecap:square;stroke-width:1.5;"/>
    <defs>
     <path d="M 0 3 
C 0.795609 3 1.55874 2.683901 2.12132 2.12132 
C 2.683901 1.55874 3 0.795609 3 0 
C 3 -0.795609 2.683901 -1.55874 2.12132 -2.12132 
C 1.55874 -2.683901 0.795609 -3 0 -3 
C -0.795609 -3 -1.55874 -2.683901 -2.12132 -2.12132 
C -2.683901 -1.55874 -3 -0.795609 -3 0 
C -3 0.795609 -2.683901 1.55874 -2.12132 2.12132 
C -1.55874 2.683901 -0.795609 3 0 3 
z
" id="m4dcfe957b1" style="stroke:#ffffff;stroke-width:0.75;"/>
    </defs>
    <g clip-path="url(#p50cb8fde66)">
     <use style="fill:#1f77b4;stroke:#ffffff;stroke-width:0.75;" x="69.560852" xlink:href="#m4dcfe957b1" y="135.803599"/>
     <use style="fill:#1f77b4;stroke:#ffffff;stroke-width:0.75;" x="119.327306" xlink:href="#m4dcfe957b1" y="127.904651"/>
     <use style="fill:#1f77b4;stroke:#ffffff;stroke-width:0.75;" x="148.438816" xlink:href="#m4dcfe957b1" y="120.359388"/>
     <use style="fill:#1f77b4;stroke:#ffffff;stroke-width:0.75;" x="169.09376" xlink:href="#m4dcfe957b1" y="116.05623"/>
     <use style="fill:#1f77b4;stroke:#ffffff;stroke-width:0.75;" x="185.11498" xlink:href="#m4dcfe957b1" y="112.401493"/>
     <use style="fill:#1f77b4;stroke:#ffffff;stroke-width:0.75;" x="198.205269" xlink:href="#m4dcfe957b1" y="108.334125"/>
     <use style="fill:#1f77b4;stroke:#ffffff;stroke-width:0.75;" x="209.272952" xlink:href="#m4dcfe957b1" y="106.624651"/>
     <use style="fill:#1f77b4;stroke:#ffffff;stroke-width:0.75;" x="218.860214" xlink:href="#m4dcfe957b1" y="103.205704"/>
     <use style="fill:#1f77b4;stroke:#ffffff;stroke-width:0.75;" x="227.316779" xlink:href="#m4dcfe957b1" y="101.201493"/>
     <use style="fill:#1f77b4;stroke:#ffffff;stroke-width:0.75;" x="234.881434" xlink:href="#m4dcfe957b1" y="99.197283"/>
     <use style="fill:#1f77b4;stroke:#ffffff;stroke-width:0.75;" x="241.724496" xlink:href="#m4dcfe957b1" y="96.780441"/>
     <use style="fill:#1f77b4;stroke:#ffffff;stroke-width:0.75;" x="247.971723" xlink:href="#m4dcfe957b1" y="93.479388"/>
     <use style="fill:#1f77b4;stroke:#ffffff;stroke-width:0.75;" x="253.718615" xlink:href="#m4dcfe957b1" y="88.999388"/>
     <use style="fill:#1f77b4;stroke:#ffffff;stroke-width:0.75;" x="259.039406" xlink:href="#m4dcfe957b1" y="87.820441"/>
     <use style="fill:#1f77b4;stroke:#ffffff;stroke-width:0.75;" x="263.992943" xlink:href="#m4dcfe957b1" y="86.228862"/>
     <use style="fill:#1f77b4;stroke:#ffffff;stroke-width:0.75;" x="268.626668" xlink:href="#m4dcfe957b1" y="84.283599"/>
     <use style="fill:#1f77b4;stroke:#ffffff;stroke-width:0.75;" x="272.979383" xlink:href="#m4dcfe957b1" y="82.220441"/>
     <use style="fill:#1f77b4;stroke:#ffffff;stroke-width:0.75;" x="277.083233" xlink:href="#m4dcfe957b1" y="79.744651"/>
     <use style="fill:#1f77b4;stroke:#ffffff;stroke-width:0.75;" x="280.965141" xlink:href="#m4dcfe957b1" y="78.506757"/>
     <use style="fill:#1f77b4;stroke:#ffffff;stroke-width:0.75;" x="284.647888" xlink:href="#m4dcfe957b1" y="76.384651"/>
     <use style="fill:#1f77b4;stroke:#ffffff;stroke-width:0.75;" x="288.150915" xlink:href="#m4dcfe957b1" y="74.380441"/>
     <use style="fill:#1f77b4;stroke:#ffffff;stroke-width:0.75;" x="291.49095" xlink:href="#m4dcfe957b1" y="73.555178"/>
     <use style="fill:#1f77b4;stroke:#ffffff;stroke-width:0.75;" x="294.68249" xlink:href="#m4dcfe957b1" y="72.494125"/>
     <use style="fill:#1f77b4;stroke:#ffffff;stroke-width:0.75;" x="297.738177" xlink:href="#m4dcfe957b1" y="70.902546"/>
     <use style="fill:#1f77b4;stroke:#ffffff;stroke-width:0.75;" x="300.669107" xlink:href="#m4dcfe957b1" y="69.487809"/>
     <use style="fill:#1f77b4;stroke:#ffffff;stroke-width:0.75;" x="303.485069" xlink:href="#m4dcfe957b1" y="66.422546"/>
     <use style="fill:#1f77b4;stroke:#ffffff;stroke-width:0.75;" x="306.194742" xlink:href="#m4dcfe957b1" y="65.302546"/>
     <use style="fill:#1f77b4;stroke:#ffffff;stroke-width:0.75;" x="308.805859" xlink:href="#m4dcfe957b1" y="64.182546"/>
     <use style="fill:#1f77b4;stroke:#ffffff;stroke-width:0.75;" x="311.32534" xlink:href="#m4dcfe957b1" y="62.29623"/>
     <use style="fill:#1f77b4;stroke:#ffffff;stroke-width:0.75;" x="313.759397" xlink:href="#m4dcfe957b1" y="61.353072"/>
     <use style="fill:#1f77b4;stroke:#ffffff;stroke-width:0.75;" x="316.113635" xlink:href="#m4dcfe957b1" y="61.058336"/>
     <use style="fill:#1f77b4;stroke:#ffffff;stroke-width:0.75;" x="318.393122" xlink:href="#m4dcfe957b1" y="59.348862"/>
     <use style="fill:#1f77b4;stroke:#ffffff;stroke-width:0.75;" x="320.60246" xlink:href="#m4dcfe957b1" y="58.582546"/>
     <use style="fill:#1f77b4;stroke:#ffffff;stroke-width:0.75;" x="322.745837" xlink:href="#m4dcfe957b1" y="58.228862"/>
     <use style="fill:#1f77b4;stroke:#ffffff;stroke-width:0.75;" x="324.827079" xlink:href="#m4dcfe957b1" y="57.757283"/>
     <use style="fill:#1f77b4;stroke:#ffffff;stroke-width:0.75;" x="326.849687" xlink:href="#m4dcfe957b1" y="57.226757"/>
     <use style="fill:#1f77b4;stroke:#ffffff;stroke-width:0.75;" x="328.816873" xlink:href="#m4dcfe957b1" y="56.401493"/>
     <use style="fill:#1f77b4;stroke:#ffffff;stroke-width:0.75;" x="330.731595" xlink:href="#m4dcfe957b1" y="54.69202"/>
     <use style="fill:#1f77b4;stroke:#ffffff;stroke-width:0.75;" x="332.596578" xlink:href="#m4dcfe957b1" y="53.33623"/>
     <use style="fill:#1f77b4;stroke:#ffffff;stroke-width:0.75;" x="334.414342" xlink:href="#m4dcfe957b1" y="53.277283"/>
     <use style="fill:#1f77b4;stroke:#ffffff;stroke-width:0.75;" x="336.187217" xlink:href="#m4dcfe957b1" y="52.510967"/>
     <use style="fill:#1f77b4;stroke:#ffffff;stroke-width:0.75;" x="337.917369" xlink:href="#m4dcfe957b1" y="52.039388"/>
     <use style="fill:#1f77b4;stroke:#ffffff;stroke-width:0.75;" x="339.606807" xlink:href="#m4dcfe957b1" y="51.390967"/>
     <use style="fill:#1f77b4;stroke:#ffffff;stroke-width:0.75;" x="341.257404" xlink:href="#m4dcfe957b1" y="51.273072"/>
     <use style="fill:#1f77b4;stroke:#ffffff;stroke-width:0.75;" x="342.870906" xlink:href="#m4dcfe957b1" y="50.506757"/>
     <use style="fill:#1f77b4;stroke:#ffffff;stroke-width:0.75;" x="344.448944" xlink:href="#m4dcfe957b1" y="50.506757"/>
     <use style="fill:#1f77b4;stroke:#ffffff;stroke-width:0.75;" x="345.993042" xlink:href="#m4dcfe957b1" y="50.153072"/>
     <use style="fill:#1f77b4;stroke:#ffffff;stroke-width:0.75;" x="347.504631" xlink:href="#m4dcfe957b1" y="49.917283"/>
     <use style="fill:#1f77b4;stroke:#ffffff;stroke-width:0.75;" x="348.985051" xlink:href="#m4dcfe957b1" y="49.209914"/>
     <use style="fill:#1f77b4;stroke:#ffffff;stroke-width:0.75;" x="350.435561" xlink:href="#m4dcfe957b1" y="49.09202"/>
     <use style="fill:#1f77b4;stroke:#ffffff;stroke-width:0.75;" x="351.857347" xlink:href="#m4dcfe957b1" y="48.974125"/>
     <use style="fill:#1f77b4;stroke:#ffffff;stroke-width:0.75;" x="353.251523" xlink:href="#m4dcfe957b1" y="48.266757"/>
     <use style="fill:#1f77b4;stroke:#ffffff;stroke-width:0.75;" x="354.619142" xlink:href="#m4dcfe957b1" y="48.030967"/>
     <use style="fill:#1f77b4;stroke:#ffffff;stroke-width:0.75;" x="355.961196" xlink:href="#m4dcfe957b1" y="47.677283"/>
     <use style="fill:#1f77b4;stroke:#ffffff;stroke-width:0.75;" x="357.278624" xlink:href="#m4dcfe957b1" y="47.382546"/>
     <use style="fill:#1f77b4;stroke:#ffffff;stroke-width:0.75;" x="358.572313" xlink:href="#m4dcfe957b1" y="46.910967"/>
     <use style="fill:#1f77b4;stroke:#ffffff;stroke-width:0.75;" x="359.843104" xlink:href="#m4dcfe957b1" y="46.380441"/>
     <use style="fill:#1f77b4;stroke:#ffffff;stroke-width:0.75;" x="361.091794" xlink:href="#m4dcfe957b1" y="46.321493"/>
     <use style="fill:#1f77b4;stroke:#ffffff;stroke-width:0.75;" x="362.319136" xlink:href="#m4dcfe957b1" y="46.144651"/>
     <use style="fill:#1f77b4;stroke:#ffffff;stroke-width:0.75;" x="363.525851" xlink:href="#m4dcfe957b1" y="45.555178"/>
     <use style="fill:#1f77b4;stroke:#ffffff;stroke-width:0.75;" x="364.712619" xlink:href="#m4dcfe957b1" y="45.378336"/>
     <use style="fill:#1f77b4;stroke:#ffffff;stroke-width:0.75;" x="365.880089" xlink:href="#m4dcfe957b1" y="44.965704"/>
     <use style="fill:#1f77b4;stroke:#ffffff;stroke-width:0.75;" x="367.028878" xlink:href="#m4dcfe957b1" y="44.965704"/>
     <use style="fill:#1f77b4;stroke:#ffffff;stroke-width:0.75;" x="368.159576" xlink:href="#m4dcfe957b1" y="44.022546"/>
     <use style="fill:#1f77b4;stroke:#ffffff;stroke-width:0.75;" x="369.272743" xlink:href="#m4dcfe957b1" y="43.020441"/>
     <use style="fill:#1f77b4;stroke:#ffffff;stroke-width:0.75;" x="370.368914" xlink:href="#m4dcfe957b1" y="42.843599"/>
     <use style="fill:#1f77b4;stroke:#ffffff;stroke-width:0.75;" x="371.4486" xlink:href="#m4dcfe957b1" y="42.666757"/>
     <use style="fill:#1f77b4;stroke:#ffffff;stroke-width:0.75;" x="372.512291" xlink:href="#m4dcfe957b1" y="42.430967"/>
     <use style="fill:#1f77b4;stroke:#ffffff;stroke-width:0.75;" x="373.560453" xlink:href="#m4dcfe957b1" y="42.018336"/>
     <use style="fill:#1f77b4;stroke:#ffffff;stroke-width:0.75;" x="374.593533" xlink:href="#m4dcfe957b1" y="41.664651"/>
     <use style="fill:#1f77b4;stroke:#ffffff;stroke-width:0.75;" x="375.611959" xlink:href="#m4dcfe957b1" y="41.193072"/>
     <use style="fill:#1f77b4;stroke:#ffffff;stroke-width:0.75;" x="376.616141" xlink:href="#m4dcfe957b1" y="40.426757"/>
     <use style="fill:#1f77b4;stroke:#ffffff;stroke-width:0.75;" x="377.606471" xlink:href="#m4dcfe957b1" y="40.426757"/>
     <use style="fill:#1f77b4;stroke:#ffffff;stroke-width:0.75;" x="378.583327" xlink:href="#m4dcfe957b1" y="40.190967"/>
     <use style="fill:#1f77b4;stroke:#ffffff;stroke-width:0.75;" x="379.547071" xlink:href="#m4dcfe957b1" y="40.13202"/>
     <use style="fill:#1f77b4;stroke:#ffffff;stroke-width:0.75;" x="380.498049" xlink:href="#m4dcfe957b1" y="39.89623"/>
     <use style="fill:#1f77b4;stroke:#ffffff;stroke-width:0.75;" x="381.436596" xlink:href="#m4dcfe957b1" y="39.660441"/>
     <use style="fill:#1f77b4;stroke:#ffffff;stroke-width:0.75;" x="382.363032" xlink:href="#m4dcfe957b1" y="39.660441"/>
     <use style="fill:#1f77b4;stroke:#ffffff;stroke-width:0.75;" x="383.277666" xlink:href="#m4dcfe957b1" y="39.660441"/>
     <use style="fill:#1f77b4;stroke:#ffffff;stroke-width:0.75;" x="384.180795" xlink:href="#m4dcfe957b1" y="38.245704"/>
     <use style="fill:#1f77b4;stroke:#ffffff;stroke-width:0.75;" x="385.072705" xlink:href="#m4dcfe957b1" y="38.245704"/>
     <use style="fill:#1f77b4;stroke:#ffffff;stroke-width:0.75;" x="385.953671" xlink:href="#m4dcfe957b1" y="38.186757"/>
     <use style="fill:#1f77b4;stroke:#ffffff;stroke-width:0.75;" x="386.823958" xlink:href="#m4dcfe957b1" y="38.127809"/>
     <use style="fill:#1f77b4;stroke:#ffffff;stroke-width:0.75;" x="387.683823" xlink:href="#m4dcfe957b1" y="38.127809"/>
     <use style="fill:#1f77b4;stroke:#ffffff;stroke-width:0.75;" x="388.533511" xlink:href="#m4dcfe957b1" y="37.302546"/>
     <use style="fill:#1f77b4;stroke:#ffffff;stroke-width:0.75;" x="389.373261" xlink:href="#m4dcfe957b1" y="37.302546"/>
     <use style="fill:#1f77b4;stroke:#ffffff;stroke-width:0.75;" x="390.203303" xlink:href="#m4dcfe957b1" y="37.302546"/>
     <use style="fill:#1f77b4;stroke:#ffffff;stroke-width:0.75;" x="391.023858" xlink:href="#m4dcfe957b1" y="37.302546"/>
     <use style="fill:#1f77b4;stroke:#ffffff;stroke-width:0.75;" x="391.835142" xlink:href="#m4dcfe957b1" y="36.889914"/>
     <use style="fill:#1f77b4;stroke:#ffffff;stroke-width:0.75;" x="392.63736" xlink:href="#m4dcfe957b1" y="36.830967"/>
     <use style="fill:#1f77b4;stroke:#ffffff;stroke-width:0.75;" x="393.430714" xlink:href="#m4dcfe957b1" y="36.713072"/>
     <use style="fill:#1f77b4;stroke:#ffffff;stroke-width:0.75;" x="394.215398" xlink:href="#m4dcfe957b1" y="37.243599"/>
    </g>
   </g>
   <g id="line2d_29">
    <path clip-path="url(#p50cb8fde66)" d="M 69.560852 140.165704 
L 119.327306 129.673072 
L 148.438816 124.13202 
L 169.09376 116.233072 
L 185.11498 112.578336 
L 198.205269 108.923599 
L 209.272952 107.037283 
L 218.860214 102.557283 
L 227.316779 101.319388 
L 234.881434 99.079388 
L 241.724496 97.546757 
L 247.971723 95.955178 
L 253.718615 93.479388 
L 259.039406 92.713072 
L 263.992943 90.29623 
L 268.626668 89.942546 
L 272.979383 89.235178 
L 277.083233 86.346757 
L 280.965141 85.639388 
L 284.647888 82.69202 
L 288.150915 82.279388 
L 291.49095 81.748862 
L 294.68249 77.504651 
L 297.738177 77.445704 
L 300.669107 77.150967 
L 303.485069 76.207809 
L 306.194742 74.085704 
L 308.805859 74.026757 
L 311.32534 73.437283 
L 313.759397 72.37623 
L 316.113635 70.961493 
L 318.393122 69.782546 
L 320.60246 68.485704 
L 322.745837 68.249914 
L 324.827079 67.955178 
L 326.849687 67.719388 
L 328.816873 67.542546 
L 330.731595 67.542546 
L 332.596578 66.835178 
L 334.414342 66.245704 
L 336.187217 64.53623 
L 337.917369 64.53623 
L 339.606807 63.357283 
L 341.257404 62.885704 
L 342.870906 62.649914 
L 344.448944 61.647809 
L 345.993042 61.058336 
L 347.504631 61.058336 
L 348.985051 60.940441 
L 350.435561 59.643599 
L 351.857347 59.525704 
L 353.251523 59.466757 
L 354.619142 58.93623 
L 355.961196 58.759388 
L 357.278624 58.700441 
L 358.572313 58.641493 
L 359.843104 57.580441 
L 361.091794 57.403599 
L 362.319136 57.108862 
L 363.525851 56.637283 
L 364.712619 56.342546 
L 365.880089 55.870967 
L 367.028878 55.870967 
L 368.159576 55.281493 
L 369.272743 54.633072 
L 370.368914 54.397283 
L 371.4486 54.279388 
L 372.512291 53.748862 
L 373.560453 53.33623 
L 374.593533 53.159388 
L 375.611959 52.864651 
L 376.616141 52.393072 
L 377.606471 52.393072 
L 378.583327 52.393072 
L 379.547071 51.273072 
L 380.498049 51.155178 
L 381.436596 50.742546 
L 382.363032 50.565704 
L 383.277666 50.447809 
L 384.180795 50.329914 
L 385.072705 50.329914 
L 385.953671 49.622546 
L 386.823958 48.266757 
L 387.683823 47.73623 
L 388.533511 47.73623 
L 389.373261 47.73623 
L 390.203303 47.559388 
L 391.023858 47.441493 
L 391.835142 47.441493 
L 392.63736 46.793072 
L 393.430714 46.203599 
L 394.215398 46.439388 
" style="fill:none;stroke:#98df8a;stroke-linecap:square;stroke-width:1.5;"/>
    <defs>
     <path d="M -0 3 
L 3 -3 
L -3 -3 
z
" id="m35ddc51b69" style="stroke:#ffffff;stroke-linejoin:miter;stroke-width:0.75;"/>
    </defs>
    <g clip-path="url(#p50cb8fde66)">
     <use style="fill:#98df8a;stroke:#ffffff;stroke-linejoin:miter;stroke-width:0.75;" x="69.560852" xlink:href="#m35ddc51b69" y="140.165704"/>
     <use style="fill:#98df8a;stroke:#ffffff;stroke-linejoin:miter;stroke-width:0.75;" x="119.327306" xlink:href="#m35ddc51b69" y="129.673072"/>
     <use style="fill:#98df8a;stroke:#ffffff;stroke-linejoin:miter;stroke-width:0.75;" x="148.438816" xlink:href="#m35ddc51b69" y="124.13202"/>
     <use style="fill:#98df8a;stroke:#ffffff;stroke-linejoin:miter;stroke-width:0.75;" x="169.09376" xlink:href="#m35ddc51b69" y="116.233072"/>
     <use style="fill:#98df8a;stroke:#ffffff;stroke-linejoin:miter;stroke-width:0.75;" x="185.11498" xlink:href="#m35ddc51b69" y="112.578336"/>
     <use style="fill:#98df8a;stroke:#ffffff;stroke-linejoin:miter;stroke-width:0.75;" x="198.205269" xlink:href="#m35ddc51b69" y="108.923599"/>
     <use style="fill:#98df8a;stroke:#ffffff;stroke-linejoin:miter;stroke-width:0.75;" x="209.272952" xlink:href="#m35ddc51b69" y="107.037283"/>
     <use style="fill:#98df8a;stroke:#ffffff;stroke-linejoin:miter;stroke-width:0.75;" x="218.860214" xlink:href="#m35ddc51b69" y="102.557283"/>
     <use style="fill:#98df8a;stroke:#ffffff;stroke-linejoin:miter;stroke-width:0.75;" x="227.316779" xlink:href="#m35ddc51b69" y="101.319388"/>
     <use style="fill:#98df8a;stroke:#ffffff;stroke-linejoin:miter;stroke-width:0.75;" x="234.881434" xlink:href="#m35ddc51b69" y="99.079388"/>
     <use style="fill:#98df8a;stroke:#ffffff;stroke-linejoin:miter;stroke-width:0.75;" x="241.724496" xlink:href="#m35ddc51b69" y="97.546757"/>
     <use style="fill:#98df8a;stroke:#ffffff;stroke-linejoin:miter;stroke-width:0.75;" x="247.971723" xlink:href="#m35ddc51b69" y="95.955178"/>
     <use style="fill:#98df8a;stroke:#ffffff;stroke-linejoin:miter;stroke-width:0.75;" x="253.718615" xlink:href="#m35ddc51b69" y="93.479388"/>
     <use style="fill:#98df8a;stroke:#ffffff;stroke-linejoin:miter;stroke-width:0.75;" x="259.039406" xlink:href="#m35ddc51b69" y="92.713072"/>
     <use style="fill:#98df8a;stroke:#ffffff;stroke-linejoin:miter;stroke-width:0.75;" x="263.992943" xlink:href="#m35ddc51b69" y="90.29623"/>
     <use style="fill:#98df8a;stroke:#ffffff;stroke-linejoin:miter;stroke-width:0.75;" x="268.626668" xlink:href="#m35ddc51b69" y="89.942546"/>
     <use style="fill:#98df8a;stroke:#ffffff;stroke-linejoin:miter;stroke-width:0.75;" x="272.979383" xlink:href="#m35ddc51b69" y="89.235178"/>
     <use style="fill:#98df8a;stroke:#ffffff;stroke-linejoin:miter;stroke-width:0.75;" x="277.083233" xlink:href="#m35ddc51b69" y="86.346757"/>
     <use style="fill:#98df8a;stroke:#ffffff;stroke-linejoin:miter;stroke-width:0.75;" x="280.965141" xlink:href="#m35ddc51b69" y="85.639388"/>
     <use style="fill:#98df8a;stroke:#ffffff;stroke-linejoin:miter;stroke-width:0.75;" x="284.647888" xlink:href="#m35ddc51b69" y="82.69202"/>
     <use style="fill:#98df8a;stroke:#ffffff;stroke-linejoin:miter;stroke-width:0.75;" x="288.150915" xlink:href="#m35ddc51b69" y="82.279388"/>
     <use style="fill:#98df8a;stroke:#ffffff;stroke-linejoin:miter;stroke-width:0.75;" x="291.49095" xlink:href="#m35ddc51b69" y="81.748862"/>
     <use style="fill:#98df8a;stroke:#ffffff;stroke-linejoin:miter;stroke-width:0.75;" x="294.68249" xlink:href="#m35ddc51b69" y="77.504651"/>
     <use style="fill:#98df8a;stroke:#ffffff;stroke-linejoin:miter;stroke-width:0.75;" x="297.738177" xlink:href="#m35ddc51b69" y="77.445704"/>
     <use style="fill:#98df8a;stroke:#ffffff;stroke-linejoin:miter;stroke-width:0.75;" x="300.669107" xlink:href="#m35ddc51b69" y="77.150967"/>
     <use style="fill:#98df8a;stroke:#ffffff;stroke-linejoin:miter;stroke-width:0.75;" x="303.485069" xlink:href="#m35ddc51b69" y="76.207809"/>
     <use style="fill:#98df8a;stroke:#ffffff;stroke-linejoin:miter;stroke-width:0.75;" x="306.194742" xlink:href="#m35ddc51b69" y="74.085704"/>
     <use style="fill:#98df8a;stroke:#ffffff;stroke-linejoin:miter;stroke-width:0.75;" x="308.805859" xlink:href="#m35ddc51b69" y="74.026757"/>
     <use style="fill:#98df8a;stroke:#ffffff;stroke-linejoin:miter;stroke-width:0.75;" x="311.32534" xlink:href="#m35ddc51b69" y="73.437283"/>
     <use style="fill:#98df8a;stroke:#ffffff;stroke-linejoin:miter;stroke-width:0.75;" x="313.759397" xlink:href="#m35ddc51b69" y="72.37623"/>
     <use style="fill:#98df8a;stroke:#ffffff;stroke-linejoin:miter;stroke-width:0.75;" x="316.113635" xlink:href="#m35ddc51b69" y="70.961493"/>
     <use style="fill:#98df8a;stroke:#ffffff;stroke-linejoin:miter;stroke-width:0.75;" x="318.393122" xlink:href="#m35ddc51b69" y="69.782546"/>
     <use style="fill:#98df8a;stroke:#ffffff;stroke-linejoin:miter;stroke-width:0.75;" x="320.60246" xlink:href="#m35ddc51b69" y="68.485704"/>
     <use style="fill:#98df8a;stroke:#ffffff;stroke-linejoin:miter;stroke-width:0.75;" x="322.745837" xlink:href="#m35ddc51b69" y="68.249914"/>
     <use style="fill:#98df8a;stroke:#ffffff;stroke-linejoin:miter;stroke-width:0.75;" x="324.827079" xlink:href="#m35ddc51b69" y="67.955178"/>
     <use style="fill:#98df8a;stroke:#ffffff;stroke-linejoin:miter;stroke-width:0.75;" x="326.849687" xlink:href="#m35ddc51b69" y="67.719388"/>
     <use style="fill:#98df8a;stroke:#ffffff;stroke-linejoin:miter;stroke-width:0.75;" x="328.816873" xlink:href="#m35ddc51b69" y="67.542546"/>
     <use style="fill:#98df8a;stroke:#ffffff;stroke-linejoin:miter;stroke-width:0.75;" x="330.731595" xlink:href="#m35ddc51b69" y="67.542546"/>
     <use style="fill:#98df8a;stroke:#ffffff;stroke-linejoin:miter;stroke-width:0.75;" x="332.596578" xlink:href="#m35ddc51b69" y="66.835178"/>
     <use style="fill:#98df8a;stroke:#ffffff;stroke-linejoin:miter;stroke-width:0.75;" x="334.414342" xlink:href="#m35ddc51b69" y="66.245704"/>
     <use style="fill:#98df8a;stroke:#ffffff;stroke-linejoin:miter;stroke-width:0.75;" x="336.187217" xlink:href="#m35ddc51b69" y="64.53623"/>
     <use style="fill:#98df8a;stroke:#ffffff;stroke-linejoin:miter;stroke-width:0.75;" x="337.917369" xlink:href="#m35ddc51b69" y="64.53623"/>
     <use style="fill:#98df8a;stroke:#ffffff;stroke-linejoin:miter;stroke-width:0.75;" x="339.606807" xlink:href="#m35ddc51b69" y="63.357283"/>
     <use style="fill:#98df8a;stroke:#ffffff;stroke-linejoin:miter;stroke-width:0.75;" x="341.257404" xlink:href="#m35ddc51b69" y="62.885704"/>
     <use style="fill:#98df8a;stroke:#ffffff;stroke-linejoin:miter;stroke-width:0.75;" x="342.870906" xlink:href="#m35ddc51b69" y="62.649914"/>
     <use style="fill:#98df8a;stroke:#ffffff;stroke-linejoin:miter;stroke-width:0.75;" x="344.448944" xlink:href="#m35ddc51b69" y="61.647809"/>
     <use style="fill:#98df8a;stroke:#ffffff;stroke-linejoin:miter;stroke-width:0.75;" x="345.993042" xlink:href="#m35ddc51b69" y="61.058336"/>
     <use style="fill:#98df8a;stroke:#ffffff;stroke-linejoin:miter;stroke-width:0.75;" x="347.504631" xlink:href="#m35ddc51b69" y="61.058336"/>
     <use style="fill:#98df8a;stroke:#ffffff;stroke-linejoin:miter;stroke-width:0.75;" x="348.985051" xlink:href="#m35ddc51b69" y="60.940441"/>
     <use style="fill:#98df8a;stroke:#ffffff;stroke-linejoin:miter;stroke-width:0.75;" x="350.435561" xlink:href="#m35ddc51b69" y="59.643599"/>
     <use style="fill:#98df8a;stroke:#ffffff;stroke-linejoin:miter;stroke-width:0.75;" x="351.857347" xlink:href="#m35ddc51b69" y="59.525704"/>
     <use style="fill:#98df8a;stroke:#ffffff;stroke-linejoin:miter;stroke-width:0.75;" x="353.251523" xlink:href="#m35ddc51b69" y="59.466757"/>
     <use style="fill:#98df8a;stroke:#ffffff;stroke-linejoin:miter;stroke-width:0.75;" x="354.619142" xlink:href="#m35ddc51b69" y="58.93623"/>
     <use style="fill:#98df8a;stroke:#ffffff;stroke-linejoin:miter;stroke-width:0.75;" x="355.961196" xlink:href="#m35ddc51b69" y="58.759388"/>
     <use style="fill:#98df8a;stroke:#ffffff;stroke-linejoin:miter;stroke-width:0.75;" x="357.278624" xlink:href="#m35ddc51b69" y="58.700441"/>
     <use style="fill:#98df8a;stroke:#ffffff;stroke-linejoin:miter;stroke-width:0.75;" x="358.572313" xlink:href="#m35ddc51b69" y="58.641493"/>
     <use style="fill:#98df8a;stroke:#ffffff;stroke-linejoin:miter;stroke-width:0.75;" x="359.843104" xlink:href="#m35ddc51b69" y="57.580441"/>
     <use style="fill:#98df8a;stroke:#ffffff;stroke-linejoin:miter;stroke-width:0.75;" x="361.091794" xlink:href="#m35ddc51b69" y="57.403599"/>
     <use style="fill:#98df8a;stroke:#ffffff;stroke-linejoin:miter;stroke-width:0.75;" x="362.319136" xlink:href="#m35ddc51b69" y="57.108862"/>
     <use style="fill:#98df8a;stroke:#ffffff;stroke-linejoin:miter;stroke-width:0.75;" x="363.525851" xlink:href="#m35ddc51b69" y="56.637283"/>
     <use style="fill:#98df8a;stroke:#ffffff;stroke-linejoin:miter;stroke-width:0.75;" x="364.712619" xlink:href="#m35ddc51b69" y="56.342546"/>
     <use style="fill:#98df8a;stroke:#ffffff;stroke-linejoin:miter;stroke-width:0.75;" x="365.880089" xlink:href="#m35ddc51b69" y="55.870967"/>
     <use style="fill:#98df8a;stroke:#ffffff;stroke-linejoin:miter;stroke-width:0.75;" x="367.028878" xlink:href="#m35ddc51b69" y="55.870967"/>
     <use style="fill:#98df8a;stroke:#ffffff;stroke-linejoin:miter;stroke-width:0.75;" x="368.159576" xlink:href="#m35ddc51b69" y="55.281493"/>
     <use style="fill:#98df8a;stroke:#ffffff;stroke-linejoin:miter;stroke-width:0.75;" x="369.272743" xlink:href="#m35ddc51b69" y="54.633072"/>
     <use style="fill:#98df8a;stroke:#ffffff;stroke-linejoin:miter;stroke-width:0.75;" x="370.368914" xlink:href="#m35ddc51b69" y="54.397283"/>
     <use style="fill:#98df8a;stroke:#ffffff;stroke-linejoin:miter;stroke-width:0.75;" x="371.4486" xlink:href="#m35ddc51b69" y="54.279388"/>
     <use style="fill:#98df8a;stroke:#ffffff;stroke-linejoin:miter;stroke-width:0.75;" x="372.512291" xlink:href="#m35ddc51b69" y="53.748862"/>
     <use style="fill:#98df8a;stroke:#ffffff;stroke-linejoin:miter;stroke-width:0.75;" x="373.560453" xlink:href="#m35ddc51b69" y="53.33623"/>
     <use style="fill:#98df8a;stroke:#ffffff;stroke-linejoin:miter;stroke-width:0.75;" x="374.593533" xlink:href="#m35ddc51b69" y="53.159388"/>
     <use style="fill:#98df8a;stroke:#ffffff;stroke-linejoin:miter;stroke-width:0.75;" x="375.611959" xlink:href="#m35ddc51b69" y="52.864651"/>
     <use style="fill:#98df8a;stroke:#ffffff;stroke-linejoin:miter;stroke-width:0.75;" x="376.616141" xlink:href="#m35ddc51b69" y="52.393072"/>
     <use style="fill:#98df8a;stroke:#ffffff;stroke-linejoin:miter;stroke-width:0.75;" x="377.606471" xlink:href="#m35ddc51b69" y="52.393072"/>
     <use style="fill:#98df8a;stroke:#ffffff;stroke-linejoin:miter;stroke-width:0.75;" x="378.583327" xlink:href="#m35ddc51b69" y="52.393072"/>
     <use style="fill:#98df8a;stroke:#ffffff;stroke-linejoin:miter;stroke-width:0.75;" x="379.547071" xlink:href="#m35ddc51b69" y="51.273072"/>
     <use style="fill:#98df8a;stroke:#ffffff;stroke-linejoin:miter;stroke-width:0.75;" x="380.498049" xlink:href="#m35ddc51b69" y="51.155178"/>
     <use style="fill:#98df8a;stroke:#ffffff;stroke-linejoin:miter;stroke-width:0.75;" x="381.436596" xlink:href="#m35ddc51b69" y="50.742546"/>
     <use style="fill:#98df8a;stroke:#ffffff;stroke-linejoin:miter;stroke-width:0.75;" x="382.363032" xlink:href="#m35ddc51b69" y="50.565704"/>
     <use style="fill:#98df8a;stroke:#ffffff;stroke-linejoin:miter;stroke-width:0.75;" x="383.277666" xlink:href="#m35ddc51b69" y="50.447809"/>
     <use style="fill:#98df8a;stroke:#ffffff;stroke-linejoin:miter;stroke-width:0.75;" x="384.180795" xlink:href="#m35ddc51b69" y="50.329914"/>
     <use style="fill:#98df8a;stroke:#ffffff;stroke-linejoin:miter;stroke-width:0.75;" x="385.072705" xlink:href="#m35ddc51b69" y="50.329914"/>
     <use style="fill:#98df8a;stroke:#ffffff;stroke-linejoin:miter;stroke-width:0.75;" x="385.953671" xlink:href="#m35ddc51b69" y="49.622546"/>
     <use style="fill:#98df8a;stroke:#ffffff;stroke-linejoin:miter;stroke-width:0.75;" x="386.823958" xlink:href="#m35ddc51b69" y="48.266757"/>
     <use style="fill:#98df8a;stroke:#ffffff;stroke-linejoin:miter;stroke-width:0.75;" x="387.683823" xlink:href="#m35ddc51b69" y="47.73623"/>
     <use style="fill:#98df8a;stroke:#ffffff;stroke-linejoin:miter;stroke-width:0.75;" x="388.533511" xlink:href="#m35ddc51b69" y="47.73623"/>
     <use style="fill:#98df8a;stroke:#ffffff;stroke-linejoin:miter;stroke-width:0.75;" x="389.373261" xlink:href="#m35ddc51b69" y="47.73623"/>
     <use style="fill:#98df8a;stroke:#ffffff;stroke-linejoin:miter;stroke-width:0.75;" x="390.203303" xlink:href="#m35ddc51b69" y="47.559388"/>
     <use style="fill:#98df8a;stroke:#ffffff;stroke-linejoin:miter;stroke-width:0.75;" x="391.023858" xlink:href="#m35ddc51b69" y="47.441493"/>
     <use style="fill:#98df8a;stroke:#ffffff;stroke-linejoin:miter;stroke-width:0.75;" x="391.835142" xlink:href="#m35ddc51b69" y="47.441493"/>
     <use style="fill:#98df8a;stroke:#ffffff;stroke-linejoin:miter;stroke-width:0.75;" x="392.63736" xlink:href="#m35ddc51b69" y="46.793072"/>
     <use style="fill:#98df8a;stroke:#ffffff;stroke-linejoin:miter;stroke-width:0.75;" x="393.430714" xlink:href="#m35ddc51b69" y="46.203599"/>
     <use style="fill:#98df8a;stroke:#ffffff;stroke-linejoin:miter;stroke-width:0.75;" x="394.215398" xlink:href="#m35ddc51b69" y="46.439388"/>
    </g>
   </g>
   <g id="line2d_30">
    <path clip-path="url(#p50cb8fde66)" d="M 69.560852 138.220441 
L 119.327306 130.380441 
L 148.438816 120.889914 
L 169.09376 118.649914 
L 185.11498 112.519388 
L 198.205269 109.748862 
L 209.272952 105.209914 
L 218.860214 103.028862 
L 227.316779 101.49623 
L 234.881434 100.081493 
L 241.724496 98.961493 
L 247.971723 96.839388 
L 253.718615 96.13202 
L 259.039406 93.361493 
L 263.992943 90.767809 
L 268.626668 89.706757 
L 272.979383 88.645704 
L 277.083233 86.228862 
L 280.965141 84.106757 
L 284.647888 81.100441 
L 288.150915 80.393072 
L 291.49095 79.33202 
L 294.68249 76.974125 
L 297.738177 76.502546 
L 300.669107 74.203599 
L 303.485069 73.73202 
L 306.194742 72.317283 
L 308.805859 71.25623 
L 311.32534 69.723599 
L 313.759397 69.310967 
L 316.113635 68.308862 
L 318.393122 67.719388 
L 320.60246 67.601493 
L 322.745837 67.424651 
L 324.827079 66.068862 
L 326.849687 64.418336 
L 328.816873 64.182546 
L 330.731595 63.534125 
L 332.596578 63.298336 
L 334.414342 63.298336 
L 336.187217 62.767809 
L 337.917369 62.649914 
L 339.606807 61.17623 
L 341.257404 60.409914 
L 342.870906 60.350967 
L 344.448944 59.997283 
L 345.993042 59.820441 
L 347.504631 59.584651 
L 348.985051 59.584651 
L 350.435561 59.289914 
L 351.857347 59.054125 
L 353.251523 58.995178 
L 354.619142 58.818336 
L 355.961196 58.523599 
L 357.278624 57.521493 
L 358.572313 57.521493 
L 359.843104 57.462546 
L 361.091794 56.637283 
L 362.319136 55.517283 
L 363.525851 55.458336 
L 364.712619 54.45623 
L 365.880089 54.338336 
L 367.028878 54.161493 
L 368.159576 54.102546 
L 369.272743 53.689914 
L 370.368914 53.689914 
L 371.4486 52.982546 
L 372.512291 52.687809 
L 373.560453 52.569914 
L 374.593533 52.510967 
L 375.611959 52.510967 
L 376.616141 52.510967 
L 377.606471 51.862546 
L 378.583327 51.449914 
L 379.547071 51.214125 
L 380.498049 51.09623 
L 381.436596 50.683599 
L 382.363032 49.97623 
L 383.277666 49.97623 
L 384.180795 48.915178 
L 385.072705 48.679388 
L 385.953671 48.502546 
L 386.823958 48.384651 
L 387.683823 48.089914 
L 388.533511 47.97202 
L 389.373261 47.913072 
L 390.203303 47.913072 
L 391.023858 47.73623 
L 391.835142 47.441493 
L 392.63736 47.382546 
L 393.430714 47.323599 
L 394.215398 45.49623 
" style="fill:none;stroke:#d62728;stroke-linecap:square;stroke-width:1.5;"/>
    <defs>
     <path d="M 0 -3 
L -3 3 
L 3 3 
z
" id="md5fcdcf4c7" style="stroke:#ffffff;stroke-linejoin:miter;stroke-width:0.75;"/>
    </defs>
    <g clip-path="url(#p50cb8fde66)">
     <use style="fill:#d62728;stroke:#ffffff;stroke-linejoin:miter;stroke-width:0.75;" x="69.560852" xlink:href="#md5fcdcf4c7" y="138.220441"/>
     <use style="fill:#d62728;stroke:#ffffff;stroke-linejoin:miter;stroke-width:0.75;" x="119.327306" xlink:href="#md5fcdcf4c7" y="130.380441"/>
     <use style="fill:#d62728;stroke:#ffffff;stroke-linejoin:miter;stroke-width:0.75;" x="148.438816" xlink:href="#md5fcdcf4c7" y="120.889914"/>
     <use style="fill:#d62728;stroke:#ffffff;stroke-linejoin:miter;stroke-width:0.75;" x="169.09376" xlink:href="#md5fcdcf4c7" y="118.649914"/>
     <use style="fill:#d62728;stroke:#ffffff;stroke-linejoin:miter;stroke-width:0.75;" x="185.11498" xlink:href="#md5fcdcf4c7" y="112.519388"/>
     <use style="fill:#d62728;stroke:#ffffff;stroke-linejoin:miter;stroke-width:0.75;" x="198.205269" xlink:href="#md5fcdcf4c7" y="109.748862"/>
     <use style="fill:#d62728;stroke:#ffffff;stroke-linejoin:miter;stroke-width:0.75;" x="209.272952" xlink:href="#md5fcdcf4c7" y="105.209914"/>
     <use style="fill:#d62728;stroke:#ffffff;stroke-linejoin:miter;stroke-width:0.75;" x="218.860214" xlink:href="#md5fcdcf4c7" y="103.028862"/>
     <use style="fill:#d62728;stroke:#ffffff;stroke-linejoin:miter;stroke-width:0.75;" x="227.316779" xlink:href="#md5fcdcf4c7" y="101.49623"/>
     <use style="fill:#d62728;stroke:#ffffff;stroke-linejoin:miter;stroke-width:0.75;" x="234.881434" xlink:href="#md5fcdcf4c7" y="100.081493"/>
     <use style="fill:#d62728;stroke:#ffffff;stroke-linejoin:miter;stroke-width:0.75;" x="241.724496" xlink:href="#md5fcdcf4c7" y="98.961493"/>
     <use style="fill:#d62728;stroke:#ffffff;stroke-linejoin:miter;stroke-width:0.75;" x="247.971723" xlink:href="#md5fcdcf4c7" y="96.839388"/>
     <use style="fill:#d62728;stroke:#ffffff;stroke-linejoin:miter;stroke-width:0.75;" x="253.718615" xlink:href="#md5fcdcf4c7" y="96.13202"/>
     <use style="fill:#d62728;stroke:#ffffff;stroke-linejoin:miter;stroke-width:0.75;" x="259.039406" xlink:href="#md5fcdcf4c7" y="93.361493"/>
     <use style="fill:#d62728;stroke:#ffffff;stroke-linejoin:miter;stroke-width:0.75;" x="263.992943" xlink:href="#md5fcdcf4c7" y="90.767809"/>
     <use style="fill:#d62728;stroke:#ffffff;stroke-linejoin:miter;stroke-width:0.75;" x="268.626668" xlink:href="#md5fcdcf4c7" y="89.706757"/>
     <use style="fill:#d62728;stroke:#ffffff;stroke-linejoin:miter;stroke-width:0.75;" x="272.979383" xlink:href="#md5fcdcf4c7" y="88.645704"/>
     <use style="fill:#d62728;stroke:#ffffff;stroke-linejoin:miter;stroke-width:0.75;" x="277.083233" xlink:href="#md5fcdcf4c7" y="86.228862"/>
     <use style="fill:#d62728;stroke:#ffffff;stroke-linejoin:miter;stroke-width:0.75;" x="280.965141" xlink:href="#md5fcdcf4c7" y="84.106757"/>
     <use style="fill:#d62728;stroke:#ffffff;stroke-linejoin:miter;stroke-width:0.75;" x="284.647888" xlink:href="#md5fcdcf4c7" y="81.100441"/>
     <use style="fill:#d62728;stroke:#ffffff;stroke-linejoin:miter;stroke-width:0.75;" x="288.150915" xlink:href="#md5fcdcf4c7" y="80.393072"/>
     <use style="fill:#d62728;stroke:#ffffff;stroke-linejoin:miter;stroke-width:0.75;" x="291.49095" xlink:href="#md5fcdcf4c7" y="79.33202"/>
     <use style="fill:#d62728;stroke:#ffffff;stroke-linejoin:miter;stroke-width:0.75;" x="294.68249" xlink:href="#md5fcdcf4c7" y="76.974125"/>
     <use style="fill:#d62728;stroke:#ffffff;stroke-linejoin:miter;stroke-width:0.75;" x="297.738177" xlink:href="#md5fcdcf4c7" y="76.502546"/>
     <use style="fill:#d62728;stroke:#ffffff;stroke-linejoin:miter;stroke-width:0.75;" x="300.669107" xlink:href="#md5fcdcf4c7" y="74.203599"/>
     <use style="fill:#d62728;stroke:#ffffff;stroke-linejoin:miter;stroke-width:0.75;" x="303.485069" xlink:href="#md5fcdcf4c7" y="73.73202"/>
     <use style="fill:#d62728;stroke:#ffffff;stroke-linejoin:miter;stroke-width:0.75;" x="306.194742" xlink:href="#md5fcdcf4c7" y="72.317283"/>
     <use style="fill:#d62728;stroke:#ffffff;stroke-linejoin:miter;stroke-width:0.75;" x="308.805859" xlink:href="#md5fcdcf4c7" y="71.25623"/>
     <use style="fill:#d62728;stroke:#ffffff;stroke-linejoin:miter;stroke-width:0.75;" x="311.32534" xlink:href="#md5fcdcf4c7" y="69.723599"/>
     <use style="fill:#d62728;stroke:#ffffff;stroke-linejoin:miter;stroke-width:0.75;" x="313.759397" xlink:href="#md5fcdcf4c7" y="69.310967"/>
     <use style="fill:#d62728;stroke:#ffffff;stroke-linejoin:miter;stroke-width:0.75;" x="316.113635" xlink:href="#md5fcdcf4c7" y="68.308862"/>
     <use style="fill:#d62728;stroke:#ffffff;stroke-linejoin:miter;stroke-width:0.75;" x="318.393122" xlink:href="#md5fcdcf4c7" y="67.719388"/>
     <use style="fill:#d62728;stroke:#ffffff;stroke-linejoin:miter;stroke-width:0.75;" x="320.60246" xlink:href="#md5fcdcf4c7" y="67.601493"/>
     <use style="fill:#d62728;stroke:#ffffff;stroke-linejoin:miter;stroke-width:0.75;" x="322.745837" xlink:href="#md5fcdcf4c7" y="67.424651"/>
     <use style="fill:#d62728;stroke:#ffffff;stroke-linejoin:miter;stroke-width:0.75;" x="324.827079" xlink:href="#md5fcdcf4c7" y="66.068862"/>
     <use style="fill:#d62728;stroke:#ffffff;stroke-linejoin:miter;stroke-width:0.75;" x="326.849687" xlink:href="#md5fcdcf4c7" y="64.418336"/>
     <use style="fill:#d62728;stroke:#ffffff;stroke-linejoin:miter;stroke-width:0.75;" x="328.816873" xlink:href="#md5fcdcf4c7" y="64.182546"/>
     <use style="fill:#d62728;stroke:#ffffff;stroke-linejoin:miter;stroke-width:0.75;" x="330.731595" xlink:href="#md5fcdcf4c7" y="63.534125"/>
     <use style="fill:#d62728;stroke:#ffffff;stroke-linejoin:miter;stroke-width:0.75;" x="332.596578" xlink:href="#md5fcdcf4c7" y="63.298336"/>
     <use style="fill:#d62728;stroke:#ffffff;stroke-linejoin:miter;stroke-width:0.75;" x="334.414342" xlink:href="#md5fcdcf4c7" y="63.298336"/>
     <use style="fill:#d62728;stroke:#ffffff;stroke-linejoin:miter;stroke-width:0.75;" x="336.187217" xlink:href="#md5fcdcf4c7" y="62.767809"/>
     <use style="fill:#d62728;stroke:#ffffff;stroke-linejoin:miter;stroke-width:0.75;" x="337.917369" xlink:href="#md5fcdcf4c7" y="62.649914"/>
     <use style="fill:#d62728;stroke:#ffffff;stroke-linejoin:miter;stroke-width:0.75;" x="339.606807" xlink:href="#md5fcdcf4c7" y="61.17623"/>
     <use style="fill:#d62728;stroke:#ffffff;stroke-linejoin:miter;stroke-width:0.75;" x="341.257404" xlink:href="#md5fcdcf4c7" y="60.409914"/>
     <use style="fill:#d62728;stroke:#ffffff;stroke-linejoin:miter;stroke-width:0.75;" x="342.870906" xlink:href="#md5fcdcf4c7" y="60.350967"/>
     <use style="fill:#d62728;stroke:#ffffff;stroke-linejoin:miter;stroke-width:0.75;" x="344.448944" xlink:href="#md5fcdcf4c7" y="59.997283"/>
     <use style="fill:#d62728;stroke:#ffffff;stroke-linejoin:miter;stroke-width:0.75;" x="345.993042" xlink:href="#md5fcdcf4c7" y="59.820441"/>
     <use style="fill:#d62728;stroke:#ffffff;stroke-linejoin:miter;stroke-width:0.75;" x="347.504631" xlink:href="#md5fcdcf4c7" y="59.584651"/>
     <use style="fill:#d62728;stroke:#ffffff;stroke-linejoin:miter;stroke-width:0.75;" x="348.985051" xlink:href="#md5fcdcf4c7" y="59.584651"/>
     <use style="fill:#d62728;stroke:#ffffff;stroke-linejoin:miter;stroke-width:0.75;" x="350.435561" xlink:href="#md5fcdcf4c7" y="59.289914"/>
     <use style="fill:#d62728;stroke:#ffffff;stroke-linejoin:miter;stroke-width:0.75;" x="351.857347" xlink:href="#md5fcdcf4c7" y="59.054125"/>
     <use style="fill:#d62728;stroke:#ffffff;stroke-linejoin:miter;stroke-width:0.75;" x="353.251523" xlink:href="#md5fcdcf4c7" y="58.995178"/>
     <use style="fill:#d62728;stroke:#ffffff;stroke-linejoin:miter;stroke-width:0.75;" x="354.619142" xlink:href="#md5fcdcf4c7" y="58.818336"/>
     <use style="fill:#d62728;stroke:#ffffff;stroke-linejoin:miter;stroke-width:0.75;" x="355.961196" xlink:href="#md5fcdcf4c7" y="58.523599"/>
     <use style="fill:#d62728;stroke:#ffffff;stroke-linejoin:miter;stroke-width:0.75;" x="357.278624" xlink:href="#md5fcdcf4c7" y="57.521493"/>
     <use style="fill:#d62728;stroke:#ffffff;stroke-linejoin:miter;stroke-width:0.75;" x="358.572313" xlink:href="#md5fcdcf4c7" y="57.521493"/>
     <use style="fill:#d62728;stroke:#ffffff;stroke-linejoin:miter;stroke-width:0.75;" x="359.843104" xlink:href="#md5fcdcf4c7" y="57.462546"/>
     <use style="fill:#d62728;stroke:#ffffff;stroke-linejoin:miter;stroke-width:0.75;" x="361.091794" xlink:href="#md5fcdcf4c7" y="56.637283"/>
     <use style="fill:#d62728;stroke:#ffffff;stroke-linejoin:miter;stroke-width:0.75;" x="362.319136" xlink:href="#md5fcdcf4c7" y="55.517283"/>
     <use style="fill:#d62728;stroke:#ffffff;stroke-linejoin:miter;stroke-width:0.75;" x="363.525851" xlink:href="#md5fcdcf4c7" y="55.458336"/>
     <use style="fill:#d62728;stroke:#ffffff;stroke-linejoin:miter;stroke-width:0.75;" x="364.712619" xlink:href="#md5fcdcf4c7" y="54.45623"/>
     <use style="fill:#d62728;stroke:#ffffff;stroke-linejoin:miter;stroke-width:0.75;" x="365.880089" xlink:href="#md5fcdcf4c7" y="54.338336"/>
     <use style="fill:#d62728;stroke:#ffffff;stroke-linejoin:miter;stroke-width:0.75;" x="367.028878" xlink:href="#md5fcdcf4c7" y="54.161493"/>
     <use style="fill:#d62728;stroke:#ffffff;stroke-linejoin:miter;stroke-width:0.75;" x="368.159576" xlink:href="#md5fcdcf4c7" y="54.102546"/>
     <use style="fill:#d62728;stroke:#ffffff;stroke-linejoin:miter;stroke-width:0.75;" x="369.272743" xlink:href="#md5fcdcf4c7" y="53.689914"/>
     <use style="fill:#d62728;stroke:#ffffff;stroke-linejoin:miter;stroke-width:0.75;" x="370.368914" xlink:href="#md5fcdcf4c7" y="53.689914"/>
     <use style="fill:#d62728;stroke:#ffffff;stroke-linejoin:miter;stroke-width:0.75;" x="371.4486" xlink:href="#md5fcdcf4c7" y="52.982546"/>
     <use style="fill:#d62728;stroke:#ffffff;stroke-linejoin:miter;stroke-width:0.75;" x="372.512291" xlink:href="#md5fcdcf4c7" y="52.687809"/>
     <use style="fill:#d62728;stroke:#ffffff;stroke-linejoin:miter;stroke-width:0.75;" x="373.560453" xlink:href="#md5fcdcf4c7" y="52.569914"/>
     <use style="fill:#d62728;stroke:#ffffff;stroke-linejoin:miter;stroke-width:0.75;" x="374.593533" xlink:href="#md5fcdcf4c7" y="52.510967"/>
     <use style="fill:#d62728;stroke:#ffffff;stroke-linejoin:miter;stroke-width:0.75;" x="375.611959" xlink:href="#md5fcdcf4c7" y="52.510967"/>
     <use style="fill:#d62728;stroke:#ffffff;stroke-linejoin:miter;stroke-width:0.75;" x="376.616141" xlink:href="#md5fcdcf4c7" y="52.510967"/>
     <use style="fill:#d62728;stroke:#ffffff;stroke-linejoin:miter;stroke-width:0.75;" x="377.606471" xlink:href="#md5fcdcf4c7" y="51.862546"/>
     <use style="fill:#d62728;stroke:#ffffff;stroke-linejoin:miter;stroke-width:0.75;" x="378.583327" xlink:href="#md5fcdcf4c7" y="51.449914"/>
     <use style="fill:#d62728;stroke:#ffffff;stroke-linejoin:miter;stroke-width:0.75;" x="379.547071" xlink:href="#md5fcdcf4c7" y="51.214125"/>
     <use style="fill:#d62728;stroke:#ffffff;stroke-linejoin:miter;stroke-width:0.75;" x="380.498049" xlink:href="#md5fcdcf4c7" y="51.09623"/>
     <use style="fill:#d62728;stroke:#ffffff;stroke-linejoin:miter;stroke-width:0.75;" x="381.436596" xlink:href="#md5fcdcf4c7" y="50.683599"/>
     <use style="fill:#d62728;stroke:#ffffff;stroke-linejoin:miter;stroke-width:0.75;" x="382.363032" xlink:href="#md5fcdcf4c7" y="49.97623"/>
     <use style="fill:#d62728;stroke:#ffffff;stroke-linejoin:miter;stroke-width:0.75;" x="383.277666" xlink:href="#md5fcdcf4c7" y="49.97623"/>
     <use style="fill:#d62728;stroke:#ffffff;stroke-linejoin:miter;stroke-width:0.75;" x="384.180795" xlink:href="#md5fcdcf4c7" y="48.915178"/>
     <use style="fill:#d62728;stroke:#ffffff;stroke-linejoin:miter;stroke-width:0.75;" x="385.072705" xlink:href="#md5fcdcf4c7" y="48.679388"/>
     <use style="fill:#d62728;stroke:#ffffff;stroke-linejoin:miter;stroke-width:0.75;" x="385.953671" xlink:href="#md5fcdcf4c7" y="48.502546"/>
     <use style="fill:#d62728;stroke:#ffffff;stroke-linejoin:miter;stroke-width:0.75;" x="386.823958" xlink:href="#md5fcdcf4c7" y="48.384651"/>
     <use style="fill:#d62728;stroke:#ffffff;stroke-linejoin:miter;stroke-width:0.75;" x="387.683823" xlink:href="#md5fcdcf4c7" y="48.089914"/>
     <use style="fill:#d62728;stroke:#ffffff;stroke-linejoin:miter;stroke-width:0.75;" x="388.533511" xlink:href="#md5fcdcf4c7" y="47.97202"/>
     <use style="fill:#d62728;stroke:#ffffff;stroke-linejoin:miter;stroke-width:0.75;" x="389.373261" xlink:href="#md5fcdcf4c7" y="47.913072"/>
     <use style="fill:#d62728;stroke:#ffffff;stroke-linejoin:miter;stroke-width:0.75;" x="390.203303" xlink:href="#md5fcdcf4c7" y="47.913072"/>
     <use style="fill:#d62728;stroke:#ffffff;stroke-linejoin:miter;stroke-width:0.75;" x="391.023858" xlink:href="#md5fcdcf4c7" y="47.73623"/>
     <use style="fill:#d62728;stroke:#ffffff;stroke-linejoin:miter;stroke-width:0.75;" x="391.835142" xlink:href="#md5fcdcf4c7" y="47.441493"/>
     <use style="fill:#d62728;stroke:#ffffff;stroke-linejoin:miter;stroke-width:0.75;" x="392.63736" xlink:href="#md5fcdcf4c7" y="47.382546"/>
     <use style="fill:#d62728;stroke:#ffffff;stroke-linejoin:miter;stroke-width:0.75;" x="393.430714" xlink:href="#md5fcdcf4c7" y="47.323599"/>
     <use style="fill:#d62728;stroke:#ffffff;stroke-linejoin:miter;stroke-width:0.75;" x="394.215398" xlink:href="#md5fcdcf4c7" y="45.49623"/>
    </g>
   </g>
   <g id="line2d_31"/>
   <g id="line2d_32"/>
   <g id="line2d_33"/>
   <g id="patch_3">
    <path d="M 53.328125 241.908862 
L 53.328125 65.066757 
" style="fill:none;stroke:#000000;stroke-linecap:square;stroke-linejoin:miter;stroke-width:0.8;"/>
   </g>
   <g id="patch_4">
    <path d="M 69.560852 288.430125 
L 394.216265 288.430125 
" style="fill:none;stroke:#000000;stroke-linecap:square;stroke-linejoin:miter;stroke-width:0.8;"/>
   </g>
   <g id="text_13">
    <!-- arrow_parquet-arrow-fuzz (23h, 16 trials/fuzzer) -->
    <g transform="translate(88.217188 16.318125)scale(0.12 -0.12)">
     <defs>
      <path d="M 269 3500 
L 844 3500 
L 1563 769 
L 2278 3500 
L 2956 3500 
L 3675 769 
L 4391 3500 
L 4966 3500 
L 4050 0 
L 3372 0 
L 2619 2869 
L 1863 0 
L 1184 0 
L 269 3500 
z
" id="DejaVuSans-77" transform="scale(0.015625)"/>
      <path d="M 3263 -1063 
L 3263 -1509 
L -63 -1509 
L -63 -1063 
L 3263 -1063 
z
" id="DejaVuSans-5f" transform="scale(0.015625)"/>
      <path d="M 1159 525 
L 1159 -1331 
L 581 -1331 
L 581 3500 
L 1159 3500 
L 1159 2969 
Q 1341 3281 1617 3432 
Q 1894 3584 2278 3584 
Q 2916 3584 3314 3078 
Q 3713 2572 3713 1747 
Q 3713 922 3314 415 
Q 2916 -91 2278 -91 
Q 1894 -91 1617 61 
Q 1341 213 1159 525 
z
M 3116 1747 
Q 3116 2381 2855 2742 
Q 2594 3103 2138 3103 
Q 1681 3103 1420 2742 
Q 1159 2381 1159 1747 
Q 1159 1113 1420 752 
Q 1681 391 2138 391 
Q 2594 391 2855 752 
Q 3116 1113 3116 1747 
z
" id="DejaVuSans-70" transform="scale(0.015625)"/>
      <path d="M 947 1747 
Q 947 1113 1208 752 
Q 1469 391 1925 391 
Q 2381 391 2643 752 
Q 2906 1113 2906 1747 
Q 2906 2381 2643 2742 
Q 2381 3103 1925 3103 
Q 1469 3103 1208 2742 
Q 947 2381 947 1747 
z
M 2906 525 
Q 2725 213 2448 61 
Q 2172 -91 1784 -91 
Q 1150 -91 751 415 
Q 353 922 353 1747 
Q 353 2572 751 3078 
Q 1150 3584 1784 3584 
Q 2172 3584 2448 3432 
Q 2725 3281 2906 2969 
L 2906 3500 
L 3481 3500 
L 3481 -1331 
L 2906 -1331 
L 2906 525 
z
" id="DejaVuSans-71" transform="scale(0.015625)"/>
      <path d="M 313 2009 
L 1997 2009 
L 1997 1497 
L 313 1497 
L 313 2009 
z
" id="DejaVuSans-2d" transform="scale(0.015625)"/>
      <path d="M 2375 4863 
L 2375 4384 
L 1825 4384 
Q 1516 4384 1395 4259 
Q 1275 4134 1275 3809 
L 1275 3500 
L 2222 3500 
L 2222 3053 
L 1275 3053 
L 1275 0 
L 697 0 
L 697 3053 
L 147 3053 
L 147 3500 
L 697 3500 
L 697 3744 
Q 697 4328 969 4595 
Q 1241 4863 1831 4863 
L 2375 4863 
z
" id="DejaVuSans-66" transform="scale(0.015625)"/>
      <path d="M 353 3500 
L 3084 3500 
L 3084 2975 
L 922 459 
L 3084 459 
L 3084 0 
L 275 0 
L 275 525 
L 2438 3041 
L 353 3041 
L 353 3500 
z
" id="DejaVuSans-7a" transform="scale(0.015625)"/>
      <path d="M 750 794 
L 1409 794 
L 1409 256 
L 897 -744 
L 494 -744 
L 750 256 
L 750 794 
z
" id="DejaVuSans-2c" transform="scale(0.015625)"/>
      <path d="M 603 4863 
L 1178 4863 
L 1178 0 
L 603 0 
L 603 4863 
z
" id="DejaVuSans-6c" transform="scale(0.015625)"/>
      <path d="M 2834 3397 
L 2834 2853 
Q 2591 2978 2328 3040 
Q 2066 3103 1784 3103 
Q 1356 3103 1142 2972 
Q 928 2841 928 2578 
Q 928 2378 1081 2264 
Q 1234 2150 1697 2047 
L 1894 2003 
Q 2506 1872 2764 1633 
Q 3022 1394 3022 966 
Q 3022 478 2636 193 
Q 2250 -91 1575 -91 
Q 1294 -91 989 -36 
Q 684 19 347 128 
L 347 722 
Q 666 556 975 473 
Q 1284 391 1588 391 
Q 1994 391 2212 530 
Q 2431 669 2431 922 
Q 2431 1156 2273 1281 
Q 2116 1406 1581 1522 
L 1381 1569 
Q 847 1681 609 1914 
Q 372 2147 372 2553 
Q 372 3047 722 3315 
Q 1072 3584 1716 3584 
Q 2034 3584 2315 3537 
Q 2597 3491 2834 3397 
z
" id="DejaVuSans-73" transform="scale(0.015625)"/>
      <path d="M 1625 4666 
L 2156 4666 
L 531 -594 
L 0 -594 
L 1625 4666 
z
" id="DejaVuSans-2f" transform="scale(0.015625)"/>
     </defs>
     <use xlink:href="#DejaVuSans-61"/>
     <use x="61.279297" xlink:href="#DejaVuSans-72"/>
     <use x="100.642578" xlink:href="#DejaVuSans-72"/>
     <use x="139.505859" xlink:href="#DejaVuSans-6f"/>
     <use x="200.6875" xlink:href="#DejaVuSans-77"/>
     <use x="282.474609" xlink:href="#DejaVuSans-5f"/>
     <use x="332.474609" xlink:href="#DejaVuSans-70"/>
     <use x="395.951172" xlink:href="#DejaVuSans-61"/>
     <use x="457.230469" xlink:href="#DejaVuSans-72"/>
     <use x="496.59375" xlink:href="#DejaVuSans-71"/>
     <use x="560.070312" xlink:href="#DejaVuSans-75"/>
     <use x="623.449219" xlink:href="#DejaVuSans-65"/>
     <use x="684.972656" xlink:href="#DejaVuSans-74"/>
     <use x="724.181641" xlink:href="#DejaVuSans-2d"/>
     <use x="760.265625" xlink:href="#DejaVuSans-61"/>
     <use x="821.544922" xlink:href="#DejaVuSans-72"/>
     <use x="860.908203" xlink:href="#DejaVuSans-72"/>
     <use x="899.771484" xlink:href="#DejaVuSans-6f"/>
     <use x="960.953125" xlink:href="#DejaVuSans-77"/>
     <use x="1042.740234" xlink:href="#DejaVuSans-2d"/>
     <use x="1078.824219" xlink:href="#DejaVuSans-66"/>
     <use x="1114.029297" xlink:href="#DejaVuSans-75"/>
     <use x="1177.408203" xlink:href="#DejaVuSans-7a"/>
     <use x="1229.898438" xlink:href="#DejaVuSans-7a"/>
     <use x="1282.388672" xlink:href="#DejaVuSans-20"/>
     <use x="1314.175781" xlink:href="#DejaVuSans-28"/>
     <use x="1353.189453" xlink:href="#DejaVuSans-32"/>
     <use x="1416.8125" xlink:href="#DejaVuSans-33"/>
     <use x="1480.435547" xlink:href="#DejaVuSans-68"/>
     <use x="1543.814453" xlink:href="#DejaVuSans-2c"/>
     <use x="1575.601562" xlink:href="#DejaVuSans-20"/>
     <use x="1607.388672" xlink:href="#DejaVuSans-31"/>
     <use x="1671.011719" xlink:href="#DejaVuSans-36"/>
     <use x="1734.634766" xlink:href="#DejaVuSans-20"/>
     <use x="1766.421875" xlink:href="#DejaVuSans-74"/>
     <use x="1805.630859" xlink:href="#DejaVuSans-72"/>
     <use x="1846.744141" xlink:href="#DejaVuSans-69"/>
     <use x="1874.527344" xlink:href="#DejaVuSans-61"/>
     <use x="1935.806641" xlink:href="#DejaVuSans-6c"/>
     <use x="1963.589844" xlink:href="#DejaVuSans-73"/>
     <use x="2015.689453" xlink:href="#DejaVuSans-2f"/>
     <use x="2049.380859" xlink:href="#DejaVuSans-66"/>
     <use x="2084.585938" xlink:href="#DejaVuSans-75"/>
     <use x="2147.964844" xlink:href="#DejaVuSans-7a"/>
     <use x="2200.455078" xlink:href="#DejaVuSans-7a"/>
     <use x="2252.945312" xlink:href="#DejaVuSans-65"/>
     <use x="2314.46875" xlink:href="#DejaVuSans-72"/>
     <use x="2355.582031" xlink:href="#DejaVuSans-29"/>
    </g>
   </g>
   <g id="legend_1">
    <g id="line2d_34">
     <path d="M 414.448125 30.416562 
L 434.448125 30.416562 
" style="fill:none;stroke:#1f77b4;stroke-linecap:square;stroke-width:1.5;"/>
    </g>
    <g id="line2d_35">
     <defs>
      <path d="M 0 3 
C 0.795609 3 1.55874 2.683901 2.12132 2.12132 
C 2.683901 1.55874 3 0.795609 3 0 
C 3 -0.795609 2.683901 -1.55874 2.12132 -2.12132 
C 1.55874 -2.683901 0.795609 -3 0 -3 
C -0.795609 -3 -1.55874 -2.683901 -2.12132 -2.12132 
C -2.683901 -1.55874 -3 -0.795609 -3 0 
C -3 0.795609 -2.683901 1.55874 -2.12132 2.12132 
C -1.55874 2.683901 -0.795609 3 0 3 
z
" id="m993614ed00" style="stroke:#1f77b4;"/>
     </defs>
     <g>
      <use style="fill:#1f77b4;stroke:#1f77b4;" x="424.448125" xlink:href="#m993614ed00" y="30.416562"/>
     </g>
    </g>
    <g id="text_14">
     <!-- afl -->
     <g transform="translate(442.448125 33.916562)scale(0.1 -0.1)">
      <use xlink:href="#DejaVuSans-61"/>
      <use x="61.279297" xlink:href="#DejaVuSans-66"/>
      <use x="96.484375" xlink:href="#DejaVuSans-6c"/>
     </g>
    </g>
    <g id="line2d_36">
     <path d="M 414.448125 45.094688 
L 434.448125 45.094688 
" style="fill:none;stroke:#98df8a;stroke-linecap:square;stroke-width:1.5;"/>
    </g>
    <g id="line2d_37">
     <defs>
      <path d="M -0 3 
L 3 -3 
L -3 -3 
z
" id="m733a802c90" style="stroke:#98df8a;stroke-linejoin:miter;"/>
     </defs>
     <g>
      <use style="fill:#98df8a;stroke:#98df8a;stroke-linejoin:miter;" x="424.448125" xlink:href="#m733a802c90" y="45.094688"/>
     </g>
    </g>
    <g id="text_15">
     <!-- afl_scheduling_lifo -->
     <g transform="translate(442.448125 48.594688)scale(0.1 -0.1)">
      <use xlink:href="#DejaVuSans-61"/>
      <use x="61.279297" xlink:href="#DejaVuSans-66"/>
      <use x="96.484375" xlink:href="#DejaVuSans-6c"/>
      <use x="124.267578" xlink:href="#DejaVuSans-5f"/>
      <use x="174.267578" xlink:href="#DejaVuSans-73"/>
      <use x="226.367188" xlink:href="#DejaVuSans-63"/>
      <use x="281.347656" xlink:href="#DejaVuSans-68"/>
      <use x="344.726562" xlink:href="#DejaVuSans-65"/>
      <use x="406.25" xlink:href="#DejaVuSans-64"/>
      <use x="469.726562" xlink:href="#DejaVuSans-75"/>
      <use x="533.105469" xlink:href="#DejaVuSans-6c"/>
      <use x="560.888672" xlink:href="#DejaVuSans-69"/>
      <use x="588.671875" xlink:href="#DejaVuSans-6e"/>
      <use x="652.050781" xlink:href="#DejaVuSans-67"/>
      <use x="715.527344" xlink:href="#DejaVuSans-5f"/>
      <use x="765.527344" xlink:href="#DejaVuSans-6c"/>
      <use x="793.310547" xlink:href="#DejaVuSans-69"/>
      <use x="821.09375" xlink:href="#DejaVuSans-66"/>
      <use x="856.298828" xlink:href="#DejaVuSans-6f"/>
     </g>
    </g>
    <g id="line2d_38">
     <path d="M 414.448125 60.050937 
L 434.448125 60.050937 
" style="fill:none;stroke:#d62728;stroke-linecap:square;stroke-width:1.5;"/>
    </g>
    <g id="line2d_39">
     <defs>
      <path d="M 0 -3 
L -3 3 
L 3 3 
z
" id="mc78efb9018" style="stroke:#d62728;stroke-linejoin:miter;"/>
     </defs>
     <g>
      <use style="fill:#d62728;stroke:#d62728;stroke-linejoin:miter;" x="424.448125" xlink:href="#mc78efb9018" y="60.050937"/>
     </g>
    </g>
    <g id="text_16">
     <!-- afl_scheduling_random -->
     <g transform="translate(442.448125 63.550937)scale(0.1 -0.1)">
      <use xlink:href="#DejaVuSans-61"/>
      <use x="61.279297" xlink:href="#DejaVuSans-66"/>
      <use x="96.484375" xlink:href="#DejaVuSans-6c"/>
      <use x="124.267578" xlink:href="#DejaVuSans-5f"/>
      <use x="174.267578" xlink:href="#DejaVuSans-73"/>
      <use x="226.367188" xlink:href="#DejaVuSans-63"/>
      <use x="281.347656" xlink:href="#DejaVuSans-68"/>
      <use x="344.726562" xlink:href="#DejaVuSans-65"/>
      <use x="406.25" xlink:href="#DejaVuSans-64"/>
      <use x="469.726562" xlink:href="#DejaVuSans-75"/>
      <use x="533.105469" xlink:href="#DejaVuSans-6c"/>
      <use x="560.888672" xlink:href="#DejaVuSans-69"/>
      <use x="588.671875" xlink:href="#DejaVuSans-6e"/>
      <use x="652.050781" xlink:href="#DejaVuSans-67"/>
      <use x="715.527344" xlink:href="#DejaVuSans-5f"/>
      <use x="765.527344" xlink:href="#DejaVuSans-72"/>
      <use x="806.640625" xlink:href="#DejaVuSans-61"/>
      <use x="867.919922" xlink:href="#DejaVuSans-6e"/>
      <use x="931.298828" xlink:href="#DejaVuSans-64"/>
      <use x="994.775391" xlink:href="#DejaVuSans-6f"/>
      <use x="1055.957031" xlink:href="#DejaVuSans-6d"/>
     </g>
    </g>
   </g>
  </g>
 </g>
 <defs>
  <clipPath id="p50cb8fde66">
   <rect height="266.112" width="357.12" x="53.328125" y="22.318125"/>
  </clipPath>
 </defs>
</svg>
