<?xml version="1.0" encoding="utf-8" standalone="no"?>
<!DOCTYPE svg PUBLIC "-//W3C//DTD SVG 1.1//EN"
  "http://www.w3.org/Graphics/SVG/1.1/DTD/svg11.dtd">
<svg height="325.986375pt" version="1.1" viewBox="0 0 556.260625 325.986375" width="556.260625pt" xmlns="http://www.w3.org/2000/svg" xmlns:xlink="http://www.w3.org/1999/xlink">
 <metadata>
  <rdf:RDF xmlns:cc="http://creativecommons.org/ns#" xmlns:dc="http://purl.org/dc/elements/1.1/" xmlns:rdf="http://www.w3.org/1999/02/22-rdf-syntax-ns#">
   <cc:Work>
    <dc:type rdf:resource="http://purl.org/dc/dcmitype/StillImage"/>
    <dc:date>2022-07-21T16:08:08.757241</dc:date>
    <dc:format>image/svg+xml</dc:format>
    <dc:creator>
     <cc:Agent>
      <dc:title>Matplotlib v3.4.3, https://matplotlib.org/</dc:title>
     </cc:Agent>
    </dc:creator>
   </cc:Work>
  </rdf:RDF>
 </metadata>
 <defs>
  <style type="text/css">*{stroke-linecap:butt;stroke-linejoin:round;}</style>
 </defs>
 <g id="figure_1">
  <g id="patch_1">
   <path d="M 0 325.986375 
L 556.260625 325.986375 
L 556.260625 0 
L 0 0 
z
" style="fill:#ffffff;"/>
  </g>
  <g id="axes_1">
   <g id="patch_2">
    <path d="M 40.603125 288.430125 
L 397.723125 288.430125 
L 397.723125 22.318125 
L 40.603125 22.318125 
z
" style="fill:#ffffff;"/>
   </g>
   <g id="PolyCollection_1">
    <defs>
     <path d="M 56.835852 -153.863942 
L 56.835852 -49.65225 
L 106.602306 -150.142096 
L 135.713816 -157.585788 
L 156.36876 -172.473173 
L 172.38998 -172.473173 
L 185.480269 -179.916865 
L 196.547952 -187.360558 
L 206.135214 -198.526096 
L 214.591779 -202.247942 
L 222.156434 -202.247942 
L 228.999496 -209.691635 
L 235.246723 -209.691635 
L 240.993615 -209.691635 
L 246.314406 -213.413481 
L 251.267943 -217.135327 
L 255.901668 -220.857173 
L 260.254383 -224.579019 
L 264.358233 -224.579019 
L 268.240141 -228.300865 
L 271.922888 -232.022712 
L 275.425915 -232.022712 
L 278.76595 -235.744558 
L 281.95749 -239.466404 
L 285.013177 -239.466404 
L 287.944107 -239.466404 
L 290.760069 -239.466404 
L 293.469742 -243.18825 
L 296.080859 -246.910096 
L 298.60034 -246.910096 
L 301.034397 -246.910096 
L 303.388635 -246.910096 
L 305.668122 -246.910096 
L 307.87746 -246.910096 
L 310.020837 -246.910096 
L 312.102079 -250.631942 
L 314.124687 -250.631942 
L 316.091873 -250.631942 
L 318.006595 -254.353788 
L 319.871578 -254.353788 
L 321.689342 -254.353788 
L 323.462217 -254.353788 
L 325.192369 -254.353788 
L 326.881807 -258.075635 
L 328.532404 -258.075635 
L 330.145906 -258.075635 
L 331.723944 -258.075635 
L 333.268042 -258.075635 
L 334.779631 -258.075635 
L 336.260051 -258.075635 
L 337.710561 -258.075635 
L 339.132347 -258.075635 
L 340.526523 -261.797481 
L 341.894142 -261.797481 
L 343.236196 -261.797481 
L 344.553624 -261.797481 
L 345.847313 -261.797481 
L 347.118104 -265.519327 
L 348.366794 -261.797481 
L 349.594136 -265.519327 
L 350.800851 -265.519327 
L 351.987619 -265.426281 
L 353.155089 -265.519327 
L 354.303878 -265.519327 
L 355.434576 -265.519327 
L 356.547743 -265.519327 
L 357.643914 -265.519327 
L 358.7236 -265.519327 
L 359.787291 -265.519327 
L 360.835453 -265.519327 
L 361.868533 -265.519327 
L 362.886959 -265.519327 
L 363.891141 -265.519327 
L 364.881471 -265.519327 
L 365.858327 -265.519327 
L 366.822071 -269.241173 
L 367.773049 -269.241173 
L 368.711596 -269.241173 
L 369.638032 -269.241173 
L 370.552666 -269.241173 
L 371.455795 -269.241173 
L 372.347705 -269.241173 
L 373.228671 -269.241173 
L 374.098958 -269.241173 
L 374.958823 -269.241173 
L 375.808511 -269.241173 
L 376.648261 -269.241173 
L 377.478303 -269.241173 
L 378.298858 -269.241173 
L 379.110142 -269.241173 
L 379.91236 -269.241173 
L 380.705714 -269.241173 
L 381.490398 -269.241173 
L 381.490398 -291.57225 
L 381.490398 -291.57225 
L 380.705714 -287.850404 
L 379.91236 -287.850404 
L 379.110142 -291.57225 
L 378.298858 -287.850404 
L 377.478303 -287.850404 
L 376.648261 -287.850404 
L 375.808511 -287.850404 
L 374.958823 -287.850404 
L 374.098958 -287.850404 
L 373.228671 -284.128558 
L 372.347705 -284.128558 
L 371.455795 -284.128558 
L 370.552666 -284.128558 
L 369.638032 -284.128558 
L 368.711596 -284.128558 
L 367.773049 -280.406712 
L 366.822071 -280.406712 
L 365.858327 -280.406712 
L 364.881471 -280.406712 
L 363.891141 -280.406712 
L 362.886959 -280.406712 
L 361.868533 -276.684865 
L 360.835453 -276.684865 
L 359.787291 -276.684865 
L 358.7236 -276.684865 
L 357.643914 -276.684865 
L 356.547743 -276.684865 
L 355.434576 -276.684865 
L 354.303878 -276.684865 
L 353.155089 -276.684865 
L 351.987619 -276.684865 
L 350.800851 -276.684865 
L 349.594136 -276.684865 
L 348.366794 -276.684865 
L 347.118104 -276.684865 
L 345.847313 -276.684865 
L 344.553624 -276.684865 
L 343.236196 -276.684865 
L 341.894142 -276.684865 
L 340.526523 -276.684865 
L 339.132347 -276.684865 
L 337.710561 -276.684865 
L 336.260051 -276.684865 
L 334.779631 -272.963019 
L 333.268042 -272.963019 
L 331.723944 -272.963019 
L 330.145906 -269.241173 
L 328.532404 -269.241173 
L 326.881807 -269.241173 
L 325.192369 -269.241173 
L 323.462217 -269.241173 
L 321.689342 -269.241173 
L 319.871578 -265.519327 
L 318.006595 -265.519327 
L 316.091873 -261.797481 
L 314.124687 -261.797481 
L 312.102079 -261.797481 
L 310.020837 -261.797481 
L 307.87746 -261.797481 
L 305.668122 -261.797481 
L 303.388635 -258.075635 
L 301.034397 -258.075635 
L 298.60034 -258.168681 
L 296.080859 -258.075635 
L 293.469742 -254.353788 
L 290.760069 -254.353788 
L 287.944107 -254.353788 
L 285.013177 -250.631942 
L 281.95749 -246.910096 
L 278.76595 -246.910096 
L 275.425915 -246.910096 
L 271.922888 -243.18825 
L 268.240141 -239.466404 
L 264.358233 -239.466404 
L 260.254383 -239.466404 
L 255.901668 -239.466404 
L 251.267943 -232.022712 
L 246.314406 -228.300865 
L 240.993615 -228.300865 
L 235.246723 -224.579019 
L 228.999496 -224.579019 
L 222.156434 -220.857173 
L 214.591779 -217.135327 
L 206.135214 -209.691635 
L 196.547952 -209.691635 
L 185.480269 -202.247942 
L 172.38998 -187.360558 
L 156.36876 -183.638712 
L 135.713816 -176.195019 
L 106.602306 -172.473173 
L 56.835852 -153.863942 
z
" id="mce0b8e0c90" style="stroke:#1f77b4;stroke-opacity:0.2;"/>
    </defs>
    <g clip-path="url(#p637d5512cb)">
     <use style="fill:#1f77b4;fill-opacity:0.2;stroke:#1f77b4;stroke-opacity:0.2;" x="0" xlink:href="#mce0b8e0c90" y="325.986375"/>
    </g>
   </g>
   <g id="PolyCollection_2">
    <defs>
     <path d="M 56.835852 -150.142096 
L 56.835852 -135.254712 
L 106.602306 -150.142096 
L 135.713816 -161.307635 
L 156.36876 -165.029481 
L 172.38998 -176.195019 
L 185.480269 -179.916865 
L 196.547952 -183.638712 
L 206.135214 -187.360558 
L 214.591779 -187.360558 
L 222.156434 -191.082404 
L 228.999496 -194.80425 
L 235.246723 -202.154896 
L 240.993615 -202.247942 
L 246.314406 -205.876742 
L 251.267943 -205.969788 
L 255.901668 -213.413481 
L 260.254383 -224.579019 
L 264.358233 -224.579019 
L 268.240141 -224.579019 
L 271.922888 -224.579019 
L 275.425915 -224.579019 
L 278.76595 -224.579019 
L 281.95749 -224.579019 
L 285.013177 -228.300865 
L 287.944107 -228.300865 
L 290.760069 -232.022712 
L 293.469742 -232.022712 
L 296.080859 -232.022712 
L 298.60034 -235.744558 
L 301.034397 -239.466404 
L 303.388635 -239.466404 
L 305.668122 -239.466404 
L 307.87746 -243.18825 
L 310.020837 -246.910096 
L 312.102079 -246.910096 
L 314.124687 -246.910096 
L 316.091873 -246.910096 
L 318.006595 -246.910096 
L 319.871578 -246.910096 
L 321.689342 -246.910096 
L 323.462217 -246.910096 
L 325.192369 -246.910096 
L 326.881807 -250.631942 
L 328.532404 -250.631942 
L 330.145906 -254.353788 
L 331.723944 -254.353788 
L 333.268042 -254.353788 
L 334.779631 -254.353788 
L 336.260051 -254.353788 
L 337.710561 -254.353788 
L 339.132347 -254.353788 
L 340.526523 -254.353788 
L 341.894142 -254.353788 
L 343.236196 -254.353788 
L 344.553624 -258.075635 
L 345.847313 -261.797481 
L 347.118104 -261.797481 
L 348.366794 -261.797481 
L 349.594136 -261.797481 
L 350.800851 -261.797481 
L 351.987619 -261.797481 
L 353.155089 -261.797481 
L 354.303878 -265.519327 
L 355.434576 -265.519327 
L 356.547743 -269.241173 
L 357.643914 -269.241173 
L 358.7236 -269.241173 
L 359.787291 -269.241173 
L 360.835453 -269.241173 
L 361.868533 -269.241173 
L 362.886959 -269.241173 
L 363.891141 -269.241173 
L 364.881471 -269.241173 
L 365.858327 -269.241173 
L 366.822071 -269.241173 
L 367.773049 -269.241173 
L 368.711596 -269.241173 
L 369.638032 -276.684865 
L 370.552666 -276.684865 
L 371.455795 -276.684865 
L 372.347705 -276.684865 
L 373.228671 -276.684865 
L 374.098958 -276.684865 
L 374.958823 -276.684865 
L 375.808511 -276.684865 
L 376.648261 -276.684865 
L 377.478303 -276.684865 
L 378.298858 -276.684865 
L 379.110142 -276.684865 
L 379.91236 -276.684865 
L 380.705714 -276.684865 
L 381.490398 -276.684865 
L 381.490398 -284.128558 
L 381.490398 -284.128558 
L 380.705714 -284.128558 
L 379.91236 -284.128558 
L 379.110142 -284.128558 
L 378.298858 -284.128558 
L 377.478303 -284.128558 
L 376.648261 -284.128558 
L 375.808511 -284.128558 
L 374.958823 -284.128558 
L 374.098958 -284.128558 
L 373.228671 -280.406712 
L 372.347705 -276.684865 
L 371.455795 -276.684865 
L 370.552666 -276.684865 
L 369.638032 -276.684865 
L 368.711596 -276.684865 
L 367.773049 -276.684865 
L 366.822071 -276.684865 
L 365.858327 -276.684865 
L 364.881471 -276.684865 
L 363.891141 -276.684865 
L 362.886959 -276.684865 
L 361.868533 -276.684865 
L 360.835453 -276.684865 
L 359.787291 -276.684865 
L 358.7236 -276.684865 
L 357.643914 -276.684865 
L 356.547743 -276.684865 
L 355.434576 -276.684865 
L 354.303878 -276.684865 
L 353.155089 -272.963019 
L 351.987619 -272.963019 
L 350.800851 -272.963019 
L 349.594136 -272.963019 
L 348.366794 -272.963019 
L 347.118104 -272.963019 
L 345.847313 -272.963019 
L 344.553624 -269.241173 
L 343.236196 -269.241173 
L 341.894142 -269.241173 
L 340.526523 -269.241173 
L 339.132347 -269.241173 
L 337.710561 -269.241173 
L 336.260051 -269.241173 
L 334.779631 -269.241173 
L 333.268042 -269.241173 
L 331.723944 -269.241173 
L 330.145906 -269.241173 
L 328.532404 -269.241173 
L 326.881807 -269.241173 
L 325.192369 -265.519327 
L 323.462217 -261.797481 
L 321.689342 -261.797481 
L 319.871578 -261.797481 
L 318.006595 -258.075635 
L 316.091873 -254.353788 
L 314.124687 -254.353788 
L 312.102079 -254.353788 
L 310.020837 -254.353788 
L 307.87746 -254.353788 
L 305.668122 -254.353788 
L 303.388635 -254.353788 
L 301.034397 -254.353788 
L 298.60034 -254.353788 
L 296.080859 -254.353788 
L 293.469742 -250.631942 
L 290.760069 -246.910096 
L 287.944107 -246.910096 
L 285.013177 -246.910096 
L 281.95749 -246.910096 
L 278.76595 -246.910096 
L 275.425915 -239.466404 
L 271.922888 -239.466404 
L 268.240141 -235.744558 
L 264.358233 -232.022712 
L 260.254383 -232.022712 
L 255.901668 -224.579019 
L 251.267943 -224.579019 
L 246.314406 -220.857173 
L 240.993615 -217.135327 
L 235.246723 -217.135327 
L 228.999496 -217.135327 
L 222.156434 -217.135327 
L 214.591779 -209.691635 
L 206.135214 -205.969788 
L 196.547952 -194.80425 
L 185.480269 -194.80425 
L 172.38998 -187.360558 
L 156.36876 -179.916865 
L 135.713816 -172.473173 
L 106.602306 -165.029481 
L 56.835852 -150.142096 
z
" id="m4e32c50913" style="stroke:#d62728;stroke-opacity:0.2;"/>
    </defs>
    <g clip-path="url(#p637d5512cb)">
     <use style="fill:#d62728;fill-opacity:0.2;stroke:#d62728;stroke-opacity:0.2;" x="0" xlink:href="#m4e32c50913" y="325.986375"/>
    </g>
   </g>
   <g id="PolyCollection_3">
    <defs>
     <path d="M 56.835852 -142.698404 
L 56.835852 -127.811019 
L 106.602306 -135.254712 
L 135.713816 -142.698404 
L 156.36876 -157.585788 
L 172.38998 -161.307635 
L 185.480269 -165.029481 
L 196.547952 -168.751327 
L 206.135214 -168.751327 
L 214.591779 -176.195019 
L 222.156434 -179.916865 
L 228.999496 -187.360558 
L 235.246723 -187.360558 
L 240.993615 -187.360558 
L 246.314406 -191.082404 
L 251.267943 -194.80425 
L 255.901668 -194.80425 
L 260.254383 -194.80425 
L 264.358233 -194.80425 
L 268.240141 -194.80425 
L 271.922888 -198.526096 
L 275.425915 -202.247942 
L 278.76595 -205.969788 
L 281.95749 -209.691635 
L 285.013177 -209.691635 
L 287.944107 -209.691635 
L 290.760069 -209.691635 
L 293.469742 -213.413481 
L 296.080859 -213.413481 
L 298.60034 -213.413481 
L 301.034397 -213.413481 
L 303.388635 -213.413481 
L 305.668122 -213.413481 
L 307.87746 -213.413481 
L 310.020837 -213.413481 
L 312.102079 -213.413481 
L 314.124687 -213.413481 
L 316.091873 -217.135327 
L 318.006595 -217.135327 
L 319.871578 -220.857173 
L 321.689342 -224.579019 
L 323.462217 -224.579019 
L 325.192369 -224.579019 
L 326.881807 -224.579019 
L 328.532404 -224.579019 
L 330.145906 -224.579019 
L 331.723944 -224.579019 
L 333.268042 -224.579019 
L 334.779631 -224.579019 
L 336.260051 -224.579019 
L 337.710561 -228.300865 
L 339.132347 -232.022712 
L 340.526523 -232.022712 
L 341.894142 -232.022712 
L 343.236196 -232.022712 
L 344.553624 -232.022712 
L 345.847313 -239.466404 
L 347.118104 -235.744558 
L 348.366794 -235.744558 
L 349.594136 -239.466404 
L 350.800851 -239.466404 
L 351.987619 -239.466404 
L 353.155089 -239.466404 
L 354.303878 -239.466404 
L 355.434576 -239.466404 
L 356.547743 -239.466404 
L 357.643914 -239.466404 
L 358.7236 -239.466404 
L 359.787291 -239.466404 
L 360.835453 -239.466404 
L 361.868533 -243.095204 
L 362.886959 -243.18825 
L 363.891141 -243.18825 
L 364.881471 -246.910096 
L 365.858327 -246.910096 
L 366.822071 -246.910096 
L 367.773049 -246.910096 
L 368.711596 -246.910096 
L 369.638032 -246.910096 
L 370.552666 -246.910096 
L 371.455795 -246.910096 
L 372.347705 -250.631942 
L 373.228671 -250.538896 
L 374.098958 -250.631942 
L 374.958823 -250.631942 
L 375.808511 -254.353788 
L 376.648261 -254.353788 
L 377.478303 -254.353788 
L 378.298858 -254.353788 
L 379.110142 -254.353788 
L 379.91236 -254.353788 
L 380.705714 -254.353788 
L 381.490398 -254.353788 
L 381.490398 -284.128558 
L 381.490398 -284.128558 
L 380.705714 -284.128558 
L 379.91236 -284.128558 
L 379.110142 -284.128558 
L 378.298858 -284.128558 
L 377.478303 -284.128558 
L 376.648261 -284.128558 
L 375.808511 -284.128558 
L 374.958823 -284.128558 
L 374.098958 -284.128558 
L 373.228671 -284.128558 
L 372.347705 -284.128558 
L 371.455795 -284.128558 
L 370.552666 -284.128558 
L 369.638032 -284.128558 
L 368.711596 -284.128558 
L 367.773049 -284.128558 
L 366.822071 -284.128558 
L 365.858327 -284.128558 
L 364.881471 -284.128558 
L 363.891141 -284.128558 
L 362.886959 -280.406712 
L 361.868533 -280.406712 
L 360.835453 -276.684865 
L 359.787291 -276.684865 
L 358.7236 -272.963019 
L 357.643914 -269.241173 
L 356.547743 -269.241173 
L 355.434576 -265.519327 
L 354.303878 -265.612373 
L 353.155089 -265.519327 
L 351.987619 -269.241173 
L 350.800851 -265.519327 
L 349.594136 -265.519327 
L 348.366794 -265.612373 
L 347.118104 -265.519327 
L 345.847313 -265.519327 
L 344.553624 -265.519327 
L 343.236196 -265.519327 
L 341.894142 -265.519327 
L 340.526523 -265.519327 
L 339.132347 -265.519327 
L 337.710561 -265.519327 
L 336.260051 -261.797481 
L 334.779631 -261.797481 
L 333.268042 -261.797481 
L 331.723944 -261.797481 
L 330.145906 -261.797481 
L 328.532404 -261.797481 
L 326.881807 -258.075635 
L 325.192369 -254.353788 
L 323.462217 -254.353788 
L 321.689342 -250.631942 
L 319.871578 -246.910096 
L 318.006595 -246.910096 
L 316.091873 -246.910096 
L 314.124687 -246.910096 
L 312.102079 -246.910096 
L 310.020837 -246.910096 
L 307.87746 -246.910096 
L 305.668122 -246.910096 
L 303.388635 -243.18825 
L 301.034397 -239.466404 
L 298.60034 -239.466404 
L 296.080859 -239.466404 
L 293.469742 -239.466404 
L 290.760069 -239.466404 
L 287.944107 -239.466404 
L 285.013177 -239.466404 
L 281.95749 -235.744558 
L 278.76595 -232.022712 
L 275.425915 -228.300865 
L 271.922888 -224.579019 
L 268.240141 -224.579019 
L 264.358233 -224.579019 
L 260.254383 -224.579019 
L 255.901668 -220.857173 
L 251.267943 -217.135327 
L 246.314406 -217.135327 
L 240.993615 -217.135327 
L 235.246723 -217.135327 
L 228.999496 -209.691635 
L 222.156434 -205.969788 
L 214.591779 -194.80425 
L 206.135214 -191.082404 
L 196.547952 -187.360558 
L 185.480269 -187.360558 
L 172.38998 -183.638712 
L 156.36876 -165.029481 
L 135.713816 -165.029481 
L 106.602306 -150.142096 
L 56.835852 -142.698404 
z
" id="m7e74f80f8b" style="stroke:#98df8a;stroke-opacity:0.2;"/>
    </defs>
    <g clip-path="url(#p637d5512cb)">
     <use style="fill:#98df8a;fill-opacity:0.2;stroke:#98df8a;stroke-opacity:0.2;" x="0" xlink:href="#m7e74f80f8b" y="325.986375"/>
    </g>
   </g>
   <g id="matplotlib.axis_1">
    <g id="xtick_1">
     <g id="line2d_1">
      <defs>
       <path d="M 0 0 
L 0 3.5 
" id="m0fff7d6421" style="stroke:#000000;stroke-width:0.8;"/>
      </defs>
      <g>
       <use style="stroke:#000000;stroke-width:0.8;" x="56.835852" xlink:href="#m0fff7d6421" y="288.430125"/>
      </g>
     </g>
     <g id="text_1">
      <!-- 14m -->
      <g transform="translate(45.60304 303.028562)scale(0.1 -0.1)">
       <defs>
        <path d="M 794 531 
L 1825 531 
L 1825 4091 
L 703 3866 
L 703 4441 
L 1819 4666 
L 2450 4666 
L 2450 531 
L 3481 531 
L 3481 0 
L 794 0 
L 794 531 
z
" id="DejaVuSans-31" transform="scale(0.015625)"/>
        <path d="M 2419 4116 
L 825 1625 
L 2419 1625 
L 2419 4116 
z
M 2253 4666 
L 3047 4666 
L 3047 1625 
L 3713 1625 
L 3713 1100 
L 3047 1100 
L 3047 0 
L 2419 0 
L 2419 1100 
L 313 1100 
L 313 1709 
L 2253 4666 
z
" id="DejaVuSans-34" transform="scale(0.015625)"/>
        <path d="M 3328 2828 
Q 3544 3216 3844 3400 
Q 4144 3584 4550 3584 
Q 5097 3584 5394 3201 
Q 5691 2819 5691 2113 
L 5691 0 
L 5113 0 
L 5113 2094 
Q 5113 2597 4934 2840 
Q 4756 3084 4391 3084 
Q 3944 3084 3684 2787 
Q 3425 2491 3425 1978 
L 3425 0 
L 2847 0 
L 2847 2094 
Q 2847 2600 2669 2842 
Q 2491 3084 2119 3084 
Q 1678 3084 1418 2786 
Q 1159 2488 1159 1978 
L 1159 0 
L 581 0 
L 581 3500 
L 1159 3500 
L 1159 2956 
Q 1356 3278 1631 3431 
Q 1906 3584 2284 3584 
Q 2666 3584 2933 3390 
Q 3200 3197 3328 2828 
z
" id="DejaVuSans-6d" transform="scale(0.015625)"/>
       </defs>
       <use xlink:href="#DejaVuSans-31"/>
       <use x="63.623047" xlink:href="#DejaVuSans-34"/>
       <use x="127.246094" xlink:href="#DejaVuSans-6d"/>
      </g>
     </g>
    </g>
    <g id="xtick_2">
     <g id="line2d_2">
      <g>
       <use style="stroke:#000000;stroke-width:0.8;" x="121.766935" xlink:href="#m0fff7d6421" y="288.430125"/>
      </g>
     </g>
     <g id="text_2">
      <!-- 37m -->
      <g transform="translate(110.534122 303.028562)scale(0.1 -0.1)">
       <defs>
        <path d="M 2597 2516 
Q 3050 2419 3304 2112 
Q 3559 1806 3559 1356 
Q 3559 666 3084 287 
Q 2609 -91 1734 -91 
Q 1441 -91 1130 -33 
Q 819 25 488 141 
L 488 750 
Q 750 597 1062 519 
Q 1375 441 1716 441 
Q 2309 441 2620 675 
Q 2931 909 2931 1356 
Q 2931 1769 2642 2001 
Q 2353 2234 1838 2234 
L 1294 2234 
L 1294 2753 
L 1863 2753 
Q 2328 2753 2575 2939 
Q 2822 3125 2822 3475 
Q 2822 3834 2567 4026 
Q 2313 4219 1838 4219 
Q 1578 4219 1281 4162 
Q 984 4106 628 3988 
L 628 4550 
Q 988 4650 1302 4700 
Q 1616 4750 1894 4750 
Q 2613 4750 3031 4423 
Q 3450 4097 3450 3541 
Q 3450 3153 3228 2886 
Q 3006 2619 2597 2516 
z
" id="DejaVuSans-33" transform="scale(0.015625)"/>
        <path d="M 525 4666 
L 3525 4666 
L 3525 4397 
L 1831 0 
L 1172 0 
L 2766 4134 
L 525 4134 
L 525 4666 
z
" id="DejaVuSans-37" transform="scale(0.015625)"/>
       </defs>
       <use xlink:href="#DejaVuSans-33"/>
       <use x="63.623047" xlink:href="#DejaVuSans-37"/>
       <use x="127.246094" xlink:href="#DejaVuSans-6d"/>
      </g>
     </g>
    </g>
    <g id="xtick_3">
     <g id="line2d_3">
      <g>
       <use style="stroke:#000000;stroke-width:0.8;" x="186.698017" xlink:href="#m0fff7d6421" y="288.430125"/>
      </g>
     </g>
     <g id="text_3">
      <!-- 1h:31m -->
      <g transform="translate(167.43083 303.028562)scale(0.1 -0.1)">
       <defs>
        <path d="M 3513 2113 
L 3513 0 
L 2938 0 
L 2938 2094 
Q 2938 2591 2744 2837 
Q 2550 3084 2163 3084 
Q 1697 3084 1428 2787 
Q 1159 2491 1159 1978 
L 1159 0 
L 581 0 
L 581 4863 
L 1159 4863 
L 1159 2956 
Q 1366 3272 1645 3428 
Q 1925 3584 2291 3584 
Q 2894 3584 3203 3211 
Q 3513 2838 3513 2113 
z
" id="DejaVuSans-68" transform="scale(0.015625)"/>
        <path d="M 750 794 
L 1409 794 
L 1409 0 
L 750 0 
L 750 794 
z
M 750 3309 
L 1409 3309 
L 1409 2516 
L 750 2516 
L 750 3309 
z
" id="DejaVuSans-3a" transform="scale(0.015625)"/>
       </defs>
       <use xlink:href="#DejaVuSans-31"/>
       <use x="63.623047" xlink:href="#DejaVuSans-68"/>
       <use x="127.001953" xlink:href="#DejaVuSans-3a"/>
       <use x="160.693359" xlink:href="#DejaVuSans-33"/>
       <use x="224.316406" xlink:href="#DejaVuSans-31"/>
       <use x="287.939453" xlink:href="#DejaVuSans-6d"/>
      </g>
     </g>
    </g>
    <g id="xtick_4">
     <g id="line2d_4">
      <g>
       <use style="stroke:#000000;stroke-width:0.8;" x="251.6291" xlink:href="#m0fff7d6421" y="288.430125"/>
      </g>
     </g>
     <g id="text_4">
      <!-- 3h:46m -->
      <g transform="translate(232.361912 303.028562)scale(0.1 -0.1)">
       <defs>
        <path d="M 2113 2584 
Q 1688 2584 1439 2293 
Q 1191 2003 1191 1497 
Q 1191 994 1439 701 
Q 1688 409 2113 409 
Q 2538 409 2786 701 
Q 3034 994 3034 1497 
Q 3034 2003 2786 2293 
Q 2538 2584 2113 2584 
z
M 3366 4563 
L 3366 3988 
Q 3128 4100 2886 4159 
Q 2644 4219 2406 4219 
Q 1781 4219 1451 3797 
Q 1122 3375 1075 2522 
Q 1259 2794 1537 2939 
Q 1816 3084 2150 3084 
Q 2853 3084 3261 2657 
Q 3669 2231 3669 1497 
Q 3669 778 3244 343 
Q 2819 -91 2113 -91 
Q 1303 -91 875 529 
Q 447 1150 447 2328 
Q 447 3434 972 4092 
Q 1497 4750 2381 4750 
Q 2619 4750 2861 4703 
Q 3103 4656 3366 4563 
z
" id="DejaVuSans-36" transform="scale(0.015625)"/>
       </defs>
       <use xlink:href="#DejaVuSans-33"/>
       <use x="63.623047" xlink:href="#DejaVuSans-68"/>
       <use x="127.001953" xlink:href="#DejaVuSans-3a"/>
       <use x="160.693359" xlink:href="#DejaVuSans-34"/>
       <use x="224.316406" xlink:href="#DejaVuSans-36"/>
       <use x="287.939453" xlink:href="#DejaVuSans-6d"/>
      </g>
     </g>
    </g>
    <g id="xtick_5">
     <g id="line2d_5">
      <g>
       <use style="stroke:#000000;stroke-width:0.8;" x="316.560182" xlink:href="#m0fff7d6421" y="288.430125"/>
      </g>
     </g>
     <g id="text_5">
      <!-- 9h:18m -->
      <g transform="translate(297.292995 303.028562)scale(0.1 -0.1)">
       <defs>
        <path d="M 703 97 
L 703 672 
Q 941 559 1184 500 
Q 1428 441 1663 441 
Q 2288 441 2617 861 
Q 2947 1281 2994 2138 
Q 2813 1869 2534 1725 
Q 2256 1581 1919 1581 
Q 1219 1581 811 2004 
Q 403 2428 403 3163 
Q 403 3881 828 4315 
Q 1253 4750 1959 4750 
Q 2769 4750 3195 4129 
Q 3622 3509 3622 2328 
Q 3622 1225 3098 567 
Q 2575 -91 1691 -91 
Q 1453 -91 1209 -44 
Q 966 3 703 97 
z
M 1959 2075 
Q 2384 2075 2632 2365 
Q 2881 2656 2881 3163 
Q 2881 3666 2632 3958 
Q 2384 4250 1959 4250 
Q 1534 4250 1286 3958 
Q 1038 3666 1038 3163 
Q 1038 2656 1286 2365 
Q 1534 2075 1959 2075 
z
" id="DejaVuSans-39" transform="scale(0.015625)"/>
        <path d="M 2034 2216 
Q 1584 2216 1326 1975 
Q 1069 1734 1069 1313 
Q 1069 891 1326 650 
Q 1584 409 2034 409 
Q 2484 409 2743 651 
Q 3003 894 3003 1313 
Q 3003 1734 2745 1975 
Q 2488 2216 2034 2216 
z
M 1403 2484 
Q 997 2584 770 2862 
Q 544 3141 544 3541 
Q 544 4100 942 4425 
Q 1341 4750 2034 4750 
Q 2731 4750 3128 4425 
Q 3525 4100 3525 3541 
Q 3525 3141 3298 2862 
Q 3072 2584 2669 2484 
Q 3125 2378 3379 2068 
Q 3634 1759 3634 1313 
Q 3634 634 3220 271 
Q 2806 -91 2034 -91 
Q 1263 -91 848 271 
Q 434 634 434 1313 
Q 434 1759 690 2068 
Q 947 2378 1403 2484 
z
M 1172 3481 
Q 1172 3119 1398 2916 
Q 1625 2713 2034 2713 
Q 2441 2713 2670 2916 
Q 2900 3119 2900 3481 
Q 2900 3844 2670 4047 
Q 2441 4250 2034 4250 
Q 1625 4250 1398 4047 
Q 1172 3844 1172 3481 
z
" id="DejaVuSans-38" transform="scale(0.015625)"/>
       </defs>
       <use xlink:href="#DejaVuSans-39"/>
       <use x="63.623047" xlink:href="#DejaVuSans-68"/>
       <use x="127.001953" xlink:href="#DejaVuSans-3a"/>
       <use x="160.693359" xlink:href="#DejaVuSans-31"/>
       <use x="224.316406" xlink:href="#DejaVuSans-38"/>
       <use x="287.939453" xlink:href="#DejaVuSans-6d"/>
      </g>
     </g>
    </g>
    <g id="xtick_6">
     <g id="line2d_6">
      <g>
       <use style="stroke:#000000;stroke-width:0.8;" x="381.491265" xlink:href="#m0fff7d6421" y="288.430125"/>
      </g>
     </g>
     <g id="text_6">
      <!-- 23h -->
      <g transform="translate(371.960015 303.028562)scale(0.1 -0.1)">
       <defs>
        <path d="M 1228 531 
L 3431 531 
L 3431 0 
L 469 0 
L 469 531 
Q 828 903 1448 1529 
Q 2069 2156 2228 2338 
Q 2531 2678 2651 2914 
Q 2772 3150 2772 3378 
Q 2772 3750 2511 3984 
Q 2250 4219 1831 4219 
Q 1534 4219 1204 4116 
Q 875 4013 500 3803 
L 500 4441 
Q 881 4594 1212 4672 
Q 1544 4750 1819 4750 
Q 2544 4750 2975 4387 
Q 3406 4025 3406 3419 
Q 3406 3131 3298 2873 
Q 3191 2616 2906 2266 
Q 2828 2175 2409 1742 
Q 1991 1309 1228 531 
z
" id="DejaVuSans-32" transform="scale(0.015625)"/>
       </defs>
       <use xlink:href="#DejaVuSans-32"/>
       <use x="63.623047" xlink:href="#DejaVuSans-33"/>
       <use x="127.246094" xlink:href="#DejaVuSans-68"/>
      </g>
     </g>
    </g>
    <g id="xtick_7">
     <g id="line2d_7">
      <defs>
       <path d="M 0 0 
L 0 2 
" id="mbf695337ed" style="stroke:#000000;stroke-width:0.6;"/>
      </defs>
      <g>
       <use style="stroke:#000000;stroke-width:0.6;" x="48.379288" xlink:href="#mbf695337ed" y="288.430125"/>
      </g>
     </g>
    </g>
    <g id="xtick_8">
     <g id="line2d_8">
      <g>
       <use style="stroke:#000000;stroke-width:0.6;" x="114.166961" xlink:href="#mbf695337ed" y="288.430125"/>
      </g>
     </g>
    </g>
    <g id="xtick_9">
     <g id="line2d_9">
      <g>
       <use style="stroke:#000000;stroke-width:0.6;" x="143.27847" xlink:href="#mbf695337ed" y="288.430125"/>
      </g>
     </g>
    </g>
    <g id="xtick_10">
     <g id="line2d_10">
      <g>
       <use style="stroke:#000000;stroke-width:0.6;" x="163.933415" xlink:href="#mbf695337ed" y="288.430125"/>
      </g>
     </g>
    </g>
    <g id="xtick_11">
     <g id="line2d_11">
      <g>
       <use style="stroke:#000000;stroke-width:0.6;" x="179.954635" xlink:href="#mbf695337ed" y="288.430125"/>
      </g>
     </g>
    </g>
    <g id="xtick_12">
     <g id="line2d_12">
      <g>
       <use style="stroke:#000000;stroke-width:0.6;" x="193.044924" xlink:href="#mbf695337ed" y="288.430125"/>
      </g>
     </g>
    </g>
    <g id="xtick_13">
     <g id="line2d_13">
      <g>
       <use style="stroke:#000000;stroke-width:0.6;" x="204.112607" xlink:href="#mbf695337ed" y="288.430125"/>
      </g>
     </g>
    </g>
    <g id="xtick_14">
     <g id="line2d_14">
      <g>
       <use style="stroke:#000000;stroke-width:0.6;" x="213.699869" xlink:href="#mbf695337ed" y="288.430125"/>
      </g>
     </g>
    </g>
    <g id="xtick_15">
     <g id="line2d_15">
      <g>
       <use style="stroke:#000000;stroke-width:0.6;" x="222.156434" xlink:href="#mbf695337ed" y="288.430125"/>
      </g>
     </g>
    </g>
    <g id="xtick_16">
     <g id="line2d_16">
      <g>
       <use style="stroke:#000000;stroke-width:0.6;" x="279.487543" xlink:href="#mbf695337ed" y="288.430125"/>
      </g>
     </g>
    </g>
    <g id="xtick_17">
     <g id="line2d_17">
      <g>
       <use style="stroke:#000000;stroke-width:0.6;" x="308.599052" xlink:href="#mbf695337ed" y="288.430125"/>
      </g>
     </g>
    </g>
    <g id="xtick_18">
     <g id="line2d_18">
      <g>
       <use style="stroke:#000000;stroke-width:0.6;" x="329.253996" xlink:href="#mbf695337ed" y="288.430125"/>
      </g>
     </g>
    </g>
    <g id="xtick_19">
     <g id="line2d_19">
      <g>
       <use style="stroke:#000000;stroke-width:0.6;" x="345.275216" xlink:href="#mbf695337ed" y="288.430125"/>
      </g>
     </g>
    </g>
    <g id="xtick_20">
     <g id="line2d_20">
      <g>
       <use style="stroke:#000000;stroke-width:0.6;" x="358.365506" xlink:href="#mbf695337ed" y="288.430125"/>
      </g>
     </g>
    </g>
    <g id="xtick_21">
     <g id="line2d_21">
      <g>
       <use style="stroke:#000000;stroke-width:0.6;" x="369.433188" xlink:href="#mbf695337ed" y="288.430125"/>
      </g>
     </g>
    </g>
    <g id="xtick_22">
     <g id="line2d_22">
      <g>
       <use style="stroke:#000000;stroke-width:0.6;" x="379.02045" xlink:href="#mbf695337ed" y="288.430125"/>
      </g>
     </g>
    </g>
    <g id="xtick_23">
     <g id="line2d_23">
      <g>
       <use style="stroke:#000000;stroke-width:0.6;" x="387.477015" xlink:href="#mbf695337ed" y="288.430125"/>
      </g>
     </g>
    </g>
    <g id="text_7">
     <!-- Time (hour:minute) -->
     <g transform="translate(170.756094 316.706687)scale(0.1 -0.1)">
      <defs>
       <path d="M -19 4666 
L 3928 4666 
L 3928 4134 
L 2272 4134 
L 2272 0 
L 1638 0 
L 1638 4134 
L -19 4134 
L -19 4666 
z
" id="DejaVuSans-54" transform="scale(0.015625)"/>
       <path d="M 603 3500 
L 1178 3500 
L 1178 0 
L 603 0 
L 603 3500 
z
M 603 4863 
L 1178 4863 
L 1178 4134 
L 603 4134 
L 603 4863 
z
" id="DejaVuSans-69" transform="scale(0.015625)"/>
       <path d="M 3597 1894 
L 3597 1613 
L 953 1613 
Q 991 1019 1311 708 
Q 1631 397 2203 397 
Q 2534 397 2845 478 
Q 3156 559 3463 722 
L 3463 178 
Q 3153 47 2828 -22 
Q 2503 -91 2169 -91 
Q 1331 -91 842 396 
Q 353 884 353 1716 
Q 353 2575 817 3079 
Q 1281 3584 2069 3584 
Q 2775 3584 3186 3129 
Q 3597 2675 3597 1894 
z
M 3022 2063 
Q 3016 2534 2758 2815 
Q 2500 3097 2075 3097 
Q 1594 3097 1305 2825 
Q 1016 2553 972 2059 
L 3022 2063 
z
" id="DejaVuSans-65" transform="scale(0.015625)"/>
       <path id="DejaVuSans-20" transform="scale(0.015625)"/>
       <path d="M 1984 4856 
Q 1566 4138 1362 3434 
Q 1159 2731 1159 2009 
Q 1159 1288 1364 580 
Q 1569 -128 1984 -844 
L 1484 -844 
Q 1016 -109 783 600 
Q 550 1309 550 2009 
Q 550 2706 781 3412 
Q 1013 4119 1484 4856 
L 1984 4856 
z
" id="DejaVuSans-28" transform="scale(0.015625)"/>
       <path d="M 1959 3097 
Q 1497 3097 1228 2736 
Q 959 2375 959 1747 
Q 959 1119 1226 758 
Q 1494 397 1959 397 
Q 2419 397 2687 759 
Q 2956 1122 2956 1747 
Q 2956 2369 2687 2733 
Q 2419 3097 1959 3097 
z
M 1959 3584 
Q 2709 3584 3137 3096 
Q 3566 2609 3566 1747 
Q 3566 888 3137 398 
Q 2709 -91 1959 -91 
Q 1206 -91 779 398 
Q 353 888 353 1747 
Q 353 2609 779 3096 
Q 1206 3584 1959 3584 
z
" id="DejaVuSans-6f" transform="scale(0.015625)"/>
       <path d="M 544 1381 
L 544 3500 
L 1119 3500 
L 1119 1403 
Q 1119 906 1312 657 
Q 1506 409 1894 409 
Q 2359 409 2629 706 
Q 2900 1003 2900 1516 
L 2900 3500 
L 3475 3500 
L 3475 0 
L 2900 0 
L 2900 538 
Q 2691 219 2414 64 
Q 2138 -91 1772 -91 
Q 1169 -91 856 284 
Q 544 659 544 1381 
z
M 1991 3584 
L 1991 3584 
z
" id="DejaVuSans-75" transform="scale(0.015625)"/>
       <path d="M 2631 2963 
Q 2534 3019 2420 3045 
Q 2306 3072 2169 3072 
Q 1681 3072 1420 2755 
Q 1159 2438 1159 1844 
L 1159 0 
L 581 0 
L 581 3500 
L 1159 3500 
L 1159 2956 
Q 1341 3275 1631 3429 
Q 1922 3584 2338 3584 
Q 2397 3584 2469 3576 
Q 2541 3569 2628 3553 
L 2631 2963 
z
" id="DejaVuSans-72" transform="scale(0.015625)"/>
       <path d="M 3513 2113 
L 3513 0 
L 2938 0 
L 2938 2094 
Q 2938 2591 2744 2837 
Q 2550 3084 2163 3084 
Q 1697 3084 1428 2787 
Q 1159 2491 1159 1978 
L 1159 0 
L 581 0 
L 581 3500 
L 1159 3500 
L 1159 2956 
Q 1366 3272 1645 3428 
Q 1925 3584 2291 3584 
Q 2894 3584 3203 3211 
Q 3513 2838 3513 2113 
z
" id="DejaVuSans-6e" transform="scale(0.015625)"/>
       <path d="M 1172 4494 
L 1172 3500 
L 2356 3500 
L 2356 3053 
L 1172 3053 
L 1172 1153 
Q 1172 725 1289 603 
Q 1406 481 1766 481 
L 2356 481 
L 2356 0 
L 1766 0 
Q 1100 0 847 248 
Q 594 497 594 1153 
L 594 3053 
L 172 3053 
L 172 3500 
L 594 3500 
L 594 4494 
L 1172 4494 
z
" id="DejaVuSans-74" transform="scale(0.015625)"/>
       <path d="M 513 4856 
L 1013 4856 
Q 1481 4119 1714 3412 
Q 1947 2706 1947 2009 
Q 1947 1309 1714 600 
Q 1481 -109 1013 -844 
L 513 -844 
Q 928 -128 1133 580 
Q 1338 1288 1338 2009 
Q 1338 2731 1133 3434 
Q 928 4138 513 4856 
z
" id="DejaVuSans-29" transform="scale(0.015625)"/>
      </defs>
      <use xlink:href="#DejaVuSans-54"/>
      <use x="57.958984" xlink:href="#DejaVuSans-69"/>
      <use x="85.742188" xlink:href="#DejaVuSans-6d"/>
      <use x="183.154297" xlink:href="#DejaVuSans-65"/>
      <use x="244.677734" xlink:href="#DejaVuSans-20"/>
      <use x="276.464844" xlink:href="#DejaVuSans-28"/>
      <use x="315.478516" xlink:href="#DejaVuSans-68"/>
      <use x="378.857422" xlink:href="#DejaVuSans-6f"/>
      <use x="440.039062" xlink:href="#DejaVuSans-75"/>
      <use x="503.417969" xlink:href="#DejaVuSans-72"/>
      <use x="542.78125" xlink:href="#DejaVuSans-3a"/>
      <use x="576.472656" xlink:href="#DejaVuSans-6d"/>
      <use x="673.884766" xlink:href="#DejaVuSans-69"/>
      <use x="701.667969" xlink:href="#DejaVuSans-6e"/>
      <use x="765.046875" xlink:href="#DejaVuSans-75"/>
      <use x="828.425781" xlink:href="#DejaVuSans-74"/>
      <use x="867.634766" xlink:href="#DejaVuSans-65"/>
      <use x="929.158203" xlink:href="#DejaVuSans-29"/>
     </g>
    </g>
   </g>
   <g id="matplotlib.axis_2">
    <g id="ytick_1">
     <g id="line2d_24">
      <defs>
       <path d="M 0 0 
L -3.5 0 
" id="m3e68c9f807" style="stroke:#000000;stroke-width:0.8;"/>
      </defs>
      <g>
       <use style="stroke:#000000;stroke-width:0.8;" x="40.603125" xlink:href="#m3e68c9f807" y="280.055971"/>
      </g>
     </g>
     <g id="text_8">
      <!-- 10 -->
      <g transform="translate(20.878125 283.85519)scale(0.1 -0.1)">
       <defs>
        <path d="M 2034 4250 
Q 1547 4250 1301 3770 
Q 1056 3291 1056 2328 
Q 1056 1369 1301 889 
Q 1547 409 2034 409 
Q 2525 409 2770 889 
Q 3016 1369 3016 2328 
Q 3016 3291 2770 3770 
Q 2525 4250 2034 4250 
z
M 2034 4750 
Q 2819 4750 3233 4129 
Q 3647 3509 3647 2328 
Q 3647 1150 3233 529 
Q 2819 -91 2034 -91 
Q 1250 -91 836 529 
Q 422 1150 422 2328 
Q 422 3509 836 4129 
Q 1250 4750 2034 4750 
z
" id="DejaVuSans-30" transform="scale(0.015625)"/>
       </defs>
       <use xlink:href="#DejaVuSans-31"/>
       <use x="63.623047" xlink:href="#DejaVuSans-30"/>
      </g>
     </g>
    </g>
    <g id="ytick_2">
     <g id="line2d_25">
      <g>
       <use style="stroke:#000000;stroke-width:0.8;" x="40.603125" xlink:href="#m3e68c9f807" y="242.83751"/>
      </g>
     </g>
     <g id="text_9">
      <!-- 15 -->
      <g transform="translate(20.878125 246.636728)scale(0.1 -0.1)">
       <defs>
        <path d="M 691 4666 
L 3169 4666 
L 3169 4134 
L 1269 4134 
L 1269 2991 
Q 1406 3038 1543 3061 
Q 1681 3084 1819 3084 
Q 2600 3084 3056 2656 
Q 3513 2228 3513 1497 
Q 3513 744 3044 326 
Q 2575 -91 1722 -91 
Q 1428 -91 1123 -41 
Q 819 9 494 109 
L 494 744 
Q 775 591 1075 516 
Q 1375 441 1709 441 
Q 2250 441 2565 725 
Q 2881 1009 2881 1497 
Q 2881 1984 2565 2268 
Q 2250 2553 1709 2553 
Q 1456 2553 1204 2497 
Q 953 2441 691 2322 
L 691 4666 
z
" id="DejaVuSans-35" transform="scale(0.015625)"/>
       </defs>
       <use xlink:href="#DejaVuSans-31"/>
       <use x="63.623047" xlink:href="#DejaVuSans-35"/>
      </g>
     </g>
    </g>
    <g id="ytick_3">
     <g id="line2d_26">
      <g>
       <use style="stroke:#000000;stroke-width:0.8;" x="40.603125" xlink:href="#m3e68c9f807" y="205.619048"/>
      </g>
     </g>
     <g id="text_10">
      <!-- 20 -->
      <g transform="translate(20.878125 209.418267)scale(0.1 -0.1)">
       <use xlink:href="#DejaVuSans-32"/>
       <use x="63.623047" xlink:href="#DejaVuSans-30"/>
      </g>
     </g>
    </g>
    <g id="ytick_4">
     <g id="line2d_27">
      <g>
       <use style="stroke:#000000;stroke-width:0.8;" x="40.603125" xlink:href="#m3e68c9f807" y="168.400587"/>
      </g>
     </g>
     <g id="text_11">
      <!-- 25 -->
      <g transform="translate(20.878125 172.199805)scale(0.1 -0.1)">
       <use xlink:href="#DejaVuSans-32"/>
       <use x="63.623047" xlink:href="#DejaVuSans-35"/>
      </g>
     </g>
    </g>
    <g id="ytick_5">
     <g id="line2d_28">
      <g>
       <use style="stroke:#000000;stroke-width:0.8;" x="40.603125" xlink:href="#m3e68c9f807" y="131.182125"/>
      </g>
     </g>
     <g id="text_12">
      <!-- 30 -->
      <g transform="translate(20.878125 134.981344)scale(0.1 -0.1)">
       <use xlink:href="#DejaVuSans-33"/>
       <use x="63.623047" xlink:href="#DejaVuSans-30"/>
      </g>
     </g>
    </g>
    <g id="ytick_6">
     <g id="line2d_29">
      <g>
       <use style="stroke:#000000;stroke-width:0.8;" x="40.603125" xlink:href="#m3e68c9f807" y="93.963663"/>
      </g>
     </g>
     <g id="text_13">
      <!-- 35 -->
      <g transform="translate(20.878125 97.762882)scale(0.1 -0.1)">
       <use xlink:href="#DejaVuSans-33"/>
       <use x="63.623047" xlink:href="#DejaVuSans-35"/>
      </g>
     </g>
    </g>
    <g id="ytick_7">
     <g id="line2d_30">
      <g>
       <use style="stroke:#000000;stroke-width:0.8;" x="40.603125" xlink:href="#m3e68c9f807" y="56.745202"/>
      </g>
     </g>
     <g id="text_14">
      <!-- 40 -->
      <g transform="translate(20.878125 60.544421)scale(0.1 -0.1)">
       <use xlink:href="#DejaVuSans-34"/>
       <use x="63.623047" xlink:href="#DejaVuSans-30"/>
      </g>
     </g>
    </g>
    <g id="text_15">
     <!-- Bug coverage -->
     <g transform="translate(14.798438 189.951469)rotate(-90)scale(0.1 -0.1)">
      <defs>
       <path d="M 1259 2228 
L 1259 519 
L 2272 519 
Q 2781 519 3026 730 
Q 3272 941 3272 1375 
Q 3272 1813 3026 2020 
Q 2781 2228 2272 2228 
L 1259 2228 
z
M 1259 4147 
L 1259 2741 
L 2194 2741 
Q 2656 2741 2882 2914 
Q 3109 3088 3109 3444 
Q 3109 3797 2882 3972 
Q 2656 4147 2194 4147 
L 1259 4147 
z
M 628 4666 
L 2241 4666 
Q 2963 4666 3353 4366 
Q 3744 4066 3744 3513 
Q 3744 3084 3544 2831 
Q 3344 2578 2956 2516 
Q 3422 2416 3680 2098 
Q 3938 1781 3938 1306 
Q 3938 681 3513 340 
Q 3088 0 2303 0 
L 628 0 
L 628 4666 
z
" id="DejaVuSans-42" transform="scale(0.015625)"/>
       <path d="M 2906 1791 
Q 2906 2416 2648 2759 
Q 2391 3103 1925 3103 
Q 1463 3103 1205 2759 
Q 947 2416 947 1791 
Q 947 1169 1205 825 
Q 1463 481 1925 481 
Q 2391 481 2648 825 
Q 2906 1169 2906 1791 
z
M 3481 434 
Q 3481 -459 3084 -895 
Q 2688 -1331 1869 -1331 
Q 1566 -1331 1297 -1286 
Q 1028 -1241 775 -1147 
L 775 -588 
Q 1028 -725 1275 -790 
Q 1522 -856 1778 -856 
Q 2344 -856 2625 -561 
Q 2906 -266 2906 331 
L 2906 616 
Q 2728 306 2450 153 
Q 2172 0 1784 0 
Q 1141 0 747 490 
Q 353 981 353 1791 
Q 353 2603 747 3093 
Q 1141 3584 1784 3584 
Q 2172 3584 2450 3431 
Q 2728 3278 2906 2969 
L 2906 3500 
L 3481 3500 
L 3481 434 
z
" id="DejaVuSans-67" transform="scale(0.015625)"/>
       <path d="M 3122 3366 
L 3122 2828 
Q 2878 2963 2633 3030 
Q 2388 3097 2138 3097 
Q 1578 3097 1268 2742 
Q 959 2388 959 1747 
Q 959 1106 1268 751 
Q 1578 397 2138 397 
Q 2388 397 2633 464 
Q 2878 531 3122 666 
L 3122 134 
Q 2881 22 2623 -34 
Q 2366 -91 2075 -91 
Q 1284 -91 818 406 
Q 353 903 353 1747 
Q 353 2603 823 3093 
Q 1294 3584 2113 3584 
Q 2378 3584 2631 3529 
Q 2884 3475 3122 3366 
z
" id="DejaVuSans-63" transform="scale(0.015625)"/>
       <path d="M 191 3500 
L 800 3500 
L 1894 563 
L 2988 3500 
L 3597 3500 
L 2284 0 
L 1503 0 
L 191 3500 
z
" id="DejaVuSans-76" transform="scale(0.015625)"/>
       <path d="M 2194 1759 
Q 1497 1759 1228 1600 
Q 959 1441 959 1056 
Q 959 750 1161 570 
Q 1363 391 1709 391 
Q 2188 391 2477 730 
Q 2766 1069 2766 1631 
L 2766 1759 
L 2194 1759 
z
M 3341 1997 
L 3341 0 
L 2766 0 
L 2766 531 
Q 2569 213 2275 61 
Q 1981 -91 1556 -91 
Q 1019 -91 701 211 
Q 384 513 384 1019 
Q 384 1609 779 1909 
Q 1175 2209 1959 2209 
L 2766 2209 
L 2766 2266 
Q 2766 2663 2505 2880 
Q 2244 3097 1772 3097 
Q 1472 3097 1187 3025 
Q 903 2953 641 2809 
L 641 3341 
Q 956 3463 1253 3523 
Q 1550 3584 1831 3584 
Q 2591 3584 2966 3190 
Q 3341 2797 3341 1997 
z
" id="DejaVuSans-61" transform="scale(0.015625)"/>
      </defs>
      <use xlink:href="#DejaVuSans-42"/>
      <use x="68.603516" xlink:href="#DejaVuSans-75"/>
      <use x="131.982422" xlink:href="#DejaVuSans-67"/>
      <use x="195.458984" xlink:href="#DejaVuSans-20"/>
      <use x="227.246094" xlink:href="#DejaVuSans-63"/>
      <use x="282.226562" xlink:href="#DejaVuSans-6f"/>
      <use x="343.408203" xlink:href="#DejaVuSans-76"/>
      <use x="402.587891" xlink:href="#DejaVuSans-65"/>
      <use x="464.111328" xlink:href="#DejaVuSans-72"/>
      <use x="505.224609" xlink:href="#DejaVuSans-61"/>
      <use x="566.503906" xlink:href="#DejaVuSans-67"/>
      <use x="629.980469" xlink:href="#DejaVuSans-65"/>
     </g>
    </g>
   </g>
   <g id="line2d_31">
    <path clip-path="url(#p637d5512cb)" d="M 56.835852 183.287971 
L 106.602306 164.67874 
L 135.713816 153.513202 
L 156.36876 149.791356 
L 172.38998 146.06951 
L 185.480269 134.903971 
L 196.547952 131.182125 
L 206.135214 123.738433 
L 214.591779 120.016587 
L 222.156434 116.29474 
L 228.999496 112.572894 
L 235.246723 108.851048 
L 240.993615 108.851048 
L 246.314406 108.851048 
L 251.267943 101.407356 
L 255.901668 101.407356 
L 260.254383 97.68551 
L 264.358233 93.963663 
L 268.240141 93.963663 
L 271.922888 90.241817 
L 275.425915 86.519971 
L 278.76595 86.519971 
L 281.95749 86.519971 
L 285.013177 86.519971 
L 287.944107 86.519971 
L 290.760069 79.076279 
L 293.469742 79.076279 
L 296.080859 75.354433 
L 298.60034 71.632587 
L 301.034397 71.632587 
L 303.388635 71.632587 
L 305.668122 71.632587 
L 307.87746 71.632587 
L 310.020837 71.632587 
L 312.102079 71.632587 
L 314.124687 67.91074 
L 316.091873 64.188894 
L 318.006595 64.188894 
L 319.871578 64.188894 
L 321.689342 64.188894 
L 323.462217 64.188894 
L 325.192369 64.188894 
L 326.881807 60.467048 
L 328.532404 56.745202 
L 330.145906 56.745202 
L 331.723944 56.745202 
L 333.268042 56.745202 
L 334.779631 56.745202 
L 336.260051 56.745202 
L 337.710561 56.745202 
L 339.132347 56.745202 
L 340.526523 56.745202 
L 341.894142 56.745202 
L 343.236196 56.745202 
L 344.553624 56.745202 
L 345.847313 56.745202 
L 347.118104 56.745202 
L 348.366794 56.745202 
L 349.594136 56.745202 
L 350.800851 56.745202 
L 351.987619 56.745202 
L 353.155089 56.745202 
L 354.303878 56.745202 
L 355.434576 56.745202 
L 356.547743 56.745202 
L 357.643914 56.745202 
L 358.7236 56.745202 
L 359.787291 53.023356 
L 360.835453 53.023356 
L 361.868533 53.023356 
L 362.886959 53.023356 
L 363.891141 53.023356 
L 364.881471 53.023356 
L 365.858327 53.023356 
L 366.822071 49.30151 
L 367.773049 49.30151 
L 368.711596 49.30151 
L 369.638032 49.30151 
L 370.552666 49.30151 
L 371.455795 49.30151 
L 372.347705 49.30151 
L 373.228671 49.30151 
L 374.098958 49.30151 
L 374.958823 49.30151 
L 375.808511 49.30151 
L 376.648261 49.30151 
L 377.478303 49.30151 
L 378.298858 49.30151 
L 379.110142 49.30151 
L 379.91236 49.30151 
L 380.705714 49.30151 
L 381.490398 49.30151 
" style="fill:none;stroke:#1f77b4;stroke-linecap:square;stroke-width:1.5;"/>
    <defs>
     <path d="M 0 3 
C 0.795609 3 1.55874 2.683901 2.12132 2.12132 
C 2.683901 1.55874 3 0.795609 3 0 
C 3 -0.795609 2.683901 -1.55874 2.12132 -2.12132 
C 1.55874 -2.683901 0.795609 -3 0 -3 
C -0.795609 -3 -1.55874 -2.683901 -2.12132 -2.12132 
C -2.683901 -1.55874 -3 -0.795609 -3 0 
C -3 0.795609 -2.683901 1.55874 -2.12132 2.12132 
C -1.55874 2.683901 -0.795609 3 0 3 
z
" id="m5d08ee3e4b" style="stroke:#ffffff;stroke-width:0.75;"/>
    </defs>
    <g clip-path="url(#p637d5512cb)">
     <use style="fill:#1f77b4;stroke:#ffffff;stroke-width:0.75;" x="56.835852" xlink:href="#m5d08ee3e4b" y="183.287971"/>
     <use style="fill:#1f77b4;stroke:#ffffff;stroke-width:0.75;" x="106.602306" xlink:href="#m5d08ee3e4b" y="164.67874"/>
     <use style="fill:#1f77b4;stroke:#ffffff;stroke-width:0.75;" x="135.713816" xlink:href="#m5d08ee3e4b" y="153.513202"/>
     <use style="fill:#1f77b4;stroke:#ffffff;stroke-width:0.75;" x="156.36876" xlink:href="#m5d08ee3e4b" y="149.791356"/>
     <use style="fill:#1f77b4;stroke:#ffffff;stroke-width:0.75;" x="172.38998" xlink:href="#m5d08ee3e4b" y="146.06951"/>
     <use style="fill:#1f77b4;stroke:#ffffff;stroke-width:0.75;" x="185.480269" xlink:href="#m5d08ee3e4b" y="134.903971"/>
     <use style="fill:#1f77b4;stroke:#ffffff;stroke-width:0.75;" x="196.547952" xlink:href="#m5d08ee3e4b" y="131.182125"/>
     <use style="fill:#1f77b4;stroke:#ffffff;stroke-width:0.75;" x="206.135214" xlink:href="#m5d08ee3e4b" y="123.738433"/>
     <use style="fill:#1f77b4;stroke:#ffffff;stroke-width:0.75;" x="214.591779" xlink:href="#m5d08ee3e4b" y="120.016587"/>
     <use style="fill:#1f77b4;stroke:#ffffff;stroke-width:0.75;" x="222.156434" xlink:href="#m5d08ee3e4b" y="116.29474"/>
     <use style="fill:#1f77b4;stroke:#ffffff;stroke-width:0.75;" x="228.999496" xlink:href="#m5d08ee3e4b" y="112.572894"/>
     <use style="fill:#1f77b4;stroke:#ffffff;stroke-width:0.75;" x="235.246723" xlink:href="#m5d08ee3e4b" y="108.851048"/>
     <use style="fill:#1f77b4;stroke:#ffffff;stroke-width:0.75;" x="240.993615" xlink:href="#m5d08ee3e4b" y="108.851048"/>
     <use style="fill:#1f77b4;stroke:#ffffff;stroke-width:0.75;" x="246.314406" xlink:href="#m5d08ee3e4b" y="108.851048"/>
     <use style="fill:#1f77b4;stroke:#ffffff;stroke-width:0.75;" x="251.267943" xlink:href="#m5d08ee3e4b" y="101.407356"/>
     <use style="fill:#1f77b4;stroke:#ffffff;stroke-width:0.75;" x="255.901668" xlink:href="#m5d08ee3e4b" y="101.407356"/>
     <use style="fill:#1f77b4;stroke:#ffffff;stroke-width:0.75;" x="260.254383" xlink:href="#m5d08ee3e4b" y="97.68551"/>
     <use style="fill:#1f77b4;stroke:#ffffff;stroke-width:0.75;" x="264.358233" xlink:href="#m5d08ee3e4b" y="93.963663"/>
     <use style="fill:#1f77b4;stroke:#ffffff;stroke-width:0.75;" x="268.240141" xlink:href="#m5d08ee3e4b" y="93.963663"/>
     <use style="fill:#1f77b4;stroke:#ffffff;stroke-width:0.75;" x="271.922888" xlink:href="#m5d08ee3e4b" y="90.241817"/>
     <use style="fill:#1f77b4;stroke:#ffffff;stroke-width:0.75;" x="275.425915" xlink:href="#m5d08ee3e4b" y="86.519971"/>
     <use style="fill:#1f77b4;stroke:#ffffff;stroke-width:0.75;" x="278.76595" xlink:href="#m5d08ee3e4b" y="86.519971"/>
     <use style="fill:#1f77b4;stroke:#ffffff;stroke-width:0.75;" x="281.95749" xlink:href="#m5d08ee3e4b" y="86.519971"/>
     <use style="fill:#1f77b4;stroke:#ffffff;stroke-width:0.75;" x="285.013177" xlink:href="#m5d08ee3e4b" y="86.519971"/>
     <use style="fill:#1f77b4;stroke:#ffffff;stroke-width:0.75;" x="287.944107" xlink:href="#m5d08ee3e4b" y="86.519971"/>
     <use style="fill:#1f77b4;stroke:#ffffff;stroke-width:0.75;" x="290.760069" xlink:href="#m5d08ee3e4b" y="79.076279"/>
     <use style="fill:#1f77b4;stroke:#ffffff;stroke-width:0.75;" x="293.469742" xlink:href="#m5d08ee3e4b" y="79.076279"/>
     <use style="fill:#1f77b4;stroke:#ffffff;stroke-width:0.75;" x="296.080859" xlink:href="#m5d08ee3e4b" y="75.354433"/>
     <use style="fill:#1f77b4;stroke:#ffffff;stroke-width:0.75;" x="298.60034" xlink:href="#m5d08ee3e4b" y="71.632587"/>
     <use style="fill:#1f77b4;stroke:#ffffff;stroke-width:0.75;" x="301.034397" xlink:href="#m5d08ee3e4b" y="71.632587"/>
     <use style="fill:#1f77b4;stroke:#ffffff;stroke-width:0.75;" x="303.388635" xlink:href="#m5d08ee3e4b" y="71.632587"/>
     <use style="fill:#1f77b4;stroke:#ffffff;stroke-width:0.75;" x="305.668122" xlink:href="#m5d08ee3e4b" y="71.632587"/>
     <use style="fill:#1f77b4;stroke:#ffffff;stroke-width:0.75;" x="307.87746" xlink:href="#m5d08ee3e4b" y="71.632587"/>
     <use style="fill:#1f77b4;stroke:#ffffff;stroke-width:0.75;" x="310.020837" xlink:href="#m5d08ee3e4b" y="71.632587"/>
     <use style="fill:#1f77b4;stroke:#ffffff;stroke-width:0.75;" x="312.102079" xlink:href="#m5d08ee3e4b" y="71.632587"/>
     <use style="fill:#1f77b4;stroke:#ffffff;stroke-width:0.75;" x="314.124687" xlink:href="#m5d08ee3e4b" y="67.91074"/>
     <use style="fill:#1f77b4;stroke:#ffffff;stroke-width:0.75;" x="316.091873" xlink:href="#m5d08ee3e4b" y="64.188894"/>
     <use style="fill:#1f77b4;stroke:#ffffff;stroke-width:0.75;" x="318.006595" xlink:href="#m5d08ee3e4b" y="64.188894"/>
     <use style="fill:#1f77b4;stroke:#ffffff;stroke-width:0.75;" x="319.871578" xlink:href="#m5d08ee3e4b" y="64.188894"/>
     <use style="fill:#1f77b4;stroke:#ffffff;stroke-width:0.75;" x="321.689342" xlink:href="#m5d08ee3e4b" y="64.188894"/>
     <use style="fill:#1f77b4;stroke:#ffffff;stroke-width:0.75;" x="323.462217" xlink:href="#m5d08ee3e4b" y="64.188894"/>
     <use style="fill:#1f77b4;stroke:#ffffff;stroke-width:0.75;" x="325.192369" xlink:href="#m5d08ee3e4b" y="64.188894"/>
     <use style="fill:#1f77b4;stroke:#ffffff;stroke-width:0.75;" x="326.881807" xlink:href="#m5d08ee3e4b" y="60.467048"/>
     <use style="fill:#1f77b4;stroke:#ffffff;stroke-width:0.75;" x="328.532404" xlink:href="#m5d08ee3e4b" y="56.745202"/>
     <use style="fill:#1f77b4;stroke:#ffffff;stroke-width:0.75;" x="330.145906" xlink:href="#m5d08ee3e4b" y="56.745202"/>
     <use style="fill:#1f77b4;stroke:#ffffff;stroke-width:0.75;" x="331.723944" xlink:href="#m5d08ee3e4b" y="56.745202"/>
     <use style="fill:#1f77b4;stroke:#ffffff;stroke-width:0.75;" x="333.268042" xlink:href="#m5d08ee3e4b" y="56.745202"/>
     <use style="fill:#1f77b4;stroke:#ffffff;stroke-width:0.75;" x="334.779631" xlink:href="#m5d08ee3e4b" y="56.745202"/>
     <use style="fill:#1f77b4;stroke:#ffffff;stroke-width:0.75;" x="336.260051" xlink:href="#m5d08ee3e4b" y="56.745202"/>
     <use style="fill:#1f77b4;stroke:#ffffff;stroke-width:0.75;" x="337.710561" xlink:href="#m5d08ee3e4b" y="56.745202"/>
     <use style="fill:#1f77b4;stroke:#ffffff;stroke-width:0.75;" x="339.132347" xlink:href="#m5d08ee3e4b" y="56.745202"/>
     <use style="fill:#1f77b4;stroke:#ffffff;stroke-width:0.75;" x="340.526523" xlink:href="#m5d08ee3e4b" y="56.745202"/>
     <use style="fill:#1f77b4;stroke:#ffffff;stroke-width:0.75;" x="341.894142" xlink:href="#m5d08ee3e4b" y="56.745202"/>
     <use style="fill:#1f77b4;stroke:#ffffff;stroke-width:0.75;" x="343.236196" xlink:href="#m5d08ee3e4b" y="56.745202"/>
     <use style="fill:#1f77b4;stroke:#ffffff;stroke-width:0.75;" x="344.553624" xlink:href="#m5d08ee3e4b" y="56.745202"/>
     <use style="fill:#1f77b4;stroke:#ffffff;stroke-width:0.75;" x="345.847313" xlink:href="#m5d08ee3e4b" y="56.745202"/>
     <use style="fill:#1f77b4;stroke:#ffffff;stroke-width:0.75;" x="347.118104" xlink:href="#m5d08ee3e4b" y="56.745202"/>
     <use style="fill:#1f77b4;stroke:#ffffff;stroke-width:0.75;" x="348.366794" xlink:href="#m5d08ee3e4b" y="56.745202"/>
     <use style="fill:#1f77b4;stroke:#ffffff;stroke-width:0.75;" x="349.594136" xlink:href="#m5d08ee3e4b" y="56.745202"/>
     <use style="fill:#1f77b4;stroke:#ffffff;stroke-width:0.75;" x="350.800851" xlink:href="#m5d08ee3e4b" y="56.745202"/>
     <use style="fill:#1f77b4;stroke:#ffffff;stroke-width:0.75;" x="351.987619" xlink:href="#m5d08ee3e4b" y="56.745202"/>
     <use style="fill:#1f77b4;stroke:#ffffff;stroke-width:0.75;" x="353.155089" xlink:href="#m5d08ee3e4b" y="56.745202"/>
     <use style="fill:#1f77b4;stroke:#ffffff;stroke-width:0.75;" x="354.303878" xlink:href="#m5d08ee3e4b" y="56.745202"/>
     <use style="fill:#1f77b4;stroke:#ffffff;stroke-width:0.75;" x="355.434576" xlink:href="#m5d08ee3e4b" y="56.745202"/>
     <use style="fill:#1f77b4;stroke:#ffffff;stroke-width:0.75;" x="356.547743" xlink:href="#m5d08ee3e4b" y="56.745202"/>
     <use style="fill:#1f77b4;stroke:#ffffff;stroke-width:0.75;" x="357.643914" xlink:href="#m5d08ee3e4b" y="56.745202"/>
     <use style="fill:#1f77b4;stroke:#ffffff;stroke-width:0.75;" x="358.7236" xlink:href="#m5d08ee3e4b" y="56.745202"/>
     <use style="fill:#1f77b4;stroke:#ffffff;stroke-width:0.75;" x="359.787291" xlink:href="#m5d08ee3e4b" y="53.023356"/>
     <use style="fill:#1f77b4;stroke:#ffffff;stroke-width:0.75;" x="360.835453" xlink:href="#m5d08ee3e4b" y="53.023356"/>
     <use style="fill:#1f77b4;stroke:#ffffff;stroke-width:0.75;" x="361.868533" xlink:href="#m5d08ee3e4b" y="53.023356"/>
     <use style="fill:#1f77b4;stroke:#ffffff;stroke-width:0.75;" x="362.886959" xlink:href="#m5d08ee3e4b" y="53.023356"/>
     <use style="fill:#1f77b4;stroke:#ffffff;stroke-width:0.75;" x="363.891141" xlink:href="#m5d08ee3e4b" y="53.023356"/>
     <use style="fill:#1f77b4;stroke:#ffffff;stroke-width:0.75;" x="364.881471" xlink:href="#m5d08ee3e4b" y="53.023356"/>
     <use style="fill:#1f77b4;stroke:#ffffff;stroke-width:0.75;" x="365.858327" xlink:href="#m5d08ee3e4b" y="53.023356"/>
     <use style="fill:#1f77b4;stroke:#ffffff;stroke-width:0.75;" x="366.822071" xlink:href="#m5d08ee3e4b" y="49.30151"/>
     <use style="fill:#1f77b4;stroke:#ffffff;stroke-width:0.75;" x="367.773049" xlink:href="#m5d08ee3e4b" y="49.30151"/>
     <use style="fill:#1f77b4;stroke:#ffffff;stroke-width:0.75;" x="368.711596" xlink:href="#m5d08ee3e4b" y="49.30151"/>
     <use style="fill:#1f77b4;stroke:#ffffff;stroke-width:0.75;" x="369.638032" xlink:href="#m5d08ee3e4b" y="49.30151"/>
     <use style="fill:#1f77b4;stroke:#ffffff;stroke-width:0.75;" x="370.552666" xlink:href="#m5d08ee3e4b" y="49.30151"/>
     <use style="fill:#1f77b4;stroke:#ffffff;stroke-width:0.75;" x="371.455795" xlink:href="#m5d08ee3e4b" y="49.30151"/>
     <use style="fill:#1f77b4;stroke:#ffffff;stroke-width:0.75;" x="372.347705" xlink:href="#m5d08ee3e4b" y="49.30151"/>
     <use style="fill:#1f77b4;stroke:#ffffff;stroke-width:0.75;" x="373.228671" xlink:href="#m5d08ee3e4b" y="49.30151"/>
     <use style="fill:#1f77b4;stroke:#ffffff;stroke-width:0.75;" x="374.098958" xlink:href="#m5d08ee3e4b" y="49.30151"/>
     <use style="fill:#1f77b4;stroke:#ffffff;stroke-width:0.75;" x="374.958823" xlink:href="#m5d08ee3e4b" y="49.30151"/>
     <use style="fill:#1f77b4;stroke:#ffffff;stroke-width:0.75;" x="375.808511" xlink:href="#m5d08ee3e4b" y="49.30151"/>
     <use style="fill:#1f77b4;stroke:#ffffff;stroke-width:0.75;" x="376.648261" xlink:href="#m5d08ee3e4b" y="49.30151"/>
     <use style="fill:#1f77b4;stroke:#ffffff;stroke-width:0.75;" x="377.478303" xlink:href="#m5d08ee3e4b" y="49.30151"/>
     <use style="fill:#1f77b4;stroke:#ffffff;stroke-width:0.75;" x="378.298858" xlink:href="#m5d08ee3e4b" y="49.30151"/>
     <use style="fill:#1f77b4;stroke:#ffffff;stroke-width:0.75;" x="379.110142" xlink:href="#m5d08ee3e4b" y="49.30151"/>
     <use style="fill:#1f77b4;stroke:#ffffff;stroke-width:0.75;" x="379.91236" xlink:href="#m5d08ee3e4b" y="49.30151"/>
     <use style="fill:#1f77b4;stroke:#ffffff;stroke-width:0.75;" x="380.705714" xlink:href="#m5d08ee3e4b" y="49.30151"/>
     <use style="fill:#1f77b4;stroke:#ffffff;stroke-width:0.75;" x="381.490398" xlink:href="#m5d08ee3e4b" y="49.30151"/>
    </g>
   </g>
   <g id="line2d_32">
    <path clip-path="url(#p637d5512cb)" d="M 56.835852 183.287971 
L 106.602306 168.400587 
L 135.713816 157.235048 
L 156.36876 153.513202 
L 172.38998 146.06951 
L 185.480269 138.625817 
L 196.547952 134.903971 
L 206.135214 131.182125 
L 214.591779 123.738433 
L 222.156434 123.738433 
L 228.999496 120.016587 
L 235.246723 108.851048 
L 240.993615 108.851048 
L 246.314406 108.851048 
L 251.267943 105.129202 
L 255.901668 101.407356 
L 260.254383 101.407356 
L 264.358233 101.407356 
L 268.240141 97.68551 
L 271.922888 93.963663 
L 275.425915 93.963663 
L 278.76595 93.963663 
L 281.95749 93.963663 
L 285.013177 86.519971 
L 287.944107 86.519971 
L 290.760069 86.519971 
L 293.469742 82.798125 
L 296.080859 82.798125 
L 298.60034 82.798125 
L 301.034397 82.798125 
L 303.388635 79.076279 
L 305.668122 79.076279 
L 307.87746 79.076279 
L 310.020837 75.354433 
L 312.102079 75.354433 
L 314.124687 71.632587 
L 316.091873 71.632587 
L 318.006595 71.632587 
L 319.871578 71.632587 
L 321.689342 71.632587 
L 323.462217 71.632587 
L 325.192369 71.632587 
L 326.881807 71.632587 
L 328.532404 71.632587 
L 330.145906 71.632587 
L 331.723944 64.188894 
L 333.268042 64.188894 
L 334.779631 64.188894 
L 336.260051 64.188894 
L 337.710561 64.188894 
L 339.132347 64.188894 
L 340.526523 60.467048 
L 341.894142 60.467048 
L 343.236196 60.467048 
L 344.553624 60.467048 
L 345.847313 60.467048 
L 347.118104 60.467048 
L 348.366794 56.745202 
L 349.594136 56.745202 
L 350.800851 56.745202 
L 351.987619 56.745202 
L 353.155089 56.745202 
L 354.303878 56.745202 
L 355.434576 56.745202 
L 356.547743 56.745202 
L 357.643914 56.745202 
L 358.7236 56.745202 
L 359.787291 56.745202 
L 360.835453 56.745202 
L 361.868533 49.30151 
L 362.886959 49.30151 
L 363.891141 49.30151 
L 364.881471 49.30151 
L 365.858327 49.30151 
L 366.822071 49.30151 
L 367.773049 49.30151 
L 368.711596 49.30151 
L 369.638032 49.30151 
L 370.552666 49.30151 
L 371.455795 49.30151 
L 372.347705 49.30151 
L 373.228671 49.30151 
L 374.098958 49.30151 
L 374.958823 49.30151 
L 375.808511 49.30151 
L 376.648261 49.30151 
L 377.478303 49.30151 
L 378.298858 49.30151 
L 379.110142 49.30151 
L 379.91236 49.30151 
L 380.705714 49.30151 
L 381.490398 49.30151 
" style="fill:none;stroke:#d62728;stroke-linecap:square;stroke-width:1.5;"/>
    <defs>
     <path d="M 0 -3 
L -3 3 
L 3 3 
z
" id="m89824433a5" style="stroke:#ffffff;stroke-linejoin:miter;stroke-width:0.75;"/>
    </defs>
    <g clip-path="url(#p637d5512cb)">
     <use style="fill:#d62728;stroke:#ffffff;stroke-linejoin:miter;stroke-width:0.75;" x="56.835852" xlink:href="#m89824433a5" y="183.287971"/>
     <use style="fill:#d62728;stroke:#ffffff;stroke-linejoin:miter;stroke-width:0.75;" x="106.602306" xlink:href="#m89824433a5" y="168.400587"/>
     <use style="fill:#d62728;stroke:#ffffff;stroke-linejoin:miter;stroke-width:0.75;" x="135.713816" xlink:href="#m89824433a5" y="157.235048"/>
     <use style="fill:#d62728;stroke:#ffffff;stroke-linejoin:miter;stroke-width:0.75;" x="156.36876" xlink:href="#m89824433a5" y="153.513202"/>
     <use style="fill:#d62728;stroke:#ffffff;stroke-linejoin:miter;stroke-width:0.75;" x="172.38998" xlink:href="#m89824433a5" y="146.06951"/>
     <use style="fill:#d62728;stroke:#ffffff;stroke-linejoin:miter;stroke-width:0.75;" x="185.480269" xlink:href="#m89824433a5" y="138.625817"/>
     <use style="fill:#d62728;stroke:#ffffff;stroke-linejoin:miter;stroke-width:0.75;" x="196.547952" xlink:href="#m89824433a5" y="134.903971"/>
     <use style="fill:#d62728;stroke:#ffffff;stroke-linejoin:miter;stroke-width:0.75;" x="206.135214" xlink:href="#m89824433a5" y="131.182125"/>
     <use style="fill:#d62728;stroke:#ffffff;stroke-linejoin:miter;stroke-width:0.75;" x="214.591779" xlink:href="#m89824433a5" y="123.738433"/>
     <use style="fill:#d62728;stroke:#ffffff;stroke-linejoin:miter;stroke-width:0.75;" x="222.156434" xlink:href="#m89824433a5" y="123.738433"/>
     <use style="fill:#d62728;stroke:#ffffff;stroke-linejoin:miter;stroke-width:0.75;" x="228.999496" xlink:href="#m89824433a5" y="120.016587"/>
     <use style="fill:#d62728;stroke:#ffffff;stroke-linejoin:miter;stroke-width:0.75;" x="235.246723" xlink:href="#m89824433a5" y="108.851048"/>
     <use style="fill:#d62728;stroke:#ffffff;stroke-linejoin:miter;stroke-width:0.75;" x="240.993615" xlink:href="#m89824433a5" y="108.851048"/>
     <use style="fill:#d62728;stroke:#ffffff;stroke-linejoin:miter;stroke-width:0.75;" x="246.314406" xlink:href="#m89824433a5" y="108.851048"/>
     <use style="fill:#d62728;stroke:#ffffff;stroke-linejoin:miter;stroke-width:0.75;" x="251.267943" xlink:href="#m89824433a5" y="105.129202"/>
     <use style="fill:#d62728;stroke:#ffffff;stroke-linejoin:miter;stroke-width:0.75;" x="255.901668" xlink:href="#m89824433a5" y="101.407356"/>
     <use style="fill:#d62728;stroke:#ffffff;stroke-linejoin:miter;stroke-width:0.75;" x="260.254383" xlink:href="#m89824433a5" y="101.407356"/>
     <use style="fill:#d62728;stroke:#ffffff;stroke-linejoin:miter;stroke-width:0.75;" x="264.358233" xlink:href="#m89824433a5" y="101.407356"/>
     <use style="fill:#d62728;stroke:#ffffff;stroke-linejoin:miter;stroke-width:0.75;" x="268.240141" xlink:href="#m89824433a5" y="97.68551"/>
     <use style="fill:#d62728;stroke:#ffffff;stroke-linejoin:miter;stroke-width:0.75;" x="271.922888" xlink:href="#m89824433a5" y="93.963663"/>
     <use style="fill:#d62728;stroke:#ffffff;stroke-linejoin:miter;stroke-width:0.75;" x="275.425915" xlink:href="#m89824433a5" y="93.963663"/>
     <use style="fill:#d62728;stroke:#ffffff;stroke-linejoin:miter;stroke-width:0.75;" x="278.76595" xlink:href="#m89824433a5" y="93.963663"/>
     <use style="fill:#d62728;stroke:#ffffff;stroke-linejoin:miter;stroke-width:0.75;" x="281.95749" xlink:href="#m89824433a5" y="93.963663"/>
     <use style="fill:#d62728;stroke:#ffffff;stroke-linejoin:miter;stroke-width:0.75;" x="285.013177" xlink:href="#m89824433a5" y="86.519971"/>
     <use style="fill:#d62728;stroke:#ffffff;stroke-linejoin:miter;stroke-width:0.75;" x="287.944107" xlink:href="#m89824433a5" y="86.519971"/>
     <use style="fill:#d62728;stroke:#ffffff;stroke-linejoin:miter;stroke-width:0.75;" x="290.760069" xlink:href="#m89824433a5" y="86.519971"/>
     <use style="fill:#d62728;stroke:#ffffff;stroke-linejoin:miter;stroke-width:0.75;" x="293.469742" xlink:href="#m89824433a5" y="82.798125"/>
     <use style="fill:#d62728;stroke:#ffffff;stroke-linejoin:miter;stroke-width:0.75;" x="296.080859" xlink:href="#m89824433a5" y="82.798125"/>
     <use style="fill:#d62728;stroke:#ffffff;stroke-linejoin:miter;stroke-width:0.75;" x="298.60034" xlink:href="#m89824433a5" y="82.798125"/>
     <use style="fill:#d62728;stroke:#ffffff;stroke-linejoin:miter;stroke-width:0.75;" x="301.034397" xlink:href="#m89824433a5" y="82.798125"/>
     <use style="fill:#d62728;stroke:#ffffff;stroke-linejoin:miter;stroke-width:0.75;" x="303.388635" xlink:href="#m89824433a5" y="79.076279"/>
     <use style="fill:#d62728;stroke:#ffffff;stroke-linejoin:miter;stroke-width:0.75;" x="305.668122" xlink:href="#m89824433a5" y="79.076279"/>
     <use style="fill:#d62728;stroke:#ffffff;stroke-linejoin:miter;stroke-width:0.75;" x="307.87746" xlink:href="#m89824433a5" y="79.076279"/>
     <use style="fill:#d62728;stroke:#ffffff;stroke-linejoin:miter;stroke-width:0.75;" x="310.020837" xlink:href="#m89824433a5" y="75.354433"/>
     <use style="fill:#d62728;stroke:#ffffff;stroke-linejoin:miter;stroke-width:0.75;" x="312.102079" xlink:href="#m89824433a5" y="75.354433"/>
     <use style="fill:#d62728;stroke:#ffffff;stroke-linejoin:miter;stroke-width:0.75;" x="314.124687" xlink:href="#m89824433a5" y="71.632587"/>
     <use style="fill:#d62728;stroke:#ffffff;stroke-linejoin:miter;stroke-width:0.75;" x="316.091873" xlink:href="#m89824433a5" y="71.632587"/>
     <use style="fill:#d62728;stroke:#ffffff;stroke-linejoin:miter;stroke-width:0.75;" x="318.006595" xlink:href="#m89824433a5" y="71.632587"/>
     <use style="fill:#d62728;stroke:#ffffff;stroke-linejoin:miter;stroke-width:0.75;" x="319.871578" xlink:href="#m89824433a5" y="71.632587"/>
     <use style="fill:#d62728;stroke:#ffffff;stroke-linejoin:miter;stroke-width:0.75;" x="321.689342" xlink:href="#m89824433a5" y="71.632587"/>
     <use style="fill:#d62728;stroke:#ffffff;stroke-linejoin:miter;stroke-width:0.75;" x="323.462217" xlink:href="#m89824433a5" y="71.632587"/>
     <use style="fill:#d62728;stroke:#ffffff;stroke-linejoin:miter;stroke-width:0.75;" x="325.192369" xlink:href="#m89824433a5" y="71.632587"/>
     <use style="fill:#d62728;stroke:#ffffff;stroke-linejoin:miter;stroke-width:0.75;" x="326.881807" xlink:href="#m89824433a5" y="71.632587"/>
     <use style="fill:#d62728;stroke:#ffffff;stroke-linejoin:miter;stroke-width:0.75;" x="328.532404" xlink:href="#m89824433a5" y="71.632587"/>
     <use style="fill:#d62728;stroke:#ffffff;stroke-linejoin:miter;stroke-width:0.75;" x="330.145906" xlink:href="#m89824433a5" y="71.632587"/>
     <use style="fill:#d62728;stroke:#ffffff;stroke-linejoin:miter;stroke-width:0.75;" x="331.723944" xlink:href="#m89824433a5" y="64.188894"/>
     <use style="fill:#d62728;stroke:#ffffff;stroke-linejoin:miter;stroke-width:0.75;" x="333.268042" xlink:href="#m89824433a5" y="64.188894"/>
     <use style="fill:#d62728;stroke:#ffffff;stroke-linejoin:miter;stroke-width:0.75;" x="334.779631" xlink:href="#m89824433a5" y="64.188894"/>
     <use style="fill:#d62728;stroke:#ffffff;stroke-linejoin:miter;stroke-width:0.75;" x="336.260051" xlink:href="#m89824433a5" y="64.188894"/>
     <use style="fill:#d62728;stroke:#ffffff;stroke-linejoin:miter;stroke-width:0.75;" x="337.710561" xlink:href="#m89824433a5" y="64.188894"/>
     <use style="fill:#d62728;stroke:#ffffff;stroke-linejoin:miter;stroke-width:0.75;" x="339.132347" xlink:href="#m89824433a5" y="64.188894"/>
     <use style="fill:#d62728;stroke:#ffffff;stroke-linejoin:miter;stroke-width:0.75;" x="340.526523" xlink:href="#m89824433a5" y="60.467048"/>
     <use style="fill:#d62728;stroke:#ffffff;stroke-linejoin:miter;stroke-width:0.75;" x="341.894142" xlink:href="#m89824433a5" y="60.467048"/>
     <use style="fill:#d62728;stroke:#ffffff;stroke-linejoin:miter;stroke-width:0.75;" x="343.236196" xlink:href="#m89824433a5" y="60.467048"/>
     <use style="fill:#d62728;stroke:#ffffff;stroke-linejoin:miter;stroke-width:0.75;" x="344.553624" xlink:href="#m89824433a5" y="60.467048"/>
     <use style="fill:#d62728;stroke:#ffffff;stroke-linejoin:miter;stroke-width:0.75;" x="345.847313" xlink:href="#m89824433a5" y="60.467048"/>
     <use style="fill:#d62728;stroke:#ffffff;stroke-linejoin:miter;stroke-width:0.75;" x="347.118104" xlink:href="#m89824433a5" y="60.467048"/>
     <use style="fill:#d62728;stroke:#ffffff;stroke-linejoin:miter;stroke-width:0.75;" x="348.366794" xlink:href="#m89824433a5" y="56.745202"/>
     <use style="fill:#d62728;stroke:#ffffff;stroke-linejoin:miter;stroke-width:0.75;" x="349.594136" xlink:href="#m89824433a5" y="56.745202"/>
     <use style="fill:#d62728;stroke:#ffffff;stroke-linejoin:miter;stroke-width:0.75;" x="350.800851" xlink:href="#m89824433a5" y="56.745202"/>
     <use style="fill:#d62728;stroke:#ffffff;stroke-linejoin:miter;stroke-width:0.75;" x="351.987619" xlink:href="#m89824433a5" y="56.745202"/>
     <use style="fill:#d62728;stroke:#ffffff;stroke-linejoin:miter;stroke-width:0.75;" x="353.155089" xlink:href="#m89824433a5" y="56.745202"/>
     <use style="fill:#d62728;stroke:#ffffff;stroke-linejoin:miter;stroke-width:0.75;" x="354.303878" xlink:href="#m89824433a5" y="56.745202"/>
     <use style="fill:#d62728;stroke:#ffffff;stroke-linejoin:miter;stroke-width:0.75;" x="355.434576" xlink:href="#m89824433a5" y="56.745202"/>
     <use style="fill:#d62728;stroke:#ffffff;stroke-linejoin:miter;stroke-width:0.75;" x="356.547743" xlink:href="#m89824433a5" y="56.745202"/>
     <use style="fill:#d62728;stroke:#ffffff;stroke-linejoin:miter;stroke-width:0.75;" x="357.643914" xlink:href="#m89824433a5" y="56.745202"/>
     <use style="fill:#d62728;stroke:#ffffff;stroke-linejoin:miter;stroke-width:0.75;" x="358.7236" xlink:href="#m89824433a5" y="56.745202"/>
     <use style="fill:#d62728;stroke:#ffffff;stroke-linejoin:miter;stroke-width:0.75;" x="359.787291" xlink:href="#m89824433a5" y="56.745202"/>
     <use style="fill:#d62728;stroke:#ffffff;stroke-linejoin:miter;stroke-width:0.75;" x="360.835453" xlink:href="#m89824433a5" y="56.745202"/>
     <use style="fill:#d62728;stroke:#ffffff;stroke-linejoin:miter;stroke-width:0.75;" x="361.868533" xlink:href="#m89824433a5" y="49.30151"/>
     <use style="fill:#d62728;stroke:#ffffff;stroke-linejoin:miter;stroke-width:0.75;" x="362.886959" xlink:href="#m89824433a5" y="49.30151"/>
     <use style="fill:#d62728;stroke:#ffffff;stroke-linejoin:miter;stroke-width:0.75;" x="363.891141" xlink:href="#m89824433a5" y="49.30151"/>
     <use style="fill:#d62728;stroke:#ffffff;stroke-linejoin:miter;stroke-width:0.75;" x="364.881471" xlink:href="#m89824433a5" y="49.30151"/>
     <use style="fill:#d62728;stroke:#ffffff;stroke-linejoin:miter;stroke-width:0.75;" x="365.858327" xlink:href="#m89824433a5" y="49.30151"/>
     <use style="fill:#d62728;stroke:#ffffff;stroke-linejoin:miter;stroke-width:0.75;" x="366.822071" xlink:href="#m89824433a5" y="49.30151"/>
     <use style="fill:#d62728;stroke:#ffffff;stroke-linejoin:miter;stroke-width:0.75;" x="367.773049" xlink:href="#m89824433a5" y="49.30151"/>
     <use style="fill:#d62728;stroke:#ffffff;stroke-linejoin:miter;stroke-width:0.75;" x="368.711596" xlink:href="#m89824433a5" y="49.30151"/>
     <use style="fill:#d62728;stroke:#ffffff;stroke-linejoin:miter;stroke-width:0.75;" x="369.638032" xlink:href="#m89824433a5" y="49.30151"/>
     <use style="fill:#d62728;stroke:#ffffff;stroke-linejoin:miter;stroke-width:0.75;" x="370.552666" xlink:href="#m89824433a5" y="49.30151"/>
     <use style="fill:#d62728;stroke:#ffffff;stroke-linejoin:miter;stroke-width:0.75;" x="371.455795" xlink:href="#m89824433a5" y="49.30151"/>
     <use style="fill:#d62728;stroke:#ffffff;stroke-linejoin:miter;stroke-width:0.75;" x="372.347705" xlink:href="#m89824433a5" y="49.30151"/>
     <use style="fill:#d62728;stroke:#ffffff;stroke-linejoin:miter;stroke-width:0.75;" x="373.228671" xlink:href="#m89824433a5" y="49.30151"/>
     <use style="fill:#d62728;stroke:#ffffff;stroke-linejoin:miter;stroke-width:0.75;" x="374.098958" xlink:href="#m89824433a5" y="49.30151"/>
     <use style="fill:#d62728;stroke:#ffffff;stroke-linejoin:miter;stroke-width:0.75;" x="374.958823" xlink:href="#m89824433a5" y="49.30151"/>
     <use style="fill:#d62728;stroke:#ffffff;stroke-linejoin:miter;stroke-width:0.75;" x="375.808511" xlink:href="#m89824433a5" y="49.30151"/>
     <use style="fill:#d62728;stroke:#ffffff;stroke-linejoin:miter;stroke-width:0.75;" x="376.648261" xlink:href="#m89824433a5" y="49.30151"/>
     <use style="fill:#d62728;stroke:#ffffff;stroke-linejoin:miter;stroke-width:0.75;" x="377.478303" xlink:href="#m89824433a5" y="49.30151"/>
     <use style="fill:#d62728;stroke:#ffffff;stroke-linejoin:miter;stroke-width:0.75;" x="378.298858" xlink:href="#m89824433a5" y="49.30151"/>
     <use style="fill:#d62728;stroke:#ffffff;stroke-linejoin:miter;stroke-width:0.75;" x="379.110142" xlink:href="#m89824433a5" y="49.30151"/>
     <use style="fill:#d62728;stroke:#ffffff;stroke-linejoin:miter;stroke-width:0.75;" x="379.91236" xlink:href="#m89824433a5" y="49.30151"/>
     <use style="fill:#d62728;stroke:#ffffff;stroke-linejoin:miter;stroke-width:0.75;" x="380.705714" xlink:href="#m89824433a5" y="49.30151"/>
     <use style="fill:#d62728;stroke:#ffffff;stroke-linejoin:miter;stroke-width:0.75;" x="381.490398" xlink:href="#m89824433a5" y="49.30151"/>
    </g>
   </g>
   <g id="line2d_33">
    <path clip-path="url(#p637d5512cb)" d="M 56.835852 198.175356 
L 106.602306 183.287971 
L 135.713816 175.844279 
L 156.36876 160.956894 
L 172.38998 157.235048 
L 185.480269 149.791356 
L 196.547952 146.06951 
L 206.135214 138.625817 
L 214.591779 134.903971 
L 222.156434 134.903971 
L 228.999496 127.460279 
L 235.246723 127.460279 
L 240.993615 123.738433 
L 246.314406 123.738433 
L 251.267943 120.016587 
L 255.901668 120.016587 
L 260.254383 116.29474 
L 264.358233 116.29474 
L 268.240141 116.29474 
L 271.922888 112.572894 
L 275.425915 112.572894 
L 278.76595 112.572894 
L 281.95749 108.851048 
L 285.013177 105.129202 
L 287.944107 105.129202 
L 290.760069 105.129202 
L 293.469742 105.129202 
L 296.080859 105.129202 
L 298.60034 105.129202 
L 301.034397 101.407356 
L 303.388635 101.407356 
L 305.668122 101.407356 
L 307.87746 101.407356 
L 310.020837 101.407356 
L 312.102079 101.407356 
L 314.124687 101.407356 
L 316.091873 97.68551 
L 318.006595 97.68551 
L 319.871578 97.68551 
L 321.689342 82.798125 
L 323.462217 82.798125 
L 325.192369 82.798125 
L 326.881807 82.798125 
L 328.532404 82.798125 
L 330.145906 82.798125 
L 331.723944 82.798125 
L 333.268042 79.076279 
L 334.779631 79.076279 
L 336.260051 79.076279 
L 337.710561 79.076279 
L 339.132347 79.076279 
L 340.526523 79.076279 
L 341.894142 75.354433 
L 343.236196 71.632587 
L 344.553624 71.632587 
L 345.847313 71.632587 
L 347.118104 71.632587 
L 348.366794 71.632587 
L 349.594136 71.632587 
L 350.800851 67.91074 
L 351.987619 67.91074 
L 353.155089 67.91074 
L 354.303878 67.91074 
L 355.434576 67.91074 
L 356.547743 67.91074 
L 357.643914 67.91074 
L 358.7236 67.91074 
L 359.787291 67.91074 
L 360.835453 67.91074 
L 361.868533 67.91074 
L 362.886959 67.91074 
L 363.891141 67.91074 
L 364.881471 67.91074 
L 365.858327 67.91074 
L 366.822071 67.91074 
L 367.773049 67.91074 
L 368.711596 67.91074 
L 369.638032 67.91074 
L 370.552666 67.91074 
L 371.455795 67.91074 
L 372.347705 67.91074 
L 373.228671 67.91074 
L 374.098958 64.188894 
L 374.958823 60.467048 
L 375.808511 60.467048 
L 376.648261 60.467048 
L 377.478303 60.467048 
L 378.298858 60.467048 
L 379.110142 60.467048 
L 379.91236 60.467048 
L 380.705714 60.467048 
L 381.490398 49.30151 
" style="fill:none;stroke:#98df8a;stroke-linecap:square;stroke-width:1.5;"/>
    <defs>
     <path d="M -0 3 
L 3 -3 
L -3 -3 
z
" id="me4373c81b8" style="stroke:#ffffff;stroke-linejoin:miter;stroke-width:0.75;"/>
    </defs>
    <g clip-path="url(#p637d5512cb)">
     <use style="fill:#98df8a;stroke:#ffffff;stroke-linejoin:miter;stroke-width:0.75;" x="56.835852" xlink:href="#me4373c81b8" y="198.175356"/>
     <use style="fill:#98df8a;stroke:#ffffff;stroke-linejoin:miter;stroke-width:0.75;" x="106.602306" xlink:href="#me4373c81b8" y="183.287971"/>
     <use style="fill:#98df8a;stroke:#ffffff;stroke-linejoin:miter;stroke-width:0.75;" x="135.713816" xlink:href="#me4373c81b8" y="175.844279"/>
     <use style="fill:#98df8a;stroke:#ffffff;stroke-linejoin:miter;stroke-width:0.75;" x="156.36876" xlink:href="#me4373c81b8" y="160.956894"/>
     <use style="fill:#98df8a;stroke:#ffffff;stroke-linejoin:miter;stroke-width:0.75;" x="172.38998" xlink:href="#me4373c81b8" y="157.235048"/>
     <use style="fill:#98df8a;stroke:#ffffff;stroke-linejoin:miter;stroke-width:0.75;" x="185.480269" xlink:href="#me4373c81b8" y="149.791356"/>
     <use style="fill:#98df8a;stroke:#ffffff;stroke-linejoin:miter;stroke-width:0.75;" x="196.547952" xlink:href="#me4373c81b8" y="146.06951"/>
     <use style="fill:#98df8a;stroke:#ffffff;stroke-linejoin:miter;stroke-width:0.75;" x="206.135214" xlink:href="#me4373c81b8" y="138.625817"/>
     <use style="fill:#98df8a;stroke:#ffffff;stroke-linejoin:miter;stroke-width:0.75;" x="214.591779" xlink:href="#me4373c81b8" y="134.903971"/>
     <use style="fill:#98df8a;stroke:#ffffff;stroke-linejoin:miter;stroke-width:0.75;" x="222.156434" xlink:href="#me4373c81b8" y="134.903971"/>
     <use style="fill:#98df8a;stroke:#ffffff;stroke-linejoin:miter;stroke-width:0.75;" x="228.999496" xlink:href="#me4373c81b8" y="127.460279"/>
     <use style="fill:#98df8a;stroke:#ffffff;stroke-linejoin:miter;stroke-width:0.75;" x="235.246723" xlink:href="#me4373c81b8" y="127.460279"/>
     <use style="fill:#98df8a;stroke:#ffffff;stroke-linejoin:miter;stroke-width:0.75;" x="240.993615" xlink:href="#me4373c81b8" y="123.738433"/>
     <use style="fill:#98df8a;stroke:#ffffff;stroke-linejoin:miter;stroke-width:0.75;" x="246.314406" xlink:href="#me4373c81b8" y="123.738433"/>
     <use style="fill:#98df8a;stroke:#ffffff;stroke-linejoin:miter;stroke-width:0.75;" x="251.267943" xlink:href="#me4373c81b8" y="120.016587"/>
     <use style="fill:#98df8a;stroke:#ffffff;stroke-linejoin:miter;stroke-width:0.75;" x="255.901668" xlink:href="#me4373c81b8" y="120.016587"/>
     <use style="fill:#98df8a;stroke:#ffffff;stroke-linejoin:miter;stroke-width:0.75;" x="260.254383" xlink:href="#me4373c81b8" y="116.29474"/>
     <use style="fill:#98df8a;stroke:#ffffff;stroke-linejoin:miter;stroke-width:0.75;" x="264.358233" xlink:href="#me4373c81b8" y="116.29474"/>
     <use style="fill:#98df8a;stroke:#ffffff;stroke-linejoin:miter;stroke-width:0.75;" x="268.240141" xlink:href="#me4373c81b8" y="116.29474"/>
     <use style="fill:#98df8a;stroke:#ffffff;stroke-linejoin:miter;stroke-width:0.75;" x="271.922888" xlink:href="#me4373c81b8" y="112.572894"/>
     <use style="fill:#98df8a;stroke:#ffffff;stroke-linejoin:miter;stroke-width:0.75;" x="275.425915" xlink:href="#me4373c81b8" y="112.572894"/>
     <use style="fill:#98df8a;stroke:#ffffff;stroke-linejoin:miter;stroke-width:0.75;" x="278.76595" xlink:href="#me4373c81b8" y="112.572894"/>
     <use style="fill:#98df8a;stroke:#ffffff;stroke-linejoin:miter;stroke-width:0.75;" x="281.95749" xlink:href="#me4373c81b8" y="108.851048"/>
     <use style="fill:#98df8a;stroke:#ffffff;stroke-linejoin:miter;stroke-width:0.75;" x="285.013177" xlink:href="#me4373c81b8" y="105.129202"/>
     <use style="fill:#98df8a;stroke:#ffffff;stroke-linejoin:miter;stroke-width:0.75;" x="287.944107" xlink:href="#me4373c81b8" y="105.129202"/>
     <use style="fill:#98df8a;stroke:#ffffff;stroke-linejoin:miter;stroke-width:0.75;" x="290.760069" xlink:href="#me4373c81b8" y="105.129202"/>
     <use style="fill:#98df8a;stroke:#ffffff;stroke-linejoin:miter;stroke-width:0.75;" x="293.469742" xlink:href="#me4373c81b8" y="105.129202"/>
     <use style="fill:#98df8a;stroke:#ffffff;stroke-linejoin:miter;stroke-width:0.75;" x="296.080859" xlink:href="#me4373c81b8" y="105.129202"/>
     <use style="fill:#98df8a;stroke:#ffffff;stroke-linejoin:miter;stroke-width:0.75;" x="298.60034" xlink:href="#me4373c81b8" y="105.129202"/>
     <use style="fill:#98df8a;stroke:#ffffff;stroke-linejoin:miter;stroke-width:0.75;" x="301.034397" xlink:href="#me4373c81b8" y="101.407356"/>
     <use style="fill:#98df8a;stroke:#ffffff;stroke-linejoin:miter;stroke-width:0.75;" x="303.388635" xlink:href="#me4373c81b8" y="101.407356"/>
     <use style="fill:#98df8a;stroke:#ffffff;stroke-linejoin:miter;stroke-width:0.75;" x="305.668122" xlink:href="#me4373c81b8" y="101.407356"/>
     <use style="fill:#98df8a;stroke:#ffffff;stroke-linejoin:miter;stroke-width:0.75;" x="307.87746" xlink:href="#me4373c81b8" y="101.407356"/>
     <use style="fill:#98df8a;stroke:#ffffff;stroke-linejoin:miter;stroke-width:0.75;" x="310.020837" xlink:href="#me4373c81b8" y="101.407356"/>
     <use style="fill:#98df8a;stroke:#ffffff;stroke-linejoin:miter;stroke-width:0.75;" x="312.102079" xlink:href="#me4373c81b8" y="101.407356"/>
     <use style="fill:#98df8a;stroke:#ffffff;stroke-linejoin:miter;stroke-width:0.75;" x="314.124687" xlink:href="#me4373c81b8" y="101.407356"/>
     <use style="fill:#98df8a;stroke:#ffffff;stroke-linejoin:miter;stroke-width:0.75;" x="316.091873" xlink:href="#me4373c81b8" y="97.68551"/>
     <use style="fill:#98df8a;stroke:#ffffff;stroke-linejoin:miter;stroke-width:0.75;" x="318.006595" xlink:href="#me4373c81b8" y="97.68551"/>
     <use style="fill:#98df8a;stroke:#ffffff;stroke-linejoin:miter;stroke-width:0.75;" x="319.871578" xlink:href="#me4373c81b8" y="97.68551"/>
     <use style="fill:#98df8a;stroke:#ffffff;stroke-linejoin:miter;stroke-width:0.75;" x="321.689342" xlink:href="#me4373c81b8" y="82.798125"/>
     <use style="fill:#98df8a;stroke:#ffffff;stroke-linejoin:miter;stroke-width:0.75;" x="323.462217" xlink:href="#me4373c81b8" y="82.798125"/>
     <use style="fill:#98df8a;stroke:#ffffff;stroke-linejoin:miter;stroke-width:0.75;" x="325.192369" xlink:href="#me4373c81b8" y="82.798125"/>
     <use style="fill:#98df8a;stroke:#ffffff;stroke-linejoin:miter;stroke-width:0.75;" x="326.881807" xlink:href="#me4373c81b8" y="82.798125"/>
     <use style="fill:#98df8a;stroke:#ffffff;stroke-linejoin:miter;stroke-width:0.75;" x="328.532404" xlink:href="#me4373c81b8" y="82.798125"/>
     <use style="fill:#98df8a;stroke:#ffffff;stroke-linejoin:miter;stroke-width:0.75;" x="330.145906" xlink:href="#me4373c81b8" y="82.798125"/>
     <use style="fill:#98df8a;stroke:#ffffff;stroke-linejoin:miter;stroke-width:0.75;" x="331.723944" xlink:href="#me4373c81b8" y="82.798125"/>
     <use style="fill:#98df8a;stroke:#ffffff;stroke-linejoin:miter;stroke-width:0.75;" x="333.268042" xlink:href="#me4373c81b8" y="79.076279"/>
     <use style="fill:#98df8a;stroke:#ffffff;stroke-linejoin:miter;stroke-width:0.75;" x="334.779631" xlink:href="#me4373c81b8" y="79.076279"/>
     <use style="fill:#98df8a;stroke:#ffffff;stroke-linejoin:miter;stroke-width:0.75;" x="336.260051" xlink:href="#me4373c81b8" y="79.076279"/>
     <use style="fill:#98df8a;stroke:#ffffff;stroke-linejoin:miter;stroke-width:0.75;" x="337.710561" xlink:href="#me4373c81b8" y="79.076279"/>
     <use style="fill:#98df8a;stroke:#ffffff;stroke-linejoin:miter;stroke-width:0.75;" x="339.132347" xlink:href="#me4373c81b8" y="79.076279"/>
     <use style="fill:#98df8a;stroke:#ffffff;stroke-linejoin:miter;stroke-width:0.75;" x="340.526523" xlink:href="#me4373c81b8" y="79.076279"/>
     <use style="fill:#98df8a;stroke:#ffffff;stroke-linejoin:miter;stroke-width:0.75;" x="341.894142" xlink:href="#me4373c81b8" y="75.354433"/>
     <use style="fill:#98df8a;stroke:#ffffff;stroke-linejoin:miter;stroke-width:0.75;" x="343.236196" xlink:href="#me4373c81b8" y="71.632587"/>
     <use style="fill:#98df8a;stroke:#ffffff;stroke-linejoin:miter;stroke-width:0.75;" x="344.553624" xlink:href="#me4373c81b8" y="71.632587"/>
     <use style="fill:#98df8a;stroke:#ffffff;stroke-linejoin:miter;stroke-width:0.75;" x="345.847313" xlink:href="#me4373c81b8" y="71.632587"/>
     <use style="fill:#98df8a;stroke:#ffffff;stroke-linejoin:miter;stroke-width:0.75;" x="347.118104" xlink:href="#me4373c81b8" y="71.632587"/>
     <use style="fill:#98df8a;stroke:#ffffff;stroke-linejoin:miter;stroke-width:0.75;" x="348.366794" xlink:href="#me4373c81b8" y="71.632587"/>
     <use style="fill:#98df8a;stroke:#ffffff;stroke-linejoin:miter;stroke-width:0.75;" x="349.594136" xlink:href="#me4373c81b8" y="71.632587"/>
     <use style="fill:#98df8a;stroke:#ffffff;stroke-linejoin:miter;stroke-width:0.75;" x="350.800851" xlink:href="#me4373c81b8" y="67.91074"/>
     <use style="fill:#98df8a;stroke:#ffffff;stroke-linejoin:miter;stroke-width:0.75;" x="351.987619" xlink:href="#me4373c81b8" y="67.91074"/>
     <use style="fill:#98df8a;stroke:#ffffff;stroke-linejoin:miter;stroke-width:0.75;" x="353.155089" xlink:href="#me4373c81b8" y="67.91074"/>
     <use style="fill:#98df8a;stroke:#ffffff;stroke-linejoin:miter;stroke-width:0.75;" x="354.303878" xlink:href="#me4373c81b8" y="67.91074"/>
     <use style="fill:#98df8a;stroke:#ffffff;stroke-linejoin:miter;stroke-width:0.75;" x="355.434576" xlink:href="#me4373c81b8" y="67.91074"/>
     <use style="fill:#98df8a;stroke:#ffffff;stroke-linejoin:miter;stroke-width:0.75;" x="356.547743" xlink:href="#me4373c81b8" y="67.91074"/>
     <use style="fill:#98df8a;stroke:#ffffff;stroke-linejoin:miter;stroke-width:0.75;" x="357.643914" xlink:href="#me4373c81b8" y="67.91074"/>
     <use style="fill:#98df8a;stroke:#ffffff;stroke-linejoin:miter;stroke-width:0.75;" x="358.7236" xlink:href="#me4373c81b8" y="67.91074"/>
     <use style="fill:#98df8a;stroke:#ffffff;stroke-linejoin:miter;stroke-width:0.75;" x="359.787291" xlink:href="#me4373c81b8" y="67.91074"/>
     <use style="fill:#98df8a;stroke:#ffffff;stroke-linejoin:miter;stroke-width:0.75;" x="360.835453" xlink:href="#me4373c81b8" y="67.91074"/>
     <use style="fill:#98df8a;stroke:#ffffff;stroke-linejoin:miter;stroke-width:0.75;" x="361.868533" xlink:href="#me4373c81b8" y="67.91074"/>
     <use style="fill:#98df8a;stroke:#ffffff;stroke-linejoin:miter;stroke-width:0.75;" x="362.886959" xlink:href="#me4373c81b8" y="67.91074"/>
     <use style="fill:#98df8a;stroke:#ffffff;stroke-linejoin:miter;stroke-width:0.75;" x="363.891141" xlink:href="#me4373c81b8" y="67.91074"/>
     <use style="fill:#98df8a;stroke:#ffffff;stroke-linejoin:miter;stroke-width:0.75;" x="364.881471" xlink:href="#me4373c81b8" y="67.91074"/>
     <use style="fill:#98df8a;stroke:#ffffff;stroke-linejoin:miter;stroke-width:0.75;" x="365.858327" xlink:href="#me4373c81b8" y="67.91074"/>
     <use style="fill:#98df8a;stroke:#ffffff;stroke-linejoin:miter;stroke-width:0.75;" x="366.822071" xlink:href="#me4373c81b8" y="67.91074"/>
     <use style="fill:#98df8a;stroke:#ffffff;stroke-linejoin:miter;stroke-width:0.75;" x="367.773049" xlink:href="#me4373c81b8" y="67.91074"/>
     <use style="fill:#98df8a;stroke:#ffffff;stroke-linejoin:miter;stroke-width:0.75;" x="368.711596" xlink:href="#me4373c81b8" y="67.91074"/>
     <use style="fill:#98df8a;stroke:#ffffff;stroke-linejoin:miter;stroke-width:0.75;" x="369.638032" xlink:href="#me4373c81b8" y="67.91074"/>
     <use style="fill:#98df8a;stroke:#ffffff;stroke-linejoin:miter;stroke-width:0.75;" x="370.552666" xlink:href="#me4373c81b8" y="67.91074"/>
     <use style="fill:#98df8a;stroke:#ffffff;stroke-linejoin:miter;stroke-width:0.75;" x="371.455795" xlink:href="#me4373c81b8" y="67.91074"/>
     <use style="fill:#98df8a;stroke:#ffffff;stroke-linejoin:miter;stroke-width:0.75;" x="372.347705" xlink:href="#me4373c81b8" y="67.91074"/>
     <use style="fill:#98df8a;stroke:#ffffff;stroke-linejoin:miter;stroke-width:0.75;" x="373.228671" xlink:href="#me4373c81b8" y="67.91074"/>
     <use style="fill:#98df8a;stroke:#ffffff;stroke-linejoin:miter;stroke-width:0.75;" x="374.098958" xlink:href="#me4373c81b8" y="64.188894"/>
     <use style="fill:#98df8a;stroke:#ffffff;stroke-linejoin:miter;stroke-width:0.75;" x="374.958823" xlink:href="#me4373c81b8" y="60.467048"/>
     <use style="fill:#98df8a;stroke:#ffffff;stroke-linejoin:miter;stroke-width:0.75;" x="375.808511" xlink:href="#me4373c81b8" y="60.467048"/>
     <use style="fill:#98df8a;stroke:#ffffff;stroke-linejoin:miter;stroke-width:0.75;" x="376.648261" xlink:href="#me4373c81b8" y="60.467048"/>
     <use style="fill:#98df8a;stroke:#ffffff;stroke-linejoin:miter;stroke-width:0.75;" x="377.478303" xlink:href="#me4373c81b8" y="60.467048"/>
     <use style="fill:#98df8a;stroke:#ffffff;stroke-linejoin:miter;stroke-width:0.75;" x="378.298858" xlink:href="#me4373c81b8" y="60.467048"/>
     <use style="fill:#98df8a;stroke:#ffffff;stroke-linejoin:miter;stroke-width:0.75;" x="379.110142" xlink:href="#me4373c81b8" y="60.467048"/>
     <use style="fill:#98df8a;stroke:#ffffff;stroke-linejoin:miter;stroke-width:0.75;" x="379.91236" xlink:href="#me4373c81b8" y="60.467048"/>
     <use style="fill:#98df8a;stroke:#ffffff;stroke-linejoin:miter;stroke-width:0.75;" x="380.705714" xlink:href="#me4373c81b8" y="60.467048"/>
     <use style="fill:#98df8a;stroke:#ffffff;stroke-linejoin:miter;stroke-width:0.75;" x="381.490398" xlink:href="#me4373c81b8" y="49.30151"/>
    </g>
   </g>
   <g id="line2d_34"/>
   <g id="line2d_35"/>
   <g id="line2d_36"/>
   <g id="patch_3">
    <path d="M 40.603125 280.055971 
L 40.603125 56.745202 
" style="fill:none;stroke:#000000;stroke-linecap:square;stroke-linejoin:miter;stroke-width:0.8;"/>
   </g>
   <g id="patch_4">
    <path d="M 56.835852 288.430125 
L 381.491265 288.430125 
" style="fill:none;stroke:#000000;stroke-linecap:square;stroke-linejoin:miter;stroke-width:0.8;"/>
   </g>
   <g id="text_16">
    <!-- arrow_parquet-arrow-fuzz (23h, 16 trials/fuzzer) -->
    <g transform="translate(75.492188 16.318125)scale(0.12 -0.12)">
     <defs>
      <path d="M 269 3500 
L 844 3500 
L 1563 769 
L 2278 3500 
L 2956 3500 
L 3675 769 
L 4391 3500 
L 4966 3500 
L 4050 0 
L 3372 0 
L 2619 2869 
L 1863 0 
L 1184 0 
L 269 3500 
z
" id="DejaVuSans-77" transform="scale(0.015625)"/>
      <path d="M 3263 -1063 
L 3263 -1509 
L -63 -1509 
L -63 -1063 
L 3263 -1063 
z
" id="DejaVuSans-5f" transform="scale(0.015625)"/>
      <path d="M 1159 525 
L 1159 -1331 
L 581 -1331 
L 581 3500 
L 1159 3500 
L 1159 2969 
Q 1341 3281 1617 3432 
Q 1894 3584 2278 3584 
Q 2916 3584 3314 3078 
Q 3713 2572 3713 1747 
Q 3713 922 3314 415 
Q 2916 -91 2278 -91 
Q 1894 -91 1617 61 
Q 1341 213 1159 525 
z
M 3116 1747 
Q 3116 2381 2855 2742 
Q 2594 3103 2138 3103 
Q 1681 3103 1420 2742 
Q 1159 2381 1159 1747 
Q 1159 1113 1420 752 
Q 1681 391 2138 391 
Q 2594 391 2855 752 
Q 3116 1113 3116 1747 
z
" id="DejaVuSans-70" transform="scale(0.015625)"/>
      <path d="M 947 1747 
Q 947 1113 1208 752 
Q 1469 391 1925 391 
Q 2381 391 2643 752 
Q 2906 1113 2906 1747 
Q 2906 2381 2643 2742 
Q 2381 3103 1925 3103 
Q 1469 3103 1208 2742 
Q 947 2381 947 1747 
z
M 2906 525 
Q 2725 213 2448 61 
Q 2172 -91 1784 -91 
Q 1150 -91 751 415 
Q 353 922 353 1747 
Q 353 2572 751 3078 
Q 1150 3584 1784 3584 
Q 2172 3584 2448 3432 
Q 2725 3281 2906 2969 
L 2906 3500 
L 3481 3500 
L 3481 -1331 
L 2906 -1331 
L 2906 525 
z
" id="DejaVuSans-71" transform="scale(0.015625)"/>
      <path d="M 313 2009 
L 1997 2009 
L 1997 1497 
L 313 1497 
L 313 2009 
z
" id="DejaVuSans-2d" transform="scale(0.015625)"/>
      <path d="M 2375 4863 
L 2375 4384 
L 1825 4384 
Q 1516 4384 1395 4259 
Q 1275 4134 1275 3809 
L 1275 3500 
L 2222 3500 
L 2222 3053 
L 1275 3053 
L 1275 0 
L 697 0 
L 697 3053 
L 147 3053 
L 147 3500 
L 697 3500 
L 697 3744 
Q 697 4328 969 4595 
Q 1241 4863 1831 4863 
L 2375 4863 
z
" id="DejaVuSans-66" transform="scale(0.015625)"/>
      <path d="M 353 3500 
L 3084 3500 
L 3084 2975 
L 922 459 
L 3084 459 
L 3084 0 
L 275 0 
L 275 525 
L 2438 3041 
L 353 3041 
L 353 3500 
z
" id="DejaVuSans-7a" transform="scale(0.015625)"/>
      <path d="M 750 794 
L 1409 794 
L 1409 256 
L 897 -744 
L 494 -744 
L 750 256 
L 750 794 
z
" id="DejaVuSans-2c" transform="scale(0.015625)"/>
      <path d="M 603 4863 
L 1178 4863 
L 1178 0 
L 603 0 
L 603 4863 
z
" id="DejaVuSans-6c" transform="scale(0.015625)"/>
      <path d="M 2834 3397 
L 2834 2853 
Q 2591 2978 2328 3040 
Q 2066 3103 1784 3103 
Q 1356 3103 1142 2972 
Q 928 2841 928 2578 
Q 928 2378 1081 2264 
Q 1234 2150 1697 2047 
L 1894 2003 
Q 2506 1872 2764 1633 
Q 3022 1394 3022 966 
Q 3022 478 2636 193 
Q 2250 -91 1575 -91 
Q 1294 -91 989 -36 
Q 684 19 347 128 
L 347 722 
Q 666 556 975 473 
Q 1284 391 1588 391 
Q 1994 391 2212 530 
Q 2431 669 2431 922 
Q 2431 1156 2273 1281 
Q 2116 1406 1581 1522 
L 1381 1569 
Q 847 1681 609 1914 
Q 372 2147 372 2553 
Q 372 3047 722 3315 
Q 1072 3584 1716 3584 
Q 2034 3584 2315 3537 
Q 2597 3491 2834 3397 
z
" id="DejaVuSans-73" transform="scale(0.015625)"/>
      <path d="M 1625 4666 
L 2156 4666 
L 531 -594 
L 0 -594 
L 1625 4666 
z
" id="DejaVuSans-2f" transform="scale(0.015625)"/>
     </defs>
     <use xlink:href="#DejaVuSans-61"/>
     <use x="61.279297" xlink:href="#DejaVuSans-72"/>
     <use x="100.642578" xlink:href="#DejaVuSans-72"/>
     <use x="139.505859" xlink:href="#DejaVuSans-6f"/>
     <use x="200.6875" xlink:href="#DejaVuSans-77"/>
     <use x="282.474609" xlink:href="#DejaVuSans-5f"/>
     <use x="332.474609" xlink:href="#DejaVuSans-70"/>
     <use x="395.951172" xlink:href="#DejaVuSans-61"/>
     <use x="457.230469" xlink:href="#DejaVuSans-72"/>
     <use x="496.59375" xlink:href="#DejaVuSans-71"/>
     <use x="560.070312" xlink:href="#DejaVuSans-75"/>
     <use x="623.449219" xlink:href="#DejaVuSans-65"/>
     <use x="684.972656" xlink:href="#DejaVuSans-74"/>
     <use x="724.181641" xlink:href="#DejaVuSans-2d"/>
     <use x="760.265625" xlink:href="#DejaVuSans-61"/>
     <use x="821.544922" xlink:href="#DejaVuSans-72"/>
     <use x="860.908203" xlink:href="#DejaVuSans-72"/>
     <use x="899.771484" xlink:href="#DejaVuSans-6f"/>
     <use x="960.953125" xlink:href="#DejaVuSans-77"/>
     <use x="1042.740234" xlink:href="#DejaVuSans-2d"/>
     <use x="1078.824219" xlink:href="#DejaVuSans-66"/>
     <use x="1114.029297" xlink:href="#DejaVuSans-75"/>
     <use x="1177.408203" xlink:href="#DejaVuSans-7a"/>
     <use x="1229.898438" xlink:href="#DejaVuSans-7a"/>
     <use x="1282.388672" xlink:href="#DejaVuSans-20"/>
     <use x="1314.175781" xlink:href="#DejaVuSans-28"/>
     <use x="1353.189453" xlink:href="#DejaVuSans-32"/>
     <use x="1416.8125" xlink:href="#DejaVuSans-33"/>
     <use x="1480.435547" xlink:href="#DejaVuSans-68"/>
     <use x="1543.814453" xlink:href="#DejaVuSans-2c"/>
     <use x="1575.601562" xlink:href="#DejaVuSans-20"/>
     <use x="1607.388672" xlink:href="#DejaVuSans-31"/>
     <use x="1671.011719" xlink:href="#DejaVuSans-36"/>
     <use x="1734.634766" xlink:href="#DejaVuSans-20"/>
     <use x="1766.421875" xlink:href="#DejaVuSans-74"/>
     <use x="1805.630859" xlink:href="#DejaVuSans-72"/>
     <use x="1846.744141" xlink:href="#DejaVuSans-69"/>
     <use x="1874.527344" xlink:href="#DejaVuSans-61"/>
     <use x="1935.806641" xlink:href="#DejaVuSans-6c"/>
     <use x="1963.589844" xlink:href="#DejaVuSans-73"/>
     <use x="2015.689453" xlink:href="#DejaVuSans-2f"/>
     <use x="2049.380859" xlink:href="#DejaVuSans-66"/>
     <use x="2084.585938" xlink:href="#DejaVuSans-75"/>
     <use x="2147.964844" xlink:href="#DejaVuSans-7a"/>
     <use x="2200.455078" xlink:href="#DejaVuSans-7a"/>
     <use x="2252.945312" xlink:href="#DejaVuSans-65"/>
     <use x="2314.46875" xlink:href="#DejaVuSans-72"/>
     <use x="2355.582031" xlink:href="#DejaVuSans-29"/>
    </g>
   </g>
   <g id="legend_1">
    <g id="line2d_37">
     <path d="M 401.723125 30.416562 
L 421.723125 30.416562 
" style="fill:none;stroke:#1f77b4;stroke-linecap:square;stroke-width:1.5;"/>
    </g>
    <g id="line2d_38">
     <defs>
      <path d="M 0 3 
C 0.795609 3 1.55874 2.683901 2.12132 2.12132 
C 2.683901 1.55874 3 0.795609 3 0 
C 3 -0.795609 2.683901 -1.55874 2.12132 -2.12132 
C 1.55874 -2.683901 0.795609 -3 0 -3 
C -0.795609 -3 -1.55874 -2.683901 -2.12132 -2.12132 
C -2.683901 -1.55874 -3 -0.795609 -3 0 
C -3 0.795609 -2.683901 1.55874 -2.12132 2.12132 
C -1.55874 2.683901 -0.795609 3 0 3 
z
" id="m7f5560aec8" style="stroke:#1f77b4;"/>
     </defs>
     <g>
      <use style="fill:#1f77b4;stroke:#1f77b4;" x="411.723125" xlink:href="#m7f5560aec8" y="30.416562"/>
     </g>
    </g>
    <g id="text_17">
     <!-- afl -->
     <g transform="translate(429.723125 33.916562)scale(0.1 -0.1)">
      <use xlink:href="#DejaVuSans-61"/>
      <use x="61.279297" xlink:href="#DejaVuSans-66"/>
      <use x="96.484375" xlink:href="#DejaVuSans-6c"/>
     </g>
    </g>
    <g id="line2d_39">
     <path d="M 401.723125 45.094688 
L 421.723125 45.094688 
" style="fill:none;stroke:#d62728;stroke-linecap:square;stroke-width:1.5;"/>
    </g>
    <g id="line2d_40">
     <defs>
      <path d="M 0 -3 
L -3 3 
L 3 3 
z
" id="mc21f244aa4" style="stroke:#d62728;stroke-linejoin:miter;"/>
     </defs>
     <g>
      <use style="fill:#d62728;stroke:#d62728;stroke-linejoin:miter;" x="411.723125" xlink:href="#mc21f244aa4" y="45.094688"/>
     </g>
    </g>
    <g id="text_18">
     <!-- afl_scheduling_random -->
     <g transform="translate(429.723125 48.594688)scale(0.1 -0.1)">
      <defs>
       <path d="M 2906 2969 
L 2906 4863 
L 3481 4863 
L 3481 0 
L 2906 0 
L 2906 525 
Q 2725 213 2448 61 
Q 2172 -91 1784 -91 
Q 1150 -91 751 415 
Q 353 922 353 1747 
Q 353 2572 751 3078 
Q 1150 3584 1784 3584 
Q 2172 3584 2448 3432 
Q 2725 3281 2906 2969 
z
M 947 1747 
Q 947 1113 1208 752 
Q 1469 391 1925 391 
Q 2381 391 2643 752 
Q 2906 1113 2906 1747 
Q 2906 2381 2643 2742 
Q 2381 3103 1925 3103 
Q 1469 3103 1208 2742 
Q 947 2381 947 1747 
z
" id="DejaVuSans-64" transform="scale(0.015625)"/>
      </defs>
      <use xlink:href="#DejaVuSans-61"/>
      <use x="61.279297" xlink:href="#DejaVuSans-66"/>
      <use x="96.484375" xlink:href="#DejaVuSans-6c"/>
      <use x="124.267578" xlink:href="#DejaVuSans-5f"/>
      <use x="174.267578" xlink:href="#DejaVuSans-73"/>
      <use x="226.367188" xlink:href="#DejaVuSans-63"/>
      <use x="281.347656" xlink:href="#DejaVuSans-68"/>
      <use x="344.726562" xlink:href="#DejaVuSans-65"/>
      <use x="406.25" xlink:href="#DejaVuSans-64"/>
      <use x="469.726562" xlink:href="#DejaVuSans-75"/>
      <use x="533.105469" xlink:href="#DejaVuSans-6c"/>
      <use x="560.888672" xlink:href="#DejaVuSans-69"/>
      <use x="588.671875" xlink:href="#DejaVuSans-6e"/>
      <use x="652.050781" xlink:href="#DejaVuSans-67"/>
      <use x="715.527344" xlink:href="#DejaVuSans-5f"/>
      <use x="765.527344" xlink:href="#DejaVuSans-72"/>
      <use x="806.640625" xlink:href="#DejaVuSans-61"/>
      <use x="867.919922" xlink:href="#DejaVuSans-6e"/>
      <use x="931.298828" xlink:href="#DejaVuSans-64"/>
      <use x="994.775391" xlink:href="#DejaVuSans-6f"/>
      <use x="1055.957031" xlink:href="#DejaVuSans-6d"/>
     </g>
    </g>
    <g id="line2d_41">
     <path d="M 401.723125 60.050937 
L 421.723125 60.050937 
" style="fill:none;stroke:#98df8a;stroke-linecap:square;stroke-width:1.5;"/>
    </g>
    <g id="line2d_42">
     <defs>
      <path d="M -0 3 
L 3 -3 
L -3 -3 
z
" id="m92c48983f2" style="stroke:#98df8a;stroke-linejoin:miter;"/>
     </defs>
     <g>
      <use style="fill:#98df8a;stroke:#98df8a;stroke-linejoin:miter;" x="411.723125" xlink:href="#m92c48983f2" y="60.050937"/>
     </g>
    </g>
    <g id="text_19">
     <!-- afl_scheduling_lifo -->
     <g transform="translate(429.723125 63.550937)scale(0.1 -0.1)">
      <use xlink:href="#DejaVuSans-61"/>
      <use x="61.279297" xlink:href="#DejaVuSans-66"/>
      <use x="96.484375" xlink:href="#DejaVuSans-6c"/>
      <use x="124.267578" xlink:href="#DejaVuSans-5f"/>
      <use x="174.267578" xlink:href="#DejaVuSans-73"/>
      <use x="226.367188" xlink:href="#DejaVuSans-63"/>
      <use x="281.347656" xlink:href="#DejaVuSans-68"/>
      <use x="344.726562" xlink:href="#DejaVuSans-65"/>
      <use x="406.25" xlink:href="#DejaVuSans-64"/>
      <use x="469.726562" xlink:href="#DejaVuSans-75"/>
      <use x="533.105469" xlink:href="#DejaVuSans-6c"/>
      <use x="560.888672" xlink:href="#DejaVuSans-69"/>
      <use x="588.671875" xlink:href="#DejaVuSans-6e"/>
      <use x="652.050781" xlink:href="#DejaVuSans-67"/>
      <use x="715.527344" xlink:href="#DejaVuSans-5f"/>
      <use x="765.527344" xlink:href="#DejaVuSans-6c"/>
      <use x="793.310547" xlink:href="#DejaVuSans-69"/>
      <use x="821.09375" xlink:href="#DejaVuSans-66"/>
      <use x="856.298828" xlink:href="#DejaVuSans-6f"/>
     </g>
    </g>
   </g>
  </g>
 </g>
 <defs>
  <clipPath id="p637d5512cb">
   <rect height="266.112" width="357.12" x="40.603125" y="22.318125"/>
  </clipPath>
 </defs>
</svg>
