<?xml version="1.0" encoding="utf-8" standalone="no"?>
<!DOCTYPE svg PUBLIC "-//W3C//DTD SVG 1.1//EN"
  "http://www.w3.org/Graphics/SVG/1.1/DTD/svg11.dtd">
<svg height="325.986375pt" version="1.1" viewBox="0 0 568.985625 325.986375" width="568.985625pt" xmlns="http://www.w3.org/2000/svg" xmlns:xlink="http://www.w3.org/1999/xlink">
 <metadata>
  <rdf:RDF xmlns:cc="http://creativecommons.org/ns#" xmlns:dc="http://purl.org/dc/elements/1.1/" xmlns:rdf="http://www.w3.org/1999/02/22-rdf-syntax-ns#">
   <cc:Work>
    <dc:type rdf:resource="http://purl.org/dc/dcmitype/StillImage"/>
    <dc:date>2022-07-21T16:10:45.842439</dc:date>
    <dc:format>image/svg+xml</dc:format>
    <dc:creator>
     <cc:Agent>
      <dc:title>Matplotlib v3.4.3, https://matplotlib.org/</dc:title>
     </cc:Agent>
    </dc:creator>
   </cc:Work>
  </rdf:RDF>
 </metadata>
 <defs>
  <style type="text/css">*{stroke-linecap:butt;stroke-linejoin:round;}</style>
 </defs>
 <g id="figure_1">
  <g id="patch_1">
   <path d="M 0 325.986375 
L 568.985625 325.986375 
L 568.985625 0 
L 0 0 
z
" style="fill:#ffffff;"/>
  </g>
  <g id="axes_1">
   <g id="patch_2">
    <path d="M 53.328125 288.430125 
L 410.448125 288.430125 
L 410.448125 22.318125 
L 53.328125 22.318125 
z
" style="fill:#ffffff;"/>
   </g>
   <g id="PolyCollection_1">
    <defs>
     <path d="M 69.560852 -65.89913 
L 69.560852 -60.930953 
L 119.327306 -84.127336 
L 148.438816 -92.647041 
L 169.09376 -97.402225 
L 185.11498 -101.364879 
L 198.205269 -103.544338 
L 209.272952 -104.733135 
L 218.860214 -108.10139 
L 227.316779 -111.469646 
L 234.881434 -112.262176 
L 241.724496 -114.04537 
L 247.971723 -114.441636 
L 253.718615 -115.036034 
L 259.039406 -113.450972 
L 263.992943 -117.215493 
L 268.626668 -120.980014 
L 272.979383 -148.030078 
L 277.083233 -148.124191 
L 280.965141 -148.124191 
L 284.647888 -151.294314 
L 288.150915 -151.492447 
L 291.49095 -152.086845 
L 294.68249 -152.086845 
L 297.738177 -155.256967 
L 300.669107 -155.4551 
L 303.485069 -172.098245 
L 306.194742 -173.485174 
L 308.805859 -176.655297 
L 311.32534 -178.042225 
L 313.759397 -216.0837 
L 316.113635 -215.984633 
L 318.393122 -232.330579 
L 320.60246 -237.482029 
L 322.745837 -237.878294 
L 324.827079 -244.020407 
L 326.849687 -244.020407 
L 328.816873 -251.153184 
L 330.731595 -251.14823 
L 332.596578 -253.332643 
L 334.414342 -253.332643 
L 336.187217 -256.106501 
L 337.917369 -256.899031 
L 339.606807 -256.899031 
L 341.257404 -256.899031 
L 342.870906 -256.899031 
L 344.448944 -256.899031 
L 345.993042 -258.28596 
L 347.504631 -257.691562 
L 348.985051 -258.28596 
L 350.435561 -258.28596 
L 351.857347 -258.484093 
L 353.251523 -258.484093 
L 354.619142 -258.880358 
L 355.961196 -259.672889 
L 357.278624 -259.672889 
L 358.572313 -259.667936 
L 359.843104 -259.474756 
L 361.091794 -259.672889 
L 362.319136 -260.648692 
L 363.525851 -261.059818 
L 364.712619 -260.648692 
L 365.880089 -261.059818 
L 367.028878 -261.049911 
L 368.159576 -261.059818 
L 369.272743 -261.25795 
L 370.368914 -262.644879 
L 371.4486 -262.644879 
L 372.512291 -262.050481 
L 373.560453 -262.644879 
L 374.593533 -262.644879 
L 375.611959 -262.644879 
L 376.616141 -262.644879 
L 377.606471 -262.644879 
L 378.583327 -264.824338 
L 379.547071 -264.031808 
L 380.498049 -264.031808 
L 381.436596 -264.031808 
L 382.363032 -264.031808 
L 383.277666 -264.031808 
L 384.180795 -263.43741 
L 385.072705 -264.031808 
L 385.953671 -263.239277 
L 386.823958 -265.815002 
L 387.683823 -265.815002 
L 388.533511 -265.022471 
L 389.373261 -265.815002 
L 390.203303 -265.815002 
L 391.023858 -265.815002 
L 391.835142 -265.815002 
L 392.63736 -266.780899 
L 393.430714 -265.815002 
L 394.215398 -265.805095 
L 394.215398 -291.175985 
L 394.215398 -291.175985 
L 393.430714 -291.175985 
L 392.63736 -291.57225 
L 391.835142 -291.175985 
L 391.023858 -291.175985 
L 390.203303 -290.581587 
L 389.373261 -291.175985 
L 388.533511 -289.392791 
L 387.683823 -288.60026 
L 386.823958 -288.60026 
L 385.953671 -288.402127 
L 385.072705 -286.4208 
L 384.180795 -282.859365 
L 383.277666 -282.260014 
L 382.363032 -283.052545 
L 381.436596 -283.052545 
L 380.498049 -281.467483 
L 379.547071 -280.873085 
L 378.583327 -280.873085 
L 377.606471 -281.467483 
L 376.616141 -280.873085 
L 375.611959 -280.873085 
L 374.593533 -280.873085 
L 373.560453 -281.467483 
L 372.512291 -280.873085 
L 371.4486 -280.873085 
L 370.368914 -280.278687 
L 369.272743 -281.467483 
L 368.159576 -280.278687 
L 367.028878 -280.080555 
L 365.880089 -279.882422 
L 364.712619 -279.089891 
L 363.525851 -276.514166 
L 362.319136 -276.316034 
L 361.091794 -276.316034 
L 359.843104 -276.316034 
L 358.572313 -275.919768 
L 357.278624 -276.117901 
L 355.961196 -274.745832 
L 354.619142 -274.730972 
L 353.251523 -273.344044 
L 351.857347 -273.145911 
L 350.435561 -273.145911 
L 348.985051 -273.145911 
L 347.504631 -273.145911 
L 345.993042 -273.145911 
L 344.448944 -269.579523 
L 342.870906 -269.38139 
L 341.257404 -269.579523 
L 339.606807 -269.38139 
L 337.917369 -269.38139 
L 336.187217 -269.579523 
L 334.414342 -269.38139 
L 332.596578 -269.38139 
L 330.731595 -269.38139 
L 328.816873 -268.390727 
L 326.849687 -264.22994 
L 324.827079 -264.031808 
L 322.745837 -264.031808 
L 320.60246 -260.861685 
L 318.393122 -261.25795 
L 316.113635 -259.276623 
L 313.759397 -259.276623 
L 311.32534 -259.276623 
L 308.805859 -258.880358 
L 306.194742 -258.087827 
L 303.485069 -258.087827 
L 300.669107 -257.295297 
L 297.738177 -256.700899 
L 294.68249 -253.337596 
L 291.49095 -253.530776 
L 288.150915 -253.530776 
L 284.647888 -253.13451 
L 280.965141 -253.13451 
L 277.083233 -252.143847 
L 272.979383 -250.955051 
L 268.626668 -246.199867 
L 263.992943 -233.950314 
L 259.039406 -224.99967 
L 253.718615 -223.612741 
L 247.971723 -220.838884 
L 241.724496 -219.650088 
L 234.881434 -217.074363 
L 227.316779 -185.7694 
L 218.860214 -146.806609 
L 209.272952 -145.548466 
L 198.205269 -143.809852 
L 185.11498 -118.008024 
L 169.09376 -101.959277 
L 148.438816 -100.790294 
L 119.327306 -91.06198 
L 69.560852 -65.89913 
z
" id="m8f77b07421" style="stroke:#1f77b4;stroke-opacity:0.2;"/>
    </defs>
    <g clip-path="url(#pf11acac2b5)">
     <use style="fill:#1f77b4;fill-opacity:0.2;stroke:#1f77b4;stroke-opacity:0.2;" x="0" xlink:href="#m8f77b07421" y="325.986375"/>
    </g>
   </g>
   <g id="PolyCollection_2">
    <defs>
     <path d="M 69.560852 -66.889793 
L 69.560852 -58.568221 
L 119.327306 -72.437508 
L 148.438816 -80.957213 
L 169.09376 -84.919867 
L 185.11498 -86.901193 
L 198.205269 -86.901193 
L 209.272952 -90.071316 
L 218.860214 -91.85451 
L 227.316779 -95.024633 
L 234.881434 -95.222766 
L 241.724496 -97.204093 
L 247.971723 -97.600358 
L 253.718615 -97.600358 
L 259.039406 -98.987287 
L 263.992943 -100.968614 
L 268.626668 -101.166746 
L 272.979383 -101.166746 
L 277.083233 -101.166746 
L 280.965141 -102.94994 
L 284.647888 -141.149921 
L 288.150915 -180.419818 
L 291.49095 -191.515248 
L 294.68249 -221.037017 
L 297.738177 -227.97166 
L 300.669107 -231.929361 
L 303.485069 -237.680162 
L 306.194742 -238.076427 
L 308.805859 -238.868958 
L 311.32534 -238.868958 
L 313.759397 -239.06709 
L 316.113635 -240.057754 
L 318.393122 -241.24655 
L 320.60246 -241.24655 
L 322.745837 -241.24655 
L 324.827079 -241.840948 
L 326.849687 -242.23226 
L 328.816873 -242.23226 
L 330.731595 -243.624142 
L 332.596578 -245.407336 
L 334.414342 -245.397429 
L 336.187217 -245.407336 
L 337.917369 -245.011071 
L 339.606807 -246.794265 
L 341.257404 -246.596132 
L 342.870906 -246.794265 
L 344.448944 -246.596132 
L 345.993042 -246.992397 
L 347.504631 -247.19053 
L 348.985051 -247.586795 
L 350.435561 -248.379326 
L 351.857347 -248.379326 
L 353.251523 -248.379326 
L 354.619142 -249.964388 
L 355.961196 -254.323307 
L 357.278624 -252.143847 
L 358.572313 -255.512103 
L 359.843104 -255.512103 
L 361.091794 -255.512103 
L 362.319136 -255.512103 
L 363.525851 -255.512103 
L 364.712619 -255.512103 
L 365.880089 -255.512103 
L 367.028878 -255.512103 
L 368.159576 -255.512103 
L 369.272743 -257.889695 
L 370.368914 -258.484093 
L 371.4486 -258.484093 
L 372.512291 -259.276623 
L 373.560453 -258.484093 
L 374.593533 -258.484093 
L 375.611959 -258.484093 
L 376.616141 -258.682225 
L 377.606471 -258.682225 
L 378.583327 -258.682225 
L 379.547071 -258.682225 
L 380.498049 -258.682225 
L 381.436596 -258.682225 
L 382.363032 -258.087827 
L 383.277666 -258.682225 
L 384.180795 -258.682225 
L 385.072705 -258.880358 
L 385.953671 -258.880358 
L 386.823958 -258.087827 
L 387.683823 -259.672889 
L 388.533511 -259.672889 
L 389.373261 -259.672889 
L 390.203303 -263.041144 
L 391.023858 -263.239277 
L 391.835142 -264.784712 
L 392.63736 -265.210697 
L 393.430714 -263.239277 
L 394.215398 -264.824338 
L 394.215398 -286.232574 
L 394.215398 -286.232574 
L 393.430714 -283.845076 
L 392.63736 -282.854412 
L 391.835142 -283.250678 
L 391.023858 -282.656279 
L 390.203303 -282.656279 
L 389.373261 -282.656279 
L 388.533511 -282.656279 
L 387.683823 -281.269351 
L 386.823958 -281.269351 
L 385.953671 -280.873085 
L 385.072705 -280.873085 
L 384.180795 -280.873085 
L 383.277666 -279.684289 
L 382.363032 -279.684289 
L 381.436596 -279.684289 
L 380.498049 -279.689243 
L 379.547071 -279.684289 
L 378.583327 -279.684289 
L 377.606471 -279.882422 
L 376.616141 -279.49111 
L 375.611959 -279.684289 
L 374.593533 -278.693626 
L 373.560453 -278.693626 
L 372.512291 -278.718393 
L 371.4486 -278.693626 
L 370.368914 -279.882422 
L 369.272743 -274.136574 
L 368.159576 -272.601046 
L 367.028878 -272.551513 
L 365.880089 -273.145911 
L 364.712619 -268.786992 
L 363.525851 -268.786992 
L 362.319136 -268.786992 
L 361.091794 -268.588859 
L 359.843104 -266.805665 
L 358.572313 -267.003798 
L 357.278624 -266.4094 
L 355.961196 -266.4094 
L 354.619142 -266.4094 
L 353.251523 -266.4094 
L 351.857347 -266.4094 
L 350.435561 -266.4094 
L 348.985051 -266.4094 
L 347.504631 -266.607533 
L 345.993042 -266.4094 
L 344.448944 -262.644879 
L 342.870906 -265.220604 
L 341.257404 -262.446746 
L 339.606807 -262.050481 
L 337.917369 -259.276623 
L 336.187217 -259.078491 
L 334.414342 -259.078491 
L 332.596578 -259.078491 
L 330.731595 -256.899031 
L 328.816873 -256.899031 
L 326.849687 -256.899031 
L 324.827079 -256.899031 
L 322.745837 -256.899031 
L 320.60246 -256.502766 
L 318.393122 -253.332643 
L 316.113635 -253.332643 
L 313.759397 -250.202147 
L 311.32534 -254.125174 
L 308.805859 -249.766255 
L 306.194742 -247.388663 
L 303.485069 -244.812938 
L 300.669107 -243.624142 
L 297.738177 -243.426009 
L 294.68249 -242.237213 
L 291.49095 -241.840948 
L 288.150915 -241.840948 
L 284.647888 -240.850284 
L 280.965141 -238.670825 
L 277.083233 -238.670825 
L 272.979383 -237.085764 
L 268.626668 -235.703788 
L 263.992943 -235.104437 
L 259.039406 -227.773528 
L 253.718615 -226.584732 
L 247.971723 -217.668761 
L 241.724496 -213.517881 
L 234.881434 -118.998687 
L 227.316779 -114.441636 
L 218.860214 -114.243503 
L 209.272952 -95.619031 
L 198.205269 -92.448908 
L 185.11498 -90.665714 
L 169.09376 -89.873184 
L 148.438816 -85.316132 
L 119.327306 -82.349095 
L 69.560852 -66.889793 
z
" id="m755663dd3c" style="stroke:#98df8a;stroke-opacity:0.2;"/>
    </defs>
    <g clip-path="url(#pf11acac2b5)">
     <use style="fill:#98df8a;fill-opacity:0.2;stroke:#98df8a;stroke-opacity:0.2;" x="0" xlink:href="#m755663dd3c" y="325.986375"/>
    </g>
   </g>
   <g id="PolyCollection_3">
    <defs>
     <path d="M 69.560852 -64.314068 
L 69.560852 -49.65225 
L 119.327306 -70.258049 
L 148.438816 -78.381488 
L 169.09376 -84.919867 
L 185.11498 -88.08999 
L 198.205269 -89.080653 
L 209.272952 -91.260112 
L 218.860214 -92.250776 
L 227.316779 -93.439572 
L 234.881434 -94.430235 
L 241.724496 -95.222766 
L 247.971723 -96.015297 
L 253.718615 -96.807827 
L 259.039406 -98.987287 
L 263.992943 -98.987287 
L 268.626668 -100.374216 
L 272.979383 -100.770481 
L 277.083233 -101.364879 
L 280.965141 -101.364879 
L 284.647888 -101.166746 
L 288.150915 -101.364879 
L 291.49095 -102.94994 
L 294.68249 -104.336869 
L 297.738177 -104.336869 
L 300.669107 -125.675759 
L 303.485069 -135.587346 
L 306.194742 -136.632496 
L 308.805859 -153.473773 
L 311.32534 -157.040162 
L 313.759397 -162.984142 
L 316.113635 -178.834756 
L 318.393122 -193.89284 
L 320.60246 -217.738107 
L 322.745837 -223.810874 
L 324.827079 -224.603405 
L 326.849687 -226.980997 
L 328.816873 -227.773528 
L 330.731595 -227.773528 
L 332.596578 -227.773528 
L 334.414342 -231.934314 
L 336.187217 -232.132447 
L 337.917369 -233.519375 
L 339.606807 -235.500702 
L 341.257404 -235.882107 
L 342.870906 -236.887631 
L 344.448944 -240.652152 
L 345.993042 -240.652152 
L 347.504631 -240.652152 
L 348.985051 -241.24655 
L 350.435561 -241.444682 
L 351.857347 -241.444682 
L 353.251523 -242.831611 
L 354.619142 -243.624142 
L 355.961196 -243.029744 
L 357.278624 -244.812938 
L 358.572313 -244.812938 
L 359.843104 -244.812938 
L 361.091794 -244.812938 
L 362.319136 -244.812938 
L 363.525851 -245.407336 
L 364.712619 -245.605469 
L 365.880089 -245.605469 
L 367.028878 -245.605469 
L 368.159576 -246.001734 
L 369.272743 -247.586795 
L 370.368914 -247.586795 
L 371.4486 -247.586795 
L 372.512291 -247.586795 
L 373.560453 -247.586795 
L 374.593533 -247.19053 
L 375.611959 -248.181193 
L 376.616141 -248.181193 
L 377.606471 -248.973724 
L 378.583327 -248.181193 
L 379.547071 -249.36999 
L 380.498049 -250.756918 
L 381.436596 -250.756918 
L 382.363032 -249.36999 
L 383.277666 -250.756918 
L 384.180795 -250.756918 
L 385.072705 -250.756918 
L 385.953671 -250.756918 
L 386.823958 -250.756918 
L 387.683823 -250.756918 
L 388.533511 -252.738245 
L 389.373261 -252.738245 
L 390.203303 -252.738245 
L 391.023858 -254.491719 
L 391.835142 -254.521439 
L 392.63736 -254.719572 
L 393.430714 -254.521439 
L 394.215398 -254.521439 
L 394.215398 -278.693626 
L 394.215398 -278.693626 
L 393.430714 -278.297361 
L 392.63736 -278.297361 
L 391.835142 -278.297361 
L 391.023858 -278.297361 
L 390.203303 -277.524643 
L 389.373261 -278.099228 
L 388.533511 -278.099228 
L 387.683823 -279.089891 
L 386.823958 -277.32651 
L 385.953671 -278.693626 
L 385.072705 -278.114088 
L 384.180795 -277.108564 
L 383.277666 -274.730972 
L 382.363032 -273.938442 
L 381.436596 -276.524073 
L 380.498049 -273.552083 
L 379.547071 -273.938442 
L 378.583327 -272.749646 
L 377.606471 -271.56085 
L 376.616141 -272.551513 
L 375.611959 -271.56085 
L 374.593533 -268.786992 
L 373.560453 -268.816712 
L 372.512291 -268.588859 
L 371.4486 -268.588859 
L 370.368914 -266.805665 
L 369.272743 -265.022471 
L 368.159576 -263.635542 
L 367.028878 -261.654216 
L 365.880089 -260.663552 
L 364.712619 -259.871021 
L 363.525851 -256.502766 
L 362.319136 -256.502766 
L 361.091794 -254.323307 
L 359.843104 -253.13451 
L 358.572313 -254.32826 
L 357.278624 -251.945714 
L 355.961196 -250.558786 
L 354.619142 -250.558786 
L 353.251523 -250.558786 
L 351.857347 -250.558786 
L 350.435561 -250.360653 
L 348.985051 -250.16252 
L 347.504631 -248.181193 
L 345.993042 -248.181193 
L 344.448944 -248.181193 
L 342.870906 -247.388663 
L 341.257404 -246.992397 
L 339.606807 -246.992397 
L 337.917369 -246.992397 
L 336.187217 -245.407336 
L 334.414342 -245.011071 
L 332.596578 -245.011071 
L 330.731595 -245.011071 
L 328.816873 -245.011071 
L 326.849687 -245.011071 
L 324.827079 -245.011071 
L 322.745837 -243.822275 
L 320.60246 -243.426009 
L 318.393122 -242.633479 
L 316.113635 -241.840948 
L 313.759397 -241.840948 
L 311.32534 -241.048417 
L 308.805859 -240.255886 
L 306.194742 -238.670825 
L 303.485069 -238.27456 
L 300.669107 -238.27456 
L 297.738177 -237.482029 
L 294.68249 -235.896967 
L 291.49095 -234.906304 
L 288.150915 -228.764191 
L 284.647888 -224.831257 
L 280.965141 -224.207139 
L 277.083233 -221.037017 
L 272.979383 -218.867464 
L 268.626668 -217.866894 
L 263.992943 -213.90424 
L 259.039406 -208.950923 
L 253.718615 -196.86483 
L 247.971723 -164.172938 
L 241.724496 -163.974805 
L 234.881434 -163.974805 
L 227.316779 -146.340997 
L 218.860214 -132.471709 
L 209.272952 -118.800555 
L 198.205269 -94.03397 
L 185.11498 -93.637705 
L 169.09376 -90.269449 
L 148.438816 -87.297459 
L 119.327306 -80.570854 
L 69.560852 -64.314068 
z
" id="me1b2a43ea5" style="stroke:#d62728;stroke-opacity:0.2;"/>
    </defs>
    <g clip-path="url(#pf11acac2b5)">
     <use style="fill:#d62728;fill-opacity:0.2;stroke:#d62728;stroke-opacity:0.2;" x="0" xlink:href="#me1b2a43ea5" y="325.986375"/>
    </g>
   </g>
   <g id="matplotlib.axis_1">
    <g id="xtick_1">
     <g id="line2d_1">
      <defs>
       <path d="M 0 0 
L 0 3.5 
" id="mb4a886bb0d" style="stroke:#000000;stroke-width:0.8;"/>
      </defs>
      <g>
       <use style="stroke:#000000;stroke-width:0.8;" x="69.560852" xlink:href="#mb4a886bb0d" y="288.430125"/>
      </g>
     </g>
     <g id="text_1">
      <!-- 14m -->
      <g transform="translate(58.32804 303.028562)scale(0.1 -0.1)">
       <defs>
        <path d="M 794 531 
L 1825 531 
L 1825 4091 
L 703 3866 
L 703 4441 
L 1819 4666 
L 2450 4666 
L 2450 531 
L 3481 531 
L 3481 0 
L 794 0 
L 794 531 
z
" id="DejaVuSans-31" transform="scale(0.015625)"/>
        <path d="M 2419 4116 
L 825 1625 
L 2419 1625 
L 2419 4116 
z
M 2253 4666 
L 3047 4666 
L 3047 1625 
L 3713 1625 
L 3713 1100 
L 3047 1100 
L 3047 0 
L 2419 0 
L 2419 1100 
L 313 1100 
L 313 1709 
L 2253 4666 
z
" id="DejaVuSans-34" transform="scale(0.015625)"/>
        <path d="M 3328 2828 
Q 3544 3216 3844 3400 
Q 4144 3584 4550 3584 
Q 5097 3584 5394 3201 
Q 5691 2819 5691 2113 
L 5691 0 
L 5113 0 
L 5113 2094 
Q 5113 2597 4934 2840 
Q 4756 3084 4391 3084 
Q 3944 3084 3684 2787 
Q 3425 2491 3425 1978 
L 3425 0 
L 2847 0 
L 2847 2094 
Q 2847 2600 2669 2842 
Q 2491 3084 2119 3084 
Q 1678 3084 1418 2786 
Q 1159 2488 1159 1978 
L 1159 0 
L 581 0 
L 581 3500 
L 1159 3500 
L 1159 2956 
Q 1356 3278 1631 3431 
Q 1906 3584 2284 3584 
Q 2666 3584 2933 3390 
Q 3200 3197 3328 2828 
z
" id="DejaVuSans-6d" transform="scale(0.015625)"/>
       </defs>
       <use xlink:href="#DejaVuSans-31"/>
       <use x="63.623047" xlink:href="#DejaVuSans-34"/>
       <use x="127.246094" xlink:href="#DejaVuSans-6d"/>
      </g>
     </g>
    </g>
    <g id="xtick_2">
     <g id="line2d_2">
      <g>
       <use style="stroke:#000000;stroke-width:0.8;" x="134.491935" xlink:href="#mb4a886bb0d" y="288.430125"/>
      </g>
     </g>
     <g id="text_2">
      <!-- 37m -->
      <g transform="translate(123.259122 303.028562)scale(0.1 -0.1)">
       <defs>
        <path d="M 2597 2516 
Q 3050 2419 3304 2112 
Q 3559 1806 3559 1356 
Q 3559 666 3084 287 
Q 2609 -91 1734 -91 
Q 1441 -91 1130 -33 
Q 819 25 488 141 
L 488 750 
Q 750 597 1062 519 
Q 1375 441 1716 441 
Q 2309 441 2620 675 
Q 2931 909 2931 1356 
Q 2931 1769 2642 2001 
Q 2353 2234 1838 2234 
L 1294 2234 
L 1294 2753 
L 1863 2753 
Q 2328 2753 2575 2939 
Q 2822 3125 2822 3475 
Q 2822 3834 2567 4026 
Q 2313 4219 1838 4219 
Q 1578 4219 1281 4162 
Q 984 4106 628 3988 
L 628 4550 
Q 988 4650 1302 4700 
Q 1616 4750 1894 4750 
Q 2613 4750 3031 4423 
Q 3450 4097 3450 3541 
Q 3450 3153 3228 2886 
Q 3006 2619 2597 2516 
z
" id="DejaVuSans-33" transform="scale(0.015625)"/>
        <path d="M 525 4666 
L 3525 4666 
L 3525 4397 
L 1831 0 
L 1172 0 
L 2766 4134 
L 525 4134 
L 525 4666 
z
" id="DejaVuSans-37" transform="scale(0.015625)"/>
       </defs>
       <use xlink:href="#DejaVuSans-33"/>
       <use x="63.623047" xlink:href="#DejaVuSans-37"/>
       <use x="127.246094" xlink:href="#DejaVuSans-6d"/>
      </g>
     </g>
    </g>
    <g id="xtick_3">
     <g id="line2d_3">
      <g>
       <use style="stroke:#000000;stroke-width:0.8;" x="199.423017" xlink:href="#mb4a886bb0d" y="288.430125"/>
      </g>
     </g>
     <g id="text_3">
      <!-- 1h:31m -->
      <g transform="translate(180.15583 303.028562)scale(0.1 -0.1)">
       <defs>
        <path d="M 3513 2113 
L 3513 0 
L 2938 0 
L 2938 2094 
Q 2938 2591 2744 2837 
Q 2550 3084 2163 3084 
Q 1697 3084 1428 2787 
Q 1159 2491 1159 1978 
L 1159 0 
L 581 0 
L 581 4863 
L 1159 4863 
L 1159 2956 
Q 1366 3272 1645 3428 
Q 1925 3584 2291 3584 
Q 2894 3584 3203 3211 
Q 3513 2838 3513 2113 
z
" id="DejaVuSans-68" transform="scale(0.015625)"/>
        <path d="M 750 794 
L 1409 794 
L 1409 0 
L 750 0 
L 750 794 
z
M 750 3309 
L 1409 3309 
L 1409 2516 
L 750 2516 
L 750 3309 
z
" id="DejaVuSans-3a" transform="scale(0.015625)"/>
       </defs>
       <use xlink:href="#DejaVuSans-31"/>
       <use x="63.623047" xlink:href="#DejaVuSans-68"/>
       <use x="127.001953" xlink:href="#DejaVuSans-3a"/>
       <use x="160.693359" xlink:href="#DejaVuSans-33"/>
       <use x="224.316406" xlink:href="#DejaVuSans-31"/>
       <use x="287.939453" xlink:href="#DejaVuSans-6d"/>
      </g>
     </g>
    </g>
    <g id="xtick_4">
     <g id="line2d_4">
      <g>
       <use style="stroke:#000000;stroke-width:0.8;" x="264.3541" xlink:href="#mb4a886bb0d" y="288.430125"/>
      </g>
     </g>
     <g id="text_4">
      <!-- 3h:46m -->
      <g transform="translate(245.086912 303.028562)scale(0.1 -0.1)">
       <defs>
        <path d="M 2113 2584 
Q 1688 2584 1439 2293 
Q 1191 2003 1191 1497 
Q 1191 994 1439 701 
Q 1688 409 2113 409 
Q 2538 409 2786 701 
Q 3034 994 3034 1497 
Q 3034 2003 2786 2293 
Q 2538 2584 2113 2584 
z
M 3366 4563 
L 3366 3988 
Q 3128 4100 2886 4159 
Q 2644 4219 2406 4219 
Q 1781 4219 1451 3797 
Q 1122 3375 1075 2522 
Q 1259 2794 1537 2939 
Q 1816 3084 2150 3084 
Q 2853 3084 3261 2657 
Q 3669 2231 3669 1497 
Q 3669 778 3244 343 
Q 2819 -91 2113 -91 
Q 1303 -91 875 529 
Q 447 1150 447 2328 
Q 447 3434 972 4092 
Q 1497 4750 2381 4750 
Q 2619 4750 2861 4703 
Q 3103 4656 3366 4563 
z
" id="DejaVuSans-36" transform="scale(0.015625)"/>
       </defs>
       <use xlink:href="#DejaVuSans-33"/>
       <use x="63.623047" xlink:href="#DejaVuSans-68"/>
       <use x="127.001953" xlink:href="#DejaVuSans-3a"/>
       <use x="160.693359" xlink:href="#DejaVuSans-34"/>
       <use x="224.316406" xlink:href="#DejaVuSans-36"/>
       <use x="287.939453" xlink:href="#DejaVuSans-6d"/>
      </g>
     </g>
    </g>
    <g id="xtick_5">
     <g id="line2d_5">
      <g>
       <use style="stroke:#000000;stroke-width:0.8;" x="329.285182" xlink:href="#mb4a886bb0d" y="288.430125"/>
      </g>
     </g>
     <g id="text_5">
      <!-- 9h:18m -->
      <g transform="translate(310.017995 303.028562)scale(0.1 -0.1)">
       <defs>
        <path d="M 703 97 
L 703 672 
Q 941 559 1184 500 
Q 1428 441 1663 441 
Q 2288 441 2617 861 
Q 2947 1281 2994 2138 
Q 2813 1869 2534 1725 
Q 2256 1581 1919 1581 
Q 1219 1581 811 2004 
Q 403 2428 403 3163 
Q 403 3881 828 4315 
Q 1253 4750 1959 4750 
Q 2769 4750 3195 4129 
Q 3622 3509 3622 2328 
Q 3622 1225 3098 567 
Q 2575 -91 1691 -91 
Q 1453 -91 1209 -44 
Q 966 3 703 97 
z
M 1959 2075 
Q 2384 2075 2632 2365 
Q 2881 2656 2881 3163 
Q 2881 3666 2632 3958 
Q 2384 4250 1959 4250 
Q 1534 4250 1286 3958 
Q 1038 3666 1038 3163 
Q 1038 2656 1286 2365 
Q 1534 2075 1959 2075 
z
" id="DejaVuSans-39" transform="scale(0.015625)"/>
        <path d="M 2034 2216 
Q 1584 2216 1326 1975 
Q 1069 1734 1069 1313 
Q 1069 891 1326 650 
Q 1584 409 2034 409 
Q 2484 409 2743 651 
Q 3003 894 3003 1313 
Q 3003 1734 2745 1975 
Q 2488 2216 2034 2216 
z
M 1403 2484 
Q 997 2584 770 2862 
Q 544 3141 544 3541 
Q 544 4100 942 4425 
Q 1341 4750 2034 4750 
Q 2731 4750 3128 4425 
Q 3525 4100 3525 3541 
Q 3525 3141 3298 2862 
Q 3072 2584 2669 2484 
Q 3125 2378 3379 2068 
Q 3634 1759 3634 1313 
Q 3634 634 3220 271 
Q 2806 -91 2034 -91 
Q 1263 -91 848 271 
Q 434 634 434 1313 
Q 434 1759 690 2068 
Q 947 2378 1403 2484 
z
M 1172 3481 
Q 1172 3119 1398 2916 
Q 1625 2713 2034 2713 
Q 2441 2713 2670 2916 
Q 2900 3119 2900 3481 
Q 2900 3844 2670 4047 
Q 2441 4250 2034 4250 
Q 1625 4250 1398 4047 
Q 1172 3844 1172 3481 
z
" id="DejaVuSans-38" transform="scale(0.015625)"/>
       </defs>
       <use xlink:href="#DejaVuSans-39"/>
       <use x="63.623047" xlink:href="#DejaVuSans-68"/>
       <use x="127.001953" xlink:href="#DejaVuSans-3a"/>
       <use x="160.693359" xlink:href="#DejaVuSans-31"/>
       <use x="224.316406" xlink:href="#DejaVuSans-38"/>
       <use x="287.939453" xlink:href="#DejaVuSans-6d"/>
      </g>
     </g>
    </g>
    <g id="xtick_6">
     <g id="line2d_6">
      <g>
       <use style="stroke:#000000;stroke-width:0.8;" x="394.216265" xlink:href="#mb4a886bb0d" y="288.430125"/>
      </g>
     </g>
     <g id="text_6">
      <!-- 23h -->
      <g transform="translate(384.685015 303.028562)scale(0.1 -0.1)">
       <defs>
        <path d="M 1228 531 
L 3431 531 
L 3431 0 
L 469 0 
L 469 531 
Q 828 903 1448 1529 
Q 2069 2156 2228 2338 
Q 2531 2678 2651 2914 
Q 2772 3150 2772 3378 
Q 2772 3750 2511 3984 
Q 2250 4219 1831 4219 
Q 1534 4219 1204 4116 
Q 875 4013 500 3803 
L 500 4441 
Q 881 4594 1212 4672 
Q 1544 4750 1819 4750 
Q 2544 4750 2975 4387 
Q 3406 4025 3406 3419 
Q 3406 3131 3298 2873 
Q 3191 2616 2906 2266 
Q 2828 2175 2409 1742 
Q 1991 1309 1228 531 
z
" id="DejaVuSans-32" transform="scale(0.015625)"/>
       </defs>
       <use xlink:href="#DejaVuSans-32"/>
       <use x="63.623047" xlink:href="#DejaVuSans-33"/>
       <use x="127.246094" xlink:href="#DejaVuSans-68"/>
      </g>
     </g>
    </g>
    <g id="xtick_7">
     <g id="line2d_7">
      <defs>
       <path d="M 0 0 
L 0 2 
" id="mfc39bd89b7" style="stroke:#000000;stroke-width:0.6;"/>
      </defs>
      <g>
       <use style="stroke:#000000;stroke-width:0.6;" x="61.104288" xlink:href="#mfc39bd89b7" y="288.430125"/>
      </g>
     </g>
    </g>
    <g id="xtick_8">
     <g id="line2d_8">
      <g>
       <use style="stroke:#000000;stroke-width:0.6;" x="126.891961" xlink:href="#mfc39bd89b7" y="288.430125"/>
      </g>
     </g>
    </g>
    <g id="xtick_9">
     <g id="line2d_9">
      <g>
       <use style="stroke:#000000;stroke-width:0.6;" x="156.00347" xlink:href="#mfc39bd89b7" y="288.430125"/>
      </g>
     </g>
    </g>
    <g id="xtick_10">
     <g id="line2d_10">
      <g>
       <use style="stroke:#000000;stroke-width:0.6;" x="176.658415" xlink:href="#mfc39bd89b7" y="288.430125"/>
      </g>
     </g>
    </g>
    <g id="xtick_11">
     <g id="line2d_11">
      <g>
       <use style="stroke:#000000;stroke-width:0.6;" x="192.679635" xlink:href="#mfc39bd89b7" y="288.430125"/>
      </g>
     </g>
    </g>
    <g id="xtick_12">
     <g id="line2d_12">
      <g>
       <use style="stroke:#000000;stroke-width:0.6;" x="205.769924" xlink:href="#mfc39bd89b7" y="288.430125"/>
      </g>
     </g>
    </g>
    <g id="xtick_13">
     <g id="line2d_13">
      <g>
       <use style="stroke:#000000;stroke-width:0.6;" x="216.837607" xlink:href="#mfc39bd89b7" y="288.430125"/>
      </g>
     </g>
    </g>
    <g id="xtick_14">
     <g id="line2d_14">
      <g>
       <use style="stroke:#000000;stroke-width:0.6;" x="226.424869" xlink:href="#mfc39bd89b7" y="288.430125"/>
      </g>
     </g>
    </g>
    <g id="xtick_15">
     <g id="line2d_15">
      <g>
       <use style="stroke:#000000;stroke-width:0.6;" x="234.881434" xlink:href="#mfc39bd89b7" y="288.430125"/>
      </g>
     </g>
    </g>
    <g id="xtick_16">
     <g id="line2d_16">
      <g>
       <use style="stroke:#000000;stroke-width:0.6;" x="292.212543" xlink:href="#mfc39bd89b7" y="288.430125"/>
      </g>
     </g>
    </g>
    <g id="xtick_17">
     <g id="line2d_17">
      <g>
       <use style="stroke:#000000;stroke-width:0.6;" x="321.324052" xlink:href="#mfc39bd89b7" y="288.430125"/>
      </g>
     </g>
    </g>
    <g id="xtick_18">
     <g id="line2d_18">
      <g>
       <use style="stroke:#000000;stroke-width:0.6;" x="341.978996" xlink:href="#mfc39bd89b7" y="288.430125"/>
      </g>
     </g>
    </g>
    <g id="xtick_19">
     <g id="line2d_19">
      <g>
       <use style="stroke:#000000;stroke-width:0.6;" x="358.000216" xlink:href="#mfc39bd89b7" y="288.430125"/>
      </g>
     </g>
    </g>
    <g id="xtick_20">
     <g id="line2d_20">
      <g>
       <use style="stroke:#000000;stroke-width:0.6;" x="371.090506" xlink:href="#mfc39bd89b7" y="288.430125"/>
      </g>
     </g>
    </g>
    <g id="xtick_21">
     <g id="line2d_21">
      <g>
       <use style="stroke:#000000;stroke-width:0.6;" x="382.158188" xlink:href="#mfc39bd89b7" y="288.430125"/>
      </g>
     </g>
    </g>
    <g id="xtick_22">
     <g id="line2d_22">
      <g>
       <use style="stroke:#000000;stroke-width:0.6;" x="391.74545" xlink:href="#mfc39bd89b7" y="288.430125"/>
      </g>
     </g>
    </g>
    <g id="xtick_23">
     <g id="line2d_23">
      <g>
       <use style="stroke:#000000;stroke-width:0.6;" x="400.202015" xlink:href="#mfc39bd89b7" y="288.430125"/>
      </g>
     </g>
    </g>
    <g id="text_7">
     <!-- Time (hour:minute) -->
     <g transform="translate(183.481094 316.706687)scale(0.1 -0.1)">
      <defs>
       <path d="M -19 4666 
L 3928 4666 
L 3928 4134 
L 2272 4134 
L 2272 0 
L 1638 0 
L 1638 4134 
L -19 4134 
L -19 4666 
z
" id="DejaVuSans-54" transform="scale(0.015625)"/>
       <path d="M 603 3500 
L 1178 3500 
L 1178 0 
L 603 0 
L 603 3500 
z
M 603 4863 
L 1178 4863 
L 1178 4134 
L 603 4134 
L 603 4863 
z
" id="DejaVuSans-69" transform="scale(0.015625)"/>
       <path d="M 3597 1894 
L 3597 1613 
L 953 1613 
Q 991 1019 1311 708 
Q 1631 397 2203 397 
Q 2534 397 2845 478 
Q 3156 559 3463 722 
L 3463 178 
Q 3153 47 2828 -22 
Q 2503 -91 2169 -91 
Q 1331 -91 842 396 
Q 353 884 353 1716 
Q 353 2575 817 3079 
Q 1281 3584 2069 3584 
Q 2775 3584 3186 3129 
Q 3597 2675 3597 1894 
z
M 3022 2063 
Q 3016 2534 2758 2815 
Q 2500 3097 2075 3097 
Q 1594 3097 1305 2825 
Q 1016 2553 972 2059 
L 3022 2063 
z
" id="DejaVuSans-65" transform="scale(0.015625)"/>
       <path id="DejaVuSans-20" transform="scale(0.015625)"/>
       <path d="M 1984 4856 
Q 1566 4138 1362 3434 
Q 1159 2731 1159 2009 
Q 1159 1288 1364 580 
Q 1569 -128 1984 -844 
L 1484 -844 
Q 1016 -109 783 600 
Q 550 1309 550 2009 
Q 550 2706 781 3412 
Q 1013 4119 1484 4856 
L 1984 4856 
z
" id="DejaVuSans-28" transform="scale(0.015625)"/>
       <path d="M 1959 3097 
Q 1497 3097 1228 2736 
Q 959 2375 959 1747 
Q 959 1119 1226 758 
Q 1494 397 1959 397 
Q 2419 397 2687 759 
Q 2956 1122 2956 1747 
Q 2956 2369 2687 2733 
Q 2419 3097 1959 3097 
z
M 1959 3584 
Q 2709 3584 3137 3096 
Q 3566 2609 3566 1747 
Q 3566 888 3137 398 
Q 2709 -91 1959 -91 
Q 1206 -91 779 398 
Q 353 888 353 1747 
Q 353 2609 779 3096 
Q 1206 3584 1959 3584 
z
" id="DejaVuSans-6f" transform="scale(0.015625)"/>
       <path d="M 544 1381 
L 544 3500 
L 1119 3500 
L 1119 1403 
Q 1119 906 1312 657 
Q 1506 409 1894 409 
Q 2359 409 2629 706 
Q 2900 1003 2900 1516 
L 2900 3500 
L 3475 3500 
L 3475 0 
L 2900 0 
L 2900 538 
Q 2691 219 2414 64 
Q 2138 -91 1772 -91 
Q 1169 -91 856 284 
Q 544 659 544 1381 
z
M 1991 3584 
L 1991 3584 
z
" id="DejaVuSans-75" transform="scale(0.015625)"/>
       <path d="M 2631 2963 
Q 2534 3019 2420 3045 
Q 2306 3072 2169 3072 
Q 1681 3072 1420 2755 
Q 1159 2438 1159 1844 
L 1159 0 
L 581 0 
L 581 3500 
L 1159 3500 
L 1159 2956 
Q 1341 3275 1631 3429 
Q 1922 3584 2338 3584 
Q 2397 3584 2469 3576 
Q 2541 3569 2628 3553 
L 2631 2963 
z
" id="DejaVuSans-72" transform="scale(0.015625)"/>
       <path d="M 3513 2113 
L 3513 0 
L 2938 0 
L 2938 2094 
Q 2938 2591 2744 2837 
Q 2550 3084 2163 3084 
Q 1697 3084 1428 2787 
Q 1159 2491 1159 1978 
L 1159 0 
L 581 0 
L 581 3500 
L 1159 3500 
L 1159 2956 
Q 1366 3272 1645 3428 
Q 1925 3584 2291 3584 
Q 2894 3584 3203 3211 
Q 3513 2838 3513 2113 
z
" id="DejaVuSans-6e" transform="scale(0.015625)"/>
       <path d="M 1172 4494 
L 1172 3500 
L 2356 3500 
L 2356 3053 
L 1172 3053 
L 1172 1153 
Q 1172 725 1289 603 
Q 1406 481 1766 481 
L 2356 481 
L 2356 0 
L 1766 0 
Q 1100 0 847 248 
Q 594 497 594 1153 
L 594 3053 
L 172 3053 
L 172 3500 
L 594 3500 
L 594 4494 
L 1172 4494 
z
" id="DejaVuSans-74" transform="scale(0.015625)"/>
       <path d="M 513 4856 
L 1013 4856 
Q 1481 4119 1714 3412 
Q 1947 2706 1947 2009 
Q 1947 1309 1714 600 
Q 1481 -109 1013 -844 
L 513 -844 
Q 928 -128 1133 580 
Q 1338 1288 1338 2009 
Q 1338 2731 1133 3434 
Q 928 4138 513 4856 
z
" id="DejaVuSans-29" transform="scale(0.015625)"/>
      </defs>
      <use xlink:href="#DejaVuSans-54"/>
      <use x="57.958984" xlink:href="#DejaVuSans-69"/>
      <use x="85.742188" xlink:href="#DejaVuSans-6d"/>
      <use x="183.154297" xlink:href="#DejaVuSans-65"/>
      <use x="244.677734" xlink:href="#DejaVuSans-20"/>
      <use x="276.464844" xlink:href="#DejaVuSans-28"/>
      <use x="315.478516" xlink:href="#DejaVuSans-68"/>
      <use x="378.857422" xlink:href="#DejaVuSans-6f"/>
      <use x="440.039062" xlink:href="#DejaVuSans-75"/>
      <use x="503.417969" xlink:href="#DejaVuSans-72"/>
      <use x="542.78125" xlink:href="#DejaVuSans-3a"/>
      <use x="576.472656" xlink:href="#DejaVuSans-6d"/>
      <use x="673.884766" xlink:href="#DejaVuSans-69"/>
      <use x="701.667969" xlink:href="#DejaVuSans-6e"/>
      <use x="765.046875" xlink:href="#DejaVuSans-75"/>
      <use x="828.425781" xlink:href="#DejaVuSans-74"/>
      <use x="867.634766" xlink:href="#DejaVuSans-65"/>
      <use x="929.158203" xlink:href="#DejaVuSans-29"/>
     </g>
    </g>
   </g>
   <g id="matplotlib.axis_2">
    <g id="ytick_1">
     <g id="line2d_24">
      <defs>
       <path d="M 0 0 
L -3.5 0 
" id="m839bd9512b" style="stroke:#000000;stroke-width:0.8;"/>
      </defs>
      <g>
       <use style="stroke:#000000;stroke-width:0.8;" x="53.328125" xlink:href="#m839bd9512b" y="250.973142"/>
      </g>
     </g>
     <g id="text_8">
      <!-- 1800 -->
      <g transform="translate(20.878125 254.772361)scale(0.1 -0.1)">
       <defs>
        <path d="M 2034 4250 
Q 1547 4250 1301 3770 
Q 1056 3291 1056 2328 
Q 1056 1369 1301 889 
Q 1547 409 2034 409 
Q 2525 409 2770 889 
Q 3016 1369 3016 2328 
Q 3016 3291 2770 3770 
Q 2525 4250 2034 4250 
z
M 2034 4750 
Q 2819 4750 3233 4129 
Q 3647 3509 3647 2328 
Q 3647 1150 3233 529 
Q 2819 -91 2034 -91 
Q 1250 -91 836 529 
Q 422 1150 422 2328 
Q 422 3509 836 4129 
Q 1250 4750 2034 4750 
z
" id="DejaVuSans-30" transform="scale(0.015625)"/>
       </defs>
       <use xlink:href="#DejaVuSans-31"/>
       <use x="63.623047" xlink:href="#DejaVuSans-38"/>
       <use x="127.246094" xlink:href="#DejaVuSans-30"/>
       <use x="190.869141" xlink:href="#DejaVuSans-30"/>
      </g>
     </g>
    </g>
    <g id="ytick_2">
     <g id="line2d_25">
      <g>
       <use style="stroke:#000000;stroke-width:0.8;" x="53.328125" xlink:href="#m839bd9512b" y="211.346607"/>
      </g>
     </g>
     <g id="text_9">
      <!-- 1900 -->
      <g transform="translate(20.878125 215.145825)scale(0.1 -0.1)">
       <use xlink:href="#DejaVuSans-31"/>
       <use x="63.623047" xlink:href="#DejaVuSans-39"/>
       <use x="127.246094" xlink:href="#DejaVuSans-30"/>
       <use x="190.869141" xlink:href="#DejaVuSans-30"/>
      </g>
     </g>
    </g>
    <g id="ytick_3">
     <g id="line2d_26">
      <g>
       <use style="stroke:#000000;stroke-width:0.8;" x="53.328125" xlink:href="#m839bd9512b" y="171.720071"/>
      </g>
     </g>
     <g id="text_10">
      <!-- 2000 -->
      <g transform="translate(20.878125 175.51929)scale(0.1 -0.1)">
       <use xlink:href="#DejaVuSans-32"/>
       <use x="63.623047" xlink:href="#DejaVuSans-30"/>
       <use x="127.246094" xlink:href="#DejaVuSans-30"/>
       <use x="190.869141" xlink:href="#DejaVuSans-30"/>
      </g>
     </g>
    </g>
    <g id="ytick_4">
     <g id="line2d_27">
      <g>
       <use style="stroke:#000000;stroke-width:0.8;" x="53.328125" xlink:href="#m839bd9512b" y="132.093535"/>
      </g>
     </g>
     <g id="text_11">
      <!-- 2100 -->
      <g transform="translate(20.878125 135.892754)scale(0.1 -0.1)">
       <use xlink:href="#DejaVuSans-32"/>
       <use x="63.623047" xlink:href="#DejaVuSans-31"/>
       <use x="127.246094" xlink:href="#DejaVuSans-30"/>
       <use x="190.869141" xlink:href="#DejaVuSans-30"/>
      </g>
     </g>
    </g>
    <g id="ytick_5">
     <g id="line2d_28">
      <g>
       <use style="stroke:#000000;stroke-width:0.8;" x="53.328125" xlink:href="#m839bd9512b" y="92.467"/>
      </g>
     </g>
     <g id="text_12">
      <!-- 2200 -->
      <g transform="translate(20.878125 96.266218)scale(0.1 -0.1)">
       <use xlink:href="#DejaVuSans-32"/>
       <use x="63.623047" xlink:href="#DejaVuSans-32"/>
       <use x="127.246094" xlink:href="#DejaVuSans-30"/>
       <use x="190.869141" xlink:href="#DejaVuSans-30"/>
      </g>
     </g>
    </g>
    <g id="ytick_6">
     <g id="line2d_29">
      <g>
       <use style="stroke:#000000;stroke-width:0.8;" x="53.328125" xlink:href="#m839bd9512b" y="52.840464"/>
      </g>
     </g>
     <g id="text_13">
      <!-- 2300 -->
      <g transform="translate(20.878125 56.639683)scale(0.1 -0.1)">
       <use xlink:href="#DejaVuSans-32"/>
       <use x="63.623047" xlink:href="#DejaVuSans-33"/>
       <use x="127.246094" xlink:href="#DejaVuSans-30"/>
       <use x="190.869141" xlink:href="#DejaVuSans-30"/>
      </g>
     </g>
    </g>
    <g id="text_14">
     <!-- Code region coverage -->
     <g transform="translate(14.798438 210.379594)rotate(-90)scale(0.1 -0.1)">
      <defs>
       <path d="M 4122 4306 
L 4122 3641 
Q 3803 3938 3442 4084 
Q 3081 4231 2675 4231 
Q 1875 4231 1450 3742 
Q 1025 3253 1025 2328 
Q 1025 1406 1450 917 
Q 1875 428 2675 428 
Q 3081 428 3442 575 
Q 3803 722 4122 1019 
L 4122 359 
Q 3791 134 3420 21 
Q 3050 -91 2638 -91 
Q 1578 -91 968 557 
Q 359 1206 359 2328 
Q 359 3453 968 4101 
Q 1578 4750 2638 4750 
Q 3056 4750 3426 4639 
Q 3797 4528 4122 4306 
z
" id="DejaVuSans-43" transform="scale(0.015625)"/>
       <path d="M 2906 2969 
L 2906 4863 
L 3481 4863 
L 3481 0 
L 2906 0 
L 2906 525 
Q 2725 213 2448 61 
Q 2172 -91 1784 -91 
Q 1150 -91 751 415 
Q 353 922 353 1747 
Q 353 2572 751 3078 
Q 1150 3584 1784 3584 
Q 2172 3584 2448 3432 
Q 2725 3281 2906 2969 
z
M 947 1747 
Q 947 1113 1208 752 
Q 1469 391 1925 391 
Q 2381 391 2643 752 
Q 2906 1113 2906 1747 
Q 2906 2381 2643 2742 
Q 2381 3103 1925 3103 
Q 1469 3103 1208 2742 
Q 947 2381 947 1747 
z
" id="DejaVuSans-64" transform="scale(0.015625)"/>
       <path d="M 2906 1791 
Q 2906 2416 2648 2759 
Q 2391 3103 1925 3103 
Q 1463 3103 1205 2759 
Q 947 2416 947 1791 
Q 947 1169 1205 825 
Q 1463 481 1925 481 
Q 2391 481 2648 825 
Q 2906 1169 2906 1791 
z
M 3481 434 
Q 3481 -459 3084 -895 
Q 2688 -1331 1869 -1331 
Q 1566 -1331 1297 -1286 
Q 1028 -1241 775 -1147 
L 775 -588 
Q 1028 -725 1275 -790 
Q 1522 -856 1778 -856 
Q 2344 -856 2625 -561 
Q 2906 -266 2906 331 
L 2906 616 
Q 2728 306 2450 153 
Q 2172 0 1784 0 
Q 1141 0 747 490 
Q 353 981 353 1791 
Q 353 2603 747 3093 
Q 1141 3584 1784 3584 
Q 2172 3584 2450 3431 
Q 2728 3278 2906 2969 
L 2906 3500 
L 3481 3500 
L 3481 434 
z
" id="DejaVuSans-67" transform="scale(0.015625)"/>
       <path d="M 3122 3366 
L 3122 2828 
Q 2878 2963 2633 3030 
Q 2388 3097 2138 3097 
Q 1578 3097 1268 2742 
Q 959 2388 959 1747 
Q 959 1106 1268 751 
Q 1578 397 2138 397 
Q 2388 397 2633 464 
Q 2878 531 3122 666 
L 3122 134 
Q 2881 22 2623 -34 
Q 2366 -91 2075 -91 
Q 1284 -91 818 406 
Q 353 903 353 1747 
Q 353 2603 823 3093 
Q 1294 3584 2113 3584 
Q 2378 3584 2631 3529 
Q 2884 3475 3122 3366 
z
" id="DejaVuSans-63" transform="scale(0.015625)"/>
       <path d="M 191 3500 
L 800 3500 
L 1894 563 
L 2988 3500 
L 3597 3500 
L 2284 0 
L 1503 0 
L 191 3500 
z
" id="DejaVuSans-76" transform="scale(0.015625)"/>
       <path d="M 2194 1759 
Q 1497 1759 1228 1600 
Q 959 1441 959 1056 
Q 959 750 1161 570 
Q 1363 391 1709 391 
Q 2188 391 2477 730 
Q 2766 1069 2766 1631 
L 2766 1759 
L 2194 1759 
z
M 3341 1997 
L 3341 0 
L 2766 0 
L 2766 531 
Q 2569 213 2275 61 
Q 1981 -91 1556 -91 
Q 1019 -91 701 211 
Q 384 513 384 1019 
Q 384 1609 779 1909 
Q 1175 2209 1959 2209 
L 2766 2209 
L 2766 2266 
Q 2766 2663 2505 2880 
Q 2244 3097 1772 3097 
Q 1472 3097 1187 3025 
Q 903 2953 641 2809 
L 641 3341 
Q 956 3463 1253 3523 
Q 1550 3584 1831 3584 
Q 2591 3584 2966 3190 
Q 3341 2797 3341 1997 
z
" id="DejaVuSans-61" transform="scale(0.015625)"/>
      </defs>
      <use xlink:href="#DejaVuSans-43"/>
      <use x="69.824219" xlink:href="#DejaVuSans-6f"/>
      <use x="131.005859" xlink:href="#DejaVuSans-64"/>
      <use x="194.482422" xlink:href="#DejaVuSans-65"/>
      <use x="256.005859" xlink:href="#DejaVuSans-20"/>
      <use x="287.792969" xlink:href="#DejaVuSans-72"/>
      <use x="326.65625" xlink:href="#DejaVuSans-65"/>
      <use x="388.179688" xlink:href="#DejaVuSans-67"/>
      <use x="451.65625" xlink:href="#DejaVuSans-69"/>
      <use x="479.439453" xlink:href="#DejaVuSans-6f"/>
      <use x="540.621094" xlink:href="#DejaVuSans-6e"/>
      <use x="604" xlink:href="#DejaVuSans-20"/>
      <use x="635.787109" xlink:href="#DejaVuSans-63"/>
      <use x="690.767578" xlink:href="#DejaVuSans-6f"/>
      <use x="751.949219" xlink:href="#DejaVuSans-76"/>
      <use x="811.128906" xlink:href="#DejaVuSans-65"/>
      <use x="872.652344" xlink:href="#DejaVuSans-72"/>
      <use x="913.765625" xlink:href="#DejaVuSans-61"/>
      <use x="975.044922" xlink:href="#DejaVuSans-67"/>
      <use x="1038.521484" xlink:href="#DejaVuSans-65"/>
     </g>
    </g>
   </g>
   <g id="line2d_30">
    <path clip-path="url(#pf11acac2b5)" d="M 69.560852 261.870439 
L 119.327306 238.094518 
L 148.438816 230.565476 
L 169.09376 227.395354 
L 185.11498 222.442037 
L 198.205269 218.479383 
L 209.272952 215.903658 
L 218.860214 211.148474 
L 227.316779 210.355943 
L 234.881434 178.654715 
L 241.724496 178.654715 
L 247.971723 176.871521 
L 253.718615 171.720071 
L 259.039406 170.13501 
L 263.992943 168.748081 
L 268.626668 167.95555 
L 272.979383 132.687933 
L 277.083233 129.517811 
L 280.965141 129.517811 
L 284.647888 111.685869 
L 288.150915 111.685869 
L 291.49095 111.685869 
L 294.68249 111.091471 
L 297.738177 94.844592 
L 300.669107 84.145427 
L 303.485069 83.947295 
L 306.194742 83.947295 
L 308.805859 82.956631 
L 311.32534 82.758498 
L 313.759397 82.362233 
L 316.113635 82.362233 
L 318.393122 73.842528 
L 320.60246 72.455599 
L 322.745837 72.059334 
L 324.827079 70.27614 
L 326.849687 70.078007 
L 328.816873 68.889211 
L 330.731595 68.492946 
L 332.596578 66.115354 
L 334.414342 66.115354 
L 336.187217 65.917221 
L 337.917369 65.917221 
L 339.606807 65.917221 
L 341.257404 65.719088 
L 342.870906 65.719088 
L 344.448944 65.719088 
L 345.993042 65.719088 
L 347.504631 65.322823 
L 348.985051 64.926557 
L 350.435561 64.728425 
L 351.857347 63.341496 
L 353.251523 63.341496 
L 354.619142 62.1527 
L 355.961196 62.1527 
L 357.278624 60.963904 
L 358.572313 60.963904 
L 359.843104 60.963904 
L 361.091794 60.963904 
L 362.319136 60.171373 
L 363.525851 60.171373 
L 364.712619 60.171373 
L 365.880089 60.171373 
L 367.028878 60.171373 
L 368.159576 60.171373 
L 369.272743 57.793781 
L 370.368914 52.840464 
L 371.4486 52.642331 
L 372.512291 52.642331 
L 373.560453 52.246066 
L 374.593533 52.246066 
L 375.611959 52.246066 
L 376.616141 52.246066 
L 377.606471 52.246066 
L 378.583327 49.670341 
L 379.547071 49.670341 
L 380.498049 49.472209 
L 381.436596 49.274076 
L 382.363032 49.274076 
L 383.277666 49.274076 
L 384.180795 49.274076 
L 385.072705 49.274076 
L 385.953671 49.274076 
L 386.823958 49.075943 
L 387.683823 48.283412 
L 388.533511 47.094616 
L 389.373261 46.896484 
L 390.203303 46.896484 
L 391.023858 46.896484 
L 391.835142 46.698351 
L 392.63736 46.698351 
L 393.430714 46.698351 
L 394.215398 46.698351 
" style="fill:none;stroke:#1f77b4;stroke-linecap:square;stroke-width:1.5;"/>
    <defs>
     <path d="M 0 3 
C 0.795609 3 1.55874 2.683901 2.12132 2.12132 
C 2.683901 1.55874 3 0.795609 3 0 
C 3 -0.795609 2.683901 -1.55874 2.12132 -2.12132 
C 1.55874 -2.683901 0.795609 -3 0 -3 
C -0.795609 -3 -1.55874 -2.683901 -2.12132 -2.12132 
C -2.683901 -1.55874 -3 -0.795609 -3 0 
C -3 0.795609 -2.683901 1.55874 -2.12132 2.12132 
C -1.55874 2.683901 -0.795609 3 0 3 
z
" id="m713a4900e8" style="stroke:#ffffff;stroke-width:0.75;"/>
    </defs>
    <g clip-path="url(#pf11acac2b5)">
     <use style="fill:#1f77b4;stroke:#ffffff;stroke-width:0.75;" x="69.560852" xlink:href="#m713a4900e8" y="261.870439"/>
     <use style="fill:#1f77b4;stroke:#ffffff;stroke-width:0.75;" x="119.327306" xlink:href="#m713a4900e8" y="238.094518"/>
     <use style="fill:#1f77b4;stroke:#ffffff;stroke-width:0.75;" x="148.438816" xlink:href="#m713a4900e8" y="230.565476"/>
     <use style="fill:#1f77b4;stroke:#ffffff;stroke-width:0.75;" x="169.09376" xlink:href="#m713a4900e8" y="227.395354"/>
     <use style="fill:#1f77b4;stroke:#ffffff;stroke-width:0.75;" x="185.11498" xlink:href="#m713a4900e8" y="222.442037"/>
     <use style="fill:#1f77b4;stroke:#ffffff;stroke-width:0.75;" x="198.205269" xlink:href="#m713a4900e8" y="218.479383"/>
     <use style="fill:#1f77b4;stroke:#ffffff;stroke-width:0.75;" x="209.272952" xlink:href="#m713a4900e8" y="215.903658"/>
     <use style="fill:#1f77b4;stroke:#ffffff;stroke-width:0.75;" x="218.860214" xlink:href="#m713a4900e8" y="211.148474"/>
     <use style="fill:#1f77b4;stroke:#ffffff;stroke-width:0.75;" x="227.316779" xlink:href="#m713a4900e8" y="210.355943"/>
     <use style="fill:#1f77b4;stroke:#ffffff;stroke-width:0.75;" x="234.881434" xlink:href="#m713a4900e8" y="178.654715"/>
     <use style="fill:#1f77b4;stroke:#ffffff;stroke-width:0.75;" x="241.724496" xlink:href="#m713a4900e8" y="178.654715"/>
     <use style="fill:#1f77b4;stroke:#ffffff;stroke-width:0.75;" x="247.971723" xlink:href="#m713a4900e8" y="176.871521"/>
     <use style="fill:#1f77b4;stroke:#ffffff;stroke-width:0.75;" x="253.718615" xlink:href="#m713a4900e8" y="171.720071"/>
     <use style="fill:#1f77b4;stroke:#ffffff;stroke-width:0.75;" x="259.039406" xlink:href="#m713a4900e8" y="170.13501"/>
     <use style="fill:#1f77b4;stroke:#ffffff;stroke-width:0.75;" x="263.992943" xlink:href="#m713a4900e8" y="168.748081"/>
     <use style="fill:#1f77b4;stroke:#ffffff;stroke-width:0.75;" x="268.626668" xlink:href="#m713a4900e8" y="167.95555"/>
     <use style="fill:#1f77b4;stroke:#ffffff;stroke-width:0.75;" x="272.979383" xlink:href="#m713a4900e8" y="132.687933"/>
     <use style="fill:#1f77b4;stroke:#ffffff;stroke-width:0.75;" x="277.083233" xlink:href="#m713a4900e8" y="129.517811"/>
     <use style="fill:#1f77b4;stroke:#ffffff;stroke-width:0.75;" x="280.965141" xlink:href="#m713a4900e8" y="129.517811"/>
     <use style="fill:#1f77b4;stroke:#ffffff;stroke-width:0.75;" x="284.647888" xlink:href="#m713a4900e8" y="111.685869"/>
     <use style="fill:#1f77b4;stroke:#ffffff;stroke-width:0.75;" x="288.150915" xlink:href="#m713a4900e8" y="111.685869"/>
     <use style="fill:#1f77b4;stroke:#ffffff;stroke-width:0.75;" x="291.49095" xlink:href="#m713a4900e8" y="111.685869"/>
     <use style="fill:#1f77b4;stroke:#ffffff;stroke-width:0.75;" x="294.68249" xlink:href="#m713a4900e8" y="111.091471"/>
     <use style="fill:#1f77b4;stroke:#ffffff;stroke-width:0.75;" x="297.738177" xlink:href="#m713a4900e8" y="94.844592"/>
     <use style="fill:#1f77b4;stroke:#ffffff;stroke-width:0.75;" x="300.669107" xlink:href="#m713a4900e8" y="84.145427"/>
     <use style="fill:#1f77b4;stroke:#ffffff;stroke-width:0.75;" x="303.485069" xlink:href="#m713a4900e8" y="83.947295"/>
     <use style="fill:#1f77b4;stroke:#ffffff;stroke-width:0.75;" x="306.194742" xlink:href="#m713a4900e8" y="83.947295"/>
     <use style="fill:#1f77b4;stroke:#ffffff;stroke-width:0.75;" x="308.805859" xlink:href="#m713a4900e8" y="82.956631"/>
     <use style="fill:#1f77b4;stroke:#ffffff;stroke-width:0.75;" x="311.32534" xlink:href="#m713a4900e8" y="82.758498"/>
     <use style="fill:#1f77b4;stroke:#ffffff;stroke-width:0.75;" x="313.759397" xlink:href="#m713a4900e8" y="82.362233"/>
     <use style="fill:#1f77b4;stroke:#ffffff;stroke-width:0.75;" x="316.113635" xlink:href="#m713a4900e8" y="82.362233"/>
     <use style="fill:#1f77b4;stroke:#ffffff;stroke-width:0.75;" x="318.393122" xlink:href="#m713a4900e8" y="73.842528"/>
     <use style="fill:#1f77b4;stroke:#ffffff;stroke-width:0.75;" x="320.60246" xlink:href="#m713a4900e8" y="72.455599"/>
     <use style="fill:#1f77b4;stroke:#ffffff;stroke-width:0.75;" x="322.745837" xlink:href="#m713a4900e8" y="72.059334"/>
     <use style="fill:#1f77b4;stroke:#ffffff;stroke-width:0.75;" x="324.827079" xlink:href="#m713a4900e8" y="70.27614"/>
     <use style="fill:#1f77b4;stroke:#ffffff;stroke-width:0.75;" x="326.849687" xlink:href="#m713a4900e8" y="70.078007"/>
     <use style="fill:#1f77b4;stroke:#ffffff;stroke-width:0.75;" x="328.816873" xlink:href="#m713a4900e8" y="68.889211"/>
     <use style="fill:#1f77b4;stroke:#ffffff;stroke-width:0.75;" x="330.731595" xlink:href="#m713a4900e8" y="68.492946"/>
     <use style="fill:#1f77b4;stroke:#ffffff;stroke-width:0.75;" x="332.596578" xlink:href="#m713a4900e8" y="66.115354"/>
     <use style="fill:#1f77b4;stroke:#ffffff;stroke-width:0.75;" x="334.414342" xlink:href="#m713a4900e8" y="66.115354"/>
     <use style="fill:#1f77b4;stroke:#ffffff;stroke-width:0.75;" x="336.187217" xlink:href="#m713a4900e8" y="65.917221"/>
     <use style="fill:#1f77b4;stroke:#ffffff;stroke-width:0.75;" x="337.917369" xlink:href="#m713a4900e8" y="65.917221"/>
     <use style="fill:#1f77b4;stroke:#ffffff;stroke-width:0.75;" x="339.606807" xlink:href="#m713a4900e8" y="65.917221"/>
     <use style="fill:#1f77b4;stroke:#ffffff;stroke-width:0.75;" x="341.257404" xlink:href="#m713a4900e8" y="65.719088"/>
     <use style="fill:#1f77b4;stroke:#ffffff;stroke-width:0.75;" x="342.870906" xlink:href="#m713a4900e8" y="65.719088"/>
     <use style="fill:#1f77b4;stroke:#ffffff;stroke-width:0.75;" x="344.448944" xlink:href="#m713a4900e8" y="65.719088"/>
     <use style="fill:#1f77b4;stroke:#ffffff;stroke-width:0.75;" x="345.993042" xlink:href="#m713a4900e8" y="65.719088"/>
     <use style="fill:#1f77b4;stroke:#ffffff;stroke-width:0.75;" x="347.504631" xlink:href="#m713a4900e8" y="65.322823"/>
     <use style="fill:#1f77b4;stroke:#ffffff;stroke-width:0.75;" x="348.985051" xlink:href="#m713a4900e8" y="64.926557"/>
     <use style="fill:#1f77b4;stroke:#ffffff;stroke-width:0.75;" x="350.435561" xlink:href="#m713a4900e8" y="64.728425"/>
     <use style="fill:#1f77b4;stroke:#ffffff;stroke-width:0.75;" x="351.857347" xlink:href="#m713a4900e8" y="63.341496"/>
     <use style="fill:#1f77b4;stroke:#ffffff;stroke-width:0.75;" x="353.251523" xlink:href="#m713a4900e8" y="63.341496"/>
     <use style="fill:#1f77b4;stroke:#ffffff;stroke-width:0.75;" x="354.619142" xlink:href="#m713a4900e8" y="62.1527"/>
     <use style="fill:#1f77b4;stroke:#ffffff;stroke-width:0.75;" x="355.961196" xlink:href="#m713a4900e8" y="62.1527"/>
     <use style="fill:#1f77b4;stroke:#ffffff;stroke-width:0.75;" x="357.278624" xlink:href="#m713a4900e8" y="60.963904"/>
     <use style="fill:#1f77b4;stroke:#ffffff;stroke-width:0.75;" x="358.572313" xlink:href="#m713a4900e8" y="60.963904"/>
     <use style="fill:#1f77b4;stroke:#ffffff;stroke-width:0.75;" x="359.843104" xlink:href="#m713a4900e8" y="60.963904"/>
     <use style="fill:#1f77b4;stroke:#ffffff;stroke-width:0.75;" x="361.091794" xlink:href="#m713a4900e8" y="60.963904"/>
     <use style="fill:#1f77b4;stroke:#ffffff;stroke-width:0.75;" x="362.319136" xlink:href="#m713a4900e8" y="60.171373"/>
     <use style="fill:#1f77b4;stroke:#ffffff;stroke-width:0.75;" x="363.525851" xlink:href="#m713a4900e8" y="60.171373"/>
     <use style="fill:#1f77b4;stroke:#ffffff;stroke-width:0.75;" x="364.712619" xlink:href="#m713a4900e8" y="60.171373"/>
     <use style="fill:#1f77b4;stroke:#ffffff;stroke-width:0.75;" x="365.880089" xlink:href="#m713a4900e8" y="60.171373"/>
     <use style="fill:#1f77b4;stroke:#ffffff;stroke-width:0.75;" x="367.028878" xlink:href="#m713a4900e8" y="60.171373"/>
     <use style="fill:#1f77b4;stroke:#ffffff;stroke-width:0.75;" x="368.159576" xlink:href="#m713a4900e8" y="60.171373"/>
     <use style="fill:#1f77b4;stroke:#ffffff;stroke-width:0.75;" x="369.272743" xlink:href="#m713a4900e8" y="57.793781"/>
     <use style="fill:#1f77b4;stroke:#ffffff;stroke-width:0.75;" x="370.368914" xlink:href="#m713a4900e8" y="52.840464"/>
     <use style="fill:#1f77b4;stroke:#ffffff;stroke-width:0.75;" x="371.4486" xlink:href="#m713a4900e8" y="52.642331"/>
     <use style="fill:#1f77b4;stroke:#ffffff;stroke-width:0.75;" x="372.512291" xlink:href="#m713a4900e8" y="52.642331"/>
     <use style="fill:#1f77b4;stroke:#ffffff;stroke-width:0.75;" x="373.560453" xlink:href="#m713a4900e8" y="52.246066"/>
     <use style="fill:#1f77b4;stroke:#ffffff;stroke-width:0.75;" x="374.593533" xlink:href="#m713a4900e8" y="52.246066"/>
     <use style="fill:#1f77b4;stroke:#ffffff;stroke-width:0.75;" x="375.611959" xlink:href="#m713a4900e8" y="52.246066"/>
     <use style="fill:#1f77b4;stroke:#ffffff;stroke-width:0.75;" x="376.616141" xlink:href="#m713a4900e8" y="52.246066"/>
     <use style="fill:#1f77b4;stroke:#ffffff;stroke-width:0.75;" x="377.606471" xlink:href="#m713a4900e8" y="52.246066"/>
     <use style="fill:#1f77b4;stroke:#ffffff;stroke-width:0.75;" x="378.583327" xlink:href="#m713a4900e8" y="49.670341"/>
     <use style="fill:#1f77b4;stroke:#ffffff;stroke-width:0.75;" x="379.547071" xlink:href="#m713a4900e8" y="49.670341"/>
     <use style="fill:#1f77b4;stroke:#ffffff;stroke-width:0.75;" x="380.498049" xlink:href="#m713a4900e8" y="49.472209"/>
     <use style="fill:#1f77b4;stroke:#ffffff;stroke-width:0.75;" x="381.436596" xlink:href="#m713a4900e8" y="49.274076"/>
     <use style="fill:#1f77b4;stroke:#ffffff;stroke-width:0.75;" x="382.363032" xlink:href="#m713a4900e8" y="49.274076"/>
     <use style="fill:#1f77b4;stroke:#ffffff;stroke-width:0.75;" x="383.277666" xlink:href="#m713a4900e8" y="49.274076"/>
     <use style="fill:#1f77b4;stroke:#ffffff;stroke-width:0.75;" x="384.180795" xlink:href="#m713a4900e8" y="49.274076"/>
     <use style="fill:#1f77b4;stroke:#ffffff;stroke-width:0.75;" x="385.072705" xlink:href="#m713a4900e8" y="49.274076"/>
     <use style="fill:#1f77b4;stroke:#ffffff;stroke-width:0.75;" x="385.953671" xlink:href="#m713a4900e8" y="49.274076"/>
     <use style="fill:#1f77b4;stroke:#ffffff;stroke-width:0.75;" x="386.823958" xlink:href="#m713a4900e8" y="49.075943"/>
     <use style="fill:#1f77b4;stroke:#ffffff;stroke-width:0.75;" x="387.683823" xlink:href="#m713a4900e8" y="48.283412"/>
     <use style="fill:#1f77b4;stroke:#ffffff;stroke-width:0.75;" x="388.533511" xlink:href="#m713a4900e8" y="47.094616"/>
     <use style="fill:#1f77b4;stroke:#ffffff;stroke-width:0.75;" x="389.373261" xlink:href="#m713a4900e8" y="46.896484"/>
     <use style="fill:#1f77b4;stroke:#ffffff;stroke-width:0.75;" x="390.203303" xlink:href="#m713a4900e8" y="46.896484"/>
     <use style="fill:#1f77b4;stroke:#ffffff;stroke-width:0.75;" x="391.023858" xlink:href="#m713a4900e8" y="46.896484"/>
     <use style="fill:#1f77b4;stroke:#ffffff;stroke-width:0.75;" x="391.835142" xlink:href="#m713a4900e8" y="46.698351"/>
     <use style="fill:#1f77b4;stroke:#ffffff;stroke-width:0.75;" x="392.63736" xlink:href="#m713a4900e8" y="46.698351"/>
     <use style="fill:#1f77b4;stroke:#ffffff;stroke-width:0.75;" x="393.430714" xlink:href="#m713a4900e8" y="46.698351"/>
     <use style="fill:#1f77b4;stroke:#ffffff;stroke-width:0.75;" x="394.215398" xlink:href="#m713a4900e8" y="46.698351"/>
    </g>
   </g>
   <g id="line2d_31">
    <path clip-path="url(#pf11acac2b5)" d="M 69.560852 263.653634 
L 119.327306 251.765673 
L 148.438816 243.840366 
L 169.09376 239.085182 
L 185.11498 236.707589 
L 198.205269 235.518793 
L 209.272952 233.933732 
L 218.860214 232.34867 
L 227.316779 229.574813 
L 234.881434 227.989752 
L 241.724496 226.800955 
L 247.971723 225.215894 
L 253.718615 203.223167 
L 259.039406 106.336287 
L 263.992943 99.797909 
L 268.626668 99.797909 
L 272.979383 99.797909 
L 277.083233 99.797909 
L 280.965141 99.401643 
L 284.647888 90.485673 
L 288.150915 89.693142 
L 291.49095 89.693142 
L 294.68249 87.909948 
L 297.738177 87.513683 
L 300.669107 85.928621 
L 303.485069 85.730489 
L 306.194742 83.352896 
L 308.805859 81.767835 
L 311.32534 81.569702 
L 313.759397 81.569702 
L 316.113635 80.777172 
L 318.393122 80.777172 
L 320.60246 80.777172 
L 322.745837 80.777172 
L 324.827079 80.380906 
L 326.849687 80.380906 
L 328.816873 80.380906 
L 330.731595 79.588376 
L 332.596578 78.993978 
L 334.414342 78.993978 
L 336.187217 78.597712 
L 337.917369 77.607049 
L 339.606807 73.644395 
L 341.257404 73.24813 
L 342.870906 73.24813 
L 344.448944 73.24813 
L 345.993042 72.059334 
L 347.504631 71.663068 
L 348.985051 69.285476 
L 350.435561 66.907884 
L 351.857347 66.907884 
L 353.251523 66.907884 
L 354.619142 65.917221 
L 355.961196 65.917221 
L 357.278624 64.134027 
L 358.572313 63.737761 
L 359.843104 62.747098 
L 361.091794 62.350833 
L 362.319136 61.360169 
L 363.525851 61.360169 
L 364.712619 61.360169 
L 365.880089 60.567639 
L 367.028878 60.567639 
L 368.159576 60.567639 
L 369.272743 59.775108 
L 370.368914 56.803118 
L 371.4486 56.803118 
L 372.512291 56.803118 
L 373.560453 56.803118 
L 374.593533 54.821791 
L 375.611959 54.821791 
L 376.616141 54.821791 
L 377.606471 54.821791 
L 378.583327 54.821791 
L 379.547071 54.821791 
L 380.498049 54.821791 
L 381.436596 54.821791 
L 382.363032 54.821791 
L 383.277666 54.821791 
L 384.180795 54.821791 
L 385.072705 54.821791 
L 385.953671 54.821791 
L 386.823958 54.821791 
L 387.683823 53.236729 
L 388.533511 51.255403 
L 389.373261 51.255403 
L 390.203303 48.08528 
L 391.023858 47.689014 
L 391.835142 47.689014 
L 392.63736 47.689014 
L 393.430714 47.094616 
L 394.215398 47.094616 
" style="fill:none;stroke:#98df8a;stroke-linecap:square;stroke-width:1.5;"/>
    <defs>
     <path d="M -0 3 
L 3 -3 
L -3 -3 
z
" id="m48b6d8a1f5" style="stroke:#ffffff;stroke-linejoin:miter;stroke-width:0.75;"/>
    </defs>
    <g clip-path="url(#pf11acac2b5)">
     <use style="fill:#98df8a;stroke:#ffffff;stroke-linejoin:miter;stroke-width:0.75;" x="69.560852" xlink:href="#m48b6d8a1f5" y="263.653634"/>
     <use style="fill:#98df8a;stroke:#ffffff;stroke-linejoin:miter;stroke-width:0.75;" x="119.327306" xlink:href="#m48b6d8a1f5" y="251.765673"/>
     <use style="fill:#98df8a;stroke:#ffffff;stroke-linejoin:miter;stroke-width:0.75;" x="148.438816" xlink:href="#m48b6d8a1f5" y="243.840366"/>
     <use style="fill:#98df8a;stroke:#ffffff;stroke-linejoin:miter;stroke-width:0.75;" x="169.09376" xlink:href="#m48b6d8a1f5" y="239.085182"/>
     <use style="fill:#98df8a;stroke:#ffffff;stroke-linejoin:miter;stroke-width:0.75;" x="185.11498" xlink:href="#m48b6d8a1f5" y="236.707589"/>
     <use style="fill:#98df8a;stroke:#ffffff;stroke-linejoin:miter;stroke-width:0.75;" x="198.205269" xlink:href="#m48b6d8a1f5" y="235.518793"/>
     <use style="fill:#98df8a;stroke:#ffffff;stroke-linejoin:miter;stroke-width:0.75;" x="209.272952" xlink:href="#m48b6d8a1f5" y="233.933732"/>
     <use style="fill:#98df8a;stroke:#ffffff;stroke-linejoin:miter;stroke-width:0.75;" x="218.860214" xlink:href="#m48b6d8a1f5" y="232.34867"/>
     <use style="fill:#98df8a;stroke:#ffffff;stroke-linejoin:miter;stroke-width:0.75;" x="227.316779" xlink:href="#m48b6d8a1f5" y="229.574813"/>
     <use style="fill:#98df8a;stroke:#ffffff;stroke-linejoin:miter;stroke-width:0.75;" x="234.881434" xlink:href="#m48b6d8a1f5" y="227.989752"/>
     <use style="fill:#98df8a;stroke:#ffffff;stroke-linejoin:miter;stroke-width:0.75;" x="241.724496" xlink:href="#m48b6d8a1f5" y="226.800955"/>
     <use style="fill:#98df8a;stroke:#ffffff;stroke-linejoin:miter;stroke-width:0.75;" x="247.971723" xlink:href="#m48b6d8a1f5" y="225.215894"/>
     <use style="fill:#98df8a;stroke:#ffffff;stroke-linejoin:miter;stroke-width:0.75;" x="253.718615" xlink:href="#m48b6d8a1f5" y="203.223167"/>
     <use style="fill:#98df8a;stroke:#ffffff;stroke-linejoin:miter;stroke-width:0.75;" x="259.039406" xlink:href="#m48b6d8a1f5" y="106.336287"/>
     <use style="fill:#98df8a;stroke:#ffffff;stroke-linejoin:miter;stroke-width:0.75;" x="263.992943" xlink:href="#m48b6d8a1f5" y="99.797909"/>
     <use style="fill:#98df8a;stroke:#ffffff;stroke-linejoin:miter;stroke-width:0.75;" x="268.626668" xlink:href="#m48b6d8a1f5" y="99.797909"/>
     <use style="fill:#98df8a;stroke:#ffffff;stroke-linejoin:miter;stroke-width:0.75;" x="272.979383" xlink:href="#m48b6d8a1f5" y="99.797909"/>
     <use style="fill:#98df8a;stroke:#ffffff;stroke-linejoin:miter;stroke-width:0.75;" x="277.083233" xlink:href="#m48b6d8a1f5" y="99.797909"/>
     <use style="fill:#98df8a;stroke:#ffffff;stroke-linejoin:miter;stroke-width:0.75;" x="280.965141" xlink:href="#m48b6d8a1f5" y="99.401643"/>
     <use style="fill:#98df8a;stroke:#ffffff;stroke-linejoin:miter;stroke-width:0.75;" x="284.647888" xlink:href="#m48b6d8a1f5" y="90.485673"/>
     <use style="fill:#98df8a;stroke:#ffffff;stroke-linejoin:miter;stroke-width:0.75;" x="288.150915" xlink:href="#m48b6d8a1f5" y="89.693142"/>
     <use style="fill:#98df8a;stroke:#ffffff;stroke-linejoin:miter;stroke-width:0.75;" x="291.49095" xlink:href="#m48b6d8a1f5" y="89.693142"/>
     <use style="fill:#98df8a;stroke:#ffffff;stroke-linejoin:miter;stroke-width:0.75;" x="294.68249" xlink:href="#m48b6d8a1f5" y="87.909948"/>
     <use style="fill:#98df8a;stroke:#ffffff;stroke-linejoin:miter;stroke-width:0.75;" x="297.738177" xlink:href="#m48b6d8a1f5" y="87.513683"/>
     <use style="fill:#98df8a;stroke:#ffffff;stroke-linejoin:miter;stroke-width:0.75;" x="300.669107" xlink:href="#m48b6d8a1f5" y="85.928621"/>
     <use style="fill:#98df8a;stroke:#ffffff;stroke-linejoin:miter;stroke-width:0.75;" x="303.485069" xlink:href="#m48b6d8a1f5" y="85.730489"/>
     <use style="fill:#98df8a;stroke:#ffffff;stroke-linejoin:miter;stroke-width:0.75;" x="306.194742" xlink:href="#m48b6d8a1f5" y="83.352896"/>
     <use style="fill:#98df8a;stroke:#ffffff;stroke-linejoin:miter;stroke-width:0.75;" x="308.805859" xlink:href="#m48b6d8a1f5" y="81.767835"/>
     <use style="fill:#98df8a;stroke:#ffffff;stroke-linejoin:miter;stroke-width:0.75;" x="311.32534" xlink:href="#m48b6d8a1f5" y="81.569702"/>
     <use style="fill:#98df8a;stroke:#ffffff;stroke-linejoin:miter;stroke-width:0.75;" x="313.759397" xlink:href="#m48b6d8a1f5" y="81.569702"/>
     <use style="fill:#98df8a;stroke:#ffffff;stroke-linejoin:miter;stroke-width:0.75;" x="316.113635" xlink:href="#m48b6d8a1f5" y="80.777172"/>
     <use style="fill:#98df8a;stroke:#ffffff;stroke-linejoin:miter;stroke-width:0.75;" x="318.393122" xlink:href="#m48b6d8a1f5" y="80.777172"/>
     <use style="fill:#98df8a;stroke:#ffffff;stroke-linejoin:miter;stroke-width:0.75;" x="320.60246" xlink:href="#m48b6d8a1f5" y="80.777172"/>
     <use style="fill:#98df8a;stroke:#ffffff;stroke-linejoin:miter;stroke-width:0.75;" x="322.745837" xlink:href="#m48b6d8a1f5" y="80.777172"/>
     <use style="fill:#98df8a;stroke:#ffffff;stroke-linejoin:miter;stroke-width:0.75;" x="324.827079" xlink:href="#m48b6d8a1f5" y="80.380906"/>
     <use style="fill:#98df8a;stroke:#ffffff;stroke-linejoin:miter;stroke-width:0.75;" x="326.849687" xlink:href="#m48b6d8a1f5" y="80.380906"/>
     <use style="fill:#98df8a;stroke:#ffffff;stroke-linejoin:miter;stroke-width:0.75;" x="328.816873" xlink:href="#m48b6d8a1f5" y="80.380906"/>
     <use style="fill:#98df8a;stroke:#ffffff;stroke-linejoin:miter;stroke-width:0.75;" x="330.731595" xlink:href="#m48b6d8a1f5" y="79.588376"/>
     <use style="fill:#98df8a;stroke:#ffffff;stroke-linejoin:miter;stroke-width:0.75;" x="332.596578" xlink:href="#m48b6d8a1f5" y="78.993978"/>
     <use style="fill:#98df8a;stroke:#ffffff;stroke-linejoin:miter;stroke-width:0.75;" x="334.414342" xlink:href="#m48b6d8a1f5" y="78.993978"/>
     <use style="fill:#98df8a;stroke:#ffffff;stroke-linejoin:miter;stroke-width:0.75;" x="336.187217" xlink:href="#m48b6d8a1f5" y="78.597712"/>
     <use style="fill:#98df8a;stroke:#ffffff;stroke-linejoin:miter;stroke-width:0.75;" x="337.917369" xlink:href="#m48b6d8a1f5" y="77.607049"/>
     <use style="fill:#98df8a;stroke:#ffffff;stroke-linejoin:miter;stroke-width:0.75;" x="339.606807" xlink:href="#m48b6d8a1f5" y="73.644395"/>
     <use style="fill:#98df8a;stroke:#ffffff;stroke-linejoin:miter;stroke-width:0.75;" x="341.257404" xlink:href="#m48b6d8a1f5" y="73.24813"/>
     <use style="fill:#98df8a;stroke:#ffffff;stroke-linejoin:miter;stroke-width:0.75;" x="342.870906" xlink:href="#m48b6d8a1f5" y="73.24813"/>
     <use style="fill:#98df8a;stroke:#ffffff;stroke-linejoin:miter;stroke-width:0.75;" x="344.448944" xlink:href="#m48b6d8a1f5" y="73.24813"/>
     <use style="fill:#98df8a;stroke:#ffffff;stroke-linejoin:miter;stroke-width:0.75;" x="345.993042" xlink:href="#m48b6d8a1f5" y="72.059334"/>
     <use style="fill:#98df8a;stroke:#ffffff;stroke-linejoin:miter;stroke-width:0.75;" x="347.504631" xlink:href="#m48b6d8a1f5" y="71.663068"/>
     <use style="fill:#98df8a;stroke:#ffffff;stroke-linejoin:miter;stroke-width:0.75;" x="348.985051" xlink:href="#m48b6d8a1f5" y="69.285476"/>
     <use style="fill:#98df8a;stroke:#ffffff;stroke-linejoin:miter;stroke-width:0.75;" x="350.435561" xlink:href="#m48b6d8a1f5" y="66.907884"/>
     <use style="fill:#98df8a;stroke:#ffffff;stroke-linejoin:miter;stroke-width:0.75;" x="351.857347" xlink:href="#m48b6d8a1f5" y="66.907884"/>
     <use style="fill:#98df8a;stroke:#ffffff;stroke-linejoin:miter;stroke-width:0.75;" x="353.251523" xlink:href="#m48b6d8a1f5" y="66.907884"/>
     <use style="fill:#98df8a;stroke:#ffffff;stroke-linejoin:miter;stroke-width:0.75;" x="354.619142" xlink:href="#m48b6d8a1f5" y="65.917221"/>
     <use style="fill:#98df8a;stroke:#ffffff;stroke-linejoin:miter;stroke-width:0.75;" x="355.961196" xlink:href="#m48b6d8a1f5" y="65.917221"/>
     <use style="fill:#98df8a;stroke:#ffffff;stroke-linejoin:miter;stroke-width:0.75;" x="357.278624" xlink:href="#m48b6d8a1f5" y="64.134027"/>
     <use style="fill:#98df8a;stroke:#ffffff;stroke-linejoin:miter;stroke-width:0.75;" x="358.572313" xlink:href="#m48b6d8a1f5" y="63.737761"/>
     <use style="fill:#98df8a;stroke:#ffffff;stroke-linejoin:miter;stroke-width:0.75;" x="359.843104" xlink:href="#m48b6d8a1f5" y="62.747098"/>
     <use style="fill:#98df8a;stroke:#ffffff;stroke-linejoin:miter;stroke-width:0.75;" x="361.091794" xlink:href="#m48b6d8a1f5" y="62.350833"/>
     <use style="fill:#98df8a;stroke:#ffffff;stroke-linejoin:miter;stroke-width:0.75;" x="362.319136" xlink:href="#m48b6d8a1f5" y="61.360169"/>
     <use style="fill:#98df8a;stroke:#ffffff;stroke-linejoin:miter;stroke-width:0.75;" x="363.525851" xlink:href="#m48b6d8a1f5" y="61.360169"/>
     <use style="fill:#98df8a;stroke:#ffffff;stroke-linejoin:miter;stroke-width:0.75;" x="364.712619" xlink:href="#m48b6d8a1f5" y="61.360169"/>
     <use style="fill:#98df8a;stroke:#ffffff;stroke-linejoin:miter;stroke-width:0.75;" x="365.880089" xlink:href="#m48b6d8a1f5" y="60.567639"/>
     <use style="fill:#98df8a;stroke:#ffffff;stroke-linejoin:miter;stroke-width:0.75;" x="367.028878" xlink:href="#m48b6d8a1f5" y="60.567639"/>
     <use style="fill:#98df8a;stroke:#ffffff;stroke-linejoin:miter;stroke-width:0.75;" x="368.159576" xlink:href="#m48b6d8a1f5" y="60.567639"/>
     <use style="fill:#98df8a;stroke:#ffffff;stroke-linejoin:miter;stroke-width:0.75;" x="369.272743" xlink:href="#m48b6d8a1f5" y="59.775108"/>
     <use style="fill:#98df8a;stroke:#ffffff;stroke-linejoin:miter;stroke-width:0.75;" x="370.368914" xlink:href="#m48b6d8a1f5" y="56.803118"/>
     <use style="fill:#98df8a;stroke:#ffffff;stroke-linejoin:miter;stroke-width:0.75;" x="371.4486" xlink:href="#m48b6d8a1f5" y="56.803118"/>
     <use style="fill:#98df8a;stroke:#ffffff;stroke-linejoin:miter;stroke-width:0.75;" x="372.512291" xlink:href="#m48b6d8a1f5" y="56.803118"/>
     <use style="fill:#98df8a;stroke:#ffffff;stroke-linejoin:miter;stroke-width:0.75;" x="373.560453" xlink:href="#m48b6d8a1f5" y="56.803118"/>
     <use style="fill:#98df8a;stroke:#ffffff;stroke-linejoin:miter;stroke-width:0.75;" x="374.593533" xlink:href="#m48b6d8a1f5" y="54.821791"/>
     <use style="fill:#98df8a;stroke:#ffffff;stroke-linejoin:miter;stroke-width:0.75;" x="375.611959" xlink:href="#m48b6d8a1f5" y="54.821791"/>
     <use style="fill:#98df8a;stroke:#ffffff;stroke-linejoin:miter;stroke-width:0.75;" x="376.616141" xlink:href="#m48b6d8a1f5" y="54.821791"/>
     <use style="fill:#98df8a;stroke:#ffffff;stroke-linejoin:miter;stroke-width:0.75;" x="377.606471" xlink:href="#m48b6d8a1f5" y="54.821791"/>
     <use style="fill:#98df8a;stroke:#ffffff;stroke-linejoin:miter;stroke-width:0.75;" x="378.583327" xlink:href="#m48b6d8a1f5" y="54.821791"/>
     <use style="fill:#98df8a;stroke:#ffffff;stroke-linejoin:miter;stroke-width:0.75;" x="379.547071" xlink:href="#m48b6d8a1f5" y="54.821791"/>
     <use style="fill:#98df8a;stroke:#ffffff;stroke-linejoin:miter;stroke-width:0.75;" x="380.498049" xlink:href="#m48b6d8a1f5" y="54.821791"/>
     <use style="fill:#98df8a;stroke:#ffffff;stroke-linejoin:miter;stroke-width:0.75;" x="381.436596" xlink:href="#m48b6d8a1f5" y="54.821791"/>
     <use style="fill:#98df8a;stroke:#ffffff;stroke-linejoin:miter;stroke-width:0.75;" x="382.363032" xlink:href="#m48b6d8a1f5" y="54.821791"/>
     <use style="fill:#98df8a;stroke:#ffffff;stroke-linejoin:miter;stroke-width:0.75;" x="383.277666" xlink:href="#m48b6d8a1f5" y="54.821791"/>
     <use style="fill:#98df8a;stroke:#ffffff;stroke-linejoin:miter;stroke-width:0.75;" x="384.180795" xlink:href="#m48b6d8a1f5" y="54.821791"/>
     <use style="fill:#98df8a;stroke:#ffffff;stroke-linejoin:miter;stroke-width:0.75;" x="385.072705" xlink:href="#m48b6d8a1f5" y="54.821791"/>
     <use style="fill:#98df8a;stroke:#ffffff;stroke-linejoin:miter;stroke-width:0.75;" x="385.953671" xlink:href="#m48b6d8a1f5" y="54.821791"/>
     <use style="fill:#98df8a;stroke:#ffffff;stroke-linejoin:miter;stroke-width:0.75;" x="386.823958" xlink:href="#m48b6d8a1f5" y="54.821791"/>
     <use style="fill:#98df8a;stroke:#ffffff;stroke-linejoin:miter;stroke-width:0.75;" x="387.683823" xlink:href="#m48b6d8a1f5" y="53.236729"/>
     <use style="fill:#98df8a;stroke:#ffffff;stroke-linejoin:miter;stroke-width:0.75;" x="388.533511" xlink:href="#m48b6d8a1f5" y="51.255403"/>
     <use style="fill:#98df8a;stroke:#ffffff;stroke-linejoin:miter;stroke-width:0.75;" x="389.373261" xlink:href="#m48b6d8a1f5" y="51.255403"/>
     <use style="fill:#98df8a;stroke:#ffffff;stroke-linejoin:miter;stroke-width:0.75;" x="390.203303" xlink:href="#m48b6d8a1f5" y="48.08528"/>
     <use style="fill:#98df8a;stroke:#ffffff;stroke-linejoin:miter;stroke-width:0.75;" x="391.023858" xlink:href="#m48b6d8a1f5" y="47.689014"/>
     <use style="fill:#98df8a;stroke:#ffffff;stroke-linejoin:miter;stroke-width:0.75;" x="391.835142" xlink:href="#m48b6d8a1f5" y="47.689014"/>
     <use style="fill:#98df8a;stroke:#ffffff;stroke-linejoin:miter;stroke-width:0.75;" x="392.63736" xlink:href="#m48b6d8a1f5" y="47.689014"/>
     <use style="fill:#98df8a;stroke:#ffffff;stroke-linejoin:miter;stroke-width:0.75;" x="393.430714" xlink:href="#m48b6d8a1f5" y="47.094616"/>
     <use style="fill:#98df8a;stroke:#ffffff;stroke-linejoin:miter;stroke-width:0.75;" x="394.215398" xlink:href="#m48b6d8a1f5" y="47.094616"/>
    </g>
   </g>
   <g id="line2d_32">
    <path clip-path="url(#pf11acac2b5)" d="M 69.560852 265.238695 
L 119.327306 250.973142 
L 148.438816 244.236631 
L 169.09376 238.490783 
L 185.11498 235.122528 
L 198.205269 233.339334 
L 209.272952 232.34867 
L 218.860214 230.169211 
L 227.316779 229.178548 
L 234.881434 226.40469 
L 241.724496 225.612159 
L 247.971723 207.582086 
L 253.718615 207.383953 
L 259.039406 201.439973 
L 263.992943 185.787491 
L 268.626668 182.617368 
L 272.979383 179.05098 
L 277.083233 167.95555 
L 280.965141 166.964887 
L 284.647888 110.100808 
L 288.150915 107.921349 
L 291.49095 106.53442 
L 294.68249 106.53442 
L 297.738177 106.138154 
L 300.669107 106.138154 
L 303.485069 104.35496 
L 306.194742 99.401643 
L 308.805859 95.835255 
L 311.32534 95.637123 
L 313.759397 91.080071 
L 316.113635 89.296877 
L 318.393122 89.296877 
L 320.60246 88.504346 
L 322.745837 86.126754 
L 324.827079 84.937958 
L 326.849687 84.937958 
L 328.816873 84.937958 
L 330.731595 83.947295 
L 332.596578 83.352896 
L 334.414342 82.956631 
L 336.187217 82.956631 
L 337.917369 82.758498 
L 339.606807 82.758498 
L 341.257404 82.758498 
L 342.870906 82.758498 
L 344.448944 82.560366 
L 345.993042 82.560366 
L 347.504631 82.560366 
L 348.985051 81.173437 
L 350.435561 80.182774 
L 351.857347 79.984641 
L 353.251523 79.19211 
L 354.619142 79.19211 
L 355.961196 79.19211 
L 357.278624 79.19211 
L 358.572313 78.993978 
L 359.843104 78.795845 
L 361.091794 78.795845 
L 362.319136 77.408916 
L 363.525851 76.418253 
L 364.712619 73.842528 
L 365.880089 73.842528 
L 367.028878 73.842528 
L 368.159576 73.842528 
L 369.272743 73.842528 
L 370.368914 71.06867 
L 371.4486 70.870538 
L 372.512291 70.870538 
L 373.560453 70.870538 
L 374.593533 70.870538 
L 375.611959 67.700415 
L 376.616141 67.700415 
L 377.606471 67.700415 
L 378.583327 67.700415 
L 379.547071 67.502282 
L 380.498049 67.502282 
L 381.436596 62.1527 
L 382.363032 61.954567 
L 383.277666 61.360169 
L 384.180795 61.162037 
L 385.072705 61.162037 
L 385.953671 61.162037 
L 386.823958 61.162037 
L 387.683823 61.162037 
L 388.533511 61.162037 
L 389.373261 61.162037 
L 390.203303 61.162037 
L 391.023858 59.775108 
L 391.835142 59.775108 
L 392.63736 58.586312 
L 393.430714 58.586312 
L 394.215398 58.586312 
" style="fill:none;stroke:#d62728;stroke-linecap:square;stroke-width:1.5;"/>
    <defs>
     <path d="M 0 -3 
L -3 3 
L 3 3 
z
" id="mc58ec32df3" style="stroke:#ffffff;stroke-linejoin:miter;stroke-width:0.75;"/>
    </defs>
    <g clip-path="url(#pf11acac2b5)">
     <use style="fill:#d62728;stroke:#ffffff;stroke-linejoin:miter;stroke-width:0.75;" x="69.560852" xlink:href="#mc58ec32df3" y="265.238695"/>
     <use style="fill:#d62728;stroke:#ffffff;stroke-linejoin:miter;stroke-width:0.75;" x="119.327306" xlink:href="#mc58ec32df3" y="250.973142"/>
     <use style="fill:#d62728;stroke:#ffffff;stroke-linejoin:miter;stroke-width:0.75;" x="148.438816" xlink:href="#mc58ec32df3" y="244.236631"/>
     <use style="fill:#d62728;stroke:#ffffff;stroke-linejoin:miter;stroke-width:0.75;" x="169.09376" xlink:href="#mc58ec32df3" y="238.490783"/>
     <use style="fill:#d62728;stroke:#ffffff;stroke-linejoin:miter;stroke-width:0.75;" x="185.11498" xlink:href="#mc58ec32df3" y="235.122528"/>
     <use style="fill:#d62728;stroke:#ffffff;stroke-linejoin:miter;stroke-width:0.75;" x="198.205269" xlink:href="#mc58ec32df3" y="233.339334"/>
     <use style="fill:#d62728;stroke:#ffffff;stroke-linejoin:miter;stroke-width:0.75;" x="209.272952" xlink:href="#mc58ec32df3" y="232.34867"/>
     <use style="fill:#d62728;stroke:#ffffff;stroke-linejoin:miter;stroke-width:0.75;" x="218.860214" xlink:href="#mc58ec32df3" y="230.169211"/>
     <use style="fill:#d62728;stroke:#ffffff;stroke-linejoin:miter;stroke-width:0.75;" x="227.316779" xlink:href="#mc58ec32df3" y="229.178548"/>
     <use style="fill:#d62728;stroke:#ffffff;stroke-linejoin:miter;stroke-width:0.75;" x="234.881434" xlink:href="#mc58ec32df3" y="226.40469"/>
     <use style="fill:#d62728;stroke:#ffffff;stroke-linejoin:miter;stroke-width:0.75;" x="241.724496" xlink:href="#mc58ec32df3" y="225.612159"/>
     <use style="fill:#d62728;stroke:#ffffff;stroke-linejoin:miter;stroke-width:0.75;" x="247.971723" xlink:href="#mc58ec32df3" y="207.582086"/>
     <use style="fill:#d62728;stroke:#ffffff;stroke-linejoin:miter;stroke-width:0.75;" x="253.718615" xlink:href="#mc58ec32df3" y="207.383953"/>
     <use style="fill:#d62728;stroke:#ffffff;stroke-linejoin:miter;stroke-width:0.75;" x="259.039406" xlink:href="#mc58ec32df3" y="201.439973"/>
     <use style="fill:#d62728;stroke:#ffffff;stroke-linejoin:miter;stroke-width:0.75;" x="263.992943" xlink:href="#mc58ec32df3" y="185.787491"/>
     <use style="fill:#d62728;stroke:#ffffff;stroke-linejoin:miter;stroke-width:0.75;" x="268.626668" xlink:href="#mc58ec32df3" y="182.617368"/>
     <use style="fill:#d62728;stroke:#ffffff;stroke-linejoin:miter;stroke-width:0.75;" x="272.979383" xlink:href="#mc58ec32df3" y="179.05098"/>
     <use style="fill:#d62728;stroke:#ffffff;stroke-linejoin:miter;stroke-width:0.75;" x="277.083233" xlink:href="#mc58ec32df3" y="167.95555"/>
     <use style="fill:#d62728;stroke:#ffffff;stroke-linejoin:miter;stroke-width:0.75;" x="280.965141" xlink:href="#mc58ec32df3" y="166.964887"/>
     <use style="fill:#d62728;stroke:#ffffff;stroke-linejoin:miter;stroke-width:0.75;" x="284.647888" xlink:href="#mc58ec32df3" y="110.100808"/>
     <use style="fill:#d62728;stroke:#ffffff;stroke-linejoin:miter;stroke-width:0.75;" x="288.150915" xlink:href="#mc58ec32df3" y="107.921349"/>
     <use style="fill:#d62728;stroke:#ffffff;stroke-linejoin:miter;stroke-width:0.75;" x="291.49095" xlink:href="#mc58ec32df3" y="106.53442"/>
     <use style="fill:#d62728;stroke:#ffffff;stroke-linejoin:miter;stroke-width:0.75;" x="294.68249" xlink:href="#mc58ec32df3" y="106.53442"/>
     <use style="fill:#d62728;stroke:#ffffff;stroke-linejoin:miter;stroke-width:0.75;" x="297.738177" xlink:href="#mc58ec32df3" y="106.138154"/>
     <use style="fill:#d62728;stroke:#ffffff;stroke-linejoin:miter;stroke-width:0.75;" x="300.669107" xlink:href="#mc58ec32df3" y="106.138154"/>
     <use style="fill:#d62728;stroke:#ffffff;stroke-linejoin:miter;stroke-width:0.75;" x="303.485069" xlink:href="#mc58ec32df3" y="104.35496"/>
     <use style="fill:#d62728;stroke:#ffffff;stroke-linejoin:miter;stroke-width:0.75;" x="306.194742" xlink:href="#mc58ec32df3" y="99.401643"/>
     <use style="fill:#d62728;stroke:#ffffff;stroke-linejoin:miter;stroke-width:0.75;" x="308.805859" xlink:href="#mc58ec32df3" y="95.835255"/>
     <use style="fill:#d62728;stroke:#ffffff;stroke-linejoin:miter;stroke-width:0.75;" x="311.32534" xlink:href="#mc58ec32df3" y="95.637123"/>
     <use style="fill:#d62728;stroke:#ffffff;stroke-linejoin:miter;stroke-width:0.75;" x="313.759397" xlink:href="#mc58ec32df3" y="91.080071"/>
     <use style="fill:#d62728;stroke:#ffffff;stroke-linejoin:miter;stroke-width:0.75;" x="316.113635" xlink:href="#mc58ec32df3" y="89.296877"/>
     <use style="fill:#d62728;stroke:#ffffff;stroke-linejoin:miter;stroke-width:0.75;" x="318.393122" xlink:href="#mc58ec32df3" y="89.296877"/>
     <use style="fill:#d62728;stroke:#ffffff;stroke-linejoin:miter;stroke-width:0.75;" x="320.60246" xlink:href="#mc58ec32df3" y="88.504346"/>
     <use style="fill:#d62728;stroke:#ffffff;stroke-linejoin:miter;stroke-width:0.75;" x="322.745837" xlink:href="#mc58ec32df3" y="86.126754"/>
     <use style="fill:#d62728;stroke:#ffffff;stroke-linejoin:miter;stroke-width:0.75;" x="324.827079" xlink:href="#mc58ec32df3" y="84.937958"/>
     <use style="fill:#d62728;stroke:#ffffff;stroke-linejoin:miter;stroke-width:0.75;" x="326.849687" xlink:href="#mc58ec32df3" y="84.937958"/>
     <use style="fill:#d62728;stroke:#ffffff;stroke-linejoin:miter;stroke-width:0.75;" x="328.816873" xlink:href="#mc58ec32df3" y="84.937958"/>
     <use style="fill:#d62728;stroke:#ffffff;stroke-linejoin:miter;stroke-width:0.75;" x="330.731595" xlink:href="#mc58ec32df3" y="83.947295"/>
     <use style="fill:#d62728;stroke:#ffffff;stroke-linejoin:miter;stroke-width:0.75;" x="332.596578" xlink:href="#mc58ec32df3" y="83.352896"/>
     <use style="fill:#d62728;stroke:#ffffff;stroke-linejoin:miter;stroke-width:0.75;" x="334.414342" xlink:href="#mc58ec32df3" y="82.956631"/>
     <use style="fill:#d62728;stroke:#ffffff;stroke-linejoin:miter;stroke-width:0.75;" x="336.187217" xlink:href="#mc58ec32df3" y="82.956631"/>
     <use style="fill:#d62728;stroke:#ffffff;stroke-linejoin:miter;stroke-width:0.75;" x="337.917369" xlink:href="#mc58ec32df3" y="82.758498"/>
     <use style="fill:#d62728;stroke:#ffffff;stroke-linejoin:miter;stroke-width:0.75;" x="339.606807" xlink:href="#mc58ec32df3" y="82.758498"/>
     <use style="fill:#d62728;stroke:#ffffff;stroke-linejoin:miter;stroke-width:0.75;" x="341.257404" xlink:href="#mc58ec32df3" y="82.758498"/>
     <use style="fill:#d62728;stroke:#ffffff;stroke-linejoin:miter;stroke-width:0.75;" x="342.870906" xlink:href="#mc58ec32df3" y="82.758498"/>
     <use style="fill:#d62728;stroke:#ffffff;stroke-linejoin:miter;stroke-width:0.75;" x="344.448944" xlink:href="#mc58ec32df3" y="82.560366"/>
     <use style="fill:#d62728;stroke:#ffffff;stroke-linejoin:miter;stroke-width:0.75;" x="345.993042" xlink:href="#mc58ec32df3" y="82.560366"/>
     <use style="fill:#d62728;stroke:#ffffff;stroke-linejoin:miter;stroke-width:0.75;" x="347.504631" xlink:href="#mc58ec32df3" y="82.560366"/>
     <use style="fill:#d62728;stroke:#ffffff;stroke-linejoin:miter;stroke-width:0.75;" x="348.985051" xlink:href="#mc58ec32df3" y="81.173437"/>
     <use style="fill:#d62728;stroke:#ffffff;stroke-linejoin:miter;stroke-width:0.75;" x="350.435561" xlink:href="#mc58ec32df3" y="80.182774"/>
     <use style="fill:#d62728;stroke:#ffffff;stroke-linejoin:miter;stroke-width:0.75;" x="351.857347" xlink:href="#mc58ec32df3" y="79.984641"/>
     <use style="fill:#d62728;stroke:#ffffff;stroke-linejoin:miter;stroke-width:0.75;" x="353.251523" xlink:href="#mc58ec32df3" y="79.19211"/>
     <use style="fill:#d62728;stroke:#ffffff;stroke-linejoin:miter;stroke-width:0.75;" x="354.619142" xlink:href="#mc58ec32df3" y="79.19211"/>
     <use style="fill:#d62728;stroke:#ffffff;stroke-linejoin:miter;stroke-width:0.75;" x="355.961196" xlink:href="#mc58ec32df3" y="79.19211"/>
     <use style="fill:#d62728;stroke:#ffffff;stroke-linejoin:miter;stroke-width:0.75;" x="357.278624" xlink:href="#mc58ec32df3" y="79.19211"/>
     <use style="fill:#d62728;stroke:#ffffff;stroke-linejoin:miter;stroke-width:0.75;" x="358.572313" xlink:href="#mc58ec32df3" y="78.993978"/>
     <use style="fill:#d62728;stroke:#ffffff;stroke-linejoin:miter;stroke-width:0.75;" x="359.843104" xlink:href="#mc58ec32df3" y="78.795845"/>
     <use style="fill:#d62728;stroke:#ffffff;stroke-linejoin:miter;stroke-width:0.75;" x="361.091794" xlink:href="#mc58ec32df3" y="78.795845"/>
     <use style="fill:#d62728;stroke:#ffffff;stroke-linejoin:miter;stroke-width:0.75;" x="362.319136" xlink:href="#mc58ec32df3" y="77.408916"/>
     <use style="fill:#d62728;stroke:#ffffff;stroke-linejoin:miter;stroke-width:0.75;" x="363.525851" xlink:href="#mc58ec32df3" y="76.418253"/>
     <use style="fill:#d62728;stroke:#ffffff;stroke-linejoin:miter;stroke-width:0.75;" x="364.712619" xlink:href="#mc58ec32df3" y="73.842528"/>
     <use style="fill:#d62728;stroke:#ffffff;stroke-linejoin:miter;stroke-width:0.75;" x="365.880089" xlink:href="#mc58ec32df3" y="73.842528"/>
     <use style="fill:#d62728;stroke:#ffffff;stroke-linejoin:miter;stroke-width:0.75;" x="367.028878" xlink:href="#mc58ec32df3" y="73.842528"/>
     <use style="fill:#d62728;stroke:#ffffff;stroke-linejoin:miter;stroke-width:0.75;" x="368.159576" xlink:href="#mc58ec32df3" y="73.842528"/>
     <use style="fill:#d62728;stroke:#ffffff;stroke-linejoin:miter;stroke-width:0.75;" x="369.272743" xlink:href="#mc58ec32df3" y="73.842528"/>
     <use style="fill:#d62728;stroke:#ffffff;stroke-linejoin:miter;stroke-width:0.75;" x="370.368914" xlink:href="#mc58ec32df3" y="71.06867"/>
     <use style="fill:#d62728;stroke:#ffffff;stroke-linejoin:miter;stroke-width:0.75;" x="371.4486" xlink:href="#mc58ec32df3" y="70.870538"/>
     <use style="fill:#d62728;stroke:#ffffff;stroke-linejoin:miter;stroke-width:0.75;" x="372.512291" xlink:href="#mc58ec32df3" y="70.870538"/>
     <use style="fill:#d62728;stroke:#ffffff;stroke-linejoin:miter;stroke-width:0.75;" x="373.560453" xlink:href="#mc58ec32df3" y="70.870538"/>
     <use style="fill:#d62728;stroke:#ffffff;stroke-linejoin:miter;stroke-width:0.75;" x="374.593533" xlink:href="#mc58ec32df3" y="70.870538"/>
     <use style="fill:#d62728;stroke:#ffffff;stroke-linejoin:miter;stroke-width:0.75;" x="375.611959" xlink:href="#mc58ec32df3" y="67.700415"/>
     <use style="fill:#d62728;stroke:#ffffff;stroke-linejoin:miter;stroke-width:0.75;" x="376.616141" xlink:href="#mc58ec32df3" y="67.700415"/>
     <use style="fill:#d62728;stroke:#ffffff;stroke-linejoin:miter;stroke-width:0.75;" x="377.606471" xlink:href="#mc58ec32df3" y="67.700415"/>
     <use style="fill:#d62728;stroke:#ffffff;stroke-linejoin:miter;stroke-width:0.75;" x="378.583327" xlink:href="#mc58ec32df3" y="67.700415"/>
     <use style="fill:#d62728;stroke:#ffffff;stroke-linejoin:miter;stroke-width:0.75;" x="379.547071" xlink:href="#mc58ec32df3" y="67.502282"/>
     <use style="fill:#d62728;stroke:#ffffff;stroke-linejoin:miter;stroke-width:0.75;" x="380.498049" xlink:href="#mc58ec32df3" y="67.502282"/>
     <use style="fill:#d62728;stroke:#ffffff;stroke-linejoin:miter;stroke-width:0.75;" x="381.436596" xlink:href="#mc58ec32df3" y="62.1527"/>
     <use style="fill:#d62728;stroke:#ffffff;stroke-linejoin:miter;stroke-width:0.75;" x="382.363032" xlink:href="#mc58ec32df3" y="61.954567"/>
     <use style="fill:#d62728;stroke:#ffffff;stroke-linejoin:miter;stroke-width:0.75;" x="383.277666" xlink:href="#mc58ec32df3" y="61.360169"/>
     <use style="fill:#d62728;stroke:#ffffff;stroke-linejoin:miter;stroke-width:0.75;" x="384.180795" xlink:href="#mc58ec32df3" y="61.162037"/>
     <use style="fill:#d62728;stroke:#ffffff;stroke-linejoin:miter;stroke-width:0.75;" x="385.072705" xlink:href="#mc58ec32df3" y="61.162037"/>
     <use style="fill:#d62728;stroke:#ffffff;stroke-linejoin:miter;stroke-width:0.75;" x="385.953671" xlink:href="#mc58ec32df3" y="61.162037"/>
     <use style="fill:#d62728;stroke:#ffffff;stroke-linejoin:miter;stroke-width:0.75;" x="386.823958" xlink:href="#mc58ec32df3" y="61.162037"/>
     <use style="fill:#d62728;stroke:#ffffff;stroke-linejoin:miter;stroke-width:0.75;" x="387.683823" xlink:href="#mc58ec32df3" y="61.162037"/>
     <use style="fill:#d62728;stroke:#ffffff;stroke-linejoin:miter;stroke-width:0.75;" x="388.533511" xlink:href="#mc58ec32df3" y="61.162037"/>
     <use style="fill:#d62728;stroke:#ffffff;stroke-linejoin:miter;stroke-width:0.75;" x="389.373261" xlink:href="#mc58ec32df3" y="61.162037"/>
     <use style="fill:#d62728;stroke:#ffffff;stroke-linejoin:miter;stroke-width:0.75;" x="390.203303" xlink:href="#mc58ec32df3" y="61.162037"/>
     <use style="fill:#d62728;stroke:#ffffff;stroke-linejoin:miter;stroke-width:0.75;" x="391.023858" xlink:href="#mc58ec32df3" y="59.775108"/>
     <use style="fill:#d62728;stroke:#ffffff;stroke-linejoin:miter;stroke-width:0.75;" x="391.835142" xlink:href="#mc58ec32df3" y="59.775108"/>
     <use style="fill:#d62728;stroke:#ffffff;stroke-linejoin:miter;stroke-width:0.75;" x="392.63736" xlink:href="#mc58ec32df3" y="58.586312"/>
     <use style="fill:#d62728;stroke:#ffffff;stroke-linejoin:miter;stroke-width:0.75;" x="393.430714" xlink:href="#mc58ec32df3" y="58.586312"/>
     <use style="fill:#d62728;stroke:#ffffff;stroke-linejoin:miter;stroke-width:0.75;" x="394.215398" xlink:href="#mc58ec32df3" y="58.586312"/>
    </g>
   </g>
   <g id="line2d_33"/>
   <g id="line2d_34"/>
   <g id="line2d_35"/>
   <g id="patch_3">
    <path d="M 53.328125 250.973142 
L 53.328125 52.840464 
" style="fill:none;stroke:#000000;stroke-linecap:square;stroke-linejoin:miter;stroke-width:0.8;"/>
   </g>
   <g id="patch_4">
    <path d="M 69.560852 288.430125 
L 394.216265 288.430125 
" style="fill:none;stroke:#000000;stroke-linecap:square;stroke-linejoin:miter;stroke-width:0.8;"/>
   </g>
   <g id="text_15">
    <!-- file_magic_fuzzer (23h, 20 trials/fuzzer) -->
    <g transform="translate(113.353438 16.318125)scale(0.12 -0.12)">
     <defs>
      <path d="M 2375 4863 
L 2375 4384 
L 1825 4384 
Q 1516 4384 1395 4259 
Q 1275 4134 1275 3809 
L 1275 3500 
L 2222 3500 
L 2222 3053 
L 1275 3053 
L 1275 0 
L 697 0 
L 697 3053 
L 147 3053 
L 147 3500 
L 697 3500 
L 697 3744 
Q 697 4328 969 4595 
Q 1241 4863 1831 4863 
L 2375 4863 
z
" id="DejaVuSans-66" transform="scale(0.015625)"/>
      <path d="M 603 4863 
L 1178 4863 
L 1178 0 
L 603 0 
L 603 4863 
z
" id="DejaVuSans-6c" transform="scale(0.015625)"/>
      <path d="M 3263 -1063 
L 3263 -1509 
L -63 -1509 
L -63 -1063 
L 3263 -1063 
z
" id="DejaVuSans-5f" transform="scale(0.015625)"/>
      <path d="M 353 3500 
L 3084 3500 
L 3084 2975 
L 922 459 
L 3084 459 
L 3084 0 
L 275 0 
L 275 525 
L 2438 3041 
L 353 3041 
L 353 3500 
z
" id="DejaVuSans-7a" transform="scale(0.015625)"/>
      <path d="M 750 794 
L 1409 794 
L 1409 256 
L 897 -744 
L 494 -744 
L 750 256 
L 750 794 
z
" id="DejaVuSans-2c" transform="scale(0.015625)"/>
      <path d="M 2834 3397 
L 2834 2853 
Q 2591 2978 2328 3040 
Q 2066 3103 1784 3103 
Q 1356 3103 1142 2972 
Q 928 2841 928 2578 
Q 928 2378 1081 2264 
Q 1234 2150 1697 2047 
L 1894 2003 
Q 2506 1872 2764 1633 
Q 3022 1394 3022 966 
Q 3022 478 2636 193 
Q 2250 -91 1575 -91 
Q 1294 -91 989 -36 
Q 684 19 347 128 
L 347 722 
Q 666 556 975 473 
Q 1284 391 1588 391 
Q 1994 391 2212 530 
Q 2431 669 2431 922 
Q 2431 1156 2273 1281 
Q 2116 1406 1581 1522 
L 1381 1569 
Q 847 1681 609 1914 
Q 372 2147 372 2553 
Q 372 3047 722 3315 
Q 1072 3584 1716 3584 
Q 2034 3584 2315 3537 
Q 2597 3491 2834 3397 
z
" id="DejaVuSans-73" transform="scale(0.015625)"/>
      <path d="M 1625 4666 
L 2156 4666 
L 531 -594 
L 0 -594 
L 1625 4666 
z
" id="DejaVuSans-2f" transform="scale(0.015625)"/>
     </defs>
     <use xlink:href="#DejaVuSans-66"/>
     <use x="35.205078" xlink:href="#DejaVuSans-69"/>
     <use x="62.988281" xlink:href="#DejaVuSans-6c"/>
     <use x="90.771484" xlink:href="#DejaVuSans-65"/>
     <use x="152.294922" xlink:href="#DejaVuSans-5f"/>
     <use x="202.294922" xlink:href="#DejaVuSans-6d"/>
     <use x="299.707031" xlink:href="#DejaVuSans-61"/>
     <use x="360.986328" xlink:href="#DejaVuSans-67"/>
     <use x="424.462891" xlink:href="#DejaVuSans-69"/>
     <use x="452.246094" xlink:href="#DejaVuSans-63"/>
     <use x="507.226562" xlink:href="#DejaVuSans-5f"/>
     <use x="557.226562" xlink:href="#DejaVuSans-66"/>
     <use x="592.431641" xlink:href="#DejaVuSans-75"/>
     <use x="655.810547" xlink:href="#DejaVuSans-7a"/>
     <use x="708.300781" xlink:href="#DejaVuSans-7a"/>
     <use x="760.791016" xlink:href="#DejaVuSans-65"/>
     <use x="822.314453" xlink:href="#DejaVuSans-72"/>
     <use x="863.427734" xlink:href="#DejaVuSans-20"/>
     <use x="895.214844" xlink:href="#DejaVuSans-28"/>
     <use x="934.228516" xlink:href="#DejaVuSans-32"/>
     <use x="997.851562" xlink:href="#DejaVuSans-33"/>
     <use x="1061.474609" xlink:href="#DejaVuSans-68"/>
     <use x="1124.853516" xlink:href="#DejaVuSans-2c"/>
     <use x="1156.640625" xlink:href="#DejaVuSans-20"/>
     <use x="1188.427734" xlink:href="#DejaVuSans-32"/>
     <use x="1252.050781" xlink:href="#DejaVuSans-30"/>
     <use x="1315.673828" xlink:href="#DejaVuSans-20"/>
     <use x="1347.460938" xlink:href="#DejaVuSans-74"/>
     <use x="1386.669922" xlink:href="#DejaVuSans-72"/>
     <use x="1427.783203" xlink:href="#DejaVuSans-69"/>
     <use x="1455.566406" xlink:href="#DejaVuSans-61"/>
     <use x="1516.845703" xlink:href="#DejaVuSans-6c"/>
     <use x="1544.628906" xlink:href="#DejaVuSans-73"/>
     <use x="1596.728516" xlink:href="#DejaVuSans-2f"/>
     <use x="1630.419922" xlink:href="#DejaVuSans-66"/>
     <use x="1665.625" xlink:href="#DejaVuSans-75"/>
     <use x="1729.003906" xlink:href="#DejaVuSans-7a"/>
     <use x="1781.494141" xlink:href="#DejaVuSans-7a"/>
     <use x="1833.984375" xlink:href="#DejaVuSans-65"/>
     <use x="1895.507812" xlink:href="#DejaVuSans-72"/>
     <use x="1936.621094" xlink:href="#DejaVuSans-29"/>
    </g>
   </g>
   <g id="legend_1">
    <g id="line2d_36">
     <path d="M 414.448125 30.416562 
L 434.448125 30.416562 
" style="fill:none;stroke:#1f77b4;stroke-linecap:square;stroke-width:1.5;"/>
    </g>
    <g id="line2d_37">
     <defs>
      <path d="M 0 3 
C 0.795609 3 1.55874 2.683901 2.12132 2.12132 
C 2.683901 1.55874 3 0.795609 3 0 
C 3 -0.795609 2.683901 -1.55874 2.12132 -2.12132 
C 1.55874 -2.683901 0.795609 -3 0 -3 
C -0.795609 -3 -1.55874 -2.683901 -2.12132 -2.12132 
C -2.683901 -1.55874 -3 -0.795609 -3 0 
C -3 0.795609 -2.683901 1.55874 -2.12132 2.12132 
C -1.55874 2.683901 -0.795609 3 0 3 
z
" id="m462946ffbc" style="stroke:#1f77b4;"/>
     </defs>
     <g>
      <use style="fill:#1f77b4;stroke:#1f77b4;" x="424.448125" xlink:href="#m462946ffbc" y="30.416562"/>
     </g>
    </g>
    <g id="text_16">
     <!-- afl -->
     <g transform="translate(442.448125 33.916562)scale(0.1 -0.1)">
      <use xlink:href="#DejaVuSans-61"/>
      <use x="61.279297" xlink:href="#DejaVuSans-66"/>
      <use x="96.484375" xlink:href="#DejaVuSans-6c"/>
     </g>
    </g>
    <g id="line2d_38">
     <path d="M 414.448125 45.094688 
L 434.448125 45.094688 
" style="fill:none;stroke:#98df8a;stroke-linecap:square;stroke-width:1.5;"/>
    </g>
    <g id="line2d_39">
     <defs>
      <path d="M -0 3 
L 3 -3 
L -3 -3 
z
" id="m37d57945f1" style="stroke:#98df8a;stroke-linejoin:miter;"/>
     </defs>
     <g>
      <use style="fill:#98df8a;stroke:#98df8a;stroke-linejoin:miter;" x="424.448125" xlink:href="#m37d57945f1" y="45.094688"/>
     </g>
    </g>
    <g id="text_17">
     <!-- afl_scheduling_lifo -->
     <g transform="translate(442.448125 48.594688)scale(0.1 -0.1)">
      <use xlink:href="#DejaVuSans-61"/>
      <use x="61.279297" xlink:href="#DejaVuSans-66"/>
      <use x="96.484375" xlink:href="#DejaVuSans-6c"/>
      <use x="124.267578" xlink:href="#DejaVuSans-5f"/>
      <use x="174.267578" xlink:href="#DejaVuSans-73"/>
      <use x="226.367188" xlink:href="#DejaVuSans-63"/>
      <use x="281.347656" xlink:href="#DejaVuSans-68"/>
      <use x="344.726562" xlink:href="#DejaVuSans-65"/>
      <use x="406.25" xlink:href="#DejaVuSans-64"/>
      <use x="469.726562" xlink:href="#DejaVuSans-75"/>
      <use x="533.105469" xlink:href="#DejaVuSans-6c"/>
      <use x="560.888672" xlink:href="#DejaVuSans-69"/>
      <use x="588.671875" xlink:href="#DejaVuSans-6e"/>
      <use x="652.050781" xlink:href="#DejaVuSans-67"/>
      <use x="715.527344" xlink:href="#DejaVuSans-5f"/>
      <use x="765.527344" xlink:href="#DejaVuSans-6c"/>
      <use x="793.310547" xlink:href="#DejaVuSans-69"/>
      <use x="821.09375" xlink:href="#DejaVuSans-66"/>
      <use x="856.298828" xlink:href="#DejaVuSans-6f"/>
     </g>
    </g>
    <g id="line2d_40">
     <path d="M 414.448125 60.050937 
L 434.448125 60.050937 
" style="fill:none;stroke:#d62728;stroke-linecap:square;stroke-width:1.5;"/>
    </g>
    <g id="line2d_41">
     <defs>
      <path d="M 0 -3 
L -3 3 
L 3 3 
z
" id="m51387ef0ce" style="stroke:#d62728;stroke-linejoin:miter;"/>
     </defs>
     <g>
      <use style="fill:#d62728;stroke:#d62728;stroke-linejoin:miter;" x="424.448125" xlink:href="#m51387ef0ce" y="60.050937"/>
     </g>
    </g>
    <g id="text_18">
     <!-- afl_scheduling_random -->
     <g transform="translate(442.448125 63.550937)scale(0.1 -0.1)">
      <use xlink:href="#DejaVuSans-61"/>
      <use x="61.279297" xlink:href="#DejaVuSans-66"/>
      <use x="96.484375" xlink:href="#DejaVuSans-6c"/>
      <use x="124.267578" xlink:href="#DejaVuSans-5f"/>
      <use x="174.267578" xlink:href="#DejaVuSans-73"/>
      <use x="226.367188" xlink:href="#DejaVuSans-63"/>
      <use x="281.347656" xlink:href="#DejaVuSans-68"/>
      <use x="344.726562" xlink:href="#DejaVuSans-65"/>
      <use x="406.25" xlink:href="#DejaVuSans-64"/>
      <use x="469.726562" xlink:href="#DejaVuSans-75"/>
      <use x="533.105469" xlink:href="#DejaVuSans-6c"/>
      <use x="560.888672" xlink:href="#DejaVuSans-69"/>
      <use x="588.671875" xlink:href="#DejaVuSans-6e"/>
      <use x="652.050781" xlink:href="#DejaVuSans-67"/>
      <use x="715.527344" xlink:href="#DejaVuSans-5f"/>
      <use x="765.527344" xlink:href="#DejaVuSans-72"/>
      <use x="806.640625" xlink:href="#DejaVuSans-61"/>
      <use x="867.919922" xlink:href="#DejaVuSans-6e"/>
      <use x="931.298828" xlink:href="#DejaVuSans-64"/>
      <use x="994.775391" xlink:href="#DejaVuSans-6f"/>
      <use x="1055.957031" xlink:href="#DejaVuSans-6d"/>
     </g>
    </g>
   </g>
  </g>
 </g>
 <defs>
  <clipPath id="pf11acac2b5">
   <rect height="266.112" width="357.12" x="53.328125" y="22.318125"/>
  </clipPath>
 </defs>
</svg>
