<?xml version="1.0" encoding="utf-8" standalone="no"?>
<!DOCTYPE svg PUBLIC "-//W3C//DTD SVG 1.1//EN"
  "http://www.w3.org/Graphics/SVG/1.1/DTD/svg11.dtd">
<svg height="325.986375pt" version="1.1" viewBox="0 0 568.985625 325.986375" width="568.985625pt" xmlns="http://www.w3.org/2000/svg" xmlns:xlink="http://www.w3.org/1999/xlink">
 <metadata>
  <rdf:RDF xmlns:cc="http://creativecommons.org/ns#" xmlns:dc="http://purl.org/dc/elements/1.1/" xmlns:rdf="http://www.w3.org/1999/02/22-rdf-syntax-ns#">
   <cc:Work>
    <dc:type rdf:resource="http://purl.org/dc/dcmitype/StillImage"/>
    <dc:date>2022-07-21T16:11:33.349483</dc:date>
    <dc:format>image/svg+xml</dc:format>
    <dc:creator>
     <cc:Agent>
      <dc:title>Matplotlib v3.4.3, https://matplotlib.org/</dc:title>
     </cc:Agent>
    </dc:creator>
   </cc:Work>
  </rdf:RDF>
 </metadata>
 <defs>
  <style type="text/css">*{stroke-linecap:butt;stroke-linejoin:round;}</style>
 </defs>
 <g id="figure_1">
  <g id="patch_1">
   <path d="M 0 325.986375 
L 568.985625 325.986375 
L 568.985625 0 
L 0 0 
z
" style="fill:#ffffff;"/>
  </g>
  <g id="axes_1">
   <g id="patch_2">
    <path d="M 53.328125 288.430125 
L 410.448125 288.430125 
L 410.448125 22.318125 
L 53.328125 22.318125 
z
" style="fill:#ffffff;"/>
   </g>
   <g id="PolyCollection_1">
    <defs>
     <path d="M 69.560852 -95.463593 
L 69.560852 -70.267354 
L 73.128485 -93.432549 
L 76.696117 -95.237922 
L 80.263749 -96.817623 
L 83.831382 -99.86419 
L 87.399014 -105.393146 
L 90.966646 -107.875534 
L 94.534279 -110.245086 
L 98.101911 -112.84031 
L 101.669544 -112.953146 
L 105.237176 -113.065981 
L 108.804808 -115.661205 
L 112.372441 -117.353743 
L 115.940073 -117.579414 
L 119.507705 -117.689429 
L 123.075338 -117.579414 
L 126.64297 -119.271951 
L 130.210603 -121.867175 
L 133.778235 -122.092847 
L 137.345867 -122.092847 
L 140.9135 -122.769862 
L 144.481132 -125.590757 
L 148.048764 -126.267772 
L 151.616397 -131.45822 
L 155.184029 -132.473743 
L 158.751661 -133.004071 
L 162.319294 -133.376429 
L 165.886926 -133.827772 
L 169.454559 -136.648668 
L 173.022191 -136.987175 
L 176.589823 -138.905384 
L 180.157456 -138.905384 
L 183.725088 -138.905384 
L 187.29272 -140.37225 
L 190.860353 -140.485086 
L 194.427985 -141.72628 
L 197.995618 -143.531653 
L 201.56325 -143.531653 
L 205.130882 -145.675534 
L 208.698515 -145.782728 
L 212.266147 -146.014041 
L 215.833779 -147.480907 
L 219.401412 -147.593743 
L 222.969044 -147.590922 
L 226.536676 -148.270757 
L 230.104309 -149.060608 
L 233.671941 -150.076131 
L 237.239574 -150.414638 
L 240.807206 -150.865981 
L 244.374838 -151.091653 
L 247.942471 -151.768668 
L 251.510103 -151.864578 
L 255.077735 -155.830757 
L 258.645368 -155.830757 
L 262.213 -156.169265 
L 265.780632 -154.251056 
L 269.348265 -154.251056 
L 272.915897 -156.84628 
L 276.48353 -156.84628 
L 280.051162 -156.959116 
L 283.618794 -156.959116 
L 287.186427 -157.184787 
L 290.754059 -157.410459 
L 294.321691 -157.748966 
L 297.889324 -159.102996 
L 301.456956 -160.118519 
L 305.024589 -158.538817 
L 308.592221 -160.34419 
L 312.159853 -161.246877 
L 315.727486 -159.215832 
L 319.295118 -161.359713 
L 322.86275 -161.811056 
L 326.430383 -163.954937 
L 329.998015 -163.729265 
L 333.565647 -163.954937 
L 337.13328 -164.40628 
L 340.700912 -164.631951 
L 344.268545 -164.180608 
L 347.836177 -165.083295 
L 351.403809 -164.40628 
L 354.971442 -166.211653 
L 358.539074 -166.403474 
L 362.106706 -170.048071 
L 365.674339 -170.950757 
L 369.241971 -170.23425 
L 372.809604 -174.11016 
L 376.377236 -174.222996 
L 379.944868 -175.577026 
L 383.512501 -175.577026 
L 387.080133 -175.915534 
L 390.647765 -175.915534 
L 394.215398 -177.043892 
L 394.215398 -290.895235 
L 394.215398 -290.895235 
L 390.647765 -291.57225 
L 387.080133 -290.443892 
L 383.512501 -290.669563 
L 379.944868 -290.105384 
L 376.377236 -289.202698 
L 372.809604 -289.202698 
L 369.241971 -288.525683 
L 365.674339 -288.525683 
L 362.106706 -286.945981 
L 358.539074 -287.735832 
L 354.971442 -287.51016 
L 351.403809 -288.300011 
L 347.836177 -288.300011 
L 344.268545 -287.51016 
L 340.700912 -287.397325 
L 337.13328 -288.07434 
L 333.565647 -287.284489 
L 329.998015 -287.182937 
L 326.430383 -287.058817 
L 322.86275 -286.043295 
L 319.295118 -286.043295 
L 315.727486 -286.381802 
L 312.159853 -284.01225 
L 308.592221 -257.543787 
L 305.024589 -234.838399 
L 301.456956 -254.449265 
L 297.889324 -254.449265 
L 294.321691 -254.223593 
L 290.754059 -233.913146 
L 287.186427 -253.885086 
L 283.618794 -253.433743 
L 280.051162 -255.013444 
L 276.48353 -253.320907 
L 272.915897 -253.320907 
L 269.348265 -253.095235 
L 265.780632 -252.982399 
L 262.213 -251.966877 
L 258.645368 -196.113146 
L 255.077735 -200.400907 
L 251.510103 -199.949563 
L 247.942471 -219.921504 
L 244.374838 -197.805683 
L 240.807206 -196.451653 
L 237.239574 -196.338817 
L 233.671941 -190.471354 
L 230.104309 -195.548966 
L 226.536676 -187.311951 
L 222.969044 -187.08628 
L 219.401412 -187.066534 
L 215.833779 -185.280907 
L 212.266147 -195.097623 
L 208.698515 -184.942399 
L 205.130882 -195.097623 
L 201.56325 -184.603892 
L 197.995618 -194.420608 
L 194.427985 -173.433146 
L 190.860353 -156.394937 
L 187.29272 -158.087474 
L 183.725088 -156.056429 
L 180.157456 -154.598026 
L 176.589823 -152.558519 
L 173.022191 -151.204489 
L 169.454559 -151.204489 
L 165.886926 -150.527474 
L 162.319294 -149.173444 
L 158.751661 -147.93225 
L 155.184029 -148.081757 
L 151.616397 -147.255235 
L 148.048764 -146.473847 
L 144.481132 -145.111354 
L 140.9135 -144.772847 
L 137.345867 -143.757325 
L 133.778235 -143.08031 
L 130.210603 -140.597922 
L 126.64297 -137.100011 
L 123.075338 -137.100011 
L 119.507705 -136.084489 
L 115.940073 -135.745981 
L 112.372441 -135.745981 
L 108.804808 -130.555534 
L 105.237176 -130.329862 
L 101.669544 -124.575235 
L 98.101911 -124.575235 
L 94.534279 -122.318519 
L 90.966646 -121.641504 
L 87.399014 -119.384787 
L 83.831382 -117.240907 
L 80.263749 -115.661205 
L 76.696117 -110.357922 
L 73.128485 -102.910757 
L 69.560852 -95.463593 
z
" id="m4dc881af66" style="stroke:#98df8a;stroke-opacity:0.2;"/>
    </defs>
    <g clip-path="url(#p635af7c50e)">
     <use style="fill:#98df8a;fill-opacity:0.2;stroke:#98df8a;stroke-opacity:0.2;" x="0" xlink:href="#m4dc881af66" y="325.986375"/>
    </g>
   </g>
   <g id="PolyCollection_2">
    <defs>
     <path d="M 69.560852 -88.693444 
L 69.560852 -62.854041 
L 73.128485 -79.423981 
L 76.696117 -96.36628 
L 80.263749 -102.346578 
L 83.831382 -111.48628 
L 87.399014 -117.353743 
L 90.966646 -123.334041 
L 94.534279 -127.170459 
L 98.101911 -132.473743 
L 101.669544 -134.053444 
L 105.237176 -137.212847 
L 108.804808 -138.454041 
L 112.372441 -139.695235 
L 115.940073 -140.256593 
L 119.507705 -140.936429 
L 123.075338 -141.72628 
L 126.64297 -142.174802 
L 130.210603 -142.741802 
L 133.778235 -143.980175 
L 137.345867 -144.188922 
L 140.9135 -144.998519 
L 144.481132 -145.675534 
L 148.048764 -145.901205 
L 151.616397 -146.126877 
L 155.184029 -147.480907 
L 158.751661 -147.480907 
L 162.319294 -147.480907 
L 165.886926 -147.706578 
L 169.454559 -147.706578 
L 173.022191 -147.706578 
L 176.589823 -147.93225 
L 180.157456 -147.93225 
L 183.725088 -147.93225 
L 187.29272 -148.496429 
L 190.860353 -148.834937 
L 194.427985 -148.834937 
L 197.995618 -148.834937 
L 201.56325 -148.834937 
L 205.130882 -149.28628 
L 208.698515 -149.28628 
L 212.266147 -149.624787 
L 215.833779 -149.511951 
L 219.401412 -149.624787 
L 222.969044 -150.076131 
L 226.536676 -151.088832 
L 230.104309 -151.768668 
L 233.671941 -151.655832 
L 237.239574 -152.21719 
L 240.807206 -152.445683 
L 244.374838 -152.445683 
L 247.942471 -152.78419 
L 251.510103 -152.78419 
L 255.077735 -153.461205 
L 258.645368 -153.686877 
L 262.213 -153.686877 
L 265.780632 -153.348369 
L 269.348265 -154.025384 
L 272.915897 -154.13822 
L 276.48353 -154.363892 
L 280.051162 -154.589563 
L 283.618794 -154.702399 
L 287.186427 -155.605086 
L 290.754059 -155.830757 
L 294.321691 -155.830757 
L 297.889324 -155.943593 
L 301.456956 -155.943593 
L 305.024589 -156.169265 
L 308.592221 -156.169265 
L 312.159853 -156.169265 
L 315.727486 -156.282101 
L 319.295118 -156.84628 
L 322.86275 -157.184787 
L 326.430383 -157.636131 
L 329.998015 -157.636131 
L 333.565647 -157.636131 
L 337.13328 -157.636131 
L 340.700912 -157.748966 
L 344.268545 -157.861802 
L 347.836177 -157.861802 
L 351.403809 -158.313146 
L 354.971442 -158.313146 
L 358.539074 -158.313146 
L 362.106706 -158.20031 
L 365.674339 -158.425981 
L 369.241971 -158.425981 
L 372.809604 -158.538817 
L 376.377236 -158.538817 
L 379.944868 -158.538817 
L 383.512501 -158.877325 
L 387.080133 -158.99016 
L 390.647765 -159.328668 
L 394.215398 -159.215832 
L 394.215398 -165.873146 
L 394.215398 -165.873146 
L 390.647765 -165.873146 
L 387.080133 -165.873146 
L 383.512501 -165.76031 
L 379.944868 -165.76031 
L 376.377236 -165.421802 
L 372.809604 -165.421802 
L 369.241971 -165.421802 
L 365.674339 -165.421802 
L 362.106706 -165.421802 
L 358.539074 -165.777235 
L 354.971442 -165.308966 
L 351.403809 -165.308966 
L 347.836177 -166.437325 
L 344.268545 -164.857623 
L 340.700912 -164.744787 
L 337.13328 -164.744787 
L 333.565647 -164.293444 
L 329.998015 -163.729265 
L 326.430383 -163.390757 
L 322.86275 -163.390757 
L 319.295118 -163.277922 
L 315.727486 -163.847743 
L 312.159853 -162.713743 
L 308.592221 -163.503593 
L 305.024589 -161.923892 
L 301.456956 -161.923892 
L 297.889324 -161.923892 
L 294.321691 -163.05225 
L 290.754059 -161.811056 
L 287.186427 -161.69822 
L 283.618794 -161.69822 
L 280.051162 -161.585384 
L 276.48353 -161.472549 
L 272.915897 -161.246877 
L 269.348265 -161.134041 
L 265.780632 -161.472549 
L 262.213 -161.246877 
L 258.645368 -160.569862 
L 255.077735 -160.34419 
L 251.510103 -160.795534 
L 247.942471 -160.118519 
L 244.374838 -160.118519 
L 240.807206 -160.005683 
L 237.239574 -160.005683 
L 233.671941 -159.898489 
L 230.104309 -159.780011 
L 226.536676 -159.667175 
L 222.969044 -159.55716 
L 219.401412 -158.877325 
L 215.833779 -158.877325 
L 212.266147 -158.651653 
L 208.698515 -158.538817 
L 205.130882 -158.087474 
L 201.56325 -157.861802 
L 197.995618 -157.410459 
L 194.427985 -157.410459 
L 190.860353 -156.056429 
L 187.29272 -156.056429 
L 183.725088 -155.605086 
L 180.157456 -155.500713 
L 176.589823 -154.928071 
L 173.022191 -154.928071 
L 169.454559 -154.251056 
L 165.886926 -154.13822 
L 162.319294 -153.122698 
L 158.751661 -153.012683 
L 155.184029 -152.445683 
L 151.616397 -152.445683 
L 148.048764 -152.332847 
L 144.481132 -151.99434 
L 140.9135 -151.99434 
L 137.345867 -151.432981 
L 133.778235 -149.850459 
L 130.210603 -149.85328 
L 126.64297 -149.624787 
L 123.075338 -148.834937 
L 119.507705 -147.480907 
L 115.940073 -146.691056 
L 112.372441 -145.111354 
L 108.804808 -143.311623 
L 105.237176 -143.08031 
L 101.669544 -142.064787 
L 98.101911 -139.808071 
L 94.534279 -137.551354 
L 90.966646 -136.422996 
L 87.399014 -132.586578 
L 83.831382 -130.555534 
L 80.263749 -122.769862 
L 76.696117 -116.563892 
L 73.128485 -104.603295 
L 69.560852 -88.693444 
z
" id="ma35506fdf8" style="stroke:#d62728;stroke-opacity:0.2;"/>
    </defs>
    <g clip-path="url(#p635af7c50e)">
     <use style="fill:#d62728;fill-opacity:0.2;stroke:#d62728;stroke-opacity:0.2;" x="0" xlink:href="#ma35506fdf8" y="325.986375"/>
    </g>
   </g>
   <g id="PolyCollection_3">
    <defs>
     <path d="M 69.560852 -82.950101 
L 69.560852 -49.65225 
L 73.128485 -74.814638 
L 76.696117 -91.965683 
L 80.263749 -100.315534 
L 83.831382 -114.645683 
L 87.399014 -121.077325 
L 90.966646 -122.882698 
L 94.534279 -126.267772 
L 98.101911 -131.006877 
L 101.669544 -133.150757 
L 105.237176 -133.489265 
L 108.804808 -134.16628 
L 112.372441 -136.197325 
L 115.940073 -139.695235 
L 119.507705 -142.741802 
L 123.075338 -144.660011 
L 126.64297 -146.126877 
L 130.210603 -146.126877 
L 133.778235 -146.57822 
L 137.345867 -146.803892 
L 140.9135 -147.480907 
L 144.481132 -147.593743 
L 148.048764 -147.819414 
L 151.616397 -148.045086 
L 155.184029 -149.283459 
L 158.751661 -148.496429 
L 162.319294 -148.496429 
L 165.886926 -148.826474 
L 169.454559 -149.511951 
L 173.022191 -149.28628 
L 176.589823 -150.301802 
L 180.157456 -150.301802 
L 183.725088 -150.403354 
L 187.29272 -150.527474 
L 190.860353 -150.86034 
L 194.427985 -150.865981 
L 197.995618 -151.317325 
L 201.56325 -151.317325 
L 205.130882 -152.445683 
L 208.698515 -153.009862 
L 212.266147 -153.574041 
L 215.833779 -153.574041 
L 219.401412 -153.686877 
L 222.969044 -153.686877 
L 226.536676 -153.574041 
L 230.104309 -153.574041 
L 233.671941 -153.574041 
L 237.239574 -153.574041 
L 240.807206 -153.574041 
L 244.374838 -153.686877 
L 247.942471 -153.799713 
L 251.510103 -154.025384 
L 255.077735 -154.13822 
L 258.645368 -154.13822 
L 262.213 -154.13822 
L 265.780632 -154.13822 
L 269.348265 -154.13822 
L 272.915897 -154.13822 
L 276.48353 -154.13822 
L 280.051162 -154.13822 
L 283.618794 -154.251056 
L 287.186427 -154.251056 
L 290.754059 -154.361071 
L 294.321691 -154.251056 
L 297.889324 -154.476728 
L 301.456956 -154.476728 
L 305.024589 -154.589563 
L 308.592221 -154.815235 
L 312.159853 -155.266578 
L 315.727486 -155.943593 
L 319.295118 -155.827937 
L 322.86275 -155.830757 
L 326.430383 -155.605086 
L 329.998015 -155.940772 
L 333.565647 -156.056429 
L 337.13328 -156.282101 
L 340.700912 -156.502131 
L 344.268545 -156.620608 
L 347.836177 -156.733444 
L 351.403809 -156.733444 
L 354.971442 -156.282101 
L 358.539074 -156.84628 
L 362.106706 -156.959116 
L 365.674339 -156.959116 
L 369.241971 -157.063489 
L 372.809604 -157.063489 
L 376.377236 -157.410459 
L 379.944868 -157.410459 
L 383.512501 -157.410459 
L 387.080133 -157.410459 
L 390.647765 -157.410459 
L 394.215398 -157.410459 
L 394.215398 -162.375235 
L 394.215398 -162.375235 
L 390.647765 -162.375235 
L 387.080133 -162.375235 
L 383.512501 -162.386519 
L 379.944868 -162.375235 
L 376.377236 -162.375235 
L 372.809604 -162.375235 
L 369.241971 -162.375235 
L 365.674339 -162.375235 
L 362.106706 -162.375235 
L 358.539074 -162.375235 
L 354.971442 -162.375235 
L 351.403809 -162.375235 
L 347.836177 -162.375235 
L 344.268545 -161.69822 
L 340.700912 -162.262399 
L 337.13328 -162.036728 
L 333.565647 -162.036728 
L 329.998015 -162.036728 
L 326.430383 -162.036728 
L 322.86275 -162.036728 
L 319.295118 -161.585384 
L 315.727486 -162.149563 
L 312.159853 -162.036728 
L 308.592221 -162.036728 
L 305.024589 -161.588205 
L 301.456956 -162.036728 
L 297.889324 -162.036728 
L 294.321691 -162.600907 
L 290.754059 -161.811056 
L 287.186427 -161.69822 
L 283.618794 -161.585384 
L 280.051162 -161.69822 
L 276.48353 -161.585384 
L 272.915897 -161.585384 
L 269.348265 -161.472549 
L 265.780632 -161.359713 
L 262.213 -161.359713 
L 258.645368 -161.359713 
L 255.077735 -160.457026 
L 251.510103 -160.457026 
L 247.942471 -160.118519 
L 244.374838 -160.118519 
L 240.807206 -159.782832 
L 237.239574 -159.55434 
L 233.671941 -159.898489 
L 230.104309 -159.441504 
L 226.536676 -159.441504 
L 222.969044 -159.328668 
L 219.401412 -159.215832 
L 215.833779 -159.215832 
L 212.266147 -159.328668 
L 208.698515 -159.215832 
L 205.130882 -158.99016 
L 201.56325 -158.99016 
L 197.995618 -158.99016 
L 194.427985 -158.99016 
L 190.860353 -158.425981 
L 187.29272 -158.425981 
L 183.725088 -158.20031 
L 180.157456 -157.974638 
L 176.589823 -157.861802 
L 173.022191 -157.184787 
L 169.454559 -156.849101 
L 165.886926 -156.84628 
L 162.319294 -156.84628 
L 158.751661 -156.282101 
L 155.184029 -155.949235 
L 151.616397 -155.830757 
L 148.048764 -155.379414 
L 144.481132 -154.48519 
L 140.9135 -154.13822 
L 137.345867 -153.235534 
L 133.778235 -153.235534 
L 130.210603 -151.99434 
L 126.64297 -151.884325 
L 123.075338 -150.865981 
L 119.507705 -148.722101 
L 115.940073 -148.383593 
L 112.372441 -146.803892 
L 108.804808 -144.772847 
L 105.237176 -140.485086 
L 101.669544 -138.228369 
L 98.101911 -136.422996 
L 94.534279 -135.633146 
L 90.966646 -135.294638 
L 87.399014 -131.571056 
L 83.831382 -124.349563 
L 80.263749 -116.676728 
L 76.696117 -114.420011 
L 73.128485 -97.833146 
L 69.560852 -82.950101 
z
" id="m923f8a0dce" style="stroke:#1f77b4;stroke-opacity:0.2;"/>
    </defs>
    <g clip-path="url(#p635af7c50e)">
     <use style="fill:#1f77b4;fill-opacity:0.2;stroke:#1f77b4;stroke-opacity:0.2;" x="0" xlink:href="#m923f8a0dce" y="325.986375"/>
    </g>
   </g>
   <g id="matplotlib.axis_1">
    <g id="xtick_1">
     <g id="line2d_1">
      <defs>
       <path d="M 0 0 
L 0 3.5 
" id="m89c9a5920d" style="stroke:#000000;stroke-width:0.8;"/>
      </defs>
      <g>
       <use style="stroke:#000000;stroke-width:0.8;" x="69.560852" xlink:href="#m89c9a5920d" y="288.430125"/>
      </g>
     </g>
     <g id="text_1">
      <!-- 15m -->
      <g transform="translate(58.32804 303.028562)scale(0.1 -0.1)">
       <defs>
        <path d="M 794 531 
L 1825 531 
L 1825 4091 
L 703 3866 
L 703 4441 
L 1819 4666 
L 2450 4666 
L 2450 531 
L 3481 531 
L 3481 0 
L 794 0 
L 794 531 
z
" id="DejaVuSans-31" transform="scale(0.015625)"/>
        <path d="M 691 4666 
L 3169 4666 
L 3169 4134 
L 1269 4134 
L 1269 2991 
Q 1406 3038 1543 3061 
Q 1681 3084 1819 3084 
Q 2600 3084 3056 2656 
Q 3513 2228 3513 1497 
Q 3513 744 3044 326 
Q 2575 -91 1722 -91 
Q 1428 -91 1123 -41 
Q 819 9 494 109 
L 494 744 
Q 775 591 1075 516 
Q 1375 441 1709 441 
Q 2250 441 2565 725 
Q 2881 1009 2881 1497 
Q 2881 1984 2565 2268 
Q 2250 2553 1709 2553 
Q 1456 2553 1204 2497 
Q 953 2441 691 2322 
L 691 4666 
z
" id="DejaVuSans-35" transform="scale(0.015625)"/>
        <path d="M 3328 2828 
Q 3544 3216 3844 3400 
Q 4144 3584 4550 3584 
Q 5097 3584 5394 3201 
Q 5691 2819 5691 2113 
L 5691 0 
L 5113 0 
L 5113 2094 
Q 5113 2597 4934 2840 
Q 4756 3084 4391 3084 
Q 3944 3084 3684 2787 
Q 3425 2491 3425 1978 
L 3425 0 
L 2847 0 
L 2847 2094 
Q 2847 2600 2669 2842 
Q 2491 3084 2119 3084 
Q 1678 3084 1418 2786 
Q 1159 2488 1159 1978 
L 1159 0 
L 581 0 
L 581 3500 
L 1159 3500 
L 1159 2956 
Q 1356 3278 1631 3431 
Q 1906 3584 2284 3584 
Q 2666 3584 2933 3390 
Q 3200 3197 3328 2828 
z
" id="DejaVuSans-6d" transform="scale(0.015625)"/>
       </defs>
       <use xlink:href="#DejaVuSans-31"/>
       <use x="63.623047" xlink:href="#DejaVuSans-35"/>
       <use x="127.246094" xlink:href="#DejaVuSans-6d"/>
      </g>
     </g>
    </g>
    <g id="xtick_2">
     <g id="line2d_2">
      <g>
       <use style="stroke:#000000;stroke-width:0.8;" x="124.264549" xlink:href="#m89c9a5920d" y="288.430125"/>
      </g>
     </g>
     <g id="text_2">
      <!-- 4h:5m -->
      <g transform="translate(108.178611 303.028562)scale(0.1 -0.1)">
       <defs>
        <path d="M 2419 4116 
L 825 1625 
L 2419 1625 
L 2419 4116 
z
M 2253 4666 
L 3047 4666 
L 3047 1625 
L 3713 1625 
L 3713 1100 
L 3047 1100 
L 3047 0 
L 2419 0 
L 2419 1100 
L 313 1100 
L 313 1709 
L 2253 4666 
z
" id="DejaVuSans-34" transform="scale(0.015625)"/>
        <path d="M 3513 2113 
L 3513 0 
L 2938 0 
L 2938 2094 
Q 2938 2591 2744 2837 
Q 2550 3084 2163 3084 
Q 1697 3084 1428 2787 
Q 1159 2491 1159 1978 
L 1159 0 
L 581 0 
L 581 4863 
L 1159 4863 
L 1159 2956 
Q 1366 3272 1645 3428 
Q 1925 3584 2291 3584 
Q 2894 3584 3203 3211 
Q 3513 2838 3513 2113 
z
" id="DejaVuSans-68" transform="scale(0.015625)"/>
        <path d="M 750 794 
L 1409 794 
L 1409 0 
L 750 0 
L 750 794 
z
M 750 3309 
L 1409 3309 
L 1409 2516 
L 750 2516 
L 750 3309 
z
" id="DejaVuSans-3a" transform="scale(0.015625)"/>
       </defs>
       <use xlink:href="#DejaVuSans-34"/>
       <use x="63.623047" xlink:href="#DejaVuSans-68"/>
       <use x="127.001953" xlink:href="#DejaVuSans-3a"/>
       <use x="160.693359" xlink:href="#DejaVuSans-35"/>
       <use x="224.316406" xlink:href="#DejaVuSans-6d"/>
      </g>
     </g>
    </g>
    <g id="xtick_3">
     <g id="line2d_3">
      <g>
       <use style="stroke:#000000;stroke-width:0.8;" x="178.968245" xlink:href="#m89c9a5920d" y="288.430125"/>
      </g>
     </g>
     <g id="text_3">
      <!-- 7h:55m -->
      <g transform="translate(159.701057 303.028562)scale(0.1 -0.1)">
       <defs>
        <path d="M 525 4666 
L 3525 4666 
L 3525 4397 
L 1831 0 
L 1172 0 
L 2766 4134 
L 525 4134 
L 525 4666 
z
" id="DejaVuSans-37" transform="scale(0.015625)"/>
       </defs>
       <use xlink:href="#DejaVuSans-37"/>
       <use x="63.623047" xlink:href="#DejaVuSans-68"/>
       <use x="127.001953" xlink:href="#DejaVuSans-3a"/>
       <use x="160.693359" xlink:href="#DejaVuSans-35"/>
       <use x="224.316406" xlink:href="#DejaVuSans-35"/>
       <use x="287.939453" xlink:href="#DejaVuSans-6d"/>
      </g>
     </g>
    </g>
    <g id="xtick_4">
     <g id="line2d_4">
      <g>
       <use style="stroke:#000000;stroke-width:0.8;" x="233.671941" xlink:href="#m89c9a5920d" y="288.430125"/>
      </g>
     </g>
     <g id="text_4">
      <!-- 11h:45m -->
      <g transform="translate(211.223504 303.028562)scale(0.1 -0.1)">
       <use xlink:href="#DejaVuSans-31"/>
       <use x="63.623047" xlink:href="#DejaVuSans-31"/>
       <use x="127.246094" xlink:href="#DejaVuSans-68"/>
       <use x="190.625" xlink:href="#DejaVuSans-3a"/>
       <use x="224.316406" xlink:href="#DejaVuSans-34"/>
       <use x="287.939453" xlink:href="#DejaVuSans-35"/>
       <use x="351.5625" xlink:href="#DejaVuSans-6d"/>
      </g>
     </g>
    </g>
    <g id="xtick_5">
     <g id="line2d_5">
      <g>
       <use style="stroke:#000000;stroke-width:0.8;" x="288.375637" xlink:href="#m89c9a5920d" y="288.430125"/>
      </g>
     </g>
     <g id="text_5">
      <!-- 15h:35m -->
      <g transform="translate(265.9272 303.028562)scale(0.1 -0.1)">
       <defs>
        <path d="M 2597 2516 
Q 3050 2419 3304 2112 
Q 3559 1806 3559 1356 
Q 3559 666 3084 287 
Q 2609 -91 1734 -91 
Q 1441 -91 1130 -33 
Q 819 25 488 141 
L 488 750 
Q 750 597 1062 519 
Q 1375 441 1716 441 
Q 2309 441 2620 675 
Q 2931 909 2931 1356 
Q 2931 1769 2642 2001 
Q 2353 2234 1838 2234 
L 1294 2234 
L 1294 2753 
L 1863 2753 
Q 2328 2753 2575 2939 
Q 2822 3125 2822 3475 
Q 2822 3834 2567 4026 
Q 2313 4219 1838 4219 
Q 1578 4219 1281 4162 
Q 984 4106 628 3988 
L 628 4550 
Q 988 4650 1302 4700 
Q 1616 4750 1894 4750 
Q 2613 4750 3031 4423 
Q 3450 4097 3450 3541 
Q 3450 3153 3228 2886 
Q 3006 2619 2597 2516 
z
" id="DejaVuSans-33" transform="scale(0.015625)"/>
       </defs>
       <use xlink:href="#DejaVuSans-31"/>
       <use x="63.623047" xlink:href="#DejaVuSans-35"/>
       <use x="127.246094" xlink:href="#DejaVuSans-68"/>
       <use x="190.625" xlink:href="#DejaVuSans-3a"/>
       <use x="224.316406" xlink:href="#DejaVuSans-33"/>
       <use x="287.939453" xlink:href="#DejaVuSans-35"/>
       <use x="351.5625" xlink:href="#DejaVuSans-6d"/>
      </g>
     </g>
    </g>
    <g id="xtick_6">
     <g id="line2d_6">
      <g>
       <use style="stroke:#000000;stroke-width:0.8;" x="343.079334" xlink:href="#m89c9a5920d" y="288.430125"/>
      </g>
     </g>
     <g id="text_6">
      <!-- 19h:25m -->
      <g transform="translate(320.630896 303.028562)scale(0.1 -0.1)">
       <defs>
        <path d="M 703 97 
L 703 672 
Q 941 559 1184 500 
Q 1428 441 1663 441 
Q 2288 441 2617 861 
Q 2947 1281 2994 2138 
Q 2813 1869 2534 1725 
Q 2256 1581 1919 1581 
Q 1219 1581 811 2004 
Q 403 2428 403 3163 
Q 403 3881 828 4315 
Q 1253 4750 1959 4750 
Q 2769 4750 3195 4129 
Q 3622 3509 3622 2328 
Q 3622 1225 3098 567 
Q 2575 -91 1691 -91 
Q 1453 -91 1209 -44 
Q 966 3 703 97 
z
M 1959 2075 
Q 2384 2075 2632 2365 
Q 2881 2656 2881 3163 
Q 2881 3666 2632 3958 
Q 2384 4250 1959 4250 
Q 1534 4250 1286 3958 
Q 1038 3666 1038 3163 
Q 1038 2656 1286 2365 
Q 1534 2075 1959 2075 
z
" id="DejaVuSans-39" transform="scale(0.015625)"/>
        <path d="M 1228 531 
L 3431 531 
L 3431 0 
L 469 0 
L 469 531 
Q 828 903 1448 1529 
Q 2069 2156 2228 2338 
Q 2531 2678 2651 2914 
Q 2772 3150 2772 3378 
Q 2772 3750 2511 3984 
Q 2250 4219 1831 4219 
Q 1534 4219 1204 4116 
Q 875 4013 500 3803 
L 500 4441 
Q 881 4594 1212 4672 
Q 1544 4750 1819 4750 
Q 2544 4750 2975 4387 
Q 3406 4025 3406 3419 
Q 3406 3131 3298 2873 
Q 3191 2616 2906 2266 
Q 2828 2175 2409 1742 
Q 1991 1309 1228 531 
z
" id="DejaVuSans-32" transform="scale(0.015625)"/>
       </defs>
       <use xlink:href="#DejaVuSans-31"/>
       <use x="63.623047" xlink:href="#DejaVuSans-39"/>
       <use x="127.246094" xlink:href="#DejaVuSans-68"/>
       <use x="190.625" xlink:href="#DejaVuSans-3a"/>
       <use x="224.316406" xlink:href="#DejaVuSans-32"/>
       <use x="287.939453" xlink:href="#DejaVuSans-35"/>
       <use x="351.5625" xlink:href="#DejaVuSans-6d"/>
      </g>
     </g>
    </g>
    <g id="text_7">
     <!-- Time (hour:minute) -->
     <g transform="translate(183.481094 316.706687)scale(0.1 -0.1)">
      <defs>
       <path d="M -19 4666 
L 3928 4666 
L 3928 4134 
L 2272 4134 
L 2272 0 
L 1638 0 
L 1638 4134 
L -19 4134 
L -19 4666 
z
" id="DejaVuSans-54" transform="scale(0.015625)"/>
       <path d="M 603 3500 
L 1178 3500 
L 1178 0 
L 603 0 
L 603 3500 
z
M 603 4863 
L 1178 4863 
L 1178 4134 
L 603 4134 
L 603 4863 
z
" id="DejaVuSans-69" transform="scale(0.015625)"/>
       <path d="M 3597 1894 
L 3597 1613 
L 953 1613 
Q 991 1019 1311 708 
Q 1631 397 2203 397 
Q 2534 397 2845 478 
Q 3156 559 3463 722 
L 3463 178 
Q 3153 47 2828 -22 
Q 2503 -91 2169 -91 
Q 1331 -91 842 396 
Q 353 884 353 1716 
Q 353 2575 817 3079 
Q 1281 3584 2069 3584 
Q 2775 3584 3186 3129 
Q 3597 2675 3597 1894 
z
M 3022 2063 
Q 3016 2534 2758 2815 
Q 2500 3097 2075 3097 
Q 1594 3097 1305 2825 
Q 1016 2553 972 2059 
L 3022 2063 
z
" id="DejaVuSans-65" transform="scale(0.015625)"/>
       <path id="DejaVuSans-20" transform="scale(0.015625)"/>
       <path d="M 1984 4856 
Q 1566 4138 1362 3434 
Q 1159 2731 1159 2009 
Q 1159 1288 1364 580 
Q 1569 -128 1984 -844 
L 1484 -844 
Q 1016 -109 783 600 
Q 550 1309 550 2009 
Q 550 2706 781 3412 
Q 1013 4119 1484 4856 
L 1984 4856 
z
" id="DejaVuSans-28" transform="scale(0.015625)"/>
       <path d="M 1959 3097 
Q 1497 3097 1228 2736 
Q 959 2375 959 1747 
Q 959 1119 1226 758 
Q 1494 397 1959 397 
Q 2419 397 2687 759 
Q 2956 1122 2956 1747 
Q 2956 2369 2687 2733 
Q 2419 3097 1959 3097 
z
M 1959 3584 
Q 2709 3584 3137 3096 
Q 3566 2609 3566 1747 
Q 3566 888 3137 398 
Q 2709 -91 1959 -91 
Q 1206 -91 779 398 
Q 353 888 353 1747 
Q 353 2609 779 3096 
Q 1206 3584 1959 3584 
z
" id="DejaVuSans-6f" transform="scale(0.015625)"/>
       <path d="M 544 1381 
L 544 3500 
L 1119 3500 
L 1119 1403 
Q 1119 906 1312 657 
Q 1506 409 1894 409 
Q 2359 409 2629 706 
Q 2900 1003 2900 1516 
L 2900 3500 
L 3475 3500 
L 3475 0 
L 2900 0 
L 2900 538 
Q 2691 219 2414 64 
Q 2138 -91 1772 -91 
Q 1169 -91 856 284 
Q 544 659 544 1381 
z
M 1991 3584 
L 1991 3584 
z
" id="DejaVuSans-75" transform="scale(0.015625)"/>
       <path d="M 2631 2963 
Q 2534 3019 2420 3045 
Q 2306 3072 2169 3072 
Q 1681 3072 1420 2755 
Q 1159 2438 1159 1844 
L 1159 0 
L 581 0 
L 581 3500 
L 1159 3500 
L 1159 2956 
Q 1341 3275 1631 3429 
Q 1922 3584 2338 3584 
Q 2397 3584 2469 3576 
Q 2541 3569 2628 3553 
L 2631 2963 
z
" id="DejaVuSans-72" transform="scale(0.015625)"/>
       <path d="M 3513 2113 
L 3513 0 
L 2938 0 
L 2938 2094 
Q 2938 2591 2744 2837 
Q 2550 3084 2163 3084 
Q 1697 3084 1428 2787 
Q 1159 2491 1159 1978 
L 1159 0 
L 581 0 
L 581 3500 
L 1159 3500 
L 1159 2956 
Q 1366 3272 1645 3428 
Q 1925 3584 2291 3584 
Q 2894 3584 3203 3211 
Q 3513 2838 3513 2113 
z
" id="DejaVuSans-6e" transform="scale(0.015625)"/>
       <path d="M 1172 4494 
L 1172 3500 
L 2356 3500 
L 2356 3053 
L 1172 3053 
L 1172 1153 
Q 1172 725 1289 603 
Q 1406 481 1766 481 
L 2356 481 
L 2356 0 
L 1766 0 
Q 1100 0 847 248 
Q 594 497 594 1153 
L 594 3053 
L 172 3053 
L 172 3500 
L 594 3500 
L 594 4494 
L 1172 4494 
z
" id="DejaVuSans-74" transform="scale(0.015625)"/>
       <path d="M 513 4856 
L 1013 4856 
Q 1481 4119 1714 3412 
Q 1947 2706 1947 2009 
Q 1947 1309 1714 600 
Q 1481 -109 1013 -844 
L 513 -844 
Q 928 -128 1133 580 
Q 1338 1288 1338 2009 
Q 1338 2731 1133 3434 
Q 928 4138 513 4856 
z
" id="DejaVuSans-29" transform="scale(0.015625)"/>
      </defs>
      <use xlink:href="#DejaVuSans-54"/>
      <use x="57.958984" xlink:href="#DejaVuSans-69"/>
      <use x="85.742188" xlink:href="#DejaVuSans-6d"/>
      <use x="183.154297" xlink:href="#DejaVuSans-65"/>
      <use x="244.677734" xlink:href="#DejaVuSans-20"/>
      <use x="276.464844" xlink:href="#DejaVuSans-28"/>
      <use x="315.478516" xlink:href="#DejaVuSans-68"/>
      <use x="378.857422" xlink:href="#DejaVuSans-6f"/>
      <use x="440.039062" xlink:href="#DejaVuSans-75"/>
      <use x="503.417969" xlink:href="#DejaVuSans-72"/>
      <use x="542.78125" xlink:href="#DejaVuSans-3a"/>
      <use x="576.472656" xlink:href="#DejaVuSans-6d"/>
      <use x="673.884766" xlink:href="#DejaVuSans-69"/>
      <use x="701.667969" xlink:href="#DejaVuSans-6e"/>
      <use x="765.046875" xlink:href="#DejaVuSans-75"/>
      <use x="828.425781" xlink:href="#DejaVuSans-74"/>
      <use x="867.634766" xlink:href="#DejaVuSans-65"/>
      <use x="929.158203" xlink:href="#DejaVuSans-29"/>
     </g>
    </g>
   </g>
   <g id="matplotlib.axis_2">
    <g id="ytick_1">
     <g id="line2d_7">
      <defs>
       <path d="M 0 0 
L -3.5 0 
" id="m813e632580" style="stroke:#000000;stroke-width:0.8;"/>
      </defs>
      <g>
       <use style="stroke:#000000;stroke-width:0.8;" x="53.328125" xlink:href="#m813e632580" y="246.883976"/>
      </g>
     </g>
     <g id="text_8">
      <!-- 5200 -->
      <g transform="translate(20.878125 250.683194)scale(0.1 -0.1)">
       <defs>
        <path d="M 2034 4250 
Q 1547 4250 1301 3770 
Q 1056 3291 1056 2328 
Q 1056 1369 1301 889 
Q 1547 409 2034 409 
Q 2525 409 2770 889 
Q 3016 1369 3016 2328 
Q 3016 3291 2770 3770 
Q 2525 4250 2034 4250 
z
M 2034 4750 
Q 2819 4750 3233 4129 
Q 3647 3509 3647 2328 
Q 3647 1150 3233 529 
Q 2819 -91 2034 -91 
Q 1250 -91 836 529 
Q 422 1150 422 2328 
Q 422 3509 836 4129 
Q 1250 4750 2034 4750 
z
" id="DejaVuSans-30" transform="scale(0.015625)"/>
       </defs>
       <use xlink:href="#DejaVuSans-35"/>
       <use x="63.623047" xlink:href="#DejaVuSans-32"/>
       <use x="127.246094" xlink:href="#DejaVuSans-30"/>
       <use x="190.869141" xlink:href="#DejaVuSans-30"/>
      </g>
     </g>
    </g>
    <g id="ytick_2">
     <g id="line2d_8">
      <g>
       <use style="stroke:#000000;stroke-width:0.8;" x="53.328125" xlink:href="#m813e632580" y="201.749647"/>
      </g>
     </g>
     <g id="text_9">
      <!-- 5400 -->
      <g transform="translate(20.878125 205.548866)scale(0.1 -0.1)">
       <use xlink:href="#DejaVuSans-35"/>
       <use x="63.623047" xlink:href="#DejaVuSans-34"/>
       <use x="127.246094" xlink:href="#DejaVuSans-30"/>
       <use x="190.869141" xlink:href="#DejaVuSans-30"/>
      </g>
     </g>
    </g>
    <g id="ytick_3">
     <g id="line2d_9">
      <g>
       <use style="stroke:#000000;stroke-width:0.8;" x="53.328125" xlink:href="#m813e632580" y="156.615319"/>
      </g>
     </g>
     <g id="text_10">
      <!-- 5600 -->
      <g transform="translate(20.878125 160.414538)scale(0.1 -0.1)">
       <defs>
        <path d="M 2113 2584 
Q 1688 2584 1439 2293 
Q 1191 2003 1191 1497 
Q 1191 994 1439 701 
Q 1688 409 2113 409 
Q 2538 409 2786 701 
Q 3034 994 3034 1497 
Q 3034 2003 2786 2293 
Q 2538 2584 2113 2584 
z
M 3366 4563 
L 3366 3988 
Q 3128 4100 2886 4159 
Q 2644 4219 2406 4219 
Q 1781 4219 1451 3797 
Q 1122 3375 1075 2522 
Q 1259 2794 1537 2939 
Q 1816 3084 2150 3084 
Q 2853 3084 3261 2657 
Q 3669 2231 3669 1497 
Q 3669 778 3244 343 
Q 2819 -91 2113 -91 
Q 1303 -91 875 529 
Q 447 1150 447 2328 
Q 447 3434 972 4092 
Q 1497 4750 2381 4750 
Q 2619 4750 2861 4703 
Q 3103 4656 3366 4563 
z
" id="DejaVuSans-36" transform="scale(0.015625)"/>
       </defs>
       <use xlink:href="#DejaVuSans-35"/>
       <use x="63.623047" xlink:href="#DejaVuSans-36"/>
       <use x="127.246094" xlink:href="#DejaVuSans-30"/>
       <use x="190.869141" xlink:href="#DejaVuSans-30"/>
      </g>
     </g>
    </g>
    <g id="ytick_4">
     <g id="line2d_10">
      <g>
       <use style="stroke:#000000;stroke-width:0.8;" x="53.328125" xlink:href="#m813e632580" y="111.480991"/>
      </g>
     </g>
     <g id="text_11">
      <!-- 5800 -->
      <g transform="translate(20.878125 115.280209)scale(0.1 -0.1)">
       <defs>
        <path d="M 2034 2216 
Q 1584 2216 1326 1975 
Q 1069 1734 1069 1313 
Q 1069 891 1326 650 
Q 1584 409 2034 409 
Q 2484 409 2743 651 
Q 3003 894 3003 1313 
Q 3003 1734 2745 1975 
Q 2488 2216 2034 2216 
z
M 1403 2484 
Q 997 2584 770 2862 
Q 544 3141 544 3541 
Q 544 4100 942 4425 
Q 1341 4750 2034 4750 
Q 2731 4750 3128 4425 
Q 3525 4100 3525 3541 
Q 3525 3141 3298 2862 
Q 3072 2584 2669 2484 
Q 3125 2378 3379 2068 
Q 3634 1759 3634 1313 
Q 3634 634 3220 271 
Q 2806 -91 2034 -91 
Q 1263 -91 848 271 
Q 434 634 434 1313 
Q 434 1759 690 2068 
Q 947 2378 1403 2484 
z
M 1172 3481 
Q 1172 3119 1398 2916 
Q 1625 2713 2034 2713 
Q 2441 2713 2670 2916 
Q 2900 3119 2900 3481 
Q 2900 3844 2670 4047 
Q 2441 4250 2034 4250 
Q 1625 4250 1398 4047 
Q 1172 3844 1172 3481 
z
" id="DejaVuSans-38" transform="scale(0.015625)"/>
       </defs>
       <use xlink:href="#DejaVuSans-35"/>
       <use x="63.623047" xlink:href="#DejaVuSans-38"/>
       <use x="127.246094" xlink:href="#DejaVuSans-30"/>
       <use x="190.869141" xlink:href="#DejaVuSans-30"/>
      </g>
     </g>
    </g>
    <g id="ytick_5">
     <g id="line2d_11">
      <g>
       <use style="stroke:#000000;stroke-width:0.8;" x="53.328125" xlink:href="#m813e632580" y="66.346662"/>
      </g>
     </g>
     <g id="text_12">
      <!-- 6000 -->
      <g transform="translate(20.878125 70.145881)scale(0.1 -0.1)">
       <use xlink:href="#DejaVuSans-36"/>
       <use x="63.623047" xlink:href="#DejaVuSans-30"/>
       <use x="127.246094" xlink:href="#DejaVuSans-30"/>
       <use x="190.869141" xlink:href="#DejaVuSans-30"/>
      </g>
     </g>
    </g>
    <g id="text_13">
     <!-- Code region coverage -->
     <g transform="translate(14.798438 210.379594)rotate(-90)scale(0.1 -0.1)">
      <defs>
       <path d="M 4122 4306 
L 4122 3641 
Q 3803 3938 3442 4084 
Q 3081 4231 2675 4231 
Q 1875 4231 1450 3742 
Q 1025 3253 1025 2328 
Q 1025 1406 1450 917 
Q 1875 428 2675 428 
Q 3081 428 3442 575 
Q 3803 722 4122 1019 
L 4122 359 
Q 3791 134 3420 21 
Q 3050 -91 2638 -91 
Q 1578 -91 968 557 
Q 359 1206 359 2328 
Q 359 3453 968 4101 
Q 1578 4750 2638 4750 
Q 3056 4750 3426 4639 
Q 3797 4528 4122 4306 
z
" id="DejaVuSans-43" transform="scale(0.015625)"/>
       <path d="M 2906 2969 
L 2906 4863 
L 3481 4863 
L 3481 0 
L 2906 0 
L 2906 525 
Q 2725 213 2448 61 
Q 2172 -91 1784 -91 
Q 1150 -91 751 415 
Q 353 922 353 1747 
Q 353 2572 751 3078 
Q 1150 3584 1784 3584 
Q 2172 3584 2448 3432 
Q 2725 3281 2906 2969 
z
M 947 1747 
Q 947 1113 1208 752 
Q 1469 391 1925 391 
Q 2381 391 2643 752 
Q 2906 1113 2906 1747 
Q 2906 2381 2643 2742 
Q 2381 3103 1925 3103 
Q 1469 3103 1208 2742 
Q 947 2381 947 1747 
z
" id="DejaVuSans-64" transform="scale(0.015625)"/>
       <path d="M 2906 1791 
Q 2906 2416 2648 2759 
Q 2391 3103 1925 3103 
Q 1463 3103 1205 2759 
Q 947 2416 947 1791 
Q 947 1169 1205 825 
Q 1463 481 1925 481 
Q 2391 481 2648 825 
Q 2906 1169 2906 1791 
z
M 3481 434 
Q 3481 -459 3084 -895 
Q 2688 -1331 1869 -1331 
Q 1566 -1331 1297 -1286 
Q 1028 -1241 775 -1147 
L 775 -588 
Q 1028 -725 1275 -790 
Q 1522 -856 1778 -856 
Q 2344 -856 2625 -561 
Q 2906 -266 2906 331 
L 2906 616 
Q 2728 306 2450 153 
Q 2172 0 1784 0 
Q 1141 0 747 490 
Q 353 981 353 1791 
Q 353 2603 747 3093 
Q 1141 3584 1784 3584 
Q 2172 3584 2450 3431 
Q 2728 3278 2906 2969 
L 2906 3500 
L 3481 3500 
L 3481 434 
z
" id="DejaVuSans-67" transform="scale(0.015625)"/>
       <path d="M 3122 3366 
L 3122 2828 
Q 2878 2963 2633 3030 
Q 2388 3097 2138 3097 
Q 1578 3097 1268 2742 
Q 959 2388 959 1747 
Q 959 1106 1268 751 
Q 1578 397 2138 397 
Q 2388 397 2633 464 
Q 2878 531 3122 666 
L 3122 134 
Q 2881 22 2623 -34 
Q 2366 -91 2075 -91 
Q 1284 -91 818 406 
Q 353 903 353 1747 
Q 353 2603 823 3093 
Q 1294 3584 2113 3584 
Q 2378 3584 2631 3529 
Q 2884 3475 3122 3366 
z
" id="DejaVuSans-63" transform="scale(0.015625)"/>
       <path d="M 191 3500 
L 800 3500 
L 1894 563 
L 2988 3500 
L 3597 3500 
L 2284 0 
L 1503 0 
L 191 3500 
z
" id="DejaVuSans-76" transform="scale(0.015625)"/>
       <path d="M 2194 1759 
Q 1497 1759 1228 1600 
Q 959 1441 959 1056 
Q 959 750 1161 570 
Q 1363 391 1709 391 
Q 2188 391 2477 730 
Q 2766 1069 2766 1631 
L 2766 1759 
L 2194 1759 
z
M 3341 1997 
L 3341 0 
L 2766 0 
L 2766 531 
Q 2569 213 2275 61 
Q 1981 -91 1556 -91 
Q 1019 -91 701 211 
Q 384 513 384 1019 
Q 384 1609 779 1909 
Q 1175 2209 1959 2209 
L 2766 2209 
L 2766 2266 
Q 2766 2663 2505 2880 
Q 2244 3097 1772 3097 
Q 1472 3097 1187 3025 
Q 903 2953 641 2809 
L 641 3341 
Q 956 3463 1253 3523 
Q 1550 3584 1831 3584 
Q 2591 3584 2966 3190 
Q 3341 2797 3341 1997 
z
" id="DejaVuSans-61" transform="scale(0.015625)"/>
      </defs>
      <use xlink:href="#DejaVuSans-43"/>
      <use x="69.824219" xlink:href="#DejaVuSans-6f"/>
      <use x="131.005859" xlink:href="#DejaVuSans-64"/>
      <use x="194.482422" xlink:href="#DejaVuSans-65"/>
      <use x="256.005859" xlink:href="#DejaVuSans-20"/>
      <use x="287.792969" xlink:href="#DejaVuSans-72"/>
      <use x="326.65625" xlink:href="#DejaVuSans-65"/>
      <use x="388.179688" xlink:href="#DejaVuSans-67"/>
      <use x="451.65625" xlink:href="#DejaVuSans-69"/>
      <use x="479.439453" xlink:href="#DejaVuSans-6f"/>
      <use x="540.621094" xlink:href="#DejaVuSans-6e"/>
      <use x="604" xlink:href="#DejaVuSans-20"/>
      <use x="635.787109" xlink:href="#DejaVuSans-63"/>
      <use x="690.767578" xlink:href="#DejaVuSans-6f"/>
      <use x="751.949219" xlink:href="#DejaVuSans-76"/>
      <use x="811.128906" xlink:href="#DejaVuSans-65"/>
      <use x="872.652344" xlink:href="#DejaVuSans-72"/>
      <use x="913.765625" xlink:href="#DejaVuSans-61"/>
      <use x="975.044922" xlink:href="#DejaVuSans-67"/>
      <use x="1038.521484" xlink:href="#DejaVuSans-65"/>
     </g>
    </g>
   </g>
   <g id="line2d_12">
    <path clip-path="url(#p635af7c50e)" d="M 69.560852 236.841588 
L 73.128485 226.7992 
L 76.696117 221.157409 
L 80.263749 217.659498 
L 83.831382 216.982483 
L 87.399014 211.340692 
L 90.966646 210.099498 
L 94.534279 208.858304 
L 98.101911 208.745468 
L 101.669544 206.827259 
L 105.237176 205.698901 
L 108.804808 205.021886 
L 112.372441 204.344871 
L 115.940073 204.232035 
L 119.507705 202.76517 
L 123.075338 201.41114 
L 126.64297 200.621289 
L 130.210603 193.399797 
L 133.778235 192.835618 
L 137.345867 192.948453 
L 140.9135 191.030244 
L 144.481132 187.64517 
L 148.048764 186.855319 
L 151.616397 186.855319 
L 155.184029 185.614125 
L 158.751661 184.372931 
L 162.319294 184.372931 
L 165.886926 183.131737 
L 169.454559 183.018901 
L 173.022191 182.793229 
L 176.589823 181.777707 
L 180.157456 179.972334 
L 183.725088 178.956812 
L 187.29272 177.828453 
L 190.860353 177.715618 
L 194.427985 177.489946 
L 197.995618 173.540692 
L 201.56325 173.540692 
L 205.130882 173.315021 
L 208.698515 173.315021 
L 212.266147 172.186662 
L 215.833779 172.073826 
L 219.401412 169.81711 
L 222.969044 169.81711 
L 226.536676 168.124573 
L 230.104309 168.011737 
L 233.671941 167.221886 
L 237.239574 167.221886 
L 240.807206 165.416513 
L 244.374838 165.303677 
L 247.942471 164.626662 
L 251.510103 162.482782 
L 255.077735 161.805767 
L 258.645368 161.467259 
L 262.213 161.241588 
L 265.780632 161.241588 
L 269.348265 160.90308 
L 272.915897 160.677409 
L 276.48353 158.646364 
L 280.051162 157.743677 
L 283.618794 157.518006 
L 287.186427 157.179498 
L 290.754059 156.389647 
L 294.321691 155.825468 
L 297.889324 154.584274 
L 301.456956 154.471438 
L 305.024589 154.471438 
L 308.592221 154.020095 
L 312.159853 150.409349 
L 315.727486 150.296513 
L 319.295118 150.183677 
L 322.86275 150.183677 
L 326.430383 150.183677 
L 329.998015 150.183677 
L 333.565647 149.958006 
L 337.13328 149.393826 
L 340.700912 149.280991 
L 344.268545 148.378304 
L 347.836177 147.588453 
L 351.403809 147.588453 
L 354.971442 146.460095 
L 358.539074 146.234424 
L 362.106706 143.413528 
L 365.674339 142.849349 
L 369.241971 142.172334 
L 372.809604 142.059498 
L 376.377236 141.833826 
L 379.944868 121.74905 
L 383.512501 95.119797 
L 387.080133 95.119797 
L 390.647765 93.878603 
L 394.215398 93.765767 
" style="fill:none;stroke:#98df8a;stroke-linecap:square;stroke-width:1.5;"/>
    <defs>
     <path d="M -0 3 
L 3 -3 
L -3 -3 
z
" id="m40d2ca6750" style="stroke:#ffffff;stroke-linejoin:miter;stroke-width:0.75;"/>
    </defs>
    <g clip-path="url(#p635af7c50e)">
     <use style="fill:#98df8a;stroke:#ffffff;stroke-linejoin:miter;stroke-width:0.75;" x="69.560852" xlink:href="#m40d2ca6750" y="236.841588"/>
     <use style="fill:#98df8a;stroke:#ffffff;stroke-linejoin:miter;stroke-width:0.75;" x="73.128485" xlink:href="#m40d2ca6750" y="226.7992"/>
     <use style="fill:#98df8a;stroke:#ffffff;stroke-linejoin:miter;stroke-width:0.75;" x="76.696117" xlink:href="#m40d2ca6750" y="221.157409"/>
     <use style="fill:#98df8a;stroke:#ffffff;stroke-linejoin:miter;stroke-width:0.75;" x="80.263749" xlink:href="#m40d2ca6750" y="217.659498"/>
     <use style="fill:#98df8a;stroke:#ffffff;stroke-linejoin:miter;stroke-width:0.75;" x="83.831382" xlink:href="#m40d2ca6750" y="216.982483"/>
     <use style="fill:#98df8a;stroke:#ffffff;stroke-linejoin:miter;stroke-width:0.75;" x="87.399014" xlink:href="#m40d2ca6750" y="211.340692"/>
     <use style="fill:#98df8a;stroke:#ffffff;stroke-linejoin:miter;stroke-width:0.75;" x="90.966646" xlink:href="#m40d2ca6750" y="210.099498"/>
     <use style="fill:#98df8a;stroke:#ffffff;stroke-linejoin:miter;stroke-width:0.75;" x="94.534279" xlink:href="#m40d2ca6750" y="208.858304"/>
     <use style="fill:#98df8a;stroke:#ffffff;stroke-linejoin:miter;stroke-width:0.75;" x="98.101911" xlink:href="#m40d2ca6750" y="208.745468"/>
     <use style="fill:#98df8a;stroke:#ffffff;stroke-linejoin:miter;stroke-width:0.75;" x="101.669544" xlink:href="#m40d2ca6750" y="206.827259"/>
     <use style="fill:#98df8a;stroke:#ffffff;stroke-linejoin:miter;stroke-width:0.75;" x="105.237176" xlink:href="#m40d2ca6750" y="205.698901"/>
     <use style="fill:#98df8a;stroke:#ffffff;stroke-linejoin:miter;stroke-width:0.75;" x="108.804808" xlink:href="#m40d2ca6750" y="205.021886"/>
     <use style="fill:#98df8a;stroke:#ffffff;stroke-linejoin:miter;stroke-width:0.75;" x="112.372441" xlink:href="#m40d2ca6750" y="204.344871"/>
     <use style="fill:#98df8a;stroke:#ffffff;stroke-linejoin:miter;stroke-width:0.75;" x="115.940073" xlink:href="#m40d2ca6750" y="204.232035"/>
     <use style="fill:#98df8a;stroke:#ffffff;stroke-linejoin:miter;stroke-width:0.75;" x="119.507705" xlink:href="#m40d2ca6750" y="202.76517"/>
     <use style="fill:#98df8a;stroke:#ffffff;stroke-linejoin:miter;stroke-width:0.75;" x="123.075338" xlink:href="#m40d2ca6750" y="201.41114"/>
     <use style="fill:#98df8a;stroke:#ffffff;stroke-linejoin:miter;stroke-width:0.75;" x="126.64297" xlink:href="#m40d2ca6750" y="200.621289"/>
     <use style="fill:#98df8a;stroke:#ffffff;stroke-linejoin:miter;stroke-width:0.75;" x="130.210603" xlink:href="#m40d2ca6750" y="193.399797"/>
     <use style="fill:#98df8a;stroke:#ffffff;stroke-linejoin:miter;stroke-width:0.75;" x="133.778235" xlink:href="#m40d2ca6750" y="192.835618"/>
     <use style="fill:#98df8a;stroke:#ffffff;stroke-linejoin:miter;stroke-width:0.75;" x="137.345867" xlink:href="#m40d2ca6750" y="192.948453"/>
     <use style="fill:#98df8a;stroke:#ffffff;stroke-linejoin:miter;stroke-width:0.75;" x="140.9135" xlink:href="#m40d2ca6750" y="191.030244"/>
     <use style="fill:#98df8a;stroke:#ffffff;stroke-linejoin:miter;stroke-width:0.75;" x="144.481132" xlink:href="#m40d2ca6750" y="187.64517"/>
     <use style="fill:#98df8a;stroke:#ffffff;stroke-linejoin:miter;stroke-width:0.75;" x="148.048764" xlink:href="#m40d2ca6750" y="186.855319"/>
     <use style="fill:#98df8a;stroke:#ffffff;stroke-linejoin:miter;stroke-width:0.75;" x="151.616397" xlink:href="#m40d2ca6750" y="186.855319"/>
     <use style="fill:#98df8a;stroke:#ffffff;stroke-linejoin:miter;stroke-width:0.75;" x="155.184029" xlink:href="#m40d2ca6750" y="185.614125"/>
     <use style="fill:#98df8a;stroke:#ffffff;stroke-linejoin:miter;stroke-width:0.75;" x="158.751661" xlink:href="#m40d2ca6750" y="184.372931"/>
     <use style="fill:#98df8a;stroke:#ffffff;stroke-linejoin:miter;stroke-width:0.75;" x="162.319294" xlink:href="#m40d2ca6750" y="184.372931"/>
     <use style="fill:#98df8a;stroke:#ffffff;stroke-linejoin:miter;stroke-width:0.75;" x="165.886926" xlink:href="#m40d2ca6750" y="183.131737"/>
     <use style="fill:#98df8a;stroke:#ffffff;stroke-linejoin:miter;stroke-width:0.75;" x="169.454559" xlink:href="#m40d2ca6750" y="183.018901"/>
     <use style="fill:#98df8a;stroke:#ffffff;stroke-linejoin:miter;stroke-width:0.75;" x="173.022191" xlink:href="#m40d2ca6750" y="182.793229"/>
     <use style="fill:#98df8a;stroke:#ffffff;stroke-linejoin:miter;stroke-width:0.75;" x="176.589823" xlink:href="#m40d2ca6750" y="181.777707"/>
     <use style="fill:#98df8a;stroke:#ffffff;stroke-linejoin:miter;stroke-width:0.75;" x="180.157456" xlink:href="#m40d2ca6750" y="179.972334"/>
     <use style="fill:#98df8a;stroke:#ffffff;stroke-linejoin:miter;stroke-width:0.75;" x="183.725088" xlink:href="#m40d2ca6750" y="178.956812"/>
     <use style="fill:#98df8a;stroke:#ffffff;stroke-linejoin:miter;stroke-width:0.75;" x="187.29272" xlink:href="#m40d2ca6750" y="177.828453"/>
     <use style="fill:#98df8a;stroke:#ffffff;stroke-linejoin:miter;stroke-width:0.75;" x="190.860353" xlink:href="#m40d2ca6750" y="177.715618"/>
     <use style="fill:#98df8a;stroke:#ffffff;stroke-linejoin:miter;stroke-width:0.75;" x="194.427985" xlink:href="#m40d2ca6750" y="177.489946"/>
     <use style="fill:#98df8a;stroke:#ffffff;stroke-linejoin:miter;stroke-width:0.75;" x="197.995618" xlink:href="#m40d2ca6750" y="173.540692"/>
     <use style="fill:#98df8a;stroke:#ffffff;stroke-linejoin:miter;stroke-width:0.75;" x="201.56325" xlink:href="#m40d2ca6750" y="173.540692"/>
     <use style="fill:#98df8a;stroke:#ffffff;stroke-linejoin:miter;stroke-width:0.75;" x="205.130882" xlink:href="#m40d2ca6750" y="173.315021"/>
     <use style="fill:#98df8a;stroke:#ffffff;stroke-linejoin:miter;stroke-width:0.75;" x="208.698515" xlink:href="#m40d2ca6750" y="173.315021"/>
     <use style="fill:#98df8a;stroke:#ffffff;stroke-linejoin:miter;stroke-width:0.75;" x="212.266147" xlink:href="#m40d2ca6750" y="172.186662"/>
     <use style="fill:#98df8a;stroke:#ffffff;stroke-linejoin:miter;stroke-width:0.75;" x="215.833779" xlink:href="#m40d2ca6750" y="172.073826"/>
     <use style="fill:#98df8a;stroke:#ffffff;stroke-linejoin:miter;stroke-width:0.75;" x="219.401412" xlink:href="#m40d2ca6750" y="169.81711"/>
     <use style="fill:#98df8a;stroke:#ffffff;stroke-linejoin:miter;stroke-width:0.75;" x="222.969044" xlink:href="#m40d2ca6750" y="169.81711"/>
     <use style="fill:#98df8a;stroke:#ffffff;stroke-linejoin:miter;stroke-width:0.75;" x="226.536676" xlink:href="#m40d2ca6750" y="168.124573"/>
     <use style="fill:#98df8a;stroke:#ffffff;stroke-linejoin:miter;stroke-width:0.75;" x="230.104309" xlink:href="#m40d2ca6750" y="168.011737"/>
     <use style="fill:#98df8a;stroke:#ffffff;stroke-linejoin:miter;stroke-width:0.75;" x="233.671941" xlink:href="#m40d2ca6750" y="167.221886"/>
     <use style="fill:#98df8a;stroke:#ffffff;stroke-linejoin:miter;stroke-width:0.75;" x="237.239574" xlink:href="#m40d2ca6750" y="167.221886"/>
     <use style="fill:#98df8a;stroke:#ffffff;stroke-linejoin:miter;stroke-width:0.75;" x="240.807206" xlink:href="#m40d2ca6750" y="165.416513"/>
     <use style="fill:#98df8a;stroke:#ffffff;stroke-linejoin:miter;stroke-width:0.75;" x="244.374838" xlink:href="#m40d2ca6750" y="165.303677"/>
     <use style="fill:#98df8a;stroke:#ffffff;stroke-linejoin:miter;stroke-width:0.75;" x="247.942471" xlink:href="#m40d2ca6750" y="164.626662"/>
     <use style="fill:#98df8a;stroke:#ffffff;stroke-linejoin:miter;stroke-width:0.75;" x="251.510103" xlink:href="#m40d2ca6750" y="162.482782"/>
     <use style="fill:#98df8a;stroke:#ffffff;stroke-linejoin:miter;stroke-width:0.75;" x="255.077735" xlink:href="#m40d2ca6750" y="161.805767"/>
     <use style="fill:#98df8a;stroke:#ffffff;stroke-linejoin:miter;stroke-width:0.75;" x="258.645368" xlink:href="#m40d2ca6750" y="161.467259"/>
     <use style="fill:#98df8a;stroke:#ffffff;stroke-linejoin:miter;stroke-width:0.75;" x="262.213" xlink:href="#m40d2ca6750" y="161.241588"/>
     <use style="fill:#98df8a;stroke:#ffffff;stroke-linejoin:miter;stroke-width:0.75;" x="265.780632" xlink:href="#m40d2ca6750" y="161.241588"/>
     <use style="fill:#98df8a;stroke:#ffffff;stroke-linejoin:miter;stroke-width:0.75;" x="269.348265" xlink:href="#m40d2ca6750" y="160.90308"/>
     <use style="fill:#98df8a;stroke:#ffffff;stroke-linejoin:miter;stroke-width:0.75;" x="272.915897" xlink:href="#m40d2ca6750" y="160.677409"/>
     <use style="fill:#98df8a;stroke:#ffffff;stroke-linejoin:miter;stroke-width:0.75;" x="276.48353" xlink:href="#m40d2ca6750" y="158.646364"/>
     <use style="fill:#98df8a;stroke:#ffffff;stroke-linejoin:miter;stroke-width:0.75;" x="280.051162" xlink:href="#m40d2ca6750" y="157.743677"/>
     <use style="fill:#98df8a;stroke:#ffffff;stroke-linejoin:miter;stroke-width:0.75;" x="283.618794" xlink:href="#m40d2ca6750" y="157.518006"/>
     <use style="fill:#98df8a;stroke:#ffffff;stroke-linejoin:miter;stroke-width:0.75;" x="287.186427" xlink:href="#m40d2ca6750" y="157.179498"/>
     <use style="fill:#98df8a;stroke:#ffffff;stroke-linejoin:miter;stroke-width:0.75;" x="290.754059" xlink:href="#m40d2ca6750" y="156.389647"/>
     <use style="fill:#98df8a;stroke:#ffffff;stroke-linejoin:miter;stroke-width:0.75;" x="294.321691" xlink:href="#m40d2ca6750" y="155.825468"/>
     <use style="fill:#98df8a;stroke:#ffffff;stroke-linejoin:miter;stroke-width:0.75;" x="297.889324" xlink:href="#m40d2ca6750" y="154.584274"/>
     <use style="fill:#98df8a;stroke:#ffffff;stroke-linejoin:miter;stroke-width:0.75;" x="301.456956" xlink:href="#m40d2ca6750" y="154.471438"/>
     <use style="fill:#98df8a;stroke:#ffffff;stroke-linejoin:miter;stroke-width:0.75;" x="305.024589" xlink:href="#m40d2ca6750" y="154.471438"/>
     <use style="fill:#98df8a;stroke:#ffffff;stroke-linejoin:miter;stroke-width:0.75;" x="308.592221" xlink:href="#m40d2ca6750" y="154.020095"/>
     <use style="fill:#98df8a;stroke:#ffffff;stroke-linejoin:miter;stroke-width:0.75;" x="312.159853" xlink:href="#m40d2ca6750" y="150.409349"/>
     <use style="fill:#98df8a;stroke:#ffffff;stroke-linejoin:miter;stroke-width:0.75;" x="315.727486" xlink:href="#m40d2ca6750" y="150.296513"/>
     <use style="fill:#98df8a;stroke:#ffffff;stroke-linejoin:miter;stroke-width:0.75;" x="319.295118" xlink:href="#m40d2ca6750" y="150.183677"/>
     <use style="fill:#98df8a;stroke:#ffffff;stroke-linejoin:miter;stroke-width:0.75;" x="322.86275" xlink:href="#m40d2ca6750" y="150.183677"/>
     <use style="fill:#98df8a;stroke:#ffffff;stroke-linejoin:miter;stroke-width:0.75;" x="326.430383" xlink:href="#m40d2ca6750" y="150.183677"/>
     <use style="fill:#98df8a;stroke:#ffffff;stroke-linejoin:miter;stroke-width:0.75;" x="329.998015" xlink:href="#m40d2ca6750" y="150.183677"/>
     <use style="fill:#98df8a;stroke:#ffffff;stroke-linejoin:miter;stroke-width:0.75;" x="333.565647" xlink:href="#m40d2ca6750" y="149.958006"/>
     <use style="fill:#98df8a;stroke:#ffffff;stroke-linejoin:miter;stroke-width:0.75;" x="337.13328" xlink:href="#m40d2ca6750" y="149.393826"/>
     <use style="fill:#98df8a;stroke:#ffffff;stroke-linejoin:miter;stroke-width:0.75;" x="340.700912" xlink:href="#m40d2ca6750" y="149.280991"/>
     <use style="fill:#98df8a;stroke:#ffffff;stroke-linejoin:miter;stroke-width:0.75;" x="344.268545" xlink:href="#m40d2ca6750" y="148.378304"/>
     <use style="fill:#98df8a;stroke:#ffffff;stroke-linejoin:miter;stroke-width:0.75;" x="347.836177" xlink:href="#m40d2ca6750" y="147.588453"/>
     <use style="fill:#98df8a;stroke:#ffffff;stroke-linejoin:miter;stroke-width:0.75;" x="351.403809" xlink:href="#m40d2ca6750" y="147.588453"/>
     <use style="fill:#98df8a;stroke:#ffffff;stroke-linejoin:miter;stroke-width:0.75;" x="354.971442" xlink:href="#m40d2ca6750" y="146.460095"/>
     <use style="fill:#98df8a;stroke:#ffffff;stroke-linejoin:miter;stroke-width:0.75;" x="358.539074" xlink:href="#m40d2ca6750" y="146.234424"/>
     <use style="fill:#98df8a;stroke:#ffffff;stroke-linejoin:miter;stroke-width:0.75;" x="362.106706" xlink:href="#m40d2ca6750" y="143.413528"/>
     <use style="fill:#98df8a;stroke:#ffffff;stroke-linejoin:miter;stroke-width:0.75;" x="365.674339" xlink:href="#m40d2ca6750" y="142.849349"/>
     <use style="fill:#98df8a;stroke:#ffffff;stroke-linejoin:miter;stroke-width:0.75;" x="369.241971" xlink:href="#m40d2ca6750" y="142.172334"/>
     <use style="fill:#98df8a;stroke:#ffffff;stroke-linejoin:miter;stroke-width:0.75;" x="372.809604" xlink:href="#m40d2ca6750" y="142.059498"/>
     <use style="fill:#98df8a;stroke:#ffffff;stroke-linejoin:miter;stroke-width:0.75;" x="376.377236" xlink:href="#m40d2ca6750" y="141.833826"/>
     <use style="fill:#98df8a;stroke:#ffffff;stroke-linejoin:miter;stroke-width:0.75;" x="379.944868" xlink:href="#m40d2ca6750" y="121.74905"/>
     <use style="fill:#98df8a;stroke:#ffffff;stroke-linejoin:miter;stroke-width:0.75;" x="383.512501" xlink:href="#m40d2ca6750" y="95.119797"/>
     <use style="fill:#98df8a;stroke:#ffffff;stroke-linejoin:miter;stroke-width:0.75;" x="387.080133" xlink:href="#m40d2ca6750" y="95.119797"/>
     <use style="fill:#98df8a;stroke:#ffffff;stroke-linejoin:miter;stroke-width:0.75;" x="390.647765" xlink:href="#m40d2ca6750" y="93.878603"/>
     <use style="fill:#98df8a;stroke:#ffffff;stroke-linejoin:miter;stroke-width:0.75;" x="394.215398" xlink:href="#m40d2ca6750" y="93.765767"/>
    </g>
   </g>
   <g id="line2d_13">
    <path clip-path="url(#p635af7c50e)" d="M 69.560852 244.627259 
L 73.128485 229.732931 
L 76.696117 220.818901 
L 80.263749 211.002185 
L 83.831382 201.185468 
L 87.399014 196.672035 
L 90.966646 193.399797 
L 94.534279 192.384274 
L 98.101911 189.901886 
L 101.669544 187.306662 
L 105.237176 187.080991 
L 108.804808 185.614125 
L 112.372441 183.357409 
L 115.940073 182.680394 
L 119.507705 182.22905 
L 123.075338 180.649349 
L 126.64297 180.423677 
L 130.210603 178.956812 
L 133.778235 177.151438 
L 137.345867 176.812931 
L 140.9135 176.135916 
L 144.481132 176.248752 
L 148.048764 175.797409 
L 151.616397 175.120394 
L 155.184029 175.120394 
L 158.751661 174.781886 
L 162.319294 174.556215 
L 165.886926 174.217707 
L 169.454559 173.766364 
L 173.022191 173.427856 
L 176.589823 173.315021 
L 180.157456 173.202185 
L 183.725088 173.202185 
L 187.29272 173.089349 
L 190.860353 172.976513 
L 194.427985 172.863677 
L 197.995618 172.863677 
L 201.56325 172.750841 
L 205.130882 172.750841 
L 208.698515 172.52517 
L 212.266147 172.52517 
L 215.833779 172.412334 
L 219.401412 171.848155 
L 222.969044 171.509647 
L 226.536676 171.622483 
L 230.104309 171.283976 
L 233.671941 171.058304 
L 237.239574 170.606961 
L 240.807206 170.268453 
L 244.374838 170.042782 
L 247.942471 169.81711 
L 251.510103 169.704274 
L 255.077735 169.704274 
L 258.645368 169.478603 
L 262.213 169.365767 
L 265.780632 169.140095 
L 269.348265 169.140095 
L 272.915897 169.140095 
L 276.48353 168.575916 
L 280.051162 168.124573 
L 283.618794 168.124573 
L 287.186427 168.011737 
L 290.754059 168.124573 
L 294.321691 168.011737 
L 297.889324 167.447558 
L 301.456956 167.447558 
L 305.024589 167.334722 
L 308.592221 167.221886 
L 312.159853 167.221886 
L 315.727486 166.996215 
L 319.295118 166.996215 
L 322.86275 166.996215 
L 326.430383 166.770543 
L 329.998015 166.432035 
L 333.565647 166.432035 
L 337.13328 166.432035 
L 340.700912 166.432035 
L 344.268545 165.980692 
L 347.836177 165.980692 
L 351.403809 165.980692 
L 354.971442 165.980692 
L 358.539074 165.867856 
L 362.106706 165.529349 
L 365.674339 165.416513 
L 369.241971 165.416513 
L 372.809604 165.303677 
L 376.377236 165.303677 
L 379.944868 165.303677 
L 383.512501 165.303677 
L 387.080133 165.190841 
L 390.647765 165.190841 
L 394.215398 165.190841 
" style="fill:none;stroke:#d62728;stroke-linecap:square;stroke-width:1.5;"/>
    <defs>
     <path d="M 0 -3 
L -3 3 
L 3 3 
z
" id="m6555cd998c" style="stroke:#ffffff;stroke-linejoin:miter;stroke-width:0.75;"/>
    </defs>
    <g clip-path="url(#p635af7c50e)">
     <use style="fill:#d62728;stroke:#ffffff;stroke-linejoin:miter;stroke-width:0.75;" x="69.560852" xlink:href="#m6555cd998c" y="244.627259"/>
     <use style="fill:#d62728;stroke:#ffffff;stroke-linejoin:miter;stroke-width:0.75;" x="73.128485" xlink:href="#m6555cd998c" y="229.732931"/>
     <use style="fill:#d62728;stroke:#ffffff;stroke-linejoin:miter;stroke-width:0.75;" x="76.696117" xlink:href="#m6555cd998c" y="220.818901"/>
     <use style="fill:#d62728;stroke:#ffffff;stroke-linejoin:miter;stroke-width:0.75;" x="80.263749" xlink:href="#m6555cd998c" y="211.002185"/>
     <use style="fill:#d62728;stroke:#ffffff;stroke-linejoin:miter;stroke-width:0.75;" x="83.831382" xlink:href="#m6555cd998c" y="201.185468"/>
     <use style="fill:#d62728;stroke:#ffffff;stroke-linejoin:miter;stroke-width:0.75;" x="87.399014" xlink:href="#m6555cd998c" y="196.672035"/>
     <use style="fill:#d62728;stroke:#ffffff;stroke-linejoin:miter;stroke-width:0.75;" x="90.966646" xlink:href="#m6555cd998c" y="193.399797"/>
     <use style="fill:#d62728;stroke:#ffffff;stroke-linejoin:miter;stroke-width:0.75;" x="94.534279" xlink:href="#m6555cd998c" y="192.384274"/>
     <use style="fill:#d62728;stroke:#ffffff;stroke-linejoin:miter;stroke-width:0.75;" x="98.101911" xlink:href="#m6555cd998c" y="189.901886"/>
     <use style="fill:#d62728;stroke:#ffffff;stroke-linejoin:miter;stroke-width:0.75;" x="101.669544" xlink:href="#m6555cd998c" y="187.306662"/>
     <use style="fill:#d62728;stroke:#ffffff;stroke-linejoin:miter;stroke-width:0.75;" x="105.237176" xlink:href="#m6555cd998c" y="187.080991"/>
     <use style="fill:#d62728;stroke:#ffffff;stroke-linejoin:miter;stroke-width:0.75;" x="108.804808" xlink:href="#m6555cd998c" y="185.614125"/>
     <use style="fill:#d62728;stroke:#ffffff;stroke-linejoin:miter;stroke-width:0.75;" x="112.372441" xlink:href="#m6555cd998c" y="183.357409"/>
     <use style="fill:#d62728;stroke:#ffffff;stroke-linejoin:miter;stroke-width:0.75;" x="115.940073" xlink:href="#m6555cd998c" y="182.680394"/>
     <use style="fill:#d62728;stroke:#ffffff;stroke-linejoin:miter;stroke-width:0.75;" x="119.507705" xlink:href="#m6555cd998c" y="182.22905"/>
     <use style="fill:#d62728;stroke:#ffffff;stroke-linejoin:miter;stroke-width:0.75;" x="123.075338" xlink:href="#m6555cd998c" y="180.649349"/>
     <use style="fill:#d62728;stroke:#ffffff;stroke-linejoin:miter;stroke-width:0.75;" x="126.64297" xlink:href="#m6555cd998c" y="180.423677"/>
     <use style="fill:#d62728;stroke:#ffffff;stroke-linejoin:miter;stroke-width:0.75;" x="130.210603" xlink:href="#m6555cd998c" y="178.956812"/>
     <use style="fill:#d62728;stroke:#ffffff;stroke-linejoin:miter;stroke-width:0.75;" x="133.778235" xlink:href="#m6555cd998c" y="177.151438"/>
     <use style="fill:#d62728;stroke:#ffffff;stroke-linejoin:miter;stroke-width:0.75;" x="137.345867" xlink:href="#m6555cd998c" y="176.812931"/>
     <use style="fill:#d62728;stroke:#ffffff;stroke-linejoin:miter;stroke-width:0.75;" x="140.9135" xlink:href="#m6555cd998c" y="176.135916"/>
     <use style="fill:#d62728;stroke:#ffffff;stroke-linejoin:miter;stroke-width:0.75;" x="144.481132" xlink:href="#m6555cd998c" y="176.248752"/>
     <use style="fill:#d62728;stroke:#ffffff;stroke-linejoin:miter;stroke-width:0.75;" x="148.048764" xlink:href="#m6555cd998c" y="175.797409"/>
     <use style="fill:#d62728;stroke:#ffffff;stroke-linejoin:miter;stroke-width:0.75;" x="151.616397" xlink:href="#m6555cd998c" y="175.120394"/>
     <use style="fill:#d62728;stroke:#ffffff;stroke-linejoin:miter;stroke-width:0.75;" x="155.184029" xlink:href="#m6555cd998c" y="175.120394"/>
     <use style="fill:#d62728;stroke:#ffffff;stroke-linejoin:miter;stroke-width:0.75;" x="158.751661" xlink:href="#m6555cd998c" y="174.781886"/>
     <use style="fill:#d62728;stroke:#ffffff;stroke-linejoin:miter;stroke-width:0.75;" x="162.319294" xlink:href="#m6555cd998c" y="174.556215"/>
     <use style="fill:#d62728;stroke:#ffffff;stroke-linejoin:miter;stroke-width:0.75;" x="165.886926" xlink:href="#m6555cd998c" y="174.217707"/>
     <use style="fill:#d62728;stroke:#ffffff;stroke-linejoin:miter;stroke-width:0.75;" x="169.454559" xlink:href="#m6555cd998c" y="173.766364"/>
     <use style="fill:#d62728;stroke:#ffffff;stroke-linejoin:miter;stroke-width:0.75;" x="173.022191" xlink:href="#m6555cd998c" y="173.427856"/>
     <use style="fill:#d62728;stroke:#ffffff;stroke-linejoin:miter;stroke-width:0.75;" x="176.589823" xlink:href="#m6555cd998c" y="173.315021"/>
     <use style="fill:#d62728;stroke:#ffffff;stroke-linejoin:miter;stroke-width:0.75;" x="180.157456" xlink:href="#m6555cd998c" y="173.202185"/>
     <use style="fill:#d62728;stroke:#ffffff;stroke-linejoin:miter;stroke-width:0.75;" x="183.725088" xlink:href="#m6555cd998c" y="173.202185"/>
     <use style="fill:#d62728;stroke:#ffffff;stroke-linejoin:miter;stroke-width:0.75;" x="187.29272" xlink:href="#m6555cd998c" y="173.089349"/>
     <use style="fill:#d62728;stroke:#ffffff;stroke-linejoin:miter;stroke-width:0.75;" x="190.860353" xlink:href="#m6555cd998c" y="172.976513"/>
     <use style="fill:#d62728;stroke:#ffffff;stroke-linejoin:miter;stroke-width:0.75;" x="194.427985" xlink:href="#m6555cd998c" y="172.863677"/>
     <use style="fill:#d62728;stroke:#ffffff;stroke-linejoin:miter;stroke-width:0.75;" x="197.995618" xlink:href="#m6555cd998c" y="172.863677"/>
     <use style="fill:#d62728;stroke:#ffffff;stroke-linejoin:miter;stroke-width:0.75;" x="201.56325" xlink:href="#m6555cd998c" y="172.750841"/>
     <use style="fill:#d62728;stroke:#ffffff;stroke-linejoin:miter;stroke-width:0.75;" x="205.130882" xlink:href="#m6555cd998c" y="172.750841"/>
     <use style="fill:#d62728;stroke:#ffffff;stroke-linejoin:miter;stroke-width:0.75;" x="208.698515" xlink:href="#m6555cd998c" y="172.52517"/>
     <use style="fill:#d62728;stroke:#ffffff;stroke-linejoin:miter;stroke-width:0.75;" x="212.266147" xlink:href="#m6555cd998c" y="172.52517"/>
     <use style="fill:#d62728;stroke:#ffffff;stroke-linejoin:miter;stroke-width:0.75;" x="215.833779" xlink:href="#m6555cd998c" y="172.412334"/>
     <use style="fill:#d62728;stroke:#ffffff;stroke-linejoin:miter;stroke-width:0.75;" x="219.401412" xlink:href="#m6555cd998c" y="171.848155"/>
     <use style="fill:#d62728;stroke:#ffffff;stroke-linejoin:miter;stroke-width:0.75;" x="222.969044" xlink:href="#m6555cd998c" y="171.509647"/>
     <use style="fill:#d62728;stroke:#ffffff;stroke-linejoin:miter;stroke-width:0.75;" x="226.536676" xlink:href="#m6555cd998c" y="171.622483"/>
     <use style="fill:#d62728;stroke:#ffffff;stroke-linejoin:miter;stroke-width:0.75;" x="230.104309" xlink:href="#m6555cd998c" y="171.283976"/>
     <use style="fill:#d62728;stroke:#ffffff;stroke-linejoin:miter;stroke-width:0.75;" x="233.671941" xlink:href="#m6555cd998c" y="171.058304"/>
     <use style="fill:#d62728;stroke:#ffffff;stroke-linejoin:miter;stroke-width:0.75;" x="237.239574" xlink:href="#m6555cd998c" y="170.606961"/>
     <use style="fill:#d62728;stroke:#ffffff;stroke-linejoin:miter;stroke-width:0.75;" x="240.807206" xlink:href="#m6555cd998c" y="170.268453"/>
     <use style="fill:#d62728;stroke:#ffffff;stroke-linejoin:miter;stroke-width:0.75;" x="244.374838" xlink:href="#m6555cd998c" y="170.042782"/>
     <use style="fill:#d62728;stroke:#ffffff;stroke-linejoin:miter;stroke-width:0.75;" x="247.942471" xlink:href="#m6555cd998c" y="169.81711"/>
     <use style="fill:#d62728;stroke:#ffffff;stroke-linejoin:miter;stroke-width:0.75;" x="251.510103" xlink:href="#m6555cd998c" y="169.704274"/>
     <use style="fill:#d62728;stroke:#ffffff;stroke-linejoin:miter;stroke-width:0.75;" x="255.077735" xlink:href="#m6555cd998c" y="169.704274"/>
     <use style="fill:#d62728;stroke:#ffffff;stroke-linejoin:miter;stroke-width:0.75;" x="258.645368" xlink:href="#m6555cd998c" y="169.478603"/>
     <use style="fill:#d62728;stroke:#ffffff;stroke-linejoin:miter;stroke-width:0.75;" x="262.213" xlink:href="#m6555cd998c" y="169.365767"/>
     <use style="fill:#d62728;stroke:#ffffff;stroke-linejoin:miter;stroke-width:0.75;" x="265.780632" xlink:href="#m6555cd998c" y="169.140095"/>
     <use style="fill:#d62728;stroke:#ffffff;stroke-linejoin:miter;stroke-width:0.75;" x="269.348265" xlink:href="#m6555cd998c" y="169.140095"/>
     <use style="fill:#d62728;stroke:#ffffff;stroke-linejoin:miter;stroke-width:0.75;" x="272.915897" xlink:href="#m6555cd998c" y="169.140095"/>
     <use style="fill:#d62728;stroke:#ffffff;stroke-linejoin:miter;stroke-width:0.75;" x="276.48353" xlink:href="#m6555cd998c" y="168.575916"/>
     <use style="fill:#d62728;stroke:#ffffff;stroke-linejoin:miter;stroke-width:0.75;" x="280.051162" xlink:href="#m6555cd998c" y="168.124573"/>
     <use style="fill:#d62728;stroke:#ffffff;stroke-linejoin:miter;stroke-width:0.75;" x="283.618794" xlink:href="#m6555cd998c" y="168.124573"/>
     <use style="fill:#d62728;stroke:#ffffff;stroke-linejoin:miter;stroke-width:0.75;" x="287.186427" xlink:href="#m6555cd998c" y="168.011737"/>
     <use style="fill:#d62728;stroke:#ffffff;stroke-linejoin:miter;stroke-width:0.75;" x="290.754059" xlink:href="#m6555cd998c" y="168.124573"/>
     <use style="fill:#d62728;stroke:#ffffff;stroke-linejoin:miter;stroke-width:0.75;" x="294.321691" xlink:href="#m6555cd998c" y="168.011737"/>
     <use style="fill:#d62728;stroke:#ffffff;stroke-linejoin:miter;stroke-width:0.75;" x="297.889324" xlink:href="#m6555cd998c" y="167.447558"/>
     <use style="fill:#d62728;stroke:#ffffff;stroke-linejoin:miter;stroke-width:0.75;" x="301.456956" xlink:href="#m6555cd998c" y="167.447558"/>
     <use style="fill:#d62728;stroke:#ffffff;stroke-linejoin:miter;stroke-width:0.75;" x="305.024589" xlink:href="#m6555cd998c" y="167.334722"/>
     <use style="fill:#d62728;stroke:#ffffff;stroke-linejoin:miter;stroke-width:0.75;" x="308.592221" xlink:href="#m6555cd998c" y="167.221886"/>
     <use style="fill:#d62728;stroke:#ffffff;stroke-linejoin:miter;stroke-width:0.75;" x="312.159853" xlink:href="#m6555cd998c" y="167.221886"/>
     <use style="fill:#d62728;stroke:#ffffff;stroke-linejoin:miter;stroke-width:0.75;" x="315.727486" xlink:href="#m6555cd998c" y="166.996215"/>
     <use style="fill:#d62728;stroke:#ffffff;stroke-linejoin:miter;stroke-width:0.75;" x="319.295118" xlink:href="#m6555cd998c" y="166.996215"/>
     <use style="fill:#d62728;stroke:#ffffff;stroke-linejoin:miter;stroke-width:0.75;" x="322.86275" xlink:href="#m6555cd998c" y="166.996215"/>
     <use style="fill:#d62728;stroke:#ffffff;stroke-linejoin:miter;stroke-width:0.75;" x="326.430383" xlink:href="#m6555cd998c" y="166.770543"/>
     <use style="fill:#d62728;stroke:#ffffff;stroke-linejoin:miter;stroke-width:0.75;" x="329.998015" xlink:href="#m6555cd998c" y="166.432035"/>
     <use style="fill:#d62728;stroke:#ffffff;stroke-linejoin:miter;stroke-width:0.75;" x="333.565647" xlink:href="#m6555cd998c" y="166.432035"/>
     <use style="fill:#d62728;stroke:#ffffff;stroke-linejoin:miter;stroke-width:0.75;" x="337.13328" xlink:href="#m6555cd998c" y="166.432035"/>
     <use style="fill:#d62728;stroke:#ffffff;stroke-linejoin:miter;stroke-width:0.75;" x="340.700912" xlink:href="#m6555cd998c" y="166.432035"/>
     <use style="fill:#d62728;stroke:#ffffff;stroke-linejoin:miter;stroke-width:0.75;" x="344.268545" xlink:href="#m6555cd998c" y="165.980692"/>
     <use style="fill:#d62728;stroke:#ffffff;stroke-linejoin:miter;stroke-width:0.75;" x="347.836177" xlink:href="#m6555cd998c" y="165.980692"/>
     <use style="fill:#d62728;stroke:#ffffff;stroke-linejoin:miter;stroke-width:0.75;" x="351.403809" xlink:href="#m6555cd998c" y="165.980692"/>
     <use style="fill:#d62728;stroke:#ffffff;stroke-linejoin:miter;stroke-width:0.75;" x="354.971442" xlink:href="#m6555cd998c" y="165.980692"/>
     <use style="fill:#d62728;stroke:#ffffff;stroke-linejoin:miter;stroke-width:0.75;" x="358.539074" xlink:href="#m6555cd998c" y="165.867856"/>
     <use style="fill:#d62728;stroke:#ffffff;stroke-linejoin:miter;stroke-width:0.75;" x="362.106706" xlink:href="#m6555cd998c" y="165.529349"/>
     <use style="fill:#d62728;stroke:#ffffff;stroke-linejoin:miter;stroke-width:0.75;" x="365.674339" xlink:href="#m6555cd998c" y="165.416513"/>
     <use style="fill:#d62728;stroke:#ffffff;stroke-linejoin:miter;stroke-width:0.75;" x="369.241971" xlink:href="#m6555cd998c" y="165.416513"/>
     <use style="fill:#d62728;stroke:#ffffff;stroke-linejoin:miter;stroke-width:0.75;" x="372.809604" xlink:href="#m6555cd998c" y="165.303677"/>
     <use style="fill:#d62728;stroke:#ffffff;stroke-linejoin:miter;stroke-width:0.75;" x="376.377236" xlink:href="#m6555cd998c" y="165.303677"/>
     <use style="fill:#d62728;stroke:#ffffff;stroke-linejoin:miter;stroke-width:0.75;" x="379.944868" xlink:href="#m6555cd998c" y="165.303677"/>
     <use style="fill:#d62728;stroke:#ffffff;stroke-linejoin:miter;stroke-width:0.75;" x="383.512501" xlink:href="#m6555cd998c" y="165.303677"/>
     <use style="fill:#d62728;stroke:#ffffff;stroke-linejoin:miter;stroke-width:0.75;" x="387.080133" xlink:href="#m6555cd998c" y="165.190841"/>
     <use style="fill:#d62728;stroke:#ffffff;stroke-linejoin:miter;stroke-width:0.75;" x="390.647765" xlink:href="#m6555cd998c" y="165.190841"/>
     <use style="fill:#d62728;stroke:#ffffff;stroke-linejoin:miter;stroke-width:0.75;" x="394.215398" xlink:href="#m6555cd998c" y="165.190841"/>
    </g>
   </g>
   <g id="line2d_14">
    <path clip-path="url(#p635af7c50e)" d="M 69.560852 254.782483 
L 73.128485 232.215319 
L 76.696117 220.367558 
L 80.263749 216.418304 
L 83.831382 206.488752 
L 87.399014 200.621289 
L 90.966646 198.477409 
L 94.534279 194.866662 
L 98.101911 191.255916 
L 101.669544 190.014722 
L 105.237176 189.337707 
L 108.804808 188.096513 
L 112.372441 185.614125 
L 115.940073 182.454722 
L 119.507705 179.633826 
L 123.075338 177.941289 
L 126.64297 176.925767 
L 130.210603 176.587259 
L 133.778235 176.474424 
L 137.345867 175.910244 
L 140.9135 175.233229 
L 144.481132 175.120394 
L 148.048764 173.766364 
L 151.616397 173.766364 
L 155.184029 173.315021 
L 158.751661 172.863677 
L 162.319294 172.863677 
L 165.886926 171.396812 
L 169.454559 170.945468 
L 173.022191 170.832632 
L 176.589823 170.832632 
L 180.157456 170.606961 
L 183.725088 170.381289 
L 187.29272 170.381289 
L 190.860353 170.268453 
L 194.427985 170.268453 
L 197.995618 170.155618 
L 201.56325 170.155618 
L 205.130882 170.155618 
L 208.698515 169.704274 
L 212.266147 169.704274 
L 215.833779 169.704274 
L 219.401412 169.704274 
L 222.969044 169.591438 
L 226.536676 169.704274 
L 230.104309 169.704274 
L 233.671941 169.591438 
L 237.239574 169.591438 
L 240.807206 169.591438 
L 244.374838 169.252931 
L 247.942471 169.140095 
L 251.510103 168.575916 
L 255.077735 168.575916 
L 258.645368 168.46308 
L 262.213 168.46308 
L 265.780632 168.46308 
L 269.348265 168.237409 
L 272.915897 168.237409 
L 276.48353 168.237409 
L 280.051162 168.011737 
L 283.618794 168.011737 
L 287.186427 168.011737 
L 290.754059 167.898901 
L 294.321691 167.898901 
L 297.889324 167.786065 
L 301.456956 167.786065 
L 305.024589 167.786065 
L 308.592221 167.786065 
L 312.159853 167.221886 
L 315.727486 167.221886 
L 319.295118 166.996215 
L 322.86275 166.996215 
L 326.430383 166.996215 
L 329.998015 166.883379 
L 333.565647 166.657707 
L 337.13328 166.657707 
L 340.700912 166.544871 
L 344.268545 166.544871 
L 347.836177 166.432035 
L 351.403809 166.432035 
L 354.971442 166.432035 
L 358.539074 166.432035 
L 362.106706 166.432035 
L 365.674339 166.432035 
L 369.241971 166.432035 
L 372.809604 166.432035 
L 376.377236 166.432035 
L 379.944868 166.432035 
L 383.512501 166.432035 
L 387.080133 166.432035 
L 390.647765 166.432035 
L 394.215398 166.432035 
" style="fill:none;stroke:#1f77b4;stroke-linecap:square;stroke-width:1.5;"/>
    <defs>
     <path d="M 0 3 
C 0.795609 3 1.55874 2.683901 2.12132 2.12132 
C 2.683901 1.55874 3 0.795609 3 0 
C 3 -0.795609 2.683901 -1.55874 2.12132 -2.12132 
C 1.55874 -2.683901 0.795609 -3 0 -3 
C -0.795609 -3 -1.55874 -2.683901 -2.12132 -2.12132 
C -2.683901 -1.55874 -3 -0.795609 -3 0 
C -3 0.795609 -2.683901 1.55874 -2.12132 2.12132 
C -1.55874 2.683901 -0.795609 3 0 3 
z
" id="m675a57df0b" style="stroke:#ffffff;stroke-width:0.75;"/>
    </defs>
    <g clip-path="url(#p635af7c50e)">
     <use style="fill:#1f77b4;stroke:#ffffff;stroke-width:0.75;" x="69.560852" xlink:href="#m675a57df0b" y="254.782483"/>
     <use style="fill:#1f77b4;stroke:#ffffff;stroke-width:0.75;" x="73.128485" xlink:href="#m675a57df0b" y="232.215319"/>
     <use style="fill:#1f77b4;stroke:#ffffff;stroke-width:0.75;" x="76.696117" xlink:href="#m675a57df0b" y="220.367558"/>
     <use style="fill:#1f77b4;stroke:#ffffff;stroke-width:0.75;" x="80.263749" xlink:href="#m675a57df0b" y="216.418304"/>
     <use style="fill:#1f77b4;stroke:#ffffff;stroke-width:0.75;" x="83.831382" xlink:href="#m675a57df0b" y="206.488752"/>
     <use style="fill:#1f77b4;stroke:#ffffff;stroke-width:0.75;" x="87.399014" xlink:href="#m675a57df0b" y="200.621289"/>
     <use style="fill:#1f77b4;stroke:#ffffff;stroke-width:0.75;" x="90.966646" xlink:href="#m675a57df0b" y="198.477409"/>
     <use style="fill:#1f77b4;stroke:#ffffff;stroke-width:0.75;" x="94.534279" xlink:href="#m675a57df0b" y="194.866662"/>
     <use style="fill:#1f77b4;stroke:#ffffff;stroke-width:0.75;" x="98.101911" xlink:href="#m675a57df0b" y="191.255916"/>
     <use style="fill:#1f77b4;stroke:#ffffff;stroke-width:0.75;" x="101.669544" xlink:href="#m675a57df0b" y="190.014722"/>
     <use style="fill:#1f77b4;stroke:#ffffff;stroke-width:0.75;" x="105.237176" xlink:href="#m675a57df0b" y="189.337707"/>
     <use style="fill:#1f77b4;stroke:#ffffff;stroke-width:0.75;" x="108.804808" xlink:href="#m675a57df0b" y="188.096513"/>
     <use style="fill:#1f77b4;stroke:#ffffff;stroke-width:0.75;" x="112.372441" xlink:href="#m675a57df0b" y="185.614125"/>
     <use style="fill:#1f77b4;stroke:#ffffff;stroke-width:0.75;" x="115.940073" xlink:href="#m675a57df0b" y="182.454722"/>
     <use style="fill:#1f77b4;stroke:#ffffff;stroke-width:0.75;" x="119.507705" xlink:href="#m675a57df0b" y="179.633826"/>
     <use style="fill:#1f77b4;stroke:#ffffff;stroke-width:0.75;" x="123.075338" xlink:href="#m675a57df0b" y="177.941289"/>
     <use style="fill:#1f77b4;stroke:#ffffff;stroke-width:0.75;" x="126.64297" xlink:href="#m675a57df0b" y="176.925767"/>
     <use style="fill:#1f77b4;stroke:#ffffff;stroke-width:0.75;" x="130.210603" xlink:href="#m675a57df0b" y="176.587259"/>
     <use style="fill:#1f77b4;stroke:#ffffff;stroke-width:0.75;" x="133.778235" xlink:href="#m675a57df0b" y="176.474424"/>
     <use style="fill:#1f77b4;stroke:#ffffff;stroke-width:0.75;" x="137.345867" xlink:href="#m675a57df0b" y="175.910244"/>
     <use style="fill:#1f77b4;stroke:#ffffff;stroke-width:0.75;" x="140.9135" xlink:href="#m675a57df0b" y="175.233229"/>
     <use style="fill:#1f77b4;stroke:#ffffff;stroke-width:0.75;" x="144.481132" xlink:href="#m675a57df0b" y="175.120394"/>
     <use style="fill:#1f77b4;stroke:#ffffff;stroke-width:0.75;" x="148.048764" xlink:href="#m675a57df0b" y="173.766364"/>
     <use style="fill:#1f77b4;stroke:#ffffff;stroke-width:0.75;" x="151.616397" xlink:href="#m675a57df0b" y="173.766364"/>
     <use style="fill:#1f77b4;stroke:#ffffff;stroke-width:0.75;" x="155.184029" xlink:href="#m675a57df0b" y="173.315021"/>
     <use style="fill:#1f77b4;stroke:#ffffff;stroke-width:0.75;" x="158.751661" xlink:href="#m675a57df0b" y="172.863677"/>
     <use style="fill:#1f77b4;stroke:#ffffff;stroke-width:0.75;" x="162.319294" xlink:href="#m675a57df0b" y="172.863677"/>
     <use style="fill:#1f77b4;stroke:#ffffff;stroke-width:0.75;" x="165.886926" xlink:href="#m675a57df0b" y="171.396812"/>
     <use style="fill:#1f77b4;stroke:#ffffff;stroke-width:0.75;" x="169.454559" xlink:href="#m675a57df0b" y="170.945468"/>
     <use style="fill:#1f77b4;stroke:#ffffff;stroke-width:0.75;" x="173.022191" xlink:href="#m675a57df0b" y="170.832632"/>
     <use style="fill:#1f77b4;stroke:#ffffff;stroke-width:0.75;" x="176.589823" xlink:href="#m675a57df0b" y="170.832632"/>
     <use style="fill:#1f77b4;stroke:#ffffff;stroke-width:0.75;" x="180.157456" xlink:href="#m675a57df0b" y="170.606961"/>
     <use style="fill:#1f77b4;stroke:#ffffff;stroke-width:0.75;" x="183.725088" xlink:href="#m675a57df0b" y="170.381289"/>
     <use style="fill:#1f77b4;stroke:#ffffff;stroke-width:0.75;" x="187.29272" xlink:href="#m675a57df0b" y="170.381289"/>
     <use style="fill:#1f77b4;stroke:#ffffff;stroke-width:0.75;" x="190.860353" xlink:href="#m675a57df0b" y="170.268453"/>
     <use style="fill:#1f77b4;stroke:#ffffff;stroke-width:0.75;" x="194.427985" xlink:href="#m675a57df0b" y="170.268453"/>
     <use style="fill:#1f77b4;stroke:#ffffff;stroke-width:0.75;" x="197.995618" xlink:href="#m675a57df0b" y="170.155618"/>
     <use style="fill:#1f77b4;stroke:#ffffff;stroke-width:0.75;" x="201.56325" xlink:href="#m675a57df0b" y="170.155618"/>
     <use style="fill:#1f77b4;stroke:#ffffff;stroke-width:0.75;" x="205.130882" xlink:href="#m675a57df0b" y="170.155618"/>
     <use style="fill:#1f77b4;stroke:#ffffff;stroke-width:0.75;" x="208.698515" xlink:href="#m675a57df0b" y="169.704274"/>
     <use style="fill:#1f77b4;stroke:#ffffff;stroke-width:0.75;" x="212.266147" xlink:href="#m675a57df0b" y="169.704274"/>
     <use style="fill:#1f77b4;stroke:#ffffff;stroke-width:0.75;" x="215.833779" xlink:href="#m675a57df0b" y="169.704274"/>
     <use style="fill:#1f77b4;stroke:#ffffff;stroke-width:0.75;" x="219.401412" xlink:href="#m675a57df0b" y="169.704274"/>
     <use style="fill:#1f77b4;stroke:#ffffff;stroke-width:0.75;" x="222.969044" xlink:href="#m675a57df0b" y="169.591438"/>
     <use style="fill:#1f77b4;stroke:#ffffff;stroke-width:0.75;" x="226.536676" xlink:href="#m675a57df0b" y="169.704274"/>
     <use style="fill:#1f77b4;stroke:#ffffff;stroke-width:0.75;" x="230.104309" xlink:href="#m675a57df0b" y="169.704274"/>
     <use style="fill:#1f77b4;stroke:#ffffff;stroke-width:0.75;" x="233.671941" xlink:href="#m675a57df0b" y="169.591438"/>
     <use style="fill:#1f77b4;stroke:#ffffff;stroke-width:0.75;" x="237.239574" xlink:href="#m675a57df0b" y="169.591438"/>
     <use style="fill:#1f77b4;stroke:#ffffff;stroke-width:0.75;" x="240.807206" xlink:href="#m675a57df0b" y="169.591438"/>
     <use style="fill:#1f77b4;stroke:#ffffff;stroke-width:0.75;" x="244.374838" xlink:href="#m675a57df0b" y="169.252931"/>
     <use style="fill:#1f77b4;stroke:#ffffff;stroke-width:0.75;" x="247.942471" xlink:href="#m675a57df0b" y="169.140095"/>
     <use style="fill:#1f77b4;stroke:#ffffff;stroke-width:0.75;" x="251.510103" xlink:href="#m675a57df0b" y="168.575916"/>
     <use style="fill:#1f77b4;stroke:#ffffff;stroke-width:0.75;" x="255.077735" xlink:href="#m675a57df0b" y="168.575916"/>
     <use style="fill:#1f77b4;stroke:#ffffff;stroke-width:0.75;" x="258.645368" xlink:href="#m675a57df0b" y="168.46308"/>
     <use style="fill:#1f77b4;stroke:#ffffff;stroke-width:0.75;" x="262.213" xlink:href="#m675a57df0b" y="168.46308"/>
     <use style="fill:#1f77b4;stroke:#ffffff;stroke-width:0.75;" x="265.780632" xlink:href="#m675a57df0b" y="168.46308"/>
     <use style="fill:#1f77b4;stroke:#ffffff;stroke-width:0.75;" x="269.348265" xlink:href="#m675a57df0b" y="168.237409"/>
     <use style="fill:#1f77b4;stroke:#ffffff;stroke-width:0.75;" x="272.915897" xlink:href="#m675a57df0b" y="168.237409"/>
     <use style="fill:#1f77b4;stroke:#ffffff;stroke-width:0.75;" x="276.48353" xlink:href="#m675a57df0b" y="168.237409"/>
     <use style="fill:#1f77b4;stroke:#ffffff;stroke-width:0.75;" x="280.051162" xlink:href="#m675a57df0b" y="168.011737"/>
     <use style="fill:#1f77b4;stroke:#ffffff;stroke-width:0.75;" x="283.618794" xlink:href="#m675a57df0b" y="168.011737"/>
     <use style="fill:#1f77b4;stroke:#ffffff;stroke-width:0.75;" x="287.186427" xlink:href="#m675a57df0b" y="168.011737"/>
     <use style="fill:#1f77b4;stroke:#ffffff;stroke-width:0.75;" x="290.754059" xlink:href="#m675a57df0b" y="167.898901"/>
     <use style="fill:#1f77b4;stroke:#ffffff;stroke-width:0.75;" x="294.321691" xlink:href="#m675a57df0b" y="167.898901"/>
     <use style="fill:#1f77b4;stroke:#ffffff;stroke-width:0.75;" x="297.889324" xlink:href="#m675a57df0b" y="167.786065"/>
     <use style="fill:#1f77b4;stroke:#ffffff;stroke-width:0.75;" x="301.456956" xlink:href="#m675a57df0b" y="167.786065"/>
     <use style="fill:#1f77b4;stroke:#ffffff;stroke-width:0.75;" x="305.024589" xlink:href="#m675a57df0b" y="167.786065"/>
     <use style="fill:#1f77b4;stroke:#ffffff;stroke-width:0.75;" x="308.592221" xlink:href="#m675a57df0b" y="167.786065"/>
     <use style="fill:#1f77b4;stroke:#ffffff;stroke-width:0.75;" x="312.159853" xlink:href="#m675a57df0b" y="167.221886"/>
     <use style="fill:#1f77b4;stroke:#ffffff;stroke-width:0.75;" x="315.727486" xlink:href="#m675a57df0b" y="167.221886"/>
     <use style="fill:#1f77b4;stroke:#ffffff;stroke-width:0.75;" x="319.295118" xlink:href="#m675a57df0b" y="166.996215"/>
     <use style="fill:#1f77b4;stroke:#ffffff;stroke-width:0.75;" x="322.86275" xlink:href="#m675a57df0b" y="166.996215"/>
     <use style="fill:#1f77b4;stroke:#ffffff;stroke-width:0.75;" x="326.430383" xlink:href="#m675a57df0b" y="166.996215"/>
     <use style="fill:#1f77b4;stroke:#ffffff;stroke-width:0.75;" x="329.998015" xlink:href="#m675a57df0b" y="166.883379"/>
     <use style="fill:#1f77b4;stroke:#ffffff;stroke-width:0.75;" x="333.565647" xlink:href="#m675a57df0b" y="166.657707"/>
     <use style="fill:#1f77b4;stroke:#ffffff;stroke-width:0.75;" x="337.13328" xlink:href="#m675a57df0b" y="166.657707"/>
     <use style="fill:#1f77b4;stroke:#ffffff;stroke-width:0.75;" x="340.700912" xlink:href="#m675a57df0b" y="166.544871"/>
     <use style="fill:#1f77b4;stroke:#ffffff;stroke-width:0.75;" x="344.268545" xlink:href="#m675a57df0b" y="166.544871"/>
     <use style="fill:#1f77b4;stroke:#ffffff;stroke-width:0.75;" x="347.836177" xlink:href="#m675a57df0b" y="166.432035"/>
     <use style="fill:#1f77b4;stroke:#ffffff;stroke-width:0.75;" x="351.403809" xlink:href="#m675a57df0b" y="166.432035"/>
     <use style="fill:#1f77b4;stroke:#ffffff;stroke-width:0.75;" x="354.971442" xlink:href="#m675a57df0b" y="166.432035"/>
     <use style="fill:#1f77b4;stroke:#ffffff;stroke-width:0.75;" x="358.539074" xlink:href="#m675a57df0b" y="166.432035"/>
     <use style="fill:#1f77b4;stroke:#ffffff;stroke-width:0.75;" x="362.106706" xlink:href="#m675a57df0b" y="166.432035"/>
     <use style="fill:#1f77b4;stroke:#ffffff;stroke-width:0.75;" x="365.674339" xlink:href="#m675a57df0b" y="166.432035"/>
     <use style="fill:#1f77b4;stroke:#ffffff;stroke-width:0.75;" x="369.241971" xlink:href="#m675a57df0b" y="166.432035"/>
     <use style="fill:#1f77b4;stroke:#ffffff;stroke-width:0.75;" x="372.809604" xlink:href="#m675a57df0b" y="166.432035"/>
     <use style="fill:#1f77b4;stroke:#ffffff;stroke-width:0.75;" x="376.377236" xlink:href="#m675a57df0b" y="166.432035"/>
     <use style="fill:#1f77b4;stroke:#ffffff;stroke-width:0.75;" x="379.944868" xlink:href="#m675a57df0b" y="166.432035"/>
     <use style="fill:#1f77b4;stroke:#ffffff;stroke-width:0.75;" x="383.512501" xlink:href="#m675a57df0b" y="166.432035"/>
     <use style="fill:#1f77b4;stroke:#ffffff;stroke-width:0.75;" x="387.080133" xlink:href="#m675a57df0b" y="166.432035"/>
     <use style="fill:#1f77b4;stroke:#ffffff;stroke-width:0.75;" x="390.647765" xlink:href="#m675a57df0b" y="166.432035"/>
     <use style="fill:#1f77b4;stroke:#ffffff;stroke-width:0.75;" x="394.215398" xlink:href="#m675a57df0b" y="166.432035"/>
    </g>
   </g>
   <g id="line2d_15"/>
   <g id="line2d_16"/>
   <g id="line2d_17"/>
   <g id="patch_3">
    <path d="M 53.328125 246.883976 
L 53.328125 66.346662 
" style="fill:none;stroke:#000000;stroke-linecap:square;stroke-linejoin:miter;stroke-width:0.8;"/>
   </g>
   <g id="patch_4">
    <path d="M 69.560852 288.430125 
L 343.079334 288.430125 
" style="fill:none;stroke:#000000;stroke-linecap:square;stroke-linejoin:miter;stroke-width:0.8;"/>
   </g>
   <g id="text_14">
    <!-- grok_grk_decompress_fuzzer (23h, 20 trials/fuzzer) -->
    <g transform="translate(78.351875 16.318125)scale(0.12 -0.12)">
     <defs>
      <path d="M 581 4863 
L 1159 4863 
L 1159 1991 
L 2875 3500 
L 3609 3500 
L 1753 1863 
L 3688 0 
L 2938 0 
L 1159 1709 
L 1159 0 
L 581 0 
L 581 4863 
z
" id="DejaVuSans-6b" transform="scale(0.015625)"/>
      <path d="M 3263 -1063 
L 3263 -1509 
L -63 -1509 
L -63 -1063 
L 3263 -1063 
z
" id="DejaVuSans-5f" transform="scale(0.015625)"/>
      <path d="M 1159 525 
L 1159 -1331 
L 581 -1331 
L 581 3500 
L 1159 3500 
L 1159 2969 
Q 1341 3281 1617 3432 
Q 1894 3584 2278 3584 
Q 2916 3584 3314 3078 
Q 3713 2572 3713 1747 
Q 3713 922 3314 415 
Q 2916 -91 2278 -91 
Q 1894 -91 1617 61 
Q 1341 213 1159 525 
z
M 3116 1747 
Q 3116 2381 2855 2742 
Q 2594 3103 2138 3103 
Q 1681 3103 1420 2742 
Q 1159 2381 1159 1747 
Q 1159 1113 1420 752 
Q 1681 391 2138 391 
Q 2594 391 2855 752 
Q 3116 1113 3116 1747 
z
" id="DejaVuSans-70" transform="scale(0.015625)"/>
      <path d="M 2834 3397 
L 2834 2853 
Q 2591 2978 2328 3040 
Q 2066 3103 1784 3103 
Q 1356 3103 1142 2972 
Q 928 2841 928 2578 
Q 928 2378 1081 2264 
Q 1234 2150 1697 2047 
L 1894 2003 
Q 2506 1872 2764 1633 
Q 3022 1394 3022 966 
Q 3022 478 2636 193 
Q 2250 -91 1575 -91 
Q 1294 -91 989 -36 
Q 684 19 347 128 
L 347 722 
Q 666 556 975 473 
Q 1284 391 1588 391 
Q 1994 391 2212 530 
Q 2431 669 2431 922 
Q 2431 1156 2273 1281 
Q 2116 1406 1581 1522 
L 1381 1569 
Q 847 1681 609 1914 
Q 372 2147 372 2553 
Q 372 3047 722 3315 
Q 1072 3584 1716 3584 
Q 2034 3584 2315 3537 
Q 2597 3491 2834 3397 
z
" id="DejaVuSans-73" transform="scale(0.015625)"/>
      <path d="M 2375 4863 
L 2375 4384 
L 1825 4384 
Q 1516 4384 1395 4259 
Q 1275 4134 1275 3809 
L 1275 3500 
L 2222 3500 
L 2222 3053 
L 1275 3053 
L 1275 0 
L 697 0 
L 697 3053 
L 147 3053 
L 147 3500 
L 697 3500 
L 697 3744 
Q 697 4328 969 4595 
Q 1241 4863 1831 4863 
L 2375 4863 
z
" id="DejaVuSans-66" transform="scale(0.015625)"/>
      <path d="M 353 3500 
L 3084 3500 
L 3084 2975 
L 922 459 
L 3084 459 
L 3084 0 
L 275 0 
L 275 525 
L 2438 3041 
L 353 3041 
L 353 3500 
z
" id="DejaVuSans-7a" transform="scale(0.015625)"/>
      <path d="M 750 794 
L 1409 794 
L 1409 256 
L 897 -744 
L 494 -744 
L 750 256 
L 750 794 
z
" id="DejaVuSans-2c" transform="scale(0.015625)"/>
      <path d="M 603 4863 
L 1178 4863 
L 1178 0 
L 603 0 
L 603 4863 
z
" id="DejaVuSans-6c" transform="scale(0.015625)"/>
      <path d="M 1625 4666 
L 2156 4666 
L 531 -594 
L 0 -594 
L 1625 4666 
z
" id="DejaVuSans-2f" transform="scale(0.015625)"/>
     </defs>
     <use xlink:href="#DejaVuSans-67"/>
     <use x="63.476562" xlink:href="#DejaVuSans-72"/>
     <use x="102.339844" xlink:href="#DejaVuSans-6f"/>
     <use x="163.521484" xlink:href="#DejaVuSans-6b"/>
     <use x="221.431641" xlink:href="#DejaVuSans-5f"/>
     <use x="271.431641" xlink:href="#DejaVuSans-67"/>
     <use x="334.908203" xlink:href="#DejaVuSans-72"/>
     <use x="376.021484" xlink:href="#DejaVuSans-6b"/>
     <use x="433.931641" xlink:href="#DejaVuSans-5f"/>
     <use x="483.931641" xlink:href="#DejaVuSans-64"/>
     <use x="547.408203" xlink:href="#DejaVuSans-65"/>
     <use x="608.931641" xlink:href="#DejaVuSans-63"/>
     <use x="663.912109" xlink:href="#DejaVuSans-6f"/>
     <use x="725.09375" xlink:href="#DejaVuSans-6d"/>
     <use x="822.505859" xlink:href="#DejaVuSans-70"/>
     <use x="885.982422" xlink:href="#DejaVuSans-72"/>
     <use x="924.845703" xlink:href="#DejaVuSans-65"/>
     <use x="986.369141" xlink:href="#DejaVuSans-73"/>
     <use x="1038.46875" xlink:href="#DejaVuSans-73"/>
     <use x="1090.568359" xlink:href="#DejaVuSans-5f"/>
     <use x="1140.568359" xlink:href="#DejaVuSans-66"/>
     <use x="1175.773438" xlink:href="#DejaVuSans-75"/>
     <use x="1239.152344" xlink:href="#DejaVuSans-7a"/>
     <use x="1291.642578" xlink:href="#DejaVuSans-7a"/>
     <use x="1344.132812" xlink:href="#DejaVuSans-65"/>
     <use x="1405.65625" xlink:href="#DejaVuSans-72"/>
     <use x="1446.769531" xlink:href="#DejaVuSans-20"/>
     <use x="1478.556641" xlink:href="#DejaVuSans-28"/>
     <use x="1517.570312" xlink:href="#DejaVuSans-32"/>
     <use x="1581.193359" xlink:href="#DejaVuSans-33"/>
     <use x="1644.816406" xlink:href="#DejaVuSans-68"/>
     <use x="1708.195312" xlink:href="#DejaVuSans-2c"/>
     <use x="1739.982422" xlink:href="#DejaVuSans-20"/>
     <use x="1771.769531" xlink:href="#DejaVuSans-32"/>
     <use x="1835.392578" xlink:href="#DejaVuSans-30"/>
     <use x="1899.015625" xlink:href="#DejaVuSans-20"/>
     <use x="1930.802734" xlink:href="#DejaVuSans-74"/>
     <use x="1970.011719" xlink:href="#DejaVuSans-72"/>
     <use x="2011.125" xlink:href="#DejaVuSans-69"/>
     <use x="2038.908203" xlink:href="#DejaVuSans-61"/>
     <use x="2100.1875" xlink:href="#DejaVuSans-6c"/>
     <use x="2127.970703" xlink:href="#DejaVuSans-73"/>
     <use x="2180.070312" xlink:href="#DejaVuSans-2f"/>
     <use x="2213.761719" xlink:href="#DejaVuSans-66"/>
     <use x="2248.966797" xlink:href="#DejaVuSans-75"/>
     <use x="2312.345703" xlink:href="#DejaVuSans-7a"/>
     <use x="2364.835938" xlink:href="#DejaVuSans-7a"/>
     <use x="2417.326172" xlink:href="#DejaVuSans-65"/>
     <use x="2478.849609" xlink:href="#DejaVuSans-72"/>
     <use x="2519.962891" xlink:href="#DejaVuSans-29"/>
    </g>
   </g>
   <g id="legend_1">
    <g id="line2d_18">
     <path d="M 414.448125 30.416562 
L 434.448125 30.416562 
" style="fill:none;stroke:#98df8a;stroke-linecap:square;stroke-width:1.5;"/>
    </g>
    <g id="line2d_19">
     <defs>
      <path d="M -0 3 
L 3 -3 
L -3 -3 
z
" id="m0df6a4a248" style="stroke:#98df8a;stroke-linejoin:miter;"/>
     </defs>
     <g>
      <use style="fill:#98df8a;stroke:#98df8a;stroke-linejoin:miter;" x="424.448125" xlink:href="#m0df6a4a248" y="30.416562"/>
     </g>
    </g>
    <g id="text_15">
     <!-- afl_scheduling_lifo -->
     <g transform="translate(442.448125 33.916562)scale(0.1 -0.1)">
      <use xlink:href="#DejaVuSans-61"/>
      <use x="61.279297" xlink:href="#DejaVuSans-66"/>
      <use x="96.484375" xlink:href="#DejaVuSans-6c"/>
      <use x="124.267578" xlink:href="#DejaVuSans-5f"/>
      <use x="174.267578" xlink:href="#DejaVuSans-73"/>
      <use x="226.367188" xlink:href="#DejaVuSans-63"/>
      <use x="281.347656" xlink:href="#DejaVuSans-68"/>
      <use x="344.726562" xlink:href="#DejaVuSans-65"/>
      <use x="406.25" xlink:href="#DejaVuSans-64"/>
      <use x="469.726562" xlink:href="#DejaVuSans-75"/>
      <use x="533.105469" xlink:href="#DejaVuSans-6c"/>
      <use x="560.888672" xlink:href="#DejaVuSans-69"/>
      <use x="588.671875" xlink:href="#DejaVuSans-6e"/>
      <use x="652.050781" xlink:href="#DejaVuSans-67"/>
      <use x="715.527344" xlink:href="#DejaVuSans-5f"/>
      <use x="765.527344" xlink:href="#DejaVuSans-6c"/>
      <use x="793.310547" xlink:href="#DejaVuSans-69"/>
      <use x="821.09375" xlink:href="#DejaVuSans-66"/>
      <use x="856.298828" xlink:href="#DejaVuSans-6f"/>
     </g>
    </g>
    <g id="line2d_20">
     <path d="M 414.448125 45.372813 
L 434.448125 45.372813 
" style="fill:none;stroke:#d62728;stroke-linecap:square;stroke-width:1.5;"/>
    </g>
    <g id="line2d_21">
     <defs>
      <path d="M 0 -3 
L -3 3 
L 3 3 
z
" id="me38d3fff2a" style="stroke:#d62728;stroke-linejoin:miter;"/>
     </defs>
     <g>
      <use style="fill:#d62728;stroke:#d62728;stroke-linejoin:miter;" x="424.448125" xlink:href="#me38d3fff2a" y="45.372813"/>
     </g>
    </g>
    <g id="text_16">
     <!-- afl_scheduling_random -->
     <g transform="translate(442.448125 48.872813)scale(0.1 -0.1)">
      <use xlink:href="#DejaVuSans-61"/>
      <use x="61.279297" xlink:href="#DejaVuSans-66"/>
      <use x="96.484375" xlink:href="#DejaVuSans-6c"/>
      <use x="124.267578" xlink:href="#DejaVuSans-5f"/>
      <use x="174.267578" xlink:href="#DejaVuSans-73"/>
      <use x="226.367188" xlink:href="#DejaVuSans-63"/>
      <use x="281.347656" xlink:href="#DejaVuSans-68"/>
      <use x="344.726562" xlink:href="#DejaVuSans-65"/>
      <use x="406.25" xlink:href="#DejaVuSans-64"/>
      <use x="469.726562" xlink:href="#DejaVuSans-75"/>
      <use x="533.105469" xlink:href="#DejaVuSans-6c"/>
      <use x="560.888672" xlink:href="#DejaVuSans-69"/>
      <use x="588.671875" xlink:href="#DejaVuSans-6e"/>
      <use x="652.050781" xlink:href="#DejaVuSans-67"/>
      <use x="715.527344" xlink:href="#DejaVuSans-5f"/>
      <use x="765.527344" xlink:href="#DejaVuSans-72"/>
      <use x="806.640625" xlink:href="#DejaVuSans-61"/>
      <use x="867.919922" xlink:href="#DejaVuSans-6e"/>
      <use x="931.298828" xlink:href="#DejaVuSans-64"/>
      <use x="994.775391" xlink:href="#DejaVuSans-6f"/>
      <use x="1055.957031" xlink:href="#DejaVuSans-6d"/>
     </g>
    </g>
    <g id="line2d_22">
     <path d="M 414.448125 60.329063 
L 434.448125 60.329063 
" style="fill:none;stroke:#1f77b4;stroke-linecap:square;stroke-width:1.5;"/>
    </g>
    <g id="line2d_23">
     <defs>
      <path d="M 0 3 
C 0.795609 3 1.55874 2.683901 2.12132 2.12132 
C 2.683901 1.55874 3 0.795609 3 0 
C 3 -0.795609 2.683901 -1.55874 2.12132 -2.12132 
C 1.55874 -2.683901 0.795609 -3 0 -3 
C -0.795609 -3 -1.55874 -2.683901 -2.12132 -2.12132 
C -2.683901 -1.55874 -3 -0.795609 -3 0 
C -3 0.795609 -2.683901 1.55874 -2.12132 2.12132 
C -1.55874 2.683901 -0.795609 3 0 3 
z
" id="md9747e55f7" style="stroke:#1f77b4;"/>
     </defs>
     <g>
      <use style="fill:#1f77b4;stroke:#1f77b4;" x="424.448125" xlink:href="#md9747e55f7" y="60.329063"/>
     </g>
    </g>
    <g id="text_17">
     <!-- afl -->
     <g transform="translate(442.448125 63.829063)scale(0.1 -0.1)">
      <use xlink:href="#DejaVuSans-61"/>
      <use x="61.279297" xlink:href="#DejaVuSans-66"/>
      <use x="96.484375" xlink:href="#DejaVuSans-6c"/>
     </g>
    </g>
   </g>
  </g>
 </g>
 <defs>
  <clipPath id="p635af7c50e">
   <rect height="266.112" width="357.12" x="53.328125" y="22.318125"/>
  </clipPath>
 </defs>
</svg>
