<?xml version="1.0" encoding="utf-8" standalone="no"?>
<!DOCTYPE svg PUBLIC "-//W3C//DTD SVG 1.1//EN"
  "http://www.w3.org/Graphics/SVG/1.1/DTD/svg11.dtd">
<svg height="325.986375pt" version="1.1" viewBox="0 0 556.260625 325.986375" width="556.260625pt" xmlns="http://www.w3.org/2000/svg" xmlns:xlink="http://www.w3.org/1999/xlink">
 <metadata>
  <rdf:RDF xmlns:cc="http://creativecommons.org/ns#" xmlns:dc="http://purl.org/dc/elements/1.1/" xmlns:rdf="http://www.w3.org/1999/02/22-rdf-syntax-ns#">
   <cc:Work>
    <dc:type rdf:resource="http://purl.org/dc/dcmitype/StillImage"/>
    <dc:date>2022-07-21T16:15:27.735699</dc:date>
    <dc:format>image/svg+xml</dc:format>
    <dc:creator>
     <cc:Agent>
      <dc:title>Matplotlib v3.4.3, https://matplotlib.org/</dc:title>
     </cc:Agent>
    </dc:creator>
   </cc:Work>
  </rdf:RDF>
 </metadata>
 <defs>
  <style type="text/css">*{stroke-linecap:butt;stroke-linejoin:round;}</style>
 </defs>
 <g id="figure_1">
  <g id="patch_1">
   <path d="M 0 325.986375 
L 556.260625 325.986375 
L 556.260625 0 
L 0 0 
z
" style="fill:#ffffff;"/>
  </g>
  <g id="axes_1">
   <g id="patch_2">
    <path d="M 40.603125 288.430125 
L 397.723125 288.430125 
L 397.723125 22.318125 
L 40.603125 22.318125 
z
" style="fill:#ffffff;"/>
   </g>
   <g id="PolyCollection_1">
    <defs>
     <path d="M 56.835852 -49.65225 
L 56.835852 -49.65225 
L 106.602306 -49.65225 
L 135.713816 -49.65225 
L 156.36876 -49.65225 
L 172.38998 -49.65225 
L 185.480269 -49.65225 
L 196.547952 -69.81225 
L 206.135214 -81.90825 
L 214.591779 -69.81225 
L 222.156434 -69.81225 
L 228.999496 -69.81225 
L 235.246723 -69.81225 
L 240.993615 -69.81225 
L 246.314406 -89.97225 
L 251.267943 -94.00425 
L 255.901668 -114.16425 
L 260.254383 -170.61225 
L 264.358233 -198.83625 
L 268.240141 -206.90025 
L 271.922888 -214.96425 
L 275.425915 -218.99625 
L 278.76595 -231.09225 
L 281.95749 -235.02345 
L 285.013177 -235.12425 
L 287.944107 -247.22025 
L 290.760069 -251.25225 
L 293.469742 -259.31625 
L 296.080859 -259.31625 
L 298.60034 -259.31625 
L 301.034397 -259.31625 
L 303.388635 -259.31625 
L 305.668122 -259.31625 
L 307.87746 -259.31625 
L 310.020837 -259.31625 
L 312.102079 -259.31625 
L 314.124687 -259.31625 
L 316.091873 -259.31625 
L 318.006595 -259.31625 
L 319.871578 -259.31625 
L 321.689342 -259.31625 
L 323.462217 -263.34825 
L 325.192369 -263.34825 
L 326.881807 -263.34825 
L 328.532404 -263.34825 
L 330.145906 -263.34825 
L 331.723944 -263.34825 
L 333.268042 -263.34825 
L 334.779631 -267.38025 
L 336.260051 -267.38025 
L 337.710561 -267.38025 
L 339.132347 -267.38025 
L 340.526523 -267.38025 
L 341.894142 -267.38025 
L 343.236196 -267.38025 
L 344.553624 -267.38025 
L 345.847313 -267.38025 
L 347.118104 -267.38025 
L 348.366794 -267.38025 
L 349.594136 -267.38025 
L 350.800851 -267.38025 
L 351.987619 -267.38025 
L 353.155089 -267.38025 
L 354.303878 -267.38025 
L 355.434576 -267.38025 
L 356.547743 -267.38025 
L 357.643914 -267.38025 
L 358.7236 -267.38025 
L 359.787291 -267.38025 
L 360.835453 -267.38025 
L 361.868533 -267.38025 
L 362.886959 -267.38025 
L 363.891141 -267.38025 
L 364.881471 -267.38025 
L 365.858327 -267.38025 
L 366.822071 -267.38025 
L 367.773049 -267.38025 
L 368.711596 -267.38025 
L 369.638032 -267.38025 
L 370.552666 -267.38025 
L 371.455795 -267.38025 
L 372.347705 -267.38025 
L 373.228671 -267.38025 
L 374.098958 -267.38025 
L 374.958823 -271.41225 
L 375.808511 -271.41225 
L 376.648261 -271.41225 
L 377.478303 -271.41225 
L 378.298858 -271.41225 
L 379.110142 -271.41225 
L 379.91236 -271.41225 
L 380.705714 -271.41225 
L 381.490398 -271.41225 
L 381.490398 -291.57225 
L 381.490398 -291.57225 
L 380.705714 -291.57225 
L 379.91236 -291.57225 
L 379.110142 -291.57225 
L 378.298858 -291.57225 
L 377.478303 -291.57225 
L 376.648261 -291.57225 
L 375.808511 -291.57225 
L 374.958823 -291.57225 
L 374.098958 -291.57225 
L 373.228671 -291.57225 
L 372.347705 -291.57225 
L 371.455795 -291.57225 
L 370.552666 -291.57225 
L 369.638032 -291.57225 
L 368.711596 -291.57225 
L 367.773049 -291.57225 
L 366.822071 -291.57225 
L 365.858327 -287.54025 
L 364.881471 -287.54025 
L 363.891141 -287.54025 
L 362.886959 -287.54025 
L 361.868533 -287.54025 
L 360.835453 -287.54025 
L 359.787291 -287.54025 
L 358.7236 -287.54025 
L 357.643914 -287.54025 
L 356.547743 -287.54025 
L 355.434576 -287.54025 
L 354.303878 -283.50825 
L 353.155089 -283.50825 
L 351.987619 -283.50825 
L 350.800851 -283.50825 
L 349.594136 -283.50825 
L 348.366794 -283.50825 
L 347.118104 -283.50825 
L 345.847313 -283.50825 
L 344.553624 -283.50825 
L 343.236196 -283.50825 
L 341.894142 -283.50825 
L 340.526523 -283.50825 
L 339.132347 -283.50825 
L 337.710561 -283.50825 
L 336.260051 -283.50825 
L 334.779631 -283.50825 
L 333.268042 -283.50825 
L 331.723944 -283.50825 
L 330.145906 -283.50825 
L 328.532404 -283.50825 
L 326.881807 -279.47625 
L 325.192369 -279.47625 
L 323.462217 -279.47625 
L 321.689342 -279.47625 
L 319.871578 -279.47625 
L 318.006595 -279.47625 
L 316.091873 -279.47625 
L 314.124687 -275.44425 
L 312.102079 -275.44425 
L 310.020837 -275.44425 
L 307.87746 -275.44425 
L 305.668122 -275.44425 
L 303.388635 -275.44425 
L 301.034397 -275.44425 
L 298.60034 -275.44425 
L 296.080859 -275.44425 
L 293.469742 -275.44425 
L 290.760069 -275.44425 
L 287.944107 -275.44425 
L 285.013177 -275.44425 
L 281.95749 -275.44425 
L 278.76595 -275.44425 
L 275.425915 -275.44425 
L 271.922888 -275.44425 
L 268.240141 -275.44425 
L 264.358233 -271.41225 
L 260.254383 -267.38025 
L 255.901668 -267.38025 
L 251.267943 -267.38025 
L 246.314406 -267.38025 
L 240.993615 -267.38025 
L 235.246723 -267.38025 
L 228.999496 -267.38025 
L 222.156434 -267.38025 
L 214.591779 -263.34825 
L 206.135214 -259.31625 
L 196.547952 -255.38505 
L 185.480269 -247.22025 
L 172.38998 -231.09225 
L 156.36876 -202.86825 
L 135.713816 -130.29225 
L 106.602306 -89.97225 
L 56.835852 -49.65225 
z
" id="m03d1fdbe59" style="stroke:#98df8a;stroke-opacity:0.2;"/>
    </defs>
    <g clip-path="url(#p983f65932d)">
     <use style="fill:#98df8a;fill-opacity:0.2;stroke:#98df8a;stroke-opacity:0.2;" x="0" xlink:href="#m03d1fdbe59" y="325.986375"/>
    </g>
   </g>
   <g id="PolyCollection_2">
    <defs>
     <path d="M 56.835852 -49.65225 
L 56.835852 -49.65225 
L 106.602306 -49.65225 
L 135.713816 -49.65225 
L 156.36876 -49.65225 
L 172.38998 -49.65225 
L 185.480269 -49.65225 
L 196.547952 -49.65225 
L 206.135214 -49.65225 
L 214.591779 -49.65225 
L 222.156434 -49.65225 
L 228.999496 -73.84425 
L 235.246723 -73.84425 
L 240.993615 -73.84425 
L 246.314406 -73.84425 
L 251.267943 -73.84425 
L 255.901668 -73.84425 
L 260.254383 -73.84425 
L 264.358233 -73.84425 
L 268.240141 -73.84425 
L 271.922888 -73.84425 
L 275.425915 -98.03625 
L 278.76595 -73.84425 
L 281.95749 -73.84425 
L 285.013177 -73.84425 
L 287.944107 -73.84425 
L 290.760069 -73.84425 
L 293.469742 -73.84425 
L 296.080859 -73.84425 
L 298.60034 -73.84425 
L 301.034397 -98.03625 
L 303.388635 -73.84425 
L 305.668122 -94.00425 
L 307.87746 -94.00425 
L 310.020837 -130.29225 
L 312.102079 -146.42025 
L 314.124687 -166.58025 
L 316.091873 -202.86825 
L 318.006595 -227.06025 
L 319.871578 -243.18825 
L 321.689342 -243.18825 
L 323.462217 -243.18825 
L 325.192369 -251.25225 
L 326.881807 -255.28425 
L 328.532404 -259.31625 
L 330.145906 -259.31625 
L 331.723944 -259.31625 
L 333.268042 -259.31625 
L 334.779631 -259.31625 
L 336.260051 -259.31625 
L 337.710561 -259.31625 
L 339.132347 -263.34825 
L 340.526523 -259.31625 
L 341.894142 -263.34825 
L 343.236196 -263.34825 
L 344.553624 -263.34825 
L 345.847313 -263.34825 
L 347.118104 -263.34825 
L 348.366794 -263.34825 
L 349.594136 -263.34825 
L 350.800851 -263.34825 
L 351.987619 -263.34825 
L 353.155089 -263.34825 
L 354.303878 -263.34825 
L 355.434576 -263.34825 
L 356.547743 -263.34825 
L 357.643914 -263.34825 
L 358.7236 -259.31625 
L 359.787291 -263.34825 
L 360.835453 -267.38025 
L 361.868533 -267.38025 
L 362.886959 -267.38025 
L 363.891141 -267.38025 
L 364.881471 -267.38025 
L 365.858327 -267.38025 
L 366.822071 -267.38025 
L 367.773049 -267.38025 
L 368.711596 -267.38025 
L 369.638032 -267.38025 
L 370.552666 -267.38025 
L 371.455795 -267.38025 
L 372.347705 -267.38025 
L 373.228671 -267.38025 
L 374.098958 -267.38025 
L 374.958823 -267.38025 
L 375.808511 -267.38025 
L 376.648261 -267.38025 
L 377.478303 -267.38025 
L 378.298858 -267.38025 
L 379.110142 -267.38025 
L 379.91236 -267.38025 
L 380.705714 -267.38025 
L 381.490398 -267.38025 
L 381.490398 -283.50825 
L 381.490398 -283.50825 
L 380.705714 -283.50825 
L 379.91236 -283.50825 
L 379.110142 -283.50825 
L 378.298858 -283.50825 
L 377.478303 -283.50825 
L 376.648261 -283.50825 
L 375.808511 -283.50825 
L 374.958823 -283.50825 
L 374.098958 -283.50825 
L 373.228671 -283.50825 
L 372.347705 -283.50825 
L 371.455795 -283.50825 
L 370.552666 -283.50825 
L 369.638032 -283.50825 
L 368.711596 -283.50825 
L 367.773049 -283.50825 
L 366.822071 -283.50825 
L 365.858327 -283.50825 
L 364.881471 -283.50825 
L 363.891141 -283.50825 
L 362.886959 -283.50825 
L 361.868533 -283.50825 
L 360.835453 -283.50825 
L 359.787291 -283.50825 
L 358.7236 -283.50825 
L 357.643914 -283.50825 
L 356.547743 -283.50825 
L 355.434576 -279.47625 
L 354.303878 -283.50825 
L 353.155089 -279.47625 
L 351.987619 -279.47625 
L 350.800851 -279.47625 
L 349.594136 -279.47625 
L 348.366794 -279.47625 
L 347.118104 -279.47625 
L 345.847313 -279.47625 
L 344.553624 -275.44425 
L 343.236196 -275.44425 
L 341.894142 -275.44425 
L 340.526523 -275.44425 
L 339.132347 -275.44425 
L 337.710561 -275.44425 
L 336.260051 -275.44425 
L 334.779631 -275.44425 
L 333.268042 -275.44425 
L 331.723944 -275.44425 
L 330.145906 -275.44425 
L 328.532404 -275.44425 
L 326.881807 -275.44425 
L 325.192369 -275.44425 
L 323.462217 -275.44425 
L 321.689342 -275.44425 
L 319.871578 -275.44425 
L 318.006595 -275.44425 
L 316.091873 -275.44425 
L 314.124687 -275.44425 
L 312.102079 -275.44425 
L 310.020837 -275.44425 
L 307.87746 -275.44425 
L 305.668122 -275.44425 
L 303.388635 -275.44425 
L 301.034397 -275.44425 
L 298.60034 -271.41225 
L 296.080859 -271.41225 
L 293.469742 -271.41225 
L 290.760069 -267.38025 
L 287.944107 -267.38025 
L 285.013177 -267.38025 
L 281.95749 -267.38025 
L 278.76595 -267.38025 
L 275.425915 -267.38025 
L 271.922888 -267.38025 
L 268.240141 -267.38025 
L 264.358233 -267.38025 
L 260.254383 -267.38025 
L 255.901668 -267.38025 
L 251.267943 -267.38025 
L 246.314406 -263.34825 
L 240.993615 -263.34825 
L 235.246723 -259.31625 
L 228.999496 -259.31625 
L 222.156434 -259.31625 
L 214.591779 -255.28425 
L 206.135214 -239.15625 
L 196.547952 -231.09225 
L 185.480269 -227.06025 
L 172.38998 -198.83625 
L 156.36876 -170.61225 
L 135.713816 -106.10025 
L 106.602306 -69.81225 
L 56.835852 -49.65225 
z
" id="mce0cf2d375" style="stroke:#d62728;stroke-opacity:0.2;"/>
    </defs>
    <g clip-path="url(#p983f65932d)">
     <use style="fill:#d62728;fill-opacity:0.2;stroke:#d62728;stroke-opacity:0.2;" x="0" xlink:href="#mce0cf2d375" y="325.986375"/>
    </g>
   </g>
   <g id="PolyCollection_3">
    <defs>
     <path d="M 56.835852 -49.65225 
L 56.835852 -49.65225 
L 106.602306 -49.65225 
L 135.713816 -49.65225 
L 156.36876 -49.65225 
L 172.38998 -49.65225 
L 185.480269 -49.65225 
L 196.547952 -49.65225 
L 206.135214 -49.65225 
L 214.591779 -49.65225 
L 222.156434 -49.65225 
L 228.999496 -49.65225 
L 235.246723 -49.65225 
L 240.993615 -49.65225 
L 246.314406 -49.65225 
L 251.267943 -49.65225 
L 255.901668 -49.65225 
L 260.254383 -49.65225 
L 264.358233 -49.65225 
L 268.240141 -49.65225 
L 271.922888 -49.65225 
L 275.425915 -49.65225 
L 278.76595 -49.65225 
L 281.95749 -49.65225 
L 285.013177 -49.65225 
L 287.944107 -49.65225 
L 290.760069 -49.65225 
L 293.469742 -49.65225 
L 296.080859 -49.65225 
L 298.60034 -49.65225 
L 301.034397 -49.65225 
L 303.388635 -49.65225 
L 305.668122 -49.65225 
L 307.87746 -53.68425 
L 310.020837 -89.97225 
L 312.102079 -118.19625 
L 314.124687 -162.54825 
L 316.091873 -190.77225 
L 318.006595 -194.80425 
L 319.871578 -214.86345 
L 321.689342 -227.06025 
L 323.462217 -235.12425 
L 325.192369 -243.18825 
L 326.881807 -243.18825 
L 328.532404 -243.18825 
L 330.145906 -247.22025 
L 331.723944 -243.18825 
L 333.268042 -243.18825 
L 334.779631 -247.22025 
L 336.260051 -247.22025 
L 337.710561 -251.25225 
L 339.132347 -247.11945 
L 340.526523 -243.18825 
L 341.894142 -247.22025 
L 343.236196 -247.22025 
L 344.553624 -243.18825 
L 345.847313 -243.18825 
L 347.118104 -247.22025 
L 348.366794 -243.08745 
L 349.594136 -247.22025 
L 350.800851 -243.18825 
L 351.987619 -247.22025 
L 353.155089 -247.22025 
L 354.303878 -247.22025 
L 355.434576 -247.22025 
L 356.547743 -247.22025 
L 357.643914 -247.22025 
L 358.7236 -251.25225 
L 359.787291 -243.18825 
L 360.835453 -251.25225 
L 361.868533 -251.25225 
L 362.886959 -255.28425 
L 363.891141 -255.28425 
L 364.881471 -255.28425 
L 365.858327 -255.28425 
L 366.822071 -255.18345 
L 367.773049 -255.28425 
L 368.711596 -255.28425 
L 369.638032 -255.28425 
L 370.552666 -251.25225 
L 371.455795 -255.28425 
L 372.347705 -255.28425 
L 373.228671 -259.31625 
L 374.098958 -259.31625 
L 374.958823 -259.31625 
L 375.808511 -259.31625 
L 376.648261 -259.31625 
L 377.478303 -259.31625 
L 378.298858 -259.31625 
L 379.110142 -259.31625 
L 379.91236 -259.31625 
L 380.705714 -259.31625 
L 381.490398 -259.31625 
L 381.490398 -283.50825 
L 381.490398 -283.50825 
L 380.705714 -283.50825 
L 379.91236 -279.47625 
L 379.110142 -279.47625 
L 378.298858 -279.47625 
L 377.478303 -279.47625 
L 376.648261 -279.47625 
L 375.808511 -279.47625 
L 374.958823 -279.47625 
L 374.098958 -283.50825 
L 373.228671 -279.47625 
L 372.347705 -279.47625 
L 371.455795 -279.47625 
L 370.552666 -279.47625 
L 369.638032 -279.47625 
L 368.711596 -279.47625 
L 367.773049 -279.47625 
L 366.822071 -279.47625 
L 365.858327 -279.47625 
L 364.881471 -279.47625 
L 363.891141 -279.47625 
L 362.886959 -279.47625 
L 361.868533 -279.47625 
L 360.835453 -275.44425 
L 359.787291 -275.44425 
L 358.7236 -275.44425 
L 357.643914 -275.44425 
L 356.547743 -275.44425 
L 355.434576 -275.44425 
L 354.303878 -275.44425 
L 353.155089 -275.44425 
L 351.987619 -275.44425 
L 350.800851 -275.44425 
L 349.594136 -275.44425 
L 348.366794 -275.44425 
L 347.118104 -275.44425 
L 345.847313 -275.44425 
L 344.553624 -275.44425 
L 343.236196 -275.44425 
L 341.894142 -271.41225 
L 340.526523 -271.41225 
L 339.132347 -271.41225 
L 337.710561 -271.41225 
L 336.260051 -267.48105 
L 334.779631 -267.38025 
L 333.268042 -267.38025 
L 331.723944 -267.38025 
L 330.145906 -267.38025 
L 328.532404 -267.38025 
L 326.881807 -267.38025 
L 325.192369 -267.38025 
L 323.462217 -267.38025 
L 321.689342 -267.38025 
L 319.871578 -267.38025 
L 318.006595 -267.38025 
L 316.091873 -267.38025 
L 314.124687 -267.38025 
L 312.102079 -267.38025 
L 310.020837 -267.38025 
L 307.87746 -267.38025 
L 305.668122 -267.38025 
L 303.388635 -263.34825 
L 301.034397 -259.31625 
L 298.60034 -259.31625 
L 296.080859 -255.28425 
L 293.469742 -255.38505 
L 290.760069 -255.28425 
L 287.944107 -255.28425 
L 285.013177 -255.28425 
L 281.95749 -251.25225 
L 278.76595 -247.22025 
L 275.425915 -247.22025 
L 271.922888 -251.25225 
L 268.240141 -247.22025 
L 264.358233 -243.18825 
L 260.254383 -243.18825 
L 255.901668 -243.18825 
L 251.267943 -243.18825 
L 246.314406 -243.18825 
L 240.993615 -239.15625 
L 235.246723 -235.12425 
L 228.999496 -223.02825 
L 222.156434 -218.99625 
L 214.591779 -202.86825 
L 206.135214 -182.70825 
L 196.547952 -146.42025 
L 185.480269 -134.32425 
L 172.38998 -110.13225 
L 156.36876 -98.03625 
L 135.713816 -49.65225 
L 106.602306 -49.65225 
L 56.835852 -49.65225 
z
" id="m53d1f242e9" style="stroke:#1f77b4;stroke-opacity:0.2;"/>
    </defs>
    <g clip-path="url(#p983f65932d)">
     <use style="fill:#1f77b4;fill-opacity:0.2;stroke:#1f77b4;stroke-opacity:0.2;" x="0" xlink:href="#m53d1f242e9" y="325.986375"/>
    </g>
   </g>
   <g id="matplotlib.axis_1">
    <g id="xtick_1">
     <g id="line2d_1">
      <defs>
       <path d="M 0 0 
L 0 3.5 
" id="m93a874bb7d" style="stroke:#000000;stroke-width:0.8;"/>
      </defs>
      <g>
       <use style="stroke:#000000;stroke-width:0.8;" x="56.835852" xlink:href="#m93a874bb7d" y="288.430125"/>
      </g>
     </g>
     <g id="text_1">
      <!-- 14m -->
      <g transform="translate(45.60304 303.028562)scale(0.1 -0.1)">
       <defs>
        <path d="M 794 531 
L 1825 531 
L 1825 4091 
L 703 3866 
L 703 4441 
L 1819 4666 
L 2450 4666 
L 2450 531 
L 3481 531 
L 3481 0 
L 794 0 
L 794 531 
z
" id="DejaVuSans-31" transform="scale(0.015625)"/>
        <path d="M 2419 4116 
L 825 1625 
L 2419 1625 
L 2419 4116 
z
M 2253 4666 
L 3047 4666 
L 3047 1625 
L 3713 1625 
L 3713 1100 
L 3047 1100 
L 3047 0 
L 2419 0 
L 2419 1100 
L 313 1100 
L 313 1709 
L 2253 4666 
z
" id="DejaVuSans-34" transform="scale(0.015625)"/>
        <path d="M 3328 2828 
Q 3544 3216 3844 3400 
Q 4144 3584 4550 3584 
Q 5097 3584 5394 3201 
Q 5691 2819 5691 2113 
L 5691 0 
L 5113 0 
L 5113 2094 
Q 5113 2597 4934 2840 
Q 4756 3084 4391 3084 
Q 3944 3084 3684 2787 
Q 3425 2491 3425 1978 
L 3425 0 
L 2847 0 
L 2847 2094 
Q 2847 2600 2669 2842 
Q 2491 3084 2119 3084 
Q 1678 3084 1418 2786 
Q 1159 2488 1159 1978 
L 1159 0 
L 581 0 
L 581 3500 
L 1159 3500 
L 1159 2956 
Q 1356 3278 1631 3431 
Q 1906 3584 2284 3584 
Q 2666 3584 2933 3390 
Q 3200 3197 3328 2828 
z
" id="DejaVuSans-6d" transform="scale(0.015625)"/>
       </defs>
       <use xlink:href="#DejaVuSans-31"/>
       <use x="63.623047" xlink:href="#DejaVuSans-34"/>
       <use x="127.246094" xlink:href="#DejaVuSans-6d"/>
      </g>
     </g>
    </g>
    <g id="xtick_2">
     <g id="line2d_2">
      <g>
       <use style="stroke:#000000;stroke-width:0.8;" x="121.766935" xlink:href="#m93a874bb7d" y="288.430125"/>
      </g>
     </g>
     <g id="text_2">
      <!-- 37m -->
      <g transform="translate(110.534122 303.028562)scale(0.1 -0.1)">
       <defs>
        <path d="M 2597 2516 
Q 3050 2419 3304 2112 
Q 3559 1806 3559 1356 
Q 3559 666 3084 287 
Q 2609 -91 1734 -91 
Q 1441 -91 1130 -33 
Q 819 25 488 141 
L 488 750 
Q 750 597 1062 519 
Q 1375 441 1716 441 
Q 2309 441 2620 675 
Q 2931 909 2931 1356 
Q 2931 1769 2642 2001 
Q 2353 2234 1838 2234 
L 1294 2234 
L 1294 2753 
L 1863 2753 
Q 2328 2753 2575 2939 
Q 2822 3125 2822 3475 
Q 2822 3834 2567 4026 
Q 2313 4219 1838 4219 
Q 1578 4219 1281 4162 
Q 984 4106 628 3988 
L 628 4550 
Q 988 4650 1302 4700 
Q 1616 4750 1894 4750 
Q 2613 4750 3031 4423 
Q 3450 4097 3450 3541 
Q 3450 3153 3228 2886 
Q 3006 2619 2597 2516 
z
" id="DejaVuSans-33" transform="scale(0.015625)"/>
        <path d="M 525 4666 
L 3525 4666 
L 3525 4397 
L 1831 0 
L 1172 0 
L 2766 4134 
L 525 4134 
L 525 4666 
z
" id="DejaVuSans-37" transform="scale(0.015625)"/>
       </defs>
       <use xlink:href="#DejaVuSans-33"/>
       <use x="63.623047" xlink:href="#DejaVuSans-37"/>
       <use x="127.246094" xlink:href="#DejaVuSans-6d"/>
      </g>
     </g>
    </g>
    <g id="xtick_3">
     <g id="line2d_3">
      <g>
       <use style="stroke:#000000;stroke-width:0.8;" x="186.698017" xlink:href="#m93a874bb7d" y="288.430125"/>
      </g>
     </g>
     <g id="text_3">
      <!-- 1h:31m -->
      <g transform="translate(167.43083 303.028562)scale(0.1 -0.1)">
       <defs>
        <path d="M 3513 2113 
L 3513 0 
L 2938 0 
L 2938 2094 
Q 2938 2591 2744 2837 
Q 2550 3084 2163 3084 
Q 1697 3084 1428 2787 
Q 1159 2491 1159 1978 
L 1159 0 
L 581 0 
L 581 4863 
L 1159 4863 
L 1159 2956 
Q 1366 3272 1645 3428 
Q 1925 3584 2291 3584 
Q 2894 3584 3203 3211 
Q 3513 2838 3513 2113 
z
" id="DejaVuSans-68" transform="scale(0.015625)"/>
        <path d="M 750 794 
L 1409 794 
L 1409 0 
L 750 0 
L 750 794 
z
M 750 3309 
L 1409 3309 
L 1409 2516 
L 750 2516 
L 750 3309 
z
" id="DejaVuSans-3a" transform="scale(0.015625)"/>
       </defs>
       <use xlink:href="#DejaVuSans-31"/>
       <use x="63.623047" xlink:href="#DejaVuSans-68"/>
       <use x="127.001953" xlink:href="#DejaVuSans-3a"/>
       <use x="160.693359" xlink:href="#DejaVuSans-33"/>
       <use x="224.316406" xlink:href="#DejaVuSans-31"/>
       <use x="287.939453" xlink:href="#DejaVuSans-6d"/>
      </g>
     </g>
    </g>
    <g id="xtick_4">
     <g id="line2d_4">
      <g>
       <use style="stroke:#000000;stroke-width:0.8;" x="251.6291" xlink:href="#m93a874bb7d" y="288.430125"/>
      </g>
     </g>
     <g id="text_4">
      <!-- 3h:46m -->
      <g transform="translate(232.361912 303.028562)scale(0.1 -0.1)">
       <defs>
        <path d="M 2113 2584 
Q 1688 2584 1439 2293 
Q 1191 2003 1191 1497 
Q 1191 994 1439 701 
Q 1688 409 2113 409 
Q 2538 409 2786 701 
Q 3034 994 3034 1497 
Q 3034 2003 2786 2293 
Q 2538 2584 2113 2584 
z
M 3366 4563 
L 3366 3988 
Q 3128 4100 2886 4159 
Q 2644 4219 2406 4219 
Q 1781 4219 1451 3797 
Q 1122 3375 1075 2522 
Q 1259 2794 1537 2939 
Q 1816 3084 2150 3084 
Q 2853 3084 3261 2657 
Q 3669 2231 3669 1497 
Q 3669 778 3244 343 
Q 2819 -91 2113 -91 
Q 1303 -91 875 529 
Q 447 1150 447 2328 
Q 447 3434 972 4092 
Q 1497 4750 2381 4750 
Q 2619 4750 2861 4703 
Q 3103 4656 3366 4563 
z
" id="DejaVuSans-36" transform="scale(0.015625)"/>
       </defs>
       <use xlink:href="#DejaVuSans-33"/>
       <use x="63.623047" xlink:href="#DejaVuSans-68"/>
       <use x="127.001953" xlink:href="#DejaVuSans-3a"/>
       <use x="160.693359" xlink:href="#DejaVuSans-34"/>
       <use x="224.316406" xlink:href="#DejaVuSans-36"/>
       <use x="287.939453" xlink:href="#DejaVuSans-6d"/>
      </g>
     </g>
    </g>
    <g id="xtick_5">
     <g id="line2d_5">
      <g>
       <use style="stroke:#000000;stroke-width:0.8;" x="316.560182" xlink:href="#m93a874bb7d" y="288.430125"/>
      </g>
     </g>
     <g id="text_5">
      <!-- 9h:18m -->
      <g transform="translate(297.292995 303.028562)scale(0.1 -0.1)">
       <defs>
        <path d="M 703 97 
L 703 672 
Q 941 559 1184 500 
Q 1428 441 1663 441 
Q 2288 441 2617 861 
Q 2947 1281 2994 2138 
Q 2813 1869 2534 1725 
Q 2256 1581 1919 1581 
Q 1219 1581 811 2004 
Q 403 2428 403 3163 
Q 403 3881 828 4315 
Q 1253 4750 1959 4750 
Q 2769 4750 3195 4129 
Q 3622 3509 3622 2328 
Q 3622 1225 3098 567 
Q 2575 -91 1691 -91 
Q 1453 -91 1209 -44 
Q 966 3 703 97 
z
M 1959 2075 
Q 2384 2075 2632 2365 
Q 2881 2656 2881 3163 
Q 2881 3666 2632 3958 
Q 2384 4250 1959 4250 
Q 1534 4250 1286 3958 
Q 1038 3666 1038 3163 
Q 1038 2656 1286 2365 
Q 1534 2075 1959 2075 
z
" id="DejaVuSans-39" transform="scale(0.015625)"/>
        <path d="M 2034 2216 
Q 1584 2216 1326 1975 
Q 1069 1734 1069 1313 
Q 1069 891 1326 650 
Q 1584 409 2034 409 
Q 2484 409 2743 651 
Q 3003 894 3003 1313 
Q 3003 1734 2745 1975 
Q 2488 2216 2034 2216 
z
M 1403 2484 
Q 997 2584 770 2862 
Q 544 3141 544 3541 
Q 544 4100 942 4425 
Q 1341 4750 2034 4750 
Q 2731 4750 3128 4425 
Q 3525 4100 3525 3541 
Q 3525 3141 3298 2862 
Q 3072 2584 2669 2484 
Q 3125 2378 3379 2068 
Q 3634 1759 3634 1313 
Q 3634 634 3220 271 
Q 2806 -91 2034 -91 
Q 1263 -91 848 271 
Q 434 634 434 1313 
Q 434 1759 690 2068 
Q 947 2378 1403 2484 
z
M 1172 3481 
Q 1172 3119 1398 2916 
Q 1625 2713 2034 2713 
Q 2441 2713 2670 2916 
Q 2900 3119 2900 3481 
Q 2900 3844 2670 4047 
Q 2441 4250 2034 4250 
Q 1625 4250 1398 4047 
Q 1172 3844 1172 3481 
z
" id="DejaVuSans-38" transform="scale(0.015625)"/>
       </defs>
       <use xlink:href="#DejaVuSans-39"/>
       <use x="63.623047" xlink:href="#DejaVuSans-68"/>
       <use x="127.001953" xlink:href="#DejaVuSans-3a"/>
       <use x="160.693359" xlink:href="#DejaVuSans-31"/>
       <use x="224.316406" xlink:href="#DejaVuSans-38"/>
       <use x="287.939453" xlink:href="#DejaVuSans-6d"/>
      </g>
     </g>
    </g>
    <g id="xtick_6">
     <g id="line2d_6">
      <g>
       <use style="stroke:#000000;stroke-width:0.8;" x="381.491265" xlink:href="#m93a874bb7d" y="288.430125"/>
      </g>
     </g>
     <g id="text_6">
      <!-- 23h -->
      <g transform="translate(371.960015 303.028562)scale(0.1 -0.1)">
       <defs>
        <path d="M 1228 531 
L 3431 531 
L 3431 0 
L 469 0 
L 469 531 
Q 828 903 1448 1529 
Q 2069 2156 2228 2338 
Q 2531 2678 2651 2914 
Q 2772 3150 2772 3378 
Q 2772 3750 2511 3984 
Q 2250 4219 1831 4219 
Q 1534 4219 1204 4116 
Q 875 4013 500 3803 
L 500 4441 
Q 881 4594 1212 4672 
Q 1544 4750 1819 4750 
Q 2544 4750 2975 4387 
Q 3406 4025 3406 3419 
Q 3406 3131 3298 2873 
Q 3191 2616 2906 2266 
Q 2828 2175 2409 1742 
Q 1991 1309 1228 531 
z
" id="DejaVuSans-32" transform="scale(0.015625)"/>
       </defs>
       <use xlink:href="#DejaVuSans-32"/>
       <use x="63.623047" xlink:href="#DejaVuSans-33"/>
       <use x="127.246094" xlink:href="#DejaVuSans-68"/>
      </g>
     </g>
    </g>
    <g id="xtick_7">
     <g id="line2d_7">
      <defs>
       <path d="M 0 0 
L 0 2 
" id="ma30187550f" style="stroke:#000000;stroke-width:0.6;"/>
      </defs>
      <g>
       <use style="stroke:#000000;stroke-width:0.6;" x="48.379288" xlink:href="#ma30187550f" y="288.430125"/>
      </g>
     </g>
    </g>
    <g id="xtick_8">
     <g id="line2d_8">
      <g>
       <use style="stroke:#000000;stroke-width:0.6;" x="114.166961" xlink:href="#ma30187550f" y="288.430125"/>
      </g>
     </g>
    </g>
    <g id="xtick_9">
     <g id="line2d_9">
      <g>
       <use style="stroke:#000000;stroke-width:0.6;" x="143.27847" xlink:href="#ma30187550f" y="288.430125"/>
      </g>
     </g>
    </g>
    <g id="xtick_10">
     <g id="line2d_10">
      <g>
       <use style="stroke:#000000;stroke-width:0.6;" x="163.933415" xlink:href="#ma30187550f" y="288.430125"/>
      </g>
     </g>
    </g>
    <g id="xtick_11">
     <g id="line2d_11">
      <g>
       <use style="stroke:#000000;stroke-width:0.6;" x="179.954635" xlink:href="#ma30187550f" y="288.430125"/>
      </g>
     </g>
    </g>
    <g id="xtick_12">
     <g id="line2d_12">
      <g>
       <use style="stroke:#000000;stroke-width:0.6;" x="193.044924" xlink:href="#ma30187550f" y="288.430125"/>
      </g>
     </g>
    </g>
    <g id="xtick_13">
     <g id="line2d_13">
      <g>
       <use style="stroke:#000000;stroke-width:0.6;" x="204.112607" xlink:href="#ma30187550f" y="288.430125"/>
      </g>
     </g>
    </g>
    <g id="xtick_14">
     <g id="line2d_14">
      <g>
       <use style="stroke:#000000;stroke-width:0.6;" x="213.699869" xlink:href="#ma30187550f" y="288.430125"/>
      </g>
     </g>
    </g>
    <g id="xtick_15">
     <g id="line2d_15">
      <g>
       <use style="stroke:#000000;stroke-width:0.6;" x="222.156434" xlink:href="#ma30187550f" y="288.430125"/>
      </g>
     </g>
    </g>
    <g id="xtick_16">
     <g id="line2d_16">
      <g>
       <use style="stroke:#000000;stroke-width:0.6;" x="279.487543" xlink:href="#ma30187550f" y="288.430125"/>
      </g>
     </g>
    </g>
    <g id="xtick_17">
     <g id="line2d_17">
      <g>
       <use style="stroke:#000000;stroke-width:0.6;" x="308.599052" xlink:href="#ma30187550f" y="288.430125"/>
      </g>
     </g>
    </g>
    <g id="xtick_18">
     <g id="line2d_18">
      <g>
       <use style="stroke:#000000;stroke-width:0.6;" x="329.253996" xlink:href="#ma30187550f" y="288.430125"/>
      </g>
     </g>
    </g>
    <g id="xtick_19">
     <g id="line2d_19">
      <g>
       <use style="stroke:#000000;stroke-width:0.6;" x="345.275216" xlink:href="#ma30187550f" y="288.430125"/>
      </g>
     </g>
    </g>
    <g id="xtick_20">
     <g id="line2d_20">
      <g>
       <use style="stroke:#000000;stroke-width:0.6;" x="358.365506" xlink:href="#ma30187550f" y="288.430125"/>
      </g>
     </g>
    </g>
    <g id="xtick_21">
     <g id="line2d_21">
      <g>
       <use style="stroke:#000000;stroke-width:0.6;" x="369.433188" xlink:href="#ma30187550f" y="288.430125"/>
      </g>
     </g>
    </g>
    <g id="xtick_22">
     <g id="line2d_22">
      <g>
       <use style="stroke:#000000;stroke-width:0.6;" x="379.02045" xlink:href="#ma30187550f" y="288.430125"/>
      </g>
     </g>
    </g>
    <g id="xtick_23">
     <g id="line2d_23">
      <g>
       <use style="stroke:#000000;stroke-width:0.6;" x="387.477015" xlink:href="#ma30187550f" y="288.430125"/>
      </g>
     </g>
    </g>
    <g id="text_7">
     <!-- Time (hour:minute) -->
     <g transform="translate(170.756094 316.706687)scale(0.1 -0.1)">
      <defs>
       <path d="M -19 4666 
L 3928 4666 
L 3928 4134 
L 2272 4134 
L 2272 0 
L 1638 0 
L 1638 4134 
L -19 4134 
L -19 4666 
z
" id="DejaVuSans-54" transform="scale(0.015625)"/>
       <path d="M 603 3500 
L 1178 3500 
L 1178 0 
L 603 0 
L 603 3500 
z
M 603 4863 
L 1178 4863 
L 1178 4134 
L 603 4134 
L 603 4863 
z
" id="DejaVuSans-69" transform="scale(0.015625)"/>
       <path d="M 3597 1894 
L 3597 1613 
L 953 1613 
Q 991 1019 1311 708 
Q 1631 397 2203 397 
Q 2534 397 2845 478 
Q 3156 559 3463 722 
L 3463 178 
Q 3153 47 2828 -22 
Q 2503 -91 2169 -91 
Q 1331 -91 842 396 
Q 353 884 353 1716 
Q 353 2575 817 3079 
Q 1281 3584 2069 3584 
Q 2775 3584 3186 3129 
Q 3597 2675 3597 1894 
z
M 3022 2063 
Q 3016 2534 2758 2815 
Q 2500 3097 2075 3097 
Q 1594 3097 1305 2825 
Q 1016 2553 972 2059 
L 3022 2063 
z
" id="DejaVuSans-65" transform="scale(0.015625)"/>
       <path id="DejaVuSans-20" transform="scale(0.015625)"/>
       <path d="M 1984 4856 
Q 1566 4138 1362 3434 
Q 1159 2731 1159 2009 
Q 1159 1288 1364 580 
Q 1569 -128 1984 -844 
L 1484 -844 
Q 1016 -109 783 600 
Q 550 1309 550 2009 
Q 550 2706 781 3412 
Q 1013 4119 1484 4856 
L 1984 4856 
z
" id="DejaVuSans-28" transform="scale(0.015625)"/>
       <path d="M 1959 3097 
Q 1497 3097 1228 2736 
Q 959 2375 959 1747 
Q 959 1119 1226 758 
Q 1494 397 1959 397 
Q 2419 397 2687 759 
Q 2956 1122 2956 1747 
Q 2956 2369 2687 2733 
Q 2419 3097 1959 3097 
z
M 1959 3584 
Q 2709 3584 3137 3096 
Q 3566 2609 3566 1747 
Q 3566 888 3137 398 
Q 2709 -91 1959 -91 
Q 1206 -91 779 398 
Q 353 888 353 1747 
Q 353 2609 779 3096 
Q 1206 3584 1959 3584 
z
" id="DejaVuSans-6f" transform="scale(0.015625)"/>
       <path d="M 544 1381 
L 544 3500 
L 1119 3500 
L 1119 1403 
Q 1119 906 1312 657 
Q 1506 409 1894 409 
Q 2359 409 2629 706 
Q 2900 1003 2900 1516 
L 2900 3500 
L 3475 3500 
L 3475 0 
L 2900 0 
L 2900 538 
Q 2691 219 2414 64 
Q 2138 -91 1772 -91 
Q 1169 -91 856 284 
Q 544 659 544 1381 
z
M 1991 3584 
L 1991 3584 
z
" id="DejaVuSans-75" transform="scale(0.015625)"/>
       <path d="M 2631 2963 
Q 2534 3019 2420 3045 
Q 2306 3072 2169 3072 
Q 1681 3072 1420 2755 
Q 1159 2438 1159 1844 
L 1159 0 
L 581 0 
L 581 3500 
L 1159 3500 
L 1159 2956 
Q 1341 3275 1631 3429 
Q 1922 3584 2338 3584 
Q 2397 3584 2469 3576 
Q 2541 3569 2628 3553 
L 2631 2963 
z
" id="DejaVuSans-72" transform="scale(0.015625)"/>
       <path d="M 3513 2113 
L 3513 0 
L 2938 0 
L 2938 2094 
Q 2938 2591 2744 2837 
Q 2550 3084 2163 3084 
Q 1697 3084 1428 2787 
Q 1159 2491 1159 1978 
L 1159 0 
L 581 0 
L 581 3500 
L 1159 3500 
L 1159 2956 
Q 1366 3272 1645 3428 
Q 1925 3584 2291 3584 
Q 2894 3584 3203 3211 
Q 3513 2838 3513 2113 
z
" id="DejaVuSans-6e" transform="scale(0.015625)"/>
       <path d="M 1172 4494 
L 1172 3500 
L 2356 3500 
L 2356 3053 
L 1172 3053 
L 1172 1153 
Q 1172 725 1289 603 
Q 1406 481 1766 481 
L 2356 481 
L 2356 0 
L 1766 0 
Q 1100 0 847 248 
Q 594 497 594 1153 
L 594 3053 
L 172 3053 
L 172 3500 
L 594 3500 
L 594 4494 
L 1172 4494 
z
" id="DejaVuSans-74" transform="scale(0.015625)"/>
       <path d="M 513 4856 
L 1013 4856 
Q 1481 4119 1714 3412 
Q 1947 2706 1947 2009 
Q 1947 1309 1714 600 
Q 1481 -109 1013 -844 
L 513 -844 
Q 928 -128 1133 580 
Q 1338 1288 1338 2009 
Q 1338 2731 1133 3434 
Q 928 4138 513 4856 
z
" id="DejaVuSans-29" transform="scale(0.015625)"/>
      </defs>
      <use xlink:href="#DejaVuSans-54"/>
      <use x="57.958984" xlink:href="#DejaVuSans-69"/>
      <use x="85.742188" xlink:href="#DejaVuSans-6d"/>
      <use x="183.154297" xlink:href="#DejaVuSans-65"/>
      <use x="244.677734" xlink:href="#DejaVuSans-20"/>
      <use x="276.464844" xlink:href="#DejaVuSans-28"/>
      <use x="315.478516" xlink:href="#DejaVuSans-68"/>
      <use x="378.857422" xlink:href="#DejaVuSans-6f"/>
      <use x="440.039062" xlink:href="#DejaVuSans-75"/>
      <use x="503.417969" xlink:href="#DejaVuSans-72"/>
      <use x="542.78125" xlink:href="#DejaVuSans-3a"/>
      <use x="576.472656" xlink:href="#DejaVuSans-6d"/>
      <use x="673.884766" xlink:href="#DejaVuSans-69"/>
      <use x="701.667969" xlink:href="#DejaVuSans-6e"/>
      <use x="765.046875" xlink:href="#DejaVuSans-75"/>
      <use x="828.425781" xlink:href="#DejaVuSans-74"/>
      <use x="867.634766" xlink:href="#DejaVuSans-65"/>
      <use x="929.158203" xlink:href="#DejaVuSans-29"/>
     </g>
    </g>
   </g>
   <g id="matplotlib.axis_2">
    <g id="ytick_1">
     <g id="line2d_24">
      <defs>
       <path d="M 0 0 
L -3.5 0 
" id="m4d18f2c035" style="stroke:#000000;stroke-width:0.8;"/>
      </defs>
      <g>
       <use style="stroke:#000000;stroke-width:0.8;" x="40.603125" xlink:href="#m4d18f2c035" y="284.398125"/>
      </g>
     </g>
     <g id="text_8">
      <!-- 0 -->
      <g transform="translate(27.240625 288.197344)scale(0.1 -0.1)">
       <defs>
        <path d="M 2034 4250 
Q 1547 4250 1301 3770 
Q 1056 3291 1056 2328 
Q 1056 1369 1301 889 
Q 1547 409 2034 409 
Q 2525 409 2770 889 
Q 3016 1369 3016 2328 
Q 3016 3291 2770 3770 
Q 2525 4250 2034 4250 
z
M 2034 4750 
Q 2819 4750 3233 4129 
Q 3647 3509 3647 2328 
Q 3647 1150 3233 529 
Q 2819 -91 2034 -91 
Q 1250 -91 836 529 
Q 422 1150 422 2328 
Q 422 3509 836 4129 
Q 1250 4750 2034 4750 
z
" id="DejaVuSans-30" transform="scale(0.015625)"/>
       </defs>
       <use xlink:href="#DejaVuSans-30"/>
      </g>
     </g>
    </g>
    <g id="ytick_2">
     <g id="line2d_25">
      <g>
       <use style="stroke:#000000;stroke-width:0.8;" x="40.603125" xlink:href="#m4d18f2c035" y="244.078125"/>
      </g>
     </g>
     <g id="text_9">
      <!-- 5 -->
      <g transform="translate(27.240625 247.877344)scale(0.1 -0.1)">
       <defs>
        <path d="M 691 4666 
L 3169 4666 
L 3169 4134 
L 1269 4134 
L 1269 2991 
Q 1406 3038 1543 3061 
Q 1681 3084 1819 3084 
Q 2600 3084 3056 2656 
Q 3513 2228 3513 1497 
Q 3513 744 3044 326 
Q 2575 -91 1722 -91 
Q 1428 -91 1123 -41 
Q 819 9 494 109 
L 494 744 
Q 775 591 1075 516 
Q 1375 441 1709 441 
Q 2250 441 2565 725 
Q 2881 1009 2881 1497 
Q 2881 1984 2565 2268 
Q 2250 2553 1709 2553 
Q 1456 2553 1204 2497 
Q 953 2441 691 2322 
L 691 4666 
z
" id="DejaVuSans-35" transform="scale(0.015625)"/>
       </defs>
       <use xlink:href="#DejaVuSans-35"/>
      </g>
     </g>
    </g>
    <g id="ytick_3">
     <g id="line2d_26">
      <g>
       <use style="stroke:#000000;stroke-width:0.8;" x="40.603125" xlink:href="#m4d18f2c035" y="203.758125"/>
      </g>
     </g>
     <g id="text_10">
      <!-- 10 -->
      <g transform="translate(20.878125 207.557344)scale(0.1 -0.1)">
       <use xlink:href="#DejaVuSans-31"/>
       <use x="63.623047" xlink:href="#DejaVuSans-30"/>
      </g>
     </g>
    </g>
    <g id="ytick_4">
     <g id="line2d_27">
      <g>
       <use style="stroke:#000000;stroke-width:0.8;" x="40.603125" xlink:href="#m4d18f2c035" y="163.438125"/>
      </g>
     </g>
     <g id="text_11">
      <!-- 15 -->
      <g transform="translate(20.878125 167.237344)scale(0.1 -0.1)">
       <use xlink:href="#DejaVuSans-31"/>
       <use x="63.623047" xlink:href="#DejaVuSans-35"/>
      </g>
     </g>
    </g>
    <g id="ytick_5">
     <g id="line2d_28">
      <g>
       <use style="stroke:#000000;stroke-width:0.8;" x="40.603125" xlink:href="#m4d18f2c035" y="123.118125"/>
      </g>
     </g>
     <g id="text_12">
      <!-- 20 -->
      <g transform="translate(20.878125 126.917344)scale(0.1 -0.1)">
       <use xlink:href="#DejaVuSans-32"/>
       <use x="63.623047" xlink:href="#DejaVuSans-30"/>
      </g>
     </g>
    </g>
    <g id="ytick_6">
     <g id="line2d_29">
      <g>
       <use style="stroke:#000000;stroke-width:0.8;" x="40.603125" xlink:href="#m4d18f2c035" y="82.798125"/>
      </g>
     </g>
     <g id="text_13">
      <!-- 25 -->
      <g transform="translate(20.878125 86.597344)scale(0.1 -0.1)">
       <use xlink:href="#DejaVuSans-32"/>
       <use x="63.623047" xlink:href="#DejaVuSans-35"/>
      </g>
     </g>
    </g>
    <g id="ytick_7">
     <g id="line2d_30">
      <g>
       <use style="stroke:#000000;stroke-width:0.8;" x="40.603125" xlink:href="#m4d18f2c035" y="42.478125"/>
      </g>
     </g>
     <g id="text_14">
      <!-- 30 -->
      <g transform="translate(20.878125 46.277344)scale(0.1 -0.1)">
       <use xlink:href="#DejaVuSans-33"/>
       <use x="63.623047" xlink:href="#DejaVuSans-30"/>
      </g>
     </g>
    </g>
    <g id="text_15">
     <!-- Bug coverage -->
     <g transform="translate(14.798438 189.951469)rotate(-90)scale(0.1 -0.1)">
      <defs>
       <path d="M 1259 2228 
L 1259 519 
L 2272 519 
Q 2781 519 3026 730 
Q 3272 941 3272 1375 
Q 3272 1813 3026 2020 
Q 2781 2228 2272 2228 
L 1259 2228 
z
M 1259 4147 
L 1259 2741 
L 2194 2741 
Q 2656 2741 2882 2914 
Q 3109 3088 3109 3444 
Q 3109 3797 2882 3972 
Q 2656 4147 2194 4147 
L 1259 4147 
z
M 628 4666 
L 2241 4666 
Q 2963 4666 3353 4366 
Q 3744 4066 3744 3513 
Q 3744 3084 3544 2831 
Q 3344 2578 2956 2516 
Q 3422 2416 3680 2098 
Q 3938 1781 3938 1306 
Q 3938 681 3513 340 
Q 3088 0 2303 0 
L 628 0 
L 628 4666 
z
" id="DejaVuSans-42" transform="scale(0.015625)"/>
       <path d="M 2906 1791 
Q 2906 2416 2648 2759 
Q 2391 3103 1925 3103 
Q 1463 3103 1205 2759 
Q 947 2416 947 1791 
Q 947 1169 1205 825 
Q 1463 481 1925 481 
Q 2391 481 2648 825 
Q 2906 1169 2906 1791 
z
M 3481 434 
Q 3481 -459 3084 -895 
Q 2688 -1331 1869 -1331 
Q 1566 -1331 1297 -1286 
Q 1028 -1241 775 -1147 
L 775 -588 
Q 1028 -725 1275 -790 
Q 1522 -856 1778 -856 
Q 2344 -856 2625 -561 
Q 2906 -266 2906 331 
L 2906 616 
Q 2728 306 2450 153 
Q 2172 0 1784 0 
Q 1141 0 747 490 
Q 353 981 353 1791 
Q 353 2603 747 3093 
Q 1141 3584 1784 3584 
Q 2172 3584 2450 3431 
Q 2728 3278 2906 2969 
L 2906 3500 
L 3481 3500 
L 3481 434 
z
" id="DejaVuSans-67" transform="scale(0.015625)"/>
       <path d="M 3122 3366 
L 3122 2828 
Q 2878 2963 2633 3030 
Q 2388 3097 2138 3097 
Q 1578 3097 1268 2742 
Q 959 2388 959 1747 
Q 959 1106 1268 751 
Q 1578 397 2138 397 
Q 2388 397 2633 464 
Q 2878 531 3122 666 
L 3122 134 
Q 2881 22 2623 -34 
Q 2366 -91 2075 -91 
Q 1284 -91 818 406 
Q 353 903 353 1747 
Q 353 2603 823 3093 
Q 1294 3584 2113 3584 
Q 2378 3584 2631 3529 
Q 2884 3475 3122 3366 
z
" id="DejaVuSans-63" transform="scale(0.015625)"/>
       <path d="M 191 3500 
L 800 3500 
L 1894 563 
L 2988 3500 
L 3597 3500 
L 2284 0 
L 1503 0 
L 191 3500 
z
" id="DejaVuSans-76" transform="scale(0.015625)"/>
       <path d="M 2194 1759 
Q 1497 1759 1228 1600 
Q 959 1441 959 1056 
Q 959 750 1161 570 
Q 1363 391 1709 391 
Q 2188 391 2477 730 
Q 2766 1069 2766 1631 
L 2766 1759 
L 2194 1759 
z
M 3341 1997 
L 3341 0 
L 2766 0 
L 2766 531 
Q 2569 213 2275 61 
Q 1981 -91 1556 -91 
Q 1019 -91 701 211 
Q 384 513 384 1019 
Q 384 1609 779 1909 
Q 1175 2209 1959 2209 
L 2766 2209 
L 2766 2266 
Q 2766 2663 2505 2880 
Q 2244 3097 1772 3097 
Q 1472 3097 1187 3025 
Q 903 2953 641 2809 
L 641 3341 
Q 956 3463 1253 3523 
Q 1550 3584 1831 3584 
Q 2591 3584 2966 3190 
Q 3341 2797 3341 1997 
z
" id="DejaVuSans-61" transform="scale(0.015625)"/>
      </defs>
      <use xlink:href="#DejaVuSans-42"/>
      <use x="68.603516" xlink:href="#DejaVuSans-75"/>
      <use x="131.982422" xlink:href="#DejaVuSans-67"/>
      <use x="195.458984" xlink:href="#DejaVuSans-20"/>
      <use x="227.246094" xlink:href="#DejaVuSans-63"/>
      <use x="282.226562" xlink:href="#DejaVuSans-6f"/>
      <use x="343.408203" xlink:href="#DejaVuSans-76"/>
      <use x="402.587891" xlink:href="#DejaVuSans-65"/>
      <use x="464.111328" xlink:href="#DejaVuSans-72"/>
      <use x="505.224609" xlink:href="#DejaVuSans-61"/>
      <use x="566.503906" xlink:href="#DejaVuSans-67"/>
      <use x="629.980469" xlink:href="#DejaVuSans-65"/>
     </g>
    </g>
   </g>
   <g id="line2d_31">
    <path clip-path="url(#p983f65932d)" d="M 56.835852 276.334125 
L 106.602306 276.334125 
L 135.713816 248.110125 
L 156.36876 199.726125 
L 172.38998 191.662125 
L 185.480269 139.246125 
L 196.547952 123.118125 
L 206.135214 86.830125 
L 214.591779 78.766125 
L 222.156434 66.670125 
L 228.999496 66.670125 
L 235.246723 66.670125 
L 240.993615 66.670125 
L 246.314406 66.670125 
L 251.267943 66.670125 
L 255.901668 66.670125 
L 260.254383 66.670125 
L 264.358233 66.670125 
L 268.240141 62.638125 
L 271.922888 62.638125 
L 275.425915 62.638125 
L 278.76595 58.606125 
L 281.95749 58.606125 
L 285.013177 58.606125 
L 287.944107 58.606125 
L 290.760069 58.606125 
L 293.469742 58.606125 
L 296.080859 58.606125 
L 298.60034 58.606125 
L 301.034397 58.606125 
L 303.388635 58.606125 
L 305.668122 58.606125 
L 307.87746 58.606125 
L 310.020837 58.606125 
L 312.102079 58.606125 
L 314.124687 58.606125 
L 316.091873 58.606125 
L 318.006595 58.606125 
L 319.871578 58.606125 
L 321.689342 58.606125 
L 323.462217 58.606125 
L 325.192369 58.606125 
L 326.881807 58.606125 
L 328.532404 54.574125 
L 330.145906 54.574125 
L 331.723944 54.574125 
L 333.268042 54.574125 
L 334.779631 54.574125 
L 336.260051 54.574125 
L 337.710561 54.574125 
L 339.132347 54.574125 
L 340.526523 54.574125 
L 341.894142 54.574125 
L 343.236196 54.574125 
L 344.553624 54.574125 
L 345.847313 50.542125 
L 347.118104 50.542125 
L 348.366794 50.542125 
L 349.594136 50.542125 
L 350.800851 50.542125 
L 351.987619 50.542125 
L 353.155089 50.542125 
L 354.303878 50.542125 
L 355.434576 50.542125 
L 356.547743 50.542125 
L 357.643914 50.542125 
L 358.7236 50.542125 
L 359.787291 50.542125 
L 360.835453 50.542125 
L 361.868533 50.542125 
L 362.886959 50.542125 
L 363.891141 50.542125 
L 364.881471 50.542125 
L 365.858327 50.542125 
L 366.822071 50.542125 
L 367.773049 50.542125 
L 368.711596 50.542125 
L 369.638032 50.542125 
L 370.552666 50.542125 
L 371.455795 46.510125 
L 372.347705 46.510125 
L 373.228671 46.510125 
L 374.098958 46.510125 
L 374.958823 46.510125 
L 375.808511 46.510125 
L 376.648261 46.510125 
L 377.478303 46.510125 
L 378.298858 46.510125 
L 379.110142 46.510125 
L 379.91236 46.510125 
L 380.705714 46.510125 
L 381.490398 46.510125 
" style="fill:none;stroke:#98df8a;stroke-linecap:square;stroke-width:1.5;"/>
    <defs>
     <path d="M -0 3 
L 3 -3 
L -3 -3 
z
" id="m799f4bc8bb" style="stroke:#ffffff;stroke-linejoin:miter;stroke-width:0.75;"/>
    </defs>
    <g clip-path="url(#p983f65932d)">
     <use style="fill:#98df8a;stroke:#ffffff;stroke-linejoin:miter;stroke-width:0.75;" x="56.835852" xlink:href="#m799f4bc8bb" y="276.334125"/>
     <use style="fill:#98df8a;stroke:#ffffff;stroke-linejoin:miter;stroke-width:0.75;" x="106.602306" xlink:href="#m799f4bc8bb" y="276.334125"/>
     <use style="fill:#98df8a;stroke:#ffffff;stroke-linejoin:miter;stroke-width:0.75;" x="135.713816" xlink:href="#m799f4bc8bb" y="248.110125"/>
     <use style="fill:#98df8a;stroke:#ffffff;stroke-linejoin:miter;stroke-width:0.75;" x="156.36876" xlink:href="#m799f4bc8bb" y="199.726125"/>
     <use style="fill:#98df8a;stroke:#ffffff;stroke-linejoin:miter;stroke-width:0.75;" x="172.38998" xlink:href="#m799f4bc8bb" y="191.662125"/>
     <use style="fill:#98df8a;stroke:#ffffff;stroke-linejoin:miter;stroke-width:0.75;" x="185.480269" xlink:href="#m799f4bc8bb" y="139.246125"/>
     <use style="fill:#98df8a;stroke:#ffffff;stroke-linejoin:miter;stroke-width:0.75;" x="196.547952" xlink:href="#m799f4bc8bb" y="123.118125"/>
     <use style="fill:#98df8a;stroke:#ffffff;stroke-linejoin:miter;stroke-width:0.75;" x="206.135214" xlink:href="#m799f4bc8bb" y="86.830125"/>
     <use style="fill:#98df8a;stroke:#ffffff;stroke-linejoin:miter;stroke-width:0.75;" x="214.591779" xlink:href="#m799f4bc8bb" y="78.766125"/>
     <use style="fill:#98df8a;stroke:#ffffff;stroke-linejoin:miter;stroke-width:0.75;" x="222.156434" xlink:href="#m799f4bc8bb" y="66.670125"/>
     <use style="fill:#98df8a;stroke:#ffffff;stroke-linejoin:miter;stroke-width:0.75;" x="228.999496" xlink:href="#m799f4bc8bb" y="66.670125"/>
     <use style="fill:#98df8a;stroke:#ffffff;stroke-linejoin:miter;stroke-width:0.75;" x="235.246723" xlink:href="#m799f4bc8bb" y="66.670125"/>
     <use style="fill:#98df8a;stroke:#ffffff;stroke-linejoin:miter;stroke-width:0.75;" x="240.993615" xlink:href="#m799f4bc8bb" y="66.670125"/>
     <use style="fill:#98df8a;stroke:#ffffff;stroke-linejoin:miter;stroke-width:0.75;" x="246.314406" xlink:href="#m799f4bc8bb" y="66.670125"/>
     <use style="fill:#98df8a;stroke:#ffffff;stroke-linejoin:miter;stroke-width:0.75;" x="251.267943" xlink:href="#m799f4bc8bb" y="66.670125"/>
     <use style="fill:#98df8a;stroke:#ffffff;stroke-linejoin:miter;stroke-width:0.75;" x="255.901668" xlink:href="#m799f4bc8bb" y="66.670125"/>
     <use style="fill:#98df8a;stroke:#ffffff;stroke-linejoin:miter;stroke-width:0.75;" x="260.254383" xlink:href="#m799f4bc8bb" y="66.670125"/>
     <use style="fill:#98df8a;stroke:#ffffff;stroke-linejoin:miter;stroke-width:0.75;" x="264.358233" xlink:href="#m799f4bc8bb" y="66.670125"/>
     <use style="fill:#98df8a;stroke:#ffffff;stroke-linejoin:miter;stroke-width:0.75;" x="268.240141" xlink:href="#m799f4bc8bb" y="62.638125"/>
     <use style="fill:#98df8a;stroke:#ffffff;stroke-linejoin:miter;stroke-width:0.75;" x="271.922888" xlink:href="#m799f4bc8bb" y="62.638125"/>
     <use style="fill:#98df8a;stroke:#ffffff;stroke-linejoin:miter;stroke-width:0.75;" x="275.425915" xlink:href="#m799f4bc8bb" y="62.638125"/>
     <use style="fill:#98df8a;stroke:#ffffff;stroke-linejoin:miter;stroke-width:0.75;" x="278.76595" xlink:href="#m799f4bc8bb" y="58.606125"/>
     <use style="fill:#98df8a;stroke:#ffffff;stroke-linejoin:miter;stroke-width:0.75;" x="281.95749" xlink:href="#m799f4bc8bb" y="58.606125"/>
     <use style="fill:#98df8a;stroke:#ffffff;stroke-linejoin:miter;stroke-width:0.75;" x="285.013177" xlink:href="#m799f4bc8bb" y="58.606125"/>
     <use style="fill:#98df8a;stroke:#ffffff;stroke-linejoin:miter;stroke-width:0.75;" x="287.944107" xlink:href="#m799f4bc8bb" y="58.606125"/>
     <use style="fill:#98df8a;stroke:#ffffff;stroke-linejoin:miter;stroke-width:0.75;" x="290.760069" xlink:href="#m799f4bc8bb" y="58.606125"/>
     <use style="fill:#98df8a;stroke:#ffffff;stroke-linejoin:miter;stroke-width:0.75;" x="293.469742" xlink:href="#m799f4bc8bb" y="58.606125"/>
     <use style="fill:#98df8a;stroke:#ffffff;stroke-linejoin:miter;stroke-width:0.75;" x="296.080859" xlink:href="#m799f4bc8bb" y="58.606125"/>
     <use style="fill:#98df8a;stroke:#ffffff;stroke-linejoin:miter;stroke-width:0.75;" x="298.60034" xlink:href="#m799f4bc8bb" y="58.606125"/>
     <use style="fill:#98df8a;stroke:#ffffff;stroke-linejoin:miter;stroke-width:0.75;" x="301.034397" xlink:href="#m799f4bc8bb" y="58.606125"/>
     <use style="fill:#98df8a;stroke:#ffffff;stroke-linejoin:miter;stroke-width:0.75;" x="303.388635" xlink:href="#m799f4bc8bb" y="58.606125"/>
     <use style="fill:#98df8a;stroke:#ffffff;stroke-linejoin:miter;stroke-width:0.75;" x="305.668122" xlink:href="#m799f4bc8bb" y="58.606125"/>
     <use style="fill:#98df8a;stroke:#ffffff;stroke-linejoin:miter;stroke-width:0.75;" x="307.87746" xlink:href="#m799f4bc8bb" y="58.606125"/>
     <use style="fill:#98df8a;stroke:#ffffff;stroke-linejoin:miter;stroke-width:0.75;" x="310.020837" xlink:href="#m799f4bc8bb" y="58.606125"/>
     <use style="fill:#98df8a;stroke:#ffffff;stroke-linejoin:miter;stroke-width:0.75;" x="312.102079" xlink:href="#m799f4bc8bb" y="58.606125"/>
     <use style="fill:#98df8a;stroke:#ffffff;stroke-linejoin:miter;stroke-width:0.75;" x="314.124687" xlink:href="#m799f4bc8bb" y="58.606125"/>
     <use style="fill:#98df8a;stroke:#ffffff;stroke-linejoin:miter;stroke-width:0.75;" x="316.091873" xlink:href="#m799f4bc8bb" y="58.606125"/>
     <use style="fill:#98df8a;stroke:#ffffff;stroke-linejoin:miter;stroke-width:0.75;" x="318.006595" xlink:href="#m799f4bc8bb" y="58.606125"/>
     <use style="fill:#98df8a;stroke:#ffffff;stroke-linejoin:miter;stroke-width:0.75;" x="319.871578" xlink:href="#m799f4bc8bb" y="58.606125"/>
     <use style="fill:#98df8a;stroke:#ffffff;stroke-linejoin:miter;stroke-width:0.75;" x="321.689342" xlink:href="#m799f4bc8bb" y="58.606125"/>
     <use style="fill:#98df8a;stroke:#ffffff;stroke-linejoin:miter;stroke-width:0.75;" x="323.462217" xlink:href="#m799f4bc8bb" y="58.606125"/>
     <use style="fill:#98df8a;stroke:#ffffff;stroke-linejoin:miter;stroke-width:0.75;" x="325.192369" xlink:href="#m799f4bc8bb" y="58.606125"/>
     <use style="fill:#98df8a;stroke:#ffffff;stroke-linejoin:miter;stroke-width:0.75;" x="326.881807" xlink:href="#m799f4bc8bb" y="58.606125"/>
     <use style="fill:#98df8a;stroke:#ffffff;stroke-linejoin:miter;stroke-width:0.75;" x="328.532404" xlink:href="#m799f4bc8bb" y="54.574125"/>
     <use style="fill:#98df8a;stroke:#ffffff;stroke-linejoin:miter;stroke-width:0.75;" x="330.145906" xlink:href="#m799f4bc8bb" y="54.574125"/>
     <use style="fill:#98df8a;stroke:#ffffff;stroke-linejoin:miter;stroke-width:0.75;" x="331.723944" xlink:href="#m799f4bc8bb" y="54.574125"/>
     <use style="fill:#98df8a;stroke:#ffffff;stroke-linejoin:miter;stroke-width:0.75;" x="333.268042" xlink:href="#m799f4bc8bb" y="54.574125"/>
     <use style="fill:#98df8a;stroke:#ffffff;stroke-linejoin:miter;stroke-width:0.75;" x="334.779631" xlink:href="#m799f4bc8bb" y="54.574125"/>
     <use style="fill:#98df8a;stroke:#ffffff;stroke-linejoin:miter;stroke-width:0.75;" x="336.260051" xlink:href="#m799f4bc8bb" y="54.574125"/>
     <use style="fill:#98df8a;stroke:#ffffff;stroke-linejoin:miter;stroke-width:0.75;" x="337.710561" xlink:href="#m799f4bc8bb" y="54.574125"/>
     <use style="fill:#98df8a;stroke:#ffffff;stroke-linejoin:miter;stroke-width:0.75;" x="339.132347" xlink:href="#m799f4bc8bb" y="54.574125"/>
     <use style="fill:#98df8a;stroke:#ffffff;stroke-linejoin:miter;stroke-width:0.75;" x="340.526523" xlink:href="#m799f4bc8bb" y="54.574125"/>
     <use style="fill:#98df8a;stroke:#ffffff;stroke-linejoin:miter;stroke-width:0.75;" x="341.894142" xlink:href="#m799f4bc8bb" y="54.574125"/>
     <use style="fill:#98df8a;stroke:#ffffff;stroke-linejoin:miter;stroke-width:0.75;" x="343.236196" xlink:href="#m799f4bc8bb" y="54.574125"/>
     <use style="fill:#98df8a;stroke:#ffffff;stroke-linejoin:miter;stroke-width:0.75;" x="344.553624" xlink:href="#m799f4bc8bb" y="54.574125"/>
     <use style="fill:#98df8a;stroke:#ffffff;stroke-linejoin:miter;stroke-width:0.75;" x="345.847313" xlink:href="#m799f4bc8bb" y="50.542125"/>
     <use style="fill:#98df8a;stroke:#ffffff;stroke-linejoin:miter;stroke-width:0.75;" x="347.118104" xlink:href="#m799f4bc8bb" y="50.542125"/>
     <use style="fill:#98df8a;stroke:#ffffff;stroke-linejoin:miter;stroke-width:0.75;" x="348.366794" xlink:href="#m799f4bc8bb" y="50.542125"/>
     <use style="fill:#98df8a;stroke:#ffffff;stroke-linejoin:miter;stroke-width:0.75;" x="349.594136" xlink:href="#m799f4bc8bb" y="50.542125"/>
     <use style="fill:#98df8a;stroke:#ffffff;stroke-linejoin:miter;stroke-width:0.75;" x="350.800851" xlink:href="#m799f4bc8bb" y="50.542125"/>
     <use style="fill:#98df8a;stroke:#ffffff;stroke-linejoin:miter;stroke-width:0.75;" x="351.987619" xlink:href="#m799f4bc8bb" y="50.542125"/>
     <use style="fill:#98df8a;stroke:#ffffff;stroke-linejoin:miter;stroke-width:0.75;" x="353.155089" xlink:href="#m799f4bc8bb" y="50.542125"/>
     <use style="fill:#98df8a;stroke:#ffffff;stroke-linejoin:miter;stroke-width:0.75;" x="354.303878" xlink:href="#m799f4bc8bb" y="50.542125"/>
     <use style="fill:#98df8a;stroke:#ffffff;stroke-linejoin:miter;stroke-width:0.75;" x="355.434576" xlink:href="#m799f4bc8bb" y="50.542125"/>
     <use style="fill:#98df8a;stroke:#ffffff;stroke-linejoin:miter;stroke-width:0.75;" x="356.547743" xlink:href="#m799f4bc8bb" y="50.542125"/>
     <use style="fill:#98df8a;stroke:#ffffff;stroke-linejoin:miter;stroke-width:0.75;" x="357.643914" xlink:href="#m799f4bc8bb" y="50.542125"/>
     <use style="fill:#98df8a;stroke:#ffffff;stroke-linejoin:miter;stroke-width:0.75;" x="358.7236" xlink:href="#m799f4bc8bb" y="50.542125"/>
     <use style="fill:#98df8a;stroke:#ffffff;stroke-linejoin:miter;stroke-width:0.75;" x="359.787291" xlink:href="#m799f4bc8bb" y="50.542125"/>
     <use style="fill:#98df8a;stroke:#ffffff;stroke-linejoin:miter;stroke-width:0.75;" x="360.835453" xlink:href="#m799f4bc8bb" y="50.542125"/>
     <use style="fill:#98df8a;stroke:#ffffff;stroke-linejoin:miter;stroke-width:0.75;" x="361.868533" xlink:href="#m799f4bc8bb" y="50.542125"/>
     <use style="fill:#98df8a;stroke:#ffffff;stroke-linejoin:miter;stroke-width:0.75;" x="362.886959" xlink:href="#m799f4bc8bb" y="50.542125"/>
     <use style="fill:#98df8a;stroke:#ffffff;stroke-linejoin:miter;stroke-width:0.75;" x="363.891141" xlink:href="#m799f4bc8bb" y="50.542125"/>
     <use style="fill:#98df8a;stroke:#ffffff;stroke-linejoin:miter;stroke-width:0.75;" x="364.881471" xlink:href="#m799f4bc8bb" y="50.542125"/>
     <use style="fill:#98df8a;stroke:#ffffff;stroke-linejoin:miter;stroke-width:0.75;" x="365.858327" xlink:href="#m799f4bc8bb" y="50.542125"/>
     <use style="fill:#98df8a;stroke:#ffffff;stroke-linejoin:miter;stroke-width:0.75;" x="366.822071" xlink:href="#m799f4bc8bb" y="50.542125"/>
     <use style="fill:#98df8a;stroke:#ffffff;stroke-linejoin:miter;stroke-width:0.75;" x="367.773049" xlink:href="#m799f4bc8bb" y="50.542125"/>
     <use style="fill:#98df8a;stroke:#ffffff;stroke-linejoin:miter;stroke-width:0.75;" x="368.711596" xlink:href="#m799f4bc8bb" y="50.542125"/>
     <use style="fill:#98df8a;stroke:#ffffff;stroke-linejoin:miter;stroke-width:0.75;" x="369.638032" xlink:href="#m799f4bc8bb" y="50.542125"/>
     <use style="fill:#98df8a;stroke:#ffffff;stroke-linejoin:miter;stroke-width:0.75;" x="370.552666" xlink:href="#m799f4bc8bb" y="50.542125"/>
     <use style="fill:#98df8a;stroke:#ffffff;stroke-linejoin:miter;stroke-width:0.75;" x="371.455795" xlink:href="#m799f4bc8bb" y="46.510125"/>
     <use style="fill:#98df8a;stroke:#ffffff;stroke-linejoin:miter;stroke-width:0.75;" x="372.347705" xlink:href="#m799f4bc8bb" y="46.510125"/>
     <use style="fill:#98df8a;stroke:#ffffff;stroke-linejoin:miter;stroke-width:0.75;" x="373.228671" xlink:href="#m799f4bc8bb" y="46.510125"/>
     <use style="fill:#98df8a;stroke:#ffffff;stroke-linejoin:miter;stroke-width:0.75;" x="374.098958" xlink:href="#m799f4bc8bb" y="46.510125"/>
     <use style="fill:#98df8a;stroke:#ffffff;stroke-linejoin:miter;stroke-width:0.75;" x="374.958823" xlink:href="#m799f4bc8bb" y="46.510125"/>
     <use style="fill:#98df8a;stroke:#ffffff;stroke-linejoin:miter;stroke-width:0.75;" x="375.808511" xlink:href="#m799f4bc8bb" y="46.510125"/>
     <use style="fill:#98df8a;stroke:#ffffff;stroke-linejoin:miter;stroke-width:0.75;" x="376.648261" xlink:href="#m799f4bc8bb" y="46.510125"/>
     <use style="fill:#98df8a;stroke:#ffffff;stroke-linejoin:miter;stroke-width:0.75;" x="377.478303" xlink:href="#m799f4bc8bb" y="46.510125"/>
     <use style="fill:#98df8a;stroke:#ffffff;stroke-linejoin:miter;stroke-width:0.75;" x="378.298858" xlink:href="#m799f4bc8bb" y="46.510125"/>
     <use style="fill:#98df8a;stroke:#ffffff;stroke-linejoin:miter;stroke-width:0.75;" x="379.110142" xlink:href="#m799f4bc8bb" y="46.510125"/>
     <use style="fill:#98df8a;stroke:#ffffff;stroke-linejoin:miter;stroke-width:0.75;" x="379.91236" xlink:href="#m799f4bc8bb" y="46.510125"/>
     <use style="fill:#98df8a;stroke:#ffffff;stroke-linejoin:miter;stroke-width:0.75;" x="380.705714" xlink:href="#m799f4bc8bb" y="46.510125"/>
     <use style="fill:#98df8a;stroke:#ffffff;stroke-linejoin:miter;stroke-width:0.75;" x="381.490398" xlink:href="#m799f4bc8bb" y="46.510125"/>
    </g>
   </g>
   <g id="line2d_32">
    <path clip-path="url(#p983f65932d)" d="M 56.835852 276.334125 
L 106.602306 276.334125 
L 135.713816 276.334125 
L 156.36876 272.302125 
L 172.38998 231.982125 
L 185.480269 199.726125 
L 196.547952 167.470125 
L 206.135214 159.406125 
L 214.591779 127.150125 
L 222.156434 102.958125 
L 228.999496 102.958125 
L 235.246723 98.926125 
L 240.993615 94.894125 
L 246.314406 82.798125 
L 251.267943 74.734125 
L 255.901668 74.734125 
L 260.254383 74.734125 
L 264.358233 74.734125 
L 268.240141 74.734125 
L 271.922888 74.734125 
L 275.425915 66.670125 
L 278.76595 66.670125 
L 281.95749 66.670125 
L 285.013177 66.670125 
L 287.944107 66.670125 
L 290.760069 66.670125 
L 293.469742 66.670125 
L 296.080859 66.670125 
L 298.60034 66.670125 
L 301.034397 66.670125 
L 303.388635 66.670125 
L 305.668122 66.670125 
L 307.87746 66.670125 
L 310.020837 66.670125 
L 312.102079 66.670125 
L 314.124687 66.670125 
L 316.091873 66.670125 
L 318.006595 66.670125 
L 319.871578 62.638125 
L 321.689342 62.638125 
L 323.462217 62.638125 
L 325.192369 62.638125 
L 326.881807 62.638125 
L 328.532404 62.638125 
L 330.145906 58.606125 
L 331.723944 58.606125 
L 333.268042 58.606125 
L 334.779631 58.606125 
L 336.260051 58.606125 
L 337.710561 58.606125 
L 339.132347 58.606125 
L 340.526523 58.606125 
L 341.894142 58.606125 
L 343.236196 58.606125 
L 344.553624 58.606125 
L 345.847313 58.606125 
L 347.118104 58.606125 
L 348.366794 58.606125 
L 349.594136 58.606125 
L 350.800851 54.574125 
L 351.987619 54.574125 
L 353.155089 54.574125 
L 354.303878 54.574125 
L 355.434576 54.574125 
L 356.547743 54.574125 
L 357.643914 54.574125 
L 358.7236 54.574125 
L 359.787291 54.574125 
L 360.835453 54.574125 
L 361.868533 54.574125 
L 362.886959 50.542125 
L 363.891141 50.542125 
L 364.881471 50.542125 
L 365.858327 50.542125 
L 366.822071 50.542125 
L 367.773049 50.542125 
L 368.711596 50.542125 
L 369.638032 50.542125 
L 370.552666 50.542125 
L 371.455795 50.542125 
L 372.347705 50.542125 
L 373.228671 50.542125 
L 374.098958 50.542125 
L 374.958823 50.542125 
L 375.808511 50.542125 
L 376.648261 50.542125 
L 377.478303 50.542125 
L 378.298858 50.542125 
L 379.110142 50.542125 
L 379.91236 50.542125 
L 380.705714 50.542125 
L 381.490398 50.542125 
" style="fill:none;stroke:#d62728;stroke-linecap:square;stroke-width:1.5;"/>
    <defs>
     <path d="M 0 -3 
L -3 3 
L 3 3 
z
" id="mbe8e505c1a" style="stroke:#ffffff;stroke-linejoin:miter;stroke-width:0.75;"/>
    </defs>
    <g clip-path="url(#p983f65932d)">
     <use style="fill:#d62728;stroke:#ffffff;stroke-linejoin:miter;stroke-width:0.75;" x="56.835852" xlink:href="#mbe8e505c1a" y="276.334125"/>
     <use style="fill:#d62728;stroke:#ffffff;stroke-linejoin:miter;stroke-width:0.75;" x="106.602306" xlink:href="#mbe8e505c1a" y="276.334125"/>
     <use style="fill:#d62728;stroke:#ffffff;stroke-linejoin:miter;stroke-width:0.75;" x="135.713816" xlink:href="#mbe8e505c1a" y="276.334125"/>
     <use style="fill:#d62728;stroke:#ffffff;stroke-linejoin:miter;stroke-width:0.75;" x="156.36876" xlink:href="#mbe8e505c1a" y="272.302125"/>
     <use style="fill:#d62728;stroke:#ffffff;stroke-linejoin:miter;stroke-width:0.75;" x="172.38998" xlink:href="#mbe8e505c1a" y="231.982125"/>
     <use style="fill:#d62728;stroke:#ffffff;stroke-linejoin:miter;stroke-width:0.75;" x="185.480269" xlink:href="#mbe8e505c1a" y="199.726125"/>
     <use style="fill:#d62728;stroke:#ffffff;stroke-linejoin:miter;stroke-width:0.75;" x="196.547952" xlink:href="#mbe8e505c1a" y="167.470125"/>
     <use style="fill:#d62728;stroke:#ffffff;stroke-linejoin:miter;stroke-width:0.75;" x="206.135214" xlink:href="#mbe8e505c1a" y="159.406125"/>
     <use style="fill:#d62728;stroke:#ffffff;stroke-linejoin:miter;stroke-width:0.75;" x="214.591779" xlink:href="#mbe8e505c1a" y="127.150125"/>
     <use style="fill:#d62728;stroke:#ffffff;stroke-linejoin:miter;stroke-width:0.75;" x="222.156434" xlink:href="#mbe8e505c1a" y="102.958125"/>
     <use style="fill:#d62728;stroke:#ffffff;stroke-linejoin:miter;stroke-width:0.75;" x="228.999496" xlink:href="#mbe8e505c1a" y="102.958125"/>
     <use style="fill:#d62728;stroke:#ffffff;stroke-linejoin:miter;stroke-width:0.75;" x="235.246723" xlink:href="#mbe8e505c1a" y="98.926125"/>
     <use style="fill:#d62728;stroke:#ffffff;stroke-linejoin:miter;stroke-width:0.75;" x="240.993615" xlink:href="#mbe8e505c1a" y="94.894125"/>
     <use style="fill:#d62728;stroke:#ffffff;stroke-linejoin:miter;stroke-width:0.75;" x="246.314406" xlink:href="#mbe8e505c1a" y="82.798125"/>
     <use style="fill:#d62728;stroke:#ffffff;stroke-linejoin:miter;stroke-width:0.75;" x="251.267943" xlink:href="#mbe8e505c1a" y="74.734125"/>
     <use style="fill:#d62728;stroke:#ffffff;stroke-linejoin:miter;stroke-width:0.75;" x="255.901668" xlink:href="#mbe8e505c1a" y="74.734125"/>
     <use style="fill:#d62728;stroke:#ffffff;stroke-linejoin:miter;stroke-width:0.75;" x="260.254383" xlink:href="#mbe8e505c1a" y="74.734125"/>
     <use style="fill:#d62728;stroke:#ffffff;stroke-linejoin:miter;stroke-width:0.75;" x="264.358233" xlink:href="#mbe8e505c1a" y="74.734125"/>
     <use style="fill:#d62728;stroke:#ffffff;stroke-linejoin:miter;stroke-width:0.75;" x="268.240141" xlink:href="#mbe8e505c1a" y="74.734125"/>
     <use style="fill:#d62728;stroke:#ffffff;stroke-linejoin:miter;stroke-width:0.75;" x="271.922888" xlink:href="#mbe8e505c1a" y="74.734125"/>
     <use style="fill:#d62728;stroke:#ffffff;stroke-linejoin:miter;stroke-width:0.75;" x="275.425915" xlink:href="#mbe8e505c1a" y="66.670125"/>
     <use style="fill:#d62728;stroke:#ffffff;stroke-linejoin:miter;stroke-width:0.75;" x="278.76595" xlink:href="#mbe8e505c1a" y="66.670125"/>
     <use style="fill:#d62728;stroke:#ffffff;stroke-linejoin:miter;stroke-width:0.75;" x="281.95749" xlink:href="#mbe8e505c1a" y="66.670125"/>
     <use style="fill:#d62728;stroke:#ffffff;stroke-linejoin:miter;stroke-width:0.75;" x="285.013177" xlink:href="#mbe8e505c1a" y="66.670125"/>
     <use style="fill:#d62728;stroke:#ffffff;stroke-linejoin:miter;stroke-width:0.75;" x="287.944107" xlink:href="#mbe8e505c1a" y="66.670125"/>
     <use style="fill:#d62728;stroke:#ffffff;stroke-linejoin:miter;stroke-width:0.75;" x="290.760069" xlink:href="#mbe8e505c1a" y="66.670125"/>
     <use style="fill:#d62728;stroke:#ffffff;stroke-linejoin:miter;stroke-width:0.75;" x="293.469742" xlink:href="#mbe8e505c1a" y="66.670125"/>
     <use style="fill:#d62728;stroke:#ffffff;stroke-linejoin:miter;stroke-width:0.75;" x="296.080859" xlink:href="#mbe8e505c1a" y="66.670125"/>
     <use style="fill:#d62728;stroke:#ffffff;stroke-linejoin:miter;stroke-width:0.75;" x="298.60034" xlink:href="#mbe8e505c1a" y="66.670125"/>
     <use style="fill:#d62728;stroke:#ffffff;stroke-linejoin:miter;stroke-width:0.75;" x="301.034397" xlink:href="#mbe8e505c1a" y="66.670125"/>
     <use style="fill:#d62728;stroke:#ffffff;stroke-linejoin:miter;stroke-width:0.75;" x="303.388635" xlink:href="#mbe8e505c1a" y="66.670125"/>
     <use style="fill:#d62728;stroke:#ffffff;stroke-linejoin:miter;stroke-width:0.75;" x="305.668122" xlink:href="#mbe8e505c1a" y="66.670125"/>
     <use style="fill:#d62728;stroke:#ffffff;stroke-linejoin:miter;stroke-width:0.75;" x="307.87746" xlink:href="#mbe8e505c1a" y="66.670125"/>
     <use style="fill:#d62728;stroke:#ffffff;stroke-linejoin:miter;stroke-width:0.75;" x="310.020837" xlink:href="#mbe8e505c1a" y="66.670125"/>
     <use style="fill:#d62728;stroke:#ffffff;stroke-linejoin:miter;stroke-width:0.75;" x="312.102079" xlink:href="#mbe8e505c1a" y="66.670125"/>
     <use style="fill:#d62728;stroke:#ffffff;stroke-linejoin:miter;stroke-width:0.75;" x="314.124687" xlink:href="#mbe8e505c1a" y="66.670125"/>
     <use style="fill:#d62728;stroke:#ffffff;stroke-linejoin:miter;stroke-width:0.75;" x="316.091873" xlink:href="#mbe8e505c1a" y="66.670125"/>
     <use style="fill:#d62728;stroke:#ffffff;stroke-linejoin:miter;stroke-width:0.75;" x="318.006595" xlink:href="#mbe8e505c1a" y="66.670125"/>
     <use style="fill:#d62728;stroke:#ffffff;stroke-linejoin:miter;stroke-width:0.75;" x="319.871578" xlink:href="#mbe8e505c1a" y="62.638125"/>
     <use style="fill:#d62728;stroke:#ffffff;stroke-linejoin:miter;stroke-width:0.75;" x="321.689342" xlink:href="#mbe8e505c1a" y="62.638125"/>
     <use style="fill:#d62728;stroke:#ffffff;stroke-linejoin:miter;stroke-width:0.75;" x="323.462217" xlink:href="#mbe8e505c1a" y="62.638125"/>
     <use style="fill:#d62728;stroke:#ffffff;stroke-linejoin:miter;stroke-width:0.75;" x="325.192369" xlink:href="#mbe8e505c1a" y="62.638125"/>
     <use style="fill:#d62728;stroke:#ffffff;stroke-linejoin:miter;stroke-width:0.75;" x="326.881807" xlink:href="#mbe8e505c1a" y="62.638125"/>
     <use style="fill:#d62728;stroke:#ffffff;stroke-linejoin:miter;stroke-width:0.75;" x="328.532404" xlink:href="#mbe8e505c1a" y="62.638125"/>
     <use style="fill:#d62728;stroke:#ffffff;stroke-linejoin:miter;stroke-width:0.75;" x="330.145906" xlink:href="#mbe8e505c1a" y="58.606125"/>
     <use style="fill:#d62728;stroke:#ffffff;stroke-linejoin:miter;stroke-width:0.75;" x="331.723944" xlink:href="#mbe8e505c1a" y="58.606125"/>
     <use style="fill:#d62728;stroke:#ffffff;stroke-linejoin:miter;stroke-width:0.75;" x="333.268042" xlink:href="#mbe8e505c1a" y="58.606125"/>
     <use style="fill:#d62728;stroke:#ffffff;stroke-linejoin:miter;stroke-width:0.75;" x="334.779631" xlink:href="#mbe8e505c1a" y="58.606125"/>
     <use style="fill:#d62728;stroke:#ffffff;stroke-linejoin:miter;stroke-width:0.75;" x="336.260051" xlink:href="#mbe8e505c1a" y="58.606125"/>
     <use style="fill:#d62728;stroke:#ffffff;stroke-linejoin:miter;stroke-width:0.75;" x="337.710561" xlink:href="#mbe8e505c1a" y="58.606125"/>
     <use style="fill:#d62728;stroke:#ffffff;stroke-linejoin:miter;stroke-width:0.75;" x="339.132347" xlink:href="#mbe8e505c1a" y="58.606125"/>
     <use style="fill:#d62728;stroke:#ffffff;stroke-linejoin:miter;stroke-width:0.75;" x="340.526523" xlink:href="#mbe8e505c1a" y="58.606125"/>
     <use style="fill:#d62728;stroke:#ffffff;stroke-linejoin:miter;stroke-width:0.75;" x="341.894142" xlink:href="#mbe8e505c1a" y="58.606125"/>
     <use style="fill:#d62728;stroke:#ffffff;stroke-linejoin:miter;stroke-width:0.75;" x="343.236196" xlink:href="#mbe8e505c1a" y="58.606125"/>
     <use style="fill:#d62728;stroke:#ffffff;stroke-linejoin:miter;stroke-width:0.75;" x="344.553624" xlink:href="#mbe8e505c1a" y="58.606125"/>
     <use style="fill:#d62728;stroke:#ffffff;stroke-linejoin:miter;stroke-width:0.75;" x="345.847313" xlink:href="#mbe8e505c1a" y="58.606125"/>
     <use style="fill:#d62728;stroke:#ffffff;stroke-linejoin:miter;stroke-width:0.75;" x="347.118104" xlink:href="#mbe8e505c1a" y="58.606125"/>
     <use style="fill:#d62728;stroke:#ffffff;stroke-linejoin:miter;stroke-width:0.75;" x="348.366794" xlink:href="#mbe8e505c1a" y="58.606125"/>
     <use style="fill:#d62728;stroke:#ffffff;stroke-linejoin:miter;stroke-width:0.75;" x="349.594136" xlink:href="#mbe8e505c1a" y="58.606125"/>
     <use style="fill:#d62728;stroke:#ffffff;stroke-linejoin:miter;stroke-width:0.75;" x="350.800851" xlink:href="#mbe8e505c1a" y="54.574125"/>
     <use style="fill:#d62728;stroke:#ffffff;stroke-linejoin:miter;stroke-width:0.75;" x="351.987619" xlink:href="#mbe8e505c1a" y="54.574125"/>
     <use style="fill:#d62728;stroke:#ffffff;stroke-linejoin:miter;stroke-width:0.75;" x="353.155089" xlink:href="#mbe8e505c1a" y="54.574125"/>
     <use style="fill:#d62728;stroke:#ffffff;stroke-linejoin:miter;stroke-width:0.75;" x="354.303878" xlink:href="#mbe8e505c1a" y="54.574125"/>
     <use style="fill:#d62728;stroke:#ffffff;stroke-linejoin:miter;stroke-width:0.75;" x="355.434576" xlink:href="#mbe8e505c1a" y="54.574125"/>
     <use style="fill:#d62728;stroke:#ffffff;stroke-linejoin:miter;stroke-width:0.75;" x="356.547743" xlink:href="#mbe8e505c1a" y="54.574125"/>
     <use style="fill:#d62728;stroke:#ffffff;stroke-linejoin:miter;stroke-width:0.75;" x="357.643914" xlink:href="#mbe8e505c1a" y="54.574125"/>
     <use style="fill:#d62728;stroke:#ffffff;stroke-linejoin:miter;stroke-width:0.75;" x="358.7236" xlink:href="#mbe8e505c1a" y="54.574125"/>
     <use style="fill:#d62728;stroke:#ffffff;stroke-linejoin:miter;stroke-width:0.75;" x="359.787291" xlink:href="#mbe8e505c1a" y="54.574125"/>
     <use style="fill:#d62728;stroke:#ffffff;stroke-linejoin:miter;stroke-width:0.75;" x="360.835453" xlink:href="#mbe8e505c1a" y="54.574125"/>
     <use style="fill:#d62728;stroke:#ffffff;stroke-linejoin:miter;stroke-width:0.75;" x="361.868533" xlink:href="#mbe8e505c1a" y="54.574125"/>
     <use style="fill:#d62728;stroke:#ffffff;stroke-linejoin:miter;stroke-width:0.75;" x="362.886959" xlink:href="#mbe8e505c1a" y="50.542125"/>
     <use style="fill:#d62728;stroke:#ffffff;stroke-linejoin:miter;stroke-width:0.75;" x="363.891141" xlink:href="#mbe8e505c1a" y="50.542125"/>
     <use style="fill:#d62728;stroke:#ffffff;stroke-linejoin:miter;stroke-width:0.75;" x="364.881471" xlink:href="#mbe8e505c1a" y="50.542125"/>
     <use style="fill:#d62728;stroke:#ffffff;stroke-linejoin:miter;stroke-width:0.75;" x="365.858327" xlink:href="#mbe8e505c1a" y="50.542125"/>
     <use style="fill:#d62728;stroke:#ffffff;stroke-linejoin:miter;stroke-width:0.75;" x="366.822071" xlink:href="#mbe8e505c1a" y="50.542125"/>
     <use style="fill:#d62728;stroke:#ffffff;stroke-linejoin:miter;stroke-width:0.75;" x="367.773049" xlink:href="#mbe8e505c1a" y="50.542125"/>
     <use style="fill:#d62728;stroke:#ffffff;stroke-linejoin:miter;stroke-width:0.75;" x="368.711596" xlink:href="#mbe8e505c1a" y="50.542125"/>
     <use style="fill:#d62728;stroke:#ffffff;stroke-linejoin:miter;stroke-width:0.75;" x="369.638032" xlink:href="#mbe8e505c1a" y="50.542125"/>
     <use style="fill:#d62728;stroke:#ffffff;stroke-linejoin:miter;stroke-width:0.75;" x="370.552666" xlink:href="#mbe8e505c1a" y="50.542125"/>
     <use style="fill:#d62728;stroke:#ffffff;stroke-linejoin:miter;stroke-width:0.75;" x="371.455795" xlink:href="#mbe8e505c1a" y="50.542125"/>
     <use style="fill:#d62728;stroke:#ffffff;stroke-linejoin:miter;stroke-width:0.75;" x="372.347705" xlink:href="#mbe8e505c1a" y="50.542125"/>
     <use style="fill:#d62728;stroke:#ffffff;stroke-linejoin:miter;stroke-width:0.75;" x="373.228671" xlink:href="#mbe8e505c1a" y="50.542125"/>
     <use style="fill:#d62728;stroke:#ffffff;stroke-linejoin:miter;stroke-width:0.75;" x="374.098958" xlink:href="#mbe8e505c1a" y="50.542125"/>
     <use style="fill:#d62728;stroke:#ffffff;stroke-linejoin:miter;stroke-width:0.75;" x="374.958823" xlink:href="#mbe8e505c1a" y="50.542125"/>
     <use style="fill:#d62728;stroke:#ffffff;stroke-linejoin:miter;stroke-width:0.75;" x="375.808511" xlink:href="#mbe8e505c1a" y="50.542125"/>
     <use style="fill:#d62728;stroke:#ffffff;stroke-linejoin:miter;stroke-width:0.75;" x="376.648261" xlink:href="#mbe8e505c1a" y="50.542125"/>
     <use style="fill:#d62728;stroke:#ffffff;stroke-linejoin:miter;stroke-width:0.75;" x="377.478303" xlink:href="#mbe8e505c1a" y="50.542125"/>
     <use style="fill:#d62728;stroke:#ffffff;stroke-linejoin:miter;stroke-width:0.75;" x="378.298858" xlink:href="#mbe8e505c1a" y="50.542125"/>
     <use style="fill:#d62728;stroke:#ffffff;stroke-linejoin:miter;stroke-width:0.75;" x="379.110142" xlink:href="#mbe8e505c1a" y="50.542125"/>
     <use style="fill:#d62728;stroke:#ffffff;stroke-linejoin:miter;stroke-width:0.75;" x="379.91236" xlink:href="#mbe8e505c1a" y="50.542125"/>
     <use style="fill:#d62728;stroke:#ffffff;stroke-linejoin:miter;stroke-width:0.75;" x="380.705714" xlink:href="#mbe8e505c1a" y="50.542125"/>
     <use style="fill:#d62728;stroke:#ffffff;stroke-linejoin:miter;stroke-width:0.75;" x="381.490398" xlink:href="#mbe8e505c1a" y="50.542125"/>
    </g>
   </g>
   <g id="line2d_33">
    <path clip-path="url(#p983f65932d)" d="M 56.835852 276.334125 
L 106.602306 276.334125 
L 135.713816 276.334125 
L 156.36876 276.334125 
L 172.38998 276.334125 
L 185.480269 256.174125 
L 196.547952 248.110125 
L 206.135214 227.950125 
L 214.591779 195.694125 
L 222.156434 191.662125 
L 228.999496 155.374125 
L 235.246723 123.118125 
L 240.993615 111.022125 
L 246.314406 111.022125 
L 251.267943 94.894125 
L 255.901668 90.862125 
L 260.254383 90.862125 
L 264.358233 90.862125 
L 268.240141 86.830125 
L 271.922888 82.798125 
L 275.425915 82.798125 
L 278.76595 82.798125 
L 281.95749 82.798125 
L 285.013177 82.798125 
L 287.944107 82.798125 
L 290.760069 78.766125 
L 293.469742 78.766125 
L 296.080859 78.766125 
L 298.60034 78.766125 
L 301.034397 74.734125 
L 303.388635 74.734125 
L 305.668122 74.734125 
L 307.87746 74.734125 
L 310.020837 74.734125 
L 312.102079 74.734125 
L 314.124687 74.734125 
L 316.091873 74.734125 
L 318.006595 74.734125 
L 319.871578 74.734125 
L 321.689342 74.734125 
L 323.462217 74.734125 
L 325.192369 70.702125 
L 326.881807 70.702125 
L 328.532404 70.702125 
L 330.145906 70.702125 
L 331.723944 66.670125 
L 333.268042 66.670125 
L 334.779631 62.638125 
L 336.260051 62.638125 
L 337.710561 62.638125 
L 339.132347 62.638125 
L 340.526523 62.638125 
L 341.894142 58.606125 
L 343.236196 58.606125 
L 344.553624 58.606125 
L 345.847313 58.606125 
L 347.118104 58.606125 
L 348.366794 58.606125 
L 349.594136 58.606125 
L 350.800851 58.606125 
L 351.987619 58.606125 
L 353.155089 58.606125 
L 354.303878 58.606125 
L 355.434576 58.606125 
L 356.547743 58.606125 
L 357.643914 58.606125 
L 358.7236 58.606125 
L 359.787291 58.606125 
L 360.835453 58.606125 
L 361.868533 58.606125 
L 362.886959 58.606125 
L 363.891141 58.606125 
L 364.881471 58.606125 
L 365.858327 58.606125 
L 366.822071 58.606125 
L 367.773049 58.606125 
L 368.711596 58.606125 
L 369.638032 58.606125 
L 370.552666 58.606125 
L 371.455795 58.606125 
L 372.347705 58.606125 
L 373.228671 58.606125 
L 374.098958 58.606125 
L 374.958823 58.606125 
L 375.808511 58.606125 
L 376.648261 58.606125 
L 377.478303 58.606125 
L 378.298858 58.606125 
L 379.110142 54.574125 
L 379.91236 54.574125 
L 380.705714 54.574125 
L 381.490398 54.574125 
" style="fill:none;stroke:#1f77b4;stroke-linecap:square;stroke-width:1.5;"/>
    <defs>
     <path d="M 0 3 
C 0.795609 3 1.55874 2.683901 2.12132 2.12132 
C 2.683901 1.55874 3 0.795609 3 0 
C 3 -0.795609 2.683901 -1.55874 2.12132 -2.12132 
C 1.55874 -2.683901 0.795609 -3 0 -3 
C -0.795609 -3 -1.55874 -2.683901 -2.12132 -2.12132 
C -2.683901 -1.55874 -3 -0.795609 -3 0 
C -3 0.795609 -2.683901 1.55874 -2.12132 2.12132 
C -1.55874 2.683901 -0.795609 3 0 3 
z
" id="mf9a3ea9478" style="stroke:#ffffff;stroke-width:0.75;"/>
    </defs>
    <g clip-path="url(#p983f65932d)">
     <use style="fill:#1f77b4;stroke:#ffffff;stroke-width:0.75;" x="56.835852" xlink:href="#mf9a3ea9478" y="276.334125"/>
     <use style="fill:#1f77b4;stroke:#ffffff;stroke-width:0.75;" x="106.602306" xlink:href="#mf9a3ea9478" y="276.334125"/>
     <use style="fill:#1f77b4;stroke:#ffffff;stroke-width:0.75;" x="135.713816" xlink:href="#mf9a3ea9478" y="276.334125"/>
     <use style="fill:#1f77b4;stroke:#ffffff;stroke-width:0.75;" x="156.36876" xlink:href="#mf9a3ea9478" y="276.334125"/>
     <use style="fill:#1f77b4;stroke:#ffffff;stroke-width:0.75;" x="172.38998" xlink:href="#mf9a3ea9478" y="276.334125"/>
     <use style="fill:#1f77b4;stroke:#ffffff;stroke-width:0.75;" x="185.480269" xlink:href="#mf9a3ea9478" y="256.174125"/>
     <use style="fill:#1f77b4;stroke:#ffffff;stroke-width:0.75;" x="196.547952" xlink:href="#mf9a3ea9478" y="248.110125"/>
     <use style="fill:#1f77b4;stroke:#ffffff;stroke-width:0.75;" x="206.135214" xlink:href="#mf9a3ea9478" y="227.950125"/>
     <use style="fill:#1f77b4;stroke:#ffffff;stroke-width:0.75;" x="214.591779" xlink:href="#mf9a3ea9478" y="195.694125"/>
     <use style="fill:#1f77b4;stroke:#ffffff;stroke-width:0.75;" x="222.156434" xlink:href="#mf9a3ea9478" y="191.662125"/>
     <use style="fill:#1f77b4;stroke:#ffffff;stroke-width:0.75;" x="228.999496" xlink:href="#mf9a3ea9478" y="155.374125"/>
     <use style="fill:#1f77b4;stroke:#ffffff;stroke-width:0.75;" x="235.246723" xlink:href="#mf9a3ea9478" y="123.118125"/>
     <use style="fill:#1f77b4;stroke:#ffffff;stroke-width:0.75;" x="240.993615" xlink:href="#mf9a3ea9478" y="111.022125"/>
     <use style="fill:#1f77b4;stroke:#ffffff;stroke-width:0.75;" x="246.314406" xlink:href="#mf9a3ea9478" y="111.022125"/>
     <use style="fill:#1f77b4;stroke:#ffffff;stroke-width:0.75;" x="251.267943" xlink:href="#mf9a3ea9478" y="94.894125"/>
     <use style="fill:#1f77b4;stroke:#ffffff;stroke-width:0.75;" x="255.901668" xlink:href="#mf9a3ea9478" y="90.862125"/>
     <use style="fill:#1f77b4;stroke:#ffffff;stroke-width:0.75;" x="260.254383" xlink:href="#mf9a3ea9478" y="90.862125"/>
     <use style="fill:#1f77b4;stroke:#ffffff;stroke-width:0.75;" x="264.358233" xlink:href="#mf9a3ea9478" y="90.862125"/>
     <use style="fill:#1f77b4;stroke:#ffffff;stroke-width:0.75;" x="268.240141" xlink:href="#mf9a3ea9478" y="86.830125"/>
     <use style="fill:#1f77b4;stroke:#ffffff;stroke-width:0.75;" x="271.922888" xlink:href="#mf9a3ea9478" y="82.798125"/>
     <use style="fill:#1f77b4;stroke:#ffffff;stroke-width:0.75;" x="275.425915" xlink:href="#mf9a3ea9478" y="82.798125"/>
     <use style="fill:#1f77b4;stroke:#ffffff;stroke-width:0.75;" x="278.76595" xlink:href="#mf9a3ea9478" y="82.798125"/>
     <use style="fill:#1f77b4;stroke:#ffffff;stroke-width:0.75;" x="281.95749" xlink:href="#mf9a3ea9478" y="82.798125"/>
     <use style="fill:#1f77b4;stroke:#ffffff;stroke-width:0.75;" x="285.013177" xlink:href="#mf9a3ea9478" y="82.798125"/>
     <use style="fill:#1f77b4;stroke:#ffffff;stroke-width:0.75;" x="287.944107" xlink:href="#mf9a3ea9478" y="82.798125"/>
     <use style="fill:#1f77b4;stroke:#ffffff;stroke-width:0.75;" x="290.760069" xlink:href="#mf9a3ea9478" y="78.766125"/>
     <use style="fill:#1f77b4;stroke:#ffffff;stroke-width:0.75;" x="293.469742" xlink:href="#mf9a3ea9478" y="78.766125"/>
     <use style="fill:#1f77b4;stroke:#ffffff;stroke-width:0.75;" x="296.080859" xlink:href="#mf9a3ea9478" y="78.766125"/>
     <use style="fill:#1f77b4;stroke:#ffffff;stroke-width:0.75;" x="298.60034" xlink:href="#mf9a3ea9478" y="78.766125"/>
     <use style="fill:#1f77b4;stroke:#ffffff;stroke-width:0.75;" x="301.034397" xlink:href="#mf9a3ea9478" y="74.734125"/>
     <use style="fill:#1f77b4;stroke:#ffffff;stroke-width:0.75;" x="303.388635" xlink:href="#mf9a3ea9478" y="74.734125"/>
     <use style="fill:#1f77b4;stroke:#ffffff;stroke-width:0.75;" x="305.668122" xlink:href="#mf9a3ea9478" y="74.734125"/>
     <use style="fill:#1f77b4;stroke:#ffffff;stroke-width:0.75;" x="307.87746" xlink:href="#mf9a3ea9478" y="74.734125"/>
     <use style="fill:#1f77b4;stroke:#ffffff;stroke-width:0.75;" x="310.020837" xlink:href="#mf9a3ea9478" y="74.734125"/>
     <use style="fill:#1f77b4;stroke:#ffffff;stroke-width:0.75;" x="312.102079" xlink:href="#mf9a3ea9478" y="74.734125"/>
     <use style="fill:#1f77b4;stroke:#ffffff;stroke-width:0.75;" x="314.124687" xlink:href="#mf9a3ea9478" y="74.734125"/>
     <use style="fill:#1f77b4;stroke:#ffffff;stroke-width:0.75;" x="316.091873" xlink:href="#mf9a3ea9478" y="74.734125"/>
     <use style="fill:#1f77b4;stroke:#ffffff;stroke-width:0.75;" x="318.006595" xlink:href="#mf9a3ea9478" y="74.734125"/>
     <use style="fill:#1f77b4;stroke:#ffffff;stroke-width:0.75;" x="319.871578" xlink:href="#mf9a3ea9478" y="74.734125"/>
     <use style="fill:#1f77b4;stroke:#ffffff;stroke-width:0.75;" x="321.689342" xlink:href="#mf9a3ea9478" y="74.734125"/>
     <use style="fill:#1f77b4;stroke:#ffffff;stroke-width:0.75;" x="323.462217" xlink:href="#mf9a3ea9478" y="74.734125"/>
     <use style="fill:#1f77b4;stroke:#ffffff;stroke-width:0.75;" x="325.192369" xlink:href="#mf9a3ea9478" y="70.702125"/>
     <use style="fill:#1f77b4;stroke:#ffffff;stroke-width:0.75;" x="326.881807" xlink:href="#mf9a3ea9478" y="70.702125"/>
     <use style="fill:#1f77b4;stroke:#ffffff;stroke-width:0.75;" x="328.532404" xlink:href="#mf9a3ea9478" y="70.702125"/>
     <use style="fill:#1f77b4;stroke:#ffffff;stroke-width:0.75;" x="330.145906" xlink:href="#mf9a3ea9478" y="70.702125"/>
     <use style="fill:#1f77b4;stroke:#ffffff;stroke-width:0.75;" x="331.723944" xlink:href="#mf9a3ea9478" y="66.670125"/>
     <use style="fill:#1f77b4;stroke:#ffffff;stroke-width:0.75;" x="333.268042" xlink:href="#mf9a3ea9478" y="66.670125"/>
     <use style="fill:#1f77b4;stroke:#ffffff;stroke-width:0.75;" x="334.779631" xlink:href="#mf9a3ea9478" y="62.638125"/>
     <use style="fill:#1f77b4;stroke:#ffffff;stroke-width:0.75;" x="336.260051" xlink:href="#mf9a3ea9478" y="62.638125"/>
     <use style="fill:#1f77b4;stroke:#ffffff;stroke-width:0.75;" x="337.710561" xlink:href="#mf9a3ea9478" y="62.638125"/>
     <use style="fill:#1f77b4;stroke:#ffffff;stroke-width:0.75;" x="339.132347" xlink:href="#mf9a3ea9478" y="62.638125"/>
     <use style="fill:#1f77b4;stroke:#ffffff;stroke-width:0.75;" x="340.526523" xlink:href="#mf9a3ea9478" y="62.638125"/>
     <use style="fill:#1f77b4;stroke:#ffffff;stroke-width:0.75;" x="341.894142" xlink:href="#mf9a3ea9478" y="58.606125"/>
     <use style="fill:#1f77b4;stroke:#ffffff;stroke-width:0.75;" x="343.236196" xlink:href="#mf9a3ea9478" y="58.606125"/>
     <use style="fill:#1f77b4;stroke:#ffffff;stroke-width:0.75;" x="344.553624" xlink:href="#mf9a3ea9478" y="58.606125"/>
     <use style="fill:#1f77b4;stroke:#ffffff;stroke-width:0.75;" x="345.847313" xlink:href="#mf9a3ea9478" y="58.606125"/>
     <use style="fill:#1f77b4;stroke:#ffffff;stroke-width:0.75;" x="347.118104" xlink:href="#mf9a3ea9478" y="58.606125"/>
     <use style="fill:#1f77b4;stroke:#ffffff;stroke-width:0.75;" x="348.366794" xlink:href="#mf9a3ea9478" y="58.606125"/>
     <use style="fill:#1f77b4;stroke:#ffffff;stroke-width:0.75;" x="349.594136" xlink:href="#mf9a3ea9478" y="58.606125"/>
     <use style="fill:#1f77b4;stroke:#ffffff;stroke-width:0.75;" x="350.800851" xlink:href="#mf9a3ea9478" y="58.606125"/>
     <use style="fill:#1f77b4;stroke:#ffffff;stroke-width:0.75;" x="351.987619" xlink:href="#mf9a3ea9478" y="58.606125"/>
     <use style="fill:#1f77b4;stroke:#ffffff;stroke-width:0.75;" x="353.155089" xlink:href="#mf9a3ea9478" y="58.606125"/>
     <use style="fill:#1f77b4;stroke:#ffffff;stroke-width:0.75;" x="354.303878" xlink:href="#mf9a3ea9478" y="58.606125"/>
     <use style="fill:#1f77b4;stroke:#ffffff;stroke-width:0.75;" x="355.434576" xlink:href="#mf9a3ea9478" y="58.606125"/>
     <use style="fill:#1f77b4;stroke:#ffffff;stroke-width:0.75;" x="356.547743" xlink:href="#mf9a3ea9478" y="58.606125"/>
     <use style="fill:#1f77b4;stroke:#ffffff;stroke-width:0.75;" x="357.643914" xlink:href="#mf9a3ea9478" y="58.606125"/>
     <use style="fill:#1f77b4;stroke:#ffffff;stroke-width:0.75;" x="358.7236" xlink:href="#mf9a3ea9478" y="58.606125"/>
     <use style="fill:#1f77b4;stroke:#ffffff;stroke-width:0.75;" x="359.787291" xlink:href="#mf9a3ea9478" y="58.606125"/>
     <use style="fill:#1f77b4;stroke:#ffffff;stroke-width:0.75;" x="360.835453" xlink:href="#mf9a3ea9478" y="58.606125"/>
     <use style="fill:#1f77b4;stroke:#ffffff;stroke-width:0.75;" x="361.868533" xlink:href="#mf9a3ea9478" y="58.606125"/>
     <use style="fill:#1f77b4;stroke:#ffffff;stroke-width:0.75;" x="362.886959" xlink:href="#mf9a3ea9478" y="58.606125"/>
     <use style="fill:#1f77b4;stroke:#ffffff;stroke-width:0.75;" x="363.891141" xlink:href="#mf9a3ea9478" y="58.606125"/>
     <use style="fill:#1f77b4;stroke:#ffffff;stroke-width:0.75;" x="364.881471" xlink:href="#mf9a3ea9478" y="58.606125"/>
     <use style="fill:#1f77b4;stroke:#ffffff;stroke-width:0.75;" x="365.858327" xlink:href="#mf9a3ea9478" y="58.606125"/>
     <use style="fill:#1f77b4;stroke:#ffffff;stroke-width:0.75;" x="366.822071" xlink:href="#mf9a3ea9478" y="58.606125"/>
     <use style="fill:#1f77b4;stroke:#ffffff;stroke-width:0.75;" x="367.773049" xlink:href="#mf9a3ea9478" y="58.606125"/>
     <use style="fill:#1f77b4;stroke:#ffffff;stroke-width:0.75;" x="368.711596" xlink:href="#mf9a3ea9478" y="58.606125"/>
     <use style="fill:#1f77b4;stroke:#ffffff;stroke-width:0.75;" x="369.638032" xlink:href="#mf9a3ea9478" y="58.606125"/>
     <use style="fill:#1f77b4;stroke:#ffffff;stroke-width:0.75;" x="370.552666" xlink:href="#mf9a3ea9478" y="58.606125"/>
     <use style="fill:#1f77b4;stroke:#ffffff;stroke-width:0.75;" x="371.455795" xlink:href="#mf9a3ea9478" y="58.606125"/>
     <use style="fill:#1f77b4;stroke:#ffffff;stroke-width:0.75;" x="372.347705" xlink:href="#mf9a3ea9478" y="58.606125"/>
     <use style="fill:#1f77b4;stroke:#ffffff;stroke-width:0.75;" x="373.228671" xlink:href="#mf9a3ea9478" y="58.606125"/>
     <use style="fill:#1f77b4;stroke:#ffffff;stroke-width:0.75;" x="374.098958" xlink:href="#mf9a3ea9478" y="58.606125"/>
     <use style="fill:#1f77b4;stroke:#ffffff;stroke-width:0.75;" x="374.958823" xlink:href="#mf9a3ea9478" y="58.606125"/>
     <use style="fill:#1f77b4;stroke:#ffffff;stroke-width:0.75;" x="375.808511" xlink:href="#mf9a3ea9478" y="58.606125"/>
     <use style="fill:#1f77b4;stroke:#ffffff;stroke-width:0.75;" x="376.648261" xlink:href="#mf9a3ea9478" y="58.606125"/>
     <use style="fill:#1f77b4;stroke:#ffffff;stroke-width:0.75;" x="377.478303" xlink:href="#mf9a3ea9478" y="58.606125"/>
     <use style="fill:#1f77b4;stroke:#ffffff;stroke-width:0.75;" x="378.298858" xlink:href="#mf9a3ea9478" y="58.606125"/>
     <use style="fill:#1f77b4;stroke:#ffffff;stroke-width:0.75;" x="379.110142" xlink:href="#mf9a3ea9478" y="54.574125"/>
     <use style="fill:#1f77b4;stroke:#ffffff;stroke-width:0.75;" x="379.91236" xlink:href="#mf9a3ea9478" y="54.574125"/>
     <use style="fill:#1f77b4;stroke:#ffffff;stroke-width:0.75;" x="380.705714" xlink:href="#mf9a3ea9478" y="54.574125"/>
     <use style="fill:#1f77b4;stroke:#ffffff;stroke-width:0.75;" x="381.490398" xlink:href="#mf9a3ea9478" y="54.574125"/>
    </g>
   </g>
   <g id="line2d_34"/>
   <g id="line2d_35"/>
   <g id="line2d_36"/>
   <g id="patch_3">
    <path d="M 40.603125 284.398125 
L 40.603125 42.478125 
" style="fill:none;stroke:#000000;stroke-linecap:square;stroke-linejoin:miter;stroke-width:0.8;"/>
   </g>
   <g id="patch_4">
    <path d="M 56.835852 288.430125 
L 381.491265 288.430125 
" style="fill:none;stroke:#000000;stroke-linecap:square;stroke-linejoin:miter;stroke-width:0.8;"/>
   </g>
   <g id="text_16">
    <!-- libhevc_hevc_dec_fuzzer (23h, 20 trials/fuzzer) -->
    <g transform="translate(78.430313 16.318125)scale(0.12 -0.12)">
     <defs>
      <path d="M 603 4863 
L 1178 4863 
L 1178 0 
L 603 0 
L 603 4863 
z
" id="DejaVuSans-6c" transform="scale(0.015625)"/>
      <path d="M 3116 1747 
Q 3116 2381 2855 2742 
Q 2594 3103 2138 3103 
Q 1681 3103 1420 2742 
Q 1159 2381 1159 1747 
Q 1159 1113 1420 752 
Q 1681 391 2138 391 
Q 2594 391 2855 752 
Q 3116 1113 3116 1747 
z
M 1159 2969 
Q 1341 3281 1617 3432 
Q 1894 3584 2278 3584 
Q 2916 3584 3314 3078 
Q 3713 2572 3713 1747 
Q 3713 922 3314 415 
Q 2916 -91 2278 -91 
Q 1894 -91 1617 61 
Q 1341 213 1159 525 
L 1159 0 
L 581 0 
L 581 4863 
L 1159 4863 
L 1159 2969 
z
" id="DejaVuSans-62" transform="scale(0.015625)"/>
      <path d="M 3263 -1063 
L 3263 -1509 
L -63 -1509 
L -63 -1063 
L 3263 -1063 
z
" id="DejaVuSans-5f" transform="scale(0.015625)"/>
      <path d="M 2906 2969 
L 2906 4863 
L 3481 4863 
L 3481 0 
L 2906 0 
L 2906 525 
Q 2725 213 2448 61 
Q 2172 -91 1784 -91 
Q 1150 -91 751 415 
Q 353 922 353 1747 
Q 353 2572 751 3078 
Q 1150 3584 1784 3584 
Q 2172 3584 2448 3432 
Q 2725 3281 2906 2969 
z
M 947 1747 
Q 947 1113 1208 752 
Q 1469 391 1925 391 
Q 2381 391 2643 752 
Q 2906 1113 2906 1747 
Q 2906 2381 2643 2742 
Q 2381 3103 1925 3103 
Q 1469 3103 1208 2742 
Q 947 2381 947 1747 
z
" id="DejaVuSans-64" transform="scale(0.015625)"/>
      <path d="M 2375 4863 
L 2375 4384 
L 1825 4384 
Q 1516 4384 1395 4259 
Q 1275 4134 1275 3809 
L 1275 3500 
L 2222 3500 
L 2222 3053 
L 1275 3053 
L 1275 0 
L 697 0 
L 697 3053 
L 147 3053 
L 147 3500 
L 697 3500 
L 697 3744 
Q 697 4328 969 4595 
Q 1241 4863 1831 4863 
L 2375 4863 
z
" id="DejaVuSans-66" transform="scale(0.015625)"/>
      <path d="M 353 3500 
L 3084 3500 
L 3084 2975 
L 922 459 
L 3084 459 
L 3084 0 
L 275 0 
L 275 525 
L 2438 3041 
L 353 3041 
L 353 3500 
z
" id="DejaVuSans-7a" transform="scale(0.015625)"/>
      <path d="M 750 794 
L 1409 794 
L 1409 256 
L 897 -744 
L 494 -744 
L 750 256 
L 750 794 
z
" id="DejaVuSans-2c" transform="scale(0.015625)"/>
      <path d="M 2834 3397 
L 2834 2853 
Q 2591 2978 2328 3040 
Q 2066 3103 1784 3103 
Q 1356 3103 1142 2972 
Q 928 2841 928 2578 
Q 928 2378 1081 2264 
Q 1234 2150 1697 2047 
L 1894 2003 
Q 2506 1872 2764 1633 
Q 3022 1394 3022 966 
Q 3022 478 2636 193 
Q 2250 -91 1575 -91 
Q 1294 -91 989 -36 
Q 684 19 347 128 
L 347 722 
Q 666 556 975 473 
Q 1284 391 1588 391 
Q 1994 391 2212 530 
Q 2431 669 2431 922 
Q 2431 1156 2273 1281 
Q 2116 1406 1581 1522 
L 1381 1569 
Q 847 1681 609 1914 
Q 372 2147 372 2553 
Q 372 3047 722 3315 
Q 1072 3584 1716 3584 
Q 2034 3584 2315 3537 
Q 2597 3491 2834 3397 
z
" id="DejaVuSans-73" transform="scale(0.015625)"/>
      <path d="M 1625 4666 
L 2156 4666 
L 531 -594 
L 0 -594 
L 1625 4666 
z
" id="DejaVuSans-2f" transform="scale(0.015625)"/>
     </defs>
     <use xlink:href="#DejaVuSans-6c"/>
     <use x="27.783203" xlink:href="#DejaVuSans-69"/>
     <use x="55.566406" xlink:href="#DejaVuSans-62"/>
     <use x="119.042969" xlink:href="#DejaVuSans-68"/>
     <use x="182.421875" xlink:href="#DejaVuSans-65"/>
     <use x="243.945312" xlink:href="#DejaVuSans-76"/>
     <use x="303.125" xlink:href="#DejaVuSans-63"/>
     <use x="358.105469" xlink:href="#DejaVuSans-5f"/>
     <use x="408.105469" xlink:href="#DejaVuSans-68"/>
     <use x="471.484375" xlink:href="#DejaVuSans-65"/>
     <use x="533.007812" xlink:href="#DejaVuSans-76"/>
     <use x="592.1875" xlink:href="#DejaVuSans-63"/>
     <use x="647.167969" xlink:href="#DejaVuSans-5f"/>
     <use x="697.167969" xlink:href="#DejaVuSans-64"/>
     <use x="760.644531" xlink:href="#DejaVuSans-65"/>
     <use x="822.167969" xlink:href="#DejaVuSans-63"/>
     <use x="877.148438" xlink:href="#DejaVuSans-5f"/>
     <use x="927.148438" xlink:href="#DejaVuSans-66"/>
     <use x="962.353516" xlink:href="#DejaVuSans-75"/>
     <use x="1025.732422" xlink:href="#DejaVuSans-7a"/>
     <use x="1078.222656" xlink:href="#DejaVuSans-7a"/>
     <use x="1130.712891" xlink:href="#DejaVuSans-65"/>
     <use x="1192.236328" xlink:href="#DejaVuSans-72"/>
     <use x="1233.349609" xlink:href="#DejaVuSans-20"/>
     <use x="1265.136719" xlink:href="#DejaVuSans-28"/>
     <use x="1304.150391" xlink:href="#DejaVuSans-32"/>
     <use x="1367.773438" xlink:href="#DejaVuSans-33"/>
     <use x="1431.396484" xlink:href="#DejaVuSans-68"/>
     <use x="1494.775391" xlink:href="#DejaVuSans-2c"/>
     <use x="1526.5625" xlink:href="#DejaVuSans-20"/>
     <use x="1558.349609" xlink:href="#DejaVuSans-32"/>
     <use x="1621.972656" xlink:href="#DejaVuSans-30"/>
     <use x="1685.595703" xlink:href="#DejaVuSans-20"/>
     <use x="1717.382812" xlink:href="#DejaVuSans-74"/>
     <use x="1756.591797" xlink:href="#DejaVuSans-72"/>
     <use x="1797.705078" xlink:href="#DejaVuSans-69"/>
     <use x="1825.488281" xlink:href="#DejaVuSans-61"/>
     <use x="1886.767578" xlink:href="#DejaVuSans-6c"/>
     <use x="1914.550781" xlink:href="#DejaVuSans-73"/>
     <use x="1966.650391" xlink:href="#DejaVuSans-2f"/>
     <use x="2000.341797" xlink:href="#DejaVuSans-66"/>
     <use x="2035.546875" xlink:href="#DejaVuSans-75"/>
     <use x="2098.925781" xlink:href="#DejaVuSans-7a"/>
     <use x="2151.416016" xlink:href="#DejaVuSans-7a"/>
     <use x="2203.90625" xlink:href="#DejaVuSans-65"/>
     <use x="2265.429688" xlink:href="#DejaVuSans-72"/>
     <use x="2306.542969" xlink:href="#DejaVuSans-29"/>
    </g>
   </g>
   <g id="legend_1">
    <g id="line2d_37">
     <path d="M 401.723125 30.416562 
L 421.723125 30.416562 
" style="fill:none;stroke:#98df8a;stroke-linecap:square;stroke-width:1.5;"/>
    </g>
    <g id="line2d_38">
     <defs>
      <path d="M -0 3 
L 3 -3 
L -3 -3 
z
" id="m6412f68d40" style="stroke:#98df8a;stroke-linejoin:miter;"/>
     </defs>
     <g>
      <use style="fill:#98df8a;stroke:#98df8a;stroke-linejoin:miter;" x="411.723125" xlink:href="#m6412f68d40" y="30.416562"/>
     </g>
    </g>
    <g id="text_17">
     <!-- afl_scheduling_lifo -->
     <g transform="translate(429.723125 33.916562)scale(0.1 -0.1)">
      <use xlink:href="#DejaVuSans-61"/>
      <use x="61.279297" xlink:href="#DejaVuSans-66"/>
      <use x="96.484375" xlink:href="#DejaVuSans-6c"/>
      <use x="124.267578" xlink:href="#DejaVuSans-5f"/>
      <use x="174.267578" xlink:href="#DejaVuSans-73"/>
      <use x="226.367188" xlink:href="#DejaVuSans-63"/>
      <use x="281.347656" xlink:href="#DejaVuSans-68"/>
      <use x="344.726562" xlink:href="#DejaVuSans-65"/>
      <use x="406.25" xlink:href="#DejaVuSans-64"/>
      <use x="469.726562" xlink:href="#DejaVuSans-75"/>
      <use x="533.105469" xlink:href="#DejaVuSans-6c"/>
      <use x="560.888672" xlink:href="#DejaVuSans-69"/>
      <use x="588.671875" xlink:href="#DejaVuSans-6e"/>
      <use x="652.050781" xlink:href="#DejaVuSans-67"/>
      <use x="715.527344" xlink:href="#DejaVuSans-5f"/>
      <use x="765.527344" xlink:href="#DejaVuSans-6c"/>
      <use x="793.310547" xlink:href="#DejaVuSans-69"/>
      <use x="821.09375" xlink:href="#DejaVuSans-66"/>
      <use x="856.298828" xlink:href="#DejaVuSans-6f"/>
     </g>
    </g>
    <g id="line2d_39">
     <path d="M 401.723125 45.372813 
L 421.723125 45.372813 
" style="fill:none;stroke:#d62728;stroke-linecap:square;stroke-width:1.5;"/>
    </g>
    <g id="line2d_40">
     <defs>
      <path d="M 0 -3 
L -3 3 
L 3 3 
z
" id="m75aead8830" style="stroke:#d62728;stroke-linejoin:miter;"/>
     </defs>
     <g>
      <use style="fill:#d62728;stroke:#d62728;stroke-linejoin:miter;" x="411.723125" xlink:href="#m75aead8830" y="45.372813"/>
     </g>
    </g>
    <g id="text_18">
     <!-- afl_scheduling_random -->
     <g transform="translate(429.723125 48.872813)scale(0.1 -0.1)">
      <use xlink:href="#DejaVuSans-61"/>
      <use x="61.279297" xlink:href="#DejaVuSans-66"/>
      <use x="96.484375" xlink:href="#DejaVuSans-6c"/>
      <use x="124.267578" xlink:href="#DejaVuSans-5f"/>
      <use x="174.267578" xlink:href="#DejaVuSans-73"/>
      <use x="226.367188" xlink:href="#DejaVuSans-63"/>
      <use x="281.347656" xlink:href="#DejaVuSans-68"/>
      <use x="344.726562" xlink:href="#DejaVuSans-65"/>
      <use x="406.25" xlink:href="#DejaVuSans-64"/>
      <use x="469.726562" xlink:href="#DejaVuSans-75"/>
      <use x="533.105469" xlink:href="#DejaVuSans-6c"/>
      <use x="560.888672" xlink:href="#DejaVuSans-69"/>
      <use x="588.671875" xlink:href="#DejaVuSans-6e"/>
      <use x="652.050781" xlink:href="#DejaVuSans-67"/>
      <use x="715.527344" xlink:href="#DejaVuSans-5f"/>
      <use x="765.527344" xlink:href="#DejaVuSans-72"/>
      <use x="806.640625" xlink:href="#DejaVuSans-61"/>
      <use x="867.919922" xlink:href="#DejaVuSans-6e"/>
      <use x="931.298828" xlink:href="#DejaVuSans-64"/>
      <use x="994.775391" xlink:href="#DejaVuSans-6f"/>
      <use x="1055.957031" xlink:href="#DejaVuSans-6d"/>
     </g>
    </g>
    <g id="line2d_41">
     <path d="M 401.723125 60.329063 
L 421.723125 60.329063 
" style="fill:none;stroke:#1f77b4;stroke-linecap:square;stroke-width:1.5;"/>
    </g>
    <g id="line2d_42">
     <defs>
      <path d="M 0 3 
C 0.795609 3 1.55874 2.683901 2.12132 2.12132 
C 2.683901 1.55874 3 0.795609 3 0 
C 3 -0.795609 2.683901 -1.55874 2.12132 -2.12132 
C 1.55874 -2.683901 0.795609 -3 0 -3 
C -0.795609 -3 -1.55874 -2.683901 -2.12132 -2.12132 
C -2.683901 -1.55874 -3 -0.795609 -3 0 
C -3 0.795609 -2.683901 1.55874 -2.12132 2.12132 
C -1.55874 2.683901 -0.795609 3 0 3 
z
" id="m49027ef09e" style="stroke:#1f77b4;"/>
     </defs>
     <g>
      <use style="fill:#1f77b4;stroke:#1f77b4;" x="411.723125" xlink:href="#m49027ef09e" y="60.329063"/>
     </g>
    </g>
    <g id="text_19">
     <!-- afl -->
     <g transform="translate(429.723125 63.829063)scale(0.1 -0.1)">
      <use xlink:href="#DejaVuSans-61"/>
      <use x="61.279297" xlink:href="#DejaVuSans-66"/>
      <use x="96.484375" xlink:href="#DejaVuSans-6c"/>
     </g>
    </g>
   </g>
  </g>
 </g>
 <defs>
  <clipPath id="p983f65932d">
   <rect height="266.112" width="357.12" x="40.603125" y="22.318125"/>
  </clipPath>
 </defs>
</svg>
