<?xml version="1.0" encoding="utf-8" standalone="no"?>
<!DOCTYPE svg PUBLIC "-//W3C//DTD SVG 1.1//EN"
  "http://www.w3.org/Graphics/SVG/1.1/DTD/svg11.dtd">
<svg height="325.986375pt" version="1.1" viewBox="0 0 568.985625 325.986375" width="568.985625pt" xmlns="http://www.w3.org/2000/svg" xmlns:xlink="http://www.w3.org/1999/xlink">
 <metadata>
  <rdf:RDF xmlns:cc="http://creativecommons.org/ns#" xmlns:dc="http://purl.org/dc/elements/1.1/" xmlns:rdf="http://www.w3.org/1999/02/22-rdf-syntax-ns#">
   <cc:Work>
    <dc:type rdf:resource="http://purl.org/dc/dcmitype/StillImage"/>
    <dc:date>2022-07-21T16:17:48.488261</dc:date>
    <dc:format>image/svg+xml</dc:format>
    <dc:creator>
     <cc:Agent>
      <dc:title>Matplotlib v3.4.3, https://matplotlib.org/</dc:title>
     </cc:Agent>
    </dc:creator>
   </cc:Work>
  </rdf:RDF>
 </metadata>
 <defs>
  <style type="text/css">*{stroke-linecap:butt;stroke-linejoin:round;}</style>
 </defs>
 <g id="figure_1">
  <g id="patch_1">
   <path d="M 0 325.986375 
L 568.985625 325.986375 
L 568.985625 0 
L 0 0 
z
" style="fill:#ffffff;"/>
  </g>
  <g id="axes_1">
   <g id="patch_2">
    <path d="M 53.328125 288.430125 
L 410.448125 288.430125 
L 410.448125 22.318125 
L 53.328125 22.318125 
z
" style="fill:#ffffff;"/>
   </g>
   <g id="PolyCollection_1">
    <defs>
     <path d="M 69.560852 -86.289974 
L 69.560852 -75.40968 
L 73.128485 -107.347413 
L 76.696117 -125.259189 
L 80.263749 -128.737922 
L 83.831382 -132.697757 
L 87.399014 -137.508771 
L 90.966646 -139.063099 
L 94.534279 -141.135536 
L 98.101911 -142.060731 
L 101.669544 -143.504035 
L 105.237176 -146.242613 
L 108.804808 -147.278831 
L 112.372441 -149.240244 
L 115.940073 -152.44327 
L 119.507705 -154.791415 
L 123.075338 -158.344164 
L 126.64297 -161.193764 
L 130.210603 -166.633911 
L 133.778235 -171.407918 
L 137.345867 -172.148074 
L 140.9135 -174.627596 
L 144.481132 -178.365384 
L 148.048764 -180.361955 
L 151.616397 -180.973509 
L 155.184029 -183.176399 
L 158.751661 -186.877179 
L 162.319294 -191.614177 
L 165.886926 -196.240153 
L 169.454559 -200.422034 
L 173.022191 -207.379501 
L 176.589823 -209.451938 
L 180.157456 -211.302328 
L 183.725088 -213.63382 
L 187.29272 -214.596022 
L 190.860353 -215.632241 
L 194.427985 -217.371608 
L 197.995618 -218.555857 
L 201.56325 -220.850341 
L 205.130882 -221.738528 
L 208.698515 -223.107817 
L 212.266147 -223.477895 
L 215.833779 -225.624347 
L 219.401412 -226.993636 
L 222.969044 -227.659776 
L 226.536676 -228.029854 
L 230.104309 -229.843237 
L 233.671941 -231.13851 
L 237.239574 -231.878666 
L 240.807206 -232.877876 
L 244.374838 -233.65504 
L 247.942471 -235.727477 
L 251.510103 -237.096766 
L 255.077735 -238.799125 
L 258.645368 -240.612507 
L 262.213 -241.870772 
L 265.780632 -242.499905 
L 269.348265 -242.981006 
L 272.915897 -245.238482 
L 276.48353 -246.79281 
L 280.051162 -247.051865 
L 283.618794 -247.307218 
L 287.186427 -249.272333 
L 290.754059 -249.679418 
L 294.321691 -250.900676 
L 297.889324 -248.828239 
L 301.456956 -252.973113 
L 305.024589 -255.614545 
L 308.592221 -255.526651 
L 312.159853 -255.04555 
L 315.727486 -257.89515 
L 319.295118 -258.41326 
L 322.86275 -260.670736 
L 326.430383 -262.299079 
L 329.998015 -263.779391 
L 333.565647 -262.521126 
L 337.13328 -264.889625 
L 340.700912 -265.703797 
L 344.268545 -267.147101 
L 347.836177 -268.664421 
L 351.403809 -270.721129 
L 354.971442 -271.291975 
L 358.539074 -272.032131 
L 362.106706 -272.994334 
L 365.674339 -273.586458 
L 369.241971 -274.104568 
L 372.809604 -275.214802 
L 376.377236 -275.991965 
L 379.944868 -277.43527 
L 383.512501 -277.694324 
L 387.080133 -278.693535 
L 390.647765 -278.656527 
L 394.215398 -279.211644 
L 394.215398 -291.57225 
L 394.215398 -291.57225 
L 390.647765 -290.758078 
L 387.080133 -289.092727 
L 383.512501 -287.242337 
L 379.944868 -286.280134 
L 376.377236 -286.206119 
L 372.809604 -285.280924 
L 369.241971 -284.50376 
L 365.674339 -284.355729 
L 362.106706 -283.837619 
L 358.539074 -282.283292 
L 354.971442 -281.508904 
L 351.403809 -281.099042 
L 347.836177 -280.506917 
L 344.268545 -278.212434 
L 340.700912 -276.880153 
L 337.13328 -276.884779 
L 333.565647 -276.399051 
L 329.998015 -276.028973 
L 326.430383 -275.695903 
L 322.86275 -274.141575 
L 319.295118 -272.88331 
L 315.727486 -270.625834 
L 312.159853 -268.84946 
L 308.592221 -268.701429 
L 305.024589 -268.035288 
L 301.456956 -265.740804 
L 297.889324 -262.336087 
L 294.321691 -260.707743 
L 290.754059 -258.006174 
L 287.186427 -256.340823 
L 283.618794 -254.305394 
L 280.051162 -252.603035 
L 276.48353 -250.974691 
L 272.915897 -250.530598 
L 269.348265 -249.420364 
L 265.780632 -246.913085 
L 262.213 -245.830607 
L 258.645368 -245.312498 
L 255.077735 -243.647147 
L 251.510103 -243.4251 
L 247.942471 -242.758959 
L 244.374838 -241.463686 
L 240.807206 -241.204632 
L 237.239574 -239.132195 
L 233.671941 -236.504641 
L 230.104309 -235.653462 
L 226.536676 -234.876298 
L 222.969044 -232.951892 
L 219.401412 -232.100713 
L 215.833779 -232.100713 
L 212.266147 -230.065284 
L 208.698515 -230.324338 
L 205.130882 -228.77001 
L 201.56325 -227.659776 
L 197.995618 -225.994425 
L 194.427985 -224.847183 
L 190.860353 -222.108606 
L 187.29272 -219.444044 
L 183.725088 -217.011707 
L 180.157456 -214.447991 
L 176.589823 -212.264531 
L 173.022191 -209.822016 
L 169.454559 -209.229891 
L 165.886926 -207.083439 
L 162.319294 -204.455885 
L 158.751661 -200.644081 
L 155.184029 -198.053535 
L 151.616397 -193.836496 
L 148.048764 -192.761419 
L 144.481132 -190.874021 
L 140.9135 -186.063007 
L 137.345867 -183.842539 
L 133.778235 -180.400814 
L 130.210603 -179.475619 
L 126.64297 -176.366963 
L 123.075338 -173.166714 
L 119.507705 -171.37091 
L 115.940073 -168.33627 
L 112.372441 -166.263833 
L 108.804808 -165.005568 
L 105.237176 -161.26778 
L 101.669544 -158.677234 
L 98.101911 -154.680391 
L 94.534279 -152.3489 
L 90.966646 -147.361173 
L 87.399014 -142.097739 
L 83.831382 -138.54499 
L 80.263749 -132.845788 
L 76.696117 -126.887532 
L 73.128485 -116.303301 
L 69.560852 -86.289974 
z
" id="m57bb35be04" style="stroke:#1f77b4;stroke-opacity:0.2;"/>
    </defs>
    <g clip-path="url(#pc838449e89)">
     <use style="fill:#1f77b4;fill-opacity:0.2;stroke:#1f77b4;stroke-opacity:0.2;" x="0" xlink:href="#m57bb35be04" y="325.986375"/>
    </g>
   </g>
   <g id="PolyCollection_2">
    <defs>
     <path d="M 69.560852 -61.568762 
L 69.560852 -56.38767 
L 73.128485 -65.158519 
L 76.696117 -69.821502 
L 80.263749 -76.556922 
L 83.831382 -79.554554 
L 87.399014 -83.551396 
L 90.966646 -96.208065 
L 94.534279 -101.981282 
L 98.101911 -112.78756 
L 101.669544 -117.857629 
L 105.237176 -120.263136 
L 108.804808 -121.965495 
L 112.372441 -123.704861 
L 115.940073 -128.922961 
L 119.507705 -132.364687 
L 123.075338 -136.102475 
L 126.64297 -139.729239 
L 130.210603 -140.72845 
L 133.778235 -141.727661 
L 137.345867 -143.76309 
L 140.9135 -145.724503 
L 144.481132 -150.091424 
L 148.048764 -153.644173 
L 151.616397 -155.272516 
L 155.184029 -156.974875 
L 158.751661 -160.009515 
L 162.319294 -159.935499 
L 165.886926 -162.674077 
L 169.454559 -165.560685 
L 173.022191 -166.633911 
L 176.589823 -167.078005 
L 180.157456 -168.928395 
L 183.725088 -170.149652 
L 187.29272 -171.740988 
L 190.860353 -172.000043 
L 194.427985 -176.193027 
L 197.995618 -181.511048 
L 201.56325 -181.992149 
L 205.130882 -184.804742 
L 208.698515 -187.654343 
L 212.266147 -189.763787 
L 215.833779 -187.543319 
L 219.401412 -191.170084 
L 222.969044 -193.020474 
L 226.536676 -194.0937 
L 230.104309 -194.463778 
L 233.671941 -196.018106 
L 237.239574 -199.163769 
L 240.807206 -200.411857 
L 244.374838 -202.235417 
L 247.942471 -208.082649 
L 251.510103 -208.452727 
L 255.077735 -212.634609 
L 258.645368 -213.670827 
L 262.213 -215.836709 
L 265.780632 -216.15035 
L 269.348265 -218.555857 
L 272.915897 -221.516481 
L 276.48353 -222.700731 
L 280.051162 -222.848762 
L 283.618794 -224.699152 
L 287.186427 -226.58655 
L 290.754059 -229.510166 
L 294.321691 -230.620401 
L 297.889324 -232.174728 
L 301.456956 -232.766853 
L 305.024589 -231.360557 
L 308.592221 -233.692048 
L 312.159853 -234.50622 
L 315.727486 -236.097555 
L 319.295118 -236.578657 
L 322.86275 -238.318023 
L 326.430383 -239.132195 
L 329.998015 -240.538491 
L 333.565647 -241.870772 
L 337.13328 -243.647147 
L 340.700912 -246.163677 
L 344.268545 -248.569184 
L 347.836177 -248.791231 
L 351.403809 -248.97627 
L 354.971442 -250.974691 
L 358.539074 -251.270754 
L 362.106706 -251.011699 
L 365.674339 -253.047128 
L 369.241971 -253.935316 
L 372.809604 -255.37862 
L 376.377236 -255.637675 
L 379.944868 -256.525862 
L 383.512501 -257.154994 
L 387.080133 -257.710111 
L 390.647765 -259.250561 
L 394.215398 -261.364632 
L 394.215398 -285.910056 
L 394.215398 -285.910056 
L 390.647765 -285.539978 
L 387.080133 -284.984861 
L 383.512501 -280.951011 
L 379.944868 -281.543136 
L 376.377236 -279.936997 
L 372.809604 -279.877785 
L 369.241971 -279.766761 
L 365.674339 -278.841566 
L 362.106706 -277.509285 
L 358.539074 -276.196434 
L 354.971442 -274.06756 
L 351.403809 -272.735279 
L 347.836177 -271.291975 
L 344.268545 -269.663631 
L 340.700912 -269.552608 
L 337.13328 -268.220327 
L 333.565647 -267.480171 
L 329.998015 -267.184109 
L 326.430383 -266.369937 
L 322.86275 -265.925843 
L 319.295118 -264.667578 
L 315.727486 -262.373094 
L 312.159853 -262.262071 
L 308.592221 -260.004595 
L 305.024589 -260.567114 
L 301.456956 -259.634517 
L 297.889324 -258.302236 
L 294.321691 -256.784916 
L 290.754059 -253.602245 
L 287.186427 -252.417996 
L 283.618794 -250.234535 
L 280.051162 -250.012489 
L 276.48353 -248.828239 
L 272.915897 -245.534545 
L 269.348265 -244.646357 
L 265.780632 -243.388092 
L 262.213 -241.870772 
L 258.645368 -241.944788 
L 255.077735 -239.021172 
L 251.510103 -238.021961 
L 247.942471 -236.837711 
L 244.374838 -235.394407 
L 240.807206 -233.692048 
L 237.239574 -232.65583 
L 233.671941 -231.249533 
L 230.104309 -228.992057 
L 226.536676 -227.43773 
L 222.969044 -222.610062 
L 219.401412 -221.294434 
L 215.833779 -220.369239 
L 212.266147 -219.147982 
L 208.698515 -216.48342 
L 205.130882 -214.225944 
L 201.56325 -213.152718 
L 197.995618 -211.413351 
L 194.427985 -209.599969 
L 190.860353 -208.600758 
L 187.29272 -207.638556 
L 183.725088 -206.454306 
L 180.157456 -205.71415 
L 176.589823 -201.643292 
L 173.022191 -199.533847 
L 169.454559 -195.537004 
L 165.886926 -193.242521 
L 162.319294 -192.872443 
L 158.751661 -188.746998 
L 155.184029 -186.766155 
L 151.616397 -184.323641 
L 148.048764 -181.733094 
L 144.481132 -176.096806 
L 140.9135 -176.440979 
L 137.345867 -174.146495 
L 133.778235 -171.963035 
L 130.210603 -171.407918 
L 126.64297 -166.448872 
L 123.075338 -164.746513 
L 119.507705 -163.007147 
L 115.940073 -156.419758 
L 112.372441 -154.014251 
L 108.804808 -149.240244 
L 105.237176 -147.204815 
L 101.669544 -141.926578 
L 98.101911 -136.546568 
L 94.534279 -133.696968 
L 90.966646 -127.849735 
L 87.399014 -124.26738 
L 83.831382 -117.487551 
L 80.263749 -100.426954 
L 76.696117 -91.767128 
L 73.128485 -82.515178 
L 69.560852 -61.568762 
z
" id="mace7c2977c" style="stroke:#d62728;stroke-opacity:0.2;"/>
    </defs>
    <g clip-path="url(#pc838449e89)">
     <use style="fill:#d62728;fill-opacity:0.2;stroke:#d62728;stroke-opacity:0.2;" x="0" xlink:href="#mace7c2977c" y="325.986375"/>
    </g>
   </g>
   <g id="PolyCollection_3">
    <defs>
     <path d="M 69.560852 -60.976637 
L 69.560852 -49.65225 
L 73.128485 -65.600762 
L 76.696117 -71.486853 
L 80.263749 -77.186054 
L 83.831382 -79.221484 
L 87.399014 -81.404944 
L 90.966646 -85.660841 
L 94.534279 -86.845091 
L 98.101911 -88.88052 
L 101.669544 -91.582089 
L 105.237176 -92.766339 
L 108.804808 -94.727753 
L 112.372441 -98.095462 
L 115.940073 -100.945063 
L 119.507705 -104.238758 
L 123.075338 -106.681272 
L 126.64297 -109.197803 
L 130.210603 -111.085201 
L 133.778235 -112.921713 
L 137.345867 -115.452122 
L 140.9135 -116.367139 
L 144.481132 -118.29062 
L 148.048764 -119.596995 
L 151.616397 -123.038721 
L 155.184029 -124.848402 
L 158.751661 -125.925329 
L 162.319294 -126.2584 
L 165.886926 -131.920593 
L 169.454559 -135.991451 
L 173.022191 -138.359951 
L 176.589823 -140.025302 
L 180.157456 -141.468606 
L 183.725088 -141.875692 
L 187.29272 -143.356004 
L 190.860353 -145.650488 
L 194.427985 -147.1308 
L 197.995618 -149.203237 
L 201.56325 -151.386697 
L 205.130882 -152.3489 
L 208.698515 -152.385908 
L 212.266147 -152.941025 
L 215.833779 -152.941025 
L 219.401412 -156.160703 
L 222.969044 -158.603218 
L 226.536676 -159.08432 
L 230.104309 -159.639437 
L 233.671941 -161.008725 
L 237.239574 -162.044944 
L 240.807206 -164.376435 
L 244.374838 -167.966192 
L 247.942471 -170.70477 
L 251.510103 -170.70477 
L 255.077735 -169.261465 
L 258.645368 -173.147284 
L 262.213 -174.294526 
L 265.780632 -175.40476 
L 269.348265 -175.40476 
L 272.915897 -177.689992 
L 276.48353 -178.291369 
L 280.051162 -178.957509 
L 283.618794 -179.675461 
L 287.186427 -181.992149 
L 290.754059 -180.326798 
L 294.321691 -184.471672 
L 297.889324 -183.361438 
L 301.456956 -183.577933 
L 305.024589 -184.611376 
L 308.592221 -185.100804 
L 312.159853 -186.729148 
L 315.727486 -186.803163 
L 319.295118 -187.321272 
L 322.86275 -187.839382 
L 326.430383 -188.172452 
L 329.998015 -188.283475 
L 333.565647 -188.283475 
L 337.13328 -188.320483 
L 340.700912 -188.357491 
L 344.268545 -188.431507 
L 347.836177 -188.468514 
L 351.403809 -188.468514 
L 354.971442 -184.434664 
L 358.539074 -188.616546 
L 362.106706 -188.653553 
L 365.674339 -192.724412 
L 369.241971 -190.244889 
L 372.809604 -191.688193 
L 376.377236 -192.317326 
L 379.944868 -192.317326 
L 383.512501 -192.317326 
L 387.080133 -192.317326 
L 390.647765 -192.391341 
L 394.215398 -192.502365 
L 394.215398 -250.456582 
L 394.215398 -250.456582 
L 390.647765 -246.903833 
L 387.080133 -242.115949 
L 383.512501 -243.351084 
L 379.944868 -243.240061 
L 376.377236 -242.24085 
L 372.809604 -241.537702 
L 369.241971 -241.389671 
L 365.674339 -241.24164 
L 362.106706 -240.464476 
L 358.539074 -239.835343 
L 354.971442 -238.99064 
L 351.403809 -237.984953 
L 347.836177 -238.281015 
L 344.268545 -238.836133 
L 340.700912 -238.614086 
L 337.13328 -235.246376 
L 333.565647 -234.358189 
L 329.998015 -233.618032 
L 326.430383 -230.879455 
L 322.86275 -229.991268 
L 319.295118 -229.880244 
L 315.727486 -229.214104 
L 312.159853 -227.918831 
L 308.592221 -227.104659 
L 305.024589 -226.031433 
L 301.456956 -224.181043 
L 297.889324 -222.663723 
L 294.321691 -222.182622 
L 290.754059 -221.36845 
L 287.186427 -217.815701 
L 283.618794 -219.85113 
L 280.051162 -219.703099 
L 276.48353 -217.889717 
L 272.915897 -209.48432 
L 269.348265 -220.332232 
L 265.780632 -213.09073 
L 262.213 -211.228312 
L 258.645368 -211.376344 
L 255.077735 -208.62944 
L 251.510103 -207.823595 
L 247.942471 -207.101943 
L 244.374838 -205.936197 
L 240.807206 -203.049588 
L 237.239574 -205.455095 
L 233.671941 -200.051956 
L 230.104309 -199.422824 
L 226.536676 -199.089753 
L 222.969044 -198.793691 
L 219.401412 -198.719675 
L 215.833779 -193.797638 
L 212.266147 -192.058271 
L 208.698515 -191.207092 
L 205.130882 -189.023631 
L 201.56325 -185.396867 
L 197.995618 -183.509469 
L 194.427985 -178.069322 
L 190.860353 -177.033104 
L 187.29272 -174.553581 
L 183.725088 -174.035472 
L 180.157456 -173.998464 
L 176.589823 -172.481144 
L 173.022191 -171.629965 
L 169.454559 -171.111855 
L 165.886926 -170.112645 
L 162.319294 -167.744145 
L 158.751661 -166.374857 
L 155.184029 -163.144076 
L 151.616397 -161.008725 
L 148.048764 -159.41739 
L 144.481132 -158.307156 
L 140.9135 -156.123696 
L 137.345867 -153.364764 
L 133.778235 -147.241823 
L 130.210603 -144.984347 
L 126.64297 -143.393012 
L 123.075338 -142.282778 
L 119.507705 -140.987505 
L 115.940073 -138.841052 
L 112.372441 -135.51035 
L 108.804808 -131.291461 
L 105.237176 -128.478868 
L 101.669544 -122.779666 
L 98.101911 -116.451332 
L 94.534279 -108.864733 
L 90.966646 -103.091516 
L 87.399014 -92.877362 
L 83.831382 -86.623044 
L 80.263749 -82.034077 
L 76.696117 -79.406523 
L 73.128485 -75.40968 
L 69.560852 -60.976637 
z
" id="m0d50a001e3" style="stroke:#98df8a;stroke-opacity:0.2;"/>
    </defs>
    <g clip-path="url(#pc838449e89)">
     <use style="fill:#98df8a;fill-opacity:0.2;stroke:#98df8a;stroke-opacity:0.2;" x="0" xlink:href="#m0d50a001e3" y="325.986375"/>
    </g>
   </g>
   <g id="matplotlib.axis_1">
    <g id="xtick_1">
     <g id="line2d_1">
      <defs>
       <path d="M 0 0 
L 0 3.5 
" id="m59bcbc869b" style="stroke:#000000;stroke-width:0.8;"/>
      </defs>
      <g>
       <use style="stroke:#000000;stroke-width:0.8;" x="69.560852" xlink:href="#m59bcbc869b" y="288.430125"/>
      </g>
     </g>
     <g id="text_1">
      <!-- 15m -->
      <g transform="translate(58.32804 303.028562)scale(0.1 -0.1)">
       <defs>
        <path d="M 794 531 
L 1825 531 
L 1825 4091 
L 703 3866 
L 703 4441 
L 1819 4666 
L 2450 4666 
L 2450 531 
L 3481 531 
L 3481 0 
L 794 0 
L 794 531 
z
" id="DejaVuSans-31" transform="scale(0.015625)"/>
        <path d="M 691 4666 
L 3169 4666 
L 3169 4134 
L 1269 4134 
L 1269 2991 
Q 1406 3038 1543 3061 
Q 1681 3084 1819 3084 
Q 2600 3084 3056 2656 
Q 3513 2228 3513 1497 
Q 3513 744 3044 326 
Q 2575 -91 1722 -91 
Q 1428 -91 1123 -41 
Q 819 9 494 109 
L 494 744 
Q 775 591 1075 516 
Q 1375 441 1709 441 
Q 2250 441 2565 725 
Q 2881 1009 2881 1497 
Q 2881 1984 2565 2268 
Q 2250 2553 1709 2553 
Q 1456 2553 1204 2497 
Q 953 2441 691 2322 
L 691 4666 
z
" id="DejaVuSans-35" transform="scale(0.015625)"/>
        <path d="M 3328 2828 
Q 3544 3216 3844 3400 
Q 4144 3584 4550 3584 
Q 5097 3584 5394 3201 
Q 5691 2819 5691 2113 
L 5691 0 
L 5113 0 
L 5113 2094 
Q 5113 2597 4934 2840 
Q 4756 3084 4391 3084 
Q 3944 3084 3684 2787 
Q 3425 2491 3425 1978 
L 3425 0 
L 2847 0 
L 2847 2094 
Q 2847 2600 2669 2842 
Q 2491 3084 2119 3084 
Q 1678 3084 1418 2786 
Q 1159 2488 1159 1978 
L 1159 0 
L 581 0 
L 581 3500 
L 1159 3500 
L 1159 2956 
Q 1356 3278 1631 3431 
Q 1906 3584 2284 3584 
Q 2666 3584 2933 3390 
Q 3200 3197 3328 2828 
z
" id="DejaVuSans-6d" transform="scale(0.015625)"/>
       </defs>
       <use xlink:href="#DejaVuSans-31"/>
       <use x="63.623047" xlink:href="#DejaVuSans-35"/>
       <use x="127.246094" xlink:href="#DejaVuSans-6d"/>
      </g>
     </g>
    </g>
    <g id="xtick_2">
     <g id="line2d_2">
      <g>
       <use style="stroke:#000000;stroke-width:0.8;" x="124.264549" xlink:href="#m59bcbc869b" y="288.430125"/>
      </g>
     </g>
     <g id="text_2">
      <!-- 4h:5m -->
      <g transform="translate(108.178611 303.028562)scale(0.1 -0.1)">
       <defs>
        <path d="M 2419 4116 
L 825 1625 
L 2419 1625 
L 2419 4116 
z
M 2253 4666 
L 3047 4666 
L 3047 1625 
L 3713 1625 
L 3713 1100 
L 3047 1100 
L 3047 0 
L 2419 0 
L 2419 1100 
L 313 1100 
L 313 1709 
L 2253 4666 
z
" id="DejaVuSans-34" transform="scale(0.015625)"/>
        <path d="M 3513 2113 
L 3513 0 
L 2938 0 
L 2938 2094 
Q 2938 2591 2744 2837 
Q 2550 3084 2163 3084 
Q 1697 3084 1428 2787 
Q 1159 2491 1159 1978 
L 1159 0 
L 581 0 
L 581 4863 
L 1159 4863 
L 1159 2956 
Q 1366 3272 1645 3428 
Q 1925 3584 2291 3584 
Q 2894 3584 3203 3211 
Q 3513 2838 3513 2113 
z
" id="DejaVuSans-68" transform="scale(0.015625)"/>
        <path d="M 750 794 
L 1409 794 
L 1409 0 
L 750 0 
L 750 794 
z
M 750 3309 
L 1409 3309 
L 1409 2516 
L 750 2516 
L 750 3309 
z
" id="DejaVuSans-3a" transform="scale(0.015625)"/>
       </defs>
       <use xlink:href="#DejaVuSans-34"/>
       <use x="63.623047" xlink:href="#DejaVuSans-68"/>
       <use x="127.001953" xlink:href="#DejaVuSans-3a"/>
       <use x="160.693359" xlink:href="#DejaVuSans-35"/>
       <use x="224.316406" xlink:href="#DejaVuSans-6d"/>
      </g>
     </g>
    </g>
    <g id="xtick_3">
     <g id="line2d_3">
      <g>
       <use style="stroke:#000000;stroke-width:0.8;" x="178.968245" xlink:href="#m59bcbc869b" y="288.430125"/>
      </g>
     </g>
     <g id="text_3">
      <!-- 7h:55m -->
      <g transform="translate(159.701057 303.028562)scale(0.1 -0.1)">
       <defs>
        <path d="M 525 4666 
L 3525 4666 
L 3525 4397 
L 1831 0 
L 1172 0 
L 2766 4134 
L 525 4134 
L 525 4666 
z
" id="DejaVuSans-37" transform="scale(0.015625)"/>
       </defs>
       <use xlink:href="#DejaVuSans-37"/>
       <use x="63.623047" xlink:href="#DejaVuSans-68"/>
       <use x="127.001953" xlink:href="#DejaVuSans-3a"/>
       <use x="160.693359" xlink:href="#DejaVuSans-35"/>
       <use x="224.316406" xlink:href="#DejaVuSans-35"/>
       <use x="287.939453" xlink:href="#DejaVuSans-6d"/>
      </g>
     </g>
    </g>
    <g id="xtick_4">
     <g id="line2d_4">
      <g>
       <use style="stroke:#000000;stroke-width:0.8;" x="233.671941" xlink:href="#m59bcbc869b" y="288.430125"/>
      </g>
     </g>
     <g id="text_4">
      <!-- 11h:45m -->
      <g transform="translate(211.223504 303.028562)scale(0.1 -0.1)">
       <use xlink:href="#DejaVuSans-31"/>
       <use x="63.623047" xlink:href="#DejaVuSans-31"/>
       <use x="127.246094" xlink:href="#DejaVuSans-68"/>
       <use x="190.625" xlink:href="#DejaVuSans-3a"/>
       <use x="224.316406" xlink:href="#DejaVuSans-34"/>
       <use x="287.939453" xlink:href="#DejaVuSans-35"/>
       <use x="351.5625" xlink:href="#DejaVuSans-6d"/>
      </g>
     </g>
    </g>
    <g id="xtick_5">
     <g id="line2d_5">
      <g>
       <use style="stroke:#000000;stroke-width:0.8;" x="288.375637" xlink:href="#m59bcbc869b" y="288.430125"/>
      </g>
     </g>
     <g id="text_5">
      <!-- 15h:35m -->
      <g transform="translate(265.9272 303.028562)scale(0.1 -0.1)">
       <defs>
        <path d="M 2597 2516 
Q 3050 2419 3304 2112 
Q 3559 1806 3559 1356 
Q 3559 666 3084 287 
Q 2609 -91 1734 -91 
Q 1441 -91 1130 -33 
Q 819 25 488 141 
L 488 750 
Q 750 597 1062 519 
Q 1375 441 1716 441 
Q 2309 441 2620 675 
Q 2931 909 2931 1356 
Q 2931 1769 2642 2001 
Q 2353 2234 1838 2234 
L 1294 2234 
L 1294 2753 
L 1863 2753 
Q 2328 2753 2575 2939 
Q 2822 3125 2822 3475 
Q 2822 3834 2567 4026 
Q 2313 4219 1838 4219 
Q 1578 4219 1281 4162 
Q 984 4106 628 3988 
L 628 4550 
Q 988 4650 1302 4700 
Q 1616 4750 1894 4750 
Q 2613 4750 3031 4423 
Q 3450 4097 3450 3541 
Q 3450 3153 3228 2886 
Q 3006 2619 2597 2516 
z
" id="DejaVuSans-33" transform="scale(0.015625)"/>
       </defs>
       <use xlink:href="#DejaVuSans-31"/>
       <use x="63.623047" xlink:href="#DejaVuSans-35"/>
       <use x="127.246094" xlink:href="#DejaVuSans-68"/>
       <use x="190.625" xlink:href="#DejaVuSans-3a"/>
       <use x="224.316406" xlink:href="#DejaVuSans-33"/>
       <use x="287.939453" xlink:href="#DejaVuSans-35"/>
       <use x="351.5625" xlink:href="#DejaVuSans-6d"/>
      </g>
     </g>
    </g>
    <g id="xtick_6">
     <g id="line2d_6">
      <g>
       <use style="stroke:#000000;stroke-width:0.8;" x="343.079334" xlink:href="#m59bcbc869b" y="288.430125"/>
      </g>
     </g>
     <g id="text_6">
      <!-- 19h:25m -->
      <g transform="translate(320.630896 303.028562)scale(0.1 -0.1)">
       <defs>
        <path d="M 703 97 
L 703 672 
Q 941 559 1184 500 
Q 1428 441 1663 441 
Q 2288 441 2617 861 
Q 2947 1281 2994 2138 
Q 2813 1869 2534 1725 
Q 2256 1581 1919 1581 
Q 1219 1581 811 2004 
Q 403 2428 403 3163 
Q 403 3881 828 4315 
Q 1253 4750 1959 4750 
Q 2769 4750 3195 4129 
Q 3622 3509 3622 2328 
Q 3622 1225 3098 567 
Q 2575 -91 1691 -91 
Q 1453 -91 1209 -44 
Q 966 3 703 97 
z
M 1959 2075 
Q 2384 2075 2632 2365 
Q 2881 2656 2881 3163 
Q 2881 3666 2632 3958 
Q 2384 4250 1959 4250 
Q 1534 4250 1286 3958 
Q 1038 3666 1038 3163 
Q 1038 2656 1286 2365 
Q 1534 2075 1959 2075 
z
" id="DejaVuSans-39" transform="scale(0.015625)"/>
        <path d="M 1228 531 
L 3431 531 
L 3431 0 
L 469 0 
L 469 531 
Q 828 903 1448 1529 
Q 2069 2156 2228 2338 
Q 2531 2678 2651 2914 
Q 2772 3150 2772 3378 
Q 2772 3750 2511 3984 
Q 2250 4219 1831 4219 
Q 1534 4219 1204 4116 
Q 875 4013 500 3803 
L 500 4441 
Q 881 4594 1212 4672 
Q 1544 4750 1819 4750 
Q 2544 4750 2975 4387 
Q 3406 4025 3406 3419 
Q 3406 3131 3298 2873 
Q 3191 2616 2906 2266 
Q 2828 2175 2409 1742 
Q 1991 1309 1228 531 
z
" id="DejaVuSans-32" transform="scale(0.015625)"/>
       </defs>
       <use xlink:href="#DejaVuSans-31"/>
       <use x="63.623047" xlink:href="#DejaVuSans-39"/>
       <use x="127.246094" xlink:href="#DejaVuSans-68"/>
       <use x="190.625" xlink:href="#DejaVuSans-3a"/>
       <use x="224.316406" xlink:href="#DejaVuSans-32"/>
       <use x="287.939453" xlink:href="#DejaVuSans-35"/>
       <use x="351.5625" xlink:href="#DejaVuSans-6d"/>
      </g>
     </g>
    </g>
    <g id="text_7">
     <!-- Time (hour:minute) -->
     <g transform="translate(183.481094 316.706687)scale(0.1 -0.1)">
      <defs>
       <path d="M -19 4666 
L 3928 4666 
L 3928 4134 
L 2272 4134 
L 2272 0 
L 1638 0 
L 1638 4134 
L -19 4134 
L -19 4666 
z
" id="DejaVuSans-54" transform="scale(0.015625)"/>
       <path d="M 603 3500 
L 1178 3500 
L 1178 0 
L 603 0 
L 603 3500 
z
M 603 4863 
L 1178 4863 
L 1178 4134 
L 603 4134 
L 603 4863 
z
" id="DejaVuSans-69" transform="scale(0.015625)"/>
       <path d="M 3597 1894 
L 3597 1613 
L 953 1613 
Q 991 1019 1311 708 
Q 1631 397 2203 397 
Q 2534 397 2845 478 
Q 3156 559 3463 722 
L 3463 178 
Q 3153 47 2828 -22 
Q 2503 -91 2169 -91 
Q 1331 -91 842 396 
Q 353 884 353 1716 
Q 353 2575 817 3079 
Q 1281 3584 2069 3584 
Q 2775 3584 3186 3129 
Q 3597 2675 3597 1894 
z
M 3022 2063 
Q 3016 2534 2758 2815 
Q 2500 3097 2075 3097 
Q 1594 3097 1305 2825 
Q 1016 2553 972 2059 
L 3022 2063 
z
" id="DejaVuSans-65" transform="scale(0.015625)"/>
       <path id="DejaVuSans-20" transform="scale(0.015625)"/>
       <path d="M 1984 4856 
Q 1566 4138 1362 3434 
Q 1159 2731 1159 2009 
Q 1159 1288 1364 580 
Q 1569 -128 1984 -844 
L 1484 -844 
Q 1016 -109 783 600 
Q 550 1309 550 2009 
Q 550 2706 781 3412 
Q 1013 4119 1484 4856 
L 1984 4856 
z
" id="DejaVuSans-28" transform="scale(0.015625)"/>
       <path d="M 1959 3097 
Q 1497 3097 1228 2736 
Q 959 2375 959 1747 
Q 959 1119 1226 758 
Q 1494 397 1959 397 
Q 2419 397 2687 759 
Q 2956 1122 2956 1747 
Q 2956 2369 2687 2733 
Q 2419 3097 1959 3097 
z
M 1959 3584 
Q 2709 3584 3137 3096 
Q 3566 2609 3566 1747 
Q 3566 888 3137 398 
Q 2709 -91 1959 -91 
Q 1206 -91 779 398 
Q 353 888 353 1747 
Q 353 2609 779 3096 
Q 1206 3584 1959 3584 
z
" id="DejaVuSans-6f" transform="scale(0.015625)"/>
       <path d="M 544 1381 
L 544 3500 
L 1119 3500 
L 1119 1403 
Q 1119 906 1312 657 
Q 1506 409 1894 409 
Q 2359 409 2629 706 
Q 2900 1003 2900 1516 
L 2900 3500 
L 3475 3500 
L 3475 0 
L 2900 0 
L 2900 538 
Q 2691 219 2414 64 
Q 2138 -91 1772 -91 
Q 1169 -91 856 284 
Q 544 659 544 1381 
z
M 1991 3584 
L 1991 3584 
z
" id="DejaVuSans-75" transform="scale(0.015625)"/>
       <path d="M 2631 2963 
Q 2534 3019 2420 3045 
Q 2306 3072 2169 3072 
Q 1681 3072 1420 2755 
Q 1159 2438 1159 1844 
L 1159 0 
L 581 0 
L 581 3500 
L 1159 3500 
L 1159 2956 
Q 1341 3275 1631 3429 
Q 1922 3584 2338 3584 
Q 2397 3584 2469 3576 
Q 2541 3569 2628 3553 
L 2631 2963 
z
" id="DejaVuSans-72" transform="scale(0.015625)"/>
       <path d="M 3513 2113 
L 3513 0 
L 2938 0 
L 2938 2094 
Q 2938 2591 2744 2837 
Q 2550 3084 2163 3084 
Q 1697 3084 1428 2787 
Q 1159 2491 1159 1978 
L 1159 0 
L 581 0 
L 581 3500 
L 1159 3500 
L 1159 2956 
Q 1366 3272 1645 3428 
Q 1925 3584 2291 3584 
Q 2894 3584 3203 3211 
Q 3513 2838 3513 2113 
z
" id="DejaVuSans-6e" transform="scale(0.015625)"/>
       <path d="M 1172 4494 
L 1172 3500 
L 2356 3500 
L 2356 3053 
L 1172 3053 
L 1172 1153 
Q 1172 725 1289 603 
Q 1406 481 1766 481 
L 2356 481 
L 2356 0 
L 1766 0 
Q 1100 0 847 248 
Q 594 497 594 1153 
L 594 3053 
L 172 3053 
L 172 3500 
L 594 3500 
L 594 4494 
L 1172 4494 
z
" id="DejaVuSans-74" transform="scale(0.015625)"/>
       <path d="M 513 4856 
L 1013 4856 
Q 1481 4119 1714 3412 
Q 1947 2706 1947 2009 
Q 1947 1309 1714 600 
Q 1481 -109 1013 -844 
L 513 -844 
Q 928 -128 1133 580 
Q 1338 1288 1338 2009 
Q 1338 2731 1133 3434 
Q 928 4138 513 4856 
z
" id="DejaVuSans-29" transform="scale(0.015625)"/>
      </defs>
      <use xlink:href="#DejaVuSans-54"/>
      <use x="57.958984" xlink:href="#DejaVuSans-69"/>
      <use x="85.742188" xlink:href="#DejaVuSans-6d"/>
      <use x="183.154297" xlink:href="#DejaVuSans-65"/>
      <use x="244.677734" xlink:href="#DejaVuSans-20"/>
      <use x="276.464844" xlink:href="#DejaVuSans-28"/>
      <use x="315.478516" xlink:href="#DejaVuSans-68"/>
      <use x="378.857422" xlink:href="#DejaVuSans-6f"/>
      <use x="440.039062" xlink:href="#DejaVuSans-75"/>
      <use x="503.417969" xlink:href="#DejaVuSans-72"/>
      <use x="542.78125" xlink:href="#DejaVuSans-3a"/>
      <use x="576.472656" xlink:href="#DejaVuSans-6d"/>
      <use x="673.884766" xlink:href="#DejaVuSans-69"/>
      <use x="701.667969" xlink:href="#DejaVuSans-6e"/>
      <use x="765.046875" xlink:href="#DejaVuSans-75"/>
      <use x="828.425781" xlink:href="#DejaVuSans-74"/>
      <use x="867.634766" xlink:href="#DejaVuSans-65"/>
      <use x="929.158203" xlink:href="#DejaVuSans-29"/>
     </g>
    </g>
   </g>
   <g id="matplotlib.axis_2">
    <g id="ytick_1">
     <g id="line2d_7">
      <defs>
       <path d="M 0 0 
L -3.5 0 
" id="m0294ef556b" style="stroke:#000000;stroke-width:0.8;"/>
      </defs>
      <g>
       <use style="stroke:#000000;stroke-width:0.8;" x="53.328125" xlink:href="#m0294ef556b" y="287.214419"/>
      </g>
     </g>
     <g id="text_8">
      <!-- 1500 -->
      <g transform="translate(20.878125 291.013637)scale(0.1 -0.1)">
       <defs>
        <path d="M 2034 4250 
Q 1547 4250 1301 3770 
Q 1056 3291 1056 2328 
Q 1056 1369 1301 889 
Q 1547 409 2034 409 
Q 2525 409 2770 889 
Q 3016 1369 3016 2328 
Q 3016 3291 2770 3770 
Q 2525 4250 2034 4250 
z
M 2034 4750 
Q 2819 4750 3233 4129 
Q 3647 3509 3647 2328 
Q 3647 1150 3233 529 
Q 2819 -91 2034 -91 
Q 1250 -91 836 529 
Q 422 1150 422 2328 
Q 422 3509 836 4129 
Q 1250 4750 2034 4750 
z
" id="DejaVuSans-30" transform="scale(0.015625)"/>
       </defs>
       <use xlink:href="#DejaVuSans-31"/>
       <use x="63.623047" xlink:href="#DejaVuSans-35"/>
       <use x="127.246094" xlink:href="#DejaVuSans-30"/>
       <use x="190.869141" xlink:href="#DejaVuSans-30"/>
      </g>
     </g>
    </g>
    <g id="ytick_2">
     <g id="line2d_8">
      <g>
       <use style="stroke:#000000;stroke-width:0.8;" x="53.328125" xlink:href="#m0294ef556b" y="250.206617"/>
      </g>
     </g>
     <g id="text_9">
      <!-- 2000 -->
      <g transform="translate(20.878125 254.005836)scale(0.1 -0.1)">
       <use xlink:href="#DejaVuSans-32"/>
       <use x="63.623047" xlink:href="#DejaVuSans-30"/>
       <use x="127.246094" xlink:href="#DejaVuSans-30"/>
       <use x="190.869141" xlink:href="#DejaVuSans-30"/>
      </g>
     </g>
    </g>
    <g id="ytick_3">
     <g id="line2d_9">
      <g>
       <use style="stroke:#000000;stroke-width:0.8;" x="53.328125" xlink:href="#m0294ef556b" y="213.198815"/>
      </g>
     </g>
     <g id="text_10">
      <!-- 2500 -->
      <g transform="translate(20.878125 216.998034)scale(0.1 -0.1)">
       <use xlink:href="#DejaVuSans-32"/>
       <use x="63.623047" xlink:href="#DejaVuSans-35"/>
       <use x="127.246094" xlink:href="#DejaVuSans-30"/>
       <use x="190.869141" xlink:href="#DejaVuSans-30"/>
      </g>
     </g>
    </g>
    <g id="ytick_4">
     <g id="line2d_10">
      <g>
       <use style="stroke:#000000;stroke-width:0.8;" x="53.328125" xlink:href="#m0294ef556b" y="176.191013"/>
      </g>
     </g>
     <g id="text_11">
      <!-- 3000 -->
      <g transform="translate(20.878125 179.990232)scale(0.1 -0.1)">
       <use xlink:href="#DejaVuSans-33"/>
       <use x="63.623047" xlink:href="#DejaVuSans-30"/>
       <use x="127.246094" xlink:href="#DejaVuSans-30"/>
       <use x="190.869141" xlink:href="#DejaVuSans-30"/>
      </g>
     </g>
    </g>
    <g id="ytick_5">
     <g id="line2d_11">
      <g>
       <use style="stroke:#000000;stroke-width:0.8;" x="53.328125" xlink:href="#m0294ef556b" y="139.183212"/>
      </g>
     </g>
     <g id="text_12">
      <!-- 3500 -->
      <g transform="translate(20.878125 142.98243)scale(0.1 -0.1)">
       <use xlink:href="#DejaVuSans-33"/>
       <use x="63.623047" xlink:href="#DejaVuSans-35"/>
       <use x="127.246094" xlink:href="#DejaVuSans-30"/>
       <use x="190.869141" xlink:href="#DejaVuSans-30"/>
      </g>
     </g>
    </g>
    <g id="ytick_6">
     <g id="line2d_12">
      <g>
       <use style="stroke:#000000;stroke-width:0.8;" x="53.328125" xlink:href="#m0294ef556b" y="102.17541"/>
      </g>
     </g>
     <g id="text_13">
      <!-- 4000 -->
      <g transform="translate(20.878125 105.974629)scale(0.1 -0.1)">
       <use xlink:href="#DejaVuSans-34"/>
       <use x="63.623047" xlink:href="#DejaVuSans-30"/>
       <use x="127.246094" xlink:href="#DejaVuSans-30"/>
       <use x="190.869141" xlink:href="#DejaVuSans-30"/>
      </g>
     </g>
    </g>
    <g id="ytick_7">
     <g id="line2d_13">
      <g>
       <use style="stroke:#000000;stroke-width:0.8;" x="53.328125" xlink:href="#m0294ef556b" y="65.167608"/>
      </g>
     </g>
     <g id="text_14">
      <!-- 4500 -->
      <g transform="translate(20.878125 68.966827)scale(0.1 -0.1)">
       <use xlink:href="#DejaVuSans-34"/>
       <use x="63.623047" xlink:href="#DejaVuSans-35"/>
       <use x="127.246094" xlink:href="#DejaVuSans-30"/>
       <use x="190.869141" xlink:href="#DejaVuSans-30"/>
      </g>
     </g>
    </g>
    <g id="ytick_8">
     <g id="line2d_14">
      <g>
       <use style="stroke:#000000;stroke-width:0.8;" x="53.328125" xlink:href="#m0294ef556b" y="28.159807"/>
      </g>
     </g>
     <g id="text_15">
      <!-- 5000 -->
      <g transform="translate(20.878125 31.959025)scale(0.1 -0.1)">
       <use xlink:href="#DejaVuSans-35"/>
       <use x="63.623047" xlink:href="#DejaVuSans-30"/>
       <use x="127.246094" xlink:href="#DejaVuSans-30"/>
       <use x="190.869141" xlink:href="#DejaVuSans-30"/>
      </g>
     </g>
    </g>
    <g id="text_16">
     <!-- Code region coverage -->
     <g transform="translate(14.798438 210.379594)rotate(-90)scale(0.1 -0.1)">
      <defs>
       <path d="M 4122 4306 
L 4122 3641 
Q 3803 3938 3442 4084 
Q 3081 4231 2675 4231 
Q 1875 4231 1450 3742 
Q 1025 3253 1025 2328 
Q 1025 1406 1450 917 
Q 1875 428 2675 428 
Q 3081 428 3442 575 
Q 3803 722 4122 1019 
L 4122 359 
Q 3791 134 3420 21 
Q 3050 -91 2638 -91 
Q 1578 -91 968 557 
Q 359 1206 359 2328 
Q 359 3453 968 4101 
Q 1578 4750 2638 4750 
Q 3056 4750 3426 4639 
Q 3797 4528 4122 4306 
z
" id="DejaVuSans-43" transform="scale(0.015625)"/>
       <path d="M 2906 2969 
L 2906 4863 
L 3481 4863 
L 3481 0 
L 2906 0 
L 2906 525 
Q 2725 213 2448 61 
Q 2172 -91 1784 -91 
Q 1150 -91 751 415 
Q 353 922 353 1747 
Q 353 2572 751 3078 
Q 1150 3584 1784 3584 
Q 2172 3584 2448 3432 
Q 2725 3281 2906 2969 
z
M 947 1747 
Q 947 1113 1208 752 
Q 1469 391 1925 391 
Q 2381 391 2643 752 
Q 2906 1113 2906 1747 
Q 2906 2381 2643 2742 
Q 2381 3103 1925 3103 
Q 1469 3103 1208 2742 
Q 947 2381 947 1747 
z
" id="DejaVuSans-64" transform="scale(0.015625)"/>
       <path d="M 2906 1791 
Q 2906 2416 2648 2759 
Q 2391 3103 1925 3103 
Q 1463 3103 1205 2759 
Q 947 2416 947 1791 
Q 947 1169 1205 825 
Q 1463 481 1925 481 
Q 2391 481 2648 825 
Q 2906 1169 2906 1791 
z
M 3481 434 
Q 3481 -459 3084 -895 
Q 2688 -1331 1869 -1331 
Q 1566 -1331 1297 -1286 
Q 1028 -1241 775 -1147 
L 775 -588 
Q 1028 -725 1275 -790 
Q 1522 -856 1778 -856 
Q 2344 -856 2625 -561 
Q 2906 -266 2906 331 
L 2906 616 
Q 2728 306 2450 153 
Q 2172 0 1784 0 
Q 1141 0 747 490 
Q 353 981 353 1791 
Q 353 2603 747 3093 
Q 1141 3584 1784 3584 
Q 2172 3584 2450 3431 
Q 2728 3278 2906 2969 
L 2906 3500 
L 3481 3500 
L 3481 434 
z
" id="DejaVuSans-67" transform="scale(0.015625)"/>
       <path d="M 3122 3366 
L 3122 2828 
Q 2878 2963 2633 3030 
Q 2388 3097 2138 3097 
Q 1578 3097 1268 2742 
Q 959 2388 959 1747 
Q 959 1106 1268 751 
Q 1578 397 2138 397 
Q 2388 397 2633 464 
Q 2878 531 3122 666 
L 3122 134 
Q 2881 22 2623 -34 
Q 2366 -91 2075 -91 
Q 1284 -91 818 406 
Q 353 903 353 1747 
Q 353 2603 823 3093 
Q 1294 3584 2113 3584 
Q 2378 3584 2631 3529 
Q 2884 3475 3122 3366 
z
" id="DejaVuSans-63" transform="scale(0.015625)"/>
       <path d="M 191 3500 
L 800 3500 
L 1894 563 
L 2988 3500 
L 3597 3500 
L 2284 0 
L 1503 0 
L 191 3500 
z
" id="DejaVuSans-76" transform="scale(0.015625)"/>
       <path d="M 2194 1759 
Q 1497 1759 1228 1600 
Q 959 1441 959 1056 
Q 959 750 1161 570 
Q 1363 391 1709 391 
Q 2188 391 2477 730 
Q 2766 1069 2766 1631 
L 2766 1759 
L 2194 1759 
z
M 3341 1997 
L 3341 0 
L 2766 0 
L 2766 531 
Q 2569 213 2275 61 
Q 1981 -91 1556 -91 
Q 1019 -91 701 211 
Q 384 513 384 1019 
Q 384 1609 779 1909 
Q 1175 2209 1959 2209 
L 2766 2209 
L 2766 2266 
Q 2766 2663 2505 2880 
Q 2244 3097 1772 3097 
Q 1472 3097 1187 3025 
Q 903 2953 641 2809 
L 641 3341 
Q 956 3463 1253 3523 
Q 1550 3584 1831 3584 
Q 2591 3584 2966 3190 
Q 3341 2797 3341 1997 
z
" id="DejaVuSans-61" transform="scale(0.015625)"/>
      </defs>
      <use xlink:href="#DejaVuSans-43"/>
      <use x="69.824219" xlink:href="#DejaVuSans-6f"/>
      <use x="131.005859" xlink:href="#DejaVuSans-64"/>
      <use x="194.482422" xlink:href="#DejaVuSans-65"/>
      <use x="256.005859" xlink:href="#DejaVuSans-20"/>
      <use x="287.792969" xlink:href="#DejaVuSans-72"/>
      <use x="326.65625" xlink:href="#DejaVuSans-65"/>
      <use x="388.179688" xlink:href="#DejaVuSans-67"/>
      <use x="451.65625" xlink:href="#DejaVuSans-69"/>
      <use x="479.439453" xlink:href="#DejaVuSans-6f"/>
      <use x="540.621094" xlink:href="#DejaVuSans-6e"/>
      <use x="604" xlink:href="#DejaVuSans-20"/>
      <use x="635.787109" xlink:href="#DejaVuSans-63"/>
      <use x="690.767578" xlink:href="#DejaVuSans-6f"/>
      <use x="751.949219" xlink:href="#DejaVuSans-76"/>
      <use x="811.128906" xlink:href="#DejaVuSans-65"/>
      <use x="872.652344" xlink:href="#DejaVuSans-72"/>
      <use x="913.765625" xlink:href="#DejaVuSans-61"/>
      <use x="975.044922" xlink:href="#DejaVuSans-67"/>
      <use x="1038.521484" xlink:href="#DejaVuSans-65"/>
     </g>
    </g>
   </g>
   <g id="line2d_15">
    <path clip-path="url(#pc838449e89)" d="M 69.560852 242.360963 
L 73.128485 212.199605 
L 76.696117 200.209077 
L 80.263749 195.250031 
L 83.831382 190.550041 
L 87.399014 186.664221 
L 90.966646 183.000449 
L 94.534279 179.632739 
L 98.101911 177.26424 
L 101.669544 175.228811 
L 105.237176 173.008343 
L 108.804808 171.009921 
L 112.372441 167.050086 
L 115.940073 162.646158 
L 119.507705 158.686323 
L 123.075338 156.946957 
L 126.64297 155.688691 
L 130.210603 154.02334 
L 133.778235 149.471381 
L 137.345867 146.251702 
L 140.9135 143.402101 
L 144.481132 141.995805 
L 148.048764 139.109196 
L 151.616397 137.924946 
L 155.184029 134.890307 
L 158.751661 131.818659 
L 162.319294 127.895832 
L 165.886926 125.009224 
L 169.454559 120.272225 
L 173.022191 117.089554 
L 176.589823 115.239164 
L 180.157456 113.425782 
L 183.725088 111.279329 
L 187.29272 108.762799 
L 190.860353 108.05965 
L 194.427985 107.097448 
L 197.995618 106.098237 
L 201.56325 103.433675 
L 205.130882 100.954153 
L 208.698515 99.99195 
L 212.266147 98.955731 
L 215.833779 98.030536 
L 219.401412 96.513216 
L 222.969044 94.070701 
L 226.536676 92.92346 
L 230.104309 92.516374 
L 233.671941 91.110077 
L 237.239574 90.443937 
L 240.807206 89.259687 
L 244.374838 88.815594 
L 247.942471 87.668352 
L 251.510103 86.151032 
L 255.077735 84.559696 
L 258.645368 83.301431 
L 262.213 81.525057 
L 265.780632 80.303799 
L 269.348265 79.341596 
L 272.915897 78.120339 
L 276.48353 76.75105 
L 280.051162 75.344754 
L 283.618794 73.605387 
L 287.186427 72.199091 
L 290.754059 70.385708 
L 294.321691 70.01563 
L 297.889324 68.609334 
L 301.456956 67.240045 
L 305.024589 65.833749 
L 308.592221 63.724304 
L 312.159853 62.799109 
L 315.727486 61.022734 
L 319.295118 60.43061 
L 322.86275 58.728251 
L 326.430383 57.581009 
L 329.998015 57.099907 
L 333.565647 55.915658 
L 337.13328 54.990463 
L 340.700912 54.287315 
L 344.268545 52.695979 
L 347.836177 51.141651 
L 351.403809 50.475511 
L 354.971442 48.995199 
L 358.539074 48.884175 
L 362.106706 48.255043 
L 365.674339 47.440871 
L 369.241971 45.035364 
L 372.809604 44.924341 
L 376.377236 44.924341 
L 379.944868 41.74167 
L 383.512501 41.112537 
L 387.080133 40.520412 
L 390.647765 39.89128 
L 394.215398 38.558999 
" style="fill:none;stroke:#1f77b4;stroke-linecap:square;stroke-width:1.5;"/>
    <defs>
     <path d="M 0 3 
C 0.795609 3 1.55874 2.683901 2.12132 2.12132 
C 2.683901 1.55874 3 0.795609 3 0 
C 3 -0.795609 2.683901 -1.55874 2.12132 -2.12132 
C 1.55874 -2.683901 0.795609 -3 0 -3 
C -0.795609 -3 -1.55874 -2.683901 -2.12132 -2.12132 
C -2.683901 -1.55874 -3 -0.795609 -3 0 
C -3 0.795609 -2.683901 1.55874 -2.12132 2.12132 
C -1.55874 2.683901 -0.795609 3 0 3 
z
" id="m803ed1e48d" style="stroke:#ffffff;stroke-width:0.75;"/>
    </defs>
    <g clip-path="url(#pc838449e89)">
     <use style="fill:#1f77b4;stroke:#ffffff;stroke-width:0.75;" x="69.560852" xlink:href="#m803ed1e48d" y="242.360963"/>
     <use style="fill:#1f77b4;stroke:#ffffff;stroke-width:0.75;" x="73.128485" xlink:href="#m803ed1e48d" y="212.199605"/>
     <use style="fill:#1f77b4;stroke:#ffffff;stroke-width:0.75;" x="76.696117" xlink:href="#m803ed1e48d" y="200.209077"/>
     <use style="fill:#1f77b4;stroke:#ffffff;stroke-width:0.75;" x="80.263749" xlink:href="#m803ed1e48d" y="195.250031"/>
     <use style="fill:#1f77b4;stroke:#ffffff;stroke-width:0.75;" x="83.831382" xlink:href="#m803ed1e48d" y="190.550041"/>
     <use style="fill:#1f77b4;stroke:#ffffff;stroke-width:0.75;" x="87.399014" xlink:href="#m803ed1e48d" y="186.664221"/>
     <use style="fill:#1f77b4;stroke:#ffffff;stroke-width:0.75;" x="90.966646" xlink:href="#m803ed1e48d" y="183.000449"/>
     <use style="fill:#1f77b4;stroke:#ffffff;stroke-width:0.75;" x="94.534279" xlink:href="#m803ed1e48d" y="179.632739"/>
     <use style="fill:#1f77b4;stroke:#ffffff;stroke-width:0.75;" x="98.101911" xlink:href="#m803ed1e48d" y="177.26424"/>
     <use style="fill:#1f77b4;stroke:#ffffff;stroke-width:0.75;" x="101.669544" xlink:href="#m803ed1e48d" y="175.228811"/>
     <use style="fill:#1f77b4;stroke:#ffffff;stroke-width:0.75;" x="105.237176" xlink:href="#m803ed1e48d" y="173.008343"/>
     <use style="fill:#1f77b4;stroke:#ffffff;stroke-width:0.75;" x="108.804808" xlink:href="#m803ed1e48d" y="171.009921"/>
     <use style="fill:#1f77b4;stroke:#ffffff;stroke-width:0.75;" x="112.372441" xlink:href="#m803ed1e48d" y="167.050086"/>
     <use style="fill:#1f77b4;stroke:#ffffff;stroke-width:0.75;" x="115.940073" xlink:href="#m803ed1e48d" y="162.646158"/>
     <use style="fill:#1f77b4;stroke:#ffffff;stroke-width:0.75;" x="119.507705" xlink:href="#m803ed1e48d" y="158.686323"/>
     <use style="fill:#1f77b4;stroke:#ffffff;stroke-width:0.75;" x="123.075338" xlink:href="#m803ed1e48d" y="156.946957"/>
     <use style="fill:#1f77b4;stroke:#ffffff;stroke-width:0.75;" x="126.64297" xlink:href="#m803ed1e48d" y="155.688691"/>
     <use style="fill:#1f77b4;stroke:#ffffff;stroke-width:0.75;" x="130.210603" xlink:href="#m803ed1e48d" y="154.02334"/>
     <use style="fill:#1f77b4;stroke:#ffffff;stroke-width:0.75;" x="133.778235" xlink:href="#m803ed1e48d" y="149.471381"/>
     <use style="fill:#1f77b4;stroke:#ffffff;stroke-width:0.75;" x="137.345867" xlink:href="#m803ed1e48d" y="146.251702"/>
     <use style="fill:#1f77b4;stroke:#ffffff;stroke-width:0.75;" x="140.9135" xlink:href="#m803ed1e48d" y="143.402101"/>
     <use style="fill:#1f77b4;stroke:#ffffff;stroke-width:0.75;" x="144.481132" xlink:href="#m803ed1e48d" y="141.995805"/>
     <use style="fill:#1f77b4;stroke:#ffffff;stroke-width:0.75;" x="148.048764" xlink:href="#m803ed1e48d" y="139.109196"/>
     <use style="fill:#1f77b4;stroke:#ffffff;stroke-width:0.75;" x="151.616397" xlink:href="#m803ed1e48d" y="137.924946"/>
     <use style="fill:#1f77b4;stroke:#ffffff;stroke-width:0.75;" x="155.184029" xlink:href="#m803ed1e48d" y="134.890307"/>
     <use style="fill:#1f77b4;stroke:#ffffff;stroke-width:0.75;" x="158.751661" xlink:href="#m803ed1e48d" y="131.818659"/>
     <use style="fill:#1f77b4;stroke:#ffffff;stroke-width:0.75;" x="162.319294" xlink:href="#m803ed1e48d" y="127.895832"/>
     <use style="fill:#1f77b4;stroke:#ffffff;stroke-width:0.75;" x="165.886926" xlink:href="#m803ed1e48d" y="125.009224"/>
     <use style="fill:#1f77b4;stroke:#ffffff;stroke-width:0.75;" x="169.454559" xlink:href="#m803ed1e48d" y="120.272225"/>
     <use style="fill:#1f77b4;stroke:#ffffff;stroke-width:0.75;" x="173.022191" xlink:href="#m803ed1e48d" y="117.089554"/>
     <use style="fill:#1f77b4;stroke:#ffffff;stroke-width:0.75;" x="176.589823" xlink:href="#m803ed1e48d" y="115.239164"/>
     <use style="fill:#1f77b4;stroke:#ffffff;stroke-width:0.75;" x="180.157456" xlink:href="#m803ed1e48d" y="113.425782"/>
     <use style="fill:#1f77b4;stroke:#ffffff;stroke-width:0.75;" x="183.725088" xlink:href="#m803ed1e48d" y="111.279329"/>
     <use style="fill:#1f77b4;stroke:#ffffff;stroke-width:0.75;" x="187.29272" xlink:href="#m803ed1e48d" y="108.762799"/>
     <use style="fill:#1f77b4;stroke:#ffffff;stroke-width:0.75;" x="190.860353" xlink:href="#m803ed1e48d" y="108.05965"/>
     <use style="fill:#1f77b4;stroke:#ffffff;stroke-width:0.75;" x="194.427985" xlink:href="#m803ed1e48d" y="107.097448"/>
     <use style="fill:#1f77b4;stroke:#ffffff;stroke-width:0.75;" x="197.995618" xlink:href="#m803ed1e48d" y="106.098237"/>
     <use style="fill:#1f77b4;stroke:#ffffff;stroke-width:0.75;" x="201.56325" xlink:href="#m803ed1e48d" y="103.433675"/>
     <use style="fill:#1f77b4;stroke:#ffffff;stroke-width:0.75;" x="205.130882" xlink:href="#m803ed1e48d" y="100.954153"/>
     <use style="fill:#1f77b4;stroke:#ffffff;stroke-width:0.75;" x="208.698515" xlink:href="#m803ed1e48d" y="99.99195"/>
     <use style="fill:#1f77b4;stroke:#ffffff;stroke-width:0.75;" x="212.266147" xlink:href="#m803ed1e48d" y="98.955731"/>
     <use style="fill:#1f77b4;stroke:#ffffff;stroke-width:0.75;" x="215.833779" xlink:href="#m803ed1e48d" y="98.030536"/>
     <use style="fill:#1f77b4;stroke:#ffffff;stroke-width:0.75;" x="219.401412" xlink:href="#m803ed1e48d" y="96.513216"/>
     <use style="fill:#1f77b4;stroke:#ffffff;stroke-width:0.75;" x="222.969044" xlink:href="#m803ed1e48d" y="94.070701"/>
     <use style="fill:#1f77b4;stroke:#ffffff;stroke-width:0.75;" x="226.536676" xlink:href="#m803ed1e48d" y="92.92346"/>
     <use style="fill:#1f77b4;stroke:#ffffff;stroke-width:0.75;" x="230.104309" xlink:href="#m803ed1e48d" y="92.516374"/>
     <use style="fill:#1f77b4;stroke:#ffffff;stroke-width:0.75;" x="233.671941" xlink:href="#m803ed1e48d" y="91.110077"/>
     <use style="fill:#1f77b4;stroke:#ffffff;stroke-width:0.75;" x="237.239574" xlink:href="#m803ed1e48d" y="90.443937"/>
     <use style="fill:#1f77b4;stroke:#ffffff;stroke-width:0.75;" x="240.807206" xlink:href="#m803ed1e48d" y="89.259687"/>
     <use style="fill:#1f77b4;stroke:#ffffff;stroke-width:0.75;" x="244.374838" xlink:href="#m803ed1e48d" y="88.815594"/>
     <use style="fill:#1f77b4;stroke:#ffffff;stroke-width:0.75;" x="247.942471" xlink:href="#m803ed1e48d" y="87.668352"/>
     <use style="fill:#1f77b4;stroke:#ffffff;stroke-width:0.75;" x="251.510103" xlink:href="#m803ed1e48d" y="86.151032"/>
     <use style="fill:#1f77b4;stroke:#ffffff;stroke-width:0.75;" x="255.077735" xlink:href="#m803ed1e48d" y="84.559696"/>
     <use style="fill:#1f77b4;stroke:#ffffff;stroke-width:0.75;" x="258.645368" xlink:href="#m803ed1e48d" y="83.301431"/>
     <use style="fill:#1f77b4;stroke:#ffffff;stroke-width:0.75;" x="262.213" xlink:href="#m803ed1e48d" y="81.525057"/>
     <use style="fill:#1f77b4;stroke:#ffffff;stroke-width:0.75;" x="265.780632" xlink:href="#m803ed1e48d" y="80.303799"/>
     <use style="fill:#1f77b4;stroke:#ffffff;stroke-width:0.75;" x="269.348265" xlink:href="#m803ed1e48d" y="79.341596"/>
     <use style="fill:#1f77b4;stroke:#ffffff;stroke-width:0.75;" x="272.915897" xlink:href="#m803ed1e48d" y="78.120339"/>
     <use style="fill:#1f77b4;stroke:#ffffff;stroke-width:0.75;" x="276.48353" xlink:href="#m803ed1e48d" y="76.75105"/>
     <use style="fill:#1f77b4;stroke:#ffffff;stroke-width:0.75;" x="280.051162" xlink:href="#m803ed1e48d" y="75.344754"/>
     <use style="fill:#1f77b4;stroke:#ffffff;stroke-width:0.75;" x="283.618794" xlink:href="#m803ed1e48d" y="73.605387"/>
     <use style="fill:#1f77b4;stroke:#ffffff;stroke-width:0.75;" x="287.186427" xlink:href="#m803ed1e48d" y="72.199091"/>
     <use style="fill:#1f77b4;stroke:#ffffff;stroke-width:0.75;" x="290.754059" xlink:href="#m803ed1e48d" y="70.385708"/>
     <use style="fill:#1f77b4;stroke:#ffffff;stroke-width:0.75;" x="294.321691" xlink:href="#m803ed1e48d" y="70.01563"/>
     <use style="fill:#1f77b4;stroke:#ffffff;stroke-width:0.75;" x="297.889324" xlink:href="#m803ed1e48d" y="68.609334"/>
     <use style="fill:#1f77b4;stroke:#ffffff;stroke-width:0.75;" x="301.456956" xlink:href="#m803ed1e48d" y="67.240045"/>
     <use style="fill:#1f77b4;stroke:#ffffff;stroke-width:0.75;" x="305.024589" xlink:href="#m803ed1e48d" y="65.833749"/>
     <use style="fill:#1f77b4;stroke:#ffffff;stroke-width:0.75;" x="308.592221" xlink:href="#m803ed1e48d" y="63.724304"/>
     <use style="fill:#1f77b4;stroke:#ffffff;stroke-width:0.75;" x="312.159853" xlink:href="#m803ed1e48d" y="62.799109"/>
     <use style="fill:#1f77b4;stroke:#ffffff;stroke-width:0.75;" x="315.727486" xlink:href="#m803ed1e48d" y="61.022734"/>
     <use style="fill:#1f77b4;stroke:#ffffff;stroke-width:0.75;" x="319.295118" xlink:href="#m803ed1e48d" y="60.43061"/>
     <use style="fill:#1f77b4;stroke:#ffffff;stroke-width:0.75;" x="322.86275" xlink:href="#m803ed1e48d" y="58.728251"/>
     <use style="fill:#1f77b4;stroke:#ffffff;stroke-width:0.75;" x="326.430383" xlink:href="#m803ed1e48d" y="57.581009"/>
     <use style="fill:#1f77b4;stroke:#ffffff;stroke-width:0.75;" x="329.998015" xlink:href="#m803ed1e48d" y="57.099907"/>
     <use style="fill:#1f77b4;stroke:#ffffff;stroke-width:0.75;" x="333.565647" xlink:href="#m803ed1e48d" y="55.915658"/>
     <use style="fill:#1f77b4;stroke:#ffffff;stroke-width:0.75;" x="337.13328" xlink:href="#m803ed1e48d" y="54.990463"/>
     <use style="fill:#1f77b4;stroke:#ffffff;stroke-width:0.75;" x="340.700912" xlink:href="#m803ed1e48d" y="54.287315"/>
     <use style="fill:#1f77b4;stroke:#ffffff;stroke-width:0.75;" x="344.268545" xlink:href="#m803ed1e48d" y="52.695979"/>
     <use style="fill:#1f77b4;stroke:#ffffff;stroke-width:0.75;" x="347.836177" xlink:href="#m803ed1e48d" y="51.141651"/>
     <use style="fill:#1f77b4;stroke:#ffffff;stroke-width:0.75;" x="351.403809" xlink:href="#m803ed1e48d" y="50.475511"/>
     <use style="fill:#1f77b4;stroke:#ffffff;stroke-width:0.75;" x="354.971442" xlink:href="#m803ed1e48d" y="48.995199"/>
     <use style="fill:#1f77b4;stroke:#ffffff;stroke-width:0.75;" x="358.539074" xlink:href="#m803ed1e48d" y="48.884175"/>
     <use style="fill:#1f77b4;stroke:#ffffff;stroke-width:0.75;" x="362.106706" xlink:href="#m803ed1e48d" y="48.255043"/>
     <use style="fill:#1f77b4;stroke:#ffffff;stroke-width:0.75;" x="365.674339" xlink:href="#m803ed1e48d" y="47.440871"/>
     <use style="fill:#1f77b4;stroke:#ffffff;stroke-width:0.75;" x="369.241971" xlink:href="#m803ed1e48d" y="45.035364"/>
     <use style="fill:#1f77b4;stroke:#ffffff;stroke-width:0.75;" x="372.809604" xlink:href="#m803ed1e48d" y="44.924341"/>
     <use style="fill:#1f77b4;stroke:#ffffff;stroke-width:0.75;" x="376.377236" xlink:href="#m803ed1e48d" y="44.924341"/>
     <use style="fill:#1f77b4;stroke:#ffffff;stroke-width:0.75;" x="379.944868" xlink:href="#m803ed1e48d" y="41.74167"/>
     <use style="fill:#1f77b4;stroke:#ffffff;stroke-width:0.75;" x="383.512501" xlink:href="#m803ed1e48d" y="41.112537"/>
     <use style="fill:#1f77b4;stroke:#ffffff;stroke-width:0.75;" x="387.080133" xlink:href="#m803ed1e48d" y="40.520412"/>
     <use style="fill:#1f77b4;stroke:#ffffff;stroke-width:0.75;" x="390.647765" xlink:href="#m803ed1e48d" y="39.89128"/>
     <use style="fill:#1f77b4;stroke:#ffffff;stroke-width:0.75;" x="394.215398" xlink:href="#m803ed1e48d" y="38.558999"/>
    </g>
   </g>
   <g id="line2d_16">
    <path clip-path="url(#pc838449e89)" d="M 69.560852 267.674299 
L 73.128485 257.312115 
L 76.696117 251.316851 
L 80.263749 240.288526 
L 83.831382 229.77831 
L 87.399014 216.455502 
L 90.966646 206.796466 
L 94.534279 200.283092 
L 98.101911 194.324836 
L 101.669544 189.809885 
L 105.237176 187.330362 
L 108.804808 183.370527 
L 112.372441 180.779981 
L 115.940073 178.744552 
L 119.507705 174.673694 
L 123.075338 173.452436 
L 126.64297 171.454015 
L 130.210603 170.417796 
L 133.778235 169.455594 
L 137.345867 168.086305 
L 140.9135 166.605993 
L 144.481132 164.348517 
L 148.048764 162.572142 
L 151.616397 160.75876 
L 155.184029 152.691059 
L 158.751661 150.285552 
L 162.319294 147.80603 
L 165.886926 146.547764 
L 169.454559 145.43753 
L 173.022191 142.328875 
L 176.589823 141.884781 
L 180.157456 140.589508 
L 183.725088 140.182422 
L 187.29272 139.331243 
L 190.860353 137.628884 
L 194.427985 134.853299 
L 197.995618 131.004488 
L 201.56325 128.302918 
L 205.130882 125.157255 
L 208.698515 123.010802 
L 212.266147 122.122615 
L 215.833779 121.604506 
L 219.401412 119.458053 
L 222.969044 116.090343 
L 226.536676 115.239164 
L 230.104309 113.351766 
L 233.671941 112.426571 
L 237.239574 111.09429 
L 240.807206 109.613978 
L 244.374838 108.318705 
L 247.942471 107.985635 
L 251.510103 106.616346 
L 255.077735 104.950995 
L 258.645368 103.174621 
L 262.213 102.767535 
L 265.780632 100.028957 
L 269.348265 99.399825 
L 272.915897 98.437622 
L 276.48353 96.846287 
L 280.051162 95.884084 
L 283.618794 94.477787 
L 287.186427 91.998265 
L 290.754059 91.184093 
L 294.321691 90.184882 
L 297.889324 87.150242 
L 301.456956 85.706938 
L 305.024589 84.929774 
L 308.592221 84.189618 
L 312.159853 83.338439 
L 315.727486 82.413244 
L 319.295118 80.821908 
L 322.86275 79.156557 
L 326.430383 78.453409 
L 329.998015 77.676245 
L 333.565647 76.973097 
L 337.13328 76.380972 
L 340.700912 72.088067 
L 344.268545 71.051849 
L 347.836177 70.237677 
L 351.403809 69.941615 
L 354.971442 69.34949 
L 358.539074 68.350279 
L 362.106706 68.128232 
L 365.674339 66.721936 
L 369.241971 64.834538 
L 372.809604 64.575483 
L 376.377236 63.983359 
L 379.944868 62.61407 
L 383.512501 61.170766 
L 387.080133 60.726672 
L 390.647765 59.431399 
L 394.215398 56.396759 
" style="fill:none;stroke:#d62728;stroke-linecap:square;stroke-width:1.5;"/>
    <defs>
     <path d="M 0 -3 
L -3 3 
L 3 3 
z
" id="m5a8e165181" style="stroke:#ffffff;stroke-linejoin:miter;stroke-width:0.75;"/>
    </defs>
    <g clip-path="url(#pc838449e89)">
     <use style="fill:#d62728;stroke:#ffffff;stroke-linejoin:miter;stroke-width:0.75;" x="69.560852" xlink:href="#m5a8e165181" y="267.674299"/>
     <use style="fill:#d62728;stroke:#ffffff;stroke-linejoin:miter;stroke-width:0.75;" x="73.128485" xlink:href="#m5a8e165181" y="257.312115"/>
     <use style="fill:#d62728;stroke:#ffffff;stroke-linejoin:miter;stroke-width:0.75;" x="76.696117" xlink:href="#m5a8e165181" y="251.316851"/>
     <use style="fill:#d62728;stroke:#ffffff;stroke-linejoin:miter;stroke-width:0.75;" x="80.263749" xlink:href="#m5a8e165181" y="240.288526"/>
     <use style="fill:#d62728;stroke:#ffffff;stroke-linejoin:miter;stroke-width:0.75;" x="83.831382" xlink:href="#m5a8e165181" y="229.77831"/>
     <use style="fill:#d62728;stroke:#ffffff;stroke-linejoin:miter;stroke-width:0.75;" x="87.399014" xlink:href="#m5a8e165181" y="216.455502"/>
     <use style="fill:#d62728;stroke:#ffffff;stroke-linejoin:miter;stroke-width:0.75;" x="90.966646" xlink:href="#m5a8e165181" y="206.796466"/>
     <use style="fill:#d62728;stroke:#ffffff;stroke-linejoin:miter;stroke-width:0.75;" x="94.534279" xlink:href="#m5a8e165181" y="200.283092"/>
     <use style="fill:#d62728;stroke:#ffffff;stroke-linejoin:miter;stroke-width:0.75;" x="98.101911" xlink:href="#m5a8e165181" y="194.324836"/>
     <use style="fill:#d62728;stroke:#ffffff;stroke-linejoin:miter;stroke-width:0.75;" x="101.669544" xlink:href="#m5a8e165181" y="189.809885"/>
     <use style="fill:#d62728;stroke:#ffffff;stroke-linejoin:miter;stroke-width:0.75;" x="105.237176" xlink:href="#m5a8e165181" y="187.330362"/>
     <use style="fill:#d62728;stroke:#ffffff;stroke-linejoin:miter;stroke-width:0.75;" x="108.804808" xlink:href="#m5a8e165181" y="183.370527"/>
     <use style="fill:#d62728;stroke:#ffffff;stroke-linejoin:miter;stroke-width:0.75;" x="112.372441" xlink:href="#m5a8e165181" y="180.779981"/>
     <use style="fill:#d62728;stroke:#ffffff;stroke-linejoin:miter;stroke-width:0.75;" x="115.940073" xlink:href="#m5a8e165181" y="178.744552"/>
     <use style="fill:#d62728;stroke:#ffffff;stroke-linejoin:miter;stroke-width:0.75;" x="119.507705" xlink:href="#m5a8e165181" y="174.673694"/>
     <use style="fill:#d62728;stroke:#ffffff;stroke-linejoin:miter;stroke-width:0.75;" x="123.075338" xlink:href="#m5a8e165181" y="173.452436"/>
     <use style="fill:#d62728;stroke:#ffffff;stroke-linejoin:miter;stroke-width:0.75;" x="126.64297" xlink:href="#m5a8e165181" y="171.454015"/>
     <use style="fill:#d62728;stroke:#ffffff;stroke-linejoin:miter;stroke-width:0.75;" x="130.210603" xlink:href="#m5a8e165181" y="170.417796"/>
     <use style="fill:#d62728;stroke:#ffffff;stroke-linejoin:miter;stroke-width:0.75;" x="133.778235" xlink:href="#m5a8e165181" y="169.455594"/>
     <use style="fill:#d62728;stroke:#ffffff;stroke-linejoin:miter;stroke-width:0.75;" x="137.345867" xlink:href="#m5a8e165181" y="168.086305"/>
     <use style="fill:#d62728;stroke:#ffffff;stroke-linejoin:miter;stroke-width:0.75;" x="140.9135" xlink:href="#m5a8e165181" y="166.605993"/>
     <use style="fill:#d62728;stroke:#ffffff;stroke-linejoin:miter;stroke-width:0.75;" x="144.481132" xlink:href="#m5a8e165181" y="164.348517"/>
     <use style="fill:#d62728;stroke:#ffffff;stroke-linejoin:miter;stroke-width:0.75;" x="148.048764" xlink:href="#m5a8e165181" y="162.572142"/>
     <use style="fill:#d62728;stroke:#ffffff;stroke-linejoin:miter;stroke-width:0.75;" x="151.616397" xlink:href="#m5a8e165181" y="160.75876"/>
     <use style="fill:#d62728;stroke:#ffffff;stroke-linejoin:miter;stroke-width:0.75;" x="155.184029" xlink:href="#m5a8e165181" y="152.691059"/>
     <use style="fill:#d62728;stroke:#ffffff;stroke-linejoin:miter;stroke-width:0.75;" x="158.751661" xlink:href="#m5a8e165181" y="150.285552"/>
     <use style="fill:#d62728;stroke:#ffffff;stroke-linejoin:miter;stroke-width:0.75;" x="162.319294" xlink:href="#m5a8e165181" y="147.80603"/>
     <use style="fill:#d62728;stroke:#ffffff;stroke-linejoin:miter;stroke-width:0.75;" x="165.886926" xlink:href="#m5a8e165181" y="146.547764"/>
     <use style="fill:#d62728;stroke:#ffffff;stroke-linejoin:miter;stroke-width:0.75;" x="169.454559" xlink:href="#m5a8e165181" y="145.43753"/>
     <use style="fill:#d62728;stroke:#ffffff;stroke-linejoin:miter;stroke-width:0.75;" x="173.022191" xlink:href="#m5a8e165181" y="142.328875"/>
     <use style="fill:#d62728;stroke:#ffffff;stroke-linejoin:miter;stroke-width:0.75;" x="176.589823" xlink:href="#m5a8e165181" y="141.884781"/>
     <use style="fill:#d62728;stroke:#ffffff;stroke-linejoin:miter;stroke-width:0.75;" x="180.157456" xlink:href="#m5a8e165181" y="140.589508"/>
     <use style="fill:#d62728;stroke:#ffffff;stroke-linejoin:miter;stroke-width:0.75;" x="183.725088" xlink:href="#m5a8e165181" y="140.182422"/>
     <use style="fill:#d62728;stroke:#ffffff;stroke-linejoin:miter;stroke-width:0.75;" x="187.29272" xlink:href="#m5a8e165181" y="139.331243"/>
     <use style="fill:#d62728;stroke:#ffffff;stroke-linejoin:miter;stroke-width:0.75;" x="190.860353" xlink:href="#m5a8e165181" y="137.628884"/>
     <use style="fill:#d62728;stroke:#ffffff;stroke-linejoin:miter;stroke-width:0.75;" x="194.427985" xlink:href="#m5a8e165181" y="134.853299"/>
     <use style="fill:#d62728;stroke:#ffffff;stroke-linejoin:miter;stroke-width:0.75;" x="197.995618" xlink:href="#m5a8e165181" y="131.004488"/>
     <use style="fill:#d62728;stroke:#ffffff;stroke-linejoin:miter;stroke-width:0.75;" x="201.56325" xlink:href="#m5a8e165181" y="128.302918"/>
     <use style="fill:#d62728;stroke:#ffffff;stroke-linejoin:miter;stroke-width:0.75;" x="205.130882" xlink:href="#m5a8e165181" y="125.157255"/>
     <use style="fill:#d62728;stroke:#ffffff;stroke-linejoin:miter;stroke-width:0.75;" x="208.698515" xlink:href="#m5a8e165181" y="123.010802"/>
     <use style="fill:#d62728;stroke:#ffffff;stroke-linejoin:miter;stroke-width:0.75;" x="212.266147" xlink:href="#m5a8e165181" y="122.122615"/>
     <use style="fill:#d62728;stroke:#ffffff;stroke-linejoin:miter;stroke-width:0.75;" x="215.833779" xlink:href="#m5a8e165181" y="121.604506"/>
     <use style="fill:#d62728;stroke:#ffffff;stroke-linejoin:miter;stroke-width:0.75;" x="219.401412" xlink:href="#m5a8e165181" y="119.458053"/>
     <use style="fill:#d62728;stroke:#ffffff;stroke-linejoin:miter;stroke-width:0.75;" x="222.969044" xlink:href="#m5a8e165181" y="116.090343"/>
     <use style="fill:#d62728;stroke:#ffffff;stroke-linejoin:miter;stroke-width:0.75;" x="226.536676" xlink:href="#m5a8e165181" y="115.239164"/>
     <use style="fill:#d62728;stroke:#ffffff;stroke-linejoin:miter;stroke-width:0.75;" x="230.104309" xlink:href="#m5a8e165181" y="113.351766"/>
     <use style="fill:#d62728;stroke:#ffffff;stroke-linejoin:miter;stroke-width:0.75;" x="233.671941" xlink:href="#m5a8e165181" y="112.426571"/>
     <use style="fill:#d62728;stroke:#ffffff;stroke-linejoin:miter;stroke-width:0.75;" x="237.239574" xlink:href="#m5a8e165181" y="111.09429"/>
     <use style="fill:#d62728;stroke:#ffffff;stroke-linejoin:miter;stroke-width:0.75;" x="240.807206" xlink:href="#m5a8e165181" y="109.613978"/>
     <use style="fill:#d62728;stroke:#ffffff;stroke-linejoin:miter;stroke-width:0.75;" x="244.374838" xlink:href="#m5a8e165181" y="108.318705"/>
     <use style="fill:#d62728;stroke:#ffffff;stroke-linejoin:miter;stroke-width:0.75;" x="247.942471" xlink:href="#m5a8e165181" y="107.985635"/>
     <use style="fill:#d62728;stroke:#ffffff;stroke-linejoin:miter;stroke-width:0.75;" x="251.510103" xlink:href="#m5a8e165181" y="106.616346"/>
     <use style="fill:#d62728;stroke:#ffffff;stroke-linejoin:miter;stroke-width:0.75;" x="255.077735" xlink:href="#m5a8e165181" y="104.950995"/>
     <use style="fill:#d62728;stroke:#ffffff;stroke-linejoin:miter;stroke-width:0.75;" x="258.645368" xlink:href="#m5a8e165181" y="103.174621"/>
     <use style="fill:#d62728;stroke:#ffffff;stroke-linejoin:miter;stroke-width:0.75;" x="262.213" xlink:href="#m5a8e165181" y="102.767535"/>
     <use style="fill:#d62728;stroke:#ffffff;stroke-linejoin:miter;stroke-width:0.75;" x="265.780632" xlink:href="#m5a8e165181" y="100.028957"/>
     <use style="fill:#d62728;stroke:#ffffff;stroke-linejoin:miter;stroke-width:0.75;" x="269.348265" xlink:href="#m5a8e165181" y="99.399825"/>
     <use style="fill:#d62728;stroke:#ffffff;stroke-linejoin:miter;stroke-width:0.75;" x="272.915897" xlink:href="#m5a8e165181" y="98.437622"/>
     <use style="fill:#d62728;stroke:#ffffff;stroke-linejoin:miter;stroke-width:0.75;" x="276.48353" xlink:href="#m5a8e165181" y="96.846287"/>
     <use style="fill:#d62728;stroke:#ffffff;stroke-linejoin:miter;stroke-width:0.75;" x="280.051162" xlink:href="#m5a8e165181" y="95.884084"/>
     <use style="fill:#d62728;stroke:#ffffff;stroke-linejoin:miter;stroke-width:0.75;" x="283.618794" xlink:href="#m5a8e165181" y="94.477787"/>
     <use style="fill:#d62728;stroke:#ffffff;stroke-linejoin:miter;stroke-width:0.75;" x="287.186427" xlink:href="#m5a8e165181" y="91.998265"/>
     <use style="fill:#d62728;stroke:#ffffff;stroke-linejoin:miter;stroke-width:0.75;" x="290.754059" xlink:href="#m5a8e165181" y="91.184093"/>
     <use style="fill:#d62728;stroke:#ffffff;stroke-linejoin:miter;stroke-width:0.75;" x="294.321691" xlink:href="#m5a8e165181" y="90.184882"/>
     <use style="fill:#d62728;stroke:#ffffff;stroke-linejoin:miter;stroke-width:0.75;" x="297.889324" xlink:href="#m5a8e165181" y="87.150242"/>
     <use style="fill:#d62728;stroke:#ffffff;stroke-linejoin:miter;stroke-width:0.75;" x="301.456956" xlink:href="#m5a8e165181" y="85.706938"/>
     <use style="fill:#d62728;stroke:#ffffff;stroke-linejoin:miter;stroke-width:0.75;" x="305.024589" xlink:href="#m5a8e165181" y="84.929774"/>
     <use style="fill:#d62728;stroke:#ffffff;stroke-linejoin:miter;stroke-width:0.75;" x="308.592221" xlink:href="#m5a8e165181" y="84.189618"/>
     <use style="fill:#d62728;stroke:#ffffff;stroke-linejoin:miter;stroke-width:0.75;" x="312.159853" xlink:href="#m5a8e165181" y="83.338439"/>
     <use style="fill:#d62728;stroke:#ffffff;stroke-linejoin:miter;stroke-width:0.75;" x="315.727486" xlink:href="#m5a8e165181" y="82.413244"/>
     <use style="fill:#d62728;stroke:#ffffff;stroke-linejoin:miter;stroke-width:0.75;" x="319.295118" xlink:href="#m5a8e165181" y="80.821908"/>
     <use style="fill:#d62728;stroke:#ffffff;stroke-linejoin:miter;stroke-width:0.75;" x="322.86275" xlink:href="#m5a8e165181" y="79.156557"/>
     <use style="fill:#d62728;stroke:#ffffff;stroke-linejoin:miter;stroke-width:0.75;" x="326.430383" xlink:href="#m5a8e165181" y="78.453409"/>
     <use style="fill:#d62728;stroke:#ffffff;stroke-linejoin:miter;stroke-width:0.75;" x="329.998015" xlink:href="#m5a8e165181" y="77.676245"/>
     <use style="fill:#d62728;stroke:#ffffff;stroke-linejoin:miter;stroke-width:0.75;" x="333.565647" xlink:href="#m5a8e165181" y="76.973097"/>
     <use style="fill:#d62728;stroke:#ffffff;stroke-linejoin:miter;stroke-width:0.75;" x="337.13328" xlink:href="#m5a8e165181" y="76.380972"/>
     <use style="fill:#d62728;stroke:#ffffff;stroke-linejoin:miter;stroke-width:0.75;" x="340.700912" xlink:href="#m5a8e165181" y="72.088067"/>
     <use style="fill:#d62728;stroke:#ffffff;stroke-linejoin:miter;stroke-width:0.75;" x="344.268545" xlink:href="#m5a8e165181" y="71.051849"/>
     <use style="fill:#d62728;stroke:#ffffff;stroke-linejoin:miter;stroke-width:0.75;" x="347.836177" xlink:href="#m5a8e165181" y="70.237677"/>
     <use style="fill:#d62728;stroke:#ffffff;stroke-linejoin:miter;stroke-width:0.75;" x="351.403809" xlink:href="#m5a8e165181" y="69.941615"/>
     <use style="fill:#d62728;stroke:#ffffff;stroke-linejoin:miter;stroke-width:0.75;" x="354.971442" xlink:href="#m5a8e165181" y="69.34949"/>
     <use style="fill:#d62728;stroke:#ffffff;stroke-linejoin:miter;stroke-width:0.75;" x="358.539074" xlink:href="#m5a8e165181" y="68.350279"/>
     <use style="fill:#d62728;stroke:#ffffff;stroke-linejoin:miter;stroke-width:0.75;" x="362.106706" xlink:href="#m5a8e165181" y="68.128232"/>
     <use style="fill:#d62728;stroke:#ffffff;stroke-linejoin:miter;stroke-width:0.75;" x="365.674339" xlink:href="#m5a8e165181" y="66.721936"/>
     <use style="fill:#d62728;stroke:#ffffff;stroke-linejoin:miter;stroke-width:0.75;" x="369.241971" xlink:href="#m5a8e165181" y="64.834538"/>
     <use style="fill:#d62728;stroke:#ffffff;stroke-linejoin:miter;stroke-width:0.75;" x="372.809604" xlink:href="#m5a8e165181" y="64.575483"/>
     <use style="fill:#d62728;stroke:#ffffff;stroke-linejoin:miter;stroke-width:0.75;" x="376.377236" xlink:href="#m5a8e165181" y="63.983359"/>
     <use style="fill:#d62728;stroke:#ffffff;stroke-linejoin:miter;stroke-width:0.75;" x="379.944868" xlink:href="#m5a8e165181" y="62.61407"/>
     <use style="fill:#d62728;stroke:#ffffff;stroke-linejoin:miter;stroke-width:0.75;" x="383.512501" xlink:href="#m5a8e165181" y="61.170766"/>
     <use style="fill:#d62728;stroke:#ffffff;stroke-linejoin:miter;stroke-width:0.75;" x="387.080133" xlink:href="#m5a8e165181" y="60.726672"/>
     <use style="fill:#d62728;stroke:#ffffff;stroke-linejoin:miter;stroke-width:0.75;" x="390.647765" xlink:href="#m5a8e165181" y="59.431399"/>
     <use style="fill:#d62728;stroke:#ffffff;stroke-linejoin:miter;stroke-width:0.75;" x="394.215398" xlink:href="#m5a8e165181" y="56.396759"/>
    </g>
   </g>
   <g id="line2d_17">
    <path clip-path="url(#pc838449e89)" d="M 69.560852 267.48926 
L 73.128485 256.201881 
L 76.696117 250.83575 
L 80.263749 247.097962 
L 83.831382 244.211353 
L 87.399014 239.474354 
L 90.966646 232.590903 
L 94.534279 231.998779 
L 98.101911 229.741303 
L 101.669544 223.079898 
L 105.237176 221.488563 
L 108.804808 218.379907 
L 112.372441 211.903542 
L 115.940073 205.5382 
L 119.507705 204.279935 
L 123.075338 202.281514 
L 126.64297 196.61932 
L 130.210603 195.213024 
L 133.778235 193.029563 
L 137.345867 191.364212 
L 140.9135 188.662643 
L 144.481132 187.404377 
L 148.048764 186.775245 
L 151.616397 185.590995 
L 155.184029 184.221706 
L 158.751661 182.408324 
L 162.319294 180.594942 
L 165.886926 177.412271 
L 169.454559 175.968967 
L 173.022191 174.858733 
L 176.589823 173.415428 
L 180.157456 172.564249 
L 183.725088 172.120155 
L 187.29272 170.972913 
L 190.860353 170.084726 
L 194.427985 161.054823 
L 197.995618 160.388682 
L 201.56325 159.352464 
L 205.130882 158.649315 
L 208.698515 156.428847 
L 212.266147 155.133574 
L 215.833779 154.837512 
L 219.401412 154.282395 
L 222.969044 150.914685 
L 226.536676 149.693427 
L 230.104309 148.065084 
L 233.671941 147.213905 
L 237.239574 145.7706 
L 240.807206 145.10446 
L 244.374838 144.216273 
L 247.942471 144.216273 
L 251.510103 142.735961 
L 255.077735 141.662734 
L 258.645368 141.144625 
L 262.213 140.182422 
L 265.780632 137.961954 
L 269.348265 137.776915 
L 272.915897 137.258806 
L 276.48353 136.999751 
L 280.051162 136.259595 
L 283.618794 134.927315 
L 287.186427 133.076924 
L 290.754059 130.560394 
L 294.321691 128.191895 
L 297.889324 127.93284 
L 301.456956 126.563551 
L 305.024589 126.119458 
L 308.592221 124.121036 
L 312.159853 123.38088 
L 315.727486 121.678522 
L 319.295118 121.012381 
L 322.86275 119.6801 
L 326.430383 118.902936 
L 329.998015 118.495851 
L 333.565647 117.755695 
L 337.13328 116.904515 
L 340.700912 116.349398 
L 344.268545 113.684836 
L 347.836177 111.982477 
L 351.403809 110.539173 
L 354.971442 109.910041 
L 358.539074 108.614767 
L 362.106706 108.318705 
L 365.674339 108.281697 
L 369.241971 108.281697 
L 372.809604 108.281697 
L 376.377236 108.281697 
L 379.944868 107.911619 
L 383.512501 107.911619 
L 387.080133 107.430518 
L 390.647765 107.171463 
L 394.215398 106.986424 
" style="fill:none;stroke:#98df8a;stroke-linecap:square;stroke-width:1.5;"/>
    <defs>
     <path d="M -0 3 
L 3 -3 
L -3 -3 
z
" id="ma90b69fd17" style="stroke:#ffffff;stroke-linejoin:miter;stroke-width:0.75;"/>
    </defs>
    <g clip-path="url(#pc838449e89)">
     <use style="fill:#98df8a;stroke:#ffffff;stroke-linejoin:miter;stroke-width:0.75;" x="69.560852" xlink:href="#ma90b69fd17" y="267.48926"/>
     <use style="fill:#98df8a;stroke:#ffffff;stroke-linejoin:miter;stroke-width:0.75;" x="73.128485" xlink:href="#ma90b69fd17" y="256.201881"/>
     <use style="fill:#98df8a;stroke:#ffffff;stroke-linejoin:miter;stroke-width:0.75;" x="76.696117" xlink:href="#ma90b69fd17" y="250.83575"/>
     <use style="fill:#98df8a;stroke:#ffffff;stroke-linejoin:miter;stroke-width:0.75;" x="80.263749" xlink:href="#ma90b69fd17" y="247.097962"/>
     <use style="fill:#98df8a;stroke:#ffffff;stroke-linejoin:miter;stroke-width:0.75;" x="83.831382" xlink:href="#ma90b69fd17" y="244.211353"/>
     <use style="fill:#98df8a;stroke:#ffffff;stroke-linejoin:miter;stroke-width:0.75;" x="87.399014" xlink:href="#ma90b69fd17" y="239.474354"/>
     <use style="fill:#98df8a;stroke:#ffffff;stroke-linejoin:miter;stroke-width:0.75;" x="90.966646" xlink:href="#ma90b69fd17" y="232.590903"/>
     <use style="fill:#98df8a;stroke:#ffffff;stroke-linejoin:miter;stroke-width:0.75;" x="94.534279" xlink:href="#ma90b69fd17" y="231.998779"/>
     <use style="fill:#98df8a;stroke:#ffffff;stroke-linejoin:miter;stroke-width:0.75;" x="98.101911" xlink:href="#ma90b69fd17" y="229.741303"/>
     <use style="fill:#98df8a;stroke:#ffffff;stroke-linejoin:miter;stroke-width:0.75;" x="101.669544" xlink:href="#ma90b69fd17" y="223.079898"/>
     <use style="fill:#98df8a;stroke:#ffffff;stroke-linejoin:miter;stroke-width:0.75;" x="105.237176" xlink:href="#ma90b69fd17" y="221.488563"/>
     <use style="fill:#98df8a;stroke:#ffffff;stroke-linejoin:miter;stroke-width:0.75;" x="108.804808" xlink:href="#ma90b69fd17" y="218.379907"/>
     <use style="fill:#98df8a;stroke:#ffffff;stroke-linejoin:miter;stroke-width:0.75;" x="112.372441" xlink:href="#ma90b69fd17" y="211.903542"/>
     <use style="fill:#98df8a;stroke:#ffffff;stroke-linejoin:miter;stroke-width:0.75;" x="115.940073" xlink:href="#ma90b69fd17" y="205.5382"/>
     <use style="fill:#98df8a;stroke:#ffffff;stroke-linejoin:miter;stroke-width:0.75;" x="119.507705" xlink:href="#ma90b69fd17" y="204.279935"/>
     <use style="fill:#98df8a;stroke:#ffffff;stroke-linejoin:miter;stroke-width:0.75;" x="123.075338" xlink:href="#ma90b69fd17" y="202.281514"/>
     <use style="fill:#98df8a;stroke:#ffffff;stroke-linejoin:miter;stroke-width:0.75;" x="126.64297" xlink:href="#ma90b69fd17" y="196.61932"/>
     <use style="fill:#98df8a;stroke:#ffffff;stroke-linejoin:miter;stroke-width:0.75;" x="130.210603" xlink:href="#ma90b69fd17" y="195.213024"/>
     <use style="fill:#98df8a;stroke:#ffffff;stroke-linejoin:miter;stroke-width:0.75;" x="133.778235" xlink:href="#ma90b69fd17" y="193.029563"/>
     <use style="fill:#98df8a;stroke:#ffffff;stroke-linejoin:miter;stroke-width:0.75;" x="137.345867" xlink:href="#ma90b69fd17" y="191.364212"/>
     <use style="fill:#98df8a;stroke:#ffffff;stroke-linejoin:miter;stroke-width:0.75;" x="140.9135" xlink:href="#ma90b69fd17" y="188.662643"/>
     <use style="fill:#98df8a;stroke:#ffffff;stroke-linejoin:miter;stroke-width:0.75;" x="144.481132" xlink:href="#ma90b69fd17" y="187.404377"/>
     <use style="fill:#98df8a;stroke:#ffffff;stroke-linejoin:miter;stroke-width:0.75;" x="148.048764" xlink:href="#ma90b69fd17" y="186.775245"/>
     <use style="fill:#98df8a;stroke:#ffffff;stroke-linejoin:miter;stroke-width:0.75;" x="151.616397" xlink:href="#ma90b69fd17" y="185.590995"/>
     <use style="fill:#98df8a;stroke:#ffffff;stroke-linejoin:miter;stroke-width:0.75;" x="155.184029" xlink:href="#ma90b69fd17" y="184.221706"/>
     <use style="fill:#98df8a;stroke:#ffffff;stroke-linejoin:miter;stroke-width:0.75;" x="158.751661" xlink:href="#ma90b69fd17" y="182.408324"/>
     <use style="fill:#98df8a;stroke:#ffffff;stroke-linejoin:miter;stroke-width:0.75;" x="162.319294" xlink:href="#ma90b69fd17" y="180.594942"/>
     <use style="fill:#98df8a;stroke:#ffffff;stroke-linejoin:miter;stroke-width:0.75;" x="165.886926" xlink:href="#ma90b69fd17" y="177.412271"/>
     <use style="fill:#98df8a;stroke:#ffffff;stroke-linejoin:miter;stroke-width:0.75;" x="169.454559" xlink:href="#ma90b69fd17" y="175.968967"/>
     <use style="fill:#98df8a;stroke:#ffffff;stroke-linejoin:miter;stroke-width:0.75;" x="173.022191" xlink:href="#ma90b69fd17" y="174.858733"/>
     <use style="fill:#98df8a;stroke:#ffffff;stroke-linejoin:miter;stroke-width:0.75;" x="176.589823" xlink:href="#ma90b69fd17" y="173.415428"/>
     <use style="fill:#98df8a;stroke:#ffffff;stroke-linejoin:miter;stroke-width:0.75;" x="180.157456" xlink:href="#ma90b69fd17" y="172.564249"/>
     <use style="fill:#98df8a;stroke:#ffffff;stroke-linejoin:miter;stroke-width:0.75;" x="183.725088" xlink:href="#ma90b69fd17" y="172.120155"/>
     <use style="fill:#98df8a;stroke:#ffffff;stroke-linejoin:miter;stroke-width:0.75;" x="187.29272" xlink:href="#ma90b69fd17" y="170.972913"/>
     <use style="fill:#98df8a;stroke:#ffffff;stroke-linejoin:miter;stroke-width:0.75;" x="190.860353" xlink:href="#ma90b69fd17" y="170.084726"/>
     <use style="fill:#98df8a;stroke:#ffffff;stroke-linejoin:miter;stroke-width:0.75;" x="194.427985" xlink:href="#ma90b69fd17" y="161.054823"/>
     <use style="fill:#98df8a;stroke:#ffffff;stroke-linejoin:miter;stroke-width:0.75;" x="197.995618" xlink:href="#ma90b69fd17" y="160.388682"/>
     <use style="fill:#98df8a;stroke:#ffffff;stroke-linejoin:miter;stroke-width:0.75;" x="201.56325" xlink:href="#ma90b69fd17" y="159.352464"/>
     <use style="fill:#98df8a;stroke:#ffffff;stroke-linejoin:miter;stroke-width:0.75;" x="205.130882" xlink:href="#ma90b69fd17" y="158.649315"/>
     <use style="fill:#98df8a;stroke:#ffffff;stroke-linejoin:miter;stroke-width:0.75;" x="208.698515" xlink:href="#ma90b69fd17" y="156.428847"/>
     <use style="fill:#98df8a;stroke:#ffffff;stroke-linejoin:miter;stroke-width:0.75;" x="212.266147" xlink:href="#ma90b69fd17" y="155.133574"/>
     <use style="fill:#98df8a;stroke:#ffffff;stroke-linejoin:miter;stroke-width:0.75;" x="215.833779" xlink:href="#ma90b69fd17" y="154.837512"/>
     <use style="fill:#98df8a;stroke:#ffffff;stroke-linejoin:miter;stroke-width:0.75;" x="219.401412" xlink:href="#ma90b69fd17" y="154.282395"/>
     <use style="fill:#98df8a;stroke:#ffffff;stroke-linejoin:miter;stroke-width:0.75;" x="222.969044" xlink:href="#ma90b69fd17" y="150.914685"/>
     <use style="fill:#98df8a;stroke:#ffffff;stroke-linejoin:miter;stroke-width:0.75;" x="226.536676" xlink:href="#ma90b69fd17" y="149.693427"/>
     <use style="fill:#98df8a;stroke:#ffffff;stroke-linejoin:miter;stroke-width:0.75;" x="230.104309" xlink:href="#ma90b69fd17" y="148.065084"/>
     <use style="fill:#98df8a;stroke:#ffffff;stroke-linejoin:miter;stroke-width:0.75;" x="233.671941" xlink:href="#ma90b69fd17" y="147.213905"/>
     <use style="fill:#98df8a;stroke:#ffffff;stroke-linejoin:miter;stroke-width:0.75;" x="237.239574" xlink:href="#ma90b69fd17" y="145.7706"/>
     <use style="fill:#98df8a;stroke:#ffffff;stroke-linejoin:miter;stroke-width:0.75;" x="240.807206" xlink:href="#ma90b69fd17" y="145.10446"/>
     <use style="fill:#98df8a;stroke:#ffffff;stroke-linejoin:miter;stroke-width:0.75;" x="244.374838" xlink:href="#ma90b69fd17" y="144.216273"/>
     <use style="fill:#98df8a;stroke:#ffffff;stroke-linejoin:miter;stroke-width:0.75;" x="247.942471" xlink:href="#ma90b69fd17" y="144.216273"/>
     <use style="fill:#98df8a;stroke:#ffffff;stroke-linejoin:miter;stroke-width:0.75;" x="251.510103" xlink:href="#ma90b69fd17" y="142.735961"/>
     <use style="fill:#98df8a;stroke:#ffffff;stroke-linejoin:miter;stroke-width:0.75;" x="255.077735" xlink:href="#ma90b69fd17" y="141.662734"/>
     <use style="fill:#98df8a;stroke:#ffffff;stroke-linejoin:miter;stroke-width:0.75;" x="258.645368" xlink:href="#ma90b69fd17" y="141.144625"/>
     <use style="fill:#98df8a;stroke:#ffffff;stroke-linejoin:miter;stroke-width:0.75;" x="262.213" xlink:href="#ma90b69fd17" y="140.182422"/>
     <use style="fill:#98df8a;stroke:#ffffff;stroke-linejoin:miter;stroke-width:0.75;" x="265.780632" xlink:href="#ma90b69fd17" y="137.961954"/>
     <use style="fill:#98df8a;stroke:#ffffff;stroke-linejoin:miter;stroke-width:0.75;" x="269.348265" xlink:href="#ma90b69fd17" y="137.776915"/>
     <use style="fill:#98df8a;stroke:#ffffff;stroke-linejoin:miter;stroke-width:0.75;" x="272.915897" xlink:href="#ma90b69fd17" y="137.258806"/>
     <use style="fill:#98df8a;stroke:#ffffff;stroke-linejoin:miter;stroke-width:0.75;" x="276.48353" xlink:href="#ma90b69fd17" y="136.999751"/>
     <use style="fill:#98df8a;stroke:#ffffff;stroke-linejoin:miter;stroke-width:0.75;" x="280.051162" xlink:href="#ma90b69fd17" y="136.259595"/>
     <use style="fill:#98df8a;stroke:#ffffff;stroke-linejoin:miter;stroke-width:0.75;" x="283.618794" xlink:href="#ma90b69fd17" y="134.927315"/>
     <use style="fill:#98df8a;stroke:#ffffff;stroke-linejoin:miter;stroke-width:0.75;" x="287.186427" xlink:href="#ma90b69fd17" y="133.076924"/>
     <use style="fill:#98df8a;stroke:#ffffff;stroke-linejoin:miter;stroke-width:0.75;" x="290.754059" xlink:href="#ma90b69fd17" y="130.560394"/>
     <use style="fill:#98df8a;stroke:#ffffff;stroke-linejoin:miter;stroke-width:0.75;" x="294.321691" xlink:href="#ma90b69fd17" y="128.191895"/>
     <use style="fill:#98df8a;stroke:#ffffff;stroke-linejoin:miter;stroke-width:0.75;" x="297.889324" xlink:href="#ma90b69fd17" y="127.93284"/>
     <use style="fill:#98df8a;stroke:#ffffff;stroke-linejoin:miter;stroke-width:0.75;" x="301.456956" xlink:href="#ma90b69fd17" y="126.563551"/>
     <use style="fill:#98df8a;stroke:#ffffff;stroke-linejoin:miter;stroke-width:0.75;" x="305.024589" xlink:href="#ma90b69fd17" y="126.119458"/>
     <use style="fill:#98df8a;stroke:#ffffff;stroke-linejoin:miter;stroke-width:0.75;" x="308.592221" xlink:href="#ma90b69fd17" y="124.121036"/>
     <use style="fill:#98df8a;stroke:#ffffff;stroke-linejoin:miter;stroke-width:0.75;" x="312.159853" xlink:href="#ma90b69fd17" y="123.38088"/>
     <use style="fill:#98df8a;stroke:#ffffff;stroke-linejoin:miter;stroke-width:0.75;" x="315.727486" xlink:href="#ma90b69fd17" y="121.678522"/>
     <use style="fill:#98df8a;stroke:#ffffff;stroke-linejoin:miter;stroke-width:0.75;" x="319.295118" xlink:href="#ma90b69fd17" y="121.012381"/>
     <use style="fill:#98df8a;stroke:#ffffff;stroke-linejoin:miter;stroke-width:0.75;" x="322.86275" xlink:href="#ma90b69fd17" y="119.6801"/>
     <use style="fill:#98df8a;stroke:#ffffff;stroke-linejoin:miter;stroke-width:0.75;" x="326.430383" xlink:href="#ma90b69fd17" y="118.902936"/>
     <use style="fill:#98df8a;stroke:#ffffff;stroke-linejoin:miter;stroke-width:0.75;" x="329.998015" xlink:href="#ma90b69fd17" y="118.495851"/>
     <use style="fill:#98df8a;stroke:#ffffff;stroke-linejoin:miter;stroke-width:0.75;" x="333.565647" xlink:href="#ma90b69fd17" y="117.755695"/>
     <use style="fill:#98df8a;stroke:#ffffff;stroke-linejoin:miter;stroke-width:0.75;" x="337.13328" xlink:href="#ma90b69fd17" y="116.904515"/>
     <use style="fill:#98df8a;stroke:#ffffff;stroke-linejoin:miter;stroke-width:0.75;" x="340.700912" xlink:href="#ma90b69fd17" y="116.349398"/>
     <use style="fill:#98df8a;stroke:#ffffff;stroke-linejoin:miter;stroke-width:0.75;" x="344.268545" xlink:href="#ma90b69fd17" y="113.684836"/>
     <use style="fill:#98df8a;stroke:#ffffff;stroke-linejoin:miter;stroke-width:0.75;" x="347.836177" xlink:href="#ma90b69fd17" y="111.982477"/>
     <use style="fill:#98df8a;stroke:#ffffff;stroke-linejoin:miter;stroke-width:0.75;" x="351.403809" xlink:href="#ma90b69fd17" y="110.539173"/>
     <use style="fill:#98df8a;stroke:#ffffff;stroke-linejoin:miter;stroke-width:0.75;" x="354.971442" xlink:href="#ma90b69fd17" y="109.910041"/>
     <use style="fill:#98df8a;stroke:#ffffff;stroke-linejoin:miter;stroke-width:0.75;" x="358.539074" xlink:href="#ma90b69fd17" y="108.614767"/>
     <use style="fill:#98df8a;stroke:#ffffff;stroke-linejoin:miter;stroke-width:0.75;" x="362.106706" xlink:href="#ma90b69fd17" y="108.318705"/>
     <use style="fill:#98df8a;stroke:#ffffff;stroke-linejoin:miter;stroke-width:0.75;" x="365.674339" xlink:href="#ma90b69fd17" y="108.281697"/>
     <use style="fill:#98df8a;stroke:#ffffff;stroke-linejoin:miter;stroke-width:0.75;" x="369.241971" xlink:href="#ma90b69fd17" y="108.281697"/>
     <use style="fill:#98df8a;stroke:#ffffff;stroke-linejoin:miter;stroke-width:0.75;" x="372.809604" xlink:href="#ma90b69fd17" y="108.281697"/>
     <use style="fill:#98df8a;stroke:#ffffff;stroke-linejoin:miter;stroke-width:0.75;" x="376.377236" xlink:href="#ma90b69fd17" y="108.281697"/>
     <use style="fill:#98df8a;stroke:#ffffff;stroke-linejoin:miter;stroke-width:0.75;" x="379.944868" xlink:href="#ma90b69fd17" y="107.911619"/>
     <use style="fill:#98df8a;stroke:#ffffff;stroke-linejoin:miter;stroke-width:0.75;" x="383.512501" xlink:href="#ma90b69fd17" y="107.911619"/>
     <use style="fill:#98df8a;stroke:#ffffff;stroke-linejoin:miter;stroke-width:0.75;" x="387.080133" xlink:href="#ma90b69fd17" y="107.430518"/>
     <use style="fill:#98df8a;stroke:#ffffff;stroke-linejoin:miter;stroke-width:0.75;" x="390.647765" xlink:href="#ma90b69fd17" y="107.171463"/>
     <use style="fill:#98df8a;stroke:#ffffff;stroke-linejoin:miter;stroke-width:0.75;" x="394.215398" xlink:href="#ma90b69fd17" y="106.986424"/>
    </g>
   </g>
   <g id="line2d_18"/>
   <g id="line2d_19"/>
   <g id="line2d_20"/>
   <g id="patch_3">
    <path d="M 53.328125 287.214419 
L 53.328125 28.159807 
" style="fill:none;stroke:#000000;stroke-linecap:square;stroke-linejoin:miter;stroke-width:0.8;"/>
   </g>
   <g id="patch_4">
    <path d="M 69.560852 288.430125 
L 343.079334 288.430125 
" style="fill:none;stroke:#000000;stroke-linecap:square;stroke-linejoin:miter;stroke-width:0.8;"/>
   </g>
   <g id="text_17">
    <!-- matio_matio_fuzzer (23h, 20 trials/fuzzer) -->
    <g transform="translate(106.364375 16.318125)scale(0.12 -0.12)">
     <defs>
      <path d="M 3263 -1063 
L 3263 -1509 
L -63 -1509 
L -63 -1063 
L 3263 -1063 
z
" id="DejaVuSans-5f" transform="scale(0.015625)"/>
      <path d="M 2375 4863 
L 2375 4384 
L 1825 4384 
Q 1516 4384 1395 4259 
Q 1275 4134 1275 3809 
L 1275 3500 
L 2222 3500 
L 2222 3053 
L 1275 3053 
L 1275 0 
L 697 0 
L 697 3053 
L 147 3053 
L 147 3500 
L 697 3500 
L 697 3744 
Q 697 4328 969 4595 
Q 1241 4863 1831 4863 
L 2375 4863 
z
" id="DejaVuSans-66" transform="scale(0.015625)"/>
      <path d="M 353 3500 
L 3084 3500 
L 3084 2975 
L 922 459 
L 3084 459 
L 3084 0 
L 275 0 
L 275 525 
L 2438 3041 
L 353 3041 
L 353 3500 
z
" id="DejaVuSans-7a" transform="scale(0.015625)"/>
      <path d="M 750 794 
L 1409 794 
L 1409 256 
L 897 -744 
L 494 -744 
L 750 256 
L 750 794 
z
" id="DejaVuSans-2c" transform="scale(0.015625)"/>
      <path d="M 603 4863 
L 1178 4863 
L 1178 0 
L 603 0 
L 603 4863 
z
" id="DejaVuSans-6c" transform="scale(0.015625)"/>
      <path d="M 2834 3397 
L 2834 2853 
Q 2591 2978 2328 3040 
Q 2066 3103 1784 3103 
Q 1356 3103 1142 2972 
Q 928 2841 928 2578 
Q 928 2378 1081 2264 
Q 1234 2150 1697 2047 
L 1894 2003 
Q 2506 1872 2764 1633 
Q 3022 1394 3022 966 
Q 3022 478 2636 193 
Q 2250 -91 1575 -91 
Q 1294 -91 989 -36 
Q 684 19 347 128 
L 347 722 
Q 666 556 975 473 
Q 1284 391 1588 391 
Q 1994 391 2212 530 
Q 2431 669 2431 922 
Q 2431 1156 2273 1281 
Q 2116 1406 1581 1522 
L 1381 1569 
Q 847 1681 609 1914 
Q 372 2147 372 2553 
Q 372 3047 722 3315 
Q 1072 3584 1716 3584 
Q 2034 3584 2315 3537 
Q 2597 3491 2834 3397 
z
" id="DejaVuSans-73" transform="scale(0.015625)"/>
      <path d="M 1625 4666 
L 2156 4666 
L 531 -594 
L 0 -594 
L 1625 4666 
z
" id="DejaVuSans-2f" transform="scale(0.015625)"/>
     </defs>
     <use xlink:href="#DejaVuSans-6d"/>
     <use x="97.412109" xlink:href="#DejaVuSans-61"/>
     <use x="158.691406" xlink:href="#DejaVuSans-74"/>
     <use x="197.900391" xlink:href="#DejaVuSans-69"/>
     <use x="225.683594" xlink:href="#DejaVuSans-6f"/>
     <use x="286.865234" xlink:href="#DejaVuSans-5f"/>
     <use x="336.865234" xlink:href="#DejaVuSans-6d"/>
     <use x="434.277344" xlink:href="#DejaVuSans-61"/>
     <use x="495.556641" xlink:href="#DejaVuSans-74"/>
     <use x="534.765625" xlink:href="#DejaVuSans-69"/>
     <use x="562.548828" xlink:href="#DejaVuSans-6f"/>
     <use x="623.730469" xlink:href="#DejaVuSans-5f"/>
     <use x="673.730469" xlink:href="#DejaVuSans-66"/>
     <use x="708.935547" xlink:href="#DejaVuSans-75"/>
     <use x="772.314453" xlink:href="#DejaVuSans-7a"/>
     <use x="824.804688" xlink:href="#DejaVuSans-7a"/>
     <use x="877.294922" xlink:href="#DejaVuSans-65"/>
     <use x="938.818359" xlink:href="#DejaVuSans-72"/>
     <use x="979.931641" xlink:href="#DejaVuSans-20"/>
     <use x="1011.71875" xlink:href="#DejaVuSans-28"/>
     <use x="1050.732422" xlink:href="#DejaVuSans-32"/>
     <use x="1114.355469" xlink:href="#DejaVuSans-33"/>
     <use x="1177.978516" xlink:href="#DejaVuSans-68"/>
     <use x="1241.357422" xlink:href="#DejaVuSans-2c"/>
     <use x="1273.144531" xlink:href="#DejaVuSans-20"/>
     <use x="1304.931641" xlink:href="#DejaVuSans-32"/>
     <use x="1368.554688" xlink:href="#DejaVuSans-30"/>
     <use x="1432.177734" xlink:href="#DejaVuSans-20"/>
     <use x="1463.964844" xlink:href="#DejaVuSans-74"/>
     <use x="1503.173828" xlink:href="#DejaVuSans-72"/>
     <use x="1544.287109" xlink:href="#DejaVuSans-69"/>
     <use x="1572.070312" xlink:href="#DejaVuSans-61"/>
     <use x="1633.349609" xlink:href="#DejaVuSans-6c"/>
     <use x="1661.132812" xlink:href="#DejaVuSans-73"/>
     <use x="1713.232422" xlink:href="#DejaVuSans-2f"/>
     <use x="1746.923828" xlink:href="#DejaVuSans-66"/>
     <use x="1782.128906" xlink:href="#DejaVuSans-75"/>
     <use x="1845.507812" xlink:href="#DejaVuSans-7a"/>
     <use x="1897.998047" xlink:href="#DejaVuSans-7a"/>
     <use x="1950.488281" xlink:href="#DejaVuSans-65"/>
     <use x="2012.011719" xlink:href="#DejaVuSans-72"/>
     <use x="2053.125" xlink:href="#DejaVuSans-29"/>
    </g>
   </g>
   <g id="legend_1">
    <g id="line2d_21">
     <path d="M 414.448125 30.416562 
L 434.448125 30.416562 
" style="fill:none;stroke:#1f77b4;stroke-linecap:square;stroke-width:1.5;"/>
    </g>
    <g id="line2d_22">
     <defs>
      <path d="M 0 3 
C 0.795609 3 1.55874 2.683901 2.12132 2.12132 
C 2.683901 1.55874 3 0.795609 3 0 
C 3 -0.795609 2.683901 -1.55874 2.12132 -2.12132 
C 1.55874 -2.683901 0.795609 -3 0 -3 
C -0.795609 -3 -1.55874 -2.683901 -2.12132 -2.12132 
C -2.683901 -1.55874 -3 -0.795609 -3 0 
C -3 0.795609 -2.683901 1.55874 -2.12132 2.12132 
C -1.55874 2.683901 -0.795609 3 0 3 
z
" id="m62aef45307" style="stroke:#1f77b4;"/>
     </defs>
     <g>
      <use style="fill:#1f77b4;stroke:#1f77b4;" x="424.448125" xlink:href="#m62aef45307" y="30.416562"/>
     </g>
    </g>
    <g id="text_18">
     <!-- afl -->
     <g transform="translate(442.448125 33.916562)scale(0.1 -0.1)">
      <use xlink:href="#DejaVuSans-61"/>
      <use x="61.279297" xlink:href="#DejaVuSans-66"/>
      <use x="96.484375" xlink:href="#DejaVuSans-6c"/>
     </g>
    </g>
    <g id="line2d_23">
     <path d="M 414.448125 45.094688 
L 434.448125 45.094688 
" style="fill:none;stroke:#d62728;stroke-linecap:square;stroke-width:1.5;"/>
    </g>
    <g id="line2d_24">
     <defs>
      <path d="M 0 -3 
L -3 3 
L 3 3 
z
" id="m85b9dcaa34" style="stroke:#d62728;stroke-linejoin:miter;"/>
     </defs>
     <g>
      <use style="fill:#d62728;stroke:#d62728;stroke-linejoin:miter;" x="424.448125" xlink:href="#m85b9dcaa34" y="45.094688"/>
     </g>
    </g>
    <g id="text_19">
     <!-- afl_scheduling_random -->
     <g transform="translate(442.448125 48.594688)scale(0.1 -0.1)">
      <use xlink:href="#DejaVuSans-61"/>
      <use x="61.279297" xlink:href="#DejaVuSans-66"/>
      <use x="96.484375" xlink:href="#DejaVuSans-6c"/>
      <use x="124.267578" xlink:href="#DejaVuSans-5f"/>
      <use x="174.267578" xlink:href="#DejaVuSans-73"/>
      <use x="226.367188" xlink:href="#DejaVuSans-63"/>
      <use x="281.347656" xlink:href="#DejaVuSans-68"/>
      <use x="344.726562" xlink:href="#DejaVuSans-65"/>
      <use x="406.25" xlink:href="#DejaVuSans-64"/>
      <use x="469.726562" xlink:href="#DejaVuSans-75"/>
      <use x="533.105469" xlink:href="#DejaVuSans-6c"/>
      <use x="560.888672" xlink:href="#DejaVuSans-69"/>
      <use x="588.671875" xlink:href="#DejaVuSans-6e"/>
      <use x="652.050781" xlink:href="#DejaVuSans-67"/>
      <use x="715.527344" xlink:href="#DejaVuSans-5f"/>
      <use x="765.527344" xlink:href="#DejaVuSans-72"/>
      <use x="806.640625" xlink:href="#DejaVuSans-61"/>
      <use x="867.919922" xlink:href="#DejaVuSans-6e"/>
      <use x="931.298828" xlink:href="#DejaVuSans-64"/>
      <use x="994.775391" xlink:href="#DejaVuSans-6f"/>
      <use x="1055.957031" xlink:href="#DejaVuSans-6d"/>
     </g>
    </g>
    <g id="line2d_25">
     <path d="M 414.448125 60.050937 
L 434.448125 60.050937 
" style="fill:none;stroke:#98df8a;stroke-linecap:square;stroke-width:1.5;"/>
    </g>
    <g id="line2d_26">
     <defs>
      <path d="M -0 3 
L 3 -3 
L -3 -3 
z
" id="m62691fac54" style="stroke:#98df8a;stroke-linejoin:miter;"/>
     </defs>
     <g>
      <use style="fill:#98df8a;stroke:#98df8a;stroke-linejoin:miter;" x="424.448125" xlink:href="#m62691fac54" y="60.050937"/>
     </g>
    </g>
    <g id="text_20">
     <!-- afl_scheduling_lifo -->
     <g transform="translate(442.448125 63.550937)scale(0.1 -0.1)">
      <use xlink:href="#DejaVuSans-61"/>
      <use x="61.279297" xlink:href="#DejaVuSans-66"/>
      <use x="96.484375" xlink:href="#DejaVuSans-6c"/>
      <use x="124.267578" xlink:href="#DejaVuSans-5f"/>
      <use x="174.267578" xlink:href="#DejaVuSans-73"/>
      <use x="226.367188" xlink:href="#DejaVuSans-63"/>
      <use x="281.347656" xlink:href="#DejaVuSans-68"/>
      <use x="344.726562" xlink:href="#DejaVuSans-65"/>
      <use x="406.25" xlink:href="#DejaVuSans-64"/>
      <use x="469.726562" xlink:href="#DejaVuSans-75"/>
      <use x="533.105469" xlink:href="#DejaVuSans-6c"/>
      <use x="560.888672" xlink:href="#DejaVuSans-69"/>
      <use x="588.671875" xlink:href="#DejaVuSans-6e"/>
      <use x="652.050781" xlink:href="#DejaVuSans-67"/>
      <use x="715.527344" xlink:href="#DejaVuSans-5f"/>
      <use x="765.527344" xlink:href="#DejaVuSans-6c"/>
      <use x="793.310547" xlink:href="#DejaVuSans-69"/>
      <use x="821.09375" xlink:href="#DejaVuSans-66"/>
      <use x="856.298828" xlink:href="#DejaVuSans-6f"/>
     </g>
    </g>
   </g>
  </g>
 </g>
 <defs>
  <clipPath id="pc838449e89">
   <rect height="266.112" width="357.12" x="53.328125" y="22.318125"/>
  </clipPath>
 </defs>
</svg>
