<?xml version="1.0" encoding="utf-8" standalone="no"?>
<!DOCTYPE svg PUBLIC "-//W3C//DTD SVG 1.1//EN"
  "http://www.w3.org/Graphics/SVG/1.1/DTD/svg11.dtd">
<svg height="325.986375pt" version="1.1" viewBox="0 0 572.16375 325.986375" width="572.16375pt" xmlns="http://www.w3.org/2000/svg" xmlns:xlink="http://www.w3.org/1999/xlink">
 <metadata>
  <rdf:RDF xmlns:cc="http://creativecommons.org/ns#" xmlns:dc="http://purl.org/dc/elements/1.1/" xmlns:rdf="http://www.w3.org/1999/02/22-rdf-syntax-ns#">
   <cc:Work>
    <dc:type rdf:resource="http://purl.org/dc/dcmitype/StillImage"/>
    <dc:date>2022-07-21T16:25:53.533521</dc:date>
    <dc:format>image/svg+xml</dc:format>
    <dc:creator>
     <cc:Agent>
      <dc:title>Matplotlib v3.4.3, https://matplotlib.org/</dc:title>
     </cc:Agent>
    </dc:creator>
   </cc:Work>
  </rdf:RDF>
 </metadata>
 <defs>
  <style type="text/css">*{stroke-linecap:butt;stroke-linejoin:round;}</style>
 </defs>
 <g id="figure_1">
  <g id="patch_1">
   <path d="M 0 325.986375 
L 572.16375 325.986375 
L 572.16375 0 
L 0 0 
z
" style="fill:#ffffff;"/>
  </g>
  <g id="axes_1">
   <g id="patch_2">
    <path d="M 56.50625 288.430125 
L 413.62625 288.430125 
L 413.62625 22.318125 
L 56.50625 22.318125 
z
" style="fill:#ffffff;"/>
   </g>
   <g id="PolyCollection_1">
    <defs>
     <path d="M 72.738977 -291.57225 
L 72.738977 -291.57225 
L 76.30661 -291.57225 
L 79.874242 -291.57225 
L 83.441874 -291.57225 
L 87.009507 -291.57225 
L 90.577139 -291.57225 
L 94.144771 -291.57225 
L 97.712404 -291.57225 
L 101.280036 -291.57225 
L 104.847669 -291.57225 
L 108.415301 -291.57225 
L 111.982933 -291.57225 
L 115.550566 -291.57225 
L 119.118198 -291.57225 
L 122.68583 -291.57225 
L 126.253463 -291.57225 
L 129.821095 -291.57225 
L 133.388728 -291.57225 
L 136.95636 -291.57225 
L 140.523992 -291.57225 
L 144.091625 -291.57225 
L 147.659257 -291.57225 
L 151.226889 -291.57225 
L 154.794522 -291.57225 
L 158.362154 -291.57225 
L 161.929786 -291.57225 
L 165.497419 -291.57225 
L 169.065051 -291.57225 
L 172.632684 -291.57225 
L 176.200316 -291.57225 
L 179.767948 -291.57225 
L 183.335581 -291.57225 
L 186.903213 -291.57225 
L 190.470845 -291.57225 
L 194.038478 -291.57225 
L 197.60611 -291.57225 
L 201.173743 -291.57225 
L 204.741375 -291.57225 
L 208.309007 -291.57225 
L 211.87664 -291.57225 
L 215.444272 -291.57225 
L 219.011904 -291.57225 
L 222.579537 -291.57225 
L 226.147169 -291.57225 
L 229.714801 -291.57225 
L 233.282434 -291.57225 
L 236.850066 -291.57225 
L 240.417699 -291.57225 
L 243.985331 -291.57225 
L 247.552963 -291.57225 
L 251.120596 -291.57225 
L 254.688228 -291.57225 
L 258.25586 -291.57225 
L 261.823493 -291.57225 
L 265.391125 -291.57225 
L 268.958757 -291.57225 
L 272.52639 -291.57225 
L 276.094022 -291.57225 
L 279.661655 -291.57225 
L 283.229287 -291.57225 
L 286.796919 -291.57225 
L 290.364552 -291.57225 
L 293.932184 -291.57225 
L 297.499816 -291.57225 
L 301.067449 -291.57225 
L 304.635081 -291.57225 
L 308.202714 -291.57225 
L 311.770346 -291.57225 
L 315.337978 -291.57225 
L 318.905611 -291.57225 
L 322.473243 -291.57225 
L 326.040875 -291.57225 
L 329.608508 -291.57225 
L 333.17614 -291.57225 
L 336.743772 -291.57225 
L 340.311405 -291.57225 
L 343.879037 -291.57225 
L 347.44667 -291.57225 
L 351.014302 -291.57225 
L 354.581934 -291.57225 
L 358.149567 -291.57225 
L 361.717199 -291.57225 
L 365.284831 -291.57225 
L 368.852464 -291.57225 
L 372.420096 -291.57225 
L 375.987729 -291.57225 
L 379.555361 -291.57225 
L 383.122993 -291.57225 
L 386.690626 -291.57225 
L 390.258258 -291.57225 
L 393.82589 -291.57225 
L 397.393523 -291.57225 
L 397.393523 -291.57225 
L 397.393523 -291.57225 
L 393.82589 -291.57225 
L 390.258258 -291.57225 
L 386.690626 -291.57225 
L 383.122993 -291.57225 
L 379.555361 -291.57225 
L 375.987729 -291.57225 
L 372.420096 -291.57225 
L 368.852464 -291.57225 
L 365.284831 -291.57225 
L 361.717199 -291.57225 
L 358.149567 -291.57225 
L 354.581934 -291.57225 
L 351.014302 -291.57225 
L 347.44667 -291.57225 
L 343.879037 -291.57225 
L 340.311405 -291.57225 
L 336.743772 -291.57225 
L 333.17614 -291.57225 
L 329.608508 -291.57225 
L 326.040875 -291.57225 
L 322.473243 -291.57225 
L 318.905611 -291.57225 
L 315.337978 -291.57225 
L 311.770346 -291.57225 
L 308.202714 -291.57225 
L 304.635081 -291.57225 
L 301.067449 -291.57225 
L 297.499816 -291.57225 
L 293.932184 -291.57225 
L 290.364552 -291.57225 
L 286.796919 -291.57225 
L 283.229287 -291.57225 
L 279.661655 -291.57225 
L 276.094022 -291.57225 
L 272.52639 -291.57225 
L 268.958757 -291.57225 
L 265.391125 -291.57225 
L 261.823493 -291.57225 
L 258.25586 -291.57225 
L 254.688228 -291.57225 
L 251.120596 -291.57225 
L 247.552963 -291.57225 
L 243.985331 -291.57225 
L 240.417699 -291.57225 
L 236.850066 -291.57225 
L 233.282434 -291.57225 
L 229.714801 -291.57225 
L 226.147169 -291.57225 
L 222.579537 -291.57225 
L 219.011904 -291.57225 
L 215.444272 -291.57225 
L 211.87664 -291.57225 
L 208.309007 -291.57225 
L 204.741375 -291.57225 
L 201.173743 -291.57225 
L 197.60611 -291.57225 
L 194.038478 -291.57225 
L 190.470845 -291.57225 
L 186.903213 -291.57225 
L 183.335581 -291.57225 
L 179.767948 -291.57225 
L 176.200316 -291.57225 
L 172.632684 -291.57225 
L 169.065051 -291.57225 
L 165.497419 -291.57225 
L 161.929786 -291.57225 
L 158.362154 -291.57225 
L 154.794522 -291.57225 
L 151.226889 -291.57225 
L 147.659257 -291.57225 
L 144.091625 -291.57225 
L 140.523992 -291.57225 
L 136.95636 -291.57225 
L 133.388728 -291.57225 
L 129.821095 -291.57225 
L 126.253463 -291.57225 
L 122.68583 -291.57225 
L 119.118198 -291.57225 
L 115.550566 -291.57225 
L 111.982933 -291.57225 
L 108.415301 -291.57225 
L 104.847669 -291.57225 
L 101.280036 -291.57225 
L 97.712404 -291.57225 
L 94.144771 -291.57225 
L 90.577139 -291.57225 
L 87.009507 -291.57225 
L 83.441874 -291.57225 
L 79.874242 -291.57225 
L 76.30661 -291.57225 
L 72.738977 -291.57225 
z
" id="m8425d49cca" style="stroke:#1f77b4;stroke-opacity:0.2;"/>
    </defs>
    <g clip-path="url(#p6e383249a3)">
     <use style="fill:#1f77b4;fill-opacity:0.2;stroke:#1f77b4;stroke-opacity:0.2;" x="0" xlink:href="#m8425d49cca" y="325.986375"/>
    </g>
   </g>
   <g id="PolyCollection_2">
    <defs>
     <path d="M 72.738977 -49.65225 
L 72.738977 -49.65225 
L 76.30661 -49.65225 
L 79.874242 -49.65225 
L 83.441874 -49.65225 
L 87.009507 -49.65225 
L 90.577139 -49.65225 
L 94.144771 -49.65225 
L 97.712404 -49.65225 
L 101.280036 -49.65225 
L 104.847669 -49.65225 
L 108.415301 -49.65225 
L 111.982933 -49.65225 
L 115.550566 -49.65225 
L 119.118198 -49.65225 
L 122.68583 -49.65225 
L 126.253463 -49.65225 
L 129.821095 -49.65225 
L 133.388728 -49.65225 
L 136.95636 -49.65225 
L 140.523992 -49.65225 
L 144.091625 -49.65225 
L 147.659257 -49.65225 
L 151.226889 -49.65225 
L 154.794522 -49.65225 
L 158.362154 -49.65225 
L 161.929786 -49.65225 
L 165.497419 -49.65225 
L 169.065051 -49.65225 
L 172.632684 -49.65225 
L 176.200316 -49.65225 
L 179.767948 -49.65225 
L 183.335581 -49.65225 
L 186.903213 -49.65225 
L 190.470845 -49.65225 
L 194.038478 -49.65225 
L 197.60611 -49.65225 
L 201.173743 -49.65225 
L 204.741375 -49.65225 
L 208.309007 -49.65225 
L 211.87664 -49.65225 
L 215.444272 -49.65225 
L 219.011904 -49.65225 
L 222.579537 -49.65225 
L 226.147169 -49.65225 
L 229.714801 -49.65225 
L 233.282434 -49.65225 
L 236.850066 -49.65225 
L 240.417699 -49.65225 
L 243.985331 -49.65225 
L 247.552963 -49.65225 
L 251.120596 -49.65225 
L 254.688228 -49.65225 
L 258.25586 -49.65225 
L 261.823493 -49.65225 
L 265.391125 -49.65225 
L 268.958757 -49.65225 
L 272.52639 -49.65225 
L 276.094022 -49.65225 
L 279.661655 -49.65225 
L 283.229287 -49.65225 
L 286.796919 -49.65225 
L 290.364552 -49.65225 
L 293.932184 -49.65225 
L 297.499816 -49.65225 
L 301.067449 -49.65225 
L 304.635081 -49.65225 
L 308.202714 -49.65225 
L 311.770346 -49.65225 
L 315.337978 -49.65225 
L 318.905611 -49.65225 
L 322.473243 -49.65225 
L 326.040875 -49.65225 
L 329.608508 -49.65225 
L 333.17614 -49.65225 
L 336.743772 -49.65225 
L 340.311405 -49.65225 
L 343.879037 -49.65225 
L 347.44667 -49.65225 
L 351.014302 -49.65225 
L 354.581934 -49.65225 
L 358.149567 -49.65225 
L 361.717199 -49.65225 
L 365.284831 -49.65225 
L 368.852464 -49.65225 
L 372.420096 -49.65225 
L 375.987729 -49.65225 
L 379.555361 -49.65225 
L 383.122993 -49.65225 
L 386.690626 -49.65225 
L 390.258258 -49.65225 
L 393.82589 -49.65225 
L 397.393523 -49.65225 
L 397.393523 -49.65225 
L 397.393523 -49.65225 
L 393.82589 -49.65225 
L 390.258258 -49.65225 
L 386.690626 -49.65225 
L 383.122993 -49.65225 
L 379.555361 -49.65225 
L 375.987729 -49.65225 
L 372.420096 -49.65225 
L 368.852464 -49.65225 
L 365.284831 -49.65225 
L 361.717199 -49.65225 
L 358.149567 -49.65225 
L 354.581934 -49.65225 
L 351.014302 -49.65225 
L 347.44667 -49.65225 
L 343.879037 -49.65225 
L 340.311405 -49.65225 
L 336.743772 -49.65225 
L 333.17614 -49.65225 
L 329.608508 -49.65225 
L 326.040875 -49.65225 
L 322.473243 -49.65225 
L 318.905611 -49.65225 
L 315.337978 -49.65225 
L 311.770346 -49.65225 
L 308.202714 -49.65225 
L 304.635081 -49.65225 
L 301.067449 -49.65225 
L 297.499816 -49.65225 
L 293.932184 -49.65225 
L 290.364552 -49.65225 
L 286.796919 -49.65225 
L 283.229287 -49.65225 
L 279.661655 -49.65225 
L 276.094022 -49.65225 
L 272.52639 -49.65225 
L 268.958757 -49.65225 
L 265.391125 -49.65225 
L 261.823493 -49.65225 
L 258.25586 -49.65225 
L 254.688228 -49.65225 
L 251.120596 -49.65225 
L 247.552963 -49.65225 
L 243.985331 -49.65225 
L 240.417699 -49.65225 
L 236.850066 -49.65225 
L 233.282434 -49.65225 
L 229.714801 -49.65225 
L 226.147169 -49.65225 
L 222.579537 -49.65225 
L 219.011904 -49.65225 
L 215.444272 -49.65225 
L 211.87664 -49.65225 
L 208.309007 -49.65225 
L 204.741375 -49.65225 
L 201.173743 -49.65225 
L 197.60611 -49.65225 
L 194.038478 -49.65225 
L 190.470845 -49.65225 
L 186.903213 -49.65225 
L 183.335581 -49.65225 
L 179.767948 -49.65225 
L 176.200316 -49.65225 
L 172.632684 -49.65225 
L 169.065051 -49.65225 
L 165.497419 -49.65225 
L 161.929786 -49.65225 
L 158.362154 -49.65225 
L 154.794522 -49.65225 
L 151.226889 -49.65225 
L 147.659257 -49.65225 
L 144.091625 -49.65225 
L 140.523992 -49.65225 
L 136.95636 -49.65225 
L 133.388728 -49.65225 
L 129.821095 -49.65225 
L 126.253463 -49.65225 
L 122.68583 -49.65225 
L 119.118198 -49.65225 
L 115.550566 -49.65225 
L 111.982933 -49.65225 
L 108.415301 -49.65225 
L 104.847669 -49.65225 
L 101.280036 -49.65225 
L 97.712404 -49.65225 
L 94.144771 -49.65225 
L 90.577139 -49.65225 
L 87.009507 -49.65225 
L 83.441874 -49.65225 
L 79.874242 -49.65225 
L 76.30661 -49.65225 
L 72.738977 -49.65225 
z
" id="m58d3031840" style="stroke:#98df8a;stroke-opacity:0.2;"/>
    </defs>
    <g clip-path="url(#p6e383249a3)">
     <use style="fill:#98df8a;fill-opacity:0.2;stroke:#98df8a;stroke-opacity:0.2;" x="0" xlink:href="#m58d3031840" y="325.986375"/>
    </g>
   </g>
   <g id="PolyCollection_3">
    <defs>
     <path d="M 72.738977 -49.65225 
L 72.738977 -49.65225 
L 76.30661 -49.65225 
L 79.874242 -49.65225 
L 83.441874 -49.65225 
L 87.009507 -49.65225 
L 90.577139 -49.65225 
L 94.144771 -49.65225 
L 97.712404 -49.65225 
L 101.280036 -49.65225 
L 104.847669 -49.65225 
L 108.415301 -49.65225 
L 111.982933 -49.65225 
L 115.550566 -49.65225 
L 119.118198 -49.65225 
L 122.68583 -49.65225 
L 126.253463 -49.65225 
L 129.821095 -49.65225 
L 133.388728 -49.65225 
L 136.95636 -49.65225 
L 140.523992 -49.65225 
L 144.091625 -49.65225 
L 147.659257 -49.65225 
L 151.226889 -49.65225 
L 154.794522 -49.65225 
L 158.362154 -49.65225 
L 161.929786 -49.65225 
L 165.497419 -49.65225 
L 169.065051 -49.65225 
L 172.632684 -49.65225 
L 176.200316 -49.65225 
L 179.767948 -49.65225 
L 183.335581 -49.65225 
L 186.903213 -49.65225 
L 190.470845 -49.65225 
L 194.038478 -49.65225 
L 197.60611 -49.65225 
L 201.173743 -49.65225 
L 204.741375 -49.65225 
L 208.309007 -49.65225 
L 211.87664 -49.65225 
L 215.444272 -49.65225 
L 219.011904 -49.65225 
L 222.579537 -49.65225 
L 226.147169 -49.65225 
L 229.714801 -49.65225 
L 233.282434 -49.65225 
L 236.850066 -49.65225 
L 240.417699 -49.65225 
L 243.985331 -49.65225 
L 247.552963 -49.65225 
L 251.120596 -49.65225 
L 254.688228 -49.65225 
L 258.25586 -49.65225 
L 261.823493 -49.65225 
L 265.391125 -49.65225 
L 268.958757 -49.65225 
L 272.52639 -49.65225 
L 276.094022 -49.65225 
L 279.661655 -49.65225 
L 283.229287 -49.65225 
L 286.796919 -49.65225 
L 290.364552 -49.65225 
L 293.932184 -49.65225 
L 297.499816 -49.65225 
L 301.067449 -49.65225 
L 304.635081 -49.65225 
L 308.202714 -49.65225 
L 311.770346 -49.65225 
L 315.337978 -49.65225 
L 318.905611 -49.65225 
L 322.473243 -49.65225 
L 326.040875 -49.65225 
L 329.608508 -49.65225 
L 333.17614 -49.65225 
L 336.743772 -49.65225 
L 340.311405 -49.65225 
L 343.879037 -49.65225 
L 347.44667 -49.65225 
L 351.014302 -49.65225 
L 354.581934 -49.65225 
L 358.149567 -49.65225 
L 361.717199 -49.65225 
L 365.284831 -49.65225 
L 368.852464 -49.65225 
L 372.420096 -49.65225 
L 375.987729 -49.65225 
L 379.555361 -49.65225 
L 383.122993 -49.65225 
L 386.690626 -49.65225 
L 390.258258 -49.65225 
L 393.82589 -49.65225 
L 397.393523 -49.65225 
L 397.393523 -49.65225 
L 397.393523 -49.65225 
L 393.82589 -49.65225 
L 390.258258 -49.65225 
L 386.690626 -49.65225 
L 383.122993 -49.65225 
L 379.555361 -49.65225 
L 375.987729 -49.65225 
L 372.420096 -49.65225 
L 368.852464 -49.65225 
L 365.284831 -49.65225 
L 361.717199 -49.65225 
L 358.149567 -49.65225 
L 354.581934 -49.65225 
L 351.014302 -49.65225 
L 347.44667 -49.65225 
L 343.879037 -49.65225 
L 340.311405 -49.65225 
L 336.743772 -49.65225 
L 333.17614 -49.65225 
L 329.608508 -49.65225 
L 326.040875 -49.65225 
L 322.473243 -49.65225 
L 318.905611 -49.65225 
L 315.337978 -49.65225 
L 311.770346 -49.65225 
L 308.202714 -49.65225 
L 304.635081 -49.65225 
L 301.067449 -49.65225 
L 297.499816 -49.65225 
L 293.932184 -49.65225 
L 290.364552 -49.65225 
L 286.796919 -49.65225 
L 283.229287 -49.65225 
L 279.661655 -49.65225 
L 276.094022 -49.65225 
L 272.52639 -49.65225 
L 268.958757 -49.65225 
L 265.391125 -49.65225 
L 261.823493 -49.65225 
L 258.25586 -49.65225 
L 254.688228 -49.65225 
L 251.120596 -49.65225 
L 247.552963 -49.65225 
L 243.985331 -49.65225 
L 240.417699 -49.65225 
L 236.850066 -49.65225 
L 233.282434 -49.65225 
L 229.714801 -49.65225 
L 226.147169 -49.65225 
L 222.579537 -49.65225 
L 219.011904 -49.65225 
L 215.444272 -49.65225 
L 211.87664 -49.65225 
L 208.309007 -49.65225 
L 204.741375 -49.65225 
L 201.173743 -49.65225 
L 197.60611 -49.65225 
L 194.038478 -49.65225 
L 190.470845 -49.65225 
L 186.903213 -49.65225 
L 183.335581 -49.65225 
L 179.767948 -49.65225 
L 176.200316 -49.65225 
L 172.632684 -49.65225 
L 169.065051 -49.65225 
L 165.497419 -49.65225 
L 161.929786 -49.65225 
L 158.362154 -49.65225 
L 154.794522 -49.65225 
L 151.226889 -49.65225 
L 147.659257 -49.65225 
L 144.091625 -49.65225 
L 140.523992 -49.65225 
L 136.95636 -49.65225 
L 133.388728 -49.65225 
L 129.821095 -49.65225 
L 126.253463 -49.65225 
L 122.68583 -49.65225 
L 119.118198 -49.65225 
L 115.550566 -49.65225 
L 111.982933 -49.65225 
L 108.415301 -49.65225 
L 104.847669 -49.65225 
L 101.280036 -49.65225 
L 97.712404 -49.65225 
L 94.144771 -49.65225 
L 90.577139 -49.65225 
L 87.009507 -49.65225 
L 83.441874 -49.65225 
L 79.874242 -49.65225 
L 76.30661 -49.65225 
L 72.738977 -49.65225 
z
" id="m0316e68b82" style="stroke:#d62728;stroke-opacity:0.2;"/>
    </defs>
    <g clip-path="url(#p6e383249a3)">
     <use style="fill:#d62728;fill-opacity:0.2;stroke:#d62728;stroke-opacity:0.2;" x="0" xlink:href="#m0316e68b82" y="325.986375"/>
    </g>
   </g>
   <g id="matplotlib.axis_1">
    <g id="xtick_1">
     <g id="line2d_1">
      <defs>
       <path d="M 0 0 
L 0 3.5 
" id="m01692c98cf" style="stroke:#000000;stroke-width:0.8;"/>
      </defs>
      <g>
       <use style="stroke:#000000;stroke-width:0.8;" x="72.738977" xlink:href="#m01692c98cf" y="288.430125"/>
      </g>
     </g>
     <g id="text_1">
      <!-- 15m -->
      <g transform="translate(61.506165 303.028562)scale(0.1 -0.1)">
       <defs>
        <path d="M 794 531 
L 1825 531 
L 1825 4091 
L 703 3866 
L 703 4441 
L 1819 4666 
L 2450 4666 
L 2450 531 
L 3481 531 
L 3481 0 
L 794 0 
L 794 531 
z
" id="DejaVuSans-31" transform="scale(0.015625)"/>
        <path d="M 691 4666 
L 3169 4666 
L 3169 4134 
L 1269 4134 
L 1269 2991 
Q 1406 3038 1543 3061 
Q 1681 3084 1819 3084 
Q 2600 3084 3056 2656 
Q 3513 2228 3513 1497 
Q 3513 744 3044 326 
Q 2575 -91 1722 -91 
Q 1428 -91 1123 -41 
Q 819 9 494 109 
L 494 744 
Q 775 591 1075 516 
Q 1375 441 1709 441 
Q 2250 441 2565 725 
Q 2881 1009 2881 1497 
Q 2881 1984 2565 2268 
Q 2250 2553 1709 2553 
Q 1456 2553 1204 2497 
Q 953 2441 691 2322 
L 691 4666 
z
" id="DejaVuSans-35" transform="scale(0.015625)"/>
        <path d="M 3328 2828 
Q 3544 3216 3844 3400 
Q 4144 3584 4550 3584 
Q 5097 3584 5394 3201 
Q 5691 2819 5691 2113 
L 5691 0 
L 5113 0 
L 5113 2094 
Q 5113 2597 4934 2840 
Q 4756 3084 4391 3084 
Q 3944 3084 3684 2787 
Q 3425 2491 3425 1978 
L 3425 0 
L 2847 0 
L 2847 2094 
Q 2847 2600 2669 2842 
Q 2491 3084 2119 3084 
Q 1678 3084 1418 2786 
Q 1159 2488 1159 1978 
L 1159 0 
L 581 0 
L 581 3500 
L 1159 3500 
L 1159 2956 
Q 1356 3278 1631 3431 
Q 1906 3584 2284 3584 
Q 2666 3584 2933 3390 
Q 3200 3197 3328 2828 
z
" id="DejaVuSans-6d" transform="scale(0.015625)"/>
       </defs>
       <use xlink:href="#DejaVuSans-31"/>
       <use x="63.623047" xlink:href="#DejaVuSans-35"/>
       <use x="127.246094" xlink:href="#DejaVuSans-6d"/>
      </g>
     </g>
    </g>
    <g id="xtick_2">
     <g id="line2d_2">
      <g>
       <use style="stroke:#000000;stroke-width:0.8;" x="127.442674" xlink:href="#m01692c98cf" y="288.430125"/>
      </g>
     </g>
     <g id="text_2">
      <!-- 4h:5m -->
      <g transform="translate(111.356736 303.028562)scale(0.1 -0.1)">
       <defs>
        <path d="M 2419 4116 
L 825 1625 
L 2419 1625 
L 2419 4116 
z
M 2253 4666 
L 3047 4666 
L 3047 1625 
L 3713 1625 
L 3713 1100 
L 3047 1100 
L 3047 0 
L 2419 0 
L 2419 1100 
L 313 1100 
L 313 1709 
L 2253 4666 
z
" id="DejaVuSans-34" transform="scale(0.015625)"/>
        <path d="M 3513 2113 
L 3513 0 
L 2938 0 
L 2938 2094 
Q 2938 2591 2744 2837 
Q 2550 3084 2163 3084 
Q 1697 3084 1428 2787 
Q 1159 2491 1159 1978 
L 1159 0 
L 581 0 
L 581 4863 
L 1159 4863 
L 1159 2956 
Q 1366 3272 1645 3428 
Q 1925 3584 2291 3584 
Q 2894 3584 3203 3211 
Q 3513 2838 3513 2113 
z
" id="DejaVuSans-68" transform="scale(0.015625)"/>
        <path d="M 750 794 
L 1409 794 
L 1409 0 
L 750 0 
L 750 794 
z
M 750 3309 
L 1409 3309 
L 1409 2516 
L 750 2516 
L 750 3309 
z
" id="DejaVuSans-3a" transform="scale(0.015625)"/>
       </defs>
       <use xlink:href="#DejaVuSans-34"/>
       <use x="63.623047" xlink:href="#DejaVuSans-68"/>
       <use x="127.001953" xlink:href="#DejaVuSans-3a"/>
       <use x="160.693359" xlink:href="#DejaVuSans-35"/>
       <use x="224.316406" xlink:href="#DejaVuSans-6d"/>
      </g>
     </g>
    </g>
    <g id="xtick_3">
     <g id="line2d_3">
      <g>
       <use style="stroke:#000000;stroke-width:0.8;" x="182.14637" xlink:href="#m01692c98cf" y="288.430125"/>
      </g>
     </g>
     <g id="text_3">
      <!-- 7h:55m -->
      <g transform="translate(162.879182 303.028562)scale(0.1 -0.1)">
       <defs>
        <path d="M 525 4666 
L 3525 4666 
L 3525 4397 
L 1831 0 
L 1172 0 
L 2766 4134 
L 525 4134 
L 525 4666 
z
" id="DejaVuSans-37" transform="scale(0.015625)"/>
       </defs>
       <use xlink:href="#DejaVuSans-37"/>
       <use x="63.623047" xlink:href="#DejaVuSans-68"/>
       <use x="127.001953" xlink:href="#DejaVuSans-3a"/>
       <use x="160.693359" xlink:href="#DejaVuSans-35"/>
       <use x="224.316406" xlink:href="#DejaVuSans-35"/>
       <use x="287.939453" xlink:href="#DejaVuSans-6d"/>
      </g>
     </g>
    </g>
    <g id="xtick_4">
     <g id="line2d_4">
      <g>
       <use style="stroke:#000000;stroke-width:0.8;" x="236.850066" xlink:href="#m01692c98cf" y="288.430125"/>
      </g>
     </g>
     <g id="text_4">
      <!-- 11h:45m -->
      <g transform="translate(214.401629 303.028562)scale(0.1 -0.1)">
       <use xlink:href="#DejaVuSans-31"/>
       <use x="63.623047" xlink:href="#DejaVuSans-31"/>
       <use x="127.246094" xlink:href="#DejaVuSans-68"/>
       <use x="190.625" xlink:href="#DejaVuSans-3a"/>
       <use x="224.316406" xlink:href="#DejaVuSans-34"/>
       <use x="287.939453" xlink:href="#DejaVuSans-35"/>
       <use x="351.5625" xlink:href="#DejaVuSans-6d"/>
      </g>
     </g>
    </g>
    <g id="xtick_5">
     <g id="line2d_5">
      <g>
       <use style="stroke:#000000;stroke-width:0.8;" x="291.553762" xlink:href="#m01692c98cf" y="288.430125"/>
      </g>
     </g>
     <g id="text_5">
      <!-- 15h:35m -->
      <g transform="translate(269.105325 303.028562)scale(0.1 -0.1)">
       <defs>
        <path d="M 2597 2516 
Q 3050 2419 3304 2112 
Q 3559 1806 3559 1356 
Q 3559 666 3084 287 
Q 2609 -91 1734 -91 
Q 1441 -91 1130 -33 
Q 819 25 488 141 
L 488 750 
Q 750 597 1062 519 
Q 1375 441 1716 441 
Q 2309 441 2620 675 
Q 2931 909 2931 1356 
Q 2931 1769 2642 2001 
Q 2353 2234 1838 2234 
L 1294 2234 
L 1294 2753 
L 1863 2753 
Q 2328 2753 2575 2939 
Q 2822 3125 2822 3475 
Q 2822 3834 2567 4026 
Q 2313 4219 1838 4219 
Q 1578 4219 1281 4162 
Q 984 4106 628 3988 
L 628 4550 
Q 988 4650 1302 4700 
Q 1616 4750 1894 4750 
Q 2613 4750 3031 4423 
Q 3450 4097 3450 3541 
Q 3450 3153 3228 2886 
Q 3006 2619 2597 2516 
z
" id="DejaVuSans-33" transform="scale(0.015625)"/>
       </defs>
       <use xlink:href="#DejaVuSans-31"/>
       <use x="63.623047" xlink:href="#DejaVuSans-35"/>
       <use x="127.246094" xlink:href="#DejaVuSans-68"/>
       <use x="190.625" xlink:href="#DejaVuSans-3a"/>
       <use x="224.316406" xlink:href="#DejaVuSans-33"/>
       <use x="287.939453" xlink:href="#DejaVuSans-35"/>
       <use x="351.5625" xlink:href="#DejaVuSans-6d"/>
      </g>
     </g>
    </g>
    <g id="xtick_6">
     <g id="line2d_6">
      <g>
       <use style="stroke:#000000;stroke-width:0.8;" x="346.257459" xlink:href="#m01692c98cf" y="288.430125"/>
      </g>
     </g>
     <g id="text_6">
      <!-- 19h:25m -->
      <g transform="translate(323.809021 303.028562)scale(0.1 -0.1)">
       <defs>
        <path d="M 703 97 
L 703 672 
Q 941 559 1184 500 
Q 1428 441 1663 441 
Q 2288 441 2617 861 
Q 2947 1281 2994 2138 
Q 2813 1869 2534 1725 
Q 2256 1581 1919 1581 
Q 1219 1581 811 2004 
Q 403 2428 403 3163 
Q 403 3881 828 4315 
Q 1253 4750 1959 4750 
Q 2769 4750 3195 4129 
Q 3622 3509 3622 2328 
Q 3622 1225 3098 567 
Q 2575 -91 1691 -91 
Q 1453 -91 1209 -44 
Q 966 3 703 97 
z
M 1959 2075 
Q 2384 2075 2632 2365 
Q 2881 2656 2881 3163 
Q 2881 3666 2632 3958 
Q 2384 4250 1959 4250 
Q 1534 4250 1286 3958 
Q 1038 3666 1038 3163 
Q 1038 2656 1286 2365 
Q 1534 2075 1959 2075 
z
" id="DejaVuSans-39" transform="scale(0.015625)"/>
        <path d="M 1228 531 
L 3431 531 
L 3431 0 
L 469 0 
L 469 531 
Q 828 903 1448 1529 
Q 2069 2156 2228 2338 
Q 2531 2678 2651 2914 
Q 2772 3150 2772 3378 
Q 2772 3750 2511 3984 
Q 2250 4219 1831 4219 
Q 1534 4219 1204 4116 
Q 875 4013 500 3803 
L 500 4441 
Q 881 4594 1212 4672 
Q 1544 4750 1819 4750 
Q 2544 4750 2975 4387 
Q 3406 4025 3406 3419 
Q 3406 3131 3298 2873 
Q 3191 2616 2906 2266 
Q 2828 2175 2409 1742 
Q 1991 1309 1228 531 
z
" id="DejaVuSans-32" transform="scale(0.015625)"/>
       </defs>
       <use xlink:href="#DejaVuSans-31"/>
       <use x="63.623047" xlink:href="#DejaVuSans-39"/>
       <use x="127.246094" xlink:href="#DejaVuSans-68"/>
       <use x="190.625" xlink:href="#DejaVuSans-3a"/>
       <use x="224.316406" xlink:href="#DejaVuSans-32"/>
       <use x="287.939453" xlink:href="#DejaVuSans-35"/>
       <use x="351.5625" xlink:href="#DejaVuSans-6d"/>
      </g>
     </g>
    </g>
    <g id="text_7">
     <!-- Time (hour:minute) -->
     <g transform="translate(186.659219 316.706687)scale(0.1 -0.1)">
      <defs>
       <path d="M -19 4666 
L 3928 4666 
L 3928 4134 
L 2272 4134 
L 2272 0 
L 1638 0 
L 1638 4134 
L -19 4134 
L -19 4666 
z
" id="DejaVuSans-54" transform="scale(0.015625)"/>
       <path d="M 603 3500 
L 1178 3500 
L 1178 0 
L 603 0 
L 603 3500 
z
M 603 4863 
L 1178 4863 
L 1178 4134 
L 603 4134 
L 603 4863 
z
" id="DejaVuSans-69" transform="scale(0.015625)"/>
       <path d="M 3597 1894 
L 3597 1613 
L 953 1613 
Q 991 1019 1311 708 
Q 1631 397 2203 397 
Q 2534 397 2845 478 
Q 3156 559 3463 722 
L 3463 178 
Q 3153 47 2828 -22 
Q 2503 -91 2169 -91 
Q 1331 -91 842 396 
Q 353 884 353 1716 
Q 353 2575 817 3079 
Q 1281 3584 2069 3584 
Q 2775 3584 3186 3129 
Q 3597 2675 3597 1894 
z
M 3022 2063 
Q 3016 2534 2758 2815 
Q 2500 3097 2075 3097 
Q 1594 3097 1305 2825 
Q 1016 2553 972 2059 
L 3022 2063 
z
" id="DejaVuSans-65" transform="scale(0.015625)"/>
       <path id="DejaVuSans-20" transform="scale(0.015625)"/>
       <path d="M 1984 4856 
Q 1566 4138 1362 3434 
Q 1159 2731 1159 2009 
Q 1159 1288 1364 580 
Q 1569 -128 1984 -844 
L 1484 -844 
Q 1016 -109 783 600 
Q 550 1309 550 2009 
Q 550 2706 781 3412 
Q 1013 4119 1484 4856 
L 1984 4856 
z
" id="DejaVuSans-28" transform="scale(0.015625)"/>
       <path d="M 1959 3097 
Q 1497 3097 1228 2736 
Q 959 2375 959 1747 
Q 959 1119 1226 758 
Q 1494 397 1959 397 
Q 2419 397 2687 759 
Q 2956 1122 2956 1747 
Q 2956 2369 2687 2733 
Q 2419 3097 1959 3097 
z
M 1959 3584 
Q 2709 3584 3137 3096 
Q 3566 2609 3566 1747 
Q 3566 888 3137 398 
Q 2709 -91 1959 -91 
Q 1206 -91 779 398 
Q 353 888 353 1747 
Q 353 2609 779 3096 
Q 1206 3584 1959 3584 
z
" id="DejaVuSans-6f" transform="scale(0.015625)"/>
       <path d="M 544 1381 
L 544 3500 
L 1119 3500 
L 1119 1403 
Q 1119 906 1312 657 
Q 1506 409 1894 409 
Q 2359 409 2629 706 
Q 2900 1003 2900 1516 
L 2900 3500 
L 3475 3500 
L 3475 0 
L 2900 0 
L 2900 538 
Q 2691 219 2414 64 
Q 2138 -91 1772 -91 
Q 1169 -91 856 284 
Q 544 659 544 1381 
z
M 1991 3584 
L 1991 3584 
z
" id="DejaVuSans-75" transform="scale(0.015625)"/>
       <path d="M 2631 2963 
Q 2534 3019 2420 3045 
Q 2306 3072 2169 3072 
Q 1681 3072 1420 2755 
Q 1159 2438 1159 1844 
L 1159 0 
L 581 0 
L 581 3500 
L 1159 3500 
L 1159 2956 
Q 1341 3275 1631 3429 
Q 1922 3584 2338 3584 
Q 2397 3584 2469 3576 
Q 2541 3569 2628 3553 
L 2631 2963 
z
" id="DejaVuSans-72" transform="scale(0.015625)"/>
       <path d="M 3513 2113 
L 3513 0 
L 2938 0 
L 2938 2094 
Q 2938 2591 2744 2837 
Q 2550 3084 2163 3084 
Q 1697 3084 1428 2787 
Q 1159 2491 1159 1978 
L 1159 0 
L 581 0 
L 581 3500 
L 1159 3500 
L 1159 2956 
Q 1366 3272 1645 3428 
Q 1925 3584 2291 3584 
Q 2894 3584 3203 3211 
Q 3513 2838 3513 2113 
z
" id="DejaVuSans-6e" transform="scale(0.015625)"/>
       <path d="M 1172 4494 
L 1172 3500 
L 2356 3500 
L 2356 3053 
L 1172 3053 
L 1172 1153 
Q 1172 725 1289 603 
Q 1406 481 1766 481 
L 2356 481 
L 2356 0 
L 1766 0 
Q 1100 0 847 248 
Q 594 497 594 1153 
L 594 3053 
L 172 3053 
L 172 3500 
L 594 3500 
L 594 4494 
L 1172 4494 
z
" id="DejaVuSans-74" transform="scale(0.015625)"/>
       <path d="M 513 4856 
L 1013 4856 
Q 1481 4119 1714 3412 
Q 1947 2706 1947 2009 
Q 1947 1309 1714 600 
Q 1481 -109 1013 -844 
L 513 -844 
Q 928 -128 1133 580 
Q 1338 1288 1338 2009 
Q 1338 2731 1133 3434 
Q 928 4138 513 4856 
z
" id="DejaVuSans-29" transform="scale(0.015625)"/>
      </defs>
      <use xlink:href="#DejaVuSans-54"/>
      <use x="57.958984" xlink:href="#DejaVuSans-69"/>
      <use x="85.742188" xlink:href="#DejaVuSans-6d"/>
      <use x="183.154297" xlink:href="#DejaVuSans-65"/>
      <use x="244.677734" xlink:href="#DejaVuSans-20"/>
      <use x="276.464844" xlink:href="#DejaVuSans-28"/>
      <use x="315.478516" xlink:href="#DejaVuSans-68"/>
      <use x="378.857422" xlink:href="#DejaVuSans-6f"/>
      <use x="440.039062" xlink:href="#DejaVuSans-75"/>
      <use x="503.417969" xlink:href="#DejaVuSans-72"/>
      <use x="542.78125" xlink:href="#DejaVuSans-3a"/>
      <use x="576.472656" xlink:href="#DejaVuSans-6d"/>
      <use x="673.884766" xlink:href="#DejaVuSans-69"/>
      <use x="701.667969" xlink:href="#DejaVuSans-6e"/>
      <use x="765.046875" xlink:href="#DejaVuSans-75"/>
      <use x="828.425781" xlink:href="#DejaVuSans-74"/>
      <use x="867.634766" xlink:href="#DejaVuSans-65"/>
      <use x="929.158203" xlink:href="#DejaVuSans-29"/>
     </g>
    </g>
   </g>
   <g id="matplotlib.axis_2">
    <g id="ytick_1">
     <g id="line2d_7">
      <defs>
       <path d="M 0 0 
L -3.5 0 
" id="m9aba4efe06" style="stroke:#000000;stroke-width:0.8;"/>
      </defs>
      <g>
       <use style="stroke:#000000;stroke-width:0.8;" x="56.50625" xlink:href="#m9aba4efe06" y="276.334125"/>
      </g>
     </g>
     <g id="text_8">
      <!-- 131.0 -->
      <g transform="translate(20.878125 280.133344)scale(0.1 -0.1)">
       <defs>
        <path d="M 684 794 
L 1344 794 
L 1344 0 
L 684 0 
L 684 794 
z
" id="DejaVuSans-2e" transform="scale(0.015625)"/>
        <path d="M 2034 4250 
Q 1547 4250 1301 3770 
Q 1056 3291 1056 2328 
Q 1056 1369 1301 889 
Q 1547 409 2034 409 
Q 2525 409 2770 889 
Q 3016 1369 3016 2328 
Q 3016 3291 2770 3770 
Q 2525 4250 2034 4250 
z
M 2034 4750 
Q 2819 4750 3233 4129 
Q 3647 3509 3647 2328 
Q 3647 1150 3233 529 
Q 2819 -91 2034 -91 
Q 1250 -91 836 529 
Q 422 1150 422 2328 
Q 422 3509 836 4129 
Q 1250 4750 2034 4750 
z
" id="DejaVuSans-30" transform="scale(0.015625)"/>
       </defs>
       <use xlink:href="#DejaVuSans-31"/>
       <use x="63.623047" xlink:href="#DejaVuSans-33"/>
       <use x="127.246094" xlink:href="#DejaVuSans-31"/>
       <use x="190.869141" xlink:href="#DejaVuSans-2e"/>
       <use x="222.65625" xlink:href="#DejaVuSans-30"/>
      </g>
     </g>
    </g>
    <g id="ytick_2">
     <g id="line2d_8">
      <g>
       <use style="stroke:#000000;stroke-width:0.8;" x="56.50625" xlink:href="#m9aba4efe06" y="227.950125"/>
      </g>
     </g>
     <g id="text_9">
      <!-- 131.2 -->
      <g transform="translate(20.878125 231.749344)scale(0.1 -0.1)">
       <use xlink:href="#DejaVuSans-31"/>
       <use x="63.623047" xlink:href="#DejaVuSans-33"/>
       <use x="127.246094" xlink:href="#DejaVuSans-31"/>
       <use x="190.869141" xlink:href="#DejaVuSans-2e"/>
       <use x="222.65625" xlink:href="#DejaVuSans-32"/>
      </g>
     </g>
    </g>
    <g id="ytick_3">
     <g id="line2d_9">
      <g>
       <use style="stroke:#000000;stroke-width:0.8;" x="56.50625" xlink:href="#m9aba4efe06" y="179.566125"/>
      </g>
     </g>
     <g id="text_10">
      <!-- 131.4 -->
      <g transform="translate(20.878125 183.365344)scale(0.1 -0.1)">
       <use xlink:href="#DejaVuSans-31"/>
       <use x="63.623047" xlink:href="#DejaVuSans-33"/>
       <use x="127.246094" xlink:href="#DejaVuSans-31"/>
       <use x="190.869141" xlink:href="#DejaVuSans-2e"/>
       <use x="222.65625" xlink:href="#DejaVuSans-34"/>
      </g>
     </g>
    </g>
    <g id="ytick_4">
     <g id="line2d_10">
      <g>
       <use style="stroke:#000000;stroke-width:0.8;" x="56.50625" xlink:href="#m9aba4efe06" y="131.182125"/>
      </g>
     </g>
     <g id="text_11">
      <!-- 131.6 -->
      <g transform="translate(20.878125 134.981344)scale(0.1 -0.1)">
       <defs>
        <path d="M 2113 2584 
Q 1688 2584 1439 2293 
Q 1191 2003 1191 1497 
Q 1191 994 1439 701 
Q 1688 409 2113 409 
Q 2538 409 2786 701 
Q 3034 994 3034 1497 
Q 3034 2003 2786 2293 
Q 2538 2584 2113 2584 
z
M 3366 4563 
L 3366 3988 
Q 3128 4100 2886 4159 
Q 2644 4219 2406 4219 
Q 1781 4219 1451 3797 
Q 1122 3375 1075 2522 
Q 1259 2794 1537 2939 
Q 1816 3084 2150 3084 
Q 2853 3084 3261 2657 
Q 3669 2231 3669 1497 
Q 3669 778 3244 343 
Q 2819 -91 2113 -91 
Q 1303 -91 875 529 
Q 447 1150 447 2328 
Q 447 3434 972 4092 
Q 1497 4750 2381 4750 
Q 2619 4750 2861 4703 
Q 3103 4656 3366 4563 
z
" id="DejaVuSans-36" transform="scale(0.015625)"/>
       </defs>
       <use xlink:href="#DejaVuSans-31"/>
       <use x="63.623047" xlink:href="#DejaVuSans-33"/>
       <use x="127.246094" xlink:href="#DejaVuSans-31"/>
       <use x="190.869141" xlink:href="#DejaVuSans-2e"/>
       <use x="222.65625" xlink:href="#DejaVuSans-36"/>
      </g>
     </g>
    </g>
    <g id="ytick_5">
     <g id="line2d_11">
      <g>
       <use style="stroke:#000000;stroke-width:0.8;" x="56.50625" xlink:href="#m9aba4efe06" y="82.798125"/>
      </g>
     </g>
     <g id="text_12">
      <!-- 131.8 -->
      <g transform="translate(20.878125 86.597344)scale(0.1 -0.1)">
       <defs>
        <path d="M 2034 2216 
Q 1584 2216 1326 1975 
Q 1069 1734 1069 1313 
Q 1069 891 1326 650 
Q 1584 409 2034 409 
Q 2484 409 2743 651 
Q 3003 894 3003 1313 
Q 3003 1734 2745 1975 
Q 2488 2216 2034 2216 
z
M 1403 2484 
Q 997 2584 770 2862 
Q 544 3141 544 3541 
Q 544 4100 942 4425 
Q 1341 4750 2034 4750 
Q 2731 4750 3128 4425 
Q 3525 4100 3525 3541 
Q 3525 3141 3298 2862 
Q 3072 2584 2669 2484 
Q 3125 2378 3379 2068 
Q 3634 1759 3634 1313 
Q 3634 634 3220 271 
Q 2806 -91 2034 -91 
Q 1263 -91 848 271 
Q 434 634 434 1313 
Q 434 1759 690 2068 
Q 947 2378 1403 2484 
z
M 1172 3481 
Q 1172 3119 1398 2916 
Q 1625 2713 2034 2713 
Q 2441 2713 2670 2916 
Q 2900 3119 2900 3481 
Q 2900 3844 2670 4047 
Q 2441 4250 2034 4250 
Q 1625 4250 1398 4047 
Q 1172 3844 1172 3481 
z
" id="DejaVuSans-38" transform="scale(0.015625)"/>
       </defs>
       <use xlink:href="#DejaVuSans-31"/>
       <use x="63.623047" xlink:href="#DejaVuSans-33"/>
       <use x="127.246094" xlink:href="#DejaVuSans-31"/>
       <use x="190.869141" xlink:href="#DejaVuSans-2e"/>
       <use x="222.65625" xlink:href="#DejaVuSans-38"/>
      </g>
     </g>
    </g>
    <g id="ytick_6">
     <g id="line2d_12">
      <g>
       <use style="stroke:#000000;stroke-width:0.8;" x="56.50625" xlink:href="#m9aba4efe06" y="34.414125"/>
      </g>
     </g>
     <g id="text_13">
      <!-- 132.0 -->
      <g transform="translate(20.878125 38.213344)scale(0.1 -0.1)">
       <use xlink:href="#DejaVuSans-31"/>
       <use x="63.623047" xlink:href="#DejaVuSans-33"/>
       <use x="127.246094" xlink:href="#DejaVuSans-32"/>
       <use x="190.869141" xlink:href="#DejaVuSans-2e"/>
       <use x="222.65625" xlink:href="#DejaVuSans-30"/>
      </g>
     </g>
    </g>
    <g id="text_14">
     <!-- Code region coverage -->
     <g transform="translate(14.798438 210.379594)rotate(-90)scale(0.1 -0.1)">
      <defs>
       <path d="M 4122 4306 
L 4122 3641 
Q 3803 3938 3442 4084 
Q 3081 4231 2675 4231 
Q 1875 4231 1450 3742 
Q 1025 3253 1025 2328 
Q 1025 1406 1450 917 
Q 1875 428 2675 428 
Q 3081 428 3442 575 
Q 3803 722 4122 1019 
L 4122 359 
Q 3791 134 3420 21 
Q 3050 -91 2638 -91 
Q 1578 -91 968 557 
Q 359 1206 359 2328 
Q 359 3453 968 4101 
Q 1578 4750 2638 4750 
Q 3056 4750 3426 4639 
Q 3797 4528 4122 4306 
z
" id="DejaVuSans-43" transform="scale(0.015625)"/>
       <path d="M 2906 2969 
L 2906 4863 
L 3481 4863 
L 3481 0 
L 2906 0 
L 2906 525 
Q 2725 213 2448 61 
Q 2172 -91 1784 -91 
Q 1150 -91 751 415 
Q 353 922 353 1747 
Q 353 2572 751 3078 
Q 1150 3584 1784 3584 
Q 2172 3584 2448 3432 
Q 2725 3281 2906 2969 
z
M 947 1747 
Q 947 1113 1208 752 
Q 1469 391 1925 391 
Q 2381 391 2643 752 
Q 2906 1113 2906 1747 
Q 2906 2381 2643 2742 
Q 2381 3103 1925 3103 
Q 1469 3103 1208 2742 
Q 947 2381 947 1747 
z
" id="DejaVuSans-64" transform="scale(0.015625)"/>
       <path d="M 2906 1791 
Q 2906 2416 2648 2759 
Q 2391 3103 1925 3103 
Q 1463 3103 1205 2759 
Q 947 2416 947 1791 
Q 947 1169 1205 825 
Q 1463 481 1925 481 
Q 2391 481 2648 825 
Q 2906 1169 2906 1791 
z
M 3481 434 
Q 3481 -459 3084 -895 
Q 2688 -1331 1869 -1331 
Q 1566 -1331 1297 -1286 
Q 1028 -1241 775 -1147 
L 775 -588 
Q 1028 -725 1275 -790 
Q 1522 -856 1778 -856 
Q 2344 -856 2625 -561 
Q 2906 -266 2906 331 
L 2906 616 
Q 2728 306 2450 153 
Q 2172 0 1784 0 
Q 1141 0 747 490 
Q 353 981 353 1791 
Q 353 2603 747 3093 
Q 1141 3584 1784 3584 
Q 2172 3584 2450 3431 
Q 2728 3278 2906 2969 
L 2906 3500 
L 3481 3500 
L 3481 434 
z
" id="DejaVuSans-67" transform="scale(0.015625)"/>
       <path d="M 3122 3366 
L 3122 2828 
Q 2878 2963 2633 3030 
Q 2388 3097 2138 3097 
Q 1578 3097 1268 2742 
Q 959 2388 959 1747 
Q 959 1106 1268 751 
Q 1578 397 2138 397 
Q 2388 397 2633 464 
Q 2878 531 3122 666 
L 3122 134 
Q 2881 22 2623 -34 
Q 2366 -91 2075 -91 
Q 1284 -91 818 406 
Q 353 903 353 1747 
Q 353 2603 823 3093 
Q 1294 3584 2113 3584 
Q 2378 3584 2631 3529 
Q 2884 3475 3122 3366 
z
" id="DejaVuSans-63" transform="scale(0.015625)"/>
       <path d="M 191 3500 
L 800 3500 
L 1894 563 
L 2988 3500 
L 3597 3500 
L 2284 0 
L 1503 0 
L 191 3500 
z
" id="DejaVuSans-76" transform="scale(0.015625)"/>
       <path d="M 2194 1759 
Q 1497 1759 1228 1600 
Q 959 1441 959 1056 
Q 959 750 1161 570 
Q 1363 391 1709 391 
Q 2188 391 2477 730 
Q 2766 1069 2766 1631 
L 2766 1759 
L 2194 1759 
z
M 3341 1997 
L 3341 0 
L 2766 0 
L 2766 531 
Q 2569 213 2275 61 
Q 1981 -91 1556 -91 
Q 1019 -91 701 211 
Q 384 513 384 1019 
Q 384 1609 779 1909 
Q 1175 2209 1959 2209 
L 2766 2209 
L 2766 2266 
Q 2766 2663 2505 2880 
Q 2244 3097 1772 3097 
Q 1472 3097 1187 3025 
Q 903 2953 641 2809 
L 641 3341 
Q 956 3463 1253 3523 
Q 1550 3584 1831 3584 
Q 2591 3584 2966 3190 
Q 3341 2797 3341 1997 
z
" id="DejaVuSans-61" transform="scale(0.015625)"/>
      </defs>
      <use xlink:href="#DejaVuSans-43"/>
      <use x="69.824219" xlink:href="#DejaVuSans-6f"/>
      <use x="131.005859" xlink:href="#DejaVuSans-64"/>
      <use x="194.482422" xlink:href="#DejaVuSans-65"/>
      <use x="256.005859" xlink:href="#DejaVuSans-20"/>
      <use x="287.792969" xlink:href="#DejaVuSans-72"/>
      <use x="326.65625" xlink:href="#DejaVuSans-65"/>
      <use x="388.179688" xlink:href="#DejaVuSans-67"/>
      <use x="451.65625" xlink:href="#DejaVuSans-69"/>
      <use x="479.439453" xlink:href="#DejaVuSans-6f"/>
      <use x="540.621094" xlink:href="#DejaVuSans-6e"/>
      <use x="604" xlink:href="#DejaVuSans-20"/>
      <use x="635.787109" xlink:href="#DejaVuSans-63"/>
      <use x="690.767578" xlink:href="#DejaVuSans-6f"/>
      <use x="751.949219" xlink:href="#DejaVuSans-76"/>
      <use x="811.128906" xlink:href="#DejaVuSans-65"/>
      <use x="872.652344" xlink:href="#DejaVuSans-72"/>
      <use x="913.765625" xlink:href="#DejaVuSans-61"/>
      <use x="975.044922" xlink:href="#DejaVuSans-67"/>
      <use x="1038.521484" xlink:href="#DejaVuSans-65"/>
     </g>
    </g>
   </g>
   <g id="line2d_13">
    <path clip-path="url(#p6e383249a3)" d="M 72.738977 34.414125 
L 76.30661 34.414125 
L 79.874242 34.414125 
L 83.441874 34.414125 
L 87.009507 34.414125 
L 90.577139 34.414125 
L 94.144771 34.414125 
L 97.712404 34.414125 
L 101.280036 34.414125 
L 104.847669 34.414125 
L 108.415301 34.414125 
L 111.982933 34.414125 
L 115.550566 34.414125 
L 119.118198 34.414125 
L 122.68583 34.414125 
L 126.253463 34.414125 
L 129.821095 34.414125 
L 133.388728 34.414125 
L 136.95636 34.414125 
L 140.523992 34.414125 
L 144.091625 34.414125 
L 147.659257 34.414125 
L 151.226889 34.414125 
L 154.794522 34.414125 
L 158.362154 34.414125 
L 161.929786 34.414125 
L 165.497419 34.414125 
L 169.065051 34.414125 
L 172.632684 34.414125 
L 176.200316 34.414125 
L 179.767948 34.414125 
L 183.335581 34.414125 
L 186.903213 34.414125 
L 190.470845 34.414125 
L 194.038478 34.414125 
L 197.60611 34.414125 
L 201.173743 34.414125 
L 204.741375 34.414125 
L 208.309007 34.414125 
L 211.87664 34.414125 
L 215.444272 34.414125 
L 219.011904 34.414125 
L 222.579537 34.414125 
L 226.147169 34.414125 
L 229.714801 34.414125 
L 233.282434 34.414125 
L 236.850066 34.414125 
L 240.417699 34.414125 
L 243.985331 34.414125 
L 247.552963 34.414125 
L 251.120596 34.414125 
L 254.688228 34.414125 
L 258.25586 34.414125 
L 261.823493 34.414125 
L 265.391125 34.414125 
L 268.958757 34.414125 
L 272.52639 34.414125 
L 276.094022 34.414125 
L 279.661655 34.414125 
L 283.229287 34.414125 
L 286.796919 34.414125 
L 290.364552 34.414125 
L 293.932184 34.414125 
L 297.499816 34.414125 
L 301.067449 34.414125 
L 304.635081 34.414125 
L 308.202714 34.414125 
L 311.770346 34.414125 
L 315.337978 34.414125 
L 318.905611 34.414125 
L 322.473243 34.414125 
L 326.040875 34.414125 
L 329.608508 34.414125 
L 333.17614 34.414125 
L 336.743772 34.414125 
L 340.311405 34.414125 
L 343.879037 34.414125 
L 347.44667 34.414125 
L 351.014302 34.414125 
L 354.581934 34.414125 
L 358.149567 34.414125 
L 361.717199 34.414125 
L 365.284831 34.414125 
L 368.852464 34.414125 
L 372.420096 34.414125 
L 375.987729 34.414125 
L 379.555361 34.414125 
L 383.122993 34.414125 
L 386.690626 34.414125 
L 390.258258 34.414125 
L 393.82589 34.414125 
L 397.393523 34.414125 
" style="fill:none;stroke:#1f77b4;stroke-linecap:square;stroke-width:1.5;"/>
    <defs>
     <path d="M 0 3 
C 0.795609 3 1.55874 2.683901 2.12132 2.12132 
C 2.683901 1.55874 3 0.795609 3 0 
C 3 -0.795609 2.683901 -1.55874 2.12132 -2.12132 
C 1.55874 -2.683901 0.795609 -3 0 -3 
C -0.795609 -3 -1.55874 -2.683901 -2.12132 -2.12132 
C -2.683901 -1.55874 -3 -0.795609 -3 0 
C -3 0.795609 -2.683901 1.55874 -2.12132 2.12132 
C -1.55874 2.683901 -0.795609 3 0 3 
z
" id="m77ac162db6" style="stroke:#ffffff;stroke-width:0.75;"/>
    </defs>
    <g clip-path="url(#p6e383249a3)">
     <use style="fill:#1f77b4;stroke:#ffffff;stroke-width:0.75;" x="72.738977" xlink:href="#m77ac162db6" y="34.414125"/>
     <use style="fill:#1f77b4;stroke:#ffffff;stroke-width:0.75;" x="76.30661" xlink:href="#m77ac162db6" y="34.414125"/>
     <use style="fill:#1f77b4;stroke:#ffffff;stroke-width:0.75;" x="79.874242" xlink:href="#m77ac162db6" y="34.414125"/>
     <use style="fill:#1f77b4;stroke:#ffffff;stroke-width:0.75;" x="83.441874" xlink:href="#m77ac162db6" y="34.414125"/>
     <use style="fill:#1f77b4;stroke:#ffffff;stroke-width:0.75;" x="87.009507" xlink:href="#m77ac162db6" y="34.414125"/>
     <use style="fill:#1f77b4;stroke:#ffffff;stroke-width:0.75;" x="90.577139" xlink:href="#m77ac162db6" y="34.414125"/>
     <use style="fill:#1f77b4;stroke:#ffffff;stroke-width:0.75;" x="94.144771" xlink:href="#m77ac162db6" y="34.414125"/>
     <use style="fill:#1f77b4;stroke:#ffffff;stroke-width:0.75;" x="97.712404" xlink:href="#m77ac162db6" y="34.414125"/>
     <use style="fill:#1f77b4;stroke:#ffffff;stroke-width:0.75;" x="101.280036" xlink:href="#m77ac162db6" y="34.414125"/>
     <use style="fill:#1f77b4;stroke:#ffffff;stroke-width:0.75;" x="104.847669" xlink:href="#m77ac162db6" y="34.414125"/>
     <use style="fill:#1f77b4;stroke:#ffffff;stroke-width:0.75;" x="108.415301" xlink:href="#m77ac162db6" y="34.414125"/>
     <use style="fill:#1f77b4;stroke:#ffffff;stroke-width:0.75;" x="111.982933" xlink:href="#m77ac162db6" y="34.414125"/>
     <use style="fill:#1f77b4;stroke:#ffffff;stroke-width:0.75;" x="115.550566" xlink:href="#m77ac162db6" y="34.414125"/>
     <use style="fill:#1f77b4;stroke:#ffffff;stroke-width:0.75;" x="119.118198" xlink:href="#m77ac162db6" y="34.414125"/>
     <use style="fill:#1f77b4;stroke:#ffffff;stroke-width:0.75;" x="122.68583" xlink:href="#m77ac162db6" y="34.414125"/>
     <use style="fill:#1f77b4;stroke:#ffffff;stroke-width:0.75;" x="126.253463" xlink:href="#m77ac162db6" y="34.414125"/>
     <use style="fill:#1f77b4;stroke:#ffffff;stroke-width:0.75;" x="129.821095" xlink:href="#m77ac162db6" y="34.414125"/>
     <use style="fill:#1f77b4;stroke:#ffffff;stroke-width:0.75;" x="133.388728" xlink:href="#m77ac162db6" y="34.414125"/>
     <use style="fill:#1f77b4;stroke:#ffffff;stroke-width:0.75;" x="136.95636" xlink:href="#m77ac162db6" y="34.414125"/>
     <use style="fill:#1f77b4;stroke:#ffffff;stroke-width:0.75;" x="140.523992" xlink:href="#m77ac162db6" y="34.414125"/>
     <use style="fill:#1f77b4;stroke:#ffffff;stroke-width:0.75;" x="144.091625" xlink:href="#m77ac162db6" y="34.414125"/>
     <use style="fill:#1f77b4;stroke:#ffffff;stroke-width:0.75;" x="147.659257" xlink:href="#m77ac162db6" y="34.414125"/>
     <use style="fill:#1f77b4;stroke:#ffffff;stroke-width:0.75;" x="151.226889" xlink:href="#m77ac162db6" y="34.414125"/>
     <use style="fill:#1f77b4;stroke:#ffffff;stroke-width:0.75;" x="154.794522" xlink:href="#m77ac162db6" y="34.414125"/>
     <use style="fill:#1f77b4;stroke:#ffffff;stroke-width:0.75;" x="158.362154" xlink:href="#m77ac162db6" y="34.414125"/>
     <use style="fill:#1f77b4;stroke:#ffffff;stroke-width:0.75;" x="161.929786" xlink:href="#m77ac162db6" y="34.414125"/>
     <use style="fill:#1f77b4;stroke:#ffffff;stroke-width:0.75;" x="165.497419" xlink:href="#m77ac162db6" y="34.414125"/>
     <use style="fill:#1f77b4;stroke:#ffffff;stroke-width:0.75;" x="169.065051" xlink:href="#m77ac162db6" y="34.414125"/>
     <use style="fill:#1f77b4;stroke:#ffffff;stroke-width:0.75;" x="172.632684" xlink:href="#m77ac162db6" y="34.414125"/>
     <use style="fill:#1f77b4;stroke:#ffffff;stroke-width:0.75;" x="176.200316" xlink:href="#m77ac162db6" y="34.414125"/>
     <use style="fill:#1f77b4;stroke:#ffffff;stroke-width:0.75;" x="179.767948" xlink:href="#m77ac162db6" y="34.414125"/>
     <use style="fill:#1f77b4;stroke:#ffffff;stroke-width:0.75;" x="183.335581" xlink:href="#m77ac162db6" y="34.414125"/>
     <use style="fill:#1f77b4;stroke:#ffffff;stroke-width:0.75;" x="186.903213" xlink:href="#m77ac162db6" y="34.414125"/>
     <use style="fill:#1f77b4;stroke:#ffffff;stroke-width:0.75;" x="190.470845" xlink:href="#m77ac162db6" y="34.414125"/>
     <use style="fill:#1f77b4;stroke:#ffffff;stroke-width:0.75;" x="194.038478" xlink:href="#m77ac162db6" y="34.414125"/>
     <use style="fill:#1f77b4;stroke:#ffffff;stroke-width:0.75;" x="197.60611" xlink:href="#m77ac162db6" y="34.414125"/>
     <use style="fill:#1f77b4;stroke:#ffffff;stroke-width:0.75;" x="201.173743" xlink:href="#m77ac162db6" y="34.414125"/>
     <use style="fill:#1f77b4;stroke:#ffffff;stroke-width:0.75;" x="204.741375" xlink:href="#m77ac162db6" y="34.414125"/>
     <use style="fill:#1f77b4;stroke:#ffffff;stroke-width:0.75;" x="208.309007" xlink:href="#m77ac162db6" y="34.414125"/>
     <use style="fill:#1f77b4;stroke:#ffffff;stroke-width:0.75;" x="211.87664" xlink:href="#m77ac162db6" y="34.414125"/>
     <use style="fill:#1f77b4;stroke:#ffffff;stroke-width:0.75;" x="215.444272" xlink:href="#m77ac162db6" y="34.414125"/>
     <use style="fill:#1f77b4;stroke:#ffffff;stroke-width:0.75;" x="219.011904" xlink:href="#m77ac162db6" y="34.414125"/>
     <use style="fill:#1f77b4;stroke:#ffffff;stroke-width:0.75;" x="222.579537" xlink:href="#m77ac162db6" y="34.414125"/>
     <use style="fill:#1f77b4;stroke:#ffffff;stroke-width:0.75;" x="226.147169" xlink:href="#m77ac162db6" y="34.414125"/>
     <use style="fill:#1f77b4;stroke:#ffffff;stroke-width:0.75;" x="229.714801" xlink:href="#m77ac162db6" y="34.414125"/>
     <use style="fill:#1f77b4;stroke:#ffffff;stroke-width:0.75;" x="233.282434" xlink:href="#m77ac162db6" y="34.414125"/>
     <use style="fill:#1f77b4;stroke:#ffffff;stroke-width:0.75;" x="236.850066" xlink:href="#m77ac162db6" y="34.414125"/>
     <use style="fill:#1f77b4;stroke:#ffffff;stroke-width:0.75;" x="240.417699" xlink:href="#m77ac162db6" y="34.414125"/>
     <use style="fill:#1f77b4;stroke:#ffffff;stroke-width:0.75;" x="243.985331" xlink:href="#m77ac162db6" y="34.414125"/>
     <use style="fill:#1f77b4;stroke:#ffffff;stroke-width:0.75;" x="247.552963" xlink:href="#m77ac162db6" y="34.414125"/>
     <use style="fill:#1f77b4;stroke:#ffffff;stroke-width:0.75;" x="251.120596" xlink:href="#m77ac162db6" y="34.414125"/>
     <use style="fill:#1f77b4;stroke:#ffffff;stroke-width:0.75;" x="254.688228" xlink:href="#m77ac162db6" y="34.414125"/>
     <use style="fill:#1f77b4;stroke:#ffffff;stroke-width:0.75;" x="258.25586" xlink:href="#m77ac162db6" y="34.414125"/>
     <use style="fill:#1f77b4;stroke:#ffffff;stroke-width:0.75;" x="261.823493" xlink:href="#m77ac162db6" y="34.414125"/>
     <use style="fill:#1f77b4;stroke:#ffffff;stroke-width:0.75;" x="265.391125" xlink:href="#m77ac162db6" y="34.414125"/>
     <use style="fill:#1f77b4;stroke:#ffffff;stroke-width:0.75;" x="268.958757" xlink:href="#m77ac162db6" y="34.414125"/>
     <use style="fill:#1f77b4;stroke:#ffffff;stroke-width:0.75;" x="272.52639" xlink:href="#m77ac162db6" y="34.414125"/>
     <use style="fill:#1f77b4;stroke:#ffffff;stroke-width:0.75;" x="276.094022" xlink:href="#m77ac162db6" y="34.414125"/>
     <use style="fill:#1f77b4;stroke:#ffffff;stroke-width:0.75;" x="279.661655" xlink:href="#m77ac162db6" y="34.414125"/>
     <use style="fill:#1f77b4;stroke:#ffffff;stroke-width:0.75;" x="283.229287" xlink:href="#m77ac162db6" y="34.414125"/>
     <use style="fill:#1f77b4;stroke:#ffffff;stroke-width:0.75;" x="286.796919" xlink:href="#m77ac162db6" y="34.414125"/>
     <use style="fill:#1f77b4;stroke:#ffffff;stroke-width:0.75;" x="290.364552" xlink:href="#m77ac162db6" y="34.414125"/>
     <use style="fill:#1f77b4;stroke:#ffffff;stroke-width:0.75;" x="293.932184" xlink:href="#m77ac162db6" y="34.414125"/>
     <use style="fill:#1f77b4;stroke:#ffffff;stroke-width:0.75;" x="297.499816" xlink:href="#m77ac162db6" y="34.414125"/>
     <use style="fill:#1f77b4;stroke:#ffffff;stroke-width:0.75;" x="301.067449" xlink:href="#m77ac162db6" y="34.414125"/>
     <use style="fill:#1f77b4;stroke:#ffffff;stroke-width:0.75;" x="304.635081" xlink:href="#m77ac162db6" y="34.414125"/>
     <use style="fill:#1f77b4;stroke:#ffffff;stroke-width:0.75;" x="308.202714" xlink:href="#m77ac162db6" y="34.414125"/>
     <use style="fill:#1f77b4;stroke:#ffffff;stroke-width:0.75;" x="311.770346" xlink:href="#m77ac162db6" y="34.414125"/>
     <use style="fill:#1f77b4;stroke:#ffffff;stroke-width:0.75;" x="315.337978" xlink:href="#m77ac162db6" y="34.414125"/>
     <use style="fill:#1f77b4;stroke:#ffffff;stroke-width:0.75;" x="318.905611" xlink:href="#m77ac162db6" y="34.414125"/>
     <use style="fill:#1f77b4;stroke:#ffffff;stroke-width:0.75;" x="322.473243" xlink:href="#m77ac162db6" y="34.414125"/>
     <use style="fill:#1f77b4;stroke:#ffffff;stroke-width:0.75;" x="326.040875" xlink:href="#m77ac162db6" y="34.414125"/>
     <use style="fill:#1f77b4;stroke:#ffffff;stroke-width:0.75;" x="329.608508" xlink:href="#m77ac162db6" y="34.414125"/>
     <use style="fill:#1f77b4;stroke:#ffffff;stroke-width:0.75;" x="333.17614" xlink:href="#m77ac162db6" y="34.414125"/>
     <use style="fill:#1f77b4;stroke:#ffffff;stroke-width:0.75;" x="336.743772" xlink:href="#m77ac162db6" y="34.414125"/>
     <use style="fill:#1f77b4;stroke:#ffffff;stroke-width:0.75;" x="340.311405" xlink:href="#m77ac162db6" y="34.414125"/>
     <use style="fill:#1f77b4;stroke:#ffffff;stroke-width:0.75;" x="343.879037" xlink:href="#m77ac162db6" y="34.414125"/>
     <use style="fill:#1f77b4;stroke:#ffffff;stroke-width:0.75;" x="347.44667" xlink:href="#m77ac162db6" y="34.414125"/>
     <use style="fill:#1f77b4;stroke:#ffffff;stroke-width:0.75;" x="351.014302" xlink:href="#m77ac162db6" y="34.414125"/>
     <use style="fill:#1f77b4;stroke:#ffffff;stroke-width:0.75;" x="354.581934" xlink:href="#m77ac162db6" y="34.414125"/>
     <use style="fill:#1f77b4;stroke:#ffffff;stroke-width:0.75;" x="358.149567" xlink:href="#m77ac162db6" y="34.414125"/>
     <use style="fill:#1f77b4;stroke:#ffffff;stroke-width:0.75;" x="361.717199" xlink:href="#m77ac162db6" y="34.414125"/>
     <use style="fill:#1f77b4;stroke:#ffffff;stroke-width:0.75;" x="365.284831" xlink:href="#m77ac162db6" y="34.414125"/>
     <use style="fill:#1f77b4;stroke:#ffffff;stroke-width:0.75;" x="368.852464" xlink:href="#m77ac162db6" y="34.414125"/>
     <use style="fill:#1f77b4;stroke:#ffffff;stroke-width:0.75;" x="372.420096" xlink:href="#m77ac162db6" y="34.414125"/>
     <use style="fill:#1f77b4;stroke:#ffffff;stroke-width:0.75;" x="375.987729" xlink:href="#m77ac162db6" y="34.414125"/>
     <use style="fill:#1f77b4;stroke:#ffffff;stroke-width:0.75;" x="379.555361" xlink:href="#m77ac162db6" y="34.414125"/>
     <use style="fill:#1f77b4;stroke:#ffffff;stroke-width:0.75;" x="383.122993" xlink:href="#m77ac162db6" y="34.414125"/>
     <use style="fill:#1f77b4;stroke:#ffffff;stroke-width:0.75;" x="386.690626" xlink:href="#m77ac162db6" y="34.414125"/>
     <use style="fill:#1f77b4;stroke:#ffffff;stroke-width:0.75;" x="390.258258" xlink:href="#m77ac162db6" y="34.414125"/>
     <use style="fill:#1f77b4;stroke:#ffffff;stroke-width:0.75;" x="393.82589" xlink:href="#m77ac162db6" y="34.414125"/>
     <use style="fill:#1f77b4;stroke:#ffffff;stroke-width:0.75;" x="397.393523" xlink:href="#m77ac162db6" y="34.414125"/>
    </g>
   </g>
   <g id="line2d_14">
    <path clip-path="url(#p6e383249a3)" d="M 72.738977 276.334125 
L 76.30661 276.334125 
L 79.874242 276.334125 
L 83.441874 276.334125 
L 87.009507 276.334125 
L 90.577139 276.334125 
L 94.144771 276.334125 
L 97.712404 276.334125 
L 101.280036 276.334125 
L 104.847669 276.334125 
L 108.415301 276.334125 
L 111.982933 276.334125 
L 115.550566 276.334125 
L 119.118198 276.334125 
L 122.68583 276.334125 
L 126.253463 276.334125 
L 129.821095 276.334125 
L 133.388728 276.334125 
L 136.95636 276.334125 
L 140.523992 276.334125 
L 144.091625 276.334125 
L 147.659257 276.334125 
L 151.226889 276.334125 
L 154.794522 276.334125 
L 158.362154 276.334125 
L 161.929786 276.334125 
L 165.497419 276.334125 
L 169.065051 276.334125 
L 172.632684 276.334125 
L 176.200316 276.334125 
L 179.767948 276.334125 
L 183.335581 276.334125 
L 186.903213 276.334125 
L 190.470845 276.334125 
L 194.038478 276.334125 
L 197.60611 276.334125 
L 201.173743 276.334125 
L 204.741375 276.334125 
L 208.309007 276.334125 
L 211.87664 276.334125 
L 215.444272 276.334125 
L 219.011904 276.334125 
L 222.579537 276.334125 
L 226.147169 276.334125 
L 229.714801 276.334125 
L 233.282434 276.334125 
L 236.850066 276.334125 
L 240.417699 276.334125 
L 243.985331 276.334125 
L 247.552963 276.334125 
L 251.120596 276.334125 
L 254.688228 276.334125 
L 258.25586 276.334125 
L 261.823493 276.334125 
L 265.391125 276.334125 
L 268.958757 276.334125 
L 272.52639 276.334125 
L 276.094022 276.334125 
L 279.661655 276.334125 
L 283.229287 276.334125 
L 286.796919 276.334125 
L 290.364552 276.334125 
L 293.932184 276.334125 
L 297.499816 276.334125 
L 301.067449 276.334125 
L 304.635081 276.334125 
L 308.202714 276.334125 
L 311.770346 276.334125 
L 315.337978 276.334125 
L 318.905611 276.334125 
L 322.473243 276.334125 
L 326.040875 276.334125 
L 329.608508 276.334125 
L 333.17614 276.334125 
L 336.743772 276.334125 
L 340.311405 276.334125 
L 343.879037 276.334125 
L 347.44667 276.334125 
L 351.014302 276.334125 
L 354.581934 276.334125 
L 358.149567 276.334125 
L 361.717199 276.334125 
L 365.284831 276.334125 
L 368.852464 276.334125 
L 372.420096 276.334125 
L 375.987729 276.334125 
L 379.555361 276.334125 
L 383.122993 276.334125 
L 386.690626 276.334125 
L 390.258258 276.334125 
L 393.82589 276.334125 
L 397.393523 276.334125 
" style="fill:none;stroke:#98df8a;stroke-linecap:square;stroke-width:1.5;"/>
    <defs>
     <path d="M -0 3 
L 3 -3 
L -3 -3 
z
" id="m5c6db66456" style="stroke:#ffffff;stroke-linejoin:miter;stroke-width:0.75;"/>
    </defs>
    <g clip-path="url(#p6e383249a3)">
     <use style="fill:#98df8a;stroke:#ffffff;stroke-linejoin:miter;stroke-width:0.75;" x="72.738977" xlink:href="#m5c6db66456" y="276.334125"/>
     <use style="fill:#98df8a;stroke:#ffffff;stroke-linejoin:miter;stroke-width:0.75;" x="76.30661" xlink:href="#m5c6db66456" y="276.334125"/>
     <use style="fill:#98df8a;stroke:#ffffff;stroke-linejoin:miter;stroke-width:0.75;" x="79.874242" xlink:href="#m5c6db66456" y="276.334125"/>
     <use style="fill:#98df8a;stroke:#ffffff;stroke-linejoin:miter;stroke-width:0.75;" x="83.441874" xlink:href="#m5c6db66456" y="276.334125"/>
     <use style="fill:#98df8a;stroke:#ffffff;stroke-linejoin:miter;stroke-width:0.75;" x="87.009507" xlink:href="#m5c6db66456" y="276.334125"/>
     <use style="fill:#98df8a;stroke:#ffffff;stroke-linejoin:miter;stroke-width:0.75;" x="90.577139" xlink:href="#m5c6db66456" y="276.334125"/>
     <use style="fill:#98df8a;stroke:#ffffff;stroke-linejoin:miter;stroke-width:0.75;" x="94.144771" xlink:href="#m5c6db66456" y="276.334125"/>
     <use style="fill:#98df8a;stroke:#ffffff;stroke-linejoin:miter;stroke-width:0.75;" x="97.712404" xlink:href="#m5c6db66456" y="276.334125"/>
     <use style="fill:#98df8a;stroke:#ffffff;stroke-linejoin:miter;stroke-width:0.75;" x="101.280036" xlink:href="#m5c6db66456" y="276.334125"/>
     <use style="fill:#98df8a;stroke:#ffffff;stroke-linejoin:miter;stroke-width:0.75;" x="104.847669" xlink:href="#m5c6db66456" y="276.334125"/>
     <use style="fill:#98df8a;stroke:#ffffff;stroke-linejoin:miter;stroke-width:0.75;" x="108.415301" xlink:href="#m5c6db66456" y="276.334125"/>
     <use style="fill:#98df8a;stroke:#ffffff;stroke-linejoin:miter;stroke-width:0.75;" x="111.982933" xlink:href="#m5c6db66456" y="276.334125"/>
     <use style="fill:#98df8a;stroke:#ffffff;stroke-linejoin:miter;stroke-width:0.75;" x="115.550566" xlink:href="#m5c6db66456" y="276.334125"/>
     <use style="fill:#98df8a;stroke:#ffffff;stroke-linejoin:miter;stroke-width:0.75;" x="119.118198" xlink:href="#m5c6db66456" y="276.334125"/>
     <use style="fill:#98df8a;stroke:#ffffff;stroke-linejoin:miter;stroke-width:0.75;" x="122.68583" xlink:href="#m5c6db66456" y="276.334125"/>
     <use style="fill:#98df8a;stroke:#ffffff;stroke-linejoin:miter;stroke-width:0.75;" x="126.253463" xlink:href="#m5c6db66456" y="276.334125"/>
     <use style="fill:#98df8a;stroke:#ffffff;stroke-linejoin:miter;stroke-width:0.75;" x="129.821095" xlink:href="#m5c6db66456" y="276.334125"/>
     <use style="fill:#98df8a;stroke:#ffffff;stroke-linejoin:miter;stroke-width:0.75;" x="133.388728" xlink:href="#m5c6db66456" y="276.334125"/>
     <use style="fill:#98df8a;stroke:#ffffff;stroke-linejoin:miter;stroke-width:0.75;" x="136.95636" xlink:href="#m5c6db66456" y="276.334125"/>
     <use style="fill:#98df8a;stroke:#ffffff;stroke-linejoin:miter;stroke-width:0.75;" x="140.523992" xlink:href="#m5c6db66456" y="276.334125"/>
     <use style="fill:#98df8a;stroke:#ffffff;stroke-linejoin:miter;stroke-width:0.75;" x="144.091625" xlink:href="#m5c6db66456" y="276.334125"/>
     <use style="fill:#98df8a;stroke:#ffffff;stroke-linejoin:miter;stroke-width:0.75;" x="147.659257" xlink:href="#m5c6db66456" y="276.334125"/>
     <use style="fill:#98df8a;stroke:#ffffff;stroke-linejoin:miter;stroke-width:0.75;" x="151.226889" xlink:href="#m5c6db66456" y="276.334125"/>
     <use style="fill:#98df8a;stroke:#ffffff;stroke-linejoin:miter;stroke-width:0.75;" x="154.794522" xlink:href="#m5c6db66456" y="276.334125"/>
     <use style="fill:#98df8a;stroke:#ffffff;stroke-linejoin:miter;stroke-width:0.75;" x="158.362154" xlink:href="#m5c6db66456" y="276.334125"/>
     <use style="fill:#98df8a;stroke:#ffffff;stroke-linejoin:miter;stroke-width:0.75;" x="161.929786" xlink:href="#m5c6db66456" y="276.334125"/>
     <use style="fill:#98df8a;stroke:#ffffff;stroke-linejoin:miter;stroke-width:0.75;" x="165.497419" xlink:href="#m5c6db66456" y="276.334125"/>
     <use style="fill:#98df8a;stroke:#ffffff;stroke-linejoin:miter;stroke-width:0.75;" x="169.065051" xlink:href="#m5c6db66456" y="276.334125"/>
     <use style="fill:#98df8a;stroke:#ffffff;stroke-linejoin:miter;stroke-width:0.75;" x="172.632684" xlink:href="#m5c6db66456" y="276.334125"/>
     <use style="fill:#98df8a;stroke:#ffffff;stroke-linejoin:miter;stroke-width:0.75;" x="176.200316" xlink:href="#m5c6db66456" y="276.334125"/>
     <use style="fill:#98df8a;stroke:#ffffff;stroke-linejoin:miter;stroke-width:0.75;" x="179.767948" xlink:href="#m5c6db66456" y="276.334125"/>
     <use style="fill:#98df8a;stroke:#ffffff;stroke-linejoin:miter;stroke-width:0.75;" x="183.335581" xlink:href="#m5c6db66456" y="276.334125"/>
     <use style="fill:#98df8a;stroke:#ffffff;stroke-linejoin:miter;stroke-width:0.75;" x="186.903213" xlink:href="#m5c6db66456" y="276.334125"/>
     <use style="fill:#98df8a;stroke:#ffffff;stroke-linejoin:miter;stroke-width:0.75;" x="190.470845" xlink:href="#m5c6db66456" y="276.334125"/>
     <use style="fill:#98df8a;stroke:#ffffff;stroke-linejoin:miter;stroke-width:0.75;" x="194.038478" xlink:href="#m5c6db66456" y="276.334125"/>
     <use style="fill:#98df8a;stroke:#ffffff;stroke-linejoin:miter;stroke-width:0.75;" x="197.60611" xlink:href="#m5c6db66456" y="276.334125"/>
     <use style="fill:#98df8a;stroke:#ffffff;stroke-linejoin:miter;stroke-width:0.75;" x="201.173743" xlink:href="#m5c6db66456" y="276.334125"/>
     <use style="fill:#98df8a;stroke:#ffffff;stroke-linejoin:miter;stroke-width:0.75;" x="204.741375" xlink:href="#m5c6db66456" y="276.334125"/>
     <use style="fill:#98df8a;stroke:#ffffff;stroke-linejoin:miter;stroke-width:0.75;" x="208.309007" xlink:href="#m5c6db66456" y="276.334125"/>
     <use style="fill:#98df8a;stroke:#ffffff;stroke-linejoin:miter;stroke-width:0.75;" x="211.87664" xlink:href="#m5c6db66456" y="276.334125"/>
     <use style="fill:#98df8a;stroke:#ffffff;stroke-linejoin:miter;stroke-width:0.75;" x="215.444272" xlink:href="#m5c6db66456" y="276.334125"/>
     <use style="fill:#98df8a;stroke:#ffffff;stroke-linejoin:miter;stroke-width:0.75;" x="219.011904" xlink:href="#m5c6db66456" y="276.334125"/>
     <use style="fill:#98df8a;stroke:#ffffff;stroke-linejoin:miter;stroke-width:0.75;" x="222.579537" xlink:href="#m5c6db66456" y="276.334125"/>
     <use style="fill:#98df8a;stroke:#ffffff;stroke-linejoin:miter;stroke-width:0.75;" x="226.147169" xlink:href="#m5c6db66456" y="276.334125"/>
     <use style="fill:#98df8a;stroke:#ffffff;stroke-linejoin:miter;stroke-width:0.75;" x="229.714801" xlink:href="#m5c6db66456" y="276.334125"/>
     <use style="fill:#98df8a;stroke:#ffffff;stroke-linejoin:miter;stroke-width:0.75;" x="233.282434" xlink:href="#m5c6db66456" y="276.334125"/>
     <use style="fill:#98df8a;stroke:#ffffff;stroke-linejoin:miter;stroke-width:0.75;" x="236.850066" xlink:href="#m5c6db66456" y="276.334125"/>
     <use style="fill:#98df8a;stroke:#ffffff;stroke-linejoin:miter;stroke-width:0.75;" x="240.417699" xlink:href="#m5c6db66456" y="276.334125"/>
     <use style="fill:#98df8a;stroke:#ffffff;stroke-linejoin:miter;stroke-width:0.75;" x="243.985331" xlink:href="#m5c6db66456" y="276.334125"/>
     <use style="fill:#98df8a;stroke:#ffffff;stroke-linejoin:miter;stroke-width:0.75;" x="247.552963" xlink:href="#m5c6db66456" y="276.334125"/>
     <use style="fill:#98df8a;stroke:#ffffff;stroke-linejoin:miter;stroke-width:0.75;" x="251.120596" xlink:href="#m5c6db66456" y="276.334125"/>
     <use style="fill:#98df8a;stroke:#ffffff;stroke-linejoin:miter;stroke-width:0.75;" x="254.688228" xlink:href="#m5c6db66456" y="276.334125"/>
     <use style="fill:#98df8a;stroke:#ffffff;stroke-linejoin:miter;stroke-width:0.75;" x="258.25586" xlink:href="#m5c6db66456" y="276.334125"/>
     <use style="fill:#98df8a;stroke:#ffffff;stroke-linejoin:miter;stroke-width:0.75;" x="261.823493" xlink:href="#m5c6db66456" y="276.334125"/>
     <use style="fill:#98df8a;stroke:#ffffff;stroke-linejoin:miter;stroke-width:0.75;" x="265.391125" xlink:href="#m5c6db66456" y="276.334125"/>
     <use style="fill:#98df8a;stroke:#ffffff;stroke-linejoin:miter;stroke-width:0.75;" x="268.958757" xlink:href="#m5c6db66456" y="276.334125"/>
     <use style="fill:#98df8a;stroke:#ffffff;stroke-linejoin:miter;stroke-width:0.75;" x="272.52639" xlink:href="#m5c6db66456" y="276.334125"/>
     <use style="fill:#98df8a;stroke:#ffffff;stroke-linejoin:miter;stroke-width:0.75;" x="276.094022" xlink:href="#m5c6db66456" y="276.334125"/>
     <use style="fill:#98df8a;stroke:#ffffff;stroke-linejoin:miter;stroke-width:0.75;" x="279.661655" xlink:href="#m5c6db66456" y="276.334125"/>
     <use style="fill:#98df8a;stroke:#ffffff;stroke-linejoin:miter;stroke-width:0.75;" x="283.229287" xlink:href="#m5c6db66456" y="276.334125"/>
     <use style="fill:#98df8a;stroke:#ffffff;stroke-linejoin:miter;stroke-width:0.75;" x="286.796919" xlink:href="#m5c6db66456" y="276.334125"/>
     <use style="fill:#98df8a;stroke:#ffffff;stroke-linejoin:miter;stroke-width:0.75;" x="290.364552" xlink:href="#m5c6db66456" y="276.334125"/>
     <use style="fill:#98df8a;stroke:#ffffff;stroke-linejoin:miter;stroke-width:0.75;" x="293.932184" xlink:href="#m5c6db66456" y="276.334125"/>
     <use style="fill:#98df8a;stroke:#ffffff;stroke-linejoin:miter;stroke-width:0.75;" x="297.499816" xlink:href="#m5c6db66456" y="276.334125"/>
     <use style="fill:#98df8a;stroke:#ffffff;stroke-linejoin:miter;stroke-width:0.75;" x="301.067449" xlink:href="#m5c6db66456" y="276.334125"/>
     <use style="fill:#98df8a;stroke:#ffffff;stroke-linejoin:miter;stroke-width:0.75;" x="304.635081" xlink:href="#m5c6db66456" y="276.334125"/>
     <use style="fill:#98df8a;stroke:#ffffff;stroke-linejoin:miter;stroke-width:0.75;" x="308.202714" xlink:href="#m5c6db66456" y="276.334125"/>
     <use style="fill:#98df8a;stroke:#ffffff;stroke-linejoin:miter;stroke-width:0.75;" x="311.770346" xlink:href="#m5c6db66456" y="276.334125"/>
     <use style="fill:#98df8a;stroke:#ffffff;stroke-linejoin:miter;stroke-width:0.75;" x="315.337978" xlink:href="#m5c6db66456" y="276.334125"/>
     <use style="fill:#98df8a;stroke:#ffffff;stroke-linejoin:miter;stroke-width:0.75;" x="318.905611" xlink:href="#m5c6db66456" y="276.334125"/>
     <use style="fill:#98df8a;stroke:#ffffff;stroke-linejoin:miter;stroke-width:0.75;" x="322.473243" xlink:href="#m5c6db66456" y="276.334125"/>
     <use style="fill:#98df8a;stroke:#ffffff;stroke-linejoin:miter;stroke-width:0.75;" x="326.040875" xlink:href="#m5c6db66456" y="276.334125"/>
     <use style="fill:#98df8a;stroke:#ffffff;stroke-linejoin:miter;stroke-width:0.75;" x="329.608508" xlink:href="#m5c6db66456" y="276.334125"/>
     <use style="fill:#98df8a;stroke:#ffffff;stroke-linejoin:miter;stroke-width:0.75;" x="333.17614" xlink:href="#m5c6db66456" y="276.334125"/>
     <use style="fill:#98df8a;stroke:#ffffff;stroke-linejoin:miter;stroke-width:0.75;" x="336.743772" xlink:href="#m5c6db66456" y="276.334125"/>
     <use style="fill:#98df8a;stroke:#ffffff;stroke-linejoin:miter;stroke-width:0.75;" x="340.311405" xlink:href="#m5c6db66456" y="276.334125"/>
     <use style="fill:#98df8a;stroke:#ffffff;stroke-linejoin:miter;stroke-width:0.75;" x="343.879037" xlink:href="#m5c6db66456" y="276.334125"/>
     <use style="fill:#98df8a;stroke:#ffffff;stroke-linejoin:miter;stroke-width:0.75;" x="347.44667" xlink:href="#m5c6db66456" y="276.334125"/>
     <use style="fill:#98df8a;stroke:#ffffff;stroke-linejoin:miter;stroke-width:0.75;" x="351.014302" xlink:href="#m5c6db66456" y="276.334125"/>
     <use style="fill:#98df8a;stroke:#ffffff;stroke-linejoin:miter;stroke-width:0.75;" x="354.581934" xlink:href="#m5c6db66456" y="276.334125"/>
     <use style="fill:#98df8a;stroke:#ffffff;stroke-linejoin:miter;stroke-width:0.75;" x="358.149567" xlink:href="#m5c6db66456" y="276.334125"/>
     <use style="fill:#98df8a;stroke:#ffffff;stroke-linejoin:miter;stroke-width:0.75;" x="361.717199" xlink:href="#m5c6db66456" y="276.334125"/>
     <use style="fill:#98df8a;stroke:#ffffff;stroke-linejoin:miter;stroke-width:0.75;" x="365.284831" xlink:href="#m5c6db66456" y="276.334125"/>
     <use style="fill:#98df8a;stroke:#ffffff;stroke-linejoin:miter;stroke-width:0.75;" x="368.852464" xlink:href="#m5c6db66456" y="276.334125"/>
     <use style="fill:#98df8a;stroke:#ffffff;stroke-linejoin:miter;stroke-width:0.75;" x="372.420096" xlink:href="#m5c6db66456" y="276.334125"/>
     <use style="fill:#98df8a;stroke:#ffffff;stroke-linejoin:miter;stroke-width:0.75;" x="375.987729" xlink:href="#m5c6db66456" y="276.334125"/>
     <use style="fill:#98df8a;stroke:#ffffff;stroke-linejoin:miter;stroke-width:0.75;" x="379.555361" xlink:href="#m5c6db66456" y="276.334125"/>
     <use style="fill:#98df8a;stroke:#ffffff;stroke-linejoin:miter;stroke-width:0.75;" x="383.122993" xlink:href="#m5c6db66456" y="276.334125"/>
     <use style="fill:#98df8a;stroke:#ffffff;stroke-linejoin:miter;stroke-width:0.75;" x="386.690626" xlink:href="#m5c6db66456" y="276.334125"/>
     <use style="fill:#98df8a;stroke:#ffffff;stroke-linejoin:miter;stroke-width:0.75;" x="390.258258" xlink:href="#m5c6db66456" y="276.334125"/>
     <use style="fill:#98df8a;stroke:#ffffff;stroke-linejoin:miter;stroke-width:0.75;" x="393.82589" xlink:href="#m5c6db66456" y="276.334125"/>
     <use style="fill:#98df8a;stroke:#ffffff;stroke-linejoin:miter;stroke-width:0.75;" x="397.393523" xlink:href="#m5c6db66456" y="276.334125"/>
    </g>
   </g>
   <g id="line2d_15">
    <path clip-path="url(#p6e383249a3)" d="M 72.738977 276.334125 
L 76.30661 276.334125 
L 79.874242 276.334125 
L 83.441874 276.334125 
L 87.009507 276.334125 
L 90.577139 276.334125 
L 94.144771 276.334125 
L 97.712404 276.334125 
L 101.280036 276.334125 
L 104.847669 276.334125 
L 108.415301 276.334125 
L 111.982933 276.334125 
L 115.550566 276.334125 
L 119.118198 276.334125 
L 122.68583 276.334125 
L 126.253463 276.334125 
L 129.821095 276.334125 
L 133.388728 276.334125 
L 136.95636 276.334125 
L 140.523992 276.334125 
L 144.091625 276.334125 
L 147.659257 276.334125 
L 151.226889 276.334125 
L 154.794522 276.334125 
L 158.362154 276.334125 
L 161.929786 276.334125 
L 165.497419 276.334125 
L 169.065051 276.334125 
L 172.632684 276.334125 
L 176.200316 276.334125 
L 179.767948 276.334125 
L 183.335581 276.334125 
L 186.903213 276.334125 
L 190.470845 276.334125 
L 194.038478 276.334125 
L 197.60611 276.334125 
L 201.173743 276.334125 
L 204.741375 276.334125 
L 208.309007 276.334125 
L 211.87664 276.334125 
L 215.444272 276.334125 
L 219.011904 276.334125 
L 222.579537 276.334125 
L 226.147169 276.334125 
L 229.714801 276.334125 
L 233.282434 276.334125 
L 236.850066 276.334125 
L 240.417699 276.334125 
L 243.985331 276.334125 
L 247.552963 276.334125 
L 251.120596 276.334125 
L 254.688228 276.334125 
L 258.25586 276.334125 
L 261.823493 276.334125 
L 265.391125 276.334125 
L 268.958757 276.334125 
L 272.52639 276.334125 
L 276.094022 276.334125 
L 279.661655 276.334125 
L 283.229287 276.334125 
L 286.796919 276.334125 
L 290.364552 276.334125 
L 293.932184 276.334125 
L 297.499816 276.334125 
L 301.067449 276.334125 
L 304.635081 276.334125 
L 308.202714 276.334125 
L 311.770346 276.334125 
L 315.337978 276.334125 
L 318.905611 276.334125 
L 322.473243 276.334125 
L 326.040875 276.334125 
L 329.608508 276.334125 
L 333.17614 276.334125 
L 336.743772 276.334125 
L 340.311405 276.334125 
L 343.879037 276.334125 
L 347.44667 276.334125 
L 351.014302 276.334125 
L 354.581934 276.334125 
L 358.149567 276.334125 
L 361.717199 276.334125 
L 365.284831 276.334125 
L 368.852464 276.334125 
L 372.420096 276.334125 
L 375.987729 276.334125 
L 379.555361 276.334125 
L 383.122993 276.334125 
L 386.690626 276.334125 
L 390.258258 276.334125 
L 393.82589 276.334125 
L 397.393523 276.334125 
" style="fill:none;stroke:#d62728;stroke-linecap:square;stroke-width:1.5;"/>
    <defs>
     <path d="M 0 -3 
L -3 3 
L 3 3 
z
" id="m0dff4e9916" style="stroke:#ffffff;stroke-linejoin:miter;stroke-width:0.75;"/>
    </defs>
    <g clip-path="url(#p6e383249a3)">
     <use style="fill:#d62728;stroke:#ffffff;stroke-linejoin:miter;stroke-width:0.75;" x="72.738977" xlink:href="#m0dff4e9916" y="276.334125"/>
     <use style="fill:#d62728;stroke:#ffffff;stroke-linejoin:miter;stroke-width:0.75;" x="76.30661" xlink:href="#m0dff4e9916" y="276.334125"/>
     <use style="fill:#d62728;stroke:#ffffff;stroke-linejoin:miter;stroke-width:0.75;" x="79.874242" xlink:href="#m0dff4e9916" y="276.334125"/>
     <use style="fill:#d62728;stroke:#ffffff;stroke-linejoin:miter;stroke-width:0.75;" x="83.441874" xlink:href="#m0dff4e9916" y="276.334125"/>
     <use style="fill:#d62728;stroke:#ffffff;stroke-linejoin:miter;stroke-width:0.75;" x="87.009507" xlink:href="#m0dff4e9916" y="276.334125"/>
     <use style="fill:#d62728;stroke:#ffffff;stroke-linejoin:miter;stroke-width:0.75;" x="90.577139" xlink:href="#m0dff4e9916" y="276.334125"/>
     <use style="fill:#d62728;stroke:#ffffff;stroke-linejoin:miter;stroke-width:0.75;" x="94.144771" xlink:href="#m0dff4e9916" y="276.334125"/>
     <use style="fill:#d62728;stroke:#ffffff;stroke-linejoin:miter;stroke-width:0.75;" x="97.712404" xlink:href="#m0dff4e9916" y="276.334125"/>
     <use style="fill:#d62728;stroke:#ffffff;stroke-linejoin:miter;stroke-width:0.75;" x="101.280036" xlink:href="#m0dff4e9916" y="276.334125"/>
     <use style="fill:#d62728;stroke:#ffffff;stroke-linejoin:miter;stroke-width:0.75;" x="104.847669" xlink:href="#m0dff4e9916" y="276.334125"/>
     <use style="fill:#d62728;stroke:#ffffff;stroke-linejoin:miter;stroke-width:0.75;" x="108.415301" xlink:href="#m0dff4e9916" y="276.334125"/>
     <use style="fill:#d62728;stroke:#ffffff;stroke-linejoin:miter;stroke-width:0.75;" x="111.982933" xlink:href="#m0dff4e9916" y="276.334125"/>
     <use style="fill:#d62728;stroke:#ffffff;stroke-linejoin:miter;stroke-width:0.75;" x="115.550566" xlink:href="#m0dff4e9916" y="276.334125"/>
     <use style="fill:#d62728;stroke:#ffffff;stroke-linejoin:miter;stroke-width:0.75;" x="119.118198" xlink:href="#m0dff4e9916" y="276.334125"/>
     <use style="fill:#d62728;stroke:#ffffff;stroke-linejoin:miter;stroke-width:0.75;" x="122.68583" xlink:href="#m0dff4e9916" y="276.334125"/>
     <use style="fill:#d62728;stroke:#ffffff;stroke-linejoin:miter;stroke-width:0.75;" x="126.253463" xlink:href="#m0dff4e9916" y="276.334125"/>
     <use style="fill:#d62728;stroke:#ffffff;stroke-linejoin:miter;stroke-width:0.75;" x="129.821095" xlink:href="#m0dff4e9916" y="276.334125"/>
     <use style="fill:#d62728;stroke:#ffffff;stroke-linejoin:miter;stroke-width:0.75;" x="133.388728" xlink:href="#m0dff4e9916" y="276.334125"/>
     <use style="fill:#d62728;stroke:#ffffff;stroke-linejoin:miter;stroke-width:0.75;" x="136.95636" xlink:href="#m0dff4e9916" y="276.334125"/>
     <use style="fill:#d62728;stroke:#ffffff;stroke-linejoin:miter;stroke-width:0.75;" x="140.523992" xlink:href="#m0dff4e9916" y="276.334125"/>
     <use style="fill:#d62728;stroke:#ffffff;stroke-linejoin:miter;stroke-width:0.75;" x="144.091625" xlink:href="#m0dff4e9916" y="276.334125"/>
     <use style="fill:#d62728;stroke:#ffffff;stroke-linejoin:miter;stroke-width:0.75;" x="147.659257" xlink:href="#m0dff4e9916" y="276.334125"/>
     <use style="fill:#d62728;stroke:#ffffff;stroke-linejoin:miter;stroke-width:0.75;" x="151.226889" xlink:href="#m0dff4e9916" y="276.334125"/>
     <use style="fill:#d62728;stroke:#ffffff;stroke-linejoin:miter;stroke-width:0.75;" x="154.794522" xlink:href="#m0dff4e9916" y="276.334125"/>
     <use style="fill:#d62728;stroke:#ffffff;stroke-linejoin:miter;stroke-width:0.75;" x="158.362154" xlink:href="#m0dff4e9916" y="276.334125"/>
     <use style="fill:#d62728;stroke:#ffffff;stroke-linejoin:miter;stroke-width:0.75;" x="161.929786" xlink:href="#m0dff4e9916" y="276.334125"/>
     <use style="fill:#d62728;stroke:#ffffff;stroke-linejoin:miter;stroke-width:0.75;" x="165.497419" xlink:href="#m0dff4e9916" y="276.334125"/>
     <use style="fill:#d62728;stroke:#ffffff;stroke-linejoin:miter;stroke-width:0.75;" x="169.065051" xlink:href="#m0dff4e9916" y="276.334125"/>
     <use style="fill:#d62728;stroke:#ffffff;stroke-linejoin:miter;stroke-width:0.75;" x="172.632684" xlink:href="#m0dff4e9916" y="276.334125"/>
     <use style="fill:#d62728;stroke:#ffffff;stroke-linejoin:miter;stroke-width:0.75;" x="176.200316" xlink:href="#m0dff4e9916" y="276.334125"/>
     <use style="fill:#d62728;stroke:#ffffff;stroke-linejoin:miter;stroke-width:0.75;" x="179.767948" xlink:href="#m0dff4e9916" y="276.334125"/>
     <use style="fill:#d62728;stroke:#ffffff;stroke-linejoin:miter;stroke-width:0.75;" x="183.335581" xlink:href="#m0dff4e9916" y="276.334125"/>
     <use style="fill:#d62728;stroke:#ffffff;stroke-linejoin:miter;stroke-width:0.75;" x="186.903213" xlink:href="#m0dff4e9916" y="276.334125"/>
     <use style="fill:#d62728;stroke:#ffffff;stroke-linejoin:miter;stroke-width:0.75;" x="190.470845" xlink:href="#m0dff4e9916" y="276.334125"/>
     <use style="fill:#d62728;stroke:#ffffff;stroke-linejoin:miter;stroke-width:0.75;" x="194.038478" xlink:href="#m0dff4e9916" y="276.334125"/>
     <use style="fill:#d62728;stroke:#ffffff;stroke-linejoin:miter;stroke-width:0.75;" x="197.60611" xlink:href="#m0dff4e9916" y="276.334125"/>
     <use style="fill:#d62728;stroke:#ffffff;stroke-linejoin:miter;stroke-width:0.75;" x="201.173743" xlink:href="#m0dff4e9916" y="276.334125"/>
     <use style="fill:#d62728;stroke:#ffffff;stroke-linejoin:miter;stroke-width:0.75;" x="204.741375" xlink:href="#m0dff4e9916" y="276.334125"/>
     <use style="fill:#d62728;stroke:#ffffff;stroke-linejoin:miter;stroke-width:0.75;" x="208.309007" xlink:href="#m0dff4e9916" y="276.334125"/>
     <use style="fill:#d62728;stroke:#ffffff;stroke-linejoin:miter;stroke-width:0.75;" x="211.87664" xlink:href="#m0dff4e9916" y="276.334125"/>
     <use style="fill:#d62728;stroke:#ffffff;stroke-linejoin:miter;stroke-width:0.75;" x="215.444272" xlink:href="#m0dff4e9916" y="276.334125"/>
     <use style="fill:#d62728;stroke:#ffffff;stroke-linejoin:miter;stroke-width:0.75;" x="219.011904" xlink:href="#m0dff4e9916" y="276.334125"/>
     <use style="fill:#d62728;stroke:#ffffff;stroke-linejoin:miter;stroke-width:0.75;" x="222.579537" xlink:href="#m0dff4e9916" y="276.334125"/>
     <use style="fill:#d62728;stroke:#ffffff;stroke-linejoin:miter;stroke-width:0.75;" x="226.147169" xlink:href="#m0dff4e9916" y="276.334125"/>
     <use style="fill:#d62728;stroke:#ffffff;stroke-linejoin:miter;stroke-width:0.75;" x="229.714801" xlink:href="#m0dff4e9916" y="276.334125"/>
     <use style="fill:#d62728;stroke:#ffffff;stroke-linejoin:miter;stroke-width:0.75;" x="233.282434" xlink:href="#m0dff4e9916" y="276.334125"/>
     <use style="fill:#d62728;stroke:#ffffff;stroke-linejoin:miter;stroke-width:0.75;" x="236.850066" xlink:href="#m0dff4e9916" y="276.334125"/>
     <use style="fill:#d62728;stroke:#ffffff;stroke-linejoin:miter;stroke-width:0.75;" x="240.417699" xlink:href="#m0dff4e9916" y="276.334125"/>
     <use style="fill:#d62728;stroke:#ffffff;stroke-linejoin:miter;stroke-width:0.75;" x="243.985331" xlink:href="#m0dff4e9916" y="276.334125"/>
     <use style="fill:#d62728;stroke:#ffffff;stroke-linejoin:miter;stroke-width:0.75;" x="247.552963" xlink:href="#m0dff4e9916" y="276.334125"/>
     <use style="fill:#d62728;stroke:#ffffff;stroke-linejoin:miter;stroke-width:0.75;" x="251.120596" xlink:href="#m0dff4e9916" y="276.334125"/>
     <use style="fill:#d62728;stroke:#ffffff;stroke-linejoin:miter;stroke-width:0.75;" x="254.688228" xlink:href="#m0dff4e9916" y="276.334125"/>
     <use style="fill:#d62728;stroke:#ffffff;stroke-linejoin:miter;stroke-width:0.75;" x="258.25586" xlink:href="#m0dff4e9916" y="276.334125"/>
     <use style="fill:#d62728;stroke:#ffffff;stroke-linejoin:miter;stroke-width:0.75;" x="261.823493" xlink:href="#m0dff4e9916" y="276.334125"/>
     <use style="fill:#d62728;stroke:#ffffff;stroke-linejoin:miter;stroke-width:0.75;" x="265.391125" xlink:href="#m0dff4e9916" y="276.334125"/>
     <use style="fill:#d62728;stroke:#ffffff;stroke-linejoin:miter;stroke-width:0.75;" x="268.958757" xlink:href="#m0dff4e9916" y="276.334125"/>
     <use style="fill:#d62728;stroke:#ffffff;stroke-linejoin:miter;stroke-width:0.75;" x="272.52639" xlink:href="#m0dff4e9916" y="276.334125"/>
     <use style="fill:#d62728;stroke:#ffffff;stroke-linejoin:miter;stroke-width:0.75;" x="276.094022" xlink:href="#m0dff4e9916" y="276.334125"/>
     <use style="fill:#d62728;stroke:#ffffff;stroke-linejoin:miter;stroke-width:0.75;" x="279.661655" xlink:href="#m0dff4e9916" y="276.334125"/>
     <use style="fill:#d62728;stroke:#ffffff;stroke-linejoin:miter;stroke-width:0.75;" x="283.229287" xlink:href="#m0dff4e9916" y="276.334125"/>
     <use style="fill:#d62728;stroke:#ffffff;stroke-linejoin:miter;stroke-width:0.75;" x="286.796919" xlink:href="#m0dff4e9916" y="276.334125"/>
     <use style="fill:#d62728;stroke:#ffffff;stroke-linejoin:miter;stroke-width:0.75;" x="290.364552" xlink:href="#m0dff4e9916" y="276.334125"/>
     <use style="fill:#d62728;stroke:#ffffff;stroke-linejoin:miter;stroke-width:0.75;" x="293.932184" xlink:href="#m0dff4e9916" y="276.334125"/>
     <use style="fill:#d62728;stroke:#ffffff;stroke-linejoin:miter;stroke-width:0.75;" x="297.499816" xlink:href="#m0dff4e9916" y="276.334125"/>
     <use style="fill:#d62728;stroke:#ffffff;stroke-linejoin:miter;stroke-width:0.75;" x="301.067449" xlink:href="#m0dff4e9916" y="276.334125"/>
     <use style="fill:#d62728;stroke:#ffffff;stroke-linejoin:miter;stroke-width:0.75;" x="304.635081" xlink:href="#m0dff4e9916" y="276.334125"/>
     <use style="fill:#d62728;stroke:#ffffff;stroke-linejoin:miter;stroke-width:0.75;" x="308.202714" xlink:href="#m0dff4e9916" y="276.334125"/>
     <use style="fill:#d62728;stroke:#ffffff;stroke-linejoin:miter;stroke-width:0.75;" x="311.770346" xlink:href="#m0dff4e9916" y="276.334125"/>
     <use style="fill:#d62728;stroke:#ffffff;stroke-linejoin:miter;stroke-width:0.75;" x="315.337978" xlink:href="#m0dff4e9916" y="276.334125"/>
     <use style="fill:#d62728;stroke:#ffffff;stroke-linejoin:miter;stroke-width:0.75;" x="318.905611" xlink:href="#m0dff4e9916" y="276.334125"/>
     <use style="fill:#d62728;stroke:#ffffff;stroke-linejoin:miter;stroke-width:0.75;" x="322.473243" xlink:href="#m0dff4e9916" y="276.334125"/>
     <use style="fill:#d62728;stroke:#ffffff;stroke-linejoin:miter;stroke-width:0.75;" x="326.040875" xlink:href="#m0dff4e9916" y="276.334125"/>
     <use style="fill:#d62728;stroke:#ffffff;stroke-linejoin:miter;stroke-width:0.75;" x="329.608508" xlink:href="#m0dff4e9916" y="276.334125"/>
     <use style="fill:#d62728;stroke:#ffffff;stroke-linejoin:miter;stroke-width:0.75;" x="333.17614" xlink:href="#m0dff4e9916" y="276.334125"/>
     <use style="fill:#d62728;stroke:#ffffff;stroke-linejoin:miter;stroke-width:0.75;" x="336.743772" xlink:href="#m0dff4e9916" y="276.334125"/>
     <use style="fill:#d62728;stroke:#ffffff;stroke-linejoin:miter;stroke-width:0.75;" x="340.311405" xlink:href="#m0dff4e9916" y="276.334125"/>
     <use style="fill:#d62728;stroke:#ffffff;stroke-linejoin:miter;stroke-width:0.75;" x="343.879037" xlink:href="#m0dff4e9916" y="276.334125"/>
     <use style="fill:#d62728;stroke:#ffffff;stroke-linejoin:miter;stroke-width:0.75;" x="347.44667" xlink:href="#m0dff4e9916" y="276.334125"/>
     <use style="fill:#d62728;stroke:#ffffff;stroke-linejoin:miter;stroke-width:0.75;" x="351.014302" xlink:href="#m0dff4e9916" y="276.334125"/>
     <use style="fill:#d62728;stroke:#ffffff;stroke-linejoin:miter;stroke-width:0.75;" x="354.581934" xlink:href="#m0dff4e9916" y="276.334125"/>
     <use style="fill:#d62728;stroke:#ffffff;stroke-linejoin:miter;stroke-width:0.75;" x="358.149567" xlink:href="#m0dff4e9916" y="276.334125"/>
     <use style="fill:#d62728;stroke:#ffffff;stroke-linejoin:miter;stroke-width:0.75;" x="361.717199" xlink:href="#m0dff4e9916" y="276.334125"/>
     <use style="fill:#d62728;stroke:#ffffff;stroke-linejoin:miter;stroke-width:0.75;" x="365.284831" xlink:href="#m0dff4e9916" y="276.334125"/>
     <use style="fill:#d62728;stroke:#ffffff;stroke-linejoin:miter;stroke-width:0.75;" x="368.852464" xlink:href="#m0dff4e9916" y="276.334125"/>
     <use style="fill:#d62728;stroke:#ffffff;stroke-linejoin:miter;stroke-width:0.75;" x="372.420096" xlink:href="#m0dff4e9916" y="276.334125"/>
     <use style="fill:#d62728;stroke:#ffffff;stroke-linejoin:miter;stroke-width:0.75;" x="375.987729" xlink:href="#m0dff4e9916" y="276.334125"/>
     <use style="fill:#d62728;stroke:#ffffff;stroke-linejoin:miter;stroke-width:0.75;" x="379.555361" xlink:href="#m0dff4e9916" y="276.334125"/>
     <use style="fill:#d62728;stroke:#ffffff;stroke-linejoin:miter;stroke-width:0.75;" x="383.122993" xlink:href="#m0dff4e9916" y="276.334125"/>
     <use style="fill:#d62728;stroke:#ffffff;stroke-linejoin:miter;stroke-width:0.75;" x="386.690626" xlink:href="#m0dff4e9916" y="276.334125"/>
     <use style="fill:#d62728;stroke:#ffffff;stroke-linejoin:miter;stroke-width:0.75;" x="390.258258" xlink:href="#m0dff4e9916" y="276.334125"/>
     <use style="fill:#d62728;stroke:#ffffff;stroke-linejoin:miter;stroke-width:0.75;" x="393.82589" xlink:href="#m0dff4e9916" y="276.334125"/>
     <use style="fill:#d62728;stroke:#ffffff;stroke-linejoin:miter;stroke-width:0.75;" x="397.393523" xlink:href="#m0dff4e9916" y="276.334125"/>
    </g>
   </g>
   <g id="line2d_16"/>
   <g id="line2d_17"/>
   <g id="line2d_18"/>
   <g id="patch_3">
    <path d="M 56.50625 276.334125 
L 56.50625 34.414125 
" style="fill:none;stroke:#000000;stroke-linecap:square;stroke-linejoin:miter;stroke-width:0.8;"/>
   </g>
   <g id="patch_4">
    <path d="M 72.738977 288.430125 
L 346.257459 288.430125 
" style="fill:none;stroke:#000000;stroke-linecap:square;stroke-linejoin:miter;stroke-width:0.8;"/>
   </g>
   <g id="text_15">
    <!-- proj4_standard_fuzzer (23h, 20 trials/fuzzer) -->
    <g transform="translate(102.055625 16.318125)scale(0.12 -0.12)">
     <defs>
      <path d="M 1159 525 
L 1159 -1331 
L 581 -1331 
L 581 3500 
L 1159 3500 
L 1159 2969 
Q 1341 3281 1617 3432 
Q 1894 3584 2278 3584 
Q 2916 3584 3314 3078 
Q 3713 2572 3713 1747 
Q 3713 922 3314 415 
Q 2916 -91 2278 -91 
Q 1894 -91 1617 61 
Q 1341 213 1159 525 
z
M 3116 1747 
Q 3116 2381 2855 2742 
Q 2594 3103 2138 3103 
Q 1681 3103 1420 2742 
Q 1159 2381 1159 1747 
Q 1159 1113 1420 752 
Q 1681 391 2138 391 
Q 2594 391 2855 752 
Q 3116 1113 3116 1747 
z
" id="DejaVuSans-70" transform="scale(0.015625)"/>
      <path d="M 603 3500 
L 1178 3500 
L 1178 -63 
Q 1178 -731 923 -1031 
Q 669 -1331 103 -1331 
L -116 -1331 
L -116 -844 
L 38 -844 
Q 366 -844 484 -692 
Q 603 -541 603 -63 
L 603 3500 
z
M 603 4863 
L 1178 4863 
L 1178 4134 
L 603 4134 
L 603 4863 
z
" id="DejaVuSans-6a" transform="scale(0.015625)"/>
      <path d="M 3263 -1063 
L 3263 -1509 
L -63 -1509 
L -63 -1063 
L 3263 -1063 
z
" id="DejaVuSans-5f" transform="scale(0.015625)"/>
      <path d="M 2834 3397 
L 2834 2853 
Q 2591 2978 2328 3040 
Q 2066 3103 1784 3103 
Q 1356 3103 1142 2972 
Q 928 2841 928 2578 
Q 928 2378 1081 2264 
Q 1234 2150 1697 2047 
L 1894 2003 
Q 2506 1872 2764 1633 
Q 3022 1394 3022 966 
Q 3022 478 2636 193 
Q 2250 -91 1575 -91 
Q 1294 -91 989 -36 
Q 684 19 347 128 
L 347 722 
Q 666 556 975 473 
Q 1284 391 1588 391 
Q 1994 391 2212 530 
Q 2431 669 2431 922 
Q 2431 1156 2273 1281 
Q 2116 1406 1581 1522 
L 1381 1569 
Q 847 1681 609 1914 
Q 372 2147 372 2553 
Q 372 3047 722 3315 
Q 1072 3584 1716 3584 
Q 2034 3584 2315 3537 
Q 2597 3491 2834 3397 
z
" id="DejaVuSans-73" transform="scale(0.015625)"/>
      <path d="M 2375 4863 
L 2375 4384 
L 1825 4384 
Q 1516 4384 1395 4259 
Q 1275 4134 1275 3809 
L 1275 3500 
L 2222 3500 
L 2222 3053 
L 1275 3053 
L 1275 0 
L 697 0 
L 697 3053 
L 147 3053 
L 147 3500 
L 697 3500 
L 697 3744 
Q 697 4328 969 4595 
Q 1241 4863 1831 4863 
L 2375 4863 
z
" id="DejaVuSans-66" transform="scale(0.015625)"/>
      <path d="M 353 3500 
L 3084 3500 
L 3084 2975 
L 922 459 
L 3084 459 
L 3084 0 
L 275 0 
L 275 525 
L 2438 3041 
L 353 3041 
L 353 3500 
z
" id="DejaVuSans-7a" transform="scale(0.015625)"/>
      <path d="M 750 794 
L 1409 794 
L 1409 256 
L 897 -744 
L 494 -744 
L 750 256 
L 750 794 
z
" id="DejaVuSans-2c" transform="scale(0.015625)"/>
      <path d="M 603 4863 
L 1178 4863 
L 1178 0 
L 603 0 
L 603 4863 
z
" id="DejaVuSans-6c" transform="scale(0.015625)"/>
      <path d="M 1625 4666 
L 2156 4666 
L 531 -594 
L 0 -594 
L 1625 4666 
z
" id="DejaVuSans-2f" transform="scale(0.015625)"/>
     </defs>
     <use xlink:href="#DejaVuSans-70"/>
     <use x="63.476562" xlink:href="#DejaVuSans-72"/>
     <use x="102.339844" xlink:href="#DejaVuSans-6f"/>
     <use x="163.521484" xlink:href="#DejaVuSans-6a"/>
     <use x="191.304688" xlink:href="#DejaVuSans-34"/>
     <use x="254.927734" xlink:href="#DejaVuSans-5f"/>
     <use x="304.927734" xlink:href="#DejaVuSans-73"/>
     <use x="357.027344" xlink:href="#DejaVuSans-74"/>
     <use x="396.236328" xlink:href="#DejaVuSans-61"/>
     <use x="457.515625" xlink:href="#DejaVuSans-6e"/>
     <use x="520.894531" xlink:href="#DejaVuSans-64"/>
     <use x="584.371094" xlink:href="#DejaVuSans-61"/>
     <use x="645.650391" xlink:href="#DejaVuSans-72"/>
     <use x="685.013672" xlink:href="#DejaVuSans-64"/>
     <use x="748.490234" xlink:href="#DejaVuSans-5f"/>
     <use x="798.490234" xlink:href="#DejaVuSans-66"/>
     <use x="833.695312" xlink:href="#DejaVuSans-75"/>
     <use x="897.074219" xlink:href="#DejaVuSans-7a"/>
     <use x="949.564453" xlink:href="#DejaVuSans-7a"/>
     <use x="1002.054688" xlink:href="#DejaVuSans-65"/>
     <use x="1063.578125" xlink:href="#DejaVuSans-72"/>
     <use x="1104.691406" xlink:href="#DejaVuSans-20"/>
     <use x="1136.478516" xlink:href="#DejaVuSans-28"/>
     <use x="1175.492188" xlink:href="#DejaVuSans-32"/>
     <use x="1239.115234" xlink:href="#DejaVuSans-33"/>
     <use x="1302.738281" xlink:href="#DejaVuSans-68"/>
     <use x="1366.117188" xlink:href="#DejaVuSans-2c"/>
     <use x="1397.904297" xlink:href="#DejaVuSans-20"/>
     <use x="1429.691406" xlink:href="#DejaVuSans-32"/>
     <use x="1493.314453" xlink:href="#DejaVuSans-30"/>
     <use x="1556.9375" xlink:href="#DejaVuSans-20"/>
     <use x="1588.724609" xlink:href="#DejaVuSans-74"/>
     <use x="1627.933594" xlink:href="#DejaVuSans-72"/>
     <use x="1669.046875" xlink:href="#DejaVuSans-69"/>
     <use x="1696.830078" xlink:href="#DejaVuSans-61"/>
     <use x="1758.109375" xlink:href="#DejaVuSans-6c"/>
     <use x="1785.892578" xlink:href="#DejaVuSans-73"/>
     <use x="1837.992188" xlink:href="#DejaVuSans-2f"/>
     <use x="1871.683594" xlink:href="#DejaVuSans-66"/>
     <use x="1906.888672" xlink:href="#DejaVuSans-75"/>
     <use x="1970.267578" xlink:href="#DejaVuSans-7a"/>
     <use x="2022.757812" xlink:href="#DejaVuSans-7a"/>
     <use x="2075.248047" xlink:href="#DejaVuSans-65"/>
     <use x="2136.771484" xlink:href="#DejaVuSans-72"/>
     <use x="2177.884766" xlink:href="#DejaVuSans-29"/>
    </g>
   </g>
   <g id="legend_1">
    <g id="line2d_19">
     <path d="M 417.62625 30.416562 
L 437.62625 30.416562 
" style="fill:none;stroke:#1f77b4;stroke-linecap:square;stroke-width:1.5;"/>
    </g>
    <g id="line2d_20">
     <defs>
      <path d="M 0 3 
C 0.795609 3 1.55874 2.683901 2.12132 2.12132 
C 2.683901 1.55874 3 0.795609 3 0 
C 3 -0.795609 2.683901 -1.55874 2.12132 -2.12132 
C 1.55874 -2.683901 0.795609 -3 0 -3 
C -0.795609 -3 -1.55874 -2.683901 -2.12132 -2.12132 
C -2.683901 -1.55874 -3 -0.795609 -3 0 
C -3 0.795609 -2.683901 1.55874 -2.12132 2.12132 
C -1.55874 2.683901 -0.795609 3 0 3 
z
" id="m9f89bccddd" style="stroke:#1f77b4;"/>
     </defs>
     <g>
      <use style="fill:#1f77b4;stroke:#1f77b4;" x="427.62625" xlink:href="#m9f89bccddd" y="30.416562"/>
     </g>
    </g>
    <g id="text_16">
     <!-- afl -->
     <g transform="translate(445.62625 33.916562)scale(0.1 -0.1)">
      <use xlink:href="#DejaVuSans-61"/>
      <use x="61.279297" xlink:href="#DejaVuSans-66"/>
      <use x="96.484375" xlink:href="#DejaVuSans-6c"/>
     </g>
    </g>
    <g id="line2d_21">
     <path d="M 417.62625 45.094688 
L 437.62625 45.094688 
" style="fill:none;stroke:#98df8a;stroke-linecap:square;stroke-width:1.5;"/>
    </g>
    <g id="line2d_22">
     <defs>
      <path d="M -0 3 
L 3 -3 
L -3 -3 
z
" id="m07681e55b1" style="stroke:#98df8a;stroke-linejoin:miter;"/>
     </defs>
     <g>
      <use style="fill:#98df8a;stroke:#98df8a;stroke-linejoin:miter;" x="427.62625" xlink:href="#m07681e55b1" y="45.094688"/>
     </g>
    </g>
    <g id="text_17">
     <!-- afl_scheduling_lifo -->
     <g transform="translate(445.62625 48.594688)scale(0.1 -0.1)">
      <use xlink:href="#DejaVuSans-61"/>
      <use x="61.279297" xlink:href="#DejaVuSans-66"/>
      <use x="96.484375" xlink:href="#DejaVuSans-6c"/>
      <use x="124.267578" xlink:href="#DejaVuSans-5f"/>
      <use x="174.267578" xlink:href="#DejaVuSans-73"/>
      <use x="226.367188" xlink:href="#DejaVuSans-63"/>
      <use x="281.347656" xlink:href="#DejaVuSans-68"/>
      <use x="344.726562" xlink:href="#DejaVuSans-65"/>
      <use x="406.25" xlink:href="#DejaVuSans-64"/>
      <use x="469.726562" xlink:href="#DejaVuSans-75"/>
      <use x="533.105469" xlink:href="#DejaVuSans-6c"/>
      <use x="560.888672" xlink:href="#DejaVuSans-69"/>
      <use x="588.671875" xlink:href="#DejaVuSans-6e"/>
      <use x="652.050781" xlink:href="#DejaVuSans-67"/>
      <use x="715.527344" xlink:href="#DejaVuSans-5f"/>
      <use x="765.527344" xlink:href="#DejaVuSans-6c"/>
      <use x="793.310547" xlink:href="#DejaVuSans-69"/>
      <use x="821.09375" xlink:href="#DejaVuSans-66"/>
      <use x="856.298828" xlink:href="#DejaVuSans-6f"/>
     </g>
    </g>
    <g id="line2d_23">
     <path d="M 417.62625 60.050937 
L 437.62625 60.050937 
" style="fill:none;stroke:#d62728;stroke-linecap:square;stroke-width:1.5;"/>
    </g>
    <g id="line2d_24">
     <defs>
      <path d="M 0 -3 
L -3 3 
L 3 3 
z
" id="mfaf032b912" style="stroke:#d62728;stroke-linejoin:miter;"/>
     </defs>
     <g>
      <use style="fill:#d62728;stroke:#d62728;stroke-linejoin:miter;" x="427.62625" xlink:href="#mfaf032b912" y="60.050937"/>
     </g>
    </g>
    <g id="text_18">
     <!-- afl_scheduling_random -->
     <g transform="translate(445.62625 63.550937)scale(0.1 -0.1)">
      <use xlink:href="#DejaVuSans-61"/>
      <use x="61.279297" xlink:href="#DejaVuSans-66"/>
      <use x="96.484375" xlink:href="#DejaVuSans-6c"/>
      <use x="124.267578" xlink:href="#DejaVuSans-5f"/>
      <use x="174.267578" xlink:href="#DejaVuSans-73"/>
      <use x="226.367188" xlink:href="#DejaVuSans-63"/>
      <use x="281.347656" xlink:href="#DejaVuSans-68"/>
      <use x="344.726562" xlink:href="#DejaVuSans-65"/>
      <use x="406.25" xlink:href="#DejaVuSans-64"/>
      <use x="469.726562" xlink:href="#DejaVuSans-75"/>
      <use x="533.105469" xlink:href="#DejaVuSans-6c"/>
      <use x="560.888672" xlink:href="#DejaVuSans-69"/>
      <use x="588.671875" xlink:href="#DejaVuSans-6e"/>
      <use x="652.050781" xlink:href="#DejaVuSans-67"/>
      <use x="715.527344" xlink:href="#DejaVuSans-5f"/>
      <use x="765.527344" xlink:href="#DejaVuSans-72"/>
      <use x="806.640625" xlink:href="#DejaVuSans-61"/>
      <use x="867.919922" xlink:href="#DejaVuSans-6e"/>
      <use x="931.298828" xlink:href="#DejaVuSans-64"/>
      <use x="994.775391" xlink:href="#DejaVuSans-6f"/>
      <use x="1055.957031" xlink:href="#DejaVuSans-6d"/>
     </g>
    </g>
   </g>
  </g>
 </g>
 <defs>
  <clipPath id="p6e383249a3">
   <rect height="266.112" width="357.12" x="56.50625" y="22.318125"/>
  </clipPath>
 </defs>
</svg>
