<?xml version="1.0" encoding="utf-8" standalone="no"?>
<!DOCTYPE svg PUBLIC "-//W3C//DTD SVG 1.1//EN"
  "http://www.w3.org/Graphics/SVG/1.1/DTD/svg11.dtd">
<svg height="325.986375pt" version="1.1" viewBox="0 0 575.348125 325.986375" width="575.348125pt" xmlns="http://www.w3.org/2000/svg" xmlns:xlink="http://www.w3.org/1999/xlink">
 <metadata>
  <rdf:RDF xmlns:cc="http://creativecommons.org/ns#" xmlns:dc="http://purl.org/dc/elements/1.1/" xmlns:rdf="http://www.w3.org/1999/02/22-rdf-syntax-ns#">
   <cc:Work>
    <dc:type rdf:resource="http://purl.org/dc/dcmitype/StillImage"/>
    <dc:date>2022-07-21T16:31:00.386306</dc:date>
    <dc:format>image/svg+xml</dc:format>
    <dc:creator>
     <cc:Agent>
      <dc:title>Matplotlib v3.4.3, https://matplotlib.org/</dc:title>
     </cc:Agent>
    </dc:creator>
   </cc:Work>
  </rdf:RDF>
 </metadata>
 <defs>
  <style type="text/css">*{stroke-linecap:butt;stroke-linejoin:round;}</style>
 </defs>
 <g id="figure_1">
  <g id="patch_1">
   <path d="M 0 325.986375 
L 575.348125 325.986375 
L 575.348125 0 
L 0 0 
z
" style="fill:#ffffff;"/>
  </g>
  <g id="axes_1">
   <g id="patch_2">
    <path d="M 59.690625 288.430125 
L 416.810625 288.430125 
L 416.810625 22.318125 
L 59.690625 22.318125 
z
" style="fill:#ffffff;"/>
   </g>
   <g id="PolyCollection_1">
    <defs>
     <path d="M 75.923352 -76.91446 
L 75.923352 -67.371175 
L 79.490985 -94.455818 
L 83.058617 -105.068283 
L 86.626249 -114.294214 
L 90.193882 -130.207244 
L 93.761514 -140.005546 
L 97.329146 -153.753769 
L 100.896779 -167.773586 
L 104.464411 -173.968078 
L 108.032044 -179.990246 
L 111.599676 -182.644307 
L 115.167308 -188.458684 
L 118.734941 -190.034119 
L 122.302573 -190.495038 
L 125.870205 -196.944122 
L 129.437838 -199.970318 
L 133.00547 -201.827216 
L 136.573103 -205.651566 
L 140.140735 -206.591302 
L 143.708367 -207.116447 
L 147.276 -212.104665 
L 150.843632 -215.310978 
L 154.411264 -217.768582 
L 157.978897 -219.667038 
L 161.546529 -220.959122 
L 165.114161 -222.296542 
L 168.681794 -223.943759 
L 172.249426 -226.223796 
L 175.817059 -226.722353 
L 179.384691 -228.836298 
L 182.952323 -229.773248 
L 186.519956 -232.191182 
L 190.087588 -233.813843 
L 193.65522 -235.737187 
L 197.222853 -239.735893 
L 200.790485 -241.628682 
L 204.358118 -243.554671 
L 207.92575 -243.398686 
L 211.493382 -244.768219 
L 215.061015 -246.542001 
L 218.628647 -246.526888 
L 222.196279 -249.281067 
L 225.763912 -250.252019 
L 229.331544 -252.199589 
L 232.899176 -254.330394 
L 236.466809 -256.17218 
L 240.034441 -258.199089 
L 243.602074 -259.636626 
L 247.169706 -259.723521 
L 250.737338 -262.024336 
L 254.304971 -262.804498 
L 257.872603 -263.46943 
L 261.440235 -263.996464 
L 265.007868 -264.165058 
L 268.5755 -265.398111 
L 272.143132 -266.646747 
L 275.710765 -267.098221 
L 279.278397 -267.953943 
L 282.84603 -270.317096 
L 286.413662 -270.708735 
L 289.981294 -271.365497 
L 293.548927 -271.707408 
L 297.116559 -272.489459 
L 300.684191 -272.882373 
L 304.251824 -273.333847 
L 307.819456 -273.756985 
L 311.387089 -273.887327 
L 314.954721 -274.170679 
L 318.522353 -274.654266 
L 322.089986 -275.169966 
L 325.657618 -275.339977 
L 329.22525 -275.608216 
L 332.792883 -275.770671 
L 336.360515 -276.276926 
L 339.928147 -276.463938 
L 343.49578 -277.096757 
L 347.063412 -277.468892 
L 350.631045 -277.55012 
L 354.198677 -278.186716 
L 357.766309 -278.118712 
L 361.333942 -278.196162 
L 364.901574 -279.439131 
L 368.469206 -279.74704 
L 372.036839 -280.035208 
L 375.604471 -280.05306 
L 379.172104 -280.417639 
L 382.739736 -280.889892 
L 386.307368 -281.063681 
L 389.875001 -281.245026 
L 393.442633 -281.603938 
L 397.010265 -281.603938 
L 400.577898 -282.795904 
L 400.577898 -291.220894 
L 400.577898 -291.220894 
L 397.010265 -291.57225 
L 393.442633 -290.567296 
L 389.875001 -290.259387 
L 386.307368 -289.829873 
L 382.739736 -289.804135 
L 379.172104 -289.609567 
L 375.604471 -289.443334 
L 372.036839 -289.254433 
L 368.469206 -289.014529 
L 364.901574 -288.904966 
L 361.333942 -287.527877 
L 357.766309 -287.096805 
L 354.198677 -286.811942 
L 350.631045 -286.713713 
L 347.063412 -285.595371 
L 343.49578 -285.368737 
L 339.928147 -285.100498 
L 336.360515 -286.154566 
L 332.792883 -284.464373 
L 329.22525 -283.729075 
L 325.657618 -283.526951 
L 322.089986 -283.436279 
L 318.522353 -283.292714 
L 314.954721 -282.979138 
L 311.387089 -282.718454 
L 307.819456 -281.985518 
L 304.251824 -281.029678 
L 300.684191 -282.34443 
L 297.116559 -279.981277 
L 293.548927 -281.926959 
L 289.981294 -279.127444 
L 286.413662 -278.215052 
L 282.84603 -277.926033 
L 279.278397 -280.608429 
L 275.710765 -277.176095 
L 272.143132 -276.945636 
L 268.5755 -276.647172 
L 265.007868 -276.5565 
L 261.440235 -276.377044 
L 257.872603 -276.055912 
L 254.304971 -275.598771 
L 250.737338 -274.937617 
L 247.169706 -277.706908 
L 243.602074 -274.595706 
L 240.034441 -275.679999 
L 236.466809 -271.09159 
L 232.899176 -274.756272 
L 229.331544 -271.714964 
L 225.763912 -271.138816 
L 222.196279 -269.837287 
L 218.628647 -269.533581 
L 215.061015 -268.686785 
L 211.493382 -267.823601 
L 207.92575 -266.913098 
L 204.358118 -266.801646 
L 200.790485 -265.127982 
L 197.222853 -264.419603 
L 193.65522 -263.433539 
L 190.087588 -261.603087 
L 186.519956 -261.021272 
L 182.952323 -259.504396 
L 179.384691 -256.719143 
L 175.817059 -253.833584 
L 172.249426 -254.249166 
L 168.681794 -250.501368 
L 165.114161 -247.223934 
L 161.546529 -244.509424 
L 157.978897 -243.170115 
L 154.411264 -241.163986 
L 150.843632 -238.861281 
L 147.276 -236.979826 
L 143.708367 -234.699789 
L 140.140735 -233.181024 
L 136.573103 -231.180561 
L 133.00547 -228.863689 
L 129.437838 -226.58455 
L 125.870205 -224.399011 
L 122.302573 -217.84792 
L 118.734941 -213.673725 
L 115.167308 -212.411346 
L 111.599676 -207.294014 
L 108.032044 -202.885062 
L 104.464411 -194.775537 
L 100.896779 -186.484667 
L 97.329146 -183.046666 
L 93.761514 -172.694885 
L 90.193882 -162.042751 
L 86.626249 -145.151543 
L 83.058617 -130.841952 
L 79.490985 -104.877493 
L 75.923352 -76.91446 
z
" id="mcfad34d009" style="stroke:#d62728;stroke-opacity:0.2;"/>
    </defs>
    <g clip-path="url(#pb6f4967118)">
     <use style="fill:#d62728;fill-opacity:0.2;stroke:#d62728;stroke-opacity:0.2;" x="0" xlink:href="#mcfad34d009" y="325.986375"/>
    </g>
   </g>
   <g id="PolyCollection_2">
    <defs>
     <path d="M 75.923352 -70.661833 
L 75.923352 -49.65225 
L 79.490985 -82.709946 
L 83.058617 -111.05456 
L 86.626249 -120.966202 
L 90.193882 -129.934235 
L 93.761514 -133.012426 
L 97.329146 -139.36706 
L 100.896779 -150.168426 
L 104.464411 -150.584009 
L 108.032044 -155.770336 
L 111.599676 -157.832145 
L 115.167308 -162.782487 
L 118.734941 -162.484779 
L 122.302573 -164.672254 
L 125.870205 -164.793151 
L 129.437838 -164.587249 
L 133.00547 -170.237281 
L 136.573103 -174.559339 
L 140.140735 -176.410664 
L 143.708367 -179.423543 
L 147.276 -184.438868 
L 150.843632 -187.232715 
L 154.411264 -187.597153 
L 157.978897 -187.676113 
L 161.546529 -187.731414 
L 165.114161 -187.73897 
L 168.681794 -188.966639 
L 172.249426 -189.89811 
L 175.817059 -192.771296 
L 179.384691 -193.481564 
L 182.952323 -201.725209 
L 186.519956 -204.311266 
L 190.087588 -204.371714 
L 193.65522 -204.520946 
L 197.222853 -208.572875 
L 200.790485 -213.926333 
L 204.358118 -209.064018 
L 207.92575 -209.615609 
L 211.493382 -213.984892 
L 215.061015 -218.773536 
L 218.628647 -222.75746 
L 222.196279 -221.223583 
L 225.763912 -223.533844 
L 229.331544 -223.843642 
L 232.899176 -223.856865 
L 236.466809 -225.328405 
L 240.034441 -227.661333 
L 243.602074 -227.667 
L 247.169706 -227.682112 
L 250.737338 -228.868412 
L 254.304971 -231.936166 
L 257.872603 -233.432263 
L 261.440235 -227.070073 
L 265.007868 -234.133086 
L 268.5755 -235.317496 
L 272.143132 -235.59518 
L 275.710765 -235.676408 
L 279.278397 -235.838863 
L 282.84603 -236.39801 
L 286.413662 -239.284419 
L 289.981294 -238.921729 
L 293.548927 -240.682288 
L 297.116559 -240.712512 
L 300.684191 -240.882523 
L 304.251824 -241.80998 
L 307.819456 -241.26977 
L 311.387089 -243.315569 
L 314.954721 -244.110843 
L 318.522353 -244.239296 
L 322.089986 -245.049682 
L 325.657618 -247.637627 
L 329.22525 -246.176099 
L 332.792883 -246.217091 
L 336.360515 -246.373879 
L 339.928147 -247.818972 
L 343.49578 -247.913423 
L 347.063412 -248.104213 
L 350.631045 -248.18544 
L 354.198677 -248.646359 
L 357.766309 -250.288288 
L 361.333942 -252.90419 
L 364.901574 -253.524258 
L 368.469206 -253.253657 
L 372.036839 -253.240718 
L 375.604471 -253.920478 
L 379.172104 -254.077266 
L 382.739736 -254.179273 
L 386.307368 -256.150314 
L 389.875001 -254.897097 
L 393.442633 -256.891893 
L 397.010265 -257.143131 
L 400.577898 -259.258824 
L 400.577898 -280.022835 
L 400.577898 -280.022835 
L 397.010265 -277.14776 
L 393.442633 -276.907856 
L 389.875001 -276.781292 
L 386.307368 -276.605614 
L 382.739736 -275.74942 
L 379.172104 -275.228525 
L 375.604471 -274.754383 
L 372.036839 -274.404916 
L 368.469206 -274.265129 
L 364.901574 -273.773986 
L 361.333942 -272.978713 
L 357.766309 -272.731252 
L 354.198677 -272.56313 
L 350.631045 -273.540788 
L 347.063412 -273.010826 
L 343.49578 -271.240822 
L 339.928147 -269.586048 
L 336.360515 -268.900337 
L 332.792883 -267.918051 
L 329.22525 -264.854075 
L 325.657618 -264.55939 
L 322.089986 -263.214414 
L 318.522353 -261.591753 
L 314.954721 -259.640404 
L 311.387089 -258.478662 
L 307.819456 -256.971231 
L 304.251824 -256.633098 
L 300.684191 -256.474422 
L 297.116559 -256.383749 
L 293.548927 -256.145734 
L 289.981294 -254.904653 
L 286.413662 -254.204916 
L 282.84603 -254.079155 
L 279.278397 -253.912922 
L 275.710765 -253.648461 
L 272.143132 -253.977149 
L 268.5755 -253.958259 
L 265.007868 -253.958259 
L 261.440235 -252.760625 
L 257.872603 -252.167476 
L 254.304971 -252.586836 
L 250.737338 -252.380934 
L 247.169706 -251.736781 
L 243.602074 -251.164411 
L 240.034441 -249.98189 
L 236.466809 -249.900757 
L 232.899176 -248.888152 
L 229.331544 -249.167726 
L 225.763912 -248.223221 
L 222.196279 -247.490284 
L 218.628647 -246.811137 
L 215.061015 -245.833621 
L 211.493382 -244.392306 
L 207.92575 -243.855827 
L 204.358118 -243.334459 
L 200.790485 -242.381878 
L 197.222853 -241.587124 
L 193.65522 -241.504008 
L 190.087588 -237.520083 
L 186.519956 -237.274511 
L 182.952323 -236.505684 
L 179.384691 -236.373453 
L 175.817059 -236.296004 
L 172.249426 -235.236268 
L 168.681794 -233.400149 
L 165.114161 -232.595431 
L 161.546529 -230.447625 
L 157.978897 -226.918952 
L 154.411264 -225.923443 
L 150.843632 -224.032543 
L 147.276 -223.473395 
L 143.708367 -220.876005 
L 140.140735 -217.94426 
L 136.573103 -214.357027 
L 133.00547 -214.311691 
L 129.437838 -213.68265 
L 125.870205 -213.499416 
L 122.302573 -211.625517 
L 118.734941 -202.308914 
L 115.167308 -200.812817 
L 111.599676 -199.499057 
L 108.032044 -196.902564 
L 104.464411 -189.117948 
L 100.896779 -183.692708 
L 97.329146 -176.457795 
L 93.761514 -167.139303 
L 90.193882 -154.662384 
L 86.626249 -144.053697 
L 83.058617 -123.894169 
L 79.490985 -96.603624 
L 75.923352 -70.661833 
z
" id="m67767f52db" style="stroke:#1f77b4;stroke-opacity:0.2;"/>
    </defs>
    <g clip-path="url(#pb6f4967118)">
     <use style="fill:#1f77b4;fill-opacity:0.2;stroke:#1f77b4;stroke-opacity:0.2;" x="0" xlink:href="#m67767f52db" y="325.986375"/>
    </g>
   </g>
   <g id="PolyCollection_3">
    <defs>
     <path d="M 75.923352 -77.743736 
L 75.923352 -68.774711 
L 79.490985 -85.998715 
L 83.058617 -108.317382 
L 86.626249 -118.463262 
L 90.193882 -119.815794 
L 93.761514 -120.189818 
L 97.329146 -121.189105 
L 100.896779 -122.084496 
L 104.464411 -123.287796 
L 108.032044 -123.588149 
L 111.599676 -124.113294 
L 115.167308 -126.291324 
L 118.734941 -127.105488 
L 122.302573 -129.347744 
L 125.870205 -132.328604 
L 129.437838 -133.700026 
L 133.00547 -133.994712 
L 136.573103 -134.51419 
L 140.140735 -134.621864 
L 143.708367 -135.026112 
L 147.276 -135.077115 
L 150.843632 -136.627994 
L 154.411264 -136.677108 
L 157.978897 -136.739445 
L 161.546529 -136.792338 
L 165.114161 -135.721268 
L 168.681794 -137.880408 
L 172.249426 -138.936365 
L 175.817059 -138.989258 
L 179.384691 -140.664811 
L 182.952323 -143.190419 
L 186.519956 -143.745788 
L 190.087588 -145.750029 
L 193.65522 -149.139812 
L 197.222853 -149.847294 
L 200.790485 -149.869962 
L 204.358118 -149.967388 
L 207.92575 -150.000304 
L 211.493382 -150.034259 
L 215.061015 -150.079643 
L 218.628647 -150.106089 
L 222.196279 -150.121201 
L 225.763912 -150.242098 
L 229.331544 -155.92396 
L 232.899176 -156.389318 
L 236.466809 -157.065206 
L 240.034441 -157.955166 
L 243.602074 -159.131218 
L 247.169706 -158.483853 
L 250.737338 -154.290249 
L 254.304971 -158.600972 
L 257.872603 -159.260237 
L 261.440235 -159.260237 
L 265.007868 -159.764603 
L 268.5755 -165.121839 
L 272.143132 -165.125617 
L 275.710765 -160.949013 
L 279.278397 -165.029797 
L 282.84603 -161.001905 
L 286.413662 -161.079355 
L 289.981294 -161.258811 
L 293.548927 -161.302258 
L 297.116559 -161.215222 
L 300.684191 -161.330593 
L 304.251824 -161.370263 
L 307.819456 -161.464713 
L 311.387089 -170.123941 
L 314.954721 -172.332195 
L 318.522353 -172.351085 
L 322.089986 -172.354863 
L 325.657618 -179.096744 
L 329.22525 -179.185527 
L 332.792883 -179.357427 
L 336.360515 -180.564506 
L 339.928147 -180.481389 
L 343.49578 -175.943984 
L 347.063412 -181.498055 
L 350.631045 -178.443146 
L 354.198677 -181.920816 
L 357.766309 -181.960485 
L 361.333942 -182.058713 
L 364.901574 -169.663022 
L 368.469206 -182.31373 
L 372.036839 -182.680198 
L 375.604471 -183.103337 
L 379.172104 -183.432969 
L 382.739736 -183.569309 
L 386.307368 -183.807938 
L 389.875001 -179.1043 
L 393.442633 -183.936391 
L 397.010265 -183.911881 
L 400.577898 -173.04813 
L 400.577898 -252.567946 
L 400.577898 -252.567946 
L 397.010265 -254.893319 
L 393.442633 -254.863095 
L 389.875001 -254.579743 
L 386.307368 -254.048931 
L 382.739736 -254.048931 
L 379.172104 -253.937479 
L 375.604471 -253.389666 
L 372.036839 -252.998641 
L 368.469206 -252.549245 
L 364.901574 -251.71978 
L 361.333942 -251.704668 
L 357.766309 -251.702779 
L 354.198677 -247.991864 
L 350.631045 -249.42841 
L 347.063412 -248.965602 
L 343.49578 -246.519332 
L 339.928147 -241.959259 
L 336.360515 -241.923368 
L 332.792883 -238.103835 
L 329.22525 -241.471894 
L 325.657618 -241.226323 
L 322.089986 -242.73262 
L 318.522353 -240.087249 
L 314.954721 -240.079693 
L 311.387089 -240.034357 
L 307.819456 -239.337312 
L 304.251824 -239.312755 
L 300.684191 -239.248528 
L 297.116559 -238.736606 
L 293.548927 -236.692696 
L 289.981294 -236.825352 
L 286.413662 -235.501769 
L 282.84603 -235.421391 
L 279.278397 -234.692233 
L 275.710765 -233.271697 
L 272.143132 -232.90334 
L 268.5755 -230.887765 
L 265.007868 -230.942546 
L 261.440235 -227.691558 
L 257.872603 -230.889654 
L 254.304971 -227.512101 
L 250.737338 -227.154039 
L 247.169706 -227.020959 
L 243.602074 -230.859429 
L 240.034441 -226.966177 
L 236.466809 -226.96051 
L 232.899176 -226.947287 
L 229.331544 -226.937842 
L 225.763912 -226.917063 
L 222.196279 -226.888728 
L 218.628647 -226.862282 
L 215.061015 -226.841503 
L 211.493382 -226.790499 
L 207.92575 -226.78861 
L 204.358118 -226.786721 
L 200.790485 -226.756497 
L 197.222853 -226.754608 
L 193.65522 -227.655666 
L 190.087588 -226.713853 
L 186.519956 -226.67527 
L 182.952323 -226.658268 
L 179.384691 -227.45732 
L 175.817059 -226.552484 
L 172.249426 -226.503369 
L 168.681794 -225.953667 
L 165.114161 -225.930999 
L 161.546529 -225.27929 
L 157.978897 -224.579175 
L 154.411264 -224.308338 
L 150.843632 -222.508536 
L 147.276 -228.260669 
L 143.708367 -220.945898 
L 140.140735 -220.753219 
L 136.573103 -220.698438 
L 133.00547 -220.418864 
L 129.437838 -220.131735 
L 125.870205 -219.96928 
L 122.302573 -218.503549 
L 118.734941 -215.756785 
L 115.167308 -209.876293 
L 111.599676 -208.943121 
L 108.032044 -209.995442 
L 104.464411 -204.966753 
L 100.896779 -195.023895 
L 97.329146 -188.930936 
L 93.761514 -181.612907 
L 90.193882 -168.296464 
L 86.626249 -151.847757 
L 83.058617 -138.687016 
L 79.490985 -115.570997 
L 75.923352 -77.743736 
z
" id="m5df2baa109" style="stroke:#98df8a;stroke-opacity:0.2;"/>
    </defs>
    <g clip-path="url(#pb6f4967118)">
     <use style="fill:#98df8a;fill-opacity:0.2;stroke:#98df8a;stroke-opacity:0.2;" x="0" xlink:href="#m5df2baa109" y="325.986375"/>
    </g>
   </g>
   <g id="matplotlib.axis_1">
    <g id="xtick_1">
     <g id="line2d_1">
      <defs>
       <path d="M 0 0 
L 0 3.5 
" id="m53e7e1427c" style="stroke:#000000;stroke-width:0.8;"/>
      </defs>
      <g>
       <use style="stroke:#000000;stroke-width:0.8;" x="75.923352" xlink:href="#m53e7e1427c" y="288.430125"/>
      </g>
     </g>
     <g id="text_1">
      <!-- 15m -->
      <g transform="translate(64.69054 303.028562)scale(0.1 -0.1)">
       <defs>
        <path d="M 794 531 
L 1825 531 
L 1825 4091 
L 703 3866 
L 703 4441 
L 1819 4666 
L 2450 4666 
L 2450 531 
L 3481 531 
L 3481 0 
L 794 0 
L 794 531 
z
" id="DejaVuSans-31" transform="scale(0.015625)"/>
        <path d="M 691 4666 
L 3169 4666 
L 3169 4134 
L 1269 4134 
L 1269 2991 
Q 1406 3038 1543 3061 
Q 1681 3084 1819 3084 
Q 2600 3084 3056 2656 
Q 3513 2228 3513 1497 
Q 3513 744 3044 326 
Q 2575 -91 1722 -91 
Q 1428 -91 1123 -41 
Q 819 9 494 109 
L 494 744 
Q 775 591 1075 516 
Q 1375 441 1709 441 
Q 2250 441 2565 725 
Q 2881 1009 2881 1497 
Q 2881 1984 2565 2268 
Q 2250 2553 1709 2553 
Q 1456 2553 1204 2497 
Q 953 2441 691 2322 
L 691 4666 
z
" id="DejaVuSans-35" transform="scale(0.015625)"/>
        <path d="M 3328 2828 
Q 3544 3216 3844 3400 
Q 4144 3584 4550 3584 
Q 5097 3584 5394 3201 
Q 5691 2819 5691 2113 
L 5691 0 
L 5113 0 
L 5113 2094 
Q 5113 2597 4934 2840 
Q 4756 3084 4391 3084 
Q 3944 3084 3684 2787 
Q 3425 2491 3425 1978 
L 3425 0 
L 2847 0 
L 2847 2094 
Q 2847 2600 2669 2842 
Q 2491 3084 2119 3084 
Q 1678 3084 1418 2786 
Q 1159 2488 1159 1978 
L 1159 0 
L 581 0 
L 581 3500 
L 1159 3500 
L 1159 2956 
Q 1356 3278 1631 3431 
Q 1906 3584 2284 3584 
Q 2666 3584 2933 3390 
Q 3200 3197 3328 2828 
z
" id="DejaVuSans-6d" transform="scale(0.015625)"/>
       </defs>
       <use xlink:href="#DejaVuSans-31"/>
       <use x="63.623047" xlink:href="#DejaVuSans-35"/>
       <use x="127.246094" xlink:href="#DejaVuSans-6d"/>
      </g>
     </g>
    </g>
    <g id="xtick_2">
     <g id="line2d_2">
      <g>
       <use style="stroke:#000000;stroke-width:0.8;" x="130.627049" xlink:href="#m53e7e1427c" y="288.430125"/>
      </g>
     </g>
     <g id="text_2">
      <!-- 4h:5m -->
      <g transform="translate(114.541111 303.028562)scale(0.1 -0.1)">
       <defs>
        <path d="M 2419 4116 
L 825 1625 
L 2419 1625 
L 2419 4116 
z
M 2253 4666 
L 3047 4666 
L 3047 1625 
L 3713 1625 
L 3713 1100 
L 3047 1100 
L 3047 0 
L 2419 0 
L 2419 1100 
L 313 1100 
L 313 1709 
L 2253 4666 
z
" id="DejaVuSans-34" transform="scale(0.015625)"/>
        <path d="M 3513 2113 
L 3513 0 
L 2938 0 
L 2938 2094 
Q 2938 2591 2744 2837 
Q 2550 3084 2163 3084 
Q 1697 3084 1428 2787 
Q 1159 2491 1159 1978 
L 1159 0 
L 581 0 
L 581 4863 
L 1159 4863 
L 1159 2956 
Q 1366 3272 1645 3428 
Q 1925 3584 2291 3584 
Q 2894 3584 3203 3211 
Q 3513 2838 3513 2113 
z
" id="DejaVuSans-68" transform="scale(0.015625)"/>
        <path d="M 750 794 
L 1409 794 
L 1409 0 
L 750 0 
L 750 794 
z
M 750 3309 
L 1409 3309 
L 1409 2516 
L 750 2516 
L 750 3309 
z
" id="DejaVuSans-3a" transform="scale(0.015625)"/>
       </defs>
       <use xlink:href="#DejaVuSans-34"/>
       <use x="63.623047" xlink:href="#DejaVuSans-68"/>
       <use x="127.001953" xlink:href="#DejaVuSans-3a"/>
       <use x="160.693359" xlink:href="#DejaVuSans-35"/>
       <use x="224.316406" xlink:href="#DejaVuSans-6d"/>
      </g>
     </g>
    </g>
    <g id="xtick_3">
     <g id="line2d_3">
      <g>
       <use style="stroke:#000000;stroke-width:0.8;" x="185.330745" xlink:href="#m53e7e1427c" y="288.430125"/>
      </g>
     </g>
     <g id="text_3">
      <!-- 7h:55m -->
      <g transform="translate(166.063557 303.028562)scale(0.1 -0.1)">
       <defs>
        <path d="M 525 4666 
L 3525 4666 
L 3525 4397 
L 1831 0 
L 1172 0 
L 2766 4134 
L 525 4134 
L 525 4666 
z
" id="DejaVuSans-37" transform="scale(0.015625)"/>
       </defs>
       <use xlink:href="#DejaVuSans-37"/>
       <use x="63.623047" xlink:href="#DejaVuSans-68"/>
       <use x="127.001953" xlink:href="#DejaVuSans-3a"/>
       <use x="160.693359" xlink:href="#DejaVuSans-35"/>
       <use x="224.316406" xlink:href="#DejaVuSans-35"/>
       <use x="287.939453" xlink:href="#DejaVuSans-6d"/>
      </g>
     </g>
    </g>
    <g id="xtick_4">
     <g id="line2d_4">
      <g>
       <use style="stroke:#000000;stroke-width:0.8;" x="240.034441" xlink:href="#m53e7e1427c" y="288.430125"/>
      </g>
     </g>
     <g id="text_4">
      <!-- 11h:45m -->
      <g transform="translate(217.586004 303.028562)scale(0.1 -0.1)">
       <use xlink:href="#DejaVuSans-31"/>
       <use x="63.623047" xlink:href="#DejaVuSans-31"/>
       <use x="127.246094" xlink:href="#DejaVuSans-68"/>
       <use x="190.625" xlink:href="#DejaVuSans-3a"/>
       <use x="224.316406" xlink:href="#DejaVuSans-34"/>
       <use x="287.939453" xlink:href="#DejaVuSans-35"/>
       <use x="351.5625" xlink:href="#DejaVuSans-6d"/>
      </g>
     </g>
    </g>
    <g id="xtick_5">
     <g id="line2d_5">
      <g>
       <use style="stroke:#000000;stroke-width:0.8;" x="294.738137" xlink:href="#m53e7e1427c" y="288.430125"/>
      </g>
     </g>
     <g id="text_5">
      <!-- 15h:35m -->
      <g transform="translate(272.2897 303.028562)scale(0.1 -0.1)">
       <defs>
        <path d="M 2597 2516 
Q 3050 2419 3304 2112 
Q 3559 1806 3559 1356 
Q 3559 666 3084 287 
Q 2609 -91 1734 -91 
Q 1441 -91 1130 -33 
Q 819 25 488 141 
L 488 750 
Q 750 597 1062 519 
Q 1375 441 1716 441 
Q 2309 441 2620 675 
Q 2931 909 2931 1356 
Q 2931 1769 2642 2001 
Q 2353 2234 1838 2234 
L 1294 2234 
L 1294 2753 
L 1863 2753 
Q 2328 2753 2575 2939 
Q 2822 3125 2822 3475 
Q 2822 3834 2567 4026 
Q 2313 4219 1838 4219 
Q 1578 4219 1281 4162 
Q 984 4106 628 3988 
L 628 4550 
Q 988 4650 1302 4700 
Q 1616 4750 1894 4750 
Q 2613 4750 3031 4423 
Q 3450 4097 3450 3541 
Q 3450 3153 3228 2886 
Q 3006 2619 2597 2516 
z
" id="DejaVuSans-33" transform="scale(0.015625)"/>
       </defs>
       <use xlink:href="#DejaVuSans-31"/>
       <use x="63.623047" xlink:href="#DejaVuSans-35"/>
       <use x="127.246094" xlink:href="#DejaVuSans-68"/>
       <use x="190.625" xlink:href="#DejaVuSans-3a"/>
       <use x="224.316406" xlink:href="#DejaVuSans-33"/>
       <use x="287.939453" xlink:href="#DejaVuSans-35"/>
       <use x="351.5625" xlink:href="#DejaVuSans-6d"/>
      </g>
     </g>
    </g>
    <g id="xtick_6">
     <g id="line2d_6">
      <g>
       <use style="stroke:#000000;stroke-width:0.8;" x="349.441834" xlink:href="#m53e7e1427c" y="288.430125"/>
      </g>
     </g>
     <g id="text_6">
      <!-- 19h:25m -->
      <g transform="translate(326.993396 303.028562)scale(0.1 -0.1)">
       <defs>
        <path d="M 703 97 
L 703 672 
Q 941 559 1184 500 
Q 1428 441 1663 441 
Q 2288 441 2617 861 
Q 2947 1281 2994 2138 
Q 2813 1869 2534 1725 
Q 2256 1581 1919 1581 
Q 1219 1581 811 2004 
Q 403 2428 403 3163 
Q 403 3881 828 4315 
Q 1253 4750 1959 4750 
Q 2769 4750 3195 4129 
Q 3622 3509 3622 2328 
Q 3622 1225 3098 567 
Q 2575 -91 1691 -91 
Q 1453 -91 1209 -44 
Q 966 3 703 97 
z
M 1959 2075 
Q 2384 2075 2632 2365 
Q 2881 2656 2881 3163 
Q 2881 3666 2632 3958 
Q 2384 4250 1959 4250 
Q 1534 4250 1286 3958 
Q 1038 3666 1038 3163 
Q 1038 2656 1286 2365 
Q 1534 2075 1959 2075 
z
" id="DejaVuSans-39" transform="scale(0.015625)"/>
        <path d="M 1228 531 
L 3431 531 
L 3431 0 
L 469 0 
L 469 531 
Q 828 903 1448 1529 
Q 2069 2156 2228 2338 
Q 2531 2678 2651 2914 
Q 2772 3150 2772 3378 
Q 2772 3750 2511 3984 
Q 2250 4219 1831 4219 
Q 1534 4219 1204 4116 
Q 875 4013 500 3803 
L 500 4441 
Q 881 4594 1212 4672 
Q 1544 4750 1819 4750 
Q 2544 4750 2975 4387 
Q 3406 4025 3406 3419 
Q 3406 3131 3298 2873 
Q 3191 2616 2906 2266 
Q 2828 2175 2409 1742 
Q 1991 1309 1228 531 
z
" id="DejaVuSans-32" transform="scale(0.015625)"/>
       </defs>
       <use xlink:href="#DejaVuSans-31"/>
       <use x="63.623047" xlink:href="#DejaVuSans-39"/>
       <use x="127.246094" xlink:href="#DejaVuSans-68"/>
       <use x="190.625" xlink:href="#DejaVuSans-3a"/>
       <use x="224.316406" xlink:href="#DejaVuSans-32"/>
       <use x="287.939453" xlink:href="#DejaVuSans-35"/>
       <use x="351.5625" xlink:href="#DejaVuSans-6d"/>
      </g>
     </g>
    </g>
    <g id="text_7">
     <!-- Time (hour:minute) -->
     <g transform="translate(189.843594 316.706687)scale(0.1 -0.1)">
      <defs>
       <path d="M -19 4666 
L 3928 4666 
L 3928 4134 
L 2272 4134 
L 2272 0 
L 1638 0 
L 1638 4134 
L -19 4134 
L -19 4666 
z
" id="DejaVuSans-54" transform="scale(0.015625)"/>
       <path d="M 603 3500 
L 1178 3500 
L 1178 0 
L 603 0 
L 603 3500 
z
M 603 4863 
L 1178 4863 
L 1178 4134 
L 603 4134 
L 603 4863 
z
" id="DejaVuSans-69" transform="scale(0.015625)"/>
       <path d="M 3597 1894 
L 3597 1613 
L 953 1613 
Q 991 1019 1311 708 
Q 1631 397 2203 397 
Q 2534 397 2845 478 
Q 3156 559 3463 722 
L 3463 178 
Q 3153 47 2828 -22 
Q 2503 -91 2169 -91 
Q 1331 -91 842 396 
Q 353 884 353 1716 
Q 353 2575 817 3079 
Q 1281 3584 2069 3584 
Q 2775 3584 3186 3129 
Q 3597 2675 3597 1894 
z
M 3022 2063 
Q 3016 2534 2758 2815 
Q 2500 3097 2075 3097 
Q 1594 3097 1305 2825 
Q 1016 2553 972 2059 
L 3022 2063 
z
" id="DejaVuSans-65" transform="scale(0.015625)"/>
       <path id="DejaVuSans-20" transform="scale(0.015625)"/>
       <path d="M 1984 4856 
Q 1566 4138 1362 3434 
Q 1159 2731 1159 2009 
Q 1159 1288 1364 580 
Q 1569 -128 1984 -844 
L 1484 -844 
Q 1016 -109 783 600 
Q 550 1309 550 2009 
Q 550 2706 781 3412 
Q 1013 4119 1484 4856 
L 1984 4856 
z
" id="DejaVuSans-28" transform="scale(0.015625)"/>
       <path d="M 1959 3097 
Q 1497 3097 1228 2736 
Q 959 2375 959 1747 
Q 959 1119 1226 758 
Q 1494 397 1959 397 
Q 2419 397 2687 759 
Q 2956 1122 2956 1747 
Q 2956 2369 2687 2733 
Q 2419 3097 1959 3097 
z
M 1959 3584 
Q 2709 3584 3137 3096 
Q 3566 2609 3566 1747 
Q 3566 888 3137 398 
Q 2709 -91 1959 -91 
Q 1206 -91 779 398 
Q 353 888 353 1747 
Q 353 2609 779 3096 
Q 1206 3584 1959 3584 
z
" id="DejaVuSans-6f" transform="scale(0.015625)"/>
       <path d="M 544 1381 
L 544 3500 
L 1119 3500 
L 1119 1403 
Q 1119 906 1312 657 
Q 1506 409 1894 409 
Q 2359 409 2629 706 
Q 2900 1003 2900 1516 
L 2900 3500 
L 3475 3500 
L 3475 0 
L 2900 0 
L 2900 538 
Q 2691 219 2414 64 
Q 2138 -91 1772 -91 
Q 1169 -91 856 284 
Q 544 659 544 1381 
z
M 1991 3584 
L 1991 3584 
z
" id="DejaVuSans-75" transform="scale(0.015625)"/>
       <path d="M 2631 2963 
Q 2534 3019 2420 3045 
Q 2306 3072 2169 3072 
Q 1681 3072 1420 2755 
Q 1159 2438 1159 1844 
L 1159 0 
L 581 0 
L 581 3500 
L 1159 3500 
L 1159 2956 
Q 1341 3275 1631 3429 
Q 1922 3584 2338 3584 
Q 2397 3584 2469 3576 
Q 2541 3569 2628 3553 
L 2631 2963 
z
" id="DejaVuSans-72" transform="scale(0.015625)"/>
       <path d="M 3513 2113 
L 3513 0 
L 2938 0 
L 2938 2094 
Q 2938 2591 2744 2837 
Q 2550 3084 2163 3084 
Q 1697 3084 1428 2787 
Q 1159 2491 1159 1978 
L 1159 0 
L 581 0 
L 581 3500 
L 1159 3500 
L 1159 2956 
Q 1366 3272 1645 3428 
Q 1925 3584 2291 3584 
Q 2894 3584 3203 3211 
Q 3513 2838 3513 2113 
z
" id="DejaVuSans-6e" transform="scale(0.015625)"/>
       <path d="M 1172 4494 
L 1172 3500 
L 2356 3500 
L 2356 3053 
L 1172 3053 
L 1172 1153 
Q 1172 725 1289 603 
Q 1406 481 1766 481 
L 2356 481 
L 2356 0 
L 1766 0 
Q 1100 0 847 248 
Q 594 497 594 1153 
L 594 3053 
L 172 3053 
L 172 3500 
L 594 3500 
L 594 4494 
L 1172 4494 
z
" id="DejaVuSans-74" transform="scale(0.015625)"/>
       <path d="M 513 4856 
L 1013 4856 
Q 1481 4119 1714 3412 
Q 1947 2706 1947 2009 
Q 1947 1309 1714 600 
Q 1481 -109 1013 -844 
L 513 -844 
Q 928 -128 1133 580 
Q 1338 1288 1338 2009 
Q 1338 2731 1133 3434 
Q 928 4138 513 4856 
z
" id="DejaVuSans-29" transform="scale(0.015625)"/>
      </defs>
      <use xlink:href="#DejaVuSans-54"/>
      <use x="57.958984" xlink:href="#DejaVuSans-69"/>
      <use x="85.742188" xlink:href="#DejaVuSans-6d"/>
      <use x="183.154297" xlink:href="#DejaVuSans-65"/>
      <use x="244.677734" xlink:href="#DejaVuSans-20"/>
      <use x="276.464844" xlink:href="#DejaVuSans-28"/>
      <use x="315.478516" xlink:href="#DejaVuSans-68"/>
      <use x="378.857422" xlink:href="#DejaVuSans-6f"/>
      <use x="440.039062" xlink:href="#DejaVuSans-75"/>
      <use x="503.417969" xlink:href="#DejaVuSans-72"/>
      <use x="542.78125" xlink:href="#DejaVuSans-3a"/>
      <use x="576.472656" xlink:href="#DejaVuSans-6d"/>
      <use x="673.884766" xlink:href="#DejaVuSans-69"/>
      <use x="701.667969" xlink:href="#DejaVuSans-6e"/>
      <use x="765.046875" xlink:href="#DejaVuSans-75"/>
      <use x="828.425781" xlink:href="#DejaVuSans-74"/>
      <use x="867.634766" xlink:href="#DejaVuSans-65"/>
      <use x="929.158203" xlink:href="#DejaVuSans-29"/>
     </g>
    </g>
   </g>
   <g id="matplotlib.axis_2">
    <g id="ytick_1">
     <g id="line2d_7">
      <defs>
       <path d="M 0 0 
L -3.5 0 
" id="m991127ba22" style="stroke:#000000;stroke-width:0.8;"/>
      </defs>
      <g>
       <use style="stroke:#000000;stroke-width:0.8;" x="59.690625" xlink:href="#m991127ba22" y="269.550686"/>
      </g>
     </g>
     <g id="text_8">
      <!-- 20000 -->
      <g transform="translate(20.878125 273.349904)scale(0.1 -0.1)">
       <defs>
        <path d="M 2034 4250 
Q 1547 4250 1301 3770 
Q 1056 3291 1056 2328 
Q 1056 1369 1301 889 
Q 1547 409 2034 409 
Q 2525 409 2770 889 
Q 3016 1369 3016 2328 
Q 3016 3291 2770 3770 
Q 2525 4250 2034 4250 
z
M 2034 4750 
Q 2819 4750 3233 4129 
Q 3647 3509 3647 2328 
Q 3647 1150 3233 529 
Q 2819 -91 2034 -91 
Q 1250 -91 836 529 
Q 422 1150 422 2328 
Q 422 3509 836 4129 
Q 1250 4750 2034 4750 
z
" id="DejaVuSans-30" transform="scale(0.015625)"/>
       </defs>
       <use xlink:href="#DejaVuSans-32"/>
       <use x="63.623047" xlink:href="#DejaVuSans-30"/>
       <use x="127.246094" xlink:href="#DejaVuSans-30"/>
       <use x="190.869141" xlink:href="#DejaVuSans-30"/>
       <use x="254.492188" xlink:href="#DejaVuSans-30"/>
      </g>
     </g>
    </g>
    <g id="ytick_2">
     <g id="line2d_8">
      <g>
       <use style="stroke:#000000;stroke-width:0.8;" x="59.690625" xlink:href="#m991127ba22" y="231.770461"/>
      </g>
     </g>
     <g id="text_9">
      <!-- 30000 -->
      <g transform="translate(20.878125 235.56968)scale(0.1 -0.1)">
       <use xlink:href="#DejaVuSans-33"/>
       <use x="63.623047" xlink:href="#DejaVuSans-30"/>
       <use x="127.246094" xlink:href="#DejaVuSans-30"/>
       <use x="190.869141" xlink:href="#DejaVuSans-30"/>
       <use x="254.492188" xlink:href="#DejaVuSans-30"/>
      </g>
     </g>
    </g>
    <g id="ytick_3">
     <g id="line2d_9">
      <g>
       <use style="stroke:#000000;stroke-width:0.8;" x="59.690625" xlink:href="#m991127ba22" y="193.990237"/>
      </g>
     </g>
     <g id="text_10">
      <!-- 40000 -->
      <g transform="translate(20.878125 197.789456)scale(0.1 -0.1)">
       <use xlink:href="#DejaVuSans-34"/>
       <use x="63.623047" xlink:href="#DejaVuSans-30"/>
       <use x="127.246094" xlink:href="#DejaVuSans-30"/>
       <use x="190.869141" xlink:href="#DejaVuSans-30"/>
       <use x="254.492188" xlink:href="#DejaVuSans-30"/>
      </g>
     </g>
    </g>
    <g id="ytick_4">
     <g id="line2d_10">
      <g>
       <use style="stroke:#000000;stroke-width:0.8;" x="59.690625" xlink:href="#m991127ba22" y="156.210012"/>
      </g>
     </g>
     <g id="text_11">
      <!-- 50000 -->
      <g transform="translate(20.878125 160.009231)scale(0.1 -0.1)">
       <use xlink:href="#DejaVuSans-35"/>
       <use x="63.623047" xlink:href="#DejaVuSans-30"/>
       <use x="127.246094" xlink:href="#DejaVuSans-30"/>
       <use x="190.869141" xlink:href="#DejaVuSans-30"/>
       <use x="254.492188" xlink:href="#DejaVuSans-30"/>
      </g>
     </g>
    </g>
    <g id="ytick_5">
     <g id="line2d_11">
      <g>
       <use style="stroke:#000000;stroke-width:0.8;" x="59.690625" xlink:href="#m991127ba22" y="118.429788"/>
      </g>
     </g>
     <g id="text_12">
      <!-- 60000 -->
      <g transform="translate(20.878125 122.229007)scale(0.1 -0.1)">
       <defs>
        <path d="M 2113 2584 
Q 1688 2584 1439 2293 
Q 1191 2003 1191 1497 
Q 1191 994 1439 701 
Q 1688 409 2113 409 
Q 2538 409 2786 701 
Q 3034 994 3034 1497 
Q 3034 2003 2786 2293 
Q 2538 2584 2113 2584 
z
M 3366 4563 
L 3366 3988 
Q 3128 4100 2886 4159 
Q 2644 4219 2406 4219 
Q 1781 4219 1451 3797 
Q 1122 3375 1075 2522 
Q 1259 2794 1537 2939 
Q 1816 3084 2150 3084 
Q 2853 3084 3261 2657 
Q 3669 2231 3669 1497 
Q 3669 778 3244 343 
Q 2819 -91 2113 -91 
Q 1303 -91 875 529 
Q 447 1150 447 2328 
Q 447 3434 972 4092 
Q 1497 4750 2381 4750 
Q 2619 4750 2861 4703 
Q 3103 4656 3366 4563 
z
" id="DejaVuSans-36" transform="scale(0.015625)"/>
       </defs>
       <use xlink:href="#DejaVuSans-36"/>
       <use x="63.623047" xlink:href="#DejaVuSans-30"/>
       <use x="127.246094" xlink:href="#DejaVuSans-30"/>
       <use x="190.869141" xlink:href="#DejaVuSans-30"/>
       <use x="254.492188" xlink:href="#DejaVuSans-30"/>
      </g>
     </g>
    </g>
    <g id="ytick_6">
     <g id="line2d_12">
      <g>
       <use style="stroke:#000000;stroke-width:0.8;" x="59.690625" xlink:href="#m991127ba22" y="80.649564"/>
      </g>
     </g>
     <g id="text_13">
      <!-- 70000 -->
      <g transform="translate(20.878125 84.448782)scale(0.1 -0.1)">
       <use xlink:href="#DejaVuSans-37"/>
       <use x="63.623047" xlink:href="#DejaVuSans-30"/>
       <use x="127.246094" xlink:href="#DejaVuSans-30"/>
       <use x="190.869141" xlink:href="#DejaVuSans-30"/>
       <use x="254.492188" xlink:href="#DejaVuSans-30"/>
      </g>
     </g>
    </g>
    <g id="ytick_7">
     <g id="line2d_13">
      <g>
       <use style="stroke:#000000;stroke-width:0.8;" x="59.690625" xlink:href="#m991127ba22" y="42.869339"/>
      </g>
     </g>
     <g id="text_14">
      <!-- 80000 -->
      <g transform="translate(20.878125 46.668558)scale(0.1 -0.1)">
       <defs>
        <path d="M 2034 2216 
Q 1584 2216 1326 1975 
Q 1069 1734 1069 1313 
Q 1069 891 1326 650 
Q 1584 409 2034 409 
Q 2484 409 2743 651 
Q 3003 894 3003 1313 
Q 3003 1734 2745 1975 
Q 2488 2216 2034 2216 
z
M 1403 2484 
Q 997 2584 770 2862 
Q 544 3141 544 3541 
Q 544 4100 942 4425 
Q 1341 4750 2034 4750 
Q 2731 4750 3128 4425 
Q 3525 4100 3525 3541 
Q 3525 3141 3298 2862 
Q 3072 2584 2669 2484 
Q 3125 2378 3379 2068 
Q 3634 1759 3634 1313 
Q 3634 634 3220 271 
Q 2806 -91 2034 -91 
Q 1263 -91 848 271 
Q 434 634 434 1313 
Q 434 1759 690 2068 
Q 947 2378 1403 2484 
z
M 1172 3481 
Q 1172 3119 1398 2916 
Q 1625 2713 2034 2713 
Q 2441 2713 2670 2916 
Q 2900 3119 2900 3481 
Q 2900 3844 2670 4047 
Q 2441 4250 2034 4250 
Q 1625 4250 1398 4047 
Q 1172 3844 1172 3481 
z
" id="DejaVuSans-38" transform="scale(0.015625)"/>
       </defs>
       <use xlink:href="#DejaVuSans-38"/>
       <use x="63.623047" xlink:href="#DejaVuSans-30"/>
       <use x="127.246094" xlink:href="#DejaVuSans-30"/>
       <use x="190.869141" xlink:href="#DejaVuSans-30"/>
       <use x="254.492188" xlink:href="#DejaVuSans-30"/>
      </g>
     </g>
    </g>
    <g id="text_15">
     <!-- Code region coverage -->
     <g transform="translate(14.798438 210.379594)rotate(-90)scale(0.1 -0.1)">
      <defs>
       <path d="M 4122 4306 
L 4122 3641 
Q 3803 3938 3442 4084 
Q 3081 4231 2675 4231 
Q 1875 4231 1450 3742 
Q 1025 3253 1025 2328 
Q 1025 1406 1450 917 
Q 1875 428 2675 428 
Q 3081 428 3442 575 
Q 3803 722 4122 1019 
L 4122 359 
Q 3791 134 3420 21 
Q 3050 -91 2638 -91 
Q 1578 -91 968 557 
Q 359 1206 359 2328 
Q 359 3453 968 4101 
Q 1578 4750 2638 4750 
Q 3056 4750 3426 4639 
Q 3797 4528 4122 4306 
z
" id="DejaVuSans-43" transform="scale(0.015625)"/>
       <path d="M 2906 2969 
L 2906 4863 
L 3481 4863 
L 3481 0 
L 2906 0 
L 2906 525 
Q 2725 213 2448 61 
Q 2172 -91 1784 -91 
Q 1150 -91 751 415 
Q 353 922 353 1747 
Q 353 2572 751 3078 
Q 1150 3584 1784 3584 
Q 2172 3584 2448 3432 
Q 2725 3281 2906 2969 
z
M 947 1747 
Q 947 1113 1208 752 
Q 1469 391 1925 391 
Q 2381 391 2643 752 
Q 2906 1113 2906 1747 
Q 2906 2381 2643 2742 
Q 2381 3103 1925 3103 
Q 1469 3103 1208 2742 
Q 947 2381 947 1747 
z
" id="DejaVuSans-64" transform="scale(0.015625)"/>
       <path d="M 2906 1791 
Q 2906 2416 2648 2759 
Q 2391 3103 1925 3103 
Q 1463 3103 1205 2759 
Q 947 2416 947 1791 
Q 947 1169 1205 825 
Q 1463 481 1925 481 
Q 2391 481 2648 825 
Q 2906 1169 2906 1791 
z
M 3481 434 
Q 3481 -459 3084 -895 
Q 2688 -1331 1869 -1331 
Q 1566 -1331 1297 -1286 
Q 1028 -1241 775 -1147 
L 775 -588 
Q 1028 -725 1275 -790 
Q 1522 -856 1778 -856 
Q 2344 -856 2625 -561 
Q 2906 -266 2906 331 
L 2906 616 
Q 2728 306 2450 153 
Q 2172 0 1784 0 
Q 1141 0 747 490 
Q 353 981 353 1791 
Q 353 2603 747 3093 
Q 1141 3584 1784 3584 
Q 2172 3584 2450 3431 
Q 2728 3278 2906 2969 
L 2906 3500 
L 3481 3500 
L 3481 434 
z
" id="DejaVuSans-67" transform="scale(0.015625)"/>
       <path d="M 3122 3366 
L 3122 2828 
Q 2878 2963 2633 3030 
Q 2388 3097 2138 3097 
Q 1578 3097 1268 2742 
Q 959 2388 959 1747 
Q 959 1106 1268 751 
Q 1578 397 2138 397 
Q 2388 397 2633 464 
Q 2878 531 3122 666 
L 3122 134 
Q 2881 22 2623 -34 
Q 2366 -91 2075 -91 
Q 1284 -91 818 406 
Q 353 903 353 1747 
Q 353 2603 823 3093 
Q 1294 3584 2113 3584 
Q 2378 3584 2631 3529 
Q 2884 3475 3122 3366 
z
" id="DejaVuSans-63" transform="scale(0.015625)"/>
       <path d="M 191 3500 
L 800 3500 
L 1894 563 
L 2988 3500 
L 3597 3500 
L 2284 0 
L 1503 0 
L 191 3500 
z
" id="DejaVuSans-76" transform="scale(0.015625)"/>
       <path d="M 2194 1759 
Q 1497 1759 1228 1600 
Q 959 1441 959 1056 
Q 959 750 1161 570 
Q 1363 391 1709 391 
Q 2188 391 2477 730 
Q 2766 1069 2766 1631 
L 2766 1759 
L 2194 1759 
z
M 3341 1997 
L 3341 0 
L 2766 0 
L 2766 531 
Q 2569 213 2275 61 
Q 1981 -91 1556 -91 
Q 1019 -91 701 211 
Q 384 513 384 1019 
Q 384 1609 779 1909 
Q 1175 2209 1959 2209 
L 2766 2209 
L 2766 2266 
Q 2766 2663 2505 2880 
Q 2244 3097 1772 3097 
Q 1472 3097 1187 3025 
Q 903 2953 641 2809 
L 641 3341 
Q 956 3463 1253 3523 
Q 1550 3584 1831 3584 
Q 2591 3584 2966 3190 
Q 3341 2797 3341 1997 
z
" id="DejaVuSans-61" transform="scale(0.015625)"/>
      </defs>
      <use xlink:href="#DejaVuSans-43"/>
      <use x="69.824219" xlink:href="#DejaVuSans-6f"/>
      <use x="131.005859" xlink:href="#DejaVuSans-64"/>
      <use x="194.482422" xlink:href="#DejaVuSans-65"/>
      <use x="256.005859" xlink:href="#DejaVuSans-20"/>
      <use x="287.792969" xlink:href="#DejaVuSans-72"/>
      <use x="326.65625" xlink:href="#DejaVuSans-65"/>
      <use x="388.179688" xlink:href="#DejaVuSans-67"/>
      <use x="451.65625" xlink:href="#DejaVuSans-69"/>
      <use x="479.439453" xlink:href="#DejaVuSans-6f"/>
      <use x="540.621094" xlink:href="#DejaVuSans-6e"/>
      <use x="604" xlink:href="#DejaVuSans-20"/>
      <use x="635.787109" xlink:href="#DejaVuSans-63"/>
      <use x="690.767578" xlink:href="#DejaVuSans-6f"/>
      <use x="751.949219" xlink:href="#DejaVuSans-76"/>
      <use x="811.128906" xlink:href="#DejaVuSans-65"/>
      <use x="872.652344" xlink:href="#DejaVuSans-72"/>
      <use x="913.765625" xlink:href="#DejaVuSans-61"/>
      <use x="975.044922" xlink:href="#DejaVuSans-67"/>
      <use x="1038.521484" xlink:href="#DejaVuSans-65"/>
     </g>
    </g>
   </g>
   <g id="line2d_14">
    <path clip-path="url(#pb6f4967118)" d="M 75.923352 254.227027 
L 79.490985 229.907896 
L 83.058617 208.65652 
L 86.626249 195.996367 
L 90.193882 176.409209 
L 93.761514 159.529005 
L 97.329146 151.326918 
L 100.896779 145.45965 
L 104.464411 140.591668 
L 108.032044 131.490412 
L 111.599676 126.061393 
L 115.167308 121.267083 
L 118.734941 119.797432 
L 122.302573 116.750457 
L 125.870205 113.072552 
L 129.437838 110.762292 
L 133.00547 107.6322 
L 136.573103 106.481792 
L 140.140735 102.76044 
L 143.708367 100.629635 
L 147.276 99.178875 
L 150.843632 97.376758 
L 154.411264 95.874994 
L 157.978897 93.893421 
L 161.546529 91.305476 
L 165.114161 89.422132 
L 168.681794 88.254723 
L 172.249426 86.191923 
L 175.817059 84.316134 
L 179.384691 82.553687 
L 182.952323 80.812019 
L 186.519956 79.518046 
L 190.087588 77.289013 
L 193.65522 74.905081 
L 197.222853 73.365536 
L 200.790485 72.181126 
L 204.358118 71.317848 
L 207.92575 70.144772 
L 211.493382 69.759414 
L 215.061015 69.421281 
L 218.628647 68.10464 
L 222.196279 67.452931 
L 225.763912 65.779267 
L 229.331544 64.649639 
L 232.899176 64.419179 
L 236.466809 63.918591 
L 240.034441 63.750469 
L 243.602074 61.39865 
L 247.169706 60.848948 
L 250.737338 59.558753 
L 254.304971 58.759702 
L 257.872603 58.073991 
L 261.440235 57.443061 
L 265.007868 56.902804 
L 268.5755 56.729015 
L 272.143132 56.047081 
L 275.710765 55.644722 
L 279.278397 55.561606 
L 282.84603 53.840716 
L 286.413662 53.391132 
L 289.981294 52.499518 
L 293.548927 52.161385 
L 297.116559 52.161385 
L 300.684191 51.167766 
L 304.251824 50.786185 
L 307.819456 50.228927 
L 311.387089 49.796343 
L 314.954721 49.392095 
L 318.522353 48.492926 
L 322.089986 48.322915 
L 325.657618 47.561643 
L 329.22525 47.251845 
L 332.792883 46.671919 
L 336.360515 45.5234 
L 339.928147 44.971809 
L 343.49578 44.52978 
L 347.063412 44.221871 
L 350.631045 43.657057 
L 354.198677 43.362371 
L 357.766309 42.37064 
L 361.333942 42.170405 
L 364.901574 41.939946 
L 368.469206 41.649038 
L 372.036839 41.20512 
L 375.604471 40.899101 
L 379.172104 40.721533 
L 382.739736 40.508075 
L 386.307368 40.372066 
L 389.875001 39.879034 
L 393.442633 37.759564 
L 397.010265 37.476212 
L 400.577898 37.787899 
" style="fill:none;stroke:#d62728;stroke-linecap:square;stroke-width:1.5;"/>
    <defs>
     <path d="M 0 -3 
L -3 3 
L 3 3 
z
" id="m7d0a1b93e2" style="stroke:#ffffff;stroke-linejoin:miter;stroke-width:0.75;"/>
    </defs>
    <g clip-path="url(#pb6f4967118)">
     <use style="fill:#d62728;stroke:#ffffff;stroke-linejoin:miter;stroke-width:0.75;" x="75.923352" xlink:href="#m7d0a1b93e2" y="254.227027"/>
     <use style="fill:#d62728;stroke:#ffffff;stroke-linejoin:miter;stroke-width:0.75;" x="79.490985" xlink:href="#m7d0a1b93e2" y="229.907896"/>
     <use style="fill:#d62728;stroke:#ffffff;stroke-linejoin:miter;stroke-width:0.75;" x="83.058617" xlink:href="#m7d0a1b93e2" y="208.65652"/>
     <use style="fill:#d62728;stroke:#ffffff;stroke-linejoin:miter;stroke-width:0.75;" x="86.626249" xlink:href="#m7d0a1b93e2" y="195.996367"/>
     <use style="fill:#d62728;stroke:#ffffff;stroke-linejoin:miter;stroke-width:0.75;" x="90.193882" xlink:href="#m7d0a1b93e2" y="176.409209"/>
     <use style="fill:#d62728;stroke:#ffffff;stroke-linejoin:miter;stroke-width:0.75;" x="93.761514" xlink:href="#m7d0a1b93e2" y="159.529005"/>
     <use style="fill:#d62728;stroke:#ffffff;stroke-linejoin:miter;stroke-width:0.75;" x="97.329146" xlink:href="#m7d0a1b93e2" y="151.326918"/>
     <use style="fill:#d62728;stroke:#ffffff;stroke-linejoin:miter;stroke-width:0.75;" x="100.896779" xlink:href="#m7d0a1b93e2" y="145.45965"/>
     <use style="fill:#d62728;stroke:#ffffff;stroke-linejoin:miter;stroke-width:0.75;" x="104.464411" xlink:href="#m7d0a1b93e2" y="140.591668"/>
     <use style="fill:#d62728;stroke:#ffffff;stroke-linejoin:miter;stroke-width:0.75;" x="108.032044" xlink:href="#m7d0a1b93e2" y="131.490412"/>
     <use style="fill:#d62728;stroke:#ffffff;stroke-linejoin:miter;stroke-width:0.75;" x="111.599676" xlink:href="#m7d0a1b93e2" y="126.061393"/>
     <use style="fill:#d62728;stroke:#ffffff;stroke-linejoin:miter;stroke-width:0.75;" x="115.167308" xlink:href="#m7d0a1b93e2" y="121.267083"/>
     <use style="fill:#d62728;stroke:#ffffff;stroke-linejoin:miter;stroke-width:0.75;" x="118.734941" xlink:href="#m7d0a1b93e2" y="119.797432"/>
     <use style="fill:#d62728;stroke:#ffffff;stroke-linejoin:miter;stroke-width:0.75;" x="122.302573" xlink:href="#m7d0a1b93e2" y="116.750457"/>
     <use style="fill:#d62728;stroke:#ffffff;stroke-linejoin:miter;stroke-width:0.75;" x="125.870205" xlink:href="#m7d0a1b93e2" y="113.072552"/>
     <use style="fill:#d62728;stroke:#ffffff;stroke-linejoin:miter;stroke-width:0.75;" x="129.437838" xlink:href="#m7d0a1b93e2" y="110.762292"/>
     <use style="fill:#d62728;stroke:#ffffff;stroke-linejoin:miter;stroke-width:0.75;" x="133.00547" xlink:href="#m7d0a1b93e2" y="107.6322"/>
     <use style="fill:#d62728;stroke:#ffffff;stroke-linejoin:miter;stroke-width:0.75;" x="136.573103" xlink:href="#m7d0a1b93e2" y="106.481792"/>
     <use style="fill:#d62728;stroke:#ffffff;stroke-linejoin:miter;stroke-width:0.75;" x="140.140735" xlink:href="#m7d0a1b93e2" y="102.76044"/>
     <use style="fill:#d62728;stroke:#ffffff;stroke-linejoin:miter;stroke-width:0.75;" x="143.708367" xlink:href="#m7d0a1b93e2" y="100.629635"/>
     <use style="fill:#d62728;stroke:#ffffff;stroke-linejoin:miter;stroke-width:0.75;" x="147.276" xlink:href="#m7d0a1b93e2" y="99.178875"/>
     <use style="fill:#d62728;stroke:#ffffff;stroke-linejoin:miter;stroke-width:0.75;" x="150.843632" xlink:href="#m7d0a1b93e2" y="97.376758"/>
     <use style="fill:#d62728;stroke:#ffffff;stroke-linejoin:miter;stroke-width:0.75;" x="154.411264" xlink:href="#m7d0a1b93e2" y="95.874994"/>
     <use style="fill:#d62728;stroke:#ffffff;stroke-linejoin:miter;stroke-width:0.75;" x="157.978897" xlink:href="#m7d0a1b93e2" y="93.893421"/>
     <use style="fill:#d62728;stroke:#ffffff;stroke-linejoin:miter;stroke-width:0.75;" x="161.546529" xlink:href="#m7d0a1b93e2" y="91.305476"/>
     <use style="fill:#d62728;stroke:#ffffff;stroke-linejoin:miter;stroke-width:0.75;" x="165.114161" xlink:href="#m7d0a1b93e2" y="89.422132"/>
     <use style="fill:#d62728;stroke:#ffffff;stroke-linejoin:miter;stroke-width:0.75;" x="168.681794" xlink:href="#m7d0a1b93e2" y="88.254723"/>
     <use style="fill:#d62728;stroke:#ffffff;stroke-linejoin:miter;stroke-width:0.75;" x="172.249426" xlink:href="#m7d0a1b93e2" y="86.191923"/>
     <use style="fill:#d62728;stroke:#ffffff;stroke-linejoin:miter;stroke-width:0.75;" x="175.817059" xlink:href="#m7d0a1b93e2" y="84.316134"/>
     <use style="fill:#d62728;stroke:#ffffff;stroke-linejoin:miter;stroke-width:0.75;" x="179.384691" xlink:href="#m7d0a1b93e2" y="82.553687"/>
     <use style="fill:#d62728;stroke:#ffffff;stroke-linejoin:miter;stroke-width:0.75;" x="182.952323" xlink:href="#m7d0a1b93e2" y="80.812019"/>
     <use style="fill:#d62728;stroke:#ffffff;stroke-linejoin:miter;stroke-width:0.75;" x="186.519956" xlink:href="#m7d0a1b93e2" y="79.518046"/>
     <use style="fill:#d62728;stroke:#ffffff;stroke-linejoin:miter;stroke-width:0.75;" x="190.087588" xlink:href="#m7d0a1b93e2" y="77.289013"/>
     <use style="fill:#d62728;stroke:#ffffff;stroke-linejoin:miter;stroke-width:0.75;" x="193.65522" xlink:href="#m7d0a1b93e2" y="74.905081"/>
     <use style="fill:#d62728;stroke:#ffffff;stroke-linejoin:miter;stroke-width:0.75;" x="197.222853" xlink:href="#m7d0a1b93e2" y="73.365536"/>
     <use style="fill:#d62728;stroke:#ffffff;stroke-linejoin:miter;stroke-width:0.75;" x="200.790485" xlink:href="#m7d0a1b93e2" y="72.181126"/>
     <use style="fill:#d62728;stroke:#ffffff;stroke-linejoin:miter;stroke-width:0.75;" x="204.358118" xlink:href="#m7d0a1b93e2" y="71.317848"/>
     <use style="fill:#d62728;stroke:#ffffff;stroke-linejoin:miter;stroke-width:0.75;" x="207.92575" xlink:href="#m7d0a1b93e2" y="70.144772"/>
     <use style="fill:#d62728;stroke:#ffffff;stroke-linejoin:miter;stroke-width:0.75;" x="211.493382" xlink:href="#m7d0a1b93e2" y="69.759414"/>
     <use style="fill:#d62728;stroke:#ffffff;stroke-linejoin:miter;stroke-width:0.75;" x="215.061015" xlink:href="#m7d0a1b93e2" y="69.421281"/>
     <use style="fill:#d62728;stroke:#ffffff;stroke-linejoin:miter;stroke-width:0.75;" x="218.628647" xlink:href="#m7d0a1b93e2" y="68.10464"/>
     <use style="fill:#d62728;stroke:#ffffff;stroke-linejoin:miter;stroke-width:0.75;" x="222.196279" xlink:href="#m7d0a1b93e2" y="67.452931"/>
     <use style="fill:#d62728;stroke:#ffffff;stroke-linejoin:miter;stroke-width:0.75;" x="225.763912" xlink:href="#m7d0a1b93e2" y="65.779267"/>
     <use style="fill:#d62728;stroke:#ffffff;stroke-linejoin:miter;stroke-width:0.75;" x="229.331544" xlink:href="#m7d0a1b93e2" y="64.649639"/>
     <use style="fill:#d62728;stroke:#ffffff;stroke-linejoin:miter;stroke-width:0.75;" x="232.899176" xlink:href="#m7d0a1b93e2" y="64.419179"/>
     <use style="fill:#d62728;stroke:#ffffff;stroke-linejoin:miter;stroke-width:0.75;" x="236.466809" xlink:href="#m7d0a1b93e2" y="63.918591"/>
     <use style="fill:#d62728;stroke:#ffffff;stroke-linejoin:miter;stroke-width:0.75;" x="240.034441" xlink:href="#m7d0a1b93e2" y="63.750469"/>
     <use style="fill:#d62728;stroke:#ffffff;stroke-linejoin:miter;stroke-width:0.75;" x="243.602074" xlink:href="#m7d0a1b93e2" y="61.39865"/>
     <use style="fill:#d62728;stroke:#ffffff;stroke-linejoin:miter;stroke-width:0.75;" x="247.169706" xlink:href="#m7d0a1b93e2" y="60.848948"/>
     <use style="fill:#d62728;stroke:#ffffff;stroke-linejoin:miter;stroke-width:0.75;" x="250.737338" xlink:href="#m7d0a1b93e2" y="59.558753"/>
     <use style="fill:#d62728;stroke:#ffffff;stroke-linejoin:miter;stroke-width:0.75;" x="254.304971" xlink:href="#m7d0a1b93e2" y="58.759702"/>
     <use style="fill:#d62728;stroke:#ffffff;stroke-linejoin:miter;stroke-width:0.75;" x="257.872603" xlink:href="#m7d0a1b93e2" y="58.073991"/>
     <use style="fill:#d62728;stroke:#ffffff;stroke-linejoin:miter;stroke-width:0.75;" x="261.440235" xlink:href="#m7d0a1b93e2" y="57.443061"/>
     <use style="fill:#d62728;stroke:#ffffff;stroke-linejoin:miter;stroke-width:0.75;" x="265.007868" xlink:href="#m7d0a1b93e2" y="56.902804"/>
     <use style="fill:#d62728;stroke:#ffffff;stroke-linejoin:miter;stroke-width:0.75;" x="268.5755" xlink:href="#m7d0a1b93e2" y="56.729015"/>
     <use style="fill:#d62728;stroke:#ffffff;stroke-linejoin:miter;stroke-width:0.75;" x="272.143132" xlink:href="#m7d0a1b93e2" y="56.047081"/>
     <use style="fill:#d62728;stroke:#ffffff;stroke-linejoin:miter;stroke-width:0.75;" x="275.710765" xlink:href="#m7d0a1b93e2" y="55.644722"/>
     <use style="fill:#d62728;stroke:#ffffff;stroke-linejoin:miter;stroke-width:0.75;" x="279.278397" xlink:href="#m7d0a1b93e2" y="55.561606"/>
     <use style="fill:#d62728;stroke:#ffffff;stroke-linejoin:miter;stroke-width:0.75;" x="282.84603" xlink:href="#m7d0a1b93e2" y="53.840716"/>
     <use style="fill:#d62728;stroke:#ffffff;stroke-linejoin:miter;stroke-width:0.75;" x="286.413662" xlink:href="#m7d0a1b93e2" y="53.391132"/>
     <use style="fill:#d62728;stroke:#ffffff;stroke-linejoin:miter;stroke-width:0.75;" x="289.981294" xlink:href="#m7d0a1b93e2" y="52.499518"/>
     <use style="fill:#d62728;stroke:#ffffff;stroke-linejoin:miter;stroke-width:0.75;" x="293.548927" xlink:href="#m7d0a1b93e2" y="52.161385"/>
     <use style="fill:#d62728;stroke:#ffffff;stroke-linejoin:miter;stroke-width:0.75;" x="297.116559" xlink:href="#m7d0a1b93e2" y="52.161385"/>
     <use style="fill:#d62728;stroke:#ffffff;stroke-linejoin:miter;stroke-width:0.75;" x="300.684191" xlink:href="#m7d0a1b93e2" y="51.167766"/>
     <use style="fill:#d62728;stroke:#ffffff;stroke-linejoin:miter;stroke-width:0.75;" x="304.251824" xlink:href="#m7d0a1b93e2" y="50.786185"/>
     <use style="fill:#d62728;stroke:#ffffff;stroke-linejoin:miter;stroke-width:0.75;" x="307.819456" xlink:href="#m7d0a1b93e2" y="50.228927"/>
     <use style="fill:#d62728;stroke:#ffffff;stroke-linejoin:miter;stroke-width:0.75;" x="311.387089" xlink:href="#m7d0a1b93e2" y="49.796343"/>
     <use style="fill:#d62728;stroke:#ffffff;stroke-linejoin:miter;stroke-width:0.75;" x="314.954721" xlink:href="#m7d0a1b93e2" y="49.392095"/>
     <use style="fill:#d62728;stroke:#ffffff;stroke-linejoin:miter;stroke-width:0.75;" x="318.522353" xlink:href="#m7d0a1b93e2" y="48.492926"/>
     <use style="fill:#d62728;stroke:#ffffff;stroke-linejoin:miter;stroke-width:0.75;" x="322.089986" xlink:href="#m7d0a1b93e2" y="48.322915"/>
     <use style="fill:#d62728;stroke:#ffffff;stroke-linejoin:miter;stroke-width:0.75;" x="325.657618" xlink:href="#m7d0a1b93e2" y="47.561643"/>
     <use style="fill:#d62728;stroke:#ffffff;stroke-linejoin:miter;stroke-width:0.75;" x="329.22525" xlink:href="#m7d0a1b93e2" y="47.251845"/>
     <use style="fill:#d62728;stroke:#ffffff;stroke-linejoin:miter;stroke-width:0.75;" x="332.792883" xlink:href="#m7d0a1b93e2" y="46.671919"/>
     <use style="fill:#d62728;stroke:#ffffff;stroke-linejoin:miter;stroke-width:0.75;" x="336.360515" xlink:href="#m7d0a1b93e2" y="45.5234"/>
     <use style="fill:#d62728;stroke:#ffffff;stroke-linejoin:miter;stroke-width:0.75;" x="339.928147" xlink:href="#m7d0a1b93e2" y="44.971809"/>
     <use style="fill:#d62728;stroke:#ffffff;stroke-linejoin:miter;stroke-width:0.75;" x="343.49578" xlink:href="#m7d0a1b93e2" y="44.52978"/>
     <use style="fill:#d62728;stroke:#ffffff;stroke-linejoin:miter;stroke-width:0.75;" x="347.063412" xlink:href="#m7d0a1b93e2" y="44.221871"/>
     <use style="fill:#d62728;stroke:#ffffff;stroke-linejoin:miter;stroke-width:0.75;" x="350.631045" xlink:href="#m7d0a1b93e2" y="43.657057"/>
     <use style="fill:#d62728;stroke:#ffffff;stroke-linejoin:miter;stroke-width:0.75;" x="354.198677" xlink:href="#m7d0a1b93e2" y="43.362371"/>
     <use style="fill:#d62728;stroke:#ffffff;stroke-linejoin:miter;stroke-width:0.75;" x="357.766309" xlink:href="#m7d0a1b93e2" y="42.37064"/>
     <use style="fill:#d62728;stroke:#ffffff;stroke-linejoin:miter;stroke-width:0.75;" x="361.333942" xlink:href="#m7d0a1b93e2" y="42.170405"/>
     <use style="fill:#d62728;stroke:#ffffff;stroke-linejoin:miter;stroke-width:0.75;" x="364.901574" xlink:href="#m7d0a1b93e2" y="41.939946"/>
     <use style="fill:#d62728;stroke:#ffffff;stroke-linejoin:miter;stroke-width:0.75;" x="368.469206" xlink:href="#m7d0a1b93e2" y="41.649038"/>
     <use style="fill:#d62728;stroke:#ffffff;stroke-linejoin:miter;stroke-width:0.75;" x="372.036839" xlink:href="#m7d0a1b93e2" y="41.20512"/>
     <use style="fill:#d62728;stroke:#ffffff;stroke-linejoin:miter;stroke-width:0.75;" x="375.604471" xlink:href="#m7d0a1b93e2" y="40.899101"/>
     <use style="fill:#d62728;stroke:#ffffff;stroke-linejoin:miter;stroke-width:0.75;" x="379.172104" xlink:href="#m7d0a1b93e2" y="40.721533"/>
     <use style="fill:#d62728;stroke:#ffffff;stroke-linejoin:miter;stroke-width:0.75;" x="382.739736" xlink:href="#m7d0a1b93e2" y="40.508075"/>
     <use style="fill:#d62728;stroke:#ffffff;stroke-linejoin:miter;stroke-width:0.75;" x="386.307368" xlink:href="#m7d0a1b93e2" y="40.372066"/>
     <use style="fill:#d62728;stroke:#ffffff;stroke-linejoin:miter;stroke-width:0.75;" x="389.875001" xlink:href="#m7d0a1b93e2" y="39.879034"/>
     <use style="fill:#d62728;stroke:#ffffff;stroke-linejoin:miter;stroke-width:0.75;" x="393.442633" xlink:href="#m7d0a1b93e2" y="37.759564"/>
     <use style="fill:#d62728;stroke:#ffffff;stroke-linejoin:miter;stroke-width:0.75;" x="397.010265" xlink:href="#m7d0a1b93e2" y="37.476212"/>
     <use style="fill:#d62728;stroke:#ffffff;stroke-linejoin:miter;stroke-width:0.75;" x="400.577898" xlink:href="#m7d0a1b93e2" y="37.787899"/>
    </g>
   </g>
   <g id="line2d_15">
    <path clip-path="url(#pb6f4967118)" d="M 75.923352 266.414927 
L 79.490985 231.927249 
L 83.058617 208.565847 
L 86.626249 193.168517 
L 90.193882 181.551098 
L 93.761514 176.224086 
L 97.329146 173.203557 
L 100.896779 166.221772 
L 104.464411 160.607631 
L 108.032044 160.161824 
L 111.599676 153.08181 
L 115.167308 152.758789 
L 118.734941 149.08844 
L 122.302573 142.314446 
L 125.870205 137.665589 
L 129.437838 132.693712 
L 133.00547 132.113785 
L 136.573103 131.97022 
L 140.140735 130.751808 
L 143.708367 130.598798 
L 147.276 124.365061 
L 150.843632 120.063783 
L 154.411264 115.418704 
L 157.978897 115.169355 
L 161.546529 115.069237 
L 165.114161 115.005011 
L 168.681794 109.016845 
L 172.249426 105.739411 
L 175.817059 103.083461 
L 179.384691 103.02868 
L 182.952323 102.45442 
L 186.519956 101.513693 
L 190.087588 101.047107 
L 193.65522 97.782895 
L 197.222853 96.005336 
L 200.790485 95.502859 
L 204.358118 93.279493 
L 207.92575 92.591893 
L 211.493382 92.546556 
L 215.061015 91.405594 
L 218.628647 91.235583 
L 222.196279 90.240074 
L 225.763912 87.157207 
L 229.331544 87.121316 
L 232.899176 87.047645 
L 236.466809 86.088027 
L 240.034441 86.008688 
L 243.602074 84.24813 
L 247.169706 83.433966 
L 250.737338 83.396186 
L 254.304971 83.218619 
L 257.872603 81.95487 
L 261.440235 81.662074 
L 265.007868 81.578957 
L 268.5755 79.159134 
L 272.143132 78.618877 
L 275.710765 78.275077 
L 279.278397 78.273188 
L 282.84603 76.780869 
L 286.413662 75.628572 
L 289.981294 75.371666 
L 293.548927 75.271549 
L 297.116559 74.566948 
L 300.684191 74.481942 
L 304.251824 73.756562 
L 307.819456 72.955621 
L 311.387089 72.917841 
L 314.954721 72.914063 
L 318.522353 72.895173 
L 322.089986 72.757275 
L 325.657618 71.807102 
L 329.22525 70.856929 
L 332.792883 69.629072 
L 336.360515 69.068036 
L 339.928147 68.694012 
L 343.49578 68.688345 
L 347.063412 68.652453 
L 350.631045 68.605228 
L 354.198677 67.214916 
L 357.766309 65.760377 
L 361.333942 65.203119 
L 364.901574 62.460275 
L 368.469206 61.759451 
L 372.036839 61.15119 
L 375.604471 60.531594 
L 379.172104 59.54553 
L 382.739736 59.267846 
L 386.307368 58.623693 
L 389.875001 57.971984 
L 393.442633 57.715078 
L 397.010265 56.424884 
L 400.577898 53.338239 
" style="fill:none;stroke:#1f77b4;stroke-linecap:square;stroke-width:1.5;"/>
    <defs>
     <path d="M 0 3 
C 0.795609 3 1.55874 2.683901 2.12132 2.12132 
C 2.683901 1.55874 3 0.795609 3 0 
C 3 -0.795609 2.683901 -1.55874 2.12132 -2.12132 
C 1.55874 -2.683901 0.795609 -3 0 -3 
C -0.795609 -3 -1.55874 -2.683901 -2.12132 -2.12132 
C -2.683901 -1.55874 -3 -0.795609 -3 0 
C -3 0.795609 -2.683901 1.55874 -2.12132 2.12132 
C -1.55874 2.683901 -0.795609 3 0 3 
z
" id="mc6549f8553" style="stroke:#ffffff;stroke-width:0.75;"/>
    </defs>
    <g clip-path="url(#pb6f4967118)">
     <use style="fill:#1f77b4;stroke:#ffffff;stroke-width:0.75;" x="75.923352" xlink:href="#mc6549f8553" y="266.414927"/>
     <use style="fill:#1f77b4;stroke:#ffffff;stroke-width:0.75;" x="79.490985" xlink:href="#mc6549f8553" y="231.927249"/>
     <use style="fill:#1f77b4;stroke:#ffffff;stroke-width:0.75;" x="83.058617" xlink:href="#mc6549f8553" y="208.565847"/>
     <use style="fill:#1f77b4;stroke:#ffffff;stroke-width:0.75;" x="86.626249" xlink:href="#mc6549f8553" y="193.168517"/>
     <use style="fill:#1f77b4;stroke:#ffffff;stroke-width:0.75;" x="90.193882" xlink:href="#mc6549f8553" y="181.551098"/>
     <use style="fill:#1f77b4;stroke:#ffffff;stroke-width:0.75;" x="93.761514" xlink:href="#mc6549f8553" y="176.224086"/>
     <use style="fill:#1f77b4;stroke:#ffffff;stroke-width:0.75;" x="97.329146" xlink:href="#mc6549f8553" y="173.203557"/>
     <use style="fill:#1f77b4;stroke:#ffffff;stroke-width:0.75;" x="100.896779" xlink:href="#mc6549f8553" y="166.221772"/>
     <use style="fill:#1f77b4;stroke:#ffffff;stroke-width:0.75;" x="104.464411" xlink:href="#mc6549f8553" y="160.607631"/>
     <use style="fill:#1f77b4;stroke:#ffffff;stroke-width:0.75;" x="108.032044" xlink:href="#mc6549f8553" y="160.161824"/>
     <use style="fill:#1f77b4;stroke:#ffffff;stroke-width:0.75;" x="111.599676" xlink:href="#mc6549f8553" y="153.08181"/>
     <use style="fill:#1f77b4;stroke:#ffffff;stroke-width:0.75;" x="115.167308" xlink:href="#mc6549f8553" y="152.758789"/>
     <use style="fill:#1f77b4;stroke:#ffffff;stroke-width:0.75;" x="118.734941" xlink:href="#mc6549f8553" y="149.08844"/>
     <use style="fill:#1f77b4;stroke:#ffffff;stroke-width:0.75;" x="122.302573" xlink:href="#mc6549f8553" y="142.314446"/>
     <use style="fill:#1f77b4;stroke:#ffffff;stroke-width:0.75;" x="125.870205" xlink:href="#mc6549f8553" y="137.665589"/>
     <use style="fill:#1f77b4;stroke:#ffffff;stroke-width:0.75;" x="129.437838" xlink:href="#mc6549f8553" y="132.693712"/>
     <use style="fill:#1f77b4;stroke:#ffffff;stroke-width:0.75;" x="133.00547" xlink:href="#mc6549f8553" y="132.113785"/>
     <use style="fill:#1f77b4;stroke:#ffffff;stroke-width:0.75;" x="136.573103" xlink:href="#mc6549f8553" y="131.97022"/>
     <use style="fill:#1f77b4;stroke:#ffffff;stroke-width:0.75;" x="140.140735" xlink:href="#mc6549f8553" y="130.751808"/>
     <use style="fill:#1f77b4;stroke:#ffffff;stroke-width:0.75;" x="143.708367" xlink:href="#mc6549f8553" y="130.598798"/>
     <use style="fill:#1f77b4;stroke:#ffffff;stroke-width:0.75;" x="147.276" xlink:href="#mc6549f8553" y="124.365061"/>
     <use style="fill:#1f77b4;stroke:#ffffff;stroke-width:0.75;" x="150.843632" xlink:href="#mc6549f8553" y="120.063783"/>
     <use style="fill:#1f77b4;stroke:#ffffff;stroke-width:0.75;" x="154.411264" xlink:href="#mc6549f8553" y="115.418704"/>
     <use style="fill:#1f77b4;stroke:#ffffff;stroke-width:0.75;" x="157.978897" xlink:href="#mc6549f8553" y="115.169355"/>
     <use style="fill:#1f77b4;stroke:#ffffff;stroke-width:0.75;" x="161.546529" xlink:href="#mc6549f8553" y="115.069237"/>
     <use style="fill:#1f77b4;stroke:#ffffff;stroke-width:0.75;" x="165.114161" xlink:href="#mc6549f8553" y="115.005011"/>
     <use style="fill:#1f77b4;stroke:#ffffff;stroke-width:0.75;" x="168.681794" xlink:href="#mc6549f8553" y="109.016845"/>
     <use style="fill:#1f77b4;stroke:#ffffff;stroke-width:0.75;" x="172.249426" xlink:href="#mc6549f8553" y="105.739411"/>
     <use style="fill:#1f77b4;stroke:#ffffff;stroke-width:0.75;" x="175.817059" xlink:href="#mc6549f8553" y="103.083461"/>
     <use style="fill:#1f77b4;stroke:#ffffff;stroke-width:0.75;" x="179.384691" xlink:href="#mc6549f8553" y="103.02868"/>
     <use style="fill:#1f77b4;stroke:#ffffff;stroke-width:0.75;" x="182.952323" xlink:href="#mc6549f8553" y="102.45442"/>
     <use style="fill:#1f77b4;stroke:#ffffff;stroke-width:0.75;" x="186.519956" xlink:href="#mc6549f8553" y="101.513693"/>
     <use style="fill:#1f77b4;stroke:#ffffff;stroke-width:0.75;" x="190.087588" xlink:href="#mc6549f8553" y="101.047107"/>
     <use style="fill:#1f77b4;stroke:#ffffff;stroke-width:0.75;" x="193.65522" xlink:href="#mc6549f8553" y="97.782895"/>
     <use style="fill:#1f77b4;stroke:#ffffff;stroke-width:0.75;" x="197.222853" xlink:href="#mc6549f8553" y="96.005336"/>
     <use style="fill:#1f77b4;stroke:#ffffff;stroke-width:0.75;" x="200.790485" xlink:href="#mc6549f8553" y="95.502859"/>
     <use style="fill:#1f77b4;stroke:#ffffff;stroke-width:0.75;" x="204.358118" xlink:href="#mc6549f8553" y="93.279493"/>
     <use style="fill:#1f77b4;stroke:#ffffff;stroke-width:0.75;" x="207.92575" xlink:href="#mc6549f8553" y="92.591893"/>
     <use style="fill:#1f77b4;stroke:#ffffff;stroke-width:0.75;" x="211.493382" xlink:href="#mc6549f8553" y="92.546556"/>
     <use style="fill:#1f77b4;stroke:#ffffff;stroke-width:0.75;" x="215.061015" xlink:href="#mc6549f8553" y="91.405594"/>
     <use style="fill:#1f77b4;stroke:#ffffff;stroke-width:0.75;" x="218.628647" xlink:href="#mc6549f8553" y="91.235583"/>
     <use style="fill:#1f77b4;stroke:#ffffff;stroke-width:0.75;" x="222.196279" xlink:href="#mc6549f8553" y="90.240074"/>
     <use style="fill:#1f77b4;stroke:#ffffff;stroke-width:0.75;" x="225.763912" xlink:href="#mc6549f8553" y="87.157207"/>
     <use style="fill:#1f77b4;stroke:#ffffff;stroke-width:0.75;" x="229.331544" xlink:href="#mc6549f8553" y="87.121316"/>
     <use style="fill:#1f77b4;stroke:#ffffff;stroke-width:0.75;" x="232.899176" xlink:href="#mc6549f8553" y="87.047645"/>
     <use style="fill:#1f77b4;stroke:#ffffff;stroke-width:0.75;" x="236.466809" xlink:href="#mc6549f8553" y="86.088027"/>
     <use style="fill:#1f77b4;stroke:#ffffff;stroke-width:0.75;" x="240.034441" xlink:href="#mc6549f8553" y="86.008688"/>
     <use style="fill:#1f77b4;stroke:#ffffff;stroke-width:0.75;" x="243.602074" xlink:href="#mc6549f8553" y="84.24813"/>
     <use style="fill:#1f77b4;stroke:#ffffff;stroke-width:0.75;" x="247.169706" xlink:href="#mc6549f8553" y="83.433966"/>
     <use style="fill:#1f77b4;stroke:#ffffff;stroke-width:0.75;" x="250.737338" xlink:href="#mc6549f8553" y="83.396186"/>
     <use style="fill:#1f77b4;stroke:#ffffff;stroke-width:0.75;" x="254.304971" xlink:href="#mc6549f8553" y="83.218619"/>
     <use style="fill:#1f77b4;stroke:#ffffff;stroke-width:0.75;" x="257.872603" xlink:href="#mc6549f8553" y="81.95487"/>
     <use style="fill:#1f77b4;stroke:#ffffff;stroke-width:0.75;" x="261.440235" xlink:href="#mc6549f8553" y="81.662074"/>
     <use style="fill:#1f77b4;stroke:#ffffff;stroke-width:0.75;" x="265.007868" xlink:href="#mc6549f8553" y="81.578957"/>
     <use style="fill:#1f77b4;stroke:#ffffff;stroke-width:0.75;" x="268.5755" xlink:href="#mc6549f8553" y="79.159134"/>
     <use style="fill:#1f77b4;stroke:#ffffff;stroke-width:0.75;" x="272.143132" xlink:href="#mc6549f8553" y="78.618877"/>
     <use style="fill:#1f77b4;stroke:#ffffff;stroke-width:0.75;" x="275.710765" xlink:href="#mc6549f8553" y="78.275077"/>
     <use style="fill:#1f77b4;stroke:#ffffff;stroke-width:0.75;" x="279.278397" xlink:href="#mc6549f8553" y="78.273188"/>
     <use style="fill:#1f77b4;stroke:#ffffff;stroke-width:0.75;" x="282.84603" xlink:href="#mc6549f8553" y="76.780869"/>
     <use style="fill:#1f77b4;stroke:#ffffff;stroke-width:0.75;" x="286.413662" xlink:href="#mc6549f8553" y="75.628572"/>
     <use style="fill:#1f77b4;stroke:#ffffff;stroke-width:0.75;" x="289.981294" xlink:href="#mc6549f8553" y="75.371666"/>
     <use style="fill:#1f77b4;stroke:#ffffff;stroke-width:0.75;" x="293.548927" xlink:href="#mc6549f8553" y="75.271549"/>
     <use style="fill:#1f77b4;stroke:#ffffff;stroke-width:0.75;" x="297.116559" xlink:href="#mc6549f8553" y="74.566948"/>
     <use style="fill:#1f77b4;stroke:#ffffff;stroke-width:0.75;" x="300.684191" xlink:href="#mc6549f8553" y="74.481942"/>
     <use style="fill:#1f77b4;stroke:#ffffff;stroke-width:0.75;" x="304.251824" xlink:href="#mc6549f8553" y="73.756562"/>
     <use style="fill:#1f77b4;stroke:#ffffff;stroke-width:0.75;" x="307.819456" xlink:href="#mc6549f8553" y="72.955621"/>
     <use style="fill:#1f77b4;stroke:#ffffff;stroke-width:0.75;" x="311.387089" xlink:href="#mc6549f8553" y="72.917841"/>
     <use style="fill:#1f77b4;stroke:#ffffff;stroke-width:0.75;" x="314.954721" xlink:href="#mc6549f8553" y="72.914063"/>
     <use style="fill:#1f77b4;stroke:#ffffff;stroke-width:0.75;" x="318.522353" xlink:href="#mc6549f8553" y="72.895173"/>
     <use style="fill:#1f77b4;stroke:#ffffff;stroke-width:0.75;" x="322.089986" xlink:href="#mc6549f8553" y="72.757275"/>
     <use style="fill:#1f77b4;stroke:#ffffff;stroke-width:0.75;" x="325.657618" xlink:href="#mc6549f8553" y="71.807102"/>
     <use style="fill:#1f77b4;stroke:#ffffff;stroke-width:0.75;" x="329.22525" xlink:href="#mc6549f8553" y="70.856929"/>
     <use style="fill:#1f77b4;stroke:#ffffff;stroke-width:0.75;" x="332.792883" xlink:href="#mc6549f8553" y="69.629072"/>
     <use style="fill:#1f77b4;stroke:#ffffff;stroke-width:0.75;" x="336.360515" xlink:href="#mc6549f8553" y="69.068036"/>
     <use style="fill:#1f77b4;stroke:#ffffff;stroke-width:0.75;" x="339.928147" xlink:href="#mc6549f8553" y="68.694012"/>
     <use style="fill:#1f77b4;stroke:#ffffff;stroke-width:0.75;" x="343.49578" xlink:href="#mc6549f8553" y="68.688345"/>
     <use style="fill:#1f77b4;stroke:#ffffff;stroke-width:0.75;" x="347.063412" xlink:href="#mc6549f8553" y="68.652453"/>
     <use style="fill:#1f77b4;stroke:#ffffff;stroke-width:0.75;" x="350.631045" xlink:href="#mc6549f8553" y="68.605228"/>
     <use style="fill:#1f77b4;stroke:#ffffff;stroke-width:0.75;" x="354.198677" xlink:href="#mc6549f8553" y="67.214916"/>
     <use style="fill:#1f77b4;stroke:#ffffff;stroke-width:0.75;" x="357.766309" xlink:href="#mc6549f8553" y="65.760377"/>
     <use style="fill:#1f77b4;stroke:#ffffff;stroke-width:0.75;" x="361.333942" xlink:href="#mc6549f8553" y="65.203119"/>
     <use style="fill:#1f77b4;stroke:#ffffff;stroke-width:0.75;" x="364.901574" xlink:href="#mc6549f8553" y="62.460275"/>
     <use style="fill:#1f77b4;stroke:#ffffff;stroke-width:0.75;" x="368.469206" xlink:href="#mc6549f8553" y="61.759451"/>
     <use style="fill:#1f77b4;stroke:#ffffff;stroke-width:0.75;" x="372.036839" xlink:href="#mc6549f8553" y="61.15119"/>
     <use style="fill:#1f77b4;stroke:#ffffff;stroke-width:0.75;" x="375.604471" xlink:href="#mc6549f8553" y="60.531594"/>
     <use style="fill:#1f77b4;stroke:#ffffff;stroke-width:0.75;" x="379.172104" xlink:href="#mc6549f8553" y="59.54553"/>
     <use style="fill:#1f77b4;stroke:#ffffff;stroke-width:0.75;" x="382.739736" xlink:href="#mc6549f8553" y="59.267846"/>
     <use style="fill:#1f77b4;stroke:#ffffff;stroke-width:0.75;" x="386.307368" xlink:href="#mc6549f8553" y="58.623693"/>
     <use style="fill:#1f77b4;stroke:#ffffff;stroke-width:0.75;" x="389.875001" xlink:href="#mc6549f8553" y="57.971984"/>
     <use style="fill:#1f77b4;stroke:#ffffff;stroke-width:0.75;" x="393.442633" xlink:href="#mc6549f8553" y="57.715078"/>
     <use style="fill:#1f77b4;stroke:#ffffff;stroke-width:0.75;" x="397.010265" xlink:href="#mc6549f8553" y="56.424884"/>
     <use style="fill:#1f77b4;stroke:#ffffff;stroke-width:0.75;" x="400.577898" xlink:href="#mc6549f8553" y="53.338239"/>
    </g>
   </g>
   <g id="line2d_16">
    <path clip-path="url(#pb6f4967118)" d="M 75.923352 250.016421 
L 79.490985 222.767434 
L 83.058617 206.911074 
L 86.626249 196.495066 
L 90.193882 188.65378 
L 93.761514 169.153517 
L 97.329146 166.728027 
L 100.896779 165.866638 
L 104.464411 165.160148 
L 108.032044 164.425322 
L 111.599676 164.092856 
L 115.167308 163.707498 
L 118.734941 163.562044 
L 122.302573 163.218244 
L 125.870205 163.0539 
L 129.437838 162.963228 
L 133.00547 162.853665 
L 136.573103 162.390857 
L 140.140735 162.254848 
L 143.708367 162.086726 
L 147.276 162.011166 
L 150.843632 161.941273 
L 154.411264 161.916715 
L 157.978897 161.810931 
L 161.546529 161.576693 
L 165.114161 161.37268 
L 168.681794 160.386616 
L 172.249426 159.795356 
L 175.817059 159.219207 
L 179.384691 158.786624 
L 182.952323 158.550497 
L 186.519956 158.414489 
L 190.087588 158.342706 
L 193.65522 158.236922 
L 197.222853 157.683441 
L 200.790485 152.747455 
L 204.358118 145.49743 
L 207.92575 134.395711 
L 211.493382 127.750169 
L 215.061015 125.68548 
L 218.628647 123.605679 
L 222.196279 117.135815 
L 225.763912 116.979027 
L 229.331544 116.861909 
L 232.899176 116.831685 
L 236.466809 116.803349 
L 240.034441 116.737234 
L 243.602074 116.737234 
L 247.169706 116.733456 
L 250.737338 116.731567 
L 254.304971 116.731567 
L 257.872603 116.691898 
L 261.440235 116.656007 
L 265.007868 116.656007 
L 268.5755 116.593669 
L 272.143132 114.927561 
L 275.710765 114.878447 
L 279.278397 114.808554 
L 282.84603 114.770773 
L 286.413662 114.768884 
L 289.981294 114.732993 
L 293.548927 114.404305 
L 297.116559 114.379748 
L 300.684191 114.364636 
L 304.251824 114.334412 
L 307.819456 114.334412 
L 311.387089 114.330634 
L 314.954721 114.130399 
L 318.522353 114.009502 
L 322.089986 114.009502 
L 325.657618 108.09123 
L 329.22525 108.085563 
L 332.792883 108.083674 
L 336.360515 108.083674 
L 339.928147 108.078007 
L 343.49578 108.064783 
L 347.063412 108.053449 
L 350.631045 108.05156 
L 354.198677 108.049671 
L 357.766309 108.023225 
L 361.333942 108.023225 
L 364.901574 108.021336 
L 368.469206 108.017558 
L 372.036839 107.996779 
L 375.604471 107.991112 
L 379.172104 107.991112 
L 382.739736 107.983556 
L 386.307368 107.979778 
L 389.875001 107.962777 
L 393.442633 107.962777 
L 397.010265 107.958999 
L 400.577898 109.237859 
" style="fill:none;stroke:#98df8a;stroke-linecap:square;stroke-width:1.5;"/>
    <defs>
     <path d="M -0 3 
L 3 -3 
L -3 -3 
z
" id="m966212f0d9" style="stroke:#ffffff;stroke-linejoin:miter;stroke-width:0.75;"/>
    </defs>
    <g clip-path="url(#pb6f4967118)">
     <use style="fill:#98df8a;stroke:#ffffff;stroke-linejoin:miter;stroke-width:0.75;" x="75.923352" xlink:href="#m966212f0d9" y="250.016421"/>
     <use style="fill:#98df8a;stroke:#ffffff;stroke-linejoin:miter;stroke-width:0.75;" x="79.490985" xlink:href="#m966212f0d9" y="222.767434"/>
     <use style="fill:#98df8a;stroke:#ffffff;stroke-linejoin:miter;stroke-width:0.75;" x="83.058617" xlink:href="#m966212f0d9" y="206.911074"/>
     <use style="fill:#98df8a;stroke:#ffffff;stroke-linejoin:miter;stroke-width:0.75;" x="86.626249" xlink:href="#m966212f0d9" y="196.495066"/>
     <use style="fill:#98df8a;stroke:#ffffff;stroke-linejoin:miter;stroke-width:0.75;" x="90.193882" xlink:href="#m966212f0d9" y="188.65378"/>
     <use style="fill:#98df8a;stroke:#ffffff;stroke-linejoin:miter;stroke-width:0.75;" x="93.761514" xlink:href="#m966212f0d9" y="169.153517"/>
     <use style="fill:#98df8a;stroke:#ffffff;stroke-linejoin:miter;stroke-width:0.75;" x="97.329146" xlink:href="#m966212f0d9" y="166.728027"/>
     <use style="fill:#98df8a;stroke:#ffffff;stroke-linejoin:miter;stroke-width:0.75;" x="100.896779" xlink:href="#m966212f0d9" y="165.866638"/>
     <use style="fill:#98df8a;stroke:#ffffff;stroke-linejoin:miter;stroke-width:0.75;" x="104.464411" xlink:href="#m966212f0d9" y="165.160148"/>
     <use style="fill:#98df8a;stroke:#ffffff;stroke-linejoin:miter;stroke-width:0.75;" x="108.032044" xlink:href="#m966212f0d9" y="164.425322"/>
     <use style="fill:#98df8a;stroke:#ffffff;stroke-linejoin:miter;stroke-width:0.75;" x="111.599676" xlink:href="#m966212f0d9" y="164.092856"/>
     <use style="fill:#98df8a;stroke:#ffffff;stroke-linejoin:miter;stroke-width:0.75;" x="115.167308" xlink:href="#m966212f0d9" y="163.707498"/>
     <use style="fill:#98df8a;stroke:#ffffff;stroke-linejoin:miter;stroke-width:0.75;" x="118.734941" xlink:href="#m966212f0d9" y="163.562044"/>
     <use style="fill:#98df8a;stroke:#ffffff;stroke-linejoin:miter;stroke-width:0.75;" x="122.302573" xlink:href="#m966212f0d9" y="163.218244"/>
     <use style="fill:#98df8a;stroke:#ffffff;stroke-linejoin:miter;stroke-width:0.75;" x="125.870205" xlink:href="#m966212f0d9" y="163.0539"/>
     <use style="fill:#98df8a;stroke:#ffffff;stroke-linejoin:miter;stroke-width:0.75;" x="129.437838" xlink:href="#m966212f0d9" y="162.963228"/>
     <use style="fill:#98df8a;stroke:#ffffff;stroke-linejoin:miter;stroke-width:0.75;" x="133.00547" xlink:href="#m966212f0d9" y="162.853665"/>
     <use style="fill:#98df8a;stroke:#ffffff;stroke-linejoin:miter;stroke-width:0.75;" x="136.573103" xlink:href="#m966212f0d9" y="162.390857"/>
     <use style="fill:#98df8a;stroke:#ffffff;stroke-linejoin:miter;stroke-width:0.75;" x="140.140735" xlink:href="#m966212f0d9" y="162.254848"/>
     <use style="fill:#98df8a;stroke:#ffffff;stroke-linejoin:miter;stroke-width:0.75;" x="143.708367" xlink:href="#m966212f0d9" y="162.086726"/>
     <use style="fill:#98df8a;stroke:#ffffff;stroke-linejoin:miter;stroke-width:0.75;" x="147.276" xlink:href="#m966212f0d9" y="162.011166"/>
     <use style="fill:#98df8a;stroke:#ffffff;stroke-linejoin:miter;stroke-width:0.75;" x="150.843632" xlink:href="#m966212f0d9" y="161.941273"/>
     <use style="fill:#98df8a;stroke:#ffffff;stroke-linejoin:miter;stroke-width:0.75;" x="154.411264" xlink:href="#m966212f0d9" y="161.916715"/>
     <use style="fill:#98df8a;stroke:#ffffff;stroke-linejoin:miter;stroke-width:0.75;" x="157.978897" xlink:href="#m966212f0d9" y="161.810931"/>
     <use style="fill:#98df8a;stroke:#ffffff;stroke-linejoin:miter;stroke-width:0.75;" x="161.546529" xlink:href="#m966212f0d9" y="161.576693"/>
     <use style="fill:#98df8a;stroke:#ffffff;stroke-linejoin:miter;stroke-width:0.75;" x="165.114161" xlink:href="#m966212f0d9" y="161.37268"/>
     <use style="fill:#98df8a;stroke:#ffffff;stroke-linejoin:miter;stroke-width:0.75;" x="168.681794" xlink:href="#m966212f0d9" y="160.386616"/>
     <use style="fill:#98df8a;stroke:#ffffff;stroke-linejoin:miter;stroke-width:0.75;" x="172.249426" xlink:href="#m966212f0d9" y="159.795356"/>
     <use style="fill:#98df8a;stroke:#ffffff;stroke-linejoin:miter;stroke-width:0.75;" x="175.817059" xlink:href="#m966212f0d9" y="159.219207"/>
     <use style="fill:#98df8a;stroke:#ffffff;stroke-linejoin:miter;stroke-width:0.75;" x="179.384691" xlink:href="#m966212f0d9" y="158.786624"/>
     <use style="fill:#98df8a;stroke:#ffffff;stroke-linejoin:miter;stroke-width:0.75;" x="182.952323" xlink:href="#m966212f0d9" y="158.550497"/>
     <use style="fill:#98df8a;stroke:#ffffff;stroke-linejoin:miter;stroke-width:0.75;" x="186.519956" xlink:href="#m966212f0d9" y="158.414489"/>
     <use style="fill:#98df8a;stroke:#ffffff;stroke-linejoin:miter;stroke-width:0.75;" x="190.087588" xlink:href="#m966212f0d9" y="158.342706"/>
     <use style="fill:#98df8a;stroke:#ffffff;stroke-linejoin:miter;stroke-width:0.75;" x="193.65522" xlink:href="#m966212f0d9" y="158.236922"/>
     <use style="fill:#98df8a;stroke:#ffffff;stroke-linejoin:miter;stroke-width:0.75;" x="197.222853" xlink:href="#m966212f0d9" y="157.683441"/>
     <use style="fill:#98df8a;stroke:#ffffff;stroke-linejoin:miter;stroke-width:0.75;" x="200.790485" xlink:href="#m966212f0d9" y="152.747455"/>
     <use style="fill:#98df8a;stroke:#ffffff;stroke-linejoin:miter;stroke-width:0.75;" x="204.358118" xlink:href="#m966212f0d9" y="145.49743"/>
     <use style="fill:#98df8a;stroke:#ffffff;stroke-linejoin:miter;stroke-width:0.75;" x="207.92575" xlink:href="#m966212f0d9" y="134.395711"/>
     <use style="fill:#98df8a;stroke:#ffffff;stroke-linejoin:miter;stroke-width:0.75;" x="211.493382" xlink:href="#m966212f0d9" y="127.750169"/>
     <use style="fill:#98df8a;stroke:#ffffff;stroke-linejoin:miter;stroke-width:0.75;" x="215.061015" xlink:href="#m966212f0d9" y="125.68548"/>
     <use style="fill:#98df8a;stroke:#ffffff;stroke-linejoin:miter;stroke-width:0.75;" x="218.628647" xlink:href="#m966212f0d9" y="123.605679"/>
     <use style="fill:#98df8a;stroke:#ffffff;stroke-linejoin:miter;stroke-width:0.75;" x="222.196279" xlink:href="#m966212f0d9" y="117.135815"/>
     <use style="fill:#98df8a;stroke:#ffffff;stroke-linejoin:miter;stroke-width:0.75;" x="225.763912" xlink:href="#m966212f0d9" y="116.979027"/>
     <use style="fill:#98df8a;stroke:#ffffff;stroke-linejoin:miter;stroke-width:0.75;" x="229.331544" xlink:href="#m966212f0d9" y="116.861909"/>
     <use style="fill:#98df8a;stroke:#ffffff;stroke-linejoin:miter;stroke-width:0.75;" x="232.899176" xlink:href="#m966212f0d9" y="116.831685"/>
     <use style="fill:#98df8a;stroke:#ffffff;stroke-linejoin:miter;stroke-width:0.75;" x="236.466809" xlink:href="#m966212f0d9" y="116.803349"/>
     <use style="fill:#98df8a;stroke:#ffffff;stroke-linejoin:miter;stroke-width:0.75;" x="240.034441" xlink:href="#m966212f0d9" y="116.737234"/>
     <use style="fill:#98df8a;stroke:#ffffff;stroke-linejoin:miter;stroke-width:0.75;" x="243.602074" xlink:href="#m966212f0d9" y="116.737234"/>
     <use style="fill:#98df8a;stroke:#ffffff;stroke-linejoin:miter;stroke-width:0.75;" x="247.169706" xlink:href="#m966212f0d9" y="116.733456"/>
     <use style="fill:#98df8a;stroke:#ffffff;stroke-linejoin:miter;stroke-width:0.75;" x="250.737338" xlink:href="#m966212f0d9" y="116.731567"/>
     <use style="fill:#98df8a;stroke:#ffffff;stroke-linejoin:miter;stroke-width:0.75;" x="254.304971" xlink:href="#m966212f0d9" y="116.731567"/>
     <use style="fill:#98df8a;stroke:#ffffff;stroke-linejoin:miter;stroke-width:0.75;" x="257.872603" xlink:href="#m966212f0d9" y="116.691898"/>
     <use style="fill:#98df8a;stroke:#ffffff;stroke-linejoin:miter;stroke-width:0.75;" x="261.440235" xlink:href="#m966212f0d9" y="116.656007"/>
     <use style="fill:#98df8a;stroke:#ffffff;stroke-linejoin:miter;stroke-width:0.75;" x="265.007868" xlink:href="#m966212f0d9" y="116.656007"/>
     <use style="fill:#98df8a;stroke:#ffffff;stroke-linejoin:miter;stroke-width:0.75;" x="268.5755" xlink:href="#m966212f0d9" y="116.593669"/>
     <use style="fill:#98df8a;stroke:#ffffff;stroke-linejoin:miter;stroke-width:0.75;" x="272.143132" xlink:href="#m966212f0d9" y="114.927561"/>
     <use style="fill:#98df8a;stroke:#ffffff;stroke-linejoin:miter;stroke-width:0.75;" x="275.710765" xlink:href="#m966212f0d9" y="114.878447"/>
     <use style="fill:#98df8a;stroke:#ffffff;stroke-linejoin:miter;stroke-width:0.75;" x="279.278397" xlink:href="#m966212f0d9" y="114.808554"/>
     <use style="fill:#98df8a;stroke:#ffffff;stroke-linejoin:miter;stroke-width:0.75;" x="282.84603" xlink:href="#m966212f0d9" y="114.770773"/>
     <use style="fill:#98df8a;stroke:#ffffff;stroke-linejoin:miter;stroke-width:0.75;" x="286.413662" xlink:href="#m966212f0d9" y="114.768884"/>
     <use style="fill:#98df8a;stroke:#ffffff;stroke-linejoin:miter;stroke-width:0.75;" x="289.981294" xlink:href="#m966212f0d9" y="114.732993"/>
     <use style="fill:#98df8a;stroke:#ffffff;stroke-linejoin:miter;stroke-width:0.75;" x="293.548927" xlink:href="#m966212f0d9" y="114.404305"/>
     <use style="fill:#98df8a;stroke:#ffffff;stroke-linejoin:miter;stroke-width:0.75;" x="297.116559" xlink:href="#m966212f0d9" y="114.379748"/>
     <use style="fill:#98df8a;stroke:#ffffff;stroke-linejoin:miter;stroke-width:0.75;" x="300.684191" xlink:href="#m966212f0d9" y="114.364636"/>
     <use style="fill:#98df8a;stroke:#ffffff;stroke-linejoin:miter;stroke-width:0.75;" x="304.251824" xlink:href="#m966212f0d9" y="114.334412"/>
     <use style="fill:#98df8a;stroke:#ffffff;stroke-linejoin:miter;stroke-width:0.75;" x="307.819456" xlink:href="#m966212f0d9" y="114.334412"/>
     <use style="fill:#98df8a;stroke:#ffffff;stroke-linejoin:miter;stroke-width:0.75;" x="311.387089" xlink:href="#m966212f0d9" y="114.330634"/>
     <use style="fill:#98df8a;stroke:#ffffff;stroke-linejoin:miter;stroke-width:0.75;" x="314.954721" xlink:href="#m966212f0d9" y="114.130399"/>
     <use style="fill:#98df8a;stroke:#ffffff;stroke-linejoin:miter;stroke-width:0.75;" x="318.522353" xlink:href="#m966212f0d9" y="114.009502"/>
     <use style="fill:#98df8a;stroke:#ffffff;stroke-linejoin:miter;stroke-width:0.75;" x="322.089986" xlink:href="#m966212f0d9" y="114.009502"/>
     <use style="fill:#98df8a;stroke:#ffffff;stroke-linejoin:miter;stroke-width:0.75;" x="325.657618" xlink:href="#m966212f0d9" y="108.09123"/>
     <use style="fill:#98df8a;stroke:#ffffff;stroke-linejoin:miter;stroke-width:0.75;" x="329.22525" xlink:href="#m966212f0d9" y="108.085563"/>
     <use style="fill:#98df8a;stroke:#ffffff;stroke-linejoin:miter;stroke-width:0.75;" x="332.792883" xlink:href="#m966212f0d9" y="108.083674"/>
     <use style="fill:#98df8a;stroke:#ffffff;stroke-linejoin:miter;stroke-width:0.75;" x="336.360515" xlink:href="#m966212f0d9" y="108.083674"/>
     <use style="fill:#98df8a;stroke:#ffffff;stroke-linejoin:miter;stroke-width:0.75;" x="339.928147" xlink:href="#m966212f0d9" y="108.078007"/>
     <use style="fill:#98df8a;stroke:#ffffff;stroke-linejoin:miter;stroke-width:0.75;" x="343.49578" xlink:href="#m966212f0d9" y="108.064783"/>
     <use style="fill:#98df8a;stroke:#ffffff;stroke-linejoin:miter;stroke-width:0.75;" x="347.063412" xlink:href="#m966212f0d9" y="108.053449"/>
     <use style="fill:#98df8a;stroke:#ffffff;stroke-linejoin:miter;stroke-width:0.75;" x="350.631045" xlink:href="#m966212f0d9" y="108.05156"/>
     <use style="fill:#98df8a;stroke:#ffffff;stroke-linejoin:miter;stroke-width:0.75;" x="354.198677" xlink:href="#m966212f0d9" y="108.049671"/>
     <use style="fill:#98df8a;stroke:#ffffff;stroke-linejoin:miter;stroke-width:0.75;" x="357.766309" xlink:href="#m966212f0d9" y="108.023225"/>
     <use style="fill:#98df8a;stroke:#ffffff;stroke-linejoin:miter;stroke-width:0.75;" x="361.333942" xlink:href="#m966212f0d9" y="108.023225"/>
     <use style="fill:#98df8a;stroke:#ffffff;stroke-linejoin:miter;stroke-width:0.75;" x="364.901574" xlink:href="#m966212f0d9" y="108.021336"/>
     <use style="fill:#98df8a;stroke:#ffffff;stroke-linejoin:miter;stroke-width:0.75;" x="368.469206" xlink:href="#m966212f0d9" y="108.017558"/>
     <use style="fill:#98df8a;stroke:#ffffff;stroke-linejoin:miter;stroke-width:0.75;" x="372.036839" xlink:href="#m966212f0d9" y="107.996779"/>
     <use style="fill:#98df8a;stroke:#ffffff;stroke-linejoin:miter;stroke-width:0.75;" x="375.604471" xlink:href="#m966212f0d9" y="107.991112"/>
     <use style="fill:#98df8a;stroke:#ffffff;stroke-linejoin:miter;stroke-width:0.75;" x="379.172104" xlink:href="#m966212f0d9" y="107.991112"/>
     <use style="fill:#98df8a;stroke:#ffffff;stroke-linejoin:miter;stroke-width:0.75;" x="382.739736" xlink:href="#m966212f0d9" y="107.983556"/>
     <use style="fill:#98df8a;stroke:#ffffff;stroke-linejoin:miter;stroke-width:0.75;" x="386.307368" xlink:href="#m966212f0d9" y="107.979778"/>
     <use style="fill:#98df8a;stroke:#ffffff;stroke-linejoin:miter;stroke-width:0.75;" x="389.875001" xlink:href="#m966212f0d9" y="107.962777"/>
     <use style="fill:#98df8a;stroke:#ffffff;stroke-linejoin:miter;stroke-width:0.75;" x="393.442633" xlink:href="#m966212f0d9" y="107.962777"/>
     <use style="fill:#98df8a;stroke:#ffffff;stroke-linejoin:miter;stroke-width:0.75;" x="397.010265" xlink:href="#m966212f0d9" y="107.958999"/>
     <use style="fill:#98df8a;stroke:#ffffff;stroke-linejoin:miter;stroke-width:0.75;" x="400.577898" xlink:href="#m966212f0d9" y="109.237859"/>
    </g>
   </g>
   <g id="line2d_17"/>
   <g id="line2d_18"/>
   <g id="line2d_19"/>
   <g id="patch_3">
    <path d="M 59.690625 269.550686 
L 59.690625 42.869339 
" style="fill:none;stroke:#000000;stroke-linecap:square;stroke-linejoin:miter;stroke-width:0.8;"/>
   </g>
   <g id="patch_4">
    <path d="M 75.923352 288.430125 
L 349.441834 288.430125 
" style="fill:none;stroke:#000000;stroke-linecap:square;stroke-linejoin:miter;stroke-width:0.8;"/>
   </g>
   <g id="text_16">
    <!-- wireshark_fuzzshark_ip (23h, 19 trials/fuzzer) -->
    <g transform="translate(102.143438 16.318125)scale(0.12 -0.12)">
     <defs>
      <path d="M 269 3500 
L 844 3500 
L 1563 769 
L 2278 3500 
L 2956 3500 
L 3675 769 
L 4391 3500 
L 4966 3500 
L 4050 0 
L 3372 0 
L 2619 2869 
L 1863 0 
L 1184 0 
L 269 3500 
z
" id="DejaVuSans-77" transform="scale(0.015625)"/>
      <path d="M 2834 3397 
L 2834 2853 
Q 2591 2978 2328 3040 
Q 2066 3103 1784 3103 
Q 1356 3103 1142 2972 
Q 928 2841 928 2578 
Q 928 2378 1081 2264 
Q 1234 2150 1697 2047 
L 1894 2003 
Q 2506 1872 2764 1633 
Q 3022 1394 3022 966 
Q 3022 478 2636 193 
Q 2250 -91 1575 -91 
Q 1294 -91 989 -36 
Q 684 19 347 128 
L 347 722 
Q 666 556 975 473 
Q 1284 391 1588 391 
Q 1994 391 2212 530 
Q 2431 669 2431 922 
Q 2431 1156 2273 1281 
Q 2116 1406 1581 1522 
L 1381 1569 
Q 847 1681 609 1914 
Q 372 2147 372 2553 
Q 372 3047 722 3315 
Q 1072 3584 1716 3584 
Q 2034 3584 2315 3537 
Q 2597 3491 2834 3397 
z
" id="DejaVuSans-73" transform="scale(0.015625)"/>
      <path d="M 581 4863 
L 1159 4863 
L 1159 1991 
L 2875 3500 
L 3609 3500 
L 1753 1863 
L 3688 0 
L 2938 0 
L 1159 1709 
L 1159 0 
L 581 0 
L 581 4863 
z
" id="DejaVuSans-6b" transform="scale(0.015625)"/>
      <path d="M 3263 -1063 
L 3263 -1509 
L -63 -1509 
L -63 -1063 
L 3263 -1063 
z
" id="DejaVuSans-5f" transform="scale(0.015625)"/>
      <path d="M 2375 4863 
L 2375 4384 
L 1825 4384 
Q 1516 4384 1395 4259 
Q 1275 4134 1275 3809 
L 1275 3500 
L 2222 3500 
L 2222 3053 
L 1275 3053 
L 1275 0 
L 697 0 
L 697 3053 
L 147 3053 
L 147 3500 
L 697 3500 
L 697 3744 
Q 697 4328 969 4595 
Q 1241 4863 1831 4863 
L 2375 4863 
z
" id="DejaVuSans-66" transform="scale(0.015625)"/>
      <path d="M 353 3500 
L 3084 3500 
L 3084 2975 
L 922 459 
L 3084 459 
L 3084 0 
L 275 0 
L 275 525 
L 2438 3041 
L 353 3041 
L 353 3500 
z
" id="DejaVuSans-7a" transform="scale(0.015625)"/>
      <path d="M 1159 525 
L 1159 -1331 
L 581 -1331 
L 581 3500 
L 1159 3500 
L 1159 2969 
Q 1341 3281 1617 3432 
Q 1894 3584 2278 3584 
Q 2916 3584 3314 3078 
Q 3713 2572 3713 1747 
Q 3713 922 3314 415 
Q 2916 -91 2278 -91 
Q 1894 -91 1617 61 
Q 1341 213 1159 525 
z
M 3116 1747 
Q 3116 2381 2855 2742 
Q 2594 3103 2138 3103 
Q 1681 3103 1420 2742 
Q 1159 2381 1159 1747 
Q 1159 1113 1420 752 
Q 1681 391 2138 391 
Q 2594 391 2855 752 
Q 3116 1113 3116 1747 
z
" id="DejaVuSans-70" transform="scale(0.015625)"/>
      <path d="M 750 794 
L 1409 794 
L 1409 256 
L 897 -744 
L 494 -744 
L 750 256 
L 750 794 
z
" id="DejaVuSans-2c" transform="scale(0.015625)"/>
      <path d="M 603 4863 
L 1178 4863 
L 1178 0 
L 603 0 
L 603 4863 
z
" id="DejaVuSans-6c" transform="scale(0.015625)"/>
      <path d="M 1625 4666 
L 2156 4666 
L 531 -594 
L 0 -594 
L 1625 4666 
z
" id="DejaVuSans-2f" transform="scale(0.015625)"/>
     </defs>
     <use xlink:href="#DejaVuSans-77"/>
     <use x="81.787109" xlink:href="#DejaVuSans-69"/>
     <use x="109.570312" xlink:href="#DejaVuSans-72"/>
     <use x="148.433594" xlink:href="#DejaVuSans-65"/>
     <use x="209.957031" xlink:href="#DejaVuSans-73"/>
     <use x="262.056641" xlink:href="#DejaVuSans-68"/>
     <use x="325.435547" xlink:href="#DejaVuSans-61"/>
     <use x="386.714844" xlink:href="#DejaVuSans-72"/>
     <use x="427.828125" xlink:href="#DejaVuSans-6b"/>
     <use x="485.738281" xlink:href="#DejaVuSans-5f"/>
     <use x="535.738281" xlink:href="#DejaVuSans-66"/>
     <use x="570.943359" xlink:href="#DejaVuSans-75"/>
     <use x="634.322266" xlink:href="#DejaVuSans-7a"/>
     <use x="686.8125" xlink:href="#DejaVuSans-7a"/>
     <use x="739.302734" xlink:href="#DejaVuSans-73"/>
     <use x="791.402344" xlink:href="#DejaVuSans-68"/>
     <use x="854.78125" xlink:href="#DejaVuSans-61"/>
     <use x="916.060547" xlink:href="#DejaVuSans-72"/>
     <use x="957.173828" xlink:href="#DejaVuSans-6b"/>
     <use x="1015.083984" xlink:href="#DejaVuSans-5f"/>
     <use x="1065.083984" xlink:href="#DejaVuSans-69"/>
     <use x="1092.867188" xlink:href="#DejaVuSans-70"/>
     <use x="1156.34375" xlink:href="#DejaVuSans-20"/>
     <use x="1188.130859" xlink:href="#DejaVuSans-28"/>
     <use x="1227.144531" xlink:href="#DejaVuSans-32"/>
     <use x="1290.767578" xlink:href="#DejaVuSans-33"/>
     <use x="1354.390625" xlink:href="#DejaVuSans-68"/>
     <use x="1417.769531" xlink:href="#DejaVuSans-2c"/>
     <use x="1449.556641" xlink:href="#DejaVuSans-20"/>
     <use x="1481.34375" xlink:href="#DejaVuSans-31"/>
     <use x="1544.966797" xlink:href="#DejaVuSans-39"/>
     <use x="1608.589844" xlink:href="#DejaVuSans-20"/>
     <use x="1640.376953" xlink:href="#DejaVuSans-74"/>
     <use x="1679.585938" xlink:href="#DejaVuSans-72"/>
     <use x="1720.699219" xlink:href="#DejaVuSans-69"/>
     <use x="1748.482422" xlink:href="#DejaVuSans-61"/>
     <use x="1809.761719" xlink:href="#DejaVuSans-6c"/>
     <use x="1837.544922" xlink:href="#DejaVuSans-73"/>
     <use x="1889.644531" xlink:href="#DejaVuSans-2f"/>
     <use x="1923.335938" xlink:href="#DejaVuSans-66"/>
     <use x="1958.541016" xlink:href="#DejaVuSans-75"/>
     <use x="2021.919922" xlink:href="#DejaVuSans-7a"/>
     <use x="2074.410156" xlink:href="#DejaVuSans-7a"/>
     <use x="2126.900391" xlink:href="#DejaVuSans-65"/>
     <use x="2188.423828" xlink:href="#DejaVuSans-72"/>
     <use x="2229.537109" xlink:href="#DejaVuSans-29"/>
    </g>
   </g>
   <g id="legend_1">
    <g id="line2d_20">
     <path d="M 420.810625 30.416562 
L 440.810625 30.416562 
" style="fill:none;stroke:#d62728;stroke-linecap:square;stroke-width:1.5;"/>
    </g>
    <g id="line2d_21">
     <defs>
      <path d="M 0 -3 
L -3 3 
L 3 3 
z
" id="mcddcdef486" style="stroke:#d62728;stroke-linejoin:miter;"/>
     </defs>
     <g>
      <use style="fill:#d62728;stroke:#d62728;stroke-linejoin:miter;" x="430.810625" xlink:href="#mcddcdef486" y="30.416562"/>
     </g>
    </g>
    <g id="text_17">
     <!-- afl_scheduling_random -->
     <g transform="translate(448.810625 33.916562)scale(0.1 -0.1)">
      <use xlink:href="#DejaVuSans-61"/>
      <use x="61.279297" xlink:href="#DejaVuSans-66"/>
      <use x="96.484375" xlink:href="#DejaVuSans-6c"/>
      <use x="124.267578" xlink:href="#DejaVuSans-5f"/>
      <use x="174.267578" xlink:href="#DejaVuSans-73"/>
      <use x="226.367188" xlink:href="#DejaVuSans-63"/>
      <use x="281.347656" xlink:href="#DejaVuSans-68"/>
      <use x="344.726562" xlink:href="#DejaVuSans-65"/>
      <use x="406.25" xlink:href="#DejaVuSans-64"/>
      <use x="469.726562" xlink:href="#DejaVuSans-75"/>
      <use x="533.105469" xlink:href="#DejaVuSans-6c"/>
      <use x="560.888672" xlink:href="#DejaVuSans-69"/>
      <use x="588.671875" xlink:href="#DejaVuSans-6e"/>
      <use x="652.050781" xlink:href="#DejaVuSans-67"/>
      <use x="715.527344" xlink:href="#DejaVuSans-5f"/>
      <use x="765.527344" xlink:href="#DejaVuSans-72"/>
      <use x="806.640625" xlink:href="#DejaVuSans-61"/>
      <use x="867.919922" xlink:href="#DejaVuSans-6e"/>
      <use x="931.298828" xlink:href="#DejaVuSans-64"/>
      <use x="994.775391" xlink:href="#DejaVuSans-6f"/>
      <use x="1055.957031" xlink:href="#DejaVuSans-6d"/>
     </g>
    </g>
    <g id="line2d_22">
     <path d="M 420.810625 45.372813 
L 440.810625 45.372813 
" style="fill:none;stroke:#1f77b4;stroke-linecap:square;stroke-width:1.5;"/>
    </g>
    <g id="line2d_23">
     <defs>
      <path d="M 0 3 
C 0.795609 3 1.55874 2.683901 2.12132 2.12132 
C 2.683901 1.55874 3 0.795609 3 0 
C 3 -0.795609 2.683901 -1.55874 2.12132 -2.12132 
C 1.55874 -2.683901 0.795609 -3 0 -3 
C -0.795609 -3 -1.55874 -2.683901 -2.12132 -2.12132 
C -2.683901 -1.55874 -3 -0.795609 -3 0 
C -3 0.795609 -2.683901 1.55874 -2.12132 2.12132 
C -1.55874 2.683901 -0.795609 3 0 3 
z
" id="m594acc6a82" style="stroke:#1f77b4;"/>
     </defs>
     <g>
      <use style="fill:#1f77b4;stroke:#1f77b4;" x="430.810625" xlink:href="#m594acc6a82" y="45.372813"/>
     </g>
    </g>
    <g id="text_18">
     <!-- afl -->
     <g transform="translate(448.810625 48.872813)scale(0.1 -0.1)">
      <use xlink:href="#DejaVuSans-61"/>
      <use x="61.279297" xlink:href="#DejaVuSans-66"/>
      <use x="96.484375" xlink:href="#DejaVuSans-6c"/>
     </g>
    </g>
    <g id="line2d_24">
     <path d="M 420.810625 60.050937 
L 440.810625 60.050937 
" style="fill:none;stroke:#98df8a;stroke-linecap:square;stroke-width:1.5;"/>
    </g>
    <g id="line2d_25">
     <defs>
      <path d="M -0 3 
L 3 -3 
L -3 -3 
z
" id="m66f3a02ecf" style="stroke:#98df8a;stroke-linejoin:miter;"/>
     </defs>
     <g>
      <use style="fill:#98df8a;stroke:#98df8a;stroke-linejoin:miter;" x="430.810625" xlink:href="#m66f3a02ecf" y="60.050937"/>
     </g>
    </g>
    <g id="text_19">
     <!-- afl_scheduling_lifo -->
     <g transform="translate(448.810625 63.550937)scale(0.1 -0.1)">
      <use xlink:href="#DejaVuSans-61"/>
      <use x="61.279297" xlink:href="#DejaVuSans-66"/>
      <use x="96.484375" xlink:href="#DejaVuSans-6c"/>
      <use x="124.267578" xlink:href="#DejaVuSans-5f"/>
      <use x="174.267578" xlink:href="#DejaVuSans-73"/>
      <use x="226.367188" xlink:href="#DejaVuSans-63"/>
      <use x="281.347656" xlink:href="#DejaVuSans-68"/>
      <use x="344.726562" xlink:href="#DejaVuSans-65"/>
      <use x="406.25" xlink:href="#DejaVuSans-64"/>
      <use x="469.726562" xlink:href="#DejaVuSans-75"/>
      <use x="533.105469" xlink:href="#DejaVuSans-6c"/>
      <use x="560.888672" xlink:href="#DejaVuSans-69"/>
      <use x="588.671875" xlink:href="#DejaVuSans-6e"/>
      <use x="652.050781" xlink:href="#DejaVuSans-67"/>
      <use x="715.527344" xlink:href="#DejaVuSans-5f"/>
      <use x="765.527344" xlink:href="#DejaVuSans-6c"/>
      <use x="793.310547" xlink:href="#DejaVuSans-69"/>
      <use x="821.09375" xlink:href="#DejaVuSans-66"/>
      <use x="856.298828" xlink:href="#DejaVuSans-6f"/>
     </g>
    </g>
   </g>
  </g>
 </g>
 <defs>
  <clipPath id="pb6f4967118">
   <rect height="266.112" width="357.12" x="59.690625" y="22.318125"/>
  </clipPath>
 </defs>
</svg>
