<?xml version="1.0" encoding="utf-8" standalone="no"?>
<!DOCTYPE svg PUBLIC "-//W3C//DTD SVG 1.1//EN"
  "http://www.w3.org/Graphics/SVG/1.1/DTD/svg11.dtd">
<svg height="325.986375pt" version="1.1" viewBox="0 0 575.348125 325.986375" width="575.348125pt" xmlns="http://www.w3.org/2000/svg" xmlns:xlink="http://www.w3.org/1999/xlink">
 <metadata>
  <rdf:RDF xmlns:cc="http://creativecommons.org/ns#" xmlns:dc="http://purl.org/dc/elements/1.1/" xmlns:rdf="http://www.w3.org/1999/02/22-rdf-syntax-ns#">
   <cc:Work>
    <dc:type rdf:resource="http://purl.org/dc/dcmitype/StillImage"/>
    <dc:date>2022-07-21T16:31:15.521675</dc:date>
    <dc:format>image/svg+xml</dc:format>
    <dc:creator>
     <cc:Agent>
      <dc:title>Matplotlib v3.4.3, https://matplotlib.org/</dc:title>
     </cc:Agent>
    </dc:creator>
   </cc:Work>
  </rdf:RDF>
 </metadata>
 <defs>
  <style type="text/css">*{stroke-linecap:butt;stroke-linejoin:round;}</style>
 </defs>
 <g id="figure_1">
  <g id="patch_1">
   <path d="M 0 325.986375 
L 575.348125 325.986375 
L 575.348125 0 
L 0 0 
z
" style="fill:#ffffff;"/>
  </g>
  <g id="axes_1">
   <g id="patch_2">
    <path d="M 59.690625 288.430125 
L 416.810625 288.430125 
L 416.810625 22.318125 
L 59.690625 22.318125 
z
" style="fill:#ffffff;"/>
   </g>
   <g id="PolyCollection_1">
    <defs>
     <path d="M 75.923352 -77.117081 
L 75.923352 -67.582804 
L 125.689806 -94.838153 
L 154.801316 -105.244329 
L 175.45626 -114.461551 
L 191.47748 -130.359561 
L 204.567769 -140.726105 
L 215.635452 -153.88386 
L 225.222714 -167.915401 
L 233.679279 -174.079088 
L 241.243934 -180.095571 
L 248.086996 -185.711962 
L 254.334223 -188.556015 
L 260.081115 -191.349915 
L 265.401906 -194.497009 
L 270.355443 -194.113902 
L 274.989168 -200.056783 
L 279.341883 -204.274738 
L 283.445733 -205.767536 
L 287.327641 -206.671518 
L 291.010388 -211.727402 
L 294.513415 -212.257713 
L 297.85345 -215.382963 
L 301.04499 -217.838247 
L 304.100677 -219.734911 
L 307.031607 -221.025775 
L 309.847569 -221.423367 
L 312.557242 -224.007596 
L 315.168359 -225.4551 
L 317.68784 -226.630843 
L 320.121897 -228.895516 
L 322.476135 -229.831582 
L 324.755622 -231.505364 
L 326.96496 -233.868363 
L 329.108337 -236.140585 
L 331.189579 -239.784823 
L 333.212187 -241.675825 
L 335.179373 -243.623445 
L 337.094095 -244.272651 
L 338.959078 -244.812399 
L 340.776842 -246.584506 
L 342.549717 -246.569408 
L 344.279869 -249.320987 
L 345.969307 -250.291022 
L 347.619904 -250.81001 
L 349.233406 -254.365547 
L 350.811444 -256.205595 
L 352.355542 -258.230591 
L 353.867131 -259.753584 
L 355.347551 -260.416001 
L 356.798061 -262.216416 
L 358.219847 -262.780698 
L 359.614023 -263.441227 
L 360.981642 -264.022494 
L 362.323696 -264.196119 
L 363.641124 -265.422817 
L 364.934813 -266.670275 
L 366.205604 -267.121322 
L 367.454294 -267.976237 
L 368.681636 -270.503188 
L 369.888351 -270.678747 
L 371.075119 -271.384571 
L 372.242589 -271.726159 
L 373.391378 -272.507471 
L 374.522076 -272.790556 
L 375.635243 -273.351062 
L 376.731414 -273.90402 
L 377.8111 -273.934216 
L 378.874791 -274.502272 
L 379.922953 -274.96653 
L 380.956033 -274.97974 
L 381.974459 -275.355299 
L 382.978641 -275.623285 
L 383.968971 -275.785587 
L 384.945827 -276.291364 
L 385.909571 -276.478199 
L 386.860549 -277.085887 
L 387.799096 -277.482205 
L 388.725532 -277.563356 
L 389.640166 -278.199351 
L 390.543295 -278.131411 
L 391.435205 -279.022183 
L 392.316171 -279.450584 
L 393.186458 -279.758202 
L 394.046323 -280.060158 
L 394.896011 -280.199813 
L 395.735761 -280.428168 
L 396.565803 -280.899975 
L 397.386358 -281.07912 
L 398.197642 -281.254774 
L 398.99986 -280.615003 
L 399.793214 -281.613347 
L 400.577898 -282.804188 
L 400.577898 -291.221226 
L 400.577898 -291.221226 
L 399.793214 -291.57225 
L 398.99986 -290.455011 
L 398.197642 -290.260626 
L 397.386358 -289.807692 
L 396.565803 -289.805804 
L 395.735761 -289.61142 
L 394.896011 -289.445344 
L 394.046323 -289.256621 
L 393.186458 -289.016943 
L 392.316171 -289.054688 
L 391.435205 -288.65837 
L 390.543295 -287.097632 
L 389.640166 -286.816435 
L 388.725532 -286.352177 
L 387.799096 -285.589737 
L 386.860549 -285.374593 
L 385.909571 -285.106606 
L 384.945827 -284.608378 
L 383.968971 -284.17809 
L 382.978641 -283.736479 
L 381.974459 -283.534545 
L 380.956033 -284.710289 
L 379.922953 -283.101804 
L 378.874791 -282.987249 
L 377.8111 -282.72785 
L 376.731414 -281.994567 
L 375.635243 -281.03963 
L 374.522076 -280.475207 
L 373.391378 -280.035294 
L 372.242589 -281.926627 
L 371.075119 -279.139191 
L 369.888351 -278.22766 
L 368.681636 -280.856569 
L 367.454294 -277.535047 
L 366.205604 -277.189684 
L 364.934813 -279.306116 
L 363.641124 -276.661261 
L 362.323696 -276.570674 
L 360.981642 -276.391387 
L 359.614023 -276.070558 
L 358.219847 -275.613849 
L 356.798061 -274.953319 
L 355.347551 -274.777807 
L 353.867131 -274.611731 
L 352.355542 -274.138037 
L 350.811444 -273.588853 
L 349.233406 -272.894353 
L 347.619904 -271.733708 
L 345.969307 -271.158103 
L 344.279869 -270.337159 
L 342.549717 -269.412417 
L 340.776842 -268.702819 
L 338.959078 -267.847716 
L 337.094095 -266.936374 
L 335.179373 -266.825027 
L 333.212187 -265.152943 
L 331.189579 -262.62217 
L 329.108337 -263.4601 
L 326.96496 -263.07888 
L 324.755622 -261.050109 
L 322.476135 -259.534665 
L 320.121897 -256.734019 
L 317.68784 -256.362235 
L 315.168359 -253.274729 
L 312.557242 -250.540136 
L 309.847569 -247.265795 
L 307.031607 -244.553848 
L 304.100677 -242.621327 
L 301.04499 -241.211567 
L 297.85345 -238.911036 
L 294.513415 -237.031357 
L 291.010388 -234.753473 
L 287.327641 -232.84171 
L 283.445733 -232.947395 
L 279.341883 -228.799268 
L 274.989168 -228.655838 
L 270.355443 -224.462418 
L 265.401906 -217.91751 
L 260.081115 -213.7373 
L 254.334223 -211.546228 
L 248.086996 -207.373567 
L 241.243934 -202.968776 
L 233.679279 -194.866906 
L 225.222714 -186.583862 
L 215.635452 -183.149106 
L 204.567769 -172.807096 
L 191.47748 -162.165017 
L 175.45626 -146.419873 
L 154.801316 -130.99367 
L 125.689806 -104.906515 
L 75.923352 -77.117081 
z
" id="m5dce9b472a" style="stroke:#d62728;stroke-opacity:0.2;"/>
    </defs>
    <g clip-path="url(#p02dba24840)">
     <use style="fill:#d62728;fill-opacity:0.2;stroke:#d62728;stroke-opacity:0.2;" x="0" xlink:href="#m5dce9b472a" y="325.986375"/>
    </g>
   </g>
   <g id="PolyCollection_2">
    <defs>
     <path d="M 75.923352 -70.870356 
L 75.923352 -49.65225 
L 125.689806 -82.907097 
L 154.801316 -111.214575 
L 175.45626 -121.127241 
L 191.47748 -130.65496 
L 204.567769 -133.162095 
L 215.635452 -139.51073 
L 225.222714 -150.301901 
L 233.679279 -149.655195 
L 241.243934 -155.421951 
L 248.086996 -157.958385 
L 254.334223 -162.923683 
L 260.081115 -163.837101 
L 265.401906 -164.792038 
L 270.355443 -164.12396 
L 274.989168 -165.069461 
L 279.341883 -170.351813 
L 283.445733 -175.917248 
L 287.327641 -176.519368 
L 291.010388 -179.529403 
L 294.513415 -184.790995 
L 297.85345 -188.676279 
L 301.04499 -187.697326 
L 304.100677 -187.77659 
L 307.031607 -187.829432 
L 309.847569 -187.836981 
L 312.557242 -189.084439 
L 315.168359 -192.141749 
L 317.68784 -192.864557 
L 320.121897 -193.574155 
L 322.476135 -201.810018 
L 324.755622 -202.585669 
L 326.96496 -204.454025 
L 329.108337 -206.548848 
L 331.189579 -209.052351 
L 333.212187 -209.002245 
L 335.179373 -213.946358 
L 337.094095 -211.885929 
L 338.959078 -214.058129 
L 340.776842 -221.329996 
L 342.549717 -222.822416 
L 344.279869 -223.103613 
L 345.969307 -223.598067 
L 347.619904 -223.907572 
L 349.233406 -223.920783 
L 350.811444 -220.06895 
L 352.355542 -227.721661 
L 353.867131 -226.688167 
L 355.347551 -227.74242 
L 356.798061 -228.927599 
L 358.219847 -231.992458 
L 359.614023 -233.487143 
L 360.981642 -233.853265 
L 362.323696 -234.187304 
L 363.641124 -235.370596 
L 364.934813 -227.768841 
L 366.205604 -236.248063 
L 367.454294 -235.866937 
L 368.681636 -236.814326 
L 369.888351 -239.333775 
L 371.075119 -240.53594 
L 372.242589 -240.730324 
L 373.391378 -240.36189 
L 374.522076 -240.93037 
L 375.635243 -240.99831 
L 376.731414 -241.095314 
L 377.8111 -243.36112 
L 378.874791 -244.155643 
L 379.922953 -244.283975 
L 380.956033 -245.702651 
L 381.974459 -246.199511 
L 382.978641 -246.246692 
L 383.968971 -246.259903 
L 384.945827 -246.416542 
L 385.909571 -247.860272 
L 386.860549 -248.064093 
L 387.799096 -248.145243 
L 388.725532 -248.226394 
L 389.640166 -249.256821 
L 390.543295 -250.327257 
L 391.435205 -252.925639 
L 392.316171 -253.284166 
L 393.186458 -253.289827 
L 394.046323 -253.297376 
L 394.896011 -253.951348 
L 395.735761 -254.112659 
L 396.565803 -254.214569 
L 397.386358 -254.79961 
L 398.197642 -255.231785 
L 398.99986 -256.469005 
L 399.793214 -257.17563 
L 400.577898 -259.289326 
L 400.577898 -280.033737 
L 400.577898 -280.033737 
L 399.793214 -278.561699 
L 398.99986 -276.921698 
L 398.197642 -278.225584 
L 397.386358 -276.619741 
L 396.565803 -275.638383 
L 395.735761 -275.243952 
L 394.896011 -274.770258 
L 394.046323 -273.784464 
L 393.186458 -274.281466 
L 392.316171 -273.790787 
L 391.435205 -272.996263 
L 390.543295 -272.749037 
L 389.640166 -273.694915 
L 388.725532 -271.911107 
L 387.799096 -271.40533 
L 386.860549 -271.260014 
L 385.909571 -269.606802 
L 384.945827 -268.921738 
L 383.968971 -267.230782 
L 382.978641 -264.879295 
L 381.974459 -265.151056 
L 380.956033 -263.241181 
L 379.922953 -261.620052 
L 378.874791 -262.135266 
L 377.8111 -258.5099 
L 376.731414 -257.003892 
L 375.635243 -256.666078 
L 374.522076 -256.507551 
L 373.391378 -255.652637 
L 372.242589 -256.179174 
L 371.075119 -254.939265 
L 369.888351 -254.233441 
L 368.681636 -254.114546 
L 367.454294 -253.94847 
L 366.205604 -253.684258 
L 364.934813 -253.344557 
L 363.641124 -253.187917 
L 362.323696 -253.114315 
L 360.981642 -253.359655 
L 359.614023 -252.774614 
L 358.219847 -252.623636 
L 356.798061 -252.417928 
L 355.347551 -251.774383 
L 353.867131 -251.202553 
L 352.355542 -250.021148 
L 350.811444 -249.943772 
L 349.233406 -248.929292 
L 347.619904 -248.800112 
L 345.969307 -247.526233 
L 344.279869 -247.531894 
L 342.549717 -247.477165 
L 340.776842 -246.590167 
L 338.959078 -244.43684 
L 337.094095 -243.900867 
L 335.179373 -242.007317 
L 333.212187 -243.3238 
L 331.189579 -241.634306 
L 329.108337 -241.551268 
L 326.96496 -237.571104 
L 324.755622 -235.207681 
L 322.476135 -237.101184 
L 320.121897 -236.969078 
L 317.68784 -236.34818 
L 315.168359 -235.289445 
L 312.557242 -233.45506 
L 309.847569 -232.6511 
L 307.031607 -228.429371 
L 304.100677 -226.97998 
L 301.04499 -225.985411 
L 297.85345 -224.194431 
L 294.513415 -223.918896 
L 291.010388 -221.522116 
L 287.327641 -218.013759 
L 283.445733 -214.035482 
L 279.341883 -213.988301 
L 274.989168 -213.756172 
L 270.355443 -213.260303 
L 265.401906 -211.700981 
L 260.081115 -202.393172 
L 254.334223 -201.147601 
L 248.086996 -199.556668 
L 241.243934 -196.48426 
L 233.679279 -189.214658 
L 225.222714 -183.794539 
L 215.635452 -176.566455 
L 204.567769 -167.256758 
L 191.47748 -154.996192 
L 175.45626 -144.192943 
L 154.801316 -124.056502 
L 125.689806 -96.78766 
L 75.923352 -70.870356 
z
" id="m8a803882b0" style="stroke:#1f77b4;stroke-opacity:0.2;"/>
    </defs>
    <g clip-path="url(#p02dba24840)">
     <use style="fill:#1f77b4;fill-opacity:0.2;stroke:#1f77b4;stroke-opacity:0.2;" x="0" xlink:href="#m8a803882b0" y="325.986375"/>
    </g>
   </g>
   <g id="PolyCollection_3">
    <defs>
     <path d="M 75.923352 -77.948782 
L 75.923352 -68.985015 
L 125.689806 -86.192761 
L 154.801316 -108.058186 
L 175.45626 -118.6043 
L 191.47748 -120.632787 
L 204.567769 -121.578289 
L 215.635452 -121.349934 
L 225.222714 -122.24448 
L 233.679279 -123.446644 
L 241.243934 -123.746714 
L 248.086996 -124.271363 
L 254.334223 -126.447337 
L 260.081115 -127.260733 
L 265.401906 -129.500872 
L 270.355443 -132.478918 
L 274.989168 -134.405778 
L 279.341883 -134.573742 
L 283.445733 -134.662441 
L 287.327641 -135.056872 
L 291.010388 -135.17388 
L 294.513415 -135.224835 
L 297.85345 -136.674226 
L 301.04499 -136.823317 
L 304.100677 -136.885596 
L 307.031607 -136.938438 
L 309.847569 -136.957311 
L 312.557242 -138.025482 
L 315.168359 -139.080442 
L 317.68784 -139.133285 
L 320.121897 -140.807256 
L 322.476135 -143.33048 
L 324.755622 -143.885325 
L 326.96496 -145.887674 
L 329.108337 -149.275249 
L 331.189579 -149.981072 
L 333.212187 -150.003719 
L 335.179373 -150.105629 
L 337.094095 -150.133938 
L 338.959078 -150.171682 
L 340.776842 -147.520127 
L 342.549717 -150.239622 
L 344.279869 -150.34342 
L 345.969307 -150.375503 
L 347.619904 -156.057947 
L 349.233406 -156.51843 
L 350.811444 -157.192171 
L 352.355542 -158.181078 
L 353.867131 -159.268122 
L 355.347551 -158.609479 
L 356.798061 -158.688743 
L 358.219847 -158.726487 
L 359.614023 -159.38513 
L 360.981642 -159.38513 
L 362.323696 -159.88902 
L 363.641124 -165.241199 
L 364.934813 -160.994935 
L 366.205604 -161.072312 
L 367.454294 -161.12138 
L 368.681636 -165.149338 
L 369.888351 -165.252522 
L 371.075119 -161.381817 
L 372.242589 -161.425223 
L 373.391378 -161.43466 
L 374.522076 -161.453532 
L 375.635243 -161.493164 
L 376.731414 -161.580259 
L 377.8111 -170.198381 
L 378.874791 -172.444749 
L 379.922953 -172.463621 
L 380.956033 -172.467395 
L 381.974459 -175.54169 
L 382.978641 -179.220417 
L 383.968971 -179.46335 
L 384.945827 -180.029518 
L 385.909571 -175.873842 
L 386.860549 -176.053129 
L 387.799096 -181.175066 
L 388.725532 -181.488346 
L 389.640166 -182.024319 
L 390.543295 -182.06395 
L 391.435205 -169.566726 
L 392.316171 -182.27532 
L 393.186458 -182.416862 
L 394.046323 -182.420636 
L 394.896011 -171.389788 
L 395.735761 -183.637899 
L 396.565803 -183.777553 
L 397.386358 -183.909659 
L 398.197642 -184.303477 
L 398.99986 -184.037991 
L 399.793214 -184.136127 
L 400.577898 -173.160008 
L 400.577898 -252.604763 
L 400.577898 -252.604763 
L 399.793214 -254.927941 
L 398.99986 -256.315431 
L 398.197642 -254.621361 
L 397.386358 -254.08435 
L 396.565803 -254.08435 
L 395.735761 -253.973004 
L 394.896011 -253.425708 
L 394.046323 -253.035052 
L 393.186458 -253.035052 
L 392.316171 -251.757398 
L 391.435205 -251.7423 
L 390.543295 -251.740413 
L 389.640166 -249.470078 
L 388.725532 -249.46819 
L 387.799096 -248.281124 
L 386.860549 -246.561859 
L 385.909571 -241.120744 
L 384.945827 -241.970233 
L 383.968971 -241.885308 
L 382.978641 -241.519185 
L 381.974459 -241.273846 
L 380.956033 -240.462338 
L 379.922953 -240.135847 
L 378.874791 -240.128298 
L 377.8111 -240.116597 
L 376.731414 -239.386618 
L 375.635243 -239.362084 
L 374.522076 -239.297918 
L 373.391378 -238.835028 
L 372.242589 -236.744498 
L 371.075119 -236.106615 
L 369.888351 -236.772807 
L 368.681636 -235.474394 
L 367.454294 -238.378838 
L 366.205604 -233.326728 
L 364.934813 -232.958719 
L 363.641124 -230.945046 
L 362.323696 -230.911076 
L 360.981642 -227.751856 
L 359.614023 -227.748082 
L 358.219847 -227.656551 
L 356.798061 -227.119635 
L 355.347551 -230.924287 
L 353.867131 -227.061131 
L 352.355542 -230.916738 
L 350.811444 -227.021499 
L 349.233406 -230.905414 
L 347.619904 -226.998852 
L 345.969307 -226.978093 
L 344.279869 -226.949784 
L 342.549717 -226.923363 
L 340.776842 -226.902604 
L 338.959078 -226.851648 
L 337.094095 -226.849761 
L 335.179373 -226.847874 
L 333.212187 -226.817678 
L 331.189579 -226.815791 
L 329.108337 -226.781821 
L 326.96496 -222.748814 
L 324.755622 -222.718619 
L 322.476135 -226.719542 
L 320.121897 -230.720466 
L 317.68784 -227.408381 
L 315.168359 -226.56479 
L 312.557242 -226.015606 
L 309.847569 -225.99296 
L 307.031607 -225.341866 
L 304.100677 -224.630381 
L 301.04499 -224.371831 
L 297.85345 -222.560092 
L 294.513415 -222.075451 
L 291.010388 -221.550425 
L 287.327641 -220.820067 
L 283.445733 -220.777605 
L 279.341883 -220.486028 
L 274.989168 -220.199169 
L 270.355443 -220.036868 
L 265.401906 -218.725244 
L 260.081115 -218.021308 
L 254.334223 -209.953408 
L 248.086996 -209.021117 
L 241.243934 -208.712131 
L 233.679279 -205.048502 
L 225.222714 -196.401222 
L 215.635452 -189.027822 
L 204.567769 -181.7167 
L 191.47748 -168.383434 
L 175.45626 -151.979647 
L 154.801316 -133.201727 
L 125.689806 -116.244982 
L 75.923352 -77.948782 
z
" id="m031f889839" style="stroke:#98df8a;stroke-opacity:0.2;"/>
    </defs>
    <g clip-path="url(#p02dba24840)">
     <use style="fill:#98df8a;fill-opacity:0.2;stroke:#98df8a;stroke-opacity:0.2;" x="0" xlink:href="#m031f889839" y="325.986375"/>
    </g>
   </g>
   <g id="matplotlib.axis_1">
    <g id="xtick_1">
     <g id="line2d_1">
      <defs>
       <path d="M 0 0 
L 0 3.5 
" id="m9abb060b6f" style="stroke:#000000;stroke-width:0.8;"/>
      </defs>
      <g>
       <use style="stroke:#000000;stroke-width:0.8;" x="75.923352" xlink:href="#m9abb060b6f" y="288.430125"/>
      </g>
     </g>
     <g id="text_1">
      <!-- 14m -->
      <g transform="translate(64.69054 303.028562)scale(0.1 -0.1)">
       <defs>
        <path d="M 794 531 
L 1825 531 
L 1825 4091 
L 703 3866 
L 703 4441 
L 1819 4666 
L 2450 4666 
L 2450 531 
L 3481 531 
L 3481 0 
L 794 0 
L 794 531 
z
" id="DejaVuSans-31" transform="scale(0.015625)"/>
        <path d="M 2419 4116 
L 825 1625 
L 2419 1625 
L 2419 4116 
z
M 2253 4666 
L 3047 4666 
L 3047 1625 
L 3713 1625 
L 3713 1100 
L 3047 1100 
L 3047 0 
L 2419 0 
L 2419 1100 
L 313 1100 
L 313 1709 
L 2253 4666 
z
" id="DejaVuSans-34" transform="scale(0.015625)"/>
        <path d="M 3328 2828 
Q 3544 3216 3844 3400 
Q 4144 3584 4550 3584 
Q 5097 3584 5394 3201 
Q 5691 2819 5691 2113 
L 5691 0 
L 5113 0 
L 5113 2094 
Q 5113 2597 4934 2840 
Q 4756 3084 4391 3084 
Q 3944 3084 3684 2787 
Q 3425 2491 3425 1978 
L 3425 0 
L 2847 0 
L 2847 2094 
Q 2847 2600 2669 2842 
Q 2491 3084 2119 3084 
Q 1678 3084 1418 2786 
Q 1159 2488 1159 1978 
L 1159 0 
L 581 0 
L 581 3500 
L 1159 3500 
L 1159 2956 
Q 1356 3278 1631 3431 
Q 1906 3584 2284 3584 
Q 2666 3584 2933 3390 
Q 3200 3197 3328 2828 
z
" id="DejaVuSans-6d" transform="scale(0.015625)"/>
       </defs>
       <use xlink:href="#DejaVuSans-31"/>
       <use x="63.623047" xlink:href="#DejaVuSans-34"/>
       <use x="127.246094" xlink:href="#DejaVuSans-6d"/>
      </g>
     </g>
    </g>
    <g id="xtick_2">
     <g id="line2d_2">
      <g>
       <use style="stroke:#000000;stroke-width:0.8;" x="140.854435" xlink:href="#m9abb060b6f" y="288.430125"/>
      </g>
     </g>
     <g id="text_2">
      <!-- 37m -->
      <g transform="translate(129.621622 303.028562)scale(0.1 -0.1)">
       <defs>
        <path d="M 2597 2516 
Q 3050 2419 3304 2112 
Q 3559 1806 3559 1356 
Q 3559 666 3084 287 
Q 2609 -91 1734 -91 
Q 1441 -91 1130 -33 
Q 819 25 488 141 
L 488 750 
Q 750 597 1062 519 
Q 1375 441 1716 441 
Q 2309 441 2620 675 
Q 2931 909 2931 1356 
Q 2931 1769 2642 2001 
Q 2353 2234 1838 2234 
L 1294 2234 
L 1294 2753 
L 1863 2753 
Q 2328 2753 2575 2939 
Q 2822 3125 2822 3475 
Q 2822 3834 2567 4026 
Q 2313 4219 1838 4219 
Q 1578 4219 1281 4162 
Q 984 4106 628 3988 
L 628 4550 
Q 988 4650 1302 4700 
Q 1616 4750 1894 4750 
Q 2613 4750 3031 4423 
Q 3450 4097 3450 3541 
Q 3450 3153 3228 2886 
Q 3006 2619 2597 2516 
z
" id="DejaVuSans-33" transform="scale(0.015625)"/>
        <path d="M 525 4666 
L 3525 4666 
L 3525 4397 
L 1831 0 
L 1172 0 
L 2766 4134 
L 525 4134 
L 525 4666 
z
" id="DejaVuSans-37" transform="scale(0.015625)"/>
       </defs>
       <use xlink:href="#DejaVuSans-33"/>
       <use x="63.623047" xlink:href="#DejaVuSans-37"/>
       <use x="127.246094" xlink:href="#DejaVuSans-6d"/>
      </g>
     </g>
    </g>
    <g id="xtick_3">
     <g id="line2d_3">
      <g>
       <use style="stroke:#000000;stroke-width:0.8;" x="205.785517" xlink:href="#m9abb060b6f" y="288.430125"/>
      </g>
     </g>
     <g id="text_3">
      <!-- 1h:31m -->
      <g transform="translate(186.51833 303.028562)scale(0.1 -0.1)">
       <defs>
        <path d="M 3513 2113 
L 3513 0 
L 2938 0 
L 2938 2094 
Q 2938 2591 2744 2837 
Q 2550 3084 2163 3084 
Q 1697 3084 1428 2787 
Q 1159 2491 1159 1978 
L 1159 0 
L 581 0 
L 581 4863 
L 1159 4863 
L 1159 2956 
Q 1366 3272 1645 3428 
Q 1925 3584 2291 3584 
Q 2894 3584 3203 3211 
Q 3513 2838 3513 2113 
z
" id="DejaVuSans-68" transform="scale(0.015625)"/>
        <path d="M 750 794 
L 1409 794 
L 1409 0 
L 750 0 
L 750 794 
z
M 750 3309 
L 1409 3309 
L 1409 2516 
L 750 2516 
L 750 3309 
z
" id="DejaVuSans-3a" transform="scale(0.015625)"/>
       </defs>
       <use xlink:href="#DejaVuSans-31"/>
       <use x="63.623047" xlink:href="#DejaVuSans-68"/>
       <use x="127.001953" xlink:href="#DejaVuSans-3a"/>
       <use x="160.693359" xlink:href="#DejaVuSans-33"/>
       <use x="224.316406" xlink:href="#DejaVuSans-31"/>
       <use x="287.939453" xlink:href="#DejaVuSans-6d"/>
      </g>
     </g>
    </g>
    <g id="xtick_4">
     <g id="line2d_4">
      <g>
       <use style="stroke:#000000;stroke-width:0.8;" x="270.7166" xlink:href="#m9abb060b6f" y="288.430125"/>
      </g>
     </g>
     <g id="text_4">
      <!-- 3h:46m -->
      <g transform="translate(251.449412 303.028562)scale(0.1 -0.1)">
       <defs>
        <path d="M 2113 2584 
Q 1688 2584 1439 2293 
Q 1191 2003 1191 1497 
Q 1191 994 1439 701 
Q 1688 409 2113 409 
Q 2538 409 2786 701 
Q 3034 994 3034 1497 
Q 3034 2003 2786 2293 
Q 2538 2584 2113 2584 
z
M 3366 4563 
L 3366 3988 
Q 3128 4100 2886 4159 
Q 2644 4219 2406 4219 
Q 1781 4219 1451 3797 
Q 1122 3375 1075 2522 
Q 1259 2794 1537 2939 
Q 1816 3084 2150 3084 
Q 2853 3084 3261 2657 
Q 3669 2231 3669 1497 
Q 3669 778 3244 343 
Q 2819 -91 2113 -91 
Q 1303 -91 875 529 
Q 447 1150 447 2328 
Q 447 3434 972 4092 
Q 1497 4750 2381 4750 
Q 2619 4750 2861 4703 
Q 3103 4656 3366 4563 
z
" id="DejaVuSans-36" transform="scale(0.015625)"/>
       </defs>
       <use xlink:href="#DejaVuSans-33"/>
       <use x="63.623047" xlink:href="#DejaVuSans-68"/>
       <use x="127.001953" xlink:href="#DejaVuSans-3a"/>
       <use x="160.693359" xlink:href="#DejaVuSans-34"/>
       <use x="224.316406" xlink:href="#DejaVuSans-36"/>
       <use x="287.939453" xlink:href="#DejaVuSans-6d"/>
      </g>
     </g>
    </g>
    <g id="xtick_5">
     <g id="line2d_5">
      <g>
       <use style="stroke:#000000;stroke-width:0.8;" x="335.647682" xlink:href="#m9abb060b6f" y="288.430125"/>
      </g>
     </g>
     <g id="text_5">
      <!-- 9h:18m -->
      <g transform="translate(316.380495 303.028562)scale(0.1 -0.1)">
       <defs>
        <path d="M 703 97 
L 703 672 
Q 941 559 1184 500 
Q 1428 441 1663 441 
Q 2288 441 2617 861 
Q 2947 1281 2994 2138 
Q 2813 1869 2534 1725 
Q 2256 1581 1919 1581 
Q 1219 1581 811 2004 
Q 403 2428 403 3163 
Q 403 3881 828 4315 
Q 1253 4750 1959 4750 
Q 2769 4750 3195 4129 
Q 3622 3509 3622 2328 
Q 3622 1225 3098 567 
Q 2575 -91 1691 -91 
Q 1453 -91 1209 -44 
Q 966 3 703 97 
z
M 1959 2075 
Q 2384 2075 2632 2365 
Q 2881 2656 2881 3163 
Q 2881 3666 2632 3958 
Q 2384 4250 1959 4250 
Q 1534 4250 1286 3958 
Q 1038 3666 1038 3163 
Q 1038 2656 1286 2365 
Q 1534 2075 1959 2075 
z
" id="DejaVuSans-39" transform="scale(0.015625)"/>
        <path d="M 2034 2216 
Q 1584 2216 1326 1975 
Q 1069 1734 1069 1313 
Q 1069 891 1326 650 
Q 1584 409 2034 409 
Q 2484 409 2743 651 
Q 3003 894 3003 1313 
Q 3003 1734 2745 1975 
Q 2488 2216 2034 2216 
z
M 1403 2484 
Q 997 2584 770 2862 
Q 544 3141 544 3541 
Q 544 4100 942 4425 
Q 1341 4750 2034 4750 
Q 2731 4750 3128 4425 
Q 3525 4100 3525 3541 
Q 3525 3141 3298 2862 
Q 3072 2584 2669 2484 
Q 3125 2378 3379 2068 
Q 3634 1759 3634 1313 
Q 3634 634 3220 271 
Q 2806 -91 2034 -91 
Q 1263 -91 848 271 
Q 434 634 434 1313 
Q 434 1759 690 2068 
Q 947 2378 1403 2484 
z
M 1172 3481 
Q 1172 3119 1398 2916 
Q 1625 2713 2034 2713 
Q 2441 2713 2670 2916 
Q 2900 3119 2900 3481 
Q 2900 3844 2670 4047 
Q 2441 4250 2034 4250 
Q 1625 4250 1398 4047 
Q 1172 3844 1172 3481 
z
" id="DejaVuSans-38" transform="scale(0.015625)"/>
       </defs>
       <use xlink:href="#DejaVuSans-39"/>
       <use x="63.623047" xlink:href="#DejaVuSans-68"/>
       <use x="127.001953" xlink:href="#DejaVuSans-3a"/>
       <use x="160.693359" xlink:href="#DejaVuSans-31"/>
       <use x="224.316406" xlink:href="#DejaVuSans-38"/>
       <use x="287.939453" xlink:href="#DejaVuSans-6d"/>
      </g>
     </g>
    </g>
    <g id="xtick_6">
     <g id="line2d_6">
      <g>
       <use style="stroke:#000000;stroke-width:0.8;" x="400.578765" xlink:href="#m9abb060b6f" y="288.430125"/>
      </g>
     </g>
     <g id="text_6">
      <!-- 23h -->
      <g transform="translate(391.047515 303.028562)scale(0.1 -0.1)">
       <defs>
        <path d="M 1228 531 
L 3431 531 
L 3431 0 
L 469 0 
L 469 531 
Q 828 903 1448 1529 
Q 2069 2156 2228 2338 
Q 2531 2678 2651 2914 
Q 2772 3150 2772 3378 
Q 2772 3750 2511 3984 
Q 2250 4219 1831 4219 
Q 1534 4219 1204 4116 
Q 875 4013 500 3803 
L 500 4441 
Q 881 4594 1212 4672 
Q 1544 4750 1819 4750 
Q 2544 4750 2975 4387 
Q 3406 4025 3406 3419 
Q 3406 3131 3298 2873 
Q 3191 2616 2906 2266 
Q 2828 2175 2409 1742 
Q 1991 1309 1228 531 
z
" id="DejaVuSans-32" transform="scale(0.015625)"/>
       </defs>
       <use xlink:href="#DejaVuSans-32"/>
       <use x="63.623047" xlink:href="#DejaVuSans-33"/>
       <use x="127.246094" xlink:href="#DejaVuSans-68"/>
      </g>
     </g>
    </g>
    <g id="xtick_7">
     <g id="line2d_7">
      <defs>
       <path d="M 0 0 
L 0 2 
" id="m4ebbce41bc" style="stroke:#000000;stroke-width:0.6;"/>
      </defs>
      <g>
       <use style="stroke:#000000;stroke-width:0.6;" x="67.466788" xlink:href="#m4ebbce41bc" y="288.430125"/>
      </g>
     </g>
    </g>
    <g id="xtick_8">
     <g id="line2d_8">
      <g>
       <use style="stroke:#000000;stroke-width:0.6;" x="133.254461" xlink:href="#m4ebbce41bc" y="288.430125"/>
      </g>
     </g>
    </g>
    <g id="xtick_9">
     <g id="line2d_9">
      <g>
       <use style="stroke:#000000;stroke-width:0.6;" x="162.36597" xlink:href="#m4ebbce41bc" y="288.430125"/>
      </g>
     </g>
    </g>
    <g id="xtick_10">
     <g id="line2d_10">
      <g>
       <use style="stroke:#000000;stroke-width:0.6;" x="183.020915" xlink:href="#m4ebbce41bc" y="288.430125"/>
      </g>
     </g>
    </g>
    <g id="xtick_11">
     <g id="line2d_11">
      <g>
       <use style="stroke:#000000;stroke-width:0.6;" x="199.042135" xlink:href="#m4ebbce41bc" y="288.430125"/>
      </g>
     </g>
    </g>
    <g id="xtick_12">
     <g id="line2d_12">
      <g>
       <use style="stroke:#000000;stroke-width:0.6;" x="212.132424" xlink:href="#m4ebbce41bc" y="288.430125"/>
      </g>
     </g>
    </g>
    <g id="xtick_13">
     <g id="line2d_13">
      <g>
       <use style="stroke:#000000;stroke-width:0.6;" x="223.200107" xlink:href="#m4ebbce41bc" y="288.430125"/>
      </g>
     </g>
    </g>
    <g id="xtick_14">
     <g id="line2d_14">
      <g>
       <use style="stroke:#000000;stroke-width:0.6;" x="232.787369" xlink:href="#m4ebbce41bc" y="288.430125"/>
      </g>
     </g>
    </g>
    <g id="xtick_15">
     <g id="line2d_15">
      <g>
       <use style="stroke:#000000;stroke-width:0.6;" x="241.243934" xlink:href="#m4ebbce41bc" y="288.430125"/>
      </g>
     </g>
    </g>
    <g id="xtick_16">
     <g id="line2d_16">
      <g>
       <use style="stroke:#000000;stroke-width:0.6;" x="298.575043" xlink:href="#m4ebbce41bc" y="288.430125"/>
      </g>
     </g>
    </g>
    <g id="xtick_17">
     <g id="line2d_17">
      <g>
       <use style="stroke:#000000;stroke-width:0.6;" x="327.686552" xlink:href="#m4ebbce41bc" y="288.430125"/>
      </g>
     </g>
    </g>
    <g id="xtick_18">
     <g id="line2d_18">
      <g>
       <use style="stroke:#000000;stroke-width:0.6;" x="348.341496" xlink:href="#m4ebbce41bc" y="288.430125"/>
      </g>
     </g>
    </g>
    <g id="xtick_19">
     <g id="line2d_19">
      <g>
       <use style="stroke:#000000;stroke-width:0.6;" x="364.362716" xlink:href="#m4ebbce41bc" y="288.430125"/>
      </g>
     </g>
    </g>
    <g id="xtick_20">
     <g id="line2d_20">
      <g>
       <use style="stroke:#000000;stroke-width:0.6;" x="377.453006" xlink:href="#m4ebbce41bc" y="288.430125"/>
      </g>
     </g>
    </g>
    <g id="xtick_21">
     <g id="line2d_21">
      <g>
       <use style="stroke:#000000;stroke-width:0.6;" x="388.520688" xlink:href="#m4ebbce41bc" y="288.430125"/>
      </g>
     </g>
    </g>
    <g id="xtick_22">
     <g id="line2d_22">
      <g>
       <use style="stroke:#000000;stroke-width:0.6;" x="398.10795" xlink:href="#m4ebbce41bc" y="288.430125"/>
      </g>
     </g>
    </g>
    <g id="xtick_23">
     <g id="line2d_23">
      <g>
       <use style="stroke:#000000;stroke-width:0.6;" x="406.564515" xlink:href="#m4ebbce41bc" y="288.430125"/>
      </g>
     </g>
    </g>
    <g id="text_7">
     <!-- Time (hour:minute) -->
     <g transform="translate(189.843594 316.706687)scale(0.1 -0.1)">
      <defs>
       <path d="M -19 4666 
L 3928 4666 
L 3928 4134 
L 2272 4134 
L 2272 0 
L 1638 0 
L 1638 4134 
L -19 4134 
L -19 4666 
z
" id="DejaVuSans-54" transform="scale(0.015625)"/>
       <path d="M 603 3500 
L 1178 3500 
L 1178 0 
L 603 0 
L 603 3500 
z
M 603 4863 
L 1178 4863 
L 1178 4134 
L 603 4134 
L 603 4863 
z
" id="DejaVuSans-69" transform="scale(0.015625)"/>
       <path d="M 3597 1894 
L 3597 1613 
L 953 1613 
Q 991 1019 1311 708 
Q 1631 397 2203 397 
Q 2534 397 2845 478 
Q 3156 559 3463 722 
L 3463 178 
Q 3153 47 2828 -22 
Q 2503 -91 2169 -91 
Q 1331 -91 842 396 
Q 353 884 353 1716 
Q 353 2575 817 3079 
Q 1281 3584 2069 3584 
Q 2775 3584 3186 3129 
Q 3597 2675 3597 1894 
z
M 3022 2063 
Q 3016 2534 2758 2815 
Q 2500 3097 2075 3097 
Q 1594 3097 1305 2825 
Q 1016 2553 972 2059 
L 3022 2063 
z
" id="DejaVuSans-65" transform="scale(0.015625)"/>
       <path id="DejaVuSans-20" transform="scale(0.015625)"/>
       <path d="M 1984 4856 
Q 1566 4138 1362 3434 
Q 1159 2731 1159 2009 
Q 1159 1288 1364 580 
Q 1569 -128 1984 -844 
L 1484 -844 
Q 1016 -109 783 600 
Q 550 1309 550 2009 
Q 550 2706 781 3412 
Q 1013 4119 1484 4856 
L 1984 4856 
z
" id="DejaVuSans-28" transform="scale(0.015625)"/>
       <path d="M 1959 3097 
Q 1497 3097 1228 2736 
Q 959 2375 959 1747 
Q 959 1119 1226 758 
Q 1494 397 1959 397 
Q 2419 397 2687 759 
Q 2956 1122 2956 1747 
Q 2956 2369 2687 2733 
Q 2419 3097 1959 3097 
z
M 1959 3584 
Q 2709 3584 3137 3096 
Q 3566 2609 3566 1747 
Q 3566 888 3137 398 
Q 2709 -91 1959 -91 
Q 1206 -91 779 398 
Q 353 888 353 1747 
Q 353 2609 779 3096 
Q 1206 3584 1959 3584 
z
" id="DejaVuSans-6f" transform="scale(0.015625)"/>
       <path d="M 544 1381 
L 544 3500 
L 1119 3500 
L 1119 1403 
Q 1119 906 1312 657 
Q 1506 409 1894 409 
Q 2359 409 2629 706 
Q 2900 1003 2900 1516 
L 2900 3500 
L 3475 3500 
L 3475 0 
L 2900 0 
L 2900 538 
Q 2691 219 2414 64 
Q 2138 -91 1772 -91 
Q 1169 -91 856 284 
Q 544 659 544 1381 
z
M 1991 3584 
L 1991 3584 
z
" id="DejaVuSans-75" transform="scale(0.015625)"/>
       <path d="M 2631 2963 
Q 2534 3019 2420 3045 
Q 2306 3072 2169 3072 
Q 1681 3072 1420 2755 
Q 1159 2438 1159 1844 
L 1159 0 
L 581 0 
L 581 3500 
L 1159 3500 
L 1159 2956 
Q 1341 3275 1631 3429 
Q 1922 3584 2338 3584 
Q 2397 3584 2469 3576 
Q 2541 3569 2628 3553 
L 2631 2963 
z
" id="DejaVuSans-72" transform="scale(0.015625)"/>
       <path d="M 3513 2113 
L 3513 0 
L 2938 0 
L 2938 2094 
Q 2938 2591 2744 2837 
Q 2550 3084 2163 3084 
Q 1697 3084 1428 2787 
Q 1159 2491 1159 1978 
L 1159 0 
L 581 0 
L 581 3500 
L 1159 3500 
L 1159 2956 
Q 1366 3272 1645 3428 
Q 1925 3584 2291 3584 
Q 2894 3584 3203 3211 
Q 3513 2838 3513 2113 
z
" id="DejaVuSans-6e" transform="scale(0.015625)"/>
       <path d="M 1172 4494 
L 1172 3500 
L 2356 3500 
L 2356 3053 
L 1172 3053 
L 1172 1153 
Q 1172 725 1289 603 
Q 1406 481 1766 481 
L 2356 481 
L 2356 0 
L 1766 0 
Q 1100 0 847 248 
Q 594 497 594 1153 
L 594 3053 
L 172 3053 
L 172 3500 
L 594 3500 
L 594 4494 
L 1172 4494 
z
" id="DejaVuSans-74" transform="scale(0.015625)"/>
       <path d="M 513 4856 
L 1013 4856 
Q 1481 4119 1714 3412 
Q 1947 2706 1947 2009 
Q 1947 1309 1714 600 
Q 1481 -109 1013 -844 
L 513 -844 
Q 928 -128 1133 580 
Q 1338 1288 1338 2009 
Q 1338 2731 1133 3434 
Q 928 4138 513 4856 
z
" id="DejaVuSans-29" transform="scale(0.015625)"/>
      </defs>
      <use xlink:href="#DejaVuSans-54"/>
      <use x="57.958984" xlink:href="#DejaVuSans-69"/>
      <use x="85.742188" xlink:href="#DejaVuSans-6d"/>
      <use x="183.154297" xlink:href="#DejaVuSans-65"/>
      <use x="244.677734" xlink:href="#DejaVuSans-20"/>
      <use x="276.464844" xlink:href="#DejaVuSans-28"/>
      <use x="315.478516" xlink:href="#DejaVuSans-68"/>
      <use x="378.857422" xlink:href="#DejaVuSans-6f"/>
      <use x="440.039062" xlink:href="#DejaVuSans-75"/>
      <use x="503.417969" xlink:href="#DejaVuSans-72"/>
      <use x="542.78125" xlink:href="#DejaVuSans-3a"/>
      <use x="576.472656" xlink:href="#DejaVuSans-6d"/>
      <use x="673.884766" xlink:href="#DejaVuSans-69"/>
      <use x="701.667969" xlink:href="#DejaVuSans-6e"/>
      <use x="765.046875" xlink:href="#DejaVuSans-75"/>
      <use x="828.425781" xlink:href="#DejaVuSans-74"/>
      <use x="867.634766" xlink:href="#DejaVuSans-65"/>
      <use x="929.158203" xlink:href="#DejaVuSans-29"/>
     </g>
    </g>
   </g>
   <g id="matplotlib.axis_2">
    <g id="ytick_1">
     <g id="line2d_24">
      <defs>
       <path d="M 0 0 
L -3.5 0 
" id="m6ebefc8281" style="stroke:#000000;stroke-width:0.8;"/>
      </defs>
      <g>
       <use style="stroke:#000000;stroke-width:0.8;" x="59.690625" xlink:href="#m6ebefc8281" y="269.328734"/>
      </g>
     </g>
     <g id="text_8">
      <!-- 20000 -->
      <g transform="translate(20.878125 273.127953)scale(0.1 -0.1)">
       <defs>
        <path d="M 2034 4250 
Q 1547 4250 1301 3770 
Q 1056 3291 1056 2328 
Q 1056 1369 1301 889 
Q 1547 409 2034 409 
Q 2525 409 2770 889 
Q 3016 1369 3016 2328 
Q 3016 3291 2770 3770 
Q 2525 4250 2034 4250 
z
M 2034 4750 
Q 2819 4750 3233 4129 
Q 3647 3509 3647 2328 
Q 3647 1150 3233 529 
Q 2819 -91 2034 -91 
Q 1250 -91 836 529 
Q 422 1150 422 2328 
Q 422 3509 836 4129 
Q 1250 4750 2034 4750 
z
" id="DejaVuSans-30" transform="scale(0.015625)"/>
       </defs>
       <use xlink:href="#DejaVuSans-32"/>
       <use x="63.623047" xlink:href="#DejaVuSans-30"/>
       <use x="127.246094" xlink:href="#DejaVuSans-30"/>
       <use x="190.869141" xlink:href="#DejaVuSans-30"/>
       <use x="254.492188" xlink:href="#DejaVuSans-30"/>
      </g>
     </g>
    </g>
    <g id="ytick_2">
     <g id="line2d_25">
      <g>
       <use style="stroke:#000000;stroke-width:0.8;" x="59.690625" xlink:href="#m6ebefc8281" y="231.584171"/>
      </g>
     </g>
     <g id="text_9">
      <!-- 30000 -->
      <g transform="translate(20.878125 235.38339)scale(0.1 -0.1)">
       <use xlink:href="#DejaVuSans-33"/>
       <use x="63.623047" xlink:href="#DejaVuSans-30"/>
       <use x="127.246094" xlink:href="#DejaVuSans-30"/>
       <use x="190.869141" xlink:href="#DejaVuSans-30"/>
       <use x="254.492188" xlink:href="#DejaVuSans-30"/>
      </g>
     </g>
    </g>
    <g id="ytick_3">
     <g id="line2d_26">
      <g>
       <use style="stroke:#000000;stroke-width:0.8;" x="59.690625" xlink:href="#m6ebefc8281" y="193.839609"/>
      </g>
     </g>
     <g id="text_10">
      <!-- 40000 -->
      <g transform="translate(20.878125 197.638828)scale(0.1 -0.1)">
       <use xlink:href="#DejaVuSans-34"/>
       <use x="63.623047" xlink:href="#DejaVuSans-30"/>
       <use x="127.246094" xlink:href="#DejaVuSans-30"/>
       <use x="190.869141" xlink:href="#DejaVuSans-30"/>
       <use x="254.492188" xlink:href="#DejaVuSans-30"/>
      </g>
     </g>
    </g>
    <g id="ytick_4">
     <g id="line2d_27">
      <g>
       <use style="stroke:#000000;stroke-width:0.8;" x="59.690625" xlink:href="#m6ebefc8281" y="156.095046"/>
      </g>
     </g>
     <g id="text_11">
      <!-- 50000 -->
      <g transform="translate(20.878125 159.894265)scale(0.1 -0.1)">
       <defs>
        <path d="M 691 4666 
L 3169 4666 
L 3169 4134 
L 1269 4134 
L 1269 2991 
Q 1406 3038 1543 3061 
Q 1681 3084 1819 3084 
Q 2600 3084 3056 2656 
Q 3513 2228 3513 1497 
Q 3513 744 3044 326 
Q 2575 -91 1722 -91 
Q 1428 -91 1123 -41 
Q 819 9 494 109 
L 494 744 
Q 775 591 1075 516 
Q 1375 441 1709 441 
Q 2250 441 2565 725 
Q 2881 1009 2881 1497 
Q 2881 1984 2565 2268 
Q 2250 2553 1709 2553 
Q 1456 2553 1204 2497 
Q 953 2441 691 2322 
L 691 4666 
z
" id="DejaVuSans-35" transform="scale(0.015625)"/>
       </defs>
       <use xlink:href="#DejaVuSans-35"/>
       <use x="63.623047" xlink:href="#DejaVuSans-30"/>
       <use x="127.246094" xlink:href="#DejaVuSans-30"/>
       <use x="190.869141" xlink:href="#DejaVuSans-30"/>
       <use x="254.492188" xlink:href="#DejaVuSans-30"/>
      </g>
     </g>
    </g>
    <g id="ytick_5">
     <g id="line2d_28">
      <g>
       <use style="stroke:#000000;stroke-width:0.8;" x="59.690625" xlink:href="#m6ebefc8281" y="118.350483"/>
      </g>
     </g>
     <g id="text_12">
      <!-- 60000 -->
      <g transform="translate(20.878125 122.149702)scale(0.1 -0.1)">
       <use xlink:href="#DejaVuSans-36"/>
       <use x="63.623047" xlink:href="#DejaVuSans-30"/>
       <use x="127.246094" xlink:href="#DejaVuSans-30"/>
       <use x="190.869141" xlink:href="#DejaVuSans-30"/>
       <use x="254.492188" xlink:href="#DejaVuSans-30"/>
      </g>
     </g>
    </g>
    <g id="ytick_6">
     <g id="line2d_29">
      <g>
       <use style="stroke:#000000;stroke-width:0.8;" x="59.690625" xlink:href="#m6ebefc8281" y="80.605921"/>
      </g>
     </g>
     <g id="text_13">
      <!-- 70000 -->
      <g transform="translate(20.878125 84.40514)scale(0.1 -0.1)">
       <use xlink:href="#DejaVuSans-37"/>
       <use x="63.623047" xlink:href="#DejaVuSans-30"/>
       <use x="127.246094" xlink:href="#DejaVuSans-30"/>
       <use x="190.869141" xlink:href="#DejaVuSans-30"/>
       <use x="254.492188" xlink:href="#DejaVuSans-30"/>
      </g>
     </g>
    </g>
    <g id="ytick_7">
     <g id="line2d_30">
      <g>
       <use style="stroke:#000000;stroke-width:0.8;" x="59.690625" xlink:href="#m6ebefc8281" y="42.861358"/>
      </g>
     </g>
     <g id="text_14">
      <!-- 80000 -->
      <g transform="translate(20.878125 46.660577)scale(0.1 -0.1)">
       <use xlink:href="#DejaVuSans-38"/>
       <use x="63.623047" xlink:href="#DejaVuSans-30"/>
       <use x="127.246094" xlink:href="#DejaVuSans-30"/>
       <use x="190.869141" xlink:href="#DejaVuSans-30"/>
       <use x="254.492188" xlink:href="#DejaVuSans-30"/>
      </g>
     </g>
    </g>
    <g id="text_15">
     <!-- Code region coverage -->
     <g transform="translate(14.798438 210.379594)rotate(-90)scale(0.1 -0.1)">
      <defs>
       <path d="M 4122 4306 
L 4122 3641 
Q 3803 3938 3442 4084 
Q 3081 4231 2675 4231 
Q 1875 4231 1450 3742 
Q 1025 3253 1025 2328 
Q 1025 1406 1450 917 
Q 1875 428 2675 428 
Q 3081 428 3442 575 
Q 3803 722 4122 1019 
L 4122 359 
Q 3791 134 3420 21 
Q 3050 -91 2638 -91 
Q 1578 -91 968 557 
Q 359 1206 359 2328 
Q 359 3453 968 4101 
Q 1578 4750 2638 4750 
Q 3056 4750 3426 4639 
Q 3797 4528 4122 4306 
z
" id="DejaVuSans-43" transform="scale(0.015625)"/>
       <path d="M 2906 2969 
L 2906 4863 
L 3481 4863 
L 3481 0 
L 2906 0 
L 2906 525 
Q 2725 213 2448 61 
Q 2172 -91 1784 -91 
Q 1150 -91 751 415 
Q 353 922 353 1747 
Q 353 2572 751 3078 
Q 1150 3584 1784 3584 
Q 2172 3584 2448 3432 
Q 2725 3281 2906 2969 
z
M 947 1747 
Q 947 1113 1208 752 
Q 1469 391 1925 391 
Q 2381 391 2643 752 
Q 2906 1113 2906 1747 
Q 2906 2381 2643 2742 
Q 2381 3103 1925 3103 
Q 1469 3103 1208 2742 
Q 947 2381 947 1747 
z
" id="DejaVuSans-64" transform="scale(0.015625)"/>
       <path d="M 2906 1791 
Q 2906 2416 2648 2759 
Q 2391 3103 1925 3103 
Q 1463 3103 1205 2759 
Q 947 2416 947 1791 
Q 947 1169 1205 825 
Q 1463 481 1925 481 
Q 2391 481 2648 825 
Q 2906 1169 2906 1791 
z
M 3481 434 
Q 3481 -459 3084 -895 
Q 2688 -1331 1869 -1331 
Q 1566 -1331 1297 -1286 
Q 1028 -1241 775 -1147 
L 775 -588 
Q 1028 -725 1275 -790 
Q 1522 -856 1778 -856 
Q 2344 -856 2625 -561 
Q 2906 -266 2906 331 
L 2906 616 
Q 2728 306 2450 153 
Q 2172 0 1784 0 
Q 1141 0 747 490 
Q 353 981 353 1791 
Q 353 2603 747 3093 
Q 1141 3584 1784 3584 
Q 2172 3584 2450 3431 
Q 2728 3278 2906 2969 
L 2906 3500 
L 3481 3500 
L 3481 434 
z
" id="DejaVuSans-67" transform="scale(0.015625)"/>
       <path d="M 3122 3366 
L 3122 2828 
Q 2878 2963 2633 3030 
Q 2388 3097 2138 3097 
Q 1578 3097 1268 2742 
Q 959 2388 959 1747 
Q 959 1106 1268 751 
Q 1578 397 2138 397 
Q 2388 397 2633 464 
Q 2878 531 3122 666 
L 3122 134 
Q 2881 22 2623 -34 
Q 2366 -91 2075 -91 
Q 1284 -91 818 406 
Q 353 903 353 1747 
Q 353 2603 823 3093 
Q 1294 3584 2113 3584 
Q 2378 3584 2631 3529 
Q 2884 3475 3122 3366 
z
" id="DejaVuSans-63" transform="scale(0.015625)"/>
       <path d="M 191 3500 
L 800 3500 
L 1894 563 
L 2988 3500 
L 3597 3500 
L 2284 0 
L 1503 0 
L 191 3500 
z
" id="DejaVuSans-76" transform="scale(0.015625)"/>
       <path d="M 2194 1759 
Q 1497 1759 1228 1600 
Q 959 1441 959 1056 
Q 959 750 1161 570 
Q 1363 391 1709 391 
Q 2188 391 2477 730 
Q 2766 1069 2766 1631 
L 2766 1759 
L 2194 1759 
z
M 3341 1997 
L 3341 0 
L 2766 0 
L 2766 531 
Q 2569 213 2275 61 
Q 1981 -91 1556 -91 
Q 1019 -91 701 211 
Q 384 513 384 1019 
Q 384 1609 779 1909 
Q 1175 2209 1959 2209 
L 2766 2209 
L 2766 2266 
Q 2766 2663 2505 2880 
Q 2244 3097 1772 3097 
Q 1472 3097 1187 3025 
Q 903 2953 641 2809 
L 641 3341 
Q 956 3463 1253 3523 
Q 1550 3584 1831 3584 
Q 2591 3584 2966 3190 
Q 3341 2797 3341 1997 
z
" id="DejaVuSans-61" transform="scale(0.015625)"/>
      </defs>
      <use xlink:href="#DejaVuSans-43"/>
      <use x="69.824219" xlink:href="#DejaVuSans-6f"/>
      <use x="131.005859" xlink:href="#DejaVuSans-64"/>
      <use x="194.482422" xlink:href="#DejaVuSans-65"/>
      <use x="256.005859" xlink:href="#DejaVuSans-20"/>
      <use x="287.792969" xlink:href="#DejaVuSans-72"/>
      <use x="326.65625" xlink:href="#DejaVuSans-65"/>
      <use x="388.179688" xlink:href="#DejaVuSans-67"/>
      <use x="451.65625" xlink:href="#DejaVuSans-69"/>
      <use x="479.439453" xlink:href="#DejaVuSans-6f"/>
      <use x="540.621094" xlink:href="#DejaVuSans-6e"/>
      <use x="604" xlink:href="#DejaVuSans-20"/>
      <use x="635.787109" xlink:href="#DejaVuSans-63"/>
      <use x="690.767578" xlink:href="#DejaVuSans-6f"/>
      <use x="751.949219" xlink:href="#DejaVuSans-76"/>
      <use x="811.128906" xlink:href="#DejaVuSans-65"/>
      <use x="872.652344" xlink:href="#DejaVuSans-72"/>
      <use x="913.765625" xlink:href="#DejaVuSans-61"/>
      <use x="975.044922" xlink:href="#DejaVuSans-67"/>
      <use x="1038.521484" xlink:href="#DejaVuSans-65"/>
     </g>
    </g>
   </g>
   <g id="line2d_31">
    <path clip-path="url(#p02dba24840)" d="M 75.923352 254.01954 
L 125.689806 229.723365 
L 154.801316 208.492048 
L 175.45626 195.843845 
L 191.47748 176.275177 
L 204.567769 159.410906 
L 215.635452 151.216561 
L 225.222714 145.354831 
L 233.679279 140.491444 
L 241.243934 131.398779 
L 248.086996 125.974885 
L 254.334223 121.1851 
L 260.081115 119.716837 
L 265.401906 116.672738 
L 270.355443 112.998304 
L 274.989168 110.690224 
L 279.341883 107.563087 
L 283.445733 106.413766 
L 287.327641 102.695926 
L 291.010388 100.567133 
L 294.513415 99.117742 
L 297.85345 97.317326 
L 301.04499 95.81698 
L 304.100677 93.837277 
L 307.031607 91.251775 
L 309.847569 89.370208 
L 312.557242 88.203901 
L 315.168359 86.143048 
L 317.68784 84.269031 
L 320.121897 82.508247 
L 322.476135 80.768222 
L 324.755622 79.475471 
L 326.96496 77.248542 
L 329.108337 74.86686 
L 331.189579 73.328769 
L 333.212187 72.145477 
L 335.179373 71.283014 
L 337.094095 70.111045 
L 338.959078 69.726051 
L 340.776842 69.388237 
L 342.549717 68.072839 
L 344.279869 67.421745 
L 345.969307 65.749661 
L 347.619904 64.621099 
L 349.233406 64.390857 
L 350.811444 63.890741 
L 352.355542 63.722778 
L 353.867131 61.373179 
L 355.347551 60.823996 
L 356.798061 59.535019 
L 358.219847 58.736721 
L 359.614023 58.051657 
L 360.981642 57.421323 
L 362.323696 56.881576 
L 363.641124 56.707951 
L 364.934813 56.026662 
L 366.205604 55.624682 
L 367.454294 55.541644 
L 368.681636 53.822379 
L 369.888351 53.373219 
L 371.075119 52.482447 
L 372.242589 52.144633 
L 373.391378 52.144633 
L 374.522076 51.151951 
L 375.635243 50.770731 
L 376.731414 50.213999 
L 377.8111 49.781824 
L 378.874791 49.377957 
L 379.922953 48.479636 
L 380.956033 48.309786 
L 381.974459 47.549233 
L 382.978641 47.239727 
L 383.968971 46.660348 
L 384.945827 45.512914 
L 385.909571 44.961843 
L 386.860549 44.520232 
L 387.799096 44.212613 
L 388.725532 43.648332 
L 389.640166 43.353925 
L 390.543295 42.36313 
L 391.435205 42.163084 
L 392.316171 41.932842 
L 393.186458 41.642209 
L 394.046323 41.19871 
L 394.896011 40.892979 
L 395.735761 40.71558 
L 396.565803 40.502323 
L 397.386358 40.366443 
L 398.197642 39.873876 
L 398.99986 37.756406 
L 399.793214 37.473322 
L 400.577898 37.784714 
" style="fill:none;stroke:#d62728;stroke-linecap:square;stroke-width:1.5;"/>
    <defs>
     <path d="M 0 -3 
L -3 3 
L 3 3 
z
" id="m6d1640511e" style="stroke:#ffffff;stroke-linejoin:miter;stroke-width:0.75;"/>
    </defs>
    <g clip-path="url(#p02dba24840)">
     <use style="fill:#d62728;stroke:#ffffff;stroke-linejoin:miter;stroke-width:0.75;" x="75.923352" xlink:href="#m6d1640511e" y="254.01954"/>
     <use style="fill:#d62728;stroke:#ffffff;stroke-linejoin:miter;stroke-width:0.75;" x="125.689806" xlink:href="#m6d1640511e" y="229.723365"/>
     <use style="fill:#d62728;stroke:#ffffff;stroke-linejoin:miter;stroke-width:0.75;" x="154.801316" xlink:href="#m6d1640511e" y="208.492048"/>
     <use style="fill:#d62728;stroke:#ffffff;stroke-linejoin:miter;stroke-width:0.75;" x="175.45626" xlink:href="#m6d1640511e" y="195.843845"/>
     <use style="fill:#d62728;stroke:#ffffff;stroke-linejoin:miter;stroke-width:0.75;" x="191.47748" xlink:href="#m6d1640511e" y="176.275177"/>
     <use style="fill:#d62728;stroke:#ffffff;stroke-linejoin:miter;stroke-width:0.75;" x="204.567769" xlink:href="#m6d1640511e" y="159.410906"/>
     <use style="fill:#d62728;stroke:#ffffff;stroke-linejoin:miter;stroke-width:0.75;" x="215.635452" xlink:href="#m6d1640511e" y="151.216561"/>
     <use style="fill:#d62728;stroke:#ffffff;stroke-linejoin:miter;stroke-width:0.75;" x="225.222714" xlink:href="#m6d1640511e" y="145.354831"/>
     <use style="fill:#d62728;stroke:#ffffff;stroke-linejoin:miter;stroke-width:0.75;" x="233.679279" xlink:href="#m6d1640511e" y="140.491444"/>
     <use style="fill:#d62728;stroke:#ffffff;stroke-linejoin:miter;stroke-width:0.75;" x="241.243934" xlink:href="#m6d1640511e" y="131.398779"/>
     <use style="fill:#d62728;stroke:#ffffff;stroke-linejoin:miter;stroke-width:0.75;" x="248.086996" xlink:href="#m6d1640511e" y="125.974885"/>
     <use style="fill:#d62728;stroke:#ffffff;stroke-linejoin:miter;stroke-width:0.75;" x="254.334223" xlink:href="#m6d1640511e" y="121.1851"/>
     <use style="fill:#d62728;stroke:#ffffff;stroke-linejoin:miter;stroke-width:0.75;" x="260.081115" xlink:href="#m6d1640511e" y="119.716837"/>
     <use style="fill:#d62728;stroke:#ffffff;stroke-linejoin:miter;stroke-width:0.75;" x="265.401906" xlink:href="#m6d1640511e" y="116.672738"/>
     <use style="fill:#d62728;stroke:#ffffff;stroke-linejoin:miter;stroke-width:0.75;" x="270.355443" xlink:href="#m6d1640511e" y="112.998304"/>
     <use style="fill:#d62728;stroke:#ffffff;stroke-linejoin:miter;stroke-width:0.75;" x="274.989168" xlink:href="#m6d1640511e" y="110.690224"/>
     <use style="fill:#d62728;stroke:#ffffff;stroke-linejoin:miter;stroke-width:0.75;" x="279.341883" xlink:href="#m6d1640511e" y="107.563087"/>
     <use style="fill:#d62728;stroke:#ffffff;stroke-linejoin:miter;stroke-width:0.75;" x="283.445733" xlink:href="#m6d1640511e" y="106.413766"/>
     <use style="fill:#d62728;stroke:#ffffff;stroke-linejoin:miter;stroke-width:0.75;" x="287.327641" xlink:href="#m6d1640511e" y="102.695926"/>
     <use style="fill:#d62728;stroke:#ffffff;stroke-linejoin:miter;stroke-width:0.75;" x="291.010388" xlink:href="#m6d1640511e" y="100.567133"/>
     <use style="fill:#d62728;stroke:#ffffff;stroke-linejoin:miter;stroke-width:0.75;" x="294.513415" xlink:href="#m6d1640511e" y="99.117742"/>
     <use style="fill:#d62728;stroke:#ffffff;stroke-linejoin:miter;stroke-width:0.75;" x="297.85345" xlink:href="#m6d1640511e" y="97.317326"/>
     <use style="fill:#d62728;stroke:#ffffff;stroke-linejoin:miter;stroke-width:0.75;" x="301.04499" xlink:href="#m6d1640511e" y="95.81698"/>
     <use style="fill:#d62728;stroke:#ffffff;stroke-linejoin:miter;stroke-width:0.75;" x="304.100677" xlink:href="#m6d1640511e" y="93.837277"/>
     <use style="fill:#d62728;stroke:#ffffff;stroke-linejoin:miter;stroke-width:0.75;" x="307.031607" xlink:href="#m6d1640511e" y="91.251775"/>
     <use style="fill:#d62728;stroke:#ffffff;stroke-linejoin:miter;stroke-width:0.75;" x="309.847569" xlink:href="#m6d1640511e" y="89.370208"/>
     <use style="fill:#d62728;stroke:#ffffff;stroke-linejoin:miter;stroke-width:0.75;" x="312.557242" xlink:href="#m6d1640511e" y="88.203901"/>
     <use style="fill:#d62728;stroke:#ffffff;stroke-linejoin:miter;stroke-width:0.75;" x="315.168359" xlink:href="#m6d1640511e" y="86.143048"/>
     <use style="fill:#d62728;stroke:#ffffff;stroke-linejoin:miter;stroke-width:0.75;" x="317.68784" xlink:href="#m6d1640511e" y="84.269031"/>
     <use style="fill:#d62728;stroke:#ffffff;stroke-linejoin:miter;stroke-width:0.75;" x="320.121897" xlink:href="#m6d1640511e" y="82.508247"/>
     <use style="fill:#d62728;stroke:#ffffff;stroke-linejoin:miter;stroke-width:0.75;" x="322.476135" xlink:href="#m6d1640511e" y="80.768222"/>
     <use style="fill:#d62728;stroke:#ffffff;stroke-linejoin:miter;stroke-width:0.75;" x="324.755622" xlink:href="#m6d1640511e" y="79.475471"/>
     <use style="fill:#d62728;stroke:#ffffff;stroke-linejoin:miter;stroke-width:0.75;" x="326.96496" xlink:href="#m6d1640511e" y="77.248542"/>
     <use style="fill:#d62728;stroke:#ffffff;stroke-linejoin:miter;stroke-width:0.75;" x="329.108337" xlink:href="#m6d1640511e" y="74.86686"/>
     <use style="fill:#d62728;stroke:#ffffff;stroke-linejoin:miter;stroke-width:0.75;" x="331.189579" xlink:href="#m6d1640511e" y="73.328769"/>
     <use style="fill:#d62728;stroke:#ffffff;stroke-linejoin:miter;stroke-width:0.75;" x="333.212187" xlink:href="#m6d1640511e" y="72.145477"/>
     <use style="fill:#d62728;stroke:#ffffff;stroke-linejoin:miter;stroke-width:0.75;" x="335.179373" xlink:href="#m6d1640511e" y="71.283014"/>
     <use style="fill:#d62728;stroke:#ffffff;stroke-linejoin:miter;stroke-width:0.75;" x="337.094095" xlink:href="#m6d1640511e" y="70.111045"/>
     <use style="fill:#d62728;stroke:#ffffff;stroke-linejoin:miter;stroke-width:0.75;" x="338.959078" xlink:href="#m6d1640511e" y="69.726051"/>
     <use style="fill:#d62728;stroke:#ffffff;stroke-linejoin:miter;stroke-width:0.75;" x="340.776842" xlink:href="#m6d1640511e" y="69.388237"/>
     <use style="fill:#d62728;stroke:#ffffff;stroke-linejoin:miter;stroke-width:0.75;" x="342.549717" xlink:href="#m6d1640511e" y="68.072839"/>
     <use style="fill:#d62728;stroke:#ffffff;stroke-linejoin:miter;stroke-width:0.75;" x="344.279869" xlink:href="#m6d1640511e" y="67.421745"/>
     <use style="fill:#d62728;stroke:#ffffff;stroke-linejoin:miter;stroke-width:0.75;" x="345.969307" xlink:href="#m6d1640511e" y="65.749661"/>
     <use style="fill:#d62728;stroke:#ffffff;stroke-linejoin:miter;stroke-width:0.75;" x="347.619904" xlink:href="#m6d1640511e" y="64.621099"/>
     <use style="fill:#d62728;stroke:#ffffff;stroke-linejoin:miter;stroke-width:0.75;" x="349.233406" xlink:href="#m6d1640511e" y="64.390857"/>
     <use style="fill:#d62728;stroke:#ffffff;stroke-linejoin:miter;stroke-width:0.75;" x="350.811444" xlink:href="#m6d1640511e" y="63.890741"/>
     <use style="fill:#d62728;stroke:#ffffff;stroke-linejoin:miter;stroke-width:0.75;" x="352.355542" xlink:href="#m6d1640511e" y="63.722778"/>
     <use style="fill:#d62728;stroke:#ffffff;stroke-linejoin:miter;stroke-width:0.75;" x="353.867131" xlink:href="#m6d1640511e" y="61.373179"/>
     <use style="fill:#d62728;stroke:#ffffff;stroke-linejoin:miter;stroke-width:0.75;" x="355.347551" xlink:href="#m6d1640511e" y="60.823996"/>
     <use style="fill:#d62728;stroke:#ffffff;stroke-linejoin:miter;stroke-width:0.75;" x="356.798061" xlink:href="#m6d1640511e" y="59.535019"/>
     <use style="fill:#d62728;stroke:#ffffff;stroke-linejoin:miter;stroke-width:0.75;" x="358.219847" xlink:href="#m6d1640511e" y="58.736721"/>
     <use style="fill:#d62728;stroke:#ffffff;stroke-linejoin:miter;stroke-width:0.75;" x="359.614023" xlink:href="#m6d1640511e" y="58.051657"/>
     <use style="fill:#d62728;stroke:#ffffff;stroke-linejoin:miter;stroke-width:0.75;" x="360.981642" xlink:href="#m6d1640511e" y="57.421323"/>
     <use style="fill:#d62728;stroke:#ffffff;stroke-linejoin:miter;stroke-width:0.75;" x="362.323696" xlink:href="#m6d1640511e" y="56.881576"/>
     <use style="fill:#d62728;stroke:#ffffff;stroke-linejoin:miter;stroke-width:0.75;" x="363.641124" xlink:href="#m6d1640511e" y="56.707951"/>
     <use style="fill:#d62728;stroke:#ffffff;stroke-linejoin:miter;stroke-width:0.75;" x="364.934813" xlink:href="#m6d1640511e" y="56.026662"/>
     <use style="fill:#d62728;stroke:#ffffff;stroke-linejoin:miter;stroke-width:0.75;" x="366.205604" xlink:href="#m6d1640511e" y="55.624682"/>
     <use style="fill:#d62728;stroke:#ffffff;stroke-linejoin:miter;stroke-width:0.75;" x="367.454294" xlink:href="#m6d1640511e" y="55.541644"/>
     <use style="fill:#d62728;stroke:#ffffff;stroke-linejoin:miter;stroke-width:0.75;" x="368.681636" xlink:href="#m6d1640511e" y="53.822379"/>
     <use style="fill:#d62728;stroke:#ffffff;stroke-linejoin:miter;stroke-width:0.75;" x="369.888351" xlink:href="#m6d1640511e" y="53.373219"/>
     <use style="fill:#d62728;stroke:#ffffff;stroke-linejoin:miter;stroke-width:0.75;" x="371.075119" xlink:href="#m6d1640511e" y="52.482447"/>
     <use style="fill:#d62728;stroke:#ffffff;stroke-linejoin:miter;stroke-width:0.75;" x="372.242589" xlink:href="#m6d1640511e" y="52.144633"/>
     <use style="fill:#d62728;stroke:#ffffff;stroke-linejoin:miter;stroke-width:0.75;" x="373.391378" xlink:href="#m6d1640511e" y="52.144633"/>
     <use style="fill:#d62728;stroke:#ffffff;stroke-linejoin:miter;stroke-width:0.75;" x="374.522076" xlink:href="#m6d1640511e" y="51.151951"/>
     <use style="fill:#d62728;stroke:#ffffff;stroke-linejoin:miter;stroke-width:0.75;" x="375.635243" xlink:href="#m6d1640511e" y="50.770731"/>
     <use style="fill:#d62728;stroke:#ffffff;stroke-linejoin:miter;stroke-width:0.75;" x="376.731414" xlink:href="#m6d1640511e" y="50.213999"/>
     <use style="fill:#d62728;stroke:#ffffff;stroke-linejoin:miter;stroke-width:0.75;" x="377.8111" xlink:href="#m6d1640511e" y="49.781824"/>
     <use style="fill:#d62728;stroke:#ffffff;stroke-linejoin:miter;stroke-width:0.75;" x="378.874791" xlink:href="#m6d1640511e" y="49.377957"/>
     <use style="fill:#d62728;stroke:#ffffff;stroke-linejoin:miter;stroke-width:0.75;" x="379.922953" xlink:href="#m6d1640511e" y="48.479636"/>
     <use style="fill:#d62728;stroke:#ffffff;stroke-linejoin:miter;stroke-width:0.75;" x="380.956033" xlink:href="#m6d1640511e" y="48.309786"/>
     <use style="fill:#d62728;stroke:#ffffff;stroke-linejoin:miter;stroke-width:0.75;" x="381.974459" xlink:href="#m6d1640511e" y="47.549233"/>
     <use style="fill:#d62728;stroke:#ffffff;stroke-linejoin:miter;stroke-width:0.75;" x="382.978641" xlink:href="#m6d1640511e" y="47.239727"/>
     <use style="fill:#d62728;stroke:#ffffff;stroke-linejoin:miter;stroke-width:0.75;" x="383.968971" xlink:href="#m6d1640511e" y="46.660348"/>
     <use style="fill:#d62728;stroke:#ffffff;stroke-linejoin:miter;stroke-width:0.75;" x="384.945827" xlink:href="#m6d1640511e" y="45.512914"/>
     <use style="fill:#d62728;stroke:#ffffff;stroke-linejoin:miter;stroke-width:0.75;" x="385.909571" xlink:href="#m6d1640511e" y="44.961843"/>
     <use style="fill:#d62728;stroke:#ffffff;stroke-linejoin:miter;stroke-width:0.75;" x="386.860549" xlink:href="#m6d1640511e" y="44.520232"/>
     <use style="fill:#d62728;stroke:#ffffff;stroke-linejoin:miter;stroke-width:0.75;" x="387.799096" xlink:href="#m6d1640511e" y="44.212613"/>
     <use style="fill:#d62728;stroke:#ffffff;stroke-linejoin:miter;stroke-width:0.75;" x="388.725532" xlink:href="#m6d1640511e" y="43.648332"/>
     <use style="fill:#d62728;stroke:#ffffff;stroke-linejoin:miter;stroke-width:0.75;" x="389.640166" xlink:href="#m6d1640511e" y="43.353925"/>
     <use style="fill:#d62728;stroke:#ffffff;stroke-linejoin:miter;stroke-width:0.75;" x="390.543295" xlink:href="#m6d1640511e" y="42.36313"/>
     <use style="fill:#d62728;stroke:#ffffff;stroke-linejoin:miter;stroke-width:0.75;" x="391.435205" xlink:href="#m6d1640511e" y="42.163084"/>
     <use style="fill:#d62728;stroke:#ffffff;stroke-linejoin:miter;stroke-width:0.75;" x="392.316171" xlink:href="#m6d1640511e" y="41.932842"/>
     <use style="fill:#d62728;stroke:#ffffff;stroke-linejoin:miter;stroke-width:0.75;" x="393.186458" xlink:href="#m6d1640511e" y="41.642209"/>
     <use style="fill:#d62728;stroke:#ffffff;stroke-linejoin:miter;stroke-width:0.75;" x="394.046323" xlink:href="#m6d1640511e" y="41.19871"/>
     <use style="fill:#d62728;stroke:#ffffff;stroke-linejoin:miter;stroke-width:0.75;" x="394.896011" xlink:href="#m6d1640511e" y="40.892979"/>
     <use style="fill:#d62728;stroke:#ffffff;stroke-linejoin:miter;stroke-width:0.75;" x="395.735761" xlink:href="#m6d1640511e" y="40.71558"/>
     <use style="fill:#d62728;stroke:#ffffff;stroke-linejoin:miter;stroke-width:0.75;" x="396.565803" xlink:href="#m6d1640511e" y="40.502323"/>
     <use style="fill:#d62728;stroke:#ffffff;stroke-linejoin:miter;stroke-width:0.75;" x="397.386358" xlink:href="#m6d1640511e" y="40.366443"/>
     <use style="fill:#d62728;stroke:#ffffff;stroke-linejoin:miter;stroke-width:0.75;" x="398.197642" xlink:href="#m6d1640511e" y="39.873876"/>
     <use style="fill:#d62728;stroke:#ffffff;stroke-linejoin:miter;stroke-width:0.75;" x="398.99986" xlink:href="#m6d1640511e" y="37.756406"/>
     <use style="fill:#d62728;stroke:#ffffff;stroke-linejoin:miter;stroke-width:0.75;" x="399.793214" xlink:href="#m6d1640511e" y="37.473322"/>
     <use style="fill:#d62728;stroke:#ffffff;stroke-linejoin:miter;stroke-width:0.75;" x="400.577898" xlink:href="#m6d1640511e" y="37.784714"/>
    </g>
   </g>
   <g id="line2d_32">
    <path clip-path="url(#p02dba24840)" d="M 75.923352 266.195935 
L 125.689806 231.740811 
L 154.801316 208.401461 
L 175.45626 193.018665 
L 191.47748 181.412212 
L 204.567769 176.090228 
L 215.635452 173.07255 
L 225.222714 166.097355 
L 233.679279 160.488513 
L 241.243934 160.043127 
L 248.086996 152.969796 
L 254.334223 152.64708 
L 260.081115 148.980196 
L 265.401906 142.212596 
L 270.355443 137.568128 
L 274.989168 132.600943 
L 279.341883 132.021564 
L 283.445733 131.878135 
L 287.327641 130.660873 
L 291.010388 130.508007 
L 294.513415 124.280154 
L 297.85345 119.982936 
L 301.04499 115.342242 
L 304.100677 115.093128 
L 307.031607 114.993105 
L 309.847569 114.928939 
L 312.557242 108.946426 
L 315.168359 105.672085 
L 317.68784 103.018642 
L 320.121897 102.963912 
L 322.476135 102.390195 
L 324.755622 101.450356 
L 326.96496 100.98421 
L 329.108337 97.72308 
L 331.189579 95.947198 
L 333.212187 95.445196 
L 335.179373 93.223928 
L 337.094095 92.536977 
L 338.959078 92.491684 
L 340.776842 91.351798 
L 342.549717 91.181947 
L 344.279869 90.187378 
L 345.969307 87.107422 
L 347.619904 87.071564 
L 349.233406 86.997962 
L 350.811444 86.039251 
L 352.355542 85.959987 
L 353.867131 84.20109 
L 355.347551 83.387695 
L 356.798061 83.349951 
L 358.219847 83.172551 
L 359.614023 81.909995 
L 360.981642 81.617475 
L 362.323696 81.534437 
L 363.641124 79.116898 
L 364.934813 78.577151 
L 366.205604 78.233675 
L 367.454294 78.231788 
L 368.681636 76.740878 
L 369.888351 75.589668 
L 371.075119 75.333005 
L 372.242589 75.232982 
L 373.391378 74.529046 
L 374.522076 74.444121 
L 375.635243 73.719425 
L 376.731414 72.919241 
L 377.8111 72.881496 
L 378.874791 72.877722 
L 379.922953 72.858849 
L 380.956033 72.721082 
L 381.974459 71.771806 
L 382.978641 70.82253 
L 383.968971 69.595832 
L 384.945827 69.035325 
L 385.909571 68.661654 
L 386.860549 68.655992 
L 387.799096 68.620135 
L 388.725532 68.572954 
L 389.640166 67.183954 
L 390.543295 65.730789 
L 391.435205 65.174056 
L 392.316171 62.433801 
L 393.186458 61.733639 
L 394.046323 61.125952 
L 394.896011 60.506941 
L 395.735761 59.521808 
L 396.565803 59.244386 
L 397.386358 58.600841 
L 398.197642 57.949747 
L 398.99986 57.693084 
L 399.793214 56.404107 
L 400.577898 53.320376 
" style="fill:none;stroke:#1f77b4;stroke-linecap:square;stroke-width:1.5;"/>
    <defs>
     <path d="M 0 3 
C 0.795609 3 1.55874 2.683901 2.12132 2.12132 
C 2.683901 1.55874 3 0.795609 3 0 
C 3 -0.795609 2.683901 -1.55874 2.12132 -2.12132 
C 1.55874 -2.683901 0.795609 -3 0 -3 
C -0.795609 -3 -1.55874 -2.683901 -2.12132 -2.12132 
C -2.683901 -1.55874 -3 -0.795609 -3 0 
C -3 0.795609 -2.683901 1.55874 -2.12132 2.12132 
C -1.55874 2.683901 -0.795609 3 0 3 
z
" id="m1c1302d3fe" style="stroke:#ffffff;stroke-width:0.75;"/>
    </defs>
    <g clip-path="url(#p02dba24840)">
     <use style="fill:#1f77b4;stroke:#ffffff;stroke-width:0.75;" x="75.923352" xlink:href="#m1c1302d3fe" y="266.195935"/>
     <use style="fill:#1f77b4;stroke:#ffffff;stroke-width:0.75;" x="125.689806" xlink:href="#m1c1302d3fe" y="231.740811"/>
     <use style="fill:#1f77b4;stroke:#ffffff;stroke-width:0.75;" x="154.801316" xlink:href="#m1c1302d3fe" y="208.401461"/>
     <use style="fill:#1f77b4;stroke:#ffffff;stroke-width:0.75;" x="175.45626" xlink:href="#m1c1302d3fe" y="193.018665"/>
     <use style="fill:#1f77b4;stroke:#ffffff;stroke-width:0.75;" x="191.47748" xlink:href="#m1c1302d3fe" y="181.412212"/>
     <use style="fill:#1f77b4;stroke:#ffffff;stroke-width:0.75;" x="204.567769" xlink:href="#m1c1302d3fe" y="176.090228"/>
     <use style="fill:#1f77b4;stroke:#ffffff;stroke-width:0.75;" x="215.635452" xlink:href="#m1c1302d3fe" y="173.07255"/>
     <use style="fill:#1f77b4;stroke:#ffffff;stroke-width:0.75;" x="225.222714" xlink:href="#m1c1302d3fe" y="166.097355"/>
     <use style="fill:#1f77b4;stroke:#ffffff;stroke-width:0.75;" x="233.679279" xlink:href="#m1c1302d3fe" y="160.488513"/>
     <use style="fill:#1f77b4;stroke:#ffffff;stroke-width:0.75;" x="241.243934" xlink:href="#m1c1302d3fe" y="160.043127"/>
     <use style="fill:#1f77b4;stroke:#ffffff;stroke-width:0.75;" x="248.086996" xlink:href="#m1c1302d3fe" y="152.969796"/>
     <use style="fill:#1f77b4;stroke:#ffffff;stroke-width:0.75;" x="254.334223" xlink:href="#m1c1302d3fe" y="152.64708"/>
     <use style="fill:#1f77b4;stroke:#ffffff;stroke-width:0.75;" x="260.081115" xlink:href="#m1c1302d3fe" y="148.980196"/>
     <use style="fill:#1f77b4;stroke:#ffffff;stroke-width:0.75;" x="265.401906" xlink:href="#m1c1302d3fe" y="142.212596"/>
     <use style="fill:#1f77b4;stroke:#ffffff;stroke-width:0.75;" x="270.355443" xlink:href="#m1c1302d3fe" y="137.568128"/>
     <use style="fill:#1f77b4;stroke:#ffffff;stroke-width:0.75;" x="274.989168" xlink:href="#m1c1302d3fe" y="132.600943"/>
     <use style="fill:#1f77b4;stroke:#ffffff;stroke-width:0.75;" x="279.341883" xlink:href="#m1c1302d3fe" y="132.021564"/>
     <use style="fill:#1f77b4;stroke:#ffffff;stroke-width:0.75;" x="283.445733" xlink:href="#m1c1302d3fe" y="131.878135"/>
     <use style="fill:#1f77b4;stroke:#ffffff;stroke-width:0.75;" x="287.327641" xlink:href="#m1c1302d3fe" y="130.660873"/>
     <use style="fill:#1f77b4;stroke:#ffffff;stroke-width:0.75;" x="291.010388" xlink:href="#m1c1302d3fe" y="130.508007"/>
     <use style="fill:#1f77b4;stroke:#ffffff;stroke-width:0.75;" x="294.513415" xlink:href="#m1c1302d3fe" y="124.280154"/>
     <use style="fill:#1f77b4;stroke:#ffffff;stroke-width:0.75;" x="297.85345" xlink:href="#m1c1302d3fe" y="119.982936"/>
     <use style="fill:#1f77b4;stroke:#ffffff;stroke-width:0.75;" x="301.04499" xlink:href="#m1c1302d3fe" y="115.342242"/>
     <use style="fill:#1f77b4;stroke:#ffffff;stroke-width:0.75;" x="304.100677" xlink:href="#m1c1302d3fe" y="115.093128"/>
     <use style="fill:#1f77b4;stroke:#ffffff;stroke-width:0.75;" x="307.031607" xlink:href="#m1c1302d3fe" y="114.993105"/>
     <use style="fill:#1f77b4;stroke:#ffffff;stroke-width:0.75;" x="309.847569" xlink:href="#m1c1302d3fe" y="114.928939"/>
     <use style="fill:#1f77b4;stroke:#ffffff;stroke-width:0.75;" x="312.557242" xlink:href="#m1c1302d3fe" y="108.946426"/>
     <use style="fill:#1f77b4;stroke:#ffffff;stroke-width:0.75;" x="315.168359" xlink:href="#m1c1302d3fe" y="105.672085"/>
     <use style="fill:#1f77b4;stroke:#ffffff;stroke-width:0.75;" x="317.68784" xlink:href="#m1c1302d3fe" y="103.018642"/>
     <use style="fill:#1f77b4;stroke:#ffffff;stroke-width:0.75;" x="320.121897" xlink:href="#m1c1302d3fe" y="102.963912"/>
     <use style="fill:#1f77b4;stroke:#ffffff;stroke-width:0.75;" x="322.476135" xlink:href="#m1c1302d3fe" y="102.390195"/>
     <use style="fill:#1f77b4;stroke:#ffffff;stroke-width:0.75;" x="324.755622" xlink:href="#m1c1302d3fe" y="101.450356"/>
     <use style="fill:#1f77b4;stroke:#ffffff;stroke-width:0.75;" x="326.96496" xlink:href="#m1c1302d3fe" y="100.98421"/>
     <use style="fill:#1f77b4;stroke:#ffffff;stroke-width:0.75;" x="329.108337" xlink:href="#m1c1302d3fe" y="97.72308"/>
     <use style="fill:#1f77b4;stroke:#ffffff;stroke-width:0.75;" x="331.189579" xlink:href="#m1c1302d3fe" y="95.947198"/>
     <use style="fill:#1f77b4;stroke:#ffffff;stroke-width:0.75;" x="333.212187" xlink:href="#m1c1302d3fe" y="95.445196"/>
     <use style="fill:#1f77b4;stroke:#ffffff;stroke-width:0.75;" x="335.179373" xlink:href="#m1c1302d3fe" y="93.223928"/>
     <use style="fill:#1f77b4;stroke:#ffffff;stroke-width:0.75;" x="337.094095" xlink:href="#m1c1302d3fe" y="92.536977"/>
     <use style="fill:#1f77b4;stroke:#ffffff;stroke-width:0.75;" x="338.959078" xlink:href="#m1c1302d3fe" y="92.491684"/>
     <use style="fill:#1f77b4;stroke:#ffffff;stroke-width:0.75;" x="340.776842" xlink:href="#m1c1302d3fe" y="91.351798"/>
     <use style="fill:#1f77b4;stroke:#ffffff;stroke-width:0.75;" x="342.549717" xlink:href="#m1c1302d3fe" y="91.181947"/>
     <use style="fill:#1f77b4;stroke:#ffffff;stroke-width:0.75;" x="344.279869" xlink:href="#m1c1302d3fe" y="90.187378"/>
     <use style="fill:#1f77b4;stroke:#ffffff;stroke-width:0.75;" x="345.969307" xlink:href="#m1c1302d3fe" y="87.107422"/>
     <use style="fill:#1f77b4;stroke:#ffffff;stroke-width:0.75;" x="347.619904" xlink:href="#m1c1302d3fe" y="87.071564"/>
     <use style="fill:#1f77b4;stroke:#ffffff;stroke-width:0.75;" x="349.233406" xlink:href="#m1c1302d3fe" y="86.997962"/>
     <use style="fill:#1f77b4;stroke:#ffffff;stroke-width:0.75;" x="350.811444" xlink:href="#m1c1302d3fe" y="86.039251"/>
     <use style="fill:#1f77b4;stroke:#ffffff;stroke-width:0.75;" x="352.355542" xlink:href="#m1c1302d3fe" y="85.959987"/>
     <use style="fill:#1f77b4;stroke:#ffffff;stroke-width:0.75;" x="353.867131" xlink:href="#m1c1302d3fe" y="84.20109"/>
     <use style="fill:#1f77b4;stroke:#ffffff;stroke-width:0.75;" x="355.347551" xlink:href="#m1c1302d3fe" y="83.387695"/>
     <use style="fill:#1f77b4;stroke:#ffffff;stroke-width:0.75;" x="356.798061" xlink:href="#m1c1302d3fe" y="83.349951"/>
     <use style="fill:#1f77b4;stroke:#ffffff;stroke-width:0.75;" x="358.219847" xlink:href="#m1c1302d3fe" y="83.172551"/>
     <use style="fill:#1f77b4;stroke:#ffffff;stroke-width:0.75;" x="359.614023" xlink:href="#m1c1302d3fe" y="81.909995"/>
     <use style="fill:#1f77b4;stroke:#ffffff;stroke-width:0.75;" x="360.981642" xlink:href="#m1c1302d3fe" y="81.617475"/>
     <use style="fill:#1f77b4;stroke:#ffffff;stroke-width:0.75;" x="362.323696" xlink:href="#m1c1302d3fe" y="81.534437"/>
     <use style="fill:#1f77b4;stroke:#ffffff;stroke-width:0.75;" x="363.641124" xlink:href="#m1c1302d3fe" y="79.116898"/>
     <use style="fill:#1f77b4;stroke:#ffffff;stroke-width:0.75;" x="364.934813" xlink:href="#m1c1302d3fe" y="78.577151"/>
     <use style="fill:#1f77b4;stroke:#ffffff;stroke-width:0.75;" x="366.205604" xlink:href="#m1c1302d3fe" y="78.233675"/>
     <use style="fill:#1f77b4;stroke:#ffffff;stroke-width:0.75;" x="367.454294" xlink:href="#m1c1302d3fe" y="78.231788"/>
     <use style="fill:#1f77b4;stroke:#ffffff;stroke-width:0.75;" x="368.681636" xlink:href="#m1c1302d3fe" y="76.740878"/>
     <use style="fill:#1f77b4;stroke:#ffffff;stroke-width:0.75;" x="369.888351" xlink:href="#m1c1302d3fe" y="75.589668"/>
     <use style="fill:#1f77b4;stroke:#ffffff;stroke-width:0.75;" x="371.075119" xlink:href="#m1c1302d3fe" y="75.333005"/>
     <use style="fill:#1f77b4;stroke:#ffffff;stroke-width:0.75;" x="372.242589" xlink:href="#m1c1302d3fe" y="75.232982"/>
     <use style="fill:#1f77b4;stroke:#ffffff;stroke-width:0.75;" x="373.391378" xlink:href="#m1c1302d3fe" y="74.529046"/>
     <use style="fill:#1f77b4;stroke:#ffffff;stroke-width:0.75;" x="374.522076" xlink:href="#m1c1302d3fe" y="74.444121"/>
     <use style="fill:#1f77b4;stroke:#ffffff;stroke-width:0.75;" x="375.635243" xlink:href="#m1c1302d3fe" y="73.719425"/>
     <use style="fill:#1f77b4;stroke:#ffffff;stroke-width:0.75;" x="376.731414" xlink:href="#m1c1302d3fe" y="72.919241"/>
     <use style="fill:#1f77b4;stroke:#ffffff;stroke-width:0.75;" x="377.8111" xlink:href="#m1c1302d3fe" y="72.881496"/>
     <use style="fill:#1f77b4;stroke:#ffffff;stroke-width:0.75;" x="378.874791" xlink:href="#m1c1302d3fe" y="72.877722"/>
     <use style="fill:#1f77b4;stroke:#ffffff;stroke-width:0.75;" x="379.922953" xlink:href="#m1c1302d3fe" y="72.858849"/>
     <use style="fill:#1f77b4;stroke:#ffffff;stroke-width:0.75;" x="380.956033" xlink:href="#m1c1302d3fe" y="72.721082"/>
     <use style="fill:#1f77b4;stroke:#ffffff;stroke-width:0.75;" x="381.974459" xlink:href="#m1c1302d3fe" y="71.771806"/>
     <use style="fill:#1f77b4;stroke:#ffffff;stroke-width:0.75;" x="382.978641" xlink:href="#m1c1302d3fe" y="70.82253"/>
     <use style="fill:#1f77b4;stroke:#ffffff;stroke-width:0.75;" x="383.968971" xlink:href="#m1c1302d3fe" y="69.595832"/>
     <use style="fill:#1f77b4;stroke:#ffffff;stroke-width:0.75;" x="384.945827" xlink:href="#m1c1302d3fe" y="69.035325"/>
     <use style="fill:#1f77b4;stroke:#ffffff;stroke-width:0.75;" x="385.909571" xlink:href="#m1c1302d3fe" y="68.661654"/>
     <use style="fill:#1f77b4;stroke:#ffffff;stroke-width:0.75;" x="386.860549" xlink:href="#m1c1302d3fe" y="68.655992"/>
     <use style="fill:#1f77b4;stroke:#ffffff;stroke-width:0.75;" x="387.799096" xlink:href="#m1c1302d3fe" y="68.620135"/>
     <use style="fill:#1f77b4;stroke:#ffffff;stroke-width:0.75;" x="388.725532" xlink:href="#m1c1302d3fe" y="68.572954"/>
     <use style="fill:#1f77b4;stroke:#ffffff;stroke-width:0.75;" x="389.640166" xlink:href="#m1c1302d3fe" y="67.183954"/>
     <use style="fill:#1f77b4;stroke:#ffffff;stroke-width:0.75;" x="390.543295" xlink:href="#m1c1302d3fe" y="65.730789"/>
     <use style="fill:#1f77b4;stroke:#ffffff;stroke-width:0.75;" x="391.435205" xlink:href="#m1c1302d3fe" y="65.174056"/>
     <use style="fill:#1f77b4;stroke:#ffffff;stroke-width:0.75;" x="392.316171" xlink:href="#m1c1302d3fe" y="62.433801"/>
     <use style="fill:#1f77b4;stroke:#ffffff;stroke-width:0.75;" x="393.186458" xlink:href="#m1c1302d3fe" y="61.733639"/>
     <use style="fill:#1f77b4;stroke:#ffffff;stroke-width:0.75;" x="394.046323" xlink:href="#m1c1302d3fe" y="61.125952"/>
     <use style="fill:#1f77b4;stroke:#ffffff;stroke-width:0.75;" x="394.896011" xlink:href="#m1c1302d3fe" y="60.506941"/>
     <use style="fill:#1f77b4;stroke:#ffffff;stroke-width:0.75;" x="395.735761" xlink:href="#m1c1302d3fe" y="59.521808"/>
     <use style="fill:#1f77b4;stroke:#ffffff;stroke-width:0.75;" x="396.565803" xlink:href="#m1c1302d3fe" y="59.244386"/>
     <use style="fill:#1f77b4;stroke:#ffffff;stroke-width:0.75;" x="397.386358" xlink:href="#m1c1302d3fe" y="58.600841"/>
     <use style="fill:#1f77b4;stroke:#ffffff;stroke-width:0.75;" x="398.197642" xlink:href="#m1c1302d3fe" y="57.949747"/>
     <use style="fill:#1f77b4;stroke:#ffffff;stroke-width:0.75;" x="398.99986" xlink:href="#m1c1302d3fe" y="57.693084"/>
     <use style="fill:#1f77b4;stroke:#ffffff;stroke-width:0.75;" x="399.793214" xlink:href="#m1c1302d3fe" y="56.404107"/>
     <use style="fill:#1f77b4;stroke:#ffffff;stroke-width:0.75;" x="400.577898" xlink:href="#m1c1302d3fe" y="53.320376"/>
    </g>
   </g>
   <g id="line2d_33">
    <path clip-path="url(#p02dba24840)" d="M 75.923352 249.812908 
L 125.689806 222.589642 
L 154.801316 206.748249 
L 175.45626 196.342073 
L 191.47748 188.508189 
L 204.567769 169.026333 
L 215.635452 166.603132 
L 225.222714 165.742556 
L 233.679279 165.036733 
L 241.243934 164.302601 
L 248.086996 163.970449 
L 254.334223 163.585455 
L 260.081115 163.440138 
L 265.401906 163.096663 
L 270.355443 162.932474 
L 274.989168 162.841887 
L 279.341883 162.732427 
L 283.445733 162.270057 
L 287.327641 162.134176 
L 291.010388 161.966213 
L 294.513415 161.890724 
L 297.85345 161.820896 
L 301.04499 161.796362 
L 304.100677 161.690678 
L 307.031607 161.456661 
L 309.847569 161.252841 
L 312.557242 160.267708 
L 315.168359 159.677005 
L 317.68784 159.101401 
L 320.121897 158.669225 
L 322.476135 158.433322 
L 324.755622 158.297441 
L 326.96496 158.225727 
L 329.108337 158.120042 
L 331.189579 157.567084 
L 333.212187 152.635757 
L 335.179373 145.392575 
L 337.094095 134.301336 
L 338.959078 127.662067 
L 340.776842 125.599327 
L 342.549717 123.521489 
L 344.279869 117.057732 
L 345.969307 116.901092 
L 347.619904 116.784084 
L 349.233406 116.753888 
L 350.811444 116.72558 
L 352.355542 116.659527 
L 353.867131 116.659527 
L 355.347551 116.655753 
L 356.798061 116.653865 
L 358.219847 116.653865 
L 359.614023 116.614234 
L 360.981642 116.578376 
L 362.323696 116.578376 
L 363.641124 116.516098 
L 364.934813 114.851563 
L 366.205604 114.802495 
L 367.454294 114.732667 
L 368.681636 114.694923 
L 369.888351 114.693035 
L 371.075119 114.657178 
L 372.242589 114.3288 
L 373.391378 114.304266 
L 374.522076 114.289169 
L 375.635243 114.258973 
L 376.731414 114.258973 
L 377.8111 114.255198 
L 378.874791 114.055152 
L 379.922953 113.93437 
L 380.956033 113.93437 
L 381.974459 108.021684 
L 382.978641 108.016022 
L 383.968971 108.014135 
L 384.945827 108.014135 
L 385.909571 108.008473 
L 386.860549 107.995263 
L 387.799096 107.983939 
L 388.725532 107.982052 
L 389.640166 107.980165 
L 390.543295 107.953744 
L 391.435205 107.953744 
L 392.316171 107.951856 
L 393.186458 107.948082 
L 394.046323 107.927322 
L 394.896011 107.921661 
L 395.735761 107.921661 
L 396.565803 107.914112 
L 397.386358 107.910337 
L 398.197642 107.893352 
L 398.99986 107.893352 
L 399.793214 107.889578 
L 400.577898 109.167231 
" style="fill:none;stroke:#98df8a;stroke-linecap:square;stroke-width:1.5;"/>
    <defs>
     <path d="M -0 3 
L 3 -3 
L -3 -3 
z
" id="m12f9f8c54c" style="stroke:#ffffff;stroke-linejoin:miter;stroke-width:0.75;"/>
    </defs>
    <g clip-path="url(#p02dba24840)">
     <use style="fill:#98df8a;stroke:#ffffff;stroke-linejoin:miter;stroke-width:0.75;" x="75.923352" xlink:href="#m12f9f8c54c" y="249.812908"/>
     <use style="fill:#98df8a;stroke:#ffffff;stroke-linejoin:miter;stroke-width:0.75;" x="125.689806" xlink:href="#m12f9f8c54c" y="222.589642"/>
     <use style="fill:#98df8a;stroke:#ffffff;stroke-linejoin:miter;stroke-width:0.75;" x="154.801316" xlink:href="#m12f9f8c54c" y="206.748249"/>
     <use style="fill:#98df8a;stroke:#ffffff;stroke-linejoin:miter;stroke-width:0.75;" x="175.45626" xlink:href="#m12f9f8c54c" y="196.342073"/>
     <use style="fill:#98df8a;stroke:#ffffff;stroke-linejoin:miter;stroke-width:0.75;" x="191.47748" xlink:href="#m12f9f8c54c" y="188.508189"/>
     <use style="fill:#98df8a;stroke:#ffffff;stroke-linejoin:miter;stroke-width:0.75;" x="204.567769" xlink:href="#m12f9f8c54c" y="169.026333"/>
     <use style="fill:#98df8a;stroke:#ffffff;stroke-linejoin:miter;stroke-width:0.75;" x="215.635452" xlink:href="#m12f9f8c54c" y="166.603132"/>
     <use style="fill:#98df8a;stroke:#ffffff;stroke-linejoin:miter;stroke-width:0.75;" x="225.222714" xlink:href="#m12f9f8c54c" y="165.742556"/>
     <use style="fill:#98df8a;stroke:#ffffff;stroke-linejoin:miter;stroke-width:0.75;" x="233.679279" xlink:href="#m12f9f8c54c" y="165.036733"/>
     <use style="fill:#98df8a;stroke:#ffffff;stroke-linejoin:miter;stroke-width:0.75;" x="241.243934" xlink:href="#m12f9f8c54c" y="164.302601"/>
     <use style="fill:#98df8a;stroke:#ffffff;stroke-linejoin:miter;stroke-width:0.75;" x="248.086996" xlink:href="#m12f9f8c54c" y="163.970449"/>
     <use style="fill:#98df8a;stroke:#ffffff;stroke-linejoin:miter;stroke-width:0.75;" x="254.334223" xlink:href="#m12f9f8c54c" y="163.585455"/>
     <use style="fill:#98df8a;stroke:#ffffff;stroke-linejoin:miter;stroke-width:0.75;" x="260.081115" xlink:href="#m12f9f8c54c" y="163.440138"/>
     <use style="fill:#98df8a;stroke:#ffffff;stroke-linejoin:miter;stroke-width:0.75;" x="265.401906" xlink:href="#m12f9f8c54c" y="163.096663"/>
     <use style="fill:#98df8a;stroke:#ffffff;stroke-linejoin:miter;stroke-width:0.75;" x="270.355443" xlink:href="#m12f9f8c54c" y="162.932474"/>
     <use style="fill:#98df8a;stroke:#ffffff;stroke-linejoin:miter;stroke-width:0.75;" x="274.989168" xlink:href="#m12f9f8c54c" y="162.841887"/>
     <use style="fill:#98df8a;stroke:#ffffff;stroke-linejoin:miter;stroke-width:0.75;" x="279.341883" xlink:href="#m12f9f8c54c" y="162.732427"/>
     <use style="fill:#98df8a;stroke:#ffffff;stroke-linejoin:miter;stroke-width:0.75;" x="283.445733" xlink:href="#m12f9f8c54c" y="162.270057"/>
     <use style="fill:#98df8a;stroke:#ffffff;stroke-linejoin:miter;stroke-width:0.75;" x="287.327641" xlink:href="#m12f9f8c54c" y="162.134176"/>
     <use style="fill:#98df8a;stroke:#ffffff;stroke-linejoin:miter;stroke-width:0.75;" x="291.010388" xlink:href="#m12f9f8c54c" y="161.966213"/>
     <use style="fill:#98df8a;stroke:#ffffff;stroke-linejoin:miter;stroke-width:0.75;" x="294.513415" xlink:href="#m12f9f8c54c" y="161.890724"/>
     <use style="fill:#98df8a;stroke:#ffffff;stroke-linejoin:miter;stroke-width:0.75;" x="297.85345" xlink:href="#m12f9f8c54c" y="161.820896"/>
     <use style="fill:#98df8a;stroke:#ffffff;stroke-linejoin:miter;stroke-width:0.75;" x="301.04499" xlink:href="#m12f9f8c54c" y="161.796362"/>
     <use style="fill:#98df8a;stroke:#ffffff;stroke-linejoin:miter;stroke-width:0.75;" x="304.100677" xlink:href="#m12f9f8c54c" y="161.690678"/>
     <use style="fill:#98df8a;stroke:#ffffff;stroke-linejoin:miter;stroke-width:0.75;" x="307.031607" xlink:href="#m12f9f8c54c" y="161.456661"/>
     <use style="fill:#98df8a;stroke:#ffffff;stroke-linejoin:miter;stroke-width:0.75;" x="309.847569" xlink:href="#m12f9f8c54c" y="161.252841"/>
     <use style="fill:#98df8a;stroke:#ffffff;stroke-linejoin:miter;stroke-width:0.75;" x="312.557242" xlink:href="#m12f9f8c54c" y="160.267708"/>
     <use style="fill:#98df8a;stroke:#ffffff;stroke-linejoin:miter;stroke-width:0.75;" x="315.168359" xlink:href="#m12f9f8c54c" y="159.677005"/>
     <use style="fill:#98df8a;stroke:#ffffff;stroke-linejoin:miter;stroke-width:0.75;" x="317.68784" xlink:href="#m12f9f8c54c" y="159.101401"/>
     <use style="fill:#98df8a;stroke:#ffffff;stroke-linejoin:miter;stroke-width:0.75;" x="320.121897" xlink:href="#m12f9f8c54c" y="158.669225"/>
     <use style="fill:#98df8a;stroke:#ffffff;stroke-linejoin:miter;stroke-width:0.75;" x="322.476135" xlink:href="#m12f9f8c54c" y="158.433322"/>
     <use style="fill:#98df8a;stroke:#ffffff;stroke-linejoin:miter;stroke-width:0.75;" x="324.755622" xlink:href="#m12f9f8c54c" y="158.297441"/>
     <use style="fill:#98df8a;stroke:#ffffff;stroke-linejoin:miter;stroke-width:0.75;" x="326.96496" xlink:href="#m12f9f8c54c" y="158.225727"/>
     <use style="fill:#98df8a;stroke:#ffffff;stroke-linejoin:miter;stroke-width:0.75;" x="329.108337" xlink:href="#m12f9f8c54c" y="158.120042"/>
     <use style="fill:#98df8a;stroke:#ffffff;stroke-linejoin:miter;stroke-width:0.75;" x="331.189579" xlink:href="#m12f9f8c54c" y="157.567084"/>
     <use style="fill:#98df8a;stroke:#ffffff;stroke-linejoin:miter;stroke-width:0.75;" x="333.212187" xlink:href="#m12f9f8c54c" y="152.635757"/>
     <use style="fill:#98df8a;stroke:#ffffff;stroke-linejoin:miter;stroke-width:0.75;" x="335.179373" xlink:href="#m12f9f8c54c" y="145.392575"/>
     <use style="fill:#98df8a;stroke:#ffffff;stroke-linejoin:miter;stroke-width:0.75;" x="337.094095" xlink:href="#m12f9f8c54c" y="134.301336"/>
     <use style="fill:#98df8a;stroke:#ffffff;stroke-linejoin:miter;stroke-width:0.75;" x="338.959078" xlink:href="#m12f9f8c54c" y="127.662067"/>
     <use style="fill:#98df8a;stroke:#ffffff;stroke-linejoin:miter;stroke-width:0.75;" x="340.776842" xlink:href="#m12f9f8c54c" y="125.599327"/>
     <use style="fill:#98df8a;stroke:#ffffff;stroke-linejoin:miter;stroke-width:0.75;" x="342.549717" xlink:href="#m12f9f8c54c" y="123.521489"/>
     <use style="fill:#98df8a;stroke:#ffffff;stroke-linejoin:miter;stroke-width:0.75;" x="344.279869" xlink:href="#m12f9f8c54c" y="117.057732"/>
     <use style="fill:#98df8a;stroke:#ffffff;stroke-linejoin:miter;stroke-width:0.75;" x="345.969307" xlink:href="#m12f9f8c54c" y="116.901092"/>
     <use style="fill:#98df8a;stroke:#ffffff;stroke-linejoin:miter;stroke-width:0.75;" x="347.619904" xlink:href="#m12f9f8c54c" y="116.784084"/>
     <use style="fill:#98df8a;stroke:#ffffff;stroke-linejoin:miter;stroke-width:0.75;" x="349.233406" xlink:href="#m12f9f8c54c" y="116.753888"/>
     <use style="fill:#98df8a;stroke:#ffffff;stroke-linejoin:miter;stroke-width:0.75;" x="350.811444" xlink:href="#m12f9f8c54c" y="116.72558"/>
     <use style="fill:#98df8a;stroke:#ffffff;stroke-linejoin:miter;stroke-width:0.75;" x="352.355542" xlink:href="#m12f9f8c54c" y="116.659527"/>
     <use style="fill:#98df8a;stroke:#ffffff;stroke-linejoin:miter;stroke-width:0.75;" x="353.867131" xlink:href="#m12f9f8c54c" y="116.659527"/>
     <use style="fill:#98df8a;stroke:#ffffff;stroke-linejoin:miter;stroke-width:0.75;" x="355.347551" xlink:href="#m12f9f8c54c" y="116.655753"/>
     <use style="fill:#98df8a;stroke:#ffffff;stroke-linejoin:miter;stroke-width:0.75;" x="356.798061" xlink:href="#m12f9f8c54c" y="116.653865"/>
     <use style="fill:#98df8a;stroke:#ffffff;stroke-linejoin:miter;stroke-width:0.75;" x="358.219847" xlink:href="#m12f9f8c54c" y="116.653865"/>
     <use style="fill:#98df8a;stroke:#ffffff;stroke-linejoin:miter;stroke-width:0.75;" x="359.614023" xlink:href="#m12f9f8c54c" y="116.614234"/>
     <use style="fill:#98df8a;stroke:#ffffff;stroke-linejoin:miter;stroke-width:0.75;" x="360.981642" xlink:href="#m12f9f8c54c" y="116.578376"/>
     <use style="fill:#98df8a;stroke:#ffffff;stroke-linejoin:miter;stroke-width:0.75;" x="362.323696" xlink:href="#m12f9f8c54c" y="116.578376"/>
     <use style="fill:#98df8a;stroke:#ffffff;stroke-linejoin:miter;stroke-width:0.75;" x="363.641124" xlink:href="#m12f9f8c54c" y="116.516098"/>
     <use style="fill:#98df8a;stroke:#ffffff;stroke-linejoin:miter;stroke-width:0.75;" x="364.934813" xlink:href="#m12f9f8c54c" y="114.851563"/>
     <use style="fill:#98df8a;stroke:#ffffff;stroke-linejoin:miter;stroke-width:0.75;" x="366.205604" xlink:href="#m12f9f8c54c" y="114.802495"/>
     <use style="fill:#98df8a;stroke:#ffffff;stroke-linejoin:miter;stroke-width:0.75;" x="367.454294" xlink:href="#m12f9f8c54c" y="114.732667"/>
     <use style="fill:#98df8a;stroke:#ffffff;stroke-linejoin:miter;stroke-width:0.75;" x="368.681636" xlink:href="#m12f9f8c54c" y="114.694923"/>
     <use style="fill:#98df8a;stroke:#ffffff;stroke-linejoin:miter;stroke-width:0.75;" x="369.888351" xlink:href="#m12f9f8c54c" y="114.693035"/>
     <use style="fill:#98df8a;stroke:#ffffff;stroke-linejoin:miter;stroke-width:0.75;" x="371.075119" xlink:href="#m12f9f8c54c" y="114.657178"/>
     <use style="fill:#98df8a;stroke:#ffffff;stroke-linejoin:miter;stroke-width:0.75;" x="372.242589" xlink:href="#m12f9f8c54c" y="114.3288"/>
     <use style="fill:#98df8a;stroke:#ffffff;stroke-linejoin:miter;stroke-width:0.75;" x="373.391378" xlink:href="#m12f9f8c54c" y="114.304266"/>
     <use style="fill:#98df8a;stroke:#ffffff;stroke-linejoin:miter;stroke-width:0.75;" x="374.522076" xlink:href="#m12f9f8c54c" y="114.289169"/>
     <use style="fill:#98df8a;stroke:#ffffff;stroke-linejoin:miter;stroke-width:0.75;" x="375.635243" xlink:href="#m12f9f8c54c" y="114.258973"/>
     <use style="fill:#98df8a;stroke:#ffffff;stroke-linejoin:miter;stroke-width:0.75;" x="376.731414" xlink:href="#m12f9f8c54c" y="114.258973"/>
     <use style="fill:#98df8a;stroke:#ffffff;stroke-linejoin:miter;stroke-width:0.75;" x="377.8111" xlink:href="#m12f9f8c54c" y="114.255198"/>
     <use style="fill:#98df8a;stroke:#ffffff;stroke-linejoin:miter;stroke-width:0.75;" x="378.874791" xlink:href="#m12f9f8c54c" y="114.055152"/>
     <use style="fill:#98df8a;stroke:#ffffff;stroke-linejoin:miter;stroke-width:0.75;" x="379.922953" xlink:href="#m12f9f8c54c" y="113.93437"/>
     <use style="fill:#98df8a;stroke:#ffffff;stroke-linejoin:miter;stroke-width:0.75;" x="380.956033" xlink:href="#m12f9f8c54c" y="113.93437"/>
     <use style="fill:#98df8a;stroke:#ffffff;stroke-linejoin:miter;stroke-width:0.75;" x="381.974459" xlink:href="#m12f9f8c54c" y="108.021684"/>
     <use style="fill:#98df8a;stroke:#ffffff;stroke-linejoin:miter;stroke-width:0.75;" x="382.978641" xlink:href="#m12f9f8c54c" y="108.016022"/>
     <use style="fill:#98df8a;stroke:#ffffff;stroke-linejoin:miter;stroke-width:0.75;" x="383.968971" xlink:href="#m12f9f8c54c" y="108.014135"/>
     <use style="fill:#98df8a;stroke:#ffffff;stroke-linejoin:miter;stroke-width:0.75;" x="384.945827" xlink:href="#m12f9f8c54c" y="108.014135"/>
     <use style="fill:#98df8a;stroke:#ffffff;stroke-linejoin:miter;stroke-width:0.75;" x="385.909571" xlink:href="#m12f9f8c54c" y="108.008473"/>
     <use style="fill:#98df8a;stroke:#ffffff;stroke-linejoin:miter;stroke-width:0.75;" x="386.860549" xlink:href="#m12f9f8c54c" y="107.995263"/>
     <use style="fill:#98df8a;stroke:#ffffff;stroke-linejoin:miter;stroke-width:0.75;" x="387.799096" xlink:href="#m12f9f8c54c" y="107.983939"/>
     <use style="fill:#98df8a;stroke:#ffffff;stroke-linejoin:miter;stroke-width:0.75;" x="388.725532" xlink:href="#m12f9f8c54c" y="107.982052"/>
     <use style="fill:#98df8a;stroke:#ffffff;stroke-linejoin:miter;stroke-width:0.75;" x="389.640166" xlink:href="#m12f9f8c54c" y="107.980165"/>
     <use style="fill:#98df8a;stroke:#ffffff;stroke-linejoin:miter;stroke-width:0.75;" x="390.543295" xlink:href="#m12f9f8c54c" y="107.953744"/>
     <use style="fill:#98df8a;stroke:#ffffff;stroke-linejoin:miter;stroke-width:0.75;" x="391.435205" xlink:href="#m12f9f8c54c" y="107.953744"/>
     <use style="fill:#98df8a;stroke:#ffffff;stroke-linejoin:miter;stroke-width:0.75;" x="392.316171" xlink:href="#m12f9f8c54c" y="107.951856"/>
     <use style="fill:#98df8a;stroke:#ffffff;stroke-linejoin:miter;stroke-width:0.75;" x="393.186458" xlink:href="#m12f9f8c54c" y="107.948082"/>
     <use style="fill:#98df8a;stroke:#ffffff;stroke-linejoin:miter;stroke-width:0.75;" x="394.046323" xlink:href="#m12f9f8c54c" y="107.927322"/>
     <use style="fill:#98df8a;stroke:#ffffff;stroke-linejoin:miter;stroke-width:0.75;" x="394.896011" xlink:href="#m12f9f8c54c" y="107.921661"/>
     <use style="fill:#98df8a;stroke:#ffffff;stroke-linejoin:miter;stroke-width:0.75;" x="395.735761" xlink:href="#m12f9f8c54c" y="107.921661"/>
     <use style="fill:#98df8a;stroke:#ffffff;stroke-linejoin:miter;stroke-width:0.75;" x="396.565803" xlink:href="#m12f9f8c54c" y="107.914112"/>
     <use style="fill:#98df8a;stroke:#ffffff;stroke-linejoin:miter;stroke-width:0.75;" x="397.386358" xlink:href="#m12f9f8c54c" y="107.910337"/>
     <use style="fill:#98df8a;stroke:#ffffff;stroke-linejoin:miter;stroke-width:0.75;" x="398.197642" xlink:href="#m12f9f8c54c" y="107.893352"/>
     <use style="fill:#98df8a;stroke:#ffffff;stroke-linejoin:miter;stroke-width:0.75;" x="398.99986" xlink:href="#m12f9f8c54c" y="107.893352"/>
     <use style="fill:#98df8a;stroke:#ffffff;stroke-linejoin:miter;stroke-width:0.75;" x="399.793214" xlink:href="#m12f9f8c54c" y="107.889578"/>
     <use style="fill:#98df8a;stroke:#ffffff;stroke-linejoin:miter;stroke-width:0.75;" x="400.577898" xlink:href="#m12f9f8c54c" y="109.167231"/>
    </g>
   </g>
   <g id="line2d_34"/>
   <g id="line2d_35"/>
   <g id="line2d_36"/>
   <g id="patch_3">
    <path d="M 59.690625 269.328734 
L 59.690625 42.861358 
" style="fill:none;stroke:#000000;stroke-linecap:square;stroke-linejoin:miter;stroke-width:0.8;"/>
   </g>
   <g id="patch_4">
    <path d="M 75.923352 288.430125 
L 400.578765 288.430125 
" style="fill:none;stroke:#000000;stroke-linecap:square;stroke-linejoin:miter;stroke-width:0.8;"/>
   </g>
   <g id="text_16">
    <!-- wireshark_fuzzshark_ip (23h, 19 trials/fuzzer) -->
    <g transform="translate(102.143438 16.318125)scale(0.12 -0.12)">
     <defs>
      <path d="M 269 3500 
L 844 3500 
L 1563 769 
L 2278 3500 
L 2956 3500 
L 3675 769 
L 4391 3500 
L 4966 3500 
L 4050 0 
L 3372 0 
L 2619 2869 
L 1863 0 
L 1184 0 
L 269 3500 
z
" id="DejaVuSans-77" transform="scale(0.015625)"/>
      <path d="M 2834 3397 
L 2834 2853 
Q 2591 2978 2328 3040 
Q 2066 3103 1784 3103 
Q 1356 3103 1142 2972 
Q 928 2841 928 2578 
Q 928 2378 1081 2264 
Q 1234 2150 1697 2047 
L 1894 2003 
Q 2506 1872 2764 1633 
Q 3022 1394 3022 966 
Q 3022 478 2636 193 
Q 2250 -91 1575 -91 
Q 1294 -91 989 -36 
Q 684 19 347 128 
L 347 722 
Q 666 556 975 473 
Q 1284 391 1588 391 
Q 1994 391 2212 530 
Q 2431 669 2431 922 
Q 2431 1156 2273 1281 
Q 2116 1406 1581 1522 
L 1381 1569 
Q 847 1681 609 1914 
Q 372 2147 372 2553 
Q 372 3047 722 3315 
Q 1072 3584 1716 3584 
Q 2034 3584 2315 3537 
Q 2597 3491 2834 3397 
z
" id="DejaVuSans-73" transform="scale(0.015625)"/>
      <path d="M 581 4863 
L 1159 4863 
L 1159 1991 
L 2875 3500 
L 3609 3500 
L 1753 1863 
L 3688 0 
L 2938 0 
L 1159 1709 
L 1159 0 
L 581 0 
L 581 4863 
z
" id="DejaVuSans-6b" transform="scale(0.015625)"/>
      <path d="M 3263 -1063 
L 3263 -1509 
L -63 -1509 
L -63 -1063 
L 3263 -1063 
z
" id="DejaVuSans-5f" transform="scale(0.015625)"/>
      <path d="M 2375 4863 
L 2375 4384 
L 1825 4384 
Q 1516 4384 1395 4259 
Q 1275 4134 1275 3809 
L 1275 3500 
L 2222 3500 
L 2222 3053 
L 1275 3053 
L 1275 0 
L 697 0 
L 697 3053 
L 147 3053 
L 147 3500 
L 697 3500 
L 697 3744 
Q 697 4328 969 4595 
Q 1241 4863 1831 4863 
L 2375 4863 
z
" id="DejaVuSans-66" transform="scale(0.015625)"/>
      <path d="M 353 3500 
L 3084 3500 
L 3084 2975 
L 922 459 
L 3084 459 
L 3084 0 
L 275 0 
L 275 525 
L 2438 3041 
L 353 3041 
L 353 3500 
z
" id="DejaVuSans-7a" transform="scale(0.015625)"/>
      <path d="M 1159 525 
L 1159 -1331 
L 581 -1331 
L 581 3500 
L 1159 3500 
L 1159 2969 
Q 1341 3281 1617 3432 
Q 1894 3584 2278 3584 
Q 2916 3584 3314 3078 
Q 3713 2572 3713 1747 
Q 3713 922 3314 415 
Q 2916 -91 2278 -91 
Q 1894 -91 1617 61 
Q 1341 213 1159 525 
z
M 3116 1747 
Q 3116 2381 2855 2742 
Q 2594 3103 2138 3103 
Q 1681 3103 1420 2742 
Q 1159 2381 1159 1747 
Q 1159 1113 1420 752 
Q 1681 391 2138 391 
Q 2594 391 2855 752 
Q 3116 1113 3116 1747 
z
" id="DejaVuSans-70" transform="scale(0.015625)"/>
      <path d="M 750 794 
L 1409 794 
L 1409 256 
L 897 -744 
L 494 -744 
L 750 256 
L 750 794 
z
" id="DejaVuSans-2c" transform="scale(0.015625)"/>
      <path d="M 603 4863 
L 1178 4863 
L 1178 0 
L 603 0 
L 603 4863 
z
" id="DejaVuSans-6c" transform="scale(0.015625)"/>
      <path d="M 1625 4666 
L 2156 4666 
L 531 -594 
L 0 -594 
L 1625 4666 
z
" id="DejaVuSans-2f" transform="scale(0.015625)"/>
     </defs>
     <use xlink:href="#DejaVuSans-77"/>
     <use x="81.787109" xlink:href="#DejaVuSans-69"/>
     <use x="109.570312" xlink:href="#DejaVuSans-72"/>
     <use x="148.433594" xlink:href="#DejaVuSans-65"/>
     <use x="209.957031" xlink:href="#DejaVuSans-73"/>
     <use x="262.056641" xlink:href="#DejaVuSans-68"/>
     <use x="325.435547" xlink:href="#DejaVuSans-61"/>
     <use x="386.714844" xlink:href="#DejaVuSans-72"/>
     <use x="427.828125" xlink:href="#DejaVuSans-6b"/>
     <use x="485.738281" xlink:href="#DejaVuSans-5f"/>
     <use x="535.738281" xlink:href="#DejaVuSans-66"/>
     <use x="570.943359" xlink:href="#DejaVuSans-75"/>
     <use x="634.322266" xlink:href="#DejaVuSans-7a"/>
     <use x="686.8125" xlink:href="#DejaVuSans-7a"/>
     <use x="739.302734" xlink:href="#DejaVuSans-73"/>
     <use x="791.402344" xlink:href="#DejaVuSans-68"/>
     <use x="854.78125" xlink:href="#DejaVuSans-61"/>
     <use x="916.060547" xlink:href="#DejaVuSans-72"/>
     <use x="957.173828" xlink:href="#DejaVuSans-6b"/>
     <use x="1015.083984" xlink:href="#DejaVuSans-5f"/>
     <use x="1065.083984" xlink:href="#DejaVuSans-69"/>
     <use x="1092.867188" xlink:href="#DejaVuSans-70"/>
     <use x="1156.34375" xlink:href="#DejaVuSans-20"/>
     <use x="1188.130859" xlink:href="#DejaVuSans-28"/>
     <use x="1227.144531" xlink:href="#DejaVuSans-32"/>
     <use x="1290.767578" xlink:href="#DejaVuSans-33"/>
     <use x="1354.390625" xlink:href="#DejaVuSans-68"/>
     <use x="1417.769531" xlink:href="#DejaVuSans-2c"/>
     <use x="1449.556641" xlink:href="#DejaVuSans-20"/>
     <use x="1481.34375" xlink:href="#DejaVuSans-31"/>
     <use x="1544.966797" xlink:href="#DejaVuSans-39"/>
     <use x="1608.589844" xlink:href="#DejaVuSans-20"/>
     <use x="1640.376953" xlink:href="#DejaVuSans-74"/>
     <use x="1679.585938" xlink:href="#DejaVuSans-72"/>
     <use x="1720.699219" xlink:href="#DejaVuSans-69"/>
     <use x="1748.482422" xlink:href="#DejaVuSans-61"/>
     <use x="1809.761719" xlink:href="#DejaVuSans-6c"/>
     <use x="1837.544922" xlink:href="#DejaVuSans-73"/>
     <use x="1889.644531" xlink:href="#DejaVuSans-2f"/>
     <use x="1923.335938" xlink:href="#DejaVuSans-66"/>
     <use x="1958.541016" xlink:href="#DejaVuSans-75"/>
     <use x="2021.919922" xlink:href="#DejaVuSans-7a"/>
     <use x="2074.410156" xlink:href="#DejaVuSans-7a"/>
     <use x="2126.900391" xlink:href="#DejaVuSans-65"/>
     <use x="2188.423828" xlink:href="#DejaVuSans-72"/>
     <use x="2229.537109" xlink:href="#DejaVuSans-29"/>
    </g>
   </g>
   <g id="legend_1">
    <g id="line2d_37">
     <path d="M 420.810625 30.416562 
L 440.810625 30.416562 
" style="fill:none;stroke:#d62728;stroke-linecap:square;stroke-width:1.5;"/>
    </g>
    <g id="line2d_38">
     <defs>
      <path d="M 0 -3 
L -3 3 
L 3 3 
z
" id="mdbfd342477" style="stroke:#d62728;stroke-linejoin:miter;"/>
     </defs>
     <g>
      <use style="fill:#d62728;stroke:#d62728;stroke-linejoin:miter;" x="430.810625" xlink:href="#mdbfd342477" y="30.416562"/>
     </g>
    </g>
    <g id="text_17">
     <!-- afl_scheduling_random -->
     <g transform="translate(448.810625 33.916562)scale(0.1 -0.1)">
      <use xlink:href="#DejaVuSans-61"/>
      <use x="61.279297" xlink:href="#DejaVuSans-66"/>
      <use x="96.484375" xlink:href="#DejaVuSans-6c"/>
      <use x="124.267578" xlink:href="#DejaVuSans-5f"/>
      <use x="174.267578" xlink:href="#DejaVuSans-73"/>
      <use x="226.367188" xlink:href="#DejaVuSans-63"/>
      <use x="281.347656" xlink:href="#DejaVuSans-68"/>
      <use x="344.726562" xlink:href="#DejaVuSans-65"/>
      <use x="406.25" xlink:href="#DejaVuSans-64"/>
      <use x="469.726562" xlink:href="#DejaVuSans-75"/>
      <use x="533.105469" xlink:href="#DejaVuSans-6c"/>
      <use x="560.888672" xlink:href="#DejaVuSans-69"/>
      <use x="588.671875" xlink:href="#DejaVuSans-6e"/>
      <use x="652.050781" xlink:href="#DejaVuSans-67"/>
      <use x="715.527344" xlink:href="#DejaVuSans-5f"/>
      <use x="765.527344" xlink:href="#DejaVuSans-72"/>
      <use x="806.640625" xlink:href="#DejaVuSans-61"/>
      <use x="867.919922" xlink:href="#DejaVuSans-6e"/>
      <use x="931.298828" xlink:href="#DejaVuSans-64"/>
      <use x="994.775391" xlink:href="#DejaVuSans-6f"/>
      <use x="1055.957031" xlink:href="#DejaVuSans-6d"/>
     </g>
    </g>
    <g id="line2d_39">
     <path d="M 420.810625 45.372813 
L 440.810625 45.372813 
" style="fill:none;stroke:#1f77b4;stroke-linecap:square;stroke-width:1.5;"/>
    </g>
    <g id="line2d_40">
     <defs>
      <path d="M 0 3 
C 0.795609 3 1.55874 2.683901 2.12132 2.12132 
C 2.683901 1.55874 3 0.795609 3 0 
C 3 -0.795609 2.683901 -1.55874 2.12132 -2.12132 
C 1.55874 -2.683901 0.795609 -3 0 -3 
C -0.795609 -3 -1.55874 -2.683901 -2.12132 -2.12132 
C -2.683901 -1.55874 -3 -0.795609 -3 0 
C -3 0.795609 -2.683901 1.55874 -2.12132 2.12132 
C -1.55874 2.683901 -0.795609 3 0 3 
z
" id="m48dc85b748" style="stroke:#1f77b4;"/>
     </defs>
     <g>
      <use style="fill:#1f77b4;stroke:#1f77b4;" x="430.810625" xlink:href="#m48dc85b748" y="45.372813"/>
     </g>
    </g>
    <g id="text_18">
     <!-- afl -->
     <g transform="translate(448.810625 48.872813)scale(0.1 -0.1)">
      <use xlink:href="#DejaVuSans-61"/>
      <use x="61.279297" xlink:href="#DejaVuSans-66"/>
      <use x="96.484375" xlink:href="#DejaVuSans-6c"/>
     </g>
    </g>
    <g id="line2d_41">
     <path d="M 420.810625 60.050937 
L 440.810625 60.050937 
" style="fill:none;stroke:#98df8a;stroke-linecap:square;stroke-width:1.5;"/>
    </g>
    <g id="line2d_42">
     <defs>
      <path d="M -0 3 
L 3 -3 
L -3 -3 
z
" id="m43accbc6c9" style="stroke:#98df8a;stroke-linejoin:miter;"/>
     </defs>
     <g>
      <use style="fill:#98df8a;stroke:#98df8a;stroke-linejoin:miter;" x="430.810625" xlink:href="#m43accbc6c9" y="60.050937"/>
     </g>
    </g>
    <g id="text_19">
     <!-- afl_scheduling_lifo -->
     <g transform="translate(448.810625 63.550937)scale(0.1 -0.1)">
      <use xlink:href="#DejaVuSans-61"/>
      <use x="61.279297" xlink:href="#DejaVuSans-66"/>
      <use x="96.484375" xlink:href="#DejaVuSans-6c"/>
      <use x="124.267578" xlink:href="#DejaVuSans-5f"/>
      <use x="174.267578" xlink:href="#DejaVuSans-73"/>
      <use x="226.367188" xlink:href="#DejaVuSans-63"/>
      <use x="281.347656" xlink:href="#DejaVuSans-68"/>
      <use x="344.726562" xlink:href="#DejaVuSans-65"/>
      <use x="406.25" xlink:href="#DejaVuSans-64"/>
      <use x="469.726562" xlink:href="#DejaVuSans-75"/>
      <use x="533.105469" xlink:href="#DejaVuSans-6c"/>
      <use x="560.888672" xlink:href="#DejaVuSans-69"/>
      <use x="588.671875" xlink:href="#DejaVuSans-6e"/>
      <use x="652.050781" xlink:href="#DejaVuSans-67"/>
      <use x="715.527344" xlink:href="#DejaVuSans-5f"/>
      <use x="765.527344" xlink:href="#DejaVuSans-6c"/>
      <use x="793.310547" xlink:href="#DejaVuSans-69"/>
      <use x="821.09375" xlink:href="#DejaVuSans-66"/>
      <use x="856.298828" xlink:href="#DejaVuSans-6f"/>
     </g>
    </g>
   </g>
  </g>
 </g>
 <defs>
  <clipPath id="p02dba24840">
   <rect height="266.112" width="357.12" x="59.690625" y="22.318125"/>
  </clipPath>
 </defs>
</svg>
