<?xml version="1.0" encoding="utf-8" standalone="no"?>
<!DOCTYPE svg PUBLIC "-//W3C//DTD SVG 1.1//EN"
  "http://www.w3.org/Graphics/SVG/1.1/DTD/svg11.dtd">
<svg height="325.986375pt" version="1.1" viewBox="0 0 568.985625 325.986375" width="568.985625pt" xmlns="http://www.w3.org/2000/svg" xmlns:xlink="http://www.w3.org/1999/xlink">
 <metadata>
  <rdf:RDF xmlns:cc="http://creativecommons.org/ns#" xmlns:dc="http://purl.org/dc/elements/1.1/" xmlns:rdf="http://www.w3.org/1999/02/22-rdf-syntax-ns#">
   <cc:Work>
    <dc:type rdf:resource="http://purl.org/dc/dcmitype/StillImage"/>
    <dc:date>2022-07-21T16:32:17.495514</dc:date>
    <dc:format>image/svg+xml</dc:format>
    <dc:creator>
     <cc:Agent>
      <dc:title>Matplotlib v3.4.3, https://matplotlib.org/</dc:title>
     </cc:Agent>
    </dc:creator>
   </cc:Work>
  </rdf:RDF>
 </metadata>
 <defs>
  <style type="text/css">*{stroke-linecap:butt;stroke-linejoin:round;}</style>
 </defs>
 <g id="figure_1">
  <g id="patch_1">
   <path d="M 0 325.986375 
L 568.985625 325.986375 
L 568.985625 0 
L 0 0 
z
" style="fill:#ffffff;"/>
  </g>
  <g id="axes_1">
   <g id="patch_2">
    <path d="M 53.328125 288.430125 
L 410.448125 288.430125 
L 410.448125 22.318125 
L 53.328125 22.318125 
z
" style="fill:#ffffff;"/>
   </g>
   <g id="PolyCollection_1">
    <defs>
     <path d="M 69.560852 -78.413521 
L 69.560852 -49.65225 
L 119.327306 -93.422617 
L 148.438816 -116.490783 
L 169.09376 -122.701443 
L 185.11498 -125.6589 
L 198.205269 -142.886089 
L 209.272952 -143.551517 
L 218.860214 -160.704768 
L 227.316779 -165.288827 
L 234.881434 -172.523507 
L 241.724496 -175.639927 
L 247.971723 -176.82291 
L 253.718615 -179.854304 
L 259.039406 -180.002177 
L 263.992943 -179.632494 
L 268.626668 -180.076113 
L 272.979383 -213.791125 
L 277.083233 -215.713472 
L 280.965141 -217.63582 
L 284.647888 -220.889023 
L 288.150915 -220.889023 
L 291.49095 -223.254988 
L 294.68249 -224.282705 
L 297.738177 -224.437971 
L 300.669107 -224.437971 
L 303.485069 -224.437971 
L 306.194742 -230.648631 
L 308.805859 -230.796504 
L 311.32534 -230.792807 
L 313.759397 -232.792788 
L 316.113635 -232.927722 
L 318.393122 -233.236406 
L 320.60246 -233.236406 
L 322.745837 -233.310343 
L 324.827079 -233.310343 
L 326.849687 -233.310343 
L 328.816873 -233.310343 
L 330.731595 -233.310343 
L 332.596578 -233.310343 
L 334.414342 -233.310343 
L 336.187217 -233.310343 
L 337.917369 -233.310343 
L 339.606807 -233.310343 
L 341.257404 -232.717003 
L 342.870906 -233.310343 
L 344.448944 -233.310343 
L 345.993042 -235.23269 
L 347.504631 -235.14027 
L 348.985051 -239.816749 
L 350.435561 -240.482177 
L 351.857347 -240.556113 
L 353.251523 -240.556113 
L 354.619142 -243.365697 
L 355.961196 -240.556113 
L 357.278624 -240.556113 
L 358.572313 -240.556113 
L 359.843104 -240.556113 
L 361.091794 -243.365697 
L 362.319136 -240.556113 
L 363.525851 -240.556113 
L 364.712619 -259.023585 
L 365.880089 -262.071614 
L 367.028878 -262.720406 
L 368.159576 -262.071614 
L 369.272743 -261.995829 
L 370.368914 -262.071614 
L 371.4486 -262.441296 
L 372.512291 -262.441296 
L 373.560453 -262.441296 
L 374.593533 -262.441296 
L 375.611959 -262.441296 
L 376.616141 -262.396935 
L 377.606471 -262.441296 
L 378.583327 -243.661443 
L 379.547071 -262.441296 
L 380.498049 -262.441296 
L 381.436596 -258.367399 
L 382.363032 -262.441296 
L 383.277666 -262.371057 
L 384.180795 -262.441296 
L 385.072705 -281.516895 
L 385.953671 -281.516895 
L 386.823958 -281.516895 
L 387.683823 -281.516895 
L 388.533511 -281.22115 
L 389.373261 -281.516895 
L 390.203303 -281.22115 
L 391.023858 -281.516895 
L 391.835142 -281.22115 
L 392.63736 -281.516895 
L 393.430714 -281.509502 
L 394.215398 -281.516895 
L 394.215398 -290.611076 
L 394.215398 -290.611076 
L 393.430714 -290.53714 
L 392.63736 -290.53714 
L 391.835142 -290.53714 
L 391.023858 -291.57225 
L 390.203303 -290.53714 
L 389.373261 -290.611076 
L 388.533511 -290.53714 
L 387.683823 -290.611076 
L 386.823958 -290.53714 
L 385.953671 -290.53714 
L 385.072705 -289.428094 
L 384.180795 -289.428094 
L 383.277666 -289.428094 
L 382.363032 -289.428094 
L 381.436596 -289.058411 
L 380.498049 -289.058411 
L 379.547071 -289.50203 
L 378.583327 -288.625883 
L 377.606471 -289.50203 
L 376.616141 -289.058411 
L 375.611959 -289.058411 
L 374.593533 -289.058411 
L 373.560453 -289.062108 
L 372.512291 -289.058411 
L 371.4486 -289.058411 
L 370.368914 -289.058411 
L 369.272743 -289.206284 
L 368.159576 -288.910539 
L 367.028878 -288.910539 
L 365.880089 -289.132348 
L 364.712619 -288.910539 
L 363.525851 -288.171174 
L 362.319136 -288.171174 
L 361.091794 -287.653619 
L 359.843104 -287.653619 
L 358.572313 -287.653619 
L 357.278624 -287.653619 
L 355.961196 -287.505746 
L 354.619142 -287.505746 
L 353.251523 -287.505746 
L 351.857347 -287.136064 
L 350.435561 -287.062128 
L 348.985051 -286.174891 
L 347.504631 -283.365306 
L 345.993042 -283.365306 
L 344.448944 -283.365306 
L 342.870906 -283.29137 
L 341.257404 -282.995624 
L 339.606807 -282.995624 
L 337.917369 -282.995624 
L 336.187217 -282.995624 
L 334.414342 -282.995624 
L 332.596578 -282.853296 
L 330.731595 -282.847751 
L 328.816873 -282.847751 
L 326.849687 -282.847751 
L 324.827079 -282.25626 
L 322.745837 -280.629658 
L 320.60246 -280.629658 
L 318.393122 -280.629658 
L 316.113635 -280.269218 
L 313.759397 -280.555722 
L 311.32534 -279.816358 
L 308.805859 -279.816358 
L 306.194742 -279.816358 
L 303.485069 -276.932837 
L 300.669107 -276.942079 
L 297.738177 -273.014206 
L 294.68249 -272.866333 
L 291.49095 -272.71846 
L 288.150915 -237.30291 
L 284.647888 -238.042274 
L 280.965141 -236.489609 
L 277.083233 -236.415673 
L 272.979383 -233.901834 
L 268.626668 -233.901834 
L 263.992943 -232.644915 
L 259.039406 -231.831614 
L 253.718615 -230.722568 
L 247.971723 -229.036817 
L 241.724496 -229.02203 
L 234.881434 -227.839047 
L 227.316779 -222.81137 
L 218.860214 -221.332641 
L 209.272952 -217.63582 
L 198.205269 -208.837384 
L 185.11498 -201.665551 
L 169.09376 -205.879927 
L 148.438816 -196.563937 
L 119.327306 -135.1967 
L 69.560852 -78.413521 
z
" id="m108af96d6b" style="stroke:#98df8a;stroke-opacity:0.2;"/>
    </defs>
    <g clip-path="url(#p94e1aa588c)">
     <use style="fill:#98df8a;fill-opacity:0.2;stroke:#98df8a;stroke-opacity:0.2;" x="0" xlink:href="#m108af96d6b" y="325.986375"/>
    </g>
   </g>
   <g id="PolyCollection_2">
    <defs>
     <path d="M 69.560852 -115.899292 
L 69.560852 -94.6056 
L 119.327306 -101.999243 
L 148.438816 -112.941834 
L 169.09376 -120.48335 
L 185.11498 -119.226431 
L 198.205269 -122.183888 
L 209.272952 -129.133913 
L 218.860214 -150.871223 
L 227.316779 -172.312788 
L 234.881434 -172.978216 
L 241.724496 -175.270245 
L 247.971723 -188.283057 
L 253.718615 -188.260876 
L 259.039406 -189.46604 
L 263.992943 -189.761785 
L 268.626668 -188.551076 
L 272.979383 -190.205404 
L 277.083233 -190.205404 
L 280.965141 -190.575086 
L 284.647888 -201.88736 
L 288.150915 -211.646969 
L 291.49095 -211.720905 
L 294.68249 -212.016651 
L 297.738177 -213.865062 
L 300.669107 -215.048045 
L 303.485069 -215.048045 
L 306.194742 -215.048045 
L 308.805859 -220.51934 
L 311.32534 -222.515624 
L 313.759397 -225.177336 
L 316.113635 -226.434255 
L 318.393122 -226.434255 
L 320.60246 -226.508191 
L 322.745837 -226.478617 
L 324.827079 -226.877873 
L 326.849687 -225.473081 
L 328.816873 -227.099683 
L 330.731595 -227.469365 
L 332.596578 -227.691174 
L 334.414342 -227.680084 
L 336.187217 -227.98692 
L 337.917369 -227.98692 
L 339.606807 -240.999732 
L 341.257404 -247.271389 
L 342.870906 -242.034842 
L 344.448944 -242.034842 
L 345.993042 -242.108778 
L 347.504631 -249.605932 
L 348.985051 -242.404524 
L 350.435561 -240.703986 
L 351.857347 -246.175282 
L 353.251523 -247.87582 
L 354.619142 -247.87582 
L 355.961196 -247.87582 
L 357.278624 -247.87582 
L 358.572313 -247.87582 
L 359.843104 -247.837003 
L 361.091794 -247.87582 
L 362.319136 -252.977433 
L 363.525851 -252.977433 
L 364.712619 -253.864671 
L 365.880089 -253.864671 
L 367.028878 -253.864671 
L 368.159576 -253.864671 
L 369.272743 -253.864671 
L 370.368914 -253.864671 
L 371.4486 -252.903497 
L 372.512291 -253.864671 
L 373.560453 -254.012543 
L 374.593533 -254.012543 
L 375.611959 -254.012543 
L 376.616141 -254.012543 
L 377.606471 -273.97538 
L 378.583327 -273.97538 
L 379.547071 -273.97538 
L 380.498049 -272.94027 
L 381.436596 -273.97538 
L 382.363032 -273.97538 
L 383.277666 -274.049316 
L 384.180795 -274.049316 
L 385.072705 -274.049316 
L 385.953671 -275.158362 
L 386.823958 -274.02159 
L 387.683823 -274.049316 
L 388.533511 -272.94027 
L 389.373261 -274.049316 
L 390.203303 -274.049316 
L 391.023858 -274.418998 
L 391.835142 -274.418998 
L 392.63736 -274.418998 
L 393.430714 -274.418998 
L 394.215398 -274.38203 
L 394.215398 -284.548289 
L 394.215398 -284.548289 
L 393.430714 -284.622226 
L 392.63736 -283.513179 
L 391.835142 -283.513179 
L 391.023858 -283.513179 
L 390.203303 -283.522421 
L 389.373261 -283.446636 
L 388.533511 -283.439243 
L 387.683823 -283.439243 
L 386.823958 -283.439243 
L 385.953671 -283.439243 
L 385.072705 -283.734988 
L 384.180795 -283.734988 
L 383.277666 -283.439243 
L 382.363032 -283.439243 
L 381.436596 -283.439243 
L 380.498049 -283.439243 
L 379.547071 -283.444788 
L 378.583327 -283.439243 
L 377.606471 -283.439243 
L 376.616141 -283.365306 
L 375.611959 -282.193414 
L 374.593533 -282.625942 
L 373.560453 -282.921688 
L 372.512291 -282.182323 
L 371.4486 -281.664768 
L 370.368914 -280.777531 
L 369.272743 -280.333913 
L 368.159576 -280.333913 
L 367.028878 -279.96423 
L 365.880089 -279.520612 
L 364.712619 -279.520612 
L 363.525851 -279.520612 
L 362.319136 -279.520612 
L 361.091794 -279.076993 
L 359.843104 -279.076993 
L 358.572313 -278.707311 
L 357.278624 -278.711008 
L 355.961196 -278.485502 
L 354.619142 -277.967947 
L 353.251523 -277.967947 
L 351.857347 -278.11582 
L 350.435561 -277.967947 
L 348.985051 -277.967947 
L 347.504631 -277.89401 
L 345.993042 -277.89401 
L 344.448944 -277.304367 
L 342.870906 -276.638939 
L 341.257404 -276.637091 
L 339.606807 -276.489218 
L 337.917369 -275.897727 
L 336.187217 -275.749854 
L 334.414342 -274.938402 
L 332.596578 -274.862617 
L 330.731595 -274.78868 
L 328.816873 -274.640807 
L 326.849687 -273.309952 
L 324.827079 -273.162079 
L 322.745837 -273.045629 
L 320.60246 -271.609414 
L 318.393122 -271.091859 
L 316.113635 -270.725873 
L 313.759397 -270.426431 
L 311.32534 -268.799829 
L 308.805859 -267.840504 
L 306.194742 -267.395037 
L 303.485069 -264.511517 
L 300.669107 -263.476406 
L 297.738177 -259.639106 
L 294.68249 -257.043937 
L 291.49095 -256.970001 
L 288.150915 -248.171565 
L 284.647888 -227.321492 
L 280.965141 -227.099683 
L 277.083233 -225.103399 
L 272.979383 -224.437971 
L 268.626668 -224.437971 
L 263.992943 -222.663497 
L 259.039406 -220.74115 
L 253.718615 -221.480514 
L 247.971723 -220.534128 
L 241.724496 -220.74115 
L 234.881434 -217.41401 
L 227.316779 -215.269854 
L 218.860214 -211.20335 
L 209.272952 -207.876211 
L 198.205269 -205.990832 
L 185.11498 -204.623008 
L 169.09376 -203.883644 
L 148.438816 -198.042666 
L 119.327306 -182.368142 
L 69.560852 -115.899292 
z
" id="m7857c03e64" style="stroke:#1f77b4;stroke-opacity:0.2;"/>
    </defs>
    <g clip-path="url(#p94e1aa588c)">
     <use style="fill:#1f77b4;fill-opacity:0.2;stroke:#1f77b4;stroke-opacity:0.2;" x="0" xlink:href="#m7857c03e64" y="325.986375"/>
    </g>
   </g>
   <g id="PolyCollection_3">
    <defs>
     <path d="M 69.560852 -111.758851 
L 69.560852 -77.008729 
L 119.327306 -114.938118 
L 148.438816 -119.743986 
L 169.09376 -125.732837 
L 185.11498 -128.320612 
L 198.205269 -147.765893 
L 209.272952 -160.704768 
L 218.860214 -171.721296 
L 227.316779 -171.795233 
L 234.881434 -172.978216 
L 241.724496 -173.273961 
L 247.971723 -172.534597 
L 253.718615 -174.309072 
L 259.039406 -174.75269 
L 263.992943 -174.826627 
L 268.626668 -176.231419 
L 272.979383 -177.044719 
L 277.083233 -179.780367 
L 280.965141 -181.850587 
L 284.647888 -181.99846 
L 288.150915 -182.885697 
L 291.49095 -196.342128 
L 294.68249 -197.377238 
L 297.738177 -212.386333 
L 300.669107 -212.386333 
L 303.485069 -213.865062 
L 306.194742 -214.456553 
L 308.805859 -214.42513 
L 311.32534 -213.199634 
L 313.759397 -214.456553 
L 316.113635 -214.456553 
L 318.393122 -218.523057 
L 320.60246 -222.072006 
L 322.745837 -222.510079 
L 324.827079 -222.663497 
L 326.849687 -222.885306 
L 328.816873 -222.515624 
L 330.731595 -222.885306 
L 332.596578 -222.515624 
L 334.414342 -222.885306 
L 336.187217 -223.772543 
L 337.917369 -225.842763 
L 339.606807 -225.842763 
L 341.257404 -225.842763 
L 342.870906 -225.842763 
L 344.448944 -225.842763 
L 345.993042 -225.990636 
L 347.504631 -226.064573 
L 348.985051 -226.038695 
L 350.435561 -226.064573 
L 351.857347 -226.212446 
L 353.251523 -226.212446 
L 354.619142 -226.212446 
L 355.961196 -226.212446 
L 357.278624 -226.360318 
L 358.572313 -227.977678 
L 359.843104 -227.98692 
L 361.091794 -228.134793 
L 362.319136 -228.134793 
L 363.525851 -231.09225 
L 364.712619 -228.948094 
L 365.880089 -228.946245 
L 367.028878 -230.574695 
L 368.159576 -232.053424 
L 369.272743 -232.053424 
L 370.368914 -232.053424 
L 371.4486 -232.053424 
L 372.512291 -225.177336 
L 373.560453 -232.053424 
L 374.593533 -232.12736 
L 375.611959 -233.088534 
L 376.616141 -232.12736 
L 377.606471 -233.352856 
L 378.583327 -233.384279 
L 379.547071 -233.384279 
L 380.498049 -233.384279 
L 381.436596 -234.049707 
L 382.363032 -234.19758 
L 383.277666 -228.430539 
L 384.180795 -234.19758 
L 385.072705 -234.271517 
L 385.953671 -234.271517 
L 386.823958 -234.271517 
L 387.683823 -234.271517 
L 388.533511 -234.345453 
L 389.373261 -234.345453 
L 390.203303 -232.474861 
L 391.023858 -234.345453 
L 391.835142 -234.345453 
L 392.63736 -243.472905 
L 393.430714 -252.090196 
L 394.215398 -252.164133 
L 394.215398 -288.392983 
L 394.215398 -288.392983 
L 393.430714 -287.579683 
L 392.63736 -288.392983 
L 391.835142 -288.392983 
L 391.023858 -288.400377 
L 390.203303 -288.392983 
L 389.373261 -288.392983 
L 388.533511 -288.392983 
L 387.683823 -288.097238 
L 386.823958 -288.392983 
L 385.953671 -288.097238 
L 385.072705 -288.097238 
L 384.180795 -288.097238 
L 383.277666 -288.097238 
L 382.363032 -288.097238 
L 381.436596 -287.357873 
L 380.498049 -287.357873 
L 379.547071 -287.210001 
L 378.583327 -287.210001 
L 377.606471 -287.210001 
L 376.616141 -287.210001 
L 375.611959 -287.43181 
L 374.593533 -286.988191 
L 373.560453 -286.914255 
L 372.512291 -286.692446 
L 371.4486 -286.840318 
L 370.368914 -286.844015 
L 369.272743 -286.988191 
L 368.159576 -283.439243 
L 367.028878 -282.995624 
L 365.880089 -282.552006 
L 364.712619 -282.478069 
L 363.525851 -282.552006 
L 362.319136 -282.478069 
L 361.091794 -282.404133 
L 359.843104 -282.404133 
L 358.572313 -282.182323 
L 357.278624 -282.182323 
L 355.961196 -282.182323 
L 354.619142 -282.03445 
L 353.251523 -282.03445 
L 351.857347 -282.108387 
L 350.435561 -282.03445 
L 348.985051 -281.886578 
L 347.504631 -281.886578 
L 345.993042 -281.886578 
L 344.448944 -281.812641 
L 342.870906 -281.812641 
L 341.257404 -281.812641 
L 339.606807 -281.147213 
L 337.917369 -279.742421 
L 336.187217 -279.668485 
L 334.414342 -279.668485 
L 332.596578 -278.411565 
L 330.731595 -279.224866 
L 328.816873 -276.784964 
L 326.849687 -276.942079 
L 324.827079 -276.711028 
L 322.745837 -276.637091 
L 320.60246 -272.053032 
L 318.393122 -272.053032 
L 316.113635 -262.810979 
L 313.759397 -255.565208 
L 311.32534 -255.417336 
L 308.805859 -254.456162 
L 306.194742 -234.936944 
L 303.485069 -234.419389 
L 300.669107 -234.493326 
L 297.738177 -233.901834 
L 294.68249 -233.310343 
L 291.49095 -229.761394 
L 288.150915 -228.504475 
L 284.647888 -228.282666 
L 280.965141 -228.282666 
L 277.083233 -227.099683 
L 272.979383 -227.099683 
L 268.626668 -226.877873 
L 263.992943 -225.325208 
L 259.039406 -224.142226 
L 253.718615 -219.558167 
L 247.971723 -219.336358 
L 241.724496 -218.005502 
L 234.881434 -213.791125 
L 227.316779 -209.502812 
L 218.860214 -202.478851 
L 209.272952 -177.85802 
L 198.205269 -177.562274 
L 185.11498 -171.129805 
L 169.09376 -169.281394 
L 148.438816 -165.214891 
L 119.327306 -148.209512 
L 69.560852 -111.758851 
z
" id="m14dbce10e7" style="stroke:#d62728;stroke-opacity:0.2;"/>
    </defs>
    <g clip-path="url(#p94e1aa588c)">
     <use style="fill:#d62728;fill-opacity:0.2;stroke:#d62728;stroke-opacity:0.2;" x="0" xlink:href="#m14dbce10e7" y="325.986375"/>
    </g>
   </g>
   <g id="matplotlib.axis_1">
    <g id="xtick_1">
     <g id="line2d_1">
      <defs>
       <path d="M 0 0 
L 0 3.5 
" id="ma1f5afae07" style="stroke:#000000;stroke-width:0.8;"/>
      </defs>
      <g>
       <use style="stroke:#000000;stroke-width:0.8;" x="69.560852" xlink:href="#ma1f5afae07" y="288.430125"/>
      </g>
     </g>
     <g id="text_1">
      <!-- 14m -->
      <g transform="translate(58.32804 303.028562)scale(0.1 -0.1)">
       <defs>
        <path d="M 794 531 
L 1825 531 
L 1825 4091 
L 703 3866 
L 703 4441 
L 1819 4666 
L 2450 4666 
L 2450 531 
L 3481 531 
L 3481 0 
L 794 0 
L 794 531 
z
" id="DejaVuSans-31" transform="scale(0.015625)"/>
        <path d="M 2419 4116 
L 825 1625 
L 2419 1625 
L 2419 4116 
z
M 2253 4666 
L 3047 4666 
L 3047 1625 
L 3713 1625 
L 3713 1100 
L 3047 1100 
L 3047 0 
L 2419 0 
L 2419 1100 
L 313 1100 
L 313 1709 
L 2253 4666 
z
" id="DejaVuSans-34" transform="scale(0.015625)"/>
        <path d="M 3328 2828 
Q 3544 3216 3844 3400 
Q 4144 3584 4550 3584 
Q 5097 3584 5394 3201 
Q 5691 2819 5691 2113 
L 5691 0 
L 5113 0 
L 5113 2094 
Q 5113 2597 4934 2840 
Q 4756 3084 4391 3084 
Q 3944 3084 3684 2787 
Q 3425 2491 3425 1978 
L 3425 0 
L 2847 0 
L 2847 2094 
Q 2847 2600 2669 2842 
Q 2491 3084 2119 3084 
Q 1678 3084 1418 2786 
Q 1159 2488 1159 1978 
L 1159 0 
L 581 0 
L 581 3500 
L 1159 3500 
L 1159 2956 
Q 1356 3278 1631 3431 
Q 1906 3584 2284 3584 
Q 2666 3584 2933 3390 
Q 3200 3197 3328 2828 
z
" id="DejaVuSans-6d" transform="scale(0.015625)"/>
       </defs>
       <use xlink:href="#DejaVuSans-31"/>
       <use x="63.623047" xlink:href="#DejaVuSans-34"/>
       <use x="127.246094" xlink:href="#DejaVuSans-6d"/>
      </g>
     </g>
    </g>
    <g id="xtick_2">
     <g id="line2d_2">
      <g>
       <use style="stroke:#000000;stroke-width:0.8;" x="134.491935" xlink:href="#ma1f5afae07" y="288.430125"/>
      </g>
     </g>
     <g id="text_2">
      <!-- 37m -->
      <g transform="translate(123.259122 303.028562)scale(0.1 -0.1)">
       <defs>
        <path d="M 2597 2516 
Q 3050 2419 3304 2112 
Q 3559 1806 3559 1356 
Q 3559 666 3084 287 
Q 2609 -91 1734 -91 
Q 1441 -91 1130 -33 
Q 819 25 488 141 
L 488 750 
Q 750 597 1062 519 
Q 1375 441 1716 441 
Q 2309 441 2620 675 
Q 2931 909 2931 1356 
Q 2931 1769 2642 2001 
Q 2353 2234 1838 2234 
L 1294 2234 
L 1294 2753 
L 1863 2753 
Q 2328 2753 2575 2939 
Q 2822 3125 2822 3475 
Q 2822 3834 2567 4026 
Q 2313 4219 1838 4219 
Q 1578 4219 1281 4162 
Q 984 4106 628 3988 
L 628 4550 
Q 988 4650 1302 4700 
Q 1616 4750 1894 4750 
Q 2613 4750 3031 4423 
Q 3450 4097 3450 3541 
Q 3450 3153 3228 2886 
Q 3006 2619 2597 2516 
z
" id="DejaVuSans-33" transform="scale(0.015625)"/>
        <path d="M 525 4666 
L 3525 4666 
L 3525 4397 
L 1831 0 
L 1172 0 
L 2766 4134 
L 525 4134 
L 525 4666 
z
" id="DejaVuSans-37" transform="scale(0.015625)"/>
       </defs>
       <use xlink:href="#DejaVuSans-33"/>
       <use x="63.623047" xlink:href="#DejaVuSans-37"/>
       <use x="127.246094" xlink:href="#DejaVuSans-6d"/>
      </g>
     </g>
    </g>
    <g id="xtick_3">
     <g id="line2d_3">
      <g>
       <use style="stroke:#000000;stroke-width:0.8;" x="199.423017" xlink:href="#ma1f5afae07" y="288.430125"/>
      </g>
     </g>
     <g id="text_3">
      <!-- 1h:31m -->
      <g transform="translate(180.15583 303.028562)scale(0.1 -0.1)">
       <defs>
        <path d="M 3513 2113 
L 3513 0 
L 2938 0 
L 2938 2094 
Q 2938 2591 2744 2837 
Q 2550 3084 2163 3084 
Q 1697 3084 1428 2787 
Q 1159 2491 1159 1978 
L 1159 0 
L 581 0 
L 581 4863 
L 1159 4863 
L 1159 2956 
Q 1366 3272 1645 3428 
Q 1925 3584 2291 3584 
Q 2894 3584 3203 3211 
Q 3513 2838 3513 2113 
z
" id="DejaVuSans-68" transform="scale(0.015625)"/>
        <path d="M 750 794 
L 1409 794 
L 1409 0 
L 750 0 
L 750 794 
z
M 750 3309 
L 1409 3309 
L 1409 2516 
L 750 2516 
L 750 3309 
z
" id="DejaVuSans-3a" transform="scale(0.015625)"/>
       </defs>
       <use xlink:href="#DejaVuSans-31"/>
       <use x="63.623047" xlink:href="#DejaVuSans-68"/>
       <use x="127.001953" xlink:href="#DejaVuSans-3a"/>
       <use x="160.693359" xlink:href="#DejaVuSans-33"/>
       <use x="224.316406" xlink:href="#DejaVuSans-31"/>
       <use x="287.939453" xlink:href="#DejaVuSans-6d"/>
      </g>
     </g>
    </g>
    <g id="xtick_4">
     <g id="line2d_4">
      <g>
       <use style="stroke:#000000;stroke-width:0.8;" x="264.3541" xlink:href="#ma1f5afae07" y="288.430125"/>
      </g>
     </g>
     <g id="text_4">
      <!-- 3h:46m -->
      <g transform="translate(245.086912 303.028562)scale(0.1 -0.1)">
       <defs>
        <path d="M 2113 2584 
Q 1688 2584 1439 2293 
Q 1191 2003 1191 1497 
Q 1191 994 1439 701 
Q 1688 409 2113 409 
Q 2538 409 2786 701 
Q 3034 994 3034 1497 
Q 3034 2003 2786 2293 
Q 2538 2584 2113 2584 
z
M 3366 4563 
L 3366 3988 
Q 3128 4100 2886 4159 
Q 2644 4219 2406 4219 
Q 1781 4219 1451 3797 
Q 1122 3375 1075 2522 
Q 1259 2794 1537 2939 
Q 1816 3084 2150 3084 
Q 2853 3084 3261 2657 
Q 3669 2231 3669 1497 
Q 3669 778 3244 343 
Q 2819 -91 2113 -91 
Q 1303 -91 875 529 
Q 447 1150 447 2328 
Q 447 3434 972 4092 
Q 1497 4750 2381 4750 
Q 2619 4750 2861 4703 
Q 3103 4656 3366 4563 
z
" id="DejaVuSans-36" transform="scale(0.015625)"/>
       </defs>
       <use xlink:href="#DejaVuSans-33"/>
       <use x="63.623047" xlink:href="#DejaVuSans-68"/>
       <use x="127.001953" xlink:href="#DejaVuSans-3a"/>
       <use x="160.693359" xlink:href="#DejaVuSans-34"/>
       <use x="224.316406" xlink:href="#DejaVuSans-36"/>
       <use x="287.939453" xlink:href="#DejaVuSans-6d"/>
      </g>
     </g>
    </g>
    <g id="xtick_5">
     <g id="line2d_5">
      <g>
       <use style="stroke:#000000;stroke-width:0.8;" x="329.285182" xlink:href="#ma1f5afae07" y="288.430125"/>
      </g>
     </g>
     <g id="text_5">
      <!-- 9h:18m -->
      <g transform="translate(310.017995 303.028562)scale(0.1 -0.1)">
       <defs>
        <path d="M 703 97 
L 703 672 
Q 941 559 1184 500 
Q 1428 441 1663 441 
Q 2288 441 2617 861 
Q 2947 1281 2994 2138 
Q 2813 1869 2534 1725 
Q 2256 1581 1919 1581 
Q 1219 1581 811 2004 
Q 403 2428 403 3163 
Q 403 3881 828 4315 
Q 1253 4750 1959 4750 
Q 2769 4750 3195 4129 
Q 3622 3509 3622 2328 
Q 3622 1225 3098 567 
Q 2575 -91 1691 -91 
Q 1453 -91 1209 -44 
Q 966 3 703 97 
z
M 1959 2075 
Q 2384 2075 2632 2365 
Q 2881 2656 2881 3163 
Q 2881 3666 2632 3958 
Q 2384 4250 1959 4250 
Q 1534 4250 1286 3958 
Q 1038 3666 1038 3163 
Q 1038 2656 1286 2365 
Q 1534 2075 1959 2075 
z
" id="DejaVuSans-39" transform="scale(0.015625)"/>
        <path d="M 2034 2216 
Q 1584 2216 1326 1975 
Q 1069 1734 1069 1313 
Q 1069 891 1326 650 
Q 1584 409 2034 409 
Q 2484 409 2743 651 
Q 3003 894 3003 1313 
Q 3003 1734 2745 1975 
Q 2488 2216 2034 2216 
z
M 1403 2484 
Q 997 2584 770 2862 
Q 544 3141 544 3541 
Q 544 4100 942 4425 
Q 1341 4750 2034 4750 
Q 2731 4750 3128 4425 
Q 3525 4100 3525 3541 
Q 3525 3141 3298 2862 
Q 3072 2584 2669 2484 
Q 3125 2378 3379 2068 
Q 3634 1759 3634 1313 
Q 3634 634 3220 271 
Q 2806 -91 2034 -91 
Q 1263 -91 848 271 
Q 434 634 434 1313 
Q 434 1759 690 2068 
Q 947 2378 1403 2484 
z
M 1172 3481 
Q 1172 3119 1398 2916 
Q 1625 2713 2034 2713 
Q 2441 2713 2670 2916 
Q 2900 3119 2900 3481 
Q 2900 3844 2670 4047 
Q 2441 4250 2034 4250 
Q 1625 4250 1398 4047 
Q 1172 3844 1172 3481 
z
" id="DejaVuSans-38" transform="scale(0.015625)"/>
       </defs>
       <use xlink:href="#DejaVuSans-39"/>
       <use x="63.623047" xlink:href="#DejaVuSans-68"/>
       <use x="127.001953" xlink:href="#DejaVuSans-3a"/>
       <use x="160.693359" xlink:href="#DejaVuSans-31"/>
       <use x="224.316406" xlink:href="#DejaVuSans-38"/>
       <use x="287.939453" xlink:href="#DejaVuSans-6d"/>
      </g>
     </g>
    </g>
    <g id="xtick_6">
     <g id="line2d_6">
      <g>
       <use style="stroke:#000000;stroke-width:0.8;" x="394.216265" xlink:href="#ma1f5afae07" y="288.430125"/>
      </g>
     </g>
     <g id="text_6">
      <!-- 23h -->
      <g transform="translate(384.685015 303.028562)scale(0.1 -0.1)">
       <defs>
        <path d="M 1228 531 
L 3431 531 
L 3431 0 
L 469 0 
L 469 531 
Q 828 903 1448 1529 
Q 2069 2156 2228 2338 
Q 2531 2678 2651 2914 
Q 2772 3150 2772 3378 
Q 2772 3750 2511 3984 
Q 2250 4219 1831 4219 
Q 1534 4219 1204 4116 
Q 875 4013 500 3803 
L 500 4441 
Q 881 4594 1212 4672 
Q 1544 4750 1819 4750 
Q 2544 4750 2975 4387 
Q 3406 4025 3406 3419 
Q 3406 3131 3298 2873 
Q 3191 2616 2906 2266 
Q 2828 2175 2409 1742 
Q 1991 1309 1228 531 
z
" id="DejaVuSans-32" transform="scale(0.015625)"/>
       </defs>
       <use xlink:href="#DejaVuSans-32"/>
       <use x="63.623047" xlink:href="#DejaVuSans-33"/>
       <use x="127.246094" xlink:href="#DejaVuSans-68"/>
      </g>
     </g>
    </g>
    <g id="xtick_7">
     <g id="line2d_7">
      <defs>
       <path d="M 0 0 
L 0 2 
" id="m37be15b9ae" style="stroke:#000000;stroke-width:0.6;"/>
      </defs>
      <g>
       <use style="stroke:#000000;stroke-width:0.6;" x="61.104288" xlink:href="#m37be15b9ae" y="288.430125"/>
      </g>
     </g>
    </g>
    <g id="xtick_8">
     <g id="line2d_8">
      <g>
       <use style="stroke:#000000;stroke-width:0.6;" x="126.891961" xlink:href="#m37be15b9ae" y="288.430125"/>
      </g>
     </g>
    </g>
    <g id="xtick_9">
     <g id="line2d_9">
      <g>
       <use style="stroke:#000000;stroke-width:0.6;" x="156.00347" xlink:href="#m37be15b9ae" y="288.430125"/>
      </g>
     </g>
    </g>
    <g id="xtick_10">
     <g id="line2d_10">
      <g>
       <use style="stroke:#000000;stroke-width:0.6;" x="176.658415" xlink:href="#m37be15b9ae" y="288.430125"/>
      </g>
     </g>
    </g>
    <g id="xtick_11">
     <g id="line2d_11">
      <g>
       <use style="stroke:#000000;stroke-width:0.6;" x="192.679635" xlink:href="#m37be15b9ae" y="288.430125"/>
      </g>
     </g>
    </g>
    <g id="xtick_12">
     <g id="line2d_12">
      <g>
       <use style="stroke:#000000;stroke-width:0.6;" x="205.769924" xlink:href="#m37be15b9ae" y="288.430125"/>
      </g>
     </g>
    </g>
    <g id="xtick_13">
     <g id="line2d_13">
      <g>
       <use style="stroke:#000000;stroke-width:0.6;" x="216.837607" xlink:href="#m37be15b9ae" y="288.430125"/>
      </g>
     </g>
    </g>
    <g id="xtick_14">
     <g id="line2d_14">
      <g>
       <use style="stroke:#000000;stroke-width:0.6;" x="226.424869" xlink:href="#m37be15b9ae" y="288.430125"/>
      </g>
     </g>
    </g>
    <g id="xtick_15">
     <g id="line2d_15">
      <g>
       <use style="stroke:#000000;stroke-width:0.6;" x="234.881434" xlink:href="#m37be15b9ae" y="288.430125"/>
      </g>
     </g>
    </g>
    <g id="xtick_16">
     <g id="line2d_16">
      <g>
       <use style="stroke:#000000;stroke-width:0.6;" x="292.212543" xlink:href="#m37be15b9ae" y="288.430125"/>
      </g>
     </g>
    </g>
    <g id="xtick_17">
     <g id="line2d_17">
      <g>
       <use style="stroke:#000000;stroke-width:0.6;" x="321.324052" xlink:href="#m37be15b9ae" y="288.430125"/>
      </g>
     </g>
    </g>
    <g id="xtick_18">
     <g id="line2d_18">
      <g>
       <use style="stroke:#000000;stroke-width:0.6;" x="341.978996" xlink:href="#m37be15b9ae" y="288.430125"/>
      </g>
     </g>
    </g>
    <g id="xtick_19">
     <g id="line2d_19">
      <g>
       <use style="stroke:#000000;stroke-width:0.6;" x="358.000216" xlink:href="#m37be15b9ae" y="288.430125"/>
      </g>
     </g>
    </g>
    <g id="xtick_20">
     <g id="line2d_20">
      <g>
       <use style="stroke:#000000;stroke-width:0.6;" x="371.090506" xlink:href="#m37be15b9ae" y="288.430125"/>
      </g>
     </g>
    </g>
    <g id="xtick_21">
     <g id="line2d_21">
      <g>
       <use style="stroke:#000000;stroke-width:0.6;" x="382.158188" xlink:href="#m37be15b9ae" y="288.430125"/>
      </g>
     </g>
    </g>
    <g id="xtick_22">
     <g id="line2d_22">
      <g>
       <use style="stroke:#000000;stroke-width:0.6;" x="391.74545" xlink:href="#m37be15b9ae" y="288.430125"/>
      </g>
     </g>
    </g>
    <g id="xtick_23">
     <g id="line2d_23">
      <g>
       <use style="stroke:#000000;stroke-width:0.6;" x="400.202015" xlink:href="#m37be15b9ae" y="288.430125"/>
      </g>
     </g>
    </g>
    <g id="text_7">
     <!-- Time (hour:minute) -->
     <g transform="translate(183.481094 316.706687)scale(0.1 -0.1)">
      <defs>
       <path d="M -19 4666 
L 3928 4666 
L 3928 4134 
L 2272 4134 
L 2272 0 
L 1638 0 
L 1638 4134 
L -19 4134 
L -19 4666 
z
" id="DejaVuSans-54" transform="scale(0.015625)"/>
       <path d="M 603 3500 
L 1178 3500 
L 1178 0 
L 603 0 
L 603 3500 
z
M 603 4863 
L 1178 4863 
L 1178 4134 
L 603 4134 
L 603 4863 
z
" id="DejaVuSans-69" transform="scale(0.015625)"/>
       <path d="M 3597 1894 
L 3597 1613 
L 953 1613 
Q 991 1019 1311 708 
Q 1631 397 2203 397 
Q 2534 397 2845 478 
Q 3156 559 3463 722 
L 3463 178 
Q 3153 47 2828 -22 
Q 2503 -91 2169 -91 
Q 1331 -91 842 396 
Q 353 884 353 1716 
Q 353 2575 817 3079 
Q 1281 3584 2069 3584 
Q 2775 3584 3186 3129 
Q 3597 2675 3597 1894 
z
M 3022 2063 
Q 3016 2534 2758 2815 
Q 2500 3097 2075 3097 
Q 1594 3097 1305 2825 
Q 1016 2553 972 2059 
L 3022 2063 
z
" id="DejaVuSans-65" transform="scale(0.015625)"/>
       <path id="DejaVuSans-20" transform="scale(0.015625)"/>
       <path d="M 1984 4856 
Q 1566 4138 1362 3434 
Q 1159 2731 1159 2009 
Q 1159 1288 1364 580 
Q 1569 -128 1984 -844 
L 1484 -844 
Q 1016 -109 783 600 
Q 550 1309 550 2009 
Q 550 2706 781 3412 
Q 1013 4119 1484 4856 
L 1984 4856 
z
" id="DejaVuSans-28" transform="scale(0.015625)"/>
       <path d="M 1959 3097 
Q 1497 3097 1228 2736 
Q 959 2375 959 1747 
Q 959 1119 1226 758 
Q 1494 397 1959 397 
Q 2419 397 2687 759 
Q 2956 1122 2956 1747 
Q 2956 2369 2687 2733 
Q 2419 3097 1959 3097 
z
M 1959 3584 
Q 2709 3584 3137 3096 
Q 3566 2609 3566 1747 
Q 3566 888 3137 398 
Q 2709 -91 1959 -91 
Q 1206 -91 779 398 
Q 353 888 353 1747 
Q 353 2609 779 3096 
Q 1206 3584 1959 3584 
z
" id="DejaVuSans-6f" transform="scale(0.015625)"/>
       <path d="M 544 1381 
L 544 3500 
L 1119 3500 
L 1119 1403 
Q 1119 906 1312 657 
Q 1506 409 1894 409 
Q 2359 409 2629 706 
Q 2900 1003 2900 1516 
L 2900 3500 
L 3475 3500 
L 3475 0 
L 2900 0 
L 2900 538 
Q 2691 219 2414 64 
Q 2138 -91 1772 -91 
Q 1169 -91 856 284 
Q 544 659 544 1381 
z
M 1991 3584 
L 1991 3584 
z
" id="DejaVuSans-75" transform="scale(0.015625)"/>
       <path d="M 2631 2963 
Q 2534 3019 2420 3045 
Q 2306 3072 2169 3072 
Q 1681 3072 1420 2755 
Q 1159 2438 1159 1844 
L 1159 0 
L 581 0 
L 581 3500 
L 1159 3500 
L 1159 2956 
Q 1341 3275 1631 3429 
Q 1922 3584 2338 3584 
Q 2397 3584 2469 3576 
Q 2541 3569 2628 3553 
L 2631 2963 
z
" id="DejaVuSans-72" transform="scale(0.015625)"/>
       <path d="M 3513 2113 
L 3513 0 
L 2938 0 
L 2938 2094 
Q 2938 2591 2744 2837 
Q 2550 3084 2163 3084 
Q 1697 3084 1428 2787 
Q 1159 2491 1159 1978 
L 1159 0 
L 581 0 
L 581 3500 
L 1159 3500 
L 1159 2956 
Q 1366 3272 1645 3428 
Q 1925 3584 2291 3584 
Q 2894 3584 3203 3211 
Q 3513 2838 3513 2113 
z
" id="DejaVuSans-6e" transform="scale(0.015625)"/>
       <path d="M 1172 4494 
L 1172 3500 
L 2356 3500 
L 2356 3053 
L 1172 3053 
L 1172 1153 
Q 1172 725 1289 603 
Q 1406 481 1766 481 
L 2356 481 
L 2356 0 
L 1766 0 
Q 1100 0 847 248 
Q 594 497 594 1153 
L 594 3053 
L 172 3053 
L 172 3500 
L 594 3500 
L 594 4494 
L 1172 4494 
z
" id="DejaVuSans-74" transform="scale(0.015625)"/>
       <path d="M 513 4856 
L 1013 4856 
Q 1481 4119 1714 3412 
Q 1947 2706 1947 2009 
Q 1947 1309 1714 600 
Q 1481 -109 1013 -844 
L 513 -844 
Q 928 -128 1133 580 
Q 1338 1288 1338 2009 
Q 1338 2731 1133 3434 
Q 928 4138 513 4856 
z
" id="DejaVuSans-29" transform="scale(0.015625)"/>
      </defs>
      <use xlink:href="#DejaVuSans-54"/>
      <use x="57.958984" xlink:href="#DejaVuSans-69"/>
      <use x="85.742188" xlink:href="#DejaVuSans-6d"/>
      <use x="183.154297" xlink:href="#DejaVuSans-65"/>
      <use x="244.677734" xlink:href="#DejaVuSans-20"/>
      <use x="276.464844" xlink:href="#DejaVuSans-28"/>
      <use x="315.478516" xlink:href="#DejaVuSans-68"/>
      <use x="378.857422" xlink:href="#DejaVuSans-6f"/>
      <use x="440.039062" xlink:href="#DejaVuSans-75"/>
      <use x="503.417969" xlink:href="#DejaVuSans-72"/>
      <use x="542.78125" xlink:href="#DejaVuSans-3a"/>
      <use x="576.472656" xlink:href="#DejaVuSans-6d"/>
      <use x="673.884766" xlink:href="#DejaVuSans-69"/>
      <use x="701.667969" xlink:href="#DejaVuSans-6e"/>
      <use x="765.046875" xlink:href="#DejaVuSans-75"/>
      <use x="828.425781" xlink:href="#DejaVuSans-74"/>
      <use x="867.634766" xlink:href="#DejaVuSans-65"/>
      <use x="929.158203" xlink:href="#DejaVuSans-29"/>
     </g>
    </g>
   </g>
   <g id="matplotlib.axis_2">
    <g id="ytick_1">
     <g id="line2d_24">
      <defs>
       <path d="M 0 0 
L -3.5 0 
" id="m08286dc3b1" style="stroke:#000000;stroke-width:0.8;"/>
      </defs>
      <g>
       <use style="stroke:#000000;stroke-width:0.8;" x="53.328125" xlink:href="#m08286dc3b1" y="283.284149"/>
      </g>
     </g>
     <g id="text_8">
      <!-- 3400 -->
      <g transform="translate(20.878125 287.083368)scale(0.1 -0.1)">
       <defs>
        <path d="M 2034 4250 
Q 1547 4250 1301 3770 
Q 1056 3291 1056 2328 
Q 1056 1369 1301 889 
Q 1547 409 2034 409 
Q 2525 409 2770 889 
Q 3016 1369 3016 2328 
Q 3016 3291 2770 3770 
Q 2525 4250 2034 4250 
z
M 2034 4750 
Q 2819 4750 3233 4129 
Q 3647 3509 3647 2328 
Q 3647 1150 3233 529 
Q 2819 -91 2034 -91 
Q 1250 -91 836 529 
Q 422 1150 422 2328 
Q 422 3509 836 4129 
Q 1250 4750 2034 4750 
z
" id="DejaVuSans-30" transform="scale(0.015625)"/>
       </defs>
       <use xlink:href="#DejaVuSans-33"/>
       <use x="63.623047" xlink:href="#DejaVuSans-34"/>
       <use x="127.246094" xlink:href="#DejaVuSans-30"/>
       <use x="190.869141" xlink:href="#DejaVuSans-30"/>
      </g>
     </g>
    </g>
    <g id="ytick_2">
     <g id="line2d_25">
      <g>
       <use style="stroke:#000000;stroke-width:0.8;" x="53.328125" xlink:href="#m08286dc3b1" y="253.709577"/>
      </g>
     </g>
     <g id="text_9">
      <!-- 3600 -->
      <g transform="translate(20.878125 257.508796)scale(0.1 -0.1)">
       <use xlink:href="#DejaVuSans-33"/>
       <use x="63.623047" xlink:href="#DejaVuSans-36"/>
       <use x="127.246094" xlink:href="#DejaVuSans-30"/>
       <use x="190.869141" xlink:href="#DejaVuSans-30"/>
      </g>
     </g>
    </g>
    <g id="ytick_3">
     <g id="line2d_26">
      <g>
       <use style="stroke:#000000;stroke-width:0.8;" x="53.328125" xlink:href="#m08286dc3b1" y="224.135005"/>
      </g>
     </g>
     <g id="text_10">
      <!-- 3800 -->
      <g transform="translate(20.878125 227.934224)scale(0.1 -0.1)">
       <use xlink:href="#DejaVuSans-33"/>
       <use x="63.623047" xlink:href="#DejaVuSans-38"/>
       <use x="127.246094" xlink:href="#DejaVuSans-30"/>
       <use x="190.869141" xlink:href="#DejaVuSans-30"/>
      </g>
     </g>
    </g>
    <g id="ytick_4">
     <g id="line2d_27">
      <g>
       <use style="stroke:#000000;stroke-width:0.8;" x="53.328125" xlink:href="#m08286dc3b1" y="194.560433"/>
      </g>
     </g>
     <g id="text_11">
      <!-- 4000 -->
      <g transform="translate(20.878125 198.359652)scale(0.1 -0.1)">
       <use xlink:href="#DejaVuSans-34"/>
       <use x="63.623047" xlink:href="#DejaVuSans-30"/>
       <use x="127.246094" xlink:href="#DejaVuSans-30"/>
       <use x="190.869141" xlink:href="#DejaVuSans-30"/>
      </g>
     </g>
    </g>
    <g id="ytick_5">
     <g id="line2d_28">
      <g>
       <use style="stroke:#000000;stroke-width:0.8;" x="53.328125" xlink:href="#m08286dc3b1" y="164.985861"/>
      </g>
     </g>
     <g id="text_12">
      <!-- 4200 -->
      <g transform="translate(20.878125 168.78508)scale(0.1 -0.1)">
       <use xlink:href="#DejaVuSans-34"/>
       <use x="63.623047" xlink:href="#DejaVuSans-32"/>
       <use x="127.246094" xlink:href="#DejaVuSans-30"/>
       <use x="190.869141" xlink:href="#DejaVuSans-30"/>
      </g>
     </g>
    </g>
    <g id="ytick_6">
     <g id="line2d_29">
      <g>
       <use style="stroke:#000000;stroke-width:0.8;" x="53.328125" xlink:href="#m08286dc3b1" y="135.411289"/>
      </g>
     </g>
     <g id="text_13">
      <!-- 4400 -->
      <g transform="translate(20.878125 139.210508)scale(0.1 -0.1)">
       <use xlink:href="#DejaVuSans-34"/>
       <use x="63.623047" xlink:href="#DejaVuSans-34"/>
       <use x="127.246094" xlink:href="#DejaVuSans-30"/>
       <use x="190.869141" xlink:href="#DejaVuSans-30"/>
      </g>
     </g>
    </g>
    <g id="ytick_7">
     <g id="line2d_30">
      <g>
       <use style="stroke:#000000;stroke-width:0.8;" x="53.328125" xlink:href="#m08286dc3b1" y="105.836717"/>
      </g>
     </g>
     <g id="text_14">
      <!-- 4600 -->
      <g transform="translate(20.878125 109.635935)scale(0.1 -0.1)">
       <use xlink:href="#DejaVuSans-34"/>
       <use x="63.623047" xlink:href="#DejaVuSans-36"/>
       <use x="127.246094" xlink:href="#DejaVuSans-30"/>
       <use x="190.869141" xlink:href="#DejaVuSans-30"/>
      </g>
     </g>
    </g>
    <g id="ytick_8">
     <g id="line2d_31">
      <g>
       <use style="stroke:#000000;stroke-width:0.8;" x="53.328125" xlink:href="#m08286dc3b1" y="76.262145"/>
      </g>
     </g>
     <g id="text_15">
      <!-- 4800 -->
      <g transform="translate(20.878125 80.061363)scale(0.1 -0.1)">
       <use xlink:href="#DejaVuSans-34"/>
       <use x="63.623047" xlink:href="#DejaVuSans-38"/>
       <use x="127.246094" xlink:href="#DejaVuSans-30"/>
       <use x="190.869141" xlink:href="#DejaVuSans-30"/>
      </g>
     </g>
    </g>
    <g id="ytick_9">
     <g id="line2d_32">
      <g>
       <use style="stroke:#000000;stroke-width:0.8;" x="53.328125" xlink:href="#m08286dc3b1" y="46.687572"/>
      </g>
     </g>
     <g id="text_16">
      <!-- 5000 -->
      <g transform="translate(20.878125 50.486791)scale(0.1 -0.1)">
       <defs>
        <path d="M 691 4666 
L 3169 4666 
L 3169 4134 
L 1269 4134 
L 1269 2991 
Q 1406 3038 1543 3061 
Q 1681 3084 1819 3084 
Q 2600 3084 3056 2656 
Q 3513 2228 3513 1497 
Q 3513 744 3044 326 
Q 2575 -91 1722 -91 
Q 1428 -91 1123 -41 
Q 819 9 494 109 
L 494 744 
Q 775 591 1075 516 
Q 1375 441 1709 441 
Q 2250 441 2565 725 
Q 2881 1009 2881 1497 
Q 2881 1984 2565 2268 
Q 2250 2553 1709 2553 
Q 1456 2553 1204 2497 
Q 953 2441 691 2322 
L 691 4666 
z
" id="DejaVuSans-35" transform="scale(0.015625)"/>
       </defs>
       <use xlink:href="#DejaVuSans-35"/>
       <use x="63.623047" xlink:href="#DejaVuSans-30"/>
       <use x="127.246094" xlink:href="#DejaVuSans-30"/>
       <use x="190.869141" xlink:href="#DejaVuSans-30"/>
      </g>
     </g>
    </g>
    <g id="text_17">
     <!-- Code region coverage -->
     <g transform="translate(14.798438 210.379594)rotate(-90)scale(0.1 -0.1)">
      <defs>
       <path d="M 4122 4306 
L 4122 3641 
Q 3803 3938 3442 4084 
Q 3081 4231 2675 4231 
Q 1875 4231 1450 3742 
Q 1025 3253 1025 2328 
Q 1025 1406 1450 917 
Q 1875 428 2675 428 
Q 3081 428 3442 575 
Q 3803 722 4122 1019 
L 4122 359 
Q 3791 134 3420 21 
Q 3050 -91 2638 -91 
Q 1578 -91 968 557 
Q 359 1206 359 2328 
Q 359 3453 968 4101 
Q 1578 4750 2638 4750 
Q 3056 4750 3426 4639 
Q 3797 4528 4122 4306 
z
" id="DejaVuSans-43" transform="scale(0.015625)"/>
       <path d="M 2906 2969 
L 2906 4863 
L 3481 4863 
L 3481 0 
L 2906 0 
L 2906 525 
Q 2725 213 2448 61 
Q 2172 -91 1784 -91 
Q 1150 -91 751 415 
Q 353 922 353 1747 
Q 353 2572 751 3078 
Q 1150 3584 1784 3584 
Q 2172 3584 2448 3432 
Q 2725 3281 2906 2969 
z
M 947 1747 
Q 947 1113 1208 752 
Q 1469 391 1925 391 
Q 2381 391 2643 752 
Q 2906 1113 2906 1747 
Q 2906 2381 2643 2742 
Q 2381 3103 1925 3103 
Q 1469 3103 1208 2742 
Q 947 2381 947 1747 
z
" id="DejaVuSans-64" transform="scale(0.015625)"/>
       <path d="M 2906 1791 
Q 2906 2416 2648 2759 
Q 2391 3103 1925 3103 
Q 1463 3103 1205 2759 
Q 947 2416 947 1791 
Q 947 1169 1205 825 
Q 1463 481 1925 481 
Q 2391 481 2648 825 
Q 2906 1169 2906 1791 
z
M 3481 434 
Q 3481 -459 3084 -895 
Q 2688 -1331 1869 -1331 
Q 1566 -1331 1297 -1286 
Q 1028 -1241 775 -1147 
L 775 -588 
Q 1028 -725 1275 -790 
Q 1522 -856 1778 -856 
Q 2344 -856 2625 -561 
Q 2906 -266 2906 331 
L 2906 616 
Q 2728 306 2450 153 
Q 2172 0 1784 0 
Q 1141 0 747 490 
Q 353 981 353 1791 
Q 353 2603 747 3093 
Q 1141 3584 1784 3584 
Q 2172 3584 2450 3431 
Q 2728 3278 2906 2969 
L 2906 3500 
L 3481 3500 
L 3481 434 
z
" id="DejaVuSans-67" transform="scale(0.015625)"/>
       <path d="M 3122 3366 
L 3122 2828 
Q 2878 2963 2633 3030 
Q 2388 3097 2138 3097 
Q 1578 3097 1268 2742 
Q 959 2388 959 1747 
Q 959 1106 1268 751 
Q 1578 397 2138 397 
Q 2388 397 2633 464 
Q 2878 531 3122 666 
L 3122 134 
Q 2881 22 2623 -34 
Q 2366 -91 2075 -91 
Q 1284 -91 818 406 
Q 353 903 353 1747 
Q 353 2603 823 3093 
Q 1294 3584 2113 3584 
Q 2378 3584 2631 3529 
Q 2884 3475 3122 3366 
z
" id="DejaVuSans-63" transform="scale(0.015625)"/>
       <path d="M 191 3500 
L 800 3500 
L 1894 563 
L 2988 3500 
L 3597 3500 
L 2284 0 
L 1503 0 
L 191 3500 
z
" id="DejaVuSans-76" transform="scale(0.015625)"/>
       <path d="M 2194 1759 
Q 1497 1759 1228 1600 
Q 959 1441 959 1056 
Q 959 750 1161 570 
Q 1363 391 1709 391 
Q 2188 391 2477 730 
Q 2766 1069 2766 1631 
L 2766 1759 
L 2194 1759 
z
M 3341 1997 
L 3341 0 
L 2766 0 
L 2766 531 
Q 2569 213 2275 61 
Q 1981 -91 1556 -91 
Q 1019 -91 701 211 
Q 384 513 384 1019 
Q 384 1609 779 1909 
Q 1175 2209 1959 2209 
L 2766 2209 
L 2766 2266 
Q 2766 2663 2505 2880 
Q 2244 3097 1772 3097 
Q 1472 3097 1187 3025 
Q 903 2953 641 2809 
L 641 3341 
Q 956 3463 1253 3523 
Q 1550 3584 1831 3584 
Q 2591 3584 2966 3190 
Q 3341 2797 3341 1997 
z
" id="DejaVuSans-61" transform="scale(0.015625)"/>
      </defs>
      <use xlink:href="#DejaVuSans-43"/>
      <use x="69.824219" xlink:href="#DejaVuSans-6f"/>
      <use x="131.005859" xlink:href="#DejaVuSans-64"/>
      <use x="194.482422" xlink:href="#DejaVuSans-65"/>
      <use x="256.005859" xlink:href="#DejaVuSans-20"/>
      <use x="287.792969" xlink:href="#DejaVuSans-72"/>
      <use x="326.65625" xlink:href="#DejaVuSans-65"/>
      <use x="388.179688" xlink:href="#DejaVuSans-67"/>
      <use x="451.65625" xlink:href="#DejaVuSans-69"/>
      <use x="479.439453" xlink:href="#DejaVuSans-6f"/>
      <use x="540.621094" xlink:href="#DejaVuSans-6e"/>
      <use x="604" xlink:href="#DejaVuSans-20"/>
      <use x="635.787109" xlink:href="#DejaVuSans-63"/>
      <use x="690.767578" xlink:href="#DejaVuSans-6f"/>
      <use x="751.949219" xlink:href="#DejaVuSans-76"/>
      <use x="811.128906" xlink:href="#DejaVuSans-65"/>
      <use x="872.652344" xlink:href="#DejaVuSans-72"/>
      <use x="913.765625" xlink:href="#DejaVuSans-61"/>
      <use x="975.044922" xlink:href="#DejaVuSans-67"/>
      <use x="1038.521484" xlink:href="#DejaVuSans-65"/>
     </g>
    </g>
   </g>
   <g id="line2d_33">
    <path clip-path="url(#p94e1aa588c)" d="M 69.560852 262.877695 
L 119.327306 216.593489 
L 148.438816 195.151925 
L 169.09376 174.449724 
L 185.11498 165.355543 
L 198.205269 158.257646 
L 209.272952 154.339015 
L 218.860214 149.754956 
L 227.316779 149.607083 
L 234.881434 107.759064 
L 241.724496 106.945763 
L 247.971723 106.206399 
L 253.718615 106.058526 
L 259.039406 104.357988 
L 263.992943 100.735103 
L 268.626668 100.735103 
L 272.979383 100.069675 
L 277.083233 96.44679 
L 280.965141 95.633489 
L 284.647888 95.633489 
L 288.150915 95.337744 
L 291.49095 92.454223 
L 294.68249 92.454223 
L 297.738177 91.714858 
L 300.669107 91.493049 
L 303.485069 91.419113 
L 306.194742 90.531876 
L 308.805859 90.310066 
L 311.32534 90.310066 
L 313.759397 89.274956 
L 316.113635 89.274956 
L 318.393122 89.20102 
L 320.60246 89.053147 
L 322.745837 85.578135 
L 324.827079 85.578135 
L 326.849687 85.578135 
L 328.816873 85.504198 
L 330.731595 85.504198 
L 332.596578 85.504198 
L 334.414342 85.504198 
L 336.187217 85.504198 
L 337.917369 85.504198 
L 339.606807 85.504198 
L 341.257404 85.504198 
L 342.870906 85.504198 
L 344.448944 85.504198 
L 345.993042 84.543025 
L 347.504631 81.73344 
L 348.985051 44.987035 
L 350.435561 44.025861 
L 351.857347 42.621069 
L 353.251523 42.621069 
L 354.619142 42.325323 
L 355.961196 42.325323 
L 357.278624 42.325323 
L 358.572313 42.325323 
L 359.843104 42.325323 
L 361.091794 42.325323 
L 362.319136 42.325323 
L 363.525851 42.325323 
L 364.712619 40.181167 
L 365.880089 39.959357 
L 367.028878 39.959357 
L 368.159576 39.885421 
L 369.272743 39.885421 
L 370.368914 39.885421 
L 371.4486 39.885421 
L 372.512291 39.885421 
L 373.560453 39.885421 
L 374.593533 39.885421 
L 375.611959 39.885421 
L 376.616141 39.885421 
L 377.606471 39.811484 
L 378.583327 39.811484 
L 379.547071 39.811484 
L 380.498049 39.811484 
L 381.436596 39.811484 
L 382.363032 39.811484 
L 383.277666 39.811484 
L 384.180795 39.811484 
L 385.072705 38.554565 
L 385.953671 38.554565 
L 386.823958 38.554565 
L 387.683823 38.554565 
L 388.533511 38.554565 
L 389.373261 38.554565 
L 390.203303 38.554565 
L 391.023858 38.554565 
L 391.835142 38.554565 
L 392.63736 38.554565 
L 393.430714 38.332756 
L 394.215398 38.332756 
" style="fill:none;stroke:#98df8a;stroke-linecap:square;stroke-width:1.5;"/>
    <defs>
     <path d="M -0 3 
L 3 -3 
L -3 -3 
z
" id="m76e799f072" style="stroke:#ffffff;stroke-linejoin:miter;stroke-width:0.75;"/>
    </defs>
    <g clip-path="url(#p94e1aa588c)">
     <use style="fill:#98df8a;stroke:#ffffff;stroke-linejoin:miter;stroke-width:0.75;" x="69.560852" xlink:href="#m76e799f072" y="262.877695"/>
     <use style="fill:#98df8a;stroke:#ffffff;stroke-linejoin:miter;stroke-width:0.75;" x="119.327306" xlink:href="#m76e799f072" y="216.593489"/>
     <use style="fill:#98df8a;stroke:#ffffff;stroke-linejoin:miter;stroke-width:0.75;" x="148.438816" xlink:href="#m76e799f072" y="195.151925"/>
     <use style="fill:#98df8a;stroke:#ffffff;stroke-linejoin:miter;stroke-width:0.75;" x="169.09376" xlink:href="#m76e799f072" y="174.449724"/>
     <use style="fill:#98df8a;stroke:#ffffff;stroke-linejoin:miter;stroke-width:0.75;" x="185.11498" xlink:href="#m76e799f072" y="165.355543"/>
     <use style="fill:#98df8a;stroke:#ffffff;stroke-linejoin:miter;stroke-width:0.75;" x="198.205269" xlink:href="#m76e799f072" y="158.257646"/>
     <use style="fill:#98df8a;stroke:#ffffff;stroke-linejoin:miter;stroke-width:0.75;" x="209.272952" xlink:href="#m76e799f072" y="154.339015"/>
     <use style="fill:#98df8a;stroke:#ffffff;stroke-linejoin:miter;stroke-width:0.75;" x="218.860214" xlink:href="#m76e799f072" y="149.754956"/>
     <use style="fill:#98df8a;stroke:#ffffff;stroke-linejoin:miter;stroke-width:0.75;" x="227.316779" xlink:href="#m76e799f072" y="149.607083"/>
     <use style="fill:#98df8a;stroke:#ffffff;stroke-linejoin:miter;stroke-width:0.75;" x="234.881434" xlink:href="#m76e799f072" y="107.759064"/>
     <use style="fill:#98df8a;stroke:#ffffff;stroke-linejoin:miter;stroke-width:0.75;" x="241.724496" xlink:href="#m76e799f072" y="106.945763"/>
     <use style="fill:#98df8a;stroke:#ffffff;stroke-linejoin:miter;stroke-width:0.75;" x="247.971723" xlink:href="#m76e799f072" y="106.206399"/>
     <use style="fill:#98df8a;stroke:#ffffff;stroke-linejoin:miter;stroke-width:0.75;" x="253.718615" xlink:href="#m76e799f072" y="106.058526"/>
     <use style="fill:#98df8a;stroke:#ffffff;stroke-linejoin:miter;stroke-width:0.75;" x="259.039406" xlink:href="#m76e799f072" y="104.357988"/>
     <use style="fill:#98df8a;stroke:#ffffff;stroke-linejoin:miter;stroke-width:0.75;" x="263.992943" xlink:href="#m76e799f072" y="100.735103"/>
     <use style="fill:#98df8a;stroke:#ffffff;stroke-linejoin:miter;stroke-width:0.75;" x="268.626668" xlink:href="#m76e799f072" y="100.735103"/>
     <use style="fill:#98df8a;stroke:#ffffff;stroke-linejoin:miter;stroke-width:0.75;" x="272.979383" xlink:href="#m76e799f072" y="100.069675"/>
     <use style="fill:#98df8a;stroke:#ffffff;stroke-linejoin:miter;stroke-width:0.75;" x="277.083233" xlink:href="#m76e799f072" y="96.44679"/>
     <use style="fill:#98df8a;stroke:#ffffff;stroke-linejoin:miter;stroke-width:0.75;" x="280.965141" xlink:href="#m76e799f072" y="95.633489"/>
     <use style="fill:#98df8a;stroke:#ffffff;stroke-linejoin:miter;stroke-width:0.75;" x="284.647888" xlink:href="#m76e799f072" y="95.633489"/>
     <use style="fill:#98df8a;stroke:#ffffff;stroke-linejoin:miter;stroke-width:0.75;" x="288.150915" xlink:href="#m76e799f072" y="95.337744"/>
     <use style="fill:#98df8a;stroke:#ffffff;stroke-linejoin:miter;stroke-width:0.75;" x="291.49095" xlink:href="#m76e799f072" y="92.454223"/>
     <use style="fill:#98df8a;stroke:#ffffff;stroke-linejoin:miter;stroke-width:0.75;" x="294.68249" xlink:href="#m76e799f072" y="92.454223"/>
     <use style="fill:#98df8a;stroke:#ffffff;stroke-linejoin:miter;stroke-width:0.75;" x="297.738177" xlink:href="#m76e799f072" y="91.714858"/>
     <use style="fill:#98df8a;stroke:#ffffff;stroke-linejoin:miter;stroke-width:0.75;" x="300.669107" xlink:href="#m76e799f072" y="91.493049"/>
     <use style="fill:#98df8a;stroke:#ffffff;stroke-linejoin:miter;stroke-width:0.75;" x="303.485069" xlink:href="#m76e799f072" y="91.419113"/>
     <use style="fill:#98df8a;stroke:#ffffff;stroke-linejoin:miter;stroke-width:0.75;" x="306.194742" xlink:href="#m76e799f072" y="90.531876"/>
     <use style="fill:#98df8a;stroke:#ffffff;stroke-linejoin:miter;stroke-width:0.75;" x="308.805859" xlink:href="#m76e799f072" y="90.310066"/>
     <use style="fill:#98df8a;stroke:#ffffff;stroke-linejoin:miter;stroke-width:0.75;" x="311.32534" xlink:href="#m76e799f072" y="90.310066"/>
     <use style="fill:#98df8a;stroke:#ffffff;stroke-linejoin:miter;stroke-width:0.75;" x="313.759397" xlink:href="#m76e799f072" y="89.274956"/>
     <use style="fill:#98df8a;stroke:#ffffff;stroke-linejoin:miter;stroke-width:0.75;" x="316.113635" xlink:href="#m76e799f072" y="89.274956"/>
     <use style="fill:#98df8a;stroke:#ffffff;stroke-linejoin:miter;stroke-width:0.75;" x="318.393122" xlink:href="#m76e799f072" y="89.20102"/>
     <use style="fill:#98df8a;stroke:#ffffff;stroke-linejoin:miter;stroke-width:0.75;" x="320.60246" xlink:href="#m76e799f072" y="89.053147"/>
     <use style="fill:#98df8a;stroke:#ffffff;stroke-linejoin:miter;stroke-width:0.75;" x="322.745837" xlink:href="#m76e799f072" y="85.578135"/>
     <use style="fill:#98df8a;stroke:#ffffff;stroke-linejoin:miter;stroke-width:0.75;" x="324.827079" xlink:href="#m76e799f072" y="85.578135"/>
     <use style="fill:#98df8a;stroke:#ffffff;stroke-linejoin:miter;stroke-width:0.75;" x="326.849687" xlink:href="#m76e799f072" y="85.578135"/>
     <use style="fill:#98df8a;stroke:#ffffff;stroke-linejoin:miter;stroke-width:0.75;" x="328.816873" xlink:href="#m76e799f072" y="85.504198"/>
     <use style="fill:#98df8a;stroke:#ffffff;stroke-linejoin:miter;stroke-width:0.75;" x="330.731595" xlink:href="#m76e799f072" y="85.504198"/>
     <use style="fill:#98df8a;stroke:#ffffff;stroke-linejoin:miter;stroke-width:0.75;" x="332.596578" xlink:href="#m76e799f072" y="85.504198"/>
     <use style="fill:#98df8a;stroke:#ffffff;stroke-linejoin:miter;stroke-width:0.75;" x="334.414342" xlink:href="#m76e799f072" y="85.504198"/>
     <use style="fill:#98df8a;stroke:#ffffff;stroke-linejoin:miter;stroke-width:0.75;" x="336.187217" xlink:href="#m76e799f072" y="85.504198"/>
     <use style="fill:#98df8a;stroke:#ffffff;stroke-linejoin:miter;stroke-width:0.75;" x="337.917369" xlink:href="#m76e799f072" y="85.504198"/>
     <use style="fill:#98df8a;stroke:#ffffff;stroke-linejoin:miter;stroke-width:0.75;" x="339.606807" xlink:href="#m76e799f072" y="85.504198"/>
     <use style="fill:#98df8a;stroke:#ffffff;stroke-linejoin:miter;stroke-width:0.75;" x="341.257404" xlink:href="#m76e799f072" y="85.504198"/>
     <use style="fill:#98df8a;stroke:#ffffff;stroke-linejoin:miter;stroke-width:0.75;" x="342.870906" xlink:href="#m76e799f072" y="85.504198"/>
     <use style="fill:#98df8a;stroke:#ffffff;stroke-linejoin:miter;stroke-width:0.75;" x="344.448944" xlink:href="#m76e799f072" y="85.504198"/>
     <use style="fill:#98df8a;stroke:#ffffff;stroke-linejoin:miter;stroke-width:0.75;" x="345.993042" xlink:href="#m76e799f072" y="84.543025"/>
     <use style="fill:#98df8a;stroke:#ffffff;stroke-linejoin:miter;stroke-width:0.75;" x="347.504631" xlink:href="#m76e799f072" y="81.73344"/>
     <use style="fill:#98df8a;stroke:#ffffff;stroke-linejoin:miter;stroke-width:0.75;" x="348.985051" xlink:href="#m76e799f072" y="44.987035"/>
     <use style="fill:#98df8a;stroke:#ffffff;stroke-linejoin:miter;stroke-width:0.75;" x="350.435561" xlink:href="#m76e799f072" y="44.025861"/>
     <use style="fill:#98df8a;stroke:#ffffff;stroke-linejoin:miter;stroke-width:0.75;" x="351.857347" xlink:href="#m76e799f072" y="42.621069"/>
     <use style="fill:#98df8a;stroke:#ffffff;stroke-linejoin:miter;stroke-width:0.75;" x="353.251523" xlink:href="#m76e799f072" y="42.621069"/>
     <use style="fill:#98df8a;stroke:#ffffff;stroke-linejoin:miter;stroke-width:0.75;" x="354.619142" xlink:href="#m76e799f072" y="42.325323"/>
     <use style="fill:#98df8a;stroke:#ffffff;stroke-linejoin:miter;stroke-width:0.75;" x="355.961196" xlink:href="#m76e799f072" y="42.325323"/>
     <use style="fill:#98df8a;stroke:#ffffff;stroke-linejoin:miter;stroke-width:0.75;" x="357.278624" xlink:href="#m76e799f072" y="42.325323"/>
     <use style="fill:#98df8a;stroke:#ffffff;stroke-linejoin:miter;stroke-width:0.75;" x="358.572313" xlink:href="#m76e799f072" y="42.325323"/>
     <use style="fill:#98df8a;stroke:#ffffff;stroke-linejoin:miter;stroke-width:0.75;" x="359.843104" xlink:href="#m76e799f072" y="42.325323"/>
     <use style="fill:#98df8a;stroke:#ffffff;stroke-linejoin:miter;stroke-width:0.75;" x="361.091794" xlink:href="#m76e799f072" y="42.325323"/>
     <use style="fill:#98df8a;stroke:#ffffff;stroke-linejoin:miter;stroke-width:0.75;" x="362.319136" xlink:href="#m76e799f072" y="42.325323"/>
     <use style="fill:#98df8a;stroke:#ffffff;stroke-linejoin:miter;stroke-width:0.75;" x="363.525851" xlink:href="#m76e799f072" y="42.325323"/>
     <use style="fill:#98df8a;stroke:#ffffff;stroke-linejoin:miter;stroke-width:0.75;" x="364.712619" xlink:href="#m76e799f072" y="40.181167"/>
     <use style="fill:#98df8a;stroke:#ffffff;stroke-linejoin:miter;stroke-width:0.75;" x="365.880089" xlink:href="#m76e799f072" y="39.959357"/>
     <use style="fill:#98df8a;stroke:#ffffff;stroke-linejoin:miter;stroke-width:0.75;" x="367.028878" xlink:href="#m76e799f072" y="39.959357"/>
     <use style="fill:#98df8a;stroke:#ffffff;stroke-linejoin:miter;stroke-width:0.75;" x="368.159576" xlink:href="#m76e799f072" y="39.885421"/>
     <use style="fill:#98df8a;stroke:#ffffff;stroke-linejoin:miter;stroke-width:0.75;" x="369.272743" xlink:href="#m76e799f072" y="39.885421"/>
     <use style="fill:#98df8a;stroke:#ffffff;stroke-linejoin:miter;stroke-width:0.75;" x="370.368914" xlink:href="#m76e799f072" y="39.885421"/>
     <use style="fill:#98df8a;stroke:#ffffff;stroke-linejoin:miter;stroke-width:0.75;" x="371.4486" xlink:href="#m76e799f072" y="39.885421"/>
     <use style="fill:#98df8a;stroke:#ffffff;stroke-linejoin:miter;stroke-width:0.75;" x="372.512291" xlink:href="#m76e799f072" y="39.885421"/>
     <use style="fill:#98df8a;stroke:#ffffff;stroke-linejoin:miter;stroke-width:0.75;" x="373.560453" xlink:href="#m76e799f072" y="39.885421"/>
     <use style="fill:#98df8a;stroke:#ffffff;stroke-linejoin:miter;stroke-width:0.75;" x="374.593533" xlink:href="#m76e799f072" y="39.885421"/>
     <use style="fill:#98df8a;stroke:#ffffff;stroke-linejoin:miter;stroke-width:0.75;" x="375.611959" xlink:href="#m76e799f072" y="39.885421"/>
     <use style="fill:#98df8a;stroke:#ffffff;stroke-linejoin:miter;stroke-width:0.75;" x="376.616141" xlink:href="#m76e799f072" y="39.885421"/>
     <use style="fill:#98df8a;stroke:#ffffff;stroke-linejoin:miter;stroke-width:0.75;" x="377.606471" xlink:href="#m76e799f072" y="39.811484"/>
     <use style="fill:#98df8a;stroke:#ffffff;stroke-linejoin:miter;stroke-width:0.75;" x="378.583327" xlink:href="#m76e799f072" y="39.811484"/>
     <use style="fill:#98df8a;stroke:#ffffff;stroke-linejoin:miter;stroke-width:0.75;" x="379.547071" xlink:href="#m76e799f072" y="39.811484"/>
     <use style="fill:#98df8a;stroke:#ffffff;stroke-linejoin:miter;stroke-width:0.75;" x="380.498049" xlink:href="#m76e799f072" y="39.811484"/>
     <use style="fill:#98df8a;stroke:#ffffff;stroke-linejoin:miter;stroke-width:0.75;" x="381.436596" xlink:href="#m76e799f072" y="39.811484"/>
     <use style="fill:#98df8a;stroke:#ffffff;stroke-linejoin:miter;stroke-width:0.75;" x="382.363032" xlink:href="#m76e799f072" y="39.811484"/>
     <use style="fill:#98df8a;stroke:#ffffff;stroke-linejoin:miter;stroke-width:0.75;" x="383.277666" xlink:href="#m76e799f072" y="39.811484"/>
     <use style="fill:#98df8a;stroke:#ffffff;stroke-linejoin:miter;stroke-width:0.75;" x="384.180795" xlink:href="#m76e799f072" y="39.811484"/>
     <use style="fill:#98df8a;stroke:#ffffff;stroke-linejoin:miter;stroke-width:0.75;" x="385.072705" xlink:href="#m76e799f072" y="38.554565"/>
     <use style="fill:#98df8a;stroke:#ffffff;stroke-linejoin:miter;stroke-width:0.75;" x="385.953671" xlink:href="#m76e799f072" y="38.554565"/>
     <use style="fill:#98df8a;stroke:#ffffff;stroke-linejoin:miter;stroke-width:0.75;" x="386.823958" xlink:href="#m76e799f072" y="38.554565"/>
     <use style="fill:#98df8a;stroke:#ffffff;stroke-linejoin:miter;stroke-width:0.75;" x="387.683823" xlink:href="#m76e799f072" y="38.554565"/>
     <use style="fill:#98df8a;stroke:#ffffff;stroke-linejoin:miter;stroke-width:0.75;" x="388.533511" xlink:href="#m76e799f072" y="38.554565"/>
     <use style="fill:#98df8a;stroke:#ffffff;stroke-linejoin:miter;stroke-width:0.75;" x="389.373261" xlink:href="#m76e799f072" y="38.554565"/>
     <use style="fill:#98df8a;stroke:#ffffff;stroke-linejoin:miter;stroke-width:0.75;" x="390.203303" xlink:href="#m76e799f072" y="38.554565"/>
     <use style="fill:#98df8a;stroke:#ffffff;stroke-linejoin:miter;stroke-width:0.75;" x="391.023858" xlink:href="#m76e799f072" y="38.554565"/>
     <use style="fill:#98df8a;stroke:#ffffff;stroke-linejoin:miter;stroke-width:0.75;" x="391.835142" xlink:href="#m76e799f072" y="38.554565"/>
     <use style="fill:#98df8a;stroke:#ffffff;stroke-linejoin:miter;stroke-width:0.75;" x="392.63736" xlink:href="#m76e799f072" y="38.554565"/>
     <use style="fill:#98df8a;stroke:#ffffff;stroke-linejoin:miter;stroke-width:0.75;" x="393.430714" xlink:href="#m76e799f072" y="38.332756"/>
     <use style="fill:#98df8a;stroke:#ffffff;stroke-linejoin:miter;stroke-width:0.75;" x="394.215398" xlink:href="#m76e799f072" y="38.332756"/>
    </g>
   </g>
   <g id="line2d_34">
    <path clip-path="url(#p94e1aa588c)" d="M 69.560852 226.131289 
L 119.327306 211.344003 
L 148.438816 159.070947 
L 169.09376 155.595934 
L 185.11498 154.339015 
L 198.205269 153.525714 
L 209.272952 153.377841 
L 218.860214 139.034174 
L 227.316779 121.067621 
L 234.881434 119.662829 
L 241.724496 115.004834 
L 247.971723 114.04366 
L 253.718615 114.04366 
L 259.039406 113.747915 
L 263.992943 113.526105 
L 268.626668 113.156423 
L 272.979383 112.786741 
L 277.083233 111.825568 
L 280.965141 111.234076 
L 284.647888 111.16014 
L 288.150915 100.439357 
L 291.49095 98.369137 
L 294.68249 98.147328 
L 297.738177 88.461656 
L 300.669107 75.670653 
L 303.485069 75.596717 
L 306.194742 72.639259 
L 308.805859 66.354663 
L 311.32534 66.058917 
L 313.759397 64.875934 
L 316.113635 61.253049 
L 318.393122 61.253049 
L 320.60246 60.957303 
L 322.745837 59.922193 
L 324.827079 59.774321 
L 326.849687 59.774321 
L 328.816873 59.626448 
L 330.731595 56.077499 
L 332.596578 55.929626 
L 334.414342 55.929626 
L 336.187217 55.486008 
L 337.917369 55.264198 
L 339.606807 54.007279 
L 341.257404 52.972169 
L 342.870906 52.602487 
L 344.448944 52.602487 
L 345.993042 52.306741 
L 347.504631 52.158868 
L 348.985051 52.010995 
L 350.435561 51.567377 
L 351.857347 51.567377 
L 353.251523 51.419504 
L 354.619142 51.345568 
L 355.961196 51.345568 
L 357.278624 51.049822 
L 358.572313 51.049822 
L 359.843104 50.828013 
L 361.091794 50.828013 
L 362.319136 49.42322 
L 363.525851 49.349284 
L 364.712619 48.092365 
L 365.880089 48.092365 
L 367.028878 47.648746 
L 368.159576 47.648746 
L 369.272743 47.57481 
L 370.368914 47.57481 
L 371.4486 47.426937 
L 372.512291 47.426937 
L 373.560453 47.279064 
L 374.593533 47.131191 
L 375.611959 47.131191 
L 376.616141 46.613636 
L 377.606471 46.170017 
L 378.583327 46.170017 
L 379.547071 46.170017 
L 380.498049 46.170017 
L 381.436596 46.170017 
L 382.363032 46.170017 
L 383.277666 46.096081 
L 384.180795 46.096081 
L 385.072705 45.50459 
L 385.953671 45.430653 
L 386.823958 45.28278 
L 387.683823 45.28278 
L 388.533511 44.839162 
L 389.373261 44.839162 
L 390.203303 44.839162 
L 391.023858 44.839162 
L 391.835142 44.691289 
L 392.63736 44.691289 
L 393.430714 44.617352 
L 394.215398 44.617352 
" style="fill:none;stroke:#1f77b4;stroke-linecap:square;stroke-width:1.5;"/>
    <defs>
     <path d="M 0 3 
C 0.795609 3 1.55874 2.683901 2.12132 2.12132 
C 2.683901 1.55874 3 0.795609 3 0 
C 3 -0.795609 2.683901 -1.55874 2.12132 -2.12132 
C 1.55874 -2.683901 0.795609 -3 0 -3 
C -0.795609 -3 -1.55874 -2.683901 -2.12132 -2.12132 
C -2.683901 -1.55874 -3 -0.795609 -3 0 
C -3 0.795609 -2.683901 1.55874 -2.12132 2.12132 
C -1.55874 2.683901 -0.795609 3 0 3 
z
" id="m1524826246" style="stroke:#ffffff;stroke-width:0.75;"/>
    </defs>
    <g clip-path="url(#p94e1aa588c)">
     <use style="fill:#1f77b4;stroke:#ffffff;stroke-width:0.75;" x="69.560852" xlink:href="#m1524826246" y="226.131289"/>
     <use style="fill:#1f77b4;stroke:#ffffff;stroke-width:0.75;" x="119.327306" xlink:href="#m1524826246" y="211.344003"/>
     <use style="fill:#1f77b4;stroke:#ffffff;stroke-width:0.75;" x="148.438816" xlink:href="#m1524826246" y="159.070947"/>
     <use style="fill:#1f77b4;stroke:#ffffff;stroke-width:0.75;" x="169.09376" xlink:href="#m1524826246" y="155.595934"/>
     <use style="fill:#1f77b4;stroke:#ffffff;stroke-width:0.75;" x="185.11498" xlink:href="#m1524826246" y="154.339015"/>
     <use style="fill:#1f77b4;stroke:#ffffff;stroke-width:0.75;" x="198.205269" xlink:href="#m1524826246" y="153.525714"/>
     <use style="fill:#1f77b4;stroke:#ffffff;stroke-width:0.75;" x="209.272952" xlink:href="#m1524826246" y="153.377841"/>
     <use style="fill:#1f77b4;stroke:#ffffff;stroke-width:0.75;" x="218.860214" xlink:href="#m1524826246" y="139.034174"/>
     <use style="fill:#1f77b4;stroke:#ffffff;stroke-width:0.75;" x="227.316779" xlink:href="#m1524826246" y="121.067621"/>
     <use style="fill:#1f77b4;stroke:#ffffff;stroke-width:0.75;" x="234.881434" xlink:href="#m1524826246" y="119.662829"/>
     <use style="fill:#1f77b4;stroke:#ffffff;stroke-width:0.75;" x="241.724496" xlink:href="#m1524826246" y="115.004834"/>
     <use style="fill:#1f77b4;stroke:#ffffff;stroke-width:0.75;" x="247.971723" xlink:href="#m1524826246" y="114.04366"/>
     <use style="fill:#1f77b4;stroke:#ffffff;stroke-width:0.75;" x="253.718615" xlink:href="#m1524826246" y="114.04366"/>
     <use style="fill:#1f77b4;stroke:#ffffff;stroke-width:0.75;" x="259.039406" xlink:href="#m1524826246" y="113.747915"/>
     <use style="fill:#1f77b4;stroke:#ffffff;stroke-width:0.75;" x="263.992943" xlink:href="#m1524826246" y="113.526105"/>
     <use style="fill:#1f77b4;stroke:#ffffff;stroke-width:0.75;" x="268.626668" xlink:href="#m1524826246" y="113.156423"/>
     <use style="fill:#1f77b4;stroke:#ffffff;stroke-width:0.75;" x="272.979383" xlink:href="#m1524826246" y="112.786741"/>
     <use style="fill:#1f77b4;stroke:#ffffff;stroke-width:0.75;" x="277.083233" xlink:href="#m1524826246" y="111.825568"/>
     <use style="fill:#1f77b4;stroke:#ffffff;stroke-width:0.75;" x="280.965141" xlink:href="#m1524826246" y="111.234076"/>
     <use style="fill:#1f77b4;stroke:#ffffff;stroke-width:0.75;" x="284.647888" xlink:href="#m1524826246" y="111.16014"/>
     <use style="fill:#1f77b4;stroke:#ffffff;stroke-width:0.75;" x="288.150915" xlink:href="#m1524826246" y="100.439357"/>
     <use style="fill:#1f77b4;stroke:#ffffff;stroke-width:0.75;" x="291.49095" xlink:href="#m1524826246" y="98.369137"/>
     <use style="fill:#1f77b4;stroke:#ffffff;stroke-width:0.75;" x="294.68249" xlink:href="#m1524826246" y="98.147328"/>
     <use style="fill:#1f77b4;stroke:#ffffff;stroke-width:0.75;" x="297.738177" xlink:href="#m1524826246" y="88.461656"/>
     <use style="fill:#1f77b4;stroke:#ffffff;stroke-width:0.75;" x="300.669107" xlink:href="#m1524826246" y="75.670653"/>
     <use style="fill:#1f77b4;stroke:#ffffff;stroke-width:0.75;" x="303.485069" xlink:href="#m1524826246" y="75.596717"/>
     <use style="fill:#1f77b4;stroke:#ffffff;stroke-width:0.75;" x="306.194742" xlink:href="#m1524826246" y="72.639259"/>
     <use style="fill:#1f77b4;stroke:#ffffff;stroke-width:0.75;" x="308.805859" xlink:href="#m1524826246" y="66.354663"/>
     <use style="fill:#1f77b4;stroke:#ffffff;stroke-width:0.75;" x="311.32534" xlink:href="#m1524826246" y="66.058917"/>
     <use style="fill:#1f77b4;stroke:#ffffff;stroke-width:0.75;" x="313.759397" xlink:href="#m1524826246" y="64.875934"/>
     <use style="fill:#1f77b4;stroke:#ffffff;stroke-width:0.75;" x="316.113635" xlink:href="#m1524826246" y="61.253049"/>
     <use style="fill:#1f77b4;stroke:#ffffff;stroke-width:0.75;" x="318.393122" xlink:href="#m1524826246" y="61.253049"/>
     <use style="fill:#1f77b4;stroke:#ffffff;stroke-width:0.75;" x="320.60246" xlink:href="#m1524826246" y="60.957303"/>
     <use style="fill:#1f77b4;stroke:#ffffff;stroke-width:0.75;" x="322.745837" xlink:href="#m1524826246" y="59.922193"/>
     <use style="fill:#1f77b4;stroke:#ffffff;stroke-width:0.75;" x="324.827079" xlink:href="#m1524826246" y="59.774321"/>
     <use style="fill:#1f77b4;stroke:#ffffff;stroke-width:0.75;" x="326.849687" xlink:href="#m1524826246" y="59.774321"/>
     <use style="fill:#1f77b4;stroke:#ffffff;stroke-width:0.75;" x="328.816873" xlink:href="#m1524826246" y="59.626448"/>
     <use style="fill:#1f77b4;stroke:#ffffff;stroke-width:0.75;" x="330.731595" xlink:href="#m1524826246" y="56.077499"/>
     <use style="fill:#1f77b4;stroke:#ffffff;stroke-width:0.75;" x="332.596578" xlink:href="#m1524826246" y="55.929626"/>
     <use style="fill:#1f77b4;stroke:#ffffff;stroke-width:0.75;" x="334.414342" xlink:href="#m1524826246" y="55.929626"/>
     <use style="fill:#1f77b4;stroke:#ffffff;stroke-width:0.75;" x="336.187217" xlink:href="#m1524826246" y="55.486008"/>
     <use style="fill:#1f77b4;stroke:#ffffff;stroke-width:0.75;" x="337.917369" xlink:href="#m1524826246" y="55.264198"/>
     <use style="fill:#1f77b4;stroke:#ffffff;stroke-width:0.75;" x="339.606807" xlink:href="#m1524826246" y="54.007279"/>
     <use style="fill:#1f77b4;stroke:#ffffff;stroke-width:0.75;" x="341.257404" xlink:href="#m1524826246" y="52.972169"/>
     <use style="fill:#1f77b4;stroke:#ffffff;stroke-width:0.75;" x="342.870906" xlink:href="#m1524826246" y="52.602487"/>
     <use style="fill:#1f77b4;stroke:#ffffff;stroke-width:0.75;" x="344.448944" xlink:href="#m1524826246" y="52.602487"/>
     <use style="fill:#1f77b4;stroke:#ffffff;stroke-width:0.75;" x="345.993042" xlink:href="#m1524826246" y="52.306741"/>
     <use style="fill:#1f77b4;stroke:#ffffff;stroke-width:0.75;" x="347.504631" xlink:href="#m1524826246" y="52.158868"/>
     <use style="fill:#1f77b4;stroke:#ffffff;stroke-width:0.75;" x="348.985051" xlink:href="#m1524826246" y="52.010995"/>
     <use style="fill:#1f77b4;stroke:#ffffff;stroke-width:0.75;" x="350.435561" xlink:href="#m1524826246" y="51.567377"/>
     <use style="fill:#1f77b4;stroke:#ffffff;stroke-width:0.75;" x="351.857347" xlink:href="#m1524826246" y="51.567377"/>
     <use style="fill:#1f77b4;stroke:#ffffff;stroke-width:0.75;" x="353.251523" xlink:href="#m1524826246" y="51.419504"/>
     <use style="fill:#1f77b4;stroke:#ffffff;stroke-width:0.75;" x="354.619142" xlink:href="#m1524826246" y="51.345568"/>
     <use style="fill:#1f77b4;stroke:#ffffff;stroke-width:0.75;" x="355.961196" xlink:href="#m1524826246" y="51.345568"/>
     <use style="fill:#1f77b4;stroke:#ffffff;stroke-width:0.75;" x="357.278624" xlink:href="#m1524826246" y="51.049822"/>
     <use style="fill:#1f77b4;stroke:#ffffff;stroke-width:0.75;" x="358.572313" xlink:href="#m1524826246" y="51.049822"/>
     <use style="fill:#1f77b4;stroke:#ffffff;stroke-width:0.75;" x="359.843104" xlink:href="#m1524826246" y="50.828013"/>
     <use style="fill:#1f77b4;stroke:#ffffff;stroke-width:0.75;" x="361.091794" xlink:href="#m1524826246" y="50.828013"/>
     <use style="fill:#1f77b4;stroke:#ffffff;stroke-width:0.75;" x="362.319136" xlink:href="#m1524826246" y="49.42322"/>
     <use style="fill:#1f77b4;stroke:#ffffff;stroke-width:0.75;" x="363.525851" xlink:href="#m1524826246" y="49.349284"/>
     <use style="fill:#1f77b4;stroke:#ffffff;stroke-width:0.75;" x="364.712619" xlink:href="#m1524826246" y="48.092365"/>
     <use style="fill:#1f77b4;stroke:#ffffff;stroke-width:0.75;" x="365.880089" xlink:href="#m1524826246" y="48.092365"/>
     <use style="fill:#1f77b4;stroke:#ffffff;stroke-width:0.75;" x="367.028878" xlink:href="#m1524826246" y="47.648746"/>
     <use style="fill:#1f77b4;stroke:#ffffff;stroke-width:0.75;" x="368.159576" xlink:href="#m1524826246" y="47.648746"/>
     <use style="fill:#1f77b4;stroke:#ffffff;stroke-width:0.75;" x="369.272743" xlink:href="#m1524826246" y="47.57481"/>
     <use style="fill:#1f77b4;stroke:#ffffff;stroke-width:0.75;" x="370.368914" xlink:href="#m1524826246" y="47.57481"/>
     <use style="fill:#1f77b4;stroke:#ffffff;stroke-width:0.75;" x="371.4486" xlink:href="#m1524826246" y="47.426937"/>
     <use style="fill:#1f77b4;stroke:#ffffff;stroke-width:0.75;" x="372.512291" xlink:href="#m1524826246" y="47.426937"/>
     <use style="fill:#1f77b4;stroke:#ffffff;stroke-width:0.75;" x="373.560453" xlink:href="#m1524826246" y="47.279064"/>
     <use style="fill:#1f77b4;stroke:#ffffff;stroke-width:0.75;" x="374.593533" xlink:href="#m1524826246" y="47.131191"/>
     <use style="fill:#1f77b4;stroke:#ffffff;stroke-width:0.75;" x="375.611959" xlink:href="#m1524826246" y="47.131191"/>
     <use style="fill:#1f77b4;stroke:#ffffff;stroke-width:0.75;" x="376.616141" xlink:href="#m1524826246" y="46.613636"/>
     <use style="fill:#1f77b4;stroke:#ffffff;stroke-width:0.75;" x="377.606471" xlink:href="#m1524826246" y="46.170017"/>
     <use style="fill:#1f77b4;stroke:#ffffff;stroke-width:0.75;" x="378.583327" xlink:href="#m1524826246" y="46.170017"/>
     <use style="fill:#1f77b4;stroke:#ffffff;stroke-width:0.75;" x="379.547071" xlink:href="#m1524826246" y="46.170017"/>
     <use style="fill:#1f77b4;stroke:#ffffff;stroke-width:0.75;" x="380.498049" xlink:href="#m1524826246" y="46.170017"/>
     <use style="fill:#1f77b4;stroke:#ffffff;stroke-width:0.75;" x="381.436596" xlink:href="#m1524826246" y="46.170017"/>
     <use style="fill:#1f77b4;stroke:#ffffff;stroke-width:0.75;" x="382.363032" xlink:href="#m1524826246" y="46.170017"/>
     <use style="fill:#1f77b4;stroke:#ffffff;stroke-width:0.75;" x="383.277666" xlink:href="#m1524826246" y="46.096081"/>
     <use style="fill:#1f77b4;stroke:#ffffff;stroke-width:0.75;" x="384.180795" xlink:href="#m1524826246" y="46.096081"/>
     <use style="fill:#1f77b4;stroke:#ffffff;stroke-width:0.75;" x="385.072705" xlink:href="#m1524826246" y="45.50459"/>
     <use style="fill:#1f77b4;stroke:#ffffff;stroke-width:0.75;" x="385.953671" xlink:href="#m1524826246" y="45.430653"/>
     <use style="fill:#1f77b4;stroke:#ffffff;stroke-width:0.75;" x="386.823958" xlink:href="#m1524826246" y="45.28278"/>
     <use style="fill:#1f77b4;stroke:#ffffff;stroke-width:0.75;" x="387.683823" xlink:href="#m1524826246" y="45.28278"/>
     <use style="fill:#1f77b4;stroke:#ffffff;stroke-width:0.75;" x="388.533511" xlink:href="#m1524826246" y="44.839162"/>
     <use style="fill:#1f77b4;stroke:#ffffff;stroke-width:0.75;" x="389.373261" xlink:href="#m1524826246" y="44.839162"/>
     <use style="fill:#1f77b4;stroke:#ffffff;stroke-width:0.75;" x="390.203303" xlink:href="#m1524826246" y="44.839162"/>
     <use style="fill:#1f77b4;stroke:#ffffff;stroke-width:0.75;" x="391.023858" xlink:href="#m1524826246" y="44.839162"/>
     <use style="fill:#1f77b4;stroke:#ffffff;stroke-width:0.75;" x="391.835142" xlink:href="#m1524826246" y="44.691289"/>
     <use style="fill:#1f77b4;stroke:#ffffff;stroke-width:0.75;" x="392.63736" xlink:href="#m1524826246" y="44.691289"/>
     <use style="fill:#1f77b4;stroke:#ffffff;stroke-width:0.75;" x="393.430714" xlink:href="#m1524826246" y="44.617352"/>
     <use style="fill:#1f77b4;stroke:#ffffff;stroke-width:0.75;" x="394.215398" xlink:href="#m1524826246" y="44.617352"/>
    </g>
   </g>
   <g id="line2d_35">
    <path clip-path="url(#p94e1aa588c)" d="M 69.560852 227.388208 
L 119.327306 199.366301 
L 148.438816 181.399748 
L 169.09376 168.313 
L 185.11498 157.740091 
L 198.205269 156.483171 
L 209.272952 154.265079 
L 218.860214 150.272511 
L 227.316779 149.385274 
L 234.881434 149.015592 
L 241.724496 148.276228 
L 247.971723 145.392707 
L 253.718615 144.50547 
L 259.039406 144.209724 
L 263.992943 143.766105 
L 268.626668 132.084149 
L 272.979383 131.86234 
L 277.083233 117.222927 
L 280.965141 110.568648 
L 284.647888 109.977157 
L 288.150915 102.879259 
L 291.49095 102.361704 
L 294.68249 100.661167 
L 297.738177 96.224981 
L 300.669107 96.151044 
L 303.485069 95.929235 
L 306.194742 95.781362 
L 308.805859 95.781362 
L 311.32534 95.781362 
L 313.759397 95.559553 
L 316.113635 95.559553 
L 318.393122 95.559553 
L 320.60246 95.559553 
L 322.745837 95.485616 
L 324.827079 95.263807 
L 326.849687 95.263807 
L 328.816873 95.263807 
L 330.731595 95.263807 
L 332.596578 94.968061 
L 334.414342 94.968061 
L 336.187217 94.968061 
L 337.917369 91.493049 
L 339.606807 91.419113 
L 341.257404 91.27124 
L 342.870906 91.123367 
L 344.448944 73.822242 
L 345.993042 73.822242 
L 347.504631 69.238184 
L 348.985051 69.238184 
L 350.435561 68.646692 
L 351.857347 68.572756 
L 353.251523 50.754076 
L 354.619142 48.757792 
L 355.961196 48.240237 
L 357.278624 48.240237 
L 358.572313 48.018428 
L 359.843104 47.870555 
L 361.091794 46.983318 
L 362.319136 46.761509 
L 363.525851 46.761509 
L 364.712619 46.761509 
L 365.880089 46.5397 
L 367.028878 46.5397 
L 368.159576 45.430653 
L 369.272743 45.430653 
L 370.368914 45.430653 
L 371.4486 45.356717 
L 372.512291 45.356717 
L 373.560453 45.356717 
L 374.593533 45.28278 
L 375.611959 45.28278 
L 376.616141 45.28278 
L 377.606471 45.28278 
L 378.583327 45.28278 
L 379.547071 45.28278 
L 380.498049 45.28278 
L 381.436596 45.208844 
L 382.363032 45.208844 
L 383.277666 45.208844 
L 384.180795 45.208844 
L 385.072705 45.208844 
L 385.953671 45.208844 
L 386.823958 45.208844 
L 387.683823 45.208844 
L 388.533511 45.208844 
L 389.373261 45.134907 
L 390.203303 43.877988 
L 391.023858 43.804052 
L 391.835142 43.138624 
L 392.63736 43.138624 
L 393.430714 43.138624 
L 394.215398 43.138624 
" style="fill:none;stroke:#d62728;stroke-linecap:square;stroke-width:1.5;"/>
    <defs>
     <path d="M 0 -3 
L -3 3 
L 3 3 
z
" id="m387794e2bf" style="stroke:#ffffff;stroke-linejoin:miter;stroke-width:0.75;"/>
    </defs>
    <g clip-path="url(#p94e1aa588c)">
     <use style="fill:#d62728;stroke:#ffffff;stroke-linejoin:miter;stroke-width:0.75;" x="69.560852" xlink:href="#m387794e2bf" y="227.388208"/>
     <use style="fill:#d62728;stroke:#ffffff;stroke-linejoin:miter;stroke-width:0.75;" x="119.327306" xlink:href="#m387794e2bf" y="199.366301"/>
     <use style="fill:#d62728;stroke:#ffffff;stroke-linejoin:miter;stroke-width:0.75;" x="148.438816" xlink:href="#m387794e2bf" y="181.399748"/>
     <use style="fill:#d62728;stroke:#ffffff;stroke-linejoin:miter;stroke-width:0.75;" x="169.09376" xlink:href="#m387794e2bf" y="168.313"/>
     <use style="fill:#d62728;stroke:#ffffff;stroke-linejoin:miter;stroke-width:0.75;" x="185.11498" xlink:href="#m387794e2bf" y="157.740091"/>
     <use style="fill:#d62728;stroke:#ffffff;stroke-linejoin:miter;stroke-width:0.75;" x="198.205269" xlink:href="#m387794e2bf" y="156.483171"/>
     <use style="fill:#d62728;stroke:#ffffff;stroke-linejoin:miter;stroke-width:0.75;" x="209.272952" xlink:href="#m387794e2bf" y="154.265079"/>
     <use style="fill:#d62728;stroke:#ffffff;stroke-linejoin:miter;stroke-width:0.75;" x="218.860214" xlink:href="#m387794e2bf" y="150.272511"/>
     <use style="fill:#d62728;stroke:#ffffff;stroke-linejoin:miter;stroke-width:0.75;" x="227.316779" xlink:href="#m387794e2bf" y="149.385274"/>
     <use style="fill:#d62728;stroke:#ffffff;stroke-linejoin:miter;stroke-width:0.75;" x="234.881434" xlink:href="#m387794e2bf" y="149.015592"/>
     <use style="fill:#d62728;stroke:#ffffff;stroke-linejoin:miter;stroke-width:0.75;" x="241.724496" xlink:href="#m387794e2bf" y="148.276228"/>
     <use style="fill:#d62728;stroke:#ffffff;stroke-linejoin:miter;stroke-width:0.75;" x="247.971723" xlink:href="#m387794e2bf" y="145.392707"/>
     <use style="fill:#d62728;stroke:#ffffff;stroke-linejoin:miter;stroke-width:0.75;" x="253.718615" xlink:href="#m387794e2bf" y="144.50547"/>
     <use style="fill:#d62728;stroke:#ffffff;stroke-linejoin:miter;stroke-width:0.75;" x="259.039406" xlink:href="#m387794e2bf" y="144.209724"/>
     <use style="fill:#d62728;stroke:#ffffff;stroke-linejoin:miter;stroke-width:0.75;" x="263.992943" xlink:href="#m387794e2bf" y="143.766105"/>
     <use style="fill:#d62728;stroke:#ffffff;stroke-linejoin:miter;stroke-width:0.75;" x="268.626668" xlink:href="#m387794e2bf" y="132.084149"/>
     <use style="fill:#d62728;stroke:#ffffff;stroke-linejoin:miter;stroke-width:0.75;" x="272.979383" xlink:href="#m387794e2bf" y="131.86234"/>
     <use style="fill:#d62728;stroke:#ffffff;stroke-linejoin:miter;stroke-width:0.75;" x="277.083233" xlink:href="#m387794e2bf" y="117.222927"/>
     <use style="fill:#d62728;stroke:#ffffff;stroke-linejoin:miter;stroke-width:0.75;" x="280.965141" xlink:href="#m387794e2bf" y="110.568648"/>
     <use style="fill:#d62728;stroke:#ffffff;stroke-linejoin:miter;stroke-width:0.75;" x="284.647888" xlink:href="#m387794e2bf" y="109.977157"/>
     <use style="fill:#d62728;stroke:#ffffff;stroke-linejoin:miter;stroke-width:0.75;" x="288.150915" xlink:href="#m387794e2bf" y="102.879259"/>
     <use style="fill:#d62728;stroke:#ffffff;stroke-linejoin:miter;stroke-width:0.75;" x="291.49095" xlink:href="#m387794e2bf" y="102.361704"/>
     <use style="fill:#d62728;stroke:#ffffff;stroke-linejoin:miter;stroke-width:0.75;" x="294.68249" xlink:href="#m387794e2bf" y="100.661167"/>
     <use style="fill:#d62728;stroke:#ffffff;stroke-linejoin:miter;stroke-width:0.75;" x="297.738177" xlink:href="#m387794e2bf" y="96.224981"/>
     <use style="fill:#d62728;stroke:#ffffff;stroke-linejoin:miter;stroke-width:0.75;" x="300.669107" xlink:href="#m387794e2bf" y="96.151044"/>
     <use style="fill:#d62728;stroke:#ffffff;stroke-linejoin:miter;stroke-width:0.75;" x="303.485069" xlink:href="#m387794e2bf" y="95.929235"/>
     <use style="fill:#d62728;stroke:#ffffff;stroke-linejoin:miter;stroke-width:0.75;" x="306.194742" xlink:href="#m387794e2bf" y="95.781362"/>
     <use style="fill:#d62728;stroke:#ffffff;stroke-linejoin:miter;stroke-width:0.75;" x="308.805859" xlink:href="#m387794e2bf" y="95.781362"/>
     <use style="fill:#d62728;stroke:#ffffff;stroke-linejoin:miter;stroke-width:0.75;" x="311.32534" xlink:href="#m387794e2bf" y="95.781362"/>
     <use style="fill:#d62728;stroke:#ffffff;stroke-linejoin:miter;stroke-width:0.75;" x="313.759397" xlink:href="#m387794e2bf" y="95.559553"/>
     <use style="fill:#d62728;stroke:#ffffff;stroke-linejoin:miter;stroke-width:0.75;" x="316.113635" xlink:href="#m387794e2bf" y="95.559553"/>
     <use style="fill:#d62728;stroke:#ffffff;stroke-linejoin:miter;stroke-width:0.75;" x="318.393122" xlink:href="#m387794e2bf" y="95.559553"/>
     <use style="fill:#d62728;stroke:#ffffff;stroke-linejoin:miter;stroke-width:0.75;" x="320.60246" xlink:href="#m387794e2bf" y="95.559553"/>
     <use style="fill:#d62728;stroke:#ffffff;stroke-linejoin:miter;stroke-width:0.75;" x="322.745837" xlink:href="#m387794e2bf" y="95.485616"/>
     <use style="fill:#d62728;stroke:#ffffff;stroke-linejoin:miter;stroke-width:0.75;" x="324.827079" xlink:href="#m387794e2bf" y="95.263807"/>
     <use style="fill:#d62728;stroke:#ffffff;stroke-linejoin:miter;stroke-width:0.75;" x="326.849687" xlink:href="#m387794e2bf" y="95.263807"/>
     <use style="fill:#d62728;stroke:#ffffff;stroke-linejoin:miter;stroke-width:0.75;" x="328.816873" xlink:href="#m387794e2bf" y="95.263807"/>
     <use style="fill:#d62728;stroke:#ffffff;stroke-linejoin:miter;stroke-width:0.75;" x="330.731595" xlink:href="#m387794e2bf" y="95.263807"/>
     <use style="fill:#d62728;stroke:#ffffff;stroke-linejoin:miter;stroke-width:0.75;" x="332.596578" xlink:href="#m387794e2bf" y="94.968061"/>
     <use style="fill:#d62728;stroke:#ffffff;stroke-linejoin:miter;stroke-width:0.75;" x="334.414342" xlink:href="#m387794e2bf" y="94.968061"/>
     <use style="fill:#d62728;stroke:#ffffff;stroke-linejoin:miter;stroke-width:0.75;" x="336.187217" xlink:href="#m387794e2bf" y="94.968061"/>
     <use style="fill:#d62728;stroke:#ffffff;stroke-linejoin:miter;stroke-width:0.75;" x="337.917369" xlink:href="#m387794e2bf" y="91.493049"/>
     <use style="fill:#d62728;stroke:#ffffff;stroke-linejoin:miter;stroke-width:0.75;" x="339.606807" xlink:href="#m387794e2bf" y="91.419113"/>
     <use style="fill:#d62728;stroke:#ffffff;stroke-linejoin:miter;stroke-width:0.75;" x="341.257404" xlink:href="#m387794e2bf" y="91.27124"/>
     <use style="fill:#d62728;stroke:#ffffff;stroke-linejoin:miter;stroke-width:0.75;" x="342.870906" xlink:href="#m387794e2bf" y="91.123367"/>
     <use style="fill:#d62728;stroke:#ffffff;stroke-linejoin:miter;stroke-width:0.75;" x="344.448944" xlink:href="#m387794e2bf" y="73.822242"/>
     <use style="fill:#d62728;stroke:#ffffff;stroke-linejoin:miter;stroke-width:0.75;" x="345.993042" xlink:href="#m387794e2bf" y="73.822242"/>
     <use style="fill:#d62728;stroke:#ffffff;stroke-linejoin:miter;stroke-width:0.75;" x="347.504631" xlink:href="#m387794e2bf" y="69.238184"/>
     <use style="fill:#d62728;stroke:#ffffff;stroke-linejoin:miter;stroke-width:0.75;" x="348.985051" xlink:href="#m387794e2bf" y="69.238184"/>
     <use style="fill:#d62728;stroke:#ffffff;stroke-linejoin:miter;stroke-width:0.75;" x="350.435561" xlink:href="#m387794e2bf" y="68.646692"/>
     <use style="fill:#d62728;stroke:#ffffff;stroke-linejoin:miter;stroke-width:0.75;" x="351.857347" xlink:href="#m387794e2bf" y="68.572756"/>
     <use style="fill:#d62728;stroke:#ffffff;stroke-linejoin:miter;stroke-width:0.75;" x="353.251523" xlink:href="#m387794e2bf" y="50.754076"/>
     <use style="fill:#d62728;stroke:#ffffff;stroke-linejoin:miter;stroke-width:0.75;" x="354.619142" xlink:href="#m387794e2bf" y="48.757792"/>
     <use style="fill:#d62728;stroke:#ffffff;stroke-linejoin:miter;stroke-width:0.75;" x="355.961196" xlink:href="#m387794e2bf" y="48.240237"/>
     <use style="fill:#d62728;stroke:#ffffff;stroke-linejoin:miter;stroke-width:0.75;" x="357.278624" xlink:href="#m387794e2bf" y="48.240237"/>
     <use style="fill:#d62728;stroke:#ffffff;stroke-linejoin:miter;stroke-width:0.75;" x="358.572313" xlink:href="#m387794e2bf" y="48.018428"/>
     <use style="fill:#d62728;stroke:#ffffff;stroke-linejoin:miter;stroke-width:0.75;" x="359.843104" xlink:href="#m387794e2bf" y="47.870555"/>
     <use style="fill:#d62728;stroke:#ffffff;stroke-linejoin:miter;stroke-width:0.75;" x="361.091794" xlink:href="#m387794e2bf" y="46.983318"/>
     <use style="fill:#d62728;stroke:#ffffff;stroke-linejoin:miter;stroke-width:0.75;" x="362.319136" xlink:href="#m387794e2bf" y="46.761509"/>
     <use style="fill:#d62728;stroke:#ffffff;stroke-linejoin:miter;stroke-width:0.75;" x="363.525851" xlink:href="#m387794e2bf" y="46.761509"/>
     <use style="fill:#d62728;stroke:#ffffff;stroke-linejoin:miter;stroke-width:0.75;" x="364.712619" xlink:href="#m387794e2bf" y="46.761509"/>
     <use style="fill:#d62728;stroke:#ffffff;stroke-linejoin:miter;stroke-width:0.75;" x="365.880089" xlink:href="#m387794e2bf" y="46.5397"/>
     <use style="fill:#d62728;stroke:#ffffff;stroke-linejoin:miter;stroke-width:0.75;" x="367.028878" xlink:href="#m387794e2bf" y="46.5397"/>
     <use style="fill:#d62728;stroke:#ffffff;stroke-linejoin:miter;stroke-width:0.75;" x="368.159576" xlink:href="#m387794e2bf" y="45.430653"/>
     <use style="fill:#d62728;stroke:#ffffff;stroke-linejoin:miter;stroke-width:0.75;" x="369.272743" xlink:href="#m387794e2bf" y="45.430653"/>
     <use style="fill:#d62728;stroke:#ffffff;stroke-linejoin:miter;stroke-width:0.75;" x="370.368914" xlink:href="#m387794e2bf" y="45.430653"/>
     <use style="fill:#d62728;stroke:#ffffff;stroke-linejoin:miter;stroke-width:0.75;" x="371.4486" xlink:href="#m387794e2bf" y="45.356717"/>
     <use style="fill:#d62728;stroke:#ffffff;stroke-linejoin:miter;stroke-width:0.75;" x="372.512291" xlink:href="#m387794e2bf" y="45.356717"/>
     <use style="fill:#d62728;stroke:#ffffff;stroke-linejoin:miter;stroke-width:0.75;" x="373.560453" xlink:href="#m387794e2bf" y="45.356717"/>
     <use style="fill:#d62728;stroke:#ffffff;stroke-linejoin:miter;stroke-width:0.75;" x="374.593533" xlink:href="#m387794e2bf" y="45.28278"/>
     <use style="fill:#d62728;stroke:#ffffff;stroke-linejoin:miter;stroke-width:0.75;" x="375.611959" xlink:href="#m387794e2bf" y="45.28278"/>
     <use style="fill:#d62728;stroke:#ffffff;stroke-linejoin:miter;stroke-width:0.75;" x="376.616141" xlink:href="#m387794e2bf" y="45.28278"/>
     <use style="fill:#d62728;stroke:#ffffff;stroke-linejoin:miter;stroke-width:0.75;" x="377.606471" xlink:href="#m387794e2bf" y="45.28278"/>
     <use style="fill:#d62728;stroke:#ffffff;stroke-linejoin:miter;stroke-width:0.75;" x="378.583327" xlink:href="#m387794e2bf" y="45.28278"/>
     <use style="fill:#d62728;stroke:#ffffff;stroke-linejoin:miter;stroke-width:0.75;" x="379.547071" xlink:href="#m387794e2bf" y="45.28278"/>
     <use style="fill:#d62728;stroke:#ffffff;stroke-linejoin:miter;stroke-width:0.75;" x="380.498049" xlink:href="#m387794e2bf" y="45.28278"/>
     <use style="fill:#d62728;stroke:#ffffff;stroke-linejoin:miter;stroke-width:0.75;" x="381.436596" xlink:href="#m387794e2bf" y="45.208844"/>
     <use style="fill:#d62728;stroke:#ffffff;stroke-linejoin:miter;stroke-width:0.75;" x="382.363032" xlink:href="#m387794e2bf" y="45.208844"/>
     <use style="fill:#d62728;stroke:#ffffff;stroke-linejoin:miter;stroke-width:0.75;" x="383.277666" xlink:href="#m387794e2bf" y="45.208844"/>
     <use style="fill:#d62728;stroke:#ffffff;stroke-linejoin:miter;stroke-width:0.75;" x="384.180795" xlink:href="#m387794e2bf" y="45.208844"/>
     <use style="fill:#d62728;stroke:#ffffff;stroke-linejoin:miter;stroke-width:0.75;" x="385.072705" xlink:href="#m387794e2bf" y="45.208844"/>
     <use style="fill:#d62728;stroke:#ffffff;stroke-linejoin:miter;stroke-width:0.75;" x="385.953671" xlink:href="#m387794e2bf" y="45.208844"/>
     <use style="fill:#d62728;stroke:#ffffff;stroke-linejoin:miter;stroke-width:0.75;" x="386.823958" xlink:href="#m387794e2bf" y="45.208844"/>
     <use style="fill:#d62728;stroke:#ffffff;stroke-linejoin:miter;stroke-width:0.75;" x="387.683823" xlink:href="#m387794e2bf" y="45.208844"/>
     <use style="fill:#d62728;stroke:#ffffff;stroke-linejoin:miter;stroke-width:0.75;" x="388.533511" xlink:href="#m387794e2bf" y="45.208844"/>
     <use style="fill:#d62728;stroke:#ffffff;stroke-linejoin:miter;stroke-width:0.75;" x="389.373261" xlink:href="#m387794e2bf" y="45.134907"/>
     <use style="fill:#d62728;stroke:#ffffff;stroke-linejoin:miter;stroke-width:0.75;" x="390.203303" xlink:href="#m387794e2bf" y="43.877988"/>
     <use style="fill:#d62728;stroke:#ffffff;stroke-linejoin:miter;stroke-width:0.75;" x="391.023858" xlink:href="#m387794e2bf" y="43.804052"/>
     <use style="fill:#d62728;stroke:#ffffff;stroke-linejoin:miter;stroke-width:0.75;" x="391.835142" xlink:href="#m387794e2bf" y="43.138624"/>
     <use style="fill:#d62728;stroke:#ffffff;stroke-linejoin:miter;stroke-width:0.75;" x="392.63736" xlink:href="#m387794e2bf" y="43.138624"/>
     <use style="fill:#d62728;stroke:#ffffff;stroke-linejoin:miter;stroke-width:0.75;" x="393.430714" xlink:href="#m387794e2bf" y="43.138624"/>
     <use style="fill:#d62728;stroke:#ffffff;stroke-linejoin:miter;stroke-width:0.75;" x="394.215398" xlink:href="#m387794e2bf" y="43.138624"/>
    </g>
   </g>
   <g id="line2d_36"/>
   <g id="line2d_37"/>
   <g id="line2d_38"/>
   <g id="patch_3">
    <path d="M 53.328125 283.284149 
L 53.328125 46.687572 
" style="fill:none;stroke:#000000;stroke-linecap:square;stroke-linejoin:miter;stroke-width:0.8;"/>
   </g>
   <g id="patch_4">
    <path d="M 69.560852 288.430125 
L 394.216265 288.430125 
" style="fill:none;stroke:#000000;stroke-linecap:square;stroke-linejoin:miter;stroke-width:0.8;"/>
   </g>
   <g id="text_18">
    <!-- zstd_stream_decompress (23h, 20 trials/fuzzer) -->
    <g transform="translate(89.300938 16.318125)scale(0.12 -0.12)">
     <defs>
      <path d="M 353 3500 
L 3084 3500 
L 3084 2975 
L 922 459 
L 3084 459 
L 3084 0 
L 275 0 
L 275 525 
L 2438 3041 
L 353 3041 
L 353 3500 
z
" id="DejaVuSans-7a" transform="scale(0.015625)"/>
      <path d="M 2834 3397 
L 2834 2853 
Q 2591 2978 2328 3040 
Q 2066 3103 1784 3103 
Q 1356 3103 1142 2972 
Q 928 2841 928 2578 
Q 928 2378 1081 2264 
Q 1234 2150 1697 2047 
L 1894 2003 
Q 2506 1872 2764 1633 
Q 3022 1394 3022 966 
Q 3022 478 2636 193 
Q 2250 -91 1575 -91 
Q 1294 -91 989 -36 
Q 684 19 347 128 
L 347 722 
Q 666 556 975 473 
Q 1284 391 1588 391 
Q 1994 391 2212 530 
Q 2431 669 2431 922 
Q 2431 1156 2273 1281 
Q 2116 1406 1581 1522 
L 1381 1569 
Q 847 1681 609 1914 
Q 372 2147 372 2553 
Q 372 3047 722 3315 
Q 1072 3584 1716 3584 
Q 2034 3584 2315 3537 
Q 2597 3491 2834 3397 
z
" id="DejaVuSans-73" transform="scale(0.015625)"/>
      <path d="M 3263 -1063 
L 3263 -1509 
L -63 -1509 
L -63 -1063 
L 3263 -1063 
z
" id="DejaVuSans-5f" transform="scale(0.015625)"/>
      <path d="M 1159 525 
L 1159 -1331 
L 581 -1331 
L 581 3500 
L 1159 3500 
L 1159 2969 
Q 1341 3281 1617 3432 
Q 1894 3584 2278 3584 
Q 2916 3584 3314 3078 
Q 3713 2572 3713 1747 
Q 3713 922 3314 415 
Q 2916 -91 2278 -91 
Q 1894 -91 1617 61 
Q 1341 213 1159 525 
z
M 3116 1747 
Q 3116 2381 2855 2742 
Q 2594 3103 2138 3103 
Q 1681 3103 1420 2742 
Q 1159 2381 1159 1747 
Q 1159 1113 1420 752 
Q 1681 391 2138 391 
Q 2594 391 2855 752 
Q 3116 1113 3116 1747 
z
" id="DejaVuSans-70" transform="scale(0.015625)"/>
      <path d="M 750 794 
L 1409 794 
L 1409 256 
L 897 -744 
L 494 -744 
L 750 256 
L 750 794 
z
" id="DejaVuSans-2c" transform="scale(0.015625)"/>
      <path d="M 603 4863 
L 1178 4863 
L 1178 0 
L 603 0 
L 603 4863 
z
" id="DejaVuSans-6c" transform="scale(0.015625)"/>
      <path d="M 1625 4666 
L 2156 4666 
L 531 -594 
L 0 -594 
L 1625 4666 
z
" id="DejaVuSans-2f" transform="scale(0.015625)"/>
      <path d="M 2375 4863 
L 2375 4384 
L 1825 4384 
Q 1516 4384 1395 4259 
Q 1275 4134 1275 3809 
L 1275 3500 
L 2222 3500 
L 2222 3053 
L 1275 3053 
L 1275 0 
L 697 0 
L 697 3053 
L 147 3053 
L 147 3500 
L 697 3500 
L 697 3744 
Q 697 4328 969 4595 
Q 1241 4863 1831 4863 
L 2375 4863 
z
" id="DejaVuSans-66" transform="scale(0.015625)"/>
     </defs>
     <use xlink:href="#DejaVuSans-7a"/>
     <use x="52.490234" xlink:href="#DejaVuSans-73"/>
     <use x="104.589844" xlink:href="#DejaVuSans-74"/>
     <use x="143.798828" xlink:href="#DejaVuSans-64"/>
     <use x="207.275391" xlink:href="#DejaVuSans-5f"/>
     <use x="257.275391" xlink:href="#DejaVuSans-73"/>
     <use x="309.375" xlink:href="#DejaVuSans-74"/>
     <use x="348.583984" xlink:href="#DejaVuSans-72"/>
     <use x="387.447266" xlink:href="#DejaVuSans-65"/>
     <use x="448.970703" xlink:href="#DejaVuSans-61"/>
     <use x="510.25" xlink:href="#DejaVuSans-6d"/>
     <use x="607.662109" xlink:href="#DejaVuSans-5f"/>
     <use x="657.662109" xlink:href="#DejaVuSans-64"/>
     <use x="721.138672" xlink:href="#DejaVuSans-65"/>
     <use x="782.662109" xlink:href="#DejaVuSans-63"/>
     <use x="837.642578" xlink:href="#DejaVuSans-6f"/>
     <use x="898.824219" xlink:href="#DejaVuSans-6d"/>
     <use x="996.236328" xlink:href="#DejaVuSans-70"/>
     <use x="1059.712891" xlink:href="#DejaVuSans-72"/>
     <use x="1098.576172" xlink:href="#DejaVuSans-65"/>
     <use x="1160.099609" xlink:href="#DejaVuSans-73"/>
     <use x="1212.199219" xlink:href="#DejaVuSans-73"/>
     <use x="1264.298828" xlink:href="#DejaVuSans-20"/>
     <use x="1296.085938" xlink:href="#DejaVuSans-28"/>
     <use x="1335.099609" xlink:href="#DejaVuSans-32"/>
     <use x="1398.722656" xlink:href="#DejaVuSans-33"/>
     <use x="1462.345703" xlink:href="#DejaVuSans-68"/>
     <use x="1525.724609" xlink:href="#DejaVuSans-2c"/>
     <use x="1557.511719" xlink:href="#DejaVuSans-20"/>
     <use x="1589.298828" xlink:href="#DejaVuSans-32"/>
     <use x="1652.921875" xlink:href="#DejaVuSans-30"/>
     <use x="1716.544922" xlink:href="#DejaVuSans-20"/>
     <use x="1748.332031" xlink:href="#DejaVuSans-74"/>
     <use x="1787.541016" xlink:href="#DejaVuSans-72"/>
     <use x="1828.654297" xlink:href="#DejaVuSans-69"/>
     <use x="1856.4375" xlink:href="#DejaVuSans-61"/>
     <use x="1917.716797" xlink:href="#DejaVuSans-6c"/>
     <use x="1945.5" xlink:href="#DejaVuSans-73"/>
     <use x="1997.599609" xlink:href="#DejaVuSans-2f"/>
     <use x="2031.291016" xlink:href="#DejaVuSans-66"/>
     <use x="2066.496094" xlink:href="#DejaVuSans-75"/>
     <use x="2129.875" xlink:href="#DejaVuSans-7a"/>
     <use x="2182.365234" xlink:href="#DejaVuSans-7a"/>
     <use x="2234.855469" xlink:href="#DejaVuSans-65"/>
     <use x="2296.378906" xlink:href="#DejaVuSans-72"/>
     <use x="2337.492188" xlink:href="#DejaVuSans-29"/>
    </g>
   </g>
   <g id="legend_1">
    <g id="line2d_39">
     <path d="M 414.448125 30.416562 
L 434.448125 30.416562 
" style="fill:none;stroke:#98df8a;stroke-linecap:square;stroke-width:1.5;"/>
    </g>
    <g id="line2d_40">
     <defs>
      <path d="M -0 3 
L 3 -3 
L -3 -3 
z
" id="m16e2194b70" style="stroke:#98df8a;stroke-linejoin:miter;"/>
     </defs>
     <g>
      <use style="fill:#98df8a;stroke:#98df8a;stroke-linejoin:miter;" x="424.448125" xlink:href="#m16e2194b70" y="30.416562"/>
     </g>
    </g>
    <g id="text_19">
     <!-- afl_scheduling_lifo -->
     <g transform="translate(442.448125 33.916562)scale(0.1 -0.1)">
      <use xlink:href="#DejaVuSans-61"/>
      <use x="61.279297" xlink:href="#DejaVuSans-66"/>
      <use x="96.484375" xlink:href="#DejaVuSans-6c"/>
      <use x="124.267578" xlink:href="#DejaVuSans-5f"/>
      <use x="174.267578" xlink:href="#DejaVuSans-73"/>
      <use x="226.367188" xlink:href="#DejaVuSans-63"/>
      <use x="281.347656" xlink:href="#DejaVuSans-68"/>
      <use x="344.726562" xlink:href="#DejaVuSans-65"/>
      <use x="406.25" xlink:href="#DejaVuSans-64"/>
      <use x="469.726562" xlink:href="#DejaVuSans-75"/>
      <use x="533.105469" xlink:href="#DejaVuSans-6c"/>
      <use x="560.888672" xlink:href="#DejaVuSans-69"/>
      <use x="588.671875" xlink:href="#DejaVuSans-6e"/>
      <use x="652.050781" xlink:href="#DejaVuSans-67"/>
      <use x="715.527344" xlink:href="#DejaVuSans-5f"/>
      <use x="765.527344" xlink:href="#DejaVuSans-6c"/>
      <use x="793.310547" xlink:href="#DejaVuSans-69"/>
      <use x="821.09375" xlink:href="#DejaVuSans-66"/>
      <use x="856.298828" xlink:href="#DejaVuSans-6f"/>
     </g>
    </g>
    <g id="line2d_41">
     <path d="M 414.448125 45.372813 
L 434.448125 45.372813 
" style="fill:none;stroke:#1f77b4;stroke-linecap:square;stroke-width:1.5;"/>
    </g>
    <g id="line2d_42">
     <defs>
      <path d="M 0 3 
C 0.795609 3 1.55874 2.683901 2.12132 2.12132 
C 2.683901 1.55874 3 0.795609 3 0 
C 3 -0.795609 2.683901 -1.55874 2.12132 -2.12132 
C 1.55874 -2.683901 0.795609 -3 0 -3 
C -0.795609 -3 -1.55874 -2.683901 -2.12132 -2.12132 
C -2.683901 -1.55874 -3 -0.795609 -3 0 
C -3 0.795609 -2.683901 1.55874 -2.12132 2.12132 
C -1.55874 2.683901 -0.795609 3 0 3 
z
" id="me206a55600" style="stroke:#1f77b4;"/>
     </defs>
     <g>
      <use style="fill:#1f77b4;stroke:#1f77b4;" x="424.448125" xlink:href="#me206a55600" y="45.372813"/>
     </g>
    </g>
    <g id="text_20">
     <!-- afl -->
     <g transform="translate(442.448125 48.872813)scale(0.1 -0.1)">
      <use xlink:href="#DejaVuSans-61"/>
      <use x="61.279297" xlink:href="#DejaVuSans-66"/>
      <use x="96.484375" xlink:href="#DejaVuSans-6c"/>
     </g>
    </g>
    <g id="line2d_43">
     <path d="M 414.448125 60.050937 
L 434.448125 60.050937 
" style="fill:none;stroke:#d62728;stroke-linecap:square;stroke-width:1.5;"/>
    </g>
    <g id="line2d_44">
     <defs>
      <path d="M 0 -3 
L -3 3 
L 3 3 
z
" id="mb946f62042" style="stroke:#d62728;stroke-linejoin:miter;"/>
     </defs>
     <g>
      <use style="fill:#d62728;stroke:#d62728;stroke-linejoin:miter;" x="424.448125" xlink:href="#mb946f62042" y="60.050937"/>
     </g>
    </g>
    <g id="text_21">
     <!-- afl_scheduling_random -->
     <g transform="translate(442.448125 63.550937)scale(0.1 -0.1)">
      <use xlink:href="#DejaVuSans-61"/>
      <use x="61.279297" xlink:href="#DejaVuSans-66"/>
      <use x="96.484375" xlink:href="#DejaVuSans-6c"/>
      <use x="124.267578" xlink:href="#DejaVuSans-5f"/>
      <use x="174.267578" xlink:href="#DejaVuSans-73"/>
      <use x="226.367188" xlink:href="#DejaVuSans-63"/>
      <use x="281.347656" xlink:href="#DejaVuSans-68"/>
      <use x="344.726562" xlink:href="#DejaVuSans-65"/>
      <use x="406.25" xlink:href="#DejaVuSans-64"/>
      <use x="469.726562" xlink:href="#DejaVuSans-75"/>
      <use x="533.105469" xlink:href="#DejaVuSans-6c"/>
      <use x="560.888672" xlink:href="#DejaVuSans-69"/>
      <use x="588.671875" xlink:href="#DejaVuSans-6e"/>
      <use x="652.050781" xlink:href="#DejaVuSans-67"/>
      <use x="715.527344" xlink:href="#DejaVuSans-5f"/>
      <use x="765.527344" xlink:href="#DejaVuSans-72"/>
      <use x="806.640625" xlink:href="#DejaVuSans-61"/>
      <use x="867.919922" xlink:href="#DejaVuSans-6e"/>
      <use x="931.298828" xlink:href="#DejaVuSans-64"/>
      <use x="994.775391" xlink:href="#DejaVuSans-6f"/>
      <use x="1055.957031" xlink:href="#DejaVuSans-6d"/>
     </g>
    </g>
   </g>
  </g>
 </g>
 <defs>
  <clipPath id="p94e1aa588c">
   <rect height="266.112" width="357.12" x="53.328125" y="22.318125"/>
  </clipPath>
 </defs>
</svg>
